<?xml version="1.0" standalone="no"?>
<!DOCTYPE svg PUBLIC "-//W3C//DTD SVG 1.1//EN" "http://www.w3.org/Graphics/SVG/1.1/DTD/svg11.dtd" >
<svg xmlns="http://www.w3.org/2000/svg" xmlns:xlink="http://www.w3.org/1999/xlink" version="1.1" viewBox="-10 0 429 1000">
  <g transform="matrix(1 0 0 -1 0 761)">
   <path fill="currentColor"
d="M170 459h-120v24v91l1 15c1 12 3 23 6 36c5 17 14 32 27 45s30 24 48 31c19 7 31 10 38 10v-38c-22 -6 -38 -16 -49 -29c-10 -13 -16 -31 -18 -55h67v-106v-24zM369 459h-120v24v91l1 15c1 12 3 23 6 36c5 17 14 32 26 45c14 13 30 24 49 31c18 7 31 10 38 10v-38
c-22 -6 -39 -16 -49 -29s-16 -31 -18 -55h67v-106v-24z" />
  </g>

</svg>
