<?xml version="1.0" standalone="no"?>
<!DOCTYPE svg PUBLIC "-//W3C//DTD SVG 1.1//EN" "http://www.w3.org/Graphics/SVG/1.1/DTD/svg11.dtd" >
<svg xmlns="http://www.w3.org/2000/svg" xmlns:xlink="http://www.w3.org/1999/xlink" version="1.1" viewBox="-10 0 838 1000">
  <g transform="matrix(1 0 0 -1 0 761)">
   <path fill="currentColor"
d="M788 487l-213 -518l-165 302l-159 -304l-211 520h748zM225 373l50 -131l67 131h-117zM560 241l48 132h-118zM613 643c0 39 -32 70 -71 70s-70 -31 -70 -70s31 -70 70 -70s71 31 71 70zM371 643c0 39 -31 70 -70 70s-71 -31 -71 -70s32 -70 71 -70s70 31 70 70z" />
  </g>

</svg>
