<?xml version="1.0" standalone="no"?>
<!DOCTYPE svg PUBLIC "-//W3C//DTD SVG 1.1//EN" "http://www.w3.org/Graphics/SVG/1.1/DTD/svg11.dtd" >
<svg xmlns="http://www.w3.org/2000/svg" xmlns:xlink="http://www.w3.org/1999/xlink" version="1.1" viewBox="-15 0 900 1000">
  <g transform="matrix(1 0 0 -1 0 800)">
   <path fill="currentColor"
d="M23 -5q-12 0 -20 3t-8 10q0 8 8 12.5t22 9.5q27 8 53.5 32.5t45.5 55.5l280 477q4 6 -0.5 10.5t-12.5 5.5l-69 13q-7 2 -10 6t-3 9q0 13 13 13q32 0 76.5 -1.5t89.5 -1.5q42 0 89.5 0.5t92 1.5t78.5 1.5t49 0.5q6 0 12.5 -2.5t7.5 -9.5q6 -31 9.5 -58.5t4.5 -53.5
q0 -6 -4.5 -9.5t-9.5 -3.5t-8 3t-6 9q-7 22 -13.5 37.5t-16.5 24.5q-13 14 -29.5 19.5t-36.5 5.5h-111q-13 0 -27.5 -7.5t-14.5 -23.5v-227q0 -9 5.5 -15.5t14.5 -6.5q29 0 51.5 0.5t41.5 0.5q17 1 28 10t20 21q11 11 16.5 23t14.5 12q4 0 8.5 -5t3.5 -13q-1 -19 -2 -35
t-1 -31q0 -18 1 -36t2 -40q1 -10 -1.5 -15t-7.5 -5q-9 0 -15 8t-9 15q-7 25 -20.5 37.5t-27.5 12.5q-28 2 -50.5 2h-49.5q-10 0 -16.5 -6t-6.5 -17v-167q0 -28 14.5 -48.5t46.5 -20.5h99q6 0 21 2.5t30.5 6.5t22.5 10q16 12 27.5 33t19.5 38q3 7 6 10t9 2q13 -1 13 -12
q0 -28 -7 -59t-14 -58q-1 -6 -5 -11t-12 -5q-32 0 -70.5 1t-80.5 2t-86.5 2t-87.5 1q-22 0 -40.5 -1.5t-38.5 -3t-45 -1.5q-11 0 -18.5 3t-7.5 9q0 13 30 19q35 8 52 22.5t17 47.5v162q0 7 -3.5 12.5t-17.5 5.5h-141q-10 0 -16.5 -5.5t-11.5 -16.5q-18 -33 -36 -68t-38 -75
q-8 -16 -8 -30q0 -22 19.5 -33t45.5 -17q29 -8 29 -20q0 -7 -7 -9.5t-19 -2.5q-19 0 -45 1t-54 1q-33 0 -64.5 -3t-58.5 -3zM318 323h115q9 0 12.5 3t3.5 11v232q0 15 -3 16.5t-12 -14.5l-129 -232q-4 -7 -3 -11q0 -3 4.5 -4t11.5 -1zM514 684q-8 1 -8 7q0 7 7 17
q21 31 42.5 61.5t45.5 59.5q10 14 29 13q7 -1 22.5 -5t28 -10t12.5 -13q-1 -9 -15 -20q-33 -26 -71.5 -52t-71.5 -49q-8 -5 -13 -7t-8 -2z" />
  </g>

</svg>
