<?xml version="1.0" standalone="no"?>
<!DOCTYPE svg PUBLIC "-//W3C//DTD SVG 1.1//EN" "http://www.w3.org/Graphics/SVG/1.1/DTD/svg11.dtd" >
<svg xmlns="http://www.w3.org/2000/svg" xmlns:xlink="http://www.w3.org/1999/xlink" version="1.1" viewBox="-10 0 618 1000">
  <g transform="matrix(1 0 0 -1 0 800)">
   <path fill="currentColor"
d="M50 -4q-6 0 -13 4t-7 9q0 8 7 12t15 5q26 4 42 14.5t16 34.5v285q0 28 -11 42.5t-41 19.5q-8 2 -15 7t-7 11t6.5 9.5t12.5 3.5q18 0 35 -1t33.5 -2.5t31.5 -1.5q12 0 32.5 1.5l41 3t31.5 1.5q91 0 156.5 -20t101.5 -67.5t35 -132.5q0 -74 -41 -127.5t-107.5 -82
t-146.5 -28.5q-13 0 -32 1.5t-39.5 3t-36.5 1.5q-17 0 -33 -1.5t-32.5 -3t-34.5 -1.5zM280 28q50 0 85.5 26t54 70t18.5 94q0 63 -19.5 109t-58.5 70.5t-95 24.5q-21 0 -37 -11t-16 -31v-291q0 -27 18 -44t50 -17zM285 539q-7 0 -13 7.5t-12 17.5q-8 14 -21 36t-27 46
t-24.5 43.5t-12.5 28.5q-3 10 -2 16t11 6q7 0 16 -7.5t18 -17.5q10 -12 28.5 -34.5t34.5 -44.5q3 -4 4.5 -4t4.5 4q17 22 35.5 44.5t28.5 34.5q8 10 17 17.5t16 7.5t9.5 -6t-0.5 -16q-3 -9 -13 -28.5t-24 -43.5t-27 -46.5t-21 -35.5q-7 -10 -12.5 -17.5t-13.5 -7.5z" />
  </g>

</svg>
