<?xml version="1.0" standalone="no"?>
<!DOCTYPE svg PUBLIC "-//W3C//DTD SVG 1.1//EN" "http://www.w3.org/Graphics/SVG/1.1/DTD/svg11.dtd" >
<svg xmlns="http://www.w3.org/2000/svg" xmlns:xlink="http://www.w3.org/1999/xlink" version="1.1" viewBox="-10 0 494 1000">
  <g transform="matrix(1 0 0 -1 0 800)">
   <path fill="currentColor"
d="M50 -3q-6 0 -12.5 3.5t-6.5 9.5q0 8 7.5 12t14.5 6q24 5 40 14.5t16 33.5v283q0 27 -11 42t-41 20q-8 2 -14.5 7t-6.5 12q0 6 6.5 9.5t12.5 3.5q17 0 32 -1t30 -2.5t29 -1.5q35 0 72 0.5t71 1t60.5 1t39.5 0.5q4 0 9.5 -2t5.5 -8q1 -33 6 -56.5t5 -36.5q0 -4 -2.5 -9
t-5.5 -5q-4 0 -10 4t-10 13q-12 29 -24.5 46.5t-41.5 17.5h-82q-9 0 -18.5 -5.5t-9.5 -18.5v-125q0 -7 4 -14.5t10 -7.5h68q16 0 24.5 10.5t15.5 31.5q3 6 7 10.5t9 4.5t8.5 -4.5t2.5 -11.5q-2 -15 -3 -30t-1 -28q0 -15 1.5 -27.5t2.5 -29.5q1 -7 -1.5 -13.5t-7.5 -6.5
q-8 0 -12 8.5t-6 13.5q-5 20 -14.5 27t-20.5 8q-14 2 -32.5 2h-33.5q-12 0 -16.5 -3t-4.5 -15v-115q0 -23 6 -30t26 -7h88q31 0 54 20t33 45q2 4 5.5 9.5t9.5 5.5t8 -5.5t2 -11.5q-1 -21 -6.5 -44t-12.5 -45q-1 -6 -7 -10.5t-13 -4.5q-28 0 -60 0.5t-64.5 1t-65 1.5t-61.5 1
q-17 0 -34.5 -1.5t-34.5 -2.5t-34 -1zM250 538q-30 0 -51.5 10.5t-35 27.5t-20.5 36t-7 37q0 12 5.5 19.5t12.5 7.5q9 0 12.5 -6t4.5 -15q5 -22 24 -36t55 -14q37 0 55.5 14t23.5 36q2 9 5.5 15t11.5 6t13 -7.5t5 -19.5q0 -18 -7 -37t-20.5 -36t-35 -27.5t-51.5 -10.5z" />
  </g>

</svg>
