<?xml version="1.0" standalone="no"?>
<!DOCTYPE svg PUBLIC "-//W3C//DTD SVG 1.1//EN" "http://www.w3.org/Graphics/SVG/1.1/DTD/svg11.dtd" >
<svg xmlns="http://www.w3.org/2000/svg" xmlns:xlink="http://www.w3.org/1999/xlink" version="1.1" viewBox="-10 0 406 1000">
  <g transform="matrix(1 0 0 -1 0 800)">
   <path fill="currentColor"
d="M52 441q-8 0 -13 2t-5 6q0 11 20 14q24 3 33.5 13t9.5 30v264q0 24 -8 36t-33 16q-9 2 -13.5 5t-4.5 7q0 5 4.5 8t11.5 3q17 0 29 -0.5t23.5 -1t26.5 -0.5q30 -1 60 -0.5t57.5 1t51.5 1t42 0.5q4 0 9 -2.5t6 -10.5q1 -15 1.5 -29t0.5 -37q0 -5 -1.5 -9t-4.5 -4
q-4 0 -7 2.5t-5 6.5q-7 20 -14.5 31t-19.5 16t-33 5h-63q-16 0 -21.5 -8.5t-6.5 -22.5v-109q0 -7 5 -10.5t10 -3.5h34h29q16 0 25.5 8.5t13.5 19.5q3 7 6.5 9.5t7.5 2.5t6 -5t2 -13l-2 -18t-1 -19q0 -11 1 -19.5t1 -19.5q1 -6 -0.5 -9.5t-5.5 -3.5q-5 0 -9 3.5t-6 10.5
q-4 17 -13.5 22.5t-19.5 5.5h-21.5h-29h-18.5q-15 0 -15 -15q0 -28 0.5 -56t1.5 -57q0 -18 10 -29.5t35 -14.5q10 -1 12.5 -4t2.5 -10q0 -4 -2.5 -6t-10.5 -2q-16 0 -30.5 1t-27 1.5t-25.5 0.5q-26 0 -50.5 -1.5t-48.5 -1.5z" />
  </g>

</svg>
