<?xml version="1.0" standalone="no"?>
<!DOCTYPE svg PUBLIC "-//W3C//DTD SVG 1.1//EN" "http://www.w3.org/Graphics/SVG/1.1/DTD/svg11.dtd" >
<svg xmlns="http://www.w3.org/2000/svg" xmlns:xlink="http://www.w3.org/1999/xlink" version="1.1" viewBox="-10 0 523 1000">
  <g transform="matrix(1 0 0 -1 0 800)">
   <path fill="currentColor"
d="M278 -5q-65 0 -119 27.5t-86.5 75t-32.5 107.5q0 57 33.5 103.5t90.5 74.5t127 28q18 0 41.5 -2.5t46 -7t37.5 -10.5q8 -2 11.5 -6.5t4.5 -13.5q3 -18 4.5 -36t1.5 -29q0 -5 -4 -8.5t-9 -3.5q-7 0 -10.5 4.5t-5.5 9.5q-5 11 -10 21.5t-14 19.5q-8 11 -31.5 21t-64.5 10
q-48 0 -83 -24.5t-52.5 -64t-17.5 -85.5q0 -49 16.5 -90.5t49.5 -66.5t81 -25q19 0 33 5.5t22 10.5q11 7 17 18.5t7 25.5q1 6 1 14v17v14q0 11 -4.5 17.5t-14.5 9.5q-14 4 -21.5 6t-15.5 3q-6 0 -11.5 5t-5.5 10t4.5 7t9.5 2q15 0 30 -1t30 -1.5t32 -0.5q21 0 37.5 1t34.5 1
q4 0 9 -2t5 -7t-5.5 -9t-9.5 -5q-16 -5 -21.5 -11.5t-7.5 -19.5q-3 -17 -3.5 -30t-0.5 -34q0 -3 2 -5.5t4 -6.5q3 -3 6 -5.5t3 -5.5t-3.5 -6.5t-8.5 -6.5q-15 -8 -40.5 -17t-56 -15.5t-62.5 -6.5z" />
  </g>

</svg>
