<?xml version="1.0" standalone="no"?>
<!DOCTYPE svg PUBLIC "-//W3C//DTD SVG 1.1//EN" "http://www.w3.org/Graphics/SVG/1.1/DTD/svg11.dtd" >
<svg xmlns="http://www.w3.org/2000/svg" xmlns:xlink="http://www.w3.org/1999/xlink" version="1.1" viewBox="-10 0 598 1000">
  <g transform="matrix(1 0 0 -1 0 800)">
   <path fill="currentColor"
d="M53 -143q-7 0 -12.5 2t-5.5 6q0 5 5 8t15 4q24 3 31.5 12.5t7.5 29.5v279q0 21 -6 29.5t-30 11.5q-20 3 -20 14q0 4 5.5 6t12.5 2q17 0 30 -0.5t25.5 -1t27.5 -0.5q16 0 29.5 0.5t27.5 1t30 0.5q18 0 18 -8q0 -5 -5 -8t-15 -5q-24 -4 -33.5 -14t-9.5 -28v-113q0 -8 10 -8
q32 0 59.5 -1t56.5 -1q19 0 44 1t52 1q7 0 7 9l-1 112q0 12 -3.5 20t-12.5 13t-26 9q-9 2 -14.5 5t-5.5 8q0 8 18 8q17 0 31.5 -0.5t29.5 -1t31 -0.5q15 0 26.5 0.5t23.5 1t29 0.5q7 0 12 -2t5 -6q0 -10 -20 -13q-24 -4 -29.5 -13.5t-5.5 -28.5v-278q0 -20 6.5 -30t28.5 -13
q21 -3 21 -12q0 -4 -6 -6t-13 -2q-15 0 -28.5 1t-25.5 1.5t-28 0.5t-29.5 -0.5t-27.5 -1.5t-31 -1q-18 0 -18 8q0 6 5 8.5t15 3.5q20 4 31.5 14t11.5 28v119q0 6 -6 6q-33 0 -63.5 1t-54.5 1q-19 0 -44.5 -1t-54.5 -1q-6 0 -6 -8v-114q0 -16 12.5 -29t34.5 -16q10 -1 15 -4
t5 -8q0 -8 -18 -8q-16 0 -30.5 1t-29 1.5t-31.5 0.5q-16 0 -30 -0.5t-27 -1.5t-29 -1z" />
  </g>

</svg>
