<?xml version="1.0" standalone="no"?>
<!DOCTYPE svg PUBLIC "-//W3C//DTD SVG 1.1//EN" "http://www.w3.org/Graphics/SVG/1.1/DTD/svg11.dtd" >
<svg xmlns="http://www.w3.org/2000/svg" xmlns:xlink="http://www.w3.org/1999/xlink" version="1.1" viewBox="-10 0 628 1000">
  <g transform="matrix(1 0 0 -1 0 800)">
   <path fill="currentColor"
d="M51 -2q-6 0 -13 3t-7 9q0 8 7 12t15 5q24 4 40.5 14t16.5 35v284q0 28 -11.5 42t-40.5 20q-9 2 -15.5 6.5t-6.5 12.5q0 6 7 9t12 3q18 0 35.5 -1t35 -2.5t34.5 -1.5t35 1.5t36.5 2.5t35.5 1q7 0 13 -3.5t6 -9.5q0 -7 -6.5 -11.5t-14.5 -6.5q-21 -4 -32.5 -12.5t-16 -20
t-4.5 -30.5v-282q0 -24 16.5 -34t40.5 -16q7 -1 14.5 -5t7.5 -12q0 -6 -6.5 -9t-12.5 -3q-17 0 -36 1t-38 2.5t-38 1.5q-18 0 -36.5 -1.5t-36.5 -2.5t-36 -1zM337 -164q-26 0 -47.5 6.5t-34.5 16.5t-13 20t8.5 20.5t19 18.5t16.5 8q12 0 20.5 -6.5t17.5 -13.5
q11 -11 19 -19.5t17 -8.5q27 0 39.5 31.5t12.5 95.5v355q0 27 -11 41.5t-43 20.5q-8 2 -14.5 6.5t-6.5 12.5q0 6 7 9t12 3q18 0 36 -1t35.5 -2.5t33.5 -1.5q18 0 36 1.5t37 2.5t36 1q6 0 12.5 -3.5t6.5 -9.5q0 -7 -6.5 -11.5t-15.5 -6.5q-29 -5 -41.5 -20t-12.5 -41v-261
q0 -47 -5 -84.5t-19.5 -69t-40.5 -60.5q-25 -25 -56 -37.5t-55 -12.5z" />
  </g>

</svg>
