<?xml version="1.0" standalone="no"?>
<!DOCTYPE svg PUBLIC "-//W3C//DTD SVG 1.1//EN" "http://www.w3.org/Graphics/SVG/1.1/DTD/svg11.dtd" >
<svg xmlns="http://www.w3.org/2000/svg" xmlns:xlink="http://www.w3.org/1999/xlink" version="1.1" viewBox="-10 0 332 1000">
  <g transform="matrix(1 0 0 -1 0 800)">
   <path fill="currentColor"
d="M51 -2q-6 0 -13 3t-7 9q0 8 7 12t15 5q24 4 40.5 14t16.5 35v284q0 28 -11.5 42t-40.5 20q-9 2 -15.5 6.5t-6.5 12.5q0 6 7 9t12 3q18 0 35.5 -1t35 -2.5t34.5 -1.5t35 1.5t36.5 2.5t35.5 1q7 0 13 -3.5t6 -9.5q0 -7 -6.5 -11.5t-14.5 -6.5q-21 -4 -32.5 -12.5t-16 -20
t-4.5 -30.5v-282q0 -24 16.5 -34t40.5 -16q7 -1 14.5 -5t7.5 -12q0 -6 -6.5 -9t-12.5 -3q-17 0 -36 1t-38 2.5t-38 1.5q-18 0 -36.5 -1.5t-36.5 -2.5t-36 -1zM169 -287q-45 0 -73.5 27.5t-28.5 80.5q0 29 12.5 56.5t32 51t40 42.5t37.5 31t24 16h33q-24 -22 -46 -47t-37 -54
t-15 -67q0 -31 16.5 -47.5t41.5 -16.5q22 0 36 9t21 13q4 2 8.5 1t4.5 -9q0 -14 -14.5 -34.5t-38.5 -36.5t-54 -16z" />
  </g>

</svg>
