<?xml version="1.0" standalone="no"?>
<!DOCTYPE svg PUBLIC "-//W3C//DTD SVG 1.1//EN" "http://www.w3.org/Graphics/SVG/1.1/DTD/svg11.dtd" >
<svg xmlns="http://www.w3.org/2000/svg" xmlns:xlink="http://www.w3.org/1999/xlink" version="1.1" viewBox="-10 0 489 1000">
  <g transform="matrix(1 0 0 -1 0 800)">
   <path fill="currentColor"
d="M50 -3q-5 0 -11 3.5t-6 8.5q0 7 6 11t15 6q25 5 41 14.5t16 34.5v283q0 27 -11 42t-43 21q-8 2 -14.5 7t-6.5 13q0 6 7 9t12 3q18 0 35.5 -1t35.5 -2.5t35 -1.5q16 0 33.5 1.5t36 2.5t35.5 1q6 0 12.5 -3.5t6.5 -9.5q0 -7 -7 -11.5t-15 -6.5q-28 -5 -39 -21t-11 -45v-277
q0 -24 7.5 -32t24.5 -8h85q22 0 37 7t27.5 24t26.5 45q2 4 6.5 9.5t11.5 5.5t9 -5.5t2 -11.5q0 -7 -3.5 -21t-8 -30t-8.5 -30l-6 -21q-1 -4 -6.5 -8.5t-10.5 -4.5q-28 0 -60 0.5t-66 1t-66.5 1.5t-62.5 1q-25 -1 -48 -3t-54 -2zM359 310q-4 0 -6.5 7t-2.5 17q0 3 1 13.5
t2 23t1 20.5q0 30 -3 47.5t-3 30.5q0 11 9.5 23t24 20t26.5 8q11 0 13.5 -9.5t2.5 -22.5q0 -19 -6 -47.5t-15 -56t-19 -47.5q-14 -27 -25 -27z" />
  </g>

</svg>
