<?xml version="1.0" standalone="no"?>
<!DOCTYPE svg PUBLIC "-//W3C//DTD SVG 1.1//EN" "http://www.w3.org/Graphics/SVG/1.1/DTD/svg11.dtd" >
<svg xmlns="http://www.w3.org/2000/svg" xmlns:xlink="http://www.w3.org/1999/xlink" version="1.1" viewBox="-10 0 659 1000">
  <g transform="matrix(1 0 0 -1 0 800)">
   <path fill="currentColor"
d="M293 -141q-10 21 -25 54t-33 72.5t-37.5 81t-38.5 78.5q-3 6 -5.5 4t-3.5 -10l-15 -185q-3 -41 7.5 -53.5t35.5 -18.5q9 -1 14.5 -5t5.5 -9q0 -4 -5.5 -6.5t-12.5 -2.5h-23.5h-21h-22.5h-35h-30q-18 0 -18 9q0 5 6 8t15 5q17 4 27.5 18t14.5 56l25 226q2 25 -7.5 36
t-38.5 20q-12 4 -15 7.5t-3 8.5q0 10 16 10l102 -1q16 0 22.5 -4.5t7.5 -11.5q5 -19 11 -33.5t14 -29.5q25 -45 47.5 -96t47.5 -95q5 -6 8 -7t7 6l114 235q6 13 10.5 23.5t11.5 10.5h114q5 0 11 -2.5t6 -7.5q0 -7 -4.5 -9.5t-13.5 -5.5q-23 -7 -35.5 -18t-10.5 -35l10 -264
q2 -17 14 -24t35 -11q9 -1 14.5 -5.5t5.5 -9.5q0 -4 -5 -6.5t-12 -2.5q-12 0 -28.5 0.5t-32.5 0.5h-29h-28.5t-31 -0.5t-29.5 -0.5q-17 0 -17 9q0 5 5 9t14 5q22 5 31 11t8 26l-7 230q0 9 -2.5 8t-6.5 -8l-139 -290q-3 -6 -8 -6.5t-8 6.5z" />
  </g>

</svg>
