<?xml version="1.0" standalone="no"?>
<!DOCTYPE svg PUBLIC "-//W3C//DTD SVG 1.1//EN" "http://www.w3.org/Graphics/SVG/1.1/DTD/svg11.dtd" >
<svg xmlns="http://www.w3.org/2000/svg" xmlns:xlink="http://www.w3.org/1999/xlink" version="1.1" viewBox="-10 0 971 1000">
  <g transform="matrix(1 0 0 -1 0 800)">
   <path fill="currentColor"
d="M376 -14q-67 0 -127.5 23.5t-107.5 67t-74.5 104t-27.5 134.5q0 68 22.5 130.5t66 111.5t108.5 78t149 29q53 0 102 -14.5t90 -41.5l-53 -100q0 47 -22.5 70.5t-57.5 31.5t-74 8q-103 0 -155.5 -74t-52.5 -199q0 -93 26 -164t77 -110.5t125 -39.5q63 0 98.5 14.5
t35.5 63.5l57 -62q-40 -29 -91 -45t-114 -16zM450 -5q-12 0 -19 3t-7 9q0 13 29 19q37 8 53.5 22.5t16.5 49.5v452q0 34 -14 49t-51 22q-15 3 -22 8t-7 12q0 6 7 9.5t19 3.5q33 0 59.5 -1t52 -2t56.5 -1q39 0 83.5 0.5t80.5 1.5q34 0 56.5 1.5t26.5 1.5q6 0 12.5 -2.5
t7.5 -9.5q5 -31 10.5 -60.5t5.5 -51.5q0 -10 -4.5 -13.5t-9.5 -3.5t-8 3t-6 9q-6 20 -12 36.5t-15 24.5q-13 14 -30 21t-38 7h-112q-13 0 -27.5 -9.5t-14.5 -26.5v-204q0 -10 6 -16t15 -6h95q28 0 39 13t19 40q6 20 18 20q5 0 9 -4.5t4 -13.5q0 -6 -1 -20t-1.5 -29t-0.5 -24
q0 -11 0.5 -26.5t1 -30.5t0.5 -22q1 -9 -1 -14.5t-8 -5.5q-16 0 -23 29q-7 26 -17.5 39t-30.5 13h-93q-15 0 -23 -5t-8 -21v-191q0 -35 15 -48.5t46 -13.5h79q28 0 49 4t37 15q16 12 29 31t28 47q3 6 7 9.5t9 2.5q6 0 8.5 -4.5t2.5 -11.5q0 -11 -5 -33t-12.5 -46t-13.5 -41
q-3 -7 -7 -11.5t-10 -4.5q-36 0 -75 1t-79.5 2t-81.5 2t-81 1q-22 0 -41 -1.5t-38.5 -3t-44.5 -1.5z" />
  </g>

</svg>
