<?xml version="1.0" standalone="no"?>
<!DOCTYPE svg PUBLIC "-//W3C//DTD SVG 1.1//EN" "http://www.w3.org/Graphics/SVG/1.1/DTD/svg11.dtd" >
<svg xmlns="http://www.w3.org/2000/svg" xmlns:xlink="http://www.w3.org/1999/xlink" version="1.1" viewBox="-10 0 557 1000">
  <g transform="matrix(1 0 0 -1 0 800)">
   <path fill="currentColor"
d="M272 -5q-60 0 -113.5 26.5t-86 72.5t-32.5 105q0 60 28.5 107t82 75.5t126.5 29.5q60 0 112.5 -25t85 -70.5t32.5 -106.5q0 -55 -27.5 -104t-80 -79.5t-127.5 -30.5zM280 25q40 0 69.5 22t45.5 59.5t16 85.5t-16 91t-48 70t-79 27q-44 0 -72.5 -22t-43 -59t-14.5 -82
q0 -53 17 -96t48.5 -69t76.5 -27z" />
  </g>

</svg>
