<?xml version="1.0" standalone="no"?>
<!DOCTYPE svg PUBLIC "-//W3C//DTD SVG 1.1//EN" "http://www.w3.org/Graphics/SVG/1.1/DTD/svg11.dtd" >
<svg xmlns="http://www.w3.org/2000/svg" xmlns:xlink="http://www.w3.org/1999/xlink" version="1.1" viewBox="-10 0 1701 1000">
  <g transform="matrix(1 0 0 -1 0 800)">
   <path fill="currentColor"
d="M1205 -324q-125 0 -243 27.5t-223 70t-194 88.5q-96 50 -171 90.5t-126 57.5q-40 13 -77.5 38.5t-67 63t-47 88.5t-17.5 115q0 68 22.5 130.5t66 111.5t108.5 78t149 29q68 0 128.5 -23.5t107.5 -67t74.5 -104t27.5 -134.5q0 -73 -25 -137.5t-74.5 -113.5t-124.5 -76
q-9 -3 -9 -9q0 -4 4 -9t9 -7q60 -23 131.5 -59t150.5 -72q74 -33 152 -62t158 -47t161 -18q58 0 109.5 8t97 25.5t85.5 47t75 72.5q11 13 24 12t22.5 -11t11 -23t-12.5 -23q-62 -47 -131.5 -82.5t-150.5 -55t-181 -19.5zM390 31q106 0 158.5 71t52.5 190q0 92 -25.5 166
t-77 117.5t-128.5 43.5q-106 0 -158 -70t-52 -190q0 -92 26 -166.5t77.5 -118t126.5 -43.5z" />
  </g>

</svg>
