<?xml version="1.0" standalone="no"?>
<!DOCTYPE svg PUBLIC "-//W3C//DTD SVG 1.1//EN" "http://www.w3.org/Graphics/SVG/1.1/DTD/svg11.dtd" >
<svg xmlns="http://www.w3.org/2000/svg" xmlns:xlink="http://www.w3.org/1999/xlink" version="1.1" viewBox="-10 0 551 1000">
  <g transform="matrix(1 0 0 -1 0 800)">
   <path fill="currentColor"
d="M461 -10q-26 0 -46.5 5.5t-35.5 16.5t-28 25q-15 18 -29 35t-29 37.5t-35 50.5q-8 13 -23 19q-11 4 -21.5 6t-17.5 3q-9 1 -9 -12v-107q0 -17 9.5 -29.5t35.5 -16.5q21 -3 21 -12q0 -4 -5.5 -7t-12.5 -3q-16 0 -30 1.5t-27 2.5t-26 1q-30 0 -52 -2.5t-47 -2.5q-7 0 -13 3
t-6 7q0 9 21 12q24 4 34.5 13t10.5 30v264q0 24 -8 36t-31 15q-21 3 -21 13q0 11 20 11t31 -0.5t22 -1.5t31 -1q14 0 25.5 1t25 2.5t35.5 1.5q77 0 119.5 -26.5t42.5 -76.5q0 -37 -23 -62t-52 -39q-4 -1 -1 -7q32 -41 58.5 -75t65.5 -67q20 -17 37.5 -20t40.5 -3
q11 0 11 -10q0 -11 -10.5 -18.5t-26 -10t-31.5 -2.5zM217 212q43 0 64.5 22.5t21.5 65.5q0 22 -6 40.5t-22 29.5t-47 11q-23 0 -31 -8t-9 -22q0 -30 -0.5 -57t-0.5 -59q0 -13 8.5 -17.5t21.5 -5.5z" />
  </g>

</svg>
