<?xml version="1.0" standalone="no"?>
<!DOCTYPE svg PUBLIC "-//W3C//DTD SVG 1.1//EN" "http://www.w3.org/Graphics/SVG/1.1/DTD/svg11.dtd" >
<svg xmlns="http://www.w3.org/2000/svg" xmlns:xlink="http://www.w3.org/1999/xlink" version="1.1" viewBox="-10 0 587 1000">
  <g transform="matrix(1 0 0 -1 0 800)">
   <path fill="currentColor"
d="M484 -14q-26 0 -48 8t-39 22.5t-31 30.5q-10 12 -24.5 34t-29 46.5t-24.5 44.5q-6 12 -21.5 20.5t-35.5 8.5q-5 0 -12 -5t-7 -13v-107q0 -24 11.5 -33.5t39.5 -14.5q8 -1 15 -4.5t7 -11.5q0 -6 -6.5 -9.5t-11.5 -3.5q-14 0 -27.5 0.5t-27 1.5t-27 1h-26.5q-19 0 -37 -1
l-36 -2t-37 -1q-6 0 -12.5 4t-6.5 9q0 8 7.5 12t14.5 5q27 5 42.5 14.5t15.5 34.5v286q0 26 -11.5 39.5t-40.5 18.5q-9 2 -15.5 7t-6.5 12q0 6 6.5 9.5t12.5 3.5q22 0 37.5 -1.5t30 -3t33.5 -1.5q24 0 55.5 3t67.5 3q50 0 90.5 -10.5t64.5 -35.5t24 -67q1 -29 -12 -51.5
t-32 -36.5t-39 -21q-10 -3 -6 -12q10 -23 26 -50.5t34 -52t33 -42.5q11 -12 28.5 -23t34 -18t24.5 -8q5 -1 11.5 -3.5t6.5 -10.5t-12 -13.5t-31 -8.5t-40 -3zM242 234q51 0 83 21t31 74q0 32 -16 51.5t-40 29.5t-51 10q-18 0 -28 -6t-10 -23l1 -129q0 -18 9 -23t21 -5z
M259 539q-7 0 -13 7.5t-12 17.5q-8 14 -21 36t-27 46t-24.5 43.5t-12.5 28.5q-3 10 -2 16t11 6q7 0 16 -7.5t18 -17.5q10 -12 28.5 -34.5t34.5 -44.5q3 -4 4.5 -4t4.5 4q17 22 35.5 44.5t28.5 34.5q8 10 17 17.5t16 7.5t9.5 -6t-0.5 -16q-3 -9 -13 -28.5t-24 -43.5
t-27 -46.5t-21 -35.5q-7 -10 -12.5 -17.5t-13.5 -7.5z" />
  </g>

</svg>
