<?xml version="1.0" standalone="no"?>
<!DOCTYPE svg PUBLIC "-//W3C//DTD SVG 1.1//EN" "http://www.w3.org/Graphics/SVG/1.1/DTD/svg11.dtd" >
<svg xmlns="http://www.w3.org/2000/svg" xmlns:xlink="http://www.w3.org/1999/xlink" version="1.1" viewBox="-10 0 386 1000">
  <g transform="matrix(1 0 0 -1 0 800)">
   <path fill="currentColor"
d="M171 -12q-35 0 -58.5 7t-44.5 14q-7 2 -9 5l-4 6q-4 9 -7.5 25t-5.5 34.5t-3 34.5q0 6 3 14t9 8q9 0 13.5 -8.5t7.5 -14.5q10 -19 24 -40t34 -35t48 -14q39 0 56 17.5t17 41.5q0 19 -9.5 35.5t-34.5 31.5l-68 42q-36 21 -58.5 47.5t-22.5 67.5q0 37 23 63t59 38.5
t73 12.5q31 0 55 -4t36 -8q7 -2 10.5 -5.5t4.5 -10.5q4 -15 5 -35t1 -42q0 -4 -4 -11t-10 -7q-5 0 -11 5.5t-8 13.5q-9 37 -32.5 54t-51.5 17q-30 0 -48.5 -14.5t-18.5 -36.5q0 -25 13 -41t38 -31l77 -46q33 -19 51.5 -46t18.5 -62q0 -27 -19 -55.5t-57 -48t-92 -19.5z" />
  </g>

</svg>
