<?xml version="1.0" standalone="no"?>
<!DOCTYPE svg PUBLIC "-//W3C//DTD SVG 1.1//EN" "http://www.w3.org/Graphics/SVG/1.1/DTD/svg11.dtd" >
<svg xmlns="http://www.w3.org/2000/svg" xmlns:xlink="http://www.w3.org/1999/xlink" version="1.1" viewBox="-10 0 444 1000">
  <g transform="matrix(1 0 0 -1 0 800)">
   <path fill="currentColor"
d="M197 -13q-38 0 -64 7.5t-48 15.5q-8 2 -10 5l-4 6q-5 10 -9 27.5t-6 37.5t-2 37q0 7 2.5 15.5t10.5 8.5q10 0 14.5 -9t7.5 -16q10 -20 25.5 -44.5t37.5 -42t52 -17.5q43 0 61.5 21.5t18.5 47.5q0 22 -11.5 39t-38.5 33l-75 47q-38 23 -61.5 53t-23.5 74q0 41 25 69t64 42
t79 14q34 0 60 -5t39 -8q7 -2 11 -6t6 -12q4 -17 4.5 -38t1.5 -45q0 -5 -4.5 -12.5t-10.5 -7.5t-12.5 6.5t-8.5 13.5q-7 32 -23.5 50t-35 25.5t-33.5 7.5q-34 0 -53.5 -18t-19.5 -43q0 -27 15.5 -43t43.5 -32l84 -50q33 -21 53 -51t20 -69q0 -29 -21 -60t-61.5 -52.5
t-99.5 -21.5zM162 -274q-18 0 -26 9t-8 34q0 11 3.5 16t10.5 5q9 0 22 -6t36 -6q18 0 26.5 12t8.5 31q0 26 -17.5 39t-40.5 13q-11 0 -16.5 -4t-11.5 -4t-12.5 5t-6.5 14q0 5 8 15l88 109h36l-37 -47q-5 -7 -5 -11q0 -5 11 -11q24 -10 41.5 -30t17.5 -48q0 -29 -14 -53.5
t-34.5 -42.5t-42 -28.5t-37.5 -10.5z" />
  </g>

</svg>
