<?xml version="1.0" standalone="no"?>
<!DOCTYPE svg PUBLIC "-//W3C//DTD SVG 1.1//EN" "http://www.w3.org/Graphics/SVG/1.1/DTD/svg11.dtd" >
<svg xmlns="http://www.w3.org/2000/svg" xmlns:xlink="http://www.w3.org/1999/xlink" version="1.1" viewBox="-10 0 779 1000">
  <g transform="matrix(1 0 0 -1 0 800)">
   <path fill="currentColor"
d="M384 -14q-68 0 -129.5 24.5t-109 69.5t-75 106t-27.5 133q0 68 22 129t65.5 109t107.5 77t148 30q72 0 133.5 -24t108 -68.5t72.5 -104.5t26 -132q0 -67 -22 -130t-65 -112t-107.5 -78t-147.5 -29zM396 30q105 0 157.5 74.5t52.5 200.5q0 94 -26 164.5t-77 110.5t-126 40
q-51 0 -91 -22t-67.5 -59.5t-41.5 -86.5t-14 -104q0 -65 16.5 -122.5t47.5 -101.5t74 -69t95 -25zM497 238q-6 0 -10.5 8t-8.5 19t-15.5 19.5t-27.5 8.5h-111q-22 0 -37.5 -4t-23.5 -16q-4 -7 -14 -20t-21 -13q-8 0 -8 13q0 6 2 13t4 10q6 13 12 30t12 36t10 38t5 34
q2 13 7 16.5t10 3.5q9 0 13 -20q3 -14 10.5 -25t20.5 -11h136q16 0 28.5 6.5t19.5 16.5q8 11 14.5 17t12.5 6q4 0 9 -5.5t-2 -19.5q-7 -18 -13.5 -41t-11 -47t-6.5 -48q-1 -8 -3.5 -16.5t-12.5 -8.5z" />
  </g>

</svg>
