<?xml version="1.0" standalone="no"?>
<!DOCTYPE svg PUBLIC "-//W3C//DTD SVG 1.1//EN" "http://www.w3.org/Graphics/SVG/1.1/DTD/svg11.dtd" >
<svg xmlns="http://www.w3.org/2000/svg" xmlns:xlink="http://www.w3.org/1999/xlink" version="1.1" viewBox="-10 0 617 1000">
  <g transform="matrix(1 0 0 -1 0 800)">
   <path fill="currentColor"
d="M297 -14q-67 0 -124 31t-91 84t-34 119q0 46 19 89.5t53.5 78t80.5 55t100 20.5q50 0 96 -17.5t83 -49t58 -74.5t21 -95q0 -61 -30.5 -116.5t-88.5 -90t-143 -34.5zM311 27q38 0 64 17t42 45t23 61t7 66q0 38 -9.5 75t-28 68t-47.5 49t-69 18q-50 0 -79 -26t-41.5 -69
t-12.5 -95q0 -60 16.5 -107t50 -74.5t84.5 -27.5zM202 155q-7 0 -7 9q0 3 1.5 9.5t2.5 10.5q4 9 7.5 23.5t6.5 30.5t6 30.5t5 23.5q2 8 5 10.5t6 2.5q6 0 9 -11q2 -6 6.5 -16t15.5 -10h79q12 0 20 8.5t13 14.5q11 14 18 14q3 0 6.5 -3t0.5 -9q-5 -15 -9.5 -36t-7.5 -41
t-4 -37l-2.5 -15t-9.5 -9q-4 0 -8 8l-7 14q-2 7 -9.5 13t-19.5 6h-61q-13 0 -22.5 -2.5t-13.5 -9.5q-2 -4 -7 -11t-10 -12.5t-10 -5.5z" />
  </g>

</svg>
