<?xml version="1.0" standalone="no"?>
<!DOCTYPE svg PUBLIC "-//W3C//DTD SVG 1.1//EN" "http://www.w3.org/Graphics/SVG/1.1/DTD/svg11.dtd" >
<svg xmlns="http://www.w3.org/2000/svg" xmlns:xlink="http://www.w3.org/1999/xlink" version="1.1" viewBox="-10 0 614 1000">
  <g transform="matrix(1 0 0 -1 0 800)">
   <path fill="currentColor"
d="M302 -13q-70 0 -113.5 25.5t-64 71.5t-20.5 106v165q0 17 -5 31t-16 24t-31 13q-9 2 -15.5 6.5t-6.5 11.5q0 5 7 8.5t12 3.5q29 0 54.5 -2.5t51.5 -2.5q18 0 34 1.5t34 2.5t37 1q6 0 12.5 -3t6.5 -9q0 -8 -10 -13.5t-19 -8.5q-26 -5 -35 -21t-9 -45v-150
q0 -81 31.5 -119.5t90.5 -38.5q37 0 65.5 15t45 49t16.5 91v140q0 28 -3.5 43.5t-13.5 24t-30 13.5l-18 8t-9 12q0 6 7 9t14 3q21 0 31 -1t19.5 -2t26.5 -1t26.5 1t20.5 2t30 1q6 0 13 -3t7 -9q0 -7 -6.5 -11.5t-15.5 -6.5q-31 -7 -40.5 -24t-9.5 -44l-1 -136
q0 -60 -22 -113.5t-66 -86t-113 -32.5zM324 538q-30 0 -51.5 10.5t-35 27.5t-20.5 36t-7 37q0 12 5.5 19.5t12.5 7.5q9 0 12.5 -6t4.5 -15q5 -22 24 -36t55 -14q37 0 55.5 14t23.5 36q2 9 5.5 15t11.5 6t13 -7.5t5 -19.5q0 -18 -7 -37t-20.5 -36t-35 -27.5t-51.5 -10.5z" />
  </g>

</svg>
