<?xml version="1.0" standalone="no"?>
<!DOCTYPE svg PUBLIC "-//W3C//DTD SVG 1.1//EN" "http://www.w3.org/Graphics/SVG/1.1/DTD/svg11.dtd" >
<svg xmlns="http://www.w3.org/2000/svg" xmlns:xlink="http://www.w3.org/1999/xlink" version="1.1" viewBox="-10 0 473 1000">
  <g transform="matrix(1 0 0 -1 0 800)">
   <path fill="currentColor"
d="M62 -3q-8 0 -14 4.5t-6 9.5q0 7 6 17t14 22.5t14 22.5l202 291q3 6 0 8.5t-14 2.5h-48.5h-48.5q-24 0 -46.5 -17.5t-34.5 -35.5q-4 -6 -14 -17t-19 -11q-7 0 -9 4t-2 12q0 6 6 25.5t13 41.5t10 35q3 7 7 11t9 4t11.5 -4t13.5 -6q10 -4 19.5 -6t25.5 -2l97 1q16 0 36 0.5
l40 1t37.5 1t29.5 0.5q7 0 9.5 -3.5t2.5 -9.5q0 -4 -4.5 -11.5t-11.5 -17t-15 -21.5l-199 -290q-13 -19 -5 -22.5t26 -3.5h130q29 0 47.5 21t28.5 47q3 5 8 11.5t11 6.5q7 0 8.5 -7.5t1.5 -12.5q0 -18 -7.5 -43.5t-13.5 -45.5q-1 -6 -6 -9.5t-12 -3.5q-23 0 -56.5 0.5
t-70.5 1t-71.5 1t-59.5 0.5q-20 0 -32.5 -1t-22 -2t-21.5 -1z" />
  </g>

</svg>
