<?xml version="1.0" standalone="no"?>
<!DOCTYPE svg PUBLIC "-//W3C//DTD SVG 1.1//EN" "http://www.w3.org/Graphics/SVG/1.1/DTD/svg11.dtd" >
<svg xmlns="http://www.w3.org/2000/svg" xmlns:xlink="http://www.w3.org/1999/xlink" version="1.1" viewBox="-123 0 246 1000">
  <g transform="matrix(1 0 0 -1 0 800)">
   <path fill="currentColor"
d="M-97 498q-6 0 -11 2.5t-5 7.5q0 3 1.5 6.5t6.5 8.5q9 8 29 22t43.5 29t45.5 28t36 20l10 4t10 2q14 0 24 -11.5t15 -24.5t5 -19q0 -9 -6 -12q-13 -5 -34.5 -13t-47 -16.5t-49.5 -15.5t-43 -12q-7 -1 -15 -3.5t-15 -2.5z" />
  </g>

</svg>
