<?xml version="1.0" standalone="no"?>
<!DOCTYPE svg PUBLIC "-//W3C//DTD SVG 1.1//EN" "http://www.w3.org/Graphics/SVG/1.1/DTD/svg11.dtd" >
<svg xmlns="http://www.w3.org/2000/svg" xmlns:xlink="http://www.w3.org/1999/xlink" version="1.1" viewBox="-10 0 451 1000">
  <g transform="matrix(1 0 0 -1 0 800)">
   <path fill="currentColor"
d="M206 672q-4 0 -8 -5t-4 -10v-684q-17 15 -36 30.5t-43 31t-58 33.5q-4 2 -8 3t-6 1q-9 0 -9 -9q0 -8 5 -17t9 -13q24 -24 45 -46.5t40 -46t36.5 -50.5t34.5 -60q5 -10 7.5 -12.5t7.5 -2.5q8 0 16 16q19 34 37.5 60.5t37.5 49.5t39.5 45.5t44.5 46.5q5 4 9.5 12.5
t4.5 16.5t-5 8.5t-11 -1.5q-35 -16 -62 -32.5t-48 -33t-38 -32.5v670q0 9 -7 16t-16.5 11t-14.5 4z" />
  </g>

</svg>
