<?xml version="1.0" standalone="no"?>
<!DOCTYPE svg PUBLIC "-//W3C//DTD SVG 1.1//EN" "http://www.w3.org/Graphics/SVG/1.1/DTD/svg11.dtd" >
<svg xmlns="http://www.w3.org/2000/svg" xmlns:xlink="http://www.w3.org/1999/xlink" version="1.1" viewBox="-10 0 385 1000">
  <g transform="matrix(1 0 0 -1 0 800)">
   <path fill="currentColor"
d="M48 588q-3 -1 -7.5 5t-4.5 10q0 15 16.5 32.5t38.5 30.5t39 13q15 0 31 -6.5t33 -13.5q14 -5 28.5 -9t31.5 -4q18 0 34 8.5t27 16.5t14 8t6.5 -5.5t3.5 -10.5q-3 -6 -12 -18.5t-22.5 -25.5t-29.5 -22t-30 -9t-30 5t-32 12q-17 6 -33.5 11t-31.5 5q-11 0 -25.5 -6t-27 -14
t-17.5 -13z" />
  </g>

</svg>
