<?xml version="1.0" standalone="no"?>
<!DOCTYPE svg PUBLIC "-//W3C//DTD SVG 1.1//EN" "http://www.w3.org/Graphics/SVG/1.1/DTD/svg11.dtd" >
<svg xmlns="http://www.w3.org/2000/svg" xmlns:xlink="http://www.w3.org/1999/xlink" version="1.1" viewBox="-10 0 573 1000">
  <g transform="matrix(1 0 0 -1 0 800)">
   <path fill="currentColor"
d="M321 -3q-6 0 -12.5 3.5t-6.5 9.5q0 8 6.5 12t14.5 5q28 7 36.5 17.5t0.5 33.5l-15 50q-1 6 -4.5 7.5t-13.5 1.5h-144q-7 0 -10 -3t-6 -9q-10 -22 -14 -34t-5 -23q-2 -19 8 -27.5t32 -13.5q8 -2 14.5 -5.5t6.5 -11.5q0 -6 -6.5 -9.5t-12.5 -3.5q-20 0 -32.5 1.5t-24 2.5
t-28.5 1q-15 0 -25.5 -1t-21 -2.5t-30.5 -1.5q-6 0 -13 3t-7 10q0 8 7 11t14 5q15 3 28 8t24.5 16t21.5 33l116 272q11 25 10.5 38.5t2.5 15.5q7 5 20 14t25.5 18t16.5 12q9 8 15 10.5t9 2.5q4 0 6.5 -4t4.5 -11l134 -358q8 -22 21 -41.5t41 -24.5q7 -1 14 -5t7 -12
q0 -6 -6.5 -9t-12.5 -3q-28 0 -51 2t-49 2q-16 0 -33 -1t-34.5 -2.5t-38.5 -1.5zM204 176h111q8 0 9 2t-1 9q-3 12 -10.5 32.5t-17 43.5t-17 44.5t-12.5 35.5q-3 9 -5.5 9t-6.5 -9q-13 -32 -30.5 -75t-31.5 -81q-2 -6 0.5 -8.5t11.5 -2.5zM162 541q-7 0 -12.5 5t-5.5 11
q0 5 11 20.5t27 34t32 32t24 13.5q15 0 26 -1.5t31 -3.5q19 -1 33.5 -2.5t26.5 -1.5q10 0 20.5 5.5t17.5 13.5q11 11 17 19t9 8q7 0 14 -5.5t7 -12.5q0 -3 -6 -9.5t-16 -18.5q-12 -12 -24 -29.5t-22 -29.5q-6 -8 -15.5 -11t-14.5 -3q-6 0 -21.5 1t-34 3t-36.5 3t-31 1
q-9 0 -17.5 -5.5t-15.5 -13.5q-9 -9 -15 -16t-9 -7z" />
  </g>

</svg>
