<?xml version="1.0" standalone="no"?>
<!DOCTYPE svg PUBLIC "-//W3C//DTD SVG 1.1//EN" "http://www.w3.org/Graphics/SVG/1.1/DTD/svg11.dtd" >
<svg xmlns="http://www.w3.org/2000/svg" xmlns:xlink="http://www.w3.org/1999/xlink" version="1.1" viewBox="-10 0 239 1000">
  <g transform="matrix(1 0 0 -1 0 800)">
   <path fill="currentColor"
d="M89 158q-14 0 -18.5 4.5t-4.5 22.5v488q0 15 4 21.5t16 6.5h119q5 0 8.5 -3.5t3.5 -8.5q0 -8 -9.5 -10.5t-17.5 -2.5l-51 -1q-11 0 -15.5 -8t-4.5 -17v-434q0 -19 5 -26t17 -7h59q6 0 11.5 -3t5.5 -10q0 -6 -4.5 -9t-10.5 -3h-113z" />
  </g>

</svg>
