<?xml version="1.0" standalone="no"?>
<!DOCTYPE svg PUBLIC "-//W3C//DTD SVG 1.1//EN" "http://www.w3.org/Graphics/SVG/1.1/DTD/svg11.dtd" >
<svg xmlns="http://www.w3.org/2000/svg" xmlns:xlink="http://www.w3.org/1999/xlink" version="1.1" viewBox="-10 0 1102 1000">
  <g transform="matrix(1 0 0 -1 0 800)">
   <path fill="currentColor"
d="M577 -14q-6 0 -14 0.5t-16.5 1t-14.5 0.5q-5 0 -8 2t-7 5q-2 3 -5 5.5t-7 3.5q-4 0 -8 -1t-9 -2q-5 -2 -11 -3.5t-14 -1.5q-7 1 -11.5 4t-8.5 8q-7 8 -13.5 9.5t-15.5 1.5q-6 0 -11.5 -0.5t-10.5 -2.5q-5 -1 -11 -1.5t-12 -0.5q-8 0 -24.5 4.5t-36.5 11t-40 13.5
q-16 6 -33.5 12t-33 11t-23.5 5q-12 0 -22 -7.5t-18 -18.5q-9 -10 -18 -18t-20 -8q-17 0 -27 12t-14.5 31t-7.5 38q-1 8 -1.5 16.5t-2.5 15.5q-3 17 -4 32.5t-1 31.5q0 17 1 33t2 36q0 9 0.5 17t0.5 17q0 17 -0.5 33.5t-0.5 33.5q0 25 3 51t13 57q6 19 24.5 31t36.5 18
q10 5 21 5q8 0 15.5 -4t15.5 -8q7 -3 10.5 -6.5t8 -7t11.5 -9.5q8 -6 16 -7q6 0 9.5 1.5t8.5 5.5q4 3 7.5 6t7.5 6q19 11 34 20.5t27 18.5q23 16 47 30.5t55 28.5q15 8 28 9.5t26 1.5q43 -1 68 -3.5t47 -5.5q18 -2 38 -4.5t47 -2.5q23 0 42 1.5t39 4.5q19 2 36.5 4t36.5 2
h18.5t20.5 -2q37 -4 69 -10.5t61 -17.5t57 -30q14 -11 14 -28q0 -12 -3.5 -21.5t-10.5 -17.5q-9 -12 -30.5 -16.5t-50.5 -4.5q-5 0 -16.5 0.5t-23.5 1.5t-20 1q-13 1 -24.5 2t-23.5 1q-12 2 -24.5 3t-24.5 2q-13 0 -27 -1t-25 -5.5t-13 -14.5q-4 -5 -1 -7t4 -9q5 -5 7 -10.5
t4 -11.5q2 -5 3.5 -10t4.5 -10q3 -4 6.5 -7t7.5 -5q15 -5 21.5 -14t7.5 -19q7 -14 2 -30.5t-15 -34.5q-8 -14 -19 -29t-21 -30q-6 -10 -8.5 -20t-7.5 -20q-3 -10 -7 -17t-15 -11q-1 -2 -1 -4.5v-3.5q0 -5 1.5 -10t2.5 -10q2 -5 3 -10.5t1 -11.5q0 -10 -7 -22t-16 -26
q0 -4 2 -9.5t-3 -10.5q-20 -20 -37.5 -32t-38 -16.5t-51.5 -4.5zM115 75q4 0 8 10.5t7 19.5q12 24 18.5 55t9 66t2.5 70q0 12 -0.5 26t-2.5 30q0 18 -1 40.5t-6 41t-17 22.5q-7 0 -14 -13t-10 -26q-7 -26 -10.5 -48t-5 -44.5t-3.5 -48.5q-1 -10 -1.5 -19.5t-0.5 -18.5
q-1 -8 -0.5 -16.5t0.5 -18.5q0 -8 4 -21t7 -26q3 -10 5 -18.5t2 -13.5q0 -4 -0.5 -8t-0.5 -8q-1 -4 -1 -6.5v-5.5q0 -5 2.5 -13t8.5 -8zM603 50q9 0 19 8t10 16q0 5 -4 7q-9 9 -20.5 10.5t-27.5 6.5q-12 4 -21.5 10t-19.5 6h-5q-6 -1 -6 -7.5t-1 -12.5q0 -6 -0.5 -11
t4.5 -10q6 -6 13.5 -6.5t14.5 -3.5q4 -1 9.5 -3t9.5 -4q6 -2 12.5 -4t12.5 -2zM646 117q14 0 26.5 5t12.5 17t-13 23t-28 11q-4 0 -7.5 -0.5t-6.5 -0.5q-11 0 -19.5 3.5t-16.5 7.5q-6 4 -13 6.5t-15 2.5q-15 -1 -25 -18q-6 -8 -6 -15q0 -10 11 -15.5t25.5 -8.5t23.5 -5
q14 -4 26 -8.5t25 -4.5zM678 192q12 0 19 3.5t7 11.5q0 17 -12.5 26.5t-29.5 16t-30 11.5q-9 3 -18 7.5t-17 8t-16 3.5h-4q-7 -1 -8.5 -7t-3.5 -12q-2 -5 -4.5 -9.5t-2.5 -8.5q0 -9 7 -9q3 0 5.5 2t5.5 3q3 2 5.5 3t4.5 1q8 -1 9 -7t1 -13q8 -8 15 -13.5t16 -8.5
q7 -2 22 -5.5t29 -3.5zM425 66q4 0 9 2.5t10 3.5q7 2 14.5 2.5t19.5 0.5q-4 8 -5.5 15.5t-1.5 14.5q0 8 3.5 14.5t7.5 11.5q3 5 5.5 10.5t2.5 13.5q0 5 -0.5 10t-0.5 8q0 16 11.5 32t15.5 26q5 9 5 15.5t-2 14.5q-1 11 -4.5 20.5t-7.5 15t-9 5.5q-5 -1 -10.5 -5t-12.5 -7
q-16 -6 -27 -8.5t-21 -3t-23.5 -0.5t-35.5 -2q-5 0 -10 -1t-10 -3q-5 -1 -10.5 -2t-10.5 -1q-2 0 -4.5 0.5t-4.5 0.5q-9 1 -15 6.5t-6 14.5q0 16 14.5 20.5t29.5 4.5q8 0 16 -0.5t15 -1.5t13.5 -1.5t13.5 -0.5q26 0 40 7.5t32 16.5q10 6 17.5 12t13.5 12l7.5 7.5t7.5 2.5
q5 -1 7 -5t5 -6q25 -17 46 -30t40 -26q9 -6 14.5 -11t14.5 -9q12 -5 21 -8.5t21 -4.5q4 1 5.5 6t6.5 6q11 4 21.5 2.5t19.5 4.5q7 4 8 9t4 12q2 5 4.5 10.5t2.5 8.5q0 7 -4 10.5t-12 5.5q-6 2 -14 5l-16 6q-10 5 -19.5 10.5t-20.5 9.5q-12 4 -25.5 8t-26 7.5t-22.5 6.5
q-15 6 -31 14t-31 14.5t-27 6.5q-6 0 -10.5 -2t-8.5 -4q-7 -4 -15.5 -6.5t-14.5 -2.5q-14 1 -14 13q0 6 5 11q14 16 24.5 26t27.5 21q14 9 24.5 13.5t24.5 5.5q7 0 12.5 -2.5t10.5 -4.5q4 -2 8.5 -3.5t9.5 -1.5q8 0 16.5 4.5t16.5 8.5q9 5 18.5 10t18.5 5q5 0 9 -6
q3 -2 4.5 -4t3.5 -2q16 -2 29.5 -2.5t26.5 -0.5h39t19 -1q14 -1 24.5 -2t20.5 -3q13 -1 24 -2t25 -1q36 1 56 3t44 8q4 2 6 7.5t2 11.5q0 12 -5 15q-16 10 -43.5 14t-48.5 4q-15 0 -27.5 -2t-24.5 -4q-15 -3 -29.5 -5.5t-31.5 -3.5q-4 0 -7 1l-6 2q-2 1 -5 2t-7 1
q-3 0 -7 -0.5t-8 -1.5t-8.5 -1.5t-9.5 -0.5q-20 0 -35 3.5t-35 6.5q-5 1 -11 3t-12 3.5t-11 1.5q-31 0 -49.5 -1t-32 -2.5t-29.5 -2.5q-7 -1 -12.5 -3.5t-11.5 -5.5q-7 -4 -13 -6t-16 -2q-7 0 -17 1t-17 1q-21 0 -46.5 -14.5t-46.5 -28.5q-11 -8 -22.5 -16t-25.5 -17
q-6 -4 -10 -8l-8 -8q-6 -5 -14 -9.5t-19 -4.5q-1 0 -5 0.5t-6 0.5q-10 0 -15 -6.5t-5 -16.5q0 -21 1.5 -38t2.5 -33q2 -18 4 -36.5t2 -40.5q0 -18 -1 -29t-6 -35q-2 -13 -4.5 -27t-2.5 -31q0 -20 16 -25.5t43 -5.5q5 0 8.5 1.5t7.5 0.5q5 -2 9.5 -5t8.5 -7l7.5 -7.5
t8.5 -5.5q15 -7 26.5 -9.5t24.5 -5.5q9 -3 19 -4t19 -2q4 -1 7.5 -2t6.5 -3q3 -1 7 -2t7 -1zM698 411q5 0 10 2.5t5 8.5q0 13 -17.5 24.5t-40 19.5t-37.5 8q-14 0 -27 -3.5t-13 -15.5q0 -9 14.5 -17t35.5 -14t40.5 -9.5t29.5 -3.5z" />
  </g>

</svg>
