<?xml version="1.0" standalone="no"?>
<!DOCTYPE svg PUBLIC "-//W3C//DTD SVG 1.1//EN" "http://www.w3.org/Graphics/SVG/1.1/DTD/svg11.dtd" >
<svg xmlns="http://www.w3.org/2000/svg" xmlns:xlink="http://www.w3.org/1999/xlink" version="1.1" viewBox="-10 0 548 1000">
  <g transform="matrix(1 0 0 -1 0 800)">
   <path fill="currentColor"
d="M351 -19q-4 0 -5 1.5t-1 3.5q0 10 2.5 30.5t2.5 34.5v6q-15 -23 -48 -47t-83 -24q-59 0 -101 30t-64.5 77t-22.5 97q0 59 27.5 110.5t79.5 83t123 31.5q14 0 29 -3.5t28 -7.5t17 -8q3 -3 6 -5.5t4 -2.5q4 0 4 21v151q0 37 -11 52.5t-36 20.5q-10 2 -10 14q0 10 9 13
q43 10 73 21t47 18q6 3 10.5 4t6.5 1q4 0 6 -2t2 -6q0 -8 -3 -34t-3 -78l-2 -471q0 -31 5 -47.5t17 -16.5q8 0 22 1t21 2q5 1 10 -2t5 -12t-5 -12.5t-9 -3.5q-42 -5 -74.5 -15.5t-55.5 -19.5l-10.5 -3.5t-12.5 -2.5zM261 38q38 0 63 25.5t25 60.5v139q0 27 -13.5 52.5
t-38.5 43t-60 17.5q-14 0 -32.5 -7.5t-36 -25.5t-29 -49.5t-11.5 -79.5q0 -56 15 -90t37 -53t44.5 -26t36.5 -7zM213 519q-9 0 -13 8t-4 14q0 9 7.5 15t17.5 6h291q6 0 11 -4t5 -9q0 -1 -0.5 -1.5t-0.5 -2.5q-4 -10 -12.5 -18t-21.5 -8h-280z" />
  </g>

</svg>
