<?xml version="1.0" standalone="no"?>
<!DOCTYPE svg PUBLIC "-//W3C//DTD SVG 1.1//EN" "http://www.w3.org/Graphics/SVG/1.1/DTD/svg11.dtd" >
<svg xmlns="http://www.w3.org/2000/svg" xmlns:xlink="http://www.w3.org/1999/xlink" version="1.1" viewBox="-10 0 347 1000">
  <g transform="matrix(1 0 0 -1 0 800)">
   <path fill="currentColor"
d="M128 -211q-6 0 -10 4t-3 9l6 40q1 6 -6 7q-17 3 -29 6.5t-25 8.5q-6 3 -8.5 6t-3.5 5q-3 9 -7 24.5t-6.5 32t-3.5 29.5q0 4 3 6t8 2q8 0 11 -5q5 -10 13.5 -26.5t21.5 -32.5t31 -26q6 -3 6 2l19 143q0 4 -1 6.5t-7 6.5q-23 14 -43 29.5t-32 35.5t-12 47q0 23 14 46
t42 39.5t68 17.5q6 2 6 6l3 14q2 6 8 8.5t14 2.5q12 0 9 -13l-2 -10q-1 -3 0.5 -5t3.5 -3q19 -1 30 -4.5t19 -5.5q6 -2 8.5 -5.5t4.5 -9.5q3 -15 6 -32t3 -35q0 -4 -3 -9.5t-7 -5.5q-2 0 -8.5 4.5t-8.5 10.5q-7 27 -20 41.5t-30 20.5q-3 2 -3 -3l-17 -123q-1 -6 0.5 -7.5
t8.5 -5.5q22 -14 44 -30.5t37 -38.5t15 -51t-14.5 -55.5t-44.5 -43t-78 -17.5q-1 0 -3.5 -1.5t-3.5 -5.5l-5 -42q-1 -5 -6.5 -7t-11.5 -2zM162 -128q32 3 48.5 20t16.5 49q0 14 -8.5 27.5t-19.5 24.5t-20 17q-3 2 -3.5 1t-1.5 -5l-17 -128q-1 -6 5 -6zM158 112q3 0 3 2
l15 108q0 1 -1.5 3t-3.5 1q-24 -2 -41 -19.5t-17 -37.5q0 -16 12.5 -30.5t29.5 -25.5q2 -1 3 -1z" />
  </g>

</svg>
