<?xml version="1.0" standalone="no"?>
<!DOCTYPE svg PUBLIC "-//W3C//DTD SVG 1.1//EN" "http://www.w3.org/Graphics/SVG/1.1/DTD/svg11.dtd" >
<svg xmlns="http://www.w3.org/2000/svg" xmlns:xlink="http://www.w3.org/1999/xlink" version="1.1" viewBox="-10 0 442 1000">
  <g transform="matrix(1 0 0 -1 0 800)">
   <path fill="currentColor"
d="M204 -30q-40 0 -76 14.5t-58.5 41.5t-22.5 64q0 32 18.5 53.5t44 37.5t48.5 28q6 4 4 6t-7 6q-30 23 -51 40.5t-32 37t-11 47.5q-1 36 23.5 63t62.5 42.5t77 15.5q40 0 73.5 -12.5t54 -35.5t20.5 -56q0 -26 -15.5 -43.5t-35.5 -31.5q-11 -9 -17 -13.5t-21 -14.5
q-11 -6 -11 -9t8 -8q34 -22 57.5 -41t35.5 -39.5t12 -49.5q0 -42 -26.5 -74t-67.5 -50.5t-87 -18.5zM216 7q35 0 55 20.5t20 50.5q0 34 -27 61t-61 48q-8 5 -10.5 5.5t-11.5 -4.5q-25 -17 -39 -34.5t-13 -51.5q0 -37 24.5 -66t62.5 -29zM234 272q8 -6 15 1q19 16 29.5 40
t10.5 57q0 26 -19 47.5t-49 21.5q-27 0 -48 -18t-21 -46q0 -21 9 -36.5t27.5 -31t45.5 -35.5z" />
  </g>

</svg>
