<?xml version="1.0" standalone="no"?>
<!DOCTYPE svg PUBLIC "-//W3C//DTD SVG 1.1//EN" "http://www.w3.org/Graphics/SVG/1.1/DTD/svg11.dtd" >
<svg xmlns="http://www.w3.org/2000/svg" xmlns:xlink="http://www.w3.org/1999/xlink" version="1.1" viewBox="-10 0 717 1000">
  <g transform="matrix(1 0 0 -1 0 800)">
   <path fill="currentColor"
d="M118 -20q-26 0 -45 19t-19 45q0 28 19 46.5t45 18.5q27 0 45.5 -18.5t18.5 -46.5q0 -26 -18.5 -45t-45.5 -19zM354 -20q-26 0 -45 19t-19 45q0 28 19 46.5t45 18.5q27 0 45.5 -18.5t18.5 -46.5q0 -26 -18.5 -45t-45.5 -19zM589 -20q-26 0 -45 19t-19 45q0 28 19 46.5
t45 18.5q27 0 45.5 -18.5t18.5 -46.5q0 -26 -18.5 -45t-45.5 -19z" />
  </g>

</svg>
