<?xml version="1.0" standalone="no"?>
<!DOCTYPE svg PUBLIC "-//W3C//DTD SVG 1.1//EN" "http://www.w3.org/Graphics/SVG/1.1/DTD/svg11.dtd" >
<svg xmlns="http://www.w3.org/2000/svg" xmlns:xlink="http://www.w3.org/1999/xlink" version="1.1" viewBox="-10 0 507 1000">
  <g transform="matrix(1 0 0 -1 0 800)">
   <path fill="currentColor"
d="M236 -14q-57 0 -105.5 25.5t-77.5 71.5t-29 106q0 63 32 116t86 84.5t118 31.5q19 0 35 -4.5t32 -12.5q6 -3 7.5 -1t-0.5 8q-10 38 -24.5 75t-33.5 62l-144 -75q-8 -4 -13 0.5t-5 9.5q0 10 2 21t10 15l122 63q-36 38 -77.5 61t-80.5 31q-8 2 -16.5 5.5t-8.5 11.5t9.5 11
t22.5 3q50 0 107.5 -23t109.5 -66l104 55q6 4 16 4t10 -9q0 -13 -3.5 -23.5t-16.5 -17.5l-75 -39q32 -33 58 -80t42.5 -110t16.5 -146q0 -44 -14.5 -90t-43 -85.5t-72 -64t-100.5 -24.5zM255 22q33 0 57.5 25t39 70t14.5 105q0 33 -7.5 63t-21.5 50q-20 22 -44.5 34.5
t-51.5 12.5q-37 0 -62 -23.5t-38.5 -62t-13.5 -83.5q0 -48 17.5 -92t46.5 -71.5t64 -27.5z" />
  </g>

</svg>
