<?xml version="1.0" standalone="no"?>
<!DOCTYPE svg PUBLIC "-//W3C//DTD SVG 1.1//EN" "http://www.w3.org/Graphics/SVG/1.1/DTD/svg11.dtd" >
<svg xmlns="http://www.w3.org/2000/svg" xmlns:xlink="http://www.w3.org/1999/xlink" version="1.1" viewBox="-10 0 1089 1000">
  <g transform="matrix(1 0 0 -1 0 800)">
   <path fill="currentColor"
d="M43 -3q-9 0 -14.5 3t-5.5 9q0 8 6.5 11.5t16.5 6.5q15 5 28 13.5t13 28.5v283q-10 0 -23 0.5t-29 1.5q-4 1 -9 8.5t-5 13.5q0 2 3 4t5 3q20 6 31.5 12t26.5 13q2 70 25 119.5t58.5 80t75 45t74.5 14.5q60 0 94 -21t34 -43q0 -18 -13.5 -31.5t-29.5 -13.5q-9 0 -16.5 7.5
l-17.5 17.5q-13 14 -33.5 26.5t-53.5 12.5q-47 0 -76 -43t-29 -137v-13q0 -13 7.5 -17.5t17.5 -4.5h191q4 0 4 -11q0 -8 -2 -18t-4.5 -17.5t-6.5 -7.5h-167q-27 0 -33.5 -5.5t-6.5 -13.5v-264q0 -19 14 -29t32 -14q10 -2 16 -6t6 -12q0 -6 -5 -9t-14 -3q-20 0 -34.5 1.5
t-27.5 2.5t-31 1q-17 0 -30.5 -1t-27.5 -2.5t-34 -1.5zM307 -3q-4 0 -7.5 4t-3.5 9q0 8 5 11t11 5q17 4 28 7t16 12t5 28v279q-10 0 -25.5 0.5t-31.5 1.5q-4 1 -7.5 9t-3.5 14q0 4 5 6q20 6 34.5 12t28.5 13q2 87 27.5 144.5t64 91.5t79.5 48t76 14q18 0 34.5 -2.5
t31.5 -9.5q6 -3 12 -3t12 3q7 3 11.5 5t9.5 4t9 2t6 -2.5t2 -6.5q0 -5 -1.5 -24t-2.5 -42.5t-2 -45.5l-1 -345q0 -10 6 -10t13 4t10 6q28 22 56 44.5t49 41.5t28 27q3 4 5 7t2 5q0 4 -8 9t-20 11q-4 1 -7 4.5t-3 7.5q0 7 4 9.5t8 2.5q15 0 25 -0.5t28 -0.5t39 1.5t40.5 4
t31.5 3.5q11 0 11 -11q0 -6 -4.5 -10t-9.5 -6q-19 -5 -35.5 -12.5t-30.5 -15.5q-6 -4 -30.5 -21.5t-54.5 -40.5t-56 -46q-5 -4 -4 -8t4 -8q27 -33 55.5 -65.5t53 -57.5t35.5 -39q17 -17 41.5 -32t42.5 -20q6 -1 10.5 -5t4.5 -11q0 -11 -14 -11q-30 0 -61.5 2.5t-66.5 2.5
q-19 0 -38.5 -1.5t-43.5 -1.5q-5 0 -10 3t-5 9q0 12 13 15t21 7.5t8 11.5q0 5 -1.5 10.5t-8.5 13.5l-122 135q-4 5 -7.5 3t-3.5 -8v-27v-28q0 -16 0.5 -33t0.5 -34q0 -24 10.5 -34.5t37.5 -16.5q13 -3 13 -15t-13 -12q-29 0 -49 2t-46 2t-45 -2.5t-48 -2.5q-14 0 -14 12
t13 15q23 5 36 13t13 36l1 267q0 8 -5 11.5t-12 3.5h-127q-29 0 -35.5 -6.5t-6.5 -15.5v-257q2 -31 14.5 -39t40.5 -12q12 -3 12 -16q0 -4 -2.5 -8t-8.5 -4q-29 0 -54.5 2.5t-51.5 2.5t-46.5 -2.5t-49.5 -2.5zM478 407h147q7 0 10.5 3t3.5 10l-1 145q0 13 -1.5 30t-7.5 32
t-18.5 24.5t-34.5 9.5q-31 0 -59.5 -19t-46 -60t-17.5 -106v-49q0 -12 7.5 -16t17.5 -4z" />
  </g>

</svg>
