<?xml version="1.0" standalone="no"?>
<!DOCTYPE svg PUBLIC "-//W3C//DTD SVG 1.1//EN" "http://www.w3.org/Graphics/SVG/1.1/DTD/svg11.dtd" >
<svg xmlns="http://www.w3.org/2000/svg" xmlns:xlink="http://www.w3.org/1999/xlink" version="1.1" viewBox="-10 0 819 1000">
  <g transform="matrix(1 0 0 -1 0 800)">
   <path fill="currentColor"
d="M43 -3q-9 0 -14.5 3t-5.5 9q0 8 6.5 11.5t16.5 6.5q15 5 28 13.5t13 28.5v283q-10 0 -23 0.5t-29 1.5q-4 1 -9 8.5t-5 13.5q0 2 3 4t5 3q20 6 31.5 12t26.5 13q2 70 25 119.5t58.5 80t75 45t74.5 14.5q60 0 94 -21t34 -43q0 -18 -13.5 -31.5t-29.5 -13.5q-9 0 -16.5 7.5
l-17.5 17.5q-13 14 -33.5 26.5t-53.5 12.5q-47 0 -76 -43t-29 -137v-13q0 -13 7.5 -17.5t17.5 -4.5h191q4 0 4 -11q0 -8 -2 -18t-4.5 -17.5t-6.5 -7.5h-167q-27 0 -33.5 -5.5t-6.5 -13.5v-264q0 -19 14 -29t32 -14q10 -2 16 -6t6 -12q0 -6 -5 -9t-14 -3q-20 0 -34.5 1.5
t-27.5 2.5t-31 1q-17 0 -30.5 -1t-27.5 -2.5t-34 -1.5zM563 -291q-9 0 -16 7t-7 15q0 12 8 15q16 7 32 21.5t31 38.5q8 13 12.5 34.5t7 47.5t3 53.5t0.5 51.5v288q0 29 -9.5 49.5t-34.5 24.5q-4 0 -17 0.5t-31 0.5q-14 0 -34.5 -0.5t-33.5 -0.5q-15 0 -20 -5.5t-5 -13.5
v-260q0 -25 12 -34.5t41 -16.5q6 -1 9.5 -5.5t4.5 -9.5q0 -5 -2.5 -9t-7.5 -4q-29 0 -55.5 2.5t-52.5 2.5t-46 -2.5t-49 -2.5q-4 0 -7 3.5t-3 7.5q0 12 7.5 14t18.5 3.5t18 8.5q11 8 15.5 16.5t4.5 22.5v279q-10 0 -23 0.5t-29 1.5q-4 1 -7.5 9t-3.5 14q0 4 5 6q19 6 31 12
t27 13q2 87 28 144.5t65.5 91.5t82 48t77.5 14q36 0 66 -7t49 -22.5t19 -40.5q0 -29 -15.5 -44t-37.5 -15q-12 0 -22 10t-20 24q-11 17 -31 33t-55 16q-51 0 -81.5 -48t-32.5 -131v-54q0 -12 7.5 -15.5t17.5 -4.5q36 -4 70.5 -5.5t69.5 -0.5q24 2 41.5 5t25.5 6q12 7 23 14
t21 12q5 2 9 0t4 -7q-2 -20 -5.5 -58.5t-4.5 -97.5v-188q0 -23 -1.5 -56t-5 -68t-8.5 -65t-13 -47q-10 -22 -26.5 -47t-36.5 -46.5t-39.5 -35t-34.5 -13.5z" />
  </g>

</svg>
