<?xml version="1.0" standalone="no"?>
<!DOCTYPE svg PUBLIC "-//W3C//DTD SVG 1.1//EN" "http://www.w3.org/Graphics/SVG/1.1/DTD/svg11.dtd" >
<svg xmlns="http://www.w3.org/2000/svg" xmlns:xlink="http://www.w3.org/1999/xlink" version="1.1" viewBox="-10 0 484 1000">
  <g transform="matrix(1 0 0 -1 0 800)">
   <path fill="currentColor"
d="M202 -290q-89 0 -140.5 32t-51.5 86q0 28 8 46t27 33q16 12 37.5 29t42.5 33l45 -7q-43 -26 -61 -51.5t-18 -61.5q0 -41 35 -68t87 -27q63 0 96 27q23 18 35.5 46t12.5 58q0 20 -14 33t-45 21t-84 12q-97 8 -136 30t-39 63q0 10 5.5 19t18.5 19q20 16 32 25t18.5 15.5
t11.5 15.5l39 -17q-21 -8 -35 -21t-14 -23q0 -13 14 -22.5t44 -14.5t76 -9q98 -6 144 -31t46 -71q0 -40 -20.5 -78.5t-54.5 -70.5t-76 -51t-86 -19zM215 141q36 0 58.5 37t22.5 95q0 32 -12 58t-31.5 41.5t-43.5 15.5q-22 0 -41 -16t-30 -42.5t-11 -58.5q0 -36 11.5 -65.5
t32 -47t44.5 -17.5zM207 103q-42 0 -81 21t-64 56.5t-25 78.5q0 49 26 85.5t68.5 57t89.5 20.5q30 0 53.5 -7.5t48.5 -12.5q23 -6 38.5 -7.5t33.5 -1.5q13 0 30 1.5t25 1.5q14 0 14 -18q0 -13 -11 -25q-6 -6 -10 -6h-27q-26 0 -31 -8q-2 -3 -3.5 -8.5t-2 -14.5t-0.5 -23
q0 -52 -24 -95t-62.5 -69t-85.5 -26zM225 455q-7 0 -13 7.5t-12 17.5q-8 14 -21 36t-27 46t-24.5 43.5t-12.5 28.5q-3 10 -2 16t11 6q7 0 16 -7.5t18 -17.5q10 -12 28.5 -34.5t34.5 -44.5q3 -4 4.5 -4t4.5 4q17 22 35.5 44.5t28.5 34.5q8 10 17 17.5t16 7.5t9.5 -6t-0.5 -16
q-3 -9 -13 -28.5t-24 -43.5t-27 -46.5t-21 -35.5q-7 -10 -12.5 -17.5t-13.5 -7.5z" />
  </g>

</svg>
