<?xml version="1.0" standalone="no"?>
<!DOCTYPE svg PUBLIC "-//W3C//DTD SVG 1.1//EN" "http://www.w3.org/Graphics/SVG/1.1/DTD/svg11.dtd" >
<svg xmlns="http://www.w3.org/2000/svg" xmlns:xlink="http://www.w3.org/1999/xlink" version="1.1" viewBox="-10 0 566 1000">
  <g transform="matrix(1 0 0 -1 0 800)">
   <path fill="currentColor"
d="M345 -12q-11 0 -32 3.5t-40 9.5q-7 3 -10.5 5.5t-4.5 5.5q-4 8 -6.5 23t-4 32t-1.5 33q0 10 5.5 14.5t11.5 4.5t10 -5.5t7 -13.5q7 -19 16.5 -36.5t23 -28.5t32.5 -11q23 0 37.5 15.5t22 39t7.5 47.5q0 32 -15 54t-41.5 34t-61.5 12q-17 0 -25 -2.5t-12 -2.5q-5 0 -6 4
q0 4 6 12l105 158q4 6 3.5 9.5t-2.5 4.5q-2 4 -21.5 8t-45.5 4q-45 0 -72 -20.5t-38.5 -55t-11.5 -76.5v-204q0 -19 8.5 -26t25.5 -13q7 -2 13 -6.5t6 -12.5q0 -6 -5 -8t-11 -2q-19 0 -32.5 1.5t-25.5 2.5t-30 1q-27 0 -45.5 -2t-47.5 -2q-5 0 -11.5 2.5t-6.5 7.5
q0 8 6.5 11.5t13.5 6.5q14 3 23 6.5t14 11t5 20.5v183q0 51 18.5 90t52 66.5t76.5 41t93 13.5q20 0 46.5 -3t52.5 -8t44.5 -11.5t22.5 -13.5q8 -3 1 -14l-103 -151q-3 -3 -2.5 -6t5.5 -3q35 -2 65 -16t48.5 -39.5t18.5 -63.5q0 -44 -22 -75.5t-61 -48.5t-92 -17z" />
  </g>

</svg>
