<?xml version="1.0" standalone="no"?>
<!DOCTYPE svg PUBLIC "-//W3C//DTD SVG 1.1//EN" "http://www.w3.org/Graphics/SVG/1.1/DTD/svg11.dtd" >
<svg xmlns="http://www.w3.org/2000/svg" xmlns:xlink="http://www.w3.org/1999/xlink" version="1.1" viewBox="-33 0 564 1000">
  <g transform="matrix(1 0 0 -1 0 800)">
   <path fill="currentColor"
d="M38 -3q-20 0 -20 12q0 10 23 18q15 5 28 12t13 28v493q0 27 -8 47.5t-34 24.5q-9 2 -9 15q0 10 8 13q17 5 40.5 12t46.5 15.5t39 15.5q6 2 9 2q4 0 6 -2.5t2 -6.5q0 -5 -2 -15.5t-4 -33t-2 -63.5v-194q0 -14 1.5 -21.5t4.5 -12.5q16 12 38.5 27t51 26t60.5 11
q51 0 84.5 -38t33.5 -100v-213q0 -20 12.5 -28.5t27.5 -13.5q10 -4 16 -7.5t6 -10.5q0 -12 -21 -12t-33 1.5t-23 2.5t-30 1t-29.5 -1t-22 -2.5t-33.5 -1.5q-21 0 -21 12q0 8 6 11t16 7q14 4 26 13t12 30v202q0 24 -13 43.5t-31.5 30.5t-38.5 11q-18 0 -40.5 -5t-37.5 -17
q-13 -10 -17.5 -21.5t-4.5 -37.5v-209q1 -20 12 -27.5t25 -12.5q10 -3 16 -7t6 -11q0 -12 -20 -12t-32.5 1.5t-24 2.5t-29.5 1q-17 0 -29.5 -1t-26 -2.5t-33.5 -1.5zM-7 753q-16 0 -16 10q0 7 8 14l88 71q12 10 22 17t20 7t20 -7t22 -17l88 -71q7 -5 7 -13q0 -11 -15 -11
q-9 0 -25 4.5t-38 13.5t-48 22q-6 4 -11 3.5t-11 -3.5q-30 -13 -51.5 -22.5t-36 -13.5t-23.5 -4z" />
  </g>

</svg>
