<?xml version="1.0" standalone="no"?>
<!DOCTYPE svg PUBLIC "-//W3C//DTD SVG 1.1//EN" "http://www.w3.org/Graphics/SVG/1.1/DTD/svg11.dtd" >
<svg xmlns="http://www.w3.org/2000/svg" xmlns:xlink="http://www.w3.org/1999/xlink" version="1.1" viewBox="-10 0 273 1000">
  <g transform="matrix(1 0 0 -1 0 800)">
   <path fill="currentColor"
d="M42 -3q-8 0 -13.5 3t-5.5 9q0 8 6.5 11.5t14.5 5.5q23 6 34 13t11 25v216q0 30 -10 48.5t-35 22.5q-5 1 -7.5 4.5t-2.5 10.5q0 12 9 13q44 10 75.5 26.5t47.5 26.5q11 7 16 7q8 0 8 -8q0 -11 -2.5 -35t-5 -52t-2.5 -52v-228q0 -16 11 -24t34 -14q8 -2 14.5 -5.5
t6.5 -11.5q0 -12 -18 -12q-19 0 -34 1.5t-28.5 2.5t-31.5 1q-17 0 -31 -1t-27.5 -2.5t-33.5 -1.5zM133 475q-30 0 -51.5 10.5t-35 27.5t-20.5 36t-7 37q0 12 5.5 19.5t12.5 7.5q9 0 12.5 -6t4.5 -15q5 -22 24 -36t55 -14q37 0 55.5 14t23.5 36q2 9 5.5 15t11.5 6t13 -7.5
t5 -19.5q0 -18 -7 -37t-20.5 -36t-35 -27.5t-51.5 -10.5z" />
  </g>

</svg>
