<?xml version="1.0" standalone="no"?>
<!DOCTYPE svg PUBLIC "-//W3C//DTD SVG 1.1//EN" "http://www.w3.org/Graphics/SVG/1.1/DTD/svg11.dtd" >
<svg xmlns="http://www.w3.org/2000/svg" xmlns:xlink="http://www.w3.org/1999/xlink" version="1.1" viewBox="-36 0 281 1000">
  <g transform="matrix(1 0 0 -1 0 800)">
   <path fill="currentColor"
d="M2 -287q-10 0 -19 3t-9 9q0 7 5 11.5t9 6.5q18 6 33.5 19t29.5 42q11 23 17 56.5t9.5 70.5t4.5 72t1 60v217q0 30 -10.5 48t-35.5 23q-4 1 -6.5 5.5t-2.5 9.5q0 11 9 13q42 10 73.5 26.5t47.5 26.5q6 3 10.5 5t5.5 2q9 0 9 -8q-3 -30 -6 -73.5t-3 -78.5l1 -188
q0 -31 -2 -72.5t-8.5 -86t-22.5 -84.5q-13 -34 -37.5 -65t-52 -50.5t-50.5 -19.5zM122 656q-7 0 -13 -7.5t-12 -17.5q-8 -14 -21 -36t-27 -46t-24.5 -43.5t-12.5 -28.5q-3 -10 -2 -16t11 -6q7 0 16 7.5t18 17.5q10 12 28.5 34.5t34.5 44.5q3 4 4.5 4t4.5 -4
q17 -22 35.5 -44.5t28.5 -34.5q8 -10 17 -17.5t16 -7.5t9.5 6t-0.5 16q-3 9 -13 28.5t-24 43.5t-27 46.5t-21 35.5q-7 10 -12.5 17.5t-13.5 7.5z" />
  </g>

</svg>
