<?xml version="1.0" standalone="no"?>
<!DOCTYPE svg PUBLIC "-//W3C//DTD SVG 1.1//EN" "http://www.w3.org/Graphics/SVG/1.1/DTD/svg11.dtd" >
<svg xmlns="http://www.w3.org/2000/svg" xmlns:xlink="http://www.w3.org/1999/xlink" version="1.1" viewBox="-10 0 530 1000">
  <g transform="matrix(1 0 0 -1 0 800)">
   <path fill="currentColor"
d="M44 -3q-6 0 -14.5 2t-8.5 9q0 8 7.5 11.5t15.5 7.5q15 5 28.5 12t13.5 28v213q0 30 -10.5 48t-35.5 23q-5 1 -7 5.5t-2 9.5q0 11 8 13q43 10 75.5 27t49.5 26q11 7 15 7q9 0 9 -8q-3 -30 -7 -67t-4 -72v-54q0 -10 7 -9q6 1 13 6t16 12q39 35 70 67t40 45l2 4t1 3
q0 13 -27 18q-3 1 -7.5 3.5t-4.5 5.5q0 9 9 11.5t13 2.5h49q18 0 39.5 2t41 5t32.5 4q3 0 6 -2.5t3 -6.5q0 -6 -6 -12.5t-15 -8.5q-19 -4 -37.5 -13.5t-32.5 -17.5q-6 -4 -27 -20t-47.5 -38t-49.5 -44q-5 -4 -5 -11q0 -3 2 -6t5 -6q26 -31 51.5 -61.5t48 -55t37.5 -40.5
q17 -17 41.5 -31t40.5 -19q8 -3 16 -7t8 -12q0 -6 -7 -8t-14 -2q-35 0 -68 1.5t-69 2.5h-30.5h-29.5q-6 0 -14 2t-8 9q0 8 6.5 12t15.5 7q8 3 14 7t6 10q0 4 -2.5 8t-6.5 9l-116 142q-2 2 -6 0.5t-4 -9.5v-131q0 -18 9 -26t25 -13q8 -3 15 -7t7 -12q0 -7 -8 -9t-13 -2
q-20 0 -31.5 1.5t-21.5 2.5t-28 1q-17 0 -29.5 -1t-25 -2.5t-32.5 -1.5z" />
  </g>

</svg>
