<?xml version="1.0" standalone="no"?>
<!DOCTYPE svg PUBLIC "-//W3C//DTD SVG 1.1//EN" "http://www.w3.org/Graphics/SVG/1.1/DTD/svg11.dtd" >
<svg xmlns="http://www.w3.org/2000/svg" xmlns:xlink="http://www.w3.org/1999/xlink" version="1.1" viewBox="-10 0 1091 1000">
  <g transform="matrix(1 0 0 -1 0 800)">
   <path fill="currentColor"
d="M43 -3q-9 0 -14.5 3t-5.5 9q0 8 6.5 11.5t16.5 6.5q15 5 28 13.5t13 28.5v283q-10 0 -23 0.5t-29 1.5q-4 1 -9 8.5t-5 13.5q0 2 3 4t5 3q20 6 31.5 12t26.5 13q2 70 25 119.5t58.5 80t75 45t74.5 14.5q60 0 94 -21t34 -43q0 -18 -13.5 -31.5t-29.5 -13.5q-9 0 -16.5 7.5
l-17.5 17.5q-13 14 -33.5 26.5t-53.5 12.5q-47 0 -76 -43t-29 -137v-372q0 -19 14 -29t32 -14q10 -2 16 -6t6 -12q0 -6 -5 -9t-14 -3q-20 0 -34.5 1.5t-27.5 2.5t-31 1q-17 0 -30.5 -1t-27.5 -2.5t-34 -1.5zM304 -3q-4 0 -7 3.5t-3 7.5q0 12 8 14t18.5 3.5t18.5 8.5
q10 8 14.5 16.5t4.5 22.5v279q-10 0 -25 0.5t-31 1.5q-4 1 -8 9t-4 14q0 4 5 6q20 6 34.5 12t28.5 13q3 87 28 144.5t63.5 91.5t79.5 48t76 14q18 0 34 -2.5t31 -9.5q6 -3 12.5 -3t11.5 2q7 4 12 5.5t9 3.5q6 2 10 2t6 -1.5t2 -6.5t-1 -23.5t-2 -42.5t-2 -46v-194
q0 -9 1.5 -19.5t5.5 -14.5q16 12 39 27t52 26.5t61 11.5q33 0 59.5 -15.5t41.5 -44t15 -67.5v-217q0 -28 9 -37t33 -13q8 -2 11.5 -6.5t3.5 -9.5q0 -14 -15 -14q-21 0 -34 1.5t-25 2.5t-30 1t-30 -1t-24.5 -2.5t-33.5 -1.5q-16 0 -16 13q0 7 4.5 11t9.5 5q24 5 34.5 13
t10.5 38v195q0 24 -12.5 43.5t-31.5 30.5t-40 11q-17 0 -39 -4.5t-35 -14.5q-15 -12 -19.5 -25.5t-4.5 -43.5v-192q0 -29 11 -37.5t33 -13.5q16 -3 16 -16q0 -12 -14 -12q-29 0 -49 2t-46 2t-44.5 -2.5t-47.5 -2.5q-15 0 -15 12q0 5 4.5 9.5t10.5 6.5q25 5 36 14t11 34v499
q0 43 -13 66t-49 23q-31 0 -59 -19.5t-45.5 -60t-17.5 -104.5l-1 -401q2 -20 7 -30t16.5 -13.5t29.5 -6.5q7 -1 11 -6t4 -11q0 -4 -3 -8t-8 -4q-30 0 -55.5 2.5t-51.5 2.5t-46 -2.5t-50 -2.5z" />
  </g>

</svg>
