<?xml version="1.0" standalone="no"?>
<!DOCTYPE svg PUBLIC "-//W3C//DTD SVG 1.1//EN" "http://www.w3.org/Graphics/SVG/1.1/DTD/svg11.dtd" >
<svg xmlns="http://www.w3.org/2000/svg" xmlns:xlink="http://www.w3.org/1999/xlink" version="1.1" viewBox="-10 0 484 1000">
  <g transform="matrix(1 0 0 -1 0 800)">
   <path fill="currentColor"
d="M63 -84q-4 0 -7.5 4.5t-3.5 9.5v4l42 171l-61 -3q-7 0 -12 4.5t-5 10.5q0 11 3 24t9.5 22t16.5 9l66 3l32 129l-65 -3q-7 -1 -12 4t-5 10q0 12 2.5 24.5t9 22t16.5 9.5l71 3l40 162q2 13 12.5 16.5t22.5 3.5q5 0 7.5 -4t2.5 -10q0 -1 -0.5 -2.5t-0.5 -3.5l-39 -160l113 5
l41 166q2 13 12.5 16.5t22.5 3.5q5 0 7.5 -4t2.5 -10q0 -1 -1 -2.5t-1 -3.5l-40 -163l59 3q8 0 12.5 -4t4.5 -11q0 -8 -4 -21t-11.5 -23t-18.5 -11l-59 -3l-32 -129l64 3q7 0 12 -4.5t5 -10.5q0 -9 -4 -22t-12 -22.5t-18 -10.5l-64 -3l-41 -169q-3 -12 -12 -14.5t-20 -2.5
q-5 0 -8.5 4.5t-3.5 9.5v3l41 167l-114 -6l-42 -173q-3 -12 -12 -15t-21 -3zM155 177l114 5l31 129l-113 -5z" />
  </g>

</svg>
