<?xml version="1.0" standalone="no"?>
<!DOCTYPE svg PUBLIC "-//W3C//DTD SVG 1.1//EN" "http://www.w3.org/Graphics/SVG/1.1/DTD/svg11.dtd" >
<svg xmlns="http://www.w3.org/2000/svg" xmlns:xlink="http://www.w3.org/1999/xlink" version="1.1" viewBox="-10 0 508 1000">
  <g transform="matrix(1 0 0 -1 0 800)">
   <path fill="currentColor"
d="M235 -14q-57 0 -103.5 26.5t-73.5 72.5t-27 105q0 44 17 85t48 74t72 52.5t88 19.5q59 0 107 -28.5t76 -74.5t28 -101q0 -60 -26 -113t-77.5 -85.5t-128.5 -32.5zM256 21q29 0 52 11.5t36 35.5q12 23 16.5 56.5t4.5 68.5q0 50 -16 94t-44 71t-66 27q-23 0 -41.5 -7.5
t-33.5 -25.5q-19 -23 -25 -59.5t-6 -79.5q0 -48 16 -92t43.5 -72t63.5 -28zM256 656q-7 0 -13 -7.5t-12 -17.5q-8 -14 -21 -36t-27 -46t-24.5 -43.5t-12.5 -28.5q-3 -10 -2 -16t11 -6q7 0 16 7.5t18 17.5q10 12 28.5 34.5t34.5 44.5q3 4 4.5 4t4.5 -4q17 -22 35.5 -44.5
t28.5 -34.5q8 -10 17 -17.5t16 -7.5t9.5 6t-0.5 16q-3 9 -13 28.5t-24 43.5t-27 46.5t-21 35.5q-7 10 -12.5 17.5t-13.5 7.5z" />
  </g>

</svg>
