<?xml version="1.0" standalone="no"?>
<!DOCTYPE svg PUBLIC "-//W3C//DTD SVG 1.1//EN" "http://www.w3.org/Graphics/SVG/1.1/DTD/svg11.dtd" >
<svg xmlns="http://www.w3.org/2000/svg" xmlns:xlink="http://www.w3.org/1999/xlink" version="1.1" viewBox="-10 0 665 1000">
  <g transform="matrix(1 0 0 -1 0 800)">
   <path fill="currentColor"
d="M75 -3q-5 0 -8 2.5t-5 7.5q-4 16 -10.5 36.5t-11.5 42t-5 37.5q0 9 8 9q7 0 10 -4t7 -10q13 -23 25.5 -37t44.5 -14h75q4 0 4.5 3.5t-4.5 5.5q-60 33 -93.5 76.5t-33.5 104.5q0 45 21 83t56.5 66t81 43.5t93.5 15.5q63 0 120 -26t92 -71t35 -104q0 -64 -35 -110t-93 -78
q-4 -3 -5 -6t3 -3h71q21 0 34 5.5t22.5 16t17.5 25.5q4 7 9 12t11 5q9 0 9 -9q0 -15 -5.5 -37.5t-12 -43.5t-11.5 -34q-1 -4 -4 -7t-9 -3q-11 0 -25 1t-33 1t-38.5 0.5t-41.5 0.5h-33.5h-33.5q-5 0 -5 7q0 13 6 30t13 22q19 15 38.5 43t32 64.5t12.5 75.5q0 53 -17.5 96
t-50 68.5t-78.5 25.5q-43 0 -75 -24.5t-48.5 -66.5t-16.5 -93q0 -62 21 -109.5t63 -81.5q7 -7 11.5 -23t5.5 -27q1 -7 -5 -7h-30h-31q-8 0 -29.5 -0.5t-46 -1.5t-44 -1h-25.5z" />
  </g>

</svg>
