<?xml version="1.0" standalone="no"?>
<!DOCTYPE svg PUBLIC "-//W3C//DTD SVG 1.1//EN" "http://www.w3.org/Graphics/SVG/1.1/DTD/svg11.dtd" >
<svg xmlns="http://www.w3.org/2000/svg" xmlns:xlink="http://www.w3.org/1999/xlink" version="1.1" viewBox="-10 0 397 1000">
  <g transform="matrix(1 0 0 -1 0 800)">
   <path fill="currentColor"
d="M50 -3q-7 0 -11.5 4t-4.5 9q0 11 16 15q36 8 55 16t27 23t8 42v375q0 31 -19.5 40.5t-51.5 12.5q-10 1 -18 5.5t-8 13.5t8 14.5t19 6.5q33 3 58.5 9.5t48.5 19t50 32.5q1 1 3 1.5t4 0.5q6 0 11 -3t4 -7q-1 -14 -2.5 -31t-1.5 -40v-459q0 -23 6 -35.5t24 -20t55 -16.5
q7 -2 12.5 -5.5t5.5 -10.5q0 -12 -15 -12q-26 0 -49 1.5t-45 2.5t-47 1q-37 0 -70 -2.5t-72 -2.5z" />
  </g>

</svg>
