<?xml version="1.0" standalone="no"?>
<!DOCTYPE svg PUBLIC "-//W3C//DTD SVG 1.1//EN" "http://www.w3.org/Graphics/SVG/1.1/DTD/svg11.dtd" >
<svg xmlns="http://www.w3.org/2000/svg" xmlns:xlink="http://www.w3.org/1999/xlink" version="1.1" viewBox="-10 0 507 1000">
  <g transform="matrix(1 0 0 -1 0 800)">
   <path fill="currentColor"
d="M110 -3q-6 0 -10.5 4t-4.5 9q0 11 16 15q34 10 57 17.5t34.5 22t11.5 41.5v375q0 20 -12 31t-31.5 15.5t-41.5 6.5q-9 1 -17.5 5.5t-8.5 13.5t8 14.5t19 6.5q50 6 89.5 17.5t78.5 43.5q1 1 3 1.5t4 0.5q6 0 10.5 -3t4.5 -7q-2 -14 -3.5 -31t-1.5 -40v-459
q0 -23 10.5 -35.5t33 -20t59.5 -16.5q7 -2 12 -5.5t5 -10.5q0 -12 -14 -12q-26 0 -52.5 1.5t-52 2.5t-50.5 1t-51 -1t-52.5 -2.5t-52.5 -1.5z" />
  </g>

</svg>
