<?xml version="1.0" standalone="no"?>
<!DOCTYPE svg PUBLIC "-//W3C//DTD SVG 1.1//EN" "http://www.w3.org/Graphics/SVG/1.1/DTD/svg11.dtd" >
<svg xmlns="http://www.w3.org/2000/svg" xmlns:xlink="http://www.w3.org/1999/xlink" version="1.1" viewBox="-10 0 329 1000">
  <g transform="matrix(1 0 0 -1 0 800)">
   <path fill="currentColor"
d="M280 199q5 0 10 -3.5t5 -9.5q0 -1 -0.5 -1.5t-0.5 -1.5q-6 -10 -14 -16.5t-20 -6.5h-223q-6 0 -10.5 4.5t-4.5 9.5q0 7 7.5 16t18.5 9h232zM159 273q-36 0 -66.5 16t-48.5 44t-18 65q0 39 19.5 71t53 51t73.5 19q37 0 68 -17t50 -45t19 -63q0 -37 -17 -69t-50 -52
t-83 -20zM172 305q20 0 32.5 14t17.5 35.5t5 44.5q0 27 -7.5 51t-22 39.5t-35.5 15.5t-33 -13.5t-17 -35t-5 -44.5q0 -27 8 -51.5t22.5 -40t34.5 -15.5z" />
  </g>

</svg>
