<?xml version="1.0" standalone="no"?>
<!DOCTYPE svg PUBLIC "-//W3C//DTD SVG 1.1//EN" "http://www.w3.org/Graphics/SVG/1.1/DTD/svg11.dtd" >
<svg xmlns="http://www.w3.org/2000/svg" xmlns:xlink="http://www.w3.org/1999/xlink" version="1.1" viewBox="-10 0 501 1000">
  <g transform="matrix(1 0 0 -1 0 800)">
   <path fill="currentColor"
d="M51 -15q-10 0 -18 6.5t-8 14.5q0 15 11 24l403 386q6 5 15 5q15 0 15 -18q0 -7 -3 -15t-9 -14l-393 -383q-3 -3 -6 -4.5t-7 -1.5zM235 -14q-57 0 -103.5 26.5t-73.5 72.5t-27 105q0 44 17 85t48 74t72 52.5t88 19.5q59 0 107 -28.5t76 -74.5t28 -101q0 -60 -26 -113
t-77.5 -85.5t-128.5 -32.5zM256 21q29 0 52 11.5t36 35.5q12 23 16.5 56.5t4.5 68.5q0 50 -16 94t-44 71t-66 27q-23 0 -41.5 -7.5t-33.5 -25.5q-19 -23 -25 -59.5t-6 -79.5q0 -48 16 -92t43.5 -72t63.5 -28z" />
  </g>

</svg>
