<?xml version="1.0" standalone="no"?>
<!DOCTYPE svg PUBLIC "-//W3C//DTD SVG 1.1//EN" "http://www.w3.org/Graphics/SVG/1.1/DTD/svg11.dtd" >
<svg xmlns="http://www.w3.org/2000/svg" xmlns:xlink="http://www.w3.org/1999/xlink" version="1.1" viewBox="-10 0 214 1000">
  <g transform="matrix(1 0 0 -1 0 800)">
   <path fill="currentColor"
d="M33 311q9 0 15 6q16 16 36.5 47.5t38 72t28.5 83.5t11 80q0 51 -18 101t-44 91t-49 62q-4 3 -11 6t-13 3t-12 -3.5t-6 -9.5q0 -1 2.5 -5.5t4.5 -5.5q21 -20 41 -55.5t33 -81t13 -97.5q0 -35 -7.5 -75t-19.5 -78t-27.5 -68t-30.5 -45q-2 -1 -5 -7t-1 -8q1 -6 7.5 -9.5
t13.5 -3.5z" />
  </g>

</svg>
