<?xml version="1.0" standalone="no"?>
<!DOCTYPE svg PUBLIC "-//W3C//DTD SVG 1.1//EN" "http://www.w3.org/Graphics/SVG/1.1/DTD/svg11.dtd" >
<svg xmlns="http://www.w3.org/2000/svg" xmlns:xlink="http://www.w3.org/1999/xlink" version="1.1" viewBox="-10 0 416 1000">
  <g transform="matrix(1 0 0 -1 0 800)">
   <path fill="currentColor"
d="M190 287q-3 0 -7.5 3t-4.5 8v121q0 5 -7 5h-117q-5 0 -8.5 5t-3.5 8q0 6 4 21t16 15h108q5 0 6.5 1.5t1.5 5.5v95q0 12 14.5 17t20.5 5q5 0 10 -2.5t5 -8.5v-107q0 -6 6 -6h117q6 0 9.5 -5t3.5 -9q0 -10 -6 -22.5t-18 -12.5h-106q-6 0 -6 -5v-114q0 -11 -15.5 -14.5
t-22.5 -3.5z" />
  </g>

</svg>
