<?xml version="1.0" standalone="no"?>
<!DOCTYPE svg PUBLIC "-//W3C//DTD SVG 1.1//EN" "http://www.w3.org/Graphics/SVG/1.1/DTD/svg11.dtd" >
<svg xmlns="http://www.w3.org/2000/svg" xmlns:xlink="http://www.w3.org/1999/xlink" version="1.1" viewBox="-10 0 624 1000">
  <g transform="matrix(1 0 0 -1 0 800)">
   <path fill="currentColor"
d="M330 -285q-17 0 -27.5 17.5t-16 46t-6.5 64t-1 72.5v69q-36 2 -63.5 24.5t-43.5 58.5t-19 76q-4 62 -10.5 97t-16 52t-23.5 21.5t-31 4.5q-20 0 -33 -8.5t-19 -8.5q-5 0 -8 2.5t-3 11.5q0 15 6.5 33.5t18.5 34.5t28.5 26.5t37.5 10.5q40 2 59.5 -58.5t30.5 -186.5
q4 -37 30 -61.5t59 -28.5q0 125 -1 211t-2.5 142t-2.5 89t-1 51q0 19 7.5 28.5t22.5 9.5q13 0 23.5 -4t16.5 -13.5t6 -26.5q0 -10 -3 -38.5t-8 -83.5t-9 -143.5t-5 -217.5q36 11 55 53t38 105q17 51 35 90t43.5 61t63.5 22q22 0 34 -8.5t12 -20.5q0 -7 -4.5 -12t-9.5 -7
q-34 -6 -54 -26.5t-32 -50.5q-10 -23 -22 -57.5t-23.5 -70.5t-20.5 -65q-16 -52 -50 -78.5t-66 -34.5v-48q0 -48 8.5 -83t19 -57t19 -34.5t8.5 -16.5q0 -11 -16 -23t-31 -12z" />
  </g>

</svg>
