<?xml version="1.0" standalone="no"?>
<!DOCTYPE svg PUBLIC "-//W3C//DTD SVG 1.1//EN" "http://www.w3.org/Graphics/SVG/1.1/DTD/svg11.dtd" >
<svg xmlns="http://www.w3.org/2000/svg" xmlns:xlink="http://www.w3.org/1999/xlink" version="1.1" viewBox="-10 0 378 1000">
  <g transform="matrix(1 0 0 -1 0 800)">
   <path fill="currentColor"
d="M46 -3q-9 0 -14.5 3t-5.5 9q0 8 6.5 11.5t16.5 6.5q21 5 29.5 14t8.5 24v220q0 25 -7 42.5t-30 22.5q-4 1 -7.5 5t-3.5 10q0 11 10 14q28 8 60 22.5t52 25.5q6 4 11 6t7 2q7 0 7 -8q0 -4 -0.5 -17t-1.5 -29t-1 -31q0 -4 2 -4q16 20 35.5 37t41.5 27.5t42 10.5
q26 0 40 -10.5t14 -27.5q0 -11 -6.5 -25.5t-17 -25t-22.5 -10.5q-7 0 -15 3.5t-17 7.5q-8 4 -16.5 7.5t-16.5 3.5q-25 0 -46 -18t-21 -70v-188q0 -16 13 -25t39 -17q11 -3 17 -6.5t6 -10.5q0 -12 -19 -12q-30 0 -51.5 2.5t-47.5 2.5q-17 0 -30 -1t-27 -2.5t-34 -1.5z
M190 456q-9 0 -9 10q0 3 1 8t3 11q7 19 21.5 48t29 57t22.5 42q6 10 14.5 15t18.5 5q21 0 37 -5t16 -17q0 -6 -2.5 -10.5t-7.5 -11.5q-15 -19 -35.5 -44t-42 -49t-37.5 -40q-19 -19 -29 -19z" />
  </g>

</svg>
