<?xml version="1.0" standalone="no"?>
<!DOCTYPE svg PUBLIC "-//W3C//DTD SVG 1.1//EN" "http://www.w3.org/Graphics/SVG/1.1/DTD/svg11.dtd" >
<svg xmlns="http://www.w3.org/2000/svg" xmlns:xlink="http://www.w3.org/1999/xlink" version="1.1" viewBox="-10 0 590 1000">
  <g transform="matrix(1 0 0 -1 0 800)">
   <path fill="currentColor"
d="M289 28q-69 0 -125.5 33.5t-89.5 90.5t-33 125q0 69 33.5 125.5t90 90t124.5 33.5q69 0 125.5 -33.5t90.5 -90t34 -125.5q0 -68 -34 -125t-90.5 -90.5t-125.5 -33.5zM289 68q58 0 104.5 28.5t74 76t27.5 104.5t-27.5 104t-74.5 75.5t-104 28.5q-56 0 -102.5 -28.5
t-74 -75.5t-27.5 -104q0 -56 27.5 -103.5t73.5 -76.5t103 -29zM178 145q-4 0 -8 3t-4 7q0 5 4 8t9 4q13 4 17.5 9t4.5 17v169q0 22 -3 25.5t-17 7.5q-14 3 -14 11q0 11 15 9q14 0 26 -1.5t24 -1.5q18 0 34.5 1.5t36.5 1.5q37 2 64.5 -16t27.5 -50q0 -26 -14 -43t-33 -24
q-4 -1 -2.5 -4.5t2.5 -7.5q10 -25 25.5 -46t32 -34t27.5 -13q3 0 7.5 -1.5t4.5 -5.5q0 -12 -12.5 -18t-30.5 -6q-20 0 -41 18t-38 44t-26 48q-2 4 -7.5 8t-18.5 4q-3 0 -6.5 -2t-3.5 -7v-66q0 -12 8.5 -17t21.5 -9q4 -1 9 -4t5 -8q0 -4 -4.5 -7t-8.5 -3q-17 0 -29.5 1.5
t-28.5 1.5q-17 0 -27.5 -1.5t-28.5 -1.5zM280 293q25 -1 39.5 14.5t14.5 36.5q0 22 -12.5 34t-33.5 12q-17 0 -22.5 -6t-5.5 -17v-60q0 -10 6 -12t14 -2z" />
  </g>

</svg>
