<?xml version="1.0" standalone="no"?>
<!DOCTYPE svg PUBLIC "-//W3C//DTD SVG 1.1//EN" "http://www.w3.org/Graphics/SVG/1.1/DTD/svg11.dtd" >
<svg xmlns="http://www.w3.org/2000/svg" xmlns:xlink="http://www.w3.org/1999/xlink" version="1.1" viewBox="-10 0 335 1000">
  <g transform="matrix(1 0 0 -1 0 800)">
   <path fill="currentColor"
d="M156 431q-30 0 -55.5 15t-40.5 40.5t-15 55.5q0 32 15 57t40.5 40t55.5 15q31 0 56.5 -15t40.5 -40t15 -57q0 -30 -15.5 -55.5t-40.5 -40.5t-56 -15zM156 453q37 0 63.5 26t26.5 63t-26.5 63.5t-63.5 26.5t-63 -26.5t-26 -63.5q0 -36 26 -62.5t63 -26.5zM102 483
q-2 0 -2 5t2 5q5 2 10 5.5t5 7.5v70q0 10 -12 14q-4 0 -4 6q0 5 4 5q8 1 14 2t12 1q5 1 11 1h14q22 0 33.5 -8.5t11.5 -23.5q0 -11 -6.5 -17t-14.5 -9v-1v-1q2 -6 10 -21t14 -23q5 -6 12 -7q4 -1 4 -4q0 -9 -17 -9q-7 0 -15.5 4.5t-12.5 11.5l-17 32q-1 3 -3.5 4.5t-4.5 1.5
q-5 0 -5 -4v-25q0 -9 15 -12q2 -1 2 -5q2 -5 -2 -5q-6 0 -14 0.5t-15 0.5t-14.5 -1t-14.5 -1zM152 551q9 0 15 5t6 13q0 9 -4.5 15.5t-12.5 6.5q-11 0 -11 -9v-24q0 -7 7 -7z" />
  </g>

</svg>
