<?xml version="1.0" standalone="no"?>
<!DOCTYPE svg PUBLIC "-//W3C//DTD SVG 1.1//EN" "http://www.w3.org/Graphics/SVG/1.1/DTD/svg11.dtd" >
<svg xmlns="http://www.w3.org/2000/svg" xmlns:xlink="http://www.w3.org/1999/xlink" version="1.1" viewBox="-10 0 436 1000">
  <g transform="matrix(1 0 0 -1 0 800)">
   <path fill="currentColor"
d="M129 -285q-17 0 -34 7t-27.5 20t-10.5 29v48.5v71.5v84v86.5v80v63.5q0 61 22 109.5t63 77.5t99 29q53 0 87 -31t50.5 -80.5t16.5 -103.5q0 -62 -23.5 -112t-64 -78.5t-91.5 -28.5q-10 0 -26.5 10t-32.5 24.5t-27 26.5q-5 6 -8 -0.5t-3 -19.5q0 -22 2.5 -49.5t6.5 -53.5
q6 -43 12.5 -81t12 -64.5t5.5 -35.5q0 -15 -6 -22t-23 -7zM166 71q59 0 100 23t62.5 65t21.5 97q0 34 -20.5 60t-56.5 26q-45 1 -80.5 -22t-55.5 -73t-20 -133q0 -18 15.5 -30.5t33.5 -12.5z" />
  </g>

</svg>
