<?xml version="1.0" standalone="no"?>
<!DOCTYPE svg PUBLIC "-//W3C//DTD SVG 1.1//EN" "http://www.w3.org/Graphics/SVG/1.1/DTD/svg11.dtd" >
<svg xmlns="http://www.w3.org/2000/svg" xmlns:xlink="http://www.w3.org/1999/xlink" version="1.1" viewBox="-10 0 258 1000">
  <g transform="matrix(1 0 0 -1 0 800)">
   <path fill="currentColor"
d="M113 -142q-21 0 -40.5 4.5t-36.5 14.5q-4 9 -6.5 30t-2.5 39q0 3 3.5 6t9.5 3q7 0 11 -3.5t5 -6.5q6 -16 15 -30t20.5 -22t26.5 -8q18 0 27.5 9t9.5 22q0 15 -11.5 25.5t-33.5 20.5q-20 9 -36.5 20t-26 26.5t-9.5 36.5q0 23 13 40t36 26.5t53 9.5q21 0 38.5 -4t23.5 -8
q5 -7 8.5 -24t3.5 -36q0 -4 -3.5 -7t-8.5 -3q-12 0 -16 10q-8 21 -19 33.5t-30 12.5q-16 0 -26.5 -7.5t-10.5 -20.5q0 -12 10 -22t32 -20q41 -20 60 -37.5t19 -49.5q0 -36 -27 -58t-81 -22z" />
  </g>

</svg>
