<?xml version="1.0" standalone="no"?>
<!DOCTYPE svg PUBLIC "-//W3C//DTD SVG 1.1//EN" "http://www.w3.org/Graphics/SVG/1.1/DTD/svg11.dtd" >
<svg xmlns="http://www.w3.org/2000/svg" xmlns:xlink="http://www.w3.org/1999/xlink" version="1.1" viewBox="-10 0 322 1000">
  <g transform="matrix(1 0 0 -1 0 800)">
   <path fill="currentColor"
d="M110 -271q-22 0 -39.5 8t-17.5 20q0 7 6 21.5t19 21.5q5 2 9.5 -0.5t7.5 -4.5q11 -9 25.5 -14t27.5 -5q17 0 28.5 11.5t11.5 29.5q0 19 -14.5 36.5t-35 35t-42.5 37.5q-36 34 -53 66.5t-17 64.5q0 49 15 74t37 48q9 37 39.5 63t70.5 26q17 0 36 -5t27 -13q3 -3 5.5 -6
t2.5 -8q0 -3 -4.5 -14t-11.5 -20.5t-16 -9.5q-3 0 -5.5 1t-5.5 4q-13 13 -24.5 20t-24.5 7q-16 0 -29.5 -10t-13.5 -29q0 -17 10.5 -30t28 -27t39.5 -33q44 -38 62 -76t18 -89q0 -35 -14.5 -71t-39 -65.5t-55.5 -47t-63 -17.5zM231 -131h3q2 7 3 18.5t1 21.5q0 36 -16.5 63
t-48.5 58q-23 23 -49.5 48.5t-37.5 50.5h-3q-5 -7 -8 -21t-3 -24q0 -22 16.5 -48.5t48.5 -58.5q17 -17 36.5 -36t35.5 -37.5t22 -34.5z" />
  </g>

</svg>
