<?xml version="1.0" standalone="no"?>
<!DOCTYPE svg PUBLIC "-//W3C//DTD SVG 1.1//EN" "http://www.w3.org/Graphics/SVG/1.1/DTD/svg11.dtd" >
<svg xmlns="http://www.w3.org/2000/svg" xmlns:xlink="http://www.w3.org/1999/xlink" version="1.1" viewBox="-10 0 313 1000">
  <g transform="matrix(1 0 0 -1 0 800)">
   <path fill="currentColor"
d="M93 265q-10 0 -17.5 4.5t-7.5 13.5q0 5 5 15t13 24l130 216q2 5 0.5 7t-10.5 2h-123q-11 0 -19.5 -8.5t-16.5 -19.5q-4 -6 -9.5 -12.5t-10.5 -6.5q-4 0 -7.5 4t-3.5 8q0 7 2.5 20t6 26.5t7 25t4.5 14.5q2 7 5.5 9.5t9.5 2.5l225 -2q4 0 8 -3t4 -8q0 -9 -7 -20.5
t-15 -25.5l-155 -262q-4 -7 -9 -15.5t-9 -8.5z" />
  </g>

</svg>
