<?xml version="1.0" standalone="no"?>
<!DOCTYPE svg PUBLIC "-//W3C//DTD SVG 1.1//EN" "http://www.w3.org/Graphics/SVG/1.1/DTD/svg11.dtd" >
<svg xmlns="http://www.w3.org/2000/svg" xmlns:xlink="http://www.w3.org/1999/xlink" version="1.1" viewBox="-10 0 425 1000">
  <g transform="matrix(1 0 0 -1 0 800)">
   <path fill="currentColor"
d="M99 -53q-11 0 -22 6.5t-11 13.5q0 14 10.5 22.5t21.5 8.5q5 0 17 -1t26 -0.5t22 3.5q35 12 60.5 42.5t25.5 77.5q0 18 -7 36t-25 30t-50 12q-23 0 -40.5 -8t-20.5 -8q-7 0 -13 5t-6 12q0 6 12 16t21 14q15 9 28.5 17t29.5 21t27.5 33.5t11.5 50.5q0 22 -15 34.5t-40 12.5
q-27 0 -46.5 -11.5t-39.5 -29.5q-4 -3 -10 -4.5t-10 -0.5q-5 1 -7 7t-2 12t12 20t33 29t48 25.5t57 10.5q54 0 88.5 -23.5t34.5 -63.5q0 -15 -8 -35.5t-30 -42t-64 -40.5q-3 -1 -3 -3t4 -2q48 -2 79 -18.5t45.5 -40t14.5 -47.5q0 -40 -24.5 -74t-65 -59.5t-87.5 -43.5
q-21 -8 -44.5 -12t-37.5 -4z" />
  </g>

</svg>
