<?xml version="1.0" standalone="no"?>
<!DOCTYPE svg PUBLIC "-//W3C//DTD SVG 1.1//EN" "http://www.w3.org/Graphics/SVG/1.1/DTD/svg11.dtd" >
<svg xmlns="http://www.w3.org/2000/svg" xmlns:xlink="http://www.w3.org/1999/xlink" version="1.1" viewBox="-10 0 653 1000">
  <g transform="matrix(1 0 0 -1 0 800)">
   <path fill="currentColor"
d="M96 267q-23 0 -44 9.5t-21 28.5q0 11 5.5 20t12.5 9q5 0 9 -2.5t6 -5.5q14 -12 27 -20.5t31 -8.5q24 0 39 20.5t15 53.5q0 21 -16.5 41.5t-42.5 20.5q-13 0 -23 -4.5t-17 -4.5q-5 0 -9.5 2.5t-4.5 6.5q0 8 11.5 15t24.5 12t19 8q26 12 37.5 26t11.5 35q0 16 -14 27.5
t-32 11.5q-21 0 -37.5 -9t-29.5 -25q-2 -3 -4.5 -6t-5.5 -3q-4 0 -7.5 6t-3.5 9q0 10 14.5 26.5t38.5 29.5t54 13q33 0 61 -19t28 -50q0 -25 -15 -40.5t-44 -27.5q-2 -1 -2 -2.5t2 -2.5q30 -6 53 -24.5t23 -50.5q0 -37 -21.5 -65t-55.5 -44t-73 -16zM498 646q8 12 18.5 15.5
t24.5 3.5q6 0 11 -4.5t5 -10.5q0 -3 -1 -4l-428 -678q-7 -11 -17.5 -13.5t-22.5 -2.5q-7 0 -13 4t-6 9q0 2 1 3zM483 -32q-30 0 -56.5 10.5t-43 30t-16.5 45.5q0 33 26 52t56 34q5 2 3.5 4.5t-4.5 3.5q-27 22 -47 40.5t-20 49.5q0 26 17.5 44.5t44 29t54.5 10.5
q26 0 49.5 -9t38 -25.5t14.5 -40.5q0 -18 -10 -32t-24.5 -24t-29.5 -19q-10 -7 -2 -12q33 -18 57 -37.5t24 -52.5q0 -31 -18 -54t-48 -35.5t-65 -12.5zM493 -8q24 0 38.5 17.5t14.5 39.5q0 23 -16.5 40.5t-42.5 34.5q-7 5 -12 5q-2 0 -7 -3q-17 -13 -25 -25t-8 -37
q0 -29 15.5 -50.5t42.5 -21.5zM506 180q18 14 25.5 27t7.5 34q0 22 -11 39.5t-33 17.5q-19 0 -34.5 -13t-15.5 -33q0 -25 14.5 -39t38.5 -32q5 -3 8 -1z" />
  </g>

</svg>
