<?xml version="1.0" standalone="no"?>
<!DOCTYPE svg PUBLIC "-//W3C//DTD SVG 1.1//EN" "http://www.w3.org/Graphics/SVG/1.1/DTD/svg11.dtd" >
<svg xmlns="http://www.w3.org/2000/svg" xmlns:xlink="http://www.w3.org/1999/xlink" version="1.1" viewBox="-10 0 1058 1000">
  <g transform="matrix(1 0 0 -1 0 800)">
   <path fill="currentColor"
d="M80 506h41v-104h-41v104zM80 349h41v-104h-41v104zM80 193h41v-104h-41v104zM80 36h41v-104h-41v104zM856 -184h71v64h41v-105h-112v41zM243 622v41h103v-41h-103zM399 622v41h103v-41h-103zM554 622v41h103v-41h-103zM710 622v41h103v-41h-103zM968 -68h-41v104h41v-104
zM968 89h-41v104h41v-104zM968 245h-41v104h41v-104zM968 402h-41v104h41v-104zM807 -184v-41h-102v41h102zM653 -184v-41h-102v41h102zM499 -184v-41h-101v41h101zM345 -184v-41h-102v41h102zM191 -225h-111v105h41v-64h70v-41zM927 559v63h-71v41h112v-104h-41zM80 559
v104h112v-41h-71v-63h-41zM244 -2q-5 0 -12 3t-7 9q0 8 7 11.5t15 4.5q25 5 41 15t16 35v284q0 27 -11.5 41.5t-40.5 20.5q-8 2 -15 6.5t-7 12.5q0 6 6.5 9t11.5 3q19 0 36.5 -1t35 -2.5t34.5 -1.5t35 1.5t36.5 2.5t36.5 1q6 0 12.5 -3.5t6.5 -9.5q0 -7 -7 -11.5t-15 -6.5
q-30 -6 -41.5 -21t-11.5 -42v-99q0 -8 11 -8q32 0 52.5 -1t46.5 -1q22 0 49 1t55 1q7 0 7 9v97q0 28 -12 43t-41 21q-7 2 -14 7t-7 12q0 6 7 9t12 3q18 0 36 -1t36 -2.5t34 -1.5q18 0 35.5 1.5t35.5 2.5t36 1q5 0 12 -3t7 -9q0 -7 -6.5 -12t-15.5 -7q-29 -5 -41 -20t-12 -42
v-284q0 -25 16.5 -34.5t42.5 -14.5q7 -1 14 -5t7 -12q0 -7 -6.5 -9.5t-12.5 -2.5q-16 0 -34.5 1t-37.5 2.5t-38 1.5t-38.5 -1.5t-38.5 -2.5t-37 -1q-5 0 -12 3t-7 9q0 9 7.5 12.5t14.5 4.5q25 5 41.5 15.5t16.5 34.5v130q0 7 -7 7q-33 0 -57 1t-51 1q-23 0 -46.5 -1
t-52.5 -1q-7 0 -7 -9v-130q0 -24 16.5 -33.5t40.5 -14.5q8 -1 15 -4.5t7 -11.5q0 -7 -7 -10t-13 -3q-16 0 -34.5 1t-38 2.5t-38.5 1.5t-37.5 -1.5t-36.5 -2.5t-36 -1z" />
  </g>

</svg>
