<?xml version="1.0" standalone="no"?>
<!DOCTYPE svg PUBLIC "-//W3C//DTD SVG 1.1//EN" "http://www.w3.org/Graphics/SVG/1.1/DTD/svg11.dtd" >
<svg xmlns="http://www.w3.org/2000/svg" xmlns:xlink="http://www.w3.org/1999/xlink" version="1.1" viewBox="-10 0 1058 1000">
  <g transform="matrix(1 0 0 -1 0 800)">
   <path fill="currentColor"
d="M80 506h41v-104h-41v104zM80 349h41v-104h-41v104zM80 193h41v-104h-41v104zM80 36h41v-104h-41v104zM856 -184h71v64h41v-105h-112v41zM243 622v41h103v-41h-103zM399 622v41h103v-41h-103zM554 622v41h103v-41h-103zM710 622v41h103v-41h-103zM968 -68h-41v104h41v-104
zM968 89h-41v104h41v-104zM968 245h-41v104h41v-104zM968 402h-41v104h41v-104zM807 -184v-41h-102v41h102zM653 -184v-41h-102v41h102zM499 -184v-41h-101v41h101zM345 -184v-41h-102v41h102zM191 -225h-111v105h41v-64h70v-41zM927 559v63h-71v41h112v-104h-41zM80 559
v104h112v-41h-71v-63h-41zM396 -2q-6 0 -13 3t-7 9q0 8 7.5 12t14.5 5q27 5 43.5 14.5t16.5 33.5v308q0 21 -5.5 25.5t-25.5 4.5h-48q-18 0 -36 -17t-28 -32q-3 -5 -7.5 -11.5t-10.5 -11.5t-12 -5q-4 0 -7 2.5t-3 6.5q0 7 3 15.5t8 30.5t9 65q1 11 6 14t9 3q5 0 10 -3.5
t14 -8.5q10 -5 23.5 -8.5t37.5 -3.5h223q31 0 51.5 5t34.5 10q8 3 14.5 5.5t10.5 2.5q5 0 8 -4t3 -8q0 -29 1.5 -48t2.5 -31t1 -25q0 -3 -3 -13t-10 -9t-11.5 7t-8.5 17q-8 26 -23 40.5t-40 14.5h-61q-13 0 -20.5 -10t-7.5 -20v-308q0 -23 17 -33.5t43 -15.5q7 -1 14 -4.5
t7 -11.5q0 -6 -6.5 -9t-12.5 -3q-17 0 -36.5 1t-39 2.5t-38.5 1.5t-37.5 -1.5t-37.5 -2.5t-37 -1z" />
  </g>

</svg>
