<?xml version="1.0" standalone="no"?>
<!DOCTYPE svg PUBLIC "-//W3C//DTD SVG 1.1//EN" "http://www.w3.org/Graphics/SVG/1.1/DTD/svg11.dtd" >
<svg xmlns="http://www.w3.org/2000/svg" xmlns:xlink="http://www.w3.org/1999/xlink" version="1.1" viewBox="-10 0 1058 1000">
  <g transform="matrix(1 0 0 -1 0 800)">
   <path fill="currentColor"
d="M80 506h41v-104h-41v104zM80 349h41v-104h-41v104zM80 193h41v-104h-41v104zM80 36h41v-104h-41v104zM856 -184h71v64h41v-105h-112v41zM243 622v41h103v-41h-103zM399 622v41h103v-41h-103zM554 622v41h103v-41h-103zM710 622v41h103v-41h-103zM968 -68h-41v104h41v-104
zM968 89h-41v104h41v-104zM968 245h-41v104h41v-104zM968 402h-41v104h41v-104zM807 -184v-41h-102v41h102zM653 -184v-41h-102v41h102zM499 -184v-41h-101v41h101zM345 -184v-41h-102v41h102zM191 -225h-111v105h41v-64h70v-41zM927 559v63h-71v41h112v-104h-41zM80 559
v104h112v-41h-71v-63h-41zM271 -4q-6 0 -13 4t-7 10q0 8 7 11.5t15 4.5q25 5 41.5 15t16.5 34v285q0 27 -11 42t-42 20q-8 2 -15 6.5t-7 11.5t7 10t12 3q18 0 36 -1t36 -2.5t34 -1.5q18 0 34.5 1t33.5 2t35 1q5 0 11.5 -3t6.5 -9q0 -7 -7 -12t-15 -7q-24 -4 -35.5 -20
t-11.5 -43v-104q0 -14 8 -14q7 0 21.5 11.5t31.5 25.5q33 28 57.5 52.5t51.5 54.5q9 12 2.5 20.5t-21.5 14.5q-10 4 -15.5 7.5t-5.5 10.5q0 6 6.5 9t12.5 3q27 0 46 -1t45 -1q28 0 53 3.5t41 3.5q6 0 13.5 -2.5t7.5 -9.5t-7.5 -12t-15.5 -7q-34 -5 -53.5 -14t-44.5 -25
q-18 -12 -41.5 -30.5t-47.5 -38.5t-42 -38q-5 -5 -4 -11t6 -12l138 -156q18 -21 46 -42.5t62 -27.5q9 -1 17 -5t8 -12q0 -7 -8 -10.5t-17 -3.5q-31 0 -68 2t-76 3q-15 0 -22.5 -0.5t-16.5 -1.5t-28 -1q-5 0 -12 3.5t-7 8.5q0 8 6 11.5t14 6.5q16 5 17 15t-8 20l-119 136
q-4 6 -10.5 10.5t-12.5 4.5q-4 0 -6.5 -7t-2.5 -12q0 -31 0.5 -61t0.5 -60q0 -24 8.5 -34t33.5 -15q7 -1 14.5 -4.5t7.5 -11.5q0 -6 -7 -9.5t-13 -3.5q-32 0 -52.5 3t-44.5 3q-28 0 -52 -3.5t-57 -3.5z" />
  </g>

</svg>
