<?xml version="1.0" standalone="no"?>
<!DOCTYPE svg PUBLIC "-//W3C//DTD SVG 1.1//EN" "http://www.w3.org/Graphics/SVG/1.1/DTD/svg11.dtd" >
<svg xmlns="http://www.w3.org/2000/svg" xmlns:xlink="http://www.w3.org/1999/xlink" version="1.1" viewBox="-10 0 1058 1000">
  <g transform="matrix(1 0 0 -1 0 800)">
   <path fill="currentColor"
d="M80 506h41v-104h-41v104zM80 349h41v-104h-41v104zM80 193h41v-104h-41v104zM80 36h41v-104h-41v104zM856 -184h71v64h41v-105h-112v41zM243 622v41h103v-41h-103zM399 622v41h103v-41h-103zM554 622v41h103v-41h-103zM710 622v41h103v-41h-103zM968 -68h-41v104h41v-104
zM968 89h-41v104h41v-104zM968 245h-41v104h41v-104zM968 402h-41v104h41v-104zM807 -184v-41h-102v41h102zM653 -184v-41h-102v41h102zM499 -184v-41h-101v41h101zM345 -184v-41h-102v41h102zM191 -225h-111v105h41v-64h70v-41zM927 559v63h-71v41h112v-104h-41zM80 559
v104h112v-41h-71v-63h-41zM561 -3q-6 0 -12.5 3.5t-6.5 9.5q0 8 6.5 12t14.5 5q28 7 36.5 17.5t0.5 33.5l-15 50q-1 6 -4.5 7.5t-13.5 1.5h-144q-7 0 -10 -3t-6 -9q-10 -22 -14 -34t-5 -23q-2 -19 8 -27.5t32 -13.5q8 -2 14.5 -5.5t6.5 -11.5q0 -6 -6.5 -9.5t-12.5 -3.5
q-20 0 -32.5 1.5t-24 2.5t-28.5 1q-15 0 -25.5 -1t-21 -2.5t-30.5 -1.5q-6 0 -13 3t-7 10q0 8 7 11t14 5q15 3 28 8t24.5 16t21.5 33l116 272q11 25 10.5 38.5t2.5 15.5q7 5 20 14t25.5 18t16.5 12q9 8 15 10.5t9 2.5q4 0 6.5 -4t4.5 -11l134 -358q8 -22 21 -41.5t41 -24.5
q7 -1 14 -5t7 -12q0 -6 -6.5 -9t-12.5 -3q-28 0 -51 2t-49 2q-16 0 -33 -1t-34.5 -2.5t-38.5 -1.5zM444 176h111q8 0 9 2t-1 9q-3 12 -10.5 32.5t-17 43.5t-17 44.5t-12.5 35.5q-3 9 -5.5 9t-6.5 -9q-13 -32 -30.5 -75t-31.5 -81q-2 -6 0.5 -8.5t11.5 -2.5z" />
  </g>

</svg>
