<?xml version="1.0" standalone="no"?>
<!DOCTYPE svg PUBLIC "-//W3C//DTD SVG 1.1//EN" "http://www.w3.org/Graphics/SVG/1.1/DTD/svg11.dtd" >
<svg xmlns="http://www.w3.org/2000/svg" xmlns:xlink="http://www.w3.org/1999/xlink" version="1.1" viewBox="-10 0 1058 1000">
  <g transform="matrix(1 0 0 -1 0 800)">
   <path fill="currentColor"
d="M80 506h41v-104h-41v104zM80 349h41v-104h-41v104zM80 193h41v-104h-41v104zM80 36h41v-104h-41v104zM856 -184h71v64h41v-105h-112v41zM243 622v41h103v-41h-103zM399 622v41h103v-41h-103zM554 622v41h103v-41h-103zM710 622v41h103v-41h-103zM968 -68h-41v104h41v-104
zM968 89h-41v104h41v-104zM968 245h-41v104h41v-104zM968 402h-41v104h41v-104zM807 -184v-41h-102v41h102zM653 -184v-41h-102v41h102zM499 -184v-41h-101v41h101zM345 -184v-41h-102v41h102zM191 -225h-111v105h41v-64h70v-41zM927 559v63h-71v41h112v-104h-41zM80 559
v104h112v-41h-71v-63h-41zM328 -2q-5 0 -12 3t-7 10q0 9 7.5 12.5t13.5 4.5q27 5 43 15t16 34v287q0 26 -12 39t-42 18q-9 2 -15 7t-6 12q0 6 6.5 9.5t11.5 3.5q19 0 36 -1t34 -2.5t33 -1.5t32 1.5t35.5 3t45.5 1.5q51 0 92 -13t65 -41.5t24 -74.5q0 -69 -43.5 -110.5
t-117.5 -41.5q-13 0 -26 5t-13 15q0 6 4 10t11 4t13.5 -1t11.5 -1q24 0 40 28t16 70q0 54 -25.5 87t-64.5 33q-19 0 -31.5 -7.5t-12.5 -24.5v-316q0 -22 17.5 -32t45.5 -15q8 -1 14.5 -4.5t6.5 -12.5q0 -6 -6.5 -9.5t-11.5 -3.5q-18 0 -38.5 1l-41 2t-39.5 1t-37 -1
t-36.5 -2t-36.5 -1z" />
  </g>

</svg>
