<?xml version="1.0" standalone="no"?>
<!DOCTYPE svg PUBLIC "-//W3C//DTD SVG 1.1//EN" "http://www.w3.org/Graphics/SVG/1.1/DTD/svg11.dtd" >
<svg xmlns="http://www.w3.org/2000/svg" xmlns:xlink="http://www.w3.org/1999/xlink" version="1.1" viewBox="-10 0 1058 1000">
  <g transform="matrix(1 0 0 -1 0 800)">
   <path fill="currentColor"
d="M80 506h41v-104h-41v104zM80 349h41v-104h-41v104zM80 193h41v-104h-41v104zM80 36h41v-104h-41v104zM856 -184h71v64h41v-105h-112v41zM243 622v41h103v-41h-103zM399 622v41h103v-41h-103zM554 622v41h103v-41h-103zM710 622v41h103v-41h-103zM968 -68h-41v104h41v-104
zM968 89h-41v104h41v-104zM968 245h-41v104h41v-104zM968 402h-41v104h41v-104zM807 -184v-41h-102v41h102zM653 -184v-41h-102v41h102zM499 -184v-41h-101v41h101zM345 -184v-41h-102v41h102zM191 -225h-111v105h41v-64h70v-41zM927 559v63h-71v41h112v-104h-41zM80 559
v104h112v-41h-71v-63h-41zM412 -4q-6 0 -13 4t-7 9q0 8 7.5 12t15.5 5q26 5 42.5 16.5t16.5 35.5v72q0 17 -2 29t-5.5 21t-9.5 16l-91 146q-12 21 -21.5 31.5t-20.5 16.5t-31 12q-8 2 -15 6t-7 12q0 6 6.5 9t11.5 3q35 0 55.5 -2.5t50.5 -2.5q28 0 49 3t52 3q6 0 13 -3.5
t7 -9.5q0 -7 -7 -11.5t-15 -6.5q-24 -4 -35 -15t4 -34l84 -139q4 -7 6 -7t6 7l75 148q9 16 -1.5 26.5t-25.5 14.5q-9 3 -16 7t-7 11q0 6 7.5 9t12.5 3q19 0 30 -1t21.5 -2.5t27.5 -1.5q18 0 28 1.5t21.5 3t30.5 1.5q6 0 13.5 -3t7.5 -10t-7 -11.5t-14 -5.5q-31 -8 -49 -16.5
t-31 -28.5l-78 -132q-12 -21 -20.5 -40.5t-8.5 -36.5v-91q0 -19 7.5 -28.5t21 -14.5t31.5 -10q7 -1 15 -4.5t8 -11.5q0 -6 -7 -9.5t-13 -3.5q-17 0 -36.5 1.5t-39.5 3t-39 1.5q-18 0 -37 -1.5t-37.5 -3.5t-37.5 -2z" />
  </g>

</svg>
