<?xml version="1.0" standalone="no"?>
<!DOCTYPE svg PUBLIC "-//W3C//DTD SVG 1.1//EN" "http://www.w3.org/Graphics/SVG/1.1/DTD/svg11.dtd" >
<svg xmlns="http://www.w3.org/2000/svg" xmlns:xlink="http://www.w3.org/1999/xlink" version="1.1" viewBox="-10 0 1058 1000">
  <g transform="matrix(1 0 0 -1 0 800)">
   <path fill="currentColor"
d="M80 506h41v-104h-41v104zM80 349h41v-104h-41v104zM80 193h41v-104h-41v104zM80 36h41v-104h-41v104zM856 -184h71v64h41v-105h-112v41zM243 622v41h103v-41h-103zM399 622v41h103v-41h-103zM554 622v41h103v-41h-103zM710 622v41h103v-41h-103zM968 -68h-41v104h41v-104
zM968 89h-41v104h41v-104zM968 245h-41v104h41v-104zM968 402h-41v104h41v-104zM807 -184v-41h-102v41h102zM653 -184v-41h-102v41h102zM499 -184v-41h-101v41h101zM345 -184v-41h-102v41h102zM191 -225h-111v105h41v-64h70v-41zM927 559v63h-71v41h112v-104h-41zM80 559
v104h112v-41h-71v-63h-41zM521 -15q-4 0 -9.5 11.5t-11.5 28.5t-14 33l-132 301q-9 21 -18 32.5t-22 18t-33 12.5q-8 2 -14.5 6.5t-6.5 11.5q0 6 6 9.5t11 3.5q20 0 36 -1t32 -2.5t32 -1.5q17 0 34.5 1.5t36.5 2.5t38 1q7 0 13.5 -3.5t6.5 -9.5q0 -7 -7.5 -11.5t-14.5 -6.5
q-9 -2 -18.5 -8t-10.5 -14q0 -23 12 -50l78 -197q7 -18 10.5 -17t10.5 18l81 199q3 8 6 21.5t3 21.5q0 11 -8.5 17.5t-19.5 8.5q-9 3 -16.5 7.5t-7.5 11.5q0 5 7.5 8.5t13.5 3.5q20 0 30.5 -1t20 -2t25.5 -1t25 1.5t19.5 2.5t27.5 1q6 0 13.5 -3t7.5 -10q0 -8 -7 -12t-15 -6
q-29 -8 -48 -24t-30 -41q-23 -53 -47 -108t-47 -107t-44 -98q-5 -8 -11 -22.5t-12 -26t-12 -11.5z" />
  </g>

</svg>
