<?xml version="1.0" standalone="no"?>
<!DOCTYPE svg PUBLIC "-//W3C//DTD SVG 1.1//EN" "http://www.w3.org/Graphics/SVG/1.1/DTD/svg11.dtd" >
<svg xmlns="http://www.w3.org/2000/svg" xmlns:xlink="http://www.w3.org/1999/xlink" version="1.1" viewBox="-10 0 1058 1000">
  <g transform="matrix(1 0 0 -1 0 800)">
   <path fill="currentColor"
d="M80 506h41v-104h-41v104zM80 349h41v-104h-41v104zM80 193h41v-104h-41v104zM80 36h41v-104h-41v104zM856 -184h71v64h41v-105h-112v41zM243 622v41h103v-41h-103zM399 622v41h103v-41h-103zM554 622v41h103v-41h-103zM710 622v41h103v-41h-103zM968 -68h-41v104h41v-104
zM968 89h-41v104h41v-104zM968 245h-41v104h41v-104zM968 402h-41v104h41v-104zM807 -184v-41h-102v41h102zM653 -184v-41h-102v41h102zM499 -184v-41h-101v41h101zM345 -184v-41h-102v41h102zM191 -225h-111v105h41v-64h70v-41zM927 559v63h-71v41h112v-104h-41zM80 559
v104h112v-41h-71v-63h-41zM353 -2q-6 0 -12.5 3.5t-6.5 9.5q0 8 7 12t15 5q26 5 42 14.5t16 34.5v286q0 26 -11 39.5t-41 18.5q-9 2 -15.5 7t-6.5 12q0 6 7 9.5t13 3.5q17 0 32 -1t30 -2.5t29 -1.5q35 0 72.5 0.5t72 1t61.5 1t41 0.5q4 0 9.5 -2t5.5 -8q1 -25 1.5 -43t1 -30
t0.5 -22q0 -4 -3 -8.5t-7 -4.5t-9.5 3.5t-8.5 13.5q-12 32 -21.5 48t-38.5 16h-79q-15 0 -24 -6t-9 -23v-117q0 -12 6 -17.5t17 -5.5h63q16 0 23.5 10.5t14.5 29.5q3 7 7 11.5t9 4.5q6 0 9 -5t2 -11q-1 -14 -2 -30t-1 -29q0 -14 1.5 -27t2.5 -27q0 -10 -2.5 -15t-7.5 -5
t-9.5 5t-8.5 17q-5 19 -14.5 25t-19.5 8q-14 2 -23 2.5t-23 0.5q-16 0 -30.5 -4.5t-14.5 -18.5l1 -110q0 -19 14 -30.5t44 -17.5q8 -1 14.5 -5.5t6.5 -12.5q0 -6 -6.5 -9.5t-11.5 -3.5q-14 0 -28.5 0.5t-28.5 1t-28 1.5t-27 1q-16 0 -35.5 -1l-39 -2t-37.5 -1z" />
  </g>

</svg>
