<?xml version="1.0" standalone="no"?>
<!DOCTYPE svg PUBLIC "-//W3C//DTD SVG 1.1//EN" "http://www.w3.org/Graphics/SVG/1.1/DTD/svg11.dtd" >
<svg xmlns="http://www.w3.org/2000/svg" xmlns:xlink="http://www.w3.org/1999/xlink" version="1.1" viewBox="-10 0 667 1000">
  <g transform="matrix(1 0 0 -1 0 800)">
   <path fill="currentColor"
d="M302 -13q-70 0 -113.5 25.5t-64 71.5t-20.5 106v165q0 17 -5 31t-16 24t-31 13q-9 2 -15.5 6.5t-6.5 11.5q0 5 7 8.5t12 3.5q29 0 54.5 -2.5t51.5 -2.5q18 0 34 1.5t34 2.5t37 1q6 0 12.5 -3t6.5 -9q0 -8 -10 -13.5t-19 -8.5q-26 -5 -35 -21t-9 -45v-150
q0 -81 31.5 -119.5t90.5 -38.5q37 0 65.5 15t45 49t16.5 91v140q0 28 -3.5 43.5t-13.5 24t-30 13.5l-18 8t-9 12q0 6 7 9t14 3q21 0 30.5 -0.5t18.5 -1.5t26 -1h70q19 0 28 13.5t9 20.5q0 9 -7.5 13.5t-16.5 8.5q-9 5 -17.5 11.5t-8.5 17.5t11.5 24t27.5 23t31 10
q11 0 20.5 -12t16 -28.5t6.5 -30.5q0 -29 -15.5 -50t-39.5 -35t-52 -22q-21 -7 -29 -22t-8 -44v-129q0 -60 -22 -113.5t-66 -86t-113 -32.5z" />
  </g>

</svg>
