<?xml version="1.0" standalone="no"?>
<!DOCTYPE svg PUBLIC "-//W3C//DTD SVG 1.1//EN" "http://www.w3.org/Graphics/SVG/1.1/DTD/svg11.dtd" >
<svg xmlns="http://www.w3.org/2000/svg" xmlns:xlink="http://www.w3.org/1999/xlink" version="1.1" viewBox="-10 0 822 1000">
  <g transform="matrix(1 0 0 -1 0 800)">
   <path fill="currentColor"
d="M43 -3q-9 0 -14.5 3t-5.5 9q0 8 6.5 11.5t16.5 6.5q15 5 28 13.5t13 28.5v283q-10 0 -23 0.5t-29 1.5q-4 1 -9 8.5t-5 13.5q0 2 3 4t5 3q20 6 31.5 12t26.5 13q2 70 25 119.5t58.5 80t75 45t74.5 14.5q60 0 94 -21t34 -43q0 -18 -13.5 -31.5t-29.5 -13.5q-9 0 -16.5 7.5
l-17.5 17.5q-13 14 -33.5 26.5t-53.5 12.5q-47 0 -76 -43t-29 -137v-13q0 -13 7.5 -17.5t17.5 -4.5h191q4 0 4 -11q0 -8 -2 -18t-4.5 -17.5t-6.5 -7.5h-167q-27 0 -33.5 -5.5t-6.5 -13.5v-264q0 -19 14 -29t32 -14q10 -2 16 -6t6 -12q0 -6 -5 -9t-14 -3q-20 0 -34.5 1.5
t-27.5 2.5t-31 1q-17 0 -30.5 -1t-27.5 -2.5t-34 -1.5zM317 -3q-5 0 -12.5 2t-7.5 9q0 8 7.5 12t15.5 7q15 5 28 12.5t13 29.5v283q-10 0 -25.5 0.5t-31.5 1.5q-4 1 -7.5 9t-3.5 14q0 4 5 6q20 6 34.5 12t28.5 13q2 87 27.5 144.5t64 91.5t79.5 48t76 14q18 0 34.5 -2.5
t31.5 -9.5q6 -3 11.5 -3t11.5 2q7 4 12.5 6t11.5 4q4 1 8 1t5.5 -1.5t1.5 -6.5q0 -8 -2.5 -34t-3.5 -78l1 -515q0 -22 12.5 -29.5t27.5 -12.5q9 -3 16 -7t7 -12q0 -6 -6.5 -8t-13.5 -2q-20 0 -34 1t-26.5 2t-30.5 1q-17 0 -29.5 -1t-26 -2.5t-33.5 -1.5q-7 0 -13.5 2t-6.5 9
q0 8 7 11.5t16 7.5q15 5 28.5 12.5t13.5 29.5v271q0 7 -4.5 11t-12.5 4h-129q-28 0 -34 -6.5t-6 -15.5v-263q0 -21 14.5 -29.5t31.5 -13.5q8 -3 15 -7t7 -12q0 -6 -6.5 -8.5t-12.5 -2.5q-20 0 -34.5 1.5t-28 2.5t-31.5 1q-17 0 -30 -1t-27 -2.5t-34 -1.5zM478 407h147
q7 0 10.5 3t3.5 10v145q0 19 -3.5 41.5t-16.5 38.5t-43 16q-31 0 -59.5 -18.5t-46 -59t-17.5 -106.5v-50q0 -12 7.5 -16t17.5 -4z" />
  </g>

</svg>
