<?xml version="1.0" standalone="no"?>
<!DOCTYPE svg PUBLIC "-//W3C//DTD SVG 1.1//EN" "http://www.w3.org/Graphics/SVG/1.1/DTD/svg11.dtd" >
<svg xmlns="http://www.w3.org/2000/svg" xmlns:xlink="http://www.w3.org/1999/xlink" version="1.1" viewBox="-10 0 479 1000">
  <g transform="matrix(1 0 0 -1 0 800)">
   <path fill="currentColor"
d="M231 -14q-42 0 -75 16.5t-51 45.5t-18 66q0 34 14 68t40 64t62 48q3 2 3 4t-4 2q-43 0 -79.5 17t-59 46.5t-22.5 66.5q0 45 25.5 87t68 75t94.5 52t105 19q20 0 44 -6.5t41 -17t17 -23.5q0 -19 -7 -37t-25 -18q-10 0 -16.5 3.5t-13.5 10.5q-17 18 -36.5 32t-47.5 14
q-38 0 -70 -19.5t-51.5 -52.5t-19.5 -74q0 -58 26.5 -87.5t79.5 -29.5q16 0 32.5 3t28.5 11q5 3 8 4.5t7 1.5q5 0 9 -3.5t4 -8.5q0 -12 -10 -23t-23 -17q-14 -6 -34.5 -23.5t-41 -42t-34 -53.5t-13.5 -58q0 -42 26.5 -68t67.5 -26q33 0 55.5 10.5t36.5 25.5t23 29
q8 11 13.5 19t10.5 8q6 0 8.5 -6.5t2.5 -14.5q0 -19 -13.5 -43t-40 -46.5t-63.5 -36.5t-84 -14z" />
  </g>

</svg>
