<?xml version="1.0" standalone="no"?>
<!DOCTYPE svg PUBLIC "-//W3C//DTD SVG 1.1//EN" "http://www.w3.org/Graphics/SVG/1.1/DTD/svg11.dtd" >
<svg xmlns="http://www.w3.org/2000/svg" xmlns:xlink="http://www.w3.org/1999/xlink" version="1.1" viewBox="-10 0 597 1000">
  <g transform="matrix(1 0 0 -1 0 800)">
   <path fill="currentColor"
d="M293 -285q-15 0 -44.5 3t-57.5 18q-13 7 -17 20.5t-4 30.5q0 10 4 20t13 10q4 0 12 -7.5t22.5 -16t36.5 -9.5q14 -7 28.5 -12.5t31 -6.5t33.5 4q30 13 53 36.5t36.5 57t13.5 74.5t-10.5 78.5t-35 61.5t-64.5 24q-33 0 -58 -5.5t-34 -5.5t-8 7t1 8q2 5 8 16.5t13 22.5
l138 213q2 3 2 6.5t-12 3.5h-181q-20 0 -29 -5t-9 -13v-233q0 -35 9.5 -58t37.5 -23t40.5 5.5t22.5 11.5q2 1 4.5 3t4.5 2q5 0 7 -5t2 -11q0 -7 -17 -21t-43.5 -25.5t-56.5 -11.5q-48 0 -76.5 30t-28.5 76v251q0 10 -5.5 12.5t-17.5 2.5h-14q-4 0 -8 8.5t-4 14.5t4 7
q22 9 41 22.5t35 29t27 29.5q5 5 14.5 8.5t17.5 3.5q6 0 8.5 -1.5t2.5 -6.5l-7 -47q-1 -9 6 -12.5t17 -3.5h47h57.5h61.5q47 0 88 2t72 2q5 0 7.5 -4t3.5 -9t-1 -8q-8 -13 -15.5 -24t-17.5 -27q-24 -36 -43 -65.5t-36.5 -59t-39.5 -67.5q-4 -7 -0.5 -10t9.5 -3q5 0 10.5 1
t7.5 1q44 0 76.5 -23t51 -60.5t18.5 -80.5q0 -37 -16.5 -72t-41.5 -65t-53 -53t-52 -36q-26 -14 -51.5 -22t-47.5 -9z" />
  </g>

</svg>
