<?xml version="1.0" standalone="no"?>
<!DOCTYPE svg PUBLIC "-//W3C//DTD SVG 1.1//EN" "http://www.w3.org/Graphics/SVG/1.1/DTD/svg11.dtd" >
<svg xmlns="http://www.w3.org/2000/svg" xmlns:xlink="http://www.w3.org/1999/xlink" version="1.1" viewBox="-10 0 534 1000">
  <g transform="matrix(1 0 0 -1 0 800)">
   <path fill="currentColor"
d="M473 -4q11 0 18 2.5t7 9.5q0 13 -29 19q-38 7 -52 22t-14 50v431q0 42 11.5 63t48.5 28q16 3 23 8t7 12q0 6 -7.5 9.5t-18.5 3.5q-33 0 -58.5 -1t-50.5 -2t-55 -1h-71h-73t-62.5 5t-46.5 5q-6 0 -13 -2.5t-8 -9.5q-2 -15 -3 -38t-1.5 -44t-0.5 -31q0 -21 10 -21q5 0 10 4
t7 10q5 19 11.5 34t15.5 25q14 15 31 20.5t38 5.5h109q24 0 32 -14t9 -35v-44.5v-49.5v-50v-46q0 -9 -3.5 -15.5t-11.5 -6.5q-29 0 -59.5 1t-49.5 1q-24 0 -38.5 13t-21.5 32q-3 5 -9 11t-10 6q-5 0 -9.5 -5t-3.5 -13q1 -19 2.5 -33.5t1.5 -27.5q0 -17 -1 -31.5t-3 -36.5
q0 -10 2 -15.5t8 -5.5q9 0 15 8.5t8 15.5q7 25 20.5 34t27.5 9q12 0 24.5 0.5t24.5 0.5h31.5t31.5 -1q10 -1 16.5 -6.5t6.5 -18.5q0 -45 -0.5 -93t-2.5 -97q-1 -32 -15.5 -49t-53.5 -24q-15 -3 -22 -7t-7 -12q0 -6 7 -9t18 -3q26 0 45.5 1.5t36.5 3t37 1.5q22 0 43 -1.5
t42.5 -3t47.5 -1.5z" />
  </g>

</svg>
