<?xml version="1.0" standalone="no"?>
<!DOCTYPE svg PUBLIC "-//W3C//DTD SVG 1.1//EN" "http://www.w3.org/Graphics/SVG/1.1/DTD/svg11.dtd" >
<svg xmlns="http://www.w3.org/2000/svg" xmlns:xlink="http://www.w3.org/1999/xlink" version="1.1" viewBox="-10 0 665 1000">
  <g transform="matrix(1 0 0 -1 0 800)">
   <path fill="currentColor"
d="M205 -287q-10 0 -19 3t-9 9q0 7 5 11.5t9 6.5q17 6 33 19t29 42q11 21 17 52t8.5 63.5t3.5 58t1 35.5v11q0 5 -6.5 7t-9.5 2q-38 0 -73 -1t-72.5 -1.5t-82.5 -1.5q-6 0 -13.5 3t-7.5 8q0 3 4.5 11t12.5 17q36 45 80.5 104.5t94.5 127t104 135.5q12 16 22.5 29t20.5 13
t16 -8.5t6 -19.5q0 -66 -0.5 -120.5t-1.5 -109t-1 -120.5q0 -6 5 -6q10 -1 21.5 -1h19.5q13 0 27 0.5t29 1.5q11 0 11 -7q0 -8 -3.5 -20t-8.5 -21t-9 -9q-10 0 -22.5 0.5t-23.5 0.5q-8 0 -17.5 -0.5t-15.5 -1.5q-4 -1 -8 -3t-4 -3l-1 -14q0 -4 -1 -28.5t-8 -62t-23 -77.5
q-13 -34 -37.5 -65t-52 -50.5t-49.5 -19.5zM117 93h154q4 0 8 2.5t4 5.5l-2 211q0 6 -4 7t-7 -4q-28 -38 -52.5 -71.5l-49 -67t-52.5 -74.5q-1 -2 -1.5 -5.5t2.5 -3.5zM462 -278q-20 0 -20 13q0 5 4 8.5t12 4.5q24 6 45 18t34.5 32.5t13.5 51.5q0 14 -11.5 28t-28.5 16
q-20 3 -32.5 15.5t-12.5 31.5q0 22 18 37t42 15q39 0 64 -28t25 -71q0 -39 -15 -70.5t-38.5 -54.5t-50 -35t-49.5 -12z" />
  </g>

</svg>
