<?xml version="1.0" standalone="no"?>
<!DOCTYPE svg PUBLIC "-//W3C//DTD SVG 1.1//EN" "http://www.w3.org/Graphics/SVG/1.1/DTD/svg11.dtd" >
<svg xmlns="http://www.w3.org/2000/svg" xmlns:xlink="http://www.w3.org/1999/xlink" version="1.1" viewBox="-10 0 533 1000">
  <g transform="matrix(1 0 0 -1 0 800)">
   <path fill="currentColor"
d="M272 -285q-21 0 -34.5 15.5t-13.5 34.5q0 18 6 68.5t11 135.5q-24 3 -46 10t-42 17q-27 16 -55.5 48.5t-47.5 74t-19 85.5q0 60 26.5 109.5t74 83t108.5 40.5q-2 52 -3.5 84t-1.5 49q0 22 3.5 34t22.5 12q26 0 33.5 -17.5t7.5 -45.5q0 -7 -1 -20.5t-2.5 -36.5t-3.5 -60
q56 -8 101 -41.5t70.5 -83t25.5 -107.5q0 -33 -14.5 -73.5t-39 -76t-54.5 -54.5q-20 -12 -45 -19.5t-50 -9.5q2 -66 4.5 -114.5t4.5 -75t2 -27.5q0 -16 -5 -27.5t-23 -11.5zM244 56q1 22 1 48.5v50.5l-1 122v41.5v38.5q-48 -6 -86.5 -33.5t-60.5 -66.5t-22 -82
q0 -36 24.5 -62t63 -40.5t81.5 -16.5zM287 57q42 3 78.5 18.5t59.5 42t23 61.5q0 42 -20.5 79.5t-56 64.5t-80.5 34q-1 -16 -1 -39t-1 -42l-1 -121q-1 -24 -1 -49v-49z" />
  </g>

</svg>
