<?xml version="1.0" standalone="no"?>
<!DOCTYPE svg PUBLIC "-//W3C//DTD SVG 1.1//EN" "http://www.w3.org/Graphics/SVG/1.1/DTD/svg11.dtd" >
<svg xmlns="http://www.w3.org/2000/svg" xmlns:xlink="http://www.w3.org/1999/xlink" version="1.1" viewBox="-10 0 418 1000">
  <g transform="matrix(1 0 0 -1 0 800)">
   <path fill="currentColor"
d="M181 -14q-51 0 -85.5 18.5t-53 46.5t-18.5 55q0 29 11.5 44.5t32 21.5t45.5 6h157q12 0 16 6.5t4 30.5q0 37 -15 67t-41.5 47.5t-63.5 17.5q-33 0 -61 -12t-46 -33q-4 -3 -8.5 -5t-6.5 -2q-6 0 -9.5 5t-3.5 13q0 18 21.5 43.5t60.5 45t90 19.5q50 0 89 -27t62 -72
t23 -101q0 -60 -26.5 -114t-71.5 -87.5t-102 -33.5zM191 20q24 0 43 14.5t31.5 37t14.5 47.5q1 10 0 17.5t-10 7.5h-77q-21 0 -37 -1t-31 -4q-4 -1 -7 -10.5t-3.5 -20.5t-0.5 -16q0 -16 9.5 -32.5t27 -28t40.5 -11.5z" />
  </g>

</svg>
