<?xml version="1.0" standalone="no"?>
<!DOCTYPE svg PUBLIC "-//W3C//DTD SVG 1.1//EN" "http://www.w3.org/Graphics/SVG/1.1/DTD/svg11.dtd" >
<svg xmlns="http://www.w3.org/2000/svg" xmlns:xlink="http://www.w3.org/1999/xlink" version="1.1" viewBox="-158 0 315 1000">
  <g transform="matrix(1 0 0 -1 0 800)">
   <path fill="currentColor"
d="M1 692q-54 0 -86.5 16t-47.5 40t-15 48q0 31 15 50.5t39 19.5q23 0 35.5 -10.5t12.5 -27.5q0 -7 -1 -14.5t-4 -14.5l-4 -12t-2 -11q0 -14 15.5 -26t47.5 -12q52 0 78.5 27t37.5 70q3 9 7.5 13t7.5 4q6 0 8 -6t2 -13q0 -38 -19 -70t-52 -51.5t-75 -19.5z" />
  </g>

</svg>
