<?xml version="1.0" standalone="no"?>
<!DOCTYPE svg PUBLIC "-//W3C//DTD SVG 1.1//EN" "http://www.w3.org/Graphics/SVG/1.1/DTD/svg11.dtd" >
<svg xmlns="http://www.w3.org/2000/svg" xmlns:xlink="http://www.w3.org/1999/xlink" version="1.1" viewBox="-10 0 849 1000">
  <g transform="matrix(1 0 0 -1 0 800)">
   <path fill="currentColor"
d="M713 -291q-44 0 -79.5 25.5t-60 67.5t-38 91.5t-13.5 98.5v9q0 16 -9 16t-21 -6q-21 -10 -59.5 -18t-89.5 -8q-87 0 -155.5 41.5t-108.5 113t-40 162.5q0 73 25 138t70.5 115t107.5 79t137 29q16 0 40.5 -3.5t50.5 -9t46 -11.5t28 -9q9 -4 18.5 2t20 15t20 16.5t15.5 7.5
q7 0 8.5 -13t1.5 -29v-718q0 -78 15.5 -119t48.5 -41q13 0 23 9.5t25 27.5q11 13 22 18.5t24 5.5t28 -16t15 -35q0 -52 -116 -52zM375 24q19 0 43.5 8t48.5 21.5t39.5 31.5t15.5 36v398q0 27 -21 51.5t-55.5 39.5t-77.5 15q-52 0 -90 -26t-63.5 -69.5t-38.5 -96.5t-13 -107
q0 -55 13 -108.5t38.5 -97.5t66 -70t94.5 -26z" />
  </g>

</svg>
