<?xml version="1.0" standalone="no"?>
<!DOCTYPE svg PUBLIC "-//W3C//DTD SVG 1.1//EN" "http://www.w3.org/Graphics/SVG/1.1/DTD/svg11.dtd" >
<svg xmlns="http://www.w3.org/2000/svg" xmlns:xlink="http://www.w3.org/1999/xlink" version="1.1" viewBox="-10 0 678 1000">
  <g transform="matrix(1 0 0 -1 0 800)">
   <path fill="currentColor"
d="M49 0q-10 0 -15 6.5t-5 16.5q0 6 3 15l239 517q8 18 10.5 28.5t4.5 17.5q7 7 12.5 15t12.5 11q12 4 20.5 9.5t16.5 10.5q9 4 15.5 14t10.5 8t6 -6.5t4 -11.5l227 -615q2 -5 2 -11q0 -9 -5 -17t-13 -8h-546zM149 57h314q17 0 17 12q0 7 -4.5 20t-11.5 31l-140 413
q-5 17 -8 17q-2 0 -10 -16l-183 -429q-4 -10 -6.5 -17t-2.5 -12q0 -13 10.5 -16t24.5 -3z" />
  </g>

</svg>
