<?xml version="1.0" standalone="no"?>
<!DOCTYPE svg PUBLIC "-//W3C//DTD SVG 1.1//EN" "http://www.w3.org/Graphics/SVG/1.1/DTD/svg11.dtd" >
<svg xmlns="http://www.w3.org/2000/svg" xmlns:xlink="http://www.w3.org/1999/xlink" version="1.1" viewBox="-10 0 434 1000">
  <g transform="matrix(1 0 0 -1 0 800)">
   <path fill="currentColor"
d="M121 -14q-21 0 -41 13.5t-33 34t-13 40.5q0 33 18.5 53t57.5 36l97 41q20 8 24 14.5t5 26.5l2 61q1 27 -13 45t-41 18q-14 0 -28.5 -5.5t-23.5 -12.5q-5 -4 -6.5 -11t-1.5 -15q0 -5 0.5 -11.5t0.5 -10.5q0 -6 -13.5 -14.5t-31 -15.5t-29.5 -7q-6 0 -9.5 3.5t-3.5 9.5
q0 16 10.5 33.5t31.5 35.5q24 21 52.5 37.5t56 25.5t48.5 9q42 0 68.5 -28.5t24.5 -73.5l-5 -226q-1 -22 9 -36t25 -14q23 0 36 12q4 4 7 4q5 0 8.5 -3t3.5 -8q0 -12 -14 -25q-17 -17 -36.5 -26.5t-37.5 -9.5q-50 0 -80 54h-3q-33 -28 -62 -41t-60 -13zM173 40
q17 0 28.5 5.5t20.5 15.5q5 5 7.5 12.5t3.5 23.5l2 57q1 10 -1 14.5t-8 4.5q-2 0 -6 -1t-11 -4q-45 -17 -63 -35.5t-18 -40.5q0 -27 14.5 -39.5t30.5 -12.5z" />
  </g>

</svg>
