<?xml version="1.0" standalone="no"?>
<!DOCTYPE svg PUBLIC "-//W3C//DTD SVG 1.1//EN" "http://www.w3.org/Graphics/SVG/1.1/DTD/svg11.dtd" >
<svg xmlns="http://www.w3.org/2000/svg" xmlns:xlink="http://www.w3.org/1999/xlink" version="1.1" viewBox="-10 0 702 1000">
  <g transform="matrix(1 0 0 -1 0 800)">
   <path fill="currentColor"
d="M628 -205q-14 0 -19 13.5t-5 29.5v31.5v27.5q0 49 -10 66t-34 20q-43 5 -70.5 29t-47 60t-38.5 76l-48 96q-15 32 -33.5 52t-35.5 24q-12 2 -22.5 2.5t-20.5 0.5q-12 0 -12 -18l1 -198q0 -21 6 -37t20 -26.5t39 -16.5q15 -3 23 -7t8 -12q0 -6 -8 -9.5t-21 -3.5
q-28 0 -45.5 2t-31.5 4t-34 2q-22 0 -41 -2t-39 -4t-50 -2q-12 0 -20 3t-8 10q0 13 30 19q38 7 51.5 22.5t13.5 50.5v451q0 34 -14 48t-52 22q-29 6 -29 20q0 7 7 10t18 3q26 0 46.5 -1t39.5 -2t41 -1q19 0 34.5 0.5t33 1.5t42.5 1q12 0 18.5 -2.5t6.5 -9.5q0 -8 -7 -12.5
t-21 -7.5q-39 -9 -48.5 -25t-9.5 -45v-175q0 -18 14 -18h25q45 0 76.5 30t49.5 76l37 94q12 28 27.5 52t41 38.5t63.5 14.5q36 0 48 -16.5t12 -39.5q0 -24 -12.5 -38.5t-30.5 -14.5q-16 0 -32.5 8.5t-30.5 8.5q-17 0 -30.5 -9.5t-25.5 -40.5l-33 -79q-8 -21 -18.5 -38
t-23.5 -29q-5 -6 -4.5 -11.5t3.5 -9.5q16 -8 29 -25t27 -43l60 -106q23 -41 45 -73t48 -51.5t57 -24.5q15 -2 21.5 -8.5t6.5 -13.5q0 -12 -5.5 -37t-11.5 -61t-9 -80q-1 -16 -8.5 -26t-19.5 -10z" />
  </g>

</svg>
