<?xml version="1.0" standalone="no"?>
<!DOCTYPE svg PUBLIC "-//W3C//DTD SVG 1.1//EN" "http://www.w3.org/Graphics/SVG/1.1/DTD/svg11.dtd" >
<svg xmlns="http://www.w3.org/2000/svg" xmlns:xlink="http://www.w3.org/1999/xlink" version="1.1" viewBox="-10 0 498 1000">
  <g transform="matrix(1 0 0 -1 0 800)">
   <path fill="currentColor"
d="M38 -2q-9 0 -12 3.5t-3 8.5q0 4 6 8t10 5q16 4 26 7t15 12.5t5 30.5v213q0 24 -9.5 43t-32.5 24q-4 1 -8 4.5t-4 9.5q0 5 3.5 9t7.5 5q36 9 68.5 24.5t51.5 26.5q5 3 8.5 5t5.5 2q4 0 6 -2.5t2 -4.5q-2 -25 -4.5 -56t-3.5 -70v-79q0 -13 10 -13q16 0 34.5 2.5t38.5 10.5
q11 5 17 11.5t12 15.5q13 18 24.5 38.5t19.5 39.5t8 29q0 9 -7 13t-17 7q-7 1 -12.5 5t-5.5 10q0 7 7.5 9t13.5 2h57q18 0 33 1.5t28 3t23 1.5q5 0 11.5 -2t6.5 -8q0 -7 -7 -11.5t-16 -7.5q-15 -4 -37 -20t-37 -40q-18 -25 -33 -52t-28 -52q-3 -5 0 -9.5t5 -5.5
q28 -10 48 -34t20 -53q0 -55 -46.5 -87.5t-127.5 -32.5q-3 0 -19.5 1.5t-37 2.5t-36.5 0q-15 0 -34 -1t-34.5 -2t-19.5 -1zM225 27q38 0 56.5 23t18.5 58q0 41 -24.5 59.5t-68.5 18.5q-3 0 -10.5 -1.5t-14 -7t-6.5 -16.5v-99q0 -16 12 -25.5t37 -9.5z" />
  </g>

</svg>
