<?xml version="1.0" standalone="no"?>
<!DOCTYPE svg PUBLIC "-//W3C//DTD SVG 1.1//EN" "http://www.w3.org/Graphics/SVG/1.1/DTD/svg11.dtd" >
<svg xmlns="http://www.w3.org/2000/svg" xmlns:xlink="http://www.w3.org/1999/xlink" version="1.1" viewBox="-10 0 287 1000">
  <g transform="matrix(1 0 0 -1 0 800)">
   <path fill="currentColor"
d="M169 -14q-37 0 -63 26.5t-26 63.5v204q0 30 -10.5 48t-35.5 23q-4 1 -6.5 5.5t-2.5 9.5q0 11 8 13q43 10 75.5 26.5t48.5 26.5q6 3 10.5 5t5.5 2q9 0 9 -8q-3 -30 -6.5 -67t-3.5 -72v-207q-1 -17 10 -32t24 -15q20 0 29 6t15 13q5 6 11 1.5t6 -10.5q0 -4 -11 -19.5
t-32 -29t-55 -13.5z" />
  </g>

</svg>
