<?xml version="1.0" standalone="no"?>
<!DOCTYPE svg PUBLIC "-//W3C//DTD SVG 1.1//EN" "http://www.w3.org/Graphics/SVG/1.1/DTD/svg11.dtd" >
<svg xmlns="http://www.w3.org/2000/svg" xmlns:xlink="http://www.w3.org/1999/xlink" version="1.1" viewBox="-10 0 503 1000">
  <g transform="matrix(1 0 0 -1 0 800)">
   <path fill="currentColor"
d="M246 -288q-33 0 -59.5 16t-41 43.5t-14.5 58.5q0 36 10 66.5t25 57.5t27 50l24 40l-142 286q-10 19 -20.5 33t-27.5 19q-8 4 -14.5 8.5t-6.5 11.5q0 6 8 7.5t13 1.5q22 0 33.5 -1t22 -2t26.5 -1q19 0 30 1t23.5 2t33.5 1q5 0 13 -1.5t8 -8.5t-8 -11.5t-15 -6.5
q-11 -4 -20 -11.5t-9 -22.5q0 -8 5 -19.5t9 -20.5l87 -175q2 -4 4 0l78 166q4 9 7.5 21.5t3.5 21.5q0 17 -9 26t-22 14q-8 3 -15.5 7t-7.5 11t8 8.5t13 1.5q17 0 34 -2t39 -2t33 2t30 2q5 0 13 -1.5t8 -7.5q0 -7 -6.5 -11.5t-14.5 -8.5q-16 -5 -31.5 -23.5t-26.5 -41.5
l-112 -232l36 -68q9 -16 21 -45.5t21.5 -61.5t9.5 -56q0 -37 -16.5 -69.5t-46 -52.5t-71.5 -20zM245 -250q28 0 39 25t11 51q0 40 -14 75t-27 62l-14 26l-12 -25q-4 -9 -14.5 -28t-19 -44t-8.5 -50q0 -22 5.5 -43t18.5 -35t35 -14z" />
  </g>

</svg>
