<?xml version="1.0" standalone="no"?>
<!DOCTYPE svg PUBLIC "-//W3C//DTD SVG 1.1//EN" "http://www.w3.org/Graphics/SVG/1.1/DTD/svg11.dtd" >
<svg xmlns="http://www.w3.org/2000/svg" xmlns:xlink="http://www.w3.org/1999/xlink" version="1.1" viewBox="-10 0 694 1000">
  <g transform="matrix(1 0 0 -1 0 800)">
   <path fill="currentColor"
d="M327 -16q-4 0 -9.5 10t-10.5 24.5t-11 27.5q-9 23 -16.5 42.5t-14.5 38.5t-15 39l-142 365q-12 32 -31.5 56.5t-46.5 31.5q-14 5 -22 9.5t-8 12.5q0 7 7.5 9.5t18.5 2.5q18 0 39.5 -1t45.5 -1.5t46 -0.5q20 0 42.5 1t43.5 1.5t35 0.5q11 0 19.5 -3t8.5 -9q0 -8 -8.5 -13
t-22.5 -8q-26 -5 -44 -13t-18 -32q0 -6 1.5 -13t4.5 -16l128 -346q7 -22 14 -22t15 22l103 301q19 57 37.5 90.5t35.5 49.5t33 21t32 5q29 0 43 -13.5t14 -34.5q0 -20 -17 -41q-36 2 -60.5 -7t-42 -31.5t-34.5 -63.5q-15 -38 -30.5 -81.5t-31.5 -92.5t-37 -104
q-8 -24 -17 -48t-18 -49t-22 -54q-5 -14 -12 -28.5t-13 -24.5t-12 -10z" />
  </g>

</svg>
