<?xml version="1.0" standalone="no"?>
<!DOCTYPE svg PUBLIC "-//W3C//DTD SVG 1.1//EN" "http://www.w3.org/Graphics/SVG/1.1/DTD/svg11.dtd" >
<svg xmlns="http://www.w3.org/2000/svg" xmlns:xlink="http://www.w3.org/1999/xlink" version="1.1" viewBox="-84 0 613 1000">
  <g transform="matrix(1 0 0 -1 0 800)">
   <path fill="currentColor"
d="M42 -200q-116 0 -116 52q0 18 15.5 34.5t28.5 16.5q12 0 23.5 -5.5t21.5 -18.5q15 -19 25 -28.5t23 -9.5q33 0 48 41.5t15 119.5v528q0 42 -12 62.5t-49 28.5q-15 3 -22 8t-7 12q0 6 7 9.5t19 3.5q33 0 58.5 -1t50.5 -2t55 -1h70.5h72.5t63 5t47 5q6 0 12.5 -2.5
t7.5 -9.5q2 -15 3 -39t1.5 -46t0.5 -32q0 -21 -10 -21q-5 0 -10 3.5t-7 9.5q-5 20 -11.5 35t-15.5 24q-14 15 -31 21t-38 6h-108q-24 0 -32 -14t-9 -35q-1 -18 -1 -42.5v-47.5v-48.5t1 -43.5q0 -10 3 -16.5t12 -6.5q29 0 59 1t50 1q23 0 37.5 12.5t22.5 31.5q3 5 8.5 11
t10.5 6q4 0 9 -5t4 -13q-2 -19 -3 -34t-1 -29q0 -17 1 -33t2 -38q1 -9 -1 -14.5t-8 -5.5q-9 0 -15 8.5t-8 14.5q-8 26 -21 34.5t-27 8.5q-13 0 -25.5 0.5t-23.5 0.5q-16 0 -32 -0.5t-31 -0.5q-11 -1 -17.5 -6.5t-6.5 -18.5l3 -175q0 -74 -20 -141.5t-56 -110.5
q-23 -29 -52.5 -44.5t-63.5 -15.5z" />
  </g>

</svg>
