<?xml version="1.0" standalone="no"?>
<!DOCTYPE svg PUBLIC "-//W3C//DTD SVG 1.1//EN" "http://www.w3.org/Graphics/SVG/1.1/DTD/svg11.dtd" >
<svg xmlns="http://www.w3.org/2000/svg" xmlns:xlink="http://www.w3.org/1999/xlink" version="1.1" viewBox="-10 0 462 1000">
  <g transform="matrix(1 0 0 -1 0 800)">
   <path fill="currentColor"
d="M51 289q-4 0 -9 5.5t-5 10.5v189q0 9 7 20.5t20 11.5h336q6 0 10.5 -3t4.5 -9v-197q0 -10 -8.5 -16t-18 -9t-14.5 -3t-9.5 5.5t-4.5 10.5v156h-268v-144q0 -10 -8 -16t-17.5 -9t-15.5 -3zM51 -16q-4 0 -9 5t-5 11v188q0 9 7 20.5t20 11.5h336q6 0 10.5 -3t4.5 -8v-198
q0 -9 -8.5 -15t-18 -9t-14.5 -3t-9.5 5t-4.5 11v156h-268v-145q0 -9 -8 -15t-17.5 -9t-15.5 -3z" />
  </g>

</svg>
