<?xml version="1.0" standalone="no"?>
<!DOCTYPE svg PUBLIC "-//W3C//DTD SVG 1.1//EN" "http://www.w3.org/Graphics/SVG/1.1/DTD/svg11.dtd" >
<svg xmlns="http://www.w3.org/2000/svg" xmlns:xlink="http://www.w3.org/1999/xlink" version="1.1" viewBox="-10 0 346 1000">
  <g transform="matrix(1 0 0 -1 0 800)">
   <path fill="currentColor"
d="M184 -14q32 0 60.5 9t49.5 26q7 13 10 41t3 51q0 10 -15 10q-6 0 -10.5 -2.5t-5.5 -6.5q-15 -47 -42 -71t-59 -24q-28 0 -46 18.5t-18 44.5q0 27 19 45.5t58 42.5q32 19 55 37.5t35 41t12 51.5q0 35 -17.5 62t-49.5 43t-77 16q-32 0 -54.5 -6.5t-32.5 -13.5
q-8 -11 -13.5 -36t-5.5 -50q0 -8 13 -8q6 0 12.5 3t8.5 8q13 35 32.5 53t47.5 18q24 0 43 -14.5t19 -41.5q0 -23 -16.5 -40.5t-52.5 -37.5q-60 -33 -88.5 -62.5t-28.5 -78.5q0 -58 41.5 -93t112.5 -35z" />
  </g>

</svg>
