<?xml version="1.0" standalone="no"?>
<!DOCTYPE svg PUBLIC "-//W3C//DTD SVG 1.1//EN" "http://www.w3.org/Graphics/SVG/1.1/DTD/svg11.dtd" >
<svg xmlns="http://www.w3.org/2000/svg" xmlns:xlink="http://www.w3.org/1999/xlink" version="1.1" viewBox="-15 0 472 1000">
  <g transform="matrix(1 0 0 -1 0 800)">
   <path fill="currentColor"
d="M381 691q22 0 41 -12.5t19 -35.5q0 -19 -9 -34t-27 -15q-13 0 -25.5 3.5t-22.5 3.5q-10 -1 -15 -4.5t-10 -12.5q-10 -16 -21.5 -37.5t-24.5 -49.5t-27 -63q-6 -15 -6 -32q0 -10 2 -19t6 -18l118 -288q8 -19 19 -33t28 -19q8 -4 14.5 -8t6.5 -12q0 -6 -8 -7.5t-13 -1.5
q-22 0 -34 1t-22 2t-26 1q-19 0 -30 -1t-23.5 -2t-33.5 -1q-7 0 -14 2.5t-7 8.5q0 8 9 13.5t17 8.5q11 3 16.5 10.5t5.5 23.5q0 7 -3 16t-7 18l-74 183q-2 5 -5 5q-2 0 -4 -5l-63 -173q-3 -7 -5 -18.5t-2 -19.5q0 -18 7 -26.5t16 -12.5q8 -4 17.5 -9.5t9.5 -13.5
q0 -6 -7.5 -8.5t-13.5 -2.5q-18 0 -33 2t-38 2q-16 0 -25 -1t-17 -2t-21 -1q-5 0 -13 1.5t-8 7.5q0 8 6.5 12t14.5 8q16 5 32.5 23t26.5 42l141 336q3 9 12.5 32t22.5 54t27.5 65.5t28.5 66.5q10 23 29.5 35t44.5 12z" />
  </g>

</svg>
