<?xml version="1.0" standalone="no"?>
<!DOCTYPE svg PUBLIC "-//W3C//DTD SVG 1.1//EN" "http://www.w3.org/Graphics/SVG/1.1/DTD/svg11.dtd" >
<svg xmlns="http://www.w3.org/2000/svg" xmlns:xlink="http://www.w3.org/1999/xlink" version="1.1" viewBox="-10 0 702 1000">
  <g transform="matrix(1 0 0 -1 0 800)">
   <path fill="currentColor"
d="M149 -5q-12 0 -19 3t-7 9q0 13 29 19q37 8 55 22.5t18 50.5v378q0 14 -4 21t-19 7h-51q-27 0 -48.5 -12t-33.5 -34q-3 -7 -9 -17.5t-13.5 -19t-16.5 -8.5q-5 0 -7.5 5t-2.5 12q0 5 0.5 9.5t1.5 8.5q6 23 11.5 48.5t7.5 45.5q3 18 9 21.5t10 3.5t21 -12t40 -12h90
q5 0 9.5 3.5t4.5 9.5v23q0 35 -14.5 49.5t-52.5 22.5q-29 5 -29 20q0 6 7 9t18 3q26 0 46.5 -1t39.5 -1.5t41 -0.5q21 0 39.5 0.5t38 1.5t44.5 1q12 0 19 -3t7 -9q0 -8 -7.5 -12.5t-21.5 -7.5q-39 -9 -54 -23.5t-17 -47.5v-22q0 -8 6 -11.5t11 -3.5h170q15 0 27 10t22 10
q11 0 14 -9t3 -14q1 -33 2.5 -58t3.5 -53q1 -8 -2.5 -14.5t-9.5 -6.5q-7 0 -11 6.5t-8 15.5q-12 39 -31.5 56.5t-61.5 17.5h-115q-12 0 -16 -6t-4 -20v-105q0 -13 3 -19.5t10 -6.5q5 0 13 2t17 5q16 4 37.5 7t44.5 3q92 0 147 -46.5t55 -130.5q0 -53 -17 -86t-40.5 -50.5
t-42.5 -27.5q-31 -14 -70.5 -21t-89.5 -7q-8 0 -22.5 1t-36.5 2t-54 1q-24 0 -44.5 -1t-42 -2.5t-47.5 -1.5zM400 30q36 0 68 13.5t51.5 46.5t19.5 90q0 35 -11 60.5t-26 41.5t-27 23q-12 6 -30 14t-52 8q-10 0 -27 -3.5t-23 -7.5q-7 -3 -10 -9t-3 -16v-193q0 -13 2.5 -26
t11.5 -22q8 -7 23.5 -13.5t32.5 -6.5z" />
  </g>

</svg>
