<?xml version="1.0" standalone="no"?>
<!DOCTYPE svg PUBLIC "-//W3C//DTD SVG 1.1//EN" "http://www.w3.org/Graphics/SVG/1.1/DTD/svg11.dtd" >
<svg xmlns="http://www.w3.org/2000/svg" xmlns:xlink="http://www.w3.org/1999/xlink" version="1.1" viewBox="-159 0 542 1000">
  <g transform="matrix(1 0 0 -1 0 800)">
   <path fill="currentColor"
d="M264 -288q-6 0 -12 6t-11 14q-11 16 -37 44t-64 54q-14 -30 -35.5 -57t-52 -43.5t-72.5 -16.5q-33 0 -63 10.5t-48 31t-18 48.5q0 35 23 61t59.5 41t75.5 15q18 0 35 -2.5t34 -9.5q6 42 7.5 86.5t1.5 74.5v386q0 79 29 135t74 86t94 30q19 0 37.5 -3t31.5 -10t17 -19
q4 -10 0.5 -19t-8.5 -13q-5 -11 -16 -18.5t-23 -3.5q-8 1 -14.5 8.5t-13.5 17t-16.5 16t-25.5 6.5q-32 0 -52.5 -44.5t-20.5 -124.5v-408q0 -29 -1.5 -67t-6.5 -78.5t-17 -75.5q37 -25 65 -52.5t43.5 -49t15.5 -30.5q0 -8 -3 -17t-12 -9zM-6 -233q11 0 30.5 8.5t33.5 39.5
q5 9 8 21t6 25q-18 8 -38.5 12.5t-42.5 4.5q-14 0 -31.5 -5t-30.5 -16t-13 -29q0 -25 18.5 -43t59.5 -18z" />
  </g>

</svg>
