<?xml version="1.0" standalone="no"?>
<!DOCTYPE svg PUBLIC "-//W3C//DTD SVG 1.1//EN" "http://www.w3.org/Graphics/SVG/1.1/DTD/svg11.dtd" >
<svg xmlns="http://www.w3.org/2000/svg" xmlns:xlink="http://www.w3.org/1999/xlink" version="1.1" viewBox="-10 0 410 1000">
  <g transform="matrix(1 0 0 -1 0 800)">
   <path fill="currentColor"
d="M212 -15q-54 0 -95.5 27.5t-65.5 77t-24 114.5q0 59 27.5 108t73.5 78.5t101 29.5q41 0 73.5 -16.5t51 -46t18.5 -67.5q0 -33 -31 -33h-207q-14 0 -20 -8t-6 -29q0 -44 20 -80.5t53 -58.5t73 -22q30 0 54.5 11.5t45.5 32.5q3 4 5.5 6t5.5 2q9 0 9 -11q0 -16 -14 -38
q-14 -21 -35.5 -38.5t-50 -28t-62.5 -10.5zM135 291h80q26 0 41 1t28 4q5 2 7 8.5t2 16.5q0 28 -23 47.5t-55 19.5q-22 0 -43.5 -13t-35.5 -32.5t-13 -39.5q0 -12 12 -12z" />
  </g>

</svg>
