<?xml version="1.0" standalone="no"?>
<!DOCTYPE svg PUBLIC "-//W3C//DTD SVG 1.1//EN" "http://www.w3.org/Graphics/SVG/1.1/DTD/svg11.dtd" >
<svg xmlns="http://www.w3.org/2000/svg" xmlns:xlink="http://www.w3.org/1999/xlink" version="1.1" viewBox="-10 0 821 1000">
  <g transform="matrix(1 0 0 -1 0 800)">
   <path fill="currentColor"
d="M664 -205q-11 0 -16.5 6.5t-5.5 17.5q0 13 5 26q8 21 16 45.5t13.5 47t5.5 32.5q0 17 -10.5 24t-33.5 7q-18 0 -35.5 -1t-37 -2.5t-45.5 -1.5q-11 0 -18.5 2.5t-7.5 9.5q0 13 29 19q34 6 50.5 19t16.5 42v380q0 15 -9 6l-344 -363q-6 -7 -7.5 -10t-1.5 -12
q0 -30 19.5 -42.5t54.5 -19.5q15 -3 22 -7t7 -12q0 -6 -6.5 -9t-18.5 -3q-25 0 -46 1.5t-40.5 2.5t-41.5 1q-21 0 -39 -1t-37.5 -2.5t-45.5 -1.5q-11 0 -18 2.5t-7 9.5q0 13 29 19q38 7 49.5 22t11.5 49v453q0 34 -9 48t-47 22q-29 6 -29 20q0 7 7 10t18 3q26 0 44.5 -1
t35.5 -2t37 -1q21 0 38.5 0.5t37 1.5t44.5 1q12 0 18.5 -2.5t6.5 -9.5q0 -8 -7 -12.5t-21 -7.5q-39 -9 -53.5 -25t-14.5 -45v-365q0 -11 3 -13.5t10 3.5l341 362q9 8 9 18v6q-1 25 -16.5 39t-48.5 20q-29 6 -29 20q0 7 7.5 10t18.5 3q25 0 45.5 -1t39.5 -2t40 -1
q19 0 34.5 0.5t33.5 1.5t43 1q12 0 19 -2.5t7 -9.5q0 -8 -7.5 -12.5t-21.5 -7.5q-38 -9 -48 -24.5t-10 -45.5v-460q0 -21 13.5 -32t33 -15.5t37.5 -6.5q8 -1 10.5 -6.5t1.5 -11.5q0 -8 -11 -28t-26.5 -47.5t-32 -59t-29.5 -62.5q-4 -13 -12.5 -20t-17.5 -7zM411 692
q-54 0 -87 16t-47.5 40t-14.5 48q0 31 15 50.5t39 19.5q22 0 35 -10.5t13 -27.5q0 -7 -1.5 -14.5t-3.5 -14.5l-4 -12t-2 -11q0 -14 15.5 -26t47.5 -12q51 0 78 27t38 70q3 9 7.5 13t7.5 4q6 0 8 -6t2 -13q0 -38 -19 -70t-52 -51.5t-75 -19.5z" />
  </g>

</svg>
