<?xml version="1.0" standalone="no"?>
<!DOCTYPE svg PUBLIC "-//W3C//DTD SVG 1.1//EN" "http://www.w3.org/Graphics/SVG/1.1/DTD/svg11.dtd" >
<svg xmlns="http://www.w3.org/2000/svg" xmlns:xlink="http://www.w3.org/1999/xlink" version="1.1" viewBox="-10 0 495 1000">
  <g transform="matrix(1 0 0 -1 0 800)">
   <path fill="currentColor"
d="M55 244q-9 0 -13 7.5t-4 13.5q0 9 7.5 15t17.5 6h374q6 0 11.5 -4t5.5 -9q0 -1 -0.5 -1.5t-0.5 -2.5q-5 -10 -13.5 -17.5t-21.5 -7.5h-363zM88 -284q-21 0 -40 12.5t-19 35.5q0 19 9 34t27 15q13 0 25.5 -3.5t22.5 -3.5q10 1 15 4.5t10 12.5q10 16 21.5 37.5t24.5 49.5
t27 63q6 15 6 32q0 10 -2 19t-6 18l-118 288q-8 19 -19 33t-28 19q-8 4 -14.5 8t-6.5 12q0 6 8 7.5t13 1.5q22 0 34 -1t22 -2t26 -1q19 0 30 1t23.5 2t33.5 1q7 0 14 -2.5t7 -8.5q0 -8 -9.5 -13.5t-17.5 -8.5q-10 -3 -15.5 -10.5t-5.5 -23.5q0 -7 3 -16l6 -18l75 -183
q1 -5 5 -5q2 0 4 5l63 173q3 7 5 18.5t2 19.5q0 18 -7 26.5t-16 12.5q-8 4 -17.5 9.5t-9.5 13.5q0 6 7.5 8.5t13.5 2.5q18 0 33 -2t38 -2q16 0 24.5 1l17 2t21.5 1q5 0 13 -1.5t8 -7.5q0 -8 -6.5 -12t-14.5 -8q-16 -5 -32.5 -23t-26.5 -42l-141 -336q-3 -9 -12.5 -32
t-22.5 -54t-27.5 -65.5t-28.5 -66.5q-10 -23 -29.5 -35t-45.5 -12z" />
  </g>

</svg>
