<?xml version="1.0" standalone="no"?>
<!DOCTYPE svg PUBLIC "-//W3C//DTD SVG 1.1//EN" "http://www.w3.org/Graphics/SVG/1.1/DTD/svg11.dtd" >
<svg xmlns="http://www.w3.org/2000/svg" xmlns:xlink="http://www.w3.org/1999/xlink" version="1.1" viewBox="-10 0 702 1000">
  <g transform="matrix(1 0 0 -1 0 800)">
   <path fill="currentColor"
d="M578 -18q-51 0 -85 20.5t-59 73.5l-82 168q-15 32 -33.5 52t-35.5 24q-12 2 -24 2.5t-22 0.5q-7 0 -8 -6t-1 -12l1 -198q0 -21 6 -37t20 -26.5t39 -16.5q15 -3 23 -7t8 -12q0 -6 -8.5 -9.5t-20.5 -3.5q-28 0 -45.5 2t-32 4t-33.5 2q-23 0 -41.5 -2t-39 -4t-49.5 -2
q-12 0 -20.5 3t-8.5 10q0 13 31 19q38 7 51.5 22.5t13.5 50.5v451q0 34 -14 48t-53 22q-29 6 -29 20q0 7 7.5 10t18.5 3q26 0 46.5 -1t39.5 -2t41 -1q18 0 33.5 0.5t33.5 1.5t43 1q12 0 18.5 -2.5t6.5 -9.5q0 -8 -7 -12.5t-22 -7.5q-38 -9 -47.5 -25t-9.5 -45v-175
q0 -10 2 -14t6 -4h31q45 0 76.5 30t49.5 76l37 94q11 28 27 52t41.5 38.5t63.5 14.5q35 0 47 -16.5t12 -39.5q0 -24 -12.5 -38.5t-29.5 -14.5q-16 0 -33 8.5t-30 8.5q-17 0 -30.5 -9.5t-26.5 -40.5l-32 -79q-8 -21 -19 -38t-23 -29q-5 -6 -4 -10.5t4 -8.5q16 -7 26.5 -22
t28.5 -48l81 -145q21 -38 38 -60.5t32.5 -32.5t34 -13.5t43.5 -3.5q6 0 9.5 -4t3.5 -9q0 -4 -3 -8t-6 -6q-11 -8 -38 -15t-57 -7zM332 684q-8 1 -8 7q0 7 7 17q21 31 42.5 61.5t45.5 59.5q10 14 29 13q7 -1 22.5 -5t28 -10t12.5 -13q-1 -9 -15 -20q-33 -26 -71.5 -52
t-71.5 -49q-8 -5 -13 -7t-8 -2z" />
  </g>

</svg>
