<?xml version="1.0" standalone="no"?>
<!DOCTYPE svg PUBLIC "-//W3C//DTD SVG 1.1//EN" "http://www.w3.org/Graphics/SVG/1.1/DTD/svg11.dtd" >
<svg xmlns="http://www.w3.org/2000/svg" xmlns:xlink="http://www.w3.org/1999/xlink" version="1.1" viewBox="-10 0 747 1000">
  <g transform="matrix(1 0 0 -1 0 800)">
   <path fill="currentColor"
d="M81 -10q-35 0 -52.5 7.5t-17.5 15.5q0 9 5 12t15 3q15 0 32 8t35 27t36 53q21 39 38.5 69.5t38.5 48.5q3 2 4.5 5t-2.5 6q-15 11 -25.5 26.5t-18.5 30t-14 23.5q-9 15 -16.5 20t-20.5 5q-5 0 -10.5 -3t-10.5 -6q-7 -4 -13 -8t-15 -4q-17 0 -25 13t-8 28q0 20 16 36t41 16
t46 -13.5t40 -49.5q22 -39 36.5 -64t27.5 -38t29 -18.5t40 -5.5q5 0 8.5 2.5t3.5 6.5v94q0 21 -11 31.5t-30 15.5q-8 2 -14.5 6.5t-6.5 11.5q0 8 8.5 9.5t12.5 1.5q20 0 32 -1t24 -2.5t29 -1.5q18 0 29 1t23.5 2t31.5 1q5 0 13 -1t8 -9q0 -7 -7 -11t-15 -7q-18 -6 -28 -16.5
t-10 -30.5v-94q0 -4 3.5 -6.5t8.5 -2.5q24 0 40 5.5t29 18.5t28 38t36 64q19 36 40 49.5t46 13.5t41 -16t16 -36q0 -15 -8 -28t-26 -13q-7 0 -13.5 4t-13.5 8l-10 6t-11 3q-13 0 -20.5 -5t-16.5 -20q-6 -9 -13.5 -23.5t-18.5 -29.5t-26 -26q-4 -4 -2 -7t5 -5
q25 -21 43 -53.5t39 -72.5q18 -32 34.5 -49.5t32.5 -24t30 -6.5q10 0 15 -3t5 -12q0 -8 -17.5 -15.5t-52.5 -7.5q-31 0 -60 16t-53 60q-21 41 -36.5 68t-28.5 43t-26 23t-29 7q-10 0 -10 -9v-134q0 -19 12.5 -25.5t31.5 -12.5q8 -3 15 -6.5t7 -11.5q0 -7 -8 -9t-13 -2
q-19 0 -32.5 1.5t-26 2.5t-30.5 1q-17 0 -30 -1t-26.5 -2.5t-33.5 -1.5q-5 0 -13 2t-8 8q0 8 6.5 12t14.5 7q19 6 32 11.5t13 25.5v135q0 9 -10 9q-16 0 -29.5 -6.5t-26.5 -22.5t-28.5 -43.5t-35.5 -68.5q-22 -44 -52 -60t-61 -16zM362 472q-35 0 -62.5 11.5t-43 33
t-15.5 48.5q0 28 12 42.5t29 14.5q18 0 26.5 -8.5t8.5 -21.5q0 -9 -0.5 -15.5t-0.5 -14.5q0 -18 18.5 -30.5t44.5 -12.5q23 0 46.5 15t36.5 53q6 16 9 20.5t8 4.5q8 0 8 -16q0 -39 -17.5 -66.5t-46 -42.5t-61.5 -15z" />
  </g>

</svg>
