<?xml version="1.0" standalone="no"?>
<!DOCTYPE svg PUBLIC "-//W3C//DTD SVG 1.1//EN" "http://www.w3.org/Graphics/SVG/1.1/DTD/svg11.dtd" >
<svg xmlns="http://www.w3.org/2000/svg" xmlns:xlink="http://www.w3.org/1999/xlink" version="1.1" viewBox="-10 0 822 1000">
  <g transform="matrix(1 0 0 -1 0 800)">
   <path fill="currentColor"
d="M317 -286q-6 0 -13 2.5t-7 8.5q0 8 7.5 12t15.5 7q19 6 32.5 13.5t13.5 27.5v212q0 15 -1.5 21.5t-4.5 6.5q-2 0 -4.5 -1.5t-4.5 -3.5q-18 -12 -50.5 -23t-73.5 -11q-53 0 -97.5 24t-71.5 68t-27 105q0 68 29.5 121.5t85.5 85t132 31.5q34 0 62 -6t47 -11.5t24 -5.5
q11 0 17.5 6t12.5 15q2 2 4.5 3.5t5.5 1.5q6 0 11 -3t5 -8q-4 -28 -5.5 -39.5t-2.5 -19.5q11 10 37 25.5t58.5 27t61.5 11.5q53 0 90 -28t56.5 -71.5t19.5 -91.5q0 -45 -17.5 -88t-48.5 -78t-72.5 -55.5t-89.5 -20.5q-12 0 -30 3.5t-35.5 10t-28.5 14.5q-1 0 -2 -8.5
t-1.5 -17.5t-0.5 -11v-194q0 -12 8.5 -19.5t20.5 -11t23 -7.5q9 -3 16 -7t7 -12q0 -6 -8.5 -8.5t-15.5 -2.5q-6 0 -22.5 1.5t-36.5 2.5t-38 1q-17 0 -30.5 -1t-28 -2.5t-34.5 -1.5zM271 30q22 0 40.5 5.5t35.5 18.5q9 7 13 24.5t5.5 40.5t1.5 45l-1 113q-1 46 -33 77t-77 31
q-33 0 -61 -21.5t-44.5 -60.5t-16.5 -93q0 -44 12.5 -77.5t32.5 -56.5t44.5 -34.5t47.5 -11.5zM563 21q14 0 33.5 8.5t38.5 28.5t32 53t13 82q0 57 -13.5 91t-33 51.5t-40.5 23.5t-35 6q-23 0 -42 -7.5t-36 -21.5q-10 -7 -16 -23t-7 -46q0 -12 -0.5 -26t-0.5 -29
q0 -26 0.5 -51t0.5 -44q1 -13 5.5 -35.5t16.5 -36.5q10 -9 32 -16.5t52 -7.5z" />
  </g>

</svg>
