<?xml version="1.0" standalone="no"?>
<!DOCTYPE svg PUBLIC "-//W3C//DTD SVG 1.1//EN" "http://www.w3.org/Graphics/SVG/1.1/DTD/svg11.dtd" >
<svg xmlns="http://www.w3.org/2000/svg" xmlns:xlink="http://www.w3.org/1999/xlink" version="1.1" viewBox="-10 0 548 1000">
  <g transform="matrix(1 0 0 -1 0 800)">
   <path fill="currentColor"
d="M46 183q-9 0 -13 7.5t-4 13.5q0 9 7.5 15t18.5 6h444q6 0 11 -4t5 -9q0 -1 -0.5 -1.5t-0.5 -1.5q-4 -11 -12.5 -18.5t-21.5 -7.5h-434zM360 -20q-7 0 -7 9q0 11 2.5 30.5t2.5 31.5v5t-1 3q-34 -36 -74.5 -54.5t-87.5 -18.5q-32 0 -57.5 15t-40.5 43.5t-15 67.5v198
q0 22 -9.5 35.5t-32.5 20.5q-5 2 -9.5 5.5t-4.5 11.5q0 9 4.5 12.5t10.5 4.5q37 2 61 6.5t55 12.5q3 1 6 1.5t7 0.5q11 0 10 -14q-3 -23 -4.5 -38.5t-1.5 -38.5v-194q0 -24 10.5 -43.5t28 -31.5t37.5 -13q22 0 40 3.5t36 17.5q9 7 22.5 24t13.5 47v175q0 20 -10.5 30.5
t-25.5 15.5t-27 6q-10 0 -16 4t-6 14t7 13.5t15 3.5q38 2 62 4t41.5 5t35.5 8q2 1 5.5 1.5t5.5 0.5q14 0 14 -11q0 -2 -0.5 -5t-2.5 -6q-1 -4 -2.5 -17.5t-3 -28.5t-1.5 -24v-231q0 -25 5.5 -35.5t12.5 -10.5t20.5 1t19.5 1t11 -3t5 -12q0 -8 -3.5 -11.5t-11.5 -4.5
q-42 -5 -73.5 -16t-55.5 -20q-5 -2 -11 -4.5t-12 -2.5z" />
  </g>

</svg>
