<?xml version="1.0" standalone="no"?>
<!DOCTYPE svg PUBLIC "-//W3C//DTD SVG 1.1//EN" "http://www.w3.org/Graphics/SVG/1.1/DTD/svg11.dtd" >
<svg xmlns="http://www.w3.org/2000/svg" xmlns:xlink="http://www.w3.org/1999/xlink" version="1.1" viewBox="-10 0 536 1000">
  <g transform="matrix(1 0 0 -1 0 800)">
   <path fill="currentColor"
d="M263 -14q-42 0 -82.5 12.5t-74 36.5t-53.5 58.5t-20 78.5q0 58 22.5 96t55 60t61.5 31q5 2 4.5 5.5t-4.5 4.5q-48 20 -73 51t-25 75q0 41 19.5 72.5t52 53t72.5 32.5t80 11q46 0 76.5 -7.5t61.5 -16.5q6 -2 10 -7.5t5 -14.5q5 -29 7 -52.5t2 -48.5q0 -7 -3.5 -15t-9.5 -8
q-4 0 -13.5 6.5t-11.5 16.5q-14 58 -45 85t-84 27q-37 0 -63 -19t-40 -47.5t-14 -58.5q0 -32 10 -61.5t28.5 -48.5t43.5 -19q15 0 24.5 1t16.5 3q8 2 16.5 2.5t24.5 0.5q10 0 26 -7t16 -22q0 -11 -8 -16t-18.5 -6.5t-18.5 -1.5q-14 0 -24.5 1t-18.5 2l-17.5 3.5t-15.5 1.5
q-37 0 -61.5 -19t-36 -50t-11.5 -67q0 -47 18 -87t51.5 -64.5t79.5 -24.5q47 0 81 23t54 75q9 24 15.5 35.5t9.5 11.5q9 0 15.5 -4.5t6.5 -11.5q0 -26 -4.5 -50.5t-9.5 -49.5q-2 -14 -13.5 -23.5t-21.5 -14.5q-25 -11 -66.5 -20.5t-104.5 -9.5z" />
  </g>

</svg>
