<?xml version="1.0" standalone="no"?>
<!DOCTYPE svg PUBLIC "-//W3C//DTD SVG 1.1//EN" "http://www.w3.org/Graphics/SVG/1.1/DTD/svg11.dtd" >
<svg xmlns="http://www.w3.org/2000/svg" xmlns:xlink="http://www.w3.org/1999/xlink" version="1.1" viewBox="-10 0 415 1000">
  <g transform="matrix(1 0 0 -1 0 800)">
   <path fill="currentColor"
d="M175 -14q-42 0 -72 30t-30 72l1 206q1 22 -3 34t-14 20t-29 16q-4 2 -6.5 6t-2.5 9q0 6 3.5 11t7.5 5q39 4 67 11.5t55 16.5q2 0 3.5 1.5t3.5 1.5q3 0 5.5 -4t3.5 -7q0 -6 -2.5 -21.5t-4.5 -37.5h2q6 3 16.5 13t25.5 22t35.5 20.5t48.5 8.5q25 0 43.5 -14t28.5 -35
t10 -44q0 -33 -18.5 -59.5t-56.5 -44.5q-24 -11 -49.5 -23.5t-50.5 -24.5q-19 -10 -25 -16t-6 -23v-34q0 -25 11 -42.5t43 -17.5q16 0 32 10.5t22 19.5q2 4 2.5 6.5l1.5 7.5q0 5 0.5 9t0.5 8q0 8 14 15.5t32.5 14t29.5 8.5q6 1 9 -6t3 -16q0 -16 -20 -38.5t-51.5 -44
t-63.5 -36t-56 -14.5zM178 209q2 0 4.5 1t6.5 2q21 10 42.5 22t36 29.5t14.5 43.5q0 28 -12.5 41.5t-28.5 13.5q-26 0 -41.5 -12.5t-22.5 -23.5q-4 -5 -7 -11.5t-3 -16.5l-1 -69q0 -20 12 -20z" />
  </g>

</svg>
