<?xml version="1.0" standalone="no"?>
<!DOCTYPE svg PUBLIC "-//W3C//DTD SVG 1.1//EN" "http://www.w3.org/Graphics/SVG/1.1/DTD/svg11.dtd" >
<svg xmlns="http://www.w3.org/2000/svg" xmlns:xlink="http://www.w3.org/1999/xlink" version="1.1" viewBox="-307 0 616 1000">
  <g transform="matrix(1 0 0 -1 0 800)">
   <path fill="currentColor"
d="M2 819q-84 0 -152 -19.5t-124 -50.5q-12 -6 -17.5 -16.5t-5.5 -19.5q0 -10 5 -12t11 -2q4 0 14.5 5t14.5 7q33 17 74 28t87.5 16.5t92.5 5.5q70 0 135.5 -11t112.5 -37l17 -8.5t15 -5.5q8 0 12.5 2.5t4.5 11.5t-5 19t-16 16q-57 32 -124.5 51.5t-151.5 19.5z" />
  </g>

</svg>
