<?xml version="1.0" standalone="no"?>
<!DOCTYPE svg PUBLIC "-//W3C//DTD SVG 1.1//EN" "http://www.w3.org/Graphics/SVG/1.1/DTD/svg11.dtd" >
<svg xmlns="http://www.w3.org/2000/svg" xmlns:xlink="http://www.w3.org/1999/xlink" version="1.1" viewBox="-10 0 805 1000">
  <g transform="matrix(1 0 0 -1 0 800)">
   <path fill="currentColor"
d="M260 -4q-11 0 -18 2.5t-7 9.5q0 13 29 19q38 7 56 22t18 49v169q0 16 -3 17.5t-10 2.5q-59 6 -96 30t-59.5 58.5t-39.5 68.5q-14 29 -28.5 53t-33.5 39t-47 15q-11 0 -16 4.5t-5 10.5q0 15 11.5 27.5t31 20.5t41.5 8q42 1 67 -20.5t40 -56t26 -73.5q11 -36 24 -70.5
t34.5 -58t55.5 -26.5q5 -1 6 3t1 15v216q0 34 -14 48t-53 22q-29 6 -29 20q0 7 7.5 10t18.5 3q26 0 46.5 -1t39.5 -2t41 -1q21 0 39 0.5t38 1.5t45 1q12 0 18.5 -2.5t6.5 -9.5q0 -8 -7 -12.5t-22 -7.5q-38 -9 -53.5 -23t-15.5 -47v-217q0 -11 1.5 -14.5t8.5 -2.5
q33 3 53.5 24.5t33.5 54t24 67.5q13 39 29 75.5t43 60t72 23.5q20 0 37.5 -7t27.5 -20t11 -29q0 -6 -4.5 -10.5t-16.5 -4.5q-27 0 -46.5 -14t-32.5 -35t-22 -40q-23 -52 -48 -89t-62 -58.5t-98 -27.5q-8 -1 -9.5 -8t-1.5 -17v-163q0 -34 19 -49t56 -23q15 -3 22 -7t7 -12
q0 -6 -7 -9t-18 -3q-25 0 -46 1.5t-40.5 2.5t-41.5 1q-24 0 -44.5 -1t-42.5 -2.5t-48 -1.5z" />
  </g>

</svg>
