<?xml version="1.0" standalone="no"?>
<!DOCTYPE svg PUBLIC "-//W3C//DTD SVG 1.1//EN" "http://www.w3.org/Graphics/SVG/1.1/DTD/svg11.dtd" >
<svg xmlns="http://www.w3.org/2000/svg" xmlns:xlink="http://www.w3.org/1999/xlink" version="1.1" viewBox="-10 0 706 1000">
  <g transform="matrix(1 0 0 -1 0 800)">
   <path fill="currentColor"
d="M424 -205q-13 0 -20.5 10t-8.5 26q-3 44 -9 82t-11.5 65.5t-5.5 39.5q0 14 15 16q42 6 64 18t22 42v219q0 12 -2.5 16t-4.5 1q-7 -6 -29.5 -20t-58.5 -25t-81 -11q-95 0 -144 38.5t-49 133.5v106q0 33 -9 47t-47 22q-29 6 -29 20q0 7 7.5 10t18.5 3q25 0 43.5 -1t35.5 -2
t37 -1q21 0 38.5 0.5t37 1.5t44.5 1q12 0 19 -2.5t7 -9.5q0 -8 -7.5 -12.5t-21.5 -7.5q-39 -9 -53 -24.5t-14 -45.5v-106q0 -56 30 -87t94 -31q27 0 54 6.5t47.5 15.5t28.5 15q5 4 6.5 9.5t1.5 13.5v165q0 28 -14 44.5t-53 24.5q-29 6 -29 20q0 7 7.5 10t18.5 3
q26 0 46.5 -1t39.5 -2t41 -1q18 0 33.5 0.5t33 1.5t42.5 1q12 0 19 -2.5t7 -9.5q0 -8 -7.5 -12.5t-21.5 -7.5q-39 -9 -48 -24.5t-9 -45.5v-452q0 -34 10 -49t48 -23q15 -3 22 -7t7 -12q0 -6 -7 -9t-18 -3q-26 0 -44.5 1.5t-34.5 2t-34 0.5q-42 0 -60 -21t-18 -81
q0 -13 -0.5 -28t0.5 -32q0 -16 -5 -29.5t-18 -13.5z" />
  </g>

</svg>
