<?xml version="1.0" standalone="no"?>
<!DOCTYPE svg PUBLIC "-//W3C//DTD SVG 1.1//EN" "http://www.w3.org/Graphics/SVG/1.1/DTD/svg11.dtd" >
<svg xmlns="http://www.w3.org/2000/svg" xmlns:xlink="http://www.w3.org/1999/xlink" version="1.1" viewBox="-10 0 532 1000">
  <g transform="matrix(1 0 0 -1 0 800)">
   <path fill="currentColor"
d="M39 -277q-6 0 -13.5 2.5t-7.5 8.5q0 8 7 12t16 7q17 5 29 12t12 26v497q0 9 -4.5 24t-14.5 28t-25 15q-5 2 -7.5 5.5t-2.5 9.5t2.5 9.5t6.5 4.5q36 9 68 20t57 23q3 0 4.5 1.5t3.5 1.5q3 0 5 -3.5t2 -6.5q0 -9 -2.5 -28t-2.5 -32q0 -8 1 -9q10 10 36 25.5t60 28.5t65 13
q54 0 89 -25.5t52 -62t17 -71.5q0 -52 -20 -96.5t-53 -80.5t-72.5 -66t-79 -53t-72.5 -41q-11 -6 -16.5 -15.5t-5.5 -30.5l1 -82q0 -13 9 -21t21.5 -12.5t25.5 -8.5q9 -3 16 -6.5t7 -11.5q0 -6 -7 -8.5t-14 -2.5q-29 0 -53 2.5t-50 2.5q-17 0 -30 -1t-26.5 -2.5t-33.5 -1.5z
M195 -37q20 10 46 30t52 47t48 59.5t35.5 68t13.5 73.5q0 46 -15 73t-41 39t-58 12q-23 0 -42 -7.5t-36 -21.5q-10 -7 -16.5 -23t-6.5 -46v-281q0 -15 6 -21t14 -2z" />
  </g>

</svg>
