<?xml version="1.0" standalone="no"?>
<!DOCTYPE svg PUBLIC "-//W3C//DTD SVG 1.1//EN" "http://www.w3.org/Graphics/SVG/1.1/DTD/svg11.dtd" >
<svg xmlns="http://www.w3.org/2000/svg" xmlns:xlink="http://www.w3.org/1999/xlink" version="1.1" viewBox="-10 0 297 1000">
  <g transform="matrix(1 0 0 -1 0 800)">
   <path fill="currentColor"
d="M148 270q-4 0 -5.5 4t-2.5 6q-1 9 -3 20t-3 14l-3 1q-2 0 -6.5 -4.5l-7.5 -7.5q-15 -13 -30.5 -21.5t-35.5 -8.5q-17 0 -29 7.5t-12 20.5q0 8 4.5 18t12 18t15.5 8q6 0 12.5 -2t12.5 -5q7 -2 13 -4.5t11 -2.5q17 0 31.5 10t14.5 42v54q0 16 -5.5 26t-22.5 14q-3 1 -5 5
t-2 8q0 9 7 10q24 5 47 16t41 20q4 0 9 -2t6 -5q0 -4 -3 -18t-3 -33v-120q0 -20 2 -30.5t10 -10.5q5 0 17 0.5t16 1.5q3 0 5 -3t2 -6q0 -5 -2 -10.5t-4 -5.5q-16 -1 -33 -5t-32 -8t-26 -8q-1 -1 -5 -2t-8 -1z" />
  </g>

</svg>
