<?xml version="1.0" standalone="no"?>
<!DOCTYPE svg PUBLIC "-//W3C//DTD SVG 1.1//EN" "http://www.w3.org/Graphics/SVG/1.1/DTD/svg11.dtd" >
<svg xmlns="http://www.w3.org/2000/svg" xmlns:xlink="http://www.w3.org/1999/xlink" version="1.1" viewBox="-10 0 389 1000">
  <g transform="matrix(1 0 0 -1 0 800)">
   <path fill="currentColor"
d="M172 -14q-40 0 -72.5 15t-52 42t-19.5 60q0 38 22 66t61 42q7 2 7 4.5t-7 4.5q-30 10 -46 31t-16 50q0 37 21.5 63.5t58.5 41t83 14.5q30 0 57.5 -9t45 -24t17.5 -34q0 -5 -5.5 -12.5t-14 -13.5t-17.5 -6q-10 0 -17.5 9t-17.5 20q-10 13 -24.5 24.5t-37.5 11.5
q-24 0 -42.5 -19t-18.5 -50q0 -30 16 -52t49 -22q15 0 28.5 5t23.5 5q11 0 18 -5.5t7 -16.5q0 -19 -13.5 -29.5t-29.5 -10.5q-17 0 -25.5 3t-19.5 3q-26 0 -43 -18t-17 -46q0 -33 24 -51.5t59 -18.5q24 0 54 8.5t47 33.5q3 4 6.5 6t6.5 2q8 0 8 -13q0 -6 -3.5 -14.5
t-5.5 -13.5q-12 -22 -33 -42t-51 -32t-71 -12z" />
  </g>

</svg>
