<?xml version="1.0" standalone="no"?>
<!DOCTYPE svg PUBLIC "-//W3C//DTD SVG 1.1//EN" "http://www.w3.org/Graphics/SVG/1.1/DTD/svg11.dtd" >
<svg xmlns="http://www.w3.org/2000/svg" xmlns:xlink="http://www.w3.org/1999/xlink" version="1.1" viewBox="-10 0 348 1000">
  <g transform="matrix(1 0 0 -1 0 800)">
   <path fill="currentColor"
d="M244 178q-59 0 -83.5 37.5t-25.5 93.5v5.5t-1 3.5q0 4 -6 -1.5t-11 -9.5q-15 -14 -30.5 -22.5t-35.5 -8.5q-17 0 -29 7.5t-12 20.5q0 8 4.5 18.5t12 18t15.5 7.5q7 0 13.5 -2t13.5 -5l12 -4t10 -2q17 0 31.5 10t14.5 41v56q0 14 -5 23.5t-20 13.5q-3 1 -5.5 3.5t-2.5 7.5
q0 10 8 12q25 5 45 15t36 17q5 1 10.5 -0.5t5.5 -4.5q0 -4 -1.5 -17t-1.5 -25v-174q0 -60 8.5 -81.5t25.5 -21.5q9 0 15 5.5t16 16.5q7 8 14.5 12t15.5 4t17.5 -10.5t9.5 -23.5q0 -16 -23.5 -26t-60.5 -10z" />
  </g>

</svg>
