<?xml version="1.0" standalone="no"?>
<!DOCTYPE svg PUBLIC "-//W3C//DTD SVG 1.1//EN" "http://www.w3.org/Graphics/SVG/1.1/DTD/svg11.dtd" >
<svg xmlns="http://www.w3.org/2000/svg" xmlns:xlink="http://www.w3.org/1999/xlink" version="1.1" viewBox="-10 0 904 1000">
  <g transform="matrix(1 0 0 -1 0 800)">
   <path fill="currentColor"
d="M45 -5q-11 0 -18.5 3t-7.5 9q0 13 30 19q36 8 54 22.5t18 50.5v451q0 34 -14.5 48.5t-52.5 22.5q-29 6 -29 20q0 7 7.5 10t18.5 3q25 0 45.5 -1t39.5 -2t41 -1t40 0.5t37.5 1.5t45.5 1q11 0 18 -2.5t7 -9.5q0 -8 -7 -12.5t-22 -7.5q-38 -9 -54 -23t-16 -48v-160
q0 -27 21 -27q2 0 4 0.5t5 1.5q13 4 39 9t56 5q91 0 146.5 -48.5t55.5 -135.5q0 -55 -18 -87.5t-41.5 -49.5t-41.5 -28q-30 -18 -70 -26t-90 -8q-8 0 -22 1t-36.5 2t-54.5 1q-24 0 -44 -1t-41.5 -2.5t-48.5 -1.5zM296 30q36 0 68 15t52 49t20 93q0 37 -11 63t-26 42.5
t-27 23.5q-11 8 -30 15.5t-53 7.5q-10 0 -25.5 -2t-22.5 -5q-8 -3 -11.5 -10t-3.5 -17v-203q0 -13 3 -27t11 -22t23.5 -15.5t32.5 -7.5zM589 -4q-11 0 -18.5 2.5t-7.5 9.5q0 13 29 19q38 7 56 22t18 49v452q0 34 -14 48.5t-52 22.5q-29 6 -29 20q0 7 7 10t18 3q26 0 46.5 -1
t39.5 -2t41 -1q21 0 39.5 0.5t38 1.5t44.5 1q12 0 19 -2.5t7 -9.5q0 -8 -7.5 -12.5t-21.5 -7.5q-39 -9 -54.5 -23t-15.5 -48v-452q0 -33 19 -48t56 -23q15 -3 22 -7t7 -12q0 -6 -6.5 -9t-18.5 -3q-25 0 -46 1.5t-40.5 2.5t-41.5 1q-24 0 -44.5 -1t-42.5 -2.5t-47 -1.5z
M545 692q-24 0 -41 17t-17 41t17 41t41 17t41 -17t17 -41t-17 -41t-41 -17zM349 692q-24 0 -41 17t-17 41t17 41t41 17q25 0 42 -17t17 -41t-17 -41t-42 -17z" />
  </g>

</svg>
