<?xml version="1.0" standalone="no"?>
<!DOCTYPE svg PUBLIC "-//W3C//DTD SVG 1.1//EN" "http://www.w3.org/Graphics/SVG/1.1/DTD/svg11.dtd" >
<svg xmlns="http://www.w3.org/2000/svg" xmlns:xlink="http://www.w3.org/1999/xlink" version="1.1" viewBox="-10 0 655 1000">
  <g transform="matrix(1 0 0 -1 0 800)">
   <path fill="currentColor"
d="M348 -19q-3 0 -3 1v3q0 10 2.5 31t2.5 35v6q-15 -23 -48 -47t-83 -24q-59 0 -101 30.5t-64.5 78t-22.5 97.5q0 60 27.5 112t79.5 84t123 32q14 0 29 -3.5t28 -8t17 -7.5q3 -4 6 -6t4 -2q4 0 4 20v42q0 85 28.5 140.5t73.5 83t95 27.5q20 0 38 -3t31 -10t17 -19
q4 -10 0.5 -19t-8.5 -13q-4 -11 -15.5 -18.5t-23.5 -3.5q-8 1 -14.5 8.5t-13 17t-16.5 16t-26 6.5q-31 0 -54 -42t-23 -121v-392q0 -31 5 -47.5t17 -16.5q8 0 22 1t21 2q4 1 9.5 -2t5.5 -12t-5 -12.5t-9 -3.5q-42 -5 -74.5 -15.5t-55.5 -19.5q-3 -1 -11.5 -3.5t-14.5 -2.5z
M261 38q38 0 63 25.5t25 60.5v144q0 26 -13.5 52t-38.5 43t-60 17q-14 0 -32.5 -7.5t-36 -26t-29 -50.5t-11.5 -80q0 -56 15 -91t37 -54t44.5 -26t36.5 -7z" />
  </g>

</svg>
