<?xml version="1.0" standalone="no"?>
<!DOCTYPE svg PUBLIC "-//W3C//DTD SVG 1.1//EN" "http://www.w3.org/Graphics/SVG/1.1/DTD/svg11.dtd" >
<svg xmlns="http://www.w3.org/2000/svg" xmlns:xlink="http://www.w3.org/1999/xlink" version="1.1" viewBox="-10 0 810 1000">
  <g transform="matrix(1 0 0 -1 0 800)">
   <path fill="currentColor"
d="M219 -14q-59 0 -101 30.5t-64.5 78t-22.5 97.5q0 60 27.5 112t79.5 84t123 32q14 0 29 -3.5t28 -8t17 -7.5q3 -4 6 -6t4 -2q3 0 3 17v150q0 37 -11 52.5t-36 20.5q-9 2 -9 14q0 11 8 13q26 6 49.5 14t42.5 15t30 11q6 3 9.5 3.5t6.5 0.5q4 0 6 -2t2 -6q0 -8 -3 -34
t-3 -78l-1 -190q0 -13 1.5 -19.5t7.5 -7.5q35 29 74 41.5t65 12.5q53 0 94 -27t64.5 -73t23.5 -101q0 -59 -25 -112.5t-75.5 -87.5t-129.5 -34q-32 0 -61 7t-49.5 13t-29.5 6q-11 0 -23.5 -8t-16.5 -8q-8 0 -13 3.5t-5 8.5q0 2 3 14.5t3 24.5v6q-16 -23 -48 -45t-80 -22z
M261 38q38 0 63 26t25 62v143q-1 26 -14.5 51.5t-38.5 42.5t-59 17q-14 0 -32.5 -7.5t-36 -26t-29 -50.5t-11.5 -80q0 -56 15 -91t37 -54t44.5 -26t36.5 -7zM561 21q35 0 59 23.5t37.5 63.5t13.5 88q0 40 -13.5 81t-41 69t-71.5 28q-19 0 -44.5 -8t-41.5 -24
q-10 -11 -15 -28t-5 -55v-124q0 -34 17.5 -60t45.5 -40t59 -14z" />
  </g>

</svg>
