<?xml version="1.0" standalone="no"?>
<!DOCTYPE svg PUBLIC "-//W3C//DTD SVG 1.1//EN" "http://www.w3.org/Graphics/SVG/1.1/DTD/svg11.dtd" >
<svg xmlns="http://www.w3.org/2000/svg" xmlns:xlink="http://www.w3.org/1999/xlink" version="1.1" viewBox="-10 0 540 1000">
  <g transform="matrix(1 0 0 -1 0 800)">
   <path fill="currentColor"
d="M444 -95q-5 -4 -19.5 -0.5t-22.5 13.5l-160 223q-4 6 -2.5 13t7.5 11q6 3 16.5 0.5t16.5 -12.5l165 -227q8 -14 -1 -21zM39 -277q-6 0 -13.5 2.5t-7.5 8.5q0 8 7 12t16 7q17 5 29 12t12 26v497q0 9 -4.5 24t-14.5 28t-25 15q-5 2 -7.5 5.5t-2.5 9.5t2.5 9.5t6.5 4.5
q36 9 68 20t57 23q3 0 4.5 1.5t3.5 1.5q3 0 5 -3.5t2 -6.5q0 -9 -2.5 -28t-2.5 -32q0 -8 1 -9q10 10 36 25.5t60 28.5t65 13q52 0 89 -28t57 -72t20 -91q0 -46 -17.5 -89t-49 -77.5t-72.5 -55t-89 -20.5q-13 0 -31 3.5t-35.5 10t-27.5 14.5q-1 0 -2 -8.5t-1.5 -18
t-0.5 -13.5v-179q0 -13 9 -21t21.5 -12.5t25.5 -8.5q9 -3 16 -6.5t7 -11.5q0 -6 -7 -8.5t-14 -2.5q-29 0 -53 2.5t-50 2.5q-17 0 -30 -1t-26.5 -2.5t-33.5 -1.5zM281 21q14 0 33 8.5t38.5 28.5t32.5 53t13 82q0 57 -13.5 91t-33.5 51.5t-40.5 23.5t-34.5 6q-22 0 -45.5 -9.5
t-39 -21.5t-15.5 -19q0 -18 -0.5 -40.5t-1 -46t-0.5 -42.5v-27q0 -34 15.5 -66t40 -52t51.5 -20z" />
  </g>

</svg>
