<?xml version="1.0" standalone="no"?>
<!DOCTYPE svg PUBLIC "-//W3C//DTD SVG 1.1//EN" "http://www.w3.org/Graphics/SVG/1.1/DTD/svg11.dtd" >
<svg xmlns="http://www.w3.org/2000/svg" xmlns:xlink="http://www.w3.org/1999/xlink" version="1.1" viewBox="-10 0 485 1000">
  <g transform="matrix(1 0 0 -1 0 800)">
   <path fill="currentColor"
d="M214 -14q-33 0 -64.5 16t-52 44.5t-20.5 65.5v197q0 22 -9 35.5t-30 20.5q-2 1 -7.5 5t-5.5 11q0 9 5 12.5t9 4.5q29 3 53 7.5t44 11.5q7 2 13.5 4t13.5 4q7 0 10 -4t2 -10q-2 -19 -4 -35t-2 -36v-195q0 -48 23.5 -78t52.5 -30q42 0 66 23t33.5 63.5t9.5 91.5
q0 42 -13 71.5t-34 51.5q-5 6 -14 12.5t-16 12t-7 7.5q0 12 12.5 23.5t29 19.5t25.5 8q13 0 31.5 -12.5t37 -35.5t30.5 -54.5t12 -70.5q0 -50 -17 -96.5t-48.5 -84t-74 -59.5t-94.5 -22z" />
  </g>

</svg>
