<?xml version="1.0" standalone="no"?>
<!DOCTYPE svg PUBLIC "-//W3C//DTD SVG 1.1//EN" "http://www.w3.org/Graphics/SVG/1.1/DTD/svg11.dtd" >
<svg xmlns="http://www.w3.org/2000/svg" xmlns:xlink="http://www.w3.org/1999/xlink" version="1.1" viewBox="-10 0 499 1000">
  <g transform="matrix(1 0 0 -1 0 800)">
   <path fill="currentColor"
d="M418 -145q-13 0 -18 10.5t-6 24.5q-1 12 -1.5 24t-0.5 22q-3 43 -14 54.5t-34 11.5q-18 0 -28.5 -1t-21 -2.5t-30.5 -1.5q-6 0 -13.5 2t-7.5 8q0 8 7 12t15 7q18 6 30.5 13t12.5 25v103q0 9 -2 12.5t-7 1.5q-21 -12 -53.5 -18t-64.5 -6q-30 0 -57 11t-44.5 33t-18.5 53
v89q0 19 -6 26t-24 12q-8 2 -15 7t-7 12t7.5 8.5t13.5 1.5q17 0 27.5 -1t21.5 -2.5t28 -1.5q18 0 30.5 1.5t25 2.5t28.5 1q7 0 14 -1.5t7 -8.5q0 -8 -7 -12t-15 -7q-19 -5 -28.5 -13t-9.5 -25v-75q0 -31 15.5 -51t49.5 -20q23 0 43 3t34 15q8 6 11 11.5t3 9.5v107
q0 19 -9 26t-28 12q-8 3 -14.5 7.5t-6.5 11.5t7 8.5t14 1.5q20 0 32 -1t23.5 -2.5t28.5 -1.5q18 0 30.5 1.5t26 2.5t32.5 1q7 0 14 -1.5t7 -8.5q0 -8 -7 -12t-15 -7q-19 -5 -31 -13t-12 -25v-282q0 -10 4.5 -16t16.5 -6q7 -1 15.5 0t15.5 0q15 -1 15 -11q0 -3 -0.5 -6
t-2.5 -8q-3 -9 -7.5 -22t-9 -37.5t-7.5 -67.5q-1 -14 -8 -23t-14 -9z" />
  </g>

</svg>
