<?xml version="1.0" standalone="no"?>
<!DOCTYPE svg PUBLIC "-//W3C//DTD SVG 1.1//EN" "http://www.w3.org/Graphics/SVG/1.1/DTD/svg11.dtd" >
<svg xmlns="http://www.w3.org/2000/svg" xmlns:xlink="http://www.w3.org/1999/xlink" version="1.1" viewBox="-10 0 528 1000">
  <g transform="matrix(1 0 0 -1 0 800)">
   <path fill="currentColor"
d="M286 -285q-12 -1 -29.5 7.5t-17.5 21.5q0 19 7 30.5t17 11.5q4 0 12.5 -3t16.5 -6l20 -6t16 -3q5 0 8 4t6 13q8 34 12 89t3 125v74.5v80v71.5v47q0 37 -26.5 61t-59.5 24q-22 0 -38.5 -5.5t-33.5 -18.5q-12 -8 -18 -21t-6 -43v-199q0 -21 12.5 -29.5t26.5 -13.5
q8 -3 15 -7t7 -12q0 -7 -8 -9t-13 -2q-19 0 -32.5 1.5t-25.5 2.5t-30 1q-17 0 -29 -1t-25 -2.5t-33 -1.5q-5 0 -13.5 2t-8.5 9q0 8 7 11.5t16 7.5q15 5 28.5 12t13.5 28v385q1 80 30 137t74 87t94 30q20 0 38 -3t31 -10t17 -19q4 -10 0.5 -19t-8.5 -13q-5 -11 -16 -18.5
t-23 -3.5q-8 1 -14.5 8.5t-13.5 17t-16.5 16t-25.5 6.5q-31 0 -52.5 -44.5t-22.5 -124.5v-132v-8.5t2 -4.5q11 10 35.5 26t56.5 28.5t64 12.5t58.5 -17t41.5 -47t15 -68q0 -15 0.5 -46.5t1 -70.5t0.5 -77v-68q0 -39 -7 -81.5t-21 -82.5t-34.5 -72.5t-46 -53t-55.5 -22.5z
" />
  </g>

</svg>
