<?xml version="1.0" standalone="no"?>
<!DOCTYPE svg PUBLIC "-//W3C//DTD SVG 1.1//EN" "http://www.w3.org/Graphics/SVG/1.1/DTD/svg11.dtd" >
<svg xmlns="http://www.w3.org/2000/svg" xmlns:xlink="http://www.w3.org/1999/xlink" version="1.1" viewBox="-10 0 692 1000">
  <g transform="matrix(1 0 0 -1 0 800)">
   <path fill="currentColor"
d="M468 -287q-6 0 -12.5 2.5t-6.5 8.5q0 8 7 11.5t16 6.5q18 6 31.5 13.5t13.5 28.5l1 485q0 39 -17.5 62.5t-46.5 23.5q-20 0 -38.5 -5.5t-32.5 -20.5l18 25q26 -28 41 -66.5t15 -77.5q0 -62 -26 -113.5t-75 -81t-120 -29.5q-54 0 -100.5 24t-75.5 68.5t-29 105.5
q0 68 30 121.5t82.5 84.5t121.5 31q22 0 45 -6.5t44.5 -19t38.5 -32.5l-23 -10q31 33 65.5 50.5t75.5 17.5q42 0 69 -40.5t27 -100.5l1 -499q0 -19 12 -26t29 -12q9 -3 16 -7t7 -12q0 -7 -7 -9t-13 -2q-19 0 -33 1.5t-26.5 2.5t-30.5 1q-17 0 -31.5 -1t-28.5 -2.5t-34 -1.5z
M266 20q25 0 43 16.5t29 43t16 57.5t5 60q0 31 -7 63.5t-21 60.5t-35.5 45t-51.5 17q-38 0 -62.5 -20t-36 -58.5t-11.5 -94.5q0 -60 21 -102.5t51.5 -65t59.5 -22.5z" />
  </g>

</svg>
