<?xml version="1.0" standalone="no"?>
<!DOCTYPE svg PUBLIC "-//W3C//DTD SVG 1.1//EN" "http://www.w3.org/Graphics/SVG/1.1/DTD/svg11.dtd" >
<svg xmlns="http://www.w3.org/2000/svg" xmlns:xlink="http://www.w3.org/1999/xlink" version="1.1" viewBox="-10 0 391 1000">
  <g transform="matrix(1 0 0 -1 0 800)">
   <path fill="currentColor"
d="M53 177q-9 0 -13 7.5t-4 13.5q0 9 7.5 15t17.5 6h206q6 0 11 -3.5t5 -8.5q0 -1 -0.5 -2t-0.5 -2q-4 -11 -12.5 -18.5t-21.5 -7.5h-195zM59 -3q-9 0 -14.5 3t-5.5 9q0 8 6 11.5t17 6.5q20 5 29 14t9 24v220q0 25 -7 42.5t-30 22.5q-4 1 -7.5 5t-3.5 10q0 11 10 14
q28 8 60 22.5t52 25.5q6 4 10.5 6t7.5 2q6 0 6 -8q0 -4 -0.5 -17t-1 -29t-1.5 -31q0 -4 3 -4q16 20 35.5 37t41.5 27.5t42 10.5q26 0 40 -10.5t14 -27.5q0 -11 -6.5 -25.5t-17 -25t-22.5 -10.5q-7 0 -15 3.5t-17 7.5t-17.5 7.5t-16.5 3.5q-24 0 -45.5 -18t-21.5 -70v-188
q0 -16 13.5 -25t39.5 -17q11 -3 17 -6.5t6 -10.5q0 -12 -19 -12q-30 0 -51.5 2.5t-47.5 2.5q-17 0 -30 -1t-27 -2.5t-34 -1.5z" />
  </g>

</svg>
