<?xml version="1.0" standalone="no"?>
<!DOCTYPE svg PUBLIC "-//W3C//DTD SVG 1.1//EN" "http://www.w3.org/Graphics/SVG/1.1/DTD/svg11.dtd" >
<svg xmlns="http://www.w3.org/2000/svg" xmlns:xlink="http://www.w3.org/1999/xlink" version="1.1" viewBox="-10 0 429 1000">
  <g transform="matrix(1 0 0 -1 0 800)">
   <path fill="currentColor"
d="M149 -288q-38 0 -70 9t-50.5 26.5t-18.5 42.5q0 31 20.5 52t53 37t66.5 29q34 14 65 29.5t50.5 35.5t19.5 49q0 32 -26 53t-77 21q-26 0 -53 -5.5t-39 -5.5q-5 0 -8.5 3t-3.5 6q0 7 3 13.5t9 12.5l155 236q5 10 -9 10q-20 1 -38 2t-37 1q-26 0 -44 -11.5t-38 -34.5
l-10.5 -14t-15 -19t-12.5 -10q-7 -5 -10 1q-1 2 -0.5 7t1.5 9q4 11 7.5 30t6 41t2.5 40q0 8 4.5 11.5t8.5 3.5q6 0 17 -9q4 -3 19 -4.5t30 -1.5h84q34 0 57.5 1t45.5 1.5t49 0.5q5 0 8 -4t4 -9t-1 -8q-9 -13 -16.5 -24t-17.5 -27q-24 -37 -44.5 -67t-41.5 -60.5t-46 -70.5
q-4 -6 -0.5 -9.5t10.5 -3.5q7 2 20.5 2h19.5q59 1 96 -19.5t37 -64.5q0 -38 -25 -64t-64 -45t-84 -37q-31 -11 -58 -24.5t-43.5 -31t-16.5 -41.5q0 -31 26.5 -45t61.5 -14q39 0 70.5 16.5t63.5 54.5q5 7 11 9.5t11 2.5q14 0 20.5 -11.5t-2.5 -23.5q-13 -21 -47.5 -39.5
t-78.5 -29.5t-87 -11z" />
  </g>

</svg>
