<?xml version="1.0" standalone="no"?>
<!DOCTYPE svg PUBLIC "-//W3C//DTD SVG 1.1//EN" "http://www.w3.org/Graphics/SVG/1.1/DTD/svg11.dtd" >
<svg xmlns="http://www.w3.org/2000/svg" xmlns:xlink="http://www.w3.org/1999/xlink" version="1.1" viewBox="-10 0 378 1000">
  <g transform="matrix(1 0 0 -1 0 800)">
   <path fill="currentColor"
d="M49 -3q-10 0 -16.5 3t-6.5 8q0 8 7.5 12t15.5 7q18 5 27.5 12t10.5 26v143q0 60 27 108t75 76t109 28q30 0 45 -10t15 -27q0 -11 -6.5 -25.5t-17 -25t-22.5 -10.5q-7 0 -14.5 3.5t-16.5 6.5q-9 5 -17.5 8.5t-16.5 3.5q-23 0 -38.5 -7t-22.5 -26t-7 -55v-185
q1 -20 17.5 -29.5t35.5 -15.5q9 -3 16 -6.5t7 -11.5q0 -6 -6.5 -8.5t-14.5 -2.5q-19 0 -34.5 1.5t-30 2.5t-32.5 1q-17 0 -29.5 -1t-25.5 -2.5t-33 -1.5z" />
  </g>

</svg>
