<?xml version="1.0" standalone="no"?>
<!DOCTYPE svg PUBLIC "-//W3C//DTD SVG 1.1//EN" "http://www.w3.org/Graphics/SVG/1.1/DTD/svg11.dtd" >
<svg xmlns="http://www.w3.org/2000/svg" xmlns:xlink="http://www.w3.org/1999/xlink" version="1.1" viewBox="-10 0 540 1000">
  <g transform="matrix(1 0 0 -1 0 800)">
   <path fill="currentColor"
d="M39 -277q-6 0 -13.5 2.5t-7.5 8.5q0 8 7 12t16 7q17 5 29 12t12 26l-1 661q0 85 29 141t74.5 84.5t94.5 28.5q20 0 38 -3t31 -10t18 -19q3 -10 -0.5 -19t-8.5 -13q-4 -11 -15 -18.5t-24 -3.5q-8 1 -14.5 8.5t-13 17t-16.5 16t-25 6.5q-32 0 -53 -42t-21 -121v-152
q11 10 37 25.5t59 27.5t63 12q52 0 89 -28t57 -72t20 -91q0 -46 -17.5 -89t-49 -77.5t-72.5 -55t-89 -20.5q-13 0 -31 3.5t-35.5 10t-27.5 14.5q-1 0 -2 -8.5t-1.5 -18t-0.5 -13.5v-179q0 -13 9 -21t21.5 -12.5t25.5 -8.5q9 -3 16 -6.5t7 -11.5q0 -6 -7 -8.5t-14 -2.5
q-29 0 -53 2.5t-50 2.5q-17 0 -30 -1t-26.5 -2.5t-33.5 -1.5zM281 21q14 0 33 8.5t38.5 28.5t32.5 53t13 82q0 57 -13.5 91t-33.5 51.5t-40.5 23.5t-34.5 6q-23 0 -42 -7.5t-36 -21.5q-10 -7 -16 -23t-7 -46q0 -13 -0.5 -28.5t-0.5 -33.5q0 -24 0.5 -48.5t0.5 -39.5
q1 -13 5 -35.5t17 -36.5q10 -9 32 -16.5t52 -7.5z" />
  </g>

</svg>
