<?xml version="1.0" standalone="no"?>
<!DOCTYPE svg PUBLIC "-//W3C//DTD SVG 1.1//EN" "http://www.w3.org/Graphics/SVG/1.1/DTD/svg11.dtd" >
<svg xmlns="http://www.w3.org/2000/svg" xmlns:xlink="http://www.w3.org/1999/xlink" version="1.1" viewBox="-10 0 466 1000">
  <g transform="matrix(1 0 0 -1 0 800)">
   <path fill="currentColor"
d="M207 -14q-49 0 -89.5 26.5t-63.5 72.5t-23 102q0 62 27.5 115t76.5 85.5t111 32.5q9 0 20 -2t13 -2q-15 21 -27 47.5t-12 61.5q0 25 18.5 49t44.5 40t50 16t49 -7.5t36 -21.5q8 -9 8 -20q0 -18 -12 -33.5t-27 -15.5q-9 0 -16 7l-15 15q-9 10 -21.5 20t-30.5 10
q-15 0 -24.5 -12.5t-9.5 -28.5q0 -31 18.5 -61t37.5 -53q13 -16 23 -27t10 -15q0 -10 -7.5 -25t-18 -25.5t-18.5 -10.5q-14 0 -22 10q-14 19 -36 30t-61 11q-34 0 -56.5 -20.5t-33.5 -53t-11 -69.5q0 -49 18.5 -87t52 -60t78.5 -22q32 0 54 10.5t39 35.5q5 6 10 6q6 0 9 -4
t3 -10q0 -7 -3 -14.5t-8 -15.5q-13 -23 -36.5 -43t-55 -32t-69.5 -12z" />
  </g>

</svg>
