<?xml version="1.0" standalone="no"?>
<!DOCTYPE svg PUBLIC "-//W3C//DTD SVG 1.1//EN" "http://www.w3.org/Graphics/SVG/1.1/DTD/svg11.dtd" >
<svg xmlns="http://www.w3.org/2000/svg" xmlns:xlink="http://www.w3.org/1999/xlink" version="1.1" viewBox="-10 0 273 1000">
  <g transform="matrix(1 0 0 -1 0 800)">
   <path fill="currentColor"
d="M42 -3q-8 0 -13.5 3t-5.5 9q0 8 6.5 11.5t14.5 5.5q23 6 34 13t11 25v216q0 30 -10 48.5t-35 22.5q-5 1 -7.5 4.5t-2.5 10.5q0 12 9 13q44 10 75.5 26.5t47.5 26.5q11 7 16 7q8 0 8 -8q0 -11 -2.5 -35t-5 -52t-2.5 -52v-228q0 -16 11 -24t34 -14q8 -2 14.5 -5.5
t6.5 -11.5q0 -12 -18 -12q-19 0 -34 1.5t-28.5 2.5t-31.5 1q-17 0 -31 -1t-27.5 -2.5t-33.5 -1.5zM39 469q-8 0 -13 7.5t-5 20.5q0 33 11 59.5t36 42.5t64 16t64 -17.5t36 -44.5t11 -56q0 -13 -4.5 -20.5t-13.5 -7.5q-7 0 -10.5 6.5t-7.5 14.5q-6 13 -12.5 27t-20.5 24
t-42 10t-42 -10t-20.5 -24t-12.5 -27q-4 -8 -7 -14.5t-11 -6.5z" />
  </g>

</svg>
