<?xml version="1.0" standalone="no"?>
<!DOCTYPE svg PUBLIC "-//W3C//DTD SVG 1.1//EN" "http://www.w3.org/Graphics/SVG/1.1/DTD/svg11.dtd" >
<svg xmlns="http://www.w3.org/2000/svg" xmlns:xlink="http://www.w3.org/1999/xlink" version="1.1" viewBox="-75 0 338 1000">
  <g transform="matrix(1 0 0 -1 0 800)">
   <path fill="currentColor"
d="M42 -3q-8 0 -13.5 3t-5.5 9q0 8 6.5 11.5t14.5 5.5q23 6 34 13t11 25v216q0 30 -10 48.5t-35 22.5q-5 1 -7.5 4.5t-2.5 10.5q0 12 9 13q44 10 75.5 26.5t47.5 26.5q11 7 16 7q8 0 8 -8q0 -11 -2.5 -35t-5 -52t-2.5 -52v-228q0 -16 11 -24t34 -14q8 -2 14.5 -5.5
t6.5 -11.5q0 -12 -18 -12q-19 0 -34 1.5t-28.5 2.5t-31.5 1q-17 0 -31 -1t-27.5 -2.5t-33.5 -1.5zM215 457q-6 0 -14.5 6.5t-14.5 13.5q-13 17 -31 41.5t-36 50t-30 44.5q-4 6 -6.5 11t-2.5 8q0 13 15 18.5t36 5.5q15 0 22.5 -5.5t11.5 -16.5q7 -13 17.5 -40t21.5 -55.5
t16 -48.5q5 -15 5 -20q0 -7 -2 -10t-8 -3zM70 457q-6 0 -14.5 6.5t-13.5 13.5q-14 17 -32.5 41t-36 49t-29.5 44q-3 7 -6 12.5t-3 8.5q0 13 15.5 18.5t38.5 5.5q12 0 19.5 -5.5t12.5 -16.5q7 -13 17.5 -40t21 -55t15.5 -48q5 -16 5 -21q0 -7 -1.5 -10t-8.5 -3z" />
  </g>

</svg>
