<?xml version="1.0" standalone="no"?>
<!DOCTYPE svg PUBLIC "-//W3C//DTD SVG 1.1//EN" "http://www.w3.org/Graphics/SVG/1.1/DTD/svg11.dtd" >
<svg xmlns="http://www.w3.org/2000/svg" xmlns:xlink="http://www.w3.org/1999/xlink" version="1.1" viewBox="-13 0 474 1000">
  <g transform="matrix(1 0 0 -1 0 800)">
   <path fill="currentColor"
d="M233 430q5 0 11 -14.5t10 -25.5q7 -17 14.5 -37t13.5 -37q23 -61 49 -119t51 -118q8 -20 21.5 -34.5t29.5 -19.5q9 -4 13.5 -7.5t4.5 -10.5t-8 -8.5t-13 -1.5q-22 0 -32.5 1t-21 2.5t-28.5 1.5q-20 0 -31.5 -1.5t-24 -2.5t-33.5 -1q-5 0 -13 2t-8 8q0 8 7 11.5t16 7.5
q10 4 15.5 15t5.5 26q0 8 -0.5 15.5t-3.5 13.5l-75 194q-1 1 -1.5 1t-1.5 -1l-70 -182q-4 -9 -5.5 -19.5t-1.5 -18.5q0 -19 6.5 -29t21.5 -15q12 -4 17.5 -7.5t5.5 -10.5t-7 -9t-14 -2q-17 1 -33.5 2.5t-38.5 1.5t-33 -1.5t-29 -2.5q-8 0 -15 2t-7 8q0 12 22 19q16 5 33 23
t27 43l78 191q3 5 8.5 18.5t11.5 29t10.5 27.5t5.5 14q2 3 7 14.5t10.5 24t10.5 19.5h12z" />
  </g>

</svg>
