<?xml version="1.0" standalone="no"?>
<!DOCTYPE svg PUBLIC "-//W3C//DTD SVG 1.1//EN" "http://www.w3.org/Graphics/SVG/1.1/DTD/svg11.dtd" >
<svg xmlns="http://www.w3.org/2000/svg" xmlns:xlink="http://www.w3.org/1999/xlink" version="1.1" viewBox="-10 0 436 1000">
  <g transform="matrix(1 0 0 -1 0 800)">
   <path fill="currentColor"
d="M44 -3q-5 0 -12.5 2t-7.5 8q0 7 6 10.5t14 6.5q17 6 29.5 12t12.5 26v281q0 20 -9 27.5t-27 12.5q-8 3 -14.5 7t-6.5 10t7 8t13 2q21 0 32.5 -1.5t22 -3t28.5 -1.5q19 0 29.5 1.5t22.5 3t33 1.5q5 0 12.5 -2t7.5 -8t-6 -10t-14 -7q-18 -5 -28.5 -12.5t-10.5 -27.5v-101
q0 -5 3.5 -6.5t6.5 -0.5q10 5 31.5 7t37.5 2q19 0 43 -6t46.5 -19.5t37 -36t14.5 -56.5q0 -47 -24.5 -75.5t-65 -41t-87.5 -12.5q-19 0 -32.5 1.5t-26 2t-31.5 0.5q-16 0 -29 -0.5t-27 -2t-31 -1.5zM224 29q30 0 53.5 22.5t23.5 66.5q0 47 -21 69.5t-63 22.5q-22 0 -31 -6
q-6 -4 -7 -11.5t-1 -11.5v-106q0 -22 14.5 -34t31.5 -12z" />
  </g>

</svg>
