<?xml version="1.0" standalone="no"?>
<!DOCTYPE svg PUBLIC "-//W3C//DTD SVG 1.1//EN" "http://www.w3.org/Graphics/SVG/1.1/DTD/svg11.dtd" >
<svg xmlns="http://www.w3.org/2000/svg" xmlns:xlink="http://www.w3.org/1999/xlink" version="1.1" viewBox="-15 0 1035 1000">
  <g transform="matrix(1 0 0 -1 0 800)">
   <path fill="currentColor"
d="M99 -18q-30 0 -57 7t-38 15q-4 2 -6.5 6t-2.5 8q0 5 3.5 9t8.5 4q33 2 60 23t51.5 54.5t47.5 70.5q22 35 43 70.5t43 63t46 39.5q6 3 5 8t-7 11q-10 11 -21 26.5t-21 41.5l-35 82q-14 33 -29.5 41.5t-31.5 8.5q-13 0 -33.5 -10.5t-36.5 -10.5t-28.5 17.5t-12.5 41.5
q0 22 11.5 38t47.5 16q40 0 66.5 -14t43.5 -37.5t30 -53.5l41 -93q24 -51 50 -77.5t72 -29.5h32q6 0 7 3.5t1 14.5v179q0 34 -14 46t-53 20q-29 6 -29 20q0 7 7.5 10t18.5 3q26 0 46 -1t39.5 -2t41.5 -1q21 0 39 0.5t38 1.5t45 1q12 0 18.5 -2.5t6.5 -9.5q0 -8 -7 -12.5
t-22 -7.5q-38 -9 -53.5 -21t-15.5 -46v-178q0 -11 1.5 -14.5t6.5 -3.5h32q46 3 73 29t49 78l40 93q19 44 50.5 74.5t91.5 30.5q36 0 47 -16t11 -38q0 -24 -12.5 -41.5t-28.5 -17.5t-36.5 10.5t-33.5 10.5q-15 0 -31 -8.5t-30 -41.5l-35 -83q-10 -25 -20 -39.5t-20 -25.5
q-12 -13 -2 -19q23 -12 44.5 -39t42.5 -61.5t43 -70.5q24 -39 48.5 -73.5t52 -56.5t58.5 -22q5 0 9 -4t4 -9q0 -4 -3 -8t-7 -6q-11 -8 -37.5 -15t-57.5 -7q-25 0 -48.5 13.5t-44.5 37t-40 52.5t-36 59q-28 50 -52.5 93t-46.5 60q-8 8 -14.5 13.5t-19 9t-39.5 3.5
q-5 0 -7 -5.5t-2 -10.5l1 -208q0 -23 7.5 -37t23.5 -21.5t41 -13.5q15 -3 23 -7t8 -12q0 -6 -8.5 -9.5t-20.5 -3.5q-28 0 -48 2t-37 3t-39 1q-24 0 -42.5 -1.5t-39 -3t-50.5 -1.5q-12 0 -20 3t-8 10q0 13 30 19q38 7 55.5 22t17.5 49v209q0 5 -2 10.5t-7 5.5
q-27 0 -39.5 -3.5t-19 -9t-14.5 -13.5q-16 -11 -33 -35.5t-35 -57t-38 -67.5q-22 -39 -47.5 -74.5t-54 -58t-60.5 -22.5z" />
  </g>

</svg>
