<?xml version="1.0" standalone="no"?>
<!DOCTYPE svg PUBLIC "-//W3C//DTD SVG 1.1//EN" "http://www.w3.org/Graphics/SVG/1.1/DTD/svg11.dtd" >
<svg xmlns="http://www.w3.org/2000/svg" xmlns:xlink="http://www.w3.org/1999/xlink" version="1.1" viewBox="-10 0 454 1000">
  <g transform="matrix(1 0 0 -1 0 800)">
   <path fill="currentColor"
d="M111 -3q-6 0 -12.5 2t-6.5 8q0 8 6.5 12t14.5 7q19 6 32 12.5t13 25.5v171q0 36 13.5 63.5t31.5 46.5t32 28q16 11 33.5 29.5t29 46.5t11.5 65q0 66 -33 106.5t-94 40.5q-20 0 -39.5 -9.5t-33 -25t-13.5 -35.5t-11 -33.5t-26 -20t-29 -6.5q-10 0 -15.5 4t-5.5 15
q0 33 23 67t68 57.5t109 23.5q62 0 107.5 -18.5t70.5 -54t25 -87.5q0 -32 -10.5 -60.5t-27 -51.5t-33.5 -39.5t-29 -25.5q-29 -21 -46 -51t-17 -63v-183q0 -18 13 -25t32 -13q8 -3 14.5 -6.5t6.5 -11.5q0 -7 -6.5 -9t-11.5 -2q-19 0 -34 1.5t-28.5 2.5t-31.5 1
q-17 0 -30.5 -1t-27.5 -2.5t-34 -1.5z" />
  </g>

</svg>
