<?xml version="1.0" standalone="no"?>
<!DOCTYPE svg PUBLIC "-//W3C//DTD SVG 1.1//EN" "http://www.w3.org/Graphics/SVG/1.1/DTD/svg11.dtd" >
<svg xmlns="http://www.w3.org/2000/svg" xmlns:xlink="http://www.w3.org/1999/xlink" version="1.1" viewBox="-10 0 493 1000">
  <g transform="matrix(1 0 0 -1 0 800)">
   <path fill="currentColor"
d="M243 -15q-69 0 -113.5 36t-66.5 96.5t-23 133.5q0 106 25 191t79.5 141t141.5 72l50 9q30 5 47.5 11t28.5 12.5t21 14.5q1 1 4 1q4 0 5.5 -4.5t1.5 -7.5q0 -24 -10 -49.5t-32.5 -44.5t-59.5 -26l-121 -22q-37 -7 -61.5 -25t-35.5 -52t-8 -90q1 -8 6.5 -9t12.5 4
q20 17 50.5 29t76.5 12q63 0 105 -29.5t63 -75.5t21 -97q0 -59 -23 -112t-69 -86t-116 -33zM250 22q39 0 60.5 22.5t30 62.5t8.5 92q0 46 -13 88t-37 69t-57 27q-24 0 -45.5 -9.5t-34.5 -28.5q-14 -20 -18.5 -50t-4.5 -71q1 -56 14 -102t38 -73t59 -27z" />
  </g>

</svg>
