<?xml version="1.0" standalone="no"?>
<!DOCTYPE svg PUBLIC "-//W3C//DTD SVG 1.1//EN" "http://www.w3.org/Graphics/SVG/1.1/DTD/svg11.dtd" >
<svg xmlns="http://www.w3.org/2000/svg" xmlns:xlink="http://www.w3.org/1999/xlink" version="1.1" viewBox="-10 0 585 1000">
  <g transform="matrix(1 0 0 -1 0 800)">
   <path fill="currentColor"
d="M172 -14q-50 0 -81 17t-45.5 42.5t-14.5 51.5q0 21 10 35t33 29l327 214q11 8 26 19t29 19q5 2 9.5 3.5t6.5 1.5q8 0 15.5 -5.5t7.5 -14.5q0 -3 -3.5 -6.5t-8.5 -9.5q-12 -15 -18 -34.5t-5.5 -37.5t9.5 -30t26 -12q8 0 17 4.5t17 11t11 10.5q7 3 12.5 4t8.5 -2
q4 -3 2.5 -10.5t-6.5 -15t-11 -11.5q-5 -5 -17.5 -16.5t-30 -19t-39.5 -2.5q-21 4 -32.5 20.5t-12 40.5t9 49t27.5 47l2 -16l-39 -26t-62 -41t-72 -47.5t-72 -47.5t-61 -41t-37 -26q-7 -5 -11 -15.5t-4 -22.5q0 -19 13 -36.5t34.5 -28.5t47.5 -11q44 0 72.5 43t28.5 116
q0 48 -18 84.5t-51 56.5t-77 20q-31 0 -55.5 -12t-43.5 -34q-7 -7 -12 -7q-9 0 -9 11q0 8 4 17.5t11 19.5q13 25 35 44.5t50.5 31t61.5 11.5q55 0 96.5 -27.5t65 -77t23.5 -113.5q0 -58 -27.5 -107.5t-72.5 -79.5t-100 -30z" />
  </g>

</svg>
