<?xml version="1.0" standalone="no"?>
<!DOCTYPE svg PUBLIC "-//W3C//DTD SVG 1.1//EN" "http://www.w3.org/Graphics/SVG/1.1/DTD/svg11.dtd" >
<svg xmlns="http://www.w3.org/2000/svg" xmlns:xlink="http://www.w3.org/1999/xlink" version="1.1" viewBox="-161 0 323 1000">
  <g transform="matrix(1 0 0 -1 0 800)">
   <path fill="currentColor"
d="M-135 695q-16 0 -16 11q0 7 7 13l101 87q15 13 23.5 18.5t20.5 5.5t20.5 -5.5t23.5 -18.5l101 -87q6 -5 6 -13q0 -12 -15 -12q-5 0 -21 6t-36 15t-38.5 18t-29.5 15q-7 4 -11 4t-11 -4q-10 -6 -29 -15t-38.5 -17.5t-35.5 -14.5t-22 -6z" />
  </g>

</svg>
