<?xml version="1.0" standalone="no"?>
<!DOCTYPE svg PUBLIC "-//W3C//DTD SVG 1.1//EN" "http://www.w3.org/Graphics/SVG/1.1/DTD/svg11.dtd" >
<svg xmlns="http://www.w3.org/2000/svg" xmlns:xlink="http://www.w3.org/1999/xlink" version="1.1" viewBox="-10 0 431 1000">
  <g transform="matrix(1 0 0 -1 0 800)">
   <path fill="currentColor"
d="M193 -113q-8 0 -10.5 5t-2.5 13q0 20 5 45t13 49h-11.5t-14.5 0.5t-19.5 0.5h-28.5q-22 0 -46 -2.5t-37 -2.5q-4 0 -10.5 7.5t-6.5 13.5q0 4 6.5 14.5t15.5 24t16 22.5q25 37 46 68.5t41 63t43 67t50 80.5q2 3 2 7t-11 4h-96q-14 0 -25 -13t-25 -30q-3 -3 -8 -10
t-10.5 -14.5t-11 -13.5t-9.5 -7q-7 -2 -11.5 4.5t-2.5 13.5q4 11 8.5 30t8 40t3.5 36q0 9 6.5 14.5t10.5 5.5q6 0 17 -9q5 -4 18 -5t27 -1q11 0 21.5 0.5t17.5 0.5q50 0 98.5 1t95.5 2q5 0 8 -4t4.5 -9t-1.5 -8q-10 -14 -19 -25t-20 -27l-184 -284q-4 -6 1 -10.5t12 -4.5h47
q22 48 56 83t74 35q26 0 40.5 -9t20.5 -24.5t6 -38.5q0 -24 -10 -42t-25 -29t-29 -15.5t-23 -4.5q-14 0 -33.5 1.5t-51.5 2.5q-7 -18 -11.5 -35t-6.5 -33q-3 -18 -11 -31t-17 -13zM257 40h60q24 0 36 11t12 26q0 17 -7 29t-29 12q-15 0 -35.5 -22.5t-36.5 -55.5z" />
  </g>

</svg>
