<?xml version="1.0" standalone="no"?>
<!DOCTYPE svg PUBLIC "-//W3C//DTD SVG 1.1//EN" "http://www.w3.org/Graphics/SVG/1.1/DTD/svg11.dtd" >
<svg xmlns="http://www.w3.org/2000/svg" xmlns:xlink="http://www.w3.org/1999/xlink" version="1.1" viewBox="-10 0 516 1000">
  <g transform="matrix(1 0 0 -1 0 800)">
   <path fill="currentColor"
d="M26 -3q-10 0 -16 2t-6 8q0 12 22 19q43 13 67 65l110 237q7 14 10.5 24.5t3.5 19.5t-2.5 18.5t-7.5 21.5l-26 73l-122 -63q-8 -5 -14 -1t-6 10q0 17 2 26t9 13l116 60l-23 65q-7 19 -15 29t-26 10q-7 0 -16 -2t-18 -2t-13 4.5t-4 10.5q0 8 14.5 18t35 19.5t39.5 15.5
t28 6q10 0 18 -7.5t14 -19t10 -23.5l31 -85l101 52q13 7 20 5.5t7 -10.5q0 -15 -4 -26.5t-15 -17.5l-93 -48l163 -446q8 -19 20.5 -32t33.5 -20q22 -8 22 -19q0 -6 -6 -8t-15 -2q-12 0 -29.5 1t-33.5 2t-27 1t-28.5 -1l-35 -2t-28.5 -1q-9 0 -15 3t-6 9q0 7 7 12t20 9
t19.5 12t6.5 22q0 5 -2 12t-5 16l-68 195q-1 6 -6 6.5t-8 -5.5l-83 -178q-6 -13 -8.5 -23t-2.5 -16q0 -15 7.5 -25t20.5 -16q12 -5 20 -10t8 -11t-6 -9t-15 -3q-7 0 -23 1t-32.5 2t-24.5 1q-9 0 -23.5 -0.5t-27.5 -2t-20 -1.5z" />
  </g>

</svg>
