<?xml version="1.0" standalone="no"?>
<!DOCTYPE svg PUBLIC "-//W3C//DTD SVG 1.1//EN" "http://www.w3.org/Graphics/SVG/1.1/DTD/svg11.dtd" >
<svg xmlns="http://www.w3.org/2000/svg" xmlns:xlink="http://www.w3.org/1999/xlink" version="1.1" viewBox="-10 0 731 1000">
  <g transform="matrix(1 0 0 -1 0 800)">
   <path fill="currentColor"
d="M559 -205q-11 0 -16.5 6.5t-5.5 17.5q0 13 5 26q8 21 16 45.5t13.5 47t5.5 32.5q0 17 -10.5 24t-33.5 7q-19 0 -39 -1t-41 -2.5t-47 -1.5q-11 0 -18.5 2.5t-7.5 9.5q0 13 29 19q38 7 56.5 23.5t18.5 47.5v449q0 27 -8.5 43t-33.5 16h-116q-20 0 -28 -11t-8 -35
q0 -150 -15 -252t-39 -166.5t-51.5 -98.5t-54.5 -46t-47 -12q-37 0 -56 18t-19 44q0 21 8 33.5t20 12.5q17 -5 40 -8.5t46 -3.5q25 0 46.5 24t37.5 79t25 146t9 225q0 30 -15.5 44t-56.5 22q-29 6 -29 20q0 7 7 10t18 3q14 0 33 -1t40.5 -2.5t40.5 -1.5h47t43.5 0.5t46 0.5
h55h70.5q22 0 40 0.5t37.5 1.5t45.5 1q11 0 18 -2.5t7 -9.5q0 -8 -7 -12.5t-22 -7.5q-38 -9 -53.5 -23t-15.5 -48v-458q0 -22 14 -33t34 -15.5t38 -6.5q8 -1 10.5 -6.5t1.5 -11.5q0 -8 -11 -28t-26.5 -47.5t-32 -59t-29.5 -62.5q-4 -13 -12.5 -20t-17.5 -7z" />
  </g>

</svg>
