<?xml version="1.0" standalone="no"?>
<!DOCTYPE svg PUBLIC "-//W3C//DTD SVG 1.1//EN" "http://www.w3.org/Graphics/SVG/1.1/DTD/svg11.dtd" >
<svg xmlns="http://www.w3.org/2000/svg" xmlns:xlink="http://www.w3.org/1999/xlink" version="1.1" viewBox="-10 0 517 1000">
  <g transform="matrix(1 0 0 -1 0 800)">
   <path fill="currentColor"
d="M383 -155q-18 0 -18 18q0 6 1.5 12t3.5 13q5 15 10 32.5t8 33t3 24.5q0 12 -7 17.5t-25 5.5q-15 0 -25.5 -0.5t-22.5 -2t-31 -1.5q-6 0 -12.5 2t-6.5 9q0 8 7 12t15 7q15 5 27 11t12 26v270q0 11 -4 23.5t-17 12.5h-69q-14 0 -17 -14t-3 -23q0 -41 -4.5 -88t-14 -93
t-24.5 -83.5t-37 -60t-51 -22.5q-39 0 -58 17.5t-19 38.5q0 19 12 33t32 14q12 0 21 -5.5t16 -12.5q6 -5 11.5 -9.5t11.5 -4.5q15 0 26.5 26.5t20 68.5t13.5 89t5 86q0 28 -14.5 36t-40.5 13q-6 2 -13 6.5t-7 12.5q0 7 9 11t13 4q22 0 37 -1.5t34 -1.5h190q22 0 36.5 1.5
t37.5 1.5q3 0 11.5 -4t8.5 -11t-6 -12.5t-12 -6.5q-22 -5 -32.5 -15t-10.5 -45v-249q0 -17 9 -25.5t23 -12t28 -5.5q6 -1 8 -5.5t1 -9.5q0 -8 -13.5 -29t-30 -50t-29.5 -63q-9 -22 -27 -22z" />
  </g>

</svg>
