<?xml version="1.0" standalone="no"?>
<!DOCTYPE svg PUBLIC "-//W3C//DTD SVG 1.1//EN" "http://www.w3.org/Graphics/SVG/1.1/DTD/svg11.dtd" >
<svg xmlns="http://www.w3.org/2000/svg" xmlns:xlink="http://www.w3.org/1999/xlink" version="1.1" viewBox="-10 0 564 1000">
  <g transform="matrix(1 0 0 -1 0 800)">
   <path fill="currentColor"
d="M516 -287q-23 0 -49.5 20t-50 51t-40.5 64q-20 37 -24 79t-4 70q1 12 1 27t1 27v6q-17 -26 -50.5 -48.5t-80.5 -22.5q-57 0 -99 29.5t-65.5 76.5t-23.5 100q0 61 28 113t80 83.5t122 31.5q18 0 37.5 -3.5t30.5 -7.5q11 -3 13 -3q7 0 7 21v133q0 39 -12 54t-35 19
q-10 2 -10 14q0 10 9 13q42 10 72 21t48 18q7 4 11 4.5t6 0.5q8 0 8 -8q0 -3 -1 -16t-3 -37t-2 -59l-2 -521q0 -25 0.5 -60t3 -72t8.5 -70.5t17 -56.5q14 -29 29.5 -42t33.5 -19q4 -2 9 -6.5t5 -11.5q0 -6 -9 -9t-19 -3zM261 42q20 0 37 6.5t29 18.5q11 15 16.5 35.5
t5.5 38.5l-1 140q0 23 -14.5 46.5t-39.5 38t-57 14.5q-23 0 -49 -15.5t-44 -51.5t-18 -97q0 -51 14 -85t35.5 -53.5t45 -27.5t40.5 -8z" />
  </g>

</svg>
