<?xml version="1.0" standalone="no"?>
<!DOCTYPE svg PUBLIC "-//W3C//DTD SVG 1.1//EN" "http://www.w3.org/Graphics/SVG/1.1/DTD/svg11.dtd" >
<svg xmlns="http://www.w3.org/2000/svg" xmlns:xlink="http://www.w3.org/1999/xlink" version="1.1" viewBox="-10 0 513 1000">
  <g transform="matrix(1 0 0 -1 0 800)">
   <path fill="currentColor"
d="M215 -216q-10 0 -19.5 2t-9.5 10t5.5 11.5t11.5 6.5q46 21 81 73.5t55 126.5t20 155q0 71 -12 111t-33.5 56.5t-50.5 16.5q-18 0 -36.5 -4t-30.5 -14q-14 -11 -19 -29t-5 -43v-196q0 -20 10.5 -27.5t25.5 -12.5q8 -3 15 -7t7 -12q0 -7 -7 -9t-14 -2q-20 0 -32 1.5
t-23 2.5t-29 1q-17 0 -29.5 -1t-25 -2.5t-32.5 -1.5q-7 0 -14.5 2t-7.5 9q0 8 7 11.5t16 7.5q15 5 28 12t13 28v441h-50q-8 0 -12 7t-4 13q0 9 7.5 15t17.5 6h41q-1 43 -10 61t-33 23q-9 2 -9 14q0 11 8 13q26 5 49.5 13t44 16.5t35.5 13.5q3 1 4 1.5t2 0.5q4 0 6 -2.5
t2 -6.5q0 -14 -3.5 -37.5t-4.5 -52.5v-57h157q6 0 11.5 -3t5.5 -9q0 -8 -11.5 -18.5t-24.5 -10.5h-138v-119q0 -9 1 -19.5t5 -15.5q7 8 25.5 20t46 22t57.5 10q54 0 85 -26t44.5 -72t13.5 -107q0 -82 -20 -148.5t-51.5 -116.5t-65 -84t-60 -51t-37.5 -17z" />
  </g>

</svg>
