<?xml version="1.0" standalone="no"?>
<!DOCTYPE svg PUBLIC "-//W3C//DTD SVG 1.1//EN" "http://www.w3.org/Graphics/SVG/1.1/DTD/svg11.dtd" >
<svg xmlns="http://www.w3.org/2000/svg" xmlns:xlink="http://www.w3.org/1999/xlink" version="1.1" viewBox="-10 0 581 1000">
  <g transform="matrix(1 0 0 -1 0 800)">
   <path fill="currentColor"
d="M533 -287q-22 0 -49.5 19.5t-51.5 50.5t-38 65q-20 37 -24 79t-4 70q0 15 -2 21.5t-4 6.5q-2 -1 -4.5 -2t-4.5 -3q-18 -12 -50.5 -23t-73.5 -11q-53 0 -97.5 24t-71.5 68t-27 105q0 68 29.5 121.5t85.5 85t132 31.5q34 0 62 -6t47 -11.5t24 -5.5q11 0 17.5 6t12.5 15
q2 2 4.5 3.5t5.5 1.5q6 0 11 -3t5 -8q0 -9 -5.5 -39t-5.5 -74l-1 -237q0 -25 1 -60t3.5 -72t8.5 -70.5t17 -56.5q13 -29 29 -42t33 -19q5 -2 9.5 -6.5t4.5 -11.5q0 -6 -8.5 -9t-19.5 -3zM271 30q22 0 40.5 5.5t35.5 18.5q9 7 13 24.5t5.5 40.5t1.5 45v59.5t-1 53.5
q-1 46 -33 77t-77 31q-33 0 -61 -21.5t-44.5 -60.5t-16.5 -93q0 -44 12.5 -77.5t32.5 -56.5t44.5 -34.5t47.5 -11.5z" />
  </g>

</svg>
