<?xml version="1.0" standalone="no"?>
<!DOCTYPE svg PUBLIC "-//W3C//DTD SVG 1.1//EN" "http://www.w3.org/Graphics/SVG/1.1/DTD/svg11.dtd" >
<svg xmlns="http://www.w3.org/2000/svg" xmlns:xlink="http://www.w3.org/1999/xlink" version="1.1" viewBox="-10 0 721 1000">
  <g transform="matrix(1 0 0 -1 0 800)">
   <path fill="currentColor"
d="M200 -14q-53 0 -83.5 30t-30.5 92v232q0 9 -5.5 12t-19.5 3h-15q-5 1 -9.5 8.5t-4.5 14.5q0 5 5 7q19 6 38 18.5t36 27.5t28 28q9 10 15 16.5t11 6.5q6 0 10.5 -2t3.5 -11l-2 -46q0 -9 6.5 -12.5t16.5 -3.5h116q3 0 5.5 -7.5t2.5 -15.5q0 -11 -2.5 -20t-6.5 -9h-97
q-25 0 -32.5 -5t-7.5 -23v-188q0 -53 20 -73t45 -20q31 0 61.5 11.5t58.5 27.5q-23 46 -23 102q0 62 27.5 115t76.5 85.5t111 32.5q33 0 67.5 -11t58.5 -40q6 -8 6 -14q0 -16 -15.5 -28t-27.5 -12q-16 0 -27 12q-17 20 -29 31t-26 15t-37 4q-34 0 -56.5 -21t-33.5 -54
t-11 -72q0 -25 5 -47.5t15 -43.5q38 23 78 39t85 16q36 0 63 -18.5t27 -55.5q0 -36 -24 -66.5t-65 -49t-94 -18.5q-39 0 -72 17.5t-56 46.5q-43 -25 -90 -44.5t-96 -19.5zM574 49q34 0 51.5 17.5t17.5 34.5q0 20 -11.5 33.5t-46.5 13.5q-27 0 -56.5 -13t-60.5 -33
q20 -25 47.5 -39t58.5 -14z" />
  </g>

</svg>
