<?xml version="1.0" standalone="no"?>
<!DOCTYPE svg PUBLIC "-//W3C//DTD SVG 1.1//EN" "http://www.w3.org/Graphics/SVG/1.1/DTD/svg11.dtd" >
<svg xmlns="http://www.w3.org/2000/svg" xmlns:xlink="http://www.w3.org/1999/xlink" version="1.1" viewBox="-10 0 720 1000">
  <g transform="matrix(1 0 0 -1 0 800)">
   <path fill="currentColor"
d="M406 -15q-72 0 -138.5 24t-117.5 68t-80.5 106t-29.5 138q0 71 30 133.5t83.5 109t124.5 73t154 26.5q37 0 66 -3.5t56 -9.5t58 -16q13 -4 19.5 -11t7.5 -21q3 -26 5.5 -54t3.5 -62q0 -9 -7.5 -13t-16.5 -1.5t-12 13.5q-9 33 -21 59t-35 43q-23 18 -58.5 28t-79.5 10
q-56 0 -103 -23t-80 -62.5t-51.5 -89.5t-18.5 -104q0 -63 17.5 -121t51 -103t81.5 -71.5t108 -26.5q72 0 119 32.5t79 93.5q7 14 21 14t14 -16q0 -10 -3.5 -27.5t-9.5 -38t-12 -37.5q-6 -13 -11 -18t-19 -10q-38 -16 -89.5 -24t-105.5 -8zM332 -275q-23 0 -35.5 8t-12.5 28
q0 17 6 25t12 8t16.5 -6.5t45.5 -6.5q20 0 31.5 10t11.5 29q0 25 -13 37t-35 12q-8 0 -13 -2t-12 -2q-14 0 -20.5 7t-6.5 12t1.5 9t4.5 7l84 108h37l-37 -53q-11 -15 6 -22q22 -8 43.5 -30t21.5 -56q0 -35 -23.5 -62.5t-55 -43.5t-57.5 -16z" />
  </g>

</svg>
