<?xml version="1.0" standalone="no"?>
<!DOCTYPE svg PUBLIC "-//W3C//DTD SVG 1.1//EN" "http://www.w3.org/Graphics/SVG/1.1/DTD/svg11.dtd" >
<svg xmlns="http://www.w3.org/2000/svg" xmlns:xlink="http://www.w3.org/1999/xlink" version="1.1" viewBox="-84 0 434 1000">
  <g transform="matrix(1 0 0 -1 0 800)">
   <path fill="currentColor"
d="M42 -200q-116 0 -116 52q0 18 15.5 34.5t28.5 16.5q12 0 23.5 -5.5t21.5 -18.5q15 -19 25 -28.5t23 -9.5q33 0 49 41.5t16 119.5v549q0 34 -14.5 48t-51.5 22q-29 6 -29 20q0 7 7.5 10t18.5 3q25 0 45.5 -1t39.5 -2t41 -1q19 0 35 0.5t34 1.5t43 1q11 0 18 -2.5t7 -9.5
q0 -8 -7 -12.5t-22 -7.5q-38 -9 -48.5 -23t-10.5 -47v-490q0 -37 -12 -72.5t-30.5 -66.5t-37.5 -54q-23 -29 -51.5 -48.5t-60.5 -19.5z" />
  </g>

</svg>
