<?xml version="1.0" standalone="no"?>
<!DOCTYPE svg PUBLIC "-//W3C//DTD SVG 1.1//EN" "http://www.w3.org/Graphics/SVG/1.1/DTD/svg11.dtd" >
<svg xmlns="http://www.w3.org/2000/svg" xmlns:xlink="http://www.w3.org/1999/xlink" version="1.1" viewBox="-10 0 749 1000">
  <g transform="matrix(1 0 0 -1 0 800)">
   <path fill="currentColor"
d="M235 -4q-11 0 -18 2.5t-7 9.5q0 13 29 19q38 7 56 25t18 53v187q0 34 -5.5 75t-18 81.5t-32.5 73t-47.5 52.5t-64.5 20t-66.5 -12.5t-45.5 -30.5q-4 -4 -8 -4q-8 0 -8 9q0 7 4 13t11 14q13 16 35 32.5t49.5 27.5t56.5 11q45 0 78.5 -19t57 -46.5t38 -55.5t21.5 -45
q4 -9 5 -9q2 0 3.5 3l2.5 5q8 18 25 46t43 55.5t61 46.5t78 19t75 -17.5t55 -42.5q4 -4 8 -11t4 -12q0 -10 -9 -10q-2 0 -8 4q-19 15 -47 23t-59 8q-47 0 -82 -26.5t-58 -70.5t-34.5 -97.5t-11.5 -108.5v-188q0 -32 19 -51t56 -27q15 -3 22 -7t7 -12q0 -6 -7 -9t-18 -3
q-25 0 -46 1.5t-40.5 2.5t-41.5 1q-24 0 -44.5 -1t-42.5 -2.5t-48 -1.5zM231 721q-7 0 -11.5 4.5t-4.5 9.5q0 9 3 20.5t9.5 20t15.5 8.5h265q7 0 11 -4t4 -10q0 -18 -10.5 -33.5t-23.5 -15.5h-258z" />
  </g>

</svg>
