<?xml version="1.0" standalone="no"?>
<!DOCTYPE svg PUBLIC "-//W3C//DTD SVG 1.1//EN" "http://www.w3.org/Graphics/SVG/1.1/DTD/svg11.dtd" >
<svg xmlns="http://www.w3.org/2000/svg" xmlns:xlink="http://www.w3.org/1999/xlink" version="1.1" viewBox="-10 0 526 1000">
  <g transform="matrix(1 0 0 -1 0 800)">
   <path fill="currentColor"
d="M40 -3q-22 0 -22 12q0 8 7 11t16 7q15 5 28 12t13 28v493q0 33 -9 50t-34 23q-9 2 -9 14q0 11 8 13q26 5 48.5 13t42 15.5t34.5 13.5q7 3 11 3t5.5 -2.5t1.5 -7.5q0 -9 -3.5 -35t-3.5 -76v-344q0 -10 6 -10q5 0 13 4t16 11q40 34 68 64t38 43q4 6 6.5 9.5t2.5 6.5
q0 5 -8.5 9.5t-19.5 6.5q-12 2 -12 10q0 6 6.5 9.5t15.5 3.5h49q16 0 37.5 2.5t41.5 5.5t30 3q13 0 13 -11q0 -6 -6.5 -11t-17.5 -8q-18 -4 -37 -13.5t-36 -19.5q-10 -6 -31 -22t-45 -36t-45 -39q-6 -5 -6 -10q0 -2 1.5 -4t2.5 -4q26 -32 53 -64t51 -58t39 -42
q17 -17 39.5 -30t37.5 -19q10 -3 19.5 -6.5t9.5 -11.5q0 -12 -20 -12q-47 0 -98.5 1.5t-102.5 1.5q-19 0 -19 11q0 6 5.5 10.5t13.5 6.5q10 4 16.5 8.5t6.5 12.5q0 3 -2 7t-6 9l-113 136q-4 6 -8 6q-5 -1 -5 -7q-1 -15 -1 -31v-33v-34.5t1 -35.5q0 -18 9 -26t24 -13
q8 -3 15 -6.5t7 -11.5q0 -7 -8 -9.5t-13 -2.5q-19 0 -31 1.5t-22 2.5t-28 1q-17 0 -29 -1t-25 -2.5t-33 -1.5zM273 617q-9 0 -9 10q0 3 1 8t3 11q7 19 21.5 48t29 57t22.5 42q6 10 14.5 15t18.5 5q21 0 37 -5t16 -17q0 -6 -2.5 -10.5t-7.5 -11.5q-15 -19 -35.5 -44t-42 -49
t-37.5 -40q-19 -19 -29 -19z" />
  </g>

</svg>
