<?xml version="1.0" standalone="no"?>
<!DOCTYPE svg PUBLIC "-//W3C//DTD SVG 1.1//EN" "http://www.w3.org/Graphics/SVG/1.1/DTD/svg11.dtd" >
<svg xmlns="http://www.w3.org/2000/svg" xmlns:xlink="http://www.w3.org/1999/xlink" version="1.1" viewBox="-10 0 410 1000">
  <g transform="matrix(1 0 0 -1 0 800)">
   <path fill="currentColor"
d="M212 -15q-54 0 -95.5 27.5t-65.5 77t-24 114.5q0 59 27.5 108t73.5 78.5t101 29.5q41 0 73.5 -16.5t51 -46t18.5 -67.5q0 -33 -31 -33h-207q-14 0 -20 -8t-6 -29q0 -44 20 -80.5t53 -58.5t73 -22q30 0 54.5 11.5t45.5 32.5q3 4 5.5 6t5.5 2q9 0 9 -11q0 -16 -14 -38
q-14 -21 -35.5 -38.5t-50 -28t-62.5 -10.5zM135 291h80q26 0 41 1t28 4q5 2 7 8.5t2 16.5q0 28 -23 47.5t-55 19.5q-22 0 -43.5 -13t-35.5 -32.5t-13 -39.5q0 -12 12 -12zM215 621q-6 0 -12.5 -6.5t-11.5 -13.5l-10.5 -12.5t-25.5 -31t-29 -38.5t-21 -34q-3 -6 -5.5 -11.5
t-2.5 -9.5q0 -6 1.5 -9.5t8.5 -3.5q8 0 15.5 4.5t15.5 12.5q18 17 34 31.5t34 32.5q5 5 8.5 5t9.5 -5q18 -17 33.5 -31.5t33.5 -32.5q8 -7 16 -12t15 -5q11 0 11 10q0 5 -2.5 11.5t-5.5 12.5q-7 14 -21.5 33.5t-29 38.5t-25 31.5l-10.5 12.5q-4 7 -10.5 13.5t-13.5 6.5z
M134 572q7 0 7 11q0 6 -6 27.5t-14 48t-14.5 47.5t-8.5 24q-5 8 -11 13.5t-13 5.5t-19.5 -4.5t-22.5 -11.5t-10 -16q0 -4 8.5 -17.5t20.5 -31.5t25 -35.5t22.5 -30t11.5 -14.5q5 -5 12 -10.5t12 -5.5z" />
  </g>

</svg>
