<?xml version="1.0" standalone="no"?>
<!DOCTYPE svg PUBLIC "-//W3C//DTD SVG 1.1//EN" "http://www.w3.org/Graphics/SVG/1.1/DTD/svg11.dtd" >
<svg xmlns="http://www.w3.org/2000/svg" xmlns:xlink="http://www.w3.org/1999/xlink" version="1.1" viewBox="-10 0 485 1000">
  <g transform="matrix(1 0 0 -1 0 800)">
   <path fill="currentColor"
d="M209 -15q-42 0 -79 11.5t-68 34.5q-4 4 -8.5 9.5t-6.5 11.5q-7 23 -9.5 57.5t-3.5 61.5q0 7 6 10.5t14 3.5q7 0 11.5 -2.5t6.5 -9.5q21 -76 62 -113.5t89 -37.5q34 0 58.5 15t38.5 40.5t14 57.5q0 38 -13 62t-38 43t-62 41q-40 24 -78.5 50t-63.5 61t-25 86
q0 54 25.5 95.5t74.5 66t118 24.5q36 0 65.5 -7.5t47.5 -15.5q9 -3 14.5 -10t8.5 -17q5 -21 11 -49t6 -57q0 -11 -16 -11q-9 0 -17 4t-10 10q-20 56 -49.5 85t-74.5 29q-30 0 -54.5 -10.5t-39 -34t-14.5 -61.5q0 -27 18.5 -50.5t50 -45t70.5 -44.5q41 -25 74 -52t52 -61.5
t19 -82.5q0 -63 -28 -107.5t-78.5 -67.5t-118.5 -23zM270 694q-26 0 -45 18.5t-19 43.5q0 27 19 45t45 18q28 0 47 -18t19 -45q0 -25 -19 -43.5t-47 -18.5z" />
  </g>

</svg>
