<?xml version="1.0" standalone="no"?>
<!DOCTYPE svg PUBLIC "-//W3C//DTD SVG 1.1//EN" "http://www.w3.org/Graphics/SVG/1.1/DTD/svg11.dtd" >
<svg xmlns="http://www.w3.org/2000/svg" xmlns:xlink="http://www.w3.org/1999/xlink" version="1.1" viewBox="-21 0 277 1000">
  <g transform="matrix(1 0 0 -1 0 800)">
   <path fill="currentColor"
d="M134 -14q-30 0 -50 27t-19 82l2 303q0 12 12.5 16.5t50.5 4.5q24 0 30 -6t6 -17q0 -12 -3 -39t-7 -61.5t-8 -70.5t-7 -67t-3 -49t10.5 -23t22.5 -5q16 0 32 5.5t20 5.5q7 0 9.5 -4t2.5 -13q0 -17 -12.5 -38t-35.5 -36t-53 -15zM234 450q-5 0 -11.5 7t-11.5 15
q-8 16 -21 39t-25 47t-20 42t-8 22q0 14 13.5 29t29.5 15q7 0 17 -4.5t12 -14.5l9 -39t12.5 -54.5t11 -52t4.5 -33.5q-1 -9 -2.5 -14t-9.5 -4zM15 455q-22 0 -22 11t15 15q24 7 39.5 22t15.5 37q0 16 -9.5 25.5t-24.5 12.5q-17 3 -28.5 13t-11.5 29t15 30.5t36 11.5
q39 0 60.5 -26.5t21.5 -64.5q0 -25 -10 -46t-25.5 -37t-34.5 -24.5t-37 -8.5z" />
  </g>

</svg>
