<?xml version="1.0" standalone="no"?>
<!DOCTYPE svg PUBLIC "-//W3C//DTD SVG 1.1//EN" "http://www.w3.org/Graphics/SVG/1.1/DTD/svg11.dtd" >
<svg xmlns="http://www.w3.org/2000/svg" xmlns:xlink="http://www.w3.org/1999/xlink" version="1.1" viewBox="-10 0 587 1000">
  <g transform="matrix(1 0 0 -1 0 800)">
   <path fill="currentColor"
d="M160 -14q-32 0 -56 17.5t-39.5 44.5t-23.5 58t-8 59q0 56 17.5 103t42.5 81t48 53t32 19q11 0 21.5 -9t17.5 -20t7 -20q0 -3 -7.5 -11t-20 -20t-27.5 -26q-22 -20 -42 -49t-33 -62t-13 -68q0 -19 6 -36.5t18 -28.5t30 -11q37 0 64 13.5t41.5 35t14.5 47.5q0 18 -7.5 40.5
t-7.5 38.5q0 17 17.5 31.5t40.5 14.5q17 0 32 -12.5t15 -34.5q0 -20 -9 -50.5t-18 -53.5q-1 -4 0 -12.5t2 -13.5q5 -16 15 -30.5t36 -14.5q36 0 56.5 25.5t29.5 63.5t9 77q0 44 -10.5 76t-24.5 53.5t-24.5 33t-10.5 13.5q0 8 7 14t13 6q26 0 50 -19t42.5 -50.5t29.5 -70
t11 -77.5q0 -53 -20 -103.5t-57.5 -83t-91.5 -32.5q-23 0 -41 17.5t-29.5 38t-15.5 29.5q-4 10 -11 1q-7 -10 -21.5 -30t-38.5 -37.5t-58 -17.5zM408 451q-5 1 -11.5 8t-11.5 14q-9 16 -21.5 39.5t-24.5 47.5t-20 41.5t-8 22.5q0 14 13.5 29t28.5 15q8 0 18 -5t12 -15
q2 -12 8.5 -38t13 -55t11 -52.5t3.5 -32.5q0 -9 -1.5 -14.5t-9.5 -4.5zM261 455q-18 0 -37 8.5t-34.5 24.5t-25.5 37t-10 46q0 38 22 64.5t60 26.5q21 0 36 -11.5t15 -30.5t-11.5 -29t-28.5 -13q-15 -3 -24.5 -12.5t-9.5 -25.5q0 -22 15.5 -37t39.5 -22q15 -4 15 -15
t-22 -11zM300 -229q-29 0 -49 23.5t-20 64.5q0 47 8.5 61.5t23.5 17.5l38 2q21 2 18 -12q-5 -37 -4 -64.5t21 -29.5q14 -1 24 3.5t12 4.5q12 0 12 -10q0 -11 -10 -25.5t-28.5 -25t-45.5 -10.5z" />
  </g>

</svg>
