<?xml version="1.0" standalone="no"?>
<!DOCTYPE svg PUBLIC "-//W3C//DTD SVG 1.1//EN" "http://www.w3.org/Graphics/SVG/1.1/DTD/svg11.dtd" >
<svg xmlns="http://www.w3.org/2000/svg" xmlns:xlink="http://www.w3.org/1999/xlink" version="1.1" viewBox="-10 0 546 1000">
  <g transform="matrix(1 0 0 -1 0 800)">
   <path fill="currentColor"
d="M359 -20q-8 0 -8 9q0 11 2.5 30.5t2.5 31.5v5v3q-35 -36 -75.5 -54.5t-87.5 -18.5q-31 0 -57 15t-40.5 43.5t-14.5 67.5v198q0 22 -9.5 35.5t-32.5 20.5q-5 2 -9.5 5.5t-4.5 11.5q0 9 4.5 12.5t10.5 4.5q37 2 61 6.5t54 12.5q4 1 7 1.5t6 0.5q12 0 11 -14
q-3 -23 -5 -38.5t-2 -38.5v-194q0 -24 10.5 -43.5t28.5 -31.5t37 -13q23 0 41 3.5t35 17.5q9 7 22.5 24t13.5 47v175q0 20 -10.5 30.5t-25 15.5t-26.5 6q-10 0 -16 4t-6 14t6.5 13.5t15.5 3.5q38 2 61.5 4t41 5t36.5 8q2 1 5.5 1.5t5.5 0.5q13 0 13 -11q0 -2 -0.5 -5
t-1.5 -6q-1 -4 -2.5 -17.5t-3 -28.5t-1.5 -24v-231q0 -25 5.5 -35.5t12.5 -10.5t20.5 1t19.5 1t11 -3t5 -12q0 -8 -4 -11.5t-11 -4.5q-42 -5 -74 -16t-56 -20q-4 -2 -10.5 -4.5t-11.5 -2.5zM148 469q-6 0 -12 5.5t-6 11.5q0 4 9.5 17.5t24 29t28.5 26.5t22 11
q15 0 26.5 -1.5t31.5 -3.5q18 -1 33 -2.5t27 -1.5q10 0 21 6.5t18 14.5q9 10 13 15t7 5q7 0 13.5 -5.5t6.5 -12.5q0 -4 -4.5 -9t-11.5 -13q-12 -13 -21.5 -25.5t-19.5 -25.5q-6 -8 -15.5 -11t-13.5 -3q-7 0 -22.5 1t-34 3t-36.5 3t-31 1q-9 0 -16 -3.5t-14 -10.5
q-8 -8 -14 -15t-9 -7zM245 607q-7 0 -7 11q0 6 6 27.5t14 48t14.5 47.5t8.5 24q5 8 11 13.5t13 5.5t19.5 -4.5t22.5 -11.5t10 -16q0 -4 -8.5 -17.5t-20.5 -31.5t-25 -35.5t-22.5 -30t-11.5 -14.5q-5 -5 -12 -10.5t-12 -5.5z" />
  </g>

</svg>
