<?xml version="1.0" standalone="no"?>
<!DOCTYPE svg PUBLIC "-//W3C//DTD SVG 1.1//EN" "http://www.w3.org/Graphics/SVG/1.1/DTD/svg11.dtd" >
<svg xmlns="http://www.w3.org/2000/svg" xmlns:xlink="http://www.w3.org/1999/xlink" version="1.1" viewBox="-10 0 802 1000">
  <g transform="matrix(1 0 0 -1 0 800)">
   <path fill="currentColor"
d="M380 -14q-67 0 -128.5 24.5t-109.5 69.5t-75.5 106t-27.5 133q0 68 22.5 129.5t66 110t107.5 77t148 28.5q71 0 116 -15t79 -31q25 -13 48.5 -24t48.5 -11q18 0 28.5 9t10.5 19t-5.5 16t-15.5 11q-9 4 -16.5 9t-7.5 18t12.5 27t28.5 24t29 10q11 0 20.5 -11t16 -26.5
t6.5 -30.5q0 -30 -14.5 -56.5t-39.5 -43.5t-56 -19q-9 0 -11.5 -4.5t-0.5 -8.5q31 -43 47 -86.5t16 -104.5q0 -67 -22 -130t-65.5 -112t-107.5 -78t-148 -29zM394 28q104 0 155.5 74t51.5 197q0 67 -14.5 126t-43 103t-71.5 68.5t-100 24.5q-51 0 -90.5 -21.5t-66.5 -58.5
t-40.5 -84.5t-13.5 -101.5q0 -63 16 -121.5t47 -104.5t74 -73.5t96 -27.5zM412 684q8 1 8 7q0 7 -7 17q-21 31 -42.5 61.5t-45.5 59.5q-10 14 -29 13q-7 -1 -22.5 -5t-28 -10t-12.5 -13q1 -9 15 -20q33 -26 71.5 -52t71.5 -49q8 -5 13 -7t8 -2z" />
  </g>

</svg>
