<?xml version="1.0" standalone="no"?>
<!DOCTYPE svg PUBLIC "-//W3C//DTD SVG 1.1//EN" "http://www.w3.org/Graphics/SVG/1.1/DTD/svg11.dtd" >
<svg xmlns="http://www.w3.org/2000/svg" xmlns:xlink="http://www.w3.org/1999/xlink" version="1.1" viewBox="-10 0 611 1000">
  <g transform="matrix(1 0 0 -1 0 800)">
   <path fill="currentColor"
d="M44 -5q-12 0 -19 3t-7 9q0 13 29 19q37 8 55 22.5t18 49.5v452q0 34 -14 50t-51 21q-15 2 -22 7.5t-7 12.5q0 6 7 9.5t19 3.5q29 0 46 -1t32.5 -1.5t36.5 -0.5t36.5 1.5t35 3t50.5 1.5q118 0 177 -33.5t59 -115.5q0 -33 -12.5 -59t-27.5 -40q-16 -15 -30.5 -24t-38.5 -17
q-4 -1 -4 -4.5t4 -5.5q24 -7 49.5 -17.5t48.5 -28t36.5 -46t13.5 -72.5q0 -55 -17.5 -87.5t-41.5 -49.5t-45 -28q-32 -16 -73 -24.5t-99 -8.5q-20 0 -48.5 2t-61.5 2q-24 0 -44.5 -1t-41.5 -2.5t-48 -1.5zM297 42q40 0 73.5 19t54 52.5t20.5 74.5q0 38 -11.5 62.5
t-26.5 39.5t-27 22q-12 8 -37 16t-65 8q-26 0 -39.5 -11t-13.5 -24v-191q0 -38 19 -53t53 -15zM269 370q26 0 53.5 6t54.5 23q10 6 25 28.5t15 64.5q0 34 -10.5 63.5t-39 48t-81.5 18.5q-36 0 -48.5 -11t-12.5 -33v-171q0 -24 16 -30.5t28 -6.5zM142 -179q-7 0 -11.5 4.5
t-4.5 9.5q0 9 3 20.5t9.5 20t15.5 8.5h265q7 0 11 -4t4 -10q0 -18 -10.5 -33.5t-23.5 -15.5h-258z" />
  </g>

</svg>
