<?xml version="1.0" standalone="no"?>
<!DOCTYPE svg PUBLIC "-//W3C//DTD SVG 1.1//EN" "http://www.w3.org/Graphics/SVG/1.1/DTD/svg11.dtd" >
<svg xmlns="http://www.w3.org/2000/svg" xmlns:xlink="http://www.w3.org/1999/xlink" version="1.1" viewBox="-10 0 479 1000">
  <g transform="matrix(1 0 0 -1 0 800)">
   <path fill="currentColor"
d="M223 -21q-5 0 -11 14.5t-10 25.5q-7 17 -14.5 37t-13.5 37q-23 61 -49 119t-51 118q-8 20 -21.5 34.5t-29.5 19.5q-9 4 -13.5 7.5t-4.5 10.5t8 8.5t13 1.5q22 0 32.5 -1t21 -2.5t28.5 -1.5q20 0 31.5 1.5t24 2.5t33.5 1q5 0 13 -2t8 -8q0 -8 -7 -11.5t-16 -7.5
q-10 -4 -15.5 -15t-5.5 -26q0 -8 0.5 -15.5t3.5 -13.5l75 -194q1 -1 1.5 -1t1.5 1l70 182q4 9 5.5 19.5t1.5 18.5q0 19 -6.5 29t-21.5 15q-12 4 -17.5 7.5t-5.5 10.5t7 9t14 2q17 -1 33.5 -2.5t38.5 -1.5t33 1.5t29 2.5q8 0 15 -2t7 -8q0 -12 -22 -19q-16 -5 -33 -23
t-27 -43l-78 -191q-3 -5 -8.5 -18.5t-11.5 -29t-10.5 -27.5t-5.5 -14q-2 -3 -7 -14.5t-10.5 -24t-10.5 -19.5h-12zM117 461q-7 0 -12.5 5t-5.5 11q0 5 11 20.5t27 34t32 32t24 13.5q15 0 26 -1.5t31 -3.5q19 -1 33.5 -2.5t26.5 -1.5q10 0 20.5 5.5t17.5 13.5q11 11 17 19
t9 8q7 0 14 -5.5t7 -12.5q0 -3 -6 -9.5t-16 -18.5q-12 -12 -24 -29.5t-22 -29.5q-6 -8 -15.5 -11t-14.5 -3q-6 0 -21.5 1t-34 3t-36.5 3t-31 1q-9 0 -17.5 -5.5t-15.5 -13.5q-9 -9 -15 -16t-9 -7z" />
  </g>

</svg>
