<?xml version="1.0" standalone="no"?>
<!DOCTYPE svg PUBLIC "-//W3C//DTD SVG 1.1//EN" "http://www.w3.org/Graphics/SVG/1.1/DTD/svg11.dtd" >
<svg xmlns="http://www.w3.org/2000/svg" xmlns:xlink="http://www.w3.org/1999/xlink" version="1.1" viewBox="-10 0 418 1000">
  <g transform="matrix(1 0 0 -1 0 800)">
   <path fill="currentColor"
d="M212 -15q-51 0 -92 26.5t-65 72.5t-24 103q0 65 29 118t78 84t108 31q71 0 122 -41q11 -10 11 -19q0 -7 -7.5 -17.5t-18 -18t-19.5 -7.5q-6 0 -12.5 4t-12.5 9q-24 19 -50.5 33.5t-45.5 14.5q-45 0 -71.5 -40.5t-26.5 -113.5q0 -48 18.5 -85t51 -58t74.5 -21
q29 0 50.5 9.5t45.5 32.5q3 2 6.5 4t6.5 2q11 0 11 -15q0 -5 -3 -12.5t-9 -16.5q-14 -20 -37 -38.5t-53 -29.5t-65 -11zM161 -274q-18 0 -26 9t-8 34q0 11 3.5 16t10.5 5q9 0 22 -6t36 -6q18 0 26.5 12t8.5 31q0 26 -17.5 39t-40.5 13q-11 0 -16.5 -4t-11.5 -4t-12.5 5
t-6.5 14q0 5 8 15l88 109h36l-37 -47q-5 -7 -5 -11q0 -5 11 -11q24 -10 41.5 -30t17.5 -48q0 -29 -14 -53.5t-34.5 -42.5t-42 -28.5t-37.5 -10.5zM210 456q-9 0 -9 10q0 3 1 8t3 11q7 19 21.5 48t29 57t22.5 42q6 10 14.5 15t18.5 5q21 0 37 -5t16 -17q0 -6 -2.5 -10.5
t-7.5 -11.5q-15 -19 -35.5 -44t-42 -49t-37.5 -40q-19 -19 -29 -19z" />
  </g>

</svg>
