<?xml version="1.0" standalone="no"?>
<!DOCTYPE svg PUBLIC "-//W3C//DTD SVG 1.1//EN" "http://www.w3.org/Graphics/SVG/1.1/DTD/svg11.dtd" >
<svg xmlns="http://www.w3.org/2000/svg" xmlns:xlink="http://www.w3.org/1999/xlink" version="1.1" viewBox="-39 0 319 1000">
  <g transform="matrix(1 0 0 -1 0 800)">
   <path fill="currentColor"
d="M42 -3q-8 0 -13.5 3t-5.5 9q0 8 6.5 11.5t14.5 5.5q23 6 34 13t11 25v216q0 30 -10 48.5t-35 22.5q-5 1 -7.5 4.5t-2.5 10.5q0 12 9 13q44 10 75.5 26.5t47.5 26.5q11 7 16 7q8 0 8 -8q0 -11 -2.5 -35t-5 -52t-2.5 -52v-228q0 -16 11 -24t34 -14q8 -2 14.5 -5.5
t6.5 -11.5q0 -12 -18 -12q-19 0 -34 1.5t-28.5 2.5t-31.5 1q-17 0 -31 -1t-27.5 -2.5t-33.5 -1.5zM211 487q-22 0 -39.5 17.5t-17.5 39.5q0 23 17.5 40.5t39.5 17.5q24 0 41.5 -17.5t17.5 -40.5q0 -22 -17.5 -39.5t-41.5 -17.5zM28 487q-22 0 -39.5 17.5t-17.5 39.5
q0 23 17.5 40.5t39.5 17.5q24 0 41.5 -17.5t17.5 -40.5q0 -22 -17.5 -39.5t-41.5 -17.5zM111 589q-7 0 -7 11q0 6 6 27.5t14 48t14.5 47.5t8.5 24q5 8 11 13.5t13 5.5t19.5 -4.5t22.5 -11.5t10 -16q0 -4 -8.5 -17.5t-20.5 -31.5t-25 -35.5t-22.5 -30t-11.5 -14.5
q-5 -5 -12 -10.5t-12 -5.5z" />
  </g>

</svg>
