<?xml version="1.0" standalone="no"?>
<!DOCTYPE svg PUBLIC "-//W3C//DTD SVG 1.1//EN" "http://www.w3.org/Graphics/SVG/1.1/DTD/svg11.dtd" >
<svg xmlns="http://www.w3.org/2000/svg" xmlns:xlink="http://www.w3.org/1999/xlink" version="1.1" viewBox="-27 0 1082 1000">
  <g transform="matrix(1 0 0 -1 0 800)">
   <path fill="currentColor"
d="M304 -4q-11 0 -18 3.5t-7 9.5q0 12 28 18q37 7 49 22t12 49v453q0 34 -9 48t-46 22q-29 6 -29 19q0 6 6.5 10t18.5 4q26 0 44 -1t34.5 -2t36.5 -1q21 0 38.5 0.5t37 1.5t44.5 1q26 0 26 -13q0 -8 -7.5 -12t-21.5 -7q-38 -9 -52.5 -25t-14.5 -45v-191q0 -7 4.5 -9t9.5 -2
h334q9 0 9 13v189q0 28 -13.5 44.5t-52.5 25.5q-15 3 -22 7t-7 12q0 13 25 13t46 -1t40.5 -1.5t40.5 -0.5q19 0 33.5 1t31 2t42.5 1q12 0 19 -4t7 -10q0 -13 -29 -19q-37 -8 -46 -23.5t-9 -45.5v-453q0 -35 10.5 -50t46.5 -22q28 -6 28 -18q0 -6 -7.5 -9.5t-18.5 -3.5
q-24 0 -42.5 1.5t-35.5 2.5t-37 1q-21 0 -38.5 -1t-37.5 -2.5t-45 -1.5q-12 0 -18.5 3.5t-6.5 9.5q0 8 6.5 11.5t21.5 6.5q34 7 51 23t17 47v193q0 6 -1 10.5t-7 4.5h-341q-8 0 -8 -12v-189q0 -30 20 -50t55 -27q15 -3 22 -6.5t7 -11.5q0 -6 -7 -9.5t-19 -3.5q-25 0 -46 1.5
t-40.5 2.5t-41.5 1q-20 0 -38 -1t-37.5 -2.5t-44.5 -1.5zM140 457q-7 -1 -9 4t-2 14q0 10 4.5 33.5t10.5 52.5t12.5 54.5t9.5 38.5q2 10 12 14.5t17 4.5q16 0 29 -15t13 -29q0 -4 -8 -22t-19.5 -42t-24 -47.5t-21.5 -38.5q-5 -8 -11.5 -15t-12.5 -7zM9 462q-23 0 -23 11
t16 15q23 7 39 22t16 37q0 16 -9.5 25.5t-25.5 12.5t-27.5 13t-11.5 29t15 30.5t36 11.5q38 0 59.5 -26.5t21.5 -64.5q0 -25 -9.5 -46t-25.5 -37t-34.5 -24.5t-36.5 -8.5z" />
  </g>

</svg>
