<?xml version="1.0" standalone="no"?>
<!DOCTYPE svg PUBLIC "-//W3C//DTD SVG 1.1//EN" "http://www.w3.org/Graphics/SVG/1.1/DTD/svg11.dtd" >
<svg xmlns="http://www.w3.org/2000/svg" xmlns:xlink="http://www.w3.org/1999/xlink" version="1.1" viewBox="-10 0 551 1000">
  <g transform="matrix(1 0 0 -1 0 800)">
   <path fill="currentColor"
d="M43 -3q-8 0 -14 3t-6 9q0 8 6.5 11.5t16.5 6.5q15 4 28 11t13 27v220q0 25 -5.5 42.5t-29.5 23.5q-4 1 -7 4.5t-3 9.5q0 13 9 14q35 9 63.5 22t52.5 29q3 2 6.5 4t6.5 2q4 0 5.5 -2.5t1.5 -6.5q0 -7 -2.5 -27t-2.5 -34q0 -4 0.5 -8t1.5 -5q35 33 72.5 50t84.5 17
q50 0 83 -39t33 -101v-216q0 -20 13.5 -26t28.5 -11q8 -3 15 -7t7 -12q0 -7 -6.5 -9t-12.5 -2q-20 0 -33.5 1.5t-26 2.5t-30.5 1q-17 0 -30 -1t-26.5 -2.5t-33.5 -1.5q-5 0 -12 2t-7 9q0 8 7 12t15 7q15 5 28 11t13 26v207q0 42 -22.5 65t-58.5 24q-31 0 -54.5 -9.5
t-43.5 -25.5q-4 -4 -6 -10t-2 -11v-240q0 -20 13 -26.5t27 -10.5q22 -7 22 -18q0 -6 -5 -9t-14 -3q-20 0 -33.5 1.5t-25 2.5t-29.5 1q-17 0 -30 -1t-27 -2.5t-34 -1.5zM172 -261q-9 0 -10.5 10t5.5 24q10 21 25 49.5t30.5 56t23.5 42.5q6 12 13 18.5t14 6.5q8 0 14.5 -7
t12.5 -18q9 -15 23.5 -43t30 -56.5t25.5 -48.5q8 -15 5 -24.5t-10 -9.5t-16.5 8t-17.5 17q-9 12 -26.5 34.5t-36.5 44.5q-2 3 -3.5 3t-4.5 -3q-18 -22 -36 -44.5t-27 -34.5q-8 -9 -17.5 -17t-16.5 -8z" />
  </g>

</svg>
