<?xml version="1.0" standalone="no"?>
<!DOCTYPE svg PUBLIC "-//W3C//DTD SVG 1.1//EN" "http://www.w3.org/Graphics/SVG/1.1/DTD/svg11.dtd" >
<svg xmlns="http://www.w3.org/2000/svg" xmlns:xlink="http://www.w3.org/1999/xlink" version="1.1" viewBox="-10 0 547 1000">
  <g transform="matrix(1 0 0 -1 0 800)">
   <path fill="currentColor"
d="M43.9941 -3.51953q-5.2793 0 -11.4385 3.51953t-6.15918 8.79883q0 7.03906 6.59961 10.1191q6.59863 3.0791 12.7578 3.95898q21.9971 4.39941 36.5156 13.1982q14.5176 8.79883 14.5176 29.916v250.767q0 23.7568 -9.67871 36.9551t-36.9551 17.5977
q-7.03906 1.75977 -12.7588 5.71875q-5.71875 3.95996 -5.71875 10.1191t5.71875 8.79883q5.71973 2.63965 10.999 2.63965q15.8379 0 31.2354 -0.879883q15.3984 -0.879883 31.2363 -2.19922q15.8379 -1.32031 30.7959 -1.32031t29.4756 0.879883
q14.5186 0.879883 29.916 1.75977q15.3984 0.879883 30.3564 0.879883q5.2793 0 10.5586 -2.63965t5.2793 -7.91895q0 -6.15918 -5.71973 -10.5586q-5.71875 -4.39941 -12.7578 -6.15918q-21.1172 -3.51953 -31.6758 -17.5977t-10.5586 -37.835v-91.5078
q0 -12.3184 7.03906 -12.3184q6.15918 0 19.3574 10.1191q13.1982 10.1182 27.2764 22.4365q29.0361 24.6367 50.5928 46.1943q21.5576 21.5566 45.3145 47.9531q8.79883 10.5586 2.63965 18.0371q-6.15918 7.47949 -19.3574 12.7588q-7.91895 3.51953 -13.1982 6.59863
q-5.2793 3.08008 -5.2793 9.23926q0 5.2793 5.71875 7.91895q5.71973 2.63965 10.999 2.63965q23.7568 0 40.915 -0.879883q17.1572 -0.879883 39.1543 -0.879883q24.6367 0 46.6338 3.0791q21.9971 3.08008 36.9551 3.08008q5.2793 0 11.4385 -2.19922
q6.15918 -2.2002 6.15918 -8.35938t-6.15918 -10.5586t-14.0781 -6.15918q-29.0361 -4.39941 -46.6338 -12.3184t-38.7148 -21.9971q-15.8379 -10.5586 -36.9551 -26.8359q-21.1172 -16.2783 -41.7939 -33.876q-20.6777 -17.5977 -36.5156 -33.4355
q-5.2793 -4.39941 -4.39941 -9.67871t5.2793 -10.5586l121.424 -137.262q15.8379 -18.4775 40.915 -37.3945q25.0762 -18.918 54.1123 -24.1973q8.79883 -0.879883 15.3975 -4.39941q6.59961 -3.51953 6.59961 -10.5586q0 -6.15918 -6.59961 -9.23926
q-6.59863 -3.0791 -15.3975 -3.0791q-26.3965 0 -58.9521 1.75977t-66.8711 2.63965q-13.1982 0 -20.2373 -0.439453q-7.03906 -0.44043 -14.958 -1.32031t-24.6367 -0.879883q-4.39941 0 -10.5586 3.0791q-6.15918 3.08008 -6.15918 7.47949q0 7.03906 5.2793 10.1182
q5.2793 3.08008 13.1982 5.71973q13.1982 4.39941 14.0781 13.1982t-6.15918 17.5977l-104.706 119.664q-3.51953 5.2793 -9.67871 9.23828q-6.15918 3.95996 -10.5586 3.95996t-6.15918 -6.15918t-1.75977 -10.5586v-53.6729v-52.793q0.879883 -21.1172 7.91895 -29.916
t29.0361 -13.1982q6.15918 -0.879883 13.1982 -3.95898q7.03906 -3.08008 7.03906 -10.1191q0 -5.2793 -6.15918 -8.35938q-6.15918 -3.0791 -12.3184 -3.0791q-28.1562 0 -46.1934 2.63965q-18.0381 2.63965 -39.1553 2.63965q-23.7568 0 -44.874 -3.0791
q-21.1172 -3.08008 -51.0332 -3.08008z" />
  </g>

</svg>
