<?xml version="1.0" standalone="no"?>
<!DOCTYPE svg PUBLIC "-//W3C//DTD SVG 1.1//EN" "http://www.w3.org/Graphics/SVG/1.1/DTD/svg11.dtd" >
<svg xmlns="http://www.w3.org/2000/svg" xmlns:xlink="http://www.w3.org/1999/xlink" version="1.1" viewBox="-10 0 281 1000">
  <g transform="matrix(1 0 0 -1 0 800)">
   <path fill="currentColor"
d="M134 -14q-30 0 -50 27t-19 82l2 303q0 12 12.5 16.5t50.5 4.5q24 0 30 -6t6 -17q0 -12 -3 -39t-7 -61.5t-8 -70.5t-7 -67t-3 -49t10.5 -23t22.5 -5q16 0 32 5.5t20 5.5q7 0 9.5 -4t2.5 -13q0 -17 -12.5 -38t-35.5 -36t-53 -15zM164 450q-7 -1 -9 4t-2 14q0 10 4.5 33.5
t10.5 52.5t12.5 54.5t9.5 38.5q2 10 12 14.5t17 4.5q16 0 29 -15t13 -29q0 -4 -8 -22t-19.5 -42t-24 -47.5t-21.5 -38.5q-5 -8 -11.5 -15t-12.5 -7zM33 455q-23 0 -23 11t16 15q23 7 39 22t16 37q0 16 -9.5 25.5t-25.5 12.5t-27.5 13t-11.5 29t15 30.5t36 11.5
q38 0 59.5 -26.5t21.5 -64.5q0 -25 -9.5 -46t-25.5 -37t-34.5 -24.5t-36.5 -8.5z" />
  </g>

</svg>
