<?xml version="1.0" standalone="no"?>
<!DOCTYPE svg PUBLIC "-//W3C//DTD SVG 1.1//EN" "http://www.w3.org/Graphics/SVG/1.1/DTD/svg11.dtd" >
<svg xmlns="http://www.w3.org/2000/svg" xmlns:xlink="http://www.w3.org/1999/xlink" version="1.1" viewBox="-10 0 566 1000">
  <g transform="matrix(1 0 0 -1 0 800)">
   <path fill="currentColor"
d="M57 -5q-12 0 -19 3t-7 9q0 13 29 19q37 8 53.5 22.5t16.5 49.5v452q0 34 -14 49t-51 22q-15 3 -22 8t-7 12q0 6 7 9.5t19 3.5q33 0 59.5 -1t52 -2t55.5 -1q40 0 84.5 0.5t80.5 1.5q34 0 56.5 1.5t26.5 1.5q6 0 12.5 -2.5t7.5 -9.5q5 -31 10.5 -60.5t5.5 -51.5
q0 -10 -4.5 -13.5t-9.5 -3.5t-8 3t-6 9q-7 20 -13 36.5t-14 24.5q-13 14 -30 21t-38 7h-112q-13 0 -27.5 -9.5t-14.5 -26.5v-204q0 -10 6 -16t14 -6h95q29 0 40 13t18 40q7 20 19 20q5 0 9 -4.5t4 -13.5q0 -6 -1 -20t-2 -29t-1 -24q0 -11 0.5 -26.5t1.5 -30.5t1 -22
q1 -9 -1.5 -14.5t-7.5 -5.5q-16 0 -24 29q-6 26 -16.5 39t-30.5 13h-93q-16 0 -23.5 -5t-7.5 -21v-191q0 -35 15 -48.5t46 -13.5h79q28 0 49 4t36 15q17 12 30 31t27 47q4 6 8 9.5t9 2.5q6 0 8.5 -4.5t2.5 -11.5q0 -11 -5 -33t-12.5 -46t-13.5 -41q-3 -7 -7 -11.5t-10 -4.5
q-36 0 -75 1t-80 2l-82 2t-81 1q-21 0 -40 -1.5t-38.5 -3t-44.5 -1.5zM163 721q-7 0 -11.5 4.5t-4.5 9.5q0 9 3 20.5t9.5 20t15.5 8.5h265q7 0 11 -4t4 -10q0 -18 -10.5 -33.5t-23.5 -15.5h-258zM379 808q6 0 11 2.5t5 7.5q0 3 -1.5 6.5t-6.5 8.5q-9 8 -29 22t-43.5 29
t-45.5 28t-36 20l-10 4t-10 2q-14 0 -24 -11.5t-15 -24.5t-5 -19q0 -9 6 -12q13 -5 34.5 -13t47 -16.5t49.5 -15.5t43 -12q7 -1 15 -3.5t15 -2.5z" />
  </g>

</svg>
