<?xml version="1.0" standalone="no"?>
<!DOCTYPE svg PUBLIC "-//W3C//DTD SVG 1.1//EN" "http://www.w3.org/Graphics/SVG/1.1/DTD/svg11.dtd" >
<svg xmlns="http://www.w3.org/2000/svg" xmlns:xlink="http://www.w3.org/1999/xlink" version="1.1" viewBox="-10 0 493 1000">
  <g transform="matrix(1 0 0 -1 0 800)">
   <path fill="currentColor"
d="M128 -15q-27 0 -48.5 18.5t-33.5 50t-12 69.5q0 37 8 77t23 77.5t35 68t44 48t50 17.5q37 0 59 -38t40 -105q1 -4 3 -4t3 4q10 34 20.5 69.5t16.5 66.5q3 13 8 20t17 7t24 -12.5t19.5 -27.5t7.5 -26q0 -17 -12 -53t-34 -82t-50 -92q12 -32 29 -45t34 -13q18 0 32 6.5
t25 15.5t16 14q4 3 7 4t6 -1q6 -2 7 -8t1 -14q0 -35 -16 -60t-39 -38.5t-44 -13.5q-26 0 -49.5 31.5t-31.5 90.5q-35 -49 -78 -85.5t-87 -36.5zM120 34q34 0 69.5 37t65.5 95q7 13 13.5 26.5t12.5 27.5q-19 53 -34 75.5t-40 22.5q-21 0 -42.5 -20t-40.5 -52t-30.5 -69
t-11.5 -72q0 -30 10.5 -50.5t27.5 -20.5zM350 451q-5 1 -11.5 8t-11.5 14q-9 16 -21.5 39.5t-24.5 47.5t-20 41.5t-8 22.5q0 14 13.5 29t28.5 15q8 0 18 -5t12 -15q2 -12 8.5 -38t13 -55t11 -52.5t3.5 -32.5q0 -9 -1.5 -14.5t-9.5 -4.5zM203 455q-18 0 -37 8.5t-34.5 24.5
t-25.5 37t-10 46q0 38 22 64.5t60 26.5q21 0 36 -11.5t15 -30.5t-11.5 -29t-28.5 -13q-15 -3 -24.5 -12.5t-9.5 -25.5q0 -22 15.5 -37t39.5 -22q15 -4 15 -15t-22 -11z" />
  </g>

</svg>
