<?xml version="1.0" standalone="no"?>
<!DOCTYPE svg PUBLIC "-//W3C//DTD SVG 1.1//EN" "http://www.w3.org/Graphics/SVG/1.1/DTD/svg11.dtd" >
<svg xmlns="http://www.w3.org/2000/svg" xmlns:xlink="http://www.w3.org/1999/xlink" version="1.1" viewBox="-10 0 379 1000">
  <g transform="matrix(1 0 0 -1 0 800)">
   <path fill="currentColor"
d="M46 -3q-6 0 -12.5 2t-6.5 8q0 8 6.5 12t14.5 7q18 6 30 12.5t12 25.5v252q0 25 -10.5 41t-36.5 22q-5 1 -11 6t-6 12q0 6 8.5 9.5t12.5 3.5q22 0 39 -2t37 -2h159q30 0 44.5 4t23.5 4q2 0 5.5 -3t3.5 -8q0 -14 -2 -40t-2 -44q0 -14 -2.5 -29.5t-11.5 -15.5q-11 0 -19 34
q-3 15 -10.5 29t-18.5 23.5t-24 9.5q-7 0 -19 0.5t-23 0.5h-18q-18 0 -22.5 -13t-4.5 -22v-272q0 -18 14 -25t33 -13q8 -3 14.5 -6.5t6.5 -11.5q0 -7 -7 -9t-14 -2q-19 0 -33 1.5t-27 2.5t-31 1q-17 0 -30.5 -1t-27.5 -2.5t-34 -1.5z" />
  </g>

</svg>
