<?xml version="1.0" standalone="no"?>
<!DOCTYPE svg PUBLIC "-//W3C//DTD SVG 1.1//EN" "http://www.w3.org/Graphics/SVG/1.1/DTD/svg11.dtd" >
<svg xmlns="http://www.w3.org/2000/svg" xmlns:xlink="http://www.w3.org/1999/xlink" version="1.1" viewBox="-10 0 595 1000">
  <g transform="matrix(1 0 0 -1 0 800)">
   <path fill="currentColor"
d="M356 -20q-5 0 -5 6q0 11 2.5 30.5t2.5 31.5v8q-37 -37 -76.5 -53.5t-86.5 -16.5q-31 0 -57 15t-40.5 43.5t-14.5 67.5v198q0 22 -9.5 35.5t-32.5 20.5q-3 1 -8.5 5t-5.5 12q0 9 5 12.5t10 4.5q25 1 41 3t29.5 4.5t30.5 6.5q6 2 12.5 4t11.5 3q16 1 14 -14
q-3 -23 -5 -38.5t-2 -38.5v-194q0 -24 10.5 -43.5t28.5 -31.5t37 -13q23 0 40.5 3.5t35.5 16.5q9 7 22.5 24.5t13.5 47.5v175q0 20 -10 30.5t-24.5 15.5t-26.5 6q-6 0 -14.5 4t-8.5 14q0 9 6.5 13t16.5 4q86 3 133 7.5t66 12t19 21.5q0 12 -6.5 19.5t-20.5 12.5
q-11 5 -16 10t-5 15q0 8 10 20t23 21.5t22 9.5q20 0 35.5 -19t15.5 -43q0 -45 -32 -72t-82 -34q-9 -1 -9 -15v-30v-226q0 -29 3.5 -44.5t14.5 -15.5q7 0 20.5 0.5t19.5 1.5q5 1 10.5 -2.5t5.5 -12.5q0 -8 -4.5 -12t-10.5 -4q-42 -5 -74 -16t-56 -20q-4 -2 -12 -4.5t-13 -2.5
zM291 456q9 0 9 10q0 3 -1 8t-3 11q-7 19 -21.5 48t-29 57t-22.5 42q-6 10 -14.5 15t-18.5 5q-21 0 -37 -5t-16 -17q0 -6 2.5 -10.5t7.5 -11.5q15 -19 35.5 -44t42 -49t37.5 -40q19 -19 29 -19z" />
  </g>

</svg>
