<?xml version="1.0" standalone="no"?>
<!DOCTYPE svg PUBLIC "-//W3C//DTD SVG 1.1//EN" "http://www.w3.org/Graphics/SVG/1.1/DTD/svg11.dtd" >
<svg xmlns="http://www.w3.org/2000/svg" xmlns:xlink="http://www.w3.org/1999/xlink" version="1.1" viewBox="-42 0 608 1000">
  <g transform="matrix(1 0 0 -1 0 800)">
   <path fill="currentColor"
d="M262 -4q-11 0 -18.5 2.5t-7.5 9.5q0 13 29 19q38 7 56 22t18 49v452q0 34 -14 48.5t-52 22.5q-29 6 -29 20q0 7 7 10t18 3q26 0 46.5 -1t39.5 -2t41 -1q21 0 39.5 0.5t38 1.5t44.5 1q12 0 19 -2.5t7 -9.5q0 -8 -7.5 -12.5t-21.5 -7.5q-39 -9 -54.5 -23t-15.5 -48v-452
q0 -33 19 -48t56 -23q15 -3 22 -7t7 -12q0 -6 -6.5 -9t-18.5 -3q-25 0 -46 1.5t-40.5 2.5t-41.5 1q-24 0 -44.5 -1t-42.5 -2.5t-47 -1.5zM-14 620q-6 0 -12 5.5t-6 11.5q0 4 9.5 17.5t24 29t28.5 26.5t22 11q15 0 26.5 -1.5t31.5 -3.5q18 -1 33 -2.5t27 -1.5q10 0 21 6.5
t18 14.5q9 10 13 15t7 5q7 0 13.5 -5.5t6.5 -12.5q0 -4 -4.5 -9t-11.5 -13q-12 -13 -21.5 -25.5t-19.5 -25.5q-6 -8 -15.5 -11t-13.5 -3q-7 0 -22.5 1t-34 3t-36.5 3t-31 1q-9 0 -16 -3.5t-14 -10.5q-8 -8 -14 -15t-9 -7zM130 454q19 0 19 11q0 9 -16 14q-22 8 -35 20
t-13 28q0 14 11.5 21.5t26.5 10.5q16 4 27.5 12t11.5 25q0 13 -11.5 23.5t-35.5 10.5q-34 0 -59.5 -23.5t-25.5 -56.5q0 -29 15.5 -50.5t38.5 -33.5t46 -12z" />
  </g>

</svg>
