<?xml version="1.0" standalone="no"?>
<!DOCTYPE svg PUBLIC "-//W3C//DTD SVG 1.1//EN" "http://www.w3.org/Graphics/SVG/1.1/DTD/svg11.dtd" >
<svg xmlns="http://www.w3.org/2000/svg" xmlns:xlink="http://www.w3.org/1999/xlink" version="1.1" viewBox="-10 0 381 1000">
  <g transform="matrix(1 0 0 -1 0 800)">
   <path fill="currentColor"
d="M35 128q-3 0 -9 3t-6 7q0 5 5 9.5t11 5.5q12 3 19.5 7.5t7.5 15.5v274q0 10 -7.5 23.5t-22.5 15.5q-7 2 -7 13q0 5 2 8t5 4q16 3 32.5 7.5t31.5 10t26 11.5q4 0 9.5 -1.5t5.5 -4.5q0 -5 -1.5 -16.5t-1.5 -19.5v-3.5t1 -2.5q6 6 21.5 15.5t36 17.5t40.5 8q33 0 58 -16.5
t39 -42.5t14 -57q0 -39 -21 -71.5t-55 -52.5t-76 -20q-16 0 -31.5 4t-25.5 9v-110q0 -12 6.5 -17.5t20.5 -8.5q6 -2 10.5 -6t4.5 -9q0 -4 -5.5 -7t-8.5 -3q-15 0 -32 1.5t-32 1.5t-32 -1.5t-33 -1.5zM197 306q20 0 35 12.5t24 35t9 49.5q0 29 -8 49.5t-22.5 32t-33.5 11.5
q-13 0 -24.5 -4t-21.5 -12q-8 -7 -13.5 -18t-5.5 -28v-72q0 -15 9 -28t23 -20.5t29 -7.5z" />
  </g>

</svg>
