<?xml version="1.0" standalone="no"?>
<!DOCTYPE svg PUBLIC "-//W3C//DTD SVG 1.1//EN" "http://www.w3.org/Graphics/SVG/1.1/DTD/svg11.dtd" >
<svg xmlns="http://www.w3.org/2000/svg" xmlns:xlink="http://www.w3.org/1999/xlink" version="1.1" viewBox="-10 0 266 1000">
  <g transform="matrix(1 0 0 -1 0 800)">
   <path fill="currentColor"
d="M38 -3q-7 0 -13.5 2t-6.5 9q0 8 7 11.5t16 7.5q15 5 28 11t13 27v495q0 29 -9.5 48.5t-34.5 24.5q-8 2 -8 14q0 11 7 13q26 5 49 13t43 16t36 14q6 2 9 2t4.5 -3t1.5 -6q0 -8 -3 -34t-3 -78v-519q0 -20 13 -26.5t28 -11.5q9 -3 16 -7t7 -12q0 -6 -6.5 -8t-13.5 -2
q-19 0 -33 1t-27 2t-31 1q-17 0 -30 -1t-26 -2.5t-33 -1.5zM129 -206q-25 0 -42.5 17.5t-17.5 42.5q0 26 17.5 43.5t42.5 17.5q26 0 44 -17.5t18 -43.5q0 -25 -18 -42.5t-44 -17.5z" />
  </g>

</svg>
