<?xml version="1.0" standalone="no"?>
<!DOCTYPE svg PUBLIC "-//W3C//DTD SVG 1.1//EN" "http://www.w3.org/Graphics/SVG/1.1/DTD/svg11.dtd" >
<svg xmlns="http://www.w3.org/2000/svg" xmlns:xlink="http://www.w3.org/1999/xlink" version="1.1" viewBox="-251 0 502 1000">
  <g transform="matrix(1 0 0 -1 0 800)">
   <path fill="currentColor"
d="M-188 493q-21 0 -37 22t-16 48q0 40 17 68.5t47 44.5t68 16q24 0 39 -12t25 -28t16 -28q7 -11 14 -11q2 0 5 2t8 7q9 10 23 26t26 28q5 6 9.5 9t6.5 3q8 0 17 -12q11 -17 23.5 -42.5t26 -45t29.5 -19.5q14 0 23 8t13 20t4 23q0 7 -3.5 12t-8.5 9q-5 6 -9 13t-4 16t7 14.5
t20 5.5q16 0 24.5 -10t12 -24t3.5 -27q0 -54 -32 -83.5t-79 -29.5q-22 0 -38.5 11.5t-28.5 27.5t-23 31q-8 12 -13 12q-3 0 -12 -9l-55 -53q-5 -4 -8.5 -7t-4.5 -3q-7 0 -15 11q-10 15 -22.5 38.5t-26.5 43.5t-30 20q-23 0 -35 -21t-12 -42q0 -11 5.5 -18.5t11.5 -12.5
q6 -6 10.5 -13t4.5 -18q0 -12 -9 -16.5t-17 -4.5z" />
  </g>

</svg>
