<?xml version="1.0" standalone="no"?>
<!DOCTYPE svg PUBLIC "-//W3C//DTD SVG 1.1//EN" "http://www.w3.org/Graphics/SVG/1.1/DTD/svg11.dtd" >
<svg xmlns="http://www.w3.org/2000/svg" xmlns:xlink="http://www.w3.org/1999/xlink" version="1.1" viewBox="-10 0 541 1000">
  <g transform="matrix(1 0 0 -1 0 800)">
   <path fill="currentColor"
d="M38 -3q-20 0 -20 12q0 10 23 18q15 5 28 12t13 28v493q0 27 -8 47.5t-34 24.5q-9 2 -9 15q0 10 8 13q17 5 40.5 12t46.5 15.5t39 15.5q6 2 9 2q4 0 6 -2.5t2 -6.5q0 -5 -2 -15.5t-4 -33t-2 -63.5v-194q0 -14 1.5 -21.5t4.5 -12.5q16 12 38.5 27t51 26t60.5 11
q51 0 84.5 -38t33.5 -100v-213q0 -20 12.5 -28.5t27.5 -13.5q10 -4 16 -7.5t6 -10.5q0 -12 -21 -12t-33 1.5t-23 2.5t-30 1t-29.5 -1t-22 -2.5t-33.5 -1.5q-21 0 -21 12q0 8 6 11t16 7q14 4 26 13t12 30v202q0 24 -13 43.5t-31.5 30.5t-38.5 11q-18 0 -40.5 -5t-37.5 -17
q-13 -10 -17.5 -21.5t-4.5 -37.5v-209q1 -20 12 -27.5t25 -12.5q10 -3 16 -7t6 -11q0 -12 -20 -12t-32.5 1.5t-24 2.5t-29.5 1q-17 0 -29.5 -1t-26 -2.5t-33.5 -1.5zM171 -75q-8 0 -13 -7.5t-5 -20.5q0 -33 11 -59.5t36 -42.5t64 -16t64 17.5t36 44.5t11 56q0 13 -4.5 20.5
t-13.5 7.5q-7 0 -10.5 -6.5t-7.5 -14.5q-6 -13 -12.5 -27t-20.5 -24t-42 -10t-42 10t-20.5 24t-12.5 27q-4 8 -7 14.5t-11 6.5z" />
  </g>

</svg>
