<?xml version="1.0" standalone="no"?>
<!DOCTYPE svg PUBLIC "-//W3C//DTD SVG 1.1//EN" "http://www.w3.org/Graphics/SVG/1.1/DTD/svg11.dtd" >
<svg xmlns="http://www.w3.org/2000/svg" xmlns:xlink="http://www.w3.org/1999/xlink" version="1.1" viewBox="-10 0 893 1000">
  <g transform="matrix(1 0 0 -1 0 800)">
   <path fill="currentColor"
d="M662 3q0 51 -1.5 111t-4 122t-5 120t-4.5 106q0 9 -4.5 8.5t-9.5 -9.5l-216 -464q-3 -8 -10.5 -7.5t-10.5 7.5q-42 117 -88.5 229.5t-99.5 236.5q-2 7 -7.5 6t-6.5 -8q-7 -63 -13 -121.5t-9.5 -116.5t-3.5 -120q0 -28 17.5 -48.5t50.5 -27.5q15 -3 23.5 -7t8.5 -12
q0 -6 -8 -9t-20 -3q-27 0 -41 1.5t-25 2t-31 0.5q-19 0 -33.5 -1l-29 -2t-33.5 -1q-13 0 -20.5 2.5t-7.5 9.5t8.5 10.5t23.5 7.5q24 6 40.5 25t21.5 53q10 75 18 151.5t14 146t8 123.5v16t-1 17q0 11 -3.5 20.5t-14.5 16.5q-16 13 -32 18.5t-36 9.5q-11 2 -17.5 7.5
t-6.5 12.5q0 9 9 11t23 2q12 0 33 -1t46 -2.5t47.5 -2.5t37.5 -1q7 0 13 -4.5t8 -12.5q5 -18 10.5 -37t12.5 -39l154 -383q3 -6 9.5 -7t9.5 5l178 383q6 23 10.5 44.5t8.5 36.5q3 13 12 13h38q34 0 72 4.5t58 4.5q7 0 15 -2.5t8 -9.5q0 -8 -6 -12t-19 -9q-11 -4 -24 -9
t-24 -10q-16 -7 -25 -18.5t-8 -30.5q0 -71 2.5 -130t5.5 -111.5t6.5 -102t5.5 -100.5q1 -74 -18.5 -141.5t-55.5 -110.5q-23 -29 -52.5 -44.5t-63.5 -15.5q-116 0 -116 52q0 18 15 34.5t28 16.5t24.5 -5.5t21.5 -18.5q15 -19 25 -28.5t22 -9.5q34 0 48.5 41.5t14.5 120.5z
" />
  </g>

</svg>
