<?xml version="1.0" standalone="no"?>
<!DOCTYPE svg PUBLIC "-//W3C//DTD SVG 1.1//EN" "http://www.w3.org/Graphics/SVG/1.1/DTD/svg11.dtd" >
<svg xmlns="http://www.w3.org/2000/svg" xmlns:xlink="http://www.w3.org/1999/xlink" version="1.1" viewBox="-10 0 741 1000">
  <g transform="matrix(1 0 0 -1 0 800)">
   <path fill="currentColor"
d="M666 -219q-9 0 -14 9.5t-6.5 22t-1.5 23.5q1 17 0.5 33t-0.5 29q0 60 -22 81.5t-61 21.5q-16 0 -36 -0.5t-42 -1.5t-46 -1q-11 0 -18.5 3t-7.5 10q0 12 25 18q32 7 33 23q0 6 -4.5 12.5t-11.5 14.5l-196 219q-5 6 -12 11t-11 5t-5 -6.5t-1 -12.5q0 -47 1 -90t3 -98
q1 -21 6 -37t18 -26.5t38 -16.5q15 -3 23 -7t8 -12q0 -6 -8.5 -9.5t-20.5 -3.5q-28 0 -45.5 2t-32 4t-33.5 2q-23 0 -41.5 -2t-39 -4t-49.5 -2q-12 0 -20.5 3t-8.5 10q0 13 31 19q38 7 51.5 22.5t13.5 50.5v451q0 34 -14 48t-53 22q-29 6 -29 20q0 7 7.5 10t18.5 3
q26 0 45.5 -1t38 -1.5t39.5 -0.5q19 0 35.5 0.5t35 1t43.5 0.5q12 0 18.5 -2.5t6.5 -9.5q0 -8 -7 -12.5t-22 -7.5q-38 -9 -47.5 -25t-9.5 -45v-193q0 -5 1.5 -11.5t5.5 -6.5q5 0 12.5 5.5t13.5 11.5l199 205q8 9 12 16.5t4 14.5q0 19 -27 25q-15 4 -21 8.5t-6 12.5q0 6 7 9
t18 3h60q52 0 97.5 1.5t76.5 2.5q10 0 17 -3.5t7 -8.5q0 -8 -9 -13t-23 -8q-42 -7 -81 -22.5t-72 -41.5q-34 -28 -64 -56t-59.5 -58t-62.5 -66q-8 -8 4 -22l242 -260q14 -16 37.5 -31.5t47 -26t41.5 -12.5q8 0 11.5 -5t3.5 -11q0 -12 -5.5 -37.5t-11 -62.5t-8.5 -81
q-1 -16 -9.5 -32t-20.5 -16z" />
  </g>

</svg>
