<?xml version="1.0" standalone="no"?>
<!DOCTYPE svg PUBLIC "-//W3C//DTD SVG 1.1//EN" "http://www.w3.org/Graphics/SVG/1.1/DTD/svg11.dtd" >
<svg xmlns="http://www.w3.org/2000/svg" xmlns:xlink="http://www.w3.org/1999/xlink" version="1.1" viewBox="-10 0 1409 1000">
  <g transform="matrix(1 0 0 -1 0 800)">
   <path fill="currentColor"
d="M238 -214q-13 0 -21 8q-21 21 -45.5 60t-48 89t-43 106t-30.5 112.5t-11 106.5q0 64 16.5 128t43 121t56.5 102.5t57 72.5q6 6 15.5 9.5t18.5 3.5q6 0 16.5 -5.5t10.5 -13.5q0 -2 -3.5 -7t-7.5 -10.5t-5 -6.5q-29 -34 -57.5 -92t-47 -132.5t-18.5 -159.5q0 -62 10 -128
t27 -128t38.5 -110.5t42.5 -74.5q2 -1 6.5 -6.5t8.5 -10.5t4 -7q0 -12 -10.5 -19.5t-22.5 -7.5zM1157 -214q13 0 21 8q21 21 45.5 60t48 89t43 106t30.5 112.5t11 106.5q0 64 -16.5 128t-43 121t-56.5 102.5t-57 72.5q-6 6 -15.5 9.5t-18.5 3.5q-6 0 -16.5 -5.5t-10.5 -13.5
q0 -2 3.5 -7t7.5 -10.5t5 -6.5q29 -34 57.5 -92t47 -132.5t18.5 -159.5q0 -62 -10 -128t-27 -128t-38.5 -110.5t-42.5 -74.5q-2 -1 -6.5 -6.5t-8.5 -10.5t-4 -7q0 -12 10.5 -19.5t22.5 -7.5zM358 -4q-7 0 -13 4.5t-6 11.5q0 5 6 8t13 4q14 2 28.5 5t25 13.5t10.5 32.5v258
q0 23 -8.5 33.5t-22 14.5t-30.5 6q-7 1 -11.5 4.5t-4.5 7.5q0 6 4.5 10t11.5 4q31 0 46 -1t27.5 -2t33.5 -1t33 1t27 2t46 1q6 0 11 -3.5t5 -8.5q0 -6 -5.5 -9.5t-10.5 -4.5q-16 -3 -29.5 -6t-21.5 -13.5t-8 -34.5v-258q0 -32 16 -39.5t48 -11.5q9 -1 13.5 -5t4.5 -9
t-5 -9.5t-13 -4.5q-31 0 -46.5 2t-28.5 3t-36 1t-36.5 -1t-29 -3t-44.5 -2zM664 -203q-11 0 -11 5q0 7 4 11t9.5 6.5t7.5 3.5q25 9 54 27t58.5 41t54.5 47.5t42 46.5q18 25 37.5 59t32.5 80t13 103q0 42 -16 76t-42.5 54.5t-60.5 20.5q-29 0 -49 -17t-29.5 -42t-9.5 -50
q0 -32 12 -61.5t32.5 -47.5t44.5 -18q25 0 38 6.5t29 13.5q10 5 12.5 -2.5t-2.5 -13.5q-5 -9 -13.5 -17t-16.5 -14q-7 -5 -22.5 -13.5t-34 -15t-37.5 -6.5q-37 0 -68 17.5t-49.5 48t-18.5 70.5q0 35 15.5 71t43.5 66.5t67 48.5t86 18q53 0 97 -26.5t70 -74t26 -110.5
q0 -45 -13.5 -84.5t-35 -73.5t-45.5 -61.5t-45 -48.5q-22 -20 -53.5 -43.5t-67.5 -44.5t-70.5 -35.5t-61.5 -19.5q-5 -1 -8 -1h-6z" />
  </g>

</svg>
