<?xml version="1.0" standalone="no"?>
<!DOCTYPE svg PUBLIC "-//W3C//DTD SVG 1.1//EN" "http://www.w3.org/Graphics/SVG/1.1/DTD/svg11.dtd" >
<svg xmlns="http://www.w3.org/2000/svg" xmlns:xlink="http://www.w3.org/1999/xlink" version="1.1" viewBox="-10 0 306 1000">
  <g transform="matrix(1 0 0 -1 0 800)">
   <path fill="currentColor"
d="M153 200q-21 0 -27.5 18t-8.5 37q-8 63 -16 123t-13.5 110t-5.5 83q0 24 8.5 44.5t25.5 34t41 13.5q25 0 41.5 -14t24 -35t7.5 -41q0 -32 -3.5 -65.5t-9.5 -72t-13 -83t-15 -97.5q-2 -18 -9 -36.5t-27 -18.5zM154 -25q-34 0 -56 24t-22 55q0 34 23.5 56t54.5 22
q33 0 56 -23.5t23 -54.5q0 -34 -24.5 -56.5t-54.5 -22.5z" />
  </g>

</svg>
