<?xml version="1.0" standalone="no"?>
<!DOCTYPE svg PUBLIC "-//W3C//DTD SVG 1.1//EN" "http://www.w3.org/Graphics/SVG/1.1/DTD/svg11.dtd" >
<svg xmlns="http://www.w3.org/2000/svg" xmlns:xlink="http://www.w3.org/1999/xlink" version="1.1" viewBox="-10 0 524 1000">
  <g transform="matrix(1 0 0 -1 0 800)">
   <path fill="currentColor"
d="M44 -4q-11 0 -18.5 2.5t-7.5 9.5q0 13 29 19q38 7 56.5 22t18.5 49v452q0 34 -14 48.5t-53 22.5q-29 6 -29 20q0 7 7.5 10t18.5 3q26 0 46 -1t39 -2t42 -1q21 0 39 0.5t38 1.5t45 1q11 0 18 -2.5t7 -9.5q0 -8 -7 -12.5t-22 -7.5q-38 -9 -53.5 -23t-15.5 -48v-451
q0 -18 6.5 -24.5t20.5 -6.5q37 0 72 5.5t63 19.5t44.5 38t16.5 61q0 14 -7.5 24t-14.5 18.5t-7 17.5q0 21 12.5 32.5t23.5 11.5q23 0 33.5 -19t10.5 -45q0 -43 -20 -84t-59.5 -74.5t-100 -53.5t-143.5 -20q-23 0 -44 -1t-43 -2t-48 -1zM58 278q-5 -1 -10.5 2t-6.5 8
q-1 7 5 16.5t17 11.5l310 77q6 2 11 -2.5t6 -8.5q1 -6 -8.5 -16.5t-21.5 -13.5zM42 374q-6 -2 -11.5 2t-6.5 8q-1 8 5.5 17t16.5 12l311 77q5 2 10 -2.5t6 -8.5q1 -6 -8 -16.5t-22 -13.5z" />
  </g>

</svg>
