<?xml version="1.0" standalone="no"?>
<!DOCTYPE svg PUBLIC "-//W3C//DTD SVG 1.1//EN" "http://www.w3.org/Graphics/SVG/1.1/DTD/svg11.dtd" >
<svg xmlns="http://www.w3.org/2000/svg" xmlns:xlink="http://www.w3.org/1999/xlink" version="1.1" viewBox="-10 0 1012 1000">
  <g transform="matrix(1 0 0 -1 0 800)">
   <path fill="currentColor"
d="M711 476q8 0 16.5 -5t13.5 -9q23 -24 46 -45t46.5 -40t50.5 -36.5t60 -33.5q8 -5 11 -8t3 -8t-3 -8.5t-13 -7.5q-34 -19 -61 -37t-50 -37t-45 -40t-46 -45q-5 -5 -13.5 -9.5t-16.5 -4.5q-7 0 -8.5 5t2.5 11q6 11 12 22.5t13 22.5h-669q-5 0 -10 3t-5 8q0 8 4 17
t10.5 15.5t17.5 6.5h683q20 31 40 53h-740q-5 0 -10 3t-5 8q0 6 4.5 15t11.5 16.5t16 7.5h724q-12 12 -22 25.5t-20 29.5h-699q-5 0 -10 3.5t-5 8.5q0 7 4 16t10.5 15.5t17.5 6.5h650q-6 10 -11.5 19.5t-11.5 19.5q-1 2 -1.5 4t-0.5 4q0 8 9 8z" />
  </g>

</svg>
