<?xml version="1.0" standalone="no"?>
<!DOCTYPE svg PUBLIC "-//W3C//DTD SVG 1.1//EN" "http://www.w3.org/Graphics/SVG/1.1/DTD/svg11.dtd" >
<svg xmlns="http://www.w3.org/2000/svg" xmlns:xlink="http://www.w3.org/1999/xlink" version="1.1" viewBox="-10 0 781 1000">
  <g transform="matrix(1 0 0 -1 0 800)">
   <path fill="currentColor"
d="M560 599q48 0 88 -17.5t63.5 -50t23.5 -75.5q0 -73 -45 -125.5t-118 -86.5l-20 -9l12 -14q9 -11 25 -27.5t28.5 -39t12.5 -51.5q0 -35 -21.5 -62t-56.5 -41.5t-76 -14.5q-44 0 -74.5 17.5t-46.5 44.5t-16 55q-1 41 27.5 68t77.5 45l17 6l-15 17q-35 36 -65 66t-59 69
l-14 18l-16 -17q-23 -23 -44.5 -51t-35.5 -51.5t-14 -32.5t8 -18t20 -12q4 -2 9.5 -5.5t5.5 -7.5q0 -9 -9.5 -11t-15.5 -2t-21 1.5t-31.5 3t-26.5 1.5q-17 0 -37 -4t-39 -8.5t-32 -4.5q-4 0 -9 3.5t-5 6.5q0 7 9 14t19 8q26 3 46 14.5t34 24.5q7 5 24.5 23t40.5 41.5
t45 46.5t38.5 39t20.5 20l-17 24q-32 43 -62 70t-66 27q-19 0 -39 -3.5t-39 -12.5q-4 -2 -9 -4t-10 -2q-7 0 -10.5 2.5t-3.5 10.5q0 10 21.5 28t53.5 32t66 14q38 0 64.5 -11.5t48 -35t47.5 -60.5l14 -21l6 6q31 34 61 62t64 44t78 16zM518 524q-41 0 -74.5 -16t-66.5 -50
l-8 -8l13 -19q27 -39 63.5 -78t76.5 -83l12 -14l20 9q36 15 54.5 38.5t24.5 50.5t6 54q0 50 -33.5 83t-87.5 33zM477 202l-12 -7q-24 -12 -35 -39t-11 -56q0 -33 15 -59.5t47 -26.5q26 0 46 17.5t20 42.5q0 23 -4.5 40t-16.5 33t-32 37z" />
  </g>

</svg>
