<?xml version="1.0" standalone="no"?>
<!DOCTYPE svg PUBLIC "-//W3C//DTD SVG 1.1//EN" "http://www.w3.org/Graphics/SVG/1.1/DTD/svg11.dtd" >
<svg xmlns="http://www.w3.org/2000/svg" xmlns:xlink="http://www.w3.org/1999/xlink" version="1.1" viewBox="-10 0 744 1000">
  <g transform="matrix(1 0 0 -1 0 800)">
   <path fill="currentColor"
d="M154 404q-32 0 -60.5 16.5t-45 45t-16.5 64.5q0 38 19.5 69.5t53.5 50t75 18.5q22 0 45.5 -7.5t41.5 -25.5q2 -2 3 -4.5t1 -4.5q0 -11 -9.5 -23t-21.5 -12q-5 0 -9 3.5t-7 6.5q-11 18 -22.5 25t-32.5 7q-28 0 -43 -24t-15 -56q0 -43 19 -68t54 -25q21 0 35 5t27 20
q4 4 8 4q5 0 11 -3.5t6 -9.5q0 -4 -2 -8l-4 -8q-11 -19 -40 -37.5t-71 -18.5zM454 646q8 12 18.5 15.5t24.5 3.5q6 0 11 -4.5t5 -10.5q0 -3 -1 -4l-428 -678q-7 -11 -17.5 -13.5t-22.5 -2.5q-7 0 -13 4t-6 9q0 2 1 3zM589 -2q-3 0 -3 7q0 5 2 18.5t1 20.5q-24 -22 -50.5 -32
t-56.5 -10q-31 0 -52.5 21.5t-21.5 57.5v109q0 14 -6 22t-21 12q-3 0 -7 4.5t-4 10.5t3 10.5t8 4.5q14 1 29.5 2.5t31 5t29.5 6.5q4 1 10 -1.5t5 -6.5q-2 -15 -3.5 -27t-1.5 -26v-105q0 -23 11 -37.5t30 -14.5q15 -1 22.5 1.5t17.5 9.5q7 5 15 13.5t8 22.5v98q0 11 -7 18
t-15.5 10t-15.5 4q-5 1 -8 4t-3 11q0 14 11 14q35 1 56 5t45 9q5 0 12 -5t6 -9q-2 -4 -5 -19.5t-3 -28.5v-119q0 -17 2 -27.5t8 -10.5q4 0 15.5 0.5t16.5 0.5q7 0 7 -9q0 -4 -1 -11t-4 -7q-30 -3 -54.5 -10.5t-41.5 -12.5q-2 -1 -7.5 -2.5t-9.5 -1.5z" />
  </g>

</svg>
