<?xml version="1.0" standalone="no"?>
<!DOCTYPE svg PUBLIC "-//W3C//DTD SVG 1.1//EN" "http://www.w3.org/Graphics/SVG/1.1/DTD/svg11.dtd" >
<svg xmlns="http://www.w3.org/2000/svg" xmlns:xlink="http://www.w3.org/1999/xlink" version="1.1" viewBox="-10 0 621 1000">
  <g transform="matrix(1 0 0 -1 0 800)">
   <path fill="currentColor"
d="M84 -185q-13 0 -26.5 3t-13.5 11q0 9 11.5 13.5t22.5 6.5q41 8 73.5 24.5t52 47.5t19.5 80q0 31 -16.5 60t-44 53t-58.5 42q-29 16 -40.5 29.5t-11.5 29.5q0 30 6.5 58.5t15 50.5t12.5 30q7 14 18 22t19 11q16 6 40 12t48.5 11t43.5 8.5t25 3.5t9.5 -5t3.5 -11
q0 -15 -7 -34t-19.5 -33t-26.5 -17q-24 -5 -48 -8t-44.5 -5t-37.5 -5q-6 -1 -12.5 -7.5t-6.5 -19.5q0 -6 7 -12t17 -11q38 -20 74.5 -46t65.5 -56t46.5 -62t17.5 -65q0 -49 -21.5 -88t-56.5 -66t-76 -41.5t-81 -14.5zM493 -20q-26 0 -45 19t-19 45q0 28 19 46.5t45 18.5
q27 0 45.5 -18.5t18.5 -46.5q0 -26 -18.5 -45t-45.5 -19z" />
  </g>

</svg>
