<?xml version="1.0" standalone="no"?>
<!DOCTYPE svg PUBLIC "-//W3C//DTD SVG 1.1//EN" "http://www.w3.org/Graphics/SVG/1.1/DTD/svg11.dtd" >
<svg xmlns="http://www.w3.org/2000/svg" xmlns:xlink="http://www.w3.org/1999/xlink" version="1.1" viewBox="-10 0 394 1000">
  <g transform="matrix(1 0 0 -1 0 800)">
   <path fill="currentColor"
d="M246 327q6 0 14 -9t11 -21q6 -16 12.5 -35t6.5 -52q0 -23 -19 -42q6 -61 11.5 -122t8.5 -108q11 -8 20 -23.5t9 -31.5q0 -14 -12.5 -24.5t-27.5 -13.5q-9 -12 -20.5 -16.5t-26.5 -5.5q-25 0 -37 14t-14 39q-34 23 -62 61.5t-44.5 79.5t-16.5 74q0 38 14.5 57t31.5 27
q19 11 33.5 19t27.5 15.5t29 18.5q21 12 26 31t7 45q1 8 5 15.5t13 7.5zM237 519q27 0 45.5 -19t18.5 -45q0 -27 -18.5 -46t-45.5 -19t-45.5 19t-18.5 46q0 26 18.5 45t45.5 19zM200 123q-5 -2 -10.5 -5t-10.5 -5q-21 -11 -39.5 -29t-18.5 -40q0 -36 15.5 -62.5t44.5 -37.5
q3 40 8 86t11 93z" />
  </g>

</svg>
