<?xml version="1.0" standalone="no"?>
<!DOCTYPE svg PUBLIC "-//W3C//DTD SVG 1.1//EN" "http://www.w3.org/Graphics/SVG/1.1/DTD/svg11.dtd" >
<svg xmlns="http://www.w3.org/2000/svg" xmlns:xlink="http://www.w3.org/1999/xlink" version="1.1" viewBox="-10 0 892 1000">
  <g transform="matrix(1 0 0 -1 0 800)">
   <path fill="currentColor"
d="M484 -15q-14 0 -26.5 10t-23.5 26.5l-23 34.5q-10 16 -26 49t-35.5 75t-40.5 87.5t-41 87.5t-36 74t-26 47q-5 7 -10 11t-8 4q-5 0 -6.5 -7.5t-1.5 -13.5v-78.5t-1 -87.5t-1.5 -86.5t-1.5 -75.5q-1 -59 -15 -93.5t-33.5 -49t-40.5 -14.5q-25 0 -43.5 15.5t-18.5 41.5
q0 12 8 15t20 5q13 3 28 9t27.5 27t15.5 67q3 39 8 138t5 239q0 21 -8.5 35.5t-29 25t-58.5 17.5q-5 1 -17.5 7.5t-12.5 15.5t9 12t15 3q34 -1 60 -2t53 -2t63 -1q9 0 14 -4.5t9 -10.5q9 -14 25 -48.5t37 -79.5t42.5 -93.5t41.5 -93.5t35 -79t22 -50q2 -4 8.5 -10.5
t11.5 -6.5q9 0 9 19q1 20 2 50.5t1.5 66.5t0.5 74.5v75.5q0 83 15 126.5t39.5 59.5t51.5 16q24 0 36.5 -12.5t12.5 -24.5q0 -14 -23 -21q-23 -5 -42.5 -22t-31.5 -51t-13 -94q0 -12 -1 -43t-2.5 -75t-3 -95t-1.5 -103q0 -14 0.5 -33t0.5 -36v-24v-23.5t-5 -16.5t-19 -6z
M843 243q6 0 11 -3.5t5 -8.5q0 -1 -0.5 -1.5t-0.5 -2.5q-6 -10 -14 -16t-20 -6h-223q-6 0 -10.5 4.5t-4.5 8.5q0 7 7.5 16t18.5 9h231zM723 317q-37 0 -67 16t-48.5 44t-18.5 65q0 39 20 71t53 51t74 19q37 0 68 -17t49.5 -45t18.5 -62q0 -37 -16.5 -69.5t-50 -52.5
t-82.5 -20zM735 350q21 0 33 13.5t17.5 35t5.5 45.5q0 26 -8 50.5t-22 39.5t-35 15t-33 -13.5t-17 -35t-5 -44.5q0 -27 8 -51.5t22.5 -39.5t33.5 -15z" />
  </g>

</svg>
