<?xml version="1.0" standalone="no"?>
<!DOCTYPE svg PUBLIC "-//W3C//DTD SVG 1.1//EN" "http://www.w3.org/Graphics/SVG/1.1/DTD/svg11.dtd" >
<svg xmlns="http://www.w3.org/2000/svg" xmlns:xlink="http://www.w3.org/1999/xlink" version="1.1" viewBox="-10 0 451 1000">
  <g transform="matrix(1 0 0 -1 0 800)">
   <path fill="currentColor"
d="M236 667q4 0 8 -5t4 -10v-473q17 15 37.5 31.5t46.5 32.5t60 33q1 1 3 1.5t4 0.5q9 0 9 -9q0 -8 -5 -17t-9 -13q-22 -23 -42 -43.5t-37.5 -42.5t-34 -46t-32.5 -54v-83q17 16 37.5 32t46.5 32.5t60 32.5q1 1 3 2t4 1q9 0 9 -10q0 -8 -5 -16.5t-9 -12.5q-24 -24 -45 -47
t-40 -46t-36.5 -50t-34.5 -60q-5 -10 -8 -12.5t-8 -2.5q-8 0 -16 15q-18 34 -36.5 61t-37.5 50t-40 45t-45 46q-4 4 -8.5 13t-4.5 17q0 7 5 8t11 -2q35 -16 62 -32t47.5 -32.5t37.5 -33.5v85q-18 30 -35 54.5t-35 45.5t-37.5 42t-42.5 44q-4 4 -8.5 12.5t-4.5 16.5t5 8.5
t11 -1.5q35 -16 62 -32.5t47.5 -33t37.5 -32.5v459q0 9 7.5 16t16.5 11t15 4z" />
  </g>

</svg>
