<?xml version="1.0" standalone="no"?>
<!DOCTYPE svg PUBLIC "-//W3C//DTD SVG 1.1//EN" "http://www.w3.org/Graphics/SVG/1.1/DTD/svg11.dtd" >
<svg xmlns="http://www.w3.org/2000/svg" xmlns:xlink="http://www.w3.org/1999/xlink" version="1.1" viewBox="-10 0 1014 1000">
  <g transform="matrix(1 0 0 -1 0 800)">
   <path fill="currentColor"
d="M291 103q-8 0 -16.5 5t-13.5 9q-23 24 -45.5 44.5t-45.5 39.5t-50 37.5t-61 37.5q-15 7 -15 15q0 6 2.5 9t12.5 7q33 17 60 34.5t50.5 36.5t46 40t46.5 45q5 4 13.5 9t16.5 5q9 0 9 -9q0 -2 -0.5 -3.5t-2.5 -3.5q-16 -34 -32.5 -60t-32.5 -46.5t-31 -37.5h83
q30 16 53.5 32.5t46 34t43 37.5t43.5 42q5 4 13 9t16 5q9 0 9 -9q0 -2 -0.5 -3.5t-1.5 -3.5q-16 -34 -32.5 -60t-32.5 -46.5t-32 -37.5h534q6 0 10.5 -3.5t4.5 -8.5q0 -6 -4 -15t-11 -16.5t-16 -7.5h-520q12 -12 27 -30.5t29.5 -39.5t25.5 -42t17 -38q2 -7 0 -10t-8 -3
q-8 0 -16 5t-13 9q-22 22 -43 41.5t-42.5 37.5t-45.5 35t-55 35h-84q12 -12 27 -30.5t29.5 -39.5t25.5 -42t16 -38q2 -7 0.5 -10t-7.5 -3z" />
  </g>

</svg>
