<?xml version="1.0" standalone="no"?>
<!DOCTYPE svg PUBLIC "-//W3C//DTD SVG 1.1//EN" "http://www.w3.org/Graphics/SVG/1.1/DTD/svg11.dtd" >
<svg xmlns="http://www.w3.org/2000/svg" xmlns:xlink="http://www.w3.org/1999/xlink" version="1.1" viewBox="-10 0 547 1000">
  <g transform="matrix(1 0 0 -1 0 800)">
   <path fill="currentColor"
d="M479 -145q-12 0 -17 11t-5 25q1 9 0.5 22t-0.5 23q0 41 -15.5 53.5t-38.5 12.5q-15 0 -27 -1t-25.5 -2.5t-32.5 -1.5q-7 0 -14 2t-7 9q0 8 7 12t15 7q14 4 26 13t12 30v202q0 24 -13 43.5t-31.5 30.5t-38.5 11q-18 0 -39.5 -4.5t-34.5 -14.5q-15 -12 -20.5 -25.5
t-5.5 -43.5v-202q1 -20 11.5 -27.5t24.5 -12.5q8 -3 15.5 -7t7.5 -12q0 -6 -6.5 -8.5t-13.5 -2.5q-20 0 -32.5 1.5t-24 2.5t-29.5 1q-17 0 -29.5 -1t-26 -2.5t-33.5 -1.5q-6 0 -13 2t-7 9q0 8 7 11.5t16 7.5q15 5 28 12t13 28v493q0 27 -8.5 47.5t-34.5 25.5q-8 2 -8 14
q0 11 7 13q26 5 49.5 13t44 16.5t36.5 13.5q2 1 3.5 1.5t2.5 0.5q4 0 5.5 -3t2.5 -6q0 -5 -2 -15.5t-4 -33t-2 -63.5v-194q0 -9 1.5 -19.5t5.5 -14.5q16 12 39 27t52 26.5t61 11.5q33 0 59 -18t41 -49.5t15 -71.5v-228q0 -7 13.5 -10t25.5 -3q5 0 13.5 1t14.5 1q12 0 12 -8
q0 -4 -1 -6q-3 -10 -8 -27t-10 -44.5t-7 -69.5q-1 -14 -8.5 -23.5t-13.5 -9.5z" />
  </g>

</svg>
