<?xml version="1.0" standalone="no"?>
<!DOCTYPE svg PUBLIC "-//W3C//DTD SVG 1.1//EN" "http://www.w3.org/Graphics/SVG/1.1/DTD/svg11.dtd" >
<svg xmlns="http://www.w3.org/2000/svg" xmlns:xlink="http://www.w3.org/1999/xlink" version="1.1" viewBox="-10 0 755 1000">
  <g transform="matrix(1 0 0 -1 0 800)">
   <path fill="currentColor"
d="M313 -200q-34 0 -63.5 15.5t-52.5 44.5q-36 43 -56 110.5t-20 141.5v421q0 34 -4 51.5t-16.5 25t-39.5 11.5q-16 2 -23 7.5t-7 12.5q0 6 7.5 9.5t18.5 3.5q29 0 45 -1t30.5 -1.5t36.5 -0.5q20 0 36 1.5t36 3t51 1.5q112 0 171.5 -40.5t59.5 -122.5q0 -45 -18.5 -77
t-46.5 -53t-56 -33q-4 -1 -3.5 -4.5t2.5 -8.5q31 -46 59.5 -87.5t61 -80t74.5 -77.5q28 -26 58.5 -31t65.5 -5q15 0 15 -14q0 -17 -15.5 -26.5t-37.5 -13.5t-42 -4q-36 0 -64.5 7.5t-51 22.5t-40.5 37q-23 30 -44.5 56.5t-44.5 60.5t-54 86q-6 13 -15 21t-22 14
q-17 9 -34.5 13t-28.5 4q-7 1 -10.5 -5t-3.5 -15v-279q0 -78 16 -119.5t49 -41.5q13 0 23 10t25 28q11 13 22 18.5t23 5.5q13 0 28.5 -16.5t15.5 -34.5q0 -52 -116 -52zM275 334q43 0 73.5 19.5t47 52t16.5 70.5q0 43 -11 76t-40 51.5t-83 18.5q-28 0 -38 -19.5t-11 -73.5
q-1 -24 -1.5 -64t-0.5 -95q0 -24 13 -30t35 -6z" />
  </g>

</svg>
