<?xml version="1.0" standalone="no"?>
<!DOCTYPE svg PUBLIC "-//W3C//DTD SVG 1.1//EN" "http://www.w3.org/Graphics/SVG/1.1/DTD/svg11.dtd" >
<svg xmlns="http://www.w3.org/2000/svg" xmlns:xlink="http://www.w3.org/1999/xlink" version="1.1" viewBox="-10 0 1007 1000">
  <g transform="matrix(1 0 0 -1 0 800)">
   <path fill="currentColor"
d="M43 -4q-7 0 -13 4.5t-6 11.5q0 5 6 8t13 4q14 2 28.5 5t25 13.5t10.5 32.5v258q0 23 -8.5 33.5t-22 14.5t-30.5 6q-7 1 -11.5 4.5t-4.5 7.5q0 6 4.5 10t11.5 4q31 0 46 -1t27.5 -2t33.5 -1t33 1t27 2t46 1q6 0 11 -3.5t5 -8.5q0 -6 -5.5 -9.5t-10.5 -4.5q-16 -3 -29.5 -6
t-21.5 -13.5t-8 -34.5v-258q0 -32 16 -39.5t48 -11.5q9 -1 13.5 -5t4.5 -9t-5 -9.5t-13 -4.5q-31 0 -46.5 2t-28.5 3t-36 1t-36.5 -1t-29 -3t-44.5 -2zM533 -14q-66 0 -110.5 27t-67 73.5t-22.5 106.5q0 74 21.5 130t48.5 94.5t44 58.5q24 28 65 59.5t93 58.5t107 43
q10 3 17.5 2t7.5 -5q0 -7 -6 -12.5t-13.5 -9t-9.5 -4.5q-62 -28 -107 -64t-81 -89q-16 -24 -35.5 -63t-33.5 -90t-14 -110q0 -43 15 -81t42.5 -61.5t62.5 -23.5q46 0 72 34t26 84q0 31 -12 57t-31 42.5t-43 16.5q-21 0 -36.5 -2.5t-29.5 -9.5q-12 -6 -14.5 0.5t4.5 15.5
l12 12t12 11t22.5 16.5t35.5 18.5t38 8q38 0 68.5 -18.5t48.5 -49.5t18 -69q0 -36 -14 -73t-42 -67t-68 -48.5t-91 -18.5zM879 -20q-26 0 -45 19t-19 45q0 28 19 46.5t45 18.5q27 0 45.5 -18.5t18.5 -46.5q0 -26 -18.5 -45t-45.5 -19z" />
  </g>

</svg>
