<?xml version="1.0" standalone="no"?>
<!DOCTYPE svg PUBLIC "-//W3C//DTD SVG 1.1//EN" "http://www.w3.org/Graphics/SVG/1.1/DTD/svg11.dtd" >
<svg xmlns="http://www.w3.org/2000/svg" xmlns:xlink="http://www.w3.org/1999/xlink" version="1.1" viewBox="-10 0 720 1000">
  <g transform="matrix(1 0 0 -1 0 800)">
   <path fill="currentColor"
d="M42 -3q-8 0 -13.5 3t-5.5 9q0 8 6.5 11.5t14.5 5.5q23 6 34 13t11 25v216q0 30 -10 48.5t-35 22.5q-5 1 -7.5 4.5t-2.5 10.5q0 12 9 13q44 10 75.5 26.5t47.5 26.5q11 7 16 7q8 0 8 -8q0 -11 -2.5 -35t-5 -52t-2.5 -52v-228q0 -16 11 -24t34 -14q8 -2 14.5 -5.5
t6.5 -11.5q0 -12 -18 -12q-19 0 -34 1.5t-28.5 2.5t-31.5 1q-17 0 -31 -1t-27.5 -2.5t-33.5 -1.5zM132 508q-25 0 -42.5 17.5t-17.5 42.5q0 26 17.5 43.5t42.5 17.5q26 0 44 -17.5t18 -43.5q0 -25 -18 -42.5t-44 -17.5zM279 -4q-6 0 -13.5 1.5t-7.5 8.5q0 8 6.5 12t14.5 7
q14 5 28 16t34 39l83 113q7 8 6.5 13t-4.5 11l-80 120q-12 20 -22 30.5t-25 14.5q-9 3 -15.5 7t-6.5 12t9.5 9t14.5 1q21 0 30.5 -1t21 -2t34.5 -1q22 0 34 1.5t35 1.5q5 0 14 -1.5t9 -9.5q0 -6 -6 -9t-14 -6t-15.5 -7t-7.5 -13q0 -5 3.5 -13.5t9.5 -17.5l46 -69q4 -7 9 0
l44 69q4 7 7 15t3 15q0 13 -15 18l-15 7.5t-7 11.5t9 9t14 1q14 0 28.5 -1t26.5 -1q24 0 35 2t28 2q7 0 14.5 -1.5t7.5 -8.5t-6.5 -11.5t-15.5 -7.5q-13 -4 -31 -15t-34 -33l-66 -95q-3 -5 -3 -9t3 -9l93 -149q12 -19 25 -30.5t30 -16.5q8 -3 14.5 -7t6.5 -12
q0 -7 -7.5 -8.5t-13.5 -1.5q-22 0 -34 1t-24.5 2t-36.5 1q-22 0 -43 -1.5t-44 -1.5q-24 0 -24 11q0 9 6.5 13t18.5 7q11 3 19.5 9.5t8.5 19.5q0 6 -1.5 11.5t-6.5 12.5l-56 89q-3 3 -6 0l-60 -93q-1 -4 -4.5 -11.5t-3.5 -15.5t4 -14.5t12 -9.5t15 -6.5t7 -11.5t-9 -9.5
t-14 -1.5q-14 0 -29 1t-27 1q-23 0 -36.5 -1.5t-31.5 -2.5z" />
  </g>

</svg>
