<?xml version="1.0" standalone="no"?>
<!DOCTYPE svg PUBLIC "-//W3C//DTD SVG 1.1//EN" "http://www.w3.org/Graphics/SVG/1.1/DTD/svg11.dtd" >
<svg xmlns="http://www.w3.org/2000/svg" xmlns:xlink="http://www.w3.org/1999/xlink" version="1.1" viewBox="-13 0 624 1000">
  <g transform="matrix(1 0 0 -1 0 800)">
   <path fill="currentColor"
d="M300 261q-19 0 -42.5 8t-49.5 18.5t-50 18t-44 7.5q-23 0 -44 -12.5t-36 -23.5q-7 -5 -12.5 -9.5t-7.5 -4.5q-6 0 -11.5 8t-5.5 13t11 21q11 17 31 37t43.5 34.5t44.5 14.5q19 0 41 -8t46 -18t48.5 -18t49.5 -8q24 0 45 12.5t35 23.5q8 5 13.5 9.5t7.5 4.5q6 0 11 -7.5
t5 -13.5q0 -5 -10 -21q-11 -16 -31.5 -36.5t-43.5 -35t-44 -14.5zM74 -5q-11 0 -18 4t-7 9q0 8 8 12.5t13 5.5q38 9 56.5 23t18.5 47v461q0 24 -5 35.5t-18.5 17.5t-38.5 11q-29 6 -29 20q0 7 7.5 10t18.5 3q25 0 45 -1t38 -2t40 -1q23 0 44 0.5t43 1.5t47 1q12 0 18.5 -2.5
t6.5 -9.5q0 -8 -7 -12.5t-21 -7.5q-39 -9 -61 -19.5t-22 -39.5v-463q0 -31 13.5 -44.5t55.5 -13.5h117q25 0 44.5 8t30.5 18q19 17 29.5 32.5t22.5 41.5q5 11 11.5 21t12.5 10q7 0 10 -6.5t3 -12.5q0 -2 -1 -5t-1 -6q-7 -27 -13 -48t-9.5 -40t-5.5 -41q-1 -7 -4 -12.5
t-11 -5.5q-39 0 -83 1t-89 1.5t-88.5 1.5t-83.5 1q-24 0 -53.5 -1t-54 -2.5t-30.5 -1.5z" />
  </g>

</svg>
