<?xml version="1.0" standalone="no"?>
<!DOCTYPE svg PUBLIC "-//W3C//DTD SVG 1.1//EN" "http://www.w3.org/Graphics/SVG/1.1/DTD/svg11.dtd" >
<svg xmlns="http://www.w3.org/2000/svg" xmlns:xlink="http://www.w3.org/1999/xlink" version="1.1" viewBox="-10 0 524 1000">
  <g transform="matrix(1 0 0 -1 0 800)">
   <path fill="currentColor"
d="M453 -145q-12 0 -16.5 11t-4.5 25v22v23q0 41 -15.5 53t-38.5 12h-23.5t-20.5 -0.5t-45 -0.5q-6 0 -14.5 2t-8.5 9q0 8 7 12t16 7q8 3 13.5 7t5.5 10q0 4 -2 8t-6 9l-116 142q-2 2 -5 1q-5 -1 -5 -7q-1 -15 -1 -31v-33v-34.5t1 -35.5q0 -18 9 -26t24 -13q8 -3 15 -7
t7 -12q0 -7 -8 -9t-13 -2q-19 0 -31 1.5t-22 2.5t-28 1q-17 0 -29 -1t-25 -2.5t-33 -1.5q-6 0 -14 2t-8 9q0 8 7 11.5t16 7.5q16 5 28.5 13t12.5 27v493q0 33 -9.5 50.5t-34.5 22.5q-8 2 -8 14q0 11 7 13q26 5 46.5 12t39 14t34.5 13q6 2 10.5 4t7.5 2t4.5 -3.5t1.5 -6.5
q0 -9 -3.5 -35t-3.5 -76v-346q0 -9 6 -9q3 0 6 1.5l7 3.5q12 9 30 25t36.5 34t33.5 34t21 24q5 5 7.5 9t2.5 6q0 5 -8 10.5t-20 7.5q-3 1 -7.5 3.5t-4.5 5.5q0 9 9 11.5t13 2.5h49q18 0 39 2t41 5t33 4q3 0 6 -2.5t3 -6.5q0 -6 -6.5 -12.5t-14.5 -8.5q-19 -4 -37.5 -13.5
t-32.5 -17.5q-6 -4 -27.5 -20t-48 -38t-48.5 -44q-2 -1 -3 -4t-2 -5q0 -3 1 -5l2 -4q26 -31 52.5 -63t49.5 -57.5t38 -41.5q17 -17 34 -28.5t32 -11.5q6 0 12.5 1.5t12.5 1.5q13 0 13 -8q0 -4 -1 -6q-3 -12 -9 -28t-11.5 -41.5t-7.5 -66.5q-1 -14 -8 -23.5t-14 -9.5z" />
  </g>

</svg>
