<?xml version="1.0" standalone="no"?>
<!DOCTYPE svg PUBLIC "-//W3C//DTD SVG 1.1//EN" "http://www.w3.org/Graphics/SVG/1.1/DTD/svg11.dtd" >
<svg xmlns="http://www.w3.org/2000/svg" xmlns:xlink="http://www.w3.org/1999/xlink" version="1.1" viewBox="-10 0 626 1000">
  <g transform="matrix(1 0 0 -1 0 800)">
   <path fill="currentColor"
d="M254 -167q-7 0 -12 5.5t-5 10.5v2l17 146h-4.5h-5.5q-4 0 -9 2t-5 9q0 8 5 12t11 7q4 2 7.5 3.5t5.5 3.5l10 74v171q0 32 -15 56.5t-37 25.5q-16 0 -29 -5t-25 -17q-8 -7 -13.5 -22t-5.5 -41v-212q1 -19 7 -25.5t17 -11.5q6 -3 10.5 -7t4.5 -12q0 -6 -4 -8.5t-9 -2.5
q-22 0 -34 2t-32 2q-19 0 -32 -2t-35 -2q-4 0 -9 2t-5 9q0 8 5 12t11 7q12 5 19 11.5t8 26.5v220q0 25 -4.5 43t-19.5 23q-3 1 -4.5 5t-1.5 9q0 12 5 14q15 6 31 13.5t32 17t29 19.5q3 2 5.5 4t4.5 3q3 0 4.5 -2.5t2.5 -5.5q0 -8 -2 -26.5t-2 -31.5q0 -9 2 -11
q20 23 50 42.5t70 19.5q28 0 46 -16l17 125q2 11 12 15t21 3q6 0 10.5 -5.5t4.5 -11.5l-1 -2l-25 -171q2 1 2.5 2t2.5 3q17 23 47.5 40.5t67.5 17.5q25 0 43 -18.5t27.5 -47.5t9.5 -63v-228q0 -20 8 -26t19 -11q6 -3 10.5 -7t4.5 -12q0 -7 -4.5 -9t-8.5 -2q-22 0 -34.5 2
t-32.5 2q-19 0 -31.5 -2t-34.5 -2q-4 0 -9 2t-5 9q0 8 5 12t11 7q11 4 17 10.5t6 24.5v217q0 32 -15.5 57t-37.5 25q-15 0 -28.5 -4.5t-25.5 -17.5q-11 -11 -14.5 -27t-3.5 -37v-211q0 -20 7 -26t18 -11q6 -3 11 -7t5 -12q0 -7 -4.5 -9t-9.5 -2q-22 0 -34.5 2t-31.5 2h-5h-4
l-18 -151q-1 -9 -10.5 -13t-18.5 -4z" />
  </g>

</svg>
