<?xml version="1.0" standalone="no"?>
<!DOCTYPE svg PUBLIC "-//W3C//DTD SVG 1.1//EN" "http://www.w3.org/Graphics/SVG/1.1/DTD/svg11.dtd" >
<svg xmlns="http://www.w3.org/2000/svg" xmlns:xlink="http://www.w3.org/1999/xlink" version="1.1" viewBox="-10 0 683 1000">
  <g transform="matrix(1 0 0 -1 0 800)">
   <path fill="currentColor"
d="M139 178q-5 0 -13 8.5t-12 21.5q-6 16 -12.5 35.5t-6.5 51.5q0 29 28 51t79 47q24 12 43 30.5t19 42.5q0 43 -24 69.5t-68 26.5q-12 0 -19.5 -1.5t-12.5 -3.5q-6 -1 -12.5 -2t-14.5 -1q-12 0 -23 10.5t-18.5 26t-7.5 29.5q0 16 16.5 28.5t34.5 12.5q30 0 62 -15t59 -43
q27 -27 46.5 -60.5t30 -66.5t10.5 -60q0 -38 -14 -59t-30 -29q-20 -10 -33 -18t-25.5 -15t-28.5 -18q-22 -12 -27.5 -31t-7.5 -45q0 -8 -4.5 -15.5t-13.5 -7.5zM148 -14q-26 0 -45 19t-19 45q0 27 19 46t45 19q27 0 46 -19t19 -46q0 -26 -19 -45t-46 -19zM429 178
q-5 0 -13 8.5t-12 21.5q-6 16 -12.5 35.5t-6.5 51.5q0 29 28 51t79 47q24 12 43 30.5t19 42.5q0 43 -24 69.5t-68 26.5q-12 0 -19.5 -1.5t-12.5 -3.5q-6 -1 -12.5 -2t-14.5 -1q-12 0 -23 10.5t-18.5 26t-7.5 29.5q0 16 16.5 28.5t34.5 12.5q30 0 62 -15t59 -43
q27 -27 46.5 -60.5t30 -66.5t10.5 -60q0 -38 -14 -59t-30 -29q-20 -10 -33 -18t-25.5 -15t-28.5 -18q-22 -12 -27.5 -31t-7.5 -45q0 -8 -4.5 -15.5t-13.5 -7.5zM438 -14q-26 0 -45 19t-19 45q0 27 19 46t45 19q27 0 46 -19t19 -46q0 -26 -19 -45t-46 -19z" />
  </g>

</svg>
