<?xml version="1.0" standalone="no"?>
<!DOCTYPE svg PUBLIC "-//W3C//DTD SVG 1.1//EN" "http://www.w3.org/Graphics/SVG/1.1/DTD/svg11.dtd" >
<svg xmlns="http://www.w3.org/2000/svg" xmlns:xlink="http://www.w3.org/1999/xlink" version="1.1" viewBox="-10 0 506 1000">
  <g transform="matrix(1 0 0 -1 0 800)">
   <path fill="currentColor"
d="M164 -151q-3 0 -6 1.5t-4 3.5l-89 202q-7 15 -15.5 23.5t-23.5 12.5q-6 2 -10.5 6t-4.5 9t5.5 7t11.5 2q12 0 21.5 -0.5t18.5 -1t21 -0.5q10 0 19 0.5l18 1t20 0.5q6 0 11 -2t5 -8q0 -5 -4.5 -8t-10.5 -5q-10 -3 -11.5 -13t3.5 -21l40 -92q4 -11 9 0l33 80q8 20 4 30.5
t-19 14.5q-14 5 -14 15q0 5 5 7t12 2q16 0 31.5 -0.5t26.5 -0.5q13 0 27 0.5t29 0.5q6 0 11 -2t5 -8q0 -5 -5 -8t-10 -5q-13 -5 -18 -13.5t3 -26.5l35 -77q6 -12 9.5 -11t7.5 10l35 77q8 18 5 27t-15 13l-11 5.5t-5 8.5t6.5 8t9.5 2q11 0 21.5 -0.5t19.5 -0.5q10 0 20.5 0.5
t21.5 0.5q2 0 8.5 -2t6.5 -7t-4 -9t-9 -6q-11 -3 -20.5 -10t-15.5 -19l-92 -209q-1 -4 -11 -4q-8 0 -10 4l-70 158q-1 5 -3 5.5t-5 -5.5l-69 -158q-2 -5 -11 -5z" />
  </g>

</svg>
