<?xml version="1.0" standalone="no"?>
<!DOCTYPE svg PUBLIC "-//W3C//DTD SVG 1.1//EN" "http://www.w3.org/Graphics/SVG/1.1/DTD/svg11.dtd" >
<svg xmlns="http://www.w3.org/2000/svg" xmlns:xlink="http://www.w3.org/1999/xlink" version="1.1" viewBox="-10 0 325 1000">
  <g transform="matrix(1 0 0 -1 0 800)">
   <path fill="currentColor"
d="M151 -30q-42 0 -71 25t-45 65t-16 84q0 48 18 88.5t51 65t78 24.5q41 0 69.5 -23.5t44 -62t15.5 -81.5q0 -50 -17.5 -92t-49.5 -67.5t-77 -25.5zM161 -5q27 0 40 23t17 57.5t4 67.5q0 35 -5 69.5t-19 58t-43 23.5q-25 0 -38.5 -21.5t-18.5 -53.5t-5 -64q0 -27 2.5 -55
t9.5 -51.5t20 -38.5t36 -15z" />
  </g>

</svg>
