<?xml version="1.0" standalone="no"?>
<!DOCTYPE svg PUBLIC "-//W3C//DTD SVG 1.1//EN" "http://www.w3.org/Graphics/SVG/1.1/DTD/svg11.dtd" >
<svg xmlns="http://www.w3.org/2000/svg" xmlns:xlink="http://www.w3.org/1999/xlink" version="1.1" viewBox="-10 0 637 1000">
  <g transform="matrix(1 0 0 -1 0 800)">
   <path fill="currentColor"
d="M253 512c121 0 209 -6 209 -160c0 -143 -89 -162 -178 -162c-10 0 -21 1 -31 1v321zM254 525c-1 118 43 138 97 138h12v13h-320v-13h12c54 0 97 -25 97 -114v-416c0 -82 -49 -120 -106 -120h-11v-13h334v13h-11c-57 0 -105 39 -105 120v47c32 -2 51 -4 83 -4
c123 0 230 26 230 174c-2 101 -58 175 -183 175h-129z" />
  </g>

</svg>
