<?xml version="1.0" standalone="no"?>
<!DOCTYPE svg PUBLIC "-//W3C//DTD SVG 1.1//EN" "http://www.w3.org/Graphics/SVG/1.1/DTD/svg11.dtd" >
<svg xmlns="http://www.w3.org/2000/svg" xmlns:xlink="http://www.w3.org/1999/xlink" version="1.1" viewBox="-28 0 715 1000">
  <g transform="matrix(1 0 0 -1 0 800)">
   <path fill="currentColor"
d="M510 505c33 56 102 158 159 158h8v13h-221v-13h8c47 0 63 -23 63 -53c0 -37 -34 -99 -52 -130l-78 -135c-10 -18 -22 -34 -22 -34s-9 15 -17 29l-99 169c-19 32 -45 75 -45 106c0 28 19 48 76 48h12v13h-320v-13h12c68 0 106 -67 135 -117l113 -191
c28 -47 39 -73 39 -131v-91c0 -82 -48 -120 -105 -120h-11v-13h334v13h-11c-56 0 -105 38 -105 120v91c0 55 11 84 38 130z" />
  </g>

</svg>
