<?xml version="1.0" standalone="no"?>
<!DOCTYPE svg PUBLIC "-//W3C//DTD SVG 1.1//EN" "http://www.w3.org/Graphics/SVG/1.1/DTD/svg11.dtd" >
<svg xmlns="http://www.w3.org/2000/svg" xmlns:xlink="http://www.w3.org/1999/xlink" version="1.1" viewBox="-10 0 722 1000">
  <g transform="matrix(1 0 0 -1 0 800)">
   <path fill="currentColor"
d="M109 202c0 70 39 136 94 169l195 -269c-42 -59 -98 -88 -142 -88c-90 0 -147 88 -147 188zM170 595c0 56 43 82 82 82c61 0 92 -46 92 -95c0 -75 -56 -149 -81 -163c-38 51 -93 114 -93 176zM524 318c21 42 46 75 101 75h8v13h-201v-13h8c41 0 63 -15 63 -55
c0 -17 -9 -49 -20 -72l-43 -85l-168 228c40 25 132 62 132 160c0 95 -88 122 -152 122c-56 0 -136 -40 -136 -138c0 -54 37 -116 80 -172c-71 -29 -166 -105 -166 -214c0 -118 73 -181 184 -181c91 0 137 36 192 106c34 -39 95 -106 191 -106c82 0 105 41 105 82h-7
c0 -24 -33 -55 -63 -55c-69 0 -163 116 -182 156z" />
  </g>

</svg>
