<?xml version="1.0" standalone="no"?>
<!DOCTYPE svg PUBLIC "-//W3C//DTD SVG 1.1//EN" "http://www.w3.org/Graphics/SVG/1.1/DTD/svg11.dtd" >
<svg xmlns="http://www.w3.org/2000/svg" xmlns:xlink="http://www.w3.org/1999/xlink" version="1.1" viewBox="-10 0 476 1000">
  <g transform="matrix(1 0 0 -1 0 800)">
   <path fill="currentColor"
d="M372 642c0 -42 -38 -85 -84 -85c-58 0 -93 40 -147 40c-35 0 -47 -35 -47 -35h-20c0 53 48 84 82 84c55 0 99 -39 139 -39c45 0 62 19 62 37zM39 95c0 -35 19 -105 126 -105c77 0 92 15 115 50c12 -15 37 -48 94 -48c65 0 75 27 82 46l-8 4c-9 -16 -17 -29 -47 -29
c-39 0 -42 36 -42 88v213c0 94 -71 117 -158 117c-54 0 -140 -25 -140 -75c0 -22 15 -39 37 -39c21 0 34 17 37 37c8 52 32 61 64 61c87 0 88 -58 88 -119c0 -41 -42 -72 -87 -80c-85 -15 -161 -48 -161 -121zM188 6c-66 0 -71 45 -71 85c0 84 109 107 170 145v-91
c0 -77 -17 -139 -99 -139z" />
  </g>

</svg>
