<?xml version="1.0" standalone="no"?>
<!DOCTYPE svg PUBLIC "-//W3C//DTD SVG 1.1//EN" "http://www.w3.org/Graphics/SVG/1.1/DTD/svg11.dtd" >
<svg xmlns="http://www.w3.org/2000/svg" xmlns:xlink="http://www.w3.org/1999/xlink" version="1.1" viewBox="-10 0 457 1000">
  <g transform="matrix(1 0 0 -1 0 800)">
   <path fill="currentColor"
d="M108 618c0 -24 18 -42 42 -42s43 18 43 42s-19 43 -43 43s-42 -19 -42 -43zM276 618c0 -24 18 -42 42 -42s43 18 43 42s-19 43 -43 43s-42 -19 -42 -43zM416 284c0 110 -110 150 -180 150c-125 0 -206 -103 -206 -224c0 -131 74 -224 219 -224c108 0 159 51 173 114h-11
c-21 -50 -52 -87 -139 -87c-121 0 -162 81 -162 196c0 26 1 52 3 75h303zM236 418c72 0 104 -38 104 -118h-225c10 71 41 118 121 118z" />
  </g>

</svg>
