<?xml version="1.0" standalone="no"?>
<!DOCTYPE svg PUBLIC "-//W3C//DTD SVG 1.1//EN" "http://www.w3.org/Graphics/SVG/1.1/DTD/svg11.dtd" >
<svg xmlns="http://www.w3.org/2000/svg" xmlns:xlink="http://www.w3.org/1999/xlink" version="1.1" viewBox="-10 0 561 1000">
  <g transform="matrix(1 0 0 -1 0 800)">
   <path fill="currentColor"
d="M104 133c0 -88 -4 -120 -68 -120v-13h200v13c-64 0 -66 27 -66 120v121c0 50 3 84 17 106c19 29 57 58 103 58c61 0 99 -29 99 -114v-171c0 -88 -4 -120 -68 -120v-13h200v13c-64 0 -66 27 -66 120v171c0 115 -58 130 -133 130c-78 0 -124 -27 -152 -66v323h-9
s-106 -17 -131 -19v-10c66 -2 74 -14 74 -97v-432z" />
  </g>

</svg>
