<?xml version="1.0" standalone="no"?>
<!DOCTYPE svg PUBLIC "-//W3C//DTD SVG 1.1//EN" "http://www.w3.org/Graphics/SVG/1.1/DTD/svg11.dtd" >
<svg xmlns="http://www.w3.org/2000/svg" xmlns:xlink="http://www.w3.org/1999/xlink" version="1.1" viewBox="-10 0 565 1000">
  <g transform="matrix(1 0 0 -1 0 800)">
   <path fill="currentColor"
d="M108 133c0 -88 -4 -120 -68 -120v-13h200v13c-64 0 -66 27 -66 120v124c0 50 2 80 17 103c19 29 57 58 103 58c61 0 99 -29 99 -114v-171c0 -88 -4 -120 -68 -120v-13h200v13c-64 0 -66 27 -66 120v171c0 116 -58 130 -133 130c-83 0 -124 -29 -152 -66l-5 66l-7 3
s-65 -12 -127 -19v-10c70 -3 73 -13 73 -101v-174z" />
  </g>

</svg>
