<?xml version="1.0" standalone="no"?>
<!DOCTYPE svg PUBLIC "-//W3C//DTD SVG 1.1//EN" "http://www.w3.org/Graphics/SVG/1.1/DTD/svg11.dtd" >
<svg xmlns="http://www.w3.org/2000/svg" xmlns:xlink="http://www.w3.org/1999/xlink" version="1.1" viewBox="-10 0 667 1000">
  <g transform="matrix(1 0 0 -1 0 800)">
   <path fill="currentColor"
d="M260 -12q-96 0 -150.5 59t-54.5 173q0 48 10 103.5t30 110t50.5 104.5t70.5 88t90 61t110 23q59 0 95.5 -22t46.5 -54h5l17 64h67l-51 -204h-67l14 56q3 12 3 24q0 40 -32 63.5t-86 23.5q-51 0 -91.5 -21.5t-72 -57.5t-53 -82t-33.5 -94q-11 -44 -18 -74.5t-11.5 -53
t-6.5 -39.5t-2 -35q0 -73 36 -115.5t109 -42.5q68 0 121 38t88 95l34 -22q-15 -29 -40 -59t-59 -54.5t-76.5 -40t-92.5 -15.5zM394 776l107 171l69 -35l-149 -149z" />
  </g>

</svg>
