<?xml version="1.0" standalone="no"?>
<!DOCTYPE svg PUBLIC "-//W3C//DTD SVG 1.1//EN" "http://www.w3.org/Graphics/SVG/1.1/DTD/svg11.dtd" >
<svg xmlns="http://www.w3.org/2000/svg" xmlns:xlink="http://www.w3.org/1999/xlink" version="1.1" viewBox="-31 0 679 1000">
  <g transform="matrix(1 0 0 -1 0 800)">
   <path fill="currentColor"
d="M-11 41h71l153 616h-71l10 41h486l-42 -168h-68l30 123h-261l-67 -271h186l21 83h51l-53 -210h-51l21 82h-186l-73 -292h271l33 132h68l-44 -177h-495zM423 769q-35 0 -56 11.5t-33 30.5t-17 43.5t-8 49.5l26 12l13 -38q9 -26 29.5 -35.5t56.5 -9.5q37 0 61 10t44 36
l29 38l25 -13q-13 -25 -28.5 -49t-35.5 -43t-46 -31t-60 -12z" />
  </g>

</svg>
