<?xml version="1.0" standalone="no"?>
<!DOCTYPE svg PUBLIC "-//W3C//DTD SVG 1.1//EN" "http://www.w3.org/Graphics/SVG/1.1/DTD/svg11.dtd" >
<svg xmlns="http://www.w3.org/2000/svg" xmlns:xlink="http://www.w3.org/1999/xlink" version="1.1" viewBox="-31 0 606 1000">
  <g transform="matrix(1 0 0 -1 0 800)">
   <path fill="currentColor"
d="M-11 41h71l153 616h-71l10 41h227l-10 -41h-71l-29 -118h144q72 0 112 -34.5t40 -97.5q0 -17 -3.5 -41.5t-13 -51.5t-26 -53.5t-43 -48t-64 -34.5t-88.5 -13h-151l-31 -124h71l-10 -41h-227zM187 210h142q50 0 87 33.5t50 84.5q3 13 9.5 38.5t6.5 44.5q0 38 -19.5 60.5
t-60.5 22.5h-145z" />
  </g>

</svg>
