<?xml version="1.0" standalone="no"?>
<!DOCTYPE svg PUBLIC "-//W3C//DTD SVG 1.1//EN" "http://www.w3.org/Graphics/SVG/1.1/DTD/svg11.dtd" >
<svg xmlns="http://www.w3.org/2000/svg" xmlns:xlink="http://www.w3.org/1999/xlink" version="1.1" viewBox="-10 0 702 1000">
  <g transform="matrix(1 0 0 -1 0 800)">
   <path fill="currentColor"
d="M116 -12q-45 0 -72 29.5t-27 72.5q0 37 14.5 70.5t49 59.5t92 43.5t144.5 22.5q2 9 6 24t7.5 32t6 33.5t2.5 28.5q0 45 -21.5 65.5t-56.5 20.5q-36 0 -70 -18l-2 -7q8 -5 14 -16.5t6 -25.5q0 -29 -16.5 -46.5t-42.5 -17.5q-20 0 -34 12.5t-14 38.5q0 22 14.5 43t39 37.5
t57 27t69.5 10.5q48 0 77 -23t37 -59h7q25 38 64.5 60t86.5 22q21 0 42.5 -4.5t39.5 -16t29.5 -30.5t11.5 -48t-13.5 -57t-46.5 -51t-88 -39t-139 -22q-6 -29 -12 -63t-6 -63q0 -42 16.5 -65.5t52.5 -23.5q45 0 86.5 38t79.5 106l31 -15q-24 -48 -48.5 -83t-50.5 -58
t-56 -34t-66 -11q-40 0 -63 13.5t-34.5 34t-14.5 44.5t-3 45h-7q-16 -38 -37.5 -64t-45.5 -42t-49 -23.5t-47 -7.5zM147 42q21 0 44.5 15.5t45.5 40.5t38.5 56t24.5 62l10 40q-98 -11 -146.5 -41.5t-62.5 -77.5q-3 -10 -4 -18t-1 -18q0 -27 11 -43t40 -16zM397 291
q105 12 154 43t49 88q0 28 -12.5 46.5t-46.5 18.5q-22 0 -42 -9.5t-38 -32.5t-34 -60.5t-30 -93.5z" />
  </g>

</svg>
