<?xml version="1.0" standalone="no"?>
<!DOCTYPE svg PUBLIC "-//W3C//DTD SVG 1.1//EN" "http://www.w3.org/Graphics/SVG/1.1/DTD/svg11.dtd" >
<svg xmlns="http://www.w3.org/2000/svg" xmlns:xlink="http://www.w3.org/1999/xlink" version="1.1" viewBox="-117 0 348 1000">
  <g transform="matrix(1 0 0 -1 0 800)">
   <path fill="currentColor"
d="M-65 771q-22 0 -32 13.5t-10 27.5v8t2 9q5 17 18.5 28.5t33.5 11.5q22 0 32 -13.5t10 -27.5v-8t-2 -9q-5 -17 -18 -28.5t-34 -11.5zM112 771q-22 0 -32 13.5t-10 27.5v8t2 9q5 17 18 28.5t34 11.5q22 0 32 -13.5t10 -27.5v-8t-2 -9q-5 -17 -18.5 -28.5t-33.5 -11.5z
M-78 1046l26 14l98 -100l152 100l23 -15l-157 -149h-58z" />
  </g>

</svg>
