<?xml version="1.0" standalone="no"?>
<!DOCTYPE svg PUBLIC "-//W3C//DTD SVG 1.1//EN" "http://www.w3.org/Graphics/SVG/1.1/DTD/svg11.dtd" >
<svg xmlns="http://www.w3.org/2000/svg" xmlns:xlink="http://www.w3.org/1999/xlink" version="1.1" viewBox="-10 0 568 1000">
  <g transform="matrix(1 0 0 -1 0 800)">
   <path fill="currentColor"
d="M216 -12q-93 0 -139.5 42t-46.5 111q0 48 18.5 86.5t47 66.5t63.5 45t69 22l2 7q-42 11 -67 45.5t-25 84.5q0 42 17.5 80t49.5 67.5t76.5 47t97.5 17.5q84 0 126.5 -36.5t42.5 -101.5q0 -42 -17 -78t-42.5 -63t-56.5 -43.5t-58 -19.5l-2 -8q53 -14 81.5 -47t28.5 -85
q0 -46 -19 -89t-53.5 -76.5t-83.5 -54t-110 -20.5zM223 31q33 0 60.5 11.5t48.5 31.5t35.5 47.5t22.5 59.5q2 8 6 25.5t4 36.5q0 50 -28 76t-81 26q-33 0 -60.5 -11.5t-48.5 -31.5t-35.5 -47.5t-22.5 -59.5q-2 -8 -6 -25.5t-4 -36.5q0 -50 28 -76t81 -26zM309 387
q31 0 56 11.5t44 31t31.5 45t18.5 52.5q2 10 5 23t3 27q0 46 -23.5 69.5t-68.5 23.5q-32 0 -56.5 -11.5t-43.5 -31t-31.5 -45t-18.5 -52.5q-2 -10 -5 -23t-3 -27q0 -46 23.5 -69.5t68.5 -23.5z" />
  </g>

</svg>
