<?xml version="1.0" standalone="no"?>
<!DOCTYPE svg PUBLIC "-//W3C//DTD SVG 1.1//EN" "http://www.w3.org/Graphics/SVG/1.1/DTD/svg11.dtd" >
<svg xmlns="http://www.w3.org/2000/svg" xmlns:xlink="http://www.w3.org/1999/xlink" version="1.1" viewBox="-10 0 316 1000">
  <g transform="matrix(1 0 0 -1 0 800)">
   <path fill="currentColor"
d="M85 -206q-30 0 -49 17t-19 46q0 23 10.5 42t27 35t36.5 29t40 25l-3 5q-11 -5 -24 -5q-23 0 -36.5 17.5t-13.5 40.5q0 11 2.5 23t4.5 22l90 364h-90l8 35l181 38l-119 -475l18 -8l115 115l24 -19l-119 -135q-12 -14 -27.5 -30t-29.5 -33.5t-23.5 -35.5t-9.5 -36
q0 -34 29 -34q17 0 30 8.5t27 20.5l22 -21q-18 -19 -44 -35t-58 -16zM236 638q-23 0 -34.5 13t-11.5 28v9t2 10q5 20 20 32.5t38 12.5t34.5 -13t11.5 -28v-9t-2 -10q-5 -20 -20 -32.5t-38 -12.5z" />
  </g>

</svg>
