<?xml version="1.0" standalone="no"?>
<!DOCTYPE svg PUBLIC "-//W3C//DTD SVG 1.1//EN" "http://www.w3.org/Graphics/SVG/1.1/DTD/svg11.dtd" >
<svg xmlns="http://www.w3.org/2000/svg" xmlns:xlink="http://www.w3.org/1999/xlink" version="1.1" viewBox="-10 0 399 1000">
  <g transform="matrix(1 0 0 -1 0 800)">
   <path fill="currentColor"
d="M113 -12q-29 0 -44 17.5t-15 40.5q0 11 2.5 23t4.5 22l90 364h-90l8 35l181 38l-119 -475l18 -8l115 115l24 -19l-71 -83q-35 -42 -58.5 -56t-45.5 -14zM290 620q-23 0 -41 7t-41 18q-26 12 -43 20t-32 8q-13 0 -24.5 -7.5t-26.5 -22.5l-21 18q20 24 40 44.5t49 20.5
q23 0 41 -7t41 -18q26 -12 43 -20t32 -8q13 0 24.5 7.5t26.5 22.5l21 -18q-20 -24 -40 -44.5t-49 -20.5z" />
  </g>

</svg>
