<?xml version="1.0" standalone="no"?>
<!DOCTYPE svg PUBLIC "-//W3C//DTD SVG 1.1//EN" "http://www.w3.org/Graphics/SVG/1.1/DTD/svg11.dtd" >
<svg xmlns="http://www.w3.org/2000/svg" xmlns:xlink="http://www.w3.org/1999/xlink" version="1.1" viewBox="-164 0 469 1000">
  <g transform="matrix(1 0 0 -1 0 800)">
   <path fill="currentColor"
d="M-67 -212q-47 0 -67 18.5t-20 43.5q0 26 15 43t40 17q23 0 35.5 -14t12.5 -34q0 -9 -4 -22t-18 -22l3 -7q39 1 58.5 34.5t34.5 94.5l127 515h-90l8 35l181 38l-143 -575q-18 -74 -62.5 -119.5t-110.5 -45.5zM235 638q-23 0 -34.5 13t-11.5 28v9t2 10q5 20 20 32.5
t38 12.5t34.5 -13t11.5 -28v-9t-2 -10q-5 -20 -20 -32.5t-38 -12.5z" />
  </g>

</svg>
