<?xml version="1.0" standalone="no"?>
<!DOCTYPE svg PUBLIC "-//W3C//DTD SVG 1.1//EN" "http://www.w3.org/Graphics/SVG/1.1/DTD/svg11.dtd" >
<svg xmlns="http://www.w3.org/2000/svg" xmlns:xlink="http://www.w3.org/1999/xlink" version="1.1" viewBox="-10 0 516 1000">
  <g transform="matrix(1 0 0 -1 0 800)">
   <path fill="currentColor"
d="M191 29q30 0 54.5 14t43.5 38t32.5 56.5t22.5 68.5q11 44 18 73.5t11 49.5t5.5 33t1.5 25q0 45 -16.5 72.5t-58.5 27.5q-30 0 -54.5 -14t-43.5 -38t-32.5 -56.5t-22.5 -68.5q-11 -44 -18 -73.5t-11 -49.5t-5.5 -33t-1.5 -25q0 -45 16.5 -72.5t58.5 -27.5zM188 -12
q-76 0 -113.5 48.5t-37.5 131.5q0 57 18 120.5t52.5 117t85 88t115.5 34.5q76 0 113.5 -48.5t37.5 -131.5q0 -57 -18 -120.5t-52.5 -117t-85 -88t-115.5 -34.5zM326 598q-35 0 -56 11.5t-33 30.5t-17 43.5t-8 49.5l26 12l13 -38q9 -26 29.5 -35.5t56.5 -9.5q37 0 61 10
t44 36l29 38l25 -13q-13 -25 -28.5 -49t-35.5 -43t-46 -31t-60 -12z" />
  </g>

</svg>
