<?xml version="1.0" standalone="no"?>
<!DOCTYPE svg PUBLIC "-//W3C//DTD SVG 1.1//EN" "http://www.w3.org/Graphics/SVG/1.1/DTD/svg11.dtd" >
<svg xmlns="http://www.w3.org/2000/svg" xmlns:xlink="http://www.w3.org/1999/xlink" version="1.1" viewBox="-10 0 444 1000">
  <g transform="matrix(1 0 0 -1 0 800)">
   <path fill="currentColor"
d="M175 -154q-25 21 -47.5 53t-40 73t-28 90.5t-10.5 106.5q0 36 4.5 74.5t14.5 79.5q19 77 56.5 147t84 128.5t97.5 104.5t99 75l19 -28q-45 -31 -85.5 -74t-74.5 -95.5t-60 -112.5t-42 -124l-20 -78q-10 -39 -14.5 -77t-4.5 -74q0 -75 19.5 -139.5t59.5 -106.5l-27 -23v0z
" />
  </g>

</svg>
