<?xml version="1.0" standalone="no"?>
<!DOCTYPE svg PUBLIC "-//W3C//DTD SVG 1.1//EN" "http://www.w3.org/Graphics/SVG/1.1/DTD/svg11.dtd" >
<svg xmlns="http://www.w3.org/2000/svg" xmlns:xlink="http://www.w3.org/1999/xlink" version="1.1" viewBox="-45 0 489 1000">
  <g transform="matrix(1 0 0 -1 0 800)">
   <path fill="currentColor"
d="M120 -193q-41 0 -70.5 10t-48.5 28t-27.5 42.5t-8.5 52.5q0 57 23 102t60.5 77t84 50.5t93.5 22.5l30 120h50l-40 -162q-76 -4 -131.5 -42.5t-72.5 -106.5q-2 -9 -6.5 -28t-4.5 -37q0 -41 24.5 -62t66.5 -21q29 0 58 6t46 17l2 7q-14 5 -22.5 16t-8.5 31q0 10 4 21
t12 20.5t19.5 16t27.5 6.5q24 0 38 -14t14 -37q0 -30 -19.5 -55t-50.5 -43t-68.5 -28t-73.5 -10zM307 402q-26 0 -40 15t-14 35q0 5 0.5 9.5t2.5 13.5q7 25 25.5 39t43.5 14q26 0 40 -15t14 -35q0 -5 -0.5 -9.5t-2.5 -13.5q-7 -25 -25.5 -39t-43.5 -14z" />
  </g>

</svg>
