<?xml version="1.0" standalone="no"?>
<!DOCTYPE svg PUBLIC "-//W3C//DTD SVG 1.1//EN" "http://www.w3.org/Graphics/SVG/1.1/DTD/svg11.dtd" >
<svg xmlns="http://www.w3.org/2000/svg" xmlns:xlink="http://www.w3.org/1999/xlink" version="1.1" viewBox="-10 0 498 1000">
  <g transform="matrix(1 0 0 -1 0 800)">
   <path fill="currentColor"
d="M177 367q76 4 131.5 42.5t72.5 106.5q2 9 6.5 28t4.5 37q0 41 -24.5 62t-66.5 21q-29 0 -58 -6t-46 -17l-2 -7q14 -5 22.5 -16t8.5 -31q0 -10 -4 -21t-12 -20.5t-19.5 -16t-27.5 -6.5q-24 0 -38 14t-14 37q0 30 19.5 55t50.5 43t68.5 28t73.5 10q41 0 70.5 -10t48 -28
t27.5 -42.5t9 -52.5q0 -57 -23 -102t-60.5 -77t-84 -50.5t-93.5 -22.5l-30 -120h-50zM118 -11q-26 0 -40 15t-14 35q0 5 0.5 9.5t2.5 13.5q7 25 25.5 39t43.5 14q26 0 40 -15t14 -35q0 -5 -0.5 -9.5t-2.5 -13.5q-7 -25 -25.5 -39t-43.5 -14z" />
  </g>

</svg>
