<?xml version="1.0" standalone="no"?>
<!DOCTYPE svg PUBLIC "-//W3C//DTD SVG 1.1//EN" "http://www.w3.org/Graphics/SVG/1.1/DTD/svg11.dtd" >
<svg xmlns="http://www.w3.org/2000/svg" xmlns:xlink="http://www.w3.org/1999/xlink" version="1.1" viewBox="-10 0 534 1000">
  <g transform="matrix(1 0 0 -1 0 800)">
   <path fill="currentColor"
d="M144 -154q-25 0 -47.5 5t-39.5 14.5t-27 24.5t-10 35q0 28 18 48t46 20q19 0 33 -11.5t14 -33.5q0 -20 -13 -35.5t-31 -19.5v-7q10 -5 23 -6.5t24 -1.5q62 0 101 31t39 80q0 18 -6.5 33.5t-17.5 29t-25 27t-30 28.5l-32 30q-21 20 -40.5 38t-34.5 37t-24 40t-9 47
q0 29 11.5 53t31.5 42.5t47 31t58 19.5l2 10q-18 22 -26.5 41.5t-8.5 44.5q0 35 16 65.5t43.5 53.5t64.5 36.5t80 13.5q25 0 47.5 -5t39.5 -14.5t27 -24.5t10 -35q0 -28 -18 -48t-46 -20q-19 0 -33 11.5t-14 33.5q0 20 13 35.5t31 19.5v7q-10 5 -23 6.5t-24 1.5
q-62 0 -101 -31t-39 -80q0 -18 6.5 -33.5t17.5 -29t25 -27t30 -28.5l32 -30q21 -20 40.5 -38t34.5 -37t24 -40t9 -47q0 -29 -11.5 -53t-31.5 -42.5t-47 -31t-58 -19.5l-2 -10q18 -22 26.5 -41.5t8.5 -44.5q0 -35 -16 -65.5t-43.5 -53.5t-64.5 -36.5t-80 -13.5zM130 319
q0 -36 22 -61t54 -54l33 -30q14 -13 25.5 -23.5t21.5 -21.5q52 11 77 41.5t25 66.5t-22 61t-54 54l-33 30q-14 13 -25.5 23.5t-21.5 21.5q-52 -11 -77 -41.5t-25 -66.5z" />
  </g>

</svg>
