<?xml version="1.0" standalone="no"?>
<!DOCTYPE svg PUBLIC "-//W3C//DTD SVG 1.1//EN" "http://www.w3.org/Graphics/SVG/1.1/DTD/svg11.dtd" >
<svg xmlns="http://www.w3.org/2000/svg" xmlns:xlink="http://www.w3.org/1999/xlink" version="1.1" viewBox="-50 0 936 1000">
  <g transform="matrix(1 0 0 -1 0 800)">
   <path fill="currentColor"
d="M58 -12q-45 0 -71.5 23.5t-26.5 60.5q0 29 16.5 47.5t44.5 18.5q25 0 39 -14.5t14 -36.5q0 -11 -6.5 -26.5t-26.5 -24.5v-3q7 -4 21 -4t27 4.5t26 17.5q17 17 33.5 46t36 82t44 137.5t57.5 212.5l32 128h-71l11 41h450l-11 -41h-71l-63 -254h122q77 0 118 -38t41 -108
q0 -17 -3.5 -42.5t-13 -54t-26 -57t-43 -51.5t-64 -37.5t-88.5 -14.5h-299l10 41h71l152 612h-164l-31 -120q-23 -90 -41.5 -159t-35 -120.5t-30.5 -88t-27.5 -62.5t-27 -44.5t-27.5 -32.5q-20 -20 -45 -29t-53 -9zM603 45q55 0 90.5 35t50.5 92q5 21 11 48t6 47
q0 39 -20.5 65t-66.5 26h-122l-78 -313h129z" />
  </g>

</svg>
