<?xml version="1.0" standalone="no"?>
<!DOCTYPE svg PUBLIC "-//W3C//DTD SVG 1.1//EN" "http://www.w3.org/Graphics/SVG/1.1/DTD/svg11.dtd" >
<svg xmlns="http://www.w3.org/2000/svg" xmlns:xlink="http://www.w3.org/1999/xlink" version="1.1" viewBox="-10 0 578 1000">
  <g transform="matrix(1 0 0 -1 0 800)">
   <path fill="currentColor"
d="M138 -12q-42 0 -61.5 23.5t-19.5 59.5q0 22 8 51l89 333h-90l8 35l184 38l-116 -424q-3 -12 -3 -23q0 -29 28 -29q27 0 61 26t68 69.5t62.5 100t43.5 116.5l38 152h80l-117 -463l18 -8l115 115l24 -19l-71 -83q-35 -42 -58 -56t-44 -14q-30 0 -43.5 16.5t-13.5 39.5
q0 11 3 26t5 24l25 99l-8 3q-21 -39 -43.5 -76t-48.5 -66.5t-56 -47.5t-67 -18zM355 597q-48 0 -74 21.5t-26 53.5q0 27 17 46.5t46 19.5q22 0 32.5 -12t10.5 -31q0 -20 -12 -33.5t-24 -16.5v-5q9 -8 37 -8q42 0 77 24.5t67 87.5l27 -20q-39 -72 -82.5 -99.5t-95.5 -27.5z
" />
  </g>

</svg>
