<?xml version="1.0" standalone="no"?>
<!DOCTYPE svg PUBLIC "-//W3C//DTD SVG 1.1//EN" "http://www.w3.org/Graphics/SVG/1.1/DTD/svg11.dtd" >
<svg xmlns="http://www.w3.org/2000/svg" xmlns:xlink="http://www.w3.org/1999/xlink" version="1.1" viewBox="-10 0 712 1000">
  <g transform="matrix(1 0 0 -1 0 800)">
   <path fill="currentColor"
d="M205 -12q-64 0 -103 34t-39 99q0 20 4.5 48t13.5 60l61 226h-90l8 35l183 38l-66 -244l6 -4q52 54 116 54q23 0 44 -7t36.5 -21t24.5 -35t9 -50q0 -43 -14.5 -85t-41.5 -75t-65.5 -53t-86.5 -20zM517 -12q-29 0 -44 17.5t-15 40.5q0 11 2.5 23t4.5 22l106 425h80
l-116 -463l18 -8l115 115l24 -19l-71 -83q-35 -42 -58.5 -56t-45.5 -14zM211 29q15 0 30.5 5.5t30 19t27 36.5t21.5 57q6 24 8 41.5t2 36.5q0 31 -17 47.5t-46 16.5q-41 0 -73 -27t-43 -72q-5 -22 -7.5 -39.5t-2.5 -29.5q0 -92 70 -92z" />
  </g>

</svg>
