<?xml version="1.0" standalone="no"?>
<!DOCTYPE svg PUBLIC "-//W3C//DTD SVG 1.1//EN" "http://www.w3.org/Graphics/SVG/1.1/DTD/svg11.dtd" >
<svg xmlns="http://www.w3.org/2000/svg" xmlns:xlink="http://www.w3.org/1999/xlink" version="1.1" viewBox="-10 0 579 1000">
  <g transform="matrix(1 0 0 -1 0 800)">
   <path fill="currentColor"
d="M306 -185q-8 0 -13.5 0.5t-10.5 1.5v25h10q17 0 29.5 4.5t22.5 13.5t19 21t20 27l101 140l-5 4q-29 -32 -53 -48t-41 -16q-30 0 -43.5 16.5t-13.5 39.5q0 11 3 26t5 24l25 99l-8 3q-22 -39 -44.5 -76.5t-48 -66.5t-55.5 -47t-67 -18q-42 0 -61.5 23.5t-19.5 59.5
q0 22 8 51l89 333h-90l8 35l184 38l-116 -424q-3 -12 -3 -23q0 -29 28 -29q27 0 61 26t68 69.5t62.5 100t43.5 116.5l38 152h80l-117 -463l18 -8l115 115l24 -19q-26 -30 -39 -60t-24 -66q-16 -59 -35.5 -97.5t-37.5 -56.5q-21 -21 -50 -33.5t-66 -12.5z" />
  </g>

</svg>
