<?xml version="1.0" standalone="no"?>
<!DOCTYPE svg PUBLIC "-//W3C//DTD SVG 1.1//EN" "http://www.w3.org/Graphics/SVG/1.1/DTD/svg11.dtd" >
<svg xmlns="http://www.w3.org/2000/svg" xmlns:xlink="http://www.w3.org/1999/xlink" version="1.1" viewBox="-15 0 600 1000">
  <g transform="matrix(1 0 0 -1 0 800)">
   <path fill="currentColor"
d="M502 123q-20 -23 -31.5 -52t-23.5 -71q-31 -107 -63 -139q-21 -21 -50.5 -33.5t-66.5 -12.5q-8 0 -13 0.5t-10 1.5v25h9q35 0 53 18t39 48l93 133l-5 4q-29 -32 -46.5 -44.5t-36.5 -12.5q-22 0 -35.5 12t-16.5 30l-31 166h-8q-12 -30 -26.5 -64t-33.5 -62
q-26 -39 -57 -60.5t-67 -21.5q-39 0 -59.5 17.5t-20.5 44.5t17 46.5t44 19.5q23 0 35.5 -13t12.5 -33q0 -14 -5 -26t-13 -19l5 -5q38 8 78.5 68.5t78.5 159.5l-51 212l-16 4l-91 -91l-22 20l56 64q36 41 56 56t40 15q23 0 35.5 -12t16.5 -30l31 -166h8q12 30 26.5 64
t33.5 62q26 39 57 60.5t67 21.5q39 0 59.5 -17.5t20.5 -44.5t-17 -46.5t-44 -19.5q-23 0 -35.5 13t-12.5 33q0 14 5 26t13 19l-5 5q-38 -8 -78.5 -69t-78.5 -160l51 -211l16 -4l91 91z" />
  </g>

</svg>
