<?xml version="1.0" standalone="no"?>
<!DOCTYPE svg PUBLIC "-//W3C//DTD SVG 1.1//EN" "http://www.w3.org/Graphics/SVG/1.1/DTD/svg11.dtd" >
<svg xmlns="http://www.w3.org/2000/svg" xmlns:xlink="http://www.w3.org/1999/xlink" version="1.1" viewBox="-10 0 542 1000">
  <g transform="matrix(1 0 0 -1 0 800)">
   <path fill="currentColor"
d="M264 -12q-66 0 -106 34t-40 99q0 36 8 71.5t27 74t49 80t74 88.5l-139 27l-14 -9l-37 -113l-30 6l28 119q15 63 65 63q25 0 66 -13t102 -34l9 35h46l-7 -27q-2 -8 -6.5 -15.5t-16.5 -20.5q-38 -42 -65 -83t-45 -86l6 -4q52 54 119 54q51 0 85 -27.5t34 -85.5
q0 -43 -14.5 -85t-42 -75t-67 -53t-88.5 -20zM270 29q16 0 32.5 5.5t31.5 19t27.5 36.5t21.5 57q6 24 8 41.5t2 36.5q0 31 -18 47.5t-50 16.5q-43 0 -75.5 -27t-43.5 -72q-5 -22 -7.5 -39.5t-2.5 -29.5q0 -92 74 -92z" />
  </g>

</svg>
