<?xml version="1.0" standalone="no"?>
<!DOCTYPE svg PUBLIC "-//W3C//DTD SVG 1.1//EN" "http://www.w3.org/Graphics/SVG/1.1/DTD/svg11.dtd" >
<svg xmlns="http://www.w3.org/2000/svg" xmlns:xlink="http://www.w3.org/1999/xlink" version="1.1" viewBox="-84 0 243 1000">
  <g transform="matrix(1 0 0 -1 0 800)">
   <path fill="currentColor"
d="M23 613q53 0 67 58q2 10 6 27.5t4 26.5q0 20 -12 32t-36 12q-53 0 -67 -58q-2 -10 -6 -27.5t-4 -26.5q0 -20 12 -32t36 -12zM20 579q-45 0 -69.5 25.5t-24.5 58.5q0 63 36 101.5t93 38.5q45 0 69.5 -25.5t24.5 -58.5q0 -63 -36 -101.5t-93 -38.5z" />
  </g>

</svg>
