<?xml version="1.0" standalone="no"?>
<!DOCTYPE svg PUBLIC "-//W3C//DTD SVG 1.1//EN" "http://www.w3.org/Graphics/SVG/1.1/DTD/svg11.dtd" >
<svg xmlns="http://www.w3.org/2000/svg" xmlns:xlink="http://www.w3.org/1999/xlink" version="1.1" viewBox="-10 0 612 1000">
  <g transform="matrix(1 0 0 -1 0 800)">
   <path fill="currentColor"
d="M116 -12q-45 0 -72 29.5t-27 72.5q0 37 14.5 70.5t49 59.5t92.5 43.5t144 22.5l7 28t7 32.5t5.5 31.5t2.5 26q0 45 -21.5 65.5t-56.5 20.5q-36 0 -70 -18l-2 -7q8 -5 14 -16.5t6 -25.5q0 -29 -16.5 -46.5t-42.5 -17.5q-20 0 -34 12.5t-14 38.5q0 22 14.5 43t39 37.5
t57 27t69.5 10.5q60 0 98.5 -31t38.5 -91q0 -14 -2 -32t-6 -33l-72 -288l18 -8l115 115l24 -19l-71 -83q-36 -42 -58 -56t-44 -14q-27 0 -41.5 15.5t-14.5 40.5q0 11 2.5 28.5t12.5 51.5l-8 3q-32 -75 -72.5 -107t-85.5 -32zM147 42q21 0 44.5 15.5t45.5 40.5t38.5 56
t24.5 62l10 40q-98 -11 -146.5 -41.5t-62.5 -77.5q-3 -10 -4 -18t-1 -18q0 -27 11 -43t40 -16zM149 595l153 149h58l81 -151l-25 -13l-96 99l-148 -99zM421 714l106 169l65 -34l-144 -148z" />
  </g>

</svg>
