<?xml version="1.0" standalone="no"?>
<!DOCTYPE svg PUBLIC "-//W3C//DTD SVG 1.1//EN" "http://www.w3.org/Graphics/SVG/1.1/DTD/svg11.dtd" >
<svg xmlns="http://www.w3.org/2000/svg" xmlns:xlink="http://www.w3.org/1999/xlink" version="1.1" viewBox="-31 0 708 1000">
  <g transform="matrix(1 0 0 -1 0 800)">
   <path fill="currentColor"
d="M-11 41h71l153 616h-71l10 41h486l-42 -168h-68l30 123h-261l-67 -271h186l21 83h51l-53 -210h-51l21 82h-186l-73 -292h271l33 132h68l-44 -177h-495zM539 876l78 112h-115l15 56h95q27 0 41 -12.5t14 -32.5q0 -23 -20 -47t-48 -55l-32 -34zM267 766l153 149h58l81 -151
l-25 -13l-96 99l-148 -99z" />
  </g>

</svg>
