<?xml version="1.0" standalone="no"?>
<!DOCTYPE svg PUBLIC "-//W3C//DTD SVG 1.1//EN" "http://www.w3.org/Graphics/SVG/1.1/DTD/svg11.dtd" >
<svg xmlns="http://www.w3.org/2000/svg" xmlns:xlink="http://www.w3.org/1999/xlink" version="1.1" viewBox="-10 0 608 1000">
  <g transform="matrix(1 0 0 -1 0 800)">
   <path fill="currentColor"
d="M242 -12q-80 0 -124.5 39t-44.5 99q0 34 13.5 67t36.5 58h-80l10 41h118l180 114h-270l10 41h323q35 26 50 58.5t15 63.5q0 42 -26.5 67t-86.5 25q-68 0 -114 -22l-2 -7q14 -7 22 -17.5t8 -30.5q0 -11 -4 -22.5t-12 -21.5t-20.5 -16t-29.5 -6q-24 0 -37.5 14.5
t-13.5 37.5q0 27 16.5 52t46.5 44.5t71.5 31.5t90.5 12q80 0 124.5 -39t44.5 -99q0 -34 -13.5 -67t-36.5 -58h81l-10 -41h-118l-181 -114h271l-10 -41h-324q-35 -26 -50 -58.5t-15 -63.5q0 -42 26.5 -67t86.5 -25q68 0 114 22l2 7q-14 7 -22 17.5t-8 30.5q0 11 4 22.5
t12 21.5t20.5 16t29.5 6q24 0 37.5 -14.5t13.5 -37.5q0 -27 -16.5 -52.5t-46.5 -45t-71.5 -31t-90.5 -11.5z" />
  </g>

</svg>
