<?xml version="1.0" standalone="no"?>
<!DOCTYPE svg PUBLIC "-//W3C//DTD SVG 1.1//EN" "http://www.w3.org/Graphics/SVG/1.1/DTD/svg11.dtd" >
<svg xmlns="http://www.w3.org/2000/svg" xmlns:xlink="http://www.w3.org/1999/xlink" version="1.1" viewBox="-10 0 408 1000">
  <g transform="matrix(1 0 0 -1 0 800)">
   <path fill="currentColor"
d="M199 324q-55 0 -83 24t-28 63q0 25 9.5 43.5t25 32t35 22t38.5 11.5l1 4q-28 7 -40.5 25.5t-12.5 41.5q0 22 9 42t27 36t44.5 25.5t60.5 9.5q46 0 74.5 -19t28.5 -57q0 -43 -28.5 -69.5t-65.5 -34.5l-1 -4q32 -8 47 -27t15 -46q0 -20 -9.5 -41.5t-29 -39.5t-49 -30
t-68.5 -12zM206 361q33 0 51.5 19t26.5 49q2 6 3.5 14.5t1.5 18.5q0 17 -12.5 31t-38.5 14q-33 0 -51.5 -19t-26.5 -49q-2 -6 -3.5 -14.5t-1.5 -18.5q0 -17 12.5 -31t38.5 -14zM250 537q29 0 45 16.5t24 43.5q2 6 3.5 14t1.5 17q0 17 -12 28t-35 11q-29 0 -45 -16.5
t-24 -43.5q-2 -6 -3.5 -14t-1.5 -17q0 -17 12 -28t35 -11z" />
  </g>

</svg>
