<?xml version="1.0" standalone="no"?>
<!DOCTYPE svg PUBLIC "-//W3C//DTD SVG 1.1//EN" "http://www.w3.org/Graphics/SVG/1.1/DTD/svg11.dtd" >
<svg xmlns="http://www.w3.org/2000/svg" xmlns:xlink="http://www.w3.org/1999/xlink" version="1.1" viewBox="-10 0 794 1000">
  <g transform="matrix(1 0 0 -1 0 800)">
   <path fill="currentColor"
d="M137 689l-80 12v42h164l332 -513l76 -135v594l-85 12v42h224v-42l-81 -12v-520q0 -107 -15.5 -160t-46.5 -88q-40 -44 -83 -64.5t-96 -26.5l-22 35q100 22 149 93q19 27 28 55l-329 502l-77 140v-603l91 -10v-42h-229v42l80 10v637z" />
  </g>

</svg>
