<?xml version="1.0" standalone="no"?>
<!DOCTYPE svg PUBLIC "-//W3C//DTD SVG 1.1//EN" "http://www.w3.org/Graphics/SVG/1.1/DTD/svg11.dtd" >
<svg xmlns="http://www.w3.org/2000/svg" xmlns:xlink="http://www.w3.org/1999/xlink" version="1.1" viewBox="-10 0 748 1000">
  <g transform="matrix(1 0 0 -1 0 800)">
   <path fill="currentColor"
d="M168.5 71.5q-66.5 79.5 -66.5 246.5v371l-75 11v43h245v-43l-86 -11v-380q0 -146 52.5 -207t148.5 -61t145 66t49 194v387l-83 12v43h222v-43l-76 -11v-384q0 -156 -72.5 -234.5t-192.5 -78.5q-144 0 -210.5 79.5zM270 796.5q-44 25.5 -44 78.5q0 48 46.5 78t115.5 30
q75 0 115 -28t40 -82q0 -50 -41 -76t-120 -26q-68 0 -112 25.5zM453.5 827.5q28.5 13.5 28.5 47.5q0 64 -96 64q-98 0 -98 -64q0 -31 27.5 -46t68.5 -15t69.5 13.5z" />
  </g>

</svg>
