<?xml version="1.0" standalone="no"?>
<!DOCTYPE svg PUBLIC "-//W3C//DTD SVG 1.1//EN" "http://www.w3.org/Graphics/SVG/1.1/DTD/svg11.dtd" >
<svg xmlns="http://www.w3.org/2000/svg" xmlns:xlink="http://www.w3.org/1999/xlink" version="1.1" viewBox="-10 0 689 1000">
  <g transform="matrix(1 0 0 -1 0 800)">
   <path fill="currentColor"
d="M168.5 491q40.5 26 89.5 26q30 0 52 -11.5t53 -34.5q25 -19 40.5 -27.5t35.5 -8.5q33 0 59 16.5t45 41.5l34 -37q-21 -35 -61 -60.5t-88 -25.5q-31 0 -53 11.5t-50 33.5q-24 19 -40.5 28t-37.5 9q-61 0 -105 -59l-34 38q20 34 60.5 60zM168.5 206q40.5 26 89.5 26
q30 0 52 -11.5t53 -34.5q25 -19 40.5 -27.5t35.5 -8.5q33 0 59 16.5t45 41.5l34 -37q-21 -35 -61 -60.5t-88 -25.5q-31 0 -53 11.5t-50 33.5q-24 19 -40.5 28t-37.5 9q-61 0 -105 -59l-34 38q20 34 60.5 60z" />
  </g>

</svg>
