<?xml version="1.0" standalone="no"?>
<!DOCTYPE svg PUBLIC "-//W3C//DTD SVG 1.1//EN" "http://www.w3.org/Graphics/SVG/1.1/DTD/svg11.dtd" >
<svg xmlns="http://www.w3.org/2000/svg" xmlns:xlink="http://www.w3.org/1999/xlink" version="1.1" viewBox="-10 0 1050 1000">
  <g transform="matrix(1 0 0 -1 0 800)">
   <path fill="currentColor"
d="M151.5 705q56.5 98 154 155.5t214.5 57.5t214.5 -57.5t154 -155.5t56.5 -215t-56.5 -216t-154 -156.5t-214.5 -57.5t-214.5 57.5t-154 156.5t-56.5 216t56.5 215zM198 299.5q49 -87.5 134 -139.5t188 -52q102 0 187 52t134 139.5t49 190.5q0 102 -49 189.5t-134 139.5
t-187 52q-103 0 -188 -52t-134 -139.5t-49 -189.5q0 -103 49 -190.5zM360.5 316q-56.5 64 -56.5 169q0 68 32 124t88.5 88.5t126.5 32.5q36 0 74 -8t51 -21v-105h-48l-19 64q-12 9 -32 13.5t-56 4.5q-64 0 -101.5 -47.5t-37.5 -129.5q0 -85 46 -136t122 -51q65 0 111 46
l20 -34q-24 -30 -67 -52t-92 -22q-105 0 -161.5 64z" />
  </g>

</svg>
