<?xml version="1.0" standalone="no"?>
<!DOCTYPE svg PUBLIC "-//W3C//DTD SVG 1.1//EN" "http://www.w3.org/Graphics/SVG/1.1/DTD/svg11.dtd" >
<svg xmlns="http://www.w3.org/2000/svg" xmlns:xlink="http://www.w3.org/1999/xlink" version="1.1" viewBox="-10 0 610 1000">
  <g transform="matrix(1 0 0 -1 0 800)">
   <path fill="currentColor"
d="M440 713.5q56 -38.5 83.5 -104t27.5 -147.5q0 -131 -54 -240t-142.5 -179t-189.5 -90l-19 38q122 41 198.5 131t102.5 207q-25 -32 -70.5 -55.5t-97.5 -23.5q-108 0 -169.5 65.5t-61.5 175.5q0 70 30.5 129.5t88 95.5t134.5 36q83 0 139 -38.5zM365 317q36 15 60 37
t33 42q2 24 2 35q0 123 -35 199.5t-130 76.5q-51 0 -87 -29t-54 -74.5t-18 -94.5q0 -107 41 -157t110 -50q42 0 78 15z" />
  </g>

</svg>
