<?xml version="1.0" standalone="no"?>
<!DOCTYPE svg PUBLIC "-//W3C//DTD SVG 1.1//EN" "http://www.w3.org/Graphics/SVG/1.1/DTD/svg11.dtd" >
<svg xmlns="http://www.w3.org/2000/svg" xmlns:xlink="http://www.w3.org/1999/xlink" version="1.1" viewBox="-10 0 513 1000">
  <g transform="matrix(1 0 0 -1 0 800)">
   <path fill="currentColor"
d="M101.5 386.5q-38.5 34.5 -38.5 88.5q0 72 72 108t215 40v14q0 46 -10 70.5t-32.5 34t-64.5 9.5q-38 0 -76.5 -11.5t-70.5 -27.5l-24 42q31 20 87 37.5t100 17.5q87 0 126.5 -36.5t39.5 -125.5v-247h56v-35q-48 -12 -80 -12q-25 0 -36 6t-11 27v34q-70 -68 -154 -68
q-60 0 -98.5 34.5zM299.5 423q36.5 18 50.5 34v124q-111 -3 -158 -26.5t-47 -73.5q0 -34 23 -55t64 -21q31 0 67.5 18z" />
  </g>

</svg>
