<?xml version="1.0" standalone="no"?>
<!DOCTYPE svg PUBLIC "-//W3C//DTD SVG 1.1//EN" "http://www.w3.org/Graphics/SVG/1.1/DTD/svg11.dtd" >
<svg xmlns="http://www.w3.org/2000/svg" xmlns:xlink="http://www.w3.org/1999/xlink" version="1.1" viewBox="-10 0 641 1000">
  <g transform="matrix(1 0 0 -1 0 800)">
   <path fill="currentColor"
d="M122 459v9q13 9 29.5 36.5t28.5 67t12 82.5q0 26 -10 43.5t-28 36.5q-14 14 -21.5 25.5t-7.5 26.5q0 23 12 35.5t32 12.5q23 0 44.5 -23.5t34.5 -61.5t13 -80q0 -57 -19.5 -106.5t-46.5 -83t-49 -44.5h-1zM375 459v9q13 9 29.5 36.5t28.5 67t12 82.5q0 26 -10 43.5
t-28 36.5q-14 14 -21.5 25.5t-7.5 26.5q0 23 12 35.5t32 12.5q23 0 44.5 -23.5t34.5 -61.5t13 -80q0 -57 -19.5 -106.5t-46.5 -83t-49 -44.5h-1z" />
  </g>

</svg>
