<?xml version="1.0" standalone="no"?>
<!DOCTYPE svg PUBLIC "-//W3C//DTD SVG 1.1//EN" "http://www.w3.org/Graphics/SVG/1.1/DTD/svg11.dtd" >
<svg xmlns="http://www.w3.org/2000/svg" xmlns:xlink="http://www.w3.org/1999/xlink" version="1.1" viewBox="-10 0 669 1000">
  <g transform="matrix(1 0 0 -1 0 800)">
   <path fill="currentColor"
d="M196 29.5q-57 40.5 -86 109t-29 150.5q0 125 59.5 232t153.5 176.5t195 88.5l19 -37q-124 -39 -208.5 -130.5t-114.5 -205.5q26 32 73 55t108 23q106 0 161 -61t55 -169q0 -72 -29.5 -134.5t-86 -100t-133.5 -37.5q-80 0 -137 40.5zM268 422.5q-36 -14.5 -60.5 -35
t-33.5 -39.5q-2 -18 -2 -28q-3 -122 35.5 -204t131.5 -82q51 0 86 30.5t52 77.5t17 98q0 103 -39.5 150t-107.5 47q-43 0 -79 -14.5z" />
  </g>

</svg>
