<?xml version="1.0" standalone="no"?>
<!DOCTYPE svg PUBLIC "-//W3C//DTD SVG 1.1//EN" "http://www.w3.org/Graphics/SVG/1.1/DTD/svg11.dtd" >
<svg xmlns="http://www.w3.org/2000/svg" xmlns:xlink="http://www.w3.org/1999/xlink" version="1.1" viewBox="-10 0 416 1000">
  <g transform="matrix(1 0 0 -1 0 800)">
   <path fill="currentColor"
d="M111 496h-76v39q50 11 58 16q15 8 22 31q6 15 16 54t15 61h46v-142h177v-59h-177v-136h177v-55h-177v-133q0 -58 4 -81.5t16 -30.5t42 -7q29 0 65 8t54 17h1l12 -38q-23 -18 -76 -34.5t-92 -16.5h-1q-53 0 -79.5 24.5t-26.5 87.5v204h-75v55h75v136z" />
  </g>

</svg>
