<?xml version="1.0" standalone="no"?>
<!DOCTYPE svg PUBLIC "-//W3C//DTD SVG 1.1//EN" "http://www.w3.org/Graphics/SVG/1.1/DTD/svg11.dtd" >
<svg xmlns="http://www.w3.org/2000/svg" xmlns:xlink="http://www.w3.org/1999/xlink" version="1.1" viewBox="-10 0 528 1000">
  <g transform="matrix(1 0 0 -1 0 800)">
   <path fill="currentColor"
d="M107 773q36 32 85 32q29 0 48 -12.5t40 -35.5q18 -19 31 -28t31 -9q30 0 46.5 19t26.5 45l41 -23q-13 -43 -44 -72t-77 -29q-28 0 -46.5 12t-41.5 34q-20 20 -34.5 29.5t-33.5 9.5q-30 0 -46 -18t-30 -46l-41 23q9 37 45 69z" />
  </g>

</svg>
