<?xml version="1.0" standalone="no"?>
<!DOCTYPE svg PUBLIC "-//W3C//DTD SVG 1.1//EN" "http://www.w3.org/Graphics/SVG/1.1/DTD/svg11.dtd" >
<svg xmlns="http://www.w3.org/2000/svg" xmlns:xlink="http://www.w3.org/1999/xlink" version="1.1" viewBox="-10 0 1317 1000">
  <g transform="matrix(1 0 0 -1 0 800)">
   <path fill="currentColor"
d="M136 689l-80 11v43h121q31 0 89 4t88 4q187 0 276.5 -94.5t89.5 -262.5q0 -119 -47 -210t-130.5 -141.5t-191.5 -50.5q-23 0 -77 4q-62 4 -96 4h-128v43l86 9v637zM319 41h34q82 1 145 40t98.5 114t35.5 181q0 327 -304 327q-33 0 -75 -4q-26 -2 -35 -2v-648
q41 -8 101 -8zM896 496l-14 -94h-55v153h416l17 -37l-311 -410l-68 -57l296 9l39 109l51 -6l-19 -163h-439l-18 38l315 407l62 58z" />
  </g>

</svg>
