<?xml version="1.0" standalone="no"?>
<!DOCTYPE svg PUBLIC "-//W3C//DTD SVG 1.1//EN" "http://www.w3.org/Graphics/SVG/1.1/DTD/svg11.dtd" >
<svg xmlns="http://www.w3.org/2000/svg" xmlns:xlink="http://www.w3.org/1999/xlink" version="1.1" viewBox="-10 0 729 1000">
  <g transform="matrix(1 0 0 -1 0 800)">
   <path fill="currentColor"
d="M539.5 705q70.5 -46 107 -130t36.5 -197q0 -116 -45 -204.5t-122 -136.5t-171 -48q-97 0 -166.5 47.5t-105.5 132.5t-36 197q0 115 44 202.5t120 135t169 47.5q99 0 169.5 -46zM525 620.5q-60 83.5 -164 83.5q-102 0 -164 -78t-69 -229h462q-5 140 -65 223.5zM158.5 187
q27.5 -71 78.5 -111t121 -40q102 0 164 80.5t68 233.5h-462q3 -92 30.5 -163zM209.5 842.5q-13.5 16.5 -13.5 40.5q0 28 15 47.5t43 19.5h1q24 0 38.5 -18t14.5 -41q0 -28 -16 -46.5t-45 -18.5h-1q-23 0 -36.5 16.5zM447.5 842.5q-13.5 16.5 -13.5 40.5q0 28 15 47.5
t43 19.5h1q24 0 38 -17.5t14 -41.5q0 -28 -16 -46.5t-45 -18.5q-23 0 -36.5 16.5z" />
  </g>

</svg>
