<?xml version="1.0" standalone="no"?>
<!DOCTYPE svg PUBLIC "-//W3C//DTD SVG 1.1//EN" "http://www.w3.org/Graphics/SVG/1.1/DTD/svg11.dtd" >
<svg xmlns="http://www.w3.org/2000/svg" xmlns:xlink="http://www.w3.org/1999/xlink" version="1.1" viewBox="-10 0 647 1000">
  <g transform="matrix(1 0 0 -1 0 800)">
   <path fill="currentColor"
d="M352 452q121 0 186 -57t65 -161q0 -117 -72 -179.5t-192 -62.5q-10 0 -25 1t-34 2q-85 5 -97 5h-131v43l87 9v638l-84 12v41h259v-41l-94 -12v-238h132zM269.5 42q21.5 -2 60.5 -2q89 0 138 48t49 140q0 85 -49 128t-138 43h-110v-350q28 -5 49.5 -7z" />
  </g>

</svg>
