<?xml version="1.0" standalone="no"?>
<!DOCTYPE svg PUBLIC "-//W3C//DTD SVG 1.1//EN" "http://www.w3.org/Graphics/SVG/1.1/DTD/svg11.dtd" >
<svg xmlns="http://www.w3.org/2000/svg" xmlns:xlink="http://www.w3.org/1999/xlink" version="1.1" viewBox="-10 0 729 1000">
  <g transform="matrix(1 0 0 -1 0 800)">
   <path fill="currentColor"
d="M291 555v-43l-86 -15v-356l63 83l246 259v14l-78 15v43h233v-43l-75 -15v-446l78 -8v-43h-241v43l83 8v361l-71 -97l-238 -246v-18l66 -8v-43h-224v43l79 8v446l-77 15v43h242zM209 678q-14 16 -14 41q0 27 15.5 46.5t43.5 19.5q24 0 38.5 -17.5t14.5 -40.5
q0 -28 -16 -46.5t-45 -18.5q-23 0 -37 16zM427 678.5q-14 16.5 -14 40.5q0 27 15.5 46.5t43.5 19.5q24 0 38.5 -17.5t14.5 -40.5q0 -28 -16 -46.5t-46 -18.5q-22 0 -36 16.5z" />
  </g>

</svg>
