<?xml version="1.0" standalone="no"?>
<!DOCTYPE svg PUBLIC "-//W3C//DTD SVG 1.1//EN" "http://www.w3.org/Graphics/SVG/1.1/DTD/svg11.dtd" >
<svg xmlns="http://www.w3.org/2000/svg" xmlns:xlink="http://www.w3.org/1999/xlink" version="1.1" viewBox="-13 0 350 1000">
  <g transform="matrix(1 0 0 -1 0 800)">
   <path fill="currentColor"
d="M130 489l-78 17v45l137 16h2l20 -16v-501l87 -7v-43h-256v43l88 8v438zM11 678q-14 16 -14 41q0 27 15.5 46.5t43.5 19.5q24 0 38.5 -17.5t14.5 -40.5q0 -28 -16 -46.5t-45 -18.5q-23 0 -37 16zM229 678.5q-14 16.5 -14 40.5q0 27 15.5 46.5t43.5 19.5q24 0 38.5 -17.5
t14.5 -40.5q0 -28 -16 -46.5t-46 -18.5q-22 0 -36 16.5z" />
  </g>

</svg>
