<?xml version="1.0" standalone="no"?>
<!DOCTYPE svg PUBLIC "-//W3C//DTD SVG 1.1//EN" "http://www.w3.org/Graphics/SVG/1.1/DTD/svg11.dtd" >
<svg xmlns="http://www.w3.org/2000/svg" xmlns:xlink="http://www.w3.org/1999/xlink" version="1.1" viewBox="-10 0 757 1000">
  <g transform="matrix(1 0 0 -1 0 800)">
   <path fill="currentColor"
d="M511 318q35 -49 81 -126q44 -71 66.5 -102.5t39.5 -36.5l39 -10v-43h-102q-22 0 -50 40t-73 122q-50 90 -83 136.5t-61 46.5h-20v-164h-51v164h-80v-293l88 -10v-42h-250v44l83 9v636l-83 11v43h248v-43l-86 -11v-293h80v158h51v-158h39l179 292l-88 12v43h231v-43
l-73 -10l-191 -304q31 -19 66 -68z" />
  </g>

</svg>
