<?xml version="1.0" standalone="no"?>
<!DOCTYPE svg PUBLIC "-//W3C//DTD SVG 1.1//EN" "http://www.w3.org/Graphics/SVG/1.1/DTD/svg11.dtd" >
<svg xmlns="http://www.w3.org/2000/svg" xmlns:xlink="http://www.w3.org/1999/xlink" version="1.1" viewBox="-10 0 832 1000">
  <g transform="matrix(1 0 0 -1 0 800)">
   <path fill="currentColor"
d="M360 704q-65 0 -117.5 -34.5t-83.5 -110.5t-31 -193q0 -105 34 -179.5t91 -112.5t124 -38q22 0 42 3t51 15q-38 20 -72.5 64t-56 102t-21.5 116q0 141 59.5 205.5t148.5 64.5q91 0 149 -59.5t58 -200.5q0 -68 -25.5 -125.5t-62 -97t-70.5 -60.5q23 -13 54 -20t63 -7
q63 0 97 24l21 -31q-53 -40 -134 -40q-88 0 -164 39q-63 -39 -146 -39q-105 0 -179.5 48.5t-113 133.5t-38.5 193q0 122 46.5 209.5t121.5 132.5t158 45q41 0 65 -4l-9 -50q-25 7 -59 7zM439.5 508.5q-31.5 -57.5 -31.5 -172.5q0 -76 37 -145t90 -105q48 29 79 96.5
t31 162.5q0 221 -118 221q-56 0 -87.5 -57.5z" />
  </g>

</svg>
