<?xml version="1.0" standalone="no"?>
<!DOCTYPE svg PUBLIC "-//W3C//DTD SVG 1.1//EN" "http://www.w3.org/Graphics/SVG/1.1/DTD/svg11.dtd" >
<svg xmlns="http://www.w3.org/2000/svg" xmlns:xlink="http://www.w3.org/1999/xlink" version="1.1" viewBox="-10 0 879 1000">
  <g transform="matrix(1 0 0 -1 0 800)">
   <path fill="currentColor"
d="M95 29q-48 40 -48 117q0 96 96 140t234 47q0 75 -8 109.5t-32 48t-75 13.5q-50 0 -93 -16t-89 -41l-21 42q13 13 50.5 31.5t83.5 32t88 13.5q69 0 108.5 -19t56.5 -62q35 41 83 63t104 22q89 0 138.5 -51t53.5 -147q0 -62 -6 -88h-356q0 -105 47.5 -171.5t133.5 -66.5
q42 0 86 15t67 36l16 -37q-29 -30 -83.5 -50.5t-110.5 -20.5q-69 0 -119.5 28.5t-80.5 81.5q-31 -43 -82.5 -76.5t-121.5 -33.5q-72 0 -120 40zM735 331q2 28 2 44q0 66 -30 105t-94 39q-137 0 -149 -188h271zM336.5 76q43.5 28 63.5 63q-23 62 -23 151q-116 -1 -178.5 -38
t-62.5 -96q0 -57 29.5 -82.5t78.5 -25.5t92.5 28z" />
  </g>

</svg>
