<?xml version="1.0" standalone="no"?>
<!DOCTYPE svg PUBLIC "-//W3C//DTD SVG 1.1//EN" "http://www.w3.org/Graphics/SVG/1.1/DTD/svg11.dtd" >
<svg xmlns="http://www.w3.org/2000/svg" xmlns:xlink="http://www.w3.org/1999/xlink" version="1.1" viewBox="-162 0 306 1000">
  <g transform="matrix(1 0 0 -1 0 800)">
   <path fill="currentColor"
d="M-72.5 857q-49.5 44 -79.5 78l55 47l129 -157l-35 -26q-20 14 -69.5 58zM-97.5 681q-39.5 32 -39.5 88q0 14 2 21h41q0 -1 -0.5 -6t0.5 -9q5 -30 27 -46.5t67 -16.5q46 0 66 16t25 47q2 12 1 15h40q2 -14 2 -20q0 -56 -40 -88.5t-94 -32.5q-58 0 -97.5 32z" />
  </g>

</svg>
