<?xml version="1.0" standalone="no"?>
<!DOCTYPE svg PUBLIC "-//W3C//DTD SVG 1.1//EN" "http://www.w3.org/Graphics/SVG/1.1/DTD/svg11.dtd" >
<svg xmlns="http://www.w3.org/2000/svg" xmlns:xlink="http://www.w3.org/1999/xlink" version="1.1" viewBox="-13 0 788 1000">
  <g transform="matrix(1 0 0 -1 0 800)">
   <path fill="currentColor"
d="M648 14q-47 -12 -89 -18.5t-100 -6.5q-89 0 -155.5 46.5t-103 131t-36.5 193.5q-73 1 -120 28t-47 80q0 21 9 47.5t18 31.5l68 -12q-6 -8 -13.5 -30.5t-7.5 -35.5q0 -26 23.5 -43t71.5 -18q8 102 51 179.5t112.5 120.5t154.5 43q75 0 132 -35t88.5 -101.5t31.5 -158.5
q0 -66 -6 -94h-483q0 -87 27 -161t78.5 -118.5t123.5 -44.5q113 0 170 49l20 84l55 -1l-5 -143q-24 -1 -68 -13zM650 464q-1 60 -21 114t-62 88t-104 34q-57 0 -104.5 -29.5t-78 -95t-33.5 -167.5h399q4 24 4 56z" />
  </g>

</svg>
