<?xml version="1.0" standalone="no"?>
<!DOCTYPE svg PUBLIC "-//W3C//DTD SVG 1.1//EN" "http://www.w3.org/Graphics/SVG/1.1/DTD/svg11.dtd" >
<svg xmlns="http://www.w3.org/2000/svg" xmlns:xlink="http://www.w3.org/1999/xlink" version="1.1" viewBox="-10 0 535 1000">
  <g transform="matrix(1 0 0 -1 0 800)">
   <path fill="currentColor"
d="M298 -11q-129 0 -194.5 79.5t-65.5 218.5q0 82 37.5 147.5t102 102t142.5 36.5q48 0 95 -7t69 -18l-1 -128h-47l-22 80q-33 27 -103 27q-75 0 -126 -53.5t-58 -161.5l239 4v-67l-239 7q6 -107 55.5 -162t125.5 -55q69 0 110 22l20 82h48v-98q-69 -56 -188 -56z" />
  </g>

</svg>
