<?xml version="1.0" standalone="no"?>
<!DOCTYPE svg PUBLIC "-//W3C//DTD SVG 1.1//EN" "http://www.w3.org/Graphics/SVG/1.1/DTD/svg11.dtd" >
<svg xmlns="http://www.w3.org/2000/svg" xmlns:xlink="http://www.w3.org/1999/xlink" version="1.1" viewBox="-10 0 832 1000">
  <g transform="matrix(1 0 0 -1 0 800)">
   <path fill="currentColor"
d="M686 207q0 -82 -2 -132.5t-9 -90.5q-17 -65 -77 -106t-128 -51l-20 38q45 10 80 35t52 61q14 33 17 80.5t4 193.5v120h-382v-303l88 -9v-43h-255v43l85 9v637l-82 11v43h251v-43l-87 -11v-281h382v281l-83 11v43h253v-43l-87 -11v-433v-49z" />
  </g>

</svg>
