<?xml version="1.0" standalone="no"?>
<!DOCTYPE svg PUBLIC "-//W3C//DTD SVG 1.1//EN" "http://www.w3.org/Graphics/SVG/1.1/DTD/svg11.dtd" >
<svg xmlns="http://www.w3.org/2000/svg" xmlns:xlink="http://www.w3.org/1999/xlink" version="1.1" viewBox="-10 0 674 1000">
  <g transform="matrix(1 0 0 -1 0 800)">
   <path fill="currentColor"
d="M364.5 514.5q-17.5 4.5 -49.5 4.5q-85 0 -136 -61t-51 -170q0 -68 27.5 -126t74.5 -91.5t103 -33.5q43 0 60 3q-52 34 -79 89.5t-27 123.5q0 86 47 137.5t127 51.5q47 0 85 -24t59.5 -66.5t21.5 -94.5q0 -73 -24.5 -128.5t-74.5 -89.5q28 -4 63 -4q31 0 47 3l-1 -42
q-8 -2 -26.5 -4t-34.5 -2q-61 0 -115 16q-54 -17 -126 -17q-87 0 -154.5 39.5t-104 107t-36.5 146.5q0 83 35.5 149t96.5 102.5t135 36.5q69 0 104 -26l-16 -42q-13 8 -30.5 12.5zM388.5 355.5q-21.5 -42.5 -21.5 -107.5q0 -138 92 -187q45 20 66.5 65t21.5 132
q0 61 -25 100.5t-65 39.5q-47 0 -68.5 -42.5z" />
  </g>

</svg>
