<?xml version="1.0" standalone="no"?>
<!DOCTYPE svg PUBLIC "-//W3C//DTD SVG 1.1//EN" "http://www.w3.org/Graphics/SVG/1.1/DTD/svg11.dtd" >
<svg xmlns="http://www.w3.org/2000/svg" xmlns:xlink="http://www.w3.org/1999/xlink" version="1.1" viewBox="-10 0 835 1000">
  <g transform="matrix(1 0 0 -1 0 800)">
   <path fill="currentColor"
d="M537.5 329q31.5 4 62.5 4q208 0 208 -167q0 -87 -49.5 -132t-149.5 -45q-19 0 -83 6l-39 3t-39 2h-116v43l79 8v450h-185v-53q0 -141 -16 -240t-39 -146q-16 -34 -40 -51t-71 -17q-18 0 -45 6l-5 80q23 -5 71 -5q43 0 69 111.5t27 310.5l-92 15v43h491v-44l-87 -16v-174
q17 4 48.5 8zM591 39q131 0 131 120q0 67 -35.5 94t-108.5 27q-48 0 -89 -9v-224q53 -8 102 -8z" />
  </g>

</svg>
