<?xml version="1.0" standalone="no"?>
<!DOCTYPE svg PUBLIC "-//W3C//DTD SVG 1.1//EN" "http://www.w3.org/Graphics/SVG/1.1/DTD/svg11.dtd" >
<svg xmlns="http://www.w3.org/2000/svg" xmlns:xlink="http://www.w3.org/1999/xlink" version="1.1" viewBox="-10 0 506 1000">
  <g transform="matrix(1 0 0 -1 0 800)">
   <path fill="currentColor"
d="M128.5 550.5q23.5 4.5 27.5 5.5q64 14 114 14q89 0 126.5 -37t37.5 -93q0 -62 -41 -104t-123 -82q-76 -38 -105 -63.5t-29 -64.5t27.5 -63t89.5 -24q37 0 70 10.5t46 20.5l21 87h48v-103q-31 -26 -89.5 -45.5t-105.5 -19.5q-93 0 -142.5 37t-49.5 102q0 44 23 75.5t58 54
t98 54.5q45 23 68.5 38.5t37 36t13.5 51.5q0 39 -25.5 63t-78.5 24q-28 0 -55 -8.5t-41 -17.5l-17 -86h-49v133q22 0 45.5 4.5z" />
  </g>

</svg>
