<?xml version="1.0" standalone="no"?>
<!DOCTYPE svg PUBLIC "-//W3C//DTD SVG 1.1//EN" "http://www.w3.org/Graphics/SVG/1.1/DTD/svg11.dtd" >
<svg xmlns="http://www.w3.org/2000/svg" xmlns:xlink="http://www.w3.org/1999/xlink" version="1.1" viewBox="-10 0 605 1000">
  <g transform="matrix(1 0 0 -1 0 800)">
   <path fill="currentColor"
d="M81.5 434q36.5 66 96 101t124.5 35q126 0 186.5 -82t60.5 -210q0 -87 -36.5 -153t-96 -101t-124.5 -35q-126 0 -186.5 82t-60.5 210q0 87 36.5 153zM416 100q42 59 42 172q0 108 -39 177t-121 69q-77 0 -119.5 -59t-42.5 -172q0 -109 39.5 -177.5t121.5 -68.5
q77 0 119 59zM269 647.5q-7 14.5 -7 26.5q0 9 7 15t21 15q17 10 25 18t8 21q0 25 -14.5 40t-42.5 15q-25 0 -43 -10l-3 53q32 15 62 15q53 0 82.5 -26.5t29.5 -73.5q0 -25 -12 -39t-36 -29q-15 -10 -24 -17q-6 -6 -6 -21q0 -10 4 -26h-37q-7 9 -14 23.5z" />
  </g>

</svg>
