<?xml version="1.0" standalone="no"?>
<!DOCTYPE svg PUBLIC "-//W3C//DTD SVG 1.1//EN" "http://www.w3.org/Graphics/SVG/1.1/DTD/svg11.dtd" >
<svg xmlns="http://www.w3.org/2000/svg" xmlns:xlink="http://www.w3.org/1999/xlink" version="1.1" viewBox="-21 0 730 1000">
  <g transform="matrix(1 0 0 -1 0 800)">
   <path fill="currentColor"
d="M301 750h82l251 -698l65 -9v-43h-244v43l88 9l-53 159h-312l-53 -158l89 -10v-43h-225v43l64 9zM359 596l-28 95l-27 -98l-109 -330h277zM206.5 1011q11.5 19 32.5 32t49 13q21 0 38.5 -9t39.5 -26q19 -14 30.5 -20.5t24.5 -6.5q23 0 34.5 8.5t26.5 29.5l34 -24
q-6 -33 -34 -53.5t-64 -20.5q-17 0 -32.5 7.5t-39.5 23.5q-20 14 -34 20.5t-27 6.5q-17 0 -30 -10.5t-28 -30.5l-33 23q1 18 12.5 37zM378 911l142 -92l-35 -36l-145 69l-148 -69l-32 36l140 92h78z" />
  </g>

</svg>
