<?xml version="1.0" standalone="no"?>
<!DOCTYPE svg PUBLIC "-//W3C//DTD SVG 1.1//EN" "http://www.w3.org/Graphics/SVG/1.1/DTD/svg11.dtd" >
<svg xmlns="http://www.w3.org/2000/svg" xmlns:xlink="http://www.w3.org/1999/xlink" version="1.1" viewBox="-21 0 730 1000">
  <g transform="matrix(1 0 0 -1 0 800)">
   <path fill="currentColor"
d="M301 750h82l251 -698l65 -9v-43h-244v43l88 9l-53 159h-312l-53 -158l89 -10v-43h-225v43l64 9zM359 596l-28 95l-27 -98l-109 -330h277zM532 893.5q-29 24.5 -44 46.5l53 43l95 -102l-36 -34q-39 22 -68 46.5zM380 941l117 -126l-32 -32l-125 95l-125 -95l-33 32
l118 126h80z" />
  </g>

</svg>
