<?xml version="1.0" standalone="no"?>
<!DOCTYPE svg PUBLIC "-//W3C//DTD SVG 1.1//EN" "http://www.w3.org/Graphics/SVG/1.1/DTD/svg11.dtd" >
<svg xmlns="http://www.w3.org/2000/svg" xmlns:xlink="http://www.w3.org/1999/xlink" version="1.1" viewBox="-10 0 737 1000">
  <g transform="matrix(1 0 0 -1 0 800)">
   <path fill="currentColor"
d="M55 0zM55 42l70 16v532l-65 14v44h153l318 -507l13 -25h6v474l-69 16v42h199v-42l-69 -16v-590h-92l-316 503l-12 24h-6v-469l70 -16v-42h-200v42zM501 681zM417 814q12 9 23.5 15.5t18.5 6.5q15 0 27 -18t15 -51l-193 -86l-22 35z" />
  </g>

</svg>
