<?xml version="1.0" standalone="no"?>
<!DOCTYPE svg PUBLIC "-//W3C//DTD SVG 1.1//EN" "http://www.w3.org/Graphics/SVG/1.1/DTD/svg11.dtd" >
<svg xmlns="http://www.w3.org/2000/svg" xmlns:xlink="http://www.w3.org/1999/xlink" version="1.1" viewBox="-10 0 706 1000">
  <g transform="matrix(1 0 0 -1 0 800)">
   <path fill="currentColor"
d="M45 0zM122 73.5q-77 86.5 -77 239.5q0 97 38 176t110.5 125t172.5 46q89 0 153 -40t98 -112.5t34 -169.5q0 -101 -32.5 -180t-101.5 -125t-173 -46q-145 0 -222 86.5zM505.5 114.5q44.5 70.5 44.5 204.5q0 112 -24.5 173.5t-67.5 84.5t-106 23q-67 0 -110 -18.5
t-69.5 -79.5t-26.5 -183q0 -147 54 -211t164 -64q97 0 141.5 70.5zM488 692zM249 728q-36 36 -40 80l60 13q7 -26 29 -47t55 -21q39 0 66.5 21t37.5 47l31 -8q-10 -46 -46 -83.5t-92 -37.5q-65 0 -101 36z" />
  </g>

</svg>
