<?xml version="1.0" standalone="no"?>
<!DOCTYPE svg PUBLIC "-//W3C//DTD SVG 1.1//EN" "http://www.w3.org/Graphics/SVG/1.1/DTD/svg11.dtd" >
<svg xmlns="http://www.w3.org/2000/svg" xmlns:xlink="http://www.w3.org/1999/xlink" version="1.1" viewBox="-10 0 524 1000">
  <g transform="matrix(1 0 0 -1 0 800)">
   <path fill="currentColor"
d="M202.5 -183q-16.5 4 -35.5 12l16 37q28 -11 54 -11q59 0 59 30q0 15 -7 20.5t-24 8.5l-37 8l-19 19l21 50q-54 3 -102.5 18.5t-69.5 34.5v143h54l15 -100q22 -16 55.5 -27.5t61.5 -11.5q73 0 106 24.5t33 89.5q0 50 -33 76.5t-96 49.5q-71 26 -105.5 42.5t-62 52
t-27.5 94.5q0 83 58 133t156 50q46 0 98 -8.5t71 -16.5v-151h-49l-19 94q-18 10 -47.5 16.5t-56.5 6.5q-71 0 -97.5 -25t-26.5 -71q0 -36 19.5 -59.5t48 -37.5t80.5 -33q55 -21 90.5 -41t60 -56.5t24.5 -93.5q0 -90 -56.5 -138t-137.5 -55v-20l17 -4q36 -9 54 -21t18 -42
q0 -48 -35.5 -69.5t-87.5 -21.5q-22 0 -38.5 4z" />
  </g>

</svg>
