<?xml version="1.0" standalone="no"?>
<!DOCTYPE svg PUBLIC "-//W3C//DTD SVG 1.1//EN" "http://www.w3.org/Graphics/SVG/1.1/DTD/svg11.dtd" >
<svg xmlns="http://www.w3.org/2000/svg" xmlns:xlink="http://www.w3.org/1999/xlink" version="1.1" viewBox="-17 0 965 1000">
  <g transform="matrix(1 0 0 -1 0 800)">
   <path fill="currentColor"
d="M0 0zM54 591l-61 16v41h240v-41l-85 -17l134 -438l9 -37h6l12 38l134 362l-28 76l-75 16v41h253v-41l-86 -17l154 -437l10 -36h8l10 36l127 437l-89 17v41h211v-41l-59 -16l-184 -596h-59l-152 408l-7 28h-7l-7 -29l-155 -407h-59zM625 686zM322 701.5q-14 15.5 -14 40.5
t15.5 42.5t39.5 17.5q23 0 37 -14.5t14 -39.5q0 -26 -15 -44t-40 -18q-23 0 -37 15.5zM533 701.5q-14 15.5 -14 40.5t15.5 42.5t39.5 17.5q23 0 37 -14.5t14 -39.5q0 -26 -15 -44t-40 -18q-23 0 -37 15.5z" />
  </g>

</svg>
