<?xml version="1.0" standalone="no"?>
<!DOCTYPE svg PUBLIC "-//W3C//DTD SVG 1.1//EN" "http://www.w3.org/Graphics/SVG/1.1/DTD/svg11.dtd" >
<svg xmlns="http://www.w3.org/2000/svg" xmlns:xlink="http://www.w3.org/1999/xlink" version="1.1" viewBox="-17 0 619 1000">
  <g transform="matrix(1 0 0 -1 0 800)">
   <path fill="currentColor"
d="M0 0zM171 44l82 15v177l-198 355l-62 16v41h241v-41l-75 -16v-18l148 -280h4l149 280v18l-79 16v41h211v-41l-60 -16l-192 -343v-189l82 -15v-44h-251v44zM461 678zM234 780l29 23q16 14 28 22.5t19 8.5q9 0 20 -7.5t35 -28.5q8 -6 22 -18l74 -61l-33 -41l-122 65
l-126 -65l-25 36z" />
  </g>

</svg>
