<?xml version="1.0" standalone="no"?>
<!DOCTYPE svg PUBLIC "-//W3C//DTD SVG 1.1//EN" "http://www.w3.org/Graphics/SVG/1.1/DTD/svg11.dtd" >
<svg xmlns="http://www.w3.org/2000/svg" xmlns:xlink="http://www.w3.org/1999/xlink" version="1.1" viewBox="-10 0 457 1000">
  <g transform="matrix(1 0 0 -1 0 800)">
   <path fill="currentColor"
d="M25 0zM80 59q-55 68 -55 174q0 79 28.5 140.5t79.5 96t115 34.5q82 0 123 -53t41 -129q0 -53 -10 -71t-38 -18h-251q0 -76 37.5 -124t119.5 -48q39 0 71.5 7.5t48.5 16.5l14 -28q-23 -25 -68 -45.5t-96 -20.5q-105 0 -160 68zM331 327q0 60 -21.5 89.5t-76.5 29.5
q-60 0 -89 -42t-30 -125l214 8q3 18 3 40zM394 553zM162 574.5q-34 21.5 -51 53.5t-19 65l51 13q3 -34 30.5 -61t78.5 -27q49 0 76.5 28t31.5 62l34 -8q-1 -35 -17 -68.5t-49.5 -56t-82.5 -22.5t-83 21.5z" />
  </g>

</svg>
