<?xml version="1.0" standalone="no"?>
<!DOCTYPE svg PUBLIC "-//W3C//DTD SVG 1.1//EN" "http://www.w3.org/Graphics/SVG/1.1/DTD/svg11.dtd" >
<svg xmlns="http://www.w3.org/2000/svg" xmlns:xlink="http://www.w3.org/1999/xlink" version="1.1" viewBox="-10 0 645 1000">
  <g transform="matrix(1 0 0 -1 0 800)">
   <path fill="currentColor"
d="M84 55v382h-61v47l60 12q3 59 30 105.5t71 73t97 26.5q27 0 41.5 -13.5t14.5 -34.5q0 -17 -9 -28t-19 -15q-43 15 -86 15q-34 0 -57 -9v-122h205q3 59 30 106.5t71 74t97 26.5q27 0 41.5 -13.5t14.5 -34.5q0 -17 -9 -28t-19 -15q-44 15 -86 15q-34 0 -57 -9v-122h127v-31
l-13 -26h-114v-380l104 -16v-41h-255v41l69 14v382h-206v-380l87 -16v-41h-238v41z" />
  </g>

</svg>
