<?xml version="1.0" standalone="no"?>
<!DOCTYPE svg PUBLIC "-//W3C//DTD SVG 1.1//EN" "http://www.w3.org/Graphics/SVG/1.1/DTD/svg11.dtd" >
<svg xmlns="http://www.w3.org/2000/svg" xmlns:xlink="http://www.w3.org/1999/xlink" version="1.1" viewBox="-21 0 322 1000">
  <g transform="matrix(1 0 0 -1 0 800)">
   <path fill="currentColor"
d="M0 0zM26 41l80 14v356l-80 14v41l139 28l23 -9v-430l78 -14v-41h-240v41zM291 553zM59 574.5q-34 21.5 -51 53.5t-19 65l51 13q3 -34 30.5 -61t78.5 -27q49 0 76.5 28t31.5 62l34 -8q-1 -35 -17 -68.5t-49.5 -56t-82.5 -22.5t-83 21.5z" />
  </g>

</svg>
