<?xml version="1.0" standalone="no"?>
<!DOCTYPE svg PUBLIC "-//W3C//DTD SVG 1.1//EN" "http://www.w3.org/Graphics/SVG/1.1/DTD/svg11.dtd" >
<svg xmlns="http://www.w3.org/2000/svg" xmlns:xlink="http://www.w3.org/1999/xlink" version="1.1" viewBox="-10 0 1336 1000">
  <g transform="matrix(1 0 0 -1 0 800)">
   <path fill="currentColor"
d="M138 60v528l-83 17v43h249q243 0 243 -164q0 -109 -64 -166.5t-174 -57.5q-24 0 -36 2l-5 39q91 0 139 35.5t48 117.5q0 137 -152 137q-36 0 -79 -5v-523l111 -17v-46h-280v43zM680 24.5q-24 28.5 -24 82.5v335h-78v42l78 21l24 104h58v-114h141v-28l-14 -25h-127v-328
q0 -30 11.5 -40t38.5 -10q20 0 42.5 4t37.5 9l10 -32q2 0 -17.5 -13.5t-45.5 -24.5t-51 -11q-60 0 -84 28.5zM1001 4q-46 13 -63 26l12 122h41l14 -78q15 -11 39.5 -19.5t55.5 -8.5q58 0 80.5 23t22.5 64q0 26 -14.5 42t-36 24.5t-59.5 18.5q-48 12 -78.5 25t-52 42
t-21.5 78q0 68 51 104.5t131 36.5q43 0 85 -9t58 -18l-14 -125h-41l-14 80q-17 6 -40 10.5t-42 4.5q-54 0 -75.5 -17.5t-21.5 -55.5q0 -23 14 -37.5t34.5 -22.5t57.5 -18q49 -13 80.5 -27t54 -43.5t22.5 -79.5q0 -83 -51.5 -119t-133.5 -36q-49 0 -95 13z" />
  </g>

</svg>
