<?xml version="1.0" standalone="no"?>
<!DOCTYPE svg PUBLIC "-//W3C//DTD SVG 1.1//EN" "http://www.w3.org/Graphics/SVG/1.1/DTD/svg11.dtd" >
<svg xmlns="http://www.w3.org/2000/svg" xmlns:xlink="http://www.w3.org/1999/xlink" version="1.1" viewBox="-10 0 236 1000">
  <g transform="matrix(1 0 0 -1 0 800)">
   <path fill="currentColor"
d="M72.5 339.5q-15.5 17.5 -15.5 45.5t17.5 47.5t44.5 19.5q26 0 41.5 -16.5t15.5 -44.5q0 -29 -16.5 -49t-45.5 -20q-26 0 -41.5 17.5zM76 -53q11 30 11 50q0 19 -9.5 35.5t-22.5 26.5q23 50 66 50q26 0 41.5 -18t15.5 -45q0 -44 -34.5 -95.5t-62.5 -79.5l-34 14
q18 32 29 62z" />
  </g>

</svg>
