<?xml version="1.0" standalone="no"?>
<!DOCTYPE svg PUBLIC "-//W3C//DTD SVG 1.1//EN" "http://www.w3.org/Graphics/SVG/1.1/DTD/svg11.dtd" >
<svg xmlns="http://www.w3.org/2000/svg" xmlns:xlink="http://www.w3.org/1999/xlink" version="1.1" viewBox="-346 0 356 1000">
  <g transform="matrix(1 0 0 -1 0 800)">
   <path fill="currentColor"
d="M0 553zM0 728zM-133.5 735q-24.5 7 -28.5 8l-84 25l-68 -34l-22 20l28 47q10 17 27 26.5t36 9.5q18 0 42.5 -7t28.5 -8l84 -25l68 34l22 -20l-28 -47q-10 -17 -27 -26.5t-36 -9.5q-18 0 -42.5 7zM-19 553zM-251 574.5q-34 21.5 -51 53.5t-19 65l51 13q3 -34 30.5 -61
t78.5 -27q49 0 76.5 28t31.5 62l34 -8q-1 -35 -17 -68.5t-49.5 -56t-82.5 -22.5t-83 21.5z" />
  </g>

</svg>
