<?xml version="1.0" standalone="no"?>
<!DOCTYPE svg PUBLIC "-//W3C//DTD SVG 1.1//EN" "http://www.w3.org/Graphics/SVG/1.1/DTD/svg11.dtd" >
<svg xmlns="http://www.w3.org/2000/svg" xmlns:xlink="http://www.w3.org/1999/xlink" version="1.1" viewBox="-10 0 582 1000">
  <g transform="matrix(1 0 0 -1 0 800)">
   <path fill="currentColor"
d="M55 0zM138 60v528l-83 17v43h458v-164h-49l-21 109h-121l-98 -6v-229h158l15 59h42v-171h-42l-15 59h-158v-238q19 -4 49 -7t58 -3h120l22 107h49v-164h-467v43zM135.5 822.5q12.5 15.5 26.5 15.5q12 0 22.5 -6.5t24.5 -25.5l79 -103l-28 -27l-144 102q7 29 19.5 44.5z
M319.5 822.5q12.5 15.5 26.5 15.5q12 0 22.5 -6.5t24.5 -25.5l79 -103l-28 -27l-144 102q7 29 19.5 44.5z" />
  </g>

</svg>
