<?xml version="1.0" standalone="no"?>
<!DOCTYPE svg PUBLIC "-//W3C//DTD SVG 1.1//EN" "http://www.w3.org/Graphics/SVG/1.1/DTD/svg11.dtd" >
<svg xmlns="http://www.w3.org/2000/svg" xmlns:xlink="http://www.w3.org/1999/xlink" version="1.1" viewBox="-360 0 370 1000">
  <g transform="matrix(1 0 0 -1 0 800)">
   <path fill="currentColor"
d="M0 678zM0 854zM-168 869l-79 25l-80 -36l-23 26l37 49q21 29 61 29q23 0 70 -15l79 -25l80 36l23 -26l-37 -49q-21 -29 -61 -29q-23 0 -70 15zM-24 678zM-251 780l29 23q16 14 28 22.5t19 8.5q9 0 20 -7.5t35 -28.5q8 -6 22 -18l74 -61l-33 -41l-122 65l-126 -65l-25 36z
" />
  </g>

</svg>
