<?xml version="1.0" standalone="no"?>
<!DOCTYPE svg PUBLIC "-//W3C//DTD SVG 1.1//EN" "http://www.w3.org/Graphics/SVG/1.1/DTD/svg11.dtd" >
<svg xmlns="http://www.w3.org/2000/svg" xmlns:xlink="http://www.w3.org/1999/xlink" version="1.1" viewBox="-10 0 543 1000">
  <g transform="matrix(1 0 0 -1 0 800)">
   <path fill="currentColor"
d="M72 0zM72 494l54 10l28 -14v-322q0 -64 23.5 -87.5t85.5 -23.5q19 0 46.5 6.5t50.5 16.5v414l55 10l28 -14v-423l80 -13v-38q-23 -9 -54 -14.5t-55 -5.5q-20 0 -35 12.5t-19 34.5l-2 -1q-32 -22 -73.5 -36.5t-73.5 -14.5q-45 0 -75 15q6 -21 7 -34l11 -125l-54 -10
l-28 14v643z" />
  </g>

</svg>
