<?xml version="1.0" standalone="no"?>
<!DOCTYPE svg PUBLIC "-//W3C//DTD SVG 1.1//EN" "http://www.w3.org/Graphics/SVG/1.1/DTD/svg11.dtd" >
<svg xmlns="http://www.w3.org/2000/svg" xmlns:xlink="http://www.w3.org/1999/xlink" version="1.1" viewBox="-10 0 552 1000">
  <g transform="matrix(1 0 0 -1 0 800)">
   <path fill="currentColor"
d="M19 0zM19 41l80 14v567l-80 14v41l139 22l23 -9v-635l78 -14v-41h-240v41zM283 0zM270 -155v38l108 26v502l-80 14v41l139 28l23 -9v-568q0 -39 -27.5 -60.5t-79.5 -21.5q-46 0 -83 10zM466 568zM364.5 585q-15.5 17 -15.5 45q0 27 17.5 46.5t43.5 19.5t41 -16t15 -44
t-16.5 -48t-44.5 -20q-25 0 -40.5 17z" />
  </g>

</svg>
