<?xml version="1.0" standalone="no"?>
<!DOCTYPE svg PUBLIC "-//W3C//DTD SVG 1.1//EN" "http://www.w3.org/Graphics/SVG/1.1/DTD/svg11.dtd" >
<svg xmlns="http://www.w3.org/2000/svg" xmlns:xlink="http://www.w3.org/1999/xlink" version="1.1" viewBox="-197 0 207 1000">
  <g transform="matrix(1 0 0 -1 0 800)">
   <path fill="currentColor"
d="M0 535zM-164 558.5q-23 23.5 -23 63.5t25.5 67.5t71.5 27.5q43 0 66.5 -25t23.5 -64q0 -40 -26.5 -66.5t-70.5 -26.5t-67 23.5zM-62.5 589q8.5 11 8.5 37q0 27 -9.5 36.5t-31.5 9.5q-23 0 -31 -10.5t-8 -35.5q0 -28 9 -38t32 -10q22 0 30.5 11z" />
  </g>

</svg>
