<?xml version="1.0" standalone="no"?>
<!DOCTYPE svg PUBLIC "-//W3C//DTD SVG 1.1//EN" "http://www.w3.org/Graphics/SVG/1.1/DTD/svg11.dtd" >
<svg xmlns="http://www.w3.org/2000/svg" xmlns:xlink="http://www.w3.org/1999/xlink" version="1.1" viewBox="-10 0 625 1000">
  <g transform="matrix(1 0 0 -1 0 800)">
   <path fill="currentColor"
d="M55 0zM138 59v530l-83 15v44h252v-44l-83 -15v-230h31l184 223v11l-58 12v43h204v-44l-57 -12l-196 -234l209 -298l64 -15v-45h-94q-25 0 -37 5.5t-24 23.5l-193 283h-33v-253l83 -15v-44h-252v44zM380 -49zM313 -130q0 36 -26 59q10 11 22 16.5t23 5.5q24 0 36 -15.5
t12 -36.5q0 -27 -14.5 -50.5t-33.5 -35.5h-36q17 29 17 57z" />
  </g>

</svg>
