<?xml version="1.0" standalone="no"?>
<!DOCTYPE svg PUBLIC "-//W3C//DTD SVG 1.1//EN" "http://www.w3.org/Graphics/SVG/1.1/DTD/svg11.dtd" >
<svg xmlns="http://www.w3.org/2000/svg" xmlns:xlink="http://www.w3.org/1999/xlink" version="1.1" viewBox="-289 0 299 1000">
  <g transform="matrix(1 0 0 -1 0 800)">
   <path fill="currentColor"
d="M0 692zM-60 806zM-260 943q12 18 27 18q7 0 18.5 -6.5t23.5 -15.5l131 -98l-22 -35l-193 86q3 33 15 51zM0 692zM-239 728q-36 36 -40 80l60 13q7 -26 29 -47t55 -21q39 0 66.5 21t37.5 47l31 -8q-10 -46 -46 -83.5t-92 -37.5q-65 0 -101 36z" />
  </g>

</svg>
