<?xml version="1.0" standalone="no"?>
<!DOCTYPE svg PUBLIC "-//W3C//DTD SVG 1.1//EN" "http://www.w3.org/Graphics/SVG/1.1/DTD/svg11.dtd" >
<svg xmlns="http://www.w3.org/2000/svg" xmlns:xlink="http://www.w3.org/1999/xlink" version="1.1" viewBox="-10 0 490 1000">
  <g transform="matrix(1 0 0 -1 0 800)">
   <path fill="currentColor"
d="M38 0zM72 28q-34 35 -34 89q0 126 179 151l90 13v75q0 84 -98 84q-30 0 -62 -8l-15 -92q-9 -7 -32 -7q-18 0 -32 13t-14 33q0 38 37 66.5t86.5 43.5t80.5 15q63 0 97 -32.5t34 -82.5v-321l71 -14v-38q-17 -8 -45 -14t-55 -6q-44 0 -48 46h-4q-13 -14 -50.5 -31.5
t-79.5 -17.5q-72 0 -106 35zM264 61.5q26 5.5 43 12.5v159q-95 -7 -138 -30.5t-43 -70.5q0 -37 22 -56.5t65 -19.5q25 0 51 5.5zM299 -84zM299 -212zM197.5 -195q-15.5 17 -15.5 45q0 27 17.5 46.5t43.5 19.5t41 -16t15 -44t-16.5 -48t-44.5 -20q-25 0 -40.5 17zM391 553z
M159 574.5q-34 21.5 -51 53.5t-19 65l51 13q3 -34 30.5 -61t78.5 -27q49 0 76.5 28t31.5 62l34 -8q-1 -35 -17 -68.5t-49.5 -56t-82.5 -22.5t-83 21.5z" />
  </g>

</svg>
