<?xml version="1.0" standalone="no"?>
<!DOCTYPE svg PUBLIC "-//W3C//DTD SVG 1.1//EN" "http://www.w3.org/Graphics/SVG/1.1/DTD/svg11.dtd" >
<svg xmlns="http://www.w3.org/2000/svg" xmlns:xlink="http://www.w3.org/1999/xlink" version="1.1" viewBox="-10 0 706 1000">
  <g transform="matrix(1 0 0 -1 0 800)">
   <path fill="currentColor"
d="M45 0zM122 73.5q-77 86.5 -77 239.5q0 97 38 176t110.5 125t172.5 46q89 0 153 -40t98 -112.5t34 -169.5q0 -101 -32.5 -180t-101.5 -125t-173 -46q-145 0 -222 86.5zM505.5 114.5q44.5 70.5 44.5 204.5q0 112 -24.5 173.5t-67.5 84.5t-106 23q-67 0 -110 -18.5
t-69.5 -79.5t-26.5 -183q0 -147 54 -211t164 -64q97 0 141.5 70.5zM407 -84zM407 -84zM407 -212zM305.5 -195q-15.5 17 -15.5 45q0 27 17.5 46.5t43.5 19.5t41 -16t15 -44t-16.5 -48t-44.5 -20q-25 0 -40.5 17zM501 678zM274 780l29 23q16 14 28 22.5t19 8.5q9 0 20 -7.5
t35 -28.5q8 -6 22 -18l74 -61l-33 -41l-122 65l-126 -65l-25 36z" />
  </g>

</svg>
