<?xml version="1.0" standalone="no"?>
<!DOCTYPE svg PUBLIC "-//W3C//DTD SVG 1.1//EN" "http://www.w3.org/Graphics/SVG/1.1/DTD/svg11.dtd" >
<svg xmlns="http://www.w3.org/2000/svg" xmlns:xlink="http://www.w3.org/1999/xlink" version="1.1" viewBox="-19 0 646 1000">
  <g transform="matrix(1 0 0 -1 0 800)">
   <path fill="currentColor"
d="M0 0zM-9 41l63 16l221 596h48l230 -595l64 -14v-44h-239v44l84 12l-49 130h-248l-44 -128l81 -14v-44h-211v41zM392 243l-95 251l-11 32h-4l-7 -32l-90 -251h207zM353 -84zM353 -84zM353 -212zM251.5 -195q-15.5 17 -15.5 45q0 27 17.5 46.5t43.5 19.5t41 -16t15 -44
t-16.5 -48t-44.5 -20q-25 0 -40.5 17z" />
  </g>

</svg>
