<?xml version="1.0" standalone="no"?>
<!DOCTYPE svg PUBLIC "-//W3C//DTD SVG 1.1//EN" "http://www.w3.org/Graphics/SVG/1.1/DTD/svg11.dtd" >
<svg xmlns="http://www.w3.org/2000/svg" xmlns:xlink="http://www.w3.org/1999/xlink" version="1.1" viewBox="-10 0 567 1000">
  <g transform="matrix(1 0 0 -1 0 800)">
   <path fill="currentColor"
d="M7 0zM128.5 27q-38.5 36 -38.5 102v295l-83 14v38l137 28l28 -14v-318q0 -65 24 -90.5t85 -25.5q21 0 48.5 8t48.5 20v340l-82 14v38l137 28l28 -14v-419l71 -16v-38l-139 -20l-15 50l-1 -1q-22 -25 -61 -40t-79 -15q-70 0 -108.5 36zM338 -84zM338 -212zM236.5 -195
q-15.5 17 -15.5 45q0 27 17.5 46.5t43.5 19.5t41 -16t15 -44t-16.5 -48t-44.5 -20q-25 0 -40.5 17z" />
  </g>

</svg>
