<?xml version="1.0" standalone="no"?>
<!DOCTYPE svg PUBLIC "-//W3C//DTD SVG 1.1//EN" "http://www.w3.org/Graphics/SVG/1.1/DTD/svg11.dtd" >
<svg xmlns="http://www.w3.org/2000/svg" xmlns:xlink="http://www.w3.org/1999/xlink" version="1.1" viewBox="-10 0 572 1000">
  <g transform="matrix(1 0 0 -1 0 800)">
   <path fill="currentColor"
d="M507 42q-42 -19 -78.5 -29.5t-95.5 -13.5l-5 -116h-55l-5 118q-109 13 -166 93t-57 221q0 84 28 156t83 119t132 56l4 111h56l4 -110q85 -3 151 -28v-157h-49l-21 110q-18 6 -49.5 11t-65.5 5q-63 0 -100.5 -28t-54.5 -87t-17 -155q0 -121 44.5 -192t131.5 -71
q42 0 73 11.5t43 25.5l20 102h49v-152z" />
  </g>

</svg>
