<?xml version="1.0" standalone="no"?>
<!DOCTYPE svg PUBLIC "-//W3C//DTD SVG 1.1//EN" "http://www.w3.org/Graphics/SVG/1.1/DTD/svg11.dtd" >
<svg xmlns="http://www.w3.org/2000/svg" xmlns:xlink="http://www.w3.org/1999/xlink" version="1.1" viewBox="-101 0 804 1000">
  <g transform="matrix(1 0 0 -1 0 800)">
   <path fill="currentColor"
d="M123 0h-214v25h77l507 739h21l-54 -739h78v-25h-269v25h68l20 222h-181l-152 -222h99v-25zM381 547l-186 -272h165l25 272h-4zM414 924q0 -38 26.5 -51t75.5 -13q60 0 96.5 15.5t46.5 48.5h34q-12 -59 -59 -98t-125 -39q-64 0 -98.5 28.5t-34.5 77.5q0 15 4 31h34z" />
  </g>

</svg>
