<?xml version="1.0" standalone="no"?>
<!DOCTYPE svg PUBLIC "-//W3C//DTD SVG 1.1//EN" "http://www.w3.org/Graphics/SVG/1.1/DTD/svg11.dtd" >
<svg xmlns="http://www.w3.org/2000/svg" xmlns:xlink="http://www.w3.org/1999/xlink" version="1.1" viewBox="-101 0 773 1000">
  <g transform="matrix(1 0 0 -1 0 800)">
   <path fill="currentColor"
d="M123 0h-214v25h77l507 739h21l-54 -739h78v-25h-269v25h68l20 222h-181l-152 -222h99v-25zM381 547l-186 -272h165l25 272h-4zM239 828q-40 10 -40 43q0 21 15 37t39 16q13 0 25.5 -7.5t40.5 -28.5l139 -104h-53zM443 828q-40 10 -40 43q0 21 15 37t39 16q13 0 25.5 -7.5
t40.5 -28.5l139 -104h-53z" />
  </g>

</svg>
