<?xml version="1.0" standalone="no"?>
<!DOCTYPE svg PUBLIC "-//W3C//DTD SVG 1.1//EN" "http://www.w3.org/Graphics/SVG/1.1/DTD/svg11.dtd" >
<svg xmlns="http://www.w3.org/2000/svg" xmlns:xlink="http://www.w3.org/1999/xlink" version="1.1" viewBox="-101 0 824 1000">
  <g transform="matrix(1 0 0 -1 0 800)">
   <path fill="currentColor"
d="M123 0h-214v25h77l507 739h21l-54 -739h78v-25h-269v25h68l20 222h-181l-152 -222h99v-25zM381 547l-186 -272h165l25 272h-4zM713 924q-20 -66 -55.5 -96.5t-77.5 -30.5q-23 0 -39.5 7.5t-30.5 16.5t-28 16.5t-32 7.5q-25 0 -44 -14t-29 -35h-32q15 54 51 89.5t81 35.5
q21 0 37 -7.5t30.5 -16.5t28.5 -16.5t32 -7.5q27 0 45.5 17t28.5 34h34z" />
  </g>

</svg>
