<?xml version="1.0" standalone="no"?>
<!DOCTYPE svg PUBLIC "-//W3C//DTD SVG 1.1//EN" "http://www.w3.org/Graphics/SVG/1.1/DTD/svg11.dtd" >
<svg xmlns="http://www.w3.org/2000/svg" xmlns:xlink="http://www.w3.org/1999/xlink" version="1.1" viewBox="-10 0 669 1000">
  <g transform="matrix(1 0 0 -1 0 800)">
   <path fill="currentColor"
d="M513 279h-254q-8 -35 -12.5 -72.5t-4.5 -72.5q0 -57 17.5 -88.5t63.5 -31.5q29 0 55.5 12.5t49.5 34t41 52t30 66.5h34l-48 -179h-25l-16 32q-20 -17 -50.5 -31t-73.5 -14q-51 0 -86 23t-56.5 62.5t-31.5 92.5t-10 114h-82l10 46h79l20 82h-82l10 44h90q20 46 50.5 91.5
t68 82t82 59t92.5 22.5q25 0 43 -5.5t31.5 -14t22.5 -18t15 -17.5l41 55h22l-32 -194h-31q0 36 -7 66.5t-19.5 53t-31.5 35.5t-43 13q-27 0 -53 -17t-49 -47t-43.5 -72t-37.5 -93h248l-10 -44h-249l-22 -82h254z" />
  </g>

</svg>
