<?xml version="1.0" standalone="no"?>
<!DOCTYPE svg PUBLIC "-//W3C//DTD SVG 1.1//EN" "http://www.w3.org/Graphics/SVG/1.1/DTD/svg11.dtd" >
<svg xmlns="http://www.w3.org/2000/svg" xmlns:xlink="http://www.w3.org/1999/xlink" version="1.1" viewBox="-10 0 862 1000">
  <g transform="matrix(1 0 0 -1 0 800)">
   <path fill="currentColor"
d="M448 729h-93l-105 -463q-7 -29 -10 -54.5t-3 -44.5q0 -73 40 -111.5t110 -38.5q80 0 136 49t75 139l111 524h-109v25h242v-25h-103l-106 -498q-11 -52 -30 -96.5t-50.5 -77.5t-79 -51.5t-116.5 -18.5q-108 0 -169.5 47.5t-61.5 141.5q0 38 11 90l101 463h-113v25h323v-25
zM405 828q-40 10 -40 43q0 21 15 37t39 16q13 0 25.5 -7.5t40.5 -28.5l139 -104h-53z" />
  </g>

</svg>
