<?xml version="1.0" standalone="no"?>
<!DOCTYPE svg PUBLIC "-//W3C//DTD SVG 1.1//EN" "http://www.w3.org/Graphics/SVG/1.1/DTD/svg11.dtd" >
<svg xmlns="http://www.w3.org/2000/svg" xmlns:xlink="http://www.w3.org/1999/xlink" version="1.1" viewBox="-10 0 787 1000">
  <g transform="matrix(1 0 0 -1 0 800)">
   <path fill="currentColor"
d="M512 429q26 15 54.5 24t58.5 9t55.5 -9t44.5 -24.5t29.5 -38t10.5 -49.5q0 -33 -16 -60t-44 -46.5t-67.5 -30.5t-85.5 -11q-22 0 -45.5 2t-42.5 4q-3 -32 -3 -60q0 -68 21.5 -95t70.5 -27q48 0 93.5 25.5t84.5 90.5l20 -14q-37 -66 -88.5 -99t-114.5 -33q-71 0 -114.5 36
t-60.5 87h-5q-29 -60 -73.5 -91.5t-97.5 -31.5q-32 0 -60 12t-49 35t-33 55.5t-12 74.5q0 58 22.5 112t59 95.5t83 66t93.5 24.5q45 0 67.5 -21t36.5 -54l15 63h97zM217 19q19 0 39 7.5t38 23.5t32 40.5t22 58.5l38 160q1 7 1 13.5v12.5q0 44 -21 71t-53 27q-26 0 -47.5 -17
t-39 -45t-31 -63t-23 -71t-14 -70t-4.5 -59q0 -47 16 -68t47 -21zM615 432q-30 0 -54.5 -18t-43 -47.5t-31 -67.5t-18.5 -77q21 -3 44 -3q46 0 77.5 11.5t51 30t28 43t8.5 51.5q0 42 -17 59.5t-45 17.5zM476 554h-42l131 150q26 30 44.5 40t37.5 10q26 0 36 -12t10 -26
t-9.5 -28t-30.5 -27z" />
  </g>

</svg>
