<?xml version="1.0" standalone="no"?>
<!DOCTYPE svg PUBLIC "-//W3C//DTD SVG 1.1//EN" "http://www.w3.org/Graphics/SVG/1.1/DTD/svg11.dtd" >
<svg xmlns="http://www.w3.org/2000/svg" xmlns:xlink="http://www.w3.org/1999/xlink" version="1.1" viewBox="-10 0 874 1000">
  <g transform="matrix(1 0 0 -1 0 800)">
   <path fill="currentColor"
d="M646 654q0 -31 -17.5 -59t-47.5 -53t-70.5 -45t-86.5 -35q15 -42 32 -82t34 -75q13 -29 25.5 -53t23.5 -45q27 41 49 87t46 85t53.5 65t71.5 26q38 0 61.5 -21t23.5 -52q0 -22 -13.5 -39.5t-40.5 -17.5q-23 0 -36.5 12.5t-13.5 30.5q0 7 1.5 13t1.5 14q0 20 -17 20
q-18 0 -36 -24t-38.5 -60.5t-44.5 -81t-52 -85.5q23 -39 42.5 -64t36.5 -39.5t32 -20t29 -5.5q32 0 66 23.5t62 65.5l18 -15q-32 -62 -87.5 -93t-121.5 -31q-45 0 -83.5 17t-75.5 62q-18 -17 -38 -33.5t-45 -29t-55 -20t-67 -7.5q-47 0 -86.5 13t-68 37.5t-44.5 59.5t-16 79
q0 87 63 155t188 104q-14 44 -21 80.5t-7 63.5q0 31 11 63.5t35.5 59t64 43t95.5 16.5q78 0 121 -30.5t43 -78.5zM363 277q-15 35 -28 69t-24 66q-74 -26 -101 -72.5t-27 -109.5q0 -45 10.5 -81t28.5 -62t43.5 -40t55.5 -14q35 0 70.5 19t62.5 51q-22 32 -44.5 74.5
t-46.5 99.5zM378 647q0 -30 10 -72t27 -88q31 10 57 27t44.5 40t28.5 50.5t10 57.5q0 14 -3 28t-12 24.5t-25 17t-41 6.5q-50 0 -73 -24.5t-23 -66.5z" />
  </g>

</svg>
