<?xml version="1.0" standalone="no"?>
<!DOCTYPE svg PUBLIC "-//W3C//DTD SVG 1.1//EN" "http://www.w3.org/Graphics/SVG/1.1/DTD/svg11.dtd" >
<svg xmlns="http://www.w3.org/2000/svg" xmlns:xlink="http://www.w3.org/1999/xlink" version="1.1" viewBox="-10 0 480 1000">
  <g transform="matrix(1 0 0 -1 0 800)">
   <path fill="currentColor"
d="M377 412q0 11 -17 15.5t-34 4.5q-48 0 -81.5 -31.5t-54.5 -77.5t-31 -97.5t-10 -91.5q0 -56 20 -86.5t71 -30.5q42 0 84.5 25.5t79.5 90.5l20 -14q-34 -64 -83 -98t-109 -34h-10l-30 -53h19q39 0 60.5 -17.5t21.5 -46.5q0 -25 -15 -43t-37.5 -30t-49.5 -17.5t-52 -5.5
q-29 0 -47.5 6t-26.5 11l17 25q6 -5 22 -8t31 -3q29 0 51.5 14t22.5 43q0 22 -15 34.5t-48 13.5l47 81q-35 7 -63 26.5t-47 47t-29 60t-10 66.5q0 52 23 100.5t62 86.5t90.5 61t108.5 23q60 0 96 -25.5t36 -67.5q0 -28 -16 -43t-42 -15q-23 0 -39 12t-16 36q0 13 4.5 21
t10.5 13.5t10.5 9.5t4.5 9z" />
  </g>

</svg>
