<?xml version="1.0" standalone="no"?>
<!DOCTYPE svg PUBLIC "-//W3C//DTD SVG 1.1//EN" "http://www.w3.org/Graphics/SVG/1.1/DTD/svg11.dtd" >
<svg xmlns="http://www.w3.org/2000/svg" xmlns:xlink="http://www.w3.org/1999/xlink" version="1.1" viewBox="-149 0 684 1000">
  <g transform="matrix(1 0 0 -1 0 800)">
   <path fill="currentColor"
d="M61 440h89q11 76 37.5 135t62 98.5t76.5 60t82 20.5q22 0 43 -6t37.5 -17.5t26.5 -27.5t10 -37q0 -23 -13 -38t-39 -15q-25 0 -38 13t-13 32q0 18 9 28t9 19q0 8 -9 13.5t-26 5.5q-19 0 -35 -10t-30 -35.5t-26 -68.5t-23 -109l-10 -61h101v-44h-109l-59 -351
q-19 -110 -48 -180t-62 -110t-67 -54.5t-64 -14.5q-17 0 -37 4t-36.5 13t-27.5 23t-11 34q0 22 13.5 34.5t33.5 12.5t34.5 -12t14.5 -35q0 -5 -0.5 -12.5t-0.5 -12.5q0 -8 5 -13.5t19 -5.5q31 0 51.5 32t32.5 112l79 536h-82v44z" />
  </g>

</svg>
