<?xml version="1.0" standalone="no"?>
<!DOCTYPE svg PUBLIC "-//W3C//DTD SVG 1.1//EN" "http://www.w3.org/Graphics/SVG/1.1/DTD/svg11.dtd" >
<svg xmlns="http://www.w3.org/2000/svg" xmlns:xlink="http://www.w3.org/1999/xlink" version="1.1" viewBox="-66 0 661 1000">
  <g transform="matrix(1 0 0 -1 0 800)">
   <path fill="currentColor"
d="M239 136q-32 0 -56 7.5t-42 21.5q-65 -12 -65 -60q0 -10 4 -17.5t14.5 -12.5t29 -8t48.5 -5l158 -10q58 -4 84 -41t26 -91q0 -44 -16.5 -88t-51 -79t-87.5 -57t-127 -22q-100 0 -157 40.5t-57 108.5q0 19 6 38t22 38t44.5 37t74.5 35q-14 4 -29.5 11.5t-28.5 19.5
t-21 28.5t-8 38.5q0 26 11.5 46t28.5 34.5t36.5 24t36.5 15.5q-15 20 -22 44t-7 48q0 39 17 72t45.5 57.5t65.5 38t76 13.5q55 0 89 -25.5t47 -67.5h4q14 46 32 69.5t44 23.5q20 0 32.5 -12t12.5 -29q0 -13 -9 -26t-28 -13q-11 0 -17 4t-10.5 9.5t-7.5 9.5t-7 4
q-9 0 -18 -31t-23 -88q-5 -35 -22.5 -63.5t-44 -48.5t-59 -31t-68.5 -11zM147 -36q-39 -15 -64 -31.5t-39.5 -34t-20 -36.5t-5.5 -40q0 -57 38 -87.5t112 -30.5q58 0 102 18t72.5 45t43 58t14.5 57q0 31 -17.5 48t-46.5 19zM231 156q28 0 49.5 19.5t36.5 50.5t22.5 68
t7.5 73q0 38 -10.5 56.5t-37.5 18.5q-28 0 -49.5 -18t-36.5 -47.5t-22.5 -66t-7.5 -73.5q0 -38 10 -59.5t38 -21.5zM368 554h-42l131 150q26 30 44.5 40t37.5 10q26 0 36 -12t10 -26t-9.5 -28t-30.5 -27z" />
  </g>

</svg>
