<?xml version="1.0" standalone="no"?>
<!DOCTYPE svg PUBLIC "-//W3C//DTD SVG 1.1//EN" "http://www.w3.org/Graphics/SVG/1.1/DTD/svg11.dtd" >
<svg xmlns="http://www.w3.org/2000/svg" xmlns:xlink="http://www.w3.org/1999/xlink" version="1.1" viewBox="-25 0 426 1000">
  <g transform="matrix(1 0 0 -1 0 800)">
   <path fill="currentColor"
d="M47 450h201l-89 -353q-3 -13 -4 -21t-1 -13q0 -25 22 -25q24 0 51.5 29t62.5 99l20 -9q-15 -32 -33 -62.5t-40.5 -54.5t-50 -38.5t-59.5 -14.5q-37 0 -57 19t-20 50q0 8 1 16t3 15l81 338h-88v25zM348 554l-135 94q-32 22 -41 36.5t-9 27.5q0 18 12 30t34 12
q16 0 31.5 -8.5t32.5 -31.5l118 -160h-43zM170 554l-135 94q-32 22 -41 36.5t-9 27.5q0 18 12 30t34 12q16 0 31.5 -8.5t32.5 -31.5l118 -160h-43z" />
  </g>

</svg>
