<?xml version="1.0" standalone="no"?>
<!DOCTYPE svg PUBLIC "-//W3C//DTD SVG 1.1//EN" "http://www.w3.org/Graphics/SVG/1.1/DTD/svg11.dtd" >
<svg xmlns="http://www.w3.org/2000/svg" xmlns:xlink="http://www.w3.org/1999/xlink" version="1.1" viewBox="-10 0 637 1000">
  <g transform="matrix(1 0 0 -1 0 800)">
   <path fill="currentColor"
d="M47 450h201l-89 -353q-3 -13 -4 -21t-1 -13q0 -25 22 -25q24 0 51.5 29t62.5 99l20 -9q-15 -32 -33 -62.5t-40.5 -54.5t-50 -38.5t-59.5 -14.5q-37 0 -57 19t-20 50q0 8 1 16t3 15l81 338h-88v25zM163 667q0 27 19.5 46.5t46.5 19.5t46.5 -19.5t19.5 -46.5t-19.5 -46.5
t-46.5 -19.5t-46.5 19.5t-19.5 46.5zM368 450h201l-128 -584q-10 -46 -30.5 -81.5t-47.5 -59.5t-57.5 -36.5t-60.5 -12.5q-19 0 -36.5 5t-31.5 14.5t-22.5 23t-8.5 30.5q0 23 14 35.5t35 12.5q22 0 34.5 -13t12.5 -30q0 -8 -1.5 -17t-1.5 -15q0 -16 22 -16q6 0 14.5 3
t18.5 16.5t21 42.5t22 80l120 577h-89v25zM485 667q0 27 19.5 46.5t46.5 19.5t46.5 -19.5t19.5 -46.5t-19.5 -46.5t-46.5 -19.5t-46.5 19.5t-19.5 46.5z" />
  </g>

</svg>
