<?xml version="1.0" standalone="no"?>
<!DOCTYPE svg PUBLIC "-//W3C//DTD SVG 1.1//EN" "http://www.w3.org/Graphics/SVG/1.1/DTD/svg11.dtd" >
<svg xmlns="http://www.w3.org/2000/svg" xmlns:xlink="http://www.w3.org/1999/xlink" version="1.1" viewBox="-10 0 799 1000">
  <g transform="matrix(1 0 0 -1 0 800)">
   <path fill="currentColor"
d="M761 296q0 -42 -14 -75.5t-37.5 -56.5t-54 -35t-63.5 -12q-20 0 -41 5t-43 18t-45 35t-48 56q-19 -24 -39 -44.5t-42.5 -36t-48 -24.5t-54.5 -9q-34 0 -64 12.5t-52.5 35t-35.5 55t-13 71.5t13 72t36 56t54.5 36t67.5 13q57 0 100 -30t82 -81q13 16 30 35.5t39 36.5
t49.5 28t62.5 11q34 0 63.5 -12t51 -34.5t34 -54.5t12.5 -71zM238 172q18 0 34.5 5.5t35 18.5t39 35.5t46.5 55.5q-16 25 -32.5 48t-35 40.5t-40.5 28t-50 10.5q-27 0 -48 -10t-35.5 -27t-21.5 -39t-7 -45q0 -26 9 -48.5t24.5 -38.5t36.5 -25t45 -9zM592 414
q-42 0 -77.5 -30t-77.5 -90q47 -63 82 -92.5t77 -29.5q28 0 48 11t33 29t19.5 39.5t6.5 42.5q0 24 -8 45.5t-22 38t-35 26.5t-46 10z" />
  </g>

</svg>
