<?xml version="1.0" standalone="no"?>
<!DOCTYPE svg PUBLIC "-//W3C//DTD SVG 1.1//EN" "http://www.w3.org/Graphics/SVG/1.1/DTD/svg11.dtd" >
<svg xmlns="http://www.w3.org/2000/svg" xmlns:xlink="http://www.w3.org/1999/xlink" version="1.1" viewBox="-44 0 368 1000">
  <g transform="matrix(1 0 0 -1 0 800)">
   <path fill="currentColor"
d="M107 754h207l-162 -657q-3 -13 -4 -21t-1 -13q0 -25 22 -25q26 0 54.5 29t64.5 99l20 -9q-15 -32 -33.5 -62.5t-42 -54.5t-51.5 -38.5t-61 -14.5q-37 0 -57 19t-20 50q0 8 1 16t3 15l154 642h-94v25zM-34 -287q70 30 97 56t27 45q0 9 -4 13t-7 4q-4 0 -7.5 -4t-9 -9
t-13 -9t-19.5 -4q-21 0 -33.5 13.5t-12.5 36.5q0 31 21 47.5t47 16.5q34 0 54 -25t20 -58q0 -42 -35.5 -80.5t-111.5 -65.5z" />
  </g>

</svg>
