<?xml version="1.0" standalone="no"?>
<!DOCTYPE svg PUBLIC "-//W3C//DTD SVG 1.1//EN" "http://www.w3.org/Graphics/SVG/1.1/DTD/svg11.dtd" >
<svg xmlns="http://www.w3.org/2000/svg" xmlns:xlink="http://www.w3.org/1999/xlink" version="1.1" viewBox="-10 0 537 1000">
  <g transform="matrix(1 0 0 -1 0 800)">
   <path fill="currentColor"
d="M213 12q41 0 72.5 29t53 73.5t32.5 98.5t11 104q0 54 -15.5 87t-58.5 33q-40 0 -71 -29.5t-52.5 -75t-32.5 -100.5t-11 -105q0 -57 16 -86t56 -29zM211 -13q-41 0 -75 14.5t-58 40t-37 59.5t-13 73q0 53 23.5 105t63 92.5t91 65.5t107.5 25q41 0 74.5 -14t57.5 -38
t37.5 -57.5t13.5 -72.5q0 -53 -23.5 -105.5t-63.5 -94t-91.5 -67.5t-106.5 -26zM479 576q1 4 1 12q0 35 -31.5 51t-76.5 16q-103 0 -138 -79h-34q10 31 25.5 59.5t38 50.5t53 34.5t70.5 12.5q63 0 96.5 -32t33.5 -87q0 -8 -1 -18t-3 -20h-34z" />
  </g>

</svg>
