<?xml version="1.0" standalone="no"?>
<!DOCTYPE svg PUBLIC "-//W3C//DTD SVG 1.1//EN" "http://www.w3.org/Graphics/SVG/1.1/DTD/svg11.dtd" >
<svg xmlns="http://www.w3.org/2000/svg" xmlns:xlink="http://www.w3.org/1999/xlink" version="1.1" viewBox="-10 0 515 1000">
  <g transform="matrix(1 0 0 -1 0 800)">
   <path fill="currentColor"
d="M89 53q0 27 19.5 46.5t46.5 19.5t46.5 -19.5t19.5 -46.5t-19.5 -46.5t-46.5 -19.5t-46.5 19.5t-19.5 46.5zM177 224q-3 25 -3 47q0 58 20 96.5t49.5 65t64 46t64 39t49.5 43t20 59.5q0 23 -8.5 44t-25 37.5t-40.5 26.5t-55 10q-22 0 -42.5 -5t-36.5 -13.5t-26 -19
t-10 -22.5q0 -11 8.5 -16t18.5 -9.5t18.5 -13t8.5 -27.5q0 -27 -16.5 -41.5t-36.5 -14.5q-23 0 -42 18t-19 52q0 25 12 49.5t35 44t55.5 31.5t74.5 12q40 0 73 -12t57 -35t37.5 -56.5t13.5 -76.5q0 -57 -22 -95t-55 -64.5t-72 -45.5t-72 -40t-55 -47.5t-22 -66.5h-20z" />
  </g>

</svg>
