<?xml version="1.0" standalone="no"?>
<!DOCTYPE svg PUBLIC "-//W3C//DTD SVG 1.1//EN" "http://www.w3.org/Graphics/SVG/1.1/DTD/svg11.dtd" >
<svg xmlns="http://www.w3.org/2000/svg" xmlns:xlink="http://www.w3.org/1999/xlink" version="1.1" viewBox="-20 0 395 1000">
  <g transform="matrix(1 0 0 -1 0 800)">
   <path fill="currentColor"
d="M235 454q57 0 87 -22.5t30 -56.5q0 -23 -13 -37t-33 -14q-15 0 -24 8t-9 22q0 15 8 23.5t8 20.5q0 14 -16 21.5t-43 7.5q-38 0 -62.5 -15t-24.5 -45q0 -23 13.5 -38.5t34.5 -29t44.5 -26.5t44.5 -30.5t34.5 -41t13.5 -57.5q0 -33 -14 -61t-39 -48.5t-58 -33t-70 -13.5
l-30 -54h19q39 0 60.5 -17.5t21.5 -46.5q0 -25 -15 -43t-37.5 -30t-49.5 -17.5t-52 -5.5q-29 0 -47.5 6t-26.5 11l17 25q6 -5 22 -8t31 -3q29 0 51.5 14t22.5 43q0 22 -15 34.5t-48 13.5l45 78q-58 5 -89 32t-31 63q0 25 13.5 38.5t35.5 13.5q18 0 27.5 -9t9.5 -24
q0 -18 -9 -30t-9 -24q0 -13 17.5 -22t55.5 -9q61 0 90.5 23t29.5 55q0 24 -14 40.5t-34.5 30t-45 27t-45 30t-34.5 39t-14 55.5q0 27 11 52t32 44t52 30t70 11z" />
  </g>

</svg>
