<?xml version="1.0" standalone="no"?>
<!DOCTYPE svg PUBLIC "-//W3C//DTD SVG 1.1//EN" "http://www.w3.org/Graphics/SVG/1.1/DTD/svg11.dtd" >
<svg xmlns="http://www.w3.org/2000/svg" xmlns:xlink="http://www.w3.org/1999/xlink" version="1.1" viewBox="-24 0 1319 1000">
  <g transform="matrix(1 0 0 -1 0 800)">
   <path fill="currentColor"
d="M745 438q0 -93 -32 -173.5t-90 -139t-137.5 -92t-173.5 -33.5h-326v27h92l152 702h-93v25h279q78 0 139 -22t103 -62.5t64.5 -99.5t22.5 -132zM347 729l-156 -702h109q69 0 127.5 35t100.5 97.5t65.5 149t23.5 189.5q0 63 -12 107t-37 71.5t-63 40t-89 12.5h-69zM829 294
l74 156h15q42 -13 71 -20.5t54 -11.5t52 -5t65 -1q10 0 12.5 7t4 15.5t5.5 15.5t17 7q18 0 18 -16q0 -5 -7.5 -16.5t-38.5 -42.5l-274 -262v-4q32 0 64 -7t60.5 -16t52 -16t40.5 -7q20 0 28.5 9.5t8.5 19.5t-8.5 13t-19 5.5t-19 8.5t-8.5 22q0 19 11 28t25 9q21 0 32 -19.5
t11 -45.5q0 -28 -11.5 -52t-31.5 -42t-46.5 -28.5t-55.5 -10.5t-57.5 9.5t-53 20.5t-45 20.5t-33.5 9.5t-15.5 -8.5t-3 -19t-3.5 -19t-17 -8.5q-21 0 -21 23q0 15 14 36.5t55 60.5l253 242l-2 3q-77 -18 -130 -18q-23 0 -44.5 3t-44.5 12l-36 -67zM1285 754l-174 -200h-62
l-88 200h43l96 -106l142 106h43z" />
  </g>

</svg>
