<?xml version="1.0" standalone="no"?>
<!DOCTYPE svg PUBLIC "-//W3C//DTD SVG 1.1//EN" "http://www.w3.org/Graphics/SVG/1.1/DTD/svg11.dtd" >
<svg xmlns="http://www.w3.org/2000/svg" xmlns:xlink="http://www.w3.org/1999/xlink" version="1.1" viewBox="-10 0 584 1000">
  <g transform="matrix(1 0 0 -1 0 800)">
   <path fill="currentColor"
d="M412 450h102l-75 -303q-15 -62 -15 -87q0 -30 20 -30q21 0 46.5 31t53.5 90l20 -9q-31 -73 -67 -113.5t-85 -40.5q-15 0 -29.5 4.5t-26 15t-18.5 29t-7 45.5v14h-4q-16 -21 -35 -40.5t-41 -34.5t-47.5 -24t-53.5 -9q-38 0 -66 19t-28 63q0 18 6 44l76 311h-73v25h183
l-86 -359q-2 -8 -3 -14t-1 -12q0 -17 10.5 -25t26.5 -8q23 0 47 14.5t46 39t39.5 58t28.5 72.5zM561 731q-20 -66 -55.5 -96.5t-77.5 -30.5q-23 0 -39.5 7.5t-30.5 16.5t-28 16.5t-32 7.5q-25 0 -44 -14t-29 -35h-32q15 54 51 89.5t81 35.5q21 0 37 -7.5t30.5 -16.5
t28.5 -16.5t32 -7.5q27 0 45.5 17t28.5 34h34z" />
  </g>

</svg>
