<?xml version="1.0" standalone="no"?>
<!DOCTYPE svg PUBLIC "-//W3C//DTD SVG 1.1//EN" "http://www.w3.org/Graphics/SVG/1.1/DTD/svg11.dtd" >
<svg xmlns="http://www.w3.org/2000/svg" xmlns:xlink="http://www.w3.org/1999/xlink" version="1.1" viewBox="-10 0 703 1000">
  <g transform="matrix(1 0 0 -1 0 800)">
   <path fill="currentColor"
d="M561 0l-35.1104 170h-313l-83.8896 -170h-89l348.38 700h121l143.62 -700h-92zM432.85 618l-187.55 -381h266zM473.43 921c78 0 107.92 -29 98.2197 -98s-47.9199 -99 -125.92 -99s-106.78 30 -97.0801 99s46.7803 98 124.78 98zM451.649 766c48 0 67.1104 15 73.0107 57
c5.75977 41 -9.99023 57 -56.9902 57s-67.25 -16 -73.0098 -57c-5.90039 -42 9.98926 -57 56.9893 -57z" />
  </g>

</svg>
