<?xml version="1.0" standalone="no"?>
<!DOCTYPE svg PUBLIC "-//W3C//DTD SVG 1.1//EN" "http://www.w3.org/Graphics/SVG/1.1/DTD/svg11.dtd" >
<svg xmlns="http://www.w3.org/2000/svg" xmlns:xlink="http://www.w3.org/1999/xlink" version="1.1" viewBox="-10 0 689 1000">
  <g transform="matrix(1 0 0 -1 0 800)">
   <path fill="currentColor"
d="M658.4 629h-381.998l-32.04 -228h342l-9.98047 -71h-342l-36.4004 -259h382l-9.98047 -71h-470l98.3799 700h470zM361.462 850c39 0 54.749 -16 49.6895 -52c-4.91992 -35 -25.1699 -51 -64.1699 -51s-53.75 16 -48.8301 51c5.2002 37 24.3105 52 63.3105 52z
M546.461 850c39 0 54.749 -16 49.6895 -52c-4.91992 -35 -24.1699 -51 -64.1699 -51c-39 0 -53.75 16 -48.8301 51c5.2002 37 24.3105 52 63.3105 52z" />
  </g>

</svg>
