<?xml version="1.0" standalone="no"?>
<!DOCTYPE svg PUBLIC "-//W3C//DTD SVG 1.1//EN" "http://www.w3.org/Graphics/SVG/1.1/DTD/svg11.dtd" >
<svg xmlns="http://www.w3.org/2000/svg" xmlns:xlink="http://www.w3.org/1999/xlink" version="1.1" viewBox="-10 0 772 1000">
  <g transform="matrix(1 0 0 -1 0 800)">
   <path fill="currentColor"
d="M667.38 700h84l-98.3799 -700h-106l-281.35 581l-81.6504 -581h-84l98.3799 700h105l282.35 -581zM325.81 760c9.83984 70 51.6201 104 99.6201 104c77 0 90.4404 -68 142.44 -68c23 0 41.3896 17 46.5898 54h39c-9.83984 -70 -52.6201 -104 -99.6201 -104
c-78 0 -90.4404 68 -143.44 68c-22 0 -40.3896 -17 -45.5898 -54h-39z" />
  </g>

</svg>
