<?xml version="1.0" standalone="no"?>
<!DOCTYPE svg PUBLIC "-//W3C//DTD SVG 1.1//EN" "http://www.w3.org/Graphics/SVG/1.1/DTD/svg11.dtd" >
<svg xmlns="http://www.w3.org/2000/svg" xmlns:xlink="http://www.w3.org/1999/xlink" version="1.1" viewBox="-10 0 754 1000">
  <g transform="matrix(1 0 0 -1 0 800)">
   <path fill="currentColor"
d="M125.69 254l62.6797 446h88l-62.6797 -446c-19.6797 -140 26.1699 -198 157.17 -198c130 0 192.15 58 211.83 198l62.6797 446h88l-62.6797 -446c-26.9805 -192 -120.5 -274 -310.5 -274c-191 0 -261.48 82 -234.5 274zM642.261 870
c-11.8096 -84 -63.8691 -120 -173.869 -120c-111 0 -152.94 36 -141.131 120h62c-7.30957 -52 18.6006 -74 85.6006 -74s99.0898 22 106.399 74h61z" />
  </g>

</svg>
