<?xml version="1.0" standalone="no"?>
<!DOCTYPE svg PUBLIC "-//W3C//DTD SVG 1.1//EN" "http://www.w3.org/Graphics/SVG/1.1/DTD/svg11.dtd" >
<svg xmlns="http://www.w3.org/2000/svg" xmlns:xlink="http://www.w3.org/1999/xlink" version="1.1" viewBox="-10 0 605 1000">
  <g transform="matrix(1 0 0 -1 0 800)">
   <path fill="currentColor"
d="M262.6 -10h-0.0117188c-150 0 -203.04 78 -177.46 260s100.54 260 250.54 260c82 0 134.63 -24 161.32 -76l22.2803 66h65l-70.2695 -500h-65l-3.71973 66c-41.3096 -52 -100.68 -76 -182.68 -76zM291.008 57c106 0 160.15 58 179.12 193s-18.8799 193 -124.88 193
c-107 0 -161.15 -58 -180.12 -193s18.8799 -193 125.88 -193zM406.857 739c77 0 106.78 -30 97.0801 -99s-47.9199 -99 -125.92 -99c-77 0 -106.78 30 -97.0801 99s47.9199 99 125.92 99zM384.938 583c47 0 66.25 16 72.0098 57s-8.99023 57 -55.9902 57
c-48 0 -67.25 -16 -73.0098 -57s8.99023 -57 56.9902 -57z" />
  </g>

</svg>
