<?xml version="1.0" standalone="no"?>
<!DOCTYPE svg PUBLIC "-//W3C//DTD SVG 1.1//EN" "http://www.w3.org/Graphics/SVG/1.1/DTD/svg11.dtd" >
<svg xmlns="http://www.w3.org/2000/svg" xmlns:xlink="http://www.w3.org/1999/xlink" version="1.1" viewBox="-10 0 856 1000">
  <g transform="matrix(1 0 0 -1 0 800)">
   <path fill="currentColor"
d="M673.65 460h0.00976562l-37.9502 -270c-11.3799 -81 -0.299805 -116 36.7002 -116c43 0 69.4502 53 86.7402 176c33.1699 236 -38.0605 334 -243.061 334c-221 0 -325.77 -98 -358.939 -334c-31.9004 -227 35.4697 -324 228.47 -324c77 0 129.37 24 167.74 48
l-9.13965 -65c-31.6699 -19 -87.9004 -42 -165.9 -42c-236 0 -320.84 115 -283.18 383c38.79 276 167.23 393 429.23 393c246 0 335.42 -118 296.77 -393c-22.6299 -161 -72.3301 -230 -156.33 -230c-58 0 -89.3496 26 -96.3398 83c-34.04 -43 -83.8496 -63 -152.85 -63
c-129 0 -175.15 63 -154.49 210c21.6396 154 85.9199 220 214.92 220c62 0 106.91 -22 130.59 -67l18.0098 57h49zM434.221 94c87.9902 0 130.45 46 145.91 156c16.0195 114 -13.3701 161 -101.37 161c-92 0 -135.46 -46 -151.62 -161
c-15.5996 -111 15.0801 -156 107.07 -156h0.00976562z" />
  </g>

</svg>
