<?xml version="1.0" standalone="no"?>
<!DOCTYPE svg PUBLIC "-//W3C//DTD SVG 1.1//EN" "http://www.w3.org/Graphics/SVG/1.1/DTD/svg11.dtd" >
<svg xmlns="http://www.w3.org/2000/svg" xmlns:xlink="http://www.w3.org/1999/xlink" version="1.1" viewBox="-10 0 581 1000">
  <g transform="matrix(1 0 0 -1 0 800)">
   <path fill="currentColor"
d="M260.73 -9h0.0117188l0.139648 1c-146.74 9 -199.641 88 -175.751 258c25.5801 182 109.54 260 279.54 260c138 0 197.27 -55 196.279 -183h-80c-4.62012 81 -42.7002 116 -125.7 116c-114 0 -171.15 -58 -190.12 -193s21.8799 -193 135.88 -193
c83 0 129.92 35 158.3 116h80c-33.29 -123 -103.16 -179 -230.72 -183l-18.7598 -41s101.17 -13 90.4902 -89c-9.83984 -70 -83.46 -110 -212.46 -110l5.75977 41c90 0 139.09 22 145.7 69c6.04004 43 -60.5498 53 -94.5498 53z" />
  </g>

</svg>
