<?xml version="1.0" standalone="no"?>
<!DOCTYPE svg PUBLIC "-//W3C//DTD SVG 1.1//EN" "http://www.w3.org/Graphics/SVG/1.1/DTD/svg11.dtd" >
<svg xmlns="http://www.w3.org/2000/svg" xmlns:xlink="http://www.w3.org/1999/xlink" version="1.1" viewBox="-10 0 714 1000">
  <g transform="matrix(1 0 0 -1 0 800)">
   <path fill="currentColor"
d="M693.54 630l-6.31934 -45h-89l-82.0801 -584h-65l-2.44043 68c-41.5898 -54 -102.1 -79 -186.1 -79c-150 0 -203.04 78 -177.46 260s100.54 260 250.54 260c81 0 133.77 -23 160.739 -73l20.6602 147h-204l6.45996 46h204l9.83984 70h80l-9.83984 -70h90zM291.011 57
c106 0 160.15 58 179.12 193s-18.8799 193 -124.88 193c-107 0 -161.15 -58 -180.12 -193s18.8799 -193 125.88 -193z" />
  </g>

</svg>
