<?xml version="1.0" standalone="no"?>
<!DOCTYPE svg PUBLIC "-//W3C//DTD SVG 1.1//EN" "http://www.w3.org/Graphics/SVG/1.1/DTD/svg11.dtd" >
<svg xmlns="http://www.w3.org/2000/svg" xmlns:xlink="http://www.w3.org/1999/xlink" version="1.1" viewBox="-10 0 575 1000">
  <g transform="matrix(1 0 0 -1 0 800)">
   <path fill="currentColor"
d="M159.96 206c-6.17969 -108 30.9297 -157 129.93 -157c77 0 118.79 27 150.05 100h76c-39.5996 -111 -110.35 -159 -236.35 -159c-161 0 -220.04 78 -194.46 260s105.54 260 266.54 260c165 0 223.62 -81 196.92 -271l-4.63965 -33h-383.99zM346.389 451
c-106 0 -161.87 -56 -180.84 -191h306c19.25 137 -18.1602 191 -125.16 191zM537.379 700c-14.7598 -105 -68.0811 -150 -178.081 -150c-111 0 -151.68 45 -136.92 150h58c-9.83984 -70 15.9404 -100 85.9404 -100c71 0 103.08 29 113.061 100h58z" />
  </g>

</svg>
