<?xml version="1.0" standalone="no"?>
<!DOCTYPE svg PUBLIC "-//W3C//DTD SVG 1.1//EN" "http://www.w3.org/Graphics/SVG/1.1/DTD/svg11.dtd" >
<svg xmlns="http://www.w3.org/2000/svg" xmlns:xlink="http://www.w3.org/1999/xlink" version="1.1" viewBox="-10 0 638 1000">
  <g transform="matrix(1 0 0 -1 0 800)">
   <path fill="currentColor"
d="M420.71 720l0.0195312 -0.000976562c151.61 -0.129883 208.45 -57.1494 189.78 -189.999c-11.0996 -79 -69.5801 -118 -169.41 -131c124.89 -15 171.739 -73 154.589 -195c-20.0996 -143 -85.6699 -204 -217.67 -204c-37 0 -67.1602 6 -100.19 20l8.84961 63
s46.75 -16 82.75 -16c89 0 133.04 43 146.95 142c14.9004 106 -36.7793 151 -170.779 151l9.7002 69c120 0 170.22 30 181.46 110c10.54 75 -22.9795 114 -120.979 114c-108 0 -160.89 -49 -176.77 -162l-69.0098 -491h-80l70.2695 500
c20.7803 147.85 104.75 219.85 260.44 220z" />
  </g>

</svg>
