<?xml version="1.0" standalone="no"?>
<!DOCTYPE svg PUBLIC "-//W3C//DTD SVG 1.1//EN" "http://www.w3.org/Graphics/SVG/1.1/DTD/svg11.dtd" >
<svg xmlns="http://www.w3.org/2000/svg" xmlns:xlink="http://www.w3.org/1999/xlink" version="1.1" viewBox="-10 0 806 1000">
  <g transform="matrix(1 0 0 -1 0 800)">
   <path fill="currentColor"
d="M398 720c251 0 358 -111 358 -370s-107 -370 -358 -370s-358 111 -358 370s107 370 358 370zM398 595c-130 0 -185 -73 -185 -245s55 -245 185 -245s186 73 186 245s-56 245 -186 245zM238 750l87 150h141l-119 -150h-109zM446 750l87 150h141l-118 -150h-110z" />
  </g>

</svg>
