<?xml version="1.0" standalone="no"?>
<!DOCTYPE svg PUBLIC "-//W3C//DTD SVG 1.1//EN" "http://www.w3.org/Graphics/SVG/1.1/DTD/svg11.dtd" >
<svg xmlns="http://www.w3.org/2000/svg" xmlns:xlink="http://www.w3.org/1999/xlink" version="1.1" viewBox="-10 0 746 1000">
  <g transform="matrix(1 0 0 -1 0 800)">
   <path fill="currentColor"
d="M70 258v442h165v-442c0 -108 39 -153 133 -153s134 45 134 153v442h164v-442c0 -195 -89 -278 -298 -278s-298 83 -298 278zM250 874c60 0 86 -21 86 -70s-26 -70 -86 -70c-61 0 -86 21 -86 70s25 70 86 70zM486 874c60 0 87 -21 87 -70s-26 -70 -87 -70
c-60 0 -86 21 -86 70s26 70 86 70z" />
  </g>

</svg>
