<?xml version="1.0" standalone="no"?>
<!DOCTYPE svg PUBLIC "-//W3C//DTD SVG 1.1//EN" "http://www.w3.org/Graphics/SVG/1.1/DTD/svg11.dtd" >
<svg xmlns="http://www.w3.org/2000/svg" xmlns:xlink="http://www.w3.org/1999/xlink" version="1.1" viewBox="-10 0 674 1000">
  <g transform="matrix(1 0 0 -1 0 800)">
   <path fill="currentColor"
d="M414 268v-268h-156v268l-248 432h181l145 -279l145 279h173zM220 874c60 0 86 -21 86 -70s-26 -70 -86 -70s-86 21 -86 70s25 70 86 70zM456 874c61 0 87 -21 87 -70s-26 -70 -87 -70c-60 0 -86 21 -86 70s26 70 86 70z" />
  </g>

</svg>
