<?xml version="1.0" standalone="no"?>
<!DOCTYPE svg PUBLIC "-//W3C//DTD SVG 1.1//EN" "http://www.w3.org/Graphics/SVG/1.1/DTD/svg11.dtd" >
<svg xmlns="http://www.w3.org/2000/svg" xmlns:xlink="http://www.w3.org/1999/xlink" version="1.1" viewBox="-10 0 566 1000">
  <g transform="matrix(1 0 0 -1 0 800)">
   <path fill="currentColor"
d="M373 42c-32 -36 -83 -52 -155 -52c-132 0 -188 47 -188 158c0 119 72 170 242 170h86v22c0 60 -25 86 -84 86s-84 -23 -83 -76h-141c0 112 68 160 228 160c159 0 228 -56 228 -186v-324h-116zM358 234h-65c-58 0 -115 -6 -115 -78c0 -49 24 -66 80 -66
c81 0 100 48 100 119v25zM112 578c0 70 46 126 102 126c86 0 101 -77 136 -78c14 0 26 15 26 42h68c0 -70 -46 -126 -102 -126c-86 0 -100 78 -136 78c-14 0 -26 -15 -26 -42h-68z" />
  </g>

</svg>
