<?xml version="1.0" standalone="no"?>
<!DOCTYPE svg PUBLIC "-//W3C//DTD SVG 1.1//EN" "http://www.w3.org/Graphics/SVG/1.1/DTD/svg11.dtd" >
<svg xmlns="http://www.w3.org/2000/svg" xmlns:xlink="http://www.w3.org/1999/xlink" version="1.1" viewBox="-10 0 565 1000">
  <g transform="matrix(1 0 0 -1 0 800)">
   <path fill="currentColor"
d="M210 0h-148v500h148v-500zM283 -72c39 0 61 24 61 60v512h149v-528c0 -94 -56 -152 -154 -152h-135v108h79zM136 722c60 0 86 -24 86 -78c0 -55 -26 -78 -86 -78s-86 23 -86 78s26 78 86 78zM419 722c60 0 86 -24 86 -78c0 -55 -26 -78 -87 -78c-60 0 -86 23 -86 78
s26 78 87 78z" />
  </g>

</svg>
