<?xml version="1.0" standalone="no"?>
<!DOCTYPE svg PUBLIC "-//W3C//DTD SVG 1.1//EN" "http://www.w3.org/Graphics/SVG/1.1/DTD/svg11.dtd" >
<svg xmlns="http://www.w3.org/2000/svg" xmlns:xlink="http://www.w3.org/1999/xlink" version="1.1" viewBox="-10 0 644 1000">
  <g transform="matrix(1 0 0 -1 0 800)">
   <path fill="currentColor"
d="M594 360c0 -266 -85 -380 -282 -380c-149 0 -224 60 -252 200h140c17 -71 50 -100 112 -100c95 0 134 66 134 224c0 0 -16 -84 -177 -84c-152 0 -229 75 -229 250s81 250 272 250c204 0 282 -109 282 -360zM312 328c86 0 123 43 123 142s-37 142 -123 142
c-87 0 -124 -42 -124 -142c0 -99 37 -142 124 -142z" />
  </g>

</svg>
