<?xml version="1.0" standalone="no"?>
<!DOCTYPE svg PUBLIC "-//W3C//DTD SVG 1.1//EN" "http://www.w3.org/Graphics/SVG/1.1/DTD/svg11.dtd" >
<svg xmlns="http://www.w3.org/2000/svg" xmlns:xlink="http://www.w3.org/1999/xlink" version="1.1" viewBox="-10 0 417 1000">
  <g transform="matrix(1 0 0 -1 0 800)">
   <path fill="currentColor"
d="M315 385h-1c-75 0 -107 -40 -107 -134v-250h-148v500h116l20 -47c32 39 68 56 120 56h72v-125h-72zM132 -41c56 0 62 -40 62 -84c0 -79 -35 -112 -114 -112v52c32 0 46 13 46 44c-39 0 -56 13 -56 45c0 41 22 55 62 55z" />
  </g>

</svg>
