<?xml version="1.0" standalone="no"?>
<!DOCTYPE svg PUBLIC "-//W3C//DTD SVG 1.1//EN" "http://www.w3.org/Graphics/SVG/1.1/DTD/svg11.dtd" >
<svg xmlns="http://www.w3.org/2000/svg" xmlns:xlink="http://www.w3.org/1999/xlink" version="1.1" viewBox="-10 0 467 1000">
  <g transform="matrix(1 0 0 -1 0 800)">
   <path fill="currentColor"
d="M269 168c0 -36 22 -60 61 -60h82v-108h-138c-98 0 -154 58 -154 152v256h-80v92h80v126h149v-126h143v-92h-143v-240zM365 722c54 0 62 -41 62 -84c0 -80 -35 -114 -114 -114v52c32 0 45 13 45 46c-38 0 -55 13 -55 45c0 42 22 55 62 55z" />
  </g>

</svg>
