<?xml version="1.0" standalone="no"?>
<!DOCTYPE svg PUBLIC "-//W3C//DTD SVG 1.1//EN" "http://www.w3.org/Graphics/SVG/1.1/DTD/svg11.dtd" >
<svg xmlns="http://www.w3.org/2000/svg" xmlns:xlink="http://www.w3.org/1999/xlink" version="1.1" viewBox="-10 0 927 1000">
  <g transform="matrix(1 0 0 -1 0 750)">
   <path fill="currentColor"
d="M222 236l-71 -161l81 -33l-7 -42h-213l-7 42l86 33l282 625h491v-150l-42 -8l-42 116h-216v-265h122l31 84l42 -7v-197l-42 -7l-31 84h-122v-308h221l55 150l42 -7v-185h-502l-7 42l85 33v161h-236zM240 278h217v357l-45 23zM506 768l109 160l95 -10l-184 -160z" />
  </g>

</svg>
