<?xml version="1.0" standalone="no"?>
<!DOCTYPE svg PUBLIC "-//W3C//DTD SVG 1.1//EN" "http://www.w3.org/Graphics/SVG/1.1/DTD/svg11.dtd" >
<svg xmlns="http://www.w3.org/2000/svg" xmlns:xlink="http://www.w3.org/1999/xlink" version="1.1" viewBox="-10 0 790 1000">
  <g transform="matrix(1 0 0 -1 0 750)">
   <path fill="currentColor"
d="M574 -11c-100 0 -170 30 -212 84c-65 -63 -112 -84 -181 -84c-84 0 -152 45 -152 132c0 140 155 162 285 162v53c0 71 -41 105 -100 105c-28 0 -51 -5 -69 -12l-31 -80c-28 0 -51 22 -51 49c0 56 70 80 153 80c74 0 131 -25 161 -69c43 45 106 69 179 69
c116 0 203 -38 203 -141c0 -122 -163 -149 -333 -149c14 -91 65 -152 156 -152c53 0 102 19 143 45l23 -33c-43 -39 -107 -59 -174 -59zM422 242v-19c131 1 243 52 243 126c0 63 -44 92 -113 92c-86 0 -130 -85 -130 -199zM314 91v156c-126 0 -179 -43 -179 -116
c0 -72 46 -95 86 -95s72 19 93 55z" />
  </g>

</svg>
