<?xml version="1.0" standalone="no"?>
<!DOCTYPE svg PUBLIC "-//W3C//DTD SVG 1.1//EN" "http://www.w3.org/Graphics/SVG/1.1/DTD/svg11.dtd" >
<svg xmlns="http://www.w3.org/2000/svg" xmlns:xlink="http://www.w3.org/1999/xlink" version="1.1" viewBox="-10 0 404 1000">
  <g transform="matrix(1 0 0 -1 0 750)">
   <path fill="currentColor"
d="M178 36c63 0 97 42 97 101c0 58 -42 102 -103 102h-30v36h19c45 0 90 40 90 92c0 49 -34 74 -75 74c-28 0 -41 -5 -59 -12l-31 -82c-28 0 -51 23 -51 50c0 56 72 81 146 81c101 0 164 -48 164 -109c0 -58 -33 -92 -84 -105v-6c59 -8 108 -61 108 -131
c0 -67 -56 -138 -178 -138c-65 0 -118 20 -161 59l23 33c41 -26 81 -45 125 -45z" />
  </g>

</svg>
