<?xml version="1.0" standalone="no"?>
<!DOCTYPE svg PUBLIC "-//W3C//DTD SVG 1.1//EN" "http://www.w3.org/Graphics/SVG/1.1/DTD/svg11.dtd" >
<svg xmlns="http://www.w3.org/2000/svg" xmlns:xlink="http://www.w3.org/1999/xlink" version="1.1" viewBox="-10 0 690 1000">
  <g transform="matrix(1 0 0 -1 0 750)">
   <path fill="currentColor"
d="M426 -17c-260 0 -366 183 -366 367c0 185 122 368 366 368c76 0 220 -15 220 -114c0 -49 -40 -79 -89 -79l-31 131c-34 7 -70 12 -100 12c-153 0 -241 -91 -248 -285h162l33 84l41 -7v-197l-41 -7l-33 84h-162c3 -149 57 -297 248 -297c36 0 129 8 187 43l33 -44
c-50 -36 -137 -59 -220 -59z" />
  </g>

</svg>
