<?xml version="1.0" standalone="no"?>
<!DOCTYPE svg PUBLIC "-//W3C//DTD SVG 1.1//EN" "http://www.w3.org/Graphics/SVG/1.1/DTD/svg11.dtd" >
<svg xmlns="http://www.w3.org/2000/svg" xmlns:xlink="http://www.w3.org/1999/xlink" version="1.1" viewBox="-10 0 702 1000">
  <g transform="matrix(1 0 0 -1 0 750)">
   <path fill="currentColor"
d="M442 134c0 -95 -66 -145 -173 -145c-114 0 -182 47 -182 169v273h-52v36c23 3 59 11 92 11c55 0 54 -47 54 -47v-280c0 -75 25 -125 88 -125c51 0 76 35 76 115c0 58 -35 99 -88 99c-11 0 -22 -2 -33 -4v34c17 4 35 6 51 6c71 0 167 -29 167 -142zM519 467v-387
c0 -70 49 -91 86 -91c27 0 53 4 67 11v36c-31 0 -59 15 -59 46v385l-35 11z" />
  </g>

</svg>
