<?xml version="1.0" standalone="no"?>
<!DOCTYPE svg PUBLIC "-//W3C//DTD SVG 1.1//EN" "http://www.w3.org/Graphics/SVG/1.1/DTD/svg11.dtd" >
<svg xmlns="http://www.w3.org/2000/svg" xmlns:xlink="http://www.w3.org/1999/xlink" version="1.1" viewBox="-10 0 520 1000">
  <g transform="matrix(1 0 0 -1 0 750)">
   <path fill="currentColor"
d="M268 737c59 0 102 -36 102 -96s-39 -96 -102 -96c-62 0 -102 37 -102 96c0 60 45 96 102 96zM268 709c-32 0 -54 -27 -54 -67c0 -39 21 -69 54 -69c34 0 55 29 55 69c0 41 -22 67 -55 67zM230 -11c-98 0 -199 59 -199 220c0 191 103 269 229 269c30 0 62 -3 87 -16l59 16
l35 -11v-385c0 -31 24 -46 55 -46v-36c-16 -8 -36 -11 -55 -11c-35 0 -74 19 -88 75c-23 -48 -74 -75 -123 -75zM347 195v223c-32 18 -52 23 -82 23c-64 0 -137 -54 -137 -227c0 -139 57 -178 112 -178c50 0 107 45 107 159z" />
  </g>

</svg>
