<?xml version="1.0" standalone="no"?>
<!DOCTYPE svg PUBLIC "-//W3C//DTD SVG 1.1//EN" "http://www.w3.org/Graphics/SVG/1.1/DTD/svg11.dtd" >
<svg xmlns="http://www.w3.org/2000/svg" xmlns:xlink="http://www.w3.org/1999/xlink" version="1.1" viewBox="-10 0 1056 1000">
  <g transform="matrix(1 0 0 -1 0 750)">
   <path fill="currentColor"
d="M392 347l-31 82c-18 7 -33 12 -61 12c-100 0 -155 -70 -155 -188c0 -120 31 -217 156 -217c52 0 91 19 132 45l23 -33c-43 -39 -96 -59 -161 -59c-177 0 -255 96 -255 244c0 155 101 245 257 245c15 0 30 -1 44 -3c-32 32 -49 72 -49 115c0 91 60 157 179 157
c76 0 135 -18 185 -47v-248l-18 -95c23 82 83 121 142 121c110 0 171 -58 171 -164v-232c0 -31 28 -46 59 -46v-36c-14 -7 -40 -11 -67 -11c-37 0 -86 21 -86 91v260c0 73 -41 91 -86 91s-115 -30 -115 -174v-257h-94v678c-28 19 -54 32 -100 32c-62 0 -124 -30 -124 -120
c0 -54 37 -112 80 -144c15 -13 25 -29 25 -49c0 -27 -23 -50 -51 -50z" />
  </g>

</svg>
