<?xml version="1.0" standalone="no"?>
<!DOCTYPE svg PUBLIC "-//W3C//DTD SVG 1.1//EN" "http://www.w3.org/Graphics/SVG/1.1/DTD/svg11.dtd" >
<svg xmlns="http://www.w3.org/2000/svg" xmlns:xlink="http://www.w3.org/1999/xlink" version="1.1" viewBox="-10 0 544 1000">
  <g transform="matrix(1 0 0 -1 0 750)">
   <path fill="currentColor"
d="M469 700v-618c0 -31 24 -46 55 -46v-36c-16 -8 -36 -11 -55 -11c-35 0 -78 19 -92 75c-23 -48 -74 -75 -123 -75c-145 0 -219 74 -219 223c0 148 72 266 209 266c76 0 132 -46 154 -105l-23 105v222h-60v36c23 4 67 11 100 11c55 0 54 -47 54 -47zM268 27
c50 0 107 54 107 168v61c0 129 -72 175 -117 175c-86 0 -119 -101 -119 -221s45 -183 129 -183z" />
  </g>

</svg>
