<?xml version="1.0" standalone="no"?>
<!DOCTYPE svg PUBLIC "-//W3C//DTD SVG 1.1//EN" "http://www.w3.org/Graphics/SVG/1.1/DTD/svg11.dtd" >
<svg xmlns="http://www.w3.org/2000/svg" xmlns:xlink="http://www.w3.org/1999/xlink" version="1.1" viewBox="-82 0 986 1000">
  <g transform="matrix(1 0 0 -1 0 750)">
   <path fill="currentColor"
d="M426 0v678c-28 19 -65 32 -111 32c-81 0 -126 -50 -126 -158v-85h121l-7 -36h-114v-431c0 -147 -101 -250 -213 -250c-26 0 -48 19 -48 45s22 45 48 45l24 -46c84 36 95 133 95 233v404h-68l-7 36l75 24v41c0 113 56 215 224 215c82 0 151 -18 201 -47v-248l-18 -95
c23 82 83 121 142 121c110 0 171 -58 171 -164v-232c0 -31 28 -46 59 -46v-36c-14 -7 -40 -11 -67 -11c-37 0 -86 21 -86 91v260c0 73 -41 91 -86 91s-115 -30 -115 -174v-257h-94z" />
  </g>

</svg>
