<?xml version="1.0" standalone="no"?>
<!DOCTYPE svg PUBLIC "-//W3C//DTD SVG 1.1//EN" "http://www.w3.org/Graphics/SVG/1.1/DTD/svg11.dtd" >
<svg xmlns="http://www.w3.org/2000/svg" xmlns:xlink="http://www.w3.org/1999/xlink" version="1.1" viewBox="-82 0 702 1000">
  <g transform="matrix(1 0 0 -1 0 750)">
   <path fill="currentColor"
d="M427 80v598c-28 19 -60 32 -106 32c-81 0 -132 -50 -132 -158v-85h121l-7 -36h-114v-431c0 -147 -101 -250 -213 -250c-26 0 -48 19 -48 45s22 45 48 45l24 -46c84 36 95 133 95 233v404h-68l-7 36l75 24v41c0 113 72 215 240 215c82 0 136 -18 186 -47v-618
c0 -31 28 -46 59 -46v-36c-14 -7 -40 -11 -67 -11c-37 0 -86 21 -86 91z" />
  </g>

</svg>
