<?xml version="1.0" standalone="no"?>
<!DOCTYPE svg PUBLIC "-//W3C//DTD SVG 1.1//EN" "http://www.w3.org/Graphics/SVG/1.1/DTD/svg11.dtd" >
<svg xmlns="http://www.w3.org/2000/svg" xmlns:xlink="http://www.w3.org/1999/xlink" version="1.1" viewBox="-10 0 388 1000">
  <g transform="matrix(1 0 0 -1 0 750)">
   <path fill="currentColor"
d="M118 91c30 0 54 -25 54 -54c0 -81 -59 -178 -102 -213l-27 18c37 43 59 105 65 158h-30c-9 9 -14 22 -14 37c0 29 24 54 54 54zM274 91c30 0 54 -25 54 -54c0 -81 -59 -178 -102 -213l-27 18c37 43 59 105 65 158h-30c-9 9 -14 22 -14 37c0 29 24 54 54 54z" />
  </g>

</svg>
