<?xml version="1.0" standalone="no"?>
<!DOCTYPE svg PUBLIC "-//W3C//DTD SVG 1.1//EN" "http://www.w3.org/Graphics/SVG/1.1/DTD/svg11.dtd" >
<svg xmlns="http://www.w3.org/2000/svg" xmlns:xlink="http://www.w3.org/1999/xlink" version="1.1" viewBox="-10 0 920 1000">
  <g transform="matrix(1 0 0 -1 0 750)">
   <path fill="currentColor"
d="M218 441c-59 0 -96 -28 -96 -62c0 -53 60 -78 107 -98c71 -30 147 -64 147 -152c0 -85 -66 -140 -182 -140c-101 0 -154 26 -154 83c0 26 22 45 48 45l24 -68c19 -12 53 -22 74 -22c64 0 110 28 110 76c0 49 -70 73 -126 98c-67 31 -127 65 -127 144c0 81 71 133 180 133
c12 0 25 -1 37 -2c-34 29 -54 66 -54 114c0 91 64 157 183 157c76 0 140 -18 190 -47v-269l-19 -80c26 76 101 127 164 127c88 0 118 -43 118 -93c0 -104 -190 -138 -190 -138l70 -19l120 -171c15 -21 58 -21 58 -21v-36s-28 -11 -62 -11c-32 0 -70 9 -96 47l-132 188v36
c31 10 159 56 159 123c0 41 -25 58 -59 58c-43 0 -131 -61 -131 -209v-232h-94v678c-28 19 -59 32 -105 32c-62 0 -127 -30 -127 -120c0 -54 48 -112 91 -144c15 -13 25 -29 25 -49c0 -27 -23 -50 -51 -50l-31 82c-18 7 -41 12 -69 12z" />
  </g>

</svg>
