<?xml version="1.0" standalone="no"?>
<!DOCTYPE svg PUBLIC "-//W3C//DTD SVG 1.1//EN" "http://www.w3.org/Graphics/SVG/1.1/DTD/svg11.dtd" >
<svg xmlns="http://www.w3.org/2000/svg" xmlns:xlink="http://www.w3.org/1999/xlink" version="1.1" viewBox="-10 0 563 1000">
  <g transform="matrix(1 0 0 -1 0 750)">
   <path fill="currentColor"
d="M75 700h-60v36c23 4 67 11 100 11c55 0 54 -47 54 -47v-248l-18 -95c23 82 83 121 142 121c110 0 171 -58 171 -164v-232c0 -31 28 -46 59 -46v-36c-14 -7 -40 -11 -67 -11c-37 0 -86 21 -86 91v260c0 73 -41 91 -86 91s-115 -30 -115 -174v-257h-94v700z" />
  </g>

</svg>
