<?xml version="1.0" standalone="no"?>
<!DOCTYPE svg PUBLIC "-//W3C//DTD SVG 1.1//EN" "http://www.w3.org/Graphics/SVG/1.1/DTD/svg11.dtd" >
<svg xmlns="http://www.w3.org/2000/svg" xmlns:xlink="http://www.w3.org/1999/xlink" version="1.1" viewBox="-10 0 520 1000">
  <g transform="matrix(1 0 0 -1 0 750)">
   <path fill="currentColor"
d="M412 367l-31 55c-57 -25 -121 -131 -136 -168l70 -26l119 -171c15 -21 58 -21 58 -21v-159l-37 -7l-37 120c-29 2 -61 12 -84 46l-131 188v34c20 51 113 220 208 220c31 0 57 -25 57 -56s-25 -55 -56 -55zM171 431v-431h-94v431h-61v36c23 4 68 11 101 11
c55 0 54 -47 54 -47z" />
  </g>

</svg>
