<?xml version="1.0" standalone="no"?>
<!DOCTYPE svg PUBLIC "-//W3C//DTD SVG 1.1//EN" "http://www.w3.org/Graphics/SVG/1.1/DTD/svg11.dtd" >
<svg xmlns="http://www.w3.org/2000/svg" xmlns:xlink="http://www.w3.org/1999/xlink" version="1.1" viewBox="-40 0 702 1000">
  <g transform="matrix(1 0 0 -1 0 800)">
   <path fill="currentColor"
d="M-16 54h66l147 590h-66l14 54h507l-45 -181h-97l31 123h-213l-62 -248h141l18 70h63l-50 -198h-63l18 70h-141l-69 -276h220l35 139h97l-49 -197h-516zM424 757q-37 0 -59.5 15.5t-35 39.5t-18 53.5t-8.5 58.5l35 13l11 -35q10 -30 30 -44t60 -14t66.5 13t50.5 45l26 35
l32 -18q-16 -29 -34 -57.5t-40.5 -52t-50.5 -38t-65 -14.5z" />
  </g>

</svg>
