<?xml version="1.0" standalone="no"?>
<!DOCTYPE svg PUBLIC "-//W3C//DTD SVG 1.1//EN" "http://www.w3.org/Graphics/SVG/1.1/DTD/svg11.dtd" >
<svg xmlns="http://www.w3.org/2000/svg" xmlns:xlink="http://www.w3.org/1999/xlink" version="1.1" viewBox="-10 0 737 1000">
  <g transform="matrix(1 0 0 -1 0 800)">
   <path fill="currentColor"
d="M13 -7l79 89q-42 63 -42 160q0 47 10.5 99.5t32 104.5t54 100t76.5 84.5t98.5 58t121.5 21.5q49 0 88.5 -13t68.5 -37l74 83l43 -38l-78 -89q20 -31 31 -71.5t11 -88.5q0 -47 -10.5 -99.5t-32.5 -104.5t-54.5 -100t-76 -84.5t-98.5 -58t-121 -21.5q-96 0 -158 51l-74 -84
zM538 587q-13 29 -39.5 46t-68.5 17q-36 0 -66.5 -14.5t-54.5 -40t-41.5 -60t-27.5 -75.5q-17 -69 -28.5 -114t-18.5 -75.5t-10 -51t-3 -39.5zM301 48q36 0 66.5 14.5t54.5 40t41.5 60t27.5 75.5q17 70 28.5 115.5t18.5 76t10 50.5t3 39l-359 -407q14 -29 40.5 -46.5
t68.5 -17.5z" />
  </g>

</svg>
