<?xml version="1.0" standalone="no"?>
<!DOCTYPE svg PUBLIC "-//W3C//DTD SVG 1.1//EN" "http://www.w3.org/Graphics/SVG/1.1/DTD/svg11.dtd" >
<svg xmlns="http://www.w3.org/2000/svg" xmlns:xlink="http://www.w3.org/1999/xlink" version="1.1" viewBox="-10 0 593 1000">
  <g transform="matrix(1 0 0 -1 0 800)">
   <path fill="currentColor"
d="M141 -12q-59 0 -84.5 40.5t-25.5 112.5q0 42 8 87.5t24 89t38.5 83t51.5 69t64 47t76 17.5q45 0 74.5 -22.5t40.5 -75.5h10l59 86h62l-114 -453l18 -8l97 115l33 -21l-61 -84q-32 -46 -61 -64.5t-58 -18.5q-22 0 -36.5 6.5t-23 16.5t-12 23t-3.5 26q0 14 3 30t6 27l9 39
l-10 2q-16 -35 -34.5 -66t-41 -54t-49.5 -36.5t-60 -13.5zM194 72q26 0 53.5 28t51.5 69t42.5 86t26.5 80l7 25q11 48 1 77t-48 29q-41 0 -78 -41.5t-62 -131.5q-5 -18 -10 -40t-9 -43.5t-6 -42t-2 -35.5q0 -29 6.5 -44.5t26.5 -15.5zM343 607q26 0 40 14t20 40
q3 11 7.5 29.5t4.5 28.5q0 16 -9.5 27.5t-34.5 11.5q-26 0 -40 -14t-20 -40q-3 -11 -7.5 -29.5t-4.5 -28.5q0 -16 9.5 -27.5t34.5 -11.5zM338 566q-54 0 -83.5 27t-29.5 66q0 27 9.5 52t28.5 44.5t47 31.5t66 12q54 0 83.5 -27t29.5 -66q0 -27 -9.5 -52t-28.5 -44.5
t-47.5 -31.5t-65.5 -12zM359 844l121 125l55 -59l-151 -89z" />
  </g>

</svg>
