<?xml version="1.0" standalone="no"?>
<!DOCTYPE svg PUBLIC "-//W3C//DTD SVG 1.1//EN" "http://www.w3.org/Graphics/SVG/1.1/DTD/svg11.dtd" >
<svg xmlns="http://www.w3.org/2000/svg" xmlns:xlink="http://www.w3.org/1999/xlink" version="1.1" viewBox="-10 0 560 1000">
  <g transform="matrix(1 0 0 -1 0 800)">
   <path fill="currentColor"
d="M373 240q-32 0 -56 9.5t-50 26.5q-22 14 -42.5 23.5t-46.5 9.5q-21 0 -38.5 -7t-40.5 -24l-23 49q23 24 51 39t69 15q32 0 56 -9.5t50 -26.5q22 -14 42.5 -23.5t46.5 -9.5q21 0 38.5 7t40.5 24l23 -49q-23 -24 -51 -39t-69 -15z" />
  </g>

</svg>
