<?xml version="1.0" standalone="no"?>
<!DOCTYPE svg PUBLIC "-//W3C//DTD SVG 1.1//EN" "http://www.w3.org/Graphics/SVG/1.1/DTD/svg11.dtd" >
<svg xmlns="http://www.w3.org/2000/svg" xmlns:xlink="http://www.w3.org/1999/xlink" version="1.1" viewBox="-10 0 848 1000">
  <g transform="matrix(1 0 0 -1 0 800)">
   <path fill="currentColor"
d="M350 -121q-62 0 -115.5 18t-92.5 53.5t-61.5 89t-22.5 124.5q0 63 14 128t40.5 126t66.5 114t91.5 92.5t115 62.5t137.5 23q63 0 115 -16.5t89 -49t57.5 -80.5t20.5 -111q0 -74 -18.5 -143t-50 -122.5t-74.5 -86t-92 -32.5q-51 0 -73 25t-22 67q0 17 6 43l-8 2
q-14 -29 -28 -53.5t-31.5 -43.5t-38 -29.5t-46.5 -10.5q-45 0 -65 32t-20 89q0 51 14.5 107t41 103.5t64.5 78t85 30.5q35 0 58 -17.5t32 -59.5h8l45 68h48l-78 -319q-3 -11 -4 -18.5t-1 -13.5q0 -33 30 -33q39 0 72.5 54.5t56.5 145.5q9 35 15 67.5t6 70.5q0 106 -55 161.5
t-161 55.5q-69 0 -128.5 -27.5t-106.5 -76t-81 -113.5t-53 -140q-2 -7 -6 -23.5t-8.5 -38t-8 -45.5t-3.5 -46q0 -57 17.5 -101t49 -74t74.5 -45.5t94 -15.5h178l-9 -34q-46 -5 -89 -8.5t-91 -3.5zM368 139q22 0 44.5 24t42 57.5t33.5 69t19 59.5l5 22q8 35 1 56t-39 21
q-35 0 -64 -31t-48 -98q-4 -15 -8 -33t-7 -36t-4.5 -34.5t-1.5 -28.5q0 -23 5.5 -35.5t21.5 -12.5z" />
  </g>

</svg>
