<?xml version="1.0" standalone="no"?>
<!DOCTYPE svg PUBLIC "-//W3C//DTD SVG 1.1//EN" "http://www.w3.org/Graphics/SVG/1.1/DTD/svg11.dtd" >
<svg xmlns="http://www.w3.org/2000/svg" xmlns:xlink="http://www.w3.org/1999/xlink" version="1.1" viewBox="-10 0 474 1000">
  <g transform="matrix(1 0 0 -1 0 800)">
   <path fill="currentColor"
d="M261 347q-33 0 -61 12t-48.5 33.5t-32.5 51t-12 65.5q0 43 15 80t41 64t61 42t76 15q33 0 61 -12t48.5 -33.5t32.5 -51t12 -65.5q0 -43 -15 -80t-41 -64t-61 -42t-76 -15zM268 410q26 0 47 11t36 29.5t23 44t8 54.5q0 41 -24 69.5t-66 28.5q-26 0 -46.5 -11t-35.5 -29.5
t-23 -44t-8 -54.5q0 -41 24 -69.5t65 -28.5z" />
  </g>

</svg>
