<?xml version="1.0" standalone="no"?>
<!DOCTYPE svg PUBLIC "-//W3C//DTD SVG 1.1//EN" "http://www.w3.org/Graphics/SVG/1.1/DTD/svg11.dtd" >
<svg xmlns="http://www.w3.org/2000/svg" xmlns:xlink="http://www.w3.org/1999/xlink" version="1.1" viewBox="-10 0 580 1000">
  <g transform="matrix(1 0 0 -1 0 800)">
   <path fill="currentColor"
d="M185 -2q-33 2 -62.5 9.5t-52 22t-35.5 35.5t-13 50q0 17 5.5 33.5t15 29t24 19.5t32.5 7q29 1 43.5 -16t14.5 -41q0 -26 -16 -47t-48 -28l-1 -7q20 -8 45 -12t62 -4l63 254l-10 4q-35 14 -60.5 29.5t-42 36t-25 46t-8.5 59.5q0 44 16.5 83.5t48 69.5t77 48.5t103.5 20.5
l20 80h54l-20 -80q28 -3 54.5 -11t46.5 -22.5t32 -35t12 -48.5q0 -17 -5.5 -33t-15 -28.5t-24 -20t-32.5 -7.5q-29 0 -43.5 17t-14.5 40q0 26 16 47.5t48 27.5l1 8q-20 7 -40 10.5t-49 4.5l-59 -240l15 -5q76 -26 108 -64t32 -100q0 -48 -18 -91t-51 -75.5t-81 -53
t-108 -23.5l-20 -79h-54zM253 52q30 6 55.5 19.5t43.5 33t28 43.5t10 50q0 33 -19.5 53.5t-59.5 36.5zM348 646q-33 -5 -57 -17t-40.5 -29.5t-24.5 -38t-8 -42.5q0 -31 16.5 -54t58.5 -40z" />
  </g>

</svg>
