<?xml version="1.0" standalone="no"?>
<!DOCTYPE svg PUBLIC "-//W3C//DTD SVG 1.1//EN" "http://www.w3.org/Graphics/SVG/1.1/DTD/svg11.dtd" >
<svg xmlns="http://www.w3.org/2000/svg" xmlns:xlink="http://www.w3.org/1999/xlink" version="1.1" viewBox="-10 0 823 1000">
  <g transform="matrix(1 0 0 -1 0 800)">
   <path fill="currentColor"
d="M76 -12q-35 0 -54 19t-19 46q0 11 3 26q8 31 31.5 49.5t57.5 18.5q35 0 54 -19.5t19 -46.5q0 -11 -3 -26q-8 -31 -31.5 -49t-57.5 -18zM349 -12q-35 0 -54 19t-19 46q0 11 3 26q8 31 31.5 49.5t57.5 18.5q35 0 54 -19.5t19 -46.5q0 -11 -3 -26q-8 -31 -31.5 -49
t-57.5 -18zM623 -12q-35 0 -54 19t-19 46q0 11 3 26q8 31 31.5 49.5t57.5 18.5q35 0 54 -19.5t19 -46.5q0 -11 -3 -26q-8 -31 -31.5 -49t-57.5 -18z" />
  </g>

</svg>
