<?xml version="1.0" standalone="no"?>
<!DOCTYPE svg PUBLIC "-//W3C//DTD SVG 1.1//EN" "http://www.w3.org/Graphics/SVG/1.1/DTD/svg11.dtd" >
<svg xmlns="http://www.w3.org/2000/svg" xmlns:xlink="http://www.w3.org/1999/xlink" version="1.1" viewBox="-86 0 647 1000">
  <g transform="matrix(1 0 0 -1 0 800)">
   <path fill="currentColor"
d="M141 -212q-60 0 -101.5 8.5t-67 22.5t-37 33t-11.5 40q0 24 13 42t34 32.5t48.5 25t56.5 18.5l2 9q-52 28 -52 74q0 22 9 40t24 31t34.5 22t40.5 14l2 9q-29 16 -46.5 45t-17.5 71q0 48 19 86.5t52 65.5t77 42t94 15q23 0 44 -5t38 -13q13 48 36.5 75.5t60.5 27.5
q27 0 42.5 -13t15.5 -36q0 -26 -16 -43.5t-39 -17.5q-20 0 -32 10.5t-17 28.5h-6l-18 -49q22 -18 34 -43t12 -59q0 -47 -19 -85.5t-52 -65.5t-77 -42t-93 -15q-13 0 -23.5 2t-21.5 4q-23 -5 -40 -15t-17 -28q0 -16 13.5 -23.5t35.5 -15.5l89 -30q40 -14 68.5 -27t47.5 -28.5
t28 -35t9 -45.5q0 -44 -22.5 -74t-60.5 -49t-88 -27.5t-105 -8.5zM240 234q39 0 60 29t32 72q10 42 15 65t5 34q0 25 -12 39.5t-39 14.5q-39 0 -60 -29t-32 -72q-10 -42 -15 -65t-5 -34q0 -25 12 -39.5t39 -14.5zM155 -174q28 0 54.5 4.5t46.5 14t32 24.5t12 36
q0 27 -17.5 38.5t-50.5 22.5l-113 36q-42 -16 -72.5 -40t-30.5 -59t32 -56t107 -21z" />
  </g>

</svg>
