<?xml version="1.0" standalone="no"?>
<!DOCTYPE svg PUBLIC "-//W3C//DTD SVG 1.1//EN" "http://www.w3.org/Graphics/SVG/1.1/DTD/svg11.dtd" >
<svg xmlns="http://www.w3.org/2000/svg" xmlns:xlink="http://www.w3.org/1999/xlink" version="1.1" viewBox="-186 0 813 1000">
  <g transform="matrix(1 0 0 -1 0 800)">
   <path fill="currentColor"
d="M-67 -212q-55 0 -82 22.5t-27 56.5q0 26 18 46t48 20q26 0 41 -15.5t15 -38.5q0 -17 -10 -30t-25 -21l7 -8q37 0 59.5 22.5t35.5 72.5l137 549h-86l14 58h87l8 32q24 96 89.5 151t176.5 55q93 0 135.5 -40.5t42.5 -106.5q0 -33 -9 -70l-13 -46h-32q-52 0 -83 -23t-31 -69
q0 -33 18.5 -58t44.5 -55q22 -24 40 -53t18 -72t-18 -76t-48 -56t-70 -35t-84 -12q-66 0 -94 20.5t-28 54.5q0 26 17.5 48t49.5 22q26 0 41 -15t15 -40q0 -14 -5.5 -29t-15.5 -23l7 -10q45 6 78 32t33 71q0 18 -5 32.5t-14 28t-21 27.5t-25 29q-22 24 -39 52t-17 70
q0 33 13 59.5t34.5 46t48.5 31.5t56 15l16 66q9 37 9 62q0 36 -19.5 55t-51.5 19q-52 0 -83 -36.5t-50 -111.5l-148 -592q-12 -47 -33 -81.5t-49.5 -57t-63.5 -34t-73 -11.5z" />
  </g>

</svg>
