<?xml version="1.0" standalone="no"?>
<!DOCTYPE svg PUBLIC "-//W3C//DTD SVG 1.1//EN" "http://www.w3.org/Graphics/SVG/1.1/DTD/svg11.dtd" >
<svg xmlns="http://www.w3.org/2000/svg" xmlns:xlink="http://www.w3.org/1999/xlink" version="1.1" viewBox="-10 0 434 1000">
  <g transform="matrix(1 0 0 -1 0 800)">
   <path fill="currentColor"
d="M130 -12q-23 0 -39 6.5t-26 17t-14.5 23.5t-4.5 27q0 12 2.5 27t5.5 26l80 323h-83l13 53l220 43l-115 -465l18 -8l97 115l33 -21l-61 -84q-32 -47 -63 -65t-63 -18zM224 591q-37 0 -59.5 15.5t-35 39.5t-18 53.5t-8.5 58.5l35 13l11 -35q10 -30 30 -44t60 -14t66.5 13
t50.5 45l26 35l32 -18q-16 -29 -34 -57.5t-40.5 -52t-50.5 -38t-65 -14.5z" />
  </g>

</svg>
