<?xml version="1.0" standalone="no"?>
<!DOCTYPE svg PUBLIC "-//W3C//DTD SVG 1.1//EN" "http://www.w3.org/Graphics/SVG/1.1/DTD/svg11.dtd" >
<svg xmlns="http://www.w3.org/2000/svg" xmlns:xlink="http://www.w3.org/1999/xlink" version="1.1" viewBox="-10 0 588 1000">
  <g transform="matrix(1 0 0 -1 0 800)">
   <path fill="currentColor"
d="M390 -12q-30 0 -52.5 12t-36.5 49l-63 168q44 25 75 52t50.5 53.5t28 50.5t8.5 42q0 35 -30 35q-24 0 -51.5 -24.5t-54.5 -67t-51 -100t-41 -123.5l-34 -135h-125l166 664h-83l13 53l220 43l-112 -401l11 -3q20 37 40.5 69.5t44.5 56.5t51.5 38t62.5 14q51 0 73.5 -27.5
t22.5 -68.5q0 -34 -15 -64t-38.5 -54.5t-52.5 -44t-57 -33.5l68 -175h15l93 109l32 -21l-61 -85q-17 -25 -31.5 -41t-28 -25t-27.5 -12.5t-30 -3.5zM97 -270q26 22 48.5 50t33.5 51q-20 5 -31.5 18.5t-11.5 31.5q0 7 3 21q5 24 23.5 37.5t44.5 13.5t41 -14.5t15 -37.5
q0 -12 -3 -24q-9 -36 -38.5 -76t-69.5 -71h-55v0z" />
  </g>

</svg>
