<?xml version="1.0" standalone="no"?>
<!DOCTYPE svg PUBLIC "-//W3C//DTD SVG 1.1//EN" "http://www.w3.org/Graphics/SVG/1.1/DTD/svg11.dtd" >
<svg xmlns="http://www.w3.org/2000/svg" xmlns:xlink="http://www.w3.org/1999/xlink" version="1.1" viewBox="-10 0 792 1000">
  <g transform="matrix(1 0 0 -1 0 800)">
   <path fill="currentColor"
d="M205 -12q-86 0 -129 51.5t-43 139.5q0 58 18.5 121t55 115t90 85.5t122.5 33.5q45 0 83 -21.5t51 -64.5h10q29 41 72 63.5t95 22.5q28 0 54 -6t45.5 -18.5t31 -33t11.5 -48.5q0 -26 -12.5 -53.5t-45 -51.5t-88.5 -41.5t-143 -22.5q-8 -33 -11.5 -63.5t-3.5 -53.5
q0 -42 16 -61.5t48 -19.5q46 0 85 37.5t74 105.5l36 -17q-22 -47 -46.5 -84t-53 -62.5t-62 -39t-74.5 -13.5q-43 0 -75.5 20.5t-43.5 62.5h-10q-32 -43 -73.5 -63t-83.5 -20zM212 40q45 0 73 38t42 96q16 63 26.5 103.5t16.5 66.5t8 40.5t2 24.5q0 31 -14 52t-48 21
q-45 0 -73 -38t-42 -96q-16 -63 -26.5 -103.5t-16.5 -66.5t-8 -40.5t-2 -24.5q0 -31 14 -52t48 -21zM493 297q49 6 82 19t53 30.5t28.5 39.5t8.5 47q0 23 -11 37t-36 14q-22 0 -39 -9.5t-31 -31t-27.5 -57.5t-27.5 -89z" />
  </g>

</svg>
