<?xml version="1.0" standalone="no"?>
<!DOCTYPE svg PUBLIC "-//W3C//DTD SVG 1.1//EN" "http://www.w3.org/Graphics/SVG/1.1/DTD/svg11.dtd" >
<svg xmlns="http://www.w3.org/2000/svg" xmlns:xlink="http://www.w3.org/1999/xlink" version="1.1" viewBox="-10 0 846 1000">
  <g transform="matrix(1 0 0 -1 0 800)">
   <path fill="currentColor"
d="M72 372h85l65 260l-93 -36l-7 35l146 67h61l-81 -326h74l-10 -42h-250zM722 698h74l-643 -698h-75zM455 68l120 100q31 26 53 48.5t30 53.5q2 5 3.5 12.5t1.5 15.5q0 15 -10.5 25.5t-30.5 10.5q-10 0 -20.5 -1.5t-18.5 -4.5l-2 -5q19 -5 19 -25q0 -19 -14.5 -34
t-36.5 -15q-18 0 -28 10.5t-10 26.5q0 19 11 35t29.5 27.5t42 18t49.5 6.5q60 0 87.5 -21.5t27.5 -59.5q0 -29 -13 -52t-32.5 -42t-42.5 -34t-43 -27l-106 -64l-1 -6h144l11 43h52l-28 -110h-261z" />
  </g>

</svg>
