<?xml version="1.0" standalone="no"?>
<!DOCTYPE svg PUBLIC "-//W3C//DTD SVG 1.1//EN" "http://www.w3.org/Graphics/SVG/1.1/DTD/svg11.dtd" >
<svg xmlns="http://www.w3.org/2000/svg" xmlns:xlink="http://www.w3.org/1999/xlink" version="1.1" viewBox="-10 0 597 1000">
  <g transform="matrix(1 0 0 -1 0 800)">
   <path fill="currentColor"
d="M198 468q-35 0 -53.5 20.5t-18.5 49.5q0 15 4 30q6 26 21.5 51.5t35.5 48.5t43 43.5t45 36.5h73q-42 -32 -69.5 -62t-47.5 -63q28 -4 43.5 -21.5t15.5 -40.5q0 -7 -1 -14.5t-3 -14.5q-8 -29 -31.5 -46.5t-56.5 -17.5zM427 468q-35 0 -53.5 20.5t-18.5 49.5q0 15 4 30
q6 26 21.5 51.5t35.5 48.5t43 43.5t45 36.5h73q-42 -32 -69.5 -62t-47.5 -63q28 -4 43.5 -21.5t15.5 -40.5q0 -7 -1 -14.5t-3 -14.5q-8 -29 -31.5 -46.5t-56.5 -17.5z" />
  </g>

</svg>
