<?xml version="1.0" standalone="no"?>
<!DOCTYPE svg PUBLIC "-//W3C//DTD SVG 1.1//EN" "http://www.w3.org/Graphics/SVG/1.1/DTD/svg11.dtd" >
<svg xmlns="http://www.w3.org/2000/svg" xmlns:xlink="http://www.w3.org/1999/xlink" version="1.1" viewBox="-10 0 496 1000">
  <g transform="matrix(1 0 0 -1 0 800)">
   <path fill="currentColor"
d="M170 420h17l41 168h-16l5 22h103q26 0 40 -10.5t14 -32.5q0 -29 -17 -48.5t-41 -24.5l18 -59q4 -15 21 -15h3l-5 -22h-24q-20 0 -28.5 6t-12.5 23l-17 62h-18l-17 -69h14l-5 -22h-81zM260 330q34 0 62 11.5t49.5 31.5t36 47.5t21.5 60.5q2 12 4 29.5t2 23.5
q0 31 -10 57.5t-28 45.5t-43 30t-56 11q-34 0 -62 -11.5t-49.5 -31.5t-36 -47.5t-21.5 -60.5q-2 -12 -4 -29.5t-2 -23.5q0 -31 10 -57.5t28 -45.5t43 -30t56 -11zM257 298q-38 0 -70 13.5t-55.5 37t-36.5 55t-13 68.5q0 51 16.5 94.5t45.5 75.5t69 50t88 18q38 0 70 -13.5
t55.5 -37t36.5 -55t13 -68.5q0 -51 -16.5 -94.5t-45.5 -75.5t-69 -50t-88 -18zM259 512h28q12 0 21 8t12 22q2 6 3.5 12.5t1.5 11.5q0 18 -21 18h-28z" />
  </g>

</svg>
