<?xml version="1.0" standalone="no"?>
<!DOCTYPE svg PUBLIC "-//W3C//DTD SVG 1.1//EN" "http://www.w3.org/Graphics/SVG/1.1/DTD/svg11.dtd" >
<svg xmlns="http://www.w3.org/2000/svg" xmlns:xlink="http://www.w3.org/1999/xlink" version="1.1" viewBox="-10 0 795 1000">
  <g transform="matrix(1 0 0 -1 0 800)">
   <path fill="currentColor"
d="M134 438h-83l13 53l220 43l-59 -237h138l56 225h125l-55 -225l10 -4q25 24 51.5 36t58.5 12q57 0 92.5 -30.5t35.5 -86.5q0 -49 -17.5 -92t-49 -75t-74.5 -50.5t-93 -18.5q-83 0 -126 41.5t-43 114.5q0 16 3.5 39.5t11.5 56.5h-138l-61 -240h-125zM508 37q29 0 53 24
t39 85q13 49 13 86q0 29 -12.5 42.5t-34.5 13.5q-17 0 -33.5 -8t-31 -21.5t-25.5 -31.5t-16 -38q-10 -41 -10 -76q0 -39 16 -57.5t42 -18.5z" />
  </g>

</svg>
