<?xml version="1.0" standalone="no"?>
<!DOCTYPE svg PUBLIC "-//W3C//DTD SVG 1.1//EN" "http://www.w3.org/Graphics/SVG/1.1/DTD/svg11.dtd" >
<svg xmlns="http://www.w3.org/2000/svg" xmlns:xlink="http://www.w3.org/1999/xlink" version="1.1" viewBox="-40 0 859 1000">
  <g transform="matrix(1 0 0 -1 0 800)">
   <path fill="currentColor"
d="M-16 54h66l147 590h-66l14 54h264l-14 -54h-66l-64 -257l-60 -188h4l378 405l10 40h-66l14 54h264l-14 -54h-66l-147 -590h66l-14 -54h-264l14 54h66l64 257l60 188h-4l-378 -405l-10 -40h66l-14 -54h-264zM402 775q-28 0 -43 16.5t-15 37.5q0 9 3 21q5 21 24 36.5
t46 15.5q28 0 43 -16.5t15 -37.5q0 -9 -3 -21q-5 -21 -24 -36.5t-46 -15.5zM602 775q-28 0 -43 16.5t-15 37.5q0 9 3 21q5 21 24 36.5t46 15.5q28 0 43 -16.5t15 -37.5q0 -9 -3 -21q-5 -21 -24 -36.5t-46 -15.5z" />
  </g>

</svg>
