<?xml version="1.0" standalone="no"?>
<!DOCTYPE svg PUBLIC "-//W3C//DTD SVG 1.1//EN" "http://www.w3.org/Graphics/SVG/1.1/DTD/svg11.dtd" >
<svg xmlns="http://www.w3.org/2000/svg" xmlns:xlink="http://www.w3.org/1999/xlink" version="1.1" viewBox="-10 0 783 1000">
  <g transform="matrix(1 0 0 -1 0 800)">
   <path fill="currentColor"
d="M314 54h90l57 230h-5q-20 -9 -41 -13t-44 -7l-34 -133h-60l33 129q-88 2 -132.5 36t-44.5 101q0 21 3.5 44.5t13.5 64.5l34 138h-65l14 54h259l-14 -54h-62l-36 -146q-10 -38 -14.5 -62t-4.5 -42q0 -60 64 -72l42 166h60l-43 -168q53 4 91 24l76 300h-66l14 54h264
l-14 -54h-66l-147 -590h66l-14 -54h-288z" />
  </g>

</svg>
