<?xml version="1.0" standalone="no"?>
<!DOCTYPE svg PUBLIC "-//W3C//DTD SVG 1.1//EN" "http://www.w3.org/Graphics/SVG/1.1/DTD/svg11.dtd" >
<svg xmlns="http://www.w3.org/2000/svg" xmlns:xlink="http://www.w3.org/1999/xlink" version="1.1" viewBox="-10 0 549 1000">
  <g transform="matrix(1 0 0 -1 0 800)">
   <path fill="currentColor"
d="M181 -12q-77 0 -112.5 44.5t-35.5 125.5q0 58 16.5 124.5t51.5 122t89.5 92.5t130.5 37q30 0 56.5 -5.5t46.5 -18.5t31.5 -33t11.5 -49q0 -25 -12.5 -52.5t-44.5 -51.5t-88.5 -42t-143.5 -23q-7 -34 -11 -64t-4 -53q0 -42 16 -61.5t48 -19.5q45 0 84.5 37.5t74.5 105.5
l36 -17q-23 -48 -47.5 -85t-53 -62.5t-63 -38.5t-77.5 -13zM188 297q48 6 81 19t53.5 30.5t29 39.5t8.5 47q0 23 -11 37t-37 14q-21 0 -37.5 -9.5t-31 -31t-28 -57.5t-27.5 -89zM333 591q-54 0 -83 25t-29 63q0 32 19.5 54.5t53.5 22.5q27 0 42.5 -15t15.5 -40
q0 -19 -9.5 -33.5t-21.5 -20.5v-6q7 -5 25 -5q38 0 77 26.5t74 91.5l32 -22q-45 -79 -93 -110t-103 -31z" />
  </g>

</svg>
