<?xml version="1.0" standalone="no"?>
<!DOCTYPE svg PUBLIC "-//W3C//DTD SVG 1.1//EN" "http://www.w3.org/Graphics/SVG/1.1/DTD/svg11.dtd" >
<svg xmlns="http://www.w3.org/2000/svg" xmlns:xlink="http://www.w3.org/1999/xlink" version="1.1" viewBox="-43 0 817 1000">
  <g transform="matrix(1 0 0 -1 0 800)">
   <path fill="currentColor"
d="M79 -12q-51 0 -81.5 26.5t-30.5 68.5q0 34 21.5 56t56.5 22q29 0 45 -15t16 -41q0 -19 -11 -35.5t-31 -22.5v-3q7 -4 19 -4q14 0 26.5 5t25.5 17q16 16 31.5 44.5t33.5 78.5t39.5 127t49.5 190l35 142h-76l14 54h502l-14 -54h-66l-147 -590h66l-13 -54h-266l14 54h66
l145 584h-153l-35 -135q-30 -119 -52.5 -200t-42.5 -134t-39 -85t-41 -54q-43 -42 -107 -42z" />
  </g>

</svg>
