<?xml version="1.0" standalone="no"?>
<!DOCTYPE svg PUBLIC "-//W3C//DTD SVG 1.1//EN" "http://www.w3.org/Graphics/SVG/1.1/DTD/svg11.dtd" >
<svg xmlns="http://www.w3.org/2000/svg" xmlns:xlink="http://www.w3.org/1999/xlink" version="1.1" viewBox="-40 0 985 1000">
  <g transform="matrix(1 0 0 -1 0 800)">
   <path fill="currentColor"
d="M-16 54h66l147 590h-66l14 54h264l-14 -54h-66l-64 -257h237l64 257h-66l14 54h264l-14 -54h-66l-55 -224h103q81 0 125 -35.5t44 -107.5q0 -46 -14 -95t-45 -89.5t-80.5 -66.5t-119.5 -26h-317l14 54h66l67 273h-235l-69 -273h66l-14 -54h-264zM628 58q51 0 85 29
t53 101q7 27 11.5 52.5t4.5 45.5q0 35 -20 55.5t-62 20.5h-72l-76 -304h76z" />
  </g>

</svg>
