<?xml version="1.0" standalone="no"?>
<!DOCTYPE svg PUBLIC "-//W3C//DTD SVG 1.1//EN" "http://www.w3.org/Graphics/SVG/1.1/DTD/svg11.dtd" >
<svg xmlns="http://www.w3.org/2000/svg" xmlns:xlink="http://www.w3.org/1999/xlink" version="1.1" viewBox="-62 0 804 1000">
  <g transform="matrix(1 0 0 -1 0 800)">
   <path fill="currentColor"
d="M-38 54h62l153 195q27 37 51 52.5t55 19.5l2 7q-81 2 -116 36.5t-35 93.5q0 39 14.5 81t45.5 77.5t79 58.5t114 23h345l-14 -54h-66l-147 -590h66l-14 -54h-281l14 54h83l66 265h-58l-7 -4l-243 -315h-183zM519 640h-106q-51 0 -85 -28t-51 -91q-10 -40 -10 -71
q0 -75 85 -75h101z" />
  </g>

</svg>
