<?xml version="1.0" standalone="no"?>
<!DOCTYPE svg PUBLIC "-//W3C//DTD SVG 1.1//EN" "http://www.w3.org/Graphics/SVG/1.1/DTD/svg11.dtd" >
<svg xmlns="http://www.w3.org/2000/svg" xmlns:xlink="http://www.w3.org/1999/xlink" version="1.1" viewBox="-57 0 1109 1000">
  <g transform="matrix(1 0 0 -1 0 800)">
   <path fill="currentColor"
d="M826 0h-91l-88 323l-5 4h-68l-68 -273h66l-14 -54h-262l14 54h66l68 273h-68l-6 -4l-236 -323h-181l14 54h62l181 250q29 40 54 54t58 14l-14 165q-3 40 -8 65.5t-13 40.5t-19 21t-25 8l-4 -8q12 -8 16.5 -21.5t4.5 -29.5q0 -27 -18 -48t-54 -21q-29 0 -46.5 18.5
t-17.5 47.5q0 19 7.5 37t22 32t36 22.5t49.5 8.5q61 0 93.5 -38t39.5 -134l13 -151h73l65 257h-66l14 54h263l-15 -54h-66l-64 -257h73l109 192q42 74 82.5 102.5t89.5 28.5q47 0 73 -25.5t26 -62.5q0 -32 -19 -55t-56 -23q-26 0 -44 16t-18 45q0 14 8.5 29t22.5 24l-3 7
q-11 -1 -21 -5.5t-22 -16.5t-26 -32.5t-32 -52.5l-106 -186q23 -5 38 -21.5t25 -54.5l65 -238h92l-55 -218h-105z" />
  </g>

</svg>
