<?xml version="1.0" standalone="no"?>
<!DOCTYPE svg PUBLIC "-//W3C//DTD SVG 1.1//EN" "http://www.w3.org/Graphics/SVG/1.1/DTD/svg11.dtd" >
<svg xmlns="http://www.w3.org/2000/svg" xmlns:xlink="http://www.w3.org/1999/xlink" version="1.1" viewBox="-10 0 887 1000">
  <g transform="matrix(1 0 0 -1 0 800)">
   <path fill="currentColor"
d="M607 -190q-18 0 -28 2v34h13q26 0 42 13t36 38l117 135l-6 7q-28 -29 -52 -40t-44 -11q-22 0 -37 6.5t-24 16.5t-12.5 23t-3.5 26q0 14 3 30t6 27l11 45l-10 4q-20 -36 -40.5 -68.5t-44 -56.5t-51 -38.5t-61.5 -14.5q-43 0 -62.5 25t-19.5 70q0 11 1 22.5t4 23.5l7 33
l-10 4q-20 -36 -40 -68.5t-44 -56.5t-52 -38.5t-64 -14.5q-50 0 -72.5 27.5t-22.5 71.5q0 33 12 71l78 280h-84l13 53l224 43l-114 -414q-3 -12 -3 -22q0 -26 24 -26q23 0 51 24t55.5 66t52.5 99.5t42 125.5l34 135h125l-101 -402q-3 -12 -3 -22q0 -26 24 -26q23 0 50.5 24
t54.5 66.5t51.5 100t41.5 124.5l33 135h125l-113 -453l18 -8l97 115l33 -21q-14 -20 -23 -36t-16 -31.5t-12 -31.5t-9 -37q-14 -62 -28 -98t-36 -58q-24 -24 -58 -38.5t-78 -14.5z" />
  </g>

</svg>
