<?xml version="1.0" standalone="no"?>
<!DOCTYPE svg PUBLIC "-//W3C//DTD SVG 1.1//EN" "http://www.w3.org/Graphics/SVG/1.1/DTD/svg11.dtd" >
<svg xmlns="http://www.w3.org/2000/svg" xmlns:xlink="http://www.w3.org/1999/xlink" version="1.1" viewBox="-10 0 641 1000">
  <g transform="matrix(1 0 0 -1 0 800)">
   <path fill="currentColor"
d="M213 40q45 0 73.5 38t42.5 96q16 63 26.5 103.5t16.5 66.5t8 40.5t2 24.5q0 31 -14.5 52t-48.5 21q-45 0 -73.5 -38t-42.5 -96q-16 -63 -26.5 -103.5t-16.5 -66.5t-8 -40.5t-2 -24.5q0 -31 14.5 -52t48.5 -21zM207 -12q-86 0 -130 51.5t-44 139.5q0 58 19.5 121t57 115
t91.5 85.5t124 33.5q86 0 130 -51.5t44 -139.5q0 -58 -19.5 -121t-57 -115t-91.5 -85.5t-124 -33.5zM481 737l73 110h-122l18 73h104q31 0 49 -12.5t18 -37.5q0 -27 -22.5 -57.5t-53.5 -61.5l-29 -30zM191 597l152 171h76l77 -177l-32 -17l-97 113l-148 -113z" />
  </g>

</svg>
