<?xml version="1.0" standalone="no"?>
<!DOCTYPE svg PUBLIC "-//W3C//DTD SVG 1.1//EN" "http://www.w3.org/Graphics/SVG/1.1/DTD/svg11.dtd" >
<svg xmlns="http://www.w3.org/2000/svg" xmlns:xlink="http://www.w3.org/1999/xlink" version="1.1" viewBox="-10 0 740 1000">
  <g transform="matrix(1 0 0 -1 0 800)">
   <path fill="currentColor"
d="M115 54h80l56 227l-95 363h-48l14 54h257l-14 -54h-72l67 -282h8l207 282h-72l14 54h203l-14 -54h-48l-271 -346l-60 -244h80l-13 -54h-293zM218 -185q-27 0 -42 16.5t-15 36.5q0 9 3 21q5 22 23.5 37t46.5 15q27 0 42 -16.5t15 -36.5q0 -9 -3 -21q-5 -22 -23.5 -37
t-46.5 -15z" />
  </g>

</svg>
