<?xml version="1.0" standalone="no"?>
<!DOCTYPE svg PUBLIC "-//W3C//DTD SVG 1.1//EN" "http://www.w3.org/Graphics/SVG/1.1/DTD/svg11.dtd" >
<svg xmlns="http://www.w3.org/2000/svg" xmlns:xlink="http://www.w3.org/1999/xlink" version="1.1" viewBox="-10 0 593 1000">
  <g transform="matrix(1 0 0 -1 0 800)">
   <path fill="currentColor"
d="M141 -12q-59 0 -84.5 40.5t-25.5 112.5q0 42 8 87.5t24 89t38.5 83t51.5 69t64 47t76 17.5q45 0 74.5 -22.5t40.5 -75.5h10l59 86h62l-114 -453l18 -8l97 115l33 -21l-61 -84q-32 -46 -61 -64.5t-58 -18.5q-22 0 -36.5 6.5t-23 16.5t-12 23t-3.5 26q0 14 3 30t6 27l9 39
l-10 2q-16 -35 -34.5 -66t-41 -54t-49.5 -36.5t-60 -13.5zM194 72q26 0 53.5 28t51.5 69t42.5 86t26.5 80l7 25q11 48 1 77t-48 29q-41 0 -78 -41.5t-62 -131.5q-5 -18 -10 -40t-9 -43.5t-6 -42t-2 -35.5q0 -29 6.5 -44.5t26.5 -15.5zM452 781q-23 0 -41 9t-37 20
q-22 11 -37.5 19.5t-32.5 8.5q-14 0 -26 -7t-33 -29l-24 25q13 17 25.5 32t25 26t26.5 17.5t31 6.5q23 0 41 -9t37 -20q22 -11 37.5 -19.5t32.5 -8.5q14 0 26 7t33 29l24 -25q-27 -35 -50.5 -58.5t-57.5 -23.5zM185 596l146 157h76l82 -162l-31 -17l-101 103l-145 -103z" />
  </g>

</svg>
