<?xml version="1.0" standalone="no"?>
<!DOCTYPE svg PUBLIC "-//W3C//DTD SVG 1.1//EN" "http://www.w3.org/Graphics/SVG/1.1/DTD/svg11.dtd" >
<svg xmlns="http://www.w3.org/2000/svg" xmlns:xlink="http://www.w3.org/1999/xlink" version="1.1" viewBox="-10 0 840 1000">
  <g transform="matrix(1 0 0 -1 0 800)">
   <path fill="currentColor"
d="M67 398l120 100q31 26 53 49t30 54q2 5 3.5 12.5t1.5 15.5q0 15 -10.5 25.5t-30.5 10.5q-10 0 -20.5 -1.5t-18.5 -4.5l-2 -5q19 -5 19 -25q0 -19 -14.5 -34t-36.5 -15q-18 0 -28 10.5t-10 26.5q0 19 11 35t29.5 27.5t42 18t49.5 6.5q60 0 87.5 -21.5t27.5 -59.5
q0 -29 -13 -52.5t-32.5 -42t-42.5 -34t-43 -27.5l-106 -64l-1 -6h144l11 43h52l-28 -110h-261zM722 698h74l-643 -698h-75zM552 -7q-48 0 -74 18.5t-26 48.5q0 26 15 41.5t35 15.5q17 0 28 -9.5t11 -26.5q0 -15 -10 -25.5t-22 -12.5l-2 -5q8 -4 17 -5.5t18 -1.5q64 0 80 66
q6 24 6 33q0 39 -50 39h-27l11 43h21q35 0 53.5 18t25.5 45q1 3 3 11.5t2 13.5q0 34 -43 34q-8 0 -18 -1.5t-18 -4.5l-2 -5q17 -6 17 -26q0 -15 -12 -30.5t-36 -15.5q-18 0 -28.5 10t-10.5 27t10.5 32.5t28.5 27t42.5 18.5t53.5 7q112 0 112 -75q0 -24 -9.5 -42t-24 -30.5
t-33 -20t-36.5 -9.5l-2 -6q32 -6 49 -24t17 -45q0 -55 -45 -91.5t-127 -36.5z" />
  </g>

</svg>
