<?xml version="1.0" standalone="no"?>
<!DOCTYPE svg PUBLIC "-//W3C//DTD SVG 1.1//EN" "http://www.w3.org/Graphics/SVG/1.1/DTD/svg11.dtd" >
<svg xmlns="http://www.w3.org/2000/svg" xmlns:xlink="http://www.w3.org/1999/xlink" version="1.1" viewBox="-10 0 795 1000">
  <g transform="matrix(1 0 0 -1 0 800)">
   <path fill="currentColor"
d="M158 324q-48 0 -74 18.5t-26 48.5q0 26 15 41.5t35 15.5q17 0 28 -9.5t11 -26.5q0 -15 -10 -25.5t-22 -12.5l-2 -5q8 -4 17 -5.5t18 -1.5q64 0 80 66q6 24 6 33q0 39 -50 39h-27l11 43h21q35 0 53.5 18t25.5 45q1 3 3 11.5t2 13.5q0 34 -43 34q-8 0 -18 -1.5t-18 -4.5
l-2 -5q17 -6 17 -26q0 -15 -12 -30.5t-36 -15.5q-18 0 -28.5 10t-10.5 27t10.5 32.5t28.5 27t42.5 18.5t53.5 7q112 0 112 -75q0 -24 -9.5 -42t-24 -30.5t-33 -20t-36.5 -9.5l-2 -6q32 -6 49 -24t17 -45q0 -55 -45 -91.5t-127 -36.5zM681 698h74l-643 -698h-75zM523 -7
q-58 0 -85.5 23t-27.5 60q0 28 10 47.5t26.5 33t37.5 21t42 10.5l2 6q-26 5 -44.5 22t-18.5 46q0 47 38 79t110 32q53 0 81.5 -19.5t28.5 -57.5q0 -25 -10 -43.5t-25 -30.5t-33.5 -19t-36.5 -9l-2 -6q34 -5 53 -23.5t19 -50.5q0 -24 -11 -46t-32 -38.5t-52 -26.5t-70 -10z
M536 38q24 0 36.5 16.5t20.5 45.5q2 6 4 17t2 20q0 14 -9 23t-26 9q-24 0 -36.5 -16.5t-20.5 -45.5q-2 -6 -4 -17t-2 -20q0 -14 9 -23t26 -9zM578 210q24 0 35 15.5t18 42.5q2 6 3.5 16t1.5 16q0 28 -33 28q-24 0 -35 -15.5t-18 -42.5q-2 -6 -3.5 -16t-1.5 -16q0 -28 33 -28
z" />
  </g>

</svg>
