<?xml version="1.0" standalone="no"?>
<!DOCTYPE svg PUBLIC "-//W3C//DTD SVG 1.1//EN" "http://www.w3.org/Graphics/SVG/1.1/DTD/svg11.dtd" >
<svg xmlns="http://www.w3.org/2000/svg" xmlns:xlink="http://www.w3.org/1999/xlink" version="1.1" viewBox="-33 0 697 1000">
  <g transform="matrix(1 0 0 -1 0 800)">
   <path fill="currentColor"
d="M-9 54h66l27 107h-67l14 54h66l26 105h-66l14 54h66l67 270h-66l14 54h336q75 0 120.5 -31.5t45.5 -100.5q0 -37 -12.5 -80t-41.5 -80t-77.5 -61.5t-120.5 -24.5h-146l-27 -105h180l-14 -54h-179l-27 -107h90l-14 -54h-288zM269 374h106q49 0 82 29t47 83q2 7 5 18.5
t5.5 23.5t4.5 23.5t2 18.5q0 32 -19 51t-60 19h-106z" />
  </g>

</svg>
