<?xml version="1.0" standalone="no"?>
<!DOCTYPE svg PUBLIC "-//W3C//DTD SVG 1.1//EN" "http://www.w3.org/Graphics/SVG/1.1/DTD/svg11.dtd" >
<svg xmlns="http://www.w3.org/2000/svg" xmlns:xlink="http://www.w3.org/1999/xlink" version="1.1" viewBox="-40 0 903 1000">
  <g transform="matrix(1 0 0 -1 0 800)">
   <path fill="currentColor"
d="M568 -12q-91 0 -147 26t-70 96l-42 207h-66l-66 -263h66l-14 -54h-259l14 54h66l147 590h-66l14 54h289q72 0 110 -34t38 -94q0 -41 -11.5 -77.5t-32 -66t-49.5 -51t-63 -32.5l54 -208q11 -43 34.5 -70.5t71.5 -27.5q37 0 56.5 19t19.5 50q0 18 -6.5 32.5t-17 28.5
t-23.5 28t-25 30q-17 22 -27.5 43.5t-10.5 54.5q0 37 15.5 66.5t42 49.5t61.5 31t73 11q60 0 84.5 -19t24.5 -49q0 -24 -15 -43.5t-46 -19.5q-22 0 -35.5 13.5t-13.5 35.5q0 12 4.5 25.5t13.5 21.5l-5 9q-40 -7 -66 -29.5t-26 -60.5q0 -19 6.5 -34t17 -29t23 -28.5
t24.5 -30.5q15 -19 26.5 -40.5t11.5 -56.5q0 -36 -14.5 -65t-41.5 -49.5t-65 -32t-84 -11.5zM256 373h54q50 0 82.5 28.5t46.5 81.5q2 7 5 19t6 24.5t5.5 24.5t2.5 19q0 32 -19.5 51t-61.5 19h-54z" />
  </g>

</svg>
