<?xml version="1.0" standalone="no"?>
<!DOCTYPE svg PUBLIC "-//W3C//DTD SVG 1.1//EN" "http://www.w3.org/Graphics/SVG/1.1/DTD/svg11.dtd" >
<svg xmlns="http://www.w3.org/2000/svg" xmlns:xlink="http://www.w3.org/1999/xlink" version="1.1" viewBox="-10 0 1057 1000">
  <g transform="matrix(1 0 0 -1 0 800)">
   <path fill="currentColor"
d="M148 239h-114l14 54h101l2 112h-76l14 54h64l3 185h-48l14 54h252l-14 -54h-72l-6 -186h151l115 240h115l-1 -240h150l85 186h-72l14 54h198l-14 -54h-48l-89 -185h64l-14 -54h-76l-55 -112h103l-14 -54h-116l-115 -239h-122l1 240h-152l-117 -240h-130zM271 138h7
l130 268h-128zM415 292h127l3 252h-7zM660 138h8l121 268h-127z" />
  </g>

</svg>
