<?xml version="1.0" standalone="no"?>
<!DOCTYPE svg PUBLIC "-//W3C//DTD SVG 1.1//EN" "http://www.w3.org/Graphics/SVG/1.1/DTD/svg11.dtd" >
<svg xmlns="http://www.w3.org/2000/svg" xmlns:xlink="http://www.w3.org/1999/xlink" version="1.1" viewBox="-10 0 406 1000">
  <g transform="matrix(1 0 0 -1 0 800)">
   <path fill="currentColor"
d="M174 324q-56 0 -80 20.5t-24 47.5q0 23 14 39.5t37 16.5q20 0 29 -11t9 -26q0 -14 -10 -24.5t-22 -12.5l-2 -5q14 -7 40 -7q29 0 49.5 18.5t28.5 53.5q2 5 4 15t2 20q0 20 -9.5 31t-28.5 11q-20 0 -33 -9.5t-22 -21.5l-50 11l65 207h215l-17 -70h-181l-38 -122l7 -2
q14 23 39 41.5t64 18.5q43 0 66 -19t23 -61q0 -37 -14 -66.5t-37.5 -50.5t-55.5 -32t-68 -11z" />
  </g>

</svg>
