<?xml version="1.0" standalone="no"?>
<!DOCTYPE svg PUBLIC "-//W3C//DTD SVG 1.1//EN" "http://www.w3.org/Graphics/SVG/1.1/DTD/svg11.dtd" >
<svg xmlns="http://www.w3.org/2000/svg" xmlns:xlink="http://www.w3.org/1999/xlink" version="1.1" viewBox="-35 0 775 1000">
  <g transform="matrix(1 0 0 -1 0 800)">
   <path fill="currentColor"
d="M-11 54h66l69 278h-82l13 57h83l64 255h-66l14 54h257l-14 -54h-65l-63 -255h87l222 255h-75l14 54h217l-14 -54h-57l-231 -255h183l-14 -57h-92l-74 1l-2 -2l35 -89l67 -188h62l-14 -54h-167l-110 332h-51l-70 -278h66l-14 -54h-258z" />
  </g>

</svg>
