<?xml version="1.0" standalone="no"?>
<!DOCTYPE svg PUBLIC "-//W3C//DTD SVG 1.1//EN" "http://www.w3.org/Graphics/SVG/1.1/DTD/svg11.dtd" >
<svg xmlns="http://www.w3.org/2000/svg" xmlns:xlink="http://www.w3.org/1999/xlink" version="1.1" viewBox="-10 0 447 1000">
  <g transform="matrix(1 0 0 -1 0 800)">
   <path fill="currentColor"
d="M56 -3q-8 0 -13.5 3t-5.5 7t5 6.5t16 3.5q24 3 37.5 13t13.5 32v264q0 22 -10 31.5t-34 12.5q-11 2 -16 5t-5 7q0 10 19 10h27.5t20 -0.5t27.5 -0.5q19 0 32 1.5t41 1.5q71 0 107.5 -20t36.5 -69q0 -22 -8 -38t-22.5 -27t-35.5 -19q-2 -1 -2.5 -3t2.5 -3q20 -5 41.5 -15
t36.5 -29.5t15 -54.5q0 -41 -23.5 -67t-62.5 -38.5t-86 -12.5q-8 0 -23.5 1t-34.5 1q-26 0 -41.5 -1t-27 -1.5t-27.5 -0.5zM219 25q38 0 69.5 24.5t31.5 63.5q0 46 -34 69t-81 23q-22 0 -28 -9t-6 -28q0 -31 0.5 -54t1.5 -46q2 -22 11.5 -32.5t34.5 -10.5zM187 225
q57 0 84.5 16.5t27.5 55.5q0 17 -7 34.5t-25.5 29.5t-55.5 12q-27 0 -31.5 -6.5t-5.5 -20.5q-1 -26 -1 -49.5t-1 -49.5q1 -16 5.5 -18.5t9.5 -3.5z" />
  </g>

</svg>
