<?xml version="1.0" standalone="no"?>
<!DOCTYPE svg PUBLIC "-//W3C//DTD SVG 1.1//EN" "http://www.w3.org/Graphics/SVG/1.1/DTD/svg11.dtd" >
<svg xmlns="http://www.w3.org/2000/svg" xmlns:xlink="http://www.w3.org/1999/xlink" version="1.1" viewBox="-10 0 720 1000">
  <g transform="matrix(1 0 0 -1 0 800)">
   <path fill="currentColor"
d="M407 -15q-70 0 -135 24t-116 68.5t-80.5 107t-29.5 138.5q0 73 31 135t85 108t123.5 71.5t146.5 25.5q39 0 66 -3t52.5 -8.5t59.5 -14.5q15 -4 21.5 -12t7.5 -22q2 -23 5 -49.5t4 -65.5q1 -7 -6.5 -11.5t-16 -2.5t-11.5 13q-10 38 -23 65.5t-39 45.5q-25 17 -60.5 25.5
t-76.5 8.5q-58 0 -107.5 -23.5t-85 -64t-55.5 -91.5t-20 -106q0 -61 19.5 -120t56 -106.5t87 -76t112.5 -28.5q72 0 119 33t80 92q7 13 20.5 13t13.5 -16q0 -8 -4 -25.5t-10.5 -37t-12.5 -34.5q-7 -14 -11.5 -18t-20.5 -9q-37 -15 -88.5 -22t-100.5 -7zM368 685q-6 0 -6 6
q0 7 5 15q18 30 37.5 60t39.5 59q9 13 27 13q7 0 21 -3t25.5 -8t11.5 -12t-13 -19q-29 -26 -65 -52.5t-65 -49.5q-7 -5 -11.5 -7t-6.5 -2z" />
  </g>

</svg>
