<?xml version="1.0" standalone="no"?>
<!DOCTYPE svg PUBLIC "-//W3C//DTD SVG 1.1//EN" "http://www.w3.org/Graphics/SVG/1.1/DTD/svg11.dtd" >
<svg xmlns="http://www.w3.org/2000/svg" xmlns:xlink="http://www.w3.org/1999/xlink" version="1.1" viewBox="-10 0 570 1000">
  <g transform="matrix(1 0 0 -1 0 800)">
   <path fill="currentColor"
d="M327 -14q-52 0 -100 17t-85.5 48.5t-59.5 75t-22 95.5q0 53 23 96.5t62.5 74.5t89.5 48t103 17q26 0 47.5 -2t41 -5.5t38.5 -9.5q11 -3 15 -6.5t6 -9.5q5 -15 7.5 -41.5t2.5 -43.5q0 -12 -5.5 -16t-12 0t-11.5 15q-13 35 -31 54t-44.5 26.5t-66.5 7.5q-50 0 -89.5 -26
t-62.5 -69t-23 -93q0 -56 24 -106t67 -81t99 -31q25 0 52 9.5t50 28t34 44.5q6 14 20 18t14 -12q0 -4 -4.5 -17.5t-11 -29.5t-11.5 -28q-3 -7 -8 -12t-13 -9q-21 -10 -60.5 -18.5t-74.5 -8.5zM319 551q-22 0 -38.5 16.5t-16.5 38.5q0 23 16.5 39t38.5 16q23 0 39 -16t16 -39
q0 -22 -16 -38.5t-39 -16.5z" />
  </g>

</svg>
