<?xml version="1.0" standalone="no"?>
<!DOCTYPE svg PUBLIC "-//W3C//DTD SVG 1.1//EN" "http://www.w3.org/Graphics/SVG/1.1/DTD/svg11.dtd" >
<svg xmlns="http://www.w3.org/2000/svg" xmlns:xlink="http://www.w3.org/1999/xlink" version="1.1" viewBox="-10 0 764 1000">
  <g transform="matrix(1 0 0 -1 0 800)">
   <path fill="currentColor"
d="M60 317q-7 0 -10.5 7t-3.5 11q0 7 7.5 12.5t16.5 5.5h307q5 0 9.5 -3t4.5 -8q0 -1 -0.5 -1.5t-0.5 -1.5q-5 -10 -12.5 -16t-18.5 -6h-299zM371 -7q-10 0 -44.5 2t-79 3.5t-84.5 1.5q-20 0 -33.5 -1t-29 -2.5t-42.5 -1.5q-13 0 -21 3t-8 10q0 8 8 10.5t25 5.5
q38 7 52.5 23t14.5 52v450q0 36 -14.5 51t-52.5 22q-17 3 -25 6.5t-8 11.5q0 7 8 10t21 3q26 0 41.5 -0.5t30.5 -1t39 -0.5q16 0 40.5 1t51 3t48 3t31.5 1q102 0 174 -24.5t117 -68t66.5 -101t21.5 -123.5q0 -72 -27 -135t-75 -111.5t-111 -75.5t-135 -27zM359 28
q78 0 138 38t93.5 105t33.5 154q0 72 -24 128.5t-64 95t-90 59t-101 20.5q-43 0 -73.5 -2.5t-46.5 -15.5t-16 -43v-446q0 -40 22 -60t56.5 -26.5t71.5 -6.5z" />
  </g>

</svg>
