<?xml version="1.0" standalone="no"?>
<!DOCTYPE svg PUBLIC "-//W3C//DTD SVG 1.1//EN" "http://www.w3.org/Graphics/SVG/1.1/DTD/svg11.dtd" >
<svg xmlns="http://www.w3.org/2000/svg" xmlns:xlink="http://www.w3.org/1999/xlink" version="1.1" viewBox="-10 0 615 1000">
  <g transform="matrix(1 0 0 -1 0 800)">
   <path fill="currentColor"
d="M489 -14q-6 0 -14 3.5t-15 9.5t-14 14l-247 305q-7 8 -14.5 13.5t-10.5 5.5q-4 0 -5.5 -6.5t-1.5 -20.5q0 -45 0.5 -87.5t1.5 -79t3 -64.5q2 -27 13.5 -38t37.5 -16q8 -1 16 -4.5t8 -11.5q0 -6 -7.5 -9t-12.5 -3q-29 0 -43 3t-38 3q-25 0 -41.5 -3t-45.5 -3q-5 0 -12.5 3
t-7.5 9q0 8 8 11.5t16 4.5q26 5 41 15.5t17 38.5q1 9 2 34.5t2 59.5t1.5 70.5t1 68.5t0.5 51q0 9 -11.5 21.5t-28.5 23.5t-34 14q-9 2 -16.5 7t-7.5 12q0 6 7.5 9t12.5 3q15 0 30 -0.5t31.5 -1.5t34 -1.5t36.5 -0.5q6 0 11.5 -5t9.5 -10l243 -291q2 -3 6 -8t7 -5q2 0 3.5 3
t1.5 10l-4 208q-1 30 -13.5 48t-44.5 23q-9 2 -16.5 7t-7.5 12q0 6 7.5 9t12.5 3q20 0 32 -1t24 -2.5t30 -1.5t27 1.5t19.5 2.5t29.5 1q5 0 12.5 -3t7.5 -9q0 -7 -7.5 -12t-16.5 -7q-31 -5 -41 -23t-10 -48v-330q0 -15 -4 -25t-12 -10z" />
  </g>

</svg>
