<?xml version="1.0" standalone="no"?>
<!DOCTYPE svg PUBLIC "-//W3C//DTD SVG 1.1//EN" "http://www.w3.org/Graphics/SVG/1.1/DTD/svg11.dtd" >
<svg xmlns="http://www.w3.org/2000/svg" xmlns:xlink="http://www.w3.org/1999/xlink" version="1.1" viewBox="-16 0 830 1000">
  <g transform="matrix(1 0 0 -1 0 800)">
   <path fill="currentColor"
d="M428 -14q-66 0 -126 23.5t-106 67t-73 104t-27 134.5q0 68 22 130.5t65 111.5t107 78t147 29q66 0 126 -23.5t106 -67t73 -104t27 -134.5q0 -67 -22 -130t-65 -112t-107 -78t-147 -29zM443 26q77 0 128 32.5t76.5 91t25.5 136.5q0 69 -16 130t-47.5 107.5t-78.5 72.5
t-110 26q-75 0 -126 -32t-77 -89.5t-26 -135.5q0 -70 15.5 -131t47 -108t78.5 -73.5t110 -26.5zM1 485q-7 0 -7 3v10t5.5 29.5t13.5 51t16.5 54t13.5 38.5q4 9 12 13.5t15 4.5q14 0 25.5 -16t9.5 -28q0 -4 -8 -21.5t-19.5 -41.5t-25 -45.5t-24.5 -32.5q-6 -6 -13 -12.5
t-14 -6.5z" />
  </g>

</svg>
