<?xml version="1.0" standalone="no"?>
<!DOCTYPE svg PUBLIC "-//W3C//DTD SVG 1.1//EN" "http://www.w3.org/Graphics/SVG/1.1/DTD/svg11.dtd" >
<svg xmlns="http://www.w3.org/2000/svg" xmlns:xlink="http://www.w3.org/1999/xlink" version="1.1" viewBox="-10 0 1700 1000">
  <g transform="matrix(1 0 0 -1 0 800)">
   <path fill="currentColor"
d="M1208 -324q-134 0 -255 29t-226.5 73.5t-194.5 90.5q-88 46 -158.5 85t-123.5 56q-43 14 -80.5 40.5t-65.5 65t-43.5 88.5t-15.5 111q0 68 22 130.5t65 111.5t107 78t147 29q66 0 126 -23.5t106 -67t73 -104t27 -134.5q0 -76 -26.5 -143t-79.5 -117t-133 -75q-8 -3 -8 -9
q0 -4 5 -10t11 -8q69 -25 140.5 -58.5t145.5 -65.5q76 -33 154 -62t158.5 -47t162.5 -18q72 0 127.5 9t100 27.5t80.5 47.5t69 69q11 13 23.5 11.5t21 -11t10 -21.5t-10.5 -20q-61 -44 -127.5 -80t-147.5 -57t-186 -21zM392 26q115 0 172.5 71t57.5 189q0 93 -28 169
t-84 121.5t-140 45.5q-113 0 -171 -70t-58 -187q0 -93 28 -170t84 -123t139 -46z" />
  </g>

</svg>
