<?xml version="1.0" standalone="no"?>
<!DOCTYPE svg PUBLIC "-//W3C//DTD SVG 1.1//EN" "http://www.w3.org/Graphics/SVG/1.1/DTD/svg11.dtd" >
<svg xmlns="http://www.w3.org/2000/svg" xmlns:xlink="http://www.w3.org/1999/xlink" version="1.1" viewBox="-10 0 1063 1000">
  <g transform="matrix(1 0 0 -1 0 800)">
   <path fill="currentColor"
d="M211 -5q-13 0 -21 2.5t-8 8.5q0 7 8 11t25 7q38 7 58 24.5t20 53.5q1 40 1.5 74.5t0.5 67.5q0 77 -2 149t-4 164q-1 14 -3.5 27.5t-14.5 15.5q-14 3 -31.5 3.5t-42.5 0.5h-47q-24 0 -43.5 -11t-30.5 -31q-3 -5 -9.5 -15t-14.5 -17.5t-16 -7.5q-5 0 -7 3.5t-2 8.5
q0 14 7 26q14 29 17 54.5t7 56.5q2 17 9 19.5t11 2.5t10 -11.5t10 -19.5q6 -10 27.5 -14.5t42.5 -5.5q60 -2 109 -3.5t96 -1.5q46 0 94.5 1.5t107.5 3.5q25 1 47 6t34 15q10 8 21.5 13t15.5 5t8 -5t2 -13l-10 -46t-5 -68v-140q0 -16 1 -32t8 -25q16 12 39 26.5t52 25.5
t60 11q33 0 59 -13.5t41 -40.5t15 -66v-226q0 -21 14.5 -30.5t29.5 -14.5q8 -3 15.5 -6.5t7.5 -11.5q0 -7 -9.5 -8t-13.5 -1q-19 0 -30 1.5t-20.5 2.5t-27.5 1q-17 0 -26 -1t-18.5 -2.5t-29.5 -1.5q-4 0 -13.5 1t-9.5 8q0 8 7.5 11.5t15.5 6.5q15 5 26.5 14.5t11.5 30.5v204
q0 26 -14.5 46t-36 32t-43.5 12q-19 0 -44 -5.5t-39 -16.5q-16 -13 -21.5 -27t-5.5 -45v-108.5t1 -94.5q1 -21 12 -29t26 -13q8 -3 15.5 -6.5t7.5 -11.5q0 -7 -9.5 -8t-13.5 -1q-19 0 -28.5 1.5t-18 2.5t-26.5 1q-17 0 -27 -1t-20.5 -2.5t-30.5 -1.5q-4 0 -13.5 1t-9.5 8
q0 8 7.5 11.5t15.5 6.5q15 5 29 13t14 29l1 500q0 27 -13.5 32.5t-61.5 5.5q-26 0 -58 -0.5t-58.5 -1.5t-35.5 -2q-10 -1 -12.5 -15t-3.5 -28q-1 -42 -2 -79.5t-2 -71.5t-1 -67v-67v-170q0 -36 21 -53.5t58 -24.5q17 -3 25 -7t8 -11q0 -6 -8 -8.5t-21 -2.5q-27 0 -44.5 1.5
t-33.5 2.5t-39 1q-25 0 -43.5 -1t-38 -2.5t-46.5 -1.5z" />
  </g>

</svg>
