<?xml version="1.0" standalone="no"?>
<!DOCTYPE svg PUBLIC "-//W3C//DTD SVG 1.1//EN" "http://www.w3.org/Graphics/SVG/1.1/DTD/svg11.dtd" >
<svg xmlns="http://www.w3.org/2000/svg" xmlns:xlink="http://www.w3.org/1999/xlink" version="1.1" viewBox="-10 0 626 1000">
  <g transform="matrix(1 0 0 -1 0 800)">
   <path fill="currentColor"
d="M302 -15q-66 0 -121 32.5t-88 86.5t-33 118q0 46 19.5 89.5t53.5 78t77.5 55t91.5 20.5q50 0 95.5 -18t81.5 -50.5t56.5 -76t20.5 -94.5q0 -61 -29.5 -116.5t-86 -90t-138.5 -34.5zM318 22q43 0 71.5 19t45.5 49t24 63.5t7 63.5q0 38 -9.5 76t-30.5 70t-53 51t-77 19
q-56 0 -88 -29t-45 -74t-13 -93q0 -58 18.5 -107t56 -78.5t93.5 -29.5zM201 156q-7 0 -7 10q0 3 1.5 9t2.5 9q5 10 8.5 23.5t6.5 28t5.5 28.5t4.5 25q2 8 4.5 10t4.5 2q6 0 9 -10q2 -6 6 -17t14 -11h92q14 0 24 10t14 15q11 13 17 13q2 0 6 -3t1 -8q-6 -15 -10.5 -34
t-7.5 -38t-5 -36q-1 -6 -2.5 -16t-9.5 -10q-4 0 -7.5 9t-5.5 15q-2 7 -10 13.5t-18 6.5h-68q-14 0 -24.5 -1t-14.5 -7q-2 -3 -7.5 -11.5t-12 -16.5t-11.5 -8z" />
  </g>

</svg>
