<?xml version="1.0" standalone="no"?>
<!DOCTYPE svg PUBLIC "-//W3C//DTD SVG 1.1//EN" "http://www.w3.org/Graphics/SVG/1.1/DTD/svg11.dtd" >
<svg xmlns="http://www.w3.org/2000/svg" xmlns:xlink="http://www.w3.org/1999/xlink" version="1.1" viewBox="-10 0 480 1000">
  <g transform="matrix(1 0 0 -1 0 800)">
   <path fill="currentColor"
d="M50 -3q-5 0 -12.5 3t-7.5 9q0 8 8 11.5t16 4.5q26 5 46 16t20 38v273q0 31 -13 48t-45 22q-9 2 -16.5 7t-7.5 12q0 6 7.5 9t12.5 3q20 0 35.5 -1t31 -2.5t33.5 -1.5t33 1.5t31 2.5t35 1q5 0 12.5 -3t7.5 -9q0 -7 -7.5 -12t-16.5 -7q-21 -3 -33.5 -13t-18.5 -24.5
t-6 -32.5l15 4.5t46 4.5q44 0 82.5 -13.5t62.5 -42t24 -72.5q0 -67 -40 -106.5t-108 -39.5q-10 0 -23.5 5.5t-13.5 12.5q0 8 5 11t10 3t10.5 -1t10.5 -1q33 0 50 29.5t17 65.5q0 47 -29.5 80.5t-74.5 33.5q-19 0 -31.5 -6.5t-12.5 -22.5v-218q0 -27 20 -38t46 -16
q8 -1 16 -4.5t8 -11.5q0 -6 -7.5 -9t-12.5 -3q-19 0 -35.5 1.5t-33.5 3t-38 1.5t-38 -1.5t-33.5 -3t-36.5 -1.5z" />
  </g>

</svg>
