<?xml version="1.0" standalone="no"?>
<!DOCTYPE svg PUBLIC "-//W3C//DTD SVG 1.1//EN" "http://www.w3.org/Graphics/SVG/1.1/DTD/svg11.dtd" >
<svg xmlns="http://www.w3.org/2000/svg" xmlns:xlink="http://www.w3.org/1999/xlink" version="1.1" viewBox="-10 0 708 1000">
  <g transform="matrix(1 0 0 -1 0 800)">
   <path fill="currentColor"
d="M455 -153q-5 0 -12 11.5t-15 31.5l-101 276q-8 22 -21.5 38.5t-30.5 20.5q-10 3 -15.5 6.5t-5.5 9.5q0 4 5.5 5.5t13.5 1.5q10 0 22 -0.5t25.5 -1t28.5 -0.5q14 0 29 0.5t28.5 0.5h20.5q8 0 13.5 -1t5.5 -5q0 -6 -5 -9.5t-16 -5.5q-27 -5 -32 -25.5t4 -45.5l68 -181
q8 -16 12.5 -16.5t11.5 16.5l73 192q8 22 -2 38.5t-30 20.5q-7 2 -14 5t-7 7t5 7t13 3q15 0 36 -0.5t43 -0.5q18 0 35 1t28 1q8 0 13.5 -3t5.5 -7t-5.5 -7t-16.5 -5q-24 -4 -42 -24t-25 -37l-112 -273q-9 -22 -16.5 -33.5t-15.5 -11.5zM211 -153q-5 0 -10 6.5t-9 16.5t-7 18
l-102 278q-8 22 -21.5 38.5t-30.5 20.5q-10 3 -15.5 6.5t-5.5 9.5q0 4 5.5 5.5t13.5 1.5q10 0 22 -0.5t25.5 -1t28.5 -0.5q14 0 29 0.5t28.5 0.5h20.5q8 0 13.5 -1t5.5 -5q0 -6 -5 -9.5t-16 -5.5q-27 -5 -32 -25.5t4 -45.5l68 -181q8 -16 12.5 -16.5t11.5 16.5l87 221
l32 -19l-121 -284q-10 -24 -19 -34.5t-13 -10.5z" />
  </g>

</svg>
