<?xml version="1.0" standalone="no"?>
<!DOCTYPE svg PUBLIC "-//W3C//DTD SVG 1.1//EN" "http://www.w3.org/Graphics/SVG/1.1/DTD/svg11.dtd" >
<svg xmlns="http://www.w3.org/2000/svg" xmlns:xlink="http://www.w3.org/1999/xlink" version="1.1" viewBox="-10 0 509 1000">
  <g transform="matrix(1 0 0 -1 0 800)">
   <path fill="currentColor"
d="M134 -9q-33 1 -59 11.5t-40.5 29t-14.5 41.5q0 48 29 79t75 52l13 6l-8 7q-9 10 -24 30t-15 46q0 29 25.5 47.5t65.5 18.5q31 0 56.5 -16.5t25.5 -44.5t-16.5 -48.5t-46.5 -32.5l-10 -4l8 -8l41 -41l39 -39l9 -9l8 8l44.5 44.5t26.5 37.5q1 2 1 3v2q0 7 -5.5 13t-13.5 8
q-3 1 -4.5 5.5t2.5 4.5q19 0 31.5 -1t31.5 -1q17 0 36.5 4t26.5 4q4 0 5.5 -1t1.5 -3q0 -8 -12 -10q-18 -2 -37 -11t-34 -23q-13 -13 -30 -32t-32.5 -35.5t-25.5 -25.5l-9 -8l11 -14q20 -28 36.5 -46.5t53.5 -18.5q14 0 22 6t21 10q3 1 5.5 1t4.5 -2t4 -5.5t-1 -5.5
q-14 -8 -25.5 -16t-23.5 -12.5t-30 -4.5q-37 0 -56 15t-44 51l-8 11l-4 -3q-31 -30 -58.5 -52t-72.5 -22zM145 26q35 0 59 15.5t48 38.5l4 4l-9 10q-18 20 -38 42t-48 50l-8 7l-14 -4q-45 -16 -58 -42t-13 -52q0 -28 23.5 -48.5t53.5 -20.5zM176 229l9 3q23 10 30 27.5
t7 36.5t-13 33t-33 14q-17 0 -30.5 -10t-13.5 -26q0 -24 15.5 -43.5t21.5 -26.5z" />
  </g>

</svg>
