<?xml version="1.0" standalone="no"?>
<!DOCTYPE svg PUBLIC "-//W3C//DTD SVG 1.1//EN" "http://www.w3.org/Graphics/SVG/1.1/DTD/svg11.dtd" >
<svg xmlns="http://www.w3.org/2000/svg" xmlns:xlink="http://www.w3.org/1999/xlink" version="1.1" viewBox="-10 0 317 1000">
  <g transform="matrix(1 0 0 -1 0 800)">
   <path fill="currentColor"
d="M76 705q8 0 11 -9q19 -58 33.5 -101.5t28 -80.5t28.5 -75t34.5 -84t46.5 -108q3 -8 6 -14.5t3 -13.5q0 -2 -1 -4.5t-2 -3.5q-29 -59 -52 -108.5t-42 -96t-38 -97t-41 -112.5q-2 -6 -16 -8.5t-21 -2.5q-5 0 -8.5 3t-3.5 10q0 4 1.5 11t3.5 11q23 59 39.5 101.5t29 76
t24.5 65t27 67t36 82.5q2 4 1.5 6.5l-1.5 7.5q-22 54 -45.5 116.5t-50 140.5t-56.5 180q-1 2 -2.5 9.5t-1.5 9.5q0 10 6.5 16t22.5 6z" />
  </g>

</svg>
