<?xml version="1.0" standalone="no"?>
<!DOCTYPE svg PUBLIC "-//W3C//DTD SVG 1.1//EN" "http://www.w3.org/Graphics/SVG/1.1/DTD/svg11.dtd" >
<svg xmlns="http://www.w3.org/2000/svg" xmlns:xlink="http://www.w3.org/1999/xlink" version="1.1" viewBox="-10 0 450 1000">
  <g transform="matrix(1 0 0 -1 0 800)">
   <path fill="currentColor"
d="M208 -181q-4 0 -7.5 5t-3.5 9v684q-18 -17 -38 -33t-43.5 -31t-54.5 -30q-4 -2 -8.5 -2.5t-5.5 -0.5q-7 0 -7 10q0 7 3.5 15t7.5 12q22 21 43.5 43t41.5 45t38 48.5t33 54.5q5 10 7 11.5t6 1.5q6 0 13 -12q15 -29 33 -54.5t38 -48.5t41.5 -45t43.5 -43q5 -4 8 -12t3 -15
q0 -8 -4 -9t-7 0q-31 12 -58 28t-49 33.5t-39 33.5v-666q0 -9 -6.5 -16t-15 -11.5t-13.5 -4.5z" />
  </g>

</svg>
