<?xml version="1.0" standalone="no"?>
<!DOCTYPE svg PUBLIC "-//W3C//DTD SVG 1.1//EN" "http://www.w3.org/Graphics/SVG/1.1/DTD/svg11.dtd" >
<svg xmlns="http://www.w3.org/2000/svg" xmlns:xlink="http://www.w3.org/1999/xlink" version="1.1" viewBox="-10 0 386 1000">
  <g transform="matrix(1 0 0 -1 0 800)">
   <path fill="currentColor"
d="M335 -152q-47 3 -91 16t-72.5 40.5t-28.5 74.5q0 53 6.5 92.5t6.5 85.5q0 29 -13 51.5t-32.5 37t-41.5 19.5q-7 2 -13 6.5t-6 10.5q0 5 5 10.5t16 8.5q27 7 46 20t29 33.5t10 49.5q0 47 -6.5 86.5t-6.5 91.5q0 47 29 75.5t74 42t92 15.5q7 0 12.5 -4t5.5 -11
q0 -8 -9 -10.5t-17 -3.5q-32 -4 -55 -13t-35 -29t-12 -57q0 -34 3.5 -62.5t6.5 -55t3 -55.5q0 -33 -20.5 -59.5t-48.5 -44.5t-49 -27q-3 -1 -1.5 -2t3.5 -2q12 -3 31.5 -15t39 -30t32.5 -40t13 -47q0 -29 -3 -55.5t-6.5 -55t-3.5 -62.5q0 -36 11.5 -56.5t33.5 -30t54 -12.5
q8 -1 17 -2.5t9 -9.5q0 -7 -5.5 -11.5t-12.5 -3.5z" />
  </g>

</svg>
