<?xml version="1.0" standalone="no"?>
<!DOCTYPE svg PUBLIC "-//W3C//DTD SVG 1.1//EN" "http://www.w3.org/Graphics/SVG/1.1/DTD/svg11.dtd" >
<svg xmlns="http://www.w3.org/2000/svg" xmlns:xlink="http://www.w3.org/1999/xlink" version="1.1" viewBox="-10 0 386 1000">
  <g transform="matrix(1 0 0 -1 0 800)">
   <path fill="currentColor"
d="M335 -122q-47 0 -88.5 9.5t-67.5 30t-26 54.5q0 38 6.5 66.5t6.5 62.5q0 24 -15 40.5t-37 26t-45 11.5q-7 1 -13 4.5t-6 7.5q0 3 5 7.5t16 6.5q27 5 48.5 13.5t34 23t12.5 37.5q0 34 -6.5 62.5t-6.5 65.5q0 34 26.5 55t69 31t89.5 10q7 0 12.5 -3t5.5 -10q0 -6 -9 -9.5
t-17 -4.5q-32 -3 -57.5 -9t-40 -19.5t-14.5 -40.5q0 -24 3.5 -44t6.5 -39t3 -40q0 -37 -30.5 -62t-77.5 -30q-3 -1 -1.5 -2t3.5 -1q25 -1 49 -14t40.5 -33.5t16.5 -45.5q0 -21 -3 -40t-6.5 -38.5t-3.5 -44.5q0 -40 30.5 -52.5t78.5 -17.5q8 -1 17 -2t9 -6t-5.5 -11t-12.5 -6
z" />
  </g>

</svg>
