<?xml version="1.0" standalone="no"?>
<!DOCTYPE svg PUBLIC "-//W3C//DTD SVG 1.1//EN" "http://www.w3.org/Graphics/SVG/1.1/DTD/svg11.dtd" >
<svg xmlns="http://www.w3.org/2000/svg" xmlns:xlink="http://www.w3.org/1999/xlink" version="1.1" viewBox="-10 0 269 1000">
  <g transform="matrix(1 0 0 -1 0 800)">
   <path fill="currentColor"
d="M237 -236q-28 0 -57 8t-48 25.5t-19 45.5v53.5v53.5q0 17 -8 28.5t-21.5 19.5t-31.5 14q-4 2 -5.5 5t-1.5 8t1.5 8t5.5 4q18 6 31.5 13.5t21.5 19t8 28.5q0 28 -0.5 52t-0.5 55q0 28 19 45.5t48 26t58 8.5q5 0 8.5 -2.5t3.5 -6.5q0 -7 -6 -11t-11 -4q-27 0 -48.5 -14
t-21.5 -47q0 -18 0.5 -33.5t0.5 -30v-32.5q0 -21 -12.5 -36.5t-29.5 -26t-31 -15.5q-3 -1 1 -3q11 -2 28 -13t30.5 -28t13.5 -38v-32v-32v-32q0 -33 21 -46.5t48 -13.5q5 0 11 -4t6 -11q0 -4 -3.5 -6.5t-8.5 -2.5z" />
  </g>

</svg>
