<?xml version="1.0" standalone="no"?>
<!DOCTYPE svg PUBLIC "-//W3C//DTD SVG 1.1//EN" "http://www.w3.org/Graphics/SVG/1.1/DTD/svg11.dtd" >
<svg xmlns="http://www.w3.org/2000/svg" xmlns:xlink="http://www.w3.org/1999/xlink" version="1.1" viewBox="-20 0 478 1000">
  <g transform="matrix(1 0 0 -1 0 800)">
   <path fill="currentColor"
d="M51 -290q-4 0 -11 3t-12.5 17t-5.5 45q0 11 5 32t13 36l161 286q-1 3 -1 8t-1 8q-6 45 -19 87t-38 69t-69 27q-27 0 -47.5 -10.5t-25.5 -10.5q-10 0 -10 12q0 15 6.5 31.5t19 31t30.5 23.5t41 9q26 0 46 -15t35 -39.5t24.5 -53t14.5 -54.5q3 -17 7.5 -44t8.5 -50l106 223
q5 9 10.5 21t12.5 12q6 0 25 -2t36.5 -9t17.5 -22q0 -4 -5.5 -9t-13.5 -11q-12 -10 -22.5 -27t-21.5 -34l-123 -208q-5 -9 -4 -20q3 -25 8.5 -50.5t11.5 -48.5q17 -68 33.5 -101t33 -43t32.5 -10q38 0 54.5 12t22.5 12q4 0 7.5 -2.5t3.5 -6.5q0 -13 -8 -30.5t-22.5 -34
t-33.5 -27.5t-41 -11q-31 0 -52.5 22t-33.5 68q-13 48 -23 108.5t-17 112.5h-2l-107 -203q-22 -43 -30.5 -71.5t-12.5 -43t-14 -14.5z" />
  </g>

</svg>
