<?xml version="1.0" standalone="no"?>
<!DOCTYPE svg PUBLIC "-//W3C//DTD SVG 1.1//EN" "http://www.w3.org/Graphics/SVG/1.1/DTD/svg11.dtd" >
<svg xmlns="http://www.w3.org/2000/svg" xmlns:xlink="http://www.w3.org/1999/xlink" version="1.1" viewBox="-10 0 487 1000">
  <g transform="matrix(1 0 0 -1 0 800)">
   <path fill="currentColor"
d="M80.4492 55.3086q-8.37988 0 -16.7598 8.38086q-8.38086 8.37988 -8.38086 16.7598q0 4.19043 2.51465 6.7041l47.7666 47.7666q-15.9229 20.9502 -24.3027 46.0908t-8.37988 52.7949t8.37988 52.7949q8.37988 25.1396 24.3027 45.2529l-47.7666 47.7666
q-2.51465 2.51367 -2.51465 5.86621q0 8.37988 8.7998 17.1787q8.79883 8.79883 17.1787 8.79883q4.19043 0 6.7041 -2.51367l46.0908 -46.0908q20.9502 15.9219 46.0908 25.1406q25.1406 9.21777 53.6328 9.21777t53.6328 -8.79883t45.2529 -25.5596l46.9287 46.9287
q2.51367 2.51465 6.7041 2.51465q7.54199 0 16.3408 -7.96191q8.79883 -7.96094 8.79883 -17.1787q0 -5.02832 -3.35156 -8.38086l-46.0908 -46.0898q15.9219 -20.9512 24.3027 -46.0908q8.37988 -25.1406 8.37988 -52.7949t-8.37988 -52.7949
q-8.38086 -25.1406 -24.3027 -46.0908l47.7666 -47.7666q2.51465 -2.51367 2.51465 -5.86621q0 -8.37988 -8.7998 -17.1787q-8.79883 -8.7998 -17.1787 -8.7998q-4.19043 0 -6.7041 2.51465l-46.9287 46.9287q-41.9014 -34.3594 -98.8857 -34.3594
q-28.4922 0 -53.6328 9.21875q-25.1406 9.21777 -45.2529 25.1406l-47.7666 -46.9287q-2.51367 -2.51465 -6.7041 -2.51465zM233.806 112.294q33.5205 0 60.3369 16.7598q26.8164 16.7607 42.7383 44.415q15.9229 27.6543 15.9229 60.3369q0 33.5205 -15.9229 60.7559
q-15.9219 27.2354 -42.7383 43.9951q-26.8164 16.7607 -60.3369 16.7607q-32.6826 0 -59.918 -16.7607q-27.2354 -16.7598 -43.1572 -43.9951q-15.9229 -27.2354 -15.9229 -60.7559q0 -32.6826 15.9229 -60.3369q15.9219 -27.6543 43.1572 -44.415
q27.2354 -16.7598 59.918 -16.7598z" />
  </g>

</svg>
