<?xml version="1.0" standalone="no"?>
<!DOCTYPE svg PUBLIC "-//W3C//DTD SVG 1.1//EN" "http://www.w3.org/Graphics/SVG/1.1/DTD/svg11.dtd" >
<svg xmlns="http://www.w3.org/2000/svg" xmlns:xlink="http://www.w3.org/1999/xlink" version="1.1" viewBox="-10 0 369 1000">
  <g transform="matrix(1 0 0 -1 0 800)">
   <path fill="currentColor"
d="M240 -9q-3 0 -7 7q-2 5 -3 13t-3 15q-18 -12 -37 -22t-45 -10q-37 0 -64 16t-41.5 42t-14.5 56q0 64 38.5 103.5t111.5 39.5q11 0 20 -1.5t16 -3.5q2 -1 4 -1.5t3 -0.5q3 0 3 15v74q0 19 -5 30.5t-17 13.5q-10 2 -10 13q0 4 2 7t6 4q23 6 38.5 11t25.5 8q5 2 9 3.5t8 1.5
q5 0 5.5 -3t0.5 -5q0 -5 -4 -20.5t-4 -56.5v-273q0 -23 3.5 -31.5t12.5 -8.5q5 0 14 3.5t14 3.5q9 0 9 -12q0 -7 -2 -10t-7 -4q-12 -2 -24 -4.5t-23 -5.5t-20 -5q-4 -1 -7.5 -1.5t-5.5 -0.5zM157 20q11 0 26.5 7t27 20.5t11.5 33.5v77q0 26 -18.5 45t-48.5 19
q-29 0 -49 -18.5t-20 -80.5q0 -46 12 -68t28.5 -28.5t30.5 -6.5z" />
  </g>

</svg>
