<?xml version="1.0" standalone="no"?>
<!DOCTYPE svg PUBLIC "-//W3C//DTD SVG 1.1//EN" "http://www.w3.org/Graphics/SVG/1.1/DTD/svg11.dtd" >
<svg xmlns="http://www.w3.org/2000/svg" xmlns:xlink="http://www.w3.org/1999/xlink" version="1.1" viewBox="-10 0 450 1000">
  <g transform="matrix(1 0 0 -1 0 800)">
   <path fill="currentColor"
d="M220 -118q-13 0 -24 6t-11 24q0 25 5 44.5t10 38.5t5 44q0 10 -11 10q-21 0 -39 -5t-37 -10t-43 -5q-17 0 -26 9t-9 26q0 14 7.5 24.5t23.5 10.5q24 0 43 -5t37.5 -10t39.5 -5q7 0 10.5 6.5t3.5 10.5q0 15 -7.5 27t-15.5 22t-8 18q0 3 2.5 7t5.5 9q4 7 8.5 15t7.5 17.5
t3 20.5v53q0 14 -6 26.5t-12 21.5q-4 6 -6.5 10.5t-2.5 6.5q0 8 8 18t15.5 22.5t7.5 26.5q0 4 -3.5 11t-7.5 7q-24 0 -43 -5l-38 -10t-44 -5q-13 0 -21 10.5t-8 24.5t8 24.5t21 10.5q21 0 39.5 -5t38 -10t43.5 -5q5 0 10 2.5t5 7.5q0 24 -3 38t-7 25t-7 25t-3 38
q0 14 11 21.5t24 7.5t24 -5.5t11 -23.5q0 -25 -5 -44l-10 -38t-5 -44q0 -10 11 -10q21 0 40.5 5t40 10t44.5 5q17 0 23 -9t6 -26q0 -13 -4.5 -24t-20.5 -11q-25 0 -45.5 5t-40 10t-40.5 5q-7 0 -10.5 -6.5t-3.5 -10.5q0 -14 7.5 -26.5t15.5 -23t8 -18.5q0 -3 -2.5 -7
t-6.5 -9q-5 -8 -11.5 -20t-6.5 -29v-53q0 -9 3 -19t7.5 -18.5t8.5 -15.5q3 -5 5.5 -9.5t2.5 -6.5q0 -7 -8 -17.5t-15.5 -22.5t-7.5 -26q0 -4 3.5 -11t7.5 -7q25 0 44 5l38 10t43 5q14 0 21.5 -10.5t7.5 -24.5q0 -13 -7.5 -24t-21.5 -11q-21 0 -39.5 5t-38 10t-43.5 5
q-5 0 -10 -2.5t-5 -7.5q0 -24 3 -38.5t7 -25t7 -25t3 -38.5q0 -13 -11 -21.5t-24 -8.5z" />
  </g>

</svg>
