<?xml version="1.0" standalone="no"?>
<!DOCTYPE svg PUBLIC "-//W3C//DTD SVG 1.1//EN" "http://www.w3.org/Graphics/SVG/1.1/DTD/svg11.dtd" >
<svg xmlns="http://www.w3.org/2000/svg" xmlns:xlink="http://www.w3.org/1999/xlink" version="1.1" viewBox="-10 0 328 1000">
  <g transform="matrix(1 0 0 -1 0 800)">
   <path fill="currentColor"
d="M159 336q-11 0 -13.5 11t-2.5 21q0 72 -2.5 116t-6 68.5t-7.5 36.5q-4 13 -7 15.5t-3 6.5q0 5 6.5 11.5t13 15t6.5 18.5q0 2 -3.5 12.5t-6.5 10.5q-17 0 -30 -3.5t-25.5 -7.5t-31.5 -4q-12 0 -19 10t-7 19q0 11 7 20.5t19 9.5q16 0 28.5 -3.5t25.5 -7.5t29 -4q4 0 9 2
t5 7q0 22 -4 36t-8.5 28.5t-4.5 36.5q0 11 11.5 16.5t21.5 5.5t21.5 -5t11.5 -17q0 -20 -4 -35.5t-8.5 -30.5t-4.5 -35q0 -9 10 -9q16 0 29 4t26.5 7.5t30.5 3.5q13 0 20 -9t7 -21q0 -10 -6 -19.5t-18 -9.5q-17 0 -30.5 4t-26.5 7.5t-29 3.5q-8 0 -10.5 -10t-2.5 -12
q0 -10 6.5 -18.5t13 -15t6.5 -12.5q0 -4 -3 -7t-7 -15t-8 -36.5t-7 -68.5t-3 -115q0 -10 -2 -21.5t-12 -11.5z" />
  </g>

</svg>
