<?xml version="1.0" standalone="no"?>
<!DOCTYPE svg PUBLIC "-//W3C//DTD SVG 1.1//EN" "http://www.w3.org/Graphics/SVG/1.1/DTD/svg11.dtd" >
<svg xmlns="http://www.w3.org/2000/svg" xmlns:xlink="http://www.w3.org/1999/xlink" version="1.1" viewBox="-10 0 269 1000">
  <g transform="matrix(1 0 0 -1 0 800)">
   <path fill="currentColor"
d="M140 -146q-32 0 -58 16t-41.5 43.5t-15.5 59.5q0 38 18.5 68t48.5 48t66 18q29 0 55 -20t26 -61q0 -13 -5.5 -20t-19.5 -7l-125 -1q-6 0 -6 -8q0 -37 18.5 -65.5t55.5 -28.5q16 0 30 4.5t27 16.5q5 5 10 5q4 0 9.5 -6.5t5.5 -11.5q0 -6 -9 -15q-11 -11 -33.5 -23
t-56.5 -12zM97 27h83q10 0 10 10q0 19 -12.5 31t-29.5 12q-23 0 -41.5 -14.5t-18.5 -31.5q0 -7 9 -7z" />
  </g>

</svg>
