<?xml version="1.0" standalone="no"?>
<!DOCTYPE svg PUBLIC "-//W3C//DTD SVG 1.1//EN" "http://www.w3.org/Graphics/SVG/1.1/DTD/svg11.dtd" >
<svg xmlns="http://www.w3.org/2000/svg" xmlns:xlink="http://www.w3.org/1999/xlink" version="1.1" viewBox="-10 0 393 1000">
  <g transform="matrix(1 0 0 -1 0 800)">
   <path fill="currentColor"
d="M243 -287q-43 0 -72 26.5t-29 81.5q0 36 17 68.5t41.5 58.5t44.5 43q-10 -2 -22 -3.5t-25 -1.5q-45 0 -83.5 26.5t-61.5 75.5t-23 115q0 57 26 105t71.5 77t101.5 29q61 0 95 -25.5t34 -65.5q0 -38 -16.5 -52t-60.5 -14h-164q-12 0 -18.5 -5.5t-6.5 -31.5q0 -45 19 -84.5
t53 -64.5t79 -25q19 0 47 9.5t47 34.5q2 2 5.5 4.5t5.5 2.5q5 0 7 -9v-5t-1 -6q-4 -13 -17 -30t-34 -31q-8 -6 -29 -27.5t-39.5 -56.5t-18.5 -84q0 -33 17.5 -51t42.5 -18q26 0 40.5 10.5t18.5 10.5q3 0 5.5 -1t2.5 -6q0 -9 -13.5 -28.5t-36 -35.5t-50.5 -16zM130 288h82
q22 0 39.5 1t33.5 4q5 1 7.5 10.5t2.5 17.5q0 30 -26.5 46t-55.5 16q-28 0 -51 -14.5t-37 -33.5t-14 -32q0 -15 19 -15z" />
  </g>

</svg>
