<?xml version="1.0" standalone="no"?>
<!DOCTYPE svg PUBLIC "-//W3C//DTD SVG 1.1//EN" "http://www.w3.org/Graphics/SVG/1.1/DTD/svg11.dtd" >
<svg xmlns="http://www.w3.org/2000/svg" xmlns:xlink="http://www.w3.org/1999/xlink" version="1.1" viewBox="-10 0 440 1000">
  <g transform="matrix(1 0 0 -1 0 800)">
   <path fill="currentColor"
d="M44 -3q-10 0 -15 2.5t-5 8.5q0 8 6.5 11t16.5 5q23 5 33 14.5t10 29.5v282q-10 0 -23 0.5t-29 1.5q-3 1 -8.5 7t-5.5 11q0 2 3 3.5t4 2.5q18 9 31 16t28 14q0 87 21.5 145t55.5 92t72 48.5t71 14.5q56 0 83 -17t27 -43q0 -20 -10 -30t-24 -10q-9 0 -16.5 7t-17.5 16
q-13 13 -32 24.5t-52 11.5q-47 0 -77.5 -41t-30.5 -126v-88q0 -6 3.5 -8t7.5 -2h125q5 0 9 -3t4 -8q0 -7 -1.5 -15t-4.5 -14q-3 -8 -9 -8h-115q-12 0 -15.5 -3.5t-3.5 -9.5v-271q0 -20 13 -29.5t53 -14.5q23 -3 23 -16q0 -6 -5 -8.5t-15 -2.5q-30 0 -53 2.5t-49 2.5
q-17 0 -28 -1t-23 -2.5t-32 -1.5z" />
  </g>

</svg>
