<?xml version="1.0" standalone="no"?>
<!DOCTYPE svg PUBLIC "-//W3C//DTD SVG 1.1//EN" "http://www.w3.org/Graphics/SVG/1.1/DTD/svg11.dtd" >
<svg xmlns="http://www.w3.org/2000/svg" xmlns:xlink="http://www.w3.org/1999/xlink" version="1.1" viewBox="-10 0 592 1000">
  <g transform="matrix(1 0 0 -1 0 800)">
   <path fill="currentColor"
d="M454 -14q-42 0 -74.5 27.5t-32.5 69.5v254q0 14 -8.5 14t-24.5 1h-114q-27 0 -33.5 -4.5t-6.5 -12.5v-258q0 -31 11.5 -40.5t35.5 -12.5q18 -3 18 -16q0 -4 -2 -7.5t-7 -3.5q-29 0 -50.5 2.5t-47.5 2.5t-42.5 -2.5t-45.5 -2.5q-3 0 -4.5 3t-1.5 7q0 8 3.5 11.5t9.5 4.5
q29 5 41 11.5t12 39.5v276q-10 0 -23 0.5t-29 1.5q-3 1 -6.5 7.5t-3.5 11.5q0 4 3 5q23 6 34 12.5t25 13.5q1 86 22.5 144.5t55 93.5t70.5 50.5t70 15.5q46 0 78 -13.5t32 -45.5q0 -18 -9.5 -29.5t-24.5 -11.5q-4 0 -9 7t-14 17q-12 12 -33.5 23.5t-59.5 11.5
q-51 -1 -77 -47.5t-30 -142.5q0 -15 -0.5 -28.5t-0.5 -26.5q0 -12 7.5 -16t17.5 -4h133q25 0 38 7t21 18.5t17 24.5q4 5 12.5 8.5t13.5 3.5q3 0 4.5 -0.5t1.5 -2.5l-6 -45q-1 -7 5.5 -10.5t16.5 -3.5h118q4 0 6 -7.5t2 -16.5t-2 -16.5t-6 -7.5h-103q-27 0 -33.5 -1.5
t-6.5 -12.5v-231q0 -30 21.5 -53t48.5 -23q33 0 48 7t27 16q5 3 7.5 -2t2.5 -11q0 -2 -0.5 -3.5t-1.5 -3.5q-4 -7 -22 -18.5t-43 -20.5t-51 -9z" />
  </g>

</svg>
