<?xml version="1.0" standalone="no"?>
<!DOCTYPE svg PUBLIC "-//W3C//DTD SVG 1.1//EN" "http://www.w3.org/Graphics/SVG/1.1/DTD/svg11.dtd" >
<svg xmlns="http://www.w3.org/2000/svg" xmlns:xlink="http://www.w3.org/1999/xlink" version="1.1" viewBox="-10 0 490 1000">
  <g transform="matrix(1 0 0 -1 0 800)">
   <path fill="currentColor"
d="M287 -181q-15 0 -15 13v209q0 5 -7 7t-8 2q-41 0 -73 -1.5t-67.5 -3t-88.5 -2.5q-4 0 -8.5 0.5t-4.5 4.5t4 8l286 321q11 12 24.5 28t15.5 16q5 0 4 -4t-1 -8q0 -58 -1 -104t-2 -91.5t-1 -104.5q0 -6 5 -6q11 -1 21 -1h19q14 0 28.5 0.5t30.5 1.5q11 0 11 -7
q0 -8 -4 -18.5t-8.5 -18t-8.5 -7.5q-11 0 -24 0.5t-25 0.5q-9 0 -17 -0.5t-14 -1.5q-4 -1 -8.5 -3t-4.5 -3v-179q0 -12 -13 -23t-27 -18t-18 -7zM115 104h145q4 0 8 2.5t4 5.5v169q0 2 -4 2.5t-6 -1.5l-152 -169q-2 -2 0 -5.5t5 -3.5z" />
  </g>

</svg>
