<?xml version="1.0" standalone="no"?>
<!DOCTYPE svg PUBLIC "-//W3C//DTD SVG 1.1//EN" "http://www.w3.org/Graphics/SVG/1.1/DTD/svg11.dtd" >
<svg xmlns="http://www.w3.org/2000/svg" xmlns:xlink="http://www.w3.org/1999/xlink" version="1.1" viewBox="-10 0 535 1000">
  <g transform="matrix(1 0 0 -1 0 800)">
   <path fill="currentColor"
d="M321 -13q-10 0 -29.5 3t-36.5 7q-7 2 -10 4t-4 4q-2 7 -4.5 22.5t-4 33t-1.5 29.5q0 11 5 15t11 4q4 0 7.5 -5.5t6.5 -14.5q5 -13 13 -30t22 -29.5t36 -12.5q28 0 44 16t23 41t7 50q0 30 -13 53.5t-38 37t-61 13.5q-21 0 -30.5 -3t-13.5 -3q-6 0 -6 4t8 14l111 154
q5 7 6.5 11t1.5 5q0 4 -22.5 10t-59.5 6q-49 0 -77.5 -20t-40 -54.5t-11.5 -80.5v-209q0 -20 10 -26.5t25 -11.5q8 -3 15.5 -6.5t7.5 -11.5q0 -6 -6.5 -7.5t-13.5 -1.5q-19 0 -28.5 1.5t-18 2.5t-26.5 1q-26 0 -41.5 -2.5t-44.5 -2.5q-6 0 -13 1.5t-7 7.5q0 8 7.5 11.5
t15.5 6.5q10 3 20 6.5t16.5 11t6.5 20.5v191q0 54 17 92.5t47 63.5t68.5 36.5t81.5 11.5q19 0 47 -3t56 -8t46.5 -12t18.5 -15q0 -1 -5 -8l-114 -155q-4 -4 -3.5 -6.5t6.5 -2.5q36 0 67.5 -13.5t51.5 -40t20 -65.5q0 -43 -20 -74.5t-57.5 -49t-91.5 -17.5z" />
  </g>

</svg>
