<?xml version="1.0" standalone="no"?>
<!DOCTYPE svg PUBLIC "-//W3C//DTD SVG 1.1//EN" "http://www.w3.org/Graphics/SVG/1.1/DTD/svg11.dtd" >
<svg xmlns="http://www.w3.org/2000/svg" xmlns:xlink="http://www.w3.org/1999/xlink" version="1.1" viewBox="-10 0 545 1000">
  <g transform="matrix(1 0 0 -1 0 800)">
   <path fill="currentColor"
d="M58 -3q-4 0 -11 3t-7 8q0 7 7.5 10t14.5 4q23 5 39 14.5t16 34.5v245q0 26 -10 41.5t-38 20.5q-8 2 -15 6t-7 11q0 6 7 8.5t11 2.5q18 0 31 -1t27 -2t31 -1q16 0 27 1t23.5 1.5t29.5 0.5q5 0 11.5 -2.5t6.5 -7.5q0 -7 -7 -11.5t-15 -5.5q-19 -3 -31 -20t-12 -43v-81
q0 -13 6 -13t20.5 11t30.5 23q31 25 54.5 46.5t47.5 48.5q8 8 0.5 14.5t-18.5 12.5q-8 4 -13 6t-5 9q0 5 7 8t11 3q26 0 42 -0.5t41 -0.5q23 0 42 3t26 3q5 0 11.5 -2.5t6.5 -7.5q0 -7 -7 -11.5t-15 -6.5q-28 -4 -43 -12t-38 -24q-16 -10 -39.5 -28t-47 -38t-40.5 -37
q-3 -3 -2 -7.5t5 -8.5l118 -130q20 -22 49 -44t62 -29q8 -1 14.5 -4t6.5 -10q0 -5 -6.5 -8t-11.5 -3q-17 0 -37 1t-41.5 2t-45.5 1h-13t-10.5 -0.5t-24.5 -0.5q-5 0 -11.5 2.5t-6.5 7.5q0 7 5.5 10t13.5 7t8.5 11t-4.5 13l-123 139q-3 4 -9 8t-10 4t-5 -7t-1 -10v-56.5
v-57.5q0 -25 8 -34.5t32 -14.5q7 -1 14 -4t7 -10q0 -5 -6.5 -8t-11.5 -3q-26 0 -40 2.5t-36 2.5q-31 0 -50.5 -2.5t-45.5 -2.5z" />
  </g>

</svg>
