<?xml version="1.0" standalone="no"?>
<!DOCTYPE svg PUBLIC "-//W3C//DTD SVG 1.1//EN" "http://www.w3.org/Graphics/SVG/1.1/DTD/svg11.dtd" >
<svg xmlns="http://www.w3.org/2000/svg" xmlns:xlink="http://www.w3.org/1999/xlink" version="1.1" viewBox="-10 0 504 1000">
  <g transform="matrix(1 0 0 -1 0 800)">
   <path fill="currentColor"
d="M47 -3q-4 0 -13.5 1t-9.5 8q0 8 7.5 11.5t15.5 6.5q15 5 29 13t14 28v214q0 27 -10.5 47.5t-36.5 25.5q-4 1 -6 5t-2 8q0 10 7 12q38 9 66 25.5t42 25.5q9 6 12 6q7 0 7 -5q-3 -31 -6 -66t-3 -69v-63q0 -8 6 -7q7 2 15.5 8t19.5 16q41 35 72.5 66.5t39.5 43.5q1 1 1 1.5
v1.5q0 12 -24 17l-7 3.5t-5 4.5q0 9 9.5 11.5t12.5 2.5h49q18 0 35 2.5t32.5 5.5t28.5 4q2 0 5 -2t3 -5q0 -6 -6.5 -12.5t-13.5 -8.5q-19 -4 -37.5 -13.5t-32.5 -17.5q-6 -4 -27.5 -21.5t-49 -40.5t-51.5 -44q-6 -4 -6 -11q0 -3 2 -6t6 -6q26 -31 55 -63t53 -56.5t34 -34.5
q17 -16 42 -29.5t40 -18.5q8 -3 15.5 -6.5t7.5 -11.5q0 -6 -7.5 -7.5t-12.5 -1.5q-31 0 -60 2.5t-64 2.5h-29h-29q-4 0 -13.5 1t-9.5 8q0 8 7 12t15 7t15 7t7 11q0 3 -2 6.5t-5 7.5l-126 145q-2 2 -6 0.5t-4 -10.5v-130q0 -20 10 -28t25 -13q8 -3 15.5 -6.5t7.5 -11.5
q0 -7 -9.5 -8t-13.5 -1q-19 0 -28 1.5t-16.5 2.5t-25.5 1q-17 0 -27 -1t-20.5 -2.5t-30.5 -1.5z" />
  </g>

</svg>
