<?xml version="1.0" standalone="no"?>
<!DOCTYPE svg PUBLIC "-//W3C//DTD SVG 1.1//EN" "http://www.w3.org/Graphics/SVG/1.1/DTD/svg11.dtd" >
<svg xmlns="http://www.w3.org/2000/svg" xmlns:xlink="http://www.w3.org/1999/xlink" version="1.1" viewBox="-10 0 607 1000">
  <g transform="matrix(1 0 0 -1 0 800)">
   <path fill="currentColor"
d="M469 -14q-42 0 -74.5 27.5t-32.5 69.5v253q0 10 -4 12.5t-17 2.5h-12q-3 0 -6.5 6.5t-3.5 11.5q0 6 3 7q14 6 22.5 11t17.5 14q3 3 4.5 22.5t2 47t0.5 51.5q0 38 -4.5 71.5t-24.5 54t-66 20.5t-80 -46t-34 -147v-407q0 -22 14 -30.5t29 -13.5q8 -3 15.5 -6.5t7.5 -11.5
q0 -7 -9.5 -8t-13.5 -1q-19 0 -30 1.5t-20.5 2.5t-27.5 1q-17 0 -27 -1t-20.5 -2.5t-30.5 -1.5q-4 0 -13.5 1t-9.5 8q0 8 7.5 11.5t15.5 6.5q15 5 29 13.5t14 30.5v282q-10 0 -23 0.5t-29 1.5q-3 1 -6.5 6.5t-3.5 9.5q0 7 6 9q14 4 28 11l28 14q1 86 22.5 144.5t55 93.5
t70.5 50.5t70 15.5q68 0 98 -42.5t30 -107.5q0 -27 -0.5 -60t-1.5 -57.5l-1 -24.5q0 -7 7 -10.5t17 -3.5h118q4 0 6 -7.5t2 -16.5t-2 -16.5t-6 -7.5h-103q-27 0 -33.5 -1.5t-6.5 -12.5v-231q0 -30 21.5 -53t48.5 -23q33 0 46.5 6t25.5 15q3 3 6 3q4 0 5.5 -4.5t1.5 -9.5
q0 -3 -2 -7q-4 -7 -22 -18.5t-43 -20.5t-51 -9z" />
  </g>

</svg>
