<?xml version="1.0" standalone="no"?>
<!DOCTYPE svg PUBLIC "-//W3C//DTD SVG 1.1//EN" "http://www.w3.org/Graphics/SVG/1.1/DTD/svg11.dtd" >
<svg xmlns="http://www.w3.org/2000/svg" xmlns:xlink="http://www.w3.org/1999/xlink" version="1.1" viewBox="-10 0 785 1000">
  <g transform="matrix(1 0 0 -1 0 800)">
   <path fill="currentColor"
d="M44 -3q-10 0 -15 2.5t-5 8.5q0 8 6.5 10.5t16.5 5.5q15 5 29 14.5t14 29.5v282q-10 0 -23 0.5t-29 1.5q-3 1 -8.5 7t-5.5 11q0 2 3 3.5t4 2.5q23 6 33.5 12.5t25.5 13.5q0 71 21.5 121t55.5 81t72 45.5t71 14.5q56 0 88 -21t32 -39q0 -16 -11.5 -27t-25.5 -11
q-9 0 -16.5 7t-17.5 16q-13 13 -33 23.5t-53 10.5q-50 0 -81.5 -44.5t-31.5 -145.5v-365q0 -19 13.5 -29.5t29.5 -14.5q11 -2 17 -5t6 -11q0 -6 -5 -8.5t-15 -2.5q-20 0 -31 1.5t-20.5 2.5t-27.5 1q-17 0 -28 -1t-23 -2.5t-32 -1.5zM300 -3q-5 0 -12.5 1.5t-7.5 7.5
q0 8 7.5 11.5t15.5 6.5q15 5 29 13.5t14 30.5v282q-10 0 -23 0.5t-29 1.5q-4 2 -7 7t-3 10q0 7 8 9q14 4 26.5 10.5t27.5 13.5q0 90 25 149t63.5 93t79.5 48t74 14q30 0 60 -6t50 -20t20 -39t-18.5 -35.5t-38.5 -10.5q-7 0 -15 4t-12 11q-4 9 -13.5 22.5t-27.5 23.5t-49 10
q-32 0 -61.5 -20t-48 -62t-18.5 -109v-406q0 -22 14 -31t29 -14q8 -3 15.5 -6.5t7.5 -11.5q0 -6 -7.5 -7.5t-12.5 -1.5q-20 0 -31.5 1.5t-21.5 2.5t-28 1q-17 0 -27.5 -1t-22 -2.5t-31.5 -1.5zM574 -3q-9 0 -14.5 2.5t-5.5 8.5q0 8 7.5 11t15.5 5q21 5 32 12.5t11 25.5v217
q0 27 -9.5 48t-35.5 25q-5 1 -7.5 4t-2.5 9q0 11 9 12q40 9 66 24.5t39 25.5q9 7 14 7q6 0 6 -5q0 -8 -2 -31.5t-4.5 -52t-2.5 -51.5v-232q0 -17 11.5 -25t31.5 -13q8 -2 15.5 -5t7.5 -11q0 -11 -20 -11q-19 0 -30.5 1.5t-22 2.5t-28.5 1q-17 0 -28 -1t-22 -2.5t-31 -1.5z
" />
  </g>

</svg>
