<?xml version="1.0" standalone="no"?>
<!DOCTYPE svg PUBLIC "-//W3C//DTD SVG 1.1//EN" "http://www.w3.org/Graphics/SVG/1.1/DTD/svg11.dtd" >
<svg xmlns="http://www.w3.org/2000/svg" xmlns:xlink="http://www.w3.org/1999/xlink" version="1.1" viewBox="-10 0 438 1000">
  <g transform="matrix(1 0 0 -1 0 800)">
   <path fill="currentColor"
d="M44 -3q-6 0 -13 1.5t-7 7.5q0 8 7.5 11.5t15.5 6.5q15 5 29 14.5t14 29.5v282q-10 0 -23 0.5t-29 1.5q-3 1 -8 6.5t-5 10.5q0 2 2.5 4t3.5 3q23 6 34 12.5t25 13.5q0 87 21.5 145.5t55 93.5t71 50t70.5 15q34 0 53 -3.5t41 -21.5q8 -7 12 -15.5t4 -18.5q0 -13 -7 -27
t-27 -14q-11 0 -20 9l-20.5 20.5t-29.5 20.5t-48 9q-46 0 -76 -44.5t-30 -145.5v-407q0 -19 14 -29t29 -15q8 -3 15.5 -6.5t7.5 -11.5q0 -6 -7 -7.5t-13 -1.5q-20 0 -31 1.5t-20.5 2.5t-27.5 1q-17 0 -28 -1t-23 -2.5t-32 -1.5z" />
  </g>

</svg>
