<?xml version="1.0" standalone="no"?>
<!DOCTYPE svg PUBLIC "-//W3C//DTD SVG 1.1//EN" "http://www.w3.org/Graphics/SVG/1.1/DTD/svg11.dtd" >
<svg xmlns="http://www.w3.org/2000/svg" xmlns:xlink="http://www.w3.org/1999/xlink" version="1.1" viewBox="-10 0 482 1000">
  <g transform="matrix(1 0 0 -1 0 800)">
   <path fill="currentColor"
d="M44 -3q-5 0 -12.5 1.5t-7.5 7.5q0 8 7.5 11.5t15.5 6.5q15 5 29 13.5t14 30.5v282q-10 0 -23 0.5t-29 1.5q-4 2 -7 7t-3 10q0 7 8 9q14 4 26.5 10.5t27.5 13.5q0 90 25 149t63.5 93t79.5 48t74 14q30 0 60 -6t50 -20t20 -39t-18.5 -35.5t-38.5 -10.5q-7 0 -15 4t-12 11
q-4 9 -13.5 22.5t-27.5 23.5t-49 10q-32 0 -61.5 -20t-48 -62t-18.5 -109v-406q0 -22 14 -31t29 -14q8 -3 15.5 -6.5t7.5 -11.5q0 -6 -7.5 -7.5t-12.5 -1.5q-20 0 -31.5 1.5t-21.5 2.5t-28 1q-17 0 -27.5 -1t-22 -2.5t-31.5 -1.5z" />
  </g>

</svg>
