<?xml version="1.0" standalone="no"?>
<!DOCTYPE svg PUBLIC "-//W3C//DTD SVG 1.1//EN" "http://www.w3.org/Graphics/SVG/1.1/DTD/svg11.dtd" >
<svg xmlns="http://www.w3.org/2000/svg" xmlns:xlink="http://www.w3.org/1999/xlink" version="1.1" viewBox="-10 0 717 1000">
  <g transform="matrix(1 0 0 -1 0 800)">
   <path fill="currentColor"
d="M331 -17q-12 0 -20 18q-37 77 -67.5 154.5t-72.5 172.5q-3 7 -5.5 7.5t-3.5 -7.5q-2 -28 -5.5 -68.5t-6 -87t-5.5 -93.5q0 -13 5 -31t31 -23q8 -1 16 -4.5t8 -11.5q0 -6 -7.5 -9t-12.5 -3q-19 0 -29 1.5t-17.5 3t-20.5 1.5q-14 0 -23 -1.5t-19.5 -3t-30.5 -1.5
q-5 0 -12.5 3t-7.5 9q0 8 8 11.5t16 4.5q26 5 37.5 21.5t14.5 32.5q5 28 10.5 65t10.5 75.5t9 73.5t6.5 60t2.5 34q0 16 -14 23t-46 12q-9 2 -16.5 7t-7.5 12q0 6 7.5 9t12.5 3q20 0 28 -0.5t15.5 -1.5t25.5 -1q23 0 28 1t15 1h8t4 -2l148 -344q5 -10 8.5 -11t7.5 9
q30 68 58 134t62 151q7 17 14 37.5t11 20.5l38 1q26 0 51 2.5t42 2.5q5 0 12.5 -3t7.5 -9q0 -7 -7.5 -12t-16.5 -7q-31 -5 -44.5 -9.5t-13.5 -24.5q0 -36 0.5 -68t1 -62t1.5 -59.5t2 -60.5t3 -65q2 -23 16.5 -33t40.5 -15q8 -1 16 -4.5t8 -11.5q0 -6 -7.5 -9t-12.5 -3
q-19 0 -33 1.5t-27 3t-31 1.5q-19 0 -34.5 -1.5t-30.5 -3t-35 -1.5q-5 0 -12.5 3t-7.5 9q0 8 8 11.5t16 4.5q26 5 36.5 14.5t10.5 30.5v86.5t-0.5 79.5t-2.5 87q-1 12 -5 11t-9 -11l-142 -324q-4 -8 -8 -12t-9 -4z" />
  </g>

</svg>
