<?xml version="1.0" standalone="no"?>
<!DOCTYPE svg PUBLIC "-//W3C//DTD SVG 1.1//EN" "http://www.w3.org/Graphics/SVG/1.1/DTD/svg11.dtd" >
<svg xmlns="http://www.w3.org/2000/svg" xmlns:xlink="http://www.w3.org/1999/xlink" version="1.1" viewBox="-10 0 547 1000">
  <g transform="matrix(1 0 0 -1 0 800)">
   <path fill="currentColor"
d="M47 439q-5 0 -10 3t-5 7q0 5 5 9.5t10 5.5q10 3 16.5 6.5t7.5 15.5v113q0 17 -2.5 29t-19.5 15q-3 1 -6.5 4t-3.5 7t3.5 7.5t6.5 4.5q25 5 36 14.5t27 19.5q1 0 1 0.5t1 0.5q3 0 6.5 -1.5t4.5 -3.5q0 -4 -1.5 -17.5t-1.5 -22.5q0 -6 1 -7q14 11 39.5 26.5t63.5 15.5
q23 0 38 -9t22 -28q5 -13 19 2q11 12 37 23.5t57 11.5q32 0 51.5 -19t19.5 -54v-132q0 -12 7 -15.5t17 -6.5q5 -1 10 -5.5t5 -9.5q0 -4 -6.5 -7t-8.5 -3q-13 0 -26 1t-27 1q-13 0 -25.5 -1t-25.5 -1q-2 0 -8.5 3t-6.5 7q0 5 5 9.5t10 5.5q10 3 17 6.5t7 15.5v109
q0 22 -13.5 39.5t-34.5 17.5q-16 0 -30 -3.5t-26 -12.5q-6 -4 -9.5 -14.5t-3.5 -28.5v-107q0 -12 7 -15.5t17 -6.5q5 -1 10 -5.5t5 -9.5q0 -4 -6.5 -7t-8.5 -3q-13 0 -26 1t-26 1t-25.5 -1t-25.5 -1q-2 0 -8.5 3t-6.5 7q0 5 5 9.5t10 5.5q10 3 16.5 6.5t6.5 15.5v109
q0 22 -13 39.5t-34 17.5q-16 0 -30 -3.5t-26 -12.5q-6 -4 -9.5 -14t-3.5 -29v-107q1 -12 7 -15.5t16 -6.5q5 -1 10 -5.5t5 -9.5q0 -4 -6.5 -7t-8.5 -3q-13 0 -25 1t-25 1t-25.5 -1t-25.5 -1z" />
  </g>

</svg>
