<?xml version="1.0" standalone="no"?>
<!DOCTYPE svg PUBLIC "-//W3C//DTD SVG 1.1//EN" "http://www.w3.org/Graphics/SVG/1.1/DTD/svg11.dtd" >
<svg xmlns="http://www.w3.org/2000/svg" xmlns:xlink="http://www.w3.org/1999/xlink" version="1.1" viewBox="-10 0 576 1000">
  <g transform="matrix(1 0 0 -1 0 800)">
   <path fill="currentColor"
d="M139 -20q-5 0 -9 5.5t-1 9.5l273 490q7 11 17.5 14t23.5 3q5 0 7.5 -6t-0.5 -11l-273 -490q-6 -10 -16 -12.5t-22 -2.5zM64 314q-5 0 -9.5 4t-4.5 8q0 5 2.5 14t7.5 16.5t14 7.5h428q5 0 9.5 -3t4.5 -8q0 -10 -10 -24.5t-22 -14.5h-420zM64 143q-5 0 -9.5 4t-4.5 8
q0 5 2.5 14t7.5 16.5t14 7.5h428q5 0 9.5 -3t4.5 -8q0 -13 -10 -26t-22 -13h-420z" />
  </g>

</svg>
