<?xml version="1.0" standalone="no"?>
<!DOCTYPE svg PUBLIC "-//W3C//DTD SVG 1.1//EN" "http://www.w3.org/Graphics/SVG/1.1/DTD/svg11.dtd" >
<svg xmlns="http://www.w3.org/2000/svg" xmlns:xlink="http://www.w3.org/1999/xlink" version="1.1" viewBox="-10 0 392 1000">
  <g transform="matrix(1 0 0 -1 0 800)">
   <path fill="currentColor"
d="M51 -3q-7 0 -11 4t-4 8q0 9 15 13q39 8 60.5 17t30 25t8.5 45v382q0 29 -20.5 37.5t-52.5 10.5q-10 1 -18 5t-8 12q0 7 7.5 12t17.5 6q30 4 52 10.5t42 19t45 32.5q1 1 2.5 1h2.5q5 0 9 -2.5t3 -6.5q-2 -15 -3 -32.5t-1 -38.5v-460q0 -25 6.5 -38t26.5 -20.5t61 -17.5
q6 -1 11.5 -4.5t5.5 -8.5q0 -11 -14 -11q-28 0 -48.5 1.5t-40 2.5t-46.5 1q-40 0 -69 -2.5t-70 -2.5z" />
  </g>

</svg>
