<?xml version="1.0" standalone="no"?>
<!DOCTYPE svg PUBLIC "-//W3C//DTD SVG 1.1//EN" "http://www.w3.org/Graphics/SVG/1.1/DTD/svg11.dtd" >
<svg xmlns="http://www.w3.org/2000/svg" xmlns:xlink="http://www.w3.org/1999/xlink" version="1.1" viewBox="-10 0 497 1000">
  <g transform="matrix(1 0 0 -1 0 800)">
   <path fill="currentColor"
d="M231 -14q-56 0 -103 25t-75 70t-28 105q0 62 32 114t85 83t114 31q24 0 45 -6t42 -17q7 -3 8.5 -0.5t-0.5 9.5q-31 113 -97 184.5t-170 93.5q-6 2 -13 5t-7 10t8 9.5t18 2.5q79 0 145.5 -33t116 -94t77 -144t27.5 -184q0 -44 -14 -90t-42 -85.5t-70.5 -64t-98.5 -24.5z
M252 16q35 0 63.5 28.5t45.5 74.5t17 100q0 35 -7.5 63t-25.5 47q-21 23 -49.5 37t-59.5 14q-42 0 -70.5 -25t-43 -64t-14.5 -81q0 -49 19.5 -93.5t52 -72.5t72.5 -28z" />
  </g>

</svg>
