<?xml version="1.0" standalone="no"?>
<!DOCTYPE svg PUBLIC "-//W3C//DTD SVG 1.1//EN" "http://www.w3.org/Graphics/SVG/1.1/DTD/svg11.dtd" >
<svg xmlns="http://www.w3.org/2000/svg" xmlns:xlink="http://www.w3.org/1999/xlink" version="1.1" viewBox="-10 0 627 1000">
  <g transform="matrix(1 0 0 -1 0 800)">
   <path fill="currentColor"
d="M215 -16q-5 0 -12.5 3t-7.5 9q0 8 8 11.5t16 4.5q18 4 35 10t17 22v8q-52 5 -102 23t-82 52.5t-32 87.5q0 55 31.5 92t81 58t103.5 26v10q0 15 -14.5 22t-31.5 10q-9 2 -16.5 7t-7.5 12q0 6 7.5 9t12.5 3q20 0 32.5 -1t25 -2.5t30.5 -1.5t30 1.5t25 2.5t32 1q5 0 12.5 -3
t7.5 -9q0 -7 -7.5 -12t-16.5 -7q-11 -2 -21.5 -5.5t-17.5 -10t-7 -16.5v-10q53 -4 102.5 -23t81.5 -53.5t32 -86.5q0 -53 -31.5 -90.5t-80.5 -59t-104 -26.5v-8q0 -16 14 -22.5t32 -9.5q8 -1 16 -4.5t8 -11.5q0 -6 -7.5 -9t-12.5 -3q-19 0 -32.5 1.5t-25.5 3t-29 1.5
q-18 0 -32 -1.5l-28 -3t-34 -1.5zM271 82v281q-54 -4 -90.5 -39t-36.5 -89q0 -59 34 -103.5t93 -49.5zM346 80q56 5 93 44t37 95q0 57 -36.5 98t-93.5 46v-283z" />
  </g>

</svg>
