<?xml version="1.0" standalone="no"?>
<!DOCTYPE svg PUBLIC "-//W3C//DTD SVG 1.1//EN" "http://www.w3.org/Graphics/SVG/1.1/DTD/svg11.dtd" >
<svg xmlns="http://www.w3.org/2000/svg" xmlns:xlink="http://www.w3.org/1999/xlink" version="1.1" viewBox="-10 0 600 1000">
  <g transform="matrix(1 0 0 -1 0 800)">
   <path fill="currentColor"
d="M282 -8q-4 0 -8 4.5t-4 9.5v211q0 5 -4 5h-202q-5 0 -9.5 4t-4.5 8q0 5 2.5 14t7.5 16.5t14 7.5h189q5 0 6 2t1 6v171q0 11 10 18t21.5 10t14.5 3q5 0 9.5 -4t4.5 -9v-191q0 -6 2 -6h205q5 0 9 -2.5t4 -7.5q0 -13 -8.5 -26.5t-22.5 -13.5h-185q-4 0 -4 -4v-202
q0 -10 -10 -15.5t-21.5 -7t-16.5 -1.5z" />
  </g>

</svg>
