<?xml version="1.0" standalone="no"?>
<!DOCTYPE svg PUBLIC "-//W3C//DTD SVG 1.1//EN" "http://www.w3.org/Graphics/SVG/1.1/DTD/svg11.dtd" >
<svg xmlns="http://www.w3.org/2000/svg" xmlns:xlink="http://www.w3.org/1999/xlink" version="1.1" viewBox="-10 0 1108 1000">
  <g transform="matrix(1 0 0 -1 0 800)">
   <path fill="currentColor"
d="M764 -226q-67 0 -122.5 11.5t-109 34.5t-114.5 59.5t-139 85.5q-11 8 -27 14.5t-24 7.5q-19 5 -47 23t-56 47.5t-46.5 67.5t-18.5 82q0 53 19 99.5t53.5 82t81.5 56t102 20.5q46 0 91.5 -15.5t83 -44t60 -67t22.5 -85.5q0 -63 -18.5 -108t-46 -75.5t-57 -49t-52.5 -27.5
q-8 -3 -15.5 -7t-0.5 -9q53 -34 100.5 -63.5t93.5 -52.5t94.5 -36t104.5 -13q33 0 68 4t72 13t75.5 22.5t78.5 32.5q2 1 3.5 1.5t2.5 0.5q12 0 12 -11q0 -4 -3 -7q-43 -29 -89.5 -47.5t-91 -28.5t-81 -14t-59.5 -4zM330 11q54 0 89 31.5t52.5 80t17.5 97.5q0 55 -19.5 104
t-58.5 80t-97 31q-52 0 -90.5 -28t-59 -72t-20.5 -94q0 -60 22 -112.5t64 -85t100 -32.5z" />
  </g>

</svg>
