<?xml version="1.0" standalone="no"?>
<!DOCTYPE svg PUBLIC "-//W3C//DTD SVG 1.1//EN" "http://www.w3.org/Graphics/SVG/1.1/DTD/svg11.dtd" >
<svg xmlns="http://www.w3.org/2000/svg" xmlns:xlink="http://www.w3.org/1999/xlink" version="1.1" viewBox="-10 0 542 1000">
  <g transform="matrix(1 0 0 -1 0 800)">
   <path fill="currentColor"
d="M331 -285q-5 0 -12.5 1.5t-7.5 7.5q0 8 7.5 11.5t15.5 6.5q15 5 29 11.5t14 26.5v233q0 17 -1.5 23.5t-4.5 6.5h-4.5t-4.5 -2q-8 -7 -28 -20.5t-46 -24t-53 -10.5q-52 0 -97.5 22t-74 65t-28.5 105q0 71 31 124t87 82.5t129 29.5q34 0 62 -5.5t46 -11t20 -5.5q11 0 16 7
t10 18q1 1 3 2.5t4 1.5q5 0 10.5 -3t5.5 -7q0 -10 -6 -41.5t-6 -74.5v-515q0 -20 18.5 -26.5t33.5 -11.5q8 -3 15.5 -6.5t7.5 -11.5q0 -6 -7 -7.5t-13 -1.5q-30 0 -46.5 2.5t-43.5 2.5q-17 0 -27.5 -1t-22 -2.5t-31.5 -1.5zM272 39q33 0 63 13.5t43 27.5v42v60t-0.5 58
t-0.5 35q-1 45 -35.5 76t-84.5 31q-36 0 -68 -20.5t-52 -59.5t-20 -97q0 -50 15.5 -82.5t39.5 -50.5t51 -25.5t49 -7.5z" />
  </g>

</svg>
