<?xml version="1.0" standalone="no"?>
<!DOCTYPE svg PUBLIC "-//W3C//DTD SVG 1.1//EN" "http://www.w3.org/Graphics/SVG/1.1/DTD/svg11.dtd" >
<svg xmlns="http://www.w3.org/2000/svg" xmlns:xlink="http://www.w3.org/1999/xlink" version="1.1" viewBox="-10 0 386 1000">
  <g transform="matrix(1 0 0 -1 0 800)">
   <path fill="currentColor"
d="M240 341q5 0 11.5 -6.5t10.5 -16.5q5 -13 10.5 -28t5.5 -42q0 -14 -12 -25t-35 -22.5t-54 -24.5q-21 -8 -41 -23t-20 -31q0 -38 25 -62.5t76 -24.5q7 0 12.5 0.5t10.5 1.5q5 0 10.5 0.5t13.5 0.5q16 0 29 -16t13 -32q0 -14 -12.5 -24t-27.5 -10q-25 0 -54 10t-54 30
q-28 22 -49 50.5t-32.5 56t-11.5 48.5q0 29 10 42.5t31.5 23t54.5 26.5q24 11 38 20.5t20 23t6 36.5q0 6 3.5 12t11.5 6zM226 509q25 0 42.5 -17.5t17.5 -42.5t-17.5 -42.5t-42.5 -17.5t-42.5 17.5t-17.5 42.5t17.5 42.5t42.5 17.5z" />
  </g>

</svg>
