<?xml version="1.0" standalone="no"?>
<!DOCTYPE svg PUBLIC "-//W3C//DTD SVG 1.1//EN" "http://www.w3.org/Graphics/SVG/1.1/DTD/svg11.dtd" >
<svg xmlns="http://www.w3.org/2000/svg" xmlns:xlink="http://www.w3.org/1999/xlink" version="1.1" viewBox="-10 0 428 1000">
  <g transform="matrix(1 0 0 -1 0 800)">
   <path fill="currentColor"
d="M59 426q-18 0 -18 11q0 4 3.5 7.5t10.5 4.5q22 5 44 17t37 34.5t15 57.5q0 12 -11 27.5t-28 16.5q-22 2 -34.5 14t-12.5 28q0 20 16.5 33t38.5 13q36 0 59.5 -27.5t23.5 -69.5q0 -38 -15 -68.5t-38 -52.5t-47.5 -34t-43.5 -12zM235 426q-18 0 -18 11q0 4 3.5 7.5
t10.5 4.5q22 5 44 17t37 34.5t15 57.5q0 12 -11 27.5t-28 16.5q-22 2 -34.5 14t-12.5 28q0 20 16.5 33t38.5 13q36 0 59.5 -27.5t23.5 -69.5q0 -38 -15 -68.5t-38 -52.5t-47.5 -34t-43.5 -12z" />
  </g>

</svg>
