<?xml version="1.0" standalone="no"?>
<!DOCTYPE svg PUBLIC "-//W3C//DTD SVG 1.1//EN" "http://www.w3.org/Graphics/SVG/1.1/DTD/svg11.dtd" >
<svg xmlns="http://www.w3.org/2000/svg" xmlns:xlink="http://www.w3.org/1999/xlink" version="1.1" viewBox="-10 0 675 1000">
  <g transform="matrix(1 0 0 -1 0 800)">
   <path fill="currentColor"
d="M345 24q-63 0 -117.5 23.5t-96 65.5t-65 96.5t-23.5 117.5t23.5 117.5t65.5 96.5t96.5 65.5t117.5 23.5t117.5 -23.5t96.5 -65.5t65.5 -96.5t23.5 -117.5t-23.5 -117.5t-65.5 -96.5t-97 -65.5t-118 -23.5zM345 58q55 0 103 21t84 58.5t56.5 86t20.5 103.5q0 54 -20.5 102
t-56.5 84t-84 56.5t-102 20.5t-102 -20.5t-84 -56.5t-56.5 -84t-20.5 -102q0 -55 20 -103.5t56 -86t83.5 -58.5t102.5 -21zM483 173q-19 0 -38.5 14t-37 35t-30.5 43.5t-19 38.5q-2 6 -10.5 11t-27.5 5q-6 0 -11 -3t-5 -8l1 -78q0 -16 11 -22t23 -10q7 -2 13 -6t6 -10
q0 -4 -5.5 -7.5t-10.5 -3.5q-24 0 -34 2t-31 2q-14 0 -21.5 -1t-15.5 -2t-24 -1q-4 0 -10 3.5t-6 7.5q0 6 6 10t13 6q12 4 18.5 10t6.5 22v195q0 21 -1.5 28.5t-6.5 9l-15 4.5q-19 5 -19 16q0 14 20 12q13 -1 26 -3t26 -2q23 0 46 2t46 3q39 2 71.5 -18.5t32.5 -60.5
q0 -31 -19.5 -51.5t-42.5 -28.5q-7 -2 -4.5 -7t4.5 -10q10 -26 29 -53t39.5 -45t34.5 -18q3 0 9.5 1t6.5 -5q0 -13 -15 -20t-29 -7zM331 347q29 0 52 18.5t23 47.5q0 24 -19 39t-45 15q-22 0 -30 -8t-8 -22v-70q0 -14 8.5 -17t18.5 -3z" />
  </g>

</svg>
