<?xml version="1.0" standalone="no"?>
<!DOCTYPE svg PUBLIC "-//W3C//DTD SVG 1.1//EN" "http://www.w3.org/Graphics/SVG/1.1/DTD/svg11.dtd" >
<svg xmlns="http://www.w3.org/2000/svg" xmlns:xlink="http://www.w3.org/1999/xlink" version="1.1" viewBox="-10 0 333 1000">
  <g transform="matrix(1 0 0 -1 0 800)">
   <path fill="currentColor"
d="M144 -14q-31 0 -58 9.5t-46 26.5q-5 11 -7.5 37t-3.5 43q0 9 13 9q4 0 7.5 -1.5t4.5 -5.5q13 -49 41.5 -70t57.5 -21t49.5 19.5t20.5 48.5q0 27 -18 46.5t-63 47.5q-34 21 -55 40t-30.5 39t-9.5 45q0 32 15 58t45 41.5t75 15.5q30 0 50 -6t30 -13q8 -11 13.5 -34.5
t5.5 -44.5q0 -7 -10 -7q-6 0 -11.5 2.5t-7.5 6.5q-13 33 -32.5 50.5t-48.5 17.5q-25 0 -44.5 -15t-19.5 -44q0 -23 14.5 -41t54.5 -41q58 -33 86.5 -61.5t28.5 -75.5q0 -54 -41 -88t-106 -34zM176 455q-6 0 -11 6t-9 12q-7 12 -21.5 36.5t-30 51.5t-26 48t-10.5 26q0 7 1 10
t8 3q6 0 15 -7.5t15 -14.5q10 -11 30 -36.5t36 -48.5q2 -3 3.5 -3t3.5 3q17 23 36.5 48.5t29.5 36.5q6 7 14.5 14.5t14.5 7.5q7 0 8 -3t1 -10q0 -5 -10.5 -26t-26 -48t-29.5 -51.5t-22 -36.5q-4 -6 -9 -12t-11 -6z" />
  </g>

</svg>
