<?xml version="1.0" standalone="no"?>
<!DOCTYPE svg PUBLIC "-//W3C//DTD SVG 1.1//EN" "http://www.w3.org/Graphics/SVG/1.1/DTD/svg11.dtd" >
<svg xmlns="http://www.w3.org/2000/svg" xmlns:xlink="http://www.w3.org/1999/xlink" version="1.1" viewBox="-10 0 333 1000">
  <g transform="matrix(1 0 0 -1 0 800)">
   <path fill="currentColor"
d="M144 -14q-31 0 -58 9.5t-46 26.5q-5 11 -7.5 37t-3.5 43q0 9 13 9q4 0 7.5 -1.5t4.5 -5.5q13 -49 41.5 -70t57.5 -21t49.5 19.5t20.5 48.5q0 27 -18 46.5t-63 47.5q-34 21 -55 40t-30.5 39t-9.5 45q0 32 15 58t45 41.5t75 15.5q30 0 50 -6t30 -13q8 -11 13.5 -34.5
t5.5 -44.5q0 -7 -10 -7q-6 0 -11.5 2.5t-7.5 6.5q-13 33 -32.5 50.5t-48.5 17.5q-25 0 -44.5 -15t-19.5 -44q0 -23 14.5 -41t54.5 -41q58 -33 86.5 -61.5t28.5 -75.5q0 -54 -41 -88t-106 -34zM110 -274q-16 0 -23 9t-7 32q0 9 3.5 14t9.5 5q8 0 19 -5.5t34 -5.5
q20 0 29.5 13t9.5 32q0 29 -17.5 43t-41.5 14q-10 0 -15.5 -3t-10.5 -3t-11.5 4t-6.5 11q0 4 5 11l88 111h31l-38 -50q-5 -7 -5 -10q0 -6 11 -11q24 -10 42.5 -30.5t18.5 -45.5q0 -30 -14 -55t-35 -42.5t-41.5 -27.5t-34.5 -10z" />
  </g>

</svg>
