<?xml version="1.0" standalone="no"?>
<!DOCTYPE svg PUBLIC "-//W3C//DTD SVG 1.1//EN" "http://www.w3.org/Graphics/SVG/1.1/DTD/svg11.dtd" >
<svg xmlns="http://www.w3.org/2000/svg" xmlns:xlink="http://www.w3.org/1999/xlink" version="1.1" viewBox="-10 0 410 1000">
  <g transform="matrix(1 0 0 -1 0 800)">
   <path fill="currentColor"
d="M123 -148q-26 0 -44 9.5t-18 22.5q0 7 5.5 23t22.5 29q5 4 11.5 0.5t10.5 -6.5q13 -11 32.5 -17.5t36.5 -6.5q26 0 39 21.5t13 60.5q0 25 -17.5 52t-44 54.5t-52.5 54.5q-46 47 -70 91.5t-24 88.5q0 45 8.5 77.5t23.5 58t34 48.5q8 29 27 58.5t48 49t64 19.5
q19 0 40.5 -5.5t29.5 -13.5q5 -4 8.5 -8t3.5 -10q0 -2 -5 -13.5t-13.5 -22.5t-19.5 -11q-7 0 -13 6q-15 14 -31.5 24t-30.5 10q-30 0 -45.5 -19.5t-15.5 -43.5q0 -18 13.5 -42.5t37.5 -51.5t53 -54q42 -37 65 -72.5t31.5 -72.5t8.5 -81q0 -58 -23 -115.5t-61 -105t-85 -75.5
q-11 -7 -25.5 -9t-28.5 -2zM286 51q2 -4 5.5 -3.5t4.5 3.5q5 20 8 36.5t3 36.5q0 52 -22.5 93.5t-67.5 87.5q-21 22 -46.5 48.5t-47 54t-29.5 50.5q-1 4 -5 3.5t-5 -3.5q-5 -20 -8 -36.5t-3 -36.5q0 -52 22.5 -93t67.5 -88q21 -21 46.5 -48t47 -54.5t29.5 -50.5z" />
  </g>

</svg>
