<?xml version="1.0" standalone="no"?>
<!DOCTYPE svg PUBLIC "-//W3C//DTD SVG 1.1//EN" "http://www.w3.org/Graphics/SVG/1.1/DTD/svg11.dtd" >
<svg xmlns="http://www.w3.org/2000/svg" xmlns:xlink="http://www.w3.org/1999/xlink" version="1.1" viewBox="-10 0 449 1000">
  <g transform="matrix(1 0 0 -1 0 800)">
   <path fill="currentColor"
d="M122 -42q-11 0 -18.5 6t-7.5 17q0 7 7 19.5t14 24.5l195 339q3 5 0 7.5t-10 2.5l-171 3q-15 0 -31.5 -3.5t-28.5 -19.5q-4 -4 -11.5 -13t-14.5 -9q-3 0 -4 2t-1 6q0 5 1.5 11.5t2.5 10.5q5 22 8.5 43.5t3.5 40.5q0 8 4 9.5t6 1.5t23 -1.5t40 -2.5q22 -1 49.5 -1h57.5
q45 0 76 0.5t51 2t29 3.5q3 0 5 -5t2 -9q0 -8 -7.5 -21.5t-16.5 -26.5t-14 -22l-220 -389q-4 -8 -10 -17.5t-9 -9.5z" />
  </g>

</svg>
