<?xml version="1.0" standalone="no"?>
<!DOCTYPE svg PUBLIC "-//W3C//DTD SVG 1.1//EN" "http://www.w3.org/Graphics/SVG/1.1/DTD/svg11.dtd" >
<svg xmlns="http://www.w3.org/2000/svg" xmlns:xlink="http://www.w3.org/1999/xlink" version="1.1" viewBox="-17 0 508 1000">
  <g transform="matrix(1 0 0 -1 0 800)">
   <path fill="currentColor"
d="M407 -85q-48 0 -90 1t-80.5 2.5t-75 2.5t-74.5 1h-19.5h-19h-19h-19.5q-3 0 -7 10.5t-7 20.5l-3 10q0 5 10.5 17t25.5 27t28 30l225 244v6l-277 348q-3 4 2 11t9 7q28 0 45 -0.5t30.5 -1t29.5 -1t42 -0.5h53t62 0.5t52 0.5q34 1 57.5 1.5t27.5 0.5q5 0 11 -2t7 -7
q5 -28 10 -55.5t5 -47.5q0 -9 -4.5 -12t-9.5 -3t-7 2.5t-4 7.5q-4 17 -9.5 32.5t-12.5 22.5q-14 16 -31 21.5t-36 5.5l-178 -2q-11 -1 -15 -3t-4 -5q0 -2 1.5 -4t2.5 -4l220 -284q4 -5 1.5 -11.5t-5.5 -10.5l-250 -262q-7 -8 -4.5 -17.5t13.5 -9.5h175q32 0 53.5 3.5
t37.5 13.5q16 11 29 29t28 48q3 6 7 10t9 3t8 -4.5t3 -9.5q0 -9 -6 -33.5t-16 -59t-23 -73.5q-2 -7 -5 -12t-9 -5z" />
  </g>

</svg>
