<?xml version="1.0" standalone="no"?>
<!DOCTYPE svg PUBLIC "-//W3C//DTD SVG 1.1//EN" "http://www.w3.org/Graphics/SVG/1.1/DTD/svg11.dtd" >
<svg xmlns="http://www.w3.org/2000/svg" xmlns:xlink="http://www.w3.org/1999/xlink" version="1.1" viewBox="-10 0 1058 1000">
  <g transform="matrix(1 0 0 -1 0 800)">
   <path fill="currentColor"
d="M80 506h41v-104h-41v104zM80 349h41v-104h-41v104zM80 193h41v-104h-41v104zM80 36h41v-104h-41v104zM856 -184h71v64h41v-105h-112v41zM243 622v41h103v-41h-103zM399 622v41h103v-41h-103zM554 622v41h103v-41h-103zM710 622v41h103v-41h-103zM968 -68h-41v104h41v-104
zM968 89h-41v104h41v-104zM968 245h-41v104h41v-104zM968 402h-41v104h41v-104zM807 -184v-41h-102v41h102zM653 -184v-41h-102v41h102zM499 -184v-41h-101v41h101zM345 -184v-41h-102v41h102zM191 -225h-111v105h41v-64h70v-41zM927 559v63h-71v41h112v-104h-41zM80 559
v104h112v-41h-71v-63h-41zM392 -3q-5 0 -12.5 3t-7.5 9q0 8 8 11.5t16 4.5q26 5 46 16t20 38v303q0 24 -5.5 28t-30.5 4h-62q-16 0 -33 -16t-25 -29q-2 -4 -5.5 -9t-8.5 -8.5t-10 -3.5q-4 0 -5.5 2t-1.5 6q0 6 2.5 14t6 27.5t5.5 56.5q1 11 5.5 13t6.5 2q4 0 8.5 -3t13.5 -7
q10 -4 25 -7.5t39 -3.5h223q31 0 52 4t35 9q8 3 14.5 5t10.5 2t6.5 -3.5t2.5 -7.5q0 -25 1 -42t2 -28.5t1 -22.5q0 -3 -2.5 -11.5t-8.5 -7.5t-10 7.5t-7 15.5q-7 21 -22 33.5t-43 12.5l-78 -1q-13 0 -20 -10.5t-7 -20.5v-303q0 -27 20 -38t46 -16q8 -1 16 -4.5t8 -11.5
q0 -6 -7.5 -9t-12.5 -3q-19 0 -35.5 1.5t-33.5 3t-38 1.5t-38 -1.5t-33.5 -3t-36.5 -1.5z" />
  </g>

</svg>
