<?xml version="1.0" standalone="no"?>
<!DOCTYPE svg PUBLIC "-//W3C//DTD SVG 1.1//EN" "http://www.w3.org/Graphics/SVG/1.1/DTD/svg11.dtd" >
<svg xmlns="http://www.w3.org/2000/svg" xmlns:xlink="http://www.w3.org/1999/xlink" version="1.1" viewBox="-10 0 1058 1000">
  <g transform="matrix(1 0 0 -1 0 800)">
   <path fill="currentColor"
d="M80 506h41v-104h-41v104zM80 349h41v-104h-41v104zM80 193h41v-104h-41v104zM80 36h41v-104h-41v104zM856 -184h71v64h41v-105h-112v41zM243 622v41h103v-41h-103zM399 622v41h103v-41h-103zM554 622v41h103v-41h-103zM710 622v41h103v-41h-103zM968 -68h-41v104h41v-104
zM968 89h-41v104h41v-104zM968 245h-41v104h41v-104zM968 402h-41v104h41v-104zM807 -184v-41h-102v41h102zM653 -184v-41h-102v41h102zM499 -184v-41h-101v41h101zM345 -184v-41h-102v41h102zM191 -225h-111v105h41v-64h70v-41zM927 559v63h-71v41h112v-104h-41zM80 559
v104h112v-41h-71v-63h-41zM242 -3q-5 0 -12.5 3t-7.5 9q0 8 8 11.5t16 4.5q26 5 46 16t20 38v273q0 30 -13 47.5t-45 22.5q-9 2 -16.5 7t-7.5 12q0 6 7.5 9t12.5 3q20 0 35.5 -1t31 -2.5t33.5 -1.5t33 1.5t31 2.5t35 1q5 0 12.5 -3t7.5 -9q0 -7 -7.5 -12t-16.5 -7
q-31 -5 -44.5 -22.5t-13.5 -47.5v-94q0 -6 10 -6q38 0 60 -1t52 -1q26 0 58 1t65 1q5 0 5 8v92q0 29 -13 47t-45 23q-9 2 -16.5 7t-7.5 12q0 6 7.5 9t12.5 3q20 0 35.5 -1t31 -2.5t33.5 -1.5t33 1.5t31 2.5t35 1q5 0 12.5 -3t7.5 -9q0 -7 -7.5 -12t-16.5 -7
q-31 -5 -44.5 -23t-13.5 -47v-273q0 -27 20 -38t46 -16q8 -1 16 -4.5t8 -11.5q0 -6 -7.5 -9t-12.5 -3q-19 0 -35.5 1.5t-33.5 3t-38 1.5t-38 -1.5t-33.5 -3t-36.5 -1.5q-5 0 -12.5 3t-7.5 9q0 8 8 11.5t16 4.5q26 5 46 16t20 38v133q0 5 -4 5q-40 0 -67.5 1t-59.5 1
q-26 0 -54 -1t-62 -1q-3 0 -3 -7v-131q0 -27 20 -38t46 -16q8 -1 16 -4.5t8 -11.5q0 -6 -7.5 -9t-12.5 -3q-19 0 -35.5 1.5t-33.5 3t-38 1.5t-38 -1.5t-33.5 -3t-36.5 -1.5z" />
  </g>

</svg>
