<?xml version="1.0" standalone="no"?>
<!DOCTYPE svg PUBLIC "-//W3C//DTD SVG 1.1//EN" "http://www.w3.org/Graphics/SVG/1.1/DTD/svg11.dtd" >
<svg xmlns="http://www.w3.org/2000/svg" xmlns:xlink="http://www.w3.org/1999/xlink" version="1.1" viewBox="-10 0 1058 1000">
  <g transform="matrix(1 0 0 -1 0 800)">
   <path fill="currentColor"
d="M80 506h41v-104h-41v104zM80 349h41v-104h-41v104zM80 193h41v-104h-41v104zM80 36h41v-104h-41v104zM856 -184h71v64h41v-105h-112v41zM243 622v41h103v-41h-103zM399 622v41h103v-41h-103zM554 622v41h103v-41h-103zM710 622v41h103v-41h-103zM968 -68h-41v104h41v-104
zM968 89h-41v104h41v-104zM968 245h-41v104h41v-104zM968 402h-41v104h41v-104zM807 -184v-41h-102v41h102zM653 -184v-41h-102v41h102zM499 -184v-41h-101v41h101zM345 -184v-41h-102v41h102zM191 -225h-111v105h41v-64h70v-41zM927 559v63h-71v41h112v-104h-41zM80 559
v104h112v-41h-71v-63h-41zM412 -3q-5 0 -12.5 3t-7.5 9q0 8 8 11.5t16 4.5q26 5 46 16t20 38v65q0 14 -2 25.5t-4.5 19.5t-5.5 11l-87 148q-15 26 -25.5 39t-23.5 20t-35 14q-9 3 -16.5 7.5t-7.5 11.5q0 6 7.5 9t12.5 3q29 0 45.5 -2.5t43.5 -2.5q26 0 44 2.5t47 2.5
q5 0 12.5 -3t7.5 -9q0 -7 -8 -12t-16 -7q-21 -4 -30 -13t5 -32l87 -146q4 -7 5.5 -7t5.5 7l81 155q8 14 -0.5 23t-19.5 14q-9 4 -16.5 8t-7.5 11q0 6 7.5 9t12.5 3q20 0 28.5 -1t17 -2.5t26.5 -1.5t27.5 1.5t20.5 2.5t30 1q5 0 12.5 -3t7.5 -9q0 -7 -7.5 -12t-16.5 -7
q-34 -9 -53 -17t-36 -35l-69 -124q-13 -24 -22.5 -42.5t-9.5 -35.5v-89q0 -18 9 -28.5t24.5 -16t32.5 -9.5q8 -1 16 -4.5t8 -11.5q0 -6 -7.5 -9t-12.5 -3q-19 0 -35.5 1.5t-33.5 3t-38 1.5t-38 -1.5t-33.5 -3t-36.5 -1.5z" />
  </g>

</svg>
