<?xml version="1.0" standalone="no"?>
<!DOCTYPE svg PUBLIC "-//W3C//DTD SVG 1.1//EN" "http://www.w3.org/Graphics/SVG/1.1/DTD/svg11.dtd" >
<svg xmlns="http://www.w3.org/2000/svg" xmlns:xlink="http://www.w3.org/1999/xlink" version="1.1" viewBox="-10 0 1058 1000">
  <g transform="matrix(1 0 0 -1 0 800)">
   <path fill="currentColor"
d="M80 506h41v-104h-41v104zM80 349h41v-104h-41v104zM80 193h41v-104h-41v104zM80 36h41v-104h-41v104zM856 -184h71v64h41v-105h-112v41zM243 622v41h103v-41h-103zM399 622v41h103v-41h-103zM554 622v41h103v-41h-103zM710 622v41h103v-41h-103zM968 -68h-41v104h41v-104
zM968 89h-41v104h41v-104zM968 245h-41v104h41v-104zM968 402h-41v104h41v-104zM807 -184v-41h-102v41h102zM653 -184v-41h-102v41h102zM499 -184v-41h-101v41h101zM345 -184v-41h-102v41h102zM191 -225h-111v105h41v-64h70v-41zM927 559v63h-71v41h112v-104h-41zM80 559
v104h112v-41h-71v-63h-41zM710 -14q-20 0 -38 6t-33.5 17.5t-28.5 26.5q-10 12 -26.5 36.5t-33.5 52.5t-28 49q-6 11 -25 20t-42 9q-5 0 -12.5 -4.5t-7.5 -11.5v-108q0 -27 12 -37t38 -15q8 -1 16 -4.5t8 -11.5q0 -6 -7.5 -9t-12.5 -3q-15 0 -26 0.5t-20.5 1.5t-20 1.5
t-24.5 0.5q-21 0 -38 -1.5t-33.5 -3t-36.5 -1.5q-5 0 -12.5 3t-7.5 9q0 8 8 11.5t16 4.5q26 5 46 16t20 38v273q0 31 -13 48t-45 22q-9 2 -16.5 7t-7.5 12q0 6 7.5 9t12.5 3q20 0 34 -1t28 -2.5t31 -1.5q21 0 52.5 2.5t62.5 2.5q44 0 82.5 -10t62.5 -34.5t24 -68.5
q1 -29 -12 -51.5t-32 -36.5t-38 -20q-10 -3 -7 -10q10 -25 25 -54t32.5 -55t32.5 -44q11 -12 29.5 -23t35.5 -18t25 -8q5 -1 11.5 -3.5t6.5 -10.5q0 -6 -12 -10.5t-29 -7t-33 -2.5zM460 231q57 0 96.5 22t38.5 77q0 32 -19 52.5t-47.5 31t-59.5 10.5q-19 0 -26.5 -5.5
t-7.5 -22.5v-140q0 -18 6.5 -21.5t18.5 -3.5z" />
  </g>

</svg>
