<?xml version="1.0" standalone="no"?>
<!DOCTYPE svg PUBLIC "-//W3C//DTD SVG 1.1//EN" "http://www.w3.org/Graphics/SVG/1.1/DTD/svg11.dtd" >
<svg xmlns="http://www.w3.org/2000/svg" xmlns:xlink="http://www.w3.org/1999/xlink" version="1.1" viewBox="-10 0 911 1000">
  <g transform="matrix(1 0 0 -1 0 800)">
   <path fill="currentColor"
d="M853 651q13 0 21 -2.5t8 -8.5q0 -7 -8 -11t-25 -7q-25 -5 -41 -24t-21 -54q-12 -90 -21 -171.5t-14.5 -147t-5.5 -107.5v-17t1 -16q1 -8 3 -16.5t12 -16.5q18 -15 35 -20.5t40 -9.5q10 -2 16 -7.5t6 -12.5q0 -8 -9.5 -9.5t-24.5 -1.5q-10 0 -30.5 1t-44.5 3t-44.5 3
t-30.5 1q-7 0 -12 4t-7 12q-5 18 -10 38t-12 39l-158 401q-3 7 -11 8.5t-12 -5.5l-197 -410q-5 -17 -10 -38t-8 -37q-3 -13 -10 -13h-36q-30 0 -63.5 -4t-50.5 -4q-5 0 -13 1.5t-8 8.5t5.5 11t20.5 10q13 5 29 11t30 12q10 4 17 13.5t7 20.5q0 70 -2.5 131.5t-5.5 118
t-7 111.5t-7 112q-2 31 -20 47.5t-55 23.5q-17 3 -25 7t-8 11q0 6 8 8.5t21 2.5q27 0 44.5 -1.5t33.5 -2.5t39 -1q20 0 33.5 1t29 2.5t42.5 1.5q13 0 21 -2.5t8 -8.5q0 -7 -8 -11.5t-25 -6.5q-29 -4 -40 -20.5t-11 -51.5q0 -72 1.5 -130t4.5 -114.5t6 -123.5q1 -11 6 -10.5
t10 10.5l230 469q2 5 9 5.5t9 -6.5q39 -117 83.5 -230.5t100.5 -244.5q2 -5 7 -5t6 5q9 70 16.5 128.5t11.5 115.5t4 125q0 27 -17 49.5t-48 28.5q-17 3 -25 7t-8 11q0 6 8 8.5t21 2.5q27 0 40.5 -1.5t24 -2.5t29.5 -1q18 0 28 1t23 2.5t40 1.5z" />
  </g>

</svg>
