<?xml version="1.0" standalone="no"?>
<!DOCTYPE svg PUBLIC "-//W3C//DTD SVG 1.1//EN" "http://www.w3.org/Graphics/SVG/1.1/DTD/svg11.dtd" >
<svg xmlns="http://www.w3.org/2000/svg" xmlns:xlink="http://www.w3.org/1999/xlink" version="1.1" viewBox="-10 0 584 1000">
  <g transform="matrix(1 0 0 -1 0 800)">
   <path fill="currentColor"
d="M266 -5q-13 0 -21 2.5t-8 8.5q0 7 8 11t25 7q38 7 59 29t21 58v439q0 13 -3 27.5t-12 23.5q-8 8 -26.5 16.5t-37.5 8.5q-42 0 -74.5 -21t-52.5 -55.5t-23 -76.5q-3 -44 12 -88.5t44 -73.5t69 -29q20 0 29 2t13 2q5 0 9.5 -4.5t4.5 -8.5t-14 -8.5t-32.5 -7.5t-33.5 -3
q-57 0 -95.5 19.5t-60.5 49.5t-31.5 63t-9.5 60q0 69 35 116t94.5 71t130.5 24q22 0 39.5 -1.5t34.5 -3.5t37 -2q22 0 36 0.5t30 1.5t43 1q13 0 21 -2.5t8 -8.5q0 -7 -8 -12t-25 -8q-37 -7 -54 -22t-17 -50v-450q0 -37 11.5 -53t48.5 -23q33 -6 33 -18q0 -6 -8 -8.5
t-21 -2.5q-27 0 -46.5 2t-38.5 3.5t-45 1.5q-19 0 -30.5 -1.5t-26 -3.5t-41.5 -2z" />
  </g>

</svg>
