<?xml version="1.0" standalone="no"?>
<!DOCTYPE svg PUBLIC "-//W3C//DTD SVG 1.1//EN" "http://www.w3.org/Graphics/SVG/1.1/DTD/svg11.dtd" >
<svg xmlns="http://www.w3.org/2000/svg" xmlns:xlink="http://www.w3.org/1999/xlink" version="1.1" viewBox="-10 0 499 1000">
  <g transform="matrix(1 0 0 -1 0 800)">
   <path fill="currentColor"
d="M219 69q-5 -4 -12 -2.5t-10 4.5q-5 5 -3.5 14t8.5 15l130 131q4 3 9.5 4t7.5 -1q1 -1 1 -1.5t1 -1.5q3 -10 2 -19.5t-9 -17.5zM42 -3q-23 0 -23 11q0 8 7.5 10.5t15.5 5.5q15 5 29 13t14 28v501q0 35 -10 51t-35 22q-9 2 -9 13q0 10 8 12q26 6 45 12.5t34.5 13t30.5 12.5
q6 3 9 3t4.5 -2t1.5 -7q0 -10 -4.5 -40t-4.5 -94v-328q0 -9 5 -9q6 0 15.5 5t20.5 15q41 35 68.5 63.5t37.5 39.5q5 6 7 9.5t2 5.5q0 5 -8.5 9t-17.5 6q-12 3 -12 10q0 5 6 8.5t16 3.5h49q16 0 33.5 3t33 6t24.5 3q14 0 14 -10q0 -6 -7 -10.5t-18 -7.5q-19 -5 -35.5 -14
t-30.5 -17q-6 -4 -27.5 -21.5t-49 -40.5t-51.5 -44q-6 -6 -6 -10q0 -1 1 -3l2 -4q26 -32 56 -65t55.5 -58t35.5 -35q17 -16 38.5 -28.5t36.5 -17.5q11 -4 20.5 -7t9.5 -11q0 -11 -20 -11q-39 0 -87.5 1.5t-99.5 1.5q-18 0 -18 9q0 6 5 10t12 6q11 4 19 9t8 14q0 3 -2 6.5
t-5 7.5l-121 137q-6 7 -10 7q-5 0 -5 -7q-1 -14 -1 -30.5v-33.5v-35t1 -35q0 -20 10 -28t25 -13q8 -3 15.5 -5.5t7.5 -10.5q0 -7 -9.5 -9t-13.5 -2q-19 0 -28 1.5t-16.5 2.5t-25.5 1q-17 0 -27 -1t-20.5 -2.5t-30.5 -1.5z" />
  </g>

</svg>
