<?xml version="1.0" standalone="no"?>
<!DOCTYPE svg PUBLIC "-//W3C//DTD SVG 1.1//EN" "http://www.w3.org/Graphics/SVG/1.1/DTD/svg11.dtd" >
<svg xmlns="http://www.w3.org/2000/svg" xmlns:xlink="http://www.w3.org/1999/xlink" version="1.1" viewBox="-10 0 632 1000">
  <g transform="matrix(1 0 0 -1 0 800)">
   <path fill="currentColor"
d="M133 -14q-10 0 -30.5 6.5t-39 15t-21.5 14.5q-5 11 -8.5 27.5t-4.5 33.5q0 5 5 7t11 2q13 0 14 -7q4 -17 17.5 -32.5t32 -25.5t35.5 -10q39 0 54.5 20t15.5 48t-11.5 43.5t-29 26t-35.5 22.5q-24 16 -45 31t-33.5 35t-12.5 52q0 44 22.5 74t69.5 40q-9 3 -16.5 18.5
t-12 36.5t-4.5 40q0 44 25 80.5t70 58.5t105 22q22 0 48.5 -8t51 -24t40 -39.5t15.5 -55.5l-1 -124q0 -7 6 -10.5t16 -3.5h118q4 0 6 -7.5t2 -16.5t-2 -16.5t-6 -7.5h-103q-27 0 -33.5 -1.5t-6.5 -12.5v-231q0 -30 21.5 -53t48.5 -23q33 0 48 7t27 16q5 3 7.5 -2t2.5 -11
q0 -2 -0.5 -3.5t-1.5 -3.5q-4 -7 -22 -18.5t-43 -20.5t-51 -9q-42 0 -74.5 27.5t-32.5 69.5v252q0 17 -21 17h-12q-3 1 -6.5 7t-3.5 11t3 6q32 13 44.5 32.5t15.5 34.5q3 14 3.5 29t0.5 29q0 35 -15.5 65.5t-42 49.5t-61.5 19q-40 0 -75.5 -17.5t-57.5 -48t-22 -69.5
q0 -18 4.5 -38t15.5 -34t31 -14q30 0 49 -6t26 -14q8 -24 11 -42t3 -39q0 -2 -1.5 -3t-3.5 -1q-8 0 -19.5 6.5t-13.5 13.5q-4 29 -24 37.5t-36 8.5q-29 0 -49.5 -16.5t-20.5 -42.5q0 -20 14.5 -38t34.5 -32.5t36 -23.5q17 -9 38 -24t36 -37.5t15 -54.5q0 -34 -13.5 -61.5
t-46 -43t-90.5 -15.5z" />
  </g>

</svg>
