<?xml version="1.0" standalone="no"?>
<!DOCTYPE svg PUBLIC "-//W3C//DTD SVG 1.1//EN" "http://www.w3.org/Graphics/SVG/1.1/DTD/svg11.dtd" >
<svg xmlns="http://www.w3.org/2000/svg" xmlns:xlink="http://www.w3.org/1999/xlink" version="1.1" viewBox="-155 0 311 1000">
  <g transform="matrix(1 0 0 -1 0 800)">
   <path fill="currentColor"
d="M-130 -219q-15 0 -15 10q0 6 7 12l98 83q14 12 22 17t19 5t19 -5t22 -17l98 -83q6 -5 6 -12q0 -11 -14 -11q-5 0 -20.5 6.5t-35 16t-37.5 18.5t-28 15q-7 4 -10 4t-10 -4q-10 -6 -28 -15t-37.5 -18t-35 -15.5t-20.5 -6.5z" />
  </g>

</svg>
