<?xml version="1.0" standalone="no"?>
<!DOCTYPE svg PUBLIC "-//W3C//DTD SVG 1.1//EN" "http://www.w3.org/Graphics/SVG/1.1/DTD/svg11.dtd" >
<svg xmlns="http://www.w3.org/2000/svg" xmlns:xlink="http://www.w3.org/1999/xlink" version="1.1" viewBox="-10 0 666 1000">
  <g transform="matrix(1 0 0 -1 0 800)">
   <path fill="currentColor"
d="M136 -5q-13 0 -21 2.5t-8 8.5q0 12 33 18q38 7 58 23t20 53v456q0 30 -7 46t-33 16h-49q-22 0 -36 -10t-22 -26.5t-14 -34.5q-2 -8 -10.5 -21t-13.5 -13q-4 0 -9 8t-5 19q0 25 4 49t4 56q0 3 2.5 8.5t7.5 5.5q3 0 12 -2t21.5 -4t25.5 -2q21 0 45 -0.5t73 -0.5h49
q22 0 36 0.5t30 1.5t43 1q13 0 21 -2.5t8 -8.5q0 -7 -8 -12t-25 -8q-37 -7 -54.5 -22t-17.5 -50v-138q0 -23 1.5 -38t7.5 -16q1 0 19 5t44.5 10t51.5 5q91 0 146 -48.5t55 -135.5q0 -55 -17.5 -87t-41 -49t-41.5 -28q-30 -18 -70 -26t-90 -8q-9 0 -23.5 1t-33 2t-38.5 1
q-26 0 -44 -1t-37.5 -2.5t-48.5 -1.5zM375 27q40 0 75.5 11.5t58 45t22.5 100.5q0 37 -12 65t-28.5 46t-31.5 25q-13 7 -31.5 14t-56.5 7q-13 0 -34.5 -4t-29.5 -9q-7 -4 -9 -10.5t-2 -14.5v-200q0 -13 3 -27.5t12 -23.5q8 -8 26.5 -16.5t37.5 -8.5z" />
  </g>

</svg>
