<?xml version="1.0" standalone="no"?>
<!DOCTYPE svg PUBLIC "-//W3C//DTD SVG 1.1//EN" "http://www.w3.org/Graphics/SVG/1.1/DTD/svg11.dtd" >
<svg xmlns="http://www.w3.org/2000/svg" xmlns:xlink="http://www.w3.org/1999/xlink" version="1.1" viewBox="-10 0 691 1000">
  <g transform="matrix(1 0 0 -1 0 800)">
   <path fill="currentColor"
d="M472 -200q-37 0 -69 16t-56 44t-37.5 64t-13.5 76v490q0 46 -2 70.5t-6.5 34.5t-12.5 11q-14 3 -29.5 3.5t-41.5 0.5h-47q-24 0 -47.5 -9.5t-34.5 -29.5q-3 -5 -10 -14.5t-15 -16.5t-16 -7q-4 0 -5.5 4t-1.5 9q0 10 5 20q14 29 20.5 51.5t10.5 53.5q2 17 7.5 20t9.5 3
t12.5 -12t12.5 -20q6 -10 27.5 -15t42.5 -5h381q22 0 36.5 4.5t21.5 9.5q15 11 27 23.5t23 12.5q3 0 5 -7.5t2 -15.5q0 -2 -0.5 -4.5t-0.5 -4.5q-7 -28 -11.5 -50.5t-4.5 -42.5v-12q0 -9 -4 -20.5t-12 -11.5q-7 0 -11 11t-8 30q-4 21 -24 33.5t-68 12.5h-101q-22 0 -33 -6
t-14 -30t-3 -79v-496q0 -73 15.5 -115.5t50.5 -42.5q19 0 33 8t32 32q18 26 35 26q16 0 29.5 -15t13.5 -35q0 -10 -14 -23.5t-39.5 -23.5t-59.5 -10z" />
  </g>

</svg>
