<?xml version="1.0" standalone="no"?>
<!DOCTYPE svg PUBLIC "-//W3C//DTD SVG 1.1//EN" "http://www.w3.org/Graphics/SVG/1.1/DTD/svg11.dtd" >
<svg xmlns="http://www.w3.org/2000/svg" xmlns:xlink="http://www.w3.org/1999/xlink" version="1.1" viewBox="-10 0 527 1000">
  <g transform="matrix(1 0 0 -1 0 800)">
   <path fill="currentColor"
d="M275 -287q-5 0 -13 2.5t-8 7.5q0 6 5 11l6 6q18 5 35 19t31 44q11 23 17 57.5t8.5 72.5t3 74t0.5 62v119q0 4 -1 4.5t-3 0.5h-194q-2 0 -2.5 -1.5t-0.5 -5.5v-123q0 -21 14.5 -27.5t29.5 -11.5q8 -3 15.5 -6.5t7.5 -11.5q0 -7 -8.5 -8t-14.5 -1q-19 0 -30 1.5t-20.5 2.5
t-27.5 1q-17 0 -27 -1t-20.5 -2.5t-30.5 -1.5q-6 0 -14.5 1t-8.5 8q0 8 7.5 11.5t15.5 6.5q15 5 28.5 11.5t13.5 27.5v274q0 20 -11.5 27.5t-26.5 11.5q-8 3 -15.5 7t-7.5 11t8.5 8t14.5 1q20 0 29.5 -1t18.5 -2.5t26 -1.5q18 0 26 1.5t17.5 2.5t28.5 1q6 0 14.5 -1t8.5 -8
t-7.5 -11t-15.5 -7q-15 -4 -26.5 -11.5t-11.5 -27.5v-105q0 -4 4 -5t6 -1h186q2 0 3.5 2t1.5 6v103q0 20 -10 27.5t-25 11.5q-8 3 -15.5 7t-7.5 11t8 8t15 1q20 0 29.5 -1t18.5 -2.5t26 -1.5q18 0 27 1.5t19 2.5t29 1q7 0 15 -1t8 -8t-7.5 -11t-15.5 -7q-15 -4 -28 -11.5
t-13 -27.5v-246q0 -31 -1.5 -72.5t-7.5 -86t-21 -84.5q-12 -34 -35 -65t-48 -50.5t-45 -19.5z" />
  </g>

</svg>
