<?xml version="1.0" standalone="no"?>
<!DOCTYPE svg PUBLIC "-//W3C//DTD SVG 1.1//EN" "http://www.w3.org/Graphics/SVG/1.1/DTD/svg11.dtd" >
<svg xmlns="http://www.w3.org/2000/svg" xmlns:xlink="http://www.w3.org/1999/xlink" version="1.1" viewBox="-10 0 694 1000">
  <g transform="matrix(1 0 0 -1 0 800)">
   <path fill="currentColor"
d="M403 -5q-13 0 -21 2.5t-8 8.5q0 12 33 18q32 6 50.5 23.5t18.5 50.5v222q0 12 -2 15.5t-4 0.5q-6 -7 -27 -21t-57 -25t-88 -11q-99 0 -147.5 40t-48.5 140v93q0 34 -7.5 48.5t-45.5 21.5q-33 6 -33 20q0 6 8 8.5t21 2.5q27 0 42 -1t28 -1.5t33 -0.5q21 0 34.5 0.5t29 1.5
t42.5 1q13 0 21 -2.5t8 -8.5q0 -7 -8 -12t-25 -8q-37 -7 -52.5 -24t-15.5 -46v-97q0 -62 32.5 -96.5t107.5 -34.5q37 0 66.5 7.5t50 17.5t28.5 17q5 4 7 10t2 14v162q0 27 -14.5 45t-52.5 25q-33 6 -33 20q0 6 8 8.5t21 2.5q27 0 44.5 -1t33.5 -1.5t39 -0.5q18 0 28 0.5
t23 1.5t40 1q13 0 21 -2.5t8 -8.5q0 -7 -8 -12t-25 -8q-37 -7 -45 -24t-8 -46v-452q0 -37 9 -53t46 -23q17 -3 25 -7t8 -11q0 -6 -8 -8.5t-21 -2.5q-27 0 -42.5 1.5t-28.5 2.5t-34 1t-35 -1t-29.5 -2.5t-42.5 -1.5zM355 169q0 -7 -6.5 -10.5t-11.5 -3.5q-7 0 -12.5 7.5
t-5.5 16.5v343q0 5 3.5 9.5t7.5 4.5q1 0 1.5 -0.5t1.5 -0.5q10 -5 16 -12.5t6 -18.5v-335z" />
  </g>

</svg>
