<?xml version="1.0" standalone="no"?>
<!DOCTYPE svg PUBLIC "-//W3C//DTD SVG 1.1//EN" "http://www.w3.org/Graphics/SVG/1.1/DTD/svg11.dtd" >
<svg xmlns="http://www.w3.org/2000/svg" xmlns:xlink="http://www.w3.org/1999/xlink" version="1.1" viewBox="-15 0 458 1000">
  <g transform="matrix(1 0 0 -1 0 800)">
   <path fill="currentColor"
d="M224 421q4 0 10 -15.5t8 -22.5q7 -17 13 -35.5t12 -34.5q22 -62 47.5 -121.5t49.5 -120.5q7 -18 21.5 -32.5t29.5 -18.5q8 -3 13 -6t5 -10q0 -6 -7.5 -7.5t-12.5 -1.5q-20 0 -29 1t-18 2.5t-26 1.5q-18 0 -27 -1.5t-19 -2.5t-29 -1q-5 0 -12.5 1.5t-7.5 7.5q0 7 7 11
t16 7q10 4 15 15.5t5 25.5q0 7 -1 14t-3 13l-79 210q-1 1 -1.5 1t-1.5 -1l-76 -195q-4 -10 -6 -21.5t-2 -19.5q0 -20 6 -28.5t20 -13.5q13 -5 18 -8t5 -10q0 -6 -6.5 -7.5t-13.5 -1.5q-11 0 -29 2.5t-44 2.5t-35.5 -2.5t-23.5 -2.5q-8 0 -14 1.5t-6 7.5q0 11 23 18
q15 4 33 23t29 44l78 188q2 4 8 19.5t13 34t12 32l5 13.5l4 9.5t9 20t9 15.5h6z" />
  </g>

</svg>
