<?xml version="1.0" standalone="no"?>
<!DOCTYPE svg PUBLIC "-//W3C//DTD SVG 1.1//EN" "http://www.w3.org/Graphics/SVG/1.1/DTD/svg11.dtd" >
<svg xmlns="http://www.w3.org/2000/svg" xmlns:xlink="http://www.w3.org/1999/xlink" version="1.1" viewBox="-16 0 659 1000">
  <g transform="matrix(1 0 0 -1 0 800)">
   <path fill="currentColor"
d="M187 -40q-23 0 -43.5 9.5t-33 29t-12.5 49.5q0 5 8 15t14 10q3 0 11 -3t19 -8q13 -5 30.5 -9.5t38.5 -4.5q20 0 33.5 12t29.5 46q3 5 6 12t3 14q0 8 -3.5 16t-8.5 18l-165 356q-19 42 -37 68t-50 30q-17 2 -25 8.5t-8 13.5q0 6 8 8.5t21 2.5q15 0 33.5 -1t39.5 -1.5
t44 -0.5q16 0 30 0.5t27 1t23 0.5q13 0 21 -2.5t8 -8.5q0 -7 -8 -11t-25 -9q-7 -2 -22.5 -9t-15.5 -28q0 -13 10.5 -32.5t23.5 -47.5l120 -242q6 -14 9 -21.5t7 -7.5q8 0 20 29l97 241q8 20 13 39.5t5 26.5q0 20 -17.5 33t-34.5 18q-10 3 -21.5 8t-11.5 12q0 6 8 8.5t21 2.5
q23 0 39 -0.5t42 -0.5q28 0 53.5 1.5t42.5 1.5q13 0 21 -2.5t8 -8.5q0 -7 -8 -11.5t-25 -8.5q-26 -5 -43 -26t-28 -49l-145 -325q-42 -95 -75.5 -152.5t-62.5 -83.5t-59 -26z" />
  </g>

</svg>
