<?xml version="1.0" standalone="no"?>
<!DOCTYPE svg PUBLIC "-//W3C//DTD SVG 1.1//EN" "http://www.w3.org/Graphics/SVG/1.1/DTD/svg11.dtd" >
<svg xmlns="http://www.w3.org/2000/svg" xmlns:xlink="http://www.w3.org/1999/xlink" version="1.1" viewBox="-10 0 815 1000">
  <g transform="matrix(1 0 0 -1 0 800)">
   <path fill="currentColor"
d="M547 -284q-13 0 -21 3.5t-8 9.5q0 10 32 16q32 5 50.5 23t18.5 50v588q0 92 -45 146.5t-120 54.5q-49 0 -92 -14.5t-78 -47.5q-10 -10 -23.5 -28t-23 -46.5t-9.5 -73.5v-297q1 -25 11.5 -39t25.5 -21t29 -11q11 -3 22 -8t11 -12q0 -6 -8 -8.5t-21 -2.5q-12 0 -24.5 0.5
t-25.5 0.5h-28q-44 0 -76.5 -2t-77.5 -2q-13 0 -21 2.5t-8 8.5q0 12 33 18q38 7 58 23t20 51v452q0 35 -14.5 50t-52.5 22q-33 6 -33 20q0 6 8 8.5t21 2.5q22 0 35 -1t24.5 -1.5t28.5 -0.5t32.5 3t25.5 3q11 0 11 -14q0 -4 -3 -12.5t-3 -19.5v-48q0 -4 1 -9.5t4 -7.5
q59 59 126 88.5t148 29.5q55 0 98.5 -32t68.5 -87.5t25 -124.5v-598q0 -37 9.5 -53t46.5 -23q17 -3 24.5 -6t7.5 -10q0 -6 -8 -9.5t-21 -3.5q-27 0 -42 1.5t-28 2.5t-34 1t-34.5 -1t-29.5 -2.5t-43 -1.5z" />
  </g>

</svg>
