<?xml version="1.0" standalone="no"?>
<!DOCTYPE svg PUBLIC "-//W3C//DTD SVG 1.1//EN" "http://www.w3.org/Graphics/SVG/1.1/DTD/svg11.dtd" >
<svg xmlns="http://www.w3.org/2000/svg" xmlns:xlink="http://www.w3.org/1999/xlink" version="1.1" viewBox="-10 0 609 1000">
  <g transform="matrix(1 0 0 -1 0 800)">
   <path fill="currentColor"
d="M541 -139q-13 0 -17 11.5t-4 24.5q0 11 0.5 23t0.5 22q0 40 -9 49t-32 9h-296q-11 0 -15.5 -0.5t-11 -1.5t-26.5 -1q-4 0 -13.5 1t-9.5 8q0 8 7.5 11.5t15.5 6.5q15 5 25.5 11.5t10.5 26.5v287q0 7 -2.5 10t-11.5 3h-71q-13 0 -21 -14.5t-19 -38.5q-1 -3 -5.5 -9
t-9.5 -11t-10 -5q-4 0 -5.5 3.5t-1.5 7.5v6t1 5q4 14 8 42.5t4 47.5q0 8 6 13t9 5q2 0 6.5 -2.5t8.5 -6.5q4 -3 17 -4t26 -1h164q13 0 26 1t17 4q5 4 11 6.5t8 2.5q3 0 8 -5t3 -13q-2 -9 -3 -20.5t-1 -23.5t0.5 -23.5t1.5 -22.5q1 -7 -2.5 -14.5t-10.5 -7.5t-11.5 9.5
t-5.5 15.5q-1 17 -11.5 35t-24.5 18h-13q-7 0 -11 -5t-4 -12v-268q0 -8 2 -23t15 -15h161q12 0 14 15t2 23v261q0 20 -13 27t-28 11q-8 3 -15.5 7t-7.5 11t8 8t15 1q20 0 29.5 -1t18.5 -2.5t26 -1.5q18 0 26.5 1.5t18 2.5t28.5 1q6 0 14.5 -1t8.5 -8t-7.5 -11t-15.5 -7
q-15 -4 -25.5 -11t-10.5 -27v-286q0 -7 15 -10t28 -3q6 0 15 1.5t16 1.5q14 0 14 -8v-2.5t-1 -3.5q-4 -10 -9.5 -23.5t-10.5 -39.5t-7 -73q-1 -12 -8 -21.5t-12 -9.5z" />
  </g>

</svg>
