<?xml version="1.0" standalone="no"?>
<!DOCTYPE svg PUBLIC "-//W3C//DTD SVG 1.1//EN" "http://www.w3.org/Graphics/SVG/1.1/DTD/svg11.dtd" >
<svg xmlns="http://www.w3.org/2000/svg" xmlns:xlink="http://www.w3.org/1999/xlink" version="1.1" viewBox="-10 0 696 1000">
  <g transform="matrix(1 0 0 -1 0 800)">
   <path fill="currentColor"
d="M72 -10q-36 0 -51.5 6.5t-15.5 13.5q0 8 4.5 10.5t13.5 2.5q13 0 29 4.5t34 20.5t36 52q29 57 46 84t32.5 35t37.5 8h201q29 0 45.5 -10t32.5 -37.5t42 -79.5q19 -36 36.5 -52t33.5 -20.5t29 -4.5q9 0 13.5 -2.5t4.5 -10.5q0 -7 -15.5 -13.5t-51.5 -6.5q-19 0 -45 13.5
t-50 62.5t-41 77t-30.5 41.5t-27.5 17t-32 3.5q-10 0 -10 -9v-134q0 -21 14 -27t29 -11q8 -3 15.5 -6.5t7.5 -11.5q0 -7 -9.5 -8t-13.5 -1q-19 0 -29 1.5t-18.5 2.5t-26.5 1q-17 0 -27 -1t-20.5 -2.5t-30.5 -1.5q-4 0 -13.5 1t-9.5 8q0 8 7.5 11.5t15.5 6.5q15 5 29.5 10
t14.5 27v135q0 9 -10 9q-19 0 -33.5 -4t-27.5 -17.5t-29.5 -41.5t-40.5 -76q-24 -49 -50 -62.5t-45 -13.5zM308 209q-37 25 -66.5 47.5t-58.5 45.5t-65 48q-17 12 -29 16l-27 9q-8 3 -13 6t-5 10q0 6 7.5 7.5t12.5 1.5h552q8 0 14 -1.5t6 -7.5q0 -11 -23 -18
q-15 -4 -29.5 -11t-36.5 -25l-149 -124zM360 236q2 -1 3 0l129 108q11 10 9.5 13.5t-9.5 3.5h-277q-10 0 -9 -5t9 -11z" />
  </g>

</svg>
