<?xml version="1.0" standalone="no"?>
<!DOCTYPE svg PUBLIC "-//W3C//DTD SVG 1.1//EN" "http://www.w3.org/Graphics/SVG/1.1/DTD/svg11.dtd" >
<svg xmlns="http://www.w3.org/2000/svg" xmlns:xlink="http://www.w3.org/1999/xlink" version="1.1" viewBox="-10 0 465 1000">
  <g transform="matrix(1 0 0 -1 0 800)">
   <path fill="currentColor"
d="M49 -139q-5 0 -12 9.5t-8 21.5q-2 47 -8.5 72t-12.5 38t-6 24q0 9 4 11.5t9 2.5t10.5 -1t9.5 -1q29 0 48 23.5t30 63t15.5 90t4.5 104.5q0 29 -14 40t-39 16q-4 1 -10.5 4.5t-6.5 10.5q0 6 9.5 9.5t12.5 3.5q19 0 28 -1.5t26 -1.5h209q17 0 28 1.5t30 1.5q3 0 12.5 -3.5
t9.5 -9.5q0 -7 -6 -10.5t-11 -4.5q-25 -5 -35.5 -18t-10.5 -57v-220q0 -20 4 -31t26 -11q5 0 13.5 1t15.5 1q8 0 13 -2t5 -7q0 -3 -1 -5q-4 -10 -9.5 -23t-10.5 -38.5t-7 -72.5q-1 -12 -8 -21.5t-12 -9.5q-13 0 -17 11.5t-4 24.5q0 11 0.5 22t0.5 21q0 41 -9.5 50.5
t-32.5 9.5h-207q-25 0 -40.5 -14.5t-15.5 -61.5q0 -7 0.5 -13t0.5 -14q0 -13 -4 -24.5t-17 -11.5zM127 37h137q20 0 25.5 3.5t5.5 23.5v259q0 6 -0.5 16.5t-4 19t-11.5 8.5h-89q-8 0 -12 -8.5t-4.5 -19t-0.5 -16.5q0 -52 -5 -99.5t-17.5 -91t-34.5 -83.5l-1.5 -2t-1.5 -4
t3 -4t11 -2z" />
  </g>

</svg>
