<?xml version="1.0" standalone="no"?>
<!DOCTYPE svg PUBLIC "-//W3C//DTD SVG 1.1//EN" "http://www.w3.org/Graphics/SVG/1.1/DTD/svg11.dtd" >
<svg xmlns="http://www.w3.org/2000/svg" xmlns:xlink="http://www.w3.org/1999/xlink" version="1.1" viewBox="-10 0 1055 1000">
  <g transform="matrix(1 0 0 -1 0 800)">
   <path fill="currentColor"
d="M300 -13q-99 0 -151 61.5t-52 209.5v289q0 36 -18.5 52.5t-35.5 20.5q-33 9 -33 22q0 6 8 8.5t21 2.5q23 0 48 -1.5t56 -1.5q20 0 39 0.5t35 1t26 0.5q13 0 21 -2.5t8 -8.5q0 -7 -8 -11t-25 -9q-8 -2 -23 -11.5t-27 -25t-12 -35.5v-267q0 -41 6 -84t21.5 -79.5t42.5 -59
t68 -22.5q45 0 74.5 23t46 60t23.5 81t7 87v259q0 36 -18.5 52.5t-35.5 20.5q-17 5 -25 10t-8 12q0 6 8 8.5t21 2.5q15 0 31 -1t34.5 -1.5t38.5 -0.5q29 0 56.5 1t43.5 1q13 0 21 -2.5t8 -8.5q0 -7 -8 -11t-25 -9q-8 -2 -23 -11.5t-27 -25t-12 -35.5v-283q0 -39 7 -79.5
t23.5 -74t43 -54.5t65.5 -21q45 0 74 24t46 63.5t24 85.5t7 91v249q0 26 -11 39.5t-26 20.5t-29 11q-10 3 -21.5 8t-11.5 12q0 6 8 8.5t21 2.5h24.5t26 -0.5t27.5 -0.5q44 0 76.5 2t77.5 2q13 0 21 -2.5t8 -8.5q0 -12 -33 -18q-37 -7 -57.5 -23t-20.5 -51v-452q0 -35 15 -50
t52 -22q17 -3 25 -8t8 -12q0 -6 -8 -8.5t-21 -2.5q-24 0 -36.5 1t-21 1.5t-20.5 0.5q-19 0 -38 -3t-30 -3t-11 14q0 5 3 13t3 19v23q0 9 -2 13t-7 4t-8 -2.5t-7 -7.5q-18 -26 -39 -44.5t-46 -28.5t-57 -10q-49 0 -82.5 13.5t-54 33t-31.5 38.5t-17 29q-3 7 -6 7q-4 0 -9 -8
q-31 -50 -69.5 -81.5t-100.5 -31.5z" />
  </g>

</svg>
