<?xml version="1.0" standalone="no"?>
<!DOCTYPE svg PUBLIC "-//W3C//DTD SVG 1.1//EN" "http://www.w3.org/Graphics/SVG/1.1/DTD/svg11.dtd" >
<svg xmlns="http://www.w3.org/2000/svg" xmlns:xlink="http://www.w3.org/1999/xlink" version="1.1" viewBox="-10 0 536 1000">
  <g transform="matrix(1 0 0 -1 0 800)">
   <path fill="currentColor"
d="M236 -7q-61 0 -106 23.5t-70 66t-25 97.5q0 65 29.5 118t79 84.5t109.5 31.5q37 0 66.5 -5.5t53.5 -23.5q12 -9 12 -19q0 -8 -6.5 -15.5t-15.5 -12t-18 -4.5q-5 0 -10 3.5t-11 7.5q-22 17 -50.5 24.5t-46.5 7.5q-49 0 -79.5 -45.5t-30.5 -119.5q0 -64 22 -105.5t56.5 -61
t70.5 -19.5q50 0 81.5 18.5t46.5 47t15 58.5q1 47 -20.5 76.5t-57.5 29.5t-58 -29.5t-22 -70.5q0 -44 16 -74t43.5 -44.5t61.5 -14.5q32 0 60.5 14.5t55.5 41.5q12 12 19 9t8 -12.5t-6 -19.5q-26 -35 -64 -53t-88 -18q-41 0 -79.5 17.5t-63.5 51.5t-25 82q0 39 20 74
t54.5 57.5t79.5 22.5q39 0 66.5 -17t42 -45t14.5 -63q0 -41 -24 -80.5t-74.5 -65.5t-131.5 -26z" />
  </g>

</svg>
