<?xml version="1.0" standalone="no"?>
<!DOCTYPE svg PUBLIC "-//W3C//DTD SVG 1.1//EN" "http://www.w3.org/Graphics/SVG/1.1/DTD/svg11.dtd" >
<svg xmlns="http://www.w3.org/2000/svg" xmlns:xlink="http://www.w3.org/1999/xlink" version="1.1" viewBox="-16 0 280 1000">
  <g transform="matrix(1 0 0 -1 0 800)">
   <path fill="currentColor"
d="M45 -3q-5 0 -12.5 1.5t-7.5 7.5q0 8 7.5 11.5t15.5 6.5q15 5 29 11.5t14 26.5v260q-7 3 -15.5 4.5t-19.5 1.5q-19 0 -28.5 -8t-13.5 -16.5t-7 -8.5q-6 0 -9.5 4.5t-3.5 12.5q0 2 5 13t14.5 24.5t24.5 24t35 10.5q5 0 9.5 -0.5t8.5 -1.5v184q0 29 -10.5 48.5t-35.5 24.5
q-8 2 -8 13q0 10 7 12q26 6 46 13t37 14t33 13q1 0 1 0.5t1 0.5q2 0 4 -2.5t2 -4.5q0 -9 -3.5 -38.5t-3.5 -97.5v-213q5 -1 10.5 -2t12.5 -1q19 0 31 9.5t18.5 19.5t10.5 10q5 0 7.5 -2t2.5 -10q0 -1 -5.5 -14t-16 -29.5t-25.5 -28.5t-35 -12h-6t-5 1v-228q0 -20 14 -26.5
t29 -11.5q8 -3 15.5 -6.5t7.5 -11.5q0 -6 -7.5 -7.5t-12.5 -1.5q-19 0 -30.5 1.5t-22 2.5t-28.5 1q-17 0 -28 -1t-22 -2.5t-31 -1.5z" />
  </g>

</svg>
