<?xml version="1.0" standalone="no"?>
<!DOCTYPE svg PUBLIC "-//W3C//DTD SVG 1.1//EN" "http://www.w3.org/Graphics/SVG/1.1/DTD/svg11.dtd" >
<svg xmlns="http://www.w3.org/2000/svg" xmlns:xlink="http://www.w3.org/1999/xlink" version="1.1" viewBox="-10 0 773 1000">
  <g transform="matrix(1 0 0 -1 0 800)">
   <path fill="currentColor"
d="M377 -14q-66 0 -126 23.5t-106 67t-73 104t-27 134.5q0 68 22 130.5t65 111.5t107 78t147 29q66 0 126 -23.5t106 -67t73 -104t27 -134.5q0 -67 -22 -130t-65 -112t-107 -78t-147 -29zM392 26q77 0 128 32.5t76.5 91t25.5 136.5q0 69 -16 130t-47.5 107.5t-78.5 72.5
t-110 26q-75 0 -126 -32t-77 -89.5t-26 -135.5q0 -70 15.5 -131t47 -108t78.5 -73.5t110 -26.5zM261 822q5 0 20.5 -6.5t35 -15.5t37.5 -18t28 -15q7 -4 10 -4t10 4q10 6 28 15t37.5 18.5t35 16t20.5 6.5q14 0 14 -11q0 -7 -6 -12l-98 -78q-15 -12 -22.5 -17t-18.5 -5
t-18.5 5t-22.5 17l-98 78q-7 6 -7 12q0 10 15 10z" />
  </g>

</svg>
