<?xml version="1.0" standalone="no"?>
<!DOCTYPE svg PUBLIC "-//W3C//DTD SVG 1.1//EN" "http://www.w3.org/Graphics/SVG/1.1/DTD/svg11.dtd" >
<svg xmlns="http://www.w3.org/2000/svg" xmlns:xlink="http://www.w3.org/1999/xlink" version="1.1" viewBox="-10 0 773 1000">
  <g transform="matrix(1 0 0 -1 0 800)">
   <path fill="currentColor"
d="M377 -14q-66 0 -126 23.5t-106 67t-73 104t-27 134.5q0 68 22 130.5t65 111.5t107 78t147 29q66 0 126 -23.5t106 -67t73 -104t27 -134.5q0 -67 -22 -130t-65 -112t-107 -78t-147 -29zM392 26q77 0 128 32.5t76.5 91t25.5 136.5q0 69 -16 130t-47.5 107.5t-78.5 72.5
t-110 26q-75 0 -126 -32t-77 -89.5t-26 -135.5q0 -70 15.5 -131t47 -108t78.5 -73.5t110 -26.5zM391 695q-22 0 -38.5 16.5t-16.5 38.5q0 23 16.5 39t38.5 16q23 0 39 -16t16 -39q0 -22 -16 -38.5t-39 -16.5zM254 842q-5 0 -9.5 4t-4.5 8q0 5 2 15t7.5 18.5t14.5 8.5h263
q5 0 9 -3.5t4 -8.5q0 -15 -9.5 -28.5t-21.5 -13.5h-255z" />
  </g>

</svg>
