<?xml version="1.0" standalone="no"?>
<!DOCTYPE svg PUBLIC "-//W3C//DTD SVG 1.1//EN" "http://www.w3.org/Graphics/SVG/1.1/DTD/svg11.dtd" >
<svg xmlns="http://www.w3.org/2000/svg" xmlns:xlink="http://www.w3.org/1999/xlink" version="1.1" viewBox="-10 0 201 1000">
  <g transform="matrix(1 0 0 -1 0 800)">
   <path fill="currentColor"
d="M110.602 404.83q-22.6875 0 -41.1211 11.3438t-29.4229 30.8408t-10.9893 42.1846q0 26.9414 13.1162 48.2109t34.3857 34.0312t46.793 12.7617q20.5605 0 38.9941 -14.1797t18.4336 -43.248q0 -9.2168 -3.89941 -14.1797t-13.8252 -4.96289l-88.623 -0.708984
q-4.25391 0 -4.25391 -5.67188q0 -26.2324 13.1162 -46.4385t39.3486 -20.2061q11.3438 0 21.2695 3.19043t19.1426 11.6982q3.54492 3.54492 7.08984 3.54492q2.83594 0 6.73535 -4.6084t3.89941 -8.15332q0 -4.25391 -6.38086 -10.6348
q-7.79883 -7.79883 -23.751 -16.3066t-40.0576 -8.50781zM80.1152 527.484h58.8457q7.08984 0 7.08984 7.08984q0 13.4707 -8.8623 21.9785t-20.915 8.50781q-16.3066 0 -29.4229 -10.2803t-13.1162 -22.333q0 -4.96289 6.38086 -4.96289z" />
  </g>

</svg>
