<?xml version="1.0" standalone="no"?>
<!DOCTYPE svg PUBLIC "-//W3C//DTD SVG 1.1//EN" "http://www.w3.org/Graphics/SVG/1.1/DTD/svg11.dtd" >
<svg xmlns="http://www.w3.org/2000/svg" xmlns:xlink="http://www.w3.org/1999/xlink" version="1.1" viewBox="-10 0 748 1000">
  <g transform="matrix(1 0 0 -1 0 800)">
   <path fill="currentColor"
d="M372 -14q-89 0 -149 31.5t-90 89t-30 133.5v307q0 36 -14.5 52.5t-31.5 20.5q-33 9 -33 22q0 6 8 8.5t21 2.5q23 0 45.5 -1.5t50.5 -1.5q23 0 43.5 1t36.5 1q13 0 21 -2.5t8 -8.5q0 -7 -8 -11t-25 -9q-12 -4 -27 -23t-15 -49v-281q0 -80 27 -131.5t74.5 -76t108.5 -24.5
q103 0 151 71.5t48 188.5q0 22 -0.5 58t-1.5 77.5t-2 79.5q0 26 -4.5 49t-13.5 39.5t-23 20.5q-10 3 -21.5 8t-11.5 12q0 6 8 8.5t21 2.5q23 0 38 -0.5t37 -0.5q16 0 30 0.5t27 1.5t24 1q13 0 21 -2.5t8 -8.5q0 -13 -33 -20q-26 -5 -37 -25t-13 -50q-5 -86 -6.5 -157
t-3.5 -140q-2 -77 -37 -137t-93.5 -93.5t-132.5 -33.5zM260 822q5 0 20.5 -6.5t35 -15.5t37.5 -18t28 -15q7 -4 10 -4t10 4q10 6 28 15t37.5 18.5t35 16t20.5 6.5q14 0 14 -11q0 -7 -6 -12l-98 -78q-15 -12 -22.5 -17t-18.5 -5t-18.5 5t-22.5 17l-98 78q-7 6 -7 12
q0 10 15 10z" />
  </g>

</svg>
