<?xml version="1.0" standalone="no"?>
<!DOCTYPE svg PUBLIC "-//W3C//DTD SVG 1.1//EN" "http://www.w3.org/Graphics/SVG/1.1/DTD/svg11.dtd" >
<svg xmlns="http://www.w3.org/2000/svg" xmlns:xlink="http://www.w3.org/1999/xlink" version="1.1" viewBox="-10 0 364 1000">
  <g transform="matrix(1 0 0 -1 0 800)">
   <path fill="currentColor"
d="M200 -139q-13 0 -17 11.5t-4 24.5q0 11 0.5 23t0.5 22q0 40 -11 50t-34 10q-21 0 -33 -1t-23.5 -2.5t-31.5 -1.5q-5 0 -12.5 1.5t-7.5 7.5q0 8 7.5 11.5t15.5 6.5q15 5 27.5 11.5t12.5 26.5v238q0 29 -10.5 48.5t-35.5 24.5q-4 1 -10.5 5.5t-6.5 11.5q0 6 9.5 9.5
t12.5 3.5q19 0 30 -1.5t28 -1.5h167q29 0 42 2.5t20 2.5q1 0 4.5 -2.5t3.5 -7.5q0 -13 -2 -37t-2 -40q0 -13 -2 -27t-11 -14q-10 0 -19 38q-3 14 -10.5 26t-17.5 19.5t-21 7.5q-7 0 -21 0.5t-27.5 0.5h-19.5q-20 0 -25.5 -15t-5.5 -23v-273q0 -11 15 -15t28 -4q6 0 15 1.5
t16 1.5q14 0 14 -8v-2.5t-1 -3.5q-4 -10 -9 -23.5t-10 -39.5t-8 -73q-1 -12 -8 -21.5t-12 -9.5z" />
  </g>

</svg>
