<?xml version="1.0" standalone="no"?>
<!DOCTYPE svg PUBLIC "-//W3C//DTD SVG 1.1//EN" "http://www.w3.org/Graphics/SVG/1.1/DTD/svg11.dtd" >
<svg xmlns="http://www.w3.org/2000/svg" xmlns:xlink="http://www.w3.org/1999/xlink" version="1.1" viewBox="-10 0 562 1000">
  <g transform="matrix(1 0 0 -1 0 800)">
   <path fill="currentColor"
d="M53 -5q-13 0 -21 2.5t-8 8.5q0 12 33 18q38 7 55.5 23t17.5 53v422q0 45 -11.5 69t-49.5 31q-17 3 -25 8t-8 12q0 6 8 8.5t21 2.5h40.5t25.5 -0.5t32 -0.5t40.5 1.5t38.5 3t32 1.5q76 0 133 -25t88.5 -68.5t31.5 -99.5q0 -61 -24 -109t-73.5 -75t-126.5 -27
q-31 0 -59 4.5t-46 11t-18 12.5q0 4 5.5 9t10.5 5q3 0 22.5 -2.5t47 -5.5t54.5 -3q60 0 90.5 42.5t30.5 130.5q0 80 -47 126t-120 46q-28 0 -46 -9.5t-18 -32.5v-477q0 -36 15 -58t52 -29q17 -3 25 -7t8 -11q0 -6 -8 -8.5t-21 -2.5q-27 0 -41.5 2t-26 3.5t-30.5 1.5
q-25 0 -44.5 -1.5t-39 -3.5t-46.5 -2zM473 139q-7 -4 -15.5 -1t-13.5 10l-186 264q-3 3 -3.5 10t3.5 7q2 0 4 2q11 1 20.5 -1.5t15.5 -12.5l181 -258q5 -4 1 -11t-7 -9z" />
  </g>

</svg>
