<?xml version="1.0" standalone="no"?>
<!DOCTYPE svg PUBLIC "-//W3C//DTD SVG 1.1//EN" "http://www.w3.org/Graphics/SVG/1.1/DTD/svg11.dtd" >
<svg xmlns="http://www.w3.org/2000/svg" xmlns:xlink="http://www.w3.org/1999/xlink" version="1.1" viewBox="-10 0 355 1000">
  <g transform="matrix(1 0 0 -1 0 800)">
   <path fill="currentColor"
d="M189 -190q-10 0 -22.5 8t-21.5 19.5t-9 21.5q0 14 6 18.5t16 4.5q36 0 63.5 15t43 36.5t15.5 40.5q0 14 -10.5 20t-28.5 6q-7 0 -29.5 -1t-45.5 -2.5t-33 -1.5q-38 0 -59.5 26t-30 65t-8.5 77t14 74.5t38 68.5t54 56t62 37.5t62 13.5q13 0 31 -9.5t18 -32.5
q0 -18 -13.5 -32t-34.5 -14q-47 0 -91 -17t-72 -50t-28 -80q0 -38 20.5 -70.5t59.5 -32.5q4 0 20 0.5t35.5 1t35.5 1t20 0.5q19 0 34 -15.5t15 -61.5q0 -36 -11 -70.5t-29 -61.5t-40.5 -43t-45.5 -16z" />
  </g>

</svg>
