<?xml version="1.0" standalone="no"?>
<!DOCTYPE svg PUBLIC "-//W3C//DTD SVG 1.1//EN" "http://www.w3.org/Graphics/SVG/1.1/DTD/svg11.dtd" >
<svg xmlns="http://www.w3.org/2000/svg" xmlns:xlink="http://www.w3.org/1999/xlink" version="1.1" viewBox="-10 0 525 1000">
  <g transform="matrix(1 0 0 -1 0 800)">
   <path fill="currentColor"
d="M39 -3q-20 0 -20 11q0 9 23 16q15 5 28.5 13t14.5 28v501q0 27 -9 47.5t-35 24.5q-9 2 -9 14q0 9 8 12q14 5 33.5 11t40.5 13.5t37 14.5q4 2 6 2q3 0 5 -2t2 -5q0 -6 -2.5 -17t-4.5 -38t-2 -81v-174q0 -16 1.5 -23t5.5 -14q16 12 39.5 26.5t52.5 25.5t60 11
q49 0 81.5 -38.5t32.5 -97.5v-210q0 -20 13 -29.5t28 -14.5q11 -3 17 -6.5t6 -9.5q0 -11 -20 -11t-30.5 1.5t-20 2.5t-27.5 1q-17 0 -27 -1t-20.5 -2.5t-30.5 -1.5t-20 11q0 7 6 9.5t17 6.5q15 5 27 14.5t12 29.5v204q0 25 -14.5 45.5t-35.5 32.5t-43 12q-19 0 -44 -5.5
t-39 -16.5q-16 -13 -21.5 -27t-5.5 -45v-203q1 -20 12.5 -28t26.5 -13q11 -3 16.5 -6.5t5.5 -9.5q0 -11 -20 -11t-30 1.5t-19 2.5t-27 1q-17 0 -27.5 -1t-22 -2.5t-31.5 -1.5zM249 737q-8 0 -18.5 7.5t-19.5 14.5l-86 67q-7 6 -7 12q0 10 15 10q10 0 23 -5.5t33 -15.5
t50 -26q10 -5 20 0q33 17 53 27t32 15t21 5q14 0 14 -11q0 -7 -6 -12l-86 -66q-9 -7 -19.5 -14.5t-18.5 -7.5z" />
  </g>

</svg>
