<?xml version="1.0" standalone="no"?>
<!DOCTYPE svg PUBLIC "-//W3C//DTD SVG 1.1//EN" "http://www.w3.org/Graphics/SVG/1.1/DTD/svg11.dtd" >
<svg xmlns="http://www.w3.org/2000/svg" xmlns:xlink="http://www.w3.org/1999/xlink" version="1.1" viewBox="-10 0 662 1000">
  <g transform="matrix(1 0 0 -1 0 800)">
   <path fill="currentColor"
d="M202 -288q-24 0 -52 7t-52 18t-39.5 25t-15.5 27q0 11 8 25t18.5 24.5t16.5 10.5t16.5 -12.5t25.5 -29.5q12 -13 26.5 -25.5t32 -20.5t37.5 -8q31 0 66 19.5t60.5 61.5t26.5 109v51q0 17 -1.5 24t-4.5 7q-2 0 -4.5 -1.5t-4.5 -3.5q-13 -11 -46.5 -22.5t-80.5 -11.5
q-52 0 -97.5 22t-74 65t-28.5 105q0 71 31 124t87 82.5t129 29.5q17 0 42.5 -2t42.5 -6q4 -1 7 1.5t3 6.5v51q0 74 27 128t68.5 83.5t84.5 29.5q22 0 41 -3.5t31.5 -12t12.5 -23.5q0 -16 -11.5 -30.5t-25.5 -14.5q-9 0 -15.5 7t-13.5 17q-7 11 -18.5 20.5t-31.5 9.5
q-32 0 -55.5 -47t-23.5 -129v-492q0 -86 -25.5 -143.5t-64.5 -91t-80.5 -47.5t-74.5 -14zM272 24q26 0 46.5 4.5t39.5 18.5q11 8 15 31t5 54l-1 143q-1 45 -35.5 76t-84.5 31q-36 0 -68 -20.5t-52 -59.5t-20 -97q0 -50 15.5 -84.5t39.5 -56t51 -31t49 -9.5z" />
  </g>

</svg>
