<?xml version="1.0" standalone="no"?>
<!DOCTYPE svg PUBLIC "-//W3C//DTD SVG 1.1//EN" "http://www.w3.org/Graphics/SVG/1.1/DTD/svg11.dtd" >
<svg xmlns="http://www.w3.org/2000/svg" xmlns:xlink="http://www.w3.org/1999/xlink" version="1.1" viewBox="-10 0 909 1000">
  <g transform="matrix(1 0 0 -1 0 800)">
   <path fill="currentColor"
d="M667 -14q-40 0 -73 19t-52.5 56t-19.5 92v134q0 15 -5 15h-302q-5 0 -5 -11v-185q0 -31 22.5 -53.5t56.5 -28.5q17 -3 25 -7t8 -11q0 -6 -8 -8.5t-21 -2.5q-27 0 -44.5 1.5t-33.5 2.5t-39 1q-21 0 -35.5 -1t-31 -2.5t-43.5 -1.5q-13 0 -21 2.5t-8 8.5q0 12 33 18
q38 7 49 23t11 52v452q0 35 -7.5 49.5t-45.5 21.5q-33 6 -33 20q0 6 8 8.5t21 2.5q27 0 42 -1t28 -1.5t33 -0.5q21 0 34.5 0.5t29 1.5t42.5 1q13 0 21 -2.5t8 -8.5q0 -7 -8 -12t-25 -8q-37 -7 -52.5 -24.5t-15.5 -46.5v-192q0 -6 5 -7.5t9 -1.5h291q7 0 7 12v190
q0 27 -14 45t-52 25q-17 3 -25 8t-8 12q0 6 8 8.5t21 2.5q27 0 44.5 -1t33.5 -1.5t38 -0.5q18 0 28 0.5t23 1.5t40 1q13 0 21 -2.5t8 -8.5q0 -14 -33 -20q-37 -7 -45 -24t-8 -46v-381q0 -49 14.5 -80.5t36.5 -46.5t44 -15q33 0 60.5 15.5t44.5 50.5t17 93q0 51 -15 92.5
t-44 70.5q-2 2 -3 5t-1 6q0 8 5 17t12.5 17t15 13t12.5 5q27 0 45.5 -20t28 -54t9.5 -75q0 -78 -17 -131.5t-47.5 -86t-69.5 -47t-83 -14.5z" />
  </g>

</svg>
