<?xml version="1.0" standalone="no"?>
<!DOCTYPE svg PUBLIC "-//W3C//DTD SVG 1.1//EN" "http://www.w3.org/Graphics/SVG/1.1/DTD/svg11.dtd" >
<svg xmlns="http://www.w3.org/2000/svg" xmlns:xlink="http://www.w3.org/1999/xlink" version="1.1" viewBox="-10 0 572 1000">
  <g transform="matrix(1 0 0 -1 0 800)">
   <path fill="currentColor"
d="M150 -14q-42 0 -67.5 28.5t-36.5 71t-11 84.5q0 55 14 95.5t34 67t38 38.5q-12 20 -12 44t23 42.5t54.5 29t58.5 10.5q68 0 126.5 -28t98.5 -76q26 10 39.5 17.5t16.5 7.5q6 0 9 -5t3 -11q0 -5 -2 -8.5t-6 -7.5q-8 -7 -17.5 -14t-19.5 -13q18 -30 28 -65t10 -73
q0 -39 -10.5 -80t-31 -76.5t-50.5 -57t-69 -21.5q-33 0 -51 16.5t-26 36t-12 29.5q-1 6 -4 5.5t-8 -5.5q-8 -9 -22 -29t-37.5 -36.5t-59.5 -16.5zM358 49q39 0 63.5 25t35.5 70.5t11 106.5q0 23 -5 44t-15 40q-46 -20 -92 -28t-74 -7q-64 0 -116 30q-7 -10 -22.5 -29
t-32.5 -44.5t-29 -55t-12 -61.5q0 -20 6.5 -40.5t20 -34t34.5 -13.5q58 0 88 27t30 68q0 17 -6 41t-6 40q0 21 12 31.5t36 10.5q14 0 26.5 -7.5t12.5 -32.5q0 -19 -7 -45t-15 -48q-1 -4 0 -14t2 -15q3 -10 7.5 -24t15.5 -24.5t31 -10.5zM253 357q53 0 94.5 6t72.5 14
q-29 33 -65.5 48.5t-84.5 15.5q-45 0 -79.5 -11.5t-34.5 -27.5q0 -17 14.5 -27t37 -14t45.5 -4z" />
  </g>

</svg>
