<?xml version="1.0" standalone="no"?>
<!DOCTYPE svg PUBLIC "-//W3C//DTD SVG 1.1//EN" "http://www.w3.org/Graphics/SVG/1.1/DTD/svg11.dtd" >
<svg xmlns="http://www.w3.org/2000/svg" xmlns:xlink="http://www.w3.org/1999/xlink" version="1.1" viewBox="-10 0 838 1000">
  <g transform="matrix(1 0 0 -1 0 800)">
   <path fill="currentColor"
d="M737 -205q-14 0 -17.5 14t-3.5 29q1 17 1 32v28q0 62 -15.5 82t-42.5 20q-37 0 -70.5 -2.5t-74.5 -2.5q-13 0 -21 2.5t-8 8.5q0 7 8 11t25 7q38 7 57 25.5t20 49.5q3 125 1.5 251t-1.5 251q0 5 -2.5 6t-5.5 1q-41 0 -72.5 0.5t-59.5 1.5t-61 1q-39 0 -75 -0.5t-86 -2.5
q-5 0 -5 -11q-4 -124 -4 -248.5t4 -249.5q1 -31 21.5 -49.5t57.5 -25.5q17 -3 25 -7t8 -11q0 -6 -8 -8.5t-21 -2.5q-27 0 -44.5 1.5t-33.5 2.5t-39 1q-25 0 -43.5 -1t-38 -2.5t-46.5 -1.5q-13 0 -21 2.5t-8 8.5q0 12 33 18q38 7 58 23t20 51v452q0 35 -14.5 50t-52.5 22
q-33 6 -33 20q0 6 8 8.5t21 2.5q27 0 42.5 -1t29.5 -2t34 -1q71 0 122.5 -0.5t106.5 -0.5t107.5 1t122.5 1q22 0 36 0.5t30 1.5t43 1q13 0 21 -2.5t8 -8.5q0 -14 -33 -20q-37 -7 -54 -22t-17 -50v-452q0 -28 24.5 -43.5t69.5 -19.5q18 -1 18 -17q0 -12 -5 -39.5t-11 -66.5
t-9 -86q-1 -12 -7.5 -21.5t-18.5 -9.5z" />
  </g>

</svg>
