<?xml version="1.0" standalone="no"?>
<!DOCTYPE svg PUBLIC "-//W3C//DTD SVG 1.1//EN" "http://www.w3.org/Graphics/SVG/1.1/DTD/svg11.dtd" >
<svg xmlns="http://www.w3.org/2000/svg" xmlns:xlink="http://www.w3.org/1999/xlink" version="1.1" viewBox="-10 0 621 1000">
  <g transform="matrix(1 0 0 -1 0 800)">
   <path fill="currentColor"
d="M48 -3q-5 0 -14.5 1.5t-9.5 7.5q0 8 7.5 11.5t15.5 6.5q15 5 28.5 11.5t13.5 27.5v274q0 20 -9 27.5t-24 11.5q-8 3 -15.5 7t-7.5 11q0 6 8 7.5t14 1.5q20 0 28.5 -1t16.5 -2.5t25 -1.5q18 0 26 1.5t17 2.5t28 1q5 0 14.5 -1.5t9.5 -7.5q0 -7 -7.5 -11t-15.5 -7
q-15 -4 -26.5 -11.5t-11.5 -27.5v-101q0 -4 3.5 -5.5t6.5 -0.5q9 5 31 6.5t36 1.5q17 0 40 -5.5t45.5 -19t37.5 -36.5t15 -57q0 -44 -23.5 -71.5t-62.5 -39.5t-85 -12q-19 0 -30 1.5t-20.5 2.5t-27.5 1q-17 0 -27 -1t-20.5 -2.5t-29.5 -1.5zM213 25q34 0 61 22.5t27 66.5
q0 50 -23.5 73t-71.5 23q-27 0 -38 -7q-7 -5 -8 -13.5t-1 -12.5v-104q0 -24 18 -36t36 -12zM405 -3q-5 0 -12.5 1.5t-7.5 7.5q0 8 7.5 11.5t15.5 6.5q15 5 29 11.5t14 27.5v268q0 22 -9 33t-28 14q-9 2 -16 6.5t-7 11.5q0 6 7.5 7.5t12.5 1.5q20 0 29.5 -1t18 -2.5
t25.5 -1.5q18 0 28 1.5t21 2.5t31 1q6 0 13 -1.5t7 -7.5q0 -7 -7 -11.5t-16 -6.5q-20 -4 -30 -15.5t-10 -31.5v-268q0 -21 14 -27.5t29 -11.5q8 -3 15.5 -6.5t7.5 -11.5q0 -6 -7.5 -7.5t-12.5 -1.5q-20 0 -31.5 1.5t-21.5 2.5t-28 1q-17 0 -27.5 -1t-22 -2.5t-31.5 -1.5z
M395 508q-19 0 -34.5 15.5t-15.5 34.5t15.5 34.5t34.5 15.5t34.5 -15.5t15.5 -34.5t-15.5 -34.5t-34.5 -15.5zM218 508q-19 0 -34.5 15.5t-15.5 34.5t15.5 34.5t34.5 15.5t34.5 -15.5t15.5 -34.5t-15.5 -34.5t-34.5 -15.5z" />
  </g>

</svg>
