<?xml version="1.0" standalone="no"?>
<!DOCTYPE svg PUBLIC "-//W3C//DTD SVG 1.1//EN" "http://www.w3.org/Graphics/SVG/1.1/DTD/svg11.dtd" >
<svg xmlns="http://www.w3.org/2000/svg" xmlns:xlink="http://www.w3.org/1999/xlink" version="1.1" viewBox="-10 0 690 1000">
  <g transform="matrix(1 0 0 -1 0 800)">
   <path fill="currentColor"
d="M189 -14q-46 0 -75 28.5t-29 90.5v232q0 9 -4.5 12t-18.5 3h-15q-3 1 -7.5 6.5t-4.5 10.5t5 7q16 5 30.5 15.5t27 24t21.5 25.5q9 11 15.5 19t9.5 8q5 0 9.5 -1.5t4.5 -8.5v-44q0 -7 6 -10.5t16 -3.5h114q4 0 6 -7.5t2 -16.5t-2 -16.5t-6 -7.5h-99q-25 0 -32.5 -4
t-7.5 -24v-189q0 -55 21.5 -74.5t44.5 -19.5q34 0 64.5 12t59.5 29q-23 44 -23 98q0 62 27 115t75 85.5t109 32.5q32 0 65 -10t55 -38q5 -7 5 -12q0 -13 -15 -23.5t-23 -10.5q-15 0 -25 10q-16 18 -28 28.5t-26.5 14.5t-39.5 4q-36 0 -60.5 -22.5t-37 -56.5t-12.5 -71
q0 -27 6 -52.5t18 -48.5q37 22 77.5 38.5t89.5 16.5q34 0 58.5 -17t24.5 -51t-23 -62.5t-62 -46t-87 -17.5q-39 0 -71 17.5t-55 45.5q-42 -25 -86.5 -44t-91.5 -19zM550 38q35 0 53.5 20t18.5 36q0 21 -11 33.5t-51 12.5q-28 0 -58.5 -14t-63.5 -34q21 -25 49.5 -39.5
t62.5 -14.5z" />
  </g>

</svg>
