<?xml version="1.0" standalone="no"?>
<!DOCTYPE svg PUBLIC "-//W3C//DTD SVG 1.1//EN" "http://www.w3.org/Graphics/SVG/1.1/DTD/svg11.dtd" >
<svg xmlns="http://www.w3.org/2000/svg" xmlns:xlink="http://www.w3.org/1999/xlink" version="1.1" viewBox="-10 0 349 1000">
  <g transform="matrix(1 0 0 -1 0 800)">
   <path fill="currentColor"
d="M52 -3q-11 0 -17 2.5t-6 6.5q0 8 7.5 11.5t15.5 6.5q15 5 26 11.5t12 26.5v165q0 49 24 91.5t67 69t100 26.5q21 0 34.5 -9t13.5 -23q0 -10 -5.5 -22t-14.5 -21t-19 -9q-6 0 -12.5 2.5t-14.5 5.5q-8 4 -16.5 7t-16.5 3q-25 0 -40.5 -7t-22.5 -25t-7 -52v-197
q1 -20 20 -29t34 -14q8 -3 15.5 -6.5t7.5 -11.5q0 -6 -7.5 -7.5t-15.5 -1.5q-19 0 -31.5 1.5t-23.5 2.5t-29 1q-17 0 -27 -1t-20.5 -2.5t-30.5 -1.5z" />
  </g>

</svg>
