<?xml version="1.0" standalone="no"?>
<!DOCTYPE svg PUBLIC "-//W3C//DTD SVG 1.1//EN" "http://www.w3.org/Graphics/SVG/1.1/DTD/svg11.dtd" >
<svg xmlns="http://www.w3.org/2000/svg" xmlns:xlink="http://www.w3.org/1999/xlink" version="1.1" viewBox="-10 0 716 1000">
  <g transform="matrix(1 0 0 -1 0 800)">
   <path fill="currentColor"
d="M60 -5q-13 0 -21 2.5t-8 8.5q0 12 33 18q38 7 52.5 23.5t14.5 53.5v450q0 35 -14.5 49.5t-52.5 21.5q-33 6 -33 20q0 6 8 8.5t21 2.5q27 0 43.5 -0.5t31.5 -1t37 -0.5q19 0 30.5 0.5t25.5 1t41 0.5q13 0 21 -2.5t8 -8.5q0 -7 -8 -12t-25 -8q-37 -7 -45.5 -24.5
t-8.5 -46.5v-187q0 -4 0.5 -11.5t4.5 -7.5q5 0 13 6t14 12l207 221q38 38 71.5 58.5t79.5 20.5q48 0 71.5 -21t23.5 -53q0 -24 -12 -41.5t-35 -17.5q-25 0 -37.5 9.5t-23.5 23.5q-9 12 -18 21t-22 9t-22.5 -3.5t-26.5 -17.5q-43 -36 -98 -89.5t-103 -111.5q-6 -7 5 -18
l242 -258q22 -24 35.5 -37t30 -20.5t44.5 -13.5q17 -4 25 -7.5t8 -10.5q0 -6 -8 -8.5t-21 -2.5q-29 0 -50 1.5t-41 2.5t-48 1q-19 0 -33 -0.5t-48 -0.5q-13 0 -21 2.5t-8 8.5q0 11 27 17q28 7 28 20q0 6 -4.5 12t-10.5 13l-212 234q-5 6 -12 11.5t-11 5.5t-4 -8v-13
q0 -47 1.5 -89.5t3.5 -102.5q1 -21 6.5 -39t19 -30t38.5 -17q17 -3 25 -7t8 -11q0 -6 -8 -8.5t-21 -2.5q-27 0 -41.5 2t-26 3.5t-30.5 1.5q-24 0 -42.5 -1.5t-37.5 -3.5t-46 -2z" />
  </g>

</svg>
