<?xml version="1.0" standalone="no"?>
<!DOCTYPE svg PUBLIC "-//W3C//DTD SVG 1.1//EN" "http://www.w3.org/Graphics/SVG/1.1/DTD/svg11.dtd" >
<svg xmlns="http://www.w3.org/2000/svg" xmlns:xlink="http://www.w3.org/1999/xlink" version="1.1" viewBox="-10 0 978 1000">
  <g transform="matrix(1 0 0 -1 0 800)">
   <path fill="currentColor"
d="M673 -4q-14 0 -32.5 1.5t-38.5 2.5t-41 1q-20 0 -34 -1.5t-29.5 -3t-42.5 -1.5q-13 0 -21 2.5t-8 8.5q0 7 8 11t25 7q32 6 50 23.5t18 49.5v217q0 5 -1 11.5t-6 6.5h-305q-5 0 -5 -11v-215q0 -31 22.5 -53.5t56.5 -28.5q17 -3 25 -7t8 -11q0 -6 -8 -8.5t-21 -2.5
q-27 0 -44.5 1.5t-33.5 2.5t-39 1q-21 0 -35.5 -1t-31 -2.5t-43.5 -1.5q-13 0 -21 2.5t-8 8.5q0 12 33 18q38 7 49 23t11 52v452q0 35 -7.5 49.5t-45.5 21.5q-33 6 -33 20q0 6 8 8.5t21 2.5q27 0 42 -1t28 -1.5t33 -0.5q21 0 34.5 0.5t29 1.5t42.5 1q13 0 21 -2.5t8 -8.5
q0 -7 -8 -12t-25 -8q-37 -7 -52.5 -24.5t-15.5 -46.5v-172q0 -6 5 -7.5t9 -1.5h296q7 0 7 12v170q0 27 -14 45t-52 25q-17 3 -25 8t-8 12q0 6 8 8.5t21 2.5q27 0 44.5 -1t33.5 -1.5t38 -0.5q18 0 28 0.5t23 1.5t40 1q13 0 21 -2.5t8 -8.5q0 -14 -33 -20q-31 -6 -42 -20.5
t-11 -48.5v-155q0 -26 6 -31t10 -5q11 0 42 7t69 7q91 0 145 -47.5t54 -134.5q0 -41 -15 -73.5t-38 -55.5t-47 -35q-31 -16 -70.5 -25t-89.5 -9zM687 30q39 0 75 22t58.5 58t22.5 79q0 39 -16.5 70t-42.5 50q-45 34 -101 34q-9 0 -18.5 -1t-18.5 -3q-21 -4 -29.5 -9
t-8.5 -24v-198q0 -13 5 -28t14 -24q8 -8 24.5 -17t35.5 -9z" />
  </g>

</svg>
