<?xml version="1.0" standalone="no"?>
<!DOCTYPE svg PUBLIC "-//W3C//DTD SVG 1.1//EN" "http://www.w3.org/Graphics/SVG/1.1/DTD/svg11.dtd" >
<svg xmlns="http://www.w3.org/2000/svg" xmlns:xlink="http://www.w3.org/1999/xlink" version="1.1" viewBox="-10 0 1040 1000">
  <g transform="matrix(1 0 0 -1 0 800)">
   <path fill="currentColor"
d="M713 -218q-103 0 -103 49q0 17 14 32t25 15q13 0 25 -5.5t22 -19.5q13 -16 23.5 -23t23.5 -7q43 0 71.5 20.5t45.5 54.5t26 75.5t12 84t3 78.5q0 122 -37 174.5t-108 52.5q-37 0 -70 -8.5t-40 -13.5q-12 -8 -12 -28v-215q0 -35 21 -51t58 -23q33 -6 33 -18q0 -6 -8 -8.5
t-21 -2.5q-27 0 -44.5 1.5t-33.5 2.5t-39 1q-25 0 -43.5 -1t-38 -2.5t-46.5 -1.5q-13 0 -21 2.5t-8 8.5q0 7 8 11t25 7q38 7 57 25.5t20 49.5q3 125 1.5 252t-1.5 252q0 5 -2.5 6t-5.5 1h-164h-148q-5 0 -5 -11q0 -124 -2 -249.5t2 -250.5q1 -31 21.5 -49.5t57.5 -25.5
q17 -3 25 -7t8 -11q0 -6 -8 -8.5t-21 -2.5q-27 0 -44.5 1.5t-33.5 2.5t-39 1q-25 0 -43.5 -1t-38 -2.5t-46.5 -1.5q-13 0 -21 2.5t-8 8.5q0 12 33 18q38 7 58 23t20 51v452q0 35 -14.5 50t-52.5 22q-33 6 -33 20q0 6 8 8.5t21 2.5q27 0 42.5 -1t29.5 -2t34 -1h67.5t93.5 0.5
t101.5 0.5h91.5h63t36 0.5t30 1.5t43 1q13 0 21 -2.5t8 -8.5q0 -14 -33 -20q-37 -7 -54 -22t-17 -50v-141q0 -23 2 -32t10 -9h4t4 1q20 10 49.5 18.5t67.5 8.5q61 0 111.5 -27.5t81.5 -82.5t31 -140q0 -94 -37 -176.5t-105 -132.5q-33 -25 -66 -40t-74 -15z" />
  </g>

</svg>
