<?xml version="1.0" standalone="no"?>
<!DOCTYPE svg PUBLIC "-//W3C//DTD SVG 1.1//EN" "http://www.w3.org/Graphics/SVG/1.1/DTD/svg11.dtd" >
<svg xmlns="http://www.w3.org/2000/svg" xmlns:xlink="http://www.w3.org/1999/xlink" version="1.1" viewBox="-10 0 738 1000">
  <g transform="matrix(1 0 0 -1 0 800)">
   <path fill="currentColor"
d="M637 -21q-28 0 -53 4.5t-46 16.5t-39 33q-24 30 -44.5 55t-43.5 58.5t-58 89.5q-8 14 -28 26.5t-37 17.5q-14 5 -31.5 7.5t-31.5 3.5q-15 1 -15 -17v-164q0 -32 15 -55.5t52 -30.5q17 -3 25 -7t8 -11q0 -6 -8 -8.5t-21 -2.5q-27 0 -41.5 2t-26 3.5t-30.5 1.5
q-25 0 -44.5 -1.5t-39 -3.5t-46.5 -2q-13 0 -21 2.5t-8 8.5q0 12 33 18q38 7 55.5 23t17.5 53v422q0 45 -11.5 69t-49.5 31q-17 3 -25 8t-8 12q0 6 8 8.5t21 2.5h40.5t25.5 -0.5t32 -0.5q19 0 34 1.5t33.5 2.5t47.5 1q110 0 167.5 -41t57.5 -123q0 -45 -18 -77.5t-45 -54.5
t-55 -36q-4 -1 -3.5 -4.5t3.5 -8.5q31 -47 59.5 -89t62.5 -82t81 -83q26 -23 53 -28t62 -5q15 0 15 -11q0 -15 -15 -22.5t-34 -10t-32 -2.5zM76 292q-5 0 -9.5 4t-4.5 8q0 7 6 19.5t18 12.5h139q5 0 9.5 -3.5t4.5 -8.5v-2.5t-1 -3.5q-1 -7 -7 -16.5t-16 -9.5h-139zM263 336
q46 0 79.5 19t52 51.5t18.5 70.5q0 41 -10 75t-39 54.5t-86 20.5q-41 0 -52 -15.5t-12 -38.5q-1 -36 -2 -67t-1.5 -62.5t-0.5 -71.5q0 -25 14 -30.5t39 -5.5z" />
  </g>

</svg>
