<?xml version="1.0" standalone="no"?>
<!DOCTYPE svg PUBLIC "-//W3C//DTD SVG 1.1//EN" "http://www.w3.org/Graphics/SVG/1.1/DTD/svg11.dtd" >
<svg xmlns="http://www.w3.org/2000/svg" xmlns:xlink="http://www.w3.org/1999/xlink" version="1.1" viewBox="-10 0 451 1000">
  <g transform="matrix(1 0 0 -1 0 800)">
   <path fill="currentColor"
d="M289 -288q-39 0 -65.5 23.5t-39.5 65.5t-13 95v312q0 82 -17.5 129t-49.5 47q-21 0 -30 -12t-15 -26q-4 -10 -9 -18t-14 -8q-14 0 -21 9t-7 25q0 24 17 37t42 18t49 5q43 0 70.5 -29t41 -82t13.5 -125v-223q0 -83 8 -130t23 -66t37 -19q27 0 38.5 13.5t11.5 27.5
q0 7 6.5 15.5t17 16.5t21 13t18.5 5q6 0 7.5 -8t1.5 -18q0 -31 -19 -52t-51 -31t-72 -10z" />
  </g>

</svg>
