<?xml version="1.0" standalone="no"?>
<!DOCTYPE svg PUBLIC "-//W3C//DTD SVG 1.1//EN" "http://www.w3.org/Graphics/SVG/1.1/DTD/svg11.dtd" >
<svg xmlns="http://www.w3.org/2000/svg" xmlns:xlink="http://www.w3.org/1999/xlink" version="1.1" viewBox="-10 0 773 1000">
  <g transform="matrix(1 0 0 -1 0 800)">
   <path fill="currentColor"
d="M479 275q-31 0 -54 7.5t-45 17.5t-46 18t-55 8q-44 0 -82.5 -6.5t-56.5 -14.5l-1 23q13 14 38 28t54 23t53 9q32 0 56 -8t46 -18t45 -17.5t53 -7.5q44 0 83.5 6t55.5 15l1 -23q-14 -13 -38 -27t-52 -23.5t-55 -9.5zM377 -14q-66 0 -126 23.5t-106 67t-73 104t-27 134.5
q0 68 22 130.5t65 111.5t107 78t147 29q66 0 126 -23.5t106 -67t73 -104t27 -134.5q0 -67 -22 -130t-65 -112t-107 -78t-147 -29zM392 26q77 0 128 32.5t76.5 91t25.5 136.5q0 69 -16 130t-47.5 107.5t-78.5 72.5t-110 26q-75 0 -126 -32t-77 -89.5t-26 -135.5
q0 -70 15.5 -131t47 -108t78.5 -73.5t110 -26.5z" />
  </g>

</svg>
