<?xml version="1.0" standalone="no"?>
<!DOCTYPE svg PUBLIC "-//W3C//DTD SVG 1.1//EN" "http://www.w3.org/Graphics/SVG/1.1/DTD/svg11.dtd" >
<svg xmlns="http://www.w3.org/2000/svg" xmlns:xlink="http://www.w3.org/1999/xlink" version="1.1" viewBox="-10 0 718 1000">
  <g transform="matrix(1 0 0 -1 0 800)">
   <path fill="currentColor"
d="M169 -14q-41 0 -67.5 26.5t-39 67.5t-12.5 82q0 59 27.5 106t74 79.5t104 49.5t117.5 17q53 0 103.5 -14t91.5 -41.5t65.5 -68t24.5 -92.5q0 -62 -27.5 -110t-74.5 -75t-105 -27q-43 0 -74.5 16t-43.5 47q-5 11 -10 11q-3 0 -8.5 -8t-12.5 -16q-11 -13 -27 -24.5
t-41 -18.5t-65 -7zM210 33q47 0 79 26t32 60q0 35 -2 60t-2 60q0 32 16.5 44t39.5 12q18 0 23.5 -20t5.5 -40q0 -24 -1.5 -49t-3.5 -45t-2 -30q0 -33 23.5 -55.5t56.5 -22.5q40 0 62.5 21t31.5 53t9 65q0 70 -29.5 116t-78 69t-106.5 23q-68 0 -121 -22.5t-83 -64
t-30 -100.5q0 -35 5.5 -72t22.5 -62.5t52 -25.5z" />
  </g>

</svg>
