<?xml version="1.0" standalone="no"?>
<!DOCTYPE svg PUBLIC "-//W3C//DTD SVG 1.1//EN" "http://www.w3.org/Graphics/SVG/1.1/DTD/svg11.dtd" >
<svg xmlns="http://www.w3.org/2000/svg" xmlns:xlink="http://www.w3.org/1999/xlink" version="1.1" viewBox="-10 0 1148 1000">
  <g transform="matrix(1 0 0 -1 0 800)">
   <path fill="currentColor"
d="M371 -7q-10 0 -44.5 2t-79 3.5t-84.5 1.5q-20 0 -33.5 -1t-29 -2.5t-42.5 -1.5q-13 0 -21 3t-8 10q0 8 8 10.5t25 5.5q38 7 52.5 23t14.5 52v450q0 36 -14.5 51t-52.5 22q-17 3 -25 6.5t-8 11.5q0 7 8 10t21 3q26 0 41.5 -0.5t30.5 -1t39 -0.5q16 0 40.5 1t51 3t48 3
t31.5 1q102 0 174 -24.5t117 -68t66.5 -101t21.5 -123.5q0 -72 -27 -135t-75 -111.5t-111 -75.5t-135 -27zM359 28q78 0 138 38t93.5 105t33.5 154q0 72 -24 128.5t-64 95t-90 59t-101 20.5q-43 0 -73.5 -2.5t-46.5 -15.5t-16 -43v-446q0 -40 22 -60t56.5 -26.5t71.5 -6.5z
M793 -5q-4 0 -9 6.5t-5 10.5q0 3 6.5 13t15 23t15.5 22q25 36 48 69.5t45.5 67t46.5 71t51 80.5q2 3 2 6.5t-11 3.5l-99 3q-14 1 -26 -6t-18 -13t-11.5 -13t-11 -15t-11 -15.5t-10.5 -14.5q-6 -6 -15.5 -2t-6.5 12q3 9 7.5 26.5t8 36.5t3.5 31q0 8 6 13t9 5q4 0 15 -9
q5 -4 17.5 -5t25.5 -1q11 0 21 0.5t17 0.5q52 0 96 1t90 2q3 0 5 -2t3 -5t-1 -5q-10 -13 -19 -24t-19 -26l-195 -295q-4 -7 -1 -11t10 -4h118q11 0 22.5 6t22.5 17q12 12 26 31.5t29 41.5q5 7 13.5 4t8.5 -11q0 -3 -4 -18.5t-9.5 -35t-10 -36.5t-6.5 -23q-3 -14 -16 -14
q-22 0 -74.5 2.5t-134.5 2.5q-21 0 -44 -2.5t-36 -2.5zM955 455q-6 0 -11 6t-9 12q-7 12 -21.5 36.5t-30 51.5t-26 48t-10.5 26q0 7 1 10t8 3q6 0 15 -7.5t15 -14.5q10 -11 30 -36.5t36 -48.5q2 -3 3.5 -3t3.5 3q17 23 36.5 48.5t29.5 36.5q6 7 14.5 14.5t14.5 7.5q7 0 8 -3
t1 -10q0 -5 -10.5 -26t-26 -48t-29.5 -51.5t-22 -36.5q-4 -6 -9 -12t-11 -6z" />
  </g>

</svg>
