<?xml version="1.0" standalone="no"?>
<!DOCTYPE svg PUBLIC "-//W3C//DTD SVG 1.1//EN" "http://www.w3.org/Graphics/SVG/1.1/DTD/svg11.dtd" >
<svg xmlns="http://www.w3.org/2000/svg" xmlns:xlink="http://www.w3.org/1999/xlink" version="1.1" viewBox="-10 0 458 1000">
  <g transform="matrix(1 0 0 -1 0 800)">
   <path fill="currentColor"
d="M246 -3q-6 0 -14.5 1t-8.5 8q0 8 7.5 11.5t15.5 6.5q15 5 28.5 12t13.5 27v109q0 8 -2 11.5t-6 1.5q-20 -11 -52 -17t-61 -6q-28 0 -53 10t-41 29t-17 46l-1 90q0 20 -5 27t-20 11q-8 3 -15.5 7.5t-7.5 11.5t8.5 8t14.5 1q15 0 22 -1t15 -2.5t25 -1.5q18 0 27.5 1.5
t18 2.5t23.5 1q7 0 15 -1t8 -8t-7.5 -11t-15.5 -7q-15 -4 -25.5 -11.5t-10.5 -27.5v-72q0 -28 16 -49t50 -21q23 0 45.5 3t37.5 15q8 6 11 11.5t3 9.5v103q0 20 -10 27.5t-25 11.5q-8 3 -15.5 7t-7.5 11t8 8t15 1q20 0 29 -1t17.5 -2.5t25.5 -1.5q18 0 26.5 1.5t18.5 2.5
t29 1q7 0 15 -1t8 -8t-7.5 -11t-15.5 -7q-15 -4 -28 -11.5t-13 -27.5v-274q0 -20 14.5 -27t29.5 -12q8 -3 15.5 -6.5t7.5 -11.5q0 -7 -8.5 -8t-14.5 -1q-19 0 -30 1.5t-20.5 2.5t-27.5 1q-17 0 -27 -1t-20.5 -2.5t-30.5 -1.5zM296 508q-19 0 -34.5 15.5t-15.5 34.5
t15.5 34.5t34.5 15.5t34.5 -15.5t15.5 -34.5t-15.5 -34.5t-34.5 -15.5zM119 508q-19 0 -34.5 15.5t-15.5 34.5t15.5 34.5t34.5 15.5t34.5 -15.5t15.5 -34.5t-15.5 -34.5t-34.5 -15.5z" />
  </g>

</svg>
