<?xml version="1.0" standalone="no"?>
<!DOCTYPE svg PUBLIC "-//W3C//DTD SVG 1.1//EN" "http://www.w3.org/Graphics/SVG/1.1/DTD/svg11.dtd" >
<svg xmlns="http://www.w3.org/2000/svg" xmlns:xlink="http://www.w3.org/1999/xlink" version="1.1" viewBox="-10 0 591 1000">
  <g transform="matrix(1 0 0 -1 0 800)">
   <path fill="currentColor"
d="M167 -14q-49 0 -78 18t-42 43t-13 46q0 23 10 37t35 31l325 213q8 5 22 15t26 16q5 2 8.5 3.5t5.5 1.5q8 0 14 -4t6 -13q0 -2 -4 -6t-10 -12q-13 -17 -18.5 -38.5t-3.5 -41t12.5 -32t28.5 -12.5q8 0 16.5 4t16.5 10t12 12q4 5 9.5 9t9.5 4q6 0 9.5 -2t5 -5.5t1.5 -9.5
q0 -7 -11.5 -26t-33 -35t-52.5 -16q-30 0 -47.5 17t-21 44.5t5.5 58t31 57.5l3 -16q-7 -4 -33.5 -21t-64.5 -41.5t-79.5 -51.5t-79 -51.5t-63 -41.5t-30.5 -21q-4 -3 -9 -11t-5 -19q0 -22 16 -41t41 -31t52 -12q48 0 77 44.5t29 120.5q0 50 -19.5 89.5t-54.5 62t-80 22.5
q-30 0 -54.5 -11.5t-43.5 -33.5q-6 -8 -11 -8q-8 0 -8 10t4.5 20.5t13.5 21.5q15 20 36 33.5t46.5 21t51.5 7.5q55 0 96 -27t64 -76t23 -115q0 -57 -26.5 -105t-70 -77t-96.5 -29z" />
  </g>

</svg>
