<?xml version="1.0" standalone="no"?>
<!DOCTYPE svg PUBLIC "-//W3C//DTD SVG 1.1//EN" "http://www.w3.org/Graphics/SVG/1.1/DTD/svg11.dtd" >
<svg xmlns="http://www.w3.org/2000/svg" xmlns:xlink="http://www.w3.org/1999/xlink" version="1.1" viewBox="-10 0 770 1000">
  <g transform="matrix(1 0 0 -1 0 800)">
   <path fill="currentColor"
d="M527 -288q-19 0 -33.5 1.5t-32.5 8.5q-7 3 -17 10.5t-10 12.5q0 8 4.5 19.5t10.5 20t12 8.5q9 0 16 -7.5t14.5 -17t18 -17t26.5 -7.5q19 0 39.5 14.5t27.5 40.5q6 21 9 60.5t4.5 89.5t1.5 101q0 49 -1 94t-1.5 79t-0.5 49q0 44 -25.5 68.5t-65.5 24.5q-25 0 -49.5 -8.5
t-43.5 -22.5q-11 -8 -18 -21.5t-7 -44.5v-199q0 -21 13.5 -30.5t28.5 -14.5q8 -3 15.5 -6.5t7.5 -11.5q0 -7 -9.5 -8t-13.5 -1q-19 0 -30 1.5t-20.5 2.5t-27.5 1q-17 0 -27 -1t-20.5 -2.5t-30.5 -1.5q-4 0 -13.5 1t-9.5 8q0 8 7.5 11.5t15.5 6.5q15 5 29 13t15 29v211
q-1 27 -8 50.5t-33 24.5h-93q-26 0 -33 -4.5t-7 -12.5v-267q1 -20 14.5 -29.5t28.5 -14.5q8 -3 15.5 -6.5t7.5 -11.5q0 -6 -7 -7.5t-13 -1.5q-20 0 -32 1.5t-22 2.5t-27 1q-24 0 -38 -2.5t-45 -2.5q-6 0 -13 1.5t-7 7.5q0 8 7.5 11.5t15.5 6.5q15 5 29 14.5t14 29.5v282
q-10 0 -23 0.5t-29 1.5q-3 1 -6.5 7.5t-3.5 11.5q0 4 3 5q23 6 33.5 12.5t25.5 13.5q0 87 21.5 145.5t55.5 93.5t72 50t71 15q34 0 53 -3.5t41 -21.5q8 -7 12 -16t4 -19q0 -16 -10 -28t-24 -12q-10 0 -19 9t-21 20.5t-30.5 20.5t-47.5 9q-46 0 -76 -44.5t-30 -145.5v-53
q0 -13 7.5 -17.5t17.5 -4.5h118q35 0 55.5 5t43.5 24l1 1h1q2 0 4 -3.5t3 -5.5q0 -7 -3.5 -29.5t-3.5 -35.5v-5t1 -3q10 10 38 25.5t64 28t67 12.5q33 0 57 -13.5t38 -40t14 -65.5q0 -26 1.5 -83t1.5 -122q0 -53 -1.5 -105t-5.5 -93.5t-12 -64.5q-22 -64 -61.5 -89.5
t-80.5 -25.5z" />
  </g>

</svg>
