<?xml version="1.0" standalone="no"?>
<!DOCTYPE svg PUBLIC "-//W3C//DTD SVG 1.1//EN" "http://www.w3.org/Graphics/SVG/1.1/DTD/svg11.dtd" >
<svg xmlns="http://www.w3.org/2000/svg" xmlns:xlink="http://www.w3.org/1999/xlink" version="1.1" viewBox="-117 0 234 1000">
  <g transform="matrix(1 0 0 -1 0 800)">
   <path fill="currentColor"
d="M-92 456q-7 0 -11 7t-4 17q0 28 7 49.5t20.5 36.5t33.5 22.5t46 7.5t46 -9t33.5 -25t20.5 -37t7 -45q0 -10 -3.5 -17t-11.5 -7q-7 0 -10 7t-7 14q-6 11 -11.5 26t-19.5 26.5t-44 11.5t-43.5 -11.5t-19.5 -26.5t-12 -26q-4 -7 -6.5 -14t-10.5 -7z" />
  </g>

</svg>
