<?xml version="1.0" standalone="no"?>
<!DOCTYPE svg PUBLIC "-//W3C//DTD SVG 1.1//EN" "http://www.w3.org/Graphics/SVG/1.1/DTD/svg11.dtd" >
<svg xmlns="http://www.w3.org/2000/svg" xmlns:xlink="http://www.w3.org/1999/xlink" version="1.1" viewBox="-10 0 527 1000">
  <g transform="matrix(1 0 0 -1 0 800)">
   <path fill="currentColor"
d="M39 -3q-5 0 -12.5 1.5t-7.5 7.5q0 8 7.5 11.5t15.5 6.5q15 5 28.5 13t14.5 28v400q0 80 27 133.5t69 80.5t86 27q17 0 32 -1.5t27 -6t18 -12.5q5 -5 6.5 -9.5t1.5 -9.5q0 -16 -11.5 -30.5t-25.5 -14.5q-10 0 -17 8t-14.5 19t-18.5 19t-29 8q-32 0 -56.5 -43t-24.5 -125
v-120q0 -9 2 -20.5t6 -16.5q16 12 39.5 26.5t52.5 25.5t60 11q32 0 58 -19t41.5 -48t15.5 -59v-220q0 -20 13 -29.5t28 -14.5q8 -3 15.5 -6.5t7.5 -11.5q0 -6 -7 -7.5t-13 -1.5q-20 0 -31.5 1.5t-21.5 2.5t-27 1q-16 0 -25.5 -1t-20.5 -2.5t-32 -1.5q-6 0 -13 1.5t-7 7.5
q0 8 7.5 11.5t15.5 6.5q15 5 27 14.5t12 29.5v204q0 25 -14.5 45.5t-35.5 32.5t-43 12q-19 0 -44 -5.5t-39 -16.5q-16 -13 -21.5 -27t-5.5 -45v-203q1 -20 12 -28t26 -13q8 -3 15.5 -6.5t7.5 -11.5q0 -6 -7 -7.5t-13 -1.5q-20 0 -30.5 1.5t-19.5 2.5t-26 1q-16 0 -26.5 -1
t-22 -2.5t-32.5 -1.5z" />
  </g>

</svg>
