<?xml version="1.0" standalone="no"?>
<!DOCTYPE svg PUBLIC "-//W3C//DTD SVG 1.1//EN" "http://www.w3.org/Graphics/SVG/1.1/DTD/svg11.dtd" >
<svg xmlns="http://www.w3.org/2000/svg" xmlns:xlink="http://www.w3.org/1999/xlink" version="1.1" viewBox="-10 0 686 1000">
  <g transform="matrix(1 0 0 -1 0 800)">
   <path fill="currentColor"
d="M48 0q-8 0 -11.5 5t-3.5 12q0 4 2 10l258 543q3 7 5.5 14t4.5 16q2 8 2.5 17.5t1.5 10.5q9 3 15.5 4.5t14.5 5.5q11 5 18.5 18.5t11.5 13.5t6 -3.5t4 -10.5l238 -629q1 -2 1 -7q0 -7 -4 -13.5t-11 -6.5h-553zM151 55h334q17 0 17 12q0 8 -4.5 21t-11.5 32l-146 419
q-6 18 -9 18q-2 0 -10 -17l-197 -436q-4 -10 -6.5 -17.5t-2.5 -12.5q0 -13 11 -16t25 -3z" />
  </g>

</svg>
