<?xml version="1.0" standalone="no"?>
<!DOCTYPE svg PUBLIC "-//W3C//DTD SVG 1.1//EN" "http://www.w3.org/Graphics/SVG/1.1/DTD/svg11.dtd" >
<svg xmlns="http://www.w3.org/2000/svg" xmlns:xlink="http://www.w3.org/1999/xlink" version="1.1" viewBox="-10 0 505 1000">
  <g transform="matrix(1 0 0 -1 0 800)">
   <path fill="currentColor"
d="M234 -14q-56 0 -101 26t-71.5 71.5t-26.5 103.5q0 42 16.5 82t46.5 73t70 52.5t86 19.5q58 0 104.5 -28t74 -73.5t27.5 -99.5q0 -58 -25.5 -110t-75.5 -84.5t-125 -32.5zM255 16q34 0 61 13t42 42q12 23 16 56t4 62q0 48 -17.5 92.5t-49 73t-74.5 28.5q-27 0 -48.5 -8.5
t-39.5 -31.5q-20 -25 -26 -61t-6 -72q0 -49 18 -93.5t49 -72.5t71 -28zM162 472q-7 0 -11 7t-4 17q0 38 12 63.5t36 39t59 13.5t59 -15.5t36 -42t12 -58.5q0 -10 -3.5 -17t-11.5 -7q-7 0 -10 7t-7 14q-6 11 -11.5 26t-19.5 26.5t-44 11.5t-43.5 -11.5t-19.5 -26.5t-12 -26
q-4 -7 -6.5 -14t-10.5 -7z" />
  </g>

</svg>
