<?xml version="1.0" standalone="no"?>
<!DOCTYPE svg PUBLIC "-//W3C//DTD SVG 1.1//EN" "http://www.w3.org/Graphics/SVG/1.1/DTD/svg11.dtd" >
<svg xmlns="http://www.w3.org/2000/svg" xmlns:xlink="http://www.w3.org/1999/xlink" version="1.1" viewBox="-10 0 683 1000">
  <g transform="matrix(1 0 0 -1 0 800)">
   <path fill="currentColor"
d="M607 -205q-14 0 -17.5 14t-3.5 29q1 17 1 32v28q0 62 -15.5 82t-56.5 20q-20 0 -33.5 -1t-29 -2.5t-42.5 -1.5q-13 0 -21 2.5t-8 8.5q0 7 8 11t25 7q38 7 48.5 25t10.5 55v85q0 39 -11.5 79t-38.5 67.5t-74 27.5q-37 0 -70 -8.5t-40 -13.5q-7 -4 -9.5 -7.5t-2.5 -12.5
v-218q0 -37 10.5 -54.5t47.5 -24.5q17 -3 25 -7t8 -11q0 -6 -8 -8.5t-21 -2.5q-27 0 -41.5 1.5t-26.5 2.5t-32 1q-24 0 -41.5 -1t-36 -2.5t-45.5 -1.5q-13 0 -21 2.5t-8 8.5q0 7 8 11t25 7q38 7 57.5 24.5t19.5 54.5v447q0 35 -14.5 50t-52.5 22q-33 6 -33 20q0 6 8 8.5
t21 2.5q27 0 44.5 -1t33.5 -1.5t39 -0.5q22 0 36 0.5t30 1.5t43 1q13 0 21 -2.5t8 -8.5q0 -7 -8 -12t-25 -8q-37 -7 -54 -22t-17 -50v-170q0 -10 1 -14t4 -4t15 7q20 11 49.5 19t67.5 8q61 0 103 -26.5t64 -72t22 -103.5v-102q0 -22 17 -32.5t38.5 -14t35.5 -4.5q8 0 11 -5
t3 -11q0 -12 -5 -41.5t-11 -70t-9 -87.5q-1 -12 -7.5 -21.5t-18.5 -9.5z" />
  </g>

</svg>
