<?xml version="1.0" standalone="no"?>
<!DOCTYPE svg PUBLIC "-//W3C//DTD SVG 1.1//EN" "http://www.w3.org/Graphics/SVG/1.1/DTD/svg11.dtd" >
<svg xmlns="http://www.w3.org/2000/svg" xmlns:xlink="http://www.w3.org/1999/xlink" version="1.1" viewBox="-132 0 265 1000">
  <g transform="matrix(1 0 0 -1 0 800)">
   <path fill="currentColor"
d="M-8 -287q-47 0 -80.5 33t-33.5 80q0 30 17.5 58.5t42.5 52.5t50.5 42.5t43 28.5l17.5 10h26l-17 -13t-39 -36t-39 -54.5t-17 -69.5q0 -26 20 -43.5t46 -17.5q18 0 35 9t30 19t17 12t8 1t4 -7q0 -16 -12.5 -34.5t-32.5 -34.5t-43 -26t-43 -10z" />
  </g>

</svg>
