<?xml version="1.0" standalone="no"?>
<!DOCTYPE svg PUBLIC "-//W3C//DTD SVG 1.1//EN" "http://www.w3.org/Graphics/SVG/1.1/DTD/svg11.dtd" >
<svg xmlns="http://www.w3.org/2000/svg" xmlns:xlink="http://www.w3.org/1999/xlink" version="1.1" viewBox="-10 0 690 1000">
  <g transform="matrix(1 0 0 -1 0 800)">
   <path fill="currentColor"
d="M271.332 -13.7031q-60.2969 0 -109.629 28.3203q-49.334 28.3203 -78.1113 76.7402t-28.7773 106.889q0 42.0234 17.3574 81.3076q17.3584 39.2842 47.0498 69.8887q29.6904 30.6045 68.9746 48.876t83.1357 18.2715h16.4434q8.22266 0 15.5312 -1.82715
q18.2715 -2.74121 38.8271 -4.11133t43.3945 -1.37012q26.4932 0 56.1846 0.457031t58.4688 0.913086q28.7773 0.457031 53.4443 0.914062q24.667 0.456055 41.1104 0.456055q2.74121 0 6.39551 -0.913086t4.56738 -4.56738q2.74121 -11.877 5.02539 -27.4082
q2.2832 -15.5303 3.6543 -30.6045q1.37012 -15.0732 1.37012 -26.0361q0 -2.74121 -3.6543 -4.11133q-3.6543 -1.37109 -6.39551 -1.37109q-3.6543 0 -4.56738 1.37109q-0.913086 1.37012 -2.74121 5.02441q-6.39453 21.0127 -19.6416 36.0859
q-13.2471 15.0742 -36.999 15.0742h-89.5312q-5.48047 0 -14.1602 -3.19727q-8.67871 -3.19824 -8.67871 -15.0742v-111.456q0 -4.56836 1.37012 -9.13574q1.37109 -4.56738 5.02539 -4.56738h72.1719q14.6172 0 24.666 6.85156q10.0498 6.85156 13.7041 18.7285
q1.82715 1.82617 6.39551 6.85156q4.56738 5.02441 6.39453 5.02441q2.74023 0 5.93848 -2.74121q3.19727 -2.74023 2.28418 -7.30859q-0.914062 -10.9629 -1.37109 -21.4688t-0.457031 -20.5547q0 -11.877 0.457031 -24.667t1.37109 -25.5801q0.913086 -3.6543 0 -7.30859
q-0.914062 -3.6543 -5.48242 -3.6543q-6.39453 0 -10.5059 7.30859t-5.9375 10.0498q-3.6543 15.5303 -15.9883 21.9258q-12.333 6.39453 -31.5176 6.39453h-27.4082q-12.7891 0 -26.9502 -2.74023q-14.1602 -2.74121 -14.1602 -15.5312v-100.493q0 -27.4072 10.5059 -37
q10.5068 -9.59277 30.6045 -9.59277h73.0859q28.3213 0 46.1357 16.4453q17.8154 16.4434 26.9502 36.543q1.82812 2.74023 5.93848 4.56738q4.11133 1.82715 7.76562 1.82715t5.93848 -1.82715q2.2832 -1.82715 2.2832 -5.48145q-1.82617 -18.2715 -6.39453 -40.6543
t-9.13574 -37.9131q-0.913086 -3.6543 -2.28418 -7.30859q-1.37012 -3.6543 -5.9375 -3.6543q-31.0625 0 -59.8398 0.913086q-28.7773 0.914062 -55.7275 1.37109t-51.1602 1.37012t-47.9629 0.913086q-15.5303 0 -25.123 -0.456055q-9.59277 -0.457031 -24.21 -5.02441
q-35.6289 -10.9629 -79.4805 -10.9629zM285.949 20.0986q36.543 0 55.7275 11.876q19.1846 11.877 19.1846 40.1973v253.975q0 12.7891 -0.913086 21.0117t-8.22168 12.79q-17.3584 12.79 -38.3711 20.0986q-21.0117 7.30859 -47.5059 7.30859q-51.1602 0 -80.3945 -25.5801
t-41.1104 -65.7773t-11.876 -84.0488q0 -52.9873 16.9004 -96.8389q16.9014 -43.8516 51.1602 -69.4316q34.2598 -25.5801 85.4199 -25.5801z" />
  </g>

</svg>
