<?xml version="1.0" standalone="no"?>
<!DOCTYPE svg PUBLIC "-//W3C//DTD SVG 1.1//EN" "http://www.w3.org/Graphics/SVG/1.1/DTD/svg11.dtd" >
<svg xmlns="http://www.w3.org/2000/svg" xmlns:xlink="http://www.w3.org/1999/xlink" version="1.1" viewBox="-10 0 821 1000">
  <g transform="matrix(1 0 0 -1 0 800)">
   <path fill="currentColor"
d="M332 -285q-5 0 -13 1.5t-8 7.5q0 8 7.5 11.5t15.5 6.5q15 5 29 11.5t14 26.5v215q0 17 -1.5 23.5t-4.5 6.5q-2 0 -4.5 -1.5t-4.5 -3.5q-13 -11 -46.5 -22.5t-80.5 -11.5q-52 0 -97.5 22t-74 65t-28.5 105q0 71 31 124t87 82.5t129 29.5q34 0 62 -5.5t46 -11t20 -5.5
q11 0 16 7t10 18q1 1 3 2.5t4 1.5q5 0 10.5 -3t5.5 -7q-6 -37 -7.5 -48t-1.5 -15q10 10 36.5 25.5t60.5 28t65 12.5q52 0 88.5 -27.5t56 -70.5t19.5 -91q0 -44 -17 -86.5t-48 -77t-72 -55t-88 -20.5q-14 0 -33.5 4.5t-38 11.5t-28.5 16q-1 0 -2 -11.5t-1.5 -24t-0.5 -15.5
v-187q0 -13 10.5 -20.5t24 -11t23.5 -6.5q8 -3 15.5 -6.5t7.5 -11.5q0 -6 -10 -7.5t-16 -1.5l-15.5 1t-36 2t-38.5 1q-17 0 -27.5 -1t-21.5 -2t-31 -1zM272 24q26 0 46.5 4.5t39.5 18.5q10 7 14 27.5t5 47t1 49.5l-1 104q-1 45 -35.5 76t-84.5 31q-36 0 -68 -20.5t-52 -59.5
t-20 -97q0 -50 15.5 -84.5t39.5 -56t51 -31t49 -9.5zM566 17q15 0 36.5 9t43 29t36 54t14.5 84q0 58 -15 93t-37 53t-45 24t-39 6q-25 0 -46 -7.5t-40 -21.5q-11 -8 -17.5 -24t-8.5 -47q0 -13 -0.5 -29.5t-0.5 -34.5q0 -25 0.5 -49.5t1.5 -40.5q1 -13 5.5 -36t18.5 -37
q11 -10 35.5 -17.5t57.5 -7.5z" />
  </g>

</svg>
