<?xml version="1.0" standalone="no"?>
<!DOCTYPE svg PUBLIC "-//W3C//DTD SVG 1.1//EN" "http://www.w3.org/Graphics/SVG/1.1/DTD/svg11.dtd" >
<svg xmlns="http://www.w3.org/2000/svg" xmlns:xlink="http://www.w3.org/1999/xlink" version="1.1" viewBox="-10 0 546 1000">
  <g transform="matrix(1 0 0 -1 0 800)">
   <path fill="currentColor"
d="M384 -288q-39 0 -62.5 23.5t-34.5 65.5t-11 95v88q0 8 -2.5 12t-10.5 4h-72h-72q-21 0 -44 -2.5t-36 -2.5q-4 0 -9 6.5t-5 10.5q0 3 6.5 13t15 23t15.5 22q25 36 47 68.5t43.5 66t45 70t50.5 79.5q2 3 2 6.5t-11 3.5h-97q-14 0 -24.5 -3t-16.5 -9t-11.5 -13t-11 -15
t-11 -15.5t-10.5 -14.5q-6 -6 -15.5 -2t-6.5 12q3 9 7.5 26.5t8 36.5t3.5 31q0 8 6 13t9 5q4 0 15 -9q5 -4 17.5 -5t25.5 -1q11 0 21 0.5t17 0.5q52 0 96 1t90 2q3 0 5 -2t3 -5t-1 -5q-10 -13 -18.5 -24t-19.5 -26l-193 -293q-4 -6 2 -10.5t10 -4.5h117q23 0 43.5 22.5
t42.5 54.5q2 4 7.5 14t14.5 10q7 0 7.5 -10t0.5 -13q0 -2 -5.5 -16t-12.5 -32.5t-12.5 -34.5t-5.5 -22v-104q0 -44 8 -81.5t23 -60t37 -22.5q27 0 38.5 13.5t11.5 27.5q0 7 6.5 15.5t17 16.5t21 13t18.5 5q6 0 7.5 -8t1.5 -18q0 -31 -19 -52t-51 -31t-72 -10z" />
  </g>

</svg>
