<?xml version="1.0" standalone="no"?>
<!DOCTYPE svg PUBLIC "-//W3C//DTD SVG 1.1//EN" "http://www.w3.org/Graphics/SVG/1.1/DTD/svg11.dtd" >
<svg xmlns="http://www.w3.org/2000/svg" xmlns:xlink="http://www.w3.org/1999/xlink" version="1.1" viewBox="-12 0 1003 1000">
  <g transform="matrix(1 0 0 -1 0 800)">
   <path fill="currentColor"
d="M930 -205q-14 0 -17.5 14t-3.5 29q1 17 1 32v28q0 49 -8 65t-29 19t-40 17t-37 36.5t-34.5 49.5t-31.5 55q-16 30 -31.5 59t-30 53.5t-29.5 38.5q-10 11 -18.5 19t-25.5 12.5t-54 4.5q-6 0 -8 -6t-2 -11v-211q0 -24 9.5 -39t27 -23t42.5 -13q17 -3 25 -7t8 -11
q0 -6 -8 -8.5t-21 -2.5q-27 0 -44.5 1.5t-33.5 2.5t-39 1q-25 0 -43.5 -1t-38 -2.5t-46.5 -1.5q-13 0 -21 2.5t-8 8.5q0 12 33 18q38 7 58 23t20 52v211q0 5 -2 11t-8 6q-36 0 -53.5 -4.5t-25.5 -12.5l-19 -19q-15 -15 -32.5 -41t-36 -57.5t-38.5 -64.5q-22 -37 -46.5 -70.5
t-49.5 -54.5t-51 -21q-25 0 -49 5.5t-34 12.5q-3 2 -5.5 5.5t-2.5 7.5q0 5 3.5 8.5t7.5 3.5q30 0 57 21t52 54.5t48 70.5t45 73t44.5 63t44.5 37q7 3 5.5 8.5t-7.5 11.5q-11 11 -23.5 27t-23.5 42l-42 100q-15 35 -30 42t-29 7q-12 0 -32 -10t-34 -10q-11 0 -23.5 15
t-12.5 39q0 20 9.5 33.5t41.5 13.5q39 0 64.5 -13t42 -34.5t28.5 -49.5l42 -97q27 -55 53.5 -81t78.5 -29h36q6 0 6.5 3.5t0.5 14.5v179q0 35 -14.5 47t-52.5 19q-33 6 -33 20q0 6 8 8.5t21 2.5q27 0 44.5 -1t33.5 -1.5t39 -0.5q22 0 36 0.5t30 1.5t43 1q13 0 21 -2.5
t8 -8.5q0 -7 -8 -12t-25 -8q-37 -7 -54 -19t-17 -47v-179q0 -11 0.5 -14.5t6.5 -3.5h36q52 3 79.5 28t52.5 82l42 97q18 41 47.5 69t87.5 28q32 0 41.5 -13.5t9.5 -33.5q0 -24 -12.5 -39t-23.5 -15q-14 0 -34 10t-32 10q-13 0 -28.5 -7t-30.5 -42l-42 -100
q-11 -26 -23.5 -42t-23.5 -27q-14 -14 -2 -20q28 -12 49.5 -38.5t40 -60t36.5 -68.5t38 -67t45 -55t57 -30q14 -3 23.5 -11t9.5 -14q0 -12 -5 -35t-11 -57.5t-9 -81.5q-1 -12 -7.5 -21.5t-18.5 -9.5z" />
  </g>

</svg>
