<?xml version="1.0" standalone="no"?>
<!DOCTYPE svg PUBLIC "-//W3C//DTD SVG 1.1//EN" "http://www.w3.org/Graphics/SVG/1.1/DTD/svg11.dtd" >
<svg xmlns="http://www.w3.org/2000/svg" xmlns:xlink="http://www.w3.org/1999/xlink" version="1.1" viewBox="-10 0 477 1000">
  <g transform="matrix(1 0 0 -1 0 800)">
   <path fill="currentColor"
d="M111 -3q-5 0 -14.5 1.5t-9.5 7.5q0 8 7.5 11.5t15.5 6.5q15 5 28.5 11.5t13.5 27.5v380q0 9 -2 20.5t-10 11.5h-58q-13 0 -21 -14.5t-19 -38.5q-1 -3 -5.5 -9t-9.5 -11t-10 -5q-4 0 -5.5 3.5t-1.5 7.5v6t1 5q4 14 8 42.5t4 47.5q0 8 6 13t9 5q2 0 6.5 -2.5t8.5 -6.5
q4 -3 17 -4t26 -1h47q9 0 9 12v42q0 29 -10.5 48.5t-35.5 24.5q-8 2 -8 13q0 10 7 12q26 7 46 13.5t37 13.5t33 13q1 0 1 0.5t1 0.5q2 0 4 -2.5t2 -4.5q0 -9 -3 -38.5t-3 -97.5v-33q0 -17 13 -17h70q13 0 26 1t17 4q5 4 11 6.5t8 2.5q3 0 8 -5t3 -13q-2 -9 -3 -20.5
t-1 -23.5t0.5 -23.5t1.5 -22.5q1 -7 -2.5 -14.5t-10.5 -7.5t-11.5 9.5t-5.5 15.5q-1 17 -11.5 35t-24.5 18h-74q-7 0 -10.5 -5t-4.5 -12v-221q0 -4 3.5 -6t6.5 -1q9 5 31 6.5t36 1.5q17 0 40 -5.5t45.5 -18t37.5 -33t15 -50.5q0 -53 -23.5 -82t-62 -40.5t-85.5 -11.5
q-19 0 -30 1.5t-20.5 2.5t-27.5 1q-17 0 -27 -1t-20.5 -2.5t-29.5 -1.5zM269 25q38 0 66.5 26.5t28.5 62.5q0 50 -23.5 73t-71.5 23q-27 0 -38 -7q-7 -5 -8 -13.5t-1 -12.5v-104q0 -21 16.5 -34.5t30.5 -13.5z" />
  </g>

</svg>
