<?xml version="1.0" standalone="no"?>
<!DOCTYPE svg PUBLIC "-//W3C//DTD SVG 1.1//EN" "http://www.w3.org/Graphics/SVG/1.1/DTD/svg11.dtd" >
<svg xmlns="http://www.w3.org/2000/svg" xmlns:xlink="http://www.w3.org/1999/xlink" version="1.1" viewBox="-79 0 604 1000">
  <g transform="matrix(1 0 0 -1 0 800)">
   <path fill="currentColor"
d="M34 -200q-103 0 -103 49q0 17 14 32t25 15q13 0 25 -5.5t22 -19.5q13 -16 23.5 -23t23.5 -7q35 0 50.5 42.5t15.5 115.5v551q0 35 -14.5 50t-52.5 22q-17 3 -25 8t-8 12q0 6 8 8.5t21 2.5q27 0 44.5 -1t34 -1.5t39.5 -0.5h290q4 0 14.5 1.5t11.5 1.5q5 0 11.5 -2t6.5 -7
q1 -31 2.5 -65.5t1.5 -60.5q0 -4 -3 -9t-8 -5t-8.5 5.5t-5.5 10.5q-7 23 -13.5 43t-21.5 33q-11 11 -28 16.5t-43 5.5h-132q-23 0 -32.5 -15t-9.5 -47v-509q0 -42 -13 -79t-31.5 -66t-34.5 -48q-20 -24 -44 -39t-53 -15zM33 298q-7 0 -10.5 7t-3.5 11q0 7 7.5 12.5t16.5 5.5
h323q5 0 9.5 -3t4.5 -8q0 -1 -0.5 -1.5t-0.5 -1.5q-5 -10 -12.5 -16t-18.5 -6h-315z" />
  </g>

</svg>
