<?xml version="1.0" standalone="no"?>
<!DOCTYPE svg PUBLIC "-//W3C//DTD SVG 1.1//EN" "http://www.w3.org/Graphics/SVG/1.1/DTD/svg11.dtd" >
<svg xmlns="http://www.w3.org/2000/svg" xmlns:xlink="http://www.w3.org/1999/xlink" version="1.1" viewBox="-10 0 390 1000">
  <g transform="matrix(1 0 0 -1 0 800)">
   <path fill="currentColor"
d="M170 -112q-6 0 -8.5 4.5t-2.5 11.5q0 20 5 45t14 50h-13t-14.5 0.5t-15 0.5h-16.5q-21 0 -44 -2.5t-36 -2.5q-4 0 -9 6.5t-5 10.5q0 3 6.5 13t15 23t15.5 22q25 36 47 68.5t43.5 66t45 70t50.5 79.5q2 3 2 6.5t-11 3.5h-117q-13 0 -25 -16.5t-27 -36.5q-2 -2 -5 -6
t-6.5 -8.5t-7.5 -7.5t-8 -3q-7 0 -8 8t2 14q4 10 8 26.5t6.5 34t2.5 29.5q0 8 6 13t9 5q4 0 15 -9q5 -4 17.5 -5t25.5 -1q11 0 21 0.5t17 0.5q52 0 96 1t90 2q3 0 5 -2t3 -5t-1 -5q-10 -13 -18.5 -24t-19.5 -26l-193 -293q-4 -6 2 -10.5t10 -4.5h53q20 44 51 76.5t66 32.5
q23 0 36 -7t19 -21t6 -37q0 -25 -11 -41.5t-26 -26t-27 -13t-14 -3.5q-13 0 -31 1.5t-49 2.5q-6 -17 -11 -35t-7 -36q-2 -16 -9 -28t-15 -12zM227 35h57q20 0 32 9.5t12 22.5q0 18 -7 29.5t-28 11.5q-14 0 -32 -20.5t-34 -52.5z" />
  </g>

</svg>
