<?xml version="1.0" standalone="no"?>
<!DOCTYPE svg PUBLIC "-//W3C//DTD SVG 1.1//EN" "http://www.w3.org/Graphics/SVG/1.1/DTD/svg11.dtd" >
<svg xmlns="http://www.w3.org/2000/svg" xmlns:xlink="http://www.w3.org/1999/xlink" version="1.1" viewBox="-10 0 789 1000">
  <g transform="matrix(1 0 0 -1 0 800)">
   <path fill="currentColor"
d="M614 -19q-3 0 -3 4q0 14 2.5 28.5t2.5 27.5v8.5v7.5q-12 -13 -36 -29t-56.5 -27.5t-72.5 -11.5q-36 0 -58.5 14.5t-34.5 45.5q-5 11 -10 11t-19 -15q-17 -20 -57 -38t-87 -18q-32 0 -54.5 13.5t-34 40t-11.5 65.5v203q0 20 -10.5 32.5t-33.5 21.5q-2 1 -7.5 4.5
t-5.5 10.5q0 10 5.5 13t9.5 4q32 2 48 5t35 7q5 2 9.5 3t10.5 2q16 2 14 -14q-3 -23 -4 -38.5t-1 -35.5v-195q0 -24 11 -45.5t29.5 -35.5t39.5 -14q26 0 47 6t40 21q9 7 18.5 24.5t9.5 47.5v182q0 25 -18.5 35.5t-45.5 12.5q-9 0 -16 4.5t-7 12.5t7.5 11.5t15.5 3.5
q33 0 54.5 2.5t36 5.5t23.5 6q5 2 9.5 3t7.5 1q14 0 14 -12q0 -5 -2 -11.5t-4 -13.5q-1 -4 -2 -11.5t-2 -16.5t-1 -19v-200q0 -24 11 -45.5t29.5 -35.5t39.5 -14q26 0 50 6t43 21q9 7 18 24t9 48v185q0 18 -12 27t-27 13t-25 5q-9 1 -16 4.5t-7 12.5q0 8 7.5 11.5t15.5 3.5
q33 0 54.5 2.5t36 5.5t23.5 6q5 2 9.5 3t7.5 1q14 0 14 -12q0 -5 -2 -11.5t-4 -13.5q-1 -4 -2 -13.5l-2 -19t-1 -14.5v-216q0 -31 3 -50.5t15 -19.5q8 0 23.5 1t22.5 2q4 1 9.5 -1.5t5.5 -11.5q0 -8 -5 -11t-9 -3q-39 -5 -67 -15t-50 -19q-3 -1 -11 -3.5t-13 -2.5z" />
  </g>

</svg>
