<?xml version="1.0" standalone="no"?>
<!DOCTYPE svg PUBLIC "-//W3C//DTD SVG 1.1//EN" "http://www.w3.org/Graphics/SVG/1.1/DTD/svg11.dtd" >
<svg xmlns="http://www.w3.org/2000/svg" xmlns:xlink="http://www.w3.org/1999/xlink" version="1.1" viewBox="-10 0 330 1000">
  <g transform="matrix(1 0 0 -1 0 800)">
   <path fill="currentColor"
d="M40 273q-2 0 -8.5 3t-6.5 7q0 5 5 9t10 5q10 2 19 6t9 16v112q0 17 -6.5 28.5t-23.5 15.5q-3 1 -4.5 4.5t-1.5 7.5q0 3 1.5 6t4.5 4q20 5 35 12.5t28 14.5q3 2 5.5 3.5t5.5 2.5q2 0 4.5 -0.5t2.5 -5.5v-14v-15v-57q0 -15 13 -15q6 0 12.5 0.5t12.5 2.5q12 3 21 14
q6 8 12.5 15.5t12.5 14.5q7 8 7 16t-5 10.5t-11 3.5q-5 2 -10 6.5t-5 8.5q0 5 7 7t9 2h28h24h24.5h24.5q3 0 8.5 -2t5.5 -7q0 -11 -15 -15q-10 -3 -22.5 -11.5t-24.5 -20.5q-7 -9 -14 -17.5t-15 -17.5q-5 -6 -3.5 -11.5t7.5 -7.5q14 -5 28.5 -19t14.5 -34q0 -28 -17.5 -48
t-44.5 -30t-56 -10h-18.5h-18.5h-19h-26h-26zM145 302q14 0 26.5 6t21 17t8.5 25q0 20 -15 33t-35 13q-10 0 -21 -3.5t-11 -10.5v-62q0 -9 7.5 -13.5t18.5 -4.5z" />
  </g>

</svg>
