<?xml version="1.0" standalone="no"?>
<!DOCTYPE svg PUBLIC "-//W3C//DTD SVG 1.1//EN" "http://www.w3.org/Graphics/SVG/1.1/DTD/svg11.dtd" >
<svg xmlns="http://www.w3.org/2000/svg" xmlns:xlink="http://www.w3.org/1999/xlink" version="1.1" viewBox="-10 0 320 1000">
  <g transform="matrix(1 0 0 -1 0 800)">
   <path fill="currentColor"
d="M221 178q-53 0 -71.5 34.5t-19.5 85.5v4.5v4.5q0 5 -6 0.5l-10 -7.5q-16 -13 -31 -20t-35 -7q-13 0 -25.5 6.5t-12.5 18.5q0 6 4 15t10 16t13 7q6 0 12 -2t13 -4q5 -1 11 -3t10 -2q16 0 32.5 9t16.5 39v59q0 16 -6 27.5t-23 15.5q-3 1 -5 4t-2 7q0 9 7 11q25 5 42 15.5
t30 17.5q5 0 8.5 -1t4.5 -3q0 -3 -2 -14.5t-3 -26.5v-170q0 -61 8 -83.5t24 -22.5q9 0 15.5 4.5t14.5 15.5q7 9 14.5 12.5t15.5 3.5q7 0 16 -9.5t9 -21.5q0 -16 -23.5 -26t-55.5 -10z" />
  </g>

</svg>
