<?xml version="1.0" standalone="no"?>
<!DOCTYPE svg PUBLIC "-//W3C//DTD SVG 1.1//EN" "http://www.w3.org/Graphics/SVG/1.1/DTD/svg11.dtd" >
<svg xmlns="http://www.w3.org/2000/svg" xmlns:xlink="http://www.w3.org/1999/xlink" version="1.1" viewBox="-10 0 477 1000">
  <g transform="matrix(1 0 0 -1 0 800)">
   <path fill="currentColor"
d="M96 -5q-13 0 -21 2.5t-8 8.5q0 12 33 18q38 7 58 23t20 50v138q0 32 16 54.5t36 37.5t31 23q17 13 35.5 30.5t31.5 45t13 69.5q0 39 -16 70t-44.5 49.5t-66.5 18.5q-39 0 -64.5 -13t-41 -33t-23.5 -41.5t-13 -38.5q-2 -8 -10 -17.5t-17 -9.5q-3 0 -5 5t-3.5 12.5
t-1.5 13.5q0 9 1.5 25.5t4 34.5t5.5 30.5t7 13.5q13 3 43.5 15t67 23t68.5 11q57 0 103 -20t72.5 -55t26.5 -81q0 -43 -14 -74t-35 -53t-43.5 -38t-40.5 -28q-31 -22 -37 -37.5t-6 -42.5v-138q0 -34 21 -50t58 -23q17 -3 25 -7t8 -11q0 -6 -8 -8.5t-21 -2.5q-27 0 -44.5 1.5
t-33.5 2.5t-39 1q-25 0 -43.5 -1t-38 -2.5t-46.5 -1.5z" />
  </g>

</svg>
