<?xml version="1.0" standalone="no"?>
<!DOCTYPE svg PUBLIC "-//W3C//DTD SVG 1.1//EN" "http://www.w3.org/Graphics/SVG/1.1/DTD/svg11.dtd" >
<svg xmlns="http://www.w3.org/2000/svg" xmlns:xlink="http://www.w3.org/1999/xlink" version="1.1" viewBox="-10 0 790 1000">
  <g transform="matrix(1 0 0 -1 0 800)">
   <path fill="currentColor"
d="M369 -15q-68 0 -127 27t-103 74t-68.5 108t-24.5 129q0 73 29 135t80 108t116.5 71.5t138.5 25.5q49 0 77.5 -6t46.5 -12t32 -6q4 0 6.5 1.5t4.5 8.5q12 41 42.5 58.5t61.5 17.5q51 0 70 -15t19 -32q0 -16 -14.5 -29.5t-27.5 -13.5q-9 0 -17.5 7.5t-17.5 16.5t-19 16.5
t-23 7.5q-16 0 -26 -8.5t-14 -26t-4 -45.5q1 -20 3.5 -48.5t2.5 -67.5q0 -8 -7.5 -11.5t-15.5 -1.5t-9 8q-6 38 -18.5 64.5t-21.5 34.5q-5 5 -22 17.5t-48 23t-77 10.5q-55 0 -100.5 -23.5t-78.5 -64t-51 -91.5t-18 -106q0 -61 17.5 -120t51 -106.5t80.5 -76t105 -28.5
q56 0 92.5 20.5t59 50t35.5 54.5q4 7 12 10t14.5 1t6.5 -10q0 -10 -6 -34t-13.5 -48t-14.5 -34q-4 -6 -17.5 -9.5t-31.5 -11.5q-17 -8 -45 -12.5t-60.5 -6t-62.5 -1.5z" />
  </g>

</svg>
