<?xml version="1.0" standalone="no"?>
<!DOCTYPE svg PUBLIC "-//W3C//DTD SVG 1.1//EN" "http://www.w3.org/Graphics/SVG/1.1/DTD/svg11.dtd" >
<svg xmlns="http://www.w3.org/2000/svg" xmlns:xlink="http://www.w3.org/1999/xlink" version="1.1" viewBox="-10 0 560 1000">
  <g transform="matrix(1 0 0 -1 0 800)">
   <path fill="currentColor"
d="M152 -3q-5 0 -12.5 3t-7.5 9q0 8 8 11.5t16 4.5q26 5 46 16t20 38v303q0 24 -5.5 28t-30.5 4h-62q-16 0 -33 -16t-25 -29q-2 -4 -5.5 -9t-8.5 -8.5t-10 -3.5q-4 0 -5.5 2t-1.5 6q0 6 2.5 14t6 27.5t5.5 56.5q1 11 5.5 13t6.5 2q4 0 8.5 -3t13.5 -7q10 -4 25 -7.5t39 -3.5
h223q31 0 52 4t35 9q8 3 14.5 5t10.5 2t6.5 -3.5t2.5 -7.5q0 -25 1 -42t2 -28.5t1 -22.5q0 -3 -2.5 -11.5t-8.5 -7.5t-10 7.5t-7 15.5q-7 21 -22 33.5t-43 12.5l-78 -1q-13 0 -20 -10.5t-7 -20.5v-303q0 -27 20 -38t46 -16q8 -1 16 -4.5t8 -11.5q0 -6 -7.5 -9t-12.5 -3
q-19 0 -35.5 1.5t-33.5 3t-38 1.5t-38 -1.5t-33.5 -3t-36.5 -1.5zM211 -274q-16 0 -23 9t-7 32q0 9 3.5 14t9.5 5q8 0 19 -5.5t34 -5.5q20 0 29.5 13t9.5 32q0 29 -17.5 43t-41.5 14q-10 0 -15.5 -3t-10.5 -3t-11.5 4t-6.5 11q0 4 5 11l88 111h31l-38 -50q-5 -7 -5 -10
q0 -6 11 -11q24 -10 42.5 -30.5t18.5 -45.5q0 -30 -14 -55t-35 -42.5t-41.5 -27.5t-34.5 -10z" />
  </g>

</svg>
