<?xml version="1.0" standalone="no"?>
<!DOCTYPE svg PUBLIC "-//W3C//DTD SVG 1.1//EN" "http://www.w3.org/Graphics/SVG/1.1/DTD/svg11.dtd" >
<svg xmlns="http://www.w3.org/2000/svg" xmlns:xlink="http://www.w3.org/1999/xlink" version="1.1" viewBox="-10 0 587 1000">
  <g transform="matrix(1 0 0 -1 0 800)">
   <path fill="currentColor"
d="M530 -5q-27 0 -42.5 2.5t-28.5 4.5t-34 2q-16 0 -40.5 -1t-49 -3t-44 -3t-27.5 -1q-105 0 -162 50t-57 132q0 57 31 101.5t83 70t114 25.5q26 0 45.5 -4t32.5 -12q2 -1 5.5 -1.5t4.5 -0.5q5 0 6 13.5t1 37.5v168q0 9 -10.5 22t-18.5 13h-106q-49 0 -68 -16t-30 -48
q-3 -8 -10 -21.5t-17 -13.5q-4 0 -9 5.5t-5 15.5q0 17 2.5 33.5t5.5 35t3 39.5q0 3 2.5 8.5t7.5 5.5q3 0 13.5 -2.5t28 -5.5t40.5 -3l205 -1q35 0 64 5t53 5q13 0 21 -2.5t8 -8.5q0 -7 -8 -12t-25 -8q-37 -7 -52 -22t-15 -50v-452q0 -35 20.5 -51t57.5 -23q17 -3 25 -7
t8 -11q0 -6 -8 -8.5t-21 -2.5zM288 24q37 0 58.5 25t21.5 59v156q0 41 -31.5 59.5t-84.5 18.5q-25 0 -44.5 -7t-30.5 -18t-21 -24t-15.5 -34.5t-5.5 -60.5q0 -79 41 -126.5t112 -47.5z" />
  </g>

</svg>
