<?xml version="1.0" standalone="no"?>
<!DOCTYPE svg PUBLIC "-//W3C//DTD SVG 1.1//EN" "http://www.w3.org/Graphics/SVG/1.1/DTD/svg11.dtd" >
<svg xmlns="http://www.w3.org/2000/svg" xmlns:xlink="http://www.w3.org/1999/xlink" version="1.1" viewBox="-10 0 688 1000">
  <g transform="matrix(1 0 0 -1 0 800)">
   <path fill="currentColor"
d="M416 -205q-12 0 -18.5 9.5t-7.5 21.5q-3 47 -9 84t-11 63t-5 38q0 13 14 16q48 7 69.5 18t21.5 39v236q0 12 -2 15.5t-4 0.5q-6 -7 -29 -21t-59.5 -25t-81.5 -11q-94 0 -143 39t-49 141v93q0 34 -7.5 48.5t-45.5 21.5q-33 6 -33 20q0 6 8 8.5t21 2.5q27 0 42 -1t28 -1.5
t33 -0.5q21 0 34.5 0.5t29 1.5t42.5 1q13 0 21 -2.5t8 -8.5q0 -7 -8 -12t-25 -8q-37 -7 -52.5 -24t-15.5 -46v-97q0 -64 33 -97.5t103 -33.5q30 0 59.5 7.5t52.5 17.5t31 17q5 4 7 10t2 14v162q0 27 -14.5 45t-52.5 25q-33 6 -33 20q0 6 8 8.5t21 2.5q27 0 44.5 -1
t33.5 -1.5t39 -0.5q18 0 28 0.5t23 1.5t40 1q13 0 21 -2.5t8 -8.5q0 -7 -8 -12t-25 -8q-37 -7 -45 -24t-8 -46v-452q0 -37 9 -53t46 -23q17 -3 25 -7t8 -11q0 -6 -8 -8.5t-21 -2.5q-27 0 -42 1.5t-27 2.5t-29 1q-43 0 -59 -20t-16 -82v-28t1 -32q0 -15 -3.5 -29t-17.5 -14z
" />
  </g>

</svg>
