<?xml version="1.0" standalone="no"?>
<!DOCTYPE svg PUBLIC "-//W3C//DTD SVG 1.1//EN" "http://www.w3.org/Graphics/SVG/1.1/DTD/svg11.dtd" >
<svg xmlns="http://www.w3.org/2000/svg" xmlns:xlink="http://www.w3.org/1999/xlink" version="1.1" viewBox="-10 0 510 1000">
  <g transform="matrix(1 0 0 -1 0 800)">
   <path fill="currentColor"
d="M378 -9q-49 0 -79 36t-30 87q0 26 7 53.5t21 53.5v0.5v0.5q0 3 -4 4t-8 -3l-113 -106q-10 -16 -17 -27t-12 -24q-5 -15 -13 -32t-16.5 -29.5t-16.5 -12.5q-7 0 -15.5 5.5t-16 14t-12.5 18t-5 16.5q0 8 9.5 19.5t22.5 22.5q8 9 20.5 22.5t24 28t14.5 23.5q7 19 10.5 38.5
t3.5 38.5q0 37 -14.5 63.5t-45.5 26.5q-25 0 -35.5 -6.5t-15.5 -6.5q-6 0 -8.5 2.5t-1.5 9.5q1 16 15 36t34 35t38 15q39 0 53.5 -27.5t14.5 -68.5q0 -27 -4.5 -57.5t-11.5 -60.5q-2 -7 5 -7q2 0 6 1.5t13 8.5l120 112q15 28 33.5 52t35 38.5t25.5 14.5q11 0 20.5 -5.5
t16 -14.5t6.5 -20q0 -12 -10.5 -22.5t-27.5 -24.5l-71 -62q-19 -16 -23.5 -41.5t-4.5 -36.5q-4 -58 22.5 -93.5t62.5 -35.5q17 -1 36 9t35 31q7 9 10 9q5 0 7 -3t2 -6q0 -37 -18.5 -62t-44.5 -38t-49 -13z" />
  </g>

</svg>
