<?xml version="1.0" standalone="no"?>
<!DOCTYPE svg PUBLIC "-//W3C//DTD SVG 1.1//EN" "http://www.w3.org/Graphics/SVG/1.1/DTD/svg11.dtd" >
<svg xmlns="http://www.w3.org/2000/svg" xmlns:xlink="http://www.w3.org/1999/xlink" version="1.1" viewBox="-10 0 505 1000">
  <g transform="matrix(1 0 0 -1 0 800)">
   <path fill="currentColor"
d="M234 -14q-56 0 -101 26t-71.5 71.5t-26.5 103.5q0 42 16.5 82t46.5 73t70 52.5t86 19.5q58 0 104.5 -28t74 -73.5t27.5 -99.5q0 -58 -25.5 -110t-75.5 -84.5t-125 -32.5zM255 16q34 0 61 13t42 42q12 23 16 56t4 62q0 48 -17.5 92.5t-49 73t-74.5 28.5q-27 0 -48.5 -8.5
t-39.5 -31.5q-20 -25 -26 -61t-6 -72q0 -49 18 -93.5t49 -72.5t71 -28zM125 458q-7 0 -11.5 4t-4.5 11q0 4 11 18.5t26.5 32t31.5 30.5t25 13q17 0 27 -1.5t24 -3.5q17 -1 30 -2.5t26 -1.5q11 0 21.5 6t17.5 13q11 11 18 19.5t10 8.5q8 0 13.5 -4.5t5.5 -12.5q0 -3 -5.5 -9
t-16.5 -17q-12 -11 -24.5 -27.5t-22.5 -28.5q-6 -7 -16 -10.5t-13 -3.5q-6 0 -19 1t-29 3t-32.5 3t-30.5 1q-10 0 -20.5 -7t-18.5 -15q-7 -6 -13.5 -13t-9.5 -7zM153 652q-5 0 -9.5 4t-4.5 8q0 5 2 15t7.5 19t14.5 9h203q5 0 9 -3.5t4 -8.5q0 -16 -7.5 -29.5t-23.5 -13.5
h-195z" />
  </g>

</svg>
