<?xml version="1.0" standalone="no"?>
<!DOCTYPE svg PUBLIC "-//W3C//DTD SVG 1.1//EN" "http://www.w3.org/Graphics/SVG/1.1/DTD/svg11.dtd" >
<svg xmlns="http://www.w3.org/2000/svg" xmlns:xlink="http://www.w3.org/1999/xlink" version="1.1" viewBox="-10 0 1038 1000">
  <g transform="matrix(1 0 0 -1 0 800)">
   <path fill="currentColor"
d="M669 -14q-65 0 -120.5 26t-98 71t-67.5 103t-28 122l-117 -4q-10 0 -10 -12v-194q0 -35 21 -51t58 -23q17 -3 25 -7t8 -11q0 -6 -8.5 -8.5t-20.5 -2.5q-27 0 -44.5 1.5t-33.5 2.5t-39 1q-25 0 -43.5 -1t-38 -2.5t-46.5 -1.5q-13 0 -21 2.5t-8 8.5q0 12 33 18q38 7 58 23
t20 51v452q0 35 -14.5 50t-52.5 22q-33 6 -33 20q0 6 8 8.5t21 2.5q27 0 44.5 -1t33.5 -1.5t39 -0.5q22 0 36 0.5t30 1.5t43 1q13 0 21 -2.5t8 -8.5q0 -7 -8 -12t-25 -8q-37 -7 -54 -22t-17 -50v-196q0 -10 8 -10l119 -3q5 64 30 122t67 103.5t97 71.5t120 26
q66 0 123.5 -26t100 -72t66.5 -105.5t24 -125.5q0 -69 -23 -131.5t-65.5 -111.5t-99.5 -77.5t-126 -28.5zM682 25q51 0 89 24.5t63.5 65t38.5 90t13 100.5q0 57 -13.5 113.5t-41.5 103.5t-70 75t-99 28q-51 0 -90 -23.5t-66 -63.5t-41 -88.5t-14 -99.5q0 -58 14.5 -116
t43 -105t72 -75.5t101.5 -28.5z" />
  </g>

</svg>
