<?xml version="1.0" standalone="no"?>
<!DOCTYPE svg PUBLIC "-//W3C//DTD SVG 1.1//EN" "http://www.w3.org/Graphics/SVG/1.1/DTD/svg11.dtd" >
<svg xmlns="http://www.w3.org/2000/svg" xmlns:xlink="http://www.w3.org/1999/xlink" version="1.1" viewBox="-38 0 297 1000">
  <g transform="matrix(1 0 0 -1 0 800)">
   <path fill="currentColor"
d="M44 -3q-9 0 -14.5 2.5t-5.5 8.5q0 8 7.5 11t15.5 5q21 5 32 12.5t11 25.5v217q0 27 -9.5 48t-35.5 25q-5 1 -7.5 4t-2.5 9q0 11 9 12q40 9 66 24.5t39 25.5q9 7 14 7q6 0 6 -5q0 -8 -2.5 -31.5t-4.5 -52t-2 -51.5v-232q0 -17 11.5 -25t31.5 -13q8 -2 15.5 -5t7.5 -11
q0 -11 -20 -11q-19 0 -30.5 1.5t-22 2.5t-28.5 1q-17 0 -28 -1t-22 -2.5t-31 -1.5zM199 492q-19 0 -34.5 15.5t-15.5 34.5t15.5 34.5t34.5 15.5t34.5 -15.5t15.5 -34.5t-15.5 -34.5t-34.5 -15.5zM22 492q-19 0 -34.5 15.5t-15.5 34.5t15.5 34.5t34.5 15.5t34.5 -15.5
t15.5 -34.5t-15.5 -34.5t-34.5 -15.5zM101 582q-5 0 -5 8q0 6 6 26.5t14 46t14.5 45.5t8.5 23q5 8 10.5 13t12.5 5q5 0 15.5 -4.5t19 -11t8.5 -14.5q0 -4 -7.5 -16.5t-19 -29.5t-23.5 -33.5t-21 -28.5t-11 -14q-4 -4 -11 -9.5t-11 -5.5z" />
  </g>

</svg>
