<?xml version="1.0" standalone="no"?>
<!DOCTYPE svg PUBLIC "-//W3C//DTD SVG 1.1//EN" "http://www.w3.org/Graphics/SVG/1.1/DTD/svg11.dtd" >
<svg xmlns="http://www.w3.org/2000/svg" xmlns:xlink="http://www.w3.org/1999/xlink" version="1.1" viewBox="-10 0 349 1000">
  <g transform="matrix(1 0 0 -1 0 800)">
   <path fill="currentColor"
d="M49 -3q-10 0 -15 2.5t-5 8.5q0 8 6 10.5t17 5.5q19 5 28.5 14.5t9.5 23.5v215q0 27 -8 47t-33 25q-4 1 -7 5t-3 8q0 10 9 12q26 8 54.5 23.5t44.5 25.5q6 4 9.5 5.5t5.5 1.5q5 0 5 -7q0 -3 -0.5 -15t-1 -28t-1.5 -32q0 -2 2 -2q16 20 35.5 35t40 24t39.5 9q21 0 34.5 -9
t13.5 -23q0 -10 -5.5 -22t-14.5 -21t-19 -9q-6 0 -13 2.5t-15 6.5l-16 6t-16 3q-24 0 -46.5 -17t-22.5 -67v-202q0 -13 14 -21.5t39 -16.5q11 -3 17 -6t6 -10q0 -11 -20 -11q-30 0 -45.5 2.5t-41.5 2.5q-17 0 -27.5 -1t-22 -2.5t-31.5 -1.5zM132 -192q-21 0 -35.5 14.5
t-14.5 35.5q0 22 14.5 36.5t35.5 14.5q22 0 36.5 -14.5t14.5 -36.5q0 -21 -14.5 -35.5t-36.5 -14.5z" />
  </g>

</svg>
