<?xml version="1.0" standalone="no"?>
<!DOCTYPE svg PUBLIC "-//W3C//DTD SVG 1.1//EN" "http://www.w3.org/Graphics/SVG/1.1/DTD/svg11.dtd" >
<svg xmlns="http://www.w3.org/2000/svg" xmlns:xlink="http://www.w3.org/1999/xlink" version="1.1" viewBox="-10 0 425 1000">
  <g transform="matrix(1 0 0 -1 0 800)">
   <path fill="currentColor"
d="M53 277q-16 0 -16 7q0 10 19 13q24 4 37.5 13.5t13.5 31.5v264q0 22 -12.5 31.5t-36.5 13.5q-16 3 -16 11q0 10 15 10q11 0 32 -1t45 -1q29 0 54.5 0.5t49 0.5t46 0.5t45.5 0.5q8 0 10 -3.5t3 -8.5q2 -15 4 -28t2 -27q0 -6 -8 -6q-6 0 -9 2t-4 5q-6 16 -12 25t-15.5 13
t-28.5 4h-77q-10 0 -15.5 -7t-5.5 -18l-2 -117q0 -5 4 -9t12 -4h52q14 0 25.5 7t14.5 18q2 5 6 7.5t8 2.5q9 0 9 -10t-1 -19.5t-1 -17.5q0 -9 1 -19t1 -24q0 -4 -1 -7t-5 -3q-12 0 -18 14q-5 14 -13.5 19.5t-16.5 6.5q-7 1 -17.5 2t-23.5 1q-15 0 -26 -3t-10 -14
q0 -28 0.5 -51t1.5 -49q1 -23 10 -36.5t31 -13.5h66q33 0 44.5 13t24.5 36q4 6 9 6q4 0 8 -1.5t4 -4.5q0 -16 -3.5 -34t-7.5 -32q-1 -4 -2.5 -7t-6.5 -3q-31 0 -59 0.5t-54 1.5t-51 1.5t-49 0.5q-17 0 -29.5 -1t-24.5 -2t-30 -1z" />
  </g>

</svg>
