<?xml version="1.0" standalone="no"?>
<!DOCTYPE svg PUBLIC "-//W3C//DTD SVG 1.1//EN" "http://www.w3.org/Graphics/SVG/1.1/DTD/svg11.dtd" >
<svg xmlns="http://www.w3.org/2000/svg" xmlns:xlink="http://www.w3.org/1999/xlink" version="1.1" viewBox="-10 0 505 1000">
  <g transform="matrix(1 0 0 -1 0 800)">
   <path fill="currentColor"
d="M234 -14q-56 0 -101 26t-71.5 71.5t-26.5 103.5q0 42 16.5 82t46.5 73t70 52.5t86 19.5q58 0 104.5 -28t74 -73.5t27.5 -99.5q0 -58 -25.5 -110t-75.5 -84.5t-125 -32.5zM255 16q34 0 61 13t42 42q12 23 16 56t4 62q0 48 -17.5 92.5t-49 73t-74.5 28.5q-27 0 -48.5 -8.5
t-39.5 -31.5q-20 -25 -26 -61t-6 -72q0 -49 18 -93.5t49 -72.5t71 -28zM246 608q-6 0 -11.5 -6t-10.5 -12l-10.5 -13t-25.5 -32.5t-28.5 -39.5t-20.5 -33q-2 -5 -3.5 -8t-1.5 -4q0 -7 1 -10t8 -3q6 0 12.5 3.5t13.5 9.5q17 16 34.5 32.5t34.5 33.5q4 4 7.5 4t7.5 -4
q17 -17 34.5 -33t34.5 -33q6 -6 13 -9.5t13 -3.5q10 0 10 9q0 3 -2 7t-4 9q-6 13 -20 32.5t-28.5 39t-25 33l-10.5 13.5q-4 6 -10 12t-12 6zM353 551q-10 0 -20.5 14t-10.5 24q0 9 9 20.5t17 18.5q11 9 16.5 16.5t5.5 15.5q0 10 -9 15t-21 5q-14 0 -23 -8.5t-22 -30.5
q-3 -4 -5.5 -8t-7.5 -4q-4 0 -9.5 5.5t-9.5 13.5t-4 14q0 7 3.5 14t9.5 10q15 8 34 15.5t47 7.5q29 0 53.5 -14.5t24.5 -41.5q0 -13 -13 -28t-39 -26q-9 -4 -12.5 -7.5t-3.5 -8.5q0 -3 2 -6.5t3 -8.5q2 -7 -2.5 -12t-12.5 -5z" />
  </g>

</svg>
