<?xml version="1.0" standalone="no"?>
<!DOCTYPE svg PUBLIC "-//W3C//DTD SVG 1.1//EN" "http://www.w3.org/Graphics/SVG/1.1/DTD/svg11.dtd" >
<svg xmlns="http://www.w3.org/2000/svg" xmlns:xlink="http://www.w3.org/1999/xlink" version="1.1" viewBox="-10 0 820 1000">
  <g transform="matrix(1 0 0 -1 0 800)">
   <path fill="currentColor"
d="M66 -5q-13 0 -21 3.5t-8 9.5q0 10 32 16q38 7 49.5 23t11.5 52v452q0 35 -7.5 49.5t-45.5 21.5q-33 6 -33 18q0 6 7 9.5t22 3.5q27 0 42 -1t28 -1.5t33 -0.5q21 0 34.5 0.5t29 1.5t42.5 1q29 0 29 -13q0 -7 -8 -11t-25 -7q-37 -7 -52.5 -24.5t-15.5 -46.5v-197
q0 -6 5 -7.5t9 -1.5h371q7 0 7 12v195q0 27 -14 45t-52 25q-17 3 -25 7t-8 11q0 13 29 13q27 0 44.5 -1t33.5 -1.5t38 -0.5q18 0 28 0.5t23 1.5t40 1q14 0 21.5 -3.5t7.5 -9.5q0 -12 -33 -18q-37 -7 -45 -24t-8 -46v-452q0 -37 9.5 -53t46.5 -23q32 -6 32 -16q0 -6 -8 -9.5
t-21 -3.5q-27 0 -42 1.5t-28 2.5t-34 1t-34.5 -1t-29.5 -2.5t-43 -1.5q-13 0 -21 3.5t-8 9.5q0 7 7.5 10t24.5 6q32 6 50.5 23.5t18.5 49.5v195v10t-5 5h-382q-5 0 -5 -11v-190q0 -31 23 -53.5t57 -28.5q17 -3 24.5 -6t7.5 -10q0 -6 -8 -9.5t-21 -3.5q-27 0 -44.5 1.5
t-33.5 2.5t-39 1q-21 0 -35.5 -1t-31 -2.5t-43.5 -1.5zM105 -275q-22 0 -33.5 8.5t-11.5 23.5q0 17 5 25.5t11 8.5t16 -6.5t47 -6.5q22 0 32 11.5t10 27.5q0 29 -13.5 41.5t-33.5 12.5q-9 0 -14 -1.5t-12 -1.5q-13 0 -19.5 6.5t-6.5 10.5q0 5 2 8.5t4 6.5l80 108h31l-37 -56
q-11 -15 6 -22q21 -8 43.5 -31t22.5 -58q0 -34 -23 -60t-53 -41t-53 -15z" />
  </g>

</svg>
