<?xml version="1.0" standalone="no"?>
<!DOCTYPE svg PUBLIC "-//W3C//DTD SVG 1.1//EN" "http://www.w3.org/Graphics/SVG/1.1/DTD/svg11.dtd" >
<svg xmlns="http://www.w3.org/2000/svg" xmlns:xlink="http://www.w3.org/1999/xlink" version="1.1" viewBox="-37 0 999 1000">
  <g transform="matrix(1 0 0 -1 0 800)">
   <path fill="currentColor"
d="M466 -5q-13 0 -21 2.5t-8 8.5q0 12 33 18q38 7 58 27.5t20 56.5v179q0 35 -6 77.5t-19 84t-34 75.5t-49.5 55t-66.5 21q-40 0 -71.5 -14.5t-45.5 -33.5q-4 -4 -7 -4q-6 0 -6 5q0 4 3 8.5l9 13.5q10 14 30.5 31.5t48.5 30.5t59 13q50 0 85 -23t57.5 -55t35 -61t17.5 -41
q4 -10 5 -10q2 0 3.5 3.5t2.5 6.5q5 12 20.5 41t42 61t65 55t88.5 23q46 0 77 -19t50 -41q3 -3 6 -8.5t3 -8.5q0 -6 -7 -6q-2 0 -8 4q-19 14 -48 21.5t-60 7.5q-50 0 -87.5 -25.5t-62.5 -69.5t-37.5 -100t-12.5 -117v-180q0 -34 21 -55.5t58 -28.5q17 -3 25 -7t8 -11
q0 -6 -8 -8.5t-21 -2.5q-27 0 -44.5 1.5t-33.5 2.5t-39 1q-25 0 -43.5 -1t-38 -2.5t-46.5 -1.5zM218 464q-6 0 -12.5 7.5t-11.5 14.5q-8 14 -20 36t-23.5 45.5t-19.5 41t-8 21.5q0 12 12 26.5t26 14.5q6 0 14.5 -4.5t10.5 -13.5q3 -13 10 -39.5t14 -55.5t12 -51.5t5 -29.5
t-1 -10t-8 -3zM71 471q-19 0 -37 9t-31.5 24.5t-21.5 34.5t-8 39q0 35 19 61t56 26q18 0 32 -10.5t14 -27.5t-10.5 -27t-25.5 -12q-16 -1 -25 -10.5t-9 -24.5q0 -22 16 -37.5t37 -21.5q14 -3 14 -13t-20 -10z" />
  </g>

</svg>
