<?xml version="1.0" standalone="no"?>
<!DOCTYPE svg PUBLIC "-//W3C//DTD SVG 1.1//EN" "http://www.w3.org/Graphics/SVG/1.1/DTD/svg11.dtd" >
<svg xmlns="http://www.w3.org/2000/svg" xmlns:xlink="http://www.w3.org/1999/xlink" version="1.1" viewBox="-10 0 797 1000">
  <g transform="matrix(1 0 0 -1 0 800)">
   <path fill="currentColor"
d="M382 -14q-66 0 -127 25t-108 70.5t-74.5 106.5t-27.5 132q0 68 22 129.5t64.5 110t105.5 76.5t145 28q71 0 116.5 -14t79.5 -30q26 -12 49.5 -21.5t50.5 -9.5q19 0 31 8t12 18q0 9 -4.5 14t-14.5 9q-8 3 -15.5 8t-7.5 17q0 13 10.5 26t24.5 22.5t25 9.5q10 0 18.5 -9.5
t14 -23.5t5.5 -27q0 -30 -15 -56t-40 -42t-55 -16q-10 0 -12.5 -4.5t-0.5 -8.5q30 -45 47 -89.5t17 -109.5q0 -67 -21.5 -130t-64 -112t-105.5 -78t-145 -29zM395 25q113 0 169.5 76t56.5 204q0 71 -16 130t-47 101.5t-77 65.5t-106 23q-55 0 -98.5 -23t-73.5 -62t-45.5 -88
t-15.5 -102q0 -64 18.5 -122.5t52.5 -104t80.5 -72t101.5 -26.5zM388 701q-10 0 -19 12.5t-9 22.5q0 9 3.5 16t19.5 15q11 5 18 11t7 22q0 10 -8 16t-17 6q-14 0 -26 -11t-22 -31q-2 -4 -6 -8t-9 -4q-6 0 -14.5 13.5t-8.5 20.5t4.5 14.5t8.5 9.5q15 8 34 15.5t47 7.5
q32 0 55 -15.5t23 -44.5q0 -15 -11 -23.5t-25 -15.5q-12 -5 -22 -10t-10 -13q0 -3 1.5 -6.5t3.5 -8.5q4 -7 -3 -9t-15 -2z" />
  </g>

</svg>
