<?xml version="1.0" standalone="no"?>
<!DOCTYPE svg PUBLIC "-//W3C//DTD SVG 1.1//EN" "http://www.w3.org/Graphics/SVG/1.1/DTD/svg11.dtd" >
<svg xmlns="http://www.w3.org/2000/svg" xmlns:xlink="http://www.w3.org/1999/xlink" version="1.1" viewBox="-10 0 788 1000">
  <g transform="matrix(1 0 0 -1 0 800)">
   <path fill="currentColor"
d="M44 -3q-8 0 -14 2t-6 9t6.5 10t16.5 6q14 5 28.5 11.5t14.5 26.5v215q0 27 -6 47.5t-32 24.5q-4 1 -6.5 4t-2.5 9q0 10 8 12q27 7 43 14.5t28.5 17t30.5 20.5q2 1 4 2.5t5 1.5q6 0 6 -7t-2.5 -28.5t-2.5 -35.5q0 -10 2 -12h2q23 22 60.5 44.5t95.5 22.5q36 0 60 -15.5
t40 -53.5h3q32 29 73 49t90 20q33 0 55 -20t33.5 -52t11.5 -67v-213q0 -20 14 -26.5t29 -11.5q10 -3 16.5 -6t6.5 -10q0 -6 -4.5 -8.5t-15.5 -2.5q-20 0 -31 1.5t-20.5 2.5t-27.5 1q-17 0 -28 -1t-23 -2.5t-32 -1.5q-9 0 -14.5 2.5t-5.5 8.5q0 8 6.5 11t16.5 5q16 4 29.5 11
t13.5 27v210q0 24 -11 45.5t-29 35.5t-40 14q-25 0 -46.5 -6t-40.5 -21q-28 -22 -28 -72v-206q0 -20 15 -27t30 -11q10 -2 16.5 -5.5t6.5 -10.5q0 -6 -5 -8.5t-15 -2.5q-20 0 -31.5 1.5t-22 2.5t-28.5 1q-17 0 -28 -1t-23 -2.5t-32 -1.5q-8 0 -14 2.5t-6 8.5q0 8 7.5 10.5
t15.5 5.5q15 5 29.5 11.5t14.5 26.5v210q0 24 -11 45.5t-29 35.5t-40 14q-25 0 -46.5 -6t-40.5 -21q-27 -20 -27 -72v-206q0 -20 14 -26.5t29 -11.5q8 -3 15.5 -5.5t7.5 -10.5q0 -6 -5.5 -8.5t-14.5 -2.5q-20 0 -31.5 1.5t-21.5 2.5t-28 1q-17 0 -27.5 -1t-22 -2.5
t-31.5 -1.5zM389 -192q-21 0 -35.5 14.5t-14.5 35.5q0 22 14.5 36.5t35.5 14.5q22 0 36.5 -14.5t14.5 -36.5q0 -21 -14.5 -35.5t-36.5 -14.5z" />
  </g>

</svg>
