<?xml version="1.0" standalone="no"?>
<!DOCTYPE svg PUBLIC "-//W3C//DTD SVG 1.1//EN" "http://www.w3.org/Graphics/SVG/1.1/DTD/svg11.dtd" >
<svg xmlns="http://www.w3.org/2000/svg" xmlns:xlink="http://www.w3.org/1999/xlink" version="1.1" viewBox="-10 0 773 1000">
  <g transform="matrix(1 0 0 -1 0 800)">
   <path fill="currentColor"
d="M377 -14q-66 0 -126 23.5t-106 67t-73 104t-27 134.5q0 68 22 130.5t65 111.5t107 78t147 29q66 0 126 -23.5t106 -67t73 -104t27 -134.5q0 -67 -22 -130t-65 -112t-107 -78t-147 -29zM392 26q77 0 128 32.5t76.5 91t25.5 136.5q0 69 -16 130t-47.5 107.5t-78.5 72.5
t-110 26q-75 0 -126 -32t-77 -89.5t-26 -135.5q0 -70 15.5 -131t47 -108t78.5 -73.5t110 -26.5zM253 681q-15 0 -15 10q0 6 7 12l98 83q14 12 22 17t19 5t19 -5t22 -17l98 -83q6 -5 6 -12q0 -11 -14 -11q-5 0 -20.5 6.5t-35 16t-37.5 18.5t-28 15q-7 4 -10 4t-10 -4
q-10 -6 -28 -15t-37.5 -18t-35 -15.5t-20.5 -6.5zM256 807q-5 0 -10.5 5.5t-5.5 10.5q0 4 9 17t22.5 28.5t27.5 27t23 11.5q17 0 35.5 -0.5t32.5 -2.5q17 -1 34 -2.5t30 -1.5q11 0 21.5 6t17.5 13t12 13.5t8 6.5q8 0 13.5 -4.5t5.5 -12.5q0 -3 -4.5 -8t-9.5 -10
q-12 -12 -24.5 -28t-22.5 -28q-6 -7 -16 -10.5t-13 -3.5q-6 0 -22.5 1t-37.5 3t-40 3t-31 1q-7 0 -17 -3.5t-16 -8.5q-9 -7 -14.5 -15t-7.5 -8z" />
  </g>

</svg>
