<?xml version="1.0" standalone="no"?>
<!DOCTYPE svg PUBLIC "-//W3C//DTD SVG 1.1//EN" "http://www.w3.org/Graphics/SVG/1.1/DTD/svg11.dtd" >
<svg xmlns="http://www.w3.org/2000/svg" xmlns:xlink="http://www.w3.org/1999/xlink" version="1.1" viewBox="-45 0 307 1000">
  <g transform="matrix(1 0 0 -1 0 800)">
   <path fill="currentColor"
d="M44 -3q-9 0 -14.5 2.5t-5.5 8.5q0 8 7.5 11t15.5 5q21 5 32 12.5t11 25.5v217q0 27 -9.5 48t-35.5 25q-5 1 -7.5 4t-2.5 9q0 11 9 12q40 9 66 24.5t39 25.5q9 7 14 7q6 0 6 -5q0 -8 -2.5 -31.5t-4.5 -52t-2 -51.5v-232q0 -17 11.5 -25t31.5 -13q8 -2 15.5 -5t7.5 -11
q0 -11 -20 -11q-19 0 -30.5 1.5t-22 2.5t-28.5 1q-17 0 -28 -1t-22 -2.5t-31 -1.5zM124 516q-21 0 -35.5 14.5t-14.5 35.5q0 22 14.5 36.5t35.5 14.5q22 0 36.5 -14.5t14.5 -36.5q0 -21 -14.5 -35.5t-36.5 -14.5zM-19 -203q-7 0 -11.5 4t-4.5 11q0 4 11 18.5t26.5 32
t31.5 30.5t25 13q17 0 27 -1.5t24 -3.5q17 -1 30 -2.5t26 -1.5q11 0 21.5 6t17.5 13q11 11 18 19.5t10 8.5q8 0 13.5 -4.5t5.5 -12.5q0 -3 -5.5 -9t-16.5 -17q-12 -11 -24.5 -27.5t-22.5 -28.5q-6 -7 -16 -10.5t-13 -3.5q-6 0 -19 1t-29 3t-32.5 3t-30.5 1q-10 0 -20.5 -7
t-18.5 -15q-7 -6 -13.5 -13t-9.5 -7z" />
  </g>

</svg>
