<?xml version="1.0" standalone="no"?>
<!DOCTYPE svg PUBLIC "-//W3C//DTD SVG 1.1//EN" "http://www.w3.org/Graphics/SVG/1.1/DTD/svg11.dtd" >
<svg xmlns="http://www.w3.org/2000/svg" xmlns:xlink="http://www.w3.org/1999/xlink" version="1.1" viewBox="-47 0 1002 1000">
  <g transform="matrix(1 0 0 -1 0 800)">
   <path fill="currentColor"
d="M459 -5q-13 0 -21 2.5t-8 8.5q0 12 33 18q38 7 58 27.5t20 56.5v179q0 35 -6 77.5t-19 84t-34 75.5t-49.5 55t-66.5 21q-40 0 -71.5 -14.5t-45.5 -33.5q-4 -4 -7 -4q-6 0 -6 5q0 4 3 8.5l9 13.5q10 14 30.5 31.5t48.5 30.5t59 13q50 0 85 -23t57.5 -55t35 -61t17.5 -41
q4 -10 5 -10q2 0 3.5 3.5t2.5 6.5q5 12 20.5 41t42 61t65 55t88.5 23q46 0 77 -19t50 -41q3 -3 6 -8.5t3 -8.5q0 -6 -7 -6q-2 0 -8 4q-19 14 -48 21.5t-60 7.5q-50 0 -87.5 -25.5t-62.5 -69.5t-37.5 -100t-12.5 -117v-180q0 -34 21 -55.5t58 -28.5q17 -3 25 -7t8 -11
q0 -6 -8 -8.5t-21 -2.5q-27 0 -44.5 1.5t-33.5 2.5t-39 1q-25 0 -43.5 -1t-38 -2.5t-46.5 -1.5zM-21 619q-7 0 -11.5 4t-4.5 11q0 4 9.5 17t24 28t29 26t23.5 11q17 0 27 -1.5t24 -3.5q17 -1 30 -2.5t26 -1.5q11 0 22.5 7.5t18.5 14.5q9 10 13.5 14.5t7.5 4.5q8 0 13.5 -4.5
t5.5 -12.5q0 -3 -5 -8l-11 -11q-12 -12 -23 -25.5t-21 -25.5q-6 -7 -16 -10.5t-13 -3.5q-6 0 -19 1t-29 3t-32.5 3t-30.5 1q-10 0 -18.5 -4t-16.5 -12q-7 -6 -13.5 -13t-9.5 -7zM117 460q16 0 16 9q0 6 -12 10q-22 8 -35 21t-13 30q0 15 11 23t25 11t25 9.5t11 22.5
q0 12 -10 21t-32 9q-30 0 -54 -22t-24 -53q0 -27 15 -47.5t36 -32t41 -11.5z" />
  </g>

</svg>
