<?xml version="1.0" standalone="no"?>
<!DOCTYPE svg PUBLIC "-//W3C//DTD SVG 1.1//EN" "http://www.w3.org/Graphics/SVG/1.1/DTD/svg11.dtd" >
<svg xmlns="http://www.w3.org/2000/svg" xmlns:xlink="http://www.w3.org/1999/xlink" version="1.1" viewBox="-10 0 802 1000">
  <g transform="matrix(1 0 0 -1 0 800)">
   <path fill="currentColor"
d="M380 -14q-96 0 -157 43.5t-90.5 119.5t-29.5 173v225q0 36 -14.5 52.5t-31.5 20.5q-33 9 -33 22q0 6 8 8.5t21 2.5q23 0 45.5 -1.5t50.5 -1.5q23 0 43.5 1t36.5 1q13 0 21 -2.5t8 -8.5q0 -7 -8 -11t-25 -9q-12 -4 -27 -23t-15 -49v-255q0 -66 27.5 -125t77 -96t115.5 -37
q64 0 105.5 33.5t62.5 93t21 137.5q0 22 -0.5 57t-1.5 75.5t-2 78.5q0 26 -4.5 49t-13.5 39.5t-23 20.5q-10 3 -21.5 8t-11.5 12q0 6 8 8.5t21 2.5h21.5t18.5 -0.5t19 -0.5h95q17 0 25 13t8 17q0 7 -7 11t-15 8q-9 5 -16.5 10t-7.5 15t9 22t23 21.5t28 9.5q10 0 18.5 -11
t14 -26t5.5 -27q0 -29 -14.5 -49.5t-38.5 -33.5t-53 -21q-19 -5 -24 -18.5t-7 -43.5q-5 -86 -6.5 -155t-3.5 -138q-2 -77 -36 -138t-90.5 -95.5t-128.5 -34.5zM396 701q-10 0 -19 12.5t-9 22.5q0 9 3.5 16t19.5 15q11 5 18 11t7 22q0 10 -8 16t-17 6q-14 0 -26 -11t-22 -31
q-2 -4 -6 -8t-9 -4q-6 0 -14.5 13.5t-8.5 20.5t4.5 14.5t8.5 9.5q15 8 34 15.5t47 7.5q32 0 55 -15.5t23 -44.5q0 -15 -11 -23.5t-25 -15.5q-12 -5 -22 -10t-10 -13q0 -3 1.5 -6.5t3.5 -8.5q4 -7 -3 -9t-15 -2z" />
  </g>

</svg>
