<?xml version="1.0" standalone="no"?>
<!DOCTYPE svg PUBLIC "-//W3C//DTD SVG 1.1//EN" "http://www.w3.org/Graphics/SVG/1.1/DTD/svg11.dtd" >
<svg xmlns="http://www.w3.org/2000/svg" xmlns:xlink="http://www.w3.org/1999/xlink" version="1.1" viewBox="-10 0 518 1000">
  <g transform="matrix(1 0 0 -1 0 800)">
   <path fill="currentColor"
d="M296.523 -12.6953q-47.1533 0 -90.6797 15.416q-43.5264 15.415 -77.5312 43.9795q-34.0059 28.5645 -53.9551 68.0098q-19.9492 39.4463 -19.9492 86.5996q0 48.0605 20.8564 87.5059q20.8564 39.4463 56.6748 67.5566t81.1582 43.5264t93.4004 15.416
q23.5771 0 43.0732 -1.81445q19.4961 -1.81348 37.1787 -4.9873t34.9121 -8.61426q9.97461 -2.7207 13.6016 -5.89453t5.44043 -8.61426q4.53418 -13.6016 6.80176 -37.6318q2.2666 -24.0303 2.2666 -39.4463q0 -10.8818 -4.9873 -14.5088t-10.8818 0
q-5.89355 3.62695 -10.4277 13.6025q-11.7891 31.7373 -28.1113 48.9668t-40.3525 24.0303t-60.3018 6.80078q-45.3398 0 -81.1592 -23.5762q-35.8184 -23.5771 -56.6748 -62.5693t-20.8564 -84.333q0 -50.7803 21.7637 -96.1201q21.7627 -45.3398 60.7559 -73.4512
q38.9922 -28.1104 89.7725 -28.1104q22.6699 0 47.1533 8.61426q24.4844 8.61426 45.3408 25.3906q20.8564 16.7754 30.8311 40.3525q5.44043 12.6953 18.1357 16.3223t12.6953 -10.8818q0 -3.62695 -4.08105 -15.8691q-4.08008 -12.2412 -9.97461 -26.75t-10.4277 -25.3906
q-2.7207 -6.34766 -7.25488 -10.8818q-4.53418 -4.5332 -11.7881 -8.16113q-19.043 -9.06738 -54.8613 -16.7754t-67.5566 -7.70801z" />
  </g>

</svg>
