<?xml version="1.0" standalone="no"?>
<!DOCTYPE svg PUBLIC "-//W3C//DTD SVG 1.1//EN" "http://www.w3.org/Graphics/SVG/1.1/DTD/svg11.dtd" >
<svg xmlns="http://www.w3.org/2000/svg" xmlns:xlink="http://www.w3.org/1999/xlink" version="1.1" viewBox="-10 0 491 1000">
  <g transform="matrix(1 0 0 -1 0 800)">
   <path fill="currentColor"
d="M214 -14q-47 0 -88 28t-66 74t-25 99q0 46 20.5 87.5t59 73.5t91.5 48q2 1 3 2t1 2t-1 2.5t-3 2.5q-26 23 -53 45t-45 48.5t-18 60.5q0 20 11 38.5t30 34t43 25.5t49 13q33 4 68 7t68 7.5t60 12.5q3 1 5 2.5t3 1.5q3 0 4.5 -5t1.5 -8q0 -22 -12.5 -41.5t-36 -32
t-57.5 -12.5q-26 0 -50.5 4l-49 8t-52.5 4q-22 0 -34 -12t-12 -23q0 -13 15 -29.5t39 -35t51 -37.5t52 -38q40 -30 76.5 -63t60 -73.5t23.5 -93.5q0 -58 -26.5 -109.5t-78.5 -83.5t-127 -34zM239 16q48 0 76.5 25t41 65.5t12.5 87.5q0 38 -16.5 73.5t-39.5 60.5
q-21 24 -44 37t-39 13q-34 0 -59.5 -25t-39.5 -63.5t-14 -79.5q0 -49 17.5 -93.5t45.5 -72.5t59 -28z" />
  </g>

</svg>
