<?xml version="1.0" standalone="no"?>
<!DOCTYPE svg PUBLIC "-//W3C//DTD SVG 1.1//EN" "http://www.w3.org/Graphics/SVG/1.1/DTD/svg11.dtd" >
<svg xmlns="http://www.w3.org/2000/svg" xmlns:xlink="http://www.w3.org/1999/xlink" version="1.1" viewBox="-10 0 475 1000">
  <g transform="matrix(1 0 0 -1 0 800)">
   <path fill="currentColor"
d="M204 -16q-42 0 -77.5 12.5t-63.5 35.5q-4 4 -7.5 9t-5.5 11q-5 20 -6.5 52t-3.5 53q0 7 6 10.5t14 3.5q5 0 10 -2.5t6 -8.5q20 -77 59.5 -110t82.5 -33q35 0 62 15t42.5 42.5t15.5 64.5q0 41 -13.5 66.5t-38.5 44.5t-61 41q-39 25 -77 50.5t-63 59t-25 81.5q0 51 23 92
t69.5 65.5t116.5 24.5q36 0 62.5 -7.5t42.5 -14.5q8 -3 13.5 -10t7.5 -15q6 -21 13 -48t7 -51q0 -11 -15 -11q-9 0 -17.5 4t-10.5 10q-21 53 -49 81t-71 28q-30 0 -56 -11t-42.5 -36t-16.5 -67q0 -30 19.5 -54.5t51.5 -46.5t69 -45q35 -21 68.5 -46t55 -59.5t21.5 -84.5
q0 -59 -27 -103.5t-76 -68.5t-115 -24zM225 -205q-22 0 -38.5 16.5t-16.5 38.5q0 23 16.5 39t38.5 16q23 0 39 -16t16 -39q0 -22 -16 -38.5t-39 -16.5z" />
  </g>

</svg>
