<?xml version="1.0" standalone="no"?>
<!DOCTYPE svg PUBLIC "-//W3C//DTD SVG 1.1//EN" "http://www.w3.org/Graphics/SVG/1.1/DTD/svg11.dtd" >
<svg xmlns="http://www.w3.org/2000/svg" xmlns:xlink="http://www.w3.org/1999/xlink" version="1.1" viewBox="-10 0 400 1000">
  <g transform="matrix(1 0 0 -1 0 800)">
   <path fill="currentColor"
d="M213 -15q-55 0 -96 27t-64 76.5t-23 114.5q0 58 26.5 105.5t70.5 76.5t96 29q40 0 71 -16t48.5 -44.5t17.5 -65.5q0 -31 -30 -31h-211q-14 0 -19.5 -7.5t-5.5 -29.5q0 -48 21 -87.5t56 -63t77 -23.5q30 0 54.5 11.5t43.5 33.5q4 5 6 6.5t5 1.5q8 0 8 -10q0 -19 -18 -42
q-15 -19 -36 -33t-46 -21.5t-52 -7.5zM121 288h91q24 0 41 1t33 4q5 1 6.5 6.5t1.5 15.5q0 29 -25.5 49.5t-60.5 20.5q-23 0 -46 -13.5t-38 -33.5t-15 -40q0 -10 12 -10zM114 -259q-6 0 -7.5 8.5t4.5 21.5q9 20 25.5 51t33 60t23.5 42q4 7 9.5 12.5t11.5 5.5t11 -5.5
t9 -12.5q8 -13 23.5 -42.5t32.5 -60.5t26 -50q7 -13 5 -21.5t-8 -8.5t-15.5 7.5t-14.5 14.5q-9 12 -28 37t-38 47q-2 3 -3.5 3t-3.5 -3q-17 -23 -37 -47.5t-29 -36.5q-5 -7 -14.5 -14.5t-15.5 -7.5z" />
  </g>

</svg>
