<?xml version="1.0" standalone="no"?>
<!DOCTYPE svg PUBLIC "-//W3C//DTD SVG 1.1//EN" "http://www.w3.org/Graphics/SVG/1.1/DTD/svg11.dtd" >
<svg xmlns="http://www.w3.org/2000/svg" xmlns:xlink="http://www.w3.org/1999/xlink" version="1.1" viewBox="-10 0 418 1000">
  <g transform="matrix(1 0 0 -1 0 800)">
   <path fill="currentColor"
d="M117 -14q-18 0 -36.5 14t-31 34t-12.5 38q0 32 17 50t54 33l102 42q20 8 23.5 14t4.5 26l2 64q1 26 -14.5 45t-44.5 19q-15 0 -30 -5t-25 -13q-6 -4 -8 -12t-2 -17q0 -4 0.5 -9t0.5 -9q0 -5 -12.5 -13.5t-28 -15t-25.5 -6.5q-5 0 -8 2.5t-3 6.5q0 16 10.5 34.5t29.5 34.5
q23 21 50 37t53 25t46 9q36 0 59.5 -25.5t22.5 -63.5l-5 -240q-1 -21 9.5 -34t26.5 -13q25 0 37 11q5 5 8 5q5 0 8 -3t3 -8q0 -11 -11 -22q-16 -16 -34.5 -25.5t-34.5 -9.5q-46 0 -73 52h-3q-33 -27 -63 -39.5t-62 -12.5zM164 34q20 0 34 6.5t25 17.5q5 5 8.5 13.5t4.5 27.5
l2 49q1 11 -1 16t-8 5q-2 0 -7 -1t-13 -4q-53 -19 -73.5 -39.5t-20.5 -37.5q0 -26 15.5 -39.5t33.5 -13.5zM190 608q-6 0 -11.5 -6t-10.5 -12l-10.5 -13t-25.5 -32.5t-28.5 -39.5t-20.5 -33q-2 -5 -3.5 -8t-1.5 -4q0 -7 1 -10t8 -3q6 0 12.5 3.5t13.5 9.5q17 16 34.5 32.5
t34.5 33.5q4 4 7.5 4t7.5 -4q17 -17 34.5 -33t34.5 -33q6 -6 13 -9.5t13 -3.5q10 0 10 9q0 3 -2 7t-4 9q-6 13 -20 32.5t-28.5 39t-25 33l-10.5 13.5q-4 6 -10 12t-12 6zM288 558q-5 0 -5 8q0 6 6 26.5t14 46t14.5 45.5t8.5 23q5 8 10.5 13t12.5 5q5 0 15.5 -4.5t19 -11
t8.5 -14.5q0 -4 -7.5 -16.5t-19 -29.5t-23.5 -33.5t-21 -28.5t-11 -14q-4 -4 -11 -9.5t-11 -5.5z" />
  </g>

</svg>
