<?xml version="1.0" standalone="no"?>
<!DOCTYPE svg PUBLIC "-//W3C//DTD SVG 1.1//EN" "http://www.w3.org/Graphics/SVG/1.1/DTD/svg11.dtd" >
<svg xmlns="http://www.w3.org/2000/svg" xmlns:xlink="http://www.w3.org/1999/xlink" version="1.1" viewBox="-10 0 477 1000">
  <g transform="matrix(1 0 0 -1 0 800)">
   <path fill="currentColor"
d="M124 -15q-25 0 -45 20.5t-32 54t-12 71.5q0 36 8 74t22.5 73t34 63t42.5 44t48 16q35 0 55.5 -38t39.5 -109q1 -3 2 -3t2 3q11 34 21 69.5t18 71.5q3 12 7 18t17 6q12 0 20.5 -12.5t13 -26.5t4.5 -21q0 -15 -11.5 -49t-31.5 -78t-46 -88q14 -41 33 -58.5t39 -17.5
q14 0 26 5t22.5 13t16.5 15l6 7.5t5 2.5q7 0 7.5 -4t0.5 -11q0 -36 -16.5 -60.5t-39 -37.5t-42.5 -13q-23 0 -47.5 31t-31.5 95q-35 -52 -75.5 -89t-80.5 -37zM114 31q39 0 74 35.5t63 93.5q6 12 12 25.5t11 27.5q-22 59 -36.5 83.5t-38.5 24.5q-21 0 -42.5 -18t-40 -48.5
t-30 -67t-11.5 -73.5q0 -34 11.5 -58.5t27.5 -24.5zM278 447q20 0 20 10t-14 13q-21 6 -37 21.5t-16 37.5q0 15 9 24.5t25 10.5q15 2 25.5 12t10.5 27t-14 27.5t-32 10.5q-38 0 -56.5 -26t-18.5 -61q0 -20 8 -39t21.5 -34.5t31 -24.5t37.5 -9zM266 -217q-25 0 -42 21t-17 58
q0 42 7 55t20 15l31 2q17 2 15 -11q-4 -33 -3 -60.5t18 -28.5q12 -1 21.5 3t11.5 4q10 0 10 -9q0 -10 -8.5 -21.5t-24.5 -19.5t-39 -8z" />
  </g>

</svg>
