<?xml version="1.0" standalone="no"?>
<!DOCTYPE svg PUBLIC "-//W3C//DTD SVG 1.1//EN" "http://www.w3.org/Graphics/SVG/1.1/DTD/svg11.dtd" >
<svg xmlns="http://www.w3.org/2000/svg" xmlns:xlink="http://www.w3.org/1999/xlink" version="1.1" viewBox="-10 0 559 1000">
  <g transform="matrix(1 0 0 -1 0 800)">
   <path fill="currentColor"
d="M66 -5q-13 0 -21 2.5t-8 8.5q0 12 33 18q38 7 56 23t18 52v450q0 36 -14.5 51t-52.5 22q-17 3 -25 8t-8 12q0 6 8 8.5t21 2.5q38 0 64.5 -1t52 -1.5t60.5 -0.5q33 0 69.5 0.5t67.5 0.5q34 1 57.5 1.5t27.5 0.5q5 0 11 -2t7 -7q5 -28 10 -55.5t5 -47.5q0 -9 -4.5 -12
t-9.5 -3t-7 2.5t-4 7.5q-5 17 -10 32.5t-12 22.5q-14 16 -31 21.5t-36 5.5h-131q-8 0 -22 -9t-14 -23v-212q0 -9 5.5 -15.5t12.5 -6.5h99q29 0 40 10.5t18 38.5q6 22 18 22q4 0 8.5 -4t4.5 -12q0 -4 -0.5 -18t-1.5 -29t-1 -23q0 -10 0.5 -26.5t1 -31.5t0.5 -19
q0 -7 -1.5 -12t-7.5 -5q-15 0 -23 32q-6 23 -16 34t-30 11h-93q-17 0 -25.5 -4.5t-8.5 -21.5v-192q0 -38 16 -52.5t50 -14.5h74q32 0 53.5 3.5t37.5 13.5q16 11 28.5 29t28.5 48q3 6 7 10t9 3t8 -4.5t3 -9.5q0 -9 -5 -31.5t-12.5 -46.5t-13.5 -38q-3 -7 -5.5 -12t-8.5 -5
q-48 0 -89 1t-78 2t-72.5 2t-73.5 1q-22 0 -38 -1.5t-33 -3t-44 -1.5zM298 692q-42 0 -73 17.5t-47.5 42t-16.5 44.5q0 10 3 17t7 7q8 0 14 -7.5t10 -13.5q20 -24 45.5 -35.5t57.5 -11.5t57.5 11.5t45.5 35.5q5 6 11 13.5t13 7.5q8 0 9 -7t1 -17q0 -20 -16.5 -44.5t-47 -42
t-73.5 -17.5zM243 -275q-22 0 -33.5 8.5t-11.5 23.5q0 17 5 25.5t11 8.5t16 -6.5t47 -6.5q22 0 32 11.5t10 27.5q0 29 -13.5 41.5t-33.5 12.5q-9 0 -14 -1.5t-12 -1.5q-13 0 -19.5 6.5t-6.5 10.5q0 5 2 8.5t4 6.5l80 108h31l-37 -56q-11 -15 6 -22q21 -8 43.5 -31t22.5 -58
q0 -34 -23 -60t-53 -41t-53 -15z" />
  </g>

</svg>
