<?xml version="1.0" standalone="no"?>
<!DOCTYPE svg PUBLIC "-//W3C//DTD SVG 1.1//EN" "http://www.w3.org/Graphics/SVG/1.1/DTD/svg11.dtd" >
<svg xmlns="http://www.w3.org/2000/svg" xmlns:xlink="http://www.w3.org/1999/xlink" version="1.1" viewBox="-10 0 559 1000">
  <g transform="matrix(1 0 0 -1 0 800)">
   <path fill="currentColor"
d="M66 -5q-13 0 -21 2.5t-8 8.5q0 12 33 18q38 7 56 23t18 52v450q0 36 -14.5 51t-52.5 22q-17 3 -25 8t-8 12q0 6 8 8.5t21 2.5q38 0 64.5 -1t52 -1.5t60.5 -0.5q33 0 69.5 0.5t67.5 0.5q34 1 57.5 1.5t27.5 0.5q5 0 11 -2t7 -7q5 -28 10 -55.5t5 -47.5q0 -9 -4.5 -12
t-9.5 -3t-7 2.5t-4 7.5q-5 17 -10 32.5t-12 22.5q-14 16 -31 21.5t-36 5.5h-131q-8 0 -22 -9t-14 -23v-212q0 -9 5.5 -15.5t12.5 -6.5h99q29 0 40 10.5t18 38.5q6 22 18 22q4 0 8.5 -4t4.5 -12q0 -4 -0.5 -18t-1.5 -29t-1 -23q0 -10 0.5 -26.5t1 -31.5t0.5 -19
q0 -7 -1.5 -12t-7.5 -5q-15 0 -23 32q-6 23 -16 34t-30 11h-93q-17 0 -25.5 -4.5t-8.5 -21.5v-192q0 -38 16 -52.5t50 -14.5h74q32 0 53.5 3.5t37.5 13.5q16 11 28.5 29t28.5 48q3 6 7 10t9 3t8 -4.5t3 -9.5q0 -9 -5 -31.5t-12.5 -46.5t-13.5 -38q-3 -7 -5.5 -12t-8.5 -5
q-48 0 -89 1t-78 2t-72.5 2t-73.5 1q-22 0 -38 -1.5t-33 -3t-44 -1.5zM149 681q-15 0 -15 10q0 6 7 12l98 83q14 12 22 17t19 5t19 -5t22 -17l98 -83q6 -5 6 -12q0 -11 -14 -11q-5 0 -20.5 6.5t-35 16t-37.5 18.5t-28 15q-7 4 -10 4t-10 -4q-10 -6 -28 -15t-37.5 -18
t-35 -15.5t-20.5 -6.5zM169 759q-2 0 -7.5 1t-10.5 2q-23 8 -53.5 18.5t-60.5 23.5q-18 8 -18 15q0 6 10 15.5t22.5 17t17.5 7.5q7 0 16 -6q12 -9 29.5 -23.5t33.5 -28t23 -21.5q5 -4 6.5 -7.5t1.5 -7.5q0 -3 -3 -4.5t-7 -1.5z" />
  </g>

</svg>
