<?xml version="1.0" standalone="no"?>
<!DOCTYPE svg PUBLIC "-//W3C//DTD SVG 1.1//EN" "http://www.w3.org/Graphics/SVG/1.1/DTD/svg11.dtd" >
<svg xmlns="http://www.w3.org/2000/svg" xmlns:xlink="http://www.w3.org/1999/xlink" version="1.1" viewBox="-10 0 778 1000">
  <g transform="matrix(1 0 0 -1 0 800)">
   <path fill="currentColor"
d="M66 -5q-13 0 -21 2.5t-8 8.5q0 12 33 18q38 7 58 23t20 51v452q0 35 -14.5 50t-52.5 22q-33 6 -33 20q0 6 8 8.5t21 2.5q27 0 44.5 -1t33.5 -1.5t39 -0.5h214q25 0 43 0.5t37 1.5t46 1q13 0 21 -2.5t8 -8.5q0 -7 -8 -12t-25 -8q-37 -7 -63 -16.5t-26 -38.5v-471
q0 -31 14 -46t63 -15h98q4 0 23.5 7t32.5 19q20 17 29.5 30.5t22.5 40.5q2 6 8.5 18t13.5 12q6 0 9 -6t3 -12q0 -1 -0.5 -2.5t-0.5 -2.5q-10 -39 -17 -67t-10 -60q-1 -7 -3.5 -12t-10.5 -5q-43 0 -80.5 1t-72.5 1.5t-69.5 1.5t-72.5 1h-140h-87q-25 0 -43.5 -1.5t-38 -2.5
t-46.5 -1zM296 35q40 0 52.5 14t12.5 47v464q0 36 -18.5 44.5t-47.5 8.5q-28 0 -47.5 -14t-19.5 -46v-455q0 -35 21 -49t47 -14z" />
  </g>

</svg>
