<?xml version="1.0" standalone="no"?>
<!DOCTYPE svg PUBLIC "-//W3C//DTD SVG 1.1//EN" "http://www.w3.org/Graphics/SVG/1.1/DTD/svg11.dtd" >
<svg xmlns="http://www.w3.org/2000/svg" xmlns:xlink="http://www.w3.org/1999/xlink" version="1.1" viewBox="-10 0 1134 1000">
  <g transform="matrix(1 0 0 -1 0 800)">
   <path fill="currentColor"
d="M360 -3q-9 0 -14.5 2.5t-5.5 8.5q0 8 6 10.5t17 5.5q15 4 29 11t14 27v215q0 27 -5.5 46t-31.5 26q-4 2 -7 4.5t-3 8.5q0 11 9 12q35 9 57 22t43 29q3 2 5.5 3.5t5.5 1.5q2 0 3.5 -2t1.5 -5q0 -7 -2.5 -28.5t-2.5 -35.5q0 -4 0.5 -7.5t1.5 -4.5q35 33 74.5 50t86.5 17
q49 0 81 -40t32 -99v-213q0 -20 14 -26.5t29 -11.5q8 -3 15.5 -6.5t7.5 -11.5q0 -6 -7 -7.5t-13 -1.5q-20 0 -31 1.5t-21 2.5t-28 1q-17 0 -28 -1t-22.5 -2.5t-31.5 -1.5q-5 0 -12.5 1.5t-7.5 7.5q0 8 7.5 11.5t15.5 6.5q15 5 29 11.5t14 26.5v210q0 44 -24.5 68.5
t-65.5 25.5q-36 0 -63 -11.5t-48 -28.5q-4 -4 -6 -10.5t-2 -12.5v-241q0 -20 14 -27t29 -11q23 -6 23 -16q0 -6 -5 -8.5t-15 -2.5q-20 0 -31.5 1.5t-21.5 2.5t-28 1q-17 0 -27.5 -1t-22 -2.5t-31.5 -1.5zM237 -214q-10 0 -17 7q-21 21 -45.5 60t-48.5 89t-43.5 106.5
t-31 113t-11.5 107.5q0 64 17 128t44 121.5t57.5 103t57.5 72.5q5 5 12.5 8t14.5 3q5 0 13.5 -4.5t8.5 -11.5q0 -1 -3 -5t-6 -8.5t-4 -5.5q-30 -35 -60 -94t-49.5 -134.5t-19.5 -160.5q0 -64 11 -132.5t29 -132t40.5 -113t45.5 -76.5q1 -1 4.5 -5t7 -8.5t3.5 -5.5
q0 -10 -8.5 -16t-18.5 -6zM887 -214q10 0 17 7q21 21 45.5 60t48.5 89t43.5 106.5t31 113t11.5 107.5q0 64 -17 128t-44 121.5t-57.5 103t-57.5 72.5q-5 5 -12.5 8t-14.5 3q-5 0 -13.5 -4.5t-8.5 -11.5q0 -1 3 -5t6 -8.5t4 -5.5q30 -35 60 -94t49.5 -134.5t19.5 -160.5
q0 -64 -11 -132.5t-29 -132t-40.5 -113t-45.5 -76.5q-1 -1 -4.5 -5t-7 -8.5t-3.5 -5.5q0 -10 8.5 -16t18.5 -6z" />
  </g>

</svg>
