<?xml version="1.0" standalone="no"?>
<!DOCTYPE svg PUBLIC "-//W3C//DTD SVG 1.1//EN" "http://www.w3.org/Graphics/SVG/1.1/DTD/svg11.dtd" >
<svg xmlns="http://www.w3.org/2000/svg" xmlns:xlink="http://www.w3.org/1999/xlink" version="1.1" viewBox="-10 0 562 1000">
  <g transform="matrix(1 0 0 -1 0 800)">
   <path fill="currentColor"
d="M53 -5q-13 0 -21 2.5t-8 8.5q0 12 33 18q38 7 55.5 23t17.5 53v153l-76 -1q-5 0 -9.5 4t-4.5 8q0 7 7 16t17 9l66 1v232q0 45 -11.5 69t-49.5 31q-17 3 -25 8t-8 12q0 6 8 8.5t21 2.5h40.5t25.5 -0.5t32 -0.5t40.5 1.5t38.5 3t32 1.5q76 0 133 -25t88.5 -68.5t31.5 -99.5
q0 -75 -28.5 -121.5t-79.5 -68t-117 -22.5h-92v-142q0 -36 15 -58t52 -29q17 -3 25 -7t8 -11q0 -6 -8 -8.5t-21 -2.5q-27 0 -41.5 2t-26 3.5t-30.5 1.5q-25 0 -44.5 -1.5t-39 -3.5t-46.5 -2zM54 137q-5 0 -9.5 4t-4.5 8q0 7 7 16.5t17 9.5l380 13q5 0 10 -4.5t3 -9.5
q-4 -12 -11 -21t-20 -9zM210 287h93q71 0 104.5 41.5t33.5 129.5q0 80 -47 126t-120 46q-28 0 -46 -9.5t-18 -32.5v-301z" />
  </g>

</svg>
