<?xml version="1.0" standalone="no"?>
<!DOCTYPE svg PUBLIC "-//W3C//DTD SVG 1.1//EN" "http://www.w3.org/Graphics/SVG/1.1/DTD/svg11.dtd" >
<svg xmlns="http://www.w3.org/2000/svg" xmlns:xlink="http://www.w3.org/1999/xlink" version="1.1" viewBox="-10 0 745 1000">
  <g transform="matrix(1 0 0 -1 0 800)">
   <path fill="currentColor"
d="M339 -15q-85 0 -152.5 41.5t-106.5 113t-39 162.5q0 73 24.5 138t69 115t105.5 79t134 29q40 0 73 -4.5t59.5 -9t45.5 -4.5q28 0 43 2t31 4t44 2q13 0 23.5 -3t10.5 -9q0 -7 -6 -13t-23 -9q-29 -4 -45.5 -11.5t-22.5 -21t-6 -37.5v-451q0 -35 21 -51t58 -23q33 -6 33 -18
q0 -6 -8 -8.5t-21 -2.5q-19 0 -37 3t-35 3q-19 0 -38.5 -3.5t-36.5 -3.5q-12 0 -14 15t-2 31q0 5 -5.5 8t-15.5 -6q-19 -17 -57 -37t-104 -20zM364 16q26 0 53 15t51 37.5t38.5 47t14.5 43.5v365q0 29 -16 53.5t-51.5 39.5t-95.5 15q-55 0 -95.5 -26.5t-67.5 -71t-40.5 -99
t-13.5 -109.5q0 -56 13 -111t40 -100t69.5 -72t100.5 -27z" />
  </g>

</svg>
