<?xml version="1.0" standalone="no"?>
<!DOCTYPE svg PUBLIC "-//W3C//DTD SVG 1.1//EN" "http://www.w3.org/Graphics/SVG/1.1/DTD/svg11.dtd" >
<svg xmlns="http://www.w3.org/2000/svg" xmlns:xlink="http://www.w3.org/1999/xlink" version="1.1" viewBox="-10 0 914 1000">
  <g transform="matrix(1 0 0 -1 0 800)">
   <path fill="currentColor"
d="M158 269q-36 0 -60.5 7t-32.5 12q-6 4 -11 7.5t-7 10.5q-2 11 -7 36t-5 41q0 4 5.5 6t11.5 2q2 0 5.5 -2t5.5 -8q4 -10 18 -30.5t36 -37.5t50 -17t47 17.5t19 45.5q0 32 -26 54t-58 42q-24 15 -46.5 31.5t-37.5 38t-15 49.5q0 26 13 49.5t41.5 38t76.5 14.5q33 0 53 -3
t30 -5q6 -1 9 -5t4 -9q3 -15 5 -33.5t2 -34.5q0 -4 -3.5 -8.5t-8.5 -4.5q-7 0 -10.5 3t-5.5 10q-13 41 -38 53t-42 12q-31 0 -52 -15.5t-21 -45.5q0 -22 27.5 -42t61.5 -41q26 -16 50 -34t39.5 -40t15.5 -50q0 -24 -16 -50.5t-47 -45t-76 -18.5zM565 278q-7 16 -21.5 49.5
t-33.5 76t-40.5 88.5t-41.5 86q-3 6 -4.5 4t-2.5 -9l-18 -192q-4 -49 5.5 -62.5t31.5 -16.5q11 -1 16 -5.5t5 -8.5t-5.5 -6t-13.5 -2h-20.5h-21h-21.5h-28.5h-28.5q-19 0 -19 8q0 4 5.5 8t16.5 6q17 3 28.5 18t15.5 62l22 216q2 22 -7 31.5t-36 18.5q-13 5 -15.5 8.5
t-2.5 7.5q0 9 15 9h88q16 0 22.5 -3.5t7.5 -10.5q5 -21 11.5 -36t15.5 -32q26 -47 49 -101.5t48 -100.5q5 -8 8 -9t7 7l119 243q8 15 12 29t11 14h98q2 0 9 -2t7 -7q0 -6 -3.5 -9t-13.5 -6q-22 -7 -34.5 -15t-11.5 -27l9 -270q1 -19 13 -25.5t36 -9.5q11 -1 16 -5.5t5 -8.5
t-5.5 -6t-13.5 -2q-12 0 -24.5 0.5t-25 0.5h-24.5h-26t-25.5 -0.5t-25.5 -0.5q-19 0 -19 8q0 4 5.5 8.5t16.5 5.5q19 2 26.5 8.5t6.5 27.5l-6 244q0 10 -3 9t-7 -9l-151 -304q-2 -4 -4 -4.5t-4 4.5z" />
  </g>

</svg>
