<?xml version="1.0" standalone="no"?>
<!DOCTYPE svg PUBLIC "-//W3C//DTD SVG 1.1//EN" "http://www.w3.org/Graphics/SVG/1.1/DTD/svg11.dtd" >
<svg xmlns="http://www.w3.org/2000/svg" xmlns:xlink="http://www.w3.org/1999/xlink" version="1.1" viewBox="-10 0 1643 1000">
  <g transform="matrix(1 0 0 -1 0 800)">
   <path fill="currentColor"
d="M318 -12q-8 0 -11 7q-4 11 -10 29.5t-11 31.5l-183 491q-10 28 -27 47t-43 26q-16 5 -24.5 10t-8.5 12q0 6 8 8.5t21 2.5q16 0 35.5 -1t41.5 -1.5t45 -0.5q20 0 39.5 0.5t36 1t26.5 0.5q13 0 21 -2.5t8 -8.5q0 -7 -8 -12.5t-25 -7.5q-28 -3 -46.5 -12.5t-18.5 -26.5
t4.5 -29.5t6.5 -19.5l144 -380q2 -4 5 -5t6 6l137 360q20 53 2.5 77.5t-49.5 28.5q-15 2 -24 7.5t-9 12.5q0 6 8 8.5t21 2.5h29t33.5 -0.5t36.5 -0.5q29 0 62 1.5t52 1.5q13 0 21 -2.5t8 -8.5q0 -7 -8 -11.5t-25 -8.5q-37 -8 -62 -34t-36 -53l-188 -456q-2 -5 -7.5 -20.5
t-11.5 -33.5t-12 -30q-1 -3 -4 -5t-6 -2zM697 -5q-13 0 -21 2.5t-8 8.5q0 12 33 18q38 7 58 23t20 51v452q0 35 -14.5 50t-52.5 22q-33 6 -33 20q0 6 8 8.5t21 2.5q27 0 44.5 -1t33.5 -1.5t39 -0.5q22 0 36 0.5t30 1.5t43 1q13 0 21 -2.5t8 -8.5q0 -7 -8 -12t-25 -8
q-37 -7 -54 -22t-17 -50v-452q0 -35 21 -51t58 -23q17 -3 25 -7t8 -11q0 -6 -8 -8.5t-21 -2.5q-27 0 -44.5 1.5t-33.5 2.5t-39 1q-25 0 -43.5 -1t-38 -2.5t-46.5 -1.5zM1017 -5q-13 0 -21 2.5t-8 8.5q0 12 33 18q38 7 58 23t20 51v452q0 35 -14.5 50t-52.5 22q-33 6 -33 20
q0 6 8 8.5t21 2.5q27 0 44.5 -1t33.5 -1.5t39 -0.5q22 0 36 0.5t30 1.5t43 1q13 0 21 -2.5t8 -8.5q0 -7 -8 -12t-25 -8q-37 -7 -54 -22t-17 -50v-452q0 -35 21 -51t58 -23q17 -3 25 -7t8 -11q0 -6 -8 -8.5t-21 -2.5q-27 0 -44.5 1.5t-33.5 2.5t-39 1q-25 0 -43.5 -1
t-38 -2.5t-46.5 -1.5zM1341 -5q-13 0 -21 2.5t-8 8.5q0 12 33 18q38 7 58 23t20 51v452q0 35 -14.5 50t-52.5 22q-33 6 -33 20q0 6 8 8.5t21 2.5q27 0 44.5 -1t33.5 -1.5t39 -0.5q22 0 36 0.5t30 1.5t43 1q13 0 21 -2.5t8 -8.5q0 -7 -8 -12t-25 -8q-37 -7 -54 -22t-17 -50
v-452q0 -35 21 -51t58 -23q17 -3 25 -7t8 -11q0 -6 -8 -8.5t-21 -2.5q-27 0 -44.5 1.5t-33.5 2.5t-39 1q-25 0 -43.5 -1t-38 -2.5t-46.5 -1.5z" />
  </g>

</svg>
