<?xml version="1.0" standalone="no"?>
<!DOCTYPE svg PUBLIC "-//W3C//DTD SVG 1.1//EN" "http://www.w3.org/Graphics/SVG/1.1/DTD/svg11.dtd" >
<svg xmlns="http://www.w3.org/2000/svg" xmlns:xlink="http://www.w3.org/1999/xlink" version="1.1" viewBox="-10 0 495 1000">
  <g transform="matrix(1 0 0 -1 0 800)">
   <path fill="currentColor"
d="M424 -139q-13 0 -17 11.5t-4 24.5q1 8 1 21.5v23.5q0 40 -15.5 50t-38.5 10q-14 0 -18 -0.5t-13.5 -1t-41.5 -0.5q-4 0 -13.5 1t-9.5 8q0 8 7 12t16 7q8 3 14.5 7t6.5 11q0 3 -2 6.5t-5 7.5l-126 145q-2 2 -5 1q-5 0 -5 -7q-1 -14 -1 -30.5v-33.5v-35t1 -35q0 -20 10 -28
t25 -13q8 -3 15.5 -6.5t7.5 -11.5q0 -7 -9.5 -8t-13.5 -1q-19 0 -28 1.5t-16.5 2.5t-25.5 1q-17 0 -27 -1t-20.5 -2.5t-30.5 -1.5q-4 0 -13.5 1t-9.5 8q0 8 7.5 11.5t15.5 6.5q15 5 29 13t14 28v501q0 35 -10.5 51.5t-35.5 21.5q-8 2 -8 13q0 10 7 12q26 6 42 11.5t30 11
t30 11.5q6 2 11 4.5t8 2.5q2 0 3.5 -3t1.5 -6q0 -10 -4.5 -40t-4.5 -94v-331q0 -7 5 -7q3 0 6 1.5l7 3.5q10 6 28.5 22t38.5 35t37 36t24 25q5 5 7.5 8.5t2.5 5.5q0 5 -7.5 10t-18.5 7l-7 3.5t-5 4.5q0 9 9.5 11.5t12.5 2.5h49q18 0 35 2.5t32.5 5.5t28.5 4q2 0 5 -2t3 -5
q0 -6 -6.5 -12.5t-13.5 -8.5q-19 -4 -37.5 -13.5t-32.5 -17.5q-6 -4 -27.5 -21.5t-49 -40.5t-51.5 -44q-2 -1 -3 -4t-2 -5q0 -2 0.5 -4t1.5 -4q26 -31 56 -64.5t55.5 -59.5t35.5 -36q17 -16 32 -27.5t28 -11.5q6 0 13 2t14 2q14 0 14 -8q0 -4 -1 -6q-4 -10 -10.5 -22
t-12 -36t-7.5 -71q-1 -12 -8 -21.5t-12 -9.5z" />
  </g>

</svg>
