<?xml version="1.0" standalone="no"?>
<!DOCTYPE svg PUBLIC "-//W3C//DTD SVG 1.1//EN" "http://www.w3.org/Graphics/SVG/1.1/DTD/svg11.dtd" >
<svg xmlns="http://www.w3.org/2000/svg" xmlns:xlink="http://www.w3.org/1999/xlink" version="1.1" viewBox="-10 0 1332 1000">
  <g transform="matrix(1 0 0 -1 0 800)">
   <path fill="currentColor"
d="M541 -23q-2 0 -4 2t-3 5l-139 345q-7 20 -22 32.5t-30 16.5q-8 3 -15.5 7t-7.5 11q0 6 7.5 7.5t12.5 1.5q13 0 24.5 -1t23.5 -2.5t25 -1.5q14 0 28 1.5t27.5 2.5t27.5 1q4 0 12 -1.5t8 -7.5q0 -7 -7.5 -11t-15.5 -7q-10 -3 -15.5 -14.5t-5.5 -25.5q0 -13 5 -26l78 -201
q1 -4 5 -4t5 4l68 162q5 13 6.5 25t1.5 23q0 22 -17 36t-34 21q-8 3 -15.5 7t-7.5 11q0 6 7 7.5t13 1.5q14 0 30.5 -2.5t44.5 -2.5t48 2.5t36 2.5q5 0 12.5 -1.5t7.5 -7.5q0 -7 -7.5 -11t-15.5 -7q-11 -4 -22.5 -11t-11.5 -25q0 -6 1.5 -13.5t5.5 -16.5l75 -193q5 -11 8 -11
q4 0 8 10l76 177q4 8 5.5 20t1.5 19q0 18 -12 29t-23 15q-8 3 -15.5 7t-7.5 11q0 6 7.5 7.5t12.5 1.5q22 0 35 -2.5t40 -2.5q19 0 27 1.5t14 2.5t17 1q6 0 13 -1.5t7 -7.5q0 -7 -7.5 -11t-15.5 -7q-15 -4 -29 -23.5t-24 -42.5l-137 -328q-3 -7 -9 -7q-4 0 -8 7l-104 258
q-3 8 -6 9q-3 0 -7 -10l-109 -257q-3 -7 -8 -7zM237 -214q-10 0 -17 7q-21 21 -45.5 60t-48.5 89t-43.5 106.5t-31 113t-11.5 107.5q0 64 17 128t44 121.5t57.5 103t57.5 72.5q5 5 12.5 8t14.5 3q5 0 13.5 -4.5t8.5 -11.5q0 -1 -3 -5t-6 -8.5t-4 -5.5q-30 -35 -60 -94
t-49.5 -134.5t-19.5 -160.5q0 -64 11 -132.5t29 -132t40.5 -113t45.5 -76.5q1 -1 4.5 -5t7 -8.5t3.5 -5.5q0 -10 -8.5 -16t-18.5 -6zM1080 -214q10 0 17 7q21 21 45.5 60t48.5 89t43.5 106.5t31 113t11.5 107.5q0 64 -17 128t-44 121.5t-57.5 103t-57.5 72.5q-5 5 -12.5 8
t-14.5 3q-5 0 -13.5 -4.5t-8.5 -11.5q0 -1 3 -5t6 -8.5t4 -5.5q30 -35 60 -94t49.5 -134.5t19.5 -160.5q0 -64 -11 -132.5t-29 -132t-40.5 -113t-45.5 -76.5q-1 -1 -4.5 -5t-7 -8.5t-3.5 -5.5q0 -10 8.5 -16t18.5 -6z" />
  </g>

</svg>
