<?xml version="1.0" standalone="no"?>
<!DOCTYPE svg PUBLIC "-//W3C//DTD SVG 1.1//EN" "http://www.w3.org/Graphics/SVG/1.1/DTD/svg11.dtd" >
<svg xmlns="http://www.w3.org/2000/svg" xmlns:xlink="http://www.w3.org/1999/xlink" version="1.1" viewBox="-10 0 1111 1000">
  <g transform="matrix(1 0 0 -1 0 800)">
   <path fill="currentColor"
d="M237 -214q-10 0 -17 7q-21 21 -45.5 60t-48.5 89t-43.5 106.5t-31 113t-11.5 107.5q0 64 17 128t44 121.5t57.5 103t57.5 72.5q5 5 12.5 8t14.5 3q5 0 13.5 -4.5t8.5 -11.5q0 -1 -3 -5t-6 -8.5t-4 -5.5q-30 -35 -60 -94t-49.5 -134.5t-19.5 -160.5q0 -64 11 -132.5
t29 -132t40.5 -113t45.5 -76.5q1 -1 4.5 -5t7 -8.5t3.5 -5.5q0 -10 -8.5 -16t-18.5 -6zM859 -214q10 0 17 7q21 21 45.5 60t48.5 89t43.5 106.5t31 113t11.5 107.5q0 64 -17 128t-44 121.5t-57.5 103t-57.5 72.5q-5 5 -12.5 8t-14.5 3q-5 0 -13.5 -4.5t-8.5 -11.5q0 -1 3 -5
t6 -8.5t4 -5.5q30 -35 60 -94t49.5 -134.5t19.5 -160.5q0 -64 -11 -132.5t-29 -132t-40.5 -113t-45.5 -76.5q-1 -1 -4.5 -5t-7 -8.5t-3.5 -5.5q0 -10 8.5 -16t18.5 -6zM547 -14q-66 0 -108 27t-62.5 73.5t-20.5 106.5q0 75 21.5 131t49 94.5t44.5 58.5q25 28 67 60.5t95 60
t109 41.5q6 2 10 0t4 -4q0 -6 -5.5 -10.5t-12 -7t-8.5 -3.5q-67 -29 -115.5 -66t-86.5 -92q-17 -24 -38 -63.5t-36 -91t-15 -111.5q0 -47 18.5 -85t50 -60.5t68.5 -22.5q53 0 81 35t28 85q0 31 -12.5 57.5t-33.5 43.5t-48 17q-26 0 -44.5 -3t-35.5 -12q-9 -4 -10.5 0.5
t3.5 10.5l13 13l12 12q7 6 22 15.5t34.5 17.5t37.5 8q38 0 67.5 -17.5t46.5 -47t17 -67.5q0 -36 -14 -72.5t-40.5 -66t-65 -47.5t-87.5 -18z" />
  </g>

</svg>
