<?xml version="1.0" standalone="no"?>
<!DOCTYPE svg PUBLIC "-//W3C//DTD SVG 1.1//EN" "http://www.w3.org/Graphics/SVG/1.1/DTD/svg11.dtd" >
<svg xmlns="http://www.w3.org/2000/svg" xmlns:xlink="http://www.w3.org/1999/xlink" version="1.1" viewBox="-10 0 626 1000">
  <g transform="matrix(1 0 0 -1 0 800)">
   <path fill="currentColor"
d="M504 -270q-55 0 -91 16t-61 42t-47 56q-19 27 -41 54.5t-51.5 49.5t-72.5 35.5t-105 13.5q-4 0 -5.5 7l-1.5 7q0 5 9.5 21.5t23.5 36.5t25 35q51 70 94 128.5t83 114t81.5 115t89.5 131.5q2 2 3 4t1 4q0 3 -4 5t-15 3q-27 1 -66.5 1.5t-79.5 0.5h-56t-46 -2
q-24 -2 -54 -19.5t-44 -54.5q-4 -9 -10.5 -20.5t-17.5 -11.5q-4 0 -6.5 3.5t-2.5 7.5q0 6 2.5 13.5l4.5 13.5q4 11 9.5 30.5t11 43t6.5 44.5q1 11 6 14t9 3t13.5 -5t17.5 -9q10 -4 35.5 -10t50.5 -6h58.5h67.5h60.5t58 0.5t56.5 1t56 1.5q5 0 9.5 -7t1.5 -11l-61 -81
q-52 -70 -95 -129t-82.5 -115.5t-80.5 -116.5t-89 -131q-3 -4 -3 -12q0 -6 3 -11t8 -6q47 0 80 -21t56.5 -53t43.5 -66q18 -31 35.5 -59t39 -45.5t49.5 -17.5q13 0 23.5 9t23.5 25q11 14 22.5 19.5t24.5 5.5q16 0 27 -12t11 -26q0 -27 -23 -42.5t-79 -15.5z" />
  </g>

</svg>
