<?xml version="1.0" standalone="no"?>
<!DOCTYPE svg PUBLIC "-//W3C//DTD SVG 1.1//EN" "http://www.w3.org/Graphics/SVG/1.1/DTD/svg11.dtd" >
<svg xmlns="http://www.w3.org/2000/svg" xmlns:xlink="http://www.w3.org/1999/xlink" version="1.1" viewBox="-10 0 1140 1000">
  <g transform="matrix(1 0 0 -1 0 800)">
   <path fill="currentColor"
d="M237 -214q-10 0 -17 7q-21 21 -45.5 60t-48.5 89t-43.5 106.5t-31 113t-11.5 107.5q0 64 17 128t44 121.5t57.5 103t57.5 72.5q5 5 12.5 8t14.5 3q5 0 13.5 -4.5t8.5 -11.5q0 -1 -3 -5t-6 -8.5t-4 -5.5q-30 -35 -60 -94t-49.5 -134.5t-19.5 -160.5q0 -64 11 -132.5
t29 -132t40.5 -113t45.5 -76.5q1 -1 4.5 -5t7 -8.5t3.5 -5.5q0 -10 -8.5 -16t-18.5 -6zM574 -14q-22 0 -44 4t-42 9q-22 6 -38.5 11t-21.5 5q-6 0 -11.5 -4t-10.5 -9t-9 -5t-9 3.5t-5 8.5q0 9 3.5 31t3.5 41v485q0 26 -13 45t-33 28q-4 2 -8.5 5.5t-4.5 9.5q0 5 4 7t8 3
q13 3 35.5 11t42.5 16t27 11q6 3 9 3q2 0 4 -2t2 -5q0 -4 -1.5 -33.5t-1.5 -71.5v-205q0 -19 2 -25.5t7 -7.5q31 26 72 42.5t74 16.5q51 0 91.5 -26t64.5 -70.5t24 -100.5q0 -68 -28 -120.5t-77.5 -81.5t-115.5 -29zM597 17q38 0 65.5 23.5t42.5 64t15 90.5q0 39 -14.5 80
t-45 69t-78.5 28q-40 0 -70 -13t-52 -33v-194q0 -35 19.5 -61t51 -40t66.5 -14zM893 -214q10 0 17 7q21 21 45.5 60t48.5 89t43.5 106.5t31 113t11.5 107.5q0 64 -17 128t-44 121.5t-57.5 103t-57.5 72.5q-5 5 -12.5 8t-14.5 3q-5 0 -13.5 -4.5t-8.5 -11.5q0 -1 3 -5t6 -8.5
t4 -5.5q30 -35 60 -94t49.5 -134.5t19.5 -160.5q0 -64 -11 -132.5t-29 -132t-40.5 -113t-45.5 -76.5q-1 -1 -4.5 -5t-7 -8.5t-3.5 -5.5q0 -10 8.5 -16t18.5 -6z" />
  </g>

</svg>
