<?xml version="1.0" standalone="no"?>
<!DOCTYPE svg PUBLIC "-//W3C//DTD SVG 1.1//EN" "http://www.w3.org/Graphics/SVG/1.1/DTD/svg11.dtd" >
<svg xmlns="http://www.w3.org/2000/svg" xmlns:xlink="http://www.w3.org/1999/xlink" version="1.1" viewBox="-10 0 613 1000">
  <g transform="matrix(1 0 0 -1 0 800)">
   <path fill="currentColor"
d="M529 -216q-14 0 -17.5 20t-3.5 35q1 17 1 32v28q0 62 -18 82.5t-56 20.5h-67.5t-58.5 -0.5t-75 -0.5q-30 0 -61.5 -2t-60.5 -2h-77q-3 2 -5 6t-2 8q0 5 9.5 21.5t23.5 36.5t25 35q51 70 93 127.5t81 112t79.5 113.5t88.5 131q2 2 3 4t1 4q0 3 -4 5t-15 3q-27 1 -66.5 1.5
t-79.5 0.5h-56t-46 -2q-24 -1 -51 -16.5t-41 -52.5q-4 -9 -10.5 -20.5t-17.5 -11.5q-4 0 -6.5 3.5t-2.5 7.5q0 6 2.5 13.5l4.5 13.5q4 11 9.5 29t10.5 39.5t7 42.5q1 11 6 14t9 3t11 -4t14 -10q6 -4 28.5 -5.5t44.5 -2.5q39 -1 75 -1h70h60.5t58 0.5t56.5 1t56 1.5
q5 0 9.5 -7t1.5 -11l-61 -81q-52 -70 -93.5 -127t-79.5 -111t-77.5 -112t-87.5 -130q-3 -4 -3 -12q0 -6 3 -11t8 -6q22 -2 51 -3.5t62 -1.5h54.5t81.5 0.5t82 1.5t56 2q8 0 11 -5t3 -11q0 -12 -5.5 -41t-11.5 -69t-8 -87q-1 -12 -7.5 -27.5t-18.5 -15.5z" />
  </g>

</svg>
