<?xml version="1.0" standalone="no"?>
<!DOCTYPE svg PUBLIC "-//W3C//DTD SVG 1.1//EN" "http://www.w3.org/Graphics/SVG/1.1/DTD/svg11.dtd" >
<svg xmlns="http://www.w3.org/2000/svg" xmlns:xlink="http://www.w3.org/1999/xlink" version="1.1" viewBox="-10 0 317 1000">
  <g transform="matrix(1 0 0 -1 0 800)">
   <path fill="currentColor"
d="M231 -214q-8 0 -11 9q-19 58 -33.5 101.5t-28 80.5t-28.5 75t-34.5 84t-46.5 108q-3 8 -6 14.5t-3 13.5q0 2 1 4.5t2 3.5q29 59 52 108.5t42 96t38 97t41 112.5q2 6 16 8.5t21 2.5q5 0 8.5 -3t3.5 -10q0 -4 -1.5 -11t-3.5 -11q-23 -59 -39.5 -101.5t-29 -76t-24.5 -65
t-27 -67t-36 -82.5q-2 -4 -1.5 -6.5l1.5 -7.5q22 -54 45.5 -116.5t50 -140.5t56.5 -180q1 -2 2.5 -9.5t1.5 -9.5q0 -10 -6.5 -16t-22.5 -6z" />
  </g>

</svg>
