<?xml version="1.0" standalone="no"?>
<!DOCTYPE svg PUBLIC "-//W3C//DTD SVG 1.1//EN" "http://www.w3.org/Graphics/SVG/1.1/DTD/svg11.dtd" >
<svg xmlns="http://www.w3.org/2000/svg" xmlns:xlink="http://www.w3.org/1999/xlink" version="1.1" viewBox="-10 0 340 1000">
  <g transform="matrix(1 0 0 -1 0 800)">
   <path fill="currentColor"
d="M36 -3q-5 0 -12.5 1.5t-7.5 7.5q0 8 7.5 11.5t15.5 6.5q15 5 29 11.5t14 27.5v268q0 22 -9 33t-28 14q-9 2 -16 6.5t-7 11.5q0 6 7.5 7.5t12.5 1.5q20 0 29.5 -1t18 -2.5t25.5 -1.5q18 0 28 1.5t21 2.5t31 1q6 0 13 -1.5t7 -7.5q0 -7 -7 -11.5t-16 -6.5q-20 -4 -30 -15.5
t-10 -31.5v-93q0 -14 3.5 -19t7.5 -5h70q16 0 23.5 9.5t13.5 27.5q2 5 6 11t9 6q6 0 9.5 -5t2.5 -10q-1 -12 -2 -28t-1 -27q0 -13 1.5 -27t2.5 -28q1 -4 -2 -10.5t-8 -6.5q-9 0 -12.5 10.5t-5.5 13.5q-4 16 -14 21t-18 6q-15 2 -30 2h-31q-14 0 -19.5 -2t-5.5 -16v-98
q0 -22 14 -28t29 -11q8 -3 15.5 -6.5t7.5 -11.5q0 -6 -7.5 -7.5t-12.5 -1.5q-20 0 -32 1.5t-22.5 2.5t-27.5 1q-18 0 -28 -1t-21 -2.5t-31 -1.5z" />
  </g>

</svg>
