<?xml version="1.0" standalone="no"?>
<!DOCTYPE svg PUBLIC "-//W3C//DTD SVG 1.1//EN" "http://www.w3.org/Graphics/SVG/1.1/DTD/svg11.dtd" >
<svg xmlns="http://www.w3.org/2000/svg" xmlns:xlink="http://www.w3.org/1999/xlink" version="1.1" viewBox="-10 0 1008 1000">
  <g transform="matrix(1 0 0 -1 0 800)">
   <path fill="currentColor"
d="M363 -3q-10 0 -15 2.5t-5 8.5q0 8 6 10.5t17 5.5q19 5 28.5 14.5t9.5 23.5v215q0 27 -8 47t-33 25q-4 1 -7 5t-3 8q0 10 9 12q26 8 54.5 23.5t44.5 25.5q6 4 9.5 5.5t5.5 1.5q5 0 5 -7q0 -3 -0.5 -15t-1 -28t-1.5 -32q0 -2 2 -2q16 20 35.5 35t40 24t39.5 9q21 0 34.5 -9
t13.5 -23q0 -10 -5.5 -22t-14.5 -21t-19 -9q-6 0 -13 2.5t-15 6.5l-16 6t-16 3q-24 0 -46.5 -17t-22.5 -67v-202q0 -13 14 -21.5t39 -16.5q11 -3 17 -6t6 -10q0 -11 -20 -11q-30 0 -45.5 2.5t-41.5 2.5q-17 0 -27.5 -1t-22 -2.5t-31.5 -1.5zM237 -214q-10 0 -17 7
q-21 21 -45.5 60t-48.5 89t-43.5 106.5t-31 113t-11.5 107.5q0 64 17 128t44 121.5t57.5 103t57.5 72.5q5 5 12.5 8t14.5 3q5 0 13.5 -4.5t8.5 -11.5q0 -1 -3 -5t-6 -8.5t-4 -5.5q-30 -35 -60 -94t-49.5 -134.5t-19.5 -160.5q0 -64 11 -132.5t29 -132t40.5 -113t45.5 -76.5
q1 -1 4.5 -5t7 -8.5t3.5 -5.5q0 -10 -8.5 -16t-18.5 -6zM756 -214q10 0 17 7q21 21 45.5 60t48.5 89t43.5 106.5t31 113t11.5 107.5q0 64 -17 128t-44 121.5t-57.5 103t-57.5 72.5q-5 5 -12.5 8t-14.5 3q-5 0 -13.5 -4.5t-8.5 -11.5q0 -1 3 -5t6 -8.5t4 -5.5q30 -35 60 -94
t49.5 -134.5t19.5 -160.5q0 -64 -11 -132.5t-29 -132t-40.5 -113t-45.5 -76.5q-1 -1 -4.5 -5t-7 -8.5t-3.5 -5.5q0 -10 8.5 -16t18.5 -6z" />
  </g>

</svg>
