<?xml version="1.0" standalone="no"?>
<!DOCTYPE svg PUBLIC "-//W3C//DTD SVG 1.1//EN" "http://www.w3.org/Graphics/SVG/1.1/DTD/svg11.dtd" >
<svg xmlns="http://www.w3.org/2000/svg" xmlns:xlink="http://www.w3.org/1999/xlink" version="1.1" viewBox="-10 0 901 1000">
  <g transform="matrix(1 0 0 -1 0 800)">
   <path fill="currentColor"
d="M44 -3q-6 0 -12.5 3.5t-6.5 10.5q0 5 6 7.5t13 3.5q14 2 29 4.5t25.5 12t10.5 29.5v265q0 21 -7.5 31t-21 14t-32.5 6q-7 1 -11 4t-4 7q0 5 4.5 8t10.5 3q30 0 43.5 -0.5t24 -1.5t29.5 -1t28.5 1t22.5 1.5t42 0.5q5 0 10.5 -2.5t5.5 -7.5q0 -6 -6 -8.5t-10 -3.5
q-14 -3 -27 -6t-21.5 -12.5t-8.5 -32.5v-265q0 -29 16 -35t49 -11q9 -1 13.5 -4.5t4.5 -8.5q0 -4 -4.5 -8t-13.5 -4q-28 0 -42.5 1.5t-26 2.5t-32.5 1q-22 0 -34 -1t-26 -2.5t-41 -1.5zM375 -190q-8 0 -17.5 3.5t-9.5 10.5q0 9 9 19.5t18 10.5q5 0 17.5 0.5t27 3t22.5 6.5
q26 14 48.5 31t37 45.5t14.5 76.5q0 19 -8.5 41t-29.5 38t-58 16q-23 0 -41 -10t-21 -10q-6 0 -11.5 2t-5.5 7q0 7 11 18t20 16q17 10 32.5 21t37.5 30q14 12 27 39t13 67q0 29 -17.5 47.5t-46.5 18.5q-34 0 -55 -14t-41 -36q-2 -3 -7 -5.5t-9 -2.5t-5.5 3.5t-1.5 8.5
q0 8 11.5 24.5t32 34t46.5 30t55 12.5q49 0 78.5 -28.5t29.5 -75.5q0 -16 -7 -41t-27.5 -51.5t-59.5 -49.5q-3 -1 -3 -3.5t4 -2.5q46 -1 75.5 -17.5t43.5 -41t14 -49.5q0 -45 -16 -80t-41.5 -61.5t-56 -46t-60.5 -34.5q-18 -9 -39 -15t-30 -6zM776 -14q-22 0 -38.5 16.5
t-16.5 38.5q0 23 16.5 39t38.5 16q23 0 39 -16t16 -39q0 -22 -16 -38.5t-39 -16.5z" />
  </g>

</svg>
