<?xml version="1.0" standalone="no"?>
<!DOCTYPE svg PUBLIC "-//W3C//DTD SVG 1.1//EN" "http://www.w3.org/Graphics/SVG/1.1/DTD/svg11.dtd" >
<svg xmlns="http://www.w3.org/2000/svg" xmlns:xlink="http://www.w3.org/1999/xlink" version="1.1" viewBox="-10 0 881 1000">
  <g transform="matrix(1 0 0 -1 0 800)">
   <path fill="currentColor"
d="M678 -21q-49 0 -83 5t-58.5 19.5t-47.5 42.5q-19 24 -39 47t-44 57.5t-59 90.5q-8 14 -18 23t-25 16q-22 11 -43.5 16t-35.5 6q-8 1 -11.5 -5t-3.5 -15v-172q0 -32 15 -55.5t52 -30.5q17 -3 25 -7t8 -11q0 -6 -8 -8.5t-21 -2.5q-27 0 -41.5 2t-26 3.5t-30.5 1.5
q-25 0 -44.5 -1.5t-39 -3.5t-46.5 -2q-13 0 -21 2.5t-8 8.5q0 12 33 18q38 7 55.5 23t17.5 53v426q0 38 -3.5 57.5t-16 27.5t-41.5 11q-17 2 -25 7.5t-8 12.5q0 6 8 8.5t21 2.5h40.5t25.5 -0.5t32 -0.5q19 0 34 1.5t33.5 2.5t47.5 1q110 0 167.5 -41t57.5 -123
q0 -45 -18 -77.5t-45 -54.5t-55 -36q-4 -1 -3.5 -4.5t3.5 -8.5q31 -47 59.5 -89t62.5 -82t81 -83q26 -23 52 -34t61 -11q32 0 51 21t19 47q0 27 -18 46.5t-63 47.5q-34 21 -55 40t-30.5 39t-9.5 45q0 32 15 58t45 41.5t75 15.5q30 0 50 -6t30 -13q8 -11 13.5 -34.5
t5.5 -44.5q0 -7 -10 -7q-6 0 -11.5 2.5t-7.5 6.5q-13 33 -32.5 50.5t-48.5 17.5q-25 0 -44.5 -15t-19.5 -44q0 -23 14.5 -41t54.5 -41q58 -33 86.5 -61.5t28.5 -75.5q0 -40 -20 -69t-56 -44.5t-85 -15.5zM263 329q46 0 79.5 21t52 55t18.5 72q0 41 -10.5 75t-42 54.5
t-94.5 20.5q-32 0 -42 -20.5t-12 -72.5l-2 -170q0 -25 14 -30t39 -5z" />
  </g>

</svg>
