<?xml version="1.0" standalone="no"?>
<!DOCTYPE svg PUBLIC "-//W3C//DTD SVG 1.1//EN" "http://www.w3.org/Graphics/SVG/1.1/DTD/svg11.dtd" >
<svg xmlns="http://www.w3.org/2000/svg" xmlns:xlink="http://www.w3.org/1999/xlink" version="1.1" viewBox="-10 0 1066 1000">
  <g transform="matrix(1 0 0 -1 0 800)">
   <path fill="currentColor"
d="M381 -285q-19 0 -35 9.5t-16 31.5q0 18 8.5 31.5t24.5 13.5q11 0 21.5 -3t18.5 -3q6 0 10.5 2.5t8.5 8.5q11 18 25.5 45t30 61t29.5 72q3 9 3 23q0 8 -1 15.5t-3 13.5l-116 293q-7 18 -18.5 31.5t-26.5 17.5q-8 3 -15.5 7t-7.5 11q0 6 7.5 7.5t12.5 1.5q20 0 29.5 -1
t18 -2.5t25.5 -1.5q18 0 27 1.5t19 2.5t30 1q6 0 13 -2.5t7 -8.5q0 -7 -10.5 -13.5t-18.5 -8.5q-10 -3 -15 -10.5t-5 -21.5q0 -6 3 -14.5t5 -13.5l81 -200q2 -6 6 -6q3 0 5 6l69 183q3 7 5.5 18.5t2.5 18.5q0 19 -5.5 26.5t-14.5 11.5q-8 4 -18.5 10.5t-10.5 13.5
q0 6 7.5 8.5t12.5 2.5q14 0 28.5 -2.5t42.5 -2.5q19 0 27.5 1.5t14.5 2.5t17 1q5 0 12.5 -1.5t7.5 -7.5q0 -7 -7.5 -11t-15.5 -7q-15 -4 -32 -23.5t-27 -43.5l-136 -324q-1 -3 -10.5 -26t-23.5 -57t-30.5 -73t-31.5 -75q-9 -20 -26 -30.5t-39 -10.5zM237 -214q-10 0 -17 7
q-21 21 -45.5 60t-48.5 89t-43.5 106.5t-31 113t-11.5 107.5q0 64 17 128t44 121.5t57.5 103t57.5 72.5q5 5 12.5 8t14.5 3q5 0 13.5 -4.5t8.5 -11.5q0 -1 -3 -5t-6 -8.5t-4 -5.5q-30 -35 -60 -94t-49.5 -134.5t-19.5 -160.5q0 -64 11 -132.5t29 -132t40.5 -113t45.5 -76.5
q1 -1 4.5 -5t7 -8.5t3.5 -5.5q0 -10 -8.5 -16t-18.5 -6zM814 -212q10 0 17 7q21 21 45.5 60t48.5 89t43.5 106.5t31 113t11.5 107.5q0 64 -17 128t-44 121.5t-57.5 103t-57.5 72.5q-5 5 -12.5 8t-14.5 3q-5 0 -13.5 -4.5t-8.5 -11.5q0 -1 3 -5t6 -8.5t4 -5.5q30 -35 60 -94
t49.5 -134.5t19.5 -160.5q0 -64 -11 -132.5t-29 -132t-40.5 -113t-45.5 -76.5q-1 -1 -4.5 -5t-7 -8.5t-3.5 -5.5q0 -10 8.5 -16t18.5 -6z" />
  </g>

</svg>
