<?xml version="1.0" standalone="no"?>
<!DOCTYPE svg PUBLIC "-//W3C//DTD SVG 1.1//EN" "http://www.w3.org/Graphics/SVG/1.1/DTD/svg11.dtd" >
<svg xmlns="http://www.w3.org/2000/svg" xmlns:xlink="http://www.w3.org/1999/xlink" version="1.1" viewBox="-10 0 537 1000">
  <g transform="matrix(1 0 0 -1 0 800)">
   <path fill="currentColor"
d="M366 -19q-7 0 -7 8q0 10 2.5 29.5t2.5 32.5v3.5v2.5q-39 -38 -78.5 -54.5t-86.5 -16.5q-32 0 -58 13.5t-41 40t-15 65.5v203q0 22 -10 35t-33 22q-5 2 -9 5t-4 11q0 9 4.5 12t10.5 4q34 2 52.5 5.5t46.5 10.5q3 1 4.5 1h3.5q11 0 10 -14q-3 -23 -4.5 -38.5t-1.5 -38.5
v-195q0 -24 12 -44.5t31.5 -33.5t40.5 -13q26 0 45.5 3t38.5 17q11 8 28 26t17 49v183q0 21 -12.5 31.5t-28.5 14.5t-26 4q-9 0 -15 3.5t-6 13.5q0 9 6.5 12t14.5 3q31 1 51.5 2.5t37 5t34.5 8.5q2 1 5 1.5t5 0.5q13 0 13 -11q0 -1 -0.5 -3.5t-1.5 -5.5t-2.5 -17t-3 -29
t-1.5 -23v-231q0 -27 5.5 -38.5t12.5 -11.5q8 0 23.5 1.5t22.5 1.5q5 0 10 -2t5 -11q0 -8 -4 -10.5t-10 -3.5q-39 -5 -67 -15t-50 -19q-3 -1 -9 -3.5t-11 -2.5zM123 458q-7 0 -11.5 4t-4.5 11q0 4 11 18.5t26.5 32t31.5 30.5t25 13q17 0 27 -1.5t24 -3.5q17 -1 30 -2.5
t26 -1.5q11 0 21.5 6t17.5 13q11 11 18 19.5t10 8.5q8 0 13.5 -4.5t5.5 -12.5q0 -3 -5.5 -9t-16.5 -17q-12 -11 -24.5 -27.5t-22.5 -28.5q-6 -7 -16 -10.5t-13 -3.5q-6 0 -19 1t-29 3t-32.5 3t-30.5 1q-10 0 -20.5 -7t-18.5 -15q-7 -6 -13.5 -13t-9.5 -7z" />
  </g>

</svg>
