<?xml version="1.0" standalone="no"?>
<!DOCTYPE svg PUBLIC "-//W3C//DTD SVG 1.1//EN" "http://www.w3.org/Graphics/SVG/1.1/DTD/svg11.dtd" >
<svg xmlns="http://www.w3.org/2000/svg" xmlns:xlink="http://www.w3.org/1999/xlink" version="1.1" viewBox="-10 0 810 1000">
  <g transform="matrix(1 0 0 -1 0 800)">
   <path fill="currentColor"
d="M295 -15q-4 0 -12 12.5t-13 23.5l-168 349q-8 17 -21.5 29.5t-46.5 22.5q-9 3 -16.5 7.5t-7.5 11.5q0 6 7.5 9t12.5 3q20 0 33 -1t25.5 -2.5t30.5 -1.5q19 0 41 2.5t35 2.5q5 0 12.5 -3t7.5 -9q0 -7 -8 -12t-16 -7q-14 -2 -15.5 -11t3.5 -20t10 -21l132 -274q3 -7 5 -7
t6 7l52 101l-82 173q-7 14 -17.5 30.5t-25.5 21.5q-8 3 -16 7.5t-8 11.5q0 6 7.5 9t12.5 3t20 -1t30.5 -2.5t22.5 -1.5q12 0 33 2.5t28 2.5q5 0 13 -3t8 -9q0 -7 -8.5 -12t-16.5 -7q-8 -1 -11 -13.5t10 -38.5l46 -95l46 95q7 14 3 30t-17 22q-9 5 -16.5 8.5t-7.5 10.5
q0 6 7.5 9t12.5 3q11 0 28.5 -2.5t28.5 -2.5t32.5 2.5t32.5 2.5q5 0 12.5 -3t7.5 -9q0 -7 -7.5 -12t-16.5 -7q-11 -3 -32 -13.5t-35 -38.5l-66 -128l70 -148q3 -6 5 -5.5t4 5.5l147 276q9 17 6.5 31.5t-29.5 20.5q-10 2 -17 7t-7 12q0 6 7.5 9t12.5 3q11 0 31 -2.5t31 -2.5
q8 0 21.5 1.5t26.5 2.5t18 1t12.5 -3t7.5 -9q0 -7 -7.5 -12t-16.5 -7q-11 -3 -28.5 -13t-32.5 -39l-195 -370q-4 -10 -8.5 -12.5t-12.5 -2.5q-4 0 -8 5t-7 10l-76 160l-83 -160q-4 -9 -8 -12t-12 -3z" />
  </g>

</svg>
