<?xml version="1.0" standalone="no"?>
<!DOCTYPE svg PUBLIC "-//W3C//DTD SVG 1.1//EN" "http://www.w3.org/Graphics/SVG/1.1/DTD/svg11.dtd" >
<svg xmlns="http://www.w3.org/2000/svg" xmlns:xlink="http://www.w3.org/1999/xlink" version="1.1" viewBox="-10 0 516 1000">
  <g transform="matrix(1 0 0 -1 0 800)">
   <path fill="currentColor"
d="M248 -14q-51 0 -88.5 28t-62.5 74.5t-37 102.5t-12 111q0 57 12 115t37.5 106t65.5 77.5t95 29.5q51 0 88.5 -28t62.5 -74.5t37 -102t12 -109.5q0 -56 -12 -114t-37.5 -107t-65 -79t-95.5 -30zM265 12q40 0 64.5 40.5t35.5 105.5t11 140q0 56 -8.5 110t-26 98t-43 70
t-59.5 26q-40 0 -63.5 -39t-34 -103.5t-10.5 -139.5q0 -56 8.5 -111t25 -99.5t41.5 -71t59 -26.5z" />
  </g>

</svg>
