<?xml version="1.0" standalone="no"?>
<!DOCTYPE svg PUBLIC "-//W3C//DTD SVG 1.1//EN" "http://www.w3.org/Graphics/SVG/1.1/DTD/svg11.dtd" >
<svg xmlns="http://www.w3.org/2000/svg" xmlns:xlink="http://www.w3.org/1999/xlink" version="1.1" viewBox="-10 0 520 1000">
  <g transform="matrix(1 0 0 -1 0 800)">
   <path fill="currentColor"
d="M62 -2q-7 0 -14 4t-7 10q0 7 5 17t13 21.5t16 23.5l242 334q3 5 -0.5 6t-16.5 2q-31 2 -73 2h-73q-17 0 -40.5 -13.5t-31.5 -31.5q-3 -6 -12.5 -21.5t-17.5 -15.5t-10 4.5t-2 11.5t6 27.5t14 42t12 31.5q4 8 8.5 10t7.5 2q5 0 8.5 -2t8.5 -4q6 -3 15.5 -6t25.5 -3l119 -1
h46.5t43 0.5t39.5 1.5t35 1q5 0 8 -2t3 -8q0 -5 -2.5 -9.5t-8 -10.5t-13.5 -18l-250 -345q-11 -15 -8.5 -20t13 -5h23.5h170q31 0 52 20.5t31 42.5q2 3 6.5 13t11.5 10t8.5 -9.5t1.5 -14.5q-2 -20 -9.5 -44.5t-12.5 -41.5q-1 -4 -6.5 -8t-10.5 -4h-69t-77 1t-73.5 1.5
t-58.5 0.5q-26 0 -42 -0.5t-27.5 -1.5t-26.5 -1z" />
  </g>

</svg>
