<?xml version="1.0" standalone="no"?>
<!DOCTYPE svg PUBLIC "-//W3C//DTD SVG 1.1//EN" "http://www.w3.org/Graphics/SVG/1.1/DTD/svg11.dtd" >
<svg xmlns="http://www.w3.org/2000/svg" xmlns:xlink="http://www.w3.org/1999/xlink" version="1.1" viewBox="-10 0 588 1000">
  <g transform="matrix(1 0 0 -1 0 800)">
   <path fill="currentColor"
d="M42 0zM123 70v508l-81 19v51h483v-179h-61l-24 111h-131l-64 -7v-210h122l20 66h49v-203h-49l-20 69h-122v-220q28 -6 82 -6h123l24 116h60v-185h-492v51zM485 674zM297 681q-11 7 -23 17t-18 14l-105 80l34 48l138 -63l134 63l28 -40l-106 -87q-5 -4 -19 -16t-24 -17.5
t-19 -5.5t-20 7z" />
  </g>

</svg>
