<?xml version="1.0" standalone="no"?>
<!DOCTYPE svg PUBLIC "-//W3C//DTD SVG 1.1//EN" "http://www.w3.org/Graphics/SVG/1.1/DTD/svg11.dtd" >
<svg xmlns="http://www.w3.org/2000/svg" xmlns:xlink="http://www.w3.org/1999/xlink" version="1.1" viewBox="-10 0 738 1000">
  <g transform="matrix(1 0 0 -1 0 800)">
   <path fill="currentColor"
d="M42 0zM42 51l77 18v511l-66 13v55h189l273 -431l17 -35h5v397l-76 17v52h238v-52l-76 -17v-579h-112l-285 450l-18 34h-4v-415l76 -18v-51h-238v51zM405 861q12 25 22.5 36.5t24.5 11.5q18 0 37.5 -16.5t29.5 -45.5l-141 -154l-41 29z" />
  </g>

</svg>
