<?xml version="1.0" standalone="no"?>
<!DOCTYPE svg PUBLIC "-//W3C//DTD SVG 1.1//EN" "http://www.w3.org/Graphics/SVG/1.1/DTD/svg11.dtd" >
<svg xmlns="http://www.w3.org/2000/svg" xmlns:xlink="http://www.w3.org/1999/xlink" version="1.1" viewBox="-10 0 738 1000">
  <g transform="matrix(1 0 0 -1 0 800)">
   <path fill="currentColor"
d="M42 0zM42 51l77 18v511l-66 13v55h189l273 -431l17 -35h5v397l-76 17v52h238v-52l-76 -17v-579h-112l-285 450l-18 34h-4v-415l76 -18v-51h-238v51zM532 674zM344 681q-11 7 -23 17t-18 14l-105 80l34 48l138 -63l134 63l28 -40l-106 -87q-5 -4 -19 -16t-24 -17.5
t-19 -5.5t-20 7z" />
  </g>

</svg>
