<?xml version="1.0" standalone="no"?>
<!DOCTYPE svg PUBLIC "-//W3C//DTD SVG 1.1//EN" "http://www.w3.org/Graphics/SVG/1.1/DTD/svg11.dtd" >
<svg xmlns="http://www.w3.org/2000/svg" xmlns:xlink="http://www.w3.org/1999/xlink" version="1.1" viewBox="-10 0 711 1000">
  <g transform="matrix(1 0 0 -1 0 800)">
   <path fill="currentColor"
d="M16 0zM198 13.5q-55 29.5 -78 93t-23 171.5v301l-81 17v52h280v-52l-77 -17v-301q0 -89 14 -134.5t47 -63t96 -17.5q54 0 84.5 20.5t43.5 66.5t13 128v300l-80 17v53h248v-53l-81 -17v-300q0 -105 -22.5 -168.5t-77.5 -94.5t-151 -31q-100 0 -155 29.5zM532 692z
M183.5 710.5q-17.5 18.5 -17.5 48.5q0 29 20.5 50.5t49.5 21.5q28 0 46 -18t18 -48t-20 -51.5t-51 -21.5q-28 0 -45.5 18.5zM416.5 710.5q-17.5 18.5 -17.5 48.5q0 29 20 50.5t49 21.5q28 0 46 -18t18 -48t-19.5 -51.5t-50.5 -21.5q-28 0 -45.5 18.5z" />
  </g>

</svg>
