<?xml version="1.0" standalone="no"?>
<!DOCTYPE svg PUBLIC "-//W3C//DTD SVG 1.1//EN" "http://www.w3.org/Graphics/SVG/1.1/DTD/svg11.dtd" >
<svg xmlns="http://www.w3.org/2000/svg" xmlns:xlink="http://www.w3.org/1999/xlink" version="1.1" viewBox="-10 0 765 1000">
  <g transform="matrix(1 0 0 -1 0 800)">
   <path fill="currentColor"
d="M70.5 25.5q-35.5 36.5 -35.5 92.5q0 138 207 152l65 5v75q0 40 -18.5 59.5t-64.5 19.5q-37 0 -51 -6l-17 -89q-18 -9 -45 -9q-29 0 -44 12t-15 42q0 41 35.5 70t85 43.5t90.5 14.5q93 0 133 -49q55 49 136 49q103 0 145.5 -60t42.5 -156q0 -36 -9.5 -49.5t-31.5 -14.5
l-254 -3q1 -74 28 -113.5t101 -39.5q43 0 80 6.5t56 14.5l16 -39q-26 -25 -73 -44.5t-100 -19.5q-120 0 -172 62q-26 -24 -71 -43t-111 -19q-73 0 -108.5 36.5zM606 329q0 57 -16 79t-63 22q-52 0 -73.5 -39t-23.5 -108l173 12q3 18 3 34zM307 82v134q-86 -4 -118 -24.5
t-32 -60.5q0 -68 78 -68q36 0 72 19z" />
  </g>

</svg>
