<?xml version="1.0" standalone="no"?>
<!DOCTYPE svg PUBLIC "-//W3C//DTD SVG 1.1//EN" "http://www.w3.org/Graphics/SVG/1.1/DTD/svg11.dtd" >
<svg xmlns="http://www.w3.org/2000/svg" xmlns:xlink="http://www.w3.org/1999/xlink" version="1.1" viewBox="-10 0 772 1000">
  <g transform="matrix(1 0 0 -1 0 800)">
   <path fill="currentColor"
d="M186.5 -65.5q-80.5 45.5 -122 127.5t-41.5 190q0 100 50 187t139.5 139t203.5 52q102 0 177.5 -41.5t115.5 -113.5t40 -163q0 -81 -25 -140t-71 -90.5t-106 -31.5q-42 0 -72 17.5t-41 48.5q-39 -30 -65 -42.5t-59 -12.5q-47 0 -74 34.5t-27 104.5q0 53 21 110t63 96.5
t101 39.5q23 0 47 -5.5t39 -12.5l29 28h51l-45 -267q-3 -16 -3 -26q0 -18 9.5 -27.5t32.5 -9.5q41 0 69 41t28 125q0 137 -69.5 199t-174.5 62q-73 0 -137 -30t-104.5 -96.5t-40.5 -169.5q0 -144 72 -220t200 -76q54 0 99 11.5t76 25.5l20 -41q0 -3 -29 -20.5t-76.5 -32.5
t-107.5 -15q-112 0 -192.5 45.5zM387.5 150.5q19.5 9.5 32.5 21.5l30 183q-9 7 -28.5 13t-42.5 6q-31 0 -41 -10q-12 -13 -23.5 -55t-11.5 -92q0 -41 9.5 -58.5t35.5 -17.5q20 0 39.5 9.5z" />
  </g>

</svg>
