<?xml version="1.0" standalone="no"?>
<!DOCTYPE svg PUBLIC "-//W3C//DTD SVG 1.1//EN" "http://www.w3.org/Graphics/SVG/1.1/DTD/svg11.dtd" >
<svg xmlns="http://www.w3.org/2000/svg" xmlns:xlink="http://www.w3.org/1999/xlink" version="1.1" viewBox="-10 0 487 1000">
  <g transform="matrix(1 0 0 -1 0 800)">
   <path fill="currentColor"
d="M25 0zM25 236q0 83 29 144t82 94t121 33q98 0 141.5 -57t43.5 -137q0 -51 -10.5 -68.5t-36.5 -17.5h-247q0 -75 32.5 -115.5t108.5 -40.5q40 0 74 7.5t51 16.5l18 -37q-27 -27 -74.5 -48t-100.5 -21q-232 0 -232 247zM325 328q0 56 -16 80.5t-62 24.5q-53 0 -75 -38
t-24 -110l174 8q3 18 3 35zM414 551zM173.5 572q-35.5 21 -55.5 53t-25 65l66 24q6 -32 33 -57.5t73 -25.5q45 0 74 26t36 58l39 -14q-4 -35 -22.5 -69.5t-52.5 -57.5t-81 -23q-49 0 -84.5 21z" />
  </g>

</svg>
