<?xml version="1.0" standalone="no"?>
<!DOCTYPE svg PUBLIC "-//W3C//DTD SVG 1.1//EN" "http://www.w3.org/Graphics/SVG/1.1/DTD/svg11.dtd" >
<svg xmlns="http://www.w3.org/2000/svg" xmlns:xlink="http://www.w3.org/1999/xlink" version="1.1" viewBox="-10 0 223 1000">
  <g transform="matrix(1 0 0 -1 0 800)">
   <path fill="currentColor"
d="M53 677.5q17 4.5 41 4.5q39 0 51 -13t12 -38q0 -39 -3 -95.5t-7 -125.5q-9 -144 -14 -250h-70l-34 507q7 6 24 10.5zM50 -3q-18 19 -18 49t20.5 51.5t50.5 21.5q28 0 46 -18t18 -48q0 -31 -19.5 -53t-51.5 -22q-28 0 -46 19z" />
  </g>

</svg>
