<?xml version="1.0" standalone="no"?>
<!DOCTYPE svg PUBLIC "-//W3C//DTD SVG 1.1//EN" "http://www.w3.org/Graphics/SVG/1.1/DTD/svg11.dtd" >
<svg xmlns="http://www.w3.org/2000/svg" xmlns:xlink="http://www.w3.org/1999/xlink" version="1.1" viewBox="-10 0 595 1000">
  <g transform="matrix(1 0 0 -1 0 800)">
   <path fill="currentColor"
d="M23 0zM23 0zM24 50l79 14v346l-80 15v52l162 25l32 -13v-425l73 -14v-50h-266v50zM221 564zM94.5 584.5q-19.5 20.5 -19.5 52.5t22 55.5t54 23.5q31 0 50.5 -19.5t19.5 -52.5t-21 -56.5t-56 -23.5q-30 0 -49.5 20.5zM305 0zM340.5 -163q-27.5 5 -44.5 11v46l104 24v492
l-81 15v52l163 25l32 -13v-569q0 -41 -29.5 -64.5t-87.5 -23.5q-29 0 -56.5 5zM518 564zM391.5 584.5q-19.5 20.5 -19.5 52.5t22 55.5t54 23.5q31 0 50.5 -19.5t19.5 -52.5t-21 -56.5t-56 -23.5q-30 0 -49.5 20.5z" />
  </g>

</svg>
