<?xml version="1.0" standalone="no"?>
<!DOCTYPE svg PUBLIC "-//W3C//DTD SVG 1.1//EN" "http://www.w3.org/Graphics/SVG/1.1/DTD/svg11.dtd" >
<svg xmlns="http://www.w3.org/2000/svg" xmlns:xlink="http://www.w3.org/1999/xlink" version="1.1" viewBox="-10 0 807 1000">
  <g transform="matrix(1 0 0 -1 0 800)">
   <path fill="currentColor"
d="M559 694l65 -45l-475 -685l-65 45l202 292h-261v54l88 7v228h-92v55l117 10h64v-293l88 -7v-49zM747 153.5q19 -21.5 19 -55.5q0 -27 -18.5 -51t-54.5 -38.5t-88 -14.5q-73 0 -111 23t-38 62q0 28 21 51t54 39q-69 29 -69 87q0 46 43 74.5t109 28.5q64 0 102 -23.5
t38 -61.5q0 -30 -16.5 -49t-46.5 -32q37 -18 56 -39.5zM559 262q0 -15 15 -23.5t48 -18.5l23 -8q18 14 18 41q0 23 -13 33.5t-41 10.5q-50 0 -50 -35zM670 97q0 16 -20.5 26.5t-59.5 22.5l-16 4q-23 -19 -23 -46q0 -52 61 -52q58 0 58 45z" />
  </g>

</svg>
