<?xml version="1.0" standalone="no"?>
<!DOCTYPE svg PUBLIC "-//W3C//DTD SVG 1.1//EN" "http://www.w3.org/Graphics/SVG/1.1/DTD/svg11.dtd" >
<svg xmlns="http://www.w3.org/2000/svg" xmlns:xlink="http://www.w3.org/1999/xlink" version="1.1" viewBox="-10 0 528 1000">
  <g transform="matrix(1 0 0 -1 0 800)">
   <path fill="currentColor"
d="M467.5 394.5q24.5 -55.5 24.5 -131.5q0 -120 -60 -197.5t-183 -77.5q-38 0 -66 7l-33 -75l-63 27l32 73q-94 58 -94 220q0 72 27 133t82.5 98t136.5 37q32 0 59 -6l31 70l61 -27l-29 -66q50 -29 74.5 -84.5zM164 122l135 309q-18 5 -38 5q-47 0 -71.5 -20t-33 -59.5
t-8.5 -108.5q0 -86 16 -126zM348 105.5q21 45.5 21 142.5q0 92 -18 134l-136 -314q22 -8 52 -8q60 0 81 45.5z" />
  </g>

</svg>
