<?xml version="1.0" standalone="no"?>
<!DOCTYPE svg PUBLIC "-//W3C//DTD SVG 1.1//EN" "http://www.w3.org/Graphics/SVG/1.1/DTD/svg11.dtd" >
<svg xmlns="http://www.w3.org/2000/svg" xmlns:xlink="http://www.w3.org/1999/xlink" version="1.1" viewBox="-10 0 547 1000">
  <g transform="matrix(1 0 0 -1 0 800)">
   <path fill="currentColor"
d="M343 -99v121l8 18l-4 4q-22 -22 -54 -34.5t-68 -12.5q-98 0 -149 56.5t-51 166.5q0 85 27.5 150t77.5 101t115 36q31 0 60.5 -11t47.5 -29h9l42 30h53v-598l67 -14v-50h-274v50zM343 95v322q-42 14 -83 14q-58 0 -85 -45t-27 -143q0 -88 27 -130t83 -42q49 0 85 24z" />
  </g>

</svg>
