<?xml version="1.0" standalone="no"?>
<!DOCTYPE svg PUBLIC "-//W3C//DTD SVG 1.1//EN" "http://www.w3.org/Graphics/SVG/1.1/DTD/svg11.dtd" >
<svg xmlns="http://www.w3.org/2000/svg" xmlns:xlink="http://www.w3.org/1999/xlink" version="1.1" viewBox="-10 0 358 1000">
  <g transform="matrix(1 0 0 -1 0 800)">
   <path fill="currentColor"
d="M61 2q0 39 -31 68q23 45 66 45q30 0 48.5 -20t18.5 -49q0 -46 -36 -99t-66 -83l-34 15q34 80 34 123zM222 2q0 39 -31 68q23 45 66 45q30 0 48 -20t18 -49q0 -46 -35.5 -99t-65.5 -83l-34 15q34 80 34 123z" />
  </g>

</svg>
