<?xml version="1.0" standalone="no"?>
<!DOCTYPE svg PUBLIC "-//W3C//DTD SVG 1.1//EN" "http://www.w3.org/Graphics/SVG/1.1/DTD/svg11.dtd" >
<svg xmlns="http://www.w3.org/2000/svg" xmlns:xlink="http://www.w3.org/1999/xlink" version="1.1" viewBox="-10 0 458 1000">
  <g transform="matrix(1 0 0 -1 0 800)">
   <path fill="currentColor"
d="M112.5 0q-49.5 12 -67.5 23l9 137h55l20 -80q38 -26 84 -26q52 0 71.5 18t19.5 57q0 23 -14 37t-34.5 22t-57.5 18q-49 13 -80 26.5t-53 43t-22 79.5q0 75 53 113.5t142 38.5q43 0 87.5 -7.5t64.5 -14.5l-11 -137h-55l-18 74q-13 5 -33.5 9.5t-40.5 4.5q-49 0 -68 -15
t-19 -44t23.5 -42.5t75.5 -27.5q50 -14 82.5 -28.5t56 -46.5t23.5 -85q0 -84 -55 -121.5t-138 -37.5q-51 0 -100.5 12z" />
  </g>

</svg>
