<?xml version="1.0" standalone="no"?>
<!DOCTYPE svg PUBLIC "-//W3C//DTD SVG 1.1//EN" "http://www.w3.org/Graphics/SVG/1.1/DTD/svg11.dtd" >
<svg xmlns="http://www.w3.org/2000/svg" xmlns:xlink="http://www.w3.org/1999/xlink" version="1.1" viewBox="-466 0 475 1000">
  <g transform="matrix(1 0 0 -1 0 800)">
   <path fill="currentColor"
d="M-1 674zM-1 813zM-98 956q13 8 26 15.5t22 7.5q24 0 36.5 -19.5t12.5 -50.5q0 -6 -2 -22l-210 -74l-24 44zM-124 674zM-349 801q29 24 41 31.5t20 7.5q9 0 19.5 -7t22.5 -16.5t18 -14.5l104 -82l-31 -46l-139 63l-136 -63l-26 39z" />
  </g>

</svg>
