<?xml version="1.0" standalone="no"?>
<!DOCTYPE svg PUBLIC "-//W3C//DTD SVG 1.1//EN" "http://www.w3.org/Graphics/SVG/1.1/DTD/svg11.dtd" >
<svg xmlns="http://www.w3.org/2000/svg" xmlns:xlink="http://www.w3.org/1999/xlink" version="1.1" viewBox="-10 0 883 1000">
  <g transform="matrix(1 0 0 -1 0 800)">
   <path fill="currentColor"
d="M23 0zM102 64v346l-79 15v52l165 25l20 -44h4q33 22 76.5 36t77.5 14q68 0 103 -35.5t35 -105.5v-303l76 -14v-50h-263v50l73 14v283q0 44 -19.5 61.5t-68.5 17.5q-45 0 -86 -10v-352l73 -14v-50h-266v50zM593 0zM628.5 -163q-27.5 5 -44.5 11v46l104 24v492l-81 15v52
l163 25l32 -13v-569q0 -41 -29.5 -64.5t-87.5 -23.5q-29 0 -56.5 5zM806 564zM679.5 584.5q-19.5 20.5 -19.5 52.5t22 55.5t54 23.5q31 0 50.5 -19.5t19.5 -52.5t-21 -56.5t-56 -23.5q-30 0 -49.5 20.5z" />
  </g>

</svg>
