<?xml version="1.0" standalone="no"?>
<!DOCTYPE svg PUBLIC "-//W3C//DTD SVG 1.1//EN" "http://www.w3.org/Graphics/SVG/1.1/DTD/svg11.dtd" >
<svg xmlns="http://www.w3.org/2000/svg" xmlns:xlink="http://www.w3.org/1999/xlink" version="1.1" viewBox="-424 0 434 1000">
  <g transform="matrix(1 0 0 -1 0 800)">
   <path fill="currentColor"
d="M0 674zM-155 824q0 10 9 18t30 19q29 14 29 32q0 11 -10 16t-32 5q-28 0 -58 -8q-15 20 -15 37q0 16 16 24.5t56 8.5q62 0 96 -19.5t34 -56.5q0 -41 -52 -64q-21 -8 -27.5 -13.5t-4.5 -17.5l-62 -5q-9 15 -9 24zM-82 674zM-307 801q29 24 41 31.5t20 7.5q9 0 19.5 -7
t22.5 -16.5t18 -14.5l104 -82l-31 -46l-139 63l-136 -63l-26 39z" />
  </g>

</svg>
