<?xml version="1.0" standalone="no"?>
<!DOCTYPE svg PUBLIC "-//W3C//DTD SVG 1.1//EN" "http://www.w3.org/Graphics/SVG/1.1/DTD/svg11.dtd" >
<svg xmlns="http://www.w3.org/2000/svg" xmlns:xlink="http://www.w3.org/1999/xlink" version="1.1" viewBox="-10 0 656 1000">
  <g transform="matrix(1 0 0 -1 0 800)">
   <path fill="currentColor"
d="M42 0zM123 69v510l-81 17v52h284v-52l-81 -17v-222h21l174 213v15l-52 12v51h223v-52l-65 -16l-183 -223l198 -287l75 -18v-52h-129q-24 0 -38 8.5t-28 30.5l-176 260h-20v-230l81 -17v-52h-284v52zM396 -46zM312 -136q0 41 -25 63q24 27 55 27q27 0 40.5 -16.5
t13.5 -39.5q0 -53 -48 -101h-54q18 33 18 67z" />
  </g>

</svg>
