<?xml version="1.0" standalone="no"?>
<!DOCTYPE svg PUBLIC "-//W3C//DTD SVG 1.1//EN" "http://www.w3.org/Graphics/SVG/1.1/DTD/svg11.dtd" >
<svg xmlns="http://www.w3.org/2000/svg" xmlns:xlink="http://www.w3.org/1999/xlink" version="1.1" viewBox="-18 0 676 1000">
  <g transform="matrix(1 0 0 -1 0 800)">
   <path fill="currentColor"
d="M0 0zM-8 51l64 15l209 588h94l223 -586l66 -16v-52h-282v52l86 15l-40 115h-224l-39 -116l82 -14v-52h-239v51zM388 254l-76 221l-9 38h-8l-8 -38l-74 -221h175zM373 -64zM373 -64zM373 -216zM246.5 -195.5q-19.5 20.5 -19.5 52.5t22 55.5t54 23.5q31 0 50.5 -19.5
t19.5 -52.5t-21 -56.5t-56 -23.5q-30 0 -49.5 20.5zM480 695zM233 711q-37 16 -59.5 40t-30.5 49l70 40q10 -24 39 -44t68 -20q42 0 74 18.5t46 41.5l40 -23q-16 -45 -59 -81.5t-102 -36.5q-49 0 -86 16z" />
  </g>

</svg>
