<?xml version="1.0" standalone="no"?>
<!DOCTYPE svg PUBLIC "-//W3C//DTD SVG 1.1//EN" "http://www.w3.org/Graphics/SVG/1.1/DTD/svg11.dtd" >
<svg xmlns="http://www.w3.org/2000/svg" xmlns:xlink="http://www.w3.org/1999/xlink" version="1.1" viewBox="-18 0 676 1000">
  <g transform="matrix(1 0 0 -1 0 800)">
   <path fill="currentColor"
d="M0 0zM-8 51l64 15l209 588h94l223 -586l66 -16v-52h-282v52l86 15l-40 115h-224l-39 -116l82 -14v-52h-239v51zM388 254l-76 221l-9 38h-8l-8 -38l-74 -221h175zM519 674zM519 813zM283 909q0 30 13 50t36 20q8 0 19.5 -5.5t18.5 -10.5t11 -7l138 -99l-24 -44l-210 74
q-2 14 -2 22zM478 674zM253 801q29 24 41 31.5t20 7.5q9 0 19.5 -7t22.5 -16.5t18 -14.5l104 -82l-31 -46l-139 63l-136 -63l-26 39z" />
  </g>

</svg>
