<?xml version="1.0" standalone="no"?>
<!DOCTYPE svg PUBLIC "-//W3C//DTD SVG 1.1//EN" "http://www.w3.org/Graphics/SVG/1.1/DTD/svg11.dtd" >
<svg xmlns="http://www.w3.org/2000/svg" xmlns:xlink="http://www.w3.org/1999/xlink" version="1.1" viewBox="-10 0 774 1000">
  <g transform="matrix(1 0 0 -1 0 800)">
   <path fill="currentColor"
d="M16 0zM198 13.5q-55 29.5 -78 93t-23 171.5v301l-81 17v52h280v-52l-77 -17v-301q0 -89 14 -134.5t47 -63t96 -17.5q54 0 84.5 20.5t43.5 66.5t13 128v300l-80 17v53h168q41 0 54 7.5t13 31.5q0 11 -4 17.5t-13 13.5v15l67 45q14 -10 23 -22.5t9 -38.5q0 -39 -33.5 -77
t-116.5 -62v-300q0 -105 -22.5 -168.5t-77.5 -94.5t-151 -31q-100 0 -155 29.5zM308 697q0 10 9 18t30 19q29 14 29 32q0 11 -10 16t-32 5q-28 0 -58 -8q-15 20 -15 37q0 16 16 24.5t56 8.5q62 0 96 -19.5t34 -56.5q0 -41 -52 -64q-21 -8 -27.5 -13.5t-4.5 -17.5l-62 -5
q-9 15 -9 24z" />
  </g>

</svg>
