<?xml version="1.0" standalone="no"?>
<!DOCTYPE svg PUBLIC "-//W3C//DTD SVG 1.1//EN" "http://www.w3.org/Graphics/SVG/1.1/DTD/svg11.dtd" >
<svg xmlns="http://www.w3.org/2000/svg" xmlns:xlink="http://www.w3.org/1999/xlink" version="1.1" viewBox="-10 0 581 1000">
  <g transform="matrix(1 0 0 -1 0 800)">
   <path fill="currentColor"
d="M245 240v-57h135v-65h-135v-47l91 -19v-52h-294v51l81 19v48h-80v65h80v395l-81 19v51h267q126 0 187.5 -42t61.5 -142q0 -108 -65.5 -166t-169.5 -58h-78zM245 574v-267h23q60 0 95 14t50.5 46t15.5 88q0 124 -122 124q-29 0 -62 -5z" />
  </g>

</svg>
