<?xml version="1.0" standalone="no"?>
<!DOCTYPE svg PUBLIC "-//W3C//DTD SVG 1.1//EN" "http://www.w3.org/Graphics/SVG/1.1/DTD/svg11.dtd" >
<svg xmlns="http://www.w3.org/2000/svg" xmlns:xlink="http://www.w3.org/1999/xlink" version="1.1" viewBox="-10 0 595 1000">
  <g transform="matrix(1 0 0 -1 0 800)">
   <path fill="currentColor"
d="M7 0zM88 129v285l-81 16v50l161 25l34 -14v-323q0 -58 20 -78.5t75 -20.5q20 0 43.5 5t38.5 13v327l-81 16v50l161 25l35 -14v-409l76 -16v-51l-162 -22l-24 47h-6q-25 -22 -64.5 -36.5t-77.5 -14.5q-148 0 -148 140zM472 567zM326 574q-25 7 -32 9l-89 28l-73 -36
l-30 28l35 57q12 19 30 28.5t39 9.5q22 0 76 -15l87 -28l73 36l30 -28l-35 -57q-24 -39 -67 -39q-19 0 -44 7z" />
  </g>

</svg>
