<?xml version="1.0" standalone="no"?>
<!DOCTYPE svg PUBLIC "-//W3C//DTD SVG 1.1//EN" "http://www.w3.org/Graphics/SVG/1.1/DTD/svg11.dtd" >
<svg xmlns="http://www.w3.org/2000/svg" xmlns:xlink="http://www.w3.org/1999/xlink" version="1.1" viewBox="-32 0 842 1000">
  <g transform="matrix(1 0 0 -1 0 800)">
   <path fill="currentColor"
d="M0 0zM37 430l-59 14v51h249v-54l-68 -10l1 -9l81 -266l10 -43l8 46l91 336h112l96 -339l9 -43l8 46l81 261l2 11l-73 10v54h215v-51l-63 -15l-141 -435h-98l-109 360l-103 -360h-98zM512 535zM405 690q14 17 25.5 26t23.5 10q19 0 37 -21.5t21 -56.5l-175 -113l-33 38z
" />
  </g>

</svg>
