<?xml version="1.0" standalone="no"?>
<!DOCTYPE svg PUBLIC "-//W3C//DTD SVG 1.1//EN" "http://www.w3.org/Graphics/SVG/1.1/DTD/svg11.dtd" >
<svg xmlns="http://www.w3.org/2000/svg" xmlns:xlink="http://www.w3.org/1999/xlink" version="1.1" viewBox="-32 0 842 1000">
  <g transform="matrix(1 0 0 -1 0 800)">
   <path fill="currentColor"
d="M0 0zM37 430l-59 14v51h249v-54l-68 -10l1 -9l81 -266l10 -43l8 46l91 336h112l96 -339l9 -43l8 46l81 261l2 11l-73 10v54h215v-51l-63 -15l-141 -435h-98l-109 360l-103 -360h-98zM492 535zM305 704.5q18 21.5 37 21.5q12 0 23 -9t27 -27l100 -117l-33 -38l-175 113
q3 35 21 56.5z" />
  </g>

</svg>
