<?xml version="1.0" standalone="no"?>
<!DOCTYPE svg PUBLIC "-//W3C//DTD SVG 1.1//EN" "http://www.w3.org/Graphics/SVG/1.1/DTD/svg11.dtd" >
<svg xmlns="http://www.w3.org/2000/svg" xmlns:xlink="http://www.w3.org/1999/xlink" version="1.1" viewBox="-32 0 561 1000">
  <g transform="matrix(1 0 0 -1 0 800)">
   <path fill="currentColor"
d="M0 0zM519 495v-53l-62 -12l-199 -534q-13 -36 -42 -51t-82 -15q-43 0 -81 9v49l130 33l31 79h-2l-166 430l-68 14v51h259v-54l-67 -9l3 -13l91 -256l3 -27l12 37l89 246l3 12l-72 9v55h220zM452 566zM116.5 585q-17.5 19 -17.5 48t20.5 50.5t49.5 21.5q28 0 46 -18
t18 -47q0 -31 -20 -52.5t-51 -21.5q-28 0 -45.5 19zM336.5 585q-17.5 19 -17.5 48t20.5 50.5t49.5 21.5q28 0 45.5 -17.5t17.5 -47.5q0 -31 -19.5 -52.5t-50.5 -21.5q-28 0 -45.5 19z" />
  </g>

</svg>
