<?xml version="1.0" standalone="no"?>
<!DOCTYPE svg PUBLIC "-//W3C//DTD SVG 1.1//EN" "http://www.w3.org/Graphics/SVG/1.1/DTD/svg11.dtd" >
<svg xmlns="http://www.w3.org/2000/svg" xmlns:xlink="http://www.w3.org/1999/xlink" version="1.1" viewBox="-10 0 614 1000">
  <g transform="matrix(1 0 0 -1 0 800)">
   <path fill="currentColor"
d="M501.5 577q55.5 -87 55.5 -251q0 -160 -64 -250t-199 -90q-134 0 -190.5 88t-56.5 252q0 159 65 248.5t200 89.5q134 0 189.5 -87zM201.5 524.5q-27.5 -64.5 -27.5 -198.5q0 -148 32 -209l126 469q-13 3 -30 3q-73 0 -100.5 -64.5zM401.5 125q27.5 66 27.5 201
q0 74 -7.5 125.5t-25.5 83.5l-127 -472q13 -4 33 -4q72 0 99.5 66z" />
  </g>

</svg>
