<?xml version="1.0" standalone="no"?>
<!DOCTYPE svg PUBLIC "-//W3C//DTD SVG 1.1//EN" "http://www.w3.org/Graphics/SVG/1.1/DTD/svg11.dtd" >
<svg xmlns="http://www.w3.org/2000/svg" xmlns:xlink="http://www.w3.org/1999/xlink" version="1.1" viewBox="-23 0 426 1000">
  <g transform="matrix(1 0 0 -1 0 800)">
   <path fill="currentColor"
d="M13 754h354v-25h-110v-704h110v-25h-354v25h110v704h-110v25zM350 792l-135 36q-50 14 -50 53q0 20 11.5 31.5t32.5 11.5q5 0 10 -1.5t12 -6t17 -12t27 -20.5l118 -92h-43zM172 792l-135 36q-50 14 -50 53q0 20 11.5 31.5t32.5 11.5q5 0 10 -1.5t12 -6t17 -12t27 -20.5
l118 -92h-43z" />
  </g>

</svg>
