<?xml version="1.0" standalone="no"?>
<!DOCTYPE svg PUBLIC "-//W3C//DTD SVG 1.1//EN" "http://www.w3.org/Graphics/SVG/1.1/DTD/svg11.dtd" >
<svg xmlns="http://www.w3.org/2000/svg" xmlns:xlink="http://www.w3.org/1999/xlink" version="1.1" viewBox="-10 0 792 1000">
  <g transform="matrix(1 0 0 -1 0 800)">
   <path fill="currentColor"
d="M685 -256q-102 0 -172.5 12.5t-115 42.5t-64.5 78.5t-21 120.5q-58 15 -107 51t-84.5 86.5t-55.5 112.5t-20 129q0 78 27 148.5t73.5 124t109.5 85t136 31.5t136 -31.5t110 -85t74 -124t27 -148.5q0 -67 -20 -128.5t-55.5 -112t-84 -86.5t-106.5 -51q-2 -13 -2 -25v-23
q0 -55 14.5 -89.5t42 -54t67.5 -26.5t91 -7v-30zM391 18q51 0 86.5 16t58 56.5t32.5 110.5t10 177t-10.5 176.5t-33 110t-58 56t-86.5 15.5t-86.5 -16t-57 -56.5t-31.5 -110t-10 -176.5t10 -176.5t32 -110t57.5 -56.5t86.5 -16z" />
  </g>

</svg>
