<?xml version="1.0" standalone="no"?>
<!DOCTYPE svg PUBLIC "-//W3C//DTD SVG 1.1//EN" "http://www.w3.org/Graphics/SVG/1.1/DTD/svg11.dtd" >
<svg xmlns="http://www.w3.org/2000/svg" xmlns:xlink="http://www.w3.org/1999/xlink" version="1.1" viewBox="-10 0 453 1000">
  <g transform="matrix(1 0 0 -1 0 800)">
   <path fill="currentColor"
d="M30 633q0 17 11 31.5t35 14.5q19 0 31.5 -10t25 -25.5t28.5 -33.5t42 -34l3 2q-2 24 -7 42.5t-10.5 33.5t-9.5 28.5t-4 28.5q0 23 11.5 37.5t34.5 14.5q25 0 36.5 -16t11.5 -38q0 -14 -4 -27t-9.5 -28t-10.5 -33.5t-7 -42.5l3 -2q24 15 39.5 33t28.5 33.5t26 26t31 10.5
q25 0 36 -16.5t11 -31.5q0 -14 -8 -24.5t-21 -18.5q-12 -7 -25.5 -10t-28.5 -6t-33 -7t-39 -14v-4q21 -10 39 -14t33 -7t28.5 -6t25.5 -10q13 -8 21 -18.5t8 -24.5q0 -15 -11 -31.5t-36 -16.5q-18 0 -31 10.5t-26 26t-28.5 33.5t-39.5 33l-3 -2q2 -24 7 -42t10.5 -33
t9.5 -28t4 -27q0 -22 -11.5 -38t-36.5 -16q-23 0 -34.5 14.5t-11.5 37.5q0 14 4 27.5t9 28.5t10.5 33.5t7.5 42.5l-3 2q-26 -16 -41.5 -34t-28.5 -33.5t-25.5 -25.5t-31.5 -10q-24 0 -35 14.5t-11 31.5q0 27 29 43q14 8 27.5 11.5t28.5 6t32.5 7t39.5 14.5v4
q-22 10 -39.5 14.5t-32.5 7t-28.5 6t-27.5 11.5q-29 16 -29 43z" />
  </g>

</svg>
