<?xml version="1.0" standalone="no"?>
<!DOCTYPE svg PUBLIC "-//W3C//DTD SVG 1.1//EN" "http://www.w3.org/Graphics/SVG/1.1/DTD/svg11.dtd" >
<svg xmlns="http://www.w3.org/2000/svg" xmlns:xlink="http://www.w3.org/1999/xlink" version="1.1" viewBox="-10 0 339 1000">
  <g transform="matrix(1 0 0 -1 0 800)">
   <path fill="currentColor"
d="M54 340q19 0 32 6t20.5 20t10.5 37.5t3 58.5v143q0 57 7 93t28 55.5t60 26.5t104 7v-25q-27 0 -44 -6t-27.5 -21t-14.5 -40t-4 -63v-173q0 -31 -5 -53t-17 -37t-31.5 -23.5t-48.5 -11.5v-4q29 -3 48.5 -11.5t31.5 -23.5t17 -37.5t5 -53.5v-172q0 -38 4 -63t14.5 -40
t27.5 -21t44 -6v-25q-65 0 -104 7t-60 26.5t-28 55.5t-7 93v142q0 35 -3 58.5t-10.5 37.5t-20.5 20t-32 6v17z" />
  </g>

</svg>
