<?xml version="1.0" standalone="no"?>
<!DOCTYPE svg PUBLIC "-//W3C//DTD SVG 1.1//EN" "http://www.w3.org/Graphics/SVG/1.1/DTD/svg11.dtd" >
<svg xmlns="http://www.w3.org/2000/svg" xmlns:xlink="http://www.w3.org/1999/xlink" version="1.1" viewBox="-10 0 566 1000">
  <g transform="matrix(1 0 0 -1 0 800)">
   <path fill="currentColor"
d="M193 -9q-78 10 -124 49t-46 95q0 35 19 58t55 23q29 0 44.5 -14.5t15.5 -39.5q0 -22 -10.5 -33.5t-23 -18t-23 -12.5t-10.5 -16q0 -16 26.5 -34.5t76.5 -26.5v313q-33 12 -60 28.5t-45.5 39t-29 52t-10.5 67.5q0 80 41 129t104 69v82h29v-74q30 6 63 6h10t10 -1v69h29
v-72q65 -11 102 -47t37 -87q0 -35 -16.5 -54t-42.5 -19q-19 0 -35.5 11t-16.5 37q0 19 8.5 28t18.5 15t18.5 11.5t8.5 17.5q0 17 -21.5 33t-60.5 23v-286q36 -13 66 -29t52 -38.5t34.5 -53.5t12.5 -74q0 -81 -43 -139t-122 -79v-112h-29v105q-15 -2 -30 -3.5t-32 -1.5h-10.5
t-10.5 1v-101h-29v104zM245 17q16 0 31 1.5t29 3.5v280q-20 7 -41 11.5t-42 11.5v-308h23zM305 702q-5 0 -11 0.5t-11 0.5q-34 0 -61 -7v-246q14 -5 36 -12.5t47 -15.5v280zM440 175q0 26 -7 44.5t-20.5 32t-33 23.5t-45.5 19v-264q51 17 78.5 54.5t27.5 90.5zM110 566
q0 -18 3.5 -32.5t12.5 -26.5t25 -23t42 -22v225q-38 -14 -60.5 -43.5t-22.5 -77.5z" />
  </g>

</svg>
