<?xml version="1.0" standalone="no"?>
<!DOCTYPE svg PUBLIC "-//W3C//DTD SVG 1.1//EN" "http://www.w3.org/Graphics/SVG/1.1/DTD/svg11.dtd" >
<svg xmlns="http://www.w3.org/2000/svg" xmlns:xlink="http://www.w3.org/1999/xlink" version="1.1" viewBox="-60 0 656 1000">
  <g transform="matrix(1 0 0 -1 0 800)">
   <path fill="currentColor"
d="M28 450h189v-83h4q21 42 57.5 68.5t94.5 26.5q30 0 54.5 -8.5t42.5 -23t28 -34.5t10 -43v-328h68v-25h-254v25h76v328q0 38 -15.5 56.5t-44.5 18.5q-25 0 -47 -15t-38.5 -41.5t-26 -63t-9.5 -78.5v-205h65v-25h-254v25h79v400h-79v25zM102 667q0 -51 -31 -91.5t-78 -69.5
l-20 23q45 30 68.5 64.5t23.5 68.5q0 14 -5 14q-3 0 -8.5 -4t-13 -9.5t-17 -9.5t-21.5 -4q-27 0 -38.5 16t-11.5 34q0 26 19 45t51 19q38 0 60 -27.5t22 -68.5z" />
  </g>

</svg>
