<?xml version="1.0" standalone="no"?>
<!DOCTYPE svg PUBLIC "-//W3C//DTD SVG 1.1//EN" "http://www.w3.org/Graphics/SVG/1.1/DTD/svg11.dtd" >
<svg xmlns="http://www.w3.org/2000/svg" xmlns:xlink="http://www.w3.org/1999/xlink" version="1.1" viewBox="-10 0 234 1000">
  <g transform="matrix(1 0 0 -1 0 800)">
   <path fill="currentColor"
d="M112 560q-21 0 -39.5 8t-32.5 22t-22 32.5t-8 39.5t8 39t22 32t32.5 22t39.5 8t39.5 -8t32.5 -21.5t22 -32t8 -39.5t-8 -39.5t-22 -32.5t-32.5 -22t-39.5 -8zM112 716q-22 0 -38.5 -16t-16.5 -38t16 -39t39 -17t39 16.5t16 39.5q0 22 -16.5 38t-38.5 16z" />
  </g>

</svg>
