<?xml version="1.0" standalone="no"?>
<!DOCTYPE svg PUBLIC "-//W3C//DTD SVG 1.1//EN" "http://www.w3.org/Graphics/SVG/1.1/DTD/svg11.dtd" >
<svg xmlns="http://www.w3.org/2000/svg" xmlns:xlink="http://www.w3.org/1999/xlink" version="1.1" viewBox="-10 0 616 1000">
  <g transform="matrix(1 0 0 -1 0 800)">
   <path fill="currentColor"
d="M514 723q-65 -5 -118.5 -28.5t-94 -62.5t-66 -91t-34.5 -115l3 -1q27 24 58 36.5t72 12.5q50 0 94 -18t77 -50t52 -75t19 -93q0 -54 -22 -100t-59 -79.5t-85 -52t-100 -18.5q-55 0 -102.5 21.5t-83 61t-55.5 95t-20 124.5q0 95 38.5 178t103 145t148.5 99t175 40v-29z
M187 221q0 -62 6.5 -101.5t20.5 -62t37.5 -31t56.5 -8.5q35 0 58.5 9t38 33t20.5 65t6 106t-6 106.5t-18 65t-30.5 32.5t-44.5 9q-46 0 -80 -21t-55 -55q-6 -36 -8 -76t-2 -71z" />
  </g>

</svg>
