<?xml version="1.0" standalone="no"?>
<!DOCTYPE svg PUBLIC "-//W3C//DTD SVG 1.1//EN" "http://www.w3.org/Graphics/SVG/1.1/DTD/svg11.dtd" >
<svg xmlns="http://www.w3.org/2000/svg" xmlns:xlink="http://www.w3.org/1999/xlink" version="1.1" viewBox="-10 0 569 1000">
  <g transform="matrix(1 0 0 -1 0 800)">
   <path fill="currentColor"
d="M41 399h99q-6 33 -6 71q0 54 13.5 102t40.5 84t67.5 56.5t94.5 20.5q36 0 67.5 -9.5t54.5 -27.5t36 -43.5t13 -56.5q0 -32 -15.5 -54.5t-47.5 -22.5q-25 0 -38.5 14t-13.5 35q0 18 9 27.5t20 16.5t20 13t9 18q0 9 -6 19.5t-18.5 19.5t-31.5 15t-45 6q-63 0 -90 -36.5
t-27 -95.5q0 -42 9.5 -83.5t18.5 -88.5h141v-44h-134q2 -17 3.5 -34t1.5 -35q0 -91 -36 -175q29 -16 62 -24t65 -8q28 0 51 6.5t40 21.5t27 39t12 58h24q0 -39 -5 -78.5t-21 -72t-46 -53t-80 -20.5q-17 0 -33 3t-34 11t-39 22.5t-47 37.5q-15 -29 -49 -51.5t-75 -22.5
q-40 0 -63 22t-23 58q0 21 8.5 37t22 26.5t31 15.5t36.5 5q22 0 43.5 -5.5t41.5 -12.5q2 7 2 14v14q0 23 -5.5 46t-13.5 47.5t-17 51t-16 56.5h-108v44zM53 58q0 -23 14.5 -35.5t34.5 -12.5q14 0 28 6.5t26 16t21 21.5t14 24q-14 14 -38.5 23t-43.5 9q-22 0 -39 -13.5
t-17 -38.5z" />
  </g>

</svg>
