<?xml version="1.0" standalone="no"?>
<!DOCTYPE svg PUBLIC "-//W3C//DTD SVG 1.1//EN" "http://www.w3.org/Graphics/SVG/1.1/DTD/svg11.dtd" >
<svg xmlns="http://www.w3.org/2000/svg" xmlns:xlink="http://www.w3.org/1999/xlink" version="1.1" viewBox="-10 0 562 1000">
  <g transform="matrix(1 0 0 -1 0 800)">
   <path fill="currentColor"
d="M128 401h59q81 0 116 45t35 126q0 38 -7 63t-20.5 40t-33 21t-44.5 6q-37 0 -62 -11t-25 -30q0 -8 5 -13.5t11 -12t11 -15t5 -22.5q0 -26 -17 -38.5t-37 -12.5q-25 0 -42.5 18t-17.5 44q0 21 13 43t37.5 40t60 29t81.5 11q50 0 89.5 -13.5t66.5 -36t41.5 -52t14.5 -60.5
q0 -57 -44 -103t-120 -66v-7q46 -6 84.5 -23t65.5 -42.5t42 -58.5t15 -70q0 -41 -18.5 -79t-53.5 -67.5t-86 -47.5t-115 -18q-47 0 -86 10t-67 28t-43.5 42.5t-15.5 54.5q0 33 18 52.5t47 19.5q27 0 45.5 -17t18.5 -43q0 -17 -6.5 -25.5t-14.5 -14.5t-14.5 -12t-6.5 -16
q0 -14 11.5 -23t29 -15t37 -8.5t35.5 -2.5q70 0 107.5 47t37.5 135q0 83 -38 127t-127 44h-78v30z" />
  </g>

</svg>
