<?xml version="1.0" standalone="no"?>
<!DOCTYPE svg PUBLIC "-//W3C//DTD SVG 1.1//EN" "http://www.w3.org/Graphics/SVG/1.1/DTD/svg11.dtd" >
<svg xmlns="http://www.w3.org/2000/svg" xmlns:xlink="http://www.w3.org/1999/xlink" version="1.1" viewBox="-10 0 360 1000">
  <g transform="matrix(1 0 0 -1 0 800)">
   <path fill="currentColor"
d="M321 43v-143h-304v57l129 98q45 34 59.5 61t14.5 60q0 48 -21 75.5t-57 27.5q-15 0 -28.5 -4.5t-23.5 -12t-16 -16.5t-6 -17q0 -11 8 -11q5 0 10.5 3.5t17.5 3.5q19 0 28 -12t9 -29q0 -25 -15 -36.5t-34 -11.5q-31 0 -44.5 21.5t-13.5 45.5q0 25 12.5 44t33 31.5t47 18.5
t53.5 6q26 0 51 -6t45 -18.5t32.5 -33t12.5 -49.5q0 -30 -16 -58.5t-58 -53.5l-158 -95v-4h182q9 0 15.5 1.5t10.5 7.5t5.5 17.5t1.5 31.5h17z" />
  </g>

</svg>
