<?xml version="1.0" standalone="no"?>
<!DOCTYPE svg PUBLIC "-//W3C//DTD SVG 1.1//EN" "http://www.w3.org/Graphics/SVG/1.1/DTD/svg11.dtd" >
<svg xmlns="http://www.w3.org/2000/svg" xmlns:xlink="http://www.w3.org/1999/xlink" version="1.1" viewBox="-36 0 1004 1000">
  <g transform="matrix(1 0 0 -1 0 800)">
   <path fill="currentColor"
d="M932 729h-72l-64 -183h162v-44h-177l-28 -82h205v-44h-221l-134 -388h-30l-118 345l-122 -345h-30l-133 388h-130v44h115l-28 82h-87v44h72l-62 183h-76v25h699v-25h-57l-66 -183h213l64 183h-103v25h208v-25zM184 729l62 -183h136l-62 183h-136zM533 499l26 -79h160
l29 82h-214zM372 192l65 184h-133l64 -184h4zM640 192l64 184h-130l62 -184h4zM516 546l65 183h-127zM289 420h136l-28 82h-136z" />
  </g>

</svg>
