<?xml version="1.0" standalone="no"?>
<!DOCTYPE svg PUBLIC "-//W3C//DTD SVG 1.1//EN" "http://www.w3.org/Graphics/SVG/1.1/DTD/svg11.dtd" >
<svg xmlns="http://www.w3.org/2000/svg" xmlns:xlink="http://www.w3.org/1999/xlink" version="1.1" viewBox="-24 0 556 1000">
  <g transform="matrix(1 0 0 -1 0 800)">
   <path fill="currentColor"
d="M0 0zM-4 65l71 14l69 490l-70 14l9 65h294l-9 -65l-71 -14l-69 -490l43 -8h93l40 118h74l-23 -189h-461zM417 623q0 34 -19 56q27 27 69 27q27 0 41 -14.5t14 -38.5q0 -31 -21.5 -70t-58.5 -71h-58q33 62 33 111z" />
  </g>

</svg>
