<?xml version="1.0" standalone="no"?>
<!DOCTYPE svg PUBLIC "-//W3C//DTD SVG 1.1//EN" "http://www.w3.org/Graphics/SVG/1.1/DTD/svg11.dtd" >
<svg xmlns="http://www.w3.org/2000/svg" xmlns:xlink="http://www.w3.org/1999/xlink" version="1.1" viewBox="-49 0 697 1000">
  <g transform="matrix(1 0 0 -1 0 800)">
   <path fill="currentColor"
d="M630 584l-69 -15l-177 -229l118 -254l68 -19l-7 -67h-280l5 54l60 17v14l-67 143l-115 -146v-13l52 -15l-6 -54h-251l10 64l90 22l180 228l-120 258l-62 10l9 66h287l-7 -54l-68 -14v-18l65 -139l110 143v14l-47 10l9 58h221z" />
  </g>

</svg>
