<?xml version="1.0" standalone="no"?>
<!DOCTYPE svg PUBLIC "-//W3C//DTD SVG 1.1//EN" "http://www.w3.org/Graphics/SVG/1.1/DTD/svg11.dtd" >
<svg xmlns="http://www.w3.org/2000/svg" xmlns:xlink="http://www.w3.org/1999/xlink" version="1.1" viewBox="-10 0 603 1000">
  <g transform="matrix(1 0 0 -1 0 800)">
   <path fill="currentColor"
d="M25 0zM99 54l71 14l24 190l-112 317l-57 8l8 65h276l-6 -54l-67 -14v-18l64 -214h2l118 224v9l-58 13l6 54h215l-9 -65l-58 -7l-166 -298l-28 -210l72 -14l-7 -54h-295zM460 682zM176.5 701.5q-18.5 19.5 -18.5 46.5q0 34 21 61t59 27q29 0 48 -19t19 -51q0 -34 -21 -59
t-60 -25q-29 0 -47.5 19.5zM403.5 701.5q-18.5 19.5 -18.5 46.5q0 34 21 61t59 27q29 0 48 -19t19 -51q0 -34 -21 -59t-60 -25q-29 0 -47.5 19.5z" />
  </g>

</svg>
