<?xml version="1.0" standalone="no"?>
<!DOCTYPE svg PUBLIC "-//W3C//DTD SVG 1.1//EN" "http://www.w3.org/Graphics/SVG/1.1/DTD/svg11.dtd" >
<svg xmlns="http://www.w3.org/2000/svg" xmlns:xlink="http://www.w3.org/1999/xlink" version="1.1" viewBox="-10 0 578 1000">
  <g transform="matrix(1 0 0 -1 0 800)">
   <path fill="currentColor"
d="M3 0zM3 77l373 488l-4 7h-210l-44 -113h-66l27 189h427l52 -81l-371 -483l3 -7h210l38 113h67l-24 -190h-446zM413 670zM297 678q-11 8 -29 25l-93 86l42 51l116 -58l134 55l24 -41l-99 -79q-30 -23 -47.5 -35t-26.5 -12q-10 0 -21 8z" />
  </g>

</svg>
