<?xml version="1.0" standalone="no"?>
<!DOCTYPE svg PUBLIC "-//W3C//DTD SVG 1.1//EN" "http://www.w3.org/Graphics/SVG/1.1/DTD/svg11.dtd" >
<svg xmlns="http://www.w3.org/2000/svg" xmlns:xlink="http://www.w3.org/1999/xlink" version="1.1" viewBox="-10 0 687 1000">
  <g transform="matrix(1 0 0 -1 0 800)">
   <path fill="currentColor"
d="M168.5 40q-74.5 42 -117 116.5t-42.5 168.5t42.5 169t117 117.5t168.5 42.5t168.5 -42.5t117 -117.5t42.5 -169t-42.5 -168.5t-117 -116.5t-168.5 -42t-168.5 42zM464.5 98.5q57.5 33.5 90 92.5t32.5 133t-32.5 133t-90 92.5t-129.5 33.5t-129 -33.5t-89 -92.5t-32 -133
t32 -133t89 -92.5t129 -33.5t129.5 33.5zM209 198.5q-41 43.5 -41 123.5q0 50 22.5 90t62 62t88.5 22q61 0 127 -12v-115h-49l-11 52q-28 10 -41 10q-51 0 -69 -24t-18 -84q0 -43 9.5 -65t28 -30t50.5 -8q24 0 39 10l13 63h50v-116q-66 -22 -141 -22q-79 0 -120 43.5z" />
  </g>

</svg>
