<?xml version="1.0" standalone="no"?>
<!DOCTYPE svg PUBLIC "-//W3C//DTD SVG 1.1//EN" "http://www.w3.org/Graphics/SVG/1.1/DTD/svg11.dtd" >
<svg xmlns="http://www.w3.org/2000/svg" xmlns:xlink="http://www.w3.org/1999/xlink" version="1.1" viewBox="-10 0 500 1000">
  <g transform="matrix(1 0 0 -1 0 800)">
   <path fill="currentColor"
d="M220 379.5q-21 22.5 -21 55.5q0 36 22 64.5t64 28.5q33 0 55 -22t22 -59q0 -36 -22.5 -63t-64.5 -27q-34 0 -55 22.5zM56 311h400l-12 -86h-400zM167 26.5q-21 22.5 -21 55.5q0 36 22 64.5t64 28.5q33 0 55 -22t22 -59q0 -36 -22.5 -63t-64.5 -27q-34 0 -55 22.5z" />
  </g>

</svg>
