<?xml version="1.0" standalone="no"?>
<!DOCTYPE svg PUBLIC "-//W3C//DTD SVG 1.1//EN" "http://www.w3.org/Graphics/SVG/1.1/DTD/svg11.dtd" >
<svg xmlns="http://www.w3.org/2000/svg" xmlns:xlink="http://www.w3.org/1999/xlink" version="1.1" viewBox="-10 0 509 1000">
  <g transform="matrix(1 0 0 -1 0 800)">
   <path fill="currentColor"
d="M32 168q0 87 33.5 167t88.5 129t115 49q18 0 22 1q-24 43 -52 64l-112 -74l-39 61l80 51q-58 17 -118 17v67q18 1 45 1q91 0 167 -24l87 56l39 -57l-53 -36q70 -46 106 -128.5t36 -197.5q0 -91 -33.5 -165.5t-91.5 -117.5t-130 -43q-190 0 -190 180zM292 73q35 93 35 240
q0 42 -4 88q-27 26 -74 26q-23 0 -26 -3q-10 -9 -25.5 -93t-15.5 -131q0 -72 15 -103.5t51 -31.5q38 0 44 8z" />
  </g>

</svg>
