<?xml version="1.0" standalone="no"?>
<!DOCTYPE svg PUBLIC "-//W3C//DTD SVG 1.1//EN" "http://www.w3.org/Graphics/SVG/1.1/DTD/svg11.dtd" >
<svg xmlns="http://www.w3.org/2000/svg" xmlns:xlink="http://www.w3.org/1999/xlink" version="1.1" viewBox="-10 0 583 1000">
  <g transform="matrix(1 0 0 -1 0 800)">
   <path fill="currentColor"
d="M36 431v42l16 34h76q34 100 112.5 152t232.5 52q31 0 69 -2v-101l-75 -514h72v-70q-13 -9 -50.5 -20.5t-91.5 -11.5q-49 0 -63 17t-14 43q0 25 9 73l82 475q-24 8 -54 8q-68 0 -85 -21q-10 -13 -18 -67l-2 -13h107v-35l-16 -41h-100l-84 -605l-153 -17l101 622h-71z" />
  </g>

</svg>
