<?xml version="1.0" standalone="no"?>
<!DOCTYPE svg PUBLIC "-//W3C//DTD SVG 1.1//EN" "http://www.w3.org/Graphics/SVG/1.1/DTD/svg11.dtd" >
<svg xmlns="http://www.w3.org/2000/svg" xmlns:xlink="http://www.w3.org/1999/xlink" version="1.1" viewBox="-10 0 586 1000">
  <g transform="matrix(1 0 0 -1 0 800)">
   <path fill="currentColor"
d="M37 0zM37 0zM64.5 12q-16.5 19 -16.5 42q0 24 9 72l54 273l-74 16v70l214 19v-104l-52 -305h71v-69q-14 -9 -53.5 -21t-101.5 -12q-34 0 -50.5 19zM217 558zM129.5 579.5q-20.5 21.5 -20.5 54.5q0 38 23 67t65 29q33 0 54.5 -21.5t21.5 -57.5q0 -38 -23.5 -65.5
t-65.5 -27.5q-34 0 -54.5 21.5zM294 0zM193.5 -159.5q-19.5 14.5 -19.5 45.5q0 13 3.5 24t7.5 17t5 7h85q19 0 32.5 3.5t14.5 6.5q6 12 10.5 32.5t13.5 75.5l53 345l-73 16v70l209 19v-105l-48 -355q-8 -56 -38.5 -105.5t-80 -80t-111.5 -30.5q-44 0 -63.5 14.5zM508 558z
M420.5 579.5q-20.5 21.5 -20.5 54.5q0 38 23 67t65 29q33 0 54.5 -21.5t21.5 -57.5q0 -38 -23.5 -65.5t-65.5 -27.5q-34 0 -54.5 21.5z" />
  </g>

</svg>
