<?xml version="1.0" standalone="no"?>
<!DOCTYPE svg PUBLIC "-//W3C//DTD SVG 1.1//EN" "http://www.w3.org/Graphics/SVG/1.1/DTD/svg11.dtd" >
<svg xmlns="http://www.w3.org/2000/svg" xmlns:xlink="http://www.w3.org/1999/xlink" version="1.1" viewBox="-10 0 450 1000">
  <g transform="matrix(1 0 0 -1 0 800)">
   <path fill="currentColor"
d="M43 0zM56.5 9q-13.5 17 -13.5 43q0 30 8 73l89 483l-84 18v65l215 19v-102l-81 -514h71v-70q-13 -8 -51 -20t-91 -12q-49 0 -62.5 17zM325 653q0 34 -19 56q27 27 69 27q27 0 41 -14.5t14 -38.5q0 -31 -21.5 -70t-58.5 -71h-58q33 62 33 111z" />
  </g>

</svg>
