<?xml version="1.0" standalone="no"?>
<!DOCTYPE svg PUBLIC "-//W3C//DTD SVG 1.1//EN" "http://www.w3.org/Graphics/SVG/1.1/DTD/svg11.dtd" >
<svg xmlns="http://www.w3.org/2000/svg" xmlns:xlink="http://www.w3.org/1999/xlink" version="1.1" viewBox="-10 0 615 1000">
  <g transform="matrix(1 0 0 -1 0 800)">
   <path fill="currentColor"
d="M81 0zM81 -6l9 59q24 -3 47 -3q96 0 161.5 51.5t91.5 169.5l-4 -1q-4 -8 -8 -13q-9 -13 -40 -28t-87 -15q-44 0 -82.5 22t-62.5 65.5t-24 104.5q0 73 30.5 131t86.5 90.5t129 32.5q119 0 178 -62.5t59 -199.5q0 -117 -46.5 -210t-132.5 -146.5t-200 -53.5q-63 0 -105 6z
M369.5 314q19.5 8 27.5 16q4 29 7.5 72.5t3.5 70.5q0 62 -22 89.5t-63 27.5q-81 0 -81 -154q0 -75 19 -102.5t61 -27.5q28 0 47.5 8z" />
  </g>

</svg>
