<?xml version="1.0" standalone="no"?>
<!DOCTYPE svg PUBLIC "-//W3C//DTD SVG 1.1//EN" "http://www.w3.org/Graphics/SVG/1.1/DTD/svg11.dtd" >
<svg xmlns="http://www.w3.org/2000/svg" xmlns:xlink="http://www.w3.org/1999/xlink" version="1.1" viewBox="-10 0 496 1000">
  <g transform="matrix(1 0 0 -1 0 800)">
   <path fill="currentColor"
d="M20 0zM69 32.5q-49 44.5 -49 136.5q0 99 34 177.5t92 122.5t126 44q96 0 145 -43t49 -143q0 -87 -31 -165t-89 -126t-136 -48q-92 0 -141 44.5zM281 74q17 43 26 99.5t9 143.5q0 54 -8 80t-21 33t-36 7q-11 0 -23.5 -3.5t-15.5 -6.5q-6 -9 -16 -41t-18 -83t-8 -112
q0 -62 16 -94t54 -32q25 0 41 9zM409 556zM196 575.5q-32 19.5 -49.5 49t-17.5 57.5q0 13 3 18t9 9q7 4 37.5 14.5t35.5 10.5q7 -37 30 -58t60 -21q34 0 60.5 15.5t41.5 33t20 26.5l48 -17q-5 -22 -25 -57.5t-65 -67.5t-116 -32q-40 0 -72 19.5z" />
  </g>

</svg>
