<?xml version="1.0" standalone="no"?>
<!DOCTYPE svg PUBLIC "-//W3C//DTD SVG 1.1//EN" "http://www.w3.org/Graphics/SVG/1.1/DTD/svg11.dtd" >
<svg xmlns="http://www.w3.org/2000/svg" xmlns:xlink="http://www.w3.org/1999/xlink" version="1.1" viewBox="-10 0 727 1000">
  <g transform="matrix(1 0 0 -1 0 800)">
   <path fill="currentColor"
d="M20 169q0 97 32.5 175.5t90.5 123.5t129 45q54 0 89.5 -11.5t63.5 -38.5q52 50 119 50q73 0 118 -30t45 -80q0 -55 -25 -92t-81 -62.5t-151 -44.5v-42q0 -45 23 -64.5t76 -19.5q22 0 51.5 10t53.5 24l23 -40q-31 -36 -92.5 -59t-124.5 -23q-86 0 -121 40
q-28 -20 -61.5 -31t-67.5 -11q-190 0 -190 181zM270.5 67q12.5 2 13.5 6q17 46 24.5 104.5t7.5 139.5q0 47 -6 72.5t-20 36.5t-39 11q-12 0 -24.5 -2.5t-14.5 -4.5q-15 -20 -28.5 -96.5t-13.5 -142.5q0 -65 17 -95.5t53 -30.5q18 0 30.5 2zM528.5 296.5q22.5 14.5 31 35
t8.5 54.5q0 51 -39 51q-7 0 -18 -3t-15 -6q-9 -5 -21.5 -57.5t-14.5 -105.5q46 17 68.5 31.5z" />
  </g>

</svg>
