<?xml version="1.0" standalone="no"?>
<!DOCTYPE svg PUBLIC "-//W3C//DTD SVG 1.1//EN" "http://www.w3.org/Graphics/SVG/1.1/DTD/svg11.dtd" >
<svg xmlns="http://www.w3.org/2000/svg" xmlns:xlink="http://www.w3.org/1999/xlink" version="1.1" viewBox="-10 0 741 1000">
  <g transform="matrix(1 0 0 -1 0 800)">
   <path fill="currentColor"
d="M16 0zM23 371l78 13l29 199h-85l8 61l102 10h95l-40 -271l70 -14l-6 -58h-258zM62 -13l499 713l70 -48l-498 -712zM419 0zM542 80h-137l-12 63l217 223l81 -20l-29 -199h53l-12 -67h-52l-13 -80h-107zM553 147l17 117l-96 -112l1 -5h78z" />
  </g>

</svg>
