<?xml version="1.0" standalone="no"?>
<!DOCTYPE svg PUBLIC "-//W3C//DTD SVG 1.1//EN" "http://www.w3.org/Graphics/SVG/1.1/DTD/svg11.dtd" >
<svg xmlns="http://www.w3.org/2000/svg" xmlns:xlink="http://www.w3.org/1999/xlink" version="1.1" viewBox="-10 0 431 1000">
  <g transform="matrix(1 0 0 -1 0 800)">
   <path fill="currentColor"
d="M354.5 232q23.5 -35 23.5 -80q0 -67 -51 -112t-134 -51l-4 -16l40 -18q27 -12 42 -28t15 -42q0 -37 -30.5 -59t-79.5 -22q-33 0 -63 7.5t-51 20.5l28 51q16 -9 39.5 -16t36.5 -7q14 0 20 4.5t6 16.5q0 9 -8 14.5t-26 11.5l-44 16l-1 25l24 41q-70 3 -102 23.5t-32 61.5
q0 17 10.5 43t23.5 45.5t21 19.5h53l9 -99q5 -5 30.5 -9.5t55.5 -4.5q36 0 49.5 8t13.5 23q0 13 -4 22t-20 23t-49 37q-59 40 -88.5 66.5t-40 48.5t-10.5 50q0 48 27 86t76 59.5t112 21.5q70 0 104.5 -23t34.5 -70q0 -21 -15.5 -48.5t-34.5 -40.5h-54l-10 90q-28 12 -82 12
q-24 0 -37 -8t-13 -20q0 -13 18.5 -30t78.5 -60q69 -49 92.5 -84z" />
  </g>

</svg>
