<?xml version="1.0" standalone="no"?>
<!DOCTYPE svg PUBLIC "-//W3C//DTD SVG 1.1//EN" "http://www.w3.org/Graphics/SVG/1.1/DTD/svg11.dtd" >
<svg xmlns="http://www.w3.org/2000/svg" xmlns:xlink="http://www.w3.org/1999/xlink" version="1.1" viewBox="-10 0 615 1000">
  <g transform="matrix(1 0 0 -1 0 800)">
   <path fill="currentColor"
d="M58 0zM111 47.5q-53 58.5 -53 171.5q0 108 56 208t164 165t255 69l4 -49q-95 -22 -153 -55.5t-90 -76.5t-55 -105q14 11 48 26t76 15q83 0 124.5 -43t41.5 -136q0 -55 -26 -112t-82.5 -96.5t-142.5 -39.5q-114 0 -167 58.5zM349.5 86.5q19.5 17.5 25 48.5t5.5 87
q0 52 -23 76.5t-65 24.5q-39 0 -69 -15q-7 -25 -8.5 -48.5t-1.5 -53.5q0 -69 17 -103t60 -34q40 0 59.5 17.5z" />
  </g>

</svg>
