<?xml version="1.0" standalone="no"?>
<!DOCTYPE svg PUBLIC "-//W3C//DTD SVG 1.1//EN" "http://www.w3.org/Graphics/SVG/1.1/DTD/svg11.dtd" >
<svg xmlns="http://www.w3.org/2000/svg" xmlns:xlink="http://www.w3.org/1999/xlink" version="1.1" viewBox="-10 0 801 1000">
  <g transform="matrix(1 0 0 -1 0 800)">
   <path fill="currentColor"
d="M14 0zM262.5 473.5q24.5 -14.5 24.5 -43.5q0 -43 -25 -71.5t-61.5 -41t-71.5 -12.5q-37 0 -66.5 7.5t-48.5 33.5l33 41q3 -5 25 -12.5t46 -7.5q34 0 49.5 16t15.5 40q0 20 -14 27t-51 7l-14 25v27q50 7 68.5 17t18.5 32q0 21 -13 27t-42 6q-18 0 -32 -5.5t-22 -12
t-8 -8.5l-35 31q20 33 58 47.5t81 14.5q54 0 86 -19.5t32 -52.5q0 -38 -28 -61.5t-58 -29.5v-4q28 -3 52.5 -17.5zM92 -13l499 713l70 -48l-498 -712zM451 0zM479 10q-28 20 -28 52q0 29 22.5 55t56.5 43q-25 17 -37.5 36.5t-12.5 47.5q0 46 47 72t112 26t92 -19.5t27 -49.5
q0 -25 -20.5 -48.5t-52.5 -38.5q36 -25 48 -45t12 -48q0 -49 -45 -76t-114 -27q-79 0 -107 20zM655 232.5q7 10.5 7 19.5q0 34 -44 34q-15 0 -25.5 -8t-10.5 -19q0 -14 14.5 -24.5t38.5 -20.5q13 8 20 18.5zM636.5 51q13.5 8 13.5 22q0 12 -14.5 23t-58.5 35
q-13 -11 -18.5 -24t-5.5 -29q0 -35 47 -35q23 0 36.5 8z" />
  </g>

</svg>
