<?xml version="1.0" standalone="no"?>
<!DOCTYPE svg PUBLIC "-//W3C//DTD SVG 1.1//EN" "http://www.w3.org/Graphics/SVG/1.1/DTD/svg11.dtd" >
<svg xmlns="http://www.w3.org/2000/svg" xmlns:xlink="http://www.w3.org/1999/xlink" version="1.1" viewBox="-33 0 543 1000">
  <g transform="matrix(1 0 0 -1 0 800)">
   <path fill="currentColor"
d="M0 0zM-23 0zM209 287q50 50 73.5 87t29 62t5.5 56q0 28 -22.5 49t-58.5 21q-40 0 -69 -16t-68 -50l-40 30q31 54 90 94t139 40q88 0 138.5 -38t50.5 -98q0 -71 -40 -140t-152 -160l-156 -127l2 -2l11 5h226l47 108l64 -11l-30 -197h-446l-26 56z" />
  </g>

</svg>
