<?xml version="1.0" standalone="no"?>
<!DOCTYPE svg PUBLIC "-//W3C//DTD SVG 1.1//EN" "http://www.w3.org/Graphics/SVG/1.1/DTD/svg11.dtd" >
<svg xmlns="http://www.w3.org/2000/svg" xmlns:xlink="http://www.w3.org/1999/xlink" version="1.1" viewBox="-59 0 645 1000">
  <g transform="matrix(1 0 0 -1 0 800)">
   <path fill="currentColor"
d="M0 0zM-40 65l56 10l265 581h111l114 -579l70 -12l-4 -65h-292l5 65l65 10l-17 97h-183l-40 -95l79 -12l-8 -65h-230zM321 245l-29 218l-1 32h-5l-10 -32l-94 -218h139zM481 809.5q39 -27.5 39 -70.5q0 -17 -20.5 -34t-54.5 -28q-13 31 -39 46t-59 15q-34 0 -69.5 -17
t-62.5 -47l-36 27q39 67 91 101.5t113 34.5q59 0 98 -27.5z" />
  </g>

</svg>
