<?xml version="1.0" standalone="no"?>
<!DOCTYPE svg PUBLIC "-//W3C//DTD SVG 1.1//EN" "http://www.w3.org/Graphics/SVG/1.1/DTD/svg11.dtd" >
<svg xmlns="http://www.w3.org/2000/svg" xmlns:xlink="http://www.w3.org/1999/xlink" version="1.1" viewBox="-353 0 443 1000">
  <g transform="matrix(1 0 0 -1 0 800)">
   <path fill="currentColor"
d="M0 534zM-105 718q0 11 10 21t38 28q25 17 25 35q0 12 -8 17t-23 5q-24 0 -51 -8q-17 21 -17 39t22 29t69 11q120 0 120 -70q0 -30 -20.5 -52t-54.5 -41q-18 -9 -21.5 -14.5t-3.5 -18.5l-77 -9q-8 18 -8 28zM-86 534zM-312 538l-31 36l88 89q35 33 53.5 46.5t31.5 13.5
q14 0 27.5 -13t33.5 -43l68 -97l-41 -36l-101 66z" />
  </g>

</svg>
