<?xml version="1.0" standalone="no"?>
<!DOCTYPE svg PUBLIC "-//W3C//DTD SVG 1.1//EN" "http://www.w3.org/Graphics/SVG/1.1/DTD/svg11.dtd" >
<svg xmlns="http://www.w3.org/2000/svg" xmlns:xlink="http://www.w3.org/1999/xlink" version="1.1" viewBox="-10 0 405 1000">
  <g transform="matrix(1 0 0 -1 0 800)">
   <path fill="currentColor"
d="M27 0zM77 4q-26 15 -26 50q0 10 5 45l57 332h-86l10 76h88l23 115l138 17l-23 -132h122l-11 -76h-123l-51 -342h128v-73q-18 -8 -60 -17.5t-104 -9.5q-61 0 -87 15zM120.5 -175.5q8.5 23.5 8.5 43.5q0 32 -17 57q16 16 29.5 24.5t34.5 8.5q30 0 44.5 -14.5t14.5 -36.5
q0 -30 -22.5 -65.5t-57.5 -62.5h-59q16 22 24.5 45.5z" />
  </g>

</svg>
