<?xml version="1.0" standalone="no"?>
<!DOCTYPE svg PUBLIC "-//W3C//DTD SVG 1.1//EN" "http://www.w3.org/Graphics/SVG/1.1/DTD/svg11.dtd" >
<svg xmlns="http://www.w3.org/2000/svg" xmlns:xlink="http://www.w3.org/1999/xlink" version="1.1" viewBox="-10 0 324 1000">
  <g transform="matrix(1 0 0 -1 0 800)">
   <path fill="currentColor"
d="M22 365zM270.5 533.5q24.5 -14.5 24.5 -43.5q0 -43 -25 -71.5t-61.5 -41t-71.5 -12.5q-37 0 -66.5 7.5t-48.5 33.5l33 41q3 -5 25 -12.5t46 -7.5q34 0 49.5 16t15.5 40q0 20 -14 27t-51 7l-14 25v27q50 7 68.5 17t18.5 32q0 21 -13 27t-42 6q-18 0 -32 -5.5t-22 -12
t-8 -8.5l-35 31q20 33 58 47.5t81 14.5q54 0 86 -19.5t32 -52.5q0 -38 -28 -61.5t-58 -29.5v-4q28 -3 52.5 -17.5z" />
  </g>

</svg>
