<?xml version="1.0" standalone="no"?>
<!DOCTYPE svg PUBLIC "-//W3C//DTD SVG 1.1//EN" "http://www.w3.org/Graphics/SVG/1.1/DTD/svg11.dtd" >
<svg xmlns="http://www.w3.org/2000/svg" xmlns:xlink="http://www.w3.org/1999/xlink" version="1.1" viewBox="-10 0 450 1000">
  <g transform="matrix(1 0 0 -1 0 800)">
   <path fill="currentColor"
d="M379.5 462q42.5 -42 42.5 -119q0 -79 -26.5 -163t-82.5 -141.5t-139 -57.5q-73 0 -113 31.5t-40 78.5q0 62 33 101t87.5 60.5t136.5 37.5v42q0 43 -24.5 64.5t-65.5 21.5q-54 0 -113 -35l-24 42q31 34 90.5 56.5t115.5 22.5q80 0 122.5 -42zM196.5 194.5
q-23.5 -16.5 -30 -35t-6.5 -51.5q0 -50 39 -50q10 0 19.5 2.5t14.5 5.5q9 14 21.5 57t15.5 106q-50 -18 -73.5 -34.5z" />
  </g>

</svg>
