<?xml version="1.0" standalone="no"?>
<!DOCTYPE svg PUBLIC "-//W3C//DTD SVG 1.1//EN" "http://www.w3.org/Graphics/SVG/1.1/DTD/svg11.dtd" >
<svg xmlns="http://www.w3.org/2000/svg" xmlns:xlink="http://www.w3.org/1999/xlink" version="1.1" viewBox="-24 0 720 1000">
  <g transform="matrix(1 0 0 -1 0 800)">
   <path fill="currentColor"
d="M0 0zM-4 65l74 14l69 490l-73 14l9 65h210l159 -378l18 -58h4l4 58l41 299l-72 14l8 65h239l-8 -65l-71 -14l-78 -569h-126l-169 398l-10 56h-5l-53 -375l72 -14l-9 -65h-243zM353 -42zM238.5 -175.5q8.5 23.5 8.5 43.5q0 32 -17 57q16 16 29.5 24.5t34.5 8.5
q30 0 44.5 -14.5t14.5 -36.5q0 -30 -22.5 -65.5t-57.5 -62.5h-59q16 22 24.5 45.5z" />
  </g>

</svg>
