<?xml version="1.0" standalone="no"?>
<!DOCTYPE svg PUBLIC "-//W3C//DTD SVG 1.1//EN" "http://www.w3.org/Graphics/SVG/1.1/DTD/svg11.dtd" >
<svg xmlns="http://www.w3.org/2000/svg" xmlns:xlink="http://www.w3.org/1999/xlink" version="1.1" viewBox="-24 0 404 1000">
  <g transform="matrix(1 0 0 -1 0 800)">
   <path fill="currentColor"
d="M0 0zM-3 65l71 14l69 490l-71 14l10 65h294l-10 -65l-71 -14l-69 -490l71 -14l-11 -65h-294zM194 -50zM194 -50zM138 -222zM50.5 -200.5q-20.5 21.5 -20.5 54.5q0 38 23 67t65 29q33 0 54.5 -21.5t21.5 -57.5q0 -38 -23.5 -65.5t-65.5 -27.5q-34 0 -54.5 21.5z" />
  </g>

</svg>
