<?xml version="1.0" standalone="no"?>
<!DOCTYPE svg PUBLIC "-//W3C//DTD SVG 1.1//EN" "http://www.w3.org/Graphics/SVG/1.1/DTD/svg11.dtd" >
<svg xmlns="http://www.w3.org/2000/svg" xmlns:xlink="http://www.w3.org/1999/xlink" version="1.1" viewBox="-24 0 404 1000">
  <g transform="matrix(1 0 0 -1 0 800)">
   <path fill="currentColor"
d="M0 0zM-3 65l71 14l69 490l-71 14l10 65h294l-10 -65l-71 -14l-69 -490l71 -14l-11 -65h-294zM184 699q0 12 7.5 20t37.5 19q14 5 20.5 9.5t6.5 11.5q0 19 -26 19q-29 0 -59 -8q-15 20 -15 38q0 21 21.5 31.5t68.5 10.5q57 0 88.5 -18t31.5 -52q0 -25 -22.5 -43t-53.5 -29
q-14 -5 -18 -9.5t-4 -16.5l-76 -8q-8 14 -8 25z" />
  </g>

</svg>
