<?xml version="1.0" standalone="no"?>
<!DOCTYPE svg PUBLIC "-//W3C//DTD SVG 1.1//EN" "http://www.w3.org/Graphics/SVG/1.1/DTD/svg11.dtd" >
<svg xmlns="http://www.w3.org/2000/svg" xmlns:xlink="http://www.w3.org/1999/xlink" version="1.1" viewBox="-10 0 686 1000">
  <g transform="matrix(1 0 0 -1 0 800)">
   <path fill="currentColor"
d="M32 0zM626 435q-40 -44 -139 -97l-39 -243h68v-69q-59 -33 -137 -33q-41 0 -60.5 13.5t-19.5 43.5q0 10 5 24t18 29l-3 2q-40 -46 -85.5 -82t-96.5 -36q-44 0 -64 26.5t-20 64.5q0 16 4 48.5t8 53.5l40 225l-73 17v69l215 19v-89l-40 -223q-11 -66 -11 -80q0 -24 23 -24
q18 0 46.5 20.5t49.5 44.5l60 338l140 11l-19 -116q69 51 69 94q0 17 -12 27v15l79 51q10 -5 22 -19.5t12 -40.5q0 -40 -40 -84zM376 548zM234 635.5q-21 17.5 -21 46.5q0 26 17 43.5t51 20.5l153 -155l-34 -43l-91 44q-54 26 -75 43.5z" />
  </g>

</svg>
