<?xml version="1.0" standalone="no"?>
<!DOCTYPE svg PUBLIC "-//W3C//DTD SVG 1.1//EN" "http://www.w3.org/Graphics/SVG/1.1/DTD/svg11.dtd" >
<svg xmlns="http://www.w3.org/2000/svg" xmlns:xlink="http://www.w3.org/1999/xlink" version="1.1" viewBox="-10 0 569 1000">
  <g transform="matrix(1 0 0 -1 0 800)">
   <path fill="currentColor"
d="M20 0zM69 32.5q-49 44.5 -49 136.5q0 99 34 177.5t92 122.5t126 44q96 0 145 -43t49 -143q0 -87 -31 -165t-89 -126t-136 -48q-92 0 -141 44.5zM281 74q17 43 26 99.5t9 143.5q0 54 -8 80t-21 33t-36 7q-11 0 -23.5 -3.5t-15.5 -6.5q-6 -9 -16 -41t-18 -83t-8 -112
q0 -62 16 -94t54 -32q25 0 41 9zM469 534zM364 718q0 11 10 21t38 28q25 17 25 35q0 12 -8 17t-23 5q-24 0 -51 -8q-17 21 -17 39t22 29t69 11q120 0 120 -70q0 -30 -20.5 -52t-54.5 -41q-18 -9 -21.5 -14.5t-3.5 -18.5l-77 -9q-8 18 -8 28zM383 534zM157 538l-31 36l88 89
q35 33 53.5 46.5t31.5 13.5q14 0 27.5 -13t33.5 -43l68 -97l-41 -36l-101 66z" />
  </g>

</svg>
