<?xml version="1.0" standalone="no"?>
<!DOCTYPE svg PUBLIC "-//W3C//DTD SVG 1.1//EN" "http://www.w3.org/Graphics/SVG/1.1/DTD/svg11.dtd" >
<svg xmlns="http://www.w3.org/2000/svg" xmlns:xlink="http://www.w3.org/1999/xlink" version="1.1" viewBox="-23 0 597 1000">
  <g transform="matrix(1 0 0 -1 0 800)">
   <path fill="currentColor"
d="M0 0zM68 79l69 490l-71 14l10 65h478l-31 -193h-71v116h-111l-50 -7l-29 -195h108l23 65h68l-28 -207h-65l1 70h-117l-29 -213q31 -7 75 -7h91l41 112h67l-23 -189h-487l10 65zM488 685zM407 687.5q-13 2.5 -32 9.5l-118 40l-83 -38l-31 35l55 57q17 22 36 34t35 12
q19 0 32 -2.5t32 -9.5l118 -39l82 39l31 -36l-54 -58q-43 -46 -71 -46q-19 0 -32 2.5z" />
  </g>

</svg>
