<?xml version="1.0" standalone="no"?>
<!DOCTYPE svg PUBLIC "-//W3C//DTD SVG 1.1//EN" "http://www.w3.org/Graphics/SVG/1.1/DTD/svg11.dtd" >
<svg xmlns="http://www.w3.org/2000/svg" xmlns:xlink="http://www.w3.org/1999/xlink" version="1.1" viewBox="-10 0 541 1000">
  <g transform="matrix(1 0 0 -1 0 800)">
   <path fill="currentColor"
d="M20 0zM51 26.5q-31 38.5 -31 123.5q0 73 28.5 159t78.5 145t111 59q62 0 128 -35l39 39h89l-68 -422h70v-69q-12 -9 -47 -21t-94 -12q-40 0 -62 13t-22 39q0 30 20 56l-3 2q-80 -115 -151 -115q-55 0 -86 38.5zM242 118q26 24 54 62l30 185q-18 27 -48 45t-57 18
q-6 0 -14 -2q-19 -47 -30 -113t-11 -142q0 -32 8 -54.5t17 -22.5q25 0 51 24zM292 -50zM236 -222zM148.5 -200.5q-20.5 21.5 -20.5 54.5q0 38 23 67t65 29q33 0 54.5 -21.5t21.5 -57.5q0 -38 -23.5 -65.5t-65.5 -27.5q-34 0 -54.5 21.5z" />
  </g>

</svg>
