<?xml version="1.0" standalone="no"?>
<!DOCTYPE svg PUBLIC "-//W3C//DTD SVG 1.1//EN" "http://www.w3.org/Graphics/SVG/1.1/DTD/svg11.dtd" >
<svg xmlns="http://www.w3.org/2000/svg" xmlns:xlink="http://www.w3.org/1999/xlink" version="1.1" viewBox="-10 0 561 1000">
  <g transform="matrix(1 0 0 -1 0 800)">
   <path fill="currentColor"
d="M17 0zM59.5 32q-42.5 42 -42.5 119q0 79 26.5 163t82.5 141.5t139 57.5q73 0 113 -31.5t40 -78.5q0 -62 -33 -101t-87.5 -60.5t-136.5 -37.5v-42q0 -43 24.5 -64.5t65.5 -21.5q54 0 113 35l24 -42q-31 -34 -90.5 -56.5t-115.5 -22.5q-80 0 -122.5 42zM242.5 299.5
q23.5 16.5 30 35t6.5 51.5q0 50 -39 50q-10 0 -19.5 -2.5t-14.5 -5.5q-9 -14 -21.5 -57t-15.5 -106q50 18 73.5 34.5zM461 534zM356 718q0 11 10 21t38 28q25 17 25 35q0 12 -8 17t-23 5q-24 0 -51 -8q-17 21 -17 39t22 29t69 11q120 0 120 -70q0 -30 -20.5 -52t-54.5 -41
q-18 -9 -21.5 -14.5t-3.5 -18.5l-77 -9q-8 18 -8 28zM375 534zM149 538l-31 36l88 89q35 33 53.5 46.5t31.5 13.5q14 0 27.5 -13t33.5 -43l68 -97l-41 -36l-101 66z" />
  </g>

</svg>
