<?xml version="1.0" standalone="no"?>
<!DOCTYPE svg PUBLIC "-//W3C//DTD SVG 1.1//EN" "http://www.w3.org/Graphics/SVG/1.1/DTD/svg11.dtd" >
<svg xmlns="http://www.w3.org/2000/svg" xmlns:xlink="http://www.w3.org/1999/xlink" version="1.1" viewBox="-10 0 538 1000">
  <g transform="matrix(1 0 0 -1 0 800)">
   <path fill="currentColor"
d="M20 0zM69 32.5q-49 44.5 -49 136.5q0 99 34 177.5t92 122.5t126 44q96 0 145 -43t49 -143q0 -87 -31 -165t-89 -126t-136 -48q-92 0 -141 44.5zM281 74q17 43 26 99.5t9 143.5q0 54 -8 80t-21 33t-36 7q-11 0 -23.5 -3.5t-15.5 -6.5q-6 -9 -16 -41t-18 -83t-8 -112
q0 -62 16 -94t54 -32q25 0 41 9zM345.5 767.5q-24.5 6.5 -28.5 7.5l-87 26l-79 -31l-30 30l51 47q19 18 34 26t35 8q27 0 59 -9l109 -31l79 31l30 -30l-51 -49q-32 -32 -67 -32q-30 0 -54.5 6.5zM130 574l88 89q35 33 53.5 46.5t31.5 13.5q14 0 27.5 -13t33.5 -43l68 -97
l-41 -36l-101 66l-129 -62z" />
  </g>

</svg>
