<?xml version="1.0" standalone="no"?>
<!DOCTYPE svg PUBLIC "-//W3C//DTD SVG 1.1//EN" "http://www.w3.org/Graphics/SVG/1.1/DTD/svg11.dtd" >
<svg xmlns="http://www.w3.org/2000/svg" xmlns:xlink="http://www.w3.org/1999/xlink" version="1.1" viewBox="-22 0 590 1000">
  <g transform="matrix(1 0 0 -1 0 800)">
   <path fill="currentColor"
d="M246 247l-7 -49h128l-8 -75h-131l-6 -44l93 -14l-9 -65h-318l9 65l71 14l6 44h-66l9 75h68l52 371l-71 14l9 65h264q110 0 164.5 -39.5t54.5 -132.5q0 -54 -23.5 -105.5t-85 -87.5t-167.5 -36h-36zM291 569l-35 -248h6q68 0 101 47t33 123q0 43 -20.5 62t-62.5 19
q-12 0 -22 -3z" />
  </g>

</svg>
