<?xml version="1.0" standalone="no"?>
<!DOCTYPE svg PUBLIC "-//W3C//DTD SVG 1.1//EN" "http://www.w3.org/Graphics/SVG/1.1/DTD/svg11.dtd" >
<svg xmlns="http://www.w3.org/2000/svg" xmlns:xlink="http://www.w3.org/1999/xlink" version="1.1" viewBox="-93 0 584 1000">
  <g transform="matrix(1 0 0 -1 0 800)">
   <path fill="currentColor"
d="M0 0zM-20 -164q-29 9 -63 25v69h124l53 61v137l-27 280l-71 19v71l201 16l26 -379l-1 -44h4q58 95 83 146.5t31.5 85.5t10.5 96l-67 37l29 56q18 7 47 7q45 0 80.5 -17.5t35.5 -48.5q0 -78 -66 -191t-175 -263l-91 -125q-22 -31 -42.5 -39t-60.5 -8q-32 0 -61 9zM422 570
zM137 591q-20 21 -20 53q0 35 21.5 62t59.5 27q32 0 52.5 -21t20.5 -56t-21 -60.5t-61 -25.5q-32 0 -52 21zM347 591q-20 21 -20 53q0 35 21.5 62t59.5 27q32 0 52.5 -21t20.5 -56t-21 -60.5t-61 -25.5q-32 0 -52 21z" />
  </g>

</svg>
