<?xml version="1.0" standalone="no"?>
<!DOCTYPE svg PUBLIC "-//W3C//DTD SVG 1.1//EN" "http://www.w3.org/Graphics/SVG/1.1/DTD/svg11.dtd" >
<svg xmlns="http://www.w3.org/2000/svg" xmlns:xlink="http://www.w3.org/1999/xlink" version="1.1" viewBox="-34 0 496 1000">
  <g transform="matrix(1 0 0 -1 0 800)">
   <path fill="currentColor"
d="M156 5l-75 14l-46 -30l-59 48l268 343v9l-96 43l-25 -85h-62q-14 15 -24 39.5t-10 46.5q0 37 28 58.5t67 21.5q47 0 135 -19l84 -19l58 39l53 -46l-276 -354v-10l110 -37l25 87h58q13 -22 21 -49.5t8 -47.5q0 -34 -26.5 -51.5t-55.5 -17.5q-74 0 -160 17z" />
  </g>

</svg>
