<?xml version="1.0" standalone="no"?>
<!DOCTYPE svg PUBLIC "-//W3C//DTD SVG 1.1//EN" "http://www.w3.org/Graphics/SVG/1.1/DTD/svg11.dtd" >
<svg xmlns="http://www.w3.org/2000/svg" xmlns:xlink="http://www.w3.org/1999/xlink" version="1.1" viewBox="-10 0 510 1000">
  <g transform="matrix(1 0 0 -1 0 750)">
   <path fill="currentColor"
d="M451 223q3 0 6 -3.5t3 -12.5q0 -29 -12 -66t-36.5 -70t-63 -55.5t-91.5 -22.5h12l-51 -51q50 0 75 -25t25 -60q0 -44 -30.5 -67.5t-71.5 -23.5q-27 0 -49.5 17.5t-22.5 41.5q0 18 8.5 30.5t25.5 12.5q9 0 14.5 -4.5t7.5 -11.5t0 -15t-9 -14q-12 -10 -13 -18.5t4.5 -14.5
t15 -9.5t18.5 -3.5q28 0 38 21t10 59q0 36 -24.5 48.5t-56.5 -4.5q-6 -3 -11 3.5t5 17.5l72 71h8q-61 0 -108.5 27t-80 74t-49.5 111t-17 139t13.5 141t44 115.5t79 78t118.5 28.5q46 0 84 -13t64 -37t40.5 -58t14.5 -76q0 -62 -28.5 -86t-67.5 -13q-12 3 -23.5 14.5t-16 27
t0 34.5t22.5 37q25 24 30.5 51.5t-6.5 50.5t-41 38t-73 15q-33 0 -57 -16t-41 -43t-27 -63t-15.5 -74.5t-7.5 -78t-2 -74.5q0 -62 4.5 -120.5t20.5 -103.5t45.5 -72.5t79.5 -27.5q52 0 87.5 23t56.5 54t30 62.5t9 48.5q0 16 11 16z" />
  </g>

</svg>
