<?xml version="1.0" standalone="no"?>
<!DOCTYPE svg PUBLIC "-//W3C//DTD SVG 1.1//EN" "http://www.w3.org/Graphics/SVG/1.1/DTD/svg11.dtd" >
<svg xmlns="http://www.w3.org/2000/svg" xmlns:xlink="http://www.w3.org/1999/xlink" version="1.1" viewBox="-10 0 574 1000">
  <g transform="matrix(1 0 0 -1 0 750)">
   <path fill="currentColor"
d="M495 28q8 0 12 -4.5t4 -9.5t-4.5 -9.5t-11.5 -4.5h-55q-26 0 -48.5 5t-39 24.5t-26 57.5t-9.5 104q0 52 -6 86t-20 53.5t-37.5 27t-59.5 7.5h-60v-275q1 -22 4.5 -41.5t15.5 -19.5q8 0 12 -4.5t4 -10t-4.5 -10t-11.5 -4.5h-136q-8 0 -11.5 4.5t-3.5 10t3.5 10t11.5 4.5
q7 0 10.5 6.5t5.5 17t2.5 23t0.5 24.5v493q0 22 -3.5 42.5t-15.5 20.5q-8 0 -12 4.5t-4 10t4 10t12 4.5h174q54 0 98 -5.5t76 -20.5t49.5 -43t17.5 -73q0 -60 -34.5 -97t-94.5 -57q33 -5 53 -18t31.5 -37t15 -59t3.5 -84q0 -56 8.5 -88.5t21.5 -49t28.5 -21t29.5 -4.5z
M134 380q96 5 147 46.5t51 115.5q0 37 -11.5 61.5t-30.5 38.5t-44.5 20t-53.5 6h-58v-288z" />
  </g>

</svg>
