<?xml version="1.0" standalone="no"?>
<!DOCTYPE svg PUBLIC "-//W3C//DTD SVG 1.1//EN" "http://www.w3.org/Graphics/SVG/1.1/DTD/svg11.dtd" >
<svg xmlns="http://www.w3.org/2000/svg" xmlns:xlink="http://www.w3.org/1999/xlink" version="1.1" viewBox="-10 0 427 1000">
  <g transform="matrix(1 0 0 -1 0 750)">
   <path fill="currentColor"
d="M381 34q9 0 13 -4.5t3.5 -10.5t-4.5 -10.5t-12 -4.5h-100q-7 0 -11.5 4.5t-5.5 10.5v20q-19 -18 -44.5 -29t-67.5 -11q-22 0 -45 7.5t-41.5 23t-30.5 38.5t-12 54q0 36 16.5 62t44 43.5t62.5 25.5t71 8q15 0 27 -1t20 -3v71v46t-3.5 42t-13.5 30.5t-31 11.5t-41.5 -6
t-33 -17.5t-14 -27.5t15.5 -36q14 -16 16.5 -32t-3 -29t-18 -21.5t-27.5 -9.5q-31 -2 -48 15t-17 44q0 20 9 43.5t29 43.5t52.5 33.5t79.5 13.5q75 0 108.5 -35t33.5 -110l1 -222q0 -12 1 -24.5t3.5 -23t7 -17t10.5 -6.5zM188 23q26 0 45 12t31 24v178q-6 4 -17.5 7t-29.5 3
q-50 0 -74.5 -34t-24.5 -91q0 -51 18.5 -75t51.5 -24zM302 608q-12 -17 -36 -30.5t-49 -22.5t-45.5 -14t-26.5 -6q-12 -2 -12 4q-1 4 9 10q5 2 14 7.5t21 16.5t27.5 29.5t33.5 47.5q9 14 24 17t29 -5t17 -23.5t-5 -29.5z" />
  </g>

</svg>
