<?xml version="1.0" standalone="no"?>
<!DOCTYPE svg PUBLIC "-//W3C//DTD SVG 1.1//EN" "http://www.w3.org/Graphics/SVG/1.1/DTD/svg11.dtd" >
<svg xmlns="http://www.w3.org/2000/svg" xmlns:xlink="http://www.w3.org/1999/xlink" version="1.1" viewBox="-10 0 643 1000">
  <g transform="matrix(1 0 0 -1 0 750)">
   <path fill="currentColor"
d="M608 470q6 0 10.5 -4.5t4.5 -10.5t-4.5 -10.5t-10.5 -4.5h-84v-335q0 -22 6 -35.5t15 -21.5t18.5 -11t16.5 -3q8 0 12 -4.5t4 -10t-4.5 -10t-11.5 -4.5h-56q-41 0 -69.5 28t-28.5 69v338h-62q-6 0 -10 4.5t-4 10.5t4 10.5t10 4.5q14 0 37.5 11t46.5 31v-1q7 7 15.5 25
t14.5 40t6.5 45.5t-8 43t-28.5 32t-56 12.5q-43 0 -68.5 -17.5t-37 -45t-12 -61.5t6.5 -66.5t18.5 -60.5t24.5 -43q2 -1 2.5 -2t2.5 -2q29 -35 29 -77q0 -27 -12.5 -45t-44.5 -18q-10 0 -21.5 4t-19.5 14.5t-8.5 28t11.5 43.5q6 13 8 28.5t-4.5 29t-23.5 22t-48 8.5
q-37 0 -55.5 -21.5t-26 -54t-8 -70.5t-0.5 -71q0 -30 0.5 -66t8 -67.5t26.5 -52.5t56 -21q38 0 65.5 13.5t45.5 33t26.5 42t8.5 41.5q0 8 8 8t8 -8q0 -24 -11 -51t-31.5 -50.5t-50.5 -39t-69 -15.5q-102 0 -148 62.5t-46 177.5q0 49 15.5 90.5t42 71t61.5 46t74 16.5
q26 0 48 -5t40 -13q-9 16 -16.5 42.5t-10 57.5t1.5 63t19 58t42 42.5t71 16.5q26 0 50 -7.5t42.5 -23.5t30 -41t11.5 -59v-89q0 -22 9.5 -28.5t25.5 -6.5h49v0z" />
  </g>

</svg>
