<?xml version="1.0" standalone="no"?>
<!DOCTYPE svg PUBLIC "-//W3C//DTD SVG 1.1//EN" "http://www.w3.org/Graphics/SVG/1.1/DTD/svg11.dtd" >
<svg xmlns="http://www.w3.org/2000/svg" xmlns:xlink="http://www.w3.org/1999/xlink" version="1.1" viewBox="-10 0 394 1000">
  <g transform="matrix(1 0 0 -1 0 750)">
   <path fill="currentColor"
d="M346 160q8 0 8 -8q0 -23 -10.5 -50t-30 -50t-48 -39t-65.5 -17l-35 -35q50 0 75 -25t25 -60q0 -44 -30.5 -67.5t-71.5 -23.5q-27 0 -49.5 17.5t-22.5 41.5q0 18 8.5 30t25.5 12t22 -15.5t-9 -28.5q-12 -10 -13 -18.5t4.5 -15t15 -10t18.5 -3.5q28 0 38 21.5t10 59.5
q0 36 -24.5 48.5t-56.5 -5.5q-6 -2 -11 4.5t5 17.5l56 55q-94 5 -136 66.5t-42 173.5q0 49 15.5 90.5t41.5 70.5t60.5 45.5t73.5 16.5q41 0 71 -11t50 -29t30 -41t10 -47q0 -27 -12.5 -45.5t-43.5 -18.5q-10 0 -21.5 4.5t-19 15t-8.5 27.5t11 43q6 14 8 29.5t-4 29t-23 22
t-48 8.5q-36 0 -54.5 -21.5t-26 -54t-8 -71t-0.5 -71.5q0 -30 0.5 -65.5t8 -67t26 -52.5t54.5 -21q38 0 65.5 13t45 32.5t26 42.5t8.5 42q0 8 8 8z" />
  </g>

</svg>
