<?xml version="1.0" standalone="no"?>
<!DOCTYPE svg PUBLIC "-//W3C//DTD SVG 1.1//EN" "http://www.w3.org/Graphics/SVG/1.1/DTD/svg11.dtd" >
<svg xmlns="http://www.w3.org/2000/svg" xmlns:xlink="http://www.w3.org/1999/xlink" version="1.1" viewBox="-10 0 427 1000">
  <g transform="matrix(1 0 0 -1 0 750)">
   <path fill="currentColor"
d="M388 29q9 0 12.5 -4.5t3.5 -10t-4.5 -10t-11.5 -4.5h-99q-15 0 -17 15v33q-6 -8 -15.5 -17.5t-23.5 -18t-33 -14t-43 -5.5q-16 0 -39 8t-44 33.5t-36 71.5t-15 123q0 76 15 123t36 73t44 35t39 9q25 0 44 -6t33 -15t23.5 -19t15.5 -18v207q0 6 -3 11t-7 9t-10 7
q-8 4 -12 9q-3 5 -2 10t14 11q29 14 55.5 24t33.5 12q9 3 14.5 5t8.5 1t4 -6.5t1 -17.5v-75q0 -129 -0.5 -217t-0.5 -145.5v-88.5v-45.5v-17.5v-4q0 -12 0.5 -24.5t2.5 -23t6 -17t10 -6.5zM186 13q18 0 32 6t24.5 15.5t17.5 21t12 21.5l1 305q-5 11 -12.5 22.5t-18 21.5
t-24.5 16t-32 6q-24 0 -37 -19.5t-19.5 -51t-8 -70.5t-1.5 -78t1.5 -77.5t8 -69.5t19.5 -50t37 -19z" />
  </g>

</svg>
