<?xml version="1.0" standalone="no"?>
<!DOCTYPE svg PUBLIC "-//W3C//DTD SVG 1.1//EN" "http://www.w3.org/Graphics/SVG/1.1/DTD/svg11.dtd" >
<svg xmlns="http://www.w3.org/2000/svg" xmlns:xlink="http://www.w3.org/1999/xlink" version="1.1" viewBox="-10 0 395 1000">
  <g transform="matrix(1 0 0 -1 0 750)">
   <path fill="currentColor"
d="M368 356q0 -39 -14 -65t-36 -41.5t-49.5 -23t-54.5 -10.5t-51 -2.5t-39 0.5q0 -29 3.5 -62.5t14 -62.5t28.5 -48t47 -19q39 0 64.5 11.5t40.5 29t21.5 38t6.5 39.5q0 7 8 7q7 0 7 -7q0 -35 -12 -62.5t-32 -46.5t-47 -29t-58 -10q-52 -1 -88 19t-58.5 54t-33.5 79t-12 96
q-1 49 13 91.5t40 73.5t61.5 48.5t76.5 17.5q75 0 114 -32.5t39 -82.5zM124 231q12 0 36 3t49 16t43.5 37.5t18.5 68.5t-13.5 74t-42.5 30q-24 0 -40.5 -15t-26.5 -38t-15 -50.5t-7 -53t-2 -45.5v-27z" />
  </g>

</svg>
