<?xml version="1.0" standalone="no"?>
<!DOCTYPE svg PUBLIC "-//W3C//DTD SVG 1.1//EN" "http://www.w3.org/Graphics/SVG/1.1/DTD/svg11.dtd" >
<svg xmlns="http://www.w3.org/2000/svg" xmlns:xlink="http://www.w3.org/1999/xlink" version="1.1" viewBox="-10 0 395 1000">
  <g transform="matrix(1 0 0 -1 0 750)">
   <path fill="currentColor"
d="M348 154q7 0 7 -7v-1q0 -35 -12 -62.5t-32 -46t-47 -28.5t-58 -10q-52 -1 -88 17t-58.5 50.5t-33.5 76t-12 94.5q-1 49 13 91.5t40 73.5t61.5 48.5t76.5 17.5q75 0 114 -32.5t39 -82.5q0 -39 -14 -64t-36 -40t-49.5 -21t-54.5 -7.5t-51 -0.5t-39 1q0 -29 3.5 -62.5
t14 -62.5t28.5 -48t47 -19q39 0 64.5 11.5t40.5 29t21.5 38t6.5 39.5q0 7 7 7h1zM205 457q-24 0 -40.5 -14t-26.5 -36t-15 -48.5t-7 -51t-2 -43.5v-26q12 0 36.5 1.5t49 12.5t43.5 34t19 67t-14 74t-43 30zM341 549q10 -6 9 -10q0 -6 -12 -4q-5 1 -19 5.5t-32.5 11
t-38.5 15.5t-37 20q-17 -11 -37.5 -20t-39 -15.5t-33 -11t-18.5 -5.5q-12 -2 -12 4q-1 4 9 10q5 2 14 7.5t21 16.5t27.5 29.5t33.5 47.5q6 9 15 15t20 5q10 1 19 -5t15 -15q18 -29 33.5 -47.5t27.5 -29.5t21 -16.5t14 -7.5z" />
  </g>

</svg>
