<?xml version="1.0" standalone="no"?>
<!DOCTYPE svg PUBLIC "-//W3C//DTD SVG 1.1//EN" "http://www.w3.org/Graphics/SVG/1.1/DTD/svg11.dtd" >
<svg xmlns="http://www.w3.org/2000/svg" xmlns:xlink="http://www.w3.org/1999/xlink" version="1.1" viewBox="-10 0 674 1000">
  <g transform="matrix(1 0 0 -1 0 750)">
   <path fill="currentColor"
d="M622 29q14 0 14 -14t-14 -14h-132q-13 0 -13 14t13 14q6 0 9.5 6t2.5 10q-1 15 -11.5 42.5t-24 58.5t-27 58.5t-20.5 42.5l-45 -50v-82v-26t1.5 -28.5t5.5 -23t12 -9.5t12 -4.5t4 -10t-4.5 -10t-11.5 -4.5h-136q-8 0 -12 4.5t-4 10t4 10t12 4.5t12 9.5t6 23t2 28.5v26
v319h-101v-321v-27t2 -27.5t5.5 -21.5t11.5 -9t12 -4.5t4 -10t-4.5 -10t-11.5 -4.5h-136q-8 0 -12 4.5t-4 10t4 10t12 4.5t12 9t6 21.5t2 27.5v27v321h-62q-6 0 -10.5 4t-4.5 11q0 6 4.5 10t10.5 4h26q36 2 36 35q0 59 9.5 100t27.5 66.5t43.5 37t58.5 11.5q23 0 38.5 -7.5
t26.5 -18.5q22 10 40 16t23 8q18 6 23 6t5 -23v-466l163 169q8 7 6 13q-2 5 -13 9.5t-41 4.5q-14 0 -14 14q0 13 14 13h125q14 0 14 -13q0 -14 -14 -14q-11 0 -21 -4.5t-18 -9.5q-9 -6 -17 -13l-72 -77q4 -11 14 -35.5t22 -54t25.5 -62t24.5 -59.5t19.5 -46t10.5 -22
q9 -12 17 -12h3zM277 624q0 8 -2.5 20.5t-8.5 24t-17.5 19.5t-30.5 8q-15 0 -23.5 -7.5t-12.5 -18.5t-5 -22.5t-1 -18.5v-131q2 -20 10.5 -27t24.5 -8h66v161z" />
  </g>

</svg>
