<?xml version="1.0" standalone="no"?>
<!DOCTYPE svg PUBLIC "-//W3C//DTD SVG 1.1//EN" "http://www.w3.org/Graphics/SVG/1.1/DTD/svg11.dtd" >
<svg xmlns="http://www.w3.org/2000/svg" xmlns:xlink="http://www.w3.org/1999/xlink" version="1.1" viewBox="-10 0 685 1000">
  <g transform="matrix(1 0 0 -1 0 750)">
   <path fill="currentColor"
d="M516 457q16 0 39 -7t44 -31t36 -69.5t15 -121.5t-15 -123t-36 -73.5t-44 -35.5t-39 -9q-30 0 -52 8.5t-36.5 20.5t-23 24t-12.5 20v-46q-1 -6 -5.5 -10.5t-11.5 -4.5h-99q-8 0 -12 4.5t-4 10t4 10t12 4.5q7 0 10.5 6.5t5.5 17t2.5 23t0.5 24.5v335h-100v-321v-27t2 -27.5
t5.5 -21.5t11.5 -9t12 -4.5t4 -10t-4.5 -10t-11.5 -4.5h-136q-8 0 -12 4.5t-4 10t4 10t12 4.5t12 9t6 21.5t2 27.5v27v321h-62q-6 0 -10.5 4t-4.5 11q0 6 4.5 10t10.5 4h26q36 2 36 35q0 59 9.5 100t27.5 66.5t43.5 37t58.5 11.5q24 0 39.5 -7.5t25.5 -19.5q22 10 39.5 16
t22.5 8q18 6 23 6t5 -23v-298q4 7 12 17.5t23 20.5t36.5 17t52.5 7zM487 8q24 0 37 20t19.5 51.5t8 70.5t1.5 78t-1.5 76t-8 66.5t-19.5 47.5t-37 18t-40.5 -8.5t-27.5 -20.5t-17.5 -26t-9.5 -25v-258q3 -11 10 -26.5t18 -29.5t27.5 -24t39.5 -10zM295 633q-1 9 -4 20
t-9.5 20.5t-17.5 16t-27 6.5q-15 0 -23.5 -7.5t-12.5 -18.5t-5 -22.5t-1 -18.5v-131q2 -20 10.5 -27t24.5 -8h65v170z" />
  </g>

</svg>
