<?xml version="1.0" standalone="no"?>
<!DOCTYPE svg PUBLIC "-//W3C//DTD SVG 1.1//EN" "http://www.w3.org/Graphics/SVG/1.1/DTD/svg11.dtd" >
<svg xmlns="http://www.w3.org/2000/svg" xmlns:xlink="http://www.w3.org/1999/xlink" version="1.1" viewBox="-10 0 641 1000">
  <g transform="matrix(1 0 0 -1 0 750)">
   <path fill="currentColor"
d="M591 28q9 0 12.5 -4.5t3.5 -10t-4.5 -10t-11.5 -4.5h-135q-8 0 -12 4.5t-4 10t3.5 10t12.5 4.5q8 0 12 10t5.5 24t1.5 29.5v26.5v13h-1v303h-103v-321v-27t1.5 -27.5t5.5 -21.5t12 -9t12 -4.5t4 -10t-4.5 -10t-11.5 -4.5h-136q-8 0 -12 4.5t-4 10t4 10t12 4.5t12 9
t6 21.5t2 27.5v27v321h-98v-321v-27t2 -27.5t5.5 -21.5t11.5 -9t12 -4.5t4 -10t-4.5 -10t-11.5 -4.5h-136q-8 0 -12 4.5t-4 10t4 10t12 4.5t12 9t6 21.5t2 27.5v27v321h-62q-6 0 -10.5 4t-4.5 11q0 6 4.5 10t10.5 4h26q36 2 36 35q0 59 9.5 100t27.5 66.5t43.5 37t58.5 11.5
q38 0 59.5 -15t32.5 -35q17 26 43.5 38t59.5 12q23 0 39 -7.5t27 -19.5q2 2 8 4q20 8 35.5 13.5t20.5 7.5q18 6 23 6t5 -23v-549h1v-27v-26.5t1.5 -29.5t5.5 -24t12 -10zM238 463q36 2 36 35q0 61 10 101q1 11 1 27.5t-6 32t-20 26.5t-41 11q-15 0 -23.5 -7.5t-12.5 -18.5
t-5 -22.5t-1 -18.5v-131q2 -20 10.5 -27t24.5 -8h27zM474 617q0 6 -1.5 19t-8 26.5t-18.5 23.5t-33 10q-15 0 -23.5 -7.5t-12.5 -18.5t-5 -22.5t-1 -18.5v-131q1 -20 10 -27t25 -8h68v154z" />
  </g>

</svg>
