<?xml version="1.0" standalone="no"?>
<!DOCTYPE svg PUBLIC "-//W3C//DTD SVG 1.1//EN" "http://www.w3.org/Graphics/SVG/1.1/DTD/svg11.dtd" >
<svg xmlns="http://www.w3.org/2000/svg" xmlns:xlink="http://www.w3.org/1999/xlink" version="1.1" viewBox="-10 0 724 1000">
  <g transform="matrix(1 0 0 -1 0 750)">
   <path fill="currentColor"
d="M670 464q6 0 10.5 -4.5t4.5 -10.5t-4.5 -10t-10.5 -4h-82v-336q0 -22 6 -35.5t14.5 -21.5t18 -11t15.5 -3q9 0 12.5 -4.5t3.5 -10t-4.5 -10t-11.5 -4.5h-54q-41 0 -69 28t-28 69v339h-6q-1 -1 -4 -1h-110v-321q0 -3 -0.5 -6t-0.5 -6q0 -12 1 -25t3 -23.5t5.5 -17
t10.5 -6.5q8 0 12 -4.5t4 -10.5q0 -5 -4 -10t-12 -5h-136q-8 0 -12 5t-4 10q0 6 4 10.5t12 4.5q7 0 11 6.5t6 17t2.5 23.5t0.5 25v333h-98v-321v-27t2 -27.5t5.5 -21.5t11.5 -9t12 -4.5t4 -10t-4.5 -10t-11.5 -4.5h-136q-8 0 -12 4.5t-4 10t4 10t12 4.5t12 9t6 21.5t2 27.5
v27v321h-62q-6 0 -10.5 4t-4.5 11q0 6 4.5 10t10.5 4h26q36 2 36 35q0 59 9.5 100t27.5 66.5t43.5 37t58.5 11.5q37 0 58.5 -14.5t32.5 -34.5q18 27 44 38.5t60 11.5q41 0 64.5 -14t35 -34t14.5 -42t3 -38q0 -22 -13 -38.5t-38 -17.5q-9 0 -20.5 4t-20.5 12.5t-11.5 21.5
t6.5 30q13 22 19.5 42t4.5 35q-7 9 -17.5 15t-26.5 6q-15 0 -23.5 -7.5t-12.5 -18.5t-5 -22.5t-1 -18.5v-131q1 -20 10 -26.5t25 -7.5h29q39 1 63 11t37.5 26.5t18 38.5t4.5 46q0 6 4.5 10.5t10.5 4.5t10.5 -4.5t4.5 -10.5v-86q0 -23 9 -29.5t25 -6.5h48zM176 498
q1 -19 9 -26t22 -9q2 1 4 1h27q17 1 26 10t10 22v2q0 66 10 107q1 12 0.5 27.5t-7 30t-20.5 24t-39 9.5q-15 0 -23.5 -7.5t-12.5 -18.5t-5 -22.5t-1 -18.5v-131z" />
  </g>

</svg>
