<?xml version="1.0" standalone="no"?>
<!DOCTYPE svg PUBLIC "-//W3C//DTD SVG 1.1//EN" "http://www.w3.org/Graphics/SVG/1.1/DTD/svg11.dtd" >
<svg xmlns="http://www.w3.org/2000/svg" xmlns:xlink="http://www.w3.org/1999/xlink" version="1.1" viewBox="-10 0 602 1000">
  <g transform="matrix(1 0 0 -1 0 750)">
   <path fill="currentColor"
d="M444 504q-21 21 -42.5 17t-40 -19.5t-33 -35.5t-20.5 -30q28 -24 46.5 -60t18.5 -86v-12q0 -56 -22.5 -94.5t-55.5 -61.5q27 -11 48.5 -41t28.5 -69.5t-4 -82.5t-48 -80q-24 -24 -57 -38.5t-68 -19t-70 1t-62 22t-44 44t-17 67.5q0 15 4.5 32.5t15 34.5t27.5 33t43 27
q20 9 39.5 9t34.5 -6t24.5 -17.5t9.5 -26.5q0 -12 -5.5 -25t-17 -21t-28 -8.5t-38.5 11.5q-11 6 -27 9.5t-30.5 0.5t-24.5 -15t-10 -38q0 -38 22 -60t57 -25.5t78 14t84 58.5q24 24 37.5 55t16.5 60.5t-5.5 52.5t-28.5 32q-22 -13 -44.5 -19t-43.5 -6q-28 0 -59.5 11.5
t-58.5 35t-44.5 59.5t-17.5 84v12q0 48 17.5 84t44.5 59.5t58.5 35t59.5 11.5q23 0 49 -7.5t49 -23.5q6 10 22.5 34t40 49t52.5 44t61 19q34 0 49 -13.5t15 -39.5q0 -18 -9 -30.5t-22 -18.5t-28 -4t-27 15zM192 102q37 0 57.5 42.5t20.5 133.5q0 2 -0.5 3t-0.5 3t0.5 3
t0.5 3q0 90 -20 132.5t-57 42.5h-1q-37 0 -57 -42.5t-20 -132.5v-12q0 -91 19.5 -133.5t57.5 -42.5zM559 27q8 0 12 -4.5t4 -10t-4.5 -10t-11.5 -4.5h-136q-8 0 -12 4.5t-4 10t4 10t12 4.5q12 0 17 19t6 40v283q0 6 -3.5 11t-8.5 9t-11 7q-8 4 -12 9q-3 5 -2 10t14 11
q29 14 56 24t33 12q18 6 21.5 6t3.5 -23v-363q1 -21 6 -38t16 -17z" />
  </g>

</svg>
