<?xml version="1.0" standalone="no"?>
<!DOCTYPE svg PUBLIC "-//W3C//DTD SVG 1.1//EN" "http://www.w3.org/Graphics/SVG/1.1/DTD/svg11.dtd" >
<svg xmlns="http://www.w3.org/2000/svg" xmlns:xlink="http://www.w3.org/1999/xlink" version="1.1" viewBox="-10 0 239 1000">
  <g transform="matrix(1 0 0 -1 0 750)">
   <path fill="currentColor"
d="M182 29q8 0 12 -4.5t4 -10t-4.5 -10t-11.5 -4.5h-136q-8 0 -12 4.5t-4 10t4 10t12 4.5q12 0 17 19t6 40v284q0 6 -3.5 10.5t-8.5 8.5t-11 8q-8 4 -12 9q-3 5 -2 10t14 11q29 14 56 24t33 12q9 3 14 4.5t7.5 0.5t3 -6t0.5 -17v-363q1 -20 6 -37.5t16 -17.5zM32 610
q-8 14 -5 29.5t17 23.5t29.5 5t23.5 -17q18 -29 33.5 -47.5t27.5 -29.5t21 -16.5t14 -7.5q10 -6 9 -10q0 -6 -12 -4q-6 1 -26.5 6t-45.5 14t-49 22.5t-36 30.5z" />
  </g>

</svg>
