<?xml version="1.0" standalone="no"?>
<!DOCTYPE svg PUBLIC "-//W3C//DTD SVG 1.1//EN" "http://www.w3.org/Graphics/SVG/1.1/DTD/svg11.dtd" >
<svg xmlns="http://www.w3.org/2000/svg" xmlns:xlink="http://www.w3.org/1999/xlink" version="1.1" viewBox="-10 0 396 1000">
  <g transform="matrix(1 0 0 -1 0 750)">
   <path fill="currentColor"
d="M197 469q20 0 49.5 -8.5t56.5 -34.5t46.5 -73t19.5 -125v-2q0 -77 -19.5 -123t-46.5 -70.5t-56.5 -32t-49.5 -7.5t-49.5 7.5t-56.5 32t-46.5 70.5t-19.5 123v2q0 78 19.5 125t46.5 73t56.5 34.5t49.5 8.5zM272 226q0 42 -1.5 83t-9 73.5t-22.5 53t-42 20.5t-42 -20.5
t-22.5 -53t-9 -73t-1.5 -81.5v-2q0 -41 1.5 -80.5t9 -70.5t22.5 -50t42 -19t42 19t22.5 50t9 70.5t1.5 80.5z" />
  </g>

</svg>
