<?xml version="1.0" standalone="no"?>
<!DOCTYPE svg PUBLIC "-//W3C//DTD SVG 1.1//EN" "http://www.w3.org/Graphics/SVG/1.1/DTD/svg11.dtd" >
<svg xmlns="http://www.w3.org/2000/svg" xmlns:xlink="http://www.w3.org/1999/xlink" version="1.1" viewBox="-10 0 447 1000">
  <g transform="matrix(1 0 0 -1 0 750)">
   <path fill="currentColor"
d="M381 -70v-29.5t2 -36.5t5.5 -31t10.5 -13q8 0 12 -4.5t4 -10.5t-4.5 -10.5t-11.5 -4.5h-136q-8 0 -12 4.5t-4 10.5t4 10.5t12 4.5q7 0 11 13.5t6 32t3 37.5t1 29v122q-6 -8 -15.5 -18.5t-23.5 -19.5t-33 -15.5t-44 -6.5q-16 0 -39 9t-44 35t-36 73t-15 123t15 122.5
t36 71.5t44 33t39 8q24 0 42 -5.5t32 -13t23.5 -17t15.5 -16.5q1 12 4 25t11 21q9 9 21 10t25.5 -3t28.5 -10.5t30 -13.5q12 -6 13 -11t-2 -10q-4 -5 -12 -9q-6 -4 -10 -8q-9 -9 -9 -19v-459zM197 15q18 0 32 7t24.5 17t18 22t12.5 23v301q-5 10 -12.5 21t-18 20.5
t-24.5 15.5t-32 6q-24 0 -37 -19t-19.5 -49.5t-8 -68.5t-1.5 -77t1.5 -78t8 -70.5t19.5 -51t37 -19.5z" />
  </g>

</svg>
