<?xml version="1.0" standalone="no"?>
<!DOCTYPE svg PUBLIC "-//W3C//DTD SVG 1.1//EN" "http://www.w3.org/Graphics/SVG/1.1/DTD/svg11.dtd" >
<svg xmlns="http://www.w3.org/2000/svg" xmlns:xlink="http://www.w3.org/1999/xlink" version="1.1" viewBox="-10 0 503 1000">
  <g transform="matrix(1 0 0 -1 0 750)">
   <path fill="currentColor"
d="M259 394q45 0 81 -10.5t61.5 -33.5t39.5 -60t14 -89q0 -102 -49.5 -156t-157.5 -54q-59 0 -99.5 24t-66 69t-37 109.5t-11.5 145.5q0 89 17 156t47 112t70 67.5t85 22.5q31 0 65 -8t61.5 -27.5t45.5 -53t18 -85.5q0 -63 -28.5 -86t-67.5 -12q-12 3 -23.5 14t-16 27
t0 34.5t22.5 36.5q25 25 32.5 51t-2.5 47t-36.5 34.5t-70.5 13.5q-33 0 -54 -17t-33.5 -45.5t-18.5 -65t-7.5 -75t-1 -75.5t0.5 -67q0 1 6 10t20 19t37 18.5t57 8.5zM248 9q38 0 60 11t33 34.5t14 60t3 86.5q0 33 -1.5 64t-10.5 54t-29.5 37t-58.5 14t-61.5 -14t-36 -37
t-17 -53.5t-4.5 -64.5q0 -101 25.5 -146.5t83.5 -45.5z" />
  </g>

</svg>
