<?xml version="1.0" standalone="no"?>
<!DOCTYPE svg PUBLIC "-//W3C//DTD SVG 1.1//EN" "http://www.w3.org/Graphics/SVG/1.1/DTD/svg11.dtd" >
<svg xmlns="http://www.w3.org/2000/svg" xmlns:xlink="http://www.w3.org/1999/xlink" version="1.1" viewBox="-10 0 436 1000">
  <g transform="matrix(1 0 0 -1 0 750)">
   <path fill="currentColor"
d="M389 30q8 0 12 -4.5t4 -10.5t-4.5 -10.5t-11.5 -4.5h-99q-7 0 -11.5 4.5t-5.5 10.5v59q-5 -8 -15.5 -21.5t-28 -27t-41 -23t-53.5 -9.5t-47.5 10t-27 25.5t-12 34.5t-2.5 37v268q0 6 -3 11t-7 9t-9 7q-9 4 -13 9q-3 5 -1.5 10t13.5 11q15 7 29.5 13.5t27 12t21.5 9
t12 4.5q14 6 16.5 1t2.5 -18v-347q0 -12 1 -23.5t5 -21t13 -15t26 -5.5q21 0 36.5 7.5t27 18t18.5 21.5t11 19v267q0 6 -3 11t-7 9t-9 7q-9 4 -13 9q-3 5 -1.5 10t13.5 11q30 14 56.5 25.5t33.5 13.5q17 6 22 3t5 -20v-343l0.5 -12t2.5 -25.5t6 -25t10 -11.5z" />
  </g>

</svg>
