<?xml version="1.0" standalone="no"?>
<!DOCTYPE svg PUBLIC "-//W3C//DTD SVG 1.1//EN" "http://www.w3.org/Graphics/SVG/1.1/DTD/svg11.dtd" >
<svg xmlns="http://www.w3.org/2000/svg" xmlns:xlink="http://www.w3.org/1999/xlink" version="1.1" viewBox="-10 0 436 1000">
  <g transform="matrix(1 0 0 -1 0 750)">
   <path fill="currentColor"
d="M175 41q21 0 36.5 7t27 17.5t18.5 21t11 18.5v267q0 6 -3 11t-7 9t-9 7q-9 4 -13 9q-3 5 -1.5 10t13.5 11q30 14 56.5 25.5t33.5 13.5q17 6 22 3t5 -20v-343q0 -21 3 -37q2 -14 5.5 -25.5t10.5 -11.5q8 0 12 -4.5t4 -10.5t-4.5 -10.5t-11.5 -4.5h-99q-7 0 -11.5 4.5
t-5.5 10.5v60q-4 -7 -14.5 -20.5t-27.5 -26.5t-41 -23t-55 -10q-30 0 -47.5 9.5t-27 24.5t-12 34t-2.5 37v268q0 6 -3 11t-7 9t-9 7q-9 4 -13 9q-3 5 -1.5 10t13.5 11q15 7 29.5 13.5t27 12t21.5 9t12 4.5q14 6 16.5 1t2.5 -18v-347q0 -12 1 -23.5t5 -20t13 -14t26 -5.5z
M286 608q-12 -17 -36 -30.5t-49 -22.5t-45.5 -14t-26.5 -6q-12 -2 -12 4q-1 4 9 10q5 2 14 7.5t21 16.5t27.5 29.5t33.5 47.5q9 14 24 17t29 -5t17 -23.5t-5 -29.5z" />
  </g>

</svg>
