<?xml version="1.0" standalone="no"?>
<!DOCTYPE svg PUBLIC "-//W3C//DTD SVG 1.1//EN" "http://www.w3.org/Graphics/SVG/1.1/DTD/svg11.dtd" >
<svg xmlns="http://www.w3.org/2000/svg" xmlns:xlink="http://www.w3.org/1999/xlink" version="1.1" viewBox="-10 0 634 1000">
  <g transform="matrix(1 0 0 -1 0 750)">
   <path fill="currentColor"
d="M600 465q14 0 14 -13q0 -14 -14 -14q-13 0 -20.5 -4.5t-12.5 -9.5q-5 -6 -8 -14l-119 -396q-2 -5 -5.5 -13t-14.5 -8q-5 0 -8.5 3t-5.5 7q-3 4 -4 11l-99 274l-85 -274q-2 -5 -5.5 -13t-14.5 -8q-5 0 -8.5 3t-5.5 7q-3 4 -4 11l-144 412q-1 3 -4 6q-6 6 -16 6
q-14 0 -14 14q0 13 14 13h132q13 0 13 -13q0 -14 -13 -14q-8 0 -10 -3t-3 -6q-1 -4 1 -8l102 -270l53 170l-33 105q-1 3 -4 6q-6 6 -16 6q-14 0 -14 14q0 13 14 13h132q13 0 13 -13q0 -14 -13 -14q-8 0 -10 -3t-3 -6q-1 -4 1 -8l102 -270l77 259q3 8 2 14q-1 5 -5.5 9.5
t-17.5 4.5q-14 0 -14 14q0 13 14 13h84v0z" />
  </g>

</svg>
