<?xml version="1.0" standalone="no"?>
<!DOCTYPE svg PUBLIC "-//W3C//DTD SVG 1.1//EN" "http://www.w3.org/Graphics/SVG/1.1/DTD/svg11.dtd" >
<svg xmlns="http://www.w3.org/2000/svg" xmlns:xlink="http://www.w3.org/1999/xlink" version="1.1" viewBox="-10 0 630 1000">
  <g transform="matrix(1 0 0 -1 0 800)">
   <path fill="currentColor"
d="M592.18 509.35c10.7695 -86.46 -13.001 -151.95 -57.3008 -194.181c-6.20996 -5.7998 -18.6396 -16.9795 -28.1592 -23.6094c-0.410156 0 -0.410156 -0.410156 -0.820312 -0.820312c-41.8203 -27.3301 -95.2803 -42.5996 -193.4 -43.8496h-64.8398h-87.3604v-246.47
l-108.06 -0.419922v701.38l282.78 0.820312c199.57 3.30957 250.04 -135.341 257.16 -192.851zM315.148 351.1c129.59 0 162.549 59.3301 162.589 118.09c0 80.1504 -42.5195 131.99 -162.59 131.99l-154.85 -0.410156v-248.75h8.28027z" />
  </g>

</svg>
