<?xml version="1.0" standalone="no"?>
<!DOCTYPE svg PUBLIC "-//W3C//DTD SVG 1.1//EN" "http://www.w3.org/Graphics/SVG/1.1/DTD/svg11.dtd" >
<svg xmlns="http://www.w3.org/2000/svg" xmlns:xlink="http://www.w3.org/1999/xlink" version="1.1" viewBox="-10 0 871 1000">
  <g transform="matrix(1 0 0 -1 0 800)">
   <path fill="currentColor"
d="M575.55 511.94c195.01 7 232.282 -145.78 232.282 -242.21c0 -15.7305 -0.839844 -30.6406 -2.08008 -44.7109v-0.839844l-332.46 -1.24023s0 -139.94 110.54 -147.391c89.0195 -5.7998 114.689 62.9307 114.689 62.9307l101.43 -27.7402
s-47.6104 -121.72 -207.011 -121.319c-67.9102 0.419922 -118.83 19.4697 -156.09 54.6602c-7.4502 6.62012 -14.4902 14.0801 -20.7002 21.9404c-24.0098 -28.5703 -81.1602 -76.6006 -192.53 -76.6006c-218.2 0.419922 -220.681 255.88 -49.2705 291.49
c72.8701 14.9004 187.55 13.25 203.29 50.9297c4.96973 11.1699 3.30957 33.9502 -6.20996 50.9199c-17.3896 31.8799 -52.1592 40.5801 -96.0596 40.5801c-57.96 0 -86.1201 -28.9902 -92.3203 -64.1807l-102.27 19.04c37.2598 173.49 293.13 150.721 356.899 84.0605
c33.5303 29.4004 79.0801 47.6104 137.87 49.6807zM378.473 185.261c0 39.3398 -0.00195312 56.2705 -0.00195312 56.3203c-77.4297 -41.4102 -178.449 -9.53027 -212.819 -69.1504c-15.3096 -26.0801 -10.3496 -78.6699 44.3105 -91.0898
c61.6904 -14.0703 168.511 23.1895 168.511 103.92zM473.291 303.222h220.681s-1.24023 129.18 -111.38 129.6c-101.86 0.820312 -109.301 -129.6 -109.301 -129.6z" />
  </g>

</svg>
