<?xml version="1.0" standalone="no"?>
<!DOCTYPE svg PUBLIC "-//W3C//DTD SVG 1.1//EN" "http://www.w3.org/Graphics/SVG/1.1/DTD/svg11.dtd" >
<svg xmlns="http://www.w3.org/2000/svg" xmlns:xlink="http://www.w3.org/1999/xlink" version="1.1" viewBox="-10 0 553 1000">
  <g transform="matrix(1 0 0 -1 0 800)">
   <path fill="currentColor"
d="M385.95 146.81l104.339 -24.4189s-31.4697 -116.35 -171.41 -132.08v-97.3398h-81.9805v98.9902c-111.79 18.2305 -184.66 101.45 -184.66 267.061c0 143.26 70.3799 229.38 184.66 248.01v105.7h81.9805v-103.63c130.83 -16.1504 165.61 -127.94 165.61 -127.94
l-104.34 -27.7402s-10.3496 49.6797 -61.2695 67.8994v-341.99c55.4805 17.3896 67.0703 67.4795 67.0703 67.4795zM236.899 80.1504l-0.000976562 340.341c-50.5098 -20.7002 -74.9395 -81.1406 -77.4297 -163.95c0 -95.2305 28.9805 -155.681 77.4307 -176.391z" />
  </g>

</svg>
