<?xml version="1.0" standalone="no"?>
<!DOCTYPE svg PUBLIC "-//W3C//DTD SVG 1.1//EN" "http://www.w3.org/Graphics/SVG/1.1/DTD/svg11.dtd" >
<svg xmlns="http://www.w3.org/2000/svg" xmlns:xlink="http://www.w3.org/1999/xlink" version="1.1" viewBox="-10 0 636 1000">
  <g transform="matrix(1 0 0 -1 0 800)">
   <path fill="currentColor"
d="M573.1 187.09c7.86035 -116.76 -91.9219 -182.169 -204.542 -197.909v-84.0498h-111.37v84.0498c-57.9697 7.87012 -110.97 29.4004 -145.34 63.7607c-36.8398 36.0303 -54.2402 80.7402 -59.6104 112.21l110.13 17.3896s7.04004 -61.7002 94.8203 -83.6406v214.06
c-54.2402 18.21 -91.9199 35.5996 -130.02 65.4199c-103.51 81.1504 -55.0596 230.2 0.830078 271.61c36.0303 32.7002 82.8105 49.2705 129.19 56.3008v83.6396h111.37v-84.8799c18.6299 -3.30957 35.2002 -7.85938 48.0303 -12.8291
c20.29 -7.87012 125.45 -43.0605 147.391 -178.87l-118.83 -14.4805c0 2.46973 -0.410156 40.1494 -25.6699 70.7891c-12.4102 14.9102 -30.2197 25.6699 -50.9199 32.71v-211.16c11.5898 -3.73047 23.1895 -7.4502 35.1992 -12.0098
c85.2803 -29.4004 160.641 -73.2803 169.341 -192.11zM257.188 428.471l0.000976562 177.22c-7.45996 -1.66016 -14.9102 -4.15039 -21.5303 -7.04004c-48.4502 -20.29 -80.7402 -75.3604 -43.0605 -127.53c12.8301 -17.7998 35.5996 -31.0498 64.5898 -42.6494z
M368.559 96.0107c84.46 19.04 109.31 90.6699 72.46 135.8c-18.6299 22.3604 -44.7197 36.4307 -72.46 47.2002v-183z" />
  </g>

</svg>
