<?xml version="1.0" standalone="no"?>
<!DOCTYPE svg PUBLIC "-//W3C//DTD SVG 1.1//EN" "http://www.w3.org/Graphics/SVG/1.1/DTD/svg11.dtd" >
<svg xmlns="http://www.w3.org/2000/svg" xmlns:xlink="http://www.w3.org/1999/xlink" version="1.1" viewBox="-10 0 526 1000">
  <g transform="matrix(1 0 0 -1 0 800)">
   <path fill="currentColor"
d="M248.82 512.54c195.01 6.66016 232.269 -145.748 232.269 -242.218c0 -15.7305 -0.830078 -30.6309 -2.07031 -44.7109v-0.830078l-332.47 -1.24023s-0.25 -134.9 110.34 -141.891c87.6104 -5.5498 114.86 57.4199 114.891 57.4199l101.44 -27.7305
s-47.6104 -121.73 -207.021 -121.32c-103.51 0.419922 -164.819 48.1104 -202.739 125.21c-59.0098 119.9 -44.0195 389.44 185.36 397.311zM146.55 303.862h220.68s-1.08008 123.68 -111.21 124.09c-101.85 0.830078 -109.47 -124.09 -109.47 -124.09z" />
  </g>

</svg>
