<?xml version="1.0" standalone="no"?>
<!DOCTYPE svg PUBLIC "-//W3C//DTD SVG 1.1//EN" "http://www.w3.org/Graphics/SVG/1.1/DTD/svg11.dtd" >
<svg xmlns="http://www.w3.org/2000/svg" xmlns:xlink="http://www.w3.org/1999/xlink" version="1.1" viewBox="-10 0 872 1000">
  <g transform="matrix(1 0 0 -1 0 800)">
   <path fill="currentColor"
d="M795.18 397.6c11.2598 -38.3398 14.3301 -114.65 14.3301 -174.351v-222.68h-106.37l-2.07031 278.23c0.0800781 98.4199 -30.1396 155.77 -107.939 151.71c-43.4297 -2.32031 -90.6299 -26.9102 -103.88 -73.3701c-3.34961 -11.7998 -5.5498 -25.1299 -6.87012 -39.7402
c-1.25 -13.5801 -1.78027 -28.3301 -1.86035 -43.8496l0.320312 -272.98h-102.3v0.339844l-1.32031 178.16l-0.75 99.7305c0.120117 98.4199 -30.1494 155.77 -107.899 151.71c-43.4697 -2.26953 -90.6299 -32.75 -103.93 -79.21
c-6.4502 -22.7598 -8.57031 -51.3799 -8.73047 -83.5898l0.330078 -267.14l-103.42 0.339844l-0.580078 504.96l100.02 0.0302734l0.549805 -72.9902s32.46 78.8398 150.5 81.8096c26.0801 0.660156 51 -3.22949 73.5303 -11.9199
c34.9902 -13.4902 61.2705 -39.6299 79.5801 -76.9297c0.120117 -0.290039 0.240234 -0.540039 0.370117 -0.830078c13.6699 26.96 55.2695 89.7295 166.109 89.5996c81.2803 -0.0800781 148.271 -35.2705 172.28 -117.04z" />
  </g>

</svg>
