<?xml version="1.0" standalone="no"?>
<!DOCTYPE svg PUBLIC "-//W3C//DTD SVG 1.1//EN" "http://www.w3.org/Graphics/SVG/1.1/DTD/svg11.dtd" >
<svg xmlns="http://www.w3.org/2000/svg" xmlns:xlink="http://www.w3.org/1999/xlink" version="1.1" viewBox="-10 0 562 1000">
  <g transform="matrix(1 0 0 -1 0 800)">
   <path fill="currentColor"
d="M392.57 504.25l106 -0.000976562v-672.3h-106v224.729s-40.1602 -62.9297 -132.49 -66.2393c-71.21 -2.49023 -207.84 31.0498 -207.84 256.29c0 228.54 125.45 272.021 211.99 265.811c94.3896 -7.04004 128.34 -70.7998 128.34 -70.7998v62.5098zM295.271 88.1494
c49.2695 11.1797 96.0615 59.21 96.0615 155.68c0 102.68 -34.3604 160.229 -96.4707 172.649c-100.19 20.29 -136.221 -67.4795 -136.221 -174.72c0 -102.27 46.3799 -174.31 136.63 -153.609z" />
  </g>

</svg>
