<?xml version="1.0" standalone="no"?>
<!DOCTYPE svg PUBLIC "-//W3C//DTD SVG 1.1//EN" "http://www.w3.org/Graphics/SVG/1.1/DTD/svg11.dtd" >
<svg xmlns="http://www.w3.org/2000/svg" xmlns:xlink="http://www.w3.org/1999/xlink" version="1.1" viewBox="-10 0 565 1000">
  <g transform="matrix(1 0 0 -1 0 800)">
   <path fill="currentColor"
d="M50 0zM50 244q0 118 41.5 212.5t116.5 149t171 54.5q86 0 166 -20l-23 -156h-50l-7 97q-17 10 -45.5 17t-58.5 7q-97 0 -150 -88.5t-53 -253.5q0 -117 34 -167.5t114 -50.5q33 0 62 8.5t44 20.5l31 105h50l-14 -149q-90 -41 -194 -41q-235 0 -235 255zM452 685zM264 689
l-26 35l77 59l19 15q22 17 36 27t20 10q9 0 33.5 -21t27.5 -24l68 -62l-34 -43l-107 65z" />
  </g>

</svg>
