<?xml version="1.0" standalone="no"?>
<!DOCTYPE svg PUBLIC "-//W3C//DTD SVG 1.1//EN" "http://www.w3.org/Graphics/SVG/1.1/DTD/svg11.dtd" >
<svg xmlns="http://www.w3.org/2000/svg" xmlns:xlink="http://www.w3.org/1999/xlink" version="1.1" viewBox="-10 0 419 1000">
  <g transform="matrix(1 0 0 -1 0 800)">
   <path fill="currentColor"
d="M13 0zM19 43l71 14l75 534l-69 14l6 43h235l-6 -43l-71 -14l-75 -534l69 -14l-5 -43h-236zM319 691zM149 705q-28 14 -42.5 35.5t-14.5 42.5q0 12 15.5 24.5t37.5 21.5q11 -28 35 -47t58 -19q37 0 74 20.5t62 48.5l25 -21q-27 -49 -77.5 -84.5t-107.5 -35.5q-37 0 -65 14
z" />
  </g>

</svg>
