<?xml version="1.0" standalone="no"?>
<!DOCTYPE svg PUBLIC "-//W3C//DTD SVG 1.1//EN" "http://www.w3.org/Graphics/SVG/1.1/DTD/svg11.dtd" >
<svg xmlns="http://www.w3.org/2000/svg" xmlns:xlink="http://www.w3.org/1999/xlink" version="1.1" viewBox="-10 0 790 1000">
  <g transform="matrix(1 0 0 -1 0 800)">
   <path fill="currentColor"
d="M19 43l71 14l75 534l-69 14l6 43h184l71 -457l1 -54h5l15 54l202 457h190l-5 -43l-70 -14l-77 -534l69 -14l-5 -43h-232l6 43l71 14l59 417l11 64h-5l-238 -538h-52l-84 540h-6l-4 -53l-61 -430l69 -14l-4 -43h-199z" />
  </g>

</svg>
