<?xml version="1.0" standalone="no"?>
<!DOCTYPE svg PUBLIC "-//W3C//DTD SVG 1.1//EN" "http://www.w3.org/Graphics/SVG/1.1/DTD/svg11.dtd" >
<svg xmlns="http://www.w3.org/2000/svg" xmlns:xlink="http://www.w3.org/1999/xlink" version="1.1" viewBox="-10 0 889 1000">
  <g transform="matrix(1 0 0 -1 0 800)">
   <path fill="currentColor"
d="M29 0zM86 595l-57 12l5 41h231l-5 -41l-73 -15l44 -436l2 -35h4l12 35l160 361l-13 78l-57 12l4 41h232l-5 -41l-74 -15l57 -431l4 -40h4l12 40l171 430l-76 16l5 41h196l-6 -41l-52 -14l-254 -601h-67l-64 422l-193 -422h-67zM492 679zM360 754.5q-11 11.5 -11 27.5
q0 18 9.5 32.5t25.5 22.5l174 -119l-23 -39l-138 54q-26 10 -37 21.5z" />
  </g>

</svg>
