<?xml version="1.0" standalone="no"?>
<!DOCTYPE svg PUBLIC "-//W3C//DTD SVG 1.1//EN" "http://www.w3.org/Graphics/SVG/1.1/DTD/svg11.dtd" >
<svg xmlns="http://www.w3.org/2000/svg" xmlns:xlink="http://www.w3.org/1999/xlink" version="1.1" viewBox="-52 0 641 1000">
  <g transform="matrix(1 0 0 -1 0 800)">
   <path fill="currentColor"
d="M384 648h195l-6 -43l-52 -13l-195 -252l130 -283l61 -14l-5 -43h-233l3 41l67 15v19l-87 190l-152 -196l-1 -14l61 -14l-4 -41h-208l6 43l65 16l205 265l-123 268l-55 12l5 44h240l-5 -41l-77 -15v-17l81 -177l141 181v14l-62 13z" />
  </g>

</svg>
