<?xml version="1.0" standalone="no"?>
<!DOCTYPE svg PUBLIC "-//W3C//DTD SVG 1.1//EN" "http://www.w3.org/Graphics/SVG/1.1/DTD/svg11.dtd" >
<svg xmlns="http://www.w3.org/2000/svg" xmlns:xlink="http://www.w3.org/1999/xlink" version="1.1" viewBox="-10 0 772 1000">
  <g transform="matrix(1 0 0 -1 0 800)">
   <path fill="currentColor"
d="M179.5 -70.5q-75.5 38.5 -115.5 110t-40 169.5q0 114 56.5 210.5t152.5 153t209 56.5q89 0 157.5 -35.5t106.5 -99t38 -145.5q0 -89 -24.5 -155.5t-69.5 -103t-105 -36.5q-41 0 -70.5 19.5t-38.5 52.5q-26 -29 -59 -46.5t-61 -17.5q-49 0 -77 36.5t-28 100.5t25.5 120
t67.5 89.5t91 33.5q19 0 44 -5.5t45 -13.5l28 30h42l-44 -264q-3 -10 -3 -30q0 -21 12.5 -33.5t34.5 -12.5q50 0 78 57t28 162q0 111 -60 173t-168 62q-96 0 -169 -43t-112.5 -121.5t-39.5 -183.5q0 -128 68.5 -196t197.5 -68q91 0 195 37l17 -33q-25 -22 -101 -45t-130 -23
q-103 0 -178.5 38.5zM389 143.5q23 9.5 39 24.5l29 187q-15 10 -38 16.5t-42 6.5q-17 0 -30 -2.5t-18 -7.5q-15 -16 -26 -59.5t-11 -86.5q0 -45 13.5 -66.5t41.5 -21.5q19 0 42 9.5z" />
  </g>

</svg>
