<?xml version="1.0" standalone="no"?>
<!DOCTYPE svg PUBLIC "-//W3C//DTD SVG 1.1//EN" "http://www.w3.org/Graphics/SVG/1.1/DTD/svg11.dtd" >
<svg xmlns="http://www.w3.org/2000/svg" xmlns:xlink="http://www.w3.org/1999/xlink" version="1.1" viewBox="-10 0 261 1000">
  <g transform="matrix(1 0 0 -1 0 800)">
   <path fill="currentColor"
d="M154 675q16 4 37 4q50 0 50 -35q0 -19 -12 -66q-7 -27 -71 -315l-23 -103h-56l53 507q6 4 22 8zM43 0q-14 14 -14 37q0 31 19.5 54.5t50.5 23.5q23 0 37 -14t14 -37q0 -32 -19.5 -55t-51.5 -23q-22 0 -36 14z" />
  </g>

</svg>
