<?xml version="1.0" standalone="no"?>
<!DOCTYPE svg PUBLIC "-//W3C//DTD SVG 1.1//EN" "http://www.w3.org/Graphics/SVG/1.1/DTD/svg11.dtd" >
<svg xmlns="http://www.w3.org/2000/svg" xmlns:xlink="http://www.w3.org/1999/xlink" version="1.1" viewBox="-10 0 543 1000">
  <g transform="matrix(1 0 0 -1 0 800)">
   <path fill="currentColor"
d="M49 446v34l16 27h72q19 94 83 149.5t163 55.5q48 0 69.5 -13t21.5 -41q0 -17 -10.5 -34.5t-26.5 -24.5q-76 31 -139 31q-32 0 -44 -12q-6 -5 -16 -26.5t-15 -53.5l-5 -31h252v-82l-59 -353h72v-46q-19 -12 -48.5 -21.5t-58.5 -9.5q-32 0 -46 13.5t-14 39.5q0 22 4 34
l63 346l-75 18h-98l-88 -613l-94 -11l96 624h-75z" />
  </g>

</svg>
