<?xml version="1.0" standalone="no"?>
<!DOCTYPE svg PUBLIC "-//W3C//DTD SVG 1.1//EN" "http://www.w3.org/Graphics/SVG/1.1/DTD/svg11.dtd" >
<svg xmlns="http://www.w3.org/2000/svg" xmlns:xlink="http://www.w3.org/1999/xlink" version="1.1" viewBox="-10 0 326 1000">
  <g transform="matrix(1 0 0 -1 0 800)">
   <path fill="currentColor"
d="M30 0zM77.5 8.5q-14.5 13.5 -14.5 39.5q0 15 4 35l63 343l-77 17v44l165 19v-81l-60 -352h72v-46q-18 -12 -47.5 -22t-58.5 -10q-32 0 -46.5 13.5zM260 540zM60 543l-30 30l100 95q25 24 37.5 34.5t20.5 10.5q9 0 19 -10.5t27 -33.5l72 -94l-32 -35l-100 76z" />
  </g>

</svg>
