<?xml version="1.0" standalone="no"?>
<!DOCTYPE svg PUBLIC "-//W3C//DTD SVG 1.1//EN" "http://www.w3.org/Graphics/SVG/1.1/DTD/svg11.dtd" >
<svg xmlns="http://www.w3.org/2000/svg" xmlns:xlink="http://www.w3.org/1999/xlink" version="1.1" viewBox="-10 0 518 1000">
  <g transform="matrix(1 0 0 -1 0 800)">
   <path fill="currentColor"
d="M26 -160l3 43q140 0 213.5 65t98.5 210q-23 -25 -65.5 -41t-85.5 -16q-65 0 -107 43t-42 110q0 82 30 145t84 98t124 35q89 0 136.5 -55t47.5 -158q0 -143 -46 -253.5t-129 -171.5t-190 -61q-43 0 -72 7zM297 176.5q31 11.5 50 29.5q12 57 12 135q0 128 -109 128
q-55 0 -80 -42.5t-25 -134.5q0 -127 93 -127q28 0 59 11.5z" />
  </g>

</svg>
