<?xml version="1.0" standalone="no"?>
<!DOCTYPE svg PUBLIC "-//W3C//DTD SVG 1.1//EN" "http://www.w3.org/Graphics/SVG/1.1/DTD/svg11.dtd" >
<svg xmlns="http://www.w3.org/2000/svg" xmlns:xlink="http://www.w3.org/1999/xlink" version="1.1" viewBox="-10 0 631 1000">
  <g transform="matrix(1 0 0 -1 0 800)">
   <path fill="currentColor"
d="M334.5 9q-14.5 14 -14.5 42t13 93l53 292h-150l-71 -387q-3 -20 -11 -31.5t-25 -17.5h-110v46l61 16l71 374l-93 -43l-27 39l41 37q27 27 47 36.5t56 9.5h319l89 39l28 -42l-43 -39q-21 -20 -42 -28t-46 -9h-3l-63 -363h72v-45q-20 -12 -47.5 -22.5t-51.5 -10.5
q-38 0 -52.5 14z" />
  </g>

</svg>
