<?xml version="1.0" standalone="no"?>
<!DOCTYPE svg PUBLIC "-//W3C//DTD SVG 1.1//EN" "http://www.w3.org/Graphics/SVG/1.1/DTD/svg11.dtd" >
<svg xmlns="http://www.w3.org/2000/svg" xmlns:xlink="http://www.w3.org/1999/xlink" version="1.1" viewBox="-10 0 359 1000">
  <g transform="matrix(1 0 0 -1 0 800)">
   <path fill="currentColor"
d="M60.5 497.5q-14.5 17.5 -14.5 46.5q0 43 35.5 93t77.5 77l24 -22l-68 -89l1 -3q4 2 13 2q18 -2 30 -14t12 -33q0 -29 -20 -52t-48 -23t-42.5 17.5zM216.5 497q-14.5 17 -14.5 47q0 43 35.5 93t77.5 77l24 -22l-69 -89l1 -3q8 2 10 2q18 0 32 -12.5t14 -34.5
q0 -29 -20 -52t-48 -23t-42.5 17z" />
  </g>

</svg>
