<?xml version="1.0" standalone="no"?>
<!DOCTYPE svg PUBLIC "-//W3C//DTD SVG 1.1//EN" "http://www.w3.org/Graphics/SVG/1.1/DTD/svg11.dtd" >
<svg xmlns="http://www.w3.org/2000/svg" xmlns:xlink="http://www.w3.org/1999/xlink" version="1.1" viewBox="-29 0 310 1000">
  <g transform="matrix(1 0 0 -1 0 800)">
   <path fill="currentColor"
d="M0 0zM17 1q-24 10 -36 24l22 31q28 -16 56 -16q45 0 67 16.5t22 44.5q0 29 -18 37.5t-55 8.5l-9 20v24q48 8 71.5 21.5t23.5 37.5q0 19 -12 28t-42 9q-36 0 -67 -23l-25 26q20 26 52 39.5t68 13.5q46 0 75.5 -20.5t29.5 -54.5q0 -36 -28.5 -58.5t-58.5 -30.5v-4
q31 -4 54 -17.5t23 -50.5q0 -53 -43.5 -84.5t-111.5 -31.5q-34 0 -58 10z" />
  </g>

</svg>
