<?xml version="1.0" standalone="no"?>
<!DOCTYPE svg PUBLIC "-//W3C//DTD SVG 1.1//EN" "http://www.w3.org/Graphics/SVG/1.1/DTD/svg11.dtd" >
<svg xmlns="http://www.w3.org/2000/svg" xmlns:xlink="http://www.w3.org/1999/xlink" version="1.1" viewBox="-10 0 422 1000">
  <g transform="matrix(1 0 0 -1 0 800)">
   <path fill="currentColor"
d="M53 0zM53 443v44l165 19v-49q0 -9 -3 -22.5t-7 -22.5h4q15 36 50 68.5t72 32.5q40 0 40 -43q0 -17 -5.5 -31.5t-13.5 -22.5h-43q-70 0 -105 -45l-57 -371h-96l76 426zM345 702q28 -17 42.5 -42.5t14.5 -48.5q0 -14 -9 -23q-8 -9 -27 -15.5t-32 -6.5q-4 37 -20.5 61
t-58.5 24q-38 0 -71 -26.5t-50 -58.5l-27 18q8 32 30.5 63t58 51.5t81.5 20.5q40 0 68 -17z" />
  </g>

</svg>
