<?xml version="1.0" standalone="no"?>
<!DOCTYPE svg PUBLIC "-//W3C//DTD SVG 1.1//EN" "http://www.w3.org/Graphics/SVG/1.1/DTD/svg11.dtd" >
<svg xmlns="http://www.w3.org/2000/svg" xmlns:xlink="http://www.w3.org/1999/xlink" version="1.1" viewBox="-10 0 534 1000">
  <g transform="matrix(1 0 0 -1 0 800)">
   <path fill="currentColor"
d="M13 0zM90 57l75 534l-69 14l6 43h412l-23 -164h-55v111h-102l-73 -5l-33 -230h126l21 61h43l-22 -172h-43l-3 61h-129l-35 -252q37 -6 88 -6h99l39 108h48l-20 -160h-427l6 43zM444.5 817q27.5 -14 42.5 -35.5t15 -42.5q0 -12 -15.5 -24.5t-37.5 -21.5q-11 28 -35 47
t-58 19q-37 0 -74 -20.5t-62 -48.5l-25 21q27 49 77.5 84.5t107.5 35.5q37 0 64.5 -14z" />
  </g>

</svg>
