<?xml version="1.0" standalone="no"?>
<!DOCTYPE svg PUBLIC "-//W3C//DTD SVG 1.1//EN" "http://www.w3.org/Graphics/SVG/1.1/DTD/svg11.dtd" >
<svg xmlns="http://www.w3.org/2000/svg" xmlns:xlink="http://www.w3.org/1999/xlink" version="1.1" viewBox="-61 0 586 1000">
  <g transform="matrix(1 0 0 -1 0 800)">
   <path fill="currentColor"
d="M0 0zM-45 43l55 15l273 596h57l114 -597l61 -14l-4 -43h-229l4 43l71 14l-22 127h-204l-56 -126l76 -15l-5 -43h-197zM324 243l-42 242l-2 29h-4l-10 -29l-108 -242h166zM389 685zM283.5 706q-21.5 21 -25.5 24l-64 65l37 41l98 -67l114 69l23 -35l-74 -65
q-59 -53 -77 -53q-10 0 -31.5 21z" />
  </g>

</svg>
