<?xml version="1.0" standalone="no"?>
<!DOCTYPE svg PUBLIC "-//W3C//DTD SVG 1.1//EN" "http://www.w3.org/Graphics/SVG/1.1/DTD/svg11.dtd" >
<svg xmlns="http://www.w3.org/2000/svg" xmlns:xlink="http://www.w3.org/1999/xlink" version="1.1" viewBox="-10 0 592 1000">
  <g transform="matrix(1 0 0 -1 0 800)">
   <path fill="currentColor"
d="M36 0zM36 150q0 62 25.5 148.5t76 150.5t121.5 64q32 0 63.5 -10.5t53.5 -21.5l28 36h50l-71 -444h73v-46q-18 -12 -48 -22t-59 -10q-62 0 -62 51q0 23 19 57l-3 2q-30 -48 -69 -81.5t-81 -33.5q-117 0 -117 160zM245.5 91.5q33.5 30.5 60.5 69.5l40 237q-61 49 -120 49
q-23 0 -30 -9q-28 -44 -45.5 -116.5t-17.5 -150.5q0 -55 10.5 -82.5t38.5 -27.5q30 0 63.5 30.5zM496 540zM522 663zM524 842q48 -13 48 -55q0 -17 -17.5 -32.5t-46.5 -31.5l-98 -60l-28 34zM393 540zM193 543l-30 30l100 95q25 24 37.5 34.5t20.5 10.5q9 0 19 -10.5
t27 -33.5l72 -94l-32 -35l-100 76z" />
  </g>

</svg>
