<?xml version="1.0" standalone="no"?>
<!DOCTYPE svg PUBLIC "-//W3C//DTD SVG 1.1//EN" "http://www.w3.org/Graphics/SVG/1.1/DTD/svg11.dtd" >
<svg xmlns="http://www.w3.org/2000/svg" xmlns:xlink="http://www.w3.org/1999/xlink" version="1.1" viewBox="-10 0 512 1000">
  <g transform="matrix(1 0 0 -1 0 800)">
   <path fill="currentColor"
d="M36 0zM36 150q0 62 25.5 148.5t76 150.5t121.5 64q32 0 63.5 -10.5t53.5 -21.5l28 36h50l-71 -444h73v-46q-18 -12 -48 -22t-59 -10q-62 0 -62 51q0 23 19 57l-3 2q-30 -48 -69 -81.5t-81 -33.5q-117 0 -117 160zM245.5 91.5q33.5 30.5 60.5 69.5l40 237q-61 49 -120 49
q-23 0 -30 -9q-28 -44 -45.5 -116.5t-17.5 -150.5q0 -55 10.5 -82.5t38.5 -27.5q30 0 63.5 30.5zM407 565zM296 718q0 14 10 24.5t35 21.5q20 10 28.5 18t8.5 20t-10 17.5t-32 5.5q-28 0 -62 -8q-7 13 -7 27q0 21 15.5 30t54.5 9q57 0 88.5 -18.5t31.5 -53.5
q0 -27 -17.5 -44.5t-52.5 -33.5q-20 -9 -25 -15t-5 -21l-55 -6q-6 22 -6 27zM412 565zM231 582q-28 17 -42.5 42.5t-14.5 48.5q0 13 9 24q8 8 27.5 14.5t31.5 6.5q5 -37 21.5 -60.5t57.5 -23.5q38 0 71 26t51 58l27 -17q-14 -52 -58.5 -94t-112.5 -42q-40 0 -68 17z" />
  </g>

</svg>
