<?xml version="1.0" standalone="no"?>
<!DOCTYPE svg PUBLIC "-//W3C//DTD SVG 1.1//EN" "http://www.w3.org/Graphics/SVG/1.1/DTD/svg11.dtd" >
<svg xmlns="http://www.w3.org/2000/svg" xmlns:xlink="http://www.w3.org/1999/xlink" version="1.1" viewBox="-61 0 602 1000">
  <g transform="matrix(1 0 0 -1 0 800)">
   <path fill="currentColor"
d="M0 0zM-45 43l55 15l273 596h57l114 -597l61 -14l-4 -43h-229l4 43l71 14l-22 127h-204l-56 -126l76 -15l-5 -43h-197zM324 243l-42 242l-2 29h-4l-10 -29l-108 -242h166zM358 874l-78 25l-80 -35l-25 27l41 47q29 34 58 34q21 0 74 -17l77 -25l81 35l25 -26l-41 -47
q-16 -17 -29.5 -26t-29.5 -9q-22 0 -73 17zM184 724l77 59l19 15q22 17 36 27t20 10q9 0 33.5 -21t27.5 -24l68 -62l-34 -43l-107 65l-114 -61z" />
  </g>

</svg>
