<?xml version="1.0" standalone="no"?>
<!DOCTYPE svg PUBLIC "-//W3C//DTD SVG 1.1//EN" "http://www.w3.org/Graphics/SVG/1.1/DTD/svg11.dtd" >
<svg xmlns="http://www.w3.org/2000/svg" xmlns:xlink="http://www.w3.org/1999/xlink" version="1.1" viewBox="-77 0 524 1000">
  <g transform="matrix(1 0 0 -1 0 800)">
   <path fill="currentColor"
d="M0 0zM-67 -143l2 47h105l62 87v119l-29 319l-74 19v44l162 16l24 -371v-58h6q72 105 109 182.5t53 166.5l-71 46l21 40q6 1 19 1q45 0 80 -15t35 -41q0 -44 -32.5 -122t-91.5 -170t-132 -177l-61 -98q-22 -36 -42 -49.5t-54 -13.5q-51 0 -91 28zM378 589zM274 606l-72 24
l-73 -35l-21 23l39 47q14 20 27 29t29 9q12 0 29 -5l34 -10l77 -26l72 36l22 -23l-39 -46q-16 -19 -29.5 -29.5t-27.5 -10.5q-22 0 -67 17z" />
  </g>

</svg>
