<?xml version="1.0" standalone="no"?>
<!DOCTYPE svg PUBLIC "-//W3C//DTD SVG 1.1//EN" "http://www.w3.org/Graphics/SVG/1.1/DTD/svg11.dtd" >
<svg xmlns="http://www.w3.org/2000/svg" xmlns:xlink="http://www.w3.org/1999/xlink" version="1.1" viewBox="-10 0 568 1000">
  <g transform="matrix(1 0 0 -1 0 800)">
   <path fill="currentColor"
d="M36 0zM429 354v-14q0 -98 -29 -177.5t-84 -126t-131 -46.5q-73 0 -111 43.5t-38 126.5q0 101 30 181t85.5 126t129.5 46q123 0 144 -119q49 44 49 83q0 11 -4.5 18t-14.5 14v15l61 42q15 -12 23.5 -24t8.5 -38q0 -69 -119 -150zM303 115.5q12 36.5 20.5 87t8.5 104.5
q0 58 -8 88t-26.5 42t-52.5 12q-17 0 -34 -4t-25 -11q-8 -9 -21 -44.5t-22.5 -86.5t-9.5 -106q0 -57 7.5 -87.5t26.5 -43.5t54 -13q48 0 61 13q9 13 21 49.5zM404 589zM300 606l-72 24l-73 -35l-21 23l39 47q14 20 27 29t29 9q12 0 29 -5l34 -10l77 -26l72 36l22 -23
l-39 -46q-16 -19 -29.5 -29.5t-27.5 -10.5q-22 0 -67 17z" />
  </g>

</svg>
