<?xml version="1.0" standalone="no"?>
<!DOCTYPE svg PUBLIC "-//W3C//DTD SVG 1.1//EN" "http://www.w3.org/Graphics/SVG/1.1/DTD/svg11.dtd" >
<svg xmlns="http://www.w3.org/2000/svg" xmlns:xlink="http://www.w3.org/1999/xlink" version="1.1" viewBox="-10 0 621 1000">
  <g transform="matrix(1 0 0 -1 0 800)">
   <path fill="currentColor"
d="M45 0zM566 425.5q-35 -43.5 -116 -91.5l-45 -261h74v-46q-20 -12 -48.5 -22t-55.5 -10q-33 0 -48.5 12t-15.5 40q0 23 24 56l-3 2q-32 -40 -80.5 -76t-107.5 -36q-78 0 -78 84q0 41 8 79l49 271l-78 17v45l165 19v-74l-42 -268q-7 -35 -7 -57q0 -20 8 -29.5t28 -9.5
q29 0 64.5 24.5t65.5 53.5l61 352l92 12l-23 -135q70 53 70 100q0 11 -4.5 18t-14.5 14v15l61 42q15 -12 23.5 -24t8.5 -38q0 -35 -35 -78.5zM282 563q0 14 10 24.5t35 21.5q20 10 28.5 18t8.5 20t-10 17.5t-32 5.5q-28 0 -62 -8q-7 13 -7 27q0 21 15.5 30t54.5 9
q57 0 88.5 -18.5t31.5 -53.5q0 -27 -17.5 -44.5t-52.5 -33.5q-20 -9 -25 -15t-5 -21l-55 -6q-6 22 -6 27z" />
  </g>

</svg>
