<?xml version="1.0" standalone="no"?>
<!DOCTYPE svg PUBLIC "-//W3C//DTD SVG 1.1//EN" "http://www.w3.org/Graphics/SVG/1.1/DTD/svg11.dtd" >
<svg xmlns="http://www.w3.org/2000/svg" xmlns:xlink="http://www.w3.org/1999/xlink" version="1.1" viewBox="-10 0 514 1000">
  <g transform="matrix(1 0 0 -1 0 800)">
   <path fill="currentColor"
d="M36 0zM74 33.5q-38 43.5 -38 126.5q0 101 30 181t85.5 126t129.5 46q148 0 148 -173q0 -98 -29 -177.5t-84 -126t-131 -46.5q-73 0 -111 43.5zM282 66q9 13 21 49.5t20.5 87t8.5 104.5q0 58 -8 88t-26.5 42t-52.5 12q-17 0 -34 -4t-25 -11q-8 -9 -21 -44.5t-22.5 -86.5
t-9.5 -106q0 -57 7.5 -87.5t26.5 -43.5t54 -13q48 0 61 13zM331 768l-72 24l-72 -34l-22 22l39 45q14 19 27 28t29 9q14 0 35 -6l28 -8l77 -26l73 35l21 -22l-39 -45q-16 -19 -29.5 -28.5t-27.5 -9.5q-25 0 -67 16zM153 573l100 95q24 23 37 34t22 11q8 0 17.5 -10t28.5 -34
l72 -94l-33 -35l-99 76l-115 -73z" />
  </g>

</svg>
