<?xml version="1.0" standalone="no"?>
<!DOCTYPE svg PUBLIC "-//W3C//DTD SVG 1.1//EN" "http://www.w3.org/Graphics/SVG/1.1/DTD/svg11.dtd" >
<svg xmlns="http://www.w3.org/2000/svg" xmlns:xlink="http://www.w3.org/1999/xlink" version="1.1" viewBox="-10 0 436 1000">
  <g transform="matrix(1 0 0 -1 0 800)">
   <path fill="currentColor"
d="M101.5 9.5q-26.5 21.5 -26.5 68.5q0 14 5 62l-53 -33l-22 41l84 62l15 112q17 134 64 209t140 75q54 0 81 -27.5t27 -80.5q0 -80 -70.5 -157.5t-163.5 -137.5l-6 -52q-3 -15 -3 -38q0 -33 14.5 -43.5t52.5 -10.5q31 0 64.5 12.5t43.5 19.5l11 -34q-3 -5 -29 -22t-64 -32
t-80 -15q-58 0 -84.5 21.5zM295.5 389.5q37.5 57.5 37.5 107.5q0 61 -45 61q-33 0 -51.5 -40.5t-31.5 -136.5l-13 -102q66 53 103.5 110.5z" />
  </g>

</svg>
