<?xml version="1.0" standalone="no"?>
<!DOCTYPE svg PUBLIC "-//W3C//DTD SVG 1.1//EN" "http://www.w3.org/Graphics/SVG/1.1/DTD/svg11.dtd" >
<svg xmlns="http://www.w3.org/2000/svg" xmlns:xlink="http://www.w3.org/1999/xlink" version="1.1" viewBox="-10 0 705 1000">
  <g transform="matrix(1 0 0 -1 0 800)">
   <path fill="currentColor"
d="M557.04 119.69l83.0098 -120.48l-163.08 0.410156l-23.7695 43.4697c-72.9102 -56.71 -273.351 -95.6299 -359.881 2.49023c-36.8896 41.4004 -52.96 104.33 -47.2002 148.64c11.0996 82.7998 45.6699 161.47 189.71 235.58l-25.2998 50.0996
c-51.5 120.9 33.3799 207.021 130.92 220.681c92.0801 13.25 172.45 -10.3496 188.97 -114.68c17.3398 -110.14 -138.62 -189.63 -138.62 -189.63l104.92 -171.42c34.1104 39.7598 54.1602 94.4102 54.1602 94.4102l99.2305 -66.2402s-35.2695 -74.9502 -93.0693 -133.33z
M335.95 589.62c-25.0098 -21.9404 -27.4102 -57.1309 5.75977 -107.23c62.6299 39.3301 76.5801 74.1104 67.1504 95.6406c-10.7305 24.0098 -50.2705 31.4697 -72.9102 11.5898zM200.73 138.74c34.8496 -43.8896 128.88 -34.79 192.72 7.4502l-110.42 194.18
c-99.5303 -51.75 -131.2 -139.53 -82.2998 -201.63z" />
  </g>

</svg>
