<?xml version="1.0" standalone="no"?>
<!DOCTYPE svg PUBLIC "-//W3C//DTD SVG 1.1//EN" "http://www.w3.org/Graphics/SVG/1.1/DTD/svg11.dtd" >
<svg xmlns="http://www.w3.org/2000/svg" xmlns:xlink="http://www.w3.org/1999/xlink" version="1.1" viewBox="-10 0 1055 1000">
  <g transform="matrix(1 0 0 -1 0 800)">
   <path fill="currentColor"
d="M850.68 658.96c189.3 -130.01 173.4 -395.817 90.2607 -558.527c-79.0801 -154.44 -298.68 -137.881 -314 -21.9512c0 0 -50.7197 -90.6797 -159.529 -98.96c-114.65 -8.69043 -232.36 61.6992 -203.261 267.879c28.29 197.09 166.16 247.6 264.08 240.149
c90.5898 -6.62012 125.08 -62.1104 125.08 -62.1104l7.08008 53.8301l122.39 -1.25l-37.0996 -308.04c-8.74023 -56.7197 86.1201 -92.3301 115.601 60.0303c46.9102 241.8 -68.3496 377.189 -281.54 377.609c-196.59 0.410156 -361.08 -119.25 -394.95 -383.4
c-42.0703 -332.06 242.699 -380.079 434.859 -293.549l33.0801 -116.35s-73.9102 -43.0498 -214.68 -43.0498c-203.25 0 -342.78 89.4297 -383.101 284.439c-39.79 192.93 34.0303 517.96 331.84 634.71c128.36 50.5098 342.21 52.1699 463.89 -31.46zM627.641 243.682
c15.4404 110.96 -49.0186 144.501 -97.6689 149.051c-63.7695 5.7998 -122.31 -60.8701 -134.899 -151.12c-13.6201 -97.71 30.6895 -157.34 101.979 -150.71c55.8096 5.37988 114.319 36.0195 130.589 152.779z" />
  </g>

</svg>
