<?xml version="1.0" standalone="no"?>
<!DOCTYPE svg PUBLIC "-//W3C//DTD SVG 1.1//EN" "http://www.w3.org/Graphics/SVG/1.1/DTD/svg11.dtd" >
<svg xmlns="http://www.w3.org/2000/svg" xmlns:xlink="http://www.w3.org/1999/xlink" version="1.1" viewBox="-10 0 678 1000">
  <g transform="matrix(1 0 0 -1 0 800)">
   <path fill="currentColor"
d="M451.52 370.78c79.3301 -24.8398 153.812 -78.6602 139.452 -196.66c-15.3203 -125.04 -131.67 -190.46 -249.75 -202.88l-9.94043 -71.21h-88.1904l10.0303 72.04c-60.7402 6.62012 -114.771 28.9805 -147.021 65c-52.2598 58.79 -61.1201 120.07 -61.1201 120.07
l144.71 40.1699s7.07031 -79.9102 80.9004 -99.79l25.0898 180.1c-82.3604 21.1201 -175.841 54.2402 -190.421 137.061c-25.0898 144.08 86.8301 263.73 248.17 277.811l9.82031 70.3896h88.1904l-10.1904 -73.2803c126.37 -20.29 172.16 -107.66 181.601 -161.891
l-139.16 -38.9199s2.80957 20.2803 -17.8408 47.2002c-10.2305 12.8398 -25.0107 22.3496 -42.0303 28.1592l-24.7998 -178.05c16.7305 -4.5498 34.29 -9.51953 52.5 -15.3193zM314.231 410.53l22.0195 158.17c-9.75977 -1.66016 -18.8398 -4.5498 -26.8301 -8.28027
c-54.1904 -23.5996 -73.7705 -69.1494 -52.6201 -113.449c7.25 -16.1504 28.1504 -26.5 57.4307 -36.4404zM441.671 151.351c15.0303 45.54 -2.36035 81.1494 -60.9404 103.51l-22.3604 -160.65c46.1602 7.4502 74.5605 30.2305 83.3008 57.1406z" />
  </g>

</svg>
