<?xml version="1.0" standalone="no"?>
<!DOCTYPE svg PUBLIC "-//W3C//DTD SVG 1.1//EN" "http://www.w3.org/Graphics/SVG/1.1/DTD/svg11.dtd" >
<svg xmlns="http://www.w3.org/2000/svg" xmlns:xlink="http://www.w3.org/1999/xlink" version="1.1" viewBox="-10 0 637 1000">
  <g transform="matrix(1 0 0 -1 0 800)">
   <path fill="currentColor"
d="M373.93 455.11c150.34 -0.660156 225.031 -98.1699 204.371 -244.61c-15.9404 -112.53 -113.03 -220.431 -294.88 -222.091c-228.01 -2.07031 -238.399 177.33 -238.399 177.33l138.7 34.3203s9.57031 -95.9199 119 -94.3096
c85.3301 1.24023 140.89 58.21 146.569 121.979c5.08984 57.1699 -41.8301 111.78 -106.95 112.36c-106.11 0.950195 -147.971 -81.5596 -147.971 -81.5596l-116.56 57.2598l108.77 371.88l386.92 -0.0800781l-15.9004 -121.8l-273.93 0.240234l-49.8096 -160.03
s55.7695 49.4805 140.069 49.1104z" />
  </g>

</svg>
