<?xml version="1.0" standalone="no"?>
<!DOCTYPE svg PUBLIC "-//W3C//DTD SVG 1.1//EN" "http://www.w3.org/Graphics/SVG/1.1/DTD/svg11.dtd" >
<svg xmlns="http://www.w3.org/2000/svg" xmlns:xlink="http://www.w3.org/1999/xlink" version="1.1" viewBox="-10 0 641 1000">
  <g transform="matrix(1 0 0 -1 0 800)">
   <path fill="currentColor"
d="M495.91 321.27c-108.35 -98.75 -229.828 -90.71 -265.398 -197.04h302.53l-19.2402 -123.96h-364.44l-70.0898 0.25l-34.25 0.120117c16.8096 120.86 67.2393 229.79 163.169 288.96c104.17 64.21 187.15 90.75 222.67 148.22
c42.7695 69.2305 6.83984 127.94 -41.4004 140.11c-37.1396 9.40039 -88.8994 -4.0498 -114.779 -35.8193c-19.21 -23.5498 -25.04 -57 -25.04 -57l-133.37 27.3301c76.5596 224.68 355.909 238.439 436.069 126.27c44.6299 -62.4404 60.6602 -210.75 -56.4297 -317.44z
M110.812 0.0195312l0.0498047 0.290039l70.0498 -0.290039h-70.0996z" />
  </g>

</svg>
