<?xml version="1.0" standalone="no"?>
<!DOCTYPE svg PUBLIC "-//W3C//DTD SVG 1.1//EN" "http://www.w3.org/Graphics/SVG/1.1/DTD/svg11.dtd" >
<svg xmlns="http://www.w3.org/2000/svg" xmlns:xlink="http://www.w3.org/1999/xlink" version="1.1" viewBox="-10 0 774 1000">
  <g transform="matrix(1 0 0 -1 0 800)">
   <path fill="currentColor"
d="M287 426q64 0 103 4t60.5 16.5t30.5 36.5t14 65h37v-293h-37q-6 40 -16 64t-32 36.5t-59.5 16t-100.5 3.5v-206q0 -32 8.5 -54t28.5 -35.5t53 -19t81 -5.5q57 0 96.5 8t65.5 28t42 53.5t27 84.5h40l-16 -229h-678v40q33 1 54 6t32 17t15 34t4 57v462q0 35 -3.5 56.5
t-13.5 34t-28.5 17t-48.5 6.5v40h632l7 -196h-43q-6 42 -19 69.5t-36 44t-59.5 23t-89.5 6.5h-113q-26 0 -32 -6.5t-6 -30.5v-254zM318 830l126 97q20 15 44 24t50 9q28 0 42.5 -10t14.5 -27q0 -23 -18 -37.5t-70 -27.5l-116 -28h-73z" />
  </g>

</svg>
