<?xml version="1.0" standalone="no"?>
<!DOCTYPE svg PUBLIC "-//W3C//DTD SVG 1.1//EN" "http://www.w3.org/Graphics/SVG/1.1/DTD/svg11.dtd" >
<svg xmlns="http://www.w3.org/2000/svg" xmlns:xlink="http://www.w3.org/1999/xlink" version="1.1" viewBox="-10 0 950 1000">
  <g transform="matrix(1 0 0 -1 0 800)">
   <path fill="currentColor"
d="M670 -10l-443 631h-4v-430q0 -50 3.5 -79t15 -45t32 -21t53.5 -6v-40h-297v40q37 1 59.5 6.5t35 20.5t16.5 42.5t4 74.5v402q0 42 -4 69.5t-15 43.5t-31.5 22.5t-54.5 8.5v40h279l403 -578h4v387q0 49 -3.5 78.5t-15 45.5t-32 21t-53.5 6v40h297v-40q-37 -1 -59.5 -6.5
t-35 -20.5t-16.5 -43t-4 -74v-596h-134zM371 830l126 97q20 15 44 24t50 9q28 0 42.5 -10t14.5 -27q0 -23 -18 -37.5t-70 -27.5l-116 -28h-73z" />
  </g>

</svg>
