<?xml version="1.0" standalone="no"?>
<!DOCTYPE svg PUBLIC "-//W3C//DTD SVG 1.1//EN" "http://www.w3.org/Graphics/SVG/1.1/DTD/svg11.dtd" >
<svg xmlns="http://www.w3.org/2000/svg" xmlns:xlink="http://www.w3.org/1999/xlink" version="1.1" viewBox="-24 0 815 1000">
  <g transform="matrix(1 0 0 -1 0 800)">
   <path fill="currentColor"
d="M101 644q-15 26 -27.5 43t-25.5 26.5t-28 13t-34 3.5v40h336v-40q-42 0 -59 -8t-17 -24q0 -10 6 -24t19 -38l143 -273h4l126 210q33 56 46 83.5t13 43.5q0 17 -15.5 23.5t-57.5 6.5v40h251v-40q-22 0 -40 -7t-37.5 -27.5t-44 -57t-58.5 -95.5l-146 -250v-102
q0 -50 4.5 -80t16 -45.5t31.5 -20.5t52 -5v-40h-356v40q31 0 51.5 5t32.5 20t16.5 43.5t4.5 75.5v92zM251 903q0 25 17 41t43 16q27 0 44.5 -16t17.5 -41q0 -26 -17.5 -42.5t-44.5 -16.5q-26 0 -43 16.5t-17 42.5zM468 903q0 25 17.5 41t44.5 16q25 0 42.5 -16t17.5 -41
q0 -26 -17.5 -42.5t-42.5 -16.5q-27 0 -44.5 16.5t-17.5 42.5z" />
  </g>

</svg>
