<?xml version="1.0" standalone="no"?>
<!DOCTYPE svg PUBLIC "-//W3C//DTD SVG 1.1//EN" "http://www.w3.org/Graphics/SVG/1.1/DTD/svg11.dtd" >
<svg xmlns="http://www.w3.org/2000/svg" xmlns:xlink="http://www.w3.org/1999/xlink" version="1.1" viewBox="-10 0 584 1000">
  <g transform="matrix(1 0 0 -1 0 800)">
   <path fill="currentColor"
d="M534 -152q-32 -42 -75 -64.5t-91 -22.5q-110 0 -110 88q0 45 38.5 83t110.5 67q-49 23 -49 98h-5q-29 -52 -75 -79t-105 -27q-63 0 -101 35.5t-38 92.5q0 43 39.5 81t129.5 77l141 61v42q0 58 -20.5 84.5t-63.5 26.5q-29 0 -44 -15.5t-28 -51.5q-9 -25 -25.5 -39
t-45.5 -14q-28 0 -43 17t-15 48q0 48 52.5 76t158.5 28q112 0 160 -40.5t48 -135.5v-219q0 -85 34 -85q19 0 35 13l15 -29q-13 -23 -39 -37t-58 -16q-47 -24 -75.5 -55.5t-28.5 -59.5q0 -20 13.5 -32.5t35.5 -12.5t45.5 14t43.5 39zM344 285q-84 -38 -126.5 -70.5
t-42.5 -67.5q0 -29 16 -46t40 -17t45 8.5t36 22.5t23.5 33.5t8.5 41.5v95z" />
  </g>

</svg>
