<?xml version="1.0" standalone="no"?>
<!DOCTYPE svg PUBLIC "-//W3C//DTD SVG 1.1//EN" "http://www.w3.org/Graphics/SVG/1.1/DTD/svg11.dtd" >
<svg xmlns="http://www.w3.org/2000/svg" xmlns:xlink="http://www.w3.org/1999/xlink" version="1.1" viewBox="-10 0 961 1000">
  <g transform="matrix(1 0 0 -1 0 800)">
   <path fill="currentColor"
d="M528 83q-38 -42 -94.5 -65t-122.5 -23q-61 0 -111 19.5t-86 54.5t-55.5 84.5t-19.5 109.5q0 62 21 113t59 87.5t92 56.5t119 20q43 0 79 -9q-14 34 -14 80q0 93 53.5 143t155.5 50q98 0 148 -49t50 -146v-79h115v-55h-115v-307q0 -62 14 -88t46 -26q20 0 33.5 8.5
t24.5 27.5l21 -29q-28 -71 -132 -71q-69 0 -107.5 32t-38.5 90v363h-73v45q66 5 104.5 35.5t38.5 79.5q0 51 -37 82.5t-97 31.5q-67 0 -105.5 -38.5t-38.5 -104.5q0 -68 45 -117q36 -30 36 -69q0 -28 -17 -44.5t-45 -16.5q-22 0 -38.5 11.5t-35.5 39.5q-17 25 -28 39.5
t-19 22t-16.5 9t-20.5 1.5q-59 0 -91 -53.5t-32 -150.5q0 -106 38.5 -161.5t111.5 -55.5q39 0 80 15.5t79 44.5z" />
  </g>

</svg>
