<?xml version="1.0" standalone="no"?>
<!DOCTYPE svg PUBLIC "-//W3C//DTD SVG 1.1//EN" "http://www.w3.org/Graphics/SVG/1.1/DTD/svg11.dtd" >
<svg xmlns="http://www.w3.org/2000/svg" xmlns:xlink="http://www.w3.org/1999/xlink" version="1.1" viewBox="-10 0 344 1000">
  <g transform="matrix(1 0 0 -1 0 800)">
   <path fill="currentColor"
d="M41 660q0 25 10 46.5t27 38t40 26t49 9.5t49 -9.5t40 -26t27 -38t10 -46.5t-10 -46.5t-27 -38t-40 -26t-49 -9.5t-49 9.5t-40 26t-27 38t-10 46.5zM87 660q0 -15 6.5 -29t17.5 -24t25.5 -16t30.5 -6q32 0 55 22t23 53t-23 52.5t-55 21.5q-16 0 -30.5 -6t-25.5 -16
t-17.5 -23.5t-6.5 -28.5z" />
  </g>

</svg>
