<?xml version="1.0" standalone="no"?>
<!DOCTYPE svg PUBLIC "-//W3C//DTD SVG 1.1//EN" "http://www.w3.org/Graphics/SVG/1.1/DTD/svg11.dtd" >
<svg xmlns="http://www.w3.org/2000/svg" xmlns:xlink="http://www.w3.org/1999/xlink" version="1.1" viewBox="-10 0 595 1000">
  <g transform="matrix(1 0 0 -1 0 800)">
   <path fill="currentColor"
d="M539 306h-492v64h492v-64zM220 521q0 32 21.5 54.5t53.5 22.5q33 0 55 -22.5t22 -54.5q0 -31 -22 -52.5t-55 -21.5q-32 0 -53.5 21.5t-21.5 52.5zM220 151q0 32 21.5 54.5t53.5 22.5q33 0 55 -22.5t22 -54.5q0 -31 -22 -52.5t-55 -21.5q-32 0 -53.5 21.5t-21.5 52.5z" />
  </g>

</svg>
