<?xml version="1.0" standalone="no"?>
<!DOCTYPE svg PUBLIC "-//W3C//DTD SVG 1.1//EN" "http://www.w3.org/Graphics/SVG/1.1/DTD/svg11.dtd" >
<svg xmlns="http://www.w3.org/2000/svg" xmlns:xlink="http://www.w3.org/1999/xlink" version="1.1" viewBox="-10 0 595 1000">
  <g transform="matrix(1 0 0 -1 0 800)">
   <path fill="currentColor"
d="M540 93q-91 -103 -227 -103q-62 0 -112.5 19.5t-86.5 55t-56 84.5t-20 109q0 62 21 113.5t59.5 89t91 58.5t115.5 21q106 0 165 -57t59 -160q0 -16 -5 -19.5t-28 -3.5h-322q-4 -9 -4 -33q0 -98 42.5 -155t115.5 -57q42 0 83.5 19t80.5 54zM346 356q40 0 51.5 4.5
t11.5 21.5q0 44 -25 72t-63 28q-43 0 -76.5 -35.5t-43.5 -90.5h145zM127 660q10 59 43 96.5t76 37.5q7 0 14.5 -1t17.5 -4t23 -7.5t32 -11.5q31 -12 48 -17t31 -5q19 0 30 9.5t19 32.5h45q-4 -26 -16 -54t-28 -48q-30 -36 -73 -36q-18 0 -37 5.5t-48 19.5q-23 11 -46.5 17
t-40.5 6t-26.5 -8.5t-17.5 -31.5h-46z" />
  </g>

</svg>
