<?xml version="1.0" standalone="no"?>
<!DOCTYPE svg PUBLIC "-//W3C//DTD SVG 1.1//EN" "http://www.w3.org/Graphics/SVG/1.1/DTD/svg11.dtd" >
<svg xmlns="http://www.w3.org/2000/svg" xmlns:xlink="http://www.w3.org/1999/xlink" version="1.1" viewBox="-10 0 321 1000">
  <g transform="matrix(1 0 0 -1 0 800)">
   <path fill="currentColor"
d="M186 563q0 -91 6 -154t14 -111q5 -30 10 -56.5t9 -52t6.5 -52t2.5 -57.5q0 -90 -78 -90t-78 90q0 31 2.5 57.5t6.5 52t9 52t10 56.5q8 48 14 110.5t6 154.5h60zM231 705q0 -32 -22 -54t-54 -22t-54 22t-22 54t22 53.5t54 21.5t54 -21.5t22 -53.5z" />
  </g>

</svg>
