<?xml version="1.0" standalone="no"?>
<!DOCTYPE svg PUBLIC "-//W3C//DTD SVG 1.1//EN" "http://www.w3.org/Graphics/SVG/1.1/DTD/svg11.dtd" >
<svg xmlns="http://www.w3.org/2000/svg" xmlns:xlink="http://www.w3.org/1999/xlink" version="1.1" viewBox="-10 0 516 1000">
  <g transform="matrix(1 0 0 -1 0 800)">
   <path fill="currentColor"
d="M258 155q0 -39 3.5 -61.5t14.5 -34.5t32 -15.5t56 -3.5v-40h-334v40q30 2 48 6t27 16t11.5 34.5t2.5 60.5v122q0 62 -3 99t-13 57t-28.5 26.5t-48.5 6.5v35l200 37l16 -115h4q27 53 71 84t93 31q38 0 62 -19t24 -48q0 -32 -18.5 -54t-50.5 -22q-15 0 -27 6t-21.5 13.5
t-19 14t-19.5 6.5q-19 0 -36 -25t-28 -67q-8 -30 -13 -67.5t-5 -74.5v-48z" />
  </g>

</svg>
