<?xml version="1.0" standalone="no"?>
<!DOCTYPE svg PUBLIC "-//W3C//DTD SVG 1.1//EN" "http://www.w3.org/Graphics/SVG/1.1/DTD/svg11.dtd" >
<svg xmlns="http://www.w3.org/2000/svg" xmlns:xlink="http://www.w3.org/1999/xlink" version="1.1" viewBox="-10 0 596 1000">
  <g transform="matrix(1 0 0 -1 0 800)">
   <path fill="currentColor"
d="M46 437q47 53 102.5 78t124.5 25q61 0 112 -19.5t87 -55t56 -84.5t20 -109q0 -62 -21 -113.5t-59.5 -89t-91 -58.5t-115.5 -21q-106 0 -165 62.5t-59 174.5q0 16 5 19.5t28 3.5h322q4 9 4 33q0 89 -42.5 140.5t-115.5 51.5q-42 0 -83.5 -19t-80.5 -54zM240 194
q-20 0 -32.5 -1t-19.5 -3.5t-9 -7.5t-2 -14q0 -53 23 -86.5t65 -33.5q25 0 46.5 11t37.5 30.5t25.5 46t10.5 58.5h-145z" />
  </g>

</svg>
