<?xml version="1.0" standalone="no"?>
<!DOCTYPE svg PUBLIC "-//W3C//DTD SVG 1.1//EN" "http://www.w3.org/Graphics/SVG/1.1/DTD/svg11.dtd" >
<svg xmlns="http://www.w3.org/2000/svg" xmlns:xlink="http://www.w3.org/1999/xlink" version="1.1" viewBox="-10 0 684 1000">
  <g transform="matrix(1 0 0 -1 0 800)">
   <path fill="currentColor"
d="M629 259q0 -56 -22.5 -105t-61.5 -85.5t-91.5 -57.5t-112.5 -21q-65 0 -119 25.5t-92.5 71.5t-60 109.5t-21.5 140.5q0 91 28 171.5t76 141t112 95.5t137 35q40 0 75 -8.5t60.5 -23.5t40.5 -35.5t15 -44.5q0 -29 -18 -45.5t-48 -16.5q-21 0 -33 9t-20.5 22t-15.5 28.5
t-17.5 28.5t-26.5 22t-43 9q-33 0 -61 -21.5t-48.5 -59t-32.5 -88.5t-12 -111l3 -2q32 36 67.5 53t83.5 17q55 0 102.5 -19.5t82 -53.5t54.5 -80.5t20 -100.5zM214 283q0 -118 33.5 -178t97.5 -60q63 0 93 51t30 159q0 98 -28.5 148.5t-83.5 50.5q-44 0 -77 -28t-65 -89v-54
z" />
  </g>

</svg>
