<?xml version="1.0" standalone="no"?>
<!DOCTYPE svg PUBLIC "-//W3C//DTD SVG 1.1//EN" "http://www.w3.org/Graphics/SVG/1.1/DTD/svg11.dtd" >
<svg xmlns="http://www.w3.org/2000/svg" xmlns:xlink="http://www.w3.org/1999/xlink" version="1.1" viewBox="-10 0 724 1000">
  <g transform="matrix(1 0 0 -1 0 800)">
   <path fill="currentColor"
d="M114 0h-80l580 770h71zM375 102l155 210h31v-211q26 1 32.5 7t6.5 29h19v-94h-19q0 19 -6.5 24t-32.5 6v-8q0 -28 6 -36t27 -9v-20h-144v20q14 1 23 2.5t13.5 6t6 12.5t1.5 21v10h-119v30zM494 213h-4l-80 -111h84v111zM247 556q0 28 -11.5 44t-31.5 16q-8 -3 -15.5 -5
t-13.5 -2q-11 0 -17 6t-6 15q0 19 22 19q10 0 27 -5q17 0 28 17.5t11 43.5q0 43 -38 43t-38 -29q0 -23 24 -23q-2 -8 -12 -14t-23 -6q-20 0 -33.5 13.5t-13.5 33.5q0 26 25.5 41.5t70.5 15.5q50 0 79.5 -19.5t29.5 -52.5q0 -26 -18 -46t-46 -26v-4q34 -8 54 -30t20 -51
q0 -38 -34 -62.5t-86 -24.5q-47 0 -77 20t-30 51q0 22 15 36.5t37 14.5q14 0 25 -6t14 -17q-11 0 -19 -9.5t-8 -22.5q0 -15 11 -24t30 -9q48 0 48 58z" />
  </g>

</svg>
