<?xml version="1.0" standalone="no"?>
<!DOCTYPE svg PUBLIC "-//W3C//DTD SVG 1.1//EN" "http://www.w3.org/Graphics/SVG/1.1/DTD/svg11.dtd" >
<svg xmlns="http://www.w3.org/2000/svg" xmlns:xlink="http://www.w3.org/1999/xlink" version="1.1" viewBox="-10 0 647 1000">
  <g transform="matrix(1 0 0 -1 0 800)">
   <path fill="currentColor"
d="M429 216q0 77 -30 119.5t-84 42.5q-20 -8 -38.5 -13t-31.5 -5q-28 0 -43.5 11.5t-15.5 32.5q0 18 15 28t42 10q14 0 31.5 -3.5t31.5 -7.5q48 0 76.5 37.5t28.5 112.5q0 72 -28.5 109t-77.5 37q-46 0 -71.5 -22t-25.5 -61q0 -27 15.5 -45t39.5 -18q-6 -27 -26 -42.5
t-51 -15.5q-24 0 -45.5 9t-37.5 25t-25.5 36.5t-9.5 44.5q0 32 17 58t48.5 45t75 29t97.5 10q59 0 106.5 -12.5t81.5 -36t52 -56.5t18 -73q0 -32 -10.5 -62t-30 -54.5t-46 -42.5t-57.5 -26v-6q38 -11 69.5 -30.5t53.5 -46.5t34 -59t12 -68q0 -47 -21.5 -87t-60 -69t-91 -45
t-115.5 -16q-57 0 -105.5 13.5t-83.5 37t-55 56t-20 71.5q0 28 10.5 52.5t28.5 43t42 29.5t51 11q33 0 56 -17.5t29 -46.5q-30 0 -50 -24.5t-20 -60.5q0 -49 31.5 -78.5t84.5 -29.5q57 0 93 46t36 123z" />
  </g>

</svg>
