<?xml version="1.0" standalone="no"?>
<!DOCTYPE svg PUBLIC "-//W3C//DTD SVG 1.1//EN" "http://www.w3.org/Graphics/SVG/1.1/DTD/svg11.dtd" >
<svg xmlns="http://www.w3.org/2000/svg" xmlns:xlink="http://www.w3.org/1999/xlink" version="1.1" viewBox="-10 0 1068 1000">
  <g transform="matrix(1 0 0 -1 0 800)">
   <path fill="currentColor"
d="M257 163q0 -41 2.5 -64.5t11 -36t26 -16.5t47.5 -6v-40h-315v40q29 2 46.5 6t27 16t12.5 34t3 60v125q0 59 -2 95.5t-5 49.5t-8 21.5t-15 13t-25 6t-38 1.5v34l193 38l13 -88h4q33 42 78 65t99 23q64 0 103.5 -17.5t70.5 -58.5q17 -23 30 -59.5t13 -100.5v-141
q0 -41 2.5 -64.5t11 -36t25.5 -16.5t46 -6v-40h-313v40q30 1 47.5 5.5t26.5 16.5t12 34.5t3 59.5v136q0 51 -6 86t-19.5 56.5t-35.5 31t-55 9.5q-32 0 -55 -18t-40 -50q-9 -18 -15.5 -46.5t-6.5 -59.5v-138zM973 -2q0 -125 -60.5 -191.5t-174.5 -66.5q-77 0 -120.5 28.5
t-43.5 70.5q0 25 16.5 38.5t37.5 13.5q28 0 42 -15.5t25 -33.5t24.5 -33.5t40.5 -15.5q37 0 55.5 29t18.5 100v368q0 55 -2.5 90t-5.5 48q-5 23 -22 31.5t-63 8.5v34l232 38v-542zM826 752q0 33 22.5 55.5t54.5 22.5q33 0 55.5 -22.5t22.5 -55.5q0 -32 -22.5 -54.5
t-55.5 -22.5q-32 0 -54.5 22.5t-22.5 54.5z" />
  </g>

</svg>
