<?xml version="1.0" standalone="no"?>
<!DOCTYPE svg PUBLIC "-//W3C//DTD SVG 1.1//EN" "http://www.w3.org/Graphics/SVG/1.1/DTD/svg11.dtd" >
<svg xmlns="http://www.w3.org/2000/svg" xmlns:xlink="http://www.w3.org/1999/xlink" version="1.1" viewBox="-10 0 674 1000">
  <g transform="matrix(1 0 0 -1 0 800)">
   <path fill="currentColor"
d="M287 -157q-11 -22 -27.5 -41t-37 -32.5t-42.5 -21.5t-44 -8q-33 0 -53 16t-20 43q0 25 17.5 39t56.5 17q89 7 115 56l27 52l-177 438q-12 29 -20.5 46t-18.5 26.5t-23 12.5t-32 4v40h303v-40q-39 0 -54.5 -7.5t-15.5 -27.5q0 -8 2.5 -18.5t6.5 -21.5l102 -292h4l86 195
q13 31 22 51.5t13.5 35t6.5 23.5t2 18q0 26 -14.5 35t-58.5 9v40h241v-40q-20 0 -34 -5.5t-28.5 -22.5t-32 -50.5t-43.5 -88.5zM173 660q10 59 43 96.5t76 37.5q7 0 14.5 -1t17.5 -4t23 -7.5t32 -11.5q31 -12 48 -17t31 -5q19 0 30 9.5t19 32.5h45q-4 -26 -16 -54t-28 -48
q-30 -36 -73 -36q-18 0 -37 5.5t-48 19.5q-23 11 -46.5 17t-40.5 6t-26.5 -8.5t-17.5 -31.5h-46z" />
  </g>

</svg>
