<?xml version="1.0" standalone="no"?>
<!DOCTYPE svg PUBLIC "-//W3C//DTD SVG 1.1//EN" "http://www.w3.org/Graphics/SVG/1.1/DTD/svg11.dtd" >
<svg xmlns="http://www.w3.org/2000/svg" xmlns:xlink="http://www.w3.org/1999/xlink" version="1.1" viewBox="-10 0 604 1000">
  <g transform="matrix(1 0 0 -1 0 800)">
   <path fill="currentColor"
d="M161 -198l12 27q10 -16 32 -16q23 0 40.5 17t17.5 40q0 17 -25 36l-20 14q-10 7 -10 14q0 6 9 14l45 52h35l-31 -43q-9 -12 -9 -20q0 -6 6.5 -9t21.5 -7q23 -7 34.5 -14t11.5 -24q0 -42 -27.5 -69.5t-76.5 -27.5q-44 0 -66 16zM114.5 58q-65.5 68 -65.5 187
q0 110 41.5 191.5t118 126t179.5 44.5q44 0 68.5 -6.5t51.5 -18.5q21 -9 37 -13.5t39 -4.5q-8 -32 -13.5 -66t-5.5 -50q0 -14 1 -15h-26q-3 41 -25 75t-57.5 54t-77.5 20q-67 0 -119.5 -45t-81.5 -123.5t-29 -173.5q0 -101 41.5 -162t113.5 -61q67 0 123 42.5t79 107.5h31
q-14 -59 -18 -80t-4 -40v-12h-7q-20 0 -38 -4.5t-45 -14.5q-36 -13 -64 -19.5t-65 -6.5q-117 0 -182.5 68z" />
  </g>

</svg>
