<?xml version="1.0" standalone="no"?>
<!DOCTYPE svg PUBLIC "-//W3C//DTD SVG 1.1//EN" "http://www.w3.org/Graphics/SVG/1.1/DTD/svg11.dtd" >
<svg xmlns="http://www.w3.org/2000/svg" xmlns:xlink="http://www.w3.org/1999/xlink" version="1.1" viewBox="-18 0 519 1000">
  <g transform="matrix(1 0 0 -1 0 800)">
   <path fill="currentColor"
d="M64 0q-23 5 -36 5q-22 0 -36 -9l25 176h37q-3 -18 -3 -39q0 -49 19 -83t62 -34q46 0 70.5 37t37.5 126l52 369v5q0 16 -13 16l-69 -2l4 30h233l-4 -30l-37 2q-18 0 -21 -20l-52 -370q-27 -189 -189 -189q-38 0 -80 10zM194 673q0 4 27 25q43 36 59 51l50 48q27 25 34 25
q8 0 26 -25l36 -48q19 -25 49 -55q16 -16 16 -20q0 -8 -13 -8q-10 0 -27 12l-97 73l-120 -73q-22 -12 -29 -12q-11 0 -11 7z" />
  </g>

</svg>
