<?xml version="1.0" standalone="no"?>
<!DOCTYPE svg PUBLIC "-//W3C//DTD SVG 1.1//EN" "http://www.w3.org/Graphics/SVG/1.1/DTD/svg11.dtd" >
<svg xmlns="http://www.w3.org/2000/svg" xmlns:xlink="http://www.w3.org/1999/xlink" version="1.1" viewBox="-10 0 525 1000">
  <g transform="matrix(1 0 0 -1 0 800)">
   <path fill="currentColor"
d="M330 1h-327l4 27l384 542h-143q-69 0 -106.5 -30.5t-46.5 -95.5h-29l22 157l49 -1l58 -2h310l-3 -24l-389 -546h167q66 0 109.5 37t52.5 103h29l-32 -172q-11 5 -109 5zM282 693l-36 48q-19 25 -49 55q-16 17 -16 20q0 8 13 8q10 0 27 -12l97 -73l120 73q22 12 29 12
q11 0 11 -7q0 -4 -27 -25q-43 -36 -59 -51l-50 -48q-28 -25 -34 -25q-8 0 -26 25z" />
  </g>

</svg>
