<?xml version="1.0" standalone="no"?>
<!DOCTYPE svg PUBLIC "-//W3C//DTD SVG 1.1//EN" "http://www.w3.org/Graphics/SVG/1.1/DTD/svg11.dtd" >
<svg xmlns="http://www.w3.org/2000/svg" xmlns:xlink="http://www.w3.org/1999/xlink" version="1.1" viewBox="-10 0 476 1000">
  <g transform="matrix(1 0 0 -1 0 800)">
   <path fill="currentColor"
d="M52 22.5q-24 32.5 -24 89.5q0 70 34.5 144.5t92 124t120.5 49.5q24 0 44.5 -10t33.5 -27l6 22l84 14l-24 -99q-18 -80 -30 -150t-12 -96q0 -17 13 -17q18 0 38 13l12 -20q-30 -36 -63.5 -53t-58.5 -17q-14 0 -19 11t-5 35q0 29 21 151q-57 -108 -102 -152.5t-93 -44.5
q-44 0 -68 32.5zM229.5 99q44.5 54 77.5 126t33 121q0 23 -18 38.5t-45 15.5q-54 0 -91.5 -47.5t-54.5 -120.5q-14 -52 -14 -109q0 -38 11 -58t28 -20q29 0 73.5 54zM247 512.5q-18 19.5 -18 52.5q0 38 27.5 64.5t64.5 26.5q34 0 52.5 -19t18.5 -52q0 -40 -26.5 -66
t-67.5 -26q-33 0 -51 19.5zM333.5 544.5q12.5 15.5 12.5 36.5q0 18 -7.5 28.5t-22.5 10.5q-18 0 -30 -15t-12 -36q0 -18 7.5 -29t21.5 -11q18 0 30.5 15.5z" />
  </g>

</svg>
