<?xml version="1.0" standalone="no"?>
<!DOCTYPE svg PUBLIC "-//W3C//DTD SVG 1.1//EN" "http://www.w3.org/Graphics/SVG/1.1/DTD/svg11.dtd" >
<svg xmlns="http://www.w3.org/2000/svg" xmlns:xlink="http://www.w3.org/1999/xlink" version="1.1" viewBox="-10 0 376 1000">
  <g transform="matrix(1 0 0 -1 0 800)">
   <path fill="currentColor"
d="M114 363q-22 13 -20 27q1 7 10 21q6 9 15.5 10t17 4.5t20.5 20.5q8 12 12 27q-11 5 -26 5q-18 0 -25.5 -4t-14.5 -12t-18 -8q-19 0 -25 8t-3 30q5 39 38 38q11 0 15.5 -7.5t10.5 -12t26 -4.5q14 0 29 6q0 12 -7 26q-6 15 -12.5 19.5t-16.5 5.5t-14 10q-5 14 -4 21
q2 14 28 27q16 9 26 9q12 0 22 -19q2 -6 1 -10q0 -3 -4 -10t-5 -12q-1 -10 6 -27q4 -10 15 -21q15 11 21 21q12 17 13 27q1 5 -0.5 12t-1.5 10q1 4 5 10q14 19 26 19q10 0 24 -9q22 -13 20 -27q-1 -7 -10 -21q-6 -9 -15.5 -10t-17 -4.5t-20.5 -20.5q-8 -12 -12 -27
q11 -5 26 -5q18 0 25.5 4t14.5 12t18 8q19 0 25 -8t3 -30t-11 -30t-27 -8q-11 0 -15.5 7.5t-10.5 12t-26 4.5q-14 0 -29 -6q0 -12 7 -26q6 -15 12.5 -19.5t16.5 -5.5t14 -10q5 -14 4 -21q-2 -14 -27 -27q-18 -9 -27 -9q-12 0 -22 19q-2 6 -1 10q0 3 4 10t5 12q1 10 -6 27
q-4 10 -15 21q-15 -11 -21 -21q-12 -17 -13 -27q-1 -5 0.5 -12t1.5 -10q-1 -4 -5 -10q-14 -19 -26 -19q-10 0 -24 9z" />
  </g>

</svg>
