<?xml version="1.0" standalone="no"?>
<!DOCTYPE svg PUBLIC "-//W3C//DTD SVG 1.1//EN" "http://www.w3.org/Graphics/SVG/1.1/DTD/svg11.dtd" >
<svg xmlns="http://www.w3.org/2000/svg" xmlns:xlink="http://www.w3.org/1999/xlink" version="1.1" viewBox="-10 0 399 1000">
  <g transform="matrix(1 0 0 -1 0 800)">
   <path fill="currentColor"
d="M140.5 699.5q-27.5 33.5 -25.5 90.5h44q3 -32 19 -53t52 -21q35 0 58.5 21.5t34.5 52.5h43q-14 -57 -51 -90.5t-92 -33.5t-82.5 33.5zM215 797q1 5 18 23l68 70q15 16 19.5 19.5t12.5 3.5q15 0 30.5 -9t14.5 -15t-10 -12l-108 -72q-22 -15 -32 -15q-14 0 -13 7z" />
  </g>

</svg>
