<?xml version="1.0" standalone="no"?>
<!DOCTYPE svg PUBLIC "-//W3C//DTD SVG 1.1//EN" "http://www.w3.org/Graphics/SVG/1.1/DTD/svg11.dtd" >
<svg xmlns="http://www.w3.org/2000/svg" xmlns:xlink="http://www.w3.org/1999/xlink" version="1.1" viewBox="-10 0 272 1000">
  <g transform="matrix(1 0 0 -1 0 800)">
   <path fill="currentColor"
d="M21.5 -229q-11.5 13 -7.5 36q4 25 27 111q25 94 40.5 164.5t27.5 135.5q3 16 15 16q10 0 8 -16q-8 -66 -12 -135t-3 -162q1 -87 -4 -114q-4 -23 -18.5 -36t-38.5 -13q-23 0 -34.5 13zM87.5 344.5q-16.5 14.5 -16.5 36.5q0 25 22 44.5t49 19.5q25 0 41.5 -15t16.5 -36
q0 -26 -21 -45t-50 -19q-25 0 -41.5 14.5z" />
  </g>

</svg>
