<?xml version="1.0" standalone="no"?>
<!DOCTYPE svg PUBLIC "-//W3C//DTD SVG 1.1//EN" "http://www.w3.org/Graphics/SVG/1.1/DTD/svg11.dtd" >
<svg xmlns="http://www.w3.org/2000/svg" xmlns:xlink="http://www.w3.org/1999/xlink" version="1.1" viewBox="-10 0 273 1000">
  <g transform="matrix(1 0 0 -1 0 800)">
   <path fill="currentColor"
d="M132 217q5 36 5.5 71.5t0.5 91.5v140q0 41 3 63q3 24 19 39t42 15q27 0 39 -15t9 -39q-3 -22 -15 -63l-40 -140q-16 -56 -25.5 -91.5t-14.5 -71.5q-2 -16 -13 -16q-12 0 -10 16zM80 5q-17 15 -17 37q0 26 22 44.5t52 18.5q24 0 39.5 -15t15.5 -37q0 -25 -22.5 -44
t-49.5 -19q-23 0 -40 15z" />
  </g>

</svg>
