<?xml version="1.0" standalone="no"?>
<!DOCTYPE svg PUBLIC "-//W3C//DTD SVG 1.1//EN" "http://www.w3.org/Graphics/SVG/1.1/DTD/svg11.dtd" >
<svg xmlns="http://www.w3.org/2000/svg" xmlns:xlink="http://www.w3.org/1999/xlink" version="1.1" viewBox="-146 0 549 1000">
  <g transform="matrix(1 0 0 -1 0 800)">
   <path fill="currentColor"
d="M-107 -226.5q-29 18.5 -29 48.5q0 18 11.5 31t33.5 13q15 0 26 -6.5t11 -21.5q0 -6 -3 -16t-3 -15q0 -25 31 -25q51 0 73 83.5t36 206.5l35 317h-86l12 31h78l2 20q14 142 54.5 216t118.5 74q46 0 72.5 -26.5t26.5 -64.5q0 -22 -11.5 -36.5t-35.5 -14.5q-36 0 -36 29
q0 7 4.5 21t4.5 25q0 40 -24 40q-83 0 -90 -283h90l-14 -31h-79l-32 -287q-39 -347 -207 -347q-41 0 -70 18.5z" />
  </g>

</svg>
