<?xml version="1.0" standalone="no"?>
<!DOCTYPE svg PUBLIC "-//W3C//DTD SVG 1.1//EN" "http://www.w3.org/Graphics/SVG/1.1/DTD/svg11.dtd" >
<svg xmlns="http://www.w3.org/2000/svg" xmlns:xlink="http://www.w3.org/1999/xlink" version="1.1" viewBox="-146 0 667 1000">
  <g transform="matrix(1 0 0 -1 0 800)">
   <path fill="currentColor"
d="M-107 -226.5q-29 18.5 -29 48.5q0 18 11.5 31t33.5 13q15 0 26 -6.5t11 -21.5q0 -6 -3 -16t-3 -15q0 -25 31 -25q51 0 73 83.5t36 206.5l35 317h-86l17 31h73l2 20q13 134 72.5 212t160.5 78q81 0 129 -61l-19 -34q-36 61 -115 59q-112 0 -140 -240l-4 -34h105l-14 -31
h-94l-32 -287q-39 -347 -207 -347q-41 0 -70 18.5zM338.5 1.5q-10.5 11.5 -10.5 34.5q0 27 33 243l13 91q34 227 34 279q0 22 -13 33.5t-46 11.5l71 12q37 24 57 24q12 0 19 -9.5t4 -25.5q-10 -50 -26 -156q-62 -392 -59 -445q0 -12 3.5 -19.5t15.5 -7.5q7 0 18.5 3t22.5 10
l12 -20q-31 -33 -63.5 -51.5t-56.5 -18.5q-18 0 -28.5 11.5z" />
  </g>

</svg>
