<?xml version="1.0" standalone="no"?>
<!DOCTYPE svg PUBLIC "-//W3C//DTD SVG 1.1//EN" "http://www.w3.org/Graphics/SVG/1.1/DTD/svg11.dtd" >
<svg xmlns="http://www.w3.org/2000/svg" xmlns:xlink="http://www.w3.org/1999/xlink" version="1.1" viewBox="-10 0 329 1000">
  <g transform="matrix(1 0 0 -1 0 800)">
   <path fill="currentColor"
d="M74 1.5q-10 11.5 -10 34.5q0 17 6 57.5t8 53.5l12 76q13 87 13 124q0 26 -31 26q-8 0 -16 -2l-5 29q63 26 114 26q15 0 23 -4.5t8 -17.5q0 -8 -12 -70q-19 -99 -20 -104q-16 -91 -16 -136q0 -27 17 -27q16 0 36 13l12 -20q-32 -33 -60.5 -51.5t-50.5 -18.5
q-18 0 -28 11.5zM12 500q0 4 27 25q43 36 59 51l50 48q27 25 34 25q8 0 26 -25l36 -48q19 -25 49 -55q16 -16 16 -20q0 -8 -13 -8q-10 0 -27 12l-97 73l-120 -73q-22 -12 -29 -12q-11 0 -11 7z" />
  </g>

</svg>
