<?xml version="1.0" standalone="no"?>
<!DOCTYPE svg PUBLIC "-//W3C//DTD SVG 1.1//EN" "http://www.w3.org/Graphics/SVG/1.1/DTD/svg11.dtd" >
<svg xmlns="http://www.w3.org/2000/svg" xmlns:xlink="http://www.w3.org/1999/xlink" version="1.1" viewBox="-10 0 270 1000">
  <g transform="matrix(1 0 0 -1 0 800)">
   <path fill="currentColor"
d="M62.5 -142.5q-18.5 16.5 -18.5 45.5q0 32 22.5 61.5t64.5 49.5h29q-27 -13 -42.5 -35.5t-15.5 -49.5q0 -20 11 -32.5t34 -12.5q30 0 69 31l12 -14q-27 -29 -58.5 -44.5t-62.5 -15.5q-26 0 -44.5 16.5zM74 1.5q-10 11.5 -10 34.5q0 17 6 57.5t8 53.5l12 76q13 87 13 124
q0 26 -31 26q-8 0 -16 -2l-5 29q63 26 114 26q15 0 23 -4.5t8 -17.5q0 -8 -12 -70q-19 -99 -20 -104q-16 -91 -16 -136q0 -27 17 -27q16 0 36 13l12 -20q-32 -33 -60.5 -51.5t-50.5 -18.5q-18 0 -28 11.5zM129.5 559q-13.5 11 -13.5 30q0 24 18 39t44 15q22 0 34.5 -11
t12.5 -30q0 -25 -17 -39.5t-44 -14.5q-21 0 -34.5 11z" />
  </g>

</svg>
