<?xml version="1.0" standalone="no"?>
<!DOCTYPE svg PUBLIC "-//W3C//DTD SVG 1.1//EN" "http://www.w3.org/Graphics/SVG/1.1/DTD/svg11.dtd" >
<svg xmlns="http://www.w3.org/2000/svg" xmlns:xlink="http://www.w3.org/1999/xlink" version="1.1" viewBox="-146 0 388 1000">
  <g transform="matrix(1 0 0 -1 0 800)">
   <path fill="currentColor"
d="M-107 -226.5q-29 18.5 -29 48.5q0 18 11.5 31t33.5 13q15 0 26 -6.5t11 -21.5q0 -6 -3 -16t-3 -15q0 -12 8.5 -18.5t21.5 -6.5q27 0 43 30.5t26.5 86.5t26.5 173l21 153q13 96 13 117q0 31 -30 31q-9 0 -17 -2l-5 29q63 26 114 26q15 0 23 -4.5t8 -18.5
q-8 -48 -30 -192.5t-29 -199.5q-17 -126 -57 -191t-114 -65q-41 0 -70 18.5zM130.5 559q-13.5 11 -13.5 30q0 24 18 39t44 15q22 0 34.5 -11t12.5 -30q0 -25 -17 -39.5t-44 -14.5q-21 0 -34.5 11z" />
  </g>

</svg>
