<?xml version="1.0" standalone="no"?>
<!DOCTYPE svg PUBLIC "-//W3C//DTD SVG 1.1//EN" "http://www.w3.org/Graphics/SVG/1.1/DTD/svg11.dtd" >
<svg xmlns="http://www.w3.org/2000/svg" xmlns:xlink="http://www.w3.org/1999/xlink" version="1.1" viewBox="-10 0 594 1000">
  <g transform="matrix(1 0 0 -1 0 800)">
   <path fill="currentColor"
d="M51 27q17 0 20 22l52 369h-55l4 23h54l15 106l1 7q0 15 -16 15l-38 -2l4 30h228q177 0 177 -134q0 -13 -1 -22h78l-4 -23h-77q-6 -32 -21 -59q-26 -45 -72.5 -70.5t-106.5 -25.5h-100l-30 -214v-5q0 -17 15 -17l49 2l-4 -29h-215l4 29zM339 314q48 40 58 104h-182
l-18 -127h80q33 0 62 23zM401 458q0 51 -27 81t-74 30h-54q-3 0 -7 -3.5t-5 -8.5l-16 -116h182z" />
  </g>

</svg>
