<?xml version="1.0" standalone="no"?>
<!DOCTYPE svg PUBLIC "-//W3C//DTD SVG 1.1//EN" "http://www.w3.org/Graphics/SVG/1.1/DTD/svg11.dtd" >
<svg xmlns="http://www.w3.org/2000/svg" xmlns:xlink="http://www.w3.org/1999/xlink" version="1.1" viewBox="-10 0 431 1000">
  <g transform="matrix(1 0 0 -1 0 800)">
   <path fill="currentColor"
d="M98 341q0 32 -29 32q-8 0 -16 -2l-5 29q29 12 53.5 19t49.5 7q37 0 37 -28q-5 -33 -25 -143q30 77 65 126t79 49q30 0 49 -21.5t19 -50.5q0 -23 -13 -41.5t-39 -18.5q-16 0 -25 7.5t-9 20.5q0 9 6 20.5t6 16.5q0 7 -5 12t-13 5q-23 0 -52 -44.5t-53.5 -111t-36.5 -128.5
l-12 -96h-78q47 303 47 341zM195 500q0 4 9 13l11 11l107 108q12 13 18 17t17 4q17 0 35.5 -9.5t18.5 -16.5q0 -4 -10 -12l-171 -113q-12 -9 -21 -9q-14 0 -14 7z" />
  </g>

</svg>
