<?xml version="1.0" standalone="no"?>
<!DOCTYPE svg PUBLIC "-//W3C//DTD SVG 1.1//EN" "http://www.w3.org/Graphics/SVG/1.1/DTD/svg11.dtd" >
<svg xmlns="http://www.w3.org/2000/svg" xmlns:xlink="http://www.w3.org/1999/xlink" version="1.1" viewBox="-14 0 482 1000">
  <g transform="matrix(1 0 0 -1 0 800)">
   <path fill="currentColor"
d="M75.5 -134q-39.5 16 -59.5 42t-20 57q0 27 15.5 43.5t42.5 16.5q20 0 30 -9t10 -25q0 -14 -9 -32q-8 -16 -8 -25q0 -25 28.5 -41t68.5 -16q44 0 80 20t56.5 56.5t20.5 84.5q0 61 -41.5 89t-142.5 28l4 28q90 7 140 52t50 117q0 46 -23 67t-70 21q-48 0 -74.5 -19.5
t-26.5 -51.5q0 -7 2.5 -16.5t2.5 -15.5q0 -19 -15.5 -32t-38.5 -13q-21 0 -31.5 11t-10.5 32q0 35 29 65.5t77.5 48.5t103.5 18q72 0 117 -31.5t45 -87.5q0 -59 -50 -106t-140 -65v-2q89 -4 135.5 -39.5t46.5 -96.5q0 -52 -31.5 -95.5t-88.5 -68.5t-128 -25q-57 0 -96.5 16z
" />
  </g>

</svg>
