<?xml version="1.0" standalone="no"?>
<!DOCTYPE svg PUBLIC "-//W3C//DTD SVG 1.1//EN" "http://www.w3.org/Graphics/SVG/1.1/DTD/svg11.dtd" >
<svg xmlns="http://www.w3.org/2000/svg" xmlns:xlink="http://www.w3.org/1999/xlink" version="1.1" viewBox="-10 0 516 1000">
  <g transform="matrix(1 0 0 -1 0 800)">
   <path fill="currentColor"
d="M347 0h-327l4 45q195 130 272.5 236t77.5 200q0 48 -23.5 73.5t-67.5 25.5q-53 0 -79.5 -25t-26.5 -61q0 -8 2.5 -20.5t2.5 -19.5q0 -19 -14.5 -30.5t-37.5 -11.5q-21 0 -32 13t-11 38q0 32 21 65t67.5 56t118.5 23q76 0 122.5 -35.5t46.5 -93.5q0 -85 -73.5 -183
t-283.5 -227v-2h177q56 0 86 21.5t44 77.5h36q-41 -129 -49 -168q-9 3 -53 3z" />
  </g>

</svg>
