<?xml version="1.0" standalone="no"?>
<!DOCTYPE svg PUBLIC "-//W3C//DTD SVG 1.1//EN" "http://www.w3.org/Graphics/SVG/1.1/DTD/svg11.dtd" >
<svg xmlns="http://www.w3.org/2000/svg" xmlns:xlink="http://www.w3.org/1999/xlink" version="1.1" viewBox="-10 0 1108 1000">
  <g transform="matrix(1 0 0 -1 0 800)">
   <path fill="currentColor"
d="M113 49v-7q0 -15 13 -15l49 2l-4 -29h-158l4 29l39 -2q18 0 21 22l70 504q0 7 -4 11.5t-11 4.5l-39 -2l4 30h152l249 -439l55 391l1 6q-2 14 -13 14l-52 -2l4 30h159l-4 -30l-41 2q-15 0 -18 -21l-78 -554h-32l-300 527zM705 0q-23 5 -36 5q-22 0 -36 -9l25 176h37
q-3 -18 -3 -39q0 -49 19 -83t62 -34q46 0 70.5 37t37.5 126l52 369v5q0 16 -13 16l-69 -2l4 30h233l-4 -30l-37 2q-18 0 -21 -20l-52 -370q-27 -189 -189 -189q-38 0 -80 10z" />
  </g>

</svg>
