<?xml version="1.0" standalone="no"?>
<!DOCTYPE svg PUBLIC "-//W3C//DTD SVG 1.1//EN" "http://www.w3.org/Graphics/SVG/1.1/DTD/svg11.dtd" >
<svg xmlns="http://www.w3.org/2000/svg" xmlns:xlink="http://www.w3.org/1999/xlink" version="1.1" viewBox="-61 0 646 1000">
  <g transform="matrix(1 0 0 -1 0 800)">
   <path fill="currentColor"
d="M-16 27q17 0 32.5 19t36.5 58l273 503h29l131 -505q11 -41 21 -58t29 -17h5l34 2l-4 -29h-259l4 29l53 -2q27 -1 27 31q0 19 -4 32l-31 118h-222l-60 -112q-21 -38 -21 -55q0 -15 14 -15l51 3l-4 -29h-170l4 29zM288 484l-134 -248h199zM275 756.5q37 33.5 92 33.5
t82.5 -33.5t25.5 -90.5h-44q-3 32 -19 53t-52 21q-35 0 -58.5 -21.5t-34.5 -52.5h-43q14 57 51 90.5z" />
  </g>

</svg>
