<?xml version="1.0" standalone="no"?>
<!DOCTYPE svg PUBLIC "-//W3C//DTD SVG 1.1//EN" "http://www.w3.org/Graphics/SVG/1.1/DTD/svg11.dtd" >
<svg xmlns="http://www.w3.org/2000/svg" xmlns:xlink="http://www.w3.org/1999/xlink" version="1.1" viewBox="-61 0 646 1000">
  <g transform="matrix(1 0 0 -1 0 800)">
   <path fill="currentColor"
d="M-16 27q17 0 32.5 19t36.5 58l273 503h29l131 -505q11 -41 21 -58t29 -17h5l34 2l-4 -29h-259l4 29l53 -2q27 -1 27 31q0 19 -4 32l-31 118h-222l-60 -112q-21 -38 -21 -55q0 -15 14 -15l51 3l-4 -29h-170l4 29zM288 484l-134 -248h199zM281 672l-102 117q-5 8 -4 12
q1 8 10 12q10 4 25 8.5t20 4.5q4 0 6.5 -2t5.5 -7q1 -5 48 -106l13 -28q2 -6 2 -9q-1 -8 -10 -8t-14 6zM401 672q-92 107 -102 117q-5 8 -4 12q1 8 10 12q10 4 25 8.5t20 4.5q4 0 6.5 -2t5.5 -7q1 -5 48 -106l13 -28q2 -6 2 -9q-1 -8 -10 -8t-14 6z" />
  </g>

</svg>
