<?xml version="1.0" standalone="no"?>
<!DOCTYPE svg PUBLIC "-//W3C//DTD SVG 1.1//EN" "http://www.w3.org/Graphics/SVG/1.1/DTD/svg11.dtd" >
<svg xmlns="http://www.w3.org/2000/svg" xmlns:xlink="http://www.w3.org/1999/xlink" version="1.1" viewBox="-10 0 508 1000">
  <g transform="matrix(1 0 0 -1 0 800)">
   <path fill="currentColor"
d="M326 0h-308l4 30l43 -3q12 0 16 22l70 499v4q0 8 -3.5 12.5t-10.5 4.5l-39 -2l4 30h215l-4 -30l-49 2q-8 0 -13.5 -5.5t-7.5 -15.5l-71 -507v-3q0 -10 8 -10h109q66 0 105 36.5t49 106.5h28l-24 -174q-19 3 -121 3zM200.5 -170.5q17.5 17.5 18.5 30.5q4 29 -24 29
q-12 0 -19 9t-7 21q0 18 14.5 32.5t38.5 14.5q25 0 39 -15.5t14 -37.5q0 -40 -30 -74t-69 -52l-14 13q21 12 38.5 29.5z" />
  </g>

</svg>
