<?xml version="1.0" standalone="no"?>
<!DOCTYPE svg PUBLIC "-//W3C//DTD SVG 1.1//EN" "http://www.w3.org/Graphics/SVG/1.1/DTD/svg11.dtd" >
<svg xmlns="http://www.w3.org/2000/svg" xmlns:xlink="http://www.w3.org/1999/xlink" version="1.1" viewBox="-66 0 559 1000">
  <g transform="matrix(1 0 0 -1 0 800)">
   <path fill="currentColor"
d="M-6 -214q12 -1 15 19l83 579q0 12 -10 12l-36 -2l4 26h133l-44 -321q0 -54 35 -54q28 0 64 39t67.5 97.5t46.5 110.5l18 119l92 17q-32 -165 -45 -239.5t-13 -104.5q0 -17 13 -17q18 0 38 13l12 -20q-34 -37 -66.5 -53.5t-58.5 -16.5q-14 0 -19 11t-5 35q0 28 17 143
q-56 -103 -101.5 -146t-113.5 -41l-27 -192q0 -14 11 -14l45 1l-4 -26h-201l4 26z" />
  </g>

</svg>
