<?xml version="1.0" standalone="no"?>
<!DOCTYPE svg PUBLIC "-//W3C//DTD SVG 1.1//EN" "http://www.w3.org/Graphics/SVG/1.1/DTD/svg11.dtd" >
<svg xmlns="http://www.w3.org/2000/svg" xmlns:xlink="http://www.w3.org/1999/xlink" version="1.1" viewBox="-10 0 659 1000">
  <g transform="matrix(1 0 0 -1 0 800)">
   <path fill="currentColor"
d="M328.5 -142.5q-18.5 16.5 -18.5 45.5q0 32 22.5 61.5t64.5 49.5h29q-27 -13 -42.5 -35.5t-15.5 -49.5q0 -20 11 -32.5t34 -12.5q30 0 69 31l12 -14q-27 -29 -58.5 -44.5t-62.5 -15.5q-26 0 -44.5 16.5zM127.5 46.5q-77.5 56.5 -77.5 195.5q0 135 56 222t129 115t144 28
q96 0 170 -55.5t74 -195.5q0 -147 -55.5 -228t-129.5 -109.5t-145 -28.5q-88 0 -165.5 56.5zM478 139q46 108 46 244q0 107 -35.5 152t-122.5 45q-126 0 -177 -137q-41 -108 -41 -228q0 -105 34.5 -151.5t123.5 -46.5q119 0 172 122z" />
  </g>

</svg>
