<?xml version="1.0" standalone="no"?>
<!DOCTYPE svg PUBLIC "-//W3C//DTD SVG 1.1//EN" "http://www.w3.org/Graphics/SVG/1.1/DTD/svg11.dtd" >
<svg xmlns="http://www.w3.org/2000/svg" xmlns:xlink="http://www.w3.org/1999/xlink" version="1.1" viewBox="-10 0 893 1000">
  <g transform="matrix(1 0 0 -1 0 800)">
   <path fill="currentColor"
d="M113 49v-7q0 -15 13 -15l49 2l-4 -29h-158l4 29l39 -2q18 0 21 22l70 504q0 7 -4 11.5t-11 4.5l-39 -2l4 30h152l249 -439l55 391l1 6q-2 14 -13 14l-52 -2l4 30h159l-4 -30l-41 2q-15 0 -18 -21l-78 -554h-32l-300 527zM534 -226.5q-29 18.5 -29 48.5q0 18 11.5 31
t33.5 13q15 0 26 -6.5t11 -21.5q0 -6 -3 -16t-3 -15q0 -12 8.5 -18.5t21.5 -6.5q27 0 43 30.5t26.5 86.5t26.5 173l21 153q13 96 13 117q0 31 -30 31q-9 0 -17 -2l-5 29q63 26 114 26q15 0 23 -4.5t8 -18.5q-8 -48 -30 -192.5t-29 -199.5q-17 -126 -57 -191t-114 -65
q-41 0 -70 18.5zM771.5 559q-13.5 11 -13.5 30q0 24 18 39t44 15q22 0 34.5 -11t12.5 -30q0 -25 -17 -39.5t-44 -14.5q-21 0 -34.5 11z" />
  </g>

</svg>
