<?xml version="1.0" standalone="no"?>
<!DOCTYPE svg PUBLIC "-//W3C//DTD SVG 1.1//EN" "http://www.w3.org/Graphics/SVG/1.1/DTD/svg11.dtd" >
<svg xmlns="http://www.w3.org/2000/svg" xmlns:xlink="http://www.w3.org/1999/xlink" version="1.1" viewBox="-10 0 572 1000">
  <g transform="matrix(1 0 0 -1 0 800)">
   <path fill="currentColor"
d="M167 27q8 0 13 7t7 18l71 505v3q0 9 -8 9h-40q-63 0 -95 -30.5t-41 -95.5h-28l22 156q16 -2 40 -2h404q34 0 40 3l-22 -157h-28q3 20 3 36q0 46 -24.5 68t-77.5 22h-40q-12 0 -12 -11l-71 -509v-6q0 -16 14 -16l53 2l-4 -29h-234l4 29zM166.5 -162q-13.5 11 -13.5 30
q0 24 18 39t44 15q22 0 34.5 -11t12.5 -30q0 -25 -17 -39.5t-44 -14.5q-21 0 -34.5 11z" />
  </g>

</svg>
