<?xml version="1.0" standalone="no"?>
<!DOCTYPE svg PUBLIC "-//W3C//DTD SVG 1.1//EN" "http://www.w3.org/Graphics/SVG/1.1/DTD/svg11.dtd" >
<svg xmlns="http://www.w3.org/2000/svg" xmlns:xlink="http://www.w3.org/1999/xlink" version="1.1" viewBox="-10 0 461 1000">
  <g transform="matrix(1 0 0 -1 0 800)">
   <path fill="currentColor"
d="M64.5 35.5q-36.5 45.5 -36.5 120.5q0 71 30.5 134t86 101.5t127.5 38.5q78 0 114.5 -45.5t36.5 -120.5q0 -71 -30.5 -134t-86 -101.5t-127.5 -38.5q-78 0 -114.5 45.5zM317 152q19 59 18 120q-2 125 -77 126q-75 3 -118 -113q-24 -64 -24 -137q0 -125 77 -126
q81 -1 124 130zM122 500q0 4 27 25q43 36 59 51l50 48q27 25 34 25q8 0 26 -25l36 -48q19 -25 49 -55q16 -16 16 -20q0 -8 -13 -8q-10 0 -27 12l-97 73l-120 -73q-22 -12 -29 -12q-11 0 -11 7zM274 711q0 18 18 26q51 23 52 47q0 16 -9 23.5t-26 7.5q-19 0 -33 -6v22
q24 10 59 10q28 0 44 -13t16 -39q0 -25 -15 -39.5t-39 -21.5q-15 -4 -22 -8t-9 -13q-1 -8 -4 -36h-29q-3 24 -3 40z" />
  </g>

</svg>
