<?xml version="1.0" standalone="no"?>
<!DOCTYPE svg PUBLIC "-//W3C//DTD SVG 1.1//EN" "http://www.w3.org/Graphics/SVG/1.1/DTD/svg11.dtd" >
<svg xmlns="http://www.w3.org/2000/svg" xmlns:xlink="http://www.w3.org/1999/xlink" version="1.1" viewBox="-10 0 700 1000">
  <g transform="matrix(1 0 0 -1 0 800)">
   <path fill="currentColor"
d="M61 27q17 0 20 22l70 499l1 6q0 16 -15 15l-39 -2l4 30h215l-4 -30l-49 2q-8 0 -13.5 -5.5t-7.5 -15.5l-32 -226h281l32 226v5q0 16 -14 16l-49 -2l4 30h215l-4 -30l-40 2q-16 0 -19 -21l-70 -499v-7q0 -15 13 -15l40 2l-4 -29h-215l4 29l49 -2q17 0 20 22l34 245h-281
l-34 -245v-5q0 -17 15 -17l49 2l-4 -29h-215l4 29zM245.5 -162q-13.5 11 -13.5 30q0 24 18 39t44 15q22 0 34.5 -11t12.5 -30q0 -25 -17 -39.5t-44 -14.5q-21 0 -34.5 11z" />
  </g>

</svg>
