<?xml version="1.0" standalone="no"?>
<!DOCTYPE svg PUBLIC "-//W3C//DTD SVG 1.1//EN" "http://www.w3.org/Graphics/SVG/1.1/DTD/svg11.dtd" >
<svg xmlns="http://www.w3.org/2000/svg" xmlns:xlink="http://www.w3.org/1999/xlink" version="1.1" viewBox="-10 0 665 1000">
  <g transform="matrix(1 0 0 -1 0 800)">
   <path fill="currentColor"
d="M118 668l-80 13v62h533l13 -168h-70l-33 99l-216 9v-269l139 3l16 82h64v-242h-64l-16 86l-139 3v-282l242 12l58 128l75 -21l-26 -183h-575v60l79 10v598zM158 830q-18 21 -18 50q0 37 19.5 60.5t57.5 23.5h1q34 0 52 -20.5t18 -50.5q0 -37 -21 -60.5t-62 -23.5h-1
q-28 0 -46 21zM412 830.5q-18 21.5 -18 49.5q0 37 19.5 60.5t57.5 23.5h1q35 0 52.5 -20.5t17.5 -50.5q0 -38 -21 -61t-63 -23q-28 0 -46 21.5z" />
  </g>

</svg>
