<?xml version="1.0" standalone="no"?>
<!DOCTYPE svg PUBLIC "-//W3C//DTD SVG 1.1//EN" "http://www.w3.org/Graphics/SVG/1.1/DTD/svg11.dtd" >
<svg xmlns="http://www.w3.org/2000/svg" xmlns:xlink="http://www.w3.org/1999/xlink" version="1.1" viewBox="-10 0 665 1000">
  <g transform="matrix(1 0 0 -1 0 800)">
   <path fill="currentColor"
d="M118 668l-80 13v62h533l13 -168h-70l-33 99l-216 9v-269l139 3l16 82h64v-242h-64l-16 86l-139 3v-282l242 12l58 128l75 -21l-26 -183h-575v60l79 10v598zM269.5 846.5q-53.5 37.5 -82.5 72.5l96 63l135 -149l-58 -38q-37 14 -90.5 51.5z" />
  </g>

</svg>
