<?xml version="1.0" standalone="no"?>
<!DOCTYPE svg PUBLIC "-//W3C//DTD SVG 1.1//EN" "http://www.w3.org/Graphics/SVG/1.1/DTD/svg11.dtd" >
<svg xmlns="http://www.w3.org/2000/svg" xmlns:xlink="http://www.w3.org/1999/xlink" version="1.1" viewBox="-10 0 738 1000">
  <g transform="matrix(1 0 0 -1 0 800)">
   <path fill="currentColor"
d="M111 91q-81 102 -81 278q0 115 42.5 202t119.5 134t177 47q165 0 247.5 -97.5t82.5 -272.5q0 -116 -43.5 -205.5t-121.5 -138.5t-179 -49q-163 0 -244 102zM237 610q-46 -81 -46 -240q0 -157 44.5 -238.5t127.5 -81.5q81 0 127 85.5t46 246.5q0 156 -44 232.5t-127 76.5
q-82 0 -128 -81zM394 817.5q-18 9.5 -42 29.5q-17 15 -29 22t-27 7q-24 0 -37 -15.5t-23 -44.5l-56 34q15 52 45.5 81.5t74.5 29.5q29 0 48.5 -10.5t42.5 -30.5q18 -15 29 -21.5t25 -6.5q39 0 59 61l56 -34q-32 -111 -119 -111q-29 0 -47 9.5z" />
  </g>

</svg>
