<?xml version="1.0" standalone="no"?>
<!DOCTYPE svg PUBLIC "-//W3C//DTD SVG 1.1//EN" "http://www.w3.org/Graphics/SVG/1.1/DTD/svg11.dtd" >
<svg xmlns="http://www.w3.org/2000/svg" xmlns:xlink="http://www.w3.org/1999/xlink" version="1.1" viewBox="-10 0 745 1000">
  <g transform="matrix(1 0 0 -1 0 800)">
   <path fill="currentColor"
d="M39 60l79 10v598l-75 14v61h145q19 0 42 1t35 2q52 4 86 4q103 0 165 -21t90 -64t28 -113q0 -69 -37 -128t-107 -81q40 -17 71 -62t66 -117q25 -49 38.5 -70.5t26.5 -24.5l33 -10v-59h-170q-16 0 -33.5 32.5t-45.5 102.5q-33 82 -57 128t-51 57h-103v-250l92 -10v-60
h-318v60zM446 422q32 41 32 123q0 73 -31.5 108t-108.5 35q-28 0 -47.5 -2.5t-25.5 -2.5v-300q12 -2 58 -2h34q57 0 89 41zM280 833l130 149l101 -63q-34 -39 -83.5 -74.5t-84.5 -49.5z" />
  </g>

</svg>
