<?xml version="1.0" standalone="no"?>
<!DOCTYPE svg PUBLIC "-//W3C//DTD SVG 1.1//EN" "http://www.w3.org/Graphics/SVG/1.1/DTD/svg11.dtd" >
<svg xmlns="http://www.w3.org/2000/svg" xmlns:xlink="http://www.w3.org/1999/xlink" version="1.1" viewBox="-10 0 674 1000">
  <g transform="matrix(1 0 0 -1 0 800)">
   <path fill="currentColor"
d="M535 62q-55 -59 -166 -70l-1 -118h-80l1 116q-61 4 -109 16t-96 27l8 178h82l24 -123q37 -35 118 -35q130 0 130 112q0 34 -22 61.5t-57 49t-98 53.5q-58 30 -95.5 59t-60.5 71.5t-23 101.5q0 73 55.5 125.5t149.5 63.5v110h82v-109q50 -3 88.5 -13t80.5 -23l-5 -164h-80
l-23 113q-12 11 -35 19t-51 8q-56 0 -90 -26.5t-34 -73.5q0 -38 22.5 -66t52 -46t90.5 -51q69 -38 107.5 -65.5t64 -66.5t25.5 -93q0 -82 -55 -141z" />
  </g>

</svg>
