<?xml version="1.0" standalone="no"?>
<!DOCTYPE svg PUBLIC "-//W3C//DTD SVG 1.1//EN" "http://www.w3.org/Graphics/SVG/1.1/DTD/svg11.dtd" >
<svg xmlns="http://www.w3.org/2000/svg" xmlns:xlink="http://www.w3.org/1999/xlink" version="1.1" viewBox="-10 0 1207 1000">
  <g transform="matrix(1 0 0 -1 0 800)">
   <path fill="currentColor"
d="M113.5 314.5q21.5 -2.5 35.5 -2.5q76 0 118.5 30.5t42.5 84.5q0 42 -24.5 66.5t-72.5 24.5q-33 0 -62.5 -9t-44.5 -18l-39 26l25 262h322l-5 -83h-241l-21 -141q18 10 53.5 20t71.5 10q83 0 122.5 -39.5t39.5 -106.5q0 -84 -71 -134t-196 -50q-60 0 -93 11l7 54
q11 -3 32.5 -5.5zM797 804l-349 -892l-87 5l350 893zM833.5 8q-48.5 16 -79 48.5t-30.5 80.5q0 39 26 70t73 47q-36 24 -56.5 54.5t-20.5 72.5q0 41 25.5 73.5t69.5 50t97 17.5q88 0 134 -37t46 -91q0 -33 -22 -65.5t-63 -52.5q54 -26 84.5 -56.5t30.5 -76.5
q0 -45 -27.5 -79.5t-75.5 -53t-108 -18.5q-55 0 -103.5 16zM868 361.5q18 -18.5 43.5 -31.5t71.5 -32q24 16 36.5 42t12.5 48q0 37 -26 61t-68 24q-38 0 -63 -19.5t-25 -49.5q0 -24 18 -42.5zM1002 165.5q-28 19.5 -86 43.5q-28 11 -49 21q-22 -12 -34.5 -33t-12.5 -45
q0 -49 30.5 -79t83.5 -30q38 0 67 20.5t29 51.5t-28 50.5z" />
  </g>

</svg>
