<?xml version="1.0" standalone="no"?>
<!DOCTYPE svg PUBLIC "-//W3C//DTD SVG 1.1//EN" "http://www.w3.org/Graphics/SVG/1.1/DTD/svg11.dtd" >
<svg xmlns="http://www.w3.org/2000/svg" xmlns:xlink="http://www.w3.org/1999/xlink" version="1.1" viewBox="-10 0 634 1000">
  <g transform="matrix(1 0 0 -1 0 800)">
   <path fill="currentColor"
d="M93 -228q-60 42 -60 114q0 41 27.5 77.5t66.5 54.5q-46 27 -46 86q0 34 22 64.5t57 47.5q-55 21 -82 64t-27 102q0 57 33.5 99.5t90 65.5t122.5 23q117 0 174 -45q13 17 44 32t64 15h35v-109h-103q15 -32 15 -68q1 -91 -64 -145.5t-178 -54.5q-47 0 -79 7
q-10 -13 -15.5 -27.5t-5.5 -25.5q0 -33 23.5 -45t84.5 -12h107q204 0 204 -148q0 -62 -44 -111t-117 -76t-155 -27q-134 0 -194 42zM387 384q0 65 -23.5 95.5t-71.5 30.5q-47 0 -72.5 -30.5t-25.5 -91.5q0 -131 100 -131q93 0 93 127zM411 -170.5q46 30.5 46 84.5
q0 43 -22.5 62t-80.5 19h-109q-25 0 -46 3q-27 -36 -27 -86q0 -55 30 -84t100 -29q63 0 109 30.5zM223.5 670.5q-40.5 21.5 -62.5 58t-22 82.5q0 31 2 41h67q0 -13 1 -20q3 -36 29.5 -60.5t78.5 -24.5t77.5 24.5t29.5 59.5q2 15 1 21h65q2 -20 2 -40q0 -46 -22 -83
t-62 -58.5t-91 -21.5q-53 0 -93.5 21.5z" />
  </g>

</svg>
