<?xml version="1.0" standalone="no"?>
<!DOCTYPE svg PUBLIC "-//W3C//DTD SVG 1.1//EN" "http://www.w3.org/Graphics/SVG/1.1/DTD/svg11.dtd" >
<svg xmlns="http://www.w3.org/2000/svg" xmlns:xlink="http://www.w3.org/1999/xlink" version="1.1" viewBox="-10 0 776 1000">
  <g transform="matrix(1 0 0 -1 0 800)">
   <path fill="currentColor"
d="M186 500q0 74 35 131.5t95.5 89t132.5 31.5q112 0 176 -52l-63 -90q-7 12 -25.5 28.5t-46.5 28.5t-59 12q-42 0 -69 -31t-27 -117v-40h152v-57h-152v-81h141v-56h-141v-36q0 -57 -16.5 -93.5t-45.5 -63.5q19 -2 43 -6.5t33 -6.5q74 -17 120 -17q63 0 87.5 23t24.5 73
q0 29 -8.5 55t-19.5 36h144q9 -9 16 -31.5t7 -50.5q0 -51 -27.5 -93.5t-77.5 -67.5t-115 -25q-48 0 -87.5 9t-92.5 26q-40 13 -64 19t-48 6q-53 -53 -104 -53q-25 0 -43 12t-18 36q0 32 38.5 54t83.5 21q8 12 14.5 46.5t6.5 72.5v55h-96v56h96v81h-85v57h85v9z" />
  </g>

</svg>
