<?xml version="1.0" standalone="no"?>
<!DOCTYPE svg PUBLIC "-//W3C//DTD SVG 1.1//EN" "http://www.w3.org/Graphics/SVG/1.1/DTD/svg11.dtd" >
<svg xmlns="http://www.w3.org/2000/svg" xmlns:xlink="http://www.w3.org/1999/xlink" version="1.1" viewBox="-10 0 639 1000">
  <g transform="matrix(1 0 0 -1 0 800)">
   <path fill="currentColor"
d="M82.5 437q37.5 66 100.5 99.5t137 33.5q126 0 194.5 -77.5t68.5 -210.5q0 -95 -37.5 -161.5t-100 -99t-137.5 -32.5q-125 0 -194 77.5t-69 210.5q0 94 37.5 160zM429 272q0 114 -27 173.5t-88 59.5q-116 0 -116 -218q0 -114 28.5 -173.5t89.5 -59.5q113 0 113 218z
M360 863l149 -195l-50 -38l-142 132l-146 -133l-47 38l149 196h87z" />
  </g>

</svg>
