<?xml version="1.0" standalone="no"?>
<!DOCTYPE svg PUBLIC "-//W3C//DTD SVG 1.1//EN" "http://www.w3.org/Graphics/SVG/1.1/DTD/svg11.dtd" >
<svg xmlns="http://www.w3.org/2000/svg" xmlns:xlink="http://www.w3.org/1999/xlink" version="1.1" viewBox="-10 0 951 1000">
  <g transform="matrix(1 0 0 -1 0 800)">
   <path fill="currentColor"
d="M104.5 64.5q-69.5 75.5 -69.5 211.5q0 94 38 160.5t101 100t138 33.5q130 0 189 -83q35 40 84 61.5t108 21.5q100 0 154.5 -52.5t56.5 -149.5q0 -64 -7 -98h-326q4 -90 43.5 -141t110.5 -51q38 0 80.5 13t67.5 30l23 -54q-28 -29 -88 -53.5t-122 -24.5q-132 0 -198 88
q-34 -42 -82.5 -65t-107.5 -23q-124 0 -193.5 75.5zM764 330q1 14 1 43q0 133 -88 133q-49 0 -76 -38.5t-31 -137.5h194zM390.5 107q28.5 53 28.5 166q0 117 -27.5 174.5t-87.5 57.5q-115 0 -115 -219q0 -119 29 -175.5t88 -56.5q56 0 84.5 53z" />
  </g>

</svg>
