<?xml version="1.0" standalone="no"?>
<!DOCTYPE svg PUBLIC "-//W3C//DTD SVG 1.1//EN" "http://www.w3.org/Graphics/SVG/1.1/DTD/svg11.dtd" >
<svg xmlns="http://www.w3.org/2000/svg" xmlns:xlink="http://www.w3.org/1999/xlink" version="1.1" viewBox="-10 0 420 1000">
  <g transform="matrix(1 0 0 -1 0 800)">
   <path fill="currentColor"
d="M91 479h-66v52q5 2 32 11.5t30 11.5q17 14 28 45q9 21 33 104h80l4 -147h153v-77h-152v-120h148v-70h-148v-91q0 -56 3.5 -79t13.5 -29.5t34 -6.5q25 0 52 5.5t45 13.5h1l18 -56q-27 -21 -81.5 -38t-105.5 -17h-1q-62 0 -91.5 28.5t-29.5 92.5v177h-67v70h67v120z" />
  </g>

</svg>
