<?xml version="1.0" standalone="no"?>
<!DOCTYPE svg PUBLIC "-//W3C//DTD SVG 1.1//EN" "http://www.w3.org/Graphics/SVG/1.1/DTD/svg11.dtd" >
<svg xmlns="http://www.w3.org/2000/svg" xmlns:xlink="http://www.w3.org/1999/xlink" version="1.1" viewBox="-10 0 631 1000">
  <g transform="matrix(1 0 0 -1 0 800)">
   <path fill="currentColor"
d="M186 820h2l29 -19v-295q27 27 66.5 45.5t85.5 18.5q96 0 156.5 -67.5t60.5 -206.5q0 -86 -36 -156t-103.5 -110.5t-157.5 -40.5q-42 0 -75 6l3 -62v-108l99 -12v-55h-304v55l67 12v909l-76 12v52zM259 468.5q-27 -13.5 -42 -30.5v-365q5 -11 27.5 -18t50.5 -7
q64 0 102.5 59.5t38.5 176.5q0 101 -33 149.5t-88 48.5q-29 0 -56 -13.5z" />
  </g>

</svg>
