<?xml version="1.0" standalone="no"?>
<!DOCTYPE svg PUBLIC "-//W3C//DTD SVG 1.1//EN" "http://www.w3.org/Graphics/SVG/1.1/DTD/svg11.dtd" >
<svg xmlns="http://www.w3.org/2000/svg" xmlns:xlink="http://www.w3.org/1999/xlink" version="1.1" viewBox="-10 0 420 1000">
  <g transform="matrix(1 0 0 -1 0 800)">
   <path fill="currentColor"
d="M25 531q8 3 29 10.5t32 12.5q17 13 29 45q9 21 33 104h80l4 -147h153v-77h-152v-281q0 -56 3 -79t13 -29.5t35 -6.5t52 5.5t45 13.5l19 -56q-19 -15 -55.5 -29.5t-76.5 -21.5q23 -23 42 -58.5t19 -74.5q0 -62 -35.5 -87.5t-106.5 -25.5q-17 0 -37 4.5t-34 10.5l1 83
q20 -7 42 -7q39 0 55 13t16 56q0 20 -7.5 42.5t-17.5 39.5q-58 2 -86.5 31t-28.5 90v367h-65v52z" />
  </g>

</svg>
