<?xml version="1.0" standalone="no"?>
<!DOCTYPE svg PUBLIC "-//W3C//DTD SVG 1.1//EN" "http://www.w3.org/Graphics/SVG/1.1/DTD/svg11.dtd" >
<svg xmlns="http://www.w3.org/2000/svg" xmlns:xlink="http://www.w3.org/1999/xlink" version="1.1" viewBox="-10 0 1152 1000">
  <g transform="matrix(1 0 0 -1 0 800)">
   <path fill="currentColor"
d="M727 83.5q24 -27.5 77 -27.5q58 0 84.5 29t26.5 92v163l-76 14v62h292v-62l-70 -14v-172q0 -85 -70 -130.5t-191 -45.5q-244 0 -244 182v167h-291v-271l80 -10v-60h-304v60l78 10v598l-75 13v62h305v-62l-84 -13v-251h291v252l-88 14v60h317v-60l-82 -14v-490
q0 -68 24 -95.5z" />
  </g>

</svg>
