<?xml version="1.0" standalone="no"?>
<!DOCTYPE svg PUBLIC "-//W3C//DTD SVG 1.1//EN" "http://www.w3.org/Graphics/SVG/1.1/DTD/svg11.dtd" >
<svg xmlns="http://www.w3.org/2000/svg" xmlns:xlink="http://www.w3.org/1999/xlink" version="1.1" viewBox="-10 0 541 1000">
  <g transform="matrix(1 0 0 -1 0 800)">
   <path fill="currentColor"
d="M122.5 562q55.5 9 101.5 9q79 0 142.5 -33.5t100.5 -99t37 -158.5q0 -89 -32.5 -154.5t-92.5 -101t-139 -35.5q-64 0 -115.5 15.5t-81.5 40.5l-4 104h68l22 -76q40 -18 82 -18q131 0 142 193l-206 -5v81l206 -6q-4 92 -38.5 141.5t-92.5 49.5q-51 0 -80 -29l-17 -67h-80
l-1 130q23 10 78.5 19z" />
  </g>

</svg>
