<?xml version="1.0" standalone="no"?>
<!DOCTYPE svg PUBLIC "-//W3C//DTD SVG 1.1//EN" "http://www.w3.org/Graphics/SVG/1.1/DTD/svg11.dtd" >
<svg xmlns="http://www.w3.org/2000/svg" xmlns:xlink="http://www.w3.org/1999/xlink" version="1.1" viewBox="-10 0 673 1000">
  <g transform="matrix(1 0 0 -1 0 800)">
   <path fill="currentColor"
d="M380 213q-28 -13 -60 -19.5t-69 -6.5q-100 0 -146 48t-46 165v84l-55 13v59h256v-59l-57 -13v-59q0 -70 8 -104.5t30 -48t66 -13.5q33 0 61.5 9t46.5 21v195l-68 13v59h274v-59l-66 -13v-414l67 -10v-60h-296v60l89 10v159q-7 -3 -35 -16z" />
  </g>

</svg>
