<?xml version="1.0" standalone="no"?>
<!DOCTYPE svg PUBLIC "-//W3C//DTD SVG 1.1//EN" "http://www.w3.org/Graphics/SVG/1.1/DTD/svg11.dtd" >
<svg xmlns="http://www.w3.org/2000/svg" xmlns:xlink="http://www.w3.org/1999/xlink" version="1.1" viewBox="-152 0 304 1000">
  <g transform="matrix(1 0 0 -1 0 800)">
   <path fill="currentColor"
d="M-38 844q0 7 4 12t13 13t13.5 14t4.5 14q0 12 -10 19t-28 7q-26 0 -47 -10l-3 63q2 3 24.5 5t36.5 2q50 0 78.5 -17.5t28.5 -52.5q0 -16 -7.5 -27t-23.5 -21q-19 -17 -19 -31q0 -3 2 -9l-57 -1q-10 8 -10 20zM-105 754q-37 25 -37 68q0 23 2 30h56v-11q0 -17 20.5 -28.5
t63.5 -11.5t65 11.5t22 27.5q0 9 -1 12h54q2 -14 2 -29q0 -44 -36 -69t-106 -25q-68 0 -105 25z" />
  </g>

</svg>
