<?xml version="1.0" standalone="no"?>
<!DOCTYPE svg PUBLIC "-//W3C//DTD SVG 1.1//EN" "http://www.w3.org/Graphics/SVG/1.1/DTD/svg11.dtd" >
<svg xmlns="http://www.w3.org/2000/svg" xmlns:xlink="http://www.w3.org/1999/xlink" version="1.1" viewBox="-10 0 768 1000">
  <g transform="matrix(1 0 0 -1 0 800)">
   <path fill="currentColor"
d="M331 556v-59l-77 -13v-302l56 74l194 207v21l-67 13v59h277v-59l-68 -13v-415l71 -9v-60h-288v60l75 9v307l-58 -83l-192 -203v-23l66 -7v-60h-277v60l70 9v415l-68 13v59h286zM204 669q-18 21 -18 52q0 38 19.5 62t57.5 24q35 0 52.5 -21t17.5 -52q0 -39 -18.5 -62.5
t-60.5 -23.5q-32 0 -50 21zM444 670q-18 22 -18 51q0 38 19.5 62t57.5 24q35 0 52.5 -21t17.5 -52q0 -39 -19 -62.5t-61 -23.5q-31 0 -49 22z" />
  </g>

</svg>
