<?xml version="1.0" standalone="no"?>
<!DOCTYPE svg PUBLIC "-//W3C//DTD SVG 1.1//EN" "http://www.w3.org/Graphics/SVG/1.1/DTD/svg11.dtd" >
<svg xmlns="http://www.w3.org/2000/svg" xmlns:xlink="http://www.w3.org/1999/xlink" version="1.1" viewBox="-10 0 560 1000">
  <g transform="matrix(1 0 0 -1 0 800)">
   <path fill="currentColor"
d="M69.5 434q33.5 66 94.5 101t141 35q100 0 154 -52.5t56 -149.5q0 -66 -8 -98h-325q4 -91 43 -141.5t111 -50.5q39 0 80.5 13t65.5 31l25 -55q-25 -26 -77.5 -49t-109.5 -28q21 -23 38 -57t17 -70q0 -63 -35 -88.5t-106 -25.5q-17 0 -37.5 4.5t-33.5 10.5l-1 83
q9 -3 22.5 -5t21.5 -2q38 0 54.5 13t16.5 56q0 38 -26 83q-108 13 -161.5 89t-53.5 197q0 90 33.5 156zM375 330q2 28 2 43q0 133 -89 133q-49 0 -76 -39t-30 -137h193z" />
  </g>

</svg>
