<?xml version="1.0" standalone="no"?>
<!DOCTYPE svg PUBLIC "-//W3C//DTD SVG 1.1//EN" "http://www.w3.org/Graphics/SVG/1.1/DTD/svg11.dtd" >
<svg xmlns="http://www.w3.org/2000/svg" xmlns:xlink="http://www.w3.org/1999/xlink" version="1.1" viewBox="-10 0 1076 1000">
  <g transform="matrix(1 0 0 -1 0 800)">
   <path fill="currentColor"
d="M851 323.5q41 -55.5 92 -146.5q28 -52 44.5 -77t30.5 -29l38 -11v-60h-160q-24 0 -48.5 38.5t-61.5 116.5q-43 92 -75.5 140.5t-67.5 48.5h-44v-273l89 -12v-59h-314v60l85 10v274h-45q-35 0 -67 -48t-76 -139q-38 -79 -63.5 -118t-50.5 -39h-154v60l36 11q14 4 31 30
t45 77q51 91 92 146.5t91 71.5l-197 272l-82 13v62h261v-62l-72 -13l176 -268h75v268l-82 13v62h305v-62l-83 -13v-268h75l175 268l-72 13v62h263v-62l-83 -13l-198 -273q51 -16 92 -71.5zM439 936q0 -38 21 -58.5t69 -20.5q47 0 67.5 20.5t20.5 58.5q0 18 3.5 32.5
t12.5 14.5h98l1 -27q0 -74 -54 -114t-150 -40q-94 0 -148.5 40.5t-54.5 113.5l1 27h97q16 0 16 -47z" />
  </g>

</svg>
