<?xml version="1.0" standalone="no"?>
<!DOCTYPE svg PUBLIC "-//W3C//DTD SVG 1.1//EN" "http://www.w3.org/Graphics/SVG/1.1/DTD/svg11.dtd" >
<svg xmlns="http://www.w3.org/2000/svg" xmlns:xlink="http://www.w3.org/1999/xlink" version="1.1" viewBox="-203 0 407 1000">
  <g transform="matrix(1 0 0 -1 0 800)">
   <path fill="currentColor"
d="M-175 669q-18 21 -18 52q0 38 19.5 62t57.5 24q35 0 52.5 -21t17.5 -52q0 -39 -18.5 -62.5t-60.5 -23.5q-32 0 -50 21zM65 670q-18 22 -18 51q0 38 19.5 62t57.5 24q35 0 52.5 -21t17.5 -52q0 -39 -19 -62.5t-61 -23.5q-31 0 -49 22z" />
  </g>

</svg>
