<?xml version="1.0" standalone="no"?>
<!DOCTYPE svg PUBLIC "-//W3C//DTD SVG 1.1//EN" "http://www.w3.org/Graphics/SVG/1.1/DTD/svg11.dtd" >
<svg xmlns="http://www.w3.org/2000/svg" xmlns:xlink="http://www.w3.org/1999/xlink" version="1.1" viewBox="-10 0 739 1000">
  <g transform="matrix(1 0 0 -1 0 800)">
   <path fill="currentColor"
d="M342 743v-62l-85 -14l137 -227l141 228l-86 13v62h257v-62l-81 -14l-181 -253l148 3v-76l-128 3l185 -274l70 -10v-60h-326v60l84 10l-150 245l-144 -245l96 -10v-60h-273v60l84 10l186 274l-148 -3v76l127 -3l-171 253l-69 14v62h327z" />
  </g>

</svg>
