<?xml version="1.0" standalone="no"?>
<!DOCTYPE svg PUBLIC "-//W3C//DTD SVG 1.1//EN" "http://www.w3.org/Graphics/SVG/1.1/DTD/svg11.dtd" >
<svg xmlns="http://www.w3.org/2000/svg" xmlns:xlink="http://www.w3.org/1999/xlink" version="1.1" viewBox="-10 0 738 1000">
  <g transform="matrix(1 0 0 -1 0 800)">
   <path fill="currentColor"
d="M111 91q-81 102 -81 278q0 115 42.5 202t119.5 134t177 47q166 0 248 -97.5t82 -272.5q0 -117 -43.5 -206t-121.5 -138t-179 -49q-163 0 -244 102zM286 450q25 0 47.5 -8.5t51.5 -24.5q24 -13 41 -20t34 -7q22 0 39 10t36 27q-15 264 -170 264q-78 0 -123.5 -71.5
t-49.5 -211.5q42 42 94 42zM487.5 128.5q44.5 78.5 47.5 223.5q-43 -41 -93 -41q-26 0 -49.5 8.5t-51.5 24.5q-23 13 -40 19.5t-33 6.5q-24 0 -41 -10.5t-35 -27.5q6 -139 50 -210.5t121 -71.5q80 0 124.5 78.5z" />
  </g>

</svg>
