<?xml version="1.0" standalone="no"?>
<!DOCTYPE svg PUBLIC "-//W3C//DTD SVG 1.1//EN" "http://www.w3.org/Graphics/SVG/1.1/DTD/svg11.dtd" >
<svg xmlns="http://www.w3.org/2000/svg" xmlns:xlink="http://www.w3.org/1999/xlink" version="1.1" viewBox="-10 0 665 1000">
  <g transform="matrix(1 0 0 -1 0 800)">
   <path fill="currentColor"
d="M248.5 -246.5q-20.5 4.5 -33.5 10.5v83q20 -7 43 -7q39 0 55 13t16 56q0 24 -10 49.5t-21 41.5h-259v60l79 10v598l-80 13v62h533l13 -168h-70l-33 99l-216 9v-269l139 3l16 82h64v-242h-64l-16 86l-139 3v-282l242 12l58 128l75 -21l-26 -183h-252q23 -21 44.5 -59
t21.5 -79q0 -62 -35.5 -87.5t-106.5 -25.5q-17 0 -37.5 4.5z" />
  </g>

</svg>
