<?xml version="1.0" standalone="no"?>
<!DOCTYPE svg PUBLIC "-//W3C//DTD SVG 1.1//EN" "http://www.w3.org/Graphics/SVG/1.1/DTD/svg11.dtd" >
<svg xmlns="http://www.w3.org/2000/svg" xmlns:xlink="http://www.w3.org/1999/xlink" version="1.1" viewBox="-10 0 729 1000">
  <g transform="matrix(1 0 0 -1 0 800)">
   <path fill="currentColor"
d="M478 352q60 -80 94 -130t56.5 -101t22.5 -97q0 -74 -49 -135t-139 -92l-41 51q54 25 74 55.5t20 73.5q0 39 -20 86t-55 102.5t-107 161.5l-151 -257l96 -10v-60h-273v60l84 10l203 303l-209 294l-69 14v62h327v-62l-85 -14l141 -216l137 217l-86 13v62h257v-62l-81 -14
l-188 -260z" />
  </g>

</svg>
