<?xml version="1.0" standalone="no"?>
<!DOCTYPE svg PUBLIC "-//W3C//DTD SVG 1.1//EN" "http://www.w3.org/Graphics/SVG/1.1/DTD/svg11.dtd" >
<svg xmlns="http://www.w3.org/2000/svg" xmlns:xlink="http://www.w3.org/1999/xlink" version="1.1" viewBox="-12 0 798 1000">
  <g transform="matrix(1 0 0 -1 0 800)">
   <path fill="currentColor"
d="M518 414q126 0 187.5 -55t61.5 -144q0 -105 -73 -163.5t-198 -58.5q-21 0 -64 3q-76 4 -105 4h-177v60l96 10v515l-146 -12l-28 -73h-74l13 149h235v95l-84 14v57h319v-57l-89 -15v-94h244l15 -149h-84l-26 73l-149 12v-183q50 12 126 12zM461 54q77 0 117.5 41t40.5 109
q0 66 -37 105.5t-107 39.5q-62 0 -83 -5v-283q22 -7 69 -7z" />
  </g>

</svg>
