<?xml version="1.0" standalone="no"?>
<!DOCTYPE svg PUBLIC "-//W3C//DTD SVG 1.1//EN" "http://www.w3.org/Graphics/SVG/1.1/DTD/svg11.dtd" >
<svg xmlns="http://www.w3.org/2000/svg" xmlns:xlink="http://www.w3.org/1999/xlink" version="1.1" viewBox="-10 0 933 1000">
  <g transform="matrix(1 0 0 -1 0 800)">
   <path fill="currentColor"
d="M789 31.5q-65 -39.5 -171 -39.5q-104 0 -163.5 40t-59.5 115l-1 339h-148v-50q0 -126 -17.5 -227t-41.5 -146q-30 -70 -107 -70q-15 0 -38.5 3t-31.5 6l1 93q9 -3 32 -6t41 -3q28 0 48.5 50t32 140t11.5 208l-91 14v58h539v-60l-87 -13v-336q0 -49 21 -71.5t66 -22.5
t66 23t21 76v95l-66 11v60h268v-60l-60 -10v-98q1 -79 -64 -118.5z" />
  </g>

</svg>
