<?xml version="1.0" standalone="no"?>
<!DOCTYPE svg PUBLIC "-//W3C//DTD SVG 1.1//EN" "http://www.w3.org/Graphics/SVG/1.1/DTD/svg11.dtd" >
<svg xmlns="http://www.w3.org/2000/svg" xmlns:xlink="http://www.w3.org/1999/xlink" version="1.1" viewBox="-10 0 665 1000">
  <g transform="matrix(1 0 0 -1 0 800)">
   <path fill="currentColor"
d="M451 687l-260 -14l-54 -135l-74 10l23 197h507l24 -53l-362 -562l-69 -69l308 20l56 155l76 -15l-23 -221h-550l-31 53l370 565zM268.5 -196q-20.5 21 -20.5 52q0 36 22.5 60.5t60.5 24.5q36 0 56.5 -21t20.5 -51q0 -38 -22 -62t-64 -24h-1q-32 0 -52.5 21z" />
  </g>

</svg>
