<?xml version="1.0" standalone="no"?>
<!DOCTYPE svg PUBLIC "-//W3C//DTD SVG 1.1//EN" "http://www.w3.org/Graphics/SVG/1.1/DTD/svg11.dtd" >
<svg xmlns="http://www.w3.org/2000/svg" xmlns:xlink="http://www.w3.org/1999/xlink" version="1.1" viewBox="-27 0 752 1000">
  <g transform="matrix(1 0 0 -1 0 800)">
   <path fill="currentColor"
d="M273 747h153l231 -677l58 -10v-60h-295v60l75 10l-39 130h-259l-39 -131l81 -9v-60h-255l-1 60l60 10zM342 578l-18 78l-19 -79l-89 -307h220zM511 881l93 102l64 -53q-16 -23 -45.5 -47.5t-67.5 -44.5zM393 957l128 -144l-41 -39l-132 100l-134 -100l-40 39l129 144h90z
" />
  </g>

</svg>
