<?xml version="1.0" standalone="no"?>
<!DOCTYPE svg PUBLIC "-//W3C//DTD SVG 1.1//EN" "http://www.w3.org/Graphics/SVG/1.1/DTD/svg11.dtd" >
<svg xmlns="http://www.w3.org/2000/svg" xmlns:xlink="http://www.w3.org/1999/xlink" version="1.1" viewBox="-10 0 560 1000">
  <g transform="matrix(1 0 0 -1 0 800)">
   <path fill="currentColor"
d="M100.5 66.5q-64.5 77.5 -64.5 211.5q0 90 33.5 156t94.5 101t141 35q100 0 154 -52.5t56 -149.5q0 -66 -8 -98h-325q4 -91 43 -141.5t111 -50.5q39 0 80.5 13t65.5 31l25 -55q-27 -29 -87.5 -53.5t-122.5 -24.5q-132 0 -196.5 77.5zM375 330q2 28 2 43q0 133 -89 133
q-49 0 -76 -39t-30 -137h193zM259.5 638q-6.5 14 -6.5 26q0 9 5 15.5t16 15.5q13 10 20 19t7 23q0 23 -13 37t-41 14q-12 0 -25.5 -3t-21.5 -9l-2 78q32 15 70 15q61 0 95.5 -29.5t34.5 -82.5q0 -25 -11.5 -41t-26.5 -28t-22 -18q-5 -5 -8.5 -14.5t-3.5 -20.5q0 -8 3 -19
h-56q-7 8 -13.5 22z" />
  </g>

</svg>
