<?xml version="1.0" standalone="no"?>
<!DOCTYPE svg PUBLIC "-//W3C//DTD SVG 1.1//EN" "http://www.w3.org/Graphics/SVG/1.1/DTD/svg11.dtd" >
<svg xmlns="http://www.w3.org/2000/svg" xmlns:xlink="http://www.w3.org/1999/xlink" version="1.1" viewBox="-10 0 576 1000">
  <g transform="matrix(1 0 0 -1 0 800)">
   <path fill="currentColor"
d="M125.5 293q91.5 46 236.5 47v23q0 41 -8.5 64t-31 34.5t-65.5 11.5q-49 0 -88 -12.5t-81 -32.5l-31 64q15 13 50.5 31t84.5 31.5t101 13.5q77 0 120.5 -20t62.5 -64t19 -118v-306h54v-56q-20 -5 -57 -10t-65 -5q-34 0 -45.5 10t-11.5 41v27q-27 -30 -70 -54t-97 -24
q-46 0 -84.5 19.5t-61.5 57t-23 90.5q0 91 91.5 137zM315 84.5q27 12.5 47 30.5v164q-90 0 -134.5 -30.5t-44.5 -78.5t22.5 -73t61.5 -25q21 0 48 12.5zM163 954.5q26 25.5 65 25.5q21 0 36 -7.5t32 -21.5q17 -12 25.5 -17t21.5 -5q17 0 26.5 8.5t17.5 24.5l41 -19
q-11 -40 -36.5 -64.5t-64.5 -24.5q-20 0 -34.5 7t-32.5 21q-16 12 -26 17.5t-23 5.5q-16 0 -25 -8t-21 -25l-39 18q11 39 37 64.5zM169.5 676.5q-44.5 33.5 -44.5 92.5q0 19 3 31h61q-1 -5 -1 -19q5 -56 90 -56q45 0 65.5 13.5t22.5 41.5q1 3 1 10q0 8 -1 10h61q2 -16 2 -30
q0 -60 -45 -93.5t-106 -33.5q-64 0 -108.5 33.5z" />
  </g>

</svg>
