<?xml version="1.0" standalone="no"?>
<!DOCTYPE svg PUBLIC "-//W3C//DTD SVG 1.1//EN" "http://www.w3.org/Graphics/SVG/1.1/DTD/svg11.dtd" >
<svg xmlns="http://www.w3.org/2000/svg" xmlns:xlink="http://www.w3.org/1999/xlink" version="1.1" viewBox="-10 0 691 1000">
  <g transform="matrix(1 0 0 -1 0 800)">
   <path fill="currentColor"
d="M101 461l-64 18v69l166 21h3l25 -20v-39l-1 -24q35 33 91 57t113 24q61 0 95.5 -22.5t49.5 -70.5t15 -130v-276l61 -8v-60h-258v60l54 8v276q0 52 -7 81.5t-25.5 43t-52.5 13.5q-57 0 -122 -49v-364l60 -9v-60h-261v60l58 9v392zM268 668.5q-21 21.5 -21 53.5q0 38 24 63
t65 25q40 0 61 -21.5t21 -53.5q0 -40 -24 -64t-68 -24h-1q-36 0 -57 21.5z" />
  </g>

</svg>
