<?xml version="1.0" standalone="no"?>
<!DOCTYPE svg PUBLIC "-//W3C//DTD SVG 1.1//EN" "http://www.w3.org/Graphics/SVG/1.1/DTD/svg11.dtd" >
<svg xmlns="http://www.w3.org/2000/svg" xmlns:xlink="http://www.w3.org/1999/xlink" version="1.1" viewBox="-22 0 614 1000">
  <g transform="matrix(1 0 0 -1 0 800)">
   <path fill="currentColor"
d="M95.5 -246q-20.5 3 -29.5 7v107q7 -4 28 -8t38 -4q50 0 82.5 33t60.5 111h-54l-188 485l-45 13v58h275v-58l-73 -12l89 -277l36 -118l31 118l82 277l-63 12v58h217v-58l-49 -12q-55 -168 -109 -324t-63 -175q-32 -84 -61 -134t-69 -76t-97 -26q-18 0 -38.5 3zM150 784
q36 32 84 32q29 0 49.5 -11.5t46.5 -32.5q17 -16 30 -23.5t27 -7.5q24 0 36 13.5t17 26t7 15.5l59 -33q-9 -50 -41 -82.5t-81 -32.5q-28 0 -48 11.5t-47 33.5q-19 16 -32 24t-28 8q-22 0 -34.5 -11t-20.5 -25t-13 -20l-57 33q10 50 46 82z" />
  </g>

</svg>
