<?xml version="1.0" standalone="no"?>
<!DOCTYPE svg PUBLIC "-//W3C//DTD SVG 1.1//EN" "http://www.w3.org/Graphics/SVG/1.1/DTD/svg11.dtd" >
<svg xmlns="http://www.w3.org/2000/svg" xmlns:xlink="http://www.w3.org/1999/xlink" version="1.1" viewBox="-10 0 654 1000">
  <g transform="matrix(1 0 0 -1 0 800)">
   <path fill="currentColor"
d="M72.5 437q37.5 66 100.5 99.5t137 33.5q66 0 118 -23q36 5 58.5 26.5t33 49t10.5 49.5q0 6 -3 24h104q3 -10 3 -22q0 -74 -36 -119.5t-94 -60.5q34 -37 51.5 -91t17.5 -121q0 -96 -37.5 -162t-100.5 -98.5t-138 -32.5q-124 0 -193 77.5t-69 210.5q0 94 37.5 160z
M216.5 113.5q28.5 -59.5 89.5 -59.5q113 0 113 218q0 114 -27 173.5t-88 59.5q-116 0 -116 -218q0 -114 28.5 -173.5zM274.5 638q-6.5 14 -6.5 26q0 9 5 15.5t16 15.5q13 10 20 19t7 23q0 23 -13 37t-41 14q-12 0 -25.5 -3t-21.5 -9l-2 78q32 15 70 15q61 0 95.5 -29.5
t34.5 -82.5q0 -25 -11.5 -41t-26.5 -28t-22 -18q-5 -5 -8.5 -14.5t-3.5 -20.5q0 -8 3 -19h-56q-7 8 -13.5 22z" />
  </g>

</svg>
