<?xml version="1.0" standalone="no"?>
<!DOCTYPE svg PUBLIC "-//W3C//DTD SVG 1.1//EN" "http://www.w3.org/Graphics/SVG/1.1/DTD/svg11.dtd" >
<svg xmlns="http://www.w3.org/2000/svg" xmlns:xlink="http://www.w3.org/1999/xlink" version="1.1" viewBox="-10 0 671 1000">
  <g transform="matrix(1 0 0 -1 0 800)">
   <path fill="currentColor"
d="M119 668l-75 13v62h151q21 0 65 2q58 4 105 4q104 0 164.5 -25.5t86 -73t25.5 -120.5q0 -126 -78.5 -196t-217.5 -70q-55 0 -79 3v-197l134 -10v-60h-360v60l79 10v598zM343 326q67 0 107.5 46.5t40.5 154.5q0 84 -36.5 122.5t-111.5 38.5q-28 0 -58 -4q-14 -2 -20 -2
v-351q23 -5 78 -5zM305.5 837q-20.5 20 -20.5 50q0 36 22 59t61 23q36 0 57.5 -20.5t21.5 -50.5q0 -37 -22 -59t-66 -22q-33 0 -53.5 20z" />
  </g>

</svg>
