<?xml version="1.0" standalone="no"?>
<!DOCTYPE svg PUBLIC "-//W3C//DTD SVG 1.1//EN" "http://www.w3.org/Graphics/SVG/1.1/DTD/svg11.dtd" >
<svg xmlns="http://www.w3.org/2000/svg" xmlns:xlink="http://www.w3.org/1999/xlink" version="1.1" viewBox="-10 0 687 1000">
  <g transform="matrix(1 0 0 -1 0 800)">
   <path fill="currentColor"
d="M134 49q0 -22 19 -22l49 2v-29h-168v29l39 -2q20 0 20 22v499q0 9 -5.5 15.5t-14.5 5.5l-39 -2v30h206l304 -414v366q0 20 -17 20h-3l-49 -2v30h168v-30l-39 2h-2q-17 0 -17 -21v-554h-60l-391 531v-476zM332 -222q-34 21 -34 56q0 26 17 42t46 16q18 0 36.5 -10
t18.5 -35q0 -5 -3 -16t-3 -15q0 -26 22 -25q41 2 32 53q-10 56 -10 119v169h131v-144q0 -231 -158 -231q-61 0 -95 21z" />
  </g>

</svg>
