<?xml version="1.0" standalone="no"?>
<!DOCTYPE svg PUBLIC "-//W3C//DTD SVG 1.1//EN" "http://www.w3.org/Graphics/SVG/1.1/DTD/svg11.dtd" >
<svg xmlns="http://www.w3.org/2000/svg" xmlns:xlink="http://www.w3.org/1999/xlink" version="1.1" viewBox="-10 0 688 1000">
  <g transform="matrix(1 0 0 -1 0 800)">
   <path fill="currentColor"
d="M111 71q-81 81 -81 228q0 149 81 228.5t228 79.5q149 0 229 -81t80 -227q0 -147 -81 -228t-228 -81t-228 81zM461 84.5q36 59.5 36 214.5q0 154 -36 214t-122 60t-122 -60t-36 -214q0 -155 36 -214.5t122 -59.5t122 59.5zM242.5 695.5q-36.5 36.5 -38.5 94.5h31
q7 -28 35.5 -47t68.5 -19q39 0 68.5 19t37.5 47h30q-2 -58 -39 -94.5t-97 -36.5t-96.5 36.5z" />
  </g>

</svg>
