<?xml version="1.0" standalone="no"?>
<!DOCTYPE svg PUBLIC "-//W3C//DTD SVG 1.1//EN" "http://www.w3.org/Graphics/SVG/1.1/DTD/svg11.dtd" >
<svg xmlns="http://www.w3.org/2000/svg" xmlns:xlink="http://www.w3.org/1999/xlink" version="1.1" viewBox="-10 0 557 1000">
  <g transform="matrix(1 0 0 -1 0 800)">
   <path fill="currentColor"
d="M406 0h-375v27l319 535h-120q-72 0 -106.5 -29t-34.5 -90h-34v157l38 -1q42 -2 71 -2h353v-24l-316 -538h141q69 0 109.5 35t40.5 97h35l-8 -171q-12 4 -113 4zM246 686l-24 24l-23 24q-18 20 -48 50q-12 11 -20 19.5t-8 12.5q0 8 12 8q14 0 33 -12l111 -66l112 66
q19 12 33 12q11 0 11 -8q0 -4 -8 -12.5t-20 -19.5q-30 -30 -48 -50l-23 -24l-24 -24q-16 -18 -33 -18q-15 0 -33 18z" />
  </g>

</svg>
