<?xml version="1.0" standalone="no"?>
<!DOCTYPE svg PUBLIC "-//W3C//DTD SVG 1.1//EN" "http://www.w3.org/Graphics/SVG/1.1/DTD/svg11.dtd" >
<svg xmlns="http://www.w3.org/2000/svg" xmlns:xlink="http://www.w3.org/1999/xlink" version="1.1" viewBox="-10 0 659 1000">
  <g transform="matrix(1 0 0 -1 0 800)">
   <path fill="currentColor"
d="M639 36v-36h-193l-35 46q-68 -55 -173 -55q-77 0 -125.5 23.5t-69.5 58t-21 68.5q0 68 43 112t129 79q-28 35 -46.5 70t-18.5 72q0 36 21.5 66.5t59 48t81.5 17.5q61 0 94.5 -30t33.5 -74q0 -39 -23 -79t-66 -67l131 -170q15 47 15 99q0 19 -4 23t-13 4l-41 -2v30h150
v-29l-34 1q-8 0 -13 -3t-5 -16q0 -29 -6.5 -66.5t-22.5 -74.5l77 -100q8 -10 16.5 -14.5t23.5 -3.5zM259.5 551.5q-16.5 -16.5 -16.5 -42.5q0 -27 17.5 -57t48.5 -70q32 18 52 51.5t20 67.5q0 31 -18.5 49t-55.5 18q-31 0 -47.5 -16.5zM390 73l-174 230q-61 -45 -61 -128
q0 -46 17.5 -79t46.5 -50t62 -17q60 0 109 44z" />
  </g>

</svg>
