<?xml version="1.0" standalone="no"?>
<!DOCTYPE svg PUBLIC "-//W3C//DTD SVG 1.1//EN" "http://www.w3.org/Graphics/SVG/1.1/DTD/svg11.dtd" >
<svg xmlns="http://www.w3.org/2000/svg" xmlns:xlink="http://www.w3.org/1999/xlink" version="1.1" viewBox="-10 0 786 1000">
  <g transform="matrix(1 0 0 -1 0 800)">
   <path fill="currentColor"
d="M200.5 -112.5q-85.5 40.5 -132 115.5t-46.5 175q0 109 55 207.5t151.5 158.5t213.5 60q88 0 159.5 -39.5t112.5 -107.5t41 -151q0 -84 -46 -162.5t-132 -122.5q-58 -31 -107 -31q-24 0 -31.5 10.5t-7.5 35.5q0 38 22 136q-41 -96 -91 -139t-102 -43q-44 0 -68 32.5
t-24 89.5q0 80 34.5 155t94 121.5t129.5 46.5q23 0 41 -9.5t27 -29.5l5 20l137 17l-24 -95q-48 -189 -43 -246q1 -17 13 -17q26 0 57.5 34.5t54 88t22.5 107.5q0 71 -36 131t-99 95.5t-139 35.5q-117 0 -201 -58t-127.5 -149t-43.5 -187q0 -85 41.5 -151t118 -102.5
t179.5 -36.5q91 0 162.5 31t139.5 98l24 -29q-73 -73 -152.5 -104.5t-182.5 -31.5q-114 0 -199.5 40.5zM392.5 111q35.5 51 62.5 120t27 122q0 22 -11 37t-30 15q-35 0 -67.5 -43.5t-53.5 -118.5q-18 -58 -18 -112q0 -71 36 -71q19 0 54.5 51z" />
  </g>

</svg>
