<?xml version="1.0" standalone="no"?>
<!DOCTYPE svg PUBLIC "-//W3C//DTD SVG 1.1//EN" "http://www.w3.org/Graphics/SVG/1.1/DTD/svg11.dtd" >
<svg xmlns="http://www.w3.org/2000/svg" xmlns:xlink="http://www.w3.org/1999/xlink" version="1.1" viewBox="-10 0 290 1000">
  <g transform="matrix(1 0 0 -1 0 800)">
   <path fill="currentColor"
d="M125.5 -137.5q-25.5 8.5 -35.5 28t-10 56.5v229q0 29 -4 42.5t-13.5 20.5t-32.5 14v28q28 6 39 23t11 54v224q0 37 10.5 56.5t36.5 28t74 8.5h49v-37h-27q-31 0 -31 -49v-231q0 -31 -9.5 -48.5t-32.5 -26.5t-69 -16q46 -9 68.5 -18t32 -25.5t10.5 -47.5v-236
q0 -49 31 -49h27v-37h-49q-50 0 -75.5 8.5z" />
  </g>

</svg>
