<?xml version="1.0" standalone="no"?>
<!DOCTYPE svg PUBLIC "-//W3C//DTD SVG 1.1//EN" "http://www.w3.org/Graphics/SVG/1.1/DTD/svg11.dtd" >
<svg xmlns="http://www.w3.org/2000/svg" xmlns:xlink="http://www.w3.org/1999/xlink" version="1.1" viewBox="-10 0 351 1000">
  <g transform="matrix(1 0 0 -1 0 800)">
   <path fill="currentColor"
d="M73.5 695.5q-36.5 36.5 -38.5 94.5h46q7 -28 28 -47t61 -19q39 0 61 19t30 47h45q-2 -58 -39 -94.5t-97 -36.5t-96.5 36.5zM140 799q1 8 14 24l66 82q12 15 17.5 19t14.5 4q17 0 39.5 -12.5t22.5 -21.5t-12 -16l-131 -80q-12 -8 -21 -8q-11 0 -10 9z" />
  </g>

</svg>
