<?xml version="1.0" standalone="no"?>
<!DOCTYPE svg PUBLIC "-//W3C//DTD SVG 1.1//EN" "http://www.w3.org/Graphics/SVG/1.1/DTD/svg11.dtd" >
<svg xmlns="http://www.w3.org/2000/svg" xmlns:xlink="http://www.w3.org/1999/xlink" version="1.1" viewBox="-10 0 424 1000">
  <g transform="matrix(1 0 0 -1 0 800)">
   <path fill="currentColor"
d="M82.5 158.5q-48.5 41.5 -48.5 130.5q0 86 47 130t125 50v178h45v-178q59 -4 95 -27.5t36 -57.5q0 -23 -15.5 -38.5t-43.5 -15.5q-23 0 -38 10.5t-15 31.5q0 8 3.5 18t3.5 16q0 17 -12 25t-30 8q-32 0 -50 -31.5t-18 -106.5q0 -91 24.5 -123t65.5 -32q65 0 96 72l28 -10
q-43 -92 -130 -95v-208h-45v208q-75 4 -123.5 45.5z" />
  </g>

</svg>
