<?xml version="1.0" standalone="no"?>
<!DOCTYPE svg PUBLIC "-//W3C//DTD SVG 1.1//EN" "http://www.w3.org/Graphics/SVG/1.1/DTD/svg11.dtd" >
<svg xmlns="http://www.w3.org/2000/svg" xmlns:xlink="http://www.w3.org/1999/xlink" version="1.1" viewBox="-10 0 538 1000">
  <g transform="matrix(1 0 0 -1 0 800)">
   <path fill="currentColor"
d="M209.5 -134.5q-20.5 17.5 -20.5 40.5q0 20 25 34q10 6 15 11.5t5 14.5q0 7 -12 22q-16 16 -15 31q0 21 22 52q-27 -3 -44.5 -10t-35.5 -19q-17 -10 -29 -14.5t-29 -4.5q-25 0 -40.5 16.5t-15.5 45.5q0 53 42 53q12 0 18.5 -5t15.5 -16q7 -9 12.5 -13.5t14.5 -4.5t26 7
q12 7 25 7q26 0 52 -18q0 20 -7 32t-20 25q-11 12 -15.5 19t-4.5 18q0 26 26 55q-26 31 -26 55q0 11 5 19t15 17q13 14 20 26.5t7 31.5q-24 -18 -52 -18q-10 1 -25 8t-26 7q-9 0 -14.5 -4.5t-12.5 -13.5q-9 -11 -15.5 -16t-18.5 -5q-42 0 -42 53q0 29 15.5 45.5t40.5 16.5
q18 0 30 -5t28 -15q18 -12 35.5 -19t44.5 -10q-22 28 -22 53q0 13 15 30q12 14 12 22q0 9 -4.5 14.5t-15.5 11.5q-12 7 -18.5 14t-6.5 20q0 23 20.5 40.5t49.5 17.5q30 0 50.5 -17.5t20.5 -40.5q0 -19 -25 -34q-10 -6 -15 -11.5t-5 -14.5q0 -10 13 -23q14 -15 14 -29
q0 -24 -23 -53q27 3 44 10t35 19q16 10 28 15t31 5q25 0 40.5 -16.5t15.5 -45.5q0 -53 -41 -53q-12 0 -18.5 5t-15.5 16q-7 10 -12.5 14t-14.5 4q-13 0 -26 -7q-14 -7 -26 -8q-26 0 -52 18q0 -19 6 -32t21 -26q20 -17 20 -36q0 -24 -26 -55q26 -29 26 -55q0 -17 -20 -37
q-17 -17 -22 -29t-5 -28q26 18 52 18q14 0 26 -7q17 -7 26 -7t14.5 4t12.5 14q9 11 15.5 16t18.5 5q41 0 41 -53q0 -29 -15.5 -45.5t-40.5 -16.5q-19 0 -31.5 5t-27.5 15q-18 12 -34.5 18.5t-44.5 9.5q23 -32 23 -52q0 -11 -15 -30q-12 -15 -12 -23q0 -9 5 -14.5t15 -11.5
q25 -14 25 -34q0 -23 -20.5 -40.5t-50.5 -17.5q-29 0 -49.5 17.5z" />
  </g>

</svg>
