<?xml version="1.0" standalone="no"?>
<!DOCTYPE svg PUBLIC "-//W3C//DTD SVG 1.1//EN" "http://www.w3.org/Graphics/SVG/1.1/DTD/svg11.dtd" >
<svg xmlns="http://www.w3.org/2000/svg" xmlns:xlink="http://www.w3.org/1999/xlink" version="1.1" viewBox="-10 0 458 1000">
  <g transform="matrix(1 0 0 -1 0 800)">
   <path fill="currentColor"
d="M125 134q-17 3 -25 3q-17 0 -25 -5l4 106l31 1q0 -40 35 -65.5t84 -25.5q24 0 38.5 10.5t14.5 30.5q0 17 -11 27.5t-39 17.5l-47 13q-57 16 -81.5 41.5t-24.5 66.5q0 50 32 82t91 36v174h45v-175q17 -2 42 -8q26 -7 42 -7q14 0 24 6l-4 -91h-28q0 28 -25.5 49.5
t-70.5 21.5q-22 0 -36 -10t-14 -27q0 -33 41 -41l45 -11q65 -15 87.5 -42t22.5 -70q0 -54 -34 -87t-92 -38v-212h-45v212q-24 3 -77 17z" />
  </g>

</svg>
