<?xml version="1.0" standalone="no"?>
<!DOCTYPE svg PUBLIC "-//W3C//DTD SVG 1.1//EN" "http://www.w3.org/Graphics/SVG/1.1/DTD/svg11.dtd" >
<svg xmlns="http://www.w3.org/2000/svg" xmlns:xlink="http://www.w3.org/1999/xlink" version="1.1" viewBox="-10 0 549 1000">
  <g transform="matrix(1 0 0 -1 0 800)">
   <path fill="currentColor"
d="M53 32q13 3 13 19v323q0 17 -13 20l-33 -2v33h182q-5 -15 -5 -35v-56q22 48 61.5 74.5t93.5 26.5q68 0 99 -34.5t31 -108.5v-241q0 -19 13 -19l33 2v-34h-228v34l38 -2q13 3 13 19v242q0 52 -8.5 73.5t-38.5 21.5q-39 0 -73 -49t-34 -141v-147q0 -19 13 -19l39 2v-34
h-229v34zM279 547q-55 18 -71 18q-14 0 -23.5 -10.5t-9.5 -28.5h-28q0 45 16 72t48 27q17 0 90 -21q60 -18 72 -18q14 0 23.5 10.5t9.5 27.5h27q0 -45 -16 -72t-48 -27q-28 0 -90 22z" />
  </g>

</svg>
