<?xml version="1.0" standalone="no"?>
<!DOCTYPE svg PUBLIC "-//W3C//DTD SVG 1.1//EN" "http://www.w3.org/Graphics/SVG/1.1/DTD/svg11.dtd" >
<svg xmlns="http://www.w3.org/2000/svg" xmlns:xlink="http://www.w3.org/1999/xlink" version="1.1" viewBox="-10 0 361 1000">
  <g transform="matrix(1 0 0 -1 0 800)">
   <path fill="currentColor"
d="M61 382q-39 38 -39 98q0 65 41 101.5t112 36.5q72 0 113.5 -36t41.5 -102q0 -64 -41 -100t-114 -36q-75 0 -114 38zM202.5 384.5q9.5 8.5 14 30.5t4.5 65q0 61 -9.5 84t-36.5 23q-26 0 -35.5 -24t-9.5 -83q0 -58 9 -81t36 -23q18 0 27.5 8.5z" />
  </g>

</svg>
