<?xml version="1.0" standalone="no"?>
<!DOCTYPE svg PUBLIC "-//W3C//DTD SVG 1.1//EN" "http://www.w3.org/Graphics/SVG/1.1/DTD/svg11.dtd" >
<svg xmlns="http://www.w3.org/2000/svg" xmlns:xlink="http://www.w3.org/1999/xlink" version="1.1" viewBox="-10 0 269 1000">
  <g transform="matrix(1 0 0 -1 0 800)">
   <path fill="currentColor"
d="M55.5 515.5q-24.5 23.5 -24.5 59.5q0 35 25 59t62 24q38 0 63 -23.5t25 -59.5t-25 -59.5t-63 -23.5t-62.5 23.5zM145.5 544.5q10.5 11.5 10.5 30.5t-10.5 30t-27.5 11t-27 -11t-10 -30q0 -20 10 -31t27 -11t27.5 11.5zM75 691q1 8 14 24l66 82q12 15 17.5 19t14.5 4
q17 0 39.5 -12.5t22.5 -21.5t-12 -16l-131 -80q-12 -8 -21 -8q-11 0 -10 9z" />
  </g>

</svg>
