<?xml version="1.0" standalone="no"?>
<!DOCTYPE svg PUBLIC "-//W3C//DTD SVG 1.1//EN" "http://www.w3.org/Graphics/SVG/1.1/DTD/svg11.dtd" >
<svg xmlns="http://www.w3.org/2000/svg" xmlns:xlink="http://www.w3.org/1999/xlink" version="1.1" viewBox="-10 0 425 1000">
  <g transform="matrix(1 0 0 -1 0 800)">
   <path fill="currentColor"
d="M107 -198l13 32q12 -13 35 -13q19 0 34.5 14t15.5 32q0 21 -34 39l-23 14q-11 8 -11 15t6 13l41 52h40l-22 -36q-6 -11 -6 -19q0 -7 7.5 -10t25.5 -7q29 -5 46 -15t17 -35q0 -44 -35.5 -68t-80.5 -24q-44 0 -69 16zM167.5 -5.5q-23.5 4.5 -73.5 17.5q-16 4 -28 4
q-22 0 -31 -6l5 132l34 2q0 -51 42.5 -85t102.5 -34q33 0 52.5 15.5t19.5 43.5q0 23 -14.5 36.5t-49.5 22.5l-72 20q-58 16 -85.5 49t-27.5 84q0 62 43 100.5t121 38.5q21 0 38 -3t42 -10q32 -9 50 -9q16 0 30 8l-6 -114h-30q0 38 -31.5 66t-85.5 28q-31 0 -49.5 -15.5
t-18.5 -38.5q0 -39 55 -53l69 -18q69 -18 94.5 -51t25.5 -85q0 -71 -48 -110.5t-127 -39.5q-23 0 -46.5 4.5z" />
  </g>

</svg>
