<?xml version="1.0" standalone="no"?>
<!DOCTYPE svg PUBLIC "-//W3C//DTD SVG 1.1//EN" "http://www.w3.org/Graphics/SVG/1.1/DTD/svg11.dtd" >
<svg xmlns="http://www.w3.org/2000/svg" xmlns:xlink="http://www.w3.org/1999/xlink" version="1.1" viewBox="-10 0 301 1000">
  <g transform="matrix(1 0 0 -1 0 800)">
   <path fill="currentColor"
d="M44 361.5q-31 33.5 -31 93.5q0 66 34 109t109 43q48 0 77 -14.5t29 -42.5q0 -18 -12 -30t-36 -12q-22 0 -33 7t-11 20q0 10 4 16t4 12q0 12 -7.5 17t-18.5 5q-22 0 -29.5 -25t-7.5 -81q24 20 63 20q45 0 69 -19t24 -54q0 -47 -34 -72.5t-99 -25.5q-63 0 -94 33.5z
M169 408q0 51 -25 51q-29 0 -29 -51q0 -58 29 -58q25 0 25 58z" />
  </g>

</svg>
