<?xml version="1.0" standalone="no"?>
<!DOCTYPE svg PUBLIC "-//W3C//DTD SVG 1.1//EN" "http://www.w3.org/Graphics/SVG/1.1/DTD/svg11.dtd" >
<svg xmlns="http://www.w3.org/2000/svg" xmlns:xlink="http://www.w3.org/1999/xlink" version="1.1" viewBox="-10 0 490 1000">
  <g transform="matrix(1 0 0 -1 0 800)">
   <path fill="currentColor"
d="M76.5 -117q-59.5 33 -59.5 88q0 30 17.5 48t47.5 18q28 0 44.5 -13t16.5 -33q0 -8 -2 -15.5t-3 -10.5q-4 -12 -4 -20q0 -29 25.5 -44.5t64.5 -15.5q113 0 113 140q0 50 -19.5 79t-61.5 41.5t-113 12.5v33q77 0 119 35.5t42 99.5q0 107 -88 107q-34 0 -54 -14.5t-20 -40.5
q0 -12 5 -27t5 -21q0 -23 -17 -36t-45 -13q-30 0 -47 18t-17 48q0 57 63 88.5t146 31.5q88 0 140.5 -35.5t52.5 -97.5q0 -110 -155 -149v-3q90 -9 137.5 -49t47.5 -106q0 -84 -66 -130.5t-169 -46.5q-87 0 -146.5 33z" />
  </g>

</svg>
