<?xml version="1.0" standalone="no"?>
<!DOCTYPE svg PUBLIC "-//W3C//DTD SVG 1.1//EN" "http://www.w3.org/Graphics/SVG/1.1/DTD/svg11.dtd" >
<svg xmlns="http://www.w3.org/2000/svg" xmlns:xlink="http://www.w3.org/1999/xlink" version="1.1" viewBox="-10 0 509 1000">
  <g transform="matrix(1 0 0 -1 0 800)">
   <path fill="currentColor"
d="M381 0h-337l-3 80q162 109 217 195t55 186q0 57 -23 84.5t-61 27.5q-30 0 -49.5 -16t-19.5 -43q0 -13 4.5 -31.5t4.5 -28.5q0 -24 -17.5 -36.5t-43.5 -12.5q-33 0 -51 20t-18 51q0 35 24.5 65t70 48t104.5 18q93 0 151.5 -39.5t58.5 -117.5q0 -87 -79 -175t-243 -176v-3
h185q55 0 80.5 16t31.5 57h39q-21 -126 -22 -172q-9 3 -59 3z" />
  </g>

</svg>
