<?xml version="1.0" standalone="no"?>
<!DOCTYPE svg PUBLIC "-//W3C//DTD SVG 1.1//EN" "http://www.w3.org/Graphics/SVG/1.1/DTD/svg11.dtd" >
<svg xmlns="http://www.w3.org/2000/svg" xmlns:xlink="http://www.w3.org/1999/xlink" version="1.1" viewBox="-63 0 388 1000">
  <g transform="matrix(1 0 0 -1 0 800)">
   <path fill="currentColor"
d="M76 35q17 0 17 22v484q0 9 -5 15.5t-14 5.5l-35 -2v37h247v-37l-35 2h-2q-8 0 -13 -6t-5 -15v-484q0 -24 20 -22l35 2v-37h-247v37zM196 677q-107 100 -115 109q-6 8 -6 12q0 8 9 12q12 4 31.5 10t26.5 6q4 0 6.5 -2t6.5 -7q3 -4 51 -91l22 -41q3 -7 3 -11q0 -9 -11 -9
t-24 12zM69 677l-116 109q-6 8 -6 12q0 8 9 12q12 4 32 10t27 6q4 0 6.5 -2t6.5 -7q1 -1 35 -63l37 -69q3 -6 3 -11q0 -9 -10 -9q-11 0 -24 12z" />
  </g>

</svg>
