<?xml version="1.0" standalone="no"?>
<!DOCTYPE svg PUBLIC "-//W3C//DTD SVG 1.1//EN" "http://www.w3.org/Graphics/SVG/1.1/DTD/svg11.dtd" >
<svg xmlns="http://www.w3.org/2000/svg" xmlns:xlink="http://www.w3.org/1999/xlink" version="1.1" viewBox="-10 0 497 1000">
  <g transform="matrix(1 0 0 -1 0 800)">
   <path fill="currentColor"
d="M280 -140q-24 19 -24 53q0 31 19 57.5t56 43.5h35q-20 -10 -31.5 -28t-11.5 -41q0 -20 12.5 -33t37.5 -13q34 0 70 21l12 -19q-25 -29 -55.5 -44.5t-62.5 -15.5q-33 0 -57 19zM76 47q-56 57 -56 166q0 108 56 165t168 57q113 0 168 -57t55 -165q0 -223 -223 -223
q-112 0 -168 57zM308 67q19 42 19 144q0 104 -19 147t-64 43t-64.5 -43t-19.5 -147q0 -101 19.5 -143.5t64.5 -42.5t64 42z" />
  </g>

</svg>
