<?xml version="1.0" standalone="no"?>
<!DOCTYPE svg PUBLIC "-//W3C//DTD SVG 1.1//EN" "http://www.w3.org/Graphics/SVG/1.1/DTD/svg11.dtd" >
<svg xmlns="http://www.w3.org/2000/svg" xmlns:xlink="http://www.w3.org/1999/xlink" version="1.1" viewBox="-10 0 688 1000">
  <g transform="matrix(1 0 0 -1 0 800)">
   <path fill="currentColor"
d="M111 71q-81 81 -81 228q0 149 81 228.5t228 79.5q149 0 229 -81t80 -227q0 -147 -81 -228t-228 -81t-228 81zM461 84.5q36 59.5 36 214.5q0 154 -36 214t-122 60t-122 -60t-36 -214q0 -155 36 -214.5t122 -59.5t122 59.5zM336 693q-55 18 -71 18q-14 0 -23.5 -10.5
t-9.5 -28.5h-28q0 45 16 72t48 27q17 0 90 -21q60 -18 72 -18q14 0 23.5 10.5t9.5 27.5h27q0 -45 -16 -72t-48 -27q-28 0 -90 22zM466 873v-47h-239v47h239z" />
  </g>

</svg>
