<?xml version="1.0" standalone="no"?>
<!DOCTYPE svg PUBLIC "-//W3C//DTD SVG 1.1//EN" "http://www.w3.org/Graphics/SVG/1.1/DTD/svg11.dtd" >
<svg xmlns="http://www.w3.org/2000/svg" xmlns:xlink="http://www.w3.org/1999/xlink" version="1.1" viewBox="-10 0 542 1000">
  <g transform="matrix(1 0 0 -1 0 800)">
   <path fill="currentColor"
d="M87 25.5q-30 35.5 -30 112.5v237q0 19 -13 19l-33 -2v33h177v-293q0 -51 8.5 -73t35.5 -22q41 0 71.5 52.5t30.5 130.5v154q0 20 -12 20l-39 -2v33h183v-374q0 -18 13 -19l33 2v-34h-183q5 15 5 44v45q-45 -99 -152 -99q-65 0 -95 35.5zM218 691q1 8 14 24l66 82
q12 15 17.5 19t14.5 4q17 0 39.5 -12.5t22.5 -21.5t-12 -16l-131 -80q-12 -8 -21 -8q-11 0 -10 9zM80.5 549q-21.5 17 -21.5 46q0 28 21.5 45.5t55.5 17.5q33 0 55 -17.5t22 -45.5q0 -29 -21.5 -46t-55.5 -17t-55.5 17zM291.5 549q-21.5 17 -21.5 46q0 28 21.5 45.5
t55.5 17.5q33 0 55 -17.5t22 -45.5q0 -29 -21.5 -46t-55.5 -17t-55.5 17z" />
  </g>

</svg>
