<?xml version="1.0" standalone="no"?>
<!DOCTYPE svg PUBLIC "-//W3C//DTD SVG 1.1//EN" "http://www.w3.org/Graphics/SVG/1.1/DTD/svg11.dtd" >
<svg xmlns="http://www.w3.org/2000/svg" xmlns:xlink="http://www.w3.org/1999/xlink" version="1.1" viewBox="-10 0 537 1000">
  <g transform="matrix(1 0 0 -1 0 800)">
   <path fill="currentColor"
d="M53 32q13 3 13 19v628q0 21 -12 21l-33 -2v32h176v-492l160 137q6 6 6 13q0 3 -2.5 5.5t-6.5 1.5l-43 -2v32h170v-32l-36 2q-15 0 -31 -14l-97 -83l144 -248q5 -8 13 -13.5t14 -4.5l29 2v-34h-241v34l34 -2h2q7 0 8.5 4t-1.5 10l-99 169l-23 -19v-145q0 -20 13 -19l35 2
v-34h-225v34zM246.5 -200q14.5 17 14.5 30q0 29 -28 29q-19 0 -30 14.5t-11 34.5q0 23 16 40.5t47 17.5q35 0 57 -23t22 -54q0 -45 -29 -82t-70 -58l-22 22q19 12 33.5 29z" />
  </g>

</svg>
