<?xml version="1.0" standalone="no"?>
<!DOCTYPE svg PUBLIC "-//W3C//DTD SVG 1.1//EN" "http://www.w3.org/Graphics/SVG/1.1/DTD/svg11.dtd" >
<svg xmlns="http://www.w3.org/2000/svg" xmlns:xlink="http://www.w3.org/1999/xlink" version="1.1" viewBox="-10 0 497 1000">
  <g transform="matrix(1 0 0 -1 0 800)">
   <path fill="currentColor"
d="M76 47q-56 57 -56 166q0 108 56 165t168 57q113 0 168 -57t55 -165q0 -223 -223 -223q-112 0 -168 57zM308 67q19 42 19 144q0 104 -19 147t-64 43t-64.5 -43t-19.5 -147q0 -101 19.5 -143.5t64.5 -42.5t64 42zM148 605.5q37 36.5 97 36.5t96.5 -36.5t38.5 -94.5h-46
q-7 28 -28 47t-61 19q-39 0 -61 -19t-30 -47h-45q2 58 39 94.5z" />
  </g>

</svg>
