<?xml version="1.0" standalone="no"?>
<!DOCTYPE svg PUBLIC "-//W3C//DTD SVG 1.1//EN" "http://www.w3.org/Graphics/SVG/1.1/DTD/svg11.dtd" >
<svg xmlns="http://www.w3.org/2000/svg" xmlns:xlink="http://www.w3.org/1999/xlink" version="1.1" viewBox="-10 0 669 1000">
  <g transform="matrix(1 0 0 -1 0 800)">
   <path fill="currentColor"
d="M92 199v342q0 9 -5.5 15.5t-13.5 5.5l-38 -2v37h264v-37l-49 2h-2q-8 0 -13 -6t-5 -14v-343q0 -85 39.5 -126.5t114.5 -41.5q77 0 112.5 46t35.5 126v338q0 10 -5 16t-13 5l-49 -2v37h169v-37l-39 2h-2q-8 0 -13 -6t-5 -14v-339q0 -101 -54 -157t-163 -56
q-266 0 -266 209zM366 839l-131 80q-12 7 -12 16t22.5 21.5t39.5 12.5q9 0 14.5 -4t17.5 -19l66 -82q13 -16 14 -24q1 -9 -10 -9q-9 0 -21 8zM212.5 698q-21.5 17 -21.5 46q0 28 22 45.5t55 17.5q34 0 55.5 -17.5t21.5 -45.5q0 -29 -21.5 -46t-55.5 -17t-55.5 17zM423.5 698
q-21.5 17 -21.5 46q0 28 22 45.5t55 17.5q34 0 55.5 -17.5t21.5 -45.5q0 -29 -21.5 -46t-55.5 -17t-55.5 17z" />
  </g>

</svg>
