<?xml version="1.0" standalone="no"?>
<!DOCTYPE svg PUBLIC "-//W3C//DTD SVG 1.1//EN" "http://www.w3.org/Graphics/SVG/1.1/DTD/svg11.dtd" >
<svg xmlns="http://www.w3.org/2000/svg" xmlns:xlink="http://www.w3.org/1999/xlink" version="1.1" viewBox="-10 0 688 1000">
  <g transform="matrix(1 0 0 -1 0 800)">
   <path fill="currentColor"
d="M393 -140q-24 19 -24 53q0 31 19 57.5t56 43.5h35q-20 -10 -31.5 -28t-11.5 -41q0 -20 12.5 -33t37.5 -13q34 0 70 21l12 -19q-25 -29 -55.5 -44.5t-62.5 -15.5q-33 0 -57 19zM111 71q-81 81 -81 228q0 149 81 228.5t228 79.5q149 0 229 -81t80 -227q0 -147 -81 -228
t-228 -81t-228 81zM461 84.5q36 59.5 36 214.5q0 154 -36 214t-122 60t-122 -60t-36 -214q0 -155 36 -214.5t122 -59.5t122 59.5z" />
  </g>

</svg>
