<?xml version="1.0" standalone="no"?>
<!DOCTYPE svg PUBLIC "-//W3C//DTD SVG 1.1//EN" "http://www.w3.org/Graphics/SVG/1.1/DTD/svg11.dtd" >
<svg xmlns="http://www.w3.org/2000/svg" xmlns:xlink="http://www.w3.org/1999/xlink" version="1.1" viewBox="-10 0 335 1000">
  <g transform="matrix(1 0 0 -1 0 800)">
   <path fill="currentColor"
d="M76 35q17 0 17 22v484q0 9 -5 15.5t-14 5.5l-35 -2v37h247v-37l-35 2h-2q-8 0 -13 -6t-5 -15v-484q0 -24 20 -22l35 2v-37h-247v37zM65 753.5q37 36.5 97 36.5t96.5 -36.5t38.5 -94.5h-46q-7 28 -28 47t-61 19q-39 0 -61 -19t-30 -47h-45q2 58 39 94.5z" />
  </g>

</svg>
