<?xml version="1.0" standalone="no"?>
<!DOCTYPE svg PUBLIC "-//W3C//DTD SVG 1.1//EN" "http://www.w3.org/Graphics/SVG/1.1/DTD/svg11.dtd" >
<svg xmlns="http://www.w3.org/2000/svg" xmlns:xlink="http://www.w3.org/1999/xlink" version="1.1" viewBox="-10 0 478 1000">
  <g transform="matrix(1 0 0 -1 0 800)">
   <path fill="currentColor"
d="M75.5 39.5q-54.5 49.5 -55.5 140.5v37h288q0 86 -31.5 131t-94.5 46q-47 0 -81 -23.5t-50 -57.5l-27 19q23 49 75.5 76t123.5 27q225 0 225 -221q0 -115 -57 -169.5t-170 -54.5q-91 0 -145.5 49.5zM287 68.5q20 44.5 20 115.5h-133q-10 0 -15 -7t-5 -26q0 -65 16.5 -96
t53.5 -31q43 0 63 44.5z" />
  </g>

</svg>
