<?xml version="1.0" standalone="no"?>
<!DOCTYPE svg PUBLIC "-//W3C//DTD SVG 1.1//EN" "http://www.w3.org/Graphics/SVG/1.1/DTD/svg11.dtd" >
<svg xmlns="http://www.w3.org/2000/svg" xmlns:xlink="http://www.w3.org/1999/xlink" version="1.1" viewBox="-10 0 497 1000">
  <g transform="matrix(1 0 0 -1 0 800)">
   <path fill="currentColor"
d="M76 47q-56 57 -56 166q0 108 56 165t168 57q113 0 168 -57t55 -165q0 -223 -223 -223q-112 0 -168 57zM308 67q19 42 19 144q0 104 -19 147t-64 43t-64.5 -43t-19.5 -147q0 -101 19.5 -143.5t64.5 -42.5t64 42zM211 524l-24 24l-23 24q-18 20 -48 50q-12 11 -20 19.5
t-8 12.5q0 8 12 8q14 0 33 -12l111 -66l112 66q19 12 33 12q11 0 11 -8q0 -4 -8 -12.5t-20 -19.5q-30 -30 -48 -50l-23 -24l-24 -24q-16 -18 -33 -18q-15 0 -33 18z" />
  </g>

</svg>
