<?xml version="1.0" standalone="no"?>
<!DOCTYPE svg PUBLIC "-//W3C//DTD SVG 1.1//EN" "http://www.w3.org/Graphics/SVG/1.1/DTD/svg11.dtd" >
<svg xmlns="http://www.w3.org/2000/svg" xmlns:xlink="http://www.w3.org/1999/xlink" version="1.1" viewBox="-10 0 273 1000">
  <g transform="matrix(1 0 0 -1 0 800)">
   <path fill="currentColor"
d="M55 32q11 0 11 19v323q0 17 -12 20l-33 -2v33h176v-374q0 -20 13 -19l33 2v-34h-223v34zM107 522q2 14 14 19q41 19 41 44q0 16 -9 24.5t-25 8.5q-20 0 -35 -6l-11 27q36 20 72 20q43 0 67 -17.5t24 -49.5q0 -25 -16 -41t-42 -23q-15 -4 -27 -8.5t-13 -16.5
q-1 -11 -1 -37h-30q-12 37 -9 56z" />
  </g>

</svg>
