<?xml version="1.0" standalone="no"?>
<!DOCTYPE svg PUBLIC "-//W3C//DTD SVG 1.1//EN" "http://www.w3.org/Graphics/SVG/1.1/DTD/svg11.dtd" >
<svg xmlns="http://www.w3.org/2000/svg" xmlns:xlink="http://www.w3.org/1999/xlink" version="1.1" viewBox="-10 0 302 1000">
  <g transform="matrix(1 0 0 -1 0 800)">
   <path fill="currentColor"
d="M39.5 -88.5q-32.5 14.5 -32.5 43.5q0 18 14 30t37 12q22 0 36.5 -11t14.5 -27q0 -5 -1.5 -10t-1.5 -10q0 -11 9.5 -15t21.5 -4q19 0 30.5 14.5t11.5 40.5q0 29 -21.5 42t-85.5 13v21q47 0 69 16t22 53q0 17 -7.5 26.5t-20.5 9.5q-10 0 -17 -5t-7 -13q0 -4 1.5 -10.5
t1.5 -12.5q0 -18 -14.5 -27.5t-36.5 -9.5q-25 0 -38 12t-13 29q0 28 36 43.5t91 15.5q54 0 90 -15.5t36 -47.5q0 -28 -28 -45.5t-73 -22.5v-3q56 0 87 -16t31 -48q0 -38 -42.5 -60.5t-110.5 -22.5q-57 0 -89.5 14.5z" />
  </g>

</svg>
