<?xml version="1.0" standalone="no"?>
<!DOCTYPE svg PUBLIC "-//W3C//DTD SVG 1.1//EN" "http://www.w3.org/Graphics/SVG/1.1/DTD/svg11.dtd" >
<svg xmlns="http://www.w3.org/2000/svg" xmlns:xlink="http://www.w3.org/1999/xlink" version="1.1" viewBox="-10 0 758 1000">
  <g transform="matrix(1 0 0 -1 0 800)">
   <path fill="currentColor"
d="M673.568 182.864c35.5537 -129.296 63.6016 -182.194 63.6016 -182.153l-267.654 -0.779297s-13.6143 20.75 -24.4814 91.7744c-31.3701 205.036 -160.666 175.757 -160.666 175.757l2.95215 -265.563l-251.744 -1.18945l-5.57715 690.932l338.516 2.74707
c232.717 8.03711 329.576 -81.1533 328.592 -202.33c-1.27148 -157.755 -152.384 -170.016 -152.384 -170.016c69.3438 -15.2139 103.954 -48.6758 128.846 -139.179zM376.634 395.652c75.3711 0.615234 86.9766 50.8906 86.6484 86.5674
c-0.369141 47.1992 -20.668 85.7051 -88.9863 85.1309l-90.1338 -1.06641l1.39453 -170.591l5.20801 0.0410156z" />
  </g>

</svg>
