<?xml version="1.0" standalone="no"?>
<!DOCTYPE svg PUBLIC "-//W3C//DTD SVG 1.1//EN" "http://www.w3.org/Graphics/SVG/1.1/DTD/svg11.dtd" >
<svg xmlns="http://www.w3.org/2000/svg" xmlns:xlink="http://www.w3.org/1999/xlink" version="1.1" viewBox="-10 0 700 1000">
  <g transform="matrix(1 0 0 -1 0 800)">
   <path fill="currentColor"
d="M672.391 251.768c14.1064 -54.7451 8.0791 -115.271 -21.6514 -158.902c-26.7363 -39.4082 -61.1826 -69.5898 -107.685 -85.501c-96.7363 -33.0928 -275.815 -37.9316 -386.904 2.54297c-131.47 47.8965 -146.15 167.433 -146.15 167.433l236.776 37.3164
s3.23926 -26.0811 26.0391 -42.6484c33.708 -24.4404 137.538 -21.8164 139.015 19.3955c1.64062 45.4365 -66.1035 56.9189 -155.253 82.2207c-67.5391 19.1914 -208.03 53.8428 -232.061 166.94c-33.2979 156.729 94.1113 269.213 339.786 263.103
c138.563 -3.44434 250.268 -42.6475 291.07 -182.031l-229.271 -32.1494s-7.17676 47.8965 -59.666 54.7861c-96.7363 12.6709 -117.158 -61.9619 -13.9834 -86.1973c194.907 -45.8047 292.669 -100.55 319.938 -206.308z" />
  </g>

</svg>
