<?xml version="1.0" standalone="no"?>
<!DOCTYPE svg PUBLIC "-//W3C//DTD SVG 1.1//EN" "http://www.w3.org/Graphics/SVG/1.1/DTD/svg11.dtd" >
<svg xmlns="http://www.w3.org/2000/svg" xmlns:xlink="http://www.w3.org/1999/xlink" version="1.1" viewBox="-10 0 1041 1000">
  <g transform="matrix(1 0 0 -1 0 800)">
   <path fill="currentColor"
d="M784.766 665.196c205.446 -128.763 226.361 -392.032 166.49 -553.19c-57 -152.957 -276.799 -136.554 -307.965 -21.7334c0 0 -37.7266 -89.8057 -144.346 -98.0068c-112.36 -8.61133 -238.663 61.1016 -238.253 265.318
c0.820312 195.194 130.403 245.224 228.411 237.843c90.626 -6.56152 132.453 -61.5117 132.453 -61.5117l-0.410156 53.3096l121.382 -1.23047l5.74121 -305.095c-0.820312 -56.1797 98.0068 -91.4463 106.208 59.4609c13.1221 239.482 -119.741 373.576 -330.929 373.986
c-194.784 0.410156 -341.181 -118.101 -338.311 -379.728c4.10059 -328.879 292.792 -376.447 471.174 -290.742l48.7988 -115.23s-67.252 -42.6475 -206.677 -42.6475c-201.346 0 -351.843 88.5762 -418.685 281.721c-66.0215 191.094 -37.7266 513.001 241.123 628.642
c120.151 50.0293 331.749 51.6699 463.793 -31.165zM512.889 102.573c54.54 5.33105 108.26 35.6758 108.26 151.316c0 109.899 -68.4824 143.115 -117.281 147.626c-63.9717 5.74121 -112.771 -60.2803 -112.771 -149.676c0 -96.7773 52.0791 -155.828 121.792 -149.267z
" />
  </g>

</svg>
