<?xml version="1.0" standalone="no"?>
<!DOCTYPE svg PUBLIC "-//W3C//DTD SVG 1.1//EN" "http://www.w3.org/Graphics/SVG/1.1/DTD/svg11.dtd" >
<svg xmlns="http://www.w3.org/2000/svg" xmlns:xlink="http://www.w3.org/1999/xlink" version="1.1" viewBox="-10 0 779 1000">
  <g transform="matrix(1 0 0 -1 0 800)">
   <path fill="currentColor"
d="M712.268 263.497c13.9424 -54.9502 8.20215 -115.23 -21.7334 -159.108c-26.6543 -39.3672 -61.1006 -69.3027 -107.438 -85.2959c-29.9355 -10.252 -67.252 -17.6328 -108.259 -22.1436v-111.95h-157.878v111.13c-43.8779 4.10059 -86.1152 12.7119 -120.972 25.4238
c-131.224 47.9785 -145.986 167.31 -145.986 167.31l236.612 37.3164s3.28027 -25.835 26.2441 -42.6475c33.626 -24.1943 137.374 -21.7344 139.015 19.6826c1.64062 45.1084 -66.0215 56.5908 -155.417 82.0156c-67.6621 19.2734 -207.907 53.7197 -232.102 166.899
c-29.1152 136.965 64.791 240.303 252.604 259.986v111.13h157.878v-114c105.389 -14.3525 186.993 -61.1006 220.619 -175.921l-229.641 -31.9854s-6.97168 47.5684 -59.4609 54.54c-96.7773 12.7119 -117.281 -61.9209 -13.9424 -86.1152
c194.784 -45.9277 292.382 -100.468 319.856 -206.267z" />
  </g>

</svg>
