<?xml version="1.0" standalone="no"?>
<!DOCTYPE svg PUBLIC "-//W3C//DTD SVG 1.1//EN" "http://www.w3.org/Graphics/SVG/1.1/DTD/svg11.dtd" >
<svg xmlns="http://www.w3.org/2000/svg" xmlns:xlink="http://www.w3.org/1999/xlink" version="1.1" viewBox="-10 0 657 1000">
  <g transform="matrix(1 0 0 -1 0 800)">
   <path fill="currentColor"
d="M568.069 442.042c85.5 -83.6963 67.0469 -228.04 67.0469 -228.04l-411.098 -0.369141c0.0820312 -26.1631 12.0156 -56.0576 32.8066 -73.0752c29.6895 -24.3174 79.9648 -27.4746 119.209 -9.39062c31.9033 14.7217 36.5781 45.4365 36.5781 45.4365l218.979 -30.8789
s-7.54492 -30.9609 -28.541 -58.0254c-59.748 -76.9297 -156.895 -103.748 -301.117 -100.427c-165.424 3.77246 -267.245 75.2891 -291.973 205.2c-19.1914 100.755 16.5674 229.148 120.151 284.877c121.013 65.1191 329.617 70.7783 437.958 -35.3076zM229.759 317.792
l191.094 -0.000976562c-10.498 55.1553 -43.7549 87.5918 -100.304 84.1885c-47.9785 -2.87012 -84.2285 -36.25 -90.79 -84.1875z" />
  </g>

</svg>
