<?xml version="1.0" standalone="no"?>
<!DOCTYPE svg PUBLIC "-//W3C//DTD SVG 1.1//EN" "http://www.w3.org/Graphics/SVG/1.1/DTD/svg11.dtd" >
<svg xmlns="http://www.w3.org/2000/svg" xmlns:xlink="http://www.w3.org/1999/xlink" version="1.1" viewBox="-10 0 717 1000">
  <g transform="matrix(1 0 0 -1 0 800)">
   <path fill="currentColor"
d="M641.097 414.851c69.6309 -75.043 108.63 -298.166 -103.542 -394.738c-120.931 -55.0732 -340.155 -39.7363 -440.377 33.2568c-75.084 54.7041 -77.1758 117.979 -77.1758 117.979l238.662 55.7285s6.35645 -70.1221 86.8125 -74.7969
c62.8643 -3.64941 110.884 32.5596 107.316 95.6289c-2.78809 49.373 -43.959 87.9609 -108.628 81.0713c-69.6309 -7.42188 -85.3369 -64.9141 -85.3369 -64.9141l-223.326 41.458l65.7344 404.537h512.509l-8.40625 -168.007l-342.165 0.123047l-18.4121 -99.7295
s41.9092 39.4492 132.74 51.2598c115.066 14.9678 198.558 -8.73438 263.595 -78.8564z" />
  </g>

</svg>
