<?xml version="1.0" standalone="no"?>
<!DOCTYPE svg PUBLIC "-//W3C//DTD SVG 1.1//EN" "http://www.w3.org/Graphics/SVG/1.1/DTD/svg11.dtd" >
<svg xmlns="http://www.w3.org/2000/svg" xmlns:xlink="http://www.w3.org/1999/xlink" version="1.1" viewBox="-10 0 1083 1000">
  <g transform="matrix(1 0 0 -1 0 800)">
   <path fill="currentColor"
d="M1052.49 220.209l0.411133 -219.392h-229.641l-1.55859 176.126c1.23047 144.756 -17.4688 177.726 -61.1006 184.533c-43.4678 6.7666 -86.9355 -12.7119 -97.1875 -54.5391c-4.51074 -18.043 -6.15137 -37.3164 -6.56152 -52.4893v-2.45996
c-0.410156 -13.1221 0 -22.1436 0 -22.1436l2.78809 -227.796h-229.23l-1.64062 206.677c1.64062 144.756 -37.2344 146.889 -75.3711 149.636c-35.9229 2.62402 -75.7412 -20.2168 -88.002 -60.8145c-6.60254 -22.5537 -3.9375 -14.5986 -4.34766 -42.8936
l0.820312 -254.655l-230.871 0.410156v500.699l226.771 0.410156l0.328125 -71.8857s59.543 78.8574 194.047 81.3174c74.8789 1.51758 128.968 -16.0332 162.922 -58.0654c12.5068 -15.501 16.3203 -17.7979 23.415 -40.2285
c44.5342 64.3408 128.189 95.4248 206.514 97.0654c109.899 2.05078 175.511 -36.9062 197.654 -134.094c7.79102 -32.8057 9.8418 -96.3672 9.8418 -155.418z" />
  </g>

</svg>
