<?xml version="1.0" standalone="no"?>
<!DOCTYPE svg PUBLIC "-//W3C//DTD SVG 1.1//EN" "http://www.w3.org/Graphics/SVG/1.1/DTD/svg11.dtd" >
<svg xmlns="http://www.w3.org/2000/svg" xmlns:xlink="http://www.w3.org/1999/xlink" version="1.1" viewBox="-10 0 705 1000">
  <g transform="matrix(1 0 0 -1 0 800)">
   <path fill="currentColor"
d="M388.388 513.512c163.373 26.5723 295.662 -53.3096 295.662 -274.708c0 -146.724 -84.4746 -213.524 -164.931 -233.864c-188.921 -47.7734 -259.822 69.7539 -259.822 69.7539v-315.1h-230.297v743.298l230.297 0.410156v-82.0967s49.127 79.3076 129.091 92.3066z
M341.353 128.535c72.0908 -10.252 113.96 45.8867 113.96 132.781c0 80.21 -50.0703 137.497 -117.158 123.145c-44.042 -9.43164 -75.126 -61.3877 -75.126 -124.58c0 -70.6553 25.2607 -123.801 78.3242 -131.346z" />
  </g>

</svg>
