<?xml version="1.0" standalone="no"?>
<!DOCTYPE svg PUBLIC "-//W3C//DTD SVG 1.1//EN" "http://www.w3.org/Graphics/SVG/1.1/DTD/svg11.dtd" >
<svg xmlns="http://www.w3.org/2000/svg" xmlns:xlink="http://www.w3.org/1999/xlink" version="1.1" viewBox="-10 0 705 1000">
  <g transform="matrix(1 0 0 -1 0 800)">
   <path fill="currentColor"
d="M8 237.211c0 221.398 132.289 301.28 295.662 274.749c79.9639 -12.999 129.091 -92.3066 129.091 -92.3066v82.0967l230.297 -0.410156v-743.339h-230.297v315.1s-70.9014 -117.527 -259.822 -69.7539c-80.4561 20.3398 -164.931 87.1816 -164.931 233.864z
M236.779 259.724c0 -86.8535 41.8281 -143.033 113.96 -132.781c53.0225 7.54492 78.3242 60.6904 78.3242 131.346c0 63.1924 -31.084 115.148 -75.126 124.58c-67.0879 14.3525 -117.158 -42.9346 -117.158 -123.145z" />
  </g>

</svg>
