<?xml version="1.0" standalone="no"?>
<!DOCTYPE svg PUBLIC "-//W3C//DTD SVG 1.1//EN" "http://www.w3.org/Graphics/SVG/1.1/DTD/svg11.dtd" >
<svg xmlns="http://www.w3.org/2000/svg" xmlns:xlink="http://www.w3.org/1999/xlink" version="1.1" viewBox="-10 0 718 1000">
  <g transform="matrix(1 0 0 -1 0 800)">
   <path fill="currentColor"
d="M311.848 470.681c181.867 80.6611 426.189 -27.8857 379.318 -263.145c-24.4404 -122.652 -137.825 -219.717 -346.594 -213.155c-247.562 7.75 -346.307 183.343 -333.472 391.25c13.7783 223.08 203.068 335.235 409.335 319.242
c127.491 -9.88281 173.993 -67.7031 173.993 -67.7031l-134.627 -123.596s-28.9512 39.2852 -84.3926 39.3672c-44.001 -0.410156 -82.1787 -19.2324 -101.452 -46.666c-8.40625 -11.9746 -22.4717 -40.8027 -24.2764 -80.6621c0 0 6.43848 20.3398 62.167 45.0674z
M465.462 238.824c5.65918 53.5557 -32.0674 101.781 -83.9414 107.235c-52.1611 5.4541 -98.7861 -33.8721 -104.404 -87.4277c-5.65918 -53.9248 30.7959 -94.1533 82.957 -99.6484c51.833 -5.4541 99.7295 25.957 105.389 79.8408z" />
  </g>

</svg>
