<?xml version="1.0" standalone="no"?>
<!DOCTYPE svg PUBLIC "-//W3C//DTD SVG 1.1//EN" "http://www.w3.org/Graphics/SVG/1.1/DTD/svg11.dtd" >
<svg xmlns="http://www.w3.org/2000/svg" xmlns:xlink="http://www.w3.org/1999/xlink" version="1.1" viewBox="-59 0 892 1000">
  <g transform="matrix(1 0 0 -1 0 800)">
   <path fill="currentColor"
d="M668 0h-349l5 34l57 -3q10 -1 16 5.5t7 15.5l-6 146h-231l-82 -114q-18 -25 -18 -42q0 -12 13 -11l53 3l-4 -34h-178l4 34l33 -3q12 -1 26.5 13t38.5 46l331 450q4 5 4 9q0 5 -4.5 10t-9.5 5l-51 -2l5 35h457q21 0 38 2l-22 -156h-31q2 14 2 29q0 48 -30 71t-93 23h-148
l10 -242h70q31 0 55.5 28.5t31.5 73.5h32l-33 -233h-32q2 12 2 22q0 35 -16.5 56.5t-43.5 21.5h-66l11 -244q3 -19 17 -19h55q138 0 156 141h32l-24 -174q-38 3 -90 3zM385 494l-195 -265h206z" />
  </g>

</svg>
