<?xml version="1.0" standalone="no"?>
<!DOCTYPE svg PUBLIC "-//W3C//DTD SVG 1.1//EN" "http://www.w3.org/Graphics/SVG/1.1/DTD/svg11.dtd" >
<svg xmlns="http://www.w3.org/2000/svg" xmlns:xlink="http://www.w3.org/1999/xlink" version="1.1" viewBox="-10 0 575 1000">
  <g transform="matrix(1 0 0 -1 0 800)">
   <path fill="currentColor"
d="M67 31q16 0 19 22l69 493v3q0 17 -12 17l-50 -2l5 33h286q74 0 113 -30.5t39 -90.5q0 -62 -43 -104.5t-113 -54.5q64 0 105.5 -39t41.5 -98q0 -88 -61 -134t-181 -46h-271l4 33zM371.5 74q39.5 42 39.5 120q0 103 -91 103h-87l-35 -252l-1 -4q0 -9 11 -9h60
q64 0 103.5 42zM391 365.5q30 37.5 30 107.5q0 45 -24 69t-68 24h-47q-10 0 -13 -12l-32 -226h63q61 0 91 37.5z" />
  </g>

</svg>
