<?xml version="1.0" standalone="no"?>
<!DOCTYPE svg PUBLIC "-//W3C//DTD SVG 1.1//EN" "http://www.w3.org/Graphics/SVG/1.1/DTD/svg11.dtd" >
<svg xmlns="http://www.w3.org/2000/svg" xmlns:xlink="http://www.w3.org/1999/xlink" version="1.1" viewBox="-10 0 584 1000">
  <g transform="matrix(1 0 0 -1 0 800)">
   <path fill="currentColor"
d="M380.5 7q-16.5 17 -16.5 56q0 15 4 52q3 30 3 47q0 57 -27.5 86.5t-81.5 30.5h-42l-31 -234q0 -14 15 -14l49 2l-4 -33h-235l4 33l38 -2q17 0 20 22l69 488v6q0 18 -18 19l-34 -2l5 33h235q96 0 142 -31t46 -97q0 -67 -40 -111.5t-104 -61.5q51 -7 76.5 -39.5t23.5 -85.5
l-4 -100q-1 -21 6.5 -31t22.5 -10q12 0 21 6l8 -21q-19 -10 -46.5 -17.5t-52.5 -7.5q-35 0 -51.5 17zM378.5 353q29.5 43 29.5 112q0 53 -21.5 77t-67.5 24h-47q-12 0 -13 -10l-34 -246h77q47 0 76.5 43zM325 690l-38 48q-19 25 -46 54q-18 21 -18 24q0 8 13 8q12 0 29 -12
l98 -70l120 70q20 12 31 12t11 -7q0 -5 -30 -29q-37 -32 -56 -50l-52 -48q-24 -22 -34 -22q-12 0 -28 22z" />
  </g>

</svg>
