<?xml version="1.0" standalone="no"?>
<!DOCTYPE svg PUBLIC "-//W3C//DTD SVG 1.1//EN" "http://www.w3.org/Graphics/SVG/1.1/DTD/svg11.dtd" >
<svg xmlns="http://www.w3.org/2000/svg" xmlns:xlink="http://www.w3.org/1999/xlink" version="1.1" viewBox="-10 0 691 1000">
  <g transform="matrix(1 0 0 -1 0 800)">
   <path fill="currentColor"
d="M85 161q0 18 3 38l49 346v4q0 7 -4 12t-10 5l-39 -2l4 33h237l-5 -33l-49 2q-18 0 -21 -20l-49 -347q-3 -20 -3 -38q0 -64 36.5 -98t103.5 -34q83 0 125.5 42.5t54.5 128.5l49 345v4q0 17 -14 17l-49 -2l4 33h163l-5 -33l-39 2q-17 0 -20 -20l-50 -351q-14 -103 -74 -154
t-170 -51q-228 0 -228 171zM474 673q0 4 5 11q65 91 92 133q4 6 7 7.5t8 1.5q16 0 35.5 -8.5t19.5 -16.5q0 -5 -8 -13q-13 -16 -127 -114q-10 -8 -21 -8t-11 7zM357 673q0 5 4 11q66 93 92 133q6 9 15 9q16 0 36 -9t20 -17q0 -4 -9 -12q-15 -14 -127 -114q-10 -8 -21 -8
q-10 0 -10 7z" />
  </g>

</svg>
