<?xml version="1.0" standalone="no"?>
<!DOCTYPE svg PUBLIC "-//W3C//DTD SVG 1.1//EN" "http://www.w3.org/Graphics/SVG/1.1/DTD/svg11.dtd" >
<svg xmlns="http://www.w3.org/2000/svg" xmlns:xlink="http://www.w3.org/1999/xlink" version="1.1" viewBox="-10 0 971 1000">
  <g transform="matrix(1 0 0 -1 0 800)">
   <path fill="currentColor"
d="M76 566l-31 -2l5 33h230l-4 -33l-54 2q-12 0 -12 -11l2 -11l86 -374l194 427h71l110 -446l177 395q3 7 3 11q0 9 -10 9l-52 -2l5 33h155l-5 -33l-30 2q-15 0 -26 -21l-254 -555h-31l-124 498l-228 -498h-34l-127 554q-4 22 -16 22zM558 672l-144 109q-7 6 -7 14
t23.5 19.5t41.5 11.5q10 0 14.5 -3t15.5 -19l82 -111q10 -14 10 -21q0 -9 -16 -9q-9 0 -20 9z" />
  </g>

</svg>
