<?xml version="1.0" standalone="no"?>
<!DOCTYPE svg PUBLIC "-//W3C//DTD SVG 1.1//EN" "http://www.w3.org/Graphics/SVG/1.1/DTD/svg11.dtd" >
<svg xmlns="http://www.w3.org/2000/svg" xmlns:xlink="http://www.w3.org/1999/xlink" version="1.1" viewBox="-10 0 603 1000">
  <g transform="matrix(1 0 0 -1 0 800)">
   <path fill="currentColor"
d="M173 31q18 0 21 22l29 207l-129 287q-5 10 -9 14.5t-10 4.5l-29 -2l5 33h239l-4 -33l-53 2q-12 0 -12 -12q0 -4 3 -12l99 -223l157 227q4 6 4 12q0 8 -7 8l-51 -2l4 33h153l-4 -33l-30 2q-14 0 -29 -21l-181 -263l-33 -230v-6q0 -15 16 -15l48 2l-5 -33h-245l4 33z
M180 673q0 5 29 29q38 32 57 50l51 48q24 22 35 22q12 0 28 -22l37 -48q20 -25 46 -54q19 -19 19 -24q0 -8 -14 -8q-12 0 -29 12l-98 70l-119 -70q-21 -12 -31 -12q-11 0 -11 7z" />
  </g>

</svg>
