<?xml version="1.0" standalone="no"?>
<!DOCTYPE svg PUBLIC "-//W3C//DTD SVG 1.1//EN" "http://www.w3.org/Graphics/SVG/1.1/DTD/svg11.dtd" >
<svg xmlns="http://www.w3.org/2000/svg" xmlns:xlink="http://www.w3.org/1999/xlink" version="1.1" viewBox="-10 0 550 1000">
  <g transform="matrix(1 0 0 -1 0 800)">
   <path fill="currentColor"
d="M349 1h-347l4 27l384 538h-129q-70 0 -107.5 -29.5t-46.5 -92.5h-32l22 157l44 -1l64 -2h325l-3 -24l-386 -543h155q66 0 110.5 36t52.5 101h32l-32 -172q-11 5 -110 5zM268 671q0 5 6.5 12.5t13.5 13.5l107 107q14 14 20 18t17 4q17 0 37.5 -11t20.5 -19q0 -7 -13 -15
l-174 -109q-13 -9 -23 -9q-12 0 -12 8z" />
  </g>

</svg>
