<?xml version="1.0" standalone="no"?>
<!DOCTYPE svg PUBLIC "-//W3C//DTD SVG 1.1//EN" "http://www.w3.org/Graphics/SVG/1.1/DTD/svg11.dtd" >
<svg xmlns="http://www.w3.org/2000/svg" xmlns:xlink="http://www.w3.org/1999/xlink" version="1.1" viewBox="-10 0 659 1000">
  <g transform="matrix(1 0 0 -1 0 800)">
   <path fill="currentColor"
d="M37.5 22q-24.5 32 -24.5 84q0 74 48 145t127 116t167 45q31 0 51 -8q49 28 101 28q58 0 95 -27.5t37 -68.5q0 -35 -27.5 -67t-87.5 -55.5t-153 -31.5v-22q0 -51 21 -79t56 -28q55 0 127 52l22 -17q-38 -44 -87.5 -70.5t-99.5 -26.5q-57 0 -95.5 33t-48.5 90
q-67 -124 -160 -124q-44 0 -68.5 32zM211 87q29 32 53 81q5 67 32.5 120t72.5 90q-75 1 -125.5 -33.5t-82.5 -89.5q-41 -65 -41 -134q0 -27 9.5 -46.5t28.5 -19.5q24 0 53 32zM506 259.5q46 35.5 46 86.5q0 23 -12 38.5t-37 15.5q-59 0 -98 -81q-24 -50 -30 -105
q85 10 131 45.5z" />
  </g>

</svg>
