<?xml version="1.0" standalone="no"?>
<!DOCTYPE svg PUBLIC "-//W3C//DTD SVG 1.1//EN" "http://www.w3.org/Graphics/SVG/1.1/DTD/svg11.dtd" >
<svg xmlns="http://www.w3.org/2000/svg" xmlns:xlink="http://www.w3.org/1999/xlink" version="1.1" viewBox="-10 0 603 1000">
  <g transform="matrix(1 0 0 -1 0 800)">
   <path fill="currentColor"
d="M130.5 13q-52.5 22 -83 62t-30.5 93q0 47 25.5 88.5t76.5 68t124 27.5q-35 20 -58.5 52t-23.5 71q0 40 25 70t65.5 46t84.5 16q60 0 93.5 -25t33.5 -58q0 -24 -17 -41t-41 -17q-20 0 -31.5 10.5t-11.5 25.5q0 7 7 22t7 25q0 15 -11.5 23.5t-29.5 8.5q-34 0 -54 -27.5
t-20 -78.5q0 -46 20 -75.5t61 -42.5l-3 -26q-13 2 -37 2q-58 0 -98.5 -25t-60.5 -65t-20 -82q0 -64 41 -101t109 -37q73 0 126 37.5t53 101.5q0 38 -20.5 58.5t-53.5 20.5q-56 0 -56 -47q0 -7 3.5 -17.5t3.5 -20.5q0 -19 -12.5 -30.5t-35.5 -11.5q-51 0 -51 51
q0 44 41.5 69.5t109.5 33.5l8 1q56 7 79 18.5t23 34.5q0 7 -3.5 17.5t-3.5 20.5q0 18 12 30t35 12q25 0 38.5 -14t13.5 -34q0 -39 -39.5 -66t-100.5 -39q40 -30 40 -85q0 -50 -31.5 -89.5t-85 -61.5t-118.5 -22t-117.5 22z" />
  </g>

</svg>
