<?xml version="1.0" standalone="no"?>
<!DOCTYPE svg PUBLIC "-//W3C//DTD SVG 1.1//EN" "http://www.w3.org/Graphics/SVG/1.1/DTD/svg11.dtd" >
<svg xmlns="http://www.w3.org/2000/svg" xmlns:xlink="http://www.w3.org/1999/xlink" version="1.1" viewBox="-10 0 369 1000">
  <g transform="matrix(1 0 0 -1 0 800)">
   <path fill="currentColor"
d="M118 547q-29 32 -27 95h45q3 -30 20 -50t53 -20t60 20.5t35 49.5h45q-13 -57 -52 -92t-95 -35q-55 0 -84 32zM196 683q0 18 17 26q49 21 50 45q0 14 -8.5 21.5t-24.5 7.5q-20 0 -34 -7v23q27 14 60 14q32 0 49 -14.5t17 -39.5q0 -24 -15 -38.5t-41 -21.5q-14 -5 -22 -8.5
t-10 -13.5q-2 -9 -5 -35h-30q-3 25 -3 41z" />
  </g>

</svg>
