<?xml version="1.0" standalone="no"?>
<!DOCTYPE svg PUBLIC "-//W3C//DTD SVG 1.1//EN" "http://www.w3.org/Graphics/SVG/1.1/DTD/svg11.dtd" >
<svg xmlns="http://www.w3.org/2000/svg" xmlns:xlink="http://www.w3.org/1999/xlink" version="1.1" viewBox="-10 0 420 1000">
  <g transform="matrix(1 0 0 -1 0 800)">
   <path fill="currentColor"
d="M62.5 34q-40.5 43 -40.5 117t35.5 138.5t92.5 103.5t121 39q55 0 91.5 -27t36.5 -67q0 -26 -16 -45t-47 -19q-39 0 -39 31q0 10 8 27q8 16 8 28q0 19 -13.5 29.5t-34.5 10.5q-61 0 -102 -89q-32 -69 -32 -148q0 -53 20.5 -81.5t56.5 -28.5q28 0 60.5 14t67.5 38l22 -17
q-37 -43 -86.5 -70t-98.5 -27q-70 0 -110.5 43zM231 518l34 105q7 22 10.5 28t13.5 11q16 9 41.5 10t27.5 -6q3 -6 -5 -18l-96 -143q-9 -13 -18 -18q-11 -7 -14 1q-2 6 6 30z" />
  </g>

</svg>
