<?xml version="1.0" standalone="no"?>
<!DOCTYPE svg PUBLIC "-//W3C//DTD SVG 1.1//EN" "http://www.w3.org/Graphics/SVG/1.1/DTD/svg11.dtd" >
<svg xmlns="http://www.w3.org/2000/svg" xmlns:xlink="http://www.w3.org/1999/xlink" version="1.1" viewBox="-10 0 426 1000">
  <g transform="matrix(1 0 0 -1 0 800)">
   <path fill="currentColor"
d="M243 823l-108 75q-10 7 -8 14q1 7 22.5 18t37.5 11q9 0 14 -4t16 -19l54 -76q13 -17 12 -23q-1 -8 -13 -8q-11 0 -27 12zM109 689.5q-16 12.5 -16 33.5q0 28 21 45t52 17q26 0 41.5 -12.5t15.5 -33.5q0 -29 -20 -45.5t-53 -16.5q-25 0 -41 12.5zM292 689.5
q-16 12.5 -16 33.5q0 28 21 45t51 17q27 0 42.5 -12.5t15.5 -33.5q0 -29 -20.5 -45.5t-52.5 -16.5q-25 0 -41 12.5z" />
  </g>

</svg>
