<?xml version="1.0" standalone="no"?>
<!DOCTYPE svg PUBLIC "-//W3C//DTD SVG 1.1//EN" "http://www.w3.org/Graphics/SVG/1.1/DTD/svg11.dtd" >
<svg xmlns="http://www.w3.org/2000/svg" xmlns:xlink="http://www.w3.org/1999/xlink" version="1.1" viewBox="-10 0 431 1000">
  <g transform="matrix(1 0 0 -1 0 800)">
   <path fill="currentColor"
d="M233 819q1 7 18 24l70 75q14 16 19.5 19.5t14.5 3.5q17 0 36.5 -10.5t18.5 -17.5q-1 -8 -11 -14l-125 -76q-18 -12 -29 -12q-13 0 -12 8zM109 689.5q-16 12.5 -16 33.5q0 28 21 45t52 17q26 0 41.5 -12.5t15.5 -33.5q0 -29 -20 -45.5t-53 -16.5q-25 0 -41 12.5z
M292 689.5q-16 12.5 -16 33.5q0 28 21 45t51 17q27 0 42.5 -12.5t15.5 -33.5q0 -29 -20.5 -45.5t-52.5 -16.5q-25 0 -41 12.5z" />
  </g>

</svg>
