<?xml version="1.0" standalone="no"?>
<!DOCTYPE svg PUBLIC "-//W3C//DTD SVG 1.1//EN" "http://www.w3.org/Graphics/SVG/1.1/DTD/svg11.dtd" >
<svg xmlns="http://www.w3.org/2000/svg" xmlns:xlink="http://www.w3.org/1999/xlink" version="1.1" viewBox="-10 0 434 1000">
  <g transform="matrix(1 0 0 -1 0 800)">
   <path fill="currentColor"
d="M232 828l-34 44q-18 22 -42 49q-17 18 -17 22q0 7 12 7q11 0 26 -11l89 -63l108 63q20 11 29 11q11 0 10 -6q0 -4 -27 -27q-34 -29 -51 -45l-47 -44q-22 -21 -32 -20q-9 1 -24 20zM109 689.5q-16 12.5 -16 33.5q0 28 21 45t52 17q26 0 41.5 -12.5t15.5 -33.5
q0 -29 -20 -45.5t-53 -16.5q-25 0 -41 12.5zM292 689.5q-16 12.5 -16 33.5q0 28 21 45t51 17q27 0 42.5 -12.5t15.5 -33.5q0 -29 -20.5 -45.5t-52.5 -16.5q-25 0 -41 12.5z" />
  </g>

</svg>
