<?xml version="1.0" standalone="no"?>
<!DOCTYPE svg PUBLIC "-//W3C//DTD SVG 1.1//EN" "http://www.w3.org/Graphics/SVG/1.1/DTD/svg11.dtd" >
<svg xmlns="http://www.w3.org/2000/svg" xmlns:xlink="http://www.w3.org/1999/xlink" version="1.1" viewBox="-10 0 552 1000">
  <g transform="matrix(1 0 0 -1 0 800)">
   <path fill="currentColor"
d="M46.5 25q-27.5 35 -27.5 92q0 76 32 150t87 119.5t119 45.5q29 0 51.5 -10.5t34.5 -29.5q8 45 22 155h-90l5 39h89l5 62q0 24 -34 24q-12 0 -24 -2l-6 28q70 32 136 32q23 0 32 -5.5t9 -19.5q0 -12 -19 -119h64l-5 -39h-65q-58 -349 -59 -449q0 -27 17 -27t35 12l12 -23
q-34 -34 -69.5 -52t-62.5 -18q-20 0 -29 12t-9 36q0 62 14 143q-39 -95 -89.5 -143t-102.5 -48q-45 0 -72.5 35zM234 106q39 51 68 117.5t29 112.5q0 32 -19 47.5t-46 15.5q-42 0 -74.5 -42.5t-48.5 -104t-16 -112.5q0 -39 11.5 -62t30.5 -23q26 0 65 51zM444 -85l-4 -26
h-440l4 26h440z" />
  </g>

</svg>
