<?xml version="1.0" standalone="no"?>
<!DOCTYPE svg PUBLIC "-//W3C//DTD SVG 1.1//EN" "http://www.w3.org/Graphics/SVG/1.1/DTD/svg11.dtd" >
<svg xmlns="http://www.w3.org/2000/svg" xmlns:xlink="http://www.w3.org/1999/xlink" version="1.1" viewBox="-154 0 704 1000">
  <g transform="matrix(1 0 0 -1 0 800)">
   <path fill="currentColor"
d="M-112.5 -224q-31.5 21 -31.5 54q0 22 14.5 38.5t42.5 16.5q18 0 30 -8t12 -24q0 -7 -4.5 -19.5t-4.5 -21.5q0 -27 29 -27q50 0 68.5 81t30.5 206l35 317h-78l14 35h69q19 147 85 228t188 81q71 0 110.5 -24.5t39.5 -61.5q0 -63 -68 -63q-25 0 -39.5 12.5t-14.5 34.5
q0 36 -11.5 53.5t-43.5 17.5q-108 0 -140 -278h80l-17 -35h-67l-32 -287q-38 -347 -219 -347q-46 0 -77.5 21zM352.5 1.5q-11.5 11.5 -11.5 34.5q0 17 6 57.5t8 53.5l12 76q14 88 13 124q0 25 -31 25q-8 0 -16 -2l-5 32q72 26 130 26q17 0 26 -5t9 -20q0 -8 -12 -69
q-18 -94 -20 -104q-17 -89 -16 -132q0 -27 17 -27q16 0 36 13l12 -24q-36 -33 -68.5 -51.5t-57.5 -18.5q-20 0 -31.5 11.5z" />
  </g>

</svg>
