<?xml version="1.0" standalone="no"?>
<!DOCTYPE svg PUBLIC "-//W3C//DTD SVG 1.1//EN" "http://www.w3.org/Graphics/SVG/1.1/DTD/svg11.dtd" >
<svg xmlns="http://www.w3.org/2000/svg" xmlns:xlink="http://www.w3.org/1999/xlink" version="1.1" viewBox="-10 0 359 1000">
  <g transform="matrix(1 0 0 -1 0 800)">
   <path fill="currentColor"
d="M69.5 1.5q-11.5 11.5 -11.5 34.5q0 17 6 57.5t8 53.5l12 76q13 88 13 124q0 25 -31 25q-8 0 -16 -2l-5 32q72 26 130 26q17 0 26 -5t9 -20q0 -8 -12 -69q-18 -94 -20 -104q-16 -89 -16 -132q0 -27 17 -27q16 0 36 13l12 -24q-36 -33 -68.5 -51.5t-57.5 -18.5
q-20 0 -31.5 11.5zM225 553.5q-16 12.5 -16 33.5q0 28 21 45t52 17q27 0 42 -12.5t15 -33.5q0 -29 -20 -45.5t-52 -16.5q-26 0 -42 12.5zM42.5 553.5q-15.5 12.5 -15.5 33.5q0 28 20.5 45t51.5 17q27 0 42 -12.5t15 -33.5q0 -29 -20 -45.5t-52 -16.5q-26 0 -41.5 12.5z" />
  </g>

</svg>
