<?xml version="1.0" standalone="no"?>
<!DOCTYPE svg PUBLIC "-//W3C//DTD SVG 1.1//EN" "http://www.w3.org/Graphics/SVG/1.1/DTD/svg11.dtd" >
<svg xmlns="http://www.w3.org/2000/svg" xmlns:xlink="http://www.w3.org/1999/xlink" version="1.1" viewBox="-10 0 529 1000">
  <g transform="matrix(1 0 0 -1 0 800)">
   <path fill="currentColor"
d="M86 17q-42 28 -42 67q0 28 18.5 45.5t48.5 17.5q22 0 35 -9t13 -25q0 -12 -7.5 -27t-7.5 -26q0 -17 15 -28t41 -11q63 0 106.5 77t61.5 184q-23 -30 -57 -47t-77 -17q-80 0 -126 39.5t-46 114.5q0 67 27.5 118t82.5 84t133 33q89 0 135.5 -51t46.5 -149q0 -113 -33 -208
t-100.5 -152.5t-164.5 -57.5q-61 0 -103 28zM355 308.5q35 61.5 35 145.5q0 56 -23.5 91t-70.5 35q-69 0 -99 -65.5t-30 -149.5q0 -118 84 -118q69 0 104 61.5z" />
  </g>

</svg>
