<?xml version="1.0" standalone="no"?>
<!DOCTYPE svg PUBLIC "-//W3C//DTD SVG 1.1//EN" "http://www.w3.org/Graphics/SVG/1.1/DTD/svg11.dtd" >
<svg xmlns="http://www.w3.org/2000/svg" xmlns:xlink="http://www.w3.org/1999/xlink" version="1.1" viewBox="-10 0 472 1000">
  <g transform="matrix(1 0 0 -1 0 800)">
   <path fill="currentColor"
d="M109 3q-38 14 -63.5 46t-25.5 83q0 56 26 100t70.5 68.5t97.5 24.5q67 0 119 -36q17 81 17 127q0 73 -22 116t-63 43q-25 0 -42.5 -11t-17.5 -32q0 -5 2.5 -15t2.5 -16q0 -17 -14 -28t-38 -11q-22 0 -34.5 12t-12.5 33q0 31 25 53t63 33.5t75 11.5q81 0 129.5 -59.5
t48.5 -166.5q0 -62 -24 -153.5t-83.5 -164t-157.5 -72.5q-40 0 -78 14zM261.5 85.5q36.5 65.5 61.5 161.5q-13 17 -32 27.5t-40 10.5q-34 0 -63 -22t-47 -62.5t-18 -93.5q0 -41 15.5 -64t42.5 -23q44 0 80.5 65.5z" />
  </g>

</svg>
