<?xml version="1.0" standalone="no"?>
<!DOCTYPE svg PUBLIC "-//W3C//DTD SVG 1.1//EN" "http://www.w3.org/Graphics/SVG/1.1/DTD/svg11.dtd" >
<svg xmlns="http://www.w3.org/2000/svg" xmlns:xlink="http://www.w3.org/1999/xlink" version="1.1" viewBox="-10 0 599 1000">
  <g transform="matrix(1 0 0 -1 0 800)">
   <path fill="currentColor"
d="M512 442q2 17 -17 24.5t-16 29.5t18.5 34t35.5 12q24 0 36 -16t9 -40q-15 -114 -139 -116l-7 30q75 0 80 42zM71 12.5q-21 22.5 -21 57.5q0 37 30 170q20 87 20 105q0 27 -37 27q-12 0 -20 -2l-5 32q47 14 74 20t57 6q36 0 36 -22q0 -12 -21 -108q-17 -78 -25 -124
t-8 -65q0 -21 7 -34t24 -13q26 0 59 37t61.5 91.5t41.5 102.5l18 120l112 17q-35 -183 -46.5 -248.5t-11.5 -93.5q0 -17 13 -17q18 0 38 13l12 -24q-39 -37 -76 -53.5t-66 -16.5q-16 0 -21.5 11t-5.5 35t16 137q-55 -100 -100.5 -141.5t-93.5 -41.5q-40 0 -61 22.5z" />
  </g>

</svg>
