<?xml version="1.0" standalone="no"?>
<!DOCTYPE svg PUBLIC "-//W3C//DTD SVG 1.1//EN" "http://www.w3.org/Graphics/SVG/1.1/DTD/svg11.dtd" >
<svg xmlns="http://www.w3.org/2000/svg" xmlns:xlink="http://www.w3.org/1999/xlink" version="1.1" viewBox="-10 0 515 1000">
  <g transform="matrix(1 0 0 -1 0 800)">
   <path fill="currentColor"
d="M71 12.5q-21 22.5 -21 57.5q0 37 30 170q20 87 20 105q0 27 -37 27q-12 0 -20 -2l-5 32q47 14 74 20t57 6q36 0 36 -22q0 -12 -21 -108q-17 -78 -25 -124t-8 -65q0 -21 7 -34t24 -13q26 0 59 37t61.5 91.5t41.5 102.5l18 120l112 17q-35 -183 -46.5 -248.5t-11.5 -93.5
q0 -17 13 -17q18 0 38 13l12 -24q-39 -37 -76 -53.5t-66 -16.5q-16 0 -21.5 11t-5.5 35t16 137q-55 -100 -100.5 -141.5t-93.5 -41.5q-40 0 -61 22.5zM211 501l-101 114q-5 8 -4 12q1 8 10 12q11 4 28.5 9t23.5 5q4 0 6.5 -2t5.5 -7q2 -3 38 -87l20 -46q2 -6 2 -10
q-4 -8 -11 -8q-10 0 -18 8zM334 501q-93 104 -100 114q-5 8 -5 12q2 8 11 12q11 4 28 9t23 5q4 0 6.5 -2t5.5 -7q3 -4 44 -99l14 -34q3 -6 2 -10q-4 -8 -11 -8q-10 0 -18 8z" />
  </g>

</svg>
