<?xml version="1.0" standalone="no"?>
<!DOCTYPE svg PUBLIC "-//W3C//DTD SVG 1.1//EN" "http://www.w3.org/Graphics/SVG/1.1/DTD/svg11.dtd" >
<svg xmlns="http://www.w3.org/2000/svg" xmlns:xlink="http://www.w3.org/1999/xlink" version="1.1" viewBox="-10 0 916 1000">
  <g transform="matrix(1 0 0 -1 0 800)">
   <path fill="currentColor"
d="M112 49v-7q0 -15 14 -15l49 2l-4 -29h-162l4 29l39 -2q18 0 21 22l70 504q0 7 -4 11.5t-11 4.5l-39 -2l4 30h176l245 -427l54 379v6q-1 14 -13 14l-52 -2l4 30h163l-4 -30l-41 2q-16 0 -19 -21l-78 -554h-44l-306 528zM541.5 -224q-31.5 21 -31.5 54q0 22 14.5 38.5
t41.5 16.5q18 0 30.5 -8t12.5 -24q0 -7 -5 -19.5t-5 -21.5q0 -13 8.5 -20t20.5 -7q24 0 37.5 26t23 78.5t24.5 166.5l23 169q13 95 13 118q0 29 -30 29q-8 0 -16 -2l-5 32q72 26 129 26q17 0 26.5 -5t9.5 -20q-5 -30 -25 -160.5t-29 -203.5q-18 -135 -63.5 -209.5
t-126.5 -74.5q-46 0 -77.5 21zM780 553.5q-16 12.5 -16 33.5q0 28 21 45t52 17q26 0 41.5 -12.5t15.5 -33.5q0 -29 -20 -45.5t-52 -16.5q-26 0 -42 12.5z" />
  </g>

</svg>
