<?xml version="1.0" standalone="no"?>
<!DOCTYPE svg PUBLIC "-//W3C//DTD SVG 1.1//EN" "http://www.w3.org/Graphics/SVG/1.1/DTD/svg11.dtd" >
<svg xmlns="http://www.w3.org/2000/svg" xmlns:xlink="http://www.w3.org/1999/xlink" version="1.1" viewBox="-44 0 532 1000">
  <g transform="matrix(1 0 0 -1 0 800)">
   <path fill="currentColor"
d="M-34 -145q0 40 33.5 73t89.5 58q-32 12 -49 29t-17 41q0 22 14 40.5t43 38.5l15 12q-54 28 -54 95q0 50 28 94t80 70t119 26q63 0 100.5 -29t37.5 -84q0 -50 -28.5 -94t-80.5 -70t-118 -26q-29 0 -55 6q-19 -21 -19 -35q0 -19 23 -28.5t71 -21.5l38 -10q55 -16 87.5 -29
t56 -39t23.5 -69q0 -71 -74.5 -109.5t-189.5 -38.5q-174 0 -174 100zM265.5 -191q48.5 25 48.5 64q0 34 -32.5 52t-94.5 34l-63 16q-35 -15 -61 -46.5t-26 -68.5q0 -75 109 -76q71 0 119.5 25zM250.5 176.5q20.5 19.5 34.5 56.5q15 42 15 103q0 68 -52 68q-60 0 -85 -76
q-16 -47 -16 -103q0 -68 53 -68q30 0 50.5 19.5zM380.5 421q24.5 8 29.5 35q2 12 -12 21t-12 26q6 42 50 42q48 0 40 -55q-11 -88 -114 -99l-35 33q29 -11 53.5 -3zM218.5 532.5q-16.5 17.5 -16.5 42.5q0 42 32.5 79t76.5 57l15 -17q-21 -13 -38.5 -30.5t-17.5 -31.5
q-3 -27 24 -27q14 0 22 -10t8 -25q0 -21 -16.5 -38t-44.5 -17t-44.5 17.5z" />
  </g>

</svg>
