<?xml version="1.0" standalone="no"?>
<!DOCTYPE svg PUBLIC "-//W3C//DTD SVG 1.1//EN" "http://www.w3.org/Graphics/SVG/1.1/DTD/svg11.dtd" >
<svg xmlns="http://www.w3.org/2000/svg" xmlns:xlink="http://www.w3.org/1999/xlink" version="1.1" viewBox="-10 0 603 1000">
  <g transform="matrix(1 0 0 -1 0 800)">
   <path fill="currentColor"
d="M173 31q18 0 21 22l29 207l-129 287q-5 10 -9 14.5t-10 4.5l-29 -2l5 33h239l-4 -33l-53 2q-12 0 -12 -12q0 -4 3 -12l99 -223l157 227q4 6 4 12q0 8 -7 8l-51 -2l4 33h153l-4 -33l-30 2q-14 0 -29 -21l-181 -263l-33 -230v-6q0 -15 16 -15l48 2l-5 -33h-245l4 33z
M311 683q0 20 20 29q54 24 54 49q0 16 -9.5 24t-26.5 8q-22 0 -38 -7v25q30 15 67 15q35 0 53.5 -15.5t18.5 -44.5q0 -26 -16.5 -41.5t-44.5 -24.5q-16 -5 -25 -9t-11 -15q-2 -10 -5 -38h-33q-4 27 -4 45z" />
  </g>

</svg>
