<?xml version="1.0" standalone="no"?>
<!DOCTYPE svg PUBLIC "-//W3C//DTD SVG 1.1//EN" "http://www.w3.org/Graphics/SVG/1.1/DTD/svg11.dtd" >
<svg xmlns="http://www.w3.org/2000/svg" xmlns:xlink="http://www.w3.org/1999/xlink" version="1.1" viewBox="-10 0 346 1000">
  <g transform="matrix(1 0 0 -1 0 800)">
   <path fill="currentColor"
d="M83 9q-18 18 -18 48q0 24 17 129l32 202h-76l25 34h56l17 99l110 19l-23 -118h103v-18l-29 -16h-80l-24 -130q-21 -123 -21 -161t28 -38q30 0 76 44l22 -19q-73 -93 -157 -93q-40 0 -58 18zM64 -171.5q-16 12.5 -16 33.5q0 28 21 45t52 17q26 0 41.5 -12.5t15.5 -33.5
q0 -29 -20 -45.5t-52 -16.5q-26 0 -42 12.5z" />
  </g>

</svg>
