<?xml version="1.0" standalone="no"?>
<!DOCTYPE svg PUBLIC "-//W3C//DTD SVG 1.1//EN" "http://www.w3.org/Graphics/SVG/1.1/DTD/svg11.dtd" >
<svg xmlns="http://www.w3.org/2000/svg" xmlns:xlink="http://www.w3.org/1999/xlink" version="1.1" viewBox="-10 0 518 1000">
  <g transform="matrix(1 0 0 -1 0 800)">
   <path fill="currentColor"
d="M318.5 2q-10.5 12 -10.5 33q0 23 24 136q25 120 25 149q0 44 -37 44q-28 0 -62 -38.5t-63 -96.5t-43 -114l-14 -115h-99q18 116 52.5 359t34.5 289q0 12 -9 18t-24 6t-24 -2l-5 28q37 16 73 24t60 8q23 0 33 -5t10 -20q0 -11 -10 -63q-11 -62 -29 -178l-33 -231
q37 84 88.5 141.5t114.5 57.5q41 0 65 -25t24 -65q0 -22 -6.5 -54.5t-21.5 -98.5q-20 -79 -20 -95q0 -8 4 -15.5t15 -7.5q17 0 37 13l11 -24q-35 -32 -72 -51t-62 -19q-16 0 -26.5 12zM153 -171.5q-16 12.5 -16 33.5q0 28 21 45t52 17q26 0 41.5 -12.5t15.5 -33.5
q0 -29 -20 -45.5t-52 -16.5q-26 0 -42 12.5z" />
  </g>

</svg>
