<?xml version="1.0" standalone="no"?>
<!DOCTYPE svg PUBLIC "-//W3C//DTD SVG 1.1//EN" "http://www.w3.org/Graphics/SVG/1.1/DTD/svg11.dtd" >
<svg xmlns="http://www.w3.org/2000/svg" xmlns:xlink="http://www.w3.org/1999/xlink" version="1.1" viewBox="-10 0 552 1000">
  <g transform="matrix(1 0 0 -1 0 800)">
   <path fill="currentColor"
d="M502 29q0 -12 -8.5 -20.5t-21.5 -8.5h-344q-13 0 -21.5 8.5t-8.5 20.5v2v2v697q0 12 8.5 20.5t21.5 8.5h344q13 0 21.5 -8.5t8.5 -20.5t-8.5 -20.5t-21.5 -8.5h-315v-285h268q12 0 20.5 -8.5t8.5 -20.5t-8.5 -20.5t-20.5 -8.5h-268v-299h315q13 0 21.5 -8.5t8.5 -21.5z
" />
  </g>

</svg>
