<?xml version="1.0" standalone="no"?>
<!DOCTYPE svg PUBLIC "-//W3C//DTD SVG 1.1//EN" "http://www.w3.org/Graphics/SVG/1.1/DTD/svg11.dtd" >
<svg xmlns="http://www.w3.org/2000/svg" xmlns:xlink="http://www.w3.org/1999/xlink" version="1.1" viewBox="-10 0 966 1000">
  <g transform="matrix(1 0 0 -1 0 800)">
   <path fill="currentColor"
d="M418 234h-218q-36 0 -61.5 -26t-25.5 -62t25.5 -61.5t61.5 -25.5h218v175zM437 0h-237q-30 0 -56.5 11.5t-46.5 31.5t-31.5 46.5t-11.5 56.5t11.5 57t31.5 47t46.5 31.5t56.5 11.5h211q-8 29 -25.5 53.5t-40.5 42t-51.5 27.5t-59.5 10q-21 0 -38 -3.5t-32 -10.5
t-29.5 -17t-30.5 -23q-5 -4 -9 -6t-12 -2q-12 0 -20.5 8.5t-8.5 20.5t9 21q14 17 34.5 30t43.5 22t47 14t46 5q67 0 124 -34t89 -93q32 59 89.5 93t123.5 34q48 0 91 -16t75.5 -45t52.5 -69.5t23 -88.5v-3q1 -12 -8 -20.5t-22 -8.5h-395q1 -37 16 -69t40 -55.5t57.5 -37
t69.5 -13.5q43 0 70.5 14t59.5 40q5 4 9.5 6t11.5 2q12 0 20.5 -8.5t8.5 -20.5q0 -11 -8 -21q-15 -17 -35 -30t-43.5 -22t-47.5 -14t-46 -5q-28 0 -56.5 7t-54 20t-47 32.5t-35.5 44.5v-73q0 -13 -8 -22t-22 -9zM837 293q-17 60 -65.5 96.5t-111.5 36.5q-31 0 -59 -10
t-51.5 -27.5t-40.5 -42t-25 -53.5h353z" />
  </g>

</svg>
