<?xml version="1.0" standalone="no"?>
<!DOCTYPE svg PUBLIC "-//W3C//DTD SVG 1.1//EN" "http://www.w3.org/Graphics/SVG/1.1/DTD/svg11.dtd" >
<svg xmlns="http://www.w3.org/2000/svg" xmlns:xlink="http://www.w3.org/1999/xlink" version="1.1" viewBox="-10 0 603 1000">
  <g transform="matrix(1 0 0 -1 0 800)">
   <path fill="currentColor"
d="M539 29q0 -12 -8.5 -20.5t-20.5 -8.5h-213q-50 0 -94.5 19t-77.5 52t-52 77t-19 94q0 51 19.5 96t55.5 80q37 35 82.5 52t96.5 15q49 -2 91 -22.5t73 -54t49 -78t18 -94.5q0 -24 -9 -45t-25 -37t-37 -25t-45 -9h-34q-20 0 -27 19q-30 -19 -65 -19q-26 0 -48 9.5t-39 26
t-26.5 39t-9.5 47.5t9.5 47.5t26.5 39.5t39 26.5t48 9.5q35 0 65 -19q7 19 27 19q13 0 21.5 -8.5t8.5 -21.5v-156h4q23 0 40 17t17 40q0 38 -13.5 72t-37 59.5t-55.5 41t-69 17.5q-79 3 -135 -51q-57 -54 -57 -133q0 -38 14.5 -71.5t39.5 -58t58.5 -39t71.5 -14.5h213
q12 0 20.5 -8.5t8.5 -21.5zM360 242q0 26 -18.5 45t-44.5 19t-45 -19t-19 -45t19 -44.5t45 -18.5t44.5 18.5t18.5 44.5z" />
  </g>

</svg>
