<?xml version="1.0" standalone="no"?>
<!DOCTYPE svg PUBLIC "-//W3C//DTD SVG 1.1//EN" "http://www.w3.org/Graphics/SVG/1.1/DTD/svg11.dtd" >
<svg xmlns="http://www.w3.org/2000/svg" xmlns:xlink="http://www.w3.org/1999/xlink" version="1.1" viewBox="-10 0 575 1000">
  <g transform="matrix(1 0 0 -1 0 800)">
   <path fill="currentColor"
d="M489 206q0 -39 -14 -74t-38 -62t-56.5 -45t-69.5 -23v-83q0 -12 -8.5 -20.5t-20.5 -8.5t-20.5 8.5t-8.5 20.5v83q-38 5 -70 23t-56 45.5t-37.5 62t-13.5 73.5q0 12 8.5 21t21.5 9q12 0 20.5 -9t8.5 -21q0 -27 9 -51t25 -43t37.5 -32t46.5 -18v300q-35 12 -66.5 29
t-56.5 41t-39.5 55.5t-14.5 72.5q0 39 13.5 74t37.5 62t56 45t70 23v82q0 12 8.5 20.5t20.5 8.5t20.5 -8.5t8.5 -20.5v-82q37 -5 69.5 -23t56.5 -45t38 -62t14 -74q0 -12 -9 -20.5t-21 -8.5t-20.5 8.5t-8.5 20.5q0 54 -34 94t-85 51v-301q36 -12 68.5 -28t56.5 -39.5
t38.5 -55t14.5 -75.5zM253 425v279q-25 -5 -46.5 -18t-37.5 -32t-25 -43t-9 -51t10 -48t26.5 -37.5t37.5 -28.5t44 -21zM430 206q0 30 -9.5 51.5t-26 37.5t-38 27t-45.5 20v-280q25 5 47 18t38 32t25 43t9 51z" />
  </g>

</svg>
