<?xml version="1.0" standalone="no"?>
<!DOCTYPE svg PUBLIC "-//W3C//DTD SVG 1.1//EN" "http://www.w3.org/Graphics/SVG/1.1/DTD/svg11.dtd" >
<svg xmlns="http://www.w3.org/2000/svg" xmlns:xlink="http://www.w3.org/1999/xlink" version="1.1" viewBox="-10 0 394 1000">
  <g transform="matrix(1 0 0 -1 0 800)">
   <path fill="currentColor"
d="M368 456q0 -13 -8.5 -21.5t-20.5 -8.5h-144v-397q0 -12 -8.5 -20.5t-20.5 -8.5q-13 0 -21.5 8.5t-8.5 20.5v397h-75q-12 0 -20.5 8.5t-8.5 21.5q0 12 8.5 20.5t20.5 8.5h75v158q0 24 9 45t25 37t37 25t45 9t45 -9t37 -25t25 -37t9 -45q0 -12 -8.5 -20.5t-20.5 -8.5
t-20.5 8.5t-8.5 20.5q0 24 -17 41t-41 17q-23 0 -40 -17t-17 -41v-158h144q12 0 20.5 -8.5t8.5 -20.5z" />
  </g>

</svg>
