<?xml version="1.0" standalone="no"?>
<!DOCTYPE svg PUBLIC "-//W3C//DTD SVG 1.1//EN" "http://www.w3.org/Graphics/SVG/1.1/DTD/svg11.dtd" >
<svg xmlns="http://www.w3.org/2000/svg" xmlns:xlink="http://www.w3.org/1999/xlink" version="1.1" viewBox="-10 0 642 1000">
  <g transform="matrix(1 0 0 -1 0 800)">
   <path fill="currentColor"
d="M578 538q0 -13 -8.5 -21.5t-20.5 -8.5h-78q-31 0 -55 -20t-30 -51l-15 -81h125q12 0 20.5 -8.5t8.5 -20.5t-8.5 -20.5t-20.5 -8.5h-136l-45 -245q-8 -42 -29 -77.5t-52 -61t-69.5 -40t-81.5 -14.5q-12 0 -20.5 8.5t-8.5 20.5t8.5 20.5t20.5 8.5q32 0 61 11t52.5 30
t39 45.5t21.5 58.5l44 235h-30q-12 0 -20.5 8.5t-8.5 20.5t8.5 20.5t20.5 8.5h41l16 92q10 52 50 85.5t93 33.5h78q12 0 20.5 -8.5t8.5 -20.5z" />
  </g>

</svg>
