<?xml version="1.0" standalone="no"?>
<!DOCTYPE svg PUBLIC "-//W3C//DTD SVG 1.1//EN" "http://www.w3.org/Graphics/SVG/1.1/DTD/svg11.dtd" >
<svg xmlns="http://www.w3.org/2000/svg" xmlns:xlink="http://www.w3.org/1999/xlink" version="1.1" viewBox="-10 0 647 1000">
  <g transform="matrix(1 0 0 -1 0 800)">
   <path fill="currentColor"
d="M539 28q0 -50 -19 -94.5t-52 -77.5t-77 -52t-94 -19q-63 0 -120 32t-89 86q-4 10 -4 15q0 12 9 21t21 9q9 0 14.5 -4t10.5 -11t9.5 -13.5t10.5 -13.5q26 -30 62.5 -46t75.5 -16q38 0 71.5 14.5t58 39.5t39 58.5t14.5 71.5v57q-35 -41 -82.5 -63t-100.5 -22
q-50 0 -94.5 19t-77.5 52t-52 77.5t-19 94.5t19 94t52 77t77.5 52t94.5 19q53 0 100.5 -22t82.5 -63v56q0 12 9 20.5t21 8.5t20.5 -8.5t8.5 -20.5v-428zM480 243q0 38 -14.5 71.5t-39 58t-58 39t-71.5 14.5t-71.5 -14.5t-58.5 -39t-39.5 -58t-14.5 -71.5t14.5 -71.5
t39.5 -58.5t58.5 -39.5t71.5 -14.5t71.5 14.5t58 39.5t39 58.5t14.5 71.5z" />
  </g>

</svg>
