<?xml version="1.0" standalone="no"?>
<!DOCTYPE svg PUBLIC "-//W3C//DTD SVG 1.1//EN" "http://www.w3.org/Graphics/SVG/1.1/DTD/svg11.dtd" >
<svg xmlns="http://www.w3.org/2000/svg" xmlns:xlink="http://www.w3.org/1999/xlink" version="1.1" viewBox="-10 0 288 1000">
  <g transform="matrix(1 0 0 -1 0 800)">
   <path fill="currentColor"
d="M178 602q0 -12 -8.5 -20.5t-20.5 -8.5q-11 0 -21 8l-89 90q-9 9 -9 21t8.5 20.5t20.5 8.5q11 0 21 -8l90 -90q8 -10 8 -21zM184 29q0 -12 -8.5 -20.5t-20.5 -8.5t-21 8.5t-9 20.5v427q0 12 9 20.5t21 8.5t20.5 -8.5t8.5 -20.5v-427z" />
  </g>

</svg>
