<?xml version="1.0" standalone="no"?>
<!DOCTYPE svg PUBLIC "-//W3C//DTD SVG 1.1//EN" "http://www.w3.org/Graphics/SVG/1.1/DTD/svg11.dtd" >
<svg xmlns="http://www.w3.org/2000/svg" xmlns:xlink="http://www.w3.org/1999/xlink" version="1.1" viewBox="-10 0 1190 1000">
  <g transform="matrix(1 0 0 -1 0 800)">
   <path fill="currentColor"
d="M590 192q-17 -25 -45 -58t-65.5 -63t-82.5 -50.5t-97 -20.5q-51 0 -96 19.5t-78 52.5t-52.5 78t-19.5 96t19.5 96t52.5 78t78 52.5t96 19.5q52 0 97 -20.5t82.5 -50.5t65.5 -63t45 -58q17 25 45 58t65.5 63t82.5 50.5t97 20.5q51 0 96 -19.5t78 -52.5t52.5 -78t19.5 -96
t-19.5 -96t-52.5 -78t-78 -52.5t-96 -19.5q-52 0 -97 20.5t-82.5 50.5t-65.5 63t-45 58zM1067 246q0 39 -14.5 73t-40 59.5t-59.5 40t-73 14.5q-47 0 -89 -23t-75 -53.5t-57 -62t-35 -48.5q11 -17 35 -48.5t57.5 -62.5t75 -53.5t88.5 -22.5q39 0 73 14.5t59.5 40t40 59.5
t14.5 73zM556 246q-11 17 -35 48.5t-57.5 62t-75 53.5t-88.5 23q-39 0 -73 -14.5t-59.5 -40t-40 -59.5t-14.5 -73t14.5 -73t40 -59.5t59.5 -40t73 -14.5q47 0 88.5 22.5t75 53.5t57.5 62.5t35 48.5z" />
  </g>

</svg>
