<?xml version="1.0" standalone="no"?>
<!DOCTYPE svg PUBLIC "-//W3C//DTD SVG 1.1//EN" "http://www.w3.org/Graphics/SVG/1.1/DTD/svg11.dtd" >
<svg xmlns="http://www.w3.org/2000/svg" xmlns:xlink="http://www.w3.org/1999/xlink" version="1.1" viewBox="-10 0 467 1000">
  <g transform="matrix(1 0 0 -1 0 800)">
   <path fill="currentColor"
d="M425 458q0 -12 -9 -21l-202 -193l202 -194q9 -8 9 -21q0 -12 -8.5 -20.5t-20.5 -8.5t-20 8l-220 210v-189q0 -12 -8.5 -20.5t-20.5 -8.5t-20.5 8.5t-8.5 20.5v701q0 12 8.5 20.5t20.5 8.5t20.5 -8.5t8.5 -20.5v-461l220 210q8 8 20 8t20.5 -8.5t8.5 -20.5z" />
  </g>

</svg>
