<?xml version="1.0" standalone="no"?>
<!DOCTYPE svg PUBLIC "-//W3C//DTD SVG 1.1//EN" "http://www.w3.org/Graphics/SVG/1.1/DTD/svg11.dtd" >
<svg xmlns="http://www.w3.org/2000/svg" xmlns:xlink="http://www.w3.org/1999/xlink" version="1.1" viewBox="-10 0 446 1000">
  <g transform="matrix(1 0 0 -1 0 800)">
   <path fill="currentColor"
d="M384 29q0 -12 -8.5 -20.5t-21.5 -8.5h-262q-12 0 -20.5 8.5t-8.5 20.5q0 13 8.5 21.5t20.5 8.5h100v618l-94 -67q-10 -7 -21.5 -5t-19.5 12q-7 11 -5 22.5t12 18.5l141 99q7 5 15 5.5t15 -3.5q16 -8 16 -26v-674h103q13 0 21.5 -8.5t8.5 -21.5z" />
  </g>

</svg>
