<?xml version="1.0" standalone="no"?>
<!DOCTYPE svg PUBLIC "-//W3C//DTD SVG 1.1//EN" "http://www.w3.org/Graphics/SVG/1.1/DTD/svg11.dtd" >
<svg xmlns="http://www.w3.org/2000/svg" xmlns:xlink="http://www.w3.org/1999/xlink" version="1.1" viewBox="-10 0 817 1000">
  <g transform="matrix(1 0 0 -1 0 800)">
   <path fill="currentColor"
d="M753 29q0 -12 -8.5 -20.5t-20.5 -8.5h-618q-20 0 -28 19q-7 19 8 32l359 332l-359 332q-15 13 -8 32q8 19 28 19h618q12 0 20.5 -8.5t8.5 -20.5t-8.5 -21t-20.5 -9h-543l328 -302q9 -9 9 -22t-9 -22l-328 -302h543q12 0 20.5 -8.5t8.5 -21.5z" />
  </g>

</svg>
