<?xml version="1.0" standalone="no"?>
<!DOCTYPE svg PUBLIC "-//W3C//DTD SVG 1.1//EN" "http://www.w3.org/Graphics/SVG/1.1/DTD/svg11.dtd" >
<svg xmlns="http://www.w3.org/2000/svg" xmlns:xlink="http://www.w3.org/1999/xlink" version="1.1" viewBox="-10 0 467 1000">
  <g transform="matrix(1 0 0 -1 0 800)">
   <path fill="currentColor"
d="M435 456q0 -5 -2 -11l-167 -414l-87 -213q-8 -18 -28 -18q-12 0 -20.5 8.5t-8.5 20.5q0 5 2 11l83 202l-163 403q-2 6 -2 11q0 12 8.5 20.5t20.5 8.5q20 0 28 -18l139 -357l140 357q3 8 11 13t16 5q12 0 21 -8.5t9 -20.5zM203.987 602q0 -12 8.5 -20.5
q8.49902 -8.5 20.498 -8.5q11 0 20.999 8l88.9951 90q8.99902 9 8.99902 21t-8.49902 20.5q-8.5 8.5 -20.499 8.5q-11 0 -20.999 -8l-89.9941 -90q-8 -10 -8 -21z" />
  </g>

</svg>
