<?xml version="1.0" standalone="no"?>
<!DOCTYPE svg PUBLIC "-//W3C//DTD SVG 1.1//EN" "http://www.w3.org/Graphics/SVG/1.1/DTD/svg11.dtd" >
<svg xmlns="http://www.w3.org/2000/svg" xmlns:xlink="http://www.w3.org/1999/xlink" version="1.1" viewBox="-10 0 576 1000">
  <g transform="matrix(1 0 0 -1 0 800)">
   <path fill="currentColor"
d="M386 -140q-22 19 -22 53q0 31 19 57.5t56 43.5h28q-24 -11 -37.5 -31t-13.5 -45q0 -24 14.5 -39t43.5 -15q36 0 70 29l12 -12q-25 -29 -55.5 -44.5t-62.5 -15.5q-30 0 -52 19zM431 0h-381v30l40 -3q18 0 18 22v499q0 9 -5.5 15.5t-14.5 5.5l-38 -2v30h422q14 0 17 1v-155
h-27q0 67 -33.5 96.5t-108.5 29.5h-107q-12 0 -12 -14v-230h94q34 0 55 27t21 74h27v-231h-27q0 44 -22.5 73t-53.5 29h-94v-256q0 -13 12 -13h140q68 0 103.5 39t35.5 112h27v-182q-22 3 -88 3z" />
  </g>

</svg>
