<?xml version="1.0" standalone="no"?>
<!DOCTYPE svg PUBLIC "-//W3C//DTD SVG 1.1//EN" "http://www.w3.org/Graphics/SVG/1.1/DTD/svg11.dtd" >
<svg xmlns="http://www.w3.org/2000/svg" xmlns:xlink="http://www.w3.org/1999/xlink" version="1.1" viewBox="-10 0 504 1000">
  <g transform="matrix(1 0 0 -1 0 800)">
   <path fill="currentColor"
d="M165 3q-52 15 -79 15q-9 0 -19 -2l-15 -3q4 21 4 83q0 81 -8 107h25q23 -185 184 -185q50 0 80 33.5t30 86.5q0 76 -99 116l-102 41q-109 44 -110 146q0 44 21 82.5t63 61t101 22.5q32 0 54.5 -5.5t44.5 -13t30 -10.5q16 -6 27 -6q18 0 29 4q-3 -24 -3 -75q0 -30 1 -43
t5 -24h-26q0 65 -42.5 105.5t-106.5 40.5q-52 0 -84 -28.5t-32 -79.5q0 -33 23 -59.5t63 -42.5l92 -37q76 -31 108.5 -68.5t32.5 -96.5q0 -52 -25.5 -92.5t-69 -63t-94.5 -22.5q-59 0 -103 13zM94 674q0 3 7.5 10t17.5 15q35 30 54 50l23 24l24 24q27 25 30 25t30 -25
l24 -24l23 -24q19 -20 54 -50q10 -8 17.5 -15t7.5 -10q0 -8 -9 -8t-28 12l-119 74l-119 -74q-19 -12 -28 -12t-9 8z" />
  </g>

</svg>
