<?xml version="1.0" standalone="no"?>
<!DOCTYPE svg PUBLIC "-//W3C//DTD SVG 1.1//EN" "http://www.w3.org/Graphics/SVG/1.1/DTD/svg11.dtd" >
<svg xmlns="http://www.w3.org/2000/svg" xmlns:xlink="http://www.w3.org/1999/xlink" version="1.1" viewBox="-10 0 645 1000">
  <g transform="matrix(1 0 0 -1 0 800)">
   <path fill="currentColor"
d="M625 28l-1 -27h-167l-46 60q-67 -70 -180 -70q-114 0 -156.5 46.5t-42.5 100.5q0 64 39.5 113t129.5 86q-28 36 -46 72t-18 78q0 51 36.5 85t100.5 34q61 0 92.5 -29.5t31.5 -74.5q0 -41 -26 -82t-73 -67l142 -187q20 54 20 119q0 19 -4 23t-13 4l-43 -2v30h150v-29
l-40 1q-8 0 -12.5 -3t-5.5 -16q-4 -85 -32 -152l75 -99q14 -17 33 -16zM234.5 555.5q-18.5 -19.5 -18.5 -54.5q0 -31 17.5 -59t50.5 -69q37 17 60.5 54t23.5 74q0 32 -20.5 53t-62.5 21q-32 0 -50.5 -19.5zM329 37.5q36 16.5 64 47.5l-177 232q-45 -25 -70 -62.5t-25 -102.5
q0 -61 36.5 -96t95.5 -35q40 0 76 16.5z" />
  </g>

</svg>
