<?xml version="1.0" standalone="no"?>
<!DOCTYPE svg PUBLIC "-//W3C//DTD SVG 1.1//EN" "http://www.w3.org/Graphics/SVG/1.1/DTD/svg11.dtd" >
<svg xmlns="http://www.w3.org/2000/svg" xmlns:xlink="http://www.w3.org/1999/xlink" version="1.1" viewBox="-10 0 351 1000">
  <g transform="matrix(1 0 0 -1 0 800)">
   <path fill="currentColor"
d="M76.5 699.5q-34.5 33.5 -41.5 90.5h38q8 -32 31 -53t66 -21q41 0 65.5 21.5t32.5 52.5h38q-7 -57 -42 -90.5t-94 -33.5t-93.5 33.5zM161 853q-59 21 -81 21q-14 0 -23.5 -12t-9.5 -30h-20q0 37 18.5 64t45.5 27q24 0 88 -22q61 -21 81 -21q14 0 23.5 12t9.5 30h20
q0 -37 -18.5 -63.5t-45.5 -27.5q-24 -1 -88 22z" />
  </g>

</svg>
