<?xml version="1.0" standalone="no"?>
<!DOCTYPE svg PUBLIC "-//W3C//DTD SVG 1.1//EN" "http://www.w3.org/Graphics/SVG/1.1/DTD/svg11.dtd" >
<svg xmlns="http://www.w3.org/2000/svg" xmlns:xlink="http://www.w3.org/1999/xlink" version="1.1" viewBox="-10 0 435 1000">
  <g transform="matrix(1 0 0 -1 0 800)">
   <path fill="currentColor"
d="M89.5 47.5q-53.5 57.5 -53.5 158.5q0 100 53 162t143 62q41 0 76.5 -13.5t57 -37t21.5 -51.5q0 -21 -11.5 -35.5t-36.5 -14.5q-35 0 -35 30q0 8 4 20q5 12 5 23q0 25 -23 38.5t-55 13.5q-52 0 -79 -42t-27 -144q0 -101 28 -150.5t85 -49.5q50 0 87 26t53 75l25 -12
q-42 -116 -170 -116q-94 0 -147.5 57.5zM79 501q0 3 7.5 10t17.5 15q35 30 54 50l23 24l24 24q27 25 30 25t30 -25l24 -24l23 -24q19 -20 54 -50q10 -8 17.5 -15t7.5 -10q0 -8 -9 -8t-28 12l-119 74l-119 -74q-19 -12 -28 -12t-9 8z" />
  </g>

</svg>
