<?xml version="1.0" standalone="no"?>
<!DOCTYPE svg PUBLIC "-//W3C//DTD SVG 1.1//EN" "http://www.w3.org/Graphics/SVG/1.1/DTD/svg11.dtd" >
<svg xmlns="http://www.w3.org/2000/svg" xmlns:xlink="http://www.w3.org/1999/xlink" version="1.1" viewBox="-10 0 392 1000">
  <g transform="matrix(1 0 0 -1 0 800)">
   <path fill="currentColor"
d="M35 501q0 3 7.5 10t17.5 15q35 30 54 50l23 24l24 24q27 25 30 25t30 -25l24 -24l23 -24q19 -20 54 -50q10 -8 17.5 -15t7.5 -10q0 -8 -9 -8t-28 12l-119 74l-119 -74q-19 -12 -28 -12t-9 8zM188 700q-59 21 -81 21q-14 0 -23.5 -12t-9.5 -30h-20q0 37 18.5 64t45.5 27
q24 0 88 -22q61 -21 81 -21q14 0 23.5 12t9.5 30h20q0 -37 -18.5 -63.5t-45.5 -27.5q-24 -1 -88 22z" />
  </g>

</svg>
