<?xml version="1.0" standalone="no"?>
<!DOCTYPE svg PUBLIC "-//W3C//DTD SVG 1.1//EN" "http://www.w3.org/Graphics/SVG/1.1/DTD/svg11.dtd" >
<svg xmlns="http://www.w3.org/2000/svg" xmlns:xlink="http://www.w3.org/1999/xlink" version="1.1" viewBox="-10 0 538 1000">
  <g transform="matrix(1 0 0 -1 0 800)">
   <path fill="currentColor"
d="M225 -141q-14 11 -14 25q0 16 15 30q7 7 11 14t4 16q0 6 -5 30q-9 32 -7 37q0 27 11 61q-33 -1 -53 -7.5t-45 -19.5q-15 -8 -24.5 -11.5t-22.5 -3.5q-25 0 -42.5 14.5t-17.5 35.5q0 50 40 50q9 0 14.5 -4.5t12.5 -13.5q9 -11 15.5 -16t18.5 -5q11 0 35 4q22 3 33 3
q24 0 41 -8q-1 25 -7 39.5t-16 29.5q-5 7 -9 14.5t-4 15.5q0 23 18 55q-18 29 -18 55q0 8 4 15.5t9 14.5q10 15 16 29.5t7 39.5q-17 -8 -41 -8q-11 0 -33 3q-24 4 -35 4q-12 0 -18.5 -5t-15.5 -16q-7 -9 -12.5 -13.5t-14.5 -4.5q-40 0 -40 50q0 21 17.5 35.5t42.5 14.5
q13 0 22.5 -3.5t24.5 -11.5q25 -12 45 -19t53 -8q-11 35 -11 61q1 17 7 39q5 18 5 28q0 9 -4 16t-11 14q-7 8 -11 14.5t-4 15.5q0 14 14 25t34 11t34 -11t14 -25q0 -15 -15 -30q-8 -9 -11.5 -15t-3.5 -15q0 -7 6 -33q6 -24 6 -34q0 -27 -11 -61q34 1 54 7.5t42 18.5
q14 8 24.5 12t24.5 4q25 0 42.5 -14.5t17.5 -35.5q0 -50 -40 -50q-9 0 -14.5 4t-12.5 14q-9 11 -15.5 16t-18.5 5q-11 0 -35 -4q-22 -3 -33 -3q-24 0 -41 8q1 -24 6.5 -38.5t16.5 -30.5q13 -17 13 -30q0 -22 -19 -55q19 -33 19 -55q0 -13 -13 -30q-11 -16 -16.5 -30.5
t-6.5 -38.5q17 8 41 8q11 0 33 -3q24 -4 35 -4q12 0 18.5 5t15.5 16q7 10 12.5 14t14.5 4q40 0 40 -50q0 -21 -17.5 -35.5t-42.5 -14.5q-14 0 -24.5 4t-24.5 12q-22 12 -42 18.5t-54 7.5q11 -34 11 -61q0 -10 -6 -34q-6 -26 -6 -33q0 -9 3.5 -15t11.5 -15q15 -15 15 -30
q0 -14 -14 -25t-34 -11t-34 11z" />
  </g>

</svg>
