<?xml version="1.0" standalone="no"?>
<!DOCTYPE svg PUBLIC "-//W3C//DTD SVG 1.1//EN" "http://www.w3.org/Graphics/SVG/1.1/DTD/svg11.dtd" >
<svg xmlns="http://www.w3.org/2000/svg" xmlns:xlink="http://www.w3.org/1999/xlink" version="1.1" viewBox="-10 0 383 1000">
  <g transform="matrix(1 0 0 -1 0 800)">
   <path fill="currentColor"
d="M160 833l-109 72q-9 6 -9 12t18 15t34 9q9 0 14 -3.5t19 -19.5l64 -70q17 -18 17 -23q0 -7 -15 -7q-11 0 -33 15zM50 709.5q-15 13.5 -15 34.5t16 35t38 14q23 0 38.5 -14t15.5 -35t-15 -34.5t-39 -13.5t-39 13.5zM245 709.5q-15 13.5 -15 34.5t16 35t38 14
q23 0 38.5 -14t15.5 -35t-15 -34.5t-39 -13.5t-39 13.5z" />
  </g>

</svg>
