<?xml version="1.0" standalone="no"?>
<!DOCTYPE svg PUBLIC "-//W3C//DTD SVG 1.1//EN" "http://www.w3.org/Graphics/SVG/1.1/DTD/svg11.dtd" >
<svg xmlns="http://www.w3.org/2000/svg" xmlns:xlink="http://www.w3.org/1999/xlink" version="1.1" viewBox="-10 0 535 1000">
  <g transform="matrix(1 0 0 -1 0 800)">
   <path fill="currentColor"
d="M72 24q13 3 13 19v333q0 17 -13 20l-37 -2v26h141q-5 -15 -5 -35v-55q21 47 60 73.5t90 26.5q71 0 102.5 -33.5t31.5 -108.5v-245h-86v227q0 69 -12.5 98.5t-54.5 29.5q-57 0 -92.5 -48.5t-38.5 -130.5v-176q0 -19 13 -19l46 2v-26h-195v26zM238.5 -223.5
q-27.5 19.5 -27.5 47.5q0 20 13 32t34 12q12 0 23.5 -6t11.5 -22q0 -5 -3 -16t-3 -15q0 -25 31 -25q57 0 53 83q-2 43 -2 74v259h86v-204q0 -239 -143 -239q-46 0 -73.5 19.5z" />
  </g>

</svg>
