<?xml version="1.0" standalone="no"?>
<!DOCTYPE svg PUBLIC "-//W3C//DTD SVG 1.1//EN" "http://www.w3.org/Graphics/SVG/1.1/DTD/svg11.dtd" >
<svg xmlns="http://www.w3.org/2000/svg" xmlns:xlink="http://www.w3.org/1999/xlink" version="1.1" viewBox="-10 0 541 1000">
  <g transform="matrix(1 0 0 -1 0 800)">
   <path fill="currentColor"
d="M72 24q13 0 13 19v352h-39v25h39v66q0 250 171 250q62 0 114 -33v-39q-49 39 -110 39q-46 0 -71 -26t-25 -94q0 -34 3 -66q3 -58 3 -74v-23h107v-25h-106v-352q0 -19 13 -19l66 2v-26h-215v26zM348 24q13 3 13 19v660l86 27v-687q0 -19 13 -19l36 2v-26h-185v26z" />
  </g>

</svg>
