<?xml version="1.0" standalone="no"?>
<!DOCTYPE svg PUBLIC "-//W3C//DTD SVG 1.1//EN" "http://www.w3.org/Graphics/SVG/1.1/DTD/svg11.dtd" >
<svg xmlns="http://www.w3.org/2000/svg" xmlns:xlink="http://www.w3.org/1999/xlink" version="1.1" viewBox="-10 0 473 1000">
  <g transform="matrix(1 0 0 -1 0 800)">
   <path fill="currentColor"
d="M79.5 -211q-47.5 34 -47.5 99q0 77 90 117q-74 14 -74 66q0 19 10.5 32.5t36.5 34.5l27 22q-65 43 -65 120q0 67 47.5 108.5t122.5 41.5q83 0 127 -41t44 -109q0 -66 -47 -107.5t-124 -41.5q-42 0 -78 15q-34 -21 -34 -44q0 -37 56 -37h133q74 0 111.5 -32t37.5 -107
q0 -77 -65.5 -124t-172.5 -47q-88 0 -135.5 34zM342 -181q45 38 45 100q0 41 -23.5 61t-74.5 20h-100q-43 0 -75.5 -34t-32.5 -76q0 -49 33.5 -79t99.5 -30q83 0 128 38zM291.5 182.5q17.5 28.5 17.5 97.5q0 67 -18 95t-64 28t-63.5 -26.5t-17.5 -96.5q0 -63 14 -94.5
t67 -31.5q47 0 64.5 28.5zM361 413.5q22 8.5 22 34.5q0 11 -14.5 20t-14.5 25q0 39 41 39q45 0 45 -51q0 -82 -95 -93l-37 29q31 -12 53 -3.5zM133.5 551.5q-34.5 33.5 -41.5 90.5h28q8 -32 36 -53t71 -21q41 0 70.5 21.5t37.5 52.5h28q-7 -57 -42 -90.5t-94 -33.5
t-93.5 33.5z" />
  </g>

</svg>
