<?xml version="1.0" standalone="no"?>
<!DOCTYPE svg PUBLIC "-//W3C//DTD SVG 1.1//EN" "http://www.w3.org/Graphics/SVG/1.1/DTD/svg11.dtd" >
<svg xmlns="http://www.w3.org/2000/svg" xmlns:xlink="http://www.w3.org/1999/xlink" version="1.1" viewBox="-10 0 534 1000">
  <g transform="matrix(1 0 0 -1 0 800)">
   <path fill="currentColor"
d="M209.5 -223.5q-27.5 19.5 -27.5 47.5q0 20 13 32t34 12q12 0 23.5 -6t11.5 -22q0 -5 -3 -16t-3 -15q0 -25 31 -25q57 0 53 83q-2 43 -2 74v435q0 20 -13 20l-41 -2v26h140v-424q0 -239 -143 -239q-46 0 -73.5 19.5zM72 24q13 0 13 19v333q0 17 -12 20l-37 -2v26h135v-377
q0 -19 13 -19l36 2v-26h-185v26zM70 501q0 4 18 23l95 104q15 17 20.5 21t15.5 4q17 0 37 -10t20 -16t-10 -13l-163 -112q-12 -8 -20 -9q-13 0 -13 8zM308 501q0 4 18 23l95 104q15 17 20.5 21t15.5 4q17 0 37 -10t20 -16t-10 -13l-163 -112q-12 -8 -20 -9q-13 0 -13 8z" />
  </g>

</svg>
