<?xml version="1.0" standalone="no"?>
<!DOCTYPE svg PUBLIC "-//W3C//DTD SVG 1.1//EN" "http://www.w3.org/Graphics/SVG/1.1/DTD/svg11.dtd" >
<svg xmlns="http://www.w3.org/2000/svg" xmlns:xlink="http://www.w3.org/1999/xlink" version="1.1" viewBox="-10 0 500 1000">
  <g transform="matrix(1 0 0 -1 0 800)">
   <path fill="currentColor"
d="M326 -214q13 1 13 19v257q-11 -30 -41.5 -51t-75.5 -21q-103 0 -145 52.5t-42 166.5q0 221 189 221q42 0 68.5 -12.5t48.5 -42.5q5 -7 9 -10.5t11 -3.5q31 0 31 59h33v-615q0 -20 13 -19l32 1v-26h-200v26zM307 66q30 49 30 119v41q0 70 -24 123.5t-82 53.5
q-55 0 -79.5 -44.5t-24.5 -149.5q0 -110 21.5 -151t78.5 -41q50 0 80 49z" />
  </g>

</svg>
