<?xml version="1.0" standalone="no"?>
<!DOCTYPE svg PUBLIC "-//W3C//DTD SVG 1.1//EN" "http://www.w3.org/Graphics/SVG/1.1/DTD/svg11.dtd" >
<svg xmlns="http://www.w3.org/2000/svg" xmlns:xlink="http://www.w3.org/1999/xlink" version="1.1" viewBox="-10 0 410 1000">
  <g transform="matrix(1 0 0 -1 0 800)">
   <path fill="currentColor"
d="M148 284q-5 40 -5 63q0 25 21.5 46.5t57.5 50.5q47 38 58.5 69t11.5 60t-24.5 49.5t-71.5 20.5q-34 0 -58.5 -11t-24.5 -31q0 -6 4.5 -17t4.5 -18q0 -15 -10.5 -21.5t-25.5 -6.5q-24 0 -35.5 14t-11.5 33q0 40 51.5 62.5t121.5 22.5q78 0 124.5 -29t46.5 -80
q0 -38 -18.5 -71t-62.5 -63q-39 -27 -63.5 -46t-29.5 -53q-8 -52 -9 -121h-41q-6 37 -11 77zM135 4.5q-20 14.5 -20 40.5q0 25 18.5 42.5t46.5 17.5q26 0 45.5 -15t19.5 -42t-19 -42.5t-45 -15.5t-46 14.5z" />
  </g>

</svg>
