<?xml version="1.0" standalone="no"?>
<!DOCTYPE svg PUBLIC "-//W3C//DTD SVG 1.1//EN" "http://www.w3.org/Graphics/SVG/1.1/DTD/svg11.dtd" >
<svg xmlns="http://www.w3.org/2000/svg" xmlns:xlink="http://www.w3.org/1999/xlink" version="1.1" viewBox="-10 0 447 1000">
  <g transform="matrix(1 0 0 -1 0 800)">
   <path fill="currentColor"
d="M97.5 -110q-41.5 25 -41.5 67q0 26 15 41.5t37 15.5q17 0 29.5 -10t12.5 -27q0 -13 -11 -26q-9 -11 -9 -19q0 -19 27 -31.5t58 -12.5q37 0 63.5 20t26.5 55q0 26 -14.5 43.5t-43.5 37.5l-124 85q-47 32 -67.5 59t-20.5 66q0 81 91 113q-34 28 -49 53.5t-15 55.5
q0 59 48 95t127 36q66 0 107.5 -25t41.5 -67q0 -26 -15 -41.5t-37 -15.5q-17 0 -29.5 10t-12.5 27q0 13 11 26q9 11 9 19q0 19 -27 31.5t-58 12.5q-37 0 -63.5 -20t-26.5 -55q0 -26 14.5 -43.5t43.5 -37.5l124 -85q47 -32 67.5 -59t20.5 -66q0 -81 -91 -113q34 -28 49 -53.5
t15 -55.5q0 -59 -48 -95t-127 -36q-66 0 -107.5 25zM342 182q0 18 -9 32t-34 31l-152 105q-47 -26 -47 -60q0 -18 9 -32t34 -31l152 -105q47 21 47 60z" />
  </g>

</svg>
