<?xml version="1.0" standalone="no"?>
<!DOCTYPE svg PUBLIC "-//W3C//DTD SVG 1.1//EN" "http://www.w3.org/Graphics/SVG/1.1/DTD/svg11.dtd" >
<svg xmlns="http://www.w3.org/2000/svg" xmlns:xlink="http://www.w3.org/1999/xlink" version="1.1" viewBox="-10 0 504 1000">
  <g transform="matrix(1 0 0 -1 0 800)">
   <path fill="currentColor"
d="M56 -215q13 1 13 20v881q0 20 -13 20l-36 -2v26h135v-390q14 43 48 66.5t84 23.5q86 0 129 -56.5t43 -164.5q0 -110 -46.5 -164.5t-143.5 -54.5q-41 0 -70.5 13.5t-43.5 39.5v-238q0 -20 13 -20l62 2v-26h-206v26zM328.5 34.5q21.5 17.5 30.5 58.5t9 116t-7.5 116
t-27.5 59.5t-57 18.5q-56 0 -87.5 -48.5t-31.5 -128.5v-42q0 -167 112 -167q38 0 59.5 17.5z" />
  </g>

</svg>
