<?xml version="1.0" standalone="no"?>
<!DOCTYPE svg PUBLIC "-//W3C//DTD SVG 1.1//EN" "http://www.w3.org/Graphics/SVG/1.1/DTD/svg11.dtd" >
<svg xmlns="http://www.w3.org/2000/svg" xmlns:xlink="http://www.w3.org/1999/xlink" version="1.1" viewBox="-10 0 534 1000">
  <g transform="matrix(1 0 0 -1 0 800)">
   <path fill="currentColor"
d="M98.5 27q-29.5 37 -29.5 121v228q0 20 -13 20l-36 -2v26h135v-272q0 -68 12 -96.5t49 -28.5q57 0 94 43.5t42 119.5l1 189q0 21 -12 21l-47 -2v26h146v-377q0 -19 13 -19l36 2v-26h-142q5 12 5 72v13q-43 -95 -157 -95q-67 0 -96.5 37zM211 677l-22 22l-21 22
q-17 18 -49 45q-9 7 -15.5 13.5t-6.5 9.5q0 7 8 7t25 -11l108 -67l108 67q17 11 26 11q8 0 8 -7q0 -3 -7 -9.5t-16 -13.5q-32 -27 -49 -45l-21 -22l-22 -22q-24 -23 -27 -23q-2 0 -27 23zM102 560.5q-15 13.5 -15 34.5t15.5 35t38.5 14q22 0 38 -14t16 -35t-15 -34.5
t-39 -13.5t-39 13.5zM297 560.5q-15 13.5 -15 34.5t15.5 35t38.5 14q22 0 38 -14t16 -35t-15 -34.5t-39 -13.5t-39 13.5z" />
  </g>

</svg>
