<?xml version="1.0" standalone="no"?>
<!DOCTYPE svg PUBLIC "-//W3C//DTD SVG 1.1//EN" "http://www.w3.org/Graphics/SVG/1.1/DTD/svg11.dtd" >
<svg xmlns="http://www.w3.org/2000/svg" xmlns:xlink="http://www.w3.org/1999/xlink" version="1.1" viewBox="-357 0 357 1000">
  <g transform="matrix(1 0 0 -1 0 800)">
   <path fill="currentColor"
d="M-347 674q0 3 7.5 10t17.5 15q35 30 54 50l23 24l24 24q27 25 30 25t30 -25l24 -24l23 -24q19 -20 54 -50q10 -8 17.5 -15t7.5 -10q0 -8 -9 -8t-28 12l-119 74l-119 -74q-19 -12 -28 -12t-9 8zM-200 874l-109 72q-9 6 -9 12t18 15t34 9q9 0 14 -3.5t19 -19.5l64 -70
q17 -18 17 -23q0 -7 -15 -7q-11 0 -33 15z" />
  </g>

</svg>
