<?xml version="1.0" standalone="no"?>
<!DOCTYPE svg PUBLIC "-//W3C//DTD SVG 1.1//EN" "http://www.w3.org/Graphics/SVG/1.1/DTD/svg11.dtd" >
<svg xmlns="http://www.w3.org/2000/svg" xmlns:xlink="http://www.w3.org/1999/xlink" version="1.1" viewBox="-10 0 459 1000">
  <g transform="matrix(1 0 0 -1 0 800)">
   <path fill="currentColor"
d="M35 209q0 109 51 165t150 56q79 0 127.5 -50.5t50.5 -138.5v-29h-288q0 -91 31.5 -139.5t94.5 -49.5q50 0 84.5 25t50.5 62l23 -17q-20 -48 -67.5 -75.5t-104.5 -27.5q-203 0 -203 219zM324 244q5 7 5 26q0 68 -21.5 100.5t-71.5 32.5q-56 0 -82.5 -46t-26.5 -120h182
q10 0 15 7zM144 608.5q35 33.5 94 33.5t93.5 -33.5t41.5 -90.5h-38q-8 32 -31 53t-66 21q-41 0 -65.5 -21.5t-32.5 -52.5h-38q7 57 42 90.5z" />
  </g>

</svg>
