<?xml version="1.0" standalone="no"?>
<!DOCTYPE svg PUBLIC "-//W3C//DTD SVG 1.1//EN" "http://www.w3.org/Graphics/SVG/1.1/DTD/svg11.dtd" >
<svg xmlns="http://www.w3.org/2000/svg" xmlns:xlink="http://www.w3.org/1999/xlink" version="1.1" viewBox="-10 0 923 1000">
  <g transform="matrix(1 0 0 -1 0 800)">
   <path fill="currentColor"
d="M138 49q0 -22 19 -22l49 2v-29h-161v29l39 -2q20 0 20 22v499q0 9 -5.5 15.5t-14.5 5.5l-39 -2v30h155l325 -442v394q0 20 -17 20h-3l-49 -2v30h161v-30l-39 2h-2q-17 0 -17 -21v-554h-30l-391 531v-476zM616.5 -223.5q-27.5 19.5 -27.5 47.5q0 20 13 32t34 12
q12 0 23.5 -6t11.5 -22q0 -5 -3 -16t-3 -15q0 -25 31 -25q57 0 53 83q-2 43 -2 74v435q0 20 -13 20l-41 -2v26h140v-424q0 -239 -143 -239q-46 0 -73.5 19.5zM745.5 560.5q-14.5 12.5 -14.5 35.5q0 22 15 34.5t39 12.5t39.5 -13t15.5 -34q0 -23 -15.5 -35.5t-39.5 -12.5
q-25 0 -39.5 12.5z" />
  </g>

</svg>
