<?xml version="1.0" standalone="no"?>
<!DOCTYPE svg PUBLIC "-//W3C//DTD SVG 1.1//EN" "http://www.w3.org/Graphics/SVG/1.1/DTD/svg11.dtd" >
<svg xmlns="http://www.w3.org/2000/svg" xmlns:xlink="http://www.w3.org/1999/xlink" version="1.1" viewBox="-10 0 482 1000">
  <g transform="matrix(1 0 0 -1 0 800)">
   <path fill="currentColor"
d="M86 48.5q-51 58.5 -51 162.5q0 102 51 160.5t150 58.5q98 0 149.5 -57.5t51.5 -156.5q-3 -226 -204 -226q-96 0 -147 58.5zM320.5 62.5q25.5 45.5 25.5 146.5q0 102 -25.5 148t-84.5 46t-84.5 -46t-25.5 -148q0 -101 25.5 -146.5t84.5 -45.5t84.5 45.5zM80 501
q0 3 7.5 10t17.5 15q35 30 54 50l23 24l24 24q27 25 30 25t30 -25l24 -24l23 -24q19 -20 54 -50q10 -8 17.5 -15t7.5 -10q0 -8 -9 -8t-28 12l-119 74l-119 -74q-19 -12 -28 -12t-9 8zM200 -161.5q-15 13.5 -15 34.5t15.5 35t38.5 14q22 0 38 -14t16 -35t-15 -34.5t-39 -13.5
t-39 13.5z" />
  </g>

</svg>
