<?xml version="1.0" standalone="no"?>
<!DOCTYPE svg PUBLIC "-//W3C//DTD SVG 1.1//EN" "http://www.w3.org/Graphics/SVG/1.1/DTD/svg11.dtd" >
<svg xmlns="http://www.w3.org/2000/svg" xmlns:xlink="http://www.w3.org/1999/xlink" version="1.1" viewBox="-15 0 542 1000">
  <g transform="matrix(1 0 0 -1 0 800)">
   <path fill="currentColor"
d="M201 27q19 0 19 22v214l-173 287q-10 19 -24 19l-28 -2v30h221v-30l-53 2h-1q-11 0 -11 -10q0 -6 5 -14l137 -228l131 232q3 5 3 10q0 10 -10 10l-52 -2v30h152v-30l-30 2q-16 0 -28 -21l-146 -261v-239q0 -21 20 -21l48 2v-29h-229v29zM265 697q-59 21 -81 21
q-14 0 -23.5 -12t-9.5 -30h-20q0 37 18.5 64t45.5 27q24 0 88 -22q61 -21 81 -21q14 0 23.5 12t9.5 30h20q0 -37 -18.5 -64t-45.5 -27q-24 0 -88 22z" />
  </g>

</svg>
