<?xml version="1.0" standalone="no"?>
<!DOCTYPE svg PUBLIC "-//W3C//DTD SVG 1.1//EN" "http://www.w3.org/Graphics/SVG/1.1/DTD/svg11.dtd" >
<svg xmlns="http://www.w3.org/2000/svg" xmlns:xlink="http://www.w3.org/1999/xlink" version="1.1" viewBox="-10 0 460 1000">
  <g transform="matrix(1 0 0 -1 0 800)">
   <path fill="currentColor"
d="M59.5 18.5q-32.5 28.5 -32.5 84.5q0 77 64.5 113.5t202.5 36.5v63q0 47 -22 67t-71 20q-76 0 -76 -42q0 -8 4.5 -18.5t4.5 -19.5q0 -17 -11 -25.5t-28 -8.5q-21 0 -32.5 13t-11.5 34q0 42 44 68t118 26q167 0 167 -141v-246q0 -19 13 -19l37 2v-26h-142q4 20 4 37l2 39
q-40 -86 -139 -86q-63 0 -95.5 28.5zM260 65q31 39 34 97v64q-94 0 -135 -27t-41 -88q0 -90 67 -85q44 0 75 39zM127.5 551.5q-34.5 33.5 -41.5 90.5h38q8 -32 31 -53t66 -21q41 0 65.5 21.5t32.5 52.5h38q-7 -57 -42 -90.5t-94 -33.5t-93.5 33.5zM212 705q-59 21 -81 21
q-14 0 -23.5 -12t-9.5 -30h-20q0 37 18.5 64t45.5 27q24 0 88 -22q61 -21 81 -21q14 0 23.5 12t9.5 30h20q0 -37 -18.5 -64t-45.5 -27q-24 0 -88 22z" />
  </g>

</svg>
