<?xml version="1.0" standalone="no"?>
<!DOCTYPE svg PUBLIC "-//W3C//DTD SVG 1.1//EN" "http://www.w3.org/Graphics/SVG/1.1/DTD/svg11.dtd" >
<svg xmlns="http://www.w3.org/2000/svg" xmlns:xlink="http://www.w3.org/1999/xlink" version="1.1" viewBox="-10 0 484 1000">
  <g transform="matrix(1 0 0 -1 0 800)">
   <path fill="currentColor"
d="M412 438q0 17 -22 24t-22 28t13.5 32.5t32.5 11.5q23 0 36.5 -15t13.5 -38q0 -108 -106 -110l-10 27q64 0 64 40zM86 48.5q-51 58.5 -51 162.5q0 102 51 160.5t150 58.5q98 0 149.5 -57.5t51.5 -156.5q-3 -226 -204 -226q-96 0 -147 58.5zM320.5 62.5
q25.5 45.5 25.5 146.5q0 102 -25.5 148t-84.5 46t-84.5 -46t-25.5 -148q0 -101 25.5 -146.5t84.5 -45.5t84.5 45.5zM200 -161.5q-15 13.5 -15 34.5t15.5 35t38.5 14q22 0 38 -14t16 -35t-15 -34.5t-39 -13.5t-39 13.5z" />
  </g>

</svg>
