<?xml version="1.0" standalone="no"?>
<!DOCTYPE svg PUBLIC "-//W3C//DTD SVG 1.1//EN" "http://www.w3.org/Graphics/SVG/1.1/DTD/svg11.dtd" >
<svg xmlns="http://www.w3.org/2000/svg" xmlns:xlink="http://www.w3.org/1999/xlink" version="1.1" viewBox="-10 0 627 1000">
  <g transform="matrix(1 0 0 -1 0 800)">
   <path fill="currentColor"
d="M77 27q19 0 19 22v255h-58v23h58v221q0 10 -5 16t-14 5l-39 -2v30h220v-30l-49 2q-20 0 -20 -22v-220h41l174 206q17 20 17 27q0 9 -10 9l-42 -2v30h178v-30l-34 2q-16 1 -29 -5t-29 -24l-186 -213h298v-23h-220l194 -263q11 -14 24 -14q16 0 34 3v-30h-237v30l54 -3
q17 -1 17 11q0 7 -5 14l-187 252h-52v-255q0 -22 20 -22l49 2v-29h-220v29z" />
  </g>

</svg>
