<?xml version="1.0" standalone="no"?>
<!DOCTYPE svg PUBLIC "-//W3C//DTD SVG 1.1//EN" "http://www.w3.org/Graphics/SVG/1.1/DTD/svg11.dtd" >
<svg xmlns="http://www.w3.org/2000/svg" xmlns:xlink="http://www.w3.org/1999/xlink" version="1.1" viewBox="-10 0 733 1000">
  <g transform="matrix(1 0 0 -1 0 800)">
   <path fill="currentColor"
d="M205.5 31q-70.5 41 -111.5 111.5t-41 155.5q0 84 41 155t112 112.5t155 41.5t155 -41.5t112.5 -112.5t41.5 -155t-41.5 -155t-112.5 -112t-155 -41q-85 0 -155.5 41zM500 57q63 37 99.5 100.5t36.5 140.5t-36.5 141t-99.5 101t-140 37t-140 -37t-99 -101t-36 -141
t36 -140.5t99 -100.5t140 -37t140 37zM260 160q10 0 10 12v259q0 7 -2.5 9.5t-9.5 2.5l-20 -1v27h156q64 0 91.5 -22t27.5 -68q0 -44 -27.5 -70.5t-79.5 -26.5h-54v-110q0 -12 12 -12l27 1v-26h-153v26zM419.5 326q9.5 18 9.5 53q0 33 -11 48.5t-43 15.5h-16q-2 0 -4.5 -2
t-2.5 -5v-128h32q26 0 35.5 18z" />
  </g>

</svg>
