<?xml version="1.0" standalone="no"?>
<!DOCTYPE svg PUBLIC "-//W3C//DTD SVG 1.1//EN" "http://www.w3.org/Graphics/SVG/1.1/DTD/svg11.dtd" >
<svg xmlns="http://www.w3.org/2000/svg" xmlns:xlink="http://www.w3.org/1999/xlink" version="1.1" viewBox="-10 0 672 1000">
  <g transform="matrix(1 0 0 -1 0 800)">
   <path fill="currentColor"
d="M138 308v-259q0 -22 19 -22l49 2v-29h-161v29l39 -2q20 0 20 22v259h-59v23h59v217q0 9 -5.5 15.5t-14.5 5.5l-39 -2v30h155l195 -265h130v217q0 20 -17 20h-3l-49 -2v30h161v-30l-39 2h-2q-17 0 -17 -21v-217h58v-23h-58v-314h-30l-231 314h-160zM138 525v-194h143z
M413 308l112 -153v153h-112z" />
  </g>

</svg>
