<?xml version="1.0" standalone="no"?>
<!DOCTYPE svg PUBLIC "-//W3C//DTD SVG 1.1//EN" "http://www.w3.org/Graphics/SVG/1.1/DTD/svg11.dtd" >
<svg xmlns="http://www.w3.org/2000/svg" xmlns:xlink="http://www.w3.org/1999/xlink" version="1.1" viewBox="-10 0 487 1000">
  <g transform="matrix(1 0 0 -1 0 750)">
   <path fill="currentColor"
d="M293 429l16 135h-147l-10 -87q0 -3 -2 -3h-65q-30 0 -48.5 20.5t-15.5 49.5l21 152l1 4h355q28 0 44 -20.5t14 -46.5l-42 -339l-1 -2h-1h-116l-7 -65q-7 -29 -30 -48.5t-53 -19.5h-66h-1q8 69 17.5 136t17.5 134h119zM185 137q29 0 49 -20t20 -47q0 -29 -20 -49.5
t-49 -20.5t-48.5 20.5t-19.5 49.5q0 27 19.5 47t48.5 20z" />
  </g>

</svg>
