<?xml version="1.0" standalone="no"?>
<!DOCTYPE svg PUBLIC "-//W3C//DTD SVG 1.1//EN" "http://www.w3.org/Graphics/SVG/1.1/DTD/svg11.dtd" >
<svg xmlns="http://www.w3.org/2000/svg" xmlns:xlink="http://www.w3.org/1999/xlink" version="1.1" viewBox="-55 0 703 1000">
  <g transform="matrix(1 0 0 -1 0 800)">
   <path fill="currentColor"
d="M-40 23h55l399 675h43l62 -675h55l-5 -23h-186l5 23h94l-18 210h-293l-122 -210h94l-5 -23h-183zM185 257h277l-36 407h-3zM378 813q-14 0 -20 7.5t-6 17.5q0 4 0.5 7.5t2.5 8.5q4 8 11 13.5t19 5.5q14 0 20 -7.5t6 -17.5q0 -4 -0.5 -7.5t-2.5 -8.5q-4 -8 -11 -13.5
t-19 -5.5zM559 813q-14 0 -20 7.5t-6 17.5q0 4 0.5 7.5t2.5 8.5q4 8 11 13.5t19 5.5q14 0 20 -7.5t6 -17.5q0 -4 -0.5 -7.5t-2.5 -8.5q-4 -8 -11 -13.5t-19 -5.5z" />
  </g>

</svg>
