<?xml version="1.0" standalone="no"?>
<!DOCTYPE svg PUBLIC "-//W3C//DTD SVG 1.1//EN" "http://www.w3.org/Graphics/SVG/1.1/DTD/svg11.dtd" >
<svg xmlns="http://www.w3.org/2000/svg" xmlns:xlink="http://www.w3.org/1999/xlink" version="1.1" viewBox="-10 0 651 1000">
  <g transform="matrix(1 0 0 -1 0 800)">
   <path fill="currentColor"
d="M245 -203q-29 0 -47 11t-24 24l11 11q8 -12 24 -19t36 -7q18 0 32 6t23.5 15.5t14 20.5t4.5 21q0 18 -12 26.5t-40 10.5l-32 1l34 70q-91 4 -143 59t-52 170q0 50 9 106t27 111t46.5 105t67 88t88.5 60.5t112 22.5q59 0 100.5 -22t53.5 -64h3l19 74h31l-51 -205h-31
l17 69q3 13 3 23q0 24 -11 42.5t-30.5 31.5t-45.5 19.5t-56 6.5q-53 0 -98.5 -20.5t-81.5 -58t-63 -90.5t-43 -119q-10 -40 -15.5 -69.5t-8.5 -51t-4 -37t-1 -27.5q0 -197 179 -197q74 0 127 39t90 101l19 -10q-17 -31 -40 -59t-52 -49.5t-64.5 -34.5t-78.5 -14l-28 -58
l1 -3q8 2 16 3t16 1q24 0 39 -13.5t15 -34.5q0 -17 -8 -32.5t-22.5 -27.5t-33.5 -19t-41 -7z" />
  </g>

</svg>
