<?xml version="1.0" standalone="no"?>
<!DOCTYPE svg PUBLIC "-//W3C//DTD SVG 1.1//EN" "http://www.w3.org/Graphics/SVG/1.1/DTD/svg11.dtd" >
<svg xmlns="http://www.w3.org/2000/svg" xmlns:xlink="http://www.w3.org/1999/xlink" version="1.1" viewBox="-17 0 807 1000">
  <g transform="matrix(1 0 0 -1 0 800)">
   <path fill="currentColor"
d="M-2 23h78l162 652h-78l5 23h193l-5 -23h-78l-74 -299h385l74 299h-78l5 23h193l-5 -23h-78l-162 -652h78l-5 -23h-193l5 23h78l82 329h-385l-82 -329h78l-5 -23h-193zM363 789l151 136h32l91 -138l-14 -8l-97 116l-151 -116z" />
  </g>

</svg>
