<?xml version="1.0" standalone="no"?>
<!DOCTYPE svg PUBLIC "-//W3C//DTD SVG 1.1//EN" "http://www.w3.org/Graphics/SVG/1.1/DTD/svg11.dtd" >
<svg xmlns="http://www.w3.org/2000/svg" xmlns:xlink="http://www.w3.org/1999/xlink" version="1.1" viewBox="-10 0 603 1000">
  <g transform="matrix(1 0 0 -1 0 800)">
   <path fill="currentColor"
d="M235 -12q-29 0 -56.5 5.5t-50 16.5t-38 27t-21.5 37h-3l-19 -74h-31l53 213h31l-18 -73q-4 -16 -4 -28q0 -24 12 -42.5t33 -31t49.5 -19t61.5 -6.5q49 0 88.5 14t67.5 39t43 59t15 74q0 56 -29 85.5t-85 52.5l-67 27q-59 23 -90 61t-31 98q0 43 17.5 77.5t48 59
t71.5 37.5t88 13q28 0 54.5 -5.5t47.5 -16.5t36 -27t21 -37h3l19 74h31l-51 -203h-31l17 67q2 9 2.5 14.5t0.5 11.5q0 24 -11.5 42t-32 30.5t-48 18.5t-58.5 6q-47 0 -82 -13t-59 -34.5t-36 -49.5t-12 -59q0 -54 27.5 -84.5t80.5 -51.5l66 -26q69 -29 98.5 -67.5t29.5 -94.5
q0 -45 -17 -84.5t-49 -69t-78 -46.5t-105 -17zM372 776l122 159l28 -17l-137 -151z" />
  </g>

</svg>
