<?xml version="1.0" standalone="no"?>
<!DOCTYPE svg PUBLIC "-//W3C//DTD SVG 1.1//EN" "http://www.w3.org/Graphics/SVG/1.1/DTD/svg11.dtd" >
<svg xmlns="http://www.w3.org/2000/svg" xmlns:xlink="http://www.w3.org/1999/xlink" version="1.1" viewBox="-10 0 776 1000">
  <g transform="matrix(1 0 0 -1 0 800)">
   <path fill="currentColor"
d="M288 -12q-89 0 -136 37.5t-47 115.5q0 26 6 56t15 65l102 413h-78l5 23h193l-5 -23h-78l-104 -418q-9 -37 -14.5 -66.5t-5.5 -55.5q0 -57 35.5 -89t113.5 -32q53 0 92.5 13.5t69 43t50.5 75.5t38 112l103 417h-78l5 23h186l-5 -23h-78l-104 -417q-19 -78 -44.5 -129.5
t-59.5 -83t-78 -44.5t-99 -13zM403 813q-14 0 -20 7.5t-6 17.5q0 4 0.5 7.5t2.5 8.5q4 8 11 13.5t19 5.5q14 0 20 -7.5t6 -17.5q0 -4 -0.5 -7.5t-2.5 -8.5q-4 -8 -11 -13.5t-19 -5.5zM584 813q-14 0 -20 7.5t-6 17.5q0 4 0.5 7.5t2.5 8.5q4 8 11 13.5t19 5.5q14 0 20 -7.5
t6 -17.5q0 -4 -0.5 -7.5t-2.5 -8.5q-4 -8 -11 -13.5t-19 -5.5z" />
  </g>

</svg>
