<?xml version="1.0" standalone="no"?>
<!DOCTYPE svg PUBLIC "-//W3C//DTD SVG 1.1//EN" "http://www.w3.org/Graphics/SVG/1.1/DTD/svg11.dtd" >
<svg xmlns="http://www.w3.org/2000/svg" xmlns:xlink="http://www.w3.org/1999/xlink" version="1.1" viewBox="-10 0 816 1000">
  <g transform="matrix(1 0 0 -1 0 800)">
   <path fill="currentColor"
d="M288 -12q-89 0 -136 37.5t-47 115.5q0 26 6 56t15 65l102 413h-78l5 23h193l-5 -23h-78l-104 -418q-9 -37 -14.5 -66.5t-5.5 -55.5q0 -57 35.5 -89t113.5 -32q53 0 92.5 13.5t69 43t50.5 75.5t38 112l103 417h-78l5 23h166l28 112h32l-24 -99q-5 -16 -14.5 -24.5
t-28.5 -8.5h-55l-105 -420q-20 -78 -45.5 -129.5t-59 -83t-77.5 -44.5t-99 -13z" />
  </g>

</svg>
