<?xml version="1.0" standalone="no"?>
<!DOCTYPE svg PUBLIC "-//W3C//DTD SVG 1.1//EN" "http://www.w3.org/Graphics/SVG/1.1/DTD/svg11.dtd" >
<svg xmlns="http://www.w3.org/2000/svg" xmlns:xlink="http://www.w3.org/1999/xlink" version="1.1" viewBox="-10 0 776 1000">
  <g transform="matrix(1 0 0 -1 0 800)">
   <path fill="currentColor"
d="M288 -12q-89 0 -136 37.5t-47 115.5q0 26 6 56t15 65l102 413h-78l5 23h193l-5 -23h-78l-104 -418q-9 -37 -14.5 -66.5t-5.5 -55.5q0 -57 35.5 -89t113.5 -32q53 0 92.5 13.5t69 43t50.5 75.5t38 112l103 417h-78l5 23h186l-5 -23h-78l-104 -417q-19 -78 -44.5 -129.5
t-59.5 -83t-78 -44.5t-99 -13zM486 784q29 0 51 18.5t29 46.5q5 23 5 35q0 23 -15.5 37t-41.5 14q-29 0 -51 -18.5t-29 -46.5q-5 -23 -5 -35q0 -23 15.5 -37t41.5 -14zM483 764q-36 0 -58 20.5t-22 52.5q0 24 8.5 45.5t23.5 37.5t36 25.5t46 9.5q36 0 58 -20.5t22 -52.5
q0 -24 -8.5 -45.5t-23.5 -37.5t-36 -25.5t-46 -9.5z" />
  </g>

</svg>
