<?xml version="1.0" standalone="no"?>
<!DOCTYPE svg PUBLIC "-//W3C//DTD SVG 1.1//EN" "http://www.w3.org/Graphics/SVG/1.1/DTD/svg11.dtd" >
<svg xmlns="http://www.w3.org/2000/svg" xmlns:xlink="http://www.w3.org/1999/xlink" version="1.1" viewBox="-10 0 696 1000">
  <g transform="matrix(1 0 0 -1 0 800)">
   <path fill="currentColor"
d="M116 -12q-46 0 -67 27t-21 65q0 37 18.5 69.5t55.5 58t93 43t131 24.5q1 4 2.5 8.5t3.5 12.5t5.5 21t8.5 34q4 17 7 32.5t3 31.5q0 83 -91 83q-29 0 -57 -7.5t-48 -24.5v-4q11 -3 18.5 -11.5t7.5 -22.5q0 -15 -9.5 -24t-23.5 -9t-23 8t-9 25t12.5 33.5t33.5 29.5t48 21
t56 8q54 0 82 -24t30 -69v-11t-2 -13h5q26 51 69.5 84t94.5 33q20 0 39.5 -4.5t34.5 -15.5t24.5 -28.5t9.5 -44.5q0 -33 -16 -60t-52 -48t-93 -35.5t-139 -21.5q-4 -17 -10.5 -54t-6.5 -79q0 -23 3 -43.5t12 -36t24.5 -25t40.5 -9.5q48 0 96.5 39t88.5 114l16 -8
q-48 -94 -100 -133t-109 -39q-58 0 -81 35.5t-23 102.5q0 8 0.5 17.5t1.5 18.5h-5q-12 -29 -31.5 -59.5t-44.5 -56t-54 -42t-60 -16.5zM126 14q32 0 63.5 25t58 61t45.5 76.5t27 70.5l3 12q-69 -8 -118.5 -25.5t-81 -41.5t-46 -52t-14.5 -57t14 -49t49 -20zM362 278
q125 14 193.5 46.5t68.5 99.5q0 14 -3.5 27t-12.5 23.5t-23.5 17t-35.5 6.5q-60 0 -110.5 -54t-76.5 -166zM409 596l122 159l28 -17l-137 -151z" />
  </g>

</svg>
