<?xml version="1.0" standalone="no"?>
<!DOCTYPE svg PUBLIC "-//W3C//DTD SVG 1.1//EN" "http://www.w3.org/Graphics/SVG/1.1/DTD/svg11.dtd" >
<svg xmlns="http://www.w3.org/2000/svg" xmlns:xlink="http://www.w3.org/1999/xlink" version="1.1" viewBox="-10 0 439 1000">
  <g transform="matrix(1 0 0 -1 0 800)">
   <path fill="currentColor"
d="M163 -203q-29 0 -47 14.5t-18 43.5q0 42 32 75.5t84 65.5v3q-25 -11 -57 -11q-58 0 -84 35.5t-26 108.5q0 35 6 78t19 86t32.5 83.5t47 71.5t63 50t79.5 19q20 0 39 -4.5t34 -15.5t24.5 -28.5t9.5 -44.5q0 -33 -16.5 -60t-52.5 -48t-93 -35.5t-138 -21.5q-5 -20 -11 -56
t-6 -77q0 -23 3.5 -43.5t12.5 -36t24.5 -25t39.5 -9.5q48 0 96.5 39t88.5 114l16 -8q-23 -44 -44 -73t-44 -50q-27 -24 -53.5 -46.5t-47.5 -44t-34 -43t-13 -43.5q0 -21 11.5 -31t31.5 -10t33.5 8.5t24.5 17.5l11 -11q-14 -14 -33 -25.5t-45 -11.5zM105 278q62 7 110.5 18
t82.5 28.5t51.5 42t17.5 57.5q0 28 -16 51t-59 23q-59 0 -110 -53.5t-77 -166.5z" />
  </g>

</svg>
