<?xml version="1.0" standalone="no"?>
<!DOCTYPE svg PUBLIC "-//W3C//DTD SVG 1.1//EN" "http://www.w3.org/Graphics/SVG/1.1/DTD/svg11.dtd" >
<svg xmlns="http://www.w3.org/2000/svg" xmlns:xlink="http://www.w3.org/1999/xlink" version="1.1" viewBox="-10 0 512 1000">
  <g transform="matrix(1 0 0 -1 0 800)">
   <path fill="currentColor"
d="M186 -12q-71 0 -104 47t-33 122q0 54 16.5 116.5t49 116.5t81 89.5t113.5 35.5q43 0 70 -22t35 -62l5 1q-5 55 -29 114t-61 109l-108 -76l-13 19l107 75q-19 23 -40 43t-42 32h38q15 -11 33 -27t32 -33l102 72l13 -19l-100 -71q45 -58 73 -132.5t28 -155.5
q0 -45 -7.5 -91.5t-22.5 -90.5t-37.5 -82.5t-52 -67.5t-66 -45.5t-80.5 -16.5zM188 11q41 0 74.5 18.5t59 50t44 72.5t29.5 86q6 24 9.5 41t5.5 30.5t2.5 24.5t0.5 22q0 30 -5.5 55t-17.5 43.5t-32 28.5t-49 10q-41 0 -74.5 -18.5t-59 -50t-44 -72.5t-29.5 -86
q-12 -47 -15 -71.5t-3 -46.5q0 -30 5.5 -55t17.5 -43.5t32 -28.5t49 -10z" />
  </g>

</svg>
