<?xml version="1.0" standalone="no"?>
<!DOCTYPE svg PUBLIC "-//W3C//DTD SVG 1.1//EN" "http://www.w3.org/Graphics/SVG/1.1/DTD/svg11.dtd" >
<svg xmlns="http://www.w3.org/2000/svg" xmlns:xlink="http://www.w3.org/1999/xlink" version="1.1" viewBox="-10 0 388 1000">
  <g transform="matrix(1 0 0 -1 0 800)">
   <path fill="currentColor"
d="M97 -12q-14 0 -24.5 7.5t-10.5 24.5q0 13 5 33l106 429h-86l4 17l126 17l-123 -493l18 -8l130 114l11 -11l-84 -83q-29 -29 -43.5 -38t-28.5 -9zM209 600q-26 0 -43.5 9t-28.5 25.5t-18 39t-13 49.5l15 6l9 -30q14 -42 31.5 -56.5t51.5 -14.5t60 15t58 57l23 29l14 -7
q-19 -27 -36 -49.5t-35.5 -38.5t-39.5 -25t-48 -9z" />
  </g>

</svg>
