<?xml version="1.0" standalone="no"?>
<!DOCTYPE svg PUBLIC "-//W3C//DTD SVG 1.1//EN" "http://www.w3.org/Graphics/SVG/1.1/DTD/svg11.dtd" >
<svg xmlns="http://www.w3.org/2000/svg" xmlns:xlink="http://www.w3.org/1999/xlink" version="1.1" viewBox="-80 0 586 1000">
  <g transform="matrix(1 0 0 -1 0 800)">
   <path fill="currentColor"
d="M-64 -177h72l165 659h-86l4 17l126 17l-56 -218l6 -2q15 35 34.5 74.5t44.5 72.5t54.5 55t65.5 22q27 0 44.5 -10.5t28 -28.5t15 -42.5t4.5 -51.5q0 -66 -16.5 -136.5t-49.5 -129t-81 -96t-111 -37.5q-35 0 -60 15t-34 56h-5l-58 -236h98l-6 -23h-205zM194 13
q38 0 70.5 16.5t58.5 46.5t45.5 72t32.5 93q11 43 15.5 80t4.5 66q0 22 -2.5 41t-9.5 33t-19.5 22t-32.5 8q-18 0 -40.5 -11t-43.5 -36q-24 -27 -46 -62.5t-41 -73.5t-33.5 -74.5t-22.5 -65.5l-5 -21q-18 -68 1 -101t68 -33z" />
  </g>

</svg>
