<?xml version="1.0" standalone="no"?>
<!DOCTYPE svg PUBLIC "-//W3C//DTD SVG 1.1//EN" "http://www.w3.org/Graphics/SVG/1.1/DTD/svg11.dtd" >
<svg xmlns="http://www.w3.org/2000/svg" xmlns:xlink="http://www.w3.org/1999/xlink" version="1.1" viewBox="-10 0 699 1000">
  <g transform="matrix(1 0 0 -1 0 800)">
   <path fill="currentColor"
d="M130 23h98l162 651h-215l-32 -129h-31l38 153h529l-38 -153h-31l32 129h-215l-162 -651h98l-5 -23h-233zM158 -220q23 23 38.5 47.5t23.5 47.5h-6q-11 0 -18 6.5t-7 17.5q0 15 10 25t24 10t21 -7.5t7 -19.5q0 -13 -10 -35q-10 -24 -27.5 -48.5t-37.5 -43.5h-18v0z" />
  </g>

</svg>
