<?xml version="1.0" standalone="no"?>
<!DOCTYPE svg PUBLIC "-//W3C//DTD SVG 1.1//EN" "http://www.w3.org/Graphics/SVG/1.1/DTD/svg11.dtd" >
<svg xmlns="http://www.w3.org/2000/svg" xmlns:xlink="http://www.w3.org/1999/xlink" version="1.1" viewBox="-17 0 1019 1000">
  <g transform="matrix(1 0 0 -1 0 800)">
   <path fill="currentColor"
d="M364 -200q5 33 10 48.5t11 23.5q5 7 12 10.5t19 3.5q16 0 46 -6.5t92 -17.5q37 -6 67 -10t59 -4q37 0 62 9t40.5 24t22 34t6.5 40q0 24 -12 34.5t-41 10.5h-765l5 23h78l162 652h-78l5 23h193l-5 -23h-78l-162 -651h280l162 651h-78l5 23h193l-5 -23h-78l-162 -651h280
l162 651h-78l5 23h193l-5 -23h-78l-162 -652h14q42 0 60 -16t18 -52q0 -24 -8.5 -47t-28 -42t-52 -30.5t-80.5 -11.5q-40 0 -103 8t-165 25l-17 -57h-21v0z" />
  </g>

</svg>
