<?xml version="1.0" standalone="no"?>
<!DOCTYPE svg PUBLIC "-//W3C//DTD SVG 1.1//EN" "http://www.w3.org/Graphics/SVG/1.1/DTD/svg11.dtd" >
<svg xmlns="http://www.w3.org/2000/svg" xmlns:xlink="http://www.w3.org/1999/xlink" version="1.1" viewBox="-10 0 820 1000">
  <g transform="matrix(1 0 0 -1 0 800)">
   <path fill="currentColor"
d="M627 -12q-14 0 -24.5 7.5t-10.5 24.5q0 13 5 33l98 369q5 20 5 30q0 39 -41 39q-48 0 -103 -53q-24 -23 -48.5 -55t-46 -68.5t-38.5 -75t-26 -74.5l-41 -165h-35l105 420q5 20 5 32q0 39 -40 39q-47 0 -103 -53q-24 -23 -48.5 -55t-46 -68.5t-38.5 -75t-26 -74.5
l-41 -165h-35l120 482h-86l4 17l126 17l-58 -228l6 -1q16 33 40 73.5t54 76t65.5 59.5t76.5 24q35 0 49.5 -18.5t14.5 -47.5q0 -20 -6 -41l-32 -125l6 -1q16 32 40 72.5t54 76t65.5 60t76.5 24.5q36 0 51 -17.5t15 -45.5q0 -18 -6 -40l-105 -394l18 -8l130 114l11 -11
l-84 -83q-29 -29 -43.5 -38t-28.5 -9z" />
  </g>

</svg>
