<?xml version="1.0" standalone="no"?>
<!DOCTYPE svg PUBLIC "-//W3C//DTD SVG 1.1//EN" "http://www.w3.org/Graphics/SVG/1.1/DTD/svg11.dtd" >
<svg xmlns="http://www.w3.org/2000/svg" xmlns:xlink="http://www.w3.org/1999/xlink" version="1.1" viewBox="-10 0 505 1000">
  <g transform="matrix(1 0 0 -1 0 800)">
   <path fill="currentColor"
d="M181 197q-50 0 -70 26t-20 60q0 14 3 30t8 36l36 133h-86l4 17l126 17l-46 -170q-6 -21 -8 -33.5t-2 -23.5q0 -26 12.5 -44.5t50.5 -18.5l37 149h24l-37 -146q28 6 55 25.5t49 48t38.5 62.5t25.5 70l18 73h35l-122 -485l18 -8l130 114l11 -11l-84 -83
q-14 -14 -24.5 -23.5t-19 -14.5t-15 -7t-12.5 -2q-14 0 -25 7.5t-11 25.5q0 6 2 15l4 18l68 274l-6 1q-32 -58 -68.5 -90t-73.5 -39l-25 -101h-24z" />
  </g>

</svg>
