<?xml version="1.0" standalone="no"?>
<!DOCTYPE svg PUBLIC "-//W3C//DTD SVG 1.1//EN" "http://www.w3.org/Graphics/SVG/1.1/DTD/svg11.dtd" >
<svg xmlns="http://www.w3.org/2000/svg" xmlns:xlink="http://www.w3.org/1999/xlink" version="1.1" viewBox="-10 0 694 1000">
  <g transform="matrix(1 0 0 -1 0 800)">
   <path fill="currentColor"
d="M138 -212q-29 0 -45.5 12.5t-16.5 32.5q0 14 9 24t23 10q15 0 23 -9t8 -20q0 -9 -5.5 -18t-15.5 -14l1 -3h12q45 0 71.5 31.5t40.5 90.5l45 183l-5 2q-33 -69 -71.5 -95.5t-73.5 -26.5q-50 0 -69.5 36t-19.5 91q0 70 17 142.5t48.5 130.5t75.5 95t98 37q33 0 55 -17.5
t27 -52.5h4l40 160q17 65 51 100t88 35q29 0 45.5 -12.5t16.5 -32.5q0 -14 -9 -24t-23 -10q-15 0 -23 9t-8 20q0 9 5.5 18t15.5 14l-1 3h-12q-45 0 -71 -31.5t-41 -90.5l-52 -208l5 -2q33 69 71.5 95.5t73.5 26.5q50 0 69.5 -36t19.5 -91q0 -71 -17 -143t-48.5 -130
t-75.5 -95t-98 -37q-33 0 -55 17.5t-27 52.5h-4l-33 -135q-16 -65 -50.5 -100t-88.5 -35zM146 15q34 0 63 22.5t52.5 61t42 88.5t31.5 104l18 74q15 62 1 97t-61 35q-32 0 -60.5 -16.5t-52.5 -47t-43 -73t-32 -93.5q-11 -42 -16 -81.5t-5 -69.5q0 -49 13 -75t49 -26zM391 11
q32 0 60.5 16.5t52.5 47t43 73t32 93.5q11 42 16 81.5t5 69.5q0 49 -13 75t-49 26q-34 0 -63 -22.5t-52.5 -61t-42 -88.5t-31.5 -104l-18 -74q-15 -62 -1 -97t61 -35z" />
  </g>

</svg>
