<?xml version="1.0" standalone="no"?>
<!DOCTYPE svg PUBLIC "-//W3C//DTD SVG 1.1//EN" "http://www.w3.org/Graphics/SVG/1.1/DTD/svg11.dtd" >
<svg xmlns="http://www.w3.org/2000/svg" xmlns:xlink="http://www.w3.org/1999/xlink" version="1.1" viewBox="-35 0 756 1000">
  <g transform="matrix(1 0 0 -1 0 800)">
   <path fill="currentColor"
d="M34 -12q-26 0 -42.5 13t-16.5 34q0 15 9 25.5t25 10.5q15 0 23 -9t8 -22q0 -22 -20 -31l2 -3h9q17 0 29 5.5t24 17.5q10 10 20 27t21 45t24 69.5t28 101.5l53 213h-70l5 23h117l68 -362h4l257 362h48l-121 -485l18 -8l130 114l11 -11l-84 -83q-29 -29 -44 -38t-28 -9
t-24 7.5t-11 24.5q0 14 5 34l103 412h-4l-87 -123l-193 -275l-50 275l-23 123h-5l-48 -191q-15 -62 -28.5 -105t-25.5 -73t-23.5 -49t-24.5 -32q-16 -16 -33 -22t-35 -6z" />
  </g>

</svg>
