<?xml version="1.0" standalone="no"?>
<!DOCTYPE svg PUBLIC "-//W3C//DTD SVG 1.1//EN" "http://www.w3.org/Graphics/SVG/1.1/DTD/svg11.dtd" >
<svg xmlns="http://www.w3.org/2000/svg" xmlns:xlink="http://www.w3.org/1999/xlink" version="1.1" viewBox="-10 0 452 1000">
  <g transform="matrix(1 0 0 -1 0 800)">
   <path fill="currentColor"
d="M145 -12q-54 0 -85 28.5t-31 81.5q0 21 5.5 42t20 41t38.5 38.5t61 36.5l91 43q57 26 82.5 54.5t25.5 66.5q0 37 -23 57t-61 20q-85 0 -152 -101l-15 9q71 115 173 115q53 0 82.5 -28t29.5 -73q0 -28 -10.5 -50t-27.5 -39.5t-40 -31.5t-48 -26l-91 -43q-63 -30 -85 -63
t-22 -69q0 -45 24.5 -65.5t62.5 -20.5q96 0 167 109l15 -9q-76 -123 -187 -123zM282 596l122 159l28 -17l-137 -151z" />
  </g>

</svg>
