<?xml version="1.0" standalone="no"?>
<!DOCTYPE svg PUBLIC "-//W3C//DTD SVG 1.1//EN" "http://www.w3.org/Graphics/SVG/1.1/DTD/svg11.dtd" >
<svg xmlns="http://www.w3.org/2000/svg" xmlns:xlink="http://www.w3.org/1999/xlink" version="1.1" viewBox="-10 0 510 1000">
  <g transform="matrix(1 0 0 -1 0 800)">
   <path fill="currentColor"
d="M179 -12q-71 0 -101.5 45t-30.5 120q0 66 18 131.5t50 118t77 85t98 32.5q35 0 61 -12h79l28 111h32l-24 -98q-5 -16 -14.5 -24.5t-28.5 -8.5h-43q22 -22 32 -55.5t10 -77.5q0 -66 -18 -131.5t-50.5 -118t-77 -85t-97.5 -32.5zM180 11q36 0 66 19t53.5 50.5t40.5 73
t28 87.5q6 25 9.5 43t6 32t3 25.5t0.5 22.5q0 30 -5 54.5t-16 42t-30 27t-47 9.5q-36 0 -66 -19t-53.5 -50.5t-40.5 -73t-28 -87.5q-12 -50 -15.5 -75.5t-3.5 -47.5q0 -30 5 -54.5t16 -42t30 -27t47 -9.5zM386 628q-19 0 -34.5 7t-35.5 21q-19 14 -32.5 19.5t-27.5 5.5
q-34 0 -69 -32l-11 12q22 20 42.5 32.5t42.5 12.5q19 0 34.5 -7t35.5 -21q19 -14 32.5 -19.5t27.5 -5.5q34 0 69 32l11 -12q-22 -20 -42.5 -32.5t-42.5 -12.5z" />
  </g>

</svg>
