<?xml version="1.0" standalone="no"?>
<!DOCTYPE svg PUBLIC "-//W3C//DTD SVG 1.1//EN" "http://www.w3.org/Graphics/SVG/1.1/DTD/svg11.dtd" >
<svg xmlns="http://www.w3.org/2000/svg" xmlns:xlink="http://www.w3.org/1999/xlink" version="1.1" viewBox="-10 0 580 1000">
  <g transform="matrix(1 0 0 -1 0 800)">
   <path fill="currentColor"
d="M180 11q36 0 66 19t53.5 50.5t40.5 73t28 87.5q6 25 9.5 43t6 32t3 25.5t0.5 22.5q0 30 -5 54.5t-16 42t-30 27t-47 9.5q-36 0 -66 -19t-53.5 -50.5t-40.5 -73t-28 -87.5q-12 -50 -15.5 -75.5t-3.5 -47.5q0 -30 5 -54.5t16 -42t30 -27t47 -9.5zM179 -12q-71 0 -101.5 45
t-30.5 120q0 66 18 131.5t50 118t77 85t98 32.5q71 0 101.5 -45t30.5 -120q0 -66 -18 -131.5t-50.5 -118t-77 -85t-97.5 -32.5zM434 704l99 123h-135l7 26h127q28 0 28 -20q0 -5 -2 -10t-7 -12.5t-15.5 -19.5t-26.5 -30l-61 -66zM172 601l151 136h32l91 -138l-14 -8l-97 116
l-151 -116z" />
  </g>

</svg>
