<?xml version="1.0" standalone="no"?>
<!DOCTYPE svg PUBLIC "-//W3C//DTD SVG 1.1//EN" "http://www.w3.org/Graphics/SVG/1.1/DTD/svg11.dtd" >
<svg xmlns="http://www.w3.org/2000/svg" xmlns:xlink="http://www.w3.org/1999/xlink" version="1.1" viewBox="-18 0 629 1000">
  <g transform="matrix(1 0 0 -1 0 800)">
   <path fill="currentColor"
d="M-3 23h78l37 146h-86l5 23h86l33 132h-85l5 23h86l82 328h-78l5 23h290q74 0 110 -33t36 -96q0 -43 -13.5 -86.5t-41.5 -79t-71 -57.5t-103 -22h-185l-33 -132h227l-5 -23h-227l-37 -146h98l-5 -23h-213zM193 347h179q66 0 114 38.5t65 106.5q5 17 9 39.5t4 41.5
q0 46 -25 74t-85 28h-179z" />
  </g>

</svg>
