<?xml version="1.0" standalone="no"?>
<!DOCTYPE svg PUBLIC "-//W3C//DTD SVG 1.1//EN" "http://www.w3.org/Graphics/SVG/1.1/DTD/svg11.dtd" >
<svg xmlns="http://www.w3.org/2000/svg" xmlns:xlink="http://www.w3.org/1999/xlink" version="1.1" viewBox="-10 0 881 1000">
  <g transform="matrix(1 0 0 -1 0 800)">
   <path fill="currentColor"
d="M82 351h118l79 318l-136 -55l-5 18l154 66h24l-86 -347h106l-5 -21h-254zM754 698h30l-589 -698h-30zM553 11q44 10 77.5 28.5t59.5 43.5t45 55.5t34 64.5l-3 1q-20 -31 -45.5 -45.5t-63.5 -14.5q-45 0 -71.5 24t-26.5 67q0 65 40.5 102t103.5 37q51 0 79 -25.5t28 -74.5
q0 -36 -16.5 -80t-48.5 -85.5t-79.5 -73t-109.5 -41.5zM668 165q41 0 71 22.5t37 59.5q2 16 3 23.5t1 12.5q0 35 -21.5 52.5t-56.5 17.5q-41 0 -71 -22.5t-37 -59.5q-2 -16 -3 -23.5t-1 -12.5q0 -35 21.5 -52.5t56.5 -17.5z" />
  </g>

</svg>
