<?xml version="1.0" standalone="no"?>
<!DOCTYPE svg PUBLIC "-//W3C//DTD SVG 1.1//EN" "http://www.w3.org/Graphics/SVG/1.1/DTD/svg11.dtd" >
<svg xmlns="http://www.w3.org/2000/svg" xmlns:xlink="http://www.w3.org/1999/xlink" version="1.1" viewBox="-10 0 699 1000">
  <g transform="matrix(1 0 0 -1 0 800)">
   <path fill="currentColor"
d="M130 23h98l51 204l-149 -71l7 28l149 72l30 122l-148 -71l7 28l148 71l67 268h-215l-32 -129h-31l38 153h529l-38 -153h-31l32 129h-215l-62 -248l150 72l-7 -28l-150 -72l-30 -122l148 71l-6 -28l-149 -71l-56 -225h98l-5 -23h-233z" />
  </g>

</svg>
