<?xml version="1.0" standalone="no"?>
<!DOCTYPE svg PUBLIC "-//W3C//DTD SVG 1.1//EN" "http://www.w3.org/Graphics/SVG/1.1/DTD/svg11.dtd" >
<svg xmlns="http://www.w3.org/2000/svg" xmlns:xlink="http://www.w3.org/1999/xlink" version="1.1" viewBox="-10 0 715 1000">
  <g transform="matrix(1 0 0 -1 0 800)">
   <path fill="currentColor"
d="M107 485h-45l6 23h147l-6 -23h-70l-3 -443h5l222 466h35l-4 -466h5l217 443h-70l6 23h143l-6 -23h-45l-245 -485h-34l3 464h-5l-219 -464h-37v485zM323 637q-14 0 -20 7.5t-6 17.5q0 4 0.5 7.5t2.5 8.5q4 8 11 13.5t19 5.5q14 0 20 -7.5t6 -17.5q0 -4 -0.5 -7.5
t-2.5 -8.5q-4 -8 -11 -13.5t-19 -5.5zM504 637q-14 0 -20 7.5t-6 17.5q0 4 0.5 7.5t2.5 8.5q4 8 11 13.5t19 5.5q14 0 20 -7.5t6 -17.5q0 -4 -0.5 -7.5t-2.5 -8.5q-4 -8 -11 -13.5t-19 -5.5z" />
  </g>

</svg>
