<?xml version="1.0" standalone="no"?>
<!DOCTYPE svg PUBLIC "-//W3C//DTD SVG 1.1//EN" "http://www.w3.org/Graphics/SVG/1.1/DTD/svg11.dtd" >
<svg xmlns="http://www.w3.org/2000/svg" xmlns:xlink="http://www.w3.org/1999/xlink" version="1.1" viewBox="-10 0 629 1000">
  <g transform="matrix(1 0 0 -1 0 750)">
   <path fill="currentColor"
d="M441 584q73 -6 148 0q12 -1 12 -8.5t-11 -7.5q-24 -2 -37 -8t-19 -16t-7 -25.5t-1 -37.5v-235q0 -88 -33 -147t-82.5 -89.5t-107 -32.5t-107 24.5t-82.5 80.5t-33 135v263q0 19 -1.5 35t-7.5 28t-18.5 18.5t-34.5 6.5q-13 0 -13 8t13 8q52 -7 104 -6.5t103 6.5
q14 0 14 -8t-13 -8q-23 -1 -35.5 -8t-18.5 -18.5t-7 -27t-1 -34.5v-254q0 -74 25 -122.5t62.5 -71.5t81.5 -21t81.5 29t62.5 78.5t25 126.5q0 59 -0.5 118t-0.5 118q0 19 -1.5 35.5t-7.5 27.5t-18.5 17.5t-34.5 6.5q-12 0 -12 8t13 8z" />
  </g>

</svg>
