<?xml version="1.0" standalone="no"?>
<!DOCTYPE svg PUBLIC "-//W3C//DTD SVG 1.1//EN" "http://www.w3.org/Graphics/SVG/1.1/DTD/svg11.dtd" >
<svg xmlns="http://www.w3.org/2000/svg" xmlns:xlink="http://www.w3.org/1999/xlink" version="1.1" viewBox="-10 0 475 1000">
  <g transform="matrix(1 0 0 -1 0 750)">
   <path fill="currentColor"
d="M223 354q10 -8 27 -16q29 -16 60 -33t56.5 -39t42 -51t16.5 -68q0 -38 -15.5 -67.5t-41.5 -50.5t-59.5 -32t-69.5 -11h-16v-58h-24v60q-32 2 -63 7.5t-63 6.5q-19 0 -20.5 3.5t-1.5 20.5l-12 205q0 10 7.5 10.5t7.5 -8.5q1 -43 11 -89.5t37 -81.5q18 -23 42.5 -36.5
t54.5 -15.5v249q-27 15 -56 32t-53 39t-39.5 49.5t-15.5 63.5q0 34 13.5 62t36 48t52.5 31.5t62 12.5v36h24v-37q11 -1 20.5 -3t20.5 -5q17 -4 31 -7t31 -3q21 0 25.5 -6.5t6.5 -25.5l10 -162q0 -5 -4.5 -5t-5.5 5q-4 30 -12.5 61.5t-24.5 58.5t-40 45.5t-58 23.5v-219z
M199 367v207q-30 0 -56 -13t-37 -43q-7 -18 -5 -37t10 -36q13 -24 38.5 -44t49.5 -34zM223 10q23 2 45.5 11t40.5 25q16 12 26.5 30t10.5 40q0 24 -12 43.5t-30.5 35.5t-40 28t-40.5 23v-236z" />
  </g>

</svg>
