<?xml version="1.0" standalone="no"?>
<!DOCTYPE svg PUBLIC "-//W3C//DTD SVG 1.1//EN" "http://www.w3.org/Graphics/SVG/1.1/DTD/svg11.dtd" >
<svg xmlns="http://www.w3.org/2000/svg" xmlns:xlink="http://www.w3.org/1999/xlink" version="1.1" viewBox="-10 0 412 1000">
  <g transform="matrix(1 0 0 -1 0 750)">
   <path fill="currentColor"
d="M154 524l-41 -85q46 -8 91 -24.5t80 -44t57 -66.5t22 -92q0 -47 -19 -88t-51 -71t-74 -47.5t-87 -17.5q-19 0 -40 3t-37 16q-19 14 -22.5 31.5t6.5 28.5q9 11 28 10.5t47 -20.5q32 -23 66 -22.5t61.5 17t45.5 47t18 67.5q0 52 -23.5 88.5t-60 60t-82 34t-89.5 12.5
l112 232h211l-32 -69h-187z" />
  </g>

</svg>
