<?xml version="1.0" standalone="no"?>
<!DOCTYPE svg PUBLIC "-//W3C//DTD SVG 1.1//EN" "http://www.w3.org/Graphics/SVG/1.1/DTD/svg11.dtd" >
<svg xmlns="http://www.w3.org/2000/svg" xmlns:xlink="http://www.w3.org/1999/xlink" version="1.1" viewBox="-10 0 186 1000">
  <g transform="matrix(1 0 0 -1 0 750)">
   <path fill="currentColor"
d="M91 396q21 0 35.5 -13.5t14.5 -34.5q0 -20 -14.5 -34t-35.5 -14q-20 0 -34 14t-14 34q0 21 14 34.5t34 13.5zM47 73q0 9 5 19t12.5 18.5t17.5 13.5t19 5q4 0 5 -1q3 -2 7.5 -8.5t6.5 -11.5q5 -8 10.5 -19t5.5 -21q0 -8 -3 -20t-7 -18q-10 -26 -24.5 -55.5t-31.5 -50.5
q-4 -2 -7 -6t-6 -4t-5 3t-2 6t2 7t3 7q8 15 15 32.5t7 36.5q0 26 -15 45q-2 5 -8.5 11.5t-6.5 10.5z" />
  </g>

</svg>
