<?xml version="1.0" standalone="no"?>
<!DOCTYPE svg PUBLIC "-//W3C//DTD SVG 1.1//EN" "http://www.w3.org/Graphics/SVG/1.1/DTD/svg11.dtd" >
<svg xmlns="http://www.w3.org/2000/svg" xmlns:xlink="http://www.w3.org/1999/xlink" version="1.1" viewBox="-10 0 403 1000">
  <g transform="matrix(1 0 0 -1 0 750)">
   <path fill="currentColor"
d="M250 349q49 -20 76 -56.5t33 -79.5t-9.5 -87t-50.5 -77q-19 -18 -52.5 -33t-70.5 -23t-72 -6.5t-57 16.5q-17 12 -20.5 25t2.5 23t20.5 15t33.5 -1q15 -5 26 -12t22 -13t23.5 -10t30.5 -4q38 0 63.5 20t37 49.5t8.5 64t-22.5 64t-56.5 49.5t-92 20v14q34 4 68 24t50 50
q18 33 17.5 63t-14 52.5t-37 35.5t-51 11.5t-56 -19t-51.5 -55.5l-15 9q11 27 25.5 50t34 40t44 26.5t55.5 9.5q26 0 50.5 -8.5t43.5 -24t30.5 -38t11.5 -49.5q0 -21 -7 -39.5t-18.5 -35.5t-25.5 -32t-28 -28z" />
  </g>

</svg>
