<?xml version="1.0" standalone="no"?>
<!DOCTYPE svg PUBLIC "-//W3C//DTD SVG 1.1//EN" "http://www.w3.org/Graphics/SVG/1.1/DTD/svg11.dtd" >
<svg xmlns="http://www.w3.org/2000/svg" xmlns:xlink="http://www.w3.org/1999/xlink" version="1.1" viewBox="-10 0 654 1000">
  <g transform="matrix(1 0 0 -1 0 750)">
   <path fill="currentColor"
d="M330 326l154 -223q12 -18 24 -33.5t25.5 -27.5t31 -19t40.5 -8q12 0 12 -8.5t-13 -7.5q-52 5 -104.5 6.5t-104.5 -6.5q-12 0 -11.5 8t13.5 8q25 0 32 9t3 22.5t-14 29t-18 27.5l-113 163l-120 -165q-11 -15 -21.5 -29.5t-14 -26.5t4 -20t33.5 -10q11 -1 10.5 -8.5
t-14.5 -7.5q-37 3 -73.5 2.5t-72.5 -2.5q-14 0 -12.5 8t13.5 8q23 0 40.5 7t32 19t26.5 27.5t24 33.5l132 182l-134 196q-12 17 -23.5 33t-25.5 28t-31.5 19.5t-40.5 7.5q-13 0 -13 8t13 8q105 -14 207 0q14 0 13.5 -8t-13.5 -8q-25 -1 -31.5 -10.5t-2.5 -23t14 -28
t18 -26.5l94 -136l99 138q8 12 18.5 26.5t14 28t-2.5 22.5t-31 9q-12 0 -12 8t13 8q73 -6 147 0q12 -1 12.5 -8.5t-10.5 -7.5q-26 -2 -43.5 -8.5t-31 -17.5t-25 -26t-25.5 -35z" />
  </g>

</svg>
