<?xml version="1.0" standalone="no"?>
<!DOCTYPE svg PUBLIC "-//W3C//DTD SVG 1.1//EN" "http://www.w3.org/Graphics/SVG/1.1/DTD/svg11.dtd" >
<svg xmlns="http://www.w3.org/2000/svg" xmlns:xlink="http://www.w3.org/1999/xlink" version="1.1" viewBox="-10 0 740 1000">
  <g transform="matrix(1 0 0 -1 0 800)">
   <path fill="currentColor"
d="M357 24q25 0 55.5 8t63.5 28t68 55.5t68 90.5h30l-53 -206h-30l-30 34q-38 -18 -78.5 -31t-87.5 -15l-30 -54h19q40 0 61 -17.5t21 -47.5q0 -27 -15.5 -46.5t-40 -32t-54.5 -19t-58 -6.5q-32 0 -50.5 6t-26.5 11l17 39q5 -5 21.5 -8t33.5 -3q33 0 52.5 13t19.5 37
q0 17 -14 28t-56 12l53 88q-62 5 -109 31t-78.5 66.5t-48 91.5t-16.5 106q0 58 17.5 116.5t48.5 112.5t73 100t90.5 80t101.5 53.5t106 19.5q42 0 75 -13.5t65 -44.5l44 47h35l-47 -233h-30q0 49 -11.5 88t-32 66t-47.5 41.5t-57 14.5q-42 0 -77 -26t-63.5 -69.5t-49.5 -99
t-35.5 -114.5t-21.5 -117t-7 -105q0 -50 7.5 -83.5t22.5 -54t36.5 -29.5t49.5 -9z" />
  </g>

</svg>
