<?xml version="1.0" standalone="no"?>
<!DOCTYPE svg PUBLIC "-//W3C//DTD SVG 1.1//EN" "http://www.w3.org/Graphics/SVG/1.1/DTD/svg11.dtd" >
<svg xmlns="http://www.w3.org/2000/svg" xmlns:xlink="http://www.w3.org/1999/xlink" version="1.1" viewBox="-23 0 758 1000">
  <g transform="matrix(1 0 0 -1 0 800)">
   <path fill="currentColor"
d="M128 754h597l-36 -206h-40q0 52 -7.5 86t-26.5 54t-50 28t-77 8h-101l-71 -320h46q51 0 87 30t59 101h35l-65 -308h-34q0 45 -7 74t-19.5 45t-31 22t-40.5 6h-37l-77 -344h158q33 0 62 8.5t56 31t53.5 61.5t55.5 101h40l-60 -232h-610v30h98l151 694h-108v30zM620 794
l-151 36q-26 6 -37.5 20t-11.5 29q0 17 13.5 31t38.5 14q20 0 38 -5.5t42 -23.5l131 -101h-63zM389 794l-151 36q-26 6 -37.5 20t-11.5 29q0 17 13.5 31t38.5 14q20 0 38 -5.5t42 -23.5l131 -101h-63z" />
  </g>

</svg>
