<?xml version="1.0" standalone="no"?>
<!DOCTYPE svg PUBLIC "-//W3C//DTD SVG 1.1//EN" "http://www.w3.org/Graphics/SVG/1.1/DTD/svg11.dtd" >
<svg xmlns="http://www.w3.org/2000/svg" xmlns:xlink="http://www.w3.org/1999/xlink" version="1.1" viewBox="-111 0 612 1000">
  <g transform="matrix(1 0 0 -1 0 800)">
   <path fill="currentColor"
d="M162 754h329v-30h-74l-121 -582q-15 -71 -42.5 -120.5t-62 -80.5t-74 -45.5t-76.5 -14.5q-34 0 -60.5 10t-44.5 26.5t-27.5 37t-9.5 42.5q0 16 5 31.5t15 28t24.5 20t32.5 7.5q28 0 49.5 -18.5t21.5 -53.5q0 -16 -4.5 -27.5t-9.5 -20.5t-9.5 -16t-4.5 -13q0 -8 6 -13
t20 -5q10 0 19.5 4.5t17.5 17t16 35.5t16 60l151 690h-103v30z" />
  </g>

</svg>
