<?xml version="1.0" standalone="no"?>
<!DOCTYPE svg PUBLIC "-//W3C//DTD SVG 1.1//EN" "http://www.w3.org/Graphics/SVG/1.1/DTD/svg11.dtd" >
<svg xmlns="http://www.w3.org/2000/svg" xmlns:xlink="http://www.w3.org/1999/xlink" version="1.1" viewBox="-10 0 818 1000">
  <g transform="matrix(1 0 0 -1 0 800)">
   <path fill="currentColor"
d="M357 21q52 0 92 26.5t69.5 70.5t50 100t32.5 115t17.5 115.5t5.5 102.5q0 30 -3.5 61.5t-16 58t-36.5 43.5t-65 17q-51 0 -90.5 -26.5t-69 -70.5t-49.5 -100.5t-32.5 -116t-18 -118t-5.5 -105.5v-9t1 -15q5 -74 31.5 -111.5t86.5 -37.5zM363 -11q-65 0 -119.5 24.5
t-94.5 67.5t-62 100t-22 123q0 84 36 166.5t96 147.5t138.5 105t164.5 40q64 0 119 -23.5t94.5 -65t62 -98t22.5 -122.5q0 -85 -36 -168.5t-96.5 -149.5t-139 -106.5t-163.5 -40.5zM432 924q-1 -3 -1 -6.5v-6.5q0 -30 25.5 -43t68.5 -13q48 0 81.5 16.5t41.5 52.5h39
q-14 -69 -60 -106.5t-117 -37.5q-57 0 -90 23.5t-33 76.5q0 18 6 44h39z" />
  </g>

</svg>
