<?xml version="1.0" standalone="no"?>
<!DOCTYPE svg PUBLIC "-//W3C//DTD SVG 1.1//EN" "http://www.w3.org/Graphics/SVG/1.1/DTD/svg11.dtd" >
<svg xmlns="http://www.w3.org/2000/svg" xmlns:xlink="http://www.w3.org/1999/xlink" version="1.1" viewBox="-10 0 870 1000">
  <g transform="matrix(1 0 0 -1 0 800)">
   <path fill="currentColor"
d="M54 -53l106 123q-45 43 -70 103t-25 131q0 84 36 166.5t96 147.5t138.5 105t164.5 40q57 0 107 -18.5t88 -52.5l97 112h58l-124 -144q34 -41 53 -93.5t19 -112.5q0 -85 -36 -168.5t-96.5 -149.5t-139 -106.5t-163.5 -40.5q-49 0 -92 13.5t-78 39.5l-81 -95h-58zM239 162
l382 444q-3 24 -9.5 46.5t-20 40t-35 28t-53.5 10.5q-51 0 -90.5 -26.5t-69 -70.5t-49.5 -100.5t-32.5 -116t-18 -118t-5.5 -105.5v-9t1 -15v-8zM357 21q51 0 90.5 25.5t69 68t50 97.5t33 112.5t18 114t6.5 102.5l-375 -435q11 -42 37 -63.5t71 -21.5z" />
  </g>

</svg>
