<?xml version="1.0" standalone="no"?>
<!DOCTYPE svg PUBLIC "-//W3C//DTD SVG 1.1//EN" "http://www.w3.org/Graphics/SVG/1.1/DTD/svg11.dtd" >
<svg xmlns="http://www.w3.org/2000/svg" xmlns:xlink="http://www.w3.org/1999/xlink" version="1.1" viewBox="-10 0 818 1000">
  <g transform="matrix(1 0 0 -1 0 800)">
   <path fill="currentColor"
d="M357 21q52 0 92 26.5t69.5 70.5t50 100t32.5 115t17.5 115.5t5.5 102.5q0 30 -3.5 61.5t-16 58t-36.5 43.5t-65 17q-51 0 -90.5 -26.5t-69 -70.5t-49.5 -100.5t-32.5 -116t-18 -118t-5.5 -105.5v-9t1 -15q5 -74 31.5 -111.5t86.5 -37.5zM363 -11q-65 0 -119.5 24.5
t-94.5 67.5t-62 100t-22 123q0 84 36 166.5t96 147.5t138.5 105t164.5 40q64 0 119 -23.5t94.5 -65t62 -98t22.5 -122.5q0 -85 -36 -168.5t-96.5 -149.5t-139 -106.5t-163.5 -40.5zM737 923q-21 -60 -56.5 -96.5t-88.5 -36.5q-24 0 -40 7t-30 15t-28 15t-34 7
q-27 0 -48.5 -13t-30.5 -32h-34q8 26 20.5 50t30.5 42.5t41 29.5t51 11q24 0 40 -7t29.5 -15t27.5 -15t33 -7q31 0 52 15.5t29 29.5h36z" />
  </g>

</svg>
