<?xml version="1.0" standalone="no"?>
<!DOCTYPE svg PUBLIC "-//W3C//DTD SVG 1.1//EN" "http://www.w3.org/Graphics/SVG/1.1/DTD/svg11.dtd" >
<svg xmlns="http://www.w3.org/2000/svg" xmlns:xlink="http://www.w3.org/1999/xlink" version="1.1" viewBox="-10 0 830 1000">
  <g transform="matrix(1 0 0 -1 0 800)">
   <path fill="currentColor"
d="M810 466q0 -79 -33 -157t-87.5 -143.5t-126.5 -111t-150 -59.5q-2 -19 -3 -38t-1 -42q0 -60 30.5 -87.5t86.5 -27.5q15 0 32.5 1.5t37.5 6.5l7 -40q-31 -5 -59 -7.5t-53 -2.5q-118 0 -181 51t-63 151q0 9 0.5 22.5t2.5 24.5q-43 16 -77 44t-57 64.5t-35.5 80t-12.5 90.5
q0 57 18 115t49.5 111t75 99t94 79.5t106.5 53t114 19.5q66 0 119 -24.5t89.5 -65.5t56.5 -94.5t20 -112.5zM349 21q54 0 97 31t75.5 80.5t55.5 112t37.5 126t21 121.5t6.5 99q0 28 -4.5 53.5t-16.5 44.5t-34 30.5t-58 11.5q-55 0 -98 -30.5t-75.5 -80t-55 -111.5
t-37 -124.5t-21 -119t-6.5 -95.5q0 -42 8 -71t22.5 -46t35.5 -24.5t47 -7.5z" />
  </g>

</svg>
