<?xml version="1.0" standalone="no"?>
<!DOCTYPE svg PUBLIC "-//W3C//DTD SVG 1.1//EN" "http://www.w3.org/Graphics/SVG/1.1/DTD/svg11.dtd" >
<svg xmlns="http://www.w3.org/2000/svg" xmlns:xlink="http://www.w3.org/1999/xlink" version="1.1" viewBox="-10 0 538 1000">
  <g transform="matrix(1 0 0 -1 0 800)">
   <path fill="currentColor"
d="M115 631q0 27 19 42.5t42 15.5q20 0 32 -11t22.5 -28t23.5 -36.5t37 -37.5l3 2q0 23 -3.5 41t-7.5 32.5t-7.5 27t-3.5 25.5q0 29 18.5 44t44.5 15q25 0 38.5 -12.5t13.5 -34.5q0 -17 -7.5 -33.5t-18 -33.5t-20.5 -34.5t-15 -36.5l3 -2q27 16 44.5 36t32 37t29 28.5
t34.5 11.5q14 0 23.5 -5.5t15 -14t8 -18t2.5 -18.5q0 -26 -17.5 -38.5t-43.5 -19t-56 -10.5t-55 -14l-7 -4q24 -13 51.5 -16t51.5 -7t39.5 -14.5t15.5 -38.5q0 -24 -13.5 -43t-42.5 -19q-22 0 -35 11.5t-24.5 28.5t-24.5 36.5t-35 36.5l-3 -2q0 -23 5 -40.5t10 -31.5
t9.5 -27t4.5 -26q0 -26 -17 -42.5t-43 -16.5q-25 0 -39.5 14.5t-14.5 39.5q0 16 6 29.5t14.5 27.5t17.5 31.5t15 41.5l-3 2q-28 -17 -45 -37t-30.5 -37t-27.5 -28t-36 -11q-25 0 -38 14t-13 36q0 28 19.5 42.5t46.5 22t57 11.5t51 12l7 4q-22 10 -40 13.5t-33.5 5t-29 3
t-25.5 7.5q-17 8 -24.5 22t-7.5 29z" />
  </g>

</svg>
