<?xml version="1.0" standalone="no"?>
<!DOCTYPE svg PUBLIC "-//W3C//DTD SVG 1.1//EN" "http://www.w3.org/Graphics/SVG/1.1/DTD/svg11.dtd" >
<svg xmlns="http://www.w3.org/2000/svg" xmlns:xlink="http://www.w3.org/1999/xlink" version="1.1" viewBox="-10 0 875 1000">
  <g transform="matrix(1 0 0 -1 0 800)">
   <path fill="currentColor"
d="M392 -10q-72 0 -128.5 22t-96.5 62t-61 96.5t-21 124.5q0 95 38.5 178.5t102.5 146t147 98.5t172 36q70 0 127.5 -23t98 -64t62.5 -98.5t22 -126.5q0 -90 -37 -172t-100.5 -144.5t-147.5 -99t-178 -36.5zM543 705q-52 0 -102.5 -15.5t-95.5 -43t-84 -65.5t-67 -83
t-44 -95.5t-16 -102.5q0 -56 18.5 -103.5t52.5 -82.5t83 -55t109 -20q80 0 153.5 33.5t130 89.5t90.5 128.5t34 150.5q0 58 -19.5 106.5t-54 83.5t-82.5 54.5t-106 19.5zM427 152q-43 0 -77.5 14.5t-58.5 39.5t-37 59t-13 72q0 52 23.5 101t62.5 87t91 61t109 23
q30 0 56 -7.5t49 -26.5l29 29h14l-28 -133h-19q0 21 -4.5 40t-14.5 33.5t-26.5 23.5t-40.5 9q-32 0 -57.5 -15t-44.5 -40t-32.5 -56.5t-21.5 -64.5t-12 -64.5t-4 -55.5q0 -50 17.5 -73t64.5 -23q56 0 89 28.5t52 71.5h20l-27 -125h-15l-14 27q-30 -17 -63.5 -26t-66.5 -9z
" />
  </g>

</svg>
