<?xml version="1.0" standalone="no"?>
<!DOCTYPE svg PUBLIC "-//W3C//DTD SVG 1.1//EN" "http://www.w3.org/Graphics/SVG/1.1/DTD/svg11.dtd" >
<svg xmlns="http://www.w3.org/2000/svg" xmlns:xlink="http://www.w3.org/1999/xlink" version="1.1" viewBox="-10 0 608 1000">
  <g transform="matrix(1 0 0 -1 0 800)">
   <path fill="currentColor"
d="M340 754h30l-16 -72q5 0 11 0.5t12 0.5q31 0 60 -6l17 77h30l-19 -84q50 -15 82 -48.5t32 -84.5q0 -35 -16 -56t-48 -21q-29 0 -47.5 16.5t-18.5 43.5q0 20 9 30.5t20 17.5t20 12t9 14q0 10 -13.5 21.5t-35.5 21.5l-54 -241q26 -10 50 -23.5t42 -33.5t28.5 -48t10.5 -67
q0 -44 -14.5 -82.5t-42.5 -69t-69.5 -51.5t-95.5 -29l-24 -107h-30l23 104q-9 -1 -18 -1.5t-18 -0.5q-26 0 -48 3l-23 -105h-30l24 109q-38 7 -65.5 21t-45 32.5t-26 40.5t-8.5 45q0 35 19.5 60t59.5 25q34 0 53 -19t19 -50q0 -25 -11.5 -36t-25 -17t-24.5 -10.5t-11 -14.5
q0 -13 18.5 -25t55.5 -19l61 271q-26 10 -49 22.5t-40.5 31t-27.5 43.5t-10 59q0 42 15.5 79t43.5 66.5t67 50t86 28.5zM245 22q12 0 23 0.5t22 1.5l54 240q-19 7 -39 12.5t-40 11.5l-59 -265q9 -1 18.5 -1h20.5zM297 428l79 -22l54 240q-30 6 -55 6h-14.5t-13.5 -1z
M456 155q0 40 -24 62.5t-60 36.5l-51 -225q69 14 102 48t33 78zM190 524q0 -35 22 -54.5t57 -31.5l46 207q-25 -6 -47.5 -17t-40 -26.5t-27.5 -35t-10 -42.5z" />
  </g>

</svg>
