<?xml version="1.0" standalone="no"?>
<!DOCTYPE svg PUBLIC "-//W3C//DTD SVG 1.1//EN" "http://www.w3.org/Graphics/SVG/1.1/DTD/svg11.dtd" >
<svg xmlns="http://www.w3.org/2000/svg" xmlns:xlink="http://www.w3.org/1999/xlink" version="1.1" viewBox="-10 0 357 1000">
  <g transform="matrix(1 0 0 -1 0 800)">
   <path fill="currentColor"
d="M42 74q0 37 25 62t61 25q37 0 62 -25t25 -62q0 -36 -25 -61t-62 -25q-36 0 -61 25t-25 61zM146 224q16 80 21 149.5t5 128.5q0 21 -0.5 41.5t-0.5 39t-0.5 32.5t-0.5 22q0 35 7.5 59t20 39t29 21.5t34.5 6.5q36 0 56 -22t20 -54q0 -31 -17.5 -70t-42.5 -93.5t-53 -127.5
t-48 -172h-30z" />
  </g>

</svg>
