<?xml version="1.0" standalone="no"?>
<!DOCTYPE svg PUBLIC "-//W3C//DTD SVG 1.1//EN" "http://www.w3.org/Graphics/SVG/1.1/DTD/svg11.dtd" >
<svg xmlns="http://www.w3.org/2000/svg" xmlns:xlink="http://www.w3.org/1999/xlink" version="1.1" viewBox="-39 0 367 1000">
  <g transform="matrix(1 0 0 -1 0 800)">
   <path fill="currentColor"
d="M266 369q0 -37 -25 -62t-61 -25q-37 0 -62 25t-25 62q0 36 25 61t62 25q36 0 61 -25t25 -61zM162 219q-16 -80 -21 -149.5t-5 -128.5q0 -21 0.5 -41.5t0.5 -39t0.5 -33t0.5 -21.5q0 -35 -7.5 -59t-20 -39t-29 -21.5t-34.5 -6.5q-36 0 -56 22t-20 54q0 31 17.5 70
t42.5 93.5t53 127.5t48 172h30z" />
  </g>

</svg>
