<?xml version="1.0" standalone="no"?>
<!DOCTYPE svg PUBLIC "-//W3C//DTD SVG 1.1//EN" "http://www.w3.org/Graphics/SVG/1.1/DTD/svg11.dtd" >
<svg xmlns="http://www.w3.org/2000/svg" xmlns:xlink="http://www.w3.org/1999/xlink" version="1.1" viewBox="-203 0 1119 1000">
  <g transform="matrix(1 0 0 -1 0 800)">
   <path fill="currentColor"
d="M25 450h107q18 74 49 129t68.5 91t79 53.5t80.5 17.5t69 -17t42 -46q40 45 85 66.5t87 21.5q23 0 43 -6.5t36 -17.5l135 24l-162 -679q-3 -13 -4 -21.5t-1 -11.5q0 -13 12 -13q14 0 38.5 25.5t49.5 94.5l25 -9q-25 -82 -67 -122.5t-93 -40.5q-43 0 -63 23.5t-20 54.5
q0 12 2.5 29.5t6.5 35.5l104 468q-23 3 -37 18.5t-14 39.5q0 12 3.5 21t7 15.5t7 12t3.5 11.5q0 8 -6 13t-20 5q-18 0 -34 -11.5t-31 -38.5t-29 -72t-27 -113l-10 -51h121v-30h-127l-41 -210q-26 -132 -60 -226.5t-74.5 -155t-86 -89t-94.5 -28.5q-48 0 -71.5 22.5
t-28.5 51.5q-40 -57 -84.5 -83t-91.5 -26q-27 0 -46.5 7.5t-31.5 20.5t-18 28.5t-6 32.5q0 27 15.5 45t46.5 18q30 0 45 -16t15 -36q0 -16 -6.5 -26t-6.5 -22q0 -17 23 -17q8 0 15.5 3t15.5 15t17 36t20 65t24 102.5t30 149.5l64 338h-100v30zM223 175
q-18 -100 -41.5 -177.5t-51.5 -135.5q5 1 16 1q30 0 45 -17t15 -35q0 -17 -6.5 -27t-6.5 -21q0 -17 23 -17q12 0 22.5 8t22.5 40t28 96.5t40 177.5l73 352h-135zM272 450h136q16 70 44 125q-23 4 -37 19.5t-14 38.5q0 12 3.5 21t7 15.5t7 12t3.5 11.5t-6 12t-21 6
q-18 0 -34.5 -11.5t-31.5 -39t-28 -72.5t-24 -112z" />
  </g>

</svg>
