<?xml version="1.0" standalone="no"?>
<!DOCTYPE svg PUBLIC "-//W3C//DTD SVG 1.1//EN" "http://www.w3.org/Graphics/SVG/1.1/DTD/svg11.dtd" >
<svg xmlns="http://www.w3.org/2000/svg" xmlns:xlink="http://www.w3.org/1999/xlink" version="1.1" viewBox="-203 0 752 1000">
  <g transform="matrix(1 0 0 -1 0 800)">
   <path fill="currentColor"
d="M38 450h101q19 80 50.5 139.5t70 98.5t80.5 58.5t82 19.5q49 0 83 -27t34 -72q0 -29 -15.5 -48t-47.5 -19q-29 0 -46 16t-17 42q0 12 3.5 21t7 15.5t7 12t3.5 11.5q0 8 -6 13t-20 5q-18 0 -34 -11.5t-31 -38.5t-28.5 -72t-26.5 -113l-10 -51h121v-30h-127l-49 -245
q-26 -132 -61 -226.5t-75.5 -155t-85.5 -89t-93 -28.5q-27 0 -46 7.5t-31 20.5t-18 28.5t-6 32.5q0 27 15.5 45t46.5 18q30 0 45 -16t15 -36q0 -16 -6.5 -26t-6.5 -22q0 -17 23 -17q12 0 22.5 8t22.5 40t28 96.5t40 177.5l81 387h-95v30z" />
  </g>

</svg>
