<?xml version="1.0" standalone="no"?>
<!DOCTYPE svg PUBLIC "-//W3C//DTD SVG 1.1//EN" "http://www.w3.org/Graphics/SVG/1.1/DTD/svg11.dtd" >
<svg xmlns="http://www.w3.org/2000/svg" xmlns:xlink="http://www.w3.org/1999/xlink" version="1.1" viewBox="-10 0 355 1000">
  <g transform="matrix(1 0 0 -1 0 800)">
   <path fill="currentColor"
d="M48 450h231l-84 -363q-3 -14 -4 -22t-1 -11q0 -17 13 -17q8 0 20 6t26.5 19.5t30 36.5t30.5 57l25 -9q-28 -82 -76 -120t-117 -38q-39 0 -63 19.5t-24 61.5q0 6 0.5 12.5t2.5 15.5t5 22t8 33l66 267h-89v30zM167 656q0 33 23 56t56 23t56 -23t23 -56t-23 -56t-56 -23
t-56 23t-23 56zM5 -180q0 16 6.5 31t17.5 26t25.5 17.5t30.5 6.5q33 0 57 -24t24 -57q0 -16 -6.5 -30.5t-17.5 -25.5t-26 -17.5t-31 -6.5t-30.5 6.5t-25.5 17.5t-17.5 25.5t-6.5 30.5z" />
  </g>

</svg>
