<?xml version="1.0" standalone="no"?>
<!DOCTYPE svg PUBLIC "-//W3C//DTD SVG 1.1//EN" "http://www.w3.org/Graphics/SVG/1.1/DTD/svg11.dtd" >
<svg xmlns="http://www.w3.org/2000/svg" xmlns:xlink="http://www.w3.org/1999/xlink" version="1.1" viewBox="-10 0 565 1000">
  <g transform="matrix(1 0 0 -1 0 800)">
   <path fill="currentColor"
d="M214 271q15 8 35.5 11t34.5 3q25 27 42 58t34 57.5t38.5 44t55.5 17.5q23 0 39 -8t26 -19.5t14.5 -25.5t4.5 -26q0 -23 -15 -40.5t-46 -17.5q-24 0 -40.5 12t-16.5 38q0 8 1 15t1 12q0 12 -8 12q-9 0 -21 -16.5t-25.5 -39t-26.5 -45t-23 -35.5q36 -11 57.5 -25t33 -29
t15.5 -30.5t4 -31.5q0 -26 -5 -52t-5 -46q0 -14 3.5 -19.5t11.5 -5.5q17 0 39.5 26t45.5 80l27 -13q-35 -75 -76 -110t-91 -35q-19 0 -37 5t-32.5 16t-23 28t-8.5 41q0 20 5.5 39t12 37t12 35.5t5.5 34.5q0 21 -15 31q-13 -13 -30.5 -20t-33.5 -7t-29 7l-58 -234h-133
l176 724h-86v30h231zM105 -286q61 20 99 44.5t38 53.5q0 11 -4.5 16.5t-8.5 5.5t-8 -6t-10 -13t-15.5 -13t-25.5 -6q-28 0 -41 18.5t-13 41.5q0 35 25.5 55t59.5 20q24 0 40.5 -9.5t27 -23.5t15 -31.5t4.5 -33.5q0 -51 -44 -86.5t-125 -61.5z" />
  </g>

</svg>
