<?xml version="1.0" standalone="no"?>
<!DOCTYPE svg PUBLIC "-//W3C//DTD SVG 1.1//EN" "http://www.w3.org/Graphics/SVG/1.1/DTD/svg11.dtd" >
<svg xmlns="http://www.w3.org/2000/svg" xmlns:xlink="http://www.w3.org/1999/xlink" version="1.1" viewBox="-10 0 634 1000">
  <g transform="matrix(1 0 0 -1 0 800)">
   <path fill="currentColor"
d="M49 450h231l-25 -99h7q15 21 33.5 41t41 35.5t49 25t56.5 9.5q20 0 38.5 -4.5t32.5 -14.5t22.5 -25t8.5 -36q0 -19 -6 -44l-64 -249q-3 -13 -4 -21t-1 -13q0 -20 16 -20q19 0 45.5 27.5t53.5 92.5l25 -9q-17 -47 -37.5 -77.5t-42.5 -48t-46 -24.5t-48 -7q-47 0 -72.5 22
t-25.5 64q0 10 1 17.5t3 14.5l64 249q2 7 3.5 18.5t1.5 19.5q0 22 -19 22q-13 0 -34.5 -12t-45 -33.5t-46 -52.5t-35.5 -70l-62 -248h-133l101 420h-87v30zM326 554l154 164q26 27 43.5 34.5t31.5 7.5q29 0 44 -17t15 -41q0 -20 -11 -32.5t-40 -26.5l-175 -89h-62z" />
  </g>

</svg>
