<?xml version="1.0" standalone="no"?>
<!DOCTYPE svg PUBLIC "-//W3C//DTD SVG 1.1//EN" "http://www.w3.org/Graphics/SVG/1.1/DTD/svg11.dtd" >
<svg xmlns="http://www.w3.org/2000/svg" xmlns:xlink="http://www.w3.org/1999/xlink" version="1.1" viewBox="-60 0 539 1000">
  <g transform="matrix(1 0 0 -1 0 800)">
   <path fill="currentColor"
d="M377 368q0 -37 -25 -62t-61 -25q-37 0 -62 25t-25 62q0 36 25 61t62 25q36 0 61 -25t25 -61zM278 218q3 -26 3 -48q0 -63 -18 -104.5t-44.5 -69.5t-57.5 -47.5t-57.5 -38.5t-44.5 -42t-18 -59q0 -19 6 -37t20 -32t36 -22.5t54 -8.5q38 0 61 11t23 26q0 9 -7.5 14.5
t-17 12.5t-17 18.5t-7.5 31.5q0 18 6.5 31t17 21t22.5 11.5t23 3.5q26 0 47 -18.5t21 -53.5q0 -26 -12.5 -50.5t-35.5 -44.5t-57 -32t-77 -12q-45 0 -81.5 14t-62 39t-39.5 60.5t-14 77.5q0 56 22.5 94t56 65t73 46.5t73 39.5t56 43.5t22.5 59.5h25z" />
  </g>

</svg>
