<?xml version="1.0" standalone="no"?>
<!DOCTYPE svg PUBLIC "-//W3C//DTD SVG 1.1//EN" "http://www.w3.org/Graphics/SVG/1.1/DTD/svg11.dtd" >
<svg xmlns="http://www.w3.org/2000/svg" xmlns:xlink="http://www.w3.org/1999/xlink" version="1.1" viewBox="-10 0 529 1000">
  <g transform="matrix(1 0 0 -1 0 800)">
   <path fill="currentColor"
d="M82 74q0 37 25 62t61 25q37 0 62 -25t25 -62q0 -36 -25 -61t-62 -25q-36 0 -61 25t-25 61zM181 224q-3 25 -3 48q0 63 18 104.5t44.5 69.5t57.5 47.5t57.5 38.5t44.5 42t18 59q0 19 -6 37t-20 32t-36 22.5t-54 8.5q-38 0 -61 -11t-23 -26q0 -9 7.5 -14.5t17 -12.5
t17 -18.5t7.5 -31.5q0 -18 -6.5 -31t-17 -21t-22.5 -11.5t-23 -3.5q-26 0 -47 18.5t-21 53.5q0 25 12.5 50t35.5 45t57 32t77 12q45 0 81.5 -14t62 -39t39.5 -60.5t14 -77.5q0 -57 -22.5 -94.5t-56 -64.5t-73 -46.5t-73 -39.5t-56 -44t-22.5 -59h-25z" />
  </g>

</svg>
