<?xml version="1.0" standalone="no"?>
<!DOCTYPE svg PUBLIC "-//W3C//DTD SVG 1.1//EN" "http://www.w3.org/Graphics/SVG/1.1/DTD/svg11.dtd" >
<svg xmlns="http://www.w3.org/2000/svg" xmlns:xlink="http://www.w3.org/1999/xlink" version="1.1" viewBox="-10 0 578 1000">
  <g transform="matrix(1 0 0 -1 0 800)">
   <path fill="currentColor"
d="M558 740q-74 -38 -115.5 -78t-41.5 -78q0 -15 5 -21.5t10 -6.5t9 6t10 13.5t16 14t27 6.5q18 0 30.5 -7t20.5 -18t12 -24t4 -26q0 -18 -7.5 -33t-20 -25.5t-28.5 -16t-34 -5.5q-27 0 -46.5 12t-32 30.5t-18.5 39.5t-6 39q0 55 50 109t143 92zM307 740q-74 -38 -115.5 -78
t-41.5 -78q0 -15 5 -21.5t10 -6.5t9 6t10 13.5t16 14t27 6.5q18 0 30.5 -7t20.5 -18t12 -24t4 -26q0 -18 -7.5 -33t-20 -25.5t-28.5 -16t-34 -5.5q-27 0 -46.5 12t-32 30.5t-18.5 39.5t-6 39q0 55 50 109t143 92z" />
  </g>

</svg>
