<?xml version="1.0" standalone="no"?>
<!DOCTYPE svg PUBLIC "-//W3C//DTD SVG 1.1//EN" "http://www.w3.org/Graphics/SVG/1.1/DTD/svg11.dtd" >
<svg xmlns="http://www.w3.org/2000/svg" xmlns:xlink="http://www.w3.org/1999/xlink" version="1.1" viewBox="-10 0 557 1000">
  <g transform="matrix(1 0 0 -1 0 800)">
   <path fill="currentColor"
d="M242 462q28 0 53 -6.5t44 -18.5t30 -28t11 -35q0 -21 -13.5 -36.5t-40.5 -15.5t-41.5 15t-14.5 34q0 11 3 20t3 17q0 14 -14 19t-31 5q-13 0 -25.5 -2.5t-23 -8t-17 -14t-6.5 -19.5q0 -17 14.5 -31t36.5 -29t47.5 -31.5t47.5 -38t36.5 -49t14.5 -63.5t-15 -65
t-41.5 -49.5t-63 -31.5t-79.5 -11q-72 0 -114.5 28.5t-42.5 72.5q0 31 19 46t45 15q31 0 46 -17.5t15 -37.5q0 -17 -7.5 -26t-7.5 -20t13.5 -19t48.5 -8q48 0 69 16t21 36q0 19 -14.5 34.5t-36 31.5t-46.5 32.5t-46.5 37t-36 46t-14.5 58.5q0 30 13 57t36 47t55 31.5
t70 11.5zM249 554l154 164q26 27 43.5 34.5t31.5 7.5q29 0 44 -17t15 -41q0 -20 -11 -32.5t-40 -26.5l-175 -89h-62z" />
  </g>

</svg>
