<?xml version="1.0" standalone="no"?>
<!DOCTYPE svg PUBLIC "-//W3C//DTD SVG 1.1//EN" "http://www.w3.org/Graphics/SVG/1.1/DTD/svg11.dtd" >
<svg xmlns="http://www.w3.org/2000/svg" xmlns:xlink="http://www.w3.org/1999/xlink" version="1.1" viewBox="-10 0 943 1000">
  <g transform="matrix(1 0 0 -1 0 800)">
   <path fill="currentColor"
d="M497 723l-124 -160q-27 -35 -33 -58.5t-6 -38.5q0 -22 3.5 -33.5t3.5 -25.5q0 -27 -16.5 -42.5t-43.5 -15.5q-22 0 -35.5 12t-13.5 40q0 9 2.5 17t11.5 22t26.5 37t48.5 62l96 122v4h-139q-21 0 -33.5 -6.5t-23.5 -32.5h-23l56 118h244zM829 753l-590 -753h-59l590 753
h59zM673 -9q-60 0 -97.5 27t-37.5 68q0 20 10 39t28 34t42.5 25.5t53.5 14.5v4q-37 9 -58.5 31.5t-21.5 50.5q0 21 13 40.5t34.5 33.5t49.5 22.5t58 8.5q55 0 86.5 -25t31.5 -59q0 -18 -9 -35t-24.5 -31.5t-37.5 -25t-48 -14.5v-4q44 -9 68.5 -34t24.5 -55q0 -22 -12.5 -43
t-35 -37t-52.5 -26t-66 -10zM710 187q-15 0 -29.5 -10t-26 -26.5t-18 -38t-6.5 -45.5q0 -29 11 -42t31 -13q21 0 35.5 12t23.5 29.5t12.5 37.5t3.5 37q0 59 -37 59zM751 375q-19 0 -31.5 -13t-20.5 -32t-11.5 -40t-3.5 -37q0 -41 28 -41q20 0 33 14.5t20.5 34t10.5 40.5
t3 34q0 25 -8 32.5t-20 7.5z" />
  </g>

</svg>
