<?xml version="1.0" standalone="no"?>
<!DOCTYPE svg PUBLIC "-//W3C//DTD SVG 1.1//EN" "http://www.w3.org/Graphics/SVG/1.1/DTD/svg11.dtd" >
<svg xmlns="http://www.w3.org/2000/svg" xmlns:xlink="http://www.w3.org/1999/xlink" version="1.1" viewBox="-10 0 575 1000">
  <g transform="matrix(1 0 0 -1 0 800)">
   <path fill="currentColor"
d="M245 395q38 0 66.5 20.5t47.5 51t28.5 66t9.5 65.5q0 48 -22 65.5t-61 17.5q-37 0 -57.5 -11.5t-20.5 -29.5q0 -10 5.5 -15.5t12 -11.5t12 -14t5.5 -22q0 -24 -17.5 -41.5t-44.5 -17.5q-23 0 -42 15t-19 48q0 27 15 51t42 41.5t63.5 27.5t78.5 10q47 0 82.5 -12t59.5 -32
t36.5 -46t12.5 -55q0 -60 -52 -108.5t-152 -76.5v-5q34 0 66.5 -12.5t58 -35.5t41 -54.5t15.5 -68.5q0 -45 -23 -84.5t-63.5 -69t-96 -47t-121.5 -17.5q-51 0 -88 10.5t-60 28t-34 40.5t-11 48q0 32 16.5 56t50.5 24q26 0 44.5 -16t18.5 -42q0 -20 -9.5 -30t-21.5 -16.5
t-21.5 -11.5t-9.5 -15t10.5 -18.5t26.5 -14.5t36 -9.5t38 -3.5q31 0 58.5 11t48.5 35.5t33 63t12 93.5q0 73 -24 105.5t-80 32.5q-13 0 -20 -1.5t-12 -3t-9.5 -3t-11.5 -1.5q-17 0 -24.5 7t-7.5 18q0 13 8 20t19 7q8 0 24.5 -3t33.5 -3z" />
  </g>

</svg>
