<?xml version="1.0" standalone="no"?>
<!DOCTYPE svg PUBLIC "-//W3C//DTD SVG 1.1//EN" "http://www.w3.org/Graphics/SVG/1.1/DTD/svg11.dtd" >
<svg xmlns="http://www.w3.org/2000/svg" xmlns:xlink="http://www.w3.org/1999/xlink" version="1.1" viewBox="-10 0 943 1000">
  <g transform="matrix(1 0 0 -1 0 800)">
   <path fill="currentColor"
d="M137 416l105 73q33 23 53.5 45t31.5 42.5t14.5 39.5t3.5 36q0 41 -15 57.5t-40 16.5q-15 0 -28 -5.5t-22 -12.5t-14 -14.5t-5 -11.5q0 -7 8.5 -10t19 -7t19.5 -12.5t9 -25.5q0 -20 -13 -31.5t-30 -11.5q-6 0 -15 2t-17.5 8t-14.5 16.5t-6 27.5q0 18 7.5 37t23 35t40 26.5
t59.5 10.5q28 0 52 -7t42 -20.5t28.5 -32.5t10.5 -42q0 -26 -19 -59t-74 -64l-140 -80v-4h155q6 0 10.5 1.5t8 6t6.5 13.5t6 25h18l-32 -126h-259zM672 218q20 0 35.5 11t25.5 27.5t15 36t5 36.5q0 28 -11.5 36t-31.5 8t-30.5 -6t-10.5 -15q0 -6 3.5 -9.5l7 -7t7 -8
t3.5 -12.5q0 -14 -10 -24t-26 -10q-13 0 -23.5 8.5t-10.5 27.5q0 32 31 53t78 21q52 0 78.5 -24t26.5 -57t-28 -59t-83 -41v-4q19 0 37 -7t32 -19.5t22.5 -30t8.5 -38.5q0 -26 -12.5 -47.5t-35 -37.5t-53 -25t-66.5 -9q-58 0 -82.5 21t-24.5 49q0 17 8.5 31.5t27.5 14.5
q15 0 25.5 -9t10.5 -24q0 -11 -5.5 -16.5t-11.5 -9.5t-11.5 -7t-5.5 -8q0 -6 6 -10.5t15 -7.5t19.5 -5t19.5 -2q14 0 28 4t25.5 15.5t18.5 32.5t7 56q0 41 -11.5 59.5t-40.5 18.5q-8 0 -12.5 -1t-7 -1.5t-4.5 -1.5t-6 -1q-10 0 -14 4.5t-4 10.5q0 8 4.5 12t10.5 4
q5 0 13.5 -1.5t17.5 -1.5zM840 753l-590 -753h-59l590 753h59z" />
  </g>

</svg>
