<?xml version="1.0" standalone="no"?>
<!DOCTYPE svg PUBLIC "-//W3C//DTD SVG 1.1//EN" "http://www.w3.org/Graphics/SVG/1.1/DTD/svg11.dtd" >
<svg xmlns="http://www.w3.org/2000/svg" xmlns:xlink="http://www.w3.org/1999/xlink" version="1.1" viewBox="-10 0 645 1000">
  <g transform="matrix(1 0 0 -1 0 800)">
   <path fill="currentColor"
d="M268 -11q-54 0 -93 22t-64.5 59t-37.5 84t-12 97q0 85 32 166.5t83.5 145.5t116.5 103.5t131 39.5q52 0 89.5 -23.5t62.5 -61.5t37 -85t12 -93q0 -48 -12.5 -100.5t-35 -103t-54.5 -96t-71.5 -80t-86 -54.5t-97.5 -20zM422 675q-35 0 -64.5 -31t-53.5 -81t-42.5 -111.5
t-31 -123t-19 -116t-6.5 -89.5q0 -33 5.5 -53.5t13.5 -32t18.5 -15t21.5 -3.5q36 0 66.5 30.5t54.5 79.5t42 110t30 121.5t18 115t6 90.5q0 60 -15.5 84.5t-43.5 24.5z" />
  </g>

</svg>
