<?xml version="1.0" standalone="no"?>
<!DOCTYPE svg PUBLIC "-//W3C//DTD SVG 1.1//EN" "http://www.w3.org/Graphics/SVG/1.1/DTD/svg11.dtd" >
<svg xmlns="http://www.w3.org/2000/svg" xmlns:xlink="http://www.w3.org/1999/xlink" version="1.1" viewBox="-10 0 676 1000">
  <g transform="matrix(1 0 0 -1 0 800)">
   <path fill="currentColor"
d="M126.5 71q-74.5 81 -74.5 228q0 149 74.5 228.5t206.5 79.5q135 0 208.5 -81t73.5 -227q0 -147 -74.5 -228t-207.5 -81q-132 0 -206.5 81zM485 82q50 69 50 217q0 147 -50 215.5t-152 68.5t-151.5 -68.5t-49.5 -215.5q0 -148 49.5 -217t151.5 -69t152 69zM383 674
q0 2 3 8l9 10q73 118 75 125q4 5 6.5 7t6.5 2t16 -4t20 -8q9 -4 9 -12q0 -4 -6 -12l-119 -120q-3 -4 -11 -4q-9 0 -9 8zM267 674q0 3 3 8l15 22q67 108 68 113q4 5 6.5 7t6.5 2t16.5 -4t19.5 -8q9 -4 9 -12q0 -4 -6 -12q-12 -10 -119 -120q-3 -4 -11 -4t-8 8z" />
  </g>

</svg>
