<?xml version="1.0" standalone="no"?>
<!DOCTYPE svg PUBLIC "-//W3C//DTD SVG 1.1//EN" "http://www.w3.org/Graphics/SVG/1.1/DTD/svg11.dtd" >
<svg xmlns="http://www.w3.org/2000/svg" xmlns:xlink="http://www.w3.org/1999/xlink" version="1.1" viewBox="-10 0 584 1000">
  <g transform="matrix(1 0 0 -1 0 800)">
   <path fill="currentColor"
d="M95 23q20 0 20 22v506q0 9 -5.5 15.5t-16.5 5.5l-38 -2v27h210q112 0 161.5 -38t49.5 -125q0 -47 -31.5 -82.5t-80.5 -51.5q29 0 58 -21.5t48.5 -62t19.5 -94.5q0 -31 7 -61.5t22 -32.5q6 -2 14 -2q14 0 21 4v-30h-118q-12 25 -14 66q-2 26 -2 38v33q0 78 -53.5 117
t-130.5 39h-48v-248q0 -22 20 -22l49 2v-25h-202v25zM372 348.5q28 32.5 28 91.5q0 70 -30.5 101t-94.5 31h-75q-12 0 -12 -10v-246h106q50 0 78 32.5zM264 696l-24 24l-23 24q-19 20 -56 50q-9 7 -16.5 13t-7.5 9q0 8 8 8q6 0 25 -12l123 -78l122 78q19 12 26 12q8 0 8 -8
q0 -3 -7.5 -9t-16.5 -13q-37 -30 -56 -50l-23 -24l-24 -24q-32 -28 -29 -28q2 0 -29 28z" />
  </g>

</svg>
