<?xml version="1.0" standalone="no"?>
<!DOCTYPE svg PUBLIC "-//W3C//DTD SVG 1.1//EN" "http://www.w3.org/Graphics/SVG/1.1/DTD/svg11.dtd" >
<svg xmlns="http://www.w3.org/2000/svg" xmlns:xlink="http://www.w3.org/1999/xlink" version="1.1" viewBox="-17 0 521 1000">
  <g transform="matrix(1 0 0 -1 0 800)">
   <path fill="currentColor"
d="M199 23q19 0 19 22v221l-173 287q-9 19 -24 19l-28 -2v27h199v-27l-53 2h-1q-11 0 -11 -10q0 -6 5 -14l139 -231l133 235q3 5 3 10q0 10 -10 10l-52 -2v27h149v-27l-30 2q-16 0 -28 -21l-145 -259v-248q0 -21 20 -21l48 2v-25h-209v25zM98 674q0 3 7.5 9t16.5 13
q37 30 56 50l23 24l24 24q32 28 29 28q-2 0 29 -28l24 -24l23 -24q19 -20 56 -50q9 -7 16.5 -13t7.5 -9q0 -8 -8 -8q-6 0 -25 12l-123 78l-122 -78q-19 -12 -26 -12q-8 0 -8 8z" />
  </g>

</svg>
