<?xml version="1.0" standalone="no"?>
<!DOCTYPE svg PUBLIC "-//W3C//DTD SVG 1.1//EN" "http://www.w3.org/Graphics/SVG/1.1/DTD/svg11.dtd" >
<svg xmlns="http://www.w3.org/2000/svg" xmlns:xlink="http://www.w3.org/1999/xlink" version="1.1" viewBox="-10 0 716 1000">
  <g transform="matrix(1 0 0 -1 0 800)">
   <path fill="currentColor"
d="M390 16.5q-43 26.5 -64 74.5q-47 -96 -142 -96q-67 0 -109 24.5t-42 74.5q0 84 64 116t204 32v72q0 51 -26 70.5t-79 19.5q-82 0 -81 -43q0 -5 4.5 -15t4.5 -20q0 -15 -9 -22t-23 -7q-18 0 -27 11.5t-9 30.5q0 39 41.5 64t110.5 25q103 0 140 -57q73 57 152 57
q82 0 123 -55t41 -153h-296q0 -91 35 -146t101 -55q36 0 77.5 26t60.5 64l22 -17q-20 -47 -63.5 -74.5t-90.5 -27.5q-77 0 -120 26.5zM272 59q30 42 29 127v35q-103 0 -150 -34t-47 -103q0 -34 23 -50.5t60 -16.5q55 0 85 42zM601 268q0 136 -98 136q-70 0 -102.5 -38
t-32.5 -124h226q7 0 7 26z" />
  </g>

</svg>
