<?xml version="1.0" standalone="no"?>
<!DOCTYPE svg PUBLIC "-//W3C//DTD SVG 1.1//EN" "http://www.w3.org/Graphics/SVG/1.1/DTD/svg11.dtd" >
<svg xmlns="http://www.w3.org/2000/svg" xmlns:xlink="http://www.w3.org/1999/xlink" version="1.1" viewBox="-10 0 290 1000">
  <g transform="matrix(1 0 0 -1 0 800)">
   <path fill="currentColor"
d="M145 -137.5q-19 8.5 -26 28t-7 56.5v229q0 32 -6.5 47t-22.5 22t-53 14v16q45 6 63.5 24.5t18.5 58.5v224q0 37 8 56.5t27 28t54 8.5h27v-27h-27q-42 0 -42 -59v-231q0 -31 -8 -48.5t-27 -26.5t-55 -16q38 -9 56 -18t26 -25.5t8 -47.5v-236q0 -59 42 -59h27v-27h-27
q-37 0 -56 8.5z" />
  </g>

</svg>
