<?xml version="1.0" standalone="no"?>
<!DOCTYPE svg PUBLIC "-//W3C//DTD SVG 1.1//EN" "http://www.w3.org/Graphics/SVG/1.1/DTD/svg11.dtd" >
<svg xmlns="http://www.w3.org/2000/svg" xmlns:xlink="http://www.w3.org/1999/xlink" version="1.1" viewBox="-10 0 303 1000">
  <g transform="matrix(1 0 0 -1 0 800)">
   <path fill="currentColor"
d="M92 -119q41 0 42 59v236q0 31 8 47.5t26 25.5t56 18q-36 7 -55 16t-27 26.5t-8 48.5v231q0 59 -42 59h-27v27h27q35 0 54 -8.5t27 -28t8 -56.5v-224q0 -40 18.5 -58.5t63.5 -24.5v-16q-37 -7 -53 -14t-22.5 -22t-6.5 -47v-229q0 -37 -7 -56.5t-26 -28t-56 -8.5h-27v27h27
z" />
  </g>

</svg>
