<?xml version="1.0" standalone="no"?>
<!DOCTYPE svg PUBLIC "-//W3C//DTD SVG 1.1//EN" "http://www.w3.org/Graphics/SVG/1.1/DTD/svg11.dtd" >
<svg xmlns="http://www.w3.org/2000/svg" xmlns:xlink="http://www.w3.org/1999/xlink" version="1.1" viewBox="-10 0 494 1000">
  <g transform="matrix(1 0 0 -1 0 800)">
   <path fill="currentColor"
d="M85 43.5q-45 53.5 -45 164.5q0 108 48.5 164t144.5 56q46 0 73.5 -23.5t37.5 -60.5v346q0 20 -13 20l-46 -2v22h126v-691q0 -19 13 -19l39 2v-22h-126q2 8 2 16v22q0 14 1 21.5t1 9.5q-12 -39 -37 -59t-70 -20q-104 0 -149 53.5zM314.5 50q27.5 41 27.5 133v42
q0 87 -30.5 135.5t-93.5 48.5q-60 0 -83.5 -52t-23.5 -149q0 -76 9 -118.5t32.5 -61.5t66.5 -19q68 0 95.5 41z" />
  </g>

</svg>
