<?xml version="1.0" standalone="no"?>
<!DOCTYPE svg PUBLIC "-//W3C//DTD SVG 1.1//EN" "http://www.w3.org/Graphics/SVG/1.1/DTD/svg11.dtd" >
<svg xmlns="http://www.w3.org/2000/svg" xmlns:xlink="http://www.w3.org/1999/xlink" version="1.1" viewBox="-10 0 362 1000">
  <g transform="matrix(1 0 0 -1 0 800)">
   <path fill="currentColor"
d="M141 830l-99 69q-8 5 -8 10t16 12.5t32 7.5q9 0 13.5 -3.5t19.5 -19.5l63 -65q19 -19 18 -23q0 -6 -17 -6q-12 0 -38 18zM50 715q-12 12 -12 29q0 18 13.5 30.5t30.5 12.5q18 0 31 -12.5t13 -30.5q0 -17 -12.5 -29t-31.5 -12q-20 0 -32 12zM238 715q-12 12 -12 29
q0 18 13.5 30.5t30.5 12.5q18 0 31 -12.5t13 -30.5q0 -17 -12.5 -29t-31.5 -12q-20 0 -32 12z" />
  </g>

</svg>
