<?xml version="1.0" standalone="no"?>
<!DOCTYPE svg PUBLIC "-//W3C//DTD SVG 1.1//EN" "http://www.w3.org/Graphics/SVG/1.1/DTD/svg11.dtd" >
<svg xmlns="http://www.w3.org/2000/svg" xmlns:xlink="http://www.w3.org/1999/xlink" version="1.1" viewBox="-10 0 362 1000">
  <g transform="matrix(1 0 0 -1 0 800)">
   <path fill="currentColor"
d="M149 822l-22 22l-21 22q-17 18 -51 45q-9 6 -15 12t-6 8q0 7 7 7q6 0 22 -11l112 -70l111 70q17 12 24 11q7 0 7 -7q0 -2 -7 -8t-15 -12q-36 -25 -51 -45l-21 -22l-22 -22q-29 -26 -26 -26t-26 26zM51 715q-12 12 -12 29q0 18 12.5 30.5t30.5 12.5q17 0 30.5 -12.5
t13.5 -30.5q0 -17 -12 -29t-32 -12q-19 0 -31 12zM238.5 715q-12.5 12 -12.5 29q0 18 13 30.5t31 12.5q17 0 30.5 -12.5t13.5 -30.5q0 -17 -12 -29t-32 -12q-19 0 -31.5 12z" />
  </g>

</svg>
