<?xml version="1.0" standalone="no"?>
<!DOCTYPE svg PUBLIC "-//W3C//DTD SVG 1.1//EN" "http://www.w3.org/Graphics/SVG/1.1/DTD/svg11.dtd" >
<svg xmlns="http://www.w3.org/2000/svg" xmlns:xlink="http://www.w3.org/1999/xlink" version="1.1" viewBox="-10 0 676 1000">
  <g transform="matrix(1 0 0 -1 0 800)">
   <path fill="currentColor"
d="M508.5 3.5q-15.5 13.5 -15.5 35.5t15.5 36t37.5 14q23 0 38 -14t15 -36t-15 -35.5t-38 -13.5q-22 0 -37.5 13.5zM82 3.5q-15 13.5 -15 35.5t15 36t38 14q22 0 37 -14t15 -36t-15 -35.5t-37 -13.5q-23 0 -38 13.5zM295.5 3.5q-15.5 13.5 -15.5 35.5t15 36t38 14
q22 0 37.5 -14t15.5 -36t-15.5 -35.5t-37.5 -13.5t-37.5 13.5z" />
  </g>

</svg>
