<?xml version="1.0" standalone="no"?>
<!DOCTYPE svg PUBLIC "-//W3C//DTD SVG 1.1//EN" "http://www.w3.org/Graphics/SVG/1.1/DTD/svg11.dtd" >
<svg xmlns="http://www.w3.org/2000/svg" xmlns:xlink="http://www.w3.org/1999/xlink" version="1.1" viewBox="-10 0 529 1000">
  <g transform="matrix(1 0 0 -1 0 800)">
   <path fill="currentColor"
d="M80 20q13 3 13 19v338q0 17 -13 20l-38 -2v23h122q-5 -15 -5 -35v-55q21 47 60 73.5t88 26.5q73 0 104.5 -33t31.5 -109v-247h-66v221q0 76 -14.5 109t-61.5 33q-65 0 -101 -48t-41 -126v-189q0 -19 13 -19l50 2v-22h-180v22zM242.5 -224q-24.5 19 -24.5 44q0 17 11.5 27
t28.5 10q9 0 17.5 -4t8.5 -16q0 -5 -3 -16t-3 -15q0 -25 35 -25q65 -1 62 96q1 37 2 54v266h66v-197q0 -243 -136 -243q-40 0 -64.5 19z" />
  </g>

</svg>
