<?xml version="1.0" standalone="no"?>
<!DOCTYPE svg PUBLIC "-//W3C//DTD SVG 1.1//EN" "http://www.w3.org/Graphics/SVG/1.1/DTD/svg11.dtd" >
<svg xmlns="http://www.w3.org/2000/svg" xmlns:xlink="http://www.w3.org/1999/xlink" version="1.1" viewBox="-10 0 539 1000">
  <g transform="matrix(1 0 0 -1 0 800)">
   <path fill="currentColor"
d="M97 23q18 0 18 22v97h-60v26h60v383q0 21 -17 21h-2l-41 -2v27h425q12 0 15 1v-155h-23q0 68 -34 98.5t-108 30.5h-130q-12 0 -12 -13v-244h78q36 0 57.5 27.5t21.5 74.5h24v-227h-24q0 45 -22 72.5t-57 27.5h-78v-122h118v-26h-118v-98q0 -9 5.5 -15t13.5 -6l52 3v-26
h-204v26z" />
  </g>

</svg>
