<?xml version="1.0" standalone="no"?>
<!DOCTYPE svg PUBLIC "-//W3C//DTD SVG 1.1//EN" "http://www.w3.org/Graphics/SVG/1.1/DTD/svg11.dtd" >
<svg xmlns="http://www.w3.org/2000/svg" xmlns:xlink="http://www.w3.org/1999/xlink" version="1.1" viewBox="-10 0 456 1000">
  <g transform="matrix(1 0 0 -1 0 800)">
   <path fill="currentColor"
d="M75.5 -210q-45.5 35 -45.5 103q0 78 86 116q-69 12 -69 60q0 18 11 30t36 32l25 20q-58 46 -58 122q0 68 44 111.5t113 43.5q74 0 117 -41.5t43 -114.5q0 -66 -44.5 -109.5t-115.5 -43.5q-42 0 -77 17q-40 -22 -40 -47q0 -39 55 -39h148q66 0 99 -30.5t33 -103.5
q0 -71 -64 -116t-166 -45q-85 0 -130.5 35zM341 -182.5q48 39.5 48 105.5q0 41 -24 61.5t-76 20.5h-100q-50 4 -89.5 -32t-39.5 -81q0 -51 36 -82.5t105 -31.5q92 0 140 39.5zM290 168.5q19 30.5 19 104.5q0 72 -19.5 101.5t-70.5 29.5t-70 -28t-19 -102q0 -65 14 -100.5
t75 -35.5q52 0 71 30.5zM342.5 411q20.5 9 20.5 34q0 10 -14 19t-14 24q0 36 38 36q42 0 42 -47q0 -76 -90 -87l-33 25q30 -13 50.5 -4zM125.5 553q-33.5 32 -42.5 89h27q8 -34 36 -56t72 -22q42 0 71.5 23t37.5 55h27q-9 -57 -43 -89t-93 -32t-92.5 32z" />
  </g>

</svg>
