<?xml version="1.0" standalone="no"?>
<!DOCTYPE svg PUBLIC "-//W3C//DTD SVG 1.1//EN" "http://www.w3.org/Graphics/SVG/1.1/DTD/svg11.dtd" >
<svg xmlns="http://www.w3.org/2000/svg" xmlns:xlink="http://www.w3.org/1999/xlink" version="1.1" viewBox="-10 0 273 1000">
  <g transform="matrix(1 0 0 -1 0 800)">
   <path fill="currentColor"
d="M80 20q13 3 13 19v651q0 17 -12 21l-38 -2v22h116v-692q0 -18 13 -19l38 2v-22h-168v22zM51 767q0 1 19 21l95 104q15 17 20.5 21t15.5 4q17 0 34.5 -8.5t17.5 -12.5q0 -5 -9 -11l-161 -116q-11 -9 -18 -9q-14 0 -14 7z" />
  </g>

</svg>
