<?xml version="1.0" standalone="no"?>
<!DOCTYPE svg PUBLIC "-//W3C//DTD SVG 1.1//EN" "http://www.w3.org/Graphics/SVG/1.1/DTD/svg11.dtd" >
<svg xmlns="http://www.w3.org/2000/svg" xmlns:xlink="http://www.w3.org/1999/xlink" version="1.1" viewBox="-10 0 492 1000">
  <g transform="matrix(1 0 0 -1 0 800)">
   <path fill="currentColor"
d="M59 -218q13 1 13 20v575q0 20 -13 20l-37 -2v23h120q-4 -25 -4 -51v-31q14 43 49 67.5t83 24.5q85 0 128.5 -57.5t43.5 -162.5q0 -109 -46.5 -163.5t-143.5 -54.5q-41 0 -70.5 13.5t-43.5 41.5v-243q0 -20 13 -20l62 2v-23h-187v23zM329 26.5q24 17.5 33.5 60.5t9.5 121
t-8 120t-30 61.5t-63 19.5q-61 0 -96 -50.5t-35 -133.5v-42q0 -174 124 -174q41 0 65 17.5z" />
  </g>

</svg>
