<?xml version="1.0" standalone="no"?>
<!DOCTYPE svg PUBLIC "-//W3C//DTD SVG 1.1//EN" "http://www.w3.org/Graphics/SVG/1.1/DTD/svg11.dtd" >
<svg xmlns="http://www.w3.org/2000/svg" xmlns:xlink="http://www.w3.org/1999/xlink" version="1.1" viewBox="-10 0 504 1000">
  <g transform="matrix(1 0 0 -1 0 800)">
   <path fill="currentColor"
d="M148 248q-46 26 -73 69.5t-27 96.5q0 54 27 98.5t73 69.5t99 25t99 -25t73 -69.5t27 -98.5q0 -53 -27 -96.5t-73 -69.5t-99 -26t-99 26zM364.5 290q53.5 44 53.5 124q0 82 -53.5 125.5t-118.5 43.5t-118 -43.5t-53 -125.5q0 -80 53 -124t118 -44t118.5 44zM167 331
q6 0 6 7v155q0 7 -8 7h-7v14h89q39 0 58 -11.5t19 -36.5q0 -22 -14.5 -35t-39.5 -18q23 0 41.5 -16t18.5 -43q0 -31 21 -24v-13h-32q-40 0 -40 28v17q0 44 -46 44h-6v-68q0 -7 6 -7h18v-14h-93v14h9zM266 431q6 11 6 31q0 38 -32 38h-8q-5 0 -5 -3v-77h22q11 0 17 11z" />
  </g>

</svg>
