<?xml version="1.0" standalone="no"?>
<!DOCTYPE svg PUBLIC "-//W3C//DTD SVG 1.1//EN" "http://www.w3.org/Graphics/SVG/1.1/DTD/svg11.dtd" >
<svg xmlns="http://www.w3.org/2000/svg" xmlns:xlink="http://www.w3.org/1999/xlink" version="1.1" viewBox="-10 0 419 1000">
  <g transform="matrix(1 0 0 -1 0 800)">
   <path fill="currentColor"
d="M111 -198l4 20q12 -13 35 -13q25 0 42 16.5t17 41.5q0 21 -34 39l-23 14q-11 8 -11 15t6 13l41 52h30l-29 -46q-6 -11 -6 -19q0 -6 6.5 -9t21.5 -7q27 -6 40 -14.5t13 -26.5q0 -43 -19.5 -67.5t-64.5 -24.5q-44 0 -69 16zM169 -5.5q-22 4.5 -66 17.5q-15 4 -27 4
q-19 0 -28 -6l5 132l22 2q0 -55 42 -93t103 -38q44 0 67 23t23 61q0 30 -17 50t-56 32l-107 30q-32 10 -53 36.5t-21 64.5q0 52 40.5 85t108.5 33q19 0 34 -3t37 -10q30 -9 44 -9q15 0 27 8l-6 -114h-18q0 41 -31.5 72.5t-85.5 31.5q-41 0 -64 -22t-23 -57q0 -53 65 -71
l108 -31q43 -13 62 -38t19 -65q0 -63 -45 -96.5t-117 -33.5q-20 0 -42 4.5z" />
  </g>

</svg>
