<?xml version="1.0" standalone="no"?>
<!DOCTYPE svg PUBLIC "-//W3C//DTD SVG 1.1//EN" "http://www.w3.org/Graphics/SVG/1.1/DTD/svg11.dtd" >
<svg xmlns="http://www.w3.org/2000/svg" xmlns:xlink="http://www.w3.org/1999/xlink" version="1.1" viewBox="-10 0 507 1000">
  <g transform="matrix(1 0 0 -1 0 800)">
   <path fill="currentColor"
d="M111.5 62q-48.5 73 -48.5 211q0 152 58.5 243t173.5 91q58 0 97 -25t39 -67q0 -21 -13 -35.5t-35 -14.5q-16 0 -26.5 8.5t-10.5 23.5q0 12 4 20t4 13q0 22 -20.5 37.5t-50.5 15.5q-72 0 -113 -74.5t-40 -227.5q48 100 149 100q85 0 133.5 -49t48.5 -131
q0 -97 -55.5 -154.5t-147.5 -57.5q-98 0 -146.5 73zM362.5 54q31.5 42 31.5 125q0 87 -31.5 132t-91.5 45q-40 0 -72.5 -24.5t-50.5 -64t-18 -84.5q0 -46 17 -85.5t49 -62.5t73 -23q62 0 93.5 42z" />
  </g>

</svg>
