<?xml version="1.0" standalone="no"?>
<!DOCTYPE svg PUBLIC "-//W3C//DTD SVG 1.1//EN" "http://www.w3.org/Graphics/SVG/1.1/DTD/svg11.dtd" >
<svg xmlns="http://www.w3.org/2000/svg" xmlns:xlink="http://www.w3.org/1999/xlink" version="1.1" viewBox="-10 0 527 1000">
  <g transform="matrix(1 0 0 -1 0 800)">
   <path fill="currentColor"
d="M141.5 -130.5q-40.5 19.5 -59.5 48.5t-19 59q0 43 42 43q18 0 29.5 -9.5t11.5 -24.5q0 -8 -2 -15.5t-3 -10.5q-6 -16 -6 -27q0 -15 16 -29t38 -22.5t39 -8.5q164 0 164 143q0 67 -47 102.5t-157 35.5v25q91 11 130 48.5t39 113.5q0 102 -114 102q-46 0 -73 -18t-27 -48
q0 -11 6 -23t6 -23q0 -15 -12 -24.5t-30 -9.5q-42 0 -42 46q0 36 28 64.5t70.5 44t85.5 15.5q74 0 123.5 -35.5t49.5 -94.5q0 -128 -171 -164v-1q95 -1 152 -42t57 -106q0 -83 -61.5 -128.5t-161.5 -45.5q-61 0 -101.5 19.5z" />
  </g>

</svg>
