<?xml version="1.0" standalone="no"?>
<!DOCTYPE svg PUBLIC "-//W3C//DTD SVG 1.1//EN" "http://www.w3.org/Graphics/SVG/1.1/DTD/svg11.dtd" >
<svg xmlns="http://www.w3.org/2000/svg" xmlns:xlink="http://www.w3.org/1999/xlink" version="1.1" viewBox="-10 0 530 1000">
  <g transform="matrix(1 0 0 -1 0 800)">
   <path fill="currentColor"
d="M103.5 27.5q-29.5 37.5 -29.5 124.5v224q0 21 -13 21l-37 -2v23h116v-263q0 -75 13.5 -106.5t55.5 -31.5q64 0 104 39.5t47 114.5l1 204q0 22 -12 22l-50 -2v23h129v-379q0 -19 13 -19l38 2v-22h-124q5 11 5 84v-1q-42 -93 -159 -93q-68 0 -97.5 37.5zM81 501q0 3 7.5 9
t16.5 13q37 30 56 50l23 24l24 24q32 28 29 28q-2 0 29 -28l24 -24l23 -24q19 -20 56 -50q9 -7 16.5 -13t7.5 -9q0 -8 -8 -8q-6 0 -25 12l-123 78l-122 -78q-19 -12 -26 -12q-8 0 -8 8z" />
  </g>

</svg>
