<?xml version="1.0" standalone="no"?>
<!DOCTYPE svg PUBLIC "-//W3C//DTD SVG 1.1//EN" "http://www.w3.org/Graphics/SVG/1.1/DTD/svg11.dtd" >
<svg xmlns="http://www.w3.org/2000/svg" xmlns:xlink="http://www.w3.org/1999/xlink" version="1.1" viewBox="-10 0 530 1000">
  <g transform="matrix(1 0 0 -1 0 800)">
   <path fill="currentColor"
d="M103.5 27.5q-29.5 37.5 -29.5 124.5v224q0 21 -13 21l-37 -2v23h116v-263q0 -75 13.5 -106.5t55.5 -31.5q64 0 104 39.5t47 114.5l1 204q0 22 -12 22l-50 -2v23h129v-379q0 -19 13 -19l38 2v-22h-124q5 11 5 84v-1q-42 -93 -159 -93q-68 0 -97.5 37.5zM289 501q0 2 3 8
l9 10q70 120 75 125q4 5 6.5 7t6.5 2t16 -4t20 -8q9 -4 9 -12q0 -4 -6 -12l-119 -120q-3 -4 -11 -4q-11 0 -9 8zM173 501q0 2 3 8l15 22q64 109 68 113q4 5 6.5 7t6.5 2t16.5 -4t19.5 -8q9 -4 9 -12q0 -4 -6 -12q-10 -12 -119 -120q-3 -4 -11 -4q-11 0 -8 8z" />
  </g>

</svg>
