<?xml version="1.0" standalone="no"?>
<!DOCTYPE svg PUBLIC "-//W3C//DTD SVG 1.1//EN" "http://www.w3.org/Graphics/SVG/1.1/DTD/svg11.dtd" >
<svg xmlns="http://www.w3.org/2000/svg" xmlns:xlink="http://www.w3.org/1999/xlink" version="1.1" viewBox="-10 0 676 1000">
  <g transform="matrix(1 0 0 -1 0 800)">
   <path fill="currentColor"
d="M126.5 71q-74.5 81 -74.5 228q0 149 74.5 228.5t206.5 79.5q135 0 208.5 -81t73.5 -227q0 -147 -74.5 -228t-207.5 -81q-132 0 -206.5 81zM485 82q50 69 50 217q0 147 -50 215.5t-152 68.5t-151.5 -68.5t-49.5 -215.5q0 -148 49.5 -217t151.5 -69t152 69zM333 699
q-61 22 -86 22q-14 0 -23.5 -12.5t-9.5 -30.5h-16q0 33 19.5 60t44.5 27q27 0 87 -22q62 -23 85 -23q14 0 23.5 13t9.5 31h17q0 -33 -19.5 -60t-44.5 -27q-22 0 -87 22zM457 854v-37h-239v37h239z" />
  </g>

</svg>
