<?xml version="1.0" standalone="no"?>
<!DOCTYPE svg PUBLIC "-//W3C//DTD SVG 1.1//EN" "http://www.w3.org/Graphics/SVG/1.1/DTD/svg11.dtd" >
<svg xmlns="http://www.w3.org/2000/svg" xmlns:xlink="http://www.w3.org/1999/xlink" version="1.1" viewBox="-10 0 1125 1000">
  <g transform="matrix(1 0 0 -1 0 800)">
   <path fill="currentColor"
d="M99 23q16 1 16 22v506q0 9 -5 15t-14 6l-41 -2v27h216q157 0 233 -70t76 -228q0 -299 -297 -299h-228v25zM397.5 52.5q53.5 28.5 77.5 89t24 156.5t-24 156t-78.5 89t-142.5 29h-54q-12 0 -12 -13v-522q0 -13 12 -13h54q90 0 143.5 28.5zM973 0h-320v27l322 545h-166
q-72 0 -106.5 -31t-34.5 -98h-24v157l57 -1q33 -2 52 -2h305v-24l-326 -550h189q69 0 109.5 39t40.5 105h23l-8 -171q-12 4 -113 4zM822 696l-24 24l-23 24q-19 20 -56 50q-9 7 -16.5 13t-7.5 9q0 8 8 8q6 0 25 -12l123 -78l122 78q19 12 26 12q8 0 8 -8q0 -3 -7.5 -9
t-16.5 -13q-37 -30 -56 -50l-23 -24l-24 -24q-32 -28 -29 -28q2 0 -29 28z" />
  </g>

</svg>
