<?xml version="1.0" standalone="no"?>
<!DOCTYPE svg PUBLIC "-//W3C//DTD SVG 1.1//EN" "http://www.w3.org/Graphics/SVG/1.1/DTD/svg11.dtd" >
<svg xmlns="http://www.w3.org/2000/svg" xmlns:xlink="http://www.w3.org/1999/xlink" version="1.1" viewBox="-10 0 318 1000">
  <g transform="matrix(1 0 0 -1 0 800)">
   <path fill="currentColor"
d="M107.5 19.5q-15.5 24.5 -15.5 79.5v297h-60v22q40 0 61 7.5t33.5 28.5t23.5 66h8v-102h115v-22h-115v-308q0 -39 9 -53t33 -14q17 0 34 12t21 28l18 -12q-18 -54 -104 -54q-46 0 -61.5 24.5zM148 -158.5q15 18.5 15 31.5q0 29 -28 29q-10 0 -17.5 9t-7.5 19q0 14 11 25
t30 11q24 0 38 -16.5t14 -38.5q0 -35 -22.5 -64t-54.5 -43l-14 9q21 10 36 28.5z" />
  </g>

</svg>
