<?xml version="1.0" standalone="no"?>
<!DOCTYPE svg PUBLIC "-//W3C//DTD SVG 1.1//EN" "http://www.w3.org/Graphics/SVG/1.1/DTD/svg11.dtd" >
<svg xmlns="http://www.w3.org/2000/svg" xmlns:xlink="http://www.w3.org/1999/xlink" version="1.1" viewBox="-10 0 676 1000">
  <g transform="matrix(1 0 0 -1 0 800)">
   <path fill="currentColor"
d="M126.5 71q-74.5 81 -74.5 228q0 149 74.5 228.5t206.5 79.5q135 0 208.5 -81t73.5 -227q0 -147 -74.5 -228t-207.5 -81q-132 0 -206.5 81zM485 82q50 69 50 217q0 147 -50 215.5t-152 68.5t-151.5 -68.5t-49.5 -215.5q0 -148 49.5 -217t151.5 -69t152 69zM304 696l-24 24
l-23 24q-19 20 -56 50q-9 7 -16.5 13t-7.5 9q0 8 8 8q6 0 25 -12l123 -78l122 78q19 12 26 12q8 0 8 -8q0 -3 -7.5 -9t-16.5 -13q-37 -30 -56 -50l-23 -24l-24 -24q-32 -28 -29 -28q2 0 -29 28z" />
  </g>

</svg>
