<?xml version="1.0" standalone="no"?>
<!DOCTYPE svg PUBLIC "-//W3C//DTD SVG 1.1//EN" "http://www.w3.org/Graphics/SVG/1.1/DTD/svg11.dtd" >
<svg xmlns="http://www.w3.org/2000/svg" xmlns:xlink="http://www.w3.org/1999/xlink" version="1.1" viewBox="-10 0 530 1000">
  <g transform="matrix(1 0 0 -1 0 800)">
   <path fill="currentColor"
d="M103.5 27.5q-29.5 37.5 -29.5 124.5v224q0 21 -13 21l-37 -2v23h116v-263q0 -75 13.5 -106.5t55.5 -31.5q64 0 104 39.5t47 114.5l1 204q0 22 -12 22l-50 -2v23h129v-379q0 -19 13 -19l38 2v-22h-124q5 11 5 84v-1q-42 -93 -159 -93q-68 0 -97.5 37.5zM217 669
q-1 4 18 23l63 65q15 16 20 19.5t14 3.5q15 0 31 -7.5t16 -12.5t-8 -10l-99 -69q-26 -18 -38 -18q-17 0 -17 6zM112 566q-12 12 -12 29q0 18 12.5 30.5t30.5 12.5q17 0 30.5 -12.5t13.5 -30.5q0 -17 -12 -29t-32 -12q-19 0 -31 12zM299.5 566q-12.5 12 -12.5 29
q0 18 13 30.5t31 12.5q17 0 30.5 -12.5t13.5 -30.5q0 -17 -12 -29t-32 -12q-19 0 -31.5 12z" />
  </g>

</svg>
