<?xml version="1.0" standalone="no"?>
<!DOCTYPE svg PUBLIC "-//W3C//DTD SVG 1.1//EN" "http://www.w3.org/Graphics/SVG/1.1/DTD/svg11.dtd" >
<svg xmlns="http://www.w3.org/2000/svg" xmlns:xlink="http://www.w3.org/1999/xlink" version="1.1" viewBox="-10 0 770 1000">
  <g transform="matrix(1 0 0 -1 0 800)">
   <path fill="currentColor"
d="M368 0h-313v26l45 -3q15 0 15 22v506q0 9 -5.5 15.5t-13.5 5.5l-41 -2v27h202v-27l-49 2h-2q-8 0 -13 -6t-5 -15v-514q0 -13 12 -13h126q71 0 107 37.5t36 109.5h23v-174q-18 3 -124 3zM473.5 -224q-24.5 19 -24.5 44q0 17 11 27t28 10q10 0 18.5 -4t8.5 -16q0 -5 -3 -16
t-3 -15q0 -25 35 -25q65 -1 62 96q1 37 1 54v446q0 20 -13 20l-44 -2v23h123v-418q0 -243 -136 -243q-39 0 -63.5 19zM601.5 566q-11.5 11 -11.5 30q0 20 12.5 30.5t31.5 10.5q20 0 32.5 -11.5t12.5 -29.5q0 -20 -13 -30.5t-32 -10.5q-21 0 -32.5 11z" />
  </g>

</svg>
