<?xml version="1.0" standalone="no"?>
<!DOCTYPE svg PUBLIC "-//W3C//DTD SVG 1.1//EN" "http://www.w3.org/Graphics/SVG/1.1/DTD/svg11.dtd" >
<svg xmlns="http://www.w3.org/2000/svg" xmlns:xlink="http://www.w3.org/1999/xlink" version="1.1" viewBox="-10 0 569 1000">
  <g transform="matrix(1 0 0 -1 0 800)">
   <path fill="currentColor"
d="M431 0h-376v26l42 -3q18 0 18 22v506q0 9 -5.5 15.5t-14.5 5.5l-40 -2v27h413q14 0 17 1v-155h-23q0 69 -33.5 99t-108.5 30h-120q-12 0 -12 -14v-233h103q34 0 55 27t21 74h24v-229h-24q0 45 -22.5 74t-53.5 29h-103v-263q0 -13 12 -13h153q68 0 103.5 40t35.5 115h23
v-182q-22 3 -84 3zM294 699q-61 22 -86 22q-14 0 -23.5 -12.5t-9.5 -30.5h-16q0 33 19.5 60t44.5 27q27 0 87 -22q62 -23 85 -23q14 0 23.5 13t9.5 31h17q0 -33 -19.5 -60t-44.5 -27q-22 0 -87 22z" />
  </g>

</svg>
