<?xml version="1.0" standalone="no"?>
<!DOCTYPE svg PUBLIC "-//W3C//DTD SVG 1.1//EN" "http://www.w3.org/Graphics/SVG/1.1/DTD/svg11.dtd" >
<svg xmlns="http://www.w3.org/2000/svg" xmlns:xlink="http://www.w3.org/1999/xlink" version="1.1" viewBox="-10 0 452 1000">
  <g transform="matrix(1 0 0 -1 0 800)">
   <path fill="currentColor"
d="M65.5 18.5q-32.5 28.5 -32.5 84.5q0 79 65 116t203 37v58q0 51 -26 70.5t-79 19.5q-81 0 -81 -42q0 -6 4.5 -16t4.5 -20q0 -15 -9 -22t-23 -7q-18 0 -27 11.5t-9 30.5q0 39 41.5 64t110.5 25q159 0 159 -145v-244q0 -19 13 -19l38 2v-22h-124q4 18 4 37l3 45
q-39 -92 -140 -92q-63 0 -95.5 28.5zM264 59q35 45 37 109v65q-106 0 -151.5 -28.5t-45.5 -95.5q0 -100 75 -95q50 0 85 45zM63 501q0 3 7.5 9t16.5 13q37 30 56 50l23 24l24 24q31 28 29 28q-3 0 29 -28l24 -24l23 -24q19 -20 56 -50q9 -7 16.5 -13t7.5 -9q0 -8 -8 -8
q-7 0 -26 12l-122 78l-123 -78q-19 -12 -25 -12q-8 0 -8 8zM202 708l-100 68q-7 6 -7 10q0 5 16 12.5t31 7.5q9 0 14 -3.5t20 -19.5l63 -65q19 -19 18 -22q0 -6 -17 -6q-12 0 -38 18z" />
  </g>

</svg>
