<?xml version="1.0" standalone="no"?>
<!DOCTYPE svg PUBLIC "-//W3C//DTD SVG 1.1//EN" "http://www.w3.org/Graphics/SVG/1.1/DTD/svg11.dtd" >
<svg xmlns="http://www.w3.org/2000/svg" xmlns:xlink="http://www.w3.org/1999/xlink" version="1.1" viewBox="-10 0 529 1000">
  <g transform="matrix(1 0 0 -1 0 800)">
   <path fill="currentColor"
d="M80 20q13 3 13 19v650q0 23 -13 22l-38 -2v21h117v-402q21 47 60 73.5t88 26.5q73 0 104.5 -33t31.5 -109v-247q0 -19 13 -19l39 2v-22h-181v22l50 -2q13 3 13 19v221q0 90 -17 116t-59 26q-62 0 -99.5 -45.5t-42.5 -128.5v-189q0 -19 13 -19l50 2v-22h-180v22zM240 -153
q-12 12 -12 30q0 17 13 29.5t31 12.5q17 0 30 -12.5t13 -29.5q0 -18 -12 -30t-31 -12q-20 0 -32 12z" />
  </g>

</svg>
