<?xml version="1.0" standalone="no"?>
<!DOCTYPE svg PUBLIC "-//W3C//DTD SVG 1.1//EN" "http://www.w3.org/Graphics/SVG/1.1/DTD/svg11.dtd" >
<svg xmlns="http://www.w3.org/2000/svg" xmlns:xlink="http://www.w3.org/1999/xlink" version="1.1" viewBox="-23 0 741 1000">
  <g transform="matrix(1 0 0 -1 0 800)">
   <path fill="currentColor"
d="M35 397l-48 -2v23h195v-23l-44 2h-2q-9 0 -12.5 -6t-0.5 -14l99 -281l144 327h9l139 -321l101 278l2 8q0 10 -13 9l-53 -2v23h157v-23l-42 2q-16 0 -21 -17l-150 -390h-11l-139 324l-143 -324h-9l-141 394q-6 13 -17 13z" />
  </g>

</svg>
