<?xml version="1.0" standalone="no"?>
<!DOCTYPE svg PUBLIC "-//W3C//DTD SVG 1.1//EN" "http://www.w3.org/Graphics/SVG/1.1/DTD/svg11.dtd" >
<svg xmlns="http://www.w3.org/2000/svg" xmlns:xlink="http://www.w3.org/1999/xlink" version="1.1" viewBox="-10 0 546 1000">
  <g transform="matrix(1 0 0 -1 0 800)">
   <path fill="currentColor"
d="M382 0h-360l4 26l42 -3q15 0 18 22l71 506v6q0 15 -15 15l-39 -2l3 27h395q13 0 19 2l-22 -156h-27q4 17 4 34q0 49 -28.5 72t-89.5 23h-117q-9 0 -11 -14l-32 -233h99q29 0 52.5 27t30.5 74h28l-33 -229h-28q2 20 2 25q0 35 -16 56.5t-40 21.5h-98l-38 -263v-3
q0 -10 8 -10h148q63 0 102 40t49 115h26l-25 -182q-22 3 -82 3zM309 696l-34 48q-19 25 -52 56q-14 13 -14 16q0 8 13 8q8 0 25 -12l96 -76l120 76q24 12 27 12q11 0 11 -7q0 -3 -24 -21q-49 -40 -62 -52l-48 -48q-32 -28 -34 -28q-4 0 -24 28z" />
  </g>

</svg>
