<?xml version="1.0" standalone="no"?>
<!DOCTYPE svg PUBLIC "-//W3C//DTD SVG 1.1//EN" "http://www.w3.org/Graphics/SVG/1.1/DTD/svg11.dtd" >
<svg xmlns="http://www.w3.org/2000/svg" xmlns:xlink="http://www.w3.org/1999/xlink" version="1.1" viewBox="-10 0 546 1000">
  <g transform="matrix(1 0 0 -1 0 800)">
   <path fill="currentColor"
d="M382 0h-360l4 26l42 -3q15 0 18 22l71 506v6q0 15 -15 15l-39 -2l3 27h395q13 0 19 2l-22 -156h-27q4 17 4 34q0 49 -28.5 72t-89.5 23h-117q-9 0 -11 -14l-32 -233h99q29 0 52.5 27t30.5 74h28l-33 -229h-28q2 20 2 25q0 35 -16 56.5t-40 21.5h-98l-38 -263v-3
q0 -10 8 -10h148q63 0 102 40t49 115h26l-25 -182q-22 3 -82 3zM394 686.5q-11 9.5 -11 26.5q0 20 15 33t37 13q17 0 26.5 -9.5t9.5 -26.5q0 -21 -13.5 -33.5t-35.5 -12.5q-17 0 -28 9.5zM229 686.5q-11 9.5 -11 26.5q0 20 15 33t36 13q18 0 27.5 -9.5t9.5 -26.5
q0 -21 -14 -33.5t-35 -12.5q-17 0 -28 9.5z" />
  </g>

</svg>
