<?xml version="1.0" standalone="no"?>
<!DOCTYPE svg PUBLIC "-//W3C//DTD SVG 1.1//EN" "http://www.w3.org/Graphics/SVG/1.1/DTD/svg11.dtd" >
<svg xmlns="http://www.w3.org/2000/svg" xmlns:xlink="http://www.w3.org/1999/xlink" version="1.1" viewBox="-10 0 647 1000">
  <g transform="matrix(1 0 0 -1 0 800)">
   <path fill="currentColor"
d="M134.5 43q-79.5 53 -79.5 194q0 145 60 235t129.5 112.5t128.5 22.5q83 0 158 -51.5t75 -194.5q0 -163 -59.5 -244.5t-130.5 -104t-130 -22.5q-72 0 -151.5 53zM478 129q50 100 50 246q0 119 -39 163.5t-132 44.5q-127 0 -182 -132q-44 -103 -43 -224q-1 -117 36 -165.5
t133 -48.5q120 0 177 116zM421 673q0 4 3 9q23 29 96 135q6 6 9 7.5t8 1.5q12 0 28.5 -8.5t12.5 -14.5q-2 -1 -8 -13q-17 -28 -125 -120q-4 -4 -13 -4q-11 0 -11 7zM316 673q0 5 4 9q40 57 94 135q6 9 17 9q14 0 28 -9t14 -15q0 -2 -9 -12q-5 -8 -125 -120q-2 -4 -13 -4
q-10 0 -10 7z" />
  </g>

</svg>
