<?xml version="1.0" standalone="no"?>
<!DOCTYPE svg PUBLIC "-//W3C//DTD SVG 1.1//EN" "http://www.w3.org/Graphics/SVG/1.1/DTD/svg11.dtd" >
<svg xmlns="http://www.w3.org/2000/svg" xmlns:xlink="http://www.w3.org/1999/xlink" version="1.1" viewBox="-10 0 647 1000">
  <g transform="matrix(1 0 0 -1 0 800)">
   <path fill="currentColor"
d="M134.5 43q-79.5 53 -79.5 194q0 145 60 235t129.5 112.5t128.5 22.5q83 0 158 -51.5t75 -194.5q0 -163 -59.5 -244.5t-130.5 -104t-130 -22.5q-72 0 -151.5 53zM478 129q50 100 50 246q0 119 -39 163.5t-132 44.5q-127 0 -182 -132q-44 -103 -43 -224q-1 -117 36 -165.5
t133 -48.5q120 0 177 116zM582 675l31 -17l-80 -108l-474 -649l-30 14zM330 675q0 3 11.5 13.5t8.5 8.5l107 109q10 12 16 16t17 4q17 0 33.5 -8t16.5 -14q0 -1 -7 -9l-168 -117q-11 -9 -19 -9q-16 0 -16 6z" />
  </g>

</svg>
