<?xml version="1.0" standalone="no"?>
<!DOCTYPE svg PUBLIC "-//W3C//DTD SVG 1.1//EN" "http://www.w3.org/Graphics/SVG/1.1/DTD/svg11.dtd" >
<svg xmlns="http://www.w3.org/2000/svg" xmlns:xlink="http://www.w3.org/1999/xlink" version="1.1" viewBox="-10 0 481 1000">
  <g transform="matrix(1 0 0 -1 0 800)">
   <path fill="currentColor"
d="M106 12q-24 6 -33 6q-13 0 -29 -3.5t-22 -5.5q25 45 25 160v35l24 -1q-8 -189 151 -189q47 0 84.5 36t37.5 86q0 49 -27 80t-76 59l-40 23q-56 32 -85.5 64.5t-29.5 87.5q0 39 23.5 76t69 59t104.5 22q27 0 47.5 -5.5t66.5 -23.5q15 -6 24 -6q17 0 32 5
q-14 -34 -16.5 -58.5t-2.5 -60.5v-24h-25q2 20 2 25q0 56 -34 90t-88 34q-57 0 -92 -28.5t-37 -74.5q0 -41 26 -67.5t74 -55.5l63 -35q46 -27 74 -63.5t28 -88.5q0 -53 -30 -94.5t-75.5 -63.5t-121.5 -22q-26 4 -92 22zM276 695l35 105q7 22 11 28t12 11q16 9 36 10t21 -2
q3 -5 -5 -14l-90 -147q-7 -14 -14 -17q-11 -6 -16 -2q0 2 10 28z" />
  </g>

</svg>
