<?xml version="1.0" standalone="no"?>
<!DOCTYPE svg PUBLIC "-//W3C//DTD SVG 1.1//EN" "http://www.w3.org/Graphics/SVG/1.1/DTD/svg11.dtd" >
<svg xmlns="http://www.w3.org/2000/svg" xmlns:xlink="http://www.w3.org/1999/xlink" version="1.1" viewBox="-10 0 656 1000">
  <g transform="matrix(1 0 0 -1 0 800)">
   <path fill="currentColor"
d="M37.5 22q-24.5 32 -24.5 78q0 70 56 142t145 119t183 47h37q37 20 75 20q50 0 85 -29.5t35 -70.5q0 -35 -28.5 -67t-91.5 -53.5t-160 -27.5l-2 -32q0 -49 22 -80t55 -31q35 0 137 58l22 -15q-42 -38 -85.5 -63.5t-85.5 -25.5q-57 0 -96.5 43t-39.5 112
q-67 -156 -170 -156q-44 0 -68.5 32zM209 88q45 53 75 126q13 41 42.5 88t68.5 80q-77 -1 -138.5 -32.5t-107.5 -82.5q-65 -77 -65 -158q0 -25 10.5 -49.5t29.5 -24.5q40 0 85 53zM516 249.5q58 33.5 58 80.5q0 29 -17 49.5t-48 20.5q-73 0 -120 -81q-28 -52 -36 -107
q105 4 163 37.5z" />
  </g>

</svg>
