<?xml version="1.0" standalone="no"?>
<!DOCTYPE svg PUBLIC "-//W3C//DTD SVG 1.1//EN" "http://www.w3.org/Graphics/SVG/1.1/DTD/svg11.dtd" >
<svg xmlns="http://www.w3.org/2000/svg" xmlns:xlink="http://www.w3.org/1999/xlink" version="1.1" viewBox="-10 0 600 1000">
  <g transform="matrix(1 0 0 -1 0 800)">
   <path fill="currentColor"
d="M130.5 13q-52.5 22 -83 62t-30.5 93q0 47 25.5 88.5t76.5 68t124 27.5q-35 20 -58.5 52t-23.5 71q0 40 25 70t63.5 46t78.5 16q46 0 72.5 -22t26.5 -49q0 -20 -13 -31t-25 -11q-8 0 -18.5 7.5t-10.5 20.5q0 7 5 16t5 17q0 17 -12.5 24.5t-36.5 7.5q-46 0 -73 -28.5
t-27 -81.5q0 -48 20 -77.5t61 -44.5l-3 -20q-13 2 -37 2q-58 0 -98.5 -26t-60.5 -67t-20 -85q0 -68 47 -107t125 -39q77 0 140 38.5t63 110.5q0 38 -22.5 60.5t-59.5 22.5q-86 0 -86 -69q0 -9 -0.5 -14.5t-0.5 -11.5q0 -17 -8.5 -24.5t-21.5 -7.5q-33 0 -33 43
q0 50 43.5 75.5t111.5 33.5l8 1q44 5 78 16.5t34 46.5q0 9 0.5 14.5t0.5 11.5q0 18 8 25t21 7q17 0 25.5 -9t8.5 -29q0 -35 -35.5 -63t-88.5 -42q42 -30 42 -85q0 -50 -31.5 -89.5t-85 -61.5t-118.5 -22t-117.5 22z" />
  </g>

</svg>
