<?xml version="1.0" standalone="no"?>
<!DOCTYPE svg PUBLIC "-//W3C//DTD SVG 1.1//EN" "http://www.w3.org/Graphics/SVG/1.1/DTD/svg11.dtd" >
<svg xmlns="http://www.w3.org/2000/svg" xmlns:xlink="http://www.w3.org/1999/xlink" version="1.1" viewBox="-10 0 704 1000">
  <g transform="matrix(1 0 0 -1 0 800)">
   <path fill="currentColor"
d="M148.5 -108.5q-63.5 32.5 -97.5 94t-34 145.5q0 115 59 221.5t158.5 173t212.5 66.5q69 0 122.5 -32t83 -89.5t29.5 -127.5q0 -108 -47 -188t-109 -122.5t-100 -42.5q-17 0 -17 19q0 35 30 185q-64 -114 -106.5 -159t-88.5 -45q-44 0 -68 32.5t-24 89.5q0 66 38.5 140
t101.5 125t131 51q20 0 30.5 -9t21.5 -30l5 20l58 17l-22 -100q-42 -178 -42 -234q0 -17 11 -17q25 -1 65.5 28t71 89t30.5 146q0 62 -26.5 115t-74 83.5t-107.5 30.5q-86 0 -171 -56t-140.5 -157t-55.5 -225q0 -74 28 -128.5t81 -85.5t126 -31q85 0 152 29t137 96l13 -20
q-72 -70 -147 -100t-168 -30q-87 0 -150.5 32.5zM343.5 92q46.5 54 83 126t36.5 128q0 20 -13.5 36t-30.5 16q-54 0 -99 -42.5t-74 -115.5q-25 -67 -25 -121q0 -81 56 -81q20 0 66.5 54z" />
  </g>

</svg>
