<?xml version="1.0" standalone="no"?>
<!DOCTYPE svg PUBLIC "-//W3C//DTD SVG 1.1//EN" "http://www.w3.org/Graphics/SVG/1.1/DTD/svg11.dtd" >
<svg xmlns="http://www.w3.org/2000/svg" xmlns:xlink="http://www.w3.org/1999/xlink" version="1.1" viewBox="-10 0 522 1000">
  <g transform="matrix(1 0 0 -1 0 800)">
   <path fill="currentColor"
d="M181.5 -75q5.5 75 23.5 231q6 46 11 115q1 17 2 28q1 9 5.5 17.5t12.5 20.5q12 18 18 32t10 33q-19 -4 -38 -5q-12 -1 -36 0q-28 2 -39 3q-13 0 -21.5 -4.5t-19.5 -17.5q-6 -8 -11.5 -12.5t-13.5 -4.5q-39 0 -32 49q2 17 22.5 30.5t45.5 13.5q10 0 18 -2.5t22 -9.5
q24 -12 45 -19t56 -7q1 37 5 64q2 16 8 43q6 23 7 31q1 9 -1.5 16.5t-7.5 15.5q-8 16 -7 28q2 10 14.5 18t28.5 8t25.5 -8t7.5 -18q-2 -13 -14 -28q-8 -11 -10 -18t-7 -14q-3 -6 -3 -38q0 -28 -1 -36q-5 -26 -15 -64q36 0 58.5 6.5t47.5 17.5q15 7 25 10.5t22 3.5
q25 0 41.5 -13.5t14.5 -30.5q-7 -49 -47 -49q-7 0 -12 3.5t-10 13.5q-8 11 -14 17.5t-20 4.5q-11 -2 -38 -3h-37q-21 0 -35 5q-2 -24 -1.5 -39t9.5 -30q12 -20 9 -34q-3 -11 -6 -28q-17 -69 -23 -115q-24 -156 -40.5 -231t-38.5 -75q-21 0 -15.5 75z" />
  </g>

</svg>
