<?xml version="1.0" standalone="no"?>
<!DOCTYPE svg PUBLIC "-//W3C//DTD SVG 1.1//EN" "http://www.w3.org/Graphics/SVG/1.1/DTD/svg11.dtd" >
<svg xmlns="http://www.w3.org/2000/svg" xmlns:xlink="http://www.w3.org/1999/xlink" version="1.1" viewBox="-10 0 527 1000">
  <g transform="matrix(1 0 0 -1 0 800)">
   <path fill="currentColor"
d="M90.5 24.5q-47.5 34.5 -47.5 86.5q0 133 173 198q-49 31 -74 61t-25 70q0 52 28.5 90t78 57.5t110.5 19.5q70 0 112.5 -32t42.5 -82q0 -52 -45 -103.5t-117 -67.5q63 -38 96.5 -71t33.5 -80q0 -52 -29 -93t-84.5 -64.5t-131.5 -23.5q-74 0 -121.5 34.5zM328 48
q44 34 44 94q0 35 -20.5 64t-48.5 48.5t-69 44.5q-55 -24 -98 -75t-43 -109q0 -46 34.5 -73.5t90.5 -27.5q66 0 110 34zM411.5 400.5q32.5 41.5 32.5 95.5q0 39 -29.5 63t-76.5 24q-61 0 -100.5 -32t-39.5 -87q0 -42 28.5 -69.5t83.5 -62.5q69 27 101.5 68.5z" />
  </g>

</svg>
