<?xml version="1.0" standalone="no"?>
<!DOCTYPE svg PUBLIC "-//W3C//DTD SVG 1.1//EN" "http://www.w3.org/Graphics/SVG/1.1/DTD/svg11.dtd" >
<svg xmlns="http://www.w3.org/2000/svg" xmlns:xlink="http://www.w3.org/1999/xlink" version="1.1" viewBox="-138 0 567 1000">
  <g transform="matrix(1 0 0 -1 0 800)">
   <path fill="currentColor"
d="M-102 -229q-26 16 -26 43q0 14 8.5 23.5t24.5 9.5q12 0 22 -5t10 -19q0 -5 -1.5 -12.5t-1.5 -8.5q0 -23 33 -23q57 0 80.5 91.5t38.5 201.5l35 317h-94l12 27h85l3 24q14 128 62.5 209t127.5 81q45 0 73.5 -26t28.5 -66q0 -20 -8.5 -31.5t-28.5 -11.5q-29 0 -29 26
q0 4 3 18q3 9 3 23q0 44 -45 44q-85 0 -119 -252l-5 -38h99l-13 -27h-88l-33 -292q-38 -342 -194 -342q-37 0 -63 16z" />
  </g>

</svg>
