<?xml version="1.0" standalone="no"?>
<!DOCTYPE svg PUBLIC "-//W3C//DTD SVG 1.1//EN" "http://www.w3.org/Graphics/SVG/1.1/DTD/svg11.dtd" >
<svg xmlns="http://www.w3.org/2000/svg" xmlns:xlink="http://www.w3.org/1999/xlink" version="1.1" viewBox="-138 0 645 1000">
  <g transform="matrix(1 0 0 -1 0 800)">
   <path fill="currentColor"
d="M-102 -229q-26 16 -26 43q0 14 8.5 23.5t24.5 9.5q12 0 22 -5t10 -19q0 -5 -1.5 -12.5t-1.5 -8.5q0 -23 33 -23q57 0 80.5 91.5t38.5 201.5l35 317h-94l19 27h78l3 24q12 136 72 213t155 77q77 0 120 -55l-12 -37q-31 62 -115 59q-114 0 -152 -243l-5 -38h117l-16 -27
h-103l-33 -292q-38 -342 -194 -342q-37 0 -63 16zM337 1.5q-9 11.5 -9 34.5q0 27 33 243l13 91q34 231 34 286q0 18 -11.5 29.5t-49.5 11.5l67 13q30 20 49 20q9 0 14.5 -11t2.5 -24q-10 -42 -26 -156q-62 -414 -59 -449q0 -12 3.5 -19.5t15.5 -7.5q7 0 18.5 3t22.5 10
l12 -16q-27 -33 -55.5 -51.5t-49.5 -18.5q-16 0 -25 11.5z" />
  </g>

</svg>
