<?xml version="1.0" standalone="no"?>
<!DOCTYPE svg PUBLIC "-//W3C//DTD SVG 1.1//EN" "http://www.w3.org/Graphics/SVG/1.1/DTD/svg11.dtd" >
<svg xmlns="http://www.w3.org/2000/svg" xmlns:xlink="http://www.w3.org/1999/xlink" version="1.1" viewBox="-138 0 680 1000">
  <g transform="matrix(1 0 0 -1 0 800)">
   <path fill="currentColor"
d="M-101.5 -229q-26.5 16 -26.5 43q0 14 8.5 23.5t24.5 9.5q12 0 22 -5t10 -19q0 -5 -1.5 -12.5t-1.5 -8.5q0 -23 33 -23q67 0 87 105t32 188l41 368q13 126 73.5 208t153.5 82q59 0 93.5 -31t34.5 -77q0 -74 -78.5 -114.5t-78.5 -76.5q0 -24 17.5 -48t53.5 -56
q69 -61 89 -106.5t20 -77.5q0 -65 -37.5 -109t-119.5 -44q-57 0 -95 28.5t-38 68.5q0 19 11.5 36.5t36.5 17.5q28 0 28 -23q0 -9 -5 -24q-7 -16 -7 -30q0 -48 79 -48q45 0 68.5 15.5t23.5 61.5q0 47 -23.5 83.5t-70.5 84.5q-46 45 -69.5 80.5t-23.5 82.5q0 63 84 107t84 96
q0 40 -22.5 59.5t-54.5 19.5q-131 0 -159 -252l-39 -352q-40 -347 -195 -347q-36 0 -62.5 16z" />
  </g>

</svg>
