<?xml version="1.0" standalone="no"?>
<!DOCTYPE svg PUBLIC "-//W3C//DTD SVG 1.1//EN" "http://www.w3.org/Graphics/SVG/1.1/DTD/svg11.dtd" >
<svg xmlns="http://www.w3.org/2000/svg" xmlns:xlink="http://www.w3.org/1999/xlink" version="1.1" viewBox="-10 0 344 1000">
  <g transform="matrix(1 0 0 -1 0 800)">
   <path fill="currentColor"
d="M110 375q-25 31 -25 82q0 73 38.5 117t100.5 44q46 0 73 -29.5t27 -82.5q0 -74 -37 -118t-102 -44q-50 0 -75 31zM246.5 389.5q22.5 25.5 22.5 137.5q0 70 -47 70q-38 0 -61 -29.5t-23 -135.5q0 -36 11.5 -52t37.5 -16q37 0 59.5 25.5z" />
  </g>

</svg>
