<?xml version="1.0" standalone="no"?>
<!DOCTYPE svg PUBLIC "-//W3C//DTD SVG 1.1//EN" "http://www.w3.org/Graphics/SVG/1.1/DTD/svg11.dtd" >
<svg xmlns="http://www.w3.org/2000/svg" xmlns:xlink="http://www.w3.org/1999/xlink" version="1.1" viewBox="-10 0 372 1000">
  <g transform="matrix(1 0 0 -1 0 800)">
   <path fill="currentColor"
d="M105 342q0 32 -29 32q-8 0 -16 -2l-5 26q25 12 46 19t42 7q32 0 32 -29q-8 -42 -26 -144q31 80 63 130t75 50q27 0 46 -20.5t19 -48.5q0 -19 -10 -35t-32 -16q-15 0 -22 7.5t-7 17.5q0 9 7.5 21t7.5 17q0 8 -6 13.5t-16 5.5q-24 0 -54.5 -49t-55.5 -120.5t-37 -135.5
l-11 -88h-58q47 316 47 342z" />
  </g>

</svg>
