<?xml version="1.0" standalone="no"?>
<!DOCTYPE svg PUBLIC "-//W3C//DTD SVG 1.1//EN" "http://www.w3.org/Graphics/SVG/1.1/DTD/svg11.dtd" >
<svg xmlns="http://www.w3.org/2000/svg" xmlns:xlink="http://www.w3.org/1999/xlink" version="1.1" viewBox="-10 0 444 1000">
  <g transform="matrix(1 0 0 -1 0 800)">
   <path fill="currentColor"
d="M60 -114q-32 21 -32 56q0 29 17 47t38 18q12 0 22 -7t10 -21q0 -19 -15.5 -30t-15.5 -23q0 -15 26.5 -28t57.5 -13q42 0 73.5 24.5t31.5 68.5q0 21 -12 37t-36 36l-111 94q-67 57 -68 105q-3 102 109 130q-44 42 -44 86q0 58 54.5 99.5t131.5 41.5q59 0 91 -21t32 -56
q0 -29 -17 -47t-38 -18q-12 0 -22 7t-10 21q0 20 15.5 30t15.5 23q0 15 -26.5 28t-57.5 13q-42 0 -73.5 -24.5t-31.5 -68.5q0 -21 11.5 -37t36.5 -37l110 -93q69 -59 69 -106q0 -101 -109 -130q44 -14 44 -85q0 -58 -52.5 -99.5t-133.5 -41.5q-59 0 -91 21zM351 189
q0 11 -5.5 22.5t-18.5 24.5l-158 129q-72 -30 -72 -82q0 -11 5.5 -22.5t17.5 -25.5l159 -128q72 25 72 82z" />
  </g>

</svg>
