<?xml version="1.0" standalone="no"?>
<!DOCTYPE svg PUBLIC "-//W3C//DTD SVG 1.1//EN" "http://www.w3.org/Graphics/SVG/1.1/DTD/svg11.dtd" >
<svg xmlns="http://www.w3.org/2000/svg" xmlns:xlink="http://www.w3.org/1999/xlink" version="1.1" viewBox="-10 0 322 1000">
  <g transform="matrix(1 0 0 -1 0 800)">
   <path fill="currentColor"
d="M89 9q-16 18 -16 48q0 24 17 129l32 204h-74l29 28h50l17 109l70 13l-23 -122h111v-12l-29 -16h-88l-24 -140q-21 -125 -21 -165q0 -42 28 -42q32 0 84 54l22 -13q-61 -93 -135 -93q-34 0 -50 18zM260 245l-3 -31h-244l3 31h244z" />
  </g>

</svg>
