<?xml version="1.0" standalone="no"?>
<!DOCTYPE svg PUBLIC "-//W3C//DTD SVG 1.1//EN" "http://www.w3.org/Graphics/SVG/1.1/DTD/svg11.dtd" >
<svg xmlns="http://www.w3.org/2000/svg" xmlns:xlink="http://www.w3.org/1999/xlink" version="1.1" viewBox="-10 0 509 1000">
  <g transform="matrix(1 0 0 -1 0 800)">
   <path fill="currentColor"
d="M77.5 23.5q-47.5 33.5 -47.5 82.5q0 24 12 39t35 15q18 0 27.5 -8.5t9.5 -21.5q0 -15 -10 -28q-9 -20 -9 -33q0 -26 29.5 -41t74.5 -15q56 0 96 23.5t62.5 61.5t22.5 91q0 52 -41.5 80.5t-151.5 32.5l4 26q95 5 145.5 52t50.5 116q0 45 -27 66t-71 21q-48 0 -83.5 -20
t-35.5 -52q0 -6 3.5 -16.5t3.5 -17.5q0 -20 -14.5 -30t-33.5 -10q-18 0 -26.5 9t-8.5 26q0 35 29 66.5t78 50t104 18.5q69 0 110 -28.5t41 -80.5q0 -74 -53 -120t-125 -57v-2q172 -16 172 -136q0 -59 -30.5 -101.5t-85.5 -67t-127 -24.5q-82 0 -129.5 33.5z" />
  </g>

</svg>
