<?xml version="1.0" standalone="no"?>
<!DOCTYPE svg PUBLIC "-//W3C//DTD SVG 1.1//EN" "http://www.w3.org/Graphics/SVG/1.1/DTD/svg11.dtd" >
<svg xmlns="http://www.w3.org/2000/svg" xmlns:xlink="http://www.w3.org/1999/xlink" version="1.1" viewBox="-10 0 527 1000">
  <g transform="matrix(1 0 0 -1 0 800)">
   <path fill="currentColor"
d="M358 0h-322l2 29q193 134 276.5 240.5t83.5 207.5q0 51 -25.5 78.5t-74.5 27.5q-60 0 -89.5 -28t-29.5 -65q0 -8 3 -21.5t3 -19.5q0 -14 -12 -24t-32 -10q-18 0 -27 11.5t-9 35.5q0 30 19 63.5t64.5 57.5t119.5 24q73 0 116 -35t43 -93q0 -83 -68 -183.5t-281 -241.5v-1
h173q57 0 87.5 24t46.5 86h34q-46 -149 -50 -166q-9 3 -51 3z" />
  </g>

</svg>
