<?xml version="1.0" standalone="no"?>
<!DOCTYPE svg PUBLIC "-//W3C//DTD SVG 1.1//EN" "http://www.w3.org/Graphics/SVG/1.1/DTD/svg11.dtd" >
<svg xmlns="http://www.w3.org/2000/svg" xmlns:xlink="http://www.w3.org/1999/xlink" version="1.1" viewBox="-222 0 264 1000">
  <g transform="matrix(1 0 0 -1 0 800)">
   <path fill="currentColor"
d="M-104 670l-103 120q-5 8 -4 12q1 8 10 12t21.5 8t16.5 4t6.5 -2t5.5 -7q1 -7 58 -125l6 -10q2 -6 2 -8q-1 -8 -9 -8t-10 4zM13 670q-92 110 -104 120q-5 8 -3 12q0 8 9 12t22 8t17 4t6.5 -2t5.5 -7q0 -5 52 -113l12 -22q1 -5 2 -8q-1 -8 -9 -8t-10 4z" />
  </g>

</svg>
