<?xml version="1.0" standalone="no"?>
<!DOCTYPE svg PUBLIC "-//W3C//DTD SVG 1.1//EN" "http://www.w3.org/Graphics/SVG/1.1/DTD/svg11.dtd" >
<svg xmlns="http://www.w3.org/2000/svg" xmlns:xlink="http://www.w3.org/1999/xlink" version="1.1" viewBox="-10 0 456 1000">
  <g transform="matrix(1 0 0 -1 0 800)">
   <path fill="currentColor"
d="M53 22.5q-24 32.5 -24 89.5q0 66 34.5 140t92 125t117.5 51q25 0 45.5 -10t34.5 -27l6 22l64 14l-24 -101q-18 -82 -30 -151t-12 -95q0 -17 13 -17q18 0 38 13l12 -16q-29 -39 -58 -54.5t-49 -15.5q-11 0 -15 11t-4 35q0 31 23 161q-64 -115 -107 -161t-89 -46
q-44 0 -68 32.5zM220.5 90q48.5 55 84 129t35.5 124q0 24 -20.5 41t-50.5 17q-61 0 -101 -49.5t-57 -123.5q-13 -51 -13 -109q0 -41 12 -62.5t30 -21.5q32 0 80.5 55zM232 610q35 32 88 32q55 0 81.5 -35t23.5 -86h-42q-3 34 -18.5 56t-50.5 22q-34 0 -57 -22.5t-35 -55.5
h-41q16 57 51 89z" />
  </g>

</svg>
