<?xml version="1.0" standalone="no"?>
<!DOCTYPE svg PUBLIC "-//W3C//DTD SVG 1.1//EN" "http://www.w3.org/Graphics/SVG/1.1/DTD/svg11.dtd" >
<svg xmlns="http://www.w3.org/2000/svg" xmlns:xlink="http://www.w3.org/1999/xlink" version="1.1" viewBox="-19 0 358 1000">
  <g transform="matrix(1 0 0 -1 0 800)">
   <path fill="currentColor"
d="M28.5 16q-37.5 26 -37.5 64q0 24 13 38t32 14q34 -1 34 -22q0 -11 -8 -26q-7 -21 -7 -28q0 -20 19 -31.5t58 -11.5q41 0 72 20t31 62q-1 28 -23 45t-67 39q-58 29 -85 53t-27 67q0 50 49.5 89.5t117.5 39.5q58 0 93.5 -26t35.5 -62q0 -22 -13 -35.5t-36 -13.5
q-11 0 -20 6t-9 15q0 14 7 25q6 14 6 24q0 20 -16.5 31.5t-46.5 11.5q-44 0 -72.5 -23.5t-28.5 -56.5q1 -32 24.5 -51t70.5 -43q58 -30 82.5 -53t24.5 -60q0 -59 -49.5 -93t-122.5 -34q-64 0 -101.5 26zM103.5 -158.5q17.5 17.5 19.5 30.5q5 30 -24 30q-10 0 -16 8t-6 17
q0 15 12.5 27t32.5 12q22 0 33.5 -13.5t11.5 -32.5q0 -38 -27.5 -69t-61.5 -47l-13 9q21 11 38.5 28.5z" />
  </g>

</svg>
