<?xml version="1.0" standalone="no"?>
<!DOCTYPE svg PUBLIC "-//W3C//DTD SVG 1.1//EN" "http://www.w3.org/Graphics/SVG/1.1/DTD/svg11.dtd" >
<svg xmlns="http://www.w3.org/2000/svg" xmlns:xlink="http://www.w3.org/1999/xlink" version="1.1" viewBox="-10 0 629 1000">
  <g transform="matrix(1 0 0 -1 0 800)">
   <path fill="currentColor"
d="M109 61.5q-54 71.5 -40 194.5l5 35h431q20 141 -23 207.5t-141 66.5q-67 0 -121.5 -36t-79.5 -91l-31 23q35 67 101.5 106t141.5 39q236 -6 236 -248q0 -173 -79 -270.5t-233 -97.5q-113 0 -167 71.5zM426 83q58 70 74 182h-322q-14 0 -21.5 -9.5t-11.5 -36.5
q-17 -106 22.5 -156t111.5 -50q89 0 147 70z" />
  </g>

</svg>
