<?xml version="1.0" standalone="no"?>
<!DOCTYPE svg PUBLIC "-//W3C//DTD SVG 1.1//EN" "http://www.w3.org/Graphics/SVG/1.1/DTD/svg11.dtd" >
<svg xmlns="http://www.w3.org/2000/svg" xmlns:xlink="http://www.w3.org/1999/xlink" version="1.1" viewBox="-10 0 1006 1000">
  <g transform="matrix(1 0 0 -1 0 800)">
   <path fill="currentColor"
d="M70 23q11 0 16 22l71 506v6q0 17 -14 15l-40 -2l3 27h208q132 0 196 -51t64 -174q0 -185 -81.5 -278.5t-250.5 -93.5h-220l4 25zM390.5 65.5q54.5 41.5 77.5 136.5q24 94 24 177q0 102 -46.5 147.5t-151.5 45.5h-54q-10 0 -11 -13l-73 -522l-1 -4q0 -9 9 -9h54
q118 0 172.5 41.5zM881 349q-19 -1 -23 -1q-37 0 -84 9.5t-83 9.5q-25 0 -34 -41h-18q6 24 18.5 63.5t35.5 39.5q40 0 87 -11.5t88 -11.5q47 0 75 21l18 -15l-283 -344q34 9 64 9q15 0 61 -9.5t58 -9.5q37 1 43 35h18q-15 -56 -26 -79.5t-33 -23.5q-18 0 -84 13t-86 13
q-32 0 -70 -15l-8 -11l-17 14zM794 529l-35 48q-19 25 -52 56q-13 12 -13 16q0 8 12 8q8 0 25 -12l96 -76l121 76q23 12 27 12q11 0 11 -7q0 -3 -25 -21q-48 -40 -61 -52l-49 -48q-29 -27 -33 -28q-4 0 -24 28z" />
  </g>

</svg>
