<?xml version="1.0" standalone="no"?>
<!DOCTYPE svg PUBLIC "-//W3C//DTD SVG 1.1//EN" "http://www.w3.org/Graphics/SVG/1.1/DTD/svg11.dtd" >
<svg xmlns="http://www.w3.org/2000/svg" xmlns:xlink="http://www.w3.org/1999/xlink" version="1.1" viewBox="-10 0 391 1000">
  <g transform="matrix(1 0 0 -1 0 800)">
   <path fill="currentColor"
d="M66 23q17 0 20 22l71 506v5q0 7 -3.5 11.5t-10.5 4.5l-40 -2l3 27h187l-3 -27l-42 2q-7 0 -12 -5t-8 -16l-71 -506v-5q0 -16 15 -17l41 2l-4 -25h-187l4 25zM179 696l-34 48q-19 25 -52 56q-14 13 -14 16q0 8 13 8q8 0 25 -12l96 -76l120 76q24 12 27 12q11 0 11 -7
q0 -3 -24 -21q-49 -40 -62 -52l-48 -48q-32 -28 -34 -28q-4 0 -24 28z" />
  </g>

</svg>
