<?xml version="1.0" standalone="no"?>
<!DOCTYPE svg PUBLIC "-//W3C//DTD SVG 1.1//EN" "http://www.w3.org/Graphics/SVG/1.1/DTD/svg11.dtd" >
<svg xmlns="http://www.w3.org/2000/svg" xmlns:xlink="http://www.w3.org/1999/xlink" version="1.1" viewBox="-217 0 311 1000">
  <g transform="matrix(1 0 0 -1 0 800)">
   <path fill="currentColor"
d="M-177 704q-26 35 -24 86h43q3 -34 18 -56t51 -22q34 0 57 22.5t34 55.5h41q-15 -57 -50 -89t-89 -32q-55 0 -81 35zM-73 853q-53 22 -78 22q-14 0 -25 -12.5t-15 -30.5h-16q4 33 27.5 60t48.5 27q27 0 82 -22q51 -22 78 -22q14 0 25.5 12.5t13.5 30.5h16
q-4 -33 -27.5 -60t-48.5 -27q-30 0 -81 22z" />
  </g>

</svg>
