<?xml version="1.0" standalone="no"?>
<!DOCTYPE svg PUBLIC "-//W3C//DTD SVG 1.1//EN" "http://www.w3.org/Graphics/SVG/1.1/DTD/svg11.dtd" >
<svg xmlns="http://www.w3.org/2000/svg" xmlns:xlink="http://www.w3.org/1999/xlink" version="1.1" viewBox="-152 0 241 1000">
  <g transform="matrix(1 0 0 -1 0 800)">
   <path fill="currentColor"
d="M-125.5 512.5q-16.5 19.5 -16.5 52.5q0 38 27.5 64t62.5 26q34 0 50.5 -18.5t16.5 -51.5q0 -40 -25 -66t-66 -26q-33 0 -49.5 19.5zM-41 543.5q13 16.5 13 37.5q0 19 -7.5 30t-22.5 11q-18 0 -30 -16t-12 -37q0 -18 7.5 -30t21.5 -12q17 0 30 16.5zM-78 689q0 4 19 23
l65 64q16 17 20 20t11 3q15 0 28.5 -7.5t12.5 -11.5q-1 -5 -8 -11l-96 -68q-26 -19 -37 -18q-16 0 -15 6z" />
  </g>

</svg>
