<?xml version="1.0" standalone="no"?>
<!DOCTYPE svg PUBLIC "-//W3C//DTD SVG 1.1//EN" "http://www.w3.org/Graphics/SVG/1.1/DTD/svg11.dtd" >
<svg xmlns="http://www.w3.org/2000/svg" xmlns:xlink="http://www.w3.org/1999/xlink" version="1.1" viewBox="-264 0 312 1000">
  <g transform="matrix(1 0 0 -1 0 800)">
   <path fill="currentColor"
d="M-71 536.5q-18 5.5 -49 16.5q-51 22 -78 22q-14 0 -25 -12.5t-14 -30.5h-17q5 33 28.5 60t48.5 27q26 0 82 -22q51 -23 77 -23q14 0 26 13t14 31h16q-4 -33 -28 -60t-48 -27q-15 0 -33 5.5zM33 703l-6 -37h-243l6 37h243z" />
  </g>

</svg>
