<?xml version="1.0" standalone="no"?>
<!DOCTYPE svg PUBLIC "-//W3C//DTD SVG 1.1//EN" "http://www.w3.org/Graphics/SVG/1.1/DTD/svg11.dtd" >
<svg xmlns="http://www.w3.org/2000/svg" xmlns:xlink="http://www.w3.org/1999/xlink" version="1.1" viewBox="-10 0 738 1000">
  <g transform="matrix(1 0 0 -1 0 800)">
   <path fill="currentColor"
d="M337 2.5q-8 12.5 -8 32.5q0 14 21 126q27 121 27 167q0 26 -13.5 42t-35.5 16q-33 0 -73.5 -43.5t-75 -108t-50.5 -124.5l-13 -110h-58q47 316 47 342q0 32 -29 32q-8 0 -16 -2l-5 26q25 12 46 19t42 7q32 0 32 -12q1 -5 -33 -204q36 92 89 156t118 64q41 0 65 -25
t24 -65q0 -22 -6.5 -54.5t-23.5 -106.5q-16 -77 -18 -91q0 -8 4 -15.5t15 -7.5q17 0 37 13l12 -16q-27 -32 -54.5 -51t-46.5 -19q-12 0 -20 12.5zM394.5 -229q-26.5 16 -26.5 43q0 14 8.5 23.5t25.5 9.5q12 0 21.5 -5t9.5 -19q0 -5 -1 -12.5t-1 -8.5q0 -11 8.5 -17t22.5 -6
q30 0 48.5 35t30 94.5t28.5 179.5l19 137q13 97 13 116q0 33 -30 33q-10 0 -18 -2l-5 26q54 26 99 26q13 0 19.5 -4t6.5 -17q-11 -66 -35 -224.5t-29 -195.5q-16 -117 -50.5 -172.5t-101.5 -55.5q-36 0 -62.5 16zM631 564.5q-11 9.5 -11 26.5q0 20 15 33t36 13
q18 0 27.5 -9.5t9.5 -26.5q0 -21 -14 -33.5t-36 -12.5q-16 0 -27 9.5z" />
  </g>

</svg>
