<?xml version="1.0" standalone="no"?>
<!DOCTYPE svg PUBLIC "-//W3C//DTD SVG 1.1//EN" "http://www.w3.org/Graphics/SVG/1.1/DTD/svg11.dtd" >
<svg xmlns="http://www.w3.org/2000/svg" xmlns:xlink="http://www.w3.org/1999/xlink" version="1.1" viewBox="-10 0 563 1000">
  <g transform="matrix(1 0 0 -1 0 800)">
   <path fill="currentColor"
d="M492 434q2 17 -21 23.5t-20 26.5t17.5 31t32.5 11q22 0 33 -14t8 -36q-13 -102 -123 -104l-7 24q75 0 80 38zM79 12.5q-21 22.5 -21 57.5q0 37 30 170q20 87 20 107q0 27 -37 27q-12 0 -20 -2l-5 26q35 14 56 20t43 6q28 0 28 -16t-19 -116q-7 -36 -20 -107t-13 -96
q0 -27 9 -44t28 -17q30 0 69 41t73.5 103.5t51.5 118.5l18 118l72 17q-29 -147 -43.5 -230.5t-14.5 -115.5q0 -17 13 -17q18 0 38 13l12 -16q-29 -37 -57 -53.5t-51 -16.5q-12 0 -16.5 11t-4.5 35q0 32 18 149q-57 -106 -102.5 -150.5t-93.5 -44.5q-40 0 -61 22.5zM244 504
q0 20 20 30q59 27 60 54q0 18 -9.5 27t-30.5 9q-20 0 -34 -6v22q22 9 63 9q27 0 43.5 -13.5t16.5 -42.5q0 -28 -16.5 -44t-42.5 -24q-17 -5 -24 -9t-8 -13q0 -8 -3 -41h-31q-4 26 -4 42z" />
  </g>

</svg>
