<?xml version="1.0" standalone="no"?>
<!DOCTYPE svg PUBLIC "-//W3C//DTD SVG 1.1//EN" "http://www.w3.org/Graphics/SVG/1.1/DTD/svg11.dtd" >
<svg xmlns="http://www.w3.org/2000/svg" xmlns:xlink="http://www.w3.org/1999/xlink" version="1.1" viewBox="-10 0 279 1000">
  <g transform="matrix(1 0 0 -1 0 800)">
   <path fill="currentColor"
d="M78.5 1.5q-8.5 11.5 -8.5 34.5q0 17 6 57.5t8 53.5l12 76q13 86 13 124q0 27 -31 27q-8 0 -16 -2l-5 26q54 26 98 26q13 0 20 -4t7 -15q0 -8 -12 -71l-20 -104q-16 -93 -16 -140q0 -27 17 -27q16 0 36 13l12 -16q-28 -33 -52.5 -51.5t-43.5 -18.5q-16 0 -24.5 11.5z
M130 504q0 20 20 30q59 27 60 54q0 18 -9.5 27t-30.5 9q-20 0 -34 -6v22q22 9 63 9q27 0 43.5 -13.5t16.5 -42.5q0 -28 -16.5 -44t-42.5 -24q-17 -5 -24 -9t-8 -13q0 -8 -3 -41h-31q-4 26 -4 42z" />
  </g>

</svg>
