<?xml version="1.0" standalone="no"?>
<!DOCTYPE svg PUBLIC "-//W3C//DTD SVG 1.1//EN" "http://www.w3.org/Graphics/SVG/1.1/DTD/svg11.dtd" >
<svg xmlns="http://www.w3.org/2000/svg" xmlns:xlink="http://www.w3.org/1999/xlink" version="1.1" viewBox="-116 0 524 1000">
  <g transform="matrix(1 0 0 -1 0 800)">
   <path fill="currentColor"
d="M-94.5 -235.5q-11.5 3.5 -11.5 28.5q0 16 11 31t28 15q10 0 27 -5q23 -8 39 -8q25 0 88 60t101 108l-108 347q-4 18 -12 25.5t-23 7.5q-11 0 -26 -3l-4 26q58 26 82 26q15 0 24 -11t18 -43l94 -312q117 179 117 265q0 15 -6 18t-32 5q-10 2 -16 12.5t-6 25.5q0 43 46 43
q30 0 45.5 -14.5t15.5 -40.5q0 -46 -42.5 -143t-90.5 -183q-65 -115 -171.5 -199.5t-158.5 -84.5q-17 0 -28.5 3.5zM274 505l-134 117q-5 6 -5 8q0 6 18.5 14.5t36.5 8.5q8 0 12.5 -3t15.5 -17l82 -117q7 -10 8 -13q1 -7 -18 -7q-9 0 -16 9z" />
  </g>

</svg>
