<?xml version="1.0" standalone="no"?>
<!DOCTYPE svg PUBLIC "-//W3C//DTD SVG 1.1//EN" "http://www.w3.org/Graphics/SVG/1.1/DTD/svg11.dtd" >
<svg xmlns="http://www.w3.org/2000/svg" xmlns:xlink="http://www.w3.org/1999/xlink" version="1.1" viewBox="-12 0 383 1000">
  <g transform="matrix(1 0 0 -1 0 800)">
   <path fill="currentColor"
d="M281 349q-19 -1 -23 -1q-37 0 -84 9.5t-83 9.5q-25 0 -34 -41h-18q6 24 18.5 63.5t35.5 39.5q40 0 87 -11.5t88 -11.5q47 0 75 21l18 -15l-283 -344q34 9 64 9q15 0 61 -9.5t58 -9.5q37 1 43 35h18q-15 -56 -26 -79.5t-33 -23.5q-18 0 -84 13t-86 13q-32 0 -70 -15
l-8 -11l-17 14zM200 514l38 113q7 22 10.5 28t11.5 11q16 9 36.5 10t22.5 -2q-1 -4 -5 -14l-94 -155q-7 -13 -14 -18q-13 -9 -16 -1q0 2 10 28z" />
  </g>

</svg>
