<?xml version="1.0" standalone="no"?>
<!DOCTYPE svg PUBLIC "-//W3C//DTD SVG 1.1//EN" "http://www.w3.org/Graphics/SVG/1.1/DTD/svg11.dtd" >
<svg xmlns="http://www.w3.org/2000/svg" xmlns:xlink="http://www.w3.org/1999/xlink" version="1.1" viewBox="-10 0 662 1000">
  <g transform="matrix(1 0 0 -1 0 800)">
   <path fill="currentColor"
d="M499.573 33.5967c-77.3965 -54.1494 -189.054 -41.5693 -206.033 -41.2334c-91.1289 1.82324 -216.408 55.8555 -239.311 199.356c-7.24707 45.3428 -7.24707 69.1162 -8.78027 133.941l-2.40332 371.928h47.7461l2.5127 -295.211s0.0546875 -7.4834 0.0546875 -14.3945
c0 -3.4834 0 -6.74902 -0.0546875 -8.8623v-21.9863c0 -105.043 4.60742 -195.184 43.1562 -244.453c33.8594 -43.2559 96.626 -80.4443 184.653 -80.4443c118.204 0 197.624 45.1699 227.185 142.594c8.89844 29.3057 11.4746 63.8906 11.5107 102.757l2.81152 419.556
l46.458 0.444336l-4.18164 -420.58c0 -93.2793 -8.78027 -175.919 -105.324 -243.411z" />
  </g>

</svg>
