<?xml version="1.0" standalone="no"?>
<!DOCTYPE svg PUBLIC "-//W3C//DTD SVG 1.1//EN" "http://www.w3.org/Graphics/SVG/1.1/DTD/svg11.dtd" >
<svg xmlns="http://www.w3.org/2000/svg" xmlns:xlink="http://www.w3.org/1999/xlink" version="1.1" viewBox="-10 0 995 1000">
  <g transform="matrix(1 0 0 -1 0 800)">
   <path fill="currentColor"
d="M742.857 647.274c176.381 -127.945 203.506 -370.16 154.862 -554.024c-37.8867 -143.184 -240.146 -145.333 -253.806 4.96191c0 0 -2.06836 -6.21289 -6.21387 -13.2422c-6.21289 -12.4268 -17.8047 -31.0576 -31.4648 -43.8916
c-28.5713 -26.0859 -69.9678 -55.0654 -131.673 -55.0654c-83.2197 0 -225.225 42.2227 -225.225 262.903c0 215.302 129.587 267.474 229.786 261.687c65.4238 -4.1543 103.918 -31.4736 130.014 -57.1426c7.85449 -7.87305 21.1064 -22.7666 26.9023 -34.7852
c3.7373 -7.44629 7.87305 -21.9316 7.87305 -21.9316v103.084h47.6104l0.408203 -323.356c0 -38.5127 -0.0820312 -75.5645 9.53223 -101.07c24.2178 -64.3809 99.374 -39.7002 120.19 -19.4189c35.6914 34.6943 45.877 84.835 49.1875 150.667
c4.14551 87.3652 1.70605 188.726 -63.3096 299.274c-79.0752 134.141 -200.101 175.129 -318.931 175.129c-233.932 0 -383.691 -181.225 -373.17 -465.578c5.45996 -147.81 66.4482 -261.597 152.57 -325.76c100.607 -75.3652 267.592 -67.7012 359.918 -9.7334
l20.5801 -41.3691s-77.8408 -47.6104 -197.079 -47.6104c-152.78 0 -291.147 70.9209 -355.737 266.758c-54.6484 166.032 -60.3721 512.871 221.179 630.041c121.306 50.5215 298.059 51.8008 425.995 -40.5254zM476.686 25.7578
c63.3379 0 171.818 50.1045 171.818 224.408c0 148.644 -91.0928 220.68 -165.605 224.825c-104.753 6.2041 -181.062 -73.2969 -181.062 -224.825c0 -152.78 62.2314 -224 174.849 -224.408z" />
  </g>

</svg>
