<?xml version="1.0" standalone="no"?>
<!DOCTYPE svg PUBLIC "-//W3C//DTD SVG 1.1//EN" "http://www.w3.org/Graphics/SVG/1.1/DTD/svg11.dtd" >
<svg xmlns="http://www.w3.org/2000/svg" xmlns:xlink="http://www.w3.org/1999/xlink" version="1.1" viewBox="-10 0 451 1000">
  <g transform="matrix(1 0 0 -1 0 800)">
   <path fill="currentColor"
d="M292.943 261.65c24.834 -25.6689 81.5684 -23.1875 81.5684 -23.1875v-40.5801s-56.7344 2.49414 -81.5684 -23.1748c-36.0273 -37.6777 -43.8916 -125.868 -36.4355 -185.904c5.37891 -43.4736 24.8438 -134.149 -53.832 -188.807
c-54.6484 -38.0859 -125.868 -18.2129 -136.626 -15.7275l14.4941 37.6777c7.03809 -2.90234 47.6182 -18.2217 86.9473 0.826172c34.7754 16.1455 60.4443 61.6963 52.998 115.511c-12.0088 83.6465 -20.29 176.808 28.9795 241.806
c23.1836 31.0479 56.3086 38.0859 56.3086 38.0859s-33.125 7.04785 -56.3086 38.0957c-49.2695 65.0068 -40.9883 158.159 -28.9795 241.796c7.44629 53.8232 -18.2227 99.374 -52.998 115.52c-39.3291 19.0381 -79.9092 3.71875 -86.9473 0.825195l-14.4941 37.6777
c10.7578 2.48535 81.9775 22.3584 136.626 -15.7275c78.6758 -54.667 59.2109 -145.334 53.832 -188.808c-7.45605 -60.0361 0.408203 -148.227 36.4355 -185.904z" />
  </g>

</svg>
