<?xml version="1.0" standalone="no"?>
<!DOCTYPE svg PUBLIC "-//W3C//DTD SVG 1.1//EN" "http://www.w3.org/Graphics/SVG/1.1/DTD/svg11.dtd" >
<svg xmlns="http://www.w3.org/2000/svg" xmlns:xlink="http://www.w3.org/1999/xlink" version="1.1" viewBox="-10 0 557 1000">
  <g transform="matrix(1 0 0 -1 0 800)">
   <path fill="currentColor"
d="M38.0498 252.082c0 215.42 129.588 267.664 230.005 261.496c65.1699 -4.00879 103.918 -31.1289 129.995 -57.0518c7.66406 -7.61914 20.7891 -22.6846 26.7939 -34.6934c3.60059 -7.20215 7.90918 -21.6963 7.90918 -21.6963v294.386h47.4834v-696.871h-47.5283
l-0.0361328 103.837s-2.15918 -6.40332 -6.05078 -13.542c-6.58496 -12.0361 -18.0137 -30.7119 -31.7549 -43.5469c-28.3174 -26.4219 -69.6865 -55.4014 -131.374 -55.4014c-83.3379 0 -225.442 42.6484 -225.442 263.084zM89.9688 259.7
c0 -153.07 62.8467 -230.411 175.591 -230.62c63.1387 -0.126953 171.701 49.8867 171.701 224.408c0 148.299 -91.1289 220.471 -165.687 224.743c-104.844 5.99512 -181.605 -67.0029 -181.605 -218.531z" />
  </g>

</svg>
