<?xml version="1.0" standalone="no"?>
<!DOCTYPE svg PUBLIC "-//W3C//DTD SVG 1.1//EN" "http://www.w3.org/Graphics/SVG/1.1/DTD/svg11.dtd" >
<svg xmlns="http://www.w3.org/2000/svg" xmlns:xlink="http://www.w3.org/1999/xlink" version="1.1" viewBox="-10 0 527 1000">
  <g transform="matrix(1 0 0 -1 0 800)">
   <path fill="currentColor"
d="M427.038 125.216c11.2559 -4.96191 22.1484 -10.7637 33.4141 -15.7256c1.94141 -0.834961 4.26367 -1.66016 6.20508 -2.48535c-29.8867 -75.3564 -92.082 -118.005 -202.05 -118.005c-162.422 0 -226.558 132.082 -226.558 259.602
c0 151.129 83.9277 269.124 226.93 269.124c84.3447 0 140.281 -36.8525 175.266 -94.8115c25.6328 -42.2314 34.1953 -95.6465 37.2607 -126.694c1.57812 -16.1543 1.57812 -61.6963 1.57812 -61.6963l-393.134 -1.03418
c1.16113 -19.0479 1.57812 -37.6787 5.05176 -54.2412c21.7773 -101.434 91.5918 -150.087 173.978 -151.747c76.9707 -1.65039 133.451 32.0908 162.059 97.7148zM92.9512 327.478c-4.2627 -17.3877 -6.21191 -34.7744 -7.37305 -54.2393l346.549 1.03418
c0 9.11523 -0.408203 17.3965 -0.780273 22.3584c-2.32227 28.5713 -7.82812 74.5303 -26.0869 105.995c-27.2021 46.7842 -76.9346 79.083 -141.062 78.248c-85.5059 -1.2334 -149.47 -61.0703 -171.247 -153.396z" />
  </g>

</svg>
