<?xml version="1.0" standalone="no"?>
<!DOCTYPE svg PUBLIC "-//W3C//DTD SVG 1.1//EN" "http://www.w3.org/Graphics/SVG/1.1/DTD/svg11.dtd" >
<svg xmlns="http://www.w3.org/2000/svg" xmlns:xlink="http://www.w3.org/1999/xlink" version="1.1" viewBox="-10 0 559 1000">
  <g transform="matrix(1 0 0 -1 0 800)">
   <path fill="currentColor"
d="M493.288 361.252c4.93457 -33.7959 6.79395 -123.394 6.79395 -123.394l0.0449219 -237.161l-50.0957 -0.199219l-0.0449219 182.594s-0.0908203 12.5352 0 17.2969v16.2812h0.0449219c0.0361328 47.8545 -1.45117 73.8594 -1.45117 73.8594
c0.326172 103.302 -32.6719 168.59 -114.694 177.08c-8.11816 0.834961 -15.5645 1.37012 -23.4287 1.5332c-8.1543 0.208984 -14.041 -0.163086 -22.3584 -0.698242c-97.2607 -6.0957 -171.791 -91.4287 -173.94 -169.261l-0.580078 -299.184l-46.9844 0.499023
l-0.543945 505.487l47.2383 -0.154297v-108.108s62.7754 118.331 197.868 116.463c75.9814 -1.02539 165.451 -37.7148 182.132 -152.935z" />
  </g>

</svg>
