<?xml version="1.0" standalone="no"?>
<!DOCTYPE svg PUBLIC "-//W3C//DTD SVG 1.1//EN" "http://www.w3.org/Graphics/SVG/1.1/DTD/svg11.dtd" >
<svg xmlns="http://www.w3.org/2000/svg" xmlns:xlink="http://www.w3.org/1999/xlink" version="1.1" viewBox="-10 0 665 1000">
  <g transform="matrix(1 0 0 -1 0 800)">
   <path fill="currentColor"
d="M584.844 278.422c2.47656 -14.4941 4.1377 -29.8203 4.1377 -45.1396v-1.65039c0 -34.3672 -4.9707 -69.1426 -16.5625 -101.024c-0.416992 -0.408203 -0.416992 -0.834961 -0.825195 -1.24316c0 -0.825195 -0.426758 -1.24219 -0.834961 -2.06738
c0 -0.834961 -0.408203 -1.66016 -0.825195 -2.49414c-0.408203 -1.2334 -0.834961 -2.47559 -1.65137 -4.13574c-0.416992 -1.24219 -0.833984 -2.06738 -1.25098 -3.30957c-0.408203 -0.833984 -0.816406 -1.24219 -0.816406 -2.06738
c-1.25195 -1.66016 -2.07715 -3.7373 -2.90234 -5.80566l-0.416992 -0.408203c-0.825195 -2.06836 -2.07715 -3.72852 -2.89355 -5.79688c0 -0.416992 -0.416992 -0.416992 -0.416992 -0.825195c-0.416992 -0.825195 -1.24219 -1.66016 -1.65039 -2.90234
c-0.426758 -0.825195 -1.25195 -1.65918 -1.66016 -2.89258c-0.426758 -0.833984 -1.24316 -1.65918 -1.66016 -2.90137c-25.252 -42.2314 -98.54 -105.578 -217.778 -104.753c-166.866 1.24219 -270.784 83.6455 -270.784 349.45c0 225.65 77.8408 366.004 268.707 366.004
c173.479 0 201.642 -132.072 201.642 -132.072l-46.8662 -11.6006s-21.624 106.911 -159.746 107.655c-110.549 0.617188 -181.343 -81.1514 -204.118 -185.904c-5.37891 -23.6006 -13.6602 -78.249 -16.5625 -118.829
c-0.408203 -6.62109 1.16113 -36.8887 2.40332 -54.6934c0 0 2.98438 26.54 24.0996 59.2568c22.3584 34.3584 71.6279 104.744 198.739 109.298h11.5918c45.542 1.66016 77.415 -7.85449 113.025 -24.4258c9.94141 -4.55371 19.4648 -9.93262 28.5713 -16.1455
c29.4062 -19.0479 53.415 -49.6875 71.2109 -79.502c15.3193 -25.2422 20.6982 -48.0264 26.0947 -79.0742zM336.826 30.4424c140.326 6.88477 203.211 88.0273 203.211 200.399s-78.2949 203.619 -203.211 203.619c-112.363 0 -203.619 -91.2471 -203.619 -203.619
s64.9248 -206.902 203.619 -200.399z" />
  </g>

</svg>
