<?xml version="1.0" standalone="no"?>
<!DOCTYPE svg PUBLIC "-//W3C//DTD SVG 1.1//EN" "http://www.w3.org/Graphics/SVG/1.1/DTD/svg11.dtd" >
<svg xmlns="http://www.w3.org/2000/svg" xmlns:xlink="http://www.w3.org/1999/xlink" version="1.1" viewBox="-10 0 382 1000">
  <g transform="matrix(1 0 0 -1 0 800)">
   <path fill="currentColor"
d="M162.758 215.501c0 -56.8525 -3.06641 -116.144 7.81836 -143.01c8.78027 -21.7324 32.4268 -44.127 92.2178 -38.748c34.0684 3.05664 58.957 19.5371 58.957 19.5371l12.0449 -44.5898c-33.2061 -17.5967 -69.1875 -18.1406 -95.6816 -17.5605
c-114.857 2.53027 -123.674 76.4443 -123.792 179.283c0 1.28809 -0.0908203 2.48535 -0.0908203 3.60059v227.383l2.15918 69.7686l-78.3398 -1.98633v41.8232l79.7822 -1.85938l-2.81152 81.8867l0.580078 84.916l48.1455 21.0703l-0.535156 -104.907l-2.03223 -82.9297
l69.6504 2.19531l81.0977 0.416992v-42.3223l-81.6416 -0.171875l-69.3057 1.66016l1.77734 -71.166v-184.29z" />
  </g>

</svg>
