<?xml version="1.0" standalone="no"?>
<!DOCTYPE svg PUBLIC "-//W3C//DTD SVG 1.1//EN" "http://www.w3.org/Graphics/SVG/1.1/DTD/svg11.dtd" >
<svg xmlns="http://www.w3.org/2000/svg" xmlns:xlink="http://www.w3.org/1999/xlink" version="1.1" viewBox="-10 0 634 1000">
  <g transform="matrix(1 0 0 -1 0 800)">
   <path fill="currentColor"
d="M425.434 359.456c0 0 131.247 -42.2314 131.247 -178.866c0 -97.7051 -73.6963 -194.177 -255.456 -194.177c-112.626 0 -200.808 55.8916 -223.166 139.937l52.082 9.65039c10.4033 -47.1201 55.9004 -105.914 172.236 -105.914
c93.1611 0 208.762 36.8164 206.693 157.715c-1.24219 58.7939 -37.1426 122.431 -127.519 143.918c-50.8936 12.0908 -105.578 9.11621 -105.578 9.11621v44.5439s63.1387 -4.59863 108.472 5.13379c85.1699 18.2949 111.954 84.2998 111.201 128.345
c-1.60547 96.8887 -82.4219 146.321 -184.272 146.321c-127.945 0 -192.743 -75.5195 -195.646 -153.769l-49.6777 5.37891c18.6309 138.159 128.354 189.633 246.35 189.633c144.499 0 230.621 -78.249 230.213 -192.943
c-0.426758 -114.276 -117.18 -154.022 -117.18 -154.022z" />
  </g>

</svg>
