<?xml version="1.0" standalone="no"?>
<!DOCTYPE svg PUBLIC "-//W3C//DTD SVG 1.1//EN" "http://www.w3.org/Graphics/SVG/1.1/DTD/svg11.dtd" >
<svg xmlns="http://www.w3.org/2000/svg" xmlns:xlink="http://www.w3.org/1999/xlink" version="1.1" viewBox="-85 0 813 1000">
  <g transform="matrix(1 0 0 -1 0 800)">
   <path fill="currentColor"
d="M547 166q0 -24 1 -44.5t4 -32.5q7 -30 29.5 -39.5t74.5 -9.5l-2 -40h-296l2 40q29 0 47 4.5t27.5 18t13 38.5t3.5 66v123h-223l-44 -66q-29 -44 -45.5 -70.5t-24.5 -42t-10 -22.5t-2 -11q0 -22 22 -30t61 -8l-2 -40h-258l2 40q24 0 45 9.5t44 31.5t49.5 58.5t60.5 91.5
l340 549h84zM449 340l13 333h-4l-200 -333h191z" />
  </g>

</svg>
