<?xml version="1.0" standalone="no"?>
<!DOCTYPE svg PUBLIC "-//W3C//DTD SVG 1.1//EN" "http://www.w3.org/Graphics/SVG/1.1/DTD/svg11.dtd" >
<svg xmlns="http://www.w3.org/2000/svg" xmlns:xlink="http://www.w3.org/1999/xlink" version="1.1" viewBox="-35 0 737 1000">
  <g transform="matrix(1 0 0 -1 0 800)">
   <path fill="currentColor"
d="M-14 40q33 0 54.5 5t36 18.5t24.5 36t19 58.5l113 442q7 28 11 48t4 34q0 31 -22.5 39.5t-76.5 8.5l11 40h325l-11 -40q-33 0 -55 -6.5t-38 -24.5t-28.5 -50t-25.5 -83l-104 -396q-9 -33 -9 -56q0 -36 24.5 -53.5t87.5 -17.5q60 0 103.5 10t76.5 32.5t57.5 58t45.5 87.5
h47l-88 -231h-593zM269 851l-80 109h45l105 -54l133 54h45l-138 -109h-110z" />
  </g>

</svg>
