<?xml version="1.0" standalone="no"?>
<!DOCTYPE svg PUBLIC "-//W3C//DTD SVG 1.1//EN" "http://www.w3.org/Graphics/SVG/1.1/DTD/svg11.dtd" >
<svg xmlns="http://www.w3.org/2000/svg" xmlns:xlink="http://www.w3.org/1999/xlink" version="1.1" viewBox="-19 0 937 1000">
  <g transform="matrix(1 0 0 -1 0 800)">
   <path fill="currentColor"
d="M580 0l-262 602h-4l-114 -434q-6 -24 -6 -43q0 -42 25 -63t70 -22l-12 -40h-286l11 40q47 0 84 33.5t51 84.5l118 444q4 15 4 31q0 48 -40.5 72t-106.5 25l12 40h235l250 -573h4l106 405q5 22 5 37q0 43 -24.5 66.5t-59.5 24.5l12 40h256l-11 -40q-19 0 -37 -9t-33 -24.5
t-26.5 -37.5t-18.5 -47l-162 -612h-40z" />
  </g>

</svg>
