<?xml version="1.0" standalone="no"?>
<!DOCTYPE svg PUBLIC "-//W3C//DTD SVG 1.1//EN" "http://www.w3.org/Graphics/SVG/1.1/DTD/svg11.dtd" >
<svg xmlns="http://www.w3.org/2000/svg" xmlns:xlink="http://www.w3.org/1999/xlink" version="1.1" viewBox="-10 0 838 1000">
  <g transform="matrix(1 0 0 -1 0 800)">
   <path fill="currentColor"
d="M505 780q49 0 90.5 -13t75.5 -38l78 99h69l-107 -135q35 -41 54 -97.5t19 -126.5q0 -96 -34.5 -183t-93.5 -153t-136.5 -104.5t-163.5 -38.5q-96 0 -163 47l-78 -99h-68l106 135q-38 41 -58.5 99.5t-20.5 130.5q0 96 35 182.5t94 152t137.5 104t164.5 38.5zM505 728
q-65 0 -121.5 -33t-98.5 -91t-66 -136t-24 -168t22 -147l408 518q-39 57 -120 57zM663 496q0 68 -14 119l-405 -513q46 -58 126 -58q63 0 116.5 34t93 94t61.5 143t22 181zM432 850l150 77q32 17 54 25t42 8q30 0 30 -25q0 -20 -23 -34t-66 -23l-127 -28h-60z" />
  </g>

</svg>
