<?xml version="1.0" standalone="no"?>
<!DOCTYPE svg PUBLIC "-//W3C//DTD SVG 1.1//EN" "http://www.w3.org/Graphics/SVG/1.1/DTD/svg11.dtd" >
<svg xmlns="http://www.w3.org/2000/svg" xmlns:xlink="http://www.w3.org/1999/xlink" version="1.1" viewBox="-17 0 723 1000">
  <g transform="matrix(1 0 0 -1 0 800)">
   <path fill="currentColor"
d="M158 50h125q95 0 166.5 38.5t115.5 132.5h43l-84 -221h-531v21l543 701h-101q-60 0 -100.5 -5.5t-71.5 -22t-56 -46t-54 -76.5h-43l101 198h485v-19zM416 904q0 23 15.5 39t36.5 16q23 0 39 -16t16 -39q0 -21 -16 -36.5t-39 -15.5q-21 0 -36.5 15.5t-15.5 36.5z" />
  </g>

</svg>
