<?xml version="1.0" standalone="no"?>
<!DOCTYPE svg PUBLIC "-//W3C//DTD SVG 1.1//EN" "http://www.w3.org/Graphics/SVG/1.1/DTD/svg11.dtd" >
<svg xmlns="http://www.w3.org/2000/svg" xmlns:xlink="http://www.w3.org/1999/xlink" version="1.1" viewBox="-10 0 930 1000">
  <g transform="matrix(1 0 0 -1 0 800)">
   <path fill="currentColor"
d="M388 780q61 0 98.5 -31t37.5 -82q0 -24 -9 -40.5t-24 -19.5q-17 38 -47 59.5t-68 21.5q-46 0 -75.5 -30.5t-29.5 -78.5q0 -51 34 -62q24 -8 40 -14.5t25 -14t12.5 -16t3.5 -20.5q0 -22 -12.5 -34t-35.5 -12q-21 0 -34 9t-24 19.5t-23 19.5t-30 9q-35 0 -58 -34.5
t-23 -86.5t22.5 -97t62 -78.5t92.5 -52.5t114 -19q56 0 106.5 18t88.5 49t60 72t22 87q0 31 -11 58.5t-29.5 47.5t-44 31.5t-55.5 11.5q-49 0 -79 -24.5t-30 -65.5q0 -30 15.5 -50.5t38.5 -20.5t23 24q0 7 -1 15.5t-1 15.5q0 17 11 28.5t28 11.5q21 0 36 -18t15 -44
q0 -18 -8 -33.5t-22 -27t-33 -18.5t-40 -7q-24 0 -44.5 9.5t-35 26.5t-23 40.5t-8.5 51.5q0 36 14.5 66t40 51.5t61 33.5t78.5 12h105q60 0 96 25t36 67q0 26 -16 45.5t-36 19.5q-17 0 -21 -11t-7 -23.5t-10.5 -23.5t-32.5 -11q-24 0 -37.5 13.5t-13.5 37.5q0 33 25 52.5
t68 19.5q31 0 57.5 -11t45.5 -30t30 -45.5t11 -57.5q0 -35 -14.5 -64.5t-40 -51.5t-61 -34.5t-77.5 -13.5l-2 -4q26 -16 42.5 -57t16.5 -92q0 -64 -28.5 -120t-77.5 -97.5t-116 -65.5t-143 -24q-75 0 -139 23t-111 63t-73.5 94.5t-26.5 118.5q0 88 45.5 149.5t123.5 81.5
q-8 17 -12.5 43.5t-4.5 50.5q0 37 13 67.5t36.5 52.5t56 34t71.5 12z" />
  </g>

</svg>
