<?xml version="1.0" standalone="no"?>
<!DOCTYPE svg PUBLIC "-//W3C//DTD SVG 1.1//EN" "http://www.w3.org/Graphics/SVG/1.1/DTD/svg11.dtd" >
<svg xmlns="http://www.w3.org/2000/svg" xmlns:xlink="http://www.w3.org/1999/xlink" version="1.1" viewBox="-10 0 451 1000">
  <g transform="matrix(1 0 0 -1 0 800)">
   <path fill="currentColor"
d="M373 161q-33 -66 -75.5 -108t-91.5 -56l-44 -69q51 0 77.5 -16t26.5 -47q0 -26 -13 -48.5t-34.5 -39.5t-49 -27t-55.5 -10q-45 0 -72 18t-27 45q0 21 12 35t29 14q12 0 16.5 -11t8 -23.5t10.5 -23.5t25 -11q24 0 44.5 18t20.5 45q0 41 -67 41q-10 0 -20 -0.5t-15 -1.5
l-1 3l70 102q-61 4 -97.5 47.5t-36.5 115.5q0 44 13 90t35 89t52 81t64 66t70.5 44.5t71.5 16.5q48 0 79 -26t31 -65q0 -25 -14.5 -40.5t-37.5 -15.5t-37.5 14.5t-14.5 35.5q0 13 4 21t4 15q0 14 -24 14q-33 0 -67 -31t-61.5 -80t-45 -109.5t-17.5 -120.5q0 -48 18.5 -75.5
t51.5 -27.5q18 0 37.5 10t39.5 27.5t38.5 41.5t33.5 53z" />
  </g>

</svg>
