<?xml version="1.0" standalone="no"?>
<!DOCTYPE svg PUBLIC "-//W3C//DTD SVG 1.1//EN" "http://www.w3.org/Graphics/SVG/1.1/DTD/svg11.dtd" >
<svg xmlns="http://www.w3.org/2000/svg" xmlns:xlink="http://www.w3.org/1999/xlink" version="1.1" viewBox="-10 0 478 1000">
  <g transform="matrix(1 0 0 -1 0 800)">
   <path fill="currentColor"
d="M381 161q-40 -80 -93 -123.5t-113 -46.5l-44 -138h-52l45 143q-48 13 -75 54t-27 103q0 61 24 124.5t62.5 117.5t87 92t98.5 49l54 162h52l-52 -159q39 -6 64.5 -30.5t25.5 -59.5q0 -25 -14.5 -40.5t-37.5 -15.5t-37.5 14.5t-14.5 35.5q0 13 4 21t4 15q0 14 -24 14
q-33 0 -67 -31t-61.5 -80t-45 -109.5t-17.5 -120.5q0 -48 18.5 -75.5t51.5 -27.5q18 0 37.5 10t39.5 27.5t38.5 41.5t33.5 53z" />
  </g>

</svg>
