<?xml version="1.0" standalone="no"?>
<!DOCTYPE svg PUBLIC "-//W3C//DTD SVG 1.1//EN" "http://www.w3.org/Graphics/SVG/1.1/DTD/svg11.dtd" >
<svg xmlns="http://www.w3.org/2000/svg" xmlns:xlink="http://www.w3.org/1999/xlink" version="1.1" viewBox="-10 0 466 1000">
  <g transform="matrix(1 0 0 -1 0 800)">
   <path fill="currentColor"
d="M371 133q-87 -143 -214 -143q-69 0 -106 42.5t-37 120.5q0 69 28.5 138t74.5 124.5t103 90t114 34.5q48 0 78.5 -24.5t30.5 -62.5q0 -35 -26 -72t-70.5 -70t-104 -60t-126.5 -42q-2 -14 -3 -27.5t-1 -27.5q0 -109 77 -109q37 0 76.5 29t73.5 80zM314 493q-26 0 -54 -20
t-53.5 -53.5t-46.5 -76.5t-34 -89q48 13 89 34t70.5 47.5t46.5 56t17 59.5q0 42 -35 42zM392 651l-119 65q-18 10 -28.5 20.5t-10.5 23.5q0 20 15.5 31.5t33.5 11.5q31 0 58 -33l98 -119h-47z" />
  </g>

</svg>
