<?xml version="1.0" standalone="no"?>
<!DOCTYPE svg PUBLIC "-//W3C//DTD SVG 1.1//EN" "http://www.w3.org/Graphics/SVG/1.1/DTD/svg11.dtd" >
<svg xmlns="http://www.w3.org/2000/svg" xmlns:xlink="http://www.w3.org/1999/xlink" version="1.1" viewBox="-10 0 649 1000">
  <g transform="matrix(1 0 0 -1 0 800)">
   <path fill="currentColor"
d="M416 429q67 -42 97 -94t30 -113q0 -51 -20.5 -93.5t-57.5 -73t-88 -48t-111 -17.5q-105 0 -164 50.5t-59 141.5q0 162 210 222q-52 35 -79.5 79.5t-27.5 93.5q0 42 20 79t53.5 64.5t78 43.5t94.5 16q43 0 80.5 -12t65.5 -34t43.5 -51.5t15.5 -63.5q0 -33 -14 -64.5
t-38.5 -57t-57.5 -43.5t-71 -25zM290 383q-146 -66 -146 -208q0 -65 32.5 -98.5t95.5 -33.5q37 0 67.5 11t52.5 31t34.5 47t12.5 60q0 49 -24.5 86.5t-72.5 70.5zM378 450q60 32 92 72.5t32 92.5q0 49 -30.5 81t-87.5 32q-28 0 -52.5 -8.5t-42.5 -24t-28.5 -37t-10.5 -47.5
q0 -34 21.5 -70t65.5 -65z" />
  </g>

</svg>
