<?xml version="1.0" standalone="no"?>
<!DOCTYPE svg PUBLIC "-//W3C//DTD SVG 1.1//EN" "http://www.w3.org/Graphics/SVG/1.1/DTD/svg11.dtd" >
<svg xmlns="http://www.w3.org/2000/svg" xmlns:xlink="http://www.w3.org/1999/xlink" version="1.1" viewBox="-204 0 1062 1000">
  <g transform="matrix(1 0 0 -1 0 800)">
   <path fill="currentColor"
d="M687 -34q-11 -43 -32.5 -83.5t-49.5 -72t-61 -51t-67 -19.5q-37 0 -61.5 22t-24.5 54q0 27 13 43t36 16q18 0 27 -11.5t15 -26t12 -26t18 -11.5q20 0 35.5 24t25.5 63l111 443q7 26 11.5 45t4.5 33q0 26 -19.5 34t-61.5 8h-91l-93 -377q-23 -91 -46.5 -154.5t-51.5 -103
t-61 -57.5t-74 -18q-46 0 -72.5 18t-26.5 50q0 21 12 34t32 13q16 0 25 -8.5t15.5 -19t14.5 -19t23 -8.5q43 0 66 87l144 563h-189l-94 -377q-23 -90 -47 -153.5t-53 -103t-63.5 -58t-76.5 -18.5q-49 0 -77.5 21t-28.5 56q0 24 13 38.5t36 14.5q21 0 29 -11t13.5 -24
t12.5 -24t25 -11q24 0 43 22.5t30 64.5l145 563h-96l13 46h95q22 80 46 134.5t52.5 87.5t64 47.5t82.5 14.5q43 0 78 -8.5t58 -24.5q31 43 66.5 63t80.5 20q27 0 51 -6.5t41.5 -18.5t27.5 -28t10 -34q0 -24 -14 -39t-37 -15q-26 0 -35.5 15t-14.5 33t-12 33t-27 15
q-42 0 -78.5 -74t-65.5 -215h77q66 0 103 5t60 5q15 0 23 -5t8 -22q0 -13 -3.5 -34.5t-12.5 -57.5zM447 496q12 50 29 101t34 89q-15 23 -40.5 36t-55.5 13q-27 0 -48.5 -12t-39.5 -39.5t-34.5 -73.5t-34.5 -114h190z" />
  </g>

</svg>
