<?xml version="1.0" standalone="no"?>
<!DOCTYPE svg PUBLIC "-//W3C//DTD SVG 1.1//EN" "http://www.w3.org/Graphics/SVG/1.1/DTD/svg11.dtd" >
<svg xmlns="http://www.w3.org/2000/svg" xmlns:xlink="http://www.w3.org/1999/xlink" version="1.1" viewBox="-204 0 1303 1000">
  <g transform="matrix(1 0 0 -1 0 800)">
   <path fill="currentColor"
d="M943 80q29 0 82 75l26 -14q-72 -151 -149 -151q-24 0 -39.5 16.5t-34.5 61.5l-67 160l-22 -10l-63 -218h-91l183 689q3 12 3 23q0 29 -15 46t-41 17q-52 0 -97 -71.5t-79 -207.5h108l-14 -46h-105l-94 -377q-23 -90 -47 -153.5t-53 -103t-63.5 -58t-76.5 -18.5
q-45 0 -70.5 18t-25.5 49q0 24 13 38.5t36 14.5q18 0 25.5 -9.5t12 -20.5t10.5 -20.5t22 -9.5q24 0 43 22.5t30 64.5l145 563h-189l-94 -377q-23 -90 -47 -153.5t-53 -103t-63.5 -58t-76.5 -18.5q-49 0 -77.5 21t-28.5 56q0 24 13 38.5t36 14.5q21 0 29 -11t13.5 -24
t12.5 -24t25 -11q24 0 43 22.5t30 64.5l145 563h-96l13 46h95q22 80 46 134.5t52.5 87.5t64 47.5t82.5 14.5q42 0 80.5 -9.5t64.5 -29.5q33 41 72 60t87 19q49 0 81 -16l105 26l-104 -385l4 -1q58 97 147 97q47 0 74 -22.5t27 -60.5q0 -47 -46.5 -94t-129.5 -85l-26 -12
l51 -132q20 -55 46 -55zM447 496q30 111 67 182q-15 28 -43.5 42.5t-56.5 14.5q-27 0 -48.5 -12t-39.5 -39.5t-34.5 -73.5t-34.5 -114h190zM748 268q43 15 80 35t63.5 42t41.5 44.5t15 42.5q0 41 -41 41q-21 0 -44 -16.5t-45 -44.5t-40.5 -65.5t-29.5 -78.5z" />
  </g>

</svg>
