<?xml version="1.0" standalone="no"?>
<!DOCTYPE svg PUBLIC "-//W3C//DTD SVG 1.1//EN" "http://www.w3.org/Graphics/SVG/1.1/DTD/svg11.dtd" >
<svg xmlns="http://www.w3.org/2000/svg" xmlns:xlink="http://www.w3.org/1999/xlink" version="1.1" viewBox="-204 0 1353 1000">
  <g transform="matrix(1 0 0 -1 0 800)">
   <path fill="currentColor"
d="M931 311q17 51 24.5 81t7.5 53t-7.5 32.5t-25.5 9.5q-31 0 -61 -24t-60.5 -75t-63.5 -130t-70 -189l-23 -69h-84l199 682q4 15 4 30q0 29 -15 46t-41 17q-52 0 -97 -71.5t-79 -207.5h108l-14 -46h-105l-94 -377q-23 -90 -47 -153.5t-53 -103t-63.5 -58t-76.5 -18.5
q-45 0 -70.5 18t-25.5 49q0 24 13 38.5t36 14.5q18 0 25.5 -9.5t12 -20.5t10.5 -20.5t22 -9.5q24 0 43 22.5t30 64.5l145 563h-189l-94 -377q-23 -90 -47 -153.5t-53 -103t-63.5 -58t-76.5 -18.5q-49 0 -77.5 21t-28.5 56q0 24 13 38.5t36 14.5q21 0 29 -11t13.5 -24
t12.5 -24t25 -11q24 0 43 22.5t30 64.5l145 563h-96l13 46h95q22 80 46 134.5t52.5 87.5t64 47.5t82.5 14.5q42 0 80.5 -9.5t64.5 -29.5q33 41 72 60t87 19q49 0 81 -16l108 26l-114 -386l3 -2q32 47 74 72.5t88 25.5q48 0 73 -28t25 -81q0 -33 -10 -77t-31 -101
q-20 -54 -31 -85t-16 -47.5t-6.5 -22.5t-1.5 -10q0 -23 19 -23q20 0 49.5 23.5t59.5 65.5l28 -21q-16 -29 -39.5 -55t-51 -45.5t-56 -31t-53.5 -11.5q-27 0 -39 15t-12 48q0 17 3 36t10.5 47.5t21 70t35.5 104.5zM447 496q30 111 67 182q-15 28 -43.5 42.5t-56.5 14.5
q-27 0 -48.5 -12t-39.5 -39.5t-34.5 -73.5t-34.5 -114h190z" />
  </g>

</svg>
