<?xml version="1.0" standalone="no"?>
<!DOCTYPE svg PUBLIC "-//W3C//DTD SVG 1.1//EN" "http://www.w3.org/Graphics/SVG/1.1/DTD/svg11.dtd" >
<svg xmlns="http://www.w3.org/2000/svg" xmlns:xlink="http://www.w3.org/1999/xlink" version="1.1" viewBox="-204 0 818 1000">
  <g transform="matrix(1 0 0 -1 0 800)">
   <path fill="currentColor"
d="M152 73q-26 -102 -52 -166.5t-56 -101.5t-64.5 -51t-77.5 -14q-42 0 -69 22t-27 54q0 25 13 39.5t36 14.5q21 0 29 -11t13.5 -24t12.5 -24t27 -11q23 0 42 24t29 63l145 563h-96l13 46h95q22 90 48 153t56 103.5t64 59t73 18.5q59 0 97 -24.5t38 -61.5q0 -23 -12.5 -39
t-35.5 -16q-19 0 -29.5 7t-16 18t-8 23t-6.5 23t-12 18t-24 7q-20 0 -39.5 -21.5t-37.5 -60t-34 -91.5t-29 -116h88q59 0 92.5 5t56.5 5q15 0 23 -5t8 -22q0 -13 -5 -35t-16 -57l-67 -219q-2 -5 -4.5 -15t-5 -21t-4.5 -22t-2 -18q0 -10 5 -17.5t17 -7.5q15 0 30.5 12.5
t29.5 29.5t25 34.5t16 27.5l31 -17q-10 -24 -28 -53t-42 -53.5t-53.5 -41t-61.5 -16.5q-31 0 -46.5 17.5t-15.5 57.5q0 26 7 58t21 79l38 128q8 26 12 45t4 33q0 28 -20.5 35t-66.5 7h-77z" />
  </g>

</svg>
