<?xml version="1.0" standalone="no"?>
<!DOCTYPE svg PUBLIC "-//W3C//DTD SVG 1.1//EN" "http://www.w3.org/Graphics/SVG/1.1/DTD/svg11.dtd" >
<svg xmlns="http://www.w3.org/2000/svg" xmlns:xlink="http://www.w3.org/1999/xlink" version="1.1" viewBox="-204 0 772 1000">
  <g transform="matrix(1 0 0 -1 0 800)">
   <path fill="currentColor"
d="M152 73q-26 -102 -52 -166.5t-56 -101.5t-64.5 -51t-77.5 -14q-42 0 -69 22t-27 54q0 25 13 39.5t36 14.5q21 0 29 -11t13.5 -24t12.5 -24t27 -11q23 0 42 24t29 63l145 563h-96l13 46h95q22 90 48 153t56 103.5t64 59t73 18.5q59 0 97 -24.5t38 -61.5q0 -23 -12.5 -39
t-35.5 -16q-19 0 -29.5 7t-16 18t-8 23t-6.5 23t-12 18t-24 7q-20 0 -39.5 -21.5t-37.5 -60t-34 -91.5t-29 -116h88q57 0 89.5 5t54.5 5q15 0 23 -5t8 -22q0 -13 -3.5 -34.5t-12.5 -57.5l-107 -421q-11 -43 -32.5 -83.5t-49.5 -72t-61 -51t-67 -19.5q-37 0 -61.5 22
t-24.5 54q0 27 13 43t36 16q18 0 27 -11.5t15 -26t12 -26t18 -11.5q20 0 35 22.5t26 64.5l111 443q7 26 11.5 45t4.5 33q0 25 -16.5 33.5t-53.5 8.5h-94z" />
  </g>

</svg>
