<?xml version="1.0" standalone="no"?>
<!DOCTYPE svg PUBLIC "-//W3C//DTD SVG 1.1//EN" "http://www.w3.org/Graphics/SVG/1.1/DTD/svg11.dtd" >
<svg xmlns="http://www.w3.org/2000/svg" xmlns:xlink="http://www.w3.org/1999/xlink" version="1.1" viewBox="-10 0 354 1000">
  <g transform="matrix(1 0 0 -1 0 800)">
   <path fill="currentColor"
d="M225 665q43 0 71 -25.5t28 -64.5q0 -23 -10.5 -43t-28.5 -35t-42 -24t-51 -9q-39 0 -63 17.5t-24 46.5q0 22 13.5 38t33.5 16q10 0 17 -5t9 -13q-13 0 -21.5 -10.5t-8.5 -27.5t12.5 -26.5t34.5 -9.5q33 0 55 25.5t22 64.5q0 60 -61 60q-15 0 -25 -4t-16.5 -8.5t-11 -8
t-8.5 -3.5q-6 0 -6 7q0 2 1.5 7t2.5 7l50 143q9 -3 27 -5t40 -2q44 0 66 8l3 -1q-17 -49 -70 -49q-11 0 -26.5 2t-28.5 5l-27 -77l3 -2q5 2 17 4t23 2z" />
  </g>

</svg>
