<?xml version="1.0" standalone="no"?>
<!DOCTYPE svg PUBLIC "-//W3C//DTD SVG 1.1//EN" "http://www.w3.org/Graphics/SVG/1.1/DTD/svg11.dtd" >
<svg xmlns="http://www.w3.org/2000/svg" xmlns:xlink="http://www.w3.org/1999/xlink" version="1.1" viewBox="-10 0 620 1000">
  <g transform="matrix(1 0 0 -1 0 800)">
   <path fill="currentColor"
d="M318 491q51 0 94 -16.5t74.5 -46.5t49 -71t17.5 -89q0 -57 -25 -108t-68 -88.5t-100.5 -59.5t-122.5 -22q-47 0 -85 11.5t-65 32t-41.5 50t-14.5 65.5q0 27 8.5 51.5t23 43t33.5 29.5t41 11q24 0 42.5 -12.5t22.5 -31.5q-32 0 -54 -27t-22 -68q0 -48 31.5 -75.5
t85.5 -27.5q42 0 77 18t60.5 49.5t40 75t14.5 95.5q0 79 -35.5 120t-104.5 41q-36 0 -60.5 -9t-42 -20.5t-29 -20.5t-20.5 -9q-6 0 -10.5 4.5t-4.5 12.5q0 7 2 13l125 368q24 -8 66.5 -13t96.5 -5q55 0 98 5t69 14l6 -1q-42 -119 -174 -119q-15 0 -32.5 1.5t-36 4t-36.5 5.5
t-34 7l-67 -197l4 -6q7 3 19 5.5t26 5t29.5 3.5t28.5 1z" />
  </g>

</svg>
