<?xml version="1.0" standalone="no"?>
<!DOCTYPE svg PUBLIC "-//W3C//DTD SVG 1.1//EN" "http://www.w3.org/Graphics/SVG/1.1/DTD/svg11.dtd" >
<svg xmlns="http://www.w3.org/2000/svg" xmlns:xlink="http://www.w3.org/1999/xlink" version="1.1" viewBox="-10 0 439 1000">
  <g transform="matrix(1 0 0 -1 0 800)">
   <path fill="currentColor"
d="M131 330q14 39 20 63t6 38t-4.5 18.5t-9.5 4.5q-11 0 -24 -10.5t-26 -24.5t-23 -28t-14 -22l-29 18q12 22 33.5 49t48.5 50t56 38.5t55 15.5q25 0 37.5 -14.5t12.5 -52.5q0 -29 -17 -77.5t-46 -126.5l-37 -101q-2 -5 -5.5 -15.5t-7 -22t-6 -22.5t-2.5 -18q0 -9 5 -16
t16 -7q15 0 31 12.5t31 29.5t27 34.5t18 27.5l30 -17q-12 -24 -32.5 -53t-46.5 -53.5t-57 -41t-64 -16.5q-29 0 -43.5 15t-14.5 50q0 29 9.5 62.5t27.5 84.5zM419 776q-9 -29 -27 -52.5t-41 -41t-50 -27t-55 -9.5q-50 0 -78.5 27t-28.5 71q0 17 4 32h36q2 -28 25 -44.5
t60 -16.5q38 0 70 16.5t48 44.5h37z" />
  </g>

</svg>
