<?xml version="1.0" standalone="no"?>
<!DOCTYPE svg PUBLIC "-//W3C//DTD SVG 1.1//EN" "http://www.w3.org/Graphics/SVG/1.1/DTD/svg11.dtd" >
<svg xmlns="http://www.w3.org/2000/svg" xmlns:xlink="http://www.w3.org/1999/xlink" version="1.1" viewBox="-10 0 665 1000">
  <g transform="matrix(1 0 0 -1 0 800)">
   <path fill="currentColor"
d="M131 330q14 39 20 63t6 38t-4.5 18.5t-9.5 4.5q-11 0 -24 -10.5t-26 -24.5t-23 -28t-14 -22l-29 18q12 22 33.5 49t48.5 50t56 38.5t55 15.5q25 0 37.5 -14.5t12.5 -52.5q0 -29 -17.5 -78t-45.5 -126l-37 -101q-2 -5 -5.5 -15.5t-7 -22t-6 -22.5t-2.5 -18q0 -9 5 -16
t16 -7q15 0 31 12.5t31 29.5t27 34.5t18 27.5l30 -17q-12 -24 -32.5 -53t-46.5 -53.5t-57 -41t-64 -16.5q-29 0 -43.5 15t-14.5 50q0 29 9.5 62.5t27.5 84.5zM278 704q-25 0 -43.5 17t-18.5 44t18 46t44 19q28 0 46 -19t18 -45t-19 -44t-45 -18zM581 704q-25 0 -43.5 17
t-18.5 44t18 46t44 19q28 0 46 -19t18 -45t-19 -44t-45 -18zM466 331q10 39 15.5 64t5.5 39q0 20 -15 20q-11 0 -24 -10.5t-25.5 -24.5t-22.5 -28t-14 -22l-29 18q12 22 33.5 49t48.5 50t56 38.5t55 15.5q50 0 50 -56q0 -33 -13.5 -87t-34.5 -130l-83 -301
q-12 -43 -34.5 -83.5t-52 -72t-63.5 -51t-70 -19.5q-42 0 -69 22t-27 54q0 27 13 43t36 16q21 0 31 -11.5t16.5 -26t13.5 -26t21 -11.5q24 0 42.5 24t28.5 63z" />
  </g>

</svg>
