<?xml version="1.0" standalone="no"?>
<!DOCTYPE svg PUBLIC "-//W3C//DTD SVG 1.1//EN" "http://www.w3.org/Graphics/SVG/1.1/DTD/svg11.dtd" >
<svg xmlns="http://www.w3.org/2000/svg" xmlns:xlink="http://www.w3.org/1999/xlink" version="1.1" viewBox="-10 0 454 1000">
  <g transform="matrix(1 0 0 -1 0 800)">
   <path fill="currentColor"
d="M131 330q14 39 20 63t6 38t-4.5 18.5t-9.5 4.5q-11 0 -24 -10.5t-26 -24.5t-23 -28t-14 -22l-29 18q12 22 33.5 49t48.5 50t56 38.5t55 15.5q25 0 37.5 -14.5t12.5 -52.5q0 -29 -17 -77.5t-46 -126.5l-37 -101q-2 -5 -5.5 -15.5t-7 -22t-6 -22.5t-2.5 -18q0 -9 5 -16
t16 -7q15 0 31 12.5t31 29.5t27 34.5t18 27.5l30 -17q-12 -24 -32.5 -53t-46.5 -53.5t-57 -41t-64 -16.5q-29 0 -43.5 15t-14.5 50q0 29 9.5 62.5t27.5 84.5zM93 660q8 51 37.5 82.5t67.5 31.5q15 0 36 -5.5t50 -18.5t44.5 -17.5t28.5 -4.5q17 0 27 9.5t17 32.5h33
q-2 -20 -11 -43t-21 -39q-27 -36 -67 -36q-14 0 -31.5 5.5t-52.5 19.5q-34 13 -52 18t-30 5q-17 0 -26 -9t-16 -31h-34z" />
  </g>

</svg>
