<?xml version="1.0" standalone="no"?>
<!DOCTYPE svg PUBLIC "-//W3C//DTD SVG 1.1//EN" "http://www.w3.org/Graphics/SVG/1.1/DTD/svg11.dtd" >
<svg xmlns="http://www.w3.org/2000/svg" xmlns:xlink="http://www.w3.org/1999/xlink" version="1.1" viewBox="-10 0 928 1000">
  <g transform="matrix(1 0 0 -1 0 800)">
   <path fill="currentColor"
d="M865 386q0 -83 -30.5 -155t-83.5 -125.5t-123.5 -84.5t-151.5 -31q-80 0 -150 31t-122.5 85t-82.5 126t-30 153t30 153t82 126t122 85t150 31q81 0 152 -31t124 -84t83.5 -125t30.5 -154zM817 386q0 72 -27 135.5t-73.5 110t-108.5 73.5t-133 27t-132 -27.5t-106.5 -75
t-71.5 -110.5t-26 -134q0 -72 26 -135t72 -110t107 -74.5t132 -27.5q70 0 132.5 27.5t108.5 74.5t73 110.5t27 135.5zM626 507q0 -45 -25.5 -75t-82.5 -39l124 -150q14 -17 29 -25.5t38 -12.5v-22h-108l-138 171q-7 9 -12.5 15t-12 9t-15 4t-20.5 1v-112q0 -20 2 -33
t9.5 -20.5t22 -10t38.5 -2.5v-22h-198v22q36 1 46 13t10 50v259q0 19 -2 31t-7 19t-15 9.5t-26 3.5v25h175q81 0 124.5 -28.5t43.5 -79.5zM403 416h40q51 0 75.5 20.5t24.5 67.5q0 45 -20 63t-65 18h-46q-9 0 -9 -9v-160z" />
  </g>

</svg>
