<?xml version="1.0" standalone="no"?>
<!DOCTYPE svg PUBLIC "-//W3C//DTD SVG 1.1//EN" "http://www.w3.org/Graphics/SVG/1.1/DTD/svg11.dtd" >
<svg xmlns="http://www.w3.org/2000/svg" xmlns:xlink="http://www.w3.org/1999/xlink" version="1.1" viewBox="-23 0 911 1000">
  <g transform="matrix(1 0 0 -1 0 800)">
   <path fill="currentColor"
d="M77 387q0 33 12.5 61t35 48.5t53.5 32t69 11.5q-11 17 -19 37.5t-8 44.5q0 23 9 42.5t25 34t38 23t47 8.5q19 0 39 -5t39.5 -11t38.5 -11t37 -5q31 0 58.5 18.5t46.5 53.5h76l-66 -238q16 3 31.5 5t31.5 2q85 0 132 -46t47 -129q0 -66 -31.5 -124.5t-84 -104.5
t-121 -76.5t-142.5 -40.5l-37 -139q-5 -15 -6.5 -25t-1.5 -18q0 -25 20.5 -35t72.5 -11l-6 -40h-283l6 40q42 0 61 10t27 36l181 618q-18 -9 -36 -21t-32 -26l-27 28q21 23 51 40.5t59 29.5l52 179q-16 -17 -36 -26.5t-45 -9.5q-24 0 -44 5t-37 10.5t-33.5 10.5t-32.5 5
q-34 0 -54 -21t-20 -56q0 -27 12.5 -46.5t36.5 -36.5q17 -11 26.5 -28t9.5 -37q0 -21 -11.5 -33t-31.5 -12q-23 0 -33 13.5t-17 30t-15 30.5t-27 14q-22 0 -37 -19t-15 -47q0 -33 19.5 -61.5t43.5 -59.5t43.5 -68t19.5 -87q0 -34 -14.5 -64t-39 -52.5t-56.5 -35.5t-66 -13
q-60 0 -95.5 26t-35.5 68q0 29 13.5 45.5t36.5 16.5q43 0 49 -59q3 -32 10.5 -42.5t30.5 -10.5q36 0 57 21.5t21 59.5q0 40 -20 71t-44 60.5t-44 62.5t-20 78zM645 490q-13 0 -25.5 -1.5t-24.5 -3.5l-113 -424q50 10 97.5 37t84.5 67t59.5 89.5t22.5 103.5q0 60 -27.5 96
t-73.5 36z" />
  </g>

</svg>
