<?xml version="1.0" standalone="no"?>
<!DOCTYPE svg PUBLIC "-//W3C//DTD SVG 1.1//EN" "http://www.w3.org/Graphics/SVG/1.1/DTD/svg11.dtd" >
<svg xmlns="http://www.w3.org/2000/svg" xmlns:xlink="http://www.w3.org/1999/xlink" version="1.1" viewBox="-10 0 822 1000">
  <g transform="matrix(1 0 0 -1 0 800)">
   <path fill="currentColor"
d="M593 544l98 226h100v-20q-26 -1 -33 -12.5t-7 -48.5v-146q0 -20 1.5 -32t6 -18t13.5 -8.5t23 -2.5v-20h-135v20q15 0 23.5 2.5t13 8.5t6 17t1.5 30v180h-4l-117 -262h-8l-113 262h-4v-177q0 -20 1.5 -32t6 -18t13.5 -8.5t23 -2.5v-20h-117v20q14 0 23 2.5t13.5 8.5t6 17
t1.5 30v152q0 34 -7 45t-33 13v20h106l94 -226h4zM153 562h18q5 -29 25.5 -51t59.5 -22q25 0 42.5 12t17.5 35q0 20 -11.5 32t-28 20.5t-36.5 16t-36.5 19t-28 28t-11.5 44.5q0 40 27.5 62t62.5 22q33 0 63 -24l11 18h11v-79h-17q-8 23 -22.5 41.5t-44.5 18.5
q-19 0 -33.5 -9.5t-14.5 -29.5q0 -19 11.5 -31.5t29.5 -22t38 -18t38 -20t29.5 -28t11.5 -42.5q0 -23 -9.5 -40t-25.5 -28t-35.5 -16.5t-39.5 -5.5q-23 0 -41.5 7t-35.5 21l-11 -20h-14v90z" />
  </g>

</svg>
