<?xml version="1.0" standalone="no"?>
<!DOCTYPE svg PUBLIC "-//W3C//DTD SVG 1.1//EN" "http://www.w3.org/Graphics/SVG/1.1/DTD/svg11.dtd" >
<svg xmlns="http://www.w3.org/2000/svg" xmlns:xlink="http://www.w3.org/1999/xlink" version="1.1" viewBox="-10 0 345 1000">
  <g transform="matrix(1 0 0 -1 0 800)">
   <path fill="currentColor"
d="M258 556q0 26 -12.5 44t-32.5 18q-7 0 -16 -1.5t-15 -1.5q-13 0 -13 8q0 13 16.5 16t37 8t37 17.5t16.5 45.5q0 45 -36 45q-21 0 -34.5 -10.5t-13.5 -26.5q0 -26 25 -26q-7 -15 -27 -15q-18 0 -28.5 10t-10.5 27q0 29 26 47.5t66 18.5q38 0 60 -16.5t22 -45.5
q0 -28 -21 -51.5t-52 -30.5v-4q28 -7 43 -25.5t15 -44.5q0 -20 -9.5 -38t-26.5 -31.5t-39.5 -21t-48.5 -7.5q-39 0 -63.5 17t-24.5 45q0 23 16 39.5t38 16.5q11 0 18.5 -5t9.5 -13q-15 0 -26 -12.5t-11 -29.5q0 -32 46 -32q31 0 50 18t19 48z" />
  </g>

</svg>
