<?xml version="1.0" standalone="no"?>
<!DOCTYPE svg PUBLIC "-//W3C//DTD SVG 1.1//EN" "http://www.w3.org/Graphics/SVG/1.1/DTD/svg11.dtd" >
<svg xmlns="http://www.w3.org/2000/svg" xmlns:xlink="http://www.w3.org/1999/xlink" version="1.1" viewBox="-10 0 715 1000">
  <g transform="matrix(1 0 0 -1 0 800)">
   <path fill="currentColor"
d="M81 0h-67l623 770h58zM523 166q27 -17 39 -38t12 -45q0 -41 -32.5 -67t-83.5 -26q-44 0 -69 20.5t-25 56.5q0 65 84 89q-20 14 -31.5 31.5t-11.5 37.5q0 17 8.5 31.5t22.5 25.5t33 17.5t40 6.5q37 0 62 -18.5t25 -45.5t-21 -49t-52 -27zM468 147q-58 -24 -58 -78
q0 -53 51 -53q29 0 48 15.5t19 39.5q0 20 -10 34.5t-29 28.5zM503 174q24 12 37 26.5t13 34.5t-12 32.5t-35 12.5t-38.5 -11.5t-15.5 -30.5q0 -14 9 -28t26 -26zM267 556q0 26 -12.5 44t-32.5 18q-7 0 -16 -1.5t-15 -1.5q-13 0 -13 8q0 13 16.5 16t37 8t37 17.5t16.5 45.5
q0 45 -36 45q-21 0 -34.5 -10.5t-13.5 -26.5q0 -26 25 -26q-7 -15 -27 -15q-18 0 -28.5 10t-10.5 27q0 29 26 47.5t66 18.5q38 0 60 -16.5t22 -45.5q0 -28 -21 -51.5t-52 -30.5v-4q28 -7 43 -25.5t15 -44.5q0 -20 -9.5 -38t-26.5 -31.5t-39.5 -21t-48.5 -7.5q-39 0 -63.5 17
t-24.5 45q0 23 16 39.5t38 16.5q11 0 18.5 -5t9.5 -13q-15 0 -26 -12.5t-11 -29.5q0 -32 46 -32q31 0 50 18t19 48z" />
  </g>

</svg>
