<?xml version="1.0" standalone="no"?>
<!DOCTYPE svg PUBLIC "-//W3C//DTD SVG 1.1//EN" "http://www.w3.org/Graphics/SVG/1.1/DTD/svg11.dtd" >
<svg xmlns="http://www.w3.org/2000/svg" xmlns:xlink="http://www.w3.org/1999/xlink" version="1.1" viewBox="-10 0 949 1000">
  <g transform="matrix(1 0 0 -1 0 800)">
   <path fill="currentColor"
d="M484 694h-21q-3 32 -15.5 43t-43.5 11q-29 0 -37 -2.5t-8 -10.5v-204q0 -26 9 -37t43 -12v-20h-161v20q34 2 43 12.5t9 36.5v204q0 8 -7 10.5t-33 2.5q-13 0 -24.5 -1.5t-20 -6.5t-13.5 -16t-6 -30h-20v76h302zM712 544l98 226h100v-20q-26 -1 -33 -12.5t-7 -48.5v-146
q0 -20 1.5 -32t6 -18t13.5 -8.5t23 -2.5v-20h-135v20q15 0 23.5 2.5t13 8.5t6 17t1.5 30v180h-4l-117 -262h-8l-113 262h-4v-177q0 -20 1.5 -32t6 -18t13.5 -8.5t23 -2.5v-20h-117v20q14 0 23 2.5t13.5 8.5t6 17t1.5 30v152q0 34 -7 45t-33 13v20h106l94 -226h4z" />
  </g>

</svg>
