<?xml version="1.0" standalone="no"?>
<!DOCTYPE svg PUBLIC "-//W3C//DTD SVG 1.1//EN" "http://www.w3.org/Graphics/SVG/1.1/DTD/svg11.dtd" >
<svg xmlns="http://www.w3.org/2000/svg" xmlns:xlink="http://www.w3.org/1999/xlink" version="1.1" viewBox="-24 0 664 1000">
  <g transform="matrix(1 0 0 -1 0 800)">
   <path fill="currentColor"
d="M123 268q12 37 20 63t12.5 44.5t6.5 31t2 21.5q0 21 -11 21q-24 0 -93 -84l-26 14q16 32 40 61t50.5 51.5t53.5 35.5t49 13q23 0 36.5 -14.5t13.5 -40.5q0 -12 -1.5 -23.5t-8.5 -34.5t-20 -62t-36 -106q-17 -49 -26 -89.5t-9 -65.5q0 -42 27 -42q19 0 44.5 21.5t52 58.5
t52 85.5t45.5 102.5l74 200h93l-74 -229q-17 -51 -28 -87t-17.5 -60t-9.5 -39t-3 -24q0 -26 17 -26q10 0 24.5 9.5t29 26t28 37t23.5 43.5l30 -15q-15 -37 -37 -69t-46.5 -56t-51 -37.5t-50.5 -13.5q-28 0 -40 21t-12 70q0 15 1.5 29t3.5 28l-3 3q-32 -73 -71 -112t-80 -39
q-47 0 -63 36l-3 -1l-34 -206q-7 -41 -22.5 -60t-44.5 -19q-45 0 -45 50q0 17 6 41t20.5 74.5t33 112.5t39 128t38.5 122z" />
  </g>

</svg>
