<?xml version="1.0" standalone="no"?>
<!DOCTYPE svg PUBLIC "-//W3C//DTD SVG 1.1//EN" "http://www.w3.org/Graphics/SVG/1.1/DTD/svg11.dtd" >
<svg xmlns="http://www.w3.org/2000/svg" xmlns:xlink="http://www.w3.org/1999/xlink" version="1.1" viewBox="-35 0 1024 1000">
  <g transform="matrix(1 0 0 -1 0 800)">
   <path fill="currentColor"
d="M-14 40q33 0 54.5 5t36 18.5t24.5 36t19 58.5l113 442q7 28 11 48t4 34q0 31 -22.5 39.5t-76.5 8.5l11 40h325l-11 -40q-33 0 -55 -6.5t-38 -24.5t-28.5 -50t-25.5 -83l-104 -396q-9 -33 -9 -56q0 -36 24.5 -53.5t87.5 -17.5q60 0 103.5 10t76.5 32.5t57.5 58t45.5 87.5
h47l-88 -231h-593zM915 704q-25 0 -43.5 17t-18.5 44t18 46t44 19q28 0 46 -19t18 -45t-19 -44t-45 -18zM800 331q10 39 15.5 64t5.5 39q0 20 -15 20q-11 0 -24 -10.5t-25.5 -24.5t-22.5 -28t-14 -22l-29 18q12 22 33.5 49t48.5 50t56 38.5t55 15.5q50 0 50 -56
q0 -33 -13.5 -87t-34.5 -130l-83 -301q-12 -43 -34.5 -83.5t-52 -72t-63.5 -51t-70 -19.5q-42 0 -69 22t-27 54q0 27 13 43t36 16q21 0 31 -11.5t16.5 -26t13.5 -26t21 -11.5q24 0 42.5 24t28.5 63z" />
  </g>

</svg>
