<?xml version="1.0" standalone="no"?>
<!DOCTYPE svg PUBLIC "-//W3C//DTD SVG 1.1//EN" "http://www.w3.org/Graphics/SVG/1.1/DTD/svg11.dtd" >
<svg xmlns="http://www.w3.org/2000/svg" xmlns:xlink="http://www.w3.org/1999/xlink" version="1.1" viewBox="-10 0 860 1000">
  <g transform="matrix(1 0 0 -1 0 800)">
   <path fill="currentColor"
d="M407 97q-45 -52 -94 -79.5t-98 -27.5q-55 0 -86 35.5t-31 99.5q0 125 129 299l-2 3q-27 0 -45 8t-30.5 18t-22 18t-20.5 8q-16 0 -16 -17q0 -9 5.5 -16t12 -14t12 -15.5t5.5 -20.5q0 -18 -14 -29.5t-36 -11.5q-26 0 -40 16t-14 45q0 24 10 46.5t27 40t39.5 27.5t46.5 10
q21 0 35 -6.5t26 -15t23.5 -15t26.5 -6.5q8 0 14.5 3t15.5 12q11 11 22 19.5t25 8.5q21 0 21 -20q0 -3 -1 -6.5t-5.5 -9.5t-12.5 -15.5t-22 -25.5q-29 -34 -51.5 -72t-37.5 -76.5t-23 -76t-8 -70.5q0 -49 16 -76.5t45 -27.5q27 0 63 26.5t77 74.5q-2 21 -3.5 43t-1.5 40
q0 54 12.5 106.5t32.5 94t46 66.5t53 25q22 0 39.5 -19t17.5 -64q0 -54 -29 -125t-84 -149q9 -48 33.5 -78t53.5 -30q28 0 57 26t53 66.5t39.5 90t15.5 96.5q0 23 -3.5 40t-8 31.5t-8 28t-3.5 29.5q0 57 52 57q31 0 44.5 -23t13.5 -77q0 -80 -26 -160.5t-67.5 -145
t-93.5 -104.5t-104 -40q-42 0 -72 27t-46 80zM463 247q26 43 42.5 86t16.5 87q0 38 -15 38q-10 0 -19 -13t-15.5 -35t-10.5 -51.5t-4 -62.5q0 -14 1 -26t4 -23z" />
  </g>

</svg>
