<?xml version="1.0" standalone="no"?>
<!DOCTYPE svg PUBLIC "-//W3C//DTD SVG 1.1//EN" "http://www.w3.org/Graphics/SVG/1.1/DTD/svg11.dtd" >
<svg xmlns="http://www.w3.org/2000/svg" xmlns:xlink="http://www.w3.org/1999/xlink" version="1.1" viewBox="-19 0 538 1000">
  <g transform="matrix(1 0 0 -1 0 800)">
   <path fill="currentColor"
d="M160 155l2 -3q22 0 45.5 -10.5t47.5 -23t48 -23t47 -10.5q29 0 50 18t39 66l34 -13q-10 -37 -28 -67.5t-41.5 -52.5t-51 -34t-56.5 -12q-35 0 -60.5 14t-46.5 31.5t-40.5 31.5t-41.5 14q-21 0 -28.5 -12.5t-12.5 -28t-12.5 -28t-29.5 -12.5q-33 0 -33 30q0 19 16 39
t50 53l276 267l-2 3q-20 0 -42.5 13t-46 29t-47 29t-44.5 13q-17 0 -26.5 -8.5t-9.5 -22.5t8 -21t17.5 -13.5t17.5 -15.5t8 -27q0 -46 -49 -46q-32 0 -49.5 20.5t-17.5 56.5q0 30 12 55.5t33.5 44.5t50.5 30t62 11q37 0 62 -12t43.5 -27t34.5 -27t34 -12q17 0 25.5 10.5
t15 23.5t14 23.5t24.5 10.5q29 0 29 -31q0 -8 -2 -15t-8.5 -17t-20 -23.5l-35.5 -35.5zM88 -168q0 26 18 44t44 18t44 -18t18 -44t-18 -44t-44 -18t-44 18t-18 44z" />
  </g>

</svg>
