<?xml version="1.0" standalone="no"?>
<!DOCTYPE svg PUBLIC "-//W3C//DTD SVG 1.1//EN" "http://www.w3.org/Graphics/SVG/1.1/DTD/svg11.dtd" >
<svg xmlns="http://www.w3.org/2000/svg" xmlns:xlink="http://www.w3.org/1999/xlink" version="1.1" viewBox="-79 0 1028 1000">
  <g transform="matrix(1 0 0 -1 0 800)">
   <path fill="currentColor"
d="M-46 -5q-11 0 -17.5 3.5t-4.5 13.5t9.5 15t17.5 7q18 4 43 12t49.5 21t40.5 31q64 73 127.5 145t127.5 144.5t128 144.5q19 21 31.5 42.5t21 36t14.5 14.5q26 0 52 4.5t45 14.5q17 9 32 18.5t25 9.5q11 0 12.5 -20.5t-3.5 -45.5l-98 -494q-6 -31 9.5 -49t53.5 -29
q11 -3 18.5 -6.5t7.5 -14.5q0 -7 -11.5 -11t-19.5 -4q-21 0 -49.5 1t-57.5 2t-52 1q-20 0 -49 -1t-59 -2.5t-52 -1.5q-20 0 -18 15q1 9 9 14.5t18 7.5q23 5 39 12.5t26.5 19.5t14.5 31l30 122q2 8 -1.5 12.5t-11.5 4.5h-161q-8 0 -14.5 -5.5t-11.5 -11.5l-62 -79
q-25 -32 -30.5 -53t7.5 -33.5t41 -19.5q9 -2 17.5 -7.5t7.5 -14.5q-1 -7 -11 -10.5t-21 -3.5q-33 0 -63.5 1.5t-60.5 1.5q-29 0 -66.5 -3t-69.5 -3zM341 284h123q8 0 12 2t5 9l47 219q2 6 2.5 11t-3.5 5q-1 0 -5 -2t-7 -5l-184 -221q-9 -10 -7.5 -14t17.5 -4zM653 695
q-38 0 -69 17t-31 48q0 50 40.5 79.5t98.5 29.5q24 0 47.5 -7.5t38.5 -22.5t15 -36q0 -51 -40.5 -79.5t-99.5 -28.5zM666 728q29 0 44 22t15 46q0 16 -13 26t-31 10q-29 0 -45.5 -21.5t-16.5 -45.5q0 -16 14 -26.5t33 -10.5zM713 889q-7 0 -13 3.5t-6 10.5q0 5 3.5 10.5
t15.5 14.5q31 23 75 51t79 48q2 1 4.5 2t5 1.5l5 1t5.5 0.5q18 0 29.5 -14.5t17 -30.5t5.5 -23q0 -4 -1 -8t-3 -6.5t-7 -4.5q-46 -15 -87.5 -28.5t-87.5 -21.5q-4 -1 -9 -2t-10.5 -2t-10.5 -1.5t-10 -0.5z" />
  </g>

</svg>
