<?xml version="1.0" standalone="no"?>
<!DOCTYPE svg PUBLIC "-//W3C//DTD SVG 1.1//EN" "http://www.w3.org/Graphics/SVG/1.1/DTD/svg11.dtd" >
<svg xmlns="http://www.w3.org/2000/svg" xmlns:xlink="http://www.w3.org/1999/xlink" version="1.1" viewBox="-10 0 777 1000">
  <g transform="matrix(1 0 0 -1 0 800)">
   <path fill="currentColor"
d="M314 -14q-55 0 -102 20.5t-82 56.5t-54 84.5t-19 105.5q0 90 35.5 165t98 130t145 85.5t177.5 30.5q35 0 62 -6.5t47 -13.5q19 -6 30 -9.5t23 -3.5q7 0 13 1t13 5q8 5 15.5 8t14.5 3q10 0 12.5 -6.5t-4.5 -17.5q-13 -17 -28 -48t-27.5 -64.5t-20.5 -59.5q-3 -10 -8 -16.5
t-16 -6.5q-10 0 -14 14.5t-3 37.5q2 22 -4.5 44.5t-18.5 41.5q-16 26 -39 43t-49 17q-53 0 -98 -28.5t-79.5 -76t-59 -106.5t-37 -121.5t-12.5 -118.5q0 -37 8 -65t24 -47t40 -28t56 -9q39 0 76.5 17.5t73.5 50.5t70 77q8 11 13.5 19t12.5 8q8 0 13.5 -8t2.5 -19
q-7 -25 -18 -56.5t-24 -59.5t-24.5 -46.5t-18.5 -18.5q-10 0 -15 3.5t-11 7.5t-14.5 6.5t-24.5 2.5q-12 0 -26 -3.5t-31 -8.5q-18 -4 -41.5 -8.5t-52.5 -4.5zM544 698q-14 0 -22 7t-21 23l-76 96q-6 8 -4 16q3 13 24 13q8 0 28.5 -8.5t42.5 -20.5t35 -21q5 -4 10.5 -4
t13.5 4q15 7 40 15.5t51.5 16.5t47 13.5t27.5 5.5q16 0 16 -13q0 -11 -12 -20l-139 -93q-23 -16 -35 -23t-27 -7z" />
  </g>

</svg>
