<?xml version="1.0" standalone="no"?>
<!DOCTYPE svg PUBLIC "-//W3C//DTD SVG 1.1//EN" "http://www.w3.org/Graphics/SVG/1.1/DTD/svg11.dtd" >
<svg xmlns="http://www.w3.org/2000/svg" xmlns:xlink="http://www.w3.org/1999/xlink" version="1.1" viewBox="-10 0 1015 1000">
  <g transform="matrix(1 0 0 -1 0 800)">
   <path fill="currentColor"
d="M556 -7q-40 0 -80.5 3t-72 5.5t-44.5 2.5q-20 0 -47.5 -1.5t-56 -3.5t-50.5 -2q-6 0 -10.5 4t-2.5 11q6 17 26 22q27 6 43.5 12.5t26 18.5t15.5 32l140 449q11 35 -1.5 46.5t-62.5 11.5q-35 0 -74 -11t-72.5 -31t-54.5 -47t-21 -59q0 -40 12 -53.5t47 -18.5
q17 -2 26 -13.5t9 -27.5q0 -18 -14.5 -34.5t-49.5 -16.5q-31 0 -54.5 17.5t-37 45.5t-13.5 58q0 76 52 131t163 84.5t286 29.5q23 0 51 -2t73 -2q94 0 158 -37t97 -98.5t33 -133.5q0 -79 -34.5 -149.5t-95 -125t-140 -86t-169.5 -31.5zM555 31q50 0 97.5 32.5t85.5 86
t60.5 119.5t22.5 133q0 79 -17 125.5t-47.5 67t-69.5 20.5q-19 0 -33 -4t-22.5 -13.5t-13.5 -25.5l-135 -453q-10 -33 0.5 -52.5t31.5 -27.5t40 -8z" />
  </g>

</svg>
