<?xml version="1.0" standalone="no"?>
<!DOCTYPE svg PUBLIC "-//W3C//DTD SVG 1.1//EN" "http://www.w3.org/Graphics/SVG/1.1/DTD/svg11.dtd" >
<svg xmlns="http://www.w3.org/2000/svg" xmlns:xlink="http://www.w3.org/1999/xlink" version="1.1" viewBox="-29 0 930 1000">
  <g transform="matrix(1 0 0 -1 0 800)">
   <path fill="currentColor"
d="M378 -275q-35 0 -54.5 14t-27 34t-7.5 38q0 14 6 16.5t14 2.5q69 0 114.5 20t71.5 49.5t34 57.5q5 17 3.5 30.5t-7.5 23.5q-6 11 -21 41.5t-36 74t-44 92t-45.5 95.5t-41 85t-29 60.5t-9.5 21.5q-1 2 -3.5 6t-4.5 4q-4 0 -7.5 -7t-5.5 -12q-13 -32 -30 -77.5t-34 -96.5
t-32 -99t-25 -86t4 -53t56 -26q8 -2 15.5 -6.5t4.5 -14.5q-2 -7 -11.5 -11t-17.5 -4q-27 0 -42.5 1t-26.5 1.5t-27 0.5q-23 0 -49 -1t-44.5 -2l-18.5 -1q-6 0 -13 4t-5 11q3 9 12 13.5t19 7.5q30 8 50 28t34 54l148 387q12 38 6 60t-28.5 35t-62.5 23q-8 2 -15.5 7.5
t-4.5 14.5t11.5 12.5t19.5 3.5q21 0 55.5 -1t73 -2.5t69.5 -1.5q14 0 22.5 -5.5t13.5 -16.5l198 -413q2 -4 4.5 -8t5.5 -4q7 0 12 14q3 7 8.5 25t13 44.5t16 57.5t17.5 63.5t17 63.5t14 56q6 22 2 38t-25 27.5t-66 19.5q-8 2 -13.5 6.5t-2.5 14.5q2 7 10.5 11t15.5 4
q41 0 71 -3t44 -3q29 0 58 3.5t66 3.5q11 0 16 -4t3 -11q-3 -9 -11 -14t-20 -7q-37 -7 -58 -22t-34 -58q-7 -24 -17 -55.5t-21.5 -69t-24 -78t-25.5 -81.5t-26 -80t-24.5 -74t-20.5 -63q-18 -60 -46.5 -115.5t-61.5 -99.5t-65 -69.5t-57 -25.5z" />
  </g>

</svg>
