<?xml version="1.0" standalone="no"?>
<!DOCTYPE svg PUBLIC "-//W3C//DTD SVG 1.1//EN" "http://www.w3.org/Graphics/SVG/1.1/DTD/svg11.dtd" >
<svg xmlns="http://www.w3.org/2000/svg" xmlns:xlink="http://www.w3.org/1999/xlink" version="1.1" viewBox="-46 0 572 1000">
  <g transform="matrix(1 0 0 -1 0 800)">
   <path fill="currentColor"
d="M-23 -1q-7 0 -10.5 5t-1.5 12q4 16 22 19q29 5 38 11.5t14 24.5l99 319q4 13 -1.5 18.5t-28.5 9.5q-8 2 -10 7t-1 11q2 7 8.5 12t14.5 5q10 0 27.5 -1l35 -2t25.5 -1q46 0 102.5 0.5t102.5 0.5q12 0 31 4t35 8t19 4q7 0 13.5 -4.5t2.5 -16.5q-12 -38 -18.5 -65t-14.5 -55
q-2 -7 -6.5 -10t-9.5 -3q-4 0 -8 3t-5 11q-4 50 -11.5 70t-42.5 20h-36q-23 0 -40 -8.5t-22 -27.5l-31 -111q-4 -12 2 -17t17 -5h54q14 0 27.5 15.5t29.5 38.5q7 9 12 11t10 2q4 0 5 -5t-3 -15l-14 -36t-13 -37q-5 -17 -8 -29.5t-7 -28.5q-3 -15 -7.5 -20.5t-8.5 -5.5
t-9 3.5t-4 13.5q1 26 -4 36.5t-19 12.5q-10 2 -18.5 2.5t-16.5 0.5q-24 0 -38 -9t-19 -23l-32 -102q-6 -18 3.5 -24t41.5 -13q7 -1 9.5 -6t0.5 -14q-2 -6 -7 -10.5t-12 -4.5h-30t-43.5 0.5t-44 0.5h-31.5q-13 0 -35 -0.5l-44 -1t-36 -0.5z" />
  </g>

</svg>
