<?xml version="1.0" standalone="no"?>
<!DOCTYPE svg PUBLIC "-//W3C//DTD SVG 1.1//EN" "http://www.w3.org/Graphics/SVG/1.1/DTD/svg11.dtd" >
<svg xmlns="http://www.w3.org/2000/svg" xmlns:xlink="http://www.w3.org/1999/xlink" version="1.1" viewBox="-10 0 784 1000">
  <g transform="matrix(1 0 0 -1 0 800)">
   <path fill="currentColor"
d="M193 -200q-77 0 -108 15.5t-31 42.5q0 31 11.5 52t29.5 21q14 0 30.5 -14t34.5 -31q19 -18 37 -32.5t33 -14.5q16 0 29.5 20t28 61t34.5 105l181 580l170 -1l-148 -473q-14 -44 -29 -81t-31.5 -67t-35 -55t-40.5 -46q-38 -37 -87.5 -59.5t-108.5 -22.5zM298 304
q-13 0 -15 10.5t1 20.5q4 14 14.5 22.5t23.5 8.5h375q10 0 16 -6t2 -13q-10 -19 -26.5 -31t-30.5 -12h-360zM164 461q-16 0 -24.5 22t-8.5 43q0 40 14.5 80.5t40.5 74t62 53.5t78 20q54 0 88 -20t55 -51t34 -65q33 69 81.5 98.5t90.5 29.5q35 0 62 -19t27 -46q0 -28 -22 -51
t-74 -36.5t-143 -13.5q-35 0 -70 9t-67.5 21.5t-62 21.5t-53.5 9q-43 0 -61.5 -17.5t-18.5 -37.5q0 -16 8 -28t16 -23q7 -7 11.5 -14t4.5 -15q0 -12 -12 -22.5t-27.5 -16.5t-28.5 -6z" />
  </g>

</svg>
