<?xml version="1.0" standalone="no"?>
<!DOCTYPE svg PUBLIC "-//W3C//DTD SVG 1.1//EN" "http://www.w3.org/Graphics/SVG/1.1/DTD/svg11.dtd" >
<svg xmlns="http://www.w3.org/2000/svg" xmlns:xlink="http://www.w3.org/1999/xlink" version="1.1" viewBox="-58 0 1296 1000">
  <g transform="matrix(1 0 0 -1 0 800)">
   <path fill="currentColor"
d="M996 -357q-72 0 -142.5 34t-138.5 94t-132.5 141t-124.5 175t-115 195q-10 21 -18 30t-13 9q-6 0 -8.5 -2.5t-4.5 -7.5l-62 -213q-8 -28 -3 -40.5t40 -23.5q8 -3 15 -7t4 -14q-3 -7 -13.5 -12t-20.5 -5q-32 0 -56 2t-44 4t-40 2q-30 0 -60.5 -5t-82.5 -5q-9 0 -17 5.5
t-6 12.5q6 17 32 22q41 8 55.5 20t24.5 43l140 454q10 32 1 45t-46 22q-18 5 -12 22q2 7 9 11t13 4q22 0 49 -1t53.5 -2.5t46.5 -1.5t48.5 1t57.5 2t50 1q16 0 11 -15q-3 -10 -9 -14t-16 -7q-30 -8 -46.5 -16t-25 -20t-14.5 -32l-55 -178q-3 -10 1 -13t14 -3q20 0 43 12
t48 37l147 143q11 11 18 19t9 15q4 11 -11.5 19.5t-36.5 12.5q-19 3 -13 22q2 7 9.5 11t13.5 4h80q52 0 99 1.5t108 1.5q10 0 17 -3.5t5 -11.5q-3 -10 -15 -15t-21 -6q-55 -4 -92 -19.5t-69 -41.5t-67 -55t-69.5 -59.5t-65.5 -61.5q-18 -18 -10 -32q37 -66 82 -140.5
t95.5 -148.5t102 -140.5t102 -118t96.5 -81.5t84 -30q56 0 83 23.5t27 50.5q0 21 -12 35t-26 21q-13 7 -23.5 18t-10.5 32q0 29 22 43t49 14q50 0 72.5 -30t22.5 -70q0 -41 -24.5 -83.5t-76 -71.5t-131.5 -29z" />
  </g>

</svg>
