<?xml version="1.0" standalone="no"?>
<!DOCTYPE svg PUBLIC "-//W3C//DTD SVG 1.1//EN" "http://www.w3.org/Graphics/SVG/1.1/DTD/svg11.dtd" >
<svg xmlns="http://www.w3.org/2000/svg" xmlns:xlink="http://www.w3.org/1999/xlink" version="1.1" viewBox="-39 0 529 1000">
  <g transform="matrix(1 0 0 -1 0 800)">
   <path fill="currentColor"
d="M-22 -3q-4 0 -5.5 4.5t-0.5 8.5q1 2 4.5 7.5t15.5 9.5q24 8 32.5 13t14.5 25l95 306q7 20 2.5 29.5t-31.5 19.5q-6 2 -9 6.5t0 13.5q2 8 9 10.5t12 2.5q14 0 37 -1t45.5 -2t36.5 -1q13 0 37 1t48 1.5t37 0.5q8 0 10 -3.5t0 -9.5q-2 -8 -8.5 -12t-12.5 -6
q-20 -5 -30 -18.5t-17 -35.5l-92 -298q-5 -18 1 -24t14 -6h52q36 0 61 24t52 60q11 15 20.5 21t15.5 6q8 0 9.5 -7.5t-0.5 -14.5q-1 -4 -10 -20.5t-20.5 -37t-20.5 -37t-11 -20.5q-2 -5 -8.5 -10.5t-14.5 -5.5q-4 0 -30.5 0.5t-65 1t-81 1t-80.5 0.5q-19 0 -48.5 -1.5
t-64.5 -1.5zM242 532q-13 0 -14 11.5t4 22.5l73 162q9 20 18 28.5t21 8.5q11 0 26 -9t26 -21t11 -22t-6 -20t-17 -21l-111 -123q-7 -7 -15 -12t-16 -5z" />
  </g>

</svg>
