<?xml version="1.0" standalone="no"?>
<!DOCTYPE svg PUBLIC "-//W3C//DTD SVG 1.1//EN" "http://www.w3.org/Graphics/SVG/1.1/DTD/svg11.dtd" >
<svg xmlns="http://www.w3.org/2000/svg" xmlns:xlink="http://www.w3.org/1999/xlink" version="1.1" viewBox="-91 0 753 1000">
  <g transform="matrix(1 0 0 -1 0 800)">
   <path fill="currentColor"
d="M179 -156q-7 0 -10 16q-11 74 -18.5 137.5t-15.5 134.5q-1 7 -5.5 4.5t-7.5 -9.5q-17 -45 -29 -82.5t-28 -81.5q-14 -40 -11 -63t24 -25q6 -1 10.5 -3.5t3.5 -9.5q-1 -5 -7.5 -7.5t-10.5 -2.5q-27 0 -37 1t-30 1q-15 0 -32 -0.5t-29.5 -1l-12.5 -0.5q-16 0 -13 10
q2 5 8.5 7t13.5 4q15 5 29 12t27 23.5t25 49.5l82 219q10 27 12.5 41.5t-8.5 23t-42 17.5q-7 2 -11 4t-4 8q0 7 7.5 8.5t14.5 1.5q14 0 42 -1t57 -1.5t46 -0.5q18 0 23.5 -10.5t5.5 -26t1 -32.5l8 -167q0 -6 3 -7.5t9 4.5q51 51 88 97.5t68 89.5q10 14 15.5 24.5t12.5 17.5
t14 7h56q29 0 54 3t44 3q7 0 10.5 -1.5t3.5 -7.5t-9 -10.5t-27 -9.5q-22 -6 -34.5 -20.5t-19.5 -39.5q-18 -66 -32 -136t-31 -139q-4 -16 6 -26t27 -16q6 -1 9.5 -3.5t1.5 -9.5q-1 -5 -6 -7.5t-9 -2.5q-21 0 -53.5 1.5t-52.5 1.5q-12 0 -36.5 -0.5t-49 -1.5t-38.5 -1t-11 10
q3 9 19 13q27 6 38.5 14.5t17.5 27.5q11 36 19.5 70.5t16 68.5t15.5 70q1 5 -1 4.5t-6 -5.5l-131 -182l-62 -87q-2 -3 -7 -7.5t-10 -4.5z" />
  </g>

</svg>
