<?xml version="1.0" standalone="no"?>
<!DOCTYPE svg PUBLIC "-//W3C//DTD SVG 1.1//EN" "http://www.w3.org/Graphics/SVG/1.1/DTD/svg11.dtd" >
<svg xmlns="http://www.w3.org/2000/svg" xmlns:xlink="http://www.w3.org/1999/xlink" version="1.1" viewBox="-91 0 695 1000">
  <g transform="matrix(1 0 0 -1 0 800)">
   <path fill="currentColor"
d="M380 -161q-50 0 -81 27t-45 56q-8 18 -17 37t-16.5 39t-12.5 40q-2 10 -10 10h-7.5h-7.5q-4 0 -9 -13l-38 -123q-4 -13 3.5 -19.5t37.5 -11.5q17 -3 13 -17q-1 -5 -7.5 -8t-10.5 -3q-14 0 -40 0.5t-51.5 0.5h-40.5q-19 0 -51.5 -1t-54.5 -1q-5 0 -10 3.5t-4 7.5
q4 13 25 18q27 6 34.5 11t12.5 23l95 307q5 15 -0.5 20.5t-25.5 8.5q-19 3 -15 16t24 13q25 0 40.5 -2t29.5 -4t34 -2q28 0 51 4t66 4q81 0 117.5 -26.5t37.5 -70.5q0 -32 -18.5 -55.5t-46.5 -38.5t-59 -22q-3 -1 -3.5 -3t-0.5 -4q20 -42 39 -69t35 -47q21 -25 49.5 -29
t53.5 -4q10 0 6 -16q-7 -28 -38 -42t-83 -14zM217 84q31 0 54 16.5t35.5 42.5t9.5 54q-1 23 -15 38t-33 15q-13 0 -23.5 -5.5t-15.5 -21.5q-7 -25 -15 -57t-16 -56q-4 -11 2.5 -18.5t16.5 -7.5z" />
  </g>

</svg>
