<?xml version="1.0" standalone="no"?>
<!DOCTYPE svg PUBLIC "-//W3C//DTD SVG 1.1//EN" "http://www.w3.org/Graphics/SVG/1.1/DTD/svg11.dtd" >
<svg xmlns="http://www.w3.org/2000/svg" xmlns:xlink="http://www.w3.org/1999/xlink" version="1.1" viewBox="-10 0 1483 1000">
  <g transform="matrix(1 0 0 -1 0 800)">
   <path fill="currentColor"
d="M1231 -357q-72 0 -142 34t-137 93.5t-130.5 139t-122.5 171t-112 187.5q-7 14 -14.5 23t-21.5 9q-8 0 -13 -5.5t-8 -14.5l-56 -182q-10 -31 4 -43t54 -21q8 -2 12 -6.5t1 -14.5q-3 -7 -8 -11t-13 -4q-21 0 -53 1t-63 2t-51 1q-30 0 -74 -2.5t-77 -2.5q-6 0 -11 4t-3 11
q6 17 26 22q41 8 58.5 20t27.5 43l140 449q8 24 5 36.5t-19 17t-50 4.5q-35 0 -74 -11t-72.5 -31t-54.5 -47t-21 -59q0 -40 12 -53.5t47 -18.5q17 -2 26 -13.5t9 -27.5q0 -18 -14.5 -34.5t-49.5 -16.5q-31 0 -54.5 17.5t-37 45.5t-13.5 58q0 66 32 110t88.5 71t130.5 40.5
t159 18t173 4.5q65 0 109.5 -11.5t71 -32t38.5 -47.5t12 -58q0 -34 -14.5 -63t-39 -52t-56 -38.5t-66.5 -23.5q-4 -1 -4.5 -5t0.5 -7q32 -59 73.5 -128t89.5 -139.5t99 -135.5t101 -116t95.5 -80.5t83.5 -29.5q56 0 83 23.5t27 50.5q0 21 -12 35t-26 21q-13 7 -23.5 18
t-10.5 32q0 29 22 43t49 14q50 0 72.5 -30t22.5 -70q0 -41 -24.5 -83.5t-76 -71.5t-131.5 -29zM582 328q50 0 85 24.5t53.5 69t18.5 102.5q0 41 -20 69.5t-49 28.5q-12 0 -20.5 -4.5t-17 -23.5t-22.5 -62l-52 -166q-6 -20 1 -29t23 -9z" />
  </g>

</svg>
