<?xml version="1.0" standalone="no"?>
<!DOCTYPE svg PUBLIC "-//W3C//DTD SVG 1.1//EN" "http://www.w3.org/Graphics/SVG/1.1/DTD/svg11.dtd" >
<svg xmlns="http://www.w3.org/2000/svg" xmlns:xlink="http://www.w3.org/1999/xlink" version="1.1" viewBox="-44 0 675 1000">
  <g transform="matrix(1 0 0 -1 0 800)">
   <path fill="currentColor"
d="M444 -14q-64 0 -94 27.5t-38 60.5l-24 104q-2 16 -5.5 22.5t-12.5 6.5q-7 0 -16.5 -5t-12.5 -16l-37 -119q-4 -15 4 -23.5t40 -13.5q6 -1 10 -5t2 -12q-1 -6 -7.5 -9.5t-11.5 -3.5h-30t-43.5 0.5t-44 0.5h-31.5q-13 0 -34.5 -0.5l-43 -1t-36.5 -0.5q-8 0 -10 6.5t-1 11.5
q3 8 9 12.5t12 5.5q21 5 30.5 8.5t13 9.5t6.5 18l99 320q5 14 -1.5 19t-27.5 9q-9 2 -11 7t-1 11q2 8 8.5 12t14.5 4q27 0 45 -2.5t34 -4.5t38 -2q31 0 64.5 4.5t81.5 4.5q74 0 110.5 -31.5t38.5 -70.5q2 -30 -13.5 -56t-40 -43.5t-50.5 -24.5q-7 -1 -9 -8t1 -15
q4 -10 6 -17t9 -18l49 -83q13 -21 29 -34.5t29 -15.5q5 -1 13.5 -3t8.5 -10q0 -9 -15 -17.5t-42 -14t-62 -5.5zM302 230q28 0 47.5 16.5t30 45t10.5 63.5q0 26 -18 45.5t-43 19.5q-11 0 -17 -6.5t-9 -17.5l-37 -129q-5 -18 9 -27.5t27 -9.5z" />
  </g>

</svg>
