<?xml version="1.0" standalone="no"?>
<!DOCTYPE svg PUBLIC "-//W3C//DTD SVG 1.1//EN" "http://www.w3.org/Graphics/SVG/1.1/DTD/svg11.dtd" >
<svg xmlns="http://www.w3.org/2000/svg" xmlns:xlink="http://www.w3.org/1999/xlink" version="1.1" viewBox="-27 0 662 1000">
  <g transform="matrix(1 0 0 -1 0 800)">
   <path fill="currentColor"
d="M227 -14q-38 0 -71 4.5t-61 16.5q-14 6 -24 9.5t-13 3.5q-7 0 -14 -2.5t-12 -5.5q-7 -4 -13.5 -8t-11.5 -4q-6 0 -15 8.5t-9 15.5q0 8 11.5 33t24.5 60.5t18 73.5q6 35 28 35q14 0 17.5 -16.5t3.5 -51.5q0 -31 13 -61t40.5 -49t69.5 -19q59 0 90.5 31t31.5 74
q0 22 -8 40.5t-30 42.5t-65 62q-49 44 -72.5 84.5t-23.5 101.5q0 56 31.5 101t86.5 71.5t126 26.5q38 0 69 -6.5t53 -13.5q20 -6 32 -9.5t25 -3.5q15 0 26 6q8 5 15.5 8t14.5 3q11 0 13 -7.5t-5 -16.5q-13 -17 -27.5 -46t-26.5 -60.5t-20 -57.5q-3 -10 -8 -16.5t-16 -6.5
q-10 0 -14.5 10.5t-4.5 33.5q0 65 -32.5 104t-85.5 39q-36 0 -59 -15t-34 -38t-11 -47q0 -23 7.5 -41.5t28.5 -40t62 -55.5q62 -51 83 -94t21 -94t-30.5 -100t-87.5 -81t-137 -32zM103 -281q-25 0 -46.5 10.5t-34 26t-12.5 29.5q0 39 31 39q15 0 28.5 -8t26.5 -19
q15 -12 24 -20t22 -8q9 0 13.5 5.5t4.5 13.5q0 14 -10 22.5t-22 20.5q-12 11 -24.5 27t-12.5 29q0 17 20.5 41t50.5 48t59 41h41q-37 -26 -50.5 -43t-13.5 -31q0 -10 10.5 -21t22.5 -22q14 -13 23 -25t9 -25q0 -16 -15.5 -38t-39.5 -43.5t-52 -35.5t-53 -14z" />
  </g>

</svg>
