<?xml version="1.0" standalone="no"?>
<!DOCTYPE svg PUBLIC "-//W3C//DTD SVG 1.1//EN" "http://www.w3.org/Graphics/SVG/1.1/DTD/svg11.dtd" >
<svg xmlns="http://www.w3.org/2000/svg" xmlns:xlink="http://www.w3.org/1999/xlink" version="1.1" viewBox="-10 0 624 1000">
  <g transform="matrix(1 0 0 -1 0 800)">
   <path fill="currentColor"
d="M222 -12q-61 0 -102.5 24.5t-56.5 66t0 91.5l53 171q4 13 1.5 32.5t-23.5 24.5q-16 4 -13 14q3 12 21 12q26 0 56 -2t52 -2q23 0 60 1.5t63 1.5q18 0 15 -11q-3 -10 -18 -14.5t-29 -10.5q-15 -7 -24 -18.5t-17 -34.5l-52 -163q-12 -37 -2.5 -60t30 -33.5t42.5 -10.5
q47 0 80.5 28.5t52.5 87.5q9 29 19 60t19 63q10 34 11 51.5t-6 25.5t-23 13q-11 4 -17.5 6.5t-4.5 9.5q3 11 25 11q32 0 47.5 -1t36.5 -1q15 0 23.5 0.5t18 1.5t26.5 1q8 0 13.5 -2t3.5 -10q-3 -10 -25 -15q-31 -7 -42.5 -21t-20.5 -41q-14 -42 -27.5 -85.5t-25.5 -84.5
q-17 -60 -52 -99.5t-82.5 -58.5t-105.5 -19z" />
  </g>

</svg>
