<?xml version="1.0" standalone="no"?>
<!DOCTYPE svg PUBLIC "-//W3C//DTD SVG 1.1//EN" "http://www.w3.org/Graphics/SVG/1.1/DTD/svg11.dtd" >
<svg xmlns="http://www.w3.org/2000/svg" xmlns:xlink="http://www.w3.org/1999/xlink" version="1.1" viewBox="-10 0 1293 1000">
  <g transform="matrix(1 0 0 -1 0 800)">
   <path fill="currentColor"
d="M568 -14q-68 0 -117 20t-77.5 56.5t-34.5 86t12 107.5l90 290q8 24 5.5 36.5t-18 17t-49.5 4.5q-35 0 -74 -11t-72.5 -31t-54.5 -47t-21 -59q0 -40 12 -53.5t47 -18.5q17 -2 26 -13.5t9 -27.5q0 -18 -14.5 -34.5t-49.5 -16.5q-31 0 -54.5 17.5t-37 45.5t-13.5 58
q0 76 51 130.5t156.5 82.5t267.5 24q29 0 73 2t75 2q27 0 22 -15q-4 -12 -22.5 -17.5t-36.5 -13.5q-18 -7 -34 -25.5t-27 -52.5l-95 -293q-16 -49 -4.5 -87.5t41.5 -60t69 -21.5q55 0 93.5 20t64.5 54t43.5 79t30.5 94q15 53 29 108t33 105t47.5 89t72.5 62t108 23
q54 0 93.5 -24t39.5 -62q0 -33 -18.5 -51t-35.5 -18q-10 0 -19.5 11.5t-20.5 25.5q-13 17 -31 33t-42 16q-48 0 -79 -28t-52 -76t-38 -107t-37 -121q-19 -60 -44 -116t-62.5 -101t-92.5 -71.5t-133 -26.5z" />
  </g>

</svg>
