<?xml version="1.0" standalone="no"?>
<!DOCTYPE svg PUBLIC "-//W3C//DTD SVG 1.1//EN" "http://www.w3.org/Graphics/SVG/1.1/DTD/svg11.dtd" >
<svg xmlns="http://www.w3.org/2000/svg" xmlns:xlink="http://www.w3.org/1999/xlink" version="1.1" viewBox="-10 0 743 1000">
  <g transform="matrix(1 0 0 -1 0 800)">
   <path fill="currentColor"
d="M255 -14q-73 0 -118.5 28.5t-60 78t4.5 111.5l50 160q3 8 3.5 20.5t-5 24.5t-21.5 16q-8 2 -11 6t-1 9t8.5 9t13.5 4q20 0 41.5 -1t42 -2t35.5 -1q17 0 42 1t52 1.5t47 0.5q18 0 15 -12q-4 -11 -22 -16.5t-31 -11.5q-10 -5 -18 -12t-13.5 -17.5t-11.5 -27.5l-56 -178
q-10 -34 -2.5 -60t28.5 -41t48 -15q52 0 88 35t52 88l38 125q12 40 14.5 67.5t-11.5 35.5q-16 10 -29 14t-11 14q2 6 8.5 9.5t18.5 3.5q19 0 32 -1.5t24 -2.5q9 0 18.5 0.5t20.5 0.5q42 0 42 30q0 11 -4 15t-10 7t-11 7t-5 11q0 18 20 34.5t44.5 27t39.5 10.5
q14 0 21.5 -15.5t7.5 -34.5q0 -34 -17 -58t-42.5 -40.5t-50.5 -26.5q-22 -10 -32.5 -23t-18.5 -38l-49 -151q-31 -99 -92.5 -159t-165.5 -60z" />
  </g>

</svg>
