<?xml version="1.0" standalone="no"?>
<!DOCTYPE svg PUBLIC "-//W3C//DTD SVG 1.1//EN" "http://www.w3.org/Graphics/SVG/1.1/DTD/svg11.dtd" >
<svg xmlns="http://www.w3.org/2000/svg" xmlns:xlink="http://www.w3.org/1999/xlink" version="1.1" viewBox="-10 0 984 1000">
  <g transform="matrix(1 0 0 -1 0 800)">
   <path fill="currentColor"
d="M248 421q-19 0 -24 29.5t0 63.5q8 50 14.5 97t12.5 94l12 94q2 18 -4.5 26t-20.5 14q-10 5 -17 6.5t-7 8.5q0 6 6 8.5t16 2.5q21 0 51.5 -1.5t49.5 -1.5q13 0 34 1t42.5 2t35.5 1q5 0 10.5 -2.5t3.5 -7.5q-1 -6 -8.5 -9.5t-14.5 -5.5q-24 -5 -33.5 -13t-13.5 -28
q-9 -56 -22.5 -108.5t-19.5 -108.5q-1 -7 1.5 -8t7.5 5l151 169q12 14 20.5 28t8.5 29q0 14 -5 21.5t-19 11.5q-11 5 -17.5 6.5t-6.5 8.5q0 6 6 8.5t16 2.5q21 0 45.5 -1.5t43.5 -1.5q14 0 36.5 1t46 2t37.5 1q16 0 16 -10q0 -6 -6.5 -9.5t-14.5 -5.5q-24 -4 -35.5 -12.5
t-15.5 -28.5l-42 -211q-3 -13 9 0l134 152q30 33 37 53.5t0.5 31.5t-17.5 15q-6 2 -12 5.5t-4 9.5q2 5 9 7t14 2q22 0 39 -1t37 -1t36 2t37 2q7 0 13.5 -3t6.5 -8q0 -7 -9 -9t-16 -4q-21 -4 -42.5 -19t-38.5 -34l-230 -264q-23 -26 -44 -49.5t-37 -38t-26 -14.5
q-15 0 -22 8.5t-7.5 27t4.5 46.5q8 51 16 107.5t17 104.5l-166 -193q-16 -19 -36.5 -43.5t-41 -42.5t-37.5 -18z" />
  </g>

</svg>
