<?xml version="1.0" standalone="no"?>
<!DOCTYPE svg PUBLIC "-//W3C//DTD SVG 1.1//EN" "http://www.w3.org/Graphics/SVG/1.1/DTD/svg11.dtd" >
<svg xmlns="http://www.w3.org/2000/svg" xmlns:xlink="http://www.w3.org/1999/xlink" version="1.1" viewBox="-10 0 1297 1000">
  <g transform="matrix(1 0 0 -1 0 800)">
   <path fill="currentColor"
d="M1052 -350q-94 0 -163 37.5t-124.5 115t-108 197t-112.5 283.5q-4 13 -12.5 13t-16.5 -10l-106 -146q-28 -38 -31 -60t11 -32.5t36 -15.5q10 -2 20 -7.5t10 -14.5q0 -7 -9 -10.5t-20 -3.5q-33 0 -51.5 2t-48.5 2q-29 0 -53 -3.5t-56 -3.5q-11 0 -22 3.5t-11 13.5t10 13.5
t19 6.5q14 5 30.5 13.5t39 28.5t53.5 57l158 186q14 17 18 30.5t-4 36.5q-13 41 -25 81.5t-25 80.5q-3 14 -9 26t-22 19t-50 7q-35 0 -74 -11t-72.5 -31t-54.5 -47t-21 -59q0 -40 12 -53.5t47 -18.5q17 -2 26 -13.5t9 -27.5q0 -18 -14.5 -34.5t-49.5 -16.5q-31 0 -54.5 17.5
t-37 45.5t-13.5 58q0 76 51 131t154.5 84.5t262.5 29.5q36 0 48 -11.5t22 -41.5q16 -51 32 -101.5t32 -101.5q4 -13 13 -13t16 10l84 110q30 39 39.5 63.5t2.5 37.5t-28 16q-10 2 -20 7.5t-10 14.5q0 7 9.5 10.5t19.5 3.5q23 0 43.5 -2t43.5 -2q29 0 49.5 3.5t51.5 3.5
q11 0 22 -3.5t11 -13.5t-10 -13.5t-19 -6.5q-21 -7 -46.5 -20.5t-41.5 -31.5l-184 -210q-13 -16 -17.5 -30t3.5 -37q51 -142 96.5 -252.5t90 -186.5t91.5 -115.5t102 -39.5q42 0 59.5 12.5t17.5 35.5q0 17 -8 27t-17 19t-16.5 18.5t-7.5 23.5q0 28 18.5 46.5t50.5 18.5
q41 0 63.5 -29.5t22.5 -68.5q0 -34 -23 -69t-72.5 -58t-129.5 -23z" />
  </g>

</svg>
