<?xml version="1.0" standalone="no"?>
<!DOCTYPE svg PUBLIC "-//W3C//DTD SVG 1.1//EN" "http://www.w3.org/Graphics/SVG/1.1/DTD/svg11.dtd" >
<svg xmlns="http://www.w3.org/2000/svg" xmlns:xlink="http://www.w3.org/1999/xlink" version="1.1" viewBox="-28 0 265 1000">
  <g transform="matrix(1 0 0 -1 0 800)">
   <path fill="currentColor"
d="M1 505q-7 0 -13 3.5t-6 10.5q0 5 3.5 10.5t15.5 14.5q31 23 75 51t79 48q2 1 4.5 2t5 1.5l5 1t5.5 0.5q18 0 29.5 -14.5t17 -30.5t5.5 -23q0 -4 -1 -8t-3 -6.5t-7 -4.5q-46 -15 -87.5 -28.5t-87.5 -21.5q-4 -1 -9 -2t-10.5 -2t-10.5 -1.5t-10 -0.5z" />
  </g>

</svg>
