<?xml version="1.0" standalone="no"?>
<!DOCTYPE svg PUBLIC "-//W3C//DTD SVG 1.1//EN" "http://www.w3.org/Graphics/SVG/1.1/DTD/svg11.dtd" >
<svg xmlns="http://www.w3.org/2000/svg" xmlns:xlink="http://www.w3.org/1999/xlink" version="1.1" viewBox="-63 0 834 1000">
  <g transform="matrix(1 0 0 -1 0 800)">
   <path fill="currentColor"
d="M-36 -3q-8 0 -13 2.5t-3 11.5q2 8 8.5 10.5t10.5 3.5q24 4 41 13.5t28 23.5l301 318q12 13 14.5 19t-6.5 8l-51 13q-7 2 -10 6t-1 11t8.5 10.5t13.5 3.5q10 0 27 -1t33.5 -2t24.5 -1l285 3q27 0 46.5 1t21.5 1q7 0 13.5 -4.5t2.5 -16.5q-4 -13 -7 -33.5t-5.5 -41.5
t-7.5 -36q-2 -7 -6 -12t-9 -5q-4 0 -8.5 4t-6.5 12q-4 26 -8.5 42.5t-15 24.5t-35.5 8h-45q-35 0 -47 -38l-26 -84q-4 -12 1 -15t16 -3h40q17 0 30.5 10t32.5 38q7 10 11.5 11.5t9.5 1.5q4 0 5.5 -4.5t-3.5 -15.5q-10 -23 -16 -38.5t-11 -33.5q-5 -17 -8.5 -29t-8.5 -37
q-3 -15 -7 -20.5t-8 -5.5t-9.5 4t-4.5 14q2 27 -2.5 39t-21.5 12h-18h-18h-18q-8 0 -12.5 -4.5t-6.5 -13.5l-33 -102q-4 -13 0.5 -19.5t20.5 -6.5h60q22 0 44 11.5t42 30.5t35 40q5 8 11.5 11.5t10.5 3.5q5 0 7 -5.5t0 -12.5q-9 -26 -24 -52t-36 -61q-7 -11 -15.5 -16.5
t-19.5 -5.5h-31t-61 0.5t-76 0.5h-78q-14 0 -37.5 -0.5t-45.5 -1t-34 -0.5q-16 0 -11 13q3 8 10 13t15 7q20 5 27 11t13 24l25 80q2 7 -1 9.5t-10 2.5h-104q-7 0 -11 -3t-9 -8l-66 -72q-15 -16 -10 -28.5t43 -18.5q9 -1 12 -4.5t1 -11.5q-1 -5 -7 -9t-15 -4q-34 0 -56 1.5
t-45 1.5q-20 0 -37.5 -2t-44.5 -2zM260 205h72q7 0 10.5 4t4.5 10l46 146q2 5 1.5 7t-2.5 2q-1 1 -3 -0.5t-4 -4.5l-131 -150q-7 -8 -4 -11t10 -3z" />
  </g>

</svg>
