<?xml version="1.0" standalone="no"?>
<!DOCTYPE svg PUBLIC "-//W3C//DTD SVG 1.1//EN" "http://www.w3.org/Graphics/SVG/1.1/DTD/svg11.dtd" >
<svg xmlns="http://www.w3.org/2000/svg" xmlns:xlink="http://www.w3.org/1999/xlink" version="1.1" viewBox="-10 0 705 1000">
  <g transform="matrix(1 0 0 -1 0 800)">
   <path fill="currentColor"
d="M298 -32q-69 0 -124.5 24t-88 66.5t-32.5 96.5q0 59 22 100.5t59.5 63.5t82.5 22q46 0 67 -23t21 -49q0 -28 -24.5 -50t-59.5 -22q-42 0 -71 18t-43.5 47.5t-14.5 62.5q0 38 19.5 73.5t59 59t99.5 23.5q50 0 71 -22.5t21 -45.5q0 -16 -9.5 -29t-25.5 -13t-24.5 9
t-13.5 19q-6 15 -16 24.5t-32 9.5q-32 0 -54.5 -16.5t-33.5 -41.5t-11 -51q0 -34 19 -60.5t58 -26.5q19 0 27 9t8 25q0 14 -13 23.5t-32 9.5q-33 0 -54 -13t-31.5 -37t-10.5 -57q0 -34 22 -66t68.5 -52t120.5 -20q62 0 106.5 19.5t68.5 52.5t24 72q0 31 -24 54t-73 23
q-28 0 -41.5 -16t-13.5 -33q0 -13 8 -24t23 -11q8 0 13.5 5.5l10.5 10.5q6 5 12 9t13 4q20 0 28.5 -9t8.5 -22q0 -23 -16 -36.5t-41 -13.5q-44 0 -72 22.5t-28 56.5q0 62 37.5 91t95.5 29h64q62 0 87.5 16t25.5 53q0 20 -13 29.5t-25 9.5t-17 -3t-5 -8q0 -8 10 -16
q14 -8 14 -24q0 -13 -11.5 -25t-31.5 -12q-21 0 -32 13.5t-11 30.5q0 24 19 47t60 23q35 0 61 -23t26 -65q0 -33 -16 -58.5t-42 -40.5t-56 -17q-21 -1 -25.5 -2.5t-1.5 -6.5q11 -16 15 -34.5t4 -37.5q0 -68 -34 -118.5t-93.5 -78t-137.5 -27.5z" />
  </g>

</svg>
