<?xml version="1.0" standalone="no"?>
<!DOCTYPE svg PUBLIC "-//W3C//DTD SVG 1.1//EN" "http://www.w3.org/Graphics/SVG/1.1/DTD/svg11.dtd" >
<svg xmlns="http://www.w3.org/2000/svg" xmlns:xlink="http://www.w3.org/1999/xlink" version="1.1" viewBox="-10 0 465 1000">
  <g transform="matrix(1 0 0 -1 0 800)">
   <path fill="currentColor"
d="M236 352q-18 0 -26 15t-4 34q2 9 4 17.5t4 16.5t4.5 16.5t4.5 16.5q-7 1 -29.5 -1.5t-41.5 -4.5q-18 -2 -31 6.5t-13 21.5q0 16 10.5 26t21.5 11q8 2 16.5 4t16.5 3.5t16.5 3.5t16.5 4q-3 7 -17 23.5t-25 32.5q-9 14 -9 27t9 22.5t22 9.5q8 0 15.5 -3.5t14.5 -11.5
q11 -13 22.5 -25.5t23.5 -24.5q6 17 12.5 32.5t14.5 31.5q5 11 14 18.5t21 7.5q17 0 25.5 -14.5t3.5 -34.5q-3 -11 -6.5 -21.5t-6.5 -21.5t-7 -22q5 0 19 3t30 5.5t27 2.5q17 0 26.5 -6.5t9.5 -20.5q0 -11 -7.5 -23.5t-22.5 -15.5q-16 -4 -32.5 -8.5t-33.5 -9.5
q4 -6 18.5 -22t25.5 -30q5 -6 8.5 -13.5t3.5 -15.5q0 -11 -8.5 -20.5t-21.5 -9.5q-7 0 -15 2.5t-16 9.5q-11 12 -24 24t-25 23q-3 -6 -11 -28t-16 -39q-4 -10 -12.5 -17t-19.5 -7z" />
  </g>

</svg>
