<?xml version="1.0" standalone="no"?>
<!DOCTYPE svg PUBLIC "-//W3C//DTD SVG 1.1//EN" "http://www.w3.org/Graphics/SVG/1.1/DTD/svg11.dtd" >
<svg xmlns="http://www.w3.org/2000/svg" xmlns:xlink="http://www.w3.org/1999/xlink" version="1.1" viewBox="-10 0 402 1000">
  <g transform="matrix(1 0 0 -1 0 800)">
   <path fill="currentColor"
d="M358 862q19 0 22.5 -5.5t-6.5 -38.5l-143 -461q-9 -30 -16 -35t-24 -5h-127q-5 0 -8.5 3.5t-1.5 11.5q3 10 12 14t14 5l34 2q19 1 30.5 15.5t15.5 28.5l121 390q4 13 1 26.5t-22 14.5l-32 1q-5 0 -11 4.5t-4 12.5q3 8 7.5 11.5t9.5 3.5z" />
  </g>

</svg>
