<?xml version="1.0" standalone="no"?>
<!DOCTYPE svg PUBLIC "-//W3C//DTD SVG 1.1//EN" "http://www.w3.org/Graphics/SVG/1.1/DTD/svg11.dtd" >
<svg xmlns="http://www.w3.org/2000/svg" xmlns:xlink="http://www.w3.org/1999/xlink" version="1.1" viewBox="-96 0 349 1000">
  <g transform="matrix(1 0 0 -1 0 800)">
   <path fill="currentColor"
d="M-62 -267q-19 0 -22.5 5.5t6.5 38.5l143 461q9 30 16 35t24 5h127q5 0 8.5 -3.5t1.5 -11.5q-3 -10 -12 -14t-14 -5l-34 -2q-19 -1 -30.5 -15.5t-15.5 -28.5l-121 -390q-4 -13 -1 -26.5t22 -14.5l32 -1q5 0 11 -4.5t4 -12.5q-3 -8 -7.5 -11.5t-9.5 -3.5z" />
  </g>

</svg>
