<?xml version="1.0" standalone="no"?>
<!DOCTYPE svg PUBLIC "-//W3C//DTD SVG 1.1//EN" "http://www.w3.org/Graphics/SVG/1.1/DTD/svg11.dtd" >
<svg xmlns="http://www.w3.org/2000/svg" xmlns:xlink="http://www.w3.org/1999/xlink" version="1.1" viewBox="-10 0 546 1000">
  <g transform="matrix(1 0 0 -1 0 800)">
   <path fill="currentColor"
d="M227 -13q-52 0 -96 24.5t-70.5 66.5t-26.5 94q0 59 27.5 107.5t74 84t106 55t123.5 19.5q25 0 43.5 -4.5t32.5 -9.5q14 -4 21.5 -6t16.5 -2q4 0 8.5 1t8.5 2l11 5.5t10 2.5q9 0 9 -5.5t-2 -10.5q-14 -17 -29 -50.5t-24 -58.5q-2 -7 -8 -13t-14 -6q-7 0 -10 6.5t-2 21.5
q1 17 -1.5 32t-10.5 27q-10 14 -24.5 25t-32.5 11q-41 0 -74 -24.5t-56.5 -64t-36 -84.5t-12.5 -86q0 -42 15.5 -68.5t39.5 -39t48 -12.5q34 0 62.5 22.5t50.5 62.5q5 8 9 13.5t8 5.5q7 0 12 -6.5t3 -14.5q-5 -17 -13 -37.5t-17 -39.5t-17 -31.5t-13 -12.5q-6 0 -9.5 3
t-8.5 5q-4 3 -9.5 4.5t-16.5 1.5q-8 0 -18 -2.5t-23 -5.5q-11 -3 -27.5 -5.5t-37.5 -2.5z" />
  </g>

</svg>
