<?xml version="1.0" standalone="no"?>
<!DOCTYPE svg PUBLIC "-//W3C//DTD SVG 1.1//EN" "http://www.w3.org/Graphics/SVG/1.1/DTD/svg11.dtd" >
<svg xmlns="http://www.w3.org/2000/svg" xmlns:xlink="http://www.w3.org/1999/xlink" version="1.1" viewBox="-134 0 761 1000">
  <g transform="matrix(1 0 0 -1 0 800)">
   <path fill="currentColor"
d="M-85 -291q-13 0 -21.5 10t-13 24t-4.5 25q0 14 7.5 31.5t29.5 39.5l275 288q15 16 18 32.5t3 35.5q0 59 -22.5 88t-54.5 29t-66 -26q-7 -5 -11 -9t-10 -4q-12 0 -12 20q0 18 13 42t34.5 47.5t48 39t53.5 15.5q46 0 62.5 -27.5t16.5 -71.5q0 -27 -6 -75.5t-14 -96.5
l196 225q26 30 37 38t20 8q5 0 24.5 -1.5t42.5 -5.5t39.5 -10.5t16.5 -17.5q0 -10 -20 -21t-41 -32l-288 -293q-7 -6 -8.5 -13t-3.5 -20q-3 -22 -4 -40t-1 -33q0 -40 9.5 -60t28 -26.5t45.5 -6.5q17 0 33.5 4.5t28.5 8.5q7 2 12 4t8 2q5 0 9.5 -2.5t4.5 -12.5t-10.5 -31.5
t-29 -45t-43.5 -40t-55 -16.5q-53 0 -75 38t-22 93q0 40 9.5 83.5t24.5 82.5h-5l-209 -220q-25 -25 -36 -41.5t-11 -34.5q0 -7 -10.5 -11.5t-23.5 -6.5t-19 -2z" />
  </g>

</svg>
