<?xml version="1.0" standalone="no"?>
<!DOCTYPE svg PUBLIC "-//W3C//DTD SVG 1.1//EN" "http://www.w3.org/Graphics/SVG/1.1/DTD/svg11.dtd" >
<svg xmlns="http://www.w3.org/2000/svg" xmlns:xlink="http://www.w3.org/1999/xlink" version="1.1" viewBox="-48 0 657 1000">
  <g transform="matrix(1 0 0 -1 0 800)">
   <path fill="currentColor"
d="M-21 -5q-9 0 -13 5.5t-3 9.5q2 7 9 12t14 6q26 3 36.5 12.5t14.5 24.5l98 314q6 21 2.5 29t-28.5 14q-7 2 -10.5 6.5t-2.5 10.5q2 6 8.5 10t12.5 4q15 0 39 -1t46.5 -2.5t30.5 -1.5q10 0 33 1.5t49 3t44 1.5q74 0 123.5 -28.5t74.5 -73t25 -92.5q0 -51 -25.5 -98.5
t-71 -85t-107 -59.5t-132.5 -22q-43 0 -73.5 1.5t-51.5 2.5t-36 1q-13 0 -33 -1t-40 -2.5t-33 -1.5zM237 21q43 0 77 29t57.5 74.5t36 97t12.5 95.5q0 31 -5.5 54t-18.5 36t-37 13q-22 0 -36.5 -11.5t-22.5 -37.5l-92 -294q-5 -16 -6.5 -28.5t6.5 -20t29 -7.5zM408 535
q-10 0 -15 10.5t-11 32.5q-4 17 -9.5 33.5t-10.5 33t-9.5 33t-7.5 33.5q-4 18 1 31.5t21 13.5t32 -35q6 -13 15.5 -30t22.5 -37q4 -6 12 0q23 20 45 38t36 30q20 17 33 25.5t20 8.5q11 0 11 -13q0 -6 -3.5 -14t-11.5 -18q-19 -22 -39 -44.5l-40 -45t-40 -45.5
q-17 -19 -29 -30t-23 -11z" />
  </g>

</svg>
