<?xml version="1.0" standalone="no"?>
<!DOCTYPE svg PUBLIC "-//W3C//DTD SVG 1.1//EN" "http://www.w3.org/Graphics/SVG/1.1/DTD/svg11.dtd" >
<svg xmlns="http://www.w3.org/2000/svg" xmlns:xlink="http://www.w3.org/1999/xlink" version="1.1" viewBox="-27 0 688 1000">
  <g transform="matrix(1 0 0 -1 0 800)">
   <path fill="currentColor"
d="M237 -14q-40 0 -74 4.5t-63 16.5q-15 6 -25.5 9.5t-13.5 3.5q-7 0 -14.5 -2.5t-12.5 -5.5l-14 -8t-12 -4q-6 0 -15.5 8.5t-9.5 15.5q0 8 12 33t25.5 60.5t18.5 73.5q3 19 8.5 27t18.5 8q15 0 18.5 -16.5t3.5 -51.5q0 -31 14.5 -62.5t43.5 -52t72 -20.5q41 0 70.5 15.5
t45 41t15.5 53.5q0 22 -9 40.5t-33 43t-69 62.5q-52 44 -76 84.5t-24 101.5q0 56 32.5 101t90 71.5t131.5 26.5q40 0 72.5 -6.5t54.5 -13.5q21 -6 33.5 -9.5t25.5 -3.5q16 0 27 6q8 5 16 8t15 3q11 0 13.5 -7.5t-4.5 -16.5q-13 -17 -28.5 -46t-28 -60.5t-20.5 -57.5
q-3 -10 -7.5 -16.5t-15.5 -6.5t-15.5 10.5t-4.5 33.5q0 65 -34.5 106t-90.5 41q-38 0 -63 -16t-37 -40t-12 -48q0 -23 9 -41.5t32 -40t65 -55.5q64 -51 86 -94t22 -94t-32 -100t-91 -81t-142 -32zM128 -96q-16 0 -18.5 10.5t1.5 22.5l323 766q5 11 20 16.5t32 5.5
q11 0 12.5 -9t-5.5 -24l-327 -774q-2 -7 -13 -10.5t-25 -3.5z" />
  </g>

</svg>
