<?xml version="1.0" standalone="no"?>
<!DOCTYPE svg PUBLIC "-//W3C//DTD SVG 1.1//EN" "http://www.w3.org/Graphics/SVG/1.1/DTD/svg11.dtd" >
<svg xmlns="http://www.w3.org/2000/svg" xmlns:xlink="http://www.w3.org/1999/xlink" version="1.1" viewBox="-10 0 769 1000">
  <g transform="matrix(1 0 0 -1 0 800)">
   <path fill="currentColor"
d="M309 -14q-69 0 -123.5 10.5t-93 32t-58.5 54.5t-20 77q0 46 22.5 94.5t61 90t86 67t96.5 25.5q63 0 90.5 -23.5t27.5 -54.5q0 -35 -23 -59.5t-60 -42t-78.5 -28.5t-77.5 -19q-8 -1 -10 -11t-2 -16q0 -51 29 -78.5t75 -37.5t98 -11q71 -1 130.5 12t103.5 38t68.5 60.5
t24.5 78.5q0 29 -8 46t-25 39q-8 11 -8 27q0 9 11.5 22.5t28.5 24t35 10.5q9 0 18 -13.5t15 -34t6 -41.5q0 -73 -33.5 -135t-93.5 -107.5t-140 -70.5t-173 -26zM168 248q24 6 45.5 14.5t38.5 22t27.5 33.5t12.5 48q1 11 -6 22t-22 11q-17 0 -33 -11.5t-30.5 -31t-24.5 -46
t-15 -56.5q-1 -8 7 -6z" />
  </g>

</svg>
