<?xml version="1.0" standalone="no"?>
<!DOCTYPE svg PUBLIC "-//W3C//DTD SVG 1.1//EN" "http://www.w3.org/Graphics/SVG/1.1/DTD/svg11.dtd" >
<svg xmlns="http://www.w3.org/2000/svg" xmlns:xlink="http://www.w3.org/1999/xlink" version="1.1" viewBox="-10 0 555 1000">
  <g transform="matrix(1 0 0 -1 0 800)">
   <path fill="currentColor"
d="M196 -13q-57 0 -95.5 19.5t-58.5 50.5t-22 66q0 52 26 84t68 54t89 42q11 5 9 8t-7 10q-19 24 -36 46t-27 43t-10 41q0 35 20.5 66.5t55 57t78.5 40t92 14.5q51 0 85.5 -16.5t52.5 -42t18 -52.5q1 -23 -13 -50t-38.5 -51t-57.5 -40q-11 -5 -23.5 -11.5t-23.5 -12.5
q-12 -7 -11.5 -10t8.5 -11q41 -44 65.5 -80.5t24.5 -80.5q0 -34 -22.5 -67t-61 -59.5t-86.5 -42t-99 -15.5zM212 25q39 0 70 29.5t31 81.5q0 31 -15 64.5t-45 70.5l-6 7.5t-6 2.5q-2 0 -15 -8q-30 -22 -48 -47t-26.5 -53.5t-8.5 -62.5q0 -17 7.5 -37t23 -34t38.5 -14z
M348 374q20 16 35.5 41t24.5 53.5t9 52.5q0 29 -13.5 48.5t-50.5 19.5q-25 0 -43.5 -11.5t-29 -32.5t-10.5 -52t16 -61.5t41 -56.5q5 -5 9.5 -5.5t11.5 4.5z" />
  </g>

</svg>
