<?xml version="1.0" standalone="no"?>
<!DOCTYPE svg PUBLIC "-//W3C//DTD SVG 1.1//EN" "http://www.w3.org/Graphics/SVG/1.1/DTD/svg11.dtd" >
<svg xmlns="http://www.w3.org/2000/svg" xmlns:xlink="http://www.w3.org/1999/xlink" version="1.1" viewBox="-10 0 501 1000">
  <g transform="matrix(1 0 0 -1 0 800)">
   <path fill="currentColor"
d="M142 -15q-28 0 -60 16.5t-54.5 45t-22.5 64.5q0 65 23.5 123.5t62.5 104t87.5 72t97.5 26.5q63 0 90.5 -23.5t27.5 -54.5q0 -35 -23 -59.5t-59 -42t-77.5 -28.5t-77.5 -19q-4 -1 -6 -3t-3 -6t-1.5 -8.5t-1.5 -9.5q-1 -35 19.5 -62.5t61.5 -27.5q26 0 49 13.5t47 38.5
q11 12 17 12q9 0 9 -11q0 -3 -0.5 -7.5t-2.5 -7.5q-19 -37 -47.5 -70.5t-67 -54.5t-88.5 -21zM164 248q23 7 44.5 15.5t38.5 22t28 33t13 47.5q1 11 -6 22t-22 11q-17 0 -33 -11.5t-30.5 -31t-24.5 -46t-15 -56.5q-1 -8 7 -6zM157 510q-10 0 -13 5t-3 14q0 17 10 32.5t23 25
t22 9.5h261q24 0 24 -14q0 -12 -9.5 -29t-23 -30t-26.5 -13h-265z" />
  </g>

</svg>
