<?xml version="1.0" standalone="no"?>
<!DOCTYPE svg PUBLIC "-//W3C//DTD SVG 1.1//EN" "http://www.w3.org/Graphics/SVG/1.1/DTD/svg11.dtd" >
<svg xmlns="http://www.w3.org/2000/svg" xmlns:xlink="http://www.w3.org/1999/xlink" version="1.1" viewBox="-212 0 1494 1000">
  <g transform="matrix(1 0 0 -1 0 800)">
   <path fill="currentColor"
d="M247 -291q-40 0 -77.5 12.5t-62 33.5t-27.5 48l67 95q11 -72 38.5 -103t61.5 -31q47 0 70 34.5t37 83.5l155 575q24 90 69.5 144.5t101.5 79t109 24.5q35 0 70 -12t59 -33.5t27 -48.5l-57 -85q-11 72 -39 98t-56 26q-43 0 -73 -26.5t-49 -91.5q-6 -21 -11 -41.5t-8 -35
t-4 -17.5q-1 -10 4.5 -13t12.5 -3l221 3q11 0 11 -15q0 -5 -5 -15t-11 -18t-10 -8l-205 -3q-19 0 -28 -6t-13 -20l-115 -408q-22 -75 -66 -124.5t-96.5 -74t-100.5 -24.5zM-58 -291q-78 0 -111 26.5t-33 55.5q0 27 17 43.5t37 16.5q10 0 22 -16t22 -31q11 -16 22.5 -31
t30.5 -15q14 0 25 13t20.5 35.5t17.5 50.5l136 490q4 18 -14 18l-59 -1q-11 0 -15 4.5t-4 14.5q0 8 9.5 21.5t27.5 14.5l61 3q5 0 6.5 3t4.5 10l12 34q20 57 50.5 99t66.5 69.5t74 41t74 13.5q41 0 78 -12t61.5 -33.5t27.5 -48.5l-57 -85q-7 48 -24.5 75t-38 38t-39.5 11
q-35 0 -57 -16t-35 -42.5t-23 -59.5q-7 -34 -11.5 -50.5t-6.5 -22t-3 -8.5q-1 -10 4.5 -13t12.5 -3l221 3q11 0 11 -15q0 -5 -5 -15t-11 -18t-10 -8l-205 -3q-19 0 -28 -6t-13 -20l-120 -429q-9 -34 -35 -69.5t-60.5 -65.5t-69.5 -48.5t-64 -18.5zM811 -14q-9 0 -23.5 6.5
t-26.5 18.5t-12 28q0 17 3.5 34t10.5 38l133 424q5 15 7.5 28.5t2.5 26.5q0 14 -12.5 21.5t-26.5 12.5q-7 3 -13.5 6.5t-6.5 9.5t5 10.5t24 11.5q12 4 37.5 11.5t54 15t51.5 13t32 5.5q8 0 18 -1.5t10 -12.5q0 -13 -3 -22.5t-7 -20.5l-140 -415q-2 -7 2.5 -7.5t8.5 5.5
q35 56 76 102.5t84 74t84 27.5q43 0 64.5 -26.5t21.5 -64.5q0 -53 -12.5 -99.5t-34 -87.5t-48.5 -76q-7 -9 -28 -25t-47.5 -32.5t-50 -28t-34.5 -11.5q-14 0 -29 8.5t-25.5 20t-10.5 19.5q0 5 5.5 17.5t14 23.5t17.5 11q11 0 16.5 -5.5l13.5 -13.5q8 -7 16 -13.5t18 -6.5
q9 0 19 20.5t19.5 53t16.5 70t11.5 73t4.5 60.5q0 15 -5.5 24.5t-17.5 9.5t-30 -20.5t-40.5 -55.5t-48 -77.5t-52 -86.5t-52.5 -83q-17 -26 -33.5 -37.5t-31.5 -11.5z" />
  </g>

</svg>
