<?xml version="1.0" standalone="no"?>
<!DOCTYPE svg PUBLIC "-//W3C//DTD SVG 1.1//EN" "http://www.w3.org/Graphics/SVG/1.1/DTD/svg11.dtd" >
<svg xmlns="http://www.w3.org/2000/svg" xmlns:xlink="http://www.w3.org/1999/xlink" version="1.1" viewBox="-212 0 1218 1000">
  <g transform="matrix(1 0 0 -1 0 800)">
   <path fill="currentColor"
d="M247 -291q-40 0 -77.5 12.5t-62 33.5t-27.5 48l67 95q11 -72 38.5 -103t61.5 -31q47 0 70.5 34.5t36.5 83.5l148 555q21 77 56.5 128.5t79.5 82t89.5 44t85.5 13.5q51 0 87 -21.5t36 -54.5q0 -26 -12.5 -50t-34.5 -24q-19 0 -26.5 18t-17.5 38t-23.5 35.5t-40.5 15.5
q-24 0 -44 -18.5t-36 -47t-27 -59.5t-16 -55l-9 -44q-1 -10 4.5 -13t12.5 -3q13 0 44 0.5t68 1t68 1t44 0.5l-15 -56l-208 -3q-19 0 -28 -6t-13 -20q-15 -53 -29 -103.5t-28.5 -100t-29 -100t-29.5 -104.5q-22 -75 -66 -124.5t-96.5 -74t-100.5 -24.5zM-58 -291
q-78 0 -111 26.5t-33 55.5q0 27 17 43.5t37 16.5q10 0 22 -16t22 -31q11 -16 22.5 -31t30.5 -15q14 0 25 13t20.5 35.5t17.5 50.5l136 490q4 18 -14 18l-59 -1q-11 0 -15 4.5t-4 14.5q0 8 9.5 21.5t27.5 14.5l61 3q5 0 6.5 3t4.5 10l12 34q20 57 50.5 99t66.5 69.5t74 41
t74 13.5q41 0 78 -12t61.5 -33.5t27.5 -48.5l-57 -85q-7 48 -24.5 75t-38 38t-39.5 11q-35 0 -57 -16t-35 -42.5t-23 -59.5q-7 -34 -11.5 -50.5t-6.5 -22t-3 -8.5q-1 -10 4.5 -13t12.5 -3l221 3q11 0 11 -15q0 -5 -5 -15t-11 -18t-10 -8l-205 -3q-19 0 -28 -6t-13 -20
l-120 -429q-9 -34 -35 -69.5t-60.5 -65.5t-69.5 -48.5t-64 -18.5zM545 -290q-55 0 -77 17.5t-21 39.5q2 19 12 32.5t22.5 21.5t20.5 8q17 0 28.5 -12t21.5 -24q9 -11 18.5 -19t23.5 -8q25 0 46.5 35.5t37.5 90.5l150 501l-26 31q-7 0 11.5 0t47 0.5t56 3t38.5 7.5
q14 6 29 -6.5t10 -26.5q-5 -16 -19 -46.5t-26 -67.5l-110 -336q-17 -52 -54.5 -96t-83 -77t-87.5 -51t-69 -18z" />
  </g>

</svg>
