<?xml version="1.0" standalone="no"?>
<!DOCTYPE svg PUBLIC "-//W3C//DTD SVG 1.1//EN" "http://www.w3.org/Graphics/SVG/1.1/DTD/svg11.dtd" >
<svg xmlns="http://www.w3.org/2000/svg" xmlns:xlink="http://www.w3.org/1999/xlink" version="1.1" viewBox="-212 0 939 1000">
  <g transform="matrix(1 0 0 -1 0 800)">
   <path fill="currentColor"
d="M-58 -291q-78 0 -111 26.5t-33 55.5q0 27 17 43.5t37 16.5q10 0 22 -16t22 -31q11 -16 22.5 -31t30.5 -15q14 0 25 13t20.5 35.5t17.5 50.5l136 490q4 18 -14 18l-59 -1q-11 0 -15 4.5t-4 14.5q0 8 9.5 21.5t27.5 14.5l61 3q7 0 11 13l8 24q30 90 75.5 144t97.5 78.5
t99 24.5q46 0 78 -21.5t32 -54.5q0 -26 -12.5 -50t-34.5 -24q-19 0 -27 17.5t-16 38.5q-7 20 -17.5 36.5t-30.5 16.5q-16 0 -31.5 -19.5t-28 -49.5t-22.5 -63q-6 -21 -10.5 -40.5t-7.5 -35.5q-1 -5 -1.5 -9.5t-1.5 -9.5q-1 -10 4.5 -13t12.5 -3q13 0 35.5 0.5t47.5 1t47.5 1
t35.5 0.5q11 0 11 -15q0 -5 -5 -15t-11 -18t-10 -8l-150 -3q-19 -1 -28 -6.5t-13 -19.5q-29 -106 -59.5 -214t-60.5 -215q-9 -34 -35 -69.5t-60.5 -65.5t-69.5 -48.5t-64 -18.5zM409 -14q-17 0 -32 11t-24.5 26.5t-9.5 27.5q0 5 1.5 12.5t8.5 25.5l126 331q17 36 39.5 72.5
t46 61.5t43.5 25q18 0 23.5 -16t0.5 -33l-23 -79q-4 -16 0 -20.5t15 -4.5q12 0 26.5 -1.5t33.5 -3.5q24 -3 28.5 -8.5t4.5 -13.5q0 -3 -6 -10.5t-23 -9.5q-11 -1 -23.5 -2.5t-30.5 -2.5q-19 -1 -29 -5t-15 -16l-71 -198q-8 -23 -8 -33.5t4.5 -12.5t8.5 -2q12 0 31.5 14
t40 32t33.5 31l2 2t2 1q6 0 10 -5t4 -11q0 -15 -15.5 -38t-41.5 -48.5t-57.5 -48t-63.5 -36.5t-60 -14z" />
  </g>

</svg>
