<?xml version="1.0" standalone="no"?>
<!DOCTYPE svg PUBLIC "-//W3C//DTD SVG 1.1//EN" "http://www.w3.org/Graphics/SVG/1.1/DTD/svg11.dtd" >
<svg xmlns="http://www.w3.org/2000/svg" xmlns:xlink="http://www.w3.org/1999/xlink" version="1.1" viewBox="-62 0 566 1000">
  <g transform="matrix(1 0 0 -1 0 800)">
   <path fill="currentColor"
d="M11 -38q-34 0 -48.5 18.5t-14.5 37.5q0 13 5 22t12 9q17 0 29 -10.5t35 -20.5q11 -4 21 -6.5t29 -2.5q39 0 72 10.5t57 30.5t37.5 48t13.5 63q0 30 -13 54.5t-41.5 47t-75.5 46.5q-25 13 -35.5 18.5t-10.5 17.5q0 5 1 9t2 9q5 14 18.5 40.5t30.5 56t30.5 53t17.5 30.5
q14 26 31.5 37t35.5 15q19 4 53 9.5t71.5 11.5t66.5 10t36 4q17 0 17 -22q0 -9 -7 -28t-19.5 -39.5t-30 -35.5t-38.5 -17q-17 -1 -45.5 -2.5t-59 -2t-54.5 -1.5t-32 -2q-7 -1 -13 -6.5t-10 -12t-5 -10.5q-2 -9 6 -12q58 -20 108.5 -49.5t81.5 -68t31 -85.5q0 -60 -32 -110
t-87.5 -87t-127 -57t-149.5 -20z" />
  </g>

</svg>
