<?xml version="1.0" standalone="no"?>
<!DOCTYPE svg PUBLIC "-//W3C//DTD SVG 1.1//EN" "http://www.w3.org/Graphics/SVG/1.1/DTD/svg11.dtd" >
<svg xmlns="http://www.w3.org/2000/svg" xmlns:xlink="http://www.w3.org/1999/xlink" version="1.1" viewBox="-10 0 728 1000">
  <g transform="matrix(1 0 0 -1 0 800)">
   <path fill="currentColor"
d="M75 271q-8 0 -19 2t-11 9q0 8 6.5 22t16.5 14q8 0 16 -2t15 -4q8 -3 15.5 -5t16.5 -2q19 0 38.5 12t32.5 30t13 34q0 32 -25 49t-66 25q-11 2 -14.5 8.5t0.5 16.5q3 9 12.5 26t21 36.5t20.5 34.5q7 11 16 15.5t19 5.5q12 2 41.5 6.5t61 8.5t50.5 4q10 0 7 -13
q-2 -7 -13.5 -23t-26.5 -30t-31 -14q-11 0 -34.5 -1t-45 -2t-26.5 -2q-7 -2 -8 -5l-1 -3q-2 -6 4 -7q68 -14 104.5 -43.5t36.5 -63.5q0 -32 -22.5 -58t-59 -44t-79 -27.5t-82.5 -9.5zM42 -19q-16 0 -22 13t4 23l609 636q8 8 22.5 12t27.5 4q16 0 22 -10t-3 -19l-606 -632
q-13 -14 -26 -20.5t-28 -6.5zM449 -31q-61 0 -91.5 23t-30.5 55q0 23 19.5 37.5t47.5 26t53 22.5q7 3 6.5 5t-5.5 7q-15 17 -32 40t-17 45q0 34 22.5 54t56.5 29.5t67 9.5q49 0 82 -22.5t33 -52.5q0 -22 -17.5 -37.5t-39.5 -22.5q-10 -3 -19 -6.5t-17 -6.5q-9 -3 -8 -6.5
t5 -7.5q22 -15 37.5 -39.5t15.5 -48.5q0 -33 -26.5 -56.5t-65.5 -35.5t-76 -12zM453 -6q25 0 43 21.5t18 41.5q0 15 -9.5 30.5t-23.5 25.5q-7 5 -10.5 4.5t-7.5 -2.5q-22 -13 -32.5 -29t-10.5 -40q0 -15 7.5 -33.5t25.5 -18.5zM532 189q21 12 32 29.5t11 33.5q0 14 -7.5 25
t-22.5 11q-22 0 -37.5 -11t-15.5 -36q0 -15 10 -27t23 -24q6 -1 7 -1z" />
  </g>

</svg>
