<?xml version="1.0" standalone="no"?>
<!DOCTYPE svg PUBLIC "-//W3C//DTD SVG 1.1//EN" "http://www.w3.org/Graphics/SVG/1.1/DTD/svg11.dtd" >
<svg xmlns="http://www.w3.org/2000/svg" xmlns:xlink="http://www.w3.org/1999/xlink" version="1.1" viewBox="-51 0 466 1000">
  <g transform="matrix(1 0 0 -1 0 800)">
   <path fill="currentColor"
d="M10 -52q-18 -1 -34.5 2t-16.5 11t12.5 13.5t29.5 9.5q42 11 73.5 24.5t52.5 30.5t31 37t10 44q0 25 -24.5 45.5t-69.5 42.5q-8 4 -11.5 14.5t1.5 25.5q11 31 27.5 63t32.5 57t23 33q12 15 26.5 22.5t26.5 11.5q20 6 49.5 12.5t59.5 11.5t53 8.5t30 3.5q8 0 11 -6.5
t1 -14.5q-7 -22 -21.5 -45.5t-32.5 -40t-34 -19.5q-22 -3 -54 -6t-60.5 -5t-40.5 -3q-9 -1 -14.5 -3.5t-7.5 -8.5q-1 -4 9.5 -9.5t18.5 -8.5q68 -24 106 -56t38 -78q0 -49 -28.5 -88t-74.5 -66.5t-98 -43.5t-100 -21z" />
  </g>

</svg>
