<?xml version="1.0" standalone="no"?>
<!DOCTYPE svg PUBLIC "-//W3C//DTD SVG 1.1//EN" "http://www.w3.org/Graphics/SVG/1.1/DTD/svg11.dtd" >
<svg xmlns="http://www.w3.org/2000/svg" xmlns:xlink="http://www.w3.org/1999/xlink" version="1.1" viewBox="-150 0 732 1000">
  <g transform="matrix(1 0 0 -1 0 800)">
   <path fill="currentColor"
d="M4 -170q-78 0 -111 26.5t-33 55.5q0 27 17 43.5t37 16.5q10 0 22 -16t22 -31q11 -16 22.5 -31t30.5 -15q14 0 25 13t20.5 35.5t17.5 50.5l86 297q4 18 -14 18l-59 -1q-11 0 -15 4.5t-4 14.5q0 8 9.5 21.5t27.5 14.5l61 3q7 0 11 13l8 24q30 90 75.5 144t97.5 78.5
t99 24.5q31 0 57 -12.5t42 -32.5t16 -42q0 -31 -14.5 -47t-37.5 -16q-19 0 -27 17.5t-16 38.5q-7 20 -17.5 36.5t-30.5 16.5q-16 0 -32 -19t-29 -49.5t-21 -63.5l-18 -76q-2 -16 -2.5 -25.5t16.5 -9.5q26 0 48 1.5t47 1.5q11 0 11 -15q0 -5 -5 -15t-11 -18t-10 -8l-79 -3
q-19 -1 -28 -6.5t-13 -19.5l-71 -243q-9 -33 -35.5 -67t-62 -63t-70 -47t-60.5 -18z" />
  </g>

</svg>
