<?xml version="1.0" standalone="no"?>
<!DOCTYPE svg PUBLIC "-//W3C//DTD SVG 1.1//EN" "http://www.w3.org/Graphics/SVG/1.1/DTD/svg11.dtd" >
<svg xmlns="http://www.w3.org/2000/svg" xmlns:xlink="http://www.w3.org/1999/xlink" version="1.1" viewBox="-43 0 697 1000">
  <g transform="matrix(1 0 0 -1 0 800)">
   <path fill="currentColor"
d="M-17 -3q-6 0 -11.5 4t-3.5 11q2 8 11 13t18 8q17 5 30 11.5t19 26.5l88 283q6 20 -2.5 27t-22.5 11q-7 3 -13 8t-4 13q2 7 10.5 11t14.5 4q20 0 39.5 -1t38 -2.5t35.5 -1.5q18 0 35 1.5t35.5 2.5t38.5 1q6 0 9.5 -4.5t1.5 -10.5q-2 -7 -9 -12.5t-16 -8.5q-16 -5 -28 -11
t-18 -26l-26 -84q-6 -20 2 -26t22 -6h76q15 0 26.5 6t17.5 26l26 84q6 20 -1.5 26t-20.5 11q-7 3 -11 8t-2 13q2 7 8.5 11t12.5 4q20 0 38 -1t35.5 -2.5t34.5 -1.5q18 0 36.5 1.5t38 2.5t39.5 1q6 0 10 -4t2 -11q-2 -8 -10 -13.5t-16 -7.5q-16 -4 -29.5 -10.5t-19.5 -26.5
l-88 -285q-6 -20 3 -26t22 -11q8 -3 12 -8t2 -13q-2 -7 -9 -11t-13 -4q-20 0 -38.5 1.5t-36 2.5t-35.5 1q-17 0 -35.5 -1t-37.5 -2.5t-39 -1.5q-6 0 -9.5 4t-1.5 11q2 8 9.5 13.5t15.5 7.5q17 4 28.5 10.5t17.5 26.5l27 88q6 20 -1.5 26t-22.5 6h-76q-14 0 -26 -6t-18 -26
l-27 -88q-6 -20 2 -26t20 -11q8 -3 11.5 -8t1.5 -13q-2 -6 -8.5 -10.5t-12.5 -4.5q-20 0 -37.5 1.5t-33.5 2.5t-34 1q-17 0 -36.5 -1t-40 -2.5t-40.5 -1.5z" />
  </g>

</svg>
