<?xml version="1.0" standalone="no"?>
<!DOCTYPE svg PUBLIC "-//W3C//DTD SVG 1.1//EN" "http://www.w3.org/Graphics/SVG/1.1/DTD/svg11.dtd" >
<svg xmlns="http://www.w3.org/2000/svg" xmlns:xlink="http://www.w3.org/1999/xlink" version="1.1" viewBox="-97 0 521 1000">
  <g transform="matrix(1 0 0 -1 0 800)">
   <path fill="currentColor"
d="M-75 -124q-3 0 -7.5 3t-3.5 7q1 6 8 10t12 5q12 4 20.5 8t12.5 16l97 322q3 10 0.5 17.5t-12.5 7.5q-6 0 -4 12t12 15q16 3 40 8.5t48.5 12t41.5 12.5q7 0 15 -3.5t7 -5.5q-9 -21 -18 -43.5t-15 -43.5l-35 -128q29 19 57 33.5t60 14.5q35 0 53 -25t5 -69l-42 -138
q-4 -12 1.5 -15.5t15.5 -7.5q5 -1 7.5 -4.5t0.5 -9.5q-1 -4 -5 -7.5t-8 -3.5q-21 0 -43.5 1.5t-41.5 1.5t-41.5 -1.5t-42.5 -1.5q-4 0 -6 3.5t-1 7.5q1 10 16 14q12 4 18.5 7.5t10.5 15.5l37 123q7 20 -1 28.5t-22 8.5q-8 0 -15 -1.5t-17 -6.5q-7 -4 -10.5 -12t-7.5 -20
l-37 -120q-4 -12 0.5 -15.5t13.5 -7.5q5 -1 7.5 -5t0.5 -10q-1 -3 -5.5 -6.5t-7.5 -3.5q-21 0 -41.5 1.5t-38.5 1.5t-43 -1.5t-46 -1.5z" />
  </g>

</svg>
