<?xml version="1.0" standalone="no"?>
<!DOCTYPE svg PUBLIC "-//W3C//DTD SVG 1.1//EN" "http://www.w3.org/Graphics/SVG/1.1/DTD/svg11.dtd" >
<svg xmlns="http://www.w3.org/2000/svg" xmlns:xlink="http://www.w3.org/1999/xlink" version="1.1" viewBox="-77 0 463 1000">
  <g transform="matrix(1 0 0 -1 0 800)">
   <path fill="currentColor"
d="M-18 -1q-7 0 -11 3.5t-2 10.5q2 8 8 12.5t14 5.5q20 4 30 10t17 27l96 311q6 20 0.5 28t-27.5 14q-7 2 -10 6t-1 13q2 7 8.5 10t13.5 3q14 0 36.5 -1t44.5 -2t36 -1t39 1t50.5 1.5t38.5 0.5q9 0 11.5 -3.5t0.5 -9.5q-2 -7 -7.5 -10.5t-13.5 -6.5q-24 -8 -33.5 -14
t-12 -12.5t-6.5 -18.5l-95 -305q-5 -18 0 -25t20 -14q6 -3 10.5 -7t1.5 -12q-2 -7 -7.5 -10.5t-11.5 -3.5q-13 0 -37 0.5t-48.5 1t-37.5 0.5t-35 -0.5t-44 -1.5t-36 -1zM19 -287q-23 0 -43 13t-31.5 32.5t-11.5 39.5q0 38 19 70.5t49 60t64.5 49.5t66.5 40h44
q-32 -22 -59.5 -55.5t-44 -68.5t-16.5 -64q0 -13 8 -20.5t24 -7.5q12 0 27.5 11t28.5 29q2 2 4 5t5 5t7 2q7 0 8 -6t1 -11q0 -18 -14 -39.5t-36 -41t-48.5 -31.5t-51.5 -12z" />
  </g>

</svg>
