<?xml version="1.0" standalone="no"?>
<!DOCTYPE svg PUBLIC "-//W3C//DTD SVG 1.1//EN" "http://www.w3.org/Graphics/SVG/1.1/DTD/svg11.dtd" >
<svg xmlns="http://www.w3.org/2000/svg" xmlns:xlink="http://www.w3.org/1999/xlink" version="1.1" viewBox="-57 0 874 1000">
  <g transform="matrix(1 0 0 -1 0 800)">
   <path fill="currentColor"
d="M249 -2q-6 0 -9 6.5t-3 19.5q-1 64 -0.5 129.5t-1.5 129.5q0 7 -2 10t-5 3q-7 0 -14 -15q-20 -46 -43.5 -93.5t-45.5 -92.5q-12 -23 -10.5 -43t25.5 -20q11 0 14 -4t3 -11q0 -6 -11 -11.5t-17 -5.5q-31 0 -44.5 1.5t-33.5 1.5q-29 0 -55.5 -2t-32.5 -2q-4 0 -7 2t-3 6
q0 12 11 15.5t15 4.5q20 3 41.5 15t43.5 48q43 71 82.5 139.5t74.5 143.5q12 26 3.5 36.5t-31.5 16.5q-9 2 -14 5.5t-1 10.5q3 7 9.5 10.5t13.5 3.5q29 0 67 -0.5t84 -0.5q12 0 17 -6.5t6 -20.5q3 -57 6.5 -114.5t6.5 -114.5q0 -4 1 -5.5t3 -1.5t4.5 1.5t5.5 4.5
q53 60 105 119.5t104 119.5q5 5 9 7t10 2h32q35 2 64 7t54 5q11 0 19 -4.5t8 -12.5q0 -7 -10.5 -12t-21.5 -7q-26 -5 -43.5 -15t-28.5 -45q-18 -73 -35.5 -145.5t-35.5 -145.5q-4 -16 3 -25.5t25 -13.5q4 -1 7.5 -3.5t3.5 -7.5q0 -8 -10 -14.5t-18 -6.5q-13 0 -39 0.5
t-52.5 1t-39.5 0.5q-15 0 -40 -0.5t-49.5 -1.5t-38.5 -1q-6 0 -10 4t-2 9q3 8 11.5 13t15.5 6q25 3 45 12.5t25 31.5q11 44 22 89t22 89q2 8 -0.5 8.5t-10.5 -7.5q-52 -56 -103.5 -112t-103.5 -112q-18 -19 -29 -25.5t-17 -6.5z" />
  </g>

</svg>
