<?xml version="1.0" standalone="no"?>
<!DOCTYPE svg PUBLIC "-//W3C//DTD SVG 1.1//EN" "http://www.w3.org/Graphics/SVG/1.1/DTD/svg11.dtd" >
<svg xmlns="http://www.w3.org/2000/svg" xmlns:xlink="http://www.w3.org/1999/xlink" version="1.1" viewBox="-23 0 582 1000">
  <g transform="matrix(1 0 0 -1 0 800)">
   <path fill="currentColor"
d="M40 -13q-19 -2 -36 -0.5t-17 10.5q0 10 5 15.5t27 10.5q48 12 96.5 35.5t93.5 57t83.5 75.5t67.5 90t45.5 101.5t16.5 109.5q0 41 -20 67.5t-61 26.5q-32 0 -57.5 -21.5t-39.5 -58.5t-13 -82q1 -37 23 -59.5t45 -22.5q11 0 18.5 2t14.5 5q25 10 25 -1q0 -4 -3.5 -10
t-11.5 -14q-20 -20 -41 -34q-14 -9 -28.5 -15.5t-28.5 -10.5t-27 -4q-54 0 -87 29.5t-33 87.5q0 38 24 81.5t65.5 82t95.5 63.5t114 25q46 0 80 -23.5t53.5 -61.5t19.5 -84q0 -45 -19 -95t-53.5 -100.5t-81.5 -97t-103.5 -84.5t-120.5 -63t-131 -33z" />
  </g>

</svg>
