<?xml version="1.0" standalone="no"?>
<!DOCTYPE svg PUBLIC "-//W3C//DTD SVG 1.1//EN" "http://www.w3.org/Graphics/SVG/1.1/DTD/svg11.dtd" >
<svg xmlns="http://www.w3.org/2000/svg" xmlns:xlink="http://www.w3.org/1999/xlink" version="1.1" viewBox="-10 0 627 1000">
  <g transform="matrix(1 0 0 -1 0 800)">
   <path fill="currentColor"
d="M260 -14q-55 0 -102.5 22.5t-78.5 62.5t-38 93q-7 57 13.5 110t63 94t101.5 65t130 24q55 0 102.5 -22.5t79 -62.5t37.5 -93q7 -57 -13.5 -110t-63 -94t-101.5 -65t-130 -24zM258 17q29 0 56 21t49 55t37 75t22 81.5t4 72.5q-3 29 -13 53.5t-26 39t-38 14.5
q-29 0 -55.5 -21t-48 -56t-36.5 -76.5t-22 -82t-3 -73.5q3 -28 12 -51.5t24.5 -37.5t37.5 -14zM500 539q-25 0 -40 16t-15 42q0 27 15 48.5t38.5 34t49.5 12.5q28 0 43.5 -15.5t15.5 -41.5q0 -39 -31.5 -67.5t-75.5 -28.5zM296 539q-25 0 -40 16t-15 42q0 27 15 48.5
t38.5 34t49.5 12.5q28 0 43.5 -15.5t15.5 -41.5q0 -39 -31.5 -67.5t-75.5 -28.5z" />
  </g>

</svg>
