<?xml version="1.0" standalone="no"?>
<!DOCTYPE svg PUBLIC "-//W3C//DTD SVG 1.1//EN" "http://www.w3.org/Graphics/SVG/1.1/DTD/svg11.dtd" >
<svg xmlns="http://www.w3.org/2000/svg" xmlns:xlink="http://www.w3.org/1999/xlink" version="1.1" viewBox="-10 0 619 1000">
  <g transform="matrix(1 0 0 -1 0 800)">
   <path fill="currentColor"
d="M95 -14q-30 0 -49.5 17.5t-29.5 46t-10 60.5t13 75t35 87t50 81.5t59.5 60.5t62.5 23q9 0 26 -6t31 -15.5t14 -18.5q0 -11 -1.5 -19t-6.5 -11q-20 -10 -50 -30.5t-62.5 -46t-61 -52.5t-46.5 -51t-18 -41q0 -22 20.5 -33t44.5 -11q35 0 72.5 19t63.5 44q-1 19 -4.5 39
t-3.5 40q0 17 14.5 33.5t38 27t49.5 10.5q19 0 34.5 -15t10.5 -32q-5 -18 -17.5 -42t-28 -47.5t-30.5 -41.5q0 -17 14.5 -28.5t49.5 -11.5q25 0 52 12t50 32t37 45t14 50q0 36 -21 63.5t-44 56.5q-7 10 -13.5 17.5t-6.5 20.5q0 7 14 17t30.5 18t23.5 8q38 0 56 -41t18 -109
q0 -56 -20.5 -109.5t-55 -97t-76.5 -69t-84 -25.5q-34 0 -52.5 17.5t-25.5 39.5t-7 34q0 6 -3.5 6t-10.5 -6q-12 -10 -35 -32t-54.5 -40.5t-69.5 -18.5z" />
  </g>

</svg>
