<?xml version="1.0" standalone="no"?>
<!DOCTYPE svg PUBLIC "-//W3C//DTD SVG 1.1//EN" "http://www.w3.org/Graphics/SVG/1.1/DTD/svg11.dtd" >
<svg xmlns="http://www.w3.org/2000/svg" xmlns:xlink="http://www.w3.org/1999/xlink" version="1.1" viewBox="-28 0 711 1000">
  <g transform="matrix(1 0 0 -1 0 800)">
   <path fill="currentColor"
d="M69 280q-4 0 -6.5 2.5t-1.5 6.5q2 6 6 9.5t9 4.5q23 5 27.5 9t8.5 16l60 198q7 21 -5.5 31.5t-22.5 11.5q-11 2 -8 12q6 16 22 17q38 3 72.5 4t65.5 14q2 1 6.5 3t6.5 2q9 0 7 -7q-1 -6 -5.5 -13.5t-9.5 -24.5l-77 -247q-3 -10 -2 -14.5t21 -11.5q5 -2 7 -4t0 -9
q-1 -4 -3.5 -6.5t-7.5 -2.5q-9 0 -26.5 0.5t-34.5 1t-26 0.5q-13 0 -40 -1.5t-43 -1.5zM7 -19q-16 0 -22 13t4 23l609 636q8 8 22.5 12t27.5 4q16 0 22 -10t-3 -19l-606 -632q-13 -14 -26 -20.5t-28 -6.5zM414 -31q-61 0 -91.5 23t-30.5 55q0 23 19.5 37.5t47.5 26t53 22.5
q7 3 6.5 5t-5.5 7q-15 17 -32 40t-17 45q0 34 22.5 54t56.5 29.5t67 9.5q49 0 82 -22.5t33 -52.5q0 -22 -17.5 -37.5t-39.5 -22.5q-10 -3 -19 -6.5t-17 -6.5q-9 -3 -8 -6.5t5 -7.5q22 -15 37.5 -39.5t15.5 -48.5q0 -33 -26.5 -56.5t-65.5 -35.5t-76 -12zM418 -6
q25 0 43 21.5t18 41.5q0 15 -9.5 30.5t-23.5 25.5q-7 5 -10.5 4.5t-7.5 -2.5q-22 -13 -32.5 -29t-10.5 -40q0 -15 7.5 -33.5t25.5 -18.5zM497 189q21 12 32 29.5t11 33.5q0 14 -7.5 25t-22.5 11q-22 0 -37.5 -11t-15.5 -36q0 -15 10 -27t23 -24q6 -1 7 -1z" />
  </g>

</svg>
