<?xml version="1.0" standalone="no"?>
<!DOCTYPE svg PUBLIC "-//W3C//DTD SVG 1.1//EN" "http://www.w3.org/Graphics/SVG/1.1/DTD/svg11.dtd" >
<svg xmlns="http://www.w3.org/2000/svg" xmlns:xlink="http://www.w3.org/1999/xlink" version="1.1" viewBox="-10 0 1408 1000">
  <g transform="matrix(1 0 0 -1 0 800)">
   <path fill="currentColor"
d="M1084 -317q-139 0 -264 28.5t-236 62.5q-74 23 -141.5 43.5t-129 34t-116.5 13.5q-36 0 -61 -3.5t-45 -8.5q-19 -4 -34 -8t-31 -4q-7 0 -13.5 7t-6.5 14q0 9 7 18t20 17q20 14 49 27.5t62.5 28t64.5 30.5q5 2 1 5t-9 4q-88 18 -137.5 70.5t-49.5 127.5q0 53 23 101
t64.5 85.5t98 59t123.5 21.5q61 0 111 -26.5t80 -73t30 -106.5q0 -69 -33 -119.5t-84.5 -85.5t-106.5 -60q-33 -15 -65 -27t-58 -23q11 2 26.5 5.5t34.5 3.5q88 0 172 -12.5t164 -32.5t155 -43q90 -27 172 -53t156 -43.5t139 -17.5q31 0 52.5 10t33 27t11.5 38
q0 23 -6.5 32.5t-17.5 22.5q-9 11 -17.5 21.5t-8.5 23.5q0 26 18.5 37t37.5 11q29 0 49 -23t20 -70q0 -69 -37.5 -110.5t-105.5 -60.5t-161 -19zM232 17q34 0 64.5 27.5t54 71t37 92t13.5 90.5q0 34 -9 64t-26.5 48.5t-42.5 18.5q-34 0 -64 -28.5t-53 -73.5t-36 -94.5
t-13 -91.5q0 -33 8.5 -61t25.5 -45.5t41 -17.5z" />
  </g>

</svg>
