<?xml version="1.0" standalone="no"?>
<!DOCTYPE svg PUBLIC "-//W3C//DTD SVG 1.1//EN" "http://www.w3.org/Graphics/SVG/1.1/DTD/svg11.dtd" >
<svg xmlns="http://www.w3.org/2000/svg" xmlns:xlink="http://www.w3.org/1999/xlink" version="1.1" viewBox="-36 0 496 1000">
  <g transform="matrix(1 0 0 -1 0 800)">
   <path fill="currentColor"
d="M155 -13q-29 0 -53 2.5t-45 11.5q-10 4 -18 6.5t-10 2.5q-4 0 -9 -2l-10 -4q-4 -3 -9 -5.5t-10 -2.5q-4 0 -10.5 5.5t-6.5 9.5q0 6 8.5 23t18.5 40.5t13 48.5q2 13 7 18t14 5q10 0 12.5 -11t2.5 -34q0 -31 23 -54.5t69 -23.5q31 0 48.5 17t17.5 39q0 17 -10 36.5
t-42 48.5q-31 29 -49 48.5t-25.5 37.5t-7.5 41q0 63 51.5 105t139.5 42q32 0 53.5 -4.5t37.5 -9.5q15 -4 24 -6t18 -2q5 0 10 1l10 2q5 3 11 5.5t11 2.5q8 0 9.5 -5t-3.5 -11q-14 -17 -30.5 -50.5t-24.5 -58.5q-2 -7 -6 -11t-12 -4q-7 0 -9.5 6.5t-4.5 22.5q-4 43 -26 64.5
t-62 21.5q-31 0 -48.5 -15.5t-17.5 -32.5t10 -37t47 -52q42 -37 62 -63.5t20 -64.5t-22.5 -72.5t-64.5 -56t-102 -21.5z" />
  </g>

</svg>
