<?xml version="1.0" standalone="no"?>
<!DOCTYPE svg PUBLIC "-//W3C//DTD SVG 1.1//EN" "http://www.w3.org/Graphics/SVG/1.1/DTD/svg11.dtd" >
<svg xmlns="http://www.w3.org/2000/svg" xmlns:xlink="http://www.w3.org/1999/xlink" version="1.1" viewBox="-88 0 448 1000">
  <g transform="matrix(1 0 0 -1 0 800)">
   <path fill="currentColor"
d="M79 -14q-47 0 -75 20.5t-28 54.5q0 26 11.5 45t33.5 19q8 0 18.5 -10.5t23.5 -24.5q15 -15 34 -33t38 -18q14 0 19.5 7.5t6.5 22.5q1 14 -15.5 38.5t-33.5 46.5q-19 26 -33.5 57t-14.5 62q0 26 19 54t48 53.5t58 41t48 15.5q28 0 53.5 -11.5t42.5 -27.5t17 -29
q0 -12 -11 -29t-25.5 -29.5t-27.5 -12.5t-24 10.5t-19 21.5q-10 15 -24.5 25.5t-28.5 10.5q-13 0 -20 -9t-7 -18q0 -8 9 -20.5t22 -27.5t26 -32q33 -41 46.5 -65.5t13.5 -49.5q0 -19 -17 -45.5t-45.5 -52.5t-64.5 -43t-74 -17zM15 -281q-25 0 -46.5 10.5t-34 26t-12.5 29.5
q0 39 31 39q15 0 28.5 -8t26.5 -19q15 -12 24 -20t22 -8q9 0 13.5 5.5t4.5 13.5q0 14 -10 22.5t-22 20.5q-12 11 -24.5 27t-12.5 29q0 17 20.5 41t50.5 48t59 41h41q-37 -26 -50.5 -43t-13.5 -31q0 -10 10.5 -21t22.5 -22q14 -13 23 -25t9 -25q0 -16 -15.5 -38t-39.5 -43.5
t-52 -35.5t-53 -14z" />
  </g>

</svg>
