<?xml version="1.0" standalone="no"?>
<!DOCTYPE svg PUBLIC "-//W3C//DTD SVG 1.1//EN" "http://www.w3.org/Graphics/SVG/1.1/DTD/svg11.dtd" >
<svg xmlns="http://www.w3.org/2000/svg" xmlns:xlink="http://www.w3.org/1999/xlink" version="1.1" viewBox="-34 0 432 1000">
  <g transform="matrix(1 0 0 -1 0 800)">
   <path fill="currentColor"
d="M79 -14q-47 0 -75 20.5t-28 54.5q0 26 11.5 45t33.5 19q8 0 18.5 -10.5t23.5 -24.5q15 -15 34 -33t38 -18q14 0 19.5 7.5t6.5 22.5q1 14 -15.5 38.5t-33.5 46.5q-19 26 -33.5 57t-14.5 62q0 26 19 54t48 53.5t58 41t48 15.5q28 0 53.5 -11.5t42.5 -27.5t17 -29
q0 -12 -11 -29t-25.5 -29.5t-27.5 -12.5t-24 10.5t-19 21.5q-10 15 -24.5 25.5t-28.5 10.5q-13 0 -20 -9t-7 -18q0 -8 9 -20.5t22 -27.5t26 -32q33 -41 46.5 -65.5t13.5 -49.5q0 -19 -17 -45.5t-45.5 -52.5t-64.5 -43t-74 -17zM323 698q10 0 15 -10.5t11 -32.5
q4 -17 9.5 -33.5t10.5 -33t9.5 -33t7.5 -33.5q4 -18 -1 -31.5t-21 -13.5t-32 35q-6 13 -15.5 30t-22.5 37q-4 6 -12 0q-23 -20 -45 -38t-36 -30q-20 -17 -33 -25.5t-20 -8.5q-11 0 -11 13q0 6 3.5 14t11.5 18q19 22 39 44.5l40 45t40 45.5q17 19 29 30t23 11z" />
  </g>

</svg>
