<?xml version="1.0" standalone="no"?>
<!DOCTYPE svg PUBLIC "-//W3C//DTD SVG 1.1//EN" "http://www.w3.org/Graphics/SVG/1.1/DTD/svg11.dtd" >
<svg xmlns="http://www.w3.org/2000/svg" xmlns:xlink="http://www.w3.org/1999/xlink" version="1.1" viewBox="-10 0 580 1000">
  <g transform="matrix(1 0 0 -1 0 800)">
   <path fill="currentColor"
d="M131 -14q-21 0 -49 19t-48.5 49.5t-20.5 64.5q0 52 18.5 107.5t51.5 103.5t76 77.5t92 29.5q12 0 34.5 -1.5t47.5 -3t48 -2.5t37 -1q40 1 61.5 7.5t31.5 14.5q9 7 14.5 12t11.5 5q15 0 20.5 -11.5t-2.5 -43.5q-6 -24 -16.5 -44t-26 -35.5t-35.5 -24t-43 -8.5
q-6 0 -14.5 0.5t-17.5 0.5t-18 0.5t-15 0.5q-8 0 -8 -9q-1 -11 6.5 -22t7.5 -25q0 -20 -10.5 -52.5t-31 -68.5t-50.5 -68t-68 -52t-84 -20zM113 108q37 0 74 14.5t68 38t49.5 51.5t18.5 56q0 31 -14.5 42t-46.5 11q-37 0 -72 -16.5t-63 -42t-44.5 -52.5t-16.5 -48
q0 -23 10 -38.5t37 -15.5z" />
  </g>

</svg>
