<?xml version="1.0" standalone="no"?>
<!DOCTYPE svg PUBLIC "-//W3C//DTD SVG 1.1//EN" "http://www.w3.org/Graphics/SVG/1.1/DTD/svg11.dtd" >
<svg xmlns="http://www.w3.org/2000/svg" xmlns:xlink="http://www.w3.org/1999/xlink" version="1.1" viewBox="-10 0 626 1000">
  <g transform="matrix(1 0 0 -1 0 800)">
   <path fill="currentColor"
d="M211 -14q-98 0 -141.5 53.5t-43.5 135.5q0 66 32 132.5t86 126.5t122.5 108t142.5 79.5t144 39.5q20 2 36.5 0.5t16.5 -10.5q0 -10 -5 -15.5t-27 -10.5q-51 -12 -107 -47.5t-109 -85.5t-96 -109t-68.5 -119t-25.5 -114q0 -59 16 -90t57 -31q31 0 55 19t38.5 55.5
t13.5 90.5q-1 38 -21.5 58t-43.5 20q-10 0 -17.5 -2t-15.5 -5q-24 -10 -24.5 0.5t15.5 27.5q17 19 38.5 32.5t44 21t41.5 7.5q53 0 86.5 -33t33.5 -91q0 -34 -17.5 -76t-52.5 -80.5t-86 -63t-118 -24.5z" />
  </g>

</svg>
