<?xml version="1.0" standalone="no"?>
<!DOCTYPE svg PUBLIC "-//W3C//DTD SVG 1.1//EN" "http://www.w3.org/Graphics/SVG/1.1/DTD/svg11.dtd" >
<svg xmlns="http://www.w3.org/2000/svg" xmlns:xlink="http://www.w3.org/1999/xlink" version="1.1" viewBox="-10 0 431 1000">
  <g transform="matrix(1 0 0 -1 0 800)">
   <path fill="currentColor"
d="M186 273q-45 0 -73 27.5t-28 72.5q0 32 22 71.5t60.5 77.5t90 66t109.5 37q11 2 27.5 0.5t16.5 -8.5q0 -10 -7 -15.5t-25 -7.5q-40 -5 -78.5 -28.5t-69.5 -58t-49 -73.5t-18 -76q0 -25 13 -39.5t24 -14.5q23 0 40.5 13.5t28 35.5t10.5 47q0 14 -6 26t-21 12q-4 0 -9 -2
l-10 -4q-4 -1 -7 -1.5t-6 -0.5q-8 0 -9 6q0 2 1 4.5t2 4.5q21 26 51 40t53 12q22 -1 37 -15t15 -44q0 -31 -16 -60.5t-42.5 -53t-59.5 -37.5t-67 -14z" />
  </g>

</svg>
