<?xml version="1.0" standalone="no"?>
<!DOCTYPE svg PUBLIC "-//W3C//DTD SVG 1.1//EN" "http://www.w3.org/Graphics/SVG/1.1/DTD/svg11.dtd" >
<svg xmlns="http://www.w3.org/2000/svg" xmlns:xlink="http://www.w3.org/1999/xlink" version="1.1" viewBox="-10 0 560 1000">
  <g transform="matrix(1 0 0 -1 0 800)">
   <path fill="currentColor"
d="M199 -14q-31 0 -48.5 23t-2.5 69q8 24 20 51t26 54.5t28.5 52t26.5 42.5q6 10 3.5 17.5t-12.5 8.5l-75 3q-35 2 -56 -9.5t-41 -55.5q-3 -7 -8.5 -11t-13.5 -4t-12.5 10t-4.5 23q0 57 27 96t74 59.5t107 20.5q26 0 59 -1.5t65.5 -3.5t55.5 -2q24 0 43 4.5t28 11.5
q11 8 17 15.5t13 7.5q11 0 16.5 -5t5.5 -20q0 -20 -10.5 -45.5t-29 -49.5t-42.5 -40t-51 -16q-20 0 -36.5 1t-28.5 2t-19 1q-23 0 -35 -23q-7 -13 -13.5 -28.5t-12.5 -31t-10.5 -30t-6.5 -25.5q-4 -25 2.5 -35t20.5 -10q11 0 26.5 10.5t22.5 17.5t14.5 13.5t8.5 6.5
q19 0 19 -23q0 -13 -15.5 -38t-39.5 -51.5t-52 -44.5t-53 -18z" />
  </g>

</svg>
