<?xml version="1.0" standalone="no"?>
<!DOCTYPE svg PUBLIC "-//W3C//DTD SVG 1.1//EN" "http://www.w3.org/Graphics/SVG/1.1/DTD/svg11.dtd" >
<svg xmlns="http://www.w3.org/2000/svg" xmlns:xlink="http://www.w3.org/1999/xlink" version="1.1" viewBox="-10 0 611 1000">
  <g transform="matrix(1 0 0 -1 0 800)">
   <path fill="currentColor"
d="M94 -1q-6 0 -10.5 4.5t-3.5 9.5q3 9 9.5 13t13.5 5q30 6 40.5 11.5t15.5 23.5l97 317q5 14 0 20t-13 6h-13q-15 0 -32 -10t-34 -25t-33 -31q-6 -6 -16.5 -17t-22 -19.5t-20.5 -8.5q-4 0 -9 3.5t-4 9.5q2 9 13 23t27 40t31 70q4 11 11.5 16t17.5 5q4 0 11.5 -2.5
t17.5 -6.5q11 -4 25 -7.5t27 -3.5h224q24 0 44.5 4.5t36.5 8.5q14 4 22.5 7t12.5 3q8 0 9.5 -5t-0.5 -12q-13 -38 -18 -67.5t-12 -53.5q-1 -5 -9.5 -18.5t-19.5 -12.5q-8 0 -13 5t-4 21q1 25 -4 44t-13.5 29.5t-18.5 10.5h-16q-13 0 -24.5 -9t-14.5 -19l-96 -315
q-4 -14 3.5 -22.5t29.5 -13.5q5 -1 9 -5t1 -12q-1 -6 -7.5 -9.5t-13.5 -3.5q-13 0 -39.5 0.5t-52.5 1t-39 0.5q-12 0 -36 -0.5t-48 -1.5t-39 -1zM383 535q-10 0 -15 10.5t-11 32.5q-4 17 -9.5 33.5t-10.5 33t-9.5 33t-7.5 33.5q-4 18 1 31.5t21 13.5t32 -35q6 -13 15.5 -30
t22.5 -37q4 -6 12 0q23 20 45 38t36 30q20 17 33 25.5t20 8.5q11 0 11 -13q0 -6 -3.5 -14t-11.5 -18q-19 -22 -39 -44.5l-40 -45t-40 -45.5q-17 -19 -29 -30t-23 -11z" />
  </g>

</svg>
