<?xml version="1.0" standalone="no"?>
<!DOCTYPE svg PUBLIC "-//W3C//DTD SVG 1.1//EN" "http://www.w3.org/Graphics/SVG/1.1/DTD/svg11.dtd" >
<svg xmlns="http://www.w3.org/2000/svg" xmlns:xlink="http://www.w3.org/1999/xlink" version="1.1" viewBox="-10 0 632 1000">
  <g transform="matrix(1 0 0 -1 0 800)">
   <path fill="currentColor"
d="M100 -14q-17 0 -32 11t-24.5 26.5t-9.5 27.5q0 5 1.5 12.5t8.5 25.5l94 249q7 19 2 25t-13 6l-50 2q-18 1 -22 8t-4 13q0 2 7 11t19 17t25 8h51q16 0 21 5t14 22l29 57q9 17 23 32t30 25t29 10q18 0 23.5 -16t0.5 -33l-23 -79q-4 -16 0 -20.5t15 -4.5q12 0 26.5 -1.5
t33.5 -3.5q24 -3 28.5 -8.5t4.5 -13.5q0 -3 -6 -10.5t-23 -9.5q-11 -1 -23.5 -2.5t-30.5 -2.5q-19 -1 -29 -5t-15 -16l-71 -198q-8 -23 -8 -33.5t4.5 -12.5t8.5 -2q12 0 31.5 14t40 32t33.5 31l2 2t2 1q6 0 10 -5t4 -11q0 -15 -15.5 -38t-41.5 -48.5t-57.5 -48t-63.5 -36.5
t-60 -14zM443 483q-8 0 -8 10q0 5 3 10t7 12q14 30 23.5 65.5t18.5 87.5q3 15 22 33t44 31t44 13q10 0 12.5 -10.5t2.5 -18.5q0 -27 -15 -58.5t-37.5 -62.5t-46.5 -56.5t-43.5 -40.5t-26.5 -15z" />
  </g>

</svg>
