<?xml version="1.0" standalone="no"?>
<!DOCTYPE svg PUBLIC "-//W3C//DTD SVG 1.1//EN" "http://www.w3.org/Graphics/SVG/1.1/DTD/svg11.dtd" >
<svg xmlns="http://www.w3.org/2000/svg" xmlns:xlink="http://www.w3.org/1999/xlink" version="1.1" viewBox="-41 0 534 1000">
  <g transform="matrix(1 0 0 -1 0 800)">
   <path fill="currentColor"
d="M74 -38q-50 0 -77.5 12.5t-27.5 34.5q0 24 10 39t26 15q6 0 17 -5.5t24 -13.5q17 -10 37 -18t39 -8q43 0 74.5 29t49.5 73.5t18 90.5q0 32 -14.5 53.5t-47.5 21.5q-28 0 -46 -10t-26 -13q-10 -4 -18 -0.5t-8 13.5q0 14 11.5 24.5t27.5 19t27 14.5q30 15 59 32.5
t53.5 36.5t39 41.5t14.5 47.5t-15 46t-44 21q-39 0 -66.5 -26t-44.5 -52q-5 -8 -11.5 -11.5t-9.5 -3.5q-7 0 -14.5 11.5t-7.5 21.5q0 7 13.5 27.5t41 44.5t68.5 41t95 17q48 0 79.5 -16t47 -40.5t15.5 -51.5q0 -28 -18 -53t-46.5 -46.5t-62 -38t-64.5 -28.5q-4 -1 -4.5 -3.5
t3.5 -2.5q36 0 69 -15.5t53.5 -42t20.5 -60.5q0 -38 -23.5 -75t-62.5 -69.5t-87 -60.5q-46 -26 -93 -45t-94 -19z" />
  </g>

</svg>
