<?xml version="1.0" standalone="no"?>
<!DOCTYPE svg PUBLIC "-//W3C//DTD SVG 1.1//EN" "http://www.w3.org/Graphics/SVG/1.1/DTD/svg11.dtd" >
<svg xmlns="http://www.w3.org/2000/svg" xmlns:xlink="http://www.w3.org/1999/xlink" version="1.1" viewBox="-46 0 529 1000">
  <g transform="matrix(1 0 0 -1 0 800)">
   <path fill="currentColor"
d="M-17 -5q-6 0 -12.5 6.5t-6.5 9.5q0 8 12 15q19 11 41.5 29t62.5 41q31 18 55 36.5t41.5 37.5t29 38t17 37t4.5 35q-1 29 -21.5 45t-44.5 16q-19 0 -39 -8.5t-39 -24.5q-7 -6 -12.5 -9t-13.5 -3q-9 0 -9 11q0 21 20 43.5t53 42.5t71.5 32t75.5 12q47 0 77.5 -14t45.5 -37
t15 -50q0 -28 -13.5 -52t-34.5 -43.5t-45 -34.5q-21 -13 -42 -25t-41.5 -23.5t-38.5 -21t-32 -17.5q-7 -4 -4.5 -6t9.5 -2h147q31 0 55 16.5t47 47.5q5 7 15.5 14.5t20.5 7.5q8 0 12.5 -7.5t-0.5 -15.5q-20 -30 -41 -64t-35.5 -59t-17.5 -32q-4 -10 -10.5 -16t-17.5 -6
q-6 0 -29 0.5t-55.5 1t-66.5 1t-60 0.5q-34 0 -66 -1t-54 -2.5t-25 -1.5z" />
  </g>

</svg>
