<?xml version="1.0" standalone="no"?>
<!DOCTYPE svg PUBLIC "-//W3C//DTD SVG 1.1//EN" "http://www.w3.org/Graphics/SVG/1.1/DTD/svg11.dtd" >
<svg xmlns="http://www.w3.org/2000/svg" xmlns:xlink="http://www.w3.org/1999/xlink" version="1.1" viewBox="-32 0 587 1000">
  <g transform="matrix(1 0 0 -1 0 800)">
   <path fill="currentColor"
d="M392 -4q-6 0 -22 0.5t-39 1.5t-49.5 1.5t-52.5 0.5q-25 0 -65 -0.5l-80 -1t-68.5 -1t-30.5 -0.5q-10 0 -4 8t11 13l225 184q68 56 104.5 98.5t51 78.5t14.5 70q0 48 -25.5 68t-57.5 20q-40 0 -68 -19.5t-52 -43.5q-7 -7 -13 -15t-11 -8t-8 4.5t-3 14.5q0 25 18 53.5
t50 54t73 41.5t87 15q78 -1 123 -37t45 -90q0 -39 -17 -74t-46 -67t-65 -64q-15 -13 -44 -35t-62.5 -47t-64.5 -48t-51 -38t-21 -17t3.5 -3.5t9.5 -2.5q19 -3 40 -3.5t41 -0.5q21 0 48.5 1t47.5 3q22 3 41 10t36 20.5t32 33.5q5 7 15.5 14t20.5 7q8 0 9 -7t-4 -15
q-16 -22 -31.5 -47.5t-29 -48.5t-22.5 -39t-11 -21q-4 -10 -15 -16t-13 -6z" />
  </g>

</svg>
