<?xml version="1.0" standalone="no"?>
<!DOCTYPE svg PUBLIC "-//W3C//DTD SVG 1.1//EN" "http://www.w3.org/Graphics/SVG/1.1/DTD/svg11.dtd" >
<svg xmlns="http://www.w3.org/2000/svg" xmlns:xlink="http://www.w3.org/1999/xlink" version="1.1" viewBox="-10 0 542 1000">
  <g transform="matrix(1 0 0 -1 0 800)">
   <path fill="currentColor"
d="M70 -34q-28 0 -48 21t-20 48q0 28 14.5 52t38 39t51.5 15q35 0 53.5 -24.5t18.5 -50.5t-14.5 -49t-39 -37t-54.5 -14zM322 -34q-28 0 -48 21t-20 48q0 28 14.5 52t38 39t51.5 15q35 0 53.5 -24.5t18.5 -50.5t-14.5 -49t-39 -37t-54.5 -14z" />
  </g>

</svg>
