<?xml version="1.0" standalone="no"?>
<!DOCTYPE svg PUBLIC "-//W3C//DTD SVG 1.1//EN" "http://www.w3.org/Graphics/SVG/1.1/DTD/svg11.dtd" >
<svg xmlns="http://www.w3.org/2000/svg" xmlns:xlink="http://www.w3.org/1999/xlink" version="1.1" viewBox="-10 0 1058 1000">
  <g transform="matrix(1 0 0 -1 0 800)">
   <path fill="currentColor"
d="M80 506h41v-104h-41v104zM80 349h41v-104h-41v104zM80 193h41v-104h-41v104zM80 36h41v-104h-41v104zM856 -184h71v64h41v-105h-112v41zM243 622v41h103v-41h-103zM399 622v41h103v-41h-103zM554 622v41h103v-41h-103zM710 622v41h103v-41h-103zM968 -68h-41v104h41v-104
zM968 89h-41v104h41v-104zM968 245h-41v104h41v-104zM968 402h-41v104h41v-104zM807 -184v-41h-102v41h102zM653 -184v-41h-102v41h102zM499 -184v-41h-101v41h101zM345 -184v-41h-102v41h102zM191 -225h-111v105h41v-64h70v-41zM927 559v63h-71v41h112v-104h-41zM80 559
v104h112v-41h-71v-63h-41zM380 -2q-6 0 -9 6.5t-3 19.5q-1 64 -0.5 129.5t-1.5 129.5q0 7 -2 10t-4 3q-7 0 -14 -15q-19 -46 -41.5 -93.5t-42.5 -92.5q-12 -23 -10.5 -43t24.5 -20q10 0 13 -4t3 -11q0 -6 -10.5 -11.5t-15.5 -5.5q-30 0 -42.5 1.5t-32.5 1.5q-27 0 -52 -2
t-31 -2q-4 0 -7 2t-3 6q0 12 10.5 15.5t14.5 4.5q19 3 39 15t42 48q40 71 77.5 139.5t71.5 143.5q11 26 3 36.5t-30 16.5q-8 2 -12.5 5.5t-1.5 10.5t9 10.5t13 3.5q28 0 63.5 -0.5t79.5 -0.5q12 0 16.5 -6.5t5.5 -20.5q3 -57 6.5 -114.5t6.5 -114.5q0 -4 0.5 -5.5t2.5 -1.5
t4.5 1.5t5.5 4.5q50 60 99 119.5t99 119.5q5 5 9 7t9 2h31q33 2 60.5 7t51.5 5q11 0 18 -4.5t7 -12.5q0 -7 -9.5 -12t-20.5 -7q-25 -5 -41.5 -15t-26.5 -45q-17 -73 -34 -145.5t-34 -145.5q-3 -16 3.5 -25.5t23.5 -13.5q3 -1 6.5 -3.5t3.5 -7.5q0 -8 -9 -14.5t-17 -6.5
q-13 0 -37.5 0.5t-49.5 1t-38 0.5q-14 0 -37.5 -0.5t-47 -1.5t-36.5 -1q-6 0 -10 4t-2 9q3 8 11.5 13t14.5 6q23 3 42 12.5t24 31.5q11 44 21.5 89t20.5 89q2 8 -0.5 8.5t-9.5 -7.5q-49 -56 -98.5 -112t-98.5 -112q-17 -19 -27.5 -25.5t-15.5 -6.5z" />
  </g>

</svg>
