<?xml version="1.0" standalone="no"?>
<!DOCTYPE svg PUBLIC "-//W3C//DTD SVG 1.1//EN" "http://www.w3.org/Graphics/SVG/1.1/DTD/svg11.dtd" >
<svg xmlns="http://www.w3.org/2000/svg" xmlns:xlink="http://www.w3.org/1999/xlink" version="1.1" viewBox="-10 0 1058 1000">
  <g transform="matrix(1 0 0 -1 0 800)">
   <path fill="currentColor"
d="M80 506h41v-104h-41v104zM80 349h41v-104h-41v104zM80 193h41v-104h-41v104zM80 36h41v-104h-41v104zM856 -184h71v64h41v-105h-112v41zM243 622v41h103v-41h-103zM399 622v41h103v-41h-103zM554 622v41h103v-41h-103zM710 622v41h103v-41h-103zM968 -68h-41v104h41v-104
zM968 89h-41v104h41v-104zM968 245h-41v104h41v-104zM968 402h-41v104h41v-104zM807 -184v-41h-102v41h102zM653 -184v-41h-102v41h102zM499 -184v-41h-101v41h101zM345 -184v-41h-102v41h102zM191 -225h-111v105h41v-64h70v-41zM927 559v63h-71v41h112v-104h-41zM80 559
v104h112v-41h-71v-63h-41zM493 -14q-54 0 -100 26t-74 69.5t-28 98.5q0 62 28.5 112.5t77.5 88t111 57.5t129 20q26 0 45.5 -4.5t34.5 -9.5q14 -4 22 -6.5t17 -2.5q5 0 9.5 1t8.5 3q6 3 11.5 5.5t10.5 2.5q10 0 10 -6t-3 -11q-9 -12 -19.5 -32t-20 -42t-15.5 -40
q-2 -7 -8.5 -13.5t-14.5 -6.5q-7 0 -10.5 7t-2.5 23q1 17 -1.5 33t-10.5 28q-10 15 -25.5 26.5t-34.5 11.5q-43 0 -77 -26t-57.5 -67t-36 -88t-12.5 -90q0 -44 15 -72t39 -41t50 -13q24 0 45 11t39.5 31t33.5 47q5 8 9 14t9 6q7 0 12 -7t3 -15q-5 -18 -13 -39.5t-17.5 -41
t-18 -32.5t-13.5 -13q-7 0 -10.5 3t-8.5 5q-4 3 -10 4.5t-18 1.5q-8 0 -18.5 -2.5t-23.5 -5.5q-12 -3 -29 -6t-39 -3z" />
  </g>

</svg>
