<?xml version="1.0" standalone="no"?>
<!DOCTYPE svg PUBLIC "-//W3C//DTD SVG 1.1//EN" "http://www.w3.org/Graphics/SVG/1.1/DTD/svg11.dtd" >
<svg xmlns="http://www.w3.org/2000/svg" xmlns:xlink="http://www.w3.org/1999/xlink" version="1.1" viewBox="-163 0 772 1000">
  <g transform="matrix(1 0 0 -1 0 800)">
   <path fill="currentColor"
d="M441 -235q11 0 16 -5.5t5 -12.5q0 -13 -13.5 -28t-27.5 -15h-561q-7 0 -10 5t-3 9q0 6 5.5 17.5t14.5 20.5t19 9h555zM475 -127q11 0 16 -5.5t5 -12.5q0 -13 -13.5 -28t-27.5 -15h-561q-7 0 -10 5t-3 9q0 6 5.5 17.5t14.5 20.5t19 9h555z" />
  </g>

</svg>
