<?xml version="1.0" standalone="no"?>
<!DOCTYPE svg PUBLIC "-//W3C//DTD SVG 1.1//EN" "http://www.w3.org/Graphics/SVG/1.1/DTD/svg11.dtd" >
<svg xmlns="http://www.w3.org/2000/svg" xmlns:xlink="http://www.w3.org/1999/xlink" version="1.1" viewBox="-11 0 551 1000">
  <g transform="matrix(1 0 0 -1 0 800)">
   <path fill="currentColor"
d="M17 -213q-10 0 -14 14.5t-3 36.5t7 43q5 16 16 24t35 8h350q23 0 31 -4.5t4 -16.5q-6 -19 -27 -30t-44 -11h-194q-44 0 -68.5 -8.5t-48.5 -29.5q-15 -13 -23.5 -19.5t-20.5 -6.5zM108 -288q-4 -1 -7 4t-2 10q1 8 6.5 12t13.5 6q33 9 47 17.5t23 33.5q16 43 36 100
t41.5 119t43.5 121q3 8 -1.5 8t-9.5 -6q-44 -58 -77 -91t-62.5 -46.5t-62.5 -13.5q-38 0 -64 29t-26 74q0 44 17.5 88t48 86.5t67.5 80.5q44 44 95 72t97 28q15 0 31.5 -7.5t25.5 -20.5q7 -9 12.5 -13.5t10.5 -3.5q8 0 18 13l8 12q18 26 35.5 35.5t33.5 9.5q17 0 22 -26
t-15 -88l-186 -553q-7 -22 3.5 -33.5t29.5 -14.5t26.5 -7.5t7.5 -11.5q0 -5 -6.5 -8.5t-15.5 -3.5q-55 0 -104.5 -1.5t-90.5 -4t-70 -5.5zM177 68q13 0 29.5 12t34 33t36 46.5t36.5 52.5q27 41 47.5 72.5t20.5 51.5q0 11 -6.5 24t-17 23t-22.5 10q-20 0 -44 -23t-48 -59.5
t-44.5 -77.5t-32.5 -77.5t-12 -59.5q0 -12 5 -20t18 -8z" />
  </g>

</svg>
