<?xml version="1.0" standalone="no"?>
<!DOCTYPE svg PUBLIC "-//W3C//DTD SVG 1.1//EN" "http://www.w3.org/Graphics/SVG/1.1/DTD/svg11.dtd" >
<svg xmlns="http://www.w3.org/2000/svg" xmlns:xlink="http://www.w3.org/1999/xlink" version="1.1" viewBox="-10 0 509 1000">
  <g transform="matrix(1 0 0 -1 0 800)">
   <path fill="currentColor"
d="M232 -190q-61 0 -97.5 29t-36.5 76q0 17 6.5 42t27 51.5t62.5 47.5q4 2 4.5 4.5t-4.5 3.5q-47 6 -74 25.5t-38 45t-11 47.5q0 43 16.5 76.5t42.5 58.5t56.5 43t57.5 31q37 17 63 24.5t47 7.5q39 0 67 -8.5t43 -25t15 -40.5q0 -13 -6.5 -24t-17 -17.5t-22.5 -6.5
q-8 0 -15.5 7.5t-15.5 18.5q-13 14 -32 27.5t-47 13.5q-35 0 -60.5 -21t-39 -56.5t-13.5 -78.5q0 -16 4.5 -36.5t21 -36t50.5 -15.5q25 0 43.5 12.5t20.5 12.5q6 0 16 -7.5t10 -17.5q0 -8 -16 -21.5t-29 -21.5q-18 -11 -30.5 -20.5t-36.5 -28.5q-15 -12 -28 -34t-13 -57
q0 -28 17.5 -43.5t50.5 -15.5q27 0 49.5 13t40.5 32q3 4 9.5 7.5t13.5 3.5q6 0 9.5 -7t3.5 -17q0 -9 -15 -26t-40.5 -35t-59 -30.5t-70.5 -12.5z" />
  </g>

</svg>
