<?xml version="1.0" standalone="no"?>
<!DOCTYPE svg PUBLIC "-//W3C//DTD SVG 1.1//EN" "http://www.w3.org/Graphics/SVG/1.1/DTD/svg11.dtd" >
<svg xmlns="http://www.w3.org/2000/svg" xmlns:xlink="http://www.w3.org/1999/xlink" version="1.1" viewBox="-212 0 875 1000">
  <g transform="matrix(1 0 0 -1 0 800)">
   <path fill="currentColor"
d="M-58 -291q-78 0 -111 26.5t-33 55.5q0 27 17 43.5t37 16.5q10 0 22 -16t22 -31q11 -16 22.5 -31t30.5 -15q14 0 25 13t20.5 35.5t17.5 50.5l136 490q4 18 -14 18l-59 -1q-11 0 -15 4.5t-4 14.5q0 8 9.5 21.5t27.5 14.5l61 3q7 0 11 13l8 24q25 67 60.5 114t77 76
t84.5 42.5t83 13.5q51 0 87 -21.5t36 -54.5q0 -26 -12.5 -50t-34.5 -24q-19 0 -26.5 18t-17.5 38t-23.5 35.5t-40.5 15.5q-24 0 -44 -18.5t-36 -47t-27 -59.5t-16 -55l-9 -44q-1 -10 4.5 -13t12.5 -3q13 0 44 0.5t68 1t68 1t44 0.5q11 0 11 -15q0 -5 -5 -15t-11 -18t-10 -8
l-208 -3q-19 0 -28 -6t-13 -20q-29 -106 -59.5 -214t-60.5 -215q-9 -34 -35 -69.5t-60.5 -65.5t-69.5 -48.5t-64 -18.5zM413 -14q-25 0 -45 19.5t-20 38.5q0 5 1 10.5t4 12.5l128 313l-42 43q40 0 67 2.5t43 8.5t32.5 -1.5t26.5 -21t5 -26.5l-110 -274q-1 -3 -1.5 -6.5
t-0.5 -5.5q0 -3 1.5 -5t3.5 -2q7 0 26 11.5t40 27t34 28.5q3 3 4 3q6 0 10 -5t4 -11q0 -18 -22 -45t-55 -53.5t-69 -44t-65 -17.5z" />
  </g>

</svg>
