<?xml version="1.0" standalone="no"?>
<!DOCTYPE svg PUBLIC "-//W3C//DTD SVG 1.1//EN" "http://www.w3.org/Graphics/SVG/1.1/DTD/svg11.dtd" >
<svg xmlns="http://www.w3.org/2000/svg" xmlns:xlink="http://www.w3.org/1999/xlink" version="1.1" viewBox="-240 0 570 1000">
  <g transform="matrix(1 0 0 -1 0 800)">
   <path fill="currentColor"
d="M-131 -290q-55 0 -77 17.5t-21 39.5q2 19 12 32.5t22.5 21.5t20.5 8q17 0 28.5 -12t21.5 -24q9 -11 18.5 -19t23.5 -8q25 0 45.5 35.5t38.5 90.5l120 370q9 29 5.5 38t-11.5 9q-13 0 -24.5 -4.5t-25.5 -10.5q-12 -5 -19.5 -3t-7.5 11t6.5 14.5t16.5 13.5q22 17 54 34
t65 31t60 24.5t38 15.5q14 6 29 -6.5t10 -26.5q-5 -16 -19 -46.5t-26 -67.5l-110 -336q-17 -52 -54.5 -96t-83 -77t-87.5 -51t-69 -18z" />
  </g>

</svg>
