<?xml version="1.0" standalone="no"?>
<!DOCTYPE svg PUBLIC "-//W3C//DTD SVG 1.1//EN" "http://www.w3.org/Graphics/SVG/1.1/DTD/svg11.dtd" >
<svg xmlns="http://www.w3.org/2000/svg" xmlns:xlink="http://www.w3.org/1999/xlink" version="1.1" viewBox="-55 0 744 1000">
  <g transform="matrix(1 0 0 -1 0 800)">
   <path fill="currentColor"
d="M-27 -3q-6 0 -12 4t-6 11q0 9 10.5 14.5t20.5 7.5q41 9 58 20.5t27 42.5l141 454q10 32 -0.5 45.5t-42.5 21.5q-11 3 -17.5 9t-4.5 12q2 7 12.5 11.5t19.5 4.5q22 0 48.5 -1.5t52.5 -3t46 -0.5q16 1 36.5 2.5t44.5 3t51 1.5q71 0 121 -25t75.5 -67.5t23.5 -97.5
q-2 -56 -28.5 -101.5t-70 -77.5t-99.5 -48t-118 -13.5t-124 27.5l17 39q20 -13 54 -18.5t71.5 1.5t71 29.5t55 63.5t21.5 105q0 61 -13.5 91t-35 39.5t-46.5 9.5q-10 0 -18 -4.5t-17 -22t-22 -58.5l-134 -431q-10 -31 6 -43t56 -21q8 -2 15 -6.5t7 -14.5q0 -7 -11.5 -11
t-22.5 -4q-21 0 -53 1t-63 2t-51 1q-30 0 -74.5 -2.5t-77.5 -2.5zM518 168q5 -13 -5.5 -22t-21.5 -9q-17 0 -23 17l-91 241q-4 11 1.5 18t15.5 7q14 0 23.5 -4t14.5 -18z" />
  </g>

</svg>
