<?xml version="1.0" standalone="no"?>
<!DOCTYPE svg PUBLIC "-//W3C//DTD SVG 1.1//EN" "http://www.w3.org/Graphics/SVG/1.1/DTD/svg11.dtd" >
<svg xmlns="http://www.w3.org/2000/svg" xmlns:xlink="http://www.w3.org/1999/xlink" version="1.1" viewBox="-10 0 681 1000">
  <g transform="matrix(1 0 0 -1 0 800)">
   <path fill="currentColor"
d="M96 -14q-30 0 -49.5 17.5t-29.5 46t-10 60.5q0 38 15.5 83t40.5 89.5t54.5 80.5t58.5 55l82 -70q-27 -17 -62 -43t-68 -55.5t-54.5 -57t-21.5 -46.5q0 -22 15.5 -36.5t39.5 -14.5q23 0 50 12.5t52 31t42 34.5q2 22 2.5 41.5t5.5 38.5q7 26 24.5 36t57.5 10q26 0 41 -12
t9 -29q-5 -18 -17.5 -39.5t-27.5 -42.5t-30 -39q0 -21 10.5 -31t27.5 -10q45 0 79 15t56.5 40.5t33.5 57.5t11 67q0 41 -15.5 82t-47 74.5t-78 53.5t-109.5 20q-46 0 -77.5 -14.5t-31.5 -37.5t29.5 -35.5t109.5 -12.5q44 0 78 5t60 13.5t45 18.5q31 16 49.5 33t31 28.5
t23.5 11.5q10 0 24 -10.5t25 -25.5t11 -30q0 -22 -25 -41.5t-64 -35t-82.5 -26.5t-82 -17t-60.5 -6q-86 0 -139 13t-76.5 37.5t-23.5 57.5q0 39 25 65t66 39t89 13q52 0 105 -15.5t97.5 -46.5t72 -78.5t27.5 -111.5q0 -51 -19 -105.5t-51.5 -101t-75 -75.5t-90.5 -29
q-34 0 -54.5 15.5t-29.5 35t-9 31.5q0 8 -4 6.5t-10 -6.5q-12 -10 -33 -30t-50.5 -36t-67.5 -16z" />
  </g>

</svg>
