<?xml version="1.0" standalone="no"?>
<!DOCTYPE svg PUBLIC "-//W3C//DTD SVG 1.1//EN" "http://www.w3.org/Graphics/SVG/1.1/DTD/svg11.dtd" >
<svg xmlns="http://www.w3.org/2000/svg" xmlns:xlink="http://www.w3.org/1999/xlink" version="1.1" viewBox="-10 0 833 1000">
  <g transform="matrix(1 0 0 -1 0 800)">
   <path fill="currentColor"
d="M119 -6q-13 0 -18.5 5t-3.5 12q2 9 13 14.5t22 7.5q41 8 61 27t29 50l42 136q10 30 9.5 54t-8.5 53l-61 201q-7 20 -17 36t-29 23t-26 11.5t-4 14.5q2 8 9.5 11.5t14.5 3.5q47 0 83 -3t81 -3q29 0 61 3.5t69 3.5q8 0 16 -4t6 -11q-2 -9 -13.5 -14.5t-20.5 -7.5
q-49 -11 -62.5 -27.5t-6.5 -47.5l42 -187q4 -15 7 -19t7 -4t9 4t12 13q34 41 71.5 89.5t73.5 92.5q27 32 25.5 55.5t-44.5 30.5q-10 2 -18.5 7.5t-5.5 14.5q2 7 13 10.5t21 3.5q23 0 46.5 -2.5t51.5 -2.5q31 0 56.5 4t55.5 4q11 0 19 -3.5t5 -13.5t-12.5 -13.5t-19.5 -6.5
q-21 -5 -42 -14t-38.5 -21t-29.5 -26q-30 -35 -59 -68l-58 -66t-60 -67q-18 -19 -31.5 -43.5t-23.5 -55.5l-45 -148q-12 -38 -3 -52.5t44 -25.5q11 -3 18.5 -7t4.5 -14q-2 -7 -11 -12t-20 -5q-21 0 -49.5 2t-56.5 4t-48 2t-47.5 -2t-55.5 -4.5t-50 -2.5z" />
  </g>

</svg>
