<?xml version="1.0" standalone="no"?>
<!DOCTYPE svg PUBLIC "-//W3C//DTD SVG 1.1//EN" "http://www.w3.org/Graphics/SVG/1.1/DTD/svg11.dtd" >
<svg xmlns="http://www.w3.org/2000/svg" xmlns:xlink="http://www.w3.org/1999/xlink" version="1.1" viewBox="-46 0 684 1000">
  <g transform="matrix(1 0 0 -1 0 800)">
   <path fill="currentColor"
d="M-25 -1q-6 0 -8.5 4t-1.5 9q4 13 19 16t36.5 16.5t33.5 42.5q8 20 22.5 62.5t33.5 100t40 122.5q2 5 4 11t2 10q0 11 -9 20t-34 14q-8 2 -13 5.5t-4 9.5q2 6 7.5 9t16.5 3q8 0 34 -0.5t58.5 -1.5t59.5 -1q11 0 14.5 -4t7.5 -10l129 -275q2 -2 4 -6t5 -4t5 3.5t3 7.5
l52 205q7 26 -0.5 37.5t-40.5 22.5q-4 2 -10.5 4.5t-3.5 10.5q2 6 8.5 9t11.5 3q28 0 39.5 -0.5t19 -1t23.5 -0.5q13 0 23.5 0.5t22.5 1t28 0.5q18 0 14 -13q-2 -7 -8.5 -10t-13.5 -5q-26 -6 -41.5 -16.5t-23.5 -36.5l-75 -234q-10 -33 -8 -51.5t8 -31.5q3 -7 8.5 -14
t14.5 -15q12 -10 5.5 -19t-18.5 -9h-93q-34 0 -54.5 11t-34.5 45l-107 251q-3 8 -6 12.5t-6 4.5t-6.5 -6.5t-5.5 -14.5l-53 -203q-10 -35 -1.5 -47t40.5 -21q5 -1 10 -5.5t2 -13.5q-2 -6 -8 -9.5t-12 -3.5q-20 0 -33.5 0.5t-25 0.5h-27.5q-22 0 -44 -1t-35 -1zM122 -294
q-24 0 -24 14q0 7 5.5 12.5t18.5 9.5q29 8 49.5 19.5t31.5 26t11 30.5q0 13 -9 20.5t-20 12.5q-14 7 -20.5 17t-6.5 23q0 27 21 43.5t56 16.5q38 0 56.5 -22t18.5 -57q0 -26 -16 -55t-42.5 -54t-60 -41t-69.5 -16z" />
  </g>

</svg>
