<?xml version="1.0" standalone="no"?>
<!DOCTYPE svg PUBLIC "-//W3C//DTD SVG 1.1//EN" "http://www.w3.org/Graphics/SVG/1.1/DTD/svg11.dtd" >
<svg xmlns="http://www.w3.org/2000/svg" xmlns:xlink="http://www.w3.org/1999/xlink" version="1.1" viewBox="-14 0 822 1000">
  <g transform="matrix(1 0 0 -1 0 800)">
   <path fill="currentColor"
d="M79 -14q-36 0 -59.5 25t-23.5 62q0 36 14 78.5t40 88t62 88.5q44 53 86.5 81t80.5 28q27 0 50 -13.5t41 -24.5q4 -2 8.5 -4.5t9.5 -4.5l47 147q9 28 12.5 40t4.5 14.5t0 3t-1 4.5q0 10 -10.5 19t-32.5 17q-11 5 -15.5 8.5t-4.5 7.5q0 7 6 11.5t23 10.5q12 4 37.5 10
t55 11.5t53.5 9t33 3.5q28 0 28 -14q0 -9 -2 -17.5t-8 -25.5l-137 -383q-2 -6 1 -8.5t7 3.5q61 80 118.5 127.5t104.5 47.5q38 0 64 -25.5t26 -60.5q0 -50 -21 -101.5t-57 -99t-82 -84.5t-96.5 -58.5t-99.5 -21.5q-61 0 -94 29t-33 84q0 19 2.5 41t11.5 46
q-18 -22 -44.5 -55.5t-58.5 -67t-69 -55.5t-78 -22zM175 95q19 0 43 16t47.5 42.5t44 57.5t32.5 62.5t12 56.5q0 26 -10.5 39.5t-30.5 13.5q-17 0 -39.5 -18t-45 -47t-41.5 -63t-30.5 -68t-11.5 -60q0 -15 8 -23.5t22 -8.5zM473 26q12 0 29.5 12.5t36 33t32.5 43.5
q22 35 41.5 75.5t32 76.5t12.5 55q0 13 -7 20.5t-19 7.5q-19 0 -51.5 -25.5t-70.5 -77.5q-36 -50 -56.5 -93t-20.5 -66q0 -19 12 -40.5t29 -21.5z" />
  </g>

</svg>
