<?xml version="1.0" standalone="no"?>
<!DOCTYPE svg PUBLIC "-//W3C//DTD SVG 1.1//EN" "http://www.w3.org/Graphics/SVG/1.1/DTD/svg11.dtd" >
<svg xmlns="http://www.w3.org/2000/svg" xmlns:xlink="http://www.w3.org/1999/xlink" version="1.1" viewBox="-10 0 879 1000">
  <g transform="matrix(1 0 0 -1 0 800)">
   <path fill="currentColor"
d="M314 -205q-14 0 -20 11.5t0 36.5q9 38 14.5 78.5t9.5 72t8 42.5q2 6 7 10.5t14 5.5q19 2 38 8t34.5 20.5t22.5 39.5l58 182q5 14 4 17.5t-4 0.5q-8 -8 -33 -21t-62.5 -22.5t-85.5 -9.5q-59 0 -96.5 25.5t-49.5 70.5t6 102l27 86q11 32 1.5 45t-47.5 22q-8 2 -11.5 7.5
t-0.5 14.5q2 7 9.5 11t13.5 4q22 0 49 -1t53 -2.5t46 -1.5t48.5 1t58 2t50.5 1q16 0 11 -15q-3 -10 -9 -14t-17 -7q-30 -8 -46.5 -16t-24.5 -20t-15 -32l-38 -124q-7 -24 -0.5 -44t27 -31.5t52.5 -11.5t59.5 13.5t39.5 22.5q9 6 12 20l49 156q10 32 1 45t-47 22
q-8 2 -11.5 7.5t-0.5 14.5q2 7 9.5 11t13.5 4q22 0 49 -1t53 -2.5t46 -1.5t48.5 1t58 2t50.5 1q16 0 11 -15q-3 -10 -9 -14t-17 -7q-30 -8 -46.5 -16t-24.5 -20t-15 -32l-140 -452q-8 -28 1 -40.5t45 -23.5q8 -3 11.5 -7t0.5 -14q-2 -7 -7.5 -11t-13.5 -4q-21 0 -49 1
t-54.5 2t-43.5 0q-39 0 -69 -23.5t-47 -79.5q-4 -13 -10.5 -28t-11.5 -32q-5 -18 -17.5 -30.5t-25.5 -12.5z" />
  </g>

</svg>
