<?xml version="1.0" standalone="no"?>
<!DOCTYPE svg PUBLIC "-//W3C//DTD SVG 1.1//EN" "http://www.w3.org/Graphics/SVG/1.1/DTD/svg11.dtd" >
<svg xmlns="http://www.w3.org/2000/svg" xmlns:xlink="http://www.w3.org/1999/xlink" version="1.1" viewBox="-79 0 872 1000">
  <g transform="matrix(1 0 0 -1 0 800)">
   <path fill="currentColor"
d="M-46 -5q-11 0 -17.5 3.5t-4.5 13.5t9.5 15t17.5 7q18 4 42.5 12t49 21t41.5 31l408 434q20 21 32 42.5t20.5 36t14.5 14.5q37 0 61 8t40 18q17 11 28.5 20.5t22.5 9.5q12 0 15.5 -16.5t-4.5 -58.5l-90 -508q-4 -23 17 -38.5t49 -25.5q8 -3 13.5 -7t3.5 -14
q-1 -7 -7.5 -11t-14.5 -4q-21 0 -49.5 1t-57.5 2t-52 1q-20 0 -49 -1t-59 -2.5t-52 -1.5q-20 0 -18 15q1 9 9 14.5t18 7.5q23 5 39.5 12.5t27 19.5t13.5 31l85 416q2 6 2.5 11t-3.5 5q-5 0 -12 -7l-340 -382q-28 -34 -33 -54.5t9 -32.5t42 -19q21 -5 17 -22q-1 -7 -7 -10.5
t-17 -3.5q-33 0 -63.5 1.5t-60.5 1.5q-29 0 -66.5 -3t-69.5 -3z" />
  </g>

</svg>
