<?xml version="1.0" standalone="no"?>
<!DOCTYPE svg PUBLIC "-//W3C//DTD SVG 1.1//EN" "http://www.w3.org/Graphics/SVG/1.1/DTD/svg11.dtd" >
<svg xmlns="http://www.w3.org/2000/svg" xmlns:xlink="http://www.w3.org/1999/xlink" version="1.1" viewBox="-17 0 680 1000">
  <g transform="matrix(1 0 0 -1 0 800)">
   <path fill="currentColor"
d="M8 -5q-9 0 -12.5 5t-1.5 11q4 15 26 21q36 10 53 21t27 42l112 365q5 15 0 22.5t-23 7.5h-70q-10 0 -14.5 4.5t-3.5 10.5q3 12 20.5 23.5t33.5 11.5h64q18 0 23 15l15 55q5 19 -4 29t-47 20q-8 2 -11.5 7.5t-0.5 14.5q2 7 9.5 11t13.5 4q22 0 49 -1t53 -2.5t46 -1.5
t48.5 1t58 2t50.5 1q16 0 11 -15q-3 -10 -9 -14t-17 -7q-45 -13 -61 -24t-22 -34l-12 -45q-3 -9 -0.5 -12.5t12.5 -3.5h123q18 0 18 -15q0 -6 -9 -14t-21.5 -14.5t-23.5 -6.5h-93q-12 0 -21 -5.5t-13 -18.5l-20 -79q-4 -18 2 -26t22 -8q22 0 36.5 2t39.5 2q44 0 82.5 -17
t62.5 -47t24 -68q0 -67 -35.5 -118.5t-107 -81t-182.5 -29.5q-6 0 -19 1t-44 2t-92 1q-30 0 -73 -2.5t-72 -2.5zM314 38q33 0 60 18t47.5 46.5t31.5 60t11 58.5q0 52 -25 76t-62 24q-17 0 -28 -8t-18 -29q-15 -46 -29.5 -92.5t-29.5 -93.5q-9 -29 0.5 -44.5t41.5 -15.5z" />
  </g>

</svg>
