<?xml version="1.0" standalone="no"?>
<!DOCTYPE svg PUBLIC "-//W3C//DTD SVG 1.1//EN" "http://www.w3.org/Graphics/SVG/1.1/DTD/svg11.dtd" >
<svg xmlns="http://www.w3.org/2000/svg" xmlns:xlink="http://www.w3.org/1999/xlink" version="1.1" viewBox="-10 0 664 1000">
  <g transform="matrix(1 0 0 -1 0 800)">
   <path fill="currentColor"
d="M206 0q-78 0 -126 46t-48 128q0 62 18 129.5t50.5 133t75.5 124t94 103.5t106 71t110 26q39 0 75 -16t59.5 -47t23.5 -75t-25 -87t-69.5 -71t-105.5 -28q-30 0 -63 14.5t-61.5 41.5t-45.5 63l21 9q-26 -33 -52 -73t-49 -83t-41 -85t-28.5 -80.5t-10.5 -69.5l-15 44
q37 44 76 70.5t74.5 38.5t59.5 12q41 0 65 -17.5t34.5 -45.5t10.5 -60q0 -36 -18 -74t-48.5 -70t-68.5 -52t-78 -20zM216 128q36 0 72.5 10t61 26t23.5 33q-1 11 -15.5 17t-43.5 6q-31 0 -67 -8t-68.5 -20.5t-53.5 -26.5q8 -37 91 -37zM440 542q33 0 68.5 9.5t60.5 25.5
t25 35q0 14 -13.5 22.5t-34.5 13t-42 4.5q-33 1 -73 -8.5t-71.5 -27t-39.5 -40.5q11 -34 120 -34z" />
  </g>

</svg>
