<?xml version="1.0" standalone="no"?>
<!DOCTYPE svg PUBLIC "-//W3C//DTD SVG 1.1//EN" "http://www.w3.org/Graphics/SVG/1.1/DTD/svg11.dtd" >
<svg xmlns="http://www.w3.org/2000/svg" xmlns:xlink="http://www.w3.org/1999/xlink" version="1.1" viewBox="-10 0 625 1000">
  <g transform="matrix(1 0 0 -1 0 800)">
   <path fill="currentColor"
d="M123 -14q-22 0 -40.5 19t-26 44.5t1.5 46.5l91 203q7 15 5.5 22t-9.5 7q-6 0 -22.5 -9.5t-33 -21.5t-23.5 -19q-15 -15 -24 -15t-9 10q0 11 6 21t13 19q30 36 63 64t67.5 44t69.5 16q16 0 31.5 -14.5t23 -34t0.5 -35.5q-16 -36 -43.5 -93.5t-63.5 -134.5q-7 -14 -5 -23.5
t12 -9.5t29 22t43.5 56.5t49.5 69.5q15 20 29 41.5t27.5 43.5t25.5 41q19 30 34 50.5t34 20.5q22 0 39 -12t25 -28.5t2 -32.5l-93 -251q-2 -6 -2 -12.5t5 -6.5q7 0 27 12.5t42.5 29.5t35.5 30q3 3 4 3q6 0 10 -5t4 -11q0 -15 -16.5 -36t-43 -44t-57 -42.5t-59 -32
t-49.5 -12.5q-13 0 -25 9.5t-19 23.5t-7 25q0 5 2 10.5t5 12.5q7 16 16 36t20 45t23 56q3 8 -2 8.5t-10 -6.5q-24 -36 -52.5 -74.5t-59 -71.5t-61.5 -53.5t-60 -20.5zM425 469q13 0 14 11.5t-4 22.5l-73 162q-9 20 -18 28.5t-21 8.5q-11 0 -26 -9t-26 -21t-11 -22t6 -20
t17 -21l111 -123q7 -7 15 -12t16 -5z" />
  </g>

</svg>
