<?xml version="1.0" standalone="no"?>
<!DOCTYPE svg PUBLIC "-//W3C//DTD SVG 1.1//EN" "http://www.w3.org/Graphics/SVG/1.1/DTD/svg11.dtd" >
<svg xmlns="http://www.w3.org/2000/svg" xmlns:xlink="http://www.w3.org/1999/xlink" version="1.1" viewBox="-10 0 893 1000">
  <g transform="matrix(1 0 0 -1 0 800)">
   <path fill="currentColor"
d="M352 -218q-22 0 -32.5 8t-10.5 16q0 7 11 11.5t30 11.5q46 18 85.5 55t71 86t54 103t34 107t10.5 96q0 23 -9.5 39.5t-25 25t-35.5 8.5q-40 0 -64 -12t-31 -35l-63 -204q-8 -28 1 -41.5t40 -22.5q8 -2 13 -6.5t2 -14.5q-2 -7 -8.5 -11t-14.5 -4q-21 0 -48.5 1t-54 2
t-46.5 1t-48.5 -1t-57.5 -2.5t-51 -1.5q-6 0 -12 4t-4 11q3 9 11 14.5t18 7.5q41 8 60.5 20t29.5 43l148 476q5 17 -1.5 26t-22.5 9h-18q-22 0 -46 -8t-45 -22t-37 -34q-20 -25 -35 -36t-28 -11q-15 0 -11.5 14.5t11.5 30.5q10 20 23.5 40.5t28 44t25.5 51.5q7 16 14.5 23
t17.5 7q13 0 18 -14t11 -25q8 -12 31.5 -14.5t51.5 -4.5q35 -1 72 -2t74 -1q55 0 110 1l110 2q28 1 49.5 6.5t32.5 10.5q23 12 39.5 26.5t31.5 14.5q8 0 10 -5.5t-1 -14.5q-1 -4 -3.5 -10t-6.5 -12q-18 -27 -29 -48t-19 -41.5t-16 -47.5q-11 -37 -28 -37q-10 0 -13.5 9
t-4.5 30q-1 40 -17.5 58.5t-59.5 18.5h-82q-24 0 -44 -12t-27 -34l-45 -147q-5 -17 -5.5 -27.5t16.5 -4.5q23 11 56.5 19.5t73.5 8.5q82 0 124 -48t42 -122q2 -58 -24 -122t-71.5 -124t-102.5 -108t-117.5 -76.5t-115.5 -28.5z" />
  </g>

</svg>
