<?xml version="1.0" standalone="no"?>
<!DOCTYPE svg PUBLIC "-//W3C//DTD SVG 1.1//EN" "http://www.w3.org/Graphics/SVG/1.1/DTD/svg11.dtd" >
<svg xmlns="http://www.w3.org/2000/svg" xmlns:xlink="http://www.w3.org/1999/xlink" version="1.1" viewBox="-10 0 375 1000">
  <g transform="matrix(1 0 0 -1 0 800)">
   <path fill="currentColor"
d="M331 707q24 0 24 -14q0 -7 -5.5 -12.5t-18.5 -9.5q-29 -8 -49.5 -19.5t-31.5 -26t-11 -30.5q0 -13 9 -20.5t20 -12.5q14 -7 20.5 -17t6.5 -23q0 -27 -21 -43.5t-56 -16.5q-38 0 -56.5 22t-18.5 57q0 26 16 55t42.5 54t60 41t69.5 16z" />
  </g>

</svg>
