<?xml version="1.0" standalone="no"?>
<!DOCTYPE svg PUBLIC "-//W3C//DTD SVG 1.1//EN" "http://www.w3.org/Graphics/SVG/1.1/DTD/svg11.dtd" >
<svg xmlns="http://www.w3.org/2000/svg" xmlns:xlink="http://www.w3.org/1999/xlink" version="1.1" viewBox="-113 0 643 1000">
  <g transform="matrix(1 0 0 -1 0 800)">
   <path fill="currentColor"
d="M123 -290q-63 0 -114 13.5t-81.5 37t-30.5 52.5t25 52t67.5 41t96.5 32q13 4 2 9q-20 10 -37.5 29.5t-17.5 40.5q0 24 25.5 41.5t61.5 36.5q7 4 10.5 7.5t3.5 5.5q0 4 -10 9q-17 8 -36.5 23.5t-32.5 38t-13 49.5q0 31 14.5 67t43 68.5t72.5 53t102 20.5q18 0 37 -5.5
t35 -12.5q17 -7 31.5 -13t22.5 -6q19 0 35 4t30.5 8t27.5 4q7 0 17 -5.5t10 -22.5t-8 -30t-21 -13q-9 0 -19.5 1.5t-22.5 3t-24 1.5q-4 0 -8 -1.5t-2 -9.5q2 -6 2 -12v-13q0 -40 -16 -79t-45 -70t-69 -49.5t-88 -18.5q-10 0 -20.5 1.5t-15.5 -0.5q-10 -5 -10 -14
q0 -10 11 -21.5t27 -22.5q20 -13 45 -28.5t51.5 -31.5t50.5 -32q25 -16 39 -36t14 -41q0 -30 -23 -59t-61.5 -52t-86 -37t-97.5 -14zM168 -253q24 0 47.5 8.5t39.5 23t16 33.5q0 10 -7.5 21.5t-18.5 18.5q-23 16 -54.5 34.5t-50.5 27.5q-6 3 -13 3q-5 0 -9 -1t-9 -3
q-46 -13 -68 -31.5t-22 -53.5q0 -21 14.5 -39.5t47.5 -30t87 -11.5zM178 141q17 -2 36 13.5t36.5 42t31.5 57.5t22.5 60.5t8.5 49.5t-7 30t-18 10q-15 0 -32.5 -16.5t-34.5 -43t-31 -57t-22.5 -58t-8.5 -46.5q0 -22 5.5 -31.5t13.5 -10.5zM437 707q24 0 24 -14
q0 -7 -5.5 -12.5t-18.5 -9.5q-29 -8 -49.5 -19.5t-31.5 -26t-11 -30.5q0 -13 9 -20.5t20 -12.5q14 -7 20.5 -17t6.5 -23q0 -27 -21 -43.5t-56 -16.5q-38 0 -56.5 22t-18.5 57q0 26 16 55t42.5 54t60 41t69.5 16z" />
  </g>

</svg>
