<?xml version="1.0" standalone="no"?>
<!DOCTYPE svg PUBLIC "-//W3C//DTD SVG 1.1//EN" "http://www.w3.org/Graphics/SVG/1.1/DTD/svg11.dtd" >
<svg xmlns="http://www.w3.org/2000/svg" xmlns:xlink="http://www.w3.org/1999/xlink" version="1.1" viewBox="-10 0 786 1000">
  <g transform="matrix(1 0 0 -1 0 800)">
   <path fill="currentColor"
d="M83 -5q-16 0 -16 12q0 7 8 14t20 11q36 11 52.5 21.5t26.5 41.5l145 464q6 21 -0.5 32.5t-26.5 11.5q-43 0 -74.5 -20.5t-31.5 -58.5q0 -7 2.5 -11.5t6.5 -8.5q6 -7 11.5 -14.5t1.5 -18.5q-4 -14 -21.5 -28.5t-36.5 -24t-29 -9.5q-11 0 -19.5 8t-13 22t-5.5 31
q0 52 27 87t74 55.5t109.5 29.5t132.5 9q24 0 44 0.5t44.5 1.5t60.5 1q61 0 103.5 -14.5t65 -43t22.5 -70.5q0 -29 -15 -55.5t-40.5 -48t-58.5 -36.5t-70 -23q-4 -1 -5.5 -4.5t2.5 -5.5q58 -19 95 -56t37 -99q0 -58 -26.5 -97t-73.5 -62t-107.5 -33t-129.5 -10
q-38 0 -72.5 2t-73.5 2q-20 0 -46.5 -1t-52.5 -2.5t-46 -1.5zM387 30q30 5 58 24.5t49.5 48.5t34.5 62t13 65q0 40 -21 69t-60 29q-24 0 -35 -5t-16 -19l-64 -205q-3 -10 -3.5 -23.5t3.5 -21.5q5 -8 16 -16t25 -8zM467 362q23 0 40.5 6t35.5 14q32 26 55.5 65.5t23.5 91.5
q0 33 -20.5 60t-50.5 27q-22 0 -34 -8t-19 -29l-61 -199q-8 -28 30 -28z" />
  </g>

</svg>
