<?xml version="1.0" standalone="no"?>
<!DOCTYPE svg PUBLIC "-//W3C//DTD SVG 1.1//EN" "http://www.w3.org/Graphics/SVG/1.1/DTD/svg11.dtd" >
<svg xmlns="http://www.w3.org/2000/svg" xmlns:xlink="http://www.w3.org/1999/xlink" version="1.1" viewBox="-57 0 971 1000">
  <g transform="matrix(1 0 0 -1 0 800)">
   <path fill="currentColor"
d="M334 -200q-77 0 -108 15.5t-31 42.5q0 31 11.5 52t29.5 21q14 0 30.5 -14t34.5 -31q19 -18 37 -32.5t33 -14.5q16 0 29.5 20t28 61t34.5 105l81 264q3 8 1.5 12.5t-9.5 4.5h-227q-17 0 -22 -17l-58 -191q-8 -28 1.5 -39t44.5 -25q8 -3 11.5 -7t0.5 -14q-2 -7 -7.5 -11
t-13.5 -4q-21 0 -49.5 1t-56 2t-47.5 1t-47 -1t-53.5 -2.5t-45.5 -1.5q-6 0 -10.5 4t-2.5 11q6 17 26 22q36 8 52.5 20t26.5 43l141 454q10 32 1.5 45t-41.5 22q-8 2 -11.5 7.5t-0.5 14.5q2 7 9.5 11t13.5 4q22 0 47.5 -1t50 -2.5t44.5 -1.5t48.5 1t58 2t50.5 1q16 0 11 -15
q-3 -10 -9 -14t-17 -7q-30 -8 -46.5 -16t-25 -20t-14.5 -32l-55 -181q-4 -15 11 -15h227q15 0 19 15l55 181q9 30 1 41.5t-45 26.5q-7 3 -11 7t-1 14q2 8 8 11.5t13 3.5q21 0 49.5 -1t56.5 -2t47 -1q20 0 45.5 1.5t52 2.5t48.5 1q6 0 10.5 -4t2.5 -11q-6 -17 -26 -22
q-37 -9 -53.5 -22t-26.5 -45l-155 -499q-7 -21 -19 -43.5t-28.5 -46t-36.5 -45t-43 -41.5q-40 -34 -86.5 -55t-94.5 -21z" />
  </g>

</svg>
