<?xml version="1.0" standalone="no"?>
<!DOCTYPE svg PUBLIC "-//W3C//DTD SVG 1.1//EN" "http://www.w3.org/Graphics/SVG/1.1/DTD/svg11.dtd" >
<svg xmlns="http://www.w3.org/2000/svg" xmlns:xlink="http://www.w3.org/1999/xlink" version="1.1" viewBox="-57 0 889 1000">
  <g transform="matrix(1 0 0 -1 0 800)">
   <path fill="currentColor"
d="M620 -15q-51 0 -85.5 18t-55.5 47.5t-33 65t-20 69.5q-6 31 -12 60t-13.5 48.5t-19.5 19.5h-65q-6 0 -11.5 -3.5t-8.5 -11.5l-59 -200q-7 -28 -2.5 -40.5t40.5 -23.5q8 -3 14.5 -7t3.5 -14q-2 -7 -12.5 -12t-20.5 -5q-32 0 -56.5 2t-44.5 4t-40 2q-30 0 -60.5 -5
t-82.5 -5q-9 0 -16.5 5.5t-5.5 12.5q4 17 32 22q41 8 55 20t24 43l141 454q10 32 1 45t-47 22q-8 2 -11.5 7.5t-0.5 14.5q2 7 9.5 11t13.5 4q22 0 49 -1t53 -2.5t46 -1.5t48.5 1t57.5 2t50 1q17 0 12 -15q-3 -10 -9 -14t-17 -7q-30 -8 -46.5 -16t-24.5 -20t-15 -32l-53 -172
q-6 -21 20 -21h68q27 0 48 13.5t46.5 47.5t65.5 94q30 45 54.5 79t54 53.5t73.5 19.5q35 0 52.5 -17t17.5 -52q0 -26 -13.5 -45t-32.5 -19q-25 10 -54.5 15t-46.5 5q-19 0 -36 -19.5t-34 -50.5t-29 -51.5t-24 -34.5t-30 -26q-7 -4 -5.5 -6.5t5.5 -5.5q38 -31 56 -80.5
t32 -97.5q11 -35 24 -65.5t34.5 -48.5t57.5 -18q7 0 10 -5.5t1 -11.5q-3 -13 -21.5 -23t-44 -16t-51.5 -6zM363 160q-4 -13 -16 -18.5t-23 -5.5q-13 0 -19.5 8t-2.5 21l111 359q3 10 11 16.5t15 6.5q2 0 3 -0.5t2 -0.5q12 -3 21 -14t4 -28z" />
  </g>

</svg>
