<?xml version="1.0" standalone="no"?>
<!DOCTYPE svg PUBLIC "-//W3C//DTD SVG 1.1//EN" "http://www.w3.org/Graphics/SVG/1.1/DTD/svg11.dtd" >
<svg xmlns="http://www.w3.org/2000/svg" xmlns:xlink="http://www.w3.org/1999/xlink" version="1.1" viewBox="-72 0 558 1000">
  <g transform="matrix(1 0 0 -1 0 800)">
   <path fill="currentColor"
d="M25 -290q-40 0 -63.5 16.5t-23.5 38.5q0 14 10.5 29t24 25.5t21.5 10.5q16 0 27.5 -9.5t21.5 -22.5t20.5 -22.5t25.5 -9.5q22 0 47.5 30t55.5 88t62 143q20 57 25 85.5t0.5 38.5t-13.5 10q-7 0 -18.5 -8.5t-25 -22.5t-27.5 -29.5t-26 -30.5q-5 -6 -9.5 -11.5t-8.5 -10.5
q-28 -35 -55 -49t-43 -13q-13 1 -28 5t-15 20q0 15 7.5 35t14.5 41l80 218q13 35 0 52.5t-37 20.5q-6 1 -11 5.5t-5 13.5q0 8 9 13t22 6q26 2 70.5 2.5t98 1.5t103.5 2q31 1 51 7.5t36 6.5q3 0 6 -3.5t1 -9.5q-7 -18 -16 -42t-16 -45q-6 -18 -14 -36.5t-19 -18.5
q-14 0 -11 25q3 24 -4 46.5t-33 22.5h-44q-13 0 -18 -8.5t-8 -18.5l-77 -183q-4 -10 0 -14l6 -6q35 35 59.5 56.5t46 31.5t46.5 10q57 0 68.5 -51.5t-13.5 -131.5q-24 -69 -63.5 -131.5t-90 -112t-109 -78t-121.5 -28.5z" />
  </g>

</svg>
