<?xml version="1.0" standalone="no"?>
<!DOCTYPE svg PUBLIC "-//W3C//DTD SVG 1.1//EN" "http://www.w3.org/Graphics/SVG/1.1/DTD/svg11.dtd" >
<svg xmlns="http://www.w3.org/2000/svg" xmlns:xlink="http://www.w3.org/1999/xlink" version="1.1" viewBox="-25 0 569 1000">
  <g transform="matrix(1 0 0 -1 0 800)">
   <path fill="currentColor"
d="M51 -290q-12 0 -23 4.5t-11 16.5q0 11 18 16.5t52 14.5q44 12 81 43t59 70.5t22 78.5q0 18 -3 35t-8 38l-26 111q-1 5 -3.5 7t-7.5 -4q-13 -18 -25 -38t-25 -38q-26 -37 -57.5 -58t-57.5 -21q-27 0 -39 15.5t-12 34.5q0 16 7.5 32t19 26.5t23.5 10.5q5 0 11.5 -5
t10.5 -11q5 -4 12 -8t18 -4q10 0 21 6t23 19q7 8 18.5 20.5t23 25.5t17.5 22q5 8 6.5 13.5t-1.5 15.5l-38 126q-2 8 -5.5 12.5t-8.5 4.5q-12 0 -29 -13.5t-36 -35.5q-2 -2 -5 -3.5t-6 -1.5q-4 0 -7.5 2.5t-3.5 8.5q0 20 11.5 43.5t31 45t46 35.5t56.5 14q27 0 41.5 -20
t24.5 -50l29 -89q4 -12 13 1l57 79q32 45 57.5 62t47.5 17q27 0 45 -20t18 -36q0 -19 -9 -34.5t-21.5 -25t-21.5 -9.5q-13 0 -17.5 4.5t-9.5 11.5q-4 7 -9 12t-16 5q-7 0 -19 -4t-32 -24q-14 -14 -28 -34t-28 -43q-5 -9 -8 -17t1 -21l36 -142q5 -20 5.5 -39t-1.5 -37
q-2 -51 -30.5 -100t-74 -88t-98 -62.5t-102.5 -23.5z" />
  </g>

</svg>
