<?xml version="1.0" standalone="no"?>
<!DOCTYPE svg PUBLIC "-//W3C//DTD SVG 1.1//EN" "http://www.w3.org/Graphics/SVG/1.1/DTD/svg11.dtd" >
<svg xmlns="http://www.w3.org/2000/svg" xmlns:xlink="http://www.w3.org/1999/xlink" version="1.1" viewBox="-14 0 1094 1000">
  <g transform="matrix(1 0 0 -1 0 800)">
   <path fill="currentColor"
d="M79 -14q-36 0 -59.5 25t-23.5 62q0 36 14 78.5t40 88t62 88.5q44 53 86.5 81t80.5 28q27 0 50 -13.5t41 -24.5q4 -2 7.5 -3.5t7.5 -1.5t7 9l43 134q9 28 12.5 40t4.5 14.5t0 3t-1 4.5q0 10 -10.5 19t-32.5 17q-11 5 -15.5 8.5t-4.5 7.5q0 7 6 11.5t23 10.5q12 4 37.5 10
t55 11.5t53.5 9t33 3.5q28 0 28 -14q0 -9 -2 -17.5t-8 -25.5l-186 -532q-1 -4 -1.5 -7t-0.5 -5q0 -7 5 -7q6 0 21 9t32.5 23.5t32.5 29.5l3 3h1q14 0 14 -16t-15 -37t-38.5 -42.5t-51.5 -40.5t-54.5 -30.5t-46.5 -11.5q-16 0 -33 9t-28 22.5t-11 26.5q0 6 5 23
q5 11 12.5 26.5t15 29.5t12 21t1.5 -1q3 7 -1 8.5t-9 -5.5q-68 -82 -120.5 -121t-93.5 -39zM175 95q19 0 43 16t47.5 42.5t44 57.5t32.5 62.5t12 56.5q0 26 -10.5 39.5t-30.5 13.5q-17 0 -39.5 -18t-45 -47t-41.5 -63t-30.5 -68t-11.5 -60q0 -15 8 -23.5t22 -8.5zM846 -33
q-31 0 -57 14t-47 30q-22 16 -40.5 29.5t-35.5 13.5q-25 0 -40 -18t-15 -41q0 -10 -5.5 -12.5t-10.5 -2.5q-9 0 -15.5 11t-7.5 21q-1 11 4.5 26t21.5 28l296 250l39 -4q-16 -14 -45 -23t-46 -9q-21 0 -40 14.5t-37 30.5q-15 13 -28.5 23t-26.5 10q-14 0 -20 -15.5t-6 -32.5
q0 -14 3.5 -24.5t8.5 -18.5q9 -12 0 -20q-8 -7 -25.5 -13.5t-24.5 -6.5t-17.5 11.5t-10.5 33.5q0 37 17.5 59.5t47.5 45.5q15 12 36.5 26t43.5 24t35 10q23 0 40.5 -6.5t41.5 -13.5q20 -7 41 -12t42 -5q16 0 24.5 4.5t21.5 15.5q6 5 15.5 11.5t17.5 6.5q6 0 13 -5.5t7 -10.5
q0 -7 -12.5 -21.5t-26.5 -26.5l-294 -268l-28 11q14 12 28.5 23t28.5 11q24 0 45.5 -14t40.5 -31q20 -17 40 -31.5t40 -14.5q10 0 17 8.5t11.5 23t4.5 31.5q0 20 1.5 35t11.5 15q14 0 29 -13.5t15 -43.5q0 -20 -19.5 -45.5t-47.5 -49t-56 -39t-45 -15.5zM884 473
q-10 0 -15 10.5t-11 32.5q-4 17 -9.5 33.5t-10.5 33t-9.5 33t-7.5 33.5q-4 18 1 31.5t21 13.5t32 -35q6 -13 15.5 -30t22.5 -37q4 -6 12 0q23 20 45 38t36 30q20 17 33 25.5t20 8.5q11 0 11 -13q0 -6 -3.5 -14t-11.5 -18q-19 -22 -39 -44.5l-40 -45t-40 -45.5
q-17 -19 -29 -30t-23 -11z" />
  </g>

</svg>
