<?xml version="1.0" standalone="no"?>
<!DOCTYPE svg PUBLIC "-//W3C//DTD SVG 1.1//EN" "http://www.w3.org/Graphics/SVG/1.1/DTD/svg11.dtd" >
<svg xmlns="http://www.w3.org/2000/svg" xmlns:xlink="http://www.w3.org/1999/xlink" version="1.1" viewBox="-58 0 939 1000">
  <g transform="matrix(1 0 0 -1 0 800)">
   <path fill="currentColor"
d="M366 -200q-77 0 -108 15.5t-31 42.5q0 31 11.5 52t29.5 21q14 0 30.5 -14t34.5 -31q19 -18 37 -32.5t33 -14.5q16 0 28.5 16.5t22.5 42.5t18 52l11 36l-140 296q-10 21 -18 30t-13 9q-6 0 -8.5 -2.5t-4.5 -7.5l-62 -213q-8 -28 -3 -40.5t40 -23.5q8 -3 14 -6.5t6 -11.5
q0 -10 -12 -15t-23 -5q-32 0 -56 2t-44 4t-40 2q-30 0 -60.5 -5t-82.5 -5q-9 0 -17 5.5t-6 12.5q6 17 32 22q41 8 55.5 20t24.5 43l140 454q10 32 1 45t-46 22q-7 2 -10 5.5t-3 9.5q0 9 9.5 15.5t23.5 6.5q17 0 42 -1t51 -2.5t46 -1.5t48.5 1t57.5 2t50 1q14 0 14 -11
q0 -12 -9 -17t-19 -8q-30 -8 -46.5 -16t-25 -20t-14.5 -32l-55 -178q-3 -10 1 -13t14 -3q20 0 43 12t48 37l147 143q11 11 18 19t9 15q4 11 -10.5 19.5t-29.5 11.5q-13 2 -17.5 6.5t-4.5 13.5t7 13.5t17 4.5h80q52 0 99 1.5t108 1.5q22 0 22 -15q0 -9 -13.5 -14.5
t-22.5 -6.5q-55 -4 -92 -19.5t-69 -41.5t-67 -55t-69.5 -59.5t-65.5 -61.5q-10 -10 -12 -17t2 -15q31 -68 60.5 -118.5t64.5 -96t82 -97.5l-12 -32q-7 -20 -23 -43t-38 -45t-49 -41q-40 -34 -86.5 -55t-94.5 -21z" />
  </g>

</svg>
