<?xml version="1.0" standalone="no"?>
<!DOCTYPE svg PUBLIC "-//W3C//DTD SVG 1.1//EN" "http://www.w3.org/Graphics/SVG/1.1/DTD/svg11.dtd" >
<svg xmlns="http://www.w3.org/2000/svg" xmlns:xlink="http://www.w3.org/1999/xlink" version="1.1" viewBox="-10 0 1229 1000">
  <g transform="matrix(1 0 0 -1 0 800)">
   <path fill="currentColor"
d="M221 -13q-90 0 -123.5 74.5t10.5 218.5l84 271q11 32 2 45t-41 22q-18 5 -12 22q2 7 9.5 11t13.5 4q33 0 72.5 -2.5t69.5 -2.5q20 0 48.5 1t57.5 2t50 1q8 0 11 -3.5t1 -11.5q-3 -10 -9.5 -14t-16.5 -7q-30 -8 -46.5 -16t-25 -20t-14.5 -32l-91 -295q-9 -30 -14 -60.5
t-1.5 -55t18 -39.5t42.5 -15q21 0 45.5 19t49.5 56t49.5 90t45.5 121l56 179q9 30 1.5 43t-45.5 25q-8 3 -11.5 7t-0.5 14q2 8 7.5 11.5t12.5 3.5q21 0 49.5 -1l57 -2t47.5 -1q30 0 71.5 2.5t74.5 2.5q6 0 10.5 -4t2.5 -11q-3 -9 -9.5 -14.5t-16.5 -7.5q-25 -6 -40.5 -13.5
t-24.5 -19.5t-16 -34l-91 -296q-9 -27 -13.5 -57t-2 -55.5t15.5 -41.5t40 -16q23 0 48 18t49.5 51.5t46.5 79.5t39 101l67 215q6 20 5 32t-12.5 20t-36.5 16q-8 3 -11.5 7t-0.5 14q5 15 20 15q21 0 49.5 -1l57 -2t47.5 -1q30 0 71.5 2.5t74.5 2.5q6 0 10.5 -4t2.5 -11
q-6 -17 -26 -22q-38 -9 -54 -22t-27 -45l-140 -453q-8 -28 1 -40.5t44 -23.5q8 -3 12 -7t1 -14q-2 -7 -7.5 -11t-13.5 -4q-21 0 -49.5 1t-56.5 2t-48 1t-41.5 -4t-33.5 -4q-10 0 -7 11q4 11 10 23.5t10 24.5l14 32q2 8 4.5 14t-4.5 6q-2 0 -8.5 -9t-11.5 -16
q-14 -18 -44.5 -40t-68 -38t-75.5 -16q-30 0 -52.5 8t-38.5 21.5t-27.5 32t-19.5 39.5q-3 8 -11 8q-3 0 -7.5 -2t-7.5 -6q-38 -44 -89 -72t-114 -28z" />
  </g>

</svg>
