<?xml version="1.0" standalone="no"?>
<!DOCTYPE svg PUBLIC "-//W3C//DTD SVG 1.1//EN" "http://www.w3.org/Graphics/SVG/1.1/DTD/svg11.dtd" >
<svg xmlns="http://www.w3.org/2000/svg" xmlns:xlink="http://www.w3.org/1999/xlink" version="1.1" viewBox="-48 0 821 1000">
  <g transform="matrix(1 0 0 -1 0 800)">
   <path fill="currentColor"
d="M-23 -3q-6 0 -11 4t-3 11q6 17 26 22q41 8 58.5 20t27.5 43l143 458q7 22 4.5 33.5t-13.5 18t-33 11.5q-11 3 -19.5 8t-8.5 13t14.5 12t23.5 4q33 0 54.5 -2t41 -4t45.5 -2q24 0 43 2.5t43 5t61 2.5q69 0 111.5 -20t62.5 -54t20 -75q0 -45 -25 -81.5t-65 -61t-86 -34.5
q-8 -3 -4 -12q13 -32 24.5 -57t22.5 -46.5t21.5 -41.5t21.5 -43q16 -33 42.5 -56.5t61.5 -23.5q13 0 24.5 -5t11.5 -18q0 -18 -31 -23t-116 -5q-56 0 -89.5 13.5t-50.5 36.5t-26 50q-10 31 -17.5 55.5t-15 51t-16.5 61.5q-4 14 -12 23t-22 9q-8 0 -13 -5.5t-8 -14.5
l-56 -182q-10 -31 4 -43t54 -21q8 -2 12 -6.5t1 -14.5q-3 -7 -8 -11t-13 -4q-21 0 -53 1t-63 2t-51 1q-30 0 -74 -2.5t-77 -2.5zM353 328q37 0 66 14t49.5 40t31 62t10.5 80q0 41 -20 69.5t-49 28.5q-12 0 -20.5 -4.5t-17 -23.5t-22.5 -62l-52 -166q-6 -20 1 -29t23 -9z
M496 846q44 0 72.5 -19t42.5 -45.5t14 -49.5q0 -17 -6.5 -29t-19.5 -12q-9 0 -13 6t-10 16q-16 25 -35 35.5t-54 10.5t-61 -9t-54 -37q-11 -11 -19.5 -16.5t-17.5 -5.5q-13 0 -13 20q0 16 10 38.5t31 44.5t54 37t79 15z" />
  </g>

</svg>
