<?xml version="1.0" standalone="no"?>
<!DOCTYPE svg PUBLIC "-//W3C//DTD SVG 1.1//EN" "http://www.w3.org/Graphics/SVG/1.1/DTD/svg11.dtd" >
<svg xmlns="http://www.w3.org/2000/svg" xmlns:xlink="http://www.w3.org/1999/xlink" version="1.1" viewBox="-10 0 696 1000">
  <g transform="matrix(1 0 0 -1 0 800)">
   <path fill="currentColor"
d="M293 -13q-60 0 -110.5 9.5t-88.5 29t-59 48t-21 67.5q0 67 70 114t195 87q-64 35 -96 77t-32 82q0 43 25 80t78 60t138 23q8 0 10 -7t2 -16q0 -3 -14 -10t-32.5 -19t-32.5 -31t-14 -45q0 -34 16.5 -57.5t43 -41.5t57.5 -38q33 23 55.5 44.5t35 41.5t18 38.5t5.5 36.5
q0 29 -10 45t-20.5 24.5t-10.5 15.5q0 10 12 20.5t25 10.5q74 0 106 -25.5t32 -57.5q0 -61 -52 -116.5t-159 -104.5q45 -23 74 -47t43.5 -51.5t14.5 -62.5q0 -49 -23 -90t-64.5 -71t-96.5 -46.5t-120 -16.5zM297 36q24 1 51 14.5t46 42.5t19 74q0 38 -18.5 73t-74.5 70
q-52 -24 -84 -53t-46 -58.5t-14 -57.5q0 -51 36.5 -78.5t84.5 -26.5z" />
  </g>

</svg>
