<?xml version="1.0" standalone="no"?>
<!DOCTYPE svg PUBLIC "-//W3C//DTD SVG 1.1//EN" "http://www.w3.org/Graphics/SVG/1.1/DTD/svg11.dtd" >
<svg xmlns="http://www.w3.org/2000/svg" xmlns:xlink="http://www.w3.org/1999/xlink" version="1.1" viewBox="-140 0 662 1000">
  <g transform="matrix(1 0 0 -1 0 800)">
   <path fill="currentColor"
d="M187 711q-35 0 -78.5 4.5t-87 13.5t-79 22t-54.5 29q-18 15 -18 34q0 12 8 18.5t18 6.5q8 0 15 -4.5t16 -9.5q40 -19 108.5 -32t141.5 -13q74 0 143 9.5t117 30.5q19 8 30.5 13.5t20.5 5.5q10 0 16 -4t7 -15q2 -15 -14 -29q-19 -18 -56.5 -32.5t-84 -25.5t-91.5 -16.5
t-78 -5.5z" />
  </g>

</svg>
