<?xml version="1.0" standalone="no"?>
<!DOCTYPE svg PUBLIC "-//W3C//DTD SVG 1.1//EN" "http://www.w3.org/Graphics/SVG/1.1/DTD/svg11.dtd" >
<svg xmlns="http://www.w3.org/2000/svg" xmlns:xlink="http://www.w3.org/1999/xlink" version="1.1" viewBox="-58 0 739 1000">
  <g transform="matrix(1 0 0 -1 0 800)">
   <path fill="currentColor"
d="M-34 -3q-6 0 -10.5 4t-2.5 11q6 17 26 22q41 9 58 20.5t27 42.5l141 454q10 32 1.5 44.5t-41.5 22.5q-10 3 -13 9t-1 12q2 7 9 11.5t16 4.5q33 0 72.5 -2.5t69.5 -2.5h179q38 0 60 11t39 34t40 57q6 9 12.5 12.5t13.5 3.5q5 0 7.5 -4.5t-0.5 -14.5q-8 -27 -21 -56.5
t-24 -67.5q-2 -8 -9.5 -11.5t-20.5 -3.5q-6 0 -13.5 1.5t-15 2.5t-15.5 1h-106q-25 0 -41.5 -13.5t-29.5 -55.5l-139 -448q-8 -28 1.5 -39t44.5 -25q8 -3 11.5 -7t0.5 -14q-2 -7 -7.5 -11t-13.5 -4q-21 0 -49.5 1t-56 2t-47.5 1q-30 0 -74.5 -2.5t-77.5 -2.5z" />
  </g>

</svg>
