<?xml version="1.0" standalone="no"?>
<!DOCTYPE svg PUBLIC "-//W3C//DTD SVG 1.1//EN" "http://www.w3.org/Graphics/SVG/1.1/DTD/svg11.dtd" >
<svg xmlns="http://www.w3.org/2000/svg" xmlns:xlink="http://www.w3.org/1999/xlink" version="1.1" viewBox="-14 0 648 1000">
  <g transform="matrix(1 0 0 -1 0 800)">
   <path fill="currentColor"
d="M355 -287q-29 0 -51 19.5t-36.5 49.5t-23.5 63q-10 38 -9 87t22 99l46 112q3 7 -1 8.5t-9 -5.5q-68 -82 -120.5 -121t-93.5 -39q-36 0 -59.5 25t-23.5 62q0 36 14 78.5t40 88t62 88.5q44 53 86.5 81t80.5 28q27 0 50 -13.5t41 -24.5q4 -2 7.5 -3.5t7.5 -1.5t7 9l43 134
q9 28 12.5 40t4.5 14.5t0 3t-1 4.5q0 10 -10.5 19t-32.5 17q-11 5 -15.5 8.5t-4.5 7.5q0 7 6 11.5t23 10.5q12 4 37.5 10t55 11.5t53.5 9t33 3.5q28 0 28 -14q0 -9 -2 -17.5t-8 -25.5l-231 -650q-11 -31 -18 -59t-10.5 -52t-3.5 -44.5t3 -37.5q5 -26 15 -36.5t23 -18.5
q9 -5 13 -9.5t1 -12.5t-15.5 -12.5t-35.5 -4.5zM175 95q19 0 43 16t47.5 42.5t44 57.5t32.5 62.5t12 56.5q0 26 -10.5 39.5t-30.5 13.5q-17 0 -39.5 -18t-45 -47t-41.5 -63t-30.5 -68t-11.5 -60q0 -15 8 -23.5t22 -8.5z" />
  </g>

</svg>
