<?xml version="1.0" standalone="no"?>
<!DOCTYPE svg PUBLIC "-//W3C//DTD SVG 1.1//EN" "http://www.w3.org/Graphics/SVG/1.1/DTD/svg11.dtd" >
<svg xmlns="http://www.w3.org/2000/svg" xmlns:xlink="http://www.w3.org/1999/xlink" version="1.1" viewBox="-10 0 597 1000">
  <g transform="matrix(1 0 0 -1 0 800)">
   <path fill="currentColor"
d="M212 -14q-49 0 -85.5 12.5t-60.5 34t-36 50t-12 61.5q0 34 16 73.5t44 76.5t65 64q7 5 6 10t-9 8q-9 3 -21 6.5t-21 6.5q-7 3 -13 8t-4 13q2 7 10.5 11t14.5 4q20 0 36 -1t31 -2.5t32 -1.5q18 0 29.5 1.5t24.5 2.5t33 1q6 0 9.5 -4.5t1.5 -10.5q-2 -7 -10 -10.5
t-15 -10.5q-30 -30 -55 -76.5t-39.5 -96.5t-14.5 -91q0 -38 14.5 -63t46.5 -25q27 0 52 28t44.5 73.5t31 97t12.5 97.5q2 29 -5 50q-2 8 -7.5 13.5t-3.5 13.5q2 7 8.5 11t12.5 4q30 0 48 -2.5t44 -2.5t46.5 2.5t50.5 2.5q6 0 10 -4t2 -11q-2 -8 -9.5 -13t-16.5 -8
q-13 -4 -27 -6.5t-25 -5.5q-8 -2 -9 -9t1 -11q6 -22 9.5 -43.5t4.5 -42.5q1 -75 -32.5 -140t-98.5 -105t-161 -40z" />
  </g>

</svg>
