<?xml version="1.0" standalone="no"?>
<!DOCTYPE svg PUBLIC "-//W3C//DTD SVG 1.1//EN" "http://www.w3.org/Graphics/SVG/1.1/DTD/svg11.dtd" >
<svg xmlns="http://www.w3.org/2000/svg" xmlns:xlink="http://www.w3.org/1999/xlink" version="1.1" viewBox="-10 0 511 1000">
  <g transform="matrix(1 0 0 -1 0 800)">
   <path fill="currentColor"
d="M153 -15q-38 0 -64.5 17.5t-34 52.5t10.5 85l67 182q8 21 -12 21q-9 0 -33 -3.5t-46 -29.5q-4 -5 -12.5 -4.5t-9.5 9.5q0 8 7.5 20.5t18 25.5t18.5 19q28 23 62.5 40t86.5 17q30 0 46 -17t18 -40h5q23 18 57 37.5t74 19.5q36 0 57.5 -21.5t20.5 -53.5q-2 -33 -20.5 -60
t-48 -47t-65.5 -34q-25 -10 -50 -19t-50 -19q-24 -9 -31 -16t-15 -27l-13 -34q-10 -28 -6.5 -44t24.5 -16q23 0 39 10t24 28q2 6 4 14t4 14q3 9 29.5 18t51.5 17q17 6 28 6q8 0 11 -6.5t0 -16.5q-5 -16 -23.5 -33.5t-42.5 -33.5q-32 -21 -66.5 -39t-65.5 -28.5t-55 -10.5z
M249 222q2 0 4.5 1t6.5 2q26 14 46 29.5t32.5 36.5t13.5 50q0 15 -7.5 20.5t-15.5 5.5t-15 -3.5t-15 -11.5q-4 -4 -8 -10.5t-8 -15.5l-33 -85q-4 -10 -4.5 -14.5t3.5 -4.5z" />
  </g>

</svg>
