<?xml version="1.0" standalone="no"?>
<!DOCTYPE svg PUBLIC "-//W3C//DTD SVG 1.1//EN" "http://www.w3.org/Graphics/SVG/1.1/DTD/svg11.dtd" >
<svg xmlns="http://www.w3.org/2000/svg" xmlns:xlink="http://www.w3.org/1999/xlink" version="1.1" viewBox="-108 0 672 1000">
  <g transform="matrix(1 0 0 -1 0 800)">
   <path fill="currentColor"
d="M-88 -285q-4 0 -7 3.5t-2 8.5q1 8 6.5 12t13.5 6q33 9 47.5 17.5t22.5 33.5l165 515q3 9 5.5 18t1 14.5t-13.5 2.5q-25 -7 -42 -12.5t-40 -13.5q-8 -3 -17 -2t-9 13q0 11 9 18t19 11q16 7 40.5 17.5t61.5 26.5q7 3 13.5 11.5t13.5 30.5q17 48 46 71t62 23
q21 0 28.5 -12.5t-0.5 -41.5l-9 -35q-2 -10 -1.5 -16.5t4.5 -5.5q13 3 26.5 5.5t28.5 2.5q57 0 94.5 -19.5t56 -53t18.5 -75.5q0 -73 -29 -127t-80.5 -95t-120 -75.5t-146.5 -68.5q-12 -5 -21 -13.5t-15 -27.5l-20 -76q-5 -19 6 -32.5t48 -24.5q6 -1 11.5 -5.5t5.5 -15.5
q0 -5 -6 -8.5t-14 -3.5q-17 0 -43.5 1t-51.5 1.5t-41 0.5q-25 0 -61 -2t-64 -2zM198 -11q42 19 80.5 45t69 59.5t48.5 77.5t18 99t-22.5 82.5t-57.5 27.5q-15 0 -22 -7t-12 -20l-113 -347q-5 -17 -2 -19t13 2z" />
  </g>

</svg>
