<?xml version="1.0" standalone="no"?>
<!DOCTYPE svg PUBLIC "-//W3C//DTD SVG 1.1//EN" "http://www.w3.org/Graphics/SVG/1.1/DTD/svg11.dtd" >
<svg xmlns="http://www.w3.org/2000/svg" xmlns:xlink="http://www.w3.org/1999/xlink" version="1.1" viewBox="-72 0 1308 1000">
  <g transform="matrix(1 0 0 -1 0 800)">
   <path fill="currentColor"
d="M303 -7q-40 0 -80.5 3t-72 5.5t-44.5 2.5q-20 0 -47.5 -1.5t-56 -3.5t-50.5 -2q-6 0 -10.5 4t-2.5 11q6 17 26 22q27 6 43.5 12.5t26 18.5t15.5 32l141 454q6 23 4 35t-14 19t-36 13q-8 2 -11.5 7.5t-0.5 14.5q2 7 9.5 11t13.5 4q33 0 75.5 -2.5t72.5 -2.5q20 0 41 1
t47.5 2t61.5 1q94 0 158 -37t97 -98.5t33 -133.5q0 -79 -34.5 -149.5t-95 -125t-140 -86t-169.5 -31.5zM302 31q50 0 97.5 32.5t85.5 86t60.5 119.5t22.5 133q0 79 -17 125.5t-47.5 67t-69.5 20.5q-19 0 -33 -4t-22.5 -13.5t-13.5 -25.5l-135 -453q-10 -33 0.5 -52.5
t31.5 -27.5t40 -8zM1002 -33q-31 0 -57 14t-47 30q-22 16 -40.5 29.5t-35.5 13.5q-25 0 -40 -18t-15 -41q0 -10 -5.5 -12.5t-10.5 -2.5q-9 0 -15.5 11t-7.5 21q-1 11 4.5 26t21.5 28l296 250l39 -4q-16 -14 -45 -23t-46 -9q-21 0 -40 14.5t-37 30.5q-15 13 -28.5 23
t-26.5 10q-14 0 -20 -15.5t-6 -32.5q0 -14 3.5 -24.5t8.5 -18.5q9 -12 0 -20q-8 -7 -25.5 -13.5t-24.5 -6.5t-17.5 11.5t-10.5 33.5q0 37 17.5 59.5t47.5 45.5q15 12 36.5 26t43.5 24t35 10q23 0 40.5 -6.5t41.5 -13.5q20 -7 41 -12t42 -5q16 0 24.5 4.5t21.5 15.5
q6 5 15.5 11.5t17.5 6.5q6 0 13 -5.5t7 -10.5q0 -7 -12.5 -21.5t-26.5 -26.5l-294 -268l-28 11q14 12 28.5 23t28.5 11q24 0 45.5 -14t40.5 -31q20 -17 40 -31.5t40 -14.5q10 0 17 8.5t11.5 23t4.5 31.5q0 20 1.5 35t11.5 15q14 0 29 -13.5t15 -43.5q0 -20 -19.5 -45.5
t-47.5 -49t-56 -39t-45 -15.5zM1040 473q-10 0 -15 10.5t-11 32.5q-4 17 -9.5 33.5t-10.5 33t-9.5 33t-7.5 33.5q-4 18 1 31.5t21 13.5t32 -35q6 -13 15.5 -30t22.5 -37q4 -6 12 0q23 20 45 38t36 30q20 17 33 25.5t20 8.5q11 0 11 -13q0 -6 -3.5 -14t-11.5 -18
q-19 -22 -39 -44.5l-40 -45t-40 -45.5q-17 -19 -29 -30t-23 -11z" />
  </g>

</svg>
