<?xml version="1.0" standalone="no"?>
<!DOCTYPE svg PUBLIC "-//W3C//DTD SVG 1.1//EN" "http://www.w3.org/Graphics/SVG/1.1/DTD/svg11.dtd" >
<svg xmlns="http://www.w3.org/2000/svg" xmlns:xlink="http://www.w3.org/1999/xlink" version="1.1" viewBox="-10 0 583 1000">
  <g transform="matrix(1 0 0 -1 0 800)">
   <path fill="currentColor"
d="M19 -3q-6 0 -10.5 4t-3.5 11q6 17 26 22q41 8 58.5 20t27.5 43l46 144q9 29 33 55t70 55q45 29 72 59.5t38.5 61.5t11.5 60q0 32 -18 55.5t-57 23.5q-24 0 -44 -6t-36.5 -16.5t-30.5 -25.5q-16 -18 -32.5 -41t-28.5 -45q-7 -13 -19 -17t-20 0.5t-5 16.5q3 11 11 32
t17.5 44t19 42.5t16.5 27.5q25 8 56 17.5t68.5 16.5t80.5 7q70 0 113 -22t63.5 -56.5t20.5 -74.5q0 -37 -21 -76.5t-60.5 -74.5t-95.5 -62q-31 -14 -41 -33t-19 -46l-39 -121q-9 -27 -1.5 -39.5t43.5 -23.5q8 -3 13.5 -7.5t2.5 -14.5q-2 -7 -7.5 -11t-13.5 -4q-21 0 -49.5 1
t-56.5 2t-48 1q-30 0 -74 -2.5t-77 -2.5z" />
  </g>

</svg>
