<?xml version="1.0" standalone="no"?>
<!DOCTYPE svg PUBLIC "-//W3C//DTD SVG 1.1//EN" "http://www.w3.org/Graphics/SVG/1.1/DTD/svg11.dtd" >
<svg xmlns="http://www.w3.org/2000/svg" xmlns:xlink="http://www.w3.org/1999/xlink" version="1.1" viewBox="-117 0 845 1000">
  <g transform="matrix(1 0 0 -1 0 800)">
   <path fill="currentColor"
d="M-93 -181q-6 0 -10.5 4t-2.5 11q6 17 26 22q41 8 58 20t27 43l196 632q10 32 1 45t-46 22q-17 4 -13 22q2 7 9.5 11t13.5 4q22 0 49 -1t53 -2.5t46 -1.5q11 0 23.5 0.5t25.5 1.5t26 1q14 0 15 -4t-2 -12q-3 -10 -7.5 -20t-8.5 -20.5t-8 -22.5l-4 -13q-1 -4 0 -7.5t5 0.5
q47 48 99.5 79t113.5 31q68 0 97 -36t29 -89q0 -58 -29.5 -116t-85.5 -114t-136.5 -108t-182.5 -98q-30 -13 -48.5 -32t-27.5 -48l-32 -103q-8 -28 0.5 -40.5t44.5 -23.5q8 -3 11.5 -7t0.5 -14q-4 -15 -20 -15q-21 0 -49.5 1t-56.5 2t-48 1q-30 0 -74.5 -2.5t-77.5 -2.5z
M266 142q47 26 95 63.5t88 83.5t65 99.5t25 111.5q0 26 -13 44t-43 18q-24 0 -48 -14t-45 -35.5t-36 -45t-21 -42.5l-82 -263q-5 -19 -1 -23t16 3z" />
  </g>

</svg>
