<?xml version="1.0" standalone="no"?>
<!DOCTYPE svg PUBLIC "-//W3C//DTD SVG 1.1//EN" "http://www.w3.org/Graphics/SVG/1.1/DTD/svg11.dtd" >
<svg xmlns="http://www.w3.org/2000/svg" xmlns:xlink="http://www.w3.org/1999/xlink" version="1.1" viewBox="-10 0 571 1000">
  <g transform="matrix(1 0 0 -1 0 800)">
   <path fill="currentColor"
d="M59 -14q-16 0 -33.5 18t-17.5 58q0 10 5.5 21t23.5 26l310 206q42 62 79 92t65 30q23 0 36 -11.5t18.5 -25.5t5.5 -22q0 -13 -2.5 -21t-10.5 -13l-407 -269q-5 -9 -13 -24t-17.5 -29.5t-20 -25t-21.5 -10.5zM138 163q14 32 20.5 56.5t6.5 40.5q0 31 -15.5 42t-34.5 11
q-11 0 -25.5 -4.5t-25.5 -9.5q-7 -4 -12.5 -6.5t-8.5 -2.5q-12 0 -12 13q0 32 21 62.5t53 51t65 20.5t56 -18t23 -55q0 -34 -19 -80t-59 -99zM341 -15q-33 0 -59 26.5t-26 68.5q0 31 11.5 67t36.5 73l31 17q-7 -22 -10.5 -40t-3.5 -32q0 -29 15 -42.5t38 -12.5q22 0 48.5 11
t50.5 30q11 8 17 8q5 0 7 -4.5t2 -9.5q0 -22 -11.5 -49t-32.5 -52.5t-50 -42t-64 -16.5z" />
  </g>

</svg>
