<?xml version="1.0" standalone="no"?>
<!DOCTYPE svg PUBLIC "-//W3C//DTD SVG 1.1//EN" "http://www.w3.org/Graphics/SVG/1.1/DTD/svg11.dtd" >
<svg xmlns="http://www.w3.org/2000/svg" xmlns:xlink="http://www.w3.org/1999/xlink" version="1.1" viewBox="-10 0 932 1000">
  <g transform="matrix(1 0 0 -1 0 800)">
   <path fill="currentColor"
d="M665 -200q-49 0 -88.5 16.5t-64.5 49.5t-32 82.5t8 115.5q1 5 -4 10t-16 -8q-14 -15 -41 -34t-64 -33t-81 -14q-70 0 -121.5 31t-80 88t-28.5 134q0 57 18 117t55 115t93.5 99t134 69.5t177.5 25.5q60 0 101 -3t74 -6.5t70 -3.5q25 0 42.5 0.5t33.5 1.5t35 1q17 0 22 -4
t3 -11q-2 -8 -8 -11t-25 -11q-29 -11 -44 -20.5t-22.5 -24t-16.5 -41.5l-162 -522q-28 -91 -23 -129t33 -38q11 0 25 16t42 39q13 11 25.5 17t22.5 6q15 0 26.5 -14.5t11.5 -32.5q0 -24 -20.5 -40.5t-50.5 -24.5t-60 -8zM333 46q27 0 56.5 14.5t56.5 37.5t47 50.5t28 53.5
l94 305q8 25 2 49t-30 40t-71 16q-57 0 -103 -26t-81 -69.5t-58.5 -97.5t-34.5 -110.5t-10 -106.5q2 -78 30 -117t74 -39z" />
  </g>

</svg>
