<?xml version="1.0" standalone="no"?>
<!DOCTYPE svg PUBLIC "-//W3C//DTD SVG 1.1//EN" "http://www.w3.org/Graphics/SVG/1.1/DTD/svg11.dtd" >
<svg xmlns="http://www.w3.org/2000/svg" xmlns:xlink="http://www.w3.org/1999/xlink" version="1.1" viewBox="-35 0 430 1000">
  <g transform="matrix(1 0 0 -1 0 800)">
   <path fill="currentColor"
d="M116 -14q-70 0 -105.5 22t-35.5 52q0 17 6 28t20 24q3 3 9 5.5t9 2.5q8 0 13.5 -3.5t7.5 -8.5q17 -29 33.5 -51t46.5 -22q26 0 49.5 16t42 44.5t29.5 66t11 79.5l-146 -1q-15 0 -27 0.5t-22 2.5q-12 3 -17.5 10.5t2.5 32.5q9 28 29 54.5t47.5 48.5t60.5 35t68 13
q41 0 72 -21t48 -57t17 -80q0 -45 -20.5 -96t-57 -96t-85.5 -73t-105 -28zM184 283l49 -2q11 -1 15 9t2 23q-1 13 -7 26.5t-18 23.5t-31 10q-31 0 -48.5 -19.5t-17.5 -38.5q0 -9 4 -16.5t8 -9.5q9 -3 20 -4t24 -2z" />
  </g>

</svg>
