<?xml version="1.0" standalone="no"?>
<!DOCTYPE svg PUBLIC "-//W3C//DTD SVG 1.1//EN" "http://www.w3.org/Graphics/SVG/1.1/DTD/svg11.dtd" >
<svg xmlns="http://www.w3.org/2000/svg" xmlns:xlink="http://www.w3.org/1999/xlink" version="1.1" viewBox="-21 0 382 1000">
  <g transform="matrix(1 0 0 -1 0 800)">
   <path fill="currentColor"
d="M251 686q-27 0 -45.5 18.5t-18.5 41.5q0 37 28.5 65t72.5 28q28 0 45.5 -20t17.5 -46q0 -23 -14 -43t-36.5 -32t-49.5 -12zM53 686q-28 0 -46 18.5t-18 41.5q0 38 29 65.5t72 27.5q27 0 44.5 -20t17.5 -46q0 -34 -29.5 -60.5t-69.5 -26.5z" />
  </g>

</svg>
