<?xml version="1.0" standalone="no"?>
<!DOCTYPE svg PUBLIC "-//W3C//DTD SVG 1.1//EN" "http://www.w3.org/Graphics/SVG/1.1/DTD/svg11.dtd" >
<svg xmlns="http://www.w3.org/2000/svg" xmlns:xlink="http://www.w3.org/1999/xlink" version="1.1" viewBox="-39 0 698 1000">
  <g transform="matrix(1 0 0 -1 0 800)">
   <path fill="currentColor"
d="M419 -13q-14 1 -32.5 21.5t-38.5 47.5l-161 225q0 -1 -1.5 2t-2.5 3q-4 0 -6 -4.5t-3 -7.5q-8 -28 -20 -63.5t-23.5 -71t-20.5 -63.5q-8 -25 7 -34t43 -17q5 -1 10.5 -4t3.5 -10q-1 -6 -8 -8.5t-12 -2.5q-20 0 -34.5 1t-26.5 1.5t-28 0.5q-18 0 -39 -1t-33.5 -2t-7.5 -1
q-3 0 -8.5 3t-4.5 8q2 6 8.5 9.5t12.5 5.5q35 13 52 52q15 36 39.5 105t49.5 148q11 34 -1 49t-37 22q-7 2 -11.5 5t-2.5 9q2 5 7.5 8t15.5 3q18 0 60 -2t82 -2q5 0 8 -1t4 -3l173 -243q2 -2 3.5 -4t2.5 -2q7 0 9 7q3 11 17.5 54t37.5 119q7 23 -2.5 32t-38.5 19
q-4 2 -8.5 4.5t-2.5 9.5q2 5 8 8t10 3q24 0 38 -0.5t25 -1t25 -0.5q20 0 36 1t43 1q8 0 11.5 -3t1.5 -8q-1 -6 -7 -9t-14 -5q-28 -4 -43 -13t-21 -30q-15 -48 -25 -81.5t-18.5 -60.5t-16.5 -53.5t-18 -58.5t-24 -77q-7 -25 -19 -32.5t-23 -6.5z" />
  </g>

</svg>
