<?xml version="1.0" standalone="no"?>
<!DOCTYPE svg PUBLIC "-//W3C//DTD SVG 1.1//EN" "http://www.w3.org/Graphics/SVG/1.1/DTD/svg11.dtd" >
<svg xmlns="http://www.w3.org/2000/svg" xmlns:xlink="http://www.w3.org/1999/xlink" version="1.1" viewBox="-10 0 576 1000">
  <g transform="matrix(1 0 0 -1 0 800)">
   <path fill="currentColor"
d="M138 506q-13 0 -15.5 10.5t1.5 20.5q5 14 15.5 22.5t23.5 8.5l284 1q10 0 15.5 -6t1.5 -13q-1 -1 -1.5 -5t-1.5 -6q-7 -13 -20 -22.5t-30 -9.5zM200 -14q-61 0 -94 29.5t-33 83.5q0 19 4 40.5t13 48.5l106 343q8 27 10.5 38.5t2.5 22.5t-8 18t-28 14q-20 8 -20 16
q0 7 6 11.5t23 10.5q21 7 48 15t54 14.5t46.5 11t25.5 4.5q28 0 28 -14q0 -13 -2.5 -22.5t-7.5 -20.5q-11 -24 -21.5 -48.5t-22 -54.5t-24.5 -69t-30 -91t-39 -123q-2 -7 0 -8t6 6q58 83 117 129t106 46q38 0 64 -25.5t26 -60.5q0 -50 -21 -101.5t-57 -99t-82 -84.5
t-96.5 -58.5t-99.5 -21.5zM231 26q12 0 29.5 12.5t36 33t32.5 43.5q22 35 41.5 75.5t32 76.5t12.5 55q0 13 -7 20.5t-19 7.5q-19 0 -51.5 -25.5t-70.5 -77.5q-36 -50 -56.5 -93t-20.5 -66q0 -19 12 -40.5t29 -21.5z" />
  </g>

</svg>
