<?xml version="1.0" standalone="no"?>
<!DOCTYPE svg PUBLIC "-//W3C//DTD SVG 1.1//EN" "http://www.w3.org/Graphics/SVG/1.1/DTD/svg11.dtd" >
<svg xmlns="http://www.w3.org/2000/svg" xmlns:xlink="http://www.w3.org/1999/xlink" version="1.1" viewBox="-36 0 298 1000">
  <g transform="matrix(1 0 0 -1 0 800)">
   <path fill="currentColor"
d="M97 461q-44 0 -71 14.5t-39.5 36t-12.5 41.5q0 31 18.5 52t46.5 21q17 0 25.5 -6t8.5 -15q0 -13 -4 -25t-4 -26q0 -18 13 -27.5t39 -9.5q22 0 50 15.5t52 56.5q8 13 12 17.5t11 4.5q6 0 8 -4t2 -12q0 -9 -9.5 -31t-29 -45.5t-48.5 -40.5t-68 -17z" />
  </g>

</svg>
