<?xml version="1.0" standalone="no"?>
<!DOCTYPE svg PUBLIC "-//W3C//DTD SVG 1.1//EN" "http://www.w3.org/Graphics/SVG/1.1/DTD/svg11.dtd" >
<svg xmlns="http://www.w3.org/2000/svg" xmlns:xlink="http://www.w3.org/1999/xlink" version="1.1" viewBox="-150 0 723 1000">
  <g transform="matrix(1 0 0 -1 0 800)">
   <path fill="currentColor"
d="M60 -198q-56 0 -101.5 7t-72 18t-26.5 23q0 26 14.5 37t31.5 11q11 0 25 -6t29 -14q18 -9 36.5 -17t37.5 -8q80 0 139 24t97.5 64t58 89.5t19.5 101.5q0 62 -23 89t-70 27q-28 0 -57.5 -8.5t-51.5 -16.5t-28 -8q-11 0 -10.5 9t6.5 19.5t11 16.5q7 9 25.5 19.5t46.5 19.5
q61 20 106.5 53.5t70.5 77t25 92.5q0 40 -18.5 63.5t-62.5 23.5t-71 -14t-50 -35q-19 -16 -33.5 -38t-25.5 -42q-5 -9 -13.5 -13.5t-16.5 -4.5q-7 0 -12 4.5t-2 13.5q7 22 18 53.5t27 67.5q5 11 12.5 18.5t17.5 8.5q34 6 63.5 14.5t61 15t70.5 6.5q74 0 117.5 -19
t62.5 -51.5t19 -72.5q0 -52 -45.5 -99.5t-127.5 -71.5q-12 -4 -10 -10t7 -8q79 -27 108.5 -66t29.5 -94q0 -66 -29 -123t-78 -102.5t-109.5 -78t-125 -49.5t-123.5 -17z" />
  </g>

</svg>
