<?xml version="1.0" standalone="no"?>
<!DOCTYPE svg PUBLIC "-//W3C//DTD SVG 1.1//EN" "http://www.w3.org/Graphics/SVG/1.1/DTD/svg11.dtd" >
<svg xmlns="http://www.w3.org/2000/svg" xmlns:xlink="http://www.w3.org/1999/xlink" version="1.1" viewBox="-10 0 500 1000">
  <g transform="matrix(1 0 0 -1 0 800)">
   <path fill="currentColor"
d="M169 -14q-46 0 -75 13.5t-37.5 39.5t3.5 63q17 51 37 102t36 102q2 7 -1 10t-8 3q-9 0 -23 -5.5t-26 -11t-16 -7.5q-7 -3 -11.5 1t-4.5 11t5.5 15t15.5 17q18 17 45.5 34t57 31.5t55.5 23.5t41 9q23 0 34.5 -16t1.5 -38l-56 -128q-2 -4 1.5 -4t5.5 2q25 25 63.5 41.5
t67.5 16.5q38 0 57.5 -27t20.5 -59q1 -35 -22 -76t-63.5 -78.5t-93 -61t-111.5 -23.5zM200 21q23 0 44.5 19t38.5 48t27 61t10 58q0 17 -4 27.5t-16 10.5q-19 0 -41.5 -18t-40.5 -42q-21 -28 -35.5 -61.5t-14.5 -53.5q0 -16 6.5 -32.5t25.5 -16.5z" />
  </g>

</svg>
