<?xml version="1.0" standalone="no"?>
<!DOCTYPE svg PUBLIC "-//W3C//DTD SVG 1.1//EN" "http://www.w3.org/Graphics/SVG/1.1/DTD/svg11.dtd" >
<svg xmlns="http://www.w3.org/2000/svg" xmlns:xlink="http://www.w3.org/1999/xlink" version="1.1" viewBox="-213 0 900 1000">
  <g transform="matrix(1 0 0 -1 0 800)">
   <path fill="currentColor"
d="M-64 -200q-77 0 -108 15.5t-31 42.5q0 31 11.5 52t29.5 21q14 0 30.5 -14t34.5 -31q19 -18 37 -32.5t33 -14.5q16 0 29.5 20t28.5 61t34 105l163 526q10 32 2.5 45.5t-36.5 20.5q-15 4 -18.5 10t-1.5 12q2 7 10 11.5t22 4.5q28 0 66.5 -2.5t68.5 -2.5h160q70 0 105 7
t51 7q8 0 15 -4.5t4 -16.5q-1 -6 -2.5 -12t-3.5 -12q-5 -20 -16 -50.5t-17 -70.5q-1 -10 -6 -15t-10 -5t-8.5 4t-3.5 13q-1 26 -5.5 47t-13.5 37q-10 17 -27 26.5t-40 10.5l-50 1q-25 1 -44.5 -12.5t-26.5 -35.5q-3 -10 -11 -36t-17 -57.5t-17 -57.5t-11 -35q-4 -13 4 -22.5
t42 -9.5h27q65 0 102 60q6 9 13.5 13.5t13.5 4.5q5 0 7 -6t-2 -17q-17 -41 -28 -76t-19 -73q-3 -15 -8.5 -21.5t-10.5 -6.5q-7 0 -11.5 7t-4.5 17q0 31 -8 43.5t-27 12.5h-25.5h-35h-25.5q-17 0 -26.5 -8.5t-12.5 -19.5l-43 -150q-13 -44 -28 -81t-31.5 -67t-35.5 -55
t-41 -46q-38 -37 -87.5 -59.5t-108.5 -22.5z" />
  </g>

</svg>
