<?xml version="1.0" standalone="no"?>
<!DOCTYPE svg PUBLIC "-//W3C//DTD SVG 1.1//EN" "http://www.w3.org/Graphics/SVG/1.1/DTD/svg11.dtd" >
<svg xmlns="http://www.w3.org/2000/svg" xmlns:xlink="http://www.w3.org/1999/xlink" version="1.1" viewBox="-26 0 446 1000">
  <g transform="matrix(1 0 0 -1 0 800)">
   <path fill="currentColor"
d="M106 -14q-39 0 -66 15.5t-41.5 37.5t-14.5 43q0 23 8.5 41.5t30.5 35t60 33.5l89 40q43 20 57 42t14 45q0 22 -11.5 34.5t-37.5 12.5q-21 0 -43 -11.5t-34 -29.5q-4 -7 -11 -10t-11 -3q-5 0 -10 8.5t-8 19.5t-3 16q0 12 23 31t62.5 34.5t88.5 15.5q70 0 99.5 -27.5
t30.5 -62.5q2 -34 -27 -66t-92 -61l-80 -36q-28 -13 -42.5 -29.5t-14.5 -38.5q0 -25 15.5 -39t52.5 -14q30 0 55 14.5t50 33.5q3 2 6 5t7 3t9 -6t5 -11q0 -12 -13.5 -31t-40.5 -38.5t-67.5 -33t-94.5 -13.5zM245 469q-13 0 -14 11.5t4 22.5l73 162q9 20 18 28.5t21 8.5
q11 0 26 -9t26 -21t11 -22t-6 -20t-17 -21l-111 -123q-7 -7 -15 -12t-16 -5z" />
  </g>

</svg>
