<?xml version="1.0" standalone="no"?>
<!DOCTYPE svg PUBLIC "-//W3C//DTD SVG 1.1//EN" "http://www.w3.org/Graphics/SVG/1.1/DTD/svg11.dtd" >
<svg xmlns="http://www.w3.org/2000/svg" xmlns:xlink="http://www.w3.org/1999/xlink" version="1.1" viewBox="-10 0 450 1000">
  <g transform="matrix(1 0 0 -1 0 800)">
   <path fill="currentColor"
d="M127 -14q-22 0 -49 17t-46.5 47.5t-19.5 68.5q0 52 19.5 107.5t53.5 103.5t78 77.5t93 29.5q34 0 57.5 -19t36 -51t12.5 -71q0 -34 -10.5 -75t-31 -82.5t-49.5 -76t-65 -55.5t-79 -21zM121 115q29 0 63.5 15.5t65 40t50 52.5t19.5 53q-4 23 -21 34t-46 11
q-33 0 -66.5 -17t-62 -42.5t-46 -52.5t-17.5 -48q0 -23 17 -34.5t44 -11.5zM262 463q-10 0 -11.5 11.5t3.5 24.5q6 14 16.5 40.5t23.5 56t23.5 54.5t16.5 35q5 8 14.5 12t22.5 5q15 1 30.5 -7.5t23.5 -20.5t1 -24q-12 -21 -29 -43.5t-35.5 -45.5t-37.5 -44t-36 -38
q-7 -7 -14 -11.5t-12 -4.5z" />
  </g>

</svg>
