<?xml version="1.0" standalone="no"?>
<!DOCTYPE svg PUBLIC "-//W3C//DTD SVG 1.1//EN" "http://www.w3.org/Graphics/SVG/1.1/DTD/svg11.dtd" >
<svg xmlns="http://www.w3.org/2000/svg" xmlns:xlink="http://www.w3.org/1999/xlink" version="1.1" viewBox="-50 0 757 1000">
  <g transform="matrix(1 0 0 -1 0 800)">
   <path fill="currentColor"
d="M503 -4q-4 0 -28 0.5t-64 1.5t-89.5 2t-104.5 1q-60 0 -104 -1t-78 -3t-65 -4q-10 -1 -9.5 13.5t4.5 18.5q14 17 27.5 33t27 32.5t27.5 31.5q50 56 100.5 115t101.5 119t102.5 120t103.5 118q6 7 6.5 14t-13.5 7q-9 0 -25 -0.5t-33.5 -1.5t-33 -2t-23.5 -2
q-41 -6 -78 -24.5t-72 -61.5q-10 -13 -20 -24t-26 -11q-9 0 -10 5.5t0 12.5q2 6 4 13t6 14q18 32 28 57.5t20 50.5q7 16 13.5 22.5t18.5 6.5q32 0 72 -10t90 -10h51.5h51.5q28 0 67 1.5t76 2.5t59 1q8 0 11 -10.5t-1 -14.5l-100 -114q-44 -50 -92.5 -106.5t-98 -115
t-98.5 -116t-95 -109.5q-23 -26 6 -26q17 0 54.5 0.5t70.5 1.5q31 1 56.5 4t47 9.5t40.5 16.5q28 15 51.5 36t46.5 52q6 8 11 10t11 2t9.5 -4t1.5 -11q-4 -13 -13 -30.5t-20 -37t-22.5 -39t-22.5 -37.5q-6 -10 -15 -15t-20 -5zM318 692q-21 0 -16 13q3 8 14 16l133 96
q23 17 35 23.5t26 6.5q15 0 23 -6.5t21 -23.5l78 -95q4 -4 4 -8.5t-1 -8.5q-3 -14 -21 -14q-9 0 -30.5 9t-45 20.5t-38.5 19.5q-12 7 -26 0q-14 -6 -36 -14.5t-45.5 -16t-43.5 -12.5t-31 -5z" />
  </g>

</svg>
