<?xml version="1.0" standalone="no"?>
<!DOCTYPE svg PUBLIC "-//W3C//DTD SVG 1.1//EN" "http://www.w3.org/Graphics/SVG/1.1/DTD/svg11.dtd" >
<svg xmlns="http://www.w3.org/2000/svg" xmlns:xlink="http://www.w3.org/1999/xlink" version="1.1" viewBox="-10 0 496 1000">
  <g transform="matrix(1 0 0 -1 0 800)">
   <path fill="currentColor"
d="M369 490q-25 0 -40 16t-15 42q0 27 15 48.5t38.5 34t49.5 12.5q28 0 43.5 -15.5t15.5 -41.5q0 -39 -31.5 -67.5t-75.5 -28.5zM165 490q-25 0 -40 16t-15 42q0 27 15 48.5t38.5 34t49.5 12.5q28 0 43.5 -15.5t15.5 -41.5q0 -39 -31.5 -67.5t-75.5 -28.5zM299.176 616.225
q-12.8701 -1.80664 -15.459 9.43945q-2.58789 11.2451 0.833008 22.8301l49.7559 170.524q6.12988 21.0498 13.8584 30.7158t19.6084 11.333q10.8896 1.5293 26.9912 -5.2959q16.1006 -6.8252 28.6582 -17.1768q12.5576 -10.3506 13.9473 -20.251
q1.38965 -9.89941 -3.16113 -20.6338q-4.5498 -10.7334 -13.9111 -23.1523l-92.7949 -137.195q-5.95703 -7.90234 -13.1816 -13.9639q-7.22461 -6.0625 -15.1445 -7.17383z" />
  </g>

</svg>
