<?xml version="1.0" standalone="no"?>
<!DOCTYPE svg PUBLIC "-//W3C//DTD SVG 1.1//EN" "http://www.w3.org/Graphics/SVG/1.1/DTD/svg11.dtd" >
<svg xmlns="http://www.w3.org/2000/svg" xmlns:xlink="http://www.w3.org/1999/xlink" version="1.1" viewBox="-102 0 556 1000">
  <g transform="matrix(1 0 0 -1 0 800)">
   <path fill="currentColor"
d="M-1 -172q-34 0 -62.5 11t-27.5 24q2 17 11 30.5t22 13.5q11 0 18.5 -7.5t13.5 -15.5q5 -7 14 -11.5t18 -4.5q15 0 27 19t22 53l45 156q21 73 48 112t60 54t72 15q23 0 45 -17.5t36 -41t14 -41.5q0 -52 -15.5 -95.5t-44 -69.5t-66.5 -26q-14 0 -34.5 15.5t-33.5 37.5
l14 43q8 -9 16.5 -14t14.5 -5q19 0 37.5 12.5t34 30.5t24.5 36.5t9 31.5t-6.5 23t-19.5 11q-23 2 -43.5 -14t-35 -40.5t-20.5 -49.5q-13 -61 -33 -112t-46 -87.5t-58 -56.5t-70 -20z" />
  </g>

</svg>
