<?xml version="1.0" standalone="no"?>
<!DOCTYPE svg PUBLIC "-//W3C//DTD SVG 1.1//EN" "http://www.w3.org/Graphics/SVG/1.1/DTD/svg11.dtd" >
<svg xmlns="http://www.w3.org/2000/svg" xmlns:xlink="http://www.w3.org/1999/xlink" version="1.1" viewBox="-276 0 743 1000">
  <g transform="matrix(1 0 0 -1 0 800)">
   <path fill="currentColor"
d="M-167 -290q-55 0 -77 17.5t-21 39.5q2 19 12 32.5t22.5 21.5t20.5 8q17 0 28.5 -12t21.5 -24q9 -11 23 -19t28 -8q25 0 46.5 35.5t37.5 90.5l72 251q27 95 57.5 153.5t64 89t69.5 41t75 10.5q27 0 50 -15.5t40 -39t26.5 -49.5t9.5 -48q0 -75 -25.5 -136t-71 -97
t-107.5 -36q-15 0 -33 11.5t-36 30.5t-32 43l23 55q8 -10 15 -18t14 -12.5t14 -4.5q34 0 68 16t62.5 40.5t46 50.5t17.5 45q0 11 -4.5 23t-13.5 21t-23 9q-42 2 -79.5 -24t-65 -65.5t-41.5 -80.5l-86 -265q-7 -23 -32.5 -54t-61.5 -60t-76.5 -48t-77.5 -19zM283 476
q-25 0 -25 13q0 16 25 22q35 8 58 26.5t23 34.5q0 15 -8 23.5t-19 12.5q-13 5 -24 15.5t-11 26.5q0 29 23.5 45.5t56.5 16.5q36 0 55.5 -21.5t19.5 -58.5q0 -30 -16 -57.5t-42 -50t-56.5 -35.5t-59.5 -13z" />
  </g>

</svg>
