<?xml version="1.0" standalone="no"?>
<!DOCTYPE svg PUBLIC "-//W3C//DTD SVG 1.1//EN" "http://www.w3.org/Graphics/SVG/1.1/DTD/svg11.dtd" >
<svg xmlns="http://www.w3.org/2000/svg" xmlns:xlink="http://www.w3.org/1999/xlink" version="1.1" viewBox="-10 0 1044 1000">
  <g transform="matrix(1 0 0 -1 0 800)">
   <path fill="currentColor"
d="M233 -4q-8 0 -14.5 3.5t-6.5 10.5q2 30 -0.5 65.5t-3 67.5t5.5 49q7 18 22 18q6 0 10.5 -2.5t5.5 -11.5q3 -31 11 -44t28 -15t56 -2h94q3 0 4 1.5t-3 3.5q-51 32 -87.5 79.5t-36.5 120.5q0 65 35 123t94.5 103.5t135 71.5t155.5 26q82 0 146.5 -29t101.5 -79t38 -114
q0 -54 -20 -101t-55.5 -85.5t-80.5 -68t-95 -48.5q-5 -2 -5.5 -3.5t2.5 -1.5h83q37 0 58.5 2t38 15t38.5 45q6 9 12 11.5t12 2.5q7 0 10 -5t0 -13q-6 -17 -26 -48.5t-42 -66t-38 -60.5q-7 -13 -16 -17t-17 -4q-4 0 -26 1t-55 1q-32 0 -66.5 0.5t-68 1t-64.5 0.5q-4 0 -4.5 3
t0.5 8q4 14 18 34.5t27 29.5q44 29 82.5 80t67.5 111t44.5 118t13.5 101q-3 63 -32.5 97.5t-81.5 34.5q-51 0 -97 -33.5t-81.5 -89t-56 -122.5t-20.5 -134q0 -45 9 -86t28 -77q7 -12 8 -32t-3 -32q-1 -5 -3.5 -8t-6.5 -3h-38t-37.5 -0.5t-36.5 -0.5q-22 0 -43 -0.5t-39 -0.5
q-36 0 -59.5 -1t-28.5 -1zM257 443q-11 0 -13.5 10.5t4.5 29.5q5 12 15 36.5t21.5 52t22.5 51.5t17 35q8 13 21 20t29 7q20 0 31.5 -12.5t11.5 -36.5q0 -13 -13.5 -34.5t-33 -45t-40.5 -46t-36 -39.5q-14 -16 -23 -22t-14 -6zM160 447q-36 0 -63.5 25.5t-27.5 68.5
q0 42 20 73.5t51.5 49t65.5 17.5q29 0 43.5 -11t14.5 -28q0 -47 -55 -55q-38 -5 -54 -19t-16 -40q0 -14 6.5 -25t25.5 -19t19 -20q0 -5 -7 -11t-23 -6z" />
  </g>

</svg>
