<?xml version="1.0" standalone="no"?>
<!DOCTYPE svg PUBLIC "-//W3C//DTD SVG 1.1//EN" "http://www.w3.org/Graphics/SVG/1.1/DTD/svg11.dtd" >
<svg xmlns="http://www.w3.org/2000/svg" xmlns:xlink="http://www.w3.org/1999/xlink" version="1.1" viewBox="-10 0 505 1000">
  <g transform="matrix(1 0 0 -1 0 800)">
   <path fill="currentColor"
d="M157 -15q-31 0 -58 18t-41 44t-7 49q5 14 15.5 35.5t23.5 45.5t24.5 45.5t17.5 35.5q14 35 5 52.5t-34 17.5q-17 0 -30 -3.5t-21 -7t-12 -3.5q-6 0 -8 2.5t0 10.5q6 20 31.5 46t62 45t73.5 19q14 0 27 -11.5t20 -27.5t2 -30q-6 -15 -20 -40t-31 -53.5t-32 -57t-22 -51.5
q-8 -28 4 -39t40 -11q41 0 75 24.5t59 64.5t39.5 87t15.5 93q0 23 -3.5 38.5t-2.5 18.5q2 4 7.5 6t9.5 2q22 0 40.5 -14.5t30.5 -37t12 -46.5q0 -52 -17.5 -104t-48.5 -99.5t-71 -84t-85 -58t-91 -21.5zM430 473q-7 0 -12 9t-9 27q-4 22 -10.5 53t-11 58t-4.5 36
q0 12 11.5 25.5t28 23t29.5 9.5q11 0 22 -6.5t11 -23.5q0 -9 -3 -32t-8 -50t-9.5 -51.5t-7.5 -36.5q-5 -21 -12 -31t-15 -10zM245 477q-36 0 -63.5 25.5t-27.5 68.5q0 42 20 73.5t51.5 49t65.5 17.5q29 0 43.5 -11t14.5 -28q0 -47 -55 -55q-38 -5 -54 -19t-16 -40
q0 -14 6.5 -25t25.5 -19t19 -20q0 -5 -7 -11t-23 -6z" />
  </g>

</svg>
