<?xml version="1.0" standalone="no"?>
<!DOCTYPE svg PUBLIC "-//W3C//DTD SVG 1.1//EN" "http://www.w3.org/Graphics/SVG/1.1/DTD/svg11.dtd" >
<svg xmlns="http://www.w3.org/2000/svg" xmlns:xlink="http://www.w3.org/1999/xlink" version="1.1" viewBox="-10 0 732 1000">
  <g transform="matrix(1 0 0 -1 0 800)">
   <path fill="currentColor"
d="M190 -3q-6 0 -10.5 4t-2.5 11q6 17 26 22q41 9 58 20.5t27 42.5l141 454q10 32 1 44.5t-47 22.5q-8 2 -11.5 7.5t-0.5 14.5q2 7 9.5 11t13.5 4q22 0 49 -1t53 -2.5t46 -1.5t48.5 1t58 2t50.5 1q16 0 11 -15q-3 -10 -9 -14t-17 -7q-30 -8 -46.5 -16t-25 -20t-14.5 -32
l-126 -408q-12 -40 -15 -60t6.5 -28.5t31.5 -14.5q23 -6 29.5 -11t3.5 -15q-2 -7 -7.5 -11t-13.5 -4q-21 0 -52.5 1t-62 2t-50.5 1q-30 0 -74.5 -2.5t-77.5 -2.5zM176 404q-24 0 -24 16q0 7 6 11t18 9q23 10 30.5 21.5t7.5 25.5q0 12 -6 18.5t-19 13.5q-18 11 -27.5 19.5
t-8.5 28.5q1 18 16 30.5t43 12.5q38 0 65.5 -23.5t27.5 -64.5q0 -36 -19.5 -62.5t-49 -41t-60.5 -14.5zM123 609q-4 0 -13.5 8t-9.5 12q0 6 12 24t29 39.5t32.5 37t21.5 15.5q10 0 24 -3t48 -5q23 -1 42 -2.5t28 -1.5q18 0 35 20q10 12 14.5 18.5t8.5 6.5q5 0 14 -7.5
t9 -12.5q0 -4 -6 -12t-15 -21q-11 -16 -22.5 -34.5t-20.5 -32.5q-6 -9 -15 -11.5t-16 -2.5q-9 0 -30 1.5t-46 3t-46.5 3t-30.5 1.5q-11 0 -19 -11q-13 -18 -18.5 -25.5t-9.5 -7.5z" />
  </g>

</svg>
