<?xml version="1.0" standalone="no"?>
<!DOCTYPE svg PUBLIC "-//W3C//DTD SVG 1.1//EN" "http://www.w3.org/Graphics/SVG/1.1/DTD/svg11.dtd" >
<svg xmlns="http://www.w3.org/2000/svg" xmlns:xlink="http://www.w3.org/1999/xlink" version="1.1" viewBox="-136 0 635 1000">
  <g transform="matrix(1 0 0 -1 0 800)">
   <path fill="currentColor"
d="M-46 -289q-30 0 -55 17t-25 51q0 19 9 37t24 30t32 12q11 0 24 -7.5t25 -16.5q13 -9 27.5 -17t33.5 -8q29 0 56 27t46 71q18 41 27 95t9 113q0 85 -9.5 135t-21.5 72t-22 22q-8 0 -18.5 -13t-20 -29t-14.5 -26q-2 -4 -7.5 -12.5t-11.5 -8.5q-3 0 -6 7.5t-3 20.5
q0 29 14.5 57t37 52t48.5 38t49 14q31 0 48.5 -20.5t30.5 -58.5q14 -43 24 -112t5 -169q-1 -18 3.5 -17t11.5 14q35 67 45.5 147.5t8.5 188.5q0 9 14 18t23 9q10 0 26.5 -9.5t30.5 -25t14 -35.5q0 -62 -36 -144.5t-101 -175t-151 -184.5q-40 -43 -85 -79.5t-86.5 -58
t-73.5 -21.5zM315 480q-34 0 -61 17.5t-27 48.5q0 37 19.5 67.5t53 48.5t73.5 18q34 0 61 -17.5t27 -49.5q0 -36 -19 -66t-52 -48.5t-75 -18.5zM330 518q18 0 32.5 14.5t23 34t8.5 34.5q0 17 -9.5 27t-26.5 10q-18 0 -32.5 -13.5t-23.5 -32t-9 -34.5q0 -17 9.5 -28.5
t27.5 -11.5z" />
  </g>

</svg>
