<?xml version="1.0" standalone="no"?>
<!DOCTYPE svg PUBLIC "-//W3C//DTD SVG 1.1//EN" "http://www.w3.org/Graphics/SVG/1.1/DTD/svg11.dtd" >
<svg xmlns="http://www.w3.org/2000/svg" xmlns:xlink="http://www.w3.org/1999/xlink" version="1.1" viewBox="-10 0 1016 1000">
  <g transform="matrix(1 0 0 -1 0 800)">
   <path fill="currentColor"
d="M578 -14q-67 0 -121 32t-86 90t-32 134q0 83 32.5 159t90 135t133 93.5t161.5 34.5q67 0 121.5 -32t86.5 -89.5t32 -134.5q0 -82 -33 -158t-90.5 -135.5t-133 -94t-161.5 -34.5zM577 25q41 0 80 30.5t73 81t60 110.5t40.5 119t14.5 107q0 42 -9.5 77.5t-29.5 57t-51 21.5
q-41 0 -80 -31t-72.5 -82t-59 -111.5t-40 -120.5t-14.5 -108q0 -41 9 -75.5t28.5 -55t50.5 -20.5zM342 433q-7 0 -12 9t-9 27q-4 22 -10.5 53t-11 58t-4.5 36q0 12 11.5 25.5t28 23t29.5 9.5q11 0 22 -6.5t11 -23.5q0 -9 -3 -32t-8 -50t-9.5 -51.5t-7.5 -36.5
q-5 -21 -12 -31t-15 -10zM157 437q-36 0 -63.5 25.5t-27.5 68.5q0 42 20 73.5t51.5 49t65.5 17.5q29 0 43.5 -11t14.5 -28q0 -47 -55 -55q-38 -5 -54 -19t-16 -40q0 -14 6.5 -25t25.5 -19t19 -20q0 -5 -7 -11t-23 -6z" />
  </g>

</svg>
