<?xml version="1.0" standalone="no"?>
<!DOCTYPE svg PUBLIC "-//W3C//DTD SVG 1.1//EN" "http://www.w3.org/Graphics/SVG/1.1/DTD/svg11.dtd" >
<svg xmlns="http://www.w3.org/2000/svg" xmlns:xlink="http://www.w3.org/1999/xlink" version="1.1" viewBox="-10 0 730 1000">
  <g transform="matrix(1 0 0 -1 0 800)">
   <path fill="currentColor"
d="M292 -14q-67 0 -121 32t-86 90t-32 134q0 83 32.5 159t90 135t133 93.5t161.5 34.5q67 0 121.5 -32t86.5 -89.5t32 -134.5q0 -82 -33 -158t-90.5 -135.5t-133 -94t-161.5 -34.5zM291 25q41 0 80 30.5t73 81t60 110.5t40.5 119t14.5 107q0 42 -9.5 77.5t-29.5 57t-51 21.5
q-41 0 -80 -31t-72.5 -82t-59 -111.5t-40 -120.5t-14.5 -108q0 -41 9 -75.5t28.5 -55t50.5 -20.5zM503 683q-10 0 -19 12.5t-9 23.5q0 13 11 20.5t22 14.5t20 13.5t9 17.5q0 5 -3.5 9.5t-11.5 4.5q-13 0 -23 -9t-21 -18q-10 -8 -18.5 -13.5t-19.5 -5.5t-18 12.5t-7 22.5
q0 12 9.5 22.5t20.5 15.5q23 11 48 17t63 6q34 0 59 -13t25 -38t-24.5 -40.5t-47.5 -21.5q-12 -3 -19 -7t-9 -13q-1 -5 -2 -10.5t-2 -10.5q-1 -4 -14 -8t-19 -4z" />
  </g>

</svg>
