<?xml version="1.0" standalone="no"?>
<!DOCTYPE svg PUBLIC "-//W3C//DTD SVG 1.1//EN" "http://www.w3.org/Graphics/SVG/1.1/DTD/svg11.dtd" >
<svg xmlns="http://www.w3.org/2000/svg" xmlns:xlink="http://www.w3.org/1999/xlink" version="1.1" viewBox="-10 0 612 1000">
  <g transform="matrix(1 0 0 -1 0 800)">
   <path fill="currentColor"
d="M165 -14q-41 0 -77 18.5t-58 51.5t-22 78q0 46 20 98.5t59 99t95 76t128 29.5q70 0 113.5 -38.5t43.5 -109.5q0 -46 -20 -98.5t-59 -99t-95 -76t-128 -29.5zM185 27q19 0 38.5 22.5t37.5 59.5t32 81.5t22.5 89t8.5 80.5q0 20 -8 29.5t-24 9.5t-35 -22.5t-37.5 -59.5
t-33.5 -81.5t-24.5 -88.5t-9.5 -80q0 -20 9.5 -30t23.5 -10zM332 652q7 0 14 -7.5t10 -14.5l10 -20l23.5 -47t22.5 -48q2 -5 4.5 -13.5t2.5 -16.5q0 -10 -4.5 -16.5t-13.5 -6.5q-8 0 -13.5 6.5t-12.5 14.5q-17 20 -28 33.5t-24 31.5q-6 8 -10.5 7.5t-15.5 -7.5
q-26 -17 -42 -28.5t-44 -31.5q-16 -11 -28.5 -18.5t-22.5 -7.5q-12 0 -12 13q0 5 5.5 15.5t20.5 27.5q15 16 35.5 36t39.5 38.5t32 30l13 11.5q7 7 18.5 12.5t19.5 5.5zM446 569q-11 0 -19 12.5t-8 25.5q0 16 10 25t25 20q13 10 24.5 18t11.5 21q0 5 -4 10t-13 5
q-10 0 -23.5 -10.5t-37.5 -30.5q-4 -4 -11.5 -8.5t-14.5 -4.5q-10 0 -15 13t-5 24t12 25t20 18q23 11 48.5 21t62.5 10t60 -15.5t23 -41.5q0 -28 -27 -48t-58 -30q-12 -4 -16 -7.5t-6 -8.5q-2 -6 -2.5 -13.5t-2.5 -13.5t-13 -11t-21 -5z" />
  </g>

</svg>
