<?xml version="1.0" standalone="no"?>
<!DOCTYPE svg PUBLIC "-//W3C//DTD SVG 1.1//EN" "http://www.w3.org/Graphics/SVG/1.1/DTD/svg11.dtd" >
<svg xmlns="http://www.w3.org/2000/svg" xmlns:xlink="http://www.w3.org/1999/xlink" version="1.1" viewBox="-12 0 374 1000">
  <g transform="matrix(1 0 0 -1 0 800)">
   <path fill="currentColor"
d="M115 -14q-26 0 -53 15t-45.5 38t-18.5 47q0 28 10.5 47.5t29 35t42.5 27.5q7 4 8.5 11t-5.5 11q-14 9 -24.5 18t-10.5 25q0 38 20.5 70t54 56t73.5 37t78 13q32 0 54.5 -10t22.5 -29q0 -16 -9 -33.5t-22 -30t-26 -12.5q-12 0 -28.5 2.5t-27.5 1.5q-41 -1 -68 -14
t-40.5 -30t-13.5 -30q0 -11 5 -15t13 -4q14 10 42.5 23t59 23t48.5 10q10 0 19.5 -8.5t9.5 -16.5q0 -17 -10 -38t-24.5 -35.5t-28.5 -14.5q-27 0 -59 2t-52 5q-13 -3 -23.5 -11.5t-16.5 -18t-6 -17.5q0 -15 12 -25t43 -10q21 0 45.5 7t47.5 16t39.5 16t21.5 7q13 0 13 -14
q0 -22 -15.5 -47t-43 -48t-63.5 -37.5t-78 -14.5zM252 467q-5 0 -11.5 7t-11.5 17q-10 21 -20.5 45.5t-19.5 47.5t-14.5 40.5t-5.5 25.5q0 20 16.5 38t39.5 18q13 0 20.5 -9t8.5 -23q2 -12 4.5 -36t5.5 -52t4.5 -53.5t-0.5 -40.5q-1 -15 -5 -20t-11 -5z" />
  </g>

</svg>
