<?xml version="1.0" standalone="no"?>
<!DOCTYPE svg PUBLIC "-//W3C//DTD SVG 1.1//EN" "http://www.w3.org/Graphics/SVG/1.1/DTD/svg11.dtd" >
<svg xmlns="http://www.w3.org/2000/svg" xmlns:xlink="http://www.w3.org/1999/xlink" version="1.1" viewBox="-58 0 920 1000">
  <g transform="matrix(1 0 0 -1 0 800)">
   <path fill="currentColor"
d="M-34 -5q-6 0 -10.5 4t-2.5 11q6 17 26 22q41 9 58 20.5t27 42.5l142 456q10 32 1 44.5t-47 22.5q-8 2 -11.5 7.5t-0.5 14.5q2 7 9.5 11t13.5 4q22 0 49 -1t53 -2.5t46 -1.5q16 0 39.5 1.5t49 2.5t46.5 1q17 0 36.5 -1t39.5 -1.5t39 -1.5t34 -1q20 0 48.5 1t57.5 2t50 1
q16 0 11 -15q-3 -10 -9 -14t-16 -7q-30 -8 -46.5 -16t-25 -20t-14.5 -32l-142 -459q-8 -28 0.5 -39.5t33.5 -11.5h38q40 0 73.5 9t58.5 26q29 20 50 47.5t37 61.5q4 8 10 14t12 6q5 0 8.5 -6.5t3.5 -13.5q0 -16 -6.5 -39.5t-16.5 -48.5t-20.5 -47t-19.5 -35q-4 -7 -9 -13
t-14 -6q-14 0 -53.5 1t-92.5 1.5t-108.5 1.5t-100.5 1q-26 0 -64.5 0.5t-81 0.5t-79 0.5t-57.5 0.5q-20 0 -47.5 -1.5t-55.5 -3.5t-50 -2zM283 40q29 0 43 15.5t23 43.5l140 451q9 30 2.5 46.5t-38.5 16.5q-40 0 -54.5 -17.5t-23.5 -46.5l-125 -403q-20 -65 -14 -85.5
t47 -20.5z" />
  </g>

</svg>
