<?xml version="1.0" standalone="no"?>
<!DOCTYPE svg PUBLIC "-//W3C//DTD SVG 1.1//EN" "http://www.w3.org/Graphics/SVG/1.1/DTD/svg11.dtd" >
<svg xmlns="http://www.w3.org/2000/svg" xmlns:xlink="http://www.w3.org/1999/xlink" version="1.1" viewBox="-10 0 882 1000">
  <g transform="matrix(1 0 0 -1 0 800)">
   <path fill="currentColor"
d="M182 -18q-37 0 -42 39t8 101q23 113 40 218.5t29 213.5q3 27 -6.5 40.5t-30.5 20.5q-16 6 -26.5 9.5t-10.5 13.5q0 8 9 12t25 4q32 0 74 -2t71 -2q20 0 49 1.5t58.5 2.5t51.5 1q8 0 16 -4t6 -11q-3 -9 -14 -14.5t-21 -7.5q-36 -8 -50.5 -19.5t-20.5 -43.5l-71 -379
q-1 -4 -0.5 -5.5t2.5 -1.5t3 2t5 6l242 287q44 52 56.5 83t3 47t-33.5 24q-9 3 -17.5 8t-5.5 14q2 7 13 10.5t21 3.5q33 0 54.5 -1.5t51.5 -1.5q29 0 54 3t56 3q11 0 21 -4t10 -12q0 -10 -14 -14t-24 -7q-32 -8 -61 -29.5t-55 -50.5l-359 -404q-18 -21 -42.5 -47
t-49.5 -50.5t-45 -40.5t-30 -16zM115 -208q-31 0 -52 19.5t-21 43.5q0 41 32.5 70t82.5 29q32 0 52 -21.5t20 -48.5q0 -24 -16 -45t-42 -34t-56 -13z" />
  </g>

</svg>
