<?xml version="1.0" standalone="no"?>
<!DOCTYPE svg PUBLIC "-//W3C//DTD SVG 1.1//EN" "http://www.w3.org/Graphics/SVG/1.1/DTD/svg11.dtd" >
<svg xmlns="http://www.w3.org/2000/svg" xmlns:xlink="http://www.w3.org/1999/xlink" version="1.1" viewBox="-38 0 590 1000">
  <g transform="matrix(1 0 0 -1 0 800)">
   <path fill="currentColor"
d="M36 -14q-14 0 -29 8t-25 20.5t-10 23.5q0 29 16.5 63.5t57.5 87t114 136.5q41 47 80 77t58 30q29 0 66 -29q5 -5 6.5 -6t2.5 -1q2 0 2.5 0.5t3.5 6.5q6 12 9 18.5t6 13.5q5 12 27 12q17 0 36 -8t32.5 -19t13.5 -21q0 -6 -1 -7l-97 -266q-8 -24 10 -24q10 0 33.5 17
t48.5 42l3 3h1q5 0 9 -5t4 -12q0 -16 -20 -41.5t-53 -52.5q-38 -31 -74.5 -49t-59.5 -18q-16 0 -33 9t-28 22.5t-11 26.5q0 6 5 23q3 9 7 19l8 20t8.5 20t8.5 20q2 4 -2 6t-6 0q-49 -57 -90.5 -94t-75 -54.5t-62.5 -17.5zM152 101q16 0 51.5 30.5t70.5 74.5q31 38 49 67.5
t18 41.5q0 9 -22 27q-10 8 -21 13.5t-18 5.5q-15 0 -41 -18t-49 -41q-18 -18 -33.5 -46.5t-25 -60t-9.5 -58.5q0 -17 8 -26.5t22 -9.5zM140 -203q-24 0 -40 18.5t-16 41.5q0 36 26 64t64 28q26 0 40 -21t14 -44q0 -34 -26 -60.5t-62 -26.5zM403 698q10 0 15 -10.5t11 -32.5
q4 -17 9.5 -33.5t10.5 -33t9.5 -33t7.5 -33.5q4 -18 -1 -31.5t-21 -13.5t-32 35q-6 13 -15.5 30t-22.5 37q-4 6 -12 0q-23 -20 -45 -38t-36 -30q-20 -17 -33 -25.5t-20 -8.5q-11 0 -11 13q0 6 3.5 14t11.5 18q19 22 39 44.5l40 45t40 45.5q17 19 29 30t23 11z" />
  </g>

</svg>
