<?xml version="1.0" standalone="no"?>
<!DOCTYPE svg PUBLIC "-//W3C//DTD SVG 1.1//EN" "http://www.w3.org/Graphics/SVG/1.1/DTD/svg11.dtd" >
<svg xmlns="http://www.w3.org/2000/svg" xmlns:xlink="http://www.w3.org/1999/xlink" version="1.1" viewBox="-10 0 1045 1000">
  <g transform="matrix(1 0 0 -1 0 800)">
   <path fill="currentColor"
d="M337 -3q-6 0 -10.5 4t-3.5 11q6 17 26 22q41 8 58.5 20t27.5 43l58 182q23 72 29.5 128t-2 95t-30.5 59.5t-58 20.5q-30 0 -57 -7t-51 -20q-9 -4 -15.5 -2t-6.5 12q0 12 16 28.5t44 32.5t63.5 27t74.5 11q43 0 73 -10.5t49 -29.5t27.5 -45t9.5 -57q0 -3 2.5 -4t4.5 3
q31 52 76 83.5t91 45.5t80 14q49 0 80.5 -21t31.5 -43q0 -12 -9 -15t-17 1q-22 11 -41.5 16t-39.5 5q-26 0 -51.5 -13t-50 -36t-46.5 -53q-22 -29 -41 -62.5t-34 -68.5t-26 -70l-64 -206q-8 -28 1 -40.5t44 -23.5q8 -3 12 -7t1 -14q-2 -7 -7.5 -11t-13.5 -4q-21 0 -49.5 1
t-56.5 2t-48 1q-30 0 -74 -2.5t-77 -2.5zM193 436q-36 0 -63.5 25.5t-27.5 68.5q0 42 20 73.5t51.5 49t65.5 17.5q29 0 43.5 -11t14.5 -28q0 -47 -55 -55q-38 -5 -54 -19t-16 -40q0 -14 6.5 -25t25.5 -19t19 -20q0 -5 -7 -11t-23 -6z" />
  </g>

</svg>
