<?xml version="1.0" standalone="no"?>
<!DOCTYPE svg PUBLIC "-//W3C//DTD SVG 1.1//EN" "http://www.w3.org/Graphics/SVG/1.1/DTD/svg11.dtd" >
<svg xmlns="http://www.w3.org/2000/svg" xmlns:xlink="http://www.w3.org/1999/xlink" version="1.1" viewBox="-64 0 881 1000">
  <g transform="matrix(1 0 0 -1 0 800)">
   <path fill="currentColor"
d="M416 -14q-26 0 -52.5 4t-43.5 9q-11 4 -17 15t-6 33q0 20 1 40t4 38t7 31q3 9 7.5 14.5t13.5 5.5q6 0 11 -6.5t5 -16.5q1 -21 7.5 -50.5t22 -52t42.5 -22.5q47 0 80.5 22.5t51.5 62t18 90.5q0 44 -23 70.5t-62.5 38.5t-87.5 12q-3 0 -10.5 1.5t-0.5 8.5l234 264
q8 10 -5 17q-9 5 -24 7.5t-29 2.5q-49 0 -95 -23.5t-85 -77.5t-69 -148q-7 -22 -18 -59.5t-23 -79.5t-23 -79t-18 -60q-8 -27 -2.5 -39t31.5 -22q13 -5 13 -15q0 -12 -6 -18t-16 -6q-31 0 -69.5 2t-67.5 2q-30 0 -74.5 -2.5t-77.5 -2.5q-6 0 -10.5 4t-2.5 11q3 9 9.5 14.5
t16.5 7.5q41 9 58.5 20.5t26.5 42.5l86 297q23 78 76.5 139t142 96t214.5 35q74 0 129 -13.5t79 -24.5q20 -9 21.5 -19.5t-7.5 -21.5l-41 -46q-45 -50 -79.5 -92t-72.5 -84q-3 -3 -3 -7t4 -5q47 -11 75.5 -32.5t41.5 -49t13 -56.5q0 -55 -23 -97.5t-66 -71.5t-102 -43.5
t-130 -14.5z" />
  </g>

</svg>
