<?xml version="1.0" standalone="no"?>
<!DOCTYPE svg PUBLIC "-//W3C//DTD SVG 1.1//EN" "http://www.w3.org/Graphics/SVG/1.1/DTD/svg11.dtd" >
<svg xmlns="http://www.w3.org/2000/svg" xmlns:xlink="http://www.w3.org/1999/xlink" version="1.1" viewBox="-56 0 562 1000">
  <g transform="matrix(1 0 0 -1 0 800)">
   <path fill="currentColor"
d="M72 -286q-56 0 -87 26.5t-31 71.5q0 56 41.5 90t104.5 34q23 0 45.5 -6.5t42.5 -17.5l15 33q7 15 10.5 28.5t3.5 25.5q0 16 -5 29.5t-11 26.5l-124 277q-10 23 -21 38.5t-30 22.5q-10 4 -14 8.5t-4 13.5q0 8 9 10t16 2q25 0 43 -1t32 -2t27 -1q22 0 38.5 1t35 2t42.5 1
q7 0 15.5 -3t8.5 -11q0 -9 -7 -12t-15 -7q-11 -4 -17.5 -12.5t-6.5 -26.5q0 -9 2.5 -20.5t9.5 -29.5l53 -128q2 -4 4 0l51 134q3 8 5 19.5t2 20.5q0 17 -10 28t-21 15q-8 3 -15 6.5t-7 12.5q0 8 8.5 11t15.5 3q30 -1 45 -2.5t28 -1.5q12 0 27 1.5t44 2.5q7 0 16 -2t9 -10
q0 -9 -4 -13.5t-14 -8.5q-19 -7 -33.5 -22.5t-24.5 -38.5l-152 -366l-37 -88q37 -36 57 -68t20 -40q0 -10 -3 -21t-14 -11q-9 0 -16 7.5t-13 15.5q-6 9 -19.5 27.5t-32.5 39.5v-1q-19 -46 -43.5 -70.5t-49 -33.5t-45.5 -9zM81 -228q14 0 31.5 11t27.5 34l20 43
q-17 8 -35.5 14t-39.5 6q-22 0 -42 -16.5t-20 -40.5q0 -22 12.5 -36.5t45.5 -14.5z" />
  </g>

</svg>
