<?xml version="1.0" standalone="no"?>
<!DOCTYPE svg PUBLIC "-//W3C//DTD SVG 1.1//EN" "http://www.w3.org/Graphics/SVG/1.1/DTD/svg11.dtd" >
<svg xmlns="http://www.w3.org/2000/svg" xmlns:xlink="http://www.w3.org/1999/xlink" version="1.1" viewBox="-181 0 611 1000">
  <g transform="matrix(1 0 0 -1 0 800)">
   <path fill="currentColor"
d="M-128 480q-25 0 -35.5 25t-5 62t26.5 74t59 62t93 25q41 0 59.5 -14.5t25 -33.5t12.5 -35q5 -12 14 -12q2 0 5.5 1.5t10.5 8.5q11 11 29.5 27.5t34.5 31.5q8 8 16 11.5t10 3.5q8 0 13 -13q9 -24 19 -53t20.5 -50.5t20.5 -21.5q15 0 27 10t19 22t6 16q-1 10 -4 16.5
t-8 12.5q-5 8 -9 16.5t0 22.5q4 11 17 21t30 10q29 0 37.5 -22.5t0.5 -55.5t-29.5 -66.5t-53.5 -56t-72 -22.5q-27 0 -47 11t-33.5 30.5t-23.5 44.5q-5 13 -10 13q-7 0 -18 -10l-70 -59q-18 -15 -24 -15q-8 0 -13 16q-5 19 -13 46t-19.5 48.5t-28.5 21.5q-22 0 -36.5 -11.5
t-21.5 -26.5t-7 -28q0 -14 8 -22t12 -13q5 -7 6 -15.5t-2 -19.5q-5 -18 -20.5 -26t-27.5 -8z" />
  </g>

</svg>
