<?xml version="1.0" standalone="no"?>
<!DOCTYPE svg PUBLIC "-//W3C//DTD SVG 1.1//EN" "http://www.w3.org/Graphics/SVG/1.1/DTD/svg11.dtd" >
<svg xmlns="http://www.w3.org/2000/svg" xmlns:xlink="http://www.w3.org/1999/xlink" version="1.1" viewBox="-10 0 469 1000">
  <g transform="matrix(1 0 0 -1 0 800)">
   <path fill="currentColor"
d="M127 -14q-22 0 -49 17t-46.5 47.5t-19.5 68.5q0 52 19.5 107.5t53.5 103.5t78 77.5t93 29.5q34 0 57.5 -19t36 -51t12.5 -71q0 -34 -10.5 -75t-31 -82.5t-49.5 -76t-65 -55.5t-79 -21zM121 115q29 0 63.5 15.5t65 40t50 52.5t19.5 53q-4 23 -21 34t-46 11
q-33 0 -66.5 -17t-62 -42.5t-46 -52.5t-17.5 -48q0 -23 17 -34.5t44 -11.5zM394 473q-7 0 -12 9t-9 27q-4 22 -10.5 53t-11 58t-4.5 36q0 12 11.5 25.5t28 23t29.5 9.5q11 0 22 -6.5t11 -23.5q0 -9 -3 -32t-8 -50t-9.5 -51.5t-7.5 -36.5q-5 -21 -12 -31t-15 -10zM209 477
q-36 0 -63.5 25.5t-27.5 68.5q0 42 20 73.5t51.5 49t65.5 17.5q29 0 43.5 -11t14.5 -28q0 -47 -55 -55q-38 -5 -54 -19t-16 -40q0 -14 6.5 -25t25.5 -19t19 -20q0 -5 -7 -11t-23 -6z" />
  </g>

</svg>
