<?xml version="1.0" standalone="no"?>
<!DOCTYPE svg PUBLIC "-//W3C//DTD SVG 1.1//EN" "http://www.w3.org/Graphics/SVG/1.1/DTD/svg11.dtd" >
<svg xmlns="http://www.w3.org/2000/svg" xmlns:xlink="http://www.w3.org/1999/xlink" version="1.1" viewBox="-57 0 556 1000">
  <g transform="matrix(1 0 0 -1 0 800)">
   <path fill="currentColor"
d="M-33 -3q-6 0 -10.5 4t-2.5 11q6 17 26 22q41 9 58 20.5t27 42.5l141 454q10 32 1 44.5t-47 22.5q-8 2 -11.5 7.5t-0.5 14.5q2 7 9.5 11t13.5 4q22 0 49 -1t53 -2.5t46 -1.5t48.5 1t58 2t50.5 1q16 0 11 -15q-3 -10 -9 -14t-17 -7q-30 -8 -46.5 -16t-25 -20t-14.5 -32
l-126 -408q-12 -40 -15 -60t6.5 -28.5t31.5 -14.5q23 -6 29.5 -11t3.5 -15q-2 -7 -7.5 -11t-13.5 -4q-21 0 -52.5 1t-62 2t-50.5 1q-30 0 -74.5 -2.5t-77.5 -2.5zM329 683q-10 0 -19 12.5t-9 23.5q0 13 11 20.5t22 14.5t20 13.5t9 17.5q0 5 -3.5 9.5t-11.5 4.5q-13 0 -23 -9
t-21 -18q-10 -8 -18.5 -13.5t-19.5 -5.5t-18 12.5t-7 22.5q0 12 9.5 22.5t20.5 15.5q23 11 48 17t63 6q34 0 59 -13t25 -38t-24.5 -40.5t-47.5 -21.5q-12 -3 -19 -7t-9 -13q-1 -5 -2 -10.5t-2 -10.5q-1 -4 -14 -8t-19 -4z" />
  </g>

</svg>
