<?xml version="1.0" standalone="no"?>
<!DOCTYPE svg PUBLIC "-//W3C//DTD SVG 1.1//EN" "http://www.w3.org/Graphics/SVG/1.1/DTD/svg11.dtd" >
<svg xmlns="http://www.w3.org/2000/svg" xmlns:xlink="http://www.w3.org/1999/xlink" version="1.1" viewBox="-10 0 984 1000">
  <g transform="matrix(1 0 0 -1 0 800)">
   <path fill="currentColor"
d="M546 -14q-67 0 -121 32t-86 90t-32 134q0 83 32.5 159t90 135t133 93.5t161.5 34.5q67 0 121.5 -32t86.5 -89.5t32 -134.5q0 -82 -33 -158t-90.5 -135.5t-133 -94t-161.5 -34.5zM545 25q41 0 80 30.5t73 81t60 110.5t40.5 119t14.5 107q0 42 -9.5 77.5t-29.5 57t-51 21.5
q-41 0 -80 -31t-72.5 -82t-59 -111.5t-40 -120.5t-14.5 -108q0 -41 9 -75.5t28.5 -55t50.5 -20.5zM319 433q-7 0 -12 9t-9 27q-4 22 -10.5 53t-11 58t-4.5 36q0 12 11.5 25.5t28 23t29.5 9.5q11 0 22 -6.5t11 -23.5q0 -9 -3 -32t-8 -50t-9.5 -51.5t-7.5 -36.5
q-5 -21 -12 -31t-15 -10zM67 436q-25 0 -25 13q0 16 25 22q35 8 58 26.5t23 34.5q0 15 -8 23.5t-19 12.5q-13 5 -24 15.5t-11 26.5q0 29 23.5 45.5t56.5 16.5q36 0 55.5 -21.5t19.5 -58.5q0 -30 -16 -57.5t-42 -50t-56.5 -35.5t-59.5 -13z" />
  </g>

</svg>
