<?xml version="1.0" standalone="no"?>
<!DOCTYPE svg PUBLIC "-//W3C//DTD SVG 1.1//EN" "http://www.w3.org/Graphics/SVG/1.1/DTD/svg11.dtd" >
<svg xmlns="http://www.w3.org/2000/svg" xmlns:xlink="http://www.w3.org/1999/xlink" version="1.1" viewBox="-10 0 1056 1000">
  <g transform="matrix(1 0 0 -1 0 800)">
   <path fill="currentColor"
d="M99 -3q-6 0 -10.5 4t-2.5 11q3 9 9.5 14.5t16.5 7.5q36 8 52.5 20t26.5 43l141 454q10 32 1.5 45t-41.5 22q-8 2 -11.5 7.5t-0.5 14.5q2 7 9.5 11t13.5 4q22 0 47.5 -1t50 -2.5t44.5 -1.5t48.5 1t58 2t50.5 1q16 0 11 -15q-3 -10 -9 -14t-17 -7q-30 -8 -46.5 -16t-25 -20
t-14.5 -32l-55 -181q-4 -15 11 -15h227q15 0 19 15l55 181q9 30 1 41.5t-45 26.5q-7 3 -11 7t-1 14q2 8 8 11.5t13 3.5q21 0 49.5 -1t56.5 -2t47 -1q20 0 45.5 1.5t52 2.5t48.5 1q6 0 10.5 -4t2.5 -11q-6 -17 -26 -22q-37 -9 -53.5 -22t-26.5 -45l-141 -454q-10 -31 0 -43
t41 -20q8 -2 11.5 -7.5t0.5 -14.5q-2 -7 -9.5 -11t-13.5 -4q-19 0 -44.5 1.5t-51.5 2.5t-46 1q-19 0 -48 -1t-58.5 -2t-50.5 -1q-15 0 -11 15q3 10 9.5 14t16.5 7q42 12 59 24t25 40l58 191q3 8 1.5 12.5t-9.5 4.5h-227q-17 0 -22 -17l-58 -191q-8 -28 1.5 -39t44.5 -25
q8 -3 11.5 -7t0.5 -14q-2 -7 -7.5 -11t-13.5 -4q-21 0 -49.5 1t-56 2t-47.5 1t-47 -1t-53.5 -2.5t-45.5 -1.5zM64 426q-25 0 -25 13q0 16 25 22q35 8 58 26.5t23 34.5q0 15 -8 23.5t-19 12.5q-13 5 -24 15.5t-11 26.5q0 29 23.5 45.5t56.5 16.5q36 0 55.5 -21.5t19.5 -58.5
q0 -30 -16 -57.5t-42 -50t-56.5 -35.5t-59.5 -13zM394 -252q-29 0 -49 15t-20 46q0 33 11.5 67.5t32 57.5t46.5 23q15 0 32.5 -3.5t28.5 -10t5 -15.5q-13 -22 -21 -41.5t-8 -33.5q0 -16 13 -16q9 0 15.5 2t13.5 4q6 2 12 3.5t13 1.5q5 0 9 -4.5t4 -12.5q0 -13 -20 -32.5
t-51.5 -35t-66.5 -15.5z" />
  </g>

</svg>
