<?xml version="1.0" standalone="no"?>
<!DOCTYPE svg PUBLIC "-//W3C//DTD SVG 1.1//EN" "http://www.w3.org/Graphics/SVG/1.1/DTD/svg11.dtd" >
<svg xmlns="http://www.w3.org/2000/svg" xmlns:xlink="http://www.w3.org/1999/xlink" version="1.1" viewBox="-10 0 408 1000">
  <g transform="matrix(1 0 0 -1 0 800)">
   <path fill="currentColor"
d="M117 -15q-12 0 -29 8.5t-33.5 22.5t-25.5 30t-4 32l101 320q8 25 17.5 32t25.5 7q23 0 46 -8t37.5 -20t10.5 -24q-5 -18 -15.5 -42t-23 -51.5l-25 -55t-23 -52.5t-16.5 -44t0 -28.5t26 -9.5q16 0 31.5 7.5t27.5 15.5q11 7 18 12t8 5q17 0 10 -21q-6 -19 -22.5 -42.5
t-39 -45t-49 -35t-53.5 -13.5zM227 475q-45 0 -70 19.5t-32 48.5t1 56q5 19 16 27.5t20 8.5t12.5 -5.5t2.5 -15.5q-2 -29 15 -40.5t52 -11.5t59 11.5t40 40.5q5 10 12.5 15.5t16.5 5.5t13 -8.5t1 -27.5q-3 -20 -23 -49.5t-54.5 -52t-81.5 -22.5z" />
  </g>

</svg>
