<?xml version="1.0" standalone="no"?>
<!DOCTYPE svg PUBLIC "-//W3C//DTD SVG 1.1//EN" "http://www.w3.org/Graphics/SVG/1.1/DTD/svg11.dtd" >
<svg xmlns="http://www.w3.org/2000/svg" xmlns:xlink="http://www.w3.org/1999/xlink" version="1.1" viewBox="-10 0 642 1000">
  <g transform="matrix(1 0 0 -1 0 800)">
   <path fill="currentColor"
d="M93 -14q-27 0 -47.5 19.5t-32.5 46t-12 47.5q0 40 16 86t43.5 90.5t63 81t74.5 58.5t77 22q30 0 45 -18.5t20.5 -49.5t3.5 -71q0 -5 3 -6.5t7 5.5q23 36 41.5 72.5t28.5 57.5q8 13 17.5 22.5t17.5 9.5q13 0 29 -11t28.5 -27.5t12.5 -33.5q0 -3 -0.5 -6t-1.5 -6
q-5 -21 -32.5 -62.5t-69 -91t-90.5 -97.5q6 -14 18.5 -17.5t25.5 -3.5q23 0 49 11t46 33q10 11 16 18.5t7 7.5q5 0 9 -3t4 -9q0 -24 -15.5 -54t-40 -57.5t-52.5 -45.5t-52 -18q-23 0 -37 16t-15 49q-1 12 0.5 25t4.5 29q-31 -29 -70 -56.5t-76.5 -45t-63.5 -17.5zM81 42
q24 0 56.5 20t67 51.5t63.5 66.5q11 14 21.5 28t18.5 28q2 38 -9.5 55.5t-37.5 17.5q-18 0 -43.5 -19.5t-53.5 -49.5t-52.5 -63.5t-39.5 -63t-15 -46.5q0 -12 6.5 -18.5t17.5 -6.5zM385 464q-34 0 -59.5 23t-25.5 62q0 38 18.5 66t48 44t61.5 16q26 0 40 -10.5t14 -28.5
t-12 -32.5t-38 -17.5q-66 -8 -66 -48q0 -13 5.5 -21.5t22.5 -15.5q19 -7 19 -22q0 -4 -7 -9.5t-21 -5.5zM327 685q-4 0 -13.5 8t-9.5 12q0 6 12 24t29 39.5t32.5 37t21.5 15.5q10 0 24 -3t48 -5q23 -1 42 -2.5t28 -1.5q18 0 35 20q10 12 14.5 18.5t8.5 6.5q5 0 14 -7.5
t9 -12.5q0 -4 -6 -12t-15 -21q-11 -16 -22.5 -34.5t-20.5 -32.5q-6 -9 -15 -11.5t-16 -2.5q-9 0 -30 1.5t-46 3t-46.5 3t-30.5 1.5q-11 0 -19 -11q-13 -18 -18.5 -25.5t-9.5 -7.5zM166 -250q-29 0 -49 15t-20 46q0 33 11.5 67.5t32 57.5t46.5 23q15 0 32.5 -3.5t28.5 -10
t5 -15.5q-13 -22 -21 -41.5t-8 -33.5q0 -16 13 -16q9 0 15.5 2t13.5 4q6 2 12 3.5t13 1.5q5 0 9 -4.5t4 -12.5q0 -13 -20 -32.5t-51.5 -35t-66.5 -15.5z" />
  </g>

</svg>
