<?xml version="1.0" standalone="no"?>
<!DOCTYPE svg PUBLIC "-//W3C//DTD SVG 1.1//EN" "http://www.w3.org/Graphics/SVG/1.1/DTD/svg11.dtd" >
<svg xmlns="http://www.w3.org/2000/svg" xmlns:xlink="http://www.w3.org/1999/xlink" version="1.1" viewBox="-10 0 539 1000">
  <g transform="matrix(1 0 0 -1 0 800)">
   <path fill="currentColor"
d="M127 -14q-22 0 -49 17t-46.5 47.5t-19.5 68.5q0 52 19.5 107.5t53.5 103.5t78 77.5t93 29.5q34 0 57.5 -19t36 -51t12.5 -71q0 -34 -10.5 -75t-31 -82.5t-49.5 -76t-65 -55.5t-79 -21zM121 115q29 0 63.5 15.5t65 40t50 52.5t19.5 53q-4 23 -21 34t-46 11
q-33 0 -66.5 -17t-62 -42.5t-46 -52.5t-17.5 -48q0 -23 17 -34.5t44 -11.5zM359 473q-11 0 -13.5 10.5t4.5 29.5q5 12 15 36.5t21.5 52t22.5 51.5t17 35q16 27 50 27q20 0 31.5 -12.5t11.5 -36.5q0 -13 -13.5 -34.5t-33 -45t-40.5 -46t-36 -39.5q-14 -16 -23 -22t-14 -6z
M177 476q-25 0 -25 13q0 16 25 22q35 8 58 26.5t23 34.5q0 15 -8 23.5t-19 12.5q-13 5 -24 15.5t-11 26.5q0 29 23.5 45.5t56.5 16.5q36 0 55.5 -21.5t19.5 -58.5q0 -30 -16 -57.5t-42 -50t-56.5 -35.5t-59.5 -13z" />
  </g>

</svg>
