<?xml version="1.0" standalone="no"?>
<!DOCTYPE svg PUBLIC "-//W3C//DTD SVG 1.1//EN" "http://www.w3.org/Graphics/SVG/1.1/DTD/svg11.dtd" >
<svg xmlns="http://www.w3.org/2000/svg" xmlns:xlink="http://www.w3.org/1999/xlink" version="1.1" viewBox="-10 0 597 1000">
  <g transform="matrix(1 0 0 -1 0 800)">
   <path fill="currentColor"
d="M165 -14q-41 0 -77 18.5t-58 51.5t-22 78q0 46 20 98.5t59 99t95 76t128 29.5q70 0 113.5 -38.5t43.5 -109.5q0 -46 -20 -98.5t-59 -99t-95 -76t-128 -29.5zM185 27q19 0 38.5 22.5t37.5 59.5t32 81.5t22.5 89t8.5 80.5q0 20 -8 29.5t-24 9.5t-35 -22.5t-37.5 -59.5
t-33.5 -81.5t-24.5 -88.5t-9.5 -80q0 -20 9.5 -30t23.5 -10zM346 652q7 0 14 -7.5t10 -14.5l10 -20l23.5 -47t22.5 -48q2 -5 4.5 -13.5t2.5 -16.5q0 -10 -4.5 -16.5t-13.5 -6.5q-8 0 -13.5 6.5t-12.5 14.5q-17 20 -28 33.5t-24 31.5q-6 8 -10.5 7.5t-15.5 -7.5
q-26 -17 -42 -28.5t-44 -31.5q-16 -11 -28.5 -18.5t-22.5 -7.5q-12 0 -12 13q0 5 5.5 15.5t20.5 27.5q15 16 35.5 36t39.5 38.5t32 30l13 11.5q7 7 18.5 12.5t19.5 5.5zM424 617q-4 0 -6 5.5t-1 12.5q2 7 10.5 30t20 51t21 49.5t11.5 25.5q5 8 11.5 13t16.5 5q12 0 28 -7.5
t28.5 -18.5t12.5 -22q0 -5 -11.5 -19t-28.5 -31.5t-34.5 -35t-31 -30t-16.5 -15.5q-7 -7 -14.5 -10t-16.5 -3z" />
  </g>

</svg>
