<?xml version="1.0" standalone="no"?>
<!DOCTYPE svg PUBLIC "-//W3C//DTD SVG 1.1//EN" "http://www.w3.org/Graphics/SVG/1.1/DTD/svg11.dtd" >
<svg xmlns="http://www.w3.org/2000/svg" xmlns:xlink="http://www.w3.org/1999/xlink" version="1.1" viewBox="-10 0 949 1000">
  <g transform="matrix(1 0 0 -1 0 800)">
   <path fill="currentColor"
d="M125 -215q-30 0 -54 46q-21 40 -33 105t-12 138q0 124 41 241.5t118 215t184 161.5q26 14 45 14q22 0 22 -14q0 -4 -3.5 -9.5t-11.5 -11.5q-71 -54 -128 -127.5t-97.5 -160t-62 -179t-21.5 -182.5q0 -59 8.5 -100t17 -67.5t8.5 -42.5q0 -11 -6 -19t-15 -8zM269 -5
q-6 0 -10 5.5t-4 12.5q0 6 8.5 10.5t15.5 5.5q13 3 28 7t29 16t22 40l74 240q9 28 3.5 41t-18 17t-24.5 5q-5 0 -12 4.5t-7 12.5q0 10 11.5 13.5t17.5 3.5q35 0 53 -1.5t33.5 -3.5t42.5 -2t43 2t34.5 3.5t54.5 1.5q8 0 13 -3.5t5 -11.5q0 -7 -8.5 -12.5t-13.5 -6.5
q-22 -4 -37.5 -8.5t-26 -16t-19.5 -38.5l-74 -240q-8 -26 -6 -38t13.5 -16t30.5 -9q7 -1 10.5 -5t3.5 -11t-8 -12.5t-17 -5.5q-36 0 -53.5 2t-32.5 3.5t-42 1.5t-43.5 -1.5t-35.5 -3.5t-54 -2zM830 706q30 0 54 -46q21 -40 33 -105t12 -138q0 -124 -41 -241.5t-118 -215
t-184 -161.5q-26 -14 -45 -14q-22 0 -22 14q0 4 3.5 9.5t11.5 11.5q71 54 128 127.5t97.5 160t62 179t21.5 182.5q0 59 -8.5 100t-17 67.5t-8.5 42.5q0 11 6 19t15 8z" />
  </g>

</svg>
