<?xml version="1.0" standalone="no"?>
<!DOCTYPE svg PUBLIC "-//W3C//DTD SVG 1.1//EN" "http://www.w3.org/Graphics/SVG/1.1/DTD/svg11.dtd" >
<svg xmlns="http://www.w3.org/2000/svg" xmlns:xlink="http://www.w3.org/1999/xlink" version="1.1" viewBox="-10 0 1160 1000">
  <g transform="matrix(1 0 0 -1 0 800)">
   <path fill="currentColor"
d="M125 -215q-30 0 -54 46q-21 40 -33 105t-12 138q0 124 41 241.5t118 215t184 161.5q26 14 45 14q22 0 22 -14q0 -4 -3.5 -9.5t-11.5 -11.5q-71 -54 -128 -127.5t-97.5 -160t-62 -179t-21.5 -182.5q0 -59 8.5 -100t17 -67.5t8.5 -42.5q0 -11 -6 -19t-15 -8zM639 -14
q-19 0 -34 12.5t-23 37.5l-43 130q-4 13 -9 18t-10 5q-6 0 -9 -4.5t-8 -17.5q-7 -16 -13.5 -33.5t-13.5 -34.5t-13.5 -34t-13.5 -34q-6 -13 -25 -24.5t-44 -11.5q-17 0 -37 15t-20 43q0 11 2.5 21t5.5 18l142 437q5 15 9.5 30t4.5 31q0 24 -25 34q-7 3 -13.5 6.5t-6.5 9.5
t5 10.5t24 11.5q12 4 36.5 11.5t51.5 15t49 13t31 5.5q8 0 18 -1.5t10 -12.5q0 -13 -3 -22.5t-7 -20.5l-121 -342q-3 -7 2.5 -7.5t9.5 4.5q25 35 56.5 65t69.5 48.5t81 18.5q32 0 50.5 -14t18.5 -42q0 -23 -13.5 -46t-36 -44.5t-51 -39t-59.5 -30.5q-10 -3 -3 -19l36 -79
q4 -7 10 -16t16 -9q14 0 36 16t36 35q5 6 7 9t6 3q5 0 6.5 -4.5t1.5 -8.5q0 -24 -17.5 -52t-45 -53t-58 -41t-56.5 -16zM549 213q25 0 51 12.5t48 31.5t35.5 39t13.5 35q0 14 -9 19t-23 5q-17 0 -38.5 -16.5t-41 -39.5t-32.5 -44t-13 -30q0 -4 2.5 -8t6.5 -4zM1041 706
q30 0 54 -46q21 -40 33 -105t12 -138q0 -124 -41 -241.5t-118 -215t-184 -161.5q-26 -14 -45 -14q-22 0 -22 14q0 4 3.5 9.5t11.5 11.5q71 54 128 127.5t97.5 160t62 179t21.5 182.5q0 59 -8.5 100t-17 67.5t-8.5 42.5q0 11 6 19t15 8z" />
  </g>

</svg>
