<?xml version="1.0" standalone="no"?>
<!DOCTYPE svg PUBLIC "-//W3C//DTD SVG 1.1//EN" "http://www.w3.org/Graphics/SVG/1.1/DTD/svg11.dtd" >
<svg xmlns="http://www.w3.org/2000/svg" xmlns:xlink="http://www.w3.org/1999/xlink" version="1.1" viewBox="-10 0 1060 1000">
  <g transform="matrix(1 0 0 -1 0 800)">
   <path fill="currentColor"
d="M346 486q3 0 5 -3.5t2 -8.5q0 -2 -1 -5l-2 -6l631 -1q7 0 12 -5t5 -9q0 -6 -3 -17.5t-9.5 -20.5t-16.5 -9l-660 1q-6 -10 -12.5 -18.5t-12.5 -16.5l697 -1q7 0 12 -5t5 -9q0 -6 -3 -17.5t-9.5 -20.5t-16.5 -9l-733 1q-3 -4 -6 -7l-6 -6q-2 -2 -2.5 -3t-0.5 -2q0 -3 3 -6
t6.5 -6t6.5 -7h744q7 0 12 -5t5 -9q0 -6 -3 -17.5t-9.5 -20.5t-16.5 -9h-684q6 -9 11.5 -18t11.5 -18h673q7 0 12 -5t5 -9q0 -6 -3 -17.5t-9.5 -20.5t-16.5 -9h-625l1.5 -3t1.5 -2q6 -12 6 -20t-7 -8q-11 0 -21.5 8.5t-14.5 12.5q-31 28 -54 47.5t-45.5 36t-53 35.5
t-76.5 47q-23 10 -23 23q0 8 4.5 12.5t14.5 10.5q43 21 73.5 37t55 32.5t49 36t55.5 48.5q4 4 14.5 12.5t21.5 8.5z" />
  </g>

</svg>
