<?xml version="1.0" standalone="no"?>
<!DOCTYPE svg PUBLIC "-//W3C//DTD SVG 1.1//EN" "http://www.w3.org/Graphics/SVG/1.1/DTD/svg11.dtd" >
<svg xmlns="http://www.w3.org/2000/svg" xmlns:xlink="http://www.w3.org/1999/xlink" version="1.1" viewBox="-10 0 987 1000">
  <g transform="matrix(1 0 0 -1 0 800)">
   <path fill="currentColor"
d="M125 -215q-30 0 -54 46q-21 40 -33 105t-12 138q0 124 41 241.5t118 215t184 161.5q26 14 45 14q22 0 22 -14q0 -4 -3.5 -9.5t-11.5 -11.5q-71 -54 -128 -127.5t-97.5 -160t-62 -179t-21.5 -182.5q0 -59 8.5 -100t17 -67.5t8.5 -42.5q0 -11 -6 -19t-15 -8zM240 -291
q-78 0 -111 26.5t-33 55.5q0 27 17 43.5t37 16.5q10 0 22 -16t22 -31q11 -16 22.5 -31t30.5 -15q14 0 25 13t20.5 35.5t17.5 50.5l136 490q4 18 -14 18l-59 -1q-11 0 -15 4.5t-4 14.5q0 8 9.5 21.5t27.5 14.5l61 3q7 0 11 13l8 24q30 90 75.5 144t97.5 78.5t99 24.5
q46 0 78 -21.5t32 -54.5q0 -26 -12.5 -50t-34.5 -24q-19 0 -27 17.5t-16 38.5q-7 20 -17.5 36.5t-30.5 16.5q-16 0 -31.5 -19.5t-28 -49.5t-22.5 -63q-6 -21 -10.5 -40.5t-7.5 -35.5q-1 -5 -1.5 -9.5t-1.5 -9.5q-1 -10 4.5 -13t12.5 -3q26 0 48 1.5t47 1.5q11 0 11 -15
q0 -5 -5 -15t-11 -18t-10 -8l-79 -3q-19 -1 -28 -6.5t-13 -19.5q-29 -106 -60 -217.5t-61 -218.5q-9 -33 -35.5 -67t-62 -63t-70 -47t-60.5 -18zM868 706q30 0 54 -46q21 -40 33 -105t12 -138q0 -124 -41 -241.5t-118 -215t-184 -161.5q-26 -14 -45 -14q-22 0 -22 14
q0 4 3.5 9.5t11.5 11.5q71 54 128 127.5t97.5 160t62 179t21.5 182.5q0 59 -8.5 100t-17 67.5t-8.5 42.5q0 11 6 19t15 8z" />
  </g>

</svg>
