<?xml version="1.0" standalone="no"?>
<!DOCTYPE svg PUBLIC "-//W3C//DTD SVG 1.1//EN" "http://www.w3.org/Graphics/SVG/1.1/DTD/svg11.dtd" >
<svg xmlns="http://www.w3.org/2000/svg" xmlns:xlink="http://www.w3.org/1999/xlink" version="1.1" viewBox="-10 0 937 1000">
  <g transform="matrix(1 0 0 -1 0 800)">
   <path fill="currentColor"
d="M125 -215q-30 0 -54 46q-21 40 -33 105t-12 138q0 124 41 241.5t118 215t184 161.5q26 14 45 14q22 0 22 -14q0 -4 -3.5 -9.5t-11.5 -11.5q-71 -54 -128 -127.5t-97.5 -160t-62 -179t-21.5 -182.5q0 -59 8.5 -100t17 -67.5t8.5 -42.5q0 -11 -6 -19t-15 -8zM377 -14
q-47 0 -75 20.5t-28 54.5q0 26 11.5 45t33.5 19q8 0 18.5 -10.5t23.5 -24.5q15 -15 34 -33t38 -18q14 0 19.5 7.5t6.5 22.5q1 14 -15.5 38.5t-33.5 46.5q-19 26 -33.5 57t-14.5 62q0 26 19 54t48 53.5t58 41t48 15.5q28 0 53.5 -11.5t42.5 -27.5t17 -29q0 -12 -11 -29
t-25.5 -29.5t-27.5 -12.5t-24 10.5t-19 21.5q-10 15 -24.5 25.5t-28.5 10.5q-13 0 -20 -9t-7 -18q0 -8 9 -20.5t22 -27.5t26 -32q33 -41 46.5 -65.5t13.5 -49.5q0 -19 -17 -45.5t-45.5 -52.5t-64.5 -43t-74 -17zM818 706q30 0 54 -46q21 -40 33 -105t12 -138
q0 -124 -41 -241.5t-118 -215t-184 -161.5q-26 -14 -45 -14q-22 0 -22 14q0 4 3.5 9.5t11.5 11.5q71 54 128 127.5t97.5 160t62 179t21.5 182.5q0 59 -8.5 100t-17 67.5t-8.5 42.5q0 11 6 19t15 8z" />
  </g>

</svg>
