<?xml version="1.0" standalone="no"?>
<!DOCTYPE svg PUBLIC "-//W3C//DTD SVG 1.1//EN" "http://www.w3.org/Graphics/SVG/1.1/DTD/svg11.dtd" >
<svg xmlns="http://www.w3.org/2000/svg" xmlns:xlink="http://www.w3.org/1999/xlink" version="1.1" viewBox="-68 0 814 1000">
  <g transform="matrix(1 0 0 -1 0 800)">
   <path fill="currentColor"
d="M-35 -14q-11 0 -17 4t-5 11q6 15 34 22q29 8 49.5 32.5t28.5 49.5l58 190q26 81 76.5 142t124.5 94.5t169 33.5q75 0 125.5 -35.5t67.5 -98t-9 -145.5q-10 -33 -15.5 -50.5t-9.5 -31.5t-9 -34t-15 -56q-10 -37 -2.5 -58.5t38.5 -32.5q25 -8 19 -22q-2 -9 -10 -12t-19 -3
q-21 0 -34 1t-25.5 2t-31.5 1q-24 0 -43.5 -1.5t-58.5 -1.5q-29 0 -25 15q3 11 19 15t29 10q24 11 40.5 24t30 38.5t28.5 74.5q6 18 9 29.5t7.5 25.5t12.5 41q22 73 17 119t-37 68.5t-91 22.5q-41 0 -82 -20t-75 -62.5t-55 -108.5l-52 -168q-10 -34 -5 -52t18 -26
q14 -7 29 -13t11 -18q-2 -7 -10.5 -11t-20.5 -4q-31 0 -74 2t-72 2q-30 0 -67.5 -2.5t-70.5 -2.5zM291 162q-6 0 -10.5 4t-2.5 11q6 17 26 22q28 7 42 19t18 26l117 379q8 23 2.5 33.5t-32.5 17.5q-8 2 -11 7.5t-1 14.5q2 7 9 11t13 4q22 0 41.5 -1t38.5 -2.5t39 -1.5t41 1
t42.5 2t42.5 1q16 0 11 -15q-3 -10 -9 -14t-16 -7q-28 -8 -41 -18t-19 -30l-118 -381q-6 -19 1.5 -29.5t22.5 -16.5q8 -3 11.5 -7t0.5 -14q-2 -7 -7 -11t-13 -4q-21 0 -40.5 1t-38 2t-38.5 1q-30 0 -59.5 -2.5t-62.5 -2.5z" />
  </g>

</svg>
