<?xml version="1.0" standalone="no"?>
<!DOCTYPE svg PUBLIC "-//W3C//DTD SVG 1.1//EN" "http://www.w3.org/Graphics/SVG/1.1/DTD/svg11.dtd" >
<svg xmlns="http://www.w3.org/2000/svg" xmlns:xlink="http://www.w3.org/1999/xlink" version="1.1" viewBox="-102 0 770 1000">
  <g transform="matrix(1 0 0 -1 0 800)">
   <path fill="currentColor"
d="M-15 -194q-34 0 -55.5 7.5t-21.5 21.5q0 10 8 22t19 21t20 9q12 0 23 -7.5t27 -15.5q11 -5 25.5 -9t33.5 -4q47 0 71 28.5t24 72.5t-18 90.5t-57 86.5q-20 20 -31.5 33.5t-4.5 35.5q12 36 31.5 72.5t38 64t25.5 35.5q14 15 27 22.5t25 11.5q20 6 49.5 12.5t59.5 11.5
t53 8.5t30 3.5q8 0 11 -6.5t1 -14.5q-7 -22 -22 -45.5t-33 -40.5t-34 -20q-22 -3 -51 -5t-54 -3.5t-36 -2.5q-7 -1 -12 -3.5t-8 -7.5l-7 -12q-3 -5 5 -11.5t15 -13.5q24 -24 43.5 -48t34.5 -48q21 -34 31.5 -68t10.5 -69q0 -39 -23.5 -77t-65 -69.5t-95 -50t-113.5 -18.5z
M458 -34q-28 0 -48 21t-20 48q0 28 14.5 52t38 39t51.5 15q35 0 53.5 -24.5t18.5 -50.5t-14.5 -49t-39 -37t-54.5 -14z" />
  </g>

</svg>
