<?xml version="1.0" standalone="no"?>
<!DOCTYPE svg PUBLIC "-//W3C//DTD SVG 1.1//EN" "http://www.w3.org/Graphics/SVG/1.1/DTD/svg11.dtd" >
<svg xmlns="http://www.w3.org/2000/svg" xmlns:xlink="http://www.w3.org/1999/xlink" version="1.1" viewBox="-52 0 630 1000">
  <g transform="matrix(1 0 0 -1 0 800)">
   <path fill="currentColor"
d="M88 351q-13 0 -16 10.5t1 20.5q5 14 15.5 22.5t23.5 8.5h342q10 0 15.5 -6t1.5 -13q-2 -4 -2 -5q-7 -13 -22 -25.5t-32 -12.5h-327zM53 239q-13 0 -15 10.5t1 20.5q4 14 14.5 22.5t23.5 8.5h342q10 0 13.5 -5.5t3.5 -13.5q0 -1 -1 -2t-1 -3q-7 -13 -22 -25.5t-32 -12.5
h-327zM-27 -5q-9 0 -12 5t-2 11q4 15 26 21q36 11 53 21.5t27 41.5l141 456q10 32 1 44.5t-46 22.5q-8 2 -11 7.5t-1 14.5q2 7 9 11t13 4q22 0 49 -1t53.5 -2.5t46.5 -1.5t48.5 1t57.5 2t50 1q16 0 11 -15q-3 -10 -9 -14t-16 -7q-30 -8 -46.5 -16t-25 -20t-14.5 -32
l-122 -396q-21 -69 -11.5 -91.5t37.5 -22.5h26q40 0 73.5 9.5t58.5 25.5q29 20 50 47.5t37 61.5q4 8 10 14t12 6q5 0 8.5 -6.5t3.5 -13.5q0 -16 -6.5 -39.5t-16.5 -48.5t-20.5 -47t-19.5 -35q-4 -7 -9 -13t-14 -6q-14 0 -53.5 1t-92.5 1.5t-108.5 1.5t-100.5 1
q-30 0 -73 -2.5t-72 -2.5z" />
  </g>

</svg>
