<?xml version="1.0" standalone="no"?>
<!DOCTYPE svg PUBLIC "-//W3C//DTD SVG 1.1//EN" "http://www.w3.org/Graphics/SVG/1.1/DTD/svg11.dtd" >
<svg xmlns="http://www.w3.org/2000/svg" xmlns:xlink="http://www.w3.org/1999/xlink" version="1.1" viewBox="-10 0 505 1000">
  <g transform="matrix(1 0 0 -1 0 800)">
   <path fill="currentColor"
d="M316 -16h-23.5t-23.5 1q-4 0 -11.5 1t-11.5 1q-7 0 -23.5 -0.5t-18.5 -0.5q-34 0 -60.5 7.5t-41.5 24t-15 43.5q0 9 5 18t11 18l6.5 6.5t5.5 7.5q0 2 -6.5 11.5t-5.5 5.5q-10 18 -30.5 48.5t-34.5 60.5q-6 13 -7 22.5t-1 17.5q0 6 1 21t2.5 32t2.5 29q1 10 3 27.5t2 23.5
q0 29 -4 53q-2 17 -3 27.5t-1 20.5q0 43 10.5 82t30.5 73q7 11 15.5 12.5t11.5 1.5q9 0 16 -3.5l11 -5.5q13 -8 17.5 -22t4.5 -42q0 -4 -0.5 -17.5t-1.5 -25.5t-1 -14q-2 -22 -3 -35t-1 -21q0 -10 1 -17t3 -14q5 8 11.5 11.5t14.5 6.5q5 1 6 2t3 5q5 13 14.5 23.5t29.5 10.5
q18 0 40 -15.5t46 -35.5q4 -3 8 -2.5t5 0.5q11 0 13.5 -4t4.5 -8q-1 1 1 -1.5t4 -2.5h6.5t7.5 1q5 1 8.5 2.5t4.5 1.5q12 0 20.5 -5.5t14.5 -10.5q1 0 2.5 0.5t2.5 0.5q16 0 27 -17t17 -39t6 -39q0 -7 -1 -13.5t-3 -11.5q-4 -8 -6 -14t-2 -9q0 -1 1.5 -6t1.5 -6q1 -4 1.5 -7
t0.5 -6q0 -8 -2.5 -14t-5.5 -10q-1 -2 -4.5 -7t-2.5 -4q0 -4 0.5 -7t1.5 -7t1.5 -8t0.5 -8q0 -6 -4 -20t-8.5 -29.5t-8.5 -25.5q-6 -17 -12 -33t-6 -19q0 -4 4.5 -9.5t10.5 -10.5q11 -10 15.5 -16.5t4.5 -14.5q0 -19 -14.5 -29t-33.5 -13t-34 -3q-14 -2 -25 -2.5t-20 -0.5z
M295 33q11 0 21.5 2t20.5 5q9 3 16.5 4t12.5 2q-19 8 -48 12t-68 4q-12 0 -34 -0.5t-40.5 -2.5t-18.5 -7q0 -2 17 -5.5t41.5 -6.5t47 -5t32.5 -2zM146 360q2 0 7 11t9.5 25.5t4.5 22.5q0 7 -3 7t-8 -9.5t-9 -21.5t-4 -20q0 -15 3 -15zM348 107q6 0 8 5t2 25q0 6 4.5 17
t11.5 20q3 6 6.5 18t5.5 23.5t2 14.5q2 9 4 12q1 2 1 6q-1 2 -1.5 4.5t-2.5 6.5q-1 4 -2 7t-1 4q-2 -1 -4.5 -1.5t-4.5 -0.5q-5 0 -10 2t-9 5l-8 4t-6 2q-3 0 -5.5 -0.5t-6.5 -0.5q-9 0 -20 5t-13 7q-4 4 -9.5 6.5t-7.5 2.5q-7 0 -13 -1.5t-11 -4.5q5 -9 8 -17.5t4 -18.5
q1 -8 2 -24t1 -25q1 -4 2.5 -14.5t1.5 -13.5q0 -16 -6 -22.5t-17 -6.5q-6 0 -16.5 6t-10.5 33q0 5 1.5 18.5t1.5 19.5q0 20 -8 32.5t-22 26.5q-6 6 -7 10t-1 8q0 2 2.5 6.5t6.5 10.5q8 13 18.5 28.5t15.5 22.5q9 15 15 25.5t7 23.5q0 17 -9.5 24t-20.5 8q0 -2 -3 -11t-5 -12
l-6.5 -13t-5.5 -12q-1 -4 -4.5 -14.5t-6 -20.5t-4.5 -14q-5 -13 -14 -30.5t-9 -24.5q0 -1 1.5 -4t2.5 -6q4 -7 5.5 -13t1.5 -10q0 -10 -6 -15.5t-11 -5.5q-12 0 -26.5 15t-25 34.5t-11.5 31.5q0 5 2 10.5t4 9.5q1 2 1.5 4.5t0.5 3.5q0 5 -2.5 9.5t-7.5 11.5q-4 5 -6 11.5
t-2 13.5q0 6 3.5 14t4.5 15t1.5 14t0.5 18q0 26 3 48q1 10 1.5 19.5t0.5 17.5q-1 25 -4 44t-7 19q-4 -1 -7.5 -12.5t-3.5 -40.5q0 -10 1.5 -17.5t2.5 -14.5q2 -8 4 -22t2 -20q0 -10 -1 -14q-1 -1 -1.5 -2t-1.5 -2q1 -3 1 -5t1 -4q1 -4 1 -6.5v-5.5q0 -15 -4.5 -35t-4.5 -21
q-1 -5 -2 -9.5t-1 -13.5q0 -19 0.5 -28.5t3.5 -26.5q2 -10 6.5 -18.5t4.5 -25.5q0 -7 -0.5 -16.5t-0.5 -5.5q0 -16 15.5 -41t33.5 -45q13 -16 16.5 -27t3.5 -21q0 -3 1 -3.5t5 -0.5q11 0 30 1t24 2q26 3 45 3q14 -1 25 -2.5t21 -3.5q11 -1 19.5 -2t14.5 -1zM274 341q2 0 4 2
l-2 2t-1 4q0 8 7 14.5t10 9.5q8 8 12.5 16t4.5 22q0 2 -1.5 6t-3.5 4q-6 0 -10.5 -10.5l-13.5 -31.5q-5 -12 -7 -19t-2 -12q0 -3 1 -5t2 -2zM340 330q4 4 7.5 16t3.5 13q3 11 5.5 22.5t2.5 12.5q0 8 -2.5 12t-4.5 4q-4 0 -7.5 -5.5t-3.5 -12.5q0 -3 0.5 -6l0.5 -3
q0 -16 -8 -30q-1 -4 -3 -7.5t-2 -4.5q0 -5 4 -8t7 -3zM385 324q8 0 9 10q2 11 5.5 18t3.5 13q0 2 -1.5 5t-3.5 3t-4 -12.5t-3 -14.5q-2 -7 -4.5 -11.5t-3.5 -5.5q-2 -5 2 -5z" />
  </g>

</svg>
