<?xml version="1.0" standalone="no"?>
<!DOCTYPE svg PUBLIC "-//W3C//DTD SVG 1.1//EN" "http://www.w3.org/Graphics/SVG/1.1/DTD/svg11.dtd" >
<svg xmlns="http://www.w3.org/2000/svg" xmlns:xlink="http://www.w3.org/1999/xlink" version="1.1" viewBox="-51 0 743 1000">
  <g transform="matrix(1 0 0 -1 0 800)">
   <path fill="currentColor"
d="M2 107q-7 0 -11.5 5.5t-2.5 12.5q4 9 18 21.5t27 13.5l428 2q8 0 11.5 -6.5t1.5 -11.5q-3 -7 -20.5 -20t-34.5 -14zM462 657q107 0 163.5 -53.5t56.5 -136.5q0 -51 -23 -95t-64.5 -76t-96.5 -50t-120 -18h-92l-40 -130q-10 -31 6.5 -42t55.5 -22q8 -2 15 -6.5t7 -14.5
q0 -7 -11.5 -11t-22.5 -4q-21 0 -53 1t-63 2t-51 1q-30 0 -74.5 -2.5t-77.5 -2.5q-6 0 -12 4t-6 11q0 9 10.5 14.5t20.5 7.5q41 9 58 20.5t27 42.5l40 130l-74 -1q-7 0 -11.5 5.5t-2.5 12.5q4 9 18 21.5t27 13.5h60l84 272q10 32 -0.5 45.5t-42.5 21.5q-11 3 -17.5 9
t-4.5 12q2 7 12.5 11.5t19.5 4.5q22 0 48.5 -1.5t52.5 -3t46 -0.5q16 1 36.5 2.5t44.5 3t51 1.5zM344 280q70 0 111 30t59 74.5t18 89.5q0 61 -13.5 91t-35 39.5t-46.5 9.5q-10 0 -18 -4.5t-17 -22t-22 -58.5l-77 -249h41z" />
  </g>

</svg>
