<?xml version="1.0" standalone="no"?>
<!DOCTYPE svg PUBLIC "-//W3C//DTD SVG 1.1//EN" "http://www.w3.org/Graphics/SVG/1.1/DTD/svg11.dtd" >
<svg xmlns="http://www.w3.org/2000/svg" xmlns:xlink="http://www.w3.org/1999/xlink" version="1.1" viewBox="-10 0 773 1000">
  <g transform="matrix(1 0 0 -1 0 800)">
   <path fill="currentColor"
d="M87 -19q-16 0 -22 13t4 23l609 636q8 8 22.5 12t27.5 4q16 0 22 -10t-3 -19l-606 -632q-13 -14 -26 -20.5t-28 -6.5zM171 419q-28 0 -46.5 14.5t-18.5 34.5q0 38 25 57t65 32l70 23q16 5 21.5 10t8.5 18l6 22q5 16 4.5 25.5t-17.5 9.5q-7 0 -15 -2.5t-15 -7.5
q-6 -5 -6.5 -14t-2.5 -15q-1 -4 -13 -10t-28 -11t-29.5 -8.5t-18.5 -3.5q-6 0 -5 6.5t5 14.5q8 12 17.5 23t31.5 25q16 10 39.5 20.5t49.5 18t47 7.5q47 0 65 -27.5t4 -74.5l-37 -105q-4 -11 -2.5 -22.5t11.5 -11.5q6 0 12 3t11 6q2 2 5 2q2 0 4 -2t2 -4q0 -8 -10 -16.5
t-15 -11.5q-15 -10 -32 -17.5t-39 -7.5q-18 0 -30 5t-19.5 14t-12.5 20h-1q-15 -13 -38.5 -26t-52.5 -13zM233 471q3 0 7.5 1.5t6.5 2.5q2 2 4 4.5t3 6.5l20 58q2 5 -1 7t-8 0q-17 -7 -28 -17t-18 -36q-4 -9 -1.5 -18t15.5 -9zM496 17q-21 0 -40.5 3t-36.5 12q-4 2 -5.5 6
t-1.5 8q-1 14 2.5 34.5t9.5 45.5q1 4 6 7t12 3q5 0 9.5 -3.5t4.5 -8.5q0 -30 14 -49.5t45 -19.5q19 0 30 10.5t11 25.5t-11.5 24.5t-29.5 19.5q-19 10 -35.5 28t-16.5 41q0 39 23 61t58.5 31.5t71.5 9.5q17 0 34 -3t29 -8q12 -4 11 -19q-1 -11 -4.5 -27t-8.5 -31
q-1 -3 -5.5 -5t-11.5 -2q-12 0 -14 8q-4 23 -14.5 38.5t-29.5 15.5q-20 0 -30.5 -8.5t-10.5 -19.5q0 -16 14.5 -26.5t31.5 -21.5q18 -11 33 -27.5t14 -39.5q-2 -61 -43.5 -87t-114.5 -26z" />
  </g>

</svg>
