<?xml version="1.0" standalone="no"?>
<!DOCTYPE svg PUBLIC "-//W3C//DTD SVG 1.1//EN" "http://www.w3.org/Graphics/SVG/1.1/DTD/svg11.dtd" >
<svg xmlns="http://www.w3.org/2000/svg" xmlns:xlink="http://www.w3.org/1999/xlink" version="1.1" viewBox="-57 0 637 1000">
  <g transform="matrix(1 0 0 -1 0 800)">
   <path fill="currentColor"
d="M-33 -3q-6 0 -10.5 4t-2.5 11q6 17 26 22q36 8 52.5 20t26.5 43l141 454q10 32 1.5 45t-41.5 22q-8 2 -11.5 7.5t-0.5 14.5q2 7 9.5 11t13.5 4q22 0 47.5 -1t50 -2.5t44.5 -1.5t48.5 1t58 2t50.5 1q16 0 11 -15q-3 -10 -9 -14t-17 -7q-30 -8 -46.5 -16t-25 -20t-14.5 -32
l-52 -171q-4 -13 1 -18.5t17 -5.5h119q26 0 45 17t35 45q5 9 13 13.5t14 4.5q5 0 7.5 -6t-2.5 -17q-9 -22 -17 -42.5t-14 -40.5t-11 -40t-10 -43q-4 -15 -9 -21.5t-10 -6.5q-7 0 -12.5 7t-4.5 17q2 32 -4.5 50.5t-25.5 18.5h-132q-11 0 -18.5 -5.5t-10.5 -16.5l-58 -191
q-8 -28 1.5 -39t44.5 -25q8 -3 11.5 -7t0.5 -14q-2 -7 -7.5 -11t-13.5 -4q-21 0 -49.5 1t-56 2t-47.5 1t-47 -1t-53.5 -2.5t-45.5 -1.5z" />
  </g>

</svg>
