<?xml version="1.0" standalone="no"?>
<!DOCTYPE svg PUBLIC "-//W3C//DTD SVG 1.1//EN" "http://www.w3.org/Graphics/SVG/1.1/DTD/svg11.dtd" >
<svg xmlns="http://www.w3.org/2000/svg" xmlns:xlink="http://www.w3.org/1999/xlink" version="1.1" viewBox="-13 0 787 1000">
  <g transform="matrix(1 0 0 -1 0 800)">
   <path fill="currentColor"
d="M54 -144q-7 -7 -18 -4.5t-20.5 8.5t-14.5 9q-4 3 -3.5 10.5t5.5 11.5l567 561q-20 2 -41 4.5t-50.5 8t-77.5 15.5q-4 2 -8.5 3.5t-6.5 3.5q-4 4 -5 8t1 6q6 6 14 8t15.5 2h11.5q42 2 73 6.5t59.5 11t61.5 16.5t79 22q19 5 30 -3q5 -4 4 -12.5t-4 -19.5q-14 -52 -22 -86.5
t-12.5 -62.5t-6.5 -58t-4 -72q0 -6 -1 -19.5t-9 -21.5q-11 -9 -21 19q-13 50 -20.5 81.5t-10 54.5t-1.5 47z" />
  </g>

</svg>
