<?xml version="1.0" standalone="no"?>
<!DOCTYPE svg PUBLIC "-//W3C//DTD SVG 1.1//EN" "http://www.w3.org/Graphics/SVG/1.1/DTD/svg11.dtd" >
<svg xmlns="http://www.w3.org/2000/svg" xmlns:xlink="http://www.w3.org/1999/xlink" version="1.1" viewBox="-10 0 673 1000">
  <g transform="matrix(1 0 0 -1 0 800)">
   <path fill="currentColor"
d="M342 -215q-30 0 -54 46q-21 40 -33 105t-12 138q0 124 41 241.5t118 215t184 161.5q26 14 45 14q22 0 22 -14q0 -4 -3.5 -9.5t-11.5 -11.5q-71 -54 -128 -127.5t-97.5 -160t-62 -179t-21.5 -182.5q0 -59 8.5 -100t17 -67.5t8.5 -42.5q0 -11 -6 -19t-15 -8zM125 -215
q-30 0 -54 46q-21 40 -33 105t-12 138q0 124 41 241.5t118 215t184 161.5q26 14 45 14q22 0 22 -14q0 -4 -3.5 -9.5t-11.5 -11.5q-71 -54 -128 -127.5t-97.5 -160t-62 -179t-21.5 -182.5q0 -59 8.5 -100t17 -67.5t8.5 -42.5q0 -11 -6 -19t-15 -8z" />
  </g>

</svg>
