<?xml version="1.0" standalone="no"?>
<!DOCTYPE svg PUBLIC "-//W3C//DTD SVG 1.1//EN" "http://www.w3.org/Graphics/SVG/1.1/DTD/svg11.dtd" >
<svg xmlns="http://www.w3.org/2000/svg" xmlns:xlink="http://www.w3.org/1999/xlink" version="1.1" viewBox="-10 0 1104 1000">
  <g transform="matrix(1 0 0 -1 0 800)">
   <path fill="currentColor"
d="M909 -68q-33 0 -59.5 18.5t-26.5 50.5q0 17 9.5 32t28.5 15q12 0 20.5 -4.5t15.5 -9.5q5 -4 9.5 -7.5t8.5 -3.5q18 0 30 23t12 48q0 29 -10.5 47.5t-27.5 18.5q-5 0 -13.5 -3t-19.5 -7q-14 -5 -29.5 -10t-29.5 -5q-33 0 -59 20.5t-44 52t-27 64.5q-13 -3 -29 -5.5
t-29 -8.5q-5 -1 -5 -3.5t3 -4.5q21 -11 38 -33t17 -53q0 -53 -32.5 -90.5t-82.5 -57.5t-103 -20q-64 0 -129 16.5t-124 46.5t-105.5 71t-73.5 92t-27 108q0 36 10.5 70.5t32 57t53.5 22.5t56 -18t24 -49q0 -24 -14 -40.5t-35 -16.5q-6 0 -14.5 2t-9.5 2q-19 -22 -19 -51
q0 -22 15.5 -35.5t37.5 -20t43 -6.5q40 0 69 28.5t59 67.5q24 30 51 59.5t62 49t83 19.5q36 0 63.5 -16.5t43 -43.5t15.5 -60q0 -16 -7 -32t-21 -32q-3 5 -4 9t-4 9q17 14 37.5 26.5t42.5 17.5v3.5v2.5q0 49 25.5 90.5t65.5 67.5t83 26q17 0 25.5 -8.5t13.5 -16.5q3 -5 6 -9
t6 -4q2 0 5 4t7 9q5 9 13.5 18t21.5 9q15 0 29 -15t14 -38q0 -42 -29.5 -72.5t-71.5 -30.5q-27 0 -40.5 11t-22.5 21q-6 7 -10 10t-11 3q-10 0 -21.5 -11.5t-20 -27.5t-10.5 -29q9 1 18 1.5t19 0.5q24 0 53 -7.5t56 -21t44 -31.5t17 -39q0 -9 -0.5 -20.5t-5.5 -22.5
q36 -15 62 -41t39.5 -58t13.5 -67q0 -33 -19 -42.5t-47 -9.5q-18 -28 -42 -50t-62 -22zM847 218q10 0 18 8t8 22q0 7 -10.5 13.5t-27 11.5t-33.5 5l-22 1q13 -22 30.5 -41.5t36.5 -19.5z" />
  </g>

</svg>
