<?xml version="1.0" standalone="no"?>
<!DOCTYPE svg PUBLIC "-//W3C//DTD SVG 1.1//EN" "http://www.w3.org/Graphics/SVG/1.1/DTD/svg11.dtd" >
<svg xmlns="http://www.w3.org/2000/svg" xmlns:xlink="http://www.w3.org/1999/xlink" version="1.1" viewBox="-10 0 549 1000">
  <g transform="matrix(1 0 0 -1 0 800)">
   <path fill="currentColor"
d="M308 707q21 0 32 -29q14 -38 29 -75.5t31 -75.5t33.5 -77t36 -80.5t38.5 -86.5q8 -18 14.5 -34.5t6.5 -32.5q0 -1 -8 -17t-12 -27q-24 -50 -44 -97t-36 -92t-29.5 -87.5t-26.5 -83.5q-3 -10 -16 -16t-28.5 -9t-27.5 -3q-13 0 -21 7.5t-8 23.5q0 11 3.5 25t8.5 28
q8 25 16.5 56t19 65t22 70t25 72t28.5 71q4 10 4.5 17.5t-3.5 18.5q-24 61 -48 121t-46.5 118.5t-38.5 117.5q-3 10 -7 25.5t-4 27.5q0 28 14.5 43.5t41.5 15.5zM117 707q21 0 32 -29q14 -38 29 -75.5t31 -75.5t33.5 -77t36 -80.5t38.5 -86.5q8 -18 14.5 -34.5t6.5 -32.5
q0 -1 -8 -17t-12 -27q-24 -50 -44 -97t-36 -92t-29.5 -87.5t-26.5 -83.5q-3 -10 -16 -16t-28.5 -9t-27.5 -3q-13 0 -21 7.5t-8 23.5q0 11 3.5 25t8.5 28q8 25 16.5 56t19 65t22 70t25 72t28.5 71q4 10 4.5 17.5t-3.5 18.5q-24 61 -48 121t-46.5 118.5t-38.5 117.5
q-3 10 -7 25.5t-4 27.5q0 28 14.5 43.5t41.5 15.5z" />
  </g>

</svg>
