<?xml version="1.0" standalone="no"?>
<!DOCTYPE svg PUBLIC "-//W3C//DTD SVG 1.1//EN" "http://www.w3.org/Graphics/SVG/1.1/DTD/svg11.dtd" >
<svg xmlns="http://www.w3.org/2000/svg" xmlns:xlink="http://www.w3.org/1999/xlink" version="1.1" viewBox="-10 0 676 1000">
  <g transform="matrix(1 0 0 -1 0 800)">
   <path fill="currentColor"
d="M255 -14q-73 0 -118.5 28.5t-60 78t4.5 111.5l50 160q3 8 3.5 20.5t-5 24.5t-21.5 16q-8 2 -11 6t-1 9t8.5 9t13.5 4q20 0 41.5 -1t42 -2t35.5 -1q17 0 42 1t52 1.5t47 0.5q18 0 15 -12q-4 -11 -22 -16.5t-31 -11.5q-10 -5 -18 -12t-13.5 -17.5t-11.5 -27.5l-56 -178
q-10 -34 -2.5 -60t28.5 -41t48 -15q52 0 92.5 35t55.5 88l35 125q11 40 13 67.5t-12 35.5q-16 10 -29 14t-11 14q2 6 8.5 9.5t18.5 3.5q24 0 35 -0.5t19.5 -1.5t24.5 -1t25.5 1t20.5 1.5t31 0.5q7 0 11 -2.5t2 -10.5q-5 -12 -21 -16q-34 -10 -48 -24t-24 -44l-49 -151
q-31 -99 -92.5 -159t-165.5 -60zM225 -287q-23 0 -43 13t-31.5 32.5t-11.5 39.5q0 38 19 70.5t49 60t64.5 49.5t66.5 40h44q-32 -22 -59.5 -55.5t-44 -68.5t-16.5 -64q0 -13 8 -20.5t24 -7.5q12 0 27.5 11t28.5 29q2 2 4 5t5 5t7 2q7 0 8 -6t1 -11q0 -18 -14 -39.5t-36 -41
t-48.5 -31.5t-51.5 -12z" />
  </g>

</svg>
