<?xml version="1.0" standalone="no"?>
<!DOCTYPE svg PUBLIC "-//W3C//DTD SVG 1.1//EN" "http://www.w3.org/Graphics/SVG/1.1/DTD/svg11.dtd" >
<svg xmlns="http://www.w3.org/2000/svg" xmlns:xlink="http://www.w3.org/1999/xlink" version="1.1" viewBox="-10 0 617 1000">
  <g transform="matrix(1 0 0 -1 0 800)">
   <path fill="currentColor"
d="M84 -14q-7 0 -12 8.5t-5 16.5t3 26t5 40l38 296q2 8 -4 13.5t-20 9.5l-5 5t-3 6q0 8 6.5 13t19.5 5q8 0 27 -0.5t39.5 -1.5t32.5 -1q14 0 35.5 1.5t45 2.5t43.5 1q6 0 8.5 -3.5t2.5 -6.5q0 -8 -10 -13.5t-21 -7.5q-30 -6 -42 -12.5t-15 -23.5l-34 -205q-1 -3 -0.5 -8
t2.5 -5q3 0 8 4.5t12 11.5l171 192q15 17 11.5 29t-29.5 12q-4 0 -8 4t-4 8q0 11 10 17t24 6q29 0 47.5 -1.5t40.5 -1.5q20 0 36 3t42 3q6 0 10.5 -1.5t4.5 -6.5q0 -10 -5.5 -14.5t-18.5 -8.5q-14 -4 -26.5 -7t-23 -7.5t-19.5 -13.5l-295 -288q-13 -12 -25 -24t-23 -22.5
t-22 -18.5q-18 -12 -28 -19t-15.5 -9.5t-11.5 -2.5z" />
  </g>

</svg>
