<?xml version="1.0" standalone="no"?>
<!DOCTYPE svg PUBLIC "-//W3C//DTD SVG 1.1//EN" "http://www.w3.org/Graphics/SVG/1.1/DTD/svg11.dtd" >
<svg xmlns="http://www.w3.org/2000/svg" xmlns:xlink="http://www.w3.org/1999/xlink" version="1.1" viewBox="-31 0 783 1000">
  <g transform="matrix(1 0 0 -1 0 800)">
   <path fill="currentColor"
d="M239 -14q-27 0 -54.5 16t-45.5 43t-18 61q0 37 11 63.5t34.5 56.5t60.5 75q5 5 0 10t-10 6q-13 5 -28.5 8t-32 4.5t-33.5 1.5q-37 -1 -65.5 -9.5t-28.5 -25.5q0 -9 10 -17t22 -16q13 -7 23.5 -15t10.5 -16q0 -9 -9.5 -23.5t-22 -25.5t-22.5 -11q-14 0 -28.5 16.5
t-24 37.5t-9.5 36q0 20 9.5 45.5t26.5 50t39 40.5q21 16 39.5 27.5t37.5 11.5q33 0 57 -5.5t44 -11t39 -5.5q20 0 29 4t26 14q9 5 17.5 -2t11.5 -17.5t-4 -15.5q-21 -15 -41 -40.5t-36 -55.5t-26 -60.5t-10 -55.5q0 -28 23 -51t59 -23q29 0 55 15.5t48.5 40.5t39 54t26 57
t9.5 48q0 23 -6.5 34t-19.5 11q-17 0 -30.5 -16.5t-20.5 -42t-7 -52.5q0 -34 11.5 -68.5t39.5 -57.5t75 -23q26 0 48.5 11.5t39.5 33.5t26.5 52.5t9.5 69.5q0 17 -8 30.5t-23 40.5q-4 7 -5.5 14.5t1.5 13.5q7 21 28 41.5t46 20.5q14 0 26.5 -24.5t12.5 -70.5
q0 -43 -15.5 -92.5t-41.5 -96.5t-59 -85.5t-68 -61.5t-68 -23q-45 0 -73.5 32.5t-42 83.5t-13.5 107q0 57 15 109t44.5 85.5t73.5 33.5q28 0 40 -18.5t12 -48.5q0 -38 -16.5 -88t-46.5 -101.5t-69 -95.5t-83.5 -71.5t-91.5 -27.5z" />
  </g>

</svg>
