<?xml version="1.0" standalone="no"?>
<!DOCTYPE svg PUBLIC "-//W3C//DTD SVG 1.1//EN" "http://www.w3.org/Graphics/SVG/1.1/DTD/svg11.dtd" >
<svg xmlns="http://www.w3.org/2000/svg" xmlns:xlink="http://www.w3.org/1999/xlink" version="1.1" viewBox="-13 0 537 1000">
  <g transform="matrix(1 0 0 -1 0 800)">
   <path fill="currentColor"
d="M99 -190q-25 0 -45.5 21t-20.5 46q0 20 10 28t26 8q24 0 60.5 8t73 20.5t61 26t24.5 25.5q0 5 -3 8t-10 3q-9 0 -28 -3.5t-41 -8t-40 -6.5q-24 -3 -47 -5t-42 -2t-37.5 11.5t-30.5 31t-12 41.5q0 42 16.5 81t43 73t58 62.5t61.5 49.5q8 5 12 8t-7 9q-24 11 -41 27.5
t-17 43.5q0 20 12 43t31 46.5t39 43t36 31.5q-31 1 -51 10t-29.5 23t-9.5 31q0 24 19 51.5t51 47t70 19.5q11 0 15.5 -3.5t4.5 -8.5q0 -4 -5 -6t-13 -7q-25 -16 -39 -41t-14 -48q0 -16 6.5 -29t20.5 -21q39 25 79.5 45t75 32.5t53.5 12.5q16 0 27.5 -12.5t11.5 -34.5
q0 -13 -11.5 -34t-37 -37t-67.5 -16q-35 -6 -71 -20t-66.5 -32.5t-49 -40t-18.5 -44.5q0 -17 20 -32.5t43 -15.5q25 14 48 26.5t46.5 20t48.5 7.5q17 0 30.5 -13t13.5 -28q0 -14 -15 -35.5t-36.5 -39t-41.5 -21.5q-31 -5 -70 -16t-79.5 -26.5t-74.5 -34.5t-55 -41t-21 -45
q0 -16 13.5 -23.5t32.5 -7.5q13 0 35.5 2t46.5 5q23 3 46.5 7t36.5 4q21 0 36.5 -19.5t24 -43.5t8.5 -37q0 -25 -22.5 -59t-58 -66.5t-75.5 -54t-75 -21.5z" />
  </g>

</svg>
