<?xml version="1.0" standalone="no"?>
<!DOCTYPE svg PUBLIC "-//W3C//DTD SVG 1.1//EN" "http://www.w3.org/Graphics/SVG/1.1/DTD/svg11.dtd" >
<svg xmlns="http://www.w3.org/2000/svg" xmlns:xlink="http://www.w3.org/1999/xlink" version="1.1" viewBox="-10 0 658 1000">
  <g transform="matrix(1 0 0 -1 0 800)">
   <path fill="currentColor"
d="M96 -5q-10 0 -14 5.5t-3 9.5q2 8 11 12.5t15 5.5q31 6 43 18.5t17 30.5l27 87q8 24 9.5 38t-1.5 25.5t-10 27.5l-59 143q-4 11 -10.5 16.5t-26.5 8.5q-6 1 -10.5 4.5t-2.5 11.5q2 6 7.5 9.5t12.5 3.5q31 0 54 -1.5t44.5 -3t46.5 -1.5q21 0 39 2t38.5 4t45.5 2
q19 0 15 -13q-2 -7 -9 -10.5t-15 -5.5q-33 -7 -45.5 -18.5t-5.5 -35.5l36 -122q4 -13 16 0l103 124q19 23 11.5 36.5t-36.5 15.5q-7 1 -12.5 5.5t-3.5 11.5q2 5 10 8t15 3q26 0 43 -3t41 -3q23 0 40.5 4.5t45.5 4.5q8 0 15 -2.5t4 -11.5q-2 -7 -8 -10t-10 -4
q-17 -4 -31 -9.5t-23 -10t-11 -6.5l-153 -160q-13 -13 -23 -31t-16 -37l-30 -96q-5 -19 -5 -27t8.5 -12t25.5 -11q5 -2 11 -5t4 -11q-2 -6 -8.5 -10.5t-14.5 -4.5q-13 0 -40 2t-53.5 3.5t-39.5 1.5q-12 0 -36 -2t-48.5 -4.5t-39.5 -2.5zM409 532q-13 0 -14 11.5t4 22.5
l73 162q9 20 18 28.5t21 8.5q11 0 26 -9t26 -21t11 -22t-6 -20t-17 -21l-111 -123q-7 -7 -15 -12t-16 -5z" />
  </g>

</svg>
