<?xml version="1.0" standalone="no"?>
<!DOCTYPE svg PUBLIC "-//W3C//DTD SVG 1.1//EN" "http://www.w3.org/Graphics/SVG/1.1/DTD/svg11.dtd" >
<svg xmlns="http://www.w3.org/2000/svg" xmlns:xlink="http://www.w3.org/1999/xlink" version="1.1" viewBox="-10 0 456 1000">
  <g transform="matrix(1 0 0 -1 0 800)">
   <path fill="currentColor"
d="M65 299q-3 0 -9.5 7.5t-4.5 15.5q4 10 20 23.5t26 23.5q25 26 41.5 42t32 31t36 35t51.5 52q2 2 3 5t-8 3h-20q-10 0 -17.5 -3t-18.5 -11q-4 -2 -15.5 -13t-25 -24.5t-24 -23.5t-11.5 -12q-6 -4 -16.5 -1.5t-7.5 8.5q4 7 15 26.5t22.5 42.5t16.5 39q2 8 9.5 14t14.5 6
q5 0 8.5 -2t5.5 -4q3 -3 13 -4t21 -1h33q24 0 55.5 0.5t62.5 1.5t50 1q11 0 11.5 -16.5t-7.5 -23.5q-11 -9 -21 -17t-21 -19l-150 -150q-4 -4 -3.5 -7t12.5 -3h24q11 0 20.5 3t21.5 13q20 18 39.5 33t37.5 43q8 11 20 11q5 0 8 -4t1 -9q-3 -9 -14.5 -29.5t-26.5 -45.5
t-30 -47q-4 -4 -9 -7t-10 -3q-17 0 -69 2t-127 2q-17 0 -36 -2t-30 -2z" />
  </g>

</svg>
