<?xml version="1.0" standalone="no"?>
<!DOCTYPE svg PUBLIC "-//W3C//DTD SVG 1.1//EN" "http://www.w3.org/Graphics/SVG/1.1/DTD/svg11.dtd" >
<svg xmlns="http://www.w3.org/2000/svg" xmlns:xlink="http://www.w3.org/1999/xlink" version="1.1" viewBox="-10 0 550 1000">
  <g transform="matrix(1 0 0 -1 0 800)">
   <path fill="currentColor"
d="M190 -14q-38 0 -68 19t-47 52.5t-16 76.5q1 33 14.5 73.5t38 81t60 74t80.5 54t99 20.5q38 0 68.5 -19t47.5 -52t16 -75q-1 -45 -21.5 -97.5t-58 -99.5t-91 -77.5t-122.5 -30.5zM211 27q18 0 37 21.5t37.5 57t33.5 78.5t25 86t13 80q2 25 -3 37t-23 12q-16 0 -34.5 -21.5
t-37 -57t-34 -78.5t-26.5 -86.5t-13 -79.5q-2 -25 3.5 -37t21.5 -12z" />
  </g>

</svg>
