<?xml version="1.0" standalone="no"?>
<!DOCTYPE svg PUBLIC "-//W3C//DTD SVG 1.1//EN" "http://www.w3.org/Graphics/SVG/1.1/DTD/svg11.dtd" >
<svg xmlns="http://www.w3.org/2000/svg" xmlns:xlink="http://www.w3.org/1999/xlink" version="1.1" viewBox="-10 0 562 1000">
  <g transform="matrix(1 0 0 -1 0 800)">
   <path fill="currentColor"
d="M109 -197q-31 -2 -50 22t-19 50q0 23 12 30.5t28 7.5q28 0 63.5 10t69.5 25t57 29t25 22q2 5 -2 10t-12 5q-16 0 -48.5 -5t-67 -10.5t-56.5 -5.5q-20 0 -44 15.5t-41 41t-18 56.5q-1 33 19 81.5t56.5 106t85.5 118t106 117.5q-62 0 -92.5 23.5t-32.5 54.5q0 25 18.5 51
t55.5 46t91 27q5 1 8.5 -1t3.5 -7q0 -7 -5 -9.5t-11 -4.5q-34 -13 -51.5 -38.5t-16.5 -50.5q0 -22 15.5 -39t46.5 -17q53 42 85.5 67t51.5 38t29.5 17t20.5 4q17 0 34.5 -15.5t17.5 -42.5q0 -26 -15 -53t-51.5 -45t-99.5 -18q-34 -25 -74.5 -56t-79.5 -66.5t-71 -73
t-50.5 -74.5t-17.5 -71q1 -22 16.5 -32.5t47.5 -10.5q12 0 35.5 2t49.5 4.5t44 2.5q17 0 32.5 -20.5t26 -47.5t10.5 -48q0 -18 -14 -45t-38 -57t-54.5 -56.5t-64 -44t-65.5 -19.5z" />
  </g>

</svg>
