<?xml version="1.0" standalone="no"?>
<!DOCTYPE svg PUBLIC "-//W3C//DTD SVG 1.1//EN" "http://www.w3.org/Graphics/SVG/1.1/DTD/svg11.dtd" >
<svg xmlns="http://www.w3.org/2000/svg" xmlns:xlink="http://www.w3.org/1999/xlink" version="1.1" viewBox="-10 0 682 1000">
  <g transform="matrix(1 0 0 -1 0 761)">
   <path fill="currentColor"
d="M192 711v-711h-132v711h132zM517 377c0 0 95 -35 95 -153c0 -41 -8 -78 -24 -110c-13 -24 -30 -45 -51 -62c-40 -33 -96 -52 -152 -52h-136v135h134c8 0 31 2 53 13c29 15 45 40 45 73c0 24 -12 44 -35 58c-17 11 -39 18 -60 18h-137v120h103c23 0 43 7 57 19
c16 15 25 37 25 66c0 20 -6 36 -18 48c-16 17 -45 26 -84 26h-83v135h84c63 0 113 -12 152 -36c53 -33 81 -89 81 -167c0 -87 -49 -131 -49 -131z" />
  </g>

</svg>
