<?xml version="1.0" standalone="no"?>
<!DOCTYPE svg PUBLIC "-//W3C//DTD SVG 1.1//EN" "http://www.w3.org/Graphics/SVG/1.1/DTD/svg11.dtd" >
<svg xmlns="http://www.w3.org/2000/svg" xmlns:xlink="http://www.w3.org/1999/xlink" version="1.1" viewBox="-10 0 682 1000">
  <g transform="matrix(1 0 0 -1 0 761)">
   <path fill="currentColor"
d="M195 711v-711h-135v711h135zM447 265l165 -265h-173l-148 252h-39v140h110c35 0 60 8 76 25c14 16 21 38 21 65c0 19 -4 45 -20 63c-17 17 -42 26 -77 26h-110v140h120c54 0 107 -21 147 -56c33 -30 72 -84 72 -173c0 -63 -20 -118 -56 -158c-22 -24 -50 -44 -81 -56z
" />
  </g>

</svg>
