<?xml version="1.0" standalone="no"?>
<!DOCTYPE svg PUBLIC "-//W3C//DTD SVG 1.1//EN" "http://www.w3.org/Graphics/SVG/1.1/DTD/svg11.dtd" >
<svg xmlns="http://www.w3.org/2000/svg" xmlns:xlink="http://www.w3.org/1999/xlink" version="1.1" viewBox="-10 0 651 1000">
  <g transform="matrix(1 0 0 -1 0 761)">
   <path fill="currentColor"
d="M349 587v139c67 -5 112 -21 140 -36c30 -15 45 -31 49 -36l-4 -162s-58 78 -185 95zM292 122v-136c-77 4 -133 24 -167 41s-54 35 -59 40v172c11 -12 30 -32 57 -52c26 -19 54 -35 83 -46c28 -11 57 -17 86 -19zM567 309c16 -26 24 -58 24 -95c0 -41 -8 -76 -24 -107
c-15 -29 -37 -52 -65 -71c-49 -34 -106 -46 -153 -49v135c32 4 60 13 81 29c24 16 38 36 38 55c0 26 -12 44 -40 58c-31 15 -74 25 -117 33l-4 1c-59 11 -119 24 -167 54c-28 16 -49 37 -65 65c-17 29 -25 64 -25 104c0 67 30 122 86 159v1c41 27 97 44 156 46v-136
c-21 -1 -49 -6 -74 -17c-28 -13 -42 -31 -42 -54c0 -31 13 -50 43 -65c30 -16 73 -25 121 -35c63 -12 119 -24 165 -51c28 -16 48 -35 62 -60z" />
  </g>

</svg>
