<?xml version="1.0" standalone="no"?>
<!DOCTYPE svg PUBLIC "-//W3C//DTD SVG 1.1//EN" "http://www.w3.org/Graphics/SVG/1.1/DTD/svg11.dtd" >
<svg xmlns="http://www.w3.org/2000/svg" xmlns:xlink="http://www.w3.org/1999/xlink" version="1.1" viewBox="-10 0 651 1000">
  <g transform="matrix(1 0 0 -1 0 761)">
   <path fill="currentColor"
d="M140 352c-28 16 -49 37 -65 65c-17 29 -25 64 -25 105c0 67 30 122 86 159v1c45 30 107 47 172 47c90 0 148 -20 181 -38c30 -15 45 -31 49 -36l-4 -163s-74 100 -236 100c-21 0 -53 -4 -80 -17c-28 -13 -42 -31 -42 -54c0 -32 13 -51 43 -66c27 -14 66 -23 109 -32
l-35 -122c-54 11 -109 24 -153 51zM567 309c16 -26 24 -58 24 -95c0 -41 -8 -76 -24 -106c-15 -29 -37 -52 -65 -71c-61 -43 -135 -51 -186 -51c-90 0 -154 23 -191 42c-34 17 -54 35 -59 40v171c11 -12 30 -32 57 -52c26 -19 54 -35 83 -46c36 -13 73 -20 111 -20
c45 0 85 10 113 30c24 16 38 36 38 55c0 26 -12 44 -40 58c-22 11 -49 19 -79 26l35 122c45 -10 86 -22 121 -43c28 -16 48 -35 62 -60z" />
  </g>

</svg>
