<?xml version="1.0" standalone="no"?>
<!DOCTYPE svg PUBLIC "-//W3C//DTD SVG 1.1//EN" "http://www.w3.org/Graphics/SVG/1.1/DTD/svg11.dtd" >
<svg xmlns="http://www.w3.org/2000/svg" xmlns:xlink="http://www.w3.org/1999/xlink" version="1.1" viewBox="-10 0 633 1000">
  <g transform="matrix(1 0 0 -1 0 761)">
   <path fill="currentColor"
d="M383 120v-115c-23 -12 -53 -22 -91 -22c-133 0 -242 115 -242 258c0 68 25 133 70 181c46 49 107 76 172 76c38 0 68 -9 91 -21v-117c-22 17 -48 26 -75 26c-34 0 -67 -15 -91 -42c-25 -27 -39 -64 -39 -104s14 -76 39 -104c24 -27 57 -42 91 -42c27 0 53 9 75 26z
M440 484h133v-488h-133v488zM505 643c0 39 -32 70 -71 70s-70 -31 -70 -70s31 -70 70 -70s71 31 71 70zM263 643c0 39 -31 70 -70 70s-71 -31 -71 -70s32 -70 71 -70s70 31 70 70z" />
  </g>

</svg>
