<?xml version="1.0" standalone="no"?>
<!DOCTYPE svg PUBLIC "-//W3C//DTD SVG 1.1//EN" "http://www.w3.org/Graphics/SVG/1.1/DTD/svg11.dtd" >
<svg xmlns="http://www.w3.org/2000/svg" xmlns:xlink="http://www.w3.org/1999/xlink" version="1.1" viewBox="-10 0 1036 1000">
  <g transform="matrix(1 0 0 -1 0 761)">
   <path fill="currentColor"
d="M906 417c91 -92 67 -224 67 -224l-307 -1v92h181c28 0 -40 71 -91 83v124c10 -1 20 -3 30 -5c46 -11 87 -35 120 -69zM818 144l16 18l95 -75l-18 -19c-20 -25 -45 -44 -73 -59h-1c-36 -18 -73 -27 -111 -27c-19 0 -38 2 -57 6c-45 11 -85 35 -118 68
c-15 16 -28 34 -38 53c-11 -20 -24 -38 -40 -54c-40 -42 -92 -68 -147 -75v127c53 15 92 67 92 130c0 62 -39 114 -92 129v126c80 -10 148 -59 187 -128c11 19 24 37 40 54c40 41 92 66 146 72v-124c-25 -6 -46 -21 -62 -38c-11 -11 -40 -50 -38 -92c1 -66 35 -92 48 -103
c23 -18 51 -29 79 -29c35 0 69 15 92 40zM122 418c40 42 91 68 147 74v-126c-21 -6 -40 -18 -56 -35c-23 -25 -36 -59 -36 -94c0 -36 13 -70 36 -95c16 -18 35 -29 56 -35v-127c-123 15 -219 124 -219 257c0 68 25 133 72 181z" />
  </g>

</svg>
