<?xml version="1.0" standalone="no"?>
<!DOCTYPE svg PUBLIC "-//W3C//DTD SVG 1.1//EN" "http://www.w3.org/Graphics/SVG/1.1/DTD/svg11.dtd" >
<svg xmlns="http://www.w3.org/2000/svg" xmlns:xlink="http://www.w3.org/1999/xlink" version="1.1" viewBox="-10 0 632 1000">
  <g transform="matrix(1 0 0 -1 0 761)">
   <path fill="currentColor"
d="M439 487l1 -721h132l-1 721h-132zM292 501c-134 0 -242 -115 -242 -258c0 -68 25 -133 70 -181c46 -49 107 -76 172 -76c37 0 67 9 90 20v117c-21 -16 -46 -25 -73 -25c-35 0 -68 15 -92 42c-25 27 -39 64 -39 104s14 76 39 104c24 27 57 42 92 42c27 0 52 -9 73 -25v112
c-23 14 -53 24 -90 24z" />
  </g>

</svg>
