<?xml version="1.0" standalone="no"?>
<!DOCTYPE svg PUBLIC "-//W3C//DTD SVG 1.1//EN" "http://www.w3.org/Graphics/SVG/1.1/DTD/svg11.dtd" >
<svg xmlns="http://www.w3.org/2000/svg" xmlns:xlink="http://www.w3.org/1999/xlink" version="1.1" viewBox="-10 0 671 1024">
  <g transform="matrix(1 0 0 -1 0 819)">
   <path fill="currentColor"
d="M511 206c-1 13 -3 26 -8 38s-13 23 -23 32c-11 10 -22 17 -35 22s-28 8 -43 8h-197v-200h197c16 0 30 2 43 7s25 13 35 22c10 10 18 21 23 33s8 25 8 38zM374 610h-169v-197h182c15 0 28 2 40 7c11 5 22 13 31 23s16 21 21 32s7 23 7 36s-3 26 -8 38s-12 23 -23 32
s-23 17 -36 22s-28 7 -45 7zM608 206c0 -29 -5 -55 -14 -79s-24 -46 -43 -66c-19 -21 -41 -36 -66 -46s-52 -15 -83 -15h-197h-6h-101v625v90h101h6h169c28 0 54 -5 78 -15s46 -25 66 -45s35 -42 45 -66s15 -50 15 -79c0 -11 -1 -23 -4 -35c-2 -12 -5 -25 -10 -38
s-11 -25 -19 -36s-18 -21 -29 -30c15 -9 28 -18 39 -29s21 -23 29 -36s14 -28 18 -45s6 -35 6 -55z" />
  </g>

</svg>
