<?xml version="1.0" standalone="no"?>
<!DOCTYPE svg PUBLIC "-//W3C//DTD SVG 1.1//EN" "http://www.w3.org/Graphics/SVG/1.1/DTD/svg11.dtd" >
<svg xmlns="http://www.w3.org/2000/svg" xmlns:xlink="http://www.w3.org/1999/xlink" version="1.1" viewBox="-10 0 890 1024">
  <g transform="matrix(1 0 0 -1 0 819)">
   <path fill="currentColor"
d="M436 84c25 0 48 3 70 9s43 15 64 27c21 11 39 25 55 41c16 15 30 33 43 52c7 11 12 21 17 32s10 23 13 35c3 13 6 25 8 38s3 26 3 39s-1 26 -3 38c-2 13 -5 25 -8 38c-3 12 -8 24 -13 35s-10 21 -17 32c-13 19 -27 37 -43 53c-16 15 -34 29 -55 41c-21 11 -42 20 -64 26
s-45 9 -70 9s-48 -3 -70 -9s-43 -15 -64 -26c-21 -12 -39 -26 -55 -41c-16 -16 -30 -34 -42 -53c-7 -11 -13 -21 -18 -32s-10 -23 -13 -35c-3 -13 -6 -25 -8 -38c-1 -12 -2 -25 -2 -38s1 -26 2 -39c2 -13 5 -25 8 -38c3 -12 8 -24 13 -35s11 -21 18 -32
c12 -19 26 -37 42 -52c16 -16 34 -30 55 -41c21 -12 42 -21 64 -27s45 -9 70 -9zM626 20l105 -199c-11 -5 -25 -13 -41 -22l-59 -31l-111 212l-20 -4l-21 -3c-7 -1 -14 -1 -21 -1c-7 -1 -14 -1 -21 -1c-35 0 -68 4 -99 12c-31 9 -62 21 -91 38s-54 36 -77 58
c-23 23 -43 48 -60 75c-9 15 -17 30 -25 46s-14 33 -19 50s-9 34 -11 52c-3 18 -4 36 -4 55c0 35 4 68 13 99c8 31 20 62 37 91s36 54 58 77s47 43 74 60c15 9 30 18 46 25s33 13 50 18s35 8 52 11c18 3 36 4 55 4s37 -1 55 -4s36 -6 53 -11s33 -11 49 -18s32 -16 47 -25
c27 -17 52 -37 74 -60c21 -23 41 -49 58 -78s29 -59 38 -90s13 -64 13 -99c0 -37 -5 -71 -14 -104s-22 -65 -41 -94c-18 -29 -39 -56 -62 -79c-24 -23 -51 -43 -80 -60z" />
  </g>

</svg>
