<?xml version="1.0" standalone="no"?>
<!DOCTYPE svg PUBLIC "-//W3C//DTD SVG 1.1//EN" "http://www.w3.org/Graphics/SVG/1.1/DTD/svg11.dtd" >
<svg xmlns="http://www.w3.org/2000/svg" xmlns:xlink="http://www.w3.org/1999/xlink" version="1.1" viewBox="-10 0 715 1024">
  <g transform="matrix(1 0 0 -1 0 819)">
   <path fill="currentColor"
d="M205 375h185c16 0 31 3 45 8c14 6 27 15 38 26c12 11 21 24 27 38c5 14 8 29 8 45c0 17 -3 32 -8 45c-6 14 -15 27 -27 38c-11 11 -24 20 -37 26c-14 6 -29 9 -46 9h-185v-236v1zM436 272l205 -217l-32 -30c-13 -12 -28 -26 -45 -43c-134 143 -224 239 -269 286h-90v-268
h-106v359v357h291c31 0 59 -5 86 -16c26 -11 50 -28 72 -50s39 -46 50 -73s16 -55 16 -86c0 -27 -4 -52 -12 -75c-9 -24 -22 -46 -39 -67s-36 -37 -57 -50s-44 -22 -70 -27z" />
  </g>

</svg>
