<?xml version="1.0" standalone="no"?>
<!DOCTYPE svg PUBLIC "-//W3C//DTD SVG 1.1//EN" "http://www.w3.org/Graphics/SVG/1.1/DTD/svg11.dtd" >
<svg xmlns="http://www.w3.org/2000/svg" xmlns:xlink="http://www.w3.org/1999/xlink" version="1.1" viewBox="-10 0 624 1024">
  <g transform="matrix(1 0 0 -1 0 819)">
   <path fill="currentColor"
d="M302 -9c-20 0 -39 2 -58 5s-36 7 -53 14l-47 19c-15 6 -27 14 -38 20c-7 4 -13 7 -18 10c-5 4 -10 7 -15 10s-8 6 -11 8c-3 3 -6 5 -8 6l61 78l20 -14l35 -21c15 -9 30 -16 47 -22c17 -5 34 -9 53 -12c11 -1 21 -2 32 -2l31 3c11 1 22 4 33 8c11 3 22 8 33 15
c7 5 14 10 20 16s11 13 16 20s8 15 10 23c2 7 3 15 2 24c-1 8 -2 16 -5 23s-6 13 -11 20s-10 13 -17 18c-7 6 -14 11 -23 14l-31 12l-41 14l-35 12c-11 4 -23 7 -34 11l-34 14c-11 4 -22 9 -31 14c-17 8 -31 17 -44 28s-25 23 -34 36s-17 27 -23 42c-7 15 -11 30 -12 47
c-2 17 -2 33 1 50c3 16 8 32 15 47s16 30 26 44c11 14 23 27 38 38l13 10l17 10l21 10l24 9c10 4 21 6 32 8c12 1 25 2 38 2c7 0 15 0 23 -1c8 0 16 -1 25 -2c23 -3 48 -10 75 -22s55 -29 85 -50l-56 -80l-29 18c-5 3 -11 7 -18 10l-20 9c-13 6 -26 10 -40 14
c-14 3 -28 6 -43 7s-30 0 -44 -5s-28 -13 -41 -24c-7 -6 -14 -13 -20 -20s-11 -14 -14 -22c-4 -8 -8 -16 -8 -24c-3 -8 -2 -16 -1 -24s3 -16 6 -23s7 -14 12 -21s11 -13 17 -18c7 -5 14 -11 23 -15l26 -12l31 -12l63 -22c9 -3 17 -5 24 -8l22 -8c7 -3 13 -5 20 -7
c6 -2 12 -4 17 -7c17 -7 32 -18 46 -29c13 -11 25 -23 35 -38c10 -14 18 -29 24 -44c6 -16 9 -33 9 -50v-5c0 -17 -2 -33 -6 -48s-10 -30 -19 -45s-19 -29 -31 -41c-13 -13 -27 -23 -42 -32c-13 -7 -25 -14 -37 -19c-13 -5 -25 -9 -37 -12c-13 -3 -25 -6 -37 -7
s-24 -2 -35 -2z" />
  </g>

</svg>
