<?xml version="1.0" standalone="no"?>
<!DOCTYPE svg PUBLIC "-//W3C//DTD SVG 1.1//EN" "http://www.w3.org/Graphics/SVG/1.1/DTD/svg11.dtd" >
<svg xmlns="http://www.w3.org/2000/svg" xmlns:xlink="http://www.w3.org/1999/xlink" version="1.1" viewBox="-10 0 759 1024">
  <g transform="matrix(1 0 0 -1 0 819)">
   <path fill="currentColor"
d="M379 -8c-46 1 -87 8 -122 21s-66 32 -91 59s-44 59 -57 96s-19 79 -19 128v419h106v-419c0 -15 1 -30 2 -43c2 -13 4 -25 7 -36s7 -20 11 -29s8 -18 13 -25c9 -13 20 -25 32 -34c11 -9 24 -16 38 -19s28 -6 41 -8s26 -3 39 -3c15 0 28 1 40 2c12 2 23 4 33 7
c11 3 20 7 28 12c9 4 16 9 23 14c13 9 23 20 31 33s14 27 17 42s6 30 8 44c2 15 3 29 3 42v419h106v-419c0 -49 -6 -91 -19 -128c-12 -37 -31 -69 -56 -96s-56 -46 -92 -59c-35 -13 -76 -21 -122 -20z" />
  </g>

</svg>
