<?xml version="1.0" standalone="no"?>
<!DOCTYPE svg PUBLIC "-//W3C//DTD SVG 1.1//EN" "http://www.w3.org/Graphics/SVG/1.1/DTD/svg11.dtd" >
<svg xmlns="http://www.w3.org/2000/svg" xmlns:xlink="http://www.w3.org/1999/xlink" version="1.1" viewBox="-10 0 452 1024">
  <g transform="matrix(1 0 0 -1 0 819)">
   <path fill="currentColor"
d="M389 607l-96 -55c21 -13 40 -23 56 -32s29 -17 40 -24l-32 -54c-21 13 -39 23 -55 32l-40 23v-110h-63v110l-55 -32c-16 -9 -29 -16 -40 -23l-31 54l95 56l-95 55l31 54l55 -32c16 -9 29 -16 40 -23v110h63v-110c21 13 40 23 55 32l40 23z" />
  </g>

</svg>
