<?xml version="1.0" standalone="no"?>
<!DOCTYPE svg PUBLIC "-//W3C//DTD SVG 1.1//EN" "http://www.w3.org/Graphics/SVG/1.1/DTD/svg11.dtd" >
<svg xmlns="http://www.w3.org/2000/svg" xmlns:xlink="http://www.w3.org/1999/xlink" version="1.1" viewBox="-10 0 354 1024">
  <g transform="matrix(1 0 0 -1 0 819)">
   <path fill="currentColor"
d="M181 45h1l84 -63c-6 -9 -14 -19 -23 -31l-32 -43c-9 7 -21 14 -36 25c-14 10 -31 21 -49 36l-11 9c-4 3 -8 7 -12 12c-3 5 -7 10 -11 15c-3 5 -7 10 -10 17c-5 11 -10 24 -13 38s-4 30 -4 47s3 35 10 55c6 19 15 40 28 63c3 5 5 9 6 13l4 14c1 5 1 9 1 13s-1 8 -2 11
l-3 7c-1 3 -3 5 -4 7c-2 3 -4 5 -6 6c-2 2 -4 4 -7 5c-1 1 -3 1 -5 1c-1 1 -3 1 -6 1c-2 1 -3 1 -4 1h-2h-50v51v39v13h51h1h5l11 3c3 1 5 3 7 5c2 1 4 3 5 5l4 8c1 2 3 4 4 7s1 7 1 11s0 8 -1 13s-2 9 -4 13c-1 4 -3 8 -6 13c-7 12 -12 24 -17 35s-8 22 -11 33l-7 30
c-1 9 -2 19 -2 28c-1 17 1 32 4 46s9 26 16 37s14 21 21 28c7 8 13 14 20 19l84 62l23 -32l32 -43l-87 -63l-6 -7l-4 -5c-1 -2 -3 -4 -4 -7c-3 -5 -4 -11 -5 -18s-2 -16 -2 -25c1 -9 3 -20 7 -33c4 -12 10 -25 19 -40c5 -10 10 -20 14 -30c3 -10 6 -20 7 -31s2 -21 1 -31
c-1 -11 -2 -21 -5 -30c-1 -5 -3 -10 -5 -15l-7 -14l-8 -13l-10 -11l10 -12l8 -13l7 -14c2 -5 4 -10 5 -15c3 -9 4 -19 5 -30c1 -10 0 -20 -1 -31s-4 -21 -7 -31c-4 -10 -9 -20 -14 -30c-6 -11 -11 -21 -15 -31s-7 -20 -8 -29c-2 -9 -3 -18 -2 -26c-1 -8 1 -16 4 -23
c1 -4 3 -7 5 -10l6 -8c2 -3 4 -4 5 -5z" />
  </g>

</svg>
