<?xml version="1.0" standalone="no"?>
<!DOCTYPE svg PUBLIC "-//W3C//DTD SVG 1.1//EN" "http://www.w3.org/Graphics/SVG/1.1/DTD/svg11.dtd" >
<svg xmlns="http://www.w3.org/2000/svg" xmlns:xlink="http://www.w3.org/1999/xlink" version="1.1" viewBox="-10 0 630 1024">
  <g transform="matrix(1 0 0 -1 0 819)">
   <path fill="currentColor"
d="M149 314h316c-3 21 -8 40 -16 58c-8 19 -18 35 -31 50s-28 26 -47 33c-18 7 -39 11 -64 11c-22 0 -42 -4 -60 -11s-34 -17 -47 -32s-24 -31 -33 -49s-15 -38 -18 -60zM550 225h-398c5 -19 12 -37 23 -53c10 -16 23 -30 38 -43c15 -12 32 -21 51 -27s39 -9 62 -9
c13 0 26 2 39 5s25 7 38 14s24 13 34 20c11 7 20 15 28 23l63 -65c-11 -13 -24 -24 -39 -35s-31 -22 -50 -31s-37 -15 -56 -20s-38 -7 -57 -7c-40 0 -77 7 -110 20s-62 32 -89 59c-26 26 -46 56 -59 89s-19 69 -19 110c0 14 1 28 2 41s4 26 7 39s7 25 12 37
c5 11 10 23 16 34c11 20 24 38 39 54s33 31 52 43s38 20 59 26s43 9 66 9h4c41 0 76 -7 107 -21c31 -13 57 -33 78 -60c21 -26 38 -55 49 -87c10 -27 14 -57 14 -89v-17v-5s0 -8 -1 -15c0 -7 0 -13 -1 -19c0 -7 -1 -13 -2 -20z" />
  </g>

</svg>
