<?xml version="1.0" standalone="no"?>
<!DOCTYPE svg PUBLIC "-//W3C//DTD SVG 1.1//EN" "http://www.w3.org/Graphics/SVG/1.1/DTD/svg11.dtd" >
<svg xmlns="http://www.w3.org/2000/svg" xmlns:xlink="http://www.w3.org/1999/xlink" version="1.1" viewBox="-10 0 644 1024">
  <g transform="matrix(1 0 0 -1 0 819)">
   <path fill="currentColor"
d="M57 460c0 13 1 26 3 38c2 13 5 25 8 36s7 23 12 34s11 21 17 31c12 19 25 36 41 51s34 29 53 40s40 20 62 26c21 5 44 8 67 8c13 0 25 -1 37 -3c13 -2 25 -5 36 -8s23 -7 34 -12s21 -11 31 -17c19 -12 35 -25 50 -41s29 -34 40 -53s20 -40 26 -62c5 -22 8 -45 8 -68
c0 -11 -1 -21 -2 -30c-1 -10 -2 -20 -5 -29c-2 -9 -5 -19 -8 -28s-6 -18 -11 -27l-191 -371l-98 50c45 89 76 148 91 177l-16 -3c-3 -1 -6 -1 -10 -1h-12c-23 0 -46 3 -68 8c-22 6 -43 15 -62 26s-37 25 -53 40s-30 31 -41 50c-6 10 -11 20 -16 31s-10 23 -13 34
s-6 23 -8 36c-1 12 -2 24 -2 37zM155 459c0 -22 4 -42 11 -61c8 -19 20 -37 36 -53s34 -28 53 -36c19 -7 39 -11 62 -11s43 4 62 12s37 20 52 35c16 16 28 34 36 53s12 39 12 61c0 23 -4 43 -12 62s-20 37 -36 53c-15 15 -33 27 -52 35s-39 12 -62 12s-43 -4 -62 -12
c-19 -7 -37 -19 -53 -35s-28 -34 -36 -53c-7 -19 -11 -39 -11 -62z" />
  </g>

</svg>
