<?xml version="1.0" standalone="no"?>
<!DOCTYPE svg PUBLIC "-//W3C//DTD SVG 1.1//EN" "http://www.w3.org/Graphics/SVG/1.1/DTD/svg11.dtd" >
<svg xmlns="http://www.w3.org/2000/svg" xmlns:xlink="http://www.w3.org/1999/xlink" version="1.1" viewBox="-10 0 773 1000">
  <g transform="matrix(1 0 0 -1 0 750)">
   <path fill="currentColor"
d="M332 700l109 17l224 -614l88 -32l-11 -71c-54 -26 -88 -56 -88 -85c0 -25 17 -33 41 -33c12 0 21 2 31 5l17 -72c-31 -11 -61 -12 -69 -12c-60 0 -102 38 -102 96c0 51 39 81 76 101h-197l-11 71l79 32l-45 120h-234l-48 -120l94 -31l-10 -72h-250l-11 71l87 32zM445 301
l-63 170v114l-112 -284h175z" />
  </g>

</svg>
