<?xml version="1.0" standalone="no"?>
<!DOCTYPE svg PUBLIC "-//W3C//DTD SVG 1.1//EN" "http://www.w3.org/Graphics/SVG/1.1/DTD/svg11.dtd" >
<svg xmlns="http://www.w3.org/2000/svg" xmlns:xlink="http://www.w3.org/1999/xlink" version="1.1" viewBox="-10 0 1360 1000">
  <g transform="matrix(1 0 0 -1 0 750)">
   <path fill="currentColor"
d="M1289 350c0 -125 -61 -313 -273 -393c84 0 102 -40 162 -40c16 0 37 6 67 26l45 -36l-106 -100c-110 0 -136 67 -223 67c-64 0 -121 -18 -182 -44l-40 68c62 30 116 60 154 89c-101 9 -172 51 -218 112c-56 -72 -145 -116 -270 -116c-239 0 -345 183 -345 367
s122 367 345 367c123 0 216 -50 273 -129c58 77 148 129 267 129c223 0 344 -161 344 -367zM405 633c-128 0 -195 -89 -195 -278s65 -288 195 -288c131 0 196 104 196 288s-68 278 -196 278zM1141 355c0 184 -68 278 -196 278s-195 -89 -195 -278s65 -288 195 -288
c108 0 196 104 196 288z" />
  </g>

</svg>
