<?xml version="1.0" standalone="no"?>
<!DOCTYPE svg PUBLIC "-//W3C//DTD SVG 1.1//EN" "http://www.w3.org/Graphics/SVG/1.1/DTD/svg11.dtd" >
<svg xmlns="http://www.w3.org/2000/svg" xmlns:xlink="http://www.w3.org/1999/xlink" version="1.1" viewBox="-10 0 1079 1000">
  <g transform="matrix(1 0 0 -1 0 750)">
   <path fill="currentColor"
d="M315 102v131c-93 0 -148 -39 -148 -96s41 -75 69 -75c27 0 62 15 79 40zM512 -10c-79 0 -145 13 -180 33c-30 -21 -75 -33 -133 -33c-90 0 -169 47 -169 138c0 136 159 167 285 167v35c0 57 -41 85 -85 85c-24 0 -55 -6 -74 -11l-22 -76l-67 12v96c58 29 118 42 168 42
c129 0 206 -67 206 -188v-158c0 -62 45 -71 78 -71c85 0 131 108 131 108l46 26c-63 16 -123 52 -123 128c0 84 54 144 157 144h292l12 -61l-59 -22v-301l57 -22l-12 -61h-215l-12 61l56 22v323h-64c-55 0 -78 -37 -78 -84c0 -39 35 -81 83 -81h27v-46l-69 -101
c-54 -79 -155 -104 -236 -104z" />
  </g>

</svg>
