<?xml version="1.0" standalone="no"?>
<!DOCTYPE svg PUBLIC "-//W3C//DTD SVG 1.1//EN" "http://www.w3.org/Graphics/SVG/1.1/DTD/svg11.dtd" >
<svg xmlns="http://www.w3.org/2000/svg" xmlns:xlink="http://www.w3.org/1999/xlink" version="1.1" viewBox="-10 0 835 1000">
  <g transform="matrix(1 0 0 -1 0 750)">
   <path fill="currentColor"
d="M594 62c51 0 103 12 154 46l34 -51c-64 -52 -127 -68 -193 -68c-85 0 -148 19 -193 53c-58 -40 -127 -53 -196 -53c-90 0 -169 48 -169 139c0 136 159 167 285 167v35c0 57 -41 85 -85 85c-24 0 -55 -6 -74 -11l-22 -76l-67 12v96c58 29 118 42 168 42
c71 0 126 -20 161 -59c46 38 107 59 175 59c120 0 218 -64 218 -162c0 -27 -10 -63 -22 -84h-315c2 -100 55 -170 141 -170zM316 102v131c-93 0 -148 -39 -148 -96s41 -75 69 -75c27 0 62 15 79 40zM456 294h205c2 10 3 20 3 29c0 59 -40 92 -92 92
c-65 0 -107 -49 -116 -121z" />
  </g>

</svg>
