<?xml version="1.0" standalone="no"?>
<!DOCTYPE svg PUBLIC "-//W3C//DTD SVG 1.1//EN" "http://www.w3.org/Graphics/SVG/1.1/DTD/svg11.dtd" >
<svg xmlns="http://www.w3.org/2000/svg" xmlns:xlink="http://www.w3.org/1999/xlink" version="1.1" viewBox="-10 0 785 1000">
  <g transform="matrix(1 0 0 -1 0 750)">
   <path fill="currentColor"
d="M239 262l-108 97c-33 30 -65 41 -103 47l12 61h182l12 -61l-40 -22l110 -99h26v99l-57 22l12 61h204l12 -61l-56 -22v-99h26l109 99l-40 22l12 61h182l12 -61c-51 -8 -79 -27 -102 -48l-108 -96l68 -30l88 -149l73 -22l-12 -61h-194l10 52l-102 171l-22 9v-149l63 -22
l-12 -61h-218l-12 61l64 23v148l-22 -9l-103 -171l11 -52h-194l-12 61l73 22l88 149z" />
  </g>

</svg>
