<?xml version="1.0" standalone="no"?>
<!DOCTYPE svg PUBLIC "-//W3C//DTD SVG 1.1//EN" "http://www.w3.org/Graphics/SVG/1.1/DTD/svg11.dtd" >
<svg xmlns="http://www.w3.org/2000/svg" xmlns:xlink="http://www.w3.org/1999/xlink" version="1.1" viewBox="-10 0 524 1000">
  <g transform="matrix(1 0 0 -1 0 750)">
   <path fill="currentColor"
d="M313 415c-81 0 -136 -61 -136 -163c0 -105 35 -190 137 -190c44 0 100 16 144 46l34 -51c-46 -42 -107 -65 -168 -68v-28c33 -2 82 -21 82 -74c0 -81 -87 -108 -147 -108l-20 56c52 0 82 20 82 47c0 17 -10 31 -29 31h-30v79c-149 15 -222 107 -222 241
c0 154 113 245 271 245c48 0 108 -13 166 -42v-96l-67 -12l-21 75c-21 8 -57 12 -76 12z" />
  </g>

</svg>
