<?xml version="1.0" standalone="no"?>
<!DOCTYPE svg PUBLIC "-//W3C//DTD SVG 1.1//EN" "http://www.w3.org/Graphics/SVG/1.1/DTD/svg11.dtd" >
<svg xmlns="http://www.w3.org/2000/svg" xmlns:xlink="http://www.w3.org/1999/xlink" version="1.1" viewBox="-10 0 492 1000">
  <g transform="matrix(1 0 0 -1 0 750)">
   <path fill="currentColor"
d="M244 697c36 0 65 -29 65 -65c0 -35 -29 -65 -65 -65c-34 0 -65 30 -65 65c0 36 31 65 65 65zM195 108l88 -31c100 -35 171 -73 171 -157c0 -119 -114 -170 -236 -170c-98 0 -194 34 -194 122c0 53 53 96 106 114l36 -44c-31 -17 -44 -46 -44 -65c0 -31 38 -56 96 -56
c56 0 106 30 106 73c0 38 -47 68 -88 81l-102 33c-35 12 -79 34 -79 85l48 80c-42 30 -61 73 -61 131c0 93 83 174 204 174c29 0 62 -4 88 -11l138 12l-15 -73h-58l45 -28c10 -22 15 -47 15 -74c0 -115 -94 -172 -220 -172c-24 0 -49 2 -70 8l-3 -8c1 -11 12 -19 29 -24z
M246 415c-48 0 -85 -35 -85 -108c0 -74 36 -112 85 -112c51 0 92 35 92 114c0 84 -48 106 -92 106z" />
  </g>

</svg>
