<?xml version="1.0" standalone="no"?>
<!DOCTYPE svg PUBLIC "-//W3C//DTD SVG 1.1//EN" "http://www.w3.org/Graphics/SVG/1.1/DTD/svg11.dtd" >
<svg xmlns="http://www.w3.org/2000/svg" xmlns:xlink="http://www.w3.org/1999/xlink" version="1.1" viewBox="-10 0 678 1000">
  <g transform="matrix(1 0 0 -1 0 750)">
   <path fill="currentColor"
d="M393 700l-85 -223h147l92 234h76l12 -11l-85 -223h91v-78h-121l-41 -106h134v-79h-165l-88 -225h-80l-11 11l83 214h-146l-88 -225h-79l-12 11l83 214h-77v79h109l41 106h-122v78h152l93 234h75zM278 399l-41 -106h146l42 106h-147z" />
  </g>

</svg>
