<?xml version="1.0" standalone="no"?>
<!DOCTYPE svg PUBLIC "-//W3C//DTD SVG 1.1//EN" "http://www.w3.org/Graphics/SVG/1.1/DTD/svg11.dtd" >
<svg xmlns="http://www.w3.org/2000/svg" xmlns:xlink="http://www.w3.org/1999/xlink" version="1.1" viewBox="-10 0 479 1000">
  <g transform="matrix(1 0 0 -1 0 750)">
   <path fill="currentColor"
d="M310 475c-38 0 -68 31 -68 68c0 99 86 205 142 233l35 -36c-46 -36 -77 -96 -79 -145h15c15 -17 23 -34 23 -52c0 -37 -30 -68 -68 -68zM138 475c-38 0 -68 31 -68 68c0 99 86 205 142 233l35 -36c-46 -36 -77 -96 -79 -145h15c15 -17 23 -34 23 -52
c0 -37 -30 -68 -68 -68z" />
  </g>

</svg>
