<?xml version="1.0" standalone="no"?>
<!DOCTYPE svg PUBLIC "-//W3C//DTD SVG 1.1//EN" "http://www.w3.org/Graphics/SVG/1.1/DTD/svg11.dtd" >
<svg xmlns="http://www.w3.org/2000/svg" xmlns:xlink="http://www.w3.org/1999/xlink" version="1.1" viewBox="-10 0 655 1000">
  <g transform="matrix(1 0 0 -1 0 750)">
   <path fill="currentColor"
d="M485 719v-75h93l-9 -42h-84v-204c0 -24 17 -38 30 -38c18 0 41 13 60 33l30 -37c-27 -28 -57 -47 -101 -47c-71 0 -108 41 -108 95v198h-40l-7 38l53 16l30 75zM160 309c-31 0 -82 9 -122 29v83l47 9l24 -70c12 -4 36 -7 45 -7c35 0 65 12 65 38c0 23 -38 42 -70 57
c-46 22 -109 51 -109 113c0 59 55 91 139 91c39 0 78 -11 108 -30v-67l-47 -8l-15 54c-17 4 -36 7 -53 7c-28 0 -51 -16 -51 -37c0 -27 56 -43 91 -60c49 -24 88 -46 88 -100c0 -62 -55 -102 -140 -102zM30 215h585v-67h-585v67z" />
  </g>

</svg>
