<?xml version="1.0" standalone="no"?>
<!DOCTYPE svg PUBLIC "-//W3C//DTD SVG 1.1//EN" "http://www.w3.org/Graphics/SVG/1.1/DTD/svg11.dtd" >
<svg xmlns="http://www.w3.org/2000/svg" xmlns:xlink="http://www.w3.org/1999/xlink" version="1.1" viewBox="-10 0 1187 1000">
  <g transform="matrix(1 0 0 -1 0 750)">
   <path fill="currentColor"
d="M860 -10l-86 267v80l-111 -337l-113 -10l-130 416h-217v-289c0 -34 25 -55 43 -55c25 0 58 19 85 48l43 -53c-39 -40 -81 -67 -144 -67c-100 0 -153 59 -153 135v281h-57l-10 55l75 23l43 106l75 -17v-106h400l12 -61l-59 -22l64 -192v-86l117 360l102 13l91 -287v-66
l89 258l-60 22l12 61h178l12 -61l-69 -22l-124 -384z" />
  </g>

</svg>
