<?xml version="1.0" standalone="no"?>
<!DOCTYPE svg PUBLIC "-//W3C//DTD SVG 1.1//EN" "http://www.w3.org/Graphics/SVG/1.1/DTD/svg11.dtd" >
<svg xmlns="http://www.w3.org/2000/svg" xmlns:xlink="http://www.w3.org/1999/xlink" version="1.1" viewBox="-10 0 1027 1000">
  <g transform="matrix(1 0 0 -1 0 750)">
   <path fill="currentColor"
d="M933 384l-171 -488c-15 -43 -57 -120 -94 -146l-135 11l-11 60c53 8 135 26 170 116l20 52l-31 11l-191 406h-187v-323l62 -22l-12 -61h-228l-12 61l63 22v323h-75l-23 -78l-68 12v127h687l12 -61l-77 -22l113 -221v-83l106 304l-68 22l12 61h195l12 -61z" />
  </g>

</svg>
