<?xml version="1.0" standalone="no"?>
<!DOCTYPE svg PUBLIC "-//W3C//DTD SVG 1.1//EN" "http://www.w3.org/Graphics/SVG/1.1/DTD/svg11.dtd" >
<svg xmlns="http://www.w3.org/2000/svg" xmlns:xlink="http://www.w3.org/1999/xlink" version="1.1" viewBox="-10 0 599 1000">
  <g transform="matrix(1 0 0 -1 0 750)">
   <path fill="currentColor"
d="M307 658c52 0 98 19 129 57l37 -25c-21 -58 -80 -119 -166 -119c-85 0 -144 61 -165 119l36 25c31 -38 78 -57 129 -57zM384 100v306h-42l-11 59l129 13l50 -15v-380l64 -22l-12 -61h-136l-30 23c-38 -27 -83 -34 -132 -34c-115 0 -182 74 -182 183v234h-41l-11 59
l120 13l58 -14v-301c0 -75 50 -101 91 -101c27 0 65 14 85 38z" />
  </g>

</svg>
