<?xml version="1.0" standalone="no"?>
<!DOCTYPE svg PUBLIC "-//W3C//DTD SVG 1.1//EN" "http://www.w3.org/Graphics/SVG/1.1/DTD/svg11.dtd" >
<svg xmlns="http://www.w3.org/2000/svg" xmlns:xlink="http://www.w3.org/1999/xlink" version="1.1" viewBox="-10 0 667 1000">
  <g transform="matrix(1 0 0 -1 0 750)">
   <path fill="currentColor"
d="M422 697c35 0 65 -29 65 -65c0 -35 -30 -65 -65 -65s-65 30 -65 65c0 36 30 65 65 65zM234 697c36 0 65 -29 65 -65c0 -35 -29 -65 -65 -65c-35 0 -65 30 -65 65c0 36 30 65 65 65zM225 97v-14l63 -22l-12 -61h-227l-12 61l63 22v301l-65 22l12 61h232l12 -61l-66 -22
v-145l-24 -73l231 201v17l-65 22l12 61h231l12 -61l-65 -22v-301l63 -22l-12 -61h-229l-12 61l65 22v142l24 73z" />
  </g>

</svg>
