<?xml version="1.0" standalone="no"?>
<!DOCTYPE svg PUBLIC "-//W3C//DTD SVG 1.1//EN" "http://www.w3.org/Graphics/SVG/1.1/DTD/svg11.dtd" >
<svg xmlns="http://www.w3.org/2000/svg" xmlns:xlink="http://www.w3.org/1999/xlink" version="1.1" viewBox="-10 0 855 1000">
  <g transform="matrix(1 0 0 -1 0 750)">
   <path fill="currentColor"
d="M262 129v-26l84 -32l-12 -71h-282l-10 71l82 31v496l-84 31l12 71h283l13 -71l-86 -32v-254l-30 -110l350 332v33l-84 31l12 71h283l12 -71l-85 -31v-496l84 -31l-11 -71h-283l-10 71l82 31v261l39 105zM516 876c35 0 65 -29 65 -65c0 -35 -30 -65 -65 -65s-65 30 -65 65
c0 36 30 65 65 65zM328 876c36 0 65 -29 65 -65c0 -35 -29 -65 -65 -65c-35 0 -65 30 -65 65c0 36 30 65 65 65z" />
  </g>

</svg>
