<?xml version="1.0" standalone="no"?>
<!DOCTYPE svg PUBLIC "-//W3C//DTD SVG 1.1//EN" "http://www.w3.org/Graphics/SVG/1.1/DTD/svg11.dtd" >
<svg xmlns="http://www.w3.org/2000/svg" xmlns:xlink="http://www.w3.org/1999/xlink" version="1.1" viewBox="-60 0 605 1000">
  <g transform="matrix(1 0 0 -1 0 800)">
   <path fill="currentColor"
d="M0 0zM-43 51l56 14l269 589h75l115 -590l63 -13l-3 -51h-251l4 51l70 11l-20 119h-197l-53 -117l78 -13l-6 -51h-207zM324 243l-40 232l-1 30h-4l-10 -30l-103 -232h158zM432 693zM175.5 710.5q-16.5 17.5 -16.5 43.5q0 29 18.5 51t49.5 22q26 0 42 -16.5t16 -44.5
q0 -30 -18 -51.5t-50 -21.5q-25 0 -41.5 17.5zM394 710.5q-16 17.5 -16 43.5q0 29 18 51t49 22q26 0 42.5 -16.5t16.5 -44.5q0 -30 -18 -51.5t-50 -21.5q-26 0 -42 17.5z" />
  </g>

</svg>
