<?xml version="1.0" standalone="no"?>
<!DOCTYPE svg PUBLIC "-//W3C//DTD SVG 1.1//EN" "http://www.w3.org/Graphics/SVG/1.1/DTD/svg11.dtd" >
<svg xmlns="http://www.w3.org/2000/svg" xmlns:xlink="http://www.w3.org/1999/xlink" version="1.1" viewBox="-10 0 548 1000">
  <g transform="matrix(1 0 0 -1 0 800)">
   <path fill="currentColor"
d="M4 0zM82 65l73 518l-69 14l7 51h435l-26 -174h-61v113h-104l-66 -6l-32 -218h120l22 62h52l-25 -184h-50l-2 65h-125l-33 -239q39 -6 84 -6h97l39 109h54l-21 -170h-447l7 51zM434 687zM230.5 715q-35.5 28 -35.5 66q0 14 17.5 28t43.5 23q13 -29 38.5 -46t57.5 -17
q34 0 70 18.5t64 47.5l28 -22q-29 -55 -81 -90.5t-111 -35.5q-56 0 -91.5 28z" />
  </g>

</svg>
