<?xml version="1.0" standalone="no"?>
<!DOCTYPE svg PUBLIC "-//W3C//DTD SVG 1.1//EN" "http://www.w3.org/Graphics/SVG/1.1/DTD/svg11.dtd" >
<svg xmlns="http://www.w3.org/2000/svg" xmlns:xlink="http://www.w3.org/1999/xlink" version="1.1" viewBox="-10 0 801 1000">
  <g transform="matrix(1 0 0 -1 0 800)">
   <path fill="currentColor"
d="M11 51l71 14l73 518l-69 14l7 51h200l68 -433v-54h5l14 54l191 433h210l-6 -51l-69 -14l-75 -518l69 -14l-7 -51h-251l7 51l71 14l53 363l15 83h-6l-225 -511h-63l-80 515h-6l-5 -71l-54 -379l70 -14l-5 -51h-210z" />
  </g>

</svg>
