<?xml version="1.0" standalone="no"?>
<!DOCTYPE svg PUBLIC "-//W3C//DTD SVG 1.1//EN" "http://www.w3.org/Graphics/SVG/1.1/DTD/svg11.dtd" >
<svg xmlns="http://www.w3.org/2000/svg" xmlns:xlink="http://www.w3.org/1999/xlink" version="1.1" viewBox="-10 0 663 1000">
  <g transform="matrix(1 0 0 -1 0 800)">
   <path fill="currentColor"
d="M46 0zM164.5 18.5q-55.5 29.5 -87 88t-31.5 140.5q0 124 42.5 217.5t117 144.5t169.5 51q128 0 191 -72t63 -186q0 -120 -38 -213t-114 -146.5t-186 -53.5q-71 0 -126.5 29.5zM456.5 136.5q44.5 86.5 44.5 267.5q0 107 -35.5 151.5t-105.5 44.5q-98 0 -141.5 -84.5
t-43.5 -264.5q0 -109 34.5 -155t104.5 -46q98 0 142.5 86.5zM483 717zM232 792h326l-9 -75h-326z" />
  </g>

</svg>
