<?xml version="1.0" standalone="no"?>
<!DOCTYPE svg PUBLIC "-//W3C//DTD SVG 1.1//EN" "http://www.w3.org/Graphics/SVG/1.1/DTD/svg11.dtd" >
<svg xmlns="http://www.w3.org/2000/svg" xmlns:xlink="http://www.w3.org/1999/xlink" version="1.1" viewBox="-10 0 570 1000">
  <g transform="matrix(1 0 0 -1 0 800)">
   <path fill="currentColor"
d="M34 0zM97 51l71 14l74 520h-113l-37 -114h-58l19 177h497l-28 -177h-61l2 114h-108l-72 -520l69 -14l-6 -51h-256zM389 679zM288 689q-12 10 -22 20l-12 12l-75 72l40 45l103 -65l121 64l24 -37l-84 -69q-34 -29 -50.5 -40.5t-24.5 -11.5t-20 10z" />
  </g>

</svg>
