<?xml version="1.0" standalone="no"?>
<!DOCTYPE svg PUBLIC "-//W3C//DTD SVG 1.1//EN" "http://www.w3.org/Graphics/SVG/1.1/DTD/svg11.dtd" >
<svg xmlns="http://www.w3.org/2000/svg" xmlns:xlink="http://www.w3.org/1999/xlink" version="1.1" viewBox="-10 0 931 1000">
  <g transform="matrix(1 0 0 -1 0 800)">
   <path fill="currentColor"
d="M25 0zM84 591l-59 12l5 45h255l-5 -45l-73 -15l41 -418l2 -37h4l12 37l155 350l-11 71l-60 12l6 45h256l-6 -45l-73 -15l48 -416l2 -38h4l12 38l173 415l-73 16l5 45h207l-6 -45l-53 -13l-264 -598h-89l-59 403l-186 -403h-89zM593 693zM336.5 710.5
q-16.5 17.5 -16.5 43.5q0 29 18.5 51t49.5 22q26 0 42 -16.5t16 -44.5q0 -30 -18 -51.5t-50 -21.5q-25 0 -41.5 17.5zM555 710.5q-16 17.5 -16 43.5q0 29 18 51t49 22q26 0 42.5 -16.5t16.5 -44.5q0 -30 -18 -51.5t-50 -21.5q-26 0 -42 17.5z" />
  </g>

</svg>
