<?xml version="1.0" standalone="no"?>
<!DOCTYPE svg PUBLIC "-//W3C//DTD SVG 1.1//EN" "http://www.w3.org/Graphics/SVG/1.1/DTD/svg11.dtd" >
<svg xmlns="http://www.w3.org/2000/svg" xmlns:xlink="http://www.w3.org/1999/xlink" version="1.1" viewBox="-10 0 499 1000">
  <g transform="matrix(1 0 0 -1 0 800)">
   <path fill="currentColor"
d="M34 0zM34 0zM79 27q-45 38 -45 98q0 62 44.5 113.5t113.5 86.5q-48 40 -74 79t-26 83q0 52 30 91.5t79 60.5t103 21q83 0 126 -35t43 -93q0 -56 -39 -101.5t-98 -75.5q43 -36 65 -58t35 -50.5t13 -68.5q0 -51 -27.5 -94t-79.5 -69t-122 -26q-96 0 -141 38zM354.5 442
q20.5 33 20.5 73q0 38 -20.5 60t-66.5 22q-41 0 -64 -20t-23 -55q0 -36 25 -67.5t74 -70.5q34 25 54.5 58zM320 75q27 25 27 71q0 33 -21.5 59t-82.5 78l-16 14q-84 -59 -84 -159q0 -41 23.5 -64.5t74.5 -23.5q52 0 79 25z" />
  </g>

</svg>
