<?xml version="1.0" standalone="no"?>
<!DOCTYPE svg PUBLIC "-//W3C//DTD SVG 1.1//EN" "http://www.w3.org/Graphics/SVG/1.1/DTD/svg11.dtd" >
<svg xmlns="http://www.w3.org/2000/svg" xmlns:xlink="http://www.w3.org/1999/xlink" version="1.1" viewBox="-10 0 252 1000">
  <g transform="matrix(1 0 0 -1 0 800)">
   <path fill="currentColor"
d="M133 677.5q18 4.5 42 4.5q32 0 44.5 -9t12.5 -25q0 -9 -7 -45q-16 -64 -96 -443h-70l49 507q7 6 25 10.5zM28.5 -2.5q-15.5 15.5 -15.5 40.5q0 32 20 56.5t54 24.5q24 0 40 -15.5t16 -40.5q0 -33 -21 -57t-54 -24q-24 0 -39.5 15.5z" />
  </g>

</svg>
