<?xml version="1.0" standalone="no"?>
<!DOCTYPE svg PUBLIC "-//W3C//DTD SVG 1.1//EN" "http://www.w3.org/Graphics/SVG/1.1/DTD/svg11.dtd" >
<svg xmlns="http://www.w3.org/2000/svg" xmlns:xlink="http://www.w3.org/1999/xlink" version="1.1" viewBox="-10 0 822 1000">
  <g transform="matrix(1 0 0 -1 0 800)">
   <path fill="currentColor"
d="M45 441v36l16 30h74q14 56 46 102.5t75.5 74t92.5 27.5q26 0 39 -11t13 -37t-20 -48h-68q-23 0 -37.5 -3.5t-19.5 -9.5t-12 -23.5t-12 -48.5l-3 -23h171q26 91 91 149t164 58q49 0 74.5 -16.5t25.5 -46.5q0 -20 -14 -39.5t-34 -26.5q-37 16 -69.5 25t-72.5 9
q-31 0 -43 -12q-4 -4 -11 -22.5t-12 -48.5l-4 -29h257v-91l-57 -338h72v-54q-20 -12 -53.5 -21.5t-69.5 -9.5q-33 0 -48 15t-15 40q0 18 5 48l61 326l-75 19h-87l-61 -441l-113 -12l72 453h-163l-85 -611l-115 -11l99 622h-74z" />
  </g>

</svg>
