<?xml version="1.0" standalone="no"?>
<!DOCTYPE svg PUBLIC "-//W3C//DTD SVG 1.1//EN" "http://www.w3.org/Graphics/SVG/1.1/DTD/svg11.dtd" >
<svg xmlns="http://www.w3.org/2000/svg" xmlns:xlink="http://www.w3.org/1999/xlink" version="1.1" viewBox="-10 0 566 1000">
  <g transform="matrix(1 0 0 -1 0 800)">
   <path fill="currentColor"
d="M47 0zM73 10q-15 15 -15 40q0 24 6 48l60 319l-77 16v54l182 19v-90l-57 -336h72v-54q-20 -12 -53.5 -21.5t-69.5 -9.5q-33 0 -48 15zM223 554zM222 739q29 -6 42 -21.5t13 -35.5q0 -21 -17.5 -36.5t-56.5 -37.5l-96 -54l-30 37zM498 508v-88l-54 -380q-9 -62 -40 -109.5
t-79 -74t-105 -26.5q-32 0 -46 11t-14 36q0 16 5.5 28.5t8.5 15.5h77q20 0 35 3.5t18 7.5q9 17 16.5 36.5t13.5 58.5l61 392l-77 17v53zM492 554zM491 739q29 -6 42 -21.5t13 -35.5q0 -21 -17.5 -36.5t-56.5 -37.5l-96 -54l-30 37z" />
  </g>

</svg>
