<?xml version="1.0" standalone="no"?>
<!DOCTYPE svg PUBLIC "-//W3C//DTD SVG 1.1//EN" "http://www.w3.org/Graphics/SVG/1.1/DTD/svg11.dtd" >
<svg xmlns="http://www.w3.org/2000/svg" xmlns:xlink="http://www.w3.org/1999/xlink" version="1.1" viewBox="-10 0 559 1000">
  <g transform="matrix(1 0 0 -1 0 800)">
   <path fill="currentColor"
d="M47 0zM333 9.5q-14 14.5 -14 40.5q0 17 5 47l45 244q6 28 6 52q0 38 -37 38q-31 0 -59.5 -12.5t-56.5 -28.5l-60 -390h-115l77 417l-77 17v53l182 19l-3 -68h3q99 75 164 75q91 0 91 -86q0 -25 -10 -88l-44 -259h73v-54q-20 -12 -51.5 -21.5t-64.5 -9.5q-40 0 -54 14.5z
M418 540zM301 547q-8 7 -16 17.5t-12 15.5l-80 101l38 34l98 -79l121 79l29 -33l-93 -89q-26 -26 -42.5 -39.5t-26.5 -13.5q-8 0 -16 7z" />
  </g>

</svg>
