<?xml version="1.0" standalone="no"?>
<!DOCTYPE svg PUBLIC "-//W3C//DTD SVG 1.1//EN" "http://www.w3.org/Graphics/SVG/1.1/DTD/svg11.dtd" >
<svg xmlns="http://www.w3.org/2000/svg" xmlns:xlink="http://www.w3.org/1999/xlink" version="1.1" viewBox="-10 0 494 1000">
  <g transform="matrix(1 0 0 -1 0 800)">
   <path fill="currentColor"
d="M290 72q9 24 18 36l-3 2q-30 -52 -71.5 -85.5t-88.5 -33.5q-59 0 -89 42t-30 117q0 70 28 155.5t80.5 146.5t122.5 61q35 0 67.5 -10.5t54.5 -23.5l27 40h61l-109 -689l-116 -11l35 203q4 26 13 50zM245 99.5q31 24.5 56 57.5l39 226q-59 57 -118 57q-25 0 -30 -9
q-23 -41 -38 -110.5t-15 -149.5q0 -45 10 -70.5t35 -25.5q30 0 61 24.5z" />
  </g>

</svg>
