<?xml version="1.0" standalone="no"?>
<!DOCTYPE svg PUBLIC "-//W3C//DTD SVG 1.1//EN" "http://www.w3.org/Graphics/SVG/1.1/DTD/svg11.dtd" >
<svg xmlns="http://www.w3.org/2000/svg" xmlns:xlink="http://www.w3.org/1999/xlink" version="1.1" viewBox="-10 0 359 1000">
  <g transform="matrix(1 0 0 -1 0 800)">
   <path fill="currentColor"
d="M84.5 335q-35.5 30 -35.5 92q0 61 34 112t99 82.5t153 33.5l4 -44q-78 -6 -120.5 -34t-63.5 -70q34 23 71 23q51 0 79.5 -23t28.5 -72q0 -33 -18 -63t-52 -48.5t-78 -18.5q-66 0 -101.5 30zM234 371.5q12 16.5 12 50.5q0 29 -12.5 41.5t-40.5 12.5q-24 0 -49 -14
q-3 -13 -3 -42q0 -32 11.5 -48.5t39.5 -16.5q30 0 42 16.5z" />
  </g>

</svg>
