<?xml version="1.0" standalone="no"?>
<!DOCTYPE svg PUBLIC "-//W3C//DTD SVG 1.1//EN" "http://www.w3.org/Graphics/SVG/1.1/DTD/svg11.dtd" >
<svg xmlns="http://www.w3.org/2000/svg" xmlns:xlink="http://www.w3.org/1999/xlink" version="1.1" viewBox="-10 0 663 1000">
  <g transform="matrix(1 0 0 -1 0 800)">
   <path fill="currentColor"
d="M46 0zM164.5 18.5q-55.5 29.5 -87 88t-31.5 140.5q0 124 42.5 217.5t117 144.5t169.5 51q128 0 191 -72t63 -186q0 -120 -38 -213t-114 -146.5t-186 -53.5q-71 0 -126.5 29.5zM456.5 136.5q44.5 86.5 44.5 267.5q0 107 -35.5 151.5t-105.5 44.5q-98 0 -141.5 -84.5
t-43.5 -264.5q0 -109 34.5 -155t104.5 -46q98 0 142.5 86.5zM515.5 805.5q35.5 -28.5 35.5 -66.5q0 -14 -17.5 -28t-43.5 -23q-12 28 -37.5 45.5t-57.5 17.5q-34 0 -69.5 -18.5t-64.5 -47.5l-28 23q29 55 80.5 90.5t110.5 35.5q56 0 91.5 -28.5z" />
  </g>

</svg>
