<?xml version="1.0" standalone="no"?>
<!DOCTYPE svg PUBLIC "-//W3C//DTD SVG 1.1//EN" "http://www.w3.org/Graphics/SVG/1.1/DTD/svg11.dtd" >
<svg xmlns="http://www.w3.org/2000/svg" xmlns:xlink="http://www.w3.org/1999/xlink" version="1.1" viewBox="-290 0 398 1000">
  <g transform="matrix(1 0 0 -1 0 800)">
   <path fill="currentColor"
d="M-44.5 864.5q-18.5 4.5 -36.5 9.5l-91 27l-81 -32l-27 26l45 46q32 35 63 35q24 0 70 -14l92 -27l81 33l27 -27l-46 -46q-33 -35 -62 -35q-16 0 -34.5 4.5zM-269 720l84 66l20 16q19 15 33 25t20 10q8 0 22.5 -11.5t34.5 -30.5l78 -70l-37 -46l-109 63l-120 -59z" />
  </g>

</svg>
