<?xml version="1.0" standalone="no"?>
<!DOCTYPE svg PUBLIC "-//W3C//DTD SVG 1.1//EN" "http://www.w3.org/Graphics/SVG/1.1/DTD/svg11.dtd" >
<svg xmlns="http://www.w3.org/2000/svg" xmlns:xlink="http://www.w3.org/1999/xlink" version="1.1" viewBox="-257 0 333 1000">
  <g transform="matrix(1 0 0 -1 0 800)">
   <path fill="currentColor"
d="M0 562zM12 714zM11 899q29 -6 42 -21.5t13 -35.5q0 -21 -17.5 -36.5t-56.5 -37.5l-96 -54l-30 37zM4 562zM-186.5 580q-29.5 18 -45 44.5t-15.5 51.5q0 17 10 25q8 7 31 15t33 8q10 -83 82 -83q39 0 72 25t50 56l34 -17q-9 -34 -32.5 -66.5t-61.5 -54.5t-88 -22
q-40 0 -69.5 18z" />
  </g>

</svg>
