<?xml version="1.0" standalone="no"?>
<!DOCTYPE svg PUBLIC "-//W3C//DTD SVG 1.1//EN" "http://www.w3.org/Graphics/SVG/1.1/DTD/svg11.dtd" >
<svg xmlns="http://www.w3.org/2000/svg" xmlns:xlink="http://www.w3.org/1999/xlink" version="1.1" viewBox="-10 0 1118 1000">
  <g transform="matrix(1 0 0 -1 0 800)">
   <path fill="currentColor"
d="M4 0zM11 51l71 14l73 518l-69 14l7 51h174l186 -447l11 -41h4l3 41l53 382l-69 14l6 51h214l-6 -51l-71 -14l-80 -583h-100l-188 453l-9 40h-4l-60 -428l70 -14l-5 -51h-218zM685.5 -6q-42.5 8 -63.5 19l22 157h59l7 -110q34 -12 64 -12q32 0 47.5 17.5t22.5 64.5l62 452
l-79 15l6 51h265l-6 -51l-71 -14l-61 -447q-8 -55 -27.5 -87t-58 -47.5t-104.5 -15.5q-42 0 -84.5 8z" />
  </g>

</svg>
