<?xml version="1.0" standalone="no"?>
<!DOCTYPE svg PUBLIC "-//W3C//DTD SVG 1.1//EN" "http://www.w3.org/Graphics/SVG/1.1/DTD/svg11.dtd" >
<svg xmlns="http://www.w3.org/2000/svg" xmlns:xlink="http://www.w3.org/1999/xlink" version="1.1" viewBox="-10 0 482 1000">
  <g transform="matrix(1 0 0 -1 0 800)">
   <path fill="currentColor"
d="M403.5 141q-37.5 -86 -106.5 -125q-34 -17 -57.5 -47t-23.5 -57q0 -16 10 -25t29 -9q27 0 56 21l21 -32q-16 -19 -46 -34.5t-62 -15.5q-40 0 -64.5 16.5t-24.5 51.5q0 31 17.5 57.5t46.5 47.5h-5q-80 0 -122 43.5t-42 129.5q0 100 31.5 179.5t88 125t128.5 45.5
q81 0 122 -43.5t41 -133.5q0 -109 -37.5 -195zM312.5 163q13.5 65 13.5 147q0 57 -7.5 86t-24 39t-47.5 10q-16 0 -31 -3.5t-21 -9.5q-8 -8 -20 -42.5t-21 -86t-9 -108.5q0 -76 17.5 -107t65.5 -31q46 0 54 12q17 29 30.5 94z" />
  </g>

</svg>
