<?xml version="1.0" standalone="no"?>
<!DOCTYPE svg PUBLIC "-//W3C//DTD SVG 1.1//EN" "http://www.w3.org/Graphics/SVG/1.1/DTD/svg11.dtd" >
<svg xmlns="http://www.w3.org/2000/svg" xmlns:xlink="http://www.w3.org/1999/xlink" version="1.1" viewBox="-10 0 374 1000">
  <g transform="matrix(1 0 0 -1 0 800)">
   <path fill="currentColor"
d="M4 0zM11 51l71 14l73 518l-69 14l7 51h255l-7 -51l-71 -14l-73 -518l69 -14l-7 -51h-255zM40 781q0 20 24 40t55 21l65 -144l-43 -31l-71 61q-30 26 -30 53zM210 781q0 20 24 40t54 21l66 -144l-43 -31l-71 61q-30 26 -30 53z" />
  </g>

</svg>
