<?xml version="1.0" standalone="no"?>
<!DOCTYPE svg PUBLIC "-//W3C//DTD SVG 1.1//EN" "http://www.w3.org/Graphics/SVG/1.1/DTD/svg11.dtd" >
<svg xmlns="http://www.w3.org/2000/svg" xmlns:xlink="http://www.w3.org/1999/xlink" version="1.1" viewBox="-10 0 418 1000">
  <g transform="matrix(1 0 0 -1 0 800)">
   <path fill="currentColor"
d="M4 0zM11 51l71 14l73 518l-69 14l7 51h255l-7 -51l-71 -14l-73 -518l69 -14l-7 -51h-255zM362.5 805.5q35.5 -28.5 35.5 -66.5q0 -14 -17.5 -28t-43.5 -23q-12 28 -37.5 45.5t-57.5 17.5q-34 0 -69.5 -18.5t-64.5 -47.5l-28 23q29 55 80.5 90.5t110.5 35.5
q56 0 91.5 -28.5z" />
  </g>

</svg>
