<?xml version="1.0" standalone="no"?>
<!DOCTYPE svg PUBLIC "-//W3C//DTD SVG 1.1//EN" "http://www.w3.org/Graphics/SVG/1.1/DTD/svg11.dtd" >
<svg xmlns="http://www.w3.org/2000/svg" xmlns:xlink="http://www.w3.org/1999/xlink" version="1.1" viewBox="-277 0 372 1000">
  <g transform="matrix(1 0 0 -1 0 800)">
   <path fill="currentColor"
d="M-51.5 746q-16.5 4 -39.5 11l-77 25l-75 -33l-24 25l43 46q15 19 29 27.5t32 8.5q19 0 61 -12l88 -28l75 33l24 -25l-43 -46q-33 -36 -60 -36q-17 0 -33.5 4zM-202.5 580q-29.5 18 -45 44.5t-15.5 51.5q0 17 10 25q8 7 31 15t33 8q10 -83 82 -83q39 0 72 25t50 56l34 -17
q-9 -34 -32.5 -66.5t-61.5 -54.5t-88 -22q-40 0 -69.5 18z" />
  </g>

</svg>
