<?xml version="1.0" standalone="no"?>
<!DOCTYPE svg PUBLIC "-//W3C//DTD SVG 1.1//EN" "http://www.w3.org/Graphics/SVG/1.1/DTD/svg11.dtd" >
<svg xmlns="http://www.w3.org/2000/svg" xmlns:xlink="http://www.w3.org/1999/xlink" version="1.1" viewBox="-10 0 570 1000">
  <g transform="matrix(1 0 0 -1 0 800)">
   <path fill="currentColor"
d="M52 0zM66.5 8.5q-14.5 14.5 -14.5 41.5q0 16 5 46l93 522l-82 17v50l180 19v-86l-84 -538h72v-54q-18 -12 -50 -22t-65 -10q-40 0 -54.5 14.5zM283 0zM513 508v-88l-54 -380q-9 -62 -40 -109.5t-79 -74t-105 -26.5q-32 0 -46 11t-14 36q0 16 5.5 28.5t8.5 15.5h77
q20 0 35 3.5t18 7.5q9 17 16.5 36.5t13.5 58.5l61 392l-77 17v53zM483 575zM420.5 593q-17.5 18 -17.5 45q0 32 19.5 56.5t54.5 24.5q28 0 45.5 -18t17.5 -48q0 -31 -19.5 -54.5t-54.5 -23.5q-28 0 -45.5 18z" />
  </g>

</svg>
