<?xml version="1.0" standalone="no"?>
<!DOCTYPE svg PUBLIC "-//W3C//DTD SVG 1.1//EN" "http://www.w3.org/Graphics/SVG/1.1/DTD/svg11.dtd" >
<svg xmlns="http://www.w3.org/2000/svg" xmlns:xlink="http://www.w3.org/1999/xlink" version="1.1" viewBox="-10 0 381 1000">
  <g transform="matrix(1 0 0 -1 0 800)">
   <path fill="currentColor"
d="M4 0zM11 51l71 14l73 518l-69 14l7 51h255l-7 -51l-71 -14l-73 -518l69 -14l-7 -51h-255zM193 695q0 12 9 20.5t36 18.5q33 13 33 29q0 19 -36 19q-31 0 -61 -8q-11 16 -11 32q0 38 77 38q57 0 89 -17t32 -49q0 -26 -21 -44t-52 -28q-15 -6 -20 -11t-6 -15l-63 -4
q-6 14 -6 19z" />
  </g>

</svg>
