<?xml version="1.0" standalone="no"?>
<!DOCTYPE svg PUBLIC "-//W3C//DTD SVG 1.1//EN" "http://www.w3.org/Graphics/SVG/1.1/DTD/svg11.dtd" >
<svg xmlns="http://www.w3.org/2000/svg" xmlns:xlink="http://www.w3.org/1999/xlink" version="1.1" viewBox="-60 0 622 1000">
  <g transform="matrix(1 0 0 -1 0 800)">
   <path fill="currentColor"
d="M0 0zM-43 51l56 14l269 589h75l115 -590l63 -13l-3 -51h-251l4 51l70 11l-20 119h-197l-53 -117l78 -13l-6 -51h-207zM324 243l-40 232l-1 30h-4l-10 -30l-103 -232h158zM373 871l-91 27l-81 -33l-27 27l45 45q32 35 63 35q24 0 70 -14l92 -27l81 33l27 -26l-46 -47
q-34 -34 -62 -34q-29 0 -71 14zM223.5 715q-35.5 28 -35.5 66q0 14 17.5 28t43.5 23q13 -29 38 -46t57 -17q35 0 70.5 18.5t63.5 47.5l29 -22q-30 -55 -81.5 -90.5t-110.5 -35.5q-56 0 -91.5 28z" />
  </g>

</svg>
