<?xml version="1.0" standalone="no"?>
<!DOCTYPE svg PUBLIC "-//W3C//DTD SVG 1.1//EN" "http://www.w3.org/Graphics/SVG/1.1/DTD/svg11.dtd" >
<svg xmlns="http://www.w3.org/2000/svg" xmlns:xlink="http://www.w3.org/1999/xlink" version="1.1" viewBox="-10 0 322 1000">
  <g transform="matrix(1 0 0 -1 0 800)">
   <path fill="currentColor"
d="M47 0zM73 10q-15 15 -15 40q0 24 6 48l60 319l-77 16v54l182 19v-90l-57 -336h72v-54q-20 -12 -53.5 -21.5t-69.5 -9.5q-33 0 -48 15zM134 564q0 13 10 22.5t36 24.5q17 9 25 16.5t8 20.5q0 22 -39 22q-26 0 -58 -8q-11 16 -11 31q0 20 18 29.5t60 9.5q57 0 88 -18
t31 -53q0 -28 -18.5 -47.5t-52.5 -35.5q-19 -9 -24 -14.5t-5 -20.5l-62 -7q-6 17 -6 28z" />
  </g>

</svg>
