<?xml version="1.0" standalone="no"?>
<!DOCTYPE svg PUBLIC "-//W3C//DTD SVG 1.1//EN" "http://www.w3.org/Graphics/SVG/1.1/DTD/svg11.dtd" >
<svg xmlns="http://www.w3.org/2000/svg" xmlns:xlink="http://www.w3.org/1999/xlink" version="1.1" viewBox="-60 0 622 1000">
  <g transform="matrix(1 0 0 -1 0 800)">
   <path fill="currentColor"
d="M0 0zM-43 51l56 14l269 589h75l115 -590l63 -13l-3 -51h-251l4 51l70 11l-20 119h-197l-53 -117l78 -13l-6 -51h-207zM324 243l-40 232l-1 30h-4l-10 -30l-103 -232h158zM409.5 864.5q-18.5 4.5 -36.5 9.5l-91 27l-81 -32l-27 26l45 46q32 35 63 35q24 0 70 -14l92 -27
l81 33l27 -27l-46 -46q-33 -35 -62 -35q-16 0 -34.5 4.5zM185 720l84 66l20 16q19 15 33 25t20 10q8 0 22.5 -11.5t34.5 -30.5l78 -70l-37 -46l-109 63l-120 -59z" />
  </g>

</svg>
