<?xml version="1.0" standalone="no"?>
<!DOCTYPE svg PUBLIC "-//W3C//DTD SVG 1.1//EN" "http://www.w3.org/Graphics/SVG/1.1/DTD/svg11.dtd" >
<svg xmlns="http://www.w3.org/2000/svg" xmlns:xlink="http://www.w3.org/1999/xlink" version="1.1" viewBox="-43 0 325 1000">
  <g transform="matrix(1 0 0 -1 0 800)">
   <path fill="currentColor"
d="M0 0zM9.5 -65.5q-27.5 9.5 -42.5 27.5l28 36q9 -7 25.5 -12.5t34.5 -5.5q41 0 61 16t20 42t-16.5 33.5t-53.5 7.5l-11 22v26q48 6 69.5 18t21.5 36q0 19 -12.5 27t-40.5 8q-22 0 -37 -7t-30 -18l-29 29q21 28 56 43t74 15q49 0 80 -20.5t31 -53.5q0 -38 -27.5 -60.5
t-59.5 -30.5v-4q78 -9 78 -65t-47 -87.5t-112 -31.5q-33 0 -60.5 9.5z" />
  </g>

</svg>
