<?xml version="1.0" standalone="no"?>
<!DOCTYPE svg PUBLIC "-//W3C//DTD SVG 1.1//EN" "http://www.w3.org/Graphics/SVG/1.1/DTD/svg11.dtd" >
<svg xmlns="http://www.w3.org/2000/svg" xmlns:xlink="http://www.w3.org/1999/xlink" version="1.1" viewBox="-13 0 458 1000">
  <g transform="matrix(1 0 0 -1 0 800)">
   <path fill="currentColor"
d="M96.5 10q-30.5 22 -30.5 71q0 5 4 45l-25 -14l-25 -15l-23 48q34 21 83 55l20 146q35 262 206 262q69 0 99 -28t30 -88q0 -79 -72 -156t-176 -142l-6 -46q-2 -20 -2 -26q0 -30 17 -42t59 -12q33 0 65 10t46 17l13 -38q-28 -21 -75.5 -45t-108.5 -24q-68 0 -98.5 22z
M301 389q35 53 35 102q0 30 -10 43.5t-34 13.5q-33 0 -49.5 -34.5t-28.5 -118.5l-15 -113q67 54 102 107z" />
  </g>

</svg>
