<?xml version="1.0" standalone="no"?>
<!DOCTYPE svg PUBLIC "-//W3C//DTD SVG 1.1//EN" "http://www.w3.org/Graphics/SVG/1.1/DTD/svg11.dtd" >
<svg xmlns="http://www.w3.org/2000/svg" xmlns:xlink="http://www.w3.org/1999/xlink" version="1.1" viewBox="-33 0 476 1000">
  <g transform="matrix(1 0 0 -1 0 800)">
   <path fill="currentColor"
d="M0 0zM181 3l-114 22l-48 -32l-42 35l282 361v9l-126 50l-25 -89h-46q-11 13 -19 35t-8 45q0 36 24.5 55t61.5 19q41 0 111 -17l106 -25l56 40l39 -31l-288 -371v-12l140 -43l25 89h44q10 -14 17.5 -37.5t7.5 -46.5q0 -35 -25 -52t-58 -17q-48 0 -115 13zM304 554z
M303 739q29 -6 42 -21.5t13 -35.5q0 -21 -17.5 -36.5t-56.5 -37.5l-96 -54l-30 37z" />
  </g>

</svg>
