<?xml version="1.0" standalone="no"?>
<!DOCTYPE svg PUBLIC "-//W3C//DTD SVG 1.1//EN" "http://www.w3.org/Graphics/SVG/1.1/DTD/svg11.dtd" >
<svg xmlns="http://www.w3.org/2000/svg" xmlns:xlink="http://www.w3.org/1999/xlink" version="1.1" viewBox="-10 0 427 1000">
  <g transform="matrix(1 0 0 -1 0 800)">
   <path fill="currentColor"
d="M122 659l-82 14v70h337v-70l-84 -14v-583l84 -11v-65h-336v66l81 11v582zM104.5 816q-42.5 22 -63.5 59.5t-21 81.5q0 15 1 22h79q0 -6 1 -11q18 -73 108 -73q89 0 107 73q1 5 1 11h80q1 -7 1 -21q0 -44 -22.5 -81.5t-65.5 -60t-102 -22.5q-61 0 -103.5 22z" />
  </g>

</svg>
