<?xml version="1.0" standalone="no"?>
<!DOCTYPE svg PUBLIC "-//W3C//DTD SVG 1.1//EN" "http://www.w3.org/Graphics/SVG/1.1/DTD/svg11.dtd" >
<svg xmlns="http://www.w3.org/2000/svg" xmlns:xlink="http://www.w3.org/1999/xlink" version="1.1" viewBox="-10 0 602 1000">
  <g transform="matrix(1 0 0 -1 0 800)">
   <path fill="currentColor"
d="M111.5 9.5q-38.5 20.5 -61 59t-22.5 91.5q0 89 88.5 135.5t236.5 47.5v20q0 36 -8 57t-29 31.5t-62 10.5q-51 0 -90 -12t-81 -30l-34 72q16 13 53 31t88 32t106 14q80 0 125.5 -21t65 -65t19.5 -120v-297h52v-63q-15 -2 -29 -6q-37 -19 -58.5 -46t-21.5 -51
q0 -26 16.5 -39.5t47.5 -13.5q16 0 28.5 3.5t23 8.5t15.5 7l2 -69q-21 -16 -58.5 -27.5t-73.5 -11.5q-53 0 -92.5 25.5t-39.5 74.5q0 34 25.5 69t71.5 61q-32 1 -43 12.5t-11 42.5v23q-25 -30 -67 -53.5t-97 -23.5q-47 0 -85.5 20.5zM220 106q20 -25 55 -25q18 0 40 10.5
t38 25.5v159q-78 0 -115.5 -28t-37.5 -72q0 -45 20 -70z" />
  </g>

</svg>
