<?xml version="1.0" standalone="no"?>
<!DOCTYPE svg PUBLIC "-//W3C//DTD SVG 1.1//EN" "http://www.w3.org/Graphics/SVG/1.1/DTD/svg11.dtd" >
<svg xmlns="http://www.w3.org/2000/svg" xmlns:xlink="http://www.w3.org/1999/xlink" version="1.1" viewBox="-10 0 675 1000">
  <g transform="matrix(1 0 0 -1 0 800)">
   <path fill="currentColor"
d="M537 258h-98l-44 628h185zM427.5 139.5q29.5 25.5 70.5 25.5t65 -24.5t24 -58.5q0 -42 -28.5 -66t-75.5 -24q-33 0 -59 23.5t-26 58.5q0 40 29.5 65.5zM222 258h-98l-44 628h185zM112.5 139.5q29.5 25.5 70.5 25.5t65 -24.5t24 -58.5q0 -42 -28.5 -66t-75.5 -24
q-33 0 -59 23.5t-26 58.5q0 40 29.5 65.5z" />
  </g>

</svg>
