<?xml version="1.0" standalone="no"?>
<!DOCTYPE svg PUBLIC "-//W3C//DTD SVG 1.1//EN" "http://www.w3.org/Graphics/SVG/1.1/DTD/svg11.dtd" >
<svg xmlns="http://www.w3.org/2000/svg" xmlns:xlink="http://www.w3.org/1999/xlink" version="1.1" viewBox="-10 0 779 1000">
  <g transform="matrix(1 0 0 -1 0 800)">
   <path fill="currentColor"
d="M108 472h-78v62l78 20v42q0 67 36 122t96.5 87t130.5 32q37 0 67 -10v-145q-11 12 -43 23.5t-63 11.5q-33 0 -47 -17t-14 -56v-89h120v-83h-120v-397l101 -9v-66h-341v66l77 9v397zM514 665q-24 23 -24 59q0 42 26.5 69t71.5 27t69 -23t24 -59q0 -43 -27 -69.5t-76 -26.5
h-1q-39 0 -63 23zM516 451l-67 19v75l200 24h2l31 -21v-473l60 -9v-66h-288v66l62 9v376z" />
  </g>

</svg>
