<?xml version="1.0" standalone="no"?>
<!DOCTYPE svg PUBLIC "-//W3C//DTD SVG 1.1//EN" "http://www.w3.org/Graphics/SVG/1.1/DTD/svg11.dtd" >
<svg xmlns="http://www.w3.org/2000/svg" xmlns:xlink="http://www.w3.org/1999/xlink" version="1.1" viewBox="-10 0 672 1000">
  <g transform="matrix(1 0 0 -1 0 800)">
   <path fill="currentColor"
d="M480.5 590.5q61.5 -39.5 93 -109.5t31.5 -161q0 -133 -60.5 -241.5t-156.5 -174t-197 -75.5l-33 60q101 30 164.5 103t89.5 177q-24 -22 -60 -36t-81 -14q-64 0 -114.5 29.5t-79 84t-28.5 126.5q0 73 33.5 135t97 99t150.5 37q89 0 150.5 -39.5zM385 217q27 13 42 30
q4 50 5 75q0 118 -26 180t-85 62q-49 0 -76 -50.5t-27 -126.5q0 -94 29 -138.5t79 -44.5q32 0 59 13z" />
  </g>

</svg>
