<?xml version="1.0" standalone="no"?>
<!DOCTYPE svg PUBLIC "-//W3C//DTD SVG 1.1//EN" "http://www.w3.org/Graphics/SVG/1.1/DTD/svg11.dtd" >
<svg xmlns="http://www.w3.org/2000/svg" xmlns:xlink="http://www.w3.org/1999/xlink" version="1.1" viewBox="-10 0 652 1000">
  <g transform="matrix(1 0 0 -1 0 800)">
   <path fill="currentColor"
d="M83 437.5q38 66.5 102.5 99.5t141.5 33q126 0 197.5 -75.5t71.5 -210.5q0 -99 -38 -165t-102 -98t-143 -32q-125 0 -196.5 75.5t-71.5 210.5q0 96 38 162.5zM394.5 110.5q23.5 51.5 23.5 161.5q0 117 -22.5 172.5t-75.5 55.5q-98 0 -98 -213q0 -116 24 -172t77 -56
q48 0 71.5 51.5zM148 696l157 196l90 -73q-22 -35 -86 -89t-104 -79zM380 696l161 195l86 -72q-19 -32 -85 -88t-106 -80z" />
  </g>

</svg>
