<?xml version="1.0" standalone="no"?>
<!DOCTYPE svg PUBLIC "-//W3C//DTD SVG 1.1//EN" "http://www.w3.org/Graphics/SVG/1.1/DTD/svg11.dtd" >
<svg xmlns="http://www.w3.org/2000/svg" xmlns:xlink="http://www.w3.org/1999/xlink" version="1.1" viewBox="-10 0 1219 1000">
  <g transform="matrix(1 0 0 -1 0 800)">
   <path fill="currentColor"
d="M197 652q-25 -8 -57.5 -14.5t-60.5 -11.5l-22 71q57 16 105 35.5t87 50.5h2l76 -14v-433l117 -12v-66h-375v66l128 11v317zM810 803l-342 -897l-96 4l341 898zM909 545h118l24 -27l-174 -277l-55 -72l168 9l15 125l96 5v-125l85 4v-85h-85v-101h-113l-1 101h-239l-41 53
q33 59 202 390z" />
  </g>

</svg>
