<?xml version="1.0" standalone="no"?>
<!DOCTYPE svg PUBLIC "-//W3C//DTD SVG 1.1//EN" "http://www.w3.org/Graphics/SVG/1.1/DTD/svg11.dtd" >
<svg xmlns="http://www.w3.org/2000/svg" xmlns:xlink="http://www.w3.org/1999/xlink" version="1.1" viewBox="-10 0 532 1000">
  <g transform="matrix(1 0 0 -1 0 800)">
   <path fill="currentColor"
d="M223.5 553.5q-24.5 24.5 -24.5 58.5q0 42 28.5 66t75.5 24q34 0 59.5 -23.5t25.5 -59.5q0 -40 -29 -65t-71 -25q-40 0 -64.5 24.5zM512 -109q-33 -49 -95.5 -78t-139.5 -29q-84 0 -141.5 34t-85 90.5t-27.5 125.5q0 70 28.5 127t77 93t107.5 46v143h106v-196l-26 -1
q-34 0 -64.5 -24.5t-49.5 -68t-19 -95.5q0 -78 36.5 -126.5t104.5 -48.5q38 0 74 12.5t61 38.5z" />
  </g>

</svg>
