<?xml version="1.0" standalone="no"?>
<!DOCTYPE svg PUBLIC "-//W3C//DTD SVG 1.1//EN" "http://www.w3.org/Graphics/SVG/1.1/DTD/svg11.dtd" >
<svg xmlns="http://www.w3.org/2000/svg" xmlns:xlink="http://www.w3.org/1999/xlink" version="1.1" viewBox="-10 0 686 1000">
  <g transform="matrix(1 0 0 -1 0 800)">
   <path fill="currentColor"
d="M98 448v16q24 23 46 69t22 108q0 30 -8.5 48.5t-25.5 39.5q-15 20 -22.5 35.5t-7.5 38.5q0 32 22.5 53.5t55.5 21.5t59.5 -23t41.5 -61t15 -81q0 -70 -25 -132t-62 -105.5t-71 -61.5h-1zM385 448v16q24 23 46 69t22 108q0 30 -8.5 48.5t-25.5 39.5q-15 20 -22.5 35.5
t-7.5 38.5q0 32 22.5 53.5t54.5 21.5q33 0 60 -23t42 -61t15 -81q0 -70 -25 -132t-62 -105.5t-71 -61.5h-1z" />
  </g>

</svg>
