<?xml version="1.0" standalone="no"?>
<!DOCTYPE svg PUBLIC "-//W3C//DTD SVG 1.1//EN" "http://www.w3.org/Graphics/SVG/1.1/DTD/svg11.dtd" >
<svg xmlns="http://www.w3.org/2000/svg" xmlns:xlink="http://www.w3.org/1999/xlink" version="1.1" viewBox="-10 0 533 1000">
  <g transform="matrix(1 0 0 -1 0 800)">
   <path fill="currentColor"
d="M66.5 465q32.5 -45 85.5 -45q39 0 63 21.5t24 62.5q0 38 -26.5 58.5t-61.5 17.5q-9 22 -9 42q0 41 21.5 80.5t51.5 56.5l-1 16l-33 28q-65 -34 -106 -97.5t-41 -127.5q0 -68 32.5 -113zM308.5 465q32.5 -45 85.5 -45q40 0 63.5 21.5t23.5 62.5q0 38 -26.5 58.5
t-61.5 17.5q-9 22 -9 42q0 41 22 80.5t52 56.5l-1 16l-34 28q-65 -34 -106 -97.5t-41 -127.5q0 -68 32.5 -113z" />
  </g>

</svg>
