<?xml version="1.0" standalone="no"?>
<!DOCTYPE svg PUBLIC "-//W3C//DTD SVG 1.1//EN" "http://www.w3.org/Graphics/SVG/1.1/DTD/svg11.dtd" >
<svg xmlns="http://www.w3.org/2000/svg" xmlns:xlink="http://www.w3.org/1999/xlink" version="1.1" viewBox="-10 0 528 1000">
  <g transform="matrix(1 0 0 -1 0 800)">
   <path fill="currentColor"
d="M92 796q37 33 93 33q32 0 54 -11.5t49 -33.5q23 -18 37.5 -26t32.5 -8q27 0 42.5 12t33.5 34l49 -40q-23 -46 -57 -77.5t-89 -31.5q-30 0 -51.5 11t-49.5 33q-23 18 -39 26.5t-36 8.5q-27 0 -43 -12t-35 -34l-48 40q20 43 57 76z" />
  </g>

</svg>
