<?xml version="1.0" standalone="no"?>
<!DOCTYPE svg PUBLIC "-//W3C//DTD SVG 1.1//EN" "http://www.w3.org/Graphics/SVG/1.1/DTD/svg11.dtd" >
<svg xmlns="http://www.w3.org/2000/svg" xmlns:xlink="http://www.w3.org/1999/xlink" version="1.1" viewBox="-10 0 1088 1000">
  <g transform="matrix(1 0 0 -1 0 800)">
   <path fill="currentColor"
d="M853.5 354q33.5 -35 57.5 -75.5t55 -102.5q23 -47 37.5 -70.5t27.5 -28.5l37 -11v-66h-181q-25 0 -46.5 37.5t-55.5 116.5q-39 93 -68.5 141.5t-67.5 48.5h-33v-267l89 -12v-65h-339v66l86 11v267h-34q-37 0 -67 -48t-71 -141q-33 -77 -56 -116t-49 -39h-175v66l35 11
q13 5 27 28t39 71q30 60 54.5 101.5t58.5 76.5t74 46l-187 259l-83 14v70h272v-70l-68 -13l162 -255h68v255l-80 13v70h325v-70l-81 -13v-255h68l161 255l-68 13v70h274v-70l-85 -14l-186 -259q40 -11 73.5 -46z" />
  </g>

</svg>
