<?xml version="1.0" standalone="no"?>
<!DOCTYPE svg PUBLIC "-//W3C//DTD SVG 1.1//EN" "http://www.w3.org/Graphics/SVG/1.1/DTD/svg11.dtd" >
<svg xmlns="http://www.w3.org/2000/svg" xmlns:xlink="http://www.w3.org/1999/xlink" version="1.1" viewBox="-10 0 680 1000">
  <g transform="matrix(1 0 0 -1 0 800)">
   <path fill="currentColor"
d="M646.5 -76.5q-11.5 -113.5 -15.5 -126.5h-91q0 27 -10 107t-18 96h-195v66l88 11v143q-69 -32 -167 -32q-66 0 -105.5 19.5t-59 65.5t-19.5 126v80l-50 12v65h269v-65l-50 -12v-60q0 -66 7 -98.5t25.5 -45t55.5 -12.5q27 0 54 6t40 15v195l-60 12v65h287v-65l-65 -12
v-403h91q0 -39 -11.5 -152.5z" />
  </g>

</svg>
