<?xml version="1.0" standalone="no"?>
<!DOCTYPE svg PUBLIC "-//W3C//DTD SVG 1.1//EN" "http://www.w3.org/Graphics/SVG/1.1/DTD/svg11.dtd" >
<svg xmlns="http://www.w3.org/2000/svg" xmlns:xlink="http://www.w3.org/1999/xlink" version="1.1" viewBox="-10 0 622 1000">
  <g transform="matrix(1 0 0 -1 0 800)">
   <path fill="currentColor"
d="M508.5 -33q15.5 -47 15.5 -82q0 -75 -38.5 -108t-110.5 -33q-17 0 -37.5 4t-33.5 10v92q21 -6 43 -6q35 0 51.5 16.5t16.5 60.5q0 37 -10 79h-378v66l108 11v227h-91v74h91v281l-107 15v69h560l14 -293h-98l-36 210l-162 11v-293h138v-74h-138v-227l156 -11
q31 -52 46.5 -99z" />
  </g>

</svg>
