<?xml version="1.0" standalone="no"?>
<!DOCTYPE svg PUBLIC "-//W3C//DTD SVG 1.1//EN" "http://www.w3.org/Graphics/SVG/1.1/DTD/svg11.dtd" >
<svg xmlns="http://www.w3.org/2000/svg" xmlns:xlink="http://www.w3.org/1999/xlink" version="1.1" viewBox="-10 0 564 1000">
  <g transform="matrix(1 0 0 -1 0 800)">
   <path fill="currentColor"
d="M457 489.5q66 -77.5 66 -211.5q0 -91 -34 -157t-95.5 -100.5t-144.5 -34.5q-105 0 -160.5 53t-57.5 150q0 64 9 103h313q-5 85 -41.5 129.5t-102.5 44.5q-37 0 -77.5 -12.5t-65.5 -28.5l-28 61q26 29 88.5 55t127.5 26q137 0 203 -77.5zM190 226l-1 -42q0 -63 17 -96
t58 -33q42 0 65 36.5t25 134.5h-164z" />
  </g>

</svg>
