<?xml version="1.0" standalone="no"?>
<!DOCTYPE svg PUBLIC "-//W3C//DTD SVG 1.1//EN" "http://www.w3.org/Graphics/SVG/1.1/DTD/svg11.dtd" >
<svg xmlns="http://www.w3.org/2000/svg" xmlns:xlink="http://www.w3.org/1999/xlink" version="1.1" viewBox="-10 0 744 1000">
  <g transform="matrix(1 0 0 -1 0 800)">
   <path fill="currentColor"
d="M356 743v-70l-78 -15l125 -209l131 210l-84 14v70h263v-70l-81 -14l-176 -242l154 3v-84l-128 3l176 -262l66 -11v-66h-343v66l78 11l-138 228l-132 -229l93 -10v-66h-276v66l82 10l179 263l-154 -3v84l128 -3l-163 242l-66 14v70h344z" />
  </g>

</svg>
