<?xml version="1.0" standalone="no"?>
<!DOCTYPE svg PUBLIC "-//W3C//DTD SVG 1.1//EN" "http://www.w3.org/Graphics/SVG/1.1/DTD/svg11.dtd" >
<svg xmlns="http://www.w3.org/2000/svg" xmlns:xlink="http://www.w3.org/1999/xlink" version="1.1" viewBox="-10 0 667 1000">
  <g transform="matrix(1 0 0 -1 0 800)">
   <path fill="currentColor"
d="M111 659l-78 14v70h547l13 -177h-79l-35 101l-197 10v-260l122 3l18 82h69v-251h-69l-17 87l-123 3v-272l219 14l61 129l85 -24l-24 -188h-589v66l77 10v583zM252.5 841q-54.5 36 -84.5 72l106 69l134 -146l-64 -44q-37 13 -91.5 49z" />
  </g>

</svg>
