<?xml version="1.0" standalone="no"?>
<!DOCTYPE svg PUBLIC "-//W3C//DTD SVG 1.1//EN" "http://www.w3.org/Graphics/SVG/1.1/DTD/svg11.dtd" >
<svg xmlns="http://www.w3.org/2000/svg" xmlns:xlink="http://www.w3.org/1999/xlink" version="1.1" viewBox="-10 0 649 1000">
  <g transform="matrix(1 0 0 -1 0 800)">
   <path fill="currentColor"
d="M326 556v-64l-62 -11l70 -101l25 -41l26 42l71 100l-63 11v64h220v-64l-55 -11l-137 -167l122 3v-74l-102 3l134 -171l54 -10v-65h-310v65l55 10l-68 107l-30 43l-23 -43l-72 -107l73 -10v-65h-245v65l62 10l136 171l-117 -3v74l104 -3l-130 167l-50 11v64h312z" />
  </g>

</svg>
