<?xml version="1.0" standalone="no"?>
<!DOCTYPE svg PUBLIC "-//W3C//DTD SVG 1.1//EN" "http://www.w3.org/Graphics/SVG/1.1/DTD/svg11.dtd" >
<svg xmlns="http://www.w3.org/2000/svg" xmlns:xlink="http://www.w3.org/1999/xlink" version="1.1" viewBox="-168 0 336 1000">
  <g transform="matrix(1 0 0 -1 0 800)">
   <path fill="currentColor"
d="M-32 790q-6 12 -6 22q0 14 7 22.5t22 18.5q12 8 18 14.5t6 16.5q0 30 -52 31q-11 0 -23.5 -2t-14.5 -4v69q1 1 20 3t30 2q56 0 89.5 -21.5t33.5 -68.5q0 -22 -14 -37.5t-45 -38.5q-15 -10 -15 -29q0 -5 2 -15h-46q-6 5 -12 17zM-112 674.5q-46 33.5 -46 94.5q0 27 2 35
h69q-1 -6 -1 -21q1 -26 24 -39.5t64 -13.5q44 0 65 13t22 39v6q0 12 -1 16l69 -1q3 -24 3 -33q0 -61 -47 -95t-111 -34q-66 0 -112 33.5z" />
  </g>

</svg>
