<?xml version="1.0" standalone="no"?>
<!DOCTYPE svg PUBLIC "-//W3C//DTD SVG 1.1//EN" "http://www.w3.org/Graphics/SVG/1.1/DTD/svg11.dtd" >
<svg xmlns="http://www.w3.org/2000/svg" xmlns:xlink="http://www.w3.org/1999/xlink" version="1.1" viewBox="-10 0 735 1000">
  <g transform="matrix(1 0 0 -1 0 800)">
   <path fill="currentColor"
d="M32 743h659l13 -302h-89l-44 223l-121 5v-592l139 -11v-66h-186q25 -24 47 -63t20 -81q-4 -62 -40.5 -87t-109.5 -25q-17 0 -37.5 4t-33.5 10v92q21 -6 42 -6q38 0 53.5 13t15.5 56q0 23 -9.5 47t-20.5 40h-180v66l127 11v592l-125 -5l-42 -223h-94z" />
  </g>

</svg>
