<?xml version="1.0" standalone="no"?>
<!DOCTYPE svg PUBLIC "-//W3C//DTD SVG 1.1//EN" "http://www.w3.org/Graphics/SVG/1.1/DTD/svg11.dtd" >
<svg xmlns="http://www.w3.org/2000/svg" xmlns:xlink="http://www.w3.org/1999/xlink" version="1.1" viewBox="-10 0 623 1000">
  <g transform="matrix(1 0 0 -1 0 800)">
   <path fill="currentColor"
d="M499.5 726.5q-11.5 -14.5 -37.5 -14.5q-90 -1 -138.5 -10.5t-66.5 -24.5t-18 -39q0 -18 9 -34t40.5 -36t93.5 -42q108 -39 154 -101.5t46 -166.5q0 -85 -40 -146t-104.5 -92t-136.5 -31q-138 0 -204 76t-66 196q0 106 58 169t150 81v2q-85 28 -119.5 65.5t-34.5 84.5
q0 62 60.5 101t190.5 45q51 3 72 8t27 20l15 36h78l-13 -101q-4 -31 -15.5 -45.5zM233.5 421.5q-25.5 -49.5 -25.5 -146.5q0 -96 24 -156t74 -60q47 0 72.5 51t25.5 152q0 95 -24.5 152t-73.5 57q-47 0 -72.5 -49.5z" />
  </g>

</svg>
