<?xml version="1.0" standalone="no"?>
<!DOCTYPE svg PUBLIC "-//W3C//DTD SVG 1.1//EN" "http://www.w3.org/Graphics/SVG/1.1/DTD/svg11.dtd" >
<svg xmlns="http://www.w3.org/2000/svg" xmlns:xlink="http://www.w3.org/1999/xlink" version="1.1" viewBox="-10 0 741 1000">
  <g transform="matrix(1 0 0 -1 0 800)">
   <path fill="currentColor"
d="M108 90.5q-81 101.5 -81 279.5q0 115 42.5 201.5t119.5 133.5t180 47q172 0 253.5 -95.5t81.5 -272.5q0 -117 -43 -206.5t-121.5 -139t-182.5 -49.5q-168 0 -249 101.5zM295 453q25 0 44.5 -7.5t47.5 -23.5q21 -13 37 -19.5t33 -6.5q18 0 30.5 7t27.5 20
q-5 138 -43 200.5t-105 62.5t-106.5 -66.5t-43.5 -198.5q36 32 78 32zM472 129q39 73 43 211q-37 -30 -78 -30q-25 0 -46 8t-47 23q-23 13 -37.5 19t-29.5 6q-20 0 -33.5 -8t-28.5 -22q10 -280 150 -280q68 0 107 73z" />
  </g>

</svg>
