<?xml version="1.0" standalone="no"?>
<!DOCTYPE svg PUBLIC "-//W3C//DTD SVG 1.1//EN" "http://www.w3.org/Graphics/SVG/1.1/DTD/svg11.dtd" >
<svg xmlns="http://www.w3.org/2000/svg" xmlns:xlink="http://www.w3.org/1999/xlink" version="1.1" viewBox="-10 0 753 1000">
  <g transform="matrix(1 0 0 -1 0 800)">
   <path fill="currentColor"
d="M368 419l150 240l-77 14v70h279v-70l-82 -14l-162 -230q112 -6 168 -68.5t56 -190.5q0 -116 -32 -200.5t-91 -129t-141 -44.5q-55 0 -87 13l-6 78q18 -7 64 -7q66 0 94.5 62t28.5 204q0 106 -29.5 153t-95.5 47q-69 0 -124 -32v-237l90 -12v-65h-334v66l74 11v582l-74 14
v70h318v-70l-74 -14v-268q35 18 87 28z" />
  </g>

</svg>
