<?xml version="1.0" standalone="no"?>
<!DOCTYPE svg PUBLIC "-//W3C//DTD SVG 1.1//EN" "http://www.w3.org/Graphics/SVG/1.1/DTD/svg11.dtd" >
<svg xmlns="http://www.w3.org/2000/svg" xmlns:xlink="http://www.w3.org/1999/xlink" version="1.1" viewBox="-10 0 738 1000">
  <g transform="matrix(1 0 0 -1 0 800)">
   <path fill="currentColor"
d="M404.5 498q-15.5 3 -48.5 3q-75 0 -116 -56t-41 -155t40.5 -164t109.5 -65h34q-41 32 -62.5 78.5t-21.5 103.5q0 95 55.5 147t147.5 52q55 0 97.5 -23t67 -66t24.5 -101t-22.5 -107t-67.5 -84l25 -1q26 -2 39 -1q21 0 53 4l-6 -67q-10 -2 -42 -4t-56 -2q-64 0 -123 16
q-60 -17 -134 -17q-105 0 -177 37t-108 103t-36 153q0 85 36.5 150.5t105.5 101.5t165 36q39 0 70 -8t43 -17l-25 -56q-11 6 -26.5 9zM434 256q0 -67 12.5 -108.5t50.5 -63.5q34 19 45.5 59t11.5 125q0 50 -16 83t-43 33q-61 0 -61 -128z" />
  </g>

</svg>
