<?xml version="1.0" standalone="no"?>
<!DOCTYPE svg PUBLIC "-//W3C//DTD SVG 1.1//EN" "http://www.w3.org/Graphics/SVG/1.1/DTD/svg11.dtd" >
<svg xmlns="http://www.w3.org/2000/svg" xmlns:xlink="http://www.w3.org/1999/xlink" version="1.1" viewBox="-10 0 753 1000">
  <g transform="matrix(1 0 0 -1 0 800)">
   <path fill="currentColor"
d="M556.5 330.5q39.5 -58.5 79.5 -152.5q21 -49 34.5 -72.5t26.5 -28.5l36 -11v-66h-181q-25 0 -45 38t-48 116q-23 63 -39 100t-38 63.5t-48 26.5h-53v-267l90 -12v-65h-334v66l74 11v442h-79v62h79v78l-74 14v70h318v-70l-74 -14v-78h84v-62h-84v-114h80l151 255l-70 13
v70h275v-70l-85 -14l-173 -257q58 -13 97.5 -71.5z" />
  </g>

</svg>
