<?xml version="1.0" standalone="no"?>
<!DOCTYPE svg PUBLIC "-//W3C//DTD SVG 1.1//EN" "http://www.w3.org/Graphics/SVG/1.1/DTD/svg11.dtd" >
<svg xmlns="http://www.w3.org/2000/svg" xmlns:xlink="http://www.w3.org/1999/xlink" version="1.1" viewBox="-10 0 696 1000">
  <g transform="matrix(1 0 0 -1 0 800)">
   <path fill="currentColor"
d="M116.5 37.5q-41.5 48.5 -41.5 162.5v278l-47 13v64l188 13h1l22 -14v-358q0 -65 16 -90.5t57 -25.5q56 0 94 38v360l-62 15v62l144 11q35 13 53.5 44.5t18.5 67.5q0 17 -3 26h116q3 -9 3 -21q0 -68 -28.5 -110.5t-78.5 -62.5v-441h53v-64q-34 -7 -62.5 -11t-66.5 -4
q-36 0 -52 15.5t-16 45.5v22q-24 -33 -72 -58.5t-97 -25.5q-98 0 -139.5 48.5zM149.5 789.5q38.5 32.5 86.5 32.5q29 0 50 -11t47 -32q19 -15 31 -22t26 -7q23 0 34 11.5t16.5 24t7.5 16.5l64 -37q-6 -52 -40.5 -86t-84.5 -34q-29 0 -50 11.5t-46 32.5q-20 16 -33 23.5
t-28 7.5q-21 0 -32.5 -10.5t-20 -23.5t-14.5 -20l-63 37q11 54 49.5 86.5z" />
  </g>

</svg>
