<?xml version="1.0" standalone="no"?>
<!DOCTYPE svg PUBLIC "-//W3C//DTD SVG 1.1//EN" "http://www.w3.org/Graphics/SVG/1.1/DTD/svg11.dtd" >
<svg xmlns="http://www.w3.org/2000/svg" xmlns:xlink="http://www.w3.org/1999/xlink" version="1.1" viewBox="-27 0 625 1000">
  <g transform="matrix(1 0 0 -1 0 800)">
   <path fill="currentColor"
d="M96.5 -246q-22.5 3 -32.5 8v120q7 -5 30 -9.5t42 -4.5q51 0 81 32t55 100h-58l-187 480l-44 12v64h295v-64l-70 -12l83 -266l30 -101l24 101l77 267l-60 11v64h226v-64l-48 -11q-42 -129 -102.5 -303t-67.5 -190q-30 -83 -60.5 -133.5t-71.5 -77t-98 -26.5q-21 0 -43.5 3
zM240 665q-24 23 -24 59q0 42 27 69t72 27q44 0 68 -23t24 -59q0 -43 -27 -69.5t-76 -26.5h-1q-39 0 -63 23z" />
  </g>

</svg>
