<?xml version="1.0" standalone="no"?>
<!DOCTYPE svg PUBLIC "-//W3C//DTD SVG 1.1//EN" "http://www.w3.org/Graphics/SVG/1.1/DTD/svg11.dtd" >
<svg xmlns="http://www.w3.org/2000/svg" xmlns:xlink="http://www.w3.org/1999/xlink" version="1.1" viewBox="-10 0 773 1000">
  <g transform="matrix(1 0 0 -1 0 800)">
   <path fill="currentColor"
d="M111 659l-73 14v70h156q33 0 89 4q13 1 39.5 2t47.5 1q182 0 274 -91t92 -261q0 -117 -45 -209t-129 -144.5t-198 -52.5q-31 0 -93 4q-58 4 -75 4h-162v66l77 11v582zM360 65q90 1 139.5 76.5t49.5 231.5q0 144 -48.5 225.5t-152.5 81.5q-24 0 -43 -3t-25 -4v-599
q35 -11 80 -9zM317 -202q-23 22 -23 55q0 39 24.5 65t66.5 26q40 0 62.5 -22t22.5 -55q0 -40 -24.5 -65.5t-69.5 -25.5h-1q-35 0 -58 22z" />
  </g>

</svg>
