<?xml version="1.0" standalone="no"?>
<!DOCTYPE svg PUBLIC "-//W3C//DTD SVG 1.1//EN" "http://www.w3.org/Graphics/SVG/1.1/DTD/svg11.dtd" >
<svg xmlns="http://www.w3.org/2000/svg" xmlns:xlink="http://www.w3.org/1999/xlink" version="1.1" viewBox="-10 0 671 1000">
  <g transform="matrix(1 0 0 -1 0 800)">
   <path fill="currentColor"
d="M69 437.5q38 66.5 102.5 99.5t141.5 33q66 0 115 -21q39 4 64 26t36 50.5t11 51.5q0 14 -4 26h114q2 -12 2 -21q0 -82 -38.5 -129t-100.5 -59q70 -75 70 -210q0 -99 -38 -165t-102 -98t-143 -32q-125 0 -196.5 75.5t-71.5 210.5q0 96 38 162.5zM232 115q24 -56 77 -56
q48 0 71.5 51.5t23.5 161.5q0 117 -22.5 172.5t-75.5 55.5q-98 0 -98 -213q0 -116 24 -172zM269.5 677.5q-43.5 31.5 -83 69t-55.5 66.5l95 86l174 -214l-58 -49h-1q-28 10 -71.5 41.5z" />
  </g>

</svg>
