<?xml version="1.0" standalone="no"?>
<!DOCTYPE svg PUBLIC "-//W3C//DTD SVG 1.1//EN" "http://www.w3.org/Graphics/SVG/1.1/DTD/svg11.dtd" >
<svg xmlns="http://www.w3.org/2000/svg" xmlns:xlink="http://www.w3.org/1999/xlink" version="1.1" viewBox="-10 0 725 1000">
  <g transform="matrix(1 0 0 -1 0 800)">
   <path fill="currentColor"
d="M490 0h-1l-15.7305 130h-219l-54.2695 -130h-200l318.38 700h280l101.62 -700h-210zM423.91 533l-115.37 -273h149zM354.08 890c70 0 96.6299 -24 88.7598 -80s-41.2402 -80 -111.24 -80s-96.6299 24 -88.7598 80s41.2402 80 111.24 80zM614.08 890
c70 0 96.6299 -24 88.7598 -80s-41.2402 -80 -111.24 -80s-96.6299 24 -88.7598 80s41.2402 80 111.24 80z" />
  </g>

</svg>
