<?xml version="1.0" standalone="no"?>
<!DOCTYPE svg PUBLIC "-//W3C//DTD SVG 1.1//EN" "http://www.w3.org/Graphics/SVG/1.1/DTD/svg11.dtd" >
<svg xmlns="http://www.w3.org/2000/svg" xmlns:xlink="http://www.w3.org/1999/xlink" version="1.1" viewBox="-10 0 699 1000">
  <g transform="matrix(1 0 0 -1 0 800)">
   <path fill="currentColor"
d="M545.35 -90c0 0 -0.981445 0 -2.12109 -1l-19.54 -139s-32.8096 -20 -72.8096 -20c-121 0 -133.08 156 -18.8701 250h-372l98.3799 700h520l-19.6797 -140h-320l-18.2695 -130h280l-19.6797 -140h-280l-21.0801 -150h320l-19.6797 -140h-57
c-47.9004 -42 -70.0508 -100 -19.0508 -100c15 0 32.9805 7 39.2607 9l0.139648 1h2z" />
  </g>

</svg>
