<?xml version="1.0" standalone="no"?>
<!DOCTYPE svg PUBLIC "-//W3C//DTD SVG 1.1//EN" "http://www.w3.org/Graphics/SVG/1.1/DTD/svg11.dtd" >
<svg xmlns="http://www.w3.org/2000/svg" xmlns:xlink="http://www.w3.org/1999/xlink" version="1.1" viewBox="-10 0 651 1000">
  <g transform="matrix(1 0 0 -1 0 800)">
   <path fill="currentColor"
d="M367.59 -10l0.849609 -1c-76 0 -120.89 15 -150.109 49l-28.3398 -38h-140l98.3799 700h180l-31.9004 -227c38.6504 26 82.2002 37 144.2 37c154 0 209.04 -78 183.46 -260s-102.54 -260 -256.54 -260zM337.569 118c63 0 95.4805 39 108.271 130
s-8.72949 130 -71.7295 130s-95.4805 -39 -108.271 -130s8.72949 -130 71.7295 -130z" />
  </g>

</svg>
