<?xml version="1.0" standalone="no"?>
<!DOCTYPE svg PUBLIC "-//W3C//DTD SVG 1.1//EN" "http://www.w3.org/Graphics/SVG/1.1/DTD/svg11.dtd" >
<svg xmlns="http://www.w3.org/2000/svg" xmlns:xlink="http://www.w3.org/1999/xlink" version="1.1" viewBox="-10 0 621 1000">
  <g transform="matrix(1 0 0 -1 0 800)">
   <path fill="currentColor"
d="M228.11 200c-9.83984 -70 12.9492 -100 75.9492 -100c47 0 73.5303 18 88.4307 60h170c-37.7197 -119 -119.89 -170 -273.89 -170c-189 0 -259.04 78 -233.46 260s117.54 260 306.54 260s259.04 -78 233.46 -260l-7.03027 -50h-360zM346.229 400
c-63 0 -94.2197 -30 -104.06 -100h180c9.83984 70 -12.9404 100 -75.9404 100zM395.42 750c70 0 96.21 -27 87.3604 -90s-42.6396 -90 -112.64 -90s-96.21 27 -87.3604 90s42.6396 90 112.64 90z" />
  </g>

</svg>
