<?xml version="1.0" standalone="no"?>
<!DOCTYPE svg PUBLIC "-//W3C//DTD SVG 1.1//EN" "http://www.w3.org/Graphics/SVG/1.1/DTD/svg11.dtd" >
<svg xmlns="http://www.w3.org/2000/svg" xmlns:xlink="http://www.w3.org/1999/xlink" version="1.1" viewBox="-10 0 932 1000">
  <g transform="matrix(1 0 0 -1 0 800)">
   <path fill="currentColor"
d="M299.78 710c126 0 171.57 -60 151.891 -200s-82.1094 -200 -208.109 -200s-171.57 60 -151.891 200s82.1094 200 208.109 200zM257.62 410c35 0 54.2197 30 64.0596 100s-0.94043 100 -35.9404 100s-54.2197 -30 -64.0596 -100s0.94043 -100 35.9404 -100zM305.78 -30
h-160l546.81 760h160zM754.811 390c126 0 171.57 -60 151.891 -200s-82.1094 -200 -208.109 -200s-171.57 60 -151.891 200s82.1094 200 208.109 200zM712.65 90c35 0 54.2197 30 64.0596 100s-0.94043 100 -35.9404 100s-54.2197 -30 -64.0596 -100
s0.94043 -100 35.9404 -100z" />
  </g>

</svg>
