<?xml version="1.0" standalone="no"?>
<!DOCTYPE svg PUBLIC "-//W3C//DTD SVG 1.1//EN" "http://www.w3.org/Graphics/SVG/1.1/DTD/svg11.dtd" >
<svg xmlns="http://www.w3.org/2000/svg" xmlns:xlink="http://www.w3.org/1999/xlink" version="1.1" viewBox="-10 0 631 1000">
  <g transform="matrix(1 0 0 -1 0 800)">
   <path fill="currentColor"
d="M480 0h-1.0127c-47.9004 -42 -70.0508 -100 -19.0508 -100c19 0 41.4102 10 41.4102 10l-19.6797 -140s-32.8096 -20 -72.8096 -20c-124 0 -134.09 163 -12.0195 256l-12.0596 28c-36.2197 -30 -84.1895 -44 -146.189 -44c-140 0 -189.88 72 -166.27 240l37.9502 270h180
l-37.9502 -270c-10.8203 -77 5.54004 -110 54.54 -110s74.6396 33 85.46 110l37.9502 270h180l-70.2695 -500h-60z" />
  </g>

</svg>
