<?xml version="1.0" standalone="no"?>
<!DOCTYPE svg PUBLIC "-//W3C//DTD SVG 1.1//EN" "http://www.w3.org/Graphics/SVG/1.1/DTD/svg11.dtd" >
<svg xmlns="http://www.w3.org/2000/svg" xmlns:xlink="http://www.w3.org/1999/xlink" version="1.1" viewBox="-34 0 508 1000">
  <g transform="matrix(1 0 0 -1 0 800)">
   <path fill="currentColor"
d="M-12 -3q-5 0 -8.5 3t-2.5 7q3 7 10 10.5t16 6.5q19 6 33 10.5t20 25.5l87 278q5 20 0 30t-24 17q-7 2 -12 5t-5 8q0 8 8 10.5t14 2.5q22 0 34 -0.5t22 -2t27 -1.5q16 0 28.5 1.5t28 2.5t38.5 1q48 0 80.5 -11t48.5 -30.5t16 -44.5q0 -27 -16.5 -49t-44 -36t-60.5 -18
q-3 -1 -4 -2.5t3 -3.5q38 -6 61 -30.5t23 -57.5q0 -45 -28.5 -74t-75.5 -43.5t-106 -14.5q-37 0 -63.5 2.5t-52.5 2.5q-17 0 -35 -1t-33.5 -2.5t-26.5 -1.5zM191 33q34 0 61 12.5t43 34.5t16 53q0 29 -22.5 48t-60.5 19q-15 0 -26.5 -4.5t-16.5 -18.5l-29 -93
q-7 -24 1.5 -37.5t33.5 -13.5zM228 230q67 0 99 27t32 64q0 23 -17 40t-54 17q-24 0 -34.5 -7.5t-15.5 -23.5l-29 -93q-3 -12 1 -18t18 -6z" />
  </g>

</svg>
