<?xml version="1.0" standalone="no"?>
<!DOCTYPE svg PUBLIC "-//W3C//DTD SVG 1.1//EN" "http://www.w3.org/Graphics/SVG/1.1/DTD/svg11.dtd" >
<svg xmlns="http://www.w3.org/2000/svg" xmlns:xlink="http://www.w3.org/1999/xlink" version="1.1" viewBox="-14 0 962 1000">
  <g transform="matrix(1 0 0 -1 0 800)">
   <path fill="currentColor"
d="M413 -267q-29 0 -45 13t-22.5 30.5t-6.5 33.5q0 9 4 12t10 3q70 1 113.5 19.5t68 49.5t35.5 69q7 23 6.5 44t-6.5 35q-12 27 -27.5 58t-33.5 64.5t-37.5 68t-39 68.5t-38 65.5t-34.5 59.5l-28 49q-6 9 -11 14.5t-9 5.5t-9 -4.5t-9 -18.5q-14 -42 -30 -88.5t-32.5 -95.5
t-31.5 -96t-28 -91q-9 -32 4 -49t52 -26q13 -3 20.5 -6.5t6.5 -11.5q-1 -6 -10 -9t-20 -3q-26 0 -41.5 1.5t-27.5 2t-29 0.5q-21 0 -39 -1t-35 -2t-35 -1q-10 0 -16 2.5t-6 9.5q1 7 8 11t22 8q42 10 58.5 26.5t27.5 43.5l152 405q14 38 12 60t-22.5 34.5t-64.5 20.5
q-18 4 -27.5 10.5t-8.5 15.5q1 10 10.5 12.5t16.5 2.5q25 0 51 -1t51 -2.5t47 -1.5q9 0 16.5 -5t11.5 -13l259 -462q2 -4 7.5 -10.5t10.5 -6.5t12 18q4 10 12.5 36.5t20 63.5t23.5 78t23.5 79t19.5 67t11 42q6 23 -0.5 38t-26 25t-54.5 16q-13 2 -18.5 7t-4.5 13q1 6 10 9
t20 3q31 0 57.5 -2.5t51.5 -2.5q29 0 56 3.5t69 3.5q11 0 16.5 -3t5.5 -9q-1 -8 -10.5 -13.5t-25.5 -7.5q-37 -4 -57 -17t-35 -54q-4 -10 -14 -41t-24.5 -74.5t-30.5 -95t-33 -102.5t-32 -96.5t-26 -79t-16 -46.5q-18 -55 -45.5 -105t-59 -89.5t-62 -63t-54.5 -23.5z" />
  </g>

</svg>
