<?xml version="1.0" standalone="no"?>
<!DOCTYPE svg PUBLIC "-//W3C//DTD SVG 1.1//EN" "http://www.w3.org/Graphics/SVG/1.1/DTD/svg11.dtd" >
<svg xmlns="http://www.w3.org/2000/svg" xmlns:xlink="http://www.w3.org/1999/xlink" version="1.1" viewBox="-10 0 754 1000">
  <g transform="matrix(1 0 0 -1 0 800)">
   <path fill="currentColor"
d="M54 320q-5 0 -10.5 4.5t-5.5 9.5q0 8 8 18t19 11l489 14q6 0 11 -5t3 -10q-3 -11 -11.5 -21t-23.5 -10zM33 276q-6 0 -11.5 4.5t-4.5 8.5q0 8 8 18.5t19 10.5l491 14q6 0 11 -5t4 -10q-3 -11 -12 -21t-23 -10zM341 -14q-45 0 -90 18.5t-82 52.5t-59.5 81.5t-22.5 105.5
q0 90 33.5 166.5t92 133.5t134.5 89t162 32q30 0 57 -5t53 -15q19 -6 32 -10.5t24 -4.5q5 0 10.5 2t11.5 6q7 3 13.5 5.5t11.5 2.5q10 0 11 -6t-3 -12q-12 -16 -26.5 -43t-26 -55.5t-17.5 -52.5q-2 -8 -7.5 -14.5t-12.5 -6.5q-9 0 -12.5 10t-2.5 24q4 22 1 45.5t-19 44.5
q-16 23 -42.5 37.5t-58.5 14.5q-46 0 -91 -22.5t-84 -62t-69 -92.5t-46.5 -114t-16.5 -125q0 -54 14.5 -91.5t39.5 -60.5t55.5 -33.5t62.5 -10.5q48 0 81.5 16.5t59.5 46t50 66.5q6 8 11 14.5t13 6.5q6 0 8.5 -6t1.5 -16q-2 -12 -12 -38t-23 -53.5t-24.5 -46.5t-16.5 -19
q-6 0 -11 3.5t-10 7.5t-11 6.5t-15 2.5t-20 -3t-26 -8q-16 -5 -37.5 -9.5t-48.5 -4.5z" />
  </g>

</svg>
