<?xml version="1.0" standalone="no"?>
<!DOCTYPE svg PUBLIC "-//W3C//DTD SVG 1.1//EN" "http://www.w3.org/Graphics/SVG/1.1/DTD/svg11.dtd" >
<svg xmlns="http://www.w3.org/2000/svg" xmlns:xlink="http://www.w3.org/1999/xlink" version="1.1" viewBox="-10 0 612 1000">
  <g transform="matrix(1 0 0 -1 0 800)">
   <path fill="currentColor"
d="M250 -15q-58 0 -96 25.5t-56 72t-16.5 108.5t21.5 135q17 62 51.5 116.5t83 96.5t108.5 66.5t127 24.5q17 0 34.5 -3t32.5 -8q16 -4 25 -7.5t14 -6.5q9 -5 11.5 -12.5t0.5 -14.5q-2 -16 -8.5 -42t-14.5 -48q-2 -7 -7.5 -15t-13.5 -8q-9 0 -11.5 6.5t-3.5 15.5
q0 24 -3 43.5t-11 31.5q-9 14 -23.5 22t-38.5 8q-43 0 -80.5 -24t-69 -65t-56.5 -94t-42 -111q-29 -99 -29 -159t25.5 -86.5t72.5 -26.5q29 0 55 13t48.5 34.5t40.5 49.5q5 8 15 17t16 9q8 0 8.5 -8t-2.5 -16q-4 -14 -15 -38t-25 -48q-4 -8 -14 -14.5t-15 -9.5
q-23 -11 -59.5 -20.5t-79.5 -9.5zM33 239q-5 0 -9.5 4t-4.5 9q0 8 7 16.5t17 8.5l332 9q5 0 9.5 -5t3.5 -10q-3 -11 -11.5 -20t-21.5 -9zM308 373q2 0 4.5 -1.5t0.5 -3.5q-3 -6 -5.5 -8t-9.5 -2l-95 6q-2 0 -4 1.5t-2 2.5q0 3 2 5.5t5 2.5z" />
  </g>

</svg>
