<?xml version="1.0" standalone="no"?>
<!DOCTYPE svg PUBLIC "-//W3C//DTD SVG 1.1//EN" "http://www.w3.org/Graphics/SVG/1.1/DTD/svg11.dtd" >
<svg xmlns="http://www.w3.org/2000/svg" xmlns:xlink="http://www.w3.org/1999/xlink" version="1.1" viewBox="-10 0 499 1000">
  <g transform="matrix(1 0 0 -1 0 800)">
   <path fill="currentColor"
d="M230 -14q-54 0 -100.5 21.5t-74 60t-27.5 88.5q0 62 25.5 111t68.5 83.5t96.5 52.5t110.5 18q22 0 40 -3.5t30 -7.5q14 -4 22 -7.5t13 -3.5q3 0 7 2l8 4q5 3 9 5.5t8 2.5q9 0 9.5 -6.5t-3.5 -11.5q-11 -16 -24.5 -45t-19.5 -50q-1 -9 -7 -15t-14 -6t-10.5 8t-1.5 18
q3 17 2 33t-9 26q-8 11 -23.5 20t-34.5 9q-44 0 -80.5 -22t-63.5 -57.5t-42 -78.5t-15 -84q0 -39 16.5 -70t42 -48t52.5 -17q25 0 39 18t22 43l18 60q2 6 0.5 11t-10.5 9q-8 3 -16.5 5.5t-15.5 4.5q-4 1 -8.5 4.5t-2.5 8.5q4 8 16 8q13 0 30 -1t34 -2.5t28 -1.5
q17 0 36.5 2.5t44.5 2.5q10 0 8 -9q-2 -8 -15 -12q-21 -5 -30 -12t-14 -20q-4 -8 -9 -24t-10 -31t-6 -21q0 -5 1.5 -11t6.5 -12q-4 -8 -20 -17t-39 -16.5t-48.5 -12t-49.5 -4.5z" />
  </g>

</svg>
