<?xml version="1.0" standalone="no"?>
<!DOCTYPE svg PUBLIC "-//W3C//DTD SVG 1.1//EN" "http://www.w3.org/Graphics/SVG/1.1/DTD/svg11.dtd" >
<svg xmlns="http://www.w3.org/2000/svg" xmlns:xlink="http://www.w3.org/1999/xlink" version="1.1" viewBox="-10 0 747 1000">
  <g transform="matrix(1 0 0 -1 0 800)">
   <path fill="currentColor"
d="M371 -14q-67 0 -124 19.5t-97.5 57.5t-59.5 94t-12 129q6 79 41 147.5t93.5 120t136 80.5t167.5 29q33 0 57.5 -6t42.5 -13q16 -6 28.5 -10t24.5 -4q5 0 11 2t12 6q6 3 12 5.5t11 2.5q10 0 11 -6.5t-3 -11.5q-12 -16 -26 -42t-26 -54.5t-17 -52.5q-3 -10 -8 -16.5
t-12 -6.5q-21 0 -16 34q3 25 0 49.5t-18 44.5q-13 18 -38 33t-61 15q-61 0 -115.5 -30t-97 -82.5t-70 -121.5t-34.5 -147q-5 -53 9.5 -96t43.5 -74t66.5 -47.5t77.5 -16.5q43 0 69.5 25t36.5 59l29 110q5 16 1 25.5t-18 13.5q-13 5 -26.5 8t-23.5 5q-9 2 -18.5 5.5
t-8.5 11.5q1 7 10 11t20 4q23 0 44.5 -2t42.5 -3.5t43 -1.5q26 0 47.5 3.5t53.5 3.5q20 0 18 -15q-1 -6 -8.5 -11.5t-21.5 -8.5q-25 -5 -38 -15t-23 -30l-43 -124l-37 -69q-24 -10 -53 -18.5t-56.5 -13t-49.5 -4.5zM285 -290q-51 0 -74.5 17t-23.5 34q0 23 7 37t20 14
q10 0 22.5 -11.5t28.5 -23.5q13 -11 28 -21t30 -10q19 0 34 14t31 48.5t35 95.5l58 190l115 72l-31 -102q-27 -86 -50 -142t-44.5 -90t-41.5 -55q-30 -30 -65 -48.5t-79 -18.5z" />
  </g>

</svg>
