<?xml version="1.0" standalone="no"?>
<!DOCTYPE svg PUBLIC "-//W3C//DTD SVG 1.1//EN" "http://www.w3.org/Graphics/SVG/1.1/DTD/svg11.dtd" >
<svg xmlns="http://www.w3.org/2000/svg" xmlns:xlink="http://www.w3.org/1999/xlink" version="1.1" viewBox="-10 0 747 1000">
  <g transform="matrix(1 0 0 -1 0 800)">
   <path fill="currentColor"
d="M371 -14q-67 0 -124 19.5t-97.5 57.5t-59.5 94t-12 129q6 79 41 147.5t93.5 120t136 80.5t167.5 29q33 0 57.5 -6t42.5 -13q16 -6 28.5 -10t24.5 -4q5 0 11 2t12 6q6 3 12 5.5t11 2.5q10 0 11 -6.5t-3 -11.5q-12 -16 -26 -42t-26 -54.5t-17 -52.5q-3 -10 -8 -16.5
t-12 -6.5q-21 0 -16 34q3 25 0 49.5t-18 44.5q-13 18 -38 33t-61 15q-61 0 -115.5 -30t-97 -82.5t-70 -121.5t-34.5 -147q-5 -53 9.5 -96t43.5 -74t66.5 -47.5t77.5 -16.5q43 0 69.5 25t36.5 59l29 110q5 16 1 25.5t-18 13.5q-13 5 -26.5 8t-23.5 5q-9 2 -18.5 5.5
t-8.5 11.5q1 7 10 11t20 4q23 0 44.5 -2t42.5 -3.5t43 -1.5q26 0 47.5 3.5t53.5 3.5q20 0 18 -15q-1 -6 -8.5 -11.5t-21.5 -8.5q-25 -5 -38 -15t-23 -30q-8 -18 -17 -42t-14.5 -45t-5.5 -29q0 -9 3.5 -16.5t10.5 -17.5q-6 -15 -30.5 -29.5t-58 -25.5t-67.5 -17.5t-60 -6.5z
M519 697q-9 0 -19 7t-19 17l-74 86q-6 8 -5 13q1 12 17 12q7 0 25.5 -9.5t38.5 -22.5t31 -23q6 -4 13 -3.5t14 3.5q12 5 34.5 14t47 18t43.5 15.5t25 6.5q15 0 15 -11q0 -7 -8 -14l-129 -85q-18 -12 -29 -18t-21 -6z" />
  </g>

</svg>
