<?xml version="1.0" standalone="no"?>
<!DOCTYPE svg PUBLIC "-//W3C//DTD SVG 1.1//EN" "http://www.w3.org/Graphics/SVG/1.1/DTD/svg11.dtd" >
<svg xmlns="http://www.w3.org/2000/svg" xmlns:xlink="http://www.w3.org/1999/xlink" version="1.1" viewBox="-10 0 585 1000">
  <g transform="matrix(1 0 0 -1 0 800)">
   <path fill="currentColor"
d="M263 -14q-60 0 -109 27t-75.5 74.5t-19.5 109.5q6 73 50 132.5t116 94.5t162 35q24 0 43 -4t33 -9q14 -4 22.5 -7.5t12.5 -3.5t8.5 2.5t8.5 5.5t9 5t9 2q8 0 9 -7t-3 -13q-8 -11 -17 -30t-17.5 -38.5t-11.5 -34.5q-2 -9 -8 -15.5t-15 -6.5q-10 -1 -12.5 8t-1.5 20
q3 20 1 38.5t-11 28.5q-9 12 -26 21t-42 9q-36 0 -71.5 -17.5t-65.5 -50t-50.5 -78.5t-25.5 -102q-4 -45 9.5 -83.5t41.5 -61.5t68 -23q27 0 46 16.5t26 39.5l21 67q5 15 2 25t-19 14q-7 3 -15 4.5t-19 3.5q-12 1 -17.5 4.5t-4.5 10.5q0 6 8.5 8.5t18.5 2.5q22 0 39 -1
t32.5 -2t33.5 -1q19 0 34 2t37 2q21 0 19 -13q0 -7 -6.5 -11t-21.5 -8q-17 -4 -24.5 -14t-13.5 -25q-4 -13 -9.5 -28t-10.5 -29q-4 -15 -0.5 -23.5t12.5 -14.5q0 -5 -6.5 -10t-12.5 -8q-9 -6 -28.5 -12.5t-45 -13t-51 -10.5t-45.5 -4zM488 721q8 0 11.5 -8t8.5 -26
q4 -16 8.5 -36.5t8.5 -41.5t6.5 -38t3.5 -25q1 -9 -1.5 -18.5t-10.5 -9.5q-11 0 -21 22q-6 15 -16.5 38.5t-20.5 46.5q-3 7 -10 0q-23 -23 -48 -46.5t-41 -39.5q-10 -8 -18.5 -14.5t-13.5 -6.5q-10 0 -10 10q0 5 2.5 10.5t7.5 11.5q11 15 30 39t39 48.5t34 41.5t28 29.5
t23 12.5z" />
  </g>

</svg>
