<?xml version="1.0" standalone="no"?>
<!DOCTYPE svg PUBLIC "-//W3C//DTD SVG 1.1//EN" "http://www.w3.org/Graphics/SVG/1.1/DTD/svg11.dtd" >
<svg xmlns="http://www.w3.org/2000/svg" xmlns:xlink="http://www.w3.org/1999/xlink" version="1.1" viewBox="-10 0 1244 1000">
  <g transform="matrix(1 0 0 -1 0 800)">
   <path fill="currentColor"
d="M182 -14q-54 0 -79 17.5t-25 36.5q0 24 7.5 38.5t21.5 14.5q10 0 23.5 -11.5t29.5 -24.5q14 -12 30 -22.5t32 -10.5q19 0 35 14.5t32.5 50.5t35.5 100l107 351q10 31 9.5 46t-15.5 19.5t-51 4.5q-35 0 -74 -10t-73 -27.5t-56 -42.5t-22 -54q0 -36 16.5 -50.5t45.5 -20.5
q15 -3 22 -13t7 -23q0 -14 -13 -27.5t-40 -13.5q-29 0 -49.5 16.5t-32 42t-11.5 52.5q0 69 49.5 116t145.5 71.5t234 24.5q20 0 36 0.5t33.5 1t41.5 0.5q21 0 20 -12q-1 -8 -10 -12.5t-24 -7.5q-26 -5 -42.5 -14t-26.5 -22.5t-16 -33.5l-59 -193q-3 -10 10 -10h301
q8 0 12 12l65 204q27 97 71 154.5t92.5 82.5t89.5 25q44 0 75 -20t31 -52q0 -27 -13.5 -43.5t-30.5 -16.5q-10 0 -16.5 13.5t-14.5 31.5q-8 21 -21 33.5t-35 12.5q-23 0 -41.5 -17.5t-33.5 -53t-31 -87.5l-164 -528q-11 -35 -6 -50t38 -22q13 -3 17.5 -7.5t3.5 -11.5
t-9.5 -9.5t-18.5 -2.5q-23 0 -40 1.5t-33 2.5t-36 1q-19 0 -37 -1t-37 -2.5t-43 -1.5q-21 0 -20 12q1 8 9.5 12t23.5 7q35 7 55.5 23t29.5 47l61 194q2 6 3 11t-5 5h-308q-9 0 -12 -13l-5 -17q-17 -52 -31 -87.5t-29 -59t-29.5 -40.5t-30.5 -34q-31 -31 -68.5 -50.5
t-83.5 -19.5z" />
  </g>

</svg>
