<?xml version="1.0" standalone="no"?>
<!DOCTYPE svg PUBLIC "-//W3C//DTD SVG 1.1//EN" "http://www.w3.org/Graphics/SVG/1.1/DTD/svg11.dtd" >
<svg xmlns="http://www.w3.org/2000/svg" xmlns:xlink="http://www.w3.org/1999/xlink" version="1.1" viewBox="-38 0 509 1000">
  <g transform="matrix(1 0 0 -1 0 800)">
   <path fill="currentColor"
d="M-7 -4q-10 0 -15.5 2.5t-5.5 9.5q2 13 34 19q38 7 60 22t32 49l139 452q11 34 1.5 48.5t-43.5 22.5q-13 3 -17.5 8t-3.5 12t9.5 10t18.5 3q24 0 43.5 -1t37.5 -2t39 -1q20 0 38 0.5t37 1.5t43 1q21 0 20 -12q-1 -8 -10 -12.5t-24 -7.5q-26 -5 -43 -13t-27.5 -21.5
t-16.5 -36.5l-135 -439q-8 -28 -6 -44.5t14.5 -24.5t34.5 -14q17 -4 22.5 -8t4.5 -12q0 -6 -8 -9t-19 -3q-24 0 -44.5 1.5t-39.5 2.5t-40 1q-33 0 -63 -2.5t-67 -2.5zM369 696q-2 0 -7.5 1.5t-13.5 6.5q-33 22 -72 47.5t-72 49.5q-14 11 -15 20q-1 7 11.5 13.5t27.5 11
t22 4.5q19 2 30 -11q24 -30 45.5 -60t43.5 -59q8 -9 8 -17q0 -7 -8 -7z" />
  </g>

</svg>
