<?xml version="1.0" standalone="no"?>
<!DOCTYPE svg PUBLIC "-//W3C//DTD SVG 1.1//EN" "http://www.w3.org/Graphics/SVG/1.1/DTD/svg11.dtd" >
<svg xmlns="http://www.w3.org/2000/svg" xmlns:xlink="http://www.w3.org/1999/xlink" version="1.1" viewBox="-10 0 708 1000">
  <g transform="matrix(1 0 0 -1 0 800)">
   <path fill="currentColor"
d="M163 -200q-54 0 -78.5 17.5t-24.5 36.5q0 24 7 39t22 15q9 0 22.5 -12t30.5 -25q14 -12 29.5 -22.5t31.5 -10.5q19 0 35 15t32.5 51t35.5 100l182 595l103 -1l-141 -459q-21 -69 -38.5 -113.5t-33.5 -72.5t-31.5 -47t-31.5 -35q-31 -32 -68.5 -51.5t-83.5 -19.5zM256 285
q-8 0 -9.5 8t-0.5 14q3 9 12.5 15t18.5 6h348q6 0 10 -5t0 -10q-8 -13 -19 -20.5t-23 -7.5h-337zM165 497q-15 0 -22.5 16t-7.5 33q0 31 13 63t36.5 58.5t56.5 42.5t72 16q51 0 84 -17.5t54.5 -44t37.5 -57.5q31 62 71.5 85.5t71.5 24.5q23 1 39.5 -12t16.5 -35
q0 -27 -22 -47t-63.5 -30t-100.5 -10q-43 0 -74 10.5t-56.5 25t-50 25t-54.5 10.5q-39 0 -57.5 -16.5t-18.5 -40.5q0 -12 4 -21t8 -17t7 -14.5t3 -12.5q0 -10 -7.5 -18.5t-18.5 -12.5t-22 -4z" />
  </g>

</svg>
