<?xml version="1.0" standalone="no"?>
<!DOCTYPE svg PUBLIC "-//W3C//DTD SVG 1.1//EN" "http://www.w3.org/Graphics/SVG/1.1/DTD/svg11.dtd" >
<svg xmlns="http://www.w3.org/2000/svg" xmlns:xlink="http://www.w3.org/1999/xlink" version="1.1" viewBox="-200 0 679 1000">
  <g transform="matrix(1 0 0 -1 0 800)">
   <path fill="currentColor"
d="M-86 -200q-54 0 -78.5 17.5t-25.5 36.5q0 24 7.5 39t21.5 15q10 0 23.5 -12t29.5 -25q14 -11 30 -22t32 -11q19 0 35 15t32.5 51t35.5 100l167 547q11 34 2.5 48t-42.5 22q-13 3 -17.5 8t-4.5 12q1 7 10 10t19 3q24 0 43 -1t37 -2t39 -1q18 0 33.5 0.5t33.5 1.5t41 1
q21 0 20 -12q-1 -8 -9.5 -12.5t-23.5 -7.5q-26 -5 -40.5 -13t-22.5 -21.5t-15 -35.5l-133 -435q-19 -62 -35.5 -102.5t-32.5 -66.5t-32 -44t-32 -34q-32 -31 -68.5 -50t-79.5 -19zM181 695q-17 0 -15 11q1 6 9 13l127 86q20 13 30 18.5t19 5.5q12 0 21 -6.5t18 -17.5l74 -86
q3 -4 4 -7t1 -6q-1 -12 -16 -12q-7 0 -27 9.5t-41.5 22.5t-34.5 21q-12 9 -26 1q-10 -5 -31 -14t-44.5 -18t-42 -15t-25.5 -6z" />
  </g>

</svg>
