<?xml version="1.0" standalone="no"?>
<!DOCTYPE svg PUBLIC "-//W3C//DTD SVG 1.1//EN" "http://www.w3.org/Graphics/SVG/1.1/DTD/svg11.dtd" >
<svg xmlns="http://www.w3.org/2000/svg" xmlns:xlink="http://www.w3.org/1999/xlink" version="1.1" viewBox="-20 0 527 1000">
  <g transform="matrix(1 0 0 -1 0 800)">
   <path fill="currentColor"
d="M348 -297q-22 0 -42.5 4t-39 14.5t-37.5 27.5q-18 17 -33 31.5t-33 37.5q-5 5 -15.5 13.5t-21.5 17t-19 11.5l148 7q-6 -4 -10 -8t-2 -9q11 -16 24 -31t31 -33q22 -23 44.5 -32.5t45.5 -9.5q17 0 27.5 1.5t15.5 2.5q8 2 14 0.5t4 -6.5q-4 -12 -18 -19q-18 -9 -39.5 -14.5
t-43.5 -5.5zM153 -153q-45 0 -82 18.5t-59 52t-22 78.5q0 59 20.5 108t58.5 85t88.5 55t112.5 19q44 0 80 -18t57.5 -51t21.5 -76q0 -59 -20.5 -108.5t-58 -86t-87.5 -56.5t-110 -20zM161 -127q41 0 75.5 22t59.5 58.5t39 82t14 92.5q0 49 -22 79.5t-68 30.5
q-41 0 -75 -22.5t-59 -59.5t-38.5 -82.5t-13.5 -92.5q0 -49 23 -78t65 -30z" />
  </g>

</svg>
