<?xml version="1.0" standalone="no"?>
<!DOCTYPE svg PUBLIC "-//W3C//DTD SVG 1.1//EN" "http://www.w3.org/Graphics/SVG/1.1/DTD/svg11.dtd" >
<svg xmlns="http://www.w3.org/2000/svg" xmlns:xlink="http://www.w3.org/1999/xlink" version="1.1" viewBox="-10 0 1293 1000">
  <g transform="matrix(1 0 0 -1 0 800)">
   <path fill="currentColor"
d="M1085 -307q-67 0 -129 30.5t-118 85t-108 126.5t-99 156t-91 171q-11 24 -23.5 30.5t-35.5 6.5q-8 0 -15.5 -4.5t-10.5 -13.5l-54 -174q-11 -34 -2 -53.5t44 -26.5q13 -3 18 -7t4 -12q-1 -6 -9 -9t-19 -3q-23 0 -41.5 1.5t-35 3t-34.5 1.5q-35 0 -65 -3t-66 -3
q-11 0 -16.5 2.5t-4.5 9.5q1 13 33 19q38 7 58.5 22t31.5 50l138 449q10 31 9.5 45.5t-16 19t-51.5 4.5q-34 0 -73 -9.5t-73 -28t-55.5 -43t-21.5 -52.5q0 -36 15 -50t45 -19q15 -2 22.5 -12t7.5 -22q0 -15 -12.5 -29t-41.5 -14q-28 0 -48.5 16t-32.5 41t-12 52
q0 47 21.5 82.5t61.5 61t94 41.5t121 23.5t142 7.5q58 0 107 -8t85.5 -26t57 -49t20.5 -77q0 -38 -15.5 -69t-40.5 -54.5t-53.5 -38.5t-54.5 -21q-16 -3 -18.5 -8.5t3.5 -14.5q29 -55 64.5 -118t74.5 -127t81 -122t85.5 -104t88 -72t86.5 -26q45 0 67 19t22 40
q0 17 -10 27.5t-21 17.5q-10 6 -18.5 15t-8.5 27q0 22 17.5 34t39.5 12q42 0 59.5 -24.5t17.5 -57.5t-19.5 -66.5t-61 -56t-107.5 -22.5zM527 321q43 0 83.5 23t66 65t25.5 98q0 50 -28 85.5t-74 35.5q-16 0 -26 -5.5t-17 -18.5t-14 -36l-58 -209q-4 -21 6 -29.5t36 -8.5z
" />
  </g>

</svg>
