<?xml version="1.0" standalone="no"?>
<!DOCTYPE svg PUBLIC "-//W3C//DTD SVG 1.1//EN" "http://www.w3.org/Graphics/SVG/1.1/DTD/svg11.dtd" >
<svg xmlns="http://www.w3.org/2000/svg" xmlns:xlink="http://www.w3.org/1999/xlink" version="1.1" viewBox="-41 0 616 1000">
  <g transform="matrix(1 0 0 -1 0 800)">
   <path fill="currentColor"
d="M432 -13q-44 0 -72 20.5t-39 53.5l-39 113q-5 16 -16 24t-26 8q-6 0 -14.5 -4t-11.5 -11l-32 -103q-8 -28 5 -42t46 -20q12 -3 17 -7t4 -11q0 -6 -8.5 -9t-18.5 -3q-16 0 -31.5 1t-30 1.5l-29 1t-29.5 0.5q-20 0 -39 -0.5t-38 -2t-41 -1.5q-11 0 -15.5 3.5t-4.5 9.5
q1 7 9.5 11.5t21.5 6.5q24 5 40.5 12t26.5 19t16 31l84 272q10 29 1 41t-38 18q-14 3 -17.5 8t-3.5 12q1 6 9 9t19 3q26 0 40.5 -1.5t28 -2t32.5 -0.5q24 0 51 3t52 3q71 0 110 -28.5t40 -74.5q1 -35 -16 -59t-46 -40.5t-63 -28.5q-5 -1 -8 -6.5t0 -10.5q6 -9 10.5 -18.5
t10.5 -22.5l43 -90q12 -23 29.5 -36t40.5 -14q9 0 17.5 -2t8.5 -9q0 -9 -13 -15t-32.5 -9t-40.5 -3zM265 224q28 0 57.5 15t50.5 44t21 68q0 34 -19.5 56t-51.5 22q-15 0 -26 -4.5t-16 -19.5l-47 -152q-5 -17 7 -23t24 -6z" />
  </g>

</svg>
