<?xml version="1.0" standalone="no"?>
<!DOCTYPE svg PUBLIC "-//W3C//DTD SVG 1.1//EN" "http://www.w3.org/Graphics/SVG/1.1/DTD/svg11.dtd" >
<svg xmlns="http://www.w3.org/2000/svg" xmlns:xlink="http://www.w3.org/1999/xlink" version="1.1" viewBox="-82 0 570 1000">
  <g transform="matrix(1 0 0 -1 0 800)">
   <path fill="currentColor"
d="M303 -158q-32 0 -52.5 12.5t-31.5 34.5q-8 18 -16 35t-15.5 37.5t-16.5 50.5q-3 13 -15 19q-8 4 -17 6t-15 3q-7 2 -12 -12l-33 -109q-5 -17 0 -29.5t27 -16.5q18 -3 14 -12q-1 -4 -6 -6t-12 -2q-14 0 -27 1t-25 1.5t-24 0.5q-21 0 -41 -1.5t-42 -1.5q-7 0 -11 2t-3 6
q3 9 22 12q23 5 34.5 13.5t17.5 29.5l83 268q7 24 4 36t-23 15q-19 3 -15 14q4 8 21 8q18 0 27.5 -0.5t18.5 -1.5t22 -1q21 0 36 2.5t45 2.5q60 0 88 -25t28 -61q0 -31 -15.5 -54t-40.5 -39t-54 -26q-1 -1 -1.5 -2.5t-0.5 -4.5q15 -42 30.5 -75t40.5 -66q14 -17 31.5 -20
t39.5 -3q9 0 6 -10q-5 -17 -27 -24t-44 -7zM150 62q33 0 59 15.5t40.5 41.5t13.5 58q-1 25 -15 42.5t-43 17.5q-16 0 -23.5 -6t-11.5 -18q-10 -35 -19.5 -65t-19.5 -62q-5 -14 0.5 -18.5t18.5 -5.5z" />
  </g>

</svg>
