<?xml version="1.0" standalone="no"?>
<!DOCTYPE svg PUBLIC "-//W3C//DTD SVG 1.1//EN" "http://www.w3.org/Graphics/SVG/1.1/DTD/svg11.dtd" >
<svg xmlns="http://www.w3.org/2000/svg" xmlns:xlink="http://www.w3.org/1999/xlink" version="1.1" viewBox="-36 0 383 1000">
  <g transform="matrix(1 0 0 -1 0 800)">
   <path fill="currentColor"
d="M110 -12q-19 0 -37 3t-35 8q-9 4 -14.5 6t-7.5 2q-4 0 -7.5 -1.5t-6.5 -3.5q-4 -1 -8 -3t-7 -2q-2 0 -7.5 4t-5.5 9q0 4 7 17.5t14.5 34t9.5 43.5q1 16 12 16q6 0 7.5 -7.5t1.5 -22.5q1 -35 18 -57t55 -22q40 0 65 21t25 52q0 15 -1.5 27.5t-11.5 26.5t-34 33
q-32 27 -52 53.5t-21 65.5q0 33 18.5 58.5t50.5 40t73 14.5q15 0 29 -2t26 -7l21 -7t15 -3q4 0 7.5 1t5.5 3q3 2 6.5 3t7.5 1q5 0 7 -4t0 -7q-4 -6 -15 -26t-16 -61q-3 -17 -12 -17q-10 0 -10 18q0 42 -21.5 63.5t-52.5 21.5q-34 0 -53.5 -21t-18.5 -46q0 -16 6 -29.5
t19.5 -28t36.5 -34.5q33 -28 47 -51t15 -53q0 -33 -17.5 -63t-51 -48.5t-82.5 -18.5z" />
  </g>

</svg>
