<?xml version="1.0" standalone="no"?>
<!DOCTYPE svg PUBLIC "-//W3C//DTD SVG 1.1//EN" "http://www.w3.org/Graphics/SVG/1.1/DTD/svg11.dtd" >
<svg xmlns="http://www.w3.org/2000/svg" xmlns:xlink="http://www.w3.org/1999/xlink" version="1.1" viewBox="-10 0 599 1000">
  <g transform="matrix(1 0 0 -1 0 800)">
   <path fill="currentColor"
d="M98 -2q-6 0 -11.5 3t-4.5 9q2 8 10.5 12t16.5 5q29 5 48.5 14.5t26.5 33.5l96 311q7 21 2.5 25.5t-24.5 4.5h-55q-11 0 -26.5 -9t-30 -22t-24.5 -24q-4 -4 -10.5 -11t-14 -11.5t-14.5 -4.5q-4 0 -6 2t-1 7q1 7 7.5 16.5t18 31t26.5 60.5q5 11 10.5 14t9.5 3t9 -3t13 -7
q9 -4 23.5 -7.5t35.5 -3.5h224q29 0 50.5 4t37.5 9q11 3 18.5 5.5t11.5 2.5q5 0 6.5 -4t-0.5 -9q-14 -37 -16 -60t-10 -41q-1 -3 -7.5 -13t-12.5 -9q-7 0 -9.5 6.5t-2.5 17.5q0 13 -4.5 27t-14 24t-28.5 9l-54 -1q-13 0 -24 -10t-14 -20l-94 -310q-7 -23 6.5 -33.5
t38.5 -15.5q7 -1 13 -4.5t3 -11.5q-2 -6 -10 -9t-13 -3q-17 0 -36 1t-38.5 2.5t-38.5 1.5q-18 0 -37.5 -1.5t-38.5 -2.5t-37 -1z" />
  </g>

</svg>
