<?xml version="1.0" standalone="no"?>
<!DOCTYPE svg PUBLIC "-//W3C//DTD SVG 1.1//EN" "http://www.w3.org/Graphics/SVG/1.1/DTD/svg11.dtd" >
<svg xmlns="http://www.w3.org/2000/svg" xmlns:xlink="http://www.w3.org/1999/xlink" version="1.1" viewBox="-10 0 876 1000">
  <g transform="matrix(1 0 0 -1 0 800)">
   <path fill="currentColor"
d="M198 -4q-10 0 -16 2.5t-5 9.5t10 11t24 6q39 8 62 24.5t33 51.5l159 539l98 -11l-155 -528q-10 -32 2.5 -49.5t47.5 -26.5q13 -3 18 -6t4 -11q-1 -6 -9 -9t-19 -3q-24 0 -44 1.5t-38.5 2.5t-39.5 1q-22 0 -43 -1t-42.5 -2.5t-46.5 -1.5zM228 386q-40 0 -69 17.5t-45 45.5
t-16 59q0 32 16 63t48.5 57t83.5 41.5t121 15.5q34 0 73.5 -4t81.5 -9.5t82.5 -12.5t77 -12.5t66 -9.5t47.5 -4q-6 19 -12 34t-6 26q0 8 10 15t23 11.5t20 4.5q12 0 19 -12t7 -28q0 -9 -7.5 -24t-21 -31.5t-32 -31.5t-40.5 -24.5t-46 -9.5q-40 0 -84.5 13t-91.5 30t-95 30
t-96 13q-49 0 -84 -12.5t-56.5 -33.5t-32 -45.5t-10.5 -48.5q0 -31 16 -53.5t42 -22.5q6 0 11.5 5.5t11.5 12.5q6 6 13.5 11t17.5 5q15 0 23.5 -11t8.5 -24q0 -17 -21 -31.5t-54 -14.5z" />
  </g>

</svg>
