<?xml version="1.0" standalone="no"?>
<!DOCTYPE svg PUBLIC "-//W3C//DTD SVG 1.1//EN" "http://www.w3.org/Graphics/SVG/1.1/DTD/svg11.dtd" >
<svg xmlns="http://www.w3.org/2000/svg" xmlns:xlink="http://www.w3.org/1999/xlink" version="1.1" viewBox="-42 0 564 1000">
  <g transform="matrix(1 0 0 -1 0 800)">
   <path fill="currentColor"
d="M-11 -4q-10 0 -15.5 3t-4.5 10q1 8 9.5 12t21.5 6q35 7 55 20.5t28 41.5l84 269q9 30 1 43t-38 20q-13 3 -17 7.5t-4 12.5q1 6 9.5 8.5t18.5 2.5q22 0 40 -0.5t34.5 -1.5t34.5 -1q19 0 35.5 1t34.5 1.5t40 0.5t20 -12q-1 -13 -32 -19q-34 -7 -50 -20t-23 -32l-9 -33
l-40 12q9 2 23 4t33 3.5t42 1.5q43 0 79.5 -15.5t58.5 -43.5t21 -67q0 -49 -31 -84t-80 -53t-105 -18q-11 0 -22.5 3t-11.5 12q0 7 7.5 10t17.5 4q36 4 65 19.5t47.5 41t18.5 60.5q1 30 -9.5 51.5t-29 33t-40.5 11.5q-20 0 -37 -8t-24 -27l-61 -194q-9 -31 4 -45t46 -21
q13 -2 17 -6t4 -12q-1 -6 -9.5 -9.5t-18.5 -3.5q-22 0 -41.5 1.5t-39 2t-38.5 0.5q-20 0 -39.5 -0.5t-38.5 -2t-41 -1.5z" />
  </g>

</svg>
