<?xml version="1.0" standalone="no"?>
<!DOCTYPE svg PUBLIC "-//W3C//DTD SVG 1.1//EN" "http://www.w3.org/Graphics/SVG/1.1/DTD/svg11.dtd" >
<svg xmlns="http://www.w3.org/2000/svg" xmlns:xlink="http://www.w3.org/1999/xlink" version="1.1" viewBox="-10 0 593 1000">
  <g transform="matrix(1 0 0 -1 0 800)">
   <path fill="currentColor"
d="M217 -14q-48 0 -83.5 22.5t-49 62.5t1.5 93l48 156q6 17 7 29t-6 20.5t-25 12.5q-11 3 -14.5 7t-3.5 10q1 5 8.5 7.5t16.5 2.5q21 0 33.5 -0.5t23.5 -1.5t24 -1q23 0 45 1.5t54 1.5q20 0 19 -10q-1 -8 -12 -12.5t-25 -8.5q-18 -4 -27 -10.5t-14 -18.5t-11 -31l-46 -149
q-13 -40 -4.5 -68.5t31 -43.5t53.5 -15q51 0 86.5 32t55.5 98l41 132q9 30 5.5 49.5t-21.5 24.5q-13 5 -20 9.5t-6 11.5q0 5 8 7.5t18 2.5q13 0 22 -0.5t18.5 -1.5t20.5 -1q19 0 34 1.5t31 1.5q19 0 18 -10q-1 -12 -28 -17q-22 -6 -32.5 -18.5t-17.5 -32.5l-52 -166
q-26 -80 -84 -129.5t-141 -49.5z" />
  </g>

</svg>
