<?xml version="1.0" standalone="no"?>
<!DOCTYPE svg PUBLIC "-//W3C//DTD SVG 1.1//EN" "http://www.w3.org/Graphics/SVG/1.1/DTD/svg11.dtd" >
<svg xmlns="http://www.w3.org/2000/svg" xmlns:xlink="http://www.w3.org/1999/xlink" version="1.1" viewBox="-10 0 673 1000">
  <g transform="matrix(1 0 0 -1 0 800)">
   <path fill="currentColor"
d="M319 432q-45 0 -79.5 19.5t-45.5 61t8 103.5l48 156q6 19 1.5 31.5t-16.5 16.5q-17 5 -14 13t18 8q17 0 34.5 -1t35.5 -1q16 0 35 0.5t33 0.5q17 0 15 -7q-2 -6 -10 -9t-20 -7q-9 -3 -20.5 -15t-17.5 -32l-54 -175q-13 -42 -4 -67.5t31.5 -37t49.5 -11.5q59 0 95 39.5
t56 106.5q7 23 17 55.5t20 66.5q6 21 7.5 35.5t-2 24t-13.5 12.5q-7 3 -12.5 5.5t-4.5 7.5q3 8 20 8q19 0 29.5 -0.5t24.5 -0.5q11 0 19 0.5t16.5 1t17.5 0.5q7 0 12 -1.5t3 -6.5q-3 -9 -23 -13q-21 -4 -31 -16.5t-17 -33.5q-18 -49 -30 -89.5t-25 -81.5
q-17 -50 -44.5 -88.5t-67 -58.5t-95.5 -20z" />
  </g>

</svg>
