<?xml version="1.0" standalone="no"?>
<!DOCTYPE svg PUBLIC "-//W3C//DTD SVG 1.1//EN" "http://www.w3.org/Graphics/SVG/1.1/DTD/svg11.dtd" >
<svg xmlns="http://www.w3.org/2000/svg" xmlns:xlink="http://www.w3.org/1999/xlink" version="1.1" viewBox="-16 0 1073 1000">
  <g transform="matrix(1 0 0 -1 0 800)">
   <path fill="currentColor"
d="M405 -14q-52 0 -92.5 25.5t-63 69.5t-22.5 98q0 36 7.5 71t22.5 68.5t36 62.5q20 35 44 67t55.5 70.5t74.5 90.5q-111 0 -189.5 -10.5t-128 -29t-72.5 -43.5t-23 -54q0 -31 14.5 -47.5t44.5 -21.5q15 -2 22.5 -11.5t7.5 -22.5q0 -14 -12.5 -28t-41.5 -14
q-28 0 -49.5 15.5t-33.5 41t-12 52.5q0 51 30 91.5t93.5 69.5t165.5 45.5t246 20.5q8 0 13.5 -10.5t1.5 -14.5q-32 -33 -66.5 -79.5t-62.5 -90.5q-39 -57 -58 -116.5t-19 -131.5q0 -45 16 -79t45 -53t67 -19q26 0 53.5 9.5t48.5 21.5q-16 35 -25 78.5t-9 88.5q0 68 13.5 129
t39 109.5t62 76.5t83.5 28q42 0 63.5 -32t21.5 -83q0 -42 -12.5 -92.5t-34 -103t-50.5 -99.5t-62 -84q21 -26 45 -39t49 -13q33 0 66 21.5t63.5 59t53.5 86t36.5 103.5t13.5 110q0 23 -9.5 50t-20.5 50q-10 22 -18.5 38t-8.5 20q0 6 8 16t20 20.5t23.5 18t18.5 7.5
q15 0 26 -19t17 -47.5t6 -57.5q0 -81 -18.5 -161t-51 -150.5t-74 -125t-88 -85.5t-92.5 -31q-35 0 -67 15.5t-60 46.5q-47 -29 -93.5 -46t-97.5 -17zM635 156q43 51 72.5 110t44.5 116t15 99q0 36 -11.5 59t-34.5 23q-27 0 -48 -19.5t-36 -53.5t-23 -78.5t-8 -95.5
q0 -44 7 -85t22 -75z" />
  </g>

</svg>
