<?xml version="1.0" standalone="no"?>
<!DOCTYPE svg PUBLIC "-//W3C//DTD SVG 1.1//EN" "http://www.w3.org/Graphics/SVG/1.1/DTD/svg11.dtd" >
<svg xmlns="http://www.w3.org/2000/svg" xmlns:xlink="http://www.w3.org/1999/xlink" version="1.1" viewBox="-59 0 563 1000">
  <g transform="matrix(1 0 0 -1 0 800)">
   <path fill="currentColor"
d="M-33 -4q-7 0 -12 1.5t-3 6.5t7.5 8t13.5 5q19 5 43.5 18t46.5 32l108 105q10 11 15 19.5t2 14.5l-50 125q-7 18 -19 31.5t-25 17.5q-6 3 -10 6t-3 7q1 5 6.5 6.5t11.5 1.5q22 0 40.5 -1.5t43.5 -1.5q26 0 44.5 1.5t30.5 1.5q7 0 12 -2t3 -6q-1 -5 -7 -8t-15 -5
q-24 -4 -33.5 -15.5t-0.5 -36.5l29 -75q4 -8 8 -8.5t13 7.5l84 81q20 19 18 30.5t-23 16.5q-5 1 -10.5 4.5t-4.5 7.5q2 5 7.5 6.5t12.5 1.5q14 0 30 -0.5t37 -0.5q17 0 31 2t28 2q8 0 13 -2t3 -7q-1 -5 -7 -7.5t-15 -4.5q-17 -5 -38 -20.5t-41 -33.5l-109 -98
q-9 -9 -12.5 -15.5t-0.5 -14.5l54 -138q7 -16 17 -28t23 -16q8 -2 12.5 -5.5t3.5 -8.5q-1 -4 -6 -6t-12 -2q-15 0 -29 1t-27 2t-28 1q-29 2 -46 0.5t-31 -1.5q-6 0 -10.5 2t-3.5 6q2 5 8.5 8.5t13.5 4.5q11 3 21.5 8t16.5 14t-1 23l-33 86q-4 9 -7.5 10t-13.5 -8l-98 -96
q-14 -14 -10 -25t20 -14q8 -2 13 -5t3 -8q-1 -4 -7.5 -6t-13.5 -2q-12 0 -28 1.5t-39 1.5q-18 -1 -33.5 -2.5t-31.5 -1.5z" />
  </g>

</svg>
