<?xml version="1.0" standalone="no"?>
<!DOCTYPE svg PUBLIC "-//W3C//DTD SVG 1.1//EN" "http://www.w3.org/Graphics/SVG/1.1/DTD/svg11.dtd" >
<svg xmlns="http://www.w3.org/2000/svg" xmlns:xlink="http://www.w3.org/1999/xlink" version="1.1" viewBox="-49 0 804 1000">
  <g transform="matrix(1 0 0 -1 0 800)">
   <path fill="currentColor"
d="M72 44q-4 -5 -11 0.5t-9 9.5q-4 7 -1 17.5t10 17.5l540 560q5 5 10.5 3.5t6.5 -10.5q1 -13 -2 -24t-11 -20zM517 -255q-39 0 -77 23.5t-74.5 60.5t-72.5 76q-35 39 -66.5 76.5t-62 61t-60.5 23.5q-26 -17 -46.5 -37t-35.5 -36q-8 -9 -22.5 -6.5t-26.5 13.5t-12 26
q0 18 21.5 37t56.5 31t76 11q35 0 69.5 -11t68 -31.5t66 -49.5t64.5 -66q33 -36 63 -70.5t59 -56t57 -21.5q19 0 36 8t27.5 22.5t10.5 32.5q0 15 -9.5 26.5t-9.5 22.5q0 15 13.5 26.5t25.5 11.5q21 0 30.5 -12.5t9.5 -34.5q0 -23 -14 -50t-38.5 -51t-56.5 -40t-70 -16z
M139 285q-8 0 -10 8t0 14q2 9 11.5 15t19.5 6h347q7 0 10.5 -5t-0.5 -10q-8 -13 -18.5 -20.5t-22.5 -7.5h-337zM185 499q-20 0 -29.5 15.5t-9.5 35.5q0 29 12.5 60t36 57.5t56.5 42.5t73 16q51 0 98.5 -17t85 -41t56.5 -48q18 33 41.5 53t47.5 29.5t42 8.5q21 -1 35.5 -12.5
t14.5 -32.5q0 -26 -21 -45t-60.5 -29t-95.5 -10q-43 0 -81.5 10.5t-73.5 25.5t-68 25.5t-67 10.5q-38 0 -56 -18.5t-18 -53.5q0 -7 3.5 -12.5t6.5 -11.5q4 -5 7.5 -10.5t3.5 -12.5q0 -17 -13 -26.5t-27 -9.5z" />
  </g>

</svg>
