<?xml version="1.0" standalone="no"?>
<!DOCTYPE svg PUBLIC "-//W3C//DTD SVG 1.1//EN" "http://www.w3.org/Graphics/SVG/1.1/DTD/svg11.dtd" >
<svg xmlns="http://www.w3.org/2000/svg" xmlns:xlink="http://www.w3.org/1999/xlink" version="1.1" viewBox="-16 0 242 1000">
  <g transform="matrix(1 0 0 -1 0 800)">
   <path fill="currentColor"
d="M26 504q-6 0 -13 -0.5t-12 1.5q-3 1 -5.5 4t1.5 9q9 8 22.5 18t24.5 18q6 5 21 15t33 21.5t35 20.5t27 13q8 1 14 -2.5t10 -7.5l6 -6q9 -1 15 -9t9 -17.5t1 -14.5q-13 -5 -26 -11t-27 -9q-7 -4 -24 -10t-38.5 -12.5t-41 -12t-32.5 -8.5z" />
  </g>

</svg>
