<?xml version="1.0" standalone="no"?>
<!DOCTYPE svg PUBLIC "-//W3C//DTD SVG 1.1//EN" "http://www.w3.org/Graphics/SVG/1.1/DTD/svg11.dtd" >
<svg xmlns="http://www.w3.org/2000/svg" xmlns:xlink="http://www.w3.org/1999/xlink" version="1.1" viewBox="-28 0 522 1000">
  <g transform="matrix(1 0 0 -1 0 800)">
   <path fill="currentColor"
d="M67 -10q-40 0 -62.5 20t-22.5 51q0 36 38 75.5t106 67.5l15 6q-13 19 -19.5 32t-6.5 27q0 39 30.5 65t79.5 26q36 0 56 -14.5t20 -36.5q0 -27 -24 -50.5t-63 -38.5l-11 -4l58 -99l13 10q14 11 27.5 22t24.5 22q13 12 21.5 22t8.5 18q0 5 -5 8.5t-10 5.5q-7 3 -7 9.5
t12 6.5q16 0 28.5 -1.5t25.5 -1.5q21 0 42 5t31 5q12 0 10 -8.5t-17 -9.5q-18 -2 -38 -11.5t-37 -22.5l-120 -93q15 -31 25.5 -47.5t22 -23t28.5 -6.5q8 0 15.5 2.5t17.5 7.5q5 3 11 5t10 2q8 0 10 -6t-3 -9q-21 -16 -43 -27t-48 -11q-34 0 -54 17t-37 49l-5 9
q-35 -27 -61 -44t-48 -24t-45 -7zM107 36q27 0 51 10.5t54 33.5l-64 116l-14 -5q-24 -9 -42.5 -26.5t-28.5 -38t-10 -40.5q0 -21 15 -35.5t39 -14.5zM193 231q30 13 44.5 37.5t14.5 43.5q0 14 -7.5 23t-22.5 9q-26 0 -38 -17t-12 -40q1 -24 15 -46z" />
  </g>

</svg>
