<?xml version="1.0" standalone="no"?>
<!DOCTYPE svg PUBLIC "-//W3C//DTD SVG 1.1//EN" "http://www.w3.org/Graphics/SVG/1.1/DTD/svg11.dtd" >
<svg xmlns="http://www.w3.org/2000/svg" xmlns:xlink="http://www.w3.org/1999/xlink" version="1.1" viewBox="-10 0 680 1000">
  <g transform="matrix(1 0 0 -1 0 800)">
   <path fill="currentColor"
d="M289 -31q-67 0 -121.5 24t-86.5 65.5t-32 94.5q0 52 21 92.5t56 64t77 23.5q41 0 62 -19.5t21 -46.5q0 -26 -22.5 -46t-54.5 -20q-39 0 -65 17.5t-39 46t-13 61.5q0 37 17.5 71.5t53 57t89.5 22.5q41 0 62.5 -18.5t21.5 -43.5q0 -16 -9.5 -25.5t-21.5 -9.5
q-10 0 -17.5 5.5t-11.5 14.5q-4 12 -14 22t-33 10q-29 0 -49 -17.5t-31 -44t-11 -52.5q0 -33 17 -58.5t53 -25.5q19 0 29.5 9.5t10.5 25.5q0 14 -13 22.5t-35 8.5q-33 0 -57 -15.5t-37.5 -41.5t-13.5 -58q0 -34 22 -66t69.5 -52.5t124.5 -20.5q70 0 115.5 22t67.5 57t22 71
q0 37 -23.5 65t-69.5 28q-25 0 -38.5 -13t-13.5 -32q0 -13 6 -23t22 -10q8 0 12 4.5t7 8.5q4 5 9 10t14 5q17 0 24.5 -8t7.5 -21q0 -22 -16.5 -34.5t-39.5 -12.5q-31 0 -54.5 19.5t-23.5 58.5q0 45 33.5 75t93.5 30h66q50 0 73 20t23 46q0 18 -12 30t-32 12q-9 0 -13 -4.5
t-4 -10.5q0 -11 8 -18q9 -7 9 -17t-8 -17.5t-20 -7.5q-17 0 -26 13.5t-9 29.5q0 20 14 38t50 18q38 0 58 -21.5t20 -54.5q0 -28 -15 -54.5t-43.5 -44t-67.5 -18.5q-10 0 -12.5 -1.5t0.5 -6.5q14 -22 19.5 -44.5t5.5 -45.5q0 -60 -34.5 -109.5t-92.5 -79t-131 -29.5z" />
  </g>

</svg>
