<?xml version="1.0" standalone="no"?>
<!DOCTYPE svg PUBLIC "-//W3C//DTD SVG 1.1//EN" "http://www.w3.org/Graphics/SVG/1.1/DTD/svg11.dtd" >
<svg xmlns="http://www.w3.org/2000/svg" xmlns:xlink="http://www.w3.org/1999/xlink" version="1.1" viewBox="-10 0 1017 1000">
  <g transform="matrix(1 0 0 -1 0 800)">
   <path fill="currentColor"
d="M321 476q9 0 9 -8q0 -2 -0.5 -4t-2.5 -4q-11 -19 -22 -37.5t-21 -35.5h673q9 0 11.5 -5t2.5 -9q-2 -7 -5.5 -16t-10 -14.5t-14.5 -5.5h-693q-8 -10 -16 -19t-16 -16q-11 -11 0 -22q8 -8 15 -16t15 -16h711q9 0 11.5 -5t2.5 -9q-2 -8 -5.5 -16.5t-10 -14t-14.5 -5.5h-660
q11 -19 22 -39t24 -41q3 -7 1 -11.5t-8 -4.5q-8 0 -17 4.5t-13 9.5q-24 24 -46 45t-45 40t-50 37t-61 37q-15 8 -15 16q0 5 2.5 7.5t12.5 8.5q33 16 60 33.5t50.5 36.5t46 40t46.5 45q4 4 12.5 9t17.5 5z" />
  </g>

</svg>
