<?xml version="1.0" standalone="no"?>
<!DOCTYPE svg PUBLIC "-//W3C//DTD SVG 1.1//EN" "http://www.w3.org/Graphics/SVG/1.1/DTD/svg11.dtd" >
<svg xmlns="http://www.w3.org/2000/svg" xmlns:xlink="http://www.w3.org/1999/xlink" version="1.1" viewBox="-10 0 454 1000">
  <g transform="matrix(1 0 0 -1 0 800)">
   <path fill="currentColor"
d="M161 -186q-4 0 -8 5t-4 10v629q-17 -11 -35.5 -21t-37.5 -21q-2 -1 -4 -1.5t-4 -0.5q-8 0 -8 9q0 8 5 17t9 13q24 24 44.5 46.5t39.5 46t36.5 50.5t34.5 60q5 10 8 12.5t8 2.5q8 0 16 -16q19 -33 37.5 -60t37.5 -49.5t39.5 -45t44.5 -47.5q4 -4 9 -12.5t5 -16.5
q0 -7 -4.5 -8.5t-11.5 1.5q-23 10 -42.5 21.5t-37.5 22.5v-616q0 -9 -7 -16t-16.5 -11t-14.5 -4q-4 0 -8 5t-4 10v668q-9 8 -17 15.5t-15 14.5q-7 8 -12.5 6.5t-9.5 -6.5q-7 -7 -16 -15.5t-19 -16.5v-650q0 -9 -7 -16t-16.5 -11t-14.5 -4z" />
  </g>

</svg>
