<?xml version="1.0" standalone="no"?>
<!DOCTYPE svg PUBLIC "-//W3C//DTD SVG 1.1//EN" "http://www.w3.org/Graphics/SVG/1.1/DTD/svg11.dtd" >
<svg xmlns="http://www.w3.org/2000/svg" xmlns:xlink="http://www.w3.org/1999/xlink" version="1.1" viewBox="-10 0 782 1000">
  <g transform="matrix(1 0 0 -1 0 800)">
   <path fill="currentColor"
d="M303 -143q-91 0 -153 30.5t-93.5 83.5t-31.5 119q0 62 22 123.5t63.5 116.5t97.5 97t126 66t148 24q62 0 111 -19t83.5 -51t52.5 -71t18 -79q0 -47 -20 -95t-55.5 -86.5t-85 -62.5t-107.5 -24q-22 0 -33 9t-14 21.5t-3 22.5q0 9 -3.5 8.5t-11.5 -5.5q-8 -6 -26.5 -17
t-42.5 -20.5t-52 -9.5q-53 0 -79.5 29.5t-26.5 71.5q1 40 22 81t59 74t90.5 53t116.5 20q15 -1 29.5 -3t28.5 -7q11 -2 16 -4t9 -2q9 -1 17 9.5t16 10.5q2 0 8.5 -1t12 -3.5t3.5 -4.5q-14 -20 -26 -41t-18 -34l-74 -154q-9 -18 -9 -35.5t24 -17.5q52 0 92 31t62.5 80
t22.5 100q0 50 -25.5 91.5t-76.5 66t-126 24.5q-66 0 -132 -28t-121 -78t-88 -115.5t-33 -141.5q0 -70 29 -116t83 -68.5t128 -22.5q69 0 127.5 19t106.5 53q8 6 16 9t13 3q7 0 10 -3.5t2 -10.5q-3 -10 -28 -29t-67 -39t-95 -34t-109 -14zM329 79q18 0 34 7t33 18
q11 6 21 16.5t21 32.5l54 112q5 11 8 19.5t3 15.5q0 17 -14.5 24.5t-49.5 7.5q-39 0 -71 -17t-54 -43.5t-34 -58t-12 -59.5q0 -32 16 -53.5t45 -21.5z" />
  </g>

</svg>
