<?xml version="1.0" standalone="no"?>
<!DOCTYPE svg PUBLIC "-//W3C//DTD SVG 1.1//EN" "http://www.w3.org/Graphics/SVG/1.1/DTD/svg11.dtd" >
<svg xmlns="http://www.w3.org/2000/svg" xmlns:xlink="http://www.w3.org/1999/xlink" version="1.1" viewBox="-53 0 348 1000">
  <g transform="matrix(1 0 0 -1 0 800)">
   <path fill="currentColor"
d="M48 -142q-26 0 -47 12t-32.5 33t-11.5 48q0 35 15 66t41 54.5t59.5 37t69.5 13.5q22 0 46.5 -7.5t35.5 -25.5q1 -2 1.5 -4.5t-0.5 -4.5q-3 -11 -16 -22.5t-25 -11.5q-5 0 -8 3.5t-5 7.5q-6 18 -17.5 27.5t-30.5 9.5q-26 0 -47 -21.5t-33 -51t-12 -55.5q-1 -27 15 -42
t43 -15q21 0 36.5 8.5t34.5 19.5q5 3 11 3q3 0 7.5 -3.5t3.5 -8.5q-1 -4 -4.5 -8t-6.5 -9q-15 -19 -49 -36t-74 -17z" />
  </g>

</svg>
