<?xml version="1.0" standalone="no"?>
<!DOCTYPE svg PUBLIC "-//W3C//DTD SVG 1.1//EN" "http://www.w3.org/Graphics/SVG/1.1/DTD/svg11.dtd" >
<svg xmlns="http://www.w3.org/2000/svg" xmlns:xlink="http://www.w3.org/1999/xlink" version="1.1" viewBox="-10 0 606 1000">
  <g transform="matrix(1 0 0 -1 0 800)">
   <path fill="currentColor"
d="M266 -11q-54 0 -102 22.5t-78 63.5t-30 95q0 68 27.5 121t74 90.5t104.5 57.5t120 20q22 0 41.5 -3.5t33.5 -8.5q15 -4 23.5 -8t13.5 -4q4 0 8 2t8 5q6 3 10.5 5.5t8.5 2.5q9 0 9.5 -7t-3.5 -13q-7 -11 -16.5 -29.5t-18 -38t-12.5 -35.5q-2 -9 -8 -16t-16 -7
q-8 0 -10.5 8.5t-1.5 19.5q3 19 1.5 36.5t-9.5 28.5q-8 12 -24.5 22t-36.5 10q-47 0 -87 -24t-69.5 -63t-45.5 -85.5t-16 -91.5q0 -43 19.5 -76t49.5 -51.5t63 -18.5q22 0 42.5 12.5t37.5 31.5t28 39q6 10 11 14.5t8 4.5q4 0 6.5 -4.5t2.5 -11.5q-2 -9 -7.5 -28t-13.5 -38.5
t-15.5 -33.5t-11.5 -15q-5 0 -8.5 2t-6.5 4q-4 3 -8 5.5t-10 2.5q-3 0 -9 -1.5l-14 -3.5q-11 -3 -28 -6.5t-35 -3.5zM422 534q-8 0 -11.5 8t-8.5 26q-4 16 -8.5 36.5t-8.5 41.5t-6.5 38t-3.5 25q-1 9 1.5 18.5t10.5 9.5q11 0 21 -22q6 -15 16.5 -38.5t20.5 -46.5q3 -7 10 0
q23 23 48 46.5t41 39.5q10 8 18.5 14.5t13.5 6.5q10 0 10 -10q0 -5 -2.5 -10.5t-7.5 -11.5q-11 -15 -30 -39t-39 -48.5t-34 -41.5t-28 -29.5t-23 -12.5z" />
  </g>

</svg>
