<?xml version="1.0" standalone="no"?>
<!DOCTYPE svg PUBLIC "-//W3C//DTD SVG 1.1//EN" "http://www.w3.org/Graphics/SVG/1.1/DTD/svg11.dtd" >
<svg xmlns="http://www.w3.org/2000/svg" xmlns:xlink="http://www.w3.org/1999/xlink" version="1.1" viewBox="-10 0 429 1000">
  <g transform="matrix(1 0 0 -1 0 800)">
   <path fill="currentColor"
d="M330 748q-3 0 -6 3t-8 7q-18 23 -37 47.5t-38 48.5q-9 9 -6 18q1 7 16.5 10.5t26.5 1.5q8 0 14 -4t8 -10q10 -26 20.5 -51t17.5 -51q2 -10 2 -14q-1 -2 -4 -4.5t-6 -1.5zM241 442q-40 0 -63 24.5t-23 63.5q0 50 23.5 89.5t63 63t87.5 23.5q33 0 56.5 -18.5t23.5 -47.5
q0 -23 -9 -34.5t-28 -11.5l-131 -1q-10 0 -13 -11q-2 -9 -3.5 -16t-1.5 -17q0 -23 14 -40t41 -17q19 0 35 6.5t34 20.5q7 6 13 6q4 0 9 -5t4 -10q-1 -3 -5 -8t-9 -11q-16 -16 -47 -32.5t-71 -16.5zM256 623h78q11 0 16 7t5 19q0 10 -6.5 21.5t-25.5 11.5q-25 0 -47 -18
t-27 -34q-3 -7 7 -7z" />
  </g>

</svg>
