<?xml version="1.0" standalone="no"?>
<!DOCTYPE svg PUBLIC "-//W3C//DTD SVG 1.1//EN" "http://www.w3.org/Graphics/SVG/1.1/DTD/svg11.dtd" >
<svg xmlns="http://www.w3.org/2000/svg" xmlns:xlink="http://www.w3.org/1999/xlink" version="1.1" viewBox="-57 0 242 1000">
  <g transform="matrix(1 0 0 -1 0 800)">
   <path fill="currentColor"
d="M20 -26q-6 0 -7 6.5t1 19.5q6 38 12.5 75.5t13 70t13.5 53.5q5 18 19.5 32.5t32.5 15.5q18 0 23.5 -14t-0.5 -32q-12 -40 -36 -92t-50 -109q-5 -11 -10.5 -18.5t-11.5 -7.5zM-18 -150q-15 0 -23 10t-5 25q3 17 19 30t33 13q15 0 23.5 -10.5t4.5 -25.5q-3 -17 -18.5 -29.5
t-33.5 -12.5z" />
  </g>

</svg>
