<?xml version="1.0" standalone="no"?>
<!DOCTYPE svg PUBLIC "-//W3C//DTD SVG 1.1//EN" "http://www.w3.org/Graphics/SVG/1.1/DTD/svg11.dtd" >
<svg xmlns="http://www.w3.org/2000/svg" xmlns:xlink="http://www.w3.org/1999/xlink" version="1.1" viewBox="-10 0 301 1000">
  <g transform="matrix(1 0 0 -1 0 800)">
   <path fill="currentColor"
d="M124 136q-9 0 -13.5 9.5t-1.5 29.5q8 51 18.5 101.5t20.5 93t16 68.5q7 31 24 47t45 16q17 0 28.5 -8t15 -24t-5.5 -39q-4 -15 -16.5 -45.5t-29.5 -68.5t-34.5 -76.5t-32.5 -70.5q-8 -16 -16.5 -24.5t-17.5 -8.5zM76 -45q-22 0 -37.5 16.5t-15.5 37.5q0 30 23 52t55 22
q24 0 39 -17t15 -38q0 -30 -24 -51.5t-55 -21.5z" />
  </g>

</svg>
