<?xml version="1.0" standalone="no"?>
<!DOCTYPE svg PUBLIC "-//W3C//DTD SVG 1.1//EN" "http://www.w3.org/Graphics/SVG/1.1/DTD/svg11.dtd" >
<svg xmlns="http://www.w3.org/2000/svg" xmlns:xlink="http://www.w3.org/1999/xlink" version="1.1" viewBox="-10 0 699 1000">
  <g transform="matrix(1 0 0 -1 0 800)">
   <path fill="currentColor"
d="M73 270q-7 0 -12 3t-5 7q0 10 6.5 22.5t16.5 12.5q6 0 13.5 -3t13.5 -5t12.5 -3.5t11.5 -1.5q20 0 41.5 14t35.5 35t14 40q0 28 -24.5 47.5t-63.5 32.5q-8 2 -9.5 9t-0.5 13q4 12 12.5 27.5t18 31t15.5 25.5t13.5 15.5t17.5 7.5q18 4 39 7.5t43 6t42 2.5q7 0 4 -11
q0 -4 -6.5 -15.5t-16.5 -21.5t-21 -11q-14 -2 -32.5 -2.5t-34 -0.5t-22.5 -1q-15 -2 -18 -8l-6 -10q-6 -12 5 -16q53 -17 84.5 -41.5t31.5 -60.5q0 -33 -20.5 -59.5t-53.5 -46.5t-71 -30.5t-74 -10.5zM27 -26q-9 0 -14 7.5t1 13.5l606 659q10 10 20 13t21 3q13 0 16.5 -7
t-2.5 -13l-606 -658q-9 -11 -19.5 -14.5t-22.5 -3.5zM411 -32q-41 0 -66.5 18t-25.5 49q0 30 19.5 49.5t46.5 32.5t47 22q5 3 4 4t-3 5q-14 17 -28 35t-14 41q0 32 20.5 54t51 33t60.5 11q40 0 61.5 -19t21.5 -44q0 -20 -14 -39t-36 -31q-10 -5 -19 -9t-19 -10
q-8 -4 -8.5 -6.5t3.5 -6.5q21 -15 34.5 -38.5t13.5 -46.5q0 -31 -22 -54.5t-56.5 -36.5t-71.5 -13zM421 -13q31 0 50.5 22.5t19.5 48.5q0 18 -11 36.5t-25 30.5q-5 5 -8.5 5t-8.5 -3q-26 -17 -38.5 -41.5t-12.5 -51.5q0 -18 8 -32.5t26 -14.5zM497 178q25 15 39 41t14 47
q0 16 -7.5 26.5t-23.5 10.5q-26 0 -45 -17.5t-19 -40.5t10 -36.5t25 -29.5q5 -3 7 -1z" />
  </g>

</svg>
