<?xml version="1.0" standalone="no"?>
<!DOCTYPE svg PUBLIC "-//W3C//DTD SVG 1.1//EN" "http://www.w3.org/Graphics/SVG/1.1/DTD/svg11.dtd" >
<svg xmlns="http://www.w3.org/2000/svg" xmlns:xlink="http://www.w3.org/1999/xlink" version="1.1" viewBox="-108 0 924 1000">
  <g transform="matrix(1 0 0 -1 0 800)">
   <path fill="currentColor"
d="M342 -290q-26 0 -44.5 16.5t-18.5 41.5l57 70q10 -29 27.5 -43t35.5 -14q33 0 68.5 39.5t63.5 99.5q21 43 29 99t8 122q0 109 -28 168t-87 57q-15 0 -35.5 -6.5t-41 -21.5t-35.5 -42l-17 10q5 18 19.5 38.5t36 37.5t47 28t51.5 11q56 0 90.5 -26t53 -71.5t23.5 -108
t1 -135.5q-1 -18 3.5 -17t11.5 14q34 64 55.5 146t21.5 185q0 6 9.5 13.5t14.5 7.5q6 0 16.5 -6.5t19 -18t8.5 -26.5q0 -62 -32.5 -145.5t-91 -177t-135.5 -185.5q-37 -43 -75 -79.5t-72 -58.5t-58 -22zM150 -258q36 0 60.5 9.5t37.5 25t13 33.5q0 13 -8.5 28.5t-28.5 26.5
q-12 9 -35 23.5t-36 20.5q-15 8 -24 8q-6 0 -11.5 -1t-11.5 -3q-56 -17 -88 -38.5t-32 -53.5q0 -22 22.5 -39.5t59.5 -28.5t82 -11zM116 -290q-60 0 -108.5 13.5t-77 37.5t-28.5 57q0 25 29 46t74 39t93 33q10 3 2 9q-21 16 -35.5 31.5t-14.5 32.5t17.5 33t43.5 33
q5 5 7.5 8t2.5 4q0 4 -9 7q-19 10 -33 23.5t-21 32.5t-7 42q0 34 15 73t41.5 74.5t64.5 58.5t83 23q49 0 77 -30.5t28 -80.5q0 -39 -15.5 -79t-42.5 -73.5t-61.5 -54t-72.5 -20.5q-7 0 -14 -2t-12 -6q-10 -12 -10 -25q0 -15 10 -27t32 -27q18 -12 42 -27.5t48 -30.5t41 -27
q22 -16 32.5 -31.5t10.5 -32.5q0 -27 -21.5 -51.5t-56 -44t-75 -30.5t-79.5 -11zM160 113q18 -1 36.5 16.5t36 45.5t31 60t21.5 62t8 49q0 17 -9 31t-23 14q-18 0 -36.5 -16t-36 -42.5t-31.5 -57.5t-22.5 -61.5t-8.5 -54.5q0 -20 10.5 -33t23.5 -13z" />
  </g>

</svg>
