<?xml version="1.0" standalone="no"?>
<!DOCTYPE svg PUBLIC "-//W3C//DTD SVG 1.1//EN" "http://www.w3.org/Graphics/SVG/1.1/DTD/svg11.dtd" >
<svg xmlns="http://www.w3.org/2000/svg" xmlns:xlink="http://www.w3.org/1999/xlink" version="1.1" viewBox="-10 0 603 1000">
  <g transform="matrix(1 0 0 -1 0 800)">
   <path fill="currentColor"
d="M80 0q-9 -4 -16.5 -0.5t-7.5 17.5q0 11 8.5 24t24.5 20l367 169q3 2 2.5 4t-3.5 3l-372 169q-14 8 -21 24t-7 25q0 5 3.5 10.5t9.5 5.5q1 0 2 -0.5t2 -0.5l426 -198q14 -6 29 -14.5t15 -13.5q0 -7 -9.5 -24t-26.5 -24z" />
  </g>

</svg>
