<?xml version="1.0" standalone="no"?>
<!DOCTYPE svg PUBLIC "-//W3C//DTD SVG 1.1//EN" "http://www.w3.org/Graphics/SVG/1.1/DTD/svg11.dtd" >
<svg xmlns="http://www.w3.org/2000/svg" xmlns:xlink="http://www.w3.org/1999/xlink" version="1.1" viewBox="-10 0 296 1000">
  <g transform="matrix(1 0 0 -1 0 800)">
   <path fill="currentColor"
d="M158 694q-9 0 -15 10t-6 19q0 16 10.5 24t23.5 15q12 6 22.5 14t10.5 21q0 7 -5.5 11.5t-13.5 4.5q-14 0 -27 -10.5t-27 -26.5q-6 -5 -12 -9.5t-13 -4.5t-12 11t-5 20q0 8 9 18.5t15 13.5q19 8 41.5 15.5t53.5 7.5q30 0 49 -13t19 -34q0 -24 -18 -36.5t-39 -19.5
q-16 -6 -25.5 -11t-10.5 -14v-7v-7q0 -6 -9 -9t-16 -3z" />
  </g>

</svg>
