<?xml version="1.0" standalone="no"?>
<!DOCTYPE svg PUBLIC "-//W3C//DTD SVG 1.1//EN" "http://www.w3.org/Graphics/SVG/1.1/DTD/svg11.dtd" >
<svg xmlns="http://www.w3.org/2000/svg" xmlns:xlink="http://www.w3.org/1999/xlink" version="1.1" viewBox="-41 0 466 1000">
  <g transform="matrix(1 0 0 -1 0 800)">
   <path fill="currentColor"
d="M-14 -2q-6 0 -11.5 3t-4.5 9q2 8 10.5 12t16.5 5q26 4 45.5 14t27.5 35l87 284q9 28 2 42t-35 20q-8 2 -13 6.5t-3 12.5q2 6 10 9t13 3q19 0 36 -1t34 -2.5t34 -1.5t35 1.5t37.5 2.5t36.5 1q6 0 11.5 -3.5t3.5 -9.5q-2 -7 -10 -11.5t-18 -6.5q-22 -4 -36 -12.5t-21.5 -20
t-14.5 -30.5l-87 -282q-7 -24 6 -34t35 -16q7 -1 13 -5t4 -12q-2 -6 -9.5 -9t-13.5 -3q-17 0 -35.5 1t-37 2.5t-37.5 1.5t-37.5 -1.5t-37 -2.5t-36.5 -1zM344 528q-17 0 -28.5 13t-11.5 32t9.5 35t25 25.5t34.5 9.5q20 0 31 -14t11 -33q0 -26 -20.5 -47t-50.5 -21zM164 528
q-18 0 -29.5 13t-11.5 32t9.5 35t25.5 25.5t35 9.5t30 -14t11 -33q0 -26 -20.5 -47t-49.5 -21z" />
  </g>

</svg>
