<?xml version="1.0" standalone="no"?>
<!DOCTYPE svg PUBLIC "-//W3C//DTD SVG 1.1//EN" "http://www.w3.org/Graphics/SVG/1.1/DTD/svg11.dtd" >
<svg xmlns="http://www.w3.org/2000/svg" xmlns:xlink="http://www.w3.org/1999/xlink" version="1.1" viewBox="-10 0 783 1000">
  <g transform="matrix(1 0 0 -1 0 800)">
   <path fill="currentColor"
d="M193 12q-48 0 -84.5 26t-56.5 68t-20 90q0 51 23.5 97.5t65.5 76.5t95 30q44 0 75.5 -16t57 -45.5t50.5 -69.5q4 -6 8 -4t7 8q15 27 36.5 56.5t53 50t77.5 20.5q48 0 84 -26t56 -68t20 -89q0 -51 -23.5 -98t-64.5 -77t-96 -30q-41 0 -73.5 16.5t-58.5 46.5t-51 69
q-7 12 -15 -3q-14 -26 -35.5 -56t-53 -51.5t-77.5 -21.5zM207 92q48 0 78.5 19.5t56.5 51.5q6 7 6 12q0 4 -2.5 8.5t-7.5 10.5q-20 29 -44 58t-51.5 48t-58.5 19t-58 -15t-43 -40t-16 -56q0 -35 20 -61t52.5 -40.5t67.5 -14.5zM593 90q31 0 57 15.5t41.5 41.5t15.5 56
q0 35 -20.5 61.5t-52.5 41t-68 14.5q-48 0 -77 -20t-55 -51q-6 -6 -6 -12q0 -4 3 -9t7 -10q20 -29 44 -58.5t52 -49.5t59 -20z" />
  </g>

</svg>
