<?xml version="1.0" standalone="no"?>
<!DOCTYPE svg PUBLIC "-//W3C//DTD SVG 1.1//EN" "http://www.w3.org/Graphics/SVG/1.1/DTD/svg11.dtd" >
<svg xmlns="http://www.w3.org/2000/svg" xmlns:xlink="http://www.w3.org/1999/xlink" version="1.1" viewBox="-10 0 495 1000">
  <g transform="matrix(1 0 0 -1 0 800)">
   <path fill="currentColor"
d="M61 -14q-17 0 -33 15.5t-16 32.5q0 7 3 15l182 527q8 21 8 34.5t-6 23.5q-4 7 -11.5 14t-17.5 11q-7 3 -10 7t0 7q8 4 18 7.5t19.5 6.5t15.5 4q14 4 35 8t39 6.5t24 2.5q5 0 8.5 -4.5t3.5 -12.5q-1 -6 -3.5 -15t-5.5 -18l-195 -557q-2 -7 -3 -13t-1 -11q0 -15 11 -15
q12 0 30.5 13.5t37 33t30.5 35.5q5 6 11 11.5t9 5.5q5 0 6 -4.5t1 -9.5q0 -19 -13.5 -40.5t-36.5 -43t-48.5 -39t-50 -28t-41.5 -10.5zM353 499q-6 0 -6 8q0 4 2 8.5t5 9.5q10 24 18 52.5t15 70.5q3 12 16.5 25.5t31 23.5t30.5 10q6 0 8 -6.5t2 -12.5q0 -22 -11 -47.5
t-27.5 -50.5t-34 -45.5t-31 -33t-18.5 -12.5z" />
  </g>

</svg>
