<?xml version="1.0" standalone="no"?>
<!DOCTYPE svg PUBLIC "-//W3C//DTD SVG 1.1//EN" "http://www.w3.org/Graphics/SVG/1.1/DTD/svg11.dtd" >
<svg xmlns="http://www.w3.org/2000/svg" xmlns:xlink="http://www.w3.org/1999/xlink" version="1.1" viewBox="-206 0 1047 1000">
  <g transform="matrix(1 0 0 -1 0 800)">
   <path fill="currentColor"
d="M-96 -290q-49 0 -74.5 16.5t-25.5 42.5q0 18 15 32.5t28 14.5q9 0 17.5 -10.5t18.5 -22.5q9 -12 21.5 -21.5t30.5 -9.5q23 0 42.5 27.5t37 76t33.5 111.5l59 227q21 84 46.5 160t56 140t67 111.5t80.5 73.5t97 26q35 0 62.5 -11.5t44 -30.5t17.5 -41l-42 -58
q-17 53 -43 74t-61 21q-37 0 -65 -22.5t-51.5 -65t-42.5 -101t-38.5 -129.5t-40.5 -152l-61 -228q-14 -51 -37 -96.5t-53 -80t-65 -54.5t-74 -20zM398 -17q-6 0 -13 5t-12 12.5t-5 16.5q0 16 3.5 31.5t9.5 36.5l139 466q5 17 9 35.5t4 29.5t-12.5 16.5t-24.5 9.5
q-7 3 -13 5.5t-6 7.5q0 4 3.5 8t17.5 9q9 3 26.5 9t37.5 12t36.5 10t22.5 4t13 -1t7 -10q0 -10 -2 -17t-4 -15l-137 -454q-2 -7 1 -7t6 4q41 63 86.5 112.5t88 78t75.5 28.5q36 0 54.5 -23.5t18.5 -55.5q0 -51 -17 -105t-44.5 -103t-59.5 -85q-7 -7 -21.5 -18.5t-33.5 -22.5
t-37.5 -19t-31.5 -8q-9 0 -20 6.5t-19 16.5t-8 17q0 5 4.5 13.5t11.5 15.5t14 7q9 0 15.5 -4t11.5 -10q7 -6 13.5 -10.5t15.5 -4.5q14 0 30.5 20t32 53t27 72t19 77.5t7.5 69.5q0 21 -8.5 32.5t-25.5 11.5q-19 0 -43.5 -21t-52 -56t-55 -76t-51.5 -80.5t-41 -69.5
q-23 -42 -36.5 -62.5t-26.5 -20.5z" />
  </g>

</svg>
