<?xml version="1.0" standalone="no"?>
<!DOCTYPE svg PUBLIC "-//W3C//DTD SVG 1.1//EN" "http://www.w3.org/Graphics/SVG/1.1/DTD/svg11.dtd" >
<svg xmlns="http://www.w3.org/2000/svg" xmlns:xlink="http://www.w3.org/1999/xlink" version="1.1" viewBox="-206 0 1290 1000">
  <g transform="matrix(1 0 0 -1 0 800)">
   <path fill="currentColor"
d="M-96 -290q-49 0 -74.5 16.5t-25.5 42.5q0 18 15 32.5t28 14.5q9 0 17.5 -10.5t18.5 -22.5q9 -12 21.5 -21.5t30.5 -9.5q23 0 42.5 27.5t37 76t33.5 111.5l59 227q27 105 59.5 195t72.5 157.5t92.5 105.5t117.5 38q35 0 63 -11.5t44 -30.5t17 -42l-42 -58q-16 54 -42 75
t-61 21q-46 0 -78.5 -33t-58 -94t-48 -144t-49.5 -184l-61 -228q-14 -51 -37 -96.5t-53 -80t-65 -54.5t-74 -20zM310 -95l76 289q26 105 58.5 195.5t73 159t93 107t117.5 38.5q35 0 63 -11.5t44 -30.5t17 -42l-42 -58q-16 54 -42 75t-61 21q-46 0 -78.5 -33.5t-57.5 -95
t-47.5 -145.5t-50.5 -185l-63 -232q-25 -89 -70.5 -143.5t-98 -79t-99.5 -24.5q-37 0 -65.5 11.5t-45 30.5t-16.5 41l45 61q17 -54 42.5 -76.5t61.5 -22.5q55 0 89.5 37.5t56.5 112.5zM754 -10q-46 0 -72 24.5t-26 66.5q0 24 5.5 52.5t16.5 59.5l120 370q6 18 8.5 31t2.5 25
q0 7 -6.5 11.5t-21.5 9.5q-28 8 -28 16q0 5 4 8.5t16 7.5q13 5 33.5 11t41 11.5t36.5 9t21 3.5q19 0 19 -11q0 -10 -1.5 -17.5t-6.5 -18.5q-9 -21 -22 -56.5t-28 -78.5t-30.5 -89.5t-31 -92t-27.5 -84.5q-3 -9 0.5 -11t9.5 7q59 79 114 122.5t94 43.5q34 0 56.5 -22.5
t22.5 -55.5q0 -47 -19 -96.5t-52 -95.5t-74.5 -82t-86.5 -57.5t-88 -21.5zM781 25q13 0 33 13.5t42.5 36.5t43.5 52q23 33 43 72t31.5 74.5t11.5 58.5q0 16 -8 26t-20 10q-27 0 -65 -32t-87 -98q-33 -47 -53.5 -87.5t-20.5 -60.5q0 -25 14.5 -45t34.5 -20z" />
  </g>

</svg>
