<?xml version="1.0" standalone="no"?>
<!DOCTYPE svg PUBLIC "-//W3C//DTD SVG 1.1//EN" "http://www.w3.org/Graphics/SVG/1.1/DTD/svg11.dtd" >
<svg xmlns="http://www.w3.org/2000/svg" xmlns:xlink="http://www.w3.org/1999/xlink" version="1.1" viewBox="-206 0 798 1000">
  <g transform="matrix(1 0 0 -1 0 800)">
   <path fill="currentColor"
d="M448 661q-42 0 -73 -23t-55.5 -65.5t-45 -101t-40 -130t-40.5 -152.5l-61 -228q-14 -51 -37 -96.5t-53 -80t-65 -54.5t-74 -20q-49 0 -74.5 16.5t-25.5 42.5q0 18 15 32.5t28 14.5q9 0 17.5 -10.5t18.5 -22.5q9 -12 21.5 -21.5t30.5 -9.5q23 0 42.5 27.5t37 76
t33.5 111.5l59 227q21 84 46.5 160t56 140t67.5 111.5t81.5 73.5t98.5 26q58 0 91.5 -20t33.5 -51q0 -25 -12.5 -41.5t-28.5 -16.5q-13 0 -20.5 13t-16.5 29q-8 20 -21 31.5t-35 11.5zM168 -291q-40 0 -62 15.5t-21 31.5q0 12 7 22.5t17 17.5t19 7q12 0 20.5 -8t16.5 -17
t18.5 -16t26.5 -7q27 0 45 29.5t34 76.5l136 419q6 20 3.5 28.5t-11.5 8.5t-24.5 -6.5t-35.5 -16.5q-6 -2 -12 -0.5t-6 7.5q0 5 3.5 8.5l9.5 9.5q22 19 44 34t44 26t42.5 20.5t39.5 19.5q12 5 24.5 -6.5t8.5 -22.5q-9 -24 -19.5 -52.5t-21.5 -59.5l-126 -384
q-12 -34 -38 -67t-59.5 -60t-65.5 -42.5t-57 -15.5z" />
  </g>

</svg>
