<?xml version="1.0" standalone="no"?>
<!DOCTYPE svg PUBLIC "-//W3C//DTD SVG 1.1//EN" "http://www.w3.org/Graphics/SVG/1.1/DTD/svg11.dtd" >
<svg xmlns="http://www.w3.org/2000/svg" xmlns:xlink="http://www.w3.org/1999/xlink" version="1.1" viewBox="-10 0 814 1000">
  <g transform="matrix(1 0 0 -1 0 800)">
   <path fill="currentColor"
d="M84 -16q-7 0 -14.5 5.5t-12.5 14.5t-5 19q0 5 5 20t13 37l97 245q4 12 0 20t-15 8q-14 0 -32 -6.5t-43 -36.5q-4 -4 -9.5 -3.5t-6.5 7.5q0 7 3.5 17.5t9.5 21t12 16.5q19 21 44.5 36t64.5 16q17 0 31 -7.5t19.5 -23t-3.5 -36.5l-57 -143q-3 -7 1.5 -8t8.5 5
q41 65 79 112.5t74.5 74t72.5 26.5q26 0 42 -15.5t19.5 -41.5t-10.5 -59l-28 -79q-3 -7 2 -8t9 4q38 62 75.5 106.5t75 68.5t72.5 24q26 0 41 -16t17 -43t-13 -63l-80 -201q-14 -34 5 -34q10 0 24.5 9t30.5 22t28 24.5t16 15.5q3 3 5 4.5t4 1.5q3 0 6 -3t3 -7q0 -9 -4 -18
t-14 -19q-37 -42 -83 -75t-97 -33q-8 0 -18.5 6.5t-16.5 17.5t-1 22l123 300q8 19 0.5 28.5t-17.5 10.5q-15 1 -39 -17t-53 -57q-17 -22 -43 -61t-53.5 -83.5t-50.5 -84.5q-15 -28 -31 -46.5t-29 -28t-22 -9.5q-6 0 -13 5.5t-11.5 13t-4.5 14.5q0 6 5.5 23t13.5 41l98 254
q9 21 0.5 29.5t-16.5 9.5q-15 1 -40 -18t-57 -60q-13 -17 -30.5 -43.5t-36.5 -58t-38 -64t-35 -61.5q-23 -42 -38 -63.5t-29 -21.5z" />
  </g>

</svg>
