<?xml version="1.0" standalone="no"?>
<!DOCTYPE svg PUBLIC "-//W3C//DTD SVG 1.1//EN" "http://www.w3.org/Graphics/SVG/1.1/DTD/svg11.dtd" >
<svg xmlns="http://www.w3.org/2000/svg" xmlns:xlink="http://www.w3.org/1999/xlink" version="1.1" viewBox="-13 0 471 1000">
  <g transform="matrix(1 0 0 -1 0 800)">
   <path fill="currentColor"
d="M291 476q77 0 116 -36t38 -97q-2 -50 -31.5 -105.5t-85 -108t-134 -93.5t-176.5 -62q-11 -2 -16.5 1.5t-3.5 7.5q2 9 11.5 13.5t18.5 7.5q62 19 108.5 49t88.5 71q31 30 59.5 70t46.5 83t18 84q0 39 -17.5 60.5t-48.5 21.5q-36 0 -62 -16.5t-39 -41.5t-13 -52t13.5 -46
t37.5 -19q17 0 30.5 3t27.5 9q9 4 10 -4t-10 -17q-8 -7 -16 -12.5t-15 -10.5q-8 -6 -21.5 -13.5t-30.5 -13.5t-31 -6q-26 0 -46 15t-31.5 38t-11.5 47q0 29 16.5 59t46 56t69 42t84.5 16z" />
  </g>

</svg>
