<?xml version="1.0" standalone="no"?>
<!DOCTYPE svg PUBLIC "-//W3C//DTD SVG 1.1//EN" "http://www.w3.org/Graphics/SVG/1.1/DTD/svg11.dtd" >
<svg xmlns="http://www.w3.org/2000/svg" xmlns:xlink="http://www.w3.org/1999/xlink" version="1.1" viewBox="-110 0 522 1000">
  <g transform="matrix(1 0 0 -1 0 800)">
   <path fill="currentColor"
d="M-78 -218q-8 0 -15 1.5t-7 7.5q0 9 11 13.5t26 9.5q36 10 74.5 34t74 55t65 63t47.5 60q2 6 -1 9.5t-11 1.5q-10 -3 -18 -4t-19 -1q-34 0 -57.5 18t-35.5 46t-12 58q0 50 17.5 97t48.5 85.5t73 61.5t93 23q32 0 56.5 -20.5t39 -52.5t14.5 -69q0 -63 -27.5 -131
t-75 -132.5t-107.5 -116.5t-125.5 -83.5t-128.5 -33.5zM176 63q34 0 58 28.5t39 71t21.5 87t6.5 79.5q0 24 -8.5 42t-27.5 18t-42.5 -21.5t-44 -58t-34 -84.5t-13.5 -101q0 -24 11 -42.5t34 -18.5z" />
  </g>

</svg>
