<?xml version="1.0" standalone="no"?>
<!DOCTYPE svg PUBLIC "-//W3C//DTD SVG 1.1//EN" "http://www.w3.org/Graphics/SVG/1.1/DTD/svg11.dtd" >
<svg xmlns="http://www.w3.org/2000/svg" xmlns:xlink="http://www.w3.org/1999/xlink" version="1.1" viewBox="-10 0 433 1000">
  <g transform="matrix(1 0 0 -1 0 800)">
   <path fill="currentColor"
d="M112 -14q-20 0 -43 17t-38 44.5t-15 57.5q0 48 18 103t50.5 103.5t74 79t88.5 30.5q31 0 51.5 -18.5t31.5 -47.5t11 -59q0 -35 -10.5 -77t-30 -83t-47.5 -75t-63.5 -54.5t-77.5 -20.5zM110 77q31 0 65.5 21.5t65 54t49 68t17.5 63.5q-2 22 -18.5 36.5t-41.5 14.5
q-37 0 -71.5 -20.5t-62 -52.5t-43.5 -66t-16 -61q1 -23 17 -40.5t39 -17.5zM273 460q-8 0 -8.5 7t0.5 12q3 10 12.5 31t22 46t24.5 47t18 35q6 10 12 16.5t14 6.5t18.5 -7.5t18.5 -17.5t8 -17q0 -4 -13.5 -21.5t-32.5 -41.5t-37.5 -46t-30.5 -34q-5 -6 -12 -11t-14 -5z" />
  </g>

</svg>
