<?xml version="1.0" standalone="no"?>
<!DOCTYPE svg PUBLIC "-//W3C//DTD SVG 1.1//EN" "http://www.w3.org/Graphics/SVG/1.1/DTD/svg11.dtd" >
<svg xmlns="http://www.w3.org/2000/svg" xmlns:xlink="http://www.w3.org/1999/xlink" version="1.1" viewBox="-10 0 733 1000">
  <g transform="matrix(1 0 0 -1 0 800)">
   <path fill="currentColor"
d="M69 277q-4 0 -6 3.5t-1 7.5q1 6 5 11t10 6q21 2 36 8t23 31l54 179q6 21 -5.5 30t-32.5 16q-9 3 -8 11q2 14 15 15q37 5 68.5 11t47.5 12q2 1 5 2t4 1q9 0 5 -12q-3 -9 -10 -24t-14 -37l-63 -203q-6 -24 -0.5 -29.5t31.5 -10.5q5 -2 7 -5.5t0 -9.5q-1 -5 -4.5 -8.5
t-8.5 -3.5q-18 0 -32.5 1t-26 2t-20.5 1q-14 0 -33.5 -2.5t-45.5 -2.5zM61 -26q-9 0 -14 7.5t1 13.5l606 659q10 10 20 13t21 3q13 0 16.5 -7t-2.5 -13l-606 -658q-9 -11 -19.5 -14.5t-22.5 -3.5zM552 -17q-25 2 -54 3t-55 1q-16 0 -34 -0.5t-35.5 -1t-31.5 -1.5q-5 0 -5 4
q0 7 8 12l95 80q54 45 84.5 85t30.5 64q0 19 -12.5 30t-32.5 11t-39.5 -11.5t-35.5 -29.5q-4 -4 -6.5 -6t-5.5 -2q-5 0 -5.5 3.5t0.5 9.5q8 20 28 40t49 34t60 14q33 0 54 -18t21 -51t-20 -56t-43 -47q-11 -10 -31 -26.5t-41.5 -33t-38 -28t-18.5 -13.5q-3 -2 1 -3.5t8 -1.5
h75q20 0 41.5 13.5t37.5 33.5q2 4 7 6.5t10 2.5q4 0 4.5 -4t-3.5 -8q-12 -19 -22.5 -36t-18 -30.5t-13.5 -24.5q-3 -8 -6.5 -11t-6.5 -3z" />
  </g>

</svg>
