<?xml version="1.0" standalone="no"?>
<!DOCTYPE svg PUBLIC "-//W3C//DTD SVG 1.1//EN" "http://www.w3.org/Graphics/SVG/1.1/DTD/svg11.dtd" >
<svg xmlns="http://www.w3.org/2000/svg" xmlns:xlink="http://www.w3.org/1999/xlink" version="1.1" viewBox="-10 0 328 1000">
  <g transform="matrix(1 0 0 -1 0 800)">
   <path fill="currentColor"
d="M169 241q-25 0 -46 14t-33 36t-12 48q0 38 18.5 68.5t49.5 49t67 18.5q29 0 50 -15t33 -37.5t12 -48.5q0 -37 -19 -67t-50 -48t-70 -18zM176 276q27 0 49 12.5t35 33.5t13 47q0 27 -18 49t-48 22q-25 0 -47 -13t-34.5 -34.5t-12.5 -47.5q0 -27 18 -48t45 -21z" />
  </g>

</svg>
