<?xml version="1.0" standalone="no"?>
<!DOCTYPE svg PUBLIC "-//W3C//DTD SVG 1.1//EN" "http://www.w3.org/Graphics/SVG/1.1/DTD/svg11.dtd" >
<svg xmlns="http://www.w3.org/2000/svg" xmlns:xlink="http://www.w3.org/1999/xlink" version="1.1" viewBox="-37 0 485 1000">
  <g transform="matrix(1 0 0 -1 0 800)">
   <path fill="currentColor"
d="M-1 -14q-9 0 -17.5 6.5t-8.5 14.5q1 15 12 24l53 49l32 21l244 241l32 23l53 50q3 2 6.5 4t8.5 2q8 -1 10.5 -6t3.5 -13q1 -7 -3 -15t-10 -13l-56 -54l-39 -31l-236 -238l-23 -13l-49 -47q-3 -2 -5.5 -3.5t-7.5 -1.5zM125 -14q-29 0 -54.5 16.5t-41 45t-15.5 61.5
q0 47 19 101t54 102t82 78.5t103 30.5t88 -35.5t32 -91.5q0 -45 -18.5 -98.5t-53.5 -101t-84 -78t-111 -30.5zM142 19q22 0 45 21.5t44.5 56.5t38 77t26.5 84t10 76q0 25 -8.5 39.5t-31.5 14.5q-21 0 -44 -20t-44.5 -53.5t-38.5 -74t-27 -83.5t-10 -82q0 -29 10.5 -42.5
t29.5 -13.5zM295 473q-9 0 -10 8t3 16l74 150q7 12 14 20t16 8q6 0 17 -7t20 -16t9 -18q0 -5 -5 -13.5t-15 -19.5l-97 -112q-5 -6 -12 -11t-14 -5z" />
  </g>

</svg>
