<?xml version="1.0" standalone="no"?>
<!DOCTYPE svg PUBLIC "-//W3C//DTD SVG 1.1//EN" "http://www.w3.org/Graphics/SVG/1.1/DTD/svg11.dtd" >
<svg xmlns="http://www.w3.org/2000/svg" xmlns:xlink="http://www.w3.org/1999/xlink" version="1.1" viewBox="-10 0 486 1000">
  <g transform="matrix(1 0 0 -1 0 800)">
   <path fill="currentColor"
d="M125 -14q-29 0 -54.5 16.5t-41 45t-15.5 61.5q0 47 19 101t54 102t82 78.5t103 30.5t88 -35.5t32 -91.5q0 -45 -18.5 -98.5t-53.5 -101t-84 -78t-111 -30.5zM142 19q22 0 45 21.5t44.5 56.5t38 77t26.5 84t10 76q0 25 -8.5 39.5t-31.5 14.5q-21 0 -44 -20t-44.5 -53.5
t-38.5 -74t-27 -83.5t-10 -82q0 -29 10.5 -42.5t29.5 -13.5zM199 468q-7 0 -13 5.5t-6 11.5q0 4 11 18.5t26 32t30 29.5t23 12q15 0 26 -1.5t31 -3.5q19 -1 33.5 -2.5t26.5 -1.5q19 0 35 16q11 11 15.5 17.5t8.5 6.5q7 0 13.5 -5t6.5 -13q0 -3 -5.5 -9.5t-13.5 -15.5
q-12 -13 -22.5 -28.5t-20.5 -27.5q-6 -8 -15.5 -11t-14.5 -3q-6 0 -21 1t-34 3t-38.5 3t-34.5 1q-12 0 -20 -8q-10 -10 -17 -18.5t-10 -8.5z" />
  </g>

</svg>
