<?xml version="1.0" standalone="no"?>
<!DOCTYPE svg PUBLIC "-//W3C//DTD SVG 1.1//EN" "http://www.w3.org/Graphics/SVG/1.1/DTD/svg11.dtd" >
<svg xmlns="http://www.w3.org/2000/svg" xmlns:xlink="http://www.w3.org/1999/xlink" version="1.1" viewBox="-10 0 310 1000">
  <g transform="matrix(1 0 0 -1 0 800)">
   <path fill="currentColor"
d="M62 -130q-14 28 -28 80.5t-14.5 121t21.5 142.5q15 45 39.5 87.5t54.5 79.5t60 65t55 45q12 7 23.5 7.5t13.5 -7.5q4 -2 2 -11t-13 -19q-36 -27 -68.5 -70t-58.5 -93.5t-43 -104.5q-17 -55 -22 -110.5t-0.5 -102.5t14.5 -77q3 -5 3.5 -10.5t-1.5 -10.5q-5 -14 -18 -17.5
t-20 5.5z" />
  </g>

</svg>
