<?xml version="1.0" standalone="no"?>
<!DOCTYPE svg PUBLIC "-//W3C//DTD SVG 1.1//EN" "http://www.w3.org/Graphics/SVG/1.1/DTD/svg11.dtd" >
<svg xmlns="http://www.w3.org/2000/svg" xmlns:xlink="http://www.w3.org/1999/xlink" version="1.1" viewBox="-10 0 491 1000">
  <g transform="matrix(1 0 0 -1 0 800)">
   <path fill="currentColor"
d="M43 -9q-5 0 -8 3.5t1 7.5l366 386q7 7 14.5 9.5t15.5 2.5q6 0 7.5 -4.5t-3.5 -9.5l-364 -385q-6 -6 -13 -8t-16 -2zM116 167q-41 0 -51.5 35t2.5 79q9 28 26.5 51.5t41 38t47.5 14.5q27 0 40.5 -15.5t15 -41t-6.5 -53.5q-8 -29 -25.5 -53.5t-40.5 -39.5t-49 -15zM123 184
q12 0 23.5 14t21 35t14.5 40q6 20 8 42t-0.5 37t-13.5 15t-22.5 -13t-21.5 -32.5t-16 -39.5q-5 -20 -8.5 -43t0 -39t15.5 -16zM293 -2q-41 0 -52 35t3 79q9 28 26.5 51.5t41 38t48.5 14.5q26 0 40 -16t15.5 -41t-7.5 -53q-8 -29 -25.5 -53.5t-40.5 -39.5t-49 -15zM299 15
q12 0 23.5 14t21.5 35t15 40t7.5 41t0 37.5t-13.5 15.5t-22.5 -13.5t-21.5 -33t-15 -38.5q-6 -20 -9.5 -43t-0.5 -39t15 -16z" />
  </g>

</svg>
