<?xml version="1.0" standalone="no"?>
<!DOCTYPE svg PUBLIC "-//W3C//DTD SVG 1.1//EN" "http://www.w3.org/Graphics/SVG/1.1/DTD/svg11.dtd" >
<svg xmlns="http://www.w3.org/2000/svg" xmlns:xlink="http://www.w3.org/1999/xlink" version="1.1" viewBox="-10 0 614 1000">
  <g transform="matrix(1 0 0 -1 0 800)">
   <path fill="currentColor"
d="M114 -14q-13 0 -25 6.5t-20 15t-7 13.5v18q41 54 74 107.5t57.5 99.5t37.5 76q3 6 1.5 10.5t-8.5 5.5l-31 2q-53 4 -85.5 -18.5t-35.5 -65.5q-1 -7 -3 -13t-10 -6q-7 0 -13.5 10t-6.5 24q0 40 22.5 73t69.5 53.5t119 20.5q37 0 77.5 -1.5t80 -3.5t72.5 -2q21 0 38.5 3
t29.5 10q10 7 17 16t12 9q9 0 13 -4.5t4 -14.5q0 -15 -10 -33.5t-26.5 -36.5t-38.5 -29.5t-46 -11.5q-10 0 -22 1t-23 1q-5 0 -10 -3.5t-8 -11.5q-12 -26 -23.5 -61t-22 -69t-17.5 -56q-5 -20 -1 -30t17 -10q20 0 44.5 14t46.5 36q3 3 6 5.5t4 2.5q10 0 10 -11
q0 -15 -16.5 -38.5t-41.5 -47t-51 -39.5t-46 -16q-24 0 -37 22t-5 52q5 18 17 50t26.5 69.5t28 71.5t22.5 55q3 9 0 13.5t-9 5.5l-73 6q-8 1 -13.5 -3t-9.5 -13q-25 -58 -47.5 -112t-41 -99t-32.5 -77q-8 -18 -16.5 -29.5t-14.5 -11.5z" />
  </g>

</svg>
