<?xml version="1.0" standalone="no"?>
<!DOCTYPE svg PUBLIC "-//W3C//DTD SVG 1.1//EN" "http://www.w3.org/Graphics/SVG/1.1/DTD/svg11.dtd" >
<svg xmlns="http://www.w3.org/2000/svg" xmlns:xlink="http://www.w3.org/1999/xlink" version="1.1" viewBox="-27 0 1412 1000">
  <g transform="matrix(1 0 0 -1 0 800)">
   <path fill="currentColor"
d="M1034 -298q-120 0 -238.5 28t-230.5 63q-75 24 -146 45.5t-136 35.5t-123 14q-27 0 -49 -2t-40 -5q-22 -3 -37 -6t-23 -3q-9 0 -18.5 4.5t-9.5 13.5q0 10 8 17.5t20 12.5q25 9 60.5 21t73 26t65.5 27q10 4 10 7.5t-10 4.5q-75 10 -120.5 57t-45.5 118q0 58 23.5 108.5
t65 88.5t96.5 59.5t117 21.5q51 0 94 -23.5t68.5 -65t25.5 -92.5q0 -68 -28 -118.5t-76 -88t-106 -66.5q-21 -9 -56 -23l-75 -30q-3 -1 2.5 -3.5t19.5 -2.5q70 0 148.5 -14.5t159.5 -37.5t159 -49q75 -24 145 -47.5t143 -39t154 -15.5q65 0 107 15t62.5 37.5t20.5 43.5
q0 18 -5 26.5t-11 16.5q-7 8 -13.5 16t-6.5 20q0 17 14 27t28 10q21 0 38 -18t17 -58q0 -56 -39 -95.5t-115 -60.5t-187 -21zM258 33q36 0 68 25t56.5 66t39.5 89t15 94q0 31 -12.5 58.5t-34 43.5t-50.5 16q-45 0 -81.5 -24.5t-62 -65t-39 -89t-13.5 -96.5q0 -33 16.5 -60
t42.5 -42t55 -15z" />
  </g>

</svg>
