<?xml version="1.0" standalone="no"?>
<!DOCTYPE svg PUBLIC "-//W3C//DTD SVG 1.1//EN" "http://www.w3.org/Graphics/SVG/1.1/DTD/svg11.dtd" >
<svg xmlns="http://www.w3.org/2000/svg" xmlns:xlink="http://www.w3.org/1999/xlink" version="1.1" viewBox="-10 0 406 1000">
  <g transform="matrix(1 0 0 -1 0 800)">
   <path fill="currentColor"
d="M155 176q-4 0 -15.5 14.5t-20.5 35t-9 40.5q0 29 9.5 52.5t39 46t90.5 46.5q43 18 72.5 45.5t29.5 68.5q0 32 -20.5 49.5t-58.5 17.5q-13 0 -22.5 -4.5t-17.5 -7.5q-9 -3 -16 -7t-16 -4q-13 0 -21 8.5t-8 23.5q0 25 23 42.5t54 17.5q40 0 71 -22.5t49 -61.5t18 -89
q0 -34 -11.5 -60.5t-31 -46t-45.5 -32.5l-89 -43q-30 -14 -40 -28t-10 -36q0 -9 2 -18t3 -17l4 -12t2 -11t-5 -6.5t-10 -1.5zM133 -14q-20 0 -33.5 15.5t-13.5 34.5q0 29 20.5 50t48.5 21q23 0 36 -16.5t13 -35.5q0 -28 -21 -48.5t-50 -20.5z" />
  </g>

</svg>
