<?xml version="1.0" standalone="no"?>
<!DOCTYPE svg PUBLIC "-//W3C//DTD SVG 1.1//EN" "http://www.w3.org/Graphics/SVG/1.1/DTD/svg11.dtd" >
<svg xmlns="http://www.w3.org/2000/svg" xmlns:xlink="http://www.w3.org/1999/xlink" version="1.1" viewBox="-10 0 704 1000">
  <g transform="matrix(1 0 0 -1 0 800)">
   <path fill="currentColor"
d="M378 21q-64 0 -119 24t-97 66t-65.5 97.5t-23.5 118.5q0 64 24 119t66 97t97 66t119 24q63 0 118 -24t97.5 -66t66 -97t23.5 -119q0 -63 -23.5 -118.5t-66 -97.5t-98 -66t-118.5 -24zM378 61q54 0 101.5 21t83 57.5t56 85t20.5 102.5q0 53 -20.5 100.5t-56 83t-83 56
t-100.5 20.5q-54 0 -101.5 -20.5t-83 -56t-55.5 -83t-20 -100.5q0 -54 19.5 -102.5t55 -85t83 -57.5t101.5 -21zM512 172q-18 0 -37 13t-37 33.5t-32.5 44t-22.5 42.5q-2 6 -9 10t-21 4q-5 0 -9 -2.5t-4 -7.5v-79q0 -16 10.5 -22t25.5 -10q7 -2 12 -5.5t5 -9.5
q0 -5 -4.5 -8.5t-9.5 -3.5q-22 0 -37 2t-35 2q-13 0 -22.5 -1l-19 -2t-24.5 -1q-4 0 -9 4t-5 8q0 6 5 9.5t12 5.5q14 4 20.5 10t6.5 22v200q0 18 -1.5 25.5t-7.5 9.5t-16 5q-17 4 -17 15q0 12 17 10q17 -1 30.5 -3t28.5 -2q22 0 42 2t45 3q46 2 78.5 -18.5t32.5 -60.5
q0 -32 -19 -51.5t-42 -28.5q-6 -2 -4 -6t3 -8q13 -31 33 -57.5t41 -42.5t34 -16h8.5t5.5 -5q0 -13 -15.5 -21t-35.5 -8zM364 349q29 0 49.5 17.5t20.5 43.5q0 25 -17.5 39.5t-43.5 14.5q-20 0 -27 -7t-7 -20v-69q0 -12 7.5 -15.5t17.5 -3.5z" />
  </g>

</svg>
