<?xml version="1.0" standalone="no"?>
<!DOCTYPE svg PUBLIC "-//W3C//DTD SVG 1.1//EN" "http://www.w3.org/Graphics/SVG/1.1/DTD/svg11.dtd" >
<svg xmlns="http://www.w3.org/2000/svg" xmlns:xlink="http://www.w3.org/1999/xlink" version="1.1" viewBox="-10 0 335 1000">
  <g transform="matrix(1 0 0 -1 0 800)">
   <path fill="currentColor"
d="M193 489q-27 0 -45 17t-18 44q0 32 18 58t46 42t56 16t46.5 -16t18.5 -43q0 -35 -18.5 -61.5t-46.5 -41.5t-57 -15zM208 520q16 0 29.5 11.5t23 28.5t9.5 35q0 17 -10 28t-26 11t-29 -11t-21.5 -28t-8.5 -36q0 -16 9 -27.5t24 -11.5z" />
  </g>

</svg>
