<?xml version="1.0" standalone="no"?>
<!DOCTYPE svg PUBLIC "-//W3C//DTD SVG 1.1//EN" "http://www.w3.org/Graphics/SVG/1.1/DTD/svg11.dtd" >
<svg xmlns="http://www.w3.org/2000/svg" xmlns:xlink="http://www.w3.org/1999/xlink" version="1.1" viewBox="-99 0 696 1000">
  <g transform="matrix(1 0 0 -1 0 800)">
   <path fill="currentColor"
d="M329 -84q-36 0 -75 1t-80.5 2t-83.5 2t-82 1h-20.5h-16.5t-20 -0.5t-32 -0.5q-4 0 -5.5 9.5t-2 19.5l-0.5 10q2 5 14.5 16t30.5 25t36 30l303 257l2 5l-170 340q-2 4 6 12t13 8q25 0 45.5 -0.5t40 -1l39 -1t42.5 -0.5h57.5t64 0.5t51.5 1.5q34 1 56.5 2t26.5 1
q6 0 12.5 -2.5t4.5 -9.5q-5 -31 -8.5 -60.5t-10.5 -51.5q-3 -10 -8.5 -13.5t-10.5 -3.5t-7.5 3t-2.5 9q0 20 -1 36.5t-7 24.5q-9 14 -24 21t-36 7l-187 -1q-11 0 -15 -2.5t-5 -6.5q-1 -2 -0.5 -5t1.5 -6l132 -272q3 -5 -2 -13t-11 -12l-291 -246q-14 -11 -14 -19.5t16 -8.5
h165q28 0 50 4t41 15q20 12 39 31t42 47q5 6 10.5 9.5t10.5 3.5q5 -1 6 -5.5t-1 -10.5q-2 -12 -16 -36.5t-37 -62t-54 -87.5q-4 -7 -9.5 -11t-11.5 -4z" />
  </g>

</svg>
