<?xml version="1.0" standalone="no"?>
<!DOCTYPE svg PUBLIC "-//W3C//DTD SVG 1.1//EN" "http://www.w3.org/Graphics/SVG/1.1/DTD/svg11.dtd" >
<svg xmlns="http://www.w3.org/2000/svg" xmlns:xlink="http://www.w3.org/1999/xlink" version="1.1" viewBox="-143 0 627 1000">
  <g transform="matrix(1 0 0 -1 0 800)">
   <path fill="currentColor"
d="M-119 -286q-5 0 -9.5 2.5t-4.5 7.5q0 8 9 13t18 7q25 5 38 12.5t19 28.5l247 778q5 16 8 31t3 27q0 8 -9.5 12t-20.5 7q-10 4 -19 7.5t-9 8.5q0 4 2.5 7t10.5 5q11 6 32 12.5t43 12.5t40 10t25 4q6 0 12.5 -1t6.5 -10q0 -10 -1.5 -17.5t-6.5 -18.5q-4 -14 -15.5 -45.5
t-26.5 -74.5t-32 -91.5t-34 -99t-30 -95.5q-4 -12 -1 -11t9 9q30 45 66.5 83.5t75 62t74.5 23.5q28 0 50.5 -20.5t22.5 -62.5t-17.5 -89.5t-49 -93.5t-72.5 -83t-88.5 -59.5t-96.5 -22.5q-16 0 -32 4t-31 12l23 23l-70 -236q-7 -21 6 -30t38 -14q9 -1 17 -4t7 -12
q0 -5 -7.5 -8t-17.5 -3h-33t-33.5 -0.5t-28.5 -1.5q-25 -1 -52.5 -3.5t-54.5 -2.5zM182 25q14 0 34 14.5t42 37.5t42 51q22 31 41.5 68.5t30.5 73t10.5 60.5t-17.5 30q-13 3 -33 -8t-43.5 -33t-46.5 -51q-12 -11 -27 -29t-30 -38.5t-27 -41.5t-19.5 -39.5t-7.5 -30.5
q0 -28 17 -46t34 -18z" />
  </g>

</svg>
