<?xml version="1.0" standalone="no"?>
<!DOCTYPE svg PUBLIC "-//W3C//DTD SVG 1.1//EN" "http://www.w3.org/Graphics/SVG/1.1/DTD/svg11.dtd" >
<svg xmlns="http://www.w3.org/2000/svg" xmlns:xlink="http://www.w3.org/1999/xlink" version="1.1" viewBox="-10 0 723 1000">
  <g transform="matrix(1 0 0 -1 0 800)">
   <path fill="currentColor"
d="M124 267q-20 0 -37.5 5.5t-16.5 19.5q2 10 11 23.5t16 13.5t14.5 -6t16.5 -12q7 -4 16 -7.5t17 -3.5q21 0 37.5 12.5t27 31.5t10.5 39q0 19 -10.5 33.5t-31.5 14.5q-12 0 -25 -5t-16 -5q-5 0 -8.5 4t-0.5 8q8 7 18.5 11.5t21 8.5t17.5 8q32 16 51.5 32.5t19.5 37.5
q0 16 -9.5 24t-25.5 8q-19 0 -36 -7t-36 -22q-4 -2 -6.5 -4.5t-5.5 -2.5q-4 0 -5.5 4.5t-0.5 8.5q14 18 34 34t44 26t51 9q29 0 46.5 -16t17.5 -43q0 -28 -25 -49t-58 -33q-3 -1 -3.5 -2.5t1.5 -1.5q25 0 39.5 -19t14.5 -43q0 -27 -18 -51.5t-46.5 -43t-60.5 -29.5t-60 -11z
M51 -26q-9 0 -14 7.5t1 13.5l606 659q10 10 20 13t21 3q13 0 16.5 -7t-2.5 -13l-606 -658q-9 -11 -19.5 -14.5t-22.5 -3.5zM427 -32q-41 0 -66.5 18t-25.5 49q0 30 19.5 49.5t46.5 32.5t47 22q5 3 4 4t-3 5q-14 17 -28 35t-14 41q0 32 20.5 54t51 33t60.5 11q40 0 61.5 -19
t21.5 -44q0 -20 -14 -39t-36 -31q-10 -5 -19 -9t-19 -10q-8 -4 -8.5 -6.5t3.5 -6.5q21 -15 34.5 -38.5t13.5 -46.5q0 -31 -22 -54.5t-56.5 -36.5t-71.5 -13zM437 -13q31 0 50.5 22.5t19.5 48.5q0 18 -11 36.5t-25 30.5q-5 5 -8.5 5t-8.5 -3q-26 -17 -38.5 -41.5t-12.5 -51.5
q0 -18 8 -32.5t26 -14.5zM513 178q25 15 39 41t14 47q0 16 -7.5 26.5t-23.5 10.5q-26 0 -45 -17.5t-19 -40.5t10 -36.5t25 -29.5q5 -3 7 -1z" />
  </g>

</svg>
