<?xml version="1.0" standalone="no"?>
<!DOCTYPE svg PUBLIC "-//W3C//DTD SVG 1.1//EN" "http://www.w3.org/Graphics/SVG/1.1/DTD/svg11.dtd" >
<svg xmlns="http://www.w3.org/2000/svg" xmlns:xlink="http://www.w3.org/1999/xlink" version="1.1" viewBox="-10 0 1058 1000">
  <g transform="matrix(1 0 0 -1 0 800)">
   <path fill="currentColor"
d="M80 506h41v-104h-41v104zM80 349h41v-104h-41v104zM80 193h41v-104h-41v104zM80 36h41v-104h-41v104zM856 -184h71v64h41v-105h-112v41zM243 622v41h103v-41h-103zM399 622v41h103v-41h-103zM554 622v41h103v-41h-103zM710 622v41h103v-41h-103zM968 -68h-41v104h41v-104
zM968 89h-41v104h41v-104zM968 245h-41v104h41v-104zM968 402h-41v104h41v-104zM807 -184v-41h-102v41h102zM653 -184v-41h-102v41h102zM499 -184v-41h-101v41h101zM345 -184v-41h-102v41h102zM191 -225h-111v105h41v-64h70v-41zM927 559v63h-71v41h112v-104h-41zM80 559
v104h112v-41h-71v-63h-41zM408 -8q-4 0 -4.5 8t-0.5 17l2 150t1 149q0 10 0.5 19t-4.5 9q-7 0 -20 -25q-22 -53 -45.5 -105.5t-46.5 -104.5q-17 -37 -15 -56.5t21 -21.5q13 -2 18.5 -6.5t5.5 -12.5q0 -7 -9.5 -10t-16.5 -3q-17 0 -33.5 1.5t-32.5 1.5q-21 0 -42.5 -3
t-36.5 -3q-6 0 -11.5 3t-5.5 9q0 9 9 12.5t21 5.5q28 4 46 25t35 54q33 65 66 129.5t65 129.5q11 25 4 36t-26 17q-9 2 -18.5 5t-17.5 7t-9 9t1 9q8 5 24 6.5t36 1.5q23 0 47.5 -4t62.5 -8q10 -17 12.5 -39.5t3.5 -49.5v-104t2 -103q0 -13 4.5 -11.5t11.5 9.5
q56 72 113 142.5t114 141.5q7 9 13.5 14.5t16.5 5.5h31q19 0 36.5 2.5t39.5 2.5q11 0 16.5 -3t5.5 -10t-8.5 -12.5t-22.5 -7.5q-33 -4 -48.5 -17.5t-25.5 -50.5l-30 -132t-31 -132q-7 -28 4.5 -42.5t37.5 -20.5q10 -2 14 -5.5t4 -10.5q0 -6 -8.5 -10t-18.5 -4
q-18 0 -35.5 1.5t-34 2.5t-33.5 1q-19 0 -36.5 -1t-35.5 -2.5t-37 -1.5q-9 0 -14 3t-5 9q1 7 9.5 11.5t21.5 6.5q29 6 49.5 20t28.5 45q12 52 23.5 105t23.5 105q4 16 -1 15.5t-12 -8.5q-60 -72 -119.5 -145t-119.5 -146q-11 -13 -19 -19t-11 -6z" />
  </g>

</svg>
