<?xml version="1.0" standalone="no"?>
<!DOCTYPE svg PUBLIC "-//W3C//DTD SVG 1.1//EN" "http://www.w3.org/Graphics/SVG/1.1/DTD/svg11.dtd" >
<svg xmlns="http://www.w3.org/2000/svg" xmlns:xlink="http://www.w3.org/1999/xlink" version="1.1" viewBox="-10 0 1058 1000">
  <g transform="matrix(1 0 0 -1 0 800)">
   <path fill="currentColor"
d="M80 506h41v-104h-41v104zM80 349h41v-104h-41v104zM80 193h41v-104h-41v104zM80 36h41v-104h-41v104zM856 -184h71v64h41v-105h-112v41zM243 622v41h103v-41h-103zM399 622v41h103v-41h-103zM554 622v41h103v-41h-103zM710 622v41h103v-41h-103zM968 -68h-41v104h41v-104
zM968 89h-41v104h41v-104zM968 245h-41v104h41v-104zM968 402h-41v104h41v-104zM807 -184v-41h-102v41h102zM653 -184v-41h-102v41h102zM499 -184v-41h-101v41h101zM345 -184v-41h-102v41h102zM191 -225h-111v105h41v-64h70v-41zM927 559v63h-71v41h112v-104h-41zM80 559
v104h112v-41h-71v-63h-41zM276 -4q-22 0 -20 11q0 7 8 11.5t23 6.5q33 7 52.5 20.5t28.5 42.5l86 275q10 31 1 41t-39 17q-12 2 -16 7.5t-4 11.5t8.5 9t19.5 3q26 0 41.5 -0.5t29 -1.5t32.5 -1q26 0 51.5 3.5t55.5 3.5q57 0 88.5 -13t44 -34t12.5 -46q0 -30 -19.5 -53
t-46.5 -37.5t-50 -20.5q-6 -1 -8 -4.5t2 -4.5q26 -4 45.5 -19.5t31 -38t11.5 -50.5q0 -40 -23 -67t-61 -42.5t-82.5 -22t-89.5 -6.5q-18 0 -44.5 2t-51.5 2q-20 0 -39 -1.5t-38 -2.5t-40 -1zM500 26q33 0 65 15.5t53 41.5t21 60q0 26 -14 45.5t-36 31t-47 11.5
q-12 0 -24.5 -5t-16.5 -18l-42 -137q-5 -18 9.5 -31.5t31.5 -13.5zM551 252q33 0 64 13t51 36.5t20 56.5q0 34 -21 52t-50 18q-18 0 -34 -6.5t-21 -23.5l-35 -115q-4 -11 3.5 -21t22.5 -10z" />
  </g>

</svg>
