<?xml version="1.0" standalone="no"?>
<!DOCTYPE svg PUBLIC "-//W3C//DTD SVG 1.1//EN" "http://www.w3.org/Graphics/SVG/1.1/DTD/svg11.dtd" >
<svg xmlns="http://www.w3.org/2000/svg" xmlns:xlink="http://www.w3.org/1999/xlink" version="1.1" viewBox="-10 0 1058 1000">
  <g transform="matrix(1 0 0 -1 0 800)">
   <path fill="currentColor"
d="M80 506h41v-104h-41v104zM80 349h41v-104h-41v104zM80 193h41v-104h-41v104zM80 36h41v-104h-41v104zM856 -184h71v64h41v-105h-112v41zM243 622v41h103v-41h-103zM399 622v41h103v-41h-103zM554 622v41h103v-41h-103zM710 622v41h103v-41h-103zM968 -68h-41v104h41v-104
zM968 89h-41v104h41v-104zM968 245h-41v104h41v-104zM968 402h-41v104h41v-104zM807 -184v-41h-102v41h102zM653 -184v-41h-102v41h102zM499 -184v-41h-101v41h101zM345 -184v-41h-102v41h102zM191 -225h-111v105h41v-64h70v-41zM927 559v63h-71v41h112v-104h-41zM80 559
v104h112v-41h-71v-63h-41zM209 -4q-6 0 -12.5 3.5t-6.5 9.5q1 12 32 17q29 4 53 25t36 51q14 36 30 77.5t32.5 87.5t34.5 94q3 8 5 15t2 13q0 16 -17.5 23.5t-45.5 11.5q-13 2 -20 7.5t-7 11.5q1 6 10 9t19 3q11 0 31.5 -1t44.5 -2.5t45 -1.5q7 0 15.5 -2t11.5 -8l138 -301
q3 -5 7 -14t8 -9q5 0 7.5 6t5.5 17l60 216q10 32 1 46t-42 22q-12 3 -17 7t-4 12q0 6 8.5 8.5t18.5 2.5q26 0 38 -0.5t21.5 -1.5t25.5 -1t26.5 1t22.5 1.5t35 0.5q22 0 21 -12q-1 -7 -10 -11.5t-23 -6.5q-34 -7 -52.5 -20.5t-28.5 -46.5l-77 -247q-8 -24 -6 -39t8 -25
q4 -5 9 -10t14 -11q10 -6 7.5 -15t-19.5 -9h-81q-20 0 -29.5 9t-18.5 29l-123 275q-4 10 -9.5 17t-7.5 7q-4 0 -5 -3t-5 -13l-70 -216q-13 -39 -2 -54.5t34 -19.5q13 -2 20 -6t6 -13q-1 -6 -10 -9.5t-17 -3.5q-11 0 -28 0.5t-34.5 1t-29.5 0.5q-22 0 -44 -2.5t-42 -2.5z" />
  </g>

</svg>
