<?xml version="1.0" standalone="no"?>
<!DOCTYPE svg PUBLIC "-//W3C//DTD SVG 1.1//EN" "http://www.w3.org/Graphics/SVG/1.1/DTD/svg11.dtd" >
<svg xmlns="http://www.w3.org/2000/svg" xmlns:xlink="http://www.w3.org/1999/xlink" version="1.1" viewBox="-10 0 1058 1000">
  <g transform="matrix(1 0 0 -1 0 800)">
   <path fill="currentColor"
d="M80 506h41v-104h-41v104zM80 349h41v-104h-41v104zM80 193h41v-104h-41v104zM80 36h41v-104h-41v104zM856 -184h71v64h41v-105h-112v41zM243 622v41h103v-41h-103zM399 622v41h103v-41h-103zM554 622v41h103v-41h-103zM710 622v41h103v-41h-103zM968 -68h-41v104h41v-104
zM968 89h-41v104h41v-104zM968 245h-41v104h41v-104zM968 402h-41v104h41v-104zM807 -184v-41h-102v41h102zM653 -184v-41h-102v41h102zM499 -184v-41h-101v41h101zM345 -184v-41h-102v41h102zM191 -225h-111v105h41v-64h70v-41zM927 559v63h-71v41h112v-104h-41zM80 559
v104h112v-41h-71v-63h-41zM457 -14q-59 0 -100.5 24.5t-64 64.5t-24.5 90q-2 52 18 104t59.5 95t96 68.5t128.5 25.5q59 0 100.5 -23.5t63.5 -64.5t24 -90q2 -52 -18 -104.5t-59.5 -95t-96 -68.5t-127.5 -26zM462 17q34 0 64.5 18t56 48.5t44 68.5t28 78t8.5 76
q-1 32 -12.5 60t-32.5 45t-53 17q-33 0 -63.5 -18t-55.5 -49t-44 -68.5t-29 -78t-9 -76.5q1 -30 12 -58t32.5 -45.5t53.5 -17.5z" />
  </g>

</svg>
