<?xml version="1.0" standalone="no"?>
<!DOCTYPE svg PUBLIC "-//W3C//DTD SVG 1.1//EN" "http://www.w3.org/Graphics/SVG/1.1/DTD/svg11.dtd" >
<svg xmlns="http://www.w3.org/2000/svg" xmlns:xlink="http://www.w3.org/1999/xlink" version="1.1" viewBox="-10 0 1058 1000">
  <g transform="matrix(1 0 0 -1 0 800)">
   <path fill="currentColor"
d="M80 506h41v-104h-41v104zM80 349h41v-104h-41v104zM80 193h41v-104h-41v104zM80 36h41v-104h-41v104zM856 -184h71v64h41v-105h-112v41zM243 622v41h103v-41h-103zM399 622v41h103v-41h-103zM554 622v41h103v-41h-103zM710 622v41h103v-41h-103zM968 -68h-41v104h41v-104
zM968 89h-41v104h41v-104zM968 245h-41v104h41v-104zM968 402h-41v104h41v-104zM807 -184v-41h-102v41h102zM653 -184v-41h-102v41h102zM499 -184v-41h-101v41h101zM345 -184v-41h-102v41h102zM191 -225h-111v105h41v-64h70v-41zM927 559v63h-71v41h112v-104h-41zM80 559
v104h112v-41h-71v-63h-41zM340 -2q-5 0 -10.5 3t-4.5 9q2 8 10 12t17 5q26 4 45.5 14t27.5 35l87 284q9 28 1.5 42t-34.5 20q-8 2 -13 6.5t-3 12.5q2 6 10 9t13 3q18 0 35.5 -1t34.5 -2.5t34 -1.5q16 0 34.5 1.5t37.5 2.5t36 1q7 0 12 -3.5t3 -9.5q-2 -7 -10 -11.5t-17 -6.5
q-23 -4 -36.5 -12.5t-21.5 -20t-14 -30.5l-87 -282q-7 -24 5.5 -34t34.5 -16q8 -1 14 -5t3 -12q-1 -6 -9 -9t-13 -3q-17 0 -35.5 1t-37.5 2.5t-37 1.5q-19 0 -38 -1.5t-37.5 -2.5t-36.5 -1z" />
  </g>

</svg>
