<?xml version="1.0" standalone="no"?>
<!DOCTYPE svg PUBLIC "-//W3C//DTD SVG 1.1//EN" "http://www.w3.org/Graphics/SVG/1.1/DTD/svg11.dtd" >
<svg xmlns="http://www.w3.org/2000/svg" xmlns:xlink="http://www.w3.org/1999/xlink" version="1.1" viewBox="-10 0 1058 1000">
  <g transform="matrix(1 0 0 -1 0 800)">
   <path fill="currentColor"
d="M80 506h41v-104h-41v104zM80 349h41v-104h-41v104zM80 193h41v-104h-41v104zM80 36h41v-104h-41v104zM856 -184h71v64h41v-105h-112v41zM243 622v41h103v-41h-103zM399 622v41h103v-41h-103zM554 622v41h103v-41h-103zM710 622v41h103v-41h-103zM968 -68h-41v104h41v-104
zM968 89h-41v104h41v-104zM968 245h-41v104h41v-104zM968 402h-41v104h41v-104zM807 -184v-41h-102v41h102zM653 -184v-41h-102v41h102zM499 -184v-41h-101v41h101zM345 -184v-41h-102v41h102zM191 -225h-111v105h41v-64h70v-41zM927 559v63h-71v41h112v-104h-41zM80 559
v104h112v-41h-71v-63h-41zM179 -2q-5 0 -10.5 3t-4.5 9q2 8 10 11.5t17 4.5q27 5 46 15t27 35l87 284q9 27 1.5 41.5t-34.5 20.5q-7 2 -12.5 6.5t-3.5 12.5q2 6 9.5 9t12.5 3q19 0 36 -1t34.5 -2.5t34.5 -1.5t35 1.5t37.5 2.5t36.5 1q6 0 11.5 -3.5t3.5 -9.5
q-2 -7 -10.5 -11.5t-17.5 -6.5q-31 -5 -47.5 -20.5t-24.5 -42.5l-30 -98q-2 -8 8 -8q32 0 52 -1t46 -1q23 0 50 1t55 1q7 0 10 9l30 96q8 28 1 43.5t-34 20.5q-7 2 -12.5 7t-3.5 12q2 6 10 9t13 3q18 0 35.5 -1t35 -2.5t34.5 -1.5t35 1.5t36.5 2.5t36.5 1q5 0 11 -3t4 -9
q-2 -7 -10 -12t-17 -7q-32 -5 -48 -20t-25 -42l-88 -284q-7 -25 6 -34.5t38 -14.5q7 -1 12 -5t3 -12q-1 -7 -9 -9.5t-13 -2.5q-17 0 -34.5 1t-36.5 2.5t-38 1.5t-38.5 -1.5t-39 -2.5t-37.5 -1q-5 0 -10.5 3t-4.5 9q2 9 10.5 12.5t16.5 4.5q27 5 47 15.5t27 34.5l40 128
q2 8 -6 8q-32 0 -56 1t-51 1q-22 0 -46 -1t-54 -1q-6 0 -9 -10l-40 -128q-7 -24 6 -33.5t36 -14.5q8 -1 13.5 -4.5t3.5 -11.5q-1 -7 -9.5 -10t-14.5 -3q-17 0 -35 1t-37 2.5t-37 1.5q-19 0 -38.5 -1.5t-38 -2.5t-35.5 -1z" />
  </g>

</svg>
