<?xml version="1.0" standalone="no"?>
<!DOCTYPE svg PUBLIC "-//W3C//DTD SVG 1.1//EN" "http://www.w3.org/Graphics/SVG/1.1/DTD/svg11.dtd" >
<svg xmlns="http://www.w3.org/2000/svg" xmlns:xlink="http://www.w3.org/1999/xlink" version="1.1" viewBox="-10 0 819 1000">
  <g transform="matrix(1 0 0 -1 0 800)">
   <path fill="currentColor"
d="M70 -14q-28 0 -36.5 23t6.5 61l95 224q7 16 8 27t-7 11q-5 0 -18 -8.5t-28 -20.5t-28 -24q-6 -5 -12.5 -4.5t-6.5 5.5q0 6 3.5 14.5t10.5 18.5q27 35 58 59t60.5 38t49.5 14q8 0 17.5 -8.5t14.5 -19.5t0 -20q-28 -59 -57.5 -125.5t-60.5 -136.5q-9 -19 -10 -33.5t9 -14.5
t30 18.5t45 47.5t52 61q32 36 61 75t51.5 72t31.5 49t18.5 24t19.5 8t19.5 -8t14 -18.5t0.5 -19.5l-117 -281q-7 -15 -6 -24t9 -9q11 0 37.5 15t61.5 40.5t72.5 55.5t69.5 59q-7 15 -11 28t-4 23q0 32 18.5 59.5t45.5 49.5t53.5 33.5t42.5 11.5q25 0 35.5 -9.5t10.5 -25.5
q0 -19 -14 -44t-37 -51.5t-52 -51.5q14 -24 23.5 -46t14.5 -41.5t5 -38.5q1 -28 -14.5 -52.5t-41.5 -44.5t-56 -31.5t-59 -11.5q-30 0 -47.5 14t-17.5 36q0 17 9.5 29.5t22.5 12.5q5 0 12.5 -6.5t17.5 -13.5q12 -8 25 -16t27 -8q24 0 35 15t11 38q0 20 -12 51.5t-29 55.5
q-44 -40 -92.5 -78t-93 -67.5t-80 -47t-53.5 -17.5t-29 16t-11 29q0 4 4 12.5t6 14.5q11 25 23.5 51.5t23.5 51.5t17 42q4 11 -1.5 12t-10.5 -5q-44 -51 -80.5 -92.5t-67 -70.5t-57 -45t-50.5 -16zM678 288q28 22 43 44t15 37q0 18 -21 18q-17 0 -33 -17t-16 -38
q0 -8 3.5 -20t8.5 -24z" />
  </g>

</svg>
