<?xml version="1.0" standalone="no"?>
<!DOCTYPE svg PUBLIC "-//W3C//DTD SVG 1.1//EN" "http://www.w3.org/Graphics/SVG/1.1/DTD/svg11.dtd" >
<svg xmlns="http://www.w3.org/2000/svg" xmlns:xlink="http://www.w3.org/1999/xlink" version="1.1" viewBox="-10 0 500 1000">
  <g transform="matrix(1 0 0 -1 0 800)">
   <path fill="currentColor"
d="M23 -207q-6 0 -8 12t0 29t6 33q4 12 13 18.5t28 6.5h320q17 0 24 -3t4 -11q-4 -14 -20 -21.5t-35 -7.5h-215q-31 0 -48 -8t-35 -26l-18 -16.5t-16 -5.5zM109 -287q-4 -1 -10.5 2t-5.5 9q0 8 9 13t18 6q24 5 40.5 16t24.5 32q19 51 39 105t40.5 110t41.5 111q4 10 -0.5 15
t-14.5 -7q-39 -46 -74 -77t-69 -46.5t-69 -15.5q-34 0 -55 21t-21 52q0 43 19 91t52 96t72 89q40 42 88 67t88 25q21 0 35 -8t22 -19q8 -8 12.5 -14t9.5 -6q10 0 18 15l9 17q9 16 19.5 22t19.5 6t12 -14.5t-8 -45.5l-192 -579q-7 -21 1 -33t27 -14q13 -2 22 -5t9 -11
q0 -6 -8 -8.5t-19 -2.5q-39 0 -78.5 -2.5t-72 -5.5t-51.5 -6zM119 35q18 0 42 14.5t49.5 38t48.5 52t40 55.5q23 39 41 76.5t18 65.5q0 12 -5.5 24t-14.5 20t-21 8q-20 0 -48 -23t-58 -59.5t-56.5 -79t-43 -83.5t-16.5 -73q0 -18 5.5 -27t18.5 -9z" />
  </g>

</svg>
