<?xml version="1.0" standalone="no"?>
<!DOCTYPE svg PUBLIC "-//W3C//DTD SVG 1.1//EN" "http://www.w3.org/Graphics/SVG/1.1/DTD/svg11.dtd" >
<svg xmlns="http://www.w3.org/2000/svg" xmlns:xlink="http://www.w3.org/1999/xlink" version="1.1" viewBox="-10 0 1006 1000">
  <g transform="matrix(1 0 0 -1 0 800)">
   <path fill="currentColor"
d="M266 -34q11 0 20.5 6t15.5 15q2 5 -1 9.5t-7 7.5q-9 8 -21.5 11t-12.5 12q0 10 8 17.5t16 15.5q10 11 19.5 22t9.5 27q0 20 -13.5 36t-15.5 24q-1 4 0.5 4h2.5q3 0 5 -1t4 -3q5 -6 23.5 -16t39.5 -18q10 -5 24.5 -19.5t24.5 -31t10 -27.5q0 -7 -3 -14.5t-8 -7.5
q-6 0 -11.5 4t-9.5 7q-5 4 -9.5 8t-8.5 4q-12 0 -12 -11q0 -10 8 -26t22 -27.5t33 -11.5q21 0 32.5 20.5t11.5 47.5q0 15 -12.5 30.5t-22.5 28.5q-5 7 -9 12t-4 8q1 2 4 2q2 -1 9 -4q3 0 6 -1.5t5 -1.5q3 1 4.5 1t3.5 1q3 1 5.5 -1t7.5 -4q3 -3 8.5 -12t13.5 -16
q5 -5 9.5 -9t9.5 -4q3 1 6.5 1h6.5q8 0 15 -10q5 -7 10.5 -24t14.5 -34.5t23.5 -30.5t36.5 -13q14 0 28.5 7t24 18t9.5 23q0 9 -6.5 17t-15 13.5t-13.5 5.5q-7 0 -11 -3.5t-6 -7.5v-4t-1 -6q-2 -6 -4 -10.5t-7 -4.5q-10 0 -14 9t-7 19q-8 34 -22 49t-51 22q-9 2 -17.5 4
t-14.5 6q-5 2 -7 5t-2 8t12.5 11.5t28 14t26.5 14.5q10 5 20 14t18 10q4 2 4.5 1t-2.5 -4q-1 -3 -4 -6.5t-4 -8.5q-2 -4 -3.5 -9.5t-0.5 -11.5q0 -26 16.5 -44t42 -27t54.5 -9q71 0 126 36.5t87 98.5t32 136q0 36 -11 74.5t-30.5 70.5t-44.5 52t-53 20t-46 -14.5t-18 -39.5
q0 -14 10.5 -23t26.5 -9q10 0 18 5.5t8 14.5q0 6 -4 9q-4 4 -4 9q0 6 5 9t11 3q16 0 26.5 -13t10.5 -28q0 -20 -14 -34t-34 -14q-22 0 -40 3t-34 7q-18 4 -36.5 7t-41.5 3q-36 0 -64.5 -22t-46.5 -55.5t-18 -66.5q0 -19 8.5 -32t20.5 -22q8 -7 14.5 -15t6.5 -17
q0 -8 -10.5 -18t-26 -20t-28.5 -16.5t-19 -6.5t-8 2.5t-2 7.5q0 10 6 18t13 15q10 10 17 21t7 23q0 19 -11.5 30.5t-26.5 23.5q-10 8 -18.5 14.5t-8.5 12.5q0 7 3 10t8 3q7 0 15.5 2.5t8.5 7.5q0 7 -10 12t-19 5q-16 0 -25.5 -11.5t-9.5 -27.5q0 -17 7.5 -28t15.5 -21
q8 -9 15 -17.5t7 -22.5q0 -10 -4.5 -19l-8.5 -17q-4 -7 -6.5 -14t-2.5 -16v-6t1 -5q2 -4 2 -9q0 -6 -5 -6q-24 0 -53 8.5t-50 19t-21 16.5q0 5 2.5 10.5t7.5 11.5q3 7 7 14t4 15q0 9 2 13t5 4t7.5 -6.5t9.5 -14.5q7 -14 17.5 -26.5t25.5 -12.5q13 0 23 11t10 26
q0 17 -12.5 31t-22.5 14q-3 0 -5 -2.5t-2 -5.5q0 -4 1 -8.5t2 -9.5q1 -3 1.5 -6.5t1.5 -7.5q1 -10 -10 -10q-8 0 -17.5 20t-16.5 46.5t-7 46.5q0 7 -2.5 14t-5.5 12q-4 7 -7.5 12t-4.5 6q-2 2 -2.5 3.5t0.5 0.5q8 0 14 -3.5t13 -7.5q8 -4 17.5 -6.5t23.5 -2.5q17 0 30.5 16
t22.5 32q5 10 13.5 13.5t19.5 3.5q6 0 12.5 -1.5t12.5 -1.5q14 -1 15 14q0 14 -16.5 25t-33.5 11q-30 0 -44.5 -13.5t-25.5 -28.5q-10 -14 -21 -25t-29 -11q-8 0 -18 6t-18 17t-8 23q0 10 8 18.5t16 10.5q29 10 39 13t10 16q0 8 -9 13t-21.5 7.5t-21.5 2.5q-13 0 -21.5 -6.5
t-16.5 -13.5q-4 -5 -9 -9t-10 -4q-9 0 -15.5 4t-14.5 9q-11 7 -27 14t-42 7q-36 0 -66.5 -9.5t-50 -27t-19.5 -44.5q0 -18 12.5 -30.5t30.5 -12.5q11 0 20 5t9 17q0 6 -1 9.5t-6 6.5q-3 3 -6 1.5t-7 -1.5t-5.5 3t-1.5 7q0 7 5 13t12 7q11 2 21 4t20 2q18 0 31.5 -9.5t20 -24
t6.5 -30.5q0 -31 -3.5 -50t-10 -28t-14.5 -9q-7 0 -12 1.5t-9 4.5q-5 3 -11 5t-15 2q-24 0 -42.5 -16t-18.5 -39q0 -16 9.5 -23t19.5 -11q11 -3 10 -7q-7 -8 -13 -14t-10 -15q-8 -11 -14.5 -24t-0.5 -23q3 -22 8.5 -27.5t11.5 -1.5q4 1 6.5 6t3.5 11q2 6 1.5 11t0.5 11
q3 13 22.5 26.5t38.5 28.5q10 9 18 19.5t11 23.5q-1 3 -2.5 4.5t-3.5 2.5q-5 3 -6 7q0 2 7 8t12 6q2 0 1 -5q-1 -4 -1.5 -10t-0.5 -11q0 -13 6.5 -24t15 -21t17.5 -18l19 -19t9 -17q0 -12 -11 -12q-7 0 -12 5.5t-11 11.5t-13 12t-17 6q-24 0 -37.5 -19.5t-13.5 -42.5
q0 -22 8.5 -32t17.5 -11q6 0 10.5 -0.5t4.5 -4.5q0 -6 -12 -6h-17.5h-14.5q-8 -1 -11 -6.5t-5 -12.5q-2 -6 -4.5 -10.5t-8.5 -4.5t-9 3.5t-5 8.5q-2 6 -5 11t-8 5q-13 0 -19 -10t-6 -23q0 -15 12.5 -24.5t30 -13.5t31.5 -4q15 0 35.5 12t40.5 30.5t33.5 36t13.5 26.5
q0 4 -3 7.5t-3 6.5q0 6 7 10.5t17 4.5t13 -15t3 -26t-9.5 -19.5t-20.5 -17.5q-11 -10 -21.5 -23t-10.5 -33q0 -23 11.5 -42.5t34.5 -19.5zM276 226q-10 2 -23.5 17t-24 35.5t-10.5 38.5q0 34 6.5 54.5t31.5 20.5t38 -23t13 -48q0 -17 -4 -38.5t-11 -37.5t-16 -19z" />
  </g>

</svg>
