<?xml version="1.0" standalone="no"?>
<!DOCTYPE svg PUBLIC "-//W3C//DTD SVG 1.1//EN" "http://www.w3.org/Graphics/SVG/1.1/DTD/svg11.dtd" >
<svg xmlns="http://www.w3.org/2000/svg" xmlns:xlink="http://www.w3.org/1999/xlink" version="1.1" viewBox="-10 0 847 1000">
  <g transform="matrix(1 0 0 -1 0 800)">
   <path fill="currentColor"
d="M415 -211q-45 0 -88 10.5t-70.5 26t-27.5 31.5t4 39.5t10 49.5q3 11 8 17.5t13 6.5t11 -8t4 -23q0 -31 17 -57.5t48 -42.5t75 -16q45 0 81.5 17.5t62 46t39.5 62t14 66.5q0 36 -13.5 65.5t-39.5 47t-64 17.5q-10 0 -18 -1.5t-15 -3.5l-16.5 -5.5t-15.5 -2.5q-9 0 -14.5 4
t-5.5 13q0 7 4 14t16 18l239 219q6 6 3.5 11t-12.5 5h-148q-28 0 -55.5 -20.5t-55.5 -63.5q-6 -10 -14.5 -19.5t-17.5 -9.5q-8 0 -10.5 7.5t-1.5 13.5q0 5 4 14l8 18q9 15 13.5 29t9.5 30.5t11 37.5q4 12 13 16t15 4q8 0 17.5 -4.5t21.5 -8.5t24.5 -6.5t29.5 -2.5h175
q23 0 37 0.5t24 0.5t22 0.5t32 0.5q5 0 8 -8t-3 -13l-263 -231q-12 -11 -15 -19t4 -7q10 2 19 3t19 1q47 0 78 -21t47 -55.5t16 -73.5q0 -43 -19 -85t-58 -77.5t-97.5 -56.5t-138.5 -21zM141 -4q-10 0 -16 2.5t-5 9.5q0 7 9.5 11t24.5 6q38 8 61 24.5t33 51.5l126 427
q15 53 13.5 69.5t-16.5 16.5h-70q-44 0 -73 -19.5t-49 -42.5q-9 -9 -18 -21t-18 -20.5t-16 -8.5t-9 3t-2 11q1 3 3.5 11t7.5 19q17 25 30.5 52t22.5 56q3 9 9 15.5t12 6.5t13 -5.5t13 -10.5q5 -4 12 -8t23 -6t48 -2l328 1q35 0 53 2t26.5 5.5t11.5 5.5q10 6 17 12t14 6
q11 0 10 -13q-1 -6 -4 -13t-6 -12q-10 -18 -22 -50t-21 -72q-2 -11 -6 -15.5t-10 -4.5q-8 0 -11.5 7t-3.5 20q0 44 -15 67.5t-55 23.5h-82q-14 0 -23 -6.5t-17 -25t-19 -56.5l-125 -425q-9 -34 4 -50.5t47 -25.5q13 -3 18 -6t4 -11q-1 -6 -9 -9t-19 -3q-24 0 -44 1.5
t-39 2.5t-39 1q-22 0 -43.5 -1t-43 -2.5t-45.5 -1.5z" />
  </g>

</svg>
