<?xml version="1.0" standalone="no"?>
<!DOCTYPE svg PUBLIC "-//W3C//DTD SVG 1.1//EN" "http://www.w3.org/Graphics/SVG/1.1/DTD/svg11.dtd" >
<svg xmlns="http://www.w3.org/2000/svg" xmlns:xlink="http://www.w3.org/1999/xlink" version="1.1" viewBox="-16 0 586 1000">
  <g transform="matrix(1 0 0 -1 0 800)">
   <path fill="currentColor"
d="M152 -289q-54 0 -84 13.5t-30 41.5q0 19 11.5 32t27.5 13q8 0 18.5 -8.5t22.5 -18.5q14 -10 30.5 -19t36.5 -9q41 0 76.5 20.5t62.5 53.5t43 71t16 73q0 51 -21 84.5t-70 33.5q-7 0 -15.5 -2.5t-16.5 -5.5q-10 -3 -19.5 -6.5t-16.5 -3.5q-3 0 -11 3.5t-9 14.5q-1 12 5 20
t20 22l187 180q-15 6 -37.5 17t-43.5 19q-18 7 -39 14t-42 7q-17 0 -30 -14t-14 -28v48q13 12 31.5 23.5t37.5 19.5t31 8q22 0 46 -6.5t48 -13.5q19 -7 37 -11.5t31 -4.5q15 0 24 5t21 16q5 5 14.5 11.5t16.5 6.5q4 0 8 -4t4 -9q0 -7 -10 -21.5t-24 -28.5l-223 -216
q-10 -11 -8 -14.5t8 -2.5q8 3 21 5t28 2q36 0 65.5 -18t46.5 -47.5t17 -66.5q0 -36 -20 -76.5t-55 -80t-77.5 -71.5t-88 -51.5t-88.5 -19.5zM39 -119q-17 0 -31 15t-14 27q0 14 3.5 24.5t9.5 26.5l127 370q3 10 -1 13.5t-10 3.5l-42 2q-15 1 -18 6.5t-3 9.5q0 2 5.5 8.5
t14.5 13t19 6.5h41q12 0 16.5 4t10.5 16l25 52q6 10 17.5 22t24.5 20.5t20 8.5q11 0 14 -12.5t-1 -24.5l-166 -483q-6 -15 -6 -24.5t5.5 -14t14.5 -4.5q13 0 30 11.5t33.5 26t27.5 25.5q8 8 14 7.5t7 -4.5q1 -5 -1 -12.5t-8 -16.5q-11 -16 -28 -33.5t-38 -33.5t-41.5 -28.5
t-39 -20t-32.5 -7.5z" />
  </g>

</svg>
