<?xml version="1.0" standalone="no"?>
<!DOCTYPE svg PUBLIC "-//W3C//DTD SVG 1.1//EN" "http://www.w3.org/Graphics/SVG/1.1/DTD/svg11.dtd" >
<svg xmlns="http://www.w3.org/2000/svg" xmlns:xlink="http://www.w3.org/1999/xlink" version="1.1" viewBox="-10 0 801 1000">
  <g transform="matrix(1 0 0 -1 0 800)">
   <path fill="currentColor"
d="M313 -4q-10 0 -16 2.5t-5 9.5q2 13 33 19q38 7 60 22t33 49l66 213q4 11 2.5 14t-5.5 1q-22 -10 -47 -18t-53 -12t-61 -4q-47 0 -82.5 23t-50.5 62.5t-1 86.5l27 86q11 34 0 50t-49 21q-13 2 -17 7.5t-3 12.5q0 7 8.5 10t19.5 3q24 0 42.5 -1t35.5 -2t36 -1q20 0 36 0.5
t34.5 1.5t42.5 1q21 0 20 -12q-1 -8 -10 -12.5t-24 -7.5q-26 -5 -39 -13t-18.5 -21.5t-12.5 -36.5l-30 -98q-8 -29 4 -54.5t40 -41t64 -15.5q34 0 58 7t39 14q11 6 15 22l52 166q11 34 1.5 48.5t-44.5 22.5q-13 3 -17 8t-3 12q0 7 9 10t19 3q24 0 43 -1t37.5 -2t38.5 -1
t38 0.5t37.5 1.5t42.5 1q22 0 21 -12q-1 -8 -10 -12.5t-24 -7.5q-26 -5 -43 -13t-27.5 -21.5t-17.5 -36.5l-138 -452q-10 -33 2.5 -48t46.5 -23q13 -3 17.5 -7t4.5 -12q-1 -6 -9 -9t-19 -3q-24 0 -43.5 1.5t-38 2.5t-39.5 1q-33 0 -63 -2.5t-66 -2.5z" />
  </g>

</svg>
