<?xml version="1.0" standalone="no"?>
<!DOCTYPE svg PUBLIC "-//W3C//DTD SVG 1.1//EN" "http://www.w3.org/Graphics/SVG/1.1/DTD/svg11.dtd" >
<svg xmlns="http://www.w3.org/2000/svg" xmlns:xlink="http://www.w3.org/1999/xlink" version="1.1" viewBox="-38 0 910 1000">
  <g transform="matrix(1 0 0 -1 0 800)">
   <path fill="currentColor"
d="M341 -200q-55 0 -79.5 17.5t-24.5 36.5q0 24 7.5 39t21.5 15q10 0 23 -12t30 -25q14 -12 30 -22.5t32 -10.5q18 0 34 15t33 51t36 100l89 287q2 6 3 11t-5 5h-311q-8 0 -12 -13l-60 -190q-10 -30 3 -49.5t45 -27.5q13 -3 17.5 -7t3.5 -12q0 -6 -8 -9t-19 -3
q-24 0 -43.5 1.5t-38.5 2.5t-39 1t-38 -1t-36.5 -2.5t-41.5 -1.5q-11 0 -16 2.5t-5 9.5q2 13 34 19q36 7 52 22t27 49l138 453q11 34 6.5 48t-37.5 22q-13 3 -17 8t-4 12q1 7 9.5 10t18.5 3q25 0 42 -1t32.5 -2t34.5 -1t36.5 0.5t36.5 1.5t43 1q22 0 20 -12
q-1 -8 -9.5 -12.5t-24.5 -7.5q-25 -5 -42 -14t-27 -22.5t-16 -33.5l-59 -193q-3 -10 10 -10h304q8 0 12 12l60 191q8 28 0.5 44.5t-42.5 25.5q-12 3 -16.5 7.5t-3.5 12.5q0 7 8.5 9.5t18.5 2.5q24 0 43.5 -1t38 -1.5t39.5 -0.5q17 0 31 1t30.5 2t40.5 1q11 0 16.5 -3
t4.5 -10q-2 -14 -34 -20q-37 -8 -50 -23.5t-23 -45.5l-127 -413q-21 -69 -38.5 -113.5t-33 -72.5t-31 -47t-31.5 -35q-31 -32 -68.5 -51.5t-83.5 -19.5z" />
  </g>

</svg>
