<?xml version="1.0" standalone="no"?>
<!DOCTYPE svg PUBLIC "-//W3C//DTD SVG 1.1//EN" "http://www.w3.org/Graphics/SVG/1.1/DTD/svg11.dtd" >
<svg xmlns="http://www.w3.org/2000/svg" xmlns:xlink="http://www.w3.org/1999/xlink" version="1.1" viewBox="-70 0 1120 1000">
  <g transform="matrix(1 0 0 -1 0 800)">
   <path fill="currentColor"
d="M613 661q5 0 8 -6.5t3 -17.5q-3 -122 0 -242.5t9 -240.5q1 -19 9 -17.5t17 21.5q43 84 82 168t74 169q18 45 22.5 71t-3 37.5t-23.5 15.5q-13 2 -21 6t-7 12q1 6 11.5 9.5t21.5 3.5q25 0 40.5 -1t29.5 -1.5t36 -0.5q19 0 33.5 1t29 2.5t32.5 1.5q24 0 22 -11
q-1 -8 -10 -12t-24 -7q-28 -6 -48.5 -17.5t-40 -36t-43.5 -70.5l-188 -372q-15 -30 -15.5 -50.5t18.5 -33.5t62 -20q19 -3 27 -6t8 -11q0 -9 -11.5 -12.5t-28.5 -3.5q-18 0 -50 1t-66 2.5t-57 1.5q-17 0 -24 9.5t-7.5 26.5t-0.5 43l-10 392q-1 18 -8.5 17t-18.5 -13
q-59 -65 -115.5 -132t-111 -134t-104.5 -130q-12 -21 -19.5 -35.5t-15.5 -26.5q-8 -14 -21 -14h-41q-15 0 -35 -2t-39.5 -4t-30.5 -2q-12 0 -21 3.5t-9 11.5t10 14t35 10q28 5 44 12.5t25.5 24.5t19.5 50q27 95 49.5 195.5t42.5 198.5q10 55 -1.5 79.5t-43.5 30.5
q-13 2 -18.5 6t-4.5 12q1 5 9.5 9t19.5 4q23 0 45 -2t43.5 -4.5t43.5 -2.5t40.5 2.5t37.5 4.5t43 2q10 0 15.5 -3.5t5.5 -9.5q-1 -7 -10 -11.5t-23 -8.5q-35 -8 -52 -23.5t-27 -48.5q-23 -70 -40.5 -131.5t-33 -122t-31.5 -124.5q-2 -5 2 -5.5t9 4.5l282 326l111 146
q8 11 14.5 17t10.5 6z" />
  </g>

</svg>
