<?xml version="1.0" standalone="no"?>
<!DOCTYPE svg PUBLIC "-//W3C//DTD SVG 1.1//EN" "http://www.w3.org/Graphics/SVG/1.1/DTD/svg11.dtd" >
<svg xmlns="http://www.w3.org/2000/svg" xmlns:xlink="http://www.w3.org/1999/xlink" version="1.1" viewBox="-10 0 521 1000">
  <g transform="matrix(1 0 0 -1 0 800)">
   <path fill="currentColor"
d="M71 -17q-6 0 -13 5t-12 12.5t-5 16.5q0 16 3.5 31.5t9.5 36.5l139 466q5 17 9.5 35.5t4.5 29.5t-12.5 16.5t-25.5 9.5q-7 3 -13 5.5t-6 7.5q0 4 4 8t17 9q9 3 26.5 9t37.5 12t36.5 10t22.5 4t13 -1t7 -10q0 -10 -2 -17t-4 -15l-137 -454q-2 -7 1 -7t6 4q41 63 86.5 112.5
t88 78t75.5 28.5q36 0 54.5 -23.5t18.5 -55.5q0 -51 -17 -105t-44.5 -103t-59.5 -85q-7 -7 -21.5 -18.5t-33.5 -22.5t-37.5 -19t-31.5 -8q-9 0 -20 6.5t-19 16.5t-8 17q0 5 4.5 13.5t11.5 15.5t14 7q9 0 15.5 -4t11.5 -10q7 -6 13.5 -10.5t15.5 -4.5q14 0 30.5 20t32 53
t27.5 72t19 77.5t7 69.5q0 21 -8 32.5t-25 11.5q-20 0 -44.5 -21t-52 -56t-55 -76t-51.5 -80.5t-41 -69.5q-23 -42 -36.5 -62.5t-26.5 -20.5zM320 742q-9 0 -16.5 6.5t-16.5 20.5l-47 79q-2 5 -3 9.5t-1 8.5q1 9 11.5 7.5t23.5 -11.5l58 -41q5 -5 9 -5t12 3l111 48
q9 3 15.5 5t10.5 2q5 0 9 -1.5t4 -7.5q0 -4 -4 -9t-9 -9l-121 -82q-14 -10 -25 -16.5t-21 -6.5z" />
  </g>

</svg>
