<?xml version="1.0" standalone="no"?>
<!DOCTYPE svg PUBLIC "-//W3C//DTD SVG 1.1//EN" "http://www.w3.org/Graphics/SVG/1.1/DTD/svg11.dtd" >
<svg xmlns="http://www.w3.org/2000/svg" xmlns:xlink="http://www.w3.org/1999/xlink" version="1.1" viewBox="-41 0 302 1000">
  <g transform="matrix(1 0 0 -1 0 800)">
   <path fill="currentColor"
d="M108 473q-9 0 -10 8t3 16l74 150q7 12 14 20t16 8q6 0 17 -7t20 -16t9 -18q0 -5 -5 -13.5t-15 -19.5l-97 -112q-5 -6 -12 -11t-14 -5zM-20 473q-9 0 -10 8t3 16l74 150q7 12 14 20t16 8q6 0 17 -7t20 -16t9 -18q0 -5 -5 -13.5t-15 -19.5l-97 -112q-5 -6 -12 -11t-14 -5z
" />
  </g>

</svg>
