<?xml version="1.0" standalone="no"?>
<!DOCTYPE svg PUBLIC "-//W3C//DTD SVG 1.1//EN" "http://www.w3.org/Graphics/SVG/1.1/DTD/svg11.dtd" >
<svg xmlns="http://www.w3.org/2000/svg" xmlns:xlink="http://www.w3.org/1999/xlink" version="1.1" viewBox="-35 0 318 1000">
  <g transform="matrix(1 0 0 -1 0 800)">
   <path fill="currentColor"
d="M-5 126q-9 0 -14.5 1.5t-5.5 8.5q2 7 8 12t13 7q12 5 23 11t26 23q11 12 19.5 29t16 36.5t12.5 38.5l45 147q6 19 1 28.5t-19 13.5q-7 2 -4 12.5t11 10.5q31 6 54.5 18t43.5 21q5 2 12 0.5t6 -4.5q-5 -12 -15 -36.5t-21 -59.5l-42 -135q-8 -28 -20 -52.5t-29 -48.5
q-14 -21 -35.5 -40t-44.5 -30.5t-41 -11.5zM214 594q-15 0 -24 10.5t-9 23.5q0 15 8 27t20.5 19.5t27.5 7.5q17 0 26.5 -10t9.5 -25q0 -21 -17.5 -37t-41.5 -16z" />
  </g>

</svg>
