<?xml version="1.0" standalone="no"?>
<!DOCTYPE svg PUBLIC "-//W3C//DTD SVG 1.1//EN" "http://www.w3.org/Graphics/SVG/1.1/DTD/svg11.dtd" >
<svg xmlns="http://www.w3.org/2000/svg" xmlns:xlink="http://www.w3.org/1999/xlink" version="1.1" viewBox="-31 0 425 1000">
  <g transform="matrix(1 0 0 -1 0 800)">
   <path fill="currentColor"
d="M-11 -14q-5 0 -7.5 5t-1.5 11l208 668q3 11 14 18.5t22.5 11.5t14.5 4q6 0 9.5 -4.5t1.5 -9.5l-209 -677q-3 -10 -13.5 -16t-21.5 -8.5t-17 -2.5zM122 -14q-5 0 -7.5 5t-1.5 11l208 668q3 11 14 18.5t22.5 11.5t14.5 4q6 0 9.5 -4.5t1.5 -9.5l-209 -677q-3 -10 -13.5 -16
t-21.5 -8.5t-17 -2.5z" />
  </g>

</svg>
