<?xml version="1.0" standalone="no"?>
<!DOCTYPE svg PUBLIC "-//W3C//DTD SVG 1.1//EN" "http://www.w3.org/Graphics/SVG/1.1/DTD/svg11.dtd" >
<svg xmlns="http://www.w3.org/2000/svg" xmlns:xlink="http://www.w3.org/1999/xlink" version="1.1" viewBox="-91 0 453 1000">
  <g transform="matrix(1 0 0 -1 0 800)">
   <path fill="currentColor"
d="M74 -14q-10 0 -21.5 8t-19 18.5t-7.5 18.5q0 14 3.5 24.5t9.5 26.5l95 262q3 10 -1 13.5t-10 3.5l-42 2q-15 1 -18 6.5t-3 9.5q0 2 5.5 8.5t14.5 13t19 6.5h41q12 0 16.5 4t10.5 16l25 52q6 10 17.5 22t24.5 20.5t20 8.5q11 0 14 -12.5t-1 -24.5l-25 -70
q-3 -10 0.5 -12.5t12.5 -2.5q18 0 37 -3t34 -5q18 -3 22 -7t4 -10q0 -2 -4.5 -7.5t-17.5 -6.5q-19 -1 -36.5 -2.5t-38.5 -2.5q-17 -1 -24.5 -5t-10.5 -12l-84 -232q-5 -15 -5 -24.5t5 -13.5t14 -4q14 0 31 11t33.5 25.5t27.5 25.5q8 8 14 7.5t6 -4.5q2 -5 -0.5 -12.5
t-7.5 -15.5q-12 -16 -29 -33.5t-37.5 -34t-41.5 -29t-39.5 -20t-32.5 -7.5zM0 -281q-23 0 -42 8.5t-29 21.5t-10 29q0 30 23 30q11 0 21 -6t19 -15q12 -10 23 -18.5t26 -8.5q10 0 17 8t7 18q0 16 -10 26.5t-22 22.5q-10 11 -20 25t-10 31t18 40t44.5 46.5t54.5 39.5h33
q-43 -34 -57.5 -58t-14.5 -38q0 -10 9.5 -21.5t20.5 -22.5q12 -11 21 -23t9 -25q0 -16 -14.5 -35t-35.5 -36t-43 -28t-38 -11z" />
  </g>

</svg>
