<?xml version="1.0" standalone="no"?>
<!DOCTYPE svg PUBLIC "-//W3C//DTD SVG 1.1//EN" "http://www.w3.org/Graphics/SVG/1.1/DTD/svg11.dtd" >
<svg xmlns="http://www.w3.org/2000/svg" xmlns:xlink="http://www.w3.org/1999/xlink" version="1.1" viewBox="-10 0 821 1000">
  <g transform="matrix(1 0 0 -1 0 800)">
   <path fill="currentColor"
d="M118 -4q-10 0 -16 2.5t-5 9.5q0 7 9.5 11t24.5 6q38 8 61.5 24.5t33.5 51.5l137 474q6 18 0 27q-6 11 -30 11h-55q-23 0 -43.5 -9t-35.5 -23q-9 -8 -19.5 -19.5t-19 -22t-16.5 -18.5q-6 -7 -8.5 -8.5t-6.5 0.5t-5.5 6.5t0.5 12.5q6 13 15 33t20 43.5t20 46.5
q4 10 10 16.5t12 6.5t10.5 -6t9.5 -13q7 -7 19.5 -11t26.5 -4h87.5h88.5h108.5h108.5q17 0 31 4.5t23 9.5q14 7 24.5 13.5t20.5 6.5q6 0 8.5 -4.5t2.5 -9.5q0 -6 -3 -13.5t-6 -12.5q-7 -11 -15 -28.5t-14.5 -39t-13.5 -48.5q-5 -21 -16 -21q-15 0 -15 28q0 7 -0.5 20.5
t-4.5 28t-16.5 25t-36.5 10.5h-102q-25 0 -40.5 -8.5t-21.5 -29.5l-49 -180q-3 -11 1.5 -15.5t14.5 0.5q18 8 53.5 14.5t77.5 6.5q55 0 91 -24t48.5 -65.5t-4.5 -95.5l-36 -115q-10 -34 3.5 -50.5t46.5 -25.5q13 -3 18 -6t5 -11q-1 -6 -9.5 -9t-19.5 -3q-24 0 -43.5 1.5
t-38.5 2.5t-40 1q-20 0 -38.5 -1t-37.5 -2.5t-44 -1.5q-10 0 -16 2.5t-5 9.5q0 7 9.5 11t24.5 6q36 7 54.5 24t28.5 52l40 136q16 56 -11.5 87.5t-85.5 31.5q-29 0 -49.5 -4.5t-40.5 -14.5q-7 -4 -13 -12t-8 -16l-65 -208q-10 -34 2.5 -51t45.5 -25q13 -2 18 -5.5t4 -11.5
q-1 -6 -9 -9t-19 -3q-24 0 -43.5 1.5t-37 2.5t-38.5 1q-22 0 -43 -1t-43 -2.5t-46 -1.5z" />
  </g>

</svg>
