<?xml version="1.0" standalone="no"?>
<!DOCTYPE svg PUBLIC "-//W3C//DTD SVG 1.1//EN" "http://www.w3.org/Graphics/SVG/1.1/DTD/svg11.dtd" >
<svg xmlns="http://www.w3.org/2000/svg" xmlns:xlink="http://www.w3.org/1999/xlink" version="1.1" viewBox="-141 0 658 1000">
  <g transform="matrix(1 0 0 -1 0 800)">
   <path fill="currentColor"
d="M-117 -286q-5 0 -9.5 2.5t-4.5 7.5q0 8 9.5 13t17.5 7q25 5 38 12.5t19 28.5l214 668q26 93 67.5 148.5t88.5 80t85 24.5q45 0 72 -20t27 -52q0 -25 -13.5 -41t-29.5 -16q-10 0 -16.5 13t-14.5 31q-9 20 -22 32t-34 12q-25 0 -44.5 -17.5t-35.5 -51.5t-32 -84
q-11 -35 -22 -66.5t-21 -62t-20.5 -62l-22.5 -67.5q-4 -12 -1 -11t9 9q30 45 66.5 83.5t75 62t74.5 23.5q28 0 50.5 -20.5t22.5 -62.5t-17.5 -89.5t-49 -93.5t-72.5 -83t-88.5 -59.5t-95.5 -22.5q-17 0 -33 4t-31 12l23 23l-70 -236q-7 -21 6 -30t38 -14q9 -1 17 -4t7 -12
q0 -5 -7.5 -8t-17.5 -3h-33t-33 -0.5t-29 -1.5q-25 -1 -52.5 -3.5t-54.5 -2.5zM184 25q14 0 34 14.5t42 37.5t42 51q22 31 41.5 68.5t31 73t10.5 60.5t-18 30q-13 3 -33 -8t-43.5 -33t-46.5 -51q-12 -11 -27 -29t-30 -38.5t-27 -41.5t-19.5 -39.5t-7.5 -30.5q0 -28 17 -46
t34 -18z" />
  </g>

</svg>
