<?xml version="1.0" standalone="no"?>
<!DOCTYPE svg PUBLIC "-//W3C//DTD SVG 1.1//EN" "http://www.w3.org/Graphics/SVG/1.1/DTD/svg11.dtd" >
<svg xmlns="http://www.w3.org/2000/svg" xmlns:xlink="http://www.w3.org/1999/xlink" version="1.1" viewBox="-10 0 356 1000">
  <g transform="matrix(1 0 0 -1 0 800)">
   <path fill="currentColor"
d="M162 692q-7 0 -8 7q0 7 6 17q20 32 40.5 63t42.5 62q10 13 29 13q8 0 23.5 -3.5t28 -9t12.5 -13.5t-14 -20q-32 -27 -69.5 -54.5t-69.5 -51.5q-8 -6 -13 -8t-8 -2zM20 692q-7 0 -8 7q0 7 6 17q20 32 40.5 63t42.5 62q10 13 29 13q8 0 23.5 -3.5t28 -9t12.5 -13.5t-14 -20
q-32 -27 -69.5 -54.5t-69.5 -51.5q-8 -6 -13 -8t-8 -2z" />
  </g>

</svg>
