<?xml version="1.0" standalone="no"?>
<!DOCTYPE svg PUBLIC "-//W3C//DTD SVG 1.1//EN" "http://www.w3.org/Graphics/SVG/1.1/DTD/svg11.dtd" >
<svg xmlns="http://www.w3.org/2000/svg" xmlns:xlink="http://www.w3.org/1999/xlink" version="1.1" viewBox="-10 0 478 1000">
  <g transform="matrix(1 0 0 -1 0 800)">
   <path fill="currentColor"
d="M41 131q-9 0 -13 7.5t-4 13.5q0 9 7.5 15t17.5 6h247q7 0 12 -4t5 -9q0 -1 -0.5 -1.5t-0.5 -1.5q-5 -11 -13.5 -18.5t-20.5 -7.5h-237zM85 -16q-7 0 -15.5 4t-15 11.5t-6.5 15.5q0 11 5 25.5t13 36.5l95 247q4 12 3 21.5t-11 9.5q-16 0 -29 -5t-23 -12q-6 -4 -12 -2
t-6 10q-1 12 10 26t30 25q15 11 35 17.5t40 6.5q28 0 37 -14.5t5.5 -39t-16.5 -55.5l-43 -105q-4 -7 2.5 -9t9.5 4q38 67 76 116.5t73 77.5t63 28t40.5 -16t12.5 -39q0 -21 -8.5 -42t-22 -34.5t-28.5 -13.5q-9 0 -13.5 10t-6.5 28q-1 15 -5.5 25.5t-16.5 10.5t-29 -16.5
t-42 -51.5q-9 -14 -26 -39.5t-36 -56.5l-38 -62t-33 -56q-24 -43 -39 -65t-29 -22z" />
  </g>

</svg>
