<?xml version="1.0" standalone="no"?>
<!DOCTYPE svg PUBLIC "-//W3C//DTD SVG 1.1//EN" "http://www.w3.org/Graphics/SVG/1.1/DTD/svg11.dtd" >
<svg xmlns="http://www.w3.org/2000/svg" xmlns:xlink="http://www.w3.org/1999/xlink" version="1.1" viewBox="-10 0 738 1000">
  <g transform="matrix(1 0 0 -1 0 800)">
   <path fill="currentColor"
d="M73 -14q-31 0 -51 21.5t-20 54.5q0 38 16 83.5t43.5 93t63.5 88.5q41 47 81.5 72.5t74.5 25.5q17 0 29.5 -6.5t37.5 -22.5l16.5 -9t7.5 -5l63 208q4 12 5.5 18t2 7.5t0 3t-0.5 3.5q0 10 -7 17.5t-25 13.5q-19 8 -23 10t-4 5q0 7 7.5 11t25.5 8q14 3 32.5 6.5t36 6t31 4.5
t18.5 2q16 0 16 -14q0 -7 -1 -13t-5 -16l-124 -403q-3 -9 1 -11t10 6q60 78 114 122t94 44q34 0 56.5 -22.5t22.5 -55.5q0 -47 -19.5 -96.5t-52 -95.5t-74.5 -82t-86.5 -57.5t-88.5 -21.5q-45 0 -71 24.5t-26 66.5q0 19 3 40.5t10 44.5q-27 -34 -55 -66t-57.5 -57.5
t-61.5 -41t-66 -15.5zM127 51q24 0 54 18.5t59 49t54 67.5t39.5 73.5t14.5 67.5q0 28 -12 44t-35 16q-21 0 -48.5 -21t-55 -55t-51 -74t-38 -80t-14.5 -70q0 -20 7.5 -28t25.5 -8zM425 25q12 0 32 13.5t43 36.5t43 52q24 33 43.5 72t31.5 74.5t12 58.5q0 16 -8 26t-20 10
q-28 0 -66 -31.5t-86 -98.5q-34 -47 -54 -87.5t-20 -60.5q0 -25 14.5 -45t34.5 -20z" />
  </g>

</svg>
