<?xml version="1.0" standalone="no"?>
<!DOCTYPE svg PUBLIC "-//W3C//DTD SVG 1.1//EN" "http://www.w3.org/Graphics/SVG/1.1/DTD/svg11.dtd" >
<svg xmlns="http://www.w3.org/2000/svg" xmlns:xlink="http://www.w3.org/1999/xlink" version="1.1" viewBox="-10 0 628 1000">
  <g transform="matrix(1 0 0 -1 0 800)">
   <path fill="currentColor"
d="M195 -14q-44 0 -87 10.5t-71 26t-28 31.5t5.5 52.5t18.5 74.5q4 11 7.5 17t11.5 6t10 -8.5t2 -24.5q0 -72 34.5 -111.5t100.5 -39.5q46 0 82 17.5t61.5 46t39.5 62.5t14 67q1 36 -12.5 65t-40 46.5t-64.5 17.5q-10 0 -18 -1.5t-15 -3.5q-9 -2 -16.5 -5t-14.5 -3
q-10 0 -15 4t-5 13q0 8 3.5 14.5t15.5 17.5l239 220q6 6 3.5 10.5t-11.5 4.5h-149q-28 0 -55.5 -20.5t-55.5 -63.5q-6 -9 -14.5 -19t-17.5 -10q-8 0 -10.5 8t-1.5 13t4.5 14t8.5 18q8 15 12.5 29.5t9.5 30.5t12 37q3 13 12 16.5t15 3.5q8 0 17.5 -4t22.5 -9q11 -4 23.5 -6.5
t29.5 -2.5h175h37.5t23.5 0.5t22 1t33 0.5q5 0 7.5 -8t-3.5 -13l-263 -231q-12 -11 -15 -19t4 -7q10 2 19.5 3t18.5 1q47 0 78 -21t47.5 -55t16.5 -74q0 -43 -19.5 -85t-58.5 -77t-97.5 -56.5t-138.5 -21.5zM411 697q-9 0 -19 7t-19 17l-74 86q-6 8 -5 13q1 12 17 12
q7 0 25.5 -9.5t38.5 -22.5t31 -23q6 -4 13 -3.5t14 3.5q12 5 34.5 14t47 18t43.5 15.5t25 6.5q15 0 15 -11q0 -7 -8 -14l-129 -85q-18 -12 -29 -18t-21 -6z" />
  </g>

</svg>
