<?xml version="1.0" standalone="no"?>
<!DOCTYPE svg PUBLIC "-//W3C//DTD SVG 1.1//EN" "http://www.w3.org/Graphics/SVG/1.1/DTD/svg11.dtd" >
<svg xmlns="http://www.w3.org/2000/svg" xmlns:xlink="http://www.w3.org/1999/xlink" version="1.1" viewBox="-40 0 516 1000">
  <g transform="matrix(1 0 0 -1 0 800)">
   <path fill="currentColor"
d="M-16 -3q-4 0 -9 3.5t-4 8.5q2 7 9.5 11t17.5 6q27 5 46 14.5t26 34.5l90 288q9 28 1 40t-38 18q-7 2 -12 7t-3 13q2 6 10 9t13 3q18 0 35.5 -1t34.5 -2.5t34 -1.5t35 1.5t36.5 2.5t35.5 1q6 0 11.5 -3.5t3.5 -9.5q-2 -7 -10.5 -11.5t-17.5 -6.5q-29 -5 -45 -21t-25 -45
l-87 -281q-7 -23 -2 -31.5t22 -8.5h85q33 0 59.5 21.5t45.5 48.5q6 6 13 12t14 6t7.5 -6t-1.5 -12q-3 -8 -10 -21t-15.5 -27.5t-15.5 -26.5t-12 -19q-1 -4 -8 -8.5t-12 -4.5q-28 0 -60 0.5t-65.5 1.5t-66 2t-62.5 0q-25 -1 -49 -3t-55 -2zM70 -280q-17 0 -17 10q0 5 4.5 9.5
t14.5 6.5q25 5 47.5 18t36.5 30t14 34q0 12 -8 18t-19 11t-19 12.5t-8 24.5q0 20 17 32t42 12q27 0 46 -18.5t19 -54.5q0 -30 -16.5 -56t-43 -46t-56 -31.5t-54.5 -11.5z" />
  </g>

</svg>
