<?xml version="1.0" standalone="no"?>
<!DOCTYPE svg PUBLIC "-//W3C//DTD SVG 1.1//EN" "http://www.w3.org/Graphics/SVG/1.1/DTD/svg11.dtd" >
<svg xmlns="http://www.w3.org/2000/svg" xmlns:xlink="http://www.w3.org/1999/xlink" version="1.1" viewBox="-38 0 910 1000">
  <g transform="matrix(1 0 0 -1 0 800)">
   <path fill="currentColor"
d="M472 -205q-10 0 -14 6t0 17q2 7 5 13.5t8 13.5q14 20 30 45t28.5 47t15.5 32q5 16 -2 23.5t-28 7.5q-17 0 -30.5 -1t-29.5 -2.5t-41 -1.5q-11 0 -17 3t-5 9q4 13 35 19q40 8 57.5 24.5t27.5 47.5l61 193q2 6 3 11t-5 5h-311q-8 0 -12 -13l-60 -190q-10 -30 3 -49.5
t45 -27.5q13 -3 17.5 -7t3.5 -12q0 -6 -8 -9t-19 -3q-24 0 -43.5 1.5t-38.5 2.5t-39 1t-38 -1t-36.5 -2.5t-41.5 -1.5q-11 0 -16 2.5t-5 9.5q2 13 34 19q36 7 52 22t27 49l138 453q11 34 6.5 48t-37.5 22q-13 3 -17 8t-4 12q1 7 9.5 10t18.5 3q25 0 42 -1t32.5 -2t34.5 -1
t36.5 0.5t36.5 1.5t43 1q22 0 20 -12q-1 -8 -9.5 -12.5t-24.5 -7.5q-25 -5 -42 -14t-27 -22.5t-16 -33.5l-59 -193q-3 -10 10 -10h304q8 0 12 12l60 191q8 28 0.5 44.5t-42.5 25.5q-12 3 -16.5 7.5t-3.5 12.5q0 7 8.5 9.5t18.5 2.5q24 0 43.5 -1t38 -1.5t39.5 -0.5
q17 0 31 1t30.5 2t40.5 1q11 0 16.5 -3t4.5 -10q-2 -14 -34 -20q-37 -8 -50 -23.5t-23 -45.5l-142 -461q-6 -20 0.5 -30t19.5 -13.5t25 -7.5q13 -4 15 -9t-1 -12q-2 -9 -19 -29t-41.5 -47t-50.5 -58.5t-49 -63.5q-8 -12 -18.5 -19t-20.5 -7z" />
  </g>

</svg>
