<?xml version="1.0" standalone="no"?>
<!DOCTYPE svg PUBLIC "-//W3C//DTD SVG 1.1//EN" "http://www.w3.org/Graphics/SVG/1.1/DTD/svg11.dtd" >
<svg xmlns="http://www.w3.org/2000/svg" xmlns:xlink="http://www.w3.org/1999/xlink" version="1.1" viewBox="-52 0 855 1000">
  <g transform="matrix(1 0 0 -1 0 800)">
   <path fill="currentColor"
d="M28 -14q-35 0 -52.5 16.5t-17.5 38.5q0 25 14 47.5t36 22.5q12 0 21.5 -6.5t19.5 -13.5q8 -5 17 -9.5t18 -4.5q20 0 43 20t48.5 55.5t50.5 82t49 99t44.5 108t35.5 108.5q11 34 -10.5 49.5t-72.5 21.5q-13 1 -17 7t-4 13q1 7 9.5 10t18.5 3q24 0 43.5 -1t38 -2t39.5 -1
h254q20 0 37.5 0.5t37 1.5t42.5 1q22 0 21 -12q-1 -8 -10 -12.5t-24 -7.5q-26 -5 -43 -13t-27.5 -21.5t-16.5 -36.5l-139 -452q-10 -33 3 -48t46 -23q13 -3 18 -7t4 -12q-1 -6 -9 -9t-18 -3q-24 0 -44 1.5t-38.5 2.5t-39.5 1q-33 0 -63 -2.5t-66 -2.5q-10 0 -15.5 2.5
t-5.5 9.5q2 13 33 19q38 7 60.5 22t32.5 49l139 458q11 34 6 48t-41 14h-75q-23 0 -35.5 -11.5t-21.5 -42.5q-26 -92 -60 -177.5t-73 -158.5t-80 -127t-82 -84.5t-79 -30.5z" />
  </g>

</svg>
