<?xml version="1.0" standalone="no"?>
<!DOCTYPE svg PUBLIC "-//W3C//DTD SVG 1.1//EN" "http://www.w3.org/Graphics/SVG/1.1/DTD/svg11.dtd" >
<svg xmlns="http://www.w3.org/2000/svg" xmlns:xlink="http://www.w3.org/1999/xlink" version="1.1" viewBox="-10 0 368 1000">
  <g transform="matrix(1 0 0 -1 0 800)">
   <path fill="currentColor"
d="M287 319q-38 -1 -77.5 -13t-73 -35.5t-54 -57t-20.5 -78.5q0 -47 56 -47q13 0 38 2.5t42 2.5q16 0 31 -15t24.5 -35.5t9.5 -36.5q0 -31 -14.5 -64.5t-39.5 -61.5t-55 -45.5t-59 -17.5q-21 0 -33 17.5t-12 36.5q0 18 10.5 23.5t22.5 5.5q25 0 49.5 10t45 25t32.5 30.5
t13 26.5q0 7 -6.5 11t-15.5 4q-23 0 -53 -5.5t-55 -5.5q-26 0 -46 12.5t-31.5 35.5t-11.5 53q0 35 17 78t47 86.5t69 80t81.5 58.5t85.5 22q18 0 32 -12t11 -36t-18.5 -38.5t-41.5 -16.5z" />
  </g>

</svg>
