<?xml version="1.0" standalone="no"?>
<!DOCTYPE svg PUBLIC "-//W3C//DTD SVG 1.1//EN" "http://www.w3.org/Graphics/SVG/1.1/DTD/svg11.dtd" >
<svg xmlns="http://www.w3.org/2000/svg" xmlns:xlink="http://www.w3.org/1999/xlink" version="1.1" viewBox="-69 0 442 1000">
  <g transform="matrix(1 0 0 -1 0 800)">
   <path fill="currentColor"
d="M116 -15q-23 0 -47.5 16t-41 42t-16.5 52q0 55 21.5 112t58.5 105.5t84.5 78.5t99.5 30q43 0 65 -17.5t22 -44.5q0 -32 -20.5 -55.5t-54.5 -40.5t-74.5 -28t-81.5 -19q-5 -1 -8 -2.5t-5 -6.5q-5 -17 -10 -37t-6 -37q0 -35 15.5 -56.5t46.5 -21.5q33 0 57 16.5t43 36.5
q10 11 17 11q10 0 10 -10v-5t-2 -5q-20 -34 -46 -59.5t-57.5 -40t-69.5 -14.5zM138 244q15 2 40 9t50.5 21t43.5 35t18 51q0 12 -7 22t-20 10q-20 0 -42 -16t-42 -39t-33 -47t-15 -40q0 -7 7 -6zM22 -281q-23 0 -42 8.5t-29 21.5t-10 29q0 30 23 30q11 0 21 -6t19 -15
q12 -10 23 -18.5t26 -8.5q10 0 17 8t7 18q0 16 -10 26.5t-22 22.5q-10 11 -20 25t-10 31t18 40t44.5 46.5t54.5 39.5h33q-43 -34 -57.5 -58t-14.5 -38q0 -10 9.5 -21.5t20.5 -22.5q12 -11 21 -23t9 -25q0 -16 -14.5 -35t-35.5 -36t-43 -28t-38 -11z" />
  </g>

</svg>
