<?xml version="1.0" standalone="no"?>
<!DOCTYPE svg PUBLIC "-//W3C//DTD SVG 1.1//EN" "http://www.w3.org/Graphics/SVG/1.1/DTD/svg11.dtd" >
<svg xmlns="http://www.w3.org/2000/svg" xmlns:xlink="http://www.w3.org/1999/xlink" version="1.1" viewBox="-10 0 462 1000">
  <g transform="matrix(1 0 0 -1 0 800)">
   <path fill="currentColor"
d="M66 280q-4 0 -8.5 3t-3.5 7q2 5 7 8t11 4q11 2 21 8t14 17l65 209q16 49 40.5 81.5t53.5 52t57 27.5t51 8q22 0 36.5 -5t25.5 -15q8 -8 5 -17q-5 -14 -18.5 -25.5t-21.5 -11.5q-7 0 -11 5.5t-8 11.5q-5 10 -14.5 17.5t-25.5 7.5q-27 0 -52 -22.5t-43 -76.5l-24 -81
q39 21 63 31t45 10q37 0 52.5 -25.5t2.5 -66.5l-37 -115q-4 -12 2 -17.5t14 -7.5q5 -1 9.5 -4t2.5 -8q-1 -4 -7.5 -7t-10.5 -3q-16 0 -27.5 1t-27.5 1q-11 0 -19.5 -0.5l-17 -1t-19.5 -0.5q-4 0 -9 3t-4 7q2 5 6.5 8t10.5 4q10 2 20 7.5t14 18.5l32 105q8 26 -2 40t-32 14
q-14 0 -24.5 -1.5t-24.5 -9.5q-8 -4 -16.5 -13t-13.5 -27l-34 -108q-3 -11 2 -16.5t12 -9.5q5 -2 9 -4.5t2 -7.5q-1 -4 -7 -7t-10 -3q-14 0 -28 1t-29 1q-14 0 -27.5 -1t-28.5 -1z" />
  </g>

</svg>
