<?xml version="1.0" standalone="no"?>
<!DOCTYPE svg PUBLIC "-//W3C//DTD SVG 1.1//EN" "http://www.w3.org/Graphics/SVG/1.1/DTD/svg11.dtd" >
<svg xmlns="http://www.w3.org/2000/svg" xmlns:xlink="http://www.w3.org/1999/xlink" version="1.1" viewBox="-111 0 516 1000">
  <g transform="matrix(1 0 0 -1 0 800)">
   <path fill="currentColor"
d="M-23 -290q-35 0 -56.5 9t-21.5 27q0 16 9 26t21 10q7 0 20.5 -7.5t30.5 -15t35 -7.5q41 0 76 21.5t62 57t42 78t15 85.5q0 42 -16.5 70t-53.5 28q-20 0 -38.5 -9.5t-31.5 -18.5t-16 -11q-7 0 -13 3t-3 10q1 5 9.5 14t19 18.5t17.5 12.5q20 10 46 25t54 34q23 16 48.5 35
t43 43.5t17.5 56.5q0 29 -17.5 49.5t-48.5 20.5q-30 0 -48 -12.5t-35 -28.5q-13 -14 -21.5 -26.5t-18.5 -12.5q-5 0 -12.5 7t-13.5 16t-6 16q0 15 21.5 30t53.5 28t64.5 21t54.5 8q35 0 61 -14t40.5 -37t13.5 -51q0 -36 -25.5 -67t-64 -56.5t-78.5 -44.5q-8 -3 -1 -7
q36 -14 58 -34.5t32.5 -46.5t10.5 -57q0 -35 -19.5 -75t-53.5 -79t-77.5 -71t-91 -51.5t-94.5 -19.5z" />
  </g>

</svg>
