<?xml version="1.0" standalone="no"?>
<!DOCTYPE svg PUBLIC "-//W3C//DTD SVG 1.1//EN" "http://www.w3.org/Graphics/SVG/1.1/DTD/svg11.dtd" >
<svg xmlns="http://www.w3.org/2000/svg" xmlns:xlink="http://www.w3.org/1999/xlink" version="1.1" viewBox="-52 0 855 1000">
  <g transform="matrix(1 0 0 -1 0 800)">
   <path fill="currentColor"
d="M482 -216q-8 0 -10 7.5t-0.5 18.5t3.5 21q4 17 8.5 34.5t8.5 33.5q5 19 7.5 34.5t2.5 27.5q0 22 -11.5 31t-35.5 9q-23 0 -42.5 -1t-38 -2.5t-42.5 -1.5q-22 0 -20 12q0 8 9 12t24 7q35 7 55.5 23t29.5 47l139 459q11 34 6 48t-41 14h-75q-23 0 -35.5 -11.5t-21.5 -42.5
q-26 -92 -60 -177.5t-73 -158.5t-80 -127t-82 -84.5t-79 -30.5q-35 0 -52.5 16.5t-17.5 38.5q0 25 14 47.5t36 22.5q12 0 21.5 -6.5t19.5 -13.5q8 -5 17 -9.5t18 -4.5q20 0 43 20t48.5 55.5t50.5 82t49 99t44.5 108t35.5 108.5q11 34 -10.5 49.5t-72.5 21.5q-13 1 -17 7
t-4 13q1 7 9.5 10t18.5 3q24 0 43.5 -1t38 -2t39.5 -1h254q20 0 37.5 0.5t37 1.5t42.5 1q22 0 21 -12q-1 -8 -10 -12.5t-24 -7.5q-26 -5 -43 -13t-27.5 -21.5t-16.5 -36.5l-137 -445q-11 -37 -7 -53t43 -17q26 -1 30 -12.5t-1 -22.5q-10 -23 -32.5 -70.5t-45.5 -106.5
q-5 -14 -16.5 -26.5t-22.5 -12.5z" />
  </g>

</svg>
