<?xml version="1.0" standalone="no"?>
<!DOCTYPE svg PUBLIC "-//W3C//DTD SVG 1.1//EN" "http://www.w3.org/Graphics/SVG/1.1/DTD/svg11.dtd" >
<svg xmlns="http://www.w3.org/2000/svg" xmlns:xlink="http://www.w3.org/1999/xlink" version="1.1" viewBox="-186 0 446 1000">
  <g transform="matrix(1 0 0 -1 0 800)">
   <path fill="currentColor"
d="M-158 257q-5 -3 -12 7.5t-5 14.5q5 13 18.5 31t32.5 36t40 30t41 12t42 -8t45 -19q20 -8 41 -14t45 -6q21 0 38 8t31 17q13 9 21.5 16t15.5 7q5 0 10 -10t3 -14q-3 -9 -16.5 -26.5t-32.5 -35.5t-40.5 -31.5t-42.5 -13.5q-17 0 -38 7.5t-43 14.5q-24 9 -48.5 17t-47.5 8
q-15 0 -35.5 -9t-38 -21t-24.5 -18z" />
  </g>

</svg>
