<?xml version="1.0" standalone="no"?>
<!DOCTYPE svg PUBLIC "-//W3C//DTD SVG 1.1//EN" "http://www.w3.org/Graphics/SVG/1.1/DTD/svg11.dtd" >
<svg xmlns="http://www.w3.org/2000/svg" xmlns:xlink="http://www.w3.org/1999/xlink" version="1.1" viewBox="-200 0 200 1000">
  <g transform="matrix(1 0 0 -1 0 800)">
   <path fill="currentColor"
d="M-137 -228q-22 0 -37.5 11t-15.5 36t9.5 54t25.5 50t36 21q12 0 23 -2.5t18 -6.5t2 -12q-11 -19 -17.5 -38.5t-6.5 -33.5q0 -18 11 -18q8 0 14 2t11 4q4 2 7.5 2.5t8.5 0.5q4 0 6.5 -2t2.5 -8q0 -10 -13 -24.5t-35.5 -25t-49.5 -10.5z" />
  </g>

</svg>
