<?xml version="1.0" standalone="no"?>
<!DOCTYPE svg PUBLIC "-//W3C//DTD SVG 1.1//EN" "http://www.w3.org/Graphics/SVG/1.1/DTD/svg11.dtd" >
<svg xmlns="http://www.w3.org/2000/svg" xmlns:xlink="http://www.w3.org/1999/xlink" version="1.1" viewBox="-42 0 559 1000">
  <g transform="matrix(1 0 0 -1 0 800)">
   <path fill="currentColor"
d="M384 -14q-31 0 -51 14t-34 37q-7 12 -17 32.5t-19.5 43.5t-16.5 43q-4 11 -14.5 20t-28.5 9q-4 0 -12 -4t-10 -11l-32 -101q-6 -21 1.5 -30t31.5 -14q8 -1 13 -4t3 -10q-1 -5 -8 -8.5t-12 -3.5q-16 0 -32.5 1t-32.5 1.5t-31 0.5q-26 0 -51 -2t-49 -2q-5 0 -10 3.5t-3 8.5
q2 8 9.5 11t14.5 4q26 6 43 14.5t23 30.5l81 260q7 24 0.5 37t-31.5 16q-7 2 -12 6t-3 11q2 6 9 9t12 3q21 0 33.5 -1.5t25.5 -3t30 -1.5q22 0 51 3t61 3q68 0 99 -27.5t31 -65.5q0 -36 -31.5 -68t-82.5 -44q-11 -3 -9 -11q8 -33 24 -69t30 -59q7 -11 19 -21t25 -16t20 -7
q5 -1 10 -4t4 -10q-2 -10 -24.5 -17t-46.5 -7zM221 213q42 0 72 17t46 42t16 48q1 27 -18 44.5t-57 17.5q-16 0 -27 -5t-16 -22l-35 -117q-5 -16 1.5 -20.5t17.5 -4.5z" />
  </g>

</svg>
