<?xml version="1.0" standalone="no"?>
<!DOCTYPE svg PUBLIC "-//W3C//DTD SVG 1.1//EN" "http://www.w3.org/Graphics/SVG/1.1/DTD/svg11.dtd" >
<svg xmlns="http://www.w3.org/2000/svg" xmlns:xlink="http://www.w3.org/1999/xlink" version="1.1" viewBox="-72 0 766 1000">
  <g transform="matrix(1 0 0 -1 0 800)">
   <path fill="currentColor"
d="M-39 -5q-11 0 -16.5 3t-6.5 11q0 9 9 14t23 9q18 5 42 14t47.5 23.5t40.5 35.5l375 450q15 16 25 32t17.5 26t12.5 10q25 0 39 7t27 20q15 14 22 20.5t14 6.5t9.5 -9t-2.5 -35l-100 -514q-9 -40 3.5 -61.5t40.5 -27.5q14 -3 21 -7.5t6 -12.5q0 -6 -7 -10t-21 -4
q-15 0 -38.5 1.5t-49 2.5t-46.5 1h-39.5t-39.5 -1t-33 -1q-21 0 -22 13q-1 8 9.5 12.5t22.5 7.5q31 7 47.5 15t24.5 21.5t14 39.5l90 422q3 10 2.5 15.5t-4.5 5.5q-6 0 -17 -12l-333 -426q-22 -25 -24.5 -42t8 -26.5t26.5 -13.5q26 -6 25 -19q0 -7 -8.5 -10t-20.5 -3
q-19 0 -43.5 1t-52.5 1q-30 0 -61.5 -3t-57.5 -3z" />
  </g>

</svg>
