<?xml version="1.0" standalone="no"?>
<!DOCTYPE svg PUBLIC "-//W3C//DTD SVG 1.1//EN" "http://www.w3.org/Graphics/SVG/1.1/DTD/svg11.dtd" >
<svg xmlns="http://www.w3.org/2000/svg" xmlns:xlink="http://www.w3.org/1999/xlink" version="1.1" viewBox="-10 0 445 1000">
  <g transform="matrix(1 0 0 -1 0 800)">
   <path fill="currentColor"
d="M148 -14q-49 0 -70.5 18t-21.5 46.5t13 61.5q19 50 39.5 101t39.5 102q2 7 1 11.5t-4 4.5q-7 0 -22.5 -6.5t-33 -16.5t-28.5 -20q-3 -2 -8.5 -0.5t-5.5 6.5q0 4 3 12t12 18q18 22 42 39.5t49.5 30.5t46.5 20t33 7q16 0 25.5 -14.5t2.5 -29.5l-68 -152q-2 -5 1 -5.5t8 3.5
q28 27 61.5 42.5t64.5 15.5q34 0 52 -23.5t18 -58.5q0 -36 -21 -73.5t-57 -69t-80.5 -51t-91.5 -19.5zM168 11q26 0 51.5 18t46.5 46.5t34 60.5t13 59q0 20 -8 32.5t-19 12.5q-23 0 -48 -18t-47 -43q-25 -31 -41.5 -65.5t-16.5 -56.5q0 -16 8.5 -31t26.5 -15z" />
  </g>

</svg>
