<?xml version="1.0" standalone="no"?>
<!DOCTYPE svg PUBLIC "-//W3C//DTD SVG 1.1//EN" "http://www.w3.org/Graphics/SVG/1.1/DTD/svg11.dtd" >
<svg xmlns="http://www.w3.org/2000/svg" xmlns:xlink="http://www.w3.org/1999/xlink" version="1.1" viewBox="-14 0 849 1000">
  <g transform="matrix(1 0 0 -1 0 800)">
   <path fill="currentColor"
d="M88 -288q-41 0 -66.5 23.5t-25.5 59.5q0 32 8 57.5t26 50.5t47 54t69 68q11 11 12.5 21.5t2.5 18.5q20 100 34.5 188t24.5 163t15 135q3 31 -4.5 47t-41.5 23q-16 3 -22 8t-6 13q0 7 9 10t22 3q23 0 55 -2.5t62 -2.5q19 0 40 1t41 1h34q11 0 17.5 -3t6.5 -9
q-1 -8 -12 -13t-23 -7q-31 -5 -47 -17.5t-22 -48.5l-68 -401q-3 -14 -1.5 -15t4.5 -1q8 0 23 18l269 329q38 46 49 74.5t4 43t-24 18.5q-14 2 -19 7.5t-4 13.5q0 6 9.5 9t21.5 3q19 0 44 -1.5t51 -1.5q31 0 51 3t46 3q11 0 18 -3.5t7 -10.5t-11 -12.5t-26 -9.5
q-28 -7 -58.5 -26t-58.5 -52l-395 -466q-14 -18 -17 -30.5t-5 -30.5q-4 -42 -8 -78t-9 -68q-7 -53 -28.5 -88t-52.5 -51.5t-68 -17.5zM78 -233q10 0 20.5 7t19 25t12.5 51q3 26 7.5 55.5t8.5 61.5q1 5 -2 7t-8 -4q-35 -34 -54 -61.5t-26.5 -50.5t-7.5 -44t7 -34t23 -13z" />
  </g>

</svg>
