<?xml version="1.0" standalone="no"?>
<!DOCTYPE svg PUBLIC "-//W3C//DTD SVG 1.1//EN" "http://www.w3.org/Graphics/SVG/1.1/DTD/svg11.dtd" >
<svg xmlns="http://www.w3.org/2000/svg" xmlns:xlink="http://www.w3.org/1999/xlink" version="1.1" viewBox="-10 0 365 1000">
  <g transform="matrix(1 0 0 -1 0 800)">
   <path fill="currentColor"
d="M167 692q-67 0 -100 29.5t-33 68.5q0 27 19 51.5t48 24.5q19 0 29.5 -9t10.5 -24q0 -13 -5 -22.5t-9.5 -18t-4.5 -19.5q0 -13 11 -24t41 -11q56 0 91.5 27t57.5 72q4 9 7 12t8 3q7 0 7 -12q0 -21 -13 -46.5t-37.5 -48.5t-56.5 -38t-71 -15z" />
  </g>

</svg>
