<?xml version="1.0" standalone="no"?>
<!DOCTYPE svg PUBLIC "-//W3C//DTD SVG 1.1//EN" "http://www.w3.org/Graphics/SVG/1.1/DTD/svg11.dtd" >
<svg xmlns="http://www.w3.org/2000/svg" xmlns:xlink="http://www.w3.org/1999/xlink" version="1.1" viewBox="-10 0 796 1000">
  <g transform="matrix(1 0 0 -1 0 800)">
   <path fill="currentColor"
d="M147 -4q-10 0 -16 2.5t-5 9.5q0 7 9.5 11t24.5 6q38 8 61 24.5t33 51.5l126 427q15 53 13.5 69.5t-16.5 16.5h-104q-42 0 -72.5 -18t-30.5 -49q0 -13 8.5 -23t17.5 -18q9 -7 16 -14.5t7 -16.5q0 -10 -10 -21.5t-22.5 -19t-19.5 -7.5q-13 0 -26.5 12t-21.5 30.5t-8 36.5
q0 34 13 60t39 43.5t65.5 26t92.5 8.5l323 1q35 0 53 2t26.5 5.5t11.5 5.5q10 6 17 12t14 6q11 0 9 -13q0 -6 -3 -13t-6 -12q-10 -18 -22 -50t-21 -72q-2 -11 -6 -15.5t-10 -4.5q-8 0 -11.5 7t-3.5 20q0 44 -15 67.5t-55 23.5h-82q-14 0 -23 -6.5t-17 -25t-19 -56.5
l-125 -425q-9 -34 4 -50.5t47 -25.5q13 -3 18 -6t4 -11q-1 -6 -9 -9t-19 -3q-24 0 -44 1.5t-39 2.5t-39 1q-23 0 -44 -1t-42.5 -2.5t-45.5 -1.5z" />
  </g>

</svg>
