<?xml version="1.0" standalone="no"?>
<!DOCTYPE svg PUBLIC "-//W3C//DTD SVG 1.1//EN" "http://www.w3.org/Graphics/SVG/1.1/DTD/svg11.dtd" >
<svg xmlns="http://www.w3.org/2000/svg" xmlns:xlink="http://www.w3.org/1999/xlink" version="1.1" viewBox="-10 0 483 1000">
  <g transform="matrix(1 0 0 -1 0 800)">
   <path fill="currentColor"
d="M204 -11q-49 0 -75.5 21t-31.5 57.5t9 83.5l124 399q10 34 0 48.5t-45 22.5q-27 5 -23 20q2 7 10.5 10t19.5 3q25 0 45 -1t39 -2t41 -1t40 0.5t38 1.5t46 1q11 0 17 -2.5t4 -9.5q-2 -8 -11 -12.5t-24 -7.5q-28 -5 -45.5 -13t-28 -21.5t-17.5 -36.5l-113 -362
q-13 -44 -15.5 -68t7.5 -35q6 -14 20 -18.5t32 -1.5q18 1 33 8.5t27 16.5q8 3 16 -3t11 -15t-5 -16q-15 -15 -39 -30.5t-51.5 -26t-54.5 -10.5z" />
  </g>

</svg>
