<?xml version="1.0" standalone="no"?>
<!DOCTYPE svg PUBLIC "-//W3C//DTD SVG 1.1//EN" "http://www.w3.org/Graphics/SVG/1.1/DTD/svg11.dtd" >
<svg xmlns="http://www.w3.org/2000/svg" xmlns:xlink="http://www.w3.org/1999/xlink" version="1.1" viewBox="-16 0 550 1000">
  <g transform="matrix(1 0 0 -1 0 800)">
   <path fill="currentColor"
d="M10 -56q-6 0 -11 4.5t-5 11.5q0 11 8.5 22.5t20.5 11.5h299q7 0 11.5 -4.5t4.5 -11.5q0 -8 -11 -21t-26 -13h-291zM186 -285q-29 0 -52.5 2.5t-48.5 2.5q-24 0 -29.5 11t-1.5 24l75 247q8 26 8 59.5t-4 69.5l-20 199q-1 21 -8.5 34.5t-22.5 18.5q-7 3 -12 7.5t-3 11.5
t11 8.5t16 1.5q21 0 30 -1t16 -2.5t21 -1.5q19 0 30.5 1.5t24 2.5t33.5 1q6 0 14 -1.5t5 -8.5q-2 -8 -10 -11.5t-18 -7.5q-12 -3 -20.5 -15t-13.5 -27q-2 -8 -3.5 -15t-1.5 -13l12 -199q0 -11 9 -11q14 0 28 18.5t30 49t34 64.5q18 32 37 64.5t40 60t45.5 44.5t52.5 17
q20 0 28 -15t6 -36q0 -10 -4 -16.5t-11 -11.5q-12 4 -24.5 6t-29.5 2q-20 0 -39 -17.5t-37 -47t-37 -64.5q-21 -38 -42 -78.5t-45.5 -73.5t-56.5 -52l50 63q-11 -19 -19.5 -36.5t-14.5 -38.5l-70 -223q-3 -12 5 -19t21.5 -11t24.5 -8q7 -3 13.5 -6.5t4.5 -11.5q-1 -7 -10 -9
t-16 -2z" />
  </g>

</svg>
