<?xml version="1.0" standalone="no"?>
<!DOCTYPE svg PUBLIC "-//W3C//DTD SVG 1.1//EN" "http://www.w3.org/Graphics/SVG/1.1/DTD/svg11.dtd" >
<svg xmlns="http://www.w3.org/2000/svg" xmlns:xlink="http://www.w3.org/1999/xlink" version="1.1" viewBox="-10 0 713 1000">
  <g transform="matrix(1 0 0 -1 0 800)">
   <path fill="currentColor"
d="M374 -6q-19 0 -36.5 1.5t-40.5 3t-58 1.5q-37 0 -71 -2.5t-69 -2.5q-11 0 -16.5 3t-4.5 9q1 13 33 19q37 8 63 22.5t37 49.5l138 451q11 36 1.5 51t-42.5 15h-47q-31 0 -52.5 -14.5t-35.5 -35.5t-23 -37q-3 -7 -8 -12.5t-9.5 -9.5t-9.5 -4t-6.5 4t-0.5 14q2 8 9.5 29
t17.5 47t19 49q2 6 6 12.5t9 6.5q6 0 13.5 -2.5t15.5 -5.5q8 -2 15.5 -3.5t15.5 -1.5q28 0 62.5 -0.5t72.5 -0.5h58q20 0 38 0.5t37 1.5t43 1q11 0 18 -2.5t6 -9.5t-11.5 -12t-25.5 -8q-26 -5 -43.5 -13t-28 -21.5t-17.5 -36.5l-43 -148q-4 -15 -1 -23.5t14 -8.5
q19 0 35.5 2t35.5 2q42 0 82.5 -17.5t67.5 -53.5t27 -92q0 -67 -38 -116t-103.5 -75t-148.5 -26zM384 29q38 0 69 14.5t53.5 39.5t34.5 56.5t12 66.5q0 62 -29.5 99.5t-86.5 37.5q-24 0 -40.5 -11t-22.5 -30q-9 -30 -20 -65t-21 -69t-18 -62q-11 -42 9.5 -59.5t59.5 -17.5z
" />
  </g>

</svg>
