<?xml version="1.0" standalone="no"?>
<!DOCTYPE svg PUBLIC "-//W3C//DTD SVG 1.1//EN" "http://www.w3.org/Graphics/SVG/1.1/DTD/svg11.dtd" >
<svg xmlns="http://www.w3.org/2000/svg" xmlns:xlink="http://www.w3.org/1999/xlink" version="1.1" viewBox="-10 0 559 1000">
  <g transform="matrix(1 0 0 -1 0 800)">
   <path fill="currentColor"
d="M191 -14q-50 0 -84.5 12t-57.5 25q-8 5 -15.5 14.5t-7.5 21.5q1 20 1.5 50.5t9.5 67.5q2 9 7 15t13 6t11.5 -9t3.5 -28q0 -36 16.5 -68.5t45 -52.5t64.5 -20q50 0 91 26t65 71.5t24 103.5q0 57 -23 88t-64 31q-9 0 -16.5 -1.5t-16.5 -2.5q-8 -1 -17.5 -3t-20.5 -2
t-23 5.5t-12 20.5q0 16 18 23.5t34 7.5q13 0 20 -1t13 -3q8 -2 15.5 -4t21.5 -2q37 0 67.5 20t49 53t18.5 72q0 44 -24 73t-78 29q-52 0 -91 -30t-70 -91q-4 -9 -13 -18t-16 -9t-9.5 7t-1.5 13q1 10 7 28.5t14.5 41t17.5 44.5q5 11 13.5 15.5t13.5 4.5q13 1 29 5.5t33 8.5
q20 6 42 10t49 4q88 1 134.5 -35.5t46.5 -100.5q0 -41 -24 -73.5t-60 -53.5t-73 -29q-7 -1 -7.5 -5t4.5 -5q32 -8 56.5 -28.5t38.5 -49t14 -60.5q0 -58 -25.5 -102t-69 -73t-96 -43.5t-106.5 -14.5z" />
  </g>

</svg>
