<?xml version="1.0" standalone="no"?>
<!DOCTYPE svg PUBLIC "-//W3C//DTD SVG 1.1//EN" "http://www.w3.org/Graphics/SVG/1.1/DTD/svg11.dtd" >
<svg xmlns="http://www.w3.org/2000/svg" xmlns:xlink="http://www.w3.org/1999/xlink" version="1.1" viewBox="-38 0 705 1000">
  <g transform="matrix(1 0 0 -1 0 800)">
   <path fill="currentColor"
d="M-16 -5q-6 0 -9 4t-3 11q1 17 2.5 38.5t4.5 42t6 31.5q2 7 6.5 10t10.5 4q9 1 12 -11q3 -15 8.5 -35.5t16.5 -32.5q9 -8 23.5 -13.5t45.5 -5.5h100q32 1 50.5 14.5t29.5 48.5l60 190q4 16 -2 21t-21 5h-93q-19 0 -34 -13t-30 -39q-17 -29 -32 -29q-6 0 -6.5 5.5t3.5 14.5
q3 7 8 22t10 30.5t8 26.5q4 9 7.5 24t7 29t5.5 20q2 9 8 13.5t10 4.5q12 0 13 -20q0 -27 6.5 -40t34.5 -13h95q9 0 17 6t10 16l64 204q5 17 -6.5 26.5t-24.5 9.5h-112q-21 0 -40 -7t-37 -21q-11 -8 -22 -24.5t-24 -36.5q-4 -6 -8 -9t-9 -3q-4 0 -8 3.5t-1 13.5
q7 22 21.5 51.5t28.5 60.5q3 7 11 9.5t13 2.5q4 0 26.5 -1.5t55.5 -1.5q37 -1 81 -1.5t83 -0.5q31 0 57 1t52.5 2t59.5 1q12 0 18 -3.5t4 -9.5q-1 -7 -10 -12t-26 -8q-39 -7 -57.5 -22t-28.5 -49l-141 -452q-10 -34 2.5 -48.5t45.5 -22.5q28 -6 24 -19q-2 -6 -10 -9t-20 -3
q-25 0 -44 1.5t-37.5 2.5t-40.5 1q-39 0 -82.5 -1t-86.5 -2t-83.5 -2t-76.5 -1z" />
  </g>

</svg>
