<?xml version="1.0" standalone="no"?>
<!DOCTYPE svg PUBLIC "-//W3C//DTD SVG 1.1//EN" "http://www.w3.org/Graphics/SVG/1.1/DTD/svg11.dtd" >
<svg xmlns="http://www.w3.org/2000/svg" xmlns:xlink="http://www.w3.org/1999/xlink" version="1.1" viewBox="-10 0 451 1000">
  <g transform="matrix(1 0 0 -1 0 800)">
   <path fill="currentColor"
d="M116 -15q-23 0 -47.5 16t-41 42t-16.5 52q0 55 21.5 112t58.5 105.5t84.5 78.5t99.5 30q43 0 65 -17.5t22 -44.5q0 -32 -20.5 -55.5t-54.5 -40.5t-74.5 -28t-81.5 -19q-5 -1 -8 -2.5t-5 -6.5q-5 -17 -10 -37t-6 -37q0 -35 15.5 -56.5t46.5 -21.5q33 0 57 16.5t43 36.5
q10 11 17 11q10 0 10 -10v-5t-2 -5q-20 -34 -46 -59.5t-57.5 -40t-69.5 -14.5zM138 244q15 2 40 9t50.5 21t43.5 35t18 51q0 12 -7 22t-20 10q-20 0 -42 -16t-42 -39t-33 -47t-15 -40q0 -7 7 -6zM279 472q-36 0 -60.5 12t-37 31t-12.5 39q0 31 16.5 50t38.5 19
q17 0 24.5 -7.5t7.5 -16.5q0 -10 -5 -21.5t-5 -24.5q0 -17 10.5 -25.5t35.5 -8.5q31 0 58 15t47 53q9 16 13.5 20.5t11.5 4.5q5 0 7 -4.5t2 -8.5q0 -20 -12.5 -42t-33.5 -41.5t-48.5 -31.5t-57.5 -12z" />
  </g>

</svg>
