<?xml version="1.0" standalone="no"?>
<!DOCTYPE svg PUBLIC "-//W3C//DTD SVG 1.1//EN" "http://www.w3.org/Graphics/SVG/1.1/DTD/svg11.dtd" >
<svg xmlns="http://www.w3.org/2000/svg" xmlns:xlink="http://www.w3.org/1999/xlink" version="1.1" viewBox="-10 0 522 1000">
  <g transform="matrix(1 0 0 -1 0 800)">
   <path fill="currentColor"
d="M99 -15q-7 0 -16.5 6t-16.5 15t-7 17v13t2 9.5l6 16.5q15 40 31.5 82.5t31.5 86t25 85.5q5 18 6 27.5t-9 9.5q-13 0 -31.5 -6.5t-42.5 -36.5q-4 -4 -10.5 -3.5t-6.5 8.5q0 7 3.5 17t10 20.5t11.5 16.5q19 21 42.5 36.5t62.5 15.5q21 0 34 -9.5t17 -25.5t-3 -35l-46 -129
q-4 -10 0.5 -9.5t8.5 6.5q30 39 64 75t67.5 65t62 45.5t47.5 16.5q32 0 45.5 -20t12.5 -44q0 -16 -12 -16q-5 0 -13.5 1.5t-18.5 2.5q-9 1 -17.5 2t-15.5 1q-21 0 -43.5 -10.5t-44.5 -26.5t-40 -33.5t-32 -31.5q-4 -4 -4 -7t2 -6q22 -25 36.5 -59.5t26.5 -69.5
q6 -17 15.5 -30t21.5 -13t25.5 8t27.5 21.5t26 27.5q7 9 10 13t7 4q3 0 5.5 -3t2.5 -10q0 -17 -17 -39.5t-41.5 -45t-49 -37t-40.5 -14.5q-18 0 -30.5 12.5t-23.5 41.5l-37 102q-6 19 -12.5 26.5t-17.5 7.5q-6 0 -11 -7t-9 -16q-16 -39 -27 -72t-22 -64q-7 -17 -13 -24.5
t-16 -7.5zM306 473q-9 0 -10 8t3 16l74 150q7 12 14 20t16 8q6 0 17 -7t20 -16t9 -18q0 -5 -5 -13.5t-15 -19.5l-97 -112q-5 -6 -12 -11t-14 -5z" />
  </g>

</svg>
