<?xml version="1.0" standalone="no"?>
<!DOCTYPE svg PUBLIC "-//W3C//DTD SVG 1.1//EN" "http://www.w3.org/Graphics/SVG/1.1/DTD/svg11.dtd" >
<svg xmlns="http://www.w3.org/2000/svg" xmlns:xlink="http://www.w3.org/1999/xlink" version="1.1" viewBox="-10 0 521 1000">
  <g transform="matrix(1 0 0 -1 0 800)">
   <path fill="currentColor"
d="M116 -288q-10 0 -18 3.5t-7 9.5q2 5 7 9.5t13 8.5q22 11 43.5 25t44.5 42q32 36 57.5 78t41 84.5t15.5 81.5q0 29 -4 47.5t-14 33.5q-12 21 -36.5 32t-60.5 11q-5 0 -11 -6.5t-10 -16.5q-17 -39 -27.5 -73t-21.5 -65q-7 -17 -13 -24.5t-16 -7.5q-7 0 -16.5 6t-16.5 15
t-7 17v13t2 9.5l6 16.5q15 40 31 82.5t31 86t26 85.5q3 9 4.5 16t1.5 11q0 10 -9 10q-13 0 -30.5 -7t-43.5 -36q-4 -4 -8 -4t-6.5 2.5t-2.5 6.5q0 7 4 17.5t10 20.5t11 16q19 21 42.5 36.5t62.5 15.5q25 0 38.5 -14t13.5 -34q0 -11 -4 -22l-46 -129q1 2 -1 -3.5t2 -5.5t8 6
q29 39 63 75t67.5 65t62.5 45.5t48 16.5q32 0 45 -20t13 -44q0 -16 -12 -16q-5 0 -13.5 1.5t-18.5 2.5q-9 1 -17.5 2t-15.5 1q-21 0 -44.5 -11t-47 -28.5t-43.5 -36.5t-34 -34q-4 -5 -4 -9t13 -6q50 -3 81.5 -22t46.5 -51.5t15 -77.5q0 -31 -16 -74t-42.5 -88t-57.5 -81
q-27 -30 -58.5 -57t-62.5 -43.5t-54 -16.5z" />
  </g>

</svg>
