<?xml version="1.0" standalone="no"?>
<!DOCTYPE svg PUBLIC "-//W3C//DTD SVG 1.1//EN" "http://www.w3.org/Graphics/SVG/1.1/DTD/svg11.dtd" >
<svg xmlns="http://www.w3.org/2000/svg" xmlns:xlink="http://www.w3.org/1999/xlink" version="1.1" viewBox="-22 0 487 1000">
  <g transform="matrix(1 0 0 -1 0 800)">
   <path fill="currentColor"
d="M297 -287q-23 0 -40 19t-29 49t-18 63q-6 38 -1 88.5t29 107.5l47 111q5 9 3.5 13.5t-6.5 -1.5q-58 -64 -101 -103.5t-76 -56.5t-63 -17q-12 0 -25 7t-21 17.5t-8 21.5q0 34 21.5 78t64 96.5t103.5 111.5q50 47 85.5 72.5t52.5 25.5q20 0 39 -19q11 -14 10.5 -13t0.5 1
q2 0 3.5 1t2.5 5q12 20 15 25.5t2 5.5q5 10 16 10t23 -4.5t20 -11t8 -13.5q0 -2 -1.5 -6.5l-4.5 -13.5l-126 -334q-10 -27 -20 -60.5t-17.5 -68t-10.5 -65t1 -51.5q5 -29 17 -42t28 -19q4 -2 7 -6.5t1 -11.5q-2 -6 -12 -9t-20 -3zM116 64q20 0 61 35t91 94q36 42 56.5 76.5
t20.5 51.5q0 8 -15 21q-8 6 -16 9.5t-13 3.5q-18 0 -47.5 -18t-54.5 -42q-29 -28 -55 -64.5t-42 -72t-16 -59.5q0 -16 8 -25.5t22 -9.5z" />
  </g>

</svg>
