<?xml version="1.0" standalone="no"?>
<!DOCTYPE svg PUBLIC "-//W3C//DTD SVG 1.1//EN" "http://www.w3.org/Graphics/SVG/1.1/DTD/svg11.dtd" >
<svg xmlns="http://www.w3.org/2000/svg" xmlns:xlink="http://www.w3.org/1999/xlink" version="1.1" viewBox="-11 0 452 1000">
  <g transform="matrix(1 0 0 -1 0 800)">
   <path fill="currentColor"
d="M251 247h103q6 0 11 -4t5 -9q0 -1 -0.5 -1.5t-0.5 -2.5q-4 -10 -12.5 -18t-21.5 -8h-128zM163 156h-107q-9 0 -13 8t-4 13q0 9 7.5 15t17.5 6h143zM242 -34q-27 0 -49.5 15.5t-41.5 33.5q-17 14 -31.5 26t-26.5 12q-29 0 -45 -18t-16 -41q0 -10 -5.5 -12t-9.5 -2
q-5 0 -10.5 9t-6.5 19q-1 11 4.5 25.5t20.5 27.5l290 271l28 4q-12 -14 -26 -21t-28 -7q-17 0 -33.5 8.5t-33.5 19.5q-18 11 -37 19.5t-39 8.5q-17 0 -29.5 -15t-12.5 -30q0 -10 2.5 -20t7.5 -19q7 -10 0 -18q-7 -7 -22.5 -14.5t-20.5 -7.5q-6 0 -14.5 10t-8.5 28
q0 30 14 50t40 43q13 11 32 22.5t38 19.5t31 8q19 0 35.5 -5.5t35.5 -11.5q18 -7 35.5 -13t32.5 -6q16 0 25 5t21 16q5 5 14 11.5t17 6.5q3 0 7.5 -4t4.5 -9q0 -7 -10 -21.5t-24 -28.5l-288 -277l-19 8q13 11 23 16t23 5q23 0 43 -13t39 -30q18 -14 35.5 -27t35.5 -13
q19 0 28 13t12.5 33t3.5 41q0 18 2.5 26.5t11.5 8.5q12 0 24 -13.5t12 -39.5q0 -21 -16 -44t-40 -43t-47 -33t-38 -13z" />
  </g>

</svg>
