<?xml version="1.0" standalone="no"?>
<!DOCTYPE svg PUBLIC "-//W3C//DTD SVG 1.1//EN" "http://www.w3.org/Graphics/SVG/1.1/DTD/svg11.dtd" >
<svg xmlns="http://www.w3.org/2000/svg" xmlns:xlink="http://www.w3.org/1999/xlink" version="1.1" viewBox="-88 0 542 1000">
  <g transform="matrix(1 0 0 -1 0 800)">
   <path fill="currentColor"
d="M36 -289q-54 0 -84 13.5t-30 41.5q0 19 11.5 32t27.5 13q8 0 18.5 -8.5t23.5 -18.5t29.5 -19t36.5 -9q41 0 76.5 20.5t62.5 53.5t43 71t16 73q0 51 -21 84.5t-70 33.5q-15 0 -31 -8q-11 -3 -20.5 -6.5t-16.5 -3.5q-3 0 -11 3.5t-9 14.5q-1 12 5 20t20 22l185 176
q-3 5 -15 12.5t-29 14.5q-9 5 -22.5 12t-30.5 10q-18 5 -36.5 4t-34.5 -6q-13 -4 -22.5 -17.5t-7.5 -26.5q1 -7 2.5 -15t4.5 -16q0 -6 -5 -10.5t-10 -8.5q-7 -5 -20.5 -7t-16.5 5q-4 10 -4 22.5t8 31.5q4 16 14 30.5t24 26.5t29 23q13 8 30.5 14.5t35 10t29.5 2.5
q23 -1 48.5 -8.5t48.5 -14.5t38 -7t24 5.5t21 15.5q5 5 14.5 11.5t16.5 6.5q4 0 8 -4t4 -9q0 -7 -10 -21.5t-24 -28.5l-223 -216q-10 -11 -8 -15t8 -2q8 2 21 4.5t28 2.5q36 0 65.5 -18t46.5 -47.5t17 -66.5q0 -36 -20 -76.5t-55 -80t-77.5 -71.5t-88 -51.5t-88.5 -19.5z
M271 465q-8 0 -11.5 8t-8.5 26q-4 16 -8.5 36.5t-8.5 41.5t-6.5 38t-3.5 25q-1 9 1.5 18.5t10.5 9.5q11 0 21 -22q6 -15 16.5 -38.5t20.5 -46.5q3 -7 10 0q23 23 48 46.5t41 39.5q10 8 18.5 14.5t13.5 6.5q10 0 10 -10q0 -5 -2.5 -10.5t-7.5 -11.5q-11 -15 -30 -39
t-39 -48.5t-34 -41.5t-28 -29.5t-23 -12.5z" />
  </g>

</svg>
