<?xml version="1.0" standalone="no"?>
<!DOCTYPE svg PUBLIC "-//W3C//DTD SVG 1.1//EN" "http://www.w3.org/Graphics/SVG/1.1/DTD/svg11.dtd" >
<svg xmlns="http://www.w3.org/2000/svg" xmlns:xlink="http://www.w3.org/1999/xlink" version="1.1" viewBox="-10 0 553 1000">
  <g transform="matrix(1 0 0 -1 0 800)">
   <path fill="currentColor"
d="M303 -14q-18 0 -29 15t-11 32q0 5 3 14t9 21q12 28 25 56t25.5 54.5t22.5 50.5q5 9 3 11.5t-7 -3.5q-25 -30 -61.5 -53t-73.5 -36t-64 -13q-23 0 -41 12.5t-24 35.5t8 54l34 72q6 14 7.5 20.5t-6.5 6.5q-6 0 -18.5 -7t-26 -17.5t-22.5 -22.5q-4 -4 -8 -7.5t-7 -3.5
q-8 0 -8 9q0 5 3 12t11 18q23 31 54.5 54.5t62 38t48.5 14.5t24 -13.5t-6 -41.5l-51 -109q-10 -23 -7 -36.5t12.5 -19.5t20.5 -6q20 0 48 12t55 32.5t45 45.5q13 17 27.5 43t29.5 63q4 8 13 13t19.5 8t20.5 4.5t16 1.5q18 0 16.5 -14t-9.5 -33l-113 -278q-12 -30 1 -31
q9 -1 21 5.5t24 15.5t21 16.5t12 10.5q3 1 8 3.5t11 6.5t9 8q8 1 8 -5q2 -3 2 -7.5t-2 -7.5q-11 -18 -27 -35.5t-35.5 -34t-40 -28.5t-41.5 -19.5t-41 -7.5zM207 64q-11 0 -19.5 8t-4.5 21l71 231q3 7 8.5 11.5t11.5 4.5q8 0 17.5 -10.5t4.5 -25.5l-69 -224q-2 -6 -7.5 -11
t-12.5 -5z" />
  </g>

</svg>
