<?xml version="1.0" standalone="no"?>
<!DOCTYPE svg PUBLIC "-//W3C//DTD SVG 1.1//EN" "http://www.w3.org/Graphics/SVG/1.1/DTD/svg11.dtd" >
<svg xmlns="http://www.w3.org/2000/svg" xmlns:xlink="http://www.w3.org/1999/xlink" version="1.1" viewBox="-51 0 559 1000">
  <g transform="matrix(1 0 0 -1 0 800)">
   <path fill="currentColor"
d="M21 -14q-22 0 -35.5 12.5t-20 29t-6.5 27.5q1 7 4 14t11 7q4 0 8.5 -1t11.5 -4q7 -1 18 -3.5t29 -2.5q27 0 46.5 8t28.5 26l120 200q36 60 76 91t91 31q6 0 13.5 -3.5t12.5 -9t5 -10.5q0 -6 -1.5 -13t-3.5 -15l-96 -280q-8 -28 6 -28q10 0 25 9t31.5 22.5t29.5 24.5
t18 16q2 2 3.5 3t2.5 1q4 0 6.5 -4t2.5 -9q-1 -6 -4 -13.5t-11 -17.5q-17 -20 -38.5 -39t-44.5 -34.5t-44.5 -25t-38.5 -9.5q-15 0 -26.5 11t-17 25.5t-2.5 22.5l104 292q3 9 1.5 15.5t-7.5 6.5q-13 0 -28.5 -21t-28.5 -41q-5 -8 -19.5 -33t-34 -59t-41.5 -70t-42.5 -65.5
t-36.5 -46.5q-20 -21 -39.5 -29t-37.5 -8z" />
  </g>

</svg>
