<?xml version="1.0" standalone="no"?>
<!DOCTYPE svg PUBLIC "-//W3C//DTD SVG 1.1//EN" "http://www.w3.org/Graphics/SVG/1.1/DTD/svg11.dtd" >
<svg xmlns="http://www.w3.org/2000/svg" xmlns:xlink="http://www.w3.org/1999/xlink" version="1.1" viewBox="-10 0 558 1000">
  <g transform="matrix(1 0 0 -1 0 800)">
   <path fill="currentColor"
d="M153 -235q-7 0 -11 2t-3 6q1 5 4 6.5t10 4.5q44 19 69.5 35t43.5 45q23 36 40.5 56.5t38.5 41.5q15 16 38.5 35.5t51.5 49.5l-6 11l60 51q-10 -21 -30.5 -56t-39.5 -76q-23 -52 -52.5 -98t-76.5 -76q-15 -9 -32 -16t-35.5 -12t-36.5 -7.5t-33 -2.5zM84 -15q-11 0 -20 6
t-14 15.5t-5 19.5q0 6 1 10l2 8l114 282q4 11 4.5 19t-9.5 8q-13 0 -33.5 -9t-45.5 -26q-5 -4 -11 -4t-6 8q1 11 18 27.5t42 32.5t52 27.5t48 11.5q17 0 29 -19.5t4 -38.5l-48 -120q-2 -8 1 -10t6 -2l128 4q3 0 6 2.5t5 8.5l56 137q6 12 20.5 20.5t30 13t22.5 4.5
q9 0 12.5 -5.5t2.5 -17.5q0 -4 -6 -16.5t-16 -37.5l-98 -249q-11 -30 0 -31q8 0 21 6t25.5 15t22 17t12.5 10q3 1 8 4t11 7t9 8q8 1 8 -5q2 -3 1.5 -7.5t-2.5 -7.5q-13 -18 -29.5 -35.5t-36 -34t-40 -28.5t-40 -19.5t-37.5 -7.5q-12 0 -22.5 9.5t-15 22t-0.5 22.5l57 142
q4 8 4 10.5t-6 2.5l-129 -4q-3 0 -7 -1t-7 -7l-70 -178q-3 -9 -11.5 -14.5t-17.5 -5.5z" />
  </g>

</svg>
