<?xml version="1.0" standalone="no"?>
<!DOCTYPE svg PUBLIC "-//W3C//DTD SVG 1.1//EN" "http://www.w3.org/Graphics/SVG/1.1/DTD/svg11.dtd" >
<svg xmlns="http://www.w3.org/2000/svg" xmlns:xlink="http://www.w3.org/1999/xlink" version="1.1" viewBox="-10 0 756 1000">
  <g transform="matrix(1 0 0 -1 0 800)">
   <path fill="currentColor"
d="M433 -236q-5 0 -10.5 2t-5.5 8q0 5 3 7t7 3q29 10 54.5 28.5t41.5 67.5q9 27 18 45t23 40q8 12 19.5 25.5t24.5 28.5t24 29l-7 10l56 40q-21 -24 -33.5 -58t-17.5 -61q-10 -56 -26.5 -102t-56.5 -72q-19 -12 -43.5 -21.5t-45 -14.5t-25.5 -5zM62 -14q-16 0 -23.5 14
t-6.5 34t9 38l94 222q7 16 8 27t-7 11q-5 0 -16.5 -7t-25 -18t-25.5 -21q-4 -5 -9.5 -9.5t-8.5 -4.5t-5 2.5t-2 5.5q0 6 2.5 14.5t9.5 18.5q27 35 56 59t57 37t48 13q9 0 18.5 -9t15.5 -20.5t2 -21.5q-27 -59 -54.5 -119t-59.5 -130q-8 -19 -9 -33.5t9 -14.5q11 0 31 18
t46.5 47.5t54.5 64.5t54 70t46 64.5t30 46.5q11 18 19.5 27t16.5 9q13 0 22 -7t12 -15q2 -4 0.5 -13t-8.5 -23q-15 -35 -32.5 -76t-36 -83.5t-35.5 -81.5q-8 -19 -9 -33.5t9 -14.5q11 0 31.5 18t47 47.5t54.5 64.5t54.5 70t46.5 64.5t30 46.5q11 18 19.5 27t16.5 9
q10 0 19 -6t12 -13q2 -5 1 -14.5t-7 -23.5l-110 -269q-6 -15 -5.5 -24t8.5 -9q12 0 31 13t40 30t35 32q2 1 3 1q4 0 7.5 -3t3.5 -8t-5 -12.5t-13.5 -16t-18.5 -17t-20.5 -15t-19.5 -10.5q-17 -17 -38.5 -30t-44 -20t-45.5 -4q-9 2 -15.5 16.5t-1.5 25.5q12 26 25.5 56t26 57
t19.5 46q4 11 -1.5 11t-10.5 -6q-43 -51 -78 -92t-64 -70t-55 -44.5t-52 -15.5q-16 0 -23.5 13.5t-6.5 33.5t9 38l60 132q5 11 -1 12t-11 -5q-43 -52 -78 -93.5t-64.5 -70.5t-55.5 -44.5t-52 -15.5z" />
  </g>

</svg>
