<?xml version="1.0" standalone="no"?>
<!DOCTYPE svg PUBLIC "-//W3C//DTD SVG 1.1//EN" "http://www.w3.org/Graphics/SVG/1.1/DTD/svg11.dtd" >
<svg xmlns="http://www.w3.org/2000/svg" xmlns:xlink="http://www.w3.org/1999/xlink" version="1.1" viewBox="-96 0 471 1000">
  <g transform="matrix(1 0 0 -1 0 800)">
   <path fill="currentColor"
d="M208 -288q-42 0 -71.5 25.5t-44 70.5t-14.5 103v569q0 31 -3 58q-12 -1 -23 -2.5t-21 -1.5q-26 0 -53.5 9t-45.5 27.5t-18 47.5t18 48.5t45.5 29.5t56.5 10q49 0 78.5 -32t42.5 -86q15 4 27.5 8.5t23.5 10.5l4 2t3 1q8 0 11.5 -8t3.5 -15q0 -3 -2 -5l-4 -4
q-7 -5 -22.5 -10.5t-36.5 -11.5q4 -23 5.5 -47t1.5 -50v-500q0 -81 7.5 -127t21 -65t33.5 -19q25 0 34.5 13.5t9.5 28.5q0 8 8 18.5t21 20t26 15.5t22 6q8 0 10 -10t2 -23q0 -33 -21 -57t-56.5 -36t-79.5 -12zM49 579h12t12 1q-7 39 -23 61t-37 22q-14 0 -25.5 -10.5
t-11.5 -25.5q0 -24 23.5 -36t49.5 -12z" />
  </g>

</svg>
