<?xml version="1.0" standalone="no"?>
<!DOCTYPE svg PUBLIC "-//W3C//DTD SVG 1.1//EN" "http://www.w3.org/Graphics/SVG/1.1/DTD/svg11.dtd" >
<svg xmlns="http://www.w3.org/2000/svg" xmlns:xlink="http://www.w3.org/1999/xlink" version="1.1" viewBox="-10 0 468 1000">
  <g transform="matrix(1 0 0 -1 0 800)">
   <path fill="currentColor"
d="M170 -14q-34 0 -55.5 11.5t-31 30t-9.5 37.5q0 26 14.5 60t38 70.5t50 70t50.5 58.5q9 8 4.5 13t-12.5 6q-19 5 -31.5 6.5t-22.5 1.5q-40 0 -63 -9t-23 -30q0 -14 4.5 -23t9.5 -15q8 -8 14 -15t6 -14q0 -17 -10.5 -25.5t-27.5 -8.5q-16 0 -31.5 15.5t-15.5 32.5
q0 29 19 65.5t48 60.5q20 16 36.5 25t38.5 9q28 0 50.5 -5t39.5 -9t31 -4q10 0 19.5 6t18.5 12t15 8q7 0 9.5 -5.5t-4.5 -12.5q-18 -20 -38 -42.5t-39.5 -47t-35.5 -49.5t-26 -49q-2 -5 0.5 -6t6.5 3q19 18 41.5 32t46.5 22.5t44 8.5q34 0 52.5 -23.5t18.5 -58.5
q1 -36 -20.5 -73.5t-57.5 -69t-80.5 -51t-91.5 -19.5zM190 11q26 0 51.5 18t47 46.5t34 60.5t12.5 59q0 20 -8 32.5t-19 12.5q-22 0 -48 -18t-47 -43q-24 -31 -40.5 -65.5t-16.5 -56.5q0 -16 8.5 -31t25.5 -15z" />
  </g>

</svg>
