<?xml version="1.0" standalone="no"?>
<!DOCTYPE svg PUBLIC "-//W3C//DTD SVG 1.1//EN" "http://www.w3.org/Graphics/SVG/1.1/DTD/svg11.dtd" >
<svg xmlns="http://www.w3.org/2000/svg" xmlns:xlink="http://www.w3.org/1999/xlink" version="1.1" viewBox="-10 0 630 1000">
  <g transform="matrix(1 0 0 -1 0 800)">
   <path fill="currentColor"
d="M208 -14q-59 0 -99.5 24.5t-60.5 63.5t-20 83q0 46 22 90.5t67.5 76t114.5 40.5q12 2 24.5 6t22 9t10.5 10q1 2 0 3.5t-2 4.5l-90 206q-3 8 -6.5 17t-3.5 14q1 9 12.5 16t16.5 7q10 0 31 -1.5t41.5 -3.5t27.5 -2h164q11 0 27 0.5t30.5 2t20.5 3.5q12 6 23 12.5t17 6.5
q7 0 10 -4.5t1 -16.5q-4 -23 -8 -43.5t-7 -39t-5 -34.5q0 -7 -1 -13.5t-3 -10.5q-2 -7 -6 -11.5t-11 -4.5q-10 0 -13 8t-3 17q-1 45 -15 68.5t-47 23.5h-154q-11 0 -16.5 -3t-6.5 -7q-1 -3 0.5 -10t8.5 -22l73 -156q16 -33 16 -41q0 -5 -3 -13q-5 -15 -22.5 -19t-35.5 -4
q-8 0 -14 0.5t-11 0.5q-60 0 -99.5 -28t-58.5 -69.5t-19 -85.5q0 -34 12 -63.5t36 -47.5t59 -18q51 0 92.5 22t78.5 75q17 23 27.5 35.5t13.5 12.5q8 0 14 -5t4 -11q-10 -28 -22 -54.5t-22 -49.5q-7 -13 -22 -22.5t-26 -14.5q-29 -12 -75 -21t-110 -9z" />
  </g>

</svg>
