<?xml version="1.0" standalone="no"?>
<!DOCTYPE svg PUBLIC "-//W3C//DTD SVG 1.1//EN" "http://www.w3.org/Graphics/SVG/1.1/DTD/svg11.dtd" >
<svg xmlns="http://www.w3.org/2000/svg" xmlns:xlink="http://www.w3.org/1999/xlink" version="1.1" viewBox="-10 0 738 1000">
  <g transform="matrix(1 0 0 -1 0 800)">
   <path fill="currentColor"
d="M325 -14q-45 0 -89.5 18.5t-82 52.5t-59.5 81.5t-22 105.5q0 90 33.5 166.5t92 133.5t134.5 89t161 32q30 0 57.5 -5t53.5 -15q19 -6 32 -10.5t23 -4.5q6 0 11.5 2t11.5 6q6 3 12.5 5.5t12.5 2.5q9 0 10 -6t-3 -12q-11 -16 -25.5 -43t-26.5 -55.5t-17 -52.5
q-2 -8 -7.5 -14.5t-12.5 -6.5q-9 0 -13 10t-3 24q4 22 1 45.5t-18 44.5q-17 23 -43 37.5t-59 14.5q-45 0 -90 -22.5t-84 -62t-69 -92.5t-47 -114t-17 -125q0 -54 15 -91.5t39.5 -60.5t55.5 -33.5t63 -10.5q47 0 81 16.5t60 46t50 66.5q6 8 11 14.5t13 6.5q5 0 7.5 -6
t1.5 -16q-2 -12 -11.5 -38t-22.5 -53.5t-24.5 -46.5t-17.5 -19q-5 0 -10 3.5t-11 7.5q-4 4 -10.5 6.5t-15.5 2.5q-8 0 -19.5 -3t-25.5 -8q-16 -5 -38 -9.5t-49 -4.5zM248 -281q-23 0 -42 8.5t-29 21.5t-10 29q0 30 23 30q11 0 21 -6t19 -15q12 -10 23 -18.5t26 -8.5
q10 0 17 8t7 18q0 16 -10 26.5t-22 22.5q-10 11 -20 25t-10 31t18 40t44.5 46.5t54.5 39.5h33q-43 -34 -57.5 -58t-14.5 -38q0 -10 9.5 -21.5t20.5 -22.5q12 -11 21 -23t9 -25q0 -16 -14.5 -35t-35.5 -36t-43 -28t-38 -11z" />
  </g>

</svg>
