<?xml version="1.0" standalone="no"?>
<!DOCTYPE svg PUBLIC "-//W3C//DTD SVG 1.1//EN" "http://www.w3.org/Graphics/SVG/1.1/DTD/svg11.dtd" >
<svg xmlns="http://www.w3.org/2000/svg" xmlns:xlink="http://www.w3.org/1999/xlink" version="1.1" viewBox="-67 0 573 1000">
  <g transform="matrix(1 0 0 -1 0 800)">
   <path fill="currentColor"
d="M-40 -240q-6 0 -11.5 2t-5.5 8q0 4 3 6t7 4q29 10 54.5 28t42.5 68q8 27 17.5 45t23.5 40q11 16 27 40t37.5 49t46.5 41h6q-21 -24 -33.5 -56.5t-17.5 -60.5q-10 -55 -27 -101t-57 -73q-18 -12 -43 -21t-45 -14t-25 -5zM265 -14q-17 0 -27 15t-10 32q0 5 3 14t8 21
q12 28 25 56t25.5 54.5t23.5 50.5q4 9 2 11.5t-7 -3.5q-40 -44 -86.5 -73t-87.5 -29q-21 0 -37.5 11.5t-22 30.5t4.5 40l43 92q6 14 7.5 20.5t-6.5 6.5q-6 0 -18.5 -7t-25.5 -17.5t-23 -22.5q-4 -4 -8 -7.5t-7 -3.5q-8 0 -8 9q0 5 3 12t11 18q23 31 54.5 55t62 38t48.5 14
t24 -13.5t-6 -41.5l-56 -122q-10 -18 -2.5 -30t17.5 -12q17 0 40 10.5t47 29t41 43.5q13 17 27.5 43t29.5 63q5 11 18.5 16.5t27.5 8t21 2.5q18 0 16.5 -14t-9.5 -33l-113 -278q-12 -30 1 -31q9 -1 21 5.5t24 15.5t21 16.5t13 10.5l7 3.5t11 6.5t10 8q7 1 7 -5q2 -3 2 -7.5
t-1 -7.5q-12 -18 -27.5 -35.5t-35 -34t-40.5 -28.5t-42 -19.5t-41 -7.5z" />
  </g>

</svg>
