<?xml version="1.0" standalone="no"?>
<!DOCTYPE svg PUBLIC "-//W3C//DTD SVG 1.1//EN" "http://www.w3.org/Graphics/SVG/1.1/DTD/svg11.dtd" >
<svg xmlns="http://www.w3.org/2000/svg" xmlns:xlink="http://www.w3.org/1999/xlink" version="1.1" viewBox="-10 0 602 1000">
  <g transform="matrix(1 0 0 -1 0 800)">
   <path fill="currentColor"
d="M179 -15q-7 0 -16.5 6t-16.5 15t-7 17v13t2 9.5l6 16.5q15 40 32 85.5t33 91t26 84.5q2 8 0 13.5t-10 6.5q-26 6 -39.5 7t-23.5 1q-40 0 -63 -9t-23 -30q0 -14 4.5 -23t9.5 -15q8 -8 14 -15t6 -14q0 -17 -10.5 -25.5t-27.5 -8.5q-16 0 -31.5 15.5t-15.5 32.5
q0 29 19 65.5t48 60.5q20 16 36.5 25t38.5 9q28 0 48.5 -5t36.5 -9t30 -4q9 0 18 6t17 12.5t15 7.5q7 0 7.5 -5t-2.5 -13l-67 -187q-4 -10 0.5 -9.5t8.5 6.5q30 39 64 75t67.5 65t62 45.5t47.5 16.5q32 0 45.5 -20t12.5 -44q0 -16 -12 -16q-5 0 -13.5 1.5t-17.5 2.5
q-10 1 -18.5 2t-15.5 1q-21 0 -43.5 -10.5t-44.5 -26.5t-40 -33.5t-32 -31.5q-4 -4 -4 -7t3 -6q21 -25 35.5 -59.5t26.5 -69.5q7 -17 16 -30t21 -13t25.5 8t27.5 21.5t26 27.5q7 9 10 13t7 4t6 -3t2 -10q0 -17 -17 -39.5t-41 -45t-49 -37t-41 -14.5q-18 0 -30.5 12.5
t-23.5 41.5l-36 102q-7 19 -13.5 26.5t-17.5 7.5q-6 0 -11 -7t-9 -16q-16 -39 -27 -72t-22 -64q-7 -17 -13 -24.5t-16 -7.5z" />
  </g>

</svg>
