<?xml version="1.0" standalone="no"?>
<!DOCTYPE svg PUBLIC "-//W3C//DTD SVG 1.1//EN" "http://www.w3.org/Graphics/SVG/1.1/DTD/svg11.dtd" >
<svg xmlns="http://www.w3.org/2000/svg" xmlns:xlink="http://www.w3.org/1999/xlink" version="1.1" viewBox="-36 0 891 1000">
  <g transform="matrix(1 0 0 -1 0 800)">
   <path fill="currentColor"
d="M-2 -5q-11 0 -17.5 3t-6.5 10q2 13 35 19q38 7 56 22.5t28 50.5l139 451q11 34 1.5 48t-43.5 22q-13 3 -17.5 8t-3.5 12q0 7 9 10t19 3q24 0 43 -1t36 -1.5t37 -0.5q19 0 34.5 0.5t33.5 1t42 0.5q22 0 20 -12q0 -8 -9 -12.5t-24 -7.5q-26 -5 -40 -12t-21.5 -20t-14.5 -38
l-56 -188q-2 -7 1 -10t11 -3q17 0 35 10.5t39 30.5l215 187q52 41 95 62.5t89 21.5q44 0 63 -21.5t19 -48.5q0 -31 -19.5 -53t-53.5 -22q-26 0 -36 10.5t-15 27.5q-4 14 -10.5 24.5t-21.5 10.5q-11 0 -24 -5.5t-36 -20.5q-45 -33 -84 -64.5t-76.5 -64.5t-78.5 -71
q-6 -6 -6.5 -11t2.5 -11q56 -105 98 -167.5t75 -96.5q22 -22 43.5 -32t45.5 -18q14 -4 21 -8t7 -12q0 -6 -9 -9.5t-23 -3.5q-28 0 -48 1.5t-38 2.5t-44 1q-19 0 -44 20.5t-55 76.5l-114 202q-6 13 -17 18t-15 5q-5 0 -7 -6t-4 -11l-57 -198q-10 -39 -1.5 -55.5t41.5 -24.5
q13 -3 18.5 -7t5.5 -12q-1 -6 -10.5 -9.5t-21.5 -3.5q-27 0 -43.5 2t-31.5 4t-34 2q-33 0 -58.5 -4t-67.5 -4z" />
  </g>

</svg>
