<?xml version="1.0" standalone="no"?>
<!DOCTYPE svg PUBLIC "-//W3C//DTD SVG 1.1//EN" "http://www.w3.org/Graphics/SVG/1.1/DTD/svg11.dtd" >
<svg xmlns="http://www.w3.org/2000/svg" xmlns:xlink="http://www.w3.org/1999/xlink" version="1.1" viewBox="-10 0 417 1000">
  <g transform="matrix(1 0 0 -1 0 800)">
   <path fill="currentColor"
d="M51 281q-7 0 -11 1.5t-3 6.5q2 5 7.5 8t11.5 5q10 2 23.5 11.5t22.5 17.5l75 73q8 7 5 17l-26 67q-2 7 -7.5 14t-17.5 9q-4 2 -8 5t-3 8q1 6 9.5 8.5t11.5 2.5q17 0 26.5 -1t25.5 -1q10 0 16 1t13 1.5t18 0.5q3 0 8.5 -3t4.5 -8q-3 -10 -19 -14q-9 -3 -11.5 -9t-0.5 -14
l15 -37q2 -6 5 -6.5t9 5.5l39 40q9 9 10 13.5t-7 6.5q-12 4 -10 14q1 5 6.5 8t12.5 3q13 0 21.5 -0.5t17.5 -0.5q8 0 18 0.5t23 0.5q3 0 9 -1.5t5 -6.5q-2 -5 -7.5 -9.5t-11.5 -6.5q-9 -2 -23 -5.5t-27 -17.5l-61 -61q-7 -7 -8 -11t1 -9l33 -77q3 -8 11.5 -16t18.5 -11
q5 -2 8.5 -4.5t1.5 -8.5q-1 -4 -8.5 -6.5t-10.5 -2.5q-16 0 -31 1.5t-30 1.5q-11 0 -19.5 -0.5t-17 -1.5t-20.5 -1q-4 0 -9 2.5t-4 6.5q2 6 7.5 9t12.5 5q10 3 15 8.5t6.5 11.5t-1.5 13l-16 43q-3 7 -7 5t-7 -5l-59 -55q-6 -6 -7.5 -12t8.5 -10q5 -2 9.5 -5t2.5 -8
q-1 -4 -8.5 -6.5t-10.5 -2.5q-9 0 -14.5 0.5t-10 0.5h-12.5q-7 0 -16.5 -0.5t-22.5 -0.5z" />
  </g>

</svg>
