<?xml version="1.0" standalone="no"?>
<!DOCTYPE svg PUBLIC "-//W3C//DTD SVG 1.1//EN" "http://www.w3.org/Graphics/SVG/1.1/DTD/svg11.dtd" >
<svg xmlns="http://www.w3.org/2000/svg" xmlns:xlink="http://www.w3.org/1999/xlink" version="1.1" viewBox="-10 0 689 1000">
  <g transform="matrix(1 0 0 -1 0 800)">
   <path fill="currentColor"
d="M373 -64q-7 0 -12 6.5t-5 13.5q0 21 30 69q-8 7 -13 15.5t-9 16.5q-16 -23 -49 -47t-83 -24q-59 0 -101 30.5t-64.5 78t-22.5 97.5q0 60 28 112t79.5 84t122.5 32q14 0 29.5 -3.5t28 -8t16.5 -7.5q3 -4 6 -6t4 -2q4 0 4 20v147q0 37 -10.5 52.5t-36.5 20.5q-9 2 -9 14
q0 11 8 13q40 9 71 20.5t49 18.5l10.5 3.5t6.5 1.5q4 0 6 -2t3 -6q0 -8 -3.5 -34t-3.5 -78l-2 -445q0 -7 1.5 -13t2.5 -12q27 28 64.5 48.5t77.5 20.5q31 0 51.5 -16t20.5 -58q0 -33 -23 -61t-58 -45t-73 -17q-28 0 -50.5 4t-40.5 11q-7 -10 -13 -20.5t-10 -19.5t-10 -17
t-18 -8zM274 38q38 0 63 25.5t25 60.5v144q0 26 -13.5 52t-38.5 43t-59 17q-15 0 -33.5 -7.5t-36 -26t-29 -50.5t-11.5 -80q0 -56 15 -91t37 -54t44.5 -26t36.5 -7zM550 51q18 0 35 11t17 29q0 21 -11 31t-28 10q-19 0 -43.5 -16.5t-42.5 -41.5q13 -12 32.5 -17.5t40.5 -5.5
z" />
  </g>

</svg>
