<?xml version="1.0" standalone="no"?>
<!DOCTYPE svg PUBLIC "-//W3C//DTD SVG 1.1//EN" "http://www.w3.org/Graphics/SVG/1.1/DTD/svg11.dtd" >
<svg xmlns="http://www.w3.org/2000/svg" xmlns:xlink="http://www.w3.org/1999/xlink" version="1.1" viewBox="-10 0 486 1000">
  <g transform="matrix(1 0 0 -1 0 800)">
   <path fill="currentColor"
d="M277 427q-31 0 -54.5 21.5t-23.5 57.5t17.5 62.5t45.5 41.5t57 15q24 0 35 -9.5t11 -25.5q0 -18 -11.5 -29t-35.5 -14q-66 -9 -66 -52q0 -13 7.5 -22t23.5 -17q16 -7 16 -17q0 -4 -5 -8t-17 -4zM199 627q-7 0 -13 5.5t-6 11.5q0 4 11 18.5t26 32t30 29.5t23 12
q15 0 26 -1.5t31 -3.5q19 -1 33.5 -2.5t26.5 -1.5q19 0 35 16q11 11 15.5 17.5t8.5 6.5q7 0 13.5 -5t6.5 -13q0 -3 -5.5 -9.5t-13.5 -15.5q-12 -13 -22.5 -28.5t-20.5 -27.5q-6 -8 -15.5 -11t-14.5 -3q-6 0 -21 1t-34 3t-38.5 3t-34.5 1q-12 0 -20 -8q-10 -10 -17 -18.5
t-10 -8.5z" />
  </g>

</svg>
