<?xml version="1.0" standalone="no"?>
<!DOCTYPE svg PUBLIC "-//W3C//DTD SVG 1.1//EN" "http://www.w3.org/Graphics/SVG/1.1/DTD/svg11.dtd" >
<svg xmlns="http://www.w3.org/2000/svg" xmlns:xlink="http://www.w3.org/1999/xlink" version="1.1" viewBox="-10 0 498 1000">
  <g transform="matrix(1 0 0 -1 0 800)">
   <path fill="currentColor"
d="M68 -15q-20 0 -34.5 13.5t-23 34t-8.5 43.5q0 37 15.5 81.5t41 89t58 81.5t66.5 60t66 23q30 0 44 -23t18 -58t4 -71q0 -4 2 -4.5t4 4.5q23 37 43.5 77.5t38.5 75.5q6 11 12 17t12 6q10 0 20 -8.5t17 -21t7 -24.5q0 -5 -0.5 -9t-1.5 -7q-5 -17 -27 -53t-56.5 -81
t-77.5 -90q2 -33 16 -48t32 -15q20 0 45 13.5t39 29.5q6 7 10 10.5t7 3.5q4 0 6 -1.5t2 -4.5q0 -20 -12.5 -44.5t-33 -46.5t-45 -37t-48.5 -15q-29 0 -41 19.5t-12 48.5q0 15 2 32t6 31q-33 -32 -73 -62.5t-76.5 -50t-63.5 -19.5zM68 34q25 0 55 16t62 45t62 67
q11 12 20.5 25t15.5 27q4 44 -5 74t-34 30q-22 0 -48 -18.5t-52.5 -47.5t-48.5 -63t-35.5 -66t-13.5 -55q0 -15 5.5 -24.5t16.5 -9.5zM365 455q-32 0 -56 22.5t-24 59.5t18.5 64.5t46.5 43t58 15.5q25 0 36 -10t11 -24q0 -39 -48 -46q-33 -4 -50 -18.5t-17 -36.5
q0 -13 7.5 -22.5t24.5 -17.5q16 -8 16 -17q0 -4 -5.5 -8.5t-17.5 -4.5z" />
  </g>

</svg>
