<?xml version="1.0" standalone="no"?>
<!DOCTYPE svg PUBLIC "-//W3C//DTD SVG 1.1//EN" "http://www.w3.org/Graphics/SVG/1.1/DTD/svg11.dtd" >
<svg xmlns="http://www.w3.org/2000/svg" xmlns:xlink="http://www.w3.org/1999/xlink" version="1.1" viewBox="-117 0 554 1000">
  <g transform="matrix(1 0 0 -1 0 800)">
   <path fill="currentColor"
d="M-52 -290q-19 0 -37 12.5t-18 37.5q0 15 7 28t17.5 21.5t22.5 8.5q10 0 18.5 -6t17.5 -13t18 -12.5t21 -5.5q33 0 68.5 39.5t63.5 99.5q22 46 30 101.5t8 121.5q0 77 -10.5 122.5t-23.5 66t-23 20.5q-9 0 -20.5 -12t-21 -27.5t-13.5 -26.5q-1 -5 -7 -16t-12 -11
q-4 0 -6.5 8.5t-2.5 19.5q0 25 11 48.5t28.5 43.5t38 32t39.5 12q26 0 42.5 -18t27.5 -52q14 -43 24.5 -108t5.5 -165q-1 -18 3.5 -17t11.5 14q34 64 56 146t21 185q0 6 9.5 13.5t14.5 7.5q6 0 16.5 -6.5t19 -18t8.5 -26.5q0 -62 -32.5 -145.5t-91 -177t-135.5 -185.5
q-37 -43 -75.5 -79.5t-74.5 -58.5t-65 -22zM245 -260q-18 0 -29.5 13.5t-11.5 31.5q0 27 19 48.5t47 21.5q19 0 29.5 -16t10.5 -34q0 -25 -19 -45t-46 -20z" />
  </g>

</svg>
