<?xml version="1.0" standalone="no"?>
<!DOCTYPE svg PUBLIC "-//W3C//DTD SVG 1.1//EN" "http://www.w3.org/Graphics/SVG/1.1/DTD/svg11.dtd" >
<svg xmlns="http://www.w3.org/2000/svg" xmlns:xlink="http://www.w3.org/1999/xlink" version="1.1" viewBox="-22 0 669 1000">
  <g transform="matrix(1 0 0 -1 0 800)">
   <path fill="currentColor"
d="M10 -4q-10 0 -16 2.5t-6 9.5t9.5 11.5t24.5 7.5q38 7 58.5 22t31.5 50l136 442q13 41 1 59.5t-57 23.5q-13 3 -18.5 6.5t-5.5 10.5q1 6 10.5 9.5t21.5 3.5q10 0 29 -0.5t40 -1.5t36 -1q13 1 34 2t43.5 2t39.5 1q66 0 114.5 -22.5t74.5 -64t26 -98.5q-1 -49 -23.5 -90
t-62 -71t-90 -46.5t-106.5 -16.5q-15 0 -29 3t-14 13q0 6 7 9.5t16 4.5q13 2 25 4t25 5q44 10 77 37t52 66.5t19 88.5q0 48 -16.5 80.5t-46.5 49.5t-73 17q-9 0 -15 -4.5t-11 -16t-12 -33.5l-143 -464q-12 -37 0.5 -54.5t51.5 -25.5q13 -3 19 -7t6 -12q0 -6 -10 -9t-22 -3
q-23 0 -44 1.5t-39 3t-37 1.5q-34 0 -64.5 -3t-66.5 -3zM394 692q-7 0 -8 7q0 7 6 17q20 32 40.5 63t42.5 62q10 13 29 13q8 0 23.5 -3.5t28 -9t12.5 -13.5t-14 -20q-32 -27 -69.5 -54.5t-69.5 -51.5q-8 -6 -13 -8t-8 -2z" />
  </g>

</svg>
