<?xml version="1.0" standalone="no"?>
<!DOCTYPE svg PUBLIC "-//W3C//DTD SVG 1.1//EN" "http://www.w3.org/Graphics/SVG/1.1/DTD/svg11.dtd" >
<svg xmlns="http://www.w3.org/2000/svg" xmlns:xlink="http://www.w3.org/1999/xlink" version="1.1" viewBox="-72 0 761 1000">
  <g transform="matrix(1 0 0 -1 0 800)">
   <path fill="currentColor"
d="M-39 -5q-11 0 -16.5 3t-6.5 11q0 9 9 13.5t23 7.5q25 7 49 17.5t45.5 25t37.5 32.5q71 79 133 154t121 149.5t120 149.5q14 17 24 32t17 24t11 9q23 0 35.5 6t26.5 19q15 14 23.5 20.5t14.5 6.5q7 0 9 -10.5t-3 -31.5l-102 -514q-9 -43 1.5 -63t41.5 -28q15 -4 22.5 -7.5
t7.5 -11.5q0 -7 -8 -10t-23 -3t-38 1.5t-47.5 2.5t-46.5 1h-39.5t-42 -1t-34.5 -1q-21 0 -23 13q0 8 8 13.5t20 7.5q30 5 48 12.5t28.5 22t16.5 40.5l31 120q3 12 -4.5 18t-20.5 6l-126 -2q-14 0 -22.5 -4t-15.5 -14l-91 -119q-20 -26 -22.5 -42t7 -24t25.5 -13
q10 -3 17.5 -8.5t7.5 -13.5q0 -7 -8.5 -10t-20.5 -3q-19 0 -41.5 1t-49.5 1q-31 0 -67 -3t-62 -3zM336 288l112 1q10 0 15.5 5t8.5 18l48 219q2 10 2 15.5t-5 5.5q-3 0 -7.5 -2t-9.5 -9l-179 -232q-8 -10 -8 -15.5t23 -5.5zM361 477q-7 0 -11 6.5t-7 16.5q-4 20 -11 50
t-12 57t-5 36q0 14 10 25t23.5 18t23.5 7q7 0 15 -5t8 -16q0 -12 -2 -36.5t-5 -52.5t-5.5 -50.5t-4.5 -29.5q-2 -14 -6 -20t-11 -6zM196 483q-32 0 -56 22.5t-24 59.5t18 64.5t46.5 43t58.5 15.5q24 0 35.5 -10t11.5 -24q0 -39 -49 -46q-33 -4 -50 -18.5t-17 -36.5
q0 -13 7.5 -22.5t24.5 -17.5q16 -8 16 -17q0 -4 -5 -8.5t-17 -4.5z" />
  </g>

</svg>
