<?xml version="1.0" standalone="no"?>
<!DOCTYPE svg PUBLIC "-//W3C//DTD SVG 1.1//EN" "http://www.w3.org/Graphics/SVG/1.1/DTD/svg11.dtd" >
<svg xmlns="http://www.w3.org/2000/svg" xmlns:xlink="http://www.w3.org/1999/xlink" version="1.1" viewBox="-10 0 903 1000">
  <g transform="matrix(1 0 0 -1 0 800)">
   <path fill="currentColor"
d="M485 -14q-75 0 -126 34.5t-77 93t-26 129.5q0 75 27.5 149.5t79.5 136t125.5 98.5t165.5 37q74 0 125.5 -34.5t77.5 -92.5t26 -130q0 -75 -27.5 -149.5t-80 -136t-126 -98.5t-164.5 -37zM487 19q50 0 94.5 27t81 72.5t62.5 102.5t40 117t14 115q0 46 -13 87.5t-41.5 67.5
t-73.5 26q-49 0 -93 -27.5t-80 -73.5t-62.5 -103t-41 -117.5t-14.5 -115.5q0 -46 12.5 -86.5t40.5 -66t74 -25.5zM220 453q-8 0 -10 8t3 21q4 9 14.5 31t24 48.5t26 50.5t19.5 36q13 22 42 22q15 0 22.5 -11t7.5 -26q0 -11 -13.5 -32t-33.5 -44.5t-40 -46t-33 -37.5
q-9 -9 -16 -14.5t-13 -5.5zM69 459q-18 0 -18 10q0 11 19 17q31 9 55 26t24 39q0 14 -7 21.5t-18 12.5t-18.5 13.5t-7.5 21.5q0 19 17 32t43 13q30 0 45.5 -17t15.5 -46q0 -31 -15 -57t-38 -45t-49 -30t-48 -11z" />
  </g>

</svg>
