<?xml version="1.0" standalone="no"?>
<!DOCTYPE svg PUBLIC "-//W3C//DTD SVG 1.1//EN" "http://www.w3.org/Graphics/SVG/1.1/DTD/svg11.dtd" >
<svg xmlns="http://www.w3.org/2000/svg" xmlns:xlink="http://www.w3.org/1999/xlink" version="1.1" viewBox="-86 0 448 1000">
  <g transform="matrix(1 0 0 -1 0 800)">
   <path fill="currentColor"
d="M74 -14q-10 0 -21.5 8t-19 18.5t-7.5 18.5q0 14 3.5 24.5t9.5 26.5l95 262q3 10 -1 13.5t-10 3.5l-42 2q-15 1 -18 6.5t-3 9.5q0 2 5.5 8.5t14.5 13t19 6.5h41q12 0 16.5 4t10.5 16l25 52q6 10 17.5 22t24.5 20.5t20 8.5q11 0 14 -12.5t-1 -24.5l-25 -70
q-3 -10 0.5 -12.5t12.5 -2.5q18 0 37 -3t34 -5q18 -3 22 -7t4 -10q0 -2 -4.5 -7.5t-17.5 -6.5q-19 -1 -36.5 -2.5t-38.5 -2.5q-17 -1 -24.5 -5t-10.5 -12l-84 -232q-5 -15 -5 -24.5t5 -13.5t14 -4q14 0 31 11t33.5 25.5t27.5 25.5q8 8 14 7.5t6 -4.5q2 -5 -0.5 -12.5
t-7.5 -15.5q-12 -16 -29 -33.5t-37.5 -34t-41.5 -29t-39.5 -20t-32.5 -7.5zM-60 -147q-6 0 -11 4.5t-5 9.5q0 14 8 30.5t21 16.5h241q6 0 10.5 -4t4.5 -10q0 -12 -10 -29.5t-25 -17.5h-234z" />
  </g>

</svg>
