<?xml version="1.0" standalone="no"?>
<!DOCTYPE svg PUBLIC "-//W3C//DTD SVG 1.1//EN" "http://www.w3.org/Graphics/SVG/1.1/DTD/svg11.dtd" >
<svg xmlns="http://www.w3.org/2000/svg" xmlns:xlink="http://www.w3.org/1999/xlink" version="1.1" viewBox="-10 0 570 1000">
  <g transform="matrix(1 0 0 -1 0 800)">
   <path fill="currentColor"
d="M73 -14q-31 0 -51 21.5t-20 54.5q0 38 16 83.5t43.5 93t63.5 88.5q41 47 81.5 72.5t74.5 25.5q17 0 29.5 -6.5t37.5 -22.5q16 -10 19 -11.5t2 -1.5q4 0 6 8l60 199q4 12 5.5 18t2 7.5t0 3t-0.5 3.5q0 10 -7 17.5t-25 13.5q-19 8 -23 10t-4 5q0 7 7.5 11t25.5 8
q14 3 32.5 6.5t36 6t31 4.5t18.5 2q16 0 16 -14q0 -7 -1 -13t-5 -16l-169 -553q-1 -7 -2.5 -13t-1.5 -12q0 -18 12 -18q11 0 28 9.5t35 25t31 32.5q3 3 4 3.5t3 0.5q10 0 8 -10q0 -12 -12 -30.5t-31.5 -37.5t-42 -36t-44 -27.5t-36.5 -10.5q-12 0 -24 7t-20 18.5t-8 23.5
q0 5 4 25q3 11 8 27t10 31t7 22t0 -1q2 7 -1 10t-6 -2q-69 -86 -121 -123.5t-102 -37.5zM127 51q24 0 54 18.5t59 49t54 67.5t39.5 73.5t14.5 67.5q0 28 -12 44t-35 16q-21 0 -48.5 -21t-55 -55t-51 -74t-38 -80t-14.5 -70q0 -20 7.5 -28t25.5 -8zM153 -197
q-18 0 -29.5 13.5t-11.5 31.5q0 27 19 48.5t47 21.5q19 0 29.5 -16t10.5 -34q0 -25 -19 -45t-46 -20z" />
  </g>

</svg>
