<?xml version="1.0" standalone="no"?>
<!DOCTYPE svg PUBLIC "-//W3C//DTD SVG 1.1//EN" "http://www.w3.org/Graphics/SVG/1.1/DTD/svg11.dtd" >
<svg xmlns="http://www.w3.org/2000/svg" xmlns:xlink="http://www.w3.org/1999/xlink" version="1.1" viewBox="-10 0 452 1000">
  <g transform="matrix(1 0 0 -1 0 800)">
   <path fill="currentColor"
d="M68 286q-6 0 -9.5 2.5t-2.5 6.5q3 7 20 12q11 3 19.5 7.5t12.5 16.5l90 294q3 9 3 24.5t-14 18.5q-8 2 -6 12q3 10 12 12q25 5 50 13.5t48 15.5q7 0 4 -12t-13 -33.5t-19 -51.5l-54 -176q-3 -8 0.5 -9.5t10.5 1.5q9 4 19.5 11t21.5 15t21.5 17t19.5 16q7 6 6.5 11.5
t-11.5 8.5q-4 1 -6.5 3.5t-1.5 5.5q3 8 7.5 9t9.5 1h32q9 0 25.5 1t33.5 1.5t29 0.5q7 0 5 -9q-1 -4 -5 -8t-12 -5q-13 -2 -29.5 -7t-27.5 -12l-90 -58q-4 -2 -5 -6t2 -9l60 -90q8 -11 22 -19.5t22 -11.5q7 -2 10 -5t1 -6q-3 -2 -7.5 -5.5t-10.5 -3.5q-25 0 -44.5 1t-39.5 1
h-21t-18 2q-3 1 -4.5 3.5t2.5 6.5q4 9 15 10.5t14 7.5q1 5 -2 12l-57 83q-1 3 -3.5 2t-4.5 -5l-25 -79q-3 -11 0 -16t12 -8q6 -2 9 -4.5t1 -7.5q-1 -4 -6.5 -6.5t-10.5 -2.5q-14 0 -26.5 1t-26.5 1t-28 -1t-29 -1z" />
  </g>

</svg>
