<?xml version="1.0" standalone="no"?>
<!DOCTYPE svg PUBLIC "-//W3C//DTD SVG 1.1//EN" "http://www.w3.org/Graphics/SVG/1.1/DTD/svg11.dtd" >
<svg xmlns="http://www.w3.org/2000/svg" xmlns:xlink="http://www.w3.org/1999/xlink" version="1.1" viewBox="-10 0 548 1000">
  <g transform="matrix(1 0 0 -1 0 800)">
   <path fill="currentColor"
d="M125 -14q-29 0 -54.5 16.5t-41 45t-15.5 61.5q0 47 19 101t54 102t82 78.5t103 30.5t88 -35.5t32 -91.5q0 -45 -18.5 -98.5t-53.5 -101t-84 -78t-111 -30.5zM142 19q22 0 45 21.5t44.5 56.5t38 77t26.5 84t10 76q0 25 -8.5 39.5t-31.5 14.5q-21 0 -44 -20t-44.5 -53.5
t-38.5 -74t-27 -83.5t-10 -82q0 -29 10.5 -42.5t29.5 -13.5zM322 622q7 0 11.5 -6t8.5 -20q3 -10 9.5 -27.5t13.5 -37.5t12 -34q2 -7 4 -13.5t2 -10.5q0 -7 -2.5 -14t-8.5 -7t-9 3t-8 11q-13 15 -24.5 34.5t-21.5 41.5q-3 5 -6 4t-8 -4q-24 -19 -48.5 -37.5t-47.5 -35.5
q-9 -7 -17 -11.5t-14 -4.5q-10 0 -10 10q0 5 2.5 11.5t10.5 14.5q10 11 26 27t32.5 33t31.5 30t23 20q14 11 22 17t16 6zM399 580q-7 0 -7.5 7.5t0.5 12.5q5 9 12.5 27t17.5 38.5t18.5 38.5t13.5 28q5 9 11.5 16t14.5 7q7 0 18.5 -6.5t20.5 -16t9 -18.5q0 -2 -9 -12.5
t-22 -25.5t-27 -31.5t-26.5 -29.5t-19.5 -20q-5 -6 -11.5 -10.5t-13.5 -4.5z" />
  </g>

</svg>
