<?xml version="1.0" standalone="no"?>
<!DOCTYPE svg PUBLIC "-//W3C//DTD SVG 1.1//EN" "http://www.w3.org/Graphics/SVG/1.1/DTD/svg11.dtd" >
<svg xmlns="http://www.w3.org/2000/svg" xmlns:xlink="http://www.w3.org/1999/xlink" version="1.1" viewBox="-10 0 547 1000">
  <g transform="matrix(1 0 0 -1 0 800)">
   <path fill="currentColor"
d="M68 -15q-20 0 -34.5 13.5t-23 34t-8.5 43.5q0 37 15.5 81.5t41 89t58 81.5t66.5 60t66 23q30 0 44 -23t18 -58t4 -71q0 -4 2 -4.5t4 4.5q23 37 43.5 77.5t38.5 75.5q6 11 12 17t12 6q10 0 20 -8.5t17 -21t7 -24.5q0 -5 -0.5 -9t-1.5 -7q-5 -17 -27 -53t-56.5 -81
t-77.5 -90q2 -33 16 -48t32 -15q20 0 45 13.5t39 29.5q6 7 10 10.5t7 3.5q4 0 6 -1.5t2 -4.5q0 -20 -12.5 -44.5t-33 -46.5t-45 -37t-48.5 -15q-29 0 -41 19.5t-12 48.5q0 15 2 32t6 31q-33 -32 -73 -62.5t-76.5 -50t-63.5 -19.5zM68 34q25 0 55 16t62 45t62 67
q11 12 20.5 25t15.5 27q4 44 -5 74t-34 30q-22 0 -48 -18.5t-52.5 -47.5t-48.5 -63t-35.5 -66t-13.5 -55q0 -15 5.5 -24.5t16.5 -9.5zM378 450q-8 0 -10 8t3 21q4 9 14.5 31t24 48.5t26 50.5t19.5 36q13 22 42 22q15 0 22.5 -11t7.5 -26q0 -11 -13.5 -32t-33.5 -44.5
t-40 -46t-33 -37.5q-9 -9 -16 -14.5t-13 -5.5zM227 456q-18 0 -18 10q0 11 19 17q31 9 55 26t24 39q0 14 -7 21.5t-18 12.5t-18.5 13.5t-7.5 21.5q0 19 17 32t43 13q30 0 45.5 -17t15.5 -46q0 -31 -15 -57t-38 -45t-49 -30t-48 -11zM155 -226q-22 0 -37.5 11t-15.5 36
t9.5 54t25.5 50t36 21q12 0 23 -2.5t18 -6.5t2 -12q-11 -19 -17.5 -38.5t-6.5 -33.5q0 -18 11 -18q8 0 14 2t11 4q4 2 7.5 2.5t8.5 0.5q4 0 6.5 -2t2.5 -8q0 -10 -13 -24.5t-35.5 -25t-49.5 -10.5z" />
  </g>

</svg>
