<?xml version="1.0" standalone="no"?>
<!DOCTYPE svg PUBLIC "-//W3C//DTD SVG 1.1//EN" "http://www.w3.org/Graphics/SVG/1.1/DTD/svg11.dtd" >
<svg xmlns="http://www.w3.org/2000/svg" xmlns:xlink="http://www.w3.org/1999/xlink" version="1.1" viewBox="-10 0 528 1000">
  <g transform="matrix(1 0 0 -1 0 800)">
   <path fill="currentColor"
d="M124 -14q-25 0 -50.5 15t-42 43t-16.5 66q0 46 18 100t52 102t82 78.5t109 30.5q13 0 27 -4.5t25 -11.5q12 -6 31 -13t44 -7q18 0 28.5 11t10.5 26q0 9 -7.5 17t-16.5 13q-5 4 -8 7.5t-3 10.5q0 13 11.5 23.5t27.5 17t32 6.5q15 0 22.5 -14.5t7.5 -32.5q0 -23 -11 -46
t-28.5 -41t-38 -28.5t-40.5 -10.5q-5 0 -8.5 -3.5t-1.5 -9.5q4 -16 4 -34q0 -46 -18 -100t-51.5 -102t-82 -78.5t-108.5 -30.5zM138 19q23 0 46 22t44 57t37.5 76.5t26 81.5t9.5 70q0 33 -8 47.5t-31 14.5q-22 0 -44.5 -21t-44 -55.5t-38.5 -74.5t-27 -79.5t-10 -69.5
q0 -32 9 -50.5t31 -18.5zM191 468q-7 0 -13 5.5t-6 11.5q0 4 11 18.5t26 32t30 29.5t23 12q15 0 26 -1.5t31 -3.5q19 -1 33.5 -2.5t26.5 -1.5q19 0 35 16q11 11 15.5 17.5t8.5 6.5q7 0 13.5 -5t6.5 -13q0 -3 -5.5 -9.5t-13.5 -15.5q-12 -13 -22.5 -28.5t-20.5 -27.5
q-6 -8 -15.5 -11t-14.5 -3q-6 0 -21 1t-34 3t-38.5 3t-34.5 1q-12 0 -20 -8q-10 -10 -17 -18.5t-10 -8.5z" />
  </g>

</svg>
