<?xml version="1.0" standalone="no"?>
<!DOCTYPE svg PUBLIC "-//W3C//DTD SVG 1.1//EN" "http://www.w3.org/Graphics/SVG/1.1/DTD/svg11.dtd" >
<svg xmlns="http://www.w3.org/2000/svg" xmlns:xlink="http://www.w3.org/1999/xlink" version="1.1" viewBox="-10 0 1048 1000">
  <g transform="matrix(1 0 0 -1 0 800)">
   <path fill="currentColor"
d="M378 -4q-10 0 -16 2.5t-5 9.5q5 13 34 19q38 7 61 25t33 53l58 190q18 57 24.5 112t-0.5 100t-28.5 71.5t-60.5 26.5q-33 0 -66 -14t-56 -30q-5 -3 -8.5 -1.5t-3.5 6.5q0 10 16.5 26.5t43.5 33t58.5 27.5t63.5 11q41 0 66.5 -16t38.5 -42.5t17.5 -58t3.5 -63.5q0 -3 2 -3
t3 2q41 67 87.5 106.5t92.5 57t82 17.5q42 0 71.5 -19t36.5 -48q2 -10 -3.5 -13t-11.5 1q-21 18 -44 24.5t-44 6.5q-37 0 -72.5 -18.5t-68 -49.5t-58.5 -70q-16 -24 -31.5 -56t-27 -64t-19.5 -55l-60 -198q-9 -32 2.5 -51t44.5 -27q13 -3 18.5 -7t3.5 -12q-1 -6 -9 -9
t-18 -3q-24 0 -44 1.5t-38 2.5t-39 1q-33 0 -63 -2.5t-67 -2.5zM201 430q-31 0 -54.5 21.5t-23.5 57.5t17.5 62.5t45.5 41.5t57 15q24 0 35 -9.5t11 -25.5q0 -18 -11.5 -29t-35.5 -14q-66 -9 -66 -52q0 -13 7.5 -22t23.5 -17q16 -7 16 -17q0 -4 -5 -8t-17 -4zM123 630
q-7 0 -13 5.5t-6 11.5q0 4 11 18.5t26 32t30 29.5t23 12q15 0 26 -1.5t31 -3.5q19 -1 33.5 -2.5t26.5 -1.5q19 0 35 16q11 11 15.5 17.5t8.5 6.5q7 0 13.5 -5t6.5 -13q0 -3 -5.5 -9.5t-13.5 -15.5q-12 -13 -22.5 -28.5t-20.5 -27.5q-6 -8 -15.5 -11t-14.5 -3q-6 0 -21 1
t-34 3t-38.5 3t-34.5 1q-12 0 -20 -8q-10 -10 -17 -18.5t-10 -8.5z" />
  </g>

</svg>
