<?xml version="1.0" standalone="no"?>
<!DOCTYPE svg PUBLIC "-//W3C//DTD SVG 1.1//EN" "http://www.w3.org/Graphics/SVG/1.1/DTD/svg11.dtd" >
<svg xmlns="http://www.w3.org/2000/svg" xmlns:xlink="http://www.w3.org/1999/xlink" version="1.1" viewBox="-50 0 683 1000">
  <g transform="matrix(1 0 0 -1 0 800)">
   <path fill="currentColor"
d="M-19 -5q-11 0 -16 3t-5 9q1 13 33 19q46 9 66.5 24t30.5 48l138 452q13 39 1 52.5t-52 20.5q-14 2 -19 6.5t-5 11.5q1 6 10.5 9.5t24.5 3.5q10 0 31 -1.5t46 -2t46 -0.5h162q51 0 79.5 3t41 5.5t15.5 2.5q5 0 9.5 -5t4.5 -11q0 -8 -6.5 -25.5t-13 -41.5t-9.5 -51
q-1 -10 -6.5 -14.5t-10.5 -4.5t-8.5 6t-3.5 17q0 49 -12 69t-51 20h-107q-24 0 -36 -9.5t-20 -35.5l-60 -195q-5 -17 -1.5 -23.5t18.5 -5.5l112 2q26 1 42.5 13t29.5 31q7 8 15 17.5t16 9.5t9 -7.5t-4 -18.5q-9 -19 -16 -35.5t-12 -32.5q-6 -17 -11 -35t-10 -40
q-2 -10 -5.5 -17t-8.5 -7q-8 0 -11.5 10t-3.5 17q1 31 -8.5 45t-26.5 14l-110 2q-15 0 -26 -5t-17 -24l-50 -179q-13 -47 -3.5 -64.5t43.5 -17.5h130q24 0 44 8t36 19q17 12 32 31.5t30 42.5q4 6 8 11t10 5q5 0 6.5 -6.5t1.5 -14.5q0 -10 -7.5 -31t-17.5 -43.5t-20 -36.5
q-5 -9 -12.5 -14t-18.5 -5q-30 0 -66 0.5t-73.5 1.5l-75 2t-73 1.5t-65.5 0.5q-23 0 -43.5 -1.5t-40.5 -3t-44 -1.5zM309 721q-7 0 -11.5 4.5t-4.5 9.5q0 14 7 30t21 16h255q6 0 10.5 -4t4.5 -10q0 -19 -10.5 -32.5t-24.5 -13.5h-247zM406 812q-6 0 -13 -0.5t-12 1.5
q-3 1 -5.5 4t1.5 9q9 8 22.5 18t24.5 18q6 5 21 15t33 21.5t35 20.5t27 13q8 1 14 -2.5t10 -7.5l6 -6q9 -1 15 -9t9 -17.5t1 -14.5q-13 -5 -26 -11t-27 -9q-7 -4 -24 -10t-38.5 -12.5t-41 -12t-32.5 -8.5z" />
  </g>

</svg>
