<?xml version="1.0" standalone="no"?>
<!DOCTYPE svg PUBLIC "-//W3C//DTD SVG 1.1//EN" "http://www.w3.org/Graphics/SVG/1.1/DTD/svg11.dtd" >
<svg xmlns="http://www.w3.org/2000/svg" xmlns:xlink="http://www.w3.org/1999/xlink" version="1.1" viewBox="-10 0 436 1000">
  <g transform="matrix(1 0 0 -1 0 800)">
   <path fill="currentColor"
d="M73 -14q-19 0 -33 13.5t-14 27.5q0 4 1 8.5t3 9.5q37 76 64 145.5t49 125.5q4 10 -5 10q-5 0 -18.5 -5t-28 -13.5t-25.5 -16.5q-8 -5 -13.5 -2.5t-5.5 8.5t9.5 17t26 25t37.5 29t43.5 28.5t44.5 22.5q11 5 22.5 -1.5t18 -17t3.5 -17.5l-118 -285q-3 -6 -4.5 -12.5
t-1.5 -11.5q0 -6 4.5 -8t8.5 -2q12 0 30.5 12.5t39 31t37.5 35.5q2 3 4 3q3 0 6 -2.5t3 -6.5q0 -16 -20 -41.5t-50 -50.5t-61.5 -42t-56.5 -17zM345 505q-17 0 -28.5 13t-11.5 32t9.5 35t25 25.5t34.5 9.5q20 0 31 -14t11 -33q0 -26 -20.5 -47t-50.5 -21zM165 505
q-18 0 -29.5 13t-11.5 32t9.5 35t25.5 25.5t35 9.5t30 -14t11 -33q0 -26 -20.5 -47t-49.5 -21zM258 607q-7 0 -7.5 7.5t0.5 12.5q5 9 12.5 27t17.5 38.5t18.5 38.5t13.5 28q5 9 11.5 16t14.5 7q7 0 18.5 -6.5t20.5 -16t9 -18.5q0 -2 -9 -12.5t-22 -25.5t-27 -31.5
t-26.5 -29.5t-19.5 -20q-5 -6 -11.5 -10.5t-13.5 -4.5z" />
  </g>

</svg>
