<?xml version="1.0" standalone="no"?>
<!DOCTYPE svg PUBLIC "-//W3C//DTD SVG 1.1//EN" "http://www.w3.org/Graphics/SVG/1.1/DTD/svg11.dtd" >
<svg xmlns="http://www.w3.org/2000/svg" xmlns:xlink="http://www.w3.org/1999/xlink" version="1.1" viewBox="-10 0 476 1000">
  <g transform="matrix(1 0 0 -1 0 800)">
   <path fill="currentColor"
d="M132 -14q-28 0 -47.5 19t-25.5 49t6 63l64 171q7 19 6 28.5t-10 9.5q-8 0 -25.5 -13t-30.5 -27q-6 -6 -10 -8t-6 -2q-9 0 -9 7q0 6 3.5 13.5t11.5 18.5q17 23 37 42.5t40 34.5t38 23.5t31 8.5q10 0 18.5 -7.5t13 -17t1.5 -18.5l-86 -256q-11 -34 -3.5 -53.5t33.5 -19.5
q31 0 62.5 20t58 53.5t42.5 72.5t16 78q0 20 -7.5 37t-19.5 30q-8 9 -11.5 17t-3.5 18q0 9 12 19.5t28.5 18.5t30.5 8q13 0 23 -18.5t10 -55.5q0 -44 -12 -87t-35.5 -85t-59.5 -81q-46 -53 -93.5 -82t-90.5 -29zM189 468q-7 0 -13 5.5t-6 11.5q0 4 11 18.5t26 32t30 29.5
t23 12q15 0 26 -1.5t31 -3.5q19 -1 33.5 -2.5t26.5 -1.5q19 0 35 16q11 11 15.5 17.5t8.5 6.5q7 0 13.5 -5t6.5 -13q0 -3 -5.5 -9.5t-13.5 -15.5q-12 -13 -22.5 -28.5t-20.5 -27.5q-6 -8 -15.5 -11t-14.5 -3q-6 0 -21 1t-34 3t-38.5 3t-34.5 1q-12 0 -20 -8
q-10 -10 -17 -18.5t-10 -8.5z" />
  </g>

</svg>
