<?xml version="1.0" standalone="no"?>
<!DOCTYPE svg PUBLIC "-//W3C//DTD SVG 1.1//EN" "http://www.w3.org/Graphics/SVG/1.1/DTD/svg11.dtd" >
<svg xmlns="http://www.w3.org/2000/svg" xmlns:xlink="http://www.w3.org/1999/xlink" version="1.1" viewBox="-10 0 829 1000">
  <g transform="matrix(1 0 0 -1 0 800)">
   <path fill="currentColor"
d="M411 -14q-75 0 -126 34.5t-77 93t-26 129.5q0 75 27.5 149.5t79.5 136t125.5 98.5t165.5 37q74 0 125.5 -34.5t77.5 -92.5t26 -130q0 -75 -27.5 -149.5t-80 -136t-126 -98.5t-164.5 -37zM413 19q50 0 94.5 27t81 72.5t62.5 102.5t40 117t14 115q0 46 -13 87.5t-41.5 67.5
t-73.5 26q-49 0 -93 -27.5t-80 -73.5t-62.5 -103t-41 -117.5t-14.5 -115.5q0 -46 12.5 -86.5t40.5 -66t74 -25.5zM173 472q-6 0 -11.5 4.5t-9.5 14.5q-6 15 -14.5 37.5t-16.5 45t-13.5 39t-5.5 19.5q0 19 16.5 34t31.5 15q10 0 15 -10.5t6 -26.5q2 -15 4 -38t4.5 -47.5
t3.5 -43.5t0 -26q0 -9 -2.5 -13t-7.5 -4z" />
  </g>

</svg>
