<?xml version="1.0" standalone="no"?>
<!DOCTYPE svg PUBLIC "-//W3C//DTD SVG 1.1//EN" "http://www.w3.org/Graphics/SVG/1.1/DTD/svg11.dtd" >
<svg xmlns="http://www.w3.org/2000/svg" xmlns:xlink="http://www.w3.org/1999/xlink" version="1.1" viewBox="-37 0 442 1000">
  <g transform="matrix(1 0 0 -1 0 800)">
   <path fill="currentColor"
d="M41 -14q-29 0 -48.5 15t-19.5 38q0 24 11 37.5t22 13.5q7 0 15.5 -7t18.5 -16q12 -10 27.5 -21t36.5 -11q23 0 36 16t14 36q0 20 -10 45.5t-25 49.5t-25 48.5t-10 43.5q0 29 16.5 55t41 47t48.5 33t38 12q18 0 34.5 -9t27.5 -20t11 -20q0 -8 -7.5 -19t-17.5 -19.5
t-18 -8.5q-7 0 -13.5 6.5t-13.5 14.5t-17.5 14.5t-24.5 6.5q-15 0 -25.5 -12t-10.5 -30q0 -8 6.5 -24t15.5 -33t18 -32q17 -26 28 -54.5t11 -52.5q0 -27 -17.5 -52.5t-45.5 -46t-61.5 -32.5t-66.5 -12zM231 454q-7 0 -11.5 6t-8.5 20q-3 10 -9.5 27.5t-13.5 37.5t-12 34
q-2 7 -4 13.5t-2 10.5q0 7 2.5 14t8.5 7t9 -3t8 -11q13 -15 24.5 -34.5t21.5 -41.5q3 -5 6 -4t8 4q24 19 48.5 37.5t47.5 35.5q9 7 17 11.5t14 4.5q10 0 10 -10q0 -5 -2.5 -11.5t-10.5 -14.5q-10 -11 -26 -27t-32.5 -33t-31.5 -30t-23 -20q-14 -11 -22 -17t-16 -6zM276 601
q-18 0 -29.5 13.5t-11.5 31.5q0 27 19 48.5t47 21.5q19 0 29.5 -16t10.5 -34q0 -25 -19 -45t-46 -20z" />
  </g>

</svg>
