<?xml version="1.0" standalone="no"?>
<!DOCTYPE svg PUBLIC "-//W3C//DTD SVG 1.1//EN" "http://www.w3.org/Graphics/SVG/1.1/DTD/svg11.dtd" >
<svg xmlns="http://www.w3.org/2000/svg" xmlns:xlink="http://www.w3.org/1999/xlink" version="1.1" viewBox="-60 0 1120 1000">
  <g transform="matrix(1 0 0 -1 0 800)">
   <path fill="currentColor"
d="M377 -14q-5 0 -8 6.5t-3 17.5q3 122 0 242.5t-9 240.5q-1 19 -9 17.5t-17 -21.5q-43 -84 -82 -168t-74 -169q-18 -45 -22.5 -71t3 -37.5t23.5 -15.5q13 -2 21 -6t7 -12q-1 -6 -11.5 -9.5t-21.5 -3.5q-25 0 -40.5 1t-29.5 1.5t-36 0.5q-19 0 -33.5 -1t-29 -2.5t-32.5 -1.5
q-24 0 -22 11q1 8 10 12t24 7q28 6 48.5 17.5t40 36t43.5 70.5l188 372q15 30 15.5 50.5t-18.5 33.5t-62 20q-19 3 -27 6t-8 11q0 9 11.5 12.5t28.5 3.5q18 0 50 -1t66 -2.5t57 -1.5q17 0 24 -9.5t7.5 -26.5t0.5 -43l10 -392q1 -18 8.5 -17t18.5 13q59 65 115.5 132t111 134
t104.5 130q12 21 19.5 35.5t15.5 26.5q8 14 21 14h41q15 0 35 2t39.5 4t30.5 2q12 0 21 -3.5t9 -11.5t-10 -14t-35 -10q-28 -5 -44 -12.5t-25.5 -24.5t-19.5 -50q-27 -95 -49.5 -195.5t-42.5 -198.5q-10 -55 1.5 -79.5t43.5 -30.5q13 -2 18.5 -6t4.5 -12q-1 -5 -9.5 -9
t-19.5 -4q-23 0 -45 2t-43.5 4.5t-43.5 2.5t-40.5 -2.5t-37.5 -4.5t-43 -2q-10 0 -15.5 3.5t-5.5 9.5q1 7 10 11.5t23 8.5q35 8 52 23.5t27 48.5q23 70 40.5 131.5t33 122t31.5 124.5q2 5 -2 5.5t-9 -4.5l-282 -326l-111 -146q-8 -11 -14.5 -17t-10.5 -6zM646 698
q-21 0 -35 14.5t-14 33.5q0 30 22 52.5t55 22.5q22 0 35 -16.5t13 -36.5q0 -19 -10.5 -35t-28 -25.5t-37.5 -9.5z" />
  </g>

</svg>
