<?xml version="1.0" standalone="no"?>
<!DOCTYPE svg PUBLIC "-//W3C//DTD SVG 1.1//EN" "http://www.w3.org/Graphics/SVG/1.1/DTD/svg11.dtd" >
<svg xmlns="http://www.w3.org/2000/svg" xmlns:xlink="http://www.w3.org/1999/xlink" version="1.1" viewBox="-10 0 479 1000">
  <g transform="matrix(1 0 0 -1 0 800)">
   <path fill="currentColor"
d="M138 -14q-29 0 -52 18t-34 41.5t-6 40.5q5 18 17 42t26.5 50.5t27 50.5t18.5 40q13 32 7 50.5t-30 18.5q-16 0 -28 -6.5t-19 -13t-11 -6.5q-6 0 -7.5 2.5t0.5 9.5q5 17 26 40t50.5 40t58.5 17q18 0 29 -9t15 -22.5t-1 -28.5q-7 -18 -22.5 -48.5t-34 -64t-34 -62.5
t-20.5 -45q-9 -30 6 -47.5t47 -17.5q40 0 76.5 26.5t64.5 70t45 93t17 94.5q0 21 -4 34.5t-5 23.5q0 5 5 8.5t8 3.5q14 0 27 -11t22 -31.5t9 -46.5q0 -49 -16.5 -99t-45.5 -96t-66 -82t-79.5 -57t-86.5 -21zM318 463q-39 0 -61.5 17.5t-28.5 43.5t2 50q3 13 10.5 20.5
t15.5 7.5t9.5 -6.5t0.5 -14.5q-2 -22 11.5 -36t50.5 -14t61 14t33 36q4 8 10.5 14.5t14.5 6.5t10.5 -7.5t-0.5 -20.5q-6 -23 -24.5 -49t-47.5 -44t-67 -18z" />
  </g>

</svg>
