<?xml version="1.0" standalone="no"?>
<!DOCTYPE svg PUBLIC "-//W3C//DTD SVG 1.1//EN" "http://www.w3.org/Graphics/SVG/1.1/DTD/svg11.dtd" >
<svg xmlns="http://www.w3.org/2000/svg" xmlns:xlink="http://www.w3.org/1999/xlink" version="1.1" viewBox="-10 0 616 1000">
  <g transform="matrix(1 0 0 -1 0 800)">
   <path fill="currentColor"
d="M162 279q-8 0 -12.5 2.5t-3.5 6.5q2 5 6.5 9t14.5 5q27 3 43.5 13t22.5 31l85 275q4 16 -1 20.5t-23 4.5h-31q-19 0 -39.5 -11.5t-34.5 -24.5q-4 -3 -11.5 -10t-16 -12t-14.5 -5q-3 0 -4 2.5t0 6.5t3.5 7.5t5.5 7.5q19 20 29 38.5t20 41.5q4 10 9.5 13t10.5 3q4 0 8 -5.5
t6 -11.5q4 -7 18.5 -10t29.5 -3h221q16 0 32.5 4.5t22.5 9.5q11 8 17.5 10.5t12.5 2.5q9 0 6 -10q-1 -3 -2.5 -7t-3.5 -8q-11 -23 -20.5 -40t-14.5 -34q-2 -8 -6.5 -13.5t-10.5 -4.5q-5 0 -6.5 6.5t-2.5 13.5q-1 11 -3 21t-10.5 16t-29.5 6h-37t-26 -1q-9 -1 -15.5 -7
t-9.5 -15l-84 -277q-6 -20 4 -29.5t33 -14.5q9 -1 12 -5t2 -9q-2 -9 -19 -9q-14 0 -30 0.5t-32.5 0.5h-29.5h-28.5t-31.5 -0.5t-31 -0.5z" />
  </g>

</svg>
