<?xml version="1.0" standalone="no"?>
<!DOCTYPE svg PUBLIC "-//W3C//DTD SVG 1.1//EN" "http://www.w3.org/Graphics/SVG/1.1/DTD/svg11.dtd" >
<svg xmlns="http://www.w3.org/2000/svg" xmlns:xlink="http://www.w3.org/1999/xlink" version="1.1" viewBox="-10 0 354 1000">
  <g transform="matrix(1 0 0 -1 0 800)">
   <path fill="currentColor"
d="M83 -14q-7 0 -17.5 6t-19.5 16.5t-13.5 24t0.5 29.5l104 335q5 15 12 19.5t24 4.5q14 0 28.5 -7t23.5 -17.5t6 -20.5q-4 -14 -15 -40t-24.5 -57t-27 -63.5t-25 -61t-17.5 -46.5q-6 -19 1 -26t20 -7q11 0 26.5 9t27.5 18q9 6 14.5 10.5t6.5 4.5q13 0 7 -17
q-5 -15 -20 -34.5t-35.5 -37.5t-43 -30t-43.5 -12zM244 458q-32 0 -56 22.5t-24 59.5t18.5 64.5t46.5 43t58 15.5q25 0 36 -10t11 -24q0 -39 -48 -46q-33 -4 -50 -18.5t-17 -36.5q0 -13 7.5 -22.5t24.5 -17.5q16 -8 16 -17q0 -4 -5.5 -8.5t-17.5 -4.5z" />
  </g>

</svg>
