<?xml version="1.0" standalone="no"?>
<!DOCTYPE svg PUBLIC "-//W3C//DTD SVG 1.1//EN" "http://www.w3.org/Graphics/SVG/1.1/DTD/svg11.dtd" >
<svg xmlns="http://www.w3.org/2000/svg" xmlns:xlink="http://www.w3.org/1999/xlink" version="1.1" viewBox="-10 0 1076 1000">
  <g transform="matrix(1 0 0 -1 0 800)">
   <path fill="currentColor"
d="M187 -4q-11 0 -16 2.5t-5 9.5q1 7 9 11t23 9q33 8 49 17.5t24 33.5l146 472q11 34 6.5 48t-37.5 22q-13 3 -17 8t-4 12q1 7 9.5 10t18.5 3q25 0 42 -1t32.5 -2t34.5 -1t36.5 0.5t36.5 1.5t43 1q22 0 20 -12q-1 -8 -9.5 -12.5t-24.5 -7.5q-25 -5 -42 -14t-27 -22.5
t-16 -33.5l-59 -193q-3 -10 10 -10h304q8 0 12 12l60 191q8 28 0.5 44.5t-42.5 25.5q-12 3 -16.5 7.5t-3.5 12.5q0 7 8.5 9.5t18.5 2.5q24 0 43.5 -1t38 -1.5t39.5 -0.5q17 0 31 1t30.5 2t40.5 1q11 0 16.5 -3t4.5 -10q-2 -14 -34 -20q-37 -8 -50 -23.5t-23 -45.5l-143 -466
q-8 -26 -0.5 -39.5t36.5 -19.5q13 -3 17.5 -7.5t3.5 -11.5t-9.5 -9.5t-18.5 -2.5q-23 0 -40 1.5t-33 2.5t-36 1q-19 0 -37 -1t-37 -2.5t-43 -1.5q-21 0 -20 12q1 8 9.5 12t23.5 7q35 7 55.5 23t29.5 47l61 194q2 6 3 11t-5 5h-311q-8 0 -12 -13l-59 -192q-11 -38 2 -52.5
t45 -22.5q13 -3 17.5 -7t3.5 -12q0 -6 -8 -9t-19 -3q-24 0 -43.5 1.5t-38.5 2.5t-39 1t-38 -1t-36.5 -2.5t-41.5 -1.5zM156 435q-17 0 -17 11q0 4 4.5 9.5t13.5 8.5q27 9 39.5 20.5t12.5 28.5q0 12 -7 19t-16 12q-11 7 -18.5 13.5t-7.5 20.5q0 17 14 28t36 11q31 0 52 -18
t21 -52q0 -28 -17.5 -54t-46 -42t-63.5 -16zM122 626q-7 0 -13 5.5t-6 11.5q0 4 11 18.5t26 32t30 29.5t23 12q15 0 26 -1.5t31 -3.5q19 -1 33.5 -2.5t26.5 -1.5q19 0 35 16q11 11 15.5 17.5t8.5 6.5q7 0 13.5 -5t6.5 -13q0 -3 -5.5 -9.5t-13.5 -15.5q-12 -13 -22.5 -28.5
t-20.5 -27.5q-6 -8 -15.5 -11t-14.5 -3q-6 0 -21 1t-34 3t-38.5 3t-34.5 1q-12 0 -20 -8q-10 -10 -17 -18.5t-10 -8.5z" />
  </g>

</svg>
