<?xml version="1.0" standalone="no"?>
<!DOCTYPE svg PUBLIC "-//W3C//DTD SVG 1.1//EN" "http://www.w3.org/Graphics/SVG/1.1/DTD/svg11.dtd" >
<svg xmlns="http://www.w3.org/2000/svg" xmlns:xlink="http://www.w3.org/1999/xlink" version="1.1" viewBox="-25 0 588 1000">
  <g transform="matrix(1 0 0 -1 0 800)">
   <path fill="currentColor"
d="M195 -15q-29 0 -57 4.5t-54 15.5q-14 5 -23 8.5t-12 3.5q-5 0 -11 -2t-11 -4q-6 -4 -11.5 -7.5t-9.5 -3.5q-5 0 -13 7t-8 13q0 7 10 29t21.5 55.5t16.5 72.5q4 24 20 24q10 0 12.5 -11.5t2.5 -35.5q0 -36 12.5 -67t39 -49.5t68.5 -18.5q62 0 103 35t41 95q0 25 -8 46
t-27 44.5t-54 55.5q-45 41 -73.5 82.5t-28.5 99.5q0 54 29 96t78.5 66.5t111.5 24.5q23 0 44.5 -4.5t40.5 -9.5q20 -6 33 -11t22 -5q12 0 21 5q5 3 10 5t10 2q9 0 11 -6.5t0 -11.5q-4 -6 -12.5 -22.5t-18 -45.5t-17.5 -73q-2 -14 -7.5 -21.5t-11.5 -7.5q-7 0 -10.5 8
t-3.5 23q0 68 -32 105.5t-85 37.5q-35 0 -62.5 -18t-43 -45.5t-15.5 -57.5q0 -25 8.5 -47.5t29.5 -47t57 -57.5q54 -47 78 -86.5t24 -84.5q0 -53 -27 -99.5t-79.5 -75t-128.5 -28.5zM397 698q-21 0 -35 14.5t-14 33.5q0 30 22 52.5t55 22.5q22 0 35 -16.5t13 -36.5
q0 -19 -10.5 -35t-28 -25.5t-37.5 -9.5z" />
  </g>

</svg>
