<?xml version="1.0" standalone="no"?>
<!DOCTYPE svg PUBLIC "-//W3C//DTD SVG 1.1//EN" "http://www.w3.org/Graphics/SVG/1.1/DTD/svg11.dtd" >
<svg xmlns="http://www.w3.org/2000/svg" xmlns:xlink="http://www.w3.org/1999/xlink" version="1.1" viewBox="-10 0 1073 1000">
  <g transform="matrix(1 0 0 -1 0 800)">
   <path fill="currentColor"
d="M403 -4q-10 0 -16 2.5t-5 9.5q5 13 34 19q38 7 61 25t33 53l58 190q18 57 24.5 112t-0.5 100t-28.5 71.5t-60.5 26.5q-33 0 -66 -14t-56 -30q-5 -3 -8.5 -1.5t-3.5 6.5q0 10 16.5 26.5t43.5 33t58.5 27.5t63.5 11q41 0 66.5 -16t38.5 -42.5t17.5 -58t3.5 -63.5q0 -3 2 -3
t3 2q41 67 87.5 106.5t92.5 57t82 17.5q42 0 71.5 -19t36.5 -48q2 -10 -3.5 -13t-11.5 1q-21 18 -44 24.5t-44 6.5q-37 0 -72.5 -18.5t-68 -49.5t-58.5 -70q-16 -24 -31.5 -56t-27 -64t-19.5 -55l-60 -198q-9 -32 2.5 -51t44.5 -27q13 -3 18.5 -7t3.5 -12q-1 -6 -9 -9
t-18 -3q-24 0 -44 1.5t-38 2.5t-39 1q-33 0 -63 -2.5t-67 -2.5zM254 453q-8 0 -9.5 5.5t0.5 15.5q1 9 7.5 32t15 51.5t16.5 54t12 38.5q4 10 13.5 15t18.5 5q16 0 28 -13.5t12 -29.5q0 -7 -9.5 -25.5t-23.5 -42t-28.5 -45.5t-24.5 -37q-7 -10 -14.5 -17t-13.5 -7zM157 459
q-32 0 -56 22.5t-24 59.5t18.5 64.5t46.5 43t58 15.5q25 0 36 -10t11 -24q0 -39 -48 -46q-33 -4 -50 -18.5t-17 -36.5q0 -13 7.5 -22.5t24.5 -17.5q16 -8 16 -17q0 -4 -5.5 -8.5t-17.5 -4.5z" />
  </g>

</svg>
