<?xml version="1.0" standalone="no"?>
<!DOCTYPE svg PUBLIC "-//W3C//DTD SVG 1.1//EN" "http://www.w3.org/Graphics/SVG/1.1/DTD/svg11.dtd" >
<svg xmlns="http://www.w3.org/2000/svg" xmlns:xlink="http://www.w3.org/1999/xlink" version="1.1" viewBox="-38 0 579 1000">
  <g transform="matrix(1 0 0 -1 0 800)">
   <path fill="currentColor"
d="M-5 -4q-11 0 -17 2.5t-5 9.5q4 13 35 19q40 7 62.5 22t33.5 49l140 452q11 34 1 48.5t-46 22.5q-28 6 -23 20q2 7 10.5 10t19.5 3q26 0 46 -1t39 -2t41 -1q21 0 39 0.5t38.5 1.5t45.5 1t21 -12q-1 -8 -10 -12.5t-25 -7.5q-27 -5 -44.5 -13t-28 -21.5t-18.5 -36.5
l-140 -451q-6 -18 -1 -24.5t19 -6.5q67 0 114.5 14t77 41.5t42.5 68.5q4 14 0 24t-8.5 18.5t-2.5 17.5q6 21 22.5 32.5t28.5 11.5q22 0 27 -19t-4 -45q-17 -53 -49.5 -96t-81 -73.5t-114.5 -46.5t-149 -16q-23 0 -44.5 -1t-44 -2t-47.5 -1zM96 278q-6 -1 -11 2t-5 8
q1 7 9 16.5t19 11.5l337 77q7 2 11 -2.5t4 -8.5q0 -6 -12 -16.5t-24 -13.5zM111 373q-7 -1 -12 3t-4 8q1 8 9 17t18 11l337 78q6 2 10.5 -2.5t3.5 -8.5q0 -6 -11 -16.5t-25 -13.5z" />
  </g>

</svg>
