<?xml version="1.0" standalone="no"?>
<!DOCTYPE svg PUBLIC "-//W3C//DTD SVG 1.1//EN" "http://www.w3.org/Graphics/SVG/1.1/DTD/svg11.dtd" >
<svg xmlns="http://www.w3.org/2000/svg" xmlns:xlink="http://www.w3.org/1999/xlink" version="1.1" viewBox="-10 0 900 1000">
  <g transform="matrix(1 0 0 -1 0 800)">
   <path fill="currentColor"
d="M123 -216q-28 0 -46 41q-25 62 -36.5 123.5t-11.5 124.5q0 121 42 234t118.5 211.5t179.5 174.5q18 12 34 12q13 0 13 -8q0 -4 -3 -9.5t-11 -12.5q-62 -59 -116 -129.5t-94.5 -148.5t-64 -161t-23.5 -166q0 -58 3.5 -103t10.5 -83t17 -76q2 -10 -1.5 -17t-10.5 -7z
M180 -290q-41 0 -62.5 15.5t-21.5 31.5q1 12 8 22.5t17 17t19 6.5q11 0 20 -7.5t16 -16.5q9 -9 19.5 -16.5t26.5 -7.5q26 0 44.5 30t33.5 76l137 419q6 21 3.5 29.5t-11.5 8.5t-24.5 -7t-35.5 -16q-6 -2 -12 -0.5t-6 6.5q0 6 3 9.5t10 9.5q22 19 44 33.5t43.5 26t42 21
t39.5 19.5q13 5 25.5 -6.5t8.5 -22.5q-9 -24 -20 -52.5t-21 -59.5l-126 -384q-12 -35 -38.5 -68t-59.5 -59.5t-65.5 -42t-56.5 -15.5zM558 511q-18 0 -29.5 13.5t-11.5 31.5q0 27 19 48.5t47 21.5q19 0 29.5 -16t10.5 -34q0 -25 -19 -45t-46 -20zM786 708q28 0 46 -41
q25 -62 36.5 -123.5t11.5 -124.5q0 -121 -42 -234t-118.5 -211.5t-179.5 -174.5q-18 -12 -34 -12q-13 0 -13 8q0 4 3 9.5t11 12.5q62 59 116 129.5t94.5 148.5t64 161t23.5 166q0 58 -3.5 103t-10.5 83t-17 76q-2 10 1.5 17t10.5 7z" />
  </g>

</svg>
