<?xml version="1.0" standalone="no"?>
<!DOCTYPE svg PUBLIC "-//W3C//DTD SVG 1.1//EN" "http://www.w3.org/Graphics/SVG/1.1/DTD/svg11.dtd" >
<svg xmlns="http://www.w3.org/2000/svg" xmlns:xlink="http://www.w3.org/1999/xlink" version="1.1" viewBox="-10 0 1097 1000">
  <g transform="matrix(1 0 0 -1 0 800)">
   <path fill="currentColor"
d="M123 -216q-28 0 -46 41q-25 62 -36.5 123.5t-11.5 124.5q0 121 42 234t118.5 211.5t179.5 174.5q18 12 34 12q13 0 13 -8q0 -4 -3 -9.5t-11 -12.5q-62 -59 -116 -129.5t-94.5 -148.5t-64 -161t-23.5 -166q0 -58 3.5 -103t10.5 -83t17 -76q2 -10 -1.5 -17t-10.5 -7z
M200 -286q-4 0 -9 2.5t-5 7.5q1 8 10 13t17 7q25 5 37.5 12.5t20.5 28.5l185 532q4 12 5.5 19.5t-2 11t-13.5 1.5q-23 -4 -39.5 -9t-37.5 -14q-8 -4 -15.5 -2t-7.5 10q0 9 6 14.5t13 8.5q16 8 42.5 20.5t65.5 24.5q7 2 12.5 7t8.5 16q15 48 32 69.5t42 21.5q12 0 18.5 -7
t2.5 -22l-15 -52q-3 -10 -1 -15t6 -4q13 3 24 4t23 1q51 0 82 -16.5t45 -46t14 -65.5q0 -50 -22.5 -103.5t-61 -100t-86.5 -75t-100 -28.5q-12 0 -24 6.5t-22 12.5q-10 7 -16 4.5t-12 -21.5l-62 -193q-7 -20 4.5 -31.5t39.5 -15.5q9 -1 18 -4.5t9 -12.5q0 -6 -8.5 -8.5
t-18.5 -2.5q-15 0 -34 0.5t-36 0.5t-28 -1q-25 -2 -52 -4t-55 -2zM509 21q22 0 50 24t54 63t43.5 84.5t17.5 88.5q0 55 -21 76t-57 22h-16t-18 -2l-90 -270q-5 -16 -5.5 -31.5t4.5 -26.5q5 -13 13.5 -20.5t24.5 -7.5zM983 708q28 0 46 -41q25 -62 36.5 -123.5t11.5 -124.5
q0 -121 -42 -234t-118.5 -211.5t-179.5 -174.5q-18 -12 -34 -12q-13 0 -13 8q0 4 3 9.5t11 12.5q62 59 116 129.5t94.5 148.5t64 161t23.5 166q0 58 -3.5 103t-10.5 83t-17 76q-2 10 1.5 17t10.5 7z" />
  </g>

</svg>
