<?xml version="1.0" standalone="no"?>
<!DOCTYPE svg PUBLIC "-//W3C//DTD SVG 1.1//EN" "http://www.w3.org/Graphics/SVG/1.1/DTD/svg11.dtd" >
<svg xmlns="http://www.w3.org/2000/svg" xmlns:xlink="http://www.w3.org/1999/xlink" version="1.1" viewBox="-30 0 818 1000">
  <g transform="matrix(1 0 0 -1 0 800)">
   <path fill="currentColor"
d="M326 -15q-45 0 -80.5 4t-64 8.5t-53.5 4.5q-26 0 -43 -2t-33 -3.5t-42 -1.5q-14 0 -22.5 3.5t-6.5 9.5q2 7 9 12.5t26 9.5q31 7 48 14.5t27 21.5t17 39l138 446q11 34 -3 48.5t-50 22.5q-29 5 -25 19q2 6 11 9t21 3q23 0 41.5 -2.5t39.5 -2.5t43.5 3.5t40.5 3.5
q9 0 9.5 -9t-4.5 -26t-14 -42q-1 -4 3 -8t14 8q20 22 48.5 41.5t65 31.5t80.5 12q67 0 113.5 -32t71.5 -87t25 -125q1 -58 -18 -118.5t-55.5 -117t-91 -101.5t-126 -71t-160.5 -26zM344 22q59 0 109.5 27t90 71.5t66.5 100.5t41 114.5t12 112.5q-1 78 -34 127t-92 49
q-31 0 -64.5 -16t-64.5 -42t-55 -59t-35 -69l-95 -309q-9 -27 -1.5 -51.5t36.5 -40t86 -15.5z" />
  </g>

</svg>
