<?xml version="1.0" standalone="no"?>
<!DOCTYPE svg PUBLIC "-//W3C//DTD SVG 1.1//EN" "http://www.w3.org/Graphics/SVG/1.1/DTD/svg11.dtd" >
<svg xmlns="http://www.w3.org/2000/svg" xmlns:xlink="http://www.w3.org/1999/xlink" version="1.1" viewBox="-10 0 1129 1000">
  <g transform="matrix(1 0 0 -1 0 800)">
   <path fill="currentColor"
d="M123 -216q-28 0 -46 41q-25 62 -36.5 123.5t-11.5 124.5q0 121 42 234t118.5 211.5t179.5 174.5q18 12 34 12q13 0 13 -8q0 -4 -3 -9.5t-11 -12.5q-62 -59 -116 -129.5t-94.5 -148.5t-64 -161t-23.5 -166q0 -58 3.5 -103t10.5 -83t17 -76q2 -10 -1.5 -17t-10.5 -7z
M376 -17q-6 0 -13 5t-12 12.5t-5 16.5q0 16 3.5 31.5t9.5 36.5l139 466q5 17 9.5 35.5t4.5 29.5t-12.5 16.5t-25.5 9.5q-7 3 -13 5.5t-6 7.5q0 4 4 8t17 9q9 3 26.5 9t37.5 12t36.5 10t22.5 4t13 -1t7 -10q0 -10 -2 -17t-4 -15l-137 -454q-2 -7 1 -7t6 4q41 63 86.5 112.5
t88 78t75.5 28.5q36 0 54.5 -23.5t18.5 -55.5q0 -51 -17 -105t-44.5 -103t-59.5 -85q-7 -7 -21.5 -18.5t-33.5 -22.5t-37.5 -19t-31.5 -8q-9 0 -20 6.5t-19 16.5t-8 17q0 5 4.5 13.5t11.5 15.5t14 7q9 0 15.5 -4t11.5 -10q7 -6 13.5 -10.5t15.5 -4.5q14 0 30.5 20t32 53
t27.5 72t19 77.5t7 69.5q0 21 -8 32.5t-25 11.5q-20 0 -44.5 -21t-52 -56t-55 -76t-51.5 -80.5t-41 -69.5q-23 -42 -36.5 -62.5t-26.5 -20.5zM1015 708q28 0 46 -41q25 -62 36.5 -123.5t11.5 -124.5q0 -121 -42 -234t-118.5 -211.5t-179.5 -174.5q-18 -12 -34 -12
q-13 0 -13 8q0 4 3 9.5t11 12.5q62 59 116 129.5t94.5 148.5t64 161t23.5 166q0 58 -3.5 103t-10.5 83t-17 76q-2 10 1.5 17t10.5 7z" />
  </g>

</svg>
