<?xml version="1.0" standalone="no"?>
<!DOCTYPE svg PUBLIC "-//W3C//DTD SVG 1.1//EN" "http://www.w3.org/Graphics/SVG/1.1/DTD/svg11.dtd" >
<svg xmlns="http://www.w3.org/2000/svg" xmlns:xlink="http://www.w3.org/1999/xlink" version="1.1" viewBox="-10 0 948 1000">
  <g transform="matrix(1 0 0 -1 0 800)">
   <path fill="currentColor"
d="M123 -216q-28 0 -46 41q-25 62 -36.5 123.5t-11.5 124.5q0 121 42 234t118.5 211.5t179.5 174.5q18 12 34 12q13 0 13 -8q0 -4 -3 -9.5t-11 -12.5q-62 -59 -116 -129.5t-94.5 -148.5t-64 -161t-23.5 -166q0 -58 3.5 -103t10.5 -83t17 -76q2 -10 -1.5 -17t-10.5 -7z
M420 -15q-24 0 -47.5 15.5t-39 41.5t-14.5 59q1 41 13 85t34 86t54 75.5t73 53.5t90 20q31 0 48.5 -12.5t17.5 -29.5t-11 -34.5t-23 -17.5q-8 0 -13.5 7t-12.5 20t-17.5 23.5t-25.5 10.5q-23 0 -47 -25.5t-44.5 -65.5t-33 -86t-13.5 -86q0 -34 15 -49.5t41 -15.5
q30 0 51 12.5t39 32.5q6 6 10 9t9 3q9 0 9 -12q0 -14 -13.5 -34t-37 -40t-52 -33t-59.5 -13zM834 708q28 0 46 -41q25 -62 36.5 -123.5t11.5 -124.5q0 -121 -42 -234t-118.5 -211.5t-179.5 -174.5q-18 -12 -34 -12q-13 0 -13 8q0 4 3 9.5t11 12.5q62 59 116 129.5
t94.5 148.5t64 161t23.5 166q0 58 -3.5 103t-10.5 83t-17 76q-2 10 1.5 17t10.5 7z" />
  </g>

</svg>
