<?xml version="1.0" standalone="no"?>
<!DOCTYPE svg PUBLIC "-//W3C//DTD SVG 1.1//EN" "http://www.w3.org/Graphics/SVG/1.1/DTD/svg11.dtd" >
<svg xmlns="http://www.w3.org/2000/svg" xmlns:xlink="http://www.w3.org/1999/xlink" version="1.1" viewBox="-10 0 1028 1000">
  <g transform="matrix(1 0 0 -1 0 800)">
   <path fill="currentColor"
d="M123 -216q-28 0 -46 41q-25 62 -36.5 123.5t-11.5 124.5q0 121 42 234t118.5 211.5t179.5 174.5q18 12 34 12q13 0 13 -8q0 -4 -3 -9.5t-11 -12.5q-62 -59 -116 -129.5t-94.5 -148.5t-64 -161t-23.5 -166q0 -58 3.5 -103t10.5 -83t17 -76q2 -10 -1.5 -17t-10.5 -7z
M377 -16q-7 0 -15.5 4t-15 11.5t-6.5 15.5q0 11 5 25.5t13 36.5l95 247q5 12 3.5 21.5t-11.5 9.5q-16 0 -29 -5t-23 -12q-6 -4 -12 -2t-6 10q-1 12 10.5 26t29.5 25q15 11 35 17.5t40 6.5q28 0 37 -14.5t5.5 -39t-16.5 -55.5l-43 -105q-4 -7 2.5 -9t9.5 4q38 67 76.5 116.5
t73 77.5t62.5 28t40.5 -16t12.5 -39q0 -21 -8.5 -42t-22 -34.5t-27.5 -13.5q-10 0 -14.5 10t-6.5 28q-1 15 -5.5 25.5t-15.5 10.5q-13 0 -30 -16.5t-41 -51.5q-10 -14 -27 -39.5t-36 -56.5l-38 -62t-33 -56q-24 -43 -39 -65t-29 -22zM914 708q28 0 46 -41
q25 -62 36.5 -123.5t11.5 -124.5q0 -121 -42 -234t-118.5 -211.5t-179.5 -174.5q-18 -12 -34 -12q-13 0 -13 8q0 4 3 9.5t11 12.5q62 59 116 129.5t94.5 148.5t64 161t23.5 166q0 58 -3.5 103t-10.5 83t-17 76q-2 10 1.5 17t10.5 7z" />
  </g>

</svg>
