<?xml version="1.0" standalone="no"?>
<!DOCTYPE svg PUBLIC "-//W3C//DTD SVG 1.1//EN" "http://www.w3.org/Graphics/SVG/1.1/DTD/svg11.dtd" >
<svg xmlns="http://www.w3.org/2000/svg" xmlns:xlink="http://www.w3.org/1999/xlink" version="1.1" viewBox="-45 0 1066 1000">
  <g transform="matrix(1 0 0 -1 0 800)">
   <path fill="currentColor"
d="M-21 -5q-3 0 -8.5 5t-5.5 13q0 7 17 19l28 21t40 27q16 10 40 27t50.5 39.5t50 48.5t38.5 53.5t15 54.5q0 25 -18 37.5t-39 12.5q-28 0 -51 -14t-46 -37q-4 -4 -8.5 -7t-9.5 -3q-10 0 -10 11q0 14 14 33.5t39.5 39t58 32t70.5 12.5q30 0 54 -13t38.5 -34t14.5 -44
q0 -31 -14 -54.5t-35 -42t-43 -37.5q-17 -13 -39.5 -30t-46 -33.5t-42 -28.5t-25.5 -17q-5 -3 -2 -5.5t8 -2.5h128q27 0 48.5 12.5t40.5 43.5q7 12 13 18.5t14 6.5t10.5 -4.5t0.5 -10.5q-6 -16 -19 -42t-26 -50.5t-20 -37.5q-5 -11 -9.5 -14.5t-10.5 -3.5q-17 0 -36.5 0.5
t-41 1.5t-44 1.5t-45.5 0.5q-28 0 -57 -1t-50.5 -2.5t-28.5 -1.5zM522 -14q-28 0 -52.5 17t-39 45t-15.5 61q-1 36 10 78.5t32 83.5t51.5 75t68 54.5t82.5 20.5q36 0 62.5 -18t40.5 -48.5t14 -68.5q-1 -45 -18 -97t-50 -98t-80 -75.5t-106 -29.5zM534 19q22 0 45 21t43.5 55
t37 75t26 82.5t10.5 76.5q0 27 -8 43t-32 16q-21 0 -43 -19t-43 -51t-37.5 -72.5t-26.5 -82.5t-11 -81q-1 -33 9.5 -48t29.5 -15zM842 -20q-22 0 -37 17t-15 39q0 21 11 38.5t28 28t38 10.5q24 0 38.5 -18t14.5 -40q0 -20 -10.5 -37t-28 -27.5t-39.5 -10.5z" />
  </g>

</svg>
