<?xml version="1.0" standalone="no"?>
<!DOCTYPE svg PUBLIC "-//W3C//DTD SVG 1.1//EN" "http://www.w3.org/Graphics/SVG/1.1/DTD/svg11.dtd" >
<svg xmlns="http://www.w3.org/2000/svg" xmlns:xlink="http://www.w3.org/1999/xlink" version="1.1" viewBox="-38 0 575 1000">
  <g transform="matrix(1 0 0 -1 0 800)">
   <path fill="currentColor"
d="M-7 -4q-11 0 -16 2.5t-5 9.5q2 13 34 19q36 7 52 22t27 49l138 453q11 34 6.5 48t-37.5 22q-13 3 -17 8t-4 12q1 7 9.5 10t18.5 3q25 0 42 -1t32.5 -2t34.5 -1t36.5 0.5t36.5 1.5t43 1q22 0 20 -12q-1 -8 -9.5 -12.5t-24.5 -7.5q-25 -5 -42 -14t-27 -22.5t-16 -33.5
l-53 -171q-5 -17 -1.5 -23t18.5 -6l125 2q26 1 42.5 13t29.5 31q7 8 15.5 17.5t16.5 9.5q7 0 8 -7.5t-4 -18.5q-9 -19 -16 -35.5t-12 -32.5q-6 -17 -10.5 -35t-9.5 -40q-2 -10 -6 -17t-9 -7q-8 0 -11.5 10t-2.5 17q0 31 -9 45t-27 14l-120 2q-15 0 -26 -5t-16 -24l-59 -186
q-10 -30 3 -49.5t45 -27.5q13 -3 17.5 -7t3.5 -12q0 -6 -8 -9t-19 -3q-24 0 -43.5 1.5t-38.5 2.5t-39 1t-38 -1t-36.5 -2.5t-41.5 -1.5z" />
  </g>

</svg>
