<?xml version="1.0" standalone="no"?>
<!DOCTYPE svg PUBLIC "-//W3C//DTD SVG 1.1//EN" "http://www.w3.org/Graphics/SVG/1.1/DTD/svg11.dtd" >
<svg xmlns="http://www.w3.org/2000/svg" xmlns:xlink="http://www.w3.org/1999/xlink" version="1.1" viewBox="-10 0 1089 1000">
  <g transform="matrix(1 0 0 -1 0 800)">
   <path fill="currentColor"
d="M123 -216q-28 0 -46 41q-25 62 -36.5 123.5t-11.5 124.5q0 121 42 234t118.5 211.5t179.5 174.5q18 12 34 12q13 0 13 -8q0 -4 -3 -9.5t-11 -12.5q-62 -59 -116 -129.5t-94.5 -148.5t-64 -161t-23.5 -166q0 -58 3.5 -103t10.5 -83t17 -76q2 -10 -1.5 -17t-10.5 -7z
M414 -287q-4 -1 -10.5 2t-5.5 9q0 8 9 13t18 6q24 5 40.5 16t24.5 32q19 51 39 105t40.5 110t41.5 111q4 10 -0.5 15t-14.5 -7q-39 -46 -74 -77t-69 -46.5t-69 -15.5q-34 0 -55 21t-21 52q0 43 19 91t52 96t72 89q40 42 88 67t88 25q21 0 35 -8t22 -19q8 -8 12.5 -14t9.5 -6
q10 0 18 15l9 17q9 16 19.5 22t19.5 6t12 -14.5t-8 -45.5l-192 -579q-7 -21 1 -33t27 -14q13 -2 22 -5t9 -11q0 -6 -8 -8.5t-19 -2.5q-39 0 -78.5 -2.5t-72 -5.5t-51.5 -6zM424 35q18 0 42 14.5t49.5 38t48.5 52t40 55.5q23 39 41 76.5t18 65.5q0 12 -5.5 24t-14.5 20t-21 8
q-20 0 -48 -23t-58 -59.5t-56.5 -79t-43 -83.5t-16.5 -73q0 -18 5.5 -27t18.5 -9zM975 708q28 0 46 -41q25 -62 36.5 -123.5t11.5 -124.5q0 -121 -42 -234t-118.5 -211.5t-179.5 -174.5q-18 -12 -34 -12q-13 0 -13 8q0 4 3 9.5t11 12.5q62 59 116 129.5t94.5 148.5t64 161
t23.5 166q0 58 -3.5 103t-10.5 83t-17 76q-2 10 1.5 17t10.5 7z" />
  </g>

</svg>
