<?xml version="1.0" standalone="no"?>
<!DOCTYPE svg PUBLIC "-//W3C//DTD SVG 1.1//EN" "http://www.w3.org/Graphics/SVG/1.1/DTD/svg11.dtd" >
<svg xmlns="http://www.w3.org/2000/svg" xmlns:xlink="http://www.w3.org/1999/xlink" version="1.1" viewBox="-10 0 920 1000">
  <g transform="matrix(1 0 0 -1 0 800)">
   <path fill="currentColor"
d="M123 -216q-28 0 -46 41q-25 62 -36.5 123.5t-11.5 124.5q0 121 42 234t118.5 211.5t179.5 174.5q18 12 34 12q13 0 13 -8q0 -4 -3 -9.5t-11 -12.5q-62 -59 -116 -129.5t-94.5 -148.5t-64 -161t-23.5 -166q0 -58 3.5 -103t10.5 -83t17 -76q2 -10 -1.5 -17t-10.5 -7z
M366 -14q-17 0 -33 15.5t-16 32.5q0 7 3 15l182 527q8 21 8 34.5t-6 23.5q-4 7 -11.5 14t-17.5 11q-7 3 -10 7t0 7q8 4 18 7.5t19.5 6.5t15.5 4q14 4 35 8t39 6.5t24 2.5q5 0 8.5 -4.5t3.5 -12.5q-1 -6 -3.5 -15t-5.5 -18l-195 -557q-2 -7 -3 -13t-1 -11q0 -15 11 -15
q12 0 30.5 13.5t37 33t30.5 35.5q5 6 11 11.5t9 5.5q5 0 6 -4.5t1 -9.5q0 -19 -13.5 -40.5t-36.5 -43t-48.5 -39t-50 -28t-41.5 -10.5zM806 708q28 0 46 -41q25 -62 36.5 -123.5t11.5 -124.5q0 -121 -42 -234t-118.5 -211.5t-179.5 -174.5q-18 -12 -34 -12q-13 0 -13 8
q0 4 3 9.5t11 12.5q62 59 116 129.5t94.5 148.5t64 161t23.5 166q0 58 -3.5 103t-10.5 83t-17 76q-2 10 1.5 17t10.5 7z" />
  </g>

</svg>
