<?xml version="1.0" standalone="no"?>
<!DOCTYPE svg PUBLIC "-//W3C//DTD SVG 1.1//EN" "http://www.w3.org/Graphics/SVG/1.1/DTD/svg11.dtd" >
<svg xmlns="http://www.w3.org/2000/svg" xmlns:xlink="http://www.w3.org/1999/xlink" version="1.1" viewBox="-10 0 1044 1000">
  <g transform="matrix(1 0 0 -1 0 800)">
   <path fill="currentColor"
d="M768 476q8 0 16 -5t13 -9q24 -24 47 -45t46.5 -40t50 -36.5t59.5 -33.5q8 -5 11.5 -8t3.5 -8t-3 -8.5t-13 -7.5q-34 -19 -61 -37t-50 -37t-45.5 -40t-45.5 -45q-5 -5 -13.5 -9.5t-16.5 -4.5t-9 5t2 11q7 11 13 22.5t13 22.5h-669q-6 0 -10.5 3t-4.5 8q0 8 4 17t10.5 15.5
t16.5 6.5h683q21 31 40 53h-739q-6 0 -10.5 3t-4.5 8q0 6 4 15t11 16.5t16 7.5h725q-12 12 -22.5 25.5t-19.5 29.5h-699q-6 0 -10.5 3.5t-4.5 8.5q0 7 4 16t10.5 15.5t16.5 6.5h650q-5 10 -11 19.5t-11 19.5q-1 2 -1.5 4t-0.5 4q0 8 9 8z" />
  </g>

</svg>
