<?xml version="1.0" standalone="no"?>
<!DOCTYPE svg PUBLIC "-//W3C//DTD SVG 1.1//EN" "http://www.w3.org/Graphics/SVG/1.1/DTD/svg11.dtd" >
<svg xmlns="http://www.w3.org/2000/svg" xmlns:xlink="http://www.w3.org/1999/xlink" version="1.1" viewBox="-18 0 907 1000">
  <g transform="matrix(1 0 0 -1 0 800)">
   <path fill="currentColor"
d="M631 -14q-79 0 -123.5 18t-68.5 64q-9 19 -22.5 50.5t-28 66.5t-26.5 67q-9 24 -20 34t-34 10q-18 0 -25 -4t-10 -15l-53 -170q-11 -34 -2 -53.5t44 -26.5q13 -3 18 -7t4 -12q-1 -6 -9 -9t-19 -3q-23 0 -41.5 1.5t-35 3t-34.5 1.5q-34 0 -64.5 -3t-66.5 -3q-10 0 -16 2.5
t-5 9.5q1 13 33 19q38 7 58.5 22t31.5 50l132 431q15 49 4.5 67.5t-55.5 23.5q-14 2 -21 7.5t-7 12.5t12 10t23 3q13 0 33.5 -1t40 -1.5t30.5 -0.5q21 0 41 1.5t40.5 3t40.5 1.5q55 0 99 -17.5t70 -51t27 -84.5q1 -50 -24 -88t-64.5 -63t-83.5 -38q-12 -4 -7 -15
q7 -19 20 -47.5t28.5 -60.5t30.5 -62t27 -52t32 -39.5t47 -17.5q94 0 96 78q0 27 -15 45t-39 36q-24 19 -43 42t-19 60q0 36 23.5 67.5t64.5 51.5t95 20q31 0 52 -6.5t29 -13.5q4 -13 2 -37.5t-10 -48.5q-1 -4 -6 -6t-10 -2q-14 0 -16 10q-6 33 -18.5 51.5t-43.5 18.5
q-33 0 -56.5 -18.5t-23.5 -50.5q0 -26 17 -42t44 -37q26 -18 48 -42t22 -65q0 -48 -29 -80.5t-74 -49t-91 -16.5zM343 325q26 0 56.5 10t58 32t45 58t17.5 87q0 48 -30 81t-76 33q-20 0 -30.5 -8.5t-16.5 -31.5l-63 -223q-7 -22 2 -30t37 -8z" />
  </g>

</svg>
