<?xml version="1.0" standalone="no"?>
<!DOCTYPE svg PUBLIC "-//W3C//DTD SVG 1.1//EN" "http://www.w3.org/Graphics/SVG/1.1/DTD/svg11.dtd" >
<svg xmlns="http://www.w3.org/2000/svg" xmlns:xlink="http://www.w3.org/1999/xlink" version="1.1" viewBox="-10 0 731 1000">
  <g transform="matrix(1 0 0 -1 0 800)">
   <path fill="currentColor"
d="M114 -4q-11 0 -17 2.5t-5 9.5t10.5 11t24.5 6q38 8 61 24.5t33 51.5l87 293q16 53 14 69.5t-16 16.5h-43q-44 0 -73 -19.5t-49 -42.5q-8 -9 -17.5 -21t-18 -20.5t-16.5 -8.5q-7 0 -9 3.5t-2 11.5l3.5 10.5t8.5 18.5q16 26 29 52.5t24 56.5q2 9 8.5 15t11.5 6q6 0 13.5 -5
t12.5 -11q8 -6 21 -10.5t56 -4.5h281q35 0 53 2.5t26.5 5.5t11.5 6q10 6 17 11.5t14 5.5q11 0 9 -12q0 -7 -3 -14t-6 -12q-9 -17 -21.5 -49.5t-21.5 -71.5q-3 -11 -6.5 -16t-9.5 -5q-8 0 -11.5 7t-3.5 21q-1 44 -15.5 67t-54.5 23h-59q-13 0 -21 -5.5t-15.5 -23t-17.5 -51.5
l-89 -299q-10 -34 3 -50.5t47 -25.5q13 -3 18 -6t4 -11q-1 -6 -9 -9t-19 -3q-24 0 -44 1.5t-38.5 2.5t-39.5 1q-22 0 -43 -1t-42.5 -2.5t-45.5 -1.5zM161 601q-10 0 -10 10q0 12 10.5 26t22.5 14h515q12 0 12 -11q0 -8 -7 -17t-15.5 -15.5t-16.5 -6.5h-511z" />
  </g>

</svg>
