<?xml version="1.0" standalone="no"?>
<!DOCTYPE svg PUBLIC "-//W3C//DTD SVG 1.1//EN" "http://www.w3.org/Graphics/SVG/1.1/DTD/svg11.dtd" >
<svg xmlns="http://www.w3.org/2000/svg" xmlns:xlink="http://www.w3.org/1999/xlink" version="1.1" viewBox="-10 0 722 1000">
  <g transform="matrix(1 0 0 -1 0 800)">
   <path fill="currentColor"
d="M223 -200q-46 0 -76 23.5t-43.5 65t-10 96t21.5 116.5l136 442q10 31 9 46t-16 21.5t-48 10.5q-14 2 -21 6.5t-7 11.5q0 8 12 11.5t23 3.5q13 0 33.5 -1t40 -1.5t30.5 -0.5q21 0 41 1t40.5 2.5t40.5 1.5q56 0 100 -16.5t70 -49.5t26 -83q0 -51 -25.5 -89.5t-65 -63
t-83.5 -36.5q-12 -5 -8 -16q8 -19 19.5 -45t25 -55t25.5 -53.5t20 -40.5q19 -38 39.5 -54t51.5 -20q13 -1 23.5 -4.5t10.5 -12.5q0 -13 -20 -16.5t-58 -3.5q-36 0 -62.5 6t-43.5 18t-26 31q-15 29 -31 64t-30.5 71t-26.5 68q-9 24 -19.5 34t-33.5 10q-18 0 -24.5 -4.5
t-9.5 -14.5l-89 -305q-21 -73 -13.5 -107t35.5 -34q12 0 25.5 13.5t33.5 31.5q15 13 26 18.5t23 5.5q16 0 24.5 -11.5t9.5 -27.5q0 -16 -15 -31t-42.5 -24t-67.5 -9zM342 321q26 0 56.5 10.5t58.5 33t45.5 59.5t17.5 89q0 48 -30.5 81.5t-76.5 33.5q-13 0 -22.5 -5.5
t-17 -22t-18.5 -52.5l-52 -189q-6 -22 2.5 -30t36.5 -8z" />
  </g>

</svg>
