<?xml version="1.0" standalone="no"?>
<!DOCTYPE svg PUBLIC "-//W3C//DTD SVG 1.1//EN" "http://www.w3.org/Graphics/SVG/1.1/DTD/svg11.dtd" >
<svg xmlns="http://www.w3.org/2000/svg" xmlns:xlink="http://www.w3.org/1999/xlink" version="1.1" viewBox="-24 0 384 1000">
  <g transform="matrix(1 0 0 -1 0 800)">
   <path fill="currentColor"
d="M217 329q4 0 15 -14.5t20.5 -35t9.5 -40.5q0 -29 -9.5 -52.5t-39 -46t-90.5 -46.5q-43 -18 -70 -43t-27 -64q0 -31 23.5 -51t63.5 -20q17 0 33 4t24 7q9 3 15 6t14 3q13 0 21 -8t8 -23q0 -28 -27.5 -45t-65.5 -17q-31 0 -58.5 11.5t-48 34t-31.5 53t-11 68.5
q0 54 23.5 90.5t63.5 55.5l90 43q29 14 39 28t10 36q0 9 -1.5 18t-3.5 17q-2 6 -3.5 12t-1.5 11t5 6.5t10 1.5zM268 519q20 0 33.5 -15.5t13.5 -34.5q0 -29 -20.5 -50t-48.5 -21q-23 0 -36 16.5t-13 35.5q0 28 21 48.5t50 20.5zM234 195q-11 -54 -23 -107.5t-22.5 -98
t-17.5 -73.5q-7 -24 -24.5 -42t-42.5 -18q-26 0 -40 17.5t-4 45.5q8 24 24 63t35 85.5t41 95.5z" />
  </g>

</svg>
