<?xml version="1.0" standalone="no"?>
<!DOCTYPE svg PUBLIC "-//W3C//DTD SVG 1.1//EN" "http://www.w3.org/Graphics/SVG/1.1/DTD/svg11.dtd" >
<svg xmlns="http://www.w3.org/2000/svg" xmlns:xlink="http://www.w3.org/1999/xlink" version="1.1" viewBox="-10 0 846 1000">
  <g transform="matrix(1 0 0 -1 0 800)">
   <path fill="currentColor"
d="M803 655q11 0 16.5 -3t6.5 -11q0 -9 -9 -13.5t-23 -7.5q-25 -7 -49 -17.5t-45.5 -25t-37.5 -32.5q-71 -79 -133 -154t-121 -149.5t-120 -149.5q-14 -17 -24 -32t-17 -24t-11 -9q-23 0 -35.5 -6t-26.5 -19q-15 -14 -23.5 -20.5t-14.5 -6.5q-7 0 -9 10.5t3 31.5l102 514
q9 43 -1.5 63t-41.5 28q-15 4 -22.5 7.5t-7.5 11.5q0 7 8 10t23 3t38 -1.5t47.5 -2.5t46.5 -1h39.5t42 1t34.5 1q21 0 23 -13q0 -8 -8 -13.5t-20 -7.5q-30 -5 -48 -12.5t-28.5 -22t-16.5 -40.5l-31 -120q-3 -12 4.5 -18t20.5 -6l126 2q14 0 22.5 4t15.5 14l91 119
q20 26 22.5 42t-7 24t-25.5 13q-10 3 -17.5 8.5t-7.5 13.5q0 7 8.5 10t20.5 3q19 0 41.5 -1t49.5 -1q31 0 67 3t62 3zM428 362l-112 -1q-10 0 -15.5 -5t-8.5 -18l-48 -219q-2 -10 -2 -15.5t5 -5.5q3 0 7.5 2t9.5 9l179 232q8 10 8 15.5t-23 5.5z" />
  </g>

</svg>
