<?xml version="1.0" standalone="no"?>
<!DOCTYPE svg PUBLIC "-//W3C//DTD SVG 1.1//EN" "http://www.w3.org/Graphics/SVG/1.1/DTD/svg11.dtd" >
<svg xmlns="http://www.w3.org/2000/svg" xmlns:xlink="http://www.w3.org/1999/xlink" version="1.1" viewBox="-10 0 709 1000">
  <g transform="matrix(1 0 0 -1 0 800)">
   <path fill="currentColor"
d="M349 17q-65 0 -121.5 24t-99.5 67.5t-67.5 100t-24.5 121.5t24.5 121t68 99.5t100 67.5t121.5 24t121.5 -24t99.5 -67.5t67.5 -99.5t24.5 -121t-24.5 -121.5t-68 -100t-100.5 -67.5t-121 -24zM349 57q56 0 104.5 21.5t85.5 59.5t58 87.5t21 105.5q0 55 -21 103.5t-58 85
t-85.5 57.5t-103.5 21t-104 -21t-85.5 -57.5t-57.5 -85t-21 -103.5q0 -56 20.5 -105.5t57 -87.5t85 -59.5t104.5 -21.5zM226 182q-33 0 -56.5 20t-35 51.5t-11.5 65.5q0 45 14 78.5t40.5 52t63.5 18.5q40 0 70 -24.5t47 -65.5q5 -8 10 3q14 35 38.5 60.5t68.5 25.5
q34 0 57 -20t34.5 -51.5t11.5 -65.5q0 -45 -14 -78.5t-40 -51.5t-63 -18q-39 0 -69.5 25t-48.5 65q-4 11 -10 -3q-9 -23 -23 -43t-34 -32t-50 -12zM237 236q25 0 46.5 11.5t37.5 39.5q4 7 4 11t-2 8t-5 9q-18 40 -41.5 69t-52.5 29q-33 0 -54.5 -23t-21.5 -63
q0 -38 25.5 -64.5t63.5 -26.5zM479 234q34 0 54.5 23.5t20.5 63.5q0 38 -26 64.5t-63 26.5q-26 0 -46.5 -11.5t-36.5 -39.5q-2 -3 -3 -6t-1 -5q0 -3 2 -7.5t5 -9.5q19 -38 43 -68.5t51 -30.5z" />
  </g>

</svg>
