<?xml version="1.0" standalone="no"?>
<!DOCTYPE svg PUBLIC "-//W3C//DTD SVG 1.1//EN" "http://www.w3.org/Graphics/SVG/1.1/DTD/svg11.dtd" >
<svg xmlns="http://www.w3.org/2000/svg" xmlns:xlink="http://www.w3.org/1999/xlink" version="1.1" viewBox="-10 0 505 1000">
  <g transform="matrix(1 0 0 -1 0 800)">
   <path fill="currentColor"
d="M138 -14q-29 0 -52 18t-34 41.5t-6 40.5q5 18 17 42t26.5 50.5t27 50.5t18.5 40q13 32 7 50.5t-30 18.5q-16 0 -28 -6.5t-19 -13t-11 -6.5q-6 0 -7.5 2.5t0.5 9.5q5 17 26 40t50.5 40t58.5 17q18 0 29 -9t15 -22.5t-1 -28.5q-7 -18 -22.5 -48.5t-34 -64t-34 -62.5
t-20.5 -45q-9 -30 6 -47.5t47 -17.5q40 0 76.5 26.5t64.5 70t45 93t17 94.5q0 21 -4 34.5t-5 23.5q0 5 5 8.5t8 3.5q14 0 27 -11t22 -31.5t9 -46.5q0 -49 -16.5 -99t-45.5 -96t-66 -82t-79.5 -57t-86.5 -21zM414 492q-17 0 -28.5 13t-11.5 32t9.5 35t25 25.5t34.5 9.5
q20 0 31 -14t11 -33q0 -26 -20.5 -47t-50.5 -21zM234 492q-18 0 -29.5 13t-11.5 32t9.5 35t25.5 25.5t35 9.5t30 -14t11 -33q0 -26 -20.5 -47t-49.5 -21z" />
  </g>

</svg>
