<?xml version="1.0" standalone="no"?>
<!DOCTYPE svg PUBLIC "-//W3C//DTD SVG 1.1//EN" "http://www.w3.org/Graphics/SVG/1.1/DTD/svg11.dtd" >
<svg xmlns="http://www.w3.org/2000/svg" xmlns:xlink="http://www.w3.org/1999/xlink" version="1.1" viewBox="-10 0 660 1000">
  <g transform="matrix(1 0 0 -1 0 800)">
   <path fill="currentColor"
d="M131 -14q-26 0 -45 18t-22 53.5t15 86.5l59 156q5 14 2.5 20t-8.5 6t-23.5 -9t-33.5 -24q-5 -4 -10.5 -7t-7.5 -3q-10 0 -10 9q0 5 2.5 11.5t12.5 18.5q18 20 39.5 38.5t43 32.5t40.5 22.5t32 8.5q10 0 17.5 -6.5t9.5 -19t-6 -34.5l-85 -238q-12 -34 -2.5 -54t33.5 -20
q17 0 38 15.5t41 39.5t35 48t20 41q3 11 6.5 29t7.5 38.5t8 39.5t6 31q3 12 9.5 24.5t15.5 19.5q14 10 27 17t36 7q9 0 13 -12t3 -30.5t-8 -38.5q-11 -34 -23.5 -61.5t-22.5 -48.5q-8 -18 -14 -39t-7 -34q-5 -39 3 -63t32 -24q27 0 55 21t51.5 55.5t38 75t14.5 79.5
q0 14 -4 25.5t-10 22.5q-7 13 -14 22.5t-7 16.5q0 10 13.5 23t30.5 23t28 10q13 0 23.5 -19t10.5 -56q0 -44 -14 -88.5t-40.5 -89t-64.5 -88.5q-40 -47 -81 -72.5t-79 -25.5q-29 0 -45.5 21.5t-19.5 54.5t6 69l8 -9q-24 -37 -56 -68t-65 -49.5t-58 -18.5zM484 658
q8 0 11.5 -8t8.5 -26q4 -16 8.5 -36.5t8.5 -41.5t6.5 -38t3.5 -25q1 -9 -1.5 -18.5t-10.5 -9.5q-11 0 -21 22q-6 15 -16.5 38.5t-20.5 46.5q-3 7 -10 0q-23 -23 -48 -46.5t-41 -39.5q-10 -8 -18.5 -14.5t-13.5 -6.5q-10 0 -10 10q0 5 2.5 10.5t7.5 11.5q11 15 30 39t39 48.5
t34 41.5t28 29.5t23 12.5z" />
  </g>

</svg>
