<?xml version="1.0" standalone="no"?>
<!DOCTYPE svg PUBLIC "-//W3C//DTD SVG 1.1//EN" "http://www.w3.org/Graphics/SVG/1.1/DTD/svg11.dtd" >
<svg xmlns="http://www.w3.org/2000/svg" xmlns:xlink="http://www.w3.org/1999/xlink" version="1.1" viewBox="-10 0 764 1000">
  <g transform="matrix(1 0 0 -1 0 800)">
   <path fill="currentColor"
d="M117 -5q-12 0 -18 3t-5 9q2 8 11.5 12.5t24.5 7.5q38 7 61.5 27t34.5 55l26 83h-114q-6 0 -9.5 4.5t-2.5 9.5q1 8 10.5 17t20.5 9h108l6 21q2 7 3.5 13t2.5 12h-112q-6 0 -9.5 4.5t-2.5 9.5q2 7 11.5 16.5t19.5 9.5h95l-2 10t-3 9l-60 219q-7 27 -18.5 42t-38.5 21
q-11 3 -17 8.5t-4 13.5q2 7 10 9.5t18 2.5q29 0 61 -2t68 -2q24 0 44 2t41 2q11 0 18.5 -3t5.5 -9q-2 -8 -12 -12.5t-25 -8.5q-22 -6 -36 -20.5t-8 -44.5l40 -168q4 -18 7.5 -26.5t7.5 -8.5q5 0 13 8.5t22 24.5q16 19 37.5 44.5t44 53.5t41.5 52q28 36 28 56.5t-30 27.5
q-10 3 -18.5 8t-6.5 13q2 6 11 9t21 3q23 0 42.5 -1t41.5 -1q27 0 51.5 2t44.5 2q12 0 19.5 -2.5t4.5 -10.5q-2 -7 -11 -11.5t-24 -8.5q-18 -3 -40 -18.5t-42.5 -34t-34.5 -33.5q-49 -54 -92.5 -104t-73.5 -83q-8 -8 -15 -16t-11 -15h108q5 0 9 -5t1 -10q-5 -9 -15.5 -16.5
t-22.5 -7.5h-98l-15 -46h114q6 0 9.5 -5t0.5 -10q-5 -10 -15.5 -17.5t-22.5 -7.5h-97l-26 -83q-11 -35 0 -54.5t45 -27.5q14 -3 20.5 -7t3.5 -12q-1 -7 -9.5 -10t-20.5 -3q-24 0 -43 1.5t-37.5 3t-40.5 1.5t-42.5 -1.5t-42 -3t-45.5 -1.5z" />
  </g>

</svg>
