<?xml version="1.0" standalone="no"?>
<!DOCTYPE svg PUBLIC "-//W3C//DTD SVG 1.1//EN" "http://www.w3.org/Graphics/SVG/1.1/DTD/svg11.dtd" >
<svg xmlns="http://www.w3.org/2000/svg" xmlns:xlink="http://www.w3.org/1999/xlink" version="1.1" viewBox="-10 0 689 1000">
  <g transform="matrix(1 0 0 -1 0 800)">
   <path fill="currentColor"
d="M288 660l2 -4l-3 -18l-4 -4q-41 0 -54 -10q-22 -20 -24 -57q-3 -37 -3 -152v-68q59 36 140 117q43 43 72 81t29 51q0 6 -1.5 11t-5 8.5t-6.5 6t-9.5 4.5t-9.5 3t-11 2.5t-11 2.5l-5 4v18l5 4q41 -6 88 -6h49q36 0 80 6l4 -4v-18l-4 -4q-60 -14 -72 -22q-12 -7 -29 -26
l-52 -58l-71 -76l-80 -82q83 -126 184 -245q46 -54 79 -76t96 -29l6 -4l2 -18l-2 -4q-15 0 -50 -2t-44 -2q-48 0 -78.5 22t-82.5 87q-26 32 -163 231h-4q-4 -3 -19 -13t-24 -18v-68q0 -97 3 -144q2 -37 24 -57q13 -10 54 -10l4 -4l3 -18l-2 -4q-5 0 -31.5 2t-49.5 3t-31 1
h-19q-8 0 -31 -1t-49.5 -3t-31.5 -2l-2 4l3 18l5 4q40 0 53 10q22 20 25 57q2 40 2 124v203q0 122 -2 153q-2 36 -25 57q-13 10 -53 10l-5 4l-3 18l2 4q5 0 31.5 -2t49.5 -3t31 -1h19q8 0 31 1t49.5 3t31.5 2z" />
  </g>

</svg>
