<?xml version="1.0" standalone="no"?>
<!DOCTYPE svg PUBLIC "-//W3C//DTD SVG 1.1//EN" "http://www.w3.org/Graphics/SVG/1.1/DTD/svg11.dtd" >
<svg xmlns="http://www.w3.org/2000/svg" xmlns:xlink="http://www.w3.org/1999/xlink" version="1.1" viewBox="-10 0 963 1000">
  <g transform="matrix(1 0 0 -1 0 800)">
   <path fill="currentColor"
d="M520 546q-12 36 -41 51t-87 15q-256 0 -256 -275q0 -149 69.5 -222.5t193.5 -73.5q66 0 126 25q8 64 8 145v203q0 93 -13 132zM568 654h155q20 0 92.5 2t75.5 2l5 -10l-4 -109h-26l-3 4q-3 46 -25.5 54.5t-143.5 8.5h-85l-3 -39q-3 -39 -3 -152v-49q17 0 39 0.5t34.5 0.5
t28 0.5t24.5 1.5t18.5 2.5t15.5 4.5t10 7q20 20 20 49l5 4l17 2l4 -2q-5 -72 -5 -89q0 -8 5 -88l-4 -2l-18 2l-4 3q0 34 -20 52q-6 5 -15 8t-27.5 4t-32 1.5t-45.5 0.5h-50v-97q0 -113 5 -164q1 -19 21 -19h75q84 0 117.5 6t46.5 20.5t23 54.5l4 4h26l-19 -127l-7 -10
q-3 0 -63.5 2t-81.5 2h-154q-26 0 -98 -5.5t-106 -5.5q-163 0 -249.5 90t-86.5 243q0 151 83 247t244 96q28 0 87 -5.5t98 -5.5z" />
  </g>

</svg>
