<?xml version="1.0" standalone="no"?>
<!DOCTYPE svg PUBLIC "-//W3C//DTD SVG 1.1//EN" "http://www.w3.org/Graphics/SVG/1.1/DTD/svg11.dtd" >
<svg xmlns="http://www.w3.org/2000/svg" xmlns:xlink="http://www.w3.org/1999/xlink" version="1.1" viewBox="-10 0 733 1000">
  <g transform="matrix(1 0 0 -1 0 800)">
   <path fill="currentColor"
d="M268 830q0 18 12 31.5t29 13.5t29.5 -13.5t12.5 -31.5t-12.5 -31t-29.5 -13t-29 12.5t-12 31.5zM405 830q0 18 12 31.5t29 13.5t29.5 -13.5t12.5 -31.5t-12.5 -31t-29.5 -13t-29 12.5t-12 31.5zM695 660l2 -4l-3 -18l-4 -4q-41 0 -54 -10q-22 -20 -24 -57q-3 -47 -3 -153
v-192q0 -103 -61.5 -168t-179.5 -65q-133 0 -193.5 63.5t-60.5 169.5v192q0 122 -2 153q-2 36 -25 57q-13 10 -53 10l-5 4l-3 18l2 4q5 0 31.5 -2t49.5 -3t31 -1h19q8 0 31 1t49.5 3t31.5 2l2 -4l-3 -18l-4 -4q-41 0 -54 -10q-22 -20 -24 -57q-3 -37 -3 -152v-165
q0 -202 183 -202q184 0 184 202v165q0 115 -3 152q-3 39 -25 57q-12 10 -53 10l-5 4l-3 18l2 4q1 0 45.5 -3t55.5 -3h22q8 0 30 1t46.5 3t30.5 2z" />
  </g>

</svg>
