<?xml version="1.0" standalone="no"?>
<!DOCTYPE svg PUBLIC "-//W3C//DTD SVG 1.1//EN" "http://www.w3.org/Graphics/SVG/1.1/DTD/svg11.dtd" >
<svg xmlns="http://www.w3.org/2000/svg" xmlns:xlink="http://www.w3.org/1999/xlink" version="1.1" viewBox="-10 0 822 1000">
  <g transform="matrix(1 0 0 -1 0 800)">
   <path fill="currentColor"
d="M572 -11q-132 0 -199 99l-23 -23q-74 -76 -186 -76q-60 0 -93.5 38t-33.5 94q0 70 62 110q32 20 85.5 31.5t86 14t55.5 2.5h14q-1 65 -12 94q-21 57 -103 57q-42 0 -75.5 -16.5t-36.5 -57.5l-4 -3h-22l-9 74l3 6q12 13 61.5 27.5t97.5 14.5q110 0 152 -78q67 78 175 78
q30 0 59 -7.5t61 -25.5t55.5 -56.5t31.5 -92.5l-6 -24l-17 -7q-36 0 -111 -1t-111 -1h-119q-1 -9 -1 -26q0 -83 48.5 -136.5t148.5 -53.5q79 0 131 30l11 -6v-18l-10 -11q-64 -50 -166 -50zM324 115q10 18 11 29l5 100h-9q-223 0 -223 -117q0 -38 21.5 -60.5t57.5 -22.5
q38 0 79 23.5t58 47.5zM568 430q-61 0 -101 -36.5t-51 -92.5h39q101 0 212 6q22 1 22 21q0 9 -4 21q-11 38 -41.5 59.5t-75.5 21.5z" />
  </g>

</svg>
