<?xml version="1.0" standalone="no"?>
<!DOCTYPE svg PUBLIC "-//W3C//DTD SVG 1.1//EN" "http://www.w3.org/Graphics/SVG/1.1/DTD/svg11.dtd" >
<svg xmlns="http://www.w3.org/2000/svg" xmlns:xlink="http://www.w3.org/1999/xlink" version="1.1" viewBox="-10 0 279 1000">
  <g transform="matrix(1 0 0 -1 0 800)">
   <path fill="currentColor"
d="M35 749l2 11q80 0 107 -35.5t27 -106.5q0 -12 -0.5 -68t-0.5 -77q0 -22 0.5 -35t4 -35.5t10.5 -35.5t21.5 -23.5t34.5 -11.5v-10q-20 -1 -34.5 -11t-21.5 -22.5t-10.5 -34.5t-4 -35t-0.5 -35q0 -20 0.5 -77.5t0.5 -70.5q0 -71 -27 -106.5t-107 -35.5l-2 11q46 5 61 33
t15 79q0 11 -1 67.5t-1 75.5q0 145 94 167q-94 22 -94 167q0 19 1 75.5t1 67.5q0 51 -15 79t-61 33z" />
  </g>

</svg>
