<?xml version="1.0" standalone="no"?>
<!DOCTYPE svg PUBLIC "-//W3C//DTD SVG 1.1//EN" "http://www.w3.org/Graphics/SVG/1.1/DTD/svg11.dtd" >
<svg xmlns="http://www.w3.org/2000/svg" xmlns:xlink="http://www.w3.org/1999/xlink" version="1.1" viewBox="-10 0 403 1000">
  <g transform="matrix(1 0 0 -1 0 800)">
   <path fill="currentColor"
d="M313 418l-5 -5h-127v-155q0 -131 4 -180q4 -40 15 -49q15 -11 71 -11l5 -5l2 -13l-2 -4q-76 4 -110 4h-24q-28 0 -104 -4l-1 4l1 14l4 4q43 0 55 11q12 12 15 45.5t3 159.5v179h-74l-4 5v33l4 4h74v57q0 108 41 170.5t116 62.5q50 0 106 -30l5 -10l-12 -77h-26
q-4 31 -29 49.5t-58 18.5q-27 0 -44 -10.5t-23.5 -33.5t-8 -40t-1.5 -51v-106h127l5 -4v-33z" />
  </g>

</svg>
