<?xml version="1.0" standalone="no"?>
<!DOCTYPE svg PUBLIC "-//W3C//DTD SVG 1.1//EN" "http://www.w3.org/Graphics/SVG/1.1/DTD/svg11.dtd" >
<svg xmlns="http://www.w3.org/2000/svg" xmlns:xlink="http://www.w3.org/1999/xlink" version="1.1" viewBox="-10 0 556 1000">
  <g transform="matrix(1 0 0 -1 0 800)">
   <path fill="currentColor"
d="M417 201q0 137 -147 137q-78 0 -150 -36l-34 25l32 319l6 8h90q97 0 202 8l9 -8l15 -108l-6 -7h-18l-6 5q-4 20 -8.5 29.5t-12 17.5t-29 10.5t-45.5 3.5t-74 1h-60q-6 0 -6 -5l-20 -224q52 20 124 20q44 0 80 -9.5t66.5 -30.5t47.5 -58.5t17 -89.5q0 -104 -67 -162
t-178 -58q-124 0 -184 81l-1 10l11 71h36l3 -4q2 -47 39.5 -76t105.5 -29q85 0 123.5 45t38.5 114z" />
  </g>

</svg>
