<?xml version="1.0" standalone="no"?>
<!DOCTYPE svg PUBLIC "-//W3C//DTD SVG 1.1//EN" "http://www.w3.org/Graphics/SVG/1.1/DTD/svg11.dtd" >
<svg xmlns="http://www.w3.org/2000/svg" xmlns:xlink="http://www.w3.org/1999/xlink" version="1.1" viewBox="-10 0 618 1000">
  <g transform="matrix(1 0 0 -1 0 800)">
   <path fill="currentColor"
d="M255 0l-2 -4q-76 4 -102 4h-14q-27 0 -103 -4l-1 4l1 14l4 4q43 0 55 11q11 10 15 49q3 33 3 85v123q0 73 -3 100q-3 21 -13 31q-14 17 -56 17l-4 4v14l4 3h18q63 0 88 4l35 5l6 -9q-4 -12 -7 -81q60 101 169 101q62 0 110.5 -35.5t56.5 -103.5q4 -35 4 -113
q0 -24 0.5 -72.5t0.5 -72.5q4 -40 14 -49q13 -11 56 -11l3 -4l2 -14l-2 -4q-46 4 -79 4q-38 0 -69 -3l-7 10q7 23 9 71q4 73 4 150q0 61 -8 97q-9 45 -40 69t-73 24q-61 0 -107 -45.5t-46 -84.5v-113q0 -60 4 -97q4 -39 15 -49q13 -11 52 -11l5 -5zM477 668q0 -7 -8 -23.5
t-29.5 -35t-50.5 -18.5q-12 0 -89.5 4.5t-100.5 4.5t-34 -5.5t-21 -19.5l-14 8q0 20 27 48t65 28q13 0 79.5 -4.5t98.5 -4.5q47 0 65 26z" />
  </g>

</svg>
