<?xml version="1.0" standalone="no"?>
<!DOCTYPE svg PUBLIC "-//W3C//DTD SVG 1.1//EN" "http://www.w3.org/Graphics/SVG/1.1/DTD/svg11.dtd" >
<svg xmlns="http://www.w3.org/2000/svg" xmlns:xlink="http://www.w3.org/1999/xlink" version="1.1" viewBox="-10 0 1142 1000">
  <g transform="matrix(1 0 0 -1 0 800)">
   <path fill="currentColor"
d="M124 19l1 4q92 109 197 255l120 165q116 161 152 226l5 4h76l-1 -4q-57 -63 -176 -226l-120 -165q-114 -158 -173 -255l-5 -4h-76zM597 357q67 0 106.5 -53t39.5 -130t-40 -131t-109 -54q-67 0 -104 52t-37 129q0 80 39 133.5t105 53.5zM597 27q45 0 71 42t26 105
t-27 104t-72 41q-44 0 -68.5 -40.5t-24.5 -104.5q0 -67 26.5 -107t68.5 -40zM190 665q67 0 106 -53t39 -130t-39.5 -131t-108.5 -54q-67 0 -104.5 52t-37.5 129q0 80 39.5 133.5t105.5 53.5zM190 335q44 0 70 42t26 105t-27 104t-71 41t-69 -40.5t-25 -104.5
q0 -67 26.5 -107t69.5 -40zM949 357q67 0 106 -53t39 -130t-39.5 -131t-108.5 -54q-67 0 -104 52t-37 129q0 80 39 133.5t105 53.5zM949 27q45 0 71 42t26 105t-27 104t-72 41q-44 0 -68.5 -40t-24.5 -105q0 -67 26.5 -107t68.5 -40z" />
  </g>

</svg>
