<?xml version="1.0" standalone="no"?>
<!DOCTYPE svg PUBLIC "-//W3C//DTD SVG 1.1//EN" "http://www.w3.org/Graphics/SVG/1.1/DTD/svg11.dtd" >
<svg xmlns="http://www.w3.org/2000/svg" xmlns:xlink="http://www.w3.org/1999/xlink" version="1.1" viewBox="-10 0 719 1000">
  <g transform="matrix(1 0 0 -1 0 800)">
   <path fill="currentColor"
d="M96 19l1 4q66 77 197 255l121 165q99 135 152 226l4 4h76l-1 -4q-60 -67 -176 -226l-120 -165q-114 -158 -173 -255l-5 -4h-76zM433 113l-5 3l-7 15l134 219l59 8l7 -5q-4 -42 -4 -209h35l-7 -31h-28q0 -69 7.5 -89t41.5 -20l2 -12q-4 0 -26.5 1t-27.5 1h-38q-5 0 -30 -1
t-31 -1l4 12q37 0 45 20.5t8 88.5h-139zM570 313l-98 -169h100q0 115 -2 169zM76 403q4 -38 26 -55.5t54 -17.5q35 0 60.5 21t25.5 58q0 31 -19.5 53.5t-54.5 22.5h-15l6 21q29 1 46.5 21.5t17.5 47.5q0 28 -20 43.5t-48 15.5t-48.5 -16t-20.5 -46q0 -6 1 -10h-22l-5 44
q30 59 99 59q48 0 77.5 -26t29.5 -62q0 -50 -53 -77q35 -8 53 -31.5t18 -53.5q0 -45 -36 -81.5t-92 -36.5q-68 0 -106 62l5 44h21z" />
  </g>

</svg>
