<?xml version="1.0" standalone="no"?>
<!DOCTYPE svg PUBLIC "-//W3C//DTD SVG 1.1//EN" "http://www.w3.org/Graphics/SVG/1.1/DTD/svg11.dtd" >
<svg xmlns="http://www.w3.org/2000/svg" xmlns:xlink="http://www.w3.org/1999/xlink" version="1.1" viewBox="-10 0 498 1000">
  <g transform="matrix(1 0 0 -1 0 800)">
   <path fill="currentColor"
d="M57 345l-7 5l8 105l3 6q118 -6 266 -6h45q34 0 58 6l6 -8l-3 -16q-39 -40 -149.5 -203.5t-110.5 -182.5l5 -7h48q86 0 118.5 5t47.5 19t29 53l3 4h22l-16 -119l-5 -10q-4 0 -117.5 2t-127.5 2h-32q-54 0 -102 -4l-7 8v14q46 45 153 204.5t107 188.5l-7 7h-90
q-74 0 -95 -13.5t-29 -55.5l-4 -4h-17z" />
  </g>

</svg>
