<?xml version="1.0" standalone="no"?>
<!DOCTYPE svg PUBLIC "-//W3C//DTD SVG 1.1//EN" "http://www.w3.org/Graphics/SVG/1.1/DTD/svg11.dtd" >
<svg xmlns="http://www.w3.org/2000/svg" xmlns:xlink="http://www.w3.org/1999/xlink" version="1.1" viewBox="-57 0 673 1000">
  <g transform="matrix(1 0 0 -1 0 800)">
   <path fill="currentColor"
d="M-9 35q19 0 35.5 20.5t35.5 56.5l268 495h49l142 -497q11 -40 22 -57.5t32 -17.5h5l26 2l-5 -37h-299l5 37l47 -2q30 -3 32 28q0 11 -6 35l-25 88h-218l-44 -82q-20 -36 -20 -55q0 -16 18 -15l46 3l-4 -37h-180l4 37zM280 451l-124 -230h189zM298.5 685
q-20.5 20 -20.5 52q0 39 29 66.5t69 27.5q35 0 56 -20t21 -52q0 -41 -29 -67.5t-71 -26.5q-34 0 -54.5 20zM390 719.5q12 13.5 12 34.5q0 16 -8.5 25.5t-23.5 9.5q-18 0 -30 -13.5t-12 -34.5q0 -16 8.5 -25.5t22.5 -9.5q19 0 31 13.5zM348 862q2 8 16 24l74 82q13 15 19 19
t15 4q16 0 35.5 -12.5t18.5 -21.5t-13 -16l-136 -80q-12 -7 -21 -8q-10 0 -8 9z" />
  </g>

</svg>
