<?xml version="1.0" standalone="no"?>
<!DOCTYPE svg PUBLIC "-//W3C//DTD SVG 1.1//EN" "http://www.w3.org/Graphics/SVG/1.1/DTD/svg11.dtd" >
<svg xmlns="http://www.w3.org/2000/svg" xmlns:xlink="http://www.w3.org/1999/xlink" version="1.1" viewBox="-10 0 619 1000">
  <g transform="matrix(1 0 0 -1 0 800)">
   <path fill="currentColor"
d="M110 59.5q-71 69.5 -71 191.5q0 109 42.5 189.5t122 123.5t187.5 43q42 0 69.5 -6.5t57.5 -18.5q25 -9 41.5 -13.5t39.5 -4.5q-8 -31 -12.5 -64.5t-4.5 -49.5t1 -17h-32q-3 39 -24 71.5t-54.5 51.5t-72.5 19q-64 0 -112 -41.5t-74 -117.5t-26 -178q0 -101 38.5 -157
t107.5 -56q62 0 114.5 40.5t73.5 101.5h36q-12 -46 -16 -70.5t-4 -47.5v-14h-6q-20 0 -40.5 -5t-50.5 -14q-37 -12 -68 -19t-65 -7q-127 0 -198 69.5zM318 669q0 6 4 11.5t16 16.5l108 105q17 16 23 20t16 4q17 0 39.5 -13t22.5 -23t-15 -18l-179 -103q-13 -9 -25 -9
q-10 0 -10 9z" />
  </g>

</svg>
