<?xml version="1.0" standalone="no"?>
<!DOCTYPE svg PUBLIC "-//W3C//DTD SVG 1.1//EN" "http://www.w3.org/Graphics/SVG/1.1/DTD/svg11.dtd" >
<svg xmlns="http://www.w3.org/2000/svg" xmlns:xlink="http://www.w3.org/1999/xlink" version="1.1" viewBox="-10 0 713 1000">
  <g transform="matrix(1 0 0 -1 0 800)">
   <path fill="currentColor"
d="M111 49v-6q0 -16 15 -16l49 2l-4 -29h-168l4 29l39 -2q20 0 23 22l70 504q0 7 -4.5 12t-12.5 4l-39 -2l4 30h206l242 -413l51 365v5q0 15 -13 15l-52 -2l4 30h168l-4 -30l-41 2q-17 0 -20 -21l-78 -554h-60l-313 530z" />
  </g>

</svg>
