<?xml version="1.0" standalone="no"?>
<!DOCTYPE svg PUBLIC "-//W3C//DTD SVG 1.1//EN" "http://www.w3.org/Graphics/SVG/1.1/DTD/svg11.dtd" >
<svg xmlns="http://www.w3.org/2000/svg" xmlns:xlink="http://www.w3.org/1999/xlink" version="1.1" viewBox="-10 0 572 1000">
  <g transform="matrix(1 0 0 -1 0 800)">
   <path fill="currentColor"
d="M50 35q17 0 20 22l68 483l1 7q0 16 -19 15l-33 -2l5 37h261q101 0 150 -35t49 -106q0 -61 -27.5 -108.5t-78 -73.5t-115.5 -26h-96l-27 -191v-5q0 -17 16 -17l49 2l-5 -37h-260l5 37zM349 307q26 23 42 62.5t16 85.5q0 49 -20.5 78t-56.5 29h-39q-4 0 -8.5 -3.5
t-5.5 -8.5l-38 -266h54q30 0 56 23z" />
  </g>

</svg>
