<?xml version="1.0" standalone="no"?>
<!DOCTYPE svg PUBLIC "-//W3C//DTD SVG 1.1//EN" "http://www.w3.org/Graphics/SVG/1.1/DTD/svg11.dtd" >
<svg xmlns="http://www.w3.org/2000/svg" xmlns:xlink="http://www.w3.org/1999/xlink" version="1.1" viewBox="-10 0 599 1000">
  <g transform="matrix(1 0 0 -1 0 800)">
   <path fill="currentColor"
d="M172 42.5q6 7.5 8 17.5l68 490v3q0 9 -9 9h-18q-65 0 -98.5 -28.5t-41.5 -89.5h-34l22 156q18 -2 47 -2h416q37 0 47 2l-22 -156h-34q2 11 2 31q0 45 -25 66t-81 21h-19q-11 0 -14 -11l-69 -494v-5q0 -17 16 -17l53 2l-5 -37h-282l4 37l54 -2q9 0 15 7.5zM480 323l-6 -45
h-376l6 45h376z" />
  </g>

</svg>
