<?xml version="1.0" standalone="no"?>
<!DOCTYPE svg PUBLIC "-//W3C//DTD SVG 1.1//EN" "http://www.w3.org/Graphics/SVG/1.1/DTD/svg11.dtd" >
<svg xmlns="http://www.w3.org/2000/svg" xmlns:xlink="http://www.w3.org/1999/xlink" version="1.1" viewBox="-10 0 998 1000">
  <g transform="matrix(1 0 0 -1 0 800)">
   <path fill="currentColor"
d="M77 562l-31 -2l5 37h254l-5 -37l-51 2q-14 0 -14 -13l1 -9l79 -357l198 414h80l99 -438l181 383q2 8 2 10q0 10 -10 10l-53 -2l7 37h159l-6 -37l-29 2q-16 1 -27 -21l-261 -551h-46l-116 477l-226 -477h-50l-124 550q-3 22 -16 22zM390 673q0 6 33 34q30 26 53 49l53 48
q20 18 36 18t30 -18l39 -48q20 -25 43 -52q21 -24 21 -29q0 -9 -14 -9t-31 12l-100 66l-118 -66q-19 -12 -34 -12q-11 0 -11 7z" />
  </g>

</svg>
