<?xml version="1.0" standalone="no"?>
<!DOCTYPE svg PUBLIC "-//W3C//DTD SVG 1.1//EN" "http://www.w3.org/Graphics/SVG/1.1/DTD/svg11.dtd" >
<svg xmlns="http://www.w3.org/2000/svg" xmlns:xlink="http://www.w3.org/1999/xlink" version="1.1" viewBox="-10 0 521 1000">
  <g transform="matrix(1 0 0 -1 0 800)">
   <path fill="currentColor"
d="M50 22.5q-24 32.5 -24 89.5q0 80 34 155t92 121.5t127 46.5q23 0 43 -10t31 -28l6 23l129 14l-23 -96q-18 -74 -30.5 -146.5t-12.5 -99.5q0 -17 13 -17q19 0 38 13l11 -28q-31 -30 -75 -50t-80 -20q-21 0 -28.5 10.5t-7.5 35.5t18 129q-42 -92 -91.5 -133.5t-101.5 -41.5
q-44 0 -68 32.5zM250.5 119q35.5 51 62.5 119t27 115q0 20 -12 32.5t-34 12.5q-37 0 -68.5 -43t-49.5 -114q-16 -55 -16 -110q0 -31 8.5 -47t23.5 -16q23 0 58.5 51zM225.5 541.5q-30.5 30.5 -29.5 100.5h29q3 -28 29.5 -47t64.5 -19q37 0 70.5 19.5t43.5 46.5h29
q-10 -58 -51.5 -94.5t-100.5 -36.5q-54 0 -84.5 30.5z" />
  </g>

</svg>
