<?xml version="1.0" standalone="no"?>
<!DOCTYPE svg PUBLIC "-//W3C//DTD SVG 1.1//EN" "http://www.w3.org/Graphics/SVG/1.1/DTD/svg11.dtd" >
<svg xmlns="http://www.w3.org/2000/svg" xmlns:xlink="http://www.w3.org/1999/xlink" version="1.1" viewBox="-10 0 666 1000">
  <g transform="matrix(1 0 0 -1 0 800)">
   <path fill="currentColor"
d="M36.5 22q-24.5 32 -24.5 88q0 76 43 146.5t116 114.5t158 44q35 0 59 -14q56 34 118 34q63 0 101.5 -26t38.5 -68q0 -35 -27 -67.5t-85.5 -57t-148.5 -33.5v-15q0 -53 20.5 -79.5t56.5 -26.5q68 0 122 50l22 -20q-35 -46 -88.5 -73.5t-109.5 -27.5t-94.5 26.5t-53.5 75.5
q-67 -103 -155 -103q-44 0 -68.5 32zM213 87q19 19 39 52q-1 84 26 140.5t74 96.5q-72 2 -116.5 -34.5t-66.5 -93.5q-26 -59 -26 -119q0 -28 9 -44.5t27 -16.5q15 0 34 19zM500.5 265.5q38.5 36.5 38.5 89.5q0 20 -9.5 32.5t-29.5 12.5q-51 0 -85 -81q-21 -49 -27 -103
q74 13 112.5 49.5z" />
  </g>

</svg>
