<?xml version="1.0" standalone="no"?>
<!DOCTYPE svg PUBLIC "-//W3C//DTD SVG 1.1//EN" "http://www.w3.org/Graphics/SVG/1.1/DTD/svg11.dtd" >
<svg xmlns="http://www.w3.org/2000/svg" xmlns:xlink="http://www.w3.org/1999/xlink" version="1.1" viewBox="-10 0 372 1000">
  <g transform="matrix(1 0 0 -1 0 800)">
   <path fill="currentColor"
d="M109 363q-27 15 -24 35q1 7 7 17q11 15 26 16.5t22 5.5t14 14q4 6 5 20q-7 6 -16 6q-18 0 -31 -12t-18.5 -15.5t-14.5 -3.5q-18 0 -24 10.5t-3 35.5q6 46 39 46q9 0 13.5 -3.5t17.5 -15t25 -11.5q11 0 19 5q3 12 0 20q-5 10 -15.5 17t-22 9.5t-14.5 9.5q-5 12 -4 19
q2 17 35 33q19 11 33 11q15 0 22 -16q2 -7 2 -14q0 -5 -4.5 -16t-5.5 -18q-1 -10 3 -20t12 -12q9 2 16 12t9 21q1 6 -1 17t-1 16q1 7 6 14q14 17 27 17q11 0 30 -12q26 -15 24 -34q-1 -8 -7 -18q-6 -9 -23 -13.5t-24 -8.5t-14 -14q-9 -9 -6 -20q6 -5 16 -5q18 0 30 11t19 15
t15 4q18 0 24.5 -10.5t2.5 -35.5t-13.5 -35.5t-25.5 -10.5q-15 0 -22.5 11t-14.5 15.5t-19 4.5q-10 0 -19 -6q-2 -10 1 -20q5 -10 11 -14t21 -8.5t19 -13.5q5 -10 4 -19q-2 -18 -34 -33q-21 -10 -34 -10q-15 0 -22 16q-1 6 -1 13q0 5 4 16t5 17q2 11 -3 21q-2 10 -12 12
q-10 -2 -16 -12q-7 -10 -9 -20q-1 -6 1 -17t1 -16q-1 -7 -6 -14q-13 -18 -27 -18q-8 0 -30 12z" />
  </g>

</svg>
