<?xml version="1.0" standalone="no"?>
<!DOCTYPE svg PUBLIC "-//W3C//DTD SVG 1.1//EN" "http://www.w3.org/Graphics/SVG/1.1/DTD/svg11.dtd" >
<svg xmlns="http://www.w3.org/2000/svg" xmlns:xlink="http://www.w3.org/1999/xlink" version="1.1" viewBox="-10 0 787 1000">
  <g transform="matrix(1 0 0 -1 0 800)">
   <path fill="currentColor"
d="M169 -118q-75 35 -115 99.5t-40 152.5q0 116 66.5 225t177.5 177t237 68q79 0 141 -34.5t96.5 -94t34.5 -133.5q0 -90 -50 -171.5t-123.5 -131t-138.5 -49.5q-40 0 -40 41q0 42 23 141q-41 -96 -91 -139t-102 -43q-44 0 -68 32.5t-24 89.5q0 80 35 155t94 121.5t129 46.5
q23 0 41 -9.5t27 -29.5l5 20l135 17l-24 -95q-44 -219 -44 -246q0 -17 13 -17q28 3 67 41t67.5 97t28.5 122q0 64 -30 117t-84 84t-123 31q-123 0 -221 -64t-152 -164t-54 -203q0 -75 35.5 -132t102.5 -89t159 -32q90 0 166 31t152 98l20 -29q-82 -73 -165 -104.5
t-186 -31.5t-178 35zM377.5 111q35.5 51 62.5 120t27 122q0 22 -11 37t-30 15q-35 0 -67.5 -44t-53.5 -118q-18 -58 -18 -112q0 -71 36 -71q19 0 54.5 51z" />
  </g>

</svg>
