<?xml version="1.0" standalone="no"?>
<!DOCTYPE svg PUBLIC "-//W3C//DTD SVG 1.1//EN" "http://www.w3.org/Graphics/SVG/1.1/DTD/svg11.dtd" >
<svg xmlns="http://www.w3.org/2000/svg" xmlns:xlink="http://www.w3.org/1999/xlink" version="1.1" viewBox="-164 0 996 1000">
  <g transform="matrix(1 0 0 -1 0 800)">
   <path fill="currentColor"
d="M156.5 -220.5q-35.5 24.5 -35.5 61.5q0 27 18.5 47.5t52.5 20.5q22 0 36 -9.5t14 -27.5q0 -8 -7 -24t-7 -29q0 -30 28 -30q36 0 52.5 65.5t33.5 217.5l41 368q11 129 71.5 209.5t173.5 80.5q91 0 150 -75l-34 -26q-48 58 -115 58q-109 0 -113 -233l-3 -26h79l-10 -39h-73
l-31 -276q-40 -358 -235 -358q-51 0 -86.5 24.5zM-118.5 -220.5q-35.5 24.5 -35.5 61.5q0 27 18.5 47.5t52.5 20.5q22 0 36 -9.5t14 -27.5q0 -8 -7 -24t-7 -29q0 -30 28 -30q36 0 55 65.5t31 217.5l35 317h-69l13 39h61l1 12q14 129 73 209.5t172 80.5q91 0 150 -75l-34 -26
q-48 58 -115 58q-109 0 -113 -233l-3 -26h239v-39h-243l-31 -276q-40 -358 -235 -358q-51 0 -86.5 24.5zM616.5 2q-14.5 12 -12.5 34q2 27 33 243l13 91q31 219 33 264q1 30 -15.5 41.5t-38.5 11.5l80 11q53 32 75 32q18 0 29 -6t8 -29q-9 -68 -26 -156q-62 -343 -60 -437
q0 -12 3.5 -19.5t15.5 -7.5q7 0 18.5 3t22.5 10l13 -28q-40 -33 -81.5 -51.5t-72.5 -18.5q-23 0 -37.5 12z" />
  </g>

</svg>
