<?xml version="1.0" standalone="no"?>
<!DOCTYPE svg PUBLIC "-//W3C//DTD SVG 1.1//EN" "http://www.w3.org/Graphics/SVG/1.1/DTD/svg11.dtd" >
<svg xmlns="http://www.w3.org/2000/svg" xmlns:xlink="http://www.w3.org/1999/xlink" version="1.1" viewBox="-41 0 565 1000">
  <g transform="matrix(1 0 0 -1 0 800)">
   <path fill="currentColor"
d="M-31 -152q0 36 32.5 66t89.5 50q-34 12 -52.5 29.5t-18.5 44.5q0 22 14 43t44 44l26 20q-62 29 -62 98q0 51 28 95t83.5 70.5t132.5 26.5q70 0 112 -29.5t42 -85.5q0 -52 -28.5 -96t-83.5 -70.5t-131 -26.5q-28 0 -56 5q-18 -18 -18 -34q0 -20 25.5 -30t81.5 -20l26 -5
q56 -11 93 -24t62.5 -39t25.5 -70q0 -74 -77 -114.5t-202 -40.5q-189 0 -189 93zM277.5 -188q44.5 24 44.5 58q0 30 -32 44.5t-95 26.5l-67 13q-26 -13 -45.5 -40.5t-19.5 -56.5q0 -68 105 -69q65 0 109.5 24zM262.5 178.5q18.5 20.5 31.5 58.5q14 39 14 102q0 66 -41 66
q-53 0 -79 -79q-15 -48 -15 -103q0 -65 43 -65q28 0 46.5 20.5zM408.5 423.5q26.5 7.5 30.5 35.5q2 13 -13 23t-12 28q7 45 54 45q52 0 44 -59q-13 -96 -122 -107l-39 38q31 -11 57.5 -3.5zM187.5 541.5q-30.5 30.5 -29.5 100.5h29q3 -28 29.5 -47t64.5 -19q37 0 70.5 19.5
t43.5 46.5h29q-10 -58 -51.5 -94.5t-100.5 -36.5q-54 0 -84.5 30.5z" />
  </g>

</svg>
