<?xml version="1.0" standalone="no"?>
<!DOCTYPE svg PUBLIC "-//W3C//DTD SVG 1.1//EN" "http://www.w3.org/Graphics/SVG/1.1/DTD/svg11.dtd" >
<svg xmlns="http://www.w3.org/2000/svg" xmlns:xlink="http://www.w3.org/1999/xlink" version="1.1" viewBox="-164 0 757 1000">
  <g transform="matrix(1 0 0 -1 0 800)">
   <path fill="currentColor"
d="M-119.5 -220.5q-34.5 24.5 -34.5 61.5q0 27 18.5 47.5t52.5 20.5q22 0 36 -9.5t14 -27.5q0 -8 -7 -24t-7 -29q0 -30 28 -30q36 0 55 65.5t31 217.5l41 368q15 130 86 209.5t195 79.5q69 0 113 -27t44 -73q0 -74 -76.5 -125t-76.5 -95q0 -38 20.5 -64t60.5 -58
q43 -34 65 -63.5t22 -77.5q0 -72 -55.5 -113.5t-141.5 -41.5q-56 0 -86.5 19.5t-30.5 53.5q0 28 18 46t49 18q41 0 41 -33q0 -12 -8 -30q-6 -16 -6 -24q0 -21 29 -21q27 0 45 21.5t18 61.5q0 43 -18.5 68t-55.5 55q-37 29 -55.5 54.5t-18.5 66.5q0 68 68 133.5t68 133.5
q0 41 -13 61.5t-47 20.5q-93 0 -120 -242l-39 -352q-38 -347 -234 -347q-53 0 -87.5 24.5z" />
  </g>

</svg>
