<?xml version="1.0" standalone="no"?>
<!DOCTYPE svg PUBLIC "-//W3C//DTD SVG 1.1//EN" "http://www.w3.org/Graphics/SVG/1.1/DTD/svg11.dtd" >
<svg xmlns="http://www.w3.org/2000/svg" xmlns:xlink="http://www.w3.org/1999/xlink" version="1.1" viewBox="-10 0 286 1000">
  <g transform="matrix(1 0 0 -1 0 800)">
   <path fill="currentColor"
d="M72 -142.5q-21 16.5 -21 46.5q0 32 23 61.5t66 48.5h36q-25 -12 -39 -32t-14 -43q0 -18 11 -29t33 -11q33 0 71 22l10 -20q-29 -29 -61 -44.5t-64 -15.5q-30 0 -51 16.5zM64 1.5q-13 11.5 -13 34.5q0 17 6 57.5t8 53.5l12 76q12 90 12 123q0 25 -30 25q-8 0 -16 -2l-5 36
q83 26 149 26q20 0 30.5 -5.5t10.5 -23.5q0 -9 -12 -69q-17 -87 -20 -103q-16 -86 -16 -128q0 -27 17 -27q16 0 36 13l12 -28q-42 -33 -79.5 -51.5t-65.5 -18.5q-23 0 -36 11.5zM119 546.5q-19 14.5 -19 38.5q0 32 24.5 52t61.5 20q32 0 51 -14.5t19 -38.5q0 -34 -24 -53
t-63 -19q-31 0 -50 14.5z" />
  </g>

</svg>
