<?xml version="1.0" standalone="no"?>
<!DOCTYPE svg PUBLIC "-//W3C//DTD SVG 1.1//EN" "http://www.w3.org/Graphics/SVG/1.1/DTD/svg11.dtd" >
<svg xmlns="http://www.w3.org/2000/svg" xmlns:xlink="http://www.w3.org/1999/xlink" version="1.1" viewBox="-10 0 302 1000">
  <g transform="matrix(1 0 0 -1 0 800)">
   <path fill="currentColor"
d="M28 12.5q-25 14.5 -25 42.5q0 18 15 30t39 12q22 0 31.5 -7t9.5 -20q0 -10 -6 -16t-6 -12q0 -12 5.5 -17t16.5 -5q22 0 33.5 25t18.5 81q-26 -20 -65 -20q-35 0 -59.5 14.5t-24.5 49.5q0 50 40 78.5t108 28.5q50 0 79.5 -23.5t29.5 -73.5q0 -74 -43 -128t-124 -54
q-48 0 -73 14.5zM172 217q0 38 -22 38q-35 0 -35 -73q0 -36 19 -36q38 0 38 71z" />
  </g>

</svg>
