<?xml version="1.0" standalone="no"?>
<!DOCTYPE svg PUBLIC "-//W3C//DTD SVG 1.1//EN" "http://www.w3.org/Graphics/SVG/1.1/DTD/svg11.dtd" >
<svg xmlns="http://www.w3.org/2000/svg" xmlns:xlink="http://www.w3.org/1999/xlink" version="1.1" viewBox="-10 0 472 1000">
  <g transform="matrix(1 0 0 -1 0 800)">
   <path fill="currentColor"
d="M58.5 36.5q-40.5 46.5 -40.5 121.5q0 74 30.5 137t90.5 101.5t144 38.5q81 0 121 -46t40 -122q0 -73 -30.5 -136.5t-90 -102t-143.5 -38.5q-81 0 -121.5 46.5zM295 152q18 68 18 140q0 101 -51 101q-60 0 -93 -115q-20 -72 -20 -145q0 -100 52 -100q61 0 94 119z
M198.5 541.5q-30.5 30.5 -29.5 100.5h29q3 -28 29.5 -47t64.5 -19q37 0 70.5 19.5t43.5 46.5h29q-10 -58 -51.5 -94.5t-100.5 -36.5q-54 0 -84.5 30.5z" />
  </g>

</svg>
