<?xml version="1.0" standalone="no"?>
<!DOCTYPE svg PUBLIC "-//W3C//DTD SVG 1.1//EN" "http://www.w3.org/Graphics/SVG/1.1/DTD/svg11.dtd" >
<svg xmlns="http://www.w3.org/2000/svg" xmlns:xlink="http://www.w3.org/1999/xlink" version="1.1" viewBox="-10 0 387 1000">
  <g transform="matrix(1 0 0 -1 0 800)">
   <path fill="currentColor"
d="M91.5 376.5q-33.5 32.5 -33.5 84.5q0 72 47 114.5t126 42.5q64 0 100 -31t36 -87q0 -72 -47 -114t-128 -42q-67 0 -100.5 32.5zM247.5 423q14.5 47 14.5 104q0 60 -39 60q-33 0 -46.5 -48.5t-13.5 -106.5q0 -29 9 -42.5t29 -13.5q32 0 46.5 47z" />
  </g>

</svg>
