<?xml version="1.0" standalone="no"?>
<!DOCTYPE svg PUBLIC "-//W3C//DTD SVG 1.1//EN" "http://www.w3.org/Graphics/SVG/1.1/DTD/svg11.dtd" >
<svg xmlns="http://www.w3.org/2000/svg" xmlns:xlink="http://www.w3.org/1999/xlink" version="1.1" viewBox="-10 0 968 1000">
  <g transform="matrix(1 0 0 -1 0 800)">
   <path fill="currentColor"
d="M333 22.5q-33 32.5 -33 86.5q0 72 46.5 116.5t122.5 44.5q64 0 98 -32t34 -87q0 -72 -45.5 -116.5t-125.5 -44.5q-64 0 -97 32.5zM482.5 61q17.5 45 17.5 121q0 36 -8 50t-26 14q-28 0 -46 -47t-18 -122q0 -34 8 -47.5t24 -13.5q31 0 48.5 45zM83 360.5
q-33 32.5 -33 86.5q0 72 46.5 116.5t122.5 44.5q64 0 98 -32t34 -87q0 -72 -45.5 -116.5t-125.5 -44.5q-64 0 -97 32.5zM232.5 399q17.5 45 17.5 121q0 36 -8 50t-26 14q-28 0 -46 -47t-18 -122q0 -34 8 -47.5t24 -13.5q31 0 48.5 45zM665 22.5q-33 32.5 -33 86.5
q0 72 46.5 116.5t122.5 44.5q64 0 98 -32t34 -87q0 -72 -45.5 -116.5t-125.5 -44.5q-64 0 -97 32.5zM814.5 61q17.5 45 17.5 121q0 36 -8 50t-26 14q-28 0 -46 -47t-18 -122q0 -34 8 -47.5t24 -13.5q31 0 48.5 45zM555 609l38 -27l-500 -590l-37 31z" />
  </g>

</svg>
