<?xml version="1.0" standalone="no"?>
<!DOCTYPE svg PUBLIC "-//W3C//DTD SVG 1.1//EN" "http://www.w3.org/Graphics/SVG/1.1/DTD/svg11.dtd" >
<svg xmlns="http://www.w3.org/2000/svg" xmlns:xlink="http://www.w3.org/1999/xlink" version="1.1" viewBox="-13 0 675 1000">
  <g transform="matrix(1 0 0 -1 0 800)">
   <path fill="currentColor"
d="M37 -46q19 0 22 22l79 565l1 6q0 15 -16 15l-36 -2l5 37h560l-5 -37l-35 2q-18 0 -22 -21l-79 -565v-7q0 -15 15 -15l35 2l-4 -36h-241l5 36l30 -2q19 0 22 22l82 583h-176l-82 -583v-5q0 -17 16 -17l30 2l-4 -36h-242l5 36z" />
  </g>

</svg>
