<?xml version="1.0" standalone="no"?>
<!DOCTYPE svg PUBLIC "-//W3C//DTD SVG 1.1//EN" "http://www.w3.org/Graphics/SVG/1.1/DTD/svg11.dtd" >
<svg xmlns="http://www.w3.org/2000/svg" xmlns:xlink="http://www.w3.org/1999/xlink" version="1.1" viewBox="-10 0 1006 1000">
  <g transform="matrix(1 0 0 -1 0 800)">
   <path fill="currentColor"
d="M335 0h-327l6 38l38 -3q17 -2 18 22l68 484v4q0 7 -4 12t-11 5l-36 -2l5 37h260l-5 -37l-48 2q-9 0 -15.5 -6t-7.5 -15l-69 -492v-3q0 -10 9 -10h82q64 0 102.5 34.5t47.5 100.5h34l-24 -174q-18 3 -123 3zM578 -1q-30 6 -38 6q-28 0 -37 -7l25 174h44q-3 -19 -3 -42
q0 -45 15.5 -75.5t50.5 -30.5q42 0 65 35t35 120l51 362v4q0 17 -15 17l-70 -2l6 37h279l-6 -37l-33 2q-21 1 -23 -20l-51 -363q-27 -189 -220 -189q-30 0 -75 9z" />
  </g>

</svg>
