<?xml version="1.0" standalone="no"?>
<!DOCTYPE svg PUBLIC "-//W3C//DTD SVG 1.1//EN" "http://www.w3.org/Graphics/SVG/1.1/DTD/svg11.dtd" >
<svg xmlns="http://www.w3.org/2000/svg" xmlns:xlink="http://www.w3.org/1999/xlink" version="1.1" viewBox="-10 0 687 1000">
  <g transform="matrix(1 0 0 -1 0 800)">
   <path fill="currentColor"
d="M111.5 54.5q-72.5 64.5 -72.5 199.5q0 112 47 192t127.5 120.5t179.5 40.5q125 0 197 -64t72 -198q0 -111 -47 -191.5t-127.5 -122t-179.5 -41.5q-124 0 -196.5 64.5zM477 161q39 126 39 240q0 80 -28.5 126t-101.5 46q-124 0 -166 -148q-34 -120 -35 -237q1 -79 30 -121
t102 -42q118 0 160 136zM313.5 753.5q41.5 36.5 100.5 36.5q54 0 84.5 -30.5t29.5 -100.5h-47q-3 28 -20.5 47t-55.5 19q-37 0 -61.5 -19.5t-34.5 -46.5h-47q10 58 51.5 94.5z" />
  </g>

</svg>
