<?xml version="1.0" standalone="no"?>
<!DOCTYPE svg PUBLIC "-//W3C//DTD SVG 1.1//EN" "http://www.w3.org/Graphics/SVG/1.1/DTD/svg11.dtd" >
<svg xmlns="http://www.w3.org/2000/svg" xmlns:xlink="http://www.w3.org/1999/xlink" version="1.1" viewBox="-10 0 420 1000">
  <g transform="matrix(1 0 0 -1 0 800)">
   <path fill="currentColor"
d="M50 35q17 0 20 22l68 484v5q0 7 -4 11.5t-11 4.5l-36 -2l5 37h247l-6 -37l-34 2q-9 0 -15.5 -6t-7.5 -15l-68 -484v-5q0 -19 16 -17l35 2l-4 -37h-247l5 37zM195 686l-39 48q-19 26 -43 52q-21 26 -21 29q0 9 14 9t31 -12l100 -66l118 66q19 12 34 12q11 0 11 -7
q0 -6 -33 -34q-30 -26 -53 -49l-53 -48q-20 -18 -36 -18q-17 0 -30 18z" />
  </g>

</svg>
