<?xml version="1.0" standalone="no"?>
<!DOCTYPE svg PUBLIC "-//W3C//DTD SVG 1.1//EN" "http://www.w3.org/Graphics/SVG/1.1/DTD/svg11.dtd" >
<svg xmlns="http://www.w3.org/2000/svg" xmlns:xlink="http://www.w3.org/1999/xlink" version="1.1" viewBox="-10 0 687 1000">
  <g transform="matrix(1 0 0 -1 0 800)">
   <path fill="currentColor"
d="M111.5 54.5q-72.5 64.5 -72.5 199.5q0 112 47 192t127.5 120.5t179.5 40.5q125 0 197 -64t72 -198q0 -111 -47 -191.5t-127.5 -122t-179.5 -41.5q-124 0 -196.5 64.5zM477 161q39 126 39 240q0 80 -28.5 126t-101.5 46q-124 0 -166 -148q-34 -120 -35 -237q1 -79 30 -121
t102 -42q118 0 160 136zM306 677l-100 109q-5 8 -5 12q2 8 11 12q13 4 33.5 10t27.5 6q4 0 6.5 -2t5.5 -7q1 -1 26 -63l27 -69q3 -6 2 -11q-1 -9 -11 -9q-11 0 -23 12zM433 677q-93 100 -99 109q-5 8 -5 12q2 8 11 12q13 4 33 10t27 6q4 0 6.5 -2t5.5 -7q2 -4 38 -91l16 -41
q3 -7 2 -11q-1 -9 -12 -9t-23 12z" />
  </g>

</svg>
