<?xml version="1.0" standalone="no"?>
<!DOCTYPE svg PUBLIC "-//W3C//DTD SVG 1.1//EN" "http://www.w3.org/Graphics/SVG/1.1/DTD/svg11.dtd" >
<svg xmlns="http://www.w3.org/2000/svg" xmlns:xlink="http://www.w3.org/1999/xlink" version="1.1" viewBox="-10 0 597 1000">
  <g transform="matrix(1 0 0 -1 0 800)">
   <path fill="currentColor"
d="M375 6.5q-19 16.5 -19 54.5q0 15 4 55q4 36 4 47q0 50 -19 78.5t-71 29.5h-36l-30 -221q0 -15 16 -15l49 2l-5 -37h-260l5 37l37 -2q17 0 20 22l68 482v4q0 19 -18 19l-33 -2l5 37h258q96 0 143 -31.5t47 -95.5q0 -66 -40 -111t-108 -64q52 -7 78 -39.5t24 -85.5l-4 -96
q-1 -21 6 -30.5t23 -9.5q12 0 21 6l8 -23q-22 -11 -53.5 -19t-60.5 -8q-40 0 -59 16.5zM375.5 350.5q28.5 44.5 28.5 115.5q0 50 -20.5 73t-61.5 23h-31q-13 0 -14 -10l-34 -246h62q42 0 70.5 44.5zM233.5 -198.5q16.5 17.5 16.5 32.5q1 25 -24 25q-16 0 -25.5 12t-9.5 30
q0 25 18.5 45t52.5 20q32 0 51 -20t19 -48q0 -46 -35.5 -86.5t-84.5 -62.5l-17 22q22 13 38.5 30.5z" />
  </g>

</svg>
