<?xml version="1.0" standalone="no"?>
<!DOCTYPE svg PUBLIC "-//W3C//DTD SVG 1.1//EN" "http://www.w3.org/Graphics/SVG/1.1/DTD/svg11.dtd" >
<svg xmlns="http://www.w3.org/2000/svg" xmlns:xlink="http://www.w3.org/1999/xlink" version="1.1" viewBox="-10 0 513 1000">
  <g transform="matrix(1 0 0 -1 0 800)">
   <path fill="currentColor"
d="M132 3q-57 15 -73 15q-11 0 -24.5 -2t-18.5 -4q24 75 24 166q0 21 -2 22l34 3q0 -177 147 -177q51 0 86 27t35 69q0 34 -22 58.5t-67 48.5l-69 36q-51 27 -78.5 64t-27.5 91q0 52 26.5 94.5t77.5 67.5t123 25q33 0 55.5 -5t76.5 -24q17 -6 28 -6q18 0 30 4
q-8 -34 -13.5 -60t-5.5 -57q0 -13 2 -25h-34q1 7 1 21q0 53 -35.5 85.5t-93.5 32.5q-49 0 -84 -23t-35 -66q0 -32 21 -55t66 -47l61 -35q65 -36 94.5 -69.5t29.5 -88.5t-28.5 -100.5t-84 -72t-131.5 -26.5q-39 0 -91 13zM137 -183.5q-19 14.5 -19 38.5q0 32 24.5 52t61.5 20
q32 0 51 -14.5t19 -38.5q0 -34 -24 -53t-63 -19q-31 0 -50 14.5z" />
  </g>

</svg>
