<?xml version="1.0" standalone="no"?>
<!DOCTYPE svg PUBLIC "-//W3C//DTD SVG 1.1//EN" "http://www.w3.org/Graphics/SVG/1.1/DTD/svg11.dtd" >
<svg xmlns="http://www.w3.org/2000/svg" xmlns:xlink="http://www.w3.org/1999/xlink" version="1.1" viewBox="-10 0 433 1000">
  <g transform="matrix(1 0 0 -1 0 800)">
   <path fill="currentColor"
d="M59.5 35.5q-41.5 44.5 -41.5 122.5q0 75 36 139t95 101t124 37q63 0 101.5 -26t38.5 -68q0 -35 -27 -67.5t-85.5 -57t-148.5 -33.5v-15q0 -53 20.5 -79.5t56.5 -26.5q57 0 122 50l22 -20q-35 -46 -88.5 -73.5t-109.5 -27.5q-74 0 -115.5 44.5zM267.5 265.5
q38.5 36.5 38.5 89.5q0 20 -9.5 32.5t-29.5 12.5q-51 0 -85 -81q-21 -49 -27 -103q74 13 112.5 49.5zM241 513q0 20 19 28q51 21 52 46q0 15 -9.5 22.5t-24.5 7.5q-24 0 -40 -8v28q34 18 69 18q39 0 59.5 -17t20.5 -45q0 -25 -16.5 -40.5t-46.5 -24.5q-15 -5 -25 -9t-13 -16
q-3 -11 -6 -37h-35q-4 28 -4 47z" />
  </g>

</svg>
