<?xml version="1.0" standalone="no"?>
<!DOCTYPE svg PUBLIC "-//W3C//DTD SVG 1.1//EN" "http://www.w3.org/Graphics/SVG/1.1/DTD/svg11.dtd" >
<svg xmlns="http://www.w3.org/2000/svg" xmlns:xlink="http://www.w3.org/1999/xlink" version="1.1" viewBox="-10 0 530 1000">
  <g transform="matrix(1 0 0 -1 0 800)">
   <path fill="currentColor"
d="M446 415q53 -52 53 -149q0 -78 -35 -141t-97.5 -99t-142.5 -36q-94 0 -146 51.5t-52 147.5q0 79 34.5 142.5t96 99.5t141.5 36q95 0 148 -52zM218.5 391q-29.5 -41 -43.5 -104t-15 -130l201 208q-14 67 -68 67q-45 0 -74.5 -41zM306.5 66q30.5 41 45 104.5t14.5 133.5v6
l-202 -212q12 -73 68 -73q44 0 74.5 41z" />
  </g>

</svg>
