<?xml version="1.0" standalone="no"?>
<!DOCTYPE svg PUBLIC "-//W3C//DTD SVG 1.1//EN" "http://www.w3.org/Graphics/SVG/1.1/DTD/svg11.dtd" >
<svg xmlns="http://www.w3.org/2000/svg" xmlns:xlink="http://www.w3.org/1999/xlink" version="1.1" viewBox="-10 0 702 1000">
  <g transform="matrix(1 0 0 -1 0 761)">
   <path fill="currentColor"
d="M632 670v-109c-52 47 -122 74 -199 74c-160 0 -286 -124 -286 -279c0 -154 126 -277 286 -277c77 0 147 26 199 72v-108c-58 -36 -126 -57 -199 -57c-206 0 -373 165 -373 370s167 372 373 372c73 0 141 -21 199 -58zM346 352c0 37 31 68 68 68c38 0 68 -31 68 -68
c0 -38 -30 -68 -68 -68c-37 0 -68 30 -68 68z" />
  </g>

</svg>
