<?xml version="1.0" standalone="no"?>
<!DOCTYPE svg PUBLIC "-//W3C//DTD SVG 1.1//EN" "http://www.w3.org/Graphics/SVG/1.1/DTD/svg11.dtd" >
<svg xmlns="http://www.w3.org/2000/svg" xmlns:xlink="http://www.w3.org/1999/xlink" version="1.1" viewBox="-10 0 702 1000">
  <g transform="matrix(1 0 0 -1 0 761)">
   <path fill="currentColor"
d="M433 636c-160 0 -286 -125 -286 -279c0 -155 126 -278 286 -278c77 0 147 27 199 73v-109c-50 -31 -106 -50 -168 -55l-12 -30c32 5 66 -6 90 -30c12 -12 20 -27 25 -43c11 -36 2 -77 -25 -105c-20 -19 -46 -30 -74 -30c-35 0 -67 17 -88 46l-5 8l47 23l4 -5
c9 -14 25 -21 42 -21c14 0 28 5 38 16c10 10 16 23 16 38c0 9 -3 19 -9 29c-11 17 -33 26 -54 24c-10 -2 -21 -8 -31 -18l-4 -4l-5 2s-38 15 -55 21l-7 3l30 77c-185 23 -327 178 -327 368c0 205 167 371 373 371c73 0 141 -21 199 -58v-109c-52 47 -122 75 -199 75z
M346 352c0 37 31 68 68 68c38 0 68 -31 68 -68c0 -38 -30 -68 -68 -68c-37 0 -68 30 -68 68z" />
  </g>

</svg>
