<?xml version="1.0" standalone="no"?>
<!DOCTYPE svg PUBLIC "-//W3C//DTD SVG 1.1//EN" "http://www.w3.org/Graphics/SVG/1.1/DTD/svg11.dtd" >
<svg xmlns="http://www.w3.org/2000/svg" xmlns:xlink="http://www.w3.org/1999/xlink" version="1.1" viewBox="-10 0 351 1000">
  <g transform="matrix(1 0 0 -1 0 761)">
   <path fill="currentColor"
d="M69 467c12 51 32 101 57 148c26 47 56 90 91 128h67c-54 -85 -95 -177 -117 -266c-28 -112 -29 -221 -3 -324c27 -105 81 -198 127 -269h-70c-2 2 -4 4 -4 5c-34 39 -64 81 -89 125c-25 47 -45 96 -58 147c-13 50 -20 101 -20 153s6 103 19 153z" />
  </g>

</svg>
