<?xml version="1.0" standalone="no"?>
<!DOCTYPE svg PUBLIC "-//W3C//DTD SVG 1.1//EN" "http://www.w3.org/Graphics/SVG/1.1/DTD/svg11.dtd" >
<svg xmlns="http://www.w3.org/2000/svg" xmlns:xlink="http://www.w3.org/1999/xlink" version="1.1" viewBox="-10 0 547 1000">
  <g transform="matrix(1 0 0 -1 0 761)">
   <path fill="currentColor"
d="M364 379c39 -12 123 -52 123 -188c0 -70 -24 -125 -71 -161c-40 -32 -99 -48 -169 -48c-36 0 -74 5 -108 15c-40 11 -70 29 -88 50l-1 1v115s62 -95 203 -95c103 0 156 45 156 141c0 100 -92 119 -157 119h-78v99h78c56 0 129 17 129 106c0 35 -24 109 -127 109
c-115 0 -187 -119 -187 -119l4 124s58 84 183 84c58 0 111 -19 149 -53c20 -17 35 -37 46 -61c10 -24 16 -50 16 -78c0 -42 -8 -74 -24 -100c-17 -27 -42 -47 -77 -60z" />
  </g>

</svg>
