<?xml version="1.0" standalone="no"?>
<!DOCTYPE svg PUBLIC "-//W3C//DTD SVG 1.1//EN" "http://www.w3.org/Graphics/SVG/1.1/DTD/svg11.dtd" >
<svg xmlns="http://www.w3.org/2000/svg" xmlns:xlink="http://www.w3.org/1999/xlink" version="1.1" viewBox="-10 0 826 1000">
  <g transform="matrix(1 0 0 -1 0 761)">
   <path fill="currentColor"
d="M776 487l-198 -515l-168 374l-170 -375l-200 516h736zM170 407l85 -235l106 235h-191zM577 172l83 235h-198zM574 637c0 26 -22 48 -49 48s-48 -22 -48 -48c0 -27 21 -49 48 -49s49 22 49 49zM351 637c0 26 -22 48 -49 48s-48 -22 -48 -48c0 -27 21 -49 48 -49
s49 22 49 49z" />
  </g>

</svg>
