<?xml version="1.0" standalone="no"?>
<!DOCTYPE svg PUBLIC "-//W3C//DTD SVG 1.1//EN" "http://www.w3.org/Graphics/SVG/1.1/DTD/svg11.dtd" >
<svg xmlns="http://www.w3.org/2000/svg" xmlns:xlink="http://www.w3.org/1999/xlink" version="1.1" viewBox="-10 0 638 1000">
  <g transform="matrix(1 0 0 -1 0 800)">
   <path fill="currentColor"
d="M87 31q14 -1 14 22v492q0 9 -5 15t-14 6l-37 -2v33h234q163 0 240 -69t77 -229q0 -299 -305 -299h-246v33zM385.5 56.5q45.5 24.5 66.5 82t21 159.5t-21 160t-66.5 83t-123.5 25h-36q-12 0 -12 -13v-508q0 -13 12 -13h36q78 0 123.5 24.5zM290 690l-24 24l-23 24
q-19 20 -52 50q-11 9 -18.5 17t-7.5 11q0 8 10 8q12 0 31 -12l115 -70l116 70q19 12 30 12q10 0 10 -8q0 -3 -7.5 -11t-18.5 -17q-33 -30 -52 -50l-23 -24l-24 -24q-22 -22 -31 -22q-8 0 -31 22z" />
  </g>

</svg>
