<?xml version="1.0" standalone="no"?>
<!DOCTYPE svg PUBLIC "-//W3C//DTD SVG 1.1//EN" "http://www.w3.org/Graphics/SVG/1.1/DTD/svg11.dtd" >
<svg xmlns="http://www.w3.org/2000/svg" xmlns:xlink="http://www.w3.org/1999/xlink" version="1.1" viewBox="-10 0 658 1000">
  <g transform="matrix(1 0 0 -1 0 800)">
   <path fill="currentColor"
d="M118 67.5q-80 77.5 -80 228.5q0 153 79.5 232t225.5 79q73 0 154 -29q48 -16 61 -14q-4 -23 -4 -65q0 -16 4 -69h-45q1 5 1 16q0 62 -43 97.5t-125 35.5q-85 0 -134.5 -73.5t-49.5 -213.5q1 -271 183 -271q38 0 64 9.5t50 34.5v155q0 22 -19 22l-59 -2v32h247v-32l-37 2
q-9 0 -14 -6t-5 -15v-186q-6 1 -15 1q-17 0 -64 -16q-43 -15 -76.5 -22.5t-81.5 -7.5q-137 0 -217 77.5zM235.5 698q-35.5 35 -40.5 93h29q8 -31 36 -51t70 -20q40 0 69.5 20.5t37.5 50.5h29q-5 -58 -41 -93t-95 -35t-94.5 35z" />
  </g>

</svg>
