<?xml version="1.0" standalone="no"?>
<!DOCTYPE svg PUBLIC "-//W3C//DTD SVG 1.1//EN" "http://www.w3.org/Graphics/SVG/1.1/DTD/svg11.dtd" >
<svg xmlns="http://www.w3.org/2000/svg" xmlns:xlink="http://www.w3.org/1999/xlink" version="1.1" viewBox="-10 0 327 1000">
  <g transform="matrix(1 0 0 -1 0 800)">
   <path fill="currentColor"
d="M83 31q18 0 18 22v492q0 9 -5 15.5t-14 5.5l-37 -2v33h227v-33l-38 2h-2q-8 0 -13 -6t-5 -15v-492q0 -23 20 -22l38 2v-33h-227v33zM84 672q0 7 17 25l95 104q15 17 20.5 21t15.5 4q17 0 39.5 -11.5t22.5 -19.5q0 -7 -11 -15l-165 -108q-13 -9 -22 -9q-12 0 -12 9z" />
  </g>

</svg>
