<?xml version="1.0" standalone="no"?>
<!DOCTYPE svg PUBLIC "-//W3C//DTD SVG 1.1//EN" "http://www.w3.org/Graphics/SVG/1.1/DTD/svg11.dtd" >
<svg xmlns="http://www.w3.org/2000/svg" xmlns:xlink="http://www.w3.org/1999/xlink" version="1.1" viewBox="-10 0 328 1000">
  <g transform="matrix(1 0 0 -1 0 800)">
   <path fill="currentColor"
d="M83 31q18 0 18 22v492q0 9 -5 15.5t-14 5.5l-37 -2v33h227v-33l-38 2h-2q-8 0 -13 -6t-5 -15v-492q0 -23 20 -22l38 2v-33h-227v33zM155 695q-57 20 -76 20q-14 0 -23.5 -11.5t-9.5 -29.5h-24q0 41 17.5 68t46.5 27q21 0 89 -22q60 -19 77 -19q14 0 23.5 11t9.5 29h23
q0 -41 -17.5 -68t-46.5 -27q-26 0 -89 22z" />
  </g>

</svg>
