<?xml version="1.0" standalone="no"?>
<!DOCTYPE svg PUBLIC "-//W3C//DTD SVG 1.1//EN" "http://www.w3.org/Graphics/SVG/1.1/DTD/svg11.dtd" >
<svg xmlns="http://www.w3.org/2000/svg" xmlns:xlink="http://www.w3.org/1999/xlink" version="1.1" viewBox="-10 0 465 1000">
  <g transform="matrix(1 0 0 -1 0 800)">
   <path fill="currentColor"
d="M99 -1q-31 6 -40 6h-8q-21 0 -27 -6v173h40q0 -57 22.5 -104.5t73.5 -47.5q45 0 65 36t20 123v366q0 9 -5.5 15.5t-13.5 5.5l-69 -2v33h257v-33l-36 2h-2q-8 0 -13 -6t-5 -14v-367q0 -189 -179 -189q-30 0 -80 9z" />
  </g>

</svg>
