<?xml version="1.0" standalone="no"?>
<!DOCTYPE svg PUBLIC "-//W3C//DTD SVG 1.1//EN" "http://www.w3.org/Graphics/SVG/1.1/DTD/svg11.dtd" >
<svg xmlns="http://www.w3.org/2000/svg" xmlns:xlink="http://www.w3.org/1999/xlink" version="1.1" viewBox="-10 0 679 1000">
  <g transform="matrix(1 0 0 -1 0 800)">
   <path fill="currentColor"
d="M136 49q0 -22 19 -22l49 2v-29h-164v29l39 -2q20 0 20 22v499q0 9 -5.5 15.5t-14.5 5.5l-39 -2v30h178l315 -430v382q0 20 -17 20h-3l-49 -2v30h165v-30l-39 2h-2q-17 0 -17 -21v-554h-44l-391 531v-476zM337 695q-57 20 -76 20q-14 0 -23.5 -11.5t-9.5 -29.5h-24
q0 41 17.5 68t46.5 27q21 0 89 -22q60 -19 77 -19q14 0 23.5 11t9.5 29h23q0 -41 -17.5 -68t-46.5 -27q-26 0 -89 22z" />
  </g>

</svg>
