<?xml version="1.0" standalone="no"?>
<!DOCTYPE svg PUBLIC "-//W3C//DTD SVG 1.1//EN" "http://www.w3.org/Graphics/SVG/1.1/DTD/svg11.dtd" >
<svg xmlns="http://www.w3.org/2000/svg" xmlns:xlink="http://www.w3.org/1999/xlink" version="1.1" viewBox="-10 0 506 1000">
  <g transform="matrix(1 0 0 -1 0 800)">
   <path fill="currentColor"
d="M163 3q-54 15 -78 15q-9 0 -20.5 -2t-15.5 -3q4 21 4 80q0 76 -8 109l28 1q25 -181 179 -181q50 0 80 31t30 81q0 73 -98 112l-100 41q-111 45 -112 150q0 45 22 84.5t66 62.5t106 23q32 0 55 -5.5t45.5 -13l31.5 -10.5q16 -6 28 -6q17 0 28 4q-3 -24 -3 -75q0 -30 1 -43
t5 -24h-29q0 64 -42.5 103.5t-105.5 39.5q-50 0 -81.5 -27t-31.5 -73q0 -31 22 -55.5t64 -41.5l89 -37q77 -32 110 -70t33 -99q0 -53 -25.5 -94.5t-71.5 -65.5t-105 -24q-53 0 -100 13zM98 674q0 3 7.5 11t18.5 17q33 30 52 50l23 24l24 24q22 22 31 22q8 0 31 -22l24 -24
l23 -24q19 -20 52 -50q11 -9 18.5 -17t7.5 -11q0 -8 -10 -8q-12 0 -31 12l-115 70l-116 -70q-19 -12 -30 -12q-10 0 -10 8z" />
  </g>

</svg>
