<?xml version="1.0" standalone="no"?>
<!DOCTYPE svg PUBLIC "-//W3C//DTD SVG 1.1//EN" "http://www.w3.org/Graphics/SVG/1.1/DTD/svg11.dtd" >
<svg xmlns="http://www.w3.org/2000/svg" xmlns:xlink="http://www.w3.org/1999/xlink" version="1.1" viewBox="-13 0 563 1000">
  <g transform="matrix(1 0 0 -1 0 800)">
   <path fill="currentColor"
d="M203 31q19 0 19 22v207l-173 287q-11 19 -24 19l-28 -2v33h243v-33l-53 2h-1q-11 0 -11 -10q0 -6 5 -14l135 -225l129 229q3 5 3 10q0 10 -10 10l-52 -2v33h155v-33l-30 2q-16 0 -28 -21l-147 -263v-230q0 -21 20 -21l48 2v-33h-249v33zM205 672q0 7 17 25l95 104
q15 17 20.5 21t15.5 4q17 0 39.5 -11.5t22.5 -19.5q0 -7 -11 -15l-165 -108q-13 -9 -22 -9q-12 0 -12 9z" />
  </g>

</svg>
