<?xml version="1.0" standalone="no"?>
<!DOCTYPE svg PUBLIC "-//W3C//DTD SVG 1.1//EN" "http://www.w3.org/Graphics/SVG/1.1/DTD/svg11.dtd" >
<svg xmlns="http://www.w3.org/2000/svg" xmlns:xlink="http://www.w3.org/1999/xlink" version="1.1" viewBox="-10 0 538 1000">
  <g transform="matrix(1 0 0 -1 0 800)">
   <path fill="currentColor"
d="M387 0h-354v27l320 539h-138q-72 0 -106.5 -30t-34.5 -93h-30v157l45 -1q39 -2 64 -2h335v-24l-320 -542h159q69 0 109.5 36t40.5 100h31l-8 -171q-12 4 -113 4zM232 693l17 103q4 22 7 28t12 11q15 9 40 10t29 -6q3 -5 -3 -18l-74 -141q-7 -14 -15 -19q-11 -6 -15 2
q-2 6 2 30z" />
  </g>

</svg>
