<?xml version="1.0" standalone="no"?>
<!DOCTYPE svg PUBLIC "-//W3C//DTD SVG 1.1//EN" "http://www.w3.org/Graphics/SVG/1.1/DTD/svg11.dtd" >
<svg xmlns="http://www.w3.org/2000/svg" xmlns:xlink="http://www.w3.org/1999/xlink" version="1.1" viewBox="-10 0 724 1000">
  <g transform="matrix(1 0 0 -1 0 800)">
   <path fill="currentColor"
d="M382 13.5q-47 23.5 -72 69.5q-47 -88 -150 -88q-65 0 -102 26.5t-37 80.5q0 76 64 108t202 32v76q0 43 -18 63.5t-63 20.5q-70 0 -71 -41q0 -11 4.5 -22t4.5 -19q0 -19 -13 -29t-33 -10q-24 0 -38 14.5t-14 37.5q0 45 46.5 72t125.5 27q95 0 138 -41q59 41 144 41
q92 0 139 -54t47 -164h-292q0 -89 33 -138t97 -49q42 0 79.5 24t54.5 60l26 -19q-22 -47 -69.5 -74.5t-108.5 -27.5q-77 0 -124 23.5zM260 73q26 34 27 95v45q-81 0 -118 -28t-37 -83q0 -32 17 -47.5t46 -15.5q39 0 65 34zM579 272q0 130 -80 130q-54 0 -79.5 -41
t-25.5 -119h172q13 0 13 30z" />
  </g>

</svg>
