<?xml version="1.0" standalone="no"?>
<!DOCTYPE svg PUBLIC "-//W3C//DTD SVG 1.1//EN" "http://www.w3.org/Graphics/SVG/1.1/DTD/svg11.dtd" >
<svg xmlns="http://www.w3.org/2000/svg" xmlns:xlink="http://www.w3.org/1999/xlink" version="1.1" viewBox="-10 0 470 1000">
  <g transform="matrix(1 0 0 -1 0 800)">
   <path fill="currentColor"
d="M284 271.5q-19 7.5 -56 25.5q-30 16 -51 24t-39 8q-26 0 -42.5 -10.5t-39.5 -43.5l-28 30q42 75 110 75q20 0 41 -8t54 -25q31 -16 51 -24t38 -8q25 0 43 12.5t42 44.5l29 -30q-22 -37 -52 -57.5t-62 -20.5q-19 0 -38 7.5zM284 74.5q-19 7.5 -56 25.5q-30 16 -51 24
t-39 8q-26 0 -42.5 -10.5t-39.5 -43.5l-28 31q45 75 110 75q20 0 41 -8t54 -25q31 -16 51 -24t38 -8q25 0 43 12.5t42 44.5l29 -31q-22 -37 -52 -57.5t-62 -20.5q-19 0 -38 7.5z" />
  </g>

</svg>
