<?xml version="1.0" standalone="no"?>
<!DOCTYPE svg PUBLIC "-//W3C//DTD SVG 1.1//EN" "http://www.w3.org/Graphics/SVG/1.1/DTD/svg11.dtd" >
<svg xmlns="http://www.w3.org/2000/svg" xmlns:xlink="http://www.w3.org/1999/xlink" version="1.1" viewBox="-10 0 538 1000">
  <g transform="matrix(1 0 0 -1 0 800)">
   <path fill="currentColor"
d="M218 -138q-17 14 -17 32t20 32q8 6 12.5 12.5t4.5 15.5q0 6 -8 26q-12 25 -11 35q0 24 16 57q-30 -2 -49 -9t-41 -19q-16 -9 -26.5 -13t-25.5 -4q-25 0 -41.5 15.5t-16.5 39.5q0 52 41 52q10 0 16 -5t14 -15t14 -14.5t17 -4.5q10 0 31 5q17 5 29 5q25 0 46 -13
q0 23 -6.5 36.5t-18.5 27.5q-7 9 -11.5 16.5t-4.5 16.5q0 24 22 55q-22 30 -22 55q0 9 4.5 17t11.5 16q12 14 18.5 27.5t6.5 36.5q-20 -13 -46 -13q-10 1 -29 6q-20 5 -31 5t-17 -5t-14 -15t-14 -14.5t-16 -4.5q-41 0 -41 51q0 25 16.5 40.5t41.5 15.5q15 0 26 -4.5
t26 -13.5q22 -12 41 -19t49 -9q-16 32 -16 58q1 15 11 35q8 16 8 25t-4.5 15.5t-12.5 12.5q-10 8 -15 14.5t-5 17.5q0 18 17 32t41 14t41 -14t17 -32q0 -17 -19 -32q-9 -7 -13 -13t-4 -15q0 -8 9 -28t9 -32q0 -26 -16 -58q31 2 49.5 9t38.5 19q15 9 26.5 13.5t27.5 4.5
q25 0 41.5 -15.5t16.5 -40.5q0 -51 -40 -51q-11 0 -17 4.5t-14 14.5q-8 11 -14 15.5t-16 4.5q-12 0 -31 -5t-30 -6q-25 0 -46 13q0 -22 6 -36t19 -28q16 -17 16 -33q0 -23 -22 -55q22 -31 22 -55q0 -15 -16 -33q-14 -17 -19.5 -30t-5.5 -34q21 13 46 13q12 0 30 -5
q20 -5 31 -5q10 0 16 4.5t14 14.5q8 11 14 15.5t17 4.5q40 0 40 -52q0 -24 -16.5 -39.5t-41.5 -15.5q-16 0 -27.5 4.5t-26.5 13.5q-20 12 -38.5 18.5t-49.5 8.5q16 -34 16 -57q0 -11 -10 -33q-8 -21 -8 -28q0 -9 4 -15t13 -13q19 -15 19 -32q0 -18 -17 -32t-41 -14t-41 14z
" />
  </g>

</svg>
