<?xml version="1.0" standalone="no"?>
<!DOCTYPE svg PUBLIC "-//W3C//DTD SVG 1.1//EN" "http://www.w3.org/Graphics/SVG/1.1/DTD/svg11.dtd" >
<svg xmlns="http://www.w3.org/2000/svg" xmlns:xlink="http://www.w3.org/1999/xlink" version="1.1" viewBox="-10 0 541 1000">
  <g transform="matrix(1 0 0 -1 0 800)">
   <path fill="currentColor"
d="M64 28q13 3 13 19v328q0 17 -13 20l-36 -2v29h160q-5 -15 -5 -35v-55q21 47 60 73.5t92 26.5q69 0 100.5 -34t31.5 -108v-243h-106v233q0 62 -10.5 88t-47.5 26q-49 0 -84 -49t-36 -135v-163q0 -19 13 -19l42 2v-30h-210v30zM234.5 -223q-30.5 20 -30.5 51q0 23 14.5 37
t39.5 14q15 0 29.5 -8t14.5 -28q0 -5 -3 -16t-3 -15q0 -25 27 -25q49 1 44 70q-5 49 -6 94v252h106v-211q0 -235 -150 -235q-52 0 -82.5 20z" />
  </g>

</svg>
