<?xml version="1.0" standalone="no"?>
<!DOCTYPE svg PUBLIC "-//W3C//DTD SVG 1.1//EN" "http://www.w3.org/Graphics/SVG/1.1/DTD/svg11.dtd" >
<svg xmlns="http://www.w3.org/2000/svg" xmlns:xlink="http://www.w3.org/1999/xlink" version="1.1" viewBox="-10 0 502 1000">
  <g transform="matrix(1 0 0 -1 0 800)">
   <path fill="currentColor"
d="M139 3.5q-35 14.5 -52.5 37.5t-17.5 48t15.5 41.5t41.5 16.5q24 0 38.5 -10.5t14.5 -29.5q0 -8 -4 -20.5t-4 -20.5q0 -20 16.5 -32.5t45.5 -12.5q62 0 95 72t36 190q-48 -64 -130 -64q-95 0 -143.5 49.5t-48.5 134.5q0 96 58.5 150t155.5 54q115 0 165 -74.5t50 -203.5
q0 -144 -57 -242t-192 -98q-48 0 -83 14.5zM338.5 295.5q27.5 47.5 27.5 117.5q0 71 -29 119t-86 48q-104 0 -103 -163q1 -169 103 -169q60 0 87.5 47.5z" />
  </g>

</svg>
