<?xml version="1.0" standalone="no"?>
<!DOCTYPE svg PUBLIC "-//W3C//DTD SVG 1.1//EN" "http://www.w3.org/Graphics/SVG/1.1/DTD/svg11.dtd" >
<svg xmlns="http://www.w3.org/2000/svg" xmlns:xlink="http://www.w3.org/1999/xlink" version="1.1" viewBox="-10 0 480 1000">
  <g transform="matrix(1 0 0 -1 0 800)">
   <path fill="currentColor"
d="M133 5q-44 16 -74.5 53t-30.5 96q0 51 22.5 90t61.5 60t87 21q73 0 128 -37q2 45 2 69q0 99 -30 158.5t-84 59.5q-23 0 -39 -10t-16 -28q0 -7 4.5 -19t4.5 -22q0 -15 -12 -24.5t-34 -9.5q-25 0 -40 14.5t-15 38.5q0 42 48 66t105 24q62 0 111 -32t77 -95.5t28 -154.5
q0 -67 -17 -142.5t-65.5 -133.5t-133.5 -58q-44 0 -88 16zM284 87q28 67 39 162q-39 36 -80 36q-47 0 -77.5 -40t-30.5 -111q0 -53 20 -83.5t55 -30.5q46 0 74 67z" />
  </g>

</svg>
