<?xml version="1.0" standalone="no"?>
<!DOCTYPE svg PUBLIC "-//W3C//DTD SVG 1.1//EN" "http://www.w3.org/Graphics/SVG/1.1/DTD/svg11.dtd" >
<svg xmlns="http://www.w3.org/2000/svg" xmlns:xlink="http://www.w3.org/1999/xlink" version="1.1" viewBox="-10 0 448 1000">
  <g transform="matrix(1 0 0 -1 0 800)">
   <path fill="currentColor"
d="M93 -109.5q-47 25.5 -47 70.5q0 27 16 43.5t42 16.5q21 0 34.5 -11.5t13.5 -29.5q0 -12 -9 -25q-8 -12 -8 -20q0 -20 25 -32t55 -12q37 0 62.5 18.5t25.5 51.5q0 24 -14.5 41t-43.5 35l-123 76q-48 29 -69 57.5t-21 66.5q0 79 87 117q-37 28 -53 55.5t-16 60.5
q0 62 49 99.5t133 37.5q69 0 116.5 -25.5t47.5 -70.5q0 -27 -16.5 -43.5t-41.5 -16.5q-22 0 -35 11.5t-13 29.5q0 12 9 25q7 12 7 20q0 20 -25 32t-55 12q-37 0 -62.5 -18.5t-25.5 -51.5q0 -24 14.5 -41t43.5 -34l124 -77q48 -29 69 -57.5t21 -66.5q0 -80 -88 -116
q37 -28 53.5 -56t16.5 -61q0 -62 -49.5 -99.5t-132.5 -37.5q-70 0 -117 25.5zM328 187q0 20 -11.5 34t-43.5 33l-127 81q-33 -21 -33 -50q0 -20 12 -34t44 -32l126 -82q33 18 33 50z" />
  </g>

</svg>
