<?xml version="1.0" standalone="no"?>
<!DOCTYPE svg PUBLIC "-//W3C//DTD SVG 1.1//EN" "http://www.w3.org/Graphics/SVG/1.1/DTD/svg11.dtd" >
<svg xmlns="http://www.w3.org/2000/svg" xmlns:xlink="http://www.w3.org/1999/xlink" version="1.1" viewBox="-10 0 529 1000">
  <g transform="matrix(1 0 0 -1 0 800)">
   <path fill="currentColor"
d="M388 0h-330l-3 61l18 11q91 56 142.5 92.5t86.5 80.5t35 95q0 97 -92 97q-42 0 -65 -18t-23 -52q0 -8 5 -31q5 -13 5 -24q0 -20 -15.5 -31.5t-38.5 -11.5q-27 0 -41.5 16.5t-14.5 46.5q0 40 26 70.5t70.5 47.5t98.5 17q86 0 136.5 -35t50.5 -94q0 -53 -38 -97
t-99.5 -79.5t-162.5 -82.5v-2h177q58 0 84 20t32 70h36q-22 -132 -24 -170q-9 3 -56 3z" />
  </g>

</svg>
