<?xml version="1.0" standalone="no"?>
<!DOCTYPE svg PUBLIC "-//W3C//DTD SVG 1.1//EN" "http://www.w3.org/Graphics/SVG/1.1/DTD/svg11.dtd" >
<svg xmlns="http://www.w3.org/2000/svg" xmlns:xlink="http://www.w3.org/1999/xlink" version="1.1" viewBox="-10 0 538 1000">
  <g transform="matrix(1 0 0 -1 0 800)">
   <path fill="currentColor"
d="M93.5 26.5q-29.5 36.5 -29.5 117.5v232q0 19 -13 19l-35 -2v29h154v-281q0 -61 10.5 -86.5t42.5 -25.5q50 0 84 47.5t37 124.5l1 174q0 20 -12 20l-44 -2v29h163v-375q0 -19 13 -19l34 2v-30h-160q5 13 5 60v27q-44 -97 -155 -97q-66 0 -95.5 36.5zM299 501q0 4 3 10
l25 46q48 84 51 87q4 5 6.5 7t6.5 2q6 0 23 -5t27 -9q9 -4 9 -12q0 -4 -6 -12l-117 -114q-9 -8 -19 -8q-7 0 -9 8zM175 501q0 4 3 10l19 34q54 95 58 99q4 5 6.5 7t6.5 2q6 0 22.5 -5t27.5 -9q9 -4 9 -12q0 -4 -6 -12q-10 -10 -117 -114q-9 -8 -19 -8q-7 0 -10 8z" />
  </g>

</svg>
