<?xml version="1.0" standalone="no"?>
<!DOCTYPE svg PUBLIC "-//W3C//DTD SVG 1.1//EN" "http://www.w3.org/Graphics/SVG/1.1/DTD/svg11.dtd" >
<svg xmlns="http://www.w3.org/2000/svg" xmlns:xlink="http://www.w3.org/1999/xlink" version="1.1" viewBox="-10 0 665 1000">
  <g transform="matrix(1 0 0 -1 0 800)">
   <path fill="currentColor"
d="M92 201v344q0 9 -5.5 15.5t-13.5 5.5l-38 -2v33h239v-33l-49 2h-2q-8 0 -13 -6t-5 -14v-347q0 -84 43.5 -129t123.5 -45q75 0 117.5 49t42.5 126v345q0 10 -5 16t-13 5l-49 -2v33h165v-33l-39 2h-2q-8 0 -13 -6t-5 -14v-351q0 -91 -58.5 -148t-162.5 -57q-258 0 -258 211
zM408 674q-107 104 -116 114q-6 8 -6 12q0 8 9 12q10 4 26.5 9t22.5 5q4 0 6.5 -2t6.5 -7q3 -5 58 -99l19 -34q3 -7 3 -10q0 -8 -10 -8t-19 8zM285 674l-117 114q-6 8 -6 12q0 8 9 12q10 4 27 9t23 5q4 0 6.5 -2t6.5 -7q2 -3 51 -87l26 -46q3 -6 3 -10q0 -8 -10 -8t-19 8z
" />
  </g>

</svg>
