<?xml version="1.0" standalone="no"?>
<!DOCTYPE svg PUBLIC "-//W3C//DTD SVG 1.1//EN" "http://www.w3.org/Graphics/SVG/1.1/DTD/svg11.dtd" >
<svg xmlns="http://www.w3.org/2000/svg" xmlns:xlink="http://www.w3.org/1999/xlink" version="1.1" viewBox="-84 0 343 1000">
  <g transform="matrix(1 0 0 -1 0 800)">
   <path fill="currentColor"
d="M64 28q13 0 13 19v328q0 17 -12 20l-36 -2v29h154v-375q0 -20 13 -19l34 2v-30h-202v30zM172 501q-107 104 -116 114q-6 8 -6 12q0 8 9 12q10 4 26.5 9t22.5 5q4 0 6.5 -2t6.5 -7q4 -4 58 -99l19 -34q3 -6 3 -10q-3 -8 -10 -8q-10 0 -19 8zM49 501l-117 114q-6 8 -6 12
q0 8 9 12q10 4 27 9t23 5q4 0 6.5 -2t6.5 -7q3 -3 51 -87l26 -46q3 -6 3 -10q-3 -8 -10 -8q-10 0 -19 8z" />
  </g>

</svg>
