<?xml version="1.0" standalone="no"?>
<!DOCTYPE svg PUBLIC "-//W3C//DTD SVG 1.1//EN" "http://www.w3.org/Graphics/SVG/1.1/DTD/svg11.dtd" >
<svg xmlns="http://www.w3.org/2000/svg" xmlns:xlink="http://www.w3.org/1999/xlink" version="1.1" viewBox="-10 0 577 1000">
  <g transform="matrix(1 0 0 -1 0 800)">
   <path fill="currentColor"
d="M431 0h-386v34l38 -3q18 0 18 22v492q0 9 -5.5 15.5t-14.5 5.5l-36 -2v33h431q14 0 17 1v-155h-31q0 65 -33.5 94t-108.5 29h-94q-12 0 -12 -14v-227h85q34 0 55 27t21 74h30v-233h-30q0 43 -22.5 72t-53.5 29h-85v-249q0 -13 12 -13h127q68 0 103.5 38t35.5 109h31v-182
q-22 3 -92 3zM338 674q-107 104 -116 114q-6 8 -6 12q0 8 9 12q10 4 26.5 9t22.5 5q4 0 6.5 -2t6.5 -7q3 -5 58 -99l19 -34q3 -7 3 -10q0 -8 -10 -8t-19 8zM215 674l-117 114q-6 8 -6 12q0 8 9 12q10 4 27 9t23 5q4 0 6.5 -2t6.5 -7q2 -3 51 -87l26 -46q3 -6 3 -10
q0 -8 -10 -8t-19 8z" />
  </g>

</svg>
