<?xml version="1.0" standalone="no"?>
<!DOCTYPE svg PUBLIC "-//W3C//DTD SVG 1.1//EN" "http://www.w3.org/Graphics/SVG/1.1/DTD/svg11.dtd" >
<svg xmlns="http://www.w3.org/2000/svg" xmlns:xlink="http://www.w3.org/1999/xlink" version="1.1" viewBox="-10 0 780 1000">
  <g transform="matrix(1 0 0 -1 0 800)">
   <path fill="currentColor"
d="M368 0h-323v34l41 -3q15 0 15 22v492q0 9 -5.5 15.5t-13.5 5.5l-37 -2v33h238v-33l-49 2h-2q-8 0 -13 -6t-5 -15v-500q0 -13 12 -13h100q67 0 102 35.5t35 103.5h29v-174q-18 3 -124 3zM463.5 -223q-30.5 20 -30.5 51q0 23 15 37t40 14q14 0 28.5 -8t14.5 -28
q0 -5 -3 -16t-3 -15q0 -25 27 -25q49 1 44 70q-5 49 -5 94v424q0 20 -13 20l-38 -2v29h157v-430q0 -235 -150 -235q-53 0 -83.5 20zM593.5 555q-17.5 14 -17.5 41q0 24 17.5 38.5t46.5 14.5q28 0 46.5 -14.5t18.5 -38.5q0 -26 -18 -40.5t-47 -14.5t-46.5 14z" />
  </g>

</svg>
