<?xml version="1.0" standalone="no"?>
<!DOCTYPE svg PUBLIC "-//W3C//DTD SVG 1.1//EN" "http://www.w3.org/Graphics/SVG/1.1/DTD/svg11.dtd" >
<svg xmlns="http://www.w3.org/2000/svg" xmlns:xlink="http://www.w3.org/1999/xlink" version="1.1" viewBox="-30 0 666 1000">
  <g transform="matrix(1 0 0 -1 0 800)">
   <path fill="currentColor"
d="M7 31h4q20 0 33 19q15 22 30 58l208 499h36l210 -501q14 -36 29 -57q14 -18 35 -18h5l29 2v-33h-280v33l47 -2q30 -3 30 24q0 17 -10 39l-43 104h-227l-41 -98q-14 -31 -14 -50q0 -21 22 -20l47 3v-33h-177v33zM255 472l-100 -243h202zM345 674q-107 104 -116 114
q-6 8 -6 12q0 8 9 12q10 4 26.5 9t22.5 5q4 0 6.5 -2t6.5 -7q3 -5 58 -99l19 -34q3 -7 3 -10q0 -8 -10 -8t-19 8zM222 674l-117 114q-6 8 -6 12q0 8 9 12q10 4 27 9t23 5q4 0 6.5 -2t6.5 -7q2 -3 51 -87l26 -46q3 -6 3 -10q0 -8 -10 -8t-19 8z" />
  </g>

</svg>
