<?xml version="1.0" standalone="no"?>
<!DOCTYPE svg PUBLIC "-//W3C//DTD SVG 1.1//EN" "http://www.w3.org/Graphics/SVG/1.1/DTD/svg11.dtd" >
<svg xmlns="http://www.w3.org/2000/svg" xmlns:xlink="http://www.w3.org/1999/xlink" version="1.1" viewBox="-10 0 328 1000">
  <g transform="matrix(1 0 0 -1 0 800)">
   <path fill="currentColor"
d="M62 -198l10 28q12 -13 35 -13q21 0 37 14.5t16 35.5t-34 39l-23 14q-11 8 -11 15t6 13l41 52h36l-25 -40q-6 -11 -6 -19q0 -6 7.5 -9t24.5 -7q27 -6 43 -15.5t16 -31.5q0 -43 -29.5 -67.5t-74.5 -24.5q-44 0 -69 16zM105.5 16.5q-27.5 23.5 -27.5 76.5v301h-60v28
q40 0 61 7.5t33.5 28.5t23.5 66h48v-102h105v-28h-105v-306q0 -37 9 -50t31 -13q13 0 28 11t21 29l24 -14q-22 -58 -108 -58q-56 0 -83.5 23.5z" />
  </g>

</svg>
