<?xml version="1.0" standalone="no"?>
<!DOCTYPE svg PUBLIC "-//W3C//DTD SVG 1.1//EN" "http://www.w3.org/Graphics/SVG/1.1/DTD/svg11.dtd" >
<svg xmlns="http://www.w3.org/2000/svg" xmlns:xlink="http://www.w3.org/1999/xlink" version="1.1" viewBox="-10 0 468 1000">
  <g transform="matrix(1 0 0 -1 0 800)">
   <path fill="currentColor"
d="M53.5 18.5q-32.5 28.5 -32.5 84.5q0 75 64 111t202 36v68q0 43 -18 63.5t-63 20.5q-71 0 -71 -42q0 -10 4.5 -21t4.5 -19q0 -19 -13 -29t-33 -10q-24 0 -38 14.5t-14 37.5q0 45 46.5 72t125.5 27q175 0 175 -137v-248q0 -19 13 -19l36 2v-30h-160q4 22 4 37l1 33
q-41 -80 -138 -80q-63 0 -95.5 28.5zM256 71q27 33 31 85v63q-82 0 -118.5 -25.5t-36.5 -80.5q0 -80 59 -75q38 0 65 33zM267 501q-107 104 -116 114q-6 8 -6 12q0 8 9 12q10 4 26.5 9t22.5 5q4 0 6.5 -2t6.5 -7q4 -4 58 -99l19 -34q3 -6 3 -10q-3 -8 -10 -8q-10 0 -19 8z
M144 501l-117 114q-6 8 -6 12q0 8 9 12q10 4 27 9t23 5q4 0 6.5 -2t6.5 -7q3 -3 51 -87l26 -46q3 -6 3 -10q-3 -8 -10 -8q-10 0 -19 8z" />
  </g>

</svg>
