<?xml version="1.0" standalone="no"?>
<!DOCTYPE svg PUBLIC "-//W3C//DTD SVG 1.1//EN" "http://www.w3.org/Graphics/SVG/1.1/DTD/svg11.dtd" >
<svg xmlns="http://www.w3.org/2000/svg" xmlns:xlink="http://www.w3.org/1999/xlink" version="1.1" viewBox="-10 0 658 1000">
  <g transform="matrix(1 0 0 -1 0 800)">
   <path fill="currentColor"
d="M118 67.5q-80 77.5 -80 228.5q0 153 79.5 232t225.5 79q73 0 154 -29q48 -16 61 -14q-4 -23 -4 -65q0 -16 4 -69h-45q1 5 1 16q0 62 -43 97.5t-125 35.5q-85 0 -134.5 -73.5t-49.5 -213.5q1 -271 183 -271q38 0 64 9.5t50 34.5v155q0 22 -19 22l-59 -2v32h247v-32l-37 2
q-9 0 -14 -6t-5 -15v-186q-6 1 -15 1q-17 0 -64 -16q-43 -15 -76.5 -22.5t-81.5 -7.5q-137 0 -217 77.5zM313 -183.5q15 17.5 15 30.5q0 29 -28 29q-16 0 -25.5 12t-9.5 28q0 20 14 35t41 15q30 0 49 -20.5t19 -48.5q0 -41 -26.5 -75t-64.5 -52l-18 17q19 12 34 29.5z" />
  </g>

</svg>
