<?xml version="1.0" standalone="no"?>
<!DOCTYPE svg PUBLIC "-//W3C//DTD SVG 1.1//EN" "http://www.w3.org/Graphics/SVG/1.1/DTD/svg11.dtd" >
<svg xmlns="http://www.w3.org/2000/svg" xmlns:xlink="http://www.w3.org/1999/xlink" version="1.1" viewBox="-10 0 530 1000">
  <g transform="matrix(1 0 0 -1 0 800)">
   <path fill="currentColor"
d="M64 28q13 3 13 19v636q0 21 -12 21l-36 -2v28h154v-493l161 139q6 6 6 13q0 3 -2.5 5.5t-6.5 1.5l-43 -2v28h166v-28l-36 2q-15 0 -31 -14l-108 -92l161 -244q5 -8 13 -13.5t14 -4.5l33 2v-30h-227v30l40 -2h2q7 0 9 4t-2 10l-121 181l-28 -24v-152q0 -20 13 -19l41 2
v-30h-209v30zM250 -183.5q15 17.5 15 30.5q0 29 -28 29q-16 0 -25.5 12t-9.5 28q0 20 14 35t41 15q30 0 49 -20.5t19 -48.5q0 -41 -26.5 -75t-64.5 -52l-18 17q19 12 34 29.5z" />
  </g>

</svg>
