<?xml version="1.0" standalone="no"?>
<!DOCTYPE svg PUBLIC "-//W3C//DTD SVG 1.1//EN" "http://www.w3.org/Graphics/SVG/1.1/DTD/svg11.dtd" >
<svg xmlns="http://www.w3.org/2000/svg" xmlns:xlink="http://www.w3.org/1999/xlink" version="1.1" viewBox="-10 0 684 1000">
  <g transform="matrix(1 0 0 -1 0 800)">
   <path fill="currentColor"
d="M116.5 71q-78.5 81 -78.5 228q0 149 78.5 228.5t220.5 79.5q143 0 220.5 -81t77.5 -227q0 -147 -78.5 -228t-219.5 -81q-142 0 -220.5 81zM470 84q41 63 41 215q0 151 -41 214.5t-133 63.5t-133.5 -63.5t-41.5 -214.5q0 -152 41.5 -215t133.5 -63t133 63zM382 674
q-107 104 -116 114q-6 8 -6 12q0 8 9 12q10 4 26.5 9t22.5 5q4 0 6.5 -2t6.5 -7q3 -5 58 -99l19 -34q3 -7 3 -10q0 -8 -10 -8t-19 8zM259 674l-117 114q-6 8 -6 12q0 8 9 12q10 4 27 9t23 5q4 0 6.5 -2t6.5 -7q2 -3 51 -87l26 -46q3 -6 3 -10q0 -8 -10 -8t-19 8z" />
  </g>

</svg>
