<?xml version="1.0" standalone="no"?>
<!DOCTYPE svg PUBLIC "-//W3C//DTD SVG 1.1//EN" "http://www.w3.org/Graphics/SVG/1.1/DTD/svg11.dtd" >
<svg xmlns="http://www.w3.org/2000/svg" xmlns:xlink="http://www.w3.org/1999/xlink" version="1.1" viewBox="-10 0 1030 1000">
  <g transform="matrix(1 0 0 -1 0 800)">
   <path fill="currentColor"
d="M136 49q0 -22 19 -22l49 2v-29h-164v29l39 -2q20 0 20 22v499q0 9 -5.5 15.5t-14.5 5.5l-39 -2v30h178l315 -430v382q0 20 -17 20h-3l-49 -2v30h165v-30l-39 2h-2q-17 0 -17 -21v-554h-44l-391 531v-476zM739 382q-36 38 -36 98q0 65 37.5 101.5t103.5 36.5t104 -36
t38 -102q0 -64 -37.5 -100t-104.5 -36q-69 0 -105 38zM875.5 380.5q11.5 8.5 17 31.5t5.5 68q0 63 -11.5 87t-42.5 24t-42.5 -25t-11.5 -86t10.5 -84.5t43.5 -23.5q20 0 31.5 8.5zM986 290v-26h-284v26h284z" />
  </g>

</svg>
