<?xml version="1.0" standalone="no"?>
<!DOCTYPE svg PUBLIC "-//W3C//DTD SVG 1.1//EN" "http://www.w3.org/Graphics/SVG/1.1/DTD/svg11.dtd" >
<svg xmlns="http://www.w3.org/2000/svg" xmlns:xlink="http://www.w3.org/1999/xlink" version="1.1" viewBox="-10 0 544 1000">
  <g transform="matrix(1 0 0 -1 0 800)">
   <path fill="currentColor"
d="M41 308h116q37 0 65 32t33 79h-214v26h216q-1 50 -32 85.5t-79 35.5h-105v31h476l-5 -26h-212q74 -38 75 -126h110l-6 -26h-106q-9 -63 -59 -103t-122 -40h-22l164 -232q10 -14 24 -14q21 0 37 3v-33h-164l-190 276v32z" />
  </g>

</svg>
