<?xml version="1.0" standalone="no"?>
<!DOCTYPE svg PUBLIC "-//W3C//DTD SVG 1.1//EN" "http://www.w3.org/Graphics/SVG/1.1/DTD/svg11.dtd" >
<svg xmlns="http://www.w3.org/2000/svg" xmlns:xlink="http://www.w3.org/1999/xlink" version="1.1" viewBox="-10 0 286 1000">
  <g transform="matrix(1 0 0 -1 0 800)">
   <path fill="currentColor"
d="M212 -97h-186l-2 53l68 44q42 31 58.5 54.5t16.5 58.5q0 45 -35 45q-14 0 -22.5 -6t-8.5 -16q0 -5 2.5 -15t2.5 -15q0 -14 -12 -22.5t-30 -8.5q-22 0 -33 12t-11 29q0 27 30 44.5t83 17.5q55 0 89 -18.5t34 -54.5q0 -34 -31.5 -60t-86.5 -53l-68 -31h113q25 0 37 6t14 20
h23q-6 -24 -11 -86q-8 2 -34 2z" />
  </g>

</svg>
