<?xml version="1.0" standalone="no"?>
<!DOCTYPE svg PUBLIC "-//W3C//DTD SVG 1.1//EN" "http://www.w3.org/Graphics/SVG/1.1/DTD/svg11.dtd" >
<svg xmlns="http://www.w3.org/2000/svg" xmlns:xlink="http://www.w3.org/1999/xlink" version="1.1" viewBox="-10 0 632 1000">
  <g transform="matrix(1 0 0 -1 0 800)">
   <path fill="currentColor"
d="M94 72.5q-65 77.5 -65 223.5q0 140 67 221.5t190 88.5v74h39v-73q68 -3 143 -29q46 -16 60 -14q-4 -20 -4 -65q0 -22 4 -69h-44q1 4 1 16q0 61 -41.5 96t-118.5 37v-307h274v-32l-37 2q-9 0 -14 -6t-5 -15v-186l-16 1q-18 1 -63 -16q-42 -14 -72 -21.5t-67 -8.5v-74h-39
v74q-127 5 -192 82.5zM188.5 485.5q-35.5 -74.5 -35.5 -193.5q0 -244 133 -269v552q-62 -15 -97.5 -89.5zM383.5 31q23.5 10 46.5 34v155q0 22 -19 22l-86 -2v-219q35 0 58.5 10z" />
  </g>

</svg>
