<?xml version="1.0" standalone="no"?>
<!DOCTYPE svg PUBLIC "-//W3C//DTD SVG 1.1//EN" "http://www.w3.org/Graphics/SVG/1.1/DTD/svg11.dtd" >
<svg xmlns="http://www.w3.org/2000/svg" xmlns:xlink="http://www.w3.org/1999/xlink" version="1.1" viewBox="-10 0 452 1000">
  <g transform="matrix(1 0 0 -1 0 800)">
   <path fill="currentColor"
d="M267 394h-82q-48 0 -77.5 -29t-37.5 -83h-25l9 142q3 0 29.5 -1t66.5 -1h243v-22l-229 -371h84q63 0 96 27.5t33 82.5h25v-139h-264l-84 -1q-9 -1 -20 -1v24zM181 555q-18 15 -18 40q0 24 18 39.5t46 15.5q27 0 45.5 -15.5t18.5 -39.5q0 -25 -17.5 -40t-46.5 -15
q-28 0 -46 15z" />
  </g>

</svg>
