<?xml version="1.0" standalone="no"?>
<!DOCTYPE svg PUBLIC "-//W3C//DTD SVG 1.1//EN" "http://www.w3.org/Graphics/SVG/1.1/DTD/svg11.dtd" >
<svg xmlns="http://www.w3.org/2000/svg" xmlns:xlink="http://www.w3.org/1999/xlink" version="1.1" viewBox="-10 0 721 1000">
  <g transform="matrix(1 0 0 -1 0 800)">
   <path fill="currentColor"
d="M286 -12q-50 0 -91.5 12.5t-71 36.5t-46 58t-16.5 77q0 37 11.5 66.5t32 53.5t49 43t63.5 37l-10 11q-37 38 -59.5 79.5t-22.5 89.5q0 72 48.5 115t131.5 43q38 0 69.5 -10.5t53.5 -29.5t34 -44.5t12 -55.5q0 -32 -14 -60t-38.5 -52t-58.5 -45.5t-74 -40.5l205 -216
q17 36 26.5 81.5t11.5 94.5h-81v35h203v-35h-84q-3 -60 -16 -111t-35 -92l47 -49q24 -25 48 -35t66 -10v-35h-45q-39 0 -65 12.5t-53 41.5l-30 31q-73 -97 -201 -97zM267 396q74 36 113.5 74t39.5 86v14q0 47 -33 75.5t-84 28.5q-29 0 -51 -9t-37.5 -24.5t-23.5 -36
t-8 -44.5v-13q0 -40 24 -75.5t57 -70.5zM290 27q60 0 103 22.5t70 60.5l-224 238q-58 -32 -86.5 -70t-28.5 -95v-19q0 -64 46.5 -100.5t119.5 -36.5z" />
  </g>

</svg>
