<?xml version="1.0" standalone="no"?>
<!DOCTYPE svg PUBLIC "-//W3C//DTD SVG 1.1//EN" "http://www.w3.org/Graphics/SVG/1.1/DTD/svg11.dtd" >
<svg xmlns="http://www.w3.org/2000/svg" xmlns:xlink="http://www.w3.org/1999/xlink" version="1.1" viewBox="-10 0 610 1000">
  <g transform="matrix(1 0 0 -1 0 800)">
   <path fill="currentColor"
d="M422 350q-33 0 -61.5 10t-67.5 27q-35 16 -61.5 25.5t-55.5 9.5q-27 0 -48 -8.5t-44 -28.5l-20 26q23 25 49 38t65 13q33 0 61.5 -10t67.5 -27q35 -16 61.5 -25.5t55.5 -9.5q27 0 48 8.5t44 28.5l20 -26q-23 -25 -49 -38t-65 -13zM422 151q-33 0 -61.5 10t-67.5 27
q-35 16 -61.5 25.5t-55.5 9.5q-27 0 -48 -8.5t-44 -28.5l-20 26q23 25 49 38t65 13q33 0 61.5 -10t67.5 -27q35 -16 61.5 -25.5t55.5 -9.5q27 0 48 8.5t44 28.5l20 -26q-23 -25 -49 -38t-65 -13z" />
  </g>

</svg>
