<?xml version="1.0" standalone="no"?>
<!DOCTYPE svg PUBLIC "-//W3C//DTD SVG 1.1//EN" "http://www.w3.org/Graphics/SVG/1.1/DTD/svg11.dtd" >
<svg xmlns="http://www.w3.org/2000/svg" xmlns:xlink="http://www.w3.org/1999/xlink" version="1.1" viewBox="-10 0 786 1000">
  <g transform="matrix(1 0 0 -1 0 800)">
   <path fill="currentColor"
d="M396 154q-78 0 -121.5 51.5t-43.5 142.5q0 46 12 82.5t34.5 61.5t53 38.5t68.5 13.5q53 0 86.5 -22.5t33.5 -55.5q0 -17 -9.5 -27.5t-26.5 -10.5t-25.5 10t-8.5 25q0 25 28 34v2q-27 16 -74 16q-56 0 -89.5 -38.5t-33.5 -98.5v-47q0 -64 32.5 -102.5t88.5 -38.5
q46 0 72 19t40 46l19 -12q-7 -16 -18.5 -32t-28 -28.5t-39 -20.5t-50.5 -8zM388 24q63 0 116 22.5t91 62.5t59 94.5t21 118.5v54q0 64 -21 118.5t-59 94.5t-91 62.5t-116 22.5t-116 -22.5t-91 -62.5t-59 -94.5t-21 -118.5v-54q0 -64 21 -118.5t59 -94.5t91 -62.5t116 -22.5z
M388 -12q-71 0 -131 25.5t-103.5 72.5t-68.5 113.5t-25 149.5t25 149.5t68.5 113.5t103.5 72.5t131 25.5q70 0 130.5 -25.5t104 -72.5t68.5 -113.5t25 -149.5t-25 -149.5t-68.5 -113.5t-104 -72.5t-130.5 -25.5z" />
  </g>

</svg>
