<?xml version="1.0" standalone="no"?>
<!DOCTYPE svg PUBLIC "-//W3C//DTD SVG 1.1//EN" "http://www.w3.org/Graphics/SVG/1.1/DTD/svg11.dtd" >
<svg xmlns="http://www.w3.org/2000/svg" xmlns:xlink="http://www.w3.org/1999/xlink" version="1.1" viewBox="-10 0 475 1000">
  <g transform="matrix(1 0 0 -1 0 800)">
   <path fill="currentColor"
d="M233 370q-35 0 -65.5 13t-52.5 36t-34.5 54t-12.5 67t12.5 67t34.5 54t52.5 36t65.5 13t65.5 -13t52.5 -36t34.5 -54t12.5 -67t-12.5 -67t-34.5 -54t-52.5 -36t-65.5 -13zM233 408q28 0 50.5 10.5t38.5 28.5t25 42t9 51t-9 51t-25 42t-38.5 28.5t-50.5 10.5t-50.5 -10.5
t-38.5 -28.5t-25 -42t-9 -51t9 -51t25 -42t38.5 -28.5t50.5 -10.5z" />
  </g>

</svg>
