<?xml version="1.0" standalone="no"?>
<!DOCTYPE svg PUBLIC "-//W3C//DTD SVG 1.1//EN" "http://www.w3.org/Graphics/SVG/1.1/DTD/svg11.dtd" >
<svg xmlns="http://www.w3.org/2000/svg" xmlns:xlink="http://www.w3.org/1999/xlink" version="1.1" viewBox="-10 0 610 1000">
  <g transform="matrix(1 0 0 -1 0 800)">
   <path fill="currentColor"
d="M300 -12q-111 0 -173 53.5t-62 142.5q0 37 13 67.5t35 53t51.5 37t62.5 20.5v6q-29 5 -54.5 19t-44 35.5t-29.5 49.5t-11 61q0 40 15 73t43 56t67 35.5t87 12.5t87 -12.5t67 -35.5t43 -56t15 -73q0 -33 -11 -61t-30.5 -49.5t-45 -35.5t-54.5 -19v-6q33 -6 63 -20.5
t52.5 -37t35.5 -53t13 -67.5q0 -89 -62 -142.5t-173 -53.5zM300 23q40 0 71.5 11.5t53.5 32t33.5 48t11.5 60.5v23q0 33 -11.5 60.5t-33.5 48t-53.5 32t-71.5 11.5t-71.5 -11.5t-53.5 -32t-33.5 -48t-11.5 -60.5v-23q0 -33 11.5 -60.5t33.5 -48t53.5 -32t71.5 -11.5z
M300 383q36 0 64 11t46.5 29.5t28 43.5t9.5 54v17q0 28 -9.5 53.5t-28 44t-46.5 29.5t-64 11t-64 -11t-46.5 -29.5t-28 -44t-9.5 -53.5v-17q0 -29 9.5 -54t28 -43.5t46.5 -29.5t64 -11z" />
  </g>

</svg>
