<?xml version="1.0" standalone="no"?>
<!DOCTYPE svg PUBLIC "-//W3C//DTD SVG 1.1//EN" "http://www.w3.org/Graphics/SVG/1.1/DTD/svg11.dtd" >
<svg xmlns="http://www.w3.org/2000/svg" xmlns:xlink="http://www.w3.org/1999/xlink" version="1.1" viewBox="-10 0 928 1000">
  <g transform="matrix(1 0 0 -1 0 800)">
   <path fill="currentColor"
d="M277 -12q-52 0 -93.5 18t-71 52.5t-45.5 84.5t-16 113t16 112.5t45.5 84t71 53t93.5 18.5q68 0 119 -33t71 -99h5q23 66 74.5 99t115.5 33q48 0 86.5 -17.5t65 -49.5t41 -76t14.5 -96v-18h-368v-32q0 -98 47 -149.5t123 -51.5q64 0 102.5 28t60.5 69l25 -15
q-10 -24 -27 -47t-41.5 -41t-56 -29t-71.5 -11q-68 0 -117 32t-75 99h-5q-25 -66 -73 -98.5t-116 -32.5zM277 25q40 0 70 14t50.5 38.5t30.5 59t10 76.5v86q0 42 -10 76.5t-30.5 59t-50.5 38.5t-70 14t-70 -14t-50.5 -38.5t-30.5 -59t-10 -76.5v-86q0 -42 10 -76.5t30.5 -59
t50.5 -38.5t70 -14zM501 301h307v6q0 39 -9 72t-27.5 57.5t-46 38t-63.5 13.5q-38 0 -68 -13.5t-50.5 -37.5t-31.5 -57t-11 -72v-7z" />
  </g>

</svg>
