<?xml version="1.0" standalone="no"?>
<!DOCTYPE svg PUBLIC "-//W3C//DTD SVG 1.1//EN" "http://www.w3.org/Graphics/SVG/1.1/DTD/svg11.dtd" >
<svg xmlns="http://www.w3.org/2000/svg" xmlns:xlink="http://www.w3.org/1999/xlink" version="1.1" viewBox="-10 0 476 1000">
  <g transform="matrix(1 0 0 -1 0 800)">
   <path fill="currentColor"
d="M239 -198q-44 0 -80.5 13t-62.5 36.5t-40.5 57t-14.5 74.5q0 44 15.5 79.5t43.5 61.5t67 42t86 20v132h42v-168q-87 -3 -139 -43.5t-52 -109.5v-24q0 -63 38.5 -98.5t104.5 -35.5q42 0 69.5 9t46.5 23v2q-11 4 -21.5 17t-10.5 31q0 20 12.5 34.5t34.5 14.5q23 0 36 -14
t13 -38q0 -22 -15 -43t-40.5 -37t-59.5 -26t-73 -10zM273 422q-23 0 -36 13.5t-13 33.5v5q0 20 13 33.5t36 13.5t36 -13.5t13 -33.5v-5q0 -20 -13 -33.5t-36 -13.5z" />
  </g>

</svg>
