<?xml version="1.0" standalone="no"?>
<!DOCTYPE svg PUBLIC "-//W3C//DTD SVG 1.1//EN" "http://www.w3.org/Graphics/SVG/1.1/DTD/svg11.dtd" >
<svg xmlns="http://www.w3.org/2000/svg" xmlns:xlink="http://www.w3.org/1999/xlink" version="1.1" viewBox="-10 0 649 1000">
  <g transform="matrix(1 0 0 -1 0 800)">
   <path fill="currentColor"
d="M46 35h78v442h-78v35h213v-35h-78v-213l-6 -150h2l281 336v27h-78v35h213v-35h-78v-442h78v-35h-213v35h78v213l6 150h-2l-281 -336v-27h78v-35h-213v35zM319 601q-36 0 -63 8.5t-45.5 22t-28 31t-9.5 35.5q0 21 11 31.5t29 10.5t28.5 -10t10.5 -29q0 -17 -9.5 -26
t-23.5 -13v-2q17 -14 44 -19.5t56 -5.5t56 5.5t44 19.5v2q-14 4 -23.5 13t-9.5 26q0 19 10.5 29t28.5 10t29 -10.5t11 -31.5q0 -18 -9.5 -35.5t-28 -31t-45.5 -22t-63 -8.5z" />
  </g>

</svg>
