<?xml version="1.0" standalone="no"?>
<!DOCTYPE svg PUBLIC "-//W3C//DTD SVG 1.1//EN" "http://www.w3.org/Graphics/SVG/1.1/DTD/svg11.dtd" >
<svg xmlns="http://www.w3.org/2000/svg" xmlns:xlink="http://www.w3.org/1999/xlink" version="1.1" viewBox="-10 0 649 1000">
  <g transform="matrix(1 0 0 -1 0 800)">
   <path fill="currentColor"
d="M46 35h78v442h-78v35h213v-35h-78v-213l-6 -150h2l281 336v27h-78v35h213v-35h-78v-442h78v-35h-213v35h78v213l6 150h-2l-281 -336v-27h78v-35h-213v35zM228 628q-19 0 -29 11.5t-10 27.5v2q0 16 10 27.5t29 11.5t29 -11.5t10 -27.5v-2q0 -16 -10 -27.5t-29 -11.5z
M410 628q-19 0 -29 11.5t-10 27.5v2q0 16 10 27.5t29 11.5t29 -11.5t10 -27.5v-2q0 -16 -10 -27.5t-29 -11.5z" />
  </g>

</svg>
