<?xml version="1.0" standalone="no"?>
<!DOCTYPE svg PUBLIC "-//W3C//DTD SVG 1.1//EN" "http://www.w3.org/Graphics/SVG/1.1/DTD/svg11.dtd" >
<svg xmlns="http://www.w3.org/2000/svg" xmlns:xlink="http://www.w3.org/1999/xlink" version="1.1" viewBox="-10 0 554 1000">
  <g transform="matrix(1 0 0 -1 0 800)">
   <path fill="currentColor"
d="M273 -12q-46 0 -82 14.5t-64 41.5q-37 36 -56.5 95.5t-19.5 145.5q0 79 5 136.5t15.5 99.5t26 71t36.5 50q13 14 29.5 23.5t38 16.5t50.5 12t67 9q45 5 71.5 8.5t43.5 6.5l4 42h31q5 -17 5 -37q0 -35 -16 -52q-5 -5 -13 -9t-23.5 -7.5t-41.5 -7t-67 -7.5
q-68 -6 -103.5 -14t-56.5 -31q-13 -15 -23.5 -33t-18 -43t-12.5 -59.5t-8 -80.5h4q25 67 71.5 97t111.5 30q102 0 158.5 -66t56.5 -190q0 -61 -15.5 -109.5t-44 -82.5t-69 -52t-91.5 -18zM272 25q78 0 117 50.5t39 133.5v76q0 83 -39 133.5t-117 50.5t-117 -50.5t-39 -133.5
v-76q0 -83 39 -133.5t117 -50.5z" />
  </g>

</svg>
