<?xml version="1.0" standalone="no"?>
<!DOCTYPE svg PUBLIC "-//W3C//DTD SVG 1.1//EN" "http://www.w3.org/Graphics/SVG/1.1/DTD/svg11.dtd" >
<svg xmlns="http://www.w3.org/2000/svg" xmlns:xlink="http://www.w3.org/1999/xlink" version="1.1" viewBox="-10 0 779 1000">
  <g transform="matrix(1 0 0 -1 0 800)">
   <path fill="currentColor"
d="M53 35h79v628h-79v35h218v-35h-79v-338l-7 -200h2l390 508v30h-79v35h218v-35h-79v-628h79v-35h-218v35h79v338l7 200h-2l-390 -508v-30h79v-35h-218v35zM385 776q-36 0 -63 8.5t-45.5 22t-28 31t-9.5 35.5q0 21 11 31.5t29 10.5t28.5 -10t10.5 -29q0 -17 -9.5 -26
t-23.5 -13v-2q17 -14 44 -19.5t56 -5.5t56 5.5t44 19.5v2q-14 4 -23.5 13t-9.5 26q0 19 10.5 29t28.5 10t29 -10.5t11 -31.5q0 -18 -9.5 -35.5t-28 -31t-45.5 -22t-63 -8.5z" />
  </g>

</svg>
