<?xml version="1.0" standalone="no"?>
<!DOCTYPE svg PUBLIC "-//W3C//DTD SVG 1.1//EN" "http://www.w3.org/Graphics/SVG/1.1/DTD/svg11.dtd" >
<svg xmlns="http://www.w3.org/2000/svg" xmlns:xlink="http://www.w3.org/1999/xlink" version="1.1" viewBox="-10 0 792 1000">
  <g transform="matrix(1 0 0 -1 0 800)">
   <path fill="currentColor"
d="M12 35h60l128 194q9 15 19 22.5t22 9.5l-67 145q-14 31 -26.5 47.5t-22.5 23.5l-2 -1q2 -5 2 -7.5v-4.5q0 -19 -10.5 -30.5t-30.5 -11.5t-32 13t-12 35q0 23 14.5 37.5t42.5 14.5q30 0 56.5 -21t53.5 -80l67 -145h88v201h-78v35h214v-35h-78v-201h88l67 145
q27 59 53.5 80t56.5 21q28 0 42.5 -14.5t14.5 -37.5q0 -22 -12 -35t-32 -13t-30.5 11.5t-10.5 30.5v4.5t2 7.5l-2 1q-10 -7 -22.5 -23.5t-26.5 -47.5l-67 -145q22 -4 41 -32l128 -194h60v-35h-104l-158 241h-88v-206h78v-35h-214v35h78v206h-88l-158 -241h-104v35zM299 628
q-19 0 -29 11.5t-10 27.5v2q0 16 10 27.5t29 11.5t29 -11.5t10 -27.5v-2q0 -16 -10 -27.5t-29 -11.5zM481 628q-19 0 -29 11.5t-10 27.5v2q0 16 10 27.5t29 11.5t29 -11.5t10 -27.5v-2q0 -16 -10 -27.5t-29 -11.5z" />
  </g>

</svg>
