<?xml version="1.0" standalone="no"?>
<!DOCTYPE svg PUBLIC "-//W3C//DTD SVG 1.1//EN" "http://www.w3.org/Graphics/SVG/1.1/DTD/svg11.dtd" >
<svg xmlns="http://www.w3.org/2000/svg" xmlns:xlink="http://www.w3.org/1999/xlink" version="1.1" viewBox="-10 0 695 1000">
  <g transform="matrix(1 0 0 -1 0 800)">
   <path fill="currentColor"
d="M249 342h-56v-307h79v-35h-219v35h79v628h-79v35h219v-35h-79v-285h56v164h40v-164h43l105 212q17 34 32.5 57t31.5 36.5t32.5 19t35.5 5.5q30 0 46 -16t16 -41q0 -23 -12.5 -37t-34.5 -14t-34.5 13t-12.5 30q0 9 4 15l-3 1q-20 -16 -34.5 -37t-29.5 -51l-102 -208
q11 -3 21 -11t22 -26l185 -291h71v-35h-122l-217 342h-43v-165h-40v165z" />
  </g>

</svg>
