<?xml version="1.0" standalone="no"?>
<!DOCTYPE svg PUBLIC "-//W3C//DTD SVG 1.1//EN" "http://www.w3.org/Graphics/SVG/1.1/DTD/svg11.dtd" >
<svg xmlns="http://www.w3.org/2000/svg" xmlns:xlink="http://www.w3.org/1999/xlink" version="1.1" viewBox="-10 0 735 1000">
  <g transform="matrix(1 0 0 -1 0 800)">
   <path fill="currentColor"
d="M367 -12q-67 0 -113.5 15t-76 48.5t-42.5 87t-13 130.5v394h-79v35h219v-35h-79v-404q0 -60 9.5 -103.5t31 -71t57.5 -41t90 -13.5q53 0 89.5 13.5t59 41t32 71t9.5 103.5v404h-79v35h158v112h54v-92q0 -22 -13 -35t-39 -13h-39v-393q0 -77 -12 -131.5t-39.5 -89.5
t-73 -51.5t-111.5 -16.5zM360 767l63 115h-130v45h118q26 0 37.5 -11t11.5 -27q0 -14 -10 -33.5t-31 -49.5l-36 -50z" />
  </g>

</svg>
