<?xml version="1.0" standalone="no"?>
<!DOCTYPE svg PUBLIC "-//W3C//DTD SVG 1.1//EN" "http://www.w3.org/Graphics/SVG/1.1/DTD/svg11.dtd" >
<svg xmlns="http://www.w3.org/2000/svg" xmlns:xlink="http://www.w3.org/1999/xlink" version="1.1" viewBox="-10 0 542 1000">
  <g transform="matrix(1 0 0 -1 0 800)">
   <path fill="currentColor"
d="M207 -12q-73 0 -114.5 37.5t-41.5 100.5q0 37 12 64.5t39 46.5t69.5 28.5t103.5 9.5h89v83q0 64 -33 97.5t-96 33.5q-36 0 -62 -6t-40 -16v-2q11 -5 19.5 -15.5t8.5 -27.5q0 -20 -12 -31.5t-32 -11.5t-32 11.5t-12 33.5q0 19 12.5 37t36 32t56.5 22.5t74 8.5
q79 0 124.5 -41t45.5 -117v-334h77v-26q-10 -7 -28.5 -11.5t-37.5 -4.5q-66 0 -66 66v26h-4q-7 -17 -18.5 -34t-30.5 -30.5t-45 -21.5t-62 -8zM228 28q58 0 97 31t39 84v102h-81q-48 0 -80.5 -7t-52 -20.5t-28 -33t-8.5 -44.5v-23q0 -41 30 -65t84 -24zM317 773
q-18 0 -35.5 7.5t-38.5 19.5q-20 11 -38 19t-32 8q-17 0 -29.5 -7.5t-29.5 -24.5l-15 16q22 27 41.5 41t46.5 14q18 0 35.5 -7.5t38.5 -19.5q20 -11 38 -19t32 -8q17 0 29.5 7.5t29.5 24.5l15 -16q-22 -27 -41.5 -41t-46.5 -14zM106 598l125 142h42l125 -142l-19 -14
l-127 110l-127 -110z" />
  </g>

</svg>
