<?xml version="1.0" standalone="no"?>
<!DOCTYPE svg PUBLIC "-//W3C//DTD SVG 1.1//EN" "http://www.w3.org/Graphics/SVG/1.1/DTD/svg11.dtd" >
<svg xmlns="http://www.w3.org/2000/svg" xmlns:xlink="http://www.w3.org/1999/xlink" version="1.1" viewBox="-10 0 564 1000">
  <g transform="matrix(1 0 0 -1 0 800)">
   <path fill="currentColor"
d="M277 -12q-52 0 -93.5 18t-71 52.5t-45.5 84.5t-16 113t16 112.5t45.5 84t71 53t93.5 18.5q42 0 77 -12h94v111h54v-90q0 -22 -13.5 -35t-39.5 -13h-42q46 -33 71 -91t25 -138q0 -63 -16 -113t-45.5 -84.5t-71 -52.5t-93.5 -18zM277 25q40 0 70 14t50.5 38.5t30.5 59
t10 76.5v86q0 42 -10 76.5t-30.5 59t-50.5 38.5t-70 14t-70 -14t-50.5 -38.5t-30.5 -59t-10 -76.5v-86q0 -42 10 -76.5t30.5 -59t50.5 -38.5t70 -14zM332 623q-17 0 -33 8t-36 20q-19 11 -34.5 19t-29.5 8q-17 0 -29 -7.5t-30 -26.5l-15 17q22 26 41.5 41.5t45.5 15.5
q17 0 33 -8t36 -20q19 -11 34.5 -19t29.5 -8q17 0 29 7.5t30 26.5l15 -17q-22 -26 -41.5 -41.5t-45.5 -15.5z" />
  </g>

</svg>
