<?xml version="1.0" standalone="no"?>
<!DOCTYPE svg PUBLIC "-//W3C//DTD SVG 1.1//EN" "http://www.w3.org/Graphics/SVG/1.1/DTD/svg11.dtd" >
<svg xmlns="http://www.w3.org/2000/svg" xmlns:xlink="http://www.w3.org/1999/xlink" version="1.1" viewBox="-10 0 925 1000">
  <g transform="matrix(1 0 0 -1 0 800)">
   <path fill="currentColor"
d="M58 359h116v298l-121 -49l-12 25l143 65h38v-339h104v-29h-268v29zM690 698h46l-469 -698h-46zM650 17q78 17 117 60t47 115l-3 1q-12 -25 -36 -40t-62 -15q-54 0 -85.5 31.5t-31.5 84.5q0 55 36 87.5t98 32.5q63 0 98.5 -35.5t35.5 -104.5q0 -55 -15.5 -97t-42.5 -71.5
t-64.5 -47t-81.5 -24.5zM730 169q39 0 60.5 22t21.5 60v11q0 38 -21.5 60t-60.5 22t-60.5 -22t-21.5 -60v-11q0 -38 21.5 -60t60.5 -22z" />
  </g>

</svg>
