<?xml version="1.0" standalone="no"?>
<!DOCTYPE svg PUBLIC "-//W3C//DTD SVG 1.1//EN" "http://www.w3.org/Graphics/SVG/1.1/DTD/svg11.dtd" >
<svg xmlns="http://www.w3.org/2000/svg" xmlns:xlink="http://www.w3.org/1999/xlink" version="1.1" viewBox="-10 0 464 1000">
  <g transform="matrix(1 0 0 -1 0 800)">
   <path fill="currentColor"
d="M387 743l-5 -49l-81 -12l-81 -622l83 -14l-3 -46h-299l6 46l73 14l81 622l-70 12l5 49h291zM122 942q32 24 74 24q26 0 44 -10.5t38 -30.5q17 -16 28.5 -23.5t26.5 -7.5q25 0 43 14t33 35l35 -46q-13 -33 -45.5 -59.5t-71.5 -26.5q-29 0 -47 10t-40 30q-16 16 -29.5 24
t-32.5 8q-21 0 -36 -10.5t-34 -31.5l-31 43q13 34 45 58z" />
  </g>

</svg>
