<?xml version="1.0" standalone="no"?>
<!DOCTYPE svg PUBLIC "-//W3C//DTD SVG 1.1//EN" "http://www.w3.org/Graphics/SVG/1.1/DTD/svg11.dtd" >
<svg xmlns="http://www.w3.org/2000/svg" xmlns:xlink="http://www.w3.org/1999/xlink" version="1.1" viewBox="-13 0 760 1000">
  <g transform="matrix(1 0 0 -1 0 800)">
   <path fill="currentColor"
d="M495 308q7 -14 22.5 -44t24.5 -46l12 -22q37 -68 55 -97t32 -37l60 -15l-5 -47h-183q-19 2 -36 30t-47 94q-1 1 -36 83q-36 86 -59 133l-97 -100l-23 -180l82 -14l-5 -46h-295l6 46l71 14l81 622l-69 12l5 49h293l-6 -49l-83 -12l-45 -343l318 343l-67 13l5 48h231
l-6 -49l-61 -11l-242 -249q19 -31 67 -126zM292 -241q12 9 19.5 30.5t6.5 46.5q0 18 -8 33.5t-21 18.5v36l79 39q29 -13 43.5 -42t14.5 -64q0 -32 -13 -60t-33 -46t-39 -23l-49 20v11z" />
  </g>

</svg>
