<?xml version="1.0" standalone="no"?>
<!DOCTYPE svg PUBLIC "-//W3C//DTD SVG 1.1//EN" "http://www.w3.org/Graphics/SVG/1.1/DTD/svg11.dtd" >
<svg xmlns="http://www.w3.org/2000/svg" xmlns:xlink="http://www.w3.org/1999/xlink" version="1.1" viewBox="-10 0 769 1000">
  <g transform="matrix(1 0 0 -1 0 800)">
   <path fill="currentColor"
d="M564 100q-50 -73 -135 -97q-32 -29 -51.5 -57t-19.5 -49t9 -31t24 -10q35 0 75 35l16 -49q-27 -29 -66.5 -47.5t-87.5 -18.5q-43 0 -64.5 21.5t-21.5 56.5q0 13 4.5 28.5t12.5 26.5q27 44 79 81h-13q-125 0 -186.5 59.5t-62.5 159.5q0 52 4 81l51 393l-70 11l6 49h299
l-5 -48l-90 -13l-50 -381q-7 -65 -7 -96q1 -75 35.5 -117t100.5 -42q88 0 134 64t63 196l51 376l-70 13l4 48h217l-6 -48l-63 -12l-49 -377q-17 -133 -67 -206z" />
  </g>

</svg>
