<?xml version="1.0" standalone="no"?>
<!DOCTYPE svg PUBLIC "-//W3C//DTD SVG 1.1//EN" "http://www.w3.org/Graphics/SVG/1.1/DTD/svg11.dtd" >
<svg xmlns="http://www.w3.org/2000/svg" xmlns:xlink="http://www.w3.org/1999/xlink" version="1.1" viewBox="-10 0 854 1000">
  <g transform="matrix(1 0 0 -1 0 800)">
   <path fill="currentColor"
d="M169 6.5q-63 21.5 -99.5 63.5t-36.5 100q0 77 48.5 123.5t137.5 85.5q-18 40 -29.5 84t-11.5 80q0 66 32 114.5t88 74t128 25.5q96 0 144.5 -41t48.5 -103q0 -55 -31 -95.5t-76 -67.5t-121 -62l-20 -9q84 -154 187 -247q39 48 39 124q0 15 -5 50h-20q-22 0 -42 -5
t-30 -13v92q26 23 73 23q24 0 51 -5q45 -5 61 -5q41 0 58.5 16t24.5 62h47q5 -22 5 -53q0 -54 -23 -88.5t-67 -34.5l-23 1l1 -20q0 -112 -92 -191q17 -11 39 -17q42 -14 81 -10l-1 -52q-26 -9 -52 -12.5t-70 -3.5q-68 0 -117 29q-90 -34 -184 -34q-80 0 -143 21.5z
M451 504.5q38 39.5 38 100.5q0 41 -15.5 70t-52.5 29q-56 0 -82.5 -37t-26.5 -99q0 -71 31 -137q70 34 108 73.5zM439 61q-57 53 -95 108t-92 146q-38 -28 -59 -59t-21 -71q0 -66 43 -102.5t116 -36.5q63 0 108 15z" />
  </g>

</svg>
