<?xml version="1.0" standalone="no"?>
<!DOCTYPE svg PUBLIC "-//W3C//DTD SVG 1.1//EN" "http://www.w3.org/Graphics/SVG/1.1/DTD/svg11.dtd" >
<svg xmlns="http://www.w3.org/2000/svg" xmlns:xlink="http://www.w3.org/1999/xlink" version="1.1" viewBox="-10 0 405 1000">
  <g transform="matrix(1 0 0 -1 0 800)">
   <path fill="currentColor"
d="M38.5 684q-18.5 21 -18.5 48q0 37 21 61.5t55 24.5q29 0 46.5 -20t17.5 -48q-1 -37 -21.5 -62t-57.5 -25q-24 0 -42.5 21zM254.5 684q-18.5 21 -18.5 48q0 37 20.5 61.5t55.5 24.5q29 0 46.5 -20t17.5 -48q-1 -37 -21.5 -62t-57.5 -25q-24 0 -42.5 21z" />
  </g>

</svg>
