<?xml version="1.0" standalone="no"?>
<!DOCTYPE svg PUBLIC "-//W3C//DTD SVG 1.1//EN" "http://www.w3.org/Graphics/SVG/1.1/DTD/svg11.dtd" >
<svg xmlns="http://www.w3.org/2000/svg" xmlns:xlink="http://www.w3.org/1999/xlink" version="1.1" viewBox="-10 0 679 1000">
  <g transform="matrix(1 0 0 -1 0 800)">
   <path fill="currentColor"
d="M321.5 526.5q-17.5 19.5 -17.5 48.5q0 38 26.5 63t58.5 25q31 0 47 -19.5t16 -47.5q0 -42 -26.5 -65.5t-61.5 -23.5q-25 0 -42.5 19.5zM579 420l-8 -85h-447l8 85h447zM279 222.5q26 25.5 58 25.5q31 0 48 -20.5t15 -50.5q-1 -40 -27.5 -62.5t-60.5 -22.5q-25 0 -42 18.5
t-17 47.5q0 39 26 64.5z" />
  </g>

</svg>
