<?xml version="1.0" standalone="no"?>
<!DOCTYPE svg PUBLIC "-//W3C//DTD SVG 1.1//EN" "http://www.w3.org/Graphics/SVG/1.1/DTD/svg11.dtd" >
<svg xmlns="http://www.w3.org/2000/svg" xmlns:xlink="http://www.w3.org/1999/xlink" version="1.1" viewBox="-127 0 1125 1000">
  <g transform="matrix(1 0 0 -1 0 800)">
   <path fill="currentColor"
d="M180.5 711q29.5 48 75.5 76t103 28q53 0 84 -12l-28 -80q-29 22 -67 22q-37 0 -53.5 -28t-24.5 -86l-10 -73h110l-13 -75h-107l-55 -444q-16 -123 -72.5 -206t-150.5 -84q-23 -1 -48.5 2t-40.5 7l26 84q13 -6 37.5 -13.5t39.5 -7.5q27 0 42.5 26.5t22.5 79.5l69 556h-64
l9 44l68 29l8 47q10 60 39.5 108zM518.5 711q29.5 48 75.5 76t103 28q53 0 84 -12l-28 -80q-29 22 -67 22q-37 0 -53.5 -28t-24.5 -86l-10 -73h110l-13 -75h-107l-55 -444q-16 -123 -72.5 -206t-150.5 -84q-23 -1 -48.5 2t-40.5 7l26 84q13 -6 37.5 -13.5t39.5 -7.5
q27 0 42.5 26.5t22.5 79.5l69 556h-64l9 44l68 29l8 47q10 60 39.5 108zM876 88q0 -24 17 -24q9 0 20 6t28 20l13 -31q-17 -23 -50.5 -46t-81.5 -23q-39 0 -61 15.5t-22 42.5l1 10q6 52 41 302l16 116l-59 28l7 39l172 24l24 -11l-64 -456q-1 -5 -1 -12zM841.5 683.5
q-19.5 20.5 -19.5 47.5q0 37 24.5 62t62.5 25q31 0 49 -19.5t18 -46.5q0 -38 -23 -63.5t-65 -25.5q-27 0 -46.5 20.5z" />
  </g>

</svg>
