<?xml version="1.0" standalone="no"?>
<!DOCTYPE svg PUBLIC "-//W3C//DTD SVG 1.1//EN" "http://www.w3.org/Graphics/SVG/1.1/DTD/svg11.dtd" >
<svg xmlns="http://www.w3.org/2000/svg" xmlns:xlink="http://www.w3.org/1999/xlink" version="1.1" viewBox="-10 0 594 1000">
  <g transform="matrix(1 0 0 -1 0 800)">
   <path fill="currentColor"
d="M365 -201.5q-83 -49.5 -190 -49.5q-33 0 -70.5 6.5t-52.5 13.5l23 94q19 -12 58 -27t75 -15q58 0 85 23t35 87l15 119q-27 -26 -63 -43t-78 -17q-84 0 -126.5 57.5t-42.5 150.5q0 92 38.5 177t113 139t176.5 54q28 0 60 -6.5t56 -15.5l71 22l-85 -606
q-15 -114 -98 -163.5zM349 506q-60 0 -100 -46.5t-58.5 -116t-18.5 -139.5q0 -65 21.5 -101.5t59.5 -36.5q28 0 54.5 16.5t45.5 39.5l54 372q-21 12 -58 12zM308.5 655.5q-17.5 16.5 -17.5 48.5q0 10 1 16q5 34 24.5 66t43 53t36.5 26h2l47 -15l1 -8q-11 -4 -21 -23.5
t-13 -39.5q-2 -13 2 -20.5t12 -14.5q17 -15 17 -36q0 -36 -26 -52.5t-56 -16.5h-4q-31 0 -48.5 16.5z" />
  </g>

</svg>
