<?xml version="1.0" standalone="no"?>
<!DOCTYPE svg PUBLIC "-//W3C//DTD SVG 1.1//EN" "http://www.w3.org/Graphics/SVG/1.1/DTD/svg11.dtd" >
<svg xmlns="http://www.w3.org/2000/svg" xmlns:xlink="http://www.w3.org/1999/xlink" version="1.1" viewBox="-10 0 594 1000">
  <g transform="matrix(1 0 0 -1 0 800)">
   <path fill="currentColor"
d="M365 -201.5q-83 -49.5 -190 -49.5q-33 0 -70.5 6.5t-52.5 13.5l23 94q19 -12 58 -27t75 -15q58 0 85 23t35 87l15 119q-27 -26 -63 -43t-78 -17q-84 0 -126.5 57.5t-42.5 150.5q0 92 38.5 177t113 139t176.5 54q28 0 60 -6.5t56 -15.5l71 22l-85 -606
q-15 -114 -98 -163.5zM349 506q-60 0 -100 -46.5t-58.5 -116t-18.5 -139.5q0 -65 21.5 -101.5t59.5 -36.5q28 0 54.5 16.5t45.5 39.5l54 372q-21 12 -58 12zM309.5 678q-20.5 21 -20.5 50q0 38 23.5 62.5t61.5 24.5q31 0 51 -19.5t20 -46.5q0 -42 -22.5 -67t-65.5 -25
q-27 0 -47.5 21z" />
  </g>

</svg>
