<?xml version="1.0" standalone="no"?>
<!DOCTYPE svg PUBLIC "-//W3C//DTD SVG 1.1//EN" "http://www.w3.org/Graphics/SVG/1.1/DTD/svg11.dtd" >
<svg xmlns="http://www.w3.org/2000/svg" xmlns:xlink="http://www.w3.org/1999/xlink" version="1.1" viewBox="-278 0 278 1000">
  <g transform="matrix(1 0 0 -1 0 800)">
   <path fill="currentColor"
d="M-260 639.5q-5 13.5 -4 24.5q2 11 9.5 18t23.5 18q15 9 24.5 17t13.5 20v4q2 17 -9 28t-36 12q-26 0 -30 -2l12 81q3 2 16.5 4t24.5 2q58 0 91 -22t33 -66q0 -11 -3 -25q-4 -24 -20.5 -39.5t-44.5 -33.5l-18 -12q-10 -8 -15 -17.5t-4 -26.5l-53 -6q-6 8 -11 21.5z" />
  </g>

</svg>
