<?xml version="1.0" standalone="no"?>
<!DOCTYPE svg PUBLIC "-//W3C//DTD SVG 1.1//EN" "http://www.w3.org/Graphics/SVG/1.1/DTD/svg11.dtd" >
<svg xmlns="http://www.w3.org/2000/svg" xmlns:xlink="http://www.w3.org/1999/xlink" version="1.1" viewBox="-10 0 393 1000">
  <g transform="matrix(1 0 0 -1 0 800)">
   <path fill="currentColor"
d="M200 88q0 -24 17 -24q9 0 20 6t28 20l13 -31q-17 -23 -50.5 -46t-81.5 -23q-39 0 -61 15.5t-22 42.5l1 10q6 52 41 302l16 116l-59 28l7 39l172 24l24 -11l-64 -456q-1 -5 -1 -12zM96 684q-39 44 -39 107q0 11 2 27h73l1 -20q2 -28 21.5 -48t57.5 -20q49 0 67 24.5
t22 63.5h72v-16q-2 -40 -21 -77.5t-56.5 -61t-90.5 -23.5q-70 0 -109 44z" />
  </g>

</svg>
