<?xml version="1.0" standalone="no"?>
<!DOCTYPE svg PUBLIC "-//W3C//DTD SVG 1.1//EN" "http://www.w3.org/Graphics/SVG/1.1/DTD/svg11.dtd" >
<svg xmlns="http://www.w3.org/2000/svg" xmlns:xlink="http://www.w3.org/1999/xlink" version="1.1" viewBox="-10 0 1107 1000">
  <g transform="matrix(1 0 0 -1 0 800)">
   <path fill="currentColor"
d="M126 409q34 54 88.5 85.5t112.5 31.5q76 0 129 -36t112 -113q33 45 62 75.5t69.5 52t90.5 21.5q63 0 112 -28t76.5 -76.5t27.5 -105.5q0 -68 -29.5 -121.5t-83 -84t-122.5 -30.5q-75 0 -127.5 38t-109.5 112q-32 -46 -60.5 -77t-69 -52t-93.5 -21q-61 0 -111.5 28.5
t-79 77t-28.5 104.5q0 65 34 119zM498 277l-12 19q-26 43 -48.5 72.5t-55 51t-73.5 21.5q-29 0 -52.5 -19t-37 -49t-13.5 -62q0 -57 36 -99t100 -42q80 0 156 107zM604 332l13 -19q31 -46 55.5 -76t59 -52.5t76.5 -22.5t66 37t24 94q0 60 -34 102.5t-102 42.5
q-78 0 -158 -106z" />
  </g>

</svg>
