<?xml version="1.0" standalone="no"?>
<!DOCTYPE svg PUBLIC "-//W3C//DTD SVG 1.1//EN" "http://www.w3.org/Graphics/SVG/1.1/DTD/svg11.dtd" >
<svg xmlns="http://www.w3.org/2000/svg" xmlns:xlink="http://www.w3.org/1999/xlink" version="1.1" viewBox="-10 0 880 1000">
  <g transform="matrix(1 0 0 -1 0 800)">
   <path fill="currentColor"
d="M725 24.5q-58 -34.5 -136 -34.5q-107 0 -161 73q-38 -35 -85.5 -54t-101.5 -19q-102 0 -154.5 61.5t-52.5 176.5q0 91 37 169t105 124.5t155 46.5q114 0 165 -80q39 38 88.5 59t104.5 21q77 0 115 -35t38 -92q0 -72 -52 -120t-125.5 -71.5t-138.5 -25.5q-2 -72 24 -114.5
t77 -42.5q88 0 156 77l27 -44q-27 -41 -85 -75.5zM566.5 436q-33.5 -71 -39.5 -158q39 2 82 21t72.5 53t29.5 79q0 76 -52 76q-59 0 -92.5 -71zM237.5 464.5q-30.5 -41.5 -45.5 -105.5t-15 -130q0 -91 19.5 -136.5t64.5 -45.5t76 43.5t46 115.5l-1 15q0 38 12 86
q0 95 -17.5 147t-63.5 52q-45 0 -75.5 -41.5z" />
  </g>

</svg>
