<?xml version="1.0" standalone="no"?>
<!DOCTYPE svg PUBLIC "-//W3C//DTD SVG 1.1//EN" "http://www.w3.org/Graphics/SVG/1.1/DTD/svg11.dtd" >
<svg xmlns="http://www.w3.org/2000/svg" xmlns:xlink="http://www.w3.org/1999/xlink" version="1.1" viewBox="-10 0 1335 1000">
  <g transform="matrix(1 0 0 -1 0 800)">
   <path fill="currentColor"
d="M741 747l-463 -747h-92l463 747h92zM123.5 404.5q-38.5 43.5 -38.5 110.5q0 52 27 101t75 79.5t106 30.5q73 0 110 -40.5t37 -106.5q0 -54 -26.5 -104.5t-74.5 -82t-108 -31.5q-69 0 -107.5 43.5zM296 436.5q22 26.5 33.5 65.5t11.5 73q0 48 -15 75t-46 27t-53.5 -25.5
t-34 -63t-11.5 -72.5q0 -49 15 -77.5t47 -28.5q31 0 53 26.5zM527 284.5q27 48.5 75 79t106 30.5q73 0 111 -40.5t38 -106.5q0 -54 -27 -104.5t-75.5 -82t-109.5 -31.5q-68 0 -106.5 44t-38.5 111q0 52 27 100.5zM915 284.5q27 48.5 74.5 79t105.5 30.5q74 0 111.5 -40.5
t37.5 -106.5q0 -54 -27 -104.5t-75 -82t-109 -31.5q-68 0 -106.5 44t-38.5 111q0 52 27 100.5zM611 107.5q15 -28.5 47 -28.5q30 0 52.5 27t34 65.5t11.5 72.5q0 47 -15 74t-46 27q-30 0 -52.5 -25.5t-34.5 -63t-12 -71.5q0 -49 15 -77.5zM999.5 107.5
q14.5 -28.5 46.5 -28.5q30 0 52 26.5t33.5 65.5t11.5 73q0 48 -15 74.5t-45 26.5q-31 0 -53 -25.5t-33.5 -63t-11.5 -71.5q0 -49 14.5 -77.5z" />
  </g>

</svg>
