<?xml version="1.0" standalone="no"?>
<!DOCTYPE svg PUBLIC "-//W3C//DTD SVG 1.1//EN" "http://www.w3.org/Graphics/SVG/1.1/DTD/svg11.dtd" >
<svg xmlns="http://www.w3.org/2000/svg" xmlns:xlink="http://www.w3.org/1999/xlink" version="1.1" viewBox="-10 0 437 1000">
  <g transform="matrix(1 0 0 -1 0 800)">
   <path fill="currentColor"
d="M46.5 -229q-28.5 4 -36.5 9l14 70q16 -8 42 -8q90 0 90 105q0 26 -3 43q-44 1 -88 11t-58 22l20 85q21 -18 57 -34t75 -16q37 0 63.5 17t26.5 53q0 31 -23 56t-69 57q-42 29 -70.5 68.5t-28.5 95.5q0 48 27.5 85t76 57.5t111.5 20.5q37 0 75 -6t51 -13l-19 -89
q-12 14 -39.5 29t-63.5 15q-40 0 -64.5 -17.5t-24.5 -51.5q0 -30 20.5 -53.5t66.5 -56.5q51 -38 78 -73.5t27 -90.5q0 -67 -44 -109t-114 -56q6 -20 10.5 -47t4.5 -49q0 -63 -38.5 -98t-102.5 -35q-21 0 -49.5 4z" />
  </g>

</svg>
