<?xml version="1.0" standalone="no"?>
<!DOCTYPE svg PUBLIC "-//W3C//DTD SVG 1.1//EN" "http://www.w3.org/Graphics/SVG/1.1/DTD/svg11.dtd" >
<svg xmlns="http://www.w3.org/2000/svg" xmlns:xlink="http://www.w3.org/1999/xlink" version="1.1" viewBox="-10 0 1184 1000">
  <g transform="matrix(1 0 0 -1 0 800)">
   <path fill="currentColor"
d="M159.5 256.5q-37.5 6.5 -67.5 21.5l6 59q24 -10 61 -16t66 -6q65 0 101 26t36 70q0 29 -22 50t-57 21h-8l-63 -20l-11 57q35 8 66 24q75 37 76 88q2 24 -13.5 37.5t-53.5 13.5q-60 0 -119 -45l-25 49q31 28 82 46t107 18q63 0 100.5 -25.5t37.5 -66.5q0 -42 -27.5 -76.5
t-99.5 -60.5q6 1 19 1q57 0 93 -30.5t36 -78.5q0 -46 -30.5 -83t-87 -58.5t-131.5 -21.5q-34 0 -71.5 6.5zM829 747l-373 -747h-85l373 747h85zM759.5 24.5q-50.5 32.5 -50.5 94.5q1 49 34.5 87.5t80.5 57.5q-55 46 -55 108q0 71 54.5 113.5t136.5 42.5q43 0 76.5 -15.5
t52.5 -41.5t19 -56q0 -41 -30.5 -76t-75.5 -57q90 -52 90 -127q0 -51 -28.5 -88t-76.5 -56t-105 -19q-72 0 -122.5 32.5zM887.5 348q24.5 -20 72.5 -43q29 21 47.5 48.5t19.5 56.5q0 30 -21 48t-53 18q-40 0 -66.5 -22.5t-26.5 -57.5q3 -28 27.5 -48zM958.5 175
q-24.5 21 -73.5 49l-24 14q-26 -18 -42.5 -46.5t-15.5 -58.5q0 -39 22 -62.5t62 -23.5q36 0 66 23t30 55q0 29 -24.5 50z" />
  </g>

</svg>
