<?xml version="1.0" standalone="no"?>
<!DOCTYPE svg PUBLIC "-//W3C//DTD SVG 1.1//EN" "http://www.w3.org/Graphics/SVG/1.1/DTD/svg11.dtd" >
<svg xmlns="http://www.w3.org/2000/svg" xmlns:xlink="http://www.w3.org/1999/xlink" version="1.1" viewBox="-10 0 499 1000">
  <g transform="matrix(1 0 0 -1 0 800)">
   <path fill="currentColor"
d="M110.5 1q-37.5 7 -68.5 22l6 58q25 -9 61 -15t66 -6q65 0 100.5 25t37.5 68q1 30 -21.5 51.5t-58.5 21.5h-8l-62 -20l-12 57q35 7 67 24q76 38 76 92q0 48 -67 48q-59 0 -119 -45l-26 49q32 27 82.5 45t106.5 18q64 0 101 -25.5t37 -66.5q0 -42 -27.5 -76.5t-98.5 -60.5
q6 1 19 1q56 0 92 -30t36 -78q0 -46 -30 -83.5t-86.5 -59t-132.5 -21.5q-33 0 -70.5 7z" />
  </g>

</svg>
