<?xml version="1.0" standalone="no"?>
<!DOCTYPE svg PUBLIC "-//W3C//DTD SVG 1.1//EN" "http://www.w3.org/Graphics/SVG/1.1/DTD/svg11.dtd" >
<svg xmlns="http://www.w3.org/2000/svg" xmlns:xlink="http://www.w3.org/1999/xlink" version="1.1" viewBox="-10 0 955 1000">
  <g transform="matrix(1 0 0 -1 0 800)">
   <path fill="currentColor"
d="M325 534q50 34 105 34q56 0 87.5 -29.5t36.5 -94.5q35 58 85.5 91t109.5 33q125 0 125 -147q0 -32 -20 -148l-4 -26l-5 -26q-17 -93 -18 -128q0 -29 17 -29q9 0 19.5 5.5t28.5 20.5l13 -31q-9 -12 -26 -28t-42 -27q-21 -11 -34.5 -23t-13.5 -29q0 -11 9 -33
q4 -11 8 -24.5t4 -27.5q0 -24 -20.5 -50.5t-51 -46t-59.5 -26.5l-31 35q21 8 39 29t18 43q0 11 -6 29q-7 26 -7 42q0 42 55 71q-58 8 -58 67q0 19 6 59t13 80q2 8 4 20q12 68 17.5 107t5.5 76q0 46 -10.5 63t-36.5 17q-32 0 -69.5 -31t-64.5 -79q-4 -59 -13 -125l-31 -247
h-135l29 218q18 124 18 188q-1 46 -12.5 61t-40.5 15q-32 0 -72.5 -35t-67.5 -84l-50 -363h-130l64 476l-51 27l8 41l156 24l23 -11l-10 -111q36 54 86 88z" />
  </g>

</svg>
