<?xml version="1.0" standalone="no"?>
<!DOCTYPE svg PUBLIC "-//W3C//DTD SVG 1.1//EN" "http://www.w3.org/Graphics/SVG/1.1/DTD/svg11.dtd" >
<svg xmlns="http://www.w3.org/2000/svg" xmlns:xlink="http://www.w3.org/1999/xlink" version="1.1" viewBox="-10 0 1027 1000">
  <g transform="matrix(1 0 0 -1 0 800)">
   <path fill="currentColor"
d="M928 -153l-8 -27h-72l3 47q6 70 6 107q0 19 -1 26h-735l5 46l69 14l82 626h-115l-52 -170h-75l42 227h549l-18 -227h-78l-8 170h-107l-82 -631h354l81 626l-84 13l5 49h302l-5 -49l-79 -12l-80 -621h153q-15 -90 -52 -214z" />
  </g>

</svg>
