<?xml version="1.0" standalone="no"?>
<!DOCTYPE svg PUBLIC "-//W3C//DTD SVG 1.1//EN" "http://www.w3.org/Graphics/SVG/1.1/DTD/svg11.dtd" >
<svg xmlns="http://www.w3.org/2000/svg" xmlns:xlink="http://www.w3.org/1999/xlink" version="1.1" viewBox="-10 0 533 1000">
  <g transform="matrix(1 0 0 -1 0 800)">
   <path fill="currentColor"
d="M145.5 533.5q58.5 35.5 136.5 35.5q106 0 156.5 -64.5t50.5 -158.5q0 -99 -41 -181t-111 -129.5t-155 -47.5q-76 0 -114.5 35t-38.5 91q0 72 52 121t125.5 72.5t138.5 25.5q2 73 -24 116.5t-78 43.5q-84 0 -155 -81l-27 46q26 40 84.5 75.5zM262 258q-43 -19 -72.5 -53.5
t-29.5 -79.5q0 -75 52 -75q58 0 92 71t41 158q-40 -2 -83 -21zM143.5 676.5q-18.5 20.5 -18.5 47.5q0 37 21 62t55 25q29 0 46.5 -20t17.5 -46q0 -39 -20 -64t-59 -25q-24 0 -42.5 20.5zM359.5 676.5q-18.5 20.5 -18.5 47.5q0 37 21 62t55 25q28 0 46 -20t18 -46
q0 -39 -20.5 -64t-58.5 -25q-24 0 -42.5 20.5z" />
  </g>

</svg>
