<?xml version="1.0" standalone="no"?>
<!DOCTYPE svg PUBLIC "-//W3C//DTD SVG 1.1//EN" "http://www.w3.org/Graphics/SVG/1.1/DTD/svg11.dtd" >
<svg xmlns="http://www.w3.org/2000/svg" xmlns:xlink="http://www.w3.org/1999/xlink" version="1.1" viewBox="-10 0 519 1000">
  <g transform="matrix(1 0 0 -1 0 800)">
   <path fill="currentColor"
d="M149.5 564q60.5 9 98.5 9q114 0 176 -60.5t62 -177.5q0 -97 -39 -176t-110 -124.5t-164 -45.5q-51 0 -94 12.5t-74 29.5l24 138h55q-1 3 11 -39q12 -50 22 -67q26 -21 61 -21q62 0 105.5 61.5t57.5 159.5q-96 -12 -224 -17l-15 82h245v19q0 90 -33.5 132t-85.5 42
q-48 0 -76 -25l-32 -75h-71l15 127q25 7 85.5 16z" />
  </g>

</svg>
