<?xml version="1.0" standalone="no"?>
<!DOCTYPE svg PUBLIC "-//W3C//DTD SVG 1.1//EN" "http://www.w3.org/Graphics/SVG/1.1/DTD/svg11.dtd" >
<svg xmlns="http://www.w3.org/2000/svg" xmlns:xlink="http://www.w3.org/1999/xlink" version="1.1" viewBox="-10 0 958 1000">
  <g transform="matrix(1 0 0 -1 0 800)">
   <path fill="currentColor"
d="M327 535q51 33 107 33q124 0 124 -147q0 -39 -25 -174q-4 -26 -7 -40q-14 -79 -15 -114v-4q0 -25 16 -25q9 0 19 5t26 18l14 -31q-15 -21 -49 -43.5t-83 -22.5q-47 0 -65 20.5t-18 54.5q1 30 19 119l6 34q2 9 8.5 48t10.5 74.5t4 61.5q0 46 -10.5 63t-37.5 17
q-33 0 -73.5 -37t-69.5 -89l-48 -356h-131l64 476l-51 27l8 41l156 24l23 -11l-10 -110q37 55 88 88zM789.5 -137.5q-32.5 -57.5 -82 -88t-107.5 -30.5q-29 0 -53 4.5t-33 13.5l19 54q7 -3 20 -5t25 -2q59 0 85 58t38 164l52 453l-77 23l10 37l189 23l23 -11l-66 -556
q-10 -80 -42.5 -137.5zM786.5 683.5q-19.5 20.5 -19.5 47.5q0 37 24.5 62t62.5 25q31 0 49 -19.5t18 -46.5q0 -38 -23 -63.5t-65 -25.5q-27 0 -46.5 20.5z" />
  </g>

</svg>
