<?xml version="1.0" standalone="no"?>
<!DOCTYPE svg PUBLIC "-//W3C//DTD SVG 1.1//EN" "http://www.w3.org/Graphics/SVG/1.1/DTD/svg11.dtd" >
<svg xmlns="http://www.w3.org/2000/svg" xmlns:xlink="http://www.w3.org/1999/xlink" version="1.1" viewBox="-10 0 620 1000">
  <g transform="matrix(1 0 0 -1 0 800)">
   <path fill="currentColor"
d="M241.5 314q-36.5 -40 -44.5 -112q-2 -20 -2 -29q0 -59 28.5 -91.5t83.5 -32.5q38 0 65.5 8.5t54.5 28.5q30 48 39 108h80l-21 -160l-49 -13q-45 -14 -84.5 -21.5t-96.5 -7.5q-133 1 -195.5 52.5t-62.5 136.5q0 93 56 150t164 61q-70 9 -112.5 52t-42.5 109q0 93 71 145.5
t203 52.5q51 0 85 -5t81 -15q41 -9 56 -11l-31 -181h-78l-8 119q-12 20 -37 28.5t-66 8.5q-52 0 -87.5 -35t-42.5 -100q-1 -9 -1 -24q0 -63 32.5 -93t79.5 -30l58 1l-8 -67l-69 7q-62 0 -98.5 -40z" />
  </g>

</svg>
