<?xml version="1.0" standalone="no"?>
<!DOCTYPE svg PUBLIC "-//W3C//DTD SVG 1.1//EN" "http://www.w3.org/Graphics/SVG/1.1/DTD/svg11.dtd" >
<svg xmlns="http://www.w3.org/2000/svg" xmlns:xlink="http://www.w3.org/1999/xlink" version="1.1" viewBox="-10 0 595 1000">
  <g transform="matrix(1 0 0 -1 0 800)">
   <path fill="currentColor"
d="M357 430q81 0 136 -41.5t55 -129.5q0 -75 -38.5 -135t-112.5 -95t-176 -35q-57 0 -100.5 9t-85.5 22q-11 5 -22 7l36 177h65l12 -119q13 -10 39 -21t71 -11q49 0 87.5 24.5t59.5 65.5t21 87q0 63 -34.5 98.5t-102.5 36.5q-14 0 -28.5 -2t-19.5 -3l-24 29l236 263h-238
l-30 -95h-76l22 181h466l-8 -61l-256 -256q20 4 46 4z" />
  </g>

</svg>
