<?xml version="1.0" standalone="no"?>
<!DOCTYPE svg PUBLIC "-//W3C//DTD SVG 1.1//EN" "http://www.w3.org/Graphics/SVG/1.1/DTD/svg11.dtd" >
<svg xmlns="http://www.w3.org/2000/svg" xmlns:xlink="http://www.w3.org/1999/xlink" version="1.1" viewBox="-10 0 732 1000">
  <g transform="matrix(1 0 0 -1 0 800)">
   <path fill="currentColor"
d="M456 332.5q30 -48.5 77 -140.5q31 -62 49.5 -94t32.5 -37h50q-8 -54 -21 -104.5t-33 -115.5l-6 -21h-72l3 46q6 72 6 110q0 17 -1 24h-44q-19 0 -39 37.5t-54 119.5q-38 91 -63.5 137.5t-50.5 46.5h-40l-36 -281l82 -14l-4 -46h-292l5 46l69 14l81 622l-69 12l5 49h292
l-5 -49l-83 -12l-37 -283h69l223 283l-67 12l6 49h223l-7 -49l-68 -13l-243 -286q32 -14 62 -62.5z" />
  </g>

</svg>
