<?xml version="1.0" standalone="no"?>
<!DOCTYPE svg PUBLIC "-//W3C//DTD SVG 1.1//EN" "http://www.w3.org/Graphics/SVG/1.1/DTD/svg11.dtd" >
<svg xmlns="http://www.w3.org/2000/svg" xmlns:xlink="http://www.w3.org/1999/xlink" version="1.1" viewBox="-18 0 642 1000">
  <g transform="matrix(1 0 0 -1 0 800)">
   <path fill="currentColor"
d="M-2 46l76 13l81 623l-70 12l6 49h513l-12 -171h-82l-19 107l-195 11l-35 -266l227 15l-13 -96l-223 12l-36 -290l251 14l53 130l83 -9l-37 -200h-210q16 -37 16 -93q0 -65 -37 -102t-108 -37q-20 0 -41.5 5t-33.5 14l16 74q11 -7 43 -7q46 0 64 21.5t18 70.5q0 33 -6 54
h-295z" />
  </g>

</svg>
