<?xml version="1.0" standalone="no"?>
<!DOCTYPE svg PUBLIC "-//W3C//DTD SVG 1.1//EN" "http://www.w3.org/Graphics/SVG/1.1/DTD/svg11.dtd" >
<svg xmlns="http://www.w3.org/2000/svg" xmlns:xlink="http://www.w3.org/1999/xlink" version="1.1" viewBox="-11 0 1046 1000">
  <g transform="matrix(1 0 0 -1 0 800)">
   <path fill="currentColor"
d="M363 442q119 0 180.5 -46t61.5 -133q0 -132 -86.5 -202t-230.5 -70q-7 0 -61 4q-90 5 -101 5h-127l5 46l73 14l81 622l-70 12l5 49h294l-5 -46l-84 -15l-32 -253q43 13 97 13zM1025 743l-5 -49l-81 -12l-80 -622l82 -14l-3 -46h-299l6 46l73 14l81 622l-70 12l5 49h291z
M290 47q79 0 124.5 55t45.5 148q0 58 -34 93t-92 35q-20 0 -42.5 -2.5t-33.5 -5.5l-42 -319q34 -4 74 -4zM413 839.5q-17 17.5 -17 44.5q0 35 21 57.5t53 22.5q28 0 44.5 -17t16.5 -43q0 -38 -19.5 -60t-56.5 -22q-25 0 -42 17.5zM642.5 839.5q-16.5 17.5 -16.5 44.5
q0 36 20.5 58t52.5 22q28 0 44.5 -17t16.5 -43q0 -37 -20 -59.5t-56 -22.5q-25 0 -41.5 17.5z" />
  </g>

</svg>
