<?xml version="1.0" standalone="no"?>
<!DOCTYPE svg PUBLIC "-//W3C//DTD SVG 1.1//EN" "http://www.w3.org/Graphics/SVG/1.1/DTD/svg11.dtd" >
<svg xmlns="http://www.w3.org/2000/svg" xmlns:xlink="http://www.w3.org/1999/xlink" version="1.1" viewBox="-10 0 854 1000">
  <g transform="matrix(1 0 0 -1 0 800)">
   <path fill="currentColor"
d="M281 936q0 25 4 39h112q14 0 12 -22l-1 -23q-2 -16 -2 -24q0 -59 72 -59q37 0 57.5 12t28.5 30.5t12 48.5q4 37 21 37h89q0 -11 -1 -16q-16 -83 -68.5 -122t-147.5 -39q-188 0 -188 138zM746 682l-81 -621h108q-12 -75 -48 -202l-11 -39h-72l3 41q5 90 5 113q0 19 -1 26
h-198l4 46l71 14v1l61 473l-55 -71l-309 -349l-7 -54l82 -14l-4 -46h-293l5 46l70 14l81 622l-70 12l6 49h293l-6 -49l-83 -12l-62 -473l39 52l325 364l8 57l-71 12l6 49h292l-6 -49z" />
  </g>

</svg>
