<?xml version="1.0" standalone="no"?>
<!DOCTYPE svg PUBLIC "-//W3C//DTD SVG 1.1//EN" "http://www.w3.org/Graphics/SVG/1.1/DTD/svg11.dtd" >
<svg xmlns="http://www.w3.org/2000/svg" xmlns:xlink="http://www.w3.org/1999/xlink" version="1.1" viewBox="-10 0 630 1000">
  <g transform="matrix(1 0 0 -1 0 800)">
   <path fill="currentColor"
d="M209 237q-10 -78 -10 -100q0 -40 14 -57t42 -17q32 0 63.5 20t53.5 48q20 143 58 432h132l-64 -463q-2 -18 3 -27t15 -9q9 0 19 5.5t28 20.5l14 -31q-13 -21 -48 -45t-80 -24q-37 0 -56 17.5t-19 48.5q0 6 2 22q-23 -38 -74 -63t-102 -25q-56 0 -95 30.5t-40 97.5
q0 39 14 141q4 25 5 34l27 182l-58 34l8 41l166 17l23 -11l-34 -267q-4 -37 -7 -52zM342.5 -54q-7.5 -12 -7.5 -27q0 -7 1 -11q2 -9 6.5 -28.5t4.5 -46.5q0 -35 -35 -59.5t-84 -35.5l-31 35q26 9 38.5 18.5t12.5 29.5q0 9 -1.5 17.5t-1.5 12.5q-4 22 -4 39q0 27 17.5 48
t41 33.5t40.5 14.5l23 -21q-13 -7 -20.5 -19z" />
  </g>

</svg>
