<?xml version="1.0" standalone="no"?>
<!DOCTYPE svg PUBLIC "-//W3C//DTD SVG 1.1//EN" "http://www.w3.org/Graphics/SVG/1.1/DTD/svg11.dtd" >
<svg xmlns="http://www.w3.org/2000/svg" xmlns:xlink="http://www.w3.org/1999/xlink" version="1.1" viewBox="-10 0 572 1000">
  <g transform="matrix(1 0 0 -1 0 800)">
   <path fill="currentColor"
d="M520.5 704.5q-7.5 -6.5 -28.5 -6.5q-138 0 -240 -77t-130 -258q29 76 92.5 127t147.5 51q98 0 139.5 -53t41.5 -146q0 -97 -38.5 -177t-106.5 -126.5t-153 -46.5q-106 0 -160.5 74.5t-54.5 190.5q0 171 66.5 292t161 181.5t174.5 60.5q18 0 32 22l25 49h63l-22 -131
q-2 -20 -9.5 -26.5zM241.5 434.5q-37.5 -34.5 -60.5 -89.5t-23 -112q0 -85 28 -135.5t75 -50.5t81 39.5t51.5 100.5t17.5 125q0 83 -23 120t-66 37t-80.5 -34.5z" />
  </g>

</svg>
