<?xml version="1.0" standalone="no"?>
<!DOCTYPE svg PUBLIC "-//W3C//DTD SVG 1.1//EN" "http://www.w3.org/Graphics/SVG/1.1/DTD/svg11.dtd" >
<svg xmlns="http://www.w3.org/2000/svg" xmlns:xlink="http://www.w3.org/1999/xlink" version="1.1" viewBox="-51 0 859 1000">
  <g transform="matrix(1 0 0 -1 0 800)">
   <path fill="currentColor"
d="M731 63q23 0 50 27l16 -37q-5 -8 -28 -23.5t-55.5 -27.5t-66.5 -12q-66 0 -67 64l15 292l10 162l-224 -515h-78l-64 338l-26 147l-32 -177q-15 -84 -33.5 -142t-44.5 -115q-14 -30 -35 -41t-67 -11q-8 0 -24.5 4.5t-17.5 7.5l29 125q5 -3 35 -10t39 -6q43 91 94 369
l-83 21l7 58h246l56 -318l12 -94l35 94l135 318h171l-24 -446q-1 -52 20 -52z" />
  </g>

</svg>
