<?xml version="1.0" standalone="no"?>
<!DOCTYPE svg PUBLIC "-//W3C//DTD SVG 1.1//EN" "http://www.w3.org/Graphics/SVG/1.1/DTD/svg11.dtd" >
<svg xmlns="http://www.w3.org/2000/svg" xmlns:xlink="http://www.w3.org/1999/xlink" version="1.1" viewBox="-10 0 733 1000">
  <g transform="matrix(1 0 0 -1 0 800)">
   <path fill="currentColor"
d="M81 743h632l-38 -263l-73 -1l-3 200l-139 11l-83 -630l133 -13l-5 -47h-165q7 -17 11.5 -41t4.5 -47q0 -66 -38 -105.5t-108 -39.5q-19 0 -44 5t-33 10l15 68q16 -8 41 -8q44 0 66.5 26.5t22.5 75.5q0 37 -4 56h-164l5 47l122 13l82 630l-138 -11l-69 -199h-75z" />
  </g>

</svg>
