<?xml version="1.0" standalone="no"?>
<!DOCTYPE svg PUBLIC "-//W3C//DTD SVG 1.1//EN" "http://www.w3.org/Graphics/SVG/1.1/DTD/svg11.dtd" >
<svg xmlns="http://www.w3.org/2000/svg" xmlns:xlink="http://www.w3.org/1999/xlink" version="1.1" viewBox="-10 0 711 1000">
  <g transform="matrix(1 0 0 -1 0 800)">
   <path fill="currentColor"
d="M562.5 710q60.5 -43 88.5 -115.5t28 -162.5q0 -119 -42 -219.5t-125.5 -161.5t-202.5 -61q-135 0 -202.5 89t-67.5 234q0 120 43.5 220.5t127.5 160t199 59.5q93 0 153.5 -43zM286.5 644q-47.5 -52 -73 -139t-24.5 -189q0 -117 31.5 -193.5t101.5 -76.5q64 0 110.5 49.5
t71 135t24.5 191.5q0 131 -32 202.5t-100 71.5q-62 0 -109.5 -52zM282 839.5q-17 17.5 -17 44.5q0 35 21 57.5t53 22.5q28 0 44.5 -17t16.5 -43q0 -38 -19.5 -60t-56.5 -22q-25 0 -42 17.5zM511.5 839.5q-16.5 17.5 -16.5 44.5q0 36 20.5 58t52.5 22q28 0 44.5 -17t16.5 -43
q0 -37 -20 -59.5t-56 -22.5q-25 0 -41.5 17.5z" />
  </g>

</svg>
