<?xml version="1.0" standalone="no"?>
<!DOCTYPE svg PUBLIC "-//W3C//DTD SVG 1.1//EN" "http://www.w3.org/Graphics/SVG/1.1/DTD/svg11.dtd" >
<svg xmlns="http://www.w3.org/2000/svg" xmlns:xlink="http://www.w3.org/1999/xlink" version="1.1" viewBox="-46 0 584 1000">
  <g transform="matrix(1 0 0 -1 0 800)">
   <path fill="currentColor"
d="M408.5 88.5q12.5 -15.5 24.5 -15.5q21 0 50 24l20 -35q-8 -12 -28 -29.5t-49 -29.5q-47 -22 -47 -51q0 -11 9 -33q4 -11 8 -24.5t4 -27.5q0 -24 -20.5 -50.5t-51 -46t-59.5 -26.5l-31 35q22 8 39.5 29t17.5 43q0 11 -6 29q-7 26 -7 42q0 42 55 70q-24 4 -38 16.5
t-21 33.5l-52 157l-130 -199h-132l226 283l-81 171q-9 17 -17.5 27t-19.5 10q-25 0 -43 -15l-17 35q6 8 24 21.5t46 24t62 10.5q71 0 87 -51l45 -145l126 192h126l-218 -278l79 -163q7 -18 19.5 -33.5z" />
  </g>

</svg>
