<?xml version="1.0" standalone="no"?>
<!DOCTYPE svg PUBLIC "-//W3C//DTD SVG 1.1//EN" "http://www.w3.org/Graphics/SVG/1.1/DTD/svg11.dtd" >
<svg xmlns="http://www.w3.org/2000/svg" xmlns:xlink="http://www.w3.org/1999/xlink" version="1.1" viewBox="-12 0 643 1000">
  <g transform="matrix(1 0 0 -1 0 800)">
   <path fill="currentColor"
d="M358 455q119 0 180.5 -47t61.5 -137q0 -88 -39.5 -151t-111 -96t-167.5 -33q-6 0 -62 4q-90 5 -101 5h-121l4 46l74 14l80 622l-72 12l6 49h517l-15 -179h-78l-15 117l-208 9l-32 -249q49 14 99 14zM282 47q81 0 126.5 58.5t45.5 152.5q0 60 -33.5 96t-91.5 36
q-46 0 -78 -8l-43 -331q23 -4 74 -4z" />
  </g>

</svg>
