<?xml version="1.0" standalone="no"?>
<!DOCTYPE svg PUBLIC "-//W3C//DTD SVG 1.1//EN" "http://www.w3.org/Graphics/SVG/1.1/DTD/svg11.dtd" >
<svg xmlns="http://www.w3.org/2000/svg" xmlns:xlink="http://www.w3.org/1999/xlink" version="1.1" viewBox="-45 0 767 1000">
  <g transform="matrix(1 0 0 -1 0 800)">
   <path fill="currentColor"
d="M608 -139l-11 -41h-73l3 45q6 68 6 106q0 21 -1 29h-209l4 46l76 13l-99 240l-166 -239l79 -14l-5 -46h-247l5 46l59 13l244 308l-149 315l-63 12l5 49h298l-4 -48l-76 -12l92 -234l159 233l-71 12l3 49h245l-3 -49l-69 -11l-233 -298l163 -325h86q-13 -79 -48 -199z" />
  </g>

</svg>
