<?xml version="1.0" standalone="no"?>
<!DOCTYPE svg PUBLIC "-//W3C//DTD SVG 1.1//EN" "http://www.w3.org/Graphics/SVG/1.1/DTD/svg11.dtd" >
<svg xmlns="http://www.w3.org/2000/svg" xmlns:xlink="http://www.w3.org/1999/xlink" version="1.1" viewBox="-107 0 350 1000">
  <g transform="matrix(1 0 0 -1 0 800)">
   <path fill="currentColor"
d="M-57 677q-40 31 -40 86q0 52 27.5 86t69.5 49.5t87 15.5q65 0 105.5 -31.5t40.5 -84.5q0 -74 -53 -113t-128 -39q-69 0 -109 31zM126 722.5q27 18.5 27 62.5q0 30 -22.5 51.5t-53.5 21.5q-37 0 -65 -21.5t-28 -63.5q0 -29 23 -49t53 -20q39 0 66 18.5z" />
  </g>

</svg>
