<?xml version="1.0" standalone="no"?>
<!DOCTYPE svg PUBLIC "-//W3C//DTD SVG 1.1//EN" "http://www.w3.org/Graphics/SVG/1.1/DTD/svg11.dtd" >
<svg xmlns="http://www.w3.org/2000/svg" xmlns:xlink="http://www.w3.org/1999/xlink" version="1.1" viewBox="-14 0 555 1000">
  <g transform="matrix(1 0 0 -1 0 800)">
   <path fill="currentColor"
d="M408 415q0 11 -8 45t-8 48q0 27 17 43t48 16q36 0 55 -28t19 -72q0 -139 -178 -358l-60 -71l-33 -179q-2 -10 -2 -15q0 -24 20 -24q11 0 23 6.5t30 21.5l13 -31q-18 -23 -53 -46.5t-84 -23.5q-40 0 -62.5 16.5t-22.5 43.5q0 4 2 14l46 197l-99 442q-8 29 -22 29
q-8 0 -17 -4t-23 -16l-13 35q14 18 47 41t72 23q40 0 61.5 -18t27.5 -49l53 -302l15 -100l36 51q100 147 100 265z" />
  </g>

</svg>
