<?xml version="1.0" standalone="no"?>
<!DOCTYPE svg PUBLIC "-//W3C//DTD SVG 1.1//EN" "http://www.w3.org/Graphics/SVG/1.1/DTD/svg11.dtd" >
<svg xmlns="http://www.w3.org/2000/svg" xmlns:xlink="http://www.w3.org/1999/xlink" version="1.1" viewBox="-18 0 642 1000">
  <g transform="matrix(1 0 0 -1 0 800)">
   <path fill="currentColor"
d="M604 743l-12 -171h-82l-19 107l-195 11l-35 -266l227 15l-13 -96l-223 12l-36 -290l251 14l53 130l83 -9l-37 -200h-574l6 46l76 13l81 623l-70 12l6 49h513zM250 942q32 24 74 24q26 0 44 -10.5t38 -30.5q17 -16 28.5 -23.5t26.5 -7.5q25 0 43 14t33 35l35 -46
q-13 -33 -45.5 -59.5t-71.5 -26.5q-29 0 -47 10t-40 30q-16 16 -29.5 24t-32.5 8q-21 0 -36 -10.5t-34 -31.5l-31 43q13 34 45 58z" />
  </g>

</svg>
