<?xml version="1.0" standalone="no"?>
<!DOCTYPE svg PUBLIC "-//W3C//DTD SVG 1.1//EN" "http://www.w3.org/Graphics/SVG/1.1/DTD/svg11.dtd" >
<svg xmlns="http://www.w3.org/2000/svg" xmlns:xlink="http://www.w3.org/1999/xlink" version="1.1" viewBox="-83 0 762 1000">
  <g transform="matrix(1 0 0 -1 0 800)">
   <path fill="currentColor"
d="M467 744l123 -683l79 -15l-3 -46h-307l2 46l82 13l-24 151h-253l-67 -150l91 -14l-3 -46h-260l4 46l68 13l329 685h139zM194 275h216l-44 295l-5 82zM358.5 877q-25.5 24 -37.5 47l74 55l77 -102l-52 -46q-36 22 -61.5 46zM293.5 748q-35.5 22 -35.5 61q0 8 1 12
q3 22 7 31h57q0 -2 -0.5 -5t-0.5 -9q0 -15 20.5 -26t61.5 -11q42 0 67 12t28 27q2 10 1 12h56q0 -16 -2 -30q-7 -46 -48 -71t-113 -25q-64 0 -99.5 22z" />
  </g>

</svg>
