<?xml version="1.0" standalone="no"?>
<!DOCTYPE svg PUBLIC "-//W3C//DTD SVG 1.1//EN" "http://www.w3.org/Graphics/SVG/1.1/DTD/svg11.dtd" >
<svg xmlns="http://www.w3.org/2000/svg" xmlns:xlink="http://www.w3.org/1999/xlink" version="1.1" viewBox="-83 0 840 1000">
  <g transform="matrix(1 0 0 -1 0 800)">
   <path fill="currentColor"
d="M467 744l123 -683l79 -15l-3 -46h-307l2 46l82 13l-24 151h-253l-67 -150l91 -14l-3 -46h-260l4 46l68 13l329 685h139zM194 275h216l-44 295l-5 82zM580 881l108 102l59 -56q-20 -23 -53.5 -47.5t-75.5 -44.5zM475 961l107 -148l-49 -41l-119 101l-152 -102l-35 42
l155 148h93z" />
  </g>

</svg>
