<?xml version="1.0" standalone="no"?>
<!DOCTYPE svg PUBLIC "-//W3C//DTD SVG 1.1//EN" "http://www.w3.org/Graphics/SVG/1.1/DTD/svg11.dtd" >
<svg xmlns="http://www.w3.org/2000/svg" xmlns:xlink="http://www.w3.org/1999/xlink" version="1.1" viewBox="-10 0 726 1000">
  <g transform="matrix(1 0 0 -1 0 800)">
   <path fill="currentColor"
d="M329 743l-7 -49l-86 -12l92 -253l23 -70l33 62l157 261l-79 12l5 49h239l-6 -49l-61 -11l-253 -391l-31 -232l116 -14l-4 -46h-369l5 46l114 14l29 232l-168 390l-62 12l5 49h308zM188.5 -217q-17.5 20 -17.5 51q0 37 24.5 62t61.5 25q33 0 50 -18.5t17 -49.5
q0 -38 -23.5 -64t-64.5 -26q-30 0 -47.5 20z" />
  </g>

</svg>
