<?xml version="1.0" standalone="no"?>
<!DOCTYPE svg PUBLIC "-//W3C//DTD SVG 1.1//EN" "http://www.w3.org/Graphics/SVG/1.1/DTD/svg11.dtd" >
<svg xmlns="http://www.w3.org/2000/svg" xmlns:xlink="http://www.w3.org/1999/xlink" version="1.1" viewBox="-10 0 690 1000">
  <g transform="matrix(1 0 0 -1 0 800)">
   <path fill="currentColor"
d="M377.5 23q-58.5 -36 -135.5 -36q-72 0 -118.5 31t-67.5 81t-21 109q0 100 40.5 182.5t110.5 130.5t156 48q77 0 114.5 -35.5t37.5 -92.5q0 -72 -52 -120t-125 -71.5t-138 -25.5q-2 -72 23.5 -116t77.5 -44q86 0 156 80l26 -44q-26 -41 -84.5 -77zM219 436
q-34 -71 -40 -158q39 2 82.5 21t73 53.5t29.5 79.5q0 36 -13.5 55.5t-38.5 19.5q-59 0 -93 -71zM520 773q2 9 9.5 15.5t20.5 14.5q14 8 22 15t12 17v3q0 33 -37 34h-7q-14 0 -20 -2l14 69q2 1 13.5 3t20.5 2q48 0 75 -18t27 -53q0 -11 -3 -25q-5 -20 -19 -33t-37 -28
q-3 -2 -7.5 -4.5t-9.5 -6.5q-9 -7 -13.5 -15.5t-3.5 -22.5l-46 -5q-13 23 -11 40zM408 821l115 -155l-58 -35l-111 98l-149 -98l-41 33l165 157h79z" />
  </g>

</svg>
