<?xml version="1.0" standalone="no"?>
<!DOCTYPE svg PUBLIC "-//W3C//DTD SVG 1.1//EN" "http://www.w3.org/Graphics/SVG/1.1/DTD/svg11.dtd" >
<svg xmlns="http://www.w3.org/2000/svg" xmlns:xlink="http://www.w3.org/1999/xlink" version="1.1" viewBox="-47 0 1025 1000">
  <g transform="matrix(1 0 0 -1 0 800)">
   <path fill="currentColor"
d="M614 520q72 171 93 223h261l-6 -49l-87 -12l-19 -622l86 -14l-3 -46h-316l4 47l92 12l25 428l11 198l-72 -174l-222 -512l-70 -8l-73 508l-29 186l-42 -191l-104 -434l106 -14l-4 -46h-282l5 46l81 14l160 622l-94 12l7 49h291l61 -445l12 -91l34 90q40 100 94 223z
M512 831q-21 20 -21 45q0 35 24 59.5t59 24.5q30 0 51 -19t21 -44q0 -37 -23.5 -61.5t-63.5 -24.5q-26 0 -47 20z" />
  </g>

</svg>
