<?xml version="1.0" standalone="no"?>
<!DOCTYPE svg PUBLIC "-//W3C//DTD SVG 1.1//EN" "http://www.w3.org/Graphics/SVG/1.1/DTD/svg11.dtd" >
<svg xmlns="http://www.w3.org/2000/svg" xmlns:xlink="http://www.w3.org/1999/xlink" version="1.1" viewBox="-10 0 709 1000">
  <g transform="matrix(1 0 0 -1 0 800)">
   <path fill="currentColor"
d="M181 290l-139 -60l6 77l144 62l13 99l-146 -63l6 76l150 65l26 197h124l-18 -140l179 78l-6 -77l-184 -80l-13 -99l170 73l-6 -76l-175 -75l-37 -280q126 0 190.5 82.5t77.5 201.5h122l-3 -27q-11 -98 -64.5 -171.5t-139 -113t-190.5 -39.5h-125z" />
  </g>

</svg>
