<?xml version="1.0" standalone="no"?>
<!DOCTYPE svg PUBLIC "-//W3C//DTD SVG 1.1//EN" "http://www.w3.org/Graphics/SVG/1.1/DTD/svg11.dtd" >
<svg xmlns="http://www.w3.org/2000/svg" xmlns:xlink="http://www.w3.org/1999/xlink" version="1.1" viewBox="-10 0 953 1000">
  <g transform="matrix(1 0 0 -1 0 800)">
   <path fill="currentColor"
d="M532 744q87 0 123 -28t36 -100q0 -35 -5 -68l-49 -361h-123l48 356q3 21 3 38q0 35 -19 48t-70 13h-223l-88 -642h-116l102 743zM446 0q-87 0 -123.5 28.5t-36.5 101.5q0 25 5 67l50 360h123l-49 -356q-3 -18 -3 -33q0 -38 20 -52t72 -14h220l88 642h115l-101 -744h-380z
" />
  </g>

</svg>
