<?xml version="1.0" standalone="no"?>
<!DOCTYPE svg PUBLIC "-//W3C//DTD SVG 1.1//EN" "http://www.w3.org/Graphics/SVG/1.1/DTD/svg11.dtd" >
<svg xmlns="http://www.w3.org/2000/svg" xmlns:xlink="http://www.w3.org/1999/xlink" version="1.1" viewBox="-43 0 636 1000">
  <g transform="matrix(1 0 0 -1 0 800)">
   <path fill="currentColor"
d="M236.5 8.5q-34.5 19.5 -59.5 56.5q-9 -6 -68 -40q-24 -12 -35 -19l-107 90q89 41 153 88q-12 48 -12 106q0 137 42 258.5t113.5 195.5t155.5 74q55 0 94.5 -35.5t39.5 -106.5q0 -138 -78.5 -280.5t-206.5 -261.5q25 -36 66 -36q97 0 139 135l64 -22q-24 -99 -76.5 -160.5
t-149.5 -61.5q-40 0 -74.5 19.5zM365.5 471.5q56.5 115.5 56.5 210.5q0 28 -9 45.5t-23 17.5q-49 0 -89 -72t-63 -177t-23 -197q0 -27 1 -39q93 96 149.5 211.5z" />
  </g>

</svg>
