<?xml version="1.0" standalone="no"?>
<!DOCTYPE svg PUBLIC "-//W3C//DTD SVG 1.1//EN" "http://www.w3.org/Graphics/SVG/1.1/DTD/svg11.dtd" >
<svg xmlns="http://www.w3.org/2000/svg" xmlns:xlink="http://www.w3.org/1999/xlink" version="1.1" viewBox="-10 0 681 1000">
  <g transform="matrix(1 0 0 -1 0 800)">
   <path fill="currentColor"
d="M125 80.5q-54 89.5 -54 226.5q0 123 39.5 224.5t114.5 161.5t177 60q121 0 176.5 -92t55.5 -227q0 -115 -39 -216.5t-114.5 -164t-181.5 -62.5q-120 0 -174 89.5zM411.5 97q42.5 52 64 138.5t21.5 189.5q0 273 -107 273q-57 0 -99 -55.5t-63.5 -144.5t-21.5 -185
q0 -268 105 -268q58 0 100.5 52z" />
  </g>

</svg>
