<?xml version="1.0" standalone="no"?>
<!DOCTYPE svg PUBLIC "-//W3C//DTD SVG 1.1//EN" "http://www.w3.org/Graphics/SVG/1.1/DTD/svg11.dtd" >
<svg xmlns="http://www.w3.org/2000/svg" xmlns:xlink="http://www.w3.org/1999/xlink" version="1.1" viewBox="-10 0 761 1000">
  <g transform="matrix(1 0 0 -1 0 800)">
   <path fill="currentColor"
d="M429 734c102 0 170 -18 236 -82l7 3c-1 12 -10 60 -10 152c-20 -4 -42 -7 -76 -7c-34 1 -90 7 -134 7c-243 0 -392 -196 -392 -409c0 -212 146 -405 394 -405c118 0 193 42 242 82c-1 32 0 56 4 72l-7 4c-5 -10 -14 -20 -30 -30c-46 -28 -106 -57 -191 -57
c-179 0 -312 162 -312 366c0 182 103 304 269 304z" />
  </g>

</svg>
