<?xml version="1.0" standalone="no"?>
<!DOCTYPE svg PUBLIC "-//W3C//DTD SVG 1.1//EN" "http://www.w3.org/Graphics/SVG/1.1/DTD/svg11.dtd" >
<svg xmlns="http://www.w3.org/2000/svg" xmlns:xlink="http://www.w3.org/1999/xlink" version="1.1" viewBox="-10 0 935 1000">
  <g transform="matrix(1 0 0 -1 0 800)">
   <path fill="currentColor"
d="M848 808l2 -6c-32 -9 -71 -49 -71 -101v-705h-9l-535 676v-572c0 -52 39 -92 71 -101l-2 -6c-11 1 -47 7 -107 7c-70 0 -94 -6 -105 -7l-2 6c32 8 71 49 71 101v644l-51 58l2 6c11 -4 31 -8 64 -8c23 0 56 1 79 7c1 -12 14 -35 22 -45l428 -541v480c0 52 -39 93 -71 101
l2 6c11 -1 35 -7 105 -7c60 0 96 6 107 7z" />
  </g>

</svg>
