<?xml version="1.0" standalone="no"?>
<!DOCTYPE svg PUBLIC "-//W3C//DTD SVG 1.1//EN" "http://www.w3.org/Graphics/SVG/1.1/DTD/svg11.dtd" >
<svg xmlns="http://www.w3.org/2000/svg" xmlns:xlink="http://www.w3.org/1999/xlink" version="1.1" viewBox="-10 0 963 1000">
  <g transform="matrix(1 0 0 -1 0 800)">
   <path fill="currentColor"
d="M671 591l9 -12c-12 -33 -56 -194 -66 -275c-4 -36 11 -56 69 -56c44 0 127 30 127 169c0 191 -156 329 -355 329c-167 0 -314 -136 -314 -334c0 -204 159 -356 363 -356c91 0 143 29 170 50h23l29 -25c-73 -66 -136 -86 -244 -86c-248 0 -430 176 -430 402
c0 224 186 410 431 410c249 0 418 -179 418 -380c0 -134 -98 -234 -221 -234c-83 0 -130 42 -133 108c-46 -63 -109 -108 -186 -108c-39 0 -103 47 -103 152c0 169 147 265 230 265c41 0 97 -18 128 -31zM388 257c77 0 155 94 186 205l12 61c-36 13 -102 29 -143 29
c-67 0 -95 -76 -95 -198c0 -53 27 -97 40 -97z" />
  </g>

</svg>
