<?xml version="1.0" standalone="no"?>
<!DOCTYPE svg PUBLIC "-//W3C//DTD SVG 1.1//EN" "http://www.w3.org/Graphics/SVG/1.1/DTD/svg11.dtd" >
<svg xmlns="http://www.w3.org/2000/svg" xmlns:xlink="http://www.w3.org/1999/xlink" version="1.1" viewBox="-10 0 874 1000">
  <g transform="matrix(1 0 0 -1 0 800)">
   <path fill="currentColor"
d="M733 479l5 -2c-1 -8 -5 -47 -5 -81c0 -26 4 -65 5 -73l-5 -2c-5 21 -25 42 -73 42h-191v-191c0 -48 21 -68 42 -73l-2 -5c-8 1 -50 5 -76 5c-44 0 -70 -4 -78 -5l-2 5c21 5 42 25 42 73v191h-191c-48 0 -68 -21 -73 -42l-5 2c1 8 5 47 5 73c0 34 -4 73 -5 81l5 2
c5 -21 25 -42 73 -42h191v191c0 48 -21 68 -42 73l2 5c8 -1 34 -5 78 -5c26 0 68 4 76 5l2 -5c-21 -5 -42 -25 -42 -73v-191h191c48 0 68 21 73 42z" />
  </g>

</svg>
