<?xml version="1.0" standalone="no"?>
<!DOCTYPE svg PUBLIC "-//W3C//DTD SVG 1.1//EN" "http://www.w3.org/Graphics/SVG/1.1/DTD/svg11.dtd" >
<svg xmlns="http://www.w3.org/2000/svg" xmlns:xlink="http://www.w3.org/1999/xlink" version="1.1" viewBox="-10 0 955 1000">
  <g transform="matrix(1 0 0 -1 0 800)">
   <path fill="currentColor"
d="M931 348l4 -5c-34 -51 -59 -82 -100 -82c-29 0 -53 3 -76 6c-38 -166 -212 -274 -363 -274c-211 0 -316 140 -316 316c0 181 156 379 352 379c75 0 137 -30 175 -87c33 49 59 102 71 159l27 20c28 1 78 -11 61 -56c-117 -305 -447 -451 -576 -501
c30 -102 106 -158 221 -158h4c131 1 241 105 255 222c-35 8 -75 15 -130 15c-26 0 -42 -7 -55 -18l-5 4c34 51 65 82 106 82c96 0 143 -41 289 -41c26 0 42 7 56 19zM412 615c-132 0 -237 -124 -237 -279c0 -24 2 -46 5 -67c78 35 248 126 370 260c-29 58 -78 86 -138 86z
" />
  </g>

</svg>
