<?xml version="1.0" standalone="no"?>
<!DOCTYPE svg PUBLIC "-//W3C//DTD SVG 1.1//EN" "http://www.w3.org/Graphics/SVG/1.1/DTD/svg11.dtd" >
<svg xmlns="http://www.w3.org/2000/svg" xmlns:xlink="http://www.w3.org/1999/xlink" version="1.1" viewBox="-10 0 713 1000">
  <g transform="matrix(1 0 0 -1 0 800)">
   <path fill="currentColor"
d="M598 -209q-41 0 -69.5 19t-28.5 61q0 38 33.5 68.5t91.5 56.5l-1 4h-208v54h86l-56 167h-253l-56 -167h86v-54h-208v54h52l222 644h114l222 -644h52v-54q-32 -20 -51 -37t-29 -31.5t-13 -26.5t-3 -21q0 -20 10.5 -32t30.5 -12q26 0 44 21l27 -28q-12 -18 -35.5 -30
t-59.5 -12zM209 278h221l-108 326h-5z" />
  </g>

</svg>
