<?xml version="1.0" standalone="no"?>
<!DOCTYPE svg PUBLIC "-//W3C//DTD SVG 1.1//EN" "http://www.w3.org/Graphics/SVG/1.1/DTD/svg11.dtd" >
<svg xmlns="http://www.w3.org/2000/svg" xmlns:xlink="http://www.w3.org/1999/xlink" version="1.1" viewBox="-10 0 794 1000">
  <g transform="matrix(1 0 0 -1 0 800)">
   <path fill="currentColor"
d="M49 54h73v590h-73v54h212l337 -533h5v479h-73v54h211v-54h-73v-644h-101l-375 593h-5v-539h73v-54h-211v54zM335 -263q19 20 34 47t21 47q-30 0 -46 17t-16 42v3q0 26 16 43t47 17t47 -18t16 -43v-7q0 -38 -19.5 -78.5t-49.5 -69.5h-50v0z" />
  </g>

</svg>
