<?xml version="1.0" standalone="no"?>
<!DOCTYPE svg PUBLIC "-//W3C//DTD SVG 1.1//EN" "http://www.w3.org/Graphics/SVG/1.1/DTD/svg11.dtd" >
<svg xmlns="http://www.w3.org/2000/svg" xmlns:xlink="http://www.w3.org/1999/xlink" version="1.1" viewBox="-10 0 796 1000">
  <g transform="matrix(1 0 0 -1 0 800)">
   <path fill="currentColor"
d="M402 147q-45 0 -79.5 15t-58.5 41.5t-36 63.5t-12 81q0 48 14.5 85.5t40 63.5t61 40t77.5 14q66 0 102 -28t36 -70q0 -25 -14 -39t-39 -14q-23 0 -35 14t-12 35q0 17 8.5 28.5t22.5 18.5v2q-10 4 -23.5 7t-35.5 3q-50 0 -80 -32t-30 -85v-66q0 -55 29.5 -86t79.5 -31
q43 0 67 18.5t38 46.5l33 -20q-7 -19 -20 -38t-31.5 -34t-44 -24.5t-58.5 -9.5zM393 40q61 0 112.5 21t89 58t58 88t20.5 110v64q0 59 -20.5 110t-58 88t-89 58t-112.5 21q-62 0 -113 -21t-88.5 -58t-58 -88t-20.5 -110v-64q0 -59 20.5 -110t58 -88t88.5 -58t113 -21z
M393 -12q-73 0 -135 25t-107.5 72t-71 114t-25.5 150t25.5 150t71 114t107.5 72t135 25t135 -25t107.5 -72t71 -114t25.5 -150t-25.5 -150t-71 -114t-107.5 -72t-135 -25z" />
  </g>

</svg>
