<?xml version="1.0" standalone="no"?>
<!DOCTYPE svg PUBLIC "-//W3C//DTD SVG 1.1//EN" "http://www.w3.org/Graphics/SVG/1.1/DTD/svg11.dtd" >
<svg xmlns="http://www.w3.org/2000/svg" xmlns:xlink="http://www.w3.org/1999/xlink" version="1.1" viewBox="-10 0 684 1000">
  <g transform="matrix(1 0 0 -1 0 800)">
   <path fill="currentColor"
d="M447 -12q-83 0 -125.5 31.5t-42.5 73.5q0 28 16 46t42 18t40 -16.5t14 -39.5q0 -19 -7.5 -30.5t-17.5 -16.5v-5q26 -11 71 -11q52 0 79.5 21.5t27.5 63.5q0 37 -20 56t-69 35l-26 8q-66 21 -97 55.5t-31 95.5q0 34 12.5 61.5t35 46.5t52.5 30t66 13v35q0 71 -31.5 106.5
t-91.5 35.5q-123 0 -123 -145v-556h-180v54h68v408h-68v58h68v18q0 103 61 162.5t174 59.5q57 0 99.5 -17.5t71.5 -47.5t43.5 -70t14.5 -85v-59h-42q-66 0 -97.5 -22.5t-31.5 -58.5q0 -18 4 -30.5t13.5 -22.5t25.5 -18t40 -16l26 -8q66 -20 100.5 -55.5t34.5 -95.5
q0 -36 -12.5 -66t-37.5 -52.5t-62.5 -35t-86.5 -12.5z" />
  </g>

</svg>
