<?xml version="1.0" standalone="no"?>
<!DOCTYPE svg PUBLIC "-//W3C//DTD SVG 1.1//EN" "http://www.w3.org/Graphics/SVG/1.1/DTD/svg11.dtd" >
<svg xmlns="http://www.w3.org/2000/svg" xmlns:xlink="http://www.w3.org/1999/xlink" version="1.1" viewBox="-10 0 436 1000">
  <g transform="matrix(1 0 0 -1 0 800)">
   <path fill="currentColor"
d="M112 -212q-57 0 -84 24.5t-27 59.5q0 26 15.5 43t40.5 17q24 0 38 -14.5t14 -36.5q0 -35 -26 -45v-3q5 -1 11 -1.5t13 -0.5q33 0 49.5 23.5t16.5 75.5v661q0 77 35 119t97 42q57 0 84 -24.5t27 -59.5q0 -26 -15.5 -43t-40.5 -17q-24 0 -38 14.5t-14 36.5q0 35 26 45v3
q-5 1 -11 1.5t-13 0.5q-33 0 -49.5 -23.5t-16.5 -75.5v-661q0 -77 -35 -119t-97 -42z" />
  </g>

</svg>
