<?xml version="1.0" standalone="no"?>
<!DOCTYPE svg PUBLIC "-//W3C//DTD SVG 1.1//EN" "http://www.w3.org/Graphics/SVG/1.1/DTD/svg11.dtd" >
<svg xmlns="http://www.w3.org/2000/svg" xmlns:xlink="http://www.w3.org/1999/xlink" version="1.1" viewBox="-10 0 432 1000">
  <g transform="matrix(1 0 0 -1 0 800)">
   <path fill="currentColor"
d="M153 336q-55 0 -82.5 26.5t-27.5 71.5q0 51 37.5 78t121.5 27h50v44q0 41 -18 62t-57 21q-33 0 -49 -8v-4q7 -3 13.5 -12t6.5 -23q0 -18 -12 -29.5t-32 -11.5t-32.5 12.5t-12.5 32.5q0 32 37 56.5t103 24.5t99.5 -29.5t33.5 -83.5v-210h47v-30q-10 -6 -25.5 -10t-32.5 -4
q-32 0 -47.5 15t-15.5 40v4h-3q-11 -23 -33.5 -41.5t-68.5 -18.5zM183 384q29 0 49 14t20 45v61h-43q-47 0 -66 -15.5t-19 -44.5v-11q0 -25 16 -37t43 -12z" />
  </g>

</svg>
