<?xml version="1.0" standalone="no"?>
<!DOCTYPE svg PUBLIC "-//W3C//DTD SVG 1.1//EN" "http://www.w3.org/Graphics/SVG/1.1/DTD/svg11.dtd" >
<svg xmlns="http://www.w3.org/2000/svg" xmlns:xlink="http://www.w3.org/1999/xlink" version="1.1" viewBox="-10 0 582 1000">
  <g transform="matrix(1 0 0 -1 0 800)">
   <path fill="currentColor"
d="M286 47q63 0 92.5 39t29.5 104v140q0 65 -29.5 104t-92.5 39t-92.5 -39t-29.5 -104v-140q0 -65 29.5 -104t92.5 -39zM286 -12q-55 0 -100 19t-77 54t-49.5 85.5t-17.5 113.5t17.5 113.5t49.5 85.5t77 54t100 19t100 -19t77 -54t49.5 -85.5t17.5 -113.5t-17.5 -113.5
t-49.5 -85.5t-77 -54t-100 -19zM354 609q-21 0 -40.5 9t-39.5 19l-40 20t-36 10t-26.5 -7t-29.5 -29l-27 27q25 37 47.5 59.5t57.5 22.5q21 0 40.5 -9t39.5 -19l40 -20t36 -10q8 0 14 1.5t12 5.5t13 11t17 18l27 -27q-25 -37 -47.5 -59.5t-57.5 -22.5z" />
  </g>

</svg>
