<?xml version="1.0" standalone="no"?>
<!DOCTYPE svg PUBLIC "-//W3C//DTD SVG 1.1//EN" "http://www.w3.org/Graphics/SVG/1.1/DTD/svg11.dtd" >
<svg xmlns="http://www.w3.org/2000/svg" xmlns:xlink="http://www.w3.org/1999/xlink" version="1.1" viewBox="-10 0 511 1000">
  <g transform="matrix(1 0 0 -1 0 800)">
   <path fill="currentColor"
d="M165 379q80 3 126.5 35.5t46.5 99.5v21q0 59 -33 89.5t-86 30.5q-29 0 -49 -4.5t-34 -12.5v-3q14 -8 25.5 -23t11.5 -36q0 -29 -18 -49.5t-51 -20.5q-32 0 -50.5 20.5t-18.5 54.5q0 26 15.5 49.5t42.5 41t64.5 28t82.5 10.5q108 0 166 -50t58 -135q0 -47 -18 -83.5
t-49.5 -62.5t-74.5 -41.5t-92 -20.5v-101h-65v163zM198 -12q-35 0 -54.5 21t-19.5 50v6q0 29 19.5 50t54.5 21t54.5 -21t19.5 -50v-6q0 -29 -19.5 -50t-54.5 -21z" />
  </g>

</svg>
