<?xml version="1.0" standalone="no"?>
<!DOCTYPE svg PUBLIC "-//W3C//DTD SVG 1.1//EN" "http://www.w3.org/Graphics/SVG/1.1/DTD/svg11.dtd" >
<svg xmlns="http://www.w3.org/2000/svg" xmlns:xlink="http://www.w3.org/1999/xlink" version="1.1" viewBox="-10 0 592 1000">
  <g transform="matrix(1 0 0 -1 0 800)">
   <path fill="currentColor"
d="M267 -157q-81 0 -123 29.5t-42 77.5q0 31 18 49.5t47 18.5t45.5 -17.5t16.5 -40.5q0 -21 -10 -32.5t-25 -19.5v-3q31 -9 66 -9q56 0 85 22.5t29 65.5q0 36 -22.5 58.5t-67.5 35.5l-59 17q-78 21 -119 57.5t-41 100.5q0 55 36.5 93t91.5 55v6q-82 46 -82 141
q0 77 53.5 119.5t150.5 42.5q81 0 123 -29.5t42 -77.5q0 -31 -18 -49.5t-47 -18.5t-45.5 17.5t-16.5 40.5q0 21 10 32.5t25 19.5v3q-32 9 -66 9q-56 0 -85 -22.5t-29 -65.5q0 -36 22.5 -58.5t67.5 -35.5l59 -17q78 -21 119 -57.5t41 -100.5q0 -55 -36.5 -93t-91.5 -55v-6
q82 -46 82 -141q0 -77 -53.5 -119.5t-150.5 -42.5zM348 165q31 9 52.5 33t21.5 67q0 38 -23.5 60t-74.5 36l-61 17q-8 2 -15.5 5t-13.5 5q-31 -9 -52.5 -33t-21.5 -67q0 -38 23.5 -60t74.5 -36l61 -17q8 -2 15.5 -5t13.5 -5z" />
  </g>

</svg>
