<?xml version="1.0" standalone="no"?>
<!DOCTYPE svg PUBLIC "-//W3C//DTD SVG 1.1//EN" "http://www.w3.org/Graphics/SVG/1.1/DTD/svg11.dtd" >
<svg xmlns="http://www.w3.org/2000/svg" xmlns:xlink="http://www.w3.org/1999/xlink" version="1.1" viewBox="-10 0 634 1000">
  <g transform="matrix(1 0 0 -1 0 800)">
   <path fill="currentColor"
d="M258 -10q-50 4 -87.5 17t-63 32t-38.5 42t-13 46q0 34 18.5 54.5t50.5 20.5q33 0 51 -20.5t18 -49.5q0 -21 -11.5 -36t-25.5 -23v-4q18 -9 48 -16.5t70 -7.5q84 0 126.5 36t42.5 94v34q0 56 -34 87.5t-97 31.5h-103v59h97q52 0 86 30.5t34 82.5v36q0 53 -31.5 83.5
t-94.5 30.5t-101 -29t-38 -78v-55h-91v210h91v-60h5q23 33 63.5 52.5t106.5 19.5q50 0 89.5 -13.5t67.5 -37.5t42.5 -56.5t14.5 -70.5q0 -34 -11 -62t-30 -49t-45.5 -35t-56.5 -20v-5q33 -5 62 -17.5t51 -33t34.5 -50t12.5 -68.5q0 -81 -57 -134t-155 -66v-152h-98v150z" />
  </g>

</svg>
