<?xml version="1.0" standalone="no"?>
<!DOCTYPE svg PUBLIC "-//W3C//DTD SVG 1.1//EN" "http://www.w3.org/Graphics/SVG/1.1/DTD/svg11.dtd" >
<svg xmlns="http://www.w3.org/2000/svg" xmlns:xlink="http://www.w3.org/1999/xlink" version="1.1" viewBox="-10 0 645 1000">
  <g transform="matrix(1 0 0 -1 0 800)">
   <path fill="currentColor"
d="M323 54h88v194h-4q-25 -34 -61 -52.5t-90 -18.5q-81 0 -120 39.5t-39 124.5v125h-68v54h242v-54h-62v-118q0 -54 21.5 -76.5t72.5 -22.5q48 0 78 20t30 55v142h-62v54h242v-54h-68v-412h68v-54h-268v54zM211 610q-29 0 -45 17t-16 42v4q0 25 16 42t45 17t45 -17t16 -42
v-4q0 -25 -16 -42t-45 -17zM409 610q-29 0 -45 17t-16 42v4q0 25 16 42t45 17t45 -17t16 -42v-4q0 -25 -16 -42t-45 -17z" />
  </g>

</svg>
