<?xml version="1.0" standalone="no"?>
<!DOCTYPE svg PUBLIC "-//W3C//DTD SVG 1.1//EN" "http://www.w3.org/Graphics/SVG/1.1/DTD/svg11.dtd" >
<svg xmlns="http://www.w3.org/2000/svg" xmlns:xlink="http://www.w3.org/1999/xlink" version="1.1" viewBox="-10 0 949 1000">
  <g transform="matrix(1 0 0 -1 0 800)">
   <path fill="currentColor"
d="M49 54h73v590h-73v54h264v-54h-73v-228h130q105 0 160.5 -52t55.5 -156t-55.5 -156t-160.5 -52h-321v54zM625 54h73v590h-73v54h265v-54h-73v-590h73v-54h-265v54zM349 59q54 0 84.5 30.5t30.5 87.5v62q0 57 -30.5 87.5t-84.5 30.5h-109v-298h109zM370 778q-29 0 -45 17
t-16 42v4q0 25 16 42t45 17t45 -17t16 -42v-4q0 -25 -16 -42t-45 -17zM568 778q-29 0 -45 17t-16 42v4q0 25 16 42t45 17t45 -17t16 -42v-4q0 -25 -16 -42t-45 -17z" />
  </g>

</svg>
