<?xml version="1.0" standalone="no"?>
<!DOCTYPE svg PUBLIC "-//W3C//DTD SVG 1.1//EN" "http://www.w3.org/Graphics/SVG/1.1/DTD/svg11.dtd" >
<svg xmlns="http://www.w3.org/2000/svg" xmlns:xlink="http://www.w3.org/1999/xlink" version="1.1" viewBox="-10 0 743 1000">
  <g transform="matrix(1 0 0 -1 0 800)">
   <path fill="currentColor"
d="M49 54h73v590h-73v54h265v-54h-73v-252h5q35 19 74 27.5t90 8.5q60 0 101.5 -13t67.5 -39.5t37.5 -67t11.5 -96.5v-158h72v-54h-264v54h73v154q0 45 -6.5 76.5t-22 50.5t-41.5 27.5t-64 8.5q-43 0 -75.5 -9t-58.5 -26v-282h73v-54h-265v54z" />
  </g>

</svg>
