<?xml version="1.0" standalone="no"?>
<!DOCTYPE svg PUBLIC "-//W3C//DTD SVG 1.1//EN" "http://www.w3.org/Graphics/SVG/1.1/DTD/svg11.dtd" >
<svg xmlns="http://www.w3.org/2000/svg" xmlns:xlink="http://www.w3.org/1999/xlink" version="1.1" viewBox="-10 0 866 1000">
  <g transform="matrix(1 0 0 -1 0 800)">
   <path fill="currentColor"
d="M753 0h-86l-134 238h-66v-184h66v-54h-241v54h66v184h-66l-134 -238h-143v54h50l92 160q15 29 36 42.5t51 16.5l-46 104q-9 21 -19.5 39t-18.5 29h-4q-8 -55 -60 -55q-28 0 -46.5 19t-18.5 51q0 30 20.5 51t56.5 21q19 0 36 -6t33.5 -20.5t32.5 -39.5t33 -62l49 -112h66
v174h-66v54h241v-54h-66v-174h66l49 112q16 37 32.5 62t33 39.5t33.5 20.5t36 6q36 0 56.5 -21t20.5 -51q0 -32 -18.5 -51t-46.5 -19q-52 0 -60 55h-4q-8 -11 -18.5 -29t-19.5 -39l-46 -104q30 -3 51 -16.5t36 -42.5l90 -156h88v-208h-93v150z" />
  </g>

</svg>
