<?xml version="1.0" standalone="no"?>
<!DOCTYPE svg PUBLIC "-//W3C//DTD SVG 1.1//EN" "http://www.w3.org/Graphics/SVG/1.1/DTD/svg11.dtd" >
<svg xmlns="http://www.w3.org/2000/svg" xmlns:xlink="http://www.w3.org/1999/xlink" version="1.1" viewBox="-10 0 847 1000">
  <g transform="matrix(1 0 0 -1 0 800)">
   <path fill="currentColor"
d="M152 324q-61 0 -93 23t-32 54q0 22 12 34t32 12q22 0 32.5 -12t10.5 -31q0 -22 -18 -32v-3q7 -4 18 -5.5t24 -1.5q77 0 77 63v13q0 29 -18 46t-56 17h-30v41h27q36 0 53 17t17 42v11q0 28 -17 41t-46 13q-12 0 -22.5 -1.5t-17.5 -5.5v-3q18 -10 18 -32q0 -19 -10.5 -31
t-32.5 -12q-20 0 -32 12t-12 34q0 31 34 54t87 23q67 0 103.5 -22.5t36.5 -69.5q0 -35 -25.5 -57.5t-60.5 -27.5v-5q38 -6 65 -28.5t27 -60.5q0 -52 -41 -80.5t-110 -28.5zM630 698h70l-500 -698h-70zM649 -6q-63 0 -94.5 23t-31.5 54q0 22 12 34t32 12q22 0 32.5 -12
t10.5 -31q0 -22 -18 -32v-3q16 -7 45 -7q36 0 55 18t19 51v10q0 35 -18 53.5t-49 18.5q-21 0 -33.5 -9.5t-20.5 -22.5l-50 11l14 206h224v-68h-189l-8 -122h4q10 20 32.5 38t60.5 18q56 0 88.5 -30.5t32.5 -87.5q0 -28 -11.5 -50.5t-31.5 -38.5t-47.5 -24.5t-59.5 -8.5z" />
  </g>

</svg>
