<?xml version="1.0" standalone="no"?>
<!DOCTYPE svg PUBLIC "-//W3C//DTD SVG 1.1//EN" "http://www.w3.org/Graphics/SVG/1.1/DTD/svg11.dtd" >
<svg xmlns="http://www.w3.org/2000/svg" xmlns:xlink="http://www.w3.org/1999/xlink" version="1.1" viewBox="-10 0 661 1000">
  <g transform="matrix(1 0 0 -1 0 800)">
   <path fill="currentColor"
d="M49 54h73v105h-73v55h73v104h-73v55h73v271h-73v54h354q101 0 153 -47.5t52 -139.5q0 -91 -55 -142t-156 -51h-156v-104h213v-55h-213v-105h93v-54h-285v54zM241 373h135q52 0 81 30.5t29 78.5v50q0 48 -29 78.5t-81 30.5h-135v-268z" />
  </g>

</svg>
