<?xml version="1.0" standalone="no"?>
<!DOCTYPE svg PUBLIC "-//W3C//DTD SVG 1.1//EN" "http://www.w3.org/Graphics/SVG/1.1/DTD/svg11.dtd" >
<svg xmlns="http://www.w3.org/2000/svg" xmlns:xlink="http://www.w3.org/1999/xlink" version="1.1" viewBox="-10 0 872 1000">
  <g transform="matrix(1 0 0 -1 0 800)">
   <path fill="currentColor"
d="M163 324q-63 0 -94.5 23t-31.5 54q0 22 12 34t32 12q22 0 32.5 -12t10.5 -31q0 -22 -18 -32v-3q16 -7 45 -7q36 0 55 18t19 51v10q0 35 -18 53.5t-49 18.5q-21 0 -33.5 -9.5t-20.5 -22.5l-50 11l14 206h224v-68h-189l-8 -122h4q10 20 32.5 38t60.5 18q56 0 88.5 -30.5
t32.5 -87.5q0 -28 -11.5 -50.5t-31.5 -38.5t-47.5 -24.5t-59.5 -8.5zM644 698h70l-500 -698h-70zM680 -6q-69 0 -107.5 28.5t-38.5 77.5q0 20 8 35.5t21 27t30.5 18t35.5 9.5v4q-32 5 -57.5 26t-25.5 59q0 45 35.5 70t98.5 25t98.5 -25t35.5 -70q0 -38 -25.5 -59t-56.5 -26
v-4q37 -5 65.5 -27.5t28.5 -62.5q0 -49 -38.5 -77.5t-107.5 -28.5zM680 38q32 0 45.5 16.5t13.5 42.5v15q0 26 -13.5 42.5t-45.5 16.5t-45.5 -16.5t-13.5 -42.5v-15q0 -26 13.5 -42.5t45.5 -16.5zM680 211q32 0 43 14.5t11 38.5v13q0 24 -11 38.5t-43 14.5t-43 -14.5
t-11 -38.5v-13q0 -24 11 -38.5t43 -14.5z" />
  </g>

</svg>
