<?xml version="1.0" standalone="no"?>
<!DOCTYPE svg PUBLIC "-//W3C//DTD SVG 1.1//EN" "http://www.w3.org/Graphics/SVG/1.1/DTD/svg11.dtd" >
<svg xmlns="http://www.w3.org/2000/svg" xmlns:xlink="http://www.w3.org/1999/xlink" version="1.1" viewBox="-10 0 870 1000">
  <g transform="matrix(1 0 0 -1 0 800)">
   <path fill="currentColor"
d="M75 289l218 218l35 -27l-110 -169l356 21q22 0 42.5 5t36 16.5t25 28.5t9.5 41t-9.5 41t-25 28.5t-36 16.5t-42.5 5v85q46 0 85 -11.5t67 -34t43.5 -55t15.5 -75.5q0 -40 -15 -72.5t-42.5 -56t-66.5 -36t-87 -12.5l-356 21l110 -169l-35 -27z" />
  </g>

</svg>
