<?xml version="1.0" standalone="no"?>
<!DOCTYPE svg PUBLIC "-//W3C//DTD SVG 1.1//EN" "http://www.w3.org/Graphics/SVG/1.1/DTD/svg11.dtd" >
<svg xmlns="http://www.w3.org/2000/svg" xmlns:xlink="http://www.w3.org/1999/xlink" version="1.1" viewBox="-10 0 750 1000">
  <g transform="matrix(1 0 0 -1 0 800)">
   <path fill="currentColor"
d="M164.5 70.5q-69.5 78.5 -69.5 243.5v367l-71 12v50h267v-50l-85 -13v-377q0 -136 48.5 -196t139.5 -60t136.5 64t45.5 186v383l-84 13v50h233v-50l-73 -12v-379q0 -156 -74 -233t-197 -77q-147 0 -216.5 78.5zM316 829l134 152l81 -51q-28 -35 -77.5 -74t-87.5 -57z" />
  </g>

</svg>
