<?xml version="1.0" standalone="no"?>
<!DOCTYPE svg PUBLIC "-//W3C//DTD SVG 1.1//EN" "http://www.w3.org/Graphics/SVG/1.1/DTD/svg11.dtd" >
<svg xmlns="http://www.w3.org/2000/svg" xmlns:xlink="http://www.w3.org/1999/xlink" version="1.1" viewBox="-10 0 879 1000">
  <g transform="matrix(1 0 0 -1 0 800)">
   <path fill="currentColor"
d="M89.5 29.5q-48.5 40.5 -48.5 118.5q0 94 93 139.5t236 48.5q0 67 -8 99t-31 44.5t-72 12.5q-50 0 -91.5 -14.5t-87.5 -38.5l-25 51q14 13 51.5 31.5t85 32t93.5 13.5q66 0 105 -17.5t57 -56.5q35 37 81.5 57t100.5 20q94 0 145.5 -51.5t54.5 -147.5q0 -61 -7 -93h-345
q2 -99 46 -159.5t125 -60.5q40 0 83.5 14.5t67.5 33.5l19 -43q-29 -30 -85.5 -52t-114.5 -22q-71 0 -122.5 28t-82.5 79q-29 -42 -82 -74.5t-121 -32.5q-72 0 -120.5 40.5zM719 331q1 13 1 43q0 65 -26.5 102.5t-82.5 37.5q-58 0 -93 -42t-40 -141h241zM335 82q39 25 57 57
q-23 65 -23 148q-105 -1 -159.5 -36t-54.5 -90q0 -54 26.5 -79t71.5 -25q43 0 82 25zM377 686l160 199l76 -64q-21 -34 -90 -93t-107 -75z" />
  </g>

</svg>
