<?xml version="1.0" standalone="no"?>
<!DOCTYPE svg PUBLIC "-//W3C//DTD SVG 1.1//EN" "http://www.w3.org/Graphics/SVG/1.1/DTD/svg11.dtd" >
<svg xmlns="http://www.w3.org/2000/svg" xmlns:xlink="http://www.w3.org/1999/xlink" version="1.1" viewBox="-10 0 766 1000">
  <g transform="matrix(1 0 0 -1 0 800)">
   <path fill="currentColor"
d="M739 352l-81 -11q1 -68 -20 -129t-58 -100q34 -31 63 -46t67 -17v-44q-9 -5 -32.5 -8t-39.5 -3q-35 0 -63.5 13t-65.5 44q-38 -31 -87 -45.5t-97 -14.5q-122 0 -193.5 52t-71.5 144q0 64 41.5 110t108.5 74q-87 110 -87 206q0 47 26 87t71.5 64t101.5 24q58 0 98.5 -20
t60.5 -52t20 -66q0 -57 -21 -97t-55 -68t-96 -68q35 -42 91.5 -105t92.5 -100l25 -24q25 32 36 74.5t11 86.5q0 19 -1 28l-81 11v55h236v-55zM243.5 498.5q21.5 -40.5 55.5 -79.5q62 50 87 90t25 100q0 37 -20 67.5t-70 30.5q-42 0 -70.5 -33t-28.5 -84t21.5 -91.5z
M403 57.5q35 10.5 62 30.5q-40 36 -87.5 88.5t-118.5 135.5l-17 20q-85 -66 -85 -138q0 -64 46 -105.5t130 -41.5q35 0 70 10.5z" />
  </g>

</svg>
