<?xml version="1.0" standalone="no"?>
<!DOCTYPE svg PUBLIC "-//W3C//DTD SVG 1.1//EN" "http://www.w3.org/Graphics/SVG/1.1/DTD/svg11.dtd" >
<svg xmlns="http://www.w3.org/2000/svg" xmlns:xlink="http://www.w3.org/1999/xlink" version="1.1" viewBox="-10 0 1050 1000">
  <g transform="matrix(1 0 0 -1 0 800)">
   <path fill="currentColor"
d="M151.5 705q56.5 98 154 155t214.5 57t214.5 -57t154 -155t56.5 -215t-56.5 -215.5t-154 -156t-214.5 -57.5t-214.5 57.5t-154 156t-56.5 215.5t56.5 215zM202.5 301.5q48.5 -86.5 132.5 -137.5t185 -51t185 51t132 137.5t48 188.5q0 101 -48 187.5t-132 137.5t-185 51
q-102 0 -186 -51t-132 -137.5t-48 -187.5q0 -102 48.5 -188.5zM361 316q-56 64 -56 170q0 68 32 124t88.5 88.5t126.5 32.5q35 0 73.5 -8.5t51.5 -21.5v-110h-53l-20 64q-23 18 -82 18q-61 0 -96 -46t-35 -125q0 -81 44.5 -130.5t116.5 -49.5q32 0 60 12t48 32l23 -40
q-24 -29 -67.5 -51.5t-92.5 -22.5q-106 0 -162 64z" />
  </g>

</svg>
