<?xml version="1.0" standalone="no"?>
<!DOCTYPE svg PUBLIC "-//W3C//DTD SVG 1.1//EN" "http://www.w3.org/Graphics/SVG/1.1/DTD/svg11.dtd" >
<svg xmlns="http://www.w3.org/2000/svg" xmlns:xlink="http://www.w3.org/1999/xlink" version="1.1" viewBox="-10 0 518 1000">
  <g transform="matrix(1 0 0 -1 0 800)">
   <path fill="currentColor"
d="M113.5 27q-61.5 36 -61.5 106q0 37 26.5 68.5t76.5 50.5q-38 23 -59 51t-21 68q0 63 52.5 100.5t128.5 37.5q82 0 128 -36t46 -89q0 -33 -23 -66.5t-64 -55.5q53 -24 83 -54t30 -75q0 -43 -26.5 -75t-72 -49.5t-99.5 -17.5q-83 0 -144.5 36zM176 344.5
q19 -18.5 45.5 -31.5t75.5 -32q27 16 43 43.5t16 50.5q0 41 -27.5 67t-73.5 26q-41 0 -69.5 -22.5t-28.5 -57.5q0 -25 19 -43.5zM347 154q-16 17 -40 28.5t-67 29.5q-30 12 -45 19q-28 -11 -44.5 -34.5t-16.5 -50.5q0 -51 32.5 -82t89.5 -31q42 0 74.5 23t32.5 58
q0 23 -16 40z" />
  </g>

</svg>
