<?xml version="1.0" standalone="no"?>
<!DOCTYPE svg PUBLIC "-//W3C//DTD SVG 1.1//EN" "http://www.w3.org/Graphics/SVG/1.1/DTD/svg11.dtd" >
<svg xmlns="http://www.w3.org/2000/svg" xmlns:xlink="http://www.w3.org/1999/xlink" version="1.1" viewBox="-10 0 692 1000">
  <g transform="matrix(1 0 0 -1 0 800)">
   <path fill="currentColor"
d="M202.5 33q-70.5 43 -110 120t-39.5 175t36.5 174.5t108 119.5t172.5 43q73 0 130.5 -31.5t92 -90t36.5 -136.5q0 -30 -1 -57t-4 -44h-429v-176q29 -41 73.5 -62t98.5 -21q57 0 109 12.5t79 30.5l23 -46q-31 -23 -93 -38.5t-122 -15.5q-90 0 -160.5 43zM262.5 595
q-41.5 -18 -67.5 -59v-175h301v198q-43 54 -132 54q-60 0 -101.5 -18z" />
  </g>

</svg>
