<?xml version="1.0" standalone="no"?>
<!DOCTYPE svg PUBLIC "-//W3C//DTD SVG 1.1//EN" "http://www.w3.org/Graphics/SVG/1.1/DTD/svg11.dtd" >
<svg xmlns="http://www.w3.org/2000/svg" xmlns:xlink="http://www.w3.org/1999/xlink" version="1.1" viewBox="-10 0 617 1000">
  <g transform="matrix(1 0 0 -1 0 800)">
   <path fill="currentColor"
d="M98.5 -229.5q-57.5 40.5 -57.5 111.5q0 44 27.5 81t65.5 56q-46 26 -46 84q0 36 21 68t55 49q-50 22 -76.5 63t-26.5 97q0 58 32.5 101t86 66t113.5 23q101 0 158 -42q15 15 46 29t66 14h34v-88h-110q24 -37 24 -86q0 -59 -29.5 -104.5t-82 -70.5t-118.5 -25q-43 0 -77 9
q-14 -14 -23 -31t-9 -33q0 -36 24 -49.5t86 -13.5h113q97 0 144 -37t47 -105q0 -57 -41 -104.5t-110.5 -75t-150.5 -27.5q-128 0 -185.5 40.5zM405 387q0 67 -29.5 98.5t-88.5 31.5q-55 0 -87 -30.5t-32 -97.5q0 -63 30.5 -100t92.5 -37q114 0 114 135zM385.5 -197.5
q43.5 14.5 70.5 43t27 66.5q0 45 -24 65.5t-93 20.5h-118q-40 0 -63 5q-41 -45 -41 -101t34 -85t115 -29q49 0 92.5 14.5zM351 860l140 -195l-40 -28l-140 144l-145 -144l-38 27l143 196h80z" />
  </g>

</svg>
