<?xml version="1.0" standalone="no"?>
<!DOCTYPE svg PUBLIC "-//W3C//DTD SVG 1.1//EN" "http://www.w3.org/Graphics/SVG/1.1/DTD/svg11.dtd" >
<svg xmlns="http://www.w3.org/2000/svg" xmlns:xlink="http://www.w3.org/1999/xlink" version="1.1" viewBox="-10 0 1047 1000">
  <g transform="matrix(1 0 0 -1 0 800)">
   <path fill="currentColor"
d="M639 751h76l-320 -751h-76zM137 348.5q-41 27.5 -62.5 73.5t-21.5 102q0 66 26.5 114t71.5 73t98 25q91 0 135 -57t44 -149q0 -65 -27 -112.5t-71.5 -72t-97.5 -24.5q-54 0 -95 27.5zM311 414q25 41 25 112q0 70 -23.5 113.5t-69.5 43.5q-47 0 -72 -41t-25 -113
q0 -65 24 -110.5t69 -45.5q47 0 72 41zM690.5 47.5q-40.5 27.5 -62 74t-21.5 102.5q0 65 26.5 113t71.5 73.5t98 25.5q89 0 133.5 -57.5t44.5 -148.5q0 -65 -27 -112.5t-71.5 -72.5t-97.5 -25q-54 0 -94.5 27.5zM864 114q26 41 26 112q0 70 -23.5 113.5t-69.5 43.5
q-47 0 -72.5 -41.5t-25.5 -112.5q0 -66 24 -111t68 -45q47 0 73 41z" />
  </g>

</svg>
