<?xml version="1.0" standalone="no"?>
<!DOCTYPE svg PUBLIC "-//W3C//DTD SVG 1.1//EN" "http://www.w3.org/Graphics/SVG/1.1/DTD/svg11.dtd" >
<svg xmlns="http://www.w3.org/2000/svg" xmlns:xlink="http://www.w3.org/1999/xlink" version="1.1" viewBox="-10 0 654 1000">
  <g transform="matrix(1 0 0 -1 0 800)">
   <path fill="currentColor"
d="M115 -224v11q24 19 47 62t23 105q0 34 -10 54.5t-29 45.5q-14 17 -20.5 28.5t-6.5 28.5q0 26 14.5 40.5t38.5 14.5q26 0 49 -23t36.5 -61.5t13.5 -80.5q0 -61 -21 -113.5t-51 -88.5t-55 -50h-1zM378 -224v11q24 19 46.5 62t22.5 105q0 34 -10 54.5t-29 45.5
q-14 17 -20.5 28.5t-6.5 28.5q0 26 14.5 40.5t38.5 14.5q26 0 49 -23t36.5 -61.5t13.5 -80.5q0 -61 -21 -113.5t-51 -88.5t-55 -50h-1z" />
  </g>

</svg>
