<?xml version="1.0" standalone="no"?>
<!DOCTYPE svg PUBLIC "-//W3C//DTD SVG 1.1//EN" "http://www.w3.org/Graphics/SVG/1.1/DTD/svg11.dtd" >
<svg xmlns="http://www.w3.org/2000/svg" xmlns:xlink="http://www.w3.org/1999/xlink" version="1.1" viewBox="-10 0 1122 1000">
  <g transform="matrix(1 0 0 -1 0 800)">
   <path fill="currentColor"
d="M211 717l-87 -3l-19 -70l-38 -1l9 117h355v-116l-36 -2l-12 72l-89 4v-296l67 -7v-40h-214v40l64 7v295zM551 713l-55 4v43h174l72 -204l27 -89l100 293h161v-43l-55 -4l26 -291l51 -7v-40h-179v40l47 7l-12 190l-5 108l-18 -57l-102 -292h-54l-98 267l-33 85l-2 -88
l-13 -213l47 -7v-40h-155v40l55 7z" />
  </g>

</svg>
