<?xml version="1.0" standalone="no"?>
<!DOCTYPE svg PUBLIC "-//W3C//DTD SVG 1.1//EN" "http://www.w3.org/Graphics/SVG/1.1/DTD/svg11.dtd" >
<svg xmlns="http://www.w3.org/2000/svg" xmlns:xlink="http://www.w3.org/1999/xlink" version="1.1" viewBox="-21 0 743 1000">
  <g transform="matrix(1 0 0 -1 0 800)">
   <path fill="currentColor"
d="M170.5 -180.5q-49.5 -62.5 -130.5 -62.5q-39 0 -46 4l-5 47q8 -1 23.5 2t31.5 9q41 14 58 68t17 143l-1 462l-75 14v49h261v-49l-84 -14v-175h277v175l-83 14v49h259v-49l-72 -14v-434l76 -9v-49h-266v49l86 9v201h-277v-252q0 -125 -49.5 -187.5z" />
  </g>

</svg>
