<?xml version="1.0" standalone="no"?>
<!DOCTYPE svg PUBLIC "-//W3C//DTD SVG 1.1//EN" "http://www.w3.org/Graphics/SVG/1.1/DTD/svg11.dtd" >
<svg xmlns="http://www.w3.org/2000/svg" xmlns:xlink="http://www.w3.org/1999/xlink" version="1.1" viewBox="-10 0 672 1000">
  <g transform="matrix(1 0 0 -1 0 800)">
   <path fill="currentColor"
d="M122 726q44 12 80.5 18.5t89.5 6.5q106 0 182 -48.5t115.5 -135.5t39.5 -201q0 -112 -44 -197.5t-124 -132.5t-185 -47q-42 0 -73 6t-71 17q-45 14 -69 14l-18 148l69 11l40 -99q22 -17 52.5 -29t83.5 -12q63 0 111.5 35.5t76.5 104t29 164.5l-327 -9v81l324 -9
q-10 126 -65.5 205t-153.5 79q-51 0 -79 -12.5t-52 -33.5l-27 -96h-71l2 159q25 1 64 13zM162 837.5q-15 18.5 -15 44.5q0 32 16.5 53t48.5 21h1q28 0 44 -19t16 -45q0 -32 -18 -52.5t-52 -20.5h-1q-25 0 -40 18.5zM406.5 837.5q-15.5 18.5 -15.5 44.5q0 31 17 52.5t48 21.5
h1q28 0 43.5 -19t15.5 -45q0 -32 -17.5 -52.5t-51.5 -20.5q-25 0 -40.5 18.5z" />
  </g>

</svg>
