<?xml version="1.0" standalone="no"?>
<!DOCTYPE svg PUBLIC "-//W3C//DTD SVG 1.1//EN" "http://www.w3.org/Graphics/SVG/1.1/DTD/svg11.dtd" >
<svg xmlns="http://www.w3.org/2000/svg" xmlns:xlink="http://www.w3.org/1999/xlink" version="1.1" viewBox="-10 0 854 1000">
  <g transform="matrix(1 0 0 -1 0 800)">
   <path fill="currentColor"
d="M335 743v-50l-98 -12v-502l82 123l288 352v27l-89 12v50h275v-50l-80 -12v-622l85 -10v-49h-279v49l88 10v509l-74 -116l-296 -357v-36l94 -10v-49h-282v49l83 10v622l-80 12v50h283zM330 944q0 -42 22.5 -65t78.5 -23t78.5 23t22.5 65q0 39 15 39h75l1 -22
q0 -75 -49.5 -113.5t-142.5 -38.5q-92 0 -142 39t-50 113l1 22h74q16 0 16 -39z" />
  </g>

</svg>
