<?xml version="1.0" standalone="no"?>
<!DOCTYPE svg PUBLIC "-//W3C//DTD SVG 1.1//EN" "http://www.w3.org/Graphics/SVG/1.1/DTD/svg11.dtd" >
<svg xmlns="http://www.w3.org/2000/svg" xmlns:xlink="http://www.w3.org/1999/xlink" version="1.1" viewBox="-10 0 610 1000">
  <g transform="matrix(1 0 0 -1 0 800)">
   <path fill="currentColor"
d="M494.5 490q63.5 -80 63.5 -210q0 -91 -37 -157t-97.5 -100t-129.5 -34q-126 0 -189.5 80t-63.5 210q0 90 37 156t97.5 100.5t129.5 34.5q126 0 189.5 -80zM197 463.5q-37 -49.5 -40 -149.5q31 18 69 18q28 0 48.5 -7.5t46.5 -22.5q21 -13 37 -19t36 -6q27 0 49 11
q-2 105 -36 165t-107 60q-66 0 -103 -49.5zM157 257q6 -98 40.5 -154.5t103.5 -56.5q60 0 96 46t44 134q-23 -14 -55 -14q-30 0 -50.5 7.5t-48.5 23.5q-22 13 -38.5 19t-37.5 6q-30 0 -54 -11z" />
  </g>

</svg>
