<?xml version="1.0" standalone="no"?>
<!DOCTYPE svg PUBLIC "-//W3C//DTD SVG 1.1//EN" "http://www.w3.org/Graphics/SVG/1.1/DTD/svg11.dtd" >
<svg xmlns="http://www.w3.org/2000/svg" xmlns:xlink="http://www.w3.org/1999/xlink" version="1.1" viewBox="-10 0 722 1000">
  <g transform="matrix(1 0 0 -1 0 800)">
   <path fill="currentColor"
d="M447 354q70 -95 106 -148.5t58 -102.5t22 -92q0 -68 -42 -123.5t-137 -86.5l-29 51q58 22 82 52t24 74q0 35 -17 78t-57.5 109t-116.5 175l-167 -281l100 -10v-49h-266v49l85 10l214 320l-211 301l-74 13v50h298v-50l-95 -13l159 -245l153 246l-88 12v50h246v-50l-80 -13
l-199 -282z" />
  </g>

</svg>
