<?xml version="1.0" standalone="no"?>
<!DOCTYPE svg PUBLIC "-//W3C//DTD SVG 1.1//EN" "http://www.w3.org/Graphics/SVG/1.1/DTD/svg11.dtd" >
<svg xmlns="http://www.w3.org/2000/svg" xmlns:xlink="http://www.w3.org/1999/xlink" version="1.1" viewBox="-10 0 689 1000">
  <g transform="matrix(1 0 0 -1 0 800)">
   <path fill="currentColor"
d="M375.5 510q-17.5 4 -49.5 4q-82 0 -130 -59.5t-48 -165.5q0 -67 25 -123.5t68 -89t96 -32.5q38 0 53 2q-49 33 -74.5 86t-25.5 118q0 89 49.5 140.5t133.5 51.5q49 0 88 -24t61.5 -66t22.5 -96q0 -69 -24 -123t-72 -88q6 0 25.5 -2t37.5 -1q35 0 48 3l-2 -49
q-9 -2 -31 -4t-40 -2q-62 0 -118 16q-56 -17 -128 -17q-92 0 -160.5 39t-105 105.5t-36.5 148.5q0 84 36 149.5t99 102t143 36.5q73 0 107 -26l-19 -46q-12 8 -29.5 12zM405.5 354q-19.5 -40 -19.5 -104q0 -63 18.5 -110t65.5 -73q42 20 60.5 64t18.5 130q0 58 -22.5 95.5
t-58.5 37.5q-43 0 -62.5 -40z" />
  </g>

</svg>
