<?xml version="1.0" standalone="no"?>
<!DOCTYPE svg PUBLIC "-//W3C//DTD SVG 1.1//EN" "http://www.w3.org/Graphics/SVG/1.1/DTD/svg11.dtd" >
<svg xmlns="http://www.w3.org/2000/svg" xmlns:xlink="http://www.w3.org/1999/xlink" version="1.1" viewBox="-10 0 693 1000">
  <g transform="matrix(1 0 0 -1 0 800)">
   <path fill="currentColor"
d="M120 494l-59 21v38l144 12l19 -11v-392q0 -20 13.5 -44t40.5 -41t65 -17q47 0 78 22.5t43 47.5v364l-68 21l-1 38l158 12l15 -11v-504h59v-46q-18 -7 -45.5 -12t-53.5 -5q-48 0 -48 43v46q-18 -37 -56 -61.5t-84 -24.5q-37 0 -70.5 13.5t-52.5 37.5v-223h-96z" />
  </g>

</svg>
