<?xml version="1.0" standalone="no"?>
<!DOCTYPE svg PUBLIC "-//W3C//DTD SVG 1.1//EN" "http://www.w3.org/Graphics/SVG/1.1/DTD/svg11.dtd" >
<svg xmlns="http://www.w3.org/2000/svg" xmlns:xlink="http://www.w3.org/1999/xlink" version="1.1" viewBox="-10 0 618 1000">
  <g transform="matrix(1 0 0 -1 0 800)">
   <path fill="currentColor"
d="M138 731q45 10 77 15t62 5q125 0 192 -42t67 -127q0 -80 -50.5 -128t-121.5 -62q93 -2 143.5 -50.5t50.5 -123.5q0 -108 -66.5 -166t-211.5 -58q-60 0 -106 10t-72.5 18.5t-32.5 10.5l18 173h50l28 -130q48 -26 134 -26q67 0 101.5 40t34.5 120q0 62 -37 104t-127 42h-70
v56h58q42 0 79.5 17t60.5 52.5t23 86.5q0 67 -37.5 98t-103.5 31q-44 0 -74.5 -11t-40.5 -28l-19 -93h-63l-10 154q16 1 64 12z" />
  </g>

</svg>
