<?xml version="1.0" standalone="no"?>
<!DOCTYPE svg PUBLIC "-//W3C//DTD SVG 1.1//EN" "http://www.w3.org/Graphics/SVG/1.1/DTD/svg11.dtd" >
<svg xmlns="http://www.w3.org/2000/svg" xmlns:xlink="http://www.w3.org/1999/xlink" version="1.1" viewBox="-10 0 833 1000">
  <g transform="matrix(1 0 0 -1 0 800)">
   <path fill="currentColor"
d="M696 86q-2 -57 -11 -99q-18 -66 -80 -110.5t-141 -58.5l-25 44q44 11 78.5 37.5t52.5 65.5q12 32 15.5 79.5t4.5 177.5v128h-352v-291l87 -10v-49h-275v49l81 10v622l-79 12v50h272v-50l-86 -12v-269h352v269l-81 12v50h272v-50l-83 -12v-421q0 -117 -2 -174z" />
  </g>

</svg>
