<?xml version="1.0" standalone="no"?>
<!DOCTYPE svg PUBLIC "-//W3C//DTD SVG 1.1//EN" "http://www.w3.org/Graphics/SVG/1.1/DTD/svg11.dtd" >
<svg xmlns="http://www.w3.org/2000/svg" xmlns:xlink="http://www.w3.org/1999/xlink" version="1.1" viewBox="-10 0 701 1000">
  <g transform="matrix(1 0 0 -1 0 800)">
   <path fill="currentColor"
d="M487 249.5q29 -35.5 67 -94.5q31 -48 49.5 -71t35.5 -26l42 -11v-47h-114q-27 0 -51 32t-60 97q-35 65 -61 99t-55 35v-130h-59v133h-57v-210l89 -7v-49h-267v49l76 7v439l-75 13v47h266v-47l-89 -13v-182h57v117h59v-117h25l135 183l-77 12v47h234v-47l-73 -12
l-159 -194q33 -17 62 -52.5z" />
  </g>

</svg>
