<?xml version="1.0" standalone="no"?>
<!DOCTYPE svg PUBLIC "-//W3C//DTD SVG 1.1//EN" "http://www.w3.org/Graphics/SVG/1.1/DTD/svg11.dtd" >
<svg xmlns="http://www.w3.org/2000/svg" xmlns:xlink="http://www.w3.org/1999/xlink" version="1.1" viewBox="-10 0 675 1000">
  <g transform="matrix(1 0 0 -1 0 800)">
   <path fill="currentColor"
d="M171 23q-58 34 -91.5 100t-35.5 160q0 77 7 105h472q-4 95 -31 164.5t-73.5 107t-106.5 37.5q-62 0 -97 -16t-61 -42l-18 -77l-71 1l5 149q23 1 67 13q49 12 91 19t100 7q91 0 160 -46t107 -131t38 -197q0 -115 -42.5 -203.5t-117.5 -136.5t-168 -48q-76 0 -134 34z
M467 119.5q53 68.5 56 210.5h-366q-3 -18 -3 -54q0 -56 18 -107.5t57 -84.5t97 -33q88 0 141 68.5zM158 837.5q-15 18.5 -15 44.5q0 32 16.5 53t48.5 21h1q28 0 44 -19t16 -45q0 -32 -18 -52.5t-52 -20.5h-1q-25 0 -40 18.5zM402.5 837.5q-15.5 18.5 -15.5 44.5
q0 31 17 52.5t48 21.5h1q28 0 43.5 -19t15.5 -45q0 -32 -17.5 -52.5t-51.5 -20.5q-25 0 -40.5 18.5z" />
  </g>

</svg>
