<?xml version="1.0" standalone="no"?>
<!DOCTYPE svg PUBLIC "-//W3C//DTD SVG 1.1//EN" "http://www.w3.org/Graphics/SVG/1.1/DTD/svg11.dtd" >
<svg xmlns="http://www.w3.org/2000/svg" xmlns:xlink="http://www.w3.org/1999/xlink" version="1.1" viewBox="-11 0 666 1000">
  <g transform="matrix(1 0 0 -1 0 800)">
   <path fill="currentColor"
d="M531 16q-49 -21 -102 -26q21 -23 38 -57t17 -69q0 -57 -32.5 -81t-97.5 -24q-17 0 -37 4t-34 9l1 69q10 -4 23 -6t22 -2q40 0 57 13.5t17 57.5q0 38 -27 87q-106 9 -163 85t-58 204q-71 2 -113.5 26.5t-42.5 75.5q0 21 9 48.5t17 32.5l73 -13q-7 -7 -13.5 -29t-6.5 -35
q0 -50 81 -53q15 108 84.5 172.5t171.5 64.5q93 0 144 -50.5t55 -147.5q2 -64 -5 -94h-343q3 -108 46.5 -164t121.5 -56q44 0 85 14t66 34l20 -43q-25 -26 -74 -47zM506 371q0 64 -25.5 105.5t-84.5 41.5q-119 0 -131 -187h240z" />
  </g>

</svg>
