<?xml version="1.0" standalone="no"?>
<!DOCTYPE svg PUBLIC "-//W3C//DTD SVG 1.1//EN" "http://www.w3.org/Graphics/SVG/1.1/DTD/svg11.dtd" >
<svg xmlns="http://www.w3.org/2000/svg" xmlns:xlink="http://www.w3.org/1999/xlink" version="1.1" viewBox="-10 0 747 1000">
  <g transform="matrix(1 0 0 -1 0 800)">
   <path fill="currentColor"
d="M583.5 38q-63.5 -46 -176.5 -46q-111 0 -196 49t-131 133.5t-46 187.5q0 118 50 206.5t136.5 135.5t193.5 47t239 -31l-10 -172h-70l-23 120q-13 11 -49.5 20t-95.5 9q-74 0 -130 -35t-87.5 -105.5t-31.5 -172.5q0 -87 29.5 -164t87 -124.5t137.5 -47.5q70 -1 101.5 30
t31.5 104v163l-78 12v54h254v-54l-72 -12v-178q0 -83 -63.5 -129z" />
  </g>

</svg>
