<?xml version="1.0" standalone="no"?>
<!DOCTYPE svg PUBLIC "-//W3C//DTD SVG 1.1//EN" "http://www.w3.org/Graphics/SVG/1.1/DTD/svg11.dtd" >
<svg xmlns="http://www.w3.org/2000/svg" xmlns:xlink="http://www.w3.org/1999/xlink" version="1.1" viewBox="-10 0 661 1000">
  <g transform="matrix(1 0 0 -1 0 800)">
   <path fill="currentColor"
d="M129 681l-82 12v50h509l14 -155h-57l-29 97l-248 6v-282l167 3l14 83h55v-230h-55l-14 86l-167 3v-298l282 10l53 126l59 -18l-29 -174h-555v49l83 10v622zM369 825.5q-19 10.5 -44 30.5q-17 15 -29.5 22.5t-27.5 7.5q-25 0 -37.5 -15.5t-22.5 -43.5l-47 27q14 45 42 73
t71 28q31 0 50.5 -11t43.5 -33q17 -15 28 -22t24 -7q22 0 35.5 17t23.5 44l47 -27q-15 -47 -40 -74t-69 -27q-29 0 -48 10.5z" />
  </g>

</svg>
