<?xml version="1.0" standalone="no"?>
<!DOCTYPE svg PUBLIC "-//W3C//DTD SVG 1.1//EN" "http://www.w3.org/Graphics/SVG/1.1/DTD/svg11.dtd" >
<svg xmlns="http://www.w3.org/2000/svg" xmlns:xlink="http://www.w3.org/1999/xlink" version="1.1" viewBox="-23 0 738 1000">
  <g transform="matrix(1 0 0 -1 0 800)">
   <path fill="currentColor"
d="M290 749h110l243 -690l62 -10v-49h-264v49l83 10l-47 148h-292l-47 -148l86 -10v-49h-237v49l62 10zM353 589l-25 88l-24 -90l-101 -321h255zM503 881l94 102l57 -47q-15 -22 -44 -46.5t-68 -46.5zM385 947l121 -133l-35 -34l-128 96l-128 -97l-36 35l122 133h84z" />
  </g>

</svg>
