<?xml version="1.0" standalone="no"?>
<!DOCTYPE svg PUBLIC "-//W3C//DTD SVG 1.1//EN" "http://www.w3.org/Graphics/SVG/1.1/DTD/svg11.dtd" >
<svg xmlns="http://www.w3.org/2000/svg" xmlns:xlink="http://www.w3.org/1999/xlink" version="1.1" viewBox="-10 0 664 1000">
  <g transform="matrix(1 0 0 -1 0 800)">
   <path fill="currentColor"
d="M480 695l-296 -11l-51 -133l-57 8l22 187h485l23 -43l-380 -576l-67 -74l346 18l52 157l59 -13l-23 -215h-532l-27 44l388 580zM276.5 -185.5q-16.5 18.5 -16.5 46.5q0 32 18.5 54t51.5 22q30 0 47 -19t17 -46q0 -33 -19 -54.5t-54 -21.5h-1q-27 0 -43.5 18.5z" />
  </g>

</svg>
