<?xml version="1.0" standalone="no"?>
<!DOCTYPE svg PUBLIC "-//W3C//DTD SVG 1.1//EN" "http://www.w3.org/Graphics/SVG/1.1/DTD/svg11.dtd" >
<svg xmlns="http://www.w3.org/2000/svg" xmlns:xlink="http://www.w3.org/1999/xlink" version="1.1" viewBox="-10 0 809 1000">
  <g transform="matrix(1 0 0 -1 0 800)">
   <path fill="currentColor"
d="M130 681l-80 12v50h186l333 -488l56 -106v532l-87 12v50h236v-50l-80 -12v-681h-79l-340 499l-77 132v-572l95 -10v-49h-243v49l80 11v621zM349.5 -185.5q-16.5 18.5 -16.5 46.5q0 32 18.5 54t51.5 22q30 0 47 -19t17 -46q0 -33 -19 -54.5t-54 -21.5h-1q-27 0 -43.5 18.5
z" />
  </g>

</svg>
