<?xml version="1.0" standalone="no"?>
<!DOCTYPE svg PUBLIC "-//W3C//DTD SVG 1.1//EN" "http://www.w3.org/Graphics/SVG/1.1/DTD/svg11.dtd" >
<svg xmlns="http://www.w3.org/2000/svg" xmlns:xlink="http://www.w3.org/1999/xlink" version="1.1" viewBox="-10 0 732 1000">
  <g transform="matrix(1 0 0 -1 0 800)">
   <path fill="currentColor"
d="M176.5 36q-70.5 47 -106.5 132.5t-36 198.5q0 115 43.5 202t119.5 134.5t171 47.5q156 0 238.5 -98.5t82.5 -272.5q0 -117 -44.5 -205.5t-122 -137t-173.5 -48.5q-102 0 -172.5 47zM209 614.5q-56 -84.5 -56 -247.5q0 -150 54.5 -237.5t152.5 -87.5q96 0 152.5 87
t56.5 250q0 151 -54 235.5t-153 84.5q-97 0 -153 -84.5zM332.5 795q-4.5 12 -4.5 25q0 9 6.5 15t19.5 14q16 9 23.5 16.5t7.5 19.5q0 36 -56 36q-27 0 -45 -10l-2 57q13 6 33 10.5t37 4.5q114 0 114 -84q0 -23 -11.5 -36t-34.5 -27l-22 -15q-13 -10 -13 -29q0 -8 3 -16h-44
q-7 7 -11.5 19z" />
  </g>

</svg>
