<?xml version="1.0" standalone="no"?>
<!DOCTYPE svg PUBLIC "-//W3C//DTD SVG 1.1//EN" "http://www.w3.org/Graphics/SVG/1.1/DTD/svg11.dtd" >
<svg xmlns="http://www.w3.org/2000/svg" xmlns:xlink="http://www.w3.org/1999/xlink" version="1.1" viewBox="-10 0 646 1000">
  <g transform="matrix(1 0 0 -1 0 800)">
   <path fill="currentColor"
d="M121 33.5q-58 44.5 -58 115.5q0 41 19 72.5t59 65.5h-87v50h150q26 17 62 46l57 42h-269v51h333q62 50 62 118q0 51 -32 77.5t-90 26.5q-48 0 -84.5 -10t-51.5 -29l-19 -90h-63l-11 150q26 3 73 13q46 10 82.5 14.5t94.5 4.5q115 0 163.5 -44t48.5 -108q0 -62 -54 -123
h77v-51h-131l-28 -23q-56 -46 -84 -65h243v-50h-310q-53 -38 -75.5 -68t-22.5 -71q0 -46 32 -76.5t109 -30.5q89 0 146 46l42 96l59 -6l-19 -138q-15 -1 -34 -6.5t-37 -11.5q-42 -15 -79.5 -23.5t-87.5 -8.5q-127 0 -185 44.5z" />
  </g>

</svg>
