<?xml version="1.0" standalone="no"?>
<!DOCTYPE svg PUBLIC "-//W3C//DTD SVG 1.1//EN" "http://www.w3.org/Graphics/SVG/1.1/DTD/svg11.dtd" >
<svg xmlns="http://www.w3.org/2000/svg" xmlns:xlink="http://www.w3.org/1999/xlink" version="1.1" viewBox="-10 0 1034 1000">
  <g transform="matrix(1 0 0 -1 0 800)">
   <path fill="currentColor"
d="M631 751h76l-320 -751h-76zM117.5 376.5q-49.5 56.5 -49.5 146.5q0 57 24.5 105.5t71.5 78t110 29.5q33 0 59 -5.5t55 -14.5l-3 -128h-57l-12 70q-17 22 -56 22q-46 0 -73.5 -37.5t-27.5 -101.5q0 -77 30 -117.5t78 -40.5q57 0 100 35l25 -45q-25 -22 -62.5 -37.5
t-77.5 -15.5q-85 0 -134.5 56.5zM679.5 47.5q-40.5 27.5 -62 74t-21.5 102.5q0 65 26.5 113t71.5 73.5t98 25.5q89 0 133.5 -57.5t44.5 -148.5q0 -65 -27 -112.5t-71.5 -72.5t-97.5 -25q-54 0 -94.5 27.5zM853 114q26 41 26 112q0 70 -23.5 113.5t-69.5 43.5
q-47 0 -72.5 -41.5t-25.5 -112.5q0 -66 24 -111t68 -45q47 0 73 41z" />
  </g>

</svg>
