<?xml version="1.0" standalone="no"?>
<!DOCTYPE svg PUBLIC "-//W3C//DTD SVG 1.1//EN" "http://www.w3.org/Graphics/SVG/1.1/DTD/svg11.dtd" >
<svg xmlns="http://www.w3.org/2000/svg" xmlns:xlink="http://www.w3.org/1999/xlink" version="1.1" viewBox="-10 0 762 1000">
  <g transform="matrix(1 0 0 -1 0 800)">
   <path fill="currentColor"
d="M152 681l-78 13v49h133q21 0 43 1.5t32 1.5q54 4 103 4q209 0 252 -157h105v-51h-96q3 -21 3 -43q0 -32 -8 -64h100v-51h-115q-31 -74 -102 -115.5t-165 -41.5q-17 0 -80 3l-20 1v-172l138 -11v-48h-328v48l83 11v325h-106v51h106v107h-106v51h106v88zM359 696
q-48 0 -100 -6v-97h268q-36 103 -168 103zM537 542h-278v-107h276q5 32 5 62q0 24 -3 45zM357 282q55 0 98.5 24.5t64.5 77.5h-261v-97q21 -5 98 -5z" />
  </g>

</svg>
