<?xml version="1.0" standalone="no"?>
<!DOCTYPE svg PUBLIC "-//W3C//DTD SVG 1.1//EN" "http://www.w3.org/Graphics/SVG/1.1/DTD/svg11.dtd" >
<svg xmlns="http://www.w3.org/2000/svg" xmlns:xlink="http://www.w3.org/1999/xlink" version="1.1" viewBox="-10 0 1115 1000">
  <g transform="matrix(1 0 0 -1 0 800)">
   <path fill="currentColor"
d="M179 373.5q-41 7.5 -71 17.5v87h56l12 -50q8 -9 31 -14.5t49 -5.5q82 0 82 62q0 26 -23.5 40.5t-80.5 30.5q-58 16 -89 45.5t-31 77.5q0 46 42 74.5t109 28.5q71 0 130 -21v-80h-50l-14 44q-6 8 -25 12.5t-43 4.5q-33 0 -51.5 -12t-18.5 -32q0 -32 23 -48t72 -31
q60 -18 95.5 -44t35.5 -71q0 -55 -44 -89t-120 -34q-35 0 -76 7.5zM547 718l-55 4v38h174l72 -204l27 -90l101 294h160v-38l-55 -4l26 -301l51 -6v-36h-179v36l47 5l-13 196l-4 108l-18 -57l-102 -292h-54l-98 267l-33 85l-1 -88l-15 -218l48 -6v-36h-155v36l55 6z" />
  </g>

</svg>
