<?xml version="1.0" standalone="no"?>
<!DOCTYPE svg PUBLIC "-//W3C//DTD SVG 1.1//EN" "http://www.w3.org/Graphics/SVG/1.1/DTD/svg11.dtd" >
<svg xmlns="http://www.w3.org/2000/svg" xmlns:xlink="http://www.w3.org/1999/xlink" version="1.1" viewBox="-10 0 871 1000">
  <g transform="matrix(1 0 0 -1 0 800)">
   <path fill="currentColor"
d="M551 -152q-35 -46 -74 -64t-83 -18q-46 0 -71.5 22.5t-25.5 62.5t27 76t78 64q-66 3 -115 19t-82 50t-49 86t-16 127v264q0 74 -3.5 114t-20.5 59q-12 13 -32.5 17.5t-54.5 4.5v38h341v-38q-34 0 -55 -4t-33 -20q-14 -18 -18 -57.5t-4 -113.5v-272q0 -51 10.5 -90.5
t34.5 -67t62.5 -41.5t94.5 -14q100 0 150 55.5t50 163.5v241q0 89 -7 135t-26 65q-14 13 -35 16.5t-52 3.5v38h290v-38q-32 0 -52.5 -5t-32.5 -22q-15 -21 -20 -65.5t-5 -127.5v-202q0 -75 -14 -132t-44 -97t-78 -62.5t-116 -26.5q-42 -26 -68 -58.5t-26 -59.5
q0 -20 13.5 -34t37.5 -14q19 0 44 13t51 40z" />
  </g>

</svg>
