<?xml version="1.0" standalone="no"?>
<!DOCTYPE svg PUBLIC "-//W3C//DTD SVG 1.1//EN" "http://www.w3.org/Graphics/SVG/1.1/DTD/svg11.dtd" >
<svg xmlns="http://www.w3.org/2000/svg" xmlns:xlink="http://www.w3.org/1999/xlink" version="1.1" viewBox="-15 0 762 1000">
  <g transform="matrix(1 0 0 -1 0 800)">
   <path fill="currentColor"
d="M114 646q-15 26 -28 42.5t-26.5 26.5t-28.5 13.5t-36 3.5v38h315v-38q-50 0 -70.5 -7.5t-20.5 -26.5q0 -21 23 -60l155 -265h4l113 190q32 54 45.5 85t13.5 50t-14.5 26.5t-50.5 7.5v38h229v-38q-21 0 -37.5 -6t-34.5 -24t-39.5 -50t-52.5 -84l-154 -260v-119
q0 -49 3.5 -78.5t15 -45.5t33 -21.5t57.5 -5.5v-38h-324v38q36 0 57.5 5.5t33 21t15.5 43.5t4 74v122zM237 846q8 51 37.5 82.5t68.5 31.5q20 0 39.5 -7t39 -16t38.5 -16t38 -7t29 9.5t18 32.5h33q-5 -51 -33.5 -84.5t-66.5 -33.5q-20 0 -40 7.5t-40.5 16.5t-41 16.5
t-40.5 7.5q-19 0 -28.5 -8.5t-16.5 -31.5h-34z" />
  </g>

</svg>
