<?xml version="1.0" standalone="no"?>
<!DOCTYPE svg PUBLIC "-//W3C//DTD SVG 1.1//EN" "http://www.w3.org/Graphics/SVG/1.1/DTD/svg11.dtd" >
<svg xmlns="http://www.w3.org/2000/svg" xmlns:xlink="http://www.w3.org/1999/xlink" version="1.1" viewBox="-10 0 780 1000">
  <g transform="matrix(1 0 0 -1 0 800)">
   <path fill="currentColor"
d="M710 0h-694v4l526 724h-274q-71 0 -106 -32t-49 -110h-37l15 184h609v-4l-521 -720h310q51 0 84 7.5t53.5 28.5t32 57.5t20.5 95.5h43zM437 850l-120 28q-34 8 -54.5 19.5t-20.5 27.5q0 17 10.5 26t27.5 9q20 0 39.5 -8t47.5 -25l130 -77h-60z" />
  </g>

</svg>
