<?xml version="1.0" standalone="no"?>
<!DOCTYPE svg PUBLIC "-//W3C//DTD SVG 1.1//EN" "http://www.w3.org/Graphics/SVG/1.1/DTD/svg11.dtd" >
<svg xmlns="http://www.w3.org/2000/svg" xmlns:xlink="http://www.w3.org/1999/xlink" version="1.1" viewBox="-10 0 575 1000">
  <g transform="matrix(1 0 0 -1 0 800)">
   <path fill="currentColor"
d="M534 -152q-35 -46 -74 -64t-83 -18q-46 0 -71.5 22.5t-25.5 62.5q0 43 31.5 81.5t89.5 66.5q-44 22 -44 98h-5q-26 -49 -72 -77.5t-102 -28.5q-63 0 -99 32t-36 86q0 24 8.5 46t27.5 42t50 39.5t76 39.5l144 63v41q0 122 -104 122q-17 0 -29 -3t-20 -10t-14.5 -20
t-12.5 -32q-11 -29 -21.5 -38.5t-30.5 -9.5q-50 0 -50 50q0 48 51 74.5t145 26.5q100 0 142 -35.5t42 -120.5v-224q0 -114 45 -114q14 0 27 3.5t22 18.5l14 -24q-11 -23 -41 -37.5t-63 -16.5q-42 -26 -67 -57.5t-25 -58.5q0 -20 13.5 -34t37.5 -14q19 0 44 13t51 40z
M349 296q-57 -22 -96.5 -43t-63.5 -42t-34.5 -42t-10.5 -43q0 -33 22 -54t58 -21q26 0 48.5 13t39.5 35.5t27 53t10 64.5v79z" />
  </g>

</svg>
