<?xml version="1.0" standalone="no"?>
<!DOCTYPE svg PUBLIC "-//W3C//DTD SVG 1.1//EN" "http://www.w3.org/Graphics/SVG/1.1/DTD/svg11.dtd" >
<svg xmlns="http://www.w3.org/2000/svg" xmlns:xlink="http://www.w3.org/1999/xlink" version="1.1" viewBox="-10 0 688 1000">
  <g transform="matrix(1 0 0 -1 0 800)">
   <path fill="currentColor"
d="M562 156q0 -38 3 -61.5t13 -37t27 -18t46 -4.5v-35h-266v35q27 0 43.5 5t25.5 17.5t12 34.5t3 57v562l-22 19q-35 31 -59 41.5t-51 10.5t-47.5 -8t-34 -29t-20 -58t-6.5 -95v-78h161v-47h-161v-306q0 -37 4.5 -61.5t15 -38.5t28.5 -20t46 -6v-35h-274v35q28 0 45 4t26 17
t12 36t3 61v314h-113v47h113v72q0 115 60.5 179.5t171.5 64.5q35 0 62.5 -6t46.5 -17l86 23v-674z" />
  </g>

</svg>
