<?xml version="1.0" standalone="no"?>
<!DOCTYPE svg PUBLIC "-//W3C//DTD SVG 1.1//EN" "http://www.w3.org/Graphics/SVG/1.1/DTD/svg11.dtd" >
<svg xmlns="http://www.w3.org/2000/svg" xmlns:xlink="http://www.w3.org/1999/xlink" version="1.1" viewBox="-10 0 682 1000">
  <g transform="matrix(1 0 0 -1 0 800)">
   <path fill="currentColor"
d="M93 0h-57l553 770h48zM467 140q-21 -11 -33.5 -29.5t-12.5 -42.5q0 -27 16.5 -41t45.5 -14q23 0 40.5 13.5t17.5 35.5q0 19 -10 33t-40 31zM518 167q26 -14 45 -35t19 -53q0 -21 -8.5 -37.5t-23 -28t-33 -17.5t-38.5 -6q-17 0 -35 4.5t-32.5 14t-24 23.5t-9.5 33
q0 32 20.5 51.5t46.5 31.5q-23 13 -40 31.5t-17 47.5q0 33 26 57q13 12 30.5 17t34.5 5q16 0 32 -4t29 -13q14 -9 22 -22.5t8 -30.5q0 -26 -15 -41t-37 -28zM496 176q14 8 25 23.5t11 30.5q0 22 -14 37.5t-40 15.5q-24 0 -37 -12t-13 -27q0 -19 11 -31.5t38 -26.5zM147 663
l3 -2q14 11 40 11q41 0 66 -25t25 -70q0 -24 -9.5 -44.5t-26.5 -36t-39.5 -24t-49.5 -8.5q-36 0 -58 15t-22 40q0 23 17 23q8 0 13.5 -5.5t14.5 -26.5q5 -13 12.5 -18t21.5 -5q33 0 52 27t19 73q0 63 -42 63q-16 0 -26.5 -8t-21.5 -27q-6 -11 -15 -11t-9 7q0 5 2 11l42 158
q16 -7 47 -7q17 0 36.5 2.5t24.5 4.5h4q-5 -23 -22.5 -35.5t-44.5 -12.5h-36z" />
  </g>

</svg>
