<?xml version="1.0" standalone="no"?>
<!DOCTYPE svg PUBLIC "-//W3C//DTD SVG 1.1//EN" "http://www.w3.org/Graphics/SVG/1.1/DTD/svg11.dtd" >
<svg xmlns="http://www.w3.org/2000/svg" xmlns:xlink="http://www.w3.org/1999/xlink" version="1.1" viewBox="-10 0 629 1000">
  <g transform="matrix(1 0 0 -1 0 800)">
   <path fill="currentColor"
d="M274 215q42 0 65.5 38t23.5 107q0 68 -23.5 105.5t-66.5 37.5t-68.5 -38t-25.5 -104t26 -106t69 -40zM219 98q24 -2 44 -4t39.5 -4t39 -5t42.5 -6q72 -11 115.5 -55.5t43.5 -111.5q0 -84 -66.5 -128t-192.5 -44q-56 0 -102.5 10t-79.5 28.5t-51.5 44.5t-18.5 57
q0 21 7 39t19 31.5t28.5 21.5t34.5 8q34 0 61 -21q-27 -6 -44 -29.5t-17 -53.5q0 -44 43.5 -68t123.5 -24q171 0 171 105q0 40 -27 66.5t-64 31.5q-24 3 -49.5 6.5t-50 6.5t-45.5 5t-34 4q-56 6 -85 30t-29 66q0 35 29 62t73 34v4q-22 9 -41 25.5t-32.5 37.5t-21.5 45.5
t-8 50.5q0 38 14.5 70t41 55.5t62.5 37t79 13.5q44 0 83 -13.5t67 -39.5q34 28 60 40.5t49 12.5q36 0 57.5 -16.5t21.5 -44.5q0 -17 -11.5 -27t-28.5 -10q-14 0 -23 5t-16.5 10.5t-15.5 10.5t-20 5q-24 0 -49 -17q24 -37 24 -93q0 -85 -53 -133.5t-159 -56.5q-61 -5 -85 -13
t-24 -29q0 -16 18 -23.5t53 -9.5zM224 743q0 26 18 44t44 18t44 -18t18 -44t-18 -44t-44 -18t-44 18t-18 44z" />
  </g>

</svg>
