<?xml version="1.0" standalone="no"?>
<!DOCTYPE svg PUBLIC "-//W3C//DTD SVG 1.1//EN" "http://www.w3.org/Graphics/SVG/1.1/DTD/svg11.dtd" >
<svg xmlns="http://www.w3.org/2000/svg" xmlns:xlink="http://www.w3.org/1999/xlink" version="1.1" viewBox="-10 0 626 1000">
  <g transform="matrix(1 0 0 -1 0 800)">
   <path fill="currentColor"
d="M429 214q0 83 -33.5 128.5t-94.5 45.5q-15 -8 -33.5 -13t-33.5 -5q-20 0 -33 9.5t-13 24.5q0 14 12 21t32 7q13 0 29.5 -3t31.5 -8q54 0 86.5 48t32.5 128q0 140 -118 140q-53 0 -83.5 -24t-30.5 -66q0 -34 20 -55t52 -21q-5 -17 -24.5 -27.5t-45.5 -10.5q-22 0 -40.5 8
t-32 22.5t-21.5 33.5t-8 42q0 32 15.5 58t43.5 44.5t67.5 28.5t87.5 10q54 0 98 -13t75 -36t48 -56t17 -73q0 -34 -12 -64t-32 -54.5t-47.5 -41.5t-58.5 -25v-6q37 -10 69 -29t55 -45t36 -59t13 -71q0 -47 -20 -86.5t-55 -68.5t-83.5 -45.5t-106.5 -16.5q-52 0 -95.5 13.5
t-75.5 37t-50 56t-18 70.5q0 27 9 50t24.5 40.5t36.5 27t45 9.5q28 0 50 -12.5t27 -31.5q-38 0 -62 -27.5t-24 -70.5q0 -51 36 -83t95 -32q69 0 105 45.5t36 131.5z" />
  </g>

</svg>
