<?xml version="1.0" standalone="no"?>
<!DOCTYPE svg PUBLIC "-//W3C//DTD SVG 1.1//EN" "http://www.w3.org/Graphics/SVG/1.1/DTD/svg11.dtd" >
<svg xmlns="http://www.w3.org/2000/svg" xmlns:xlink="http://www.w3.org/1999/xlink" version="1.1" viewBox="-10 0 655 1000">
  <g transform="matrix(1 0 0 -1 0 800)">
   <path fill="currentColor"
d="M58 235h37q7 -45 26.5 -81t49 -61t68 -38.5t83.5 -13.5q74 0 117 35t43 95q0 25 -8.5 46t-28.5 40.5t-53.5 38.5t-84.5 41q-62 27 -104 52t-67 52t-35.5 57.5t-10.5 69.5q0 46 16.5 85t46.5 67.5t71 44t90 15.5q44 0 82 -14t77 -45l26 45h23l11 -199h-37
q-24 82 -69.5 122t-109.5 40q-61 0 -97 -30t-36 -81q0 -24 8 -43.5t26 -37t47 -35t72 -36.5q74 -33 123 -61.5t78 -57t41 -60t12 -70.5q0 -48 -18.5 -88.5t-52 -70t-80 -47t-102.5 -20.5l-23 -63q124 0 124 -86q0 -48 -34 -75t-92 -27q-51 0 -83 21t-32 55q0 36 31 36
q11 0 17.5 -6.5t15.5 -25.5q9 -21 18.5 -29t26.5 -8q22 0 36 13.5t14 36.5q0 54 -79 54q-8 0 -17.5 -0.5t-17.5 -1.5l-3 5l44 102q-45 4 -83 20t-77 48l-28 -49h-23z" />
  </g>

</svg>
