<?xml version="1.0" standalone="no"?>
<!DOCTYPE svg PUBLIC "-//W3C//DTD SVG 1.1//EN" "http://www.w3.org/Graphics/SVG/1.1/DTD/svg11.dtd" >
<svg xmlns="http://www.w3.org/2000/svg" xmlns:xlink="http://www.w3.org/1999/xlink" version="1.1" viewBox="-10 0 1652 1000">
  <g transform="matrix(1 0 0 -1 0 800)">
   <path fill="currentColor"
d="M38 0v38q38 1 61.5 5.5t36.5 17t17.5 34t4.5 57.5v466q0 35 -3.5 56.5t-14 34t-30.5 17t-52 6.5v38h351q90 0 166.5 -30t132 -83t86.5 -126t31 -159q0 -82 -29 -150.5t-81.5 -117.5t-125.5 -76.5t-160 -27.5h-391zM280 721q-17 0 -17 -17v-541q0 -114 149 -114
q137 0 210 81.5t73 239.5q0 83 -20 148t-57.5 110t-90.5 69t-120 24h-127zM1582 0h-694v4l526 724h-274q-71 0 -106 -32t-49 -110h-37l15 184h609v-4l-521 -720h310q51 0 84 7.5t53.5 28.5t32 57.5t20.5 95.5h43z" />
  </g>

</svg>
