<?xml version="1.0" standalone="no"?>
<!DOCTYPE svg PUBLIC "-//W3C//DTD SVG 1.1//EN" "http://www.w3.org/Graphics/SVG/1.1/DTD/svg11.dtd" >
<svg xmlns="http://www.w3.org/2000/svg" xmlns:xlink="http://www.w3.org/1999/xlink" version="1.1" viewBox="-10 0 680 1000">
  <g transform="matrix(1 0 0 -1 0 800)">
   <path fill="currentColor"
d="M634 -152q-35 -46 -74 -64t-83 -18q-46 0 -71.5 22.5t-25.5 62.5q0 39 26.5 75t76.5 64l-11 119h-4q-38 -62 -87.5 -90.5t-103.5 -28.5q-42 0 -81.5 16t-59.5 43q-17 22 -24.5 61t-7.5 101v159q0 41 -2 64.5t-10.5 36t-25 17t-45.5 7.5v35h181v-273q0 -109 25.5 -158
t81.5 -49q88 0 137 115q5 12 8 22t5 22t3 27t1 36v98q0 41 -2 64.5t-10.5 36t-25 17t-45.5 7.5v35h181v-307q0 -57 1.5 -93t4.5 -54q2 -13 6.5 -20.5t13.5 -12t23.5 -6t37.5 -1.5v-35l-90 -6q-45 -26 -72 -59t-27 -62q0 -20 13.5 -34t37.5 -14q19 0 44 13t51 40z" />
  </g>

</svg>
