<?xml version="1.0" standalone="no"?>
<!DOCTYPE svg PUBLIC "-//W3C//DTD SVG 1.1//EN" "http://www.w3.org/Graphics/SVG/1.1/DTD/svg11.dtd" >
<svg xmlns="http://www.w3.org/2000/svg" xmlns:xlink="http://www.w3.org/1999/xlink" version="1.1" viewBox="-10 0 764 1000">
  <g transform="matrix(1 0 0 -1 0 800)">
   <path fill="currentColor"
d="M671 -15h-156q-66 0 -125.5 20.5t-109 56.5t-86.5 85.5t-57 108.5h-54q-18 0 -31 13t-13 31q0 19 13 32t31 13h35q-1 9 -1.5 18.5t-0.5 20.5q0 10 0.5 19.5t1.5 18.5h-35q-18 0 -31 13t-13 32q0 18 13 31t31 13h54q20 59 57 108.5t86.5 85.5t109 56.5t125.5 20.5h156
q18 0 31 -13t13 -31q0 -19 -13 -32t-31 -13h-156q-47 0 -90.5 -13.5t-80 -37.5t-65.5 -57.5t-47 -73.5h375q18 0 31 -13t13 -31q0 -19 -13 -32t-31 -13h-400q-1 -9 -1.5 -18.5t-0.5 -19.5q0 -11 0.5 -20.5t1.5 -18.5h400q18 0 31 -13t13 -32q0 -18 -13 -31t-31 -13h-375
q18 -40 47 -73.5t65.5 -57.5t80 -37.5t90.5 -13.5h156q18 0 31 -13t13 -32q0 -18 -13 -31t-31 -13z" />
  </g>

</svg>
