<?xml version="1.0" standalone="no"?>
<!DOCTYPE svg PUBLIC "-//W3C//DTD SVG 1.1//EN" "http://www.w3.org/Graphics/SVG/1.1/DTD/svg11.dtd" >
<svg xmlns="http://www.w3.org/2000/svg" xmlns:xlink="http://www.w3.org/1999/xlink" version="1.1" viewBox="-18 0 467 1000">
  <g transform="matrix(1 0 0 -1 0 800)">
   <path fill="currentColor"
d="M394 -15h-267q-18 0 -31 13t-13 31v261l-24 -14q-16 -9 -33.5 -4.5t-27.5 21.5q-9 16 -4.5 33.5t21.5 26.5l68 40v337q0 19 13 31.5t31 12.5q19 0 31.5 -12.5t12.5 -31.5v-286l84 49q16 10 33.5 5t26.5 -21q10 -16 5 -33.5t-21 -27.5l-128 -75v-268h223q19 0 32 -13
t13 -31t-13 -31t-32 -13z" />
  </g>

</svg>
