<?xml version="1.0" standalone="no"?>
<!DOCTYPE svg PUBLIC "-//W3C//DTD SVG 1.1//EN" "http://www.w3.org/Graphics/SVG/1.1/DTD/svg11.dtd" >
<svg xmlns="http://www.w3.org/2000/svg" xmlns:xlink="http://www.w3.org/1999/xlink" version="1.1" viewBox="-10 0 709 1000">
  <g transform="matrix(1 0 0 -1 0 800)">
   <path fill="currentColor"
d="M645 -15q-20 0 -34 16l-263 313l-264 -313q-13 -16 -34 -16q-18 0 -31 13t-13 31q0 16 10 29l274 325l-274 325q-10 13 -10 29q0 18 13 31t31 13q21 0 34 -16l264 -313l263 313q14 16 34 16q19 0 31.5 -13t12.5 -31t-10 -29l-273 -325l273 -325q10 -11 10 -29t-12.5 -31
t-31.5 -13z" />
  </g>

</svg>
