<?xml version="1.0" standalone="no"?>
<!DOCTYPE svg PUBLIC "-//W3C//DTD SVG 1.1//EN" "http://www.w3.org/Graphics/SVG/1.1/DTD/svg11.dtd" >
<svg xmlns="http://www.w3.org/2000/svg" xmlns:xlink="http://www.w3.org/1999/xlink" version="1.1" viewBox="-10 0 321 1000">
  <g transform="matrix(1 0 0 -1 0 800)">
   <path fill="currentColor"
d="M271 636l-45 -18l25 -50q7 -13 3.5 -26.5t-15.5 -21.5q-14 -9 -26 -5.5t-22.5 12.5t-19.5 20.5t-15 19.5l-35 -40q-5 -7 -12.5 -10t-15.5 -3q-20 0 -31.5 17.5t-1.5 36.5l25 50q-9 4 -22 8.5t-24.5 11t-18 17t-2.5 25.5q4 14 15.5 21.5t25.5 5.5l53 -7q1 10 2.5 24t5 27
t12 22t24.5 9t24 -9t12 -22t5 -27t2 -24l54 7q14 2 25 -5.5t15 -21.5t-2 -26.5t-20 -17.5z" />
  </g>

</svg>
