<?xml version="1.0" standalone="no"?>
<!DOCTYPE svg PUBLIC "-//W3C//DTD SVG 1.1//EN" "http://www.w3.org/Graphics/SVG/1.1/DTD/svg11.dtd" >
<svg xmlns="http://www.w3.org/2000/svg" xmlns:xlink="http://www.w3.org/1999/xlink" version="1.1" viewBox="-10 0 385 1000">
  <g transform="matrix(1 0 0 -1 0 800)">
   <path fill="currentColor"
d="M338 204l-32 -21q-21 -13 -35 -31.5t-21.5 -40.5t-7.5 -45.5t8 -46.5l18 -49q14 -36 9 -74t-28 -70q-22 -32 -56 -49.5t-73 -17.5h-37q-18 0 -31 13t-13 31q0 19 13 32t31 13h37q37 0 57 29q19 28 8 63l-18 48q-13 34 -14 69.5t8 68.5t27.5 62.5t45.5 52.5
q-28 21 -47.5 49.5t-29.5 61t-10.5 67t10.5 68.5l36 115q5 16 2 32t-12 29t-23 20.5t-32 7.5h-45q-18 0 -31 13t-13 31q0 19 13 32t31 13h45q40 0 73 -17.5t54 -46.5t28 -66t-5 -75l-36 -114q-14 -45 2 -89t56 -70l38 -23q20 -15 20 -38q0 -24 -20 -37z" />
  </g>

</svg>
