<?xml version="1.0" standalone="no"?>
<!DOCTYPE svg PUBLIC "-//W3C//DTD SVG 1.1//EN" "http://www.w3.org/Graphics/SVG/1.1/DTD/svg11.dtd" >
<svg xmlns="http://www.w3.org/2000/svg" xmlns:xlink="http://www.w3.org/1999/xlink" version="1.1" viewBox="-10 0 385 1000">
  <g transform="matrix(1 0 0 -1 0 800)">
   <path fill="currentColor"
d="M292 -241h-37q-38 0 -72.5 17.5t-56.5 49.5t-27 70t8 74l18 49q17 46 1.5 92t-56.5 72l-32 21q-21 13 -21 37q0 23 21 38l37 23q40 26 56 70t2 89l-36 114q-12 38 -5 75t28 66t54 46.5t73 17.5h45q18 0 31 -13t13 -32q0 -18 -13 -31t-31 -13h-45q-17 0 -31.5 -7.5
t-23.5 -20.5t-12 -29t2 -32l36 -115q11 -34 10.5 -68.5t-10.5 -67t-29.5 -61t-46.5 -49.5q27 -23 45.5 -52.5t27.5 -62.5t7.5 -68.5t-13.5 -69.5l-18 -48q-12 -34 8 -63t56 -29h37q18 0 31 -13t13 -32q0 -18 -13 -31t-31 -13z" />
  </g>

</svg>
