<?xml version="1.0" standalone="no"?>
<!DOCTYPE svg PUBLIC "-//W3C//DTD SVG 1.1//EN" "http://www.w3.org/Graphics/SVG/1.1/DTD/svg11.dtd" >
<svg xmlns="http://www.w3.org/2000/svg" xmlns:xlink="http://www.w3.org/1999/xlink" version="1.1" viewBox="-10 0 575 1000">
  <g transform="matrix(1 0 0 -1 0 800)">
   <path fill="currentColor"
d="M326 -11v-70q0 -18 -13 -31t-31 -13t-31 13t-13 31v70q-38 8 -70.5 28t-56 48.5t-37 64.5t-13.5 76q0 19 13 32t32 13q18 0 31 -13t13 -32q0 -43 25 -77t63 -48v271q-33 13 -65 30.5t-57 42.5t-40 58t-15 77q0 40 13.5 76t37 64.5t56 48.5t70.5 28v69q0 18 13 31t31 13
t31 -13t13 -31v-69q38 -8 70.5 -28t56.5 -48.5t37.5 -64.5t13.5 -76q0 -19 -13 -31.5t-32 -12.5q-18 0 -31 12.5t-13 31.5q0 43 -25 77t-64 48v-270q35 -13 67 -30t57 -41.5t39.5 -58t14.5 -79.5q0 -40 -13.5 -76t-37.5 -64.5t-56.5 -48.5t-70.5 -28zM238 685
q-38 -14 -63 -48t-25 -77q0 -42 25 -68.5t63 -43.5v237zM326 320v-239q39 14 64 48t25 77q0 47 -25 72t-64 42z" />
  </g>

</svg>
