<?xml version="1.0" standalone="no"?>
<!DOCTYPE svg PUBLIC "-//W3C//DTD SVG 1.1//EN" "http://www.w3.org/Graphics/SVG/1.1/DTD/svg11.dtd" >
<svg xmlns="http://www.w3.org/2000/svg" xmlns:xlink="http://www.w3.org/1999/xlink" version="1.1" viewBox="-10 0 441 1000">
  <g transform="matrix(1 0 0 -1 0 800)">
   <path fill="currentColor"
d="M325 695q-18 10 -33 1q-14 -8 -23 -29t-9 -55v-575q0 -49 -13 -86.5t-40 -61.5q-20 -17 -44.5 -25.5t-53.5 -8.5q-16 0 -31 3q-19 2 -30 16.5t-9 32.5q3 19 17.5 30t32.5 9q23 -3 37 0t22 10q14 11 18.5 34.5t4.5 46.5v575q0 54 19.5 96.5t57.5 64.5q29 17 61 16t61 -18
q16 -9 20.5 -26.5t-5.5 -33.5q-9 -17 -26.5 -21.5t-33.5 5.5z" />
  </g>

</svg>
