<?xml version="1.0" standalone="no"?>
<!DOCTYPE svg PUBLIC "-//W3C//DTD SVG 1.1//EN" "http://www.w3.org/Graphics/SVG/1.1/DTD/svg11.dtd" >
<svg xmlns="http://www.w3.org/2000/svg" xmlns:xlink="http://www.w3.org/1999/xlink" version="1.1" viewBox="-10 0 553 1000">
  <g transform="matrix(1 0 0 -1 0 800)">
   <path fill="currentColor"
d="M260 -15q-46 0 -86 17.5t-70 47.5t-47.5 70t-17.5 86q0 19 13 32t31 13q19 0 32 -13t13 -32q0 -27 10.5 -51t28.5 -42t42 -28.5t51 -10.5t51.5 10.5t42.5 28.5t28.5 42t10.5 51v170q-28 -21 -61.5 -32.5t-71.5 -11.5q-46 0 -86 17.5t-70 47.5t-47.5 70t-17.5 86t17.5 86
t47.5 70t70 47.5t86 17.5t86.5 -17.5t70.5 -47.5t47.5 -70t17.5 -86v-347q0 -46 -17.5 -86t-47.5 -70t-70.5 -47.5t-86.5 -17.5zM260 686q-27 0 -51 -10.5t-42 -28.5t-28.5 -42.5t-10.5 -51.5t10.5 -51t28.5 -42t42 -28.5t51 -10.5t51.5 10.5t42.5 28.5t28.5 42t10.5 51
t-10.5 51.5t-28.5 42.5t-42.5 28.5t-51.5 10.5z" />
  </g>

</svg>
