<?xml version="1.0" standalone="no"?>
<!DOCTYPE svg PUBLIC "-//W3C//DTD SVG 1.1//EN" "http://www.w3.org/Graphics/SVG/1.1/DTD/svg11.dtd" >
<svg xmlns="http://www.w3.org/2000/svg" xmlns:xlink="http://www.w3.org/1999/xlink" version="1.1" viewBox="-15 0 577 1000">
  <g transform="matrix(1 0 0 -1 0 800)">
   <path fill="currentColor"
d="M133 513q-29 0 -54 11t-43.5 29.5t-29.5 43.5t-11 54q0 28 11 53.5t29.5 44t43.5 29.5t54 11q28 0 53.5 -11t44 -29.5t29.5 -44t11 -53.5q0 -29 -11 -54t-29.5 -43.5t-44 -29.5t-53.5 -11zM445 720l-283 -707q-5 -13 -16.5 -20.5t-25.5 -7.5q-18 0 -31 13t-13 31
q0 9 3 17l284 707q5 13 16 20.5t25 7.5q19 0 32 -13t13 -31q0 -10 -4 -17zM414 -15q-29 0 -54 11t-43.5 29.5t-29.5 43.5t-11 54q0 28 11 53.5t29.5 44t43.5 29.5t54 11q28 0 53.5 -11t44 -29.5t29.5 -44t11 -53.5q0 -29 -11 -54t-29.5 -43.5t-44 -29.5t-53.5 -11zM133 706
q-23 0 -39 -16t-16 -39t16 -39t39 -16t39 16t16 39t-16 39t-39 16zM414 178q-23 0 -39 -16t-16 -39t16 -39t39 -16t39 16t16 39t-16 39t-39 16z" />
  </g>

</svg>
