<?xml version="1.0" standalone="no"?>
<!DOCTYPE svg PUBLIC "-//W3C//DTD SVG 1.1//EN" "http://www.w3.org/Graphics/SVG/1.1/DTD/svg11.dtd" >
<svg xmlns="http://www.w3.org/2000/svg" xmlns:xlink="http://www.w3.org/1999/xlink" version="1.1" viewBox="-10 0 617 1000">
  <g transform="matrix(1 0 0 -1 0 800)">
   <path fill="currentColor"
d="M565 708l-227 -406v-273q0 -18 -13 -31t-31 -13t-31 13t-13 31v273l-227 406q-6 10 -6 22q0 18 13 31t31 13q12 0 22.5 -6t16.5 -16l194 -347l194 347q6 10 16.5 16t22.5 6q18 0 31 -13t13 -31q0 -12 -6 -22zM553 300h-495q-18 0 -31 13t-13 31q0 19 13 32t31 13h495
q19 0 31.5 -13t12.5 -32q0 -18 -12.5 -31t-31.5 -13zM553 86h-495q-18 0 -31 13t-13 31q0 19 13 32t31 13h495q19 0 31.5 -13t12.5 -32q0 -18 -12.5 -31t-31.5 -13z" />
  </g>

</svg>
