<?xml version="1.0" standalone="no"?>
<!DOCTYPE svg PUBLIC "-//W3C//DTD SVG 1.1//EN" "http://www.w3.org/Graphics/SVG/1.1/DTD/svg11.dtd" >
<svg xmlns="http://www.w3.org/2000/svg" xmlns:xlink="http://www.w3.org/1999/xlink" version="1.1" viewBox="-63 0 1016 1000">
  <g transform="matrix(1 0 0 -1 0 800)">
   <path fill="currentColor"
d="M-45 32h53l483 634h-84l8 32h528l-40 -160h-49l31 126h-284l-71 -284h208l21 84h39l-51 -202h-39l22 84h-208l-78 -312h299l33 132h49l-41 -166h-484l8 32h75l50 200h-227l-151 -200h86l-8 -32h-186zM229 265h212l100 401h-7zM621 776l114 165l49 -26l-143 -150z" />
  </g>

</svg>
