<?xml version="1.0" standalone="no"?>
<!DOCTYPE svg PUBLIC "-//W3C//DTD SVG 1.1//EN" "http://www.w3.org/Graphics/SVG/1.1/DTD/svg11.dtd" >
<svg xmlns="http://www.w3.org/2000/svg" xmlns:xlink="http://www.w3.org/1999/xlink" version="1.1" viewBox="-25 0 663 1000">
  <g transform="matrix(1 0 0 -1 0 800)">
   <path fill="currentColor"
d="M375 -204q-30 0 -48.5 15.5t-18.5 44.5q0 22 10.5 41.5t28 36.5t41 32t50.5 29l-1 5h-452l8 32h75l158 634h-75l8 32h469l-40 -160h-49l31 126h-284l-71 -284h208l21 84h39l-51 -202h-39l22 84h-208l-78 -312h299l33 132h49l-41 -166q-22 -14 -43 -30.5t-37 -33.5
t-25.5 -35t-9.5 -36q0 -19 9.5 -28t26.5 -9q19 0 32 8t26 19l16 -16q-16 -16 -38 -29.5t-51 -13.5z" />
  </g>

</svg>
