<?xml version="1.0" standalone="no"?>
<!DOCTYPE svg PUBLIC "-//W3C//DTD SVG 1.1//EN" "http://www.w3.org/Graphics/SVG/1.1/DTD/svg11.dtd" >
<svg xmlns="http://www.w3.org/2000/svg" xmlns:xlink="http://www.w3.org/1999/xlink" version="1.1" viewBox="-10 0 715 1000">
  <g transform="matrix(1 0 0 -1 0 800)">
   <path fill="currentColor"
d="M23 -17l80 93q-38 59 -38 150q0 43 8.5 96t27.5 107t48 104.5t69.5 89.5t93.5 63t120 24q52 0 92.5 -16t68.5 -45l77 89l25 -22l-80 -95q37 -60 37 -149q0 -44 -8.5 -96.5t-27.5 -106.5t-48 -104.5t-69.5 -89.5t-94 -63t-119.5 -24q-104 0 -161 62l-76 -88zM426 673
q-51 0 -93.5 -20.5t-76.5 -57t-59 -87.5t-40 -112q-9 -38 -15.5 -67t-10 -51.5t-5 -40.5t-1.5 -34q0 -24 3 -45.5t11 -39.5l423 494q-20 29 -53.5 45t-82.5 16zM291 25q51 0 93.5 20.5t76.5 57t59 87.5t40 112q9 38 15.5 67t10 51.5t5 40.5t1.5 34q0 24 -3 45.5t-11 39.5
l-423 -494q20 -29 53.5 -45t82.5 -16zM420 776l114 165l49 -26l-143 -150z" />
  </g>

</svg>
