<?xml version="1.0" standalone="no"?>
<!DOCTYPE svg PUBLIC "-//W3C//DTD SVG 1.1//EN" "http://www.w3.org/Graphics/SVG/1.1/DTD/svg11.dtd" >
<svg xmlns="http://www.w3.org/2000/svg" xmlns:xlink="http://www.w3.org/1999/xlink" version="1.1" viewBox="-10 0 688 1000">
  <g transform="matrix(1 0 0 -1 0 800)">
   <path fill="currentColor"
d="M437 -162q-48 0 -72.5 13t-42.5 42l-60 96q-95 7 -146 68.5t-51 168.5q0 43 8.5 96t27.5 107t48 104.5t69.5 89.5t93.5 63t120 24q106 0 163 -62.5t57 -175.5q0 -41 -8 -91t-25 -101.5t-43 -100.5t-63 -89t-84.5 -66.5t-107.5 -33.5l59 -78q16 -21 35 -31t52 -10h15
l-8 -33h-37zM291 25q51 0 93.5 20.5t76.5 57t59 87.5t40 112q9 38 15.5 67t10 51.5t5 40.5t1.5 34q0 82 -39.5 130t-126.5 48q-51 0 -93.5 -20.5t-76.5 -57t-59 -87.5t-40 -112q-9 -38 -15.5 -67t-10 -51.5t-5 -40.5t-1.5 -34q0 -82 39.5 -130t126.5 -48z" />
  </g>

</svg>
