<?xml version="1.0" standalone="no"?>
<!DOCTYPE svg PUBLIC "-//W3C//DTD SVG 1.1//EN" "http://www.w3.org/Graphics/SVG/1.1/DTD/svg11.dtd" >
<svg xmlns="http://www.w3.org/2000/svg" xmlns:xlink="http://www.w3.org/1999/xlink" version="1.1" viewBox="-10 0 652 1000">
  <g transform="matrix(1 0 0 -1 0 800)">
   <path fill="currentColor"
d="M206 -12q-92 0 -136 39t-44 106q0 49 16.5 86t44 65.5t62.5 50t71 39.5l-9 17q-20 34 -29.5 61t-9.5 59q0 42 15 78t42 63t64.5 42.5t81.5 15.5q63 0 96.5 -27.5t33.5 -82.5q0 -36 -17.5 -67.5t-47.5 -59.5t-71 -53.5t-88 -48.5l137 -237q31 38 55 88t38 110h-76l8 32
h189l-8 -32h-75q-20 -72 -49 -129t-64 -100l17 -30q14 -25 37.5 -33t66.5 -8l-8 -32h-43q-38 0 -60.5 12.5t-41.5 42.5l-6 10q-42 -39 -91.5 -58t-100.5 -19zM267 396q69 36 117 76.5t61 85.5q3 11 5 21t2 22q0 36 -19.5 56.5t-60.5 20.5q-27 0 -49.5 -9t-40 -25t-30 -36.5
t-18.5 -44.5q-2 -10 -4 -21t-2 -23q0 -32 10 -61.5t29 -61.5zM211 23q48 0 91.5 18t79.5 52l-147 254q-26 -14 -49 -30t-41 -35.5t-31.5 -43t-19.5 -53.5q-2 -8 -5 -25t-3 -27q0 -59 36 -84.5t89 -25.5z" />
  </g>

</svg>
