<?xml version="1.0" standalone="no"?>
<!DOCTYPE svg PUBLIC "-//W3C//DTD SVG 1.1//EN" "http://www.w3.org/Graphics/SVG/1.1/DTD/svg11.dtd" >
<svg xmlns="http://www.w3.org/2000/svg" xmlns:xlink="http://www.w3.org/1999/xlink" version="1.1" viewBox="-10 0 845 1000">
  <g transform="matrix(1 0 0 -1 0 800)">
   <path fill="currentColor"
d="M367 -121q-66 0 -121.5 18.5t-95.5 56t-62.5 93.5t-22.5 130q0 98 32 193.5t90.5 171t142 122t187.5 46.5q62 0 112 -17.5t85.5 -51.5t55 -84t19.5 -115q0 -62 -15.5 -128t-44 -120.5t-70 -89.5t-93.5 -35q-43 0 -61.5 26.5t-18.5 66.5q0 30 9 65l4 14l-7 2
q-14 -34 -31 -65.5t-37 -55.5t-43 -38.5t-50 -14.5q-41 0 -57.5 31.5t-16.5 85.5q0 51 14 107.5t41 104.5t65.5 79t88.5 31q70 0 85 -63h5l27 52h24l-73 -294q-3 -15 -5 -26t-2 -21q0 -57 45 -57q46 0 90 52.5t68 152.5q6 25 10 44.5t6.5 35.5t3 30.5t0.5 29.5
q0 115 -61 176.5t-172 61.5q-71 0 -133.5 -26t-113 -72.5t-87.5 -112.5t-56 -145q-3 -13 -7 -31.5t-7 -39t-5.5 -41.5t-2.5 -39q0 -65 19 -114.5t54 -83.5t84.5 -51t110.5 -17h168l-6 -21q-43 -5 -88 -7t-80 -2zM347 108q19 0 38.5 14.5t38.5 37.5t35.5 51t30 55t22.5 50.5
t12 36.5l7 28q11 43 -0.5 69t-52.5 26q-30 0 -54.5 -14t-43.5 -39t-33 -58t-24 -70q-3 -9 -6 -23t-5.5 -29.5t-4 -31.5t-1.5 -29q0 -32 8.5 -53t32.5 -21z" />
  </g>

</svg>
