<?xml version="1.0" standalone="no"?>
<!DOCTYPE svg PUBLIC "-//W3C//DTD SVG 1.1//EN" "http://www.w3.org/Graphics/SVG/1.1/DTD/svg11.dtd" >
<svg xmlns="http://www.w3.org/2000/svg" xmlns:xlink="http://www.w3.org/1999/xlink" version="1.1" viewBox="-10 0 610 1000">
  <g transform="matrix(1 0 0 -1 0 800)">
   <path fill="currentColor"
d="M261 -204q-29 0 -47 11.5t-25 25.5l15 15q17 -25 56 -25q19 0 32 6.5t20.5 16t11 19.5t3.5 16q0 17 -11 26t-38 11l-29 2l40 86h29l-34 -72l2 -3q8 2 16.5 3t15.5 1q25 0 39.5 -13t14.5 -35q0 -20 -9 -36.5t-24.5 -28.5t-35.5 -19t-42 -7z" />
  </g>

</svg>
