<?xml version="1.0" standalone="no"?>
<!DOCTYPE svg PUBLIC "-//W3C//DTD SVG 1.1//EN" "http://www.w3.org/Graphics/SVG/1.1/DTD/svg11.dtd" >
<svg xmlns="http://www.w3.org/2000/svg" xmlns:xlink="http://www.w3.org/1999/xlink" version="1.1" viewBox="-24 0 574 1000">
  <g transform="matrix(1 0 0 -1 0 800)">
   <path fill="currentColor"
d="M220 205l34 138l46 124h22l-16 -124l-34 -138l-46 -124h-22zM-2 75h90l94 -15l-5 -18l-101 -14h-90zM142 -105l48 128h21l-17 -128l-24 -95h-52zM108 520h89l96 -14l-5 -18l-103 -15h-89zM233 42l5 18l103 15h89l-12 -47h-89zM332 653l24 95h52l-24 -95l-48 -128h-21z
M344 488l5 18l101 14h90l-12 -47h-90z" />
  </g>

</svg>
