<?xml version="1.0" standalone="no"?>
<!DOCTYPE svg PUBLIC "-//W3C//DTD SVG 1.1//EN" "http://www.w3.org/Graphics/SVG/1.1/DTD/svg11.dtd" >
<svg xmlns="http://www.w3.org/2000/svg" xmlns:xlink="http://www.w3.org/1999/xlink" version="1.1" viewBox="-10 0 560 1000">
  <g transform="matrix(1 0 0 -1 0 800)">
   <path fill="currentColor"
d="M235 72q-20 0 -29.5 11.5t-9.5 25.5q0 11 4 22q13 31 46 31q20 0 29.5 -11.5t9.5 -25.5q0 -11 -4 -22q-13 -31 -46 -31zM328 449q-20 0 -29.5 11.5t-9.5 25.5q0 11 4 22q13 31 46 31q20 0 29.5 -11.5t9.5 -25.5q0 -11 -4 -22q-13 -31 -46 -31zM68 323h447l-9 -35h-447z
" />
  </g>

</svg>
