<?xml version="1.0" standalone="no"?>
<!DOCTYPE svg PUBLIC "-//W3C//DTD SVG 1.1//EN" "http://www.w3.org/Graphics/SVG/1.1/DTD/svg11.dtd" >
<svg xmlns="http://www.w3.org/2000/svg" xmlns:xlink="http://www.w3.org/1999/xlink" version="1.1" viewBox="-10 0 447 1000">
  <g transform="matrix(1 0 0 -1 0 800)">
   <path fill="currentColor"
d="M172 -204q-29 0 -47.5 15.5t-18.5 44.5q0 22 9.5 41.5t25.5 36.5t37.5 32.5t44.5 30.5l-1 3q-27 -12 -59 -12q-63 0 -90.5 37.5t-27.5 112.5q0 36 6.5 79t19.5 86t33.5 83t49 70.5t65 49t81.5 18.5q20 0 40.5 -4.5t37 -15.5t27 -29.5t10.5 -46.5q0 -31 -15 -58.5
t-49.5 -49.5t-90.5 -37.5t-138 -21.5q-5 -23 -11.5 -58.5t-6.5 -70.5q0 -22 3.5 -40.5t12 -32t23 -21.5t36.5 -8q46 0 90.5 38.5t83.5 109.5l24 -11q-24 -47 -44.5 -76t-43.5 -51q-24 -22 -48.5 -44.5t-44 -44.5t-32 -43.5t-12.5 -42.5q0 -19 9.5 -28t26.5 -9q18 0 31 8
t27 19l16 -16q-16 -16 -38.5 -29.5t-51.5 -13.5zM127 284q115 13 174 44.5t59 94.5q0 28 -14.5 48.5t-52.5 20.5q-52 0 -95 -48t-71 -160z" />
  </g>

</svg>
