<?xml version="1.0" standalone="no"?>
<!DOCTYPE svg PUBLIC "-//W3C//DTD SVG 1.1//EN" "http://www.w3.org/Graphics/SVG/1.1/DTD/svg11.dtd" >
<svg xmlns="http://www.w3.org/2000/svg" xmlns:xlink="http://www.w3.org/1999/xlink" version="1.1" viewBox="-159 0 734 1000">
  <g transform="matrix(1 0 0 -1 0 800)">
   <path fill="currentColor"
d="M-73 -212q-39 0 -57.5 15.5t-18.5 38.5q0 19 12 32.5t32 13.5q18 0 28.5 -11t10.5 -27q0 -9 -5 -19t-17 -17l2 -6h7q45 0 70 33t39 91l136 546h-95l9 34h95l15 62q23 93 81 139.5t149 46.5q27 0 53 -3.5t43 -10.5l49 14l-181 -722l18 -8l123 114l17 -15l-78 -83
q-33 -35 -51.5 -46.5t-36.5 -11.5q-20 0 -33 12.5t-13 32.5q0 8 2 18l4 20l164 652q-18 5 -38 7t-39 2q-62 0 -108 -35.5t-67 -119.5l-16 -65h110l-9 -34h-110l-134 -539q-17 -69 -58 -110t-104 -41z" />
  </g>

</svg>
