<?xml version="1.0" standalone="no"?>
<!DOCTYPE svg PUBLIC "-//W3C//DTD SVG 1.1//EN" "http://www.w3.org/Graphics/SVG/1.1/DTD/svg11.dtd" >
<svg xmlns="http://www.w3.org/2000/svg" xmlns:xlink="http://www.w3.org/1999/xlink" version="1.1" viewBox="-10 0 705 1000">
  <g transform="matrix(1 0 0 -1 0 800)">
   <path fill="currentColor"
d="M142 120q-57 0 -88 34.5t-31 97.5q0 45 15.5 88t43.5 76t66.5 53.5t83.5 20.5q65 0 99.5 -38.5t37.5 -108.5h6q34 73 82.5 110t108.5 37q57 0 88 -34.5t31 -97.5q0 -45 -15.5 -88t-43.5 -76t-66.5 -53.5t-83.5 -20.5q-65 0 -99.5 38.5t-37.5 108.5h-6q-34 -73 -82.5 -110
t-108.5 -37zM155 154q48 0 92.5 36.5t83.5 114.5q-1 78 -25.5 114.5t-72.5 36.5q-46 0 -85.5 -34t-54.5 -94l-8 -34q-4 -16 -5.5 -31t-1.5 -26q0 -37 19.5 -60t57.5 -23zM475 154q46 0 85.5 34t54.5 94l8 34q4 16 5.5 31t1.5 26q0 37 -19.5 60t-57.5 23q-48 0 -92.5 -36.5
t-83.5 -114.5q1 -78 25.5 -114.5t72.5 -36.5z" />
  </g>

</svg>
