<?xml version="1.0" standalone="no"?>
<!DOCTYPE svg PUBLIC "-//W3C//DTD SVG 1.1//EN" "http://www.w3.org/Graphics/SVG/1.1/DTD/svg11.dtd" >
<svg xmlns="http://www.w3.org/2000/svg" xmlns:xlink="http://www.w3.org/1999/xlink" version="1.1" viewBox="-10 0 526 1000">
  <g transform="matrix(1 0 0 -1 0 800)">
   <path fill="currentColor"
d="M341 -12q-12 0 -22.5 6.5t-21.5 26.5l-92 196q51 26 89.5 55t64.5 58t39 57t13 52q0 40 -37 40q-23 0 -47 -15t-50 -41q-23 -22 -45.5 -52.5t-43 -65.5t-37 -72.5t-25.5 -74.5l-39 -158h-57l177 705h-88l6 25l152 28l-116 -453l6 -3q20 38 44 77.5t51.5 71.5t60 52.5
t70.5 20.5t56 -19.5t18 -54.5q0 -40 -22.5 -76t-54.5 -66t-67 -51.5t-61 -33.5l93 -187h13l116 107l17 -14l-79 -84q-30 -34 -46.5 -45.5t-34.5 -11.5z" />
  </g>

</svg>
