<?xml version="1.0" standalone="no"?>
<!DOCTYPE svg PUBLIC "-//W3C//DTD SVG 1.1//EN" "http://www.w3.org/Graphics/SVG/1.1/DTD/svg11.dtd" >
<svg xmlns="http://www.w3.org/2000/svg" xmlns:xlink="http://www.w3.org/1999/xlink" version="1.1" viewBox="-10 0 842 1000">
  <g transform="matrix(1 0 0 -1 0 800)">
   <path fill="currentColor"
d="M217 348q42 0 75.5 33.5t53.5 112.5q3 10 6.5 24.5t6.5 29.5t5 29.5t2 25.5q0 42 -18.5 60t-46.5 18q-42 0 -75.5 -33.5t-53.5 -112.5q-3 -11 -6.5 -25t-6.5 -29t-5 -29.5t-2 -25.5q0 -42 18.5 -60t46.5 -18zM574 17q42 0 75.5 33.5t53.5 112.5q3 10 6.5 24.5t6.5 29.5
t5 29.5t2 25.5q0 42 -18.5 60t-46.5 18q-42 0 -75.5 -33.5t-53.5 -112.5q-3 -11 -6.5 -25t-6.5 -29t-5 -29.5t-2 -25.5q0 -42 18.5 -60t46.5 -18zM214 319q-47 0 -77 28t-30 92q0 45 12.5 93t37 87.5t61.5 65t86 25.5q47 0 77 -28t30 -92q0 -45 -12.5 -92.5t-37.5 -87.5
t-61.5 -65.5t-85.5 -25.5zM571 -12q-47 0 -77 28t-30 92q0 45 12.5 92.5t37 87.5t61.5 65.5t86 25.5q47 0 77 -28t30 -92q0 -45 -12.5 -93t-37.5 -87.5t-61.5 -65t-85.5 -25.5zM724 698h43l-616 -698h-43z" />
  </g>

</svg>
