<?xml version="1.0" standalone="no"?>
<!DOCTYPE svg PUBLIC "-//W3C//DTD SVG 1.1//EN" "http://www.w3.org/Graphics/SVG/1.1/DTD/svg11.dtd" >
<svg xmlns="http://www.w3.org/2000/svg" xmlns:xlink="http://www.w3.org/1999/xlink" version="1.1" viewBox="-10 0 458 1000">
  <g transform="matrix(1 0 0 -1 0 800)">
   <path fill="currentColor"
d="M163 468h-88l5 25l151 27l-51 -204l6 -2q17 40 36 77.5t41.5 67t49 47.5t58.5 18t49.5 -16t17.5 -39q0 -20 -13.5 -35.5t-34.5 -15.5q-19 0 -29.5 11t-10.5 27q0 11 6 21.5t14 16.5l-4 5h-2q-26 0 -55.5 -31.5t-59.5 -79.5q-10 -16 -25.5 -45t-32 -64t-31.5 -72t-23 -70
l-34 -137h-57zM270 597l114 165l49 -26l-143 -150z" />
  </g>

</svg>
