<?xml version="1.0" standalone="no"?>
<!DOCTYPE svg PUBLIC "-//W3C//DTD SVG 1.1//EN" "http://www.w3.org/Graphics/SVG/1.1/DTD/svg11.dtd" >
<svg xmlns="http://www.w3.org/2000/svg" xmlns:xlink="http://www.w3.org/1999/xlink" version="1.1" viewBox="-13 0 379 1000">
  <g transform="matrix(1 0 0 -1 0 800)">
   <path fill="currentColor"
d="M69 -204q-29 0 -47 11.5t-25 25.5l15 15q17 -25 56 -25q19 0 32 6.5t20.5 16t11 19.5t3.5 16q0 17 -11 26t-38 11l-29 2l32 68q-43 2 -63.5 18t-20.5 41q0 17 11.5 30t31.5 13q17 0 27.5 -9.5t10.5 -27.5q0 -22 -18 -37l1 -5q4 -2 16 -2q21 0 45.5 4.5t45.5 17t35 33.5
t14 54q0 20 -5 36t-14.5 31t-23.5 31.5t-33 36.5q-25 28 -41.5 54.5t-16.5 66.5q0 34 13 62t36 47.5t54.5 30t67.5 10.5q48 0 71 -16.5t23 -41.5q0 -18 -11.5 -31t-31.5 -13q-17 0 -27.5 10t-10.5 27q0 11 5 21t13 16l-2 6q-3 1 -14 1q-21 0 -44 -4.5t-42.5 -16.5t-32.5 -33
t-13 -54q0 -20 5 -36.5t14.5 -32t23.5 -31.5t33 -37q26 -28 42 -54.5t16 -64.5q0 -33 -12.5 -59.5t-34 -46t-51 -31t-63.5 -13.5l-26 -55l2 -3q8 2 16.5 3t15.5 1q25 0 39.5 -13t14.5 -35q0 -20 -9 -36.5t-24.5 -28.5t-35.5 -19t-42 -7z" />
  </g>

</svg>
