<?xml version="1.0" standalone="no"?>
<!DOCTYPE svg PUBLIC "-//W3C//DTD SVG 1.1//EN" "http://www.w3.org/Graphics/SVG/1.1/DTD/svg11.dtd" >
<svg xmlns="http://www.w3.org/2000/svg" xmlns:xlink="http://www.w3.org/1999/xlink" version="1.1" viewBox="-14 0 568 1000">
  <g transform="matrix(1 0 0 -1 0 800)">
   <path fill="currentColor"
d="M8 47q26 14 51.5 37.5t46 55.5t33.5 71.5t13 85.5v12h-88l8 33h78q-2 26 -3.5 54t-1.5 57q0 62 18.5 110t50.5 80.5t76 49.5t95 17q33 0 62 -8t50.5 -22.5t34 -34t12.5 -42.5q0 -26 -14.5 -44t-37.5 -18q-20 0 -31.5 11.5t-11.5 29.5q0 20 12.5 36t35.5 21l1 4
q-19 14 -46.5 22t-67.5 8q-47 0 -81 -16.5t-56.5 -46t-33 -68.5t-10.5 -84q0 -24 2 -55t3 -61h181l-8 -33h-173v-8q-2 -88 -45 -150.5t-112 -103.5v-4h328l30 119h49l-40 -162h-422z" />
  </g>

</svg>
