<?xml version="1.0" standalone="no"?>
<!DOCTYPE svg PUBLIC "-//W3C//DTD SVG 1.1//EN" "http://www.w3.org/Graphics/SVG/1.1/DTD/svg11.dtd" >
<svg xmlns="http://www.w3.org/2000/svg" xmlns:xlink="http://www.w3.org/1999/xlink" version="1.1" viewBox="-10 0 384 1000">
  <g transform="matrix(1 0 0 -1 0 800)">
   <path fill="currentColor"
d="M103 -12q-21 0 -33.5 12.5t-12.5 32.5q0 8 2 18.5t4 19.5l50 198h-50l8 31h49l45 178h-86l9 34h41q27 0 40 8.5t23 31.5l42 98h31l-34 -138h133l-8 -34h-134l-44 -178h99l-8 -31h-99l-58 -231l17 -8l152 105l16 -17l-109 -86q-18 -14 -30 -23t-21 -13.5t-17 -6t-17 -1.5z
" />
  </g>

</svg>
