<?xml version="1.0" standalone="no"?>
<!DOCTYPE svg PUBLIC "-//W3C//DTD SVG 1.1//EN" "http://www.w3.org/Graphics/SVG/1.1/DTD/svg11.dtd" >
<svg xmlns="http://www.w3.org/2000/svg" xmlns:xlink="http://www.w3.org/1999/xlink" version="1.1" viewBox="-64 0 1038 1000">
  <g transform="matrix(1 0 0 -1 0 800)">
   <path fill="currentColor"
d="M-46 32h68l249 296q17 20 29 27.5t27 8.5l-32 208q-9 57 -23.5 81t-37.5 31l-1 -6q8 -11 8 -30q0 -22 -12.5 -35.5t-33.5 -13.5q-19 0 -30.5 11.5t-11.5 29.5q0 25 18 46.5t57 21.5q44 0 68.5 -30t35.5 -99l31 -202h98l72 289h-75l8 32h210l-8 -32h-75l-72 -289h99
l151 239q34 54 62.5 73t63.5 19q32 0 49.5 -17t17.5 -43q0 -22 -12.5 -35.5t-33.5 -13.5q-20 0 -31.5 11.5t-11.5 29.5q0 23 17 38l-2 6q-9 -2 -18.5 -7t-19.5 -15t-21.5 -25t-26.5 -38l-150 -236q9 -3 15.5 -11t14.5 -29l103 -291h66l-8 -32h-108l-120 338l-6 5h-98
l-78 -311h75l-8 -32h-211l8 32h76l78 311h-98l-7 -5l-284 -338h-118z" />
  </g>

</svg>
