<?xml version="1.0" standalone="no"?>
<!DOCTYPE svg PUBLIC "-//W3C//DTD SVG 1.1//EN" "http://www.w3.org/Graphics/SVG/1.1/DTD/svg11.dtd" >
<svg xmlns="http://www.w3.org/2000/svg" xmlns:xlink="http://www.w3.org/1999/xlink" version="1.1" viewBox="-25 0 965 1000">
  <g transform="matrix(1 0 0 -1 0 800)">
   <path fill="currentColor"
d="M-7 32h75l158 634h-75l8 32h210l-8 -32h-75l-72 -289h322l72 289h-75l8 32h210l-8 -32h-75l-68 -274h145q73 0 112 -37t39 -100q0 -30 -10 -73.5t-35.5 -84t-71 -69t-115.5 -28.5h-297l8 32h75l77 311h-321l-78 -311h75l-8 -32h-210zM662 34q65 0 104.5 39.5t55.5 99.5
q6 25 10.5 48t4.5 40q0 40 -23 68.5t-75 28.5h-147l-81 -324h151z" />
  </g>

</svg>
