<?xml version="1.0" standalone="no"?>
<!DOCTYPE svg PUBLIC "-//W3C//DTD SVG 1.1//EN" "http://www.w3.org/Graphics/SVG/1.1/DTD/svg11.dtd" >
<svg xmlns="http://www.w3.org/2000/svg" xmlns:xlink="http://www.w3.org/1999/xlink" version="1.1" viewBox="-10 0 836 1000">
  <g transform="matrix(1 0 0 -1 0 800)">
   <path fill="currentColor"
d="M640 -12q-21 0 -34 12.5t-13 32.5q0 18 6 38l94 347q4 13 4 26q0 35 -34 35q-23 0 -48 -14.5t-51 -40.5q-23 -23 -46 -53.5t-43 -65.5t-36 -73t-25 -74l-40 -158h-57l104 416q4 16 4 28q0 35 -34 35q-22 0 -47 -14.5t-52 -40.5q-22 -23 -45 -53.5t-43 -65.5t-36.5 -73
t-25.5 -74l-39 -158h-57l117 468h-88l6 25l150 27l-54 -215l6 -3q19 36 42.5 75t51 71.5t60.5 54t72 21.5q38 0 54.5 -21t16.5 -53q0 -11 -2 -22t-5 -24l-25 -99l7 -3q19 36 42 75t50.5 71.5t60.5 54t72 21.5q40 0 57 -20t17 -52q0 -11 -2 -22t-5 -23l-99 -369l18 -8
l123 114l17 -15l-79 -83q-33 -35 -52 -46.5t-35 -11.5z" />
  </g>

</svg>
