<?xml version="1.0" standalone="no"?>
<!DOCTYPE svg PUBLIC "-//W3C//DTD SVG 1.1//EN" "http://www.w3.org/Graphics/SVG/1.1/DTD/svg11.dtd" >
<svg xmlns="http://www.w3.org/2000/svg" xmlns:xlink="http://www.w3.org/1999/xlink" version="1.1" viewBox="-10 0 562 1000">
  <g transform="matrix(1 0 0 -1 0 800)">
   <path fill="currentColor"
d="M277 -183q-7 0 -11.5 0.5t-9.5 1.5v18h10q38 0 59 20t44 54l101 142l-4 3q-38 -40 -59.5 -54t-36.5 -14q-22 0 -34 12t-12 32q0 8 2.5 20.5t4.5 21.5l34 133l-7 2q-19 -36 -42 -75.5t-51 -71.5t-61 -53t-72 -21t-56 20.5t-17 52.5q0 11 2 22t5 23l97 362h-88l6 25l154 27
l-115 -426q-4 -13 -4 -26q0 -35 35 -35q23 0 48 14.5t51 40.5q22 22 45 53t43.5 66t36.5 73t25 74l39 158h57l-120 -474l18 -8l123 114l17 -15q-24 -26 -38.5 -55t-29.5 -66q-23 -57 -43 -93.5t-38 -54.5q-43 -43 -108 -43z" />
  </g>

</svg>
