<?xml version="1.0" standalone="no"?>
<!DOCTYPE svg PUBLIC "-//W3C//DTD SVG 1.1//EN" "http://www.w3.org/Graphics/SVG/1.1/DTD/svg11.dtd" >
<svg xmlns="http://www.w3.org/2000/svg" xmlns:xlink="http://www.w3.org/1999/xlink" version="1.1" viewBox="-10 0 715 1000">
  <g transform="matrix(1 0 0 -1 0 800)">
   <path fill="currentColor"
d="M410 -12q-70 0 -103.5 46.5t-33.5 126.5q0 41 9 85h-119l-61 -246h-57l117 468h-88l6 25l152 27l-60 -240h118q12 48 33.5 92t51.5 77.5t67.5 54t81.5 20.5q71 0 104 -46.5t33 -125.5q0 -62 -17.5 -126.5t-50.5 -117t-79.5 -86.5t-103.5 -34zM412 20q32 0 58 16.5
t46.5 44.5t35.5 65.5t25 78.5q9 34 14 57.5t8 40.5t4 29.5t1 23.5q0 52 -17.5 84.5t-64.5 32.5q-32 0 -58 -16.5t-46.5 -44.5t-35.5 -65.5t-25 -78.5q-9 -34 -14 -57.5t-8 -40.5t-4 -29.5t-1 -23.5q0 -53 17.5 -85t64.5 -32z" />
  </g>

</svg>
