<?xml version="1.0" standalone="no"?>
<!DOCTYPE svg PUBLIC "-//W3C//DTD SVG 1.1//EN" "http://www.w3.org/Graphics/SVG/1.1/DTD/svg11.dtd" >
<svg xmlns="http://www.w3.org/2000/svg" xmlns:xlink="http://www.w3.org/1999/xlink" version="1.1" viewBox="-10 0 712 1000">
  <g transform="matrix(1 0 0 -1 0 800)">
   <path fill="currentColor"
d="M137 -212q-37 0 -56 15t-19 40q0 19 12 32t32 13q18 0 28.5 -11t10.5 -26q0 -9 -5 -19t-16 -18l2 -5h7q45 0 70 31.5t40 91.5l43 171l-6 2q-33 -65 -69.5 -91t-71.5 -26q-51 0 -72 36.5t-21 96.5q0 75 18.5 147.5t51.5 129.5t77.5 91.5t95.5 34.5q32 0 53 -16t28 -48h5
l34 135q18 71 59.5 111t104.5 40q37 0 56 -15t19 -40q0 -19 -12 -32t-32 -13q-18 0 -28.5 11t-10.5 26q0 9 5 19t16 18l-2 5h-7q-45 -2 -70 -32.5t-40 -90.5l-33 -130l-16 -62l6 -3q33 65 69.5 91t71.5 26q51 0 72 -36t21 -96q0 -76 -19 -148.5t-51.5 -129.5t-77 -91.5
t-95.5 -34.5q-67 0 -81 65h-5l-28 -114q-17 -71 -59 -111t-105 -40zM154 30q30 0 57.5 22t50.5 59t42 86t32 103l18 74q14 57 1 86.5t-55 29.5q-27 0 -53 -14.5t-49 -42t-42 -67t-31 -88.5q-5 -18 -9.5 -39t-7.5 -41.5t-5 -39.5t-2 -34q0 -47 11 -70.5t42 -23.5zM404 22
q27 0 53 14.5t49 42t42 67t31 88.5q5 18 9.5 39t7.5 41.5t5 39.5t2 34q0 47 -11 70.5t-42 23.5q-30 0 -57.5 -22t-51 -59t-42 -86t-31.5 -103l-18 -74q-14 -57 -1 -86.5t55 -29.5z" />
  </g>

</svg>
