<?xml version="1.0" standalone="no"?>
<!DOCTYPE svg PUBLIC "-//W3C//DTD SVG 1.1//EN" "http://www.w3.org/Graphics/SVG/1.1/DTD/svg11.dtd" >
<svg xmlns="http://www.w3.org/2000/svg" xmlns:xlink="http://www.w3.org/1999/xlink" version="1.1" viewBox="-24 0 679 1000">
  <g transform="matrix(1 0 0 -1 0 800)">
   <path fill="currentColor"
d="M361 666h-75l-65 -263h3q35 12 73.5 18t77.5 6q183 0 183 -138q0 -20 -3.5 -42.5t-14.5 -64.5l-37 -150h75l-8 -32h-207l8 32h75l37 155q11 38 14.5 60t3.5 41q0 53 -33.5 78.5t-105.5 25.5q-42 0 -80.5 -6.5t-69.5 -17.5l-84 -336h75l-8 -32h-209l8 32h74l158 634h-75
l8 32h210z" />
  </g>

</svg>
