<?xml version="1.0" standalone="no"?>
<!DOCTYPE svg PUBLIC "-//W3C//DTD SVG 1.1//EN" "http://www.w3.org/Graphics/SVG/1.1/DTD/svg11.dtd" >
<svg xmlns="http://www.w3.org/2000/svg" xmlns:xlink="http://www.w3.org/1999/xlink" version="1.1" viewBox="-10 0 492 1000">
  <g transform="matrix(1 0 0 -1 0 800)">
   <path fill="currentColor"
d="M184 -12q-74 0 -108 46.5t-34 126.5q0 61 18 125.5t51.5 117.5t80.5 86.5t106 33.5q74 0 108 -47t34 -127q0 -62 -18 -126t-51.5 -116.5t-81 -86t-105.5 -33.5zM297 492q-34 0 -61 -16.5t-48 -44.5t-36.5 -65.5t-25.5 -78.5l-3 -12h245q10 40 12.5 61t2.5 39
q0 26 -4 47.5t-14 37t-26.5 24t-41.5 8.5zM185 20q34 0 61.5 16.5t48.5 44.5t36.5 65.5t24.5 78.5l4 18h-245q-5 -22 -8 -37.5t-5 -27.5t-2.5 -22t-0.5 -19q0 -26 4 -47.5t14 -37t26.5 -24t41.5 -8.5z" />
  </g>

</svg>
