<?xml version="1.0" standalone="no"?>
<!DOCTYPE svg PUBLIC "-//W3C//DTD SVG 1.1//EN" "http://www.w3.org/Graphics/SVG/1.1/DTD/svg11.dtd" >
<svg xmlns="http://www.w3.org/2000/svg" xmlns:xlink="http://www.w3.org/1999/xlink" version="1.1" viewBox="-10 0 497 1000">
  <g transform="matrix(1 0 0 -1 0 800)">
   <path fill="currentColor"
d="M122 -168h90q24 15 44 48t33 81l42 161q6 23 8 35.5t2 22.5q0 24 -12 39t-43 15q-28 0 -54 -12.5t-48 -33.5t-38.5 -49.5t-24.5 -59.5l-19 -79h-57l120 481h-68l8 31h352l-38 -150h-44l29 116h-183l-75 -299l8 -2q71 103 156 103q45 0 67 -25.5t22 -67.5q0 -14 -3 -30
t-8 -38l-42 -159q-12 -44 -30 -74.5t-39 -49.5t-43.5 -27.5t-43.5 -8.5h-76z" />
  </g>

</svg>
