<?xml version="1.0" standalone="no"?>
<!DOCTYPE svg PUBLIC "-//W3C//DTD SVG 1.1//EN" "http://www.w3.org/Graphics/SVG/1.1/DTD/svg11.dtd" >
<svg xmlns="http://www.w3.org/2000/svg" xmlns:xlink="http://www.w3.org/1999/xlink" version="1.1" viewBox="-10 0 574 1000">
  <g transform="matrix(1 0 0 -1 0 800)">
   <path fill="currentColor"
d="M199 -11q-44 3 -76.5 16t-53.5 31t-31.5 39t-10.5 40q0 26 14.5 41.5t34.5 15.5q21 0 31 -12t10 -28q0 -21 -13.5 -34t-32.5 -16l-1 -5q19 -25 54 -39.5t90 -14.5q82 0 134.5 39.5t69.5 105.5q3 14 5.5 29.5t2.5 33.5q0 55 -33 80.5t-93 25.5h-88l9 34h91q28 0 54.5 9
t48.5 25.5t38 40.5t24 54q5 21 7.5 35.5t2.5 28.5q0 53 -31.5 82.5t-93.5 29.5q-31 0 -60 -9.5t-52 -26t-40 -40t-24 -51.5l-15 -61h-49l52 210h49l-17 -69h3q26 35 66 58t100 23q77 0 124.5 -40t47.5 -110q0 -76 -45.5 -130t-123.5 -74l-1 -4q51 -13 80.5 -45.5t29.5 -89.5
q0 -42 -16 -81.5t-46.5 -70.5t-74.5 -51.5t-99 -24.5l-38 -149h-51z" />
  </g>

</svg>
