<?xml version="1.0" standalone="no"?>
<!DOCTYPE svg PUBLIC "-//W3C//DTD SVG 1.1//EN" "http://www.w3.org/Graphics/SVG/1.1/DTD/svg11.dtd" >
<svg xmlns="http://www.w3.org/2000/svg" xmlns:xlink="http://www.w3.org/1999/xlink" version="1.1" viewBox="-10 0 438 1000">
  <g transform="matrix(1 0 0 -1 0 800)">
   <path fill="currentColor"
d="M153 -12q-58 0 -91.5 31t-33.5 85q0 23 6 44.5t20 41.5t38.5 39t61.5 37l93 45q50 24 72.5 49.5t22.5 59.5t-21.5 51t-56.5 17q-39 0 -74.5 -22t-68.5 -70l-21 14q35 57 77.5 85.5t98.5 28.5t88.5 -29.5t32.5 -77.5q0 -54 -34.5 -90t-91.5 -63l-93 -45q-56 -27 -75.5 -56
t-19.5 -63q0 -38 22.5 -57t56.5 -19q43 0 83 24t76 77l22 -13q-78 -124 -190 -124z" />
  </g>

</svg>
