<?xml version="1.0" standalone="no"?>
<!DOCTYPE svg PUBLIC "-//W3C//DTD SVG 1.1//EN" "http://www.w3.org/Graphics/SVG/1.1/DTD/svg11.dtd" >
<svg xmlns="http://www.w3.org/2000/svg" xmlns:xlink="http://www.w3.org/1999/xlink" version="1.1" viewBox="-10 0 830 1000">
  <g transform="matrix(1 0 0 -1 0 800)">
   <path fill="currentColor"
d="M126 32h74l158 632h-172l-31 -126h-49l40 160h355l-8 -32h-75l-72 -289h96l172 239q20 28 36.5 46t31.5 28t29.5 14t30.5 4q32 0 50 -17t18 -43q0 -22 -12.5 -35.5t-33.5 -13.5q-20 0 -31.5 11.5t-11.5 29.5q0 23 17 38l-2 6q-9 -2 -18 -7t-19 -14.5t-23 -25t-29 -38.5
l-170 -236q10 -4 17.5 -13t15.5 -29l123 -289h67l-8 -32h-109l-143 338l-6 5h-96l-77 -311h74l-7 -32h-210z" />
  </g>

</svg>
