<?xml version="1.0" standalone="no"?>
<!DOCTYPE svg PUBLIC "-//W3C//DTD SVG 1.1//EN" "http://www.w3.org/Graphics/SVG/1.1/DTD/svg11.dtd" >
<svg xmlns="http://www.w3.org/2000/svg" xmlns:xlink="http://www.w3.org/1999/xlink" version="1.1" viewBox="-25 0 727 1000">
  <g transform="matrix(1 0 0 -1 0 800)">
   <path fill="currentColor"
d="M375 -12q-37 0 -64.5 9.5t-45.5 25.5t-27 35.5t-9 40.5q0 23 14.5 40.5t37.5 17.5q19 0 29.5 -10.5t10.5 -26.5q0 -20 -15.5 -33t-40.5 -15v-6q15 -25 42 -34.5t62 -9.5q39 0 69.5 13t53 35t37 51t22.5 61q3 14 7.5 34.5t4.5 35.5q0 59 -32.5 85t-109.5 26h-44l9 36
l240 265h-340l-166 -664h-135l8 32h75l158 634h-75l8 32h533l-7 -30l-241 -265l-1 -6q85 0 132.5 -34.5t47.5 -109.5q0 -57 -19.5 -105.5t-53 -84t-79 -55.5t-96.5 -20z" />
  </g>

</svg>
