<?xml version="1.0" standalone="no"?>
<!DOCTYPE svg PUBLIC "-//W3C//DTD SVG 1.1//EN" "http://www.w3.org/Graphics/SVG/1.1/DTD/svg11.dtd" >
<svg xmlns="http://www.w3.org/2000/svg" xmlns:xlink="http://www.w3.org/1999/xlink" version="1.1" viewBox="-10 0 748 1000">
  <g transform="matrix(1 0 0 -1 0 800)">
   <path fill="currentColor"
d="M426 673q-51 0 -93.5 -20.5t-76.5 -57t-59 -87.5t-40 -112q-9 -38 -15.5 -67t-10 -51.5t-5 -40.5t-1.5 -34q0 -82 39.5 -130t126.5 -48q51 0 93.5 20.5t76.5 57t59 87.5t40 112q9 38 15.5 67t10 51.5t5 40.5t1.5 34q0 82 -39.5 130t-126.5 48zM285 -12q-106 0 -163 62.5
t-57 175.5q0 43 8.5 96t27.5 107t48 104.5t69.5 89.5t93.5 63t120 24q106 0 163 -62.5t57 -175.5q0 -44 -8.5 -96.5t-27.5 -106.5t-48 -104.5t-69.5 -89.5t-94 -63t-119.5 -24zM303 773l154 142h44l88 -143l-19 -11l-98 109l-152 -109zM569 886l114 164l45 -26l-139 -149z
" />
  </g>

</svg>
