<?xml version="1.0" standalone="no"?>
<!DOCTYPE svg PUBLIC "-//W3C//DTD SVG 1.1//EN" "http://www.w3.org/Graphics/SVG/1.1/DTD/svg11.dtd" >
<svg xmlns="http://www.w3.org/2000/svg" xmlns:xlink="http://www.w3.org/1999/xlink" version="1.1" viewBox="-10 0 793 1000">
  <g transform="matrix(1 0 0 -1 0 800)">
   <path fill="currentColor"
d="M181 324q-49 0 -75.5 21t-26.5 47q0 19 10.5 30.5t26.5 11.5q29 0 29 -28q0 -14 -9 -23.5t-23 -12.5l-1 -4q11 -9 28 -12.5t34 -3.5q38 0 68 19t41 57q2 5 3.5 14.5t1.5 16.5q0 24 -17.5 37.5t-52.5 13.5h-34l7 27h29q43 0 66.5 19t31.5 48q2 5 3.5 13t1.5 15
q0 48 -63 48q-20 0 -38 -4t-31 -12l-1 -3q8 -3 14 -10.5t6 -18.5q0 -14 -10 -24t-25 -10q-30 0 -30 31q0 14 9.5 28t26.5 25t40 17.5t49 6.5q49 0 75.5 -19t26.5 -55q0 -24 -9 -42.5t-23 -32t-31.5 -21t-34.5 -10.5l-1 -4q28 -5 45 -23t17 -45t-11 -50.5t-31 -40.5
t-48.5 -27t-63.5 -10zM703 698h43l-603 -698h-43zM553 -6q-26 0 -45.5 6t-32 16t-18.5 21.5t-6 22.5q0 22 11 33t26 11q14 0 21.5 -8t7.5 -21q0 -14 -9.5 -23.5t-22.5 -11.5l-1 -4q11 -8 27 -12t36 -4q43 0 70.5 23t38.5 62q2 5 4 16.5t2 19.5q0 28 -16 42t-42 14t-45 -10
t-34 -25l-33 4l64 202h198l-9 -35h-174l-47 -151l4 -1q15 19 39.5 32.5t54.5 13.5q42 0 65 -22t23 -60q0 -36 -13 -64t-35 -47.5t-50 -29.5t-59 -10z" />
  </g>

</svg>
