<?xml version="1.0" standalone="no"?>
<!DOCTYPE svg PUBLIC "-//W3C//DTD SVG 1.1//EN" "http://www.w3.org/Graphics/SVG/1.1/DTD/svg11.dtd" >
<svg xmlns="http://www.w3.org/2000/svg" xmlns:xlink="http://www.w3.org/1999/xlink" version="1.1" viewBox="-25 0 820 1000">
  <g transform="matrix(1 0 0 -1 0 800)">
   <path fill="currentColor"
d="M536 -12q-70 0 -113 23.5t-57 77.5l-65 239h-62h-37l-74 -296h75l-8 -32h-210l8 32h75l158 634h-75l8 32h219q71 0 109 -34t38 -94q0 -36 -9.5 -73t-30 -69t-52.5 -56.5t-77 -35.5l69 -238q11 -37 39.5 -57.5t76.5 -20.5q50 0 80.5 22.5t30.5 67.5q0 31 -17.5 56
t-50.5 61q-28 30 -41.5 55t-13.5 57q0 31 11.5 56t32 43t49 28t63.5 10q44 0 65 -16.5t21 -39.5q0 -17 -10.5 -29t-29.5 -12q-16 0 -25.5 9.5t-9.5 25.5q0 10 4.5 19.5t12.5 14.5l-1 6q-3 1 -8 1h-10q-54 -1 -82.5 -25t-28.5 -73q0 -18 4.5 -32t13 -28t21 -28.5t28.5 -32.5
q27 -28 41 -52t14 -59q0 -63 -45.5 -100t-123.5 -37zM211 362h81q32 0 58.5 10t47 27.5t34 41t19.5 50.5q5 23 10 43.5t5 38.5q0 40 -22.5 65.5t-74.5 25.5h-83z" />
  </g>

</svg>
