<?xml version="1.0" standalone="no"?>
<!DOCTYPE svg PUBLIC "-//W3C//DTD SVG 1.1//EN" "http://www.w3.org/Graphics/SVG/1.1/DTD/svg11.dtd" >
<svg xmlns="http://www.w3.org/2000/svg" xmlns:xlink="http://www.w3.org/1999/xlink" version="1.1" viewBox="-11 0 689 1000">
  <g transform="matrix(1 0 0 -1 0 800)">
   <path fill="currentColor"
d="M444.493 107.341c45.5635 0 97.9238 9.70605 143.776 30.9834l33.4131 -105.765c-54.3867 -21.668 -114.27 -32.5596 -177.19 -32.5596c-246.186 0 -444.493 194.837 -444.493 449.181c0 253.172 198.308 448.009 444.493 448.009
c65.3799 0 127.577 -11.832 183.844 -35.4385l-51.2041 -98.6045c-40.79 17.748 -86.6426 26.7012 -132.64 26.7012c-180.806 0 -315.036 -161.004 -315.036 -340.667c0 -164.505 121.357 -341.84 315.037 -341.84z" />
  </g>

</svg>
