<?xml version="1.0" standalone="no"?>
<!DOCTYPE svg PUBLIC "-//W3C//DTD SVG 1.1//EN" "http://www.w3.org/Graphics/SVG/1.1/DTD/svg11.dtd" >
<svg xmlns="http://www.w3.org/2000/svg" xmlns:xlink="http://www.w3.org/1999/xlink" version="1.1" viewBox="-10 0 591 1000">
  <g transform="matrix(1 0 0 -1 0 750)">
   <path fill="currentColor"
d="M444 658h-216v-265h122l31 84l42 -7v-197l-42 -7l-31 84h-122v-308h221l55 150l42 -7v-185h-31c-42 -25 -70 -56 -70 -93s23 -50 58 -50c14 0 29 3 32 4v-50c-26 -7 -46 -8 -55 -8c-54 0 -93 35 -93 87c0 54 42 88 77 110h-420l-7 42l85 33v550l-87 33l8 42h485v-150
l-42 -8z" />
  </g>

</svg>
