<?xml version="1.0" standalone="no"?>
<!DOCTYPE svg PUBLIC "-//W3C//DTD SVG 1.1//EN" "http://www.w3.org/Graphics/SVG/1.1/DTD/svg11.dtd" >
<svg xmlns="http://www.w3.org/2000/svg" xmlns:xlink="http://www.w3.org/1999/xlink" version="1.1" viewBox="-10 0 765 1000">
  <g transform="matrix(1 0 0 -1 0 750)">
   <path fill="currentColor"
d="M174 355c0 162 67 313 249 313c38 0 88 -7 130 -19l48 -134l42 7v136c-69 40 -131 59 -220 59c-224 0 -366 -162 -366 -367c0 -185 106 -367 366 -367c82 0 170 23 220 59v211l87 34l-8 42h-265l-7 -42l86 -34v-207c-37 -9 -82 -14 -114 -14c-198 0 -248 169 -248 323z
M444 928l109 -160l-20 -10l-118 106l-119 -106l-20 10l109 160h59z" />
  </g>

</svg>
