<?xml version="1.0" standalone="no"?>
<!DOCTYPE svg PUBLIC "-//W3C//DTD SVG 1.1//EN" "http://www.w3.org/Graphics/SVG/1.1/DTD/svg11.dtd" >
<svg xmlns="http://www.w3.org/2000/svg" xmlns:xlink="http://www.w3.org/1999/xlink" version="1.1" viewBox="-10 0 1123 1000">
  <g transform="matrix(1 0 0 -1 0 750)">
   <path fill="currentColor"
d="M554 75v583h-321v-583l85 -33l-7 -42h-262l-8 42l86 33v550l-87 34l7 41h692l8 -41l-87 -34v-550l85 -33l-7 -42h-262l-8 42zM898 0l7 42l-203 303v42l233 238l-87 34l7 41h221l7 -41l-32 -13c-38 -15 -67 -34 -96 -63l-200 -204l73 -32l182 -271l87 -34l-8 -42h-191z
" />
  </g>

</svg>
