<?xml version="1.0" standalone="no"?>
<!DOCTYPE svg PUBLIC "-//W3C//DTD SVG 1.1//EN" "http://www.w3.org/Graphics/SVG/1.1/DTD/svg11.dtd" >
<svg xmlns="http://www.w3.org/2000/svg" xmlns:xlink="http://www.w3.org/1999/xlink" version="1.1" viewBox="-10 0 650 1000">
  <g transform="matrix(1 0 0 -1 0 750)">
   <path fill="currentColor"
d="M425 75v584h-86c-109 0 -156 -67 -156 -156c0 -72 69 -139 163 -139h36v-42l-178 -280l7 -41h-194l-7 41l90 33l130 213l73 34c-111 0 -222 61 -222 181s74 197 220 197h309l8 -42l-87 -33v-550l87 -33l-8 -42h-265l-7 42z" />
  </g>

</svg>
