<?xml version="1.0" standalone="no"?>
<!DOCTYPE svg PUBLIC "-//W3C//DTD SVG 1.1//EN" "http://www.w3.org/Graphics/SVG/1.1/DTD/svg11.dtd" >
<svg xmlns="http://www.w3.org/2000/svg" xmlns:xlink="http://www.w3.org/1999/xlink" version="1.1" viewBox="-10 0 834 1000">
  <g transform="matrix(1 0 0 -1 0 750)">
   <path fill="currentColor"
d="M480 710c-62 0 -139 -30 -140 -120c0 -60 53 -117 99 -146c1 -1 2 -2 4 -2v-83l-36 -7l-19 72c-27 11 -62 17 -88 17c-100 0 -155 -70 -155 -188c0 -120 31 -217 156 -217c52 0 91 19 132 45l23 -33c-43 -39 -96 -59 -161 -59c-177 0 -255 96 -255 244
c0 155 101 245 257 245c19 0 38 -2 56 -5c-37 28 -59 64 -59 117c0 91 74 157 194 157c119 0 199 -60 199 -157c0 -76 -30 -123 -30 -123h131l-7 -36h-124v-321c0 -47 25 -74 55 -74c36 0 58 15 79 38l23 -27c-33 -35 -62 -58 -119 -58c-92 0 -132 56 -132 129v313h-58
l-7 36c71 22 116 64 116 123c0 80 -56 120 -134 120z" />
  </g>

</svg>
