<?xml version="1.0" standalone="no"?>
<!DOCTYPE svg PUBLIC "-//W3C//DTD SVG 1.1//EN" "http://www.w3.org/Graphics/SVG/1.1/DTD/svg11.dtd" >
<svg xmlns="http://www.w3.org/2000/svg" xmlns:xlink="http://www.w3.org/1999/xlink" version="1.1" viewBox="-10 0 591 1000">
  <g transform="matrix(1 0 0 -1 0 750)">
   <path fill="currentColor"
d="M200 57l66 -21l-8 -36h-216l-7 36l65 21v374h-50l-7 36l115 11l42 -32c44 19 78 32 130 32c109 0 177 -58 177 -164v-252c0 -140 -35 -250 -223 -312l-22 37c138 92 147 175 147 292v250c0 64 -49 102 -102 102c-39 0 -68 -14 -107 -37v-337z" />
  </g>

</svg>
