<?xml version="1.0" standalone="no"?>
<!DOCTYPE svg PUBLIC "-//W3C//DTD SVG 1.1//EN" "http://www.w3.org/Graphics/SVG/1.1/DTD/svg11.dtd" >
<svg xmlns="http://www.w3.org/2000/svg" xmlns:xlink="http://www.w3.org/1999/xlink" version="1.1" viewBox="-10 0 914 1000">
  <g transform="matrix(1 0 0 -1 0 750)">
   <path fill="currentColor"
d="M760 256c0 136 -43 175 -116 175c-29 0 -57 -7 -86 -17v44c28 13 65 20 95 20c147 0 211 -73 211 -233c0 -154 -73 -256 -231 -256c-84 0 -143 13 -201 47v642c-28 19 -64 32 -110 32c-81 0 -133 -50 -133 -158v-85h121l-7 -36h-114v-374l66 -21l-8 -36h-209l-7 36l64 21
v374h-68l-7 36l75 24v41c0 113 63 215 231 215c82 0 150 -18 200 -47v-643c25 -13 61 -21 100 -21c90 0 134 84 134 220z" />
  </g>

</svg>
