<?xml version="1.0" standalone="no"?>
<!DOCTYPE svg PUBLIC "-//W3C//DTD SVG 1.1//EN" "http://www.w3.org/Graphics/SVG/1.1/DTD/svg11.dtd" >
<svg xmlns="http://www.w3.org/2000/svg" xmlns:xlink="http://www.w3.org/1999/xlink" version="1.1" viewBox="-10 0 850 1000">
  <g transform="matrix(1 0 0 -1 0 750)">
   <path fill="currentColor"
d="M640 385c120 0 161 -91 161 -197c0 -105 -33 -205 -161 -205s-164 95 -164 205s44 197 164 197zM640 352c-67 0 -83 -64 -83 -161s19 -175 83 -175s80 77 80 175s-13 161 -80 161zM203 717c120 0 161 -91 161 -197c0 -105 -33 -205 -161 -205s-164 95 -164 205
s44 197 164 197zM203 684c-67 0 -83 -64 -83 -161s19 -175 83 -175s80 77 80 175s-13 161 -80 161zM663 717h51l-534 -734h-52z" />
  </g>

</svg>
