<?xml version="1.0" standalone="no"?>
<!DOCTYPE svg PUBLIC "-//W3C//DTD SVG 1.1//EN" "http://www.w3.org/Graphics/SVG/1.1/DTD/svg11.dtd" >
<svg xmlns="http://www.w3.org/2000/svg" xmlns:xlink="http://www.w3.org/1999/xlink" version="1.1" viewBox="-10 0 241 1000">
  <g transform="matrix(1 0 0 -1 0 750)">
   <path fill="currentColor"
d="M126 478c30 0 55 -24 55 -54s-25 -54 -55 -54c-29 0 -54 24 -54 54s25 54 54 54zM127 91c30 0 54 -24 54 -54c0 -96 -78 -188 -128 -218l-21 20c45 35 79 108 79 161h-24c-9 10 -14 23 -14 37c0 30 24 54 54 54z" />
  </g>

</svg>
