<?xml version="1.0" standalone="no"?>
<!DOCTYPE svg PUBLIC "-//W3C//DTD SVG 1.1//EN" "http://www.w3.org/Graphics/SVG/1.1/DTD/svg11.dtd" >
<svg xmlns="http://www.w3.org/2000/svg" xmlns:xlink="http://www.w3.org/1999/xlink" version="1.1" viewBox="-10 0 835 1000">
  <g transform="matrix(1 0 0 -1 0 750)">
   <path fill="currentColor"
d="M496 876c29 0 54 -24 54 -54s-25 -54 -54 -54c-30 0 -54 24 -54 54s24 54 54 54zM317 876c30 0 54 -24 54 -54s-24 -54 -54 -54c-29 0 -54 24 -54 54s25 54 54 54zM234 129v-54l86 -33l-8 -42h-262l-7 42l85 33v550l-87 34l8 41h265l8 -41l-88 -34v-404l357 360v44
l-87 34l8 41h265l7 -41l-87 -34v-550l86 -33l-7 -42h-263l-7 42l85 33v414z" />
  </g>

</svg>
