<?xml version="1.0" standalone="no"?>
<!DOCTYPE svg PUBLIC "-//W3C//DTD SVG 1.1//EN" "http://www.w3.org/Graphics/SVG/1.1/DTD/svg11.dtd" >
<svg xmlns="http://www.w3.org/2000/svg" xmlns:xlink="http://www.w3.org/1999/xlink" version="1.1" viewBox="-10 0 628 1000">
  <g transform="matrix(1 0 0 -1 0 800)">
   <path fill="currentColor"
d="M440.4 372.71c0 0 166.278 -28.1602 141.719 -197.91c-10.3096 -70.3799 -66.8291 -152.78 -181.389 -168.511c-37.0596 -4.96973 -81.9395 -6.20996 -133.689 -6.20996l-169.3 0.410156h-65.8301l85.75 696.41h206.19c50.9297 0 102.1 -1.24023 139.279 -12
c65.21 -18.2197 117.13 -64.1797 105.29 -160.239c-14.7402 -119.65 -128.021 -151.95 -128.021 -151.95zM158.389 658.39l-33.1104 -269.121h78.6699h41.3906c29.3604 -0.410156 89.6006 1.24023 108.24 1.24023c99.3604 0 163.33 48.8604 174.14 136.641
c7.49023 60.8604 -9.5293 137.87 -207.64 132.9zM539.269 193.849c8.11035 65.8301 -24.8809 154.43 -185.081 154.43l-161.59 -0.820312l-72.5 -0.419922l-37.8896 -307.63h147.4h40.1602c202.63 -5.37988 257.12 53.8203 269.5 154.44z" />
  </g>

</svg>
