<?xml version="1.0" standalone="no"?>
<!DOCTYPE svg PUBLIC "-//W3C//DTD SVG 1.1//EN" "http://www.w3.org/Graphics/SVG/1.1/DTD/svg11.dtd" >
<svg xmlns="http://www.w3.org/2000/svg" xmlns:xlink="http://www.w3.org/1999/xlink" version="1.1" viewBox="-10 0 665 1000">
  <g transform="matrix(1 0 0 -1 0 800)">
   <path fill="currentColor"
d="M490.2 673.17c-126.44 0 -246.431 -93.7793 -287.301 -256.829h385.31l-13.1299 -46.2002h-381.28c-0.580078 -3.94043 -1.36035 -7.66016 -1.86035 -11.6406c-1.37012 -11.1299 -2.12012 -21.6895 -2.86035 -32.209h373.54l-12.8799 -46.2002h-362.03
c3.73047 -175.39 106.12 -249.96 225.07 -249.96c53.8203 0 96.9307 10.3496 131.051 25.2598l-5.59961 -45.5498c-34.4805 -11.1699 -75.5205 -18.21 -124.37 -18.21c-168.73 0 -275 100.32 -277.53 288.46h-104.34l12.8799 46.2002h92.9102
c0.790039 11.1396 1.58008 22.2393 3.02051 33.8691c0.419922 3.44043 1.12012 6.59082 1.61035 9.98047h-103.54l13.1201 46.2002h98.9902c44.1396 191.17 182.84 292.439 348.21 292.439c50.0996 0 90.4697 -8.28027 122.47 -20.7002l-5.21973 -42.2305
c-30.2998 16.1504 -71.1699 27.3203 -126.24 27.3203z" />
  </g>

</svg>
