<?xml version="1.0" standalone="no"?>
<!DOCTYPE svg PUBLIC "-//W3C//DTD SVG 1.1//EN" "http://www.w3.org/Graphics/SVG/1.1/DTD/svg11.dtd" >
<svg xmlns="http://www.w3.org/2000/svg" xmlns:xlink="http://www.w3.org/1999/xlink" version="1.1" viewBox="-10 0 627 1000">
  <g transform="matrix(1 0 0 -1 0 800)">
   <path fill="currentColor"
d="M581.79 502.05c-12.8398 -104.34 -77.4609 -171.83 -182.551 -184.66c47.4902 -14.5 87.8604 -60.04 109.721 -161.48c15.4004 -69.9697 52.46 -155.67 52.46 -155.67h-58.3799s-22.2305 57.96 -42.3105 157.33c-25.5498 125.45 -117.75 143.26 -182.26 144.08
l-78.0898 1.24023h-83.2197l-38.5 -302.65l-46.75 0.410156l85.7002 695.99h238.49c78.79 1.25 132.74 -7.86035 168.34 -31.46c53.9199 -36.4404 65.0498 -100.62 57.3496 -163.13zM315.069 346.78c112.61 0 199.11 23.1904 215.38 155.271
c13.7002 111.37 -33.4502 155.67 -169.34 154.85l-201.68 -0.419922l-37.0996 -311.36h9.51953z" />
  </g>

</svg>
