<?xml version="1.0" standalone="no"?>
<!DOCTYPE svg PUBLIC "-//W3C//DTD SVG 1.1//EN" "http://www.w3.org/Graphics/SVG/1.1/DTD/svg11.dtd" >
<svg xmlns="http://www.w3.org/2000/svg" xmlns:xlink="http://www.w3.org/1999/xlink" version="1.1" viewBox="-10 0 641 1000">
  <g transform="matrix(1 0 0 -1 0 800)">
   <path fill="currentColor"
d="M495.21 125.1l103.469 -125.538l-63.3496 -0.0898438l-67.4502 87.79c-86.2402 -105.17 -281.83 -153.62 -380.08 -57.1504c-104.22 101.85 -65.6201 284.029 140.56 364.77c0 0 -40.9502 60.8701 -57.0898 87.7803c-56.0195 93.1602 -8.23926 208.67 118.041 232.27
c85.6699 16.1396 171.62 -18.6299 180.48 -104.75c6.66016 -63.7598 -28.6895 -115.51 -65.1299 -152.37c-38.2998 -38.5 -111.42 -74.6904 -111.42 -74.6904l177.13 -226.23c44.1299 61.9902 61.2803 138.67 61.2803 138.67l38.5801 -19.8398
s-22.3604 -80.1602 -75.0205 -150.62zM191.879 546.052c8.9502 -42.3203 79.748 -133.029 79.708 -133.079c48.2402 21.9502 82.3906 44.0498 106.61 69.3193c100.37 102.26 36.3105 207.42 -60.1592 200.8c-82.6797 -5.79004 -140.609 -68.5996 -126.159 -137.04z
M114.667 67.5527c62.5596 -77.0195 227.47 -65.0908 329.689 52.1191l-193.59 245.48c-189.84 -71.0498 -203.05 -216.04 -136.1 -297.6z" />
  </g>

</svg>
