<?xml version="1.0" standalone="no"?>
<!DOCTYPE svg PUBLIC "-//W3C//DTD SVG 1.1//EN" "http://www.w3.org/Graphics/SVG/1.1/DTD/svg11.dtd" >
<svg xmlns="http://www.w3.org/2000/svg" xmlns:xlink="http://www.w3.org/1999/xlink" version="1.1" viewBox="-10 0 439 1000">
  <g transform="matrix(1 0 0 -1 0 800)">
   <path fill="currentColor"
d="M317.6 310.36c21.6904 -25.6699 78.7002 -23.1895 78.8301 -23.1895l-5.00977 -40.5703s-56.4404 2.49023 -84.4307 -23.1895c-40.6504 -37.6797 -59.3701 -125.859 -59.3301 -185.899c0.0400391 -43.4697 8.32031 -134.14 -77.0498 -188.8
c-59.3301 -38.0898 -128.1 -18.2197 -138.569 -15.7295l19.1299 37.6797c6.66016 -2.90039 45.3301 -18.2207 87.0303 0.819336c36.7598 16.1504 68.0195 61.7002 67.1895 115.521c-1.7002 83.6299 1.49023 176.79 58.7598 241.8
c26.9902 31.0498 60.9805 38.0801 60.9805 38.0801s-32.25 7.04004 -51.6299 38.0996c-41.2803 65.0098 -21.5303 158.16 0.790039 241.8c14.0703 53.8203 -6.00977 99.3604 -38.7998 115.511c-37.0098 19.0498 -79.4502 3.72949 -86.8604 0.829102l-9.84961 37.6797
c11.04 2.48047 84.7002 22.3604 134.681 -15.7393c71.9502 -54.6504 41.3203 -145.32 30.5898 -188.801c-14.8604 -60.0303 -17.8408 -148.221 13.5488 -185.9z" />
  </g>

</svg>
