<?xml version="1.0" standalone="no"?>
<!DOCTYPE svg PUBLIC "-//W3C//DTD SVG 1.1//EN" "http://www.w3.org/Graphics/SVG/1.1/DTD/svg11.dtd" >
<svg xmlns="http://www.w3.org/2000/svg" xmlns:xlink="http://www.w3.org/1999/xlink" version="1.1" viewBox="-10 0 562 1000">
  <g transform="matrix(1 0 0 -1 0 800)">
   <path fill="currentColor"
d="M471.56 696.84l47.6211 0.000976562l-85.8301 -696.82h-47.6201l12.7598 103.51s-2.82031 -6.20996 -7.82031 -13.25c-7.75 -12.4199 -21.6602 -31.0498 -36.9004 -43.8896c-31.79 -26.0801 -76.7598 -55.0703 -138.45 -55.0703
c-83.2197 0 -220.02 42.2305 -192.859 262.921c26.5 215.29 162.51 267.47 262 261.67c64.9297 -4.15039 100.04 -31.4707 122.97 -57.1406c6.91992 -7.87012 18.3496 -22.7705 22.6494 -34.7803c2.82031 -7.4502 5.18066 -21.9404 5.18066 -21.9404
s32.54 264.15 36.2998 294.79zM421.801 255.471c18.2998 148.65 -63.9297 220.691 -137.92 224.831c-103.96 6.20996 -189.99 -67.0801 -208.67 -218.61c-18.8398 -152.78 34.5703 -230.21 147.15 -230.62c63.3496 0 177.989 50.0996 199.439 224.399z" />
  </g>

</svg>
