<?xml version="1.0" standalone="no"?>
<!DOCTYPE svg PUBLIC "-//W3C//DTD SVG 1.1//EN" "http://www.w3.org/Graphics/SVG/1.1/DTD/svg11.dtd" >
<svg xmlns="http://www.w3.org/2000/svg" xmlns:xlink="http://www.w3.org/1999/xlink" version="1.1" viewBox="-10 0 596 1000">
  <g transform="matrix(1 0 0 -1 0 800)">
   <path fill="currentColor"
d="M538.73 282.76c0.709961 -14.6104 0.499023 -30.1035 -1.41113 -45.584l-0.200195 -1.65039c-4.26953 -34.7402 -13.71 -69.9004 -29.6104 -102.11c-0.490234 -0.410156 -0.530273 -0.820312 -0.990234 -1.24023
c-0.0800781 -0.820312 -0.580078 -1.24023 -1.12012 -2.07031c-0.120117 -0.820312 -0.620117 -1.66016 -1.16016 -2.53027c-0.580078 -1.24023 -1.16016 -2.52051 -2.24023 -4.18066c-0.580078 -1.24023 -1.11035 -2.10059 -1.69043 -3.34082
c-0.540039 -0.839844 -1 -1.25 -1.12012 -2.12012c-1.49023 -1.66016 -2.61035 -3.77051 -3.68066 -5.84082l-0.5 -0.410156c-1.12012 -2.07031 -2.61035 -3.77051 -3.69043 -5.84082c-0.0400391 -0.419922 -0.490234 -0.419922 -0.540039 -0.820312
c-0.530273 -0.839844 -1.48047 -1.66016 -2.06055 -2.9502c-0.540039 -0.830078 -1.49023 -1.65039 -2.07031 -2.94043c-0.549805 -0.830078 -1.5 -1.65039 -2.08008 -2.94043c-31.25 -42.6797 -114.56 -106.689 -237.149 -105.869
c-103.02 0.839844 -178.409 32.2197 -215.509 115.069c11.1699 4.17969 22.3096 8.35938 33.5293 12.9492c1.74023 0.419922 7.62012 2.9502 15.29 6.25977c23.9199 -58.1797 79.2803 -96.6396 171.86 -92.4492c145.32 7.12012 220.181 89.0898 234.181 202.5
c13.96 113.4 -46.8701 212.561 -184.54 209.011c-76.9199 -1.99023 -148.05 -44.5605 -191.74 -105.261c-6.08008 2.53027 -12.04 5.83984 -17.7197 8.37012l-14.2402 5.62988l-9.65039 4.59961l60.3301 344.55h423.56l-4.92969 -40.1504h-384.93l-46.5703 -271.9
s20.4004 33.3701 49.4307 51.0898c39.1602 23.9697 71.46 40.3301 139.94 43.3896h11.9199c47.0801 1.65039 78.71 -7.94922 113.28 -24.6797c9.65039 -4.59961 18.8008 -10.0596 27.4111 -16.3096c27.9102 -19.25 48.7803 -50.2197 63.3906 -80.3193
c12.6299 -25.5098 15.3203 -48.5293 17.0205 -79.9092z" />
  </g>

</svg>
