<?xml version="1.0" standalone="no"?>
<!DOCTYPE svg PUBLIC "-//W3C//DTD SVG 1.1//EN" "http://www.w3.org/Graphics/SVG/1.1/DTD/svg11.dtd" >
<svg xmlns="http://www.w3.org/2000/svg" xmlns:xlink="http://www.w3.org/1999/xlink" version="1.1" viewBox="-10 0 757 1000">
  <g transform="matrix(1 0 0 -1 0 800)">
   <path fill="currentColor"
d="M305.99 552.48c-10.1904 -82.7998 -59.5811 -164.369 -156.011 -164.369c-91.9199 0 -127.2 69.9697 -116.09 160.229c12.7002 103.51 59.9102 167.27 156.38 167.27c93.5703 0 127.641 -66.2402 115.721 -163.13zM75.459 564.701
c-12.4297 -100.74 18.71 -143.34 78.5801 -143.34c58.7002 0 101.931 45.9102 113.94 143.34c10.9697 89.0996 -26.0801 121.77 -81.2803 121.77c-53.4004 0 -101.23 -40.4199 -111.24 -121.77zM594.449 706.921h48.9297l-506.53 -714.63h-49.0098zM596.729 327.911
c93.5596 0 127.64 -66.25 115.76 -163.13c-10.2305 -82.8096 -59.5801 -164.369 -156.05 -164.369c-91.9102 0 -127.2 69.9697 -116.101 160.22c12.71 103.52 59.9102 167.279 156.391 167.279zM674.438 176.991c10.9805 89.1396 -26.0889 121.771 -81.2793 121.771
c-53.4004 0 -101.23 -40.4102 -111.25 -121.771c-12.3799 -100.74 18.7598 -143.34 78.6299 -143.34c58.6699 0 101.89 45.9102 113.899 143.34z" />
  </g>

</svg>
