<?xml version="1.0" standalone="no"?>
<!DOCTYPE svg PUBLIC "-//W3C//DTD SVG 1.1//EN" "http://www.w3.org/Graphics/SVG/1.1/DTD/svg11.dtd" >
<svg xmlns="http://www.w3.org/2000/svg" xmlns:xlink="http://www.w3.org/1999/xlink" version="1.1" viewBox="-10 0 499 1000">
  <g transform="matrix(1 0 0 -1 0 800)">
   <path fill="currentColor"
d="M270.85 272.87c57.5498 -9.94043 105.542 -16.9814 135.522 -45.9619c23.6797 -22.7695 41.2793 -58.3691 32.9492 -102.27c-29.4004 -154.84 -293.341 -166.439 -381.571 -79.4893c-35.0303 34.7803 -38.7998 78.25 -38.7998 78.25l48.4902 10.3496
s0.530273 -76.1797 102.38 -96.4697c35.5303 -7.4502 110.391 -11.5898 171.91 20.71c62.4004 32.7002 63.3105 103.91 29.1504 135.8c-51.5098 48.8496 -222.42 29.3896 -279.55 79.9092c-68.4004 60.0303 -33.29 170.16 45.75 213.641
c80.0303 44.71 205.4 37.2598 256.12 8.7002c41.8203 -23.5996 65.9902 -55.8994 75.8105 -107.239l-46.8203 -13.6602s2.83984 67.0703 -78.1797 94.8105c-22.6904 7.45996 -49.6006 10.7695 -76.5107 10.7695c-31.4697 0 -64.1299 -6.21973 -85.54 -15.3193
c-20.9502 -8.7002 -35.8604 -15.3203 -49.4307 -28.1602c-15.5303 -14.9102 -25.0205 -31.46 -30.3506 -48.0195c-7.37988 -22.7803 -6.33984 -44.7207 3.46973 -59.2207c30.4004 -45.54 72.8301 -40.5703 165.2 -57.1299z" />
  </g>

</svg>
