<?xml version="1.0" standalone="no"?>
<!DOCTYPE svg PUBLIC "-//W3C//DTD SVG 1.1//EN" "http://www.w3.org/Graphics/SVG/1.1/DTD/svg11.dtd" >
<svg xmlns="http://www.w3.org/2000/svg" xmlns:xlink="http://www.w3.org/1999/xlink" version="1.1" viewBox="-10 0 354 1000">
  <g transform="matrix(1 0 0 -1 0 800)">
   <path fill="currentColor"
d="M148.09 398.72l-22.7295 -184.28c-7 -56.8496 -17.3496 -116.149 -9.7793 -143.06c6.12988 -21.7305 27.0098 -44.1309 87.4502 -38.751c34.4502 3.07031 61.3604 19.54 61.3604 19.54l6.54004 -44.5898c-35.3604 -17.5898 -71.3701 -18.1299 -97.8301 -17.5498
c-114.57 2.51953 -114.23 76.4297 -101.73 179.279c0.160156 1.28027 0.25 2.48047 0.370117 3.60059l27.9902 227.39l10.7598 69.7598l-78.5801 -1.99023l5.12988 41.8301l79.5801 -1.87012l7.29004 81.8896l11.0596 84.9297l50.75 21.0703l-13.4902 -104.92
l-12.2197 -82.9297l69.9297 2.23047l81.1504 0.419922l-5.20996 -42.3096l-81.6904 -0.169922l-69.1104 1.66016z" />
  </g>

</svg>
