<?xml version="1.0" standalone="no"?>
<!DOCTYPE svg PUBLIC "-//W3C//DTD SVG 1.1//EN" "http://www.w3.org/Graphics/SVG/1.1/DTD/svg11.dtd" >
<svg xmlns="http://www.w3.org/2000/svg" xmlns:xlink="http://www.w3.org/1999/xlink" version="1.1" viewBox="-10 0 546 1000">
  <g transform="matrix(1 0 0 -1 0 800)">
   <path fill="currentColor"
d="M456.29 507.19l46.9912 -0.461914l-61.8096 -506.74l-47.25 0.169922l12.5498 105.95s-12.29 -22.5996 -21.4502 -32.2998c-27.4502 -29.0596 -88.8506 -83.46 -190.001 -82.0498c-75.8496 1.07031 -160.81 37.8008 -163.26 153.311
c-0.69043 33.9102 8.48926 123.72 8.48926 123.72l29.2402 237.74l50.1396 0.200195l-22.5195 -183.04s-1.5 -12.5898 -2.16016 -17.3496l-2.03027 -16.3496h-0.0400391c-6.00977 -47.9902 -7.75 -74.0703 -7.75 -74.0703
c-13.0303 -103.56 11.8896 -169.02 92.8701 -177.539c7.99023 -0.830078 15.3701 -1.33008 23.2305 -1.54004c8.16016 -0.209961 14.0303 -0.0400391 22.4404 0.709961c109.31 9.69043 184.75 90.79 196.76 188.46z" />
  </g>

</svg>
