<?xml version="1.0" standalone="no"?>
<!DOCTYPE svg PUBLIC "-//W3C//DTD SVG 1.1//EN" "http://www.w3.org/Graphics/SVG/1.1/DTD/svg11.dtd" >
<svg xmlns="http://www.w3.org/2000/svg" xmlns:xlink="http://www.w3.org/1999/xlink" version="1.1" viewBox="-10 0 590 1000">
  <g transform="matrix(1 0 0 -1 0 800)">
   <path fill="currentColor"
d="M40 0zM102.5 59q-62.5 70 -62.5 185q0 117 40 211.5t117.5 149.5t185.5 55q110 0 187 -20l-28 -176h-69l-4 98q-49 33 -114 33q-80 0 -123 -83.5t-43 -258.5q0 -78 12.5 -120.5t40.5 -59.5t78 -17q27 0 52.5 7t40.5 19l33 124h69l-16 -180q-47 -18 -101.5 -27.5
t-106.5 -9.5q-126 0 -188.5 70zM405 681zM352 700.5q-18 19.5 -18 47.5q0 33 20.5 58.5t56.5 25.5q29 0 47.5 -19t18.5 -50q0 -33 -20.5 -57.5t-57.5 -24.5q-29 0 -47 19.5z" />
  </g>

</svg>
