<?xml version="1.0" standalone="no"?>
<!DOCTYPE svg PUBLIC "-//W3C//DTD SVG 1.1//EN" "http://www.w3.org/Graphics/SVG/1.1/DTD/svg11.dtd" >
<svg xmlns="http://www.w3.org/2000/svg" xmlns:xlink="http://www.w3.org/1999/xlink" version="1.1" viewBox="-10 0 613 1000">
  <g transform="matrix(1 0 0 -1 0 800)">
   <path fill="currentColor"
d="M39 0zM104 50.5q-65 61.5 -65 189.5q0 116 39.5 211.5t117.5 152t190 56.5q62 0 112 -6t80 -14l-28 -177h-69l-6 101q-52 31 -116 31q-87 0 -129 -85.5t-42 -268.5q0 -66 11 -105.5t39 -60t80 -20.5q23 0 46 7.5t35 16.5l23 182l-107 17l5 56h238l-43 -334h-89l-16 23h-7
q-8 -5 -24.5 -14.5t-38.5 -14.5t-58 -5q-113 0 -178 61.5zM468 674zM360.5 681.5q-9.5 7.5 -19.5 17t-14 13.5l-84 79l41 48l109 -62l128 60l24 -39l-92 -74q-26 -21 -46 -35.5t-28 -14.5q-9 0 -18.5 7.5z" />
  </g>

</svg>
