<?xml version="1.0" standalone="no"?>
<!DOCTYPE svg PUBLIC "-//W3C//DTD SVG 1.1//EN" "http://www.w3.org/Graphics/SVG/1.1/DTD/svg11.dtd" >
<svg xmlns="http://www.w3.org/2000/svg" xmlns:xlink="http://www.w3.org/1999/xlink" version="1.1" viewBox="-15 0 706 1000">
  <g transform="matrix(1 0 0 -1 0 800)">
   <path fill="currentColor"
d="M0 0zM4 58l71 14l71 504l-70 14l8 58h193l174 -415l11 -46h4l4 46l47 343l-70 14l7 58h227l-7 -58l-71 -14l-79 -576h-114l-179 428l-10 45h-4l-56 -401l72 -14l-7 -58h-231zM461 914q5 2 16 2q24 0 43 -16.5t19 -41.5q0 -18 -12 -35.5t-50 -52.5l-77 -73l-41 30z" />
  </g>

</svg>
