<?xml version="1.0" standalone="no"?>
<!DOCTYPE svg PUBLIC "-//W3C//DTD SVG 1.1//EN" "http://www.w3.org/Graphics/SVG/1.1/DTD/svg11.dtd" >
<svg xmlns="http://www.w3.org/2000/svg" xmlns:xlink="http://www.w3.org/1999/xlink" version="1.1" viewBox="-10 0 532 1000">
  <g transform="matrix(1 0 0 -1 0 800)">
   <path fill="currentColor"
d="M498 -134q-16 -20 -46 -36.5t-63 -16.5q-44 0 -70.5 18t-26.5 53q0 34 20 62t52 48h-11q-38 0 -57.5 13t-19.5 38q0 28 20 57l-3 2q-77 -115 -151 -115q-117 0 -117 161q0 69 27.5 155t78 147t114.5 61q58 0 124 -34l36 38h76l-69 -429h71v-62q-5 -4 -21 -11
q-35 -18 -57.5 -48t-22.5 -55q0 -15 9.5 -23.5t28.5 -8.5q25 0 54 21zM331 370q-61 63 -109 63q-19 0 -21 -3q-21 -46 -33 -114t-12 -145q0 -35 7 -59t20 -24q27 0 57.5 26.5t57.5 61.5z" />
  </g>

</svg>
