<?xml version="1.0" standalone="no"?>
<!DOCTYPE svg PUBLIC "-//W3C//DTD SVG 1.1//EN" "http://www.w3.org/Graphics/SVG/1.1/DTD/svg11.dtd" >
<svg xmlns="http://www.w3.org/2000/svg" xmlns:xlink="http://www.w3.org/1999/xlink" version="1.1" viewBox="-10 0 775 1000">
  <g transform="matrix(1 0 0 -1 0 800)">
   <path fill="currentColor"
d="M112.5 -36.5q-93.5 75.5 -93.5 216.5q0 131 54 233.5t151 159.5t221 57q94 0 164 -33.5t108 -95.5t38 -144q0 -92 -26 -162.5t-72.5 -109.5t-107.5 -39q-46 0 -79.5 19t-44.5 52q-25 -27 -55.5 -42t-59.5 -15q-50 0 -76.5 36.5t-26.5 103.5q0 65 26.5 122.5t71 92.5
t94.5 35q20 0 42 -4t38 -10l27 24h61l-45 -270q-3 -10 -3 -30q0 -17 9.5 -27t25.5 -10q46 0 67 54.5t21 172.5q0 58 -26.5 104t-73.5 72t-106 26q-149 0 -224.5 -89t-75.5 -265q0 -110 69 -170t194 -60q48 0 90 8.5t84 26.5l23 -48q-24 -23 -93.5 -45t-121.5 -22
q-175 0 -268.5 75.5zM389 153.5q17 5.5 29 14.5l24 181q-13 9 -34 14.5t-42 5.5q-14 0 -24 -10q-28 -28 -28 -147q0 -36 9 -50t33 -14q16 0 33 5.5z" />
  </g>

</svg>
