<?xml version="1.0" standalone="no"?>
<!DOCTYPE svg PUBLIC "-//W3C//DTD SVG 1.1//EN" "http://www.w3.org/Graphics/SVG/1.1/DTD/svg11.dtd" >
<svg xmlns="http://www.w3.org/2000/svg" xmlns:xlink="http://www.w3.org/1999/xlink" version="1.1" viewBox="-41 0 291 1000">
  <g transform="matrix(1 0 0 -1 0 800)">
   <path fill="currentColor"
d="M193.5 658.5q36.5 -36.5 36.5 -86.5q0 -19 -6 -43l-56 -209q21 -11 51 -24v-49q-36 -13 -66 -27v-205q0 -68 -47 -113t-123 -57l-14 55q42 21 57 43t18 61l16 199q4 39 39 64q-22 18 -22 51l2 18l38 204q3 18 3 33q0 23 -10.5 39t-37.5 32l29 59q56 -8 92.5 -44.5z" />
  </g>

</svg>
