<?xml version="1.0" standalone="no"?>
<!DOCTYPE svg PUBLIC "-//W3C//DTD SVG 1.1//EN" "http://www.w3.org/Graphics/SVG/1.1/DTD/svg11.dtd" >
<svg xmlns="http://www.w3.org/2000/svg" xmlns:xlink="http://www.w3.org/1999/xlink" version="1.1" viewBox="-10 0 426 1000">
  <g transform="matrix(1 0 0 -1 0 800)">
   <path fill="currentColor"
d="M300.5 81q29.5 10 52.5 25l22 -37q-28 -33 -79 -53q-35 -19 -58 -49.5t-23 -54.5q0 -15 9.5 -23.5t28.5 -8.5q25 0 54 21l24 -35q-16 -20 -46 -36.5t-63 -16.5q-44 0 -70.5 18t-26.5 53q0 59 67 107q-6 -1 -18 -1q-80 0 -116.5 34.5t-36.5 117.5t27 169t82.5 144
t136.5 58q65 0 102 -31.5t37 -75.5q0 -65 -33 -104.5t-87 -60t-137 -37.5v-35q0 -55 24 -76.5t76 -21.5q22 0 51.5 10zM185 401.5q-9 -25.5 -17.5 -63.5t-11.5 -79q57 18 84 35.5t35 38.5t8 55q0 53 -45 53q-12 0 -24 -3.5t-15 -6.5q-5 -4 -14 -29.5z" />
  </g>

</svg>
