<?xml version="1.0" standalone="no"?>
<!DOCTYPE svg PUBLIC "-//W3C//DTD SVG 1.1//EN" "http://www.w3.org/Graphics/SVG/1.1/DTD/svg11.dtd" >
<svg xmlns="http://www.w3.org/2000/svg" xmlns:xlink="http://www.w3.org/1999/xlink" version="1.1" viewBox="-33 0 246 1000">
  <g transform="matrix(1 0 0 -1 0 800)">
   <path fill="currentColor"
d="M82 406q-17 17 -17 43q0 36 21.5 60.5t56.5 24.5q27 0 43.5 -16.5t16.5 -44.5q0 -34 -20.5 -59t-57.5 -25q-26 0 -43 17zM-9.5 -164.5q-13.5 8.5 -13.5 24.5q0 7 1 13t2 10l98 469h84l-46 -507q-9 -7 -29.5 -12.5t-46.5 -5.5q-36 0 -49.5 8.5z" />
  </g>

</svg>
