<?xml version="1.0" standalone="no"?>
<!DOCTYPE svg PUBLIC "-//W3C//DTD SVG 1.1//EN" "http://www.w3.org/Graphics/SVG/1.1/DTD/svg11.dtd" >
<svg xmlns="http://www.w3.org/2000/svg" xmlns:xlink="http://www.w3.org/1999/xlink" version="1.1" viewBox="-91 0 517 1000">
  <g transform="matrix(1 0 0 -1 0 800)">
   <path fill="currentColor"
d="M-59.5 -153q-21.5 11 -21.5 40q0 27 15 46t34 26q26 -15 38 -20t30 -5q15 0 20.5 5t7.5 16l75 557q13 93 66 146.5t130 53.5q38 0 59.5 -11.5t21.5 -40.5q0 -27 -15.5 -46t-33.5 -25q-24 14 -39 19.5t-30 5.5t-20.5 -5t-7.5 -16l-75 -557q-14 -102 -60 -151t-135 -49
q-38 0 -59.5 11z" />
  </g>

</svg>
