<?xml version="1.0" standalone="no"?>
<!DOCTYPE svg PUBLIC "-//W3C//DTD SVG 1.1//EN" "http://www.w3.org/Graphics/SVG/1.1/DTD/svg11.dtd" >
<svg xmlns="http://www.w3.org/2000/svg" xmlns:xlink="http://www.w3.org/1999/xlink" version="1.1" viewBox="-10 0 309 1000">
  <g transform="matrix(1 0 0 -1 0 800)">
   <path fill="currentColor"
d="M132 586q-19 20 -19 50q0 35 21 62t60 27q31 0 50.5 -20t19.5 -53q0 -34 -21.5 -60t-60.5 -26q-31 0 -50 20zM270 -134q-16 -20 -46 -36.5t-63 -16.5q-44 0 -70.5 18t-26.5 53q0 63 73 111q-6 -1 -19 -1q-34 0 -49.5 17t-15.5 41q0 27 7 60l57 296l-75 16v62l198 19v-97
l-54 -320h71v-62q-4 -2 -23 -11q-35 -19 -57.5 -49t-22.5 -54q0 -15 9.5 -23.5t28.5 -8.5q25 0 54 21z" />
  </g>

</svg>
