<?xml version="1.0" standalone="no"?>
<!DOCTYPE svg PUBLIC "-//W3C//DTD SVG 1.1//EN" "http://www.w3.org/Graphics/SVG/1.1/DTD/svg11.dtd" >
<svg xmlns="http://www.w3.org/2000/svg" xmlns:xlink="http://www.w3.org/1999/xlink" version="1.1" viewBox="-124 0 447 1000">
  <g transform="matrix(1 0 0 -1 0 800)">
   <path fill="currentColor"
d="M0 0zM236 505v-97l-51 -367q-8 -58 -39 -107t-79.5 -77.5t-108.5 -28.5q-38 0 -55 12.5t-17 41.5q0 17 6 30t9 16h81q19 0 33.5 3.5t16.5 6.5q16 33 27 102l57 368l-75 16v62zM267 535zM50 539l-31 34l92 91q28 28 46.5 42t29.5 14q12 0 22.5 -10t26.5 -31l77 -108
l-38 -36l-101 69z" />
  </g>

</svg>
