<?xml version="1.0" standalone="no"?>
<!DOCTYPE svg PUBLIC "-//W3C//DTD SVG 1.1//EN" "http://www.w3.org/Graphics/SVG/1.1/DTD/svg11.dtd" >
<svg xmlns="http://www.w3.org/2000/svg" xmlns:xlink="http://www.w3.org/1999/xlink" version="1.1" viewBox="-10 0 424 1000">
  <g transform="matrix(1 0 0 -1 0 800)">
   <path fill="currentColor"
d="M47 0zM61.5 9q-14.5 16 -14.5 42q0 27 7 60l91 502l-83 17v58l198 19v-94l-83 -526h72v-62q-20 -12 -55.5 -22t-73.5 -10q-44 0 -58.5 16zM309 653q0 34 -19 56q11 10 28 16t31 6q27 0 41 -13.5t14 -36.5q0 -31 -22.5 -70t-57.5 -69h-48q33 62 33 111z" />
  </g>

</svg>
