<?xml version="1.0" standalone="no"?>
<!DOCTYPE svg PUBLIC "-//W3C//DTD SVG 1.1//EN" "http://www.w3.org/Graphics/SVG/1.1/DTD/svg11.dtd" >
<svg xmlns="http://www.w3.org/2000/svg" xmlns:xlink="http://www.w3.org/1999/xlink" version="1.1" viewBox="-10 0 405 1000">
  <g transform="matrix(1 0 0 -1 0 800)">
   <path fill="currentColor"
d="M47 0zM61.5 9q-14.5 16 -14.5 42q0 27 7 60l91 502l-83 17v58l198 19v-94l-83 -526h72v-62q-20 -12 -55.5 -22t-73.5 -10q-44 0 -58.5 16zM257.5 327q-17.5 17 -17.5 47q0 35 21.5 61.5t60.5 26.5q27 0 45 -17.5t18 -45.5q0 -37 -22.5 -63t-59.5 -26q-28 0 -45.5 17z" />
  </g>

</svg>
