<?xml version="1.0" standalone="no"?>
<!DOCTYPE svg PUBLIC "-//W3C//DTD SVG 1.1//EN" "http://www.w3.org/Graphics/SVG/1.1/DTD/svg11.dtd" >
<svg xmlns="http://www.w3.org/2000/svg" xmlns:xlink="http://www.w3.org/1999/xlink" version="1.1" viewBox="-10 0 594 1000">
  <g transform="matrix(1 0 0 -1 0 800)">
   <path fill="currentColor"
d="M75 0zM75 -5l8 53q24 -3 46 -3q209 0 257 230h-3q-3 -6 -9 -12q-45 -45 -126 -45q-46 0 -84 22t-61 65t-23 103q0 71 30 128.5t84 90.5t123 33q113 0 170 -62.5t57 -193.5q0 -118 -46 -212.5t-130 -148.5t-194 -54q-62 0 -99 6zM359.5 312.5q22.5 8.5 33.5 19.5
q5 28 8 67.5t3 69.5q0 67 -23.5 96.5t-69.5 29.5q-42 0 -66 -39t-24 -121q0 -76 21.5 -103.5t67.5 -27.5q27 0 49.5 8.5z" />
  </g>

</svg>
