<?xml version="1.0" standalone="no"?>
<!DOCTYPE svg PUBLIC "-//W3C//DTD SVG 1.1//EN" "http://www.w3.org/Graphics/SVG/1.1/DTD/svg11.dtd" >
<svg xmlns="http://www.w3.org/2000/svg" xmlns:xlink="http://www.w3.org/1999/xlink" version="1.1" viewBox="-10 0 717 1000">
  <g transform="matrix(1 0 0 -1 0 800)">
   <path fill="currentColor"
d="M69.5 33.5q-44.5 44.5 -44.5 132.5q0 99 32 178t89 124t129 45q102 0 145 -56q56 56 128 56q67 0 108 -29.5t41 -77.5q0 -56 -25 -93.5t-81 -63.5t-151 -45v-35q0 -53 23 -75.5t77 -22.5q22 0 51.5 10t52.5 25l22 -37q-30 -34 -87 -56.5t-114 -22.5q-93 0 -127 46
q-58 -47 -136 -47q-88 0 -132.5 44.5zM267.5 64q13.5 3 15.5 7q18 39 28 103t10 140q0 50 -6.5 77t-21.5 38.5t-44 11.5q-13 0 -27 -3t-18 -7q-16 -19 -31 -96t-15 -142q0 -71 17.5 -101.5t58.5 -30.5q20 0 33.5 3zM526.5 291q26.5 16 37 38.5t10.5 58.5q0 53 -45 53
q-11 0 -23 -3t-16 -7q-10 -10 -22.5 -61.5t-18.5 -110.5q51 16 77.5 32z" />
  </g>

</svg>
