<?xml version="1.0" standalone="no"?>
<!DOCTYPE svg PUBLIC "-//W3C//DTD SVG 1.1//EN" "http://www.w3.org/Graphics/SVG/1.1/DTD/svg11.dtd" >
<svg xmlns="http://www.w3.org/2000/svg" xmlns:xlink="http://www.w3.org/1999/xlink" version="1.1" viewBox="-10 0 587 1000">
  <g transform="matrix(1 0 0 -1 0 800)">
   <path fill="currentColor"
d="M32 0zM97 58l71 14l72 507h-105l-37 -115h-66l20 184h515l-28 -184h-66v115h-101l-70 -507l70 -14l-8 -58h-275zM326 0zM109 -167l26 47q18 -7 40 -13.5t36 -6.5q26 0 26 20q0 11 -8 16t-32 14l-37 14l-1 25l32 51h49l-9 -28l43 -18q28 -12 40 -26.5t12 -39.5
q0 -40 -30 -61t-80 -21q-65 0 -107 27z" />
  </g>

</svg>
