<?xml version="1.0" standalone="no"?>
<!DOCTYPE svg PUBLIC "-//W3C//DTD SVG 1.1//EN" "http://www.w3.org/Graphics/SVG/1.1/DTD/svg11.dtd" >
<svg xmlns="http://www.w3.org/2000/svg" xmlns:xlink="http://www.w3.org/1999/xlink" version="1.1" viewBox="-10 0 557 1000">
  <g transform="matrix(1 0 0 -1 0 800)">
   <path fill="currentColor"
d="M36 0zM77 13.5q-20 24.5 -20 64.5q0 18 3.5 46.5t7.5 47.5l43 240l-75 17v61l199 19v-83l-40 -237q-10 -57 -10 -72q0 -29 27 -29q21 0 51.5 21.5t55.5 46.5l60 342l125 11l-70 -421h70v-62q-24 -13 -57 -22.5t-69 -9.5q-39 0 -57 13t-18 42q0 26 23 54l-3 2
q-97 -116 -184 -116q-42 0 -62 24.5zM457 576zM186 595q-18 19 -18 47q0 33 20 58.5t56 25.5q29 0 47.5 -18.5t18.5 -50.5q0 -33 -20 -57t-57 -24q-29 0 -47 19zM390 595q-18 19 -18 47q0 33 20 58.5t56 25.5q29 0 47.5 -18.5t18.5 -50.5q0 -33 -20 -57t-57 -24
q-29 0 -47 19zM478 798zM206 881h330l-10 -83h-330z" />
  </g>

</svg>
