<?xml version="1.0" standalone="no"?>
<!DOCTYPE svg PUBLIC "-//W3C//DTD SVG 1.1//EN" "http://www.w3.org/Graphics/SVG/1.1/DTD/svg11.dtd" >
<svg xmlns="http://www.w3.org/2000/svg" xmlns:xlink="http://www.w3.org/1999/xlink" version="1.1" viewBox="-10 0 636 1000">
  <g transform="matrix(1 0 0 -1 0 800)">
   <path fill="currentColor"
d="M158 18q-54 29 -86 87t-32 142q0 57 10 115h405q1 11 1 33q-1 77 -14.5 119t-45.5 60.5t-90 18.5q-72 0 -109 -26l-33 -124h-69l16 180q49 18 106.5 27.5t110.5 9.5q277 0 277 -272q0 -115 -37.5 -205.5t-111 -142t-178.5 -51.5q-66 0 -120 29zM405 111.5
q37 56.5 47 183.5h-262q-1 -18 -1 -56q0 -102 29 -143t80 -41q70 0 107 56.5z" />
  </g>

</svg>
