<?xml version="1.0" standalone="no"?>
<!DOCTYPE svg PUBLIC "-//W3C//DTD SVG 1.1//EN" "http://www.w3.org/Graphics/SVG/1.1/DTD/svg11.dtd" >
<svg xmlns="http://www.w3.org/2000/svg" xmlns:xlink="http://www.w3.org/1999/xlink" version="1.1" viewBox="-302 0 395 1000">
  <g transform="matrix(1 0 0 -1 0 800)">
   <path fill="currentColor"
d="M-64.5 760.5q-16.5 3.5 -41.5 11.5l-82 25l-77 -32l-27 28l47 47q16 18 31 26.5t34 8.5q21 0 60 -11l99 -29l77 32l27 -28l-47 -48q-33 -34 -64 -34q-20 0 -36.5 3.5zM-287 573l92 91q28 28 46.5 42t29.5 14q12 0 22.5 -10t26.5 -31l77 -108l-38 -36l-101 69l-124 -65z
" />
  </g>

</svg>
