<?xml version="1.0" standalone="no"?>
<!DOCTYPE svg PUBLIC "-//W3C//DTD SVG 1.1//EN" "http://www.w3.org/Graphics/SVG/1.1/DTD/svg11.dtd" >
<svg xmlns="http://www.w3.org/2000/svg" xmlns:xlink="http://www.w3.org/1999/xlink" version="1.1" viewBox="-15 0 410 1000">
  <g transform="matrix(1 0 0 -1 0 800)">
   <path fill="currentColor"
d="M0 0zM4 58l71 14l71 504l-70 14l8 58h275l-8 -58l-71 -14l-71 -504l70 -14l-9 -58h-275zM308 674zM200.5 681.5q-9.5 7.5 -19.5 17t-14 13.5l-84 79l41 48l109 -62l128 60l24 -39l-92 -74q-26 -21 -46 -35.5t-28 -14.5q-9 0 -18.5 7.5z" />
  </g>

</svg>
