<?xml version="1.0" standalone="no"?>
<!DOCTYPE svg PUBLIC "-//W3C//DTD SVG 1.1//EN" "http://www.w3.org/Graphics/SVG/1.1/DTD/svg11.dtd" >
<svg xmlns="http://www.w3.org/2000/svg" xmlns:xlink="http://www.w3.org/1999/xlink" version="1.1" viewBox="-10 0 532 1000">
  <g transform="matrix(1 0 0 -1 0 800)">
   <path fill="currentColor"
d="M25 0zM25 150q0 69 27.5 155t78 147t114.5 61q58 0 124 -34l36 38h76l-69 -429h71v-62q-19 -12 -54 -22t-76 -10q-38 0 -57.5 13t-19.5 38q0 28 20 57l-3 2q-77 -115 -151 -115q-117 0 -117 161zM240.5 114.5q30.5 26.5 57.5 61.5l33 194q-61 63 -109 63q-19 0 -21 -3
q-21 -46 -33 -114t-12 -145q0 -35 7 -59t20 -24q27 0 57.5 26.5zM420 710.5q31 -18.5 47.5 -46.5t16.5 -55q0 -12 -3 -17t-8 -9q-7 -6 -34 -15t-35 -9q-6 37 -27 59t-59 22q-40 0 -73 -24t-49 -54l-41 17q9 35 33.5 69.5t65.5 57.5t95 23q40 0 71 -18.5z" />
  </g>

</svg>
