<?xml version="1.0" standalone="no"?>
<!DOCTYPE svg PUBLIC "-//W3C//DTD SVG 1.1//EN" "http://www.w3.org/Graphics/SVG/1.1/DTD/svg11.dtd" >
<svg xmlns="http://www.w3.org/2000/svg" xmlns:xlink="http://www.w3.org/1999/xlink" version="1.1" viewBox="-10 0 847 1000">
  <g transform="matrix(1 0 0 -1 0 800)">
   <path fill="currentColor"
d="M41 0zM328.5 10q-14.5 16 -14.5 42q0 27 7 60l42 222q6 32 6 56q0 15 -7.5 24t-22.5 9q-42 0 -105 -37l-60 -386h-133l76 408l-75 17v61l199 19l-3 -68h3q48 36 88 56t76 20q92 0 92 -83q0 -23 -11 -93l-42 -249h71v-62q-19 -12 -54.5 -22t-73.5 -10q-44 0 -58.5 16z
M557 0zM793 505v-97l-51 -367q-8 -58 -39 -107t-79.5 -77.5t-108.5 -28.5q-38 0 -55 12.5t-17 41.5q0 17 6 30t9 16h81q19 0 33.5 3.5t16.5 6.5q16 33 27 102l57 368l-75 16v62zM764 566zM689 586q-19 20 -19 50q0 35 21 62t60 27q31 0 50.5 -20t19.5 -53q0 -34 -21.5 -60
t-60.5 -26q-31 0 -50 20z" />
  </g>

</svg>
