<?xml version="1.0" standalone="no"?>
<!DOCTYPE svg PUBLIC "-//W3C//DTD SVG 1.1//EN" "http://www.w3.org/Graphics/SVG/1.1/DTD/svg11.dtd" >
<svg xmlns="http://www.w3.org/2000/svg" xmlns:xlink="http://www.w3.org/1999/xlink" version="1.1" viewBox="-10 0 665 1000">
  <g transform="matrix(1 0 0 -1 0 800)">
   <path fill="currentColor"
d="M41 0zM166.5 18q-57.5 29 -91.5 87t-34 142q0 132 44.5 225t120 140.5t167.5 47.5t151 -36.5t85.5 -95t26.5 -126.5q0 -125 -39 -218t-116 -144t-187 -51q-70 0 -127.5 29zM414 91q38 36 55.5 113.5t17.5 206.5q0 102 -33.5 143t-91.5 41q-62 0 -99.5 -36t-55 -113.5
t-17.5 -206.5q0 -102 33 -143t91 -41q62 0 100 36zM533 674zM451 829q0 12 8.5 20t36.5 19q16 6 23 11.5t7 13.5q0 19 -31 19q-30 0 -60 -8q-13 18 -13 35q0 40 84 40q57 0 88.5 -17.5t31.5 -50.5q0 -43 -74 -72q-15 -6 -19.5 -10t-4.5 -16l-70 -6q-7 14 -7 22zM454 674z
M245 676l-26 39l90 74q6 5 25.5 21t30 22.5t16.5 6.5q8 0 17.5 -7t20 -16.5t15.5 -14.5l87 -79l-39 -48l-112 61z" />
  </g>

</svg>
