<?xml version="1.0" standalone="no"?>
<!DOCTYPE svg PUBLIC "-//W3C//DTD SVG 1.1//EN" "http://www.w3.org/Graphics/SVG/1.1/DTD/svg11.dtd" >
<svg xmlns="http://www.w3.org/2000/svg" xmlns:xlink="http://www.w3.org/1999/xlink" version="1.1" viewBox="-10 0 665 1000">
  <g transform="matrix(1 0 0 -1 0 800)">
   <path fill="currentColor"
d="M41 0zM166.5 18q-57.5 29 -91.5 87t-34 142q0 132 44.5 225t120 140.5t167.5 47.5t151 -36.5t85.5 -95t26.5 -126.5q0 -125 -39 -218t-116 -144t-187 -51q-70 0 -127.5 29zM414 91q38 36 55.5 113.5t17.5 206.5q0 102 -33.5 143t-91.5 41q-62 0 -99.5 -36t-55 -113.5
t-17.5 -206.5q0 -102 33 -143t91 -41q62 0 100 36zM480 674zM499 808zM349 882.5q-9 10.5 -9 25.5q0 26 10.5 41t27.5 25l188 -118l-24 -48l-157 55q-27 9 -36 19.5zM457 674zM248 676l-26 39l90 74q6 5 25.5 21t30 22.5t16.5 6.5q8 0 17.5 -7t20 -16.5t15.5 -14.5l87 -79
l-39 -48l-112 61z" />
  </g>

</svg>
