<?xml version="1.0" standalone="no"?>
<!DOCTYPE svg PUBLIC "-//W3C//DTD SVG 1.1//EN" "http://www.w3.org/Graphics/SVG/1.1/DTD/svg11.dtd" >
<svg xmlns="http://www.w3.org/2000/svg" xmlns:xlink="http://www.w3.org/1999/xlink" version="1.1" viewBox="-10 0 674 1000">
  <g transform="matrix(1 0 0 -1 0 800)">
   <path fill="currentColor"
d="M41 0zM612 523q24 -56 24 -121q0 -125 -39 -218t-116 -144t-187 -51q-70 0 -127.5 29t-91.5 87t-34 142q0 132 44.5 225t120 140.5t167.5 47.5q53 0 93 -12q58 0 80 8.5t22 30.5q0 18 -20 30v15l73 48q33 -21 33 -61q0 -31 -29 -61t-87 -44q50 -35 74 -91zM414 91
q38 36 55.5 113.5t17.5 206.5q0 102 -33.5 143t-91.5 41q-62 0 -99.5 -36t-55 -113.5t-17.5 -206.5q0 -102 33 -143t91 -41q62 0 100 36zM361 -55zM304 -214zM229 -194q-19 20 -19 50q0 35 21 62t60 27q31 0 50.5 -20t19.5 -53q0 -34 -21.5 -60t-60.5 -26q-31 0 -50 20z" />
  </g>

</svg>
