<?xml version="1.0" standalone="no"?>
<!DOCTYPE svg PUBLIC "-//W3C//DTD SVG 1.1//EN" "http://www.w3.org/Graphics/SVG/1.1/DTD/svg11.dtd" >
<svg xmlns="http://www.w3.org/2000/svg" xmlns:xlink="http://www.w3.org/1999/xlink" version="1.1" viewBox="-10 0 559 1000">
  <g transform="matrix(1 0 0 -1 0 800)">
   <path fill="currentColor"
d="M25 0zM25 150q0 69 27.5 155t78 147t114.5 61q58 0 124 -34l36 38h76l-69 -429h71v-62q-19 -12 -54 -22t-76 -10q-38 0 -57.5 13t-19.5 38q0 28 20 57l-3 2q-77 -115 -151 -115q-117 0 -117 161zM240.5 114.5q30.5 26.5 57.5 61.5l33 194q-61 63 -109 63q-19 0 -21 -3
q-21 -46 -33 -114t-12 -145q0 -35 7 -59t20 -24q27 0 57.5 26.5zM391.5 760.5q-16.5 3.5 -41.5 11.5l-82 25l-77 -32l-27 28l47 47q16 18 31 26.5t34 8.5q21 0 60 -11l99 -29l77 32l27 -28l-47 -48q-33 -34 -64 -34q-20 0 -36.5 3.5zM169 573l92 91q28 28 46.5 42t29.5 14
q12 0 22.5 -10t26.5 -31l77 -108l-38 -36l-101 69l-124 -65z" />
  </g>

</svg>
