<?xml version="1.0" standalone="no"?>
<!DOCTYPE svg PUBLIC "-//W3C//DTD SVG 1.1//EN" "http://www.w3.org/Graphics/SVG/1.1/DTD/svg11.dtd" >
<svg xmlns="http://www.w3.org/2000/svg" xmlns:xlink="http://www.w3.org/1999/xlink" version="1.1" viewBox="-10 0 705 1000">
  <g transform="matrix(1 0 0 -1 0 800)">
   <path fill="currentColor"
d="M61 0zM127 36.5q-47 47.5 -47 126.5q0 48 9 111l42 302l-70 14l8 58h275l-8 -58l-71 -14l-43 -298q-12 -79 -12 -113q0 -51 22 -81t83 -30q50 0 80.5 19.5t50 67.5t32.5 137l43 298l-70 14l7 58h227l-7 -58l-71 -14l-41 -298q-15 -108 -44 -170t-83.5 -90.5t-145.5 -28.5
q-119 0 -166 47.5zM223 -55zM354 -55zM297 -214zM222 -194q-19 20 -19 50q0 35 21 62t60 27q31 0 50.5 -20t19.5 -53q0 -34 -21.5 -60t-60.5 -26q-31 0 -50 20z" />
  </g>

</svg>
