<?xml version="1.0" standalone="no"?>
<!DOCTYPE svg PUBLIC "-//W3C//DTD SVG 1.1//EN" "http://www.w3.org/Graphics/SVG/1.1/DTD/svg11.dtd" >
<svg xmlns="http://www.w3.org/2000/svg" xmlns:xlink="http://www.w3.org/1999/xlink" version="1.1" viewBox="-10 0 329 1000">
  <g transform="matrix(1 0 0 -1 0 800)">
   <path fill="currentColor"
d="M42 0zM68.5 11q-15.5 17 -15.5 41q0 27 7 60l57 296l-75 16v62l198 19v-97l-54 -320h71v-62q-20 -12 -58 -22t-81 -10q-34 0 -49.5 17zM132 564q0 12 10 22t37 26q14 8 21.5 15.5t7.5 20.5q0 22 -35 22q-25 0 -54 -8q-14 18 -14 35q0 40 84 40q58 0 89 -18t31 -53
q0 -29 -19.5 -50t-53.5 -38q-5 -3 -13.5 -7t-11 -9.5t-2.5 -17.5l-70 -8q-7 19 -7 28z" />
  </g>

</svg>
