<?xml version="1.0" standalone="no"?>
<!DOCTYPE svg PUBLIC "-//W3C//DTD SVG 1.1//EN" "http://www.w3.org/Graphics/SVG/1.1/DTD/svg11.dtd" >
<svg xmlns="http://www.w3.org/2000/svg" xmlns:xlink="http://www.w3.org/1999/xlink" version="1.1" viewBox="-10 0 521 1000">
  <g transform="matrix(1 0 0 -1 0 800)">
   <path fill="currentColor"
d="M21 0zM57.5 24.5q-36.5 34.5 -36.5 117.5t27 169t82.5 144t136.5 58q65 0 102 -31.5t37 -75.5q0 -65 -33 -104.5t-87 -60t-137 -37.5v-35q0 -55 24 -76.5t76 -21.5q22 0 51.5 10t52.5 25l22 -37q-30 -34 -87 -56.5t-114 -22.5q-80 0 -116.5 34.5zM240 294.5
q27 17.5 35 38.5t8 55q0 53 -45 53q-12 0 -24 -3.5t-15 -6.5q-5 -4 -14 -29.5t-17.5 -63.5t-11.5 -79q57 18 84 35.5zM353.5 760.5q-16.5 3.5 -41.5 11.5l-82 25l-77 -32l-27 28l47 47q16 18 31 26.5t34 8.5q21 0 60 -11l99 -29l77 32l27 -28l-47 -48q-33 -34 -64 -34
q-20 0 -36.5 3.5zM131 573l92 91q28 28 46.5 42t29.5 14q12 0 22.5 -10t26.5 -31l77 -108l-38 -36l-101 69l-124 -65z" />
  </g>

</svg>
