<?xml version="1.0" standalone="no"?>
<!DOCTYPE svg PUBLIC "-//W3C//DTD SVG 1.1//EN" "http://www.w3.org/Graphics/SVG/1.1/DTD/svg11.dtd" >
<svg xmlns="http://www.w3.org/2000/svg" xmlns:xlink="http://www.w3.org/1999/xlink" version="1.1" viewBox="-10 0 558 1000">
  <g transform="matrix(1 0 0 -1 0 800)">
   <path fill="currentColor"
d="M25 0zM70.5 33q-45.5 44 -45.5 133q0 100 32.5 179t89.5 123.5t128 44.5q89 0 134 -43t45 -139q0 -91 -29.5 -169.5t-86.5 -125.5t-136 -47q-86 0 -131.5 44zM266.5 64q14.5 3 16.5 7q17 36 27.5 97t10.5 146q0 55 -8 82.5t-23 36t-41 8.5q-13 0 -27 -3t-18 -7
q-7 -8 -18 -42t-19.5 -85.5t-8.5 -110.5q0 -69 16.5 -100.5t59.5 -31.5q18 0 32.5 3zM459 535zM361 710q0 12 10 22t37 26q14 8 21.5 15.5t7.5 20.5q0 22 -35 22q-25 0 -54 -8q-14 18 -14 35q0 40 84 40q58 0 89 -18t31 -53q0 -29 -19.5 -50t-53.5 -38q-5 -3 -13.5 -7
t-11 -9.5t-2.5 -17.5l-70 -8q-7 19 -7 28zM379 535zM162 539l-31 34l92 91q28 28 46.5 42t29.5 14q12 0 22.5 -10t26.5 -31l77 -108l-38 -36l-101 69z" />
  </g>

</svg>
