<?xml version="1.0" standalone="no"?>
<!DOCTYPE svg PUBLIC "-//W3C//DTD SVG 1.1//EN" "http://www.w3.org/Graphics/SVG/1.1/DTD/svg11.dtd" >
<svg xmlns="http://www.w3.org/2000/svg" xmlns:xlink="http://www.w3.org/1999/xlink" version="1.1" viewBox="-10 0 431 1000">
  <g transform="matrix(1 0 0 -1 0 800)">
   <path fill="currentColor"
d="M21 0zM57.5 24.5q-36.5 34.5 -36.5 117.5t27 169t82.5 144t136.5 58q65 0 102 -31.5t37 -75.5q0 -65 -33 -104.5t-87 -60t-137 -37.5v-35q0 -55 24 -76.5t76 -21.5q22 0 51.5 10t52.5 25l22 -37q-30 -34 -87 -56.5t-114 -22.5q-80 0 -116.5 34.5zM240 294.5
q27 17.5 35 38.5t8 55q0 53 -45 53q-12 0 -24 -3.5t-15 -6.5q-5 -4 -14 -29.5t-17.5 -63.5t-11.5 -79q57 18 84 35.5zM234 564q0 12 10 22t37 26q14 8 21.5 15.5t7.5 20.5q0 22 -35 22q-25 0 -54 -8q-14 18 -14 35q0 40 84 40q58 0 89 -18t31 -53q0 -29 -19.5 -50t-53.5 -38
q-5 -3 -13.5 -7t-11 -9.5t-2.5 -17.5l-70 -8q-7 19 -7 28z" />
  </g>

</svg>
