<?xml version="1.0" standalone="no"?>
<!DOCTYPE svg PUBLIC "-//W3C//DTD SVG 1.1//EN" "http://www.w3.org/Graphics/SVG/1.1/DTD/svg11.dtd" >
<svg xmlns="http://www.w3.org/2000/svg" xmlns:xlink="http://www.w3.org/1999/xlink" version="1.1" viewBox="-36 0 468 1000">
  <g transform="matrix(1 0 0 -1 0 800)">
   <path fill="currentColor"
d="M0 0zM63.5 519q-17.5 17 -17.5 47q0 35 21.5 61.5t60.5 26.5q27 0 45 -17.5t18 -45.5q0 -37 -22.5 -63t-59.5 -26q-28 0 -45.5 17zM224.5 9q-17.5 17 -17.5 47q0 35 21.5 61.5t60.5 26.5q27 0 45 -17.5t18 -45.5q0 -37 -22.5 -63t-59.5 -26q-28 0 -45.5 17zM-26 -81
l365 835l83 -37l-363 -835z" />
  </g>

</svg>
