<?xml version="1.0" standalone="no"?>
<!DOCTYPE svg PUBLIC "-//W3C//DTD SVG 1.1//EN" "http://www.w3.org/Graphics/SVG/1.1/DTD/svg11.dtd" >
<svg xmlns="http://www.w3.org/2000/svg" xmlns:xlink="http://www.w3.org/1999/xlink" version="1.1" viewBox="-10 0 557 1000">
  <g transform="matrix(1 0 0 -1 0 800)">
   <path fill="currentColor"
d="M517 -134q-16 -20 -46 -36.5t-63 -16.5q-44 0 -70.5 18t-26.5 53q0 34 20 62t52 48h-5q-39 0 -57 13t-18 42q0 26 23 54l-3 2q-97 -116 -184 -116q-42 0 -62 24.5t-20 64.5q0 18 3.5 46.5t7.5 47.5l43 240l-75 17v61l199 19v-83l-40 -237q-10 -57 -10 -72q0 -29 27 -29
q21 0 51.5 21.5t55.5 46.5l60 342l125 11l-70 -421h70v-62q-12 -7 -23 -11q-35 -19 -57.5 -49t-22.5 -54q0 -15 9.5 -23.5t28.5 -8.5q25 0 54 21z" />
  </g>

</svg>
