<?xml version="1.0" standalone="no"?>
<!DOCTYPE svg PUBLIC "-//W3C//DTD SVG 1.1//EN" "http://www.w3.org/Graphics/SVG/1.1/DTD/svg11.dtd" >
<svg xmlns="http://www.w3.org/2000/svg" xmlns:xlink="http://www.w3.org/1999/xlink" version="1.1" viewBox="-53 0 526 1000">
  <g transform="matrix(1 0 0 -1 0 800)">
   <path fill="currentColor"
d="M362.5 409q-12.5 -8 -30.5 -34l-64 -89l62 -198h97v-61q-19 -14 -52.5 -25t-68.5 -11q-40 0 -59 12t-28 39l-39 126l-54 -97q-26 -46 -49.5 -63t-58.5 -17q-30 0 -45.5 11.5t-15.5 37.5q0 13 6 26.5t14 21.5h50q21 0 33 9t30 36l68 101l-56 180l-81 20v62l176 16l49 -157
l52 89q22 38 44 53.5t56 15.5t49.5 -11.5t15.5 -36.5q0 -10 -5 -23.5t-13 -24.5h-47q-23 0 -35.5 -8z" />
  </g>

</svg>
