<?xml version="1.0" standalone="no"?>
<!DOCTYPE svg PUBLIC "-//W3C//DTD SVG 1.1//EN" "http://www.w3.org/Graphics/SVG/1.1/DTD/svg11.dtd" >
<svg xmlns="http://www.w3.org/2000/svg" xmlns:xlink="http://www.w3.org/1999/xlink" version="1.1" viewBox="-10 0 566 1000">
  <g transform="matrix(1 0 0 -1 0 800)">
   <path fill="currentColor"
d="M102 50l71 14l5 62h-161l7 68h151l-23 61h-122l8 65h85l-59 144l-54 10l6 52h264l-6 -50l-64 -14v-22l69 -178h5l107 192v9l-62 13l6 50h211l-6 -50l-54 -12l-83 -146h89l-8 -68h-122l-29 -55l-3 -6h148l-6 -69h-153l-6 -56l71 -14l-6 -50h-282z" />
  </g>

</svg>
