<?xml version="1.0" standalone="no"?>
<!DOCTYPE svg PUBLIC "-//W3C//DTD SVG 1.1//EN" "http://www.w3.org/Graphics/SVG/1.1/DTD/svg11.dtd" >
<svg xmlns="http://www.w3.org/2000/svg" xmlns:xlink="http://www.w3.org/1999/xlink" version="1.1" viewBox="-10 0 740 1000">
  <g transform="matrix(1 0 0 -1 0 800)">
   <path fill="currentColor"
d="M650 255c0 -149 -52 -232 -166 -262c-67 -57 -80 -142 -9 -142c29 0 53 15 53 15v-96s-30 -20 -70 -20c-116 0 -138 142 -48 231c-14 -1 -29 -2 -45 -2c-200 0 -285 83 -285 276v444h125v-444c0 -123 47 -175 160 -175c112 0 159 52 159 175v444h126v-444z" />
  </g>

</svg>
