<?xml version="1.0" standalone="no"?>
<!DOCTYPE svg PUBLIC "-//W3C//DTD SVG 1.1//EN" "http://www.w3.org/Graphics/SVG/1.1/DTD/svg11.dtd" >
<svg xmlns="http://www.w3.org/2000/svg" xmlns:xlink="http://www.w3.org/1999/xlink" version="1.1" viewBox="-10 0 915 1000">
  <g transform="matrix(1 0 0 -1 0 800)">
   <path fill="currentColor"
d="M865 204h-374c8 -95 47 -137 131 -137c67 0 100 24 118 86h107c-23 -113 -90 -162 -225 -162c-102 0 -165 36 -195 115c-24 -80 -88 -116 -202 -116c-129 0 -185 47 -185 156c0 115 64 170 214 170h122v24c0 73 -39 94 -107 94c-73 0 -101 -24 -101 -84h-108
c0 112 64 160 215 160c88 0 143 -24 170 -77c34 53 91 77 175 77c172 0 245 -80 245 -267v-39zM375 246h-91c-93 0 -132 -27 -132 -94c0 -75 58 -80 117 -80c75 0 106 40 106 120v54zM622 435c-88 0 -128 -48 -133 -161h265c0 115 -39 161 -132 161zM387 550l104 150h116
l-128 -150h-92z" />
  </g>

</svg>
