<?xml version="1.0" standalone="no"?>
<!DOCTYPE svg PUBLIC "-//W3C//DTD SVG 1.1//EN" "http://www.w3.org/Graphics/SVG/1.1/DTD/svg11.dtd" >
<svg xmlns="http://www.w3.org/2000/svg" xmlns:xlink="http://www.w3.org/1999/xlink" version="1.1" viewBox="-10 0 611 1000">
  <g transform="matrix(1 0 0 -1 0 800)">
   <path fill="currentColor"
d="M438 6l-15 48c-35 -44 -90 -64 -168 -64c-151 0 -215 78 -215 260s64 260 215 260c78 0 133 -20 168 -64l18 54h90v-500h-38c-75 -57 -92 -149 -18 -149c29 0 53 15 53 15v-96s-30 -20 -70 -20c-127 0 -142 171 -20 256zM285 78c92 0 131 52 131 172s-39 172 -131 172
s-132 -52 -132 -172s40 -172 132 -172z" />
  </g>

</svg>
