<?xml version="1.0" standalone="no"?>
<!DOCTYPE svg PUBLIC "-//W3C//DTD SVG 1.1//EN" "http://www.w3.org/Graphics/SVG/1.1/DTD/svg11.dtd" >
<svg xmlns="http://www.w3.org/2000/svg" xmlns:xlink="http://www.w3.org/1999/xlink" version="1.1" viewBox="-10 0 610 1000">
  <g transform="matrix(1 0 0 -1 0 800)">
   <path fill="currentColor"
d="M255 -10c-151 0 -215 79 -215 261s64 259 215 259c79 0 135 -21 170 -68l15 58h90v-450c0 -182 -74 -260 -245 -260c-139 0 -206 49 -225 162h107c14 -62 46 -86 112 -86c97 0 137 49 137 165v16c-35 -39 -88 -57 -161 -57zM285 79c93 0 131 50 131 172
c0 121 -38 172 -131 172s-132 -51 -132 -172s38 -172 132 -172zM459 700c0 -105 -49 -149 -162 -149s-162 44 -162 149h79c0 -59 23 -86 83 -86c59 0 83 25 83 86h79z" />
  </g>

</svg>
