<?xml version="1.0" standalone="no"?>
<!DOCTYPE svg PUBLIC "-//W3C//DTD SVG 1.1//EN" "http://www.w3.org/Graphics/SVG/1.1/DTD/svg11.dtd" >
<svg xmlns="http://www.w3.org/2000/svg" xmlns:xlink="http://www.w3.org/1999/xlink" version="1.1" viewBox="-40 0 353 1000">
  <g transform="matrix(1 0 0 -1 0 800)">
   <path fill="currentColor"
d="M193 0h-113v500h113v-500zM41 697c50 0 71 -21 71 -71c0 -48 -21 -70 -71 -70c-49 0 -71 21 -71 70c0 50 22 71 71 71zM232 697c49 0 71 -21 71 -71c0 -48 -22 -70 -72 -70c-49 0 -70 21 -70 70c0 50 21 71 71 71z" />
  </g>

</svg>
