<?xml version="1.0" standalone="no"?>
<!DOCTYPE svg PUBLIC "-//W3C//DTD SVG 1.1//EN" "http://www.w3.org/Graphics/SVG/1.1/DTD/svg11.dtd" >
<svg xmlns="http://www.w3.org/2000/svg" xmlns:xlink="http://www.w3.org/1999/xlink" version="1.1" viewBox="-10 0 590 1000">
  <g transform="matrix(1 0 0 -1 0 800)">
   <path fill="currentColor"
d="M175 452c32 40 82 58 153 58c134 0 192 -72 192 -240v-270h-114v270c0 108 -31 152 -107 152c-81 0 -116 -45 -116 -152v-270h-113v500h90zM133 576c0 70 42 123 93 123c82 0 101 -85 143 -85c18 0 32 19 32 52h55c0 -70 -41 -122 -93 -122c-82 0 -101 85 -142 85
c-19 0 -33 -19 -33 -53h-55z" />
  </g>

</svg>
