<?xml version="1.0" standalone="no"?>
<!DOCTYPE svg PUBLIC "-//W3C//DTD SVG 1.1//EN" "http://www.w3.org/Graphics/SVG/1.1/DTD/svg11.dtd" >
<svg xmlns="http://www.w3.org/2000/svg" xmlns:xlink="http://www.w3.org/1999/xlink" version="1.1" viewBox="-10 0 429 1000">
  <g transform="matrix(1 0 0 -1 0 800)">
   <path fill="currentColor"
d="M105 710c54 0 77 -34 77 -116c0 -119 -41 -170 -132 -170v56c41 0 58 28 58 90c-47 0 -68 21 -68 67c0 52 19 73 65 73zM303 710c53 0 76 -36 76 -116c0 -119 -40 -170 -131 -170v56c41 0 58 27 58 90c-47 0 -68 21 -68 67c0 52 19 73 65 73z" />
  </g>

</svg>
