<?xml version="1.0" standalone="no"?>
<!DOCTYPE svg PUBLIC "-//W3C//DTD SVG 1.1//EN" "http://www.w3.org/Graphics/SVG/1.1/DTD/svg11.dtd" >
<svg xmlns="http://www.w3.org/2000/svg" xmlns:xlink="http://www.w3.org/1999/xlink" version="1.1" viewBox="-10 0 867 1000">
  <g transform="matrix(1 0 0 -1 0 800)">
   <path fill="currentColor"
d="M670 0l-1 -1h-138l-103 419l-103 -418h-138l-157 500h115l116 -410l101 410h138l96 -411l116 411h115zM322 707c50 0 71 -21 71 -70s-21 -70 -71 -70c-49 0 -71 21 -71 70s22 70 71 70zM521 707c49 0 71 -21 71 -70s-22 -70 -71 -70c-50 0 -71 21 -71 70s21 70 71 70z
" />
  </g>

</svg>
