<?xml version="1.0" standalone="no"?>
<!DOCTYPE svg PUBLIC "-//W3C//DTD SVG 1.1//EN" "http://www.w3.org/Graphics/SVG/1.1/DTD/svg11.dtd" >
<svg xmlns="http://www.w3.org/2000/svg" xmlns:xlink="http://www.w3.org/1999/xlink" version="1.1" viewBox="-10 0 638 1000">
  <g transform="matrix(1 0 0 -1 0 761)">
   <path fill="currentColor"
d="M131 531c0 -202 447 -57 447 -329c0 -159 -134 -218 -268 -218c-95 0 -192 29 -243 74v115c46 -50 148 -99 244 -99c113 0 189 61 189 119c0 194 -450 46 -450 339c0 138 131 196 251 196c85 0 174 -21 220 -63l-3 -111c-58 53 -138 82 -228 82c-50 0 -159 -22 -159 -105
z" />
  </g>

</svg>
