<?xml version="1.0" standalone="no"?>
<!DOCTYPE svg PUBLIC "-//W3C//DTD SVG 1.1//EN" "http://www.w3.org/Graphics/SVG/1.1/DTD/svg11.dtd" >
<svg xmlns="http://www.w3.org/2000/svg" xmlns:xlink="http://www.w3.org/1999/xlink" version="1.1" viewBox="-10 0 798 1000">
  <g transform="matrix(1 0 0 -1 0 761)">
   <path fill="currentColor"
d="M677 321l61 -24c-3 -12 -10 -27 -18 -43c-24 -47 -56 -77 -92 -92c-38 -17 -71 -13 -100 0c-11 -43 -34 -82 -68 -113c-45 -42 -104 -65 -167 -65h-7c-65 2 -125 28 -169 74c-45 47 -68 107 -67 170c2 64 29 122 76 166c13 12 28 23 43 32c-36 33 -58 80 -57 131
c3 96 88 173 189 170c49 -1 94 -21 128 -54c32 -33 50 -76 50 -121h-75c0 26 -10 50 -29 69c-20 20 -47 32 -76 33h-4c-58 0 -106 -44 -108 -99c-1 -45 29 -84 72 -98c13 1 27 2 41 2h1v-82h-3h-4h-3c-40 0 -78 -15 -107 -42c-31 -29 -49 -68 -50 -109
c-1 -42 14 -81 43 -111c30 -31 69 -48 112 -49c42 -1 83 14 113 42c29 27 47 63 50 101c-43 29 -79 44 -107 33c-24 -10 -40 -34 -50 -53l-61 27c0 1 1 1 1 2c22 45 67 109 169 90c58 -12 135 -98 202 -79c41 11 63 70 71 92z" />
  </g>

</svg>
