<?xml version="1.0" standalone="no"?>
<!DOCTYPE svg PUBLIC "-//W3C//DTD SVG 1.1//EN" "http://www.w3.org/Graphics/SVG/1.1/DTD/svg11.dtd" >
<svg xmlns="http://www.w3.org/2000/svg" xmlns:xlink="http://www.w3.org/1999/xlink" version="1.1" viewBox="-10 0 560 1000">
  <g transform="matrix(1 0 0 -1 0 761)">
   <path fill="currentColor"
d="M245 464c158 0 255 -116 255 -238c0 -111 -82 -242 -270 -242c-64 0 -128 19 -179 53l-1 1v119s52 -90 188 -90c98 0 172 68 172 157c0 75 -60 152 -169 152c-118 0 -182 -64 -182 -64l41 395h346v-97h-271l-18 -164c26 12 57 18 88 18z" />
  </g>

</svg>
