<?xml version="1.0" standalone="no"?>
<!DOCTYPE svg PUBLIC "-//W3C//DTD SVG 1.1//EN" "http://www.w3.org/Graphics/SVG/1.1/DTD/svg11.dtd" >
<svg xmlns="http://www.w3.org/2000/svg" xmlns:xlink="http://www.w3.org/1999/xlink" version="1.1" viewBox="-10 0 674 1000">
  <g transform="matrix(1 0 0 -1 0 761)">
   <path fill="currentColor"
d="M151 711v-711h-91v711h91zM486 372c55 -22 118 -58 118 -158c0 -152 -118 -214 -216 -214h-196v96h194c56 0 131 19 131 115c0 87 -70 99 -128 99h-197v95h159c46 0 116 35 116 114c0 94 -82 96 -136 96h-139v96h140c97 0 222 -27 222 -191c0 -84 -41 -125 -68 -148z" />
  </g>

</svg>
