<?xml version="1.0" standalone="no"?>
<!DOCTYPE svg PUBLIC "-//W3C//DTD SVG 1.1//EN" "http://www.w3.org/Graphics/SVG/1.1/DTD/svg11.dtd" >
<svg xmlns="http://www.w3.org/2000/svg" xmlns:xlink="http://www.w3.org/1999/xlink" version="1.1" viewBox="-10 0 1099 1000">
  <g transform="matrix(1 0 0 -1 0 761)">
   <path fill="currentColor"
d="M121 428c46 49 106 76 171 76c68 0 117 -23 152 -51v-87c-31 42 -80 69 -134 69c-96 0 -173 -85 -173 -191c0 -105 77 -190 173 -190c54 0 103 27 134 69v-86c-35 -28 -84 -52 -152 -52c-134 0 -242 117 -242 260c0 69 25 134 71 183zM790 69c46 0 91 19 123 54l62 -49
c-21 -24 -46 -44 -75 -58c-35 -18 -72 -28 -111 -28c-67 0 -129 27 -175 75c-15 15 -27 31 -37 48v-111h-92v488h92v-113c11 18 24 36 39 51c43 43 97 70 155 75v-81c-27 -3 -53 -13 -74 -29c-17 -12 -32 -27 -44 -44c-47 -67 -39 -162 13 -224c6 -5 11 -11 18 -16
c30 -25 67 -38 106 -38zM1035 301c3 -17 5 -37 4 -55l-1 -23h-354v64l275 1c-14 42 -35 78 -71 104c-23 15 -49 25 -77 28v81c13 -1 26 -3 39 -6c45 -10 86 -34 119 -68c33 -35 56 -78 66 -126z" />
  </g>

</svg>
