<?xml version="1.0" standalone="no"?>
<!DOCTYPE svg PUBLIC "-//W3C//DTD SVG 1.1//EN" "http://www.w3.org/Graphics/SVG/1.1/DTD/svg11.dtd" >
<svg xmlns="http://www.w3.org/2000/svg" xmlns:xlink="http://www.w3.org/1999/xlink" version="1.1" viewBox="-10 0 637 1000">
  <g transform="matrix(1 0 0 -1 0 761)">
   <path fill="currentColor"
d="M489 243c0 105 -77 190 -173 190c-97 0 -174 -85 -174 -190c0 -106 77 -191 174 -191c96 0 173 85 173 191zM577 242c0 -69 -26 -134 -72 -183s-106 -76 -171 -76c-148 0 -284 128 -284 271v233h92v-78c32 42 93 93 192 93c134 0 243 -117 243 -260zM50 102
c21 -35 50 -70 92 -98v-240h-92v338z" />
  </g>

</svg>
