<?xml version="1.0" standalone="no"?>
<!DOCTYPE svg PUBLIC "-//W3C//DTD SVG 1.1//EN" "http://www.w3.org/Graphics/SVG/1.1/DTD/svg11.dtd" >
<svg xmlns="http://www.w3.org/2000/svg" xmlns:xlink="http://www.w3.org/1999/xlink" version="1.1" viewBox="-10 0 389 1000">
  <g transform="matrix(1 0 0 -1 0 761)">
   <path fill="currentColor"
d="M139 489h-89v64c0 25 0 49 6 73c5 17 14 32 26 44c14 14 31 24 49 31c15 6 24 9 31 10v-26c-23 -7 -40 -17 -51 -31c-12 -16 -20 -37 -21 -64v-1h49v-100zM306 489h-89v64c0 25 0 49 7 73c4 17 13 32 26 44c14 14 30 24 49 31c14 6 24 9 30 10v-26
c-22 -7 -40 -17 -51 -31c-12 -16 -19 -37 -21 -64v-1h49v-100z" />
  </g>

</svg>
