<?xml version="1.0" standalone="no"?>
<!DOCTYPE svg PUBLIC "-//W3C//DTD SVG 1.1//EN" "http://www.w3.org/Graphics/SVG/1.1/DTD/svg11.dtd" >
<svg xmlns="http://www.w3.org/2000/svg" xmlns:xlink="http://www.w3.org/1999/xlink" version="1.1" viewBox="-10 0 547 1000">
  <g transform="matrix(1 0 0 -1 0 761)">
   <path fill="currentColor"
d="M254 643c-115 0 -187 -119 -187 -119l4 124s58 84 183 84c58 0 111 -19 149 -53c20 -17 35 -37 46 -61c8 -18 13 -37 15 -57h-87c-10 36 -42 82 -123 82zM407 178h80c-3 -63 -27 -114 -71 -148c-40 -32 -99 -48 -169 -48c-36 0 -74 5 -108 15c-40 11 -70 29 -88 50l-1 1
v116s62 -96 203 -96c91 0 143 36 154 110zM409 219c-6 92 -94 110 -157 110h-78v99h78c53 0 122 15 129 92h84c-3 -32 -10 -59 -24 -80c-17 -27 -42 -47 -77 -60c36 -12 112 -47 122 -161h-77z" />
  </g>

</svg>
