<?xml version="1.0" standalone="no"?>
<!DOCTYPE svg PUBLIC "-//W3C//DTD SVG 1.1//EN" "http://www.w3.org/Graphics/SVG/1.1/DTD/svg11.dtd" >
<svg xmlns="http://www.w3.org/2000/svg" xmlns:xlink="http://www.w3.org/1999/xlink" version="1.1" viewBox="-10 0 606 1000">
  <g transform="matrix(1 0 0 -1 0 761)">
   <path fill="currentColor"
d="M370 42l-46 110l134 336h88c-17 -43 -126 -318 -176 -446zM140 488l209 -501c-2 -4 -3 -8 -4 -10c-52 -139 -145 -184 -240 -184v82c49 0 83 11 105 33c35 37 51 79 51 79s-187 446 -211 501h90zM462 637c0 26 -22 48 -49 48s-48 -22 -48 -48c0 -27 21 -49 48 -49
s49 22 49 49zM239 637c0 26 -22 48 -49 48s-48 -22 -48 -48c0 -27 21 -49 48 -49s49 22 49 49z" />
  </g>

</svg>
