<?xml version="1.0" standalone="no"?>
<!DOCTYPE svg PUBLIC "-//W3C//DTD SVG 1.1//EN" "http://www.w3.org/Graphics/SVG/1.1/DTD/svg11.dtd" >
<svg xmlns="http://www.w3.org/2000/svg" xmlns:xlink="http://www.w3.org/1999/xlink" version="1.1" viewBox="-10 0 451 1000">
  <g transform="matrix(1 0 0 -1 0 800)">
   <path fill="currentColor"
d="M350 213.5q34 -34.5 34 -97.5q0 -62 -43.5 -96.5t-122.5 -34.5q-39 0 -73.5 13.5t-52.5 35.5v-1l-21 -33h-25v147h46q12 -58 43.5 -81.5t82.5 -23.5q50 0 80.5 21t30.5 54q0 38 -26 60.5t-88 38.5q-61 16 -92.5 30.5t-49 43t-17.5 81.5q0 54 45.5 89t116.5 35
q35 0 64.5 -12.5t49.5 -35.5l19 33h27v-147h-46q-16 105 -114 105q-47 0 -76 -19.5t-29 -52.5q0 -28 11 -43.5t34.5 -25.5t71.5 -24q86 -25 120 -59.5z" />
  </g>

</svg>
