<?xml version="1.0" standalone="no"?>
<!DOCTYPE svg PUBLIC "-//W3C//DTD SVG 1.1//EN" "http://www.w3.org/Graphics/SVG/1.1/DTD/svg11.dtd" >
<svg xmlns="http://www.w3.org/2000/svg" xmlns:xlink="http://www.w3.org/1999/xlink" version="1.1" viewBox="-10 0 475 1000">
  <g transform="matrix(1 0 0 -1 0 800)">
   <path fill="currentColor"
d="M425 0h-385v60l215 230q53 57 77 102.5t24 91.5q0 65 -38.5 97t-104.5 32q-59 0 -110 -37l-10 -65h-44v92q41 36 80 55t84 19q93 0 147 -50t54 -143q0 -57 -25.5 -112t-69.5 -105l-196 -207h230q16 5 16 25v45h56v-130z" />
  </g>

</svg>
