<?xml version="1.0" standalone="no"?>
<!DOCTYPE svg PUBLIC "-//W3C//DTD SVG 1.1//EN" "http://www.w3.org/Graphics/SVG/1.1/DTD/svg11.dtd" >
<svg xmlns="http://www.w3.org/2000/svg" xmlns:xlink="http://www.w3.org/1999/xlink" version="1.1" viewBox="-23 0 420 1000">
  <g transform="matrix(1 0 0 -1 0 800)">
   <path fill="currentColor"
d="M0 0zM28 60l79 20v488l-79 20v60h319v-60l-79 -20v-488l79 -20v-60h-319v60zM387 697zM66.5 721.5q-52.5 24.5 -79.5 70.5l80 69q17 -30 52 -45t78 -15q41 0 79 13.5t61 38.5l50 -40q-25 -56 -82.5 -86t-125.5 -30q-60 0 -112.5 24.5z" />
  </g>

</svg>
