<?xml version="1.0" standalone="no"?>
<!DOCTYPE svg PUBLIC "-//W3C//DTD SVG 1.1//EN" "http://www.w3.org/Graphics/SVG/1.1/DTD/svg11.dtd" >
<svg xmlns="http://www.w3.org/2000/svg" xmlns:xlink="http://www.w3.org/1999/xlink" version="1.1" viewBox="-19 0 707 1000">
  <g transform="matrix(1 0 0 -1 0 800)">
   <path fill="currentColor"
d="M0 0zM182.5 7q-60.5 27 -86.5 91t-26 180v290l-79 20v60h311v-60l-71 -20v-290q0 -87 13 -130t41 -58.5t82 -15.5q45 0 70.5 16.5t37 60t11.5 127.5v290l-78 19v61h270v-61l-80 -19v-290q0 -108 -24.5 -173t-78 -95t-143.5 -30q-109 0 -169.5 27zM536 697zM215.5 721.5
q-52.5 24.5 -79.5 70.5l80 69q17 -30 52 -45t78 -15q41 0 79 13.5t61 38.5l50 -40q-25 -56 -82.5 -86t-125.5 -30q-60 0 -112.5 24.5z" />
  </g>

</svg>
