<?xml version="1.0" standalone="no"?>
<!DOCTYPE svg PUBLIC "-//W3C//DTD SVG 1.1//EN" "http://www.w3.org/Graphics/SVG/1.1/DTD/svg11.dtd" >
<svg xmlns="http://www.w3.org/2000/svg" xmlns:xlink="http://www.w3.org/1999/xlink" version="1.1" viewBox="-19 0 707 1000">
  <g transform="matrix(1 0 0 -1 0 800)">
   <path fill="currentColor"
d="M678 648v-61l-80 -19v-290q0 -103 -22 -166.5t-71 -95.5q-26 -18 -47.5 -44.5t-21.5 -51.5q0 -31 33 -31q17 0 50 20l26 -45q-15 -20 -46.5 -35.5t-72.5 -15.5q-39 0 -65.5 19.5t-26.5 54.5q0 52 51 94q-11 -1 -33 -1q-109 0 -169.5 27t-86.5 91t-26 180v290l-79 20v60
h311v-60l-71 -20v-290q0 -87 13 -130t41 -58.5t82 -15.5q45 0 70.5 16.5t37 60t11.5 127.5v290l-78 19v61h270z" />
  </g>

</svg>
