<?xml version="1.0" standalone="no"?>
<!DOCTYPE svg PUBLIC "-//W3C//DTD SVG 1.1//EN" "http://www.w3.org/Graphics/SVG/1.1/DTD/svg11.dtd" >
<svg xmlns="http://www.w3.org/2000/svg" xmlns:xlink="http://www.w3.org/1999/xlink" version="1.1" viewBox="-10 0 780 1000">
  <g transform="matrix(1 0 0 -1 0 800)">
   <path fill="currentColor"
d="M111.5 -15q-90.5 98 -90.5 267q0 105 48.5 191t138.5 136.5t210 50.5q161 0 251.5 -84.5t90.5 -237.5q0 -81 -26.5 -141t-73.5 -92.5t-109 -32.5q-94 0 -124 59q-36 -26 -60 -34t-57 -8q-45 0 -75 32.5t-30 108.5q0 59 23.5 118t68 97.5t103.5 38.5q30 0 52 -4t26 -7
l25 20h70l-48 -272q-3 -16 -3 -23q0 -24 32 -24q19 0 37.5 16t30 48.5t11.5 81.5q0 135 -64.5 187.5t-159.5 52.5q-74 0 -131.5 -29.5t-91.5 -90.5t-34 -153q0 -136 63 -209.5t186 -73.5q55 0 88 7.5t85 26.5l25 -55q0 -3 -29.5 -20t-77.5 -31.5t-109 -14.5
q-181 0 -271.5 98zM392.5 163.5q13.5 8.5 15.5 12.5l26 168q-6 6 -19.5 13.5t-33.5 7.5q-19 0 -26 -7q-9 -9 -19.5 -49t-10.5 -102q0 -25 7.5 -38.5t31.5 -13.5q15 0 28.5 8.5z" />
  </g>

</svg>
