<?xml version="1.0" standalone="no"?>
<!DOCTYPE svg PUBLIC "-//W3C//DTD SVG 1.1//EN" "http://www.w3.org/Graphics/SVG/1.1/DTD/svg11.dtd" >
<svg xmlns="http://www.w3.org/2000/svg" xmlns:xlink="http://www.w3.org/1999/xlink" version="1.1" viewBox="-10 0 469 1000">
  <g transform="matrix(1 0 0 -1 0 800)">
   <path fill="currentColor"
d="M375.5 12.5q-40.5 -21.5 -99.5 -24.5v-18l23 -6q35 -8 50.5 -23t15.5 -48q0 -89 -124 -89q-29 0 -48.5 4.5t-39.5 15.5l22 50q19 -8 33 -11t30 -3q13 0 20 4.5t7 19.5q0 17 -20 21l-27 5l-24 24l25 55q-104 9 -152 70.5t-48 178.5q0 102 39.5 163t94 85.5t106.5 24.5
q78 0 131.5 -34.5t53.5 -98.5q0 -34 -17.5 -51.5t-73.5 -17.5q-8 0 -19.5 2.5t-16.5 4.5l-19 99q-10 4 -33 4q-31 0 -49 -11.5t-27.5 -43.5t-9.5 -93q0 -71 8 -109.5t35.5 -59.5t85.5 -21q64 0 103 14l20 -46q-15 -15 -55.5 -36.5z" />
  </g>

</svg>
