<?xml version="1.0" standalone="no"?>
<!DOCTYPE svg PUBLIC "-//W3C//DTD SVG 1.1//EN" "http://www.w3.org/Graphics/SVG/1.1/DTD/svg11.dtd" >
<svg xmlns="http://www.w3.org/2000/svg" xmlns:xlink="http://www.w3.org/1999/xlink" version="1.1" viewBox="-50 0 413 1000">
  <g transform="matrix(1 0 0 -1 0 800)">
   <path fill="currentColor"
d="M0 0zM22 60l79 14v334l-82 17v64l189 21l42 -16v-420l67 -14v-60h-295v60zM353 556zM-18 578.5q-22 22.5 -22 56.5t25.5 59.5t60.5 25.5q33 0 55.5 -21t22.5 -57t-24.5 -61t-63.5 -25q-32 0 -54 22.5zM212 578.5q-22 22.5 -22 56.5t25.5 59.5t60.5 25.5q33 0 55 -21
t22 -57t-24 -61t-63 -25q-32 0 -54 22.5z" />
  </g>

</svg>
