<?xml version="1.0" standalone="no"?>
<!DOCTYPE svg PUBLIC "-//W3C//DTD SVG 1.1//EN" "http://www.w3.org/Graphics/SVG/1.1/DTD/svg11.dtd" >
<svg xmlns="http://www.w3.org/2000/svg" xmlns:xlink="http://www.w3.org/1999/xlink" version="1.1" viewBox="-18 0 352 1000">
  <g transform="matrix(1 0 0 -1 0 800)">
   <path fill="currentColor"
d="M0 0zM45 -164q-34 6 -53 14v56l100 22v480l-82 17v64l189 21l42 -16v-572q0 -42 -32 -67t-95 -25q-35 0 -69 6zM324 536zM42 537l-33 45l99 104q18 18 31.5 27.5t28.5 9.5q18 0 47 -29l109 -107l-42 -51l-122 68z" />
  </g>

</svg>
