<?xml version="1.0" standalone="no"?>
<!DOCTYPE svg PUBLIC "-//W3C//DTD SVG 1.1//EN" "http://www.w3.org/Graphics/SVG/1.1/DTD/svg11.dtd" >
<svg xmlns="http://www.w3.org/2000/svg" xmlns:xlink="http://www.w3.org/1999/xlink" version="1.1" viewBox="-10 0 937 1000">
  <g transform="matrix(1 0 0 -1 0 800)">
   <path fill="currentColor"
d="M100 74v334l-81 16v65l190 21l33 -49q83 50 158 50q48 0 78.5 -13.5t48.5 -42.5q26 22 79.5 40t92.5 18q77 0 112.5 -35t35.5 -112v-292l70 -14v-60h-282v60l61 14v262q0 35 -6 52t-21 24t-45 7q-21 0 -44.5 -3t-37.5 -8q6 -19 6 -51v-283l62 -14v-60h-276v60l64 14v262
q0 35 -6 52t-21.5 24t-45.5 7q-36 0 -76 -11v-334l62 -14v-60h-289v60z" />
  </g>

</svg>
