<?xml version="1.0" standalone="no"?>
<!DOCTYPE svg PUBLIC "-//W3C//DTD SVG 1.1//EN" "http://www.w3.org/Graphics/SVG/1.1/DTD/svg11.dtd" >
<svg xmlns="http://www.w3.org/2000/svg" xmlns:xlink="http://www.w3.org/1999/xlink" version="1.1" viewBox="-10 0 865 1000">
  <g transform="matrix(1 0 0 -1 0 800)">
   <path fill="currentColor"
d="M79.5 48.5q-54.5 64.5 -54.5 191.5q0 116 63 194.5t200 78.5q55 0 97.5 -15.5t70.5 -43.5q65 57 161 57q115 0 161.5 -61.5t46.5 -146.5q0 -48 -11 -65t-35 -17h-243q1 -76 27.5 -108t95.5 -32q41 0 77 7.5t55 16.5l21 -47q-29 -27 -80 -49t-107 -22q-125 0 -186 55
q-64 -58 -175 -58q-130 0 -184.5 64.5zM332 89q17 23 21 59t4 97q0 68 -5.5 104t-23 53t-52.5 17q-40 0 -59.5 -17t-26 -53t-6.5 -104t5.5 -104t26.5 -55.5t64 -19.5q35 0 52 23zM670 330q0 51 -10.5 70t-46.5 19q-45 0 -59.5 -31.5t-18.5 -94.5l132 8q3 18 3 29z" />
  </g>

</svg>
