<?xml version="1.0" standalone="no"?>
<!DOCTYPE svg PUBLIC "-//W3C//DTD SVG 1.1//EN" "http://www.w3.org/Graphics/SVG/1.1/DTD/svg11.dtd" >
<svg xmlns="http://www.w3.org/2000/svg" xmlns:xlink="http://www.w3.org/1999/xlink" version="1.1" viewBox="-10 0 856 1000">
  <g transform="matrix(1 0 0 -1 0 800)">
   <path fill="currentColor"
d="M576 696l82 -58l-466 -666l-79 59l181 260h-280v70l104 9v210h-108v67l145 12h74v-289l100 -9v-20zM813 133v-133h-310v68l98 89q79 69 79 102q0 20 -12.5 27t-41.5 7q-26 0 -44 -6l-15 -79h-71v126q23 15 61 27t89 12q80 0 119 -25t39 -80q0 -31 -10 -53t-33 -44.5
t-70 -58.5l-39 -29v-4h88l11 54h62z" />
  </g>

</svg>
