<?xml version="1.0" standalone="no"?>
<!DOCTYPE svg PUBLIC "-//W3C//DTD SVG 1.1//EN" "http://www.w3.org/Graphics/SVG/1.1/DTD/svg11.dtd" >
<svg xmlns="http://www.w3.org/2000/svg" xmlns:xlink="http://www.w3.org/1999/xlink" version="1.1" viewBox="-10 0 544 1000">
  <g transform="matrix(1 0 0 -1 0 800)">
   <path fill="currentColor"
d="M85.5 38.5q-59.5 54.5 -59.5 166.5q0 116 65.5 176.5t174.5 60.5q34 0 59.5 -5.5t28.5 -8.5q-2 89 -34.5 131.5t-100.5 42.5q-52 0 -120 -37l-41 55q28 25 80.5 54t120.5 29q135 0 200 -83t65 -275q0 -190 -66.5 -275.5t-191.5 -85.5q-121 0 -180.5 54.5zM335.5 92
q16.5 26 20 77t3.5 170q-38 10 -84 10q-34 0 -52.5 -12t-27.5 -43t-9 -89q0 -70 19 -104.5t75 -34.5q39 0 55.5 26z" />
  </g>

</svg>
