<?xml version="1.0" standalone="no"?>
<!DOCTYPE svg PUBLIC "-//W3C//DTD SVG 1.1//EN" "http://www.w3.org/Graphics/SVG/1.1/DTD/svg11.dtd" >
<svg xmlns="http://www.w3.org/2000/svg" xmlns:xlink="http://www.w3.org/1999/xlink" version="1.1" viewBox="-10 0 358 1000">
  <g transform="matrix(1 0 0 -1 0 800)">
   <path fill="currentColor"
d="M36 -63q8 37 8 59q0 43 -33 72q9 23 28.5 38t46.5 15q35 0 57 -22t22 -55q0 -48 -39.5 -105t-72.5 -90l-39 16q14 35 22 72zM208 -63.5q8 37.5 8 59.5q0 44 -32 72q9 23 28 38t47 15q35 0 57 -22t22 -55q0 -48 -39.5 -105t-72.5 -90l-40 16q14 34 22 71.5z" />
  </g>

</svg>
