<?xml version="1.0" standalone="no"?>
<!DOCTYPE svg PUBLIC "-//W3C//DTD SVG 1.1//EN" "http://www.w3.org/Graphics/SVG/1.1/DTD/svg11.dtd" >
<svg xmlns="http://www.w3.org/2000/svg" xmlns:xlink="http://www.w3.org/1999/xlink" version="1.1" viewBox="-10 0 631 1000">
  <g transform="matrix(1 0 0 -1 0 800)">
   <path fill="currentColor"
d="M7 0zM121.5 21q-35.5 34 -35.5 108v275l-79 17v64l188 22l40 -14v-330q0 -45 16.5 -63t63.5 -18q30 0 66 12v310l-81 17v64l188 22l41 -14v-399l82 -16v-65l-187 -24l-34 44h-10q-29 -20 -69.5 -33t-74.5 -13q-79 0 -114.5 34zM468 536zM288 546q-12 10 -42 38l-89 85
l46 54l113 -71l117 70l35 -45l-99 -93q-29 -28 -41.5 -38t-19.5 -10q-8 0 -20 10z" />
  </g>

</svg>
