<?xml version="1.0" standalone="no"?>
<!DOCTYPE svg PUBLIC "-//W3C//DTD SVG 1.1//EN" "http://www.w3.org/Graphics/SVG/1.1/DTD/svg11.dtd" >
<svg xmlns="http://www.w3.org/2000/svg" xmlns:xlink="http://www.w3.org/1999/xlink" version="1.1" viewBox="-10 0 1043 1000">
  <g transform="matrix(1 0 0 -1 0 800)">
   <path fill="currentColor"
d="M28 0zM28 61l84 20v488l-67 12v67h235l219 -360l22 -51h6v330l-88 19v62h280v-62l-84 -19v-567h-137l-251 411l-21 45h-6v-375l87 -20v-61h-279v61zM730 0zM775 -164q-34 6 -53 14v56l100 22v480l-82 17v64l189 21l42 -16v-572q0 -42 -32 -67t-95 -25q-35 0 -69 6z
M986 559zM831 583q-24 24 -24 62q0 37 27.5 65t65.5 28q37 0 61.5 -23t24.5 -62t-26.5 -66.5t-68.5 -27.5q-36 0 -60 24z" />
  </g>

</svg>
