<?xml version="1.0" standalone="no"?>
<!DOCTYPE svg PUBLIC "-//W3C//DTD SVG 1.1//EN" "http://www.w3.org/Graphics/SVG/1.1/DTD/svg11.dtd" >
<svg xmlns="http://www.w3.org/2000/svg" xmlns:xlink="http://www.w3.org/1999/xlink" version="1.1" viewBox="-10 0 1185 1000">
  <g transform="matrix(1 0 0 -1 0 800)">
   <path fill="currentColor"
d="M28 0zM28 61l84 20v488l-67 12v67h235l219 -360l22 -51h6v330l-88 19v62h280v-62l-84 -19v-567h-137l-251 411l-21 45h-6v-375l87 -20v-61h-279v61zM794.5 -9.5q-39.5 9.5 -64.5 25.5v182h70l26 -117q3 -2 13.5 -4t22.5 -2q35 0 45 12.5t10 49.5v431l-90 20v60h333v-60
l-82 -20v-415q0 -64 -19 -101t-61.5 -54t-114.5 -17q-49 0 -88.5 9.5z" />
  </g>

</svg>
