<?xml version="1.0" standalone="no"?>
<!DOCTYPE svg PUBLIC "-//W3C//DTD SVG 1.1//EN" "http://www.w3.org/Graphics/SVG/1.1/DTD/svg11.dtd" >
<svg xmlns="http://www.w3.org/2000/svg" xmlns:xlink="http://www.w3.org/1999/xlink" version="1.1" viewBox="-10 0 791 1000">
  <g transform="matrix(1 0 0 -1 0 800)">
   <path fill="currentColor"
d="M26 0zM101 200l29 -113h98l-3 2q-81 46 -120.5 113t-39.5 162q0 81 40.5 150.5t115.5 111.5t175 42q153 0 240 -78.5t87 -222.5q0 -74 -30.5 -130.5t-62 -85t-77.5 -63.5l-4 -1h97l29 113h75v-200h-319v94q5 5 33.5 30t50.5 82.5t22 139.5q0 120 -35.5 175.5t-115.5 55.5
q-50 0 -79.5 -23t-42.5 -73t-13 -134q0 -67 9.5 -110t30.5 -75t61 -68v-94h-326v200h75z" />
  </g>

</svg>
