<?xml version="1.0" standalone="no"?>
<!DOCTYPE svg PUBLIC "-//W3C//DTD SVG 1.1//EN" "http://www.w3.org/Graphics/SVG/1.1/DTD/svg11.dtd" >
<svg xmlns="http://www.w3.org/2000/svg" xmlns:xlink="http://www.w3.org/1999/xlink" version="1.1" viewBox="-18 0 711 1000">
  <g transform="matrix(1 0 0 -1 0 800)">
   <path fill="currentColor"
d="M0 0zM-8 60l65 14l201 582h144l210 -578l71 -18v-60h-330v60l89 15l-33 103h-200l-35 -102l90 -16v-60h-272v60zM381 266l-58 197l-7 42h-8l-8 -42l-61 -197h142zM509 669zM285 690l-140 102l34 55l156 -61l143 62l31 -44l-134 -112q-13 -11 -23.5 -17t-23.5 -6
q-14 0 -43 21z" />
  </g>

</svg>
