<?xml version="1.0" standalone="no"?>
<!DOCTYPE svg PUBLIC "-//W3C//DTD SVG 1.1//EN" "http://www.w3.org/Graphics/SVG/1.1/DTD/svg11.dtd" >
<svg xmlns="http://www.w3.org/2000/svg" xmlns:xlink="http://www.w3.org/1999/xlink" version="1.1" viewBox="-10 0 631 1000">
  <g transform="matrix(1 0 0 -1 0 800)">
   <path fill="currentColor"
d="M7 0zM121.5 21q-35.5 34 -35.5 108v275l-79 17v64l188 22l40 -14v-330q0 -45 16.5 -63t63.5 -18q30 0 66 12v310l-81 17v64l188 22l41 -14v-399l82 -16v-65l-187 -24l-34 44h-10q-29 -20 -69.5 -33t-74.5 -13q-79 0 -114.5 34zM509 556zM138 578.5q-22 22.5 -22 56.5
t25.5 59.5t60.5 25.5q33 0 55.5 -21t22.5 -57t-24.5 -61t-63.5 -25q-32 0 -54 22.5zM368 578.5q-22 22.5 -22 56.5t25.5 59.5t60.5 25.5q33 0 55 -21t22 -57t-24 -61t-63 -25q-32 0 -54 22.5zM499 785zM148 877h351l-14 -92h-351z" />
  </g>

</svg>
