<?xml version="1.0" standalone="no"?>
<!DOCTYPE svg PUBLIC "-//W3C//DTD SVG 1.1//EN" "http://www.w3.org/Graphics/SVG/1.1/DTD/svg11.dtd" >
<svg xmlns="http://www.w3.org/2000/svg" xmlns:xlink="http://www.w3.org/1999/xlink" version="1.1" viewBox="-28 0 678 1000">
  <g transform="matrix(1 0 0 -1 0 800)">
   <path fill="currentColor"
d="M0 0zM152 60l80 20v170l-182 321l-68 16v61h299v-61l-52 -15v-14l108 -220h10l113 228v5l-80 16v61h260v-60l-76 -20l-172 -322v-166l80 -20v-60h-320v60zM402 -42zM402 -42zM402 -221zM247 -197q-24 24 -24 62q0 37 27.5 65t65.5 28q37 0 61.5 -23t24.5 -62t-26.5 -66.5
t-68.5 -27.5q-36 0 -60 24z" />
  </g>

</svg>
