<?xml version="1.0" standalone="no"?>
<!DOCTYPE svg PUBLIC "-//W3C//DTD SVG 1.1//EN" "http://www.w3.org/Graphics/SVG/1.1/DTD/svg11.dtd" >
<svg xmlns="http://www.w3.org/2000/svg" xmlns:xlink="http://www.w3.org/1999/xlink" version="1.1" viewBox="-10 0 610 1000">
  <g transform="matrix(1 0 0 -1 0 800)">
   <path fill="currentColor"
d="M28 0zM107 80v488l-79 20v60h510v-196h-74l-26 113h-139l-31 -7v-189h83l25 72h56v-238h-56l-25 82h-83v-201q19 -2 48 -2h132l28 126h71v-208h-519v60zM590 669zM419 836q0 8 8.5 16t32.5 23q22 14 22 30q0 12 -8.5 16.5t-26.5 4.5q-24 0 -51 -8q-22 23 -22 43
q0 36 85 36q63 0 97 -21t34 -61q0 -38 -46 -61q-22 -11 -30.5 -17.5t-8.5 -13.5l2 -8l-75 -9q-13 20 -13 30zM504 669zM280 824q28 23 44 23q8 0 17 -4t26 -17l137 -104l-30 -53l-157 61l-146 -61l-28 42z" />
  </g>

</svg>
