<?xml version="1.0" standalone="no"?>
<!DOCTYPE svg PUBLIC "-//W3C//DTD SVG 1.1//EN" "http://www.w3.org/Graphics/SVG/1.1/DTD/svg11.dtd" >
<svg xmlns="http://www.w3.org/2000/svg" xmlns:xlink="http://www.w3.org/1999/xlink" version="1.1" viewBox="-18 0 711 1000">
  <g transform="matrix(1 0 0 -1 0 800)">
   <path fill="currentColor"
d="M0 0zM-8 60l65 14l201 582h144l210 -578l71 -18v-60h-330v60l89 15l-33 103h-200l-35 -102l90 -16v-60h-272v60zM381 266l-58 197l-7 42h-8l-8 -42l-61 -197h142zM396 -42zM396 -42zM396 -221zM241 -197q-24 24 -24 62q0 37 27.5 65t65.5 28q37 0 61.5 -23t24.5 -62
t-26.5 -66.5t-68.5 -27.5q-36 0 -60 24z" />
  </g>

</svg>
