<?xml version="1.0" standalone="no"?>
<!DOCTYPE svg PUBLIC "-//W3C//DTD SVG 1.1//EN" "http://www.w3.org/Graphics/SVG/1.1/DTD/svg11.dtd" >
<svg xmlns="http://www.w3.org/2000/svg" xmlns:xlink="http://www.w3.org/1999/xlink" version="1.1" viewBox="-10 0 554 1000">
  <g transform="matrix(1 0 0 -1 0 800)">
   <path fill="currentColor"
d="M25 0zM79.5 48.5q-54.5 64.5 -54.5 191.5q0 116 63 194.5t201 78.5q119 0 173.5 -66.5t54.5 -183.5q0 -122 -57.5 -200.5t-195.5 -78.5q-130 0 -184.5 64.5zM333 96.5q17 24.5 21 60.5t4 95q0 67 -6 103.5t-23.5 53.5t-52.5 17q-40 0 -59.5 -17t-25.5 -53t-6 -104
q0 -69 5.5 -105.5t26 -55.5t63.5 -19q36 0 53 24.5zM534 536zM364 724q0 9 6.5 16t20.5 18q19 14 27 22.5t8 21.5q0 12 -8 17t-26 5q-24 0 -51 -8q-22 23 -22 43q0 36 85 36q62 0 96 -20.5t34 -57.5q0 -47 -46 -76q-27 -16 -33 -23.5t-3 -18.5l-76 -9q-12 20 -12 34z
M443 536zM161 537l-33 45l99 104q18 18 31.5 27.5t28.5 9.5q18 0 47 -29l109 -107l-42 -51l-122 68z" />
  </g>

</svg>
