<?xml version="1.0" standalone="no"?>
<!DOCTYPE svg PUBLIC "-//W3C//DTD SVG 1.1//EN" "http://www.w3.org/Graphics/SVG/1.1/DTD/svg11.dtd" >
<svg xmlns="http://www.w3.org/2000/svg" xmlns:xlink="http://www.w3.org/1999/xlink" version="1.1" viewBox="-10 0 337 1000">
  <g transform="matrix(1 0 0 -1 0 800)">
   <path fill="currentColor"
d="M19 0zM22 60l79 14v334l-82 17v64l189 21l42 -16v-420l67 -14v-60h-295v60zM107 570q0 9 6.5 16t20.5 18q19 14 27 22.5t8 21.5q0 12 -8 17t-26 5q-24 0 -51 -8q-22 23 -22 43q0 36 85 36q62 0 96 -20.5t34 -57.5q0 -47 -46 -76q-27 -16 -33 -23.5t-3 -18.5l-76 -9
q-12 20 -12 34z" />
  </g>

</svg>
