<?xml version="1.0" standalone="no"?>
<!DOCTYPE svg PUBLIC "-//W3C//DTD SVG 1.1//EN" "http://www.w3.org/Graphics/SVG/1.1/DTD/svg11.dtd" >
<svg xmlns="http://www.w3.org/2000/svg" xmlns:xlink="http://www.w3.org/1999/xlink" version="1.1" viewBox="-32 0 915 1000">
  <g transform="matrix(1 0 0 -1 0 800)">
   <path fill="currentColor"
d="M0 0zM39 424l-61 12v61h284v-65l-70 -9l2 -6l77 -282l10 -39l5 35l87 366h141l91 -362l10 -39l6 35l85 285l2 7l-80 9v65h245v-62l-69 -10l-135 -433h-161l-89 319l-80 -319h-163zM642 556zM271 578.5q-22 22.5 -22 56.5t25.5 59.5t60.5 25.5q33 0 55.5 -21t22.5 -57
t-24.5 -61t-63.5 -25q-32 0 -54 22.5zM501 578.5q-22 22.5 -22 56.5t25.5 59.5t60.5 25.5q33 0 55 -21t22 -57t-24 -61t-63 -25q-32 0 -54 22.5z" />
  </g>

</svg>
