<?xml version="1.0" standalone="no"?>
<!DOCTYPE svg PUBLIC "-//W3C//DTD SVG 1.1//EN" "http://www.w3.org/Graphics/SVG/1.1/DTD/svg11.dtd" >
<svg xmlns="http://www.w3.org/2000/svg" xmlns:xlink="http://www.w3.org/1999/xlink" version="1.1" viewBox="-10 0 468 1000">
  <g transform="matrix(1 0 0 -1 0 800)">
   <path fill="currentColor"
d="M82 334.5q-42 49.5 -42 139.5q0 89 48 139.5t147 50.5q100 0 141.5 -49t41.5 -141q0 -88 -47.5 -138.5t-145.5 -50.5q-101 0 -143 49.5zM274.5 391q13.5 29 13.5 85q0 53 -14 82t-47 29q-31 0 -43.5 -29t-12.5 -82q0 -56 12.5 -85t43.5 -29q34 0 47.5 29z" />
  </g>

</svg>
