<?xml version="1.0" standalone="no"?>
<!DOCTYPE svg PUBLIC "-//W3C//DTD SVG 1.1//EN" "http://www.w3.org/Graphics/SVG/1.1/DTD/svg11.dtd" >
<svg xmlns="http://www.w3.org/2000/svg" xmlns:xlink="http://www.w3.org/1999/xlink" version="1.1" viewBox="-10 0 590 1000">
  <g transform="matrix(1 0 0 -1 0 800)">
   <path fill="currentColor"
d="M459 -202q-34 0 -56.5 17t-22.5 50q0 15 5 30t18 31t35 33.5t55 37.5l-2 3h-441v18h85v662h-85v18h462v-148h-21v130h-334v-303h262v85h21v-188h-21v85h-262v-341h342v130h21v-148q-59 -38 -89 -66.5t-30 -65.5q0 -29 16.5 -41t42.5 -12q25 0 39 8t22 17l11 -9
q-10 -14 -28 -23.5t-45 -9.5z" />
  </g>

</svg>
