<?xml version="1.0" standalone="no"?>
<!DOCTYPE svg PUBLIC "-//W3C//DTD SVG 1.1//EN" "http://www.w3.org/Graphics/SVG/1.1/DTD/svg11.dtd" >
<svg xmlns="http://www.w3.org/2000/svg" xmlns:xlink="http://www.w3.org/1999/xlink" version="1.1" viewBox="-10 0 302 1000">
  <g transform="matrix(1 0 0 -1 0 800)">
   <path fill="currentColor"
d="M50 18h85v662h-85v18h192v-18h-85v-662h85v-18h-192v18zM147 780q-25 0 -43.5 8t-33.5 23t-27.5 37t-26.5 49l14 7l15 -27q13 -24 24.5 -39.5t23.5 -24t24.5 -12t29.5 -3.5q16 0 29 3.5t25 12t23 24t25 39.5l15 27l14 -7q-14 -27 -26.5 -49t-27.5 -37t-33.5 -23t-43.5 -8
z" />
  </g>

</svg>
