<?xml version="1.0" standalone="no"?>
<!DOCTYPE svg PUBLIC "-//W3C//DTD SVG 1.1//EN" "http://www.w3.org/Graphics/SVG/1.1/DTD/svg11.dtd" >
<svg xmlns="http://www.w3.org/2000/svg" xmlns:xlink="http://www.w3.org/1999/xlink" version="1.1" viewBox="-158 0 316 1000">
  <g transform="matrix(1 0 0 -1 0 800)">
   <path fill="currentColor"
d="M71 764q-17 0 -34 6.5t-43 23.5q-22 14 -37 20t-29 6q-35 0 -66 -32l-10 10q35 39 77 39q17 0 34 -6.5t43 -23.5q22 -14 37 -20t29 -6q35 0 66 32l10 -10q-35 -39 -77 -39zM0 594q-50 0 -78 28t-53 79l14 7l16 -27q13 -21 24 -34.5t22.5 -21t24.5 -10.5t30 -3
q16 0 29.5 3t25 10.5t22.5 21t24 34.5l16 27l14 -7q-13 -26 -25.5 -46t-27.5 -33.5t-34 -20.5t-44 -7z" />
  </g>

</svg>
