<?xml version="1.0" standalone="no"?>
<!DOCTYPE svg PUBLIC "-//W3C//DTD SVG 1.1//EN" "http://www.w3.org/Graphics/SVG/1.1/DTD/svg11.dtd" >
<svg xmlns="http://www.w3.org/2000/svg" xmlns:xlink="http://www.w3.org/1999/xlink" version="1.1" viewBox="-10 0 351 1000">
  <g transform="matrix(1 0 0 -1 0 800)">
   <path fill="currentColor"
d="M50 18h85v470h-85v18h85v128q0 31 9.5 54.5t26 39.5t38 24t45.5 8q41 0 59 -15.5t18 -31.5q0 -27 -26 -27t-26 25q0 20 22 28v2q-10 3 -21 4t-23 1q-45 0 -73 -29t-28 -82v-129h105v-18h-105v-470h105v-18h-211v18z" />
  </g>

</svg>
