<?xml version="1.0" standalone="no"?>
<!DOCTYPE svg PUBLIC "-//W3C//DTD SVG 1.1//EN" "http://www.w3.org/Graphics/SVG/1.1/DTD/svg11.dtd" >
<svg xmlns="http://www.w3.org/2000/svg" xmlns:xlink="http://www.w3.org/1999/xlink" version="1.1" viewBox="-10 0 579 1000">
  <g transform="matrix(1 0 0 -1 0 800)">
   <path fill="currentColor"
d="M315 -212q-25 0 -50.5 6.5t-45.5 17t-33 24.5t-13 29q0 26 26 26t26 -26q0 -20 -22 -28v-2q26 -17 58 -23t54 -6q37 0 72 10.5t62 32t43 54.5t16 77v35q0 164 -223 164h-26v20l223 289h-336v-488h-106v18h85v573q0 90 40.5 129.5t110.5 39.5q23 0 43 -7t35 -18t23.5 -25
t8.5 -28q0 -26 -26 -26t-26 26q0 21 25 28v2q-11 13 -32.5 23.5t-50.5 10.5q-63 0 -96.5 -37t-33.5 -118v-85h358v-20l-224 -289q130 0 190.5 -47.5t60.5 -150.5q0 -54 -16.5 -93.5t-45 -65.5t-68.5 -39t-86 -13z" />
  </g>

</svg>
