<?xml version="1.0" standalone="no"?>
<!DOCTYPE svg PUBLIC "-//W3C//DTD SVG 1.1//EN" "http://www.w3.org/Graphics/SVG/1.1/DTD/svg11.dtd" >
<svg xmlns="http://www.w3.org/2000/svg" xmlns:xlink="http://www.w3.org/1999/xlink" version="1.1" viewBox="-10 0 441 1000">
  <g transform="matrix(1 0 0 -1 0 800)">
   <path fill="currentColor"
d="M224 -204q-43 0 -78 13t-59.5 36.5t-38 56.5t-13.5 73q0 86 51 138t151 62v155h21v-173q-96 -2 -148 -48t-52 -119v-26q0 -67 44.5 -108.5t122.5 -41.5q49 0 82.5 13t56.5 33v2q-11 4 -19 13t-8 21t7.5 21t21.5 9t22 -9t8 -21q0 -18 -13 -35.5t-36 -32t-54.5 -23.5
t-68.5 -9zM247 453q-28 0 -28 28v2q0 28 28 28t28 -28v-2q0 -28 -28 -28z" />
  </g>

</svg>
