<?xml version="1.0" standalone="no"?>
<!DOCTYPE svg PUBLIC "-//W3C//DTD SVG 1.1//EN" "http://www.w3.org/Graphics/SVG/1.1/DTD/svg11.dtd" >
<svg xmlns="http://www.w3.org/2000/svg" xmlns:xlink="http://www.w3.org/1999/xlink" version="1.1" viewBox="-10 0 329 1000">
  <g transform="matrix(1 0 0 -1 0 800)">
   <path fill="currentColor"
d="M165 -2q-23 0 -31.5 7t-8.5 24v459h-72v18h23q26 0 37 9t12 32l4 103h17v-144h143v-18h-143v-470h143v-16q-11 -1 -28 -1.5t-35 -1t-34.5 -1t-26.5 -0.5zM170 -213q20 27 28 50t13 49h-5q-13 0 -18 7.5t-5 15.5v2q0 8 5 15.5t18 7.5t18 -7.5t5 -15.5v-2
q0 -29 -12.5 -62.5t-33.5 -59.5h-13v0z" />
  </g>

</svg>
