<?xml version="1.0" standalone="no"?>
<!DOCTYPE svg PUBLIC "-//W3C//DTD SVG 1.1//EN" "http://www.w3.org/Graphics/SVG/1.1/DTD/svg11.dtd" >
<svg xmlns="http://www.w3.org/2000/svg" xmlns:xlink="http://www.w3.org/1999/xlink" version="1.1" viewBox="-10 0 585 1000">
  <g transform="matrix(1 0 0 -1 0 800)">
   <path fill="currentColor"
d="M272 -12q-100 0 -156 66t-56 199t56 199t156 66q33 0 60 -8t47.5 -21.5t34.5 -31t22 -36.5h3l4 85h17v-492h81v-12q-9 -4 -27.5 -6.5t-31.5 -2.5q-23 0 -32.5 8.5t-9.5 33.5v50h-4q-8 -19 -22 -36.5t-34.5 -31t-47.5 -21.5t-60 -8zM272 6q33 0 63 9.5t53.5 27.5t37 43
t13.5 55v224q0 30 -13.5 55t-37 43t-53.5 27.5t-63 9.5q-91 0 -140 -60t-49 -163v-48q0 -103 49 -163t140 -60zM273 606q-27 0 -50 7t-40 18.5t-27 25.5t-10 29q0 25 23 25t23 -23q0 -21 -28 -24v-2q17 -21 48 -30t61 -9t61 9t48 30v2q-28 3 -28 24q0 23 23 23t23 -25
q0 -15 -10 -29t-27 -25.5t-40 -18.5t-50 -7z" />
  </g>

</svg>
