<?xml version="1.0" standalone="no"?>
<!DOCTYPE svg PUBLIC "-//W3C//DTD SVG 1.1//EN" "http://www.w3.org/Graphics/SVG/1.1/DTD/svg11.dtd" >
<svg xmlns="http://www.w3.org/2000/svg" xmlns:xlink="http://www.w3.org/1999/xlink" version="1.1" viewBox="-10 0 860 1000">
  <g transform="matrix(1 0 0 -1 0 800)">
   <path fill="currentColor"
d="M218 -12q-74 0 -116 37t-42 98q0 77 49.5 114.5t164.5 37.5h113v85q0 70 -38 105t-112 35q-51 0 -81 -8.5t-46 -21.5v-2q22 -8 22 -28q0 -26 -26 -26t-26 26q0 15 12.5 29t34 25t50.5 17.5t62 6.5q80 0 122.5 -38t42.5 -98h4q52 136 192 136q43 0 78 -17.5t60 -50
t38.5 -78t13.5 -101.5v-12h-380v-25q0 -57 13.5 -100t38.5 -71.5t59 -42.5t76 -14q31 0 57 9t46.5 24t36 34t26.5 39l14 -8q-11 -20 -26.5 -40.5t-38 -37.5t-51 -27.5t-64.5 -10.5q-67 0 -116 32.5t-73 100.5h-4q-5 -26 -19 -50t-37.5 -42.5t-55.5 -29.5t-74 -11zM221 6
q37 0 67.5 11t52.5 29.5t34 43.5t12 54v115h-107q-56 0 -93.5 -8.5t-60.5 -24t-33 -38.5t-10 -52v-24q0 -45 36 -75.5t102 -30.5zM410 275h357q0 50 -11.5 91.5t-33 71t-52.5 46t-70 16.5q-43 0 -78 -15.5t-60 -44t-38.5 -68.5t-13.5 -89v-8z" />
  </g>

</svg>
