<?xml version="1.0" standalone="no"?>
<!DOCTYPE svg PUBLIC "-//W3C//DTD SVG 1.1//EN" "http://www.w3.org/Graphics/SVG/1.1/DTD/svg11.dtd" >
<svg xmlns="http://www.w3.org/2000/svg" xmlns:xlink="http://www.w3.org/1999/xlink" version="1.1" viewBox="-10 0 752 1000">
  <g transform="matrix(1 0 0 -1 0 800)">
   <path fill="currentColor"
d="M50 18h85v662h-85v18h192v-18h-85v-377l-1 -216h1l428 555v38h-85v18h192v-18h-85v-662h85v-18h-192v18h85v377l1 216h-1l-428 -555v-38h85v-18h-192v18zM371 786q-27 0 -50 7t-40 18.5t-27 25.5t-10 29q0 25 23 25t23 -23q0 -21 -28 -24v-2q17 -21 48 -30t61 -9t61 9
t48 30v2q-28 3 -28 24q0 23 23 23t23 -25q0 -15 -10 -29t-27 -25.5t-40 -18.5t-50 -7z" />
  </g>

</svg>
