<?xml version="1.0" standalone="no"?>
<!DOCTYPE svg PUBLIC "-//W3C//DTD SVG 1.1//EN" "http://www.w3.org/Graphics/SVG/1.1/DTD/svg11.dtd" >
<svg xmlns="http://www.w3.org/2000/svg" xmlns:xlink="http://www.w3.org/1999/xlink" version="1.1" viewBox="-35 0 301 1000">
  <g transform="matrix(1 0 0 -1 0 800)">
   <path fill="currentColor"
d="M49 -212q-39 0 -56.5 15.5t-17.5 32.5q0 26 26 26t26 -26q0 -20 -22 -28v-2q9 -2 19.5 -3t21.5 -1q36 0 58 24t22 72v586l-85 5v13l106 10v-612q0 -62 -29 -87t-69 -25zM136 669q-13 0 -19.5 7t-6.5 18v2q0 11 6.5 18t19.5 7t19.5 -7t6.5 -18v-2q0 -11 -6.5 -18t-19.5 -7
z" />
  </g>

</svg>
