<?xml version="1.0" standalone="no"?>
<!DOCTYPE svg PUBLIC "-//W3C//DTD SVG 1.1//EN" "http://www.w3.org/Graphics/SVG/1.1/DTD/svg11.dtd" >
<svg xmlns="http://www.w3.org/2000/svg" xmlns:xlink="http://www.w3.org/1999/xlink" version="1.1" viewBox="-10 0 675 1000">
  <g transform="matrix(1 0 0 -1 0 800)">
   <path fill="currentColor"
d="M360 -12q-295 0 -295 366q0 177 73.5 266.5t207.5 89.5q43 0 78.5 -9.5t61.5 -23.5t42.5 -31t22.5 -33h3v85h21v-205h-21v63q0 29 -16.5 54t-45 43t-66.5 28.5t-80 10.5q-119 0 -188 -80t-69 -241v-8h365v-18h-365v-10q0 -168 68.5 -248.5t202.5 -80.5q80 0 127 16t76 44
v2q-16 4 -24 13.5t-8 21.5t7.5 21t21.5 9t22 -9.5t8 -23.5q0 -18 -14 -38t-42.5 -36.5t-72 -27t-101.5 -10.5z" />
  </g>

</svg>
