<?xml version="1.0" standalone="no"?>
<!DOCTYPE svg PUBLIC "-//W3C//DTD SVG 1.1//EN" "http://www.w3.org/Graphics/SVG/1.1/DTD/svg11.dtd" >
<svg xmlns="http://www.w3.org/2000/svg" xmlns:xlink="http://www.w3.org/1999/xlink" version="1.1" viewBox="-10 0 970 1000">
  <g transform="matrix(1 0 0 -1 0 800)">
   <path fill="currentColor"
d="M90 -12q-39 0 -57 19.5t-18 41.5q0 17 8 26.5t22 9.5t21.5 -9t7.5 -21q0 -14 -7.5 -24t-24.5 -14v-2q15 -12 43 -12q26 0 42 6t30 20q15 15 26.5 41t20 74t13 124t4.5 190v222h-85v18h487v-18h-85v-294h201q86 0 131 -49.5t45 -143.5t-45 -143.5t-131 -49.5h-308v18h85
v662h-273v-222q0 -116 -4.5 -192.5t-13.5 -126t-22.5 -77t-30.5 -44.5t-37 -23.5t-45 -6.5zM739 18q38 0 66.5 12t47.5 33t28.5 48.5t9.5 57.5v49q0 31 -9.5 58.5t-28.5 47.5t-47.5 32t-66.5 12h-201v-350h201z" />
  </g>

</svg>
