<?xml version="1.0" standalone="no"?>
<!DOCTYPE svg PUBLIC "-//W3C//DTD SVG 1.1//EN" "http://www.w3.org/Graphics/SVG/1.1/DTD/svg11.dtd" >
<svg xmlns="http://www.w3.org/2000/svg" xmlns:xlink="http://www.w3.org/1999/xlink" version="1.1" viewBox="-10 0 533 1000">
  <g transform="matrix(1 0 0 -1 0 800)">
   <path fill="currentColor"
d="M221 -12q-76 0 -118.5 37t-42.5 98q0 73 50 109t166 36h111v92q0 70 -38 105t-109 35q-52 0 -83 -8.5t-47 -21.5v-2q22 -8 22 -28q0 -26 -26 -26t-26 26q0 15 12.5 29t34 25t50.5 17.5t63 6.5q77 0 122.5 -39.5t45.5 -115.5v-349h81v-12q-9 -4 -27.5 -6.5t-31.5 -2.5
q-23 0 -32.5 8.5t-9.5 33.5v55h-3q-6 -18 -18.5 -36t-32.5 -32.5t-48 -24t-65 -9.5zM221 6q36 0 66 11t52.5 29.5t35 43.5t12.5 54v108h-105q-56 0 -94.5 -7.5t-61.5 -22.5t-33 -36.5t-10 -49.5v-24q0 -45 35.5 -75.5t102.5 -30.5zM101 602l127 133h24l127 -133l-12 -10
l-127 126l-127 -126zM340 707l110 154l19 -12l-116 -151z" />
  </g>

</svg>
