<?xml version="1.0" standalone="no"?>
<!DOCTYPE svg PUBLIC "-//W3C//DTD SVG 1.1//EN" "http://www.w3.org/Graphics/SVG/1.1/DTD/svg11.dtd" >
<svg xmlns="http://www.w3.org/2000/svg" xmlns:xlink="http://www.w3.org/1999/xlink" version="1.1" viewBox="-10 0 895 1000">
  <g transform="matrix(1 0 0 -1 0 800)">
   <path fill="currentColor"
d="M46 350l128 115q42 37 61.5 67.5t19.5 59.5v10q0 39 -23 62.5t-73 23.5q-60 0 -90 -26v-2q12 -5 16.5 -11t4.5 -14q0 -10 -6.5 -16.5t-16.5 -6.5q-11 0 -17.5 6.5t-6.5 18.5q0 10 8 22t23 22t36.5 16.5t48.5 6.5q60 0 88 -29.5t28 -75.5q0 -38 -22 -72t-68 -74l-119 -103
v-3h213v68h19v-85h-252v20zM677 698h21l-447 -698h-21zM708 -6q-27 0 -48 6.5t-36 16.5t-23 21.5t-8 21.5q0 25 24 25q9 0 16 -6.5t7 -16.5q0 -17 -21 -25v-2q28 -25 88 -25q54 0 81 25t27 66v14q0 42 -22.5 66t-76.5 24q-34 0 -56 -10.5t-40 -27.5l-18 2l13 199h205v-17
h-189l-12 -172h2q16 18 40 30.5t57 12.5q60 0 88.5 -30.5t28.5 -81.5q0 -54 -33.5 -85t-93.5 -31z" />
  </g>

</svg>
