<?xml version="1.0" standalone="no"?>
<!DOCTYPE svg PUBLIC "-//W3C//DTD SVG 1.1//EN" "http://www.w3.org/Graphics/SVG/1.1/DTD/svg11.dtd" >
<svg xmlns="http://www.w3.org/2000/svg" xmlns:xlink="http://www.w3.org/1999/xlink" version="1.1" viewBox="-10 0 348 1000">
  <g transform="matrix(1 0 0 -1 0 800)">
   <path fill="currentColor"
d="M161 -6q-27 0 -48 6.5t-36 16.5t-23 21.5t-8 21.5q0 25 24 25q9 0 16 -6.5t7 -16.5q0 -17 -21 -25v-2q28 -25 88 -25q54 0 81 25t27 66v14q0 42 -22.5 66t-76.5 24q-34 0 -56 -10.5t-40 -27.5l-18 2l13 199h205v-17h-189l-12 -172h2q16 18 40 30.5t57 12.5
q60 0 88.5 -30.5t28.5 -81.5q0 -54 -33.5 -85t-93.5 -31z" />
  </g>

</svg>
