<?xml version="1.0" standalone="no"?>
<!DOCTYPE svg PUBLIC "-//W3C//DTD SVG 1.1//EN" "http://www.w3.org/Graphics/SVG/1.1/DTD/svg11.dtd" >
<svg xmlns="http://www.w3.org/2000/svg" xmlns:xlink="http://www.w3.org/1999/xlink" version="1.1" viewBox="-10 0 372 1000">
  <g transform="matrix(1 0 0 -1 0 800)">
   <path fill="currentColor"
d="M182 -6q-54 0 -88 30.5t-34 97.5q0 59 13.5 102.5t38.5 74t61 49t81 26.5l5 -14q-85 -18 -126.5 -62.5t-51.5 -128.5l2 -1q31 54 103 54q57 0 89.5 -30t32.5 -84t-33.5 -84t-92.5 -30zM184 10q45 0 74 21.5t29 69.5v14q0 48 -29 69.5t-74 21.5t-74 -21.5t-29 -69.5v-14
q0 -48 29 -69.5t74 -21.5z" />
  </g>

</svg>
