<?xml version="1.0" standalone="no"?>
<!DOCTYPE svg PUBLIC "-//W3C//DTD SVG 1.1//EN" "http://www.w3.org/Graphics/SVG/1.1/DTD/svg11.dtd" >
<svg xmlns="http://www.w3.org/2000/svg" xmlns:xlink="http://www.w3.org/1999/xlink" version="1.1" viewBox="-10 0 582 1000">
  <g transform="matrix(1 0 0 -1 0 800)">
   <path fill="currentColor"
d="M83 25q42 32 69 81t27 114q0 22 -3 43h-106v17h103q-8 37 -21.5 70t-24.5 68h-57v17h52q-5 17 -7.5 36t-2.5 39q0 47 16.5 84t45 63t67 39.5t83.5 13.5q37 0 71 -9.5t59.5 -24.5t40.5 -32.5t15 -33.5q0 -12 -8 -21t-22 -9t-21.5 9t-7.5 21t7 20.5t18 13.5v2
q-20 18 -60 32t-91 14q-41 0 -76 -12.5t-60.5 -36t-40 -57.5t-14.5 -76q0 -20 3 -38.5t8 -36.5h254v-17h-249q11 -34 23.5 -67t19.5 -71h206v-17h-203q3 -20 3 -42q0 -61 -26 -115t-74 -86v-2h392v130h21v-148h-429v25z" />
  </g>

</svg>
