<?xml version="1.0" standalone="no"?>
<!DOCTYPE svg PUBLIC "-//W3C//DTD SVG 1.1//EN" "http://www.w3.org/Graphics/SVG/1.1/DTD/svg11.dtd" >
<svg xmlns="http://www.w3.org/2000/svg" xmlns:xlink="http://www.w3.org/1999/xlink" version="1.1" viewBox="-10 0 858 1000">
  <g transform="matrix(1 0 0 -1 0 800)">
   <path fill="currentColor"
d="M160 324q-26 0 -47 6.5t-36 16.5t-23 21.5t-8 21.5q0 12 6.5 18.5t17.5 6.5q10 0 16.5 -6.5t6.5 -16.5q0 -8 -4.5 -14t-16.5 -11v-2q29 -25 88 -25q109 0 109 86v8q0 37 -27.5 58t-83.5 21h-39v16h38q56 0 80.5 20t24.5 58v9q0 35 -23.5 53.5t-70.5 18.5q-61 0 -91 -26
v-2q12 -5 16.5 -11t4.5 -14q0 -10 -6.5 -16.5t-16.5 -6.5q-11 0 -17.5 6.5t-6.5 18.5q0 10 8.5 22t23.5 22t36.5 16.5t48.5 6.5q54 0 84 -24.5t30 -69.5q0 -38 -21.5 -58.5t-53.5 -28.5v-3q34 -5 58 -28.5t24 -60.5q0 -51 -33.5 -79t-95.5 -28zM640 698h21l-447 -698h-21z
M671 -6q-27 0 -48 6.5t-36 16.5t-23 21.5t-8 21.5q0 25 24 25q9 0 16 -6.5t7 -16.5q0 -17 -21 -25v-2q28 -25 88 -25q54 0 81 25t27 66v14q0 42 -22.5 66t-76.5 24q-34 0 -56 -10.5t-40 -27.5l-18 2l13 199h205v-17h-189l-12 -172h2q16 18 40 30.5t57 12.5q60 0 88.5 -30.5
t28.5 -81.5q0 -54 -33.5 -85t-93.5 -31z" />
  </g>

</svg>
