<?xml version="1.0" standalone="no"?>
<!DOCTYPE svg PUBLIC "-//W3C//DTD SVG 1.1//EN" "http://www.w3.org/Graphics/SVG/1.1/DTD/svg11.dtd" >
<svg xmlns="http://www.w3.org/2000/svg" xmlns:xlink="http://www.w3.org/1999/xlink" version="1.1" viewBox="-76 0 594 1000">
  <g transform="matrix(1 0 0 -1 0 800)">
   <path fill="currentColor"
d="M-51 -3q-6 0 -11.5 2t-1.5 9q4 8 11 11t15 4q25 6 42 13t31.5 19t31.5 29l224 243q14 15 28 31.5t26 35.5q18 2 32 5.5t27.5 10t29.5 16.5q10 6 14.5 6.5t3.5 -5.5l-59 -330q-5 -30 1.5 -47.5t27.5 -25.5q5 -2 10 -5t0 -10q-4 -6 -10.5 -8t-11.5 -2q-18 0 -34 1t-32 1.5
t-33 0.5q-16 0 -32.5 -1t-34.5 -2.5t-38 -1.5q-5 0 -9.5 2.5t-1.5 7.5q3 7 10.5 11t16.5 5q26 6 40.5 15.5t18.5 29.5l12 53h-140l-36 -40q-16 -18 -18.5 -29t7 -17.5t28.5 -10.5q6 -2 9.5 -5.5t0.5 -10.5q-3 -5 -9.5 -7.5t-13.5 -2.5q-19 0 -33.5 1t-26.5 2t-27 0
q-22 0 -39.5 -2t-45.5 -2zM185 157l117 1l32 156q2 8 -0.5 8t-10.5 -8z" />
  </g>

</svg>
