<?xml version="1.0" standalone="no"?>
<!DOCTYPE svg PUBLIC "-//W3C//DTD SVG 1.1//EN" "http://www.w3.org/Graphics/SVG/1.1/DTD/svg11.dtd" >
<svg xmlns="http://www.w3.org/2000/svg" xmlns:xlink="http://www.w3.org/1999/xlink" version="1.1" viewBox="-75 0 815 1000">
  <g transform="matrix(1 0 0 -1 0 800)">
   <path fill="currentColor"
d="M-42 -5q-11 0 -17 3.5t-6 11.5q1 9 9.5 14t20.5 8q23 6 47 15t46.5 23.5t38.5 32.5q69 77 131.5 150.5t123.5 147t123 148.5q16 18 27 35t18 28.5t13 11.5q23 0 41 5.5t33 16.5q16 12 27 20t18 8q9 0 10.5 -14t-2.5 -37l-101 -506q-8 -39 4.5 -58t45.5 -29q13 -4 21 -7.5
t8 -12.5q0 -6 -9.5 -9.5t-21.5 -3.5q-17 0 -42 1t-51.5 2.5t-48.5 1.5q-19 0 -43.5 -1t-48 -2t-41.5 -1q-20 0 -20 14q0 8 8 13.5t19 7.5q28 6 45 13.5t27.5 21t15.5 36.5l31 120q3 12 -3.5 17t-16.5 5l-139 -1q-12 0 -20 -4.5t-14 -12.5l-80 -105q-22 -29 -26 -46.5t7 -27
t32 -15.5q9 -3 17 -8t8 -14q-1 -7 -10 -10.5t-21 -3.5q-24 0 -49.5 1.5t-53.5 1.5q-30 0 -66.5 -3t-64.5 -3zM337 287h116q10 0 14.5 4t7.5 15l47 219q3 9 3 14t-5 5q-2 0 -6.5 -2t-8.5 -7l-181 -228q-8 -10 -8 -15t21 -5zM416 -287q-19 0 -36.5 12t-28.5 30t-11 37
q0 39 18.5 72t48.5 61.5t64 51.5t67 41h36q-34 -24 -63.5 -55.5t-47.5 -66t-18 -70.5q0 -13 8.5 -24t25.5 -11q14 0 31 12.5t29 27.5q2 2 6 5.5t8 5t7 -3.5q3 -1 2 -7.5t-2 -10.5q-6 -18 -20.5 -36.5t-34.5 -34.5t-43 -25.5t-46 -10.5z" />
  </g>

</svg>
