<?xml version="1.0" standalone="no"?>
<!DOCTYPE svg PUBLIC "-//W3C//DTD SVG 1.1//EN" "http://www.w3.org/Graphics/SVG/1.1/DTD/svg11.dtd" >
<svg xmlns="http://www.w3.org/2000/svg" xmlns:xlink="http://www.w3.org/1999/xlink" version="1.1" viewBox="-35 0 524 1000">
  <g transform="matrix(1 0 0 -1 0 800)">
   <path fill="currentColor"
d="M-15 -3q-5 0 -7.5 3.5t-1.5 7.5q2 5 8.5 9.5t13.5 5.5q22 7 34.5 12t18.5 25l89 286q6 20 0.5 29t-26.5 16q-7 2 -11 5t-4 7q0 7 7 10.5t13 3.5q24 0 38 -1.5t26 -3t31 -1.5q16 0 30 1.5t31 3.5t42 2q52 0 85 -12t48 -31.5t15 -44.5q0 -27 -17 -49t-45 -36t-59 -18
q-3 0 -4.5 -2t2.5 -4q38 -6 62 -30t24 -58q0 -47 -31 -77.5t-82 -44.5t-113 -14q-36 0 -62 2t-54 2q-15 0 -34.5 -1t-37 -2t-29.5 -1zM202 37q30 0 54.5 13.5t39.5 36t15 51.5q0 27 -19 45t-53 18q-13 0 -23.5 -4t-15.5 -18l-29 -92q-6 -23 1 -36.5t30 -13.5zM242 233
q58 0 87.5 28.5t29.5 66.5q0 22 -14.5 37t-45.5 15q-21 0 -31 -7t-15 -22l-29 -95q-3 -12 1 -17.5t17 -5.5z" />
  </g>

</svg>
