<?xml version="1.0" standalone="no"?>
<!DOCTYPE svg PUBLIC "-//W3C//DTD SVG 1.1//EN" "http://www.w3.org/Graphics/SVG/1.1/DTD/svg11.dtd" >
<svg xmlns="http://www.w3.org/2000/svg" xmlns:xlink="http://www.w3.org/1999/xlink" version="1.1" viewBox="-10 0 852 1000">
  <g transform="matrix(1 0 0 -1 0 800)">
   <path fill="currentColor"
d="M199 -5q-20 0 -20 12q0 7 8.5 12.5t23.5 8.5q36 10 56 23t30 46l143 457q8 25 6.5 37.5t-17.5 17t-51 4.5t-74 -10.5t-72.5 -29.5t-55 -44.5t-21.5 -54.5q0 -38 14 -52t46 -19q15 -2 23 -12t8 -24q0 -16 -13 -31t-44 -15q-29 0 -51 16.5t-34.5 42.5t-12.5 55
q0 71 51 122.5t155.5 79.5t263.5 28q57 0 106 -7t86 -22.5t58 -42.5t21 -67q0 -33 -16 -60t-42 -48t-58 -34.5t-66 -19.5q-5 -1 -6 -4.5t3 -5.5q58 -20 93.5 -56.5t35.5 -102.5q0 -51 -23.5 -88.5t-65.5 -62t-97.5 -36.5t-119.5 -12q-39 0 -71 2.5t-66 2.5q-21 0 -43.5 -1.5
l-45 -3t-45.5 -1.5zM476 26q32 3 62.5 19.5t55 44t39 60.5t14.5 69q0 53 -30.5 85t-88.5 32q-16 0 -25 -5t-12 -17l-64 -211q-4 -14 -3.5 -29t7.5 -24q8 -9 19 -16.5t26 -7.5zM536 366q23 0 43 5t41 11q40 24 68.5 61.5t28.5 89.5q0 36 -26 64.5t-69 28.5q-20 0 -30.5 -6
t-15.5 -22l-62 -210q-6 -22 22 -22z" />
  </g>

</svg>
