<?xml version="1.0" standalone="no"?>
<!DOCTYPE svg PUBLIC "-//W3C//DTD SVG 1.1//EN" "http://www.w3.org/Graphics/SVG/1.1/DTD/svg11.dtd" >
<svg xmlns="http://www.w3.org/2000/svg" xmlns:xlink="http://www.w3.org/1999/xlink" version="1.1" viewBox="-39 0 504 1000">
  <g transform="matrix(1 0 0 -1 0 800)">
   <path fill="currentColor"
d="M-15 -5q-14 0 -14 8q1 4 6 9t16 6q25 4 37 12t17 28l89 286q6 21 0 29.5t-27 11.5q-15 3 -15 12q1 13 23 13q21 0 34 -1t24 -1.5t28 -0.5q24 0 43.5 1.5t55.5 1.5q64 0 96 -21t31 -58q0 -27 -15 -49t-40 -36t-54 -19q-2 0 -3.5 -3t1.5 -3q29 -3 54 -23.5t25 -58.5
q0 -42 -25.5 -74t-76 -50.5t-123.5 -18.5q-22 0 -44.5 1.5t-47.5 0.5q-16 0 -33 -0.5t-32.5 -1.5t-29.5 -1zM185 26q34 0 58 16t36.5 41.5t12.5 53.5q0 27 -17 47.5t-50 20.5q-15 0 -26 -5.5t-16 -21.5q-9 -28 -17.5 -58t-15.5 -55q-6 -19 4.5 -29t30.5 -10zM223 227
q39 1 65 14.5t38.5 36.5t12.5 50q0 23 -14 40.5t-38 17.5q-20 0 -31 -6.5t-15 -20.5q-8 -26 -17.5 -55t-18.5 -55q-4 -14 3 -18t15 -4z" />
  </g>

</svg>
