<?xml version="1.0" standalone="no"?>
<!DOCTYPE svg PUBLIC "-//W3C//DTD SVG 1.1//EN" "http://www.w3.org/Graphics/SVG/1.1/DTD/svg11.dtd" >
<svg xmlns="http://www.w3.org/2000/svg" xmlns:xlink="http://www.w3.org/1999/xlink" version="1.1" viewBox="-10 0 555 1000">
  <g transform="matrix(1 0 0 -1 0 800)">
   <path fill="currentColor"
d="M297 270q-52 0 -92.5 20.5t-64 57t-23.5 85.5q0 57 23.5 105t65.5 83.5t96 55t115 19.5q20 0 39 -3.5t34.5 -7t23.5 -7.5q21 -7 21 -21q0 -11 -6.5 -36.5t-15.5 -49.5q-2 -6 -5 -10t-11 -4q-10 1 -10 18q1 16 -0.5 28.5t-5.5 19.5q-6 14 -17 23t-29 13q-24 2 -50.5 -14.5
t-47 -48t-26.5 -74.5q-18 -15 -30.5 -34.5t-18.5 -41.5t-4 -44t13 -42q12 -24 34 -36.5t54 -6.5q33 12 59 43q8 9 16.5 18.5t17.5 15.5q7 4 11.5 2t4.5 -6q-3 -18 -8 -32.5t-9 -21.5q-5 -10 -14.5 -21t-15.5 -17q-16 -11 -50.5 -20t-73.5 -8z" />
  </g>

</svg>
