<?xml version="1.0" standalone="no"?>
<!DOCTYPE svg PUBLIC "-//W3C//DTD SVG 1.1//EN" "http://www.w3.org/Graphics/SVG/1.1/DTD/svg11.dtd" >
<svg xmlns="http://www.w3.org/2000/svg" xmlns:xlink="http://www.w3.org/1999/xlink" version="1.1" viewBox="-10 0 727 1000">
  <g transform="matrix(1 0 0 -1 0 800)">
   <path fill="currentColor"
d="M282 -207q-68 0 -118 29.5t-81 82.5t-41 124t3 152q12 96 45 183t88 154.5t131.5 106.5t174.5 39q32 0 57 -5.5t49 -13.5q19 -6 31.5 -10t23.5 -4q6 0 11.5 1.5t12.5 4.5q7 4 13.5 7t12.5 3q10 0 11.5 -6.5t-3.5 -14.5q-12 -16 -26.5 -44t-26.5 -59t-19 -55
q-2 -9 -7.5 -15.5t-13.5 -6.5q-14 0 -14.5 15t-0.5 41q1 19 -4 38t-17 35q-16 24 -39 39.5t-53 15.5q-49 0 -91 -28.5t-76.5 -77.5t-61 -112t-44.5 -133.5t-26 -139.5q-11 -58 -9.5 -109.5t17.5 -90.5t46.5 -61t75.5 -21q40 0 75.5 20t66 54t53.5 79q5 10 10 16t13 6
q6 0 10.5 -8t0.5 -16q-18 -47 -44 -86.5t-59 -68.5t-73 -44.5t-84 -15.5z" />
  </g>

</svg>
