<?xml version="1.0" standalone="no"?>
<!DOCTYPE svg PUBLIC "-//W3C//DTD SVG 1.1//EN" "http://www.w3.org/Graphics/SVG/1.1/DTD/svg11.dtd" >
<svg xmlns="http://www.w3.org/2000/svg" xmlns:xlink="http://www.w3.org/1999/xlink" version="1.1" viewBox="-10 0 747 1000">
  <g transform="matrix(1 0 0 -1 0 800)">
   <path fill="currentColor"
d="M321 -14q-48 0 -94 19t-82 54t-57.5 83t-21.5 105q0 90 34.5 166t94.5 132.5t138.5 87.5t166.5 31q32 0 59.5 -5.5t50.5 -13.5q19 -6 31.5 -10t23.5 -4q6 0 11.5 1.5t12.5 4.5q7 4 14 7t13 3q9 0 10.5 -6.5t-3.5 -14.5q-12 -16 -26.5 -44t-26.5 -59t-19 -55
q-2 -9 -7.5 -15.5t-13.5 -6.5q-10 0 -13.5 12t-2.5 28q3 23 -1 46t-19 43q-16 24 -41 39.5t-55 15.5q-49 0 -94 -24.5t-82 -67t-65 -97.5t-43.5 -116.5t-15.5 -123.5q0 -48 12.5 -81.5t34 -55.5t50 -32t60.5 -10q44 0 79 17.5t65 48t57 69.5q7 10 12.5 17t12.5 7t10.5 -7
t1.5 -17q-4 -17 -14 -45t-23 -55.5t-24.5 -46.5t-17.5 -19q-8 0 -13 3.5t-10 7.5t-12 6.5t-19 2.5q-10 0 -22 -3.5t-28 -8.5q-16 -4 -38.5 -8.5t-50.5 -4.5zM521 697q-11 0 -20 7t-20 19l-74 90q-6 8 -5 14q1 12 19 12q8 0 27 -9t40 -21.5t32 -21.5q6 -5 12.5 -4.5t13.5 4.5
q13 5 36.5 14t49 17.5l45 15t25.5 6.5q15 0 15 -12q0 -9 -9 -16l-133 -89q-19 -13 -30.5 -19.5t-23.5 -6.5z" />
  </g>

</svg>
