<?xml version="1.0" standalone="no"?>
<!DOCTYPE svg PUBLIC "-//W3C//DTD SVG 1.1//EN" "http://www.w3.org/Graphics/SVG/1.1/DTD/svg11.dtd" >
<svg xmlns="http://www.w3.org/2000/svg" xmlns:xlink="http://www.w3.org/1999/xlink" version="1.1" viewBox="-42 0 567 1000">
  <g transform="matrix(1 0 0 -1 0 800)">
   <path fill="currentColor"
d="M-18 -3q-7 0 -10.5 4.5t-2.5 10.5q2 8 10 12t17 6q23 5 38 13t22 31l89 291q8 25 2.5 37t-30.5 18q-8 2 -12 6.5t-2 11.5t9.5 11t13.5 4q15 0 30 -1t30.5 -2t27.5 -1q42 0 90 0.5t86 1.5q28 0 49.5 2.5t30.5 2.5q5 0 10.5 -2.5t2.5 -11.5q-5 -18 -8 -38t-5.5 -37.5
t-6.5 -28.5q-2 -6 -6 -11t-8 -5t-8.5 4.5t-5.5 12.5q-3 22 -6 40t-12 29t-31 11h-68q-12 0 -23.5 -7t-16.5 -22l-38 -126q-3 -11 1 -16t11 -5h57q17 0 29.5 11t27.5 35q6 7 11 10.5t10 3.5t6.5 -4.5t-2.5 -12.5q-7 -18 -12 -32t-10 -29t-8 -24.5t-6 -29.5q-2 -10 -6.5 -16
t-8.5 -6q-7 0 -10 7t-3 14q0 22 -5.5 30.5t-18.5 9.5q-14 1 -31 1h-32q-10 0 -14.5 -4t-7.5 -13l-37 -126q-5 -18 0 -25t21 -7h74q32 1 62.5 24.5t51.5 49.5q5 6 10 10.5t11 4.5t7 -5.5t-1 -11.5q-7 -24 -20.5 -45t-28.5 -48q-5 -7 -12.5 -12t-15.5 -5q-20 0 -49.5 0.5
t-63.5 1t-69 1t-67 0.5q-16 0 -36 -1t-39 -2t-34 -1zM432 531q-21 0 -33.5 14.5t-12.5 35.5q0 22 11.5 40t30 28.5t40.5 10.5t34.5 -14.5t12.5 -35.5q0 -32 -24.5 -55.5t-58.5 -23.5zM243 531q-21 0 -33.5 14.5t-12.5 35.5q0 22 11.5 40t30 28.5t39.5 10.5q23 0 35.5 -14.5
t12.5 -35.5q0 -32 -24.5 -55.5t-58.5 -23.5z" />
  </g>

</svg>
