<?xml version="1.0" standalone="no"?>
<!DOCTYPE svg PUBLIC "-//W3C//DTD SVG 1.1//EN" "http://www.w3.org/Graphics/SVG/1.1/DTD/svg11.dtd" >
<svg xmlns="http://www.w3.org/2000/svg" xmlns:xlink="http://www.w3.org/1999/xlink" version="1.1" viewBox="-57 0 689 1000">
  <g transform="matrix(1 0 0 -1 0 800)">
   <path fill="currentColor"
d="M-28 -5q-11 0 -15 4t-4 10q2 13 31 19q42 10 61 23t29 46l139 453q12 37 1.5 50.5t-47.5 20.5q-13 3 -18 8t-3 11q1 7 10.5 10.5t27.5 3.5q11 0 32.5 -1t46 -2.5t44.5 -1.5l164 1q49 0 76.5 3t41 6t18.5 3q6 0 10.5 -5t4.5 -13q0 -10 -6 -30t-13 -44.5t-8 -48.5
q-1 -10 -6.5 -15t-10.5 -5q-4 0 -8.5 5.5t-5.5 15.5q-2 52 -14.5 74t-51.5 22h-93q-24 0 -38 -12t-24 -47l-54 -180q-5 -15 -1 -21t18 -6l102 2q26 0 43.5 14t31.5 36q6 9 14 16.5t16 7.5q6 0 7.5 -7t-3.5 -18q-9 -20 -16 -38t-13 -35q-6 -18 -10.5 -37t-9.5 -42
q-3 -11 -7.5 -17.5t-9.5 -6.5q-7 0 -11 8.5t-4 16.5q1 31 -7 47t-27 16l-105 1q-13 0 -23 -5.5t-14 -21.5l-51 -177q-12 -43 -1.5 -61t46.5 -18h110q22 0 42.5 7t37.5 19q19 13 35 35.5t32 47.5q5 7 8.5 11t9.5 4t8 -6t2 -16t-8 -33t-19 -48.5t-23 -41.5q-5 -9 -12.5 -12.5
t-17.5 -3.5q-21 0 -53 0.5t-70.5 1t-79 1t-79.5 1t-72 0.5q-21 0 -44 -1t-45 -2.5t-44 -1.5zM454 695q-3 0 -9 1t-15 6q-36 21 -78.5 45.5t-78.5 47.5q-15 11 -17 20q-1 8 12 15.5t29.5 13t23.5 7.5q19 3 31 -11q28 -29 51.5 -59.5t49.5 -59.5q10 -9 10 -18q0 -8 -9 -8z" />
  </g>

</svg>
