<?xml version="1.0" standalone="no"?>
<!DOCTYPE svg PUBLIC "-//W3C//DTD SVG 1.1//EN" "http://www.w3.org/Graphics/SVG/1.1/DTD/svg11.dtd" >
<svg xmlns="http://www.w3.org/2000/svg" xmlns:xlink="http://www.w3.org/1999/xlink" version="1.1" viewBox="-43 0 706 1000">
  <g transform="matrix(1 0 0 -1 0 800)">
   <path fill="currentColor"
d="M237 -175q-43 0 -63.5 13.5t-20.5 31.5q0 23 15 42.5t33 19.5q13 0 23.5 -10.5t17.5 -21.5q9 -15 20 -21.5t22 -6.5q15 0 34 16.5t37.5 47.5t31.5 76l7 13l-8 -50l-173 332q-5 9 -9 15.5t-6 6.5q-4 0 -6 -4.5t-5 -13.5l-61 -217q-9 -31 2 -44t37 -19q10 -1 16 -5.5
t5 -12.5q-1 -7 -9 -10t-15 -3q-15 0 -30.5 0.5t-30.5 0.5h-27q-26 0 -49.5 -2t-40.5 -2q-7 0 -12 3.5t-4 9.5q2 13 27 17q24 4 45 19.5t30 40.5q14 33 30.5 77t35.5 95.5t37 105.5q3 7 5 13.5t2 11.5q0 14 -17.5 22t-39.5 13q-23 6 -22 18q2 6 9.5 8.5t17.5 2.5t33 -0.5
t50.5 -1.5t50.5 -1q8 0 15 -3t10 -9l137 -279q3 -5 6.5 -12t6.5 -7q4 0 6.5 5.5t5.5 13.5l53 199q8 30 -1.5 43t-42.5 22q-9 2 -14 6.5t-4 11.5q1 6 9 9t16 3q26 0 38.5 -0.5t22 -1.5t26.5 -1q15 0 25.5 1t23 1.5t32.5 0.5q21 0 19 -12q-1 -7 -9 -11t-20 -7
q-31 -6 -49.5 -18.5t-27.5 -42.5l-94 -304q-11 -37 -23 -68t-28 -56.5t-40 -49.5q-28 -29 -60 -44.5t-64 -15.5z" />
  </g>

</svg>
