<?xml version="1.0" standalone="no"?>
<!DOCTYPE svg PUBLIC "-//W3C//DTD SVG 1.1//EN" "http://www.w3.org/Graphics/SVG/1.1/DTD/svg11.dtd" >
<svg xmlns="http://www.w3.org/2000/svg" xmlns:xlink="http://www.w3.org/1999/xlink" version="1.1" viewBox="-10 0 756 1000">
  <g transform="matrix(1 0 0 -1 0 800)">
   <path fill="currentColor"
d="M355 -14q-70 0 -127.5 22t-96.5 64.5t-54 103.5t-1 138q10 73 47 136.5t96 111t135 75t163 27.5q34 0 59.5 -6.5t44.5 -13.5q17 -6 28.5 -10t23.5 -4q7 0 13 2t12 5q7 5 13 7.5t13 2.5q10 0 11 -7t-4 -14q-12 -16 -26.5 -43t-26 -56.5t-18.5 -54.5q-2 -10 -7.5 -16.5
t-13.5 -6.5q-21 0 -17 37q3 28 0 52.5t-18 44.5q-14 19 -39.5 33.5t-59.5 14.5q-53 0 -102.5 -26t-90.5 -73.5t-71 -114t-44 -146.5q-10 -55 0.5 -101t36 -80t61.5 -52.5t78 -18.5q41 0 67.5 25t36.5 58l31 110q4 15 1 24t-17 15q-13 5 -29 8.5t-26 5.5q-9 2 -17 6.5
t-7 12.5q1 7 10 11t19 4q22 0 47 -2t48.5 -4t45.5 -2q27 0 52.5 4t62.5 4q19 0 16 -15q-2 -8 -9 -13t-19 -7q-28 -6 -41 -16.5t-23 -30.5q-9 -16 -18 -40t-15 -44t-6 -27q0 -10 4.5 -18.5t12.5 -18.5q-7 -16 -35 -31t-66 -26.5t-76.5 -18.5t-67.5 -7zM532 694
q-44 0 -70.5 16t-38.5 38.5t-12 42.5q0 16 5.5 28t17.5 12q8 0 11.5 -6.5t6.5 -15.5q11 -22 31.5 -32.5t53.5 -10.5q31 0 58 8t51 37q8 10 14.5 15t15.5 5q12 0 12 -20q0 -12 -8 -31.5t-27 -39t-48.5 -33t-72.5 -13.5z" />
  </g>

</svg>
