<?xml version="1.0" standalone="no"?>
<!DOCTYPE svg PUBLIC "-//W3C//DTD SVG 1.1//EN" "http://www.w3.org/Graphics/SVG/1.1/DTD/svg11.dtd" >
<svg xmlns="http://www.w3.org/2000/svg" xmlns:xlink="http://www.w3.org/1999/xlink" version="1.1" viewBox="-79 0 455 1000">
  <g transform="matrix(1 0 0 -1 0 800)">
   <path fill="currentColor"
d="M-16 -2q-6 0 -11 3.5t-3 9.5q2 8 9.5 12t15.5 5q24 5 40 13t23 32l91 294q8 25 1 37t-32 17q-8 2 -12 6.5t-2 12.5q2 7 9 10t14 3q16 0 35.5 -1t38 -2t34.5 -1t36.5 1t42 1.5t37.5 0.5q7 0 11.5 -3t2.5 -9q-2 -7 -9.5 -11t-15.5 -7q-24 -6 -36 -13t-18 -17t-11 -26
l-90 -291q-6 -22 3.5 -31t29.5 -15q7 -2 12.5 -5.5t2.5 -11.5q-1 -7 -8.5 -10t-12.5 -3q-16 0 -36.5 1t-41 1.5t-37.5 0.5t-37 -0.5t-39.5 -2t-36.5 -1.5zM7 -287q-19 0 -36.5 12t-28.5 30t-11 37q0 39 18.5 72t48.5 61.5t64 51.5t67 41h36q-34 -24 -63.5 -55.5t-47.5 -66
t-18 -70.5q0 -13 8.5 -24t25.5 -11q14 0 31 12.5t29 27.5q2 2 6 5.5t8 5t7 -3.5q3 -1 2 -7.5t-2 -10.5q-6 -18 -20.5 -36.5t-34.5 -34.5t-43 -25.5t-46 -10.5z" />
  </g>

</svg>
