<?xml version="1.0" standalone="no"?>
<!DOCTYPE svg PUBLIC "-//W3C//DTD SVG 1.1//EN" "http://www.w3.org/Graphics/SVG/1.1/DTD/svg11.dtd" >
<svg xmlns="http://www.w3.org/2000/svg" xmlns:xlink="http://www.w3.org/1999/xlink" version="1.1" viewBox="-10 0 613 1000">
  <g transform="matrix(1 0 0 -1 0 800)">
   <path fill="currentColor"
d="M106 -4q-9 0 -14 3.5t-4 9.5q3 15 30 20q39 9 59.5 22.5t30.5 45.5l140 454q10 33 1 46.5t-45 22.5q-11 2 -15 7.5t-2 13.5q1 6 9 9.5t17 3.5q23 0 45 -1t43 -2t42 -1q20 0 41.5 1t44.5 2t46 1q20 0 17 -14q-2 -8 -9.5 -12.5t-21.5 -7.5q-27 -6 -44 -14t-27 -21t-16 -35
l-131 -428q-10 -32 -10 -50t11.5 -26t33.5 -14q20 -4 25.5 -9t4.5 -13q-1 -7 -8.5 -10t-16.5 -3q-23 0 -47.5 1t-48 2t-44.5 1q-32 0 -67 -2.5t-70 -2.5zM119 480q-8 0 -9.5 6.5t-0.5 11.5q2 10 12 32.5t23 50.5t25.5 52.5t19.5 37.5q7 11 12 16.5t15 5.5q9 0 20.5 -9
t20 -20t8.5 -19q0 -4 -13.5 -22.5t-33 -43t-38.5 -47t-31 -34.5q-6 -6 -14.5 -12t-15.5 -6z" />
  </g>

</svg>
