<?xml version="1.0" standalone="no"?>
<!DOCTYPE svg PUBLIC "-//W3C//DTD SVG 1.1//EN" "http://www.w3.org/Graphics/SVG/1.1/DTD/svg11.dtd" >
<svg xmlns="http://www.w3.org/2000/svg" xmlns:xlink="http://www.w3.org/1999/xlink" version="1.1" viewBox="-204 0 703 1000">
  <g transform="matrix(1 0 0 -1 0 800)">
   <path fill="currentColor"
d="M-78 -200q-63 0 -89.5 17t-26.5 39q0 26 8.5 43t24.5 17q11 0 25.5 -12.5t31.5 -26.5q16 -14 32.5 -26t32.5 -12q18 0 33 16.5t31 54t35 101.5l166 540q10 33 1.5 47t-44.5 22q-11 2 -15 7.5t-2 13.5q1 6 9 9.5t17 3.5q23 0 45 -1t43 -2t42 -1q18 0 38.5 1t42.5 2t45 1
q19 0 16 -14q-2 -8 -9.5 -12.5t-20.5 -7.5q-27 -6 -42.5 -14t-23.5 -21t-15 -35l-141 -457q-14 -48 -29 -82t-31 -59t-33.5 -44t-36.5 -37q-35 -31 -75 -51t-85 -20zM190 694q-18 0 -16 11q2 8 11 15l129 89q21 15 32 21t22 6q13 0 22 -7t19 -20l75 -89q4 -4 4.5 -7.5
t0.5 -7.5q-2 -12 -18 -12q-8 0 -28.5 9.5t-42.5 22t-36 20.5q-12 7 -26 0q-12 -6 -33 -14.5t-44.5 -17t-43 -14t-27.5 -5.5z" />
  </g>

</svg>
