<?xml version="1.0" standalone="no"?>
<!DOCTYPE svg PUBLIC "-//W3C//DTD SVG 1.1//EN" "http://www.w3.org/Graphics/SVG/1.1/DTD/svg11.dtd" >
<svg xmlns="http://www.w3.org/2000/svg" xmlns:xlink="http://www.w3.org/1999/xlink" version="1.1" viewBox="-73 0 832 1000">
  <g transform="matrix(1 0 0 -1 0 800)">
   <path fill="currentColor"
d="M563 -284q-33 0 -71 20t-77 52t-74.5 67.5t-64.5 67.5q-34 37 -64 72t-58 58t-58 23q-28 -20 -51.5 -41.5t-40.5 -39.5q-11 -11 -26.5 -7.5t-28 16.5t-12.5 30q0 20 21.5 38.5t54.5 30.5t70 13q26 32 45 72.5t35 87.5t31 98q27 79 69.5 136t100 88t127.5 31
q50 0 78 -13.5t40.5 -33t11.5 -40.5q0 -19 -11 -38.5t-30.5 -32t-45.5 -12.5q-9 0 -12 3t-3 10q0 6 8.5 22.5t8.5 41.5q0 22 -10.5 39.5t-36.5 17.5q-29 0 -50 -15t-39 -45t-36 -75.5t-40 -106.5q-16 -45 -39.5 -88.5t-55 -78t-71.5 -56.5q-3 -1 -3 -3.5t3 -4.5
q42 0 80 -21.5t73 -56t68 -71.5q26 -30 56.5 -63.5t62.5 -64t61.5 -49.5t52.5 -19q30 0 50 19t20 47q0 15 -9.5 26.5t-9.5 22.5q0 17 14 29t27 12q23 0 34 -13t11 -38t-13.5 -53t-38.5 -53.5t-59 -41.5t-75 -16z" />
  </g>

</svg>
