<?xml version="1.0" standalone="no"?>
<!DOCTYPE svg PUBLIC "-//W3C//DTD SVG 1.1//EN" "http://www.w3.org/Graphics/SVG/1.1/DTD/svg11.dtd" >
<svg xmlns="http://www.w3.org/2000/svg" xmlns:xlink="http://www.w3.org/1999/xlink" version="1.1" viewBox="-75 0 617 1000">
  <g transform="matrix(1 0 0 -1 0 800)">
   <path fill="currentColor"
d="M322 -158q-13 0 -25.5 12.5t-20.5 27.5q-22 45 -44.5 87.5t-46.5 87t-52 93.5q-5 9 -9.5 6t-6.5 -10q-9 -27 -20.5 -66.5t-24 -81t-22.5 -75.5q-6 -21 2 -31t31 -17q8 -1 13 -4t3 -9q-3 -9 -21 -9t-27 0.5t-16.5 1t-20.5 0.5q-22 0 -34 -1.5t-28 -1.5q-20 0 -16 10
q2 5 8 8.5t15 4.5q13 3 22 12t15.5 20t9.5 19q9 21 23.5 60t31.5 88t33 100q7 24 0.5 38t-19.5 21q-6 5 -11 9t-10 9v6.5t6 5.5t20.5 2h32.5h33q11 0 22 -1.5t17 -4.5q18 -24 34.5 -51t31.5 -50.5t26 -40.5q13 -27 25 -49t23.5 -42t23.5 -43q4 1 11.5 28.5t18.5 71.5
q2 8 5 23t6.5 33t5 35.5t0.5 31.5t-6 21q-1 6 -6 12t-7 11q-3 3 -1 6.5t4 5.5q14 1 22 1.5t15.5 0.5h16.5q18 0 29 0.5t23.5 1t31.5 0.5q8 0 11.5 -3t1.5 -7q-1 -6 -6.5 -8.5t-14.5 -4.5q-24 -5 -36 -12.5t-18 -26.5q-14 -47 -24.5 -79.5t-18.5 -57t-14.5 -44.5t-13 -40.5
t-14 -46.5t-18.5 -63q-5 -18 -13.5 -24.5t-17.5 -6.5z" />
  </g>

</svg>
