<?xml version="1.0" standalone="no"?>
<!DOCTYPE svg PUBLIC "-//W3C//DTD SVG 1.1//EN" "http://www.w3.org/Graphics/SVG/1.1/DTD/svg11.dtd" >
<svg xmlns="http://www.w3.org/2000/svg" xmlns:xlink="http://www.w3.org/1999/xlink" version="1.1" viewBox="-10 0 793 1000">
  <g transform="matrix(1 0 0 -1 0 800)">
   <path fill="currentColor"
d="M177 -4q-9 0 -14 3t-4 10q3 15 30 20q40 8 60 21.5t29 43.5l7 18l27 -12q-88 -1 -143.5 23.5t-81.5 65.5t-26 91q0 58 27.5 110.5t77.5 93.5t116.5 65t143.5 24q3 7 4.5 14.5t1.5 11.5q0 17 -11.5 26.5t-38.5 14.5q-11 3 -15 8t-2 13q1 7 9 10.5t17 3.5q24 0 46 -1
t43 -2.5t41 -1.5t42 1t45 2t45 1q20 0 17 -13q-1 -9 -9 -13.5t-22 -7.5q-41 -10 -58.5 -23t-30.5 -42q116 -7 169.5 -56t53.5 -120q0 -61 -30 -116.5t-84 -97.5t-129 -65.5t-166 -21.5l47 15q-3 -10 -6 -20.5t-3 -19.5q0 -18 12.5 -27t39.5 -17q11 -3 15.5 -7t2.5 -13
q-1 -6 -8 -9.5t-17 -3.5q-23 0 -45.5 1.5t-44.5 2.5t-43 1q-32 0 -67 -2.5t-70 -2.5zM297 142l122 398q-50 -3 -93 -27.5t-75 -62.5t-49.5 -83.5t-17.5 -92.5q0 -53 30.5 -89.5t82.5 -42.5zM414 139q53 2 96 27t73.5 64.5t46.5 85.5t16 90q0 51 -25.5 88.5t-81.5 46.5z" />
  </g>

</svg>
