<?xml version="1.0" standalone="no"?>
<!DOCTYPE svg PUBLIC "-//W3C//DTD SVG 1.1//EN" "http://www.w3.org/Graphics/SVG/1.1/DTD/svg11.dtd" >
<svg xmlns="http://www.w3.org/2000/svg" xmlns:xlink="http://www.w3.org/1999/xlink" version="1.1" viewBox="-32 0 449 1000">
  <g transform="matrix(1 0 0 -1 0 800)">
   <path fill="currentColor"
d="M142 -11q-26 0 -47.5 3t-38.5 10q-11 4 -19 7t-11 3t-7.5 -2t-9.5 -5q-4 -3 -8 -5t-9 -2q-4 0 -9 4.5t-5 9.5t8 20.5t17.5 38t13.5 46.5q2 10 5.5 16t11.5 6q9 0 11 -10t2 -28q0 -34 25.5 -56t65.5 -22q35 0 55.5 18t20.5 45q0 20 -11 39t-46 48q-27 25 -45 43t-27 36.5
t-9 42.5q0 58 46.5 95.5t122.5 37.5q27 0 46 -4.5t33 -9.5q13 -4 21 -7.5t15 -3.5q5 0 10 1.5t10 3.5q4 2 9 4t9 2q7 0 8 -5t-2 -9q-8 -10 -22.5 -39t-22.5 -59q-2 -8 -5.5 -12.5t-10.5 -4.5t-9 6.5t-3 18.5q-2 39 -25 62t-61 23q-31 0 -50.5 -16.5t-19.5 -40.5
q0 -19 12 -39t52 -52q42 -34 59.5 -60t17.5 -60q0 -36 -20.5 -68t-59.5 -51t-94 -19z" />
  </g>

</svg>
