<?xml version="1.0" standalone="no"?>
<!DOCTYPE svg PUBLIC "-//W3C//DTD SVG 1.1//EN" "http://www.w3.org/Graphics/SVG/1.1/DTD/svg11.dtd" >
<svg xmlns="http://www.w3.org/2000/svg" xmlns:xlink="http://www.w3.org/1999/xlink" version="1.1" viewBox="-10 0 1065 1000">
  <g transform="matrix(1 0 0 -1 0 800)">
   <path fill="currentColor"
d="M611 -15q-7 0 -17 5.5t-17.5 15t-7.5 20.5q0 16 3.5 32t10.5 38l135 445q9 28 2.5 44t-24 22t-44.5 6h-94q-15 0 -24.5 -6.5t-17.5 -25.5t-20 -56l-128 -425q-9 -32 3.5 -47t47.5 -24q11 -3 16 -7t4 -12q-2 -7 -9.5 -10t-17.5 -3q-22 0 -46 1t-46.5 2t-42.5 1
q-22 0 -45.5 -1t-48 -2.5t-47.5 -1.5q-9 0 -15 3.5t-5 9.5q2 8 11 12.5t22 7.5q39 8 61 22.5t32 47.5l128 427q16 55 15 71t-17 16h-59q-40 0 -71 -19t-53 -43q-8 -9 -19 -21t-22 -21t-19 -9t-9.5 4t-1.5 11q1 5 4 12.5t9 16.5q23 30 37 57.5t25 59.5q4 11 10.5 17.5
t13.5 6.5q8 0 17 -7t17 -13q7 -5 14.5 -9t24.5 -7t49 -3l311 1q42 0 75.5 8.5t58.5 18.5q21 9 35.5 16t20.5 7q8 0 16 -2.5t8 -12.5q0 -11 -2 -19t-6 -17l-144 -426q-2 -7 1.5 -7t7.5 5q39 60 82.5 108.5t86 76.5t78.5 28q39 0 58.5 -24.5t19.5 -58.5q0 -52 -15 -103.5
t-40.5 -97t-55.5 -81.5q-7 -8 -24 -21t-38.5 -26t-42 -22.5t-32.5 -9.5q-11 0 -23.5 7.5t-21.5 18t-9 17.5q0 5 5 15t12.5 18.5t14.5 8.5q10 0 16 -4.5t13 -11.5q7 -6 14 -11.5t16 -5.5q13 0 27.5 20t27.5 52t24 70t17 75t6 66q0 19 -7 29.5t-22 10.5t-37.5 -21t-48.5 -55.5
t-52.5 -75.5t-50 -81.5t-40.5 -73.5q-19 -35 -34.5 -52.5t-29.5 -17.5z" />
  </g>

</svg>
