<?xml version="1.0" standalone="no"?>
<!DOCTYPE svg PUBLIC "-//W3C//DTD SVG 1.1//EN" "http://www.w3.org/Graphics/SVG/1.1/DTD/svg11.dtd" >
<svg xmlns="http://www.w3.org/2000/svg" xmlns:xlink="http://www.w3.org/1999/xlink" version="1.1" viewBox="-10 0 597 1000">
  <g transform="matrix(1 0 0 -1 0 800)">
   <path fill="currentColor"
d="M218 -13q-54 0 -91 23.5t-50 66t3 96.5l47 154q4 13 5 25.5t-5 21.5t-22 13q-11 2 -14 6t-2 10q1 5 7.5 8t15.5 3q19 0 34.5 -1t28.5 -2t27 -1q23 0 51 1.5t58 1.5q19 0 17 -10q-2 -9 -15 -14t-26 -9q-15 -4 -23 -10.5t-13 -17.5t-11 -30l-48 -154q-11 -38 -3.5 -64.5
t28 -41t49.5 -14.5q49 0 83 32t52 92l40 126q10 33 8 55t-18 27q-13 7 -21.5 11t-7.5 12q1 5 8 8t17 3q17 0 26.5 -0.5t18.5 -1.5t22 -1q19 0 32.5 1.5t33.5 1.5q18 0 16 -11q-2 -12 -25 -17q-25 -7 -36 -19t-19 -36l-50 -156q-27 -84 -84 -136t-144 -52z" />
  </g>

</svg>
