<?xml version="1.0" standalone="no"?>
<!DOCTYPE svg PUBLIC "-//W3C//DTD SVG 1.1//EN" "http://www.w3.org/Graphics/SVG/1.1/DTD/svg11.dtd" >
<svg xmlns="http://www.w3.org/2000/svg" xmlns:xlink="http://www.w3.org/1999/xlink" version="1.1" viewBox="-10 0 855 1000">
  <g transform="matrix(1 0 0 -1 0 800)">
   <path fill="currentColor"
d="M310 -14q-59 0 -104.5 18t-73.5 52.5t-34 84t13 113.5l88 287q10 30 3 51t-27 27q-27 8 -25 22q2 6 12.5 9.5t22.5 3.5q27 0 56.5 -2t57.5 -2q26 0 58.5 1.5t56.5 1.5q26 0 22 -13q-2 -10 -16.5 -14.5t-32.5 -11.5q-17 -6 -34 -25.5t-29 -56.5l-92 -295
q-18 -60 -5.5 -102t46 -64t77.5 -22q61 0 107 30t78.5 79t49.5 106q14 42 26 80t21.5 68t13.5 46q17 60 18 91t-9 46t-28 23q-10 4 -22 8.5t-10 12.5q1 8 10.5 11t22.5 3q20 0 37 -0.5t32.5 -1t31.5 -0.5q17 0 30 0.5t25 1.5t28 1q12 0 18 -2.5t4 -10.5q-3 -13 -35 -21
q-21 -5 -35 -14.5t-25.5 -28.5t-25.5 -56q-23 -65 -43.5 -130t-44.5 -135q-26 -80 -66.5 -141t-100.5 -95t-148 -34zM570 688q-9 0 -10 7t7 20q21 34 42.5 65.5t46.5 63.5q10 14 31 14q7 0 24 -3.5t31 -10t14 -14.5q-1 -10 -16 -22q-34 -27 -73.5 -56.5t-73.5 -53.5
q-8 -6 -14 -8t-9 -2zM418 688q-9 0 -10 7t7 20q21 34 42.5 65.5t46.5 63.5q10 14 31 14q7 0 24 -3.5t31 -10t14 -14.5q-1 -10 -16 -22q-34 -27 -73.5 -56.5t-73.5 -53.5q-8 -6 -14 -8t-9 -2z" />
  </g>

</svg>
