<?xml version="1.0" standalone="no"?>
<!DOCTYPE svg PUBLIC "-//W3C//DTD SVG 1.1//EN" "http://www.w3.org/Graphics/SVG/1.1/DTD/svg11.dtd" >
<svg xmlns="http://www.w3.org/2000/svg" xmlns:xlink="http://www.w3.org/1999/xlink" version="1.1" viewBox="-10 0 659 1000">
  <g transform="matrix(1 0 0 -1 0 800)">
   <path fill="currentColor"
d="M243 -12q-60 0 -102 25.5t-57.5 71t2.5 104.5l52 168q5 15 6 28.5t-5.5 23.5t-25.5 14q-11 3 -15 7.5t-2 9.5q1 6 8.5 9.5t16.5 3.5q22 0 39 -1t32 -2t30 -1q18 0 36.5 1t39.5 1.5t44 0.5q20 0 19 -12q-3 -9 -17 -14t-29 -10q-17 -4 -26.5 -11.5t-14.5 -20t-12 -32.5
l-53 -169q-12 -40 -3 -69.5t34 -45.5t56 -16q55 0 96.5 35t61.5 102l40 138q10 36 8.5 59.5t-19.5 29.5q-16 7 -25 11.5t-8 12.5q1 6 8.5 9.5t19.5 3.5q18 0 28.5 -0.5t19.5 -1.5t23 -1q15 0 25 1t20.5 1.5t25.5 0.5q10 0 14.5 -2.5t3.5 -10.5q-2 -12 -28 -17
q-28 -8 -40.5 -21.5t-20.5 -39.5l-55 -171q-29 -93 -91.5 -148t-159.5 -55zM307 529q-5 0 -12 6t-7 12q0 5 11 20.5t27 34.5t31 32.5t22 13.5q13 0 25.5 -2.5t36.5 -4.5q21 -1 37 -2.5t27 -1.5q19 0 35 18q11 11 15.5 17.5t8.5 6.5q6 0 13.5 -6t7.5 -12q0 -4 -6 -11t-14 -17
q-11 -14 -22 -30.5t-21 -30.5q-6 -8 -15.5 -11t-14.5 -3q-8 0 -25 1.5t-38 3t-41.5 3t-33.5 1.5q-11 0 -19 -9q-11 -13 -17.5 -21t-10.5 -8z" />
  </g>

</svg>
