<?xml version="1.0" standalone="no"?>
<!DOCTYPE svg PUBLIC "-//W3C//DTD SVG 1.1//EN" "http://www.w3.org/Graphics/SVG/1.1/DTD/svg11.dtd" >
<svg xmlns="http://www.w3.org/2000/svg" xmlns:xlink="http://www.w3.org/1999/xlink" version="1.1" viewBox="-10 0 545 1000">
  <g transform="matrix(1 0 0 -1 0 800)">
   <path fill="currentColor"
d="M96 -12q-17 0 -21.5 18t2.5 52q17 84 26.5 156.5t15.5 132.5q1 18 -3.5 27.5t-22.5 13.5q-10 3 -15 5.5t-5 8.5q0 4 5.5 6.5t14.5 2.5q11 0 27 -1t33 -1.5t29 -0.5t28.5 0.5l33 1t26.5 0.5q7 0 10.5 -2t3.5 -6q-1 -6 -7.5 -9t-13.5 -5q-21 -3 -30 -11t-13 -29l-44 -231
q-1 -10 3 -10q1 0 3.5 2.5t6.5 8.5l159 181q27 29 35 47.5t3 28t-17 12.5q-7 2 -11.5 5.5t-2.5 7.5q1 4 7 6t13 2q15 0 34 -0.5t36 -0.5q19 0 33 1.5t30 1.5q8 0 12.5 -2t4.5 -6q0 -6 -7 -9.5t-16 -5.5q-18 -4 -36 -16.5t-35 -31.5l-240 -264q-10 -12 -24.5 -27t-29 -29
t-25.5 -22.5t-16 -8.5z" />
  </g>

</svg>
