<?xml version="1.0" standalone="no"?>
<!DOCTYPE svg PUBLIC "-//W3C//DTD SVG 1.1//EN" "http://www.w3.org/Graphics/SVG/1.1/DTD/svg11.dtd" >
<svg xmlns="http://www.w3.org/2000/svg" xmlns:xlink="http://www.w3.org/1999/xlink" version="1.1" viewBox="-10 0 797 1000">
  <g transform="matrix(1 0 0 -1 0 800)">
   <path fill="currentColor"
d="M121 -6q-13 0 -18.5 4t-4.5 11q1 8 11.5 12.5t23.5 7.5q40 7 62.5 27t31.5 53l46 147q9 25 8.5 46t-7.5 46l-59 203q-8 27 -20 43.5t-33 21.5q-17 5 -24 10.5t-5 13.5q1 7 10.5 10.5t18.5 3.5q35 0 67 -2.5t72 -2.5q26 0 52 2.5t53 2.5q10 0 16.5 -3.5t5.5 -10.5
q-1 -8 -11.5 -13t-23.5 -8q-40 -7 -50.5 -21.5t-2.5 -46.5l42 -175q5 -17 8.5 -23t7.5 -6q5 0 12 6t16 17q34 39 65.5 80t66.5 84q30 36 28.5 57t-38.5 28q-10 2 -17.5 7.5t-6.5 13.5q1 7 11 10t21 3q22 0 43 -2t46 -2q30 0 56 3t50 3q12 0 19 -3t6 -11q-2 -9 -12 -12.5
t-21 -7.5q-20 -5 -43 -17t-42.5 -26.5t-32.5 -29.5q-28 -31 -58 -65t-59 -67t-55 -61q-20 -21 -32 -44t-21 -53l-45 -148q-11 -37 -0.5 -54.5t44.5 -26.5q13 -3 19 -7t5 -13q-1 -6 -10 -10t-21 -4q-23 0 -45.5 2t-45 3.5t-42.5 1.5q-21 0 -44.5 -1.5t-47 -4t-46.5 -2.5z" />
  </g>

</svg>
