<?xml version="1.0" standalone="no"?>
<!DOCTYPE svg PUBLIC "-//W3C//DTD SVG 1.1//EN" "http://www.w3.org/Graphics/SVG/1.1/DTD/svg11.dtd" >
<svg xmlns="http://www.w3.org/2000/svg" xmlns:xlink="http://www.w3.org/1999/xlink" version="1.1" viewBox="-10 0 1006 1000">
  <g transform="matrix(1 0 0 -1 0 800)">
   <path fill="currentColor"
d="M330 480q8 0 8 -10q0 -3 -1 -5.5t-3 -5.5q-11 -19 -22 -36.5t-22 -33.5h658q9 0 12.5 -5t3.5 -9q-2 -7 -5.5 -16.5t-9.5 -16.5t-15 -7h-683q-8 -10 -16.5 -20t-15.5 -17q-10 -8 0 -17q7 -7 14 -15l14 -16h701q9 0 12.5 -5t3.5 -9q-2 -6 -5.5 -16t-9.5 -17t-15 -7h-649
q12 -18 24 -39t25 -43q4 -9 3 -15t-8 -6q-9 0 -18.5 6t-13.5 11q-26 25 -48.5 45.5t-45.5 38.5t-51 36.5t-67 40.5q-18 9 -18 19q0 6 3.5 9.5t13.5 8.5q36 19 64.5 35.5t52.5 35t47 38.5t50 46q4 4 13.5 10.5t18.5 6.5z" />
  </g>

</svg>
