<?xml version="1.0" standalone="no"?>
<!DOCTYPE svg PUBLIC "-//W3C//DTD SVG 1.1//EN" "http://www.w3.org/Graphics/SVG/1.1/DTD/svg11.dtd" >
<svg xmlns="http://www.w3.org/2000/svg" xmlns:xlink="http://www.w3.org/1999/xlink" version="1.1" viewBox="-70 0 561 1000">
  <g transform="matrix(1 0 0 -1 0 800)">
   <path fill="currentColor"
d="M-15 -285q-23 0 -33.5 18t-11 48t6.5 67.5t19 75.5q34 114 62 206t53 171.5t47 155.5q24 80 56 135t72 84t87 28q33 0 61 -20t44.5 -51t16.5 -65q0 -32 -9.5 -64.5t-26.5 -65t-37.5 -61.5t-42.5 -53q40 -24 64.5 -62t24.5 -87q0 -35 -14 -69t-39.5 -61t-60.5 -43t-76 -16
q-30 0 -56.5 16t-48.5 38l-39 39q-6 6 -11 10.5t-8 4.5q-5 0 -11 -6.5t-8 -14.5l-39 -125q-5 -16 -7 -33t-2 -31q0 -25 8.5 -48t14.5 -38q4 -10 7.5 -19t3.5 -15q-1 -12 -13 -23t-27 -18.5t-27 -7.5zM203 77q28 0 58 10t55.5 29.5t40.5 47t15 60.5q0 24 -12.5 44t-28.5 30
q-15 -14 -33 -32.5t-36 -32.5t-32 -14q-9 0 -20 8t-19 21t-8 27q0 27 24 43t67 27q37 23 70 58t54.5 73.5t21.5 69.5q0 30 -17.5 49.5t-42.5 19.5q-35 0 -65.5 -17.5t-56.5 -56t-47 -102.5l-85 -259q-2 -8 -3 -16t-1 -15q0 -17 12.5 -33.5t35 -27.5t53.5 -11z" />
  </g>

</svg>
