<?xml version="1.0" standalone="no"?>
<!DOCTYPE svg PUBLIC "-//W3C//DTD SVG 1.1//EN" "http://www.w3.org/Graphics/SVG/1.1/DTD/svg11.dtd" >
<svg xmlns="http://www.w3.org/2000/svg" xmlns:xlink="http://www.w3.org/1999/xlink" version="1.1" viewBox="-10 0 467 1000">
  <g transform="matrix(1 0 0 -1 0 800)">
   <path fill="currentColor"
d="M274 350q-34 0 -65 8t-46.5 26t-4.5 45q8 22 18.5 52t17.5 55q7 20 4.5 30.5t-11 16t-20.5 10.5q-6 3 -10.5 5.5t-4.5 9.5q0 6 8.5 10.5t14.5 7.5l27.5 11t22 15.5t15.5 30.5q7 25 14.5 54t14.5 53q6 28 32.5 45.5t62 26t70.5 8.5q13 0 13 -10q0 -7 -10 -11.5t-18 -5.5
q-29 -2 -50 -13t-29 -41q-3 -10 -7 -27.5t-8.5 -35.5t-8.5 -33q-7 -21 -24 -38.5t-39 -29.5t-44 -14q-4 0 1 -3q19 -4 34 -15.5t21 -29.5t-2 -42q-3 -10 -9.5 -28t-13 -35.5t-9.5 -27.5q-9 -29 2.5 -40t40.5 -15q9 -1 15 -3.5t6 -9.5q0 -6 -7 -9t-14 -3z" />
  </g>

</svg>
