<?xml version="1.0" standalone="no"?>
<!DOCTYPE svg PUBLIC "-//W3C//DTD SVG 1.1//EN" "http://www.w3.org/Graphics/SVG/1.1/DTD/svg11.dtd" >
<svg xmlns="http://www.w3.org/2000/svg" xmlns:xlink="http://www.w3.org/1999/xlink" version="1.1" viewBox="-93 0 468 1000">
  <g transform="matrix(1 0 0 -1 0 800)">
   <path fill="currentColor"
d="M133 503q52 0 93 -13t60 -37t7 -59q-5 -14 -14.5 -32.5t-20 -39t-17.5 -39.5q-9 -22 -3.5 -36t23 -22t43.5 -14q8 -2 15 -7.5t5 -11.5t-11.5 -12t-21.5 -10q-25 -6 -48 -12.5t-39.5 -19.5t-20.5 -38q-5 -30 -9 -57.5t-9 -58.5q-6 -38 -40.5 -61t-84.5 -33.5t-101 -10.5
q-13 0 -18 4.5t-2 13.5q2 7 15.5 11.5t24.5 6.5q50 7 80 22t37 59q5 27 7 50.5t5 48.5q2 26 22.5 47t54.5 34t78 14q4 0 2.5 1t-3.5 1q-60 13 -84.5 39t-9.5 64q6 16 15 34.5t17.5 38t14.5 36.5q10 34 -5 47.5t-60 18.5q-10 1 -18.5 6t-7.5 12q1 6 9 10.5t20 4.5z" />
  </g>

</svg>
