<?xml version="1.0" standalone="no"?>
<!DOCTYPE svg PUBLIC "-//W3C//DTD SVG 1.1//EN" "http://www.w3.org/Graphics/SVG/1.1/DTD/svg11.dtd" >
<svg xmlns="http://www.w3.org/2000/svg" xmlns:xlink="http://www.w3.org/1999/xlink" version="1.1" viewBox="-10 0 519 1000">
  <g transform="matrix(1 0 0 -1 0 800)">
   <path fill="currentColor"
d="M230 -11q-50 0 -94 22t-71 61t-27 90q0 61 26 110t70 83.5t99.5 53.5t115.5 19q23 0 40.5 -4t30.5 -9q14 -4 22 -6.5t14 -2.5q4 0 8 1.5t8 2.5q5 3 9.5 5.5t8.5 2.5q9 0 9 -6t-2 -11q-13 -16 -26.5 -47t-21.5 -53q-1 -8 -7 -14t-14 -6t-10.5 7.5t-1.5 18.5q2 17 0.5 33
t-9.5 27q-9 12 -23.5 21.5t-33.5 9.5q-42 0 -77 -23t-61 -60t-40 -80.5t-14 -84.5q0 -40 17.5 -69t43.5 -44.5t54 -15.5q32 0 59 23.5t45 56.5q5 8 9.5 12.5t7.5 4.5q5 0 8.5 -4.5t2.5 -12.5q-3 -12 -9.5 -30t-14 -36.5t-15 -31t-11.5 -13.5q-5 0 -8.5 2.5t-6.5 4.5
q-4 3 -8.5 4.5t-11.5 1.5q-5 0 -12 -1.5t-17 -4.5t-26 -5.5t-35 -2.5z" />
  </g>

</svg>
