<?xml version="1.0" standalone="no"?>
<!DOCTYPE svg PUBLIC "-//W3C//DTD SVG 1.1//EN" "http://www.w3.org/Graphics/SVG/1.1/DTD/svg11.dtd" >
<svg xmlns="http://www.w3.org/2000/svg" xmlns:xlink="http://www.w3.org/1999/xlink" version="1.1" viewBox="-10 0 881 1000">
  <g transform="matrix(1 0 0 -1 0 800)">
   <path fill="currentColor"
d="M426 -16q-7 0 -16.5 5.5t-17 15t-7.5 20.5q0 16 3 32t10 38l142 472q-27 1 -51 4.5t-50.5 6.5t-65.5 3q-51 0 -72.5 -20.5t-21.5 -64.5q0 -17 3 -32t7 -31t7 -37l-18 -20q-19 37 -33 72.5t-14 71.5q0 56 32.5 93t93.5 37q38 0 70.5 -9t65 -19t66.5 -10q12 30 38.5 50
t61.5 20q27 0 38 -11.5t11 -28.5q0 -11 -8.5 -24.5t-23 -26t-35.5 -21.5l-118 -351q-2 -7 2 -7t7 5q41 59 84 107.5t85.5 77t78.5 28.5q38 0 58 -24.5t20 -58.5q0 -52 -15.5 -103.5t-40.5 -97.5t-56 -81q-7 -8 -24 -21t-38.5 -26.5t-42 -22.5t-32.5 -9q-11 0 -23.5 7.5
t-21 17.5t-8.5 18q0 5 4.5 15t12 18.5t15.5 8.5q10 0 16 -5t12 -11q7 -6 14.5 -11.5t16.5 -5.5q12 0 26.5 19.5t28 52t24 70.5t17 75t6.5 66q0 19 -7.5 29.5t-22.5 10.5t-37.5 -21t-48.5 -55.5t-52 -75.5t-50 -81.5t-41 -73.5q-19 -36 -34.5 -53t-29.5 -17zM129 -14
q-31 0 -58 16.5t-43.5 45t-16.5 63.5q1 45 14 90t36.5 85.5t56 72t73.5 50t88 18.5q35 0 55.5 -14.5t20.5 -36.5q0 -18 -12 -36t-25 -18q-8 0 -14 6.5t-15 21.5q-8 16 -19.5 27.5t-25.5 11.5q-23 0 -45 -22.5t-40.5 -58t-30 -78t-11.5 -81.5q-1 -36 16 -53.5t47 -17.5
q28 0 50 12.5t40 32.5q5 6 9.5 9t9.5 3q9 0 9 -11q0 -19 -14.5 -43t-39.5 -46t-55 -35.5t-60 -13.5z" />
  </g>

</svg>
