<?xml version="1.0" standalone="no"?>
<!DOCTYPE svg PUBLIC "-//W3C//DTD SVG 1.1//EN" "http://www.w3.org/Graphics/SVG/1.1/DTD/svg11.dtd" >
<svg xmlns="http://www.w3.org/2000/svg" xmlns:xlink="http://www.w3.org/1999/xlink" version="1.1" viewBox="-10 0 744 1000">
  <g transform="matrix(1 0 0 -1 0 800)">
   <path fill="currentColor"
d="M273 376q-20 37 -34 72.5t-14 71.5q0 56 32.5 93t94.5 37q37 0 76.5 -9t77.5 -19t71 -10q13 30 38 50t60 20q27 0 38 -11.5t11 -28.5t-18.5 -39.5t-51.5 -34.5l-52 -155l-92 5l53 149q-43 0 -90 7t-105 7q-52 0 -73 -20.5t-21 -64.5q0 -17 2.5 -32t6.5 -31t8 -37z
M129 -14q-31 0 -58 16.5t-43.5 45t-16.5 63.5q1 45 14 90t36.5 85.5t56 72t73.5 50t88 18.5q35 0 55.5 -14.5t20.5 -36.5q0 -18 -11.5 -32.5t-25.5 -14.5q-8 0 -14.5 6.5t-16.5 20.5q-9 13 -20.5 21.5t-22.5 8.5q-23 0 -45 -22t-40.5 -57t-30 -77t-11.5 -81q-1 -36 16 -53.5
t47 -17.5q28 0 50 12.5t40 32.5q5 6 9.5 9t9.5 3q9 0 9 -11q0 -19 -14.5 -43t-39.5 -46t-55 -35.5t-60 -13.5zM427 -14q-13 0 -25.5 9t-21 21.5t-8.5 21.5q0 11 3 20.5t9 25.5l95 258q4 13 0 17.5t-11 4.5l-45 2q-16 1 -19.5 7t-3.5 11q0 2 6 9.5t16 14t22 6.5h44
q14 0 18.5 4.5t11.5 18.5l27 54q6 13 19 26t27 22t23 9q14 0 16.5 -13t-1.5 -27l-23 -75q-3 -12 1 -15.5t14 -3.5q15 0 32.5 -2t33.5 -4q21 -3 25 -7.5t4 -11.5q0 -2 -5 -8.5t-20 -7.5q-16 -1 -31.5 -2.5t-35.5 -2.5q-18 -1 -26.5 -5t-11.5 -14l-79 -219q-7 -18 -7 -28
t5 -13.5t12 -3.5q13 0 31 12.5t36 28t30 27.5q5 5 9.5 5.5t4.5 -2.5q4 -3 3.5 -9.5t-3.5 -14.5q-7 -16 -23.5 -35t-39 -39t-47.5 -36t-48.5 -26t-42.5 -10z" />
  </g>

</svg>
