<?xml version="1.0" standalone="no"?>
<!DOCTYPE svg PUBLIC "-//W3C//DTD SVG 1.1//EN" "http://www.w3.org/Graphics/SVG/1.1/DTD/svg11.dtd" >
<svg xmlns="http://www.w3.org/2000/svg" xmlns:xlink="http://www.w3.org/1999/xlink" version="1.1" viewBox="-72 0 309 1000">
  <g transform="matrix(1 0 0 -1 0 800)">
   <path fill="currentColor"
d="M-41 -149q-10 0 -16 3t-4 10q2 6 9.5 10.5t18.5 7.5q28 10 50.5 25.5t35 35.5t12.5 40q0 15 -9.5 22.5t-20.5 12.5t-20 13.5t-9 23.5q0 27 21 45.5t50 18.5q32 0 54.5 -20.5t22.5 -58.5q0 -35 -17 -69t-46 -61t-63.5 -43t-68.5 -16z" />
  </g>

</svg>
