<?xml version="1.0" standalone="no"?>
<!DOCTYPE svg PUBLIC "-//W3C//DTD SVG 1.1//EN" "http://www.w3.org/Graphics/SVG/1.1/DTD/svg11.dtd" >
<svg xmlns="http://www.w3.org/2000/svg" xmlns:xlink="http://www.w3.org/1999/xlink" version="1.1" viewBox="-10 0 703 1000">
  <g transform="matrix(1 0 0 -1 0 800)">
   <path fill="currentColor"
d="M374 19q-64 0 -119.5 24t-98 66.5t-66 98t-23.5 119.5t24 119.5t66 98t98 66.5t120 24t119.5 -24t98 -66.5t66.5 -98t24 -119.5t-24 -119.5t-67 -98t-98.5 -66.5t-119.5 -24zM388 143q-53 0 -98 24.5t-72 65.5t-27 91t28.5 90.5t76.5 65t109 24.5q24 0 50 -5.5t44 -13.5
q7 -2 10 -4.5t5 -10.5q3 -18 3 -35.5v-33.5q0 -7 -5 -12t-11 -4q-5 0 -9.5 4t-6.5 11q-4 11 -8.5 20t-14.5 18t-25.5 15.5t-37.5 6.5q-50 0 -76.5 -38t-26.5 -91q0 -40 11 -73t34 -52.5t60 -19.5q33 0 54.5 12t35.5 43q4 8 9.5 11.5t10.5 2.5q10 -2 10 -17t-3.5 -29
t-9.5 -30q-4 -8 -6 -9l-10 -5q-18 -8 -45.5 -15t-58.5 -7zM374 63q54 0 101 21t82 57.5t55 84t20 101.5q0 53 -20 100t-55.5 82t-82 55.5t-99.5 20.5t-100 -20.5t-82.5 -55.5t-55.5 -82t-20 -100q0 -54 20 -101.5t55 -84t81.5 -57.5t100.5 -21z" />
  </g>

</svg>
