<?xml version="1.0" standalone="no"?>
<!DOCTYPE svg PUBLIC "-//W3C//DTD SVG 1.1//EN" "http://www.w3.org/Graphics/SVG/1.1/DTD/svg11.dtd" >
<svg xmlns="http://www.w3.org/2000/svg" xmlns:xlink="http://www.w3.org/1999/xlink" version="1.1" viewBox="-10 0 475 1000">
  <g transform="matrix(1 0 0 -1 0 800)">
   <path fill="currentColor"
d="M126 -15q-25 0 -52.5 16.5t-46 43t-18.5 56.5q0 58 22 116t60 105t86 76t99 29q50 0 74 -19.5t24 -48.5q0 -33 -21.5 -57t-56 -41t-76 -28t-79.5 -19q-5 -1 -7.5 -2.5t-4.5 -6.5q-4 -13 -7 -27t-4 -27q-1 -35 16.5 -58.5t51.5 -23.5q31 0 55 15.5t44 37.5q11 11 18 11
q9 0 9 -10q0 -3 -0.5 -6.5t-2.5 -5.5q-19 -35 -46 -64t-61 -45.5t-76 -16.5zM148 245q17 4 41 11.5t46.5 21.5t37.5 34.5t16 49.5q1 12 -6 22t-21 10q-19 0 -39 -14t-37.5 -35.5t-29.5 -46.5t-15 -47q-1 -7 7 -6zM284 468q-9 0 -13 9t-10 28q-4 16 -8.5 35.5l-9 39t-8 36
t-5.5 27.5q-2 13 2 23.5t14 10.5q13 0 25 -27q6 -13 16 -34.5t21 -42.5q4 -7 11 0q23 21 47 42.5t40 35.5q13 12 23 19t16 7q10 0 10 -11q0 -5 -3 -11.5t-8 -14.5q-14 -17 -33.5 -40.5t-39.5 -47.5t-36 -43q-16 -17 -29 -29t-22 -12z" />
  </g>

</svg>
