<?xml version="1.0" standalone="no"?>
<!DOCTYPE svg PUBLIC "-//W3C//DTD SVG 1.1//EN" "http://www.w3.org/Graphics/SVG/1.1/DTD/svg11.dtd" >
<svg xmlns="http://www.w3.org/2000/svg" xmlns:xlink="http://www.w3.org/1999/xlink" version="1.1" viewBox="-10 0 452 1000">
  <g transform="matrix(1 0 0 -1 0 800)">
   <path fill="currentColor"
d="M151 -30q-50 0 -81.5 16t-46.5 40.5t-15 48.5q0 32 20.5 56t54.5 43.5t74 38.5q8 4 7 6t-7 7q-28 25 -46 49t-18 52q0 32 18 57.5t48 43.5t66.5 27.5t73.5 9.5q38 0 68 -10t47 -29t16 -48q0 -22 -12 -39t-30 -30t-37 -23q-12 -7 -22.5 -13t-26.5 -16q-11 -6 -11.5 -9
t5.5 -8q37 -27 55.5 -53t18.5 -52q0 -37 -21.5 -67t-55.5 -52t-72 -34t-70 -12zM159 7q25 0 47.5 12.5t37 34.5t13.5 47q0 26 -17.5 48t-37.5 37q-8 6 -10.5 7.5t-13.5 -4.5q-35 -18 -58.5 -48.5t-23.5 -68.5q0 -27 15.5 -46t47.5 -19zM251 275q8 -8 17 1q33 25 53 54.5
t21 56.5q0 19 -14 35t-39 16q-39 0 -63.5 -24t-24.5 -61q0 -21 13 -39t37 -39z" />
  </g>

</svg>
