<?xml version="1.0" standalone="no"?>
<!DOCTYPE svg PUBLIC "-//W3C//DTD SVG 1.1//EN" "http://www.w3.org/Graphics/SVG/1.1/DTD/svg11.dtd" >
<svg xmlns="http://www.w3.org/2000/svg" xmlns:xlink="http://www.w3.org/1999/xlink" version="1.1" viewBox="-10 0 532 1000">
  <g transform="matrix(1 0 0 -1 0 800)">
   <path fill="currentColor"
d="M100 -290q-46 0 -67.5 16t-21.5 35q2 14 10 25.5t19 19t19 7.5q14 0 23.5 -9.5t18.5 -19.5q8 -10 18.5 -17.5t25.5 -7.5q26 0 43.5 32t37.5 82q13 29 31.5 74.5t39.5 98t41 104.5t37.5 96.5t27.5 73.5q10 26 7.5 37.5t-15.5 11.5q-12 1 -27 -12.5t-32.5 -35.5t-37.5 -48
q-10 -13 -27 -39.5t-37.5 -60.5t-41 -69t-37.5 -66q-13 -24 -26.5 -38.5t-27.5 -14.5q-11 0 -24.5 10.5t-21.5 27t-1 34.5l103 262q6 16 5.5 24t-10.5 8q-12 0 -33.5 -6t-44.5 -35q-4 -5 -11 -4.5t-8 9.5q0 7 5.5 18t13.5 22.5t13 17.5q21 23 51 38t73 16q20 0 32.5 -10.5
t17 -25t-1.5 -27.5l-63 -158q-3 -7 4 -8t11 5q37 65 75.5 115.5t77.5 79.5t76 29q39 0 54.5 -20t13.5 -53.5t-18 -74.5l-143 -363q-13 -41 -43.5 -78.5t-68.5 -66t-73.5 -45t-61.5 -16.5z" />
  </g>

</svg>
