<?xml version="1.0" standalone="no"?>
<!DOCTYPE svg PUBLIC "-//W3C//DTD SVG 1.1//EN" "http://www.w3.org/Graphics/SVG/1.1/DTD/svg11.dtd" >
<svg xmlns="http://www.w3.org/2000/svg" xmlns:xlink="http://www.w3.org/1999/xlink" version="1.1" viewBox="-10 0 363 1000">
  <g transform="matrix(1 0 0 -1 0 800)">
   <path fill="currentColor"
d="M110 -14q-25 0 -50 12.5t-41 32.5t-16 43q0 26 12.5 47.5t31.5 38.5t39 28q8 4 10 10t-4 10q-14 9 -25 20.5t-11 27.5q0 34 19 65t52 54.5t73.5 37.5t82.5 14q25 0 42.5 -9t17.5 -24q0 -13 -7 -26.5t-18 -23t-21 -9.5q-9 0 -21.5 1.5t-23.5 1.5q-39 -1 -70 -15.5t-49 -35
t-18 -40.5q0 -11 5.5 -17.5t13.5 -6.5q14 10 39.5 22.5t52.5 21.5t43 9q12 0 21 -8.5t9 -16.5q0 -14 -11 -32t-26.5 -30.5t-28.5 -12.5q-21 0 -45 1t-43 3q-17 -5 -32.5 -16t-25.5 -23t-10 -23q0 -15 14 -26t44 -11q26 0 52 8t47.5 18t36 18t17.5 8q12 0 12 -14
q0 -17 -14.5 -39.5t-40.5 -44t-60 -35.5t-75 -14z" />
  </g>

</svg>
