<?xml version="1.0" standalone="no"?>
<!DOCTYPE svg PUBLIC "-//W3C//DTD SVG 1.1//EN" "http://www.w3.org/Graphics/SVG/1.1/DTD/svg11.dtd" >
<svg xmlns="http://www.w3.org/2000/svg" xmlns:xlink="http://www.w3.org/1999/xlink" version="1.1" viewBox="-10 0 545 1000">
  <g transform="matrix(1 0 0 -1 0 800)">
   <path fill="currentColor"
d="M65.2383 315q-5.15039 0 -9.01367 4.5q-3.8623 4.5 -3.8623 8.5q0 5 1.7168 15t6.86719 18t13.7344 8h421.474q6.00879 0 11.1592 -3.5t5.15039 -9.5q0 -11 -8.58398 -26t-18.8848 -15h-419.757zM65.2383 138q-5.15039 0 -9.01367 4q-3.8623 4 -3.8623 8q0 6 1.7168 16
t6.86719 18t13.7344 8h421.474q6.00879 0 11.1592 -4t5.15039 -10q0 -12 -8.58398 -26t-18.8848 -14h-419.757z" />
  </g>

</svg>
