<?xml version="1.0" standalone="no"?>
<!DOCTYPE svg PUBLIC "-//W3C//DTD SVG 1.1//EN" "http://www.w3.org/Graphics/SVG/1.1/DTD/svg11.dtd" >
<svg xmlns="http://www.w3.org/2000/svg" xmlns:xlink="http://www.w3.org/1999/xlink" version="1.1" viewBox="-91 0 436 1000">
  <g transform="matrix(1 0 0 -1 0 800)">
   <path fill="currentColor"
d="M-70 -133q-2 0 -6.5 2.5t-4.5 6.5q1 6 8 9.5t12 4.5q12 4 20.5 8t12.5 16l54 173q-9 0 -17.5 0.5t-15.5 0.5q-5 2 -5 10q0 17 9 18q11 3 20.5 5t20.5 7l3 12q16 48 42 80.5t58 51.5t63 27.5t56 8.5t42 -5.5t26 -16.5q4 -5 5.5 -10t-0.5 -11q-6 -15 -20.5 -27.5
t-23.5 -12.5q-7 0 -11 6t-8 13q-6 11 -15 20.5t-27 9.5q-26 0 -49 -23t-39 -72l-12 -38q-1 -8 1.5 -10.5t10.5 -2.5h65q1 0 2 -1.5t0 -4.5q-1 -9 -8 -20t-11 -11h-47q-19 0 -25 -5.5t-8 -10.5l-49 -159q-4 -13 4.5 -17.5t21.5 -8.5q5 -1 8 -4.5t1 -8.5q-1 -4 -7 -7t-8 -3
q-18 0 -39 1t-38 1q-16 0 -35 -1t-37 -1z" />
  </g>

</svg>
