<?xml version="1.0" standalone="no"?>
<!DOCTYPE svg PUBLIC "-//W3C//DTD SVG 1.1//EN" "http://www.w3.org/Graphics/SVG/1.1/DTD/svg11.dtd" >
<svg xmlns="http://www.w3.org/2000/svg" xmlns:xlink="http://www.w3.org/1999/xlink" version="1.1" viewBox="-208 0 1361 1000">
  <g transform="matrix(1 0 0 -1 0 800)">
   <path fill="currentColor"
d="M181 -291q-38 0 -70 12t-51 32t-21 44l53 73q15 -60 41 -85.5t62 -25.5q52 0 82.5 36t49.5 101l155 557q27 91 73.5 146.5t100.5 80.5t101 25q35 0 65.5 -11.5t50 -31.5t20.5 -44l-47 -68q-15 60 -41.5 83t-59.5 23q-49 0 -83.5 -32t-56.5 -106q-8 -30 -13.5 -49.5
t-8 -30t-3.5 -13.5q-1 -8 3.5 -10.5t10.5 -2.5l217 3q9 0 9 -13q0 -5 -4 -13.5t-10.5 -15.5t-12.5 -7l-200 -2q-15 0 -23 -5t-11 -16l-112 -395q-24 -84 -69 -136.5t-97.5 -77.5t-99.5 -25zM-82 -291q-59 0 -87.5 20.5t-28.5 47.5q0 22 15.5 37t31.5 15q9 0 18.5 -12.5
t19.5 -26.5q11 -13 22.5 -24.5t30.5 -11.5q16 0 28.5 12.5t24 37.5t22.5 66l135 473q5 18 -14 18l-60 -1q-9 0 -12.5 4t-3.5 12t7.5 19.5t20.5 12.5l66 3q5 1 8.5 5t5.5 11l9 26q20 63 51.5 108.5t69 74t75.5 42t71 13.5q39 0 70.5 -11.5t50.5 -31.5t21 -44l-48 -68
q-9 40 -25.5 63t-36.5 33t-42 10q-36 0 -61.5 -16t-43 -47t-31.5 -75q-9 -37 -13.5 -52.5t-6 -19.5t-1.5 -7q-1 -8 3.5 -10.5t9.5 -2.5l235 3q9 0 9 -13q0 -5 -4 -13.5t-10.5 -15.5t-12.5 -7l-217 -2q-15 0 -23 -5t-11 -16l-125 -441q-9 -37 -34 -71.5t-57 -62t-64 -43.5
t-58 -16zM809 -11q-51 0 -79.5 26t-28.5 73q0 21 5 47t15 56l115 360q6 21 8.5 33.5t2.5 24.5q0 8 -6.5 14t-24.5 11q-25 8 -25 16q0 6 5 10t18 8q17 6 39.5 13t45.5 12.5t40.5 9.5t22.5 4q22 0 22 -12q0 -11 -2 -19.5t-6 -19.5q-10 -22 -22 -53t-25.5 -69.5t-28.5 -82.5
t-31 -91.5t-32 -98.5q-2 -9 1 -10t8 6q59 81 115 125.5t99 44.5q35 0 59 -23.5t24 -57.5q0 -48 -20 -98t-54 -97t-77.5 -83.5t-90.5 -57.5t-92 -21zM838 25q12 0 31 13t40.5 35.5t39.5 49.5q23 33 42.5 73t31.5 75.5t12 56.5q0 15 -7.5 24.5t-19.5 9.5q-24 0 -60 -30
t-81 -91q-35 -48 -55 -89t-20 -63t13.5 -43t32.5 -21z" />
  </g>

</svg>
