<?xml version="1.0" standalone="no"?>
<!DOCTYPE svg PUBLIC "-//W3C//DTD SVG 1.1//EN" "http://www.w3.org/Graphics/SVG/1.1/DTD/svg11.dtd" >
<svg xmlns="http://www.w3.org/2000/svg" xmlns:xlink="http://www.w3.org/1999/xlink" version="1.1" viewBox="-208 0 750 1000">
  <g transform="matrix(1 0 0 -1 0 800)">
   <path fill="currentColor"
d="M-82 -291q-59 0 -87.5 20.5t-28.5 47.5q0 22 15.5 37t31.5 15q9 0 18.5 -12.5t19.5 -26.5q11 -13 22.5 -24.5t30.5 -11.5q16 0 28.5 12.5t24 37.5t22.5 66l135 473q5 18 -14 18l-60 -1q-9 0 -12.5 4t-3.5 12t7.5 19.5t20.5 12.5l66 3q10 1 14 16l8 28q27 92 70.5 147
t92 79.5t90.5 24.5q45 0 74 -20.5t29 -52.5q0 -26 -13 -45t-32 -19q-13 0 -20.5 15t-15.5 33q-7 20 -19.5 34t-32.5 14q-22 0 -39 -16.5t-31.5 -49t-28.5 -80.5q-6 -20 -10.5 -38.5t-8.5 -36.5q-2 -6 -3 -10t-1 -9q-1 -8 3.5 -10.5t9.5 -2.5q28 0 52.5 1.5t49.5 1.5
q9 0 9 -13q0 -5 -4 -13.5t-10.5 -15.5t-12.5 -7l-84 -2q-15 0 -23 -5t-11 -16q-32 -109 -64 -222.5t-61 -222.5q-10 -36 -35 -70t-58 -60.5t-64.5 -42.5t-55.5 -16z" />
  </g>

</svg>
