<?xml version="1.0" standalone="no"?>
<!DOCTYPE svg PUBLIC "-//W3C//DTD SVG 1.1//EN" "http://www.w3.org/Graphics/SVG/1.1/DTD/svg11.dtd" >
<svg xmlns="http://www.w3.org/2000/svg" xmlns:xlink="http://www.w3.org/1999/xlink" version="1.1" viewBox="-208 0 1120 1000">
  <g transform="matrix(1 0 0 -1 0 800)">
   <path fill="currentColor"
d="M181 -291q-38 0 -70 12t-51 32t-21 44l53 73q15 -60 41 -85.5t62 -25.5q52 0 82.5 36t49.5 101l150 547q20 74 54.5 124.5t76.5 80.5t83.5 43.5t75.5 13.5q54 0 88 -20.5t34 -52.5q0 -25 -12.5 -44t-30.5 -19q-15 0 -23 15t-17 33q-10 20 -23 33.5t-38 13.5
q-23 0 -45.5 -14.5t-42.5 -39t-35.5 -55.5t-23.5 -64l-17 -66q-1 -8 3.5 -10.5t10.5 -2.5q14 0 44 0.5t65.5 1t65.5 1t43 0.5l-9 -49l-210 -2q-15 0 -23 -5t-11 -16q-16 -55 -30 -103.5t-27.5 -94t-27 -94t-28.5 -103.5q-24 -84 -69 -136.5t-97.5 -77.5t-99.5 -25zM-82 -291
q-59 0 -87.5 20.5t-28.5 47.5q0 22 15.5 37t31.5 15q9 0 18.5 -12.5t19.5 -26.5q11 -13 22.5 -24.5t30.5 -11.5q16 0 28.5 12.5t24 37.5t22.5 66l135 473q5 18 -14 18l-60 -1q-9 0 -12.5 4t-3.5 12t7.5 19.5t20.5 12.5l66 3q5 1 8.5 5t5.5 11l9 26q20 63 51.5 108.5t69 74
t75.5 42t71 13.5q39 0 70.5 -11.5t50.5 -31.5t21 -44l-48 -68q-9 40 -25.5 63t-36.5 33t-42 10q-36 0 -61.5 -16t-43 -47t-31.5 -75q-9 -37 -13.5 -52.5t-6 -19.5t-1.5 -7q-1 -8 3.5 -10.5t9.5 -2.5l235 3q9 0 9 -13q0 -5 -4 -13.5t-10.5 -15.5t-12.5 -7l-217 -2
q-15 0 -23 -5t-11 -16l-125 -441q-9 -37 -34 -71.5t-57 -62t-64 -43.5t-58 -16zM496 -290q-46 0 -68 16t-21 35q1 14 9 25.5t19 19t20 7.5q13 0 23 -9.5t18 -19.5q9 -10 19 -17.5t25 -7.5q26 0 46 32t35 82l154 513l-35 28q5 0 21.5 0.5t36.5 2t39 3.5t28 6q14 4 27 -7.5
t9 -23.5q-7 -21 -19.5 -50t-22.5 -63l-116 -366q-14 -41 -44 -78.5t-68 -66t-74 -45t-61 -16.5z" />
  </g>

</svg>
