<?xml version="1.0" standalone="no"?>
<!DOCTYPE svg PUBLIC "-//W3C//DTD SVG 1.1//EN" "http://www.w3.org/Graphics/SVG/1.1/DTD/svg11.dtd" >
<svg xmlns="http://www.w3.org/2000/svg" xmlns:xlink="http://www.w3.org/1999/xlink" version="1.1" viewBox="-208 0 1391 1000">
  <g transform="matrix(1 0 0 -1 0 800)">
   <path fill="currentColor"
d="M181 -291q-38 0 -70 12t-51 32t-21 44l53 73q15 -60 41 -85.5t62 -25.5q52 0 82.5 36t49.5 101l155 557q27 91 73.5 146.5t100.5 80.5t101 25q35 0 65.5 -11.5t50 -31.5t20.5 -44l-47 -68q-15 60 -41.5 83t-59.5 23q-49 0 -83.5 -32t-56.5 -106q-8 -30 -13.5 -49.5
t-8 -30t-3.5 -13.5q-1 -8 3.5 -10.5t10.5 -2.5l217 3q9 0 9 -13q0 -5 -4 -13.5t-10.5 -15.5t-12.5 -7l-200 -2q-15 0 -23 -5t-11 -16l-112 -395q-24 -84 -69 -136.5t-97.5 -77.5t-99.5 -25zM-82 -291q-59 0 -87.5 20.5t-28.5 47.5q0 22 15.5 37t31.5 15q9 0 18.5 -12.5
t19.5 -26.5q11 -13 22.5 -24.5t30.5 -11.5q16 0 28.5 12.5t24 37.5t22.5 66l135 473q5 18 -14 18l-60 -1q-9 0 -12.5 4t-3.5 12t7.5 19.5t20.5 12.5l66 3q5 1 8.5 5t5.5 11l9 26q20 63 51.5 108.5t69 74t75.5 42t71 13.5q39 0 70.5 -11.5t50.5 -31.5t21 -44l-48 -68
q-9 40 -25.5 63t-36.5 33t-42 10q-36 0 -61.5 -16t-43 -47t-31.5 -75q-9 -37 -13.5 -52.5t-6 -19.5t-1.5 -7q-1 -8 3.5 -10.5t9.5 -2.5l235 3q9 0 9 -13q0 -5 -4 -13.5t-10.5 -15.5t-12.5 -7l-217 -2q-15 0 -23 -5t-11 -16l-125 -441q-9 -37 -34 -71.5t-57 -62t-64 -43.5
t-58 -16zM730 -16q-7 0 -17 5.5t-17.5 15t-7.5 20.5q0 16 3.5 32t10.5 38l136 450q5 16 9 33t4 28q0 12 -12.5 18.5t-25.5 11.5q-7 2 -13.5 5t-6.5 8q0 6 4.5 10t19.5 9q10 4 30.5 10.5t44 13t42 11t25.5 4.5t15 -1.5t8 -10.5q0 -11 -2 -19t-6 -17l-138 -440q-2 -7 1.5 -7
t7.5 5q39 60 82.5 108t86.5 76.5t79 28.5q38 0 58 -24.5t20 -58.5q0 -52 -15.5 -103.5t-41 -97.5t-55.5 -81q-7 -8 -24 -21t-38.5 -26.5t-42 -22.5t-32.5 -9q-11 0 -23.5 7.5t-21 17.5t-8.5 18q0 5 4.5 15t12 18.5t15.5 8.5q10 0 16 -5t12 -11q7 -6 14.5 -11.5t16.5 -5.5
q12 0 26 20.5t27.5 53t23.5 71t16 76t6 66.5q0 19 -7 29.5t-22 10.5q-17 0 -39 -21t-48 -56t-52.5 -76t-51.5 -82.5t-45 -75.5q-21 -36 -35.5 -53t-28.5 -17z" />
  </g>

</svg>
