<?xml version="1.0" standalone="no"?>
<!DOCTYPE svg PUBLIC "-//W3C//DTD SVG 1.1//EN" "http://www.w3.org/Graphics/SVG/1.1/DTD/svg11.dtd" >
<svg xmlns="http://www.w3.org/2000/svg" xmlns:xlink="http://www.w3.org/1999/xlink" version="1.1" viewBox="-208 0 1346 1000">
  <g transform="matrix(1 0 0 -1 0 800)">
   <path fill="currentColor"
d="M181 -291q-38 0 -70 12t-51 32t-21 44l53 73q15 -60 41 -85.5t62 -25.5q52 0 82.5 36t49.5 101l155 557q27 91 73.5 146.5t100.5 80.5t101 25q35 0 65.5 -11.5t50 -31.5t20.5 -44l-47 -68q-15 60 -41.5 83t-59.5 23q-49 0 -83.5 -32t-56.5 -106q-8 -30 -13.5 -49.5
t-8 -30t-3.5 -13.5q-1 -8 3.5 -10.5t10.5 -2.5l217 3q9 0 9 -13q0 -5 -4 -13.5t-10.5 -15.5t-12.5 -7l-200 -2q-15 0 -23 -5t-11 -16l-112 -395q-24 -84 -69 -136.5t-97.5 -77.5t-99.5 -25zM-82 -291q-59 0 -87.5 20.5t-28.5 47.5q0 22 15.5 37t31.5 15q9 0 18.5 -12.5
t19.5 -26.5q11 -13 22.5 -24.5t30.5 -11.5q16 0 28.5 12.5t24 37.5t22.5 66l135 473q5 18 -14 18l-60 -1q-9 0 -12.5 4t-3.5 12t7.5 19.5t20.5 12.5l66 3q5 1 8.5 5t5.5 11l9 26q20 63 51.5 108.5t69 74t75.5 42t71 13.5q39 0 70.5 -11.5t50.5 -31.5t21 -44l-48 -68
q-9 40 -25.5 63t-36.5 33t-42 10q-36 0 -61.5 -16t-43 -47t-31.5 -75q-9 -37 -13.5 -52.5t-6 -19.5t-1.5 -7q-1 -8 3.5 -10.5t9.5 -2.5l235 3q9 0 9 -13q0 -5 -4 -13.5t-10.5 -15.5t-12.5 -7l-217 -2q-15 0 -23 -5t-11 -16l-125 -441q-9 -37 -34 -71.5t-57 -62t-64 -43.5
t-58 -16zM948 -17q-22 0 -36.5 12.5t-23.5 36.5l-41 120q-5 14 -12.5 23t-18.5 9q-6 0 -11 -9.5t-10 -21.5q-6 -12 -12.5 -29t-13.5 -35.5t-13.5 -35t-11.5 -29.5q-6 -14 -18.5 -24t-31.5 -10q-12 0 -27.5 11.5t-15.5 30.5q0 9 2.5 19l5.5 22l153 473q6 17 9.5 31t3.5 28
q0 19 -24 28q-8 3 -15.5 6.5t-7.5 8.5t3.5 9t15.5 8q11 5 32 12t44 13.5t41 11.5t26 5q7 0 15 -1.5t8 -11.5t-2 -17t-5 -17l-127 -373q-4 -9 1 -8.5t9 5.5q29 41 64 73t73 51t77 19q27 0 45.5 -12.5t18.5 -38.5q0 -24 -17 -50t-44 -49.5t-58.5 -42t-59.5 -28.5
q-10 -2 -4 -15l40 -93q5 -8 12 -17.5t17 -9.5q17 0 37.5 17t33.5 38q5 7 8 9.5t7 2.5q3 0 5 -4.5t2 -8.5q0 -20 -15.5 -44.5t-39 -46.5t-49 -36.5t-44.5 -14.5zM851 208q28 0 57 14t53.5 34t39.5 42t15 37t-9 21.5t-25 6.5q-19 0 -43 -18t-46.5 -43t-37 -47t-14.5 -32
q0 -5 2.5 -10t7.5 -5z" />
  </g>

</svg>
