<?xml version="1.0" standalone="no"?>
<!DOCTYPE svg PUBLIC "-//W3C//DTD SVG 1.1//EN" "http://www.w3.org/Graphics/SVG/1.1/DTD/svg11.dtd" >
<svg xmlns="http://www.w3.org/2000/svg" xmlns:xlink="http://www.w3.org/1999/xlink" version="1.1" viewBox="-110 0 901 1000">
  <g transform="matrix(1 0 0 -1 0 800)">
   <path fill="currentColor"
d="M118 -290q-60 0 -109.5 13.5t-79 37.5t-29.5 55q0 26 28 48t72 40t94 33q10 3 2 9q-21 14 -36.5 30.5t-15.5 35.5q0 20 20.5 36.5t49.5 33.5q6 5 8.5 8t2.5 5q0 3 -9 8q-18 8 -34 22.5t-25 35t-9 44.5q0 33 14.5 71t42 72.5t67.5 56.5t90 22q55 0 87 -34.5t32 -87.5
q0 -38 -16 -76t-43.5 -70t-64 -51t-77.5 -19q-9 0 -17.5 -1t-12.5 -4q-11 -9 -11 -21q0 -14 10.5 -25.5t30.5 -25.5q19 -12 43 -27.5t49 -31t45 -28.5q23 -16 35 -33t12 -36q0 -28 -22 -54.5t-58 -47t-79 -32.5t-87 -12zM157 -256q31 0 55 9t38.5 24t14.5 34q0 12 -8.5 25.5
t-24.5 23.5q-16 12 -42 28t-42 23q-11 6 -20 6q-5 0 -10 -1t-11 -3q-52 -16 -80.5 -36t-28.5 -54q0 -21 19.5 -39t55.5 -29t84 -11zM167 123q17 -1 36 15.5t36 44t31 59.5t22 61.5t8 49.5q0 17 -8 30t-21 13q-17 0 -35 -16.5t-35.5 -43t-31.5 -57.5t-22.5 -60t-8.5 -51
q0 -21 8.5 -32.5t20.5 -12.5zM328 -290q-40 0 -62 12.5t-26 27.5l70 53q5 -4 9.5 -9t8.5 -10q9 -10 19 -17.5t25 -7.5q26 0 45.5 32t35.5 82l126 400q8 24 5 33t-12 8q-7 0 -17 -2t-22 -5q-16 -3 -33.5 -6.5t-35.5 -3.5q-26 0 -54.5 6t-60.5 20l-1 35q25 -7 49 -10t46 -3
q52 0 97.5 11.5t84.5 30t72 38.5q8 5 17.5 0.5t15.5 -13.5t3 -17q-8 -21 -20 -50t-23 -63l-116 -366q-13 -41 -43.5 -78.5t-68 -66t-73.5 -45t-61 -16.5zM708 509q-20 0 -33 15.5t-13 34.5q0 31 21.5 54.5t52.5 23.5q22 0 33.5 -17.5t11.5 -37.5q0 -29 -21.5 -51t-51.5 -22z
" />
  </g>

</svg>
