<?xml version="1.0" standalone="no"?>
<!DOCTYPE svg PUBLIC "-//W3C//DTD SVG 1.1//EN" "http://www.w3.org/Graphics/SVG/1.1/DTD/svg11.dtd" >
<svg xmlns="http://www.w3.org/2000/svg" xmlns:xlink="http://www.w3.org/1999/xlink" version="1.1" viewBox="-110 0 967 1000">
  <g transform="matrix(1 0 0 -1 0 800)">
   <path fill="currentColor"
d="M357 -289q-27 0 -48 16.5t-21 44.5l60 73q13 -28 33.5 -41t46.5 -13q32 0 64.5 35t56.5 90q19 39 27.5 94.5t8.5 118.5q0 113 -30.5 175t-86.5 60q-16 0 -36 -7.5t-40 -23.5t-37 -43l-19 14q9 25 26.5 47.5t41 39.5t49.5 26.5t50 9.5q55 0 91 -25.5t56 -71.5t27 -109.5
t4 -139.5q-1 -18 3.5 -17t11.5 14q34 65 51 147t17 186q0 7 11 15.5t18 8.5t20 -8t23.5 -21t10.5 -29q0 -62 -34 -145.5t-95 -176.5t-141 -185q-38 -43 -78.5 -79.5t-77.5 -58t-64 -21.5zM157 -256q31 0 55 9t38.5 24t14.5 34q0 12 -8.5 25.5t-24.5 23.5q-16 12 -42 28
t-42 23q-11 6 -20 6q-5 0 -10 -1t-11 -3q-52 -16 -80.5 -36t-28.5 -54q0 -21 19.5 -39t55.5 -29t84 -11zM118 -290q-60 0 -109.5 13.5t-79 37.5t-29.5 55q0 26 28 48t72 40t94 33q10 3 2 9q-21 14 -36.5 30.5t-15.5 35.5q0 20 20.5 36.5t49.5 33.5q6 5 8.5 8t2.5 5q0 3 -9 8
q-18 8 -34 22.5t-25 35t-9 44.5q0 33 14.5 71t42 72.5t67.5 56.5t90 22q56 0 87.5 -32.5t31.5 -82.5q0 -40 -16 -79.5t-43.5 -72t-64 -52t-77.5 -19.5q-9 0 -17.5 -1t-12.5 -4q-11 -9 -11 -21q0 -14 10.5 -25.5t30.5 -25.5q19 -12 43 -27.5t49 -31t45 -28.5q23 -16 35 -33
t12 -36q0 -28 -22 -54.5t-58 -47t-79 -32.5t-87 -12zM167 123q17 -1 36 15.5t36 44t31 59.5t22 61.5t8 49.5q0 17 -8 30t-21 13q-17 0 -35 -16.5t-35.5 -43t-31.5 -57.5t-22.5 -60t-8.5 -51q0 -21 8.5 -32.5t20.5 -12.5z" />
  </g>

</svg>
