<?xml version="1.0" standalone="no"?>
<!DOCTYPE svg PUBLIC "-//W3C//DTD SVG 1.1//EN" "http://www.w3.org/Graphics/SVG/1.1/DTD/svg11.dtd" >
<svg xmlns="http://www.w3.org/2000/svg" xmlns:xlink="http://www.w3.org/1999/xlink" version="1.1" viewBox="-10 0 644 1000">
  <g transform="matrix(1 0 0 -1 0 800)">
   <path fill="currentColor"
d="M356 405q10 0 18.5 -8t12.5 -11q20 -22 42.5 -42.5t46 -39.5t47.5 -35.5t47 -30.5q10 -6 15 -10t5 -10t-7 -11t-12 -6q-56 -26 -107.5 -54t-99.5 -58t-94 -62q-5 -4 -10.5 -7t-14.5 -3q-10 0 -7.5 9t10.5 18q38 40 76 70.5t72.5 54.5t62.5 43q8 5 8 7.5t-5 8.5
q-18 18 -38 41t-39.5 50.5t-35.5 59.5q-4 9 -1 17.5t8 8.5zM145 405q10 0 18.5 -8t12.5 -11q20 -22 42.5 -42.5t46 -39.5t47.5 -35.5t47 -30.5q10 -6 15 -10t5 -10t-7 -11t-12 -6q-56 -26 -107.5 -54t-99.5 -58t-94 -62q-5 -4 -10.5 -7t-14.5 -3q-10 0 -7.5 9t10.5 18
q38 40 76 70.5t72.5 54.5t62.5 43q8 5 8 7.5t-5 8.5q-18 18 -38 41t-39.5 50.5t-35.5 59.5q-4 9 -1 17.5t8 8.5z" />
  </g>

</svg>
