<?xml version="1.0" standalone="no"?>
<!DOCTYPE svg PUBLIC "-//W3C//DTD SVG 1.1//EN" "http://www.w3.org/Graphics/SVG/1.1/DTD/svg11.dtd" >
<svg xmlns="http://www.w3.org/2000/svg" xmlns:xlink="http://www.w3.org/1999/xlink" version="1.1" viewBox="-10 0 437 1000">
  <g transform="matrix(1 0 0 -1 0 800)">
   <path fill="currentColor"
d="M79 -14q-21 0 -37 15.5t-16 31.5q0 5 0.5 9.5t3.5 10.5q33 70 59 136t49 123q3 8 -4 8t-19 -5t-25 -12.5t-25 -15.5q-10 -6 -15.5 -2.5t-5.5 10.5q0 6 11.5 19t30 28.5t41.5 31.5t46 29.5t42 21.5q13 5 26 -2t21 -18.5t4 -20.5l-115 -281q-3 -5 -4 -10.5t-1 -9.5
q0 -5 3.5 -7t6.5 -2q11 0 29.5 12.5t39 29.5t36.5 33q2 3 4 3q4 0 7 -3.5t3 -7.5q0 -18 -20.5 -43.5t-51.5 -51t-64.5 -43t-59.5 -17.5zM139 466q-5 0 -12 6t-7 12q0 5 11 20.5t27 34.5t31 32.5t22 13.5q13 0 25.5 -2.5t36.5 -4.5q21 -1 37 -2.5t27 -1.5q19 0 35 18
q11 11 15.5 17.5t8.5 6.5q6 0 13.5 -6t7.5 -12q0 -4 -6 -11t-14 -17q-11 -14 -22 -30.5t-21 -30.5q-6 -8 -15.5 -11t-14.5 -3q-8 0 -25 1.5t-38 3t-41.5 3t-33.5 1.5q-11 0 -19 -9q-11 -13 -17.5 -21t-10.5 -8z" />
  </g>

</svg>
