<?xml version="1.0" standalone="no"?>
<!DOCTYPE svg PUBLIC "-//W3C//DTD SVG 1.1//EN" "http://www.w3.org/Graphics/SVG/1.1/DTD/svg11.dtd" >
<svg xmlns="http://www.w3.org/2000/svg" xmlns:xlink="http://www.w3.org/1999/xlink" version="1.1" viewBox="-208 0 811 1000">
  <g transform="matrix(1 0 0 -1 0 800)">
   <path fill="currentColor"
d="M452 657q-36 0 -63 -19t-49.5 -56t-41.5 -91.5t-38.5 -126t-41.5 -159.5l-63 -242q-13 -48 -37.5 -93.5t-57 -81.5t-69 -57.5t-73.5 -21.5q-59 0 -87.5 20.5t-28.5 47.5q0 22 15.5 37t31.5 15q9 0 18.5 -12.5t19.5 -26.5q11 -13 22.5 -24.5t30.5 -11.5q22 0 40.5 27.5
t35.5 77t33 112.5l58 232q23 91 50.5 168.5t59 139t69 105t81 66.5t94.5 23q58 0 93 -20.5t35 -52.5q0 -25 -12.5 -44t-31.5 -19q-13 0 -20.5 13.5t-16.5 31.5q-8 18 -20.5 30.5t-35.5 12.5zM182 -290q-46 0 -67.5 16t-21.5 34q1 15 9.5 26.5t19 18.5t19.5 7q13 0 23 -9
t18 -19q9 -10 19 -17.5t26 -7.5q26 0 45 32t35 81l130 401q8 24 5 32.5t-12 8.5q-10 0 -24 -6t-32 -14q-8 -3 -14.5 -1.5t-6.5 8.5t4.5 11.5t11.5 10.5q22 19 48 34t51.5 27.5t48.5 22.5t39 18q13 5 26.5 -6.5t9.5 -24.5q-8 -21 -20 -50t-23 -62l-120 -366
q-14 -42 -44.5 -79t-68 -66t-73.5 -45t-61 -16z" />
  </g>

</svg>
