<?xml version="1.0" standalone="no"?>
<!DOCTYPE svg PUBLIC "-//W3C//DTD SVG 1.1//EN" "http://www.w3.org/Graphics/SVG/1.1/DTD/svg11.dtd" >
<svg xmlns="http://www.w3.org/2000/svg" xmlns:xlink="http://www.w3.org/1999/xlink" version="1.1" viewBox="-208 0 1348 1000">
  <g transform="matrix(1 0 0 -1 0 800)">
   <path fill="currentColor"
d="M179 -291q-38 0 -69.5 12t-51 32t-21.5 44l53 73q15 -60 41.5 -85.5t62.5 -25.5q51 0 81.5 36t49.5 102l77 306q28 114 63 205.5t76.5 156t92.5 99t112 34.5q35 0 65.5 -11.5t50 -31.5t20.5 -44l-47 -68q-15 60 -41.5 83t-59.5 23q-40 0 -69 -28t-53 -84t-47 -139
t-52 -193l-68 -257q-23 -84 -68 -136.5t-97.5 -77.5t-100.5 -25zM-82 -291q-59 0 -87.5 20.5t-28.5 47.5q0 22 15.5 37t31.5 15q9 0 18.5 -12.5t19.5 -26.5q11 -13 22.5 -24.5t30.5 -11.5q22 0 40 27.5t35 77t34 112.5l58 232q29 114 64 204t76.5 153t92 96.5t111.5 33.5
q35 0 65.5 -11.5t49.5 -31.5t21 -44l-47 -68q-15 60 -41.5 83t-59.5 23q-40 0 -69.5 -27t-54 -81.5t-47 -136t-50.5 -191.5l-63 -242q-13 -48 -37.5 -93.5t-57 -81.5t-69 -57.5t-73.5 -21.5zM949 -17q-21 0 -35.5 12.5t-23.5 36.5l-41 120q-5 14 -13 23t-18 9q-7 0 -12 -9.5
t-10 -21.5t-11.5 -29t-14 -35.5t-13.5 -35t-12 -29.5q-6 -14 -18 -24t-31 -10q-13 0 -28 11.5t-15 30.5q0 9 2 19t6 22l153 473q5 17 8.5 31t3.5 28q0 19 -24 28q-8 3 -15 6.5t-7 8.5t3.5 9t14.5 8q12 5 33 12t43.5 13.5t41 11.5t26.5 5q6 0 14 -1.5t8 -11.5t-1.5 -17
t-5.5 -17l-127 -373q-3 -9 2 -8.5t9 5.5q29 41 63.5 73t73 51t77.5 19q26 0 45 -12.5t19 -38.5q0 -24 -17.5 -50t-44.5 -49.5t-58 -42t-60 -28.5q-9 -2 -4 -15l41 -93q4 -8 11.5 -17.5t17.5 -9.5q16 0 37 17t34 38q5 7 7.5 9.5t6.5 2.5t6 -4.5t2 -8.5q0 -20 -15.5 -44.5
t-39.5 -46.5t-49 -36.5t-45 -14.5zM853 208q27 0 56 14t54 34t40 42t15 37t-9 21.5t-25 6.5q-19 0 -43 -18t-46.5 -43t-37.5 -47t-15 -32q0 -5 3 -10t8 -5z" />
  </g>

</svg>
