<?xml version="1.0" standalone="no"?>
<!DOCTYPE svg PUBLIC "-//W3C//DTD SVG 1.1//EN" "http://www.w3.org/Graphics/SVG/1.1/DTD/svg11.dtd" >
<svg xmlns="http://www.w3.org/2000/svg" xmlns:xlink="http://www.w3.org/1999/xlink" version="1.1" viewBox="-208 0 829 1000">
  <g transform="matrix(1 0 0 -1 0 800)">
   <path fill="currentColor"
d="M452 657q-36 0 -63 -19t-49.5 -56t-41.5 -91.5t-38.5 -126t-41.5 -159.5l-63 -242q-13 -48 -37.5 -93.5t-57 -81.5t-69 -57.5t-73.5 -21.5q-59 0 -87.5 20.5t-28.5 47.5q0 22 15.5 37t31.5 15q9 0 18.5 -12.5t19.5 -26.5q11 -13 22.5 -24.5t30.5 -11.5q22 0 40.5 27.5
t35.5 77t33 112.5l58 232q23 91 50.5 168.5t59 139t69 105t81 66.5t94.5 23q58 0 93 -20.5t35 -52.5q0 -25 -12.5 -44t-31.5 -19q-13 0 -20.5 13.5t-16.5 31.5q-8 18 -20.5 30.5t-35.5 12.5zM381 -14q-22 0 -38 15.5t-16 31.5q0 5 1 9.5t4 10.5q32 70 58 136t50 123
q2 8 -5 8t-19 -5t-25 -12.5t-24 -15.5q-11 -6 -16.5 -2.5t-5.5 10.5q0 6 11.5 19t30.5 28.5t41.5 31.5t45.5 29.5t42 21.5q13 5 26.5 -2t21 -18.5t4.5 -20.5l-116 -281q-2 -5 -3 -10.5t-1 -9.5q0 -5 3.5 -7t6.5 -2q10 0 28.5 12.5t39.5 29.5t36 33q3 3 4 3q5 0 8 -3.5
t3 -7.5q0 -18 -20.5 -43.5t-51.5 -51t-64.5 -43t-59.5 -17.5z" />
  </g>

</svg>
