<?xml version="1.0" standalone="no"?>
<!DOCTYPE svg PUBLIC "-//W3C//DTD SVG 1.1//EN" "http://www.w3.org/Graphics/SVG/1.1/DTD/svg11.dtd" >
<svg xmlns="http://www.w3.org/2000/svg" xmlns:xlink="http://www.w3.org/1999/xlink" version="1.1" viewBox="-49 0 875 1000">
  <g transform="matrix(1 0 0 -1 0 800)">
   <path fill="currentColor"
d="M265 -6q-5 0 -6.5 7.5t-1.5 17.5q1 71 2 142.5t0 142.5q0 9 -0.5 16t-5.5 7q-7 0 -19 -22q-23 -50 -48 -100.5t-50 -100.5q-16 -32 -14 -52t23 -21q14 -1 19 -5.5t5 -11.5t-10.5 -10.5t-18.5 -3.5q-23 0 -39.5 1t-35.5 1q-26 0 -50.5 -2.5t-37.5 -2.5q-5 0 -10.5 2.5
t-5.5 7.5q0 11 10.5 14.5t20.5 4.5q27 4 48 21.5t41 51.5q39 68 76.5 133.5t72.5 135.5q13 25 5 36t-30 16q-10 3 -18.5 6t-13.5 8t-3.5 9t5.5 8q16 2 41 3t56 1q21 0 40.5 -5t47.5 -13q8 -31 11 -66.5t5 -72.5q0 -35 0.5 -68.5t2.5 -66.5q1 -8 5 -6t9 8q60 67 120 133.5
t119 133.5q7 8 13 12t15 4h34q26 1 49 4t48 3q11 0 18 -3.5t7 -10.5t-10 -12t-24 -7q-33 -5 -50.5 -17.5t-28.5 -48.5q-17 -68 -34 -136.5t-34 -136.5q-7 -24 3.5 -36.5t35.5 -18.5q9 -2 13 -5t4 -9q0 -7 -9.5 -11.5t-19.5 -4.5q-18 0 -39.5 1t-43 1.5t-37.5 0.5
q-19 0 -41 -0.5t-43.5 -2t-40.5 -1.5q-8 0 -13 3.5t-4 8.5q2 8 10.5 12.5t20.5 6.5q30 5 52 17.5t30 39.5q12 49 24.5 99t24.5 99q3 14 -1 13.5t-12 -8.5q-62 -66 -123 -133t-123 -134q-14 -15 -24 -21t-14 -6z" />
  </g>

</svg>
