<?xml version="1.0" standalone="no"?>
<!DOCTYPE svg PUBLIC "-//W3C//DTD SVG 1.1//EN" "http://www.w3.org/Graphics/SVG/1.1/DTD/svg11.dtd" >
<svg xmlns="http://www.w3.org/2000/svg" xmlns:xlink="http://www.w3.org/1999/xlink" version="1.1" viewBox="-10 0 592 1000">
  <g transform="matrix(1 0 0 -1 0 800)">
   <path fill="currentColor"
d="M463 51q-8 0 -15 7l-145 145q-6 6 -14 -1l-138 -139q-4 -4 -9 -5t-9 0q-6 2 -14.5 15.5t-8.5 26.5q0 10 5 15l130 130q5 4 5 7.5t-5 7.5l-127 128q-5 5 -5 14q0 12 7 24.5t11 16.5t10.5 3.5t10.5 -4.5l138 -139q4 -4 6.5 -4t6.5 3l142 143q6 5 12 5t9 -4q6 -7 12.5 -18.5
t6.5 -22.5q0 -8 -7 -14l-132 -133q-6 -6 0 -12l138 -137q6 -6 6 -16q0 -11 -8.5 -26.5t-18.5 -15.5z" />
  </g>

</svg>
