<?xml version="1.0" standalone="no"?>
<!DOCTYPE svg PUBLIC "-//W3C//DTD SVG 1.1//EN" "http://www.w3.org/Graphics/SVG/1.1/DTD/svg11.dtd" >
<svg xmlns="http://www.w3.org/2000/svg" xmlns:xlink="http://www.w3.org/1999/xlink" version="1.1" viewBox="-91 0 493 1000">
  <g transform="matrix(1 0 0 -1 0 800)">
   <path fill="currentColor"
d="M-69 -133q-2 0 -7 3t-4 7q1 6 7.5 8.5t11.5 4.5q12 3 21.5 8.5t13.5 16.5l42 138q4 13 2 22t-15 11q-6 0 -4 10t10 12q16 3 36 8.5t38.5 12t31.5 12.5q5 0 11.5 -2.5t5.5 -4.5q-2 -6 -8 -18t-9 -20q-1 -2 -0.5 -4.5t1.5 -3.5q24 16 53 30.5t59 14.5q36 0 54 -25t5 -69
l-38 -124q-4 -13 1.5 -17.5t15.5 -7.5q5 -2 8 -4.5t1 -7.5q-1 -4 -6.5 -7.5t-8.5 -3.5q-17 0 -34 1.5t-34 1.5q-16 0 -33.5 -1.5t-34.5 -1.5q-3 0 -7 3.5t-3 7.5q2 5 6.5 7.5t10.5 4.5q12 3 20 7.5t12 17.5l35 114q7 24 -3.5 35.5t-30.5 11.5q-11 0 -21.5 -2t-23.5 -8
q-7 -4 -13.5 -13.5t-11.5 -24.5l-36 -113q-3 -12 1.5 -17t13.5 -8q5 -2 8.5 -4.5t1.5 -8.5q-1 -3 -7 -6.5t-9 -3.5q-17 0 -33 1.5t-32 1.5t-34.5 -1.5t-36.5 -1.5z" />
  </g>

</svg>
