<?xml version="1.0" standalone="no"?>
<!DOCTYPE svg PUBLIC "-//W3C//DTD SVG 1.1//EN" "http://www.w3.org/Graphics/SVG/1.1/DTD/svg11.dtd" >
<svg xmlns="http://www.w3.org/2000/svg" xmlns:xlink="http://www.w3.org/1999/xlink" version="1.1" viewBox="-36 0 541 1000">
  <g transform="matrix(1 0 0 -1 0 800)">
   <path fill="currentColor"
d="M-15 -92q-6 0 -9 5t-1 10l1 5l82 166l-59 -3q-8 0 -11 5.5t-2 11.5q3 18 10 31.5t16.5 22t19.5 8.5l68 3l55 120l-64 -3q-9 0 -12.5 5.5t-2.5 11.5q4 18 11 31.5t16.5 22t19.5 8.5l73 3l76 156q6 14 20 18t28 4q5 0 6.5 -5t0.5 -11q-1 -2 -2 -3t-1 -3l-75 -154l115 5
l78 160q6 14 18.5 18t26.5 4q5 0 7 -5t0 -11l-1.5 -3l-1.5 -3l-75 -157l57 3q10 0 14.5 -4.5t2.5 -12.5q-2 -12 -10.5 -26t-19.5 -24.5t-22 -11.5l-62 -3l-59 -121l66 3q9 1 13.5 -4.5t2.5 -12.5q-2 -12 -10.5 -26t-20 -24t-21.5 -11l-68 -3l-79 -163q-6 -13 -15 -16.5
t-23 -3.5q-5 0 -9.5 5.5t-3.5 10.5l1 4l79 160l-117 -5l-82 -168q-7 -14 -19.5 -17t-25.5 -3zM151 175l116 5l58 121l-115 -5z" />
  </g>

</svg>
