<?xml version="1.0" standalone="no"?>
<!DOCTYPE svg PUBLIC "-//W3C//DTD SVG 1.1//EN" "http://www.w3.org/Graphics/SVG/1.1/DTD/svg11.dtd" >
<svg xmlns="http://www.w3.org/2000/svg" xmlns:xlink="http://www.w3.org/1999/xlink" version="1.1" viewBox="-10 0 604 1000">
  <g transform="matrix(1 0 0 -1 0 800)">
   <path fill="currentColor"
d="M250 -14q-57 0 -101 23.5t-69.5 64t-29.5 90.5q-3 55 17 107t60.5 94.5t98 67.5t128.5 25q58 0 101.5 -23.5t69.5 -64t29 -91.5q4 -53 -16.5 -105.5t-61 -95t-97.5 -67.5t-129 -25zM253 17q32 0 61.5 19t53.5 51t41 71t25.5 79t7.5 75q-2 30 -13 57t-30 43.5t-48 16.5
q-31 0 -60 -19.5t-53 -51.5t-41 -71.5t-26 -79.5t-7 -76q1 -29 11.5 -55t30 -42.5t47.5 -16.5zM467 735q9 0 13 -9t10 -28q4 -16 8.5 -35.5l9 -39t8 -36t5.5 -27.5q2 -13 -2 -23.5t-14 -10.5q-13 0 -25 27q-6 13 -16 34.5t-21 42.5q-4 7 -11 0q-23 -21 -47 -42.5t-40 -35.5
q-13 -12 -23 -19t-16 -7q-10 0 -10 11q0 5 3 11.5t8 14.5q14 17 33.5 40.5t39.5 47.5t36 43q16 17 29 29t22 12z" />
  </g>

</svg>
