<?xml version="1.0" standalone="no"?>
<!DOCTYPE svg PUBLIC "-//W3C//DTD SVG 1.1//EN" "http://www.w3.org/Graphics/SVG/1.1/DTD/svg11.dtd" >
<svg xmlns="http://www.w3.org/2000/svg" xmlns:xlink="http://www.w3.org/1999/xlink" version="1.1" viewBox="-10 0 650 1000">
  <g transform="matrix(1 0 0 -1 0 800)">
   <path fill="currentColor"
d="M131 -15q-29 0 -56 16.5t-44.5 45.5t-17.5 67q0 48 18 102t51.5 102t82.5 78.5t112 30.5q31 0 60 -19.5t44 -53.5q32 33 71.5 53t85.5 20q49 0 70.5 -20t21.5 -52t-24.5 -57.5t-62.5 -43t-78 -25t-70 -4.5q-8 1 -11 -9q-6 -16 -8 -31t-2 -35q0 -35 19.5 -59t49.5 -24
t56 17t45 40q10 12 18 12q9 0 9 -11v-5.5t-1 -5.5q-18 -35 -44.5 -64t-60 -46.5t-75.5 -17.5q-26 0 -53 19t-43 53q-32 -32 -72.5 -52.5t-90.5 -20.5zM150 22q22 0 43.5 21.5t41.5 57t35.5 77.5t25 83t9.5 74q0 29 -8 43t-29 14q-20 0 -41 -21.5t-41.5 -57t-36.5 -77
t-26 -83t-10 -73.5q0 -30 8.5 -44t28.5 -14zM402 253q11 0 34 6t47.5 19t42.5 33.5t19 49.5q0 13 -6.5 23.5t-21.5 10.5q-19 0 -38 -13t-36 -33t-29.5 -44t-18.5 -46q-1 -6 7 -6z" />
  </g>

</svg>
