<?xml version="1.0" standalone="no"?>
<!DOCTYPE svg PUBLIC "-//W3C//DTD SVG 1.1//EN" "http://www.w3.org/Graphics/SVG/1.1/DTD/svg11.dtd" >
<svg xmlns="http://www.w3.org/2000/svg" xmlns:xlink="http://www.w3.org/1999/xlink" version="1.1" viewBox="-10 0 741 1000">
  <g transform="matrix(1 0 0 -1 0 800)">
   <path fill="currentColor"
d="M69 278q-4 0 -6 3t-1 7q2 6 5.5 10t9.5 5q22 4 33.5 9t17.5 26l56 186q7 20 -5 29.5t-30 14.5q-9 3 -7 11q3 15 17 17q38 4 70.5 8t53.5 13q2 1 5.5 2t5.5 1q9 0 5 -10q-2 -8 -8 -20t-12 -32l-68 -220q-5 -18 -1 -23.5t28 -11.5q5 -1 7 -4.5t0 -9.5q-1 -4 -4.5 -7.5
t-8.5 -3.5q-15 0 -30.5 1t-29 1.5t-22.5 0.5q-13 0 -35.5 -1.5t-45.5 -1.5zM63 -24q-12 0 -17 9.5t2 17.5l608 650q9 10 20.5 13.5t23.5 3.5q14 0 18.5 -8t-2.5 -16l-606 -648q-11 -12 -22.5 -17t-24.5 -5zM568 -16q-20 0 -52.5 1.5t-64.5 1.5q-18 0 -39.5 -0.5t-39.5 -1.5
t-27 -1q-6 0 -6 5q0 6 7 12l79 66q63 54 98 94t35 68q0 17 -12 27.5t-32 10.5q-19 0 -38.5 -12t-33.5 -27q-4 -5 -7.5 -8t-7.5 -3q-5 0 -5.5 4.5t0.5 10.5q8 23 30 43.5t52 33.5t61 13q37 0 59.5 -18.5t22.5 -54.5q0 -30 -20.5 -53t-44.5 -46q-10 -9 -31 -25t-43.5 -31.5
t-39.5 -27t-19 -13.5t1.5 -3t7.5 -1h84q19 0 39.5 13t35.5 31q2 4 7.5 7.5t10.5 3.5q6 0 6.5 -4t-4.5 -11q-14 -21 -25 -39t-18.5 -32t-11.5 -21q-3 -6 -7 -9.5t-7 -3.5z" />
  </g>

</svg>
