<?xml version="1.0" standalone="no"?>
<!DOCTYPE svg PUBLIC "-//W3C//DTD SVG 1.1//EN" "http://www.w3.org/Graphics/SVG/1.1/DTD/svg11.dtd" >
<svg xmlns="http://www.w3.org/2000/svg" xmlns:xlink="http://www.w3.org/1999/xlink" version="1.1" viewBox="-10 0 604 1000">
  <g transform="matrix(1 0 0 -1 0 800)">
   <path fill="currentColor"
d="M250 -14q-57 0 -101 23.5t-69.5 64t-29.5 90.5q-3 55 17 107t60.5 94.5t98 67.5t128.5 25q58 0 101.5 -23.5t69.5 -64t29 -91.5q4 -53 -16.5 -105.5t-61 -95t-97.5 -67.5t-129 -25zM253 17q32 0 61.5 19t53.5 51t41 71t25.5 79t7.5 75q-2 30 -13 57t-30 43.5t-48 16.5
q-31 0 -60 -19.5t-53 -51.5t-41 -71.5t-26 -79.5t-7 -76q1 -29 11.5 -55t30 -42.5t47.5 -16.5zM277 529q-5 0 -12 6t-7 12q0 5 11 20.5t27 34.5t31 32.5t22 13.5q13 0 25.5 -2.5t36.5 -4.5q21 -1 37 -2.5t27 -1.5q19 0 35 18q11 11 15.5 17.5t8.5 6.5q6 0 13.5 -6t7.5 -12
q0 -4 -6 -11t-14 -17q-11 -14 -22 -30.5t-21 -30.5q-6 -8 -15.5 -11t-14.5 -3q-8 0 -25 1.5t-38 3t-41.5 3t-33.5 1.5q-11 0 -19 -9q-11 -13 -17.5 -21t-10.5 -8z" />
  </g>

</svg>
