<?xml version="1.0" standalone="no"?>
<!DOCTYPE svg PUBLIC "-//W3C//DTD SVG 1.1//EN" "http://www.w3.org/Graphics/SVG/1.1/DTD/svg11.dtd" >
<svg xmlns="http://www.w3.org/2000/svg" xmlns:xlink="http://www.w3.org/1999/xlink" version="1.1" viewBox="-16 0 732 1000">
  <g transform="matrix(1 0 0 -1 0 800)">
   <path fill="currentColor"
d="M128 -287q-59 0 -96.5 29t-37.5 77q0 44 19 76t51 49.5t70 17.5q32 0 52 -15t20 -44q0 -30 -19 -48t-48 -18q-12 0 -24 5.5t-21 11.5l-16 10t-16 5q-11 0 -17.5 -12t-6.5 -26q0 -32 24 -53t65 -21q60 0 103.5 36t63.5 103l56 180q3 8 1 13.5t-9 5.5q-88 0 -151 33.5
t-91 94t-12 143.5q14 89 52.5 144.5t99.5 85t143.5 40.5t184.5 11q24 0 50 -1t47 -2.5t30 -3.5q8 -1 10 -8.5t0 -15.5q-3 -9 -8 -17.5t-12 -8.5q-3 0 -14 1.5t-27 3.5t-32.5 3.5t-29.5 1.5q-8 0 -15.5 -6.5t-10.5 -16.5l-204 -664q-19 -61 -48.5 -106.5t-72.5 -69.5
t-103 -24zM349 138q4 0 8 3.5t6 10.5l138 431v1v1q0 5 -5.5 6.5t-10.5 1.5q-19 0 -36.5 -4t-36 -23t-38 -61t-43.5 -117q-38 -119 -38 -178q0 -38 14 -55t42 -17z" />
  </g>

</svg>
