<?xml version="1.0" standalone="no"?>
<!DOCTYPE svg PUBLIC "-//W3C//DTD SVG 1.1//EN" "http://www.w3.org/Graphics/SVG/1.1/DTD/svg11.dtd" >
<svg xmlns="http://www.w3.org/2000/svg" xmlns:xlink="http://www.w3.org/1999/xlink" version="1.1" viewBox="-106 0 415 1000">
  <g transform="matrix(1 0 0 -1 0 800)">
   <path fill="currentColor"
d="M203 706q29 0 49 -42q24 -54 35.5 -117t11.5 -129q0 -122 -41.5 -237t-118.5 -213t-181 -169q-21 -14 -38 -14q-16 0 -16 11q0 4 3 9.5t11 12.5q65 57 120 128.5t96 152.5t63.5 167.5t22.5 172.5q0 58 -5 101.5t-12.5 77.5t-14.5 64q-2 10 2.5 17t12.5 7z" />
  </g>

</svg>
