<?xml version="1.0" standalone="no"?>
<!DOCTYPE svg PUBLIC "-//W3C//DTD SVG 1.1//EN" "http://www.w3.org/Graphics/SVG/1.1/DTD/svg11.dtd" >
<svg xmlns="http://www.w3.org/2000/svg" xmlns:xlink="http://www.w3.org/1999/xlink" version="1.1" viewBox="-10 0 357 1000">
  <g transform="matrix(1 0 0 -1 0 800)">
   <path fill="currentColor"
d="M150 154q-15 0 -26.5 18.5t-19 46.5t-11 58.5t-3.5 54.5q-1 70 26 138t72.5 126t99.5 97q6 5 14.5 8t15.5 3t13 -3.5t6 -9.5q0 -4 -5.5 -10t-10.5 -9q-54 -42 -93 -99.5t-60 -124t-22 -138.5q-1 -44 5 -77t19 -59q-1 -9 -6 -14.5t-14 -5.5z" />
  </g>

</svg>
