<?xml version="1.0" standalone="no"?>
<!DOCTYPE svg PUBLIC "-//W3C//DTD SVG 1.1//EN" "http://www.w3.org/Graphics/SVG/1.1/DTD/svg11.dtd" >
<svg xmlns="http://www.w3.org/2000/svg" xmlns:xlink="http://www.w3.org/1999/xlink" version="1.1" viewBox="-10 0 589 1000">
  <g transform="matrix(1 0 0 -1 0 800)">
   <path fill="currentColor"
d="M170 422q-5 0 -8.5 5t1.5 9l365 383q7 8 15 10t18 2q6 0 7.5 -5t-4.5 -11l-361 -381q-6 -6 -14.5 -9t-18.5 -3zM247 599q-43 0 -55 36t2 83q9 29 26 51.5t39 35.5t45 13q28 0 43 -17t17 -43.5t-7 -56.5t-26 -53t-38.5 -36t-45.5 -13zM250 618q10 0 20.5 13t19 33t13.5 40
q6 19 9 41t1.5 37.5t-11.5 15.5t-20.5 -13t-19 -32t-14.5 -38t-9.5 -42t-1.5 -39t13 -16zM430 429q-43 0 -55 36.5t2 82.5q9 30 26 52t39 35t45 13q28 0 43 -16.5t17 -43t-7 -57.5q-9 -29 -26 -52t-39 -36.5t-45 -13.5zM433 448q10 0 20 13t19 33.5t14 39.5t8.5 41t2 37.5
t-12.5 15.5q-9 0 -19.5 -12.5t-19 -31.5t-14.5 -39q-6 -19 -9.5 -41.5t-1.5 -39t13 -16.5z" />
  </g>

</svg>
