<?xml version="1.0" standalone="no"?>
<!DOCTYPE svg PUBLIC "-//W3C//DTD SVG 1.1//EN" "http://www.w3.org/Graphics/SVG/1.1/DTD/svg11.dtd" >
<svg xmlns="http://www.w3.org/2000/svg" xmlns:xlink="http://www.w3.org/1999/xlink" version="1.1" viewBox="-10 0 397 1000">
  <g transform="matrix(1 0 0 -1 0 800)">
   <path fill="currentColor"
d="M261 427q-32 0 -58 15.5t-41.5 41.5t-15.5 58t15.5 58t42 42t57.5 16q32 0 58 -16t42 -42t16 -58t-16 -58t-42 -41.5t-58 -15.5zM261 449q38 0 64.5 27.5t26.5 65.5t-26.5 64.5t-64.5 26.5t-65 -26.5t-27 -64.5t27 -65.5t65 -27.5zM205 479q-3 0 -3 5t3 6q6 2 10.5 5
t4.5 7v79q0 10 -13 13q-4 1 -4 6t4 5q10 0 15.5 0.5t12.5 0.5q6 1 11.5 1h15.5q22 0 34 -8.5t12 -23.5q0 -12 -6 -18.5t-15 -10.5v-1v-1q3 -7 10 -20t13 -22t14 -9q3 -1 3 -5q0 -10 -20 -10q-7 0 -14.5 4.5t-12.5 12.5l-18 35q-1 3 -3.5 4t-4.5 1q-3 0 -3 -3v-30
q0 -9 15 -12q2 0 2 -1.5t1 -3.5q1 -5 -3 -5q-6 0 -15 0.5t-16 0.5t-14.5 -1t-15.5 -1zM257 552q10 0 16 5t6 13q0 10 -4.5 16t-14.5 6t-10 -8v-26q0 -6 7 -6z" />
  </g>

</svg>
