<?xml version="1.0" standalone="no"?>
<!DOCTYPE svg PUBLIC "-//W3C//DTD SVG 1.1//EN" "http://www.w3.org/Graphics/SVG/1.1/DTD/svg11.dtd" >
<svg xmlns="http://www.w3.org/2000/svg" xmlns:xlink="http://www.w3.org/1999/xlink" version="1.1" viewBox="-10 0 1260 1000">
  <g transform="matrix(1 0 0 -1 0 800)">
   <path fill="currentColor"
d="M167 278q-7 0 -11.5 2.5t-3.5 6.5q2 6 7 10t14 5q28 3 42.5 12t20.5 29l87 285q4 13 0 18t-20 5h-25q-22 0 -45.5 -12t-38.5 -27q-5 -4 -14 -12t-18 -14.5t-16 -6.5q-5 0 -6 3.5t0 8.5q1 4 3.5 8.5t6.5 7.5q21 24 32.5 43.5t21.5 45.5q4 10 11 14t13 4t9 -7.5t7 -13.5
q5 -7 21 -10t34 -3l224 1q18 0 34.5 4t23.5 9q13 8 21.5 13.5t16.5 5.5q11 0 8 -11q-1 -3 -3 -7.5t-4 -8.5q-15 -28 -25 -46t-16 -40q-3 -11 -7 -16t-11 -5q-6 1 -8.5 7t-3.5 15q0 15 -3.5 26t-13.5 17.5t-30 6.5q-14 0 -27.5 -0.5t-20.5 -0.5q-11 0 -18 -7.5t-10 -17.5
l-87 -281q-5 -19 4.5 -27t32.5 -14q7 -2 10.5 -5.5t1.5 -9.5q-2 -10 -17 -10q-13 0 -32.5 0.5l-39 1t-33.5 0.5q-12 0 -30 -0.5l-36 -1t-33 -0.5zM809 268q-6 0 -8 16q-6 75 -9.5 142.5t-9.5 140.5q-1 10 -5.5 8t-9.5 -12q-21 -49 -38.5 -93t-36.5 -93q-15 -41 -13 -60
t20 -21q7 -1 11.5 -3.5t3.5 -7.5t-7 -7t-12 -2q-24 0 -35.5 1t-31.5 1q-13 0 -24.5 -1t-21.5 -1.5t-17 -0.5q-15 0 -13 8q1 5 7 7.5t14 3.5q16 4 29 11t25 23t25 46l96 226q9 21 10.5 34.5t-9.5 21.5t-38 14q-10 2 -14.5 4t-4.5 7q0 7 7.5 8.5t15.5 1.5q12 0 37 -1t51 -1.5
t40 -0.5t18.5 -7.5t5 -20t0.5 -28.5l7 -204q0 -9 4 -9t10 7q52 57 94 108.5t82 103.5q8 14 12.5 23t10.5 17q5 7 13 7h48q19 0 40.5 3t35.5 3q7 0 11.5 -1.5t4.5 -7.5t-7 -9.5t-23 -7.5q-24 -4 -35 -16t-19 -40q-17 -61 -30 -126t-27 -129q-5 -27 3 -40t26 -18
q6 -1 9.5 -3.5t2.5 -7.5q0 -4 -5 -6.5t-11 -2.5q-21 0 -47 2.5t-46 2.5q-13 0 -30 -1.5t-34.5 -2.5t-31.5 -1t-12 9q1 7 19 12q24 5 34.5 14.5t16.5 29.5q12 40 21 76t17.5 71t17.5 73q1 4 -1 4.5t-6 -4.5l-148 -190l-66 -89q-4 -5 -9.5 -9.5t-9.5 -4.5z" />
  </g>

</svg>
