<?xml version="1.0" standalone="no"?>
<!DOCTYPE svg PUBLIC "-//W3C//DTD SVG 1.1//EN" "http://www.w3.org/Graphics/SVG/1.1/DTD/svg11.dtd" >
<svg xmlns="http://www.w3.org/2000/svg" xmlns:xlink="http://www.w3.org/1999/xlink" version="1.1" viewBox="-10 0 1058 1000">
  <g transform="matrix(1 0 0 -1 0 800)">
   <path fill="currentColor"
d="M80 506h41v-104h-41v104zM80 349h41v-104h-41v104zM80 193h41v-104h-41v104zM80 36h41v-104h-41v104zM856 -184h71v64h41v-105h-112v41zM243 622v41h103v-41h-103zM399 622v41h103v-41h-103zM554 622v41h103v-41h-103zM710 622v41h103v-41h-103zM968 -68h-41v104h41v-104
zM968 89h-41v104h41v-104zM968 245h-41v104h41v-104zM968 402h-41v104h41v-104zM807 -184v-41h-102v41h102zM653 -184v-41h-102v41h102zM499 -184v-41h-101v41h101zM345 -184v-41h-102v41h102zM191 -225h-111v105h41v-64h70v-41zM927 559v63h-71v41h112v-104h-41zM80 559
v104h112v-41h-71v-63h-41zM270 -4q-20 0 -18 13q2 6 9 10.5t20 7.5q27 6 42.5 17t22.5 36l91 289q9 29 1 36.5t-33 15.5q-10 3 -13.5 7.5t-3.5 10.5t8 10t19 4q26 0 42.5 -1.5t30 -3t33.5 -1.5q28 0 60.5 4t68.5 4q54 0 85 -13t43 -33.5t12 -45.5q0 -29 -19 -52t-47.5 -38.5
t-57.5 -22.5q-5 -1 -6.5 -4t2.5 -4q25 -5 46.5 -19t35 -36t13.5 -52q0 -40 -22 -66.5t-58.5 -42t-81.5 -22.5t-93 -7q-25 0 -57.5 1.5t-60.5 1.5q-18 0 -38 -0.5t-39 -2t-37 -1.5zM506 28q29 0 57.5 16.5t47 44t18.5 59.5q0 23 -11 40.5t-29 27t-41 9.5q-11 0 -25 -4
t-18 -18l-41 -133q-6 -18 9.5 -30t32.5 -12zM557 250q33 0 61 13t46 37t18 56q0 34 -19 51t-44 17q-18 0 -34 -6.5t-21 -21.5l-36 -118q-3 -10 6 -19t23 -9z" />
  </g>

</svg>
