<?xml version="1.0" standalone="no"?>
<!DOCTYPE svg PUBLIC "-//W3C//DTD SVG 1.1//EN" "http://www.w3.org/Graphics/SVG/1.1/DTD/svg11.dtd" >
<svg xmlns="http://www.w3.org/2000/svg" xmlns:xlink="http://www.w3.org/1999/xlink" version="1.1" viewBox="-10 0 1058 1000">
  <g transform="matrix(1 0 0 -1 0 800)">
   <path fill="currentColor"
d="M80 506h41v-104h-41v104zM80 349h41v-104h-41v104zM80 193h41v-104h-41v104zM80 36h41v-104h-41v104zM856 -184h71v64h41v-105h-112v41zM243 622v41h103v-41h-103zM399 622v41h103v-41h-103zM554 622v41h103v-41h-103zM710 622v41h103v-41h-103zM968 -68h-41v104h41v-104
zM968 89h-41v104h41v-104zM968 245h-41v104h41v-104zM968 402h-41v104h41v-104zM807 -184v-41h-102v41h102zM653 -184v-41h-102v41h102zM499 -184v-41h-101v41h101zM345 -184v-41h-102v41h102zM191 -225h-111v105h41v-64h70v-41zM927 559v63h-71v41h112v-104h-41zM80 559
v104h112v-41h-71v-63h-41zM203 -5q-9 0 -14.5 4.5t-4.5 9.5q1 8 9.5 12t19.5 6q29 5 46.5 16.5t24.5 35.5l88 286q9 27 2.5 38.5t-36.5 18.5q-9 1 -13.5 5.5t-2.5 12.5q1 6 8.5 9.5t16.5 3.5q19 0 38.5 -1t38.5 -2.5t35 -1.5t35 1t39 2t39 1q18 0 16 -12q-3 -14 -29 -19
q-29 -6 -42 -18t-21 -39l-31 -101q-2 -9 0 -14.5t8 -5.5q7 0 22 7.5t34 22.5q26 19 48.5 36.5t44.5 35.5t45 38q15 14 10.5 22.5t-19.5 12.5q-11 3 -16 8.5t-4 12.5q1 5 8.5 8t16.5 3q19 0 32.5 -0.5t26 -1.5t27.5 -1q18 0 30.5 1.5t27.5 2t38 0.5q10 0 16 -2.5t4 -9.5
q0 -7 -9 -11.5t-21 -7.5q-33 -6 -56 -13t-50 -24q-34 -23 -66.5 -49t-65.5 -52q-11 -8 -12.5 -17t4.5 -23q30 -68 53.5 -112.5t47.5 -68t52 -30.5q14 -3 19 -7.5t4 -12.5q-2 -7 -11.5 -11t-25.5 -4q-23 0 -40 1.5t-32.5 3t-35.5 1.5q-22 0 -43 22t-43 66t-47 110
q-2 6 -7 11.5t-13 5.5t-14.5 -3.5t-8.5 -12.5q-6 -19 -13 -41t-13 -43.5t-11 -37.5q-6 -23 2.5 -35.5t31.5 -16.5q10 -2 15 -6t4 -11q-1 -6 -9 -9.5t-19 -3.5q-34 0 -60.5 2.5t-51.5 2.5q-26 0 -50.5 -3.5t-66.5 -3.5z" />
  </g>

</svg>
