<?xml version="1.0" standalone="no"?>
<!DOCTYPE svg PUBLIC "-//W3C//DTD SVG 1.1//EN" "http://www.w3.org/Graphics/SVG/1.1/DTD/svg11.dtd" >
<svg xmlns="http://www.w3.org/2000/svg" xmlns:xlink="http://www.w3.org/1999/xlink" version="1.1" viewBox="-10 0 1058 1000">
  <g transform="matrix(1 0 0 -1 0 800)">
   <path fill="currentColor"
d="M80 506h41v-104h-41v104zM80 349h41v-104h-41v104zM80 193h41v-104h-41v104zM80 36h41v-104h-41v104zM856 -184h71v64h41v-105h-112v41zM243 622v41h103v-41h-103zM399 622v41h103v-41h-103zM554 622v41h103v-41h-103zM710 622v41h103v-41h-103zM968 -68h-41v104h41v-104
zM968 89h-41v104h41v-104zM968 245h-41v104h41v-104zM968 402h-41v104h41v-104zM807 -184v-41h-102v41h102zM653 -184v-41h-102v41h102zM499 -184v-41h-101v41h101zM345 -184v-41h-102v41h102zM191 -225h-111v105h41v-64h70v-41zM927 559v63h-71v41h112v-104h-41zM80 559
v104h112v-41h-71v-63h-41zM283 -3q-9 0 -13.5 4t-3.5 10q2 15 28 19q33 6 49 17t23 36l89 289q8 22 0.5 32t-35.5 15q-11 3 -14 8t-2 11q1 7 8 11t18 4q16 0 33 -1t33 -2t30 -1q44 0 94 0.5t94 0.5q14 0 30.5 3t29 6t14.5 3q6 0 11 -4t3 -12q-7 -24 -14.5 -47.5t-14.5 -52.5
q-2 -9 -7 -14t-10 -5q-4 0 -8.5 3t-4.5 14q-2 36 -7 56t-30 20h-78q-17 0 -28.5 -7t-15.5 -21l-37 -132q-3 -8 0 -13t12 -5l64 1q14 1 27.5 14t26.5 30q6 7 11.5 12t12.5 5q5 0 6 -6t-3 -14q-6 -14 -12 -30t-11 -33q-4 -13 -6.5 -24.5t-5.5 -24.5t-8 -18.5t-10 -5.5t-9 6.5
t-3 13.5q0 21 -6.5 29t-17.5 10t-24.5 2h-22.5q-19 0 -30.5 -4.5t-16.5 -18.5l-32 -103q-7 -25 5 -35.5t44 -17.5q11 -2 14.5 -6.5t2.5 -12.5q-1 -6 -8 -9.5t-16 -3.5q-14 0 -31 0.5t-35 1t-34.5 1t-30.5 0.5q-17 0 -37.5 -1t-40.5 -2t-39 -1z" />
  </g>

</svg>
