<?xml version="1.0" standalone="no"?>
<!DOCTYPE svg PUBLIC "-//W3C//DTD SVG 1.1//EN" "http://www.w3.org/Graphics/SVG/1.1/DTD/svg11.dtd" >
<svg xmlns="http://www.w3.org/2000/svg" xmlns:xlink="http://www.w3.org/1999/xlink" version="1.1" viewBox="-10 0 1058 1000">
  <g transform="matrix(1 0 0 -1 0 800)">
   <path fill="currentColor"
d="M80 506h41v-104h-41v104zM80 349h41v-104h-41v104zM80 193h41v-104h-41v104zM80 36h41v-104h-41v104zM856 -184h71v64h41v-105h-112v41zM243 622v41h103v-41h-103zM399 622v41h103v-41h-103zM554 622v41h103v-41h-103zM710 622v41h103v-41h-103zM968 -68h-41v104h41v-104
zM968 89h-41v104h41v-104zM968 245h-41v104h41v-104zM968 402h-41v104h41v-104zM807 -184v-41h-102v41h102zM653 -184v-41h-102v41h102zM499 -184v-41h-101v41h101zM345 -184v-41h-102v41h102zM191 -225h-111v105h41v-64h70v-41zM927 559v63h-71v41h112v-104h-41zM80 559
v104h112v-41h-71v-63h-41zM263 -3q-8 0 -13 3.5t-3 10.5q1 9 9 13t18 6q33 6 49 17.5t23 35.5l85 274q9 30 2.5 44t-36.5 19q-10 2 -14 7t-4 12q1 7 10 10.5t17 3.5q20 0 38.5 -1.5t36.5 -2.5t33 -1q17 0 32 2.5t33 4.5t44 2q53 0 91.5 -17.5t60 -49t20.5 -73.5
q-2 -47 -35 -84t-86.5 -57.5t-114.5 -20.5q-16 0 -26 3.5t-10 13.5q0 8 9.5 10.5t22.5 4.5q37 6 65 24t45 47.5t17 65.5q2 52 -17 76.5t-49 24.5q-16 0 -26.5 -4t-17.5 -15.5t-15 -34.5l-88 -291q-7 -21 4.5 -33t44.5 -19q10 -2 15 -6.5t4 -12.5q-1 -7 -8.5 -9t-16.5 -2
q-14 0 -31.5 0.5l-35 1t-34.5 1t-30 0.5q-17 0 -37.5 -1t-40.5 -2t-40 -1z" />
  </g>

</svg>
