<?xml version="1.0" standalone="no"?>
<!DOCTYPE svg PUBLIC "-//W3C//DTD SVG 1.1//EN" "http://www.w3.org/Graphics/SVG/1.1/DTD/svg11.dtd" >
<svg xmlns="http://www.w3.org/2000/svg" xmlns:xlink="http://www.w3.org/1999/xlink" version="1.1" viewBox="-10 0 1058 1000">
  <g transform="matrix(1 0 0 -1 0 800)">
   <path fill="currentColor"
d="M80 506h41v-104h-41v104zM80 349h41v-104h-41v104zM80 193h41v-104h-41v104zM80 36h41v-104h-41v104zM856 -184h71v64h41v-105h-112v41zM243 622v41h103v-41h-103zM399 622v41h103v-41h-103zM554 622v41h103v-41h-103zM710 622v41h103v-41h-103zM968 -68h-41v104h41v-104
zM968 89h-41v104h41v-104zM968 245h-41v104h41v-104zM968 402h-41v104h41v-104zM807 -184v-41h-102v41h102zM653 -184v-41h-102v41h102zM499 -184v-41h-101v41h101zM345 -184v-41h-102v41h102zM191 -225h-111v105h41v-64h70v-41zM927 559v63h-71v41h112v-104h-41zM80 559
v104h112v-41h-71v-63h-41zM341 -2q-6 0 -11 3.5t-3 9.5q2 8 9.5 12t15.5 5q24 5 40 13t23 32l91 294q8 25 1 37t-32 17q-8 2 -12 6.5t-2 12.5q2 7 9 10t14 3q16 0 35 -1l38 -2t35 -1t36.5 1t42 1.5t37.5 0.5q7 0 11.5 -3t2.5 -9q-2 -7 -9.5 -11t-15.5 -7q-24 -6 -36 -13
t-18 -17t-11 -26l-90 -291q-6 -22 3.5 -31t29.5 -15q7 -2 12.5 -5.5t2.5 -11.5q-1 -7 -8.5 -10t-12.5 -3q-16 0 -36.5 1t-41 1.5t-37.5 0.5t-37 -0.5t-39.5 -2t-36.5 -1.5z" />
  </g>

</svg>
