<?xml version="1.0" standalone="no"?>
<!DOCTYPE svg PUBLIC "-//W3C//DTD SVG 1.1//EN" "http://www.w3.org/Graphics/SVG/1.1/DTD/svg11.dtd" >
<svg xmlns="http://www.w3.org/2000/svg" xmlns:xlink="http://www.w3.org/1999/xlink" version="1.1" viewBox="-10 0 1058 1000">
  <g transform="matrix(1 0 0 -1 0 800)">
   <path fill="currentColor"
d="M80 506h41v-104h-41v104zM80 349h41v-104h-41v104zM80 193h41v-104h-41v104zM80 36h41v-104h-41v104zM856 -184h71v64h41v-105h-112v41zM243 622v41h103v-41h-103zM399 622v41h103v-41h-103zM554 622v41h103v-41h-103zM710 622v41h103v-41h-103zM968 -68h-41v104h41v-104
zM968 89h-41v104h41v-104zM968 245h-41v104h41v-104zM968 402h-41v104h41v-104zM807 -184v-41h-102v41h102zM653 -184v-41h-102v41h102zM499 -184v-41h-101v41h101zM345 -184v-41h-102v41h102zM191 -225h-111v105h41v-64h70v-41zM927 559v63h-71v41h112v-104h-41zM80 559
v104h112v-41h-71v-63h-41zM258 -3q-7 0 -10.5 4.5t-1.5 10.5q2 8 9.5 12t16.5 6q23 5 38 13t22 31l89 291q9 25 3 37t-31 18q-8 2 -12 6.5t-2 11.5t9.5 11t13.5 4q15 0 30.5 -1t30.5 -2t27 -1q42 0 90 0.5t86 1.5q28 0 49.5 2.5t30.5 2.5q5 0 10.5 -2.5t2.5 -11.5
q-5 -18 -8 -38t-5.5 -37.5t-6.5 -28.5q-1 -6 -5 -11t-9 -5q-4 0 -8.5 4.5t-5.5 12.5q-3 22 -6 40t-12 29t-31 11h-68q-12 0 -23.5 -7t-15.5 -22l-38 -126q-4 -11 0 -16t12 -5h56q17 0 29.5 11t27.5 35q6 7 11 10.5t10 3.5t6.5 -4.5t-1.5 -12.5q-8 -18 -13 -32t-10 -29
t-8 -24.5t-6 -29.5q-2 -10 -6.5 -16t-8.5 -6q-6 0 -9.5 7t-3.5 14q0 22 -5.5 30.5t-18.5 9.5q-14 1 -31 1h-32q-9 0 -14 -4t-8 -13l-37 -126q-5 -18 0 -25t21 -7h75q31 1 61.5 24.5t51.5 49.5q5 6 10 10.5t11 4.5t7 -5.5t-1 -11.5q-7 -24 -20.5 -45t-28.5 -48q-4 -7 -12 -12
t-16 -5q-20 0 -49.5 0.5t-63.5 1t-68.5 1t-67.5 0.5q-16 0 -36 -1t-39 -2t-34 -1z" />
  </g>

</svg>
