<?xml version="1.0" standalone="no"?>
<!DOCTYPE svg PUBLIC "-//W3C//DTD SVG 1.1//EN" "http://www.w3.org/Graphics/SVG/1.1/DTD/svg11.dtd" >
<svg xmlns="http://www.w3.org/2000/svg" xmlns:xlink="http://www.w3.org/1999/xlink" version="1.1" viewBox="-10 0 784 1000">
  <g transform="matrix(1 0 0 -1 0 800)">
   <path fill="currentColor"
d="M320 -286q-6 0 -12 3t-6 9q0 8 7 12t16 7q22 7 35 15.5t13 29.5v78q-15 -11 -33 -23l-39 -26q-7 -4 -18 -16t-20.5 -24t-12.5 -19q-11 -24 -20.5 -31t-21.5 -6q-5 1 -15.5 10t-18 21t-6.5 19q1 11 9 21t33 27t74 46q22 14 44 28.5t45 31.5v72q0 14 -2 19.5t-4 5.5
t-4.5 -1.5t-4.5 -3.5q-22 -13 -53.5 -23t-67.5 -10q-53 0 -96.5 25.5t-70 71t-26.5 105.5q0 65 29 119.5t84 87t134 32.5q35 0 63 -6t47.5 -12t28.5 -6q10 0 18 5t14 13q4 2 6.5 4t5.5 2q8 0 13 -3.5t5 -8.5q0 -7 -4 -27t-6 -49q30 31 68.5 49t82.5 18q49 0 84.5 -28.5
t35.5 -78.5q0 -58 -19.5 -108t-52 -93t-72 -79.5t-79.5 -66.5q-12 -10 -24.5 -18.5t-24.5 -18.5v-131q0 -18 12.5 -25t31.5 -13q10 -3 16.5 -7.5t6.5 -12.5q0 -6 -6.5 -9t-13.5 -3q-30 0 -53 2.5t-50 2.5q-17 0 -33.5 -1t-34 -2.5t-37.5 -1.5zM286 36q20 0 36.5 6t31.5 18
q9 7 13 21.5t5.5 34.5t1.5 42v62.5t-1 57.5q0 47 -30 78t-72 31q-29 0 -53 -22t-38.5 -60.5t-14.5 -89.5q0 -39 10 -71.5t27 -57t39 -37.5t45 -13zM481 -19q10 8 19 16.5t18 16.5q54 46 85.5 111.5t31.5 147.5q0 33 -14.5 50.5t-40.5 17.5q-25 0 -52 -21.5t-47 -46.5v-292z
" />
  </g>

</svg>
