<?xml version="1.0" standalone="no"?>
<!DOCTYPE svg PUBLIC "-//W3C//DTD SVG 1.1//EN" "http://www.w3.org/Graphics/SVG/1.1/DTD/svg11.dtd" >
<svg xmlns="http://www.w3.org/2000/svg" xmlns:xlink="http://www.w3.org/1999/xlink" version="1.1" viewBox="-10 0 997 1000">
  <g transform="matrix(1 0 0 -1 0 800)">
   <path fill="currentColor"
d="M83 -4q-9 0 -14 3.5t-4 9.5q4 15 31 20q36 8 52.5 22t26.5 47l145 469q6 21 1.5 32.5t-25.5 11.5q-42 0 -76.5 -17t-38.5 -52q-2 -10 2.5 -17t9.5 -14q6 -7 11.5 -14.5t2.5 -16.5q-4 -13 -19 -25.5t-31.5 -20.5t-24.5 -8q-12 0 -20.5 10t-12.5 25.5t-2 31.5q4 42 26.5 72
t60.5 49t91.5 28t118.5 9q26 0 51 0.5t49 1.5t47 1q19 0 16 -14q-1 -8 -9 -12.5t-22 -7.5q-27 -6 -43.5 -15t-26 -22t-15.5 -33l-58 -188q-3 -12 11 -12h275q11 0 15 14l58 187q9 29 1 43t-43 26q-11 3 -15 7.5t-3 12.5q1 7 8.5 10.5t16.5 3.5q23 0 46 -1t45 -2t42 -1
q18 0 36.5 1t38.5 2t43 1q9 0 14 -3.5t4 -9.5q-3 -16 -31 -21q-37 -8 -51.5 -23t-23.5 -46l-140 -453q-11 -33 -4 -47t39 -22q11 -2 15 -7t3 -13q-1 -6 -9.5 -9.5t-16.5 -3.5q-22 0 -42 1.5t-40 2.5t-39 1t-41 -1t-45 -2t-46 -1q-19 0 -17 13q2 8 9.5 12t21.5 7
q37 9 56.5 24t27.5 45l60 192q3 7 3 11.5t-7 4.5h-280q-12 0 -16 -14l-59 -190q-9 -30 2.5 -46t44.5 -27q11 -3 15.5 -7t2.5 -12q-1 -7 -8 -10t-17 -3q-23 0 -46 1t-44.5 2t-42.5 1q-20 0 -41 -1t-42.5 -2.5t-43.5 -1.5z" />
  </g>

</svg>
