<?xml version="1.0" standalone="no"?>
<!DOCTYPE svg PUBLIC "-//W3C//DTD SVG 1.1//EN" "http://www.w3.org/Graphics/SVG/1.1/DTD/svg11.dtd" >
<svg xmlns="http://www.w3.org/2000/svg" xmlns:xlink="http://www.w3.org/1999/xlink" version="1.1" viewBox="-10 0 731 1000">
  <g transform="matrix(1 0 0 -1 0 800)">
   <path fill="currentColor"
d="M318 -287q-19 0 -35.5 12t-26 30t-9.5 37q0 39 17.5 72t46 61.5t62.5 51.5t66 41l10 -3q-34 -14 -71 -21.5t-77 -7.5q-73 0 -126 33.5t-82 92t-29 130.5q0 78 30 153.5t84.5 136t129.5 96.5t166 36q73 0 126.5 -33.5t82 -91.5t28.5 -131q0 -69 -23 -135t-65 -122t-97 -94
q-61 -42 -100.5 -82t-59.5 -77t-20 -75q0 -13 8 -22.5t25 -9.5q14 0 31.5 12.5t28.5 27.5l5.5 5.5t7.5 5t7 -3.5q3 -1 2 -7.5t-2 -10.5q-6 -18 -20 -36.5t-33.5 -34.5t-42 -26t-45.5 -10zM307 31q48 0 90.5 27.5t78 73.5t61 102t39.5 115t14 111q0 45 -13.5 81t-40.5 57.5
t-68 21.5q-47 0 -89 -27.5t-77.5 -73.5t-61.5 -103t-40.5 -115.5t-14.5 -111.5q0 -44 13.5 -80t40.5 -57t68 -21zM394 719q-8 0 -13 5t-5 11q0 20 9.5 36.5t23.5 16.5h260q8 0 12.5 -4.5t4.5 -10.5q0 -21 -11.5 -37.5t-26.5 -16.5h-254z" />
  </g>

</svg>
