<?xml version="1.0" standalone="no"?>
<!DOCTYPE svg PUBLIC "-//W3C//DTD SVG 1.1//EN" "http://www.w3.org/Graphics/SVG/1.1/DTD/svg11.dtd" >
<svg xmlns="http://www.w3.org/2000/svg" xmlns:xlink="http://www.w3.org/1999/xlink" version="1.1" viewBox="-10 0 924 1000">
  <g transform="matrix(1 0 0 -1 0 800)">
   <path fill="currentColor"
d="M198 -4q-9 0 -14 3.5t-4 9.5q5 15 31 20q39 8 59 22t30 47l52 170q3 8 2 14t-7 6q-55 4 -84.5 24t-43 54t-19.5 78q-10 59 -24 89t-34 30q-10 0 -18.5 -3.5t-13.5 -3.5q-14 0 -14 13t15 24.5t37 18t43 6.5q43 0 68 -20.5t36 -55.5t12 -77q2 -34 2.5 -67.5t11 -56
t40.5 -24.5q5 0 7 3.5t6 14.5l66 216q10 33 1 47t-44 22q-24 5 -18 21q2 6 10 9.5t16 3.5q24 0 45.5 -1t42.5 -2t42 -1q20 0 41.5 1t45 2t46.5 1q20 0 16 -14q-3 -8 -10 -12.5t-21 -7.5q-27 -6 -44 -14t-26.5 -21t-15.5 -35l-67 -217q-4 -11 -3 -14.5t8 -2.5q29 1 52.5 24
t44.5 58t41 70q33 57 61 91.5t57 50.5t64 16q36 0 57.5 -17t21.5 -34q0 -10 -7 -16.5t-20 -6.5q-24 0 -45 -16t-44 -44t-52 -65q-27 -35 -61 -67.5t-78.5 -53.5t-101.5 -21q-8 0 -11.5 -7t-6.5 -16l-50 -164q-9 -31 2.5 -45t45.5 -24q11 -3 16 -7t2 -12q-1 -7 -8 -10t-17 -3
q-23 0 -45.5 1t-44 2t-42.5 1q-32 0 -67.5 -2.5t-70.5 -2.5z" />
  </g>

</svg>
