<?xml version="1.0" standalone="no"?>
<!DOCTYPE svg PUBLIC "-//W3C//DTD SVG 1.1//EN" "http://www.w3.org/Graphics/SVG/1.1/DTD/svg11.dtd" >
<svg xmlns="http://www.w3.org/2000/svg" xmlns:xlink="http://www.w3.org/1999/xlink" version="1.1" viewBox="-45 0 945 1000">
  <g transform="matrix(1 0 0 -1 0 800)">
   <path fill="currentColor"
d="M499 -208q-11 0 -15.5 7.5t-0.5 19.5q2 6 5 12t7 12q13 18 28.5 43.5t28 49t14.5 34.5q5 17 -3 24t-31 7q-19 0 -37.5 -1t-38 -2.5t-42.5 -1.5q-8 0 -13.5 3.5t-4.5 9.5q4 15 31 20q37 8 56.5 22.5t28.5 45.5l103 337q2 5 0.5 8.5t-5.5 0.5l-388 -311q-5 -4 -7.5 -7.5
t-4.5 -10.5l-5 -16q-9 -30 3 -45t46 -24q11 -3 15 -7t2 -12q-1 -7 -8 -10t-17 -3q-22 0 -45 1t-45 2t-42 1t-41.5 -1t-43.5 -2.5t-46 -1.5q-8 0 -13 3.5t-4 9.5q3 15 30 20q39 8 55.5 22t27.5 47l139 453q11 33 4.5 47t-42.5 22q-11 2 -15 7.5t-2 13.5q1 6 9 9.5t17 3.5
q23 0 44.5 -1t41 -2t38.5 -1q20 0 41.5 1t44 2t45.5 1q20 0 17 -14q-2 -8 -9.5 -12.5t-21.5 -7.5q-27 -6 -44 -15t-26.5 -22t-15.5 -33l-97 -323q-3 -11 0 -13t12 5l374 306q5 4 9 8.5t6 11.5l4 11q8 24 0.5 39.5t-43.5 24.5q-11 2 -15 7.5t-2 13.5q1 6 9 9.5t17 3.5
q23 0 45 -1t43 -2t41 -1q19 0 39 1t41.5 2t44.5 1q20 0 17 -14q-2 -8 -9.5 -12.5t-21.5 -7.5q-27 -6 -42 -15t-23 -22t-14 -32l-141 -457q-8 -25 2 -41t49 -23q8 -1 8.5 -7t-2.5 -12q-3 -8 -19.5 -27.5t-39.5 -45.5t-48 -56t-46 -60q-10 -15 -21.5 -22.5t-21.5 -7.5z
M548 693q-65 0 -100 30t-35 71q0 29 20.5 53t50.5 24q20 0 31 -10t11 -26q0 -12 -4 -22t-8.5 -19t-4.5 -19q0 -13 12 -23t40 -10q51 0 86.5 24.5t56.5 70.5q6 12 9.5 16t9.5 4q10 0 10 -13q0 -21 -13.5 -47.5t-38 -50t-58 -38.5t-75.5 -15z" />
  </g>

</svg>
