<?xml version="1.0" standalone="no"?>
<!DOCTYPE svg PUBLIC "-//W3C//DTD SVG 1.1//EN" "http://www.w3.org/Graphics/SVG/1.1/DTD/svg11.dtd" >
<svg xmlns="http://www.w3.org/2000/svg" xmlns:xlink="http://www.w3.org/1999/xlink" version="1.1" viewBox="-148 0 676 1000">
  <g transform="matrix(1 0 0 -1 0 800)">
   <path fill="currentColor"
d="M-126 -285q-4 0 -8 2.5t-4 7.5q1 8 8.5 13t16.5 6q27 7 40.5 14.5t21.5 30.5l213 666q27 92 70.5 147t92 79.5t90.5 24.5q45 0 74 -20.5t29 -52.5q0 -26 -13 -45t-32 -19q-13 0 -20.5 15t-15.5 33q-7 20 -19.5 34t-33.5 14t-39.5 -18t-33.5 -51t-29 -77
q-13 -38 -24 -69.5t-21 -60t-21 -60t-23 -72.5q-3 -10 -0.5 -9.5t7.5 8.5q34 51 71.5 89.5t75.5 60t73 21.5q31 0 54.5 -21.5t23.5 -64.5q0 -47 -18.5 -96.5t-51 -95.5t-75.5 -82t-92.5 -57t-101.5 -21q-17 0 -36 4t-33 11l29 28l-68 -237q-7 -22 8 -31t41 -16q8 -2 14 -5
t5 -12q-1 -5 -7.5 -8t-14.5 -3q-16 0 -36.5 0.5t-40 0t-32.5 -0.5q-25 -1 -55.5 -3t-58.5 -2zM196 26q12 0 30.5 13t39.5 35.5t39 49.5q19 26 36.5 60t29 67.5t14.5 59t-8 35.5q-8 5 -21.5 0.5t-30.5 -17t-35 -31.5q-14 -7 -33 -26t-38.5 -44.5t-35.5 -52t-26.5 -50
t-10.5 -37.5q0 -26 16.5 -44t33.5 -18z" />
  </g>

</svg>
