<?xml version="1.0" standalone="no"?>
<!DOCTYPE svg PUBLIC "-//W3C//DTD SVG 1.1//EN" "http://www.w3.org/Graphics/SVG/1.1/DTD/svg11.dtd" >
<svg xmlns="http://www.w3.org/2000/svg" xmlns:xlink="http://www.w3.org/1999/xlink" version="1.1" viewBox="-21 0 380 1000">
  <g transform="matrix(1 0 0 -1 0 800)">
   <path fill="currentColor"
d="M44 -251q-6 0 -11.5 2.5t-5.5 8.5q0 5 3.5 7t7.5 3q27 10 50 27.5t39 65.5q9 29 19.5 50t28.5 46q8 12 21.5 26.5t28 28.5t23.5 23l-9 14l51 23q-15 -25 -24 -55.5t-15 -59.5q-10 -53 -26.5 -97.5t-58.5 -70.5q-19 -12 -46 -21.5t-49 -15t-27 -5.5zM103 -14
q-34 0 -59.5 13t-40 33t-14.5 42q0 26 8.5 45t29.5 34.5t56 31.5l84 41q45 21 60.5 45.5t15.5 50.5q0 21 -13 34t-36 13q-24 0 -46 -13.5t-32 -31.5q-3 -5 -8 -8.5t-10 -3.5q-4 0 -8.5 6.5t-7.5 15t-3 13.5q0 14 21.5 32.5t57.5 33t77 14.5q59 0 85.5 -26t27.5 -63
q1 -32 -25 -63t-78 -56l-84 -40q-32 -16 -47.5 -33.5t-15.5 -42.5q0 -24 17.5 -36.5t47.5 -12.5t58 13.5t51 30.5q3 2 6 4.5t7 2.5q3 0 6.5 -4.5t3.5 -9.5q0 -11 -13.5 -28.5t-38.5 -35t-60.5 -29.5t-79.5 -12z" />
  </g>

</svg>
