<?xml version="1.0" standalone="no"?>
<!DOCTYPE svg PUBLIC "-//W3C//DTD SVG 1.1//EN" "http://www.w3.org/Graphics/SVG/1.1/DTD/svg11.dtd" >
<svg xmlns="http://www.w3.org/2000/svg" xmlns:xlink="http://www.w3.org/1999/xlink" version="1.1" viewBox="-10 0 555 1000">
  <g transform="matrix(1 0 0 -1 0 800)">
   <path fill="currentColor"
d="M62 -14q-12 0 -27 16t-15 45q0 11 8.5 26t33.5 34l286 199q40 62 75 91.5t64 29.5q18 0 28.5 -9t15 -20t4.5 -20q0 -12 -5 -21t-18 -18l-373 -256q-4 -8 -13.5 -24.5t-20.5 -32.5t-22.5 -28t-20.5 -12zM137 148q19 41 28 71t9 48q0 30 -15.5 42.5t-35.5 12.5
q-11 0 -24.5 -4t-25.5 -10q-7 -4 -12 -6.5t-7 -2.5q-10 0 -10 10q0 29 19.5 56t49 44.5t58.5 17.5q32 0 54 -18t22 -55q0 -33 -19 -80t-64 -112zM337 -15q-29 0 -53 25.5t-24 67.5q0 32 14 71.5t45 82.5l25 9q-15 -32 -22.5 -57t-7.5 -43q0 -29 14.5 -42t36.5 -12
q22 0 48 11.5t49 31.5q10 8 14 8q5 0 6.5 -3.5t0.5 -7.5q-3 -25 -15 -50t-31.5 -46t-44.5 -33.5t-55 -12.5z" />
  </g>

</svg>
