<?xml version="1.0" standalone="no"?>
<!DOCTYPE svg PUBLIC "-//W3C//DTD SVG 1.1//EN" "http://www.w3.org/Graphics/SVG/1.1/DTD/svg11.dtd" >
<svg xmlns="http://www.w3.org/2000/svg" xmlns:xlink="http://www.w3.org/1999/xlink" version="1.1" viewBox="-10 0 1210 1000">
  <g transform="matrix(1 0 0 -1 0 800)">
   <path fill="currentColor"
d="M225 -13q-92 0 -124.5 71.5t12.5 215.5l85 275q11 34 0 48.5t-36 21.5q-23 6 -18 22q2 6 10 9.5t17 3.5q29 0 61.5 -2t63.5 -2q20 0 44 1t47 1.5t39 0.5q11 0 16 -3t3 -10q-3 -9 -11 -13t-21 -8q-21 -5 -38 -13.5t-29 -22t-18 -33.5l-88 -283q-10 -35 -16 -71t-3 -66
t18.5 -48.5t47.5 -18.5t63.5 23.5t60.5 64.5t54 95.5t45 116.5l57 186q10 32 0 47t-38 23q-11 4 -16 8.5t-2 12.5q2 7 9 10.5t16 3.5q19 0 41.5 -1t46.5 -2t43 -1q30 0 65 2t61 2q9 0 15 -3.5t4 -10.5q-3 -8 -11 -12.5t-21 -8.5q-18 -4 -34.5 -12.5t-29 -22t-19.5 -34.5
l-89 -290q-12 -40 -16.5 -75.5t0.5 -62.5t21.5 -42.5t45.5 -15.5q32 0 62.5 21.5t58.5 60.5t52 89.5t41 107.5l64 207q7 23 3.5 35.5t-15.5 20t-32 13.5q-9 3 -15 7.5t-3 13.5q4 13 25 13q17 0 38 -0.5t43 -1.5t39 -1q36 0 73.5 2.5t76.5 2.5q9 0 15 -3.5t4 -9.5
q-5 -15 -32 -20q-39 -8 -59 -22.5t-31 -48.5l-140 -452q-9 -31 0.5 -45t44.5 -23q12 -3 17 -7.5t2 -12.5q-1 -7 -8.5 -10t-17.5 -3q-22 0 -43.5 1t-40.5 1.5t-35 0.5q-20 0 -40.5 -3.5t-32.5 -3.5q-11 0 -7 12q3 9 8.5 19.5t9.5 21.5l11 28q3 9 3.5 14t-5.5 5q-3 0 -8.5 -6
t-10.5 -13q-19 -21 -48 -41.5t-62 -34t-68 -13.5q-39 0 -64.5 11.5t-40.5 28.5t-23.5 36.5t-13.5 36.5q-2 8 -8 8q-2 0 -6 -2.5t-9 -8.5q-40 -48 -92 -78.5t-114 -30.5z" />
  </g>

</svg>
