<?xml version="1.0" standalone="no"?>
<!DOCTYPE svg PUBLIC "-//W3C//DTD SVG 1.1//EN" "http://www.w3.org/Graphics/SVG/1.1/DTD/svg11.dtd" >
<svg xmlns="http://www.w3.org/2000/svg" xmlns:xlink="http://www.w3.org/1999/xlink" version="1.1" viewBox="-10 0 791 1000">
  <g transform="matrix(1 0 0 -1 0 800)">
   <path fill="currentColor"
d="M267 -3q-6 0 -9.5 4.5t-2.5 10.5q2 8 12.5 10t19.5 4q23 5 35.5 15t18.5 33l90 291q8 25 2.5 37t-31.5 18q-7 2 -11.5 6.5t-2.5 11.5t10 11t14 4q14 0 29.5 -1t30.5 -2t27 -1q43 0 91 0.5t86 1.5q28 0 49.5 2.5t30.5 2.5q5 0 10.5 -2.5t2.5 -11.5q-5 -18 -8.5 -39t-6 -39
t-6.5 -29q-1 -5 -5 -10t-8 -5t-8.5 4t-6.5 13q-3 22 -6 39.5t-12 28.5t-31 11h-68q-12 0 -23.5 -7t-15.5 -22l-38 -123q-3 -11 0.5 -16t11.5 -5h57q16 0 29 11t28 35q6 7 11 10.5t10 3.5t6.5 -4.5t-2.5 -12.5q-7 -18 -12.5 -32t-10.5 -29q-4 -15 -7 -24.5t-7 -29.5
q-2 -10 -6 -16t-9 -6q-6 0 -9 7t-3 14q0 22 -5.5 30.5t-18.5 9.5q-14 1 -31 1h-32q-10 0 -15 -4t-7 -13l-37 -124q-6 -18 -1 -25.5t21 -7.5h75q32 1 62.5 24t51.5 49q4 6 9.5 10.5t10.5 4.5q6 0 7 -5.5t-1 -11.5q-6 -24 -19 -45t-29 -48q-5 -7 -12.5 -12t-16.5 -5
q-20 0 -49 0.5t-63 1t-69 1t-67 0.5q-16 0 -36 -1t-39 -2t-35 -1zM232 -14q-57 0 -99 23.5t-65 64t-23 90.5q0 55 24 107t67 94.5t102 67.5t131 25q43 0 78 -14t58 -39l-80 -66q3 26 -5.5 45.5t-24 30t-36.5 10.5q-30 0 -58.5 -18.5t-53 -49.5t-43 -70t-30 -78.5
t-11.5 -75.5q-1 -30 7.5 -56t26.5 -41.5t44 -15.5q35 0 68 30t52 71l48 -86q-37 -22 -82 -35.5t-95 -13.5z" />
  </g>

</svg>
