<?xml version="1.0" standalone="no"?>
<!DOCTYPE svg PUBLIC "-//W3C//DTD SVG 1.1//EN" "http://www.w3.org/Graphics/SVG/1.1/DTD/svg11.dtd" >
<svg xmlns="http://www.w3.org/2000/svg" xmlns:xlink="http://www.w3.org/1999/xlink" version="1.1" viewBox="-59 0 1121 1000">
  <g transform="matrix(1 0 0 -1 0 800)">
   <path fill="currentColor"
d="M692 -205q-11 0 -15.5 8t-0.5 19q2 6 5 12t7 12q13 18 28 44t27 49.5t15 33.5q6 18 -3 25t-35 7q-21 0 -42.5 -2t-43.5 -4t-46 -2q-10 0 -15.5 3.5t-3.5 10.5q1 7 10 12t21 8q37 9 54.5 23t27.5 46q20 65 36.5 124t31.5 117t29 119q2 6 -1.5 6t-9.5 -6l-269 -312
l-106 -141q-6 -8 -13.5 -14.5t-11.5 -6.5q-5 0 -9 6.5t-4 17.5q2 119 -2.5 234.5t-10.5 232.5q-1 15 -9 13t-15 -18q-40 -79 -76 -157t-66 -157q-17 -44 -20.5 -70.5t4.5 -39.5t26 -18q11 -2 18.5 -6t6.5 -13q-1 -6 -11.5 -9.5t-19.5 -3.5q-27 0 -42 1t-28 1.5t-35 0.5
q-20 0 -39.5 -1.5t-35.5 -2.5t-27 -1q-24 0 -21 12q1 8 10.5 11.5t23.5 7.5q26 7 46 18t40 36t43 72l179 358q17 34 18.5 55.5t-18.5 35.5t-65 22q-16 3 -23.5 6.5t-7.5 12.5t12 12t26 3q20 0 53.5 -1t69.5 -2.5t59 -1.5q21 0 28 -11.5t7.5 -31.5t0.5 -45l12 -366
q1 -15 7 -15t16 11q58 60 112 126t104.5 131t94.5 122q13 21 21.5 35.5t16.5 27.5t21 13h44q20 0 42.5 2t43.5 4t35 2q12 0 20 -3t8 -11q0 -9 -11.5 -15.5t-37.5 -11.5t-42.5 -14.5t-26 -27t-18.5 -47.5q-13 -48 -27 -102.5t-27.5 -111t-24.5 -112.5t-19 -107
q-4 -22 10.5 -40.5t53.5 -22.5q8 0 8.5 -6t-1.5 -12q-4 -8 -20.5 -27.5t-39.5 -45.5t-48 -56t-46 -60q-11 -15 -22 -22.5t-21 -7.5z" />
  </g>

</svg>
