<?xml version="1.0" standalone="no"?>
<!DOCTYPE svg PUBLIC "-//W3C//DTD SVG 1.1//EN" "http://www.w3.org/Graphics/SVG/1.1/DTD/svg11.dtd" >
<svg xmlns="http://www.w3.org/2000/svg" xmlns:xlink="http://www.w3.org/1999/xlink" version="1.1" viewBox="-10 0 585 1000">
  <g transform="matrix(1 0 0 -1 0 800)">
   <path fill="currentColor"
d="M100 -15q-8 0 -18 6t-19 15.5t-13 22.5t2 26l106 262q12 32 -6 32q-8 0 -20.5 -1.5t-27.5 -10t-30 -27.5q-4 -5 -11 -4.5t-8 9.5q0 7 5.5 18t13.5 22.5t13 17.5q21 23 52.5 38.5t74.5 15.5q20 0 32 -10.5t15.5 -27t-3.5 -34.5l-57 -144q-3 -7 4.5 -8t10.5 5
q37 65 74.5 114t76 77t75.5 28q34 0 50 -19.5t17.5 -49t-9.5 -59.5l-163 -469q-11 -32 5 -32q8 0 21 7t27 17t25.5 19t16.5 14q3 3 7 6.5t7 3.5t6 -3.5t3 -7.5q0 -16 -10 -29q-29 -33 -63 -60t-70.5 -42t-70.5 -15q-12 0 -24 8t-18 19.5t-1 22.5q11 24 28 67.5t37 99
t41.5 114.5t41 114t35.5 99t25 68q9 26 6.5 37.5t-14.5 11.5q-13 1 -28 -12.5t-32.5 -35.5t-37.5 -48q-10 -13 -27.5 -39.5t-38.5 -60.5t-42 -69t-38 -65q-14 -24 -27 -39t-27 -15z" />
  </g>

</svg>
