<?xml version="1.0" standalone="no"?>
<!DOCTYPE svg PUBLIC "-//W3C//DTD SVG 1.1//EN" "http://www.w3.org/Graphics/SVG/1.1/DTD/svg11.dtd" >
<svg xmlns="http://www.w3.org/2000/svg" xmlns:xlink="http://www.w3.org/1999/xlink" version="1.1" viewBox="-10 0 393 1000">
  <g transform="matrix(1 0 0 -1 0 800)">
   <path fill="currentColor"
d="M86 360q-10 0 -12.5 7.5t-0.5 14.5q4 11 14 19.5t22 8.5h248q8 0 13 -5t1 -11l-1.5 -1.5t-0.5 -2.5q-4 -12 -18.5 -21t-28.5 -9h-236zM49 242q-9 0 -12 7.5t0 14.5q3 11 13.5 19t21.5 8h248q8 0 13 -5t1 -10q-1 -1 -1.5 -2t-0.5 -2q-4 -13 -18.5 -21.5t-28.5 -8.5h-236z
M79 -14q-6 0 -8.5 5.5t-1.5 11.5l206 663q4 13 17.5 21.5t27 13t16.5 4.5q7 0 11 -5t2 -12l-208 -672q-4 -12 -17 -18.5t-26 -9t-19 -2.5z" />
  </g>

</svg>
