<?xml version="1.0" standalone="no"?>
<!DOCTYPE svg PUBLIC "-//W3C//DTD SVG 1.1//EN" "http://www.w3.org/Graphics/SVG/1.1/DTD/svg11.dtd" >
<svg xmlns="http://www.w3.org/2000/svg" xmlns:xlink="http://www.w3.org/1999/xlink" version="1.1" viewBox="-10 0 880 1000">
  <g transform="matrix(1 0 0 -1 0 800)">
   <path fill="currentColor"
d="M671 -15q-42 0 -70.5 17t-47.5 44.5t-31 61.5t-22 67q-10 38 -20.5 70.5t-26 52.5t-40.5 20q-12 0 -17.5 -4.5t-7.5 -12.5l-62 -203q-8 -31 0.5 -45t43.5 -24q11 -3 17 -7t4 -12q-1 -7 -10.5 -10.5t-20.5 -3.5q-29 0 -50 1.5t-38.5 3t-38.5 1.5q-32 0 -59 -4t-73 -4
q-11 0 -17.5 4.5t-5.5 10.5q2 15 34 20q39 8 57.5 22t28.5 46l143 460q8 25 5.5 42t-24.5 17h-53q-34 0 -56 -14t-34.5 -33.5t-21.5 -35.5q-4 -6 -10 -14t-12.5 -14t-10.5 -6q-5 0 -8 7.5t-1 19.5q4 15 11 35t16.5 42t19.5 43q2 6 6 12.5t10 6.5q4 0 8.5 -2.5t11.5 -5.5
q7 -2 13.5 -4t10.5 -2q38 0 80 -0.5t98 -0.5q15 0 36 0.5t44.5 1.5t45 1.5t39.5 0.5q20 0 17 -14q-2 -8 -9.5 -12.5t-21.5 -7.5q-27 -6 -44 -14t-26.5 -21t-16.5 -35l-50 -166q-8 -27 19 -27q33 0 63.5 15t62.5 50.5t70 96.5q28 45 51.5 77.5t51 50t66.5 17.5q30 0 46 -15
t16 -47q0 -23 -11 -39t-27 -16q-26 10 -50 14.5t-42 4.5q-16 0 -31 -17.5t-32 -48.5q-19 -35 -35.5 -58.5t-35.5 -41.5t-46 -36q-7 -4 -7 -5t5 -5q35 -28 53.5 -77.5t34.5 -98.5q13 -36 27 -68t35 -51t54 -19q12 0 16 -5t3 -10q-1 -11 -16.5 -20t-37.5 -14.5t-46 -5.5z" />
  </g>

</svg>
