<?xml version="1.0" standalone="no"?>
<!DOCTYPE svg PUBLIC "-//W3C//DTD SVG 1.1//EN" "http://www.w3.org/Graphics/SVG/1.1/DTD/svg11.dtd" >
<svg xmlns="http://www.w3.org/2000/svg" xmlns:xlink="http://www.w3.org/1999/xlink" version="1.1" viewBox="-10 0 361 1000">
  <g transform="matrix(1 0 0 -1 0 800)">
   <path fill="currentColor"
d="M179 -14q-55 0 -89 16.5t-49.5 43t-15.5 56.5q0 39 18.5 64.5t44 42.5t48.5 28q33 15 54.5 36.5t21.5 53.5q0 24 -14.5 42.5t-51.5 18.5q-24 0 -43 -21.5t-23 -45.5q-1 -6 -9 -11t-16 -5q-5 0 -9 2t-4 5q0 30 4.5 56t12.5 36q9 6 27.5 11t41 8.5t43.5 3.5q70 0 108 -25
t38 -71q0 -42 -15.5 -67.5t-38.5 -41.5t-48 -30q-22 -11 -40 -23.5t-28.5 -29.5t-10.5 -42q0 -33 16.5 -52.5t45.5 -19.5q30 0 54.5 26.5t34.5 59.5q1 4 6 9t11 5q7 0 12.5 -2.5t5.5 -7.5q1 -26 -3 -53.5t-12 -41.5q-11 -9 -32.5 -16.5t-46.5 -12.5t-49 -5z" />
  </g>

</svg>
