<?xml version="1.0" standalone="no"?>
<!DOCTYPE svg PUBLIC "-//W3C//DTD SVG 1.1//EN" "http://www.w3.org/Graphics/SVG/1.1/DTD/svg11.dtd" >
<svg xmlns="http://www.w3.org/2000/svg" xmlns:xlink="http://www.w3.org/1999/xlink" version="1.1" viewBox="-26 0 538 1000">
  <g transform="matrix(1 0 0 -1 0 800)">
   <path fill="currentColor"
d="M25 -290q-9 0 -18 3.5t-8 12.5q2 9 15.5 13.5t42.5 12.5q50 15 92 50.5t68 81.5t26 92q0 24 -4 45.5t-9 41.5l-18 78q-2 9 -5 9.5t-9 -5.5q-18 -23 -35 -48.5t-36 -48.5q-24 -32 -49 -47t-47 -15t-34.5 13t-12.5 32q0 14 7.5 29t19 26t21.5 11q6 0 11 -5.5t8 -11.5
q4 -9 11 -13t15 -4q9 0 18 5t18 14q12 14 25.5 29t27 30.5t26.5 31.5q4 6 5 11t-1 13l-38 132q-3 9 -6 13t-9 4q-9 0 -25 -13t-35 -37q-2 -3 -5.5 -6.5t-8.5 -3.5q-4 0 -6.5 3.5t-2.5 9.5q0 18 11 39.5t29 41.5t41 33.5t46 13.5t35 -17t21 -45l27 -96q3 -14 13 -1l63 89
q25 34 49.5 52t48.5 18t41 -18.5t17 -32.5t-8 -28.5t-19 -24t-20 -9.5q-10 0 -14.5 4.5t-8.5 11.5q-4 10 -9 15t-15 5q-9 0 -22 -7t-31 -27q-14 -15 -29.5 -35.5t-31.5 -45.5q-5 -10 -6.5 -18t1.5 -19l27 -103q8 -28 11 -51t2 -44q-1 -55 -29.5 -107t-74 -93t-98 -65.5
t-102.5 -24.5z" />
  </g>

</svg>
