<?xml version="1.0" standalone="no"?>
<!DOCTYPE svg PUBLIC "-//W3C//DTD SVG 1.1//EN" "http://www.w3.org/Graphics/SVG/1.1/DTD/svg11.dtd" >
<svg xmlns="http://www.w3.org/2000/svg" xmlns:xlink="http://www.w3.org/1999/xlink" version="1.1" viewBox="-10 0 736 1000">
  <g transform="matrix(1 0 0 -1 0 800)">
   <path fill="currentColor"
d="M388 -6q-15 0 -30.5 1.5t-41.5 3t-71 1.5q-34 0 -71.5 -2.5t-70.5 -2.5q-10 0 -14.5 4t-3.5 10q2 13 30 19q37 9 60 22.5t33 46.5l139 453q11 34 3 50t-41 16h-41q-34 0 -56.5 -15t-35.5 -35t-22 -36q-3 -7 -9.5 -14.5t-12.5 -12.5t-11 -5t-7.5 6t0.5 18q3 13 10.5 33
t17 43t18.5 45q2 6 6.5 12.5t9.5 6.5t11.5 -2t14.5 -5q8 -1 15.5 -2.5t12.5 -1.5q28 0 66 -0.5t85 -0.5h59q20 0 42 1t44.5 2t45.5 1q10 0 18 -2.5t6 -10.5q-2 -9 -13 -13.5t-24 -7.5q-28 -6 -45 -14t-27 -21t-17 -35l-44 -150q-4 -16 0 -24.5t18 -8.5q19 0 35 1.5t38 1.5
q42 0 81.5 -17.5t65.5 -51t26 -83.5q0 -67 -37 -117.5t-104.5 -78.5t-160.5 -28zM396 33q36 0 65.5 15.5t51.5 42t33.5 58.5t11.5 64q0 59 -28 92t-77 33q-22 0 -36.5 -10t-20.5 -30q-9 -31 -20 -64.5t-20.5 -67t-18.5 -62.5q-11 -38 6 -54.5t53 -16.5z" />
  </g>

</svg>
