<?xml version="1.0" standalone="no"?>
<!DOCTYPE svg PUBLIC "-//W3C//DTD SVG 1.1//EN" "http://www.w3.org/Graphics/SVG/1.1/DTD/svg11.dtd" >
<svg xmlns="http://www.w3.org/2000/svg" xmlns:xlink="http://www.w3.org/1999/xlink" version="1.1" viewBox="-10 0 829 1000">
  <g transform="matrix(1 0 0 -1 0 800)">
   <path fill="currentColor"
d="M322 -4q-9 0 -14 3.5t-4 9.5q3 15 30 20q39 8 59.5 22t30.5 46l66 210q4 13 3 16t-5 1q-17 -10 -42 -19.5t-56.5 -15.5t-70.5 -6q-51 0 -87 24t-50 65t2 92l27 87q11 33 0 48t-48 21q-11 2 -15 7.5t-3 13.5q1 6 9.5 9.5t16.5 3.5q24 0 45.5 -1t42 -2t39.5 -1q20 0 41 1
t43 2t45 1q20 0 17 -14q-2 -8 -9.5 -12.5t-21.5 -7.5q-27 -6 -41.5 -14t-21 -21t-13.5 -35l-33 -107q-8 -28 2 -51.5t35.5 -37.5t60.5 -14q33 0 58 9.5t39 17.5q10 6 14 21l51 163q10 33 1 47t-45 22q-11 2 -15 7.5t-2 13.5q1 6 9 9.5t17 3.5q23 0 45 -1t43 -2t42 -1
q20 0 41.5 1t44.5 2t46 1q20 0 17 -14q-2 -8 -9.5 -12.5t-21.5 -7.5q-27 -6 -44 -14t-26.5 -21t-16.5 -35l-139 -452q-9 -31 2.5 -45t45.5 -24q11 -3 15.5 -7t2.5 -12q-1 -7 -8 -10t-17 -3q-23 0 -46 1t-44.5 2t-42.5 1q-32 0 -67 -2.5t-70 -2.5zM591 692q-22 0 -37 15.5
t-15 35.5q0 31 23.5 54.5t58.5 23.5q22 0 36.5 -16.5t14.5 -38.5q0 -20 -11.5 -36.5t-29.5 -27t-40 -10.5zM392 692q-23 0 -37.5 15.5t-14.5 35.5q0 32 23.5 55t57.5 23q23 0 37 -16.5t14 -38.5q0 -29 -24 -51.5t-56 -22.5z" />
  </g>

</svg>
