<?xml version="1.0" standalone="no"?>
<!DOCTYPE svg PUBLIC "-//W3C//DTD SVG 1.1//EN" "http://www.w3.org/Graphics/SVG/1.1/DTD/svg11.dtd" >
<svg xmlns="http://www.w3.org/2000/svg" xmlns:xlink="http://www.w3.org/1999/xlink" version="1.1" viewBox="-10 0 673 1000">
  <g transform="matrix(1 0 0 -1 0 800)">
   <path fill="currentColor"
d="M75 -14q-33 0 -54 22.5t-21 57.5q0 37 15 81.5t42.5 91t63.5 89.5q41 48 82.5 74.5t76.5 26.5q21 0 37.5 -9t38.5 -23q12 -7 15 -8.5t4 -1.5q4 0 6 8l56 178q6 20 -5 30t-31 10h-73q-24 0 -43.5 -8t-35.5 -22q-12 -9 -24 -26.5t-28 -39.5q-6 -7 -11 -10.5t-10 -3.5
q-4 0 -7.5 4.5t-0.5 13.5q8 24 23.5 56t30.5 65q3 9 12 12t15 3q4 0 25.5 -2t53.5 -3q27 0 50 -0.5l46 -1t49 -0.5q27 0 52.5 1t52 2t55.5 1q23 0 19 -14q-1 -6 -9 -11.5t-23 -8.5q-38 -8 -56 -22t-29 -48l-140 -437q-2 -6 -3 -11t-1 -10q0 -13 9 -13q10 0 26 9t34 24.5
t32 31.5q2 3 3 3.5t3 0.5q11 0 10 -13q0 -13 -13 -32.5t-34 -39.5t-46 -37.5t-48 -28.5t-40 -11q-14 0 -27.5 8t-22.5 20t-9 24q0 6 4 24q4 11 10 27t11.5 31t9 22t0.5 -2q3 8 -0.5 10.5t-7.5 -4.5q-69 -84 -121 -122t-99 -38zM144 67q23 0 50.5 17.5t54.5 47t50.5 64
t37 69.5t13.5 63t-11.5 42.5t-33.5 14.5q-19 0 -44.5 -19.5t-51.5 -52t-48 -70t-35 -75.5t-13 -66q0 -18 7.5 -26.5t23.5 -8.5z" />
  </g>

</svg>
