<?xml version="1.0" standalone="no"?>
<!DOCTYPE svg PUBLIC "-//W3C//DTD SVG 1.1//EN" "http://www.w3.org/Graphics/SVG/1.1/DTD/svg11.dtd" >
<svg xmlns="http://www.w3.org/2000/svg" xmlns:xlink="http://www.w3.org/1999/xlink" version="1.1" viewBox="-10 0 573 1000">
  <g transform="matrix(1 0 0 -1 0 800)">
   <path fill="currentColor"
d="M143 -14q-9 0 -22.5 7.5t-23.5 18.5t-10 21q0 12 1.5 19.5t5.5 18.5l119 374q3 13 3.5 21t-12.5 8h-35q-16 0 -35 -19t-36 -43q-3 -3 -9 -12t-13 -16t-13 -7q-8 0 -8 10t3 17q4 9 11.5 21.5t10.5 22.5q5 10 10.5 21.5t11 23.5t8.5 23q3 9 10 14t11 5q3 0 8 -2.5t9 -7.5
q4 -4 19 -5.5t30 -1.5h29q10 0 13 10l9 27q5 14 7.5 27t2.5 23q0 19 -24 28q-8 3 -15.5 6.5t-7.5 8.5t3.5 9t15.5 8q11 5 32 12t44 13.5t41 11.5t26 5q7 0 15 -1.5t8 -11.5t-2 -17t-5 -17l-45 -131q-4 -11 6 -11h96q12 0 8.5 -11t-14 -22t-21.5 -11h-77q-16 0 -23 -19
l-79 -232q-4 -9 0 -8.5t8 5.5q32 43 66 80t67.5 65.5t62.5 45t49 16.5q31 0 45.5 -20t14.5 -53q0 -16 -12 -16q-6 0 -15 1t-19 2t-19 2t-15 1q-21 0 -42 -7.5t-40.5 -21t-37.5 -29.5t-34 -33q-4 -4 -4.5 -7t3.5 -7q17 -20 29 -48.5t22 -58.5q10 -22 21 -40.5t24 -18.5
q12 0 26.5 8.5t29 22t23.5 25.5q9 9 12.5 13.5t7.5 4.5t6 -4t2 -10q0 -16 -17.5 -40.5t-44 -49t-53.5 -41t-46 -16.5q-21 0 -34.5 14.5t-24.5 44.5l-36 101q-5 14 -10 21t-14 7q-5 0 -9.5 -6t-8.5 -17q-13 -34 -25 -68t-24 -66q-6 -18 -12.5 -24.5t-18.5 -6.5z" />
  </g>

</svg>
