<?xml version="1.0" standalone="no"?>
<!DOCTYPE svg PUBLIC "-//W3C//DTD SVG 1.1//EN" "http://www.w3.org/Graphics/SVG/1.1/DTD/svg11.dtd" >
<svg xmlns="http://www.w3.org/2000/svg" xmlns:xlink="http://www.w3.org/1999/xlink" version="1.1" viewBox="-45 0 756 1000">
  <g transform="matrix(1 0 0 -1 0 800)">
   <path fill="currentColor"
d="M-14 -4q-9 0 -15 3.5t-5 9.5q1 8 10 12.5t22 7.5q39 7 61.5 22t31.5 48l134 452q11 33 1.5 46.5t-45.5 22.5q-11 2 -15 7.5t-2 13.5q1 6 9 9.5t17 3.5q23 0 45 -1t43 -2t42 -1q20 0 41.5 1t44.5 2t46 1q20 0 17 -14q-2 -8 -9.5 -12.5t-21.5 -7.5q-27 -6 -44 -14
t-26.5 -21t-16.5 -35l-43 -154q-3 -10 1.5 -14.5t15.5 0.5q22 10 56.5 16.5t72.5 6.5q53 0 91.5 -23t54 -65t-1.5 -99l-37 -118q-10 -32 3 -47t47 -24q11 -3 16 -7t4 -12q-1 -7 -9 -10t-18 -3q-23 0 -46.5 1t-46 2t-42.5 1q-21 0 -42 -1t-43 -2.5t-45 -1.5q-9 0 -15 3.5
t-5 9.5q2 8 10.5 12.5t22.5 7.5q34 7 53 22t29 48l41 138q16 57 -9 88t-77 31q-29 0 -48.5 -4.5t-36.5 -14.5q-6 -4 -12.5 -11.5t-8.5 -15.5l-65 -210q-10 -32 1.5 -47.5t43.5 -23.5q11 -3 16 -7t4 -12q-1 -7 -9 -10t-18 -3q-23 0 -45 1t-43 2t-42 1t-44.5 -1t-48 -2.5
t-47.5 -1.5z" />
  </g>

</svg>
