<?xml version="1.0" standalone="no"?>
<!DOCTYPE svg PUBLIC "-//W3C//DTD SVG 1.1//EN" "http://www.w3.org/Graphics/SVG/1.1/DTD/svg11.dtd" >
<svg xmlns="http://www.w3.org/2000/svg" xmlns:xlink="http://www.w3.org/1999/xlink" version="1.1" viewBox="-204 0 1103 1000">
  <g transform="matrix(1 0 0 -1 0 800)">
   <path fill="currentColor"
d="M-78 -200q-63 0 -89.5 17t-26.5 39q0 26 8.5 43t24.5 17q11 0 25.5 -12.5t31.5 -26.5q16 -14 32.5 -26t32.5 -12q18 0 33 16.5t31 54t35 101.5l166 540q11 33 5 47t-39 22q-11 2 -15 7.5t-3 13.5q1 6 9.5 9.5t17.5 3.5q23 0 43.5 -1t39 -2t37.5 -1q20 0 41.5 1t44 2
t45.5 1q20 0 17 -14q-2 -8 -9.5 -12.5t-21.5 -7.5q-27 -6 -44 -15t-26 -22t-15 -33l-58 -188q-3 -12 10 -12h276q11 0 15 14l58 187q8 29 0.5 43t-42.5 26q-11 3 -15.5 7.5t-2.5 12.5q1 7 8.5 10.5t16.5 3.5q23 0 46 -1t45 -2t41 -1t37 1t38.5 2t43.5 1q9 0 14 -3.5t4 -9.5
q-3 -16 -31 -21q-37 -8 -51.5 -23t-23.5 -46l-141 -453q-10 -33 -3 -47t39 -22q11 -2 15 -7t2 -13q-1 -6 -9 -9.5t-17 -3.5q-21 0 -41.5 1.5t-40 2.5t-39.5 1q-19 0 -41 -1t-45 -2t-45 -1q-19 0 -17 13q1 8 9 12t21 7q38 9 57 24t28 45l60 192q3 7 2.5 11.5t-6.5 4.5h-281
q-11 0 -15 -14l-62 -199q-14 -48 -29 -81.5t-31.5 -59t-33.5 -44.5t-36 -37q-35 -31 -75 -51t-85 -20z" />
  </g>

</svg>
