<?xml version="1.0" standalone="no"?>
<!DOCTYPE svg PUBLIC "-//W3C//DTD SVG 1.1//EN" "http://www.w3.org/Graphics/SVG/1.1/DTD/svg11.dtd" >
<svg xmlns="http://www.w3.org/2000/svg" xmlns:xlink="http://www.w3.org/1999/xlink" version="1.1" viewBox="-10 0 548 1000">
  <g transform="matrix(1 0 0 -1 0 800)">
   <path fill="currentColor"
d="M194 -8q-49 0 -85 20t-57.5 53.5t-26 76t8.5 86.5q13 40 38 75.5t61.5 63t83.5 44t101 16.5q40 0 70.5 -9t48.5 -30q7 -9 4 -18q-2 -7 -13.5 -16.5t-23.5 -16.5t-21 -7q-8 0 -13 5t-11 10q-18 21 -38 27t-36 6q-44 0 -82.5 -36.5t-63.5 -113.5q-20 -62 -10 -105t40 -65
t68 -22q46 0 78 17.5t52.5 44.5t28.5 55q15 48 8 75.5t-35 27.5q-29 0 -53.5 -27.5t-35.5 -69.5q-18 -67 -2 -101t67 -34q31 0 66 15.5t62 36.5q18 13 24.5 10t5 -12.5t-9.5 -17.5q-31 -34 -77 -52t-94 -18q-42 0 -76.5 22t-49.5 60.5t0 87.5q10 32 35 63t63.5 52t86.5 21
q38 0 61.5 -18t31.5 -49.5t-4 -72.5q-10 -37 -47.5 -74t-95.5 -61.5t-133 -24.5z" />
  </g>

</svg>
