<?xml version="1.0" standalone="no"?>
<!DOCTYPE svg PUBLIC "-//W3C//DTD SVG 1.1//EN" "http://www.w3.org/Graphics/SVG/1.1/DTD/svg11.dtd" >
<svg xmlns="http://www.w3.org/2000/svg" xmlns:xlink="http://www.w3.org/1999/xlink" version="1.1" viewBox="-37 0 673 1000">
  <g transform="matrix(1 0 0 -1 0 800)">
   <path fill="currentColor"
d="M-10 -5q-7 0 -11 9t-5.5 19.5t2.5 14.5l455 507q17 18 28 36.5t18 30.5t12 12q30 0 49.5 7.5t33.5 18.5q16 13 24.5 21t17.5 8q8 0 11 -12t-3 -44q-31 -146 -59 -291.5t-52 -292.5q-3 -16 -14 -27.5t-30 -11.5h-116h-112h-117q-34 -1 -66 -1.5t-66 -3.5zM116 62
q46 -2 86.5 -2.5t81.5 0t85 2.5q19 2 21 16q40 225 94 449q3 8 3 13.5t-5 5.5t-15 -10l-362 -428q-7 -9 -12.5 -16.5t-5.5 -14.5q0 -8 8 -11t21 -4z" />
  </g>

</svg>
