<?xml version="1.0" standalone="no"?>
<!DOCTYPE svg PUBLIC "-//W3C//DTD SVG 1.1//EN" "http://www.w3.org/Graphics/SVG/1.1/DTD/svg11.dtd" >
<svg xmlns="http://www.w3.org/2000/svg" xmlns:xlink="http://www.w3.org/1999/xlink" version="1.1" viewBox="-10 0 595 1000">
  <g transform="matrix(1 0 0 -1 0 800)">
   <path fill="currentColor"
d="M185 -11q-51 0 -79.5 26t-28.5 73q0 21 5.5 47t14.5 56l115 363q10 34 -0.5 47t-47.5 20q-12 3 -17 8t-4 11q1 7 11 10.5t27 3.5q12 0 33 -1t46 -2.5t45 -1.5l119 1q48 1 75.5 3.5t41.5 5.5t18 3q6 0 11 -5t5 -13q0 -10 -6.5 -30t-13 -44.5t-8.5 -48.5q0 -10 -5.5 -15
t-10.5 -5t-9 5.5t-5 15.5q-4 52 -16 74t-51 22h-81q-16 0 -27 -10t-20 -31q-5 -13 -15.5 -44.5t-24.5 -72.5l-28 -82t-25 -73t-15 -44q-3 -9 0 -10t8 6q59 81 115 125.5t99 44.5q35 0 59 -23.5t24 -57.5q0 -48 -20 -98t-54 -97t-77.5 -83.5t-90 -57.5t-92.5 -21zM214 25
q12 0 31.5 13t40.5 35.5t39 49.5q23 33 42.5 73t32 75.5t12.5 56.5q0 15 -8 24.5t-20 9.5q-24 0 -60 -30t-81 -91q-34 -48 -54.5 -89t-20.5 -63t13.5 -43t32.5 -21z" />
  </g>

</svg>
