<?xml version="1.0" standalone="no"?>
<!DOCTYPE svg PUBLIC "-//W3C//DTD SVG 1.1//EN" "http://www.w3.org/Graphics/SVG/1.1/DTD/svg11.dtd" >
<svg xmlns="http://www.w3.org/2000/svg" xmlns:xlink="http://www.w3.org/1999/xlink" version="1.1" viewBox="-86 0 875 1000">
  <g transform="matrix(1 0 0 -1 0 800)">
   <path fill="currentColor"
d="M-56 -216q-11 0 -16.5 9.5t-1.5 27.5q6 28 11.5 66.5t10 75.5t6.5 58q1 8 8 11.5t16 4.5q41 2 72 22t63 56q17 19 38 51.5t43.5 75t45.5 92.5t44 105t38 112q10 32 -10.5 46.5t-68.5 22.5q-11 1 -15 7t-3 14q2 6 9.5 9.5t16.5 3.5q23 0 46.5 -1t46 -2t42.5 -1h244
q20 0 41.5 1t44 2t45.5 1q20 0 17 -14q-2 -8 -9.5 -12.5t-20.5 -7.5q-28 -6 -45 -14t-26.5 -21t-15.5 -35l-141 -457q-7 -25 0.5 -38t24 -18t33.5 -6q7 -1 11.5 -5t2.5 -10q-1 -9 -15 -39.5t-30.5 -71t-28.5 -81.5q-7 -19 -16 -29.5t-19 -10.5q-11 0 -15 10t-1 25
q5 20 9.5 43t6.5 45.5t-1.5 40.5t-13.5 29t-30 11h-342q-31 0 -53 -22t-38.5 -60t-28.5 -85q-4 -15 -13 -26t-19 -11zM131 26l186 -2q33 -1 48.5 11.5t24.5 40.5l146 486q9 28 4.5 40.5t-35.5 12.5h-78q-21 0 -32.5 -10.5t-18.5 -34.5q-21 -72 -46.5 -139.5t-53.5 -127.5
t-55.5 -109.5t-52.5 -87t-44 -59.5q-9 -10 -5 -15.5t12 -5.5z" />
  </g>

</svg>
