<?xml version="1.0" standalone="no"?>
<!DOCTYPE svg PUBLIC "-//W3C//DTD SVG 1.1//EN" "http://www.w3.org/Graphics/SVG/1.1/DTD/svg11.dtd" >
<svg xmlns="http://www.w3.org/2000/svg" xmlns:xlink="http://www.w3.org/1999/xlink" version="1.1" viewBox="-10 0 448 1000">
  <g transform="matrix(1 0 0 -1 0 800)">
   <path fill="currentColor"
d="M187 -290q-64 0 -102.5 22.5t-56 65t-17.5 100.5q0 51 12.5 115.5t38.5 151.5q28 91 62.5 148.5t78.5 85.5t100 28q31 0 56.5 -22t40.5 -54t15 -62q0 -78 -26 -137.5t-70.5 -94t-100.5 -34.5q-15 0 -32 12.5t-33.5 32.5t-29.5 42l19 45q6 -9 13.5 -19.5t17 -17.5t21.5 -7
q31 0 63 15.5t59 40.5t43.5 53.5t16.5 54.5q0 24 -12.5 43t-34.5 19q-41 1 -74.5 -21.5t-58.5 -62.5t-44 -92q-21 -56 -40 -112t-31 -106.5t-12 -89.5q0 -43 18.5 -68.5t63.5 -25.5q15 0 28 7.5t21 17.5q9 10 19 20.5t24 10.5q11 0 22 -7.5t18 -19t8 -26.5
q1 -21 -26.5 -36.5t-77.5 -15.5z" />
  </g>

</svg>
