<?xml version="1.0" standalone="no"?>
<!DOCTYPE svg PUBLIC "-//W3C//DTD SVG 1.1//EN" "http://www.w3.org/Graphics/SVG/1.1/DTD/svg11.dtd" >
<svg xmlns="http://www.w3.org/2000/svg" xmlns:xlink="http://www.w3.org/1999/xlink" version="1.1" viewBox="-10 0 572 1000">
  <g transform="matrix(1 0 0 -1 0 800)">
   <path fill="currentColor"
d="M141 -250q-7 0 -11 2t-3 7t4.5 7t9.5 4q38 15 62.5 32t45.5 52q22 35 41.5 57t44.5 47q16 16 43 35.5t53 42.5l-6 15l77 56q-19 -25 -41 -66t-44 -86q-23 -50 -53 -93.5t-80 -72.5q-16 -9 -35.5 -16t-40.5 -12.5t-38.5 -8t-28.5 -2.5zM96 -14q-14 0 -26 7.5t-19.5 20
t-7.5 23.5q0 7 1.5 12.5t3.5 10.5l108 266q4 10 4 17.5t-10 7.5q-12 0 -33 -9t-45 -26q-5 -4 -11.5 -4t-5.5 8q1 12 19 30t46 35.5t58 29.5t54 12q20 0 32 -21.5t4 -44.5l-44 -112q-3 -8 0 -10t7 -2l106 2q6 0 10 2.5t6 10.5l54 128q6 16 24.5 26t38 15.5t28.5 5.5
q10 0 15 -7t4 -20q-1 -5 -7 -17.5t-19 -43.5l-91 -235q-8 -22 -2 -25q6 0 14 3.5t16 8.5t14.5 10t8.5 7q5 0 14 5.5t20 13.5t18 15q6 2 7 -2q3 -2 4 -6.5t0 -8.5q-9 -17 -26 -36t-39 -37t-46 -33t-46.5 -24t-41.5 -9q-15 0 -26.5 10t-16 24.5t0.5 27.5l55 135q3 9 2 11.5
t-7 2.5l-108 -3q-4 0 -9 -1.5t-8 -8.5l-68 -177q-4 -10 -13.5 -15.5t-20.5 -5.5z" />
  </g>

</svg>
