<?xml version="1.0" standalone="no"?>
<!DOCTYPE svg PUBLIC "-//W3C//DTD SVG 1.1//EN" "http://www.w3.org/Graphics/SVG/1.1/DTD/svg11.dtd" >
<svg xmlns="http://www.w3.org/2000/svg" xmlns:xlink="http://www.w3.org/1999/xlink" version="1.1" viewBox="-10 0 730 1000">
  <g transform="matrix(1 0 0 -1 0 800)">
   <path fill="currentColor"
d="M297 -14q-72 0 -124 33.5t-80.5 92t-28.5 130.5q0 78 29.5 153.5t83.5 136t128 96.5t164 36q72 0 124.5 -33.5t80.5 -91.5t28 -131q0 -78 -29.5 -153t-83.5 -136t-128 -97t-164 -36zM298 21q47 0 89 28.5t78 76t62 105.5t40 117.5t14 111.5q0 45 -11.5 84t-37 63.5
t-65.5 24.5q-46 0 -88 -28.5t-77 -76.5t-61.5 -106.5t-41 -118.5t-14.5 -113q0 -44 11.5 -82t36.5 -62t65 -24zM377 691q-5 0 -11.5 6.5t-6.5 9.5q0 6 9 20.5t22.5 32t26.5 30t21 12.5q18 0 39 -1t39 -2t38 -2.5t39 -1.5q11 0 20.5 6.5t16.5 13.5q8 8 12.5 14.5t7.5 6.5
q7 0 14 -6t7 -12q0 -4 -4.5 -10t-11.5 -15q-11 -14 -22 -30t-20 -29q-6 -8 -15.5 -11t-14.5 -3q-8 0 -28.5 1.5t-46.5 3.5t-48 3.5t-33 1.5q-7 0 -15.5 -5t-14.5 -12q-8 -7 -13 -14.5t-7 -7.5zM418 855q-8 0 -13 5t-5 11q0 20 9.5 36.5t23.5 16.5h260q8 0 12.5 -4.5
t4.5 -10.5q0 -21 -11.5 -37.5t-26.5 -16.5h-254z" />
  </g>

</svg>
