<?xml version="1.0" standalone="no"?>
<!DOCTYPE svg PUBLIC "-//W3C//DTD SVG 1.1//EN" "http://www.w3.org/Graphics/SVG/1.1/DTD/svg11.dtd" >
<svg xmlns="http://www.w3.org/2000/svg" xmlns:xlink="http://www.w3.org/1999/xlink" version="1.1" viewBox="-124 0 620 1000">
  <g transform="matrix(1 0 0 -1 0 800)">
   <path fill="currentColor"
d="M-50 -289q-23 0 -43.5 14t-20.5 42q0 17 7.5 31.5t20 24.5t25.5 10q11 0 21.5 -6.5t19.5 -14.5q11 -8 22 -14.5t25 -6.5q32 0 64 35t58 90q20 43 28.5 98.5t8.5 118.5q0 80 -10 127t-23 68t-23 21q-9 0 -19.5 -12.5t-20 -28t-14.5 -26.5q-2 -4 -7.5 -14t-11.5 -10
q-3 0 -6 8t-3 20q0 26 12.5 51.5t31.5 46.5t41.5 33.5t42.5 12.5q28 0 45 -18.5t29 -54.5q14 -43 24.5 -109.5t5.5 -166.5q-1 -18 3.5 -17t11.5 14q34 65 51.5 147t16.5 186q0 7 11 15.5t18 8.5t20 -8t23.5 -21t10.5 -29q0 -62 -33.5 -145.5t-94.5 -176.5t-142 -185
q-38 -43 -79 -79.5t-78.5 -58t-68.5 -21.5zM333 460q-6 0 -9.5 3.5t-3.5 7.5t1 7.5t2 7.5q6 14 15.5 33t20.5 40.5t21.5 42.5l18.5 37q7 12 15.5 22.5t18.5 10.5q7 0 19.5 -8t23 -18.5t10.5 -21.5q0 -4 -13.5 -21t-34.5 -40.5t-41 -45.5t-34 -36q-6 -6 -14 -13.5t-16 -7.5z
M202 461q-4 0 -7.5 3t-3.5 7q0 5 0.5 8.5t1.5 6.5q6 14 14.5 33.5t19 42t20 43t16.5 36.5q6 13 14 24.5t18 11.5q8 0 21 -8t24 -18t11 -20q0 -4 -13 -22t-32.5 -42.5t-39 -47.5t-32.5 -37q-7 -6 -16 -13.5t-16 -7.5z" />
  </g>

</svg>
