<?xml version="1.0" standalone="no"?>
<!DOCTYPE svg PUBLIC "-//W3C//DTD SVG 1.1//EN" "http://www.w3.org/Graphics/SVG/1.1/DTD/svg11.dtd" >
<svg xmlns="http://www.w3.org/2000/svg" xmlns:xlink="http://www.w3.org/1999/xlink" version="1.1" viewBox="-46 0 1038 1000">
  <g transform="matrix(1 0 0 -1 0 800)">
   <path fill="currentColor"
d="M-17 -6q-9 0 -14 3.5t-4 10.5q3 14 31 20q36 7 52 21t27 47l140 455q10 33 4 47t-39 22q-11 2 -15 7.5t-2 13.5q1 6 9 9.5t17 3.5q23 0 43.5 -1t39.5 -2t38 -1t40.5 1t44.5 2t46 1q19 0 17 -14q-2 -8 -10 -12.5t-21 -7.5q-28 -6 -44.5 -15t-26 -22t-15.5 -33l-57 -185
q-3 -12 11 -12h247q13 0 17 13l54 184q10 34 0.5 47.5t-45.5 22.5q-11 2 -15.5 7.5t-2.5 13.5q1 6 9.5 9.5t16.5 3.5q24 0 46 -1t43 -2t41 -1t42 1t45 2t45 1q20 0 17 -14q-1 -8 -9 -12.5t-22 -7.5q-27 -6 -44 -14t-27 -21t-16 -35l-48 -165q-10 -33 17 -33q21 0 37.5 1.5
t39.5 1.5q43 0 82.5 -16.5t65 -48.5t24.5 -77q-1 -66 -37 -115t-103.5 -75.5t-160.5 -26.5q-15 0 -30.5 1.5t-41 2.5t-70.5 1q-34 0 -71.5 -2.5t-70.5 -2.5q-10 0 -14.5 4t-3.5 10q2 13 30 19q37 10 59.5 23t33.5 46l61 195q5 16 -9 16h-248q-12 0 -16 -14l-61 -194
q-9 -30 3 -46t45 -27q11 -3 15 -7t3 -12q-2 -7 -9 -10t-17 -3q-22 0 -45 1t-45 2t-42 1t-41.5 -1.5l-43 -3t-42.5 -1.5zM663 34q36 0 65.5 14.5t51 39t33 54.5t11.5 59q0 54 -31 84t-80 30q-25 0 -37 -9t-20 -30q-15 -46 -27.5 -87.5t-25.5 -85.5q-10 -35 6.5 -52t53.5 -17z
" />
  </g>

</svg>
