<?xml version="1.0" standalone="no"?>
<!DOCTYPE svg PUBLIC "-//W3C//DTD SVG 1.1//EN" "http://www.w3.org/Graphics/SVG/1.1/DTD/svg11.dtd" >
<svg xmlns="http://www.w3.org/2000/svg" xmlns:xlink="http://www.w3.org/1999/xlink" version="1.1" viewBox="-10 0 729 1000">
  <g transform="matrix(1 0 0 -1 0 800)">
   <path fill="currentColor"
d="M75 -5q-19 0 -19 12q0 7 8.5 12.5t22.5 8.5q37 10 57 23t30 46l146 470q6 21 1.5 32.5t-25.5 11.5q-42 0 -76.5 -17t-38.5 -52q-2 -10 2.5 -17.5t9.5 -13.5q7 -7 12 -14.5t2 -16.5q-4 -13 -19 -25.5t-31.5 -20.5t-24.5 -8q-12 0 -20.5 10t-12 25.5t-2.5 31.5
q4 42 26.5 72t60.5 49t91.5 28t118.5 9q20 0 39 0.5t40.5 1.5t47.5 1q64 0 105.5 -16t62 -45t20.5 -67q0 -33 -16 -60t-42 -47.5t-58.5 -34t-65.5 -20.5q-6 -1 -6.5 -4.5t3.5 -5.5q58 -20 93.5 -56.5t35.5 -102.5q0 -51 -23.5 -88.5t-66 -62t-97.5 -36.5t-119 -12
q-40 0 -71.5 2.5t-65.5 2.5q-22 0 -44 -1.5t-45 -3t-46 -1.5zM353 26q32 3 62.5 19.5t54.5 44t39 60.5t15 69q0 53 -30.5 85t-88.5 32q-17 0 -25.5 -5t-12.5 -17l-64 -211q-4 -14 -3.5 -29t8.5 -24q7 -9 18 -16.5t27 -7.5zM413 366q23 0 42.5 5t40.5 11q40 24 68.5 61.5
t28.5 89.5q0 36 -25.5 64.5t-68.5 28.5q-21 0 -31.5 -6t-14.5 -22l-62 -210q-6 -22 22 -22z" />
  </g>

</svg>
