<?xml version="1.0" standalone="no"?>
<!DOCTYPE svg PUBLIC "-//W3C//DTD SVG 1.1//EN" "http://www.w3.org/Graphics/SVG/1.1/DTD/svg11.dtd" >
<svg xmlns="http://www.w3.org/2000/svg" xmlns:xlink="http://www.w3.org/1999/xlink" version="1.1" viewBox="-10 0 463 1000">
  <g transform="matrix(1 0 0 -1 0 800)">
   <path fill="currentColor"
d="M127 -15q-30 0 -51 16.5t-27 45.5t7 64l77 206q13 32 -5 32q-12 0 -33 -5t-44 -34q-4 -5 -10.5 -4.5t-8.5 9.5q0 7 5.5 18t14 22.5t14.5 17.5q22 23 51.5 38.5t73.5 15.5q25 0 40.5 -16.5t14.5 -38.5h3q25 19 56.5 37t71.5 18q30 0 48.5 -21.5t16.5 -50.5
q-1 -29 -18.5 -55.5t-45 -47.5t-58.5 -33q-26 -10 -51.5 -19.5t-50.5 -20.5q-22 -8 -29 -14.5t-15 -26.5l-14 -38q-10 -27 -5.5 -43t27.5 -16q20 0 38 10.5t27 24.5q3 7 6 15t5 16q3 9 26.5 17.5t44.5 15.5q13 5 22 5q6 0 7.5 -4.5t0.5 -10.5q-5 -18 -24.5 -37.5
t-40.5 -34.5q-26 -17 -53.5 -34t-55.5 -28t-58 -11zM212 214q2 0 4.5 0.5t6.5 1.5q29 13 53 30.5t40 40.5t18 51q0 16 -8 22.5t-18 6.5q-11 0 -22 -5t-19 -13q-8 -6 -12.5 -13.5t-10.5 -20.5l-32 -82q-5 -11 -4 -15t4 -4z" />
  </g>

</svg>
