<?xml version="1.0" standalone="no"?>
<!DOCTYPE svg PUBLIC "-//W3C//DTD SVG 1.1//EN" "http://www.w3.org/Graphics/SVG/1.1/DTD/svg11.dtd" >
<svg xmlns="http://www.w3.org/2000/svg" xmlns:xlink="http://www.w3.org/1999/xlink" version="1.1" viewBox="-10 0 439 1000">
  <g transform="matrix(1 0 0 -1 0 800)">
   <path fill="currentColor"
d="M153 -14q-76 0 -111.5 41.5t-17.5 105.5q12 39 22.5 70t23.5 61q38 85 95.5 124t134.5 39q25 0 49 -10t40 -30t16 -49t-19.5 -50.5t-49 -36.5t-60.5 -23q-4 -1 -4 -4t5 -5q23 -6 43.5 -19t34 -32t13.5 -43q0 -32 -16.5 -58t-46 -44t-68.5 -27.5t-84 -9.5zM167 18
q20 0 40.5 15t35 40.5t14.5 57.5t-15.5 48.5t-40.5 16.5q-24 0 -40 -8.5t-22 -32.5l-21 -71q-5 -18 0.5 -33t18.5 -24t30 -9zM171 217q32 3 63 20.5t51.5 45.5t20.5 60q0 19 -8.5 33t-29.5 14q-20 0 -38.5 -15.5t-33.5 -46t-27 -74.5l-7 -26q-1 -5 2 -8t7 -3z" />
  </g>

</svg>
