<?xml version="1.0" standalone="no"?>
<!DOCTYPE svg PUBLIC "-//W3C//DTD SVG 1.1//EN" "http://www.w3.org/Graphics/SVG/1.1/DTD/svg11.dtd" >
<svg xmlns="http://www.w3.org/2000/svg" xmlns:xlink="http://www.w3.org/1999/xlink" version="1.1" viewBox="-46 0 704 1000">
  <g transform="matrix(1 0 0 -1 0 800)">
   <path fill="currentColor"
d="M85 289q-11 0 -12.5 9t0.5 16q4 11 14 18t21 7h332q8 0 12 -4.5t2 -10.5q-1 -1 -1.5 -2l-1.5 -3q-7 -11 -19.5 -20.5t-26.5 -9.5h-320zM-17 -4q-9 0 -14 3.5t-4 9.5q3 15 31 20q39 9 62 22.5t33 46.5l139 452q11 34 1 47.5t-43 22.5q-12 3 -16 8.5t-3 11.5q1 7 9 10.5
t19 3.5q23 0 59.5 -2t67.5 -2h228q28 0 49 4.5t28 4.5q9 0 14 -4.5t4 -10.5q-4 -16 -10.5 -40.5t-13.5 -51t-13 -48.5q-2 -7 -7.5 -12.5t-10.5 -5.5q-6 0 -10 6t-4 13q0 25 -1.5 48.5t-8.5 37.5q-6 11 -19.5 18t-35.5 7h-93q-17 0 -32.5 -11t-23.5 -40l-140 -467
q-9 -31 2.5 -44.5t45.5 -24.5q11 -3 15.5 -7t2.5 -12q-1 -7 -8 -10t-17 -3q-23 0 -46.5 1t-46 2t-43.5 1q-35 0 -73 -2.5t-73 -2.5z" />
  </g>

</svg>
