<?xml version="1.0" standalone="no"?>
<!DOCTYPE svg PUBLIC "-//W3C//DTD SVG 1.1//EN" "http://www.w3.org/Graphics/SVG/1.1/DTD/svg11.dtd" >
<svg xmlns="http://www.w3.org/2000/svg" xmlns:xlink="http://www.w3.org/1999/xlink" version="1.1" viewBox="-10 0 386 1000">
  <g transform="matrix(1 0 0 -1 0 800)">
   <path fill="currentColor"
d="M132 -14q-65 0 -98.5 29t-33.5 66q0 47 34 85t96 52l1 4q-24 8 -43 25t-19 48q0 35 23 65t64.5 48.5t96.5 18.5q32 0 57 -7.5t40.5 -21t15.5 -32.5q0 -13 -3 -27t-9 -24t-15 -10q-8 0 -16 6t-9 18q-2 27 -17 43.5t-41 16.5q-27 0 -46 -14t-28.5 -34t-9.5 -39
q0 -33 9.5 -49.5t29.5 -16.5q8 0 15 3l14 6q6 3 12.5 5.5t12.5 2.5q15 0 23.5 -6.5t8.5 -17.5q0 -22 -17 -33t-41 -11q-8 0 -13 1l-10 2q-5 2 -10 3t-11 1q-21 0 -36 -11.5t-23 -29.5t-8 -35q0 -22 15 -35t40 -13t54.5 12t49.5 34q5 6 9.5 8.5t9.5 2.5q7 0 7.5 -9t-2.5 -15
q-11 -27 -36 -54t-61 -44t-82 -17z" />
  </g>

</svg>
