<?xml version="1.0" standalone="no"?>
<!DOCTYPE svg PUBLIC "-//W3C//DTD SVG 1.1//EN" "http://www.w3.org/Graphics/SVG/1.1/DTD/svg11.dtd" >
<svg xmlns="http://www.w3.org/2000/svg" xmlns:xlink="http://www.w3.org/1999/xlink" version="1.1" viewBox="-10 0 843 1000">
  <g transform="matrix(1 0 0 -1 0 800)">
   <path fill="currentColor"
d="M114 -4q-8 0 -14 3.5t-5 9.5q1 8 10 12.5t22 7.5q39 7 61 22t32 48l140 473q7 21 0 31q-7 9 -27 9h-38q-26 0 -52 -11.5t-45 -29.5q-8 -7 -19.5 -19.5t-22.5 -22.5t-19 -15t-10.5 -3.5t-3.5 4.5q-2 4 -1 9.5t3 12.5q12 17 23.5 37t22 42.5t20.5 47.5q5 12 12.5 18.5
t15.5 6.5t11.5 -9t9.5 -17q8 -9 24 -13t35 -4h81h81h99.5h99.5q21 0 38 5.5t26 9.5q18 9 30.5 18.5t24.5 9.5q6 0 8.5 -4t2.5 -9q0 -6 -3.5 -15t-6.5 -13q-11 -16 -20 -34.5t-16 -39.5t-14 -48q-8 -27 -21 -27q-16 0 -16 32q0 12 -2 26t-8 26.5t-19 20.5t-36 8h-76
q-25 0 -42 -9.5t-23 -30.5l-51 -176q-2 -10 2.5 -14.5t15.5 0.5q22 10 56 16.5t72 6.5q54 0 92.5 -23t54 -65t-2.5 -99l-37 -118q-9 -32 3.5 -47t46.5 -24q11 -3 16.5 -7t3.5 -12q-1 -7 -9 -10t-17 -3q-23 0 -46.5 1t-46 2t-43.5 1q-20 0 -41.5 -1t-43 -2.5t-44.5 -1.5
q-9 0 -15 3.5t-5 9.5q1 8 10 12.5t22 7.5q34 7 53 22t29 48l41 138q17 57 -8.5 88t-77.5 31q-29 0 -48 -4.5t-36 -14.5q-7 -4 -13 -11.5t-8 -15.5l-65 -210q-10 -32 1.5 -47.5t42.5 -23.5q11 -3 16.5 -7t3.5 -12q-1 -7 -9 -10t-17 -3q-23 0 -45 1t-43.5 2t-41.5 1
q-21 0 -45 -1t-48 -2.5t-48 -1.5z" />
  </g>

</svg>
