<?xml version="1.0" standalone="no"?>
<!DOCTYPE svg PUBLIC "-//W3C//DTD SVG 1.1//EN" "http://www.w3.org/Graphics/SVG/1.1/DTD/svg11.dtd" >
<svg xmlns="http://www.w3.org/2000/svg" xmlns:xlink="http://www.w3.org/1999/xlink" version="1.1" viewBox="-10 0 269 1000">
  <g transform="matrix(1 0 0 -1 0 800)">
   <path fill="currentColor"
d="M78 457q-7 0 -12.5 6.5t-9.5 17.5q-2 7 -9.5 25t-17 40.5t-16.5 39.5l-4 14t-2 12q0 9 3.5 15.5t9.5 6.5q7 0 11 -4.5t10 -12.5q14 -16 25.5 -33.5t22.5 -37.5q4 -6 7.5 -5.5t10.5 5.5q25 18 46.5 34t45.5 34q12 8 22 14t17 6q11 0 11 -12q0 -4 -4 -12t-14 -19
q-12 -14 -29.5 -31.5t-35 -34.5t-31.5 -30t-20 -17q-11 -10 -20 -15.5t-17 -5.5z" />
  </g>

</svg>
