<?xml version="1.0" standalone="no"?>
<!DOCTYPE svg PUBLIC "-//W3C//DTD SVG 1.1//EN" "http://www.w3.org/Graphics/SVG/1.1/DTD/svg11.dtd" >
<svg xmlns="http://www.w3.org/2000/svg" xmlns:xlink="http://www.w3.org/1999/xlink" version="1.1" viewBox="-10 0 500 1000">
  <g transform="matrix(1 0 0 -1 0 800)">
   <path fill="currentColor"
d="M139 -14q-33 0 -62.5 17.5t-47 47t-17.5 67.5q0 47 19.5 100t55.5 100.5t86.5 78t112.5 30.5q61 0 97.5 -36.5t36.5 -98.5q0 -45 -19 -98t-56 -100.5t-88.5 -77.5t-117.5 -30zM158 22q21 0 42.5 22t41.5 57.5t35.5 78.5t25 86t9.5 78q0 22 -8 35t-29 13q-19 0 -40.5 -21
t-41.5 -55.5t-36.5 -77t-26.5 -85.5t-10 -81q0 -26 10.5 -38t27.5 -12zM309 468q-9 0 -13 9t-10 28q-4 16 -8.5 35.5l-9 39t-8 36t-5.5 27.5q-2 13 2 23.5t14 10.5q13 0 25 -27q6 -13 16 -34.5t21 -42.5q4 -7 11 0q23 21 47 42.5t40 35.5q13 12 23 19t16 7q10 0 10 -11
q0 -5 -3 -11.5t-8 -14.5q-14 -17 -33.5 -40.5t-39.5 -47.5t-36 -43q-16 -17 -29 -29t-22 -12z" />
  </g>

</svg>
