<?xml version="1.0" standalone="no"?>
<!DOCTYPE svg PUBLIC "-//W3C//DTD SVG 1.1//EN" "http://www.w3.org/Graphics/SVG/1.1/DTD/svg11.dtd" >
<svg xmlns="http://www.w3.org/2000/svg" xmlns:xlink="http://www.w3.org/1999/xlink" version="1.1" viewBox="-10 0 499 1000">
  <g transform="matrix(1 0 0 -1 0 800)">
   <path fill="currentColor"
d="M139 -14q-33 0 -62.5 17.5t-47 47t-17.5 67.5q0 47 19.5 100t55.5 100.5t86.5 78t112.5 30.5q61 0 97.5 -36.5t36.5 -98.5q0 -45 -19 -98t-56 -100.5t-88.5 -77.5t-117.5 -30zM158 22q21 0 42.5 22t41.5 57.5t35.5 78.5t25 86t9.5 78q0 22 -8 35t-29 13q-19 0 -40.5 -21
t-41.5 -55.5t-36.5 -77t-26.5 -85.5t-10 -81q0 -26 10.5 -38t27.5 -12zM100 -287q-19 0 -36.5 12t-28.5 30t-11 37q0 39 18.5 72t48.5 61.5t64 51.5t67 41h36q-34 -24 -63.5 -55.5t-47.5 -66t-18 -70.5q0 -13 8.5 -24t25.5 -11q14 0 31 12.5t29 27.5q2 2 6 5.5t8 5t7 -3.5
q3 -1 2 -7.5t-2 -10.5q-6 -18 -20.5 -36.5t-34.5 -34.5t-43 -25.5t-46 -10.5zM195 526q-8 0 -10.5 3.5t-2.5 10.5q0 12 7 24t17.5 20.5t18.5 8.5h237q17 0 17 -12q0 -11 -8 -24t-19 -22t-22 -9h-235z" />
  </g>

</svg>
