<?xml version="1.0" standalone="no"?>
<!DOCTYPE svg PUBLIC "-//W3C//DTD SVG 1.1//EN" "http://www.w3.org/Graphics/SVG/1.1/DTD/svg11.dtd" >
<svg xmlns="http://www.w3.org/2000/svg" xmlns:xlink="http://www.w3.org/1999/xlink" version="1.1" viewBox="-90 0 472 1000">
  <g transform="matrix(1 0 0 -1 0 800)">
   <path fill="currentColor"
d="M84 -14q-13 0 -26 9t-21 21.5t-8 21.5q0 11 3 20.5t9 25.5l94 258q5 13 0.5 17.5t-10.5 4.5l-46 2q-15 1 -18.5 7t-3.5 11q0 2 6 9.5t16 14t21 6.5h44q14 0 18.5 4.5t11.5 18.5l27 54q7 13 19.5 26t26.5 22t24 9q13 0 17 -14t-1 -27l-24 -74q-3 -12 1 -15.5t13 -3.5
q16 0 33.5 -2t33.5 -4q20 -3 24 -7.5t4 -11.5q0 -2 -5 -8.5t-19 -7.5q-16 -1 -32 -2.5t-36 -2.5q-17 -1 -25.5 -5t-12.5 -14l-79 -219q-6 -18 -6 -28t5 -13.5t12 -3.5q13 0 31 12.5t36 28t29 27.5q6 5 10 5.5t5 -2.5q3 -3 3 -9.5t-4 -14.5q-7 -16 -23.5 -35t-39 -39t-47 -36
t-48 -26t-42.5 -10zM6 -281q-24 0 -43.5 9t-31 23.5t-11.5 28.5q0 34 26 34q13 0 24.5 -7t21.5 -16q13 -11 23 -19t25 -8q10 0 15.5 6.5t5.5 16.5q0 15 -10 25t-21 22q-11 11 -22 25.5t-11 29.5q0 17 19 40.5t47 47t56 40.5h36q-41 -31 -55.5 -52.5t-14.5 -35.5
q0 -10 10 -21t22 -22q13 -13 22 -24.5t9 -25.5q0 -16 -15 -35.5t-37 -38.5t-46.5 -31t-43.5 -12z" />
  </g>

</svg>
