<?xml version="1.0" standalone="no"?>
<!DOCTYPE svg PUBLIC "-//W3C//DTD SVG 1.1//EN" "http://www.w3.org/Graphics/SVG/1.1/DTD/svg11.dtd" >
<svg xmlns="http://www.w3.org/2000/svg" xmlns:xlink="http://www.w3.org/1999/xlink" version="1.1" viewBox="-66 0 345 1000">
  <g transform="matrix(1 0 0 -1 0 800)">
   <path fill="currentColor"
d="M90 451q-77 0 -111.5 26.5t-34.5 55.5q0 22 14 34t27 12q14 0 25.5 -7.5t19.5 -19.5q9 -16 26.5 -28.5t49.5 -12.5q31 0 65 16.5t61 36.5q7 5 12.5 8.5t12.5 3.5q12 0 12 -14q0 -6 -13 -24t-37 -38t-57 -34.5t-72 -14.5zM87 558q-18 0 -29.5 13.5t-11.5 30.5q0 26 19 47
t46 21q18 0 28.5 -15.5t10.5 -32.5q0 -25 -18.5 -44.5t-44.5 -19.5z" />
  </g>

</svg>
