<?xml version="1.0" standalone="no"?>
<!DOCTYPE svg PUBLIC "-//W3C//DTD SVG 1.1//EN" "http://www.w3.org/Graphics/SVG/1.1/DTD/svg11.dtd" >
<svg xmlns="http://www.w3.org/2000/svg" xmlns:xlink="http://www.w3.org/1999/xlink" version="1.1" viewBox="-46 0 1481 1000">
  <g transform="matrix(1 0 0 -1 0 800)">
   <path fill="currentColor"
d="M309 -7q-26 0 -63 2.5t-72.5 4.5t-59.5 2q-19 0 -40.5 -1t-44.5 -3t-46 -2q-9 0 -14 3.5t-4 9.5q3 17 30 20q29 4 45.5 11.5t26 21.5t16.5 36l145 457q7 24 -0.5 35.5t-24 18t-40.5 11.5q-11 2 -15 7.5t-2 13.5q1 6 9.5 9.5t16.5 3.5q36 0 74.5 -2t68.5 -2q20 0 38 1
t39.5 2t51.5 1q94 0 160.5 -34.5t102.5 -96t36 -142.5q0 -77 -32.5 -147t-91.5 -124t-138 -85.5t-172 -31.5zM311 27q61 0 115 32t95 85.5t64.5 119.5t23.5 135q0 78 -21 126t-59.5 70.5t-90.5 22.5q-30 0 -45.5 -4.5t-23 -15t-12.5 -26.5l-136 -443q-11 -38 -1 -60.5
t35 -32t56 -9.5zM1242 -4q-19 0 -52.5 0.5t-76.5 1.5t-89 1.5t-91 0.5q-40 0 -79 -0.5t-74 -2t-65 -2.5q-7 -1 -6.5 10t3.5 14q8 11 21.5 27.5t29.5 34.5t31 33q58 62 112 122t106.5 119t107 119t113.5 123q5 6 6.5 12t-14.5 7q-12 0 -34 -0.5t-48 -1.5t-49.5 -2.5
t-39.5 -2.5q-32 -5 -69 -24.5t-68 -63.5q-9 -12 -17 -21.5t-20 -9.5q-8 0 -10 6t-1 13q1 4 3 11t6 15q14 26 25 52.5t20 47.5q6 14 13 20.5t18 6.5q23 0 55.5 -6.5t71.5 -6.5q32 -1 65 -1h63q33 0 69 1t71 2t62 1q7 0 11 -10t1 -13l-90 -98q-56 -59 -108.5 -115.5
t-103.5 -113t-102.5 -114.5t-105.5 -120q-23 -26 6 -27q18 -1 49.5 -1.5t63.5 -0.5q27 1 55.5 3t55 6.5t47.5 11.5q38 11 71 34t59 63q5 7 10 11t12 4t9 -5t1 -12q-2 -10 -11.5 -28t-21.5 -39t-24 -40.5t-20 -33.5q-5 -8 -13 -13t-20 -5z" />
  </g>

</svg>
