<?xml version="1.0" standalone="no"?>
<!DOCTYPE svg PUBLIC "-//W3C//DTD SVG 1.1//EN" "http://www.w3.org/Graphics/SVG/1.1/DTD/svg11.dtd" >
<svg xmlns="http://www.w3.org/2000/svg" xmlns:xlink="http://www.w3.org/1999/xlink" version="1.1" viewBox="-10 0 284 1000">
  <g transform="matrix(1 0 0 -1 0 800)">
   <path fill="currentColor"
d="M134.707 411.211q-29.7773 0 -48.5654 17.3701t-19.4971 47.1475q0 38.2852 18.4336 67.3535t48.5654 45.375t66.29 16.3066q26.9414 0 45.0205 -13.4707t18.0791 -34.7402q0 -14.8887 -6.38086 -24.46t-19.8516 -9.57129h-92.877q-8.50781 0 -12.7617 -10.6348
q-0.708984 -4.25391 -1.77246 -8.8623t-1.06348 -10.2803q0 -14.8887 9.57129 -26.2324t28.7139 -11.3438q15.5977 0 26.2324 4.6084t24.1055 15.2432q4.96289 4.25391 9.2168 4.25391q2.83594 0 7.44434 -3.54492t3.89941 -7.79883q-0.708984 -2.12695 -3.54492 -6.38086
t-6.38086 -8.50781q-12.7617 -14.1797 -36.8672 -28.0049t-56.0098 -13.8252zM152.432 544.5h47.502q9.2168 0 13.1162 6.02637t3.89941 14.5342q0 7.08984 -4.25391 13.8252t-17.0156 6.73535q-17.0156 0 -31.5498 -12.0527t-17.3701 -23.3965
q-0.708984 -5.67188 5.67188 -5.67188z" />
  </g>

</svg>
