<?xml version="1.0" standalone="no"?>
<!DOCTYPE svg PUBLIC "-//W3C//DTD SVG 1.1//EN" "http://www.w3.org/Graphics/SVG/1.1/DTD/svg11.dtd" >
<svg xmlns="http://www.w3.org/2000/svg" xmlns:xlink="http://www.w3.org/1999/xlink" version="1.1" viewBox="-45 0 1132 1000">
  <g transform="matrix(1 0 0 -1 0 800)">
   <path fill="currentColor"
d="M-17 -4q-8 0 -13 3.5t-4 9.5q3 15 30 20q37 8 53 22t26 47l140 453q10 33 4 47t-39 22q-11 2 -15 7.5t-2 13.5q1 6 9 9.5t17 3.5q23 0 43.5 -1t39.5 -2t38 -1t40.5 1t44.5 2t46 1q19 0 17 -14q-2 -8 -10 -12.5t-21 -7.5q-28 -6 -44.5 -15t-26 -22t-15.5 -33l-58 -188
q-3 -12 11 -12h276q11 0 15 14l57 187q9 29 1 43t-43 26q-11 3 -15 7.5t-2 12.5q1 7 8 10.5t17 3.5q22 0 45 -1t45.5 -2t42.5 -1l194 1q29 0 49.5 4t32.5 10q17 9 29 18.5t25 9.5q5 0 5.5 -5.5t-1.5 -13.5q-1 -5 -4.5 -12t-5.5 -12q-10 -19 -18.5 -33t-15 -26.5t-11.5 -28.5
l-5 -17q-4 -14 -11.5 -24.5t-16.5 -10.5q-8 0 -10.5 10t-1.5 30q1 31 -15.5 47t-61.5 16h-67q-20 0 -34 -11.5t-22 -34.5l-145 -469q-11 -33 -4 -47t39 -22q11 -2 15.5 -7t2.5 -13q-1 -6 -9.5 -9.5t-16.5 -3.5q-22 0 -42 1.5t-40 2.5t-39 1t-41 -1t-45 -2t-46 -1
q-19 0 -17 13q2 8 10 12t21 7q37 9 56.5 24t28.5 45l59 192q3 7 3 11.5t-7 4.5h-280q-12 0 -16 -14l-59 -190q-9 -30 2.5 -46t44.5 -27q11 -3 15.5 -7t2.5 -12q-1 -7 -8 -10t-17 -3q-23 0 -46 1t-44.5 2t-42.5 1q-20 0 -41 -1t-42.5 -2.5t-43.5 -1.5z" />
  </g>

</svg>
