<?xml version="1.0" standalone="no"?>
<!DOCTYPE svg PUBLIC "-//W3C//DTD SVG 1.1//EN" "http://www.w3.org/Graphics/SVG/1.1/DTD/svg11.dtd" >
<svg xmlns="http://www.w3.org/2000/svg" xmlns:xlink="http://www.w3.org/1999/xlink" version="1.1" viewBox="-204 0 679 1000">
  <g transform="matrix(1 0 0 -1 0 800)">
   <path fill="currentColor"
d="M-78 -200q-63 0 -89.5 17t-26.5 39q0 26 8.5 43t24.5 17q11 0 25.5 -12.5t31.5 -26.5q16 -14 32.5 -26t32.5 -12q18 0 33 16.5t31 54t35 101.5l166 540q10 33 1.5 47t-44.5 22q-11 2 -15 7.5t-2 13.5q1 6 9 9.5t17 3.5q23 0 45 -1t43 -2t42 -1q18 0 38.5 1t42.5 2t45 1
q19 0 16 -14q-2 -8 -9.5 -12.5t-20.5 -7.5q-27 -6 -42.5 -14t-23.5 -21t-15 -35l-141 -457q-14 -48 -29 -82t-31 -59t-33.5 -44t-36.5 -37q-35 -31 -75 -51t-85 -20z" />
  </g>

</svg>
