<?xml version="1.0" standalone="no"?>
<!DOCTYPE svg PUBLIC "-//W3C//DTD SVG 1.1//EN" "http://www.w3.org/Graphics/SVG/1.1/DTD/svg11.dtd" >
<svg xmlns="http://www.w3.org/2000/svg" xmlns:xlink="http://www.w3.org/1999/xlink" version="1.1" viewBox="-102 0 535 1000">
  <g transform="matrix(1 0 0 -1 0 800)">
   <path fill="currentColor"
d="M-82 -287q-3 0 -6.5 4t-3.5 12q0 20 10.5 41.5t34 36.5t63.5 15q27 0 56 -4t54 -8.5t42 -4.5q15 0 27.5 10.5t12.5 23.5q0 16 -15 34t-37 37.5t-43 38.5q-48 45 -74 84.5t-26 85.5q0 50 20 103t56.5 100t86.5 76t111 29t97 -36.5t36 -98.5q0 -40 -15 -87t-44 -90.5
t-70.5 -76.5t-94.5 -45q11 -10 24.5 -22.5t25.5 -26.5t20 -31t8 -37q0 -23 -18 -48.5t-44.5 -46t-52.5 -33t-42 -12.5q-31 0 -56 1t-44 2.5t-32 1.5q-27 0 -37 -4t-17 -13q-3 -5 -6 -8t-7 -3zM160 25q21 0 42.5 21t41 56.5t35 77.5t25 85t9.5 79q0 22 -8.5 35t-28.5 13
q-18 0 -39 -19t-41 -51t-37 -71.5t-26.5 -81t-9.5 -78.5q0 -14 3 -29.5t11 -26t23 -10.5z" />
  </g>

</svg>
