<?xml version="1.0" standalone="no"?>
<!DOCTYPE svg PUBLIC "-//W3C//DTD SVG 1.1//EN" "http://www.w3.org/Graphics/SVG/1.1/DTD/svg11.dtd" >
<svg xmlns="http://www.w3.org/2000/svg" xmlns:xlink="http://www.w3.org/1999/xlink" version="1.1" viewBox="-10 0 867 1000">
  <g transform="matrix(1 0 0 -1 0 800)">
   <path fill="currentColor"
d="M469 -287q-6 0 -12 3t-6 9q0 8 6.5 12t15.5 7q22 7 35 15.5t13 29.5l1 489q0 27 -9.5 44.5t-25.5 17.5q-14 0 -25.5 -9.5t-6.5 -30.5q2 -13 7.5 -35t5.5 -49q0 -64 -25 -116.5t-75 -83t-125 -30.5q-57 0 -104.5 24.5t-76 70.5t-28.5 107q0 69 31.5 122.5t86.5 85
t124 31.5q21 0 43.5 -3.5t41.5 -7.5t28 -7q31 -8 61.5 -15.5t62.5 -7.5q18 0 33.5 10t30.5 21q12 9 24 15.5t24 6.5q13 0 13 -11q0 -9 -4.5 -36.5t-4.5 -82.5l1 -526q0 -18 10.5 -25t29.5 -13q10 -3 16.5 -7.5t6.5 -12.5q0 -6 -6.5 -9t-13.5 -3q-20 0 -35.5 1.5t-30.5 2.5
t-33 1q-17 0 -34 -1t-34 -2.5t-37 -1.5zM270 31q32 0 49 26t24 64.5t7 77.5q0 44 -9.5 86.5t-29.5 70.5t-54 28q-33 0 -56 -23t-34.5 -61.5t-11.5 -85.5q0 -41 10 -75t27.5 -58t38 -37t39.5 -13z" />
  </g>

</svg>
