<?xml version="1.0" standalone="no"?>
<!DOCTYPE svg PUBLIC "-//W3C//DTD SVG 1.1//EN" "http://www.w3.org/Graphics/SVG/1.1/DTD/svg11.dtd" >
<svg xmlns="http://www.w3.org/2000/svg" xmlns:xlink="http://www.w3.org/1999/xlink" version="1.1" viewBox="-10 0 790 1000">
  <g transform="matrix(1 0 0 -1 0 800)">
   <path fill="currentColor"
d="M453 -251q-6 0 -11.5 2.5t-5.5 8.5q0 5 3 7t7 3q27 10 50.5 27.5t38.5 65.5q9 29 20 50t29 46q8 12 21.5 26.5t28 28.5t23.5 23l-9 14l69 49q-24 -26 -37 -65.5t-20 -75.5q-10 -53 -26.5 -97.5t-58.5 -70.5q-19 -12 -46 -21.5t-49 -15t-27 -5.5zM75 -14q-20 0 -28 16
t-6.5 40t10.5 45l90 209q7 16 7 25t-8 9q-5 0 -18.5 -8t-28 -19t-24.5 -20q-5 -5 -11 -10t-9 -5t-6 3t-3 7q0 7 3.5 16t10.5 19q28 35 58 60.5t60 40t56 14.5q11 0 23 -11t20 -25.5t2 -26.5q-24 -54 -50.5 -109t-59.5 -128q-8 -17 -7.5 -30t10.5 -13q9 0 27 16t41 42.5
t48 58t49 64t43 61.5t30 48q14 22 25 37t23 15q16 0 27 -8t17 -16q3 -6 2.5 -14t-5.5 -19q-13 -31 -30.5 -72.5t-36.5 -85.5t-36 -84q-7 -17 -7.5 -30t10.5 -13q10 0 28 16t41.5 42.5t48.5 58t49 64t43.5 61.5t31.5 48q13 22 24.5 37t23.5 15q10 0 21 -6t16 -14
q5 -6 5.5 -14.5t-3.5 -20.5l-104 -268q-4 -12 -3.5 -20t6.5 -8q10 0 28 11.5t37.5 28t33.5 30.5q2 2 4 2q4 0 7.5 -4t3.5 -9q0 -9 -8.5 -21.5t-22.5 -25.5t-31 -25.5t-33.5 -21t-30.5 -11.5q-15 -10 -33 -15t-35.5 -4.5t-31.5 6.5q-6 3 -10 13.5t1 20.5q10 23 22 49t24.5 53
t21.5 51q4 9 -1.5 8.5t-10.5 -6.5q-37 -46 -69 -85.5t-62 -70t-59 -47.5t-58 -17q-20 0 -28.5 16t-7 39t11.5 45l53 118q4 9 -1.5 10t-10.5 -6q-36 -46 -68.5 -86t-63 -70.5t-59.5 -48t-59 -17.5z" />
  </g>

</svg>
