<?xml version="1.0" standalone="no"?>
<!DOCTYPE svg PUBLIC "-//W3C//DTD SVG 1.1//EN" "http://www.w3.org/Graphics/SVG/1.1/DTD/svg11.dtd" >
<svg xmlns="http://www.w3.org/2000/svg" xmlns:xlink="http://www.w3.org/1999/xlink" version="1.1" viewBox="-10 0 540 1000">
  <g transform="matrix(1 0 0 -1 0 800)">
   <path fill="currentColor"
d="M200 -15q-53 0 -94 18t-64 50t-23 73q0 64 29.5 107.5t84 78.5t127.5 73q48 24 84 49.5t56 54t20 64.5q0 31 -21.5 49t-56.5 18q-51 0 -88.5 -31t-70.5 -87q-4 -8 -13 -12.5t-17 -4.5t-13 4.5t-3 10.5q10 32 23 61t26 50q8 13 15 19t18 10q22 8 56.5 16t71.5 8
q55 0 93.5 -17.5t59 -48t20.5 -69.5q0 -48 -17 -83t-47.5 -62t-72 -51t-89.5 -49q-31 -16 -61.5 -34t-55.5 -40t-40.5 -48.5t-15.5 -59.5q0 -29 20 -49.5t57 -20.5q36 0 71.5 19.5t68.5 54t61 79.5q10 12 26 12q8 0 14 -3t4 -10q-10 -34 -24.5 -70.5t-30.5 -61.5
q-5 -7 -11.5 -12.5t-13.5 -10.5q-40 -22 -80 -33t-83 -11z" />
  </g>

</svg>
