<?xml version="1.0" standalone="no"?>
<!DOCTYPE svg PUBLIC "-//W3C//DTD SVG 1.1//EN" "http://www.w3.org/Graphics/SVG/1.1/DTD/svg11.dtd" >
<svg xmlns="http://www.w3.org/2000/svg" xmlns:xlink="http://www.w3.org/1999/xlink" version="1.1" viewBox="-10 0 676 1000">
  <g transform="matrix(1 0 0 -1 0 800)">
   <path fill="currentColor"
d="M140 -284q-23 0 -44.5 13t-21.5 34q0 15 8 26.5t27 11.5q15 0 27 -3.5t23 -3.5q15 0 24 14q9 16 22 40t27 53.5t27 61.5q9 21 9 40q0 12 -3 23t-7 20l-121 285q-8 20 -19.5 35t-28.5 20q-9 4 -14.5 8t-5.5 12t8 9.5t15 1.5q23 0 37 -1t25.5 -2t25.5 -1q20 0 33 1t28 2
t37 1q7 0 15 -2.5t8 -9.5q0 -8 -7.5 -11.5t-15.5 -6.5q-10 -4 -16.5 -14.5t-6.5 -26.5q0 -8 2 -17t7 -21l64 -159q2 -6 4 -5.5t5 5.5l124 312q15 38 45 55.5t60 17.5q22 0 42.5 -4.5t34 -14t13.5 -23.5q0 -19 -7.5 -38.5t-19.5 -33t-24 -13.5q-9 0 -21 14l-24 28t-24 14
q-15 0 -24.5 -13t-15.5 -27l-185 -448q-6 -14 -16 -37.5t-21.5 -51.5t-24.5 -58t-25 -59q-11 -26 -33.5 -39.5t-50.5 -13.5z" />
  </g>

</svg>
