<?xml version="1.0" standalone="no"?>
<!DOCTYPE svg PUBLIC "-//W3C//DTD SVG 1.1//EN" "http://www.w3.org/Graphics/SVG/1.1/DTD/svg11.dtd" >
<svg xmlns="http://www.w3.org/2000/svg" xmlns:xlink="http://www.w3.org/1999/xlink" version="1.1" viewBox="-45 0 765 1000">
  <g transform="matrix(1 0 0 -1 0 800)">
   <path fill="currentColor"
d="M527 -115q-43 0 -72 8.5t-46 24.5t-26 38q-13 30 -25.5 61t-24.5 63.5t-24 65.5q-7 21 -18 30t-31 9q-8 0 -14.5 -3t-9.5 -11l-15 -49q-10 -32 -10 -50t11.5 -26t33.5 -14q20 -4 25.5 -9t4.5 -13q-1 -7 -8.5 -10t-16.5 -3q-23 0 -47.5 1t-48 2t-44.5 1q-32 0 -67 -2.5
t-70 -2.5q-9 0 -14 3.5t-4 9.5q3 15 30 20q39 9 59.5 22.5t30.5 45.5l140 454q10 33 1 46.5t-45 22.5q-11 2 -15 7.5t-2 13.5q1 6 9 9.5t17 3.5q23 0 45 -1t43 -2t42 -1q20 0 41.5 1t44.5 2t46 1q20 0 17 -14q-2 -8 -9.5 -12.5t-21.5 -7.5q-26 -6 -42.5 -13.5t-26.5 -19.5
t-17 -33l-4 -13q10 0 21.5 0.5t25.5 0.5q61 0 104.5 -17.5t67 -51t23.5 -79.5q0 -49 -25 -86.5t-65 -62t-85 -36.5q-10 -4 -6 -14q10 -24 21.5 -50t24 -51.5t24 -49t20.5 -42.5q18 -35 40.5 -54t55.5 -21q13 -1 24 -5t11 -14q0 -15 -24 -19t-80 -4zM297 210q30 0 59.5 11.5
t55 35.5t40.5 60.5t15 85.5q0 46 -26.5 77.5t-66.5 31.5q-13 0 -22 -5t-16.5 -22.5t-20.5 -55.5l-55 -181q-7 -21 2 -29.5t35 -8.5z" />
  </g>

</svg>
