<?xml version="1.0" standalone="no"?>
<!DOCTYPE svg PUBLIC "-//W3C//DTD SVG 1.1//EN" "http://www.w3.org/Graphics/SVG/1.1/DTD/svg11.dtd" >
<svg xmlns="http://www.w3.org/2000/svg" xmlns:xlink="http://www.w3.org/1999/xlink" version="1.1" viewBox="-10 0 580 1000">
  <g transform="matrix(1 0 0 -1 0 800)">
   <path fill="currentColor"
d="M215 -14q-40 0 -75 10.5t-61 30t-40.5 48t-14.5 65.5q0 34 15 72.5t42.5 75t66.5 65.5q6 5 6.5 9.5t-7.5 7.5q-8 4 -20.5 7.5t-26.5 5.5q-7 2 -12.5 7t-4.5 12q1 8 9.5 11t14.5 3q20 0 33 -1t25 -2.5t29 -1.5q18 0 28.5 1.5t22.5 2.5t31 1q6 0 10.5 -3t3.5 -8
q-1 -8 -10.5 -12t-18.5 -11q-37 -29 -64 -72t-41 -88.5t-14 -85.5q0 -49 22 -78.5t63 -29.5q32 0 60.5 23.5t50.5 64.5t34.5 91t13.5 101q1 41 -14 68q-3 6 -8.5 12t-4.5 14q2 8 9.5 11t13.5 3q21 0 38.5 -2.5t43.5 -2.5t42 2.5t39 2.5q6 0 10.5 -2.5t3.5 -8.5
q-1 -8 -10.5 -14t-18.5 -8q-16 -4 -30 -6t-23 -5q-7 -2 -8 -6.5t2 -10.5q10 -24 14 -48t5 -49q1 -79 -32.5 -140t-95.5 -96.5t-147 -35.5z" />
  </g>

</svg>
