<?xml version="1.0" standalone="no"?>
<!DOCTYPE svg PUBLIC "-//W3C//DTD SVG 1.1//EN" "http://www.w3.org/Graphics/SVG/1.1/DTD/svg11.dtd" >
<svg xmlns="http://www.w3.org/2000/svg" xmlns:xlink="http://www.w3.org/1999/xlink" version="1.1" viewBox="-10 0 542 1000">
  <g transform="matrix(1 0 0 -1 0 800)">
   <path fill="currentColor"
d="M129 -285q-17 0 -29.5 6t-18 17t-1.5 27q6 17 27.5 65t52.5 127q3 9 -7 10q-64 11 -100.5 56.5t-36.5 111.5q0 52 22.5 103t62 94.5t90 71.5t107.5 35q9 1 11 10q12 43 20.5 77t15.5 56q7 21 14 26.5t23 5.5q26 0 36 -12t3 -35q-3 -10 -14.5 -39t-31.5 -83
q-1 -3 -0.5 -5.5t6.5 -3.5q59 -17 94 -67t35 -121q0 -42 -22.5 -87t-62 -85.5t-90 -69.5t-108.5 -38q-8 -1 -9 -10q-15 -57 -24.5 -95t-15 -64.5t-10.5 -49.5q-3 -14 -13.5 -24t-25.5 -10zM190 68q8 0 10 6q7 21 15 46t15 48l28 93q5 16 10.5 36t10.5 35q4 9 -7 8
q-38 -5 -74 -23.5t-66.5 -45t-48.5 -56.5t-18 -58q0 -24 16 -44t45 -32t64 -13zM260 65q50 6 93.5 28.5t70.5 54.5t27 65q0 27 -11 54t-34 47t-60 26q-8 1 -12 -8q-6 -17 -12.5 -39.5t-12.5 -40.5l-30 -96q-7 -19 -14 -41.5t-13 -41.5q-4 -10 8 -8z" />
  </g>

</svg>
