<?xml version="1.0" standalone="no"?>
<!DOCTYPE svg PUBLIC "-//W3C//DTD SVG 1.1//EN" "http://www.w3.org/Graphics/SVG/1.1/DTD/svg11.dtd" >
<svg xmlns="http://www.w3.org/2000/svg" xmlns:xlink="http://www.w3.org/1999/xlink" version="1.1" viewBox="-10 0 591 1000">
  <g transform="matrix(1 0 0 -1 0 800)">
   <path fill="currentColor"
d="M331 -14q-20 0 -33 16.5t-13 34.5q0 5 2 12.5t7 18.5q14 32 26 60t24 54t24 53q3 8 0.5 10t-6.5 -3q-29 -35 -69 -61.5t-79.5 -41.5t-69.5 -15q-23 0 -41.5 12t-25 35t7.5 54l37 83q6 11 6.5 18t-6.5 7t-18.5 -6t-23 -16t-20.5 -21q-4 -5 -8.5 -9t-8.5 -4q-9 0 -9 12
q0 5 3 13t11 18q23 29 55 53t65 39.5t55 15.5q20 0 27.5 -15.5t-6.5 -46.5l-50 -113q-8 -20 -5.5 -32t12 -17.5t20.5 -5.5q19 0 45.5 12.5t53.5 34.5t47 49q13 18 29.5 44.5t30.5 59.5q3 8 14 13.5t24.5 9t25.5 5t16 1.5q21 0 23 -13.5t-6 -36.5l-106 -272q-8 -22 0 -24
q6 -1 13.5 2.5t15.5 8.5t14 10t9 7q4 0 13 5.5t19.5 13t17.5 14.5q6 2 6 -2q4 -2 5.5 -6.5t0.5 -8.5q-7 -17 -23 -36t-38.5 -37t-47 -33t-48.5 -24t-44 -9zM225 64q-11 0 -20 9t-5 21l72 234q2 7 8.5 12.5t12.5 5.5q9 0 18.5 -11.5t4.5 -27.5l-69 -225q-3 -8 -9 -13t-13 -5z
" />
  </g>

</svg>
