<?xml version="1.0" standalone="no"?>
<!DOCTYPE svg PUBLIC "-//W3C//DTD SVG 1.1//EN" "http://www.w3.org/Graphics/SVG/1.1/DTD/svg11.dtd" >
<svg xmlns="http://www.w3.org/2000/svg" xmlns:xlink="http://www.w3.org/1999/xlink" version="1.1" viewBox="-10 0 722 1000">
  <g transform="matrix(1 0 0 -1 0 800)">
   <path fill="currentColor"
d="M297 -14q-72 0 -124 33.5t-80.5 92t-28.5 130.5q0 78 29.5 153.5t83.5 136t128 96.5t164 36q72 0 124.5 -33.5t80.5 -91.5t28 -131q0 -78 -29.5 -153t-83.5 -136t-128 -97t-164 -36zM298 21q47 0 89 28.5t78 76t62 105.5t40 117.5t14 111.5q0 45 -11.5 84t-37 63.5
t-65.5 24.5q-46 0 -88 -28.5t-77 -76.5t-61.5 -106.5t-41 -118.5t-14.5 -113q0 -44 11.5 -82t36.5 -62t65 -24zM502 697q-11 0 -20 7t-20 19l-74 90q-6 8 -5 14q1 12 19 12q8 0 27 -9t40 -21.5t32 -21.5q6 -5 12.5 -4.5t13.5 4.5q13 5 36.5 14t49 17.5l45 15t25.5 6.5
q15 0 15 -12q0 -9 -9 -16l-133 -89q-19 -13 -30.5 -19.5t-23.5 -6.5z" />
  </g>

</svg>
