<?xml version="1.0" standalone="no"?>
<!DOCTYPE svg PUBLIC "-//W3C//DTD SVG 1.1//EN" "http://www.w3.org/Graphics/SVG/1.1/DTD/svg11.dtd" >
<svg xmlns="http://www.w3.org/2000/svg" xmlns:xlink="http://www.w3.org/1999/xlink" version="1.1" viewBox="-53 0 577 1000">
  <g transform="matrix(1 0 0 -1 0 800)">
   <path fill="currentColor"
d="M22 -14q-25 0 -39.5 13t-20 29.5t-4.5 29.5q1 10 4 17.5t12 7.5q6 0 12.5 -2t14.5 -5q9 -2 20 -4.5t26 -2.5q25 0 42 7t29 29l119 198q36 60 77.5 92t91.5 32q9 0 19.5 -5t18 -12.5t7.5 -15.5q-1 -6 -2.5 -15.5t-3.5 -17.5l-84 -261q-8 -24 5 -24q7 0 20.5 8t28.5 19.5
t28 22.5t20 18l3 3t3 1q4 0 7 -4.5t3 -10.5t-4 -14.5t-13 -18.5q-16 -20 -39 -40t-48 -37t-48.5 -27t-41.5 -10q-17 0 -29.5 11.5t-18 26t-2.5 25.5l99 285q4 11 2 17t-8 6q-13 0 -27 -20t-27 -39q-5 -8 -19.5 -33t-34 -59.5t-41.5 -70t-42.5 -65.5t-36.5 -47
q-20 -21 -39.5 -29t-38.5 -8z" />
  </g>

</svg>
