<?xml version="1.0" standalone="no"?>
<!DOCTYPE svg PUBLIC "-//W3C//DTD SVG 1.1//EN" "http://www.w3.org/Graphics/SVG/1.1/DTD/svg11.dtd" >
<svg xmlns="http://www.w3.org/2000/svg" xmlns:xlink="http://www.w3.org/1999/xlink" version="1.1" viewBox="-10 0 944 1000">
  <g transform="matrix(1 0 0 -1 0 800)">
   <path fill="currentColor"
d="M153 -4q-7 0 -11 4t-4 11q2 22 0 49.5t-2.5 55t2.5 48.5q4 16 18 16q7 0 11.5 -5.5t5.5 -15.5q4 -26 13.5 -37t29 -13.5t49.5 -2.5l89 1q5 0 6.5 2t-3.5 6q-47 30 -77.5 77.5t-30.5 112.5q0 80 35 145.5t94 113.5t131 74t146 26q73 0 132 -26.5t93.5 -76t35.5 -117.5
q0 -55 -20.5 -105t-57 -93t-82.5 -76.5t-97 -55.5q-4 -2 -5.5 -5t3.5 -3l87 -1q30 0 50.5 2.5t37 14t35.5 37.5q8 10 15.5 15.5t15.5 5.5q6 0 8.5 -5t-1.5 -13q-10 -19 -27.5 -46t-34.5 -54t-29 -47q-5 -10 -12 -14.5t-17 -4.5q-11 0 -29 1.5t-45 1.5h-58.5t-65 0.5
t-58.5 0.5q-8 0 -9.5 2.5t-0.5 8.5q3 17 18 36t29 29q44 28 83 74.5t68.5 101t46.5 109.5t16 103q-1 76 -34.5 117.5t-92.5 41.5q-56 0 -105.5 -33.5t-87.5 -89.5t-60 -125t-22 -139q0 -47 12.5 -88.5t35.5 -74.5q6 -8 7 -22t-1 -25q0 -11 -4 -18.5t-10 -7.5h-38.5h-31
h-31.5t-38.5 -0.5t-42.5 -0.5q-28 0 -49.5 -1.5t-33.5 -1.5zM195 434q-32 0 -56 22t-24 59t18 64t46.5 42t58.5 15q25 0 37 -9.5t12 -25.5q0 -19 -12 -31t-36 -15q-66 -9 -66 -51q0 -13 6.5 -22t23.5 -16t17 -19q0 -4 -6 -8.5t-19 -4.5zM124 641q-5 0 -12 6t-7 12
q0 5 11 20.5t27 34.5t31 32.5t22 13.5q13 0 25.5 -2.5t36.5 -4.5q21 -1 37 -2.5t27 -1.5q19 0 35 18q11 11 15.5 17.5t8.5 6.5q6 0 13.5 -6t7.5 -12q0 -4 -6 -11t-14 -17q-11 -14 -22 -30.5t-21 -30.5q-6 -8 -15.5 -11t-14.5 -3q-8 0 -25 1.5t-38 3t-41.5 3t-33.5 1.5
q-11 0 -19 -9q-11 -13 -17.5 -21t-10.5 -8z" />
  </g>

</svg>
