<?xml version="1.0" standalone="no"?>
<!DOCTYPE svg PUBLIC "-//W3C//DTD SVG 1.1//EN" "http://www.w3.org/Graphics/SVG/1.1/DTD/svg11.dtd" >
<svg xmlns="http://www.w3.org/2000/svg" xmlns:xlink="http://www.w3.org/1999/xlink" version="1.1" viewBox="-45 0 526 1000">
  <g transform="matrix(1 0 0 -1 0 800)">
   <path fill="currentColor"
d="M-16 -4q-9 0 -14 3.5t-4 9.5q3 15 30 20q39 9 59.5 22.5t30.5 45.5l140 454q10 33 1 46.5t-45 22.5q-11 2 -15 7.5t-2 13.5q1 6 9 9.5t17 3.5q23 0 45 -1t43 -2t42 -1q20 0 41.5 1t44.5 2t46 1q20 0 17 -14q-2 -8 -9.5 -12.5t-21.5 -7.5q-27 -6 -44 -14t-27 -21t-16 -35
l-131 -428q-10 -32 -10 -50t11.5 -26t33.5 -14q20 -4 25.5 -9t4.5 -13q-1 -7 -8.5 -10t-16.5 -3q-23 0 -47.5 1t-48 2t-44.5 1q-32 0 -67 -2.5t-70 -2.5zM329 690q-9 0 -16.5 11t-7.5 21q0 15 10.5 22.5t23.5 14.5q12 7 21.5 14t9.5 20q0 6 -4.5 10.5t-12.5 4.5
q-14 0 -25.5 -10t-25.5 -23q-7 -6 -14 -11t-15 -5t-14 11.5t-6 20.5q0 10 9 20t17 14q21 10 44.5 16.5t56.5 6.5q31 0 52.5 -12.5t21.5 -35.5q0 -24 -20.5 -38t-41.5 -21q-15 -4 -23.5 -8.5t-9.5 -14.5q-1 -3 -1.5 -7.5t-0.5 -8.5q-1 -6 -11 -9t-17 -3z" />
  </g>

</svg>
