<?xml version="1.0" standalone="no"?>
<!DOCTYPE svg PUBLIC "-//W3C//DTD SVG 1.1//EN" "http://www.w3.org/Graphics/SVG/1.1/DTD/svg11.dtd" >
<svg xmlns="http://www.w3.org/2000/svg" xmlns:xlink="http://www.w3.org/1999/xlink" version="1.1" viewBox="-10 0 462 1000">
  <g transform="matrix(1 0 0 -1 0 800)">
   <path fill="currentColor"
d="M359 491q-21 0 -33.5 14.5t-12.5 35.5q0 22 11.5 40t30 28.5t40.5 10.5t34.5 -14.5t12.5 -35.5q0 -32 -24.5 -55.5t-58.5 -23.5zM170 491q-21 0 -33.5 14.5t-12.5 35.5q0 22 11.5 40t30 28.5t39.5 10.5q23 0 35.5 -14.5t12.5 -35.5q0 -32 -24.5 -55.5t-58.5 -23.5z
M286.294 587.357q10.626 -2.84863 13.9229 5.58594q3.29688 8.43555 0.797852 18.4248l-31.6025 167.928q-2.61816 17.2695 -8.27441 27.0693t-14.3506 12.1299q-8.69434 2.33105 -22.7109 -1.67676q-14.0176 -4.00781 -25.4307 -11.8203
q-11.4141 -7.8125 -13.7441 -16.5059q-1.81348 -6.7627 0.686523 -16.751q2.49902 -9.98926 9.31055 -23.2051l69.457 -138.73q3.01758 -8.05664 9.09766 -14.3457q6.0791 -6.29004 12.8408 -8.10254z" />
  </g>

</svg>
