<?xml version="1.0" standalone="no"?>
<!DOCTYPE svg PUBLIC "-//W3C//DTD SVG 1.1//EN" "http://www.w3.org/Graphics/SVG/1.1/DTD/svg11.dtd" >
<svg xmlns="http://www.w3.org/2000/svg" xmlns:xlink="http://www.w3.org/1999/xlink" version="1.1" viewBox="-10 0 539 1000">
  <g transform="matrix(1 0 0 -1 0 800)">
   <path fill="currentColor"
d="M144 -15q-29 0 -53.5 18t-37 42.5t-6.5 44.5q5 16 16.5 39.5t25.5 49t26 48.5t18 38q13 33 6.5 51t-31.5 18q-16 0 -28.5 -5t-20 -10.5t-11.5 -5.5q-5 0 -7 2.5t0 9.5q6 18 28.5 42t54.5 42t63 18q17 0 29 -10t17 -24.5t0 -29.5q-7 -16 -22 -44.5t-33 -60t-33 -60.5
t-21 -48q-8 -29 5.5 -44.5t43.5 -15.5q41 0 76.5 26t62.5 68.5t43 91t16 93.5q0 22 -3.5 36t-3.5 22q0 4 5 7t9 3q17 0 32 -12.5t25 -33t10 -46.5q0 -50 -16.5 -100.5t-46.5 -97t-68 -83t-81.5 -58t-88.5 -21.5zM436 502q-21 0 -33.5 14.5t-12.5 35.5q0 22 11.5 40t30 28.5
t40.5 10.5t34.5 -14.5t12.5 -35.5q0 -32 -24.5 -55.5t-58.5 -23.5zM247 502q-21 0 -33.5 14.5t-12.5 35.5q0 22 11.5 40t30 28.5t39.5 10.5q23 0 35.5 -14.5t12.5 -35.5q0 -32 -24.5 -55.5t-58.5 -23.5zM353.804 579.653q-10.8896 -1.52832 -13.1309 7.24219
q-2.24023 8.77148 1.45898 18.376l51.8564 162.743q4.70605 16.8125 11.5146 25.8438q6.80762 9.03223 15.7178 10.2832t22.3271 -4.4375q13.417 -5.6875 23.7861 -14.8311q10.3691 -9.14453 11.6201 -18.0547q0.972656 -6.92969 -2.72656 -16.5342
q-3.69922 -9.60547 -12.0703 -21.8848l-85.8477 -129.153q-3.97656 -7.625 -10.7764 -13.1221t-13.7295 -6.4707z" />
  </g>

</svg>
