<?xml version="1.0" standalone="no"?>
<!DOCTYPE svg PUBLIC "-//W3C//DTD SVG 1.1//EN" "http://www.w3.org/Graphics/SVG/1.1/DTD/svg11.dtd" >
<svg xmlns="http://www.w3.org/2000/svg" xmlns:xlink="http://www.w3.org/1999/xlink" version="1.1" viewBox="-10 0 409 1000">
  <g transform="matrix(1 0 0 -1 0 800)">
   <path fill="currentColor"
d="M95 -15q-8 0 -21 7t-25 19t-18 26.5t-1 30.5l103 329q6 19 14 24.5t24 5.5q18 0 35.5 -7.5t28.5 -18.5t8 -22q-5 -15 -15.5 -40t-24 -55t-26.5 -61t-24 -58t-17 -45q-6 -19 0.5 -27t22.5 -8q13 0 28 8.5t27 16.5q10 7 16.5 11.5t7.5 4.5q14 0 7 -19q-5 -16 -20.5 -36.5
t-36.5 -40t-45 -32.5t-48 -13zM306 491q-21 0 -33.5 14.5t-12.5 35.5q0 22 11.5 40t30 28.5t40.5 10.5t34.5 -14.5t12.5 -35.5q0 -32 -24.5 -55.5t-58.5 -23.5zM117 491q-21 0 -33.5 14.5t-12.5 35.5q0 22 11.5 40t30 28.5t39.5 10.5q23 0 35.5 -14.5t12.5 -35.5
q0 -32 -24.5 -55.5t-58.5 -23.5zM223.804 568.653q-10.8896 -1.52832 -13.1309 7.24219q-2.24023 8.77148 1.45898 18.376l51.8564 162.743q4.70605 16.8125 11.5146 25.8438q6.80762 9.03223 15.7178 10.2832t22.3271 -4.4375q13.417 -5.6875 23.7861 -14.8311
q10.3691 -9.14453 11.6201 -18.0547q0.972656 -6.92969 -2.72656 -16.5342q-3.69922 -9.60547 -12.0703 -21.8848l-85.8477 -129.153q-3.97656 -7.625 -10.7764 -13.1221t-13.7295 -6.4707z" />
  </g>

</svg>
