<?xml version="1.0" standalone="no"?>
<!DOCTYPE svg PUBLIC "-//W3C//DTD SVG 1.1//EN" "http://www.w3.org/Graphics/SVG/1.1/DTD/svg11.dtd" >
<svg xmlns="http://www.w3.org/2000/svg" xmlns:xlink="http://www.w3.org/1999/xlink" version="1.1" viewBox="-10 0 517 1000">
  <g transform="matrix(1 0 0 -1 0 800)">
   <path fill="currentColor"
d="M144 -15q-29 0 -53.5 18t-37 42.5t-6.5 44.5q5 16 16.5 39.5t25.5 49t26 48.5t18 38q13 33 6.5 51t-31.5 18q-16 0 -28.5 -5t-20 -10.5t-11.5 -5.5q-5 0 -7 2.5t0 9.5q6 18 28.5 42t54.5 42t63 18q17 0 29 -10t17 -24.5t0 -29.5q-7 -16 -22 -44.5t-33 -60t-33 -60.5
t-21 -48q-8 -29 5.5 -44.5t43.5 -15.5q41 0 76.5 26t62.5 68.5t43 91t16 93.5q0 22 -3.5 36t-3.5 22q0 4 5 7t9 3q17 0 32 -12.5t25 -33t10 -46.5q0 -50 -16.5 -100.5t-46.5 -97t-68 -83t-81.5 -58t-88.5 -21.5zM414 503q-21 0 -33.5 14.5t-12.5 35.5q0 22 11.5 40t30 28.5
t40.5 10.5t34.5 -14.5t12.5 -35.5q0 -32 -24.5 -55.5t-58.5 -23.5zM225 503q-21 0 -33.5 14.5t-12.5 35.5q0 22 11.5 40t30 28.5t39.5 10.5q23 0 35.5 -14.5t12.5 -35.5q0 -32 -24.5 -55.5t-58.5 -23.5zM341.294 599.357q10.626 -2.84863 13.9229 5.58594
q3.29688 8.43555 0.797852 18.4248l-31.6025 167.928q-2.61816 17.2695 -8.27441 27.0693t-14.3506 12.1299q-8.69434 2.33105 -22.7109 -1.67676q-14.0176 -4.00781 -25.4307 -11.8203q-11.4141 -7.8125 -13.7441 -16.5059q-1.81348 -6.7627 0.686523 -16.751
q2.49902 -9.98926 9.31055 -23.2051l69.457 -138.73q3.01758 -8.05664 9.09766 -14.3457q6.0791 -6.29004 12.8408 -8.10254z" />
  </g>

</svg>
