<?xml version="1.0" standalone="no"?>
<!DOCTYPE svg PUBLIC "-//W3C//DTD SVG 1.1//EN" "http://www.w3.org/Graphics/SVG/1.1/DTD/svg11.dtd" >
<svg xmlns="http://www.w3.org/2000/svg" xmlns:xlink="http://www.w3.org/1999/xlink" version="1.1" viewBox="-10 0 442 1000">
  <g transform="matrix(1 0 0 -1 0 800)">
   <path fill="currentColor"
d="M126 -15q-25 0 -52.5 16.5t-46 43t-18.5 56.5q0 58 22 116t60 105t86 76t99 29q50 0 74 -19.5t24 -48.5q0 -33 -21.5 -57t-56 -41t-76 -28t-79.5 -19q-5 -1 -7.5 -2.5t-4.5 -6.5q-4 -13 -7 -27t-4 -27q-1 -35 16.5 -58.5t51.5 -23.5q31 0 55 15.5t44 37.5q11 11 18 11
q9 0 9 -10q0 -3 -0.5 -6.5t-2.5 -5.5q-19 -35 -46 -64t-61 -45.5t-76 -16.5zM148 245q17 4 41 11.5t46.5 21.5t37.5 34.5t16 49.5q1 12 -6 22t-21 10q-19 0 -39 -14t-37.5 -35.5t-29.5 -46.5t-15 -47q-1 -7 7 -6zM289 502q-10 0 -17.5 11t-7.5 22q0 15 12 26.5t26 20.5
q14 10 25.5 18.5t11.5 20.5q0 7 -5.5 12t-15.5 5q-11 0 -22.5 -9t-34.5 -30q-4 -4 -10 -8t-12 -4q-8 0 -13.5 12.5t-5.5 22.5q0 9 9.5 19.5t17.5 14.5q20 10 44.5 19t56.5 9t53 -14.5t21 -39.5t-26.5 -45t-54.5 -29q-11 -4 -16 -7.5t-7 -8.5t-1.5 -10.5t-1.5 -11.5t-9.5 -11
t-16.5 -5z" />
  </g>

</svg>
