<?xml version="1.0" standalone="no"?>
<!DOCTYPE svg PUBLIC "-//W3C//DTD SVG 1.1//EN" "http://www.w3.org/Graphics/SVG/1.1/DTD/svg11.dtd" >
<svg xmlns="http://www.w3.org/2000/svg" xmlns:xlink="http://www.w3.org/1999/xlink" version="1.1" viewBox="-10 0 947 1000">
  <g transform="matrix(1 0 0 -1 0 800)">
   <path fill="currentColor"
d="M522 -14q-72 0 -124 33.5t-80.5 92t-28.5 130.5q0 78 29.5 153.5t83.5 136t128 96.5t164 36q72 0 124.5 -33.5t80.5 -91.5t28 -131q0 -78 -29.5 -153t-83.5 -136t-128 -97t-164 -36zM523 21q47 0 89 28.5t78 76t62 105.5t40 117.5t14 111.5q0 45 -11.5 84t-37 63.5
t-65.5 24.5q-46 0 -88 -28.5t-77 -76.5t-61.5 -106.5t-41 -118.5t-14.5 -113q0 -44 11.5 -82t36.5 -62t65 -24zM254 446q-9 0 -11 7t2 20q3 10 10.5 33.5t17 52t19 53.5t13.5 37q6 11 17 17t22 6q17 0 29 -13.5t12 -32.5q0 -9 -11 -28.5t-27 -43t-33 -45.5t-29 -38
q-9 -12 -17 -18.5t-14 -6.5zM157 451q-33 0 -58.5 23.5t-25.5 62.5t19 68t48.5 45t60.5 16q27 0 39.5 -10t12.5 -26q0 -41 -51 -49q-35 -4 -52 -18.5t-17 -37.5q0 -13 7.5 -23.5t24.5 -18.5q18 -8 18 -18q0 -4 -6 -9t-20 -5z" />
  </g>

</svg>
