<?xml version="1.0" standalone="no"?>
<!DOCTYPE svg PUBLIC "-//W3C//DTD SVG 1.1//EN" "http://www.w3.org/Graphics/SVG/1.1/DTD/svg11.dtd" >
<svg xmlns="http://www.w3.org/2000/svg" xmlns:xlink="http://www.w3.org/1999/xlink" version="1.1" viewBox="-10 0 499 1000">
  <g transform="matrix(1 0 0 -1 0 800)">
   <path fill="currentColor"
d="M143 -14q-33 0 -54.5 18t-27.5 48t7 66l63 171q6 16 3.5 23.5t-8.5 7.5q-10 0 -27.5 -12t-28.5 -23q-6 -6 -10.5 -8.5t-7.5 -2.5q-11 0 -11 9q0 5 4.5 13.5t13.5 20.5q16 20 37.5 40t44.5 36t44 25.5t36 9.5q11 0 20.5 -7.5t15 -18.5t2.5 -20l-83 -252q-10 -34 -3 -52
t34 -18q26 0 55.5 19.5t55 51.5t41.5 69.5t16 71.5q0 23 -8 40t-21 31q-9 9 -13.5 17t-4.5 18q0 9 14.5 20.5t33.5 20.5t34 9q14 0 25 -18.5t11 -59.5q0 -42 -14.5 -86t-40.5 -86.5t-62 -80.5q-45 -50 -92.5 -80.5t-93.5 -30.5zM201 468q-5 0 -12 6t-7 12q0 5 11 20.5
t27 34.5t31 32.5t22 13.5q13 0 25.5 -2.5t36.5 -4.5q21 -1 37 -2.5t27 -1.5q19 0 35 18q11 11 15.5 17.5t8.5 6.5q6 0 13.5 -6t7.5 -12q0 -4 -6 -11t-14 -17q-11 -14 -22 -30.5t-21 -30.5q-6 -8 -15.5 -11t-14.5 -3q-8 0 -25 1.5t-38 3t-41.5 3t-33.5 1.5q-11 0 -19 -9
q-11 -13 -17.5 -21t-10.5 -8z" />
  </g>

</svg>
