<?xml version="1.0" standalone="no"?>
<!DOCTYPE svg PUBLIC "-//W3C//DTD SVG 1.1//EN" "http://www.w3.org/Graphics/SVG/1.1/DTD/svg11.dtd" >
<svg xmlns="http://www.w3.org/2000/svg" xmlns:xlink="http://www.w3.org/1999/xlink" version="1.1" viewBox="-10 0 1244 1000">
  <g transform="matrix(1 0 0 -1 0 800)">
   <path fill="currentColor"
d="M200 -16q-16 0 -23.5 17.5t-8.5 45t4 55.5q9 57 18.5 114t18 114t16 110t12.5 100q4 29 1 44t-15 22.5t-34 12.5q-16 4 -25.5 8t-9.5 13q0 8 10 11.5t26 3.5q26 0 58.5 -2.5t65.5 -2.5q19 0 44.5 1t49.5 1.5t41 0.5q10 0 18 -3.5t7 -9.5q-2 -9 -14 -14t-24 -7
q-24 -4 -37.5 -11t-20 -20.5t-10.5 -39.5q-14 -89 -31 -179.5t-31 -180.5q-3 -20 3 -21t22 18l248 296q21 26 33.5 46.5t12.5 39.5q0 23 -11 34.5t-40 17.5q-16 4 -25 8.5t-9 13.5q0 7 10.5 10.5t24.5 3.5q18 0 42 -1.5t48 -2.5t43 -1q20 0 45 1.5t49.5 2.5t43.5 1
q24 0 24 -14q0 -8 -10.5 -13t-24.5 -8q-41 -7 -57 -20t-22 -47l-60 -366q-4 -20 2.5 -19.5t22.5 19.5l228 290q39 49 49.5 78t2 44t-28.5 20q-13 3 -19.5 7.5t-4.5 13.5q1 7 11 10t21 3q16 0 35.5 -0.5t40 -1t39.5 -0.5q30 0 52 3t49 3q12 0 20 -4t8 -11q0 -9 -12.5 -14.5
t-25.5 -7.5q-31 -7 -61.5 -26.5t-58.5 -52.5l-358 -421q-26 -32 -51.5 -63t-44.5 -51t-31 -20q-15 0 -22.5 10t-9.5 27t0.5 39.5t7.5 48.5q9 56 20.5 119.5t23 126t19.5 116.5l-293 -353q-16 -19 -33 -42t-33.5 -45t-32 -35.5t-28.5 -13.5zM723 696q-25 0 -41.5 16.5
t-16.5 36.5q0 34 26 59t65 25q25 0 41 -18t16 -41q0 -21 -12.5 -39t-33.5 -28.5t-44 -10.5z" />
  </g>

</svg>
