<?xml version="1.0" standalone="no"?>
<!DOCTYPE svg PUBLIC "-//W3C//DTD SVG 1.1//EN" "http://www.w3.org/Graphics/SVG/1.1/DTD/svg11.dtd" >
<svg xmlns="http://www.w3.org/2000/svg" xmlns:xlink="http://www.w3.org/1999/xlink" version="1.1" viewBox="-10 0 722 1000">
  <g transform="matrix(1 0 0 -1 0 800)">
   <path fill="currentColor"
d="M297 -14q-72 0 -124 33.5t-80.5 92t-28.5 130.5q0 78 29.5 153.5t83.5 136t128 96.5t164 36q72 0 124.5 -33.5t80.5 -91.5t28 -131q0 -78 -29.5 -153t-83.5 -136t-128 -97t-164 -36zM298 21q47 0 89 28.5t78 76t62 105.5t40 117.5t14 111.5q0 45 -11.5 84t-37 63.5
t-65.5 24.5q-46 0 -88 -28.5t-77 -76.5t-61.5 -106.5t-41 -118.5t-14.5 -113q0 -44 11.5 -82t36.5 -62t65 -24zM383 719q-8 0 -13 5t-5 11q0 20 9.5 36.5t23.5 16.5h260q8 0 12.5 -4.5t4.5 -10.5q0 -21 -11.5 -37.5t-26.5 -16.5h-254zM479 824q-7 -1 -13.5 0t-9.5 5
q-2 3 -2 7t6 10q17 14 42 30.5t45 28.5q4 4 14.5 11t23 14t24 13t19.5 9q11 1 19 -6.5t12.5 -16t6.5 -12.5q5 -2 8.5 -9t4.5 -13.5t-1 -10.5q-26 -9 -49 -17.5t-49 -13.5q-6 -3 -19 -7t-28 -8.5t-29.5 -8.5t-24.5 -5z" />
  </g>

</svg>
