<?xml version="1.0" standalone="no"?>
<!DOCTYPE svg PUBLIC "-//W3C//DTD SVG 1.1//EN" "http://www.w3.org/Graphics/SVG/1.1/DTD/svg11.dtd" >
<svg xmlns="http://www.w3.org/2000/svg" xmlns:xlink="http://www.w3.org/1999/xlink" version="1.1" viewBox="-10 0 796 1000">
  <g transform="matrix(1 0 0 -1 0 800)">
   <path fill="currentColor"
d="M371 -14q-72 0 -124 33.5t-80.5 92t-28.5 130.5q0 78 29.5 153.5t83.5 136t128 96.5t164 36q72 0 124.5 -33.5t80.5 -91.5t28 -131q0 -78 -29.5 -153t-83.5 -136t-128 -97t-164 -36zM372 21q47 0 89 28.5t78 76t62 105.5t40 117.5t14 111.5q0 45 -11.5 84t-37 63.5
t-65.5 24.5q-46 0 -88 -28.5t-77 -76.5t-61.5 -106.5t-41 -118.5t-14.5 -113q0 -44 11.5 -82t36.5 -62t65 -24zM57 450q-10 0 -10.5 10t2.5 19q6 12 16 35.5t22.5 49.5t23 48.5t16.5 33.5q5 9 13 14.5t19 5.5q10 1 23 -6.5t20.5 -18t4.5 -20.5q-7 -12 -22 -32t-33.5 -43.5
t-37.5 -44.5t-33 -35q-6 -7 -12.5 -11.5t-11.5 -4.5z" />
  </g>

</svg>
