<?xml version="1.0" standalone="no"?>
<!DOCTYPE svg PUBLIC "-//W3C//DTD SVG 1.1//EN" "http://www.w3.org/Graphics/SVG/1.1/DTD/svg11.dtd" >
<svg xmlns="http://www.w3.org/2000/svg" xmlns:xlink="http://www.w3.org/1999/xlink" version="1.1" viewBox="-61 0 598 1000">
  <g transform="matrix(1 0 0 -1 0 800)">
   <path fill="currentColor"
d="M229 -285q-29 0 -51 19t-22 42q0 9 3 15.5t10 19.5q5 8 13 25t18.5 38.5t22 45t22.5 47t20 43.5t15 33q8 17 21 42.5t27.5 55.5t29.5 59t27.5 54.5t20.5 42t8 18.5q2 10 -1.5 16.5t-12.5 6.5q-13 0 -41 -23t-64.5 -63.5t-76.5 -93.5t-76 -112q-8 -13 -17.5 -26.5
t-19.5 -23.5t-20 -10q-16 0 -32.5 12t-10.5 29q7 20 22.5 47.5t28.5 52.5q11 20 22 43t19 45.5t13.5 41t5.5 30.5q0 40 -39 40q-26 0 -42.5 -9t-21.5 -9t-7 2t-2 7q0 14 13 32.5t34 35.5t44 29t42 12q21 0 35 -13.5t14 -35.5q0 -21 -9 -50.5t-22.5 -60.5t-27.5 -59
q-2 -5 -0.5 -7.5t3.5 -2.5q6 0 13 11q34 51 68.5 91.5t67.5 68.5t59 43t41 15q21 0 37 -23t16 -50q0 -12 -3 -28.5t-8 -31.5q-40 -130 -88 -260.5t-89 -258.5q-9 -27 -22.5 -43.5t-29.5 -16.5zM291 438q-19 0 -19 13q0 5 5 10t15 8q25 10 36 21.5t11 27.5q0 12 -6.5 19
t-17.5 12q-13 8 -21.5 15.5t-8.5 23.5q1 18 15.5 29.5t38.5 11.5q33 0 56.5 -20t23.5 -57q0 -31 -18 -57t-47.5 -41.5t-62.5 -15.5zM249 634q-5 0 -12 6t-7 12q0 5 11 20.5t27 34.5t31 32.5t22 13.5q13 0 25.5 -2.5t36.5 -4.5q21 -1 37 -2.5t27 -1.5q19 0 35 18
q11 11 15.5 17.5t8.5 6.5q6 0 13.5 -6t7.5 -12q0 -4 -6 -11t-14 -17q-11 -14 -22 -30.5t-21 -30.5q-6 -8 -15.5 -11t-14.5 -3q-8 0 -25 1.5t-38 3t-41.5 3t-33.5 1.5q-11 0 -19 -9q-11 -13 -17.5 -21t-10.5 -8zM7 -235q-24 0 -41 12.5t-17 39.5q0 28 10 59.5t27.5 52.5
t40.5 21q12 0 26 -2.5t22 -7.5t3 -13q-11 -20 -18.5 -39.5t-7.5 -33.5q0 -17 12 -17q9 0 15 2t11 3q5 2 9.5 3t9.5 1t8 -2.5t3 -10.5q0 -11 -15.5 -27t-41 -28.5t-56.5 -12.5z" />
  </g>

</svg>
