<?xml version="1.0" standalone="no"?>
<!DOCTYPE svg PUBLIC "-//W3C//DTD SVG 1.1//EN" "http://www.w3.org/Graphics/SVG/1.1/DTD/svg11.dtd" >
<svg xmlns="http://www.w3.org/2000/svg" xmlns:xlink="http://www.w3.org/1999/xlink" version="1.1" viewBox="-10 0 609 1000">
  <g transform="matrix(1 0 0 -1 0 800)">
   <path fill="currentColor"
d="M64 291q-5 0 -8.5 3t-2.5 7q1 5 7.5 8t11.5 4q12 4 20 7.5t12 15.5l42 137q4 13 3 21.5t-13 11.5q-3 1 -5.5 4t0.5 8q4 12 12 13q26 5 50.5 14t45.5 20l4 2t3 1q4 0 9 -2.5t5 -5.5q-1 -5 -6 -17t-9 -20q-2 -6 -1 -7q27 18 54.5 30t59.5 12q25 0 38.5 -12.5t13.5 -32.5
q1 -5 4.5 -4.5t9.5 5.5q23 21 50.5 32.5t56.5 11.5t46.5 -23.5t7.5 -58.5l-44 -140q-4 -12 2 -16t15 -7q5 -1 8.5 -4t1.5 -8q-1 -4 -7 -7t-8 -3q-18 0 -34.5 1t-32.5 1q-15 0 -29 -1t-31 -1q-3 0 -6.5 3t-2.5 7q1 5 6.5 8t10.5 4q10 3 15.5 6.5t7.5 12.5l38 119q7 25 0.5 39
t-25.5 14q-24 0 -44 -13q-9 -5 -14.5 -14t-10.5 -23l-37 -118q-4 -12 -0.5 -16t12.5 -7q5 -1 8 -4t2 -8q-1 -4 -7.5 -7t-8.5 -3q-18 0 -31.5 1t-29.5 1q-15 0 -29 -1t-31 -1q-3 0 -6.5 3t-2.5 7q1 5 6.5 8t10.5 4q10 3 15.5 6.5t7.5 12.5l37 119q8 25 2.5 39.5t-25.5 14.5
q-12 0 -24 -4.5t-22 -9.5q-7 -5 -14.5 -14t-12.5 -24l-36 -117q-2 -11 -0.5 -15.5t10.5 -7.5q5 -1 8.5 -4t1.5 -8q-1 -4 -7.5 -7t-8.5 -3q-17 0 -30 1t-29 1t-32.5 -1t-33.5 -1z" />
  </g>

</svg>
