<?xml version="1.0" standalone="no"?>
<!DOCTYPE svg PUBLIC "-//W3C//DTD SVG 1.1//EN" "http://www.w3.org/Graphics/SVG/1.1/DTD/svg11.dtd" >
<svg xmlns="http://www.w3.org/2000/svg" xmlns:xlink="http://www.w3.org/1999/xlink" version="1.1" viewBox="-10 0 692 1000">
  <g transform="matrix(1 0 0 -1 0 800)">
   <path fill="currentColor"
d="M185 -4q-9 0 -14 3.5t-4 9.5q3 15 30 20q39 9 59.5 22.5t30.5 45.5l140 454q10 33 1 46.5t-45 22.5q-11 2 -15 7.5t-2 13.5q1 6 9 9.5t17 3.5q23 0 45 -1t43 -2t42 -1q20 0 41.5 1t44.5 2t46 1q20 0 17 -14q-2 -8 -9.5 -12.5t-21.5 -7.5q-27 -6 -44 -14t-27 -21t-16 -35
l-131 -428q-10 -32 -10 -50t11.5 -26t33.5 -14q20 -4 25.5 -9t4.5 -13q-1 -7 -8.5 -10t-16.5 -3q-23 0 -47.5 1t-48 2t-44.5 1q-32 0 -67 -2.5t-70 -2.5zM166 425q-19 0 -19 13q0 5 5 10t15 8q25 10 36 21.5t11 27.5q0 12 -6.5 19t-17.5 12q-13 8 -21.5 15.5t-8.5 23.5
q1 18 15.5 29.5t38.5 11.5q33 0 56.5 -20t23.5 -57q0 -31 -18 -57t-47.5 -41.5t-62.5 -15.5zM124 621q-5 0 -12 6t-7 12q0 5 11 20.5t27 34.5t31 32.5t22 13.5q13 0 25.5 -2.5t36.5 -4.5q21 -1 37 -2.5t27 -1.5q19 0 35 18q11 11 15.5 17.5t8.5 6.5q6 0 13.5 -6t7.5 -12
q0 -4 -6 -11t-14 -17q-11 -14 -22 -30.5t-21 -30.5q-6 -8 -15.5 -11t-14.5 -3q-8 0 -25 1.5t-38 3t-41.5 3t-33.5 1.5q-11 0 -19 -9q-11 -13 -17.5 -21t-10.5 -8z" />
  </g>

</svg>
