<?xml version="1.0" standalone="no"?>
<!DOCTYPE svg PUBLIC "-//W3C//DTD SVG 1.1//EN" "http://www.w3.org/Graphics/SVG/1.1/DTD/svg11.dtd" >
<svg xmlns="http://www.w3.org/2000/svg" xmlns:xlink="http://www.w3.org/1999/xlink" version="1.1" viewBox="-75 0 889 1000">
  <g transform="matrix(1 0 0 -1 0 800)">
   <path fill="currentColor"
d="M-42 -5q-11 0 -17 3.5t-6 11.5q1 9 9.5 14t20.5 8q23 6 47 15t46.5 23.5t38.5 32.5q69 77 131.5 150.5t123.5 147t123 148.5q16 18 27 35t18 28.5t13 11.5q23 0 41 5.5t33 16.5q16 12 27 20t18 8q9 0 10.5 -14t-2.5 -37l-101 -506q-8 -39 4.5 -58t45.5 -29q13 -4 21 -7.5
t8 -12.5q0 -6 -9.5 -9.5t-21.5 -3.5q-17 0 -42 1t-51.5 2.5t-48.5 1.5q-19 0 -43.5 -1t-48 -2t-41.5 -1q-20 0 -20 14q0 8 8 13.5t19 7.5q28 6 45 13.5t27.5 21t15.5 36.5l31 120q3 12 -3.5 17t-16.5 5l-139 -1q-12 0 -20 -4.5t-14 -12.5l-80 -105q-22 -29 -26 -46.5t7 -27
t32 -15.5q9 -3 17 -8t8 -14q-1 -7 -10 -10.5t-21 -3.5q-24 0 -49.5 1.5t-53.5 1.5q-30 0 -66.5 -3t-64.5 -3zM337 287h116q10 0 14.5 4t7.5 15l47 219q3 9 3 14t-5 5q-2 0 -6.5 -2t-8.5 -7l-181 -228q-8 -10 -8 -15t21 -5zM648 694q-44 0 -70.5 16t-38.5 38.5t-12 42.5
q0 16 5.5 28t17.5 12q8 0 11.5 -6.5t6.5 -15.5q11 -22 31.5 -32.5t53.5 -10.5q31 0 58 8t51 37q8 10 14.5 15t15.5 5q12 0 12 -20q0 -12 -8 -31.5t-27 -39t-48.5 -33t-72.5 -13.5zM698 817q-4 0 -11.5 1.5t-13.5 2.5q-27 8 -58 19t-60 24q-23 10 -23 19q0 8 13 20t28.5 21.5
t22.5 9.5q9 0 18 -7q17 -14 40.5 -33.5t41 -37.5t17.5 -30q0 -5 -4.5 -7t-10.5 -2z" />
  </g>

</svg>
