<?xml version="1.0" standalone="no"?>
<!DOCTYPE svg PUBLIC "-//W3C//DTD SVG 1.1//EN" "http://www.w3.org/Graphics/SVG/1.1/DTD/svg11.dtd" >
<svg xmlns="http://www.w3.org/2000/svg" xmlns:xlink="http://www.w3.org/1999/xlink" version="1.1" viewBox="-122 0 679 1000">
  <g transform="matrix(1 0 0 -1 0 800)">
   <path fill="currentColor"
d="M85 -16q-8 0 -17.5 5.5t-17 15t-7.5 20.5q0 16 3.5 32t9.5 38l137 450q5 16 8.5 33t3.5 28q0 12 -12.5 18.5t-25.5 11.5q-7 2 -13 5t-6 8q0 6 4 10t20 9q10 4 30.5 10.5t43.5 13t42 11t26 4.5q6 0 14.5 -1.5t8.5 -10.5q0 -11 -2.5 -19t-5.5 -17l-138 -440q-2 -7 1.5 -7
t7.5 5q39 60 82.5 108t86 76.5t78.5 28.5q39 0 58.5 -24.5t19.5 -58.5q0 -52 -15 -103.5t-40.5 -97.5t-56.5 -81q-6 -8 -23 -21t-39 -26.5t-42 -22.5t-33 -9q-10 0 -22.5 7.5t-21.5 17.5t-9 18q0 5 5 15t12.5 18.5t14.5 8.5q10 0 16 -5t13 -11t14 -11.5t16 -5.5
q13 0 27 20.5t27 53t23 71t16.5 76t6.5 66.5q0 19 -7.5 29.5t-22.5 10.5q-16 0 -38.5 -21t-48 -56t-52 -76t-51.5 -82.5t-46 -75.5q-20 -36 -35 -53t-28 -17zM-26 -281q-24 0 -43.5 9t-31 23.5t-11.5 28.5q0 34 26 34q13 0 24.5 -7t21.5 -16q13 -11 23 -19t25 -8
q10 0 15.5 6.5t5.5 16.5q0 15 -10 25t-21 22q-11 11 -22 25.5t-11 29.5q0 17 19 40.5t47 47t56 40.5h36q-41 -31 -55.5 -52.5t-14.5 -35.5q0 -10 10 -21t22 -22q13 -13 22 -24.5t9 -25.5q0 -16 -15 -35.5t-37 -38.5t-46.5 -31t-43.5 -12z" />
  </g>

</svg>
