<?xml version="1.0" standalone="no"?>
<!DOCTYPE svg PUBLIC "-//W3C//DTD SVG 1.1//EN" "http://www.w3.org/Graphics/SVG/1.1/DTD/svg11.dtd" >
<svg xmlns="http://www.w3.org/2000/svg" xmlns:xlink="http://www.w3.org/1999/xlink" version="1.1" viewBox="-10 0 393 1000">
  <g transform="matrix(1 0 0 -1 0 800)">
   <path fill="currentColor"
d="M186 286q-27 0 -49.5 12t-36.5 33t-14 51q0 37 16.5 69t45 56t64 38t72.5 14q24 0 48.5 -8t38.5 -28q1 -3 1.5 -5.5t-0.5 -4.5q-5 -14 -19 -25.5t-28 -11.5q-5 0 -9 3.5t-7 8.5q-8 19 -18.5 27.5t-27.5 8.5q-24 0 -43 -21t-29.5 -49.5t-10.5 -53.5t14 -38.5t39 -13.5
q23 0 37 8t33 21q7 5 12 5q4 0 10 -4.5t5 -9.5q0 -4 -4 -9.5t-8 -11.5q-17 -21 -52 -41t-80 -20z" />
  </g>

</svg>
