<?xml version="1.0" standalone="no"?>
<!DOCTYPE svg PUBLIC "-//W3C//DTD SVG 1.1//EN" "http://www.w3.org/Graphics/SVG/1.1/DTD/svg11.dtd" >
<svg xmlns="http://www.w3.org/2000/svg" xmlns:xlink="http://www.w3.org/1999/xlink" version="1.1" viewBox="-36 0 500 1000">
  <g transform="matrix(1 0 0 -1 0 800)">
   <path fill="currentColor"
d="M55 -14q-36 0 -58.5 17t-22.5 44q0 25 11 40.5t27 15.5q7 0 16 -8.5t21 -19.5q13 -12 29.5 -25t36.5 -13t30 13t11 31q1 17 -11.5 42t-27.5 49q-17 25 -28.5 51.5t-11.5 50.5q0 27 17 54t43.5 49.5t52 36t42.5 13.5q21 0 41 -10t33 -23t13 -23q0 -9 -9 -22.5t-20.5 -23.5
t-21.5 -10q-9 0 -17.5 8t-15.5 17q-8 11 -19.5 19t-25.5 8q-15 0 -24 -11t-9 -26q0 -8 7.5 -22.5t18 -31t20.5 -31.5q23 -32 34.5 -59t11.5 -51t-17 -50t-45.5 -48.5t-62.5 -36.5t-69 -14zM253 485q-7 -1 -13.5 0t-9.5 5q-2 3 -2 7t6 10q17 14 42 30.5t45 28.5q4 4 14.5 11
t23 14t24 13t19.5 9q11 1 19 -6.5t12.5 -16t6.5 -12.5q5 -2 8.5 -9t4.5 -13.5t-1 -10.5q-26 -9 -49 -17.5t-49 -13.5q-6 -3 -19 -7t-28 -8.5t-29.5 -8.5t-24.5 -5zM190 529q-20 0 -33 15.5t-13 34.5q0 31 21.5 54.5t53.5 23.5q21 0 33 -17.5t12 -37.5q0 -28 -21.5 -50.5
t-52.5 -22.5z" />
  </g>

</svg>
