<?xml version="1.0" standalone="no"?>
<!DOCTYPE svg PUBLIC "-//W3C//DTD SVG 1.1//EN" "http://www.w3.org/Graphics/SVG/1.1/DTD/svg11.dtd" >
<svg xmlns="http://www.w3.org/2000/svg" xmlns:xlink="http://www.w3.org/1999/xlink" version="1.1" viewBox="-110 0 604 1000">
  <g transform="matrix(1 0 0 -1 0 800)">
   <path fill="currentColor"
d="M118 -290q-60 0 -109.5 13.5t-79 37.5t-29.5 55q0 26 28 48t72 40t94 33q10 3 2 9q-21 14 -36.5 30.5t-15.5 35.5q0 20 20.5 36.5t49.5 33.5q6 5 8.5 8t2.5 5q0 3 -9 8q-18 8 -34 22.5t-25 35t-9 44.5q0 33 14.5 71t42 72.5t67.5 56.5t90 22q19 0 34 -5t26 -11
q13 -5 24 -10t18 -5q16 0 33 3.5t33.5 7.5t29.5 4q6 0 15 -5.5t9 -20.5q0 -18 -7 -29t-17 -11q-9 0 -22 2.5t-26 4.5t-23 2q-4 0 -8.5 -2t-2.5 -10q2 -7 2.5 -14.5t0.5 -15.5q0 -40 -16 -79.5t-43.5 -72t-64 -52t-77.5 -19.5q-9 0 -17.5 -1t-12.5 -4q-11 -9 -11 -21
q0 -14 10.5 -25.5t30.5 -25.5q19 -12 43 -27.5t49 -31t45 -28.5q23 -16 35 -33t12 -36q0 -28 -22 -54.5t-58 -47t-79 -32.5t-87 -12zM157 -256q31 0 55 9t38.5 24t14.5 34q0 12 -8.5 25.5t-24.5 23.5q-16 12 -42 28t-42 23q-11 6 -20 6q-5 0 -10 -1t-11 -3
q-52 -16 -80.5 -36t-28.5 -54q0 -21 19.5 -39t55.5 -29t84 -11zM167 123q17 -1 36 15.5t36 44t31 59.5t22 61.5t8 49.5q0 17 -8 30t-21 13q-17 0 -35 -16.5t-35.5 -43t-31.5 -57.5t-22.5 -60t-8.5 -51q0 -21 8.5 -32.5t20.5 -12.5zM182 526q-8 0 -10.5 3.5t-2.5 10.5
q0 12 7 24t17.5 20.5t18.5 8.5h237q17 0 17 -12q0 -11 -8 -24t-19 -22t-22 -9h-235z" />
  </g>

</svg>
