<?xml version="1.0" standalone="no"?>
<!DOCTYPE svg PUBLIC "-//W3C//DTD SVG 1.1//EN" "http://www.w3.org/Graphics/SVG/1.1/DTD/svg11.dtd" >
<svg xmlns="http://www.w3.org/2000/svg" xmlns:xlink="http://www.w3.org/1999/xlink" version="1.1" viewBox="-208 0 778 1000">
  <g transform="matrix(1 0 0 -1 0 800)">
   <path fill="currentColor"
d="M126 512q-9 0 -14 7.5t-5 15.5q0 11 7.5 19.5t19.5 8.5h270q7 0 12.5 -5t5.5 -11q0 -14 -11.5 -24.5t-25.5 -10.5h-259zM-82 -291q-59 0 -87.5 20.5t-28.5 47.5q0 22 15.5 37t31.5 15q9 0 18.5 -12.5t19.5 -26.5q11 -13 22.5 -24.5t30.5 -11.5q22 0 40.5 27.5t35.5 77
t33 112.5l58 232q23 91 48 168.5t53.5 139t62 105t73 66.5t88.5 23q59 0 93.5 -20.5t34.5 -52.5q0 -25 -12.5 -44t-30.5 -19q-14 0 -21.5 13.5t-15.5 31.5q-9 18 -21.5 30.5t-35.5 12.5q-31 0 -54.5 -19t-42 -56t-35 -91.5t-34 -126t-39.5 -159.5l-63 -242
q-13 -48 -37.5 -93.5t-57 -81.5t-69 -57.5t-73.5 -21.5z" />
  </g>

</svg>
