<?xml version="1.0" standalone="no"?>
<!DOCTYPE svg PUBLIC "-//W3C//DTD SVG 1.1//EN" "http://www.w3.org/Graphics/SVG/1.1/DTD/svg11.dtd" >
<svg xmlns="http://www.w3.org/2000/svg" xmlns:xlink="http://www.w3.org/1999/xlink" version="1.1" viewBox="-10 0 813 1000">
  <g transform="matrix(1 0 0 -1 0 800)">
   <path fill="currentColor"
d="M136 -4q-9 0 -15 3.5t-5 9.5q2 8 11 12.5t22 7.5q39 8 61 22.5t32 47.5l128 427q16 55 15 71t-17 16h-59q-40 0 -71 -19t-53 -43q-8 -9 -19 -21t-22 -21t-19 -9t-9.5 4t-1.5 11q1 5 4 12.5t9 16.5q23 30 37 57.5t25 59.5q4 11 10.5 17.5t13.5 6.5q8 0 17 -7t17 -13
q7 -5 14.5 -9t24.5 -7t49 -3l304 1q38 0 58.5 2.5t30 6t13.5 6.5q14 6 24 14t18 8q13 0 9 -14q0 -5 -3 -11.5t-6 -11.5q-13 -23 -26.5 -55.5t-23.5 -70.5q-4 -14 -8.5 -20.5t-11.5 -6.5q-9 0 -12.5 8t-3.5 24q-1 43 -16.5 65t-55.5 22h-67q-15 0 -24.5 -6.5t-17.5 -25.5
t-20 -56l-128 -425q-9 -32 3.5 -47t47.5 -24q11 -3 16 -7t4 -12q-2 -7 -9.5 -10t-17.5 -3q-22 0 -46 1t-46.5 2t-42.5 1q-22 0 -45.5 -1t-48 -2.5t-47.5 -1.5zM81 -221q-18 0 -16 11q2 8 11 15l129 89q21 15 32 21t22 6q13 0 22 -7t19 -20l75 -89q4 -4 4.5 -7.5t0.5 -7.5
q-2 -12 -18 -12q-8 0 -28.5 9.5t-42.5 22t-36 20.5q-12 7 -26 0q-12 -6 -33 -14.5t-44.5 -17t-43 -14t-27.5 -5.5z" />
  </g>

</svg>
