<?xml version="1.0" standalone="no"?>
<!DOCTYPE svg PUBLIC "-//W3C//DTD SVG 1.1//EN" "http://www.w3.org/Graphics/SVG/1.1/DTD/svg11.dtd" >
<svg xmlns="http://www.w3.org/2000/svg" xmlns:xlink="http://www.w3.org/1999/xlink" version="1.1" viewBox="-10 0 720 1000">
  <g transform="matrix(1 0 0 -1 0 800)">
   <path fill="currentColor"
d="M213 -4q-9 0 -14 3.5t-4 9.5q3 15 30 20q39 9 59.5 22.5t30.5 45.5l140 454q10 33 1 46.5t-45 22.5q-11 2 -15 7.5t-2 13.5q1 6 9 9.5t17 3.5q23 0 45 -1t43 -2t42 -1q20 0 41.5 1t44.5 2t46 1q20 0 17 -14q-2 -8 -9.5 -12.5t-21.5 -7.5q-27 -6 -44 -14t-27 -21t-16 -35
l-131 -428q-10 -32 -10 -50t11.5 -26t33.5 -14q20 -4 25.5 -9t4.5 -13q-1 -7 -8.5 -10t-16.5 -3q-23 0 -47.5 1t-48 2t-44.5 1q-32 0 -67 -2.5t-70 -2.5zM335 445q-7 0 -11.5 7.5t-7.5 20.5q-5 21 -11.5 51t-11.5 57t-5 37q0 13 10.5 25t25.5 20t26 8q9 0 17.5 -5.5
t8.5 -19.5q0 -11 -2 -35t-5.5 -51.5t-7 -50.5t-5.5 -32q-4 -16 -9 -24t-12 -8zM162 451q-33 0 -58.5 23.5t-25.5 62.5t19 68t48.5 45t60.5 16q27 0 39.5 -10t12.5 -26q0 -41 -51 -49q-35 -4 -52 -18.5t-17 -37.5q0 -13 7.5 -23.5t24.5 -18.5q18 -8 18 -18q0 -4 -6 -9t-20 -5
z" />
  </g>

</svg>
