<?xml version="1.0" standalone="no"?>
<!DOCTYPE svg PUBLIC "-//W3C//DTD SVG 1.1//EN" "http://www.w3.org/Graphics/SVG/1.1/DTD/svg11.dtd" >
<svg xmlns="http://www.w3.org/2000/svg" xmlns:xlink="http://www.w3.org/1999/xlink" version="1.1" viewBox="-57 0 761 1000">
  <g transform="matrix(1 0 0 -1 0 800)">
   <path fill="currentColor"
d="M249 -8q-14 0 -17 19l-48 272q-1 7 -5 5.5t-8 -10.5q-5 -9 -13.5 -30t-18 -47.5l-19 -53t-16.5 -47t-10 -29.5q-7 -26 3.5 -33t32.5 -13q6 -2 12 -5.5t3 -10.5q-1 -6 -8.5 -8t-12.5 -2q-20 0 -31.5 1t-21.5 1h-27t-32.5 -0.5t-26 -1.5t-17.5 -1t-11 3t-3 8q2 7 10.5 10
t16.5 6q18 6 33.5 14t23.5 28l110 261q12 27 3.5 42.5t-33.5 20.5q-8 2 -13.5 6t-3.5 11q2 6 9 8t13 2q9 0 21.5 -0.5t27 -1t28.5 -1.5q9 -1 21.5 -0.5t23.5 0.5q6 0 9 -4t4 -8l56 -256q2 -8 5 -8.5t8 7.5l163 215q12 19 23.5 34.5t20.5 15.5h37q30 0 60 3.5t44 3.5
q9 0 14.5 -2t3.5 -9t-9.5 -10t-14.5 -5q-22 -5 -42 -20t-27 -40q-12 -45 -20 -76.5t-14.5 -59t-14 -58t-18.5 -74.5q-3 -17 9 -25.5t28 -13.5q6 -3 11 -6t3 -10q-2 -6 -8 -8t-11 -2q-17 0 -36 1t-37 1.5t-34 0.5t-34 -0.5t-35.5 -2t-34.5 -1.5q-6 0 -11 2.5t-4 7.5
q2 7 9.5 11t14.5 6q26 6 39.5 12.5t18.5 25.5q11 45 26.5 98.5t30.5 110.5q2 7 -1.5 6t-7.5 -8l-193 -260q-15 -18 -27 -18z" />
  </g>

</svg>
