<?xml version="1.0" standalone="no"?>
<!DOCTYPE svg PUBLIC "-//W3C//DTD SVG 1.1//EN" "http://www.w3.org/Graphics/SVG/1.1/DTD/svg11.dtd" >
<svg xmlns="http://www.w3.org/2000/svg" xmlns:xlink="http://www.w3.org/1999/xlink" version="1.1" viewBox="-10 0 499 1000">
  <g transform="matrix(1 0 0 -1 0 800)">
   <path fill="currentColor"
d="M139 -14q-33 0 -62.5 17.5t-47 47t-17.5 67.5q0 47 19.5 100t55.5 100.5t86.5 78t112.5 30.5q61 0 97.5 -36.5t36.5 -98.5q0 -45 -19 -98t-56 -100.5t-88.5 -77.5t-117.5 -30zM158 22q21 0 42.5 22t41.5 57.5t35.5 78.5t25 86t9.5 78q0 22 -8 35t-29 13q-19 0 -40.5 -21
t-41.5 -55.5t-36.5 -77t-26.5 -85.5t-10 -81q0 -26 10.5 -38t27.5 -12zM195 526q-8 0 -10.5 3.5t-2.5 10.5q0 12 7 24t17.5 20.5t18.5 8.5h237q17 0 17 -12q0 -11 -8 -24t-19 -22t-22 -9h-235zM316 615q-6 0 -6.5 6.5t0.5 11.5q3 9 11 28.5t18.5 43t19.5 43t13 26.5
q5 9 11.5 15t14.5 6q9 0 22 -6.5t23.5 -16.5t10.5 -20q0 -3 -10 -15t-24.5 -28t-30 -32.5t-28 -29.5t-17.5 -19q-7 -6 -13.5 -9.5t-14.5 -3.5z" />
  </g>

</svg>
