<?xml version="1.0" standalone="no"?>
<!DOCTYPE svg PUBLIC "-//W3C//DTD SVG 1.1//EN" "http://www.w3.org/Graphics/SVG/1.1/DTD/svg11.dtd" >
<svg xmlns="http://www.w3.org/2000/svg" xmlns:xlink="http://www.w3.org/1999/xlink" version="1.1" viewBox="-10 0 597 1000">
  <g transform="matrix(1 0 0 -1 0 800)">
   <path fill="currentColor"
d="M87 -14q-23 0 -40.5 17.5t-28 44.5t-10.5 53q0 32 13.5 75t36.5 86.5t51.5 81t59.5 60.5t61 23q8 0 20.5 -5t22 -13t9.5 -17q0 -10 -2 -17t-10 -12q-24 -15 -53.5 -37.5t-59.5 -49t-55 -54.5t-40.5 -53.5t-15.5 -45.5q0 -22 17 -33t42 -11q42 0 79.5 23t58.5 55
q0 22 -0.5 43t1.5 39q1 15 13 28t31 20.5t40 7.5q15 0 27.5 -11.5t9.5 -24.5q-3 -16 -15 -40.5t-27.5 -49t-30.5 -44.5q-3 -20 10 -35t45 -15q29 0 58.5 15t54.5 39.5t40 54t15 58.5q0 30 -15.5 54.5t-32.5 47.5q-9 13 -16.5 22.5t-7.5 19.5q0 9 10.5 18t23.5 16t19 7
q36 0 53 -40t17 -101q0 -54 -20 -107t-54 -97t-76 -70t-86 -26q-31 0 -47.5 17t-22 38.5t-4.5 33.5q0 5 -3 5t-9 -5q-11 -9 -33 -30.5t-53.5 -40t-70.5 -18.5zM491 458q-7 0 -11.5 7.5t-7.5 20.5q-4 21 -11 51t-11.5 57t-4.5 37q0 13 10 25t25 20t26 8q9 0 18 -5.5t9 -19.5
q0 -11 -2.5 -35t-6 -51.5t-7 -50.5t-5.5 -32q-4 -16 -9 -24t-12 -8zM256 463q-20 0 -20 12t21 18q32 9 56 26.5t24 37.5q0 14 -7.5 22t-18.5 12q-11 5 -20 14.5t-9 23.5q0 23 19 37t48 14q32 0 49 -18.5t17 -50.5q0 -31 -15 -57t-39.5 -46.5t-52 -32.5t-52.5 -12zM164 -237
q-24 0 -41 12.5t-17 39.5q0 28 10 59.5t27.5 52.5t40.5 21q12 0 26 -2.5t22 -7.5t3 -13q-11 -20 -18.5 -39.5t-7.5 -33.5q0 -17 12 -17q9 0 15 2t11 3q5 2 9.5 3t9.5 1t8 -2.5t3 -10.5q0 -11 -15.5 -27t-41 -28.5t-56.5 -12.5z" />
  </g>

</svg>
