<?xml version="1.0" standalone="no"?>
<!DOCTYPE svg PUBLIC "-//W3C//DTD SVG 1.1//EN" "http://www.w3.org/Graphics/SVG/1.1/DTD/svg11.dtd" >
<svg xmlns="http://www.w3.org/2000/svg" xmlns:xlink="http://www.w3.org/1999/xlink" version="1.1" viewBox="-10 0 859 1000">
  <g transform="matrix(1 0 0 -1 0 800)">
   <path fill="currentColor"
d="M187 -16q-27 0 -33.5 28.5t3.5 82.5q26 138 44 249t28 208q2 29 -6 44.5t-38 22.5q-15 4 -23 8.5t-8 12.5t9 11.5t23 3.5q27 0 62.5 -2.5t65.5 -2.5q19 0 43 1t47.5 1.5t40.5 0.5q10 0 17 -3t6 -10q-2 -8 -12.5 -13.5t-22.5 -7.5q-33 -6 -48.5 -18t-21.5 -47l-69 -393
q-2 -10 -1 -14t4 -4t6 5.5t11 14.5l259 314q41 48 52.5 77.5t3.5 44.5t-27 20q-12 3 -18.5 8t-5.5 13q1 7 11.5 10t20.5 3q24 0 48 -1t52 -1q30 0 52 3t49 3q12 0 20 -4t8 -11q0 -9 -12.5 -13.5t-25.5 -8.5q-29 -8 -59 -27t-57 -52l-365 -423q-17 -21 -36.5 -43.5t-39 -43.5
t-34.5 -34t-23 -13zM398 691q-5 0 -11.5 6.5t-6.5 9.5q0 6 9 20.5t22.5 32t26.5 30t21 12.5q18 0 39 -1t39 -2t38 -2.5t39 -1.5q11 0 20.5 6.5t16.5 13.5q8 8 12.5 14.5t7.5 6.5q7 0 14 -6t7 -12q0 -4 -4.5 -10t-11.5 -15q-11 -14 -22 -30t-20 -29q-6 -8 -15.5 -11t-14.5 -3
q-8 0 -28.5 1.5t-46.5 3.5t-48 3.5t-33 1.5q-7 0 -15.5 -5t-14.5 -12q-8 -7 -13 -14.5t-7 -7.5z" />
  </g>

</svg>
