<?xml version="1.0" standalone="no"?>
<!DOCTYPE svg PUBLIC "-//W3C//DTD SVG 1.1//EN" "http://www.w3.org/Graphics/SVG/1.1/DTD/svg11.dtd" >
<svg xmlns="http://www.w3.org/2000/svg" xmlns:xlink="http://www.w3.org/1999/xlink" version="1.1" viewBox="-10 0 936 1000">
  <g transform="matrix(1 0 0 -1 0 800)">
   <path fill="currentColor"
d="M124 -215q-29 0 -49 42q-24 54 -35.5 117t-11.5 129q0 122 41.5 237t118.5 213t181 169q21 14 38 14q16 0 16 -11q0 -4 -3 -9.5t-11 -12.5q-65 -57 -120 -128.5t-96 -152.5t-63.5 -167.5t-22.5 -172.5q0 -58 5 -101.5t12.5 -77.5t14.5 -64q2 -10 -2.5 -17t-12.5 -7z
M382 -14q-21 0 -37 15.5t-16 31.5q0 5 0.5 9.5t3.5 10.5q33 70 59 136t49 123q3 8 -4 8t-19 -5t-25 -12.5t-25 -15.5q-10 -6 -15.5 -2.5t-5.5 10.5q0 6 11.5 19t30 28.5t41.5 31.5t46 29.5t42 21.5q13 5 26 -2t21 -18.5t4 -20.5l-115 -281q-3 -5 -4 -10.5t-1 -9.5
q0 -5 3.5 -7t6.5 -2q11 0 29.5 12.5t39 29.5t36.5 33q2 3 4 3q4 0 7 -3.5t3 -7.5q0 -18 -20.5 -43.5t-51.5 -51t-64.5 -43t-59.5 -17.5zM572 507q-20 0 -33 15.5t-13 34.5q0 31 21.5 54.5t53.5 23.5q21 0 33 -17.5t12 -37.5q0 -28 -21.5 -50.5t-52.5 -22.5zM820 706
q29 0 49 -42q24 -54 35.5 -117t11.5 -129q0 -122 -41.5 -237t-118.5 -213t-181 -169q-21 -14 -38 -14q-16 0 -16 11q0 4 3 9.5t11 12.5q65 57 120 128.5t96 152.5t63.5 167.5t22.5 172.5q0 58 -5 101.5t-12.5 77.5t-14.5 64q-2 10 2.5 17t12.5 7z" />
  </g>

</svg>
