<?xml version="1.0" standalone="no"?>
<!DOCTYPE svg PUBLIC "-//W3C//DTD SVG 1.1//EN" "http://www.w3.org/Graphics/SVG/1.1/DTD/svg11.dtd" >
<svg xmlns="http://www.w3.org/2000/svg" xmlns:xlink="http://www.w3.org/1999/xlink" version="1.1" viewBox="-10 0 760 1000">
  <g transform="matrix(1 0 0 -1 0 800)">
   <path fill="currentColor"
d="M355 -184q-6 0 -15 11.5t-5 19.5l125 184q-20 13 -38 30.5t-34 39.5q-12 19 -23.5 38t-19.5 35q-5 11 -16 20t-24 9q-3 0 -7.5 -4.5t-4.5 -11.5v-115q0 -20 11.5 -29t41.5 -14q7 -1 13.5 -5t6.5 -12q0 -6 -6 -9t-11 -3q-33 0 -58 1t-58 1q-35 0 -64 -2t-54 -2
q-7 0 -12.5 4.5t-5.5 9.5q0 8 6.5 11.5t12.5 4.5q28 6 39.5 14t11.5 30v304q0 21 -10 31.5t-37 15.5q-9 2 -14.5 6t-5.5 11t6 10t13 3q24 0 40.5 -2t32 -3.5t35.5 -1.5q18 0 34.5 1.5t36.5 3.5t47 2q55 0 96 -11.5t64 -36t23 -65.5q1 -28 -10.5 -49.5t-29 -35t-36.5 -20.5
q-10 -4 -5 -14q8 -18 16.5 -34t20.5 -35q6 -10 14 -21t16 -21l99 146q3 5 6 13.5t3 13.5t-3.5 10.5t-7.5 11.5q-6 6 -10 13t-4 13q0 5 7 19.5t18 31t22.5 28.5t19.5 12t15.5 -9.5t14.5 -23t11 -24.5t4 -14q0 -12 -7 -27t-11 -22l-147 -221q22 -18 49 -29t61 -12q17 0 34 3
t25 3q11 0 19 -5t8 -19q0 -8 -18 -16t-43 -14t-47 -6q-37 0 -71 6t-63 19l-119 -179q-5 -6 -10 -11t-14 -5zM314 241q44 0 69 19.5t24 66.5q0 31 -12 51t-31 29.5t-41 9.5q-16 0 -24 -5.5t-7 -22.5l1 -121q0 -14 5.5 -20.5t15.5 -6.5z" />
  </g>

</svg>
