<?xml version="1.0" standalone="no"?>
<!DOCTYPE svg PUBLIC "-//W3C//DTD SVG 1.1//EN" "http://www.w3.org/Graphics/SVG/1.1/DTD/svg11.dtd" >
<svg xmlns="http://www.w3.org/2000/svg" xmlns:xlink="http://www.w3.org/1999/xlink" version="1.1" viewBox="-10 0 451 1000">
  <g transform="matrix(1 0 0 -1 0 800)">
   <path fill="currentColor"
d="M272 429q-7 0 -12.5 9.5t-7.5 15.5q-23 63 -44.5 99t-34 56t-9.5 30q4 12 18.5 22t27.5 10q34 0 43 -31q3 -14 10 -43.5t14 -62.5t11 -58.5t2 -31.5q-5 -15 -18 -15zM412 429q-7 0 -12.5 9.5t-7.5 15.5q-23 63 -44.5 99t-34 56t-9.5 30q4 12 18.5 22t27.5 10q34 0 43 -31
q3 -14 10 -43.5t14 -62.5t11 -58.5t2 -31.5q-5 -15 -18 -15z" />
  </g>

</svg>
