<?xml version="1.0" standalone="no"?>
<!DOCTYPE svg PUBLIC "-//W3C//DTD SVG 1.1//EN" "http://www.w3.org/Graphics/SVG/1.1/DTD/svg11.dtd" >
<svg xmlns="http://www.w3.org/2000/svg" xmlns:xlink="http://www.w3.org/1999/xlink" version="1.1" viewBox="-10 0 619 1000">
  <g transform="matrix(1 0 0 -1 0 800)">
   <path fill="currentColor"
d="M243 -15q-89 0 -139 33.5t-50 99.5q0 50 16.5 88.5t46 69t69.5 55.5t86 48q61 31 103 58t63.5 57t21.5 68q0 30 -23 44.5t-58 14.5q-46 0 -84 -26t-72 -81q-4 -7 -13.5 -11t-17.5 -4q-17 0 -14 12q9 33 21 56t25 44q8 13 15 19t18 10q22 8 56.5 16t71.5 8q89 0 133 -36.5
t44 -97.5q0 -49 -19 -86t-50.5 -65.5t-71.5 -51.5t-83 -45q-50 -25 -90.5 -50t-64.5 -56t-24 -74q0 -30 24 -51t67 -21q58 0 103.5 36t76.5 94q9 14 15.5 19.5t14.5 5.5q11 0 13.5 -8.5t-0.5 -18.5q-18 -56 -52.5 -95t-79.5 -58.5t-98 -19.5zM48 246q-5 0 -9 4t-2 9
q2 8 14.5 19t24.5 12l470 5q7 0 10.5 -5t0.5 -10q-5 -9 -19.5 -20t-27.5 -11zM94 355q-6 0 -9.5 4t-2.5 10q2 7 14.5 18t23.5 12l467 6q7 0 10 -5.5t1 -10.5q-5 -8 -20 -19t-28 -11z" />
  </g>

</svg>
