<?xml version="1.0" standalone="no"?>
<!DOCTYPE svg PUBLIC "-//W3C//DTD SVG 1.1//EN" "http://www.w3.org/Graphics/SVG/1.1/DTD/svg11.dtd" >
<svg xmlns="http://www.w3.org/2000/svg" xmlns:xlink="http://www.w3.org/1999/xlink" version="1.1" viewBox="-10 0 1157 1000">
  <g transform="matrix(1 0 0 -1 0 800)">
   <path fill="currentColor"
d="M917 -137q7 -7 5 -18.5t-7.5 -21t-9.5 -12.5q-3 -2 -8.5 -1t-8.5 4l-574 578q-2 -22 -4.5 -46t-9 -54t-17.5 -70l-3.5 -7t-3.5 -4q-6 -2 -10.5 2t-5.5 9q-3 33 -5 56.5t-4.5 42t-7.5 34.5q-1 24 -4 42t-6.5 34.5t-9 35.5t-12.5 44q-3 15 6 21q3 3 9 2t14 -3
q39 -11 69 -17.5t57.5 -10.5t60 -5.5t77.5 -2.5q7 0 19.5 -3.5t16.5 -10.5q5 -8 -13 -15q-42 -13 -72.5 -20.5t-56 -10.5t-48.5 -3z" />
  </g>

</svg>
