<?xml version="1.0" standalone="no"?>
<!DOCTYPE svg PUBLIC "-//W3C//DTD SVG 1.1//EN" "http://www.w3.org/Graphics/SVG/1.1/DTD/svg11.dtd" >
<svg xmlns="http://www.w3.org/2000/svg" xmlns:xlink="http://www.w3.org/1999/xlink" version="1.1" viewBox="-10 0 316 1000">
  <g transform="matrix(1 0 0 -1 0 800)">
   <path fill="currentColor"
d="M155 196q-22 0 -29 19t-10 40q-9 67 -18 128.5t-14.5 112.5t-5.5 84q0 26 10 47t28.5 34t43.5 13q26 0 43.5 -13.5t26.5 -34.5t9 -44q0 -29 -3.5 -60t-9 -69t-13.5 -86.5t-18 -111.5q-4 -20 -11.5 -39.5t-28.5 -19.5zM155 -21q-34 0 -57.5 24t-23.5 57q0 37 25 59.5
t56 22.5q34 0 58 -24t24 -58t-24.5 -57.5t-57.5 -23.5z" />
  </g>

</svg>
