<?xml version="1.0" standalone="no"?>
<!DOCTYPE svg PUBLIC "-//W3C//DTD SVG 1.1//EN" "http://www.w3.org/Graphics/SVG/1.1/DTD/svg11.dtd" >
<svg xmlns="http://www.w3.org/2000/svg" xmlns:xlink="http://www.w3.org/1999/xlink" version="1.1" viewBox="-10 0 410 1000">
  <g transform="matrix(1 0 0 -1 0 800)">
   <path fill="currentColor"
d="M123 428q-8 0 -15 2t-7 8q0 9 6.5 22t16.5 13q6 0 14 -2.5t15 -4.5q6 -2 13 -4t14 -2q19 0 39.5 13.5t34.5 33.5t14 37q0 30 -24.5 48.5t-65.5 29.5q-8 2 -10.5 9t0.5 14q3 11 12 27t19 33t17 29q7 10 15 15.5t18 6.5q16 4 40 7.5t49.5 6.5t44.5 3q8 0 6 -12
q-1 -5 -9.5 -18t-20 -24.5t-24.5 -11.5q-14 -1 -34 -2t-38 -1.5t-24 -1.5q-12 -1 -14 -7l-4 -7q-5 -10 5 -13q58 -15 91 -41.5t33 -61.5q0 -33 -21 -59.5t-55 -45.5t-74 -29t-77 -10z" />
  </g>

</svg>
