<?xml version="1.0" standalone="no"?>
<!DOCTYPE svg PUBLIC "-//W3C//DTD SVG 1.1//EN" "http://www.w3.org/Graphics/SVG/1.1/DTD/svg11.dtd" >
<svg xmlns="http://www.w3.org/2000/svg" xmlns:xlink="http://www.w3.org/1999/xlink" version="1.1" viewBox="-10 0 741 1000">
  <g transform="matrix(1 0 0 -1 0 800)">
   <path fill="currentColor"
d="M63 -24q-12 0 -17 9.5t2 17.5l608 650q9 10 20.5 13.5t23.5 3.5q14 0 18.5 -8t-2.5 -16l-606 -648q-11 -12 -22.5 -17t-24.5 -5zM168 411q-24 0 -40.5 15.5t-16.5 33.5q0 33 19.5 49.5t52.5 27.5l78 25q15 5 19.5 9.5t8.5 17.5l6 22q5 18 1 28t-20 10q-9 0 -19.5 -3.5
t-16.5 -9.5q-5 -5 -6 -14.5t-3 -15.5q-1 -4 -10 -9t-20.5 -8.5t-22 -6.5t-17.5 -3q-5 0 -5.5 6t2.5 12q6 12 16 23.5t29 23.5q16 9 36.5 18.5t43 16t41.5 6.5q36 0 51.5 -22.5t4.5 -57.5l-38 -113q-5 -15 -3.5 -26t12.5 -11q6 0 10.5 2.5t8.5 5.5t7 3t5 -3.5t2 -6.5
q0 -5 -7.5 -11.5t-12.5 -10.5q-13 -9 -28 -16t-32 -7q-18 0 -27.5 6t-14 14.5t-7.5 16.5h-2q-14 -12 -35 -24.5t-50 -12.5zM215 455q7 0 14.5 3t12.5 6q4 3 6 6t5 11l17 50q2 7 -1.5 9t-8.5 0q-29 -10 -45 -21.5t-20 -35.5q-3 -10 3 -19t17 -9zM479 6q-27 0 -49.5 12
t-36.5 33t-14 51q0 37 16.5 69t45 56t64 38t72.5 14q24 0 48.5 -8t38.5 -28q1 -3 1.5 -5.5t-0.5 -4.5q-5 -14 -19 -25.5t-28 -11.5q-5 0 -9 3.5t-7 8.5q-8 19 -18.5 27.5t-27.5 8.5q-24 0 -43 -21t-29.5 -49.5t-10.5 -53.5t14 -38.5t39 -13.5q23 0 37 8t33 21q7 5 12 5
q4 0 10 -4.5t5 -9.5q0 -4 -4 -9.5t-8 -11.5q-17 -21 -52 -41t-80 -20z" />
  </g>

</svg>
