<?xml version="1.0" standalone="no"?>
<!DOCTYPE svg PUBLIC "-//W3C//DTD SVG 1.1//EN" "http://www.w3.org/Graphics/SVG/1.1/DTD/svg11.dtd" >
<svg xmlns="http://www.w3.org/2000/svg" xmlns:xlink="http://www.w3.org/1999/xlink" version="1.1" viewBox="-10 0 1050 1000">
  <g transform="matrix(1 0 0 -1 0 800)">
   <path fill="currentColor"
d="M124 -215q-29 0 -49 42q-24 54 -35.5 117t-11.5 129q0 122 41.5 237t118.5 213t181 169q21 14 38 14q16 0 16 -11q0 -4 -3 -9.5t-11 -12.5q-65 -57 -120 -128.5t-96 -152.5t-63.5 -167.5t-22.5 -172.5q0 -58 5 -101.5t12.5 -77.5t14.5 -64q2 -10 -2.5 -17t-12.5 -7z
M283 -5q-3 0 -9.5 5.5t-6.5 11.5q0 7 16 18q14 10 32.5 24t48.5 32q21 13 45 30.5t47.5 38.5t42.5 44.5t30.5 48t11.5 46.5q-1 27 -20 41t-41 14q-24 0 -46 -12t-43 -33q-6 -5 -10.5 -8t-11.5 -3q-9 0 -9 12q0 16 16 36.5t44 40t63 32t73 12.5q36 0 62.5 -13t41 -35
t14.5 -47q0 -29 -14 -52.5t-35 -43t-43 -36.5q-19 -13 -41 -28l-44 -30t-40.5 -26t-27.5 -17q-6 -3 -3.5 -5.5t8.5 -2.5h135q29 0 51 14t43 45q6 10 13.5 17t16.5 7q8 0 11 -5.5t1 -12.5q-11 -21 -27.5 -50t-30 -54t-18.5 -35q-5 -11 -10.5 -15t-12.5 -4q-13 0 -34 0.5
t-46.5 1t-52 1t-50.5 0.5q-31 0 -60.5 -1t-51.5 -2.5t-28 -1.5zM934 706q29 0 49 -42q24 -54 35.5 -117t11.5 -129q0 -122 -41.5 -237t-118.5 -213t-181 -169q-21 -14 -38 -14q-16 0 -16 11q0 4 3 9.5t11 12.5q65 57 120 128.5t96 152.5t63.5 167.5t22.5 172.5
q0 58 -5 101.5t-12.5 77.5t-14.5 64q-2 10 2.5 17t12.5 7z" />
  </g>

</svg>
