<?xml version="1.0" standalone="no"?>
<!DOCTYPE svg PUBLIC "-//W3C//DTD SVG 1.1//EN" "http://www.w3.org/Graphics/SVG/1.1/DTD/svg11.dtd" >
<svg xmlns="http://www.w3.org/2000/svg" xmlns:xlink="http://www.w3.org/1999/xlink" version="1.1" viewBox="-10 0 586 1000">
  <g transform="matrix(1 0 0 -1 0 800)">
   <path fill="currentColor"
d="M403 -15q-6 0 -23.5 1t-32 1.5t-15.5 0.5q-14 0 -25.5 -0.5t-15.5 -0.5q-30 0 -56 6.5t-41.5 22t-15.5 42.5q0 8 2 14.5t5 10.5q7 9 14 15t7 11q0 6 -5 10t-8 9q-7 13 -16 25t-16 15q-32 16 -51 43.5t-34 56.5q-8 17 -15.5 31t-16.5 27q-16 25 -16 50q0 19 15 31.5
t37 12.5q21 0 46 -13.5t43 -32.5t19 -35q0 -8 2.5 -17.5t6.5 -15.5l4 1q1 15 0.5 34t-0.5 38.5v34.5q0 24 -3 41q-1 7 -2 16.5t-2 20t-1 16.5q0 40 10.5 81t29.5 73q6 9 13 10.5t11 1.5q9 0 14.5 -3t8.5 -7q19 -18 19 -60q0 -15 -2 -37.5t-4 -43.5t-2 -32q0 -13 0.5 -22
t1.5 -13q1 -6 5.5 -6t8.5 3q0 9 0.5 32t2.5 54t5.5 65.5t9.5 63.5q2 15 24 15q8 -1 15 -3.5t14 -6.5q5 -2 9 -4t7 -3q3 0 7 1.5t7 2.5q5 2 9.5 3t10.5 1q5 0 8 -1t7 -2q2 -1 4 -2.5t6 -3.5q7 -2 8 -18.5t-0.5 -39.5t-4.5 -46t-3 -38q0 -6 3 -6t4 9v22.5t2 20.5q4 20 10.5 30
t18.5 16q9 4 17.5 -1t12.5 -10q4 -4 7.5 -25.5t4.5 -45.5q1 -9 1.5 -25.5t1.5 -36t2.5 -37t2.5 -29.5t1 -14q4 -21 6 -40.5t0 -35.5q0 -4 -1.5 -7t-3.5 -6t-4 -5.5t-2 -4.5q0 -3 0.5 -5.5t1.5 -4.5q3 -5 3 -10q0 -6 -1.5 -9.5t-5.5 -8.5q-3 -4 -5.5 -7t-2.5 -10
q0 -5 1.5 -14.5t1.5 -15.5q0 -4 -2.5 -15t-6 -21.5t-6.5 -17.5q-9 -26 -15.5 -46t-6.5 -26q0 -5 3.5 -10t8.5 -10q8 -7 15 -14t7 -18q0 -18 -19.5 -28t-47.5 -13t-57 -3zM381 27q15 0 31.5 4.5t30.5 5.5q6 0 15 1t9 3q-6 4 -22.5 7.5t-36.5 7t-39 5.5t-32 2q-18 0 -41 -1
t-40 -4t-17 -7t17.5 -8.5t42 -8t48 -5.5t34.5 -2zM347 163q-14 0 -20.5 10t-8 24.5t-0.5 26.5q0 21 -10 31t-21 17q-10 7 -17.5 13t-7.5 13q-1 7 6 17t16 10q16 1 31 -14t26.5 -37.5t18.5 -45t7 -36.5q1 -13 -5 -21t-15 -8zM434 101q6 0 10.5 6.5t4.5 14.5q0 13 5.5 26
t9.5 22q3 6 6 18t5 23.5t3 15.5q2 8 3 23.5t1 19.5q0 12 3 23.5t5 16.5q3 9 4 19t1 22v20v32.5t1 19.5q4 21 5 35t1 27.5v27.5q0 5 1.5 14t2.5 17.5t1 11.5q0 11 -3 14t-8 4q-3 -2 -3.5 -12.5t-0.5 -18.5q0 -10 -2 -19t-6 -20q-1 -5 -7 -12q-6 -9 -6 -14q-4 -28 -10 -55
t-16 -56q-2 -6 -6.5 -8t-7.5 -2q-7 0 -11.5 5t-3.5 12q0 3 1.5 15.5t2 28t1.5 28t2 15.5q0 7 2.5 13.5t2.5 14.5q0 4 -1 9t-1 7q-2 13 -3.5 22.5t-0.5 18.5q0 7 2 16t5 19q3 13 5 22t2 15q0 4 -2 6l-3 3q-11 -1 -16.5 -12.5t-11.5 -49.5q-4 -17 -5.5 -30.5t-3.5 -25.5
q-2 -25 -4.5 -44t-5 -32t-6.5 -22q-3 -11 -8.5 -13.5t-8.5 -2.5q-5 0 -8.5 4.5t-2.5 11.5l5 58q1 18 1.5 35t1 30.5t1.5 20.5q2 13 6 28t7.5 28.5t3.5 17.5t-2 5.5t-5 1.5q-7 -3 -13 -9.5t-7 -21.5t-3 -36.5t-4 -51.5q0 -6 -2 -23t-4 -36t-5 -30q-7 -26 -14 -39.5t-23 -13.5
q-9 0 -19.5 9t-10.5 19l-4 60q0 12 1.5 29t3 33t1.5 24q-1 32 -3.5 50t-10.5 18q-7 0 -11 -16t-4 -43q0 -13 1 -28.5t2.5 -27.5t1.5 -17q0 -13 -1 -32t-2 -35.5t-2 -21.5q-2 -7 -3 -14.5t-1 -15.5q0 -23 -1.5 -48.5t-7.5 -43.5t-22 -18q-10 0 -22 9.5t-20 22.5t-10 24
q-6 33 -15.5 48t-33.5 15q-7 0 -13 -3t-7 -6q-1 -7 3.5 -13.5t6.5 -13.5q3 -6 5 -14t4 -13q7 -12 14.5 -23.5t10.5 -22.5q13 -38 29 -54t41 -24q14 -6 20.5 -15.5t11.5 -17.5q5 -7 13 -16t8 -21q0 -8 3 -11t6 -3q11 0 25 1t21 2q13 2 26.5 3t29.5 1q10 0 19.5 -2t18.5 -4
q8 -1 17.5 -2.5t19.5 -1.5z" />
  </g>

</svg>
