<?xml version="1.0" standalone="no"?>
<!DOCTYPE svg PUBLIC "-//W3C//DTD SVG 1.1//EN" "http://www.w3.org/Graphics/SVG/1.1/DTD/svg11.dtd" >
<svg xmlns="http://www.w3.org/2000/svg" xmlns:xlink="http://www.w3.org/1999/xlink" version="1.1" viewBox="-10 0 604 1000">
  <g transform="matrix(1 0 0 -1 0 800)">
   <path fill="currentColor"
d="M15 615q0 -29 15.5 -51.5t43.5 -22.5q13 0 25.5 7t12.5 22q0 10 -4.5 17.5t-9.5 13.5q-4 5 -7 10t-3 10q0 20 24 33t50 13q28 0 47.5 -12t19.5 -33q0 -7 -3 -15t-6 -18q-4 -11 -8 -24.5t-4 -27.5q0 -29 19 -52.5t49 -40t62 -25.5q-3 -18 -8 -36t-13 -34q-2 -5 -4.5 -5
t-5.5 4q-11 22 -30.5 38.5t-48.5 16.5q-48 0 -82 -30.5t-52 -76t-18 -93.5q0 -57 14.5 -117t42 -115t65 -99.5t85.5 -70.5t102 -26q32 0 63.5 9t52 28t20.5 47q0 27 -14.5 48t-41.5 21q-21 0 -35.5 -11.5t-13.5 -33.5q0 -5 1.5 -12t1.5 -10q-22 -20 -53 -20
q-23 0 -37.5 15.5t-21.5 37.5t-7 45q0 40 28.5 69t65.5 58q29 22 56 47t44.5 57t17.5 76q0 31 -14 55.5t-38.5 39t-53.5 14.5q-18 0 -34.5 -9t-28.5 -22q2 -3 3 -1.5t6 1.5q14 17 27.5 38.5t19.5 47.5h5h5q45 0 83 22.5t61.5 60t23.5 79.5q0 13 -7 19.5t-14 11.5
q-6 3 -10 6.5t-4 6.5q0 4 4 7t10 6q8 4 15.5 10.5t7.5 17.5q0 14 -12.5 26t-31.5 12q-37 0 -64 -26t-27 -63q0 -23 9.5 -34.5t18.5 -19.5q7 -6 11 -11t4 -15q0 -11 -12.5 -24.5t-31 -22t-35.5 -10.5q2 11 2.5 21.5t0.5 21.5q0 21 -7 47.5t-19 51t-27.5 40.5t-33.5 16
q-9 0 -20 -1.5t-20 -7.5q-11 31 -36 56.5t-57 40.5t-65 15q-30 0 -37 -18.5t-7 -41.5q-25 -16 -46 -38.5t-21 -56.5zM273 557q0 13 10 22t25 9q10 0 18 -13.5t12.5 -33.5t4.5 -38l1 -20q-27 12 -49 32t-22 42z" />
  </g>

</svg>
