<?xml version="1.0" standalone="no"?>
<!DOCTYPE svg PUBLIC "-//W3C//DTD SVG 1.1//EN" "http://www.w3.org/Graphics/SVG/1.1/DTD/svg11.dtd" >
<svg xmlns="http://www.w3.org/2000/svg" xmlns:xlink="http://www.w3.org/1999/xlink" version="1.1" viewBox="-10 0 1035 1000">
  <g transform="matrix(1 0 0 -1 0 800)">
   <path fill="currentColor"
d="M855 -94q-29 0 -51.5 15.5t-22.5 43.5q0 13 7 25.5t22 12.5q10 0 17.5 -4.5t13.5 -9.5q5 -4 10 -7t10 -3q20 0 33 24t13 50q0 28 -12 47.5t-33 19.5q-7 0 -15 -3t-18 -6q-11 -4 -24.5 -8t-27.5 -4q-29 0 -52.5 19t-40 49t-25.5 62q-18 -3 -36 -8t-34 -13q-5 -2 -5 -4.5
t4 -5.5q22 -11 38.5 -30.5t16.5 -48.5q0 -48 -30.5 -82t-76 -52t-93.5 -18q-57 0 -117 14.5t-115 42t-99.5 65t-70.5 85.5t-26 102q0 32 9 63.5t28 52t47 20.5q27 0 48 -14.5t21 -41.5q0 -21 -11.5 -35.5t-33.5 -13.5q-5 0 -12 1.5t-10 1.5q-20 -22 -20 -53
q0 -23 15.5 -37.5t37.5 -21.5t45 -7q40 0 69 28.5t58 65.5q22 29 47 56t57 44.5t76 17.5q31 0 55.5 -14t39 -38.5t14.5 -53.5q0 -18 -9 -34.5t-22 -28.5q-3 2 -1.5 3t1.5 6q17 14 38.5 27.5t47.5 19.5v5v5q0 45 22.5 83t60 61.5t79.5 23.5q13 0 19.5 -7t11.5 -14
q3 -6 6.5 -10t6.5 -4q4 0 7 4t6 10q4 8 10.5 15.5t17.5 7.5q14 0 26 -12.5t12 -31.5q0 -37 -26 -64t-63 -27q-23 0 -34.5 9.5t-19.5 18.5q-6 7 -11 11t-15 4q-11 0 -24.5 -12.5t-22 -31t-10.5 -35.5q11 2 21.5 2.5t21.5 0.5q21 0 47.5 -7t51 -19t40.5 -27.5t16 -33.5
q0 -9 -1.5 -20t-7.5 -20q31 -11 56.5 -36t40.5 -57t15 -65q0 -30 -18.5 -37t-41.5 -7q-16 -25 -38.5 -46t-56.5 -21zM797 164q13 0 22 10t9 25q0 10 -13.5 18t-33.5 12.5t-38 4.5l-20 1q12 -27 32 -49t42 -22z" />
  </g>

</svg>
