<?xml version="1.0" standalone="no"?>
<!DOCTYPE svg PUBLIC "-//W3C//DTD SVG 1.1//EN" "http://www.w3.org/Graphics/SVG/1.1/DTD/svg11.dtd" >
<svg xmlns="http://www.w3.org/2000/svg" xmlns:xlink="http://www.w3.org/1999/xlink" version="1.1" viewBox="-10 0 1017 1000">
  <g transform="matrix(1 0 0 -1 0 800)">
   <path fill="currentColor"
d="M730 490q9 0 18 -6.5t14 -10.5q26 -26 48.5 -46t45.5 -38t51 -36.5t66 -40.5q19 -9 19 -19q0 -7 -3.5 -10t-13.5 -8q-36 -19 -64.5 -35.5t-52.5 -35t-47 -39t-50 -45.5q-5 -5 -14 -11t-18 -6q-8 0 -8 10q0 3 1 5l3 6q19 35 36 61t31.5 45t29.5 36h-80q-33 -17 -58 -33
t-47.5 -33t-44.5 -36.5t-47 -43.5q-5 -5 -14 -11t-18 -6q-8 0 -8 10q0 3 1 5l3 6q19 35 36 61t32 45t29 36h-526q-6 0 -10.5 3.5t-4.5 8.5q0 6 3.5 16t10 18t16.5 8h515q-12 12 -25.5 28.5t-27 36t-26 41t-22.5 45.5q-4 8 -2.5 13.5t7.5 5.5q9 0 18 -6.5t14 -10.5
q25 -24 46 -43.5t42.5 -36.5t47.5 -35t61 -38h83q-12 12 -25.5 28.5t-27.5 36t-26 41t-22 45.5q-4 8 -2.5 13.5t7.5 5.5z" />
  </g>

</svg>
