<?xml version="1.0" standalone="no"?>
<!DOCTYPE svg PUBLIC "-//W3C//DTD SVG 1.1//EN" "http://www.w3.org/Graphics/SVG/1.1/DTD/svg11.dtd" >
<svg xmlns="http://www.w3.org/2000/svg" xmlns:xlink="http://www.w3.org/1999/xlink" version="1.1" viewBox="-10 0 1099 1000">
  <g transform="matrix(1 0 0 -1 0 800)">
   <path fill="currentColor"
d="M124 -215q-29 0 -49 42q-24 54 -35.5 117t-11.5 129q0 122 41.5 237t118.5 213t181 169q21 14 38 14q16 0 16 -11q0 -4 -3 -9.5t-11 -12.5q-65 -57 -120 -128.5t-96 -152.5t-63.5 -167.5t-22.5 -172.5q0 -58 5 -101.5t12.5 -77.5t14.5 -64q2 -10 -2.5 -17t-12.5 -7z
M412 -287q-5 -1 -10 2.5t-4 9.5q0 8 8 12.5t16 6.5q28 6 43.5 16t23.5 32q18 48 38 103.5t41 113.5t42 115q4 9 -0.5 12t-12.5 -7q-41 -50 -75.5 -82t-66.5 -46.5t-67 -14.5t-58 24t-23 60q0 43 19 90t50.5 92.5t70.5 85.5q41 43 90.5 69t91.5 26q18 0 33.5 -7.5t23.5 -19.5
q7 -8 12 -14t10 -5q9 0 18 14l9 15q12 20 25 27.5t25 7.5t15.5 -19t-10.5 -61l-190 -569q-7 -22 2 -33.5t28 -14.5q15 -2 23.5 -6t8.5 -11q0 -6 -7.5 -9t-17.5 -3q-45 0 -88.5 -2t-79 -4.5t-57.5 -5.5zM444 47q16 0 37 13.5t43.5 36.5t44 50t38.5 54q25 40 43.5 75t18.5 60
q0 12 -5.5 24.5t-15 21t-22.5 8.5q-19 0 -45.5 -22.5t-54.5 -59t-52.5 -79t-39 -81.5t-14.5 -68q0 -15 5 -24t19 -9zM983 706q29 0 49 -42q24 -54 35.5 -117t11.5 -129q0 -122 -41.5 -237t-118.5 -213t-181 -169q-21 -14 -38 -14q-16 0 -16 11q0 4 3 9.5t11 12.5
q65 57 120 128.5t96 152.5t63.5 167.5t22.5 172.5q0 58 -5 101.5t-12.5 77.5t-14.5 64q-2 10 2.5 17t12.5 7z" />
  </g>

</svg>
