<?xml version="1.0" standalone="no"?>
<!DOCTYPE svg PUBLIC "-//W3C//DTD SVG 1.1//EN" "http://www.w3.org/Graphics/SVG/1.1/DTD/svg11.dtd" >
<svg xmlns="http://www.w3.org/2000/svg" xmlns:xlink="http://www.w3.org/1999/xlink" version="1.1" viewBox="-10 0 1266 1000">
  <g transform="matrix(1 0 0 -1 0 800)">
   <path fill="currentColor"
d="M638 -18q6 0 15 0.5t17.5 1t13.5 0.5q6 0 9.5 2t6.5 5l5.5 5.5t6.5 3.5q6 0 15 -3q4 -1 10 -3t14 -2q8 1 13 4.5t10 7.5q6 7 12 9t15 2q6 0 11.5 -1t10.5 -2t11 -1.5t12 -0.5q10 0 27 4.5t38 11.5l39 13q13 6 30.5 12t33 11t23.5 5q11 0 20 -7.5t18 -17.5t18.5 -18.5
t21.5 -8.5q19 0 30.5 13t17 33t6.5 41q1 7 1.5 15t2.5 15q2 17 3.5 32.5t1.5 31.5q0 15 -1.5 29.5t-1.5 31.5q0 9 -0.5 18.5t-0.5 21.5q0 17 0.5 33.5t0.5 35.5q0 24 -3.5 51t-13.5 59q-7 22 -26 32.5t-37 18.5q-12 5 -23 5q-8 0 -16 -3t-14 -7q-8 -4 -11 -6t-7 -4.5
t-13 -12.5q-5 -3 -8 -5.5t-8 -3.5q-5 0 -8 1.5t-8 6.5q-4 2 -7.5 5.5t-7.5 5.5q-18 11 -33 21t-28 18q-23 16 -46.5 30.5t-55.5 29.5q-15 7 -29 8.5t-27 1.5q-41 0 -65.5 -2.5t-47.5 -5.5q-20 -3 -40 -5.5t-47 -2.5q-23 0 -41 2t-40 4q-19 2 -36.5 4t-36.5 2h-18.5t-20.5 -2
q-37 -5 -71.5 -11.5t-64.5 -17.5t-54 -30q-15 -13 -15 -31q0 -14 4.5 -24.5t12.5 -18.5q11 -12 32 -16.5t50 -4.5q5 0 15 0.5t19.5 1.5t17.5 1q11 1 21 1.5t21 1.5q14 2 26.5 3t25.5 1q10 1 22 0.5t21.5 -3t14.5 -9.5q7 -3 11.5 -5t5.5 -8q-5 -4 -8.5 -8.5t-6.5 -11.5
q-3 -5 -4 -11t-4 -12q-2 -4 -4.5 -7t-5.5 -5q-10 -3 -15.5 -9.5t-8.5 -13.5q-14 -11 -14 -28t6 -35q6 -16 15.5 -31.5t21.5 -31.5q9 -12 15.5 -24t13.5 -24q2 -13 5.5 -21t17.5 -14v-3v-4q0 -4 -1 -8.5t-2 -9.5q-2 -5 -3.5 -11t-1.5 -13q0 -9 6 -20.5t17 -27.5
q-1 -5 -2 -10.5t5 -11.5q21 -22 38.5 -34t38.5 -16.5t52 -4.5zM1098 89q-4 0 -7.5 9.5t-6.5 19.5q-10 23 -15 53t-7.5 63t-2.5 62q0 13 1 26.5t2 30.5q1 16 1.5 36t4.5 37t15 25q6 0 12 -12.5t9 -25.5q6 -22 8.5 -43t4 -41.5t3.5 -41.5q1 -10 1.5 -20t1.5 -19v-17.5v-17.5
t-3 -21t-7 -24q-3 -9 -5 -17.5t-2 -13.5q0 -4 0.5 -8t1.5 -8q0 -4 0.5 -7t0.5 -6q0 -6 -3 -12.5t-8 -6.5zM612 54q-6 0 -15 7t-9 14q0 3 5 6q6 6 16 7.5t26 5.5q12 3 21.5 9.5t17.5 6.5h4q4 -1 4.5 -6.5t0.5 -10.5q1 -5 1 -9t-3 -8q-8 -7 -15 -7t-15 -2q-3 -1 -7.5 -3
t-7.5 -4l-12 -4t-12 -2zM569 121q-12 0 -23 5t-11 13q0 10 11.5 20t24.5 10q4 0 7.5 -0.5t6.5 -0.5q12 0 21 3.5t17 7.5q7 4 13 6.5t13 2.5q13 -1 21 -13q6 -8 6 -14q0 -8 -10.5 -13.5t-24 -8t-22.5 -5.5q-13 -2 -25.5 -7.5t-24.5 -5.5zM537 196q-10 0 -15.5 3.5t-5.5 9.5
q0 14 11 22.5t26.5 14.5t28.5 10q8 4 18 8.5t18.5 8t13.5 3.5h4q5 -1 6.5 -5.5t3.5 -9.5q1 -3 3.5 -6.5t2.5 -7.5q0 -8 -7 -8q-3 0 -5.5 1.5t-4.5 3.5t-4.5 3t-4.5 0q-8 -1 -9.5 -7t-1.5 -14q-7 -7 -13.5 -12.5t-14.5 -8.5q-6 -2 -21 -5.5t-29 -3.5zM790 70q-4 0 -7.5 2.5
t-8.5 3.5q-8 3 -17 2t-14 2q3 8 4.5 14t1.5 11q0 10 -4 16.5t-7 11.5q-4 5 -6 10t-2 12q0 5 0.5 10.5t0.5 7.5q0 16 -9.5 30.5t-14.5 23.5q-7 12 -7.5 18.5t0.5 14.5t4 16.5t6.5 15t6.5 6.5q5 -2 10.5 -5.5t12.5 -6.5q16 -6 26.5 -9.5t20 -4.5t23.5 -0.5t37 0.5q5 0 9.5 -1
t9.5 -3q5 -1 11 -2t11 -1q3 0 5.5 0.5t4.5 0.5q11 1 18 8t7 17q0 19 -16 24t-33 5q-8 0 -16 -0.5t-15 -1.5t-13.5 -1.5t-13.5 -0.5q-24 0 -36.5 7t-28.5 15q-11 7 -18.5 12.5t-13.5 10.5q-7 7 -12 11t-10 2q-5 -1 -7.5 -5t-5.5 -6q-19 -10 -36 -21t-31 -20.5t-23 -16.5
q-8 -6 -12.5 -10t-11.5 -7q-12 -6 -20 -8.5t-18 -4.5q-4 3 -7 7t-7 5q-12 4 -22 3t-18 3q-4 3 -5 6.5t-3 9.5q-2 5 -5 10t-3 8q0 7 4 10t12 6q6 2 13 4t15 6q7 4 18 10t21 9q10 4 24.5 8t27.5 7.5t22 6.5q13 6 30 14t32 14.5t26 6.5q5 0 8.5 -2t7.5 -4q7 -3 16.5 -6t16.5 -3
q16 1 18 18q0 7 -6 14q-15 15 -25.5 25t-28.5 22q-14 9 -25 14t-26 5q-8 0 -13.5 -2.5t-11.5 -4.5q-4 -1 -7.5 -3t-8.5 -2q-7 0 -15.5 4.5t-15.5 8.5q-9 6 -19 10.5t-20 4.5q-5 0 -10 -4q-3 -2 -4.5 -4t-3.5 -4q-15 -1 -28.5 -2t-26.5 -1h-39t-19 -1q-13 -1 -23.5 -1.5
t-20.5 -2.5q-14 -2 -25.5 -3t-25.5 -1q-33 2 -53 3.5t-44 8.5q-2 1 -3.5 5.5t-1.5 8.5q0 10 3 12q15 9 42.5 13t46.5 4q17 0 30 -2t25 -4q14 -3 27.5 -5.5t30.5 -3.5q4 0 7 1l6 2l6 2t6 1q4 0 7.5 -0.5t7.5 -1.5t8.5 -1.5t9.5 -0.5q19 0 33.5 3.5t31.5 6.5q4 1 12 2.5
t15.5 3.5t11.5 2q31 0 49.5 -1t32 -2.5t29.5 -2.5q6 0 11 -2.5l11 -5.5q8 -5 14.5 -7t16.5 -2q6 0 17.5 1t16.5 1q21 0 47 -14t48 -31q10 -8 20.5 -15t23.5 -16q5 -2 9 -6l7 -7t10 -6t14.5 -5.5t11.5 -4t1 -1.5l4.5 0.5t6.5 0.5q8 0 12 -4.5t4 -14.5q0 -20 -1.5 -37.5
t-3.5 -34.5t-4 -35t-1 -41q1 -17 1.5 -29t5.5 -35q3 -13 5 -26.5t2 -31.5q0 -16 -13 -21.5t-41 -5.5q-5 2 -9 2.5t-8 -0.5q-5 0 -9.5 -3.5t-9.5 -8.5q-4 -3 -8 -6.5t-8 -5.5q-16 -7 -28 -9.5t-23 -6.5q-8 -1 -19.5 -2.5t-17.5 -3.5q-9 -1 -15 -4q-3 -1 -6.5 -2.5t-6.5 -1.5z
M522 415q-6 0 -10.5 2t-4.5 7q0 10 17 21t38.5 19t34.5 8q14 0 24.5 -3.5t10.5 -13.5q0 -7 -13.5 -14t-33 -13t-37.5 -9.5t-26 -3.5z" />
  </g>

</svg>
