<?xml version="1.0" standalone="no"?>
<!DOCTYPE svg PUBLIC "-//W3C//DTD SVG 1.1//EN" "http://www.w3.org/Graphics/SVG/1.1/DTD/svg11.dtd" >
<svg xmlns="http://www.w3.org/2000/svg" xmlns:xlink="http://www.w3.org/1999/xlink" version="1.1" viewBox="-10 0 1575 1000">
  <g transform="matrix(1 0 0 -1 0 800)">
   <path fill="currentColor"
d="M187 -16q-27 0 -33.5 28.5t3.5 82.5q26 138 44 249t28 208q2 29 -6 44.5t-38 22.5q-15 4 -23 8.5t-8 12.5t9 11.5t23 3.5q27 0 62.5 -2.5t65.5 -2.5q19 0 43 1t47.5 1.5t40.5 0.5q10 0 17 -3t6 -10q-2 -8 -12.5 -13.5t-22.5 -7.5q-33 -6 -48.5 -18t-21.5 -47l-69 -393
q-2 -10 -1 -14t4 -4t6 5.5t11 14.5l259 314q41 48 52.5 77.5t3.5 44.5t-27 20q-12 3 -18.5 8t-5.5 13q1 7 11.5 10t20.5 3q24 0 48 -1t52 -1q30 0 52 3t49 3q12 0 20 -4t8 -11q0 -9 -12.5 -13.5t-25.5 -8.5q-29 -8 -59 -27t-57 -52l-365 -423q-17 -21 -36.5 -43.5t-39 -43.5
t-34.5 -34t-23 -13zM696 -4q-9 0 -14 3.5t-4 9.5q3 15 30 20q39 9 59.5 22.5t30.5 45.5l140 454q10 33 1 46.5t-45 22.5q-11 2 -15 7.5t-2 13.5q1 6 9 9.5t17 3.5q23 0 45 -1t43 -2t42 -1q20 0 41.5 1t44.5 2t46 1q20 0 17 -14q-2 -8 -9.5 -12.5t-21.5 -7.5q-27 -6 -44 -14
t-27 -21t-16 -35l-131 -428q-10 -32 -10 -50t11.5 -26t33.5 -14q20 -4 25.5 -9t4.5 -13q-1 -7 -8.5 -10t-16.5 -3q-23 0 -47.5 1t-48 2t-44.5 1q-32 0 -67 -2.5t-70 -2.5zM1068 -4q-9 0 -14 3.5t-4 9.5q3 15 30 20q39 9 59.5 22.5t30.5 45.5l140 454q10 33 1 46.5t-45 22.5
q-11 2 -15 7.5t-2 13.5q1 6 9 9.5t17 3.5q23 0 45 -1t43 -2t42 -1q20 0 41.5 1t44.5 2t46 1q20 0 17 -14q-2 -8 -9.5 -12.5t-21.5 -7.5q-27 -6 -44 -14t-27 -21t-16 -35l-131 -428q-10 -32 -10 -50t11.5 -26t33.5 -14q20 -4 25.5 -9t4.5 -13q-1 -7 -8.5 -10t-16.5 -3
q-23 0 -47.5 1t-48 2t-44.5 1q-32 0 -67 -2.5t-70 -2.5z" />
  </g>

</svg>
