<?xml version="1.0" standalone="no"?>
<!DOCTYPE svg PUBLIC "-//W3C//DTD SVG 1.1//EN" "http://www.w3.org/Graphics/SVG/1.1/DTD/svg11.dtd" >
<svg xmlns="http://www.w3.org/2000/svg" xmlns:xlink="http://www.w3.org/1999/xlink" version="1.1" viewBox="-10 0 1192 1000">
  <g transform="matrix(1 0 0 -1 0 800)">
   <path fill="currentColor"
d="M124 -215q-29 0 -49 42q-24 54 -35.5 117t-11.5 129q0 122 41.5 237t118.5 213t181 169q21 14 38 14q16 0 16 -11q0 -4 -3 -9.5t-11 -12.5q-65 -57 -120 -128.5t-96 -152.5t-63.5 -167.5t-22.5 -172.5q0 -58 5 -101.5t12.5 -77.5t14.5 -64q2 -10 -2.5 -17t-12.5 -7z
M403 -15q-8 0 -18 6t-19 15.5t-13 22.5t2 26l106 262q12 32 -6 32q-8 0 -20.5 -1.5t-27.5 -10t-30 -27.5q-4 -5 -11 -4.5t-8 9.5q0 7 5.5 18t13.5 22.5t13 17.5q21 23 52.5 38t74.5 16q20 0 32 -10.5t15.5 -27t-3.5 -34.5l-57 -144q-3 -7 4.5 -8t10.5 5q37 65 74.5 114
t76 77t75.5 28q34 0 50.5 -19.5t19 -49t-11.5 -59.5l-81 -190q-13 -33 5 -33q8 0 21 7t27.5 17t25.5 19t16 14q3 4 7 7t7 3t6 -3t3 -8q0 -16 -10 -28q-28 -34 -62.5 -60.5t-71 -42t-70.5 -15.5q-12 0 -24 8t-17.5 19t-0.5 24q31 71 64 141t61 142q9 26 6.5 37.5t-14.5 11.5
q-13 1 -28 -12.5t-32.5 -35.5t-37.5 -48q-10 -13 -27 -40t-38.5 -60.5t-42.5 -68.5t-38 -65q-14 -24 -27 -39t-27 -15zM1076 706q29 0 49 -42q24 -54 35.5 -117t11.5 -129q0 -122 -41.5 -237t-118.5 -213t-181 -169q-21 -14 -38 -14q-16 0 -16 11q0 4 3 9.5t11 12.5
q65 57 120 128.5t96 152.5t63.5 167.5t22.5 172.5q0 58 -5 101.5t-12.5 77.5t-14.5 64q-2 10 2.5 17t12.5 7z" />
  </g>

</svg>
