<?xml version="1.0" standalone="no"?>
<!DOCTYPE svg PUBLIC "-//W3C//DTD SVG 1.1//EN" "http://www.w3.org/Graphics/SVG/1.1/DTD/svg11.dtd" >
<svg xmlns="http://www.w3.org/2000/svg" xmlns:xlink="http://www.w3.org/1999/xlink" version="1.1" viewBox="-10 0 751 1000">
  <g transform="matrix(1 0 0 -1 0 800)">
   <path fill="currentColor"
d="M73 -24q-12 0 -17 9.5t2 17.5l608 650q9 10 20.5 13.5t23.5 3.5q14 0 18.5 -8t-2.5 -16l-606 -648q-11 -12 -22.5 -17t-24.5 -5zM168 411q-24 0 -40.5 15.5t-16.5 33.5q0 33 19.5 49.5t52.5 27.5l78 25q15 5 19.5 9.5t8.5 17.5l6 22q5 18 1 28t-20 10q-9 0 -19.5 -3.5
t-16.5 -9.5q-5 -5 -6 -14.5t-3 -15.5q-1 -4 -10 -9t-20.5 -8.5t-22 -6.5t-17.5 -3q-5 0 -5.5 6t2.5 12q6 12 16 23.5t29 23.5q16 9 36.5 18.5t43 16t41.5 6.5q36 0 51.5 -22.5t4.5 -57.5l-38 -113q-5 -15 -3.5 -26t12.5 -11q6 0 10.5 2.5t8.5 5.5t7 3t5 -3.5t2 -6.5
q0 -5 -7.5 -11.5t-12.5 -10.5q-13 -9 -28 -16t-32 -7q-18 0 -27.5 6t-14 14.5t-7.5 16.5h-2q-14 -12 -35 -24.5t-50 -12.5zM215 455q7 0 14.5 3t12.5 6q4 3 6 6t5 11l17 50q2 7 -1.5 9t-8.5 0q-29 -10 -45 -21.5t-20 -35.5q-3 -10 3 -19t17 -9zM480 9q-19 0 -37 3t-35 11
q-4 2 -5.5 6t-1.5 7q-1 12 2 30t8 37q2 3 6 6t10 3q5 0 8.5 -3.5t3.5 -7.5q0 -28 13 -44.5t39 -16.5q23 0 34.5 12t11.5 28q0 18 -12 29t-29 21q-16 10 -30 26t-15 36q0 31 19 50.5t49 29t61 9.5q16 0 32.5 -2.5t26.5 -6.5t10 -17q-1 -9 -3.5 -22.5t-6.5 -27.5
q-1 -4 -5 -6.5t-9 -2.5q-11 0 -13 9q-4 22 -14 34.5t-29 12.5q-20 0 -32 -9t-12 -22q0 -15 13.5 -26.5t29.5 -22.5q19 -14 32 -29.5t13 -35.5q-1 -48 -37 -73t-96 -25z" />
  </g>

</svg>
