<?xml version="1.0" standalone="no"?>
<!DOCTYPE svg PUBLIC "-//W3C//DTD SVG 1.1//EN" "http://www.w3.org/Graphics/SVG/1.1/DTD/svg11.dtd" >
<svg xmlns="http://www.w3.org/2000/svg" xmlns:xlink="http://www.w3.org/1999/xlink" version="1.1" viewBox="-27 0 755 1000">
  <g transform="matrix(1 0 0 -1 0 800)">
   <path fill="currentColor"
d="M230 -14q-26 0 -50 15t-39 41t-15 59q0 37 11.5 67t35.5 64t59 81q4 5 0 9t-9 5q-12 5 -30.5 8.5t-36.5 5t-33 1.5q-40 0 -66 -9.5t-26 -28.5q0 -10 7.5 -18.5t17.5 -15.5t18 -14.5t8 -14.5q0 -9 -7 -21t-17.5 -20t-20.5 -8q-12 0 -24.5 12t-21 28t-8.5 30q0 19 9 43
t25 47.5t37 39.5q20 15 35.5 24t32.5 9q33 0 59.5 -4.5t48.5 -9.5t39 -5t25.5 3t23.5 11q8 4 14 -2t8 -14.5t-4 -12.5q-22 -16 -44 -44.5t-39.5 -62t-28.5 -66.5t-11 -59q0 -30 22 -52t53 -22q33 0 63 17.5t56 46t45.5 62t30 65.5t10.5 55q0 22 -7.5 32t-20.5 10
q-21 0 -38 -21.5t-25.5 -54.5t-8.5 -66q1 -36 11.5 -69.5t35.5 -55t65 -21.5q34 0 61 15.5t46.5 42.5t30.5 62t11 75q0 17 -10 31t-24 38q-4 6 -5 12.5t1 11.5q6 19 25 37t42 18q13 0 24 -21.5t11 -62.5q0 -44 -14 -94t-38 -96.5t-55.5 -84.5t-67.5 -60.5t-73 -22.5
q-41 0 -68 29.5t-40.5 75.5t-13.5 96q0 75 17.5 128.5t48 82.5t67.5 29q27 0 40 -17t13 -52t-17 -83.5t-47 -98.5t-68.5 -93t-82 -70t-89.5 -27z" />
  </g>

</svg>
