<?xml version="1.0" standalone="no"?>
<!DOCTYPE svg PUBLIC "-//W3C//DTD SVG 1.1//EN" "http://www.w3.org/Graphics/SVG/1.1/DTD/svg11.dtd" >
<svg xmlns="http://www.w3.org/2000/svg" xmlns:xlink="http://www.w3.org/1999/xlink" version="1.1" viewBox="-10 0 525 1000">
  <g transform="matrix(1 0 0 -1 0 800)">
   <path fill="currentColor"
d="M98 -195q-21 -2 -37.5 17t-16.5 40q0 14 6.5 22t19.5 10q38 8 75.5 20.5t68 26.5t49 27.5t18.5 24.5q0 6 -5 9t-14 3q-8 0 -23 -2t-32.5 -5t-33.5 -5q-24 -3 -46.5 -5t-38.5 -2q-21 0 -39.5 12t-29.5 30.5t-11 38.5q0 40 17 78t44 71.5t58 60.5t58 46q8 5 12 8.5t-7 8.5
q-23 11 -40 26t-17 40q0 22 10.5 45t28 46.5t37.5 43t39 34.5q-24 1 -44 8.5t-31.5 21t-11.5 32.5q0 27 18.5 52.5t48.5 42.5t63 17q8 0 14 -3.5t6 -8.5q0 -4 -4 -6t-13 -7q-25 -12 -39 -35.5t-14 -45.5q0 -18 7.5 -31.5t23.5 -18.5q39 26 79.5 46.5t73.5 32.5t50 12
q13 0 21.5 -11t8.5 -28q0 -15 -10 -32.5t-35.5 -32t-74.5 -19.5q-31 -5 -64.5 -18.5t-62 -33.5t-46.5 -44t-18 -52q0 -20 17 -34.5t44 -14.5q22 13 46.5 25t48 19.5t42.5 7.5q17 0 28 -10.5t11 -23.5q0 -12 -12.5 -29t-30 -31t-33.5 -17q-39 -8 -80 -22t-80 -32.5t-69.5 -40
t-49 -44.5t-18.5 -46q0 -19 13.5 -27t35.5 -8q10 0 31.5 1.5t43.5 3.5q21 2 42.5 5t31.5 3q18 0 32.5 -17t23 -39t8.5 -35q0 -30 -21 -63t-54.5 -62.5t-72 -50.5t-74.5 -26z" />
  </g>

</svg>
