<?xml version="1.0" standalone="no"?>
<!DOCTYPE svg PUBLIC "-//W3C//DTD SVG 1.1//EN" "http://www.w3.org/Graphics/SVG/1.1/DTD/svg11.dtd" >
<svg xmlns="http://www.w3.org/2000/svg" xmlns:xlink="http://www.w3.org/1999/xlink" version="1.1" viewBox="-10 0 594 1000">
  <g transform="matrix(1 0 0 -1 0 800)">
   <path fill="currentColor"
d="M220 -14q-51 0 -84 26t-47.5 70.5t-12 101.5t21.5 118q19 64 52 123t76 105t94.5 73.5t108.5 27.5q53 0 85.5 -26.5t47 -71.5t12 -101t-21.5 -115q-20 -66 -53.5 -125.5t-77.5 -106t-95 -73t-106 -26.5zM239 21q24 0 49.5 23t50 62t46 89t38.5 104q16 53 25.5 105t9.5 95
t-12 68.5t-38 25.5q-33 0 -66 -38.5t-62.5 -101t-51.5 -134.5q-16 -52 -26 -105t-11 -96.5t10 -70t38 -26.5z" />
  </g>

</svg>
