<?xml version="1.0" standalone="no"?>
<!DOCTYPE svg PUBLIC "-//W3C//DTD SVG 1.1//EN" "http://www.w3.org/Graphics/SVG/1.1/DTD/svg11.dtd" >
<svg xmlns="http://www.w3.org/2000/svg" xmlns:xlink="http://www.w3.org/1999/xlink" version="1.1" viewBox="-10 0 538 1000">
  <g transform="matrix(1 0 0 -1 0 800)">
   <path fill="currentColor"
d="M88 -199q-24 -1 -38.5 18t-14.5 41q0 20 8.5 27.5t25.5 7.5q26 2 60 14t66 28.5t53.5 32.5t22.5 26q1 6 -4.5 10.5t-14.5 4.5q-15 0 -44 -4t-59 -9t-49 -5q-23 0 -44 14.5t-34 38.5t-14 53q0 36 19 86.5t55 109t84.5 121t106.5 122.5q-60 0 -87.5 21t-28.5 48
q0 24 16.5 49.5t51 44t84.5 22.5q5 1 8.5 -0.5t3.5 -8.5q0 -4 -4 -6.5t-9 -4.5q-32 -11 -51 -35.5t-19 -49.5q0 -19 14.5 -34.5t45.5 -15.5q43 37 73 60.5t50 37t31.5 19t18.5 5.5q17 0 32 -14t15 -40q0 -22 -12.5 -44.5t-44.5 -38.5t-89 -19q-34 -23 -75 -57t-81.5 -75.5
t-74 -85.5t-53.5 -86.5t-19 -77.5q1 -23 17.5 -34.5t46.5 -11.5q10 0 32 2t45.5 4t36.5 2q16 0 31 -18t25 -41.5t10 -41.5q0 -23 -14.5 -50.5t-39 -55.5t-54.5 -51.5t-60.5 -38.5t-56.5 -16z" />
  </g>

</svg>
