<?xml version="1.0" standalone="no"?>
<!DOCTYPE svg PUBLIC "-//W3C//DTD SVG 1.1//EN" "http://www.w3.org/Graphics/SVG/1.1/DTD/svg11.dtd" >
<svg xmlns="http://www.w3.org/2000/svg" xmlns:xlink="http://www.w3.org/1999/xlink" version="1.1" viewBox="-10 0 682 1000">
  <g transform="matrix(1 0 0 -1 0 800)">
   <path fill="currentColor"
d="M55 46h75v606h-75v46h326q93 0 144.5 -46.5t51.5 -138.5q0 -71 -39.5 -118.5t-115.5 -61.5l117 -217q20 -36 45 -53t62 -17h9v-46h-64q-29 0 -48.5 6t-34.5 17t-26.5 28t-23.5 39l-124 231h-118v-275h75v-46h-236v46zM216 370h157q54 0 83 33.5t29 82.5v46q0 49 -29 83
t-83 34h-157v-279zM276 775l76 177l77 -38l-126 -153z" />
  </g>

</svg>
