<?xml version="1.0" standalone="no"?>
<!DOCTYPE svg PUBLIC "-//W3C//DTD SVG 1.1//EN" "http://www.w3.org/Graphics/SVG/1.1/DTD/svg11.dtd" >
<svg xmlns="http://www.w3.org/2000/svg" xmlns:xlink="http://www.w3.org/1999/xlink" version="1.1" viewBox="-10 0 526 1000">
  <g transform="matrix(1 0 0 -1 0 800)">
   <path fill="currentColor"
d="M291 -206q-36 0 -56.5 13t-31.5 26l20 21q10 -11 24 -17.5t34 -6.5q24 0 38.5 10.5t14.5 31.5q0 16 -11.5 29.5t-49.5 17.5l-28 3l13 67q-51 4 -90.5 24.5t-66.5 56t-41.5 83t-14.5 105.5q0 62 17.5 112t49.5 85t76.5 54t98.5 19q81 0 128.5 -34.5t47.5 -87.5
q0 -32 -16.5 -50t-45.5 -18q-31 0 -46 18t-15 43q0 22 11 38t31 25v3q-13 8 -33.5 12t-52.5 4q-35 0 -64.5 -13t-50.5 -36.5t-33 -55t-12 -68.5v-74q0 -41 11 -74.5t31.5 -57.5t49 -37t64.5 -13q61 0 96 25.5t56 66.5l32 -21q-9 -24 -24.5 -47.5t-38 -42t-51.5 -30.5
t-66 -14l-10 -51l3 -3q20 5 36 5q32 0 53 -16.5t21 -48.5q0 -21 -8.5 -36t-23.5 -25t-34.5 -15t-41.5 -5z" />
  </g>

</svg>
