<?xml version="1.0" standalone="no"?>
<!DOCTYPE svg PUBLIC "-//W3C//DTD SVG 1.1//EN" "http://www.w3.org/Graphics/SVG/1.1/DTD/svg11.dtd" >
<svg xmlns="http://www.w3.org/2000/svg" xmlns:xlink="http://www.w3.org/1999/xlink" version="1.1" viewBox="-10 0 643 1000">
  <g transform="matrix(1 0 0 -1 0 800)">
   <path fill="currentColor"
d="M45 46h74v421h-74v49h74v29q0 100 59.5 157.5t172.5 57.5q84 0 126 -26t42 -67q0 -25 -15 -40.5t-38 -15.5t-36 14t-13 34q0 35 29 46v2q-14 6 -33 10t-59 4q-37 0 -65.5 -12.5t-48 -34t-29.5 -51.5t-10 -66v-41h162l157 12v-482h74v-46h-230v46h74v421h-237v-421h74v-46
h-230v46z" />
  </g>

</svg>
