<?xml version="1.0" standalone="no"?>
<!DOCTYPE svg PUBLIC "-//W3C//DTD SVG 1.1//EN" "http://www.w3.org/Graphics/SVG/1.1/DTD/svg11.dtd" >
<svg xmlns="http://www.w3.org/2000/svg" xmlns:xlink="http://www.w3.org/1999/xlink" version="1.1" viewBox="-10 0 554 1000">
  <g transform="matrix(1 0 0 -1 0 800)">
   <path fill="currentColor"
d="M262 -212q-60 0 -102 9t-68 25t-37.5 39t-11.5 51q0 20 9 37t24 30t34 22.5t39 14.5v4q-63 22 -63 85q0 40 25.5 63t59.5 32v5q-47 20 -74.5 59t-27.5 94q0 39 14.5 70.5t41 53.5t62.5 34t79 12q47 0 80.5 -12.5t56.5 -30.5q1 58 22.5 79t50.5 21q22 0 36.5 -13t14.5 -35
q0 -21 -13.5 -34.5t-37.5 -13.5q-28 0 -43 20h-3v-50q11 -15 23 -39t12 -62q0 -39 -15 -71t-41.5 -54t-63 -34t-79.5 -12q-28 0 -53 6q-26 -5 -47 -21.5t-21 -39.5q0 -25 19 -35t64 -10h118q88 0 130.5 -35.5t42.5 -101.5q0 -74 -65 -118t-192 -44zM267 230q55 0 82.5 29
t27.5 79v39q0 50 -27.5 79t-82.5 29t-82.5 -29t-27.5 -79v-39q0 -50 27.5 -79t82.5 -29zM116 -83q0 -40 34.5 -60t92.5 -20h47q75 0 117.5 25t42.5 67q0 38 -26 57.5t-91 19.5h-156q-32 -14 -46.5 -37t-14.5 -52z" />
  </g>

</svg>
