<?xml version="1.0" standalone="no"?>
<!DOCTYPE svg PUBLIC "-//W3C//DTD SVG 1.1//EN" "http://www.w3.org/Graphics/SVG/1.1/DTD/svg11.dtd" >
<svg xmlns="http://www.w3.org/2000/svg" xmlns:xlink="http://www.w3.org/1999/xlink" version="1.1" viewBox="-10 0 634 1000">
  <g transform="matrix(1 0 0 -1 0 800)">
   <path fill="currentColor"
d="M35 46h74v637l-74 13v35l156 29v-321h4q6 15 18 31t30.5 29t43 21t55.5 8q93 0 133 -48.5t40 -145.5v-288h74v-46h-230v46h74v281q0 73 -29 108.5t-92 35.5q-22 0 -43.5 -6t-39 -19t-28 -32t-10.5 -45v-323h74v-46h-230v46zM0 792l123 149h56l123 -149l-24 -16l-127 97
l-127 -97z" />
  </g>

</svg>
