<?xml version="1.0" standalone="no"?>
<!DOCTYPE svg PUBLIC "-//W3C//DTD SVG 1.1//EN" "http://www.w3.org/Graphics/SVG/1.1/DTD/svg11.dtd" >
<svg xmlns="http://www.w3.org/2000/svg" xmlns:xlink="http://www.w3.org/1999/xlink" version="1.1" viewBox="-10 0 629 1000">
  <g transform="matrix(1 0 0 -1 0 800)">
   <path fill="currentColor"
d="M104 451l-74 13v34l156 30v-338q0 -145 121 -145q22 0 43.5 6t39 19t28 32t10.5 45v304l-74 13v34l156 30v-463l74 -13v-34l-154 -30v90h-4q-6 -15 -18.5 -31t-31 -29t-43.5 -21.5t-55 -8.5q-41 0 -73 14.5t-49 40.5h-4l41 -187v-56h-89v651z" />
  </g>

</svg>
