<?xml version="1.0" standalone="no"?>
<!DOCTYPE svg PUBLIC "-//W3C//DTD SVG 1.1//EN" "http://www.w3.org/Graphics/SVG/1.1/DTD/svg11.dtd" >
<svg xmlns="http://www.w3.org/2000/svg" xmlns:xlink="http://www.w3.org/1999/xlink" version="1.1" viewBox="-10 0 892 1000">
  <g transform="matrix(1 0 0 -1 0 800)">
   <path fill="currentColor"
d="M45 498q34 30 57 62.5t30 61.5h-2q-28 0 -43 18t-15 41v6q0 26 17 43.5t45 17.5q29 0 45.5 -19t16.5 -46v-9q0 -22 -8 -46t-21.5 -48t-32 -45t-39.5 -37h-50v0zM292 46h74v405l-74 13v34l154 30v-90h4q6 15 18.5 31t31 29t43.5 21.5t55 8.5q93 0 133.5 -48.5t40.5 -145.5
v-288h74v-46h-230v46h74v281q0 144 -121 144q-22 0 -43.5 -6t-39 -19t-28 -32t-10.5 -45v-323h74v-46h-230v46z" />
  </g>

</svg>
