<?xml version="1.0" standalone="no"?>
<!DOCTYPE svg PUBLIC "-//W3C//DTD SVG 1.1//EN" "http://www.w3.org/Graphics/SVG/1.1/DTD/svg11.dtd" >
<svg xmlns="http://www.w3.org/2000/svg" xmlns:xlink="http://www.w3.org/1999/xlink" version="1.1" viewBox="-10 0 1302 1000">
  <g transform="matrix(1 0 0 -1 0 800)">
   <path fill="currentColor"
d="M223 354q86 0 86 119v78q0 119 -86 119t-86 -119v-78q0 -119 86 -119zM690 28q86 0 86 119v78q0 119 -86 119t-86 -119v-78q0 -119 86 -119zM1069 28q86 0 86 119v78q0 119 -86 119t-86 -119v-78q0 -119 86 -119zM223 314q-73 0 -115.5 50.5t-42.5 147.5t42.5 147.5
t115.5 50.5t115.5 -50.5t42.5 -147.5t-42.5 -147.5t-115.5 -50.5zM690 -12q-73 0 -115.5 50.5t-42.5 147.5t42.5 147.5t115.5 50.5t115.5 -50.5t42.5 -147.5t-42.5 -147.5t-115.5 -50.5zM1069 -12q-73 0 -115.5 50.5t-42.5 147.5t42.5 147.5t115.5 50.5t115.5 -50.5
t42.5 -147.5t-42.5 -147.5t-115.5 -50.5zM669 698h60l-483 -698h-60z" />
  </g>

</svg>
