<?xml version="1.0" standalone="no"?>
<!DOCTYPE svg PUBLIC "-//W3C//DTD SVG 1.1//EN" "http://www.w3.org/Graphics/SVG/1.1/DTD/svg11.dtd" >
<svg xmlns="http://www.w3.org/2000/svg" xmlns:xlink="http://www.w3.org/1999/xlink" version="1.1" viewBox="-10 0 497 1000">
  <g transform="matrix(1 0 0 -1 0 800)">
   <path fill="currentColor"
d="M247 -194q-45 0 -83 13t-65 37t-42 57.5t-15 74.5q0 45 17 81.5t47 62.5t70 42t86 20v117h55v-166q-82 -3 -133.5 -39.5t-51.5 -103.5v-23q0 -60 35 -92t92 -32q37 0 61 6.5t41 16.5v2q-11 4 -23.5 19.5t-12.5 37.5q0 26 15.5 43.5t43.5 17.5t44.5 -17t16.5 -49
q0 -25 -16 -47.5t-43 -40t-63 -28t-76 -10.5zM289 402q-29 0 -45.5 17.5t-16.5 42.5v6q0 25 16.5 42.5t45.5 17.5t45.5 -17.5t16.5 -42.5v-6q0 -25 -16.5 -42.5t-45.5 -17.5z" />
  </g>

</svg>
