<?xml version="1.0" standalone="no"?>
<!DOCTYPE svg PUBLIC "-//W3C//DTD SVG 1.1//EN" "http://www.w3.org/Graphics/SVG/1.1/DTD/svg11.dtd" >
<svg xmlns="http://www.w3.org/2000/svg" xmlns:xlink="http://www.w3.org/1999/xlink" version="1.1" viewBox="-10 0 485 1000">
  <g transform="matrix(1 0 0 -1 0 800)">
   <path fill="currentColor"
d="M147 416h20v176h-20v18h102q31 0 48 -14.5t17 -41.5q0 -46 -42 -58l34 -62q10 -18 27 -18h2v-18h-11q-20 0 -33 6t-23 23l-35 63h-28v-74h17v-18h-75v18zM237 329q36 0 65.5 13.5t50.5 36t33 52.5t12 62v22q0 32 -12 62t-33 52.5t-50.5 36t-65.5 13.5t-65.5 -13.5
t-50.5 -36t-33 -52.5t-12 -62v-22q0 -32 12 -62t33 -52.5t50.5 -36t65.5 -13.5zM237 298q-41 0 -77 15.5t-63 43t-42.5 65.5t-15.5 82t15.5 82t42.5 65.5t63 43t77 15.5q40 0 76 -15.5t63 -43t43 -65.5t16 -82t-16 -82t-43 -65.5t-63 -43t-76 -15.5zM205 511h41q14 0 21.5 9
t7.5 23v13q0 14 -7.5 22.5t-21.5 8.5h-41v-76z" />
  </g>

</svg>
