<?xml version="1.0" standalone="no"?>
<!DOCTYPE svg PUBLIC "-//W3C//DTD SVG 1.1//EN" "http://www.w3.org/Graphics/SVG/1.1/DTD/svg11.dtd" >
<svg xmlns="http://www.w3.org/2000/svg" xmlns:xlink="http://www.w3.org/1999/xlink" version="1.1" viewBox="-10 0 573 1000">
  <g transform="matrix(1 0 0 -1 0 800)">
   <path fill="currentColor"
d="M282 37q37 0 64.5 12.5t45 35t26 53t8.5 66.5v108q0 36 -8.5 66.5t-26 53t-45 35t-64.5 12.5q-38 0 -65 -12.5t-44.5 -35t-26 -53t-8.5 -66.5v-108q0 -36 8.5 -66.5t26 -53t44.5 -35t65 -12.5zM282 -12q-53 0 -97 19t-75 54.5t-48 85t-17 111.5q0 61 17 111t48 85.5
t75 54.5t97 19t97 -19t75 -54.5t48 -85.5t17 -111q0 -62 -17 -111.5t-48 -85t-75 -54.5t-97 -19zM192 619q-23 0 -36.5 14.5t-13.5 34.5v3q0 20 13.5 34.5t36.5 14.5t36.5 -14.5t13.5 -34.5v-3q0 -20 -13.5 -34.5t-36.5 -14.5zM374 619q-23 0 -36.5 14.5t-13.5 34.5v3
q0 20 13.5 34.5t36.5 14.5t36.5 -14.5t13.5 -34.5v-3q0 -20 -13.5 -34.5t-36.5 -14.5z" />
  </g>

</svg>
