<?xml version="1.0" standalone="no"?>
<!DOCTYPE svg PUBLIC "-//W3C//DTD SVG 1.1//EN" "http://www.w3.org/Graphics/SVG/1.1/DTD/svg11.dtd" >
<svg xmlns="http://www.w3.org/2000/svg" xmlns:xlink="http://www.w3.org/1999/xlink" version="1.1" viewBox="-10 0 614 1000">
  <g transform="matrix(1 0 0 -1 0 800)">
   <path fill="currentColor"
d="M282 -12q-53 0 -94.5 11.5t-70 30.5t-43.5 42.5t-15 47.5q0 30 16.5 48.5t43.5 18.5t43 -17.5t16 -44.5q0 -22 -11.5 -38t-23.5 -21v-2q17 -11 49.5 -19t77.5 -8q85 0 129 38t44 101v30q0 59 -32.5 92t-95.5 33h-114v49h107q54 0 88 33.5t34 89.5v36q0 53 -32.5 87.5
t-99.5 34.5q-34 0 -62 -8.5t-48.5 -24t-31.5 -36.5t-11 -45v-62h-72v213h72v-62h4q21 32 61.5 53t106.5 21q49 0 87.5 -13t65 -36.5t40.5 -56t14 -71.5q0 -36 -10.5 -65t-29.5 -50.5t-44 -35.5t-55 -20v-4q29 -5 56.5 -16t48.5 -31t34 -49.5t13 -70.5q0 -45 -18.5 -82.5
t-52 -64.5t-80.5 -41.5t-104 -14.5zM216 791q-23 0 -36.5 14.5t-13.5 34.5v3q0 20 13.5 34.5t36.5 14.5t36.5 -14.5t13.5 -34.5v-3q0 -20 -13.5 -34.5t-36.5 -14.5zM398 791q-23 0 -36.5 14.5t-13.5 34.5v3q0 20 13.5 34.5t36.5 14.5t36.5 -14.5t13.5 -34.5v-3
q0 -20 -13.5 -34.5t-36.5 -14.5z" />
  </g>

</svg>
