<?xml version="1.0" standalone="no"?>
<!DOCTYPE svg PUBLIC "-//W3C//DTD SVG 1.1//EN" "http://www.w3.org/Graphics/SVG/1.1/DTD/svg11.dtd" >
<svg xmlns="http://www.w3.org/2000/svg" xmlns:xlink="http://www.w3.org/1999/xlink" version="1.1" viewBox="-10 0 833 1000">
  <g transform="matrix(1 0 0 -1 0 800)">
   <path fill="currentColor"
d="M203 -12q-72 0 -112.5 40t-40.5 105q0 40 12 70t39.5 49.5t71.5 29t107 9.5h74v65q0 61 -29.5 93.5t-88.5 32.5q-26 0 -48 -4.5t-36 -12.5v-2q11 -6 21.5 -18t10.5 -34q0 -26 -15 -40.5t-40 -14.5q-24 0 -39.5 14.5t-15.5 43.5q0 22 13 42.5t37 36.5t59.5 25.5t80.5 9.5
q32 0 57 -9t43 -24t28.5 -35t13.5 -42h6q14 48 56.5 79t103.5 31q51 0 89.5 -19.5t64.5 -53t39 -79.5t13 -99v-28h-341v-14q0 -85 42.5 -134t113.5 -49q31 0 53 5.5t38 16t27.5 26t22.5 35.5l33 -21q-10 -26 -25 -49t-37.5 -40t-53 -27t-71.5 -10q-37 0 -67.5 10t-53.5 26.5
t-39 38t-23 44.5h-6q-19 -63 -67.5 -91t-120.5 -28zM238 43q48 0 82 24.5t34 75.5v108h-65q-43 0 -72 -6.5t-46 -19.5t-24.5 -31t-7.5 -42v-31q0 -38 26 -58t73 -20zM437 293h256v17q0 35 -6.5 66t-20.5 54.5t-37.5 37t-56.5 13.5q-34 0 -59 -12.5t-42 -34.5t-25.5 -52
t-8.5 -65v-24z" />
  </g>

</svg>
