<?xml version="1.0" standalone="no"?>
<!DOCTYPE svg PUBLIC "-//W3C//DTD SVG 1.1//EN" "http://www.w3.org/Graphics/SVG/1.1/DTD/svg11.dtd" >
<svg xmlns="http://www.w3.org/2000/svg" xmlns:xlink="http://www.w3.org/1999/xlink" version="1.1" viewBox="-10 0 634 1000">
  <g transform="matrix(1 0 0 -1 0 800)">
   <path fill="currentColor"
d="M278 189h-14q-78 0 -117 36t-39 118v128h-74v45h225v-45h-69v-120q0 -52 19.5 -76.5t68.5 -28.5v108h47v-107q42 4 67.5 23t25.5 52v149h-69v45h225v-45h-74v-425h74v-46h-250v46h94v208h-3q-17 -20 -39 -34.5t-51 -22.5v-105h-47v97z" />
  </g>

</svg>
