<?xml version="1.0" standalone="no"?>
<!DOCTYPE svg PUBLIC "-//W3C//DTD SVG 1.1//EN" "http://www.w3.org/Graphics/SVG/1.1/DTD/svg11.dtd" >
<svg xmlns="http://www.w3.org/2000/svg" xmlns:xlink="http://www.w3.org/1999/xlink" version="1.1" viewBox="-10 0 696 1000">
  <g transform="matrix(1 0 0 -1 0 800)">
   <path fill="currentColor"
d="M16 46h53l227 652h95l226 -652h53v-46h-236v46h90l-62 181h-272l-62 -181h90v-46h-202v46zM204 275h243l-117 350h-6zM343 769q-36 0 -59.5 12.5t-39 32t-25 43t-17.5 46.5l27 14l21 -38q12 -23 32 -34.5t61 -11.5t61 11.5t32 34.5l21 38l27 -14q-8 -23 -17.5 -46.5
t-25 -43t-39 -32t-59.5 -12.5zM327 -162q-23 0 -36.5 14.5t-13.5 34.5v3q0 20 13.5 34.5t36.5 14.5t36.5 -14.5t13.5 -34.5v-3q0 -20 -13.5 -34.5t-36.5 -14.5z" />
  </g>

</svg>
