<?xml version="1.0" standalone="no"?>
<!DOCTYPE svg PUBLIC "-//W3C//DTD SVG 1.1//EN" "http://www.w3.org/Graphics/SVG/1.1/DTD/svg11.dtd" >
<svg xmlns="http://www.w3.org/2000/svg" xmlns:xlink="http://www.w3.org/1999/xlink" version="1.1" viewBox="-10 0 556 1000">
  <g transform="matrix(1 0 0 -1 0 800)">
   <path fill="currentColor"
d="M203 -12q-72 0 -112.5 37.5t-40.5 102.5q0 37 12 65.5t39.5 47.5t71.5 29t107 10h74v76q0 61 -29.5 93.5t-88.5 32.5q-26 0 -48 -4.5t-36 -12.5v-2q11 -6 21.5 -18t10.5 -34q0 -26 -15 -40.5t-40 -14.5q-24 0 -39.5 14.5t-15.5 43.5q0 22 13 42.5t37 36.5t59.5 25.5
t80.5 9.5q81 0 126.5 -42t45.5 -118v-325h75v-35q-11 -8 -29.5 -14t-41.5 -6q-39 0 -60 22t-21 59v7h-5q-7 -17 -18.5 -33t-29.5 -28t-43.5 -19.5t-59.5 -7.5zM238 43q48 0 82 24.5t34 75.5v97h-65q-43 0 -72 -6.5t-46 -19t-24.5 -30.5t-7.5 -42v-21q0 -38 26 -58t73 -20z
M264 586q-36 0 -59.5 12.5t-39 31.5t-25 42.5t-17.5 46.5l27 14l21 -39q13 -24 32.5 -35.5t60.5 -11.5t60.5 11.5t32.5 35.5l21 39l27 -14q-8 -23 -17.5 -46.5t-25 -42.5t-39 -31.5t-59.5 -12.5zM155 854l65 34l78 -173l-27 -14z" />
  </g>

</svg>
