<?xml version="1.0" standalone="no"?>
<!DOCTYPE svg PUBLIC "-//W3C//DTD SVG 1.1//EN" "http://www.w3.org/Graphics/SVG/1.1/DTD/svg11.dtd" >
<svg xmlns="http://www.w3.org/2000/svg" xmlns:xlink="http://www.w3.org/1999/xlink" version="1.1" viewBox="-10 0 726 1000">
  <g transform="matrix(1 0 0 -1 0 800)">
   <path fill="currentColor"
d="M358 -12q-69 0 -126 25t-97.5 72t-62.5 113.5t-22 150.5t22 150.5t62.5 113.5t97.5 72t126 25q48 0 90 -12h128v112h76v-86q0 -26 -16.5 -43.5t-51.5 -17.5h-59q66 -44 103.5 -124t37.5 -190q0 -84 -22 -150.5t-62.5 -113.5t-97.5 -72t-126 -25zM358 41q51 0 90.5 18.5
t66.5 52t41 79.5t14 101v114q0 55 -14 101t-41 79.5t-66.5 52t-90.5 18.5t-90.5 -18.5t-66.5 -52t-41 -79.5t-14 -101v-114q0 -55 14 -101t41 -79.5t66.5 -52t90.5 -18.5zM358 -162q-23 0 -36.5 14.5t-13.5 34.5v3q0 20 13.5 34.5t36.5 14.5t36.5 -14.5t13.5 -34.5v-3
q0 -20 -13.5 -34.5t-36.5 -14.5z" />
  </g>

</svg>
