<?xml version="1.0" standalone="no"?>
<!DOCTYPE svg PUBLIC "-//W3C//DTD SVG 1.1//EN" "http://www.w3.org/Graphics/SVG/1.1/DTD/svg11.dtd" >
<svg xmlns="http://www.w3.org/2000/svg" xmlns:xlink="http://www.w3.org/1999/xlink" version="1.1" viewBox="-10 0 863 1000">
  <g transform="matrix(1 0 0 -1 0 800)">
   <path fill="currentColor"
d="M616 -12q-41 0 -75 7t-62.5 23.5t-52 44.5t-44.5 69l-98 193h-68v-279h75v-46h-236v46h75v606h-75v46h236q92 0 143.5 -46.5t51.5 -138.5q0 -64 -29 -108.5t-86 -64.5l82 -168q15 -31 31 -56.5t35.5 -43.5t43 -28t53.5 -10q44 0 70.5 18t26.5 56q0 16 -6 27.5t-16.5 20.5
t-23.5 17t-27 16l-29 18q-25 15 -44 29.5t-31.5 31.5t-19 38t-6.5 49q0 56 42 89t114 33q59 0 91.5 -21t32.5 -62q0 -25 -14.5 -40.5t-37.5 -15.5q-22 0 -35.5 14t-13.5 34q0 35 27 45v2q-7 3 -17 4t-21 1q-50 0 -70 -21t-20 -56q0 -32 19 -52t45 -36l30 -18q25 -15 45 -28
t34 -28t21.5 -34t7.5 -46q0 -28 -11.5 -52t-33.5 -41.5t-54.5 -27.5t-74.5 -10zM216 370h67q54 0 83 34.5t29 83.5v47q0 49 -29 83t-83 34h-67v-282z" />
  </g>

</svg>
