<?xml version="1.0" standalone="no"?>
<!DOCTYPE svg PUBLIC "-//W3C//DTD SVG 1.1//EN" "http://www.w3.org/Graphics/SVG/1.1/DTD/svg11.dtd" >
<svg xmlns="http://www.w3.org/2000/svg" xmlns:xlink="http://www.w3.org/1999/xlink" version="1.1" viewBox="-52 0 703 1000">
  <g transform="matrix(1 0 0 -1 0 800)">
   <path fill="currentColor"
d="M478 -202q-29 0 -46.5 14t-17.5 43q0 40 33 73.5t97 68.5l-1 3h-151l4 18h100l-20 216h-306l-128 -216h100l-4 -18h-180l4 18h56l404 680h30l66 -680h56l-4 -18q-70 -39 -102.5 -72.5t-32.5 -70.5q0 -23 13 -33t35 -10q21 0 35 8.5t23 16.5l8 -8q-12 -13 -29.5 -23
t-41.5 -10zM180 252h294l-40 426h-2z" />
  </g>

</svg>
