<?xml version="1.0" standalone="no"?>
<!DOCTYPE svg PUBLIC "-//W3C//DTD SVG 1.1//EN" "http://www.w3.org/Graphics/SVG/1.1/DTD/svg11.dtd" >
<svg xmlns="http://www.w3.org/2000/svg" xmlns:xlink="http://www.w3.org/1999/xlink" version="1.1" viewBox="-13 0 637 1000">
  <g transform="matrix(1 0 0 -1 0 800)">
   <path fill="currentColor"
d="M1 18h80l165 662h-80l4 18h444l-37 -148h-20l33 130h-322l-76 -303h242l21 85h20l-47 -188h-20l22 85h-242l-85 -341h342l33 130h20l-37 -148h-464zM427 780q-24 0 -40 8.5t-27 24t-18.5 37.5t-14.5 50l11 4l9 -27q8 -24 15.5 -39t16.5 -24t21 -12.5t28 -3.5
q33 0 60 16.5t63 62.5l21 27l10 -6q-20 -28 -38 -50t-36 -37t-37.5 -23t-43.5 -8z" />
  </g>

</svg>
