<?xml version="1.0" standalone="no"?>
<!DOCTYPE svg PUBLIC "-//W3C//DTD SVG 1.1//EN" "http://www.w3.org/Graphics/SVG/1.1/DTD/svg11.dtd" >
<svg xmlns="http://www.w3.org/2000/svg" xmlns:xlink="http://www.w3.org/1999/xlink" version="1.1" viewBox="-13 0 801 1000">
  <g transform="matrix(1 0 0 -1 0 800)">
   <path fill="currentColor"
d="M1 18h80l129 519h-90l4 17h91l31 126h-80l4 18h182l-4 -18h-80l-31 -126h404l31 126h-80l4 18h182l-4 -18h-80l-31 -126h89l-4 -17h-90l-129 -519h80l-4 -18h-182l4 18h80l85 340h-404l-85 -340h80l-4 -18h-182zM192 376h404l40 161h-404z" />
  </g>

</svg>
