<?xml version="1.0" standalone="no"?>
<!DOCTYPE svg PUBLIC "-//W3C//DTD SVG 1.1//EN" "http://www.w3.org/Graphics/SVG/1.1/DTD/svg11.dtd" >
<svg xmlns="http://www.w3.org/2000/svg" xmlns:xlink="http://www.w3.org/1999/xlink" version="1.1" viewBox="-10 0 964 1000">
  <g transform="matrix(1 0 0 -1 0 800)">
   <path fill="currentColor"
d="M174 680h-56l4 18h176l-4 -18h-100l-2 -660h2l320 678h36l-2 -678h2l310 660h-100l4 18h180l-4 -18h-56l-323 -680h-33l2 680h-2l-322 -680h-34zM475 819q-11 0 -16 6t-5 14t4 15q3 5 8.5 9t14.5 4q11 0 16 -6t5 -14t-4 -15q-3 -5 -8.5 -9t-14.5 -4zM657 819q-11 0 -16 6
t-5 14t4 15q3 5 8.5 9t14.5 4q11 0 16 -6t5 -14t-4 -15q-3 -5 -8.5 -9t-14.5 -4z" />
  </g>

</svg>
