<?xml version="1.0" standalone="no"?>
<!DOCTYPE svg PUBLIC "-//W3C//DTD SVG 1.1//EN" "http://www.w3.org/Graphics/SVG/1.1/DTD/svg11.dtd" >
<svg xmlns="http://www.w3.org/2000/svg" xmlns:xlink="http://www.w3.org/1999/xlink" version="1.1" viewBox="-10 0 485 1000">
  <g transform="matrix(1 0 0 -1 0 800)">
   <path fill="currentColor"
d="M115 -12q-46 0 -65 26t-19 63q0 73 77 126.5t222 68.5l22 88q4 15 6.5 29.5t2.5 29.5q0 39 -22 60.5t-73 21.5q-33 0 -64.5 -9t-51.5 -28v-3q28 -5 28 -31q0 -11 -7 -17.5t-18 -6.5t-19 7t-8 21q0 15 12 30t32 27t45 19.5t52 7.5q63 0 89.5 -27t26.5 -72q0 -15 -3 -30.5
t-7 -30.5l-86 -344l18 -8l135 113l7 -8l-89 -83q-26 -25 -38.5 -32.5t-23.5 -7.5q-8 0 -18 4.5t-10 20.5q0 11 4 27l32 127l-5 1q-11 -26 -28.5 -57.5t-40.5 -58.5t-52 -45.5t-63 -18.5zM119 6q36 0 70 28t62 67t47.5 82t27.5 73l1 4q-71 -8 -122.5 -26t-85.5 -43t-50 -54.5
t-16 -59.5t14.5 -50.5t51.5 -20.5zM287 600q-24 0 -40 8.5t-27 24t-18.5 37.5t-14.5 50l11 4l9 -27q8 -24 15.5 -39t16.5 -24t21 -12.5t28 -3.5q33 0 60 16.5t63 62.5l21 27l10 -6q-20 -28 -38 -50t-36 -37t-37.5 -23t-43.5 -8z" />
  </g>

</svg>
