<?xml version="1.0" standalone="no"?>
<!DOCTYPE svg PUBLIC "-//W3C//DTD SVG 1.1//EN" "http://www.w3.org/Graphics/SVG/1.1/DTD/svg11.dtd" >
<svg xmlns="http://www.w3.org/2000/svg" xmlns:xlink="http://www.w3.org/1999/xlink" version="1.1" viewBox="-10 0 635 1000">
  <g transform="matrix(1 0 0 -1 0 800)">
   <path fill="currentColor"
d="M194 -12q-82 0 -121.5 39.5t-39.5 107.5q0 54 20 93.5t49 68t61.5 47.5t57.5 31l-7 12q-19 32 -30.5 61t-11.5 67q0 39 13.5 74.5t37.5 62.5t58.5 42.5t76.5 15.5q60 0 89.5 -27.5t29.5 -79.5q0 -67 -59.5 -122t-171.5 -112l154 -264q35 42 61.5 99t42.5 129h-89l4 16
h196l-3 -16h-88q-18 -82 -47 -142.5t-67 -102.5l17 -29q15 -26 38.5 -33.5t69.5 -7.5l-4 -18h-11q-42 0 -67 9.5t-44 43.5l-12 21q-45 -45 -97 -65.5t-106 -20.5zM238 383q36 18 70 39t62 43.5t48.5 46.5t29.5 48q7 20 7 43q0 42 -23 65.5t-75 23.5q-62 0 -101.5 -34.5
t-53.5 -89.5q-3 -12 -5.5 -25.5t-2.5 -25.5q0 -40 12.5 -71t31.5 -63zM196 6q111 0 191 85l-158 269q-24 -12 -50 -27t-49 -34.5t-41 -46t-25 -60.5q-2 -11 -5.5 -28.5t-3.5 -28.5q0 -36 11 -60.5t30 -39.5t44.5 -22t55.5 -7z" />
  </g>

</svg>
