<?xml version="1.0" standalone="no"?>
<!DOCTYPE svg PUBLIC "-//W3C//DTD SVG 1.1//EN" "http://www.w3.org/Graphics/SVG/1.1/DTD/svg11.dtd" >
<svg xmlns="http://www.w3.org/2000/svg" xmlns:xlink="http://www.w3.org/1999/xlink" version="1.1" viewBox="-103 0 317 1000">
  <g transform="matrix(1 0 0 -1 0 800)">
   <path fill="currentColor"
d="M120 943q-18 0 -33.5 7t-37.5 24q-18 14 -32 20t-28 6q-37 0 -75 -32l-7 9q46 40 84 40q18 0 33.5 -7t37.5 -24q18 -14 32 -20t28 -6q37 0 75 32l7 -9q-46 -40 -84 -40zM21 774q-24 0 -40 8.5t-27 24t-18.5 37.5t-14.5 50l11 4l9 -27q8 -24 15.5 -39t16.5 -24t21 -12.5
t28 -3.5q33 0 60 16.5t63 62.5l21 27l10 -6q-20 -28 -38 -50t-36 -37t-37.5 -23t-43.5 -8z" />
  </g>

</svg>
