<?xml version="1.0" standalone="no"?>
<!DOCTYPE svg PUBLIC "-//W3C//DTD SVG 1.1//EN" "http://www.w3.org/Graphics/SVG/1.1/DTD/svg11.dtd" >
<svg xmlns="http://www.w3.org/2000/svg" xmlns:xlink="http://www.w3.org/1999/xlink" version="1.1" viewBox="-10 0 740 1000">
  <g transform="matrix(1 0 0 -1 0 800)">
   <path fill="currentColor"
d="M321 152q-73 0 -73 105q0 26 4.5 57.5t14.5 63.5t25 62t35.5 53.5t47.5 38t60 14.5q35 0 55 -17t20 -38q0 -12 -7 -18t-15 -6t-14 5.5t-6 14.5t7.5 15.5t19.5 8.5v3q-10 8 -22.5 13t-33.5 5q-53 0 -93.5 -41.5t-61.5 -131.5q-5 -23 -8.5 -38t-5 -26.5t-2 -21t-0.5 -19.5
q0 -16 2 -31.5t8.5 -27.5t17.5 -19.5t29 -7.5q34 0 71 28t68 85l7 -4q-37 -71 -76 -98t-74 -27zM314 3q67 0 123 24.5t101 70t77 110t51 144.5q10 42 12.5 69.5t2.5 44.5q0 106 -57.5 167.5t-166.5 61.5q-67 0 -123 -24.5t-101 -70t-77 -110t-51 -144.5q-10 -42 -12.5 -69.5
t-2.5 -44.5q0 -106 57.5 -167.5t166.5 -61.5zM310 -12q-119 0 -179 67t-60 183q0 46 10 99t30.5 105.5t52 101t75 85.5t99 59t123.5 22q119 0 179 -67t60 -183q0 -46 -10 -99t-30.5 -105.5t-52 -101t-75 -85.5t-99 -59t-123.5 -22z" />
  </g>

</svg>
