<?xml version="1.0" standalone="no"?>
<!DOCTYPE svg PUBLIC "-//W3C//DTD SVG 1.1//EN" "http://www.w3.org/Graphics/SVG/1.1/DTD/svg11.dtd" >
<svg xmlns="http://www.w3.org/2000/svg" xmlns:xlink="http://www.w3.org/1999/xlink" version="1.1" viewBox="-22 0 593 1000">
  <g transform="matrix(1 0 0 -1 0 800)">
   <path fill="currentColor"
d="M243 189l42 170l36 125h12l-26 -125l-42 -170l-36 -125h-12zM-6 56h100l106 -5l-3 -12l-109 -5h-100zM171 -100l36 125h12l-26 -125l-25 -100h-22zM108 514h100l107 -5l-3 -12l-110 -5h-100zM234 39l3 12l110 5h100l-6 -22h-100zM357 648l25 100h22l-25 -100l-36 -125
h-12zM349 497l3 12l109 5h100l-6 -22h-100z" />
  </g>

</svg>
