<?xml version="1.0" standalone="no"?>
<!DOCTYPE svg PUBLIC "-//W3C//DTD SVG 1.1//EN" "http://www.w3.org/Graphics/SVG/1.1/DTD/svg11.dtd" >
<svg xmlns="http://www.w3.org/2000/svg" xmlns:xlink="http://www.w3.org/1999/xlink" version="1.1" viewBox="-10 0 560 1000">
  <g transform="matrix(1 0 0 -1 0 800)">
   <path fill="currentColor"
d="M235 85q-25 0 -25 23q0 5 1.5 11.5t6.5 11.5q10 10 25 10q25 0 25 -23q0 -5 -1.5 -11.5t-6.5 -11.5q-10 -10 -25 -10zM333 471q-25 0 -25 23q0 5 1.5 11.5t6.5 11.5q10 10 25 10q25 0 25 -23q0 -5 -1.5 -11.5t-6.5 -11.5q-10 -10 -25 -10zM52 314h476l-4 -16h-476z" />
  </g>

</svg>
