<?xml version="1.0" standalone="no"?>
<!DOCTYPE svg PUBLIC "-//W3C//DTD SVG 1.1//EN" "http://www.w3.org/Graphics/SVG/1.1/DTD/svg11.dtd" >
<svg xmlns="http://www.w3.org/2000/svg" xmlns:xlink="http://www.w3.org/1999/xlink" version="1.1" viewBox="-10 0 392 1000">
  <g transform="matrix(1 0 0 -1 0 800)">
   <path fill="currentColor"
d="M90 -12q-8 0 -17.5 4.5t-9.5 20.5q0 11 4 27l112 450h-85l2 11l110 11l-124 -498l18 -8l135 113l7 -8l-89 -83q-26 -25 -39 -32.5t-24 -7.5zM288 628q-18 0 -33.5 7t-37.5 24q-18 14 -32 20t-28 6q-37 0 -75 -32l-7 9q46 40 84 40q18 0 33.5 -7t37.5 -24q18 -14 32 -20
t28 -6q37 0 75 32l7 -9q-46 -40 -84 -40z" />
  </g>

</svg>
