<?xml version="1.0" standalone="no"?>
<!DOCTYPE svg PUBLIC "-//W3C//DTD SVG 1.1//EN" "http://www.w3.org/Graphics/SVG/1.1/DTD/svg11.dtd" >
<svg xmlns="http://www.w3.org/2000/svg" xmlns:xlink="http://www.w3.org/1999/xlink" version="1.1" viewBox="-108 0 381 1000">
  <g transform="matrix(1 0 0 -1 0 800)">
   <path fill="currentColor"
d="M-98 -138q44 33 88 77.5t83.5 99t71 118t49.5 134.5l8 31q12 48 17 83t5 64q0 89 -26 166.5t-68 124.5h18q19 -21 36 -50.5t30 -66.5t21 -80.5t8 -91.5q0 -42 -5.5 -83t-15.5 -82q-18 -68 -47.5 -132t-68.5 -121t-85 -105.5t-97 -85.5h-22v0z" />
  </g>

</svg>
