<?xml version="1.0" standalone="no"?>
<!DOCTYPE svg PUBLIC "-//W3C//DTD SVG 1.1//EN" "http://www.w3.org/Graphics/SVG/1.1/DTD/svg11.dtd" >
<svg xmlns="http://www.w3.org/2000/svg" xmlns:xlink="http://www.w3.org/1999/xlink" version="1.1" viewBox="-10 0 497 1000">
  <g transform="matrix(1 0 0 -1 0 800)">
   <path fill="currentColor"
d="M204 349q91 8 149 51.5t75 100.5q8 29 11.5 47t3.5 32q0 55 -34.5 83.5t-94.5 28.5q-47 0 -83.5 -14.5t-59.5 -34.5v-3q15 -2 22 -10.5t7 -20.5q0 -11 -7 -19t-20 -8t-20 8t-7 19q0 18 13.5 36t37 32.5t54 23.5t65.5 9q76 0 112.5 -36.5t36.5 -93.5q0 -45 -16 -86.5
t-47.5 -74.5t-77.5 -55t-106 -29l-40 -159h-17zM129 -5q-12 0 -18 6.5t-6 14.5q0 11 4 19q3 6 9.5 11t17.5 5q12 0 18 -6.5t6 -14.5q0 -11 -4 -19q-3 -6 -9.5 -11t-17.5 -5z" />
  </g>

</svg>
