<?xml version="1.0" standalone="no"?>
<!DOCTYPE svg PUBLIC "-//W3C//DTD SVG 1.1//EN" "http://www.w3.org/Graphics/SVG/1.1/DTD/svg11.dtd" >
<svg xmlns="http://www.w3.org/2000/svg" xmlns:xlink="http://www.w3.org/1999/xlink" version="1.1" viewBox="-18 0 369 1000">
  <g transform="matrix(1 0 0 -1 0 800)">
   <path fill="currentColor"
d="M62 -202q-28 0 -46 10.5t-24 22.5l8 8q8 -12 24.5 -19t38.5 -7q35 0 57 20.5t22 45.5q0 36 -55 37l-33 1l36 71q-37 0 -58 11.5t-21 33.5q0 11 7.5 18.5t18.5 7.5q12 0 18.5 -7.5t6.5 -16.5t-6 -16.5t-14 -11.5v-3q7 -2 17 -3t22 -1q24 0 51.5 6t51 20.5t39.5 39t16 61.5
q0 17 -3 30t-10.5 26.5t-21.5 29.5t-35 37q-34 34 -51.5 61t-17.5 66q0 34 13 60.5t35 44.5t51 27t62 9q37 0 58.5 -11.5t21.5 -33.5q0 -11 -7.5 -18.5t-18.5 -7.5q-12 0 -18.5 7.5t-6.5 16.5t6 16.5t14 11.5v3q-11 4 -36 4q-24 0 -51 -6t-49.5 -20.5t-37.5 -39t-15 -61.5
q0 -17 3 -30t10.5 -26.5t21 -29t35.5 -37.5q36 -36 52.5 -63t16.5 -64q0 -32 -12 -57t-33 -43t-48.5 -28t-58.5 -12l-31 -62l1 -2q15 3 31 3q25 0 39.5 -13.5t14.5 -34.5q0 -15 -7.5 -29.5t-20.5 -26.5t-32 -19t-41 -7z" />
  </g>

</svg>
