<?xml version="1.0" standalone="no"?>
<!DOCTYPE svg PUBLIC "-//W3C//DTD SVG 1.1//EN" "http://www.w3.org/Graphics/SVG/1.1/DTD/svg11.dtd" >
<svg xmlns="http://www.w3.org/2000/svg" xmlns:xlink="http://www.w3.org/1999/xlink" version="1.1" viewBox="-10 0 560 1000">
  <g transform="matrix(1 0 0 -1 0 800)">
   <path fill="currentColor"
d="M203 -12q-35 0 -64.5 8.5t-51 22t-33.5 29t-12 29.5q0 15 9 25.5t23 10.5t20 -6.5t6 -17.5q0 -13 -9.5 -22.5t-26.5 -12.5v-4q28 -24 64.5 -34t72.5 -10q76 0 130.5 37.5t71.5 102.5q5 18 9 39.5t4 40.5q0 33 -11.5 57.5t-32 41t-48 24.5t-60.5 8h-45l4 18h54
q34 0 65.5 8t56.5 23t43 37t25 51q5 18 9 39.5t4 40.5q0 54 -34.5 86t-106.5 32q-42 0 -80 -12t-63 -35v-3q32 -5 32 -32q0 -12 -7.5 -19.5t-19.5 -7.5t-20 8t-8 23q0 18 14.5 35t38 30.5t54 22t62.5 8.5q75 0 117.5 -37t42.5 -103q0 -85 -48.5 -138.5t-130.5 -65.5v-3
q22 -3 43 -13.5t37 -28.5t25.5 -43t9.5 -56q0 -52 -17 -95t-47.5 -74t-74 -48t-96.5 -17z" />
  </g>

</svg>
