<?xml version="1.0" standalone="no"?>
<!DOCTYPE svg PUBLIC "-//W3C//DTD SVG 1.1//EN" "http://www.w3.org/Graphics/SVG/1.1/DTD/svg11.dtd" >
<svg xmlns="http://www.w3.org/2000/svg" xmlns:xlink="http://www.w3.org/1999/xlink" version="1.1" viewBox="-10 0 560 1000">
  <g transform="matrix(1 0 0 -1 0 800)">
   <path fill="currentColor"
d="M25 18l298 268q59 53 97.5 99t53.5 101q10 36 12 51t2 24q0 65 -35 98t-115 33q-40 0 -75.5 -12.5t-59.5 -34.5v-3q32 -5 32 -32q0 -12 -7.5 -19.5t-19.5 -7.5t-20 8t-8 23q0 18 14 35t36.5 30.5t51.5 22t59 8.5q89 0 129 -39.5t40 -110.5q0 -76 -48 -147t-126 -140
l-286 -253l1 -2h336l28 110h20l-32 -128h-382z" />
  </g>

</svg>
