<?xml version="1.0" standalone="no"?>
<!DOCTYPE svg PUBLIC "-//W3C//DTD SVG 1.1//EN" "http://www.w3.org/Graphics/SVG/1.1/DTD/svg11.dtd" >
<svg xmlns="http://www.w3.org/2000/svg" xmlns:xlink="http://www.w3.org/1999/xlink" version="1.1" viewBox="-10 0 657 1000">
  <g transform="matrix(1 0 0 -1 0 800)">
   <path fill="currentColor"
d="M187 -12q-19 0 -39 5t-36.5 17.5t-27 35t-10.5 57.5q0 17 2 35.5t9 42.5l84 309h-85l2 11l110 11l-72 -264l5 -1q30 42 63.5 60.5t71.5 18.5q49 0 78.5 -31t29.5 -84q0 -33 -11 -72t-33.5 -72.5t-57.5 -56t-83 -22.5zM467 -12q-8 0 -17.5 4.5t-9.5 20.5q0 11 4 27
l117 466h21l-123 -492l18 -8l135 113l7 -8l-89 -83q-26 -25 -39 -32.5t-24 -7.5zM188 5q17 0 39 5t44 20.5t41 43.5t30 73q5 18 6.5 34.5t1.5 29.5q0 45 -24.5 71.5t-65.5 26.5q-18 0 -40.5 -6.5t-45 -23t-41.5 -44t-29 -70.5q-5 -18 -6.5 -33.5t-1.5 -28.5q0 -51 25 -74.5
t67 -23.5zM313 642q-11 0 -16 6t-5 14t4 15q3 5 8.5 9t14.5 4q11 0 16 -6t5 -14t-4 -15q-3 -5 -8.5 -9t-14.5 -4zM495 642q-11 0 -16 6t-5 14t4 15q3 5 8.5 9t14.5 4q11 0 16 -6t5 -14t-4 -15q-3 -5 -8.5 -9t-14.5 -4z" />
  </g>

</svg>
