<?xml version="1.0" standalone="no"?>
<!DOCTYPE svg PUBLIC "-//W3C//DTD SVG 1.1//EN" "http://www.w3.org/Graphics/SVG/1.1/DTD/svg11.dtd" >
<svg xmlns="http://www.w3.org/2000/svg" xmlns:xlink="http://www.w3.org/1999/xlink" version="1.1" viewBox="-10 0 481 1000">
  <g transform="matrix(1 0 0 -1 0 800)">
   <path fill="currentColor"
d="M177 -12q-68 0 -97.5 43t-29.5 114q0 64 17.5 128.5t48.5 116t74 84t93 32.5q56 0 86.5 -34.5t30.5 -97.5h4q6 41 11 96.5t5 121.5q0 81 -27 116.5t-74 35.5q-38 0 -71 -24t-65 -76l-11 6q34 57 68.5 83.5t78.5 26.5q28 0 50.5 -8.5t38.5 -29t24.5 -54t8.5 -82.5
q0 -84 -10.5 -167t-29 -155.5t-44 -129t-56.5 -87.5q-59 -59 -124 -59zM177 5q38 0 69.5 20t56.5 53t43 76.5t30 91.5q9 37 12 57.5t3 41.5q0 69 -26 106.5t-82 37.5q-38 0 -69.5 -20t-56.5 -54t-43 -77.5t-29 -89.5q-9 -38 -11 -60t-2 -43q0 -31 5 -56.5t17 -44t32 -29
t51 -10.5z" />
  </g>

</svg>
