<?xml version="1.0" standalone="no"?>
<!DOCTYPE svg PUBLIC "-//W3C//DTD SVG 1.1//EN" "http://www.w3.org/Graphics/SVG/1.1/DTD/svg11.dtd" >
<svg xmlns="http://www.w3.org/2000/svg" xmlns:xlink="http://www.w3.org/1999/xlink" version="1.1" viewBox="-10 0 709 1000">
  <g transform="matrix(1 0 0 -1 0 800)">
   <path fill="currentColor"
d="M318 18h100l71 285h-3q-32 -12 -73.5 -18.5t-85.5 -6.5h-11l-40 -160h-21l40 161q-78 5 -114.5 40t-36.5 102q0 16 3 37t11 51l42 171h-80l4 18h182l-4 -18h-80l-42 -171q-8 -30 -11 -51t-3 -41q0 -57 32.5 -86t101.5 -34l46 185h21l-46 -186h10q44 0 88 7t75 18l89 359
h-80l4 18h182l-4 -18h-80l-165 -662h80l-4 -18h-202z" />
  </g>

</svg>
