<?xml version="1.0" standalone="no"?>
<!DOCTYPE svg PUBLIC "-//W3C//DTD SVG 1.1//EN" "http://www.w3.org/Graphics/SVG/1.1/DTD/svg11.dtd" >
<svg xmlns="http://www.w3.org/2000/svg" xmlns:xlink="http://www.w3.org/1999/xlink" version="1.1" viewBox="-10 0 700 1000">
  <g transform="matrix(1 0 0 -1 0 800)">
   <path fill="currentColor"
d="M136 18h100l165 662h-233l-32 -130h-20l37 148h527l-37 -148h-20l33 130h-233l-165 -662h100l-4 -18h-222zM165 -213q24 24 39 49t23 48h-7q-22 0 -22 21q0 13 8 21t20 8q23 0 23 -25q0 -8 -3.5 -18t-8.5 -21q-10 -21 -25.5 -43t-34.5 -40h-12v0z" />
  </g>

</svg>
