<?xml version="1.0" standalone="no"?>
<!DOCTYPE svg PUBLIC "-//W3C//DTD SVG 1.1//EN" "http://www.w3.org/Graphics/SVG/1.1/DTD/svg11.dtd" >
<svg xmlns="http://www.w3.org/2000/svg" xmlns:xlink="http://www.w3.org/1999/xlink" version="1.1" viewBox="-13 0 682 1000">
  <g transform="matrix(1 0 0 -1 0 800)">
   <path fill="currentColor"
d="M1 18h80l165 662h-80l4 18h182l-4 -18h-80l-76 -304h69l46 185h21l-46 -185h49l183 251q18 25 32 40t25.5 23t22.5 11t23 3q21 0 31.5 -11t10.5 -25t-8 -21.5t-19 -7.5q-12 0 -19.5 7.5t-7.5 17.5q0 9 2 15t7 11v3q-9 -2 -17.5 -5.5t-18.5 -12t-22.5 -23t-28.5 -36.5
l-183 -251q4 -2 6.5 -6t6.5 -13l130 -328h74l-4 -18h-85l-140 353l-5 5h-50l-40 -161h-21l40 161h-69l-84 -340h80l-4 -18h-182z" />
  </g>

</svg>
