<?xml version="1.0" standalone="no"?>
<!DOCTYPE svg PUBLIC "-//W3C//DTD SVG 1.1//EN" "http://www.w3.org/Graphics/SVG/1.1/DTD/svg11.dtd" >
<svg xmlns="http://www.w3.org/2000/svg" xmlns:xlink="http://www.w3.org/1999/xlink" version="1.1" viewBox="-10 0 531 1000">
  <g transform="matrix(1 0 0 -1 0 800)">
   <path fill="currentColor"
d="M338 -12q-8 0 -18 4.5t-10 20.5q0 11 4 27l103 385q5 22 5 33q0 42 -45 42q-50 0 -105 -52q-24 -23 -50 -56.5t-48.5 -71t-40 -77t-26.5 -74.5l-42 -169h-21l158 631h-84l4 16h84l26 104l22 3l-27 -107h175l-4 -16h-175l-89 -353l5 -1q16 33 40.5 74.5t55.5 78.5
t68.5 62.5t79.5 25.5q33 0 46.5 -16t13.5 -41q0 -14 -5 -36l-109 -411l18 -8l135 113l7 -8l-89 -83q-26 -25 -38.5 -32.5t-23.5 -7.5z" />
  </g>

</svg>
