<?xml version="1.0" standalone="no"?>
<!DOCTYPE svg PUBLIC "-//W3C//DTD SVG 1.1//EN" "http://www.w3.org/Graphics/SVG/1.1/DTD/svg11.dtd" >
<svg xmlns="http://www.w3.org/2000/svg" xmlns:xlink="http://www.w3.org/1999/xlink" version="1.1" viewBox="-10 0 405 1000">
  <g transform="matrix(1 0 0 -1 0 800)">
   <path fill="currentColor"
d="M136 -11q-45 5 -65.5 39t-20.5 99q0 35 5.5 78t17 86.5t30 84.5t44 72.5t58.5 50.5t75 19q46 0 73.5 -21.5t27.5 -50.5q0 -14 -7.5 -21t-18.5 -7t-18 6.5t-7 17.5q0 13 9.5 20.5t23.5 9.5v3q-11 11 -31.5 19t-51.5 8q-30 0 -59 -15.5t-54.5 -45.5t-45.5 -75t-33 -104
q-1 -5 -3.5 -18t-5.5 -31.5t-5 -40.5t-2 -45t3 -44.5t12 -38.5t25 -27.5t42 -10.5q46 0 90.5 40t84.5 115l12 -5q-23 -45 -46 -76.5t-46 -51.5t-46 -29.5t-46 -10.5l-35 -138h-21z" />
  </g>

</svg>
