<?xml version="1.0" standalone="no"?>
<!DOCTYPE svg PUBLIC "-//W3C//DTD SVG 1.1//EN" "http://www.w3.org/Graphics/SVG/1.1/DTD/svg11.dtd" >
<svg xmlns="http://www.w3.org/2000/svg" xmlns:xlink="http://www.w3.org/1999/xlink" version="1.1" viewBox="-13 0 801 1000">
  <g transform="matrix(1 0 0 -1 0 800)">
   <path fill="currentColor"
d="M1 18h80l165 662h-80l4 18h182l-4 -18h-80l-87 -350l-64 -248h2l546 570l7 28h-80l4 18h182l-4 -18h-80l-165 -662h80l-4 -18h-182l4 18h80l87 350l64 248h-2l-546 -570l-7 -28h80l-4 -18h-182zM490 791q-38 0 -60.5 15.5t-22.5 41.5q0 17 9 25t20 8q8 0 15.5 -5t7.5 -17
q0 -14 -9.5 -22t-17.5 -10v-3q7 -10 23 -15t37 -5q45 0 79 23.5t56 74.5l10 -5q-12 -30 -29 -50.5t-36.5 -32.5t-40.5 -17.5t-41 -5.5z" />
  </g>

</svg>
