<?xml version="1.0" standalone="no"?>
<!DOCTYPE svg PUBLIC "-//W3C//DTD SVG 1.1//EN" "http://www.w3.org/Graphics/SVG/1.1/DTD/svg11.dtd" >
<svg xmlns="http://www.w3.org/2000/svg" xmlns:xlink="http://www.w3.org/1999/xlink" version="1.1" viewBox="-10 0 434 1000">
  <g transform="matrix(1 0 0 -1 0 800)">
   <path fill="currentColor"
d="M152 -12q-20 0 -38 4.5t-32.5 15.5t-23 28.5t-8.5 43.5q0 67 70.5 108.5t232.5 55.5q1 7 4 20.5t6 31.5t5 39t2 43q0 23 -3 45t-12 39t-25 27.5t-43 10.5q-50 0 -99.5 -39.5t-90.5 -115.5l-12 5q24 47 49 79t51 52t52 28.5t52 8.5q55 0 79 -34.5t24 -105.5
q0 -35 -6 -77.5t-18 -86t-31.5 -84t-46 -72.5t-61 -51t-77.5 -19zM150 4q32 0 62 14.5t56.5 43t47.5 71t34 99.5q-65 -7 -116.5 -18.5t-87.5 -29t-55.5 -43t-19.5 -59.5q0 -14 4 -28t13 -25t24 -18t38 -7z" />
  </g>

</svg>
