<?xml version="1.0" standalone="no"?>
<!DOCTYPE svg PUBLIC "-//W3C//DTD SVG 1.1//EN" "http://www.w3.org/Graphics/SVG/1.1/DTD/svg11.dtd" >
<svg xmlns="http://www.w3.org/2000/svg" xmlns:xlink="http://www.w3.org/1999/xlink" version="1.1" viewBox="-10 0 441 1000">
  <g transform="matrix(1 0 0 -1 0 800)">
   <path fill="currentColor"
d="M186 -12q-62 0 -99 36.5t-37 107.5q0 54 14.5 121t44 126t74.5 99t107 40q48 0 75.5 -24.5t27.5 -66.5q0 -54 -40.5 -91.5t-116.5 -51.5v-3q68 0 96.5 -30t28.5 -81q0 -33 -11.5 -66t-34 -58.5t-55 -41.5t-74.5 -16zM186 5q56 0 94.5 33t52.5 87q4 16 5 25.5t1 19.5
q0 52 -29 76.5t-105 24.5q-15 0 -43 -2.5t-74 -7.5q-6 -30 -11 -63t-5 -66q0 -35 9 -59.5t24.5 -39.5t36 -21.5t44.5 -6.5zM292 502q-64 0 -118 -56.5t-83 -171.5q72 6 122 17.5t82.5 26.5t49.5 34t22 41q4 17 4 34q0 28 -17.5 51.5t-61.5 23.5z" />
  </g>

</svg>
