<?xml version="1.0" standalone="no"?>
<!DOCTYPE svg PUBLIC "-//W3C//DTD SVG 1.1//EN" "http://www.w3.org/Graphics/SVG/1.1/DTD/svg11.dtd" >
<svg xmlns="http://www.w3.org/2000/svg" xmlns:xlink="http://www.w3.org/1999/xlink" version="1.1" viewBox="-13 0 698 1000">
  <g transform="matrix(1 0 0 -1 0 800)">
   <path fill="currentColor"
d="M1 18h80l165 662h-80l4 18h444l-37 -148h-20l33 130h-322l-76 -303h242l21 85h20l-47 -188h-20l22 85h-242l-85 -341h342l33 130h20l-37 -148h-464zM550 883l105 127h-141l5 17h137q19 0 19 -13q0 -3 -0.5 -6t-5 -9t-14 -17.5t-26.5 -30.5l-69 -75zM291 783l150 132h24
l94 -134l-10 -7l-97 124l-153 -124z" />
  </g>

</svg>
