<?xml version="1.0" standalone="no"?>
<!DOCTYPE svg PUBLIC "-//W3C//DTD SVG 1.1//EN" "http://www.w3.org/Graphics/SVG/1.1/DTD/svg11.dtd" >
<svg xmlns="http://www.w3.org/2000/svg" xmlns:xlink="http://www.w3.org/1999/xlink" version="1.1" viewBox="-126 0 632 1000">
  <g transform="matrix(1 0 0 -1 0 800)">
   <path fill="currentColor"
d="M-61 -212q-25 0 -40 11t-15 29q0 11 6.5 18.5t19.5 7.5t19.5 -7.5t6.5 -18.5q0 -19 -21 -26v-3h12q54 0 92.5 28t74.5 91l43 75l-42 495h-46l5 18h139l-5 -18h-72l37 -467h5l267 467h-72l5 18h138l-5 -18h-46l-335 -579q-36 -63 -76.5 -92t-94.5 -29zM280 593l105 127
h-141l5 17h137q19 0 19 -13q0 -3 -0.5 -6t-5 -9t-14 -17.5t-26.5 -30.5l-69 -75z" />
  </g>

</svg>
