<?xml version="1.0" standalone="no"?>
<!DOCTYPE svg PUBLIC "-//W3C//DTD SVG 1.1//EN" "http://www.w3.org/Graphics/SVG/1.1/DTD/svg11.dtd" >
<svg xmlns="http://www.w3.org/2000/svg" xmlns:xlink="http://www.w3.org/1999/xlink" version="1.1" viewBox="-10 0 832 1000">
  <g transform="matrix(1 0 0 -1 0 800)">
   <path fill="currentColor"
d="M383 681h-217l-23 -90h-19l27 107h253l-4 -17l-240 -351h-23zM683 698h21l-581 -698h-21zM575 -6q-53 0 -80.5 22.5t-27.5 61.5t26.5 70.5t77.5 41.5l1 3q-29 8 -42 26t-13 41q0 22 9.5 42.5t27.5 36.5t44 25.5t59 9.5q45 0 71 -21.5t26 -57.5q0 -17 -6 -33.5t-18 -31
t-29 -25t-39 -14.5l-1 -3q26 -6 42 -24.5t16 -50.5q0 -26 -11.5 -48t-31.5 -37.5t-46 -24.5t-55 -9zM576 10q19 0 38.5 5t36 15t28.5 24.5t17 33.5q4 15 4 25q0 35 -23.5 52t-66.5 17q-19 0 -38.5 -5t-36 -15t-29 -24.5t-16.5 -33.5q-4 -15 -4 -25q0 -35 23.5 -52t66.5 -17z
M618 197q41 0 72.5 19t39.5 50q3 12 4 18t1 11q0 29 -20 46t-62 17q-41 0 -72.5 -19t-39.5 -50q-3 -12 -4 -18t-1 -11q0 -29 20 -46t62 -17z" />
  </g>

</svg>
