<?xml version="1.0" standalone="no"?>
<!DOCTYPE svg PUBLIC "-//W3C//DTD SVG 1.1//EN" "http://www.w3.org/Graphics/SVG/1.1/DTD/svg11.dtd" >
<svg xmlns="http://www.w3.org/2000/svg" xmlns:xlink="http://www.w3.org/1999/xlink" version="1.1" viewBox="-13 0 786 1000">
  <g transform="matrix(1 0 0 -1 0 800)">
   <path fill="currentColor"
d="M532 -12q-58 0 -96.5 23t-53.5 71l-78 252q-8 -1 -16.5 -1.5t-17.5 -0.5h-89l-78 -314h80l-4 -18h-182l4 18h80l165 662h-80l4 18h190q71 0 105.5 -33t34.5 -91q0 -41 -11 -80t-33 -70.5t-55 -54.5t-76 -32l76 -246q14 -46 49 -65.5t80 -19.5q63 0 98.5 29t35.5 81
q0 27 -13 50t-48 58q-39 37 -53 63.5t-14 58.5q0 60 39 94t105 34q35 0 55.5 -11.5t20.5 -33.5q0 -11 -7.5 -18.5t-18.5 -7.5q-12 0 -18.5 7.5t-6.5 16.5t6 16.5t14 11.5v3q-6 2 -16 3t-22 1q-62 0 -95.5 -30t-33.5 -85q0 -14 3 -26.5t9.5 -25t18.5 -26.5t30 -32
q38 -38 52 -63.5t15 -56.5q-1 -61 -41.5 -95t-112.5 -34zM186 350h87q42 0 74.5 12t56.5 32.5t39.5 47t22.5 56.5q4 18 6.5 29.5t3.5 19.5t1.5 15t0.5 15q0 22 -6.5 41t-20.5 32.5t-37 21.5t-57 8h-89z" />
  </g>

</svg>
