<?xml version="1.0" standalone="no"?>
<!DOCTYPE svg PUBLIC "-//W3C//DTD SVG 1.1//EN" "http://www.w3.org/Graphics/SVG/1.1/DTD/svg11.dtd" >
<svg xmlns="http://www.w3.org/2000/svg" xmlns:xlink="http://www.w3.org/1999/xlink" version="1.1" viewBox="-10 0 373 1000">
  <g transform="matrix(1 0 0 -1 0 800)">
   <path fill="currentColor"
d="M207 324q-51 0 -80 25.5t-29 73.5q0 36 17 80.5t49.5 86t79.5 73.5t107 41l2 -12q-47 -10 -82 -29.5t-62 -46t-46.5 -58.5t-35.5 -67l2 -1q23 33 48.5 47t64.5 14q49 0 76.5 -25.5t27.5 -67.5q0 -63 -39 -98.5t-100 -35.5zM206 340q43 0 77 22t40 62q3 18 3.5 24t0.5 11
q0 37 -24.5 56.5t-63.5 19.5q-43 0 -77 -22t-40 -62q-3 -18 -3.5 -24t-0.5 -11q0 -37 24.5 -56.5t63.5 -19.5z" />
  </g>

</svg>
