<?xml version="1.0" standalone="no"?>
<!DOCTYPE svg PUBLIC "-//W3C//DTD SVG 1.1//EN" "http://www.w3.org/Graphics/SVG/1.1/DTD/svg11.dtd" >
<svg xmlns="http://www.w3.org/2000/svg" xmlns:xlink="http://www.w3.org/1999/xlink" version="1.1" viewBox="-10 0 837 1000">
  <g transform="matrix(1 0 0 -1 0 800)">
   <path fill="currentColor"
d="M67 350l153 114q50 37 76.5 67t35.5 59q3 10 4 18.5t1 16.5q0 31 -21 47t-66 16q-27 0 -51 -6t-42 -19v-2q24 -6 24 -27q0 -22 -22 -22q-11 0 -17.5 6.5t-6.5 18.5q0 11 8 23t23.5 21.5t37.5 16t50 6.5q49 0 75.5 -21t26.5 -55q0 -45 -31 -87t-96 -89l-142 -102l-1 -3
h208l17 68h19l-21 -85h-247zM744 698h21l-581 -698h-21zM607 -6q-26 0 -46 6t-33.5 15t-20.5 19.5t-7 20.5q0 13 7 21.5t19 8.5q22 0 22 -20q0 -10 -8 -18t-22 -11v-2q17 -14 40 -19t45 -5q52 0 83 23t44 64q3 8 4.5 19t1.5 21q0 30 -19.5 49t-54.5 19q-34 0 -59 -10.5
t-48 -28.5l-17 2l63 200h200l-5 -17h-184l-56 -175h2q20 20 48 32.5t60 12.5q39 0 64 -22.5t25 -58.5q0 -35 -12.5 -62.5t-33 -46t-47 -28t-55.5 -9.5z" />
  </g>

</svg>
