<?xml version="1.0" standalone="no"?>
<!DOCTYPE svg PUBLIC "-//W3C//DTD SVG 1.1//EN" "http://www.w3.org/Graphics/SVG/1.1/DTD/svg11.dtd" >
<svg xmlns="http://www.w3.org/2000/svg" xmlns:xlink="http://www.w3.org/1999/xlink" version="1.1" viewBox="-10 0 604 1000">
  <g transform="matrix(1 0 0 -1 0 800)">
   <path fill="currentColor"
d="M51 25h83v648h-83v25h475v-153h-33v128h-322v-295h247v83h30v-191h-30v83h-247v-328h330v130h33v-155h-483v25zM313 777q-28 0 -47.5 9t-34.5 25t-27 38.5t-24 48.5l17 9l16 -30q12 -21 22.5 -34.5t22 -22t25 -11.5t30.5 -3q34 0 55.5 14.5t44.5 56.5l16 30l17 -9
q-12 -26 -24 -48.5t-27 -38.5t-34.5 -25t-47.5 -9z" />
  </g>

</svg>
