<?xml version="1.0" standalone="no"?>
<!DOCTYPE svg PUBLIC "-//W3C//DTD SVG 1.1//EN" "http://www.w3.org/Graphics/SVG/1.1/DTD/svg11.dtd" >
<svg xmlns="http://www.w3.org/2000/svg" xmlns:xlink="http://www.w3.org/1999/xlink" version="1.1" viewBox="-10 0 676 1000">
  <g transform="matrix(1 0 0 -1 0 800)">
   <path fill="currentColor"
d="M51 25h83v648h-83v25h320q88 0 134.5 -48.5t46.5 -134.5q0 -81 -44 -130.5t-130 -52.5l130 -241q34 -66 102 -66h21v-25h-36q-45 0 -73.5 20t-48.5 58l-133 251h-169v-304h83v-25h-203v25zM171 354h198q35 0 62 11.5t45 31t27 44.5t9 53v40q0 27 -9 52.5t-27 44.5
t-45 30.5t-62 11.5h-198v-319zM171 918l15 12l127 -120l127 120l15 -12l-126 -137h-32z" />
  </g>

</svg>
