<?xml version="1.0" standalone="no"?>
<!DOCTYPE svg PUBLIC "-//W3C//DTD SVG 1.1//EN" "http://www.w3.org/Graphics/SVG/1.1/DTD/svg11.dtd" >
<svg xmlns="http://www.w3.org/2000/svg" xmlns:xlink="http://www.w3.org/1999/xlink" version="1.1" viewBox="-10 0 726 1000">
  <g transform="matrix(1 0 0 -1 0 800)">
   <path fill="currentColor"
d="M360 -12q-66 0 -111 15t-72.5 48.5t-40 87t-12.5 131.5v403h-83v25h203v-25h-83v-409q0 -67 9.5 -114t33 -77t62 -43.5t96.5 -13.5t96.5 13.5t61.5 43.5t32.5 77t9.5 114v409h-83v25h196v-25h-83v-400q0 -77 -12 -131.5t-39 -88.5t-71.5 -49.5t-109.5 -15.5zM362 785
q32 0 49.5 18t17.5 50v14q0 32 -17.5 50t-49.5 18t-49.5 -18t-17.5 -50v-14q0 -32 17.5 -50t49.5 -18zM362 764q-43 0 -69.5 27t-26.5 69t26.5 69t69.5 27t69.5 -27t26.5 -69t-26.5 -69t-69.5 -27z" />
  </g>

</svg>
