<?xml version="1.0" standalone="no"?>
<!DOCTYPE svg PUBLIC "-//W3C//DTD SVG 1.1//EN" "http://www.w3.org/Graphics/SVG/1.1/DTD/svg11.dtd" >
<svg xmlns="http://www.w3.org/2000/svg" xmlns:xlink="http://www.w3.org/1999/xlink" version="1.1" viewBox="-10 0 593 1000">
  <g transform="matrix(1 0 0 -1 0 800)">
   <path fill="currentColor"
d="M485 -203q-35 0 -58.5 17t-23.5 52q0 30 23.5 60t86.5 68l-1 3q-15 -5 -25 -5q-28 0 -40 11.5t-12 39.5v40h-4q-17 -37 -56.5 -66t-105.5 -29q-99 0 -155 66.5t-56 199.5t56 199.5t155 66.5q66 0 106 -28.5t56 -66.5h4l14 83h20v-487h80v-18l-14 -9q-52 -35 -76 -63.5
t-24 -60.5q0 -27 15 -39t41 -12q22 0 35.5 7.5t21.5 16.5l14 -12q-10 -14 -29 -24t-48 -10zM275 15q31 0 60 9t51 25.5t35 40t13 52.5v224q0 29 -13 52.5t-35 40t-51 25.5t-60 9q-86 0 -132.5 -57t-46.5 -154v-56q0 -97 46.5 -154t132.5 -57z" />
  </g>

</svg>
