<?xml version="1.0" standalone="no"?>
<!DOCTYPE svg PUBLIC "-//W3C//DTD SVG 1.1//EN" "http://www.w3.org/Graphics/SVG/1.1/DTD/svg11.dtd" >
<svg xmlns="http://www.w3.org/2000/svg" xmlns:xlink="http://www.w3.org/1999/xlink" version="1.1" viewBox="-10 0 388 1000">
  <g transform="matrix(1 0 0 -1 0 800)">
   <path fill="currentColor"
d="M73 445l30 40l65 73l11 -9l-49 -84l-30 -40zM67 596l-48 15l11 32l47 -15l90 -40l-5 -14zM172 697v50h34v-50l-9 -97h-16zM211 588l90 40l47 15l11 -32l-48 -15l-95 -22zM248 465l-49 84l11 9l65 -73l30 -40l-27 -20z" />
  </g>

</svg>
