<?xml version="1.0" standalone="no"?>
<!DOCTYPE svg PUBLIC "-//W3C//DTD SVG 1.1//EN" "http://www.w3.org/Graphics/SVG/1.1/DTD/svg11.dtd" >
<svg xmlns="http://www.w3.org/2000/svg" xmlns:xlink="http://www.w3.org/1999/xlink" version="1.1" viewBox="-10 0 784 1000">
  <g transform="matrix(1 0 0 -1 0 800)">
   <path fill="currentColor"
d="M393 151q-72 0 -114.5 50t-42.5 145t43.5 145.5t114.5 50.5q48 0 80.5 -19t32.5 -45q0 -14 -7.5 -21.5t-19.5 -7.5q-13 0 -19.5 6.5t-6.5 17.5q0 21 24 27v2q-30 19 -83 19q-59 0 -93 -42.5t-34 -111.5v-37q0 -71 33.5 -113t93.5 -42q47 0 73.5 20.5t40.5 46.5l14 -8
q-7 -15 -17.5 -29.5t-26.5 -26.5t-37 -19.5t-49 -7.5zM387 13q66 0 120 23.5t92.5 65.5t59.5 99t21 124v48q0 67 -21 124t-59.5 99t-92.5 65.5t-120 23.5t-120 -23.5t-92.5 -65.5t-59.5 -99t-21 -124v-48q0 -67 21 -124t59.5 -99t92.5 -65.5t120 -23.5zM387 -12
q-71 0 -130.5 25.5t-102.5 72.5t-67 113.5t-24 149.5q0 82 24 149t67 114t102.5 72.5t130.5 25.5t130.5 -25.5t102.5 -72.5t67 -114t24 -149q0 -83 -24 -149.5t-67 -113.5t-102.5 -72.5t-130.5 -25.5z" />
  </g>

</svg>
