<?xml version="1.0" standalone="no"?>
<!DOCTYPE svg PUBLIC "-//W3C//DTD SVG 1.1//EN" "http://www.w3.org/Graphics/SVG/1.1/DTD/svg11.dtd" >
<svg xmlns="http://www.w3.org/2000/svg" xmlns:xlink="http://www.w3.org/1999/xlink" version="1.1" viewBox="-10 0 610 1000">
  <g transform="matrix(1 0 0 -1 0 800)">
   <path fill="currentColor"
d="M300 80q-20 0 -30 9.5t-10 24.5v8q0 15 10 24.5t30 9.5t30 -9.5t10 -24.5v-8q0 -15 -10 -24.5t-30 -9.5zM300 455q-20 0 -30 9.5t-10 24.5v8q0 15 10 24.5t30 9.5t30 -9.5t10 -24.5v-8q0 -15 -10 -24.5t-30 -9.5zM63 318h474v-25h-474v25z" />
  </g>

</svg>
