<?xml version="1.0" standalone="no"?>
<!DOCTYPE svg PUBLIC "-//W3C//DTD SVG 1.1//EN" "http://www.w3.org/Graphics/SVG/1.1/DTD/svg11.dtd" >
<svg xmlns="http://www.w3.org/2000/svg" xmlns:xlink="http://www.w3.org/1999/xlink" version="1.1" viewBox="-10 0 613 1000">
  <g transform="matrix(1 0 0 -1 0 800)">
   <path fill="currentColor"
d="M48 25h83v458h-83v25h83v60q0 49 15.5 85.5t42.5 60t64.5 35t82.5 11.5q76 0 115 -22t39 -50q0 -15 -9 -24t-23 -9q-32 0 -32 31q0 11 6.5 19t17.5 12v2q-23 11 -49.5 15.5t-64.5 4.5q-37 0 -68.5 -10t-54 -30.5t-35 -51.5t-12.5 -73v-66h203l116 9v-492h83v-25h-201v25
h83v458h-284v-458h97v-25h-215v25z" />
  </g>

</svg>
