<?xml version="1.0" standalone="no"?>
<!DOCTYPE svg PUBLIC "-//W3C//DTD SVG 1.1//EN" "http://www.w3.org/Graphics/SVG/1.1/DTD/svg11.dtd" >
<svg xmlns="http://www.w3.org/2000/svg" xmlns:xlink="http://www.w3.org/1999/xlink" version="1.1" viewBox="-10 0 610 1000">
  <g transform="matrix(1 0 0 -1 0 800)">
   <path fill="currentColor"
d="M48 25h83v458h-83v25h83v61q0 51 15.5 87.5t43 59.5t67 33.5t87.5 10.5q33 0 57.5 -3t41.5 -8l43 6v-730h83v-25h-201v25h83v698q-22 7 -46 10.5t-59 3.5q-42 0 -75 -8.5t-56.5 -27.5t-36 -49.5t-12.5 -74.5v-69h107v-25h-107v-458h98v-25h-216v25z" />
  </g>

</svg>
