<?xml version="1.0" standalone="no"?>
<!DOCTYPE svg PUBLIC "-//W3C//DTD SVG 1.1//EN" "http://www.w3.org/Graphics/SVG/1.1/DTD/svg11.dtd" >
<svg xmlns="http://www.w3.org/2000/svg" xmlns:xlink="http://www.w3.org/1999/xlink" version="1.1" viewBox="-10 0 556 1000">
  <g transform="matrix(1 0 0 -1 0 800)">
   <path fill="currentColor"
d="M273 13q87 0 132.5 57t45.5 152v64q0 95 -45.5 152t-132.5 57t-132.5 -57t-45.5 -152v-64q0 -95 45.5 -152t132.5 -57zM273 -12q-102 0 -159.5 67.5t-57.5 198.5t57.5 198.5t159.5 67.5t159.5 -67.5t57.5 -198.5t-57.5 -198.5t-159.5 -67.5zM343 627q-18 0 -35.5 7
t-40.5 22q-21 13 -37.5 19.5t-30.5 6.5q-17 0 -31.5 -8t-31.5 -25l-12 13q20 23 39 34.5t42 11.5q18 0 35.5 -7t40.5 -22q21 -13 37.5 -19.5t30.5 -6.5q17 0 31.5 8t31.5 25l12 -13q-20 -23 -39 -34.5t-42 -11.5z" />
  </g>

</svg>
