<?xml version="1.0" standalone="no"?>
<!DOCTYPE svg PUBLIC "-//W3C//DTD SVG 1.1//EN" "http://www.w3.org/Graphics/SVG/1.1/DTD/svg11.dtd" >
<svg xmlns="http://www.w3.org/2000/svg" xmlns:xlink="http://www.w3.org/1999/xlink" version="1.1" viewBox="-10 0 602 1000">
  <g transform="matrix(1 0 0 -1 0 800)">
   <path fill="currentColor"
d="M279 -12q-51 0 -89.5 10t-65 25.5t-40 35t-13.5 38.5q0 18 10 29.5t27 11.5t26.5 -11t9.5 -26t-9 -26t-23 -15v-2q20 -20 62.5 -32.5t97.5 -12.5q103 0 158.5 42t55.5 116v28q0 69 -46 106t-133 37h-98v25h94q88 0 128 41.5t40 108.5v27q0 65 -45.5 103t-131.5 38
q-39 0 -71 -9.5t-55.5 -26.5t-36 -39.5t-12.5 -47.5v-71h-33v207h33v-71h3q7 14 21.5 28.5t36.5 26.5t51.5 20t67.5 8q100 0 156.5 -46.5t56.5 -131.5q0 -75 -37 -119t-103 -56v-2q33 -5 61.5 -17t49 -32.5t32 -50.5t11.5 -69q0 -48 -17.5 -84.5t-49.5 -62t-77.5 -38.5
t-102.5 -13zM206 813q-15 0 -22 9t-7 20v3q0 11 7 20t22 9t22 -9t7 -20v-3q0 -11 -7 -20t-22 -9zM388 813q-15 0 -22 9t-7 20v3q0 11 7 20t22 9t22 -9t7 -20v-3q0 -11 -7 -20t-22 -9z" />
  </g>

</svg>
