<?xml version="1.0" standalone="no"?>
<!DOCTYPE svg PUBLIC "-//W3C//DTD SVG 1.1//EN" "http://www.w3.org/Graphics/SVG/1.1/DTD/svg11.dtd" >
<svg xmlns="http://www.w3.org/2000/svg" xmlns:xlink="http://www.w3.org/1999/xlink" version="1.1" viewBox="-10 0 957 1000">
  <g transform="matrix(1 0 0 -1 0 800)">
   <path fill="currentColor"
d="M14 25h73l205 313q9 14 15 19t12 7l-117 225q-21 41 -39.5 61.5t-35.5 28.5l-3 -1q6 -8 6 -19q0 -14 -9 -24.5t-26 -10.5q-16 0 -26 10.5t-10 28.5q0 19 12 30.5t37 11.5q35 0 62.5 -23t56.5 -80l117 -225h111v296h-83v25h203v-25h-83v-296h111l117 225q29 57 56.5 80
t62.5 23q25 0 37 -11.5t12 -30.5q0 -18 -10 -28.5t-26 -10.5q-17 0 -26 10.5t-9 24.5q0 11 6 19l-3 1q-17 -8 -35.5 -28.5t-39.5 -61.5l-117 -225q7 -2 12.5 -7t14.5 -19l205 -313h73v-25h-100l-230 352h-111v-327h83v-25h-203v25h83v327h-111l-230 -352h-100v25zM473 782
q-30 0 -54.5 7.5t-42.5 20t-27.5 28t-9.5 31.5q0 32 29 32t29 -30q0 -24 -29 -29v-2q17 -19 46 -26.5t59 -7.5t59 7.5t46 26.5v2q-29 5 -29 29q0 30 29 30t29 -32q0 -16 -9.5 -31.5t-27.5 -28t-42.5 -20t-54.5 -7.5z" />
  </g>

</svg>
