<?xml version="1.0" standalone="no"?>
<!DOCTYPE svg PUBLIC "-//W3C//DTD SVG 1.1//EN" "http://www.w3.org/Graphics/SVG/1.1/DTD/svg11.dtd" >
<svg xmlns="http://www.w3.org/2000/svg" xmlns:xlink="http://www.w3.org/1999/xlink" version="1.1" viewBox="-10 0 868 1000">
  <g transform="matrix(1 0 0 -1 0 800)">
   <path fill="currentColor"
d="M222 25h83v648h-228v-128h-33v153h559v-153h-33v128h-228v-288h3q33 16 77 27t103 11q116 0 167.5 -52.5t51.5 -165.5v-180h83v-25h-203v25h83v179q0 54 -11.5 91t-35 59.5t-59.5 32.5t-84 10q-57 0 -101 -11t-74 -28v-333h83v-25h-203v25z" />
  </g>

</svg>
