<?xml version="1.0" standalone="no"?>
<!DOCTYPE svg PUBLIC "-//W3C//DTD SVG 1.1//EN" "http://www.w3.org/Graphics/SVG/1.1/DTD/svg11.dtd" >
<svg xmlns="http://www.w3.org/2000/svg" xmlns:xlink="http://www.w3.org/1999/xlink" version="1.1" viewBox="-10 0 824 1000">
  <g transform="matrix(1 0 0 -1 0 800)">
   <path fill="currentColor"
d="M42 25h83v458h-83v25h201v-25h-83v-206h281v206h-82v25h200v-25h-83v-199h167q69 0 103 -38t34 -104t-34 -104t-103 -38h-285v25h83v227h-281v-227h83v-25h-201v25zM640 25q53 0 77.5 29.5t24.5 69.5v36q0 40 -24.5 69.5t-77.5 29.5h-164v-234h164z" />
  </g>

</svg>
