<?xml version="1.0" standalone="no"?>
<!DOCTYPE svg PUBLIC "-//W3C//DTD SVG 1.1//EN" "http://www.w3.org/Graphics/SVG/1.1/DTD/svg11.dtd" >
<svg xmlns="http://www.w3.org/2000/svg" xmlns:xlink="http://www.w3.org/1999/xlink" version="1.1" viewBox="-10 0 1010 1000">
  <g transform="matrix(1 0 0 -1 0 800)">
   <path fill="currentColor"
d="M51 25h83v648h-83v25h203v-25h-83v-296h376v296h-83v25h203v-25h-83v-290h190q89 0 135 -50.5t46 -140.5q0 -91 -46 -141.5t-135 -50.5h-310v25h83v327h-376v-327h83v-25h-203v25zM773 25q36 0 62.5 11.5t44.5 31.5t26.5 46t8.5 55v45q0 29 -8.5 55t-26.5 46t-44.5 31.5
t-62.5 11.5h-189v-333h189z" />
  </g>

</svg>
