<?xml version="1.0" standalone="no"?>
<!DOCTYPE svg PUBLIC "-//W3C//DTD SVG 1.1//EN" "http://www.w3.org/Graphics/SVG/1.1/DTD/svg11.dtd" >
<svg xmlns="http://www.w3.org/2000/svg" xmlns:xlink="http://www.w3.org/1999/xlink" version="1.1" viewBox="-10 0 722 1000">
  <g transform="matrix(1 0 0 -1 0 800)">
   <path fill="currentColor"
d="M356 -12q-139 0 -217 92t-78 269t78 269t217 92q50 0 92 -12h156v112h33v-97q0 -36 -37 -36h-100q72 -38 111.5 -120.5t39.5 -207.5q0 -177 -78 -269t-217 -92zM356 14q120 0 187 78.5t67 226.5v60q0 148 -67 226.5t-187 78.5t-187 -78.5t-67 -226.5v-60
q0 -148 67 -226.5t187 -78.5zM356 -140q-15 0 -22 9t-7 20v3q0 11 7 20t22 9t22 -9t7 -20v-3q0 -11 -7 -20t-22 -9z" />
  </g>

</svg>
