<?xml version="1.0" standalone="no"?>
<!DOCTYPE svg PUBLIC "-//W3C//DTD SVG 1.1//EN" "http://www.w3.org/Graphics/SVG/1.1/DTD/svg11.dtd" >
<svg xmlns="http://www.w3.org/2000/svg" xmlns:xlink="http://www.w3.org/1999/xlink" version="1.1" viewBox="-10 0 537 1000">
  <g transform="matrix(1 0 0 -1 0 800)">
   <path fill="currentColor"
d="M215 -12q-75 0 -117 37t-42 99q0 37 12 64.5t38 46t68 27.5t101 9h103v88q0 68 -36.5 102.5t-104.5 34.5q-46 0 -75 -8t-44 -19v-2q10 -5 17 -13t7 -21q0 -15 -9 -24t-24 -9q-14 0 -23 9t-9 25t12.5 31.5t34.5 27.5t53 19.5t67 7.5q78 0 123.5 -40t45.5 -116v-343h79v-18
q-10 -5 -28.5 -8t-33.5 -3q-27 0 -38.5 11.5t-11.5 39.5v44h-3q-7 -18 -19.5 -35.5t-32 -31.5t-47 -23t-63.5 -9zM223 15q33 0 61.5 9.5t49 27t32.5 41t12 51.5v105h-96q-53 0 -89 -7.5t-58 -21.5t-31.5 -35t-9.5 -48v-23q0 -44 33 -71.5t96 -27.5zM229 -140q-15 0 -22 9
t-7 20v3q0 11 7 20t22 9t22 -9t7 -20v-3q0 -11 -7 -20t-22 -9z" />
  </g>

</svg>
