<?xml version="1.0" standalone="no"?>
<!DOCTYPE svg PUBLIC "-//W3C//DTD SVG 1.1//EN" "http://www.w3.org/Graphics/SVG/1.1/DTD/svg11.dtd" >
<svg xmlns="http://www.w3.org/2000/svg" xmlns:xlink="http://www.w3.org/1999/xlink" version="1.1" viewBox="-10 0 556 1000">
  <g transform="matrix(1 0 0 -1 0 800)">
   <path fill="currentColor"
d="M273 -12q-102 0 -159.5 67.5t-57.5 198.5t57.5 198.5t159.5 67.5q42 0 77 -12h105v111h33v-96q0 -36 -37 -36h-58q47 -31 72 -89.5t25 -143.5q0 -131 -57.5 -198.5t-159.5 -67.5zM273 13q87 0 132.5 57t45.5 152v64q0 95 -45.5 152t-132.5 57t-132.5 -57t-45.5 -152v-64
q0 -95 45.5 -152t132.5 -57zM341 627q-17 0 -34 7t-40 22q-21 13 -36 19.5t-29 6.5q-18 0 -32.5 -8t-31.5 -25l-12 13q20 23 39 34.5t42 11.5q17 0 34 -7t40 -22q21 -13 36 -19.5t29 -6.5q18 0 32.5 8t31.5 25l12 -13q-20 -23 -39 -34.5t-42 -11.5z" />
  </g>

</svg>
