<?xml version="1.0" standalone="no"?>
<!DOCTYPE svg PUBLIC "-//W3C//DTD SVG 1.1//EN" "http://www.w3.org/Graphics/SVG/1.1/DTD/svg11.dtd" >
<svg xmlns="http://www.w3.org/2000/svg" xmlns:xlink="http://www.w3.org/1999/xlink" version="1.1" viewBox="-10 0 700 1000">
  <g transform="matrix(1 0 0 -1 0 800)">
   <path fill="currentColor"
d="M22 25h59l243 673h43l242 -673h59v-25h-200v25h102l-74 207h-309l-74 -207h102v-25h-193v25zM196 257h291l-144 406h-4zM342 -140q-15 0 -22 9t-7 20v3q0 11 7 20t22 9t22 -9t7 -20v-3q0 -11 -7 -20t-22 -9z" />
  </g>

</svg>
