<?xml version="1.0" standalone="no"?>
<!DOCTYPE svg PUBLIC "-//W3C//DTD SVG 1.1//EN" "http://www.w3.org/Graphics/SVG/1.1/DTD/svg11.dtd" >
<svg xmlns="http://www.w3.org/2000/svg" xmlns:xlink="http://www.w3.org/1999/xlink" version="1.1" viewBox="-10 0 632 1000">
  <g transform="matrix(1 0 0 -1 0 800)">
   <path fill="currentColor"
d="M190 35q-63 39 -96 118t-33 196q0 151 53.5 237t151.5 106l10 88h26l-10 -83q14 1 23.5 1h17.5q32 0 64 -7l10 89h26l-11 -95q50 -15 78 -41.5t28 -54.5q0 -17 -10 -28t-27 -11q-18 0 -27.5 11t-9.5 26q0 14 8 24.5t21 16.5v2q-11 9 -27 17.5t-37 14.5l-73 -633
q72 4 115 40.5t66 95.5l21 -9q-11 -31 -28.5 -58.5t-42.5 -48t-58 -33.5t-76 -16l-9 -82h-26l10 82q-29 1 -54.5 6.5t-48.5 16.5l-13 -105h-26zM395 666q-27 6 -63 6q-24 0 -43 -3l-71 -614q47 -26 104 -26zM264 663q-78 -20 -120 -91.5t-42 -190.5v-62q0 -91 24 -152.5
t69 -95.5z" />
  </g>

</svg>
