<?xml version="1.0" standalone="no"?>
<!DOCTYPE svg PUBLIC "-//W3C//DTD SVG 1.1//EN" "http://www.w3.org/Graphics/SVG/1.1/DTD/svg11.dtd" >
<svg xmlns="http://www.w3.org/2000/svg" xmlns:xlink="http://www.w3.org/1999/xlink" version="1.1" viewBox="-10 0 350 1000">
  <g transform="matrix(1 0 0 -1 0 800)">
   <path fill="currentColor"
d="M161 324q-27 0 -49 6.5t-37 16.5t-23 22.5t-8 23.5q0 30 28 30q11 0 19 -8t8 -19q0 -19 -20 -28v-2q25 -22 79 -22q51 0 76.5 24t25.5 63v14q0 40 -22 63t-71 23q-31 0 -51 -10t-36 -26l-24 3l13 200h207v-26h-187l-12 -162h3q14 18 37.5 31.5t56.5 13.5q59 0 88.5 -30.5
t29.5 -83.5q0 -54 -35 -85.5t-96 -31.5z" />
  </g>

</svg>
