<?xml version="1.0" standalone="no"?>
<!DOCTYPE svg PUBLIC "-//W3C//DTD SVG 1.1//EN" "http://www.w3.org/Graphics/SVG/1.1/DTD/svg11.dtd" >
<svg xmlns="http://www.w3.org/2000/svg" xmlns:xlink="http://www.w3.org/1999/xlink" version="1.1" viewBox="-10 0 596 1000">
  <g transform="matrix(1 0 0 -1 0 800)">
   <path fill="currentColor"
d="M279 -12q-88 0 -129 48t-41 145v295l-83 7v18l118 15v-331q0 -88 36.5 -129t108.5 -41q29 0 55.5 8t47 24t33 40t12.5 57v332l-83 7v18l118 15v-484l83 -7v-18l-118 -15v90h-3q-14 -37 -51 -65.5t-104 -28.5zM276 614q32 0 49.5 18t17.5 49v16q0 31 -17.5 49t-49.5 18
t-49.5 -18t-17.5 -49v-16q0 -31 17.5 -49t49.5 -18zM276 593q-43 0 -69.5 26.5t-26.5 69.5t26.5 69.5t69.5 26.5t69.5 -26.5t26.5 -69.5t-26.5 -69.5t-69.5 -26.5z" />
  </g>

</svg>
