<?xml version="1.0" standalone="no"?>
<!DOCTYPE svg PUBLIC "-//W3C//DTD SVG 1.1//EN" "http://www.w3.org/Graphics/SVG/1.1/DTD/svg11.dtd" >
<svg xmlns="http://www.w3.org/2000/svg" xmlns:xlink="http://www.w3.org/1999/xlink" version="1.1" viewBox="-43 0 592 1000">
  <g transform="matrix(1 0 0 -1 0 800)">
   <path fill="currentColor"
d="M-17 -3q-20 0 -15 13q1 5 7 10.5t17 7.5q23 5 34 14t17 30l96 304q7 25 0 30.5t-27 14.5q-7 3 -10 7.5t-3 9.5q0 6 7.5 10.5t17.5 4.5q27 0 43.5 -2t31 -4t35.5 -2q28 0 68.5 4.5t82.5 4.5q51 0 81 -12.5t42 -32.5t12 -45q0 -28 -19 -51.5t-49 -40t-64 -25.5
q-4 -1 -5.5 -3.5t2.5 -3.5q25 -4 48 -17.5t38.5 -34.5t15.5 -52q0 -40 -20.5 -67t-56 -42.5t-81 -22.5t-95.5 -7q-33 0 -72 1.5t-70 1.5q-15 0 -36 -0.5t-40.5 -1.5t-32.5 -1zM230 31q27 0 51.5 18t40 46t15.5 58q0 21 -8 35.5t-22.5 22.5t-34.5 8q-9 0 -24.5 -3.5
t-19.5 -17.5l-40 -128q-6 -18 9.5 -28.5t32.5 -10.5zM282 248q32 0 57.5 13.5t40.5 37.5t15 55q0 33 -16.5 50t-37.5 17q-17 0 -33 -6.5t-21 -21.5l-37 -120q-3 -11 7.5 -18t24.5 -7z" />
  </g>

</svg>
