<?xml version="1.0" standalone="no"?>
<!DOCTYPE svg PUBLIC "-//W3C//DTD SVG 1.1//EN" "http://www.w3.org/Graphics/SVG/1.1/DTD/svg11.dtd" >
<svg xmlns="http://www.w3.org/2000/svg" xmlns:xlink="http://www.w3.org/1999/xlink" version="1.1" viewBox="-10 0 736 1000">
  <g transform="matrix(1 0 0 -1 0 800)">
   <path fill="currentColor"
d="M282 -207q-57 0 -104.5 24t-81.5 69t-50.5 108t-11.5 141q4 102 35 197t88 169.5t140 118.5t191 44q33 0 59.5 -6t47.5 -14q19 -6 30.5 -9.5t23.5 -3.5q7 0 12.5 1.5t12.5 4.5q8 5 15 7.5t14 2.5q10 0 12 -6.5t-4 -15.5q-13 -17 -27.5 -47t-27 -62t-20.5 -58
q-2 -9 -7.5 -15.5t-15.5 -6.5q-11 0 -13.5 14.5t-1.5 38.5q1 21 -5 42t-18 39q-16 26 -39 42t-51 16q-51 0 -95 -33t-79 -90t-60.5 -128t-40.5 -149t-19 -152q-4 -50 2.5 -90.5t23 -68.5t42 -42.5t59.5 -14.5q36 1 71 20t66.5 53t57.5 82q5 10 11 17.5t14 7.5q7 0 12.5 -8.5
t1.5 -17.5q-21 -53 -49.5 -94t-63 -69.5t-74 -43t-83.5 -14.5z" />
  </g>

</svg>
