<?xml version="1.0" standalone="no"?>
<!DOCTYPE svg PUBLIC "-//W3C//DTD SVG 1.1//EN" "http://www.w3.org/Graphics/SVG/1.1/DTD/svg11.dtd" >
<svg xmlns="http://www.w3.org/2000/svg" xmlns:xlink="http://www.w3.org/1999/xlink" version="1.1" viewBox="-10 0 580 1000">
  <g transform="matrix(1 0 0 -1 0 800)">
   <path fill="currentColor"
d="M245 -13q-54 0 -100.5 25t-75 68t-28.5 97q0 64 28 115t76.5 88.5t109.5 57.5t127 20q25 0 44.5 -4t34.5 -9q14 -4 22 -7t16 -3q5 0 9.5 1.5t8.5 3.5l11 5.5t10 2.5q10 0 10 -6.5t-3 -11.5q-9 -12 -19 -31.5t-19.5 -41t-14.5 -38.5q-2 -8 -8.5 -14.5t-14.5 -6.5t-11 7.5
t-2 22.5q1 17 -1 33.5t-10 28.5q-10 14 -25.5 25t-35.5 11q-44 0 -79.5 -25.5t-60.5 -66t-38 -87.5t-13 -90q0 -44 16 -73t41.5 -43.5t53.5 -14.5q23 0 44 11t39 31t32 45q5 9 9.5 14.5t8.5 5.5q7 0 11.5 -6.5t2.5 -14.5q-4 -15 -11.5 -36t-16.5 -40.5t-17.5 -32.5
t-13.5 -14q-6 0 -9.5 3t-8.5 5q-4 3 -9.5 4.5t-15.5 1.5q-7 0 -16 -2t-21 -5t-29 -6t-38 -3zM400 533q-12 0 -13 10.5t4 21.5l73 158q9 19 17.5 27t19.5 8q10 0 24 -8.5t24.5 -19.5t10.5 -21q0 -9 -6 -18.5t-17 -20.5l-107 -120q-7 -7 -14.5 -12t-15.5 -5z" />
  </g>

</svg>
