<?xml version="1.0" standalone="no"?>
<!DOCTYPE svg PUBLIC "-//W3C//DTD SVG 1.1//EN" "http://www.w3.org/Graphics/SVG/1.1/DTD/svg11.dtd" >
<svg xmlns="http://www.w3.org/2000/svg" xmlns:xlink="http://www.w3.org/1999/xlink" version="1.1" viewBox="-10 0 999 1000">
  <g transform="matrix(1 0 0 -1 0 800)">
   <path fill="currentColor"
d="M542 -7q-34 0 -73.5 3t-72.5 5t-50 2q-20 0 -45 -1.5t-51.5 -3t-48.5 -1.5q-7 0 -12 3.5t-3 10.5q5 17 28 21q27 5 43.5 12t26 20t16.5 33l140 448q12 37 -0.5 49t-61.5 12q-35 0 -74 -11t-72.5 -30.5t-54.5 -46t-21 -57.5q0 -39 12.5 -52.5t46.5 -18.5q16 -2 25 -13
t9 -26q0 -17 -14 -33t-48 -16q-30 0 -53 17t-36 44.5t-13 56.5q0 74 51 127.5t158 82t272 28.5q24 0 50.5 -2t69.5 -2q94 0 159.5 -36t99.5 -97.5t34 -136.5q0 -79 -34 -149t-93.5 -124.5t-139 -86t-170.5 -31.5zM542 30q55 0 105 32t89 85.5t62 119.5t23 134
q0 78 -18.5 125.5t-52.5 68.5t-78 21q-23 0 -38 -4t-23 -14t-13 -26l-135 -449q-11 -35 -0.5 -55.5t33 -29t46.5 -8.5z" />
  </g>

</svg>
