<?xml version="1.0" standalone="no"?>
<!DOCTYPE svg PUBLIC "-//W3C//DTD SVG 1.1//EN" "http://www.w3.org/Graphics/SVG/1.1/DTD/svg11.dtd" >
<svg xmlns="http://www.w3.org/2000/svg" xmlns:xlink="http://www.w3.org/1999/xlink" version="1.1" viewBox="-62 0 815 1000">
  <g transform="matrix(1 0 0 -1 0 800)">
   <path fill="currentColor"
d="M306 -7q-35 0 -74 3t-72 5t-51 2q-19 0 -44.5 -1.5t-51.5 -3t-49 -1.5q-7 0 -11.5 3.5t-3.5 10.5q5 17 28 21q28 5 44.5 12t26 20t15.5 33l143 456q6 23 2 35t-18 18.5t-38 12.5q-9 2 -12.5 7.5t-1.5 13.5q2 7 9.5 11t14.5 4q35 0 75.5 -2.5t70.5 -2.5q20 0 40 1t44.5 2
t57.5 1q94 0 159 -36t99.5 -97.5t34.5 -136.5q0 -79 -34 -149t-94 -124.5t-139.5 -86t-169.5 -31.5zM306 30q54 0 104 32t89.5 85.5t62 119.5t22.5 134q0 78 -18.5 125.5t-52 68.5t-78.5 21q-23 0 -37.5 -4t-22.5 -14t-13 -26l-135 -449q-11 -35 -0.5 -55.5t33 -29
t46.5 -8.5z" />
  </g>

</svg>
