<?xml version="1.0" standalone="no"?>
<!DOCTYPE svg PUBLIC "-//W3C//DTD SVG 1.1//EN" "http://www.w3.org/Graphics/SVG/1.1/DTD/svg11.dtd" >
<svg xmlns="http://www.w3.org/2000/svg" xmlns:xlink="http://www.w3.org/1999/xlink" version="1.1" viewBox="-10 0 963 1000">
  <g transform="matrix(1 0 0 -1 0 800)">
   <path fill="currentColor"
d="M162 -200q-72 0 -101 16t-29 41q0 29 10 48.5t28 19.5q12 0 28 -13.5t34 -29.5q17 -15 34.5 -29t32.5 -14q17 0 31 18.5t29 58.5t35 104l197 640l154 -1l-87 -278q-3 -13 4 -21.5t35 -8.5h49q31 0 54.5 14.5t41.5 41.5q6 9 14 13.5t13 4.5t7.5 -5.5t-1.5 -16.5
q-12 -26 -20.5 -49.5t-15 -46t-11.5 -48.5q-3 -13 -8 -19.5t-10 -6.5q-7 0 -11.5 7.5t-4.5 16.5q0 30 -9 42t-26 12h-27.5h-36.5h-26q-17 0 -27 -7.5t-14 -20.5l-46 -150q-16 -50 -31.5 -89t-31.5 -68.5t-34 -53t-39 -43.5q-36 -35 -82.5 -57t-101.5 -22zM238 342
q-43 0 -76 19t-52 49.5t-19 65.5q0 37 20 75t61.5 70t103.5 51t147 19q29 0 70.5 -4t88.5 -9.5t94 -12.5t87.5 -12.5t68 -9.5t35.5 -4q-6 23 -14 41.5t-8 32.5q0 10 12 18.5t27.5 14.5t24.5 6q15 0 24.5 -15.5t9.5 -36.5q0 -9 -11 -28.5t-28.5 -42t-39 -42.5t-43.5 -33
t-41 -13q-42 0 -90.5 16t-100 36t-104.5 36t-106 16q-55 0 -95.5 -15.5t-68 -40.5t-41 -54t-13.5 -56q0 -31 18.5 -52.5t50.5 -21.5q7 0 14.5 8t16.5 17q7 7 16.5 13.5t20.5 6.5q18 0 29 -14t11 -32q0 -22 -28 -42t-72 -20z" />
  </g>

</svg>
