<?xml version="1.0" standalone="no"?>
<!DOCTYPE svg PUBLIC "-//W3C//DTD SVG 1.1//EN" "http://www.w3.org/Graphics/SVG/1.1/DTD/svg11.dtd" >
<svg xmlns="http://www.w3.org/2000/svg" xmlns:xlink="http://www.w3.org/1999/xlink" version="1.1" viewBox="-10 0 765 1000">
  <g transform="matrix(1 0 0 -1 0 800)">
   <path fill="currentColor"
d="M339 -14q-73 0 -131.5 24.5t-96 71.5t-48.5 113t11 148q15 66 54 124t98 102t133 69.5t160 25.5q34 0 60.5 -6.5t46.5 -13.5q18 -6 29.5 -9.5t23.5 -3.5q6 0 12 1t13 5q8 5 15 7.5t13 2.5q11 0 12.5 -7t-4.5 -15q-13 -17 -27 -45t-26 -59t-20 -56q-2 -10 -7.5 -16.5
t-15.5 -6.5q-21 0 -18 41q2 30 -1 55t-18 45q-13 19 -39.5 32.5t-56.5 13.5q-46 0 -90.5 -21.5t-84 -64t-72 -105.5t-53.5 -146q-15 -57 -9.5 -106.5t27.5 -86t57 -57.5t79 -21q38 0 64.5 25t36.5 56l33 112q3 12 0.5 21.5t-16.5 15.5q-13 5 -30 9.5t-29 6.5q-8 2 -15 7.5
t-5 14.5q2 7 10 11t17 4q22 0 50 -2.5t55 -4.5t47 -2q29 0 58.5 4t72.5 4q17 0 13 -15q-2 -9 -8.5 -13.5t-17.5 -7.5q-30 -6 -43.5 -16.5t-24.5 -30.5q-8 -16 -17.5 -38.5t-15.5 -42t-6 -26.5q0 -11 5.5 -19.5t14.5 -19.5q-8 -17 -40 -32.5t-74.5 -28.5t-86 -20t-74.5 -7z
M524 693q-28 0 -47 18.5t-19 41.5q0 38 29.5 65.5t75.5 27.5q29 0 47.5 -20t18.5 -46q0 -23 -14.5 -42.5t-38.5 -32t-52 -12.5z" />
  </g>

</svg>
