<?xml version="1.0" standalone="no"?>
<!DOCTYPE svg PUBLIC "-//W3C//DTD SVG 1.1//EN" "http://www.w3.org/Graphics/SVG/1.1/DTD/svg11.dtd" >
<svg xmlns="http://www.w3.org/2000/svg" xmlns:xlink="http://www.w3.org/1999/xlink" version="1.1" viewBox="-42 0 448 1000">
  <g transform="matrix(1 0 0 -1 0 800)">
   <path fill="currentColor"
d="M-17 -1q-7 0 -11 3t-3 10q2 8 8.5 12.5t15.5 5.5q21 4 33.5 11t19.5 29l94 304q7 22 1 31.5t-30 15.5q-7 2 -10.5 6.5t-1.5 12.5q2 7 9 10t13 3q15 0 36.5 -1t42 -2t35.5 -1t38 1t47 1.5t38 0.5q8 0 11.5 -3.5t1.5 -9.5q-2 -7 -8 -10.5t-15 -6.5q-23 -7 -34 -13.5
t-14.5 -14.5t-8.5 -21l-93 -300q-5 -19 2 -27t23 -14q7 -3 11.5 -7t2.5 -12q-2 -7 -8 -10.5t-12 -3.5q-14 0 -36.5 1t-46 1.5t-37.5 0.5t-35.5 -0.5t-42.5 -1.5t-36 -1zM335 751q10 0 14.5 -10t10.5 -31q4 -16 9 -33.5t10 -35.5t9 -34.5t6 -31.5q4 -16 -0.5 -28t-18.5 -12
q-15 0 -30 31q-6 14 -15.5 32.5t-21.5 39.5q-4 6 -12 0q-23 -21 -45.5 -40.5l-37.5 -32.5q-17 -14 -29 -22t-18 -8q-11 0 -11 12q0 6 3 13t10 16q18 21 37.5 43.5t39.5 45.5t39 45q16 18 28.5 29.5t22.5 11.5z" />
  </g>

</svg>
