<?xml version="1.0" standalone="no"?>
<!DOCTYPE svg PUBLIC "-//W3C//DTD SVG 1.1//EN" "http://www.w3.org/Graphics/SVG/1.1/DTD/svg11.dtd" >
<svg xmlns="http://www.w3.org/2000/svg" xmlns:xlink="http://www.w3.org/1999/xlink" version="1.1" viewBox="-166 0 591 1000">
  <g transform="matrix(1 0 0 -1 0 800)">
   <path fill="currentColor"
d="M-49 -145q-61 0 -84 13.5t-23 32.5q0 16 6.5 30.5t17 24t21.5 9.5q16 0 26 -8.5t18 -20.5q9 -13 19 -22t23 -9q20 0 37 26t39 94l107 348q8 22 3 32t-32 16q-7 2 -11.5 6t-1.5 13q3 8 9.5 10.5t12.5 2.5q15 0 36 -1t43 -2t35 -1q16 0 41 1t49 1.5t38 0.5q7 0 11.5 -3.5
t2.5 -9.5q-2 -7 -9 -10.5t-15 -5.5q-29 -7 -41.5 -18t-19.5 -31l-91 -293q-9 -29 -25.5 -57t-39.5 -53.5t-52 -49.5q-37 -29 -76.5 -47.5t-73.5 -18.5zM354 751q10 0 14.5 -10t10.5 -31q4 -16 9 -33.5t10 -35.5t9 -34.5t6 -31.5q4 -16 -0.5 -28t-18.5 -12q-15 0 -30 31
q-6 14 -15.5 32.5t-21.5 39.5q-4 6 -12 0q-23 -21 -45.5 -40.5l-37.5 -32.5q-17 -14 -29 -22t-18 -8q-11 0 -11 12q0 6 3 13t10 16q18 21 37.5 43.5t39.5 45.5t39 45q16 18 28.5 29.5t22.5 11.5z" />
  </g>

</svg>
