<?xml version="1.0" standalone="no"?>
<!DOCTYPE svg PUBLIC "-//W3C//DTD SVG 1.1//EN" "http://www.w3.org/Graphics/SVG/1.1/DTD/svg11.dtd" >
<svg xmlns="http://www.w3.org/2000/svg" xmlns:xlink="http://www.w3.org/1999/xlink" version="1.1" viewBox="-10 0 1479 1000">
  <g transform="matrix(1 0 0 -1 0 800)">
   <path fill="currentColor"
d="M203 -14q-70 0 -114 24t-64.5 62t-20.5 81q0 50 27.5 95.5t77.5 74t118 28.5q43 0 64.5 -19.5t21.5 -42.5q0 -22 -13 -40.5t-40 -18.5q-21 0 -30.5 7t-16.5 16q-7 8 -14.5 14.5t-22.5 6.5q-32 0 -58 -14.5t-40.5 -39.5t-14.5 -57q0 -48 19 -77t54 -42t81 -13q48 0 97 29
t98.5 80t98.5 116t98 138t97 147q26 38 6 52t-73 14q-36 0 -77.5 -7t-78.5 -21.5t-60 -37t-23 -53.5q0 -39 13 -53t46 -19q17 -2 25.5 -13t8.5 -26q0 -17 -14 -33t-47 -16q-31 0 -53.5 17t-35.5 44.5t-13 56.5q0 74 50.5 120.5t145.5 68.5t227 22q43 0 67 -15.5t33.5 -38.5
t10.5 -48l13 -338q1 -11 6.5 -13t14.5 8q55 56 107.5 120.5t99 127.5t82.5 113q13 21 23.5 36.5t17.5 27.5q9 13 21 13h48q26 0 51 2t47.5 4t38.5 2q12 0 18.5 -3t6.5 -11q0 -9 -13 -16t-39 -14q-25 -5 -41 -16t-26 -29t-18 -44q-27 -102 -51 -207t-45 -210q-7 -32 7.5 -50
t42.5 -25q9 -3 14.5 -7t3.5 -14q-2 -6 -9.5 -10t-16.5 -4q-21 0 -49.5 1t-56 2.5t-47.5 1.5q-21 0 -45.5 -1.5t-50 -3t-48.5 -1.5q-8 0 -13.5 4t-4.5 10q3 9 11 14.5t19 7.5q40 10 57.5 22.5t27.5 42.5q18 60 33 116t29 112t28 114q2 5 -1.5 5t-9.5 -7l-257 -297l-100 -135
q-5 -7 -12.5 -13.5t-13.5 -6.5q-5 0 -9.5 6t-4.5 17q0 116 -5.5 227t-12.5 224q-1 12 -8.5 9t-13.5 -16q-70 -103 -129.5 -180.5t-111.5 -132.5t-98 -89t-87.5 -49.5t-80.5 -15.5z" />
  </g>

</svg>
