<?xml version="1.0" standalone="no"?>
<!DOCTYPE svg PUBLIC "-//W3C//DTD SVG 1.1//EN" "http://www.w3.org/Graphics/SVG/1.1/DTD/svg11.dtd" >
<svg xmlns="http://www.w3.org/2000/svg" xmlns:xlink="http://www.w3.org/1999/xlink" version="1.1" viewBox="-45 0 725 1000">
  <g transform="matrix(1 0 0 -1 0 800)">
   <path fill="currentColor"
d="M224 -12q-6 0 -9 16q-9 74 -15 139.5t-13 136.5q-1 8 -5.5 6t-8.5 -10q-19 -47 -33 -87t-31 -86q-15 -40 -12 -61.5t22 -23.5q7 -1 11.5 -3.5t3.5 -9.5q-1 -4 -7.5 -6.5t-10.5 -2.5q-26 0 -36.5 1t-30.5 1q-14 0 -29 -0.5t-26.5 -1.5t-14.5 -1q-15 0 -13 10q2 5 8 7t14 4
q15 5 28.5 12t26.5 23t25 48l87 221q10 25 12 39t-9 22.5t-40 16.5q-8 2 -12.5 4t-4.5 8t7.5 7.5t15.5 1.5q13 0 39.5 -1t54.5 -1.5t44 -0.5t21 -9t5.5 -23.5t1.5 -31.5l7 -181q0 -7 3.5 -8t9.5 5q51 54 90 102.5t74 94.5q9 14 14 24t12 17q6 8 13 8h53q25 0 48.5 2.5
t40.5 2.5q7 0 11 -1.5t4 -7.5q0 -5 -8 -9.5t-25 -8.5q-23 -6 -35 -19.5t-19 -39.5q-18 -64 -31.5 -132t-29.5 -135q-4 -20 5 -31t26 -17q7 -1 10.5 -3.5t1.5 -9.5q-1 -4 -6 -6.5t-9 -2.5q-22 0 -52 2t-50 2q-12 0 -33.5 -1l-43 -2t-35.5 -1t-12 9q3 9 19 13q26 6 37 15
t17 28q12 38 20.5 73t16.5 69.5t16 70.5q1 5 -1 5t-6 -5l-137 -186l-64 -87q-3 -4 -8 -8.5t-10 -4.5z" />
  </g>

</svg>
