<?xml version="1.0" standalone="no"?>
<!DOCTYPE svg PUBLIC "-//W3C//DTD SVG 1.1//EN" "http://www.w3.org/Graphics/SVG/1.1/DTD/svg11.dtd" >
<svg xmlns="http://www.w3.org/2000/svg" xmlns:xlink="http://www.w3.org/1999/xlink" version="1.1" viewBox="-45 0 692 1000">
  <g transform="matrix(1 0 0 -1 0 800)">
   <path fill="currentColor"
d="M-22 -2q-6 0 -9.5 4t-2.5 9q3 13 22 16q19 4 41 19.5t34 44.5q10 24 24.5 66t33 97t38.5 115q3 6 5 12.5t2 10.5q0 12 -11.5 20.5t-36.5 13.5q-10 2 -15.5 6t-4.5 10q2 6 8.5 9t16.5 3q9 0 33.5 -0.5t55 -1.5t55.5 -1q10 0 15 -3.5t9 -9.5l131 -282q2 -3 4.5 -8t6.5 -5
q3 0 5 4t4 10l54 208q7 27 -0.5 39t-40.5 23q-6 2 -12 5t-4 11q2 6 9 8.5t13 2.5q27 0 39 -0.5t19.5 -1t24.5 -0.5q13 0 23.5 0.5t22.5 1t30 0.5q19 0 16 -12q-2 -7 -9 -10.5t-16 -5.5q-28 -6 -44 -17.5t-25 -38.5l-76 -238q-9 -31 -7 -48.5t8 -29.5q3 -7 8.5 -13.5
t14.5 -13.5q12 -9 6.5 -18t-19.5 -9h-90q-30 0 -48 10.5t-30 41.5l-111 256q-3 9 -7 14t-7 5t-6 -5.5t-5 -14.5l-57 -206q-11 -36 -2 -48.5t39 -20.5q7 -2 12.5 -6t2.5 -13q-1 -6 -8 -9.5t-13 -3.5q-18 0 -32.5 0.5t-27.5 0.5h-28q-22 0 -44 -1.5t-37 -1.5zM413 535
q-10 0 -14.5 10t-10.5 31q-4 16 -9 33.5t-10 35.5t-9 34.5t-6 31.5q-4 16 0.5 28t18.5 12q15 0 30 -31q6 -14 15.5 -32.5t21.5 -39.5q4 -6 12 0q23 21 45.5 40.5l37.5 32.5q17 14 29 22t18 8q11 0 11 -12q0 -6 -3 -13t-10 -16q-18 -21 -37.5 -43.5t-39.5 -45.5t-39 -45
q-16 -18 -28.5 -29.5t-22.5 -11.5z" />
  </g>

</svg>
