<?xml version="1.0" standalone="no"?>
<!DOCTYPE svg PUBLIC "-//W3C//DTD SVG 1.1//EN" "http://www.w3.org/Graphics/SVG/1.1/DTD/svg11.dtd" >
<svg xmlns="http://www.w3.org/2000/svg" xmlns:xlink="http://www.w3.org/1999/xlink" version="1.1" viewBox="-10 0 727 1000">
  <g transform="matrix(1 0 0 -1 0 800)">
   <path fill="currentColor"
d="M294 -14q-69 0 -122 32.5t-84 90.5t-31 133q0 81 31.5 156.5t87.5 135.5t131 95t163 35q69 0 122.5 -32.5t84 -90.5t30.5 -133q0 -80 -31.5 -156t-88 -136t-131.5 -95t-162 -35zM294 24q43 0 83.5 29.5t75 78.5t60.5 108.5t40.5 118.5t14.5 109q0 43 -10.5 80t-32.5 59.5
t-57 22.5q-43 0 -83 -30t-74 -79.5t-60 -109.5t-40.5 -120t-14.5 -110q0 -42 10 -78t31.5 -57.5t56.5 -21.5zM383 717q-9 0 -14.5 6t-5.5 12q0 26 11.5 44t25.5 18h266q9 0 14 -5.5t5 -12.5q0 -24 -12.5 -43t-28.5 -19h-261z" />
  </g>

</svg>
