<?xml version="1.0" standalone="no"?>
<!DOCTYPE svg PUBLIC "-//W3C//DTD SVG 1.1//EN" "http://www.w3.org/Graphics/SVG/1.1/DTD/svg11.dtd" >
<svg xmlns="http://www.w3.org/2000/svg" xmlns:xlink="http://www.w3.org/1999/xlink" version="1.1" viewBox="-41 0 620 1000">
  <g transform="matrix(1 0 0 -1 0 800)">
   <path fill="currentColor"
d="M421 -13q-37 -1 -64 15t-47 44q-9 14 -18.5 31.5t-17.5 37.5t-16 41q-5 14 -10 21t-18 7q-6 0 -13.5 -4.5t-10.5 -14.5l-32 -101q-4 -15 4 -23.5t36 -13.5q7 -1 11 -4.5t1 -10.5q-1 -5 -7 -8.5t-11 -3.5q-13 0 -37.5 0.5t-49 0.5h-38.5q-20 0 -50.5 -1t-51.5 -1
q-7 0 -9.5 5.5t-1.5 10.5q2 7 8.5 11t12.5 5q28 7 37.5 12.5t14.5 24.5l90 290q5 16 -0.5 24t-28.5 10q-7 1 -10 6t-1 11q2 7 8 10.5t13 3.5q25 0 39.5 -2t28 -4t33.5 -2q27 0 56.5 4t71.5 4q78 0 113 -25.5t35 -66.5q0 -44 -33 -76t-81 -44q-13 -2 -10 -14
q7 -29 27.5 -62.5t34.5 -56.5q7 -11 18 -20.5t22.5 -15t18.5 -6.5q5 -1 11 -6t6 -12q0 -15 -25.5 -23t-58.5 -8zM262 223q32 0 54.5 17t34.5 42t12 46q0 29 -13 43.5t-36 14.5q-13 0 -29.5 -6.5t-21.5 -23.5l-29 -101q-5 -17 5.5 -24.5t22.5 -7.5z" />
  </g>

</svg>
