<?xml version="1.0" standalone="no"?>
<!DOCTYPE svg PUBLIC "-//W3C//DTD SVG 1.1//EN" "http://www.w3.org/Graphics/SVG/1.1/DTD/svg11.dtd" >
<svg xmlns="http://www.w3.org/2000/svg" xmlns:xlink="http://www.w3.org/1999/xlink" version="1.1" viewBox="-10 0 1101 1000">
  <g transform="matrix(1 0 0 -1 0 800)">
   <path fill="currentColor"
d="M642 -13q-9 0 -21.5 6t-22.5 17t-10 25q0 17 3.5 33.5t10.5 37.5l133 429q10 31 2.5 48.5t-27 23.5t-47.5 6h-80q-15 0 -25.5 -6.5t-19 -26t-20.5 -55.5l-131 -426q-9 -30 3.5 -43.5t47.5 -23.5q9 -3 14 -7t3 -13q-2 -7 -9 -11t-15 -4q-22 0 -49.5 1.5t-54 2.5t-46.5 1
t-47 -1t-54 -2.5t-49 -1.5q-7 0 -13 3.5t-5 10.5q3 9 11 14t20 7q40 8 60.5 21t30.5 45l131 425q17 58 16 74t-18 16h-47q-35 0 -68.5 -19t-57.5 -44q-7 -8 -19.5 -20.5t-25.5 -22.5t-24 -10q-8 0 -9.5 5t-0.5 13q2 5 5.5 12.5t8.5 14.5q29 35 44.5 63.5t28.5 63.5
q4 13 11 19t16 6q10 0 21 -8.5t20 -15.5l18 -10t26.5 -8t50.5 -3h280q52 0 93.5 9.5t71.5 20.5q26 10 43.5 17.5t25.5 7.5t17 -2t9 -12q0 -12 -2.5 -21t-6.5 -19l-152 -420q-3 -7 1.5 -7t8.5 5q37 58 79 105t85 75t82 28q41 0 61.5 -26t20.5 -62q0 -53 -13.5 -101t-36.5 -91
t-51 -79q-7 -8 -26.5 -23t-44 -30t-47 -25.5t-33.5 -10.5q-13 0 -27 8t-23.5 19t-9.5 19q0 5 5 16.5t13 21.5t17 10q10 0 16 -5.5t13 -12.5q8 -7 15.5 -13t17.5 -6t22 19.5t23.5 52t20.5 69.5t14 72.5t5 61.5q0 17 -6 27t-19 10q-14 0 -33.5 -20.5t-43.5 -54.5t-49 -75
t-48.5 -83.5t-43.5 -79.5q-16 -30 -33 -43.5t-31 -13.5z" />
  </g>

</svg>
