<?xml version="1.0" standalone="no"?>
<!DOCTYPE svg PUBLIC "-//W3C//DTD SVG 1.1//EN" "http://www.w3.org/Graphics/SVG/1.1/DTD/svg11.dtd" >
<svg xmlns="http://www.w3.org/2000/svg" xmlns:xlink="http://www.w3.org/1999/xlink" version="1.1" viewBox="-10 0 859 1000">
  <g transform="matrix(1 0 0 -1 0 800)">
   <path fill="currentColor"
d="M315 -14q-64 0 -112 19t-76 55t-34.5 85.5t12.5 109.5l87 283q9 28 3.5 51t-28.5 29q-26 8 -22 22q1 7 11 11t21 4q31 0 64 -2.5t63 -2.5q28 0 67.5 2t67.5 2q26 0 22 -15q-4 -11 -20.5 -16t-34.5 -13q-18 -6 -34.5 -25t-27.5 -54l-94 -294q-17 -53 -5 -93t43.5 -62
t72.5 -22q55 0 99.5 28t77 74t49.5 100q15 43 26.5 80.5t20 65.5t12.5 42q15 59 16 92t-7.5 49t-24.5 24q-10 6 -23.5 10.5t-10.5 13.5q1 8 10 11t23 3q24 0 40 -0.5t30 -1t31 -0.5q19 0 31 1t24.5 2t31.5 1q11 0 17 -3t4 -12q-4 -13 -34 -21q-24 -6 -39 -16t-25.5 -27
t-21.5 -47q-24 -70 -44.5 -136t-43.5 -137q-26 -80 -66.5 -141t-101 -95t-147.5 -34zM301 -287q-21 0 -40 12.5t-30 31.5t-11 38q0 39 18.5 72t48.5 60.5t64.5 50t66.5 40.5h41q-33 -23 -61.5 -55.5t-45.5 -67.5t-17 -67q0 -13 8.5 -21.5t24.5 -8.5q13 0 29 11.5t28 28.5
l5 5t6.5 5t6.5 0q6 -1 6 -7v-11q-2 -18 -16.5 -38t-35.5 -38.5t-46 -29.5t-50 -11z" />
  </g>

</svg>
