<?xml version="1.0" standalone="no"?>
<!DOCTYPE svg PUBLIC "-//W3C//DTD SVG 1.1//EN" "http://www.w3.org/Graphics/SVG/1.1/DTD/svg11.dtd" >
<svg xmlns="http://www.w3.org/2000/svg" xmlns:xlink="http://www.w3.org/1999/xlink" version="1.1" viewBox="-10 0 855 1000">
  <g transform="matrix(1 0 0 -1 0 800)">
   <path fill="currentColor"
d="M156 -3q-7 0 -12 3.5t-4 10.5q6 16 28 21q41 8 59.5 21.5t28.5 45.5l58 184q22 68 28.5 124t-1.5 96.5t-30 62.5t-59 22q-30 0 -58.5 -9t-52.5 -23q-8 -3 -14 -1.5t-6 10.5q0 12 16 28.5t44 32.5t62.5 27t71.5 11q43 0 71.5 -12t46 -32.5t25 -48t8.5 -59.5q0 -3 2 -3.5
t4 2.5q34 56 79.5 89.5t91.5 48.5t80 15q47 0 78 -20.5t33 -44.5q1 -11 -7.5 -14t-15.5 1q-22 12 -42.5 17.5t-40.5 5.5q-29 0 -57 -14.5t-54.5 -39.5t-49.5 -57q-20 -28 -38 -61t-32.5 -67t-24.5 -66l-63 -204q-8 -29 1.5 -43.5t44.5 -24.5q9 -3 13.5 -7t1.5 -13
q-2 -7 -8 -11t-15 -4q-21 0 -47.5 1.5t-52 2.5t-45.5 1q-31 0 -71.5 -2.5t-74.5 -2.5zM621 689q-25 0 -42.5 17t-17.5 38q0 36 27 62t67 26q26 0 42 -18.5t16 -43.5q0 -21 -13 -40t-34 -30t-45 -11zM422 689q-26 0 -42.5 17t-16.5 39q0 35 26.5 61t66.5 26q25 0 41.5 -18.5
t16.5 -43.5q0 -32 -27.5 -56.5t-64.5 -24.5z" />
  </g>

</svg>
