<?xml version="1.0" standalone="no"?>
<!DOCTYPE svg PUBLIC "-//W3C//DTD SVG 1.1//EN" "http://www.w3.org/Graphics/SVG/1.1/DTD/svg11.dtd" >
<svg xmlns="http://www.w3.org/2000/svg" xmlns:xlink="http://www.w3.org/1999/xlink" version="1.1" viewBox="-10 0 956 1000">
  <g transform="matrix(1 0 0 -1 0 800)">
   <path fill="currentColor"
d="M245 422q-17 0 -21.5 27.5t-0.5 58.5q8 49 15 97t13 95t12 91q2 21 -4 29.5t-23 13.5q-10 5 -16.5 6.5t-6.5 7.5t6 8.5t16 2.5q19 0 47 -1.5t48 -1.5q13 0 32 1t38 1.5t32 0.5q5 0 10.5 -2t3.5 -7q-1 -6 -8.5 -9.5t-14.5 -5.5q-23 -4 -32 -12t-13 -30q-9 -55 -22 -109
t-19 -110q-2 -9 1 -10t10 8l152 174q12 15 20.5 28.5t8.5 27.5t-5.5 21t-20.5 11q-11 5 -17 6.5t-6 8.5q0 5 6 7.5t16 2.5q19 0 43.5 -1.5t42.5 -1.5q14 0 34 1t41 2t34 1q16 0 16 -10q0 -6 -6.5 -9t-14.5 -5q-25 -4 -36 -12.5t-15 -28.5l-40 -216q-4 -18 11 0l136 161
q28 32 35 51.5t1 30t-18 14.5q-6 2 -11.5 5t-3.5 9q1 5 8 7t14 2q19 0 37 -1t37 -1q20 0 35 2t35 2q7 0 13 -3t6 -8q0 -6 -8.5 -8.5t-16.5 -4.5q-20 -4 -40.5 -18t-37.5 -33l-227 -266q-21 -24 -40.5 -46t-34.5 -35.5t-23 -13.5q-15 0 -21 9t-5.5 27.5t4.5 43.5
q8 51 16.5 109.5t17.5 106.5l-171 -202q-15 -18 -33.5 -40.5t-37 -39.5t-33.5 -17z" />
  </g>

</svg>
