<?xml version="1.0" standalone="no"?>
<!DOCTYPE svg PUBLIC "-//W3C//DTD SVG 1.1//EN" "http://www.w3.org/Graphics/SVG/1.1/DTD/svg11.dtd" >
<svg xmlns="http://www.w3.org/2000/svg" xmlns:xlink="http://www.w3.org/1999/xlink" version="1.1" viewBox="-10 0 1276 1000">
  <g transform="matrix(1 0 0 -1 0 800)">
   <path fill="currentColor"
d="M1043 -339q-90 0 -157 36.5t-121 112t-105 192.5t-107 278q-4 13 -12 13t-16 -10l-120 -151q-26 -34 -29 -54.5t10 -30.5t34 -15q11 -3 20 -8t9 -14q0 -7 -9 -10t-20 -3q-30 0 -49 1.5t-48 1.5t-54.5 -3.5t-56.5 -3.5q-11 0 -21 3.5t-10 12.5q0 10 10 13.5t21 7.5
q14 5 32.5 14t42.5 29t55 55l164 186q12 15 16 27t-3 33q-14 42 -27.5 85t-28.5 86q-3 15 -11 27.5t-25.5 19.5t-50.5 7q-35 0 -74 -10.5t-72.5 -30t-54.5 -46t-21 -57.5q0 -39 13 -52.5t46 -18.5q17 -2 25.5 -13t8.5 -26q0 -18 -14 -33.5t-47 -15.5q-31 0 -53.5 17
t-35.5 44t-13 57q0 74 51 127t152.5 81.5t253.5 28.5q31 0 42 -10.5t20 -36.5q18 -54 35 -106.5t33 -105.5q4 -12 12.5 -12.5t15.5 8.5l98 119q27 35 36 58t2.5 36.5t-25.5 16.5q-10 2 -19.5 7.5t-9.5 14.5q0 7 9.5 10t19.5 3q22 0 42 -1.5t43 -1.5q29 0 51 3.5t51 3.5
q11 0 21.5 -3.5t10.5 -12.5q-1 -10 -10.5 -13.5t-20.5 -6.5q-22 -7 -51 -24.5t-49 -39.5l-182 -202q-12 -14 -16.5 -26.5t2.5 -32.5q51 -140 95 -249.5t87 -185.5t90.5 -116t104.5 -40q41 0 58.5 14t17.5 38q0 17 -8.5 26t-17.5 17t-15.5 17t-6.5 23q0 26 17.5 43.5
t46.5 17.5q41 0 63 -28.5t22 -64.5q0 -34 -22 -68t-69 -56.5t-122 -22.5z" />
  </g>

</svg>
