<?xml version="1.0" standalone="no"?>
<!DOCTYPE svg PUBLIC "-//W3C//DTD SVG 1.1//EN" "http://www.w3.org/Graphics/SVG/1.1/DTD/svg11.dtd" >
<svg xmlns="http://www.w3.org/2000/svg" xmlns:xlink="http://www.w3.org/1999/xlink" version="1.1" viewBox="-26 0 536 1000">
  <g transform="matrix(1 0 0 -1 0 800)">
   <path fill="currentColor"
d="M0 -4q-10 0 -13.5 5.5t-1.5 12.5q2 5 13.5 18t25.5 28t23 25l247 279q7 7 6.5 12.5t-9.5 5.5h-28.5t-29.5 -1q-26 0 -57.5 -16t-55.5 -37q-9 -9 -21 -17.5t-24 -8.5q-7 0 -7.5 5t1.5 13q2 7 13.5 23.5t25 38t22.5 40.5q3 8 9.5 15.5t15.5 7.5q8 0 17.5 -8t20.5 -11
q16 -4 27.5 -5t31.5 0l90 3h27.5t45 0.5t45 1t29.5 0.5q8 0 10 -5t-1 -13q-1 -5 -13.5 -19t-28.5 -30.5t-30 -31.5l-221 -253q-9 -11 -12.5 -18t0.5 -10t16 -3h93q31 0 53.5 20.5t46.5 52.5q4 6 9.5 10t12.5 4q8 0 8 -6.5t-2 -12.5q-5 -17 -19.5 -42t-32.5 -55
q-4 -8 -11 -12t-18 -4q-13 0 -46.5 0.5t-76.5 1t-85 1t-71 0.5q-14 0 -26.5 -1.5t-23.5 -2.5t-20 -1z" />
  </g>

</svg>
