<?xml version="1.0" standalone="no"?>
<!DOCTYPE svg PUBLIC "-//W3C//DTD SVG 1.1//EN" "http://www.w3.org/Graphics/SVG/1.1/DTD/svg11.dtd" >
<svg xmlns="http://www.w3.org/2000/svg" xmlns:xlink="http://www.w3.org/1999/xlink" version="1.1" viewBox="-24 0 255 1000">
  <g transform="matrix(1 0 0 -1 0 800)">
   <path fill="currentColor"
d="M7 505q-7 0 -13 2.5t-7 7.5t1 9.5t12 12.5q25 20 61.5 43t65.5 40q3 2 8.5 5.5t12 6.5t12.5 6t11 4q16 0 26 -11.5t15 -24.5t6 -19q2 -3 2.5 -8t0 -9.5t-4.5 -6.5q-38 -13 -72 -24.5t-72 -18.5q-5 -2 -13 -4t-17.5 -4.5t-18.5 -4t-16 -2.5z" />
  </g>

</svg>
