<?xml version="1.0" standalone="no"?>
<!DOCTYPE svg PUBLIC "-//W3C//DTD SVG 1.1//EN" "http://www.w3.org/Graphics/SVG/1.1/DTD/svg11.dtd" >
<svg xmlns="http://www.w3.org/2000/svg" xmlns:xlink="http://www.w3.org/1999/xlink" version="1.1" viewBox="-34 0 575 1000">
  <g transform="matrix(1 0 0 -1 0 800)">
   <path fill="currentColor"
d="M38 -14q-14 0 -28.5 7.5t-24 20t-9.5 23.5q0 30 18 66.5t59 89t111 130.5q44 47 82 76t56 29q27 0 59 -26q7 -8 8 -8.5t2 -0.5q2 0 2.5 0.5t3.5 6.5q7 14 10 20.5t5 11.5q6 11 25 11q15 0 32.5 -7t29.5 -17t12 -19q0 -6 -2 -10l-100 -272q-9 -26 11 -26q11 0 35 17.5
t48 42.5l2.5 2.5t2.5 0.5q4 0 7.5 -4.5t3.5 -11.5q0 -14 -18.5 -38.5t-48.5 -49.5q-36 -30 -71 -47.5t-59 -17.5q-15 0 -30.5 8.5t-25.5 21t-10 25.5q0 6 5 23q1 5 5 15t9 21.5t10.5 23.5t9.5 23q3 6 -0.5 8.5t-6.5 -0.5q-51 -59 -92.5 -96.5t-75 -55t-62.5 -17.5zM143 92
q17 0 54 31.5t75 79.5q33 39 51.5 69.5t18.5 43.5q0 9 -20 26q-10 7 -20 12.5t-17 5.5q-15 0 -42 -18t-51 -42q-21 -20 -39 -50.5t-29 -63t-11 -59.5q0 -16 8 -25.5t22 -9.5zM349 470q12 0 13 10.5t-4 21.5l-73 158q-9 19 -17.5 27t-19.5 8q-10 0 -24 -8.5t-24.5 -19.5
t-10.5 -21q0 -9 6 -18.5t17 -20.5l107 -120q7 -7 14.5 -12t15.5 -5z" />
  </g>

</svg>
