<?xml version="1.0" standalone="no"?>
<!DOCTYPE svg PUBLIC "-//W3C//DTD SVG 1.1//EN" "http://www.w3.org/Graphics/SVG/1.1/DTD/svg11.dtd" >
<svg xmlns="http://www.w3.org/2000/svg" xmlns:xlink="http://www.w3.org/1999/xlink" version="1.1" viewBox="-10 0 946 1000">
  <g transform="matrix(1 0 0 -1 0 800)">
   <path fill="currentColor"
d="M418 -14q-94 0 -169 33.5t-119 93t-44 137.5q0 72 29.5 130t80 92.5t111.5 33.5q59 -1 87 -26.5t28 -63.5q0 -25 -14.5 -46t-39.5 -34.5t-57 -13.5q-48 0 -86 26t-60.5 72t-22.5 107q0 55 29 98t78 68.5t108 24.5q54 -1 85 -29.5t31 -76.5q0 -26 -14.5 -41.5t-38.5 -15.5
q-13 0 -26 12.5t-13 25.5q0 22 -15 39.5t-35 17.5q-38 0 -66.5 -15t-44.5 -43t-16 -67q0 -159 105 -159q30 0 46.5 15t16.5 38q0 21 -16.5 36t-47.5 15q-68 0 -106.5 -44.5t-38.5 -117.5q0 -52 29.5 -98t92.5 -74.5t165 -28.5q88 0 148.5 29t92 77.5t31.5 106.5
q0 48 -31.5 83t-97.5 34q-34 -1 -58.5 -24t-24.5 -53q0 -19 14 -31.5t37 -12.5q9 0 16.5 7.5t14.5 15.5q8 8 15 14t18 6q25 0 37 -13.5t12 -32.5q0 -31 -21.5 -50.5t-52.5 -19.5q-59 0 -96 32t-37 82q0 57 25 93.5t66 55t90 18.5h82q83 0 117.5 24t34.5 77q0 29 -17.5 43
t-35.5 14q-14 0 -21 -5t-7 -12q0 -6 4 -12t11 -10q9 -6 13.5 -15t4.5 -18q0 -18 -14.5 -34t-40.5 -16q-28 0 -43.5 19.5t-14.5 45.5q0 22 11.5 43.5t34.5 35.5t57 14q42 0 72 -30.5t30 -93.5q0 -44 -18.5 -81.5t-52 -60t-77.5 -23.5q-24 -1 -29.5 -4t-1.5 -9
q15 -25 21.5 -53.5t6.5 -59.5q0 -97 -45.5 -168.5t-126.5 -110t-185 -38.5z" />
  </g>

</svg>
