<?xml version="1.0" standalone="no"?>
<!DOCTYPE svg PUBLIC "-//W3C//DTD SVG 1.1//EN" "http://www.w3.org/Graphics/SVG/1.1/DTD/svg11.dtd" >
<svg xmlns="http://www.w3.org/2000/svg" xmlns:xlink="http://www.w3.org/1999/xlink" version="1.1" viewBox="-10 0 411 1000">
  <g transform="matrix(1 0 0 -1 0 800)">
   <path fill="currentColor"
d="M185 207q-17 0 -23.5 13.5t-3.5 31.5q2 8 4.5 17.5l5 19t5 18.5t3.5 15q-9 1 -32 -1.5t-43 -4.5q-16 -2 -28 5.5t-12 19.5q0 14 10 23t20 10q7 2 16.5 4t19 4.5t18.5 4.5t16 4q-5 9 -18.5 25.5t-25.5 33.5q-8 13 -8 25t7.5 20t19.5 8q7 0 14.5 -3.5t13.5 -10.5
q12 -14 24 -27t25 -25q6 17 13 33.5t15 33.5q5 10 13 17.5t19 7.5q15 0 22.5 -13t3.5 -31q-3 -9 -6.5 -21t-7 -25t-7.5 -24q7 0 22 3t31.5 5t26.5 2q15 0 24 -6t9 -18q0 -11 -7.5 -21.5t-20.5 -13.5q-17 -4 -34.5 -9t-35.5 -10q5 -8 19 -24t26 -31q5 -6 8 -13t3 -14
q0 -11 -7 -19t-19 -8q-6 0 -14 2.5t-15 8.5q-12 14 -25.5 26.5t-26.5 24.5q-3 -9 -11 -30.5t-17 -40.5q-4 -9 -11.5 -15.5t-17.5 -6.5z" />
  </g>

</svg>
