<?xml version="1.0" standalone="no"?>
<!DOCTYPE svg PUBLIC "-//W3C//DTD SVG 1.1//EN" "http://www.w3.org/Graphics/SVG/1.1/DTD/svg11.dtd" >
<svg xmlns="http://www.w3.org/2000/svg" xmlns:xlink="http://www.w3.org/1999/xlink" version="1.1" viewBox="-10 0 253 1000">
  <g transform="matrix(1 0 0 -1 0 800)">
   <path fill="currentColor"
d="M114 251q-6 2 -6.5 10.5t4 23.5l10.5 35q-21 1 -36.5 4t-24 8t-8.5 11q0 10 17 15.5t47 4.5q-6 30 -4 49t11 20q10 0 20 -14.5t17 -43.5q17 12 32 17.5t25 5t13 -6.5q5 -7 -6 -19.5t-37 -29.5q16 -14 25.5 -26.5t13.5 -22t-1 -14.5q-7 -7 -24.5 1t-41.5 28
q-12 -28 -24 -43.5t-22 -12.5z" />
  </g>

</svg>
