<?xml version="1.0" standalone="no"?>
<!DOCTYPE svg PUBLIC "-//W3C//DTD SVG 1.1//EN" "http://www.w3.org/Graphics/SVG/1.1/DTD/svg11.dtd" >
<svg xmlns="http://www.w3.org/2000/svg" xmlns:xlink="http://www.w3.org/1999/xlink" version="1.1" viewBox="-10 0 803 1000">
  <g transform="matrix(1 0 0 -1 0 800)">
   <path fill="currentColor"
d="M296 -154q-84 0 -148 30t-100 84.5t-36 126.5t27 139t75 124t111.5 98.5t138 65t153.5 23.5q57 0 105 -17.5t84 -48t55 -71t19 -86.5q0 -55 -23.5 -107t-64 -93.5t-92 -65.5t-106.5 -24q-23 0 -35 8t-16.5 19.5t-4.5 19.5q0 14 -4.5 11.5t-12.5 -7.5q-11 -9 -31 -21
t-47.5 -22t-58.5 -10q-53 0 -83 30t-30 75q1 51 26 98.5t69 84t100 57t118 17.5q13 -1 25.5 -2.5t24.5 -4.5q11 -3 19.5 -5.5t13.5 -3.5q10 -1 18.5 11t18.5 12q3 0 12.5 -1.5t19 -3.5t7.5 -6q-15 -22 -31 -50.5t-24 -43.5l-70 -143q-9 -19 -8.5 -36t24.5 -17
q49 0 87.5 30.5t61.5 80t23 106.5q0 51 -24 90t-71 60.5t-114 21.5q-75 0 -147.5 -29t-132 -80.5t-94.5 -117t-35 -139.5q0 -63 29 -110.5t81 -73t122 -25.5t132 18.5t111 47.5q13 8 23.5 13t18.5 5q5 0 9.5 -4.5t4.5 -11.5q0 -12 -27 -33t-73 -42.5t-103.5 -36
t-119.5 -14.5zM332 76q17 0 34.5 8t32.5 21q10 7 19.5 18t20.5 33l54 108q5 11 8 20.5t3 16.5q0 20 -15 30.5t-50 10.5t-65 -18.5t-52 -48t-34.5 -63.5t-12.5 -65q0 -32 17 -51.5t40 -19.5z" />
  </g>

</svg>
