<?xml version="1.0" standalone="no"?>
<!DOCTYPE svg PUBLIC "-//W3C//DTD SVG 1.1//EN" "http://www.w3.org/Graphics/SVG/1.1/DTD/svg11.dtd" >
<svg xmlns="http://www.w3.org/2000/svg" xmlns:xlink="http://www.w3.org/1999/xlink" version="1.1" viewBox="-10 0 547 1000">
  <g transform="matrix(1 0 0 -1 0 800)">
   <path fill="currentColor"
d="M180 -13q-57 0 -88 28.5t-31 79.5q0 20 4.5 43t13.5 51l110 350q7 25 9.5 36.5t2.5 23.5q0 10 -7.5 16.5t-26.5 12.5q-22 8 -22 16q0 7 5.5 11t21.5 10q19 6 44 13.5t50.5 14t44 10.5t24.5 4q26 0 26 -13t-2.5 -21.5t-7.5 -19.5q-10 -24 -21 -51t-23.5 -60.5t-26.5 -74.5
t-30.5 -91t-35.5 -113q-2 -8 0 -9t7 6q58 82 116 127.5t103 45.5q37 0 62 -25t25 -59q0 -49 -20.5 -100t-55.5 -98t-80 -84t-94 -58.5t-97 -21.5zM210 26q13 0 31 12.5t37.5 34t35.5 45.5q22 35 41.5 75t32 76t12.5 56q0 13 -7.5 21.5t-19.5 8.5q-21 0 -55 -27.5t-74 -82.5
q-36 -50 -56.5 -92t-20.5 -64q0 -21 13 -42t30 -21z" />
  </g>

</svg>
