<?xml version="1.0" standalone="no"?>
<!DOCTYPE svg PUBLIC "-//W3C//DTD SVG 1.1//EN" "http://www.w3.org/Graphics/SVG/1.1/DTD/svg11.dtd" >
<svg xmlns="http://www.w3.org/2000/svg" xmlns:xlink="http://www.w3.org/1999/xlink" version="1.1" viewBox="-80 0 343 1000">
  <g transform="matrix(1 0 0 -1 0 800)">
   <path fill="currentColor"
d="M104 427q38 0 71.5 -8.5t49.5 -26.5t4 -45q-8 -19 -19.5 -51t-18.5 -55q-8 -23 -5.5 -33t10.5 -14.5t18 -8.5q7 -4 12.5 -6.5t5.5 -9.5q0 -6 -10.5 -12t-18.5 -9q-13 -6 -23.5 -10t-19.5 -13.5t-15 -31.5q-7 -24 -14.5 -54.5t-12.5 -51.5q-5 -29 -32 -46.5t-65 -25.5
t-76 -8q-15 0 -15 11q0 7 11 11.5t20 5.5q30 4 49.5 13t26.5 38q2 6 5.5 24.5t7.5 38.5t9 32q6 22 23 40.5t40 30.5t49 13q3 1 -2 3q-23 5 -38.5 17t-21 29t1.5 40q3 10 11 30.5t14.5 38.5t9.5 25q9 28 -1 37t-42 15q-8 1 -15.5 3t-7.5 9t8.5 11t15.5 4z" />
  </g>

</svg>
