<?xml version="1.0" standalone="no"?>
<!DOCTYPE svg PUBLIC "-//W3C//DTD SVG 1.1//EN" "http://www.w3.org/Graphics/SVG/1.1/DTD/svg11.dtd" >
<svg xmlns="http://www.w3.org/2000/svg" xmlns:xlink="http://www.w3.org/1999/xlink" version="1.1" viewBox="-97 0 472 1000">
  <g transform="matrix(1 0 0 -1 0 800)">
   <path fill="currentColor"
d="M130 503q56 0 98.5 -13.5t61.5 -38.5t6 -59q-4 -12 -14 -30t-20.5 -39t-18.5 -39q-10 -21 -6.5 -33.5t19.5 -20.5t45 -16q9 -2 17 -8.5t5 -13.5q-2 -7 -12.5 -14t-24.5 -11q-22 -7 -44.5 -12t-38.5 -17t-19 -37q-3 -31 -6.5 -57.5t-7.5 -55.5q-6 -35 -40.5 -59.5t-86 -37
t-105.5 -12.5q-15 0 -20.5 5.5t-2.5 15.5q2 7 17.5 12t27.5 7q50 8 77.5 24.5t31.5 63.5q2 22 3 44.5t3 42.5q1 27 21.5 48.5t56.5 34t86 13.5q4 0 2.5 0.5t-3.5 1.5q-65 13 -91.5 40t-12.5 63q6 15 15.5 35t18.5 39t14 33q10 34 -0.5 46.5t-54.5 17.5q-11 1 -20 7t-7 13
q1 7 10 12t20 5z" />
  </g>

</svg>
