<?xml version="1.0" standalone="no"?>
<!DOCTYPE svg PUBLIC "-//W3C//DTD SVG 1.1//EN" "http://www.w3.org/Graphics/SVG/1.1/DTD/svg11.dtd" >
<svg xmlns="http://www.w3.org/2000/svg" xmlns:xlink="http://www.w3.org/1999/xlink" version="1.1" viewBox="-10 0 917 1000">
  <g transform="matrix(1 0 0 -1 0 800)">
   <path fill="currentColor"
d="M456 -15q-9 0 -21.5 6t-22.5 17t-10 25q0 17 3 33.5t10 38.5l142 463q-29 0 -53.5 3.5t-52.5 7t-68 3.5q-53 0 -75.5 -21t-22.5 -62q0 -20 3 -35t8 -30.5t9 -37.5l-21 -20q-22 37 -38 74t-16 76q0 60 36 100t101 40q40 0 74.5 -11.5t68.5 -23.5t69 -12q14 31 42.5 49.5
t64.5 18.5q30 0 41.5 -12.5t11.5 -29.5q0 -11 -6.5 -24.5t-19.5 -26t-34 -21.5l-124 -344q-3 -7 1.5 -7.5t8.5 5.5q39 56 80.5 103t83.5 75.5t81 28.5q42 0 62.5 -25.5t20.5 -62.5q0 -52 -13.5 -100.5t-36.5 -91.5t-51 -78q-7 -9 -26.5 -23.5t-44 -30t-47 -26t-33.5 -10.5
q-13 0 -27 8t-24 19t-10 19q0 5 5.5 16.5t13.5 21.5t16 10q11 0 16.5 -5t13.5 -13q8 -6 15.5 -12.5t16.5 -6.5q11 0 23 20t23.5 52t20.5 69t14 72.5t5 62.5q0 16 -6 26t-19 10q-14 0 -33.5 -20.5t-43.5 -54t-49 -75t-48.5 -84t-43.5 -78.5q-16 -30 -33 -44t-31 -14zM144 -14
q-37 0 -67.5 18.5t-49 49t-17.5 68.5q1 48 15 94t38.5 85.5t57.5 69t73.5 46t86.5 16.5q38 0 62 -17t24 -43q0 -19 -13 -37.5t-28 -18.5q-8 0 -14 6t-16 24t-22.5 30.5t-25.5 12.5q-21 0 -41.5 -19t-37 -50.5t-26.5 -69.5t-11 -77q-1 -37 18 -57.5t52 -20.5q27 0 50.5 12.5
t40.5 33.5q4 6 9.5 9t9.5 3q10 0 10 -11q0 -24 -16 -51.5t-42.5 -51.5t-57.5 -39t-62 -15z" />
  </g>

</svg>
