<?xml version="1.0" standalone="no"?>
<!DOCTYPE svg PUBLIC "-//W3C//DTD SVG 1.1//EN" "http://www.w3.org/Graphics/SVG/1.1/DTD/svg11.dtd" >
<svg xmlns="http://www.w3.org/2000/svg" xmlns:xlink="http://www.w3.org/1999/xlink" version="1.1" viewBox="-10 0 774 1000">
  <g transform="matrix(1 0 0 -1 0 800)">
   <path fill="currentColor"
d="M275 376q-21 37 -37 74t-16 76q0 60 36 100t101 40q40 0 81.5 -11.5t82 -23.5t75.5 -12q14 31 40.5 49.5t62.5 18.5q29 0 41 -12.5t12 -29.5q0 -18 -16.5 -40t-50.5 -36l-52 -156l-108 5l55 149q-46 0 -96 7.5t-111 7.5q-53 0 -76 -21t-23 -62q0 -20 3.5 -35t8.5 -30.5
t8 -37.5zM144 -14q-37 0 -67.5 18.5t-49 49t-17.5 68.5q1 48 15 94t38.5 85.5t57.5 69t73.5 46t86.5 16.5q38 0 62 -17t24 -43q0 -19 -13 -36.5t-27 -17.5q-8 0 -14.5 6.5t-17.5 23.5q-10 17 -22.5 26.5t-24.5 9.5q-21 0 -41.5 -18t-37 -48.5t-26.5 -68t-11 -76.5
q-1 -37 18 -57.5t52 -20.5q27 0 50.5 12.5t40.5 33.5q4 6 9.5 9t9.5 3q10 0 10 -11q0 -24 -16 -51.5t-42.5 -51.5t-57.5 -39t-62 -15zM450 -14q-15 0 -29.5 10t-23.5 24.5t-9 25.5q0 7 2 15.5t9 25.5l94 252q6 17 1.5 22.5t-12.5 5.5l-48 2q-17 1 -20.5 7.5t-3.5 12.5
q0 2 6.5 10.5t17.5 16t24 7.5h48q15 0 20 4.5t13 20.5l28 56q8 15 21.5 29t28.5 24t27 10q16 0 20.5 -15t-0.5 -31l-22 -77q-4 -15 0 -19t14 -4q14 0 29.5 -1.5t33.5 -3.5q23 -3 27 -8t4 -13q0 -3 -5.5 -10t-21.5 -9q-13 -1 -27 -2.5t-32 -2.5q-19 -1 -28.5 -5t-13.5 -14
l-74 -207q-8 -21 -8 -31.5t5 -13t10 -2.5q12 0 31 13.5t38.5 30.5t32.5 30q2 2 4.5 3t3.5 0q5 -2 7 -7.5t1 -11.5q-3 -16 -19 -37.5t-40.5 -44.5t-53.5 -43t-57.5 -32.5t-52.5 -12.5z" />
  </g>

</svg>
