<?xml version="1.0" standalone="no"?>
<!DOCTYPE svg PUBLIC "-//W3C//DTD SVG 1.1//EN" "http://www.w3.org/Graphics/SVG/1.1/DTD/svg11.dtd" >
<svg xmlns="http://www.w3.org/2000/svg" xmlns:xlink="http://www.w3.org/1999/xlink" version="1.1" viewBox="-20 0 572 1000">
  <g transform="matrix(1 0 0 -1 0 800)">
   <path fill="currentColor"
d="M208 58q-48 0 -82.5 19t-53 52.5t-18.5 75.5q0 50 23.5 98t63.5 86.5t90.5 61.5t104.5 23q52 0 85.5 -20.5t50 -54.5t16.5 -74q0 -45 -19.5 -92t-56 -86.5t-88.5 -64t-116 -24.5zM24 52q-12 0 -23.5 15t-9.5 26q2 5 11 12l77 58l34 -50l-77 -57q-4 -3 -6.5 -3.5
t-5.5 -0.5zM394 52q-8 1 -15 11l-48 65l48 36l49 -66q4 -5 4.5 -7.5t0.5 -4.5q0 -12 -13 -23t-26 -11zM226 117q40 0 75.5 16.5t64.5 43.5t45 62t16 71q0 45 -29 75t-80 30q-40 0 -76.5 -16.5t-64.5 -44.5t-44.5 -62t-16.5 -69q0 -45 29 -75.5t81 -30.5zM163 365l-56 75
q-2 4 -2 7q0 11 15.5 23.5t28.5 9.5q5 -1 8 -5l54 -74zM461 377l-37 48l70 51q4 2 7 3t6 1q15 0 26 -13t8 -26q-1 -5 -4 -9z" />
  </g>

</svg>
