<?xml version="1.0" standalone="no"?>
<!DOCTYPE svg PUBLIC "-//W3C//DTD SVG 1.1//EN" "http://www.w3.org/Graphics/SVG/1.1/DTD/svg11.dtd" >
<svg xmlns="http://www.w3.org/2000/svg" xmlns:xlink="http://www.w3.org/1999/xlink" version="1.1" viewBox="-10 0 544 1000">
  <g transform="matrix(1 0 0 -1 0 800)">
   <path fill="currentColor"
d="M137 -132q-12 0 -14 15t4 36q25 82 39.5 152.5t22.5 124t12 84.5q2 14 3 23t2 13q3 14 17.5 22.5t30 19.5t19.5 33q2 7 -0.5 12t-16.5 5q-27 0 -46 -7t-37 -14.5t-43 -7.5q-23 0 -31.5 14.5t-3.5 35.5q13 50 61 50q21 0 34 -4.5t24.5 -10.5t26.5 -10t40 -4q5 0 10.5 3
t8.5 12q8 23 9 40.5t-0.5 32.5t0 32.5t8.5 41.5q8 25 24.5 36t39.5 11q20 0 31 -11.5t3 -35.5q-9 -31 -23 -53t-27.5 -43t-22.5 -52q-5 -14 7 -14q32 0 53 7.5t39.5 14.5t43.5 7t33.5 -13t3.5 -37t-20 -37t-42 -13t-42.5 7.5t-30.5 14.5t-42 7q-7 0 -15 -5t-10 -16
q-4 -19 3 -30.5t14.5 -21.5t1.5 -23q-1 -4 -6 -13t-13 -26q-15 -31 -39.5 -83.5t-52.5 -121t-52 -148.5q-5 -16 -14 -34t-25 -18z" />
  </g>

</svg>
