<?xml version="1.0" standalone="no"?>
<!DOCTYPE svg PUBLIC "-//W3C//DTD SVG 1.1//EN" "http://www.w3.org/Graphics/SVG/1.1/DTD/svg11.dtd" >
<svg xmlns="http://www.w3.org/2000/svg" xmlns:xlink="http://www.w3.org/1999/xlink" version="1.1" viewBox="-27 0 669 1000">
  <g transform="matrix(1 0 0 -1 0 800)">
   <path fill="currentColor"
d="M228 -14q-37 0 -70 4.5t-61 15.5q-15 6 -25 9.5t-14 3.5q-6 0 -13 -2.5t-12 -4.5l-14 -8t-12 -4t-14.5 8t-9.5 15q0 8 11.5 32t25 59t18.5 73q3 18 8 25.5t17 7.5q14 0 17 -15.5t3 -47.5t14.5 -63.5t43 -51.5t71.5 -20q42 0 72.5 16t46.5 42.5t16 56.5q0 22 -8.5 41
t-31.5 43.5t-66 60.5q-51 44 -76 84.5t-25 101.5q0 56 32 100t88 70t128 26q36 0 66 -6t51 -13q21 -6 33.5 -9.5t24.5 -3.5q16 0 26 6q7 4 14.5 6.5t13.5 2.5q11 0 13.5 -7t-3.5 -15q-10 -14 -24 -40t-26 -56.5t-20 -61.5q-3 -11 -7.5 -18t-14.5 -7t-14.5 10t-4.5 31
q0 66 -34 106t-90 40q-38 0 -63.5 -16.5t-38.5 -41.5t-13 -50q0 -24 9 -43.5t31.5 -41.5t63.5 -55q62 -50 84.5 -92.5t22.5 -92.5q0 -51 -31 -99.5t-89 -79.5t-140 -31zM122 -96q-14 0 -17 9.5t1 20.5l325 771q5 10 19 15.5t29 5.5q10 0 11.5 -8.5t-4.5 -21.5l-328 -778
q-2 -7 -12.5 -10.5t-23.5 -3.5z" />
  </g>

</svg>
