<?xml version="1.0" standalone="no"?>
<!DOCTYPE svg PUBLIC "-//W3C//DTD SVG 1.1//EN" "http://www.w3.org/Graphics/SVG/1.1/DTD/svg11.dtd" >
<svg xmlns="http://www.w3.org/2000/svg" xmlns:xlink="http://www.w3.org/1999/xlink" version="1.1" viewBox="-10 0 486 1000">
  <g transform="matrix(1 0 0 -1 0 800)">
   <path fill="currentColor"
d="M136 -15q-27 0 -57 16.5t-51 44t-21 61.5q0 62 23 120.5t61 104.5t86.5 73.5t98.5 27.5q58 0 84 -22t26 -52q0 -34 -22.5 -58.5t-58 -41.5t-76.5 -28t-78 -19q-5 -1 -7 -3t-4 -7q-2 -7 -3.5 -15.5t-2.5 -16.5q-1 -35 18.5 -61t57.5 -26q28 0 51.5 14.5t45.5 38.5
q11 11 17 11q10 0 10 -10q0 -3 -0.5 -7t-2.5 -7q-19 -36 -47 -67.5t-65 -51t-83 -19.5zM158 247q20 6 42.5 14t41.5 21.5t32 33.5t15 48q0 12 -7 22.5t-21 10.5q-18 0 -35.5 -12.5t-33.5 -33t-26.5 -46t-14.5 -52.5q-1 -8 7 -6zM286 471q-10 0 -14.5 10t-10.5 31
q-4 16 -9 33.5t-10 35.5t-9 34.5t-6 31.5q-4 16 0.5 28t18.5 12q15 0 30 -31q6 -14 15.5 -32.5t21.5 -39.5q4 -6 12 0q23 21 45.5 40.5l37.5 32.5q17 14 29 22t18 8q11 0 11 -12q0 -6 -3 -13t-10 -16q-18 -21 -37.5 -43.5t-39.5 -45.5t-39 -45q-16 -18 -28.5 -29.5
t-22.5 -11.5z" />
  </g>

</svg>
