<?xml version="1.0" standalone="no"?>
<!DOCTYPE svg PUBLIC "-//W3C//DTD SVG 1.1//EN" "http://www.w3.org/Graphics/SVG/1.1/DTD/svg11.dtd" >
<svg xmlns="http://www.w3.org/2000/svg" xmlns:xlink="http://www.w3.org/1999/xlink" version="1.1" viewBox="-10 0 468 1000">
  <g transform="matrix(1 0 0 -1 0 800)">
   <path fill="currentColor"
d="M159 -31q-53 0 -87.5 17t-50.5 42t-17 50q0 28 19.5 50t54 42t77.5 40q8 4 7.5 6.5t-6.5 6.5q-28 24 -47.5 49t-18.5 54q0 32 18 57.5t48.5 43.5t69.5 27.5t81 9.5q38 0 69.5 -10.5t50 -30t17.5 -47.5q0 -22 -12 -39t-30.5 -30t-39.5 -24q-10 -5 -20.5 -10.5t-25.5 -13.5
q-11 -6 -11 -8.5t7 -8.5q39 -30 56.5 -58t17.5 -53q0 -38 -22.5 -68t-58 -50.5t-74.5 -32t-72 -11.5zM166 8q21 0 43 12t37 33t14 46q-1 24 -19.5 46.5t-36.5 37.5q-7 5 -10 6t-13 -4q-31 -17 -53 -47t-22 -66q0 -28 14.5 -46t45.5 -18zM259 281q10 -8 20 2q30 25 48 51
t19 51q1 18 -13.5 34.5t-40.5 16.5q-37 0 -58.5 -22t-21.5 -58q0 -20 12.5 -38.5t34.5 -36.5z" />
  </g>

</svg>
