<?xml version="1.0" standalone="no"?>
<!DOCTYPE svg PUBLIC "-//W3C//DTD SVG 1.1//EN" "http://www.w3.org/Graphics/SVG/1.1/DTD/svg11.dtd" >
<svg xmlns="http://www.w3.org/2000/svg" xmlns:xlink="http://www.w3.org/1999/xlink" version="1.1" viewBox="-10 0 513 1000">
  <g transform="matrix(1 0 0 -1 0 800)">
   <path fill="currentColor"
d="M171 -13q-70 0 -113 32t-43 80q0 34 14 58.5t38 44.5t54 38t62 39q6 4 5.5 7t-4.5 10q-26 41 -38 69t-12 60q0 25 16 53.5t45 53.5t68.5 41t86.5 16q59 0 99 -28t43 -76q3 -36 -19 -64.5t-59 -53.5t-80 -51q-11 -6 -10 -9.5t5 -10.5q27 -43 40.5 -74.5t13.5 -64.5
q0 -28 -19 -58t-51 -55.5t-69.5 -41t-72.5 -15.5zM205 21q17 1 32.5 9.5t24.5 25t9 38.5q0 36 -15 71.5t-40 78.5q-4 8 -9 8t-14 -6q-26 -18 -41.5 -40t-22 -46t-6.5 -47q0 -22 9.5 -43.5t28 -35.5t44.5 -13zM313 344q22 19 39 37.5t27.5 40.5t10.5 50q0 31 -17 57t-54 26
q-23 0 -40 -9.5t-25.5 -28t-8.5 -46.5t17 -60.5t35 -63.5q4 -6 8.5 -6.5t7.5 3.5z" />
  </g>

</svg>
