<?xml version="1.0" standalone="no"?>
<!DOCTYPE svg PUBLIC "-//W3C//DTD SVG 1.1//EN" "http://www.w3.org/Graphics/SVG/1.1/DTD/svg11.dtd" >
<svg xmlns="http://www.w3.org/2000/svg" xmlns:xlink="http://www.w3.org/1999/xlink" version="1.1" viewBox="-10 0 353 1000">
  <g transform="matrix(1 0 0 -1 0 800)">
   <path fill="currentColor"
d="M138 178q-12 0 -16 11.5t1 38.5q10 56 19.5 104.5t18 88.5t14.5 69.5t10 47.5q7 28 20.5 53.5t33.5 41.5t45 16q19 0 32.5 -15.5t16 -44t-13.5 -69.5q-3 -10 -15 -37t-30.5 -66t-41.5 -87t-49 -102q-11 -21 -22 -35.5t-23 -14.5zM83 -14q-24 0 -41 17.5t-17 40.5
q0 34 26 60t62 26q30 0 46 -20t16 -42q0 -33 -27.5 -57.5t-64.5 -24.5z" />
  </g>

</svg>
