<?xml version="1.0" standalone="no"?>
<!DOCTYPE svg PUBLIC "-//W3C//DTD SVG 1.1//EN" "http://www.w3.org/Graphics/SVG/1.1/DTD/svg11.dtd" >
<svg xmlns="http://www.w3.org/2000/svg" xmlns:xlink="http://www.w3.org/1999/xlink" version="1.1" viewBox="-211 0 1180 1000">
  <g transform="matrix(1 0 0 -1 0 800)">
   <path fill="currentColor"
d="M221 -291q-40 0 -75 12.5t-57.5 33t-24.5 45.5l61 87q13 -67 40 -96t61 -29q49 0 75.5 35t41.5 91l149 551q21 76 56 127t78 81.5t87 44t82 13.5q52 0 87 -21t35 -54q0 -26 -12.5 -48t-32.5 -22q-18 0 -25.5 17t-17.5 36q-9 20 -22.5 35t-39.5 15q-24 0 -45 -17
t-38.5 -44t-30.5 -58t-19 -58l-12 -53q-1 -9 4 -12t12 -3q13 0 43.5 0.5t67 1t67 1t43.5 0.5l-12 -53l-209 -3q-18 0 -26.5 -5.5t-11.5 -18.5q-16 -54 -30 -103.5t-28 -97.5t-28 -97.5t-29 -104.5q-23 -78 -67.5 -129t-97 -75.5t-99.5 -24.5zM-68 -291q-70 0 -101.5 24
t-31.5 52q0 25 17 41t35 16q9 0 20.5 -14.5t21.5 -28.5q10 -15 22 -28.5t30 -13.5q15 0 26.5 12.5t22 36t19.5 56.5l136 484q4 18 -14 18l-60 -1q-10 0 -14 4t-4 13q0 8 9 21t25 14l63 3q5 0 7 3.5t5 10.5l11 31q20 59 51 102.5t67.5 71.5t74.5 41.5t73 13.5q40 0 75 -12
t57 -33t25 -47l-53 -78q-8 45 -25.5 70.5t-37.5 36t-40 10.5q-36 0 -59.5 -16t-38 -44t-26.5 -66q-8 -35 -12.5 -51t-6 -21t-2.5 -8q-1 -9 4 -12t12 -3l226 3q10 0 10 -14q0 -5 -4.5 -14.5t-10.5 -17t-11 -7.5l-210 -3q-17 0 -25.5 -5.5t-12.5 -18.5l-122 -434
q-9 -35 -34.5 -70t-59 -64t-67.5 -46.5t-62 -17.5zM525 -290q-51 0 -73 17t-21 37q2 18 11 30.5t21 20.5t20 8q16 0 26.5 -11t20.5 -23q9 -10 18.5 -18t24.5 -8q25 0 46 34t36 87l152 506l-30 30q-2 0 15.5 0.5t43 1t49.5 3t34 6.5q14 6 28.5 -6.5t9.5 -25.5
q-6 -18 -19.5 -48t-24.5 -65l-113 -348q-15 -48 -49.5 -89.5t-77 -72.5t-82 -48.5t-66.5 -17.5z" />
  </g>

</svg>
