<?xml version="1.0" standalone="no"?>
<!DOCTYPE svg PUBLIC "-//W3C//DTD SVG 1.1//EN" "http://www.w3.org/Graphics/SVG/1.1/DTD/svg11.dtd" >
<svg xmlns="http://www.w3.org/2000/svg" xmlns:xlink="http://www.w3.org/1999/xlink" version="1.1" viewBox="-211 0 1084 1000">
  <g transform="matrix(1 0 0 -1 0 800)">
   <path fill="currentColor"
d="M217 -291q-39 0 -74 12.5t-57.5 33t-25.5 45.5l62 87q12 -67 39 -96t62 -29q49 0 75 35t42 91l153 574q25 89 69.5 142.5t96.5 77.5t97 24q46 0 76.5 -21t30.5 -54q0 -26 -12.5 -48t-33.5 -22q-17 0 -24.5 16.5t-15.5 36.5q-7 20 -18 35.5t-32 15.5q-18 0 -34.5 -19
t-29.5 -50t-24 -68q-6 -21 -11 -40t-8 -36q-1 -5 -2 -9.5t-1 -9.5q-1 -9 4 -12t11 -3q27 0 50 1.5t48 1.5q10 0 10 -14q0 -5 -4.5 -14.5t-10.5 -17t-11 -7.5l-81 -3q-18 -1 -26.5 -6t-11.5 -18l-114 -403q-22 -78 -66.5 -129t-97 -75.5t-100.5 -24.5zM-68 -291
q-70 0 -101.5 24t-31.5 52q0 25 17 41t35 16q9 0 20.5 -14.5t21.5 -28.5q10 -15 22 -28.5t30 -13.5q15 0 26.5 12.5t22 36t19.5 56.5l136 484q4 18 -14 18l-60 -1q-10 0 -14 4t-4 13q0 8 9 21t25 14l63 3q5 0 7 3.5t5 10.5l12 31q23 58 54 101.5t66.5 71.5t72.5 42t72 14
q40 0 75 -12t57 -33t25 -47l-62 -86q-12 67 -39 96t-62 29q-48 0 -74.5 -35t-42.5 -91q-8 -35 -12.5 -51t-6 -21t-2.5 -8q-1 -9 4 -12t12 -3l226 3q10 0 10 -14q0 -5 -4.5 -14.5t-10.5 -17t-11 -7.5l-210 -3q-17 0 -25.5 -5.5t-12.5 -18.5l-122 -434q-9 -35 -34.5 -70
t-59 -64t-67.5 -46.5t-62 -17.5z" />
  </g>

</svg>
