<?xml version="1.0" standalone="no"?>
<!DOCTYPE svg PUBLIC "-//W3C//DTD SVG 1.1//EN" "http://www.w3.org/Graphics/SVG/1.1/DTD/svg11.dtd" >
<svg xmlns="http://www.w3.org/2000/svg" xmlns:xlink="http://www.w3.org/1999/xlink" version="1.1" viewBox="-211 0 1429 1000">
  <g transform="matrix(1 0 0 -1 0 800)">
   <path fill="currentColor"
d="M221 -291q-40 0 -75 12.5t-57.5 33t-24.5 45.5l61 87q13 -67 40 -96t61 -29q49 0 75 35t42 91l155 567q25 91 71 146t101.5 79.5t105.5 24.5q35 0 68.5 -12t55.5 -32.5t24 -46.5l-53 -78q-12 67 -39.5 91.5t-57.5 24.5q-46 0 -77.5 -28.5t-51.5 -97.5q-7 -24 -12.5 -44
t-8 -33t-3.5 -16q-1 -9 4 -12t12 -3l219 3q10 0 10 -14q0 -5 -4.5 -14.5t-10.5 -17t-11 -7.5l-203 -3q-18 0 -26.5 -5.5t-11.5 -18.5l-114 -403q-23 -78 -67.5 -129t-97 -75.5t-99.5 -24.5zM-68 -291q-70 0 -101.5 24t-31.5 52q0 25 17 41t35 16q9 0 20.5 -14.5t21.5 -28.5
q10 -15 22 -28.5t30 -13.5q15 0 26.5 12.5t22 36t19.5 56.5l136 484q4 18 -14 18l-60 -1q-10 0 -14 4t-4 13q0 8 9 21t25 14l63 3q5 0 7 3.5t5 10.5l11 31q20 59 51 102.5t67.5 71.5t74.5 41.5t73 13.5q40 0 75 -12t57 -33t25 -47l-53 -78q-8 45 -25.5 70.5t-37.5 36
t-40 10.5q-36 0 -59.5 -16t-38 -44t-26.5 -66q-8 -35 -12.5 -51t-6 -21t-2.5 -8q-1 -9 4 -12t12 -3l226 3q10 0 10 -14q0 -5 -4.5 -14.5t-10.5 -17t-11 -7.5l-210 -3q-17 0 -25.5 -5.5t-12.5 -18.5l-122 -434q-9 -35 -34.5 -70t-59 -64t-67.5 -46.5t-62 -17.5zM861 -13
q-57 0 -88.5 28.5t-31.5 79.5q0 20 4.5 43t13.5 51l110 350q7 25 9.5 36.5t2.5 23.5q0 10 -7.5 16.5t-26.5 12.5q-22 8 -22 16q0 7 5.5 11t21.5 10q19 6 44.5 13.5t51 14t44 10.5t23.5 4q26 0 26 -13t-2 -21.5t-7 -19.5q-11 -24 -22 -51t-23.5 -60.5t-26 -74.5t-30 -91
t-36.5 -113q-2 -8 0.5 -9t6.5 6q58 82 116 127.5t104 45.5q36 0 61.5 -25t25.5 -59q0 -49 -20.5 -100t-56 -98t-80.5 -84t-94 -58.5t-96 -21.5zM891 26q12 0 30 12.5t37.5 34t35.5 45.5q22 35 41.5 75t32 76t12.5 56q0 13 -7 21.5t-19 8.5q-22 0 -55.5 -27.5t-74.5 -82.5
q-35 -50 -55.5 -92t-20.5 -64q0 -21 12.5 -42t30.5 -21z" />
  </g>

</svg>
