<?xml version="1.0" standalone="no"?>
<!DOCTYPE svg PUBLIC "-//W3C//DTD SVG 1.1//EN" "http://www.w3.org/Graphics/SVG/1.1/DTD/svg11.dtd" >
<svg xmlns="http://www.w3.org/2000/svg" xmlns:xlink="http://www.w3.org/1999/xlink" version="1.1" viewBox="-211 0 1104 1000">
  <g transform="matrix(1 0 0 -1 0 800)">
   <path fill="currentColor"
d="M-68 -291q-70 0 -101.5 24t-31.5 52q0 25 17 41t35 16q9 0 20.5 -14.5t21.5 -28.5q10 -15 22 -28.5t30 -13.5q15 0 26.5 12.5t22 36t19.5 56.5l136 484q4 18 -14 18l-60 -1q-10 0 -14 4t-4 13q0 8 9 21t25 14l63 3q8 0 12 14l15 44q27 79 72 129.5t98 75t104 24.5
q35 0 68 -12t55 -32.5t25 -46.5l-54 -78q-12 67 -39.5 91.5t-57.5 24.5q-45 0 -77 -28.5t-52 -97.5q-7 -24 -12 -44t-8 -33t-4 -16q-1 -9 4 -12t12 -3l219 3q11 0 11 -14q0 -5 -5 -14.5t-11 -17t-11 -7.5l-203 -3q-17 0 -25.5 -5.5t-12.5 -18.5l-122 -434q-9 -35 -34.5 -70
t-59 -64t-67.5 -46.5t-62 -17.5zM691 -15q-20 0 -35 12.5t-24 37.5l-42 125q-4 14 -10 20.5t-13 6.5t-10.5 -6.5t-8.5 -19.5q-7 -14 -13.5 -31.5t-13.5 -35t-13.5 -34t-12.5 -32.5q-6 -13 -22.5 -24t-38.5 -11q-15 0 -33.5 13.5t-18.5 38.5q0 10 2.5 20t5.5 19l147 452
q5 16 9 30.5t4 29.5q0 22 -24 32q-8 3 -14.5 6.5t-6.5 8.5q0 6 4 10t20 10q12 5 35 12t48.5 14.5t46 12.5t28.5 5t17 -1.5t9 -11.5q0 -13 -2.5 -21.5t-5.5 -18.5l-124 -354q-3 -8 2.5 -8t9.5 5q26 37 59 68t71 49.5t79 18.5q30 0 48.5 -13.5t18.5 -40.5q0 -24 -15 -48
t-39 -46t-53.5 -40t-59.5 -30q-10 -3 -4 -17l38 -85q4 -7 10.5 -16.5t16.5 -9.5q15 0 36.5 16.5t35.5 36.5q5 6 7 9t6 3q5 0 6.5 -4.5t1.5 -8.5q0 -23 -16.5 -49.5t-42.5 -50.5t-54.5 -39t-51.5 -15zM598 211q26 0 53 13t50 32.5t37.5 40t14.5 36.5q0 14 -9 19.5t-24 5.5
q-18 0 -40.5 -17t-43 -40.5t-34.5 -45.5t-14 -31q0 -4 2.5 -8.5t7.5 -4.5z" />
  </g>

</svg>
