<?xml version="1.0" standalone="no"?>
<!DOCTYPE svg PUBLIC "-//W3C//DTD SVG 1.1//EN" "http://www.w3.org/Graphics/SVG/1.1/DTD/svg11.dtd" >
<svg xmlns="http://www.w3.org/2000/svg" xmlns:xlink="http://www.w3.org/1999/xlink" version="1.1" viewBox="-112 0 1012 1000">
  <g transform="matrix(1 0 0 -1 0 800)">
   <path fill="currentColor"
d="M373 -289q-29 0 -52 16.5t-23 48.5l63 77q15 -28 39 -39.5t59 -11.5q30 0 59 30t50 78q16 36 25.5 91t9.5 115q0 118 -33 182.5t-87 63.5q-17 0 -36 -8.5t-39 -25.5t-38 -44l-21 17q13 33 34 57.5t46.5 41t51 25t49.5 8.5q53 0 90 -25t60 -71.5t31.5 -111t4.5 -142.5
q-1 -18 3.5 -17t11.5 14q35 66 47.5 147t12.5 188q0 8 13 16.5t21 8.5q9 0 24 -8.5t27.5 -23t12.5 -33.5q0 -62 -35.5 -144.5t-98.5 -175.5t-147 -185q-39 -43 -82.5 -79.5t-83 -58t-69.5 -21.5zM164 -254q26 0 50 8.5t39 23.5t15 33q0 11 -7.5 23.5t-20.5 20.5
q-21 14 -50 31.5t-47 26.5q-8 4 -15 4q-6 0 -10.5 -1t-9.5 -3q-48 -14 -72.5 -33.5t-24.5 -53.5q0 -21 16.5 -39.5t50.5 -29.5t86 -11zM121 -290q-62 0 -112.5 13.5t-80.5 37t-30 53.5q0 28 26 50.5t69.5 40.5t95.5 32q12 4 2 9q-20 12 -37 30.5t-17 38.5q0 22 23.5 39.5
t57.5 35.5q6 4 9.5 7.5t3.5 5.5q0 4 -10 8q-18 9 -36 24t-29.5 36.5t-11.5 47.5q0 32 15 68.5t43 70t70 54.5t97 21q64 0 99 -34.5t35 -84.5q0 -40 -16 -79.5t-44.5 -71t-67 -50.5t-84.5 -19q-9 0 -18.5 0.5t-14.5 -1.5q-10 -7 -10 -17q0 -11 10.5 -22.5t28.5 -24.5
q19 -12 44 -27.5t50.5 -31.5t48.5 -31q24 -16 37 -34.5t13 -38.5q0 -30 -22.5 -57.5t-60 -49.5t-83 -35.5t-93.5 -13.5zM174 134q17 -2 36 14t36 43t31 58.5t22.5 61t8.5 49.5q0 19 -7.5 30t-19.5 11q-16 0 -33.5 -16.5t-34.5 -43t-31 -57t-22.5 -59t-8.5 -48.5
q0 -22 6.5 -32t16.5 -11z" />
  </g>

</svg>
