<?xml version="1.0" standalone="no"?>
<!DOCTYPE svg PUBLIC "-//W3C//DTD SVG 1.1//EN" "http://www.w3.org/Graphics/SVG/1.1/DTD/svg11.dtd" >
<svg xmlns="http://www.w3.org/2000/svg" xmlns:xlink="http://www.w3.org/1999/xlink" version="1.1" viewBox="-14 0 536 1000">
  <g transform="matrix(1 0 0 -1 0 800)">
   <path fill="currentColor"
d="M79 -295q-18 0 -37 15t-32.5 36t-13.5 38q0 13 11 34t27 45t34 47t33 41t22 25q18 23 32.5 49.5t22.5 45.5q7 18 12 38.5t8 41t3 39.5q0 47 -19 77.5t-65 30.5q-23 0 -41.5 -7.5t-31.5 -15.5q-5 -2 -8.5 -4t-6.5 -2q-5 0 -7.5 1.5t-2.5 6.5q0 20 13 44.5t34.5 48
t47.5 38.5t52 15q49 0 74 -31.5t25 -94.5q0 -37 -8.5 -81t-22.5 -92q-3 -14 3.5 -13t16.5 13q24 32 50.5 72t51.5 80.5t46 76.5t33 59q5 9 13.5 17t20.5 8q16 0 25.5 -14.5t13.5 -36t4 -41.5q0 -14 -4.5 -22.5t-14.5 -23.5q-15 -20 -40 -47t-58 -62t-72.5 -77t-81.5 -92
q-10 -11 -16 -22t-8 -14q-3 -8 -12.5 -35t-21.5 -62l-24 -70t-21 -60.5t-12 -32.5q-6 -16 -18.5 -23t-28.5 -7z" />
  </g>

</svg>
