<?xml version="1.0" standalone="no"?>
<!DOCTYPE svg PUBLIC "-//W3C//DTD SVG 1.1//EN" "http://www.w3.org/Graphics/SVG/1.1/DTD/svg11.dtd" >
<svg xmlns="http://www.w3.org/2000/svg" xmlns:xlink="http://www.w3.org/1999/xlink" version="1.1" viewBox="-27 0 946 1000">
  <g transform="matrix(1 0 0 -1 0 800)">
   <path fill="currentColor"
d="M168 -13q-30 0 -54 3t-45 11q-11 5 -19.5 7.5t-10.5 2.5q-4 0 -9 -2l-10 -4q-5 -3 -10 -5.5t-10 -2.5q-4 0 -10.5 5t-6.5 10q0 6 9 23t19.5 42t13.5 51q2 12 6.5 18t14.5 6t12.5 -11.5t2.5 -33.5q0 -23 11.5 -42t33.5 -31t53 -12q33 0 53 19.5t20 45.5q0 19 -11 38
t-48 50q-31 28 -49.5 49t-27 40.5t-8.5 45.5q0 43 24 76.5t67.5 52.5t101.5 19q32 0 53 -4.5t37 -9.5q16 -4 25 -7t17 -3q5 0 10 1t11 3q5 3 10.5 5.5t11.5 2.5q8 0 9 -5t-3 -12q-8 -10 -18 -28.5t-20 -40t-16 -41.5q-2 -7 -5.5 -12t-11.5 -5t-10.5 7.5t-4.5 22.5
q-2 29 -13.5 49.5t-31 31t-47.5 10.5q-33 0 -51 -17t-18 -39q0 -19 11 -38t51 -54q45 -38 64.5 -68t19.5 -68q0 -40 -24 -74.5t-67 -56t-102 -21.5zM611 -13q-30 0 -54 3t-45 11q-11 5 -19.5 7.5t-10.5 2.5q-4 0 -9 -2l-10 -4q-5 -3 -10 -5.5t-10 -2.5q-4 0 -10.5 5t-6.5 10
q0 6 9 23t19.5 42t13.5 51q2 12 6.5 18t14.5 6t12.5 -11.5t2.5 -33.5q0 -23 11.5 -42t33.5 -31t53 -12q33 0 53 19.5t20 45.5q0 19 -11 38t-48 50q-31 28 -49.5 49t-27 40.5t-8.5 45.5q0 43 24 76.5t67.5 52.5t101.5 19q32 0 53 -4.5t37 -9.5q16 -4 25 -7t17 -3q5 0 10 1
t11 3q5 3 10.5 5.5t11.5 2.5q8 0 9 -5t-3 -12q-8 -10 -18 -28.5t-20 -40t-16 -41.5q-2 -7 -5.5 -12t-11.5 -5t-10.5 7.5t-4.5 22.5q-2 29 -13.5 49.5t-31 31t-47.5 10.5q-33 0 -51 -17t-18 -39q0 -19 11 -38t51 -54q45 -38 64.5 -68t19.5 -68q0 -40 -24 -74.5t-67 -56
t-102 -21.5z" />
  </g>

</svg>
