<?xml version="1.0" standalone="no"?>
<!DOCTYPE svg PUBLIC "-//W3C//DTD SVG 1.1//EN" "http://www.w3.org/Graphics/SVG/1.1/DTD/svg11.dtd" >
<svg xmlns="http://www.w3.org/2000/svg" xmlns:xlink="http://www.w3.org/1999/xlink" version="1.1" viewBox="-10 0 511 1000">
  <g transform="matrix(1 0 0 -1 0 800)">
   <path fill="currentColor"
d="M100 441l343 -165q15 -7 31.5 -16.5t16.5 -14.5q0 -7 -10.5 -25.5t-28.5 -25.5l-353 -173q-4 -2 -8 -2q-8 0 -11.5 7t-3.5 15q0 14 10 28t26 22l281 136q4 2 4 4.5t-4 4.5l-281 136q-16 8 -25.5 22t-9.5 28t8 19t15 0z" />
  </g>

</svg>
