<?xml version="1.0" standalone="no"?>
<!DOCTYPE svg PUBLIC "-//W3C//DTD SVG 1.1//EN" "http://www.w3.org/Graphics/SVG/1.1/DTD/svg11.dtd" >
<svg xmlns="http://www.w3.org/2000/svg" xmlns:xlink="http://www.w3.org/1999/xlink" version="1.1" viewBox="-10 0 634 1000">
  <g transform="matrix(1 0 0 -1 0 800)">
   <path fill="currentColor"
d="M91 -14q-28 0 -47 18t-19 36q0 5 1 10t4 11q29 64 54 126.5t49 119.5q2 6 -5 6t-18 -4.5t-22.5 -11.5t-22.5 -13q-13 -8 -19 -4t-6 12q0 7 13.5 21.5t34.5 32t46 34.5t48.5 30.5t39.5 19.5q14 6 29.5 -1.5t24.5 -20t4 -24.5l-112 -276q-1 -4 -2 -8.5t-1 -6.5q0 -4 2.5 -6
t4.5 -2q10 0 35 15.5t57.5 40.5t64 51.5t55.5 49.5q-5 14 -8.5 25.5t-3.5 21.5q0 36 21 66t52.5 52.5t63 34.5t51.5 12q29 0 41.5 -11t12.5 -29q0 -20 -15.5 -45.5t-38.5 -50t-48 -44.5q20 -38 31.5 -62.5t16.5 -42.5t6 -38q2 -28 -14 -53.5t-43 -46.5t-60 -32.5t-67 -11.5
q-37 0 -59.5 17t-22.5 44q0 20 9.5 35.5t27.5 15.5q6 0 14.5 -8.5l19.5 -19.5q13 -12 28.5 -24t31.5 -12t23.5 11t7.5 28q0 24 -17.5 58.5t-40.5 71.5q-42 -38 -87 -76.5t-87 -70.5t-78 -51.5t-61 -19.5zM486 310q30 20 44.5 40t14.5 33q0 17 -19 17t-35.5 -15t-16.5 -35
q0 -10 3 -20t9 -20zM270 504q-23 0 -38 17.5t-15 38.5q0 34 24.5 60.5t59.5 26.5q25 0 38 -20t13 -41q0 -32 -24.5 -57t-57.5 -25z" />
  </g>

</svg>
