<?xml version="1.0" standalone="no"?>
<!DOCTYPE svg PUBLIC "-//W3C//DTD SVG 1.1//EN" "http://www.w3.org/Graphics/SVG/1.1/DTD/svg11.dtd" >
<svg xmlns="http://www.w3.org/2000/svg" xmlns:xlink="http://www.w3.org/1999/xlink" version="1.1" viewBox="-10 0 676 1000">
  <g transform="matrix(1 0 0 -1 0 800)">
   <path fill="currentColor"
d="M86 -14q-24 0 -42.5 18t-18.5 36q0 5 1 10t4 11q29 64 54 126.5t49 119.5q2 6 -5 6t-18 -4.5t-22.5 -11.5t-22.5 -13q-13 -8 -19 -4t-6 12q0 7 13.5 21.5t34.5 32t46 34.5t48.5 30.5t39.5 19.5q14 6 29.5 -1.5t24.5 -20t4 -24.5l-112 -276q-1 -4 -2 -8.5t-1 -6.5
q0 -4 2.5 -6t4.5 -2q9 0 27.5 12t39.5 28t35 30q3 3 4 3q5 0 9 -4.5t4 -9.5q0 -18 -21.5 -44.5t-54 -52.5t-67 -43.5t-62.5 -17.5zM269 504q-22 0 -37 17.5t-15 39.5q0 34 24 60t60 26q24 0 37 -19.5t13 -41.5q0 -31 -24 -56.5t-58 -25.5zM183 -290q-52 0 -73.5 17t-21.5 37
q2 18 11.5 30.5t21 20.5t20.5 8q15 0 26 -11t20 -23q9 -10 18.5 -18t24.5 -8q25 0 45 34t38 87l124 383q8 27 5 35.5t-12 8.5q-12 0 -24.5 -5t-27.5 -12q-11 -4 -18 -2t-7 10t5.5 13t14.5 12q22 18 51.5 34.5t60 29.5t55.5 23.5t38 16.5q14 6 28.5 -6.5t9.5 -25.5
q-6 -18 -19 -48t-25 -65l-114 -348q-16 -48 -50.5 -89t-77 -72.5t-82 -49t-65.5 -17.5zM574 506q-22 0 -37 17.5t-15 39.5q0 34 24 60t60 26q24 0 37 -19.5t13 -41.5q0 -31 -24 -56.5t-58 -25.5z" />
  </g>

</svg>
