<?xml version="1.0" standalone="no"?>
<!DOCTYPE svg PUBLIC "-//W3C//DTD SVG 1.1//EN" "http://www.w3.org/Graphics/SVG/1.1/DTD/svg11.dtd" >
<svg xmlns="http://www.w3.org/2000/svg" xmlns:xlink="http://www.w3.org/1999/xlink" version="1.1" viewBox="-42 0 774 1000">
  <g transform="matrix(1 0 0 -1 0 800)">
   <path fill="currentColor"
d="M-17 -1q-7 0 -11 3t-3 10q2 8 8.5 12.5t15.5 5.5q21 4 33.5 11t19.5 29l94 304q7 22 1 31.5t-30 15.5q-7 2 -10.5 6.5t-1.5 12.5q2 7 9 10t13 3q15 0 36.5 -1t42 -2t35.5 -1t38 1t47 1.5t38 0.5q8 0 11.5 -3.5t1.5 -9.5q-2 -7 -8 -10.5t-15 -6.5q-23 -7 -34 -13.5
t-14.5 -14.5t-8.5 -21l-93 -300q-5 -19 2 -27t23 -14q7 -3 11.5 -7t2.5 -12q-2 -7 -8 -10.5t-12 -3.5q-14 0 -36.5 1t-46 1.5t-37.5 0.5t-35.5 -0.5t-42.5 -1.5t-36 -1zM278 -145q-61 0 -84 13.5t-23 32.5q0 16 6.5 30.5t17 24t21.5 9.5q16 0 26 -8.5t18 -20.5q9 -13 19 -22
t23 -9q20 0 37 26t39 94l107 348q8 22 3 32t-32 16q-7 2 -11.5 6t-1.5 13q3 8 9.5 10.5t12.5 2.5q15 0 36 -1t43 -2t35 -1q16 0 41 1t49 1.5t38 0.5q7 0 11.5 -3.5t2.5 -9.5q-2 -7 -9 -10.5t-15 -5.5q-29 -7 -41.5 -18t-19.5 -31l-91 -293q-9 -29 -25.5 -57t-39.5 -53.5
t-52 -49.5q-37 -29 -76.5 -47.5t-73.5 -18.5z" />
  </g>

</svg>
