<?xml version="1.0" standalone="no"?>
<!DOCTYPE svg PUBLIC "-//W3C//DTD SVG 1.1//EN" "http://www.w3.org/Graphics/SVG/1.1/DTD/svg11.dtd" >
<svg xmlns="http://www.w3.org/2000/svg" xmlns:xlink="http://www.w3.org/1999/xlink" version="1.1" viewBox="-152 0 526 1000">
  <g transform="matrix(1 0 0 -1 0 800)">
   <path fill="currentColor"
d="M-42 -138q-55 0 -77.5 13t-21.5 29q0 14 7 27.5t17 22.5t19 9q15 0 24 -8.5t17 -17.5q9 -11 17.5 -20t20.5 -9q19 0 35.5 24.5t35.5 88.5l102 330q6 20 2 28t-27 14q-7 2 -11 5.5t-1 12.5q2 7 8 9.5t12 2.5q14 0 33.5 -1t38.5 -2t32 -1q14 0 34.5 1t40.5 1.5t34 0.5
q7 0 11 -3t2 -9q-1 -7 -8 -10.5t-15 -5.5q-24 -5 -36 -14.5t-17 -27.5l-86 -279q-9 -27 -24.5 -53.5t-37 -50.5t-49.5 -45q-35 -27 -67.5 -44.5t-64.5 -17.5z" />
  </g>

</svg>
