<?xml version="1.0" standalone="no"?>
<!DOCTYPE svg PUBLIC "-//W3C//DTD SVG 1.1//EN" "http://www.w3.org/Graphics/SVG/1.1/DTD/svg11.dtd" >
<svg xmlns="http://www.w3.org/2000/svg" xmlns:xlink="http://www.w3.org/1999/xlink" version="1.1" viewBox="-41 0 582 1000">
  <g transform="matrix(1 0 0 -1 0 800)">
   <path fill="currentColor"
d="M41 -14q-12 0 -29 7.5t-30 21t-13 28.5q0 11 10 23.5t18 19.5q32 28 70.5 61t80.5 72t84 83t81 94q4 6 7.5 12t5.5 17q2 9 3 19.5t1 21.5q0 82 -26.5 121.5t-74.5 39.5q-16 0 -36.5 -4t-37.5 -13l-15 -7.5t-11 -3.5q-7 0 -9.5 3t-2.5 10q0 15 18.5 39.5t51.5 44t77 19.5
q47 0 74.5 -28t37 -82t3.5 -132q-5 -55 -10 -97t-9 -74.5t-6 -57.5t-2 -46q0 -43 13.5 -66.5t49.5 -23.5q22 0 40 8t31 15.5t17 7.5q6 0 8 -3t-1 -11q-14 -41 -39 -72.5t-55 -48.5t-58 -17q-29 0 -50 22t-21 70q0 22 4.5 55t10.5 69.5t11.5 70.5t8.5 59q1 7 -2 8t-8 -6
q-12 -19 -34 -51.5t-47.5 -70t-51.5 -74.5t-48 -68.5t-36 -49.5q-18 -24 -30.5 -29.5t-23.5 -5.5z" />
  </g>

</svg>
