<?xml version="1.0" standalone="no"?>
<!DOCTYPE svg PUBLIC "-//W3C//DTD SVG 1.1//EN" "http://www.w3.org/Graphics/SVG/1.1/DTD/svg11.dtd" >
<svg xmlns="http://www.w3.org/2000/svg" xmlns:xlink="http://www.w3.org/1999/xlink" version="1.1" viewBox="-211 0 1257 1000">
  <g transform="matrix(1 0 0 -1 0 800)">
   <path fill="currentColor"
d="M218 -291q-39 0 -74.5 12.5t-57.5 33t-25 45.5l62 87q12 -67 39 -96t62 -29q49 0 75 35.5t41 91.5l85 343q23 94 52.5 169.5t64.5 132t77.5 95t91.5 57.5t105 19q42 0 75.5 -11.5t57 -28t35.5 -33.5l-57 -188q-3 -15 1 -19t14 -4q13 0 29 -1.5t34 -3.5q22 -3 26.5 -8
t4.5 -13q0 -3 -5.5 -10t-21.5 -9q-13 -1 -27 -2.5t-33 -2.5q-18 -1 -27.5 -5t-13.5 -14l-75 -207q-7 -21 -7 -31.5t4.5 -13t10.5 -2.5q12 0 31 13.5t38.5 30.5t31.5 30q3 2 5.5 3t2.5 0q5 -2 7.5 -7.5t1.5 -11.5q-3 -16 -19 -37.5t-40.5 -44.5t-53.5 -43t-57.5 -32.5
t-52.5 -12.5q-16 0 -30 10t-23 24.5t-9 25.5q0 7 2 15.5t9 25.5l94 252q6 17 1.5 22.5t-12.5 5.5l-48 2q-17 1 -21 7.5t-4 12.5q0 2 7 10.5t18 16t23 7.5h42q15 0 21 4t12 21l57 156q-11 16 -32 32.5t-53 16.5t-58 -14.5t-47.5 -46t-42 -82t-41.5 -122.5t-46 -167l-73 -283
q-20 -79 -64.5 -129.5t-98 -75t-101.5 -24.5zM-68 -291q-70 0 -101.5 24t-31.5 52q0 25 17 41t35 16q9 0 20.5 -14.5t21.5 -28.5q10 -15 22 -28.5t30 -13.5q20 0 37.5 27.5t34 77t32.5 114.5l59 237q30 123 67 213t80 148.5t92.5 87.5t106.5 29q35 0 68 -12t55 -33t24 -47
l-53 -78q-12 67 -39.5 92t-57.5 25q-35 0 -60.5 -20.5t-48 -68.5t-46 -128.5t-53.5 -199.5l-65 -255q-12 -46 -38.5 -91.5t-61 -83t-72.5 -60t-74 -22.5z" />
  </g>

</svg>
