<?xml version="1.0" standalone="no"?>
<!DOCTYPE svg PUBLIC "-//W3C//DTD SVG 1.1//EN" "http://www.w3.org/Graphics/SVG/1.1/DTD/svg11.dtd" >
<svg xmlns="http://www.w3.org/2000/svg" xmlns:xlink="http://www.w3.org/1999/xlink" version="1.1" viewBox="-39 0 525 1000">
  <g transform="matrix(1 0 0 -1 0 800)">
   <path fill="currentColor"
d="M208 199l-34 51l146 70q12 4 20.5 6.5t17.5 1.5q35 -3 33 -26q-1 -11 -5 -15.5t-10 -6.5zM34 141q-13 2 -26.5 8t-12.5 17q1 14 16 21l128 62l33 -52l-102 -48q-10 -4 -18.5 -6.5t-17.5 -1.5zM-20 -3q-5 0 -7 4t-1 9q1 3 5.5 8t15.5 9q25 7 36.5 13t17.5 28l93 301
q8 22 2.5 32t-32.5 19q-7 2 -10.5 7t-0.5 13q2 8 9.5 10.5t12.5 2.5q15 0 36.5 -1t42.5 -2t36 -1q14 0 36.5 1t45 1.5t36.5 0.5q8 0 10.5 -3.5t0.5 -9.5q-2 -7 -9 -11.5t-13 -6.5q-23 -5 -34.5 -19t-18.5 -38l-91 -293q-6 -20 0 -26.5t16 -6.5h61q35 0 60.5 23.5t50.5 56.5
q9 13 18 19t15 6q8 0 9.5 -7t-0.5 -14q-2 -5 -10.5 -20.5t-19.5 -34.5t-19.5 -34.5t-10.5 -20.5q-2 -4 -8.5 -9.5t-14.5 -5.5q-10 0 -37.5 0.5t-65 1.5t-77.5 1.5t-76 0.5q-20 -1 -48 -2.5t-62 -1.5z" />
  </g>

</svg>
