<?xml version="1.0" standalone="no"?>
<!DOCTYPE svg PUBLIC "-//W3C//DTD SVG 1.1//EN" "http://www.w3.org/Graphics/SVG/1.1/DTD/svg11.dtd" >
<svg xmlns="http://www.w3.org/2000/svg" xmlns:xlink="http://www.w3.org/1999/xlink" version="1.1" viewBox="-40 0 536 1000">
  <g transform="matrix(1 0 0 -1 0 800)">
   <path fill="currentColor"
d="M-15 -93q-6 0 -8.5 5.5t-0.5 12.5l2 4l67 121l-59 -2q-10 -1 -13.5 6t-1.5 13q8 24 17 39t20 22.5t21 7.5l65 3l53 97l-67 -3q-10 -1 -13.5 6t-1.5 14q7 23 16.5 38t20 22.5t20.5 7.5l75 3l60 108q8 16 20 20.5t28 4.5q6 0 7.5 -5.5t-0.5 -11.5q-1 -3 -2.5 -4.5
t-2.5 -3.5l-59 -105l106 6l63 112q7 16 19.5 20.5t28.5 4.5q5 0 6.5 -5.5t-0.5 -12.5q-1 -2 -2 -3.5t-2 -3.5l-61 -109l60 3q12 1 16.5 -5t1.5 -15q-4 -15 -14.5 -30.5t-23 -26t-23.5 -11.5l-66 -3l-54 -98l69 3q12 0 16.5 -6t1.5 -15q-4 -14 -14.5 -30t-23 -26t-22.5 -11
l-76 -3l-64 -116q-8 -15 -18 -18.5t-24 -3.5q-7 0 -9.5 5.5t-0.5 12.5l1 4l64 113l-106 -6l-68 -124q-9 -14 -19 -18t-25 -4zM145 141l106 6l54 98l-105 -6z" />
  </g>

</svg>
