<?xml version="1.0" standalone="no"?>
<!DOCTYPE svg PUBLIC "-//W3C//DTD SVG 1.1//EN" "http://www.w3.org/Graphics/SVG/1.1/DTD/svg11.dtd" >
<svg xmlns="http://www.w3.org/2000/svg" xmlns:xlink="http://www.w3.org/1999/xlink" version="1.1" viewBox="-10 0 504 1000">
  <g transform="matrix(1 0 0 -1 0 800)">
   <path fill="currentColor"
d="M155 -14q-38 0 -71.5 18t-53.5 50t-20 74q0 46 19.5 99t57.5 99.5t91.5 76.5t121.5 30q67 0 107.5 -38t40.5 -105q0 -46 -19.5 -98.5t-57.5 -99t-92.5 -76.5t-123.5 -30zM174 25q20 0 40.5 22t39 58.5t33.5 80.5t23.5 88t8.5 80q0 21 -8 31.5t-26 10.5q-17 0 -37 -21.5
t-39 -58t-34.5 -80t-25.5 -87t-10 -80.5q0 -22 10 -33t25 -11zM328 476q-44 0 -68 18.5t-31 47t1 54.5q5 18 15 26t18 8q9 0 12 -5.5t2 -15.5q-2 -27 14.5 -39t51.5 -12t59 12t39 39q4 10 11.5 15.5t16.5 5.5q8 0 12 -8t1 -26q-4 -21 -23.5 -49.5t-53 -49.5t-77.5 -21z" />
  </g>

</svg>
