<?xml version="1.0" standalone="no"?>
<!DOCTYPE svg PUBLIC "-//W3C//DTD SVG 1.1//EN" "http://www.w3.org/Graphics/SVG/1.1/DTD/svg11.dtd" >
<svg xmlns="http://www.w3.org/2000/svg" xmlns:xlink="http://www.w3.org/1999/xlink" version="1.1" viewBox="-10 0 690 1000">
  <g transform="matrix(1 0 0 -1 0 800)">
   <path fill="currentColor"
d="M229 -14q-55 0 -98.5 23t-68.5 63t-25 92q0 57 25.5 109.5t71.5 94t106.5 66t131.5 24.5q31 0 54 -6t41 -14q23 -10 40 -19.5t33 -9.5q12 0 24 7.5t12 24.5q0 7 -4 11.5t-10 7.5q-7 4 -12.5 8.5t-5.5 12.5q0 17 18.5 32t41 24.5t37.5 9.5t22 -16.5t7 -34.5q0 -33 -15 -59
t-39 -45t-51 -28q-6 -3 -10 -5.5t-2 -7.5q6 -17 9.5 -34.5t3.5 -36.5q0 -56 -26 -108.5t-72 -94.5t-107 -66.5t-132 -24.5zM239 20q27 0 55 19.5t52 52t42.5 72t30 79.5t12.5 74q0 31 -7.5 55t-23.5 38.5t-39 14.5q-27 0 -53.5 -20t-50.5 -52t-42 -72t-29 -79.5t-12 -74.5
q-1 -29 6 -53.5t22 -39t37 -14.5z" />
  </g>

</svg>
