<?xml version="1.0" standalone="no"?>
<!DOCTYPE svg PUBLIC "-//W3C//DTD SVG 1.1//EN" "http://www.w3.org/Graphics/SVG/1.1/DTD/svg11.dtd" >
<svg xmlns="http://www.w3.org/2000/svg" xmlns:xlink="http://www.w3.org/1999/xlink" version="1.1" viewBox="-52 0 434 1000">
  <g transform="matrix(1 0 0 -1 0 800)">
   <path fill="currentColor"
d="M-27 -5q-5 0 -10 5t-5 12q0 6 9 10.5t16 5.5q13 2 28 6t29.5 15.5t21.5 38.5l76 244q8 27 2.5 39.5t-18 16.5t-24.5 5q-5 0 -12 4.5t-7 11.5q0 9 11.5 12.5t16.5 3.5q34 0 51 -1.5t31.5 -3t40.5 -1.5q25 0 40 1.5t32.5 3t51.5 1.5q7 0 12.5 -3.5t5.5 -10.5t-8.5 -12
t-13.5 -6q-21 -4 -36 -8t-25.5 -15t-19.5 -38l-76 -244q-7 -25 -4.5 -36.5t14.5 -15.5t31 -8q7 -1 11 -5t4 -11q0 -6 -8.5 -11.5t-16.5 -5.5q-35 0 -52 2t-31 3.5t-40 1.5t-42 -1.5t-34.5 -3.5t-51.5 -2z" />
  </g>

</svg>
