<?xml version="1.0" standalone="no"?>
<!DOCTYPE svg PUBLIC "-//W3C//DTD SVG 1.1//EN" "http://www.w3.org/Graphics/SVG/1.1/DTD/svg11.dtd" >
<svg xmlns="http://www.w3.org/2000/svg" xmlns:xlink="http://www.w3.org/1999/xlink" version="1.1" viewBox="-20 0 544 1000">
  <g transform="matrix(1 0 0 -1 0 800)">
   <path fill="currentColor"
d="M103 -192q-41 0 -68.5 17t-38 44t-2.5 58q13 49 41 77t56 28q24 0 33.5 -8.5t9.5 -23.5q0 -21 -17 -31.5t-32 -17.5q-14 -6 -26.5 -14t-16.5 -26q-7 -26 9 -43t58 -17q32 0 66 25t53 87l27 89q2 8 0.5 13t-10.5 5q-104 0 -156 36.5t-52 106.5q0 65 28 110.5t78 73.5
t116 41.5t143 13.5q38 0 63.5 -2t38.5 -4q7 0 8.5 -10.5t-0.5 -16.5q-3 -12 -10 -20.5t-13 -8.5q-3 0 -14.5 2t-24 3.5t-20.5 1.5t-14.5 -5t-8.5 -11l-129 -421q-11 -38 -35.5 -73t-59.5 -57t-80 -22zM258 110q8 0 11 9l89 271q2 6 -0.5 10t-10.5 4q-19 0 -38.5 -13.5
t-37.5 -42.5t-36 -77q-8 -25 -14 -51.5t-6 -45.5q0 -28 10 -46t33 -18z" />
  </g>

</svg>
