<?xml version="1.0" standalone="no"?>
<!DOCTYPE svg PUBLIC "-//W3C//DTD SVG 1.1//EN" "http://www.w3.org/Graphics/SVG/1.1/DTD/svg11.dtd" >
<svg xmlns="http://www.w3.org/2000/svg" xmlns:xlink="http://www.w3.org/1999/xlink" version="1.1" viewBox="-10 0 646 1000">
  <g transform="matrix(1 0 0 -1 0 800)">
   <path fill="currentColor"
d="M125 -15q-24 0 -39.5 9t-22 20t-6.5 16v16q38 45 68 90t54.5 87t41.5 77q4 8 0.5 14.5t-13.5 7.5l-40 2q-44 3 -69 -14.5t-26 -54.5q-1 -7 0 -14.5t-11 -7.5q-10 0 -18.5 11.5t-8.5 30.5q0 52 27.5 87t81.5 52.5t133 17.5q31 0 72 -2t82.5 -3.5t73.5 -1.5q24 0 42.5 4
t28.5 11t16.5 15t12.5 8q11 0 16 -4.5t5 -18.5q0 -19 -10 -43t-28.5 -46t-43 -37t-52.5 -15q-13 0 -23 0.5t-20 0.5q-11 0 -18.5 -5.5t-12.5 -15.5q-8 -19 -16 -43.5t-15 -48t-12 -39.5q-6 -23 0 -33t20 -10q13 0 31 11.5t29 21.5q6 6 12 11.5t7 5.5q17 0 17 -20
q0 -13 -15 -38t-39.5 -50.5t-51.5 -43t-51 -17.5q-27 0 -45.5 22.5t-6.5 61.5q7 23 18 50.5t23.5 57t25 56.5t21.5 48q5 10 2 16.5t-11 7.5l-75 8q-9 1 -16.5 -5t-11.5 -16q-29 -79 -48.5 -128.5t-32 -80t-22.5 -53.5q-8 -15 -15.5 -30.5t-14.5 -15.5z" />
  </g>

</svg>
