<?xml version="1.0" standalone="no"?>
<!DOCTYPE svg PUBLIC "-//W3C//DTD SVG 1.1//EN" "http://www.w3.org/Graphics/SVG/1.1/DTD/svg11.dtd" >
<svg xmlns="http://www.w3.org/2000/svg" xmlns:xlink="http://www.w3.org/1999/xlink" version="1.1" viewBox="-10 0 403 1000">
  <g transform="matrix(1 0 0 -1 0 800)">
   <path fill="currentColor"
d="M138 130q-7 0 -20.5 13t-24 33.5t-10.5 44.5q1 27 13.5 46t44.5 34.5t90 30.5q35 9 59 18.5t36 22t10 30.5q-1 17 -16 33t-46 16q-14 0 -28 -7.5t-25 -12.5q-8 -4 -19.5 -9t-21.5 -5q-18 0 -28.5 10.5t-12.5 25.5q-1 23 22.5 39t67.5 16q41 0 76 -18.5t56.5 -52
t21.5 -79.5q0 -32 -23 -60.5t-71 -44.5l-92 -30q-27 -9 -36 -17.5t-9 -23.5q0 -6 2 -11l4 -10t3 -9.5t1 -9.5t-8.5 -9t-15.5 -4zM102 -45q-23 0 -39 17t-16 39q0 35 25.5 60.5t58.5 25.5q29 0 43.5 -19.5t14.5 -41.5q0 -32 -25.5 -56.5t-61.5 -24.5z" />
  </g>

</svg>
