<?xml version="1.0" standalone="no"?>
<!DOCTYPE svg PUBLIC "-//W3C//DTD SVG 1.1//EN" "http://www.w3.org/Graphics/SVG/1.1/DTD/svg11.dtd" >
<svg xmlns="http://www.w3.org/2000/svg" xmlns:xlink="http://www.w3.org/1999/xlink" version="1.1" viewBox="-10 0 721 1000">
  <g transform="matrix(1 0 0 -1 0 800)">
   <path fill="currentColor"
d="M390 17q-64 0 -120 24t-99 66.5t-67 99t-24 120.5q0 65 24.5 121t67 98.5t99 66.5t120.5 24q65 0 121 -24t98.5 -66.5t66.5 -98.5t24 -121q0 -64 -24 -120.5t-67 -99t-99 -66.5t-121 -24zM390 66q53 0 100 20.5t81.5 56.5t54.5 83.5t20 100.5q0 52 -20 98.5t-55 81.5
t-81 55t-99 20q-52 0 -98.5 -20t-82 -55t-55 -81.5t-19.5 -98.5q0 -53 19.5 -100.5t54.5 -83.5t81 -56.5t99 -20.5zM517 171q-16 0 -34.5 11.5t-37 30.5t-35 43.5t-28.5 50.5q-2 5 -6 8t-11 3q-4 0 -6 -2t-2 -7v-81q0 -15 10 -21t30 -11q5 -1 9 -4t4 -10q0 -5 -3.5 -8.5
t-8.5 -3.5q-17 0 -42 1.5t-42 1.5q-10 0 -23 -0.5t-26 -1.5t-25 -1q-4 0 -8 4t-4 8q0 6 4 9.5t9 4.5q18 5 25 11t7 21v210q0 13 -2 19.5t-9 10t-18 6.5q-13 1 -13 12q0 8 12 8q24 -1 38 -3t33 -2q20 0 34 2t43 3q60 0 93 -19.5t33 -60.5q0 -34 -19.5 -51.5t-42.5 -27.5
q-3 -2 -2.5 -4.5t2.5 -4.5q16 -40 38.5 -66t44 -38t34.5 -12q3 0 6 -1.5t3 -6.5q0 -13 -16 -22t-48 -9zM376 354q30 0 45.5 14.5t15.5 35.5q0 28 -14 41t-40 13q-16 0 -22 -5t-6 -15v-69q0 -8 5.5 -11.5t15.5 -3.5z" />
  </g>

</svg>
