<?xml version="1.0" standalone="no"?>
<!DOCTYPE svg PUBLIC "-//W3C//DTD SVG 1.1//EN" "http://www.w3.org/Graphics/SVG/1.1/DTD/svg11.dtd" >
<svg xmlns="http://www.w3.org/2000/svg" xmlns:xlink="http://www.w3.org/1999/xlink" version="1.1" viewBox="-10 0 397 1000">
  <g transform="matrix(1 0 0 -1 0 800)">
   <path fill="currentColor"
d="M257 422q-33 0 -60 16t-43 43t-16 60q0 34 16 61t43.5 43t59.5 16q34 0 61 -16t43 -43t16 -61q0 -33 -16.5 -60t-43 -43t-60.5 -16zM257 446q40 0 67 28t27 67t-27 66.5t-67 27.5q-38 0 -65.5 -27.5t-27.5 -66.5q0 -38 27 -66.5t66 -28.5zM200 475q-3 0 -3 6q0 4 3 5
q8 2 11.5 5t3.5 8v87q0 10 -13 14q-4 0 -4 5q0 3 4 3h15t14 1q6 0 11.5 0.5t16.5 0.5q24 0 36.5 -8.5t12.5 -25.5q0 -13 -6.5 -19.5t-14.5 -10.5q-1 -1 -1 -1.5t1 -1.5q4 -9 9.5 -19.5t10.5 -20.5q8 -12 18 -12q2 0 2 -4q0 -13 -23 -13q-8 0 -15 5t-12 13l-21 39
q-1 2 -2 3.5t-3 1.5q-3 0 -3 -4v-33q0 -9 16 -12l2 -2t1 -4q0 -5 -3 -5q-7 0 -17 0.5t-16 0.5q-7 0 -15.5 -1t-15.5 -1zM254 552q11 0 17 5.5t6 14.5q0 11 -5 16.5t-15 5.5t-10 -7v-28q0 -7 7 -7z" />
  </g>

</svg>
