<?xml version="1.0" standalone="no"?>
<!DOCTYPE svg PUBLIC "-//W3C//DTD SVG 1.1//EN" "http://www.w3.org/Graphics/SVG/1.1/DTD/svg11.dtd" >
<svg xmlns="http://www.w3.org/2000/svg" xmlns:xlink="http://www.w3.org/1999/xlink" version="1.1" viewBox="-35 0 478 1000">
  <g transform="matrix(1 0 0 -1 0 800)">
   <path fill="currentColor"
d="M150 -12q-28 0 -51 2.5t-42 10.5q-11 5 -19 7.5t-10 2.5q-4 0 -8.5 -2t-9.5 -4q-4 -3 -9 -5.5t-9 -2.5q-5 0 -11 5t-6 9q0 6 8.5 22.5t18.5 39.5t13 48q2 12 6.5 17t13.5 5t11.5 -10.5t2.5 -31.5q0 -32 24 -55t67 -23q33 0 52 17.5t19 41.5q0 18 -10.5 37.5t-43.5 48.5
q-30 27 -48 46t-26 37t-8 42q0 60 49.5 100.5t132.5 40.5q30 0 50.5 -4.5t35.5 -9.5q15 -4 23.5 -6.5t16.5 -2.5q5 0 10 1t10 3q4 2 9.5 4.5t10.5 2.5q8 0 9 -5t-3 -10q-11 -15 -27 -46.5t-24 -58.5q-2 -7 -5.5 -11.5t-11.5 -4.5q-7 0 -9.5 6.5t-3.5 21.5q-3 41 -25.5 63
t-61.5 22q-31 0 -49.5 -16t-18.5 -35q0 -18 11 -38t49 -52q42 -36 61 -62.5t19 -62.5q0 -37 -22 -70.5t-62.5 -54t-98.5 -20.5z" />
  </g>

</svg>
