<?xml version="1.0" standalone="no"?>
<!DOCTYPE svg PUBLIC "-//W3C//DTD SVG 1.1//EN" "http://www.w3.org/Graphics/SVG/1.1/DTD/svg11.dtd" >
<svg xmlns="http://www.w3.org/2000/svg" xmlns:xlink="http://www.w3.org/1999/xlink" version="1.1" viewBox="-35 0 896 1000">
  <g transform="matrix(1 0 0 -1 0 800)">
   <path fill="currentColor"
d="M658 -15q-42 0 -58 50l-42 125q-5 14 -11 20.5t-13 6.5q-6 0 -10 -6.5t-9 -19.5q-6 -14 -12.5 -31.5t-13.5 -35t-13.5 -34.5t-13.5 -32q-6 -13 -22 -24t-39 -11q-15 0 -33 13.5t-18 38.5q0 10 2 20t6 19l156 483q-30 0 -55.5 4t-54 7.5t-70.5 3.5q-52 0 -75 -21t-23 -62
q0 -20 3.5 -35t8.5 -30.5t8 -37.5l-21 -20q-21 37 -37.5 74t-16.5 76q0 60 36.5 100t101.5 40q40 0 74.5 -11.5t69 -23.5t70.5 -12q13 31 41.5 49.5t65.5 18.5q29 0 41 -12.5t12 -29.5q0 -15 -11.5 -33.5t-34.5 -31.5l-99 -280q-3 -8 2.5 -8t9.5 5q26 37 59 68t71 49.5
t79 18.5q30 0 49 -13.5t19 -40.5q0 -24 -15 -49t-38.5 -48t-53.5 -40.5t-61 -26.5q-10 -3 -4 -17l38 -85q4 -7 10.5 -16.5t16.5 -9.5q15 0 36.5 16.5t35.5 36.5l7.5 9t6.5 3t5.5 -4.5t1.5 -8.5q0 -23 -16.5 -49.5t-42.5 -50.5t-54.5 -39t-51.5 -15zM563 211q26 0 53.5 13
t50.5 32.5t37 40t14 36.5q0 14 -9 19.5t-24 5.5q-17 0 -39.5 -17t-43.5 -40.5t-34.5 -45.5t-13.5 -31q0 -4 2.5 -8.5t6.5 -4.5zM69 -14q-42 0 -68 19t-26 50q0 26 11.5 43.5t30.5 17.5q8 0 18 -9.5t22 -22.5q15 -14 33 -30t37 -16q16 0 23.5 9.5t8.5 26.5q1 15 -14 39.5
t-31 47.5q-18 26 -31.5 55t-13.5 57q0 27 18.5 54.5t46 52t55.5 39t46 14.5q25 0 48.5 -11t39 -25.5t15.5 -26.5q0 -11 -10.5 -26.5t-23.5 -27t-25 -11.5t-21.5 9.5t-17.5 19.5q-9 13 -22.5 22.5t-27.5 9.5t-22 -9.5t-8 -21.5q0 -8 8.5 -21t20.5 -28.5t24 -32.5
q29 -37 42 -62.5t13 -50.5q0 -21 -17 -47t-45.5 -51t-64 -40.5t-72.5 -15.5z" />
  </g>

</svg>
