<?xml version="1.0" standalone="no"?>
<!DOCTYPE svg PUBLIC "-//W3C//DTD SVG 1.1//EN" "http://www.w3.org/Graphics/SVG/1.1/DTD/svg11.dtd" >
<svg xmlns="http://www.w3.org/2000/svg" xmlns:xlink="http://www.w3.org/1999/xlink" version="1.1" viewBox="-35 0 901 1000">
  <g transform="matrix(1 0 0 -1 0 800)">
   <path fill="currentColor"
d="M260 376q-21 38 -37.5 74.5t-16.5 75.5q0 60 36 100t102 40q39 0 81 -11.5t83 -23t77 -11.5q13 30 39.5 48.5t63.5 18.5q29 0 41 -12.5t12 -29.5q0 -12 -6.5 -26t-20.5 -27.5t-38 -22.5l-53 -161l-111 4l56 156q-45 0 -96 7t-113 7q-52 0 -75 -21t-23 -62q0 -20 3 -35
t8 -30.5t9 -37.5zM69 -14q-42 0 -68 19t-26 50q0 26 11.5 43.5t30.5 17.5q8 0 18 -9.5t22 -22.5q15 -14 33 -30t37 -16q16 0 23.5 9.5t8.5 26.5q1 15 -14 39.5t-31 47.5q-18 26 -31.5 55t-13.5 57q0 27 18.5 54.5t46 52t55.5 39t46 14.5q25 0 48.5 -11t39 -25.5t15.5 -26.5
q0 -11 -10.5 -26.5t-23.5 -27t-25 -11.5t-21.5 9.5t-17.5 19.5q-9 13 -22.5 22.5t-27.5 9.5t-22 -9.5t-8 -21.5q0 -8 8.5 -21t20.5 -28.5t24 -32.5q29 -37 42 -62.5t13 -50.5q0 -21 -17 -47t-45.5 -51t-64 -40.5t-72.5 -15.5zM233 -285q-4 0 -7.5 3t-2.5 8q1 8 7 12.5
t15 6.5q30 8 44 16t22 32l170 519q4 10 6 19t0 14t-13 2q-20 -5 -35 -10t-37 -13q-8 -3 -16.5 -2t-8.5 12q0 10 8 17t17 11q16 6 36.5 16.5t58.5 24.5q7 3 13 10.5t12 27.5q17 48 43 70.5t57 22.5q18 0 25.5 -11t0.5 -37l-10 -39q-3 -10 -2 -16t5 -5q13 3 26 5t27 2
q53 0 89 -17.5t54.5 -48.5t18.5 -70q0 -53 -23.5 -107.5t-63 -101t-91 -74.5t-107.5 -28q-17 0 -31.5 7t-22.5 13q-13 10 -20 8t-12 -21l-55 -190q-6 -19 5.5 -32t46.5 -22q7 -1 13 -5.5t6 -14.5q0 -5 -6.5 -8.5t-14.5 -3.5q-17 0 -41.5 1t-47.5 1.5t-38 -0.5
q-25 0 -58.5 -2t-61.5 -2zM571 24q19 0 45 21t52 57.5t43 82.5t17 96q0 54 -22 76.5t-59 22.5h-13.5t-13.5 -2l-86 -268q-4 -15 -4 -29t5 -26q6 -14 12.5 -22.5t23.5 -8.5z" />
  </g>

</svg>
