<?xml version="1.0" standalone="no"?>
<!DOCTYPE svg PUBLIC "-//W3C//DTD SVG 1.1//EN" "http://www.w3.org/Graphics/SVG/1.1/DTD/svg11.dtd" >
<svg xmlns="http://www.w3.org/2000/svg" xmlns:xlink="http://www.w3.org/1999/xlink" version="1.1" viewBox="-44 0 587 1000">
  <g transform="matrix(1 0 0 -1 0 800)">
   <path fill="currentColor"
d="M-20 -2q-6 0 -10.5 4t-2.5 12q2 10 9.5 14t13.5 5q31 5 42.5 14t17.5 29l92 298q7 22 1 31t-30 16q-9 2 -12.5 6.5t-1.5 12.5q2 7 9 10t15 3q16 0 37 -1l42 -2t36 -1t38 1t46.5 1.5t38.5 0.5q18 0 14 -13q-3 -12 -24 -17q-29 -8 -39.5 -16t-14.5 -21l-10 -36l-71 9
q17 3 31 5.5t34.5 4t54.5 1.5q53 0 92 -17.5t60 -48.5t19 -72q-1 -48 -33 -81.5t-85 -51.5t-116 -18q-20 0 -28.5 4.5t-8.5 15.5q0 8 11 11t28 5q32 5 55.5 21.5t37 42t14.5 56.5q2 37 -6 58t-21 29.5t-29 8.5q-18 0 -33.5 -9t-22.5 -29l-66 -208q-9 -26 1 -37t43 -16
q7 -1 10 -5t1 -13q-2 -8 -8.5 -12t-14.5 -4q-15 0 -42 0.5l-54 1t-43 0.5q-15 0 -36.5 -0.5t-42.5 -1.5t-38 -1z" />
  </g>

</svg>
