<?xml version="1.0" standalone="no"?>
<!DOCTYPE svg PUBLIC "-//W3C//DTD SVG 1.1//EN" "http://www.w3.org/Graphics/SVG/1.1/DTD/svg11.dtd" >
<svg xmlns="http://www.w3.org/2000/svg" xmlns:xlink="http://www.w3.org/1999/xlink" version="1.1" viewBox="-10 0 1058 1000">
  <g transform="matrix(1 0 0 -1 0 800)">
   <path fill="currentColor"
d="M80 506h41v-104h-41v104zM80 349h41v-104h-41v104zM80 193h41v-104h-41v104zM80 36h41v-104h-41v104zM856 -184h71v64h41v-105h-112v41zM243 622v41h103v-41h-103zM399 622v41h103v-41h-103zM554 622v41h103v-41h-103zM710 622v41h103v-41h-103zM968 -68h-41v104h41v-104
zM968 89h-41v104h41v-104zM968 245h-41v104h41v-104zM968 402h-41v104h41v-104zM807 -184v-41h-102v41h102zM653 -184v-41h-102v41h102zM499 -184v-41h-101v41h101zM345 -184v-41h-102v41h102zM191 -225h-111v105h41v-64h70v-41zM927 559v63h-71v41h112v-104h-41zM80 559
v104h112v-41h-71v-63h-41zM490 -14q-71 0 -125.5 30.5t-77 86.5t-1.5 132q15 60 62.5 110.5t119.5 81.5t159 31q26 0 45.5 -4t33.5 -9q14 -4 22.5 -7t16.5 -3q4 0 8.5 1t9.5 4t10.5 5.5t10.5 2.5q8 0 9.5 -5.5t-3.5 -12.5q-9 -12 -19 -32t-18 -41.5t-14 -38.5
q-2 -7 -6.5 -12t-13.5 -6q-11 0 -15 7.5t-3 21.5q2 21 -2 39.5t-15 30.5q-10 14 -25 21.5t-38 7.5q-27 0 -55 -14.5t-55.5 -42.5t-49.5 -70t-37 -99q-13 -50 -6 -92.5t32 -68t64 -25.5q19 0 36.5 13.5t25.5 38.5l24 75q3 10 1 17t-13 12q-10 3 -17 6t-17 5q-7 2 -12 6t-4 10
q2 5 8.5 7.5t13.5 2.5q18 0 38.5 -1t40.5 -2.5t36 -1.5q21 0 42.5 2.5t52.5 2.5q15 0 11 -11q-1 -7 -6 -10t-14 -5q-13 -4 -20.5 -13t-15.5 -23q-6 -11 -12.5 -26.5t-10.5 -28.5q-5 -15 -3 -24t14 -20q-1 -5 -7.5 -9.5t-14.5 -9.5q-15 -8 -40.5 -15.5t-55.5 -14t-57.5 -10
t-47.5 -3.5z" />
  </g>

</svg>
