<?xml version="1.0" standalone="no"?>
<!DOCTYPE svg PUBLIC "-//W3C//DTD SVG 1.1//EN" "http://www.w3.org/Graphics/SVG/1.1/DTD/svg11.dtd" >
<svg xmlns="http://www.w3.org/2000/svg" xmlns:xlink="http://www.w3.org/1999/xlink" version="1.1" viewBox="-10 0 1058 1000">
  <g transform="matrix(1 0 0 -1 0 800)">
   <path fill="currentColor"
d="M80 506h41v-104h-41v104zM80 349h41v-104h-41v104zM80 193h41v-104h-41v104zM80 36h41v-104h-41v104zM856 -184h71v64h41v-105h-112v41zM243 622v41h103v-41h-103zM399 622v41h103v-41h-103zM554 622v41h103v-41h-103zM710 622v41h103v-41h-103zM968 -68h-41v104h41v-104
zM968 89h-41v104h41v-104zM968 245h-41v104h41v-104zM968 402h-41v104h41v-104zM807 -184v-41h-102v41h102zM653 -184v-41h-102v41h102zM499 -184v-41h-101v41h101zM345 -184v-41h-102v41h102zM191 -225h-111v105h41v-64h70v-41zM927 559v63h-71v41h112v-104h-41zM80 559
v104h112v-41h-71v-63h-41zM309 -5q-10 0 -14.5 5t-3.5 9q2 8 11 12.5t17 5.5q32 6 46.5 19.5t19.5 34.5l27 86q8 22 9 35t-1.5 24.5t-9.5 26.5l-55 137q-5 14 -12.5 21.5t-29.5 11.5q-8 1 -12.5 5t-2.5 11q1 6 7.5 9.5t13.5 3.5q30 0 51.5 -1.5t41.5 -2.5t44 -1q20 0 36 1.5
t34.5 3.5t43.5 2q20 0 17 -13q-2 -7 -9.5 -11t-16.5 -6q-32 -6 -42.5 -18.5t-3.5 -35.5l36 -118q4 -15 18 0l101 120q19 22 12.5 36t-34.5 16q-8 2 -13.5 6.5t-3.5 11.5q1 5 9.5 8t16.5 3q23 0 40.5 -3t39.5 -3q23 0 42.5 4.5t45.5 4.5q8 0 15.5 -2.5t4.5 -11.5
q-2 -7 -8.5 -10.5t-12.5 -4.5q-17 -4 -32.5 -10t-26.5 -12t-14 -9l-142 -148q-14 -14 -26 -33t-17 -37l-31 -97q-5 -19 -4 -28.5t10.5 -14t27.5 -11.5q7 -2 12.5 -5t4.5 -11q-2 -6 -9 -10t-16 -4q-15 0 -40 1.5t-49.5 3t-38.5 1.5t-37 -1.5t-46.5 -4t-40.5 -2.5z" />
  </g>

</svg>
