<?xml version="1.0" standalone="no"?>
<!DOCTYPE svg PUBLIC "-//W3C//DTD SVG 1.1//EN" "http://www.w3.org/Graphics/SVG/1.1/DTD/svg11.dtd" >
<svg xmlns="http://www.w3.org/2000/svg" xmlns:xlink="http://www.w3.org/1999/xlink" version="1.1" viewBox="-10 0 1058 1000">
  <g transform="matrix(1 0 0 -1 0 800)">
   <path fill="currentColor"
d="M80 506h41v-104h-41v104zM80 349h41v-104h-41v104zM80 193h41v-104h-41v104zM80 36h41v-104h-41v104zM856 -184h71v64h41v-105h-112v41zM243 622v41h103v-41h-103zM399 622v41h103v-41h-103zM554 622v41h103v-41h-103zM710 622v41h103v-41h-103zM968 -68h-41v104h41v-104
zM968 89h-41v104h41v-104zM968 245h-41v104h41v-104zM968 402h-41v104h41v-104zM807 -184v-41h-102v41h102zM653 -184v-41h-102v41h102zM499 -184v-41h-101v41h101zM345 -184v-41h-102v41h102zM191 -225h-111v105h41v-64h70v-41zM927 559v63h-71v41h112v-104h-41zM80 559
v104h112v-41h-71v-63h-41zM331 -1q-6 0 -10.5 4t-3.5 9q3 9 10 13t14 5q30 6 42.5 12.5t18.5 25.5l97 316q5 16 0 21.5t-16 5.5h-23q-15 0 -31.5 -10t-32.5 -24.5t-31 -28.5q-5 -6 -14.5 -16t-20 -17.5t-19.5 -7.5q-4 0 -8 3t-3 9q2 9 11.5 21.5t24.5 37.5t30 68
q4 11 11 15.5t16 4.5q4 0 10.5 -2.5t16.5 -6.5t24.5 -7.5t29.5 -3.5h224q25 0 46 4t37 9q13 3 21 6t12 3q7 0 8.5 -4.5t-0.5 -11.5q-13 -38 -17 -66t-12 -50q-1 -5 -8.5 -17.5t-17.5 -11.5q-8 0 -12.5 5.5t-3.5 20.5q1 22 -4 39.5t-14 28t-21 10.5h-26q-13 0 -24 -9.5
t-14 -19.5l-96 -314q-5 -16 4.5 -25t31.5 -14q6 -1 10.5 -5t1.5 -12q-1 -6 -8 -9.5t-14 -3.5q-14 0 -38 1t-49 1.5t-39 0.5t-36.5 -0.5t-45.5 -1.5t-39 -1z" />
  </g>

</svg>
