<?xml version="1.0" standalone="no"?>
<!DOCTYPE svg PUBLIC "-//W3C//DTD SVG 1.1//EN" "http://www.w3.org/Graphics/SVG/1.1/DTD/svg11.dtd" >
<svg xmlns="http://www.w3.org/2000/svg" xmlns:xlink="http://www.w3.org/1999/xlink" version="1.1" viewBox="-10 0 1058 1000">
  <g transform="matrix(1 0 0 -1 0 800)">
   <path fill="currentColor"
d="M80 506h41v-104h-41v104zM80 349h41v-104h-41v104zM80 193h41v-104h-41v104zM80 36h41v-104h-41v104zM856 -184h71v64h41v-105h-112v41zM243 622v41h103v-41h-103zM399 622v41h103v-41h-103zM554 622v41h103v-41h-103zM710 622v41h103v-41h-103zM968 -68h-41v104h41v-104
zM968 89h-41v104h41v-104zM968 245h-41v104h41v-104zM968 402h-41v104h41v-104zM807 -184v-41h-102v41h102zM653 -184v-41h-102v41h102zM499 -184v-41h-101v41h101zM345 -184v-41h-102v41h102zM191 -225h-111v105h41v-64h70v-41zM927 559v63h-71v41h112v-104h-41zM80 559
v104h112v-41h-71v-63h-41zM499 -13q-54 0 -100.5 25t-75 68t-28.5 97q0 64 28.5 115t76.5 88.5t109 57.5t127 20q25 0 44.5 -4t34.5 -9q14 -4 22 -7t16 -3q5 0 9.5 1.5t8.5 3.5l11 5.5t10 2.5q10 0 10 -6.5t-3 -11.5q-9 -12 -19 -31.5t-19.5 -41t-14.5 -38.5
q-2 -8 -8.5 -14.5t-14.5 -6.5t-11 7.5t-2 22.5q1 17 -1 33.5t-10 28.5q-10 14 -25.5 25t-34.5 11q-45 0 -80.5 -25.5t-60 -66t-38 -87.5t-13.5 -90q0 -44 16 -73t41.5 -43.5t53.5 -14.5q23 0 44 11t39 31t32 45q5 9 9.5 14.5t8.5 5.5q7 0 11.5 -6.5t2.5 -14.5
q-4 -15 -11.5 -36t-16.5 -40.5t-17.5 -32.5t-12.5 -14q-7 0 -10.5 3t-8.5 5q-4 3 -9 4.5t-16 1.5q-7 0 -16 -2t-21 -5t-29 -6t-38 -3z" />
  </g>

</svg>
