<?xml version="1.0" standalone="no"?>
<!DOCTYPE svg PUBLIC "-//W3C//DTD SVG 1.1//EN" "http://www.w3.org/Graphics/SVG/1.1/DTD/svg11.dtd" >
<svg xmlns="http://www.w3.org/2000/svg" xmlns:xlink="http://www.w3.org/1999/xlink" version="1.1" viewBox="-10 0 1058 1000">
  <g transform="matrix(1 0 0 -1 0 800)">
   <path fill="currentColor"
d="M80 506h41v-104h-41v104zM80 349h41v-104h-41v104zM80 193h41v-104h-41v104zM80 36h41v-104h-41v104zM856 -184h71v64h41v-105h-112v41zM243 622v41h103v-41h-103zM399 622v41h103v-41h-103zM554 622v41h103v-41h-103zM710 622v41h103v-41h-103zM968 -68h-41v104h41v-104
zM968 89h-41v104h41v-104zM968 245h-41v104h41v-104zM968 402h-41v104h41v-104zM807 -184v-41h-102v41h102zM653 -184v-41h-102v41h102zM499 -184v-41h-101v41h101zM345 -184v-41h-102v41h102zM191 -225h-111v105h41v-64h70v-41zM927 559v63h-71v41h112v-104h-41zM80 559
v104h112v-41h-71v-63h-41zM480 -13q-67 0 -111.5 27.5t-59 75t3.5 108.5l51 163q4 11 4.5 24t-5.5 24t-23 15q-9 2 -12.5 6.5t-1.5 9.5t9 9t14 4q21 0 41 -1t38 -2t33 -1q17 0 40 1t47.5 1.5t45.5 0.5q19 0 16 -12q-3 -10 -19.5 -15.5t-30.5 -10.5q-12 -5 -21 -12.5
t-14 -18.5t-12 -29l-55 -174q-10 -37 -2 -64.5t30.5 -43t51.5 -15.5q53 0 94 35.5t57 93.5l38 130q10 38 10.5 64t-14.5 34q-16 8 -27.5 12.5t-9.5 13.5q1 6 8 9.5t19 3.5q22 0 32.5 -0.5t19 -1.5t24.5 -1q15 0 25 1t21 1.5t29 0.5q7 0 11.5 -2.5t3.5 -10.5q-5 -12 -24 -17
q-32 -8 -45.5 -22t-22.5 -42l-51 -160q-31 -96 -92.5 -154t-163.5 -58z" />
  </g>

</svg>
