<?xml version="1.0" standalone="no"?>
<!DOCTYPE svg PUBLIC "-//W3C//DTD SVG 1.1//EN" "http://www.w3.org/Graphics/SVG/1.1/DTD/svg11.dtd" >
<svg xmlns="http://www.w3.org/2000/svg" xmlns:xlink="http://www.w3.org/1999/xlink" version="1.1" viewBox="-10 0 1058 1000">
  <g transform="matrix(1 0 0 -1 0 800)">
   <path fill="currentColor"
d="M80 506h41v-104h-41v104zM80 349h41v-104h-41v104zM80 193h41v-104h-41v104zM80 36h41v-104h-41v104zM856 -184h71v64h41v-105h-112v41zM243 622v41h103v-41h-103zM399 622v41h103v-41h-103zM554 622v41h103v-41h-103zM710 622v41h103v-41h-103zM968 -68h-41v104h41v-104
zM968 89h-41v104h41v-104zM968 245h-41v104h41v-104zM968 402h-41v104h41v-104zM807 -184v-41h-102v41h102zM653 -184v-41h-102v41h102zM499 -184v-41h-101v41h101zM345 -184v-41h-102v41h102zM191 -225h-111v105h41v-64h70v-41zM927 559v63h-71v41h112v-104h-41zM80 559
v104h112v-41h-71v-63h-41zM179 -1q-5 0 -10 3t-4 9q2 8 9 12.5t15 5.5q25 5 36.5 12.5t17.5 27.5l94 304q7 23 1 32t-29 17q-5 2 -9.5 6t-1.5 14q2 5 7.5 8t10.5 3q15 0 36 -1t42.5 -2t37.5 -1q15 0 38.5 1t47.5 1.5t38 0.5q7 0 11 -3.5t2 -9.5q-2 -7 -9 -11.5t-16 -6.5
q-27 -4 -38 -16t-19 -34l-32 -105q-3 -12 8 -12q20 0 37.5 -1.5t35.5 -1.5q17 0 35 1.5t36 1.5q12 0 15 11l32 105q8 24 1 35t-28 17q-4 2 -9 6.5t-3 11.5t9 9.5t14 2.5q14 0 36 -0.5t44.5 -1.5t35.5 -1q17 0 39.5 1t44.5 2t37 1q6 0 11 -3t3 -8q-2 -7 -8 -12t-15 -7
q-29 -7 -40 -15.5t-19 -33.5l-94 -305q-6 -19 2 -26.5t30 -12.5q7 -1 9.5 -6t0.5 -13q-1 -7 -7 -9.5t-13 -2.5q-11 0 -32.5 1t-44 1.5t-38.5 0.5q-15 0 -39 -0.5t-48 -1.5t-38 -1q-5 0 -10 3.5t-3 10.5q3 9 10 13t14 5q25 5 38 14t18 27l38 123q4 12 -9 12q-19 0 -36.5 0.5
t-35.5 0.5q-17 0 -33.5 -0.5t-35.5 -0.5q-14 0 -17 -14l-40 -125q-5 -19 2.5 -26t27.5 -12q5 -1 9 -4.5t2 -11.5q-1 -7 -8.5 -11t-15.5 -4q-11 0 -33.5 1t-45.5 1.5t-37 0.5q-15 0 -37.5 -0.5t-43.5 -1.5t-34 -1z" />
  </g>

</svg>
