<?xml version="1.0" standalone="no"?>
<!DOCTYPE svg PUBLIC "-//W3C//DTD SVG 1.1//EN" "http://www.w3.org/Graphics/SVG/1.1/DTD/svg11.dtd" >
<svg xmlns="http://www.w3.org/2000/svg" xmlns:xlink="http://www.w3.org/1999/xlink" version="1.1" viewBox="-10 0 1058 1000">
  <g transform="matrix(1 0 0 -1 0 800)">
   <path fill="currentColor"
d="M80 506h41v-104h-41v104zM80 349h41v-104h-41v104zM80 193h41v-104h-41v104zM80 36h41v-104h-41v104zM856 -184h71v64h41v-105h-112v41zM243 622v41h103v-41h-103zM399 622v41h103v-41h-103zM554 622v41h103v-41h-103zM710 622v41h103v-41h-103zM968 -68h-41v104h41v-104
zM968 89h-41v104h41v-104zM968 245h-41v104h41v-104zM968 402h-41v104h41v-104zM807 -184v-41h-102v41h102zM653 -184v-41h-102v41h102zM499 -184v-41h-101v41h101zM345 -184v-41h-102v41h102zM191 -225h-111v105h41v-64h70v-41zM927 559v63h-71v41h112v-104h-41zM80 559
v104h112v-41h-71v-63h-41zM223 -5q-9 0 -13.5 5t-3.5 9q2 7 9.5 12t15.5 6q28 4 41 14.5t18 29.5l95 303q7 23 2.5 32.5t-31.5 15.5q-8 2 -12 6.5t-3 10.5q2 6 9 10t14 4q17 0 39 -1t42 -2.5t30 -1.5q11 0 32 1.5t44.5 3t41.5 1.5q73 0 124 -26.5t78 -70t27 -93.5
q0 -54 -26 -102.5t-71.5 -86t-107 -59t-133.5 -21.5q-39 0 -67.5 1.5t-48.5 2.5t-36 1q-15 0 -34.5 -1t-39 -2.5t-35.5 -1.5zM479 22q44 0 80 27.5t61.5 71t39.5 94t14 94.5q0 35 -8.5 60t-26 39t-45.5 14q-23 0 -37 -12.5t-23 -40.5l-90 -289q-6 -19 -7 -32t8.5 -19.5
t33.5 -6.5z" />
  </g>

</svg>
