<?xml version="1.0" standalone="no"?>
<!DOCTYPE svg PUBLIC "-//W3C//DTD SVG 1.1//EN" "http://www.w3.org/Graphics/SVG/1.1/DTD/svg11.dtd" >
<svg xmlns="http://www.w3.org/2000/svg" xmlns:xlink="http://www.w3.org/1999/xlink" version="1.1" viewBox="-162 0 745 1000">
  <g transform="matrix(1 0 0 -1 0 800)">
   <path fill="currentColor"
d="M419 -236q9 0 14 -5.5t4 -11.5q-1 -13 -14 -27.5t-27 -14.5h-536q-7 0 -9.5 5t-2.5 9q0 6 5.5 17t14 19.5t18.5 8.5h533zM453 -128q9 0 14 -5.5t4 -11.5q-1 -13 -14 -27.5t-27 -14.5h-536q-7 0 -9.5 5t-2.5 9q0 6 5.5 17t14 19.5t18.5 8.5h533z" />
  </g>

</svg>
