<?xml version="1.0" standalone="no"?>
<!DOCTYPE svg PUBLIC "-//W3C//DTD SVG 1.1//EN" "http://www.w3.org/Graphics/SVG/1.1/DTD/svg11.dtd" >
<svg xmlns="http://www.w3.org/2000/svg" xmlns:xlink="http://www.w3.org/1999/xlink" version="1.1" viewBox="-10 0 998 1000">
  <g transform="matrix(1 0 0 -1 0 800)">
   <path fill="currentColor"
d="M257 -20q15 0 30 8.5t17 23.5q0 9 -7.5 14.5t-15.5 9.5q-6 4 -14 7t-8 7q0 8 6.5 14t12.5 12q11 11 23 23.5t12 31.5q0 21 -15 36.5t-19 22.5q-1 0 -0.5 -1.5t-0.5 -2.5q1 -1 1 -2t1 -3q3 -2 25 -12t42 -21q10 -4 23.5 -17.5t23.5 -28t10 -23.5q0 -7 -2 -13t-7 -6t-9 5.5
t-7 6.5q-5 4 -12 9t-13 5q-16 0 -16 -17q0 -13 9.5 -30.5t25.5 -30.5t37 -13q27 0 40 21.5t13 51.5q0 16 -15 34.5t-25 31.5q-1 3 -2 5.5t2 3.5q2 0 4 -2q2 -1 7 -2q2 0 3.5 -0.5t2.5 0.5q1 2 2.5 2h3.5q3 0 6 -5.5t8 -13.5q5 -7 11 -15.5t14 -10.5q4 -1 7 -2t6 0q2 0 4 0.5
t5 0.5q6 0 13 -17q5 -16 11.5 -33.5t16 -31.5t23.5 -22.5t34 -8.5q16 0 32.5 8t27.5 21t11 28q0 9 -7.5 19t-18 17.5t-18.5 7.5q-13 0 -19 -7t-7 -14q0 -2 1 -5t0 -6t-3 -4.5t-5 -1.5q-5 0 -7 9t-3 16q-10 37 -27.5 51.5t-56.5 22.5q-8 2 -15 5.5t-11 6.5q-1 0 -2 1.5
t-1 2.5q1 2 14.5 9t28.5 14.5t22 11.5q10 5 19 11t19 9q4 7 1 9.5t-12 2.5q-3 -3 -6 -7t-4 -8q-2 -6 -3.5 -12.5t-0.5 -13.5q0 -28 18 -48t45.5 -30.5t58.5 -10.5q74 0 131.5 38t90 101.5t32.5 140.5q0 37 -11.5 76.5t-31 73t-46.5 55t-59 21.5q-31 0 -52 -17.5t-21 -45.5
q0 -17 12.5 -30.5t35.5 -13.5q15 0 24 9t9 18q0 5 -4 9q-5 6 -5 9q0 5 3.5 8t6.5 3q12 0 19 -12t7 -23q0 -16 -11.5 -27.5t-27.5 -11.5q-21 0 -38.5 3t-33.5 7q-18 4 -37 7t-43 3q-38 0 -68.5 -23t-49 -57.5t-20.5 -69.5q0 -23 9.5 -37t22.5 -25q6 -5 13 -12.5t7 -18.5
q0 -6 -7.5 -13.5t-18.5 -15.5t-21 -13t-15 -5q-8 0 -10 1.5t-2 4.5q0 6 4 11t10 10q13 14 18.5 26.5t5.5 24.5q0 24 -13.5 35t-32.5 26q-5 4 -11 7t-6 8t2.5 6.5t4.5 1.5q9 0 17.5 5t8.5 13q1 12 -10.5 19.5t-26.5 7.5q-19 0 -31.5 -13.5t-12.5 -34.5q0 -19 7.5 -30
t15.5 -20t15.5 -18.5t7.5 -27.5q0 -9 -5 -17t-9 -16q-4 -6 -6.5 -12t-2.5 -14v-5t1 -3q2 -2 2 -6t-7 -4q-16 0 -40 7.5t-43.5 15.5t-19.5 12t1.5 8t3.5 9q3 4 6 8.5t3 9.5q0 6 3.5 10t5.5 4q1 0 4 -5.5t6 -9.5q9 -12 19.5 -23t25.5 -11q13 0 24.5 11t11.5 26q0 25 -14 44
t-27 19q-7 0 -10 -5t-3 -10q0 -4 1 -9t3 -10q1 -4 2 -9t3 -8q1 -7 -4 -7q-6 0 -12.5 17.5t-11.5 42t-5 47.5q0 11 -1.5 20t-3.5 16t-5 11t-5 4h-8t-7 -4q9 0 15 -3.5t14 -7.5q7 -4 15 -7t20 -3q11 0 30.5 15t27.5 33q4 8 10.5 11.5t17.5 3.5q4 0 9.5 -1t13.5 -2q24 0 26 22
q2 18 -17.5 32t-41.5 14q-28 0 -44.5 -13.5t-29.5 -29.5q-11 -14 -22.5 -26t-25.5 -12q-8 0 -16 6t-14 15.5t-6 18.5q0 8 6 14.5t14 8.5q27 6 41.5 11.5t14.5 23.5q0 13 -11.5 20t-26 9.5t-23.5 2.5q-17 0 -27 -8t-18 -16q-3 -3 -6.5 -5t-7.5 -2q-5 0 -10.5 2t-11.5 6
q-11 8 -28 16t-47 8q-38 0 -70.5 -10.5t-53.5 -30t-21 -49.5q0 -21 16.5 -36.5t37.5 -15.5q17 0 26.5 8.5t9.5 23.5q0 8 -3 11t-7 4q-3 2 -6 1t-7 -1q-5 0 -8 2t-3 6q0 3 5 8.5t11 6.5q10 2 21.5 5t20.5 3q16 0 27 -10t16.5 -24.5t5.5 -27.5q0 -33 -3.5 -49t-8.5 -21t-9 -5
q-6 0 -9 1.5l-7 3.5q-6 4 -13 6t-18 2q-27 0 -48.5 -18.5t-21.5 -45.5q0 -16 10.5 -24t23.5 -15q6 -3 3 -7q-18 -18 -26.5 -29t-9.5 -28q-2 -19 0.5 -36t17.5 -19q8 -6 16.5 5.5t10.5 24.5q1 1 2 4.5t1 6.5q1 3 1 6.5t1 5.5q10 12 26 22t30 24q11 11 20.5 24.5t18.5 29.5
q-2 2 -3.5 2.5t-2.5 1.5q-2 2 -5 4q-2 2 -1 4l1 2h-3q-2 -4 -2.5 -8t-0.5 -9q0 -18 10 -32t23 -25t23 -19q7 -5 12.5 -10t5.5 -11q0 -10 -9 -10q-7 0 -12 7t-11 14q-5 6 -12.5 13t-17.5 7q-28 0 -44 -22.5t-16 -48.5q0 -22 11 -35.5t24 -13.5q3 0 5.5 -1t2.5 -4q0 -4 -8 -4
q-13 0 -22 -1.5t-14 -3.5q-8 -2 -10 -7t-3 -9q-1 -5 -2.5 -7.5t-6.5 -2.5q-6 0 -9 5.5t-5 11.5q-3 8 -6 14.5t-9 6.5q-16 0 -24 -12t-8 -30q0 -16 11 -27.5t27.5 -17.5t34.5 -6t40.5 11.5t43 29t34 35t13.5 26.5q0 8 -5 14.5t-5 9.5q0 8 10 14t20 6q7 0 11.5 -15t4.5 -29
q0 -8 -11.5 -17.5t-22.5 -20.5q-11 -12 -21 -26.5t-10 -33.5q0 -27 11.5 -46t37.5 -19zM267 257q-11 6 -23 21t-20.5 33.5t-8.5 32.5q0 40 7 54.5t24 14.5q22 0 33.5 -22t11.5 -43q0 -13 -3 -31.5t-8.5 -34.5t-12.5 -25z" />
  </g>

</svg>
