<?xml version="1.0" standalone="no"?>
<!DOCTYPE svg PUBLIC "-//W3C//DTD SVG 1.1//EN" "http://www.w3.org/Graphics/SVG/1.1/DTD/svg11.dtd" >
<svg xmlns="http://www.w3.org/2000/svg" xmlns:xlink="http://www.w3.org/1999/xlink" version="1.1" viewBox="-10 0 492 1000">
  <g transform="matrix(1 0 0 -1 0 800)">
   <path fill="currentColor"
d="M225 -190q-59 0 -94.5 29t-35.5 76q0 17 7 42t27 51.5t62 47.5q4 2 4.5 4.5t-4.5 3.5q-47 5 -74 24t-38 44.5t-11 47.5q0 43 16 77t41.5 59t56 43.5t57.5 31.5q34 16 59 23t44 7q37 0 64.5 -8t43 -24t15.5 -39q0 -12 -7 -22.5t-17.5 -17t-20.5 -6.5q-9 0 -17 7.5
t-16 18.5q-12 13 -29.5 25.5t-44.5 12.5q-36 0 -62.5 -21t-41 -56.5t-14.5 -79.5q0 -16 5 -37t22 -36.5t51 -15.5q25 0 43.5 12t20.5 12q6 0 15 -6.5t9 -15.5q0 -8 -15 -21t-27 -21q-18 -11 -31 -20.5t-37 -28.5q-14 -12 -27.5 -35t-13.5 -59q0 -28 17.5 -44t50.5 -16
q28 0 50 13t41 33q3 4 9 7t13 3q5 0 8 -6t3 -16q0 -8 -14 -25t-39 -35t-57 -30.5t-67 -12.5z" />
  </g>

</svg>
