<?xml version="1.0" standalone="no"?>
<!DOCTYPE svg PUBLIC "-//W3C//DTD SVG 1.1//EN" "http://www.w3.org/Graphics/SVG/1.1/DTD/svg11.dtd" >
<svg xmlns="http://www.w3.org/2000/svg" xmlns:xlink="http://www.w3.org/1999/xlink" version="1.1" viewBox="-210 0 883 1000">
  <g transform="matrix(1 0 0 -1 0 800)">
   <path fill="currentColor"
d="M-70 -200q-71 0 -100.5 16t-29.5 41q0 29 10.5 48.5t27.5 19.5q13 0 29 -13.5t33 -29.5q18 -16 35.5 -29.5t32.5 -13.5q17 0 31 18.5t29.5 58.5t34.5 104l163 531q11 32 2.5 46t-38.5 21q-15 4 -18.5 9.5t-1.5 12.5q1 6 9.5 10.5t21.5 4.5q25 0 62.5 -2.5t68.5 -2.5h159
q70 0 105 7t49 7q7 0 13 -4.5t4 -14.5q-1 -6 -2.5 -12t-3.5 -12q-5 -19 -15.5 -49t-15.5 -66q-1 -10 -6 -15t-10 -5q-6 0 -9 4.5t-3 13.5q-1 25 -5 45t-13 35t-24.5 23.5t-36.5 8.5l-67 1q-24 1 -41.5 -11.5t-24.5 -33.5q-2 -8 -10.5 -34.5t-18 -58.5t-18 -59.5t-11.5 -38.5
q-4 -12 3 -21t36 -9h47q60 1 96 56q6 9 13.5 14t13.5 5q5 0 7 -6t-2 -16q-17 -41 -27 -74.5t-19 -71.5q-3 -13 -8 -19.5t-10 -6.5q-7 0 -11.5 7.5t-4.5 16.5q0 31 -8.5 43t-26.5 12h-27.5h-37h-27.5q-17 0 -27 -7.5t-13 -20.5l-43 -150q-15 -50 -30.5 -89t-32 -68.5
t-34.5 -53t-39 -43.5q-36 -35 -82.5 -57t-102.5 -22z" />
  </g>

</svg>
