<?xml version="1.0" standalone="no"?>
<!DOCTYPE svg PUBLIC "-//W3C//DTD SVG 1.1//EN" "http://www.w3.org/Graphics/SVG/1.1/DTD/svg11.dtd" >
<svg xmlns="http://www.w3.org/2000/svg" xmlns:xlink="http://www.w3.org/1999/xlink" version="1.1" viewBox="-41 0 799 1000">
  <g transform="matrix(1 0 0 -1 0 800)">
   <path fill="currentColor"
d="M-14 -3q-7 0 -12 3.5t-4 10.5q5 16 28 21q40 8 58.5 20.5t28.5 45.5l141 454q8 24 6 36.5t-14 19t-37 11.5q-12 3 -20 7.5t-8 12.5t14 12t23 4q28 0 49.5 -2t41 -3.5t41.5 -1.5q23 0 42.5 2t42.5 4.5t55 2.5q66 0 109 -19.5t64.5 -53t21.5 -76.5q0 -47 -25 -84t-65 -61.5
t-85 -34.5q-10 -4 -5 -13q11 -29 22.5 -54.5t23.5 -48.5t22.5 -44.5t21.5 -42.5q16 -34 41 -55.5t59 -22.5q13 -1 24.5 -5.5t11.5 -16.5q0 -16 -28.5 -21t-101.5 -5q-51 0 -82.5 11.5t-48.5 32t-26 45.5q-11 30 -20.5 54.5t-19 51t-19.5 60.5q-6 16 -14.5 25.5t-25.5 9.5
q-10 0 -15.5 -5t-8.5 -14l-55 -170q-10 -32 3 -45.5t51 -22.5q10 -2 14 -6.5t2 -13.5q-3 -7 -8.5 -11t-14.5 -4q-22 0 -50.5 1.5t-55.5 2.5t-47 1q-31 0 -71.5 -2.5t-74.5 -2.5zM82 290q-8 0 -13.5 5.5t-5.5 14.5q0 13 8 26t24 13h198q9 0 15.5 -5t6.5 -13q0 -1 -0.5 -2
t-0.5 -3q-3 -12 -13 -24t-26 -12h-193zM353 340q34 0 63 11t50.5 33.5t34 56.5t12.5 80q0 43 -23 72.5t-56 29.5q-12 0 -21 -4.5t-17 -23t-21 -59.5l-52 -168q-6 -21 2.5 -24.5t27.5 -3.5z" />
  </g>

</svg>
