<?xml version="1.0" standalone="no"?>
<!DOCTYPE svg PUBLIC "-//W3C//DTD SVG 1.1//EN" "http://www.w3.org/Graphics/SVG/1.1/DTD/svg11.dtd" >
<svg xmlns="http://www.w3.org/2000/svg" xmlns:xlink="http://www.w3.org/1999/xlink" version="1.1" viewBox="-10 0 558 1000">
  <g transform="matrix(1 0 0 -1 0 800)">
   <path fill="currentColor"
d="M129 -290q-19 0 -27.5 5t-8.5 13q1 7 7.5 11t18.5 9q26 13 49 31.5t43 44.5q30 36 51 77.5t32.5 82.5t11.5 72q0 30 -4 49.5t-12 32.5q-11 17 -28.5 24t-43.5 7q-4 0 -9.5 -5t-9.5 -17q-11 -29 -23 -62.5t-23 -66.5q-7 -19 -14.5 -25.5t-19.5 -6.5q-11 0 -27 7.5
t-28 19.5t-12 23q0 7 0.5 12.5t2 11t4.5 12.5q12 33 30 72.5t36 85t29 93.5q2 3 2.5 7t0.5 6q0 12 -12 12q-11 0 -32 -6.5t-45 -31.5q-4 -5 -10 -5q-4 0 -7.5 2.5t-3.5 8.5q0 7 7 19t16 24t15 18q25 23 53 39.5t75 16.5q31 0 46 -18.5t15 -39.5q0 -10 -4 -19l-52 -132
q0 -1 -0.5 -4.5t1.5 -3.5q4 0 8 6q35 45 70 83.5t67.5 67t61 44.5t48.5 16q30 0 47 -20.5t17 -61.5q0 -17 -14 -17q-7 0 -16 1.5t-19 2.5q-11 1 -20.5 2t-15.5 1q-21 0 -42.5 -7.5t-43.5 -21.5t-44 -32.5t-44 -40.5q-5 -5 -3 -9t10 -5q62 -1 98 -18t51 -48.5t15 -77.5
q0 -31 -17 -75.5t-46 -93t-66 -89.5q-29 -31 -62 -57t-66 -41t-64 -15z" />
  </g>

</svg>
