<?xml version="1.0" standalone="no"?>
<!DOCTYPE svg PUBLIC "-//W3C//DTD SVG 1.1//EN" "http://www.w3.org/Graphics/SVG/1.1/DTD/svg11.dtd" >
<svg xmlns="http://www.w3.org/2000/svg" xmlns:xlink="http://www.w3.org/1999/xlink" version="1.1" viewBox="-10 0 760 1000">
  <g transform="matrix(1 0 0 -1 0 800)">
   <path fill="currentColor"
d="M402 -6q-10 0 -24 1.5t-43 3t-83 1.5q-32 0 -72.5 -2.5t-71.5 -2.5q-10 0 -13.5 4.5t-2.5 10.5q3 15 28 21q36 9 55.5 21t29.5 44l139 454q11 34 5 50t-38 16h-36q-37 0 -60 -14.5t-35.5 -34.5t-20.5 -35q-4 -6 -12 -15.5t-16 -16.5t-12 -7q-5 0 -8 8.5t0 22.5
q6 18 13.5 37t16 39.5t17.5 40.5q2 5 7 12t11 7q3 0 9 -1t13 -4q8 -1 14.5 -2t9.5 -1q27 0 70 -1t98 -1h61q20 0 46 1t52.5 2t47.5 1q9 0 18 -2.5t6 -11.5q-2 -9 -13.5 -13.5t-24.5 -7.5q-28 -8 -45 -16t-26 -20t-16 -33l-45 -152q-5 -18 0.5 -26.5t20.5 -8.5q21 0 36 2
t39 2q43 0 82 -17.5t64 -49.5t25 -75q0 -67 -36 -119.5t-106 -82t-174 -29.5zM409 36q34 0 62 17.5t49 45.5t32 60.5t11 61.5q0 55 -26 83.5t-68 28.5q-19 0 -31 -9.5t-19 -29.5l-20 -64t-20 -64.5t-19 -64.5q-10 -32 2.5 -48.5t46.5 -16.5z" />
  </g>

</svg>
