<?xml version="1.0" standalone="no"?>
<!DOCTYPE svg PUBLIC "-//W3C//DTD SVG 1.1//EN" "http://www.w3.org/Graphics/SVG/1.1/DTD/svg11.dtd" >
<svg xmlns="http://www.w3.org/2000/svg" xmlns:xlink="http://www.w3.org/1999/xlink" version="1.1" viewBox="-58 0 280 1000">
  <g transform="matrix(1 0 0 -1 0 800)">
   <path fill="currentColor"
d="M131 644q7 0 13.5 -7t9.5 -16q1 -2 10 -21.5t21 -45t20 -44.5l4.5 -13.5t2.5 -14.5q0 -10 -4 -16.5t-13 -6.5q-7 0 -12 5.5t-11 13.5q-16 19 -27 34t-24 34q-5 7 -9 6.5t-14 -6.5q-25 -17 -43 -30.5t-45 -32.5q-14 -10 -25.5 -17t-20.5 -7q-12 0 -12 13q0 4 5 13.5
t18 24.5q14 15 33.5 34t37.5 37t31.5 30t15.5 14q9 8 19.5 13.5t18.5 5.5z" />
  </g>

</svg>
