<?xml version="1.0" standalone="no"?>
<!DOCTYPE svg PUBLIC "-//W3C//DTD SVG 1.1//EN" "http://www.w3.org/Graphics/SVG/1.1/DTD/svg11.dtd" >
<svg xmlns="http://www.w3.org/2000/svg" xmlns:xlink="http://www.w3.org/1999/xlink" version="1.1" viewBox="-10 0 579 1000">
  <g transform="matrix(1 0 0 -1 0 800)">
   <path fill="currentColor"
d="M154 -14q-40 0 -70 20.5t-46 53t-16 69.5q0 42 11 90t30.5 98t46 97t56.5 86q33 43 70.5 73.5t80.5 51.5t93 32q56 14 90 33.5t46 19.5q5 0 9 -5t4 -11q0 -38 -25.5 -72.5t-92.5 -59.5q-31 -13 -65.5 -21.5t-68 -18.5t-61.5 -25t-47 -39q-22 -29 -31.5 -57t-10.5 -58
q0 -3 0.5 -4t3.5 3q23 31 49.5 51t54.5 30t57 10q43 0 73.5 -34t30.5 -103q0 -34 -12.5 -75.5t-35.5 -82.5t-56.5 -75.5t-75.5 -55.5t-92 -21zM165 25q20 0 41.5 22t42.5 58t37.5 77.5t26.5 81.5t10 71t-9 44.5t-26 13.5q-18 0 -39 -22t-41.5 -58t-37.5 -78.5t-27.5 -84.5
t-10.5 -76q0 -22 8 -35.5t25 -13.5z" />
  </g>

</svg>
