<?xml version="1.0" standalone="no"?>
<!DOCTYPE svg PUBLIC "-//W3C//DTD SVG 1.1//EN" "http://www.w3.org/Graphics/SVG/1.1/DTD/svg11.dtd" >
<svg xmlns="http://www.w3.org/2000/svg" xmlns:xlink="http://www.w3.org/1999/xlink" version="1.1" viewBox="-10 0 518 1000">
  <g transform="matrix(1 0 0 -1 0 800)">
   <path fill="currentColor"
d="M42 123q-12 0 -17.5 9.5t-5.5 18.5q0 13 8 21t21 8h282q9 0 15 -5t6 -13q0 -1 -0.5 -2t-0.5 -2q-3 -13 -13.5 -24t-26.5 -11h-268zM97 -15q-9 0 -23 6t-24.5 16t-10.5 24q0 7 2 15t5 17l101 262q5 10 2.5 16.5t-12.5 6.5q-21 0 -33.5 -8t-26.5 -19q-5 -4 -12.5 -3.5
t-8.5 8.5q-2 21 16.5 42t45.5 36q22 14 47.5 21.5t49.5 7.5q28 0 40.5 -15.5t12 -41.5t-15.5 -59l-38 -91q-3 -7 2.5 -8t9.5 6q35 62 68.5 109t68 74t70.5 27q32 0 48.5 -18.5t16.5 -45.5q0 -26 -12 -51t-29.5 -40.5t-32.5 -15.5q-12 0 -18 10.5t-10 31.5q-3 17 -8.5 30.5
t-18.5 13.5q-17 0 -35 -22.5t-41 -62.5q-8 -12 -22 -37t-31.5 -55t-34 -59t-29.5 -50q-19 -34 -40 -56t-39 -22z" />
  </g>

</svg>
