<?xml version="1.0" standalone="no"?>
<!DOCTYPE svg PUBLIC "-//W3C//DTD SVG 1.1//EN" "http://www.w3.org/Graphics/SVG/1.1/DTD/svg11.dtd" >
<svg xmlns="http://www.w3.org/2000/svg" xmlns:xlink="http://www.w3.org/1999/xlink" version="1.1" viewBox="-30 0 441 1000">
  <g transform="matrix(1 0 0 -1 0 800)">
   <path fill="currentColor"
d="M-6 -3q-6 0 -10 3.5t-3 9.5q2 8 8.5 13t15.5 7q27 6 40.5 13t18.5 24l19 60q8 25 26.5 42.5t50.5 36.5q58 34 79 64t22 60q0 25 -12.5 38.5t-40.5 13.5q-41 0 -73.5 -29.5t-57.5 -64.5q-9 -11 -17 -19t-17 -8q-7 0 -9.5 6.5t-0.5 15.5q8 22 17 46.5t19 43t18 24.5
q19 0 35 3.5t34 9.5q22 9 48.5 16t56.5 7q65 0 102.5 -23t36.5 -65q0 -28 -16 -54.5t-44.5 -50.5t-68.5 -45q-21 -11 -32 -20t-15.5 -20.5t-10.5 -28.5l-18 -58q-4 -15 4.5 -22.5t31.5 -15.5q8 -3 11.5 -7t1.5 -12q-2 -7 -7.5 -10t-12.5 -3q-19 0 -39 1t-39.5 2t-37.5 1
q-17 0 -36.5 -1t-38.5 -2.5t-39 -1.5z" />
  </g>

</svg>
