<?xml version="1.0" standalone="no"?>
<!DOCTYPE svg PUBLIC "-//W3C//DTD SVG 1.1//EN" "http://www.w3.org/Graphics/SVG/1.1/DTD/svg11.dtd" >
<svg xmlns="http://www.w3.org/2000/svg" xmlns:xlink="http://www.w3.org/1999/xlink" version="1.1" viewBox="-87 0 576 1000">
  <g transform="matrix(1 0 0 -1 0 800)">
   <path fill="currentColor"
d="M43 -290q-58 0 -89 18.5t-31 44.5q0 21 11.5 34.5t27.5 13.5q10 0 22.5 -10t28.5 -21q14 -10 32 -20t38 -10q34 0 67 20t60.5 52t44 69t16.5 71q0 50 -18 84.5t-63 34.5q-17 0 -35 -8q-13 -3 -25 -8t-21 -5q-3 0 -12 4.5t-10 16.5q-1 14 6 25.5t22 24.5l176 152
q-19 2 -39.5 13t-42.5 23q-14 7 -28.5 17.5t-31.5 11.5q-14 1 -23.5 -10.5t-13.5 -25.5q-3 -12 -2.5 -23t3.5 -20q4 -7 4.5 -12t-2.5 -11q-6 -7 -20 -13t-21 -7t-18 7t-12 26q-1 30 13.5 48.5t35.5 43.5q12 13 30 27.5t37 25t33 12.5q15 2 31 1.5t32 -3t31 -6.5
q16 -3 32.5 -8t33 -8.5t30.5 -3.5q16 0 24.5 4.5t21.5 15.5q5 5 14.5 11.5t17.5 6.5q6 0 12 -5t6 -10q0 -7 -12 -21.5t-26 -26.5l-237 -220q-5 -8 -5 -11.5t10 -0.5q8 2 24 5.5t35 3.5q40 0 70 -18.5t47.5 -49.5t17.5 -68q0 -32 -22.5 -71.5t-60.5 -80.5t-84.5 -75.5
t-96.5 -55.5t-96 -21z" />
  </g>

</svg>
