<?xml version="1.0" standalone="no"?>
<!DOCTYPE svg PUBLIC "-//W3C//DTD SVG 1.1//EN" "http://www.w3.org/Graphics/SVG/1.1/DTD/svg11.dtd" >
<svg xmlns="http://www.w3.org/2000/svg" xmlns:xlink="http://www.w3.org/1999/xlink" version="1.1" viewBox="-52 0 971 1000">
  <g transform="matrix(1 0 0 -1 0 800)">
   <path fill="currentColor"
d="M-27 -3q-7 0 -11.5 3.5t-2.5 10.5q5 16 27 21q41 8 57.5 20.5t26.5 44.5l141 454q10 33 2 46t-45 22q-9 2 -13 7.5t-1 13.5q2 7 9.5 11t14.5 4q23 0 47.5 -1t48 -2.5t43.5 -1.5t45.5 1t52.5 2t48 1q18 0 14 -14q-3 -10 -9.5 -14t-18.5 -7q-29 -8 -46 -16t-25.5 -20.5
t-14.5 -32.5l-93 -309q-3 -14 -0.5 -15t14.5 8l338 283q5 5 9 10t7 12l4 11q10 29 2.5 44t-45.5 25q-9 2 -12.5 7.5t-1.5 13.5q2 7 9.5 11t15.5 4q22 0 47 -1t49 -2.5t44 -1.5t45 1t51.5 2t47.5 1q18 0 14 -14q-3 -10 -9.5 -14t-18.5 -7q-29 -8 -45 -16t-24.5 -20.5
t-14.5 -32.5l-139 -452q-9 -29 -1 -42.5t43 -23.5q10 -3 13.5 -7t1.5 -13q-2 -7 -8 -11t-15 -4q-22 0 -47.5 1.5t-50.5 2.5t-44 1q-20 0 -44.5 -1t-50.5 -2.5t-48 -1.5q-7 0 -12 3.5t-3 10.5q5 16 28 21q39 8 57.5 21t27.5 44l98 323q2 5 0 7t-6 -1l-355 -289q-6 -5 -8.5 -9
t-4.5 -11l-5 -19q-8 -30 2 -43t45 -23q9 -3 13 -7t1 -13q-1 -7 -7.5 -11t-14.5 -4q-22 0 -48 1.5t-51.5 2.5t-45.5 1t-44.5 -1t-50.5 -2.5t-49 -1.5zM426 717q-9 0 -14.5 6t-5.5 12q0 26 11.5 44t25.5 18h266q9 0 14 -5.5t5 -12.5q0 -24 -12.5 -43t-28.5 -19h-261z" />
  </g>

</svg>
