<?xml version="1.0" standalone="no"?>
<!DOCTYPE svg PUBLIC "-//W3C//DTD SVG 1.1//EN" "http://www.w3.org/Graphics/SVG/1.1/DTD/svg11.dtd" >
<svg xmlns="http://www.w3.org/2000/svg" xmlns:xlink="http://www.w3.org/1999/xlink" version="1.1" viewBox="-10 0 339 1000">
  <g transform="matrix(1 0 0 -1 0 800)">
   <path fill="currentColor"
d="M289 630q16 0 23 -5t7 -17q0 -10 -13.5 -15.5t-29.5 -6.5q-29 -4 -50 -28t-21 -49q0 -21 17 -34.5t42 -16.5q8 -1 11.5 -5.5t2.5 -11.5q-1 -11 -11.5 -17.5t-25 -9.5t-24.5 -3q-40 0 -67.5 23t-27.5 61q0 40 24.5 70.5t63 47.5t79.5 17z" />
  </g>

</svg>
