<?xml version="1.0" standalone="no"?>
<!DOCTYPE svg PUBLIC "-//W3C//DTD SVG 1.1//EN" "http://www.w3.org/Graphics/SVG/1.1/DTD/svg11.dtd" >
<svg xmlns="http://www.w3.org/2000/svg" xmlns:xlink="http://www.w3.org/1999/xlink" version="1.1" viewBox="-46 0 749 1000">
  <g transform="matrix(1 0 0 -1 0 800)">
   <path fill="currentColor"
d="M189 -276q-73 0 -112.5 17t-39.5 44q0 37 23.5 55t49.5 18q17 0 31.5 -11.5t30.5 -25.5q18 -18 39.5 -33.5t50.5 -15.5q61 0 102 24.5t61 60t19 68.5q-1 34 -16.5 54.5t-50.5 20.5h-41.5t-42 0.5t-42.5 0.5h-43q-52 0 -94 -1t-76.5 -3t-64.5 -3q-9 -1 -8.5 12t3.5 16
q12 15 25.5 31.5t28 33.5t28.5 32q53 58 105 117.5t103.5 119t104.5 119.5t108 120q5 7 6 13.5t-14 6.5q-10 1 -28.5 0.5t-39 -2t-39.5 -2.5t-30 -2q-38 -5 -74.5 -24.5t-70.5 -62.5q-9 -13 -18.5 -23t-24.5 -10q-8 0 -9.5 5.5t-0.5 12.5q2 6 4 13t6 14q16 30 26.5 55.5
t20.5 48.5q6 16 12.5 22.5t18.5 6.5q29 0 66 -8.5t82 -9.5h57.5h55.5q30 0 68 1.5t74 2.5t60 1q8 0 11.5 -10.5t-0.5 -14.5l-96 -107q-49 -53 -99 -110t-100 -114.5l-100 -115t-99 -113.5q-23 -26 6 -27h34.5t55.5 1q13 0 30 0.5t35.5 1t37.5 0.5q78 2 110.5 -24t32.5 -68
q0 -37 -22.5 -77t-67 -74.5t-109 -56t-150.5 -21.5z" />
  </g>

</svg>
