<?xml version="1.0" standalone="no"?>
<!DOCTYPE svg PUBLIC "-//W3C//DTD SVG 1.1//EN" "http://www.w3.org/Graphics/SVG/1.1/DTD/svg11.dtd" >
<svg xmlns="http://www.w3.org/2000/svg" xmlns:xlink="http://www.w3.org/1999/xlink" version="1.1" viewBox="-53 0 785 1000">
  <g transform="matrix(1 0 0 -1 0 800)">
   <path fill="currentColor"
d="M-24 -3q-7 0 -13 3.5t-5 10.5q2 9 10.5 14t19.5 7q40 8 61.5 21t30.5 45l137 453q11 33 1.5 45.5t-47.5 22.5q-9 2 -12.5 7.5t-1.5 13.5q2 7 9.5 11t15.5 4q22 0 47 -1t49 -2.5t44 -1.5t46 1t53 2t48 1q18 0 14 -14q-3 -10 -9.5 -14t-18.5 -7q-29 -8 -45.5 -16
t-25.5 -19.5t-16 -33.5l-44 -154q-3 -8 1.5 -13t16.5 1q26 14 59.5 20t66.5 6q52 0 93.5 -23t60 -65t-0.5 -101l-38 -122q-8 -30 3.5 -43.5t46.5 -23.5q9 -3 14.5 -7t3.5 -13q-2 -7 -9.5 -11t-15.5 -4q-22 0 -49 1.5t-53.5 2.5t-46.5 1t-44.5 -1t-49 -2.5t-46.5 -1.5
q-7 0 -13 3.5t-5 10.5q2 9 10.5 14t19.5 7q33 7 52 20.5t29 45.5l42 140q18 58 -5 88t-68 30q-30 0 -48.5 -4.5t-32.5 -13.5q-5 -4 -11 -11.5t-8 -15.5l-67 -212q-9 -30 1.5 -44.5t40.5 -22.5q10 -2 15 -6.5t3 -13.5q-2 -7 -9 -11t-16 -4q-22 0 -47 1.5t-49.5 2.5t-44.5 1
t-47 -1t-54 -2.5t-49 -1.5z" />
  </g>

</svg>
