<?xml version="1.0" standalone="no"?>
<!DOCTYPE svg PUBLIC "-//W3C//DTD SVG 1.1//EN" "http://www.w3.org/Graphics/SVG/1.1/DTD/svg11.dtd" >
<svg xmlns="http://www.w3.org/2000/svg" xmlns:xlink="http://www.w3.org/1999/xlink" version="1.1" viewBox="-10 0 373 1000">
  <g transform="matrix(1 0 0 -1 0 800)">
   <path fill="currentColor"
d="M162 693q-63 0 -99.5 31t-36.5 74q0 31 21.5 54.5t52.5 23.5q21 0 33 -10.5t12 -27.5q0 -12 -3.5 -22.5t-7.5 -19.5t-4 -18q0 -13 12 -23t40 -10q46 0 80.5 23t55.5 70q8 15 12 19.5t12 4.5q11 0 11 -15q0 -21 -13 -47.5t-38 -50.5t-60 -40t-80 -16z" />
  </g>

</svg>
