<?xml version="1.0" standalone="no"?>
<!DOCTYPE svg PUBLIC "-//W3C//DTD SVG 1.1//EN" "http://www.w3.org/Graphics/SVG/1.1/DTD/svg11.dtd" >
<svg xmlns="http://www.w3.org/2000/svg" xmlns:xlink="http://www.w3.org/1999/xlink" version="1.1" viewBox="-52 0 955 1000">
  <g transform="matrix(1 0 0 -1 0 800)">
   <path fill="currentColor"
d="M336 -200q-72 0 -101 16t-29 41q0 29 10 48.5t28 19.5q12 0 28 -13.5t33 -29.5q18 -16 35.5 -29.5t32.5 -13.5q17 0 31 18.5t29 58.5t35 104l83 270q3 7 2 11.5t-8 4.5h-248q-15 0 -20 -16l-58 -191q-9 -28 1.5 -41t44.5 -26q9 -3 13 -7t1 -13q-1 -7 -7 -11t-15 -4
q-22 0 -48 1.5t-51.5 2.5t-45.5 1t-44.5 -1t-49 -2.5t-45.5 -1.5q-7 0 -11.5 3.5t-2.5 10.5q5 16 27 21q37 8 53 20.5t26 44.5l141 454q10 33 2.5 46t-40.5 22q-9 2 -13 7.5t-1 13.5q2 7 9.5 11t14.5 4q23 0 46.5 -1t45.5 -2.5t42 -1.5t45.5 1t52.5 2t48 1q18 0 14 -14
q-3 -10 -9.5 -14t-18.5 -7q-29 -8 -45.5 -16t-25.5 -20.5t-15 -32.5l-56 -184q-4 -14 11 -14h246q13 0 17 15l56 183q9 30 1 42.5t-44 26.5q-8 3 -12 7t-2 14q2 7 8.5 10.5t14.5 3.5q21 0 47.5 -1t52 -2t44.5 -1q20 0 42.5 1.5t46.5 2.5t46 1q7 0 12 -4t3 -11
q-5 -16 -28 -21q-37 -9 -52.5 -22.5t-25.5 -45.5l-150 -483q-10 -31 -23 -58t-29.5 -51.5t-35 -45t-40.5 -39.5q-38 -33 -82 -53.5t-90 -20.5z" />
  </g>

</svg>
