<?xml version="1.0" standalone="no"?>
<!DOCTYPE svg PUBLIC "-//W3C//DTD SVG 1.1//EN" "http://www.w3.org/Graphics/SVG/1.1/DTD/svg11.dtd" >
<svg xmlns="http://www.w3.org/2000/svg" xmlns:xlink="http://www.w3.org/1999/xlink" version="1.1" viewBox="-53 0 737 1000">
  <g transform="matrix(1 0 0 -1 0 800)">
   <path fill="currentColor"
d="M210 -218q-19 0 -29.5 7t-10.5 15q0 6 10.5 10.5t26.5 10.5q44 16 83.5 51t72.5 82t57.5 100.5t37.5 108t12 102.5q0 27 -9.5 45.5t-27 27.5t-43.5 9q-41 0 -65.5 -12t-31.5 -36l-63 -205q-8 -29 2 -41t45 -25q9 -3 13 -7t1 -13q-1 -7 -7.5 -11t-14.5 -4q-22 0 -48.5 1.5
t-52 2.5t-46.5 1q-31 0 -73 -2.5t-76 -2.5q-7 0 -12 3.5t-3 10.5q5 16 28 21q40 9 59.5 21t29.5 44l140 454q10 32 1 45t-42 23q-11 3 -14 8.5t-2 12.5q2 6 9.5 10.5t16.5 4.5q29 0 67.5 -2.5t68.5 -2.5h255q18 0 34.5 3t25.5 3q11 0 15.5 -3.5t3.5 -11.5q-5 -20 -12.5 -47
t-14 -53.5t-12.5 -46.5q-3 -8 -8.5 -13t-10.5 -5q-6 0 -10.5 4.5t-4.5 12.5q0 30 -1.5 55t-10.5 40q-7 13 -21 20.5t-39 7.5h-75q-21 0 -37 -13t-28 -49l-41 -142q-5 -16 -4 -26t19 -3q22 10 54 17.5t70 7.5q82 0 122 -46.5t43 -122.5q1 -60 -25 -124t-71 -123.5t-101 -107
t-114.5 -75t-110.5 -27.5z" />
  </g>

</svg>
