<?xml version="1.0" standalone="no"?>
<!DOCTYPE svg PUBLIC "-//W3C//DTD SVG 1.1//EN" "http://www.w3.org/Graphics/SVG/1.1/DTD/svg11.dtd" >
<svg xmlns="http://www.w3.org/2000/svg" xmlns:xlink="http://www.w3.org/1999/xlink" version="1.1" viewBox="-78 0 551 1000">
  <g transform="matrix(1 0 0 -1 0 800)">
   <path fill="currentColor"
d="M17 -290q-40 0 -62.5 16t-22.5 38q0 13 10 26.5t22.5 23t21.5 9.5q15 0 25.5 -9t20 -21t20.5 -21t28 -9q24 0 51.5 31t58.5 90t62 143q21 59 26 89t0.5 41t-15.5 11q-10 0 -24 -10t-29.5 -25.5t-30.5 -32.5t-26 -33q-5 -5 -9 -10.5t-8 -10.5q-25 -34 -49.5 -47t-39.5 -13
q-12 1 -25.5 6t-13.5 20q0 13 7.5 32.5t15.5 41.5l82 218q13 34 1 51t-36 21q-6 1 -10.5 5.5t-4.5 12.5t9 12.5t21 5.5q29 2 71.5 2.5t92.5 1.5t99 2q30 1 49 6.5t33 5.5q3 0 6 -3t1 -9q-6 -17 -15.5 -41t-15.5 -44q-6 -17 -13.5 -35t-18.5 -18q-13 0 -10 28q3 23 -4.5 44.5
t-31.5 21.5h-50q-13 0 -19 -10t-9 -19l-74 -174q-4 -10 -1 -15.5t5 -7.5q32 31 56 52t47 31.5t50 10.5q55 0 66 -51t-15 -131q-23 -68 -62 -130.5t-88.5 -112.5t-106.5 -78.5t-118 -28.5z" />
  </g>

</svg>
