<?xml version="1.0" standalone="no"?>
<!DOCTYPE svg PUBLIC "-//W3C//DTD SVG 1.1//EN" "http://www.w3.org/Graphics/SVG/1.1/DTD/svg11.dtd" >
<svg xmlns="http://www.w3.org/2000/svg" xmlns:xlink="http://www.w3.org/1999/xlink" version="1.1" viewBox="-10 0 668 1000">
  <g transform="matrix(1 0 0 -1 0 800)">
   <path fill="currentColor"
d="M222 -14q-66 0 -110.5 25t-66 66t-21.5 86t20.5 87.5t61.5 74t101 41.5q13 3 29.5 7.5t29 11.5t13.5 15q0 2 -0.5 4t-0.5 3l-87 190q-4 8 -8.5 19.5t-3.5 14.5q1 5 10 15t16 10q19 0 42 -1.5l46 -3t39 -1.5h156h32t28.5 1.5t25.5 5.5q15 6 32.5 17t26.5 11
q12 0 13.5 -6.5t-0.5 -20.5q-5 -27 -10.5 -47t-8 -38.5t-4.5 -43.5q-1 -9 -1.5 -16.5t-1.5 -9.5q-2 -7 -6.5 -12.5t-13.5 -5.5q-14 0 -18.5 10.5t-6.5 22.5q-2 39 -19 65.5t-62 26.5h-113q-12 0 -16 -5t-4 -12v-6t3 -9l74 -155q18 -35 18 -45q0 -5 -3 -14q-5 -16 -26 -21
t-41 -5q-9 0 -16 0.5t-12 0.5q-61 0 -100.5 -26t-58 -65t-18.5 -80q0 -33 12 -62.5t34 -47.5t53 -18q59 0 99.5 23.5t77.5 77.5q18 25 31 40t17 15q8 0 15.5 -5t5.5 -11q-10 -31 -24 -64t-28 -60q-7 -14 -22.5 -24t-27.5 -15q-32 -12 -82 -21.5t-120 -9.5z" />
  </g>

</svg>
