<?xml version="1.0" standalone="no"?>
<!DOCTYPE svg PUBLIC "-//W3C//DTD SVG 1.1//EN" "http://www.w3.org/Graphics/SVG/1.1/DTD/svg11.dtd" >
<svg xmlns="http://www.w3.org/2000/svg" xmlns:xlink="http://www.w3.org/1999/xlink" version="1.1" viewBox="-10 0 732 1000">
  <g transform="matrix(1 0 0 -1 0 800)">
   <path fill="currentColor"
d="M294 -14q-69 0 -122 32.5t-84 90.5t-31 133q0 81 31.5 156.5t87.5 135.5t131 95t163 35q69 0 122.5 -32.5t84 -90.5t30.5 -133q0 -80 -31.5 -156t-88 -136t-131.5 -95t-162 -35zM294 24q43 0 83.5 29.5t75 78.5t60.5 108.5t40.5 118.5t14.5 109q0 43 -10.5 80t-32.5 59.5
t-57 22.5q-43 0 -83 -30t-74 -79.5t-60 -109.5t-40.5 -120t-14.5 -110q0 -42 10 -78t31.5 -57.5t56.5 -21.5zM506 698q-13 0 -21.5 7t-20.5 21l-76 94q-6 8 -4 15q3 13 22 13q8 0 28 -9t41.5 -21t34.5 -21q5 -5 10.5 -4.5t13.5 4.5q14 6 38.5 14.5t50.5 17t46.5 14t26.5 5.5
q16 0 16 -12q0 -10 -11 -19l-136 -91q-22 -15 -34 -21.5t-25 -6.5z" />
  </g>

</svg>
