<?xml version="1.0" standalone="no"?>
<!DOCTYPE svg PUBLIC "-//W3C//DTD SVG 1.1//EN" "http://www.w3.org/Graphics/SVG/1.1/DTD/svg11.dtd" >
<svg xmlns="http://www.w3.org/2000/svg" xmlns:xlink="http://www.w3.org/1999/xlink" version="1.1" viewBox="-52 0 1054 1000">
  <g transform="matrix(1 0 0 -1 0 800)">
   <path fill="currentColor"
d="M659 -14q-40 0 -74 11.5t-57 35t-29.5 60.5t9.5 87l33 110q3 7 2 11.5t-8 4.5h-238q-15 0 -20 -16l-58 -191q-9 -28 1.5 -41t44.5 -26q9 -3 13 -7t1 -13q-1 -7 -7 -11t-15 -4q-22 0 -48 1.5t-51.5 2.5t-45.5 1t-44.5 -1t-49 -2.5t-45.5 -1.5q-7 0 -11.5 3.5t-2.5 10.5
q5 16 27 21q37 8 53 20.5t26 44.5l141 454q10 33 2.5 46t-40.5 22q-9 2 -13 7.5t-1 13.5q2 7 9.5 11t14.5 4q23 0 46.5 -1t45.5 -2.5t42 -1.5t45.5 1t52.5 2t48 1q18 0 14 -14q-3 -10 -9.5 -14t-18.5 -7q-29 -8 -45.5 -16t-25.5 -20.5t-15 -32.5l-56 -184q-4 -14 11 -14h236
q13 0 17 15l56 183q9 30 1 42.5t-44 26.5q-9 3 -13 7t-1 14q1 7 7.5 10.5t14.5 3.5q22 0 48.5 -1t52 -2t44.5 -1q20 0 42.5 1.5t46.5 2.5t46 1q7 0 12 -4t3 -11q-5 -16 -28 -21q-37 -9 -52.5 -22.5t-25.5 -45.5l-122 -393q-12 -40 -5 -66t23.5 -38t33.5 -12q34 0 62.5 17
t49 45.5t31.5 64.5t11 73q0 35 -10.5 68.5t-34.5 60.5q-5 6 -3 14q3 11 16.5 25.5t30 28.5t32.5 23t25 9q30 0 53.5 -26.5t21.5 -76.5q0 -51 -13.5 -105t-41 -103.5t-68 -88.5t-93 -62t-116.5 -23z" />
  </g>

</svg>
