<?xml version="1.0" standalone="no"?>
<!DOCTYPE svg PUBLIC "-//W3C//DTD SVG 1.1//EN" "http://www.w3.org/Graphics/SVG/1.1/DTD/svg11.dtd" >
<svg xmlns="http://www.w3.org/2000/svg" xmlns:xlink="http://www.w3.org/1999/xlink" version="1.1" viewBox="-122 0 654 1000">
  <g transform="matrix(1 0 0 -1 0 800)">
   <path fill="currentColor"
d="M339 -104q-9 -3 -22.5 7t-16.5 23l-47 222q-2 10 2.5 17.5t15.5 8.5q10 2 20 -7.5t13 -24.5l48 -225q0 -7 -3 -13t-10 -8zM-100 -285q-5 0 -8.5 3t-2.5 8q1 8 7.5 12.5t14.5 6.5q31 8 45 16t22 32l170 519q3 10 5.5 19t0.5 14t-14 2q-20 -5 -34.5 -10t-37.5 -13
q-8 -3 -16.5 -2t-8.5 12q0 10 8.5 17t17.5 11q16 6 36.5 16.5t58.5 24.5q7 3 13 10.5t12 27.5q16 48 42 70.5t57 22.5q19 0 26 -11t1 -37l-11 -39q-2 -10 -1.5 -16t4.5 -5q13 3 26 5t28 2q53 0 89 -17.5t54 -48.5t18 -70q0 -53 -23 -107.5t-63 -101t-91.5 -74.5t-106.5 -28
q-18 0 -32 7t-23 13q-13 10 -19.5 8t-12.5 -21l-54 -190q-6 -19 5.5 -32t46.5 -22q6 -1 12.5 -5.5t6.5 -14.5q0 -5 -6.5 -8.5t-15.5 -3.5q-16 0 -41 1t-47.5 1.5t-37.5 -0.5q-25 0 -59 -2t-61 -2zM238 24q19 0 45 21t51.5 57.5t42.5 82.5t17 96q0 54 -22 76.5t-59 22.5
h-12.5t-13.5 -2l-86 -268q-5 -15 -4.5 -29t5.5 -26q6 -14 12.5 -22.5t23.5 -8.5z" />
  </g>

</svg>
