<?xml version="1.0" standalone="no"?>
<!DOCTYPE svg PUBLIC "-//W3C//DTD SVG 1.1//EN" "http://www.w3.org/Graphics/SVG/1.1/DTD/svg11.dtd" >
<svg xmlns="http://www.w3.org/2000/svg" xmlns:xlink="http://www.w3.org/1999/xlink" version="1.1" viewBox="-10 0 486 1000">
  <g transform="matrix(1 0 0 -1 0 800)">
   <path fill="currentColor"
d="M143 408q-7 0 -6 10t4 18q6 19 9.5 33.5t8.5 29.5q10 33 16.5 62t13.5 56q5 15 17.5 25.5t23.5 16.5q20 12 35.5 18t32.5 6q12 0 14.5 -12.5t-3.5 -27.5q-7 -24 -23 -53t-34.5 -57.5t-37 -53t-32.5 -40.5q-9 -11 -21.5 -21t-17.5 -10zM295 408q-7 0 -6 10t4 18
q6 19 9.5 33.5t8.5 29.5q10 33 16.5 62t13.5 56q5 15 17.5 25.5t23.5 16.5q20 12 35.5 18t32.5 6q12 0 14.5 -12.5t-3.5 -27.5q-7 -24 -23 -53t-34.5 -57.5t-37 -53t-32.5 -40.5q-9 -11 -21.5 -21t-17.5 -10z" />
  </g>

</svg>
