<?xml version="1.0" standalone="no"?>
<!DOCTYPE svg PUBLIC "-//W3C//DTD SVG 1.1//EN" "http://www.w3.org/Graphics/SVG/1.1/DTD/svg11.dtd" >
<svg xmlns="http://www.w3.org/2000/svg" xmlns:xlink="http://www.w3.org/1999/xlink" version="1.1" viewBox="-31 0 889 1000">
  <g transform="matrix(1 0 0 -1 0 800)">
   <path fill="currentColor"
d="M320 -21q-15 0 -21 8.5t-6 27.5q0 5 5 19.5t11 34.5l51 164q2 5 -0.5 5t-5.5 -3q-14 -18 -32 -39.5t-38.5 -43.5t-40 -42.5t-36.5 -36.5q-44 -46 -80.5 -66.5t-86.5 -20.5q-28 0 -44.5 16t-16.5 33q0 22 11 43t28 21q10 0 16 -8.5t13 -21.5q7 -14 17.5 -24t23.5 -10
q16 0 35 18t37 49t29.5 69.5t11.5 78.5q0 36 -16.5 57.5t-42.5 21.5q-19 0 -36 -12t-36 -36q-3 -6 -8.5 -9.5t-8.5 -3.5q-9 0 -9 12q0 19 14.5 44.5t39 50.5t56 41.5t64.5 16.5q44 0 68 -32.5t24 -84.5q0 -24 -5.5 -49t-15.5 -48q-1 -4 0 -5t4 2q28 26 60 62.5t50 72.5
q4 7 6.5 14t4.5 13q9 17 28 28.5t37.5 17.5t23.5 6q15 0 21 -7.5t6 -20.5q0 -10 -4 -25.5t-11 -33.5l-43 -119q-1 -3 0.5 -2.5t3.5 1.5q22 24 48.5 48t51.5 48q44 43 77 68t61 35.5t57 10.5q40 0 58.5 -15.5t18.5 -32.5q0 -23 -11.5 -44t-27.5 -21q-9 0 -15.5 8.5
t-11.5 19.5q-7 15 -20 29t-26 14q-15 0 -34 -18t-37.5 -49.5t-30 -71.5t-11.5 -83q0 -35 14 -58t42 -23q19 0 36.5 12t34.5 35q9 12 16 12q9 0 9 -11q0 -21 -13 -46.5t-36 -49t-51.5 -39t-59.5 -15.5q-30 0 -55 13.5t-40 40.5t-15 64q0 23 8 55.5t24 63.5q2 4 -1 6t-6 -2
q-18 -23 -37 -45t-34.5 -44t-28.5 -48t-20 -57q-3 -14 -15.5 -24t-28.5 -17t-28.5 -10t-17.5 -3zM488 464q-42 0 -68 14t-38.5 34.5t-12.5 40.5q0 31 18 51.5t44 20.5q17 0 25.5 -6t8.5 -16q0 -12 -4.5 -24t-4.5 -25q0 -18 12.5 -27t38.5 -9q24 0 51.5 15t51.5 55
q8 14 12 18.5t11 4.5q6 0 8 -4t2 -11q0 -12 -10.5 -34t-30.5 -44.5t-48.5 -38t-65.5 -15.5z" />
  </g>

</svg>
