<?xml version="1.0" standalone="no"?>
<!DOCTYPE svg PUBLIC "-//W3C//DTD SVG 1.1//EN" "http://www.w3.org/Graphics/SVG/1.1/DTD/svg11.dtd" >
<svg xmlns="http://www.w3.org/2000/svg" xmlns:xlink="http://www.w3.org/1999/xlink" version="1.1" viewBox="-10 0 460 1000">
  <g transform="matrix(1 0 0 -1 0 800)">
   <path fill="currentColor"
d="M57 287q-3 0 -8 3t-4 7q2 6 8.5 10t11.5 5q12 3 21 7.5t13 16.5l96 317q3 11 0 19.5t-14 9.5q-5 0 -3 11t11 14q16 3 38 8t44.5 11.5t37.5 11.5q7 0 14 -3t6 -5q-8 -20 -17 -42t-16 -45l-35 -128q32 21 59 34t56 13q35 0 53 -25t4 -69l-40 -133q-4 -12 1.5 -16t15.5 -7
q5 -1 8 -4.5t1 -9.5q-1 -4 -6 -7.5t-8 -3.5q-20 0 -40.5 1.5t-37.5 1.5q-18 0 -38.5 -1.5t-39.5 -1.5q-4 0 -6.5 3.5t-1.5 7.5q1 10 16 14q12 3 19 7t11 16l36 120q8 21 -1 31t-25 10q-9 0 -17 -1.5t-19 -7.5q-8 -4 -12.5 -12.5t-8.5 -21.5l-37 -118q-3 -11 1.5 -15t13.5 -8
q5 -1 7.5 -5t0.5 -10q-1 -3 -6 -6.5t-8 -3.5q-19 0 -38 1.5t-36 1.5t-39.5 -1.5t-41.5 -1.5z" />
  </g>

</svg>
