<?xml version="1.0" standalone="no"?>
<!DOCTYPE svg PUBLIC "-//W3C//DTD SVG 1.1//EN" "http://www.w3.org/Graphics/SVG/1.1/DTD/svg11.dtd" >
<svg xmlns="http://www.w3.org/2000/svg" xmlns:xlink="http://www.w3.org/1999/xlink" version="1.1" viewBox="-10 0 721 1000">
  <g transform="matrix(1 0 0 -1 0 800)">
   <path fill="currentColor"
d="M106 -14q-16 0 -32 10.5t-27.5 26t-11.5 28.5q0 8 1 14.5t5 12.5l114 247q5 11 2.5 17t-12.5 6t-32.5 -8t-43.5 -24q-6 -4 -13 -4t-7 9q0 14 19.5 33t50 37t63.5 30t59 12q16 0 29.5 -11t21 -25t2.5 -25l-53 -119q-3 -6 0.5 -8.5t8.5 -2.5l88 1q7 0 11.5 3t8.5 12l46 119
q7 18 26 30t39.5 19t30.5 7q16 0 20.5 -7t2.5 -25q0 -9 -6.5 -26t-16.5 -41l-35 -87q-1 -4 2 -4t6 2q25 26 62.5 42t66.5 16q37 0 56 -26t20 -59q1 -35 -21.5 -75t-62 -76t-90 -58.5t-106.5 -22.5q-45 0 -72 14.5t-34 41t5 63.5q8 22 10.5 29.5t4 10t4 10t10.5 29.5
q4 9 1 11.5t-9 2.5l-85 -1q-5 0 -10 -2t-8 -9l-69 -171q-7 -17 -17 -23t-23 -6zM427 18q23 0 45.5 19t41 48t29 61t10.5 58q0 18 -5 29t-17 11q-20 0 -43 -18t-42 -43q-22 -28 -37 -62t-15 -54q0 -16 7 -32.5t26 -16.5z" />
  </g>

</svg>
