<?xml version="1.0" standalone="no"?>
<!DOCTYPE svg PUBLIC "-//W3C//DTD SVG 1.1//EN" "http://www.w3.org/Graphics/SVG/1.1/DTD/svg11.dtd" >
<svg xmlns="http://www.w3.org/2000/svg" xmlns:xlink="http://www.w3.org/1999/xlink" version="1.1" viewBox="-10 0 554 1000">
  <g transform="matrix(1 0 0 -1 0 800)">
   <path fill="currentColor"
d="M86 -14q-18 0 -34.5 11.5t-20.5 37.5t14 70q12 32 35 88t45 115q3 6 -4 6t-19.5 -6.5t-24.5 -14t-18 -9.5q-6 0 -11.5 5.5t-4.5 11.5q0 6 14.5 21t38 32.5t49 35t48 29t35.5 14.5q22 1 32.5 -15t9 -43t-15.5 -59l-90 -218q-7 -17 -4 -23.5t8 -6.5q14 0 32.5 26t42 66
t48.5 81q42 72 74.5 114t60.5 60t57 18q33 0 43.5 -21.5t5.5 -44.5q-1 -12 -5 -20t-12 -9q-16 4 -33 7.5t-37 3.5q-23 0 -44 -18t-39.5 -47t-36.5 -61q-23 -42 -47 -84.5t-51 -77t-61 -55t-80 -20.5z" />
  </g>

</svg>
