<?xml version="1.0" standalone="no"?>
<!DOCTYPE svg PUBLIC "-//W3C//DTD SVG 1.1//EN" "http://www.w3.org/Graphics/SVG/1.1/DTD/svg11.dtd" >
<svg xmlns="http://www.w3.org/2000/svg" xmlns:xlink="http://www.w3.org/1999/xlink" version="1.1" viewBox="-59 0 720 1000">
  <g transform="matrix(1 0 0 -1 0 800)">
   <path fill="currentColor"
d="M17 -14q-22 0 -36.5 9t-22 22t-7.5 25q0 13 7 21.5t21 8.5q16 0 35.5 1.5t37.5 4.5q23 5 39.5 13t23.5 21l114 195q36 62 84.5 94t108.5 32q13 0 26.5 -13t12.5 -37q-1 -8 -3 -19t-4 -20l-39 -97q-1 -4 2 -4t6 2q25 26 62.5 42t66.5 16q38 0 57 -26t19 -59
q1 -35 -21.5 -75t-61.5 -76t-89.5 -58.5t-106.5 -22.5q-47 0 -74 14.5t-33.5 41.5t5.5 63q12 34 26 73.5t28.5 79t25.5 72.5q4 13 1 18.5t-9 5.5q-12 0 -25 -18t-25 -37q-6 -8 -19.5 -33.5t-33 -59.5t-41.5 -70t-42 -66t-36 -47q-20 -21 -40 -29t-40 -8zM377 18
q24 0 46.5 19t40.5 48t28.5 61t10.5 58q0 18 -5 29t-17 11q-20 0 -43 -18t-42 -43q-22 -28 -37 -62t-15 -54q0 -16 7 -32.5t26 -16.5z" />
  </g>

</svg>
