<?xml version="1.0" standalone="no"?>
<!DOCTYPE svg PUBLIC "-//W3C//DTD SVG 1.1//EN" "http://www.w3.org/Graphics/SVG/1.1/DTD/svg11.dtd" >
<svg xmlns="http://www.w3.org/2000/svg" xmlns:xlink="http://www.w3.org/1999/xlink" version="1.1" viewBox="-89 0 493 1000">
  <g transform="matrix(1 0 0 -1 0 800)">
   <path fill="currentColor"
d="M94 -14q-16 0 -30 10t-23 24.5t-9 25.5q0 7 2 15.5t9 25.5l94 252q6 17 1.5 22.5t-12.5 5.5l-48 2q-17 1 -21 7.5t-4 12.5q0 2 7 10.5t18 16t23 7.5h49q15 0 19.5 4.5t13.5 20.5l28 56q8 15 21.5 29t28.5 24t27 10q16 0 21 -15.5t0 -30.5l-24 -77q-3 -15 0.5 -19t14.5 -4
q13 0 29 -1.5t34 -3.5q22 -3 26.5 -8t4.5 -13q0 -3 -5.5 -10t-21.5 -9q-13 -1 -27 -2.5t-33 -2.5q-18 -1 -27.5 -5t-13.5 -14l-75 -207q-7 -21 -7 -31.5t4.5 -13t10.5 -2.5q12 0 31 13.5t38.5 30.5t31.5 30q3 2 5.5 3t2.5 0q5 -2 7.5 -7.5t1.5 -11.5q-3 -16 -19 -37.5
t-40.5 -44.5t-53.5 -43t-57.5 -32.5t-52.5 -12.5zM12 -281q-25 0 -46 10t-33 25t-12 29q0 37 30 37q13 0 26 -7.5t25 -18.5q14 -11 23.5 -19t22.5 -8q10 0 15 6t5 14q0 15 -10 24t-22 21q-12 11 -23.5 26.5t-11.5 29.5q0 17 19.5 41t49 47.5t57.5 40.5h39q-38 -28 -52 -47
t-14 -33q0 -10 10.5 -21t22.5 -22q13 -12 22 -24t9 -25q0 -16 -15 -37.5t-38.5 -42t-50 -33.5t-48.5 -13z" />
  </g>

</svg>
