<?xml version="1.0" standalone="no"?>
<!DOCTYPE svg PUBLIC "-//W3C//DTD SVG 1.1//EN" "http://www.w3.org/Graphics/SVG/1.1/DTD/svg11.dtd" >
<svg xmlns="http://www.w3.org/2000/svg" xmlns:xlink="http://www.w3.org/1999/xlink" version="1.1" viewBox="-52 0 797 1000">
  <g transform="matrix(1 0 0 -1 0 800)">
   <path fill="currentColor"
d="M524 -121q-51 0 -82.5 12t-48.5 32t-26 45q-11 31 -20.5 58t-19 56t-19.5 63q-6 16 -15 25.5t-25 9.5q-6 0 -11.5 -3.5t-9.5 -11.5l-9 -31q-11 -37 -13 -56t8.5 -27.5t32.5 -14.5q21 -5 27.5 -10t3.5 -14q-1 -7 -7.5 -11t-14.5 -4q-22 0 -50.5 1.5t-56.5 2.5t-48 1
q-31 0 -71.5 -2.5t-74.5 -2.5q-7 0 -12 3.5t-3 10.5q5 16 27 21q41 9 59 21t28 44l141 454q10 32 1 45t-46 23q-9 2 -13 7.5t-1 13.5q1 7 9 11t15 4q22 0 47 -1t49.5 -2.5t44.5 -1.5t45.5 1t52.5 2t49 1q17 0 13 -14q-2 -10 -9 -14t-19 -7q-28 -8 -44.5 -15.5t-25.5 -19.5
t-16 -32l-5 -17q11 1 24 1.5t28 0.5q66 0 109 -19t64.5 -53t21.5 -77q0 -47 -25 -83.5t-65 -61t-86 -35.5q-9 -4 -5 -13q12 -29 23.5 -54t23 -48.5t22.5 -44.5t21 -43q17 -34 42 -55.5t59 -22.5q13 -1 24.5 -5.5t11.5 -16.5q0 -16 -28.5 -21t-101.5 -5zM301 206
q34 0 63.5 13.5t52 38.5t34.5 61t12 82q0 43 -22.5 73t-55.5 30q-13 0 -21.5 -5t-16.5 -23.5t-22 -59.5l-53 -172q-6 -20 1.5 -29t27.5 -9z" />
  </g>

</svg>
