<?xml version="1.0" standalone="no"?>
<!DOCTYPE svg PUBLIC "-//W3C//DTD SVG 1.1//EN" "http://www.w3.org/Graphics/SVG/1.1/DTD/svg11.dtd" >
<svg xmlns="http://www.w3.org/2000/svg" xmlns:xlink="http://www.w3.org/1999/xlink" version="1.1" viewBox="-25 0 1160 1000">
  <g transform="matrix(1 0 0 -1 0 800)">
   <path fill="currentColor"
d="M5 -3q-7 0 -13.5 3.5t-5.5 10.5q3 9 11.5 13t19.5 7q33 9 53 28.5t32 51.5l149 402q13 36 9 58.5t-25.5 34.5t-61.5 15q-14 2 -21.5 7t-7.5 14q0 7 11 11.5t21 4.5q22 0 54.5 -1t67.5 -2.5t63 -1.5q13 0 21.5 -5.5t12.5 -15.5l198 -441q2 -4 5.5 -8.5t6.5 -4.5q7 0 12 15
q3 7 8.5 24.5t13.5 42t16.5 54.5t17 62t16 63.5t13.5 60.5q13 62 -5.5 86.5t-72.5 34.5q-19 3 -18 16q1 6 10 10t17 4q39 0 68 -3t46 -3q20 0 37.5 2t38 3.5t46.5 1.5q20 0 20 -14q0 -7 -11.5 -11.5t-23.5 -6.5q-24 -5 -40.5 -13.5t-29 -30t-26.5 -62.5q-5 -17 -13 -43
t-18 -57t-20.5 -65.5t-22 -69.5t-21 -68t-18.5 -61t-7.5 -44.5t13.5 -37.5q5 -8 11 -17.5t13 -16.5q8 -7 13.5 -10.5t5.5 -9.5q0 -9 -5 -11.5t-14 -2.5q-27 0 -45 -2t-33 -3.5t-33 -1.5q-28 -1 -42 12t-25 41q-8 20 -24.5 59t-36.5 87.5t-41.5 98.5t-39.5 93.5t-30.5 72.5
t-16.5 34q-1 4 -4.5 8.5t-5.5 4.5q-5 0 -9 -7.5t-6 -14.5q-13 -33 -30.5 -80.5t-35 -100.5t-32 -103t-23.5 -88q-8 -36 4.5 -52t54.5 -26q9 -2 16.5 -6.5t4.5 -13.5q-1 -7 -10.5 -11t-18.5 -4q-27 0 -42.5 1.5t-26.5 2t-28 0.5q-22 0 -46 -1t-42 -2t-23 -1zM652 -290
q-52 0 -73.5 17t-21.5 37q2 18 11.5 30.5t21 20.5t20.5 8q15 0 26 -11t20 -23q9 -10 18.5 -18t24.5 -8q25 0 45 34t38 87l124 383q8 27 5 35.5t-12 8.5q-12 0 -24.5 -5t-27.5 -12q-11 -4 -18 -2t-7 10t5.5 13t14.5 12q22 18 51.5 34.5t60 29.5t55.5 23.5t38 16.5
q14 6 28.5 -6.5t9.5 -25.5q-6 -18 -19 -48t-25 -65l-114 -348q-16 -48 -50.5 -89t-77 -72.5t-82 -49t-65.5 -17.5zM1043 506q-22 0 -37 17.5t-15 39.5q0 34 24 60t60 26q24 0 37 -19.5t13 -41.5q0 -31 -24 -56.5t-58 -25.5z" />
  </g>

</svg>
