<?xml version="1.0" standalone="no"?>
<!DOCTYPE svg PUBLIC "-//W3C//DTD SVG 1.1//EN" "http://www.w3.org/Graphics/SVG/1.1/DTD/svg11.dtd" >
<svg xmlns="http://www.w3.org/2000/svg" xmlns:xlink="http://www.w3.org/1999/xlink" version="1.1" viewBox="-12 0 800 1000">
  <g transform="matrix(1 0 0 -1 0 800)">
   <path fill="currentColor"
d="M77 -14q-34 0 -56.5 24t-22.5 60q0 37 14.5 80t40.5 89t62 89q44 51 86 78.5t79 27.5q24 0 44.5 -11.5t39.5 -24.5l11 -5.5l9 -4.5l51 162q8 24 11 34.5t3.5 13t0 3t-0.5 4.5q0 10 -10 18.5t-30 16.5q-13 5 -17.5 8t-4.5 7q0 7 6 11.5t24 10.5q12 3 36 8.5t50.5 10.5
t47.5 8t29 3q25 0 25 -14q0 -9 -1.5 -17t-7.5 -23l-133 -388q-3 -7 0.5 -9t7.5 4q61 80 117.5 126.5t102.5 46.5q36 0 61.5 -25t25.5 -59q0 -49 -20.5 -100t-56 -98t-80.5 -84t-94 -58.5t-96 -21.5q-57 0 -88.5 28t-31.5 80q0 18 2.5 40t11.5 46q-20 -25 -47 -58
t-58.5 -64.5t-67 -52t-75.5 -20.5zM163 84q20 0 45.5 16.5t50.5 44t46.5 60t34.5 65.5t13 59q0 27 -11 41t-32 14q-18 0 -41.5 -19t-47.5 -49t-44.5 -65.5t-32.5 -71t-12 -62.5q0 -16 8 -24.5t23 -8.5zM461 26q12 0 30 12.5t37.5 34t35.5 45.5q22 35 42 75t32 76t12 56
q0 13 -7 21.5t-19 8.5q-22 0 -55.5 -27.5t-74.5 -82.5q-35 -50 -55.5 -92t-20.5 -64q0 -21 12.5 -42t30.5 -21z" />
  </g>

</svg>
