<?xml version="1.0" standalone="no"?>
<!DOCTYPE svg PUBLIC "-//W3C//DTD SVG 1.1//EN" "http://www.w3.org/Graphics/SVG/1.1/DTD/svg11.dtd" >
<svg xmlns="http://www.w3.org/2000/svg" xmlns:xlink="http://www.w3.org/1999/xlink" version="1.1" viewBox="-10 0 758 1000">
  <g transform="matrix(1 0 0 -1 0 800)">
   <path fill="currentColor"
d="M437 277q-24 0 -45 7.5t-39 14.5q-19 9 -36.5 16t-35.5 7q-20 0 -46 -10.5t-48 -28.5l21 54q14 15 35.5 30t44 25t36.5 10q21 0 39.5 -7.5t36.5 -15.5q17 -8 34 -13.5t34 -5.5q25 0 41.5 6.5t26.5 13.5t14 9q10 1 13.5 -5t1.5 -11q-8 -18 -28 -40.5t-46.5 -39
t-53.5 -16.5zM317 -14q-53 0 -99.5 20t-82 55.5t-55 83.5t-19.5 106q0 90 35 165t96.5 130.5t142 86.5t173.5 31q34 0 61 -6t48 -14q19 -6 30.5 -9.5t23.5 -3.5q7 0 12.5 1t12.5 5q8 5 15 7.5t14 2.5q10 0 12 -6t-4 -16q-13 -17 -28 -47t-27 -62t-20 -58q-2 -9 -7.5 -15.5
t-15.5 -6.5q-9 0 -13 13.5t-3 33.5q2 22 -3.5 45t-18.5 42q-16 26 -40 42t-51 16q-51 0 -96 -27t-81 -72.5t-61.5 -102.5t-39.5 -119.5t-14 -120.5q0 -41 10 -71.5t28 -50.5t44 -29.5t58 -9.5q41 0 77.5 17.5t70 49.5t64.5 74q8 11 13.5 18.5t12.5 7.5t12 -7.5t2 -18.5
q-6 -22 -16.5 -52t-23.5 -58t-24.5 -46.5t-17.5 -18.5q-9 0 -14 3.5t-11 7.5t-14 6.5t-22 2.5q-11 0 -24.5 -3.5t-29.5 -8.5q-18 -4 -41 -8.5t-51 -4.5z" />
  </g>

</svg>
