<?xml version="1.0" standalone="no"?>
<!DOCTYPE svg PUBLIC "-//W3C//DTD SVG 1.1//EN" "http://www.w3.org/Graphics/SVG/1.1/DTD/svg11.dtd" >
<svg xmlns="http://www.w3.org/2000/svg" xmlns:xlink="http://www.w3.org/1999/xlink" version="1.1" viewBox="-10 0 782 1000">
  <g transform="matrix(1 0 0 -1 0 800)">
   <path fill="currentColor"
d="M76 -3q-7 0 -13 3.5t-6 10.5q0 9 10 14t22 7q40 9 58 21t28 45l144 464q6 21 0.5 32.5t-26.5 11.5q-42 0 -75 -19t-34 -56q-1 -8 3 -13t7 -11q6 -8 11.5 -15t1.5 -18q-3 -13 -19.5 -26.5t-34.5 -22.5t-28 -9q-11 0 -19.5 8.5t-13 23.5t-3.5 31q1 48 26.5 81t69 53t102 29
t126.5 9l35 2.5t45.5 2.5t49.5 1q69 0 118.5 -24.5t75.5 -67t24 -97.5q-2 -51 -25 -93.5t-63 -74t-93.5 -49.5t-115.5 -18q-24 0 -35 5t-11 17q0 7 6.5 10.5t15.5 4.5q11 2 20 4t22 4q46 8 77 39t47.5 73t16.5 85q0 58 -14.5 88.5t-38 42t-53.5 11.5q-9 0 -16.5 -4.5
t-15.5 -20.5t-20 -52l-136 -440q-10 -32 5 -45.5t55 -22.5q9 -2 15.5 -6.5t6.5 -13.5q0 -7 -11 -11t-22 -4q-22 0 -51 1.5t-57 2.5t-47 1q-31 0 -72 -2.5t-75 -2.5z" />
  </g>

</svg>
