<?xml version="1.0" standalone="no"?>
<!DOCTYPE svg PUBLIC "-//W3C//DTD SVG 1.1//EN" "http://www.w3.org/Graphics/SVG/1.1/DTD/svg11.dtd" >
<svg xmlns="http://www.w3.org/2000/svg" xmlns:xlink="http://www.w3.org/1999/xlink" version="1.1" viewBox="-10 0 553 1000">
  <g transform="matrix(1 0 0 -1 0 800)">
   <path fill="currentColor"
d="M168 -211q-36 0 -52.5 22t-16.5 44q0 12 6.5 20.5t16.5 8.5q6 0 15 -5t22 -13q13 -6 27.5 -12.5t32.5 -6.5q16 0 36 25t40.5 68t39.5 94t34.5 104t24 100.5t8.5 80.5q0 16 -6.5 26t-19.5 10t-31.5 -18.5t-41 -49.5t-45.5 -69.5t-45.5 -79l-42.5 -76.5
q-18 -34 -37.5 -55.5t-38.5 -21.5q-8 0 -20.5 9t-21.5 25.5t-9 39.5q0 16 3 32.5t10 37.5l133 407q5 15 12 30.5t7 29.5t-14 21t-27 12q-7 2 -13.5 5.5t-6.5 9.5q0 5 4.5 9.5t22.5 11.5q11 3 33.5 10t48 14.5t46 12.5t28.5 5q7 0 16.5 -1.5t9.5 -11.5q0 -12 -3 -21t-6 -19
l-149 -440q-2 -7 2 -7.5t8 5.5q36 59 77 109.5t83 81.5t81 31q41 0 62 -23.5t21 -64.5q0 -47 -16.5 -106t-44.5 -122t-64.5 -122t-76.5 -105q-9 -11 -29 -28t-44.5 -34t-48 -28.5t-40.5 -11.5zM123 495q-12 0 -14.5 10t0.5 19q4 13 14 20.5t23 7.5l275 1q9 0 14.5 -5.5
t1.5 -11.5q-1 -1 -1.5 -4.5t-0.5 -5.5q-7 -12 -19 -21t-28 -9z" />
  </g>

</svg>
