<?xml version="1.0" standalone="no"?>
<!DOCTYPE svg PUBLIC "-//W3C//DTD SVG 1.1//EN" "http://www.w3.org/Graphics/SVG/1.1/DTD/svg11.dtd" >
<svg xmlns="http://www.w3.org/2000/svg" xmlns:xlink="http://www.w3.org/1999/xlink" version="1.1" viewBox="-52 0 971 1000">
  <g transform="matrix(1 0 0 -1 0 800)">
   <path fill="currentColor"
d="M519 -206q-12 0 -17 9.5t-1 21.5q2 5 4.5 10.5t6.5 11.5q11 15 26 40t27.5 48.5t14.5 33.5q6 18 -3 25.5t-37 7.5q-20 0 -42.5 -1t-46 -2.5t-45.5 -1.5q-7 0 -12 3.5t-3 10.5q5 16 28 21q39 8 57.5 21t27.5 44l98 323q2 5 0 7t-6 -1l-355 -289q-6 -5 -8.5 -9t-4.5 -11
l-5 -19q-8 -30 2 -43t45 -23q9 -3 13 -7t1 -13q-1 -7 -7.5 -11t-14.5 -4q-22 0 -48 1.5t-51.5 2.5t-45.5 1t-44.5 -1t-50.5 -2.5t-49 -1.5q-7 0 -11.5 3.5t-2.5 10.5q5 16 27 21q41 8 57.5 20.5t26.5 44.5l141 454q10 33 2 46t-45 22q-9 2 -13 7.5t-1 13.5q2 7 9.5 11
t14.5 4q23 0 47.5 -1t48 -2.5t43.5 -1.5t45.5 1t52.5 2t48 1q18 0 14 -14q-3 -10 -9.5 -14t-18.5 -7q-29 -8 -46 -16t-25.5 -20.5t-14.5 -32.5l-93 -309q-3 -14 -0.5 -15t14.5 8l338 283q5 5 9 10t7 12l4 11q10 29 2.5 44t-45.5 25q-9 2 -12.5 7.5t-1.5 13.5q2 7 9.5 11
t15.5 4q22 0 47 -1t49 -2.5t44 -1.5t45 1t51.5 2t47.5 1q18 0 14 -14q-3 -10 -9.5 -14t-18.5 -7q-29 -8 -45 -16t-24.5 -20.5t-14.5 -32.5l-140 -454q-9 -27 1.5 -42.5t50.5 -23.5q8 -1 7.5 -7.5t-3.5 -11.5q-4 -9 -20 -28t-37.5 -44t-45 -54t-44.5 -57q-12 -17 -23.5 -25.5
t-22.5 -8.5zM552 693q-64 0 -100.5 31t-36.5 74q0 31 21.5 54.5t52.5 23.5q21 0 33 -10.5t12 -27.5q0 -12 -3.5 -22.5t-7.5 -19.5t-4 -18q0 -13 12.5 -23t39.5 -10q46 0 80.5 23t56.5 70q7 15 11 19.5t12 4.5q12 0 12 -15q0 -21 -13.5 -47.5t-38.5 -50.5t-60 -40t-79 -16z
" />
  </g>

</svg>
