<?xml version="1.0" standalone="no"?>
<!DOCTYPE svg PUBLIC "-//W3C//DTD SVG 1.1//EN" "http://www.w3.org/Graphics/SVG/1.1/DTD/svg11.dtd" >
<svg xmlns="http://www.w3.org/2000/svg" xmlns:xlink="http://www.w3.org/1999/xlink" version="1.1" viewBox="-10 0 379 1000">
  <g transform="matrix(1 0 0 -1 0 800)">
   <path fill="currentColor"
d="M118 438q-4 0 -6 2.5t-1 6.5q1 6 5 10t10 5q22 4 29 8.5t12 20.5l59 193q7 21 -5.5 31t-25.5 13q-10 2 -8 11q5 16 21 17q37 3 71 5.5t61 13.5l6 3t6 2q9 0 6 -9q-1 -6 -6 -15.5t-11 -27.5l-73 -237q-4 -13 -2 -17.5t24 -11.5q5 -2 7 -4.5t0 -8.5q-1 -5 -4 -7.5t-8 -2.5
q-11 0 -28 0.5t-32.5 1t-24.5 0.5q-13 0 -38 -1.5t-44 -1.5z" />
  </g>

</svg>
