<?xml version="1.0" standalone="no"?>
<!DOCTYPE svg PUBLIC "-//W3C//DTD SVG 1.1//EN" "http://www.w3.org/Graphics/SVG/1.1/DTD/svg11.dtd" >
<svg xmlns="http://www.w3.org/2000/svg" xmlns:xlink="http://www.w3.org/1999/xlink" version="1.1" viewBox="-10 0 629 1000">
  <g transform="matrix(1 0 0 -1 0 800)">
   <path fill="currentColor"
d="M361 -14q-24 0 -39.5 18.5t-15.5 36.5q0 5 1.5 11.5t5.5 14.5q17 37 28.5 64.5t22.5 53.5t24 57q2 6 -0.5 8t-6.5 -3q-34 -40 -77.5 -70.5t-86 -47.5t-74.5 -17q-24 0 -43 12t-25.5 34.5t6.5 53.5l42 95q4 9 4.5 16t-6.5 7q-8 0 -18 -5.5t-20.5 -14.5t-19.5 -20
l-8.5 -8.5t-8.5 -4.5q-12 0 -12 13q0 7 4 15t12 19q21 25 54.5 50.5t68.5 42.5t61 17q23 0 32 -18t-6 -54l-50 -116q-7 -17 -4.5 -27.5t11.5 -15.5t21 -5q18 0 43 13.5t52 36.5t48 51q15 20 33 47t30 55q3 9 16 15t29 9.5t30 5.5t18 2q23 0 29 -13t-3 -40l-97 -266
q-5 -14 -2 -17q3 -1 6 -0.5t6.5 2t6.5 3l5 2.5q6 0 19 8t28.5 19.5t25.5 21.5q5 3 5 1q5 0 8 -5t3 -10q-3 -16 -19.5 -36t-41.5 -40.5t-53 -37.5t-55 -28t-47 -11zM244 64q-12 0 -21.5 9.5t-5.5 22.5l73 235q3 9 9.5 15t13.5 6q11 0 20.5 -12.5t4.5 -28.5l-70 -226
q-3 -10 -10 -15.5t-14 -5.5z" />
  </g>

</svg>
