<?xml version="1.0" standalone="no"?>
<!DOCTYPE svg PUBLIC "-//W3C//DTD SVG 1.1//EN" "http://www.w3.org/Graphics/SVG/1.1/DTD/svg11.dtd" >
<svg xmlns="http://www.w3.org/2000/svg" xmlns:xlink="http://www.w3.org/1999/xlink" version="1.1" viewBox="-10 0 479 1000">
  <g transform="matrix(1 0 0 -1 0 800)">
   <path fill="currentColor"
d="M246 -291q-53 0 -91 12t-38 32q0 24 13 38t31 14q8 0 21 -10.5t31 -21t41 -10.5q33 0 56.5 12.5t36 40t12.5 73.5q0 26 -9 51.5t-25.5 42.5t-36.5 17l-125 1q-23 -1 -48.5 -3.5t-39.5 -2.5q-4 0 -13.5 9.5t-9.5 18.5q0 6 8 18t17.5 25.5t15.5 23.5q24 38 43.5 67.5
t37.5 58t39 62.5t51 82q2 4 2 7.5t-13 3.5h-58q-14 0 -24 -5.5t-22 -18.5q-4 -4 -12.5 -16t-18.5 -26t-18.5 -25.5t-11.5 -14.5q-6 -5 -17.5 -0.5t-10.5 13.5q3 10 9 34.5t10.5 52t4.5 46.5q0 11 7.5 18.5t15.5 7.5q9 0 19 -10q5 -4 18.5 -5.5t29.5 -1.5q12 0 23 0.5t18 0.5
q48 0 104.5 1t106.5 3q8 0 12.5 -7.5t6.5 -16.5t-2 -15q-11 -13 -20.5 -25.5t-21.5 -28.5l-166 -267q-4 -7 -0.5 -11t15.5 -4h84q45 0 72.5 -19t40 -49t12.5 -65q0 -40 -20.5 -77.5t-53 -67t-69.5 -46.5t-70 -17z" />
  </g>

</svg>
