<?xml version="1.0" standalone="no"?>
<!DOCTYPE svg PUBLIC "-//W3C//DTD SVG 1.1//EN" "http://www.w3.org/Graphics/SVG/1.1/DTD/svg11.dtd" >
<svg xmlns="http://www.w3.org/2000/svg" xmlns:xlink="http://www.w3.org/1999/xlink" version="1.1" viewBox="-47 0 725 1000">
  <g transform="matrix(1 0 0 -1 0 800)">
   <path fill="currentColor"
d="M-18 -5q-9 0 -14 5.5t-4 10.5q2 8 10 12.5t16 5.5q26 4 39.5 13.5t19.5 28.5l93 302q7 23 2.5 33t-33.5 16q-6 1 -10 5t-2 12q2 7 8.5 10.5t13.5 3.5q16 0 37.5 -1t43 -2.5t36.5 -1.5q16 0 40 1l48 2t39 1t12 -13q-5 -14 -24 -18q-31 -6 -42.5 -16t-18.5 -34l-32 -107
q-4 -10 -1 -15.5t10 -5.5q6 0 18.5 5t34.5 21q26 19 46.5 35t40 33t42.5 39q16 15 14.5 25t-20.5 16q-9 3 -14 8.5t-3 12.5q1 5 7 8.5t14 3.5q17 0 31 -0.5t27.5 -1.5t29.5 -1q20 0 37 1t34.5 2t39.5 1q8 0 14 -3t5 -9q-1 -8 -10 -12.5t-18 -6.5q-36 -6 -58 -13t-49 -23
q-33 -21 -63 -47t-60 -49q-13 -10 -14.5 -19.5t3.5 -24.5q25 -63 46.5 -107.5t45 -70t50.5 -32.5q12 -3 17.5 -7.5t3.5 -12.5q-3 -7 -12 -12t-28 -5q-24 0 -42.5 1.5t-35.5 2.5t-37 1q-28 0 -50.5 24t-41.5 67.5t-37 102.5q-1 7 -6 14t-14 7q-6 0 -12 -4.5t-8 -12.5
q-6 -20 -13.5 -44.5t-14 -47.5t-11.5 -38q-4 -18 2 -28t27 -13q8 -1 13 -5t3 -12q-1 -6 -8.5 -10.5t-17.5 -4.5q-37 0 -67 3t-53 3q-22 0 -47 -4t-68 -4zM120 -290q-22 0 -22 13q0 6 5 11t18 9q28 7 49 19t32.5 27t11.5 32q0 12 -8.5 19.5t-19.5 11.5q-14 7 -20.5 16.5
t-6.5 23.5q0 25 20 40.5t52 15.5q35 0 53.5 -21t18.5 -57q0 -27 -16 -55t-42.5 -52t-59 -38.5t-65.5 -14.5z" />
  </g>

</svg>
