<?xml version="1.0" standalone="no"?>
<!DOCTYPE svg PUBLIC "-//W3C//DTD SVG 1.1//EN" "http://www.w3.org/Graphics/SVG/1.1/DTD/svg11.dtd" >
<svg xmlns="http://www.w3.org/2000/svg" xmlns:xlink="http://www.w3.org/1999/xlink" version="1.1" viewBox="-10 0 654 1000">
  <g transform="matrix(1 0 0 -1 0 800)">
   <path fill="currentColor"
d="M214 -14q-11 0 -27 7.5t-28 19.5t-12 23q0 7 0.5 12.5t2 11t4.5 12.5q12 33 30 72.5t35.5 82t26.5 82.5q2 9 1 13.5t-9 7.5q-20 7 -38.5 10t-34.5 3q-34 0 -56 -8.5t-22 -23.5q0 -14 4 -23t9 -16q8 -11 15 -17.5t7 -14.5q0 -20 -13 -29.5t-33 -9.5q-18 0 -35 17t-17 36
q0 33 20 69t52 63q22 18 46 32t57 14q23 0 45.5 -5.5t42.5 -11.5t34 -6q8 0 18 4.5t20.5 10.5t18.5 10q6 1 10.5 -2.5t-0.5 -13.5l-75 -194q-3 -7 1 -7.5t8 5.5q35 45 70 83.5t68 67t61 44.5t48 16q30 0 47 -20.5t17 -61.5q0 -17 -14 -17q-7 0 -16 1.5t-19 2.5
q-11 1 -20.5 2t-15.5 1q-21 0 -39.5 -5.5t-36.5 -15.5t-35.5 -24.5t-36.5 -33.5q-4 -4 -4 -7.5t4 -9.5q13 -15 23 -37t18 -46q12 -29 24.5 -52.5t28.5 -23.5q10 0 25.5 9t30.5 22t23 23q9 10 13.5 14t8.5 4t6 -4t2 -9q0 -17 -18.5 -43t-46.5 -53t-57.5 -45t-52.5 -18t-38 16
t-26 48l-35 100q-3 9 -7 15t-11 6q-4 0 -8 -5t-8 -17q-9 -28 -22.5 -63t-24.5 -68q-7 -19 -14.5 -25.5t-19.5 -6.5z" />
  </g>

</svg>
