<?xml version="1.0" standalone="no"?>
<!DOCTYPE svg PUBLIC "-//W3C//DTD SVG 1.1//EN" "http://www.w3.org/Graphics/SVG/1.1/DTD/svg11.dtd" >
<svg xmlns="http://www.w3.org/2000/svg" xmlns:xlink="http://www.w3.org/1999/xlink" version="1.1" viewBox="-10 0 378 1000">
  <g transform="matrix(1 0 0 -1 0 800)">
   <path fill="currentColor"
d="M152 698q-13 0 -21.5 7t-20.5 21l-76 94q-6 8 -4 15q3 13 22 13q8 0 28 -9t41.5 -21t34.5 -21q5 -5 10.5 -4.5t13.5 4.5q14 6 38.5 14.5t50.5 17t46.5 14t26.5 5.5q16 0 16 -12q0 -10 -11 -19l-136 -91q-22 -15 -34 -21.5t-25 -6.5z" />
  </g>

</svg>
