<?xml version="1.0" standalone="no"?>
<!DOCTYPE svg PUBLIC "-//W3C//DTD SVG 1.1//EN" "http://www.w3.org/Graphics/SVG/1.1/DTD/svg11.dtd" >
<svg xmlns="http://www.w3.org/2000/svg" xmlns:xlink="http://www.w3.org/1999/xlink" version="1.1" viewBox="-53 0 1066 1000">
  <g transform="matrix(1 0 0 -1 0 800)">
   <path fill="currentColor"
d="M-27 -6q-7 0 -12 4t-3 10q5 17 28 22q36 8 52 20.5t27 44.5l141 456q10 33 2.5 46t-40.5 22q-9 2 -13 7.5t-1 13.5q2 7 9.5 11t14.5 4q23 0 46.5 -1t45.5 -2.5t42 -1.5t45.5 1t52.5 2t48 1q18 0 14 -14q-3 -10 -9.5 -14t-18.5 -7q-29 -8 -45.5 -16t-25.5 -20.5t-15 -32.5
l-55 -180q-3 -14 11 -14h223q15 0 19 15l52 180q9 32 0 45t-46 23q-9 2 -13 7.5t-1 13.5q1 7 9 11t15 4q22 0 47 -1t49.5 -2.5t44.5 -1.5t45.5 1t52.5 2t49 1q17 0 13 -14q-2 -10 -9 -14t-19 -7q-29 -8 -45.5 -16t-25.5 -20t-15 -33l-47 -161q-10 -34 21 -34q22 0 37 2t40 2
q43 0 82.5 -17t63.5 -47t24 -72q-1 -67 -36.5 -118.5t-105.5 -80t-174 -28.5q-9 0 -23 1.5t-42.5 3t-83.5 1.5q-32 0 -72.5 -2.5t-71.5 -2.5q-9 0 -12.5 4.5t-3.5 10.5q4 14 28 20q36 10 55.5 21.5t29.5 43.5l62 197q5 16 -8 16h-224q-15 0 -19 -16l-61 -196q-9 -29 1.5 -42
t44.5 -25q10 -3 13.5 -7t1.5 -14q-2 -7 -8 -10.5t-15 -3.5q-22 0 -48 1t-51.5 2t-45.5 1t-44.5 -1.5l-49 -3t-44.5 -1.5zM672 37q34 0 62 16.5t48.5 42.5t32 56.5t11.5 58.5q0 51 -28 77.5t-70 26.5q-21 0 -32.5 -8.5t-18.5 -28.5q-15 -46 -28.5 -90t-26.5 -88
q-10 -32 2.5 -47.5t47.5 -15.5z" />
  </g>

</svg>
