<?xml version="1.0" standalone="no"?>
<!DOCTYPE svg PUBLIC "-//W3C//DTD SVG 1.1//EN" "http://www.w3.org/Graphics/SVG/1.1/DTD/svg11.dtd" >
<svg xmlns="http://www.w3.org/2000/svg" xmlns:xlink="http://www.w3.org/1999/xlink" version="1.1" viewBox="-10 0 455 1000">
  <g transform="matrix(1 0 0 -1 0 800)">
   <path fill="currentColor"
d="M193 -286q-52 0 -92.5 10t-63.5 31t-23 55q0 41 20.5 62.5t53.5 31t68 14.5q37 5 69.5 13t53.5 29t21 62q0 34 -27.5 55.5t-92.5 21.5q-29 0 -60.5 -5.5t-45.5 -5.5q-7 0 -8.5 3t-1.5 5q1 4 4 9.5t5 9.5l158 244q2 5 0.5 8t-11.5 4q-13 1 -26.5 1h-26.5q-12 0 -24.5 -4
t-22.5 -13q-7 -5 -21 -22.5t-27.5 -35t-19.5 -25.5q-6 -7 -11 -11.5t-10 -3.5q-6 1 -7 7.5t1 13.5q3 10 9 31t10 48t4 55q0 11 5.5 18t13.5 7q9 0 19 -10q5 -4 20.5 -5.5t31.5 -1.5h47q59 0 109 2t99 3q8 0 13.5 -7.5t6.5 -16.5t-3 -15q-11 -14 -20 -26t-20 -28
q-20 -31 -38 -59.5l-36 -57t-37 -58.5q-4 -7 -0.5 -10t9.5 -3q5 0 10.5 1t7.5 1q47 0 78.5 -16.5t48.5 -43t17 -58.5q0 -40 -17 -65.5t-44.5 -40.5t-60.5 -22t-67 -12q-31 -4 -55.5 -11.5t-39 -20.5t-14.5 -36q0 -25 28.5 -39.5t59.5 -14.5q46 0 77 10.5t49 22.5
q21 12 29 28.5t18 16.5q7 0 9 -4.5t2 -9.5q0 -50 -55.5 -83t-155.5 -33z" />
  </g>

</svg>
