<?xml version="1.0" standalone="no"?>
<!DOCTYPE svg PUBLIC "-//W3C//DTD SVG 1.1//EN" "http://www.w3.org/Graphics/SVG/1.1/DTD/svg11.dtd" >
<svg xmlns="http://www.w3.org/2000/svg" xmlns:xlink="http://www.w3.org/1999/xlink" version="1.1" viewBox="-52 0 1059 1000">
  <g transform="matrix(1 0 0 -1 0 800)">
   <path fill="currentColor"
d="M617 -218q-46 0 -72.5 8t-37 22.5t-10.5 32.5q0 24 14 42t31 18q15 0 27 -12t23 -27q12 -15 25 -28.5t29 -13.5q25 0 44.5 14.5t37 48.5t37.5 91.5t46 143.5q36 117 25.5 171.5t-66.5 54.5q-20 0 -40 -4t-34 -9t-19 -8q-7 -4 -10.5 -11t-6.5 -15l-63 -204
q-10 -32 1 -44.5t42 -20.5q9 -2 13 -7t1 -14q-1 -7 -9 -10.5t-15 -3.5q-20 0 -44 1.5t-48 2.5t-44 1t-46 -1t-52.5 -2.5t-48.5 -1.5q-8 0 -11 4t-1 11q3 9 9 13t17 7q42 11 58.5 24t24.5 42l152 483q3 13 0.5 19t-14.5 6q-19 0 -31.5 1t-24.5 2t-32 1h-32t-25.5 -0.5
t-30.5 -2.5q-14 -1 -22.5 -6.5t-11.5 -17.5l-151 -485q-8 -29 0.5 -41t43.5 -25q9 -3 13 -7t1 -13q-1 -7 -7.5 -11t-14.5 -4q-22 0 -47.5 1.5t-50 2.5t-44.5 1q-21 0 -46 -1t-50 -2.5t-45 -1.5q-7 0 -12 3.5t-3 10.5q5 16 27 21q37 8 55 20.5t28 44.5l140 454
q10 32 1.5 45.5t-41.5 22.5q-9 2 -13 7.5t-1 13.5q1 7 9 11t15 4q22 0 46 -1t47 -2.5t43 -1.5h66h59h66h86h102q20 0 43.5 1.5t47.5 2.5t47 1q7 0 12 -4t3 -11q-5 -16 -28 -21q-37 -9 -54 -22.5t-27 -45.5l-43 -137q-5 -18 -6 -26.5t8 -8.5h4t5 1q24 8 57 18t73 10
q63 0 104.5 -28t53 -84.5t-16.5 -142.5q-18 -57 -46.5 -115.5t-66 -109.5t-84.5 -87q-36 -28 -76.5 -43.5t-86.5 -15.5z" />
  </g>

</svg>
