<?xml version="1.0" standalone="no"?>
<!DOCTYPE svg PUBLIC "-//W3C//DTD SVG 1.1//EN" "http://www.w3.org/Graphics/SVG/1.1/DTD/svg11.dtd" >
<svg xmlns="http://www.w3.org/2000/svg" xmlns:xlink="http://www.w3.org/1999/xlink" version="1.1" viewBox="-43 0 261 1000">
  <g transform="matrix(1 0 0 -1 0 800)">
   <path fill="currentColor"
d="M147 687q10 0 14.5 -10t10.5 -31q4 -16 9 -33.5t10 -35.5t9 -34.5t6 -31.5q4 -16 -0.5 -28t-18.5 -12q-15 0 -30 31q-6 14 -15.5 32.5t-21.5 39.5q-4 6 -12 0q-23 -21 -45.5 -40.5l-37.5 -32.5q-17 -14 -29 -22t-18 -8q-11 0 -11 12q0 6 3 13t10 16q18 21 37.5 43.5
t39.5 45.5t39 45q16 18 28.5 29.5t22.5 11.5z" />
  </g>

</svg>
