<?xml version="1.0" standalone="no"?>
<!DOCTYPE svg PUBLIC "-//W3C//DTD SVG 1.1//EN" "http://www.w3.org/Graphics/SVG/1.1/DTD/svg11.dtd" >
<svg xmlns="http://www.w3.org/2000/svg" xmlns:xlink="http://www.w3.org/1999/xlink" version="1.1" viewBox="-10 0 460 1000">
  <g transform="matrix(1 0 0 -1 0 800)">
   <path fill="currentColor"
d="M390 467q-7 0 -11.5 8.5t-8.5 24.5q-4 21 -10.5 52t-11 58t-4.5 36q0 12 11 25t26.5 22t28.5 9q10 0 20 -6t10 -22q0 -10 -2.5 -33.5t-7 -50.5l-8.5 -51t-7 -35q-4 -19 -10.5 -28t-14.5 -9zM145 471q-23 0 -23 12q0 15 24 21q34 8 57 26t23 36q0 15 -7.5 23t-18.5 12
q-13 5 -23 15t-10 26q0 26 22 41.5t53 15.5q34 0 52.5 -20t18.5 -55q0 -31 -15.5 -58t-41 -48.5t-54.5 -34t-57 -12.5z" />
  </g>

</svg>
