<?xml version="1.0" standalone="no"?>
<!DOCTYPE svg PUBLIC "-//W3C//DTD SVG 1.1//EN" "http://www.w3.org/Graphics/SVG/1.1/DTD/svg11.dtd" >
<svg xmlns="http://www.w3.org/2000/svg" xmlns:xlink="http://www.w3.org/1999/xlink" version="1.1" viewBox="-10 0 873 1000">
  <g transform="matrix(1 0 0 -1 0 800)">
   <path fill="currentColor"
d="M184 -17q-33 0 -38.5 34.5t6.5 93.5q24 123 41.5 231t28.5 211q2 28 -6.5 42.5t-33.5 20.5q-16 6 -25.5 9.5t-9.5 13.5q0 8 9 11.5t25 3.5q30 0 69 -2t69 -2q19 0 46 1.5t54.5 2t47.5 0.5q8 0 16 -3.5t6 -10.5q-2 -9 -13 -14t-22 -7q-35 -8 -49.5 -19.5t-20.5 -44.5
l-71 -385q-1 -6 -0.5 -8.5t3.5 -2.5q2 0 4 3t7 9l249 298q43 51 55 81t3 46t-31 23q-10 2 -18 7.5t-5 13.5q2 7 12.5 10.5t20.5 3.5q30 0 52 -1.5t52 -1.5q29 0 53 3t53 3q11 0 20.5 -4t9.5 -12q0 -9 -13.5 -13.5t-24.5 -7.5q-31 -8 -60.5 -28.5t-55.5 -50.5l-362 -412
q-17 -21 -39.5 -45.5t-45.5 -47.5t-41 -38t-27 -15zM117 -207q-28 0 -47 18.5t-19 41.5q0 38 29.5 65.5t75.5 27.5q29 0 47.5 -20t18.5 -46q0 -23 -14.5 -42.5t-38.5 -32t-52 -12.5z" />
  </g>

</svg>
