<?xml version="1.0" standalone="no"?>
<!DOCTYPE svg PUBLIC "-//W3C//DTD SVG 1.1//EN" "http://www.w3.org/Graphics/SVG/1.1/DTD/svg11.dtd" >
<svg xmlns="http://www.w3.org/2000/svg" xmlns:xlink="http://www.w3.org/1999/xlink" version="1.1" viewBox="-10 0 598 1000">
  <g transform="matrix(1 0 0 -1 0 800)">
   <path fill="currentColor"
d="M155 -14q-38 0 -71.5 18t-53.5 50t-20 74q0 46 19.5 99t57.5 99.5t91.5 76.5t121.5 30q67 0 107.5 -38t40.5 -105q0 -46 -19.5 -98.5t-57.5 -99t-92.5 -76.5t-123.5 -30zM174 25q20 0 40.5 22t39 58.5t33.5 80.5t23.5 88t8.5 80q0 21 -8 31.5t-26 10.5q-17 0 -37 -21.5
t-39 -58t-34.5 -80t-25.5 -87t-10 -80.5q0 -22 10 -33t25 -11zM327 642q7 0 13.5 -7t9.5 -16q1 -2 10 -21.5t21 -45t20 -44.5l4.5 -13.5t2.5 -14.5q0 -10 -4 -16.5t-13 -6.5q-7 0 -12 5.5t-11 13.5q-16 19 -27 34t-24 34q-5 7 -9 6.5t-14 -6.5q-25 -17 -43 -30.5t-45 -32.5
q-14 -10 -25.5 -17t-20.5 -7q-12 0 -12 13q0 4 5 13.5t18 24.5q14 15 33.5 34t37.5 37t31.5 30t15.5 14q9 8 19.5 13.5t18.5 5.5zM437 558q-11 0 -18.5 12t-7.5 25q0 15 11 25t25 20t25 18.5t11 20.5q0 6 -4 11t-14 5q-11 0 -23.5 -10t-35.5 -30q-4 -4 -11 -8.5t-14 -4.5
q-9 0 -14 13t-5 23t11 23t19 17q22 11 47 20.5t59 9.5q35 0 57.5 -15.5t22.5 -40.5q0 -27 -26.5 -47t-57.5 -30q-11 -4 -15.5 -7.5t-6.5 -8.5t-2 -12t-2 -12q-2 -7 -11.5 -12t-19.5 -5z" />
  </g>

</svg>
