<?xml version="1.0" standalone="no"?>
<!DOCTYPE svg PUBLIC "-//W3C//DTD SVG 1.1//EN" "http://www.w3.org/Graphics/SVG/1.1/DTD/svg11.dtd" >
<svg xmlns="http://www.w3.org/2000/svg" xmlns:xlink="http://www.w3.org/1999/xlink" version="1.1" viewBox="-48 0 627 1000">
  <g transform="matrix(1 0 0 -1 0 800)">
   <path fill="currentColor"
d="M-21 -5q-10 0 -13.5 4.5t-2.5 10.5q3 15 28 21q36 10 55.5 21.5t29.5 43.5l141 457q10 32 1 44t-45 22q-9 2 -12.5 7.5t-1.5 13.5q1 7 8.5 11t14.5 4q23 0 48 -1t49 -2.5t44 -1.5q21 0 47.5 1t53.5 2t49 1q17 0 13 -14q-2 -10 -9 -14t-18 -7q-30 -7 -47 -14.5
t-26.5 -19.5t-15.5 -32l-124 -406q-20 -64 -10.5 -86.5t38.5 -22.5h36q43 0 76.5 10t57.5 26q27 20 46.5 46t35.5 58q4 8 9.5 13t11.5 5q5 0 8 -5.5t3 -12.5q0 -14 -6 -37t-16 -47.5t-20 -46t-19 -34.5q-4 -6 -9 -12t-14 -6q-21 0 -62.5 1t-92.5 1.5t-103.5 1.5t-95.5 1
q-31 0 -71 -2.5t-70 -2.5zM220 -207q-28 0 -47 18.5t-19 41.5q0 38 29.5 65.5t75.5 27.5q29 0 47.5 -20t18.5 -46q0 -23 -14.5 -42.5t-38.5 -32t-52 -12.5z" />
  </g>

</svg>
