<?xml version="1.0" standalone="no"?>
<!DOCTYPE svg PUBLIC "-//W3C//DTD SVG 1.1//EN" "http://www.w3.org/Graphics/SVG/1.1/DTD/svg11.dtd" >
<svg xmlns="http://www.w3.org/2000/svg" xmlns:xlink="http://www.w3.org/1999/xlink" version="1.1" viewBox="-112 0 628 1000">
  <g transform="matrix(1 0 0 -1 0 800)">
   <path fill="currentColor"
d="M121 -290q-62 0 -112.5 13.5t-80.5 37t-30 53.5q0 28 26 50.5t69.5 40.5t95.5 32q12 4 2 9q-20 12 -37 30.5t-17 38.5q0 22 23.5 39.5t57.5 35.5q6 4 9.5 7.5t3.5 5.5q0 4 -10 8q-18 9 -36 24t-29.5 36.5t-11.5 47.5q0 32 15 68.5t43 70t70 54.5t97 21q19 0 36 -5.5
t31 -11.5q16 -7 29 -12.5t21 -5.5q17 0 33.5 4t32 8t28.5 4q7 0 16.5 -5.5t9.5 -21.5q0 -18 -7.5 -30t-19.5 -12q-9 0 -20.5 2t-24 3.5t-23.5 1.5q-5 0 -9 -1.5t-2 -9.5q2 -7 2.5 -13.5t0.5 -13.5q0 -40 -16 -79.5t-44.5 -71t-67 -50.5t-84.5 -19q-9 0 -18.5 0.5t-14.5 -1.5
q-10 -7 -10 -17q0 -11 10.5 -22.5t28.5 -24.5q19 -12 44 -27.5t50.5 -31.5t48.5 -31q24 -16 37 -34.5t13 -38.5q0 -30 -22.5 -57.5t-60 -49.5t-83 -35.5t-93.5 -13.5zM164 -254q26 0 50 8.5t39 23.5t15 33q0 11 -7.5 23.5t-20.5 20.5q-21 14 -50 31.5t-47 26.5q-8 4 -15 4
q-6 0 -10.5 -1t-9.5 -3q-48 -14 -72.5 -33.5t-24.5 -53.5q0 -21 16.5 -39.5t50.5 -29.5t86 -11zM174 134q17 -2 36 14t36 43t31 58.5t22.5 61t8.5 49.5q0 19 -7.5 30t-19.5 11q-16 0 -33.5 -16.5t-34.5 -43t-31 -57t-22.5 -59t-8.5 -48.5q0 -22 6.5 -32t16.5 -11zM179 516
q-9 0 -12 4.5t-3 12.5q0 15 9 29t20.5 23t20.5 9h252q21 0 21 -13q0 -11 -9 -26.5t-21.5 -27t-24.5 -11.5h-253z" />
  </g>

</svg>
