<?xml version="1.0" standalone="no"?>
<!DOCTYPE svg PUBLIC "-//W3C//DTD SVG 1.1//EN" "http://www.w3.org/Graphics/SVG/1.1/DTD/svg11.dtd" >
<svg xmlns="http://www.w3.org/2000/svg" xmlns:xlink="http://www.w3.org/1999/xlink" version="1.1" viewBox="-10 0 586 1000">
  <g transform="matrix(1 0 0 -1 0 800)">
   <path fill="currentColor"
d="M87 -14q-25 0 -44.5 18t-30.5 43t-11 46q0 39 16 85t43 90.5t61.5 81t72.5 58.5t74 22q31 0 45.5 -19.5t19.5 -51.5t4 -71q0 -5 2.5 -6t6.5 5q23 37 42 74.5t31 61.5q7 13 15.5 21.5t16.5 8.5q12 0 26.5 -10.5t25.5 -26t11 -30.5q0 -4 -0.5 -7.5t-1.5 -6.5
q-5 -19 -31 -59.5t-65.5 -88.5t-87.5 -96q5 -19 18 -25t27 -6q23 0 48.5 11.5t43.5 31.5q9 10 14.5 16.5t7.5 6.5q5 0 8 -2.5t3 -7.5q0 -23 -14.5 -51.5t-38 -55t-50.5 -43.5t-51 -17q-25 0 -38 17t-14 49q-1 13 0.5 27t4.5 29q-31 -30 -70 -58t-76.5 -46t-63.5 -18zM78 40
q24 0 56 19t65.5 50t63.5 66q11 14 21 27.5t18 27.5q2 40 -9 60.5t-36 20.5q-19 0 -45 -19t-53.5 -49t-51.5 -63.5t-38.5 -63.5t-14.5 -49q0 -13 6.5 -20t17.5 -7zM375 476q-44 0 -68 18.5t-31 47t1 54.5q5 18 15 26t18 8q9 0 12 -5.5t2 -15.5q-2 -27 14.5 -39t51.5 -12
t59 12t39 39q4 10 11.5 15.5t16.5 5.5q8 0 12 -8t1 -26q-4 -21 -23.5 -49.5t-53 -49.5t-77.5 -21z" />
  </g>

</svg>
