<?xml version="1.0" standalone="no"?>
<!DOCTYPE svg PUBLIC "-//W3C//DTD SVG 1.1//EN" "http://www.w3.org/Graphics/SVG/1.1/DTD/svg11.dtd" >
<svg xmlns="http://www.w3.org/2000/svg" xmlns:xlink="http://www.w3.org/1999/xlink" version="1.1" viewBox="-211 0 797 1000">
  <g transform="matrix(1 0 0 -1 0 800)">
   <path fill="currentColor"
d="M84 282q-8 -4 -18 6t-10 19q0 10 7 17t13 10l112 53l53 19l112 51q6 2 10 2q6 0 10.5 -6t4.5 -23q0 -8 -8.5 -16t-18.5 -13l-110 -51l-53 -18zM-68 -291q-70 0 -101.5 24t-31.5 52q0 25 17 41t35 16q9 0 20.5 -14.5t21.5 -28.5q10 -15 22 -28.5t30 -13.5q20 0 37.5 27.5
t34 77t32.5 114.5l59 237q25 98 52 176.5t57.5 137.5t65 99t74.5 59.5t87 19.5q59 0 95.5 -21t36.5 -54q0 -26 -12.5 -48t-33.5 -22q-16 0 -23 15.5t-15 32.5q-8 19 -20.5 32t-35.5 13q-28 0 -48.5 -14.5t-37.5 -46t-32.5 -82t-34 -122t-40.5 -167.5l-65 -255
q-12 -46 -38.5 -91.5t-61 -83t-72.5 -60t-74 -22.5z" />
  </g>

</svg>
