<?xml version="1.0" standalone="no"?>
<!DOCTYPE svg PUBLIC "-//W3C//DTD SVG 1.1//EN" "http://www.w3.org/Graphics/SVG/1.1/DTD/svg11.dtd" >
<svg xmlns="http://www.w3.org/2000/svg" xmlns:xlink="http://www.w3.org/1999/xlink" version="1.1" viewBox="-10 0 748 1000">
  <g transform="matrix(1 0 0 -1 0 800)">
   <path fill="currentColor"
d="M221 -3q-7 0 -12 3.5t-3 10.5q5 16 27 21q41 9 59 21t28 44l141 454q10 32 1 45t-46 23q-9 2 -13 7.5t-1 13.5q1 7 9 11t15 4q22 0 47 -1t49.5 -2.5t44.5 -1.5t45.5 1t52.5 2t49 1q17 0 13 -14q-2 -10 -9 -14t-19 -7q-29 -8 -45.5 -16t-25.5 -20t-15 -33l-128 -416
q-11 -37 -13 -56t8.5 -27.5t32.5 -14.5q21 -5 27.5 -10t3.5 -14q-1 -7 -7.5 -11t-14.5 -4q-22 0 -50.5 1.5t-56.5 2.5t-48 1q-31 0 -71.5 -2.5t-74.5 -2.5zM320 438q-7 0 -11.5 8.5t-8.5 24.5q-4 21 -10.5 52t-11 58t-4.5 36q0 12 11 25t26.5 22t28.5 9q10 0 20 -6t10 -22
q0 -10 -2.5 -33.5t-7 -50.5l-8.5 -51t-7 -35q-4 -19 -10.5 -28t-14.5 -9zM75 442q-23 0 -23 12q0 15 24 21q34 8 57 26t23 36q0 15 -7.5 23t-18.5 12q-13 5 -23 15t-10 26q0 26 22 41.5t53 15.5q34 0 52.5 -20t18.5 -55q0 -31 -15.5 -58t-41 -48.5t-54.5 -34t-57 -12.5z" />
  </g>

</svg>
