<?xml version="1.0" standalone="no"?>
<!DOCTYPE svg PUBLIC "-//W3C//DTD SVG 1.1//EN" "http://www.w3.org/Graphics/SVG/1.1/DTD/svg11.dtd" >
<svg xmlns="http://www.w3.org/2000/svg" xmlns:xlink="http://www.w3.org/1999/xlink" version="1.1" viewBox="-10 0 556 1000">
  <g transform="matrix(1 0 0 -1 0 800)">
   <path fill="currentColor"
d="M106 -290q-52 0 -74 17t-21 37q2 18 11 30.5t21 20.5t20 8q16 0 26.5 -11t20.5 -23q9 -10 18.5 -18t24.5 -8q25 0 44 34t40 87q12 31 30.5 76t39.5 97t41 103.5t37.5 96t27.5 74.5q7 18 5.5 27.5t-13.5 9.5t-27.5 -16t-32.5 -40t-36 -50q-8 -12 -24 -37.5t-34.5 -56.5
t-36.5 -62.5t-32 -55.5q-16 -27 -32.5 -46t-34.5 -19q-11 0 -28 12t-27 32t-2 43l100 251q5 12 3 18.5t-12 6.5t-34 -5.5t-46 -32.5q-4 -5 -12 -4.5t-9 9.5q0 7 6.5 19t16 24.5t16.5 18.5q24 23 56 39.5t79 16.5q25 0 39 -12.5t18.5 -29.5t-1.5 -31l-63 -152q-3 -7 5.5 -8
t12.5 6q35 63 72 114t75.5 82t80.5 31q43 0 60 -22t14.5 -57.5t-19.5 -76.5l-135 -339q-16 -48 -50.5 -89.5t-77 -72.5t-82 -48.5t-65.5 -17.5z" />
  </g>

</svg>
