<?xml version="1.0" standalone="no"?>
<!DOCTYPE svg PUBLIC "-//W3C//DTD SVG 1.1//EN" "http://www.w3.org/Graphics/SVG/1.1/DTD/svg11.dtd" >
<svg xmlns="http://www.w3.org/2000/svg" xmlns:xlink="http://www.w3.org/1999/xlink" version="1.1" viewBox="-10 0 397 1000">
  <g transform="matrix(1 0 0 -1 0 800)">
   <path fill="currentColor"
d="M108 -15q-10 0 -25.5 8t-30 21t-22.5 28.5t-3 31.5l102 324q7 22 16 28.5t25 6.5q21 0 41.5 -8t34 -19.5t9.5 -22.5q-5 -17 -15.5 -41.5t-23.5 -53t-25.5 -57.5t-23.5 -54.5t-17 -44.5t0.5 -28t24.5 -9q15 0 30.5 8t27.5 16q10 7 17 12t8 5q16 0 9 -20q-6 -18 -22 -40.5
t-38 -43.5t-47.5 -34t-51.5 -13zM221 476q-44 0 -68 18.5t-31 47t1 54.5q5 18 15 26t18 8q9 0 12 -5.5t2 -15.5q-2 -27 14.5 -39t51.5 -12t59 12t39 39q4 10 11.5 15.5t16.5 5.5q8 0 12 -8t1 -26q-4 -21 -23.5 -49.5t-53 -49.5t-77.5 -21z" />
  </g>

</svg>
