<?xml version="1.0" standalone="no"?>
<!DOCTYPE svg PUBLIC "-//W3C//DTD SVG 1.1//EN" "http://www.w3.org/Graphics/SVG/1.1/DTD/svg11.dtd" >
<svg xmlns="http://www.w3.org/2000/svg" xmlns:xlink="http://www.w3.org/1999/xlink" version="1.1" viewBox="-10 0 1127 1000">
  <g transform="matrix(1 0 0 -1 0 800)">
   <path fill="currentColor"
d="M187 -3q-7 0 -11.5 3.5t-2.5 10.5q2 9 9 14t18 7q35 9 51.5 20t25.5 41l143 458q10 33 2.5 46t-40.5 22q-9 2 -13 7.5t-1 13.5q2 7 9.5 11t14.5 4q23 0 46.5 -1t45.5 -2.5t42 -1.5t45.5 1t52.5 2t48 1q18 0 14 -14q-3 -10 -9.5 -14t-18.5 -7q-29 -8 -45.5 -16
t-25.5 -20.5t-15 -32.5l-56 -184q-4 -14 11 -14h246q13 0 17 15l56 183q9 30 1 42.5t-44 26.5q-8 3 -12 7t-2 14q2 7 8.5 10.5t14.5 3.5q21 0 47.5 -1t52 -2t44.5 -1q20 0 42.5 1.5t46.5 2.5t46 1q7 0 12 -4t3 -11q-5 -16 -28 -21q-37 -9 -52.5 -22.5t-25.5 -45.5l-142 -457
q-9 -30 0.5 -42t39.5 -20q9 -2 13 -7t2 -14q-2 -7 -10 -10.5t-15 -3.5q-20 0 -43 1.5t-46.5 2.5t-43.5 1q-19 0 -45.5 -1t-53 -2.5t-48.5 -1.5q-17 0 -14 15q3 9 10 13t18 7q40 11 58 24t27 42l58 192q3 7 2 11.5t-8 4.5h-248q-15 0 -20 -16l-58 -191q-9 -31 1.5 -42.5
t44.5 -24.5q9 -3 13 -7t1 -13q-1 -7 -7 -11t-15 -4q-22 0 -48 1.5t-51.5 2.5t-45.5 1t-44.5 -1t-49 -2.5t-45.5 -1.5zM310 430q-7 0 -11.5 8.5t-8.5 24.5q-4 21 -10.5 52t-11 58t-4.5 36q0 12 11 25t26.5 22t28.5 9q10 0 20 -6t10 -22q0 -10 -2.5 -33.5t-7 -50.5l-8.5 -51
t-7 -35q-4 -19 -10.5 -28t-14.5 -9zM65 434q-23 0 -23 12q0 15 24 21q34 8 57 26t23 36q0 15 -7.5 23t-18.5 12q-13 5 -23 15t-10 26q0 26 22 41.5t53 15.5q34 0 52.5 -20t18.5 -55q0 -31 -15.5 -58t-41 -48.5t-54.5 -34t-57 -12.5z" />
  </g>

</svg>
