<?xml version="1.0" standalone="no"?>
<!DOCTYPE svg PUBLIC "-//W3C//DTD SVG 1.1//EN" "http://www.w3.org/Graphics/SVG/1.1/DTD/svg11.dtd" >
<svg xmlns="http://www.w3.org/2000/svg" xmlns:xlink="http://www.w3.org/1999/xlink" version="1.1" viewBox="-10 0 517 1000">
  <g transform="matrix(1 0 0 -1 0 800)">
   <path fill="currentColor"
d="M113 -14q-26 0 -52 14t-43.5 36t-17.5 45q0 28 11.5 48t30 36t41.5 28q7 4 8.5 10.5t-5.5 10.5q-13 9 -24 19t-11 26q0 37 20 68.5t53 55t73.5 37t80.5 13.5q29 0 49.5 -9.5t20.5 -27.5q0 -14 -8.5 -30t-20.5 -27.5t-24 -11.5q-11 0 -26 2t-25 2q-41 -1 -69.5 -14.5
t-43.5 -32t-15 -34.5q0 -11 5 -16t13 -5q14 10 41.5 23t56.5 22.5t46 9.5q11 0 20 -8.5t9 -16.5q0 -16 -10 -35.5t-25 -33.5t-29 -14q-24 0 -53 1.5t-48 4.5q-15 -4 -27.5 -13.5t-20 -20t-7.5 -19.5q0 -15 12.5 -25.5t43.5 -10.5q23 0 48 7.5t47.5 17t38 16.5t20.5 7
q12 0 12 -14q0 -20 -15 -43.5t-42 -46t-62.5 -37t-76.5 -14.5zM340 467q-10 0 -12.5 10t4.5 27q4 12 14.5 35.5t22.5 51t23 51.5t18 35q15 26 48 26q18 0 28.5 -12t10.5 -34q0 -13 -13.5 -34t-33 -44.5t-40 -46t-35.5 -39.5q-13 -14 -21.5 -20t-13.5 -6zM166 471
q-23 0 -23 12q0 15 23 21q34 8 57.5 26t23.5 36q0 15 -8 23t-19 12q-12 5 -22.5 15t-10.5 26q0 26 22 41.5t54 15.5q34 0 52.5 -20t18.5 -55q0 -31 -16 -58t-41 -48.5t-54.5 -34t-56.5 -12.5z" />
  </g>

</svg>
