<?xml version="1.0" standalone="no"?>
<!DOCTYPE svg PUBLIC "-//W3C//DTD SVG 1.1//EN" "http://www.w3.org/Graphics/SVG/1.1/DTD/svg11.dtd" >
<svg xmlns="http://www.w3.org/2000/svg" xmlns:xlink="http://www.w3.org/1999/xlink" version="1.1" viewBox="-10 0 613 1000">
  <g transform="matrix(1 0 0 -1 0 800)">
   <path fill="currentColor"
d="M92 -14q-27 0 -46 17.5t-29 45.5t-10 58q0 32 13 74.5t35.5 86.5t50.5 81.5t59.5 60.5t61.5 23q9 0 24 -5.5t27.5 -14.5t12.5 -18q0 -10 -1.5 -18t-8.5 -12q-21 -11 -51 -32.5t-61.5 -47.5t-58.5 -53.5t-44 -52t-17 -42.5q0 -22 19 -33t44 -11q38 0 75.5 20.5t60.5 48.5
q0 20 -2.5 40.5t-1.5 39.5q1 16 14.5 31t35 24.5t45.5 9.5q17 0 31.5 -13.5t10.5 -29.5q-5 -17 -17 -41t-27.5 -48t-30.5 -43q-1 -18 12.5 -31t47.5 -13q27 0 55 13.5t51.5 35t38 48.5t14.5 53q0 34 -18.5 60.5t-39.5 52.5q-8 11 -14.5 19.5t-6.5 20.5q0 7 12.5 17
t27.5 17.5t21 7.5q38 0 55.5 -40.5t17.5 -106.5q0 -55 -20.5 -108t-54.5 -96.5t-76 -69.5t-85 -26q-33 0 -50.5 17.5t-24 39t-6.5 33.5q0 6 -3 6t-10 -6q-11 -10 -34 -31.5t-54.5 -40t-69.5 -18.5zM355 442q-23 0 -23 15q0 6 6 10.5t17 8.5q24 10 32.5 21.5t8.5 26.5
q0 12 -6 18.5t-18 13.5q-16 10 -25 18t-8 26q0 18 15 30t41 12q36 0 62 -22t26 -61q0 -34 -19 -60.5t-48 -41.5t-61 -15zM305 643q-4 0 -13 7.5t-9 11.5q0 6 12 23t28.5 37.5t31.5 35.5t22 15q11 0 24.5 -3t43.5 -5q22 -1 40 -2.5t28 -1.5q18 0 35 19q10 12 14.5 18.5
t8.5 6.5q5 0 13.5 -7t8.5 -12q0 -4 -6 -12t-14 -19q-11 -16 -22.5 -33.5t-20.5 -31.5q-6 -8 -15.5 -11t-15.5 -3q-8 0 -27.5 1.5t-43 3t-44.5 3t-32 1.5t-19 -10l-18 -24t-10 -8z" />
  </g>

</svg>
