<?xml version="1.0" standalone="no"?>
<!DOCTYPE svg PUBLIC "-//W3C//DTD SVG 1.1//EN" "http://www.w3.org/Graphics/SVG/1.1/DTD/svg11.dtd" >
<svg xmlns="http://www.w3.org/2000/svg" xmlns:xlink="http://www.w3.org/1999/xlink" version="1.1" viewBox="-59 0 1122 1000">
  <g transform="matrix(1 0 0 -1 0 800)">
   <path fill="currentColor"
d="M358 -14q-5 0 -9.5 6t-4.5 17q0 116 -5.5 227t-12.5 224q-1 12 -8.5 9t-13.5 -16q-36 -72 -68.5 -144t-59.5 -145q-15 -42 -18 -69.5t6 -42t29 -19.5q9 -2 17 -6.5t5 -14.5q-2 -7 -11.5 -10.5t-18.5 -3.5q-26 0 -41.5 1t-27.5 1.5t-34 0.5t-45.5 -1t-41.5 -2.5t-23 -1.5
q-24 0 -20 15q3 8 13 11t21 7q25 8 44.5 19t39.5 36t44 74l169 343q19 38 20.5 61t-18.5 37.5t-67 24.5q-13 3 -20 6t-7 13t12 12.5t24 2.5q20 0 56 -1t73.5 -2.5t62.5 -1.5t32.5 -14.5t6.5 -36.5t-1 -47l14 -338q1 -11 6.5 -13t14.5 8q55 56 107.5 120.5t99 127.5t82.5 113
q13 21 23 36.5t18 27.5q8 13 21 13h47q26 0 51.5 2t48 4t38.5 2q11 0 18 -3t7 -11q0 -9 -13 -16t-39 -14q-25 -5 -41 -16t-26 -29t-18 -44q-27 -102 -51 -207t-45 -210q-7 -32 7.5 -50t42.5 -25q9 -3 14.5 -7t2.5 -14q-1 -6 -8.5 -10t-16.5 -4q-21 0 -49.5 1t-56 2.5
t-47.5 1.5q-21 0 -45.5 -1.5t-50 -3t-48.5 -1.5q-8 0 -13.5 4t-4.5 10q3 9 11 14.5t19 7.5q40 10 57.5 22.5t26.5 42.5q19 60 34 116t29 112t28 114q2 5 -1.5 5t-9.5 -7l-257 -297l-100 -135q-5 -7 -12.5 -13.5t-13.5 -6.5zM322 -207q-28 0 -47 18.5t-19 41.5
q0 38 29.5 65.5t75.5 27.5q29 0 47.5 -20t18.5 -46q0 -23 -14.5 -42.5t-38.5 -32t-52 -12.5z" />
  </g>

</svg>
