<?xml version="1.0" standalone="no"?>
<!DOCTYPE svg PUBLIC "-//W3C//DTD SVG 1.1//EN" "http://www.w3.org/Graphics/SVG/1.1/DTD/svg11.dtd" >
<svg xmlns="http://www.w3.org/2000/svg" xmlns:xlink="http://www.w3.org/1999/xlink" version="1.1" viewBox="-10 0 859 1000">
  <g transform="matrix(1 0 0 -1 0 800)">
   <path fill="currentColor"
d="M315 -14q-64 0 -112 19t-76 55t-34.5 85.5t12.5 109.5l87 283q9 28 3.5 51t-28.5 29q-26 8 -22 22q1 7 11 11t21 4q31 0 64 -2.5t63 -2.5q28 0 67.5 2t67.5 2q26 0 22 -15q-4 -11 -20.5 -16t-34.5 -13q-18 -6 -34.5 -25t-27.5 -54l-94 -294q-17 -53 -5 -93t43.5 -62
t72.5 -22q55 0 99.5 28t77 74t49.5 100q15 43 26.5 80.5t20 65.5t12.5 42q15 59 16 92t-7.5 49t-24.5 24q-10 6 -23.5 10.5t-10.5 13.5q1 8 10 11t23 3q24 0 40 -0.5t30 -1t31 -0.5q19 0 31 1t24.5 2t31.5 1q11 0 17 -3t4 -12q-4 -13 -34 -21q-24 -6 -39 -16t-25.5 -27
t-21.5 -47q-24 -70 -44.5 -136t-43.5 -137q-26 -80 -66.5 -141t-101 -95t-147.5 -34zM416 691q-5 0 -12 6.5t-7 9.5q0 6 9 22t22.5 34t26.5 31.5t20 13.5q19 0 40.5 -1.5t42.5 -2.5q19 -1 40 -2t44 -1q11 0 19.5 6t15.5 13q8 8 12.5 15t7.5 7q6 0 14.5 -6.5t8.5 -12.5
q0 -3 -4.5 -10t-13.5 -18q-11 -16 -21 -31.5t-19 -28.5q-6 -9 -15 -11.5t-16 -2.5q-8 0 -31 1.5t-50.5 3.5t-51.5 4t-34 2q-8 0 -16 -6t-14 -13q-6 -8 -11 -15t-7 -7zM469 835q-7 0 -13 2.5t-7 7.5t1 9.5t12 12.5q25 20 61.5 43t65.5 40q3 2 8.5 5.5t12 6.5t12.5 6t11 4
q16 0 26 -11.5t15 -24.5t6 -19q2 -3 2.5 -8t0 -9.5t-4.5 -6.5q-38 -13 -72 -24.5t-72 -18.5q-5 -2 -13 -4t-17.5 -4.5t-18.5 -4t-16 -2.5z" />
  </g>

</svg>
