<?xml version="1.0" standalone="no"?>
<!DOCTYPE svg PUBLIC "-//W3C//DTD SVG 1.1//EN" "http://www.w3.org/Graphics/SVG/1.1/DTD/svg11.dtd" >
<svg xmlns="http://www.w3.org/2000/svg" xmlns:xlink="http://www.w3.org/1999/xlink" version="1.1" viewBox="-10 0 818 1000">
  <g transform="matrix(1 0 0 -1 0 800)">
   <path fill="currentColor"
d="M120 -6q-13 0 -18.5 4.5t-4.5 11.5q2 9 12.5 14t23.5 7q40 8 61 27.5t30 51.5l44 140q9 28 8.5 50.5t-8.5 50.5l-60 202q-7 22 -18 38.5t-30 22.5q-18 6 -25 11t-5 15q2 7 10 10.5t16 3.5q42 0 76.5 -3t77.5 -3q28 0 57.5 3t62.5 3q9 0 16.5 -3.5t5.5 -10.5
q-1 -8 -12.5 -13.5t-21.5 -7.5q-46 -10 -58 -25.5t-5 -47.5l42 -182q4 -16 7.5 -21t7.5 -5t10 5t14 15q34 40 69 85.5t70 89.5q29 34 27.5 56t-42.5 29q-10 2 -18 7.5t-6 14.5q2 7 12.5 10t20.5 3q23 0 45.5 -2t49.5 -2q30 0 56 3.5t53 3.5q11 0 19 -3t5 -13
q-2 -9 -11.5 -12.5t-20.5 -6.5q-21 -6 -42.5 -16t-39.5 -23t-31 -27q-29 -34 -58.5 -67.5t-58.5 -66.5t-58 -64q-19 -20 -31.5 -44t-22.5 -55l-45 -148q-12 -37 -2.5 -52.5t44.5 -26.5q12 -3 19 -7t4 -13q-1 -7 -10 -11.5t-20 -4.5q-22 0 -48.5 2t-52 3.5t-45.5 1.5
q-21 0 -46.5 -1.5t-52 -4t-48.5 -2.5zM506 693q-28 0 -47 18.5t-19 41.5q0 38 29.5 65.5t75.5 27.5q29 0 47.5 -20t18.5 -46q0 -23 -14.5 -42.5t-38.5 -32t-52 -12.5z" />
  </g>

</svg>
