<?xml version="1.0" standalone="no"?>
<!DOCTYPE svg PUBLIC "-//W3C//DTD SVG 1.1//EN" "http://www.w3.org/Graphics/SVG/1.1/DTD/svg11.dtd" >
<svg xmlns="http://www.w3.org/2000/svg" xmlns:xlink="http://www.w3.org/1999/xlink" version="1.1" viewBox="-10 0 939 1000">
  <g transform="matrix(1 0 0 -1 0 800)">
   <path fill="currentColor"
d="M315 -14q-64 0 -112 19t-76 55t-34.5 85.5t12.5 109.5l87 283q9 28 3.5 51t-28.5 29q-26 8 -22 22q1 7 11 11t21 4q31 0 64 -2.5t63 -2.5q28 0 67.5 2t67.5 2q26 0 22 -15q-4 -11 -20.5 -16t-34.5 -13q-17 -6 -34 -24.5t-27 -52.5l-88 -285q-17 -54 -5 -94t43.5 -61.5
t71.5 -21.5q55 0 96.5 25.5t71.5 70t48 100.5q15 41 26.5 78.5t22 72t18.5 64.5q14 47 15.5 72t-6.5 38.5t-25 22.5q-10 6 -22 10.5t-10 13.5q2 8 11 11t23 3q24 0 38.5 -0.5t28 -1t32.5 -0.5q22 0 39 -0.5t29 4t17 20.5q3 9 -4 14.5t-16 9.5q-8 5 -15 10.5t-7 13.5
q0 16 13.5 29.5t34 22t39.5 8.5q11 0 23.5 -11t21.5 -26.5t9 -30.5q0 -26 -13.5 -41.5t-41.5 -28t-72 -32.5q-24 -12 -40.5 -28t-29.5 -52q-25 -73 -47 -139.5t-45 -137.5q-26 -80 -66.5 -141t-101 -95t-147.5 -34zM583 694q-3 0 -10 0.5t-17 4.5q-40 21 -85 44.5t-85 45.5
q-17 10 -19 21q-2 8 12 16.5t31 15.5t24 9q21 5 35 -9q30 -30 56 -61t56 -58q12 -11 12 -20t-10 -9z" />
  </g>

</svg>
