<?xml version="1.0" standalone="no"?>
<!DOCTYPE svg PUBLIC "-//W3C//DTD SVG 1.1//EN" "http://www.w3.org/Graphics/SVG/1.1/DTD/svg11.dtd" >
<svg xmlns="http://www.w3.org/2000/svg" xmlns:xlink="http://www.w3.org/1999/xlink" version="1.1" viewBox="-10 0 780 1000">
  <g transform="matrix(1 0 0 -1 0 800)">
   <path fill="currentColor"
d="M253 -3q-7 0 -12 3.5t-3 10.5q5 16 27 21q41 9 59 21t28 44l141 454q10 32 1 45t-46 23q-9 2 -13 7.5t-1 13.5q1 7 9 11t15 4q22 0 47 -1t49.5 -2.5t44.5 -1.5t45.5 1t52.5 2t49 1q17 0 13 -14q-2 -10 -9 -14t-19 -7q-29 -8 -45.5 -16t-25.5 -20t-15 -33l-128 -416
q-11 -37 -13 -56t8.5 -27.5t32.5 -14.5q21 -5 27.5 -10t3.5 -14q-1 -7 -7.5 -11t-14.5 -4q-22 0 -50.5 1.5t-56.5 2.5t-48 1q-31 0 -71.5 -2.5t-74.5 -2.5zM263 438q-11 0 -13 9.5t4 25.5q4 11 13 35.5t19.5 52t21 52t15.5 36.5q7 12 19.5 18.5t26.5 6.5q19 0 30.5 -13
t11.5 -35q0 -11 -12.5 -32t-30.5 -44.5t-37.5 -45.5t-33.5 -39q-12 -14 -20.5 -20.5t-13.5 -6.5zM166 443q-35 0 -61.5 24.5t-26.5 66.5q0 40 19.5 70.5t50 47.5t63.5 17q28 0 41.5 -10.5t13.5 -27.5q0 -44 -53 -52q-37 -5 -53 -19t-16 -39q0 -14 6.5 -24.5t25.5 -18.5
q18 -8 18 -19q0 -5 -6.5 -10.5t-21.5 -5.5z" />
  </g>

</svg>
