<?xml version="1.0" standalone="no"?>
<!DOCTYPE svg PUBLIC "-//W3C//DTD SVG 1.1//EN" "http://www.w3.org/Graphics/SVG/1.1/DTD/svg11.dtd" >
<svg xmlns="http://www.w3.org/2000/svg" xmlns:xlink="http://www.w3.org/1999/xlink" version="1.1" viewBox="-10 0 422 1000">
  <g transform="matrix(1 0 0 -1 0 800)">
   <path fill="currentColor"
d="M113 -14q-26 0 -52 14t-43.5 36t-17.5 45q0 28 11.5 48t30 36t41.5 28q7 4 8.5 10.5t-5.5 10.5q-13 9 -24 19t-11 26q0 37 20 68.5t53 55t73.5 37t80.5 13.5q29 0 49.5 -9.5t20.5 -27.5q0 -14 -8.5 -30t-20.5 -27.5t-24 -11.5q-11 0 -26 2t-25 2q-41 -1 -69.5 -14.5
t-43.5 -32t-15 -34.5q0 -11 5 -16t13 -5q14 10 41.5 23t56.5 22.5t46 9.5q11 0 20 -8.5t9 -16.5q0 -16 -10 -35.5t-25 -33.5t-29 -14q-24 0 -53 1.5t-48 4.5q-15 -4 -27.5 -13.5t-20 -20t-7.5 -19.5q0 -15 12.5 -25.5t43.5 -10.5q23 0 48 7.5t47.5 17t38 16.5t20.5 7
q12 0 12 -14q0 -20 -15 -43.5t-42 -46t-62.5 -37t-76.5 -14.5zM302 471q-35 0 -61.5 24.5t-26.5 66.5q0 40 19.5 70.5t50 47.5t63.5 17q28 0 41.5 -10.5t13.5 -27.5q0 -44 -53 -52q-37 -5 -53 -19t-16 -39q0 -14 6.5 -24.5t25.5 -18.5q18 -8 18 -19q0 -5 -6.5 -10.5
t-21.5 -5.5z" />
  </g>

</svg>
