<?xml version="1.0" standalone="no"?>
<!DOCTYPE svg PUBLIC "-//W3C//DTD SVG 1.1//EN" "http://www.w3.org/Graphics/SVG/1.1/DTD/svg11.dtd" >
<svg xmlns="http://www.w3.org/2000/svg" xmlns:xlink="http://www.w3.org/1999/xlink" version="1.1" viewBox="-10 0 431 1000">
  <g transform="matrix(1 0 0 -1 0 800)">
   <path fill="currentColor"
d="M108 -15q-10 0 -25.5 8t-30 21t-22.5 28.5t-3 31.5l102 324q7 22 16 28.5t25 6.5q21 0 41.5 -8t34 -19.5t9.5 -22.5q-5 -17 -15.5 -41.5t-23.5 -53t-25.5 -57.5t-23.5 -54.5t-17 -44.5t0.5 -28t24.5 -9q15 0 30.5 8t27.5 16q10 7 17 12t8 5q16 0 9 -20q-6 -18 -22 -40.5
t-38 -43.5t-47.5 -34t-51.5 -13zM313 492q-23 0 -37 15t-14 39q0 25 13.5 45t35 32t45.5 12q26 0 40.5 -15t14.5 -39q0 -36 -29 -62.5t-69 -26.5zM115 492q-23 0 -37 15t-14 39q0 25 13.5 45t35 32t45.5 12q26 0 40.5 -15t14.5 -39q0 -36 -29 -62.5t-69 -26.5z
M241.471 604.097q11.5918 -3.10742 15.2773 6.77637q3.68555 9.88477 1.7041 21.8057l-29.6006 171.533q-3.77441 20.6846 -9.91309 30.6143q-6.13965 9.92969 -16.7656 12.7783q-9.66016 2.58887 -25.3848 -1.99609q-15.7256 -4.58496 -28.7178 -12.4922
q-12.9912 -7.90723 -15.5811 -17.5674q-2.33105 -8.69336 1.00488 -19.4248q3.33594 -10.7305 11.1133 -24.2051l72.2861 -143.631q4.94922 -8.57422 10.8984 -15.3467q5.9502 -6.77246 13.6787 -8.84473z" />
  </g>

</svg>
