<?xml version="1.0" standalone="no"?>
<!DOCTYPE svg PUBLIC "-//W3C//DTD SVG 1.1//EN" "http://www.w3.org/Graphics/SVG/1.1/DTD/svg11.dtd" >
<svg xmlns="http://www.w3.org/2000/svg" xmlns:xlink="http://www.w3.org/1999/xlink" version="1.1" viewBox="-10 0 769 1000">
  <g transform="matrix(1 0 0 -1 0 800)">
   <path fill="currentColor"
d="M40 275q-7 0 -12 2t-3 8q3 11 18 15q20 4 45.5 14.5t41.5 28.5l302 327l35 -10l-163 -185q-6 -6 -4.5 -8.5t12.5 -2.5h60q5 0 8 1.5t5 6.5l-16 -54q2 5 -1.5 8t-9.5 3h-82q-7 0 -11.5 -3.5t-7.5 -7.5l-49 -53q-26 -28 -20 -42.5t31 -22.5q6 -1 11 -5t5 -9q0 -4 -6.5 -6.5
t-14.5 -2.5q-19 0 -43.5 1t-43.5 1t-43.5 -2t-43.5 -2zM285 273q-15 0 -12 11q4 12 20 15q23 5 33.5 12.5t15.5 24.5l91 294q6 20 0.5 28t-24.5 12q-17 3 -13 15q5 12 20 12q13 0 31 -1t35 -2t26 -1q29 0 60.5 0.5t61.5 0.5q38 0 60 5t45 5q2 0 8 -4t5 -8q-1 -25 -7 -53.5
t-11 -48.5q-2 -14 -12 -14q-4 0 -7.5 3.5t-3.5 9.5q-3 26 -6.5 41.5t-14.5 23t-37 7.5h-38q-19 0 -32.5 -8.5t-18.5 -23.5q-4 -11 -8.5 -26t-9 -31.5t-9 -32t-8.5 -28.5q-2 -10 1.5 -13.5t12.5 -2.5l60 3q18 0 29 13.5t22 29.5q6 6 10 8.5t8 2.5t5.5 -3t-0.5 -11
q-4 -11 -10 -24.5t-10 -29.5q-6 -16 -8 -26t-6 -29q-2 -12 -6 -16t-9 -4t-8 4t-2 12q2 26 -6 32t-24 9q-9 1 -20 2.5t-20 1.5q-15 0 -26 -7.5t-14 -18.5q-7 -25 -16 -51t-16 -52q-8 -31 22 -31h63q36 0 61 20t49 54q6 9 15 9q6 0 8.5 -2t0.5 -7q-4 -9 -12 -26t-18 -35
t-19 -32q-3 -6 -9.5 -11.5t-17.5 -5.5q-8 0 -33.5 0.5t-58.5 0.5t-69 0.5t-69 0.5q-14 0 -32.5 -0.5t-36.5 -1.5t-31 -1z" />
  </g>

</svg>
