<?xml version="1.0" standalone="no"?>
<!DOCTYPE svg PUBLIC "-//W3C//DTD SVG 1.1//EN" "http://www.w3.org/Graphics/SVG/1.1/DTD/svg11.dtd" >
<svg xmlns="http://www.w3.org/2000/svg" xmlns:xlink="http://www.w3.org/1999/xlink" version="1.1" viewBox="-26 0 657 1000">
  <g transform="matrix(1 0 0 -1 0 800)">
   <path fill="currentColor"
d="M219 -14q-36 0 -67.5 4.5t-59.5 15.5q-14 6 -23.5 9.5t-12.5 3.5q-7 0 -13.5 -2.5t-11.5 -4.5q-7 -4 -13.5 -8t-10.5 -4q-6 0 -14.5 8t-8.5 15q0 8 11 32t23.5 59t17.5 73q6 33 26 33q13 0 16 -15.5t3 -47.5t13 -62.5t40.5 -49.5t69.5 -19q60 0 93.5 32t33.5 80
q0 22 -8 41.5t-29 43.5t-62 60q-48 43 -73 84t-25 101q0 56 31 100t84.5 70t122.5 26q34 0 62.5 -6t50.5 -13q20 -6 32 -9.5t24 -3.5q14 0 25 6q7 4 14 6.5t13 2.5q11 0 13 -7t-4 -15q-11 -14 -24 -40t-24 -56.5t-19 -61.5q-3 -11 -8 -18t-15 -7q-9 0 -13.5 10t-4.5 31
q0 66 -32.5 104.5t-85.5 38.5q-35 0 -59.5 -15.5t-36.5 -40t-12 -49.5q0 -24 8 -43.5t28.5 -41.5t60.5 -56q60 -50 82 -92t22 -92q0 -51 -30 -99.5t-85.5 -79.5t-134.5 -31zM415 698q-13 0 -21.5 7t-20.5 21l-76 94q-6 8 -4 15q3 13 22 13q8 0 28 -9t41.5 -21t34.5 -21
q5 -5 10.5 -4.5t13.5 4.5q14 6 38.5 14.5t50.5 17t46.5 14t26.5 5.5q16 0 16 -12q0 -10 -11 -19l-136 -91q-22 -15 -34 -21.5t-25 -6.5zM446 846q-28 0 -47 18.5t-19 41.5q0 38 29.5 65.5t75.5 27.5q29 0 47.5 -20t18.5 -46q0 -23 -14.5 -42.5t-38.5 -32t-52 -12.5z" />
  </g>

</svg>
