<?xml version="1.0" standalone="no"?>
<!DOCTYPE svg PUBLIC "-//W3C//DTD SVG 1.1//EN" "http://www.w3.org/Graphics/SVG/1.1/DTD/svg11.dtd" >
<svg xmlns="http://www.w3.org/2000/svg" xmlns:xlink="http://www.w3.org/1999/xlink" version="1.1" viewBox="-78 0 825 1000">
  <g transform="matrix(1 0 0 -1 0 800)">
   <path fill="currentColor"
d="M-44 -5q-12 0 -18 3.5t-5 12.5q2 10 9.5 15t19.5 7q19 5 44 13.5t48.5 22t39.5 31.5q66 74 129 147l126 146l126 146q18 20 29.5 39.5t20 32.5t13.5 13q25 0 48 5t40 16q17 10 30 19t23 9q9 0 11 -18t-3 -42l-99 -499q-7 -34 7.5 -52.5t50.5 -29.5q12 -3 19.5 -6.5
t7.5 -13.5q0 -7 -11 -11t-20 -4q-20 0 -47 1.5t-55 2.5t-50 1q-20 0 -47 -1t-54.5 -2t-47.5 -1q-21 0 -19 14q0 9 8 14.5t19 7.5q25 5 41 12.5t26.5 20t15.5 33.5l30 121q2 9 -2.5 14t-13.5 5h-152q-9 0 -16 -5.5t-13 -12.5l-69 -89q-24 -30 -29 -50t7.5 -31.5t37.5 -17.5
q9 -2 17 -7.5t8 -14.5q-1 -7 -10.5 -10.5t-21.5 -3.5q-29 0 -57.5 1.5t-57.5 1.5q-30 0 -67 -3t-67 -3zM340 285h120q8 0 12.5 3t5.5 11l48 219q2 7 2 12.5t-4 5.5q-1 0 -5.5 -2t-7.5 -6l-183 -224q-9 -10 -7.5 -14.5t19.5 -4.5zM240 485q-10 0 -11 11t3 22q6 14 16 39
t23 53t23.5 52t16.5 35q5 8 14 12.5t21 5.5q13 1 27.5 -7t22.5 -19.5t2 -22.5q-10 -18 -26 -39.5t-34.5 -44.5t-37.5 -44t-35 -37q-6 -7 -13 -11.5t-12 -4.5z" />
  </g>

</svg>
