<?xml version="1.0" standalone="no"?>
<!DOCTYPE svg PUBLIC "-//W3C//DTD SVG 1.1//EN" "http://www.w3.org/Graphics/SVG/1.1/DTD/svg11.dtd" >
<svg xmlns="http://www.w3.org/2000/svg" xmlns:xlink="http://www.w3.org/1999/xlink" version="1.1" viewBox="-56 0 561 1000">
  <g transform="matrix(1 0 0 -1 0 800)">
   <path fill="currentColor"
d="M94 -15q-9 0 -23 6t-24.5 16t-10.5 24q0 7 2 15t5 17l101 262q4 10 1.5 16.5t-12.5 6.5q-20 0 -32.5 -8t-26.5 -19q-5 -4 -12.5 -3.5t-8.5 8.5q-2 21 16 42t46 36q22 14 47.5 21.5t49.5 7.5q28 0 40.5 -15.5t12 -41.5t-15.5 -59l-38 -91q-4 -7 2 -8t10 6q35 62 68.5 109
t68 74t70.5 27q32 0 48.5 -18.5t16.5 -45.5q0 -26 -12 -51t-29.5 -40.5t-33.5 -15.5q-11 0 -17 10.5t-10 31.5q-3 17 -9 30.5t-18 13.5q-18 0 -35.5 -22.5t-40.5 -62.5q-8 -12 -22.5 -37t-31.5 -55t-34 -59t-29 -50q-19 -34 -40 -56t-39 -22zM-26 -157q-9 0 -14.5 5.5
t-5.5 11.5q0 26 12 44t26 18h273q9 0 13.5 -5t4.5 -12q0 -23 -12 -42.5t-28 -19.5h-269z" />
  </g>

</svg>
