<?xml version="1.0" standalone="no"?>
<!DOCTYPE svg PUBLIC "-//W3C//DTD SVG 1.1//EN" "http://www.w3.org/Graphics/SVG/1.1/DTD/svg11.dtd" >
<svg xmlns="http://www.w3.org/2000/svg" xmlns:xlink="http://www.w3.org/1999/xlink" version="1.1" viewBox="-10 0 564 1000">
  <g transform="matrix(1 0 0 -1 0 800)">
   <path fill="currentColor"
d="M152 -15q-30 0 -56.5 18t-39.5 43.5t-7 46.5q6 15 16.5 37.5t24 47t25.5 46.5t18 37q13 34 5 52t-33 18q-17 0 -29.5 -4.5t-20.5 -9t-12 -4.5q-6 0 -7.5 2.5t0.5 10.5q5 20 29.5 45t59 43.5t69.5 18.5q15 0 28 -11t19 -26t1 -30q-6 -16 -20.5 -42t-32 -56t-32.5 -58.5
t-22 -49.5q-8 -29 5 -41.5t42 -12.5q40 0 75 25t60.5 66t40.5 88.5t16 93.5q0 22 -3.5 37t-3.5 20q2 4 7.5 6.5t8.5 2.5q20 0 37.5 -13.5t28.5 -35.5t11 -47q0 -51 -17 -102.5t-47.5 -98.5t-70 -83.5t-84 -58t-89.5 -21.5zM387 467q-10 0 -12.5 10t4.5 27q4 12 14.5 35.5
t22.5 51t23 51.5t18 35q15 26 48 26q18 0 28.5 -12t10.5 -34q0 -13 -13.5 -34t-33 -44.5t-40 -46t-35.5 -39.5q-13 -14 -21.5 -20t-13.5 -6zM213 471q-23 0 -23 12q0 15 23 21q34 8 57.5 26t23.5 36q0 15 -8 23t-19 12q-12 5 -22.5 15t-10.5 26q0 26 22 41.5t54 15.5
q34 0 52.5 -20t18.5 -55q0 -31 -16 -58t-41 -48.5t-54.5 -34t-56.5 -12.5z" />
  </g>

</svg>
