<?xml version="1.0" standalone="no"?>
<!DOCTYPE svg PUBLIC "-//W3C//DTD SVG 1.1//EN" "http://www.w3.org/Graphics/SVG/1.1/DTD/svg11.dtd" >
<svg xmlns="http://www.w3.org/2000/svg" xmlns:xlink="http://www.w3.org/1999/xlink" version="1.1" viewBox="-10 0 437 1000">
  <g transform="matrix(1 0 0 -1 0 800)">
   <path fill="currentColor"
d="M108 -15q-10 0 -25.5 8t-30 21t-22.5 28.5t-3 31.5l102 324q7 22 16 28.5t25 6.5q21 0 41.5 -8t34 -19.5t9.5 -22.5q-5 -17 -15.5 -41.5t-23.5 -53t-25.5 -57.5t-23.5 -54.5t-17 -44.5t0.5 -28t24.5 -9q15 0 30.5 8t27.5 16q10 7 17 12t8 5q16 0 9 -20q-6 -18 -22 -40.5
t-38 -43.5t-47.5 -34t-51.5 -13zM319 492q-23 0 -37 15t-14 39q0 25 13.5 45t35 32t45.5 12q26 0 40.5 -15t14.5 -39q0 -36 -29 -62.5t-69 -26.5zM121 492q-23 0 -37 15t-14 39q0 25 13.5 45t35 32t45.5 12q26 0 40.5 -15t14.5 -39q0 -36 -29 -62.5t-69 -26.5z
M244.059 596.942q-11.8799 -1.66797 -14.3291 8.58789q-2.44922 10.2568 0.97168 21.8408l50.3115 166.564q6.26855 20.0605 13.5723 29.1611q7.30273 9.10156 18.1924 10.6299q9.90039 1.39062 24.9414 -5.0791q15.041 -6.46875 26.9648 -15.8994t13.3135 -19.3311
q1.25098 -8.91016 -3.36914 -19.1484q-4.61914 -10.2393 -13.9805 -22.6572l-89.252 -133.67q-5.95703 -7.90234 -12.6875 -13.8945q-6.72949 -5.99219 -14.6494 -7.10449z" />
  </g>

</svg>
