<?xml version="1.0" standalone="no"?>
<!DOCTYPE svg PUBLIC "-//W3C//DTD SVG 1.1//EN" "http://www.w3.org/Graphics/SVG/1.1/DTD/svg11.dtd" >
<svg xmlns="http://www.w3.org/2000/svg" xmlns:xlink="http://www.w3.org/1999/xlink" version="1.1" viewBox="-10 0 834 1000">
  <g transform="matrix(1 0 0 -1 0 800)">
   <path fill="currentColor"
d="M294 -14q-69 0 -122 32.5t-84 90.5t-31 133q0 81 31.5 156.5t87.5 135.5t131 95t163 35q69 0 122.5 -32.5t84 -90.5t30.5 -133q0 -80 -31.5 -156t-88 -136t-131.5 -95t-162 -35zM294 24q43 0 83.5 29.5t75 78.5t60.5 108.5t40.5 118.5t14.5 109q0 43 -10.5 80t-32.5 59.5
t-57 22.5q-43 0 -83 -30t-74 -79.5t-60 -109.5t-40.5 -120t-14.5 -110q0 -42 10 -78t31.5 -57.5t56.5 -21.5zM360 693q-20 0 -16 12q2 8 13 15l131 94q22 16 33.5 22.5t24.5 6.5q14 0 22.5 -7t20.5 -22l77 -93q4 -4 4 -8t-1 -8q-2 -13 -20 -13q-8 0 -29 9t-44 21t-38 20
q-12 7 -26 0q-13 -6 -34.5 -14.5t-45 -16.5t-43 -13t-29.5 -5zM682 761q-10 0 -18 11.5t-8 22.5q0 14 10.5 21.5t22.5 14.5q11 7 20.5 14t9.5 18q0 6 -4 10.5t-12 4.5q-13 0 -24 -9.5t-23 -20.5q-9 -7 -16.5 -12.5t-17.5 -5.5t-16.5 12t-6.5 22q0 11 9 21.5t19 15.5
q22 10 46.5 16.5t60.5 6.5q33 0 56.5 -13t23.5 -37q0 -25 -23 -39.5t-45 -21.5q-13 -4 -21 -8t-9 -13q-1 -5 -1.5 -10t-1.5 -9q-1 -5 -13 -8.5t-18 -3.5z" />
  </g>

</svg>
