<?xml version="1.0" standalone="no"?>
<!DOCTYPE svg PUBLIC "-//W3C//DTD SVG 1.1//EN" "http://www.w3.org/Graphics/SVG/1.1/DTD/svg11.dtd" >
<svg xmlns="http://www.w3.org/2000/svg" xmlns:xlink="http://www.w3.org/1999/xlink" version="1.1" viewBox="-10 0 607 1000">
  <g transform="matrix(1 0 0 -1 0 800)">
   <path fill="currentColor"
d="M528 433q11 0 25 -6t24 -17.5t10 -27.5q0 -47 -28.5 -99.5t-77.5 -104t-110 -91.5q-43 -29 -84 -50t-80.5 -32.5t-77.5 -11.5l76 68q39 0 74.5 12t75.5 41q28 21 50.5 51t35.5 62t13 58q0 24 -8 33t-19 9q-15 0 -40 -22t-55 -61l-18 38q48 54 84.5 87.5t67 48.5t62.5 15z
M226 434q25 0 53 -17t47.5 -47t19.5 -69q1 -59 -17.5 -115.5t-52.5 -101.5t-79 -71.5t-98 -26.5q-51 0 -75 21.5t-24 52.5q0 34 22 60.5t55.5 44t69 25t63.5 3.5q8 0 9 10q1 12 3.5 22t1.5 24q0 35 -19.5 61t-48.5 26q-25 0 -46.5 -14.5t-39.5 -39.5q-10 -12 -16 -12
q-9 0 -9 12q0 2 0.5 6.5t2.5 7.5q17 36 42.5 67.5t59 51t76.5 19.5zM202 161q-9 0 -26.5 -6.5t-36.5 -19.5t-32.5 -33.5t-13.5 -48.5q0 -11 4.5 -21.5t17.5 -10.5q14 0 28 10.5t26.5 28.5t22.5 42.5t16 52.5q1 6 -6 6z" />
  </g>

</svg>
