<?xml version="1.0" standalone="no"?>
<!DOCTYPE svg PUBLIC "-//W3C//DTD SVG 1.1//EN" "http://www.w3.org/Graphics/SVG/1.1/DTD/svg11.dtd" >
<svg xmlns="http://www.w3.org/2000/svg" xmlns:xlink="http://www.w3.org/1999/xlink" version="1.1" viewBox="-10 0 388 1000">
  <g transform="matrix(1 0 0 -1 0 800)">
   <path fill="currentColor"
d="M183 290q-49 0 -69 27t-7 67l41 130q3 11 -15 11h-13q-4 0 -4 10v17q0 5 6 6q29 8 54.5 21.5t45.5 34.5q9 8 24 12.5t25 4.5q20 0 16 -11l-19 -43q-3 -7 1.5 -9.5t11.5 -2.5h80q4 0 5.5 -3t-0.5 -8q-4 -12 -10 -21t-12 -9h-59q-16 0 -23 -4.5t-9 -9.5l-34 -108
q-9 -29 -0.5 -43t26.5 -14q12 0 20.5 3t14.5 6q4 2 7.5 3.5t4.5 1.5q4 0 6.5 -3.5t2.5 -8.5q0 -15 -20 -28t-47.5 -21t-50.5 -8z" />
  </g>

</svg>
