<?xml version="1.0" standalone="no"?>
<!DOCTYPE svg PUBLIC "-//W3C//DTD SVG 1.1//EN" "http://www.w3.org/Graphics/SVG/1.1/DTD/svg11.dtd" >
<svg xmlns="http://www.w3.org/2000/svg" xmlns:xlink="http://www.w3.org/1999/xlink" version="1.1" viewBox="-10 0 535 1000">
  <g transform="matrix(1 0 0 -1 0 800)">
   <path fill="currentColor"
d="M155 -14q-38 0 -71.5 18t-53.5 50t-20 74q0 46 19.5 99t57.5 99.5t91.5 76.5t121.5 30q67 0 107.5 -38t40.5 -105q0 -46 -19.5 -98.5t-57.5 -99t-92.5 -76.5t-123.5 -30zM174 25q20 0 40.5 22t39 58.5t33.5 80.5t23.5 88t8.5 80q0 21 -8 31.5t-26 10.5q-17 0 -37 -21.5
t-39 -58t-34.5 -80t-25.5 -87t-10 -80.5q0 -22 10 -33t25 -11zM340 644q7 0 13.5 -7t9.5 -16q1 -2 10 -21.5t21 -45t20 -44.5l4.5 -13.5t2.5 -14.5q0 -10 -4 -16.5t-13 -6.5q-7 0 -12 5.5t-11 13.5q-16 19 -27 34t-24 34q-5 7 -9 6.5t-14 -6.5q-25 -17 -43 -30.5t-45 -32.5
q-14 -10 -25.5 -17t-20.5 -7q-12 0 -12 13q0 4 5 13.5t18 24.5q14 15 33.5 34t37.5 37t31.5 30t15.5 14q9 8 19.5 13.5t18.5 5.5zM241 659q-4 0 -13 7t-9 12t10 19.5t24.5 30t28.5 27.5t20 12q11 0 24.5 -2.5t43.5 -4.5q22 -1 40 -2.5t28 -1.5q9 0 18.5 5t17.5 15
q8 9 11.5 15t7.5 6q6 0 14 -7t8 -13q0 -4 -4 -9.5t-12 -17.5q-12 -15 -19.5 -26t-16.5 -24q-6 -9 -15 -11.5t-16 -2.5q-8 0 -27.5 1.5t-43 3t-44 3t-30.5 1.5q-8 0 -12.5 -3.5t-9.5 -8.5q-10 -11 -15 -17.5t-9 -6.5z" />
  </g>

</svg>
