<?xml version="1.0" standalone="no"?>
<!DOCTYPE svg PUBLIC "-//W3C//DTD SVG 1.1//EN" "http://www.w3.org/Graphics/SVG/1.1/DTD/svg11.dtd" >
<svg xmlns="http://www.w3.org/2000/svg" xmlns:xlink="http://www.w3.org/1999/xlink" version="1.1" viewBox="-10 0 394 1000">
  <g transform="matrix(1 0 0 -1 0 800)">
   <path fill="currentColor"
d="M121 3q-11 0 -15 15l-49 208q-3 15 -6.5 24.5t-15.5 13.5t-8 15q2 6 9 7.5t11 1.5q25 0 37 -1.5t35 -1.5q22 0 37 1.5t40 1.5q5 0 10.5 -2t3.5 -8t-7 -8t-12 -4q-15 -6 -22.5 -20t-4.5 -27l22 -81h1.5t1.5 1l62 78q11 14 12.5 28t-13.5 20q-5 2 -9 4t-3 8q2 6 9 8t11 2
q11 0 23.5 -0.5t27.5 -0.5q9 0 23 0.5t26 0.5q4 0 10.5 -1t4.5 -8q-1 -6 -5 -9t-11 -5q-14 -4 -26.5 -12t-23.5 -22l-160 -212q-11 -15 -26 -15z" />
  </g>

</svg>
