<?xml version="1.0" standalone="no"?>
<!DOCTYPE svg PUBLIC "-//W3C//DTD SVG 1.1//EN" "http://www.w3.org/Graphics/SVG/1.1/DTD/svg11.dtd" >
<svg xmlns="http://www.w3.org/2000/svg" xmlns:xlink="http://www.w3.org/1999/xlink" version="1.1" viewBox="-10 0 501 1000">
  <g transform="matrix(1 0 0 -1 0 800)">
   <path fill="currentColor"
d="M314 -16q-16 0 -28.5 1t-22.5 1q-6 0 -11.5 0.5t-9.5 0.5h-11.5t-19 -0.5t-11.5 -0.5q-55 0 -85.5 18t-30.5 55q0 14 11 26q8 9 12.5 14t4.5 11q0 3 -7 13t-11 17q-17 27 -29 47.5t-27 49.5q-6 12 -7 21.5t-1 19.5l1 19l18 113q5 37 27.5 57t56.5 20q3 0 5.5 -0.5
t5.5 -1.5q2 -1 4.5 -1.5t3.5 -0.5q4 0 7 -0.5t7 -0.5q22 0 33 1.5t13 3.5q14 9 25 9t20 -6q19 -9 36.5 -15.5t25.5 -6.5t15 -10q2 -4 5 -5.5t6 -1.5q4 0 7 1q5 2 10 3.5t11 1.5q8 0 14 -4t10 -7q2 -1 4 -2.5t4 -2.5h5h7q17 0 27.5 -21.5t14.5 -50.5t1 -52q0 -8 -5 -14
q-1 -2 -2.5 -3.5l-2.5 -2.5q0 -2 1.5 -5t1.5 -4q1 -3 1.5 -6.5t0.5 -6.5q0 -17 -11 -27q-4 -5 -4 -8q0 -6 1.5 -17t1.5 -13q0 -10 -5.5 -27.5t-12.5 -37.5q0 -3 -5.5 -17t-10 -27.5t-4.5 -16.5q0 -6 4.5 -12.5t10.5 -12.5q4 -2 11 -12t7 -17q0 -20 -20.5 -29.5t-49 -13
t-54.5 -3.5zM292 32q10 0 19.5 2t19.5 4q7 2 13.5 3.5t12.5 2.5q3 0 5.5 0.5t4.5 0.5q0 4 -15 7t-35.5 5.5t-40 3.5t-28.5 1q-24 0 -45.5 -0.5t-35 -2.5t-13.5 -6q0 -5 17 -9t41.5 -6.5t46.5 -4t33 -1.5zM345 106q6 0 8.5 4t2.5 16q0 1 -0.5 3l-1.5 6q0 4 -0.5 7.5t-0.5 4.5
q0 6 8.5 16.5t12.5 18.5q6 13 8 26.5t3 21.5q2 7 3.5 11.5t1.5 6.5l-0.5 2.5t-2.5 8.5q0 3 -0.5 6.5t-0.5 5.5q-3 -2 -6 -2.5t-6 -0.5q-9 0 -14.5 2.5t-9.5 4.5l-6 4l-3 2q-4 0 -7 -0.5t-5 -0.5q-13 0 -20.5 5.5t-12.5 9.5q-4 2 -6.5 4t-4.5 2q-11 0 -19.5 -1.5t-12.5 -4.5
q5 -9 9 -19t5 -19q2 -8 2 -21v-26q0 -4 0.5 -7t1.5 -5q3 -8 3 -16q0 -12 -6.5 -20.5t-16.5 -8.5q-13 0 -19.5 11.5t-6.5 27.5q0 6 1 14.5t1 18.5q0 11 -6.5 26t-19.5 35q-8 11 -21 18t-43 19q-19 9 -19 20q0 7 6.5 10.5t14.5 4.5q12 2 20.5 6t12.5 8q5 3 12 7.5t17 4.5
q5 0 9.5 -1.5t7.5 -3.5q2 -1 5.5 -2t5.5 -1q5 1 7 2t6 5q2 2 2.5 5t0.5 5q3 6 7.5 12t4.5 13q2 4 -2.5 11t-7.5 7q-5 0 -10 -2t-8 -4q-5 -1 -14.5 -3t-13.5 -5q-6 -2 -16 -7.5t-18.5 -11t-10.5 -7.5q-14 -4 -23.5 -4t-24.5 -15l-11 -16.5t-10 -13.5q-1 -2 -3.5 -4.5
t-5.5 -4.5q-2 -7 -3.5 -14.5t-1.5 -15.5q1 -4 4 -7t4 -3q3 -3 6 -6.5t4 -9.5q1 -2 0.5 -7.5t-0.5 -4.5q0 -6 -0.5 -12t-0.5 -10q0 -13 9 -30.5t21 -33.5t21 -25q5 -6 12 -15.5t7 -22.5q0 -6 1.5 -9t7.5 -3h20t15 1q6 1 18.5 2t26 2.5t20.5 1.5q14 0 28.5 -3.5t16.5 -3.5
q8 -1 15 -2t16 -1zM98 415q5 4 9 8t9 5q5 3 12 4.5t13 2.5q2 1 4.5 2t2.5 3q-3 0 -6 0.5t-5 1.5q-3 0 -5.5 1l-2.5 1q-6 0 -13 -2t-9 -5q-2 -5 -4 -8.5t-3 -6.5t-2 -7zM218 330q7 0 7 6q-1 9 -13 9q-6 0 -10 -3t0 -5q5 -1 9 -4t7 -3zM276 343v6.5v5.5q0 3 5 7.5t8 4.5
q9 9 12.5 19.5t3.5 28.5q0 3 -0.5 4.5t-1.5 2.5q-7 -1 -12 -10.5t-8 -19.5t-5 -14t-6.5 -15t-4.5 -13q1 -1 3 -2.5t4 -2.5t2 -2zM337 329q5 2 8 16t3 16q3 9 5.5 19.5t2.5 13.5q0 6 -1.5 11.5t-3.5 4.5q-4 0 -8.5 -6t-4.5 -12v-9q0 -16 -6.5 -27.5t-6.5 -14.5q1 -5 4.5 -8.5
t7.5 -3.5zM381 322q7 0 7.5 4.5t1.5 9.5q3 6 7 15t4 14q0 2 -2 5t-5 4q-4 -7 -5 -14.5t-3 -13.5q-2 -3 -4 -9t-4 -11v-3l1 -0.5t2 -0.5z" />
  </g>

</svg>
