<?xml version="1.0" standalone="no"?>
<!DOCTYPE svg PUBLIC "-//W3C//DTD SVG 1.1//EN" "http://www.w3.org/Graphics/SVG/1.1/DTD/svg11.dtd" >
<svg xmlns="http://www.w3.org/2000/svg" xmlns:xlink="http://www.w3.org/1999/xlink" version="1.1" viewBox="-10 0 979 1000">
  <g transform="matrix(1 0 0 -1 0 800)">
   <path fill="currentColor"
d="M124 -215q-29 0 -51 45t-34 109t-12 135q0 123 41 239.5t118 214t183 164.5q24 14 42 14q20 0 20 -13q0 -4 -3.5 -9.5t-11.5 -11.5q-69 -55 -125 -128t-96.5 -157t-62.5 -174.5t-22 -178.5q0 -59 7 -101t15.5 -71.5t10.5 -50.5q1 -11 -4.5 -18.5t-14.5 -7.5zM394 -14
q-16 0 -30 10t-23 24.5t-9 25.5q0 7 2 15.5t9 25.5l94 252q6 17 1.5 22.5t-12.5 5.5l-48 2q-17 1 -21 7.5t-4 12.5q0 2 7 10.5t18 16t23 7.5h49q15 0 19.5 4.5t13.5 20.5l28 56q8 15 21.5 29t28.5 24t27 10q16 0 21 -15.5t0 -30.5l-24 -77q-3 -15 0.5 -19t14.5 -4
q13 0 29 -1.5t34 -3.5q22 -3 26.5 -8t4.5 -13q0 -3 -5.5 -10t-21.5 -9q-13 -1 -27 -2.5t-33 -2.5q-18 -1 -27.5 -5t-13.5 -14l-75 -207q-7 -21 -7 -31.5t4.5 -13t10.5 -2.5q12 0 31 13.5t38.5 30.5t31.5 30q3 2 5.5 3t2.5 0q5 -2 7.5 -7.5t1.5 -11.5q-3 -16 -19 -37.5
t-40.5 -44.5t-53.5 -43t-57.5 -32.5t-52.5 -12.5zM862 706q29 0 51 -45t34 -109t12 -135q0 -123 -41 -239.5t-118 -214t-183 -164.5q-24 -14 -42 -14q-20 0 -20 13q0 4 3.5 9.5t11.5 11.5q69 55 125 128t96.5 157t62.5 174.5t22 178.5q0 59 -7 101t-15.5 71.5t-10.5 50.5
q-1 11 4.5 18.5t14.5 7.5z" />
  </g>

</svg>
