<?xml version="1.0" standalone="no"?>
<!DOCTYPE svg PUBLIC "-//W3C//DTD SVG 1.1//EN" "http://www.w3.org/Graphics/SVG/1.1/DTD/svg11.dtd" >
<svg xmlns="http://www.w3.org/2000/svg" xmlns:xlink="http://www.w3.org/1999/xlink" version="1.1" viewBox="-10 0 719 1000">
  <g transform="matrix(1 0 0 -1 0 800)">
   <path fill="currentColor"
d="M69 280q-4 0 -6 2.5t-1 6.5q1 6 5 10t10 5q22 4 29 8.5t12 20.5l59 193q7 21 -5.5 31t-25.5 13q-10 2 -8 11q5 16 21 17q37 3 71 5.5t61 13.5l6 3t6 2q9 0 6 -9q-1 -6 -6 -15.5t-11 -27.5l-73 -237q-4 -13 -2 -17.5t24 -11.5q5 -2 7 -4.5t0 -8.5q-1 -5 -4 -7.5t-8 -2.5
q-11 0 -28 0.5t-32.5 1t-24.5 0.5q-13 0 -38 -1.5t-44 -1.5zM36 -21q-14 0 -19.5 11.5t3.5 20.5l608 642q8 9 21.5 12.5t26.5 3.5q15 0 20.5 -9t-2.5 -17l-606 -639q-13 -13 -25 -19t-27 -6zM357 -28q-24 0 -40.5 7t-13.5 20q3 12 11 23.5t16 11.5t15.5 -5t14.5 -10
q6 -6 16 -11t16 -5q15 0 31.5 11.5t28.5 31.5t12 42q0 17 -9.5 35.5t-27.5 18.5q-21 0 -31 -8t-16 -8t-9 3t-2 9q2 6 11 12.5t20 12t18 9.5q46 19 64.5 33.5t18.5 31.5q0 13 -8.5 22t-28.5 9q-17 0 -32 -8t-28 -17q-6 -4 -9.5 -7.5t-5.5 -3.5q-4 0 -6.5 5.5t-1.5 9.5
q5 8 22 23.5t45.5 29t65.5 12.5q37 0 56 -17.5t19 -41.5q0 -27 -27.5 -46.5t-61.5 -28.5q-2 -1 -2.5 -2t1.5 -1q28 0 46 -21.5t18 -47.5q0 -27 -19.5 -51.5t-51 -43t-67 -29t-68.5 -10.5z" />
  </g>

</svg>
