<?xml version="1.0" standalone="no"?>
<!DOCTYPE svg PUBLIC "-//W3C//DTD SVG 1.1//EN" "http://www.w3.org/Graphics/SVG/1.1/DTD/svg11.dtd" >
<svg xmlns="http://www.w3.org/2000/svg" xmlns:xlink="http://www.w3.org/1999/xlink" version="1.1" viewBox="-10 0 796 1000">
  <g transform="matrix(1 0 0 -1 0 800)">
   <path fill="currentColor"
d="M721 553q7 7 18 5t20.5 -7.5t13.5 -9.5q3 -3 2.5 -9.5t-4.5 -10.5l-572 -566q21 -2 43.5 -4.5t52 -8.5t74.5 -16q4 -2 7.5 -3.5t5.5 -3.5q3 -5 2 -9.5t-4 -5.5q-17 -5 -31 -7t-26 -3t-21 -3q-35 -2 -60.5 -5.5t-49.5 -9t-51 -14t-65 -17.5q-17 -4 -26 4q-4 4 -3.5 11.5
t3.5 16.5q13 47 20.5 79.5t11.5 60.5t6 59t3 74q0 7 2 20t10 19q10 8 19 -16q13 -47 20.5 -78.5t10 -55t1.5 -47.5z" />
  </g>

</svg>
