<?xml version="1.0" standalone="no"?>
<!DOCTYPE svg PUBLIC "-//W3C//DTD SVG 1.1//EN" "http://www.w3.org/Graphics/SVG/1.1/DTD/svg11.dtd" >
<svg xmlns="http://www.w3.org/2000/svg" xmlns:xlink="http://www.w3.org/1999/xlink" version="1.1" viewBox="-10 0 514 1000">
  <g transform="matrix(1 0 0 -1 0 800)">
   <path fill="currentColor"
d="M238 -21q-5 0 -12.5 13.5t-15.5 31.5t-14 29l-80 168q-22 0 -47.5 3.5t-43.5 13t-18 26.5q0 14 8.5 26t16.5 12q6 0 20.5 -12.5t41.5 -20.5l7 -15q-8 17 -13 33t-5 32q0 50 39 83t99 33q34 0 53 -29.5t19 -64.5q0 -39 -27 -67.5t-67 -41.5l21 48l56 -123q2 -5 4 -4.5
t4 4.5l66 152q6 13 6.5 21.5t0.5 17.5q0 18 -7.5 29t-18.5 15q-8 3 -15 6.5t-7 12.5q0 7 8.5 10t14.5 3q27 -1 40.5 -2t28.5 -1t29 1t40 2q7 0 15.5 -2t8.5 -10t-4.5 -12.5t-14.5 -8.5q-18 -6 -33.5 -22.5t-24.5 -39.5l-112 -251q-3 -7 -6 -14.5t-6.5 -16t-7 -16t-6.5 -14.5
l-12.5 -15t-15.5 -16t-13 -7zM211 292q12 6 18.5 18t6.5 25q0 15 -6 28.5t-21 13.5q-9 0 -14 -4.5t-5 -12.5q0 -3 2.5 -12l5 -18t3.5 -13z" />
  </g>

</svg>
