<?xml version="1.0" standalone="no"?>
<!DOCTYPE svg PUBLIC "-//W3C//DTD SVG 1.1//EN" "http://www.w3.org/Graphics/SVG/1.1/DTD/svg11.dtd" >
<svg xmlns="http://www.w3.org/2000/svg" xmlns:xlink="http://www.w3.org/1999/xlink" version="1.1" viewBox="-46 0 1207 1000">
  <g transform="matrix(1 0 0 -1 0 800)">
   <path fill="currentColor"
d="M-18 -5q-5 0 -11.5 6t-6.5 11q0 7 14 16q17 10 37.5 26.5t56.5 37.5q27 16 51 34t44 38t34.5 41t22.5 41t7 40q-1 28 -20.5 43t-43.5 15q-21 0 -41.5 -10t-40.5 -27q-6 -6 -11.5 -9t-12.5 -3q-9 0 -9 11q0 19 18.5 41t49.5 41.5t68 32t74 12.5q43 0 71.5 -14t43.5 -36.5
t15 -48.5q0 -29 -13.5 -52.5t-34.5 -43t-45 -35.5q-20 -13 -41 -26t-42.5 -26t-39.5 -23t-30 -17q-7 -4 -4.5 -6t9.5 -2h142q30 0 53.5 15.5t45.5 46.5q5 8 14.5 15t18.5 7q8 0 12 -6.5t0 -14.5q-16 -26 -35 -58t-33 -57t-18 -33q-5 -10 -11 -15.5t-15 -5.5t-31 0.5t-52 1
t-61 1t-56 0.5q-33 0 -64 -1t-53 -2.5t-26 -1.5zM599 -14q-36 0 -64.5 18.5t-44.5 50.5t-16 73q0 33 13 74t36.5 82t58 74.5t77.5 54t95 20.5q37 0 66.5 -19t46 -51t15.5 -73q-1 -45 -20.5 -97.5t-56 -99.5t-88 -77t-118.5 -30zM618 25q19 0 39 21.5t39 56.5t34 77.5t25 85
t13 79.5q1 25 -4.5 38t-25.5 13q-17 0 -36.5 -20.5t-38.5 -55.5t-35 -77t-26.5 -85.5t-12.5 -79.5q-2 -28 5 -40.5t24 -12.5zM958 -30q-26 0 -45 20t-19 45q0 26 13.5 48.5t35.5 36.5t48 14q33 0 50 -23t17 -48q0 -24 -13 -45.5t-36 -34.5t-51 -13z" />
  </g>

</svg>
