<?xml version="1.0" standalone="no"?>
<!DOCTYPE svg PUBLIC "-//W3C//DTD SVG 1.1//EN" "http://www.w3.org/Graphics/SVG/1.1/DTD/svg11.dtd" >
<svg xmlns="http://www.w3.org/2000/svg" xmlns:xlink="http://www.w3.org/1999/xlink" version="1.1" viewBox="-10 0 1021 1000">
  <g transform="matrix(1 0 0 -1 0 800)">
   <path fill="currentColor"
d="M722 498q10 0 19.5 -7.5t14.5 -11.5q29 -28 52 -47.5t45.5 -36.5t52 -35.5t72.5 -44.5q21 -10 21 -21q0 -8 -4 -12t-14 -10q-40 -19 -69.5 -35.5t-54 -33.5t-48.5 -37.5t-53 -47.5q-5 -4 -14.5 -11.5t-20.5 -7.5q-7 0 -7 11q0 3 1.5 6.5t3.5 7.5q24 38 41 63.5t30.5 43
t26.5 33.5h-76q-37 -18 -63.5 -33.5t-49.5 -31.5t-45.5 -35.5t-50.5 -45.5q-5 -4 -14.5 -11.5t-19.5 -7.5q-8 0 -8 11q0 3 1.5 6.5t3.5 7.5q24 38 41 63.5t30.5 43t27.5 33.5h-518q-7 0 -11.5 4.5t-4.5 9.5q0 6 3 16.5t9.5 19t16.5 8.5h510q-12 12 -24 26.5t-25 32.5
t-26 40.5t-29 52.5q-5 11 -4.5 17.5t7.5 6.5q10 0 19.5 -7.5t14.5 -11.5q28 -27 50 -46t43.5 -35.5t49 -34t66.5 -41.5h82q-13 12 -25 26.5t-24.5 32.5t-25.5 40.5t-29 52.5q-5 11 -4.5 17.5t7.5 6.5z" />
  </g>

</svg>
