<?xml version="1.0" standalone="no"?>
<!DOCTYPE svg PUBLIC "-//W3C//DTD SVG 1.1//EN" "http://www.w3.org/Graphics/SVG/1.1/DTD/svg11.dtd" >
<svg xmlns="http://www.w3.org/2000/svg" xmlns:xlink="http://www.w3.org/1999/xlink" version="1.1" viewBox="-10 0 1149 1000">
  <g transform="matrix(1 0 0 -1 0 800)">
   <path fill="currentColor"
d="M124 -215q-29 0 -51 45t-34 109t-12 135q0 123 41 239.5t118 214t183 164.5q24 14 42 14q20 0 20 -13q0 -4 -3.5 -9.5t-11.5 -11.5q-69 -55 -125 -128t-96.5 -157t-62.5 -174.5t-22 -178.5q0 -59 7 -101t15.5 -71.5t10.5 -50.5q1 -11 -4.5 -18.5t-14.5 -7.5zM632 -15
q-20 0 -35 12.5t-23 37.5l-43 125q-4 14 -10 20.5t-13 6.5t-10.5 -6.5t-8.5 -19.5q-6 -14 -12.5 -31.5t-14 -35t-14 -34t-12.5 -32.5q-6 -13 -22.5 -24t-38.5 -11q-15 0 -33.5 13.5t-18.5 38.5q0 10 2.5 20t5.5 19l147 452q5 16 9 30.5t4 29.5q0 22 -24 32q-8 3 -14.5 6.5
t-6.5 8.5q0 6 4 10t20 10q12 5 35 12t48.5 14.5t46 12.5t29.5 5q7 0 16 -1.5t9 -11.5q0 -13 -2.5 -21.5t-5.5 -18.5l-124 -354q-3 -8 2.5 -8t9.5 5q26 37 59 68t71 49.5t79 18.5q30 0 49 -13.5t19 -40.5q0 -24 -15.5 -48t-39.5 -46t-53.5 -40t-59.5 -30q-10 -3 -4 -17
l38 -85q4 -7 10.5 -16.5t16.5 -9.5q15 0 36.5 16.5t35.5 36.5q5 6 7 9t6 3q5 0 6.5 -4.5t1.5 -8.5q0 -23 -16.5 -49.5t-42.5 -50.5t-54.5 -39t-51.5 -15zM539 211q26 0 53 13t50.5 32.5t37.5 40t14 36.5q0 14 -9 19.5t-24 5.5q-18 0 -40.5 -17t-43 -40.5t-34.5 -45.5
t-14 -31q0 -4 3 -8.5t7 -4.5zM1032 706q29 0 51 -45t34 -109t12 -135q0 -123 -41 -239.5t-118 -214t-183 -164.5q-24 -14 -42 -14q-20 0 -20 13q0 4 3.5 9.5t11.5 11.5q69 55 125 128t96.5 157t62.5 174.5t22 178.5q0 59 -7 101t-15.5 71.5t-10.5 50.5q-1 11 4.5 18.5
t14.5 7.5z" />
  </g>

</svg>
