<?xml version="1.0" standalone="no"?>
<!DOCTYPE svg PUBLIC "-//W3C//DTD SVG 1.1//EN" "http://www.w3.org/Graphics/SVG/1.1/DTD/svg11.dtd" >
<svg xmlns="http://www.w3.org/2000/svg" xmlns:xlink="http://www.w3.org/1999/xlink" version="1.1" viewBox="-10 0 790 1000">
  <g transform="matrix(1 0 0 -1 0 800)">
   <path fill="currentColor"
d="M57 -143q-7 -7 -18 -5t-20.5 7.5t-13.5 9.5q-3 3 -2.5 9.5t4.5 10.5l572 566q-21 2 -43.5 4.5t-52 8.5t-74.5 16q-4 2 -7.5 3.5t-5.5 3.5q-3 5 -2 9.5t4 5.5q17 5 31 7t26 3t21 3q35 2 60.5 5.5t49.5 9t51 14t65 17.5q17 4 26 -4q4 -4 3.5 -11.5t-3.5 -16.5
q-13 -47 -20.5 -79.5t-11.5 -60.5t-6 -59t-3 -74q0 -7 -2 -20t-10 -19q-10 -8 -19 16q-13 47 -20.5 78.5t-10 55t-1.5 47.5z" />
  </g>

</svg>
