<?xml version="1.0" standalone="no"?>
<!DOCTYPE svg PUBLIC "-//W3C//DTD SVG 1.1//EN" "http://www.w3.org/Graphics/SVG/1.1/DTD/svg11.dtd" >
<svg xmlns="http://www.w3.org/2000/svg" xmlns:xlink="http://www.w3.org/1999/xlink" version="1.1" viewBox="-10 0 1046 1000">
  <g transform="matrix(1 0 0 -1 0 800)">
   <path fill="currentColor"
d="M341 101q-10 0 -19.5 7.5t-14.5 11.5q-30 27 -54 47t-48 37t-53.5 33.5t-70.5 36.5q-9 6 -13.5 10t-4.5 11q0 6 6 11.5t16 9.5q43 26 72.5 45t52 36t45.5 37t52 47q5 4 14.5 11.5t19.5 7.5q7 0 7.5 -7.5t-4.5 -17.5q-8 -13 -15 -26t-15 -25h666q7 0 11.5 -4t4.5 -9
q0 -7 -3 -17.5t-9 -19t-17 -8.5h-691q-17 -25 -31 -41h735q7 0 11.5 -4.5t4.5 -9.5q0 -6 -3 -16.5t-9.5 -19t-16.5 -8.5h-723q8 -11 17.5 -22.5t18.5 -25.5h700q7 0 11.5 -4t4.5 -9q0 -7 -3 -18t-9 -19t-17 -8h-646q5 -9 11 -17.5t11 -18.5q2 -3 4 -6.5t2 -6.5q0 -11 -8 -11
z" />
  </g>

</svg>
