<?xml version="1.0" standalone="no"?>
<!DOCTYPE svg PUBLIC "-//W3C//DTD SVG 1.1//EN" "http://www.w3.org/Graphics/SVG/1.1/DTD/svg11.dtd" >
<svg xmlns="http://www.w3.org/2000/svg" xmlns:xlink="http://www.w3.org/1999/xlink" version="1.1" viewBox="-10 0 823 1000">
  <g transform="matrix(1 0 0 -1 0 800)">
   <path fill="currentColor"
d="M86 -14q-24 0 -42.5 18t-18.5 36q0 5 1 10t4 11q29 64 54 126.5t49 119.5q2 6 -5 6t-18 -4.5t-22.5 -11.5t-22.5 -13q-13 -8 -19 -4t-6 12q0 7 13.5 21.5t34.5 32t46 34.5t48.5 30.5t39.5 19.5q14 6 29.5 -1.5t24.5 -20t4 -24.5l-112 -276q-1 -4 -2 -8.5t-1 -6.5
q0 -4 2.5 -6t4.5 -2q9 0 27.5 12t39.5 28t35 30q3 3 4 3q5 0 9 -4.5t4 -9.5q0 -18 -21.5 -44.5t-54 -52.5t-67 -43.5t-62.5 -17.5zM269 504q-22 0 -37 17.5t-15 39.5q0 34 24 60t60 26q24 0 37 -19.5t13 -41.5q0 -31 -24 -56.5t-58 -25.5zM487 -14q-38 0 -62 17t-30 47t8 70
l62 169q5 15 1 20t-8 5q-10 0 -27.5 -10.5t-26.5 -18.5q-7 -6 -12.5 -10t-7.5 -4q-14 0 -14 12q0 5 6 14t15 22q15 18 38 38t49 37.5t50 28.5t41 11q13 0 24 -9t17 -21t3 -20l-79 -249q-10 -34 -3.5 -50.5t34.5 -16.5q21 0 48 19.5t51.5 50.5t40.5 65.5t16 65.5
q0 25 -8.5 42.5t-22.5 30.5q-10 10 -15 18t-5 19q0 9 16.5 21.5t39 23t36.5 10.5q16 0 28.5 -20t12.5 -63q0 -42 -17.5 -86t-46 -87t-64.5 -80q-45 -48 -92.5 -80t-95.5 -32z" />
  </g>

</svg>
