<?xml version="1.0" standalone="no"?>
<!DOCTYPE svg PUBLIC "-//W3C//DTD SVG 1.1//EN" "http://www.w3.org/Graphics/SVG/1.1/DTD/svg11.dtd" >
<svg xmlns="http://www.w3.org/2000/svg" xmlns:xlink="http://www.w3.org/1999/xlink" version="1.1" viewBox="-52 0 1298 1000">
  <g transform="matrix(1 0 0 -1 0 800)">
   <path fill="currentColor"
d="M-26 -3q-7 0 -12 3.5t-3 10.5q5 16 27 21q41 9 59 21t28 44l141 454q10 32 1 45t-46 23q-9 2 -13 7.5t-1 13.5q1 7 9 11t15 4q22 0 47 -1t49.5 -2.5t44.5 -1.5t45.5 1t52.5 2t49 1q17 0 13 -14q-2 -10 -9 -14t-19 -7q-29 -8 -45.5 -16t-25.5 -20t-15 -33l-128 -416
q-11 -37 -13 -56t8.5 -27.5t32.5 -14.5q21 -5 27.5 -10t3.5 -14q-1 -7 -7.5 -11t-14.5 -4q-22 0 -50.5 1.5t-56.5 2.5t-48 1q-31 0 -71.5 -2.5t-74.5 -2.5zM352 -3q-7 0 -12 3.5t-3 10.5q5 16 27 21q41 9 59 21t28 44l141 454q10 32 1 45t-46 23q-9 2 -13 7.5t-1 13.5
q1 7 9 11t15 4q22 0 47 -1t49.5 -2.5t44.5 -1.5t45.5 1t52.5 2t49 1q17 0 13 -14q-2 -10 -9 -14t-19 -7q-29 -8 -45.5 -16t-25.5 -20t-15 -33l-128 -416q-11 -37 -13 -56t8.5 -27.5t32.5 -14.5q21 -5 27.5 -10t3.5 -14q-1 -7 -7.5 -11t-14.5 -4q-22 0 -50.5 1.5t-56.5 2.5
t-48 1q-31 0 -71.5 -2.5t-74.5 -2.5zM729 -3q-7 0 -12 3.5t-3 10.5q5 16 27 21q41 9 59 21t28 44l141 454q10 32 1 45t-46 23q-9 2 -13 7.5t-1 13.5q1 7 9 11t15 4q22 0 47 -1t49.5 -2.5t44.5 -1.5t45.5 1t52.5 2t49 1q17 0 13 -14q-2 -10 -9 -14t-19 -7q-29 -8 -45.5 -16
t-25.5 -20t-15 -33l-128 -416q-11 -37 -13 -56t8.5 -27.5t32.5 -14.5q21 -5 27.5 -10t3.5 -14q-1 -7 -7.5 -11t-14.5 -4q-22 0 -50.5 1.5t-56.5 2.5t-48 1q-31 0 -71.5 -2.5t-74.5 -2.5z" />
  </g>

</svg>
