<?xml version="1.0" standalone="no"?>
<!DOCTYPE svg PUBLIC "-//W3C//DTD SVG 1.1//EN" "http://www.w3.org/Graphics/SVG/1.1/DTD/svg11.dtd" >
<svg xmlns="http://www.w3.org/2000/svg" xmlns:xlink="http://www.w3.org/1999/xlink" version="1.1" viewBox="-10 0 394 1000">
  <g transform="matrix(1 0 0 -1 0 800)">
   <path fill="currentColor"
d="M317 369q-7 0 -11.5 4.5t-4.5 11.5v459q0 13 12.5 21t26 11.5t17.5 3.5q6 0 11.5 -4t5.5 -11v-469q0 -11 -12 -17.5t-26 -8t-19 -1.5zM200 369q-6 0 -10.5 4.5t-4.5 11.5v459q0 13 12.5 21t26 11.5t16.5 3.5q7 0 12.5 -4t5.5 -11v-469q0 -11 -12 -17.5t-26 -8t-20 -1.5z
" />
  </g>

</svg>
