<?xml version="1.0" standalone="no"?>
<!DOCTYPE svg PUBLIC "-//W3C//DTD SVG 1.1//EN" "http://www.w3.org/Graphics/SVG/1.1/DTD/svg11.dtd" >
<svg xmlns="http://www.w3.org/2000/svg" xmlns:xlink="http://www.w3.org/1999/xlink" version="1.1" viewBox="-10 0 1076 1000">
  <g transform="matrix(1 0 0 -1 0 800)">
   <path fill="currentColor"
d="M124 -215q-29 0 -51 45t-34 109t-12 135q0 123 41 239.5t118 214t183 164.5q24 14 42 14q20 0 20 -13q0 -4 -3.5 -9.5t-11.5 -11.5q-69 -55 -125 -128t-96.5 -157t-62.5 -174.5t-22 -178.5q0 -59 7 -101t15.5 -71.5t10.5 -50.5q1 -11 -4.5 -18.5t-14.5 -7.5zM282 -5
q-5 0 -11.5 6t-6.5 11q0 7 14 16q17 10 37.5 26.5t56.5 37.5q27 16 51 34t44 38t34.5 41t22.5 41t7 40q-1 28 -20.5 43t-43.5 15q-21 0 -41.5 -10t-40.5 -27q-6 -6 -11.5 -9t-12.5 -3q-9 0 -9 11q0 19 18.5 41t49.5 41.5t68 32t74 12.5q43 0 71.5 -14t43.5 -36.5t15 -48.5
q0 -29 -13.5 -52.5t-34.5 -43t-45 -35.5q-20 -13 -41 -26t-42.5 -26t-39.5 -23t-30 -17q-7 -4 -4.5 -6t9.5 -2h142q30 0 53.5 15.5t45.5 46.5q5 8 14.5 15t18.5 7q8 0 12 -6.5t0 -14.5q-16 -26 -35 -58t-33 -57t-18 -33q-5 -10 -11 -15.5t-15 -5.5t-31 0.5t-52 1t-61 1
t-56 0.5q-33 0 -64 -1t-53 -2.5t-26 -1.5zM959 706q29 0 51 -45t34 -109t12 -135q0 -123 -41 -239.5t-118 -214t-183 -164.5q-24 -14 -42 -14q-20 0 -20 13q0 4 3.5 9.5t11.5 11.5q69 55 125 128t96.5 157t62.5 174.5t22 178.5q0 59 -7 101t-15.5 71.5t-10.5 50.5
q-1 11 4.5 18.5t14.5 7.5z" />
  </g>

</svg>
