<?xml version="1.0" standalone="no"?>
<!DOCTYPE svg PUBLIC "-//W3C//DTD SVG 1.1//EN" "http://www.w3.org/Graphics/SVG/1.1/DTD/svg11.dtd" >
<svg xmlns="http://www.w3.org/2000/svg" xmlns:xlink="http://www.w3.org/1999/xlink" version="1.1" viewBox="-52 0 1101 1000">
  <g transform="matrix(1 0 0 -1 0 800)">
   <path fill="currentColor"
d="M-27 -5q-5 0 -10 5t-5 12q0 6 9 10.5t16 5.5q13 2 28 6t29.5 15.5t21.5 38.5l76 244q8 27 2.5 39.5t-18 16.5t-24.5 5q-5 0 -12 4.5t-7 11.5q0 9 11.5 12.5t16.5 3.5q34 0 51 -1.5t31.5 -3t40.5 -1.5q25 0 40 1.5t32.5 3t51.5 1.5q7 0 12.5 -3.5t5.5 -10.5t-8.5 -12
t-13.5 -6q-21 -4 -36 -8t-25.5 -15t-19.5 -38l-76 -244q-7 -25 -4.5 -36.5t14.5 -15.5t31 -8q7 -1 11 -5t4 -11q0 -6 -8.5 -11.5t-16.5 -5.5q-35 0 -52 2t-31 3.5t-40 1.5t-42 -1.5t-34.5 -3.5t-51.5 -2zM481 -14q-60 0 -96.5 45.5t-36.5 121.5q0 56 20.5 112.5t57.5 111
t85.5 102t105 85.5t116.5 60.5t119 27.5q17 2 30.5 0t13.5 -9q0 -11 -13.5 -15t-32.5 -11q-52 -17 -100 -47t-89 -69t-74 -83q-3 -3 -3.5 -6t5.5 0q19 7 31.5 10.5t27.5 3.5q38 0 63 -21t37.5 -55t12.5 -77q0 -44 -20.5 -93.5t-57.5 -94t-88.5 -72t-113.5 -27.5zM506 26
q25 0 49 27t43.5 70.5t30.5 95t11 99.5q0 26 -8.5 43.5t-28.5 17.5q-25 0 -46.5 -20.5t-37.5 -53.5t-27.5 -72.5t-17 -78.5t-5.5 -72q0 -18 5.5 -30.5t14.5 -19t17 -6.5zM846 -30q-26 0 -45 20t-19 45q0 26 13.5 48.5t35.5 36.5t48 14q33 0 50 -23t17 -48q0 -24 -13 -45.5
t-36 -34.5t-51 -13z" />
  </g>

</svg>
