<?xml version="1.0" standalone="no"?>
<!DOCTYPE svg PUBLIC "-//W3C//DTD SVG 1.1//EN" "http://www.w3.org/Graphics/SVG/1.1/DTD/svg11.dtd" >
<svg xmlns="http://www.w3.org/2000/svg" xmlns:xlink="http://www.w3.org/1999/xlink" version="1.1" viewBox="-10 0 462 1000">
  <g transform="matrix(1 0 0 -1 0 800)">
   <path fill="currentColor"
d="M103 -289q-9 0 -15.5 8t-6.5 17v914q0 14 11 24.5t26.5 17.5t29 10t16.5 3q10 0 18 -6.5t8 -16.5v-927q0 -15 -11 -23.5t-26.5 -13t-29.5 -6t-20 -1.5zM279 -289q-9 0 -15.5 8t-6.5 17v914q0 14 11 24.5t26.5 17.5t29 10t16.5 3q10 0 18 -6.5t8 -16.5v-927
q0 -15 -11 -23.5t-26.5 -13t-29.5 -6t-20 -1.5z" />
  </g>

</svg>
