<?xml version="1.0" standalone="no"?>
<!DOCTYPE svg PUBLIC "-//W3C//DTD SVG 1.1//EN" "http://www.w3.org/Graphics/SVG/1.1/DTD/svg11.dtd" >
<svg xmlns="http://www.w3.org/2000/svg" xmlns:xlink="http://www.w3.org/1999/xlink" version="1.1" viewBox="-67 0 812 1000">
  <g transform="matrix(1 0 0 -1 0 800)">
   <path fill="currentColor"
d="M-34 -14q-11 0 -17 3.5t-5 10.5q5 15 35 22q27 8 47 31t29 50l60 196q26 81 76 141t123 93t167 33q75 0 125 -35t67 -97t-8 -144q-10 -33 -15.5 -51.5t-10 -33.5t-10 -36.5t-15.5 -58.5q-9 -36 -2 -57t37 -31q26 -8 20 -22q-2 -8 -10 -11t-19 -3q-20 0 -33 1t-25.5 2
t-31.5 1q-23 0 -42 -1.5t-55 -1.5q-29 0 -25 14q3 11 18.5 15t28.5 10q22 9 38 23t29 39t27 70q7 21 11 34.5t8.5 27.5t12.5 41q23 73 18 121.5t-37 73t-93 24.5q-45 0 -88.5 -21t-79 -65t-57.5 -113l-54 -174q-9 -33 -3.5 -51t18.5 -26q14 -6 27.5 -12t9.5 -17
q-2 -7 -10.5 -10.5t-20.5 -3.5q-28 0 -67 2t-67 2q-30 0 -64.5 -2.5t-66.5 -2.5zM282 162q-7 0 -11.5 4t-3.5 11q5 16 28 21q30 7 45.5 19.5t21.5 30.5l114 370q8 25 2 36t-34 18q-9 3 -12.5 8t-1.5 14q1 7 8.5 10.5t14.5 3.5q23 0 41.5 -1l37 -2t38.5 -1t39.5 0.5t40 1.5
t42.5 1q17 0 13 -14q-2 -9 -9 -13.5t-18 -7.5q-30 -7 -44 -18t-21 -34l-115 -371q-7 -22 2 -33.5t27 -17.5q9 -3 13 -7t1 -14q-1 -6 -7 -10t-15 -4q-21 0 -40 1t-37 2t-38 1q-31 0 -59.5 -2.5t-62.5 -2.5z" />
  </g>

</svg>
