<?xml version="1.0" standalone="no"?>
<!DOCTYPE svg PUBLIC "-//W3C//DTD SVG 1.1//EN" "http://www.w3.org/Graphics/SVG/1.1/DTD/svg11.dtd" >
<svg xmlns="http://www.w3.org/2000/svg" xmlns:xlink="http://www.w3.org/1999/xlink" version="1.1" viewBox="-10 0 919 1000">
  <g transform="matrix(1 0 0 -1 0 800)">
   <path fill="currentColor"
d="M124 -215q-29 0 -51 45t-34 109t-12 135q0 123 41 239.5t118 214t183 164.5q24 14 42 14q20 0 20 -13q0 -4 -3.5 -9.5t-11.5 -11.5q-69 -55 -125 -128t-96.5 -157t-62.5 -174.5t-22 -178.5q0 -59 7 -101t15.5 -71.5t10.5 -50.5q1 -11 -4.5 -18.5t-14.5 -7.5zM370 -14
q-23 0 -40 18.5t-17 36.5q0 8 5 22l169 499q12 34 8 48.5t-21 18.5q-13 4 -17 9t-6 11q0 6 2 10t12 7q23 7 49 12t50 10t39 10q5 2 14 4t17.5 3.5t11.5 1.5q6 0 9.5 -7.5t1.5 -12.5q-1 -7 -5 -19t-8 -25l-182 -523q-2 -4 -2.5 -7.5t-0.5 -6.5q0 -13 12 -13q9 0 23.5 10
t30.5 25t29 29l4 4t4 2q7 0 9 -6t2 -10q0 -16 -14 -36.5t-37.5 -42.5t-51 -40.5t-54 -30t-46.5 -11.5zM802 706q29 0 51 -45t34 -109t12 -135q0 -123 -41 -239.5t-118 -214t-183 -164.5q-24 -14 -42 -14q-20 0 -20 13q0 4 3.5 9.5t11.5 11.5q69 55 125 128t96.5 157
t62.5 174.5t22 178.5q0 59 -7 101t-15.5 71.5t-10.5 50.5q-1 11 4.5 18.5t14.5 7.5z" />
  </g>

</svg>
