<?xml version="1.0" standalone="no"?>
<!DOCTYPE svg PUBLIC "-//W3C//DTD SVG 1.1//EN" "http://www.w3.org/Graphics/SVG/1.1/DTD/svg11.dtd" >
<svg xmlns="http://www.w3.org/2000/svg" xmlns:xlink="http://www.w3.org/1999/xlink" version="1.1" viewBox="-10 0 354 1000">
  <g transform="matrix(1 0 0 -1 0 800)">
   <path fill="currentColor"
d="M194 380q-8 0 -11 7t-3 17q0 7 3.5 29t9 51.5t11.5 58.5t11 51.5t6 29.5q5 25 28 38.5t49 13.5q11 0 13.5 -6.5t2.5 -19.5q0 -14 -9 -44t-22.5 -67t-29 -72t-29.5 -60q-7 -12 -14 -19.5t-16 -7.5zM46 380q-8 0 -11 7t-3 17q0 7 4 29t9.5 51.5t11 58.5t10.5 51.5t6 29.5
q5 25 28.5 38.5t48.5 13.5q11 0 13.5 -6.5t2.5 -19.5q0 -14 -8.5 -44t-22.5 -67t-29.5 -72t-29.5 -60q-7 -12 -14 -19.5t-16 -7.5z" />
  </g>

</svg>
