<?xml version="1.0" standalone="no"?>
<!DOCTYPE svg PUBLIC "-//W3C//DTD SVG 1.1//EN" "http://www.w3.org/Graphics/SVG/1.1/DTD/svg11.dtd" >
<svg xmlns="http://www.w3.org/2000/svg" xmlns:xlink="http://www.w3.org/1999/xlink" version="1.1" viewBox="-10 0 713 1000">
  <g transform="matrix(1 0 0 -1 0 800)">
   <path fill="currentColor"
d="M247 438q-3 0 -7 1.5t-5 6.5l-39 216q-3 16 -7 27t-17 15q-6 2 -7 5t0 9t8 7.5t12 1.5q18 0 28 -1t19.5 -2t25.5 -1q19 0 31 2t38 2q5 0 10.5 -2t3.5 -9q-2 -6 -7.5 -8t-10.5 -4q-17 -4 -22 -18t-3 -29l12 -78q1 -7 6 0l60 82q14 19 15 28t-9 15q-9 5 -7 14q2 6 9 7.5
t13 1.5q21 0 38 -1t25 -1q16 0 28 1t34 1q6 0 11.5 -2t3.5 -9q-2 -6 -7.5 -8t-10.5 -4q-17 -4 -22.5 -15.5t-2.5 -32.5l13 -69q1 -6 3.5 -5t5.5 4l50 70q14 18 16 31.5t-8 16.5q-5 2 -9 4t-3 8q1 7 8.5 9t11.5 2q13 0 26 -1t20 -1q11 0 24 1t25 1q5 0 11 -1.5t4 -7.5t-5 -9
t-11 -5q-14 -4 -27 -12.5t-23 -21.5l-170 -225q-4 -7 -15 -7q-9 0 -10 7l-33 172q-1 4 -3 4t-5 -4l-126 -171q-6 -8 -17 -8z" />
  </g>

</svg>
