<?xml version="1.0" standalone="no"?>
<!DOCTYPE svg PUBLIC "-//W3C//DTD SVG 1.1//EN" "http://www.w3.org/Graphics/SVG/1.1/DTD/svg11.dtd" >
<svg xmlns="http://www.w3.org/2000/svg" xmlns:xlink="http://www.w3.org/1999/xlink" version="1.1" viewBox="-56 0 769 1000">
  <g transform="matrix(1 0 0 -1 0 800)">
   <path fill="currentColor"
d="M-27 -6q-8 0 -14.5 3t-3.5 12q4 8 14 11.5t16 3.5q31 3 60.5 21t46.5 33l128 120q16 15 20 23.5t0 20.5l-46 146q-3 11 -15 19.5t-34 14.5q-7 2 -12 6t-5 11t10.5 9.5t16.5 2.5q45 0 81 -2t76 -2q20 0 45 3.5t60 3.5q7 0 12.5 -2.5t3.5 -10.5q-5 -14 -28 -18
q-40 -5 -48.5 -18.5t-5.5 -26.5l29 -87q4 -11 10 -13t21 13l100 97q13 13 9.5 21.5t-24.5 12.5q-8 1 -13 6t-2 13q2 5 10.5 8t16.5 3q19 0 31 -0.5t22 -1.5t26 -1q24 0 45.5 2.5t48.5 2.5q8 0 16 -2.5t5 -10.5q-4 -8 -12 -12t-20 -6q-25 -6 -49.5 -17.5t-59.5 -37.5
l-140 -108q-12 -9 -14 -19t2 -21l60 -143q8 -21 20 -30.5t27 -15.5q11 -3 17 -7t3 -12q-1 -6 -8.5 -10.5t-18.5 -4.5q-60 0 -93.5 3t-64.5 3q-22 0 -48 -2.5t-54 -2.5q-5 0 -11 3.5t-4 8.5q3 8 11.5 11.5t16.5 5.5q27 3 39.5 12.5t7.5 24.5l-34 106q-4 14 -13.5 14
t-22.5 -15l-80 -92q-22 -27 -17.5 -36t22.5 -13q10 -2 15 -7.5t2 -11.5q-2 -7 -10.5 -9.5t-16.5 -2.5q-30 0 -49.5 1t-44.5 1q-21 0 -41 -2.5t-46 -2.5z" />
  </g>

</svg>
