<?xml version="1.0" standalone="no"?>
<!DOCTYPE svg PUBLIC "-//W3C//DTD SVG 1.1//EN" "http://www.w3.org/Graphics/SVG/1.1/DTD/svg11.dtd" >
<svg xmlns="http://www.w3.org/2000/svg" xmlns:xlink="http://www.w3.org/1999/xlink" version="1.1" viewBox="-10 0 515 1000">
  <g transform="matrix(1 0 0 -1 0 800)">
   <path fill="currentColor"
d="M80 289q-20 0 -36.5 10t-9.5 27q4 13 13 24t25 11q7 0 13.5 -1.5t11.5 -3.5q5 -1 9.5 -2.5t9.5 -1.5t12 3t13 9q11 12 29 33.5t35 43.5q12 14 17 22t6 14q2 6 2.5 12.5t-1.5 11.5l-43 166q-4 14 -8 24.5t-16 13.5q-6 3 -7 6.5t0 8.5q2 6 8.5 7.5t10.5 1.5q17 0 27 -0.5
t20 -1.5t24 -1q22 0 38 1.5t41 1.5q5 0 11 -2t4 -7q-2 -6 -7 -7.5t-11 -3.5q-17 -7 -24.5 -25.5t-2.5 -38.5l14 -63q2 -9 8 0l52 75q14 18 13.5 33.5t-12.5 19.5q-4 2 -7.5 3t-2.5 7q2 5 9 7t11 2q22 0 33 -1t17 -1q10 0 22 1t27 1q5 0 11.5 -1.5t4.5 -7.5q-2 -5 -5 -8.5
t-11 -6.5q-29 -8 -50 -35l-259 -336q-16 -22 -40 -33.5t-49 -11.5z" />
  </g>

</svg>
