<?xml version="1.0" standalone="no"?>
<!DOCTYPE svg PUBLIC "-//W3C//DTD SVG 1.1//EN" "http://www.w3.org/Graphics/SVG/1.1/DTD/svg11.dtd" >
<svg xmlns="http://www.w3.org/2000/svg" xmlns:xlink="http://www.w3.org/1999/xlink" version="1.1" viewBox="-10 0 813 1000">
  <g transform="matrix(1 0 0 -1 0 800)">
   <path fill="currentColor"
d="M116 -6q-13 0 -18.5 4.5t-4.5 11.5q2 9 12.5 14t23.5 7q40 8 61 27.5t30 51.5l23 74h-110q-6 0 -12 5t-5 12q1 8 11.5 20t22.5 12l108 -1l5 16q2 7 4 13.5t3 12.5h-105q-7 0 -12.5 5.5t-4.5 11.5q1 9 11 20.5t23 11.5h88q-1 7 -2.5 13.5t-3.5 12.5l-60 206
q-7 22 -18.5 39t-38.5 24q-8 3 -14 7.5t-3 14.5q2 7 9.5 10.5t15.5 3.5q42 0 75.5 -3t76.5 -3q28 0 57 3t62 3q9 0 16.5 -3.5t5.5 -10.5q-2 -8 -13 -13.5t-21 -7.5q-43 -10 -56 -26t-7 -47l35 -175q4 -16 7.5 -21t7.5 -5t9.5 5t14.5 16q22 25 45.5 54t48 59.5t46.5 58.5
q27 32 24.5 54t-40.5 26q-10 2 -18.5 7.5t-5.5 14.5q2 7 12.5 10t20.5 3q29 0 52 -2t50 -2q30 0 55 3.5t53 3.5q11 0 18.5 -3t5.5 -13q-3 -9 -12.5 -12.5t-20.5 -7.5q-21 -4 -41 -15t-37.5 -25t-29.5 -29q-46 -52 -91 -102.5t-88 -96.5q-6 -8 -12.5 -15.5t-11.5 -14.5h96
q8 0 12.5 -6.5t3.5 -11.5q-2 -7 -15.5 -19t-28.5 -12h-92l-13 -41l106 -1q7 0 11.5 -6t3.5 -11q-2 -8 -15 -19.5t-28 -11.5h-93l-22 -73q-12 -37 -2.5 -52.5t44.5 -26.5q12 -3 19 -7t4 -13q-2 -7 -10.5 -11.5t-20.5 -4.5q-21 0 -47.5 2t-52 3.5t-45.5 1.5q-21 0 -46.5 -1.5
t-52 -4t-48.5 -2.5z" />
  </g>

</svg>
