<?xml version="1.0" standalone="no"?>
<!DOCTYPE svg PUBLIC "-//W3C//DTD SVG 1.1//EN" "http://www.w3.org/Graphics/SVG/1.1/DTD/svg11.dtd" >
<svg xmlns="http://www.w3.org/2000/svg" xmlns:xlink="http://www.w3.org/1999/xlink" version="1.1" viewBox="-12 0 506 1000">
  <g transform="matrix(1 0 0 -1 0 800)">
   <path fill="currentColor"
d="M265 -33q-30 0 -55 14.5t-46 30.5q-20 16 -37.5 29t-33.5 13q-26 0 -41 -18t-15 -41q0 -10 -5.5 -12.5t-10.5 -2.5q-8 0 -14.5 10.5t-7.5 20.5q-1 11 4.5 26t21.5 28l295 255l36 -2q-15 -14 -40.5 -22.5t-41.5 -8.5q-20 0 -38.5 13t-35.5 28q-16 12 -31 21.5t-30 9.5
t-22.5 -15t-7.5 -32q0 -13 3.5 -23t8.5 -19q8 -11 0 -19q-8 -7 -25 -14t-24 -7q-6 0 -16 11.5t-10 31.5q0 36 16.5 58t45.5 44q14 12 35 25.5t42.5 23t33.5 9.5q22 0 39.5 -6.5t40.5 -12.5q19 -7 39 -12.5t40 -5.5q16 0 24.5 4.5t21.5 15.5q6 5 15 11.5t17 6.5q6 0 12 -5
t6 -10q0 -7 -11.5 -21.5t-25.5 -26.5l-293 -271l-26 11q14 12 27.5 21t27.5 9q23 0 44.5 -13.5t40.5 -30.5q19 -16 38.5 -30.5t38.5 -14.5q13 0 20.5 10t11.5 25.5t4 33.5q0 20 2 33.5t11 13.5q14 0 28 -13.5t14 -42.5q0 -20 -18.5 -45t-45.5 -48t-53.5 -37.5t-43.5 -14.5z
M304 471q-10 0 -14.5 10t-10.5 31q-4 16 -9 33.5t-10 35.5t-9 34.5t-6 31.5q-4 16 0.5 28t18.5 12q15 0 30 -31q6 -14 15.5 -32.5t21.5 -39.5q4 -6 12 0q23 21 45.5 40.5l37.5 32.5q17 14 29 22t18 8q11 0 11 -12q0 -6 -3 -13t-10 -16q-18 -21 -37.5 -43.5t-39.5 -45.5
t-39 -45q-16 -18 -28.5 -29.5t-22.5 -11.5z" />
  </g>

</svg>
