<?xml version="1.0" standalone="no"?>
<!DOCTYPE svg PUBLIC "-//W3C//DTD SVG 1.1//EN" "http://www.w3.org/Graphics/SVG/1.1/DTD/svg11.dtd" >
<svg xmlns="http://www.w3.org/2000/svg" xmlns:xlink="http://www.w3.org/1999/xlink" version="1.1" viewBox="-10 0 479 1000">
  <g transform="matrix(1 0 0 -1 0 800)">
   <path fill="currentColor"
d="M159 -14q-37 0 -67.5 19.5t-48.5 54t-18 75.5q-1 36 11.5 79t37.5 85.5t60.5 78.5t81 57.5t99.5 21.5q39 0 70 -19.5t49 -53t18 -76.5q0 -46 -20 -102t-57 -106t-91.5 -82t-124.5 -32zM178 27q21 0 41.5 22.5t40 59.5t35 81.5t25.5 90t11 83.5q1 27 -5 40.5t-26 13.5
q-18 0 -38.5 -22t-39.5 -58.5t-35 -81t-26.5 -89.5t-13.5 -84q-1 -28 6.5 -42t24.5 -14z" />
  </g>

</svg>
