<?xml version="1.0" standalone="no"?>
<!DOCTYPE svg PUBLIC "-//W3C//DTD SVG 1.1//EN" "http://www.w3.org/Graphics/SVG/1.1/DTD/svg11.dtd" >
<svg xmlns="http://www.w3.org/2000/svg" xmlns:xlink="http://www.w3.org/1999/xlink" version="1.1" viewBox="-10 0 814 1000">
  <g transform="matrix(1 0 0 -1 0 800)">
   <path fill="currentColor"
d="M439.32 294l15.1787 108h338l-7.30957 -52c-36.4004 -259 -153 -370 -390 -370c-251 0 -342.4 111 -306 370s159 370 410 370c196 0 284.88 -72 294.27 -240h-156c-8.62012 81 -54.8398 115 -155.84 115c-131 0 -195.12 -72 -219.43 -245
c-24.1699 -172 20.5703 -245 150.57 -245c128 0 189.87 56 208.561 189h-182zM392.1 -42c54.9805 -0.00976562 56.3594 -40 50.1797 -83.9902c-11.0996 -79 -50.7393 -112 -129.739 -112l7.30957 52c32 0 47.8301 13 52.1904 44c-39 0 -54.1699 13 -49.6699 45
c5.75977 40.9902 29.7197 54.9902 69.71 54.9902h0.0195312z" />
  </g>

</svg>
