<?xml version="1.0" standalone="no"?>
<!DOCTYPE svg PUBLIC "-//W3C//DTD SVG 1.1//EN" "http://www.w3.org/Graphics/SVG/1.1/DTD/svg11.dtd" >
<svg xmlns="http://www.w3.org/2000/svg" xmlns:xlink="http://www.w3.org/1999/xlink" version="1.1" viewBox="-10 0 1191 1000">
  <g transform="matrix(1 0 0 -1 0 800)">
   <path fill="currentColor"
d="M1154.08 584l-0.860352 1l-1.13965 -1h-324l-23.0498 -164h284l-16.2998 -116h-284l-26.4199 -188h324l-16.2998 -116h-472l10.6797 76c-51.8496 -63 -123.35 -95 -246.35 -95c-226.86 1 -309.261 112 -273.001 370c36.1201 257 149.72 368 377.72 368
c118 0 184.78 -30 220.5 -96l10.8203 77h472zM480.771 596c-130 0 -195.26 -73 -219.43 -245s20.5703 -245 150.57 -245s196.12 72 220.43 245c24.1699 172 -21.5703 245 -151.57 245z" />
  </g>

</svg>
