<?xml version="1.0" standalone="no"?>
<!DOCTYPE svg PUBLIC "-//W3C//DTD SVG 1.1//EN" "http://www.w3.org/Graphics/SVG/1.1/DTD/svg11.dtd" >
<svg xmlns="http://www.w3.org/2000/svg" xmlns:xlink="http://www.w3.org/1999/xlink" version="1.1" viewBox="-10 0 700 1000">
  <g transform="matrix(1 0 0 -1 0 800)">
   <path fill="currentColor"
d="M279.08 520h-0.0214844c-18.8301 -134 403.26 -48 365.6 -316c-22.0596 -157 -117.479 -224 -319.479 -224s-278.72 66 -257.08 220h148c-11.0996 -79 25.2607 -112 124.261 -112c93 0 135.94 28 144.931 92c22.4902 160 -400.72 66 -365.58 316
c22.0596 157 114.479 224 309.479 224s268.72 -66 247.08 -220h-148c10.96 78 -23.2598 112 -114.26 112c-86 0 -125.79 -27 -134.93 -92z" />
  </g>

</svg>
