<?xml version="1.0" standalone="no"?>
<!DOCTYPE svg PUBLIC "-//W3C//DTD SVG 1.1//EN" "http://www.w3.org/Graphics/SVG/1.1/DTD/svg11.dtd" >
<svg xmlns="http://www.w3.org/2000/svg" xmlns:xlink="http://www.w3.org/1999/xlink" version="1.1" viewBox="-10 0 574 1000">
  <g transform="matrix(1 0 0 -1 0 800)">
   <path fill="currentColor"
d="M389.28 2l-0.860352 1l-10.3799 40c-37.0596 -36 -90.3096 -52 -162.31 -52c-132 0 -181.39 47 -165.79 158c16.7197 119 95.8896 170 265.89 170h86l3.08984 22c8.42969 60 -12.9199 86 -71.9199 86s-87.2305 -23 -93.6807 -76h-141c15.7402 112 90.4902 160 250.49 160
c159 0 220.13 -56 201.86 -186l-45.54 -324h-42c-64.0303 -50 -90.5703 -125 -28.5703 -125c23.8604 -1 47.8301 13 47.8301 13l-16.5801 -118s-32.8096 -20 -72.8096 -20c-123 0 -125.37 161 -3.71973 251zM390.891 234h-65.001c-58 0 -115.84 -6 -125.96 -78
c-6.88965 -49 14.7207 -66 70.7207 -66c81 0 106.75 48 116.73 119z" />
  </g>

</svg>
