<?xml version="1.0" standalone="no"?>
<!DOCTYPE svg PUBLIC "-//W3C//DTD SVG 1.1//EN" "http://www.w3.org/Graphics/SVG/1.1/DTD/svg11.dtd" >
<svg xmlns="http://www.w3.org/2000/svg" xmlns:xlink="http://www.w3.org/1999/xlink" version="1.1" viewBox="-10 0 575 1000">
  <g transform="matrix(1 0 0 -1 0 800)">
   <path fill="currentColor"
d="M378.9 41.9902c-37.0596 -35.9902 -90.3096 -51.9902 -162.3 -51.9902c-132 0 -181.39 47 -165.79 158c16.7197 119 95.8896 170 265.89 170h86l3.08984 22c8.42969 60 -12.9199 86 -71.9199 86s-87.2305 -23 -93.6807 -76h-141c15.7402 112 90.4902 160 250.49 160
c159 0 220.13 -56 201.86 -186l-45.54 -324h-116zM390.891 234h-65.001c-58 0 -115.84 -6 -125.96 -78c-6.88965 -49 14.7207 -66 70.7207 -66c81 0 106.75 48 116.73 119zM382 740c87 0 119.5 -32 109.1 -106s-51.9004 -106 -138.9 -106s-119.5 32 -109.1 106
s51.9004 106 138.9 106zM360.64 588c35 0 49.9697 14 54.4697 46c4.63965 33 -7.53027 46 -41.5303 46s-49.8301 -13 -54.4697 -46c-4.5 -32 7.53027 -46 41.5303 -46z" />
  </g>

</svg>
