<?xml version="1.0" standalone="no"?>
<!DOCTYPE svg PUBLIC "-//W3C//DTD SVG 1.1//EN" "http://www.w3.org/Graphics/SVG/1.1/DTD/svg11.dtd" >
<svg xmlns="http://www.w3.org/2000/svg" xmlns:xlink="http://www.w3.org/1999/xlink" version="1.1" viewBox="-10 0 690 1000">
  <g transform="matrix(1 0 0 -1 0 800)">
   <path fill="currentColor"
d="M200.84 369c-49.9199 29 -68.1699 77 -58.3301 147c20.0996 143 106.67 204 290.67 204c183 0 253.43 -61 233.33 -204c-9.83984 -70 -41.5898 -118 -99.6699 -147c70.7803 -30 96.9102 -86 84.6797 -173c-21.2197 -151 -118.359 -216 -322.359 -216
c-205 0 -282.86 65 -261.641 216c12.2305 87 54.1006 143 133.32 173zM345.359 88c101 0 147.92 35 158.74 112c11.2402 80 -26.2598 112 -127.26 112s-148.5 -32 -159.74 -112c-10.8203 -77 27.2598 -112 128.26 -112zM417.999 612c-86 0 -126.36 -31 -136.061 -100
c-10.1201 -72 21.9395 -100 107.939 -100s125.94 28 136.061 100c9.7002 69 -21.9395 100 -107.939 100z" />
  </g>

</svg>
