<?xml version="1.0" standalone="no"?>
<!DOCTYPE svg PUBLIC "-//W3C//DTD SVG 1.1//EN" "http://www.w3.org/Graphics/SVG/1.1/DTD/svg11.dtd" >
<svg xmlns="http://www.w3.org/2000/svg" xmlns:xlink="http://www.w3.org/1999/xlink" version="1.1" viewBox="-10 0 606 1000">
  <g transform="matrix(1 0 0 -1 0 800)">
   <path fill="currentColor"
d="M546.78 155c-29.2305 -87 -78.3994 -138 -164.069 -157c-63.0303 -50 -89.4307 -124 -27.4307 -124c23.8604 -1 47.8301 13 47.8301 13l-16.5801 -118s-32.8096 -20 -72.8096 -20c-118 0 -125.2 148 -18.2705 240h-9c-181 0 -247.04 78 -221.46 260
s113.54 260 294.54 260s246.9 -79 220.9 -264l-6.17969 -44h-368c-3.66016 -83 24.1396 -120 92.1396 -120c57 0 88.0898 22 108.399 74h139.99zM345.741 418c-70 0 -109.621 -40 -129.551 -132h221c13.0703 93 -14.4492 132 -91.4492 132z" />
  </g>

</svg>
