<?xml version="1.0" standalone="no"?>
<!DOCTYPE svg PUBLIC "-//W3C//DTD SVG 1.1//EN" "http://www.w3.org/Graphics/SVG/1.1/DTD/svg11.dtd" >
<svg xmlns="http://www.w3.org/2000/svg" xmlns:xlink="http://www.w3.org/1999/xlink" version="1.1" viewBox="-10 0 638 1000">
  <g transform="matrix(1 0 0 -1 0 800)">
   <path fill="currentColor"
d="M247.6 -10c-153 0 -208.04 78 -182.46 260s101.54 260 254.54 260c74 0 125.47 -18 155.85 -58l25.75 48h116l-63.2402 -450c-25.5801 -182 -113.54 -260 -294.54 -260c-149 0 -212.97 50 -214.67 166h140c3.69043 -52 27.6006 -74 79.6006 -74
c83 0 124.04 43 138.09 143l1.41016 10c-39.3604 -31 -90.3301 -45 -156.33 -45zM301.779 98c77 0 116.32 45 131.36 152s-11.6396 152 -88.6396 152s-116.32 -45 -131.36 -152c-14.9004 -106 11.6396 -152 88.6396 -152zM397.619 723c60 0 82.6299 -24 74.8994 -79
c-7.58984 -54 -36.96 -78 -96.96 -78s-82.6299 24 -75.04 78c7.73047 55 37.1006 79 97.1006 79z" />
  </g>

</svg>
