<?xml version="1.0" standalone="no"?>
<!DOCTYPE svg PUBLIC "-//W3C//DTD SVG 1.1//EN" "http://www.w3.org/Graphics/SVG/1.1/DTD/svg11.dtd" >
<svg xmlns="http://www.w3.org/2000/svg" xmlns:xlink="http://www.w3.org/1999/xlink" version="1.1" viewBox="-10 0 882 1000">
  <g transform="matrix(1 0 0 -1 0 800)">
   <path fill="currentColor"
d="M246.09 271h0.00976562l-38.0898 -271h-148l70.2695 500h116l15.1299 -56c33.46 46 81.4102 67 146.41 67c69 0 112.91 -22 134.16 -70c36.75 48 89.8398 70 162.84 70c129 0 173.88 -72 150.27 -240l-37.9502 -270h-148l37.9502 270
c12.9297 92 -4.4502 132 -57.4502 132c-56 0 -85.6201 -40 -98.5498 -132l-37.9502 -270h-148l37.9502 270c13.0703 93 -4.44922 132 -57.4492 132c-56 0 -86.6201 -40 -99.5498 -132z" />
  </g>

</svg>
