<?xml version="1.0" standalone="no"?>
<!DOCTYPE svg PUBLIC "-//W3C//DTD SVG 1.1//EN" "http://www.w3.org/Graphics/SVG/1.1/DTD/svg11.dtd" >
<svg xmlns="http://www.w3.org/2000/svg" xmlns:xlink="http://www.w3.org/1999/xlink" version="1.1" viewBox="-10 0 600 1000">
  <g transform="matrix(1 0 0 -1 0 800)">
   <path fill="currentColor"
d="M246.27 500l-1.14062 -1l12.5195 -39c37.7803 34 88.0303 50 154.03 50c137 0 185.88 -72 162.27 -240l-37.9502 -270h-148l37.9502 270c13.0703 93 -7.44922 132 -69.4492 132c-64 0 -97.0596 -36 -108.869 -120l-39.6299 -282h-148l70.2695 500h116zM291.099 -42
c54.9805 -0.00976562 56.3594 -40 50.1797 -83.9902c-11.0996 -79 -50.7393 -112 -129.739 -112l7.30957 52c32 0 47.8301 13 52.1904 44c-39 0 -54.1699 13 -49.6699 45c5.75977 40.9902 29.7197 54.9902 69.71 54.9902h0.0195312z" />
  </g>

</svg>
