<?xml version="1.0" standalone="no"?>
<!DOCTYPE svg PUBLIC "-//W3C//DTD SVG 1.1//EN" "http://www.w3.org/Graphics/SVG/1.1/DTD/svg11.dtd" >
<svg xmlns="http://www.w3.org/2000/svg" xmlns:xlink="http://www.w3.org/1999/xlink" version="1.1" viewBox="-10 0 627 1000">
  <g transform="matrix(1 0 0 -1 0 800)">
   <path fill="currentColor"
d="M369.68 510c188 0 257.04 -78 231.46 -260s-116.54 -260 -304.54 -260s-257.04 78 -231.46 260s116.54 260 304.54 260zM213.14 250c-15.04 -107 14.6396 -152 98.6396 -152s126.46 46 141.36 152c15.04 107 -14.6396 152 -98.6396 152s-126.32 -45 -141.36 -152z
M290.319 728c60 0 82.6289 -24 74.4785 -82c-8.00977 -57 -37.5195 -82 -97.5195 -82c-61 0 -82.6299 24 -74.4795 82s36.5205 82 97.5205 82zM510.318 728c61 0 83.6289 -24 75.4785 -82c-8.00977 -57 -38.5195 -82 -98.5195 -82s-82.6299 24 -74.4795 82
s37.5205 82 97.5205 82z" />
  </g>

</svg>
