<?xml version="1.0" standalone="no"?>
<!DOCTYPE svg PUBLIC "-//W3C//DTD SVG 1.1//EN" "http://www.w3.org/Graphics/SVG/1.1/DTD/svg11.dtd" >
<svg xmlns="http://www.w3.org/2000/svg" xmlns:xlink="http://www.w3.org/1999/xlink" version="1.1" viewBox="-10 0 479 1000">
  <g transform="matrix(1 0 0 -1 0 800)">
   <path fill="currentColor"
d="M369.11 385h-0.989258c-75 0 -112.62 -40 -125.83 -134l-35.1396 -250h-148l70.2695 500h116l13.3896 -47c37.4805 39 75.8701 56 127.87 56h72l-17.5703 -125h-71.9902h-0.00976562zM126.251 -41c55.9805 -0.00976562 56.3594 -40 50.1797 -83.9902
c-11.0996 -79 -50.7393 -112 -129.739 -112l7.30957 52c32 0 47.8301 13 52.1904 44c-39 0 -54.1699 13 -49.6699 45c5.75977 40.9902 29.7197 54.9902 69.71 54.9902h0.0195312z" />
  </g>

</svg>
