<?xml version="1.0" standalone="no"?>
<!DOCTYPE svg PUBLIC "-//W3C//DTD SVG 1.1//EN" "http://www.w3.org/Graphics/SVG/1.1/DTD/svg11.dtd" >
<svg xmlns="http://www.w3.org/2000/svg" xmlns:xlink="http://www.w3.org/1999/xlink" version="1.1" viewBox="-10 0 889 1000">
  <g transform="matrix(1 0 0 -1 0 800)">
   <path fill="currentColor"
d="M527.19 720c270 0 370.4 -111 334 -370s-168 -370 -438 -370s-370.4 111 -334 370s168 370 438 370zM436.12 72c201 0 297.66 83 325.07 278s-45.9297 278 -246.93 278s-297.66 -83 -325.07 -278s45.9297 -278 246.93 -278zM566.58 303l69.3105 -133h-101l-58.5703 124
h-73l-17.4297 -124h-91l49.5898 360h178c108 0 149.08 -35 137.42 -118c-8.29004 -59 -37.21 -94 -93.3203 -109zM426.931 462h-0.00976562l-14.0498 -100h86c44 0 63.9697 14 68.0293 50c4.91992 35 -9.96973 50 -53.9697 50h-86z" />
  </g>

</svg>
