<?xml version="1.0" standalone="no"?>
<!DOCTYPE svg PUBLIC "-//W3C//DTD SVG 1.1//EN" "http://www.w3.org/Graphics/SVG/1.1/DTD/svg11.dtd" >
<svg xmlns="http://www.w3.org/2000/svg" xmlns:xlink="http://www.w3.org/1999/xlink" version="1.1" viewBox="-10 0 660 1000">
  <g transform="matrix(1 0 0 -1 0 800)">
   <path fill="currentColor"
d="M406.01 612c-63 0 -93.2314 -23 -100.962 -78c-18.4102 -131 366.83 -51 332.54 -295c-10.2598 -73 -41.1494 -122 -98.2295 -151c13.4902 -25 19.1299 -56 13.5098 -96c-20.7998 -148 -103.79 -212 -277.79 -212c-158 0 -216.72 66 -195.08 220h124
c-11.0996 -79 14.2607 -112 86.2607 -112c70 0 102.37 24 110.24 80c20.7998 148 -358.11 49 -323.681 294c10.4004 74 44.0107 121 107.661 147c-19.21 27 -28.29 62 -21.6797 109c19.8203 141 97.3906 202 258.391 202c157 0 214.72 -66 193.08 -220h-124
c11.0996 79 -14.2607 112 -84.2607 112zM279.199 343c-36.4102 -10 -55.3613 -31 -60.2812 -66c-11.0996 -79 131.04 -78 233.86 -122c24.8301 13 37.7803 34 42.2803 66c10.54 75 -115.479 82 -215.859 122z" />
  </g>

</svg>
