<?xml version="1.0" standalone="no"?>
<!DOCTYPE svg PUBLIC "-//W3C//DTD SVG 1.1//EN" "http://www.w3.org/Graphics/SVG/1.1/DTD/svg11.dtd" >
<svg xmlns="http://www.w3.org/2000/svg" xmlns:xlink="http://www.w3.org/1999/xlink" version="1.1" viewBox="-10 0 617 1000">
  <g transform="matrix(1 0 0 -1 0 800)">
   <path fill="currentColor"
d="M410 0l1.14062 1l-12.5195 39c-37.7803 -34 -88.0303 -50 -154.03 -50c-137 0 -185.88 72 -162.27 240l37.9502 270h148l-37.9502 -270c-13.0703 -93 7.44922 -132 69.4492 -132c61 0 97.0596 36 108.869 120l40.6299 282h147l-70.2695 -500h-116zM273.311 728
c60 0 82.6289 -24 74.4785 -82c-8.00977 -57 -37.5195 -82 -97.5195 -82c-61 0 -82.6299 24 -74.4795 82s36.5205 82 97.5205 82zM493.31 728c61 0 83.6289 -24 75.4785 -82c-8.00977 -57 -38.5195 -82 -98.5195 -82s-82.6299 24 -74.4795 82s37.5205 82 97.5205 82z" />
  </g>

</svg>
