<?xml version="1.0" standalone="no"?>
<!DOCTYPE svg PUBLIC "-//W3C//DTD SVG 1.1//EN" "http://www.w3.org/Graphics/SVG/1.1/DTD/svg11.dtd" >
<svg xmlns="http://www.w3.org/2000/svg" xmlns:xlink="http://www.w3.org/1999/xlink" version="1.1" viewBox="-10 0 669 1000">
  <g transform="matrix(1 0 0 -1 0 800)">
   <path fill="currentColor"
d="M363 743l-4 -44l-87 -11l-82 -636l234 6l76 174l60 -10l-49 -222h-504l4 41l71 12l80 635l-67 11l5 44h263zM542 457q21 23 50 23q27 0 42 -16t15 -40q0 -38 -22.5 -60t-53.5 -22q-22 0 -37 15.5t-15 41.5q0 35 21 58z" />
  </g>

</svg>
