<?xml version="1.0" standalone="no"?>
<!DOCTYPE svg PUBLIC "-//W3C//DTD SVG 1.1//EN" "http://www.w3.org/Graphics/SVG/1.1/DTD/svg11.dtd" >
<svg xmlns="http://www.w3.org/2000/svg" xmlns:xlink="http://www.w3.org/1999/xlink" version="1.1" viewBox="-10 0 590 1000">
  <g transform="matrix(1 0 0 -1 0 800)">
   <path fill="currentColor"
d="M76 370.5q38 85.5 111 141.5t171 56q23 0 52 -5.5t53 -12.5l61 17l-64 -473q-1 -4 -1 -11q0 -15 5.5 -22t14.5 -7q16 0 44 25l14 -26q-5 -9 -18.5 -22t-31.5 -24q-81 -63 -81 -104q-1 -39 30 -39q33 0 73 32l12 -41q-24 -23 -58 -38t-75 -15q-37 0 -56 18.5t-19 46.5
q0 12 5 28t13 28q25 39 70 71q-41 10 -40 60l4 29q-32 -39 -74.5 -66t-91.5 -27q-81 0 -121 57.5t-40 151.5q0 86 38 171.5zM169.5 95.5q21.5 -39.5 63.5 -39.5q35 0 70.5 26.5t60.5 60.5l47 354q-26 16 -64 16q-64 0 -109 -47t-67.5 -117.5t-22.5 -141.5q0 -72 21.5 -111.5
z" />
  </g>

</svg>
