<?xml version="1.0" standalone="no"?>
<!DOCTYPE svg PUBLIC "-//W3C//DTD SVG 1.1//EN" "http://www.w3.org/Graphics/SVG/1.1/DTD/svg11.dtd" >
<svg xmlns="http://www.w3.org/2000/svg" xmlns:xlink="http://www.w3.org/1999/xlink" version="1.1" viewBox="-10 0 590 1000">
  <g transform="matrix(1 0 0 -1 0 800)">
   <path fill="currentColor"
d="M459 83q0 -15 5.5 -22t14.5 -7q16 0 44 25l14 -26q-11 -18 -41.5 -40.5t-68.5 -22.5q-31 0 -49 15.5t-17 48.5l4 29q-32 -39 -74.5 -66t-91.5 -27q-81 0 -121 57.5t-40 151.5q0 86 38 171.5t111 141.5t171 56q23 0 52 -5.5t53 -12.5l61 17l-64 -473q-1 -4 -1 -11z
M347 513q-64 0 -109 -47t-67.5 -117.5t-22.5 -141.5q0 -72 21.5 -111.5t63.5 -39.5q35 0 70.5 26.5t60.5 60.5l47 354q-26 16 -64 16zM266 679.5q-37 30.5 -37 84.5q0 50 26 83t66.5 48.5t83.5 15.5q63 0 100 -30t37 -82q0 -49 -24.5 -83t-63.5 -50.5t-84 -16.5
q-67 0 -104 30.5zM449 716q29 22 29 72q0 34 -23 56t-58 22q-42 0 -72 -23.5t-30 -70.5q0 -33 23.5 -55.5t58.5 -22.5q43 0 72 22z" />
  </g>

</svg>
