<?xml version="1.0" standalone="no"?>
<!DOCTYPE svg PUBLIC "-//W3C//DTD SVG 1.1//EN" "http://www.w3.org/Graphics/SVG/1.1/DTD/svg11.dtd" >
<svg xmlns="http://www.w3.org/2000/svg" xmlns:xlink="http://www.w3.org/1999/xlink" version="1.1" viewBox="-10 0 526 1000">
  <g transform="matrix(1 0 0 -1 0 800)">
   <path fill="currentColor"
d="M207 -5q-67 13 -103.5 70.5t-36.5 151.5q0 73 28 147t83 128.5t131 69.5l23 121h63l-22 -116q25 -1 59 -9.5t56 -18.5l-28 -105l-29 1q-14 30 -37.5 49t-53.5 19q-46 0 -83.5 -35t-58.5 -98t-21 -144q0 -167 106 -167q42 0 72 15t64 46l21 -38q-24 -31 -68 -58.5
t-104 -32.5l-24 -109h-62z" />
  </g>

</svg>
