<?xml version="1.0" standalone="no"?>
<!DOCTYPE svg PUBLIC "-//W3C//DTD SVG 1.1//EN" "http://www.w3.org/Graphics/SVG/1.1/DTD/svg11.dtd" >
<svg xmlns="http://www.w3.org/2000/svg" xmlns:xlink="http://www.w3.org/1999/xlink" version="1.1" viewBox="-10 0 528 1000">
  <g transform="matrix(1 0 0 -1 0 800)">
   <path fill="currentColor"
d="M173 -190q-19 21 -19 51q0 12 5 28t13 28q26 41 76 73q-66 -3 -113 24.5t-71 77.5t-24 112q0 98 39 181.5t106.5 133t150.5 49.5q72 0 108.5 -34t36.5 -90q0 -72 -56 -120.5t-133 -72.5t-139 -25q-4 -71 23.5 -121t87.5 -50q45 0 87.5 21.5t77.5 58.5l23 -39
q-16 -23 -44 -46.5t-65 -39.5q-41 -30 -69.5 -62.5t-28.5 -57.5q-1 -22 8.5 -29t26.5 -7q33 0 73 32l12 -41q-25 -24 -59 -40t-75 -16q-39 0 -58 21zM254.5 296.5q52.5 19.5 87.5 56t35 83.5q0 38 -17 58t-48 20q-45 0 -79.5 -37t-54.5 -92.5t-24 -109.5q48 2 100.5 21.5z
" />
  </g>

</svg>
