<?xml version="1.0" standalone="no"?>
<!DOCTYPE svg PUBLIC "-//W3C//DTD SVG 1.1//EN" "http://www.w3.org/Graphics/SVG/1.1/DTD/svg11.dtd" >
<svg xmlns="http://www.w3.org/2000/svg" xmlns:xlink="http://www.w3.org/1999/xlink" version="1.1" viewBox="-10 0 1188 1000">
  <g transform="matrix(1 0 0 -1 0 800)">
   <path fill="currentColor"
d="M173 310q55 0 100 17.5t71.5 49t26.5 72.5q0 35 -23.5 53t-69.5 18q-35 0 -65.5 -9t-50.5 -18l-32 26l64 249h314l-12 -67h-243l-48 -153q19 10 57.5 19.5t74.5 9.5q138 0 138 -106q0 -16 -3 -33q-9 -52 -45.5 -93t-97.5 -64t-141 -23q-60 0 -92 9l16 48q19 -5 61 -5z
M847 747l-373 -747h-74l373 747h74zM776.5 22.5q-49.5 31.5 -49.5 92.5q1 49 33.5 86t81.5 56q-27 21 -42 45.5t-15 57.5q0 47 25 82t67.5 54t92.5 19q64 0 103 -31.5t39 -77.5q0 -42 -29 -78t-73 -59q40 -24 63.5 -52t23.5 -66q0 -48 -28 -84.5t-74 -56t-99 -19.5
q-70 0 -119.5 31.5zM890.5 333q26.5 -20 79.5 -44q30 19 50 48.5t20 60.5q0 33 -21 52.5t-56 19.5q-42 0 -71 -25.5t-29 -61.5q1 -30 27.5 -50zM981 173q-25 21 -75 46q-10 6 -30 16q-30 -15 -49 -44.5t-19 -63.5q0 -41 24 -65t68 -24q40 0 73 25.5t33 59.5q0 29 -25 50z
" />
  </g>

</svg>
