<?xml version="1.0" standalone="no"?>
<!DOCTYPE svg PUBLIC "-//W3C//DTD SVG 1.1//EN" "http://www.w3.org/Graphics/SVG/1.1/DTD/svg11.dtd" >
<svg xmlns="http://www.w3.org/2000/svg" xmlns:xlink="http://www.w3.org/1999/xlink" version="1.1" viewBox="-10 0 583 1000">
  <g transform="matrix(1 0 0 -1 0 800)">
   <path fill="currentColor"
d="M390 -160.5q-43 -47.5 -101.5 -68.5t-118.5 -21q-31 0 -65.5 6t-50.5 13l21 84q22 -12 58 -23.5t71 -11.5q63 0 93 24.5t39 90.5l18 130q-28 -32 -66.5 -52.5t-84.5 -20.5q-83 0 -124.5 57.5t-41.5 151.5q0 86 38.5 171.5t111.5 141.5t171 56q27 0 57.5 -6.5t52.5 -15.5
l65 22l-90 -606q-10 -75 -53 -122.5zM346 513q-66 0 -111 -48t-67 -119.5t-22 -140.5q0 -70 23.5 -109.5t65.5 -39.5q38 0 73 23.5t56 53.5l53 361q-26 19 -71 19zM392 836l88 -96l16 -88l-90 60l-131 -28l-74 -31l77 107z" />
  </g>

</svg>
