<?xml version="1.0" standalone="no"?>
<!DOCTYPE svg PUBLIC "-//W3C//DTD SVG 1.1//EN" "http://www.w3.org/Graphics/SVG/1.1/DTD/svg11.dtd" >
<svg xmlns="http://www.w3.org/2000/svg" xmlns:xlink="http://www.w3.org/1999/xlink" version="1.1" viewBox="-149 0 186 1000">
  <g transform="matrix(1 0 0 -1 0 800)">
   <path fill="currentColor"
d="M-134 642q-4 13 -3 22q3 12 11.5 19.5t25.5 17.5q18 12 26.5 18.5t13.5 18.5v4q3 17 -8 30t-38 14h-8q-17 0 -25 -2l11 68q2 2 17 4.5t26 2.5q52 0 82 -21.5t30 -61.5q0 -7 -2 -23q-5 -25 -22 -41t-46 -34l-20 -12q-9 -8 -13.5 -16.5t-3.5 -22.5l-44 -6q-6 8 -10 21z" />
  </g>

</svg>
