<?xml version="1.0" standalone="no"?>
<!DOCTYPE svg PUBLIC "-//W3C//DTD SVG 1.1//EN" "http://www.w3.org/Graphics/SVG/1.1/DTD/svg11.dtd" >
<svg xmlns="http://www.w3.org/2000/svg" xmlns:xlink="http://www.w3.org/1999/xlink" version="1.1" viewBox="-10 0 326 1000">
  <g transform="matrix(1 0 0 -1 0 800)">
   <path fill="currentColor"
d="M262.5 789.5q16.5 -16.5 16.5 -40.5q-1 -32 -21 -54t-52 -22q-23 0 -39 17t-16 41q0 31 20 53t49 22q26 0 42.5 -16.5zM181 79q0 -12 4.5 -18.5t11.5 -6.5q11 0 22.5 6.5t28.5 22.5l13 -26q-8 -11 -24 -26.5t-36 -25.5q-50 -34 -77.5 -61t-27.5 -52q-1 -20 8 -30t25 -10
q36 0 76 34l13 -44q-60 -56 -136 -56q-39 0 -60.5 20.5t-21.5 50.5q0 26 18 57q20 27 43.5 45.5t52.5 33.5q-23 6 -33.5 22t-7.5 45q3 35 25 175l35 250l-62 24l7 35l148 23l23 -11l-67 -467z" />
  </g>

</svg>
