<?xml version="1.0" standalone="no"?>
<!DOCTYPE svg PUBLIC "-//W3C//DTD SVG 1.1//EN" "http://www.w3.org/Graphics/SVG/1.1/DTD/svg11.dtd" >
<svg xmlns="http://www.w3.org/2000/svg" xmlns:xlink="http://www.w3.org/1999/xlink" version="1.1" viewBox="-14 0 704 1000">
  <g transform="matrix(1 0 0 -1 0 800)">
   <path fill="currentColor"
d="M6.5 -0.5q-10.5 8.5 -10.5 26.5q0 16 17 33.5t44 29t56 11.5q17 17 28.5 58.5t27.5 135.5h-110l6 51h113l17 101h-106l5 51h109q14 70 52 129t94.5 94.5t123.5 35.5q52 0 84 -8.5t55 -30.5l-47 -82q-11 18 -42.5 38t-74.5 20q-52 0 -87.5 -46t-52.5 -150h138l-5 -51h-142
l-11 -63l-7 -38h136l-6 -51h-139q-12 -73 -33 -115.5t-55 -92.5q24 -5 46 -12q45 -12 79.5 -19t70.5 -7q160 0 160 113q0 26 -13.5 49t-31.5 37l69 63q34 -24 56 -60t22 -81q-1 -77 -58.5 -128.5t-181.5 -51.5q-62 0 -112.5 13t-113.5 37l-28 11q-17 -20 -52 -39.5
t-62 -19.5q-17 0 -27.5 8.5z" />
  </g>

</svg>
