<?xml version="1.0" standalone="no"?>
<!DOCTYPE svg PUBLIC "-//W3C//DTD SVG 1.1//EN" "http://www.w3.org/Graphics/SVG/1.1/DTD/svg11.dtd" >
<svg xmlns="http://www.w3.org/2000/svg" xmlns:xlink="http://www.w3.org/1999/xlink" version="1.1" viewBox="-10 0 578 1000">
  <g transform="matrix(1 0 0 -1 0 800)">
   <path fill="currentColor"
d="M511.5 451.5q18.5 -48.5 18.5 -113.5q0 -91 -36.5 -171t-102.5 -128.5t-151 -48.5q-58 0 -104 22l-51 -77l-38 21l54 81q-32 30 -49 76.5t-17 105.5q0 92 36.5 172.5t103 129t151.5 48.5q54 0 93 -18l53 82l38 -22l-53 -82q36 -29 54.5 -77.5zM311 513q-52 0 -89 -44
t-55.5 -111t-18.5 -137q0 -59 18 -92l208 355q-23 29 -63 29zM257 43q51 0 87.5 44.5t54.5 112.5t18 137q0 70 -23 104l-211 -358q27 -40 74 -40z" />
  </g>

</svg>
