<?xml version="1.0" standalone="no"?>
<!DOCTYPE svg PUBLIC "-//W3C//DTD SVG 1.1//EN" "http://www.w3.org/Graphics/SVG/1.1/DTD/svg11.dtd" >
<svg xmlns="http://www.w3.org/2000/svg" xmlns:xlink="http://www.w3.org/1999/xlink" version="1.1" viewBox="-10 0 943 1000">
  <g transform="matrix(1 0 0 -1 0 800)">
   <path fill="currentColor"
d="M733 747l-463 -747h-76l462 747h77zM128 406q-37 43 -37 109q0 52 27 100.5t74 78.5t104 30q70 0 105.5 -39.5t35.5 -105.5q0 -54 -26 -104t-72.5 -81t-106.5 -31q-67 0 -104 43zM304 434q25 27 37.5 66.5t12.5 75.5q0 49 -17 76.5t-53 27.5q-35 0 -61 -26t-39 -64
t-13 -74q0 -50 18 -79.5t55 -29.5q35 0 60 27zM530 283.5q27 48.5 74 78.5t104 30q71 0 106.5 -39.5t35.5 -105.5q0 -54 -26 -104.5t-73 -81.5t-107 -31q-67 0 -104 43t-37 110q0 52 27 100.5zM601 105.5q18 -29.5 54 -29.5q35 0 60 27t37.5 66t12.5 74q0 50 -17 77t-52 27
t-60.5 -25.5t-39 -63.5t-13.5 -74q0 -49 18 -78.5z" />
  </g>

</svg>
