<?xml version="1.0" standalone="no"?>
<!DOCTYPE svg PUBLIC "-//W3C//DTD SVG 1.1//EN" "http://www.w3.org/Graphics/SVG/1.1/DTD/svg11.dtd" >
<svg xmlns="http://www.w3.org/2000/svg" xmlns:xlink="http://www.w3.org/1999/xlink" version="1.1" viewBox="-10 0 491 1000">
  <g transform="matrix(1 0 0 -1 0 800)">
   <path fill="currentColor"
d="M225.5 529q41.5 64 50.5 128q3 24 3 43q0 48 -17.5 74.5t-51.5 26.5q-27 0 -48.5 -17t-27.5 -53q-1 -5 -1 -15q0 -24 12.5 -37t30.5 -13q5 0 13 2q4 -11 4 -25q0 -15 -2 -26q-5 -41 -30.5 -84.5t-53.5 -60.5l-1 -16l20 -22q58 31 99.5 95zM416.5 529.5
q42.5 64.5 51.5 127.5q3 23 3 43q0 48 -18 74.5t-51 26.5q-27 0 -49 -17.5t-28 -52.5q-1 -5 -1 -13q0 -25 13 -38.5t31 -13.5q5 0 13 2q4 -11 4 -25q0 -15 -2 -26q-5 -41 -31 -84.5t-53 -60.5l-2 -16l20 -22q57 31 99.5 95.5z" />
  </g>

</svg>
