<?xml version="1.0" standalone="no"?>
<!DOCTYPE svg PUBLIC "-//W3C//DTD SVG 1.1//EN" "http://www.w3.org/Graphics/SVG/1.1/DTD/svg11.dtd" >
<svg xmlns="http://www.w3.org/2000/svg" xmlns:xlink="http://www.w3.org/1999/xlink" version="1.1" viewBox="-10 0 491 1000">
  <g transform="matrix(1 0 0 -1 0 800)">
   <path fill="currentColor"
d="M249.5 491.5q26.5 32.5 63.5 54t78 21.5q24 0 32 -7l-23 -115q-15 11 -49 11q-41 0 -81.5 -25.5t-61.5 -71.5l-47 -359h-103l63 481l-51 25l8 38l123 23l21 -12l-7 -90l-4 -39q12 33 38.5 65.5zM173 835l104 -122l158 122l36 -25l-165 -172h-73l-101 172z" />
  </g>

</svg>
