<?xml version="1.0" standalone="no"?>
<!DOCTYPE svg PUBLIC "-//W3C//DTD SVG 1.1//EN" "http://www.w3.org/Graphics/SVG/1.1/DTD/svg11.dtd" >
<svg xmlns="http://www.w3.org/2000/svg" xmlns:xlink="http://www.w3.org/1999/xlink" version="1.1" viewBox="-10 0 1059 1000">
  <g transform="matrix(1 0 0 -1 0 800)">
   <path fill="currentColor"
d="M186.5 704.5q56.5 97.5 154 154t213.5 56.5q117 0 214 -56.5t153.5 -154t56.5 -214.5t-56.5 -215.5t-153.5 -155.5t-214 -57q-116 0 -213.5 57t-154 155.5t-56.5 215.5t56.5 214.5zM240 303q48 -86 131 -136.5t183 -50.5t183 50.5t131 136.5t48 187t-48 186.5t-131 135.5
t-183 50q-101 0 -184 -50.5t-130.5 -136t-47.5 -185.5q0 -101 48 -187zM402 666l-43 11v47h83q25 -1 64 1l58 1q90 0 135.5 -33t45.5 -91q0 -54 -27.5 -92t-78.5 -49q33 -14 48.5 -36.5t30.5 -59.5q13 -32 24.5 -47.5t36.5 -16.5v-47h-83q-27 0 -39.5 20t-25.5 63
q-12 44 -26 69t-43 36l-72 1v-137l50 -10v-42h-181v42l43 12v358zM565 497q34 0 58 27t24 64q0 46 -23.5 66t-72.5 20q-38 0 -61 -5v-169q16 -3 75 -3z" />
  </g>

</svg>
