<?xml version="1.0" standalone="no"?>
<!DOCTYPE svg PUBLIC "-//W3C//DTD SVG 1.1//EN" "http://www.w3.org/Graphics/SVG/1.1/DTD/svg11.dtd" >
<svg xmlns="http://www.w3.org/2000/svg" xmlns:xlink="http://www.w3.org/1999/xlink" version="1.1" viewBox="-10 0 496 1000">
  <g transform="matrix(1 0 0 -1 0 800)">
   <path fill="currentColor"
d="M339.5 496q-30.5 14 -69.5 14q-45 0 -72 -19.5t-27 -56.5q0 -32 22 -58.5t65 -57.5q35 -26 57 -46.5t38 -51t16 -68.5q0 -52 -28 -88.5t-75.5 -55t-103.5 -18.5q-45 0 -90 10t-59 22l17 73q20 -16 57 -30t77 -14q42 0 72 18t30 59q0 35 -24 60t-71 58q-102 71 -102 164
q0 47 26.5 83t72.5 55.5t102 19.5q36 0 73.5 -6.5t52.5 -12.5l-17 -79q-9 12 -39.5 26zM178 835l104 -122l158 122l36 -25l-165 -172h-73l-101 172z" />
  </g>

</svg>
