<?xml version="1.0" standalone="no"?>
<!DOCTYPE svg PUBLIC "-//W3C//DTD SVG 1.1//EN" "http://www.w3.org/Graphics/SVG/1.1/DTD/svg11.dtd" >
<svg xmlns="http://www.w3.org/2000/svg" xmlns:xlink="http://www.w3.org/1999/xlink" version="1.1" viewBox="-10 0 1062 1000">
  <g transform="matrix(1 0 0 -1 0 800)">
   <path fill="currentColor"
d="M176 414l43 303l-94 -5l-29 -72l-31 -1l25 122h341l-15 -121l-31 -2l-2 74l-92 6l-43 -303l70 -8l-5 -35h-210l4 35zM476 414l57 303l-50 4l5 40h154l55 -225l18 -71l143 296h151l-5 -40l-52 -4l-14 -303l52 -7l-4 -35h-174l4 35l53 7l12 190l10 113l-20 -38l-152 -311
h-49l-72 273l-21 78l-13 -81l-41 -224l51 -7l-5 -35h-152l5 35z" />
  </g>

</svg>
