<?xml version="1.0" standalone="no"?>
<!DOCTYPE svg PUBLIC "-//W3C//DTD SVG 1.1//EN" "http://www.w3.org/Graphics/SVG/1.1/DTD/svg11.dtd" >
<svg xmlns="http://www.w3.org/2000/svg" xmlns:xlink="http://www.w3.org/1999/xlink" version="1.1" viewBox="-10 0 949 1000">
  <g transform="matrix(1 0 0 -1 0 800)">
   <path fill="currentColor"
d="M314 532q54 36 111 36t87.5 -34t30.5 -111q0 -37 -19 -140l-6 -36l-5 -29q-18 -87 -19 -132v-6q0 -26 13 -26q20 0 47 24l13 -27q-12 -17 -44 -39t-73 -22q-67 0 -67 63q0 31 19 130l7 37l4 24q22 117 22 169q-1 46 -14 63t-45 17q-38 0 -85.5 -38.5t-81.5 -94.5
l-48 -360h-103l64 482l-50 25l8 38l130 23l21 -11l-12 -118q41 57 95 93zM737.5 -187.5q-58.5 -67.5 -145.5 -67.5q-26 0 -48.5 5t-31.5 13l16 44q9 -3 22 -5t23 -2q63 0 92.5 60.5t42.5 168.5l52 460l-73 21l8 34l159 23l22 -11l-66 -555q-14 -121 -72.5 -188.5zM790.5 690
q-16.5 17 -16.5 41q0 31 21.5 53t50.5 22q27 0 42 -16.5t15 -40.5q-1 -32 -21 -54t-52 -22q-23 0 -39.5 17z" />
  </g>

</svg>
