<?xml version="1.0" standalone="no"?>
<!DOCTYPE svg PUBLIC "-//W3C//DTD SVG 1.1//EN" "http://www.w3.org/Graphics/SVG/1.1/DTD/svg11.dtd" >
<svg xmlns="http://www.w3.org/2000/svg" xmlns:xlink="http://www.w3.org/1999/xlink" version="1.1" viewBox="-10 0 838 1000">
  <g transform="matrix(1 0 0 -1 0 800)">
   <path fill="currentColor"
d="M557 554.5q32 13.5 69 13.5q82 0 123 -58t41 -152q0 -86 -36 -171.5t-104.5 -141t-162.5 -55.5q-27 0 -60 12l-22 -156q-1 -4 -1 -12q0 -12 4.5 -18t11.5 -6q11 0 22.5 6.5t28.5 23.5l13 -27q-13 -20 -44 -43t-72 -23q-33 0 -52.5 15t-17.5 46l34 235q-25 -23 -59.5 -38
t-74.5 -15q-81 0 -121 57.5t-40 151.5q0 87 36 172.5t105 141t164 55.5q33 0 65 -15l26 181l-61 18l9 36l139 18l22 -13l-40 -273q23 21 55 34.5zM330 514q-60 0 -102 -48t-62 -119.5t-20 -141.5t22 -110t62 -40q34 0 63.5 15.5t48.5 37.5l56 382q-24 24 -68 24zM498 44
q60 0 101.5 48.5t61.5 120t20 140.5q0 71 -23 110.5t-64 39.5q-53 0 -101 -46l-57 -395q24 -18 62 -18z" />
  </g>

</svg>
