<?xml version="1.0" standalone="no"?>
<!DOCTYPE svg PUBLIC "-//W3C//DTD SVG 1.1//EN" "http://www.w3.org/Graphics/SVG/1.1/DTD/svg11.dtd" >
<svg xmlns="http://www.w3.org/2000/svg" xmlns:xlink="http://www.w3.org/1999/xlink" version="1.1" viewBox="-34 0 557 1000">
  <g transform="matrix(1 0 0 -1 0 800)">
   <path fill="currentColor"
d="M104.5 493q-8.5 9 -20.5 9q-13 0 -25 -6t-20 -15l-17 29q11 16 43 36.5t73 20.5q34 0 52 -13t27 -38l48 -162l144 209h104l-216 -277q52 -101 74.5 -170.5t22.5 -130.5q0 -13 -2 -37q-5 -74 -50 -127.5t-122 -80.5l-21 49q50 16 75 51t29 91q2 24 2 36q0 108 -71 251
l-151 -218h-107l225 287l-81 181q-7 16 -15.5 25z" />
  </g>

</svg>
