<?xml version="1.0" standalone="no"?>
<!DOCTYPE svg PUBLIC "-//W3C//DTD SVG 1.1//EN" "http://www.w3.org/Graphics/SVG/1.1/DTD/svg11.dtd" >
<svg xmlns="http://www.w3.org/2000/svg" xmlns:xlink="http://www.w3.org/1999/xlink" version="1.1" viewBox="-90 0 316 1000">
  <g transform="matrix(1 0 0 -1 0 800)">
   <path fill="currentColor"
d="M40 806q0 15 9.5 25t28.5 21q14 9 22 16t10 16q6 35 -46 39q-10 0 -21.5 -1.5t-14.5 -3.5l8 58q2 3 19 5t28 2q47 0 74 -18.5t27 -53.5q0 -29 -14 -45.5t-43 -36.5q-7 -4 -21 -14q-20 -14 -16 -37h-40q-10 10 -10 28zM-44 672.5q-36 27.5 -36 77.5q0 12 1 19q1 13 7 28
h54l-3 -18q-3 -58 82 -58q45 0 68 14.5t30 42.5q3 11 3 19h54q0 -7 -2 -27q-9 -58 -57.5 -91.5t-107.5 -33.5q-57 0 -93 27.5z" />
  </g>

</svg>
