<?xml version="1.0" standalone="no"?>
<!DOCTYPE svg PUBLIC "-//W3C//DTD SVG 1.1//EN" "http://www.w3.org/Graphics/SVG/1.1/DTD/svg11.dtd" >
<svg xmlns="http://www.w3.org/2000/svg" xmlns:xlink="http://www.w3.org/1999/xlink" version="1.1" viewBox="-103 0 522 1000">
  <g transform="matrix(1 0 0 -1 0 800)">
   <path fill="currentColor"
d="M272 816q2 13 10.5 21t23.5 17q16 9 24 17.5t8 23.5q0 13 -9 23t-30 10q-10 0 -21.5 -2.5t-17.5 -6.5l6 57q2 3 19.5 5t29.5 2q94 0 94 -65q0 -32 -13.5 -49t-40.5 -35q-20 -14 -22 -16q-13 -12 -12 -31l-39 -8q-12 24 -10 37zM140 941l103 -130l-43 -36l-116 91
l-145 -92l-32 37l145 130h88z" />
  </g>

</svg>
