<?xml version="1.0" standalone="no"?>
<!DOCTYPE svg PUBLIC "-//W3C//DTD SVG 1.1//EN" "http://www.w3.org/Graphics/SVG/1.1/DTD/svg11.dtd" >
<svg xmlns="http://www.w3.org/2000/svg" xmlns:xlink="http://www.w3.org/1999/xlink" version="1.1" viewBox="-10 0 1038 1000">
  <g transform="matrix(1 0 0 -1 0 800)">
   <path fill="currentColor"
d="M270 743l-3 -44l-82 -11l57 -463l17 -130l40 112l164 411l-8 70l-71 11l4 44h265l-7 -44l-82 -11l46 -463l8 -130l46 119l201 473l-88 12l5 44h236l-6 -44l-71 -11l-308 -693h-103l-51 500l-201 -500h-102l-100 692l-69 12l5 44h258z" />
  </g>

</svg>
