<?xml version="1.0" standalone="no"?>
<!DOCTYPE svg PUBLIC "-//W3C//DTD SVG 1.1//EN" "http://www.w3.org/Graphics/SVG/1.1/DTD/svg11.dtd" >
<svg xmlns="http://www.w3.org/2000/svg" xmlns:xlink="http://www.w3.org/1999/xlink" version="1.1" viewBox="-10 0 453 1000">
  <g transform="matrix(1 0 0 -1 0 800)">
   <path fill="currentColor"
d="M261.5 27.5q-11.5 27.5 -27.5 84.5q-11 41 -20 68t-20 46q-21 -3 -41 -3q-21 0 -126 5l7 53q22 -1 104 -1q80 0 121.5 34.5t41.5 108.5q0 42 -29.5 66.5t-95.5 24.5q-51 0 -117 -9l7 54q8 1 55.5 6t76.5 5q111 0 159.5 -36t48.5 -103q0 -72 -34.5 -119.5t-96.5 -69.5
q13 -20 35 -78q17 -47 31 -74t34 -35l43 -5q-11 -59 -33 -146l-13 -54l-58 1q5 90 5 119q0 21 -1 30h-29q-16 0 -27.5 27.5z" />
  </g>

</svg>
