<?xml version="1.0" standalone="no"?>
<!DOCTYPE svg PUBLIC "-//W3C//DTD SVG 1.1//EN" "http://www.w3.org/Graphics/SVG/1.1/DTD/svg11.dtd" >
<svg xmlns="http://www.w3.org/2000/svg" xmlns:xlink="http://www.w3.org/1999/xlink" version="1.1" viewBox="-10 0 560 1000">
  <g transform="matrix(1 0 0 -1 0 800)">
   <path fill="currentColor"
d="M231 598l-81 -598h-104l79 598h-80l8 46h78l12 90l-58 18l7 36l142 18l22 -13l-20 -149h105l-8 -46h-102zM540 59q-15 -23 -51.5 -46t-76.5 -23q-54 0 -82 55l-131 253q21 15 41 26q51 33 80 56t55 58q23 31 27 77q2 27 20 40t41 13q21 0 34.5 -13.5t13.5 -34.5
q1 -34 -23 -68q-28 -38 -80.5 -73.5t-116.5 -70.5l125 -201q14 -21 29 -33.5t27 -12.5q10 0 25 7t29 19z" />
  </g>

</svg>
