<?xml version="1.0" standalone="no"?>
<!DOCTYPE svg PUBLIC "-//W3C//DTD SVG 1.1//EN" "http://www.w3.org/Graphics/SVG/1.1/DTD/svg11.dtd" >
<svg xmlns="http://www.w3.org/2000/svg" xmlns:xlink="http://www.w3.org/1999/xlink" version="1.1" viewBox="-10 0 563 1000">
  <g transform="matrix(1 0 0 -1 0 800)">
   <path fill="currentColor"
d="M397.5 295q34.5 74 34.5 143q0 14 -8 40q-8 28 -8 39q0 23 13.5 36.5t38.5 13.5q30 0 46.5 -26t16.5 -68q0 -137 -178 -360l-30 -37q-31 -37 -41 -51l-36 -173q-2 -12 -2 -17q0 -25 20 -25q13 0 27 8.5t33 25.5l13 -27q-7 -10 -25 -26.5t-45.5 -30t-58.5 -13.5
q-34 0 -52.5 15t-18.5 42q0 6 2 18l47 200l-105 446q-4 17 -9.5 24t-13.5 7q-18 0 -42 -23l-12 30q11 17 41.5 39t65.5 22t52.5 -17t23.5 -50l61 -325l14 -93l47 63q54 76 88.5 150z" />
  </g>

</svg>
