<?xml version="1.0" standalone="no"?>
<!DOCTYPE svg PUBLIC "-//W3C//DTD SVG 1.1//EN" "http://www.w3.org/Graphics/SVG/1.1/DTD/svg11.dtd" >
<svg xmlns="http://www.w3.org/2000/svg" xmlns:xlink="http://www.w3.org/1999/xlink" version="1.1" viewBox="-84 0 332 1000">
  <g transform="matrix(1 0 0 -1 0 800)">
   <path fill="currentColor"
d="M-35 784.5q-39 27.5 -39 77.5q0 41 26.5 68.5t67 40t81.5 12.5q61 0 99 -25t38 -70q0 -65 -51 -98t-119 -33q-64 0 -103 27.5zM143.5 820q28.5 19 28.5 62q0 27 -22.5 42t-56.5 15q-42 0 -72 -17t-30 -55q0 -30 23 -48t59 -18q42 0 70.5 19z" />
  </g>

</svg>
