<?xml version="1.0" standalone="no"?>
<!DOCTYPE svg PUBLIC "-//W3C//DTD SVG 1.1//EN" "http://www.w3.org/Graphics/SVG/1.1/DTD/svg11.dtd" >
<svg xmlns="http://www.w3.org/2000/svg" xmlns:xlink="http://www.w3.org/1999/xlink" version="1.1" viewBox="-23 0 963 1000">
  <g transform="matrix(1 0 0 -1 0 800)">
   <path fill="currentColor"
d="M639 -216q22 7 41 27.5t19 43.5q0 13 -6 31q-7 23 -7 39q0 38 44 67q-54 10 -85 66t-31 148q0 33 4 58h-106l-33 -264h-104l33 264h-112q-15 -72 -50.5 -135t-86.5 -101t-108 -38q-42 0 -64 17l33 88l53 -47q29 0 59.5 35.5t50.5 98.5t20 140q0 79 -21.5 120.5
t-54.5 41.5q-26 0 -47 -12.5t-46 -38.5l-22 28q24 36 63 67.5t90 31.5q64 0 101.5 -57t37.5 -159q0 -23 -1 -33h111l30 243h104l-31 -243h110q18 67 53.5 124t84 91t102.5 34q44 0 63 -18l-32 -87l-53 47q-29 0 -60 -35.5t-51 -98.5t-20 -140q0 -79 21.5 -120.5t55.5 -41.5
q26 0 47.5 12.5t46.5 38.5l21 -29q-43 -62 -97 -86q-18 -10 -29.5 -21.5t-11.5 -28.5q0 -13 9 -35q11 -31 11 -48q0 -36 -39.5 -71t-84.5 -45z" />
  </g>

</svg>
