<?xml version="1.0" standalone="no"?>
<!DOCTYPE svg PUBLIC "-//W3C//DTD SVG 1.1//EN" "http://www.w3.org/Graphics/SVG/1.1/DTD/svg11.dtd" >
<svg xmlns="http://www.w3.org/2000/svg" xmlns:xlink="http://www.w3.org/1999/xlink" version="1.1" viewBox="-10 0 867 1000">
  <g transform="matrix(1 0 0 -1 0 800)">
   <path fill="currentColor"
d="M584 322q33 -52 77 -138q33 -64 51.5 -93.5t31.5 -34.5l38 -12l-5 -44h-125q-17 0 -39 38.5t-57 116.5q-40 90 -68.5 138.5t-53.5 48.5h-61l-37 -289l79 -12l-3 -41h-260l5 41l70 12l83 642l-147 -3l-60 -201h-64l41 252h421l-5 -44l-79 -11l-37 -294h82l234 293l-75 12
l6 44h220l-6 -44l-71 -12l-250 -298q31 -15 64 -67z" />
  </g>

</svg>
