<?xml version="1.0" standalone="no"?>
<!DOCTYPE svg PUBLIC "-//W3C//DTD SVG 1.1//EN" "http://www.w3.org/Graphics/SVG/1.1/DTD/svg11.dtd" >
<svg xmlns="http://www.w3.org/2000/svg" xmlns:xlink="http://www.w3.org/1999/xlink" version="1.1" viewBox="-10 0 464 1000">
  <g transform="matrix(1 0 0 -1 0 800)">
   <path fill="currentColor"
d="M182 -213q-14 15 -12 40l63 70q2 18 2 26q0 35 -16 67q-10 0 -14 1q-81 3 -126 62t-45 163q0 82 34.5 163.5t102 135t159.5 53.5q29 0 61 -6t53 -16l-28 -105l-20 5q-57 57 -90 57q-46 0 -83 -35t-58 -97t-21 -142q0 -170 106 -170q42 0 72 15t64 46l21 -38
q-20 -26 -55.5 -51t-84.5 -36q41 -60 41 -116q0 -13 -1 -20q-7 -39 -29 -63t-55 -24q-27 0 -41 15z" />
  </g>

</svg>
