<?xml version="1.0" standalone="no"?>
<!DOCTYPE svg PUBLIC "-//W3C//DTD SVG 1.1//EN" "http://www.w3.org/Graphics/SVG/1.1/DTD/svg11.dtd" >
<svg xmlns="http://www.w3.org/2000/svg" xmlns:xlink="http://www.w3.org/1999/xlink" version="1.1" viewBox="-10 0 621 1000">
  <g transform="matrix(1 0 0 -1 0 800)">
   <path fill="currentColor"
d="M582 743l-8 -161h-63l-17 105l-221 8l-37 -278l231 10l-9 -80l-228 10l-39 -301l275 12l55 121l62 -10l-40 -179h-541l4 41l76 12l80 635l-68 11l5 44h483zM229.5 848.5q-14.5 15.5 -14.5 38.5q0 30 18.5 50.5t45.5 20.5q26 0 40 -15t14 -39q0 -31 -19 -51t-49 -20
q-21 0 -35.5 15.5zM447.5 849q-14.5 16 -14.5 40q0 30 19.5 49.5t45.5 19.5q24 0 38.5 -14.5t14.5 -37.5q0 -32 -18.5 -52.5t-48.5 -20.5q-22 0 -36.5 16z" />
  </g>

</svg>
