<?xml version="1.0" standalone="no"?>
<!DOCTYPE svg PUBLIC "-//W3C//DTD SVG 1.1//EN" "http://www.w3.org/Graphics/SVG/1.1/DTD/svg11.dtd" >
<svg xmlns="http://www.w3.org/2000/svg" xmlns:xlink="http://www.w3.org/1999/xlink" version="1.1" viewBox="-10 0 816 1000">
  <g transform="matrix(1 0 0 -1 0 800)">
   <path fill="currentColor"
d="M591 425q108 0 147.5 -53t39.5 -123q0 -54 -28 -113t-79.5 -98.5t-117.5 -39.5q-19 0 -35 2l3 42q9 -1 21 0.5t23 3.5q33 6 56.5 34.5t35.5 66t12 71.5q0 71 -29.5 108.5t-104.5 37.5q-41 0 -74.5 -9.5t-74.5 -25.5l-35 -275l93 -13l-3 -41h-310l5 41l107 13l82 642
l-163 -8l-58 -167h-63l41 222h648l-32 -222h-62v167l-203 8l-41 -317q102 46 199 46z" />
  </g>

</svg>
