<?xml version="1.0" standalone="no"?>
<!DOCTYPE svg PUBLIC "-//W3C//DTD SVG 1.1//EN" "http://www.w3.org/Graphics/SVG/1.1/DTD/svg11.dtd" >
<svg xmlns="http://www.w3.org/2000/svg" xmlns:xlink="http://www.w3.org/1999/xlink" version="1.1" viewBox="-10 0 326 1000">
  <g transform="matrix(1 0 0 -1 0 800)">
   <path fill="currentColor"
d="M181 79q0 -12 4.5 -18.5t11.5 -6.5q11 0 22.5 6.5t28.5 22.5l13 -26q-15 -21 -46 -44t-73 -23q-35 0 -53.5 16t-15.5 47q5 44 26 189q28 194 34 243l-62 24l7 35l148 23l23 -11l-67 -467zM169.5 690q-16.5 17 -16.5 41q0 31 21.5 53t50.5 22q27 0 42 -16.5t15 -40.5
q-1 -32 -21 -54t-52 -22q-23 0 -39.5 17zM54.5 -208.5q-15.5 16.5 -15.5 42.5q0 32 21 54t50 22q27 0 42 -16t15 -41q0 -32 -20.5 -55t-52.5 -23q-24 0 -39.5 16.5z" />
  </g>

</svg>
