<?xml version="1.0" standalone="no"?>
<!DOCTYPE svg PUBLIC "-//W3C//DTD SVG 1.1//EN" "http://www.w3.org/Graphics/SVG/1.1/DTD/svg11.dtd" >
<svg xmlns="http://www.w3.org/2000/svg" xmlns:xlink="http://www.w3.org/1999/xlink" version="1.1" viewBox="-10 0 723 1000">
  <g transform="matrix(1 0 0 -1 0 800)">
   <path fill="currentColor"
d="M547 710q58 -43 85.5 -115.5t27.5 -162.5q0 -122 -43 -222.5t-123 -160t-188 -59.5q-85 0 -143.5 41.5t-87 114t-28.5 164.5q0 123 44 224t125 160t187 59q86 0 144 -43zM272 650q-52 -50 -81 -137t-29 -192q0 -123 39.5 -201t116.5 -78q67 0 118.5 49.5t79.5 136.5
t28 196q0 128 -39 202t-115 74q-66 0 -118 -50zM611 874.5q-38 42.5 -55 71.5l53 37l94 -147l-27 -21q-27 17 -65 59.5zM481 950l103 -153l-42 -29l-113 108l-152 -108l-31 28l155 154h80z" />
  </g>

</svg>
