<?xml version="1.0" standalone="no"?>
<!DOCTYPE svg PUBLIC "-//W3C//DTD SVG 1.1//EN" "http://www.w3.org/Graphics/SVG/1.1/DTD/svg11.dtd" >
<svg xmlns="http://www.w3.org/2000/svg" xmlns:xlink="http://www.w3.org/1999/xlink" version="1.1" viewBox="-10 0 701 1000">
  <g transform="matrix(1 0 0 -1 0 800)">
   <path fill="currentColor"
d="M299 743l-6 -44l-88 -11l105 -272l23 -69l36 64l167 277l-78 11l5 44h218l-5 -44l-58 -11l-256 -399l-30 -236l112 -12l-4 -41h-332l4 41l113 12l30 236l-173 399l-60 11l4 44h273zM264 939.5q30 23.5 71 23.5q24 0 41 -10t38 -30q19 -17 31 -24.5t28 -7.5q25 0 43 14
t33 35l31 -37q-13 -32 -43 -58t-68 -26q-27 0 -44.5 10t-39.5 30q-19 17 -32 25t-31 8q-23 0 -39.5 -12t-33.5 -34l-29 36q14 34 44 57.5z" />
  </g>

</svg>
