<?xml version="1.0" standalone="no"?>
<!DOCTYPE svg PUBLIC "-//W3C//DTD SVG 1.1//EN" "http://www.w3.org/Graphics/SVG/1.1/DTD/svg11.dtd" >
<svg xmlns="http://www.w3.org/2000/svg" xmlns:xlink="http://www.w3.org/1999/xlink" version="1.1" viewBox="-10 0 699 1000">
  <g transform="matrix(1 0 0 -1 0 800)">
   <path fill="currentColor"
d="M547 710q58 -43 85.5 -115.5t27.5 -162.5q0 -122 -43 -222.5t-123 -160t-188 -59.5q-85 0 -143.5 41.5t-87 114t-28.5 164.5q0 123 44 224t125 160t187 59q86 0 144 -43zM272 650q-52 -50 -81 -137t-29 -192q0 -123 39.5 -201t116.5 -78q67 0 118.5 49.5t79.5 136.5
t28 196q0 128 -39 202t-115 74q-66 0 -118 -50zM308 1002q15 20 38 33.5t51 13.5q21 0 37.5 -8.5t36.5 -24.5q16 -13 27 -19.5t24 -6.5q23 0 34.5 8t30.5 29l30 -24q-12 -34 -43 -56.5t-70 -22.5q-18 0 -32.5 8t-35.5 23q-18 14 -30 20.5t-25 6.5q-16 0 -30 -10.5t-32 -30.5
l-29 23q3 18 18 38zM478 900l123 -92l-42 -39l-134 65l-159 -66l-25 40l151 92h86z" />
  </g>

</svg>
