<?xml version="1.0" standalone="no"?>
<!DOCTYPE svg PUBLIC "-//W3C//DTD SVG 1.1//EN" "http://www.w3.org/Graphics/SVG/1.1/DTD/svg11.dtd" >
<svg xmlns="http://www.w3.org/2000/svg" xmlns:xlink="http://www.w3.org/1999/xlink" version="1.1" viewBox="-58 0 587 1000">
  <g transform="matrix(1 0 0 -1 0 800)">
   <path fill="currentColor"
d="M73 492.5q-5 6.5 -14 6.5q-15 0 -36 -20l-13 29q11 16 41.5 37.5t64.5 21.5q35 0 50.5 -17t20.5 -50l55 -377l14 -124l64 126l14 29q44 91 65 151t21 121q0 19 -5 33t-6 16q-10 24 -10 41q0 24 13.5 37t37.5 13q31 0 48.5 -25.5t17.5 -66.5q0 -50 -16 -103t-36 -94
t-58 -115q-44 -91 -93.5 -174.5t-84.5 -130.5q-32 -51 -76 -78.5t-105 -27.5q-24 0 -53 5.5t-42 11.5l25 76q11 -9 34 -16t51 -7q44 0 89 34t84 107h-54l-99 506q-4 18 -9 24.5zM266 642q-4 13 -3 22q3 12 11.5 19.5t25.5 17.5q18 12 26.5 18.5t13.5 18.5v4q3 17 -8 30
t-38 14h-8q-17 0 -25 -2l11 68q2 2 17 4.5t26 2.5q52 0 82 -21.5t30 -61.5q0 -7 -2 -23q-5 -25 -22 -41t-46 -34l-20 -12q-9 -8 -13.5 -16.5t-3.5 -22.5l-44 -6q-6 8 -10 21z" />
  </g>

</svg>
