<?xml version="1.0" standalone="no"?>
<!DOCTYPE svg PUBLIC "-//W3C//DTD SVG 1.1//EN" "http://www.w3.org/Graphics/SVG/1.1/DTD/svg11.dtd" >
<svg xmlns="http://www.w3.org/2000/svg" xmlns:xlink="http://www.w3.org/1999/xlink" version="1.1" viewBox="-10 0 701 1000">
  <g transform="matrix(1 0 0 -1 0 800)">
   <path fill="currentColor"
d="M299 743l-6 -44l-88 -11l105 -272l23 -69l36 64l167 277l-78 11l5 44h218l-5 -44l-58 -11l-256 -399l-30 -236l112 -12l-4 -41h-332l4 41l113 12l30 236l-173 399l-60 11l4 44h273zM352 802q0 9 3 16q3 9 10.5 13.5t22.5 10.5q19 9 28.5 15.5t12.5 21.5q2 17 -8.5 28.5
t-37.5 13.5q-28 0 -33 -3l8 58q2 2 17 4.5t26 2.5q112 0 112 -76q0 -9 -1 -14q-4 -22 -19.5 -37t-44.5 -34l-19 -13q-13 -8 -18.5 -14t-4.5 -16h-48q-6 9 -6 23z" />
  </g>

</svg>
