<?xml version="1.0" standalone="no"?>
<!DOCTYPE svg PUBLIC "-//W3C//DTD SVG 1.1//EN" "http://www.w3.org/Graphics/SVG/1.1/DTD/svg11.dtd" >
<svg xmlns="http://www.w3.org/2000/svg" xmlns:xlink="http://www.w3.org/1999/xlink" version="1.1" viewBox="-10 0 699 1000">
  <g transform="matrix(1 0 0 -1 0 800)">
   <path fill="currentColor"
d="M547 710q58 -43 85.5 -115.5t27.5 -162.5q0 -122 -43 -222.5t-123 -160t-188 -59.5q-85 0 -143.5 41.5t-87 114t-28.5 164.5q0 123 44 224t125 160t187 59q86 0 144 -43zM272 650q-52 -50 -81 -137t-29 -192q0 -123 39.5 -201t116.5 -78q67 0 118.5 49.5t79.5 136.5
t28 196q0 128 -39 202t-115 74q-66 0 -118 -50zM385 802q0 9 3 16q3 9 10.5 13.5t22.5 10.5q19 9 28.5 15.5t12.5 21.5q2 17 -8.5 28.5t-37.5 13.5q-28 0 -33 -3l8 58q2 2 17 4.5t26 2.5q112 0 112 -76q0 -9 -1 -14q-4 -22 -19.5 -37t-44.5 -34l-19 -13q-13 -8 -18.5 -14
t-4.5 -16h-48q-6 9 -6 23z" />
  </g>

</svg>
