<?xml version="1.0" standalone="no"?>
<!DOCTYPE svg PUBLIC "-//W3C//DTD SVG 1.1//EN" "http://www.w3.org/Graphics/SVG/1.1/DTD/svg11.dtd" >
<svg xmlns="http://www.w3.org/2000/svg" xmlns:xlink="http://www.w3.org/1999/xlink" version="1.1" viewBox="-41 0 990 1000">
  <g transform="matrix(1 0 0 -1 0 800)">
   <path fill="currentColor"
d="M609 503q12 28 48 107.5t57 132.5h225l-5 -44l-88 -11l-19 -635l84 -12l-3 -41h-284l4 41l91 12l23 439l13 202l-75 -178l-230 -518l-57 -7l-80 513l-31 189l-41 -194l-106 -446l101 -12l-3 -41h-264l5 41l82 12l161 635l-92 11l6 44h245l73 -479l13 -99l42 98
q31 76 105 240zM505 837.5q-17 16.5 -17 39.5q0 30 21 51.5t49 21.5q26 0 43 -16t17 -38q0 -31 -21 -53t-53 -22q-22 0 -39 16.5z" />
  </g>

</svg>
