<?xml version="1.0" standalone="no"?>
<!DOCTYPE svg PUBLIC "-//W3C//DTD SVG 1.1//EN" "http://www.w3.org/Graphics/SVG/1.1/DTD/svg11.dtd" >
<svg xmlns="http://www.w3.org/2000/svg" xmlns:xlink="http://www.w3.org/1999/xlink" version="1.1" viewBox="-10 0 621 1000">
  <g transform="matrix(1 0 0 -1 0 800)">
   <path fill="currentColor"
d="M582 743l-8 -161h-63l-17 105l-221 8l-37 -278l231 10l-9 -80l-228 10l-39 -301l275 12l55 121l62 -10l-40 -179h-541l4 41l76 12l80 635l-68 11l5 44h483zM257 1002q15 20 38 33.5t51 13.5q21 0 37.5 -8.5t36.5 -24.5q16 -13 27 -19.5t24 -6.5q23 0 34.5 8t30.5 29
l30 -24q-12 -34 -43 -56.5t-70 -22.5q-18 0 -32.5 8t-35.5 23q-18 14 -30 20.5t-25 6.5q-16 0 -30 -10.5t-32 -30.5l-29 23q3 18 18 38zM427 900l123 -92l-42 -39l-134 65l-159 -66l-25 40l151 92h86z" />
  </g>

</svg>
