<?xml version="1.0" standalone="no"?>
<!DOCTYPE svg PUBLIC "-//W3C//DTD SVG 1.1//EN" "http://www.w3.org/Graphics/SVG/1.1/DTD/svg11.dtd" >
<svg xmlns="http://www.w3.org/2000/svg" xmlns:xlink="http://www.w3.org/1999/xlink" version="1.1" viewBox="-10 0 833 1000">
  <g transform="matrix(1 0 0 -1 0 800)">
   <path fill="currentColor"
d="M67 743h262l-5 -44l-83 -11l-51 -389q-7 -55 -6 -94q1 -78 37.5 -121.5t106.5 -43.5q91 0 140 65.5t66 200.5l51 382l-68 11l4 44h95q56 0 79.5 30.5t23.5 74.5q0 13 -1 17h92q2 -16 2 -22q2 -71 -33 -106.5t-120 -48.5l-50 -382q-22 -169 -94.5 -242.5t-204.5 -73.5
q-115 0 -174 58.5t-60 159.5q-2 38 3 82l52 398l-68 11zM379 830q-4 13 -3 22q3 12 11.5 19.5t25.5 17.5q18 12 26.5 18.5t13.5 18.5v4q3 17 -8 30t-38 14h-8q-17 0 -25 -2l11 68q2 2 17 4.5t26 2.5q52 0 82 -21.5t30 -61.5q0 -7 -2 -23q-5 -25 -22 -41t-46 -34l-20 -12
q-9 -8 -13.5 -16.5t-3.5 -22.5l-44 -6q-6 8 -10 21z" />
  </g>

</svg>
