<?xml version="1.0" standalone="no"?>
<!DOCTYPE svg PUBLIC "-//W3C//DTD SVG 1.1//EN" "http://www.w3.org/Graphics/SVG/1.1/DTD/svg11.dtd" >
<svg xmlns="http://www.w3.org/2000/svg" xmlns:xlink="http://www.w3.org/1999/xlink" version="1.1" viewBox="-10 0 1062 1000">
  <g transform="matrix(1 0 0 -1 0 800)">
   <path fill="currentColor"
d="M145 482l3 -60q13 -9 35.5 -15.5t43.5 -6.5q33 0 57 16t24 46q0 25 -18.5 42t-55.5 39q-46 26 -70.5 50.5t-24.5 65.5q0 47 42 76.5t105 29.5q36 0 67.5 -8.5t46.5 -17.5l-15 -79h-33l-3 54q-10 7 -27 12.5t-37 5.5q-35 0 -55 -14.5t-20 -42.5t19.5 -45t58.5 -37
q32 -17 51 -30.5t32.5 -34.5t13.5 -51q0 -33 -21 -58.5t-54.5 -39.5t-70.5 -14q-43 0 -86.5 10t-59.5 19l14 88h38zM478 415l55 298l-50 4l5 40h154l58 -231l17 -63l141 294h152l-6 -40l-51 -4l-13 -298l52 -7l-4 -35h-175l4 35l54 7l10 185l10 113l-20 -38l-151 -306h-49
l-73 268l-21 78l-13 -81l-39 -219l50 -7l-5 -35h-152l5 35z" />
  </g>

</svg>
