<?xml version="1.0" standalone="no"?>
<!DOCTYPE svg PUBLIC "-//W3C//DTD SVG 1.1//EN" "http://www.w3.org/Graphics/SVG/1.1/DTD/svg11.dtd" >
<svg xmlns="http://www.w3.org/2000/svg" xmlns:xlink="http://www.w3.org/1999/xlink" version="1.1" viewBox="-10 0 611 1000">
  <g transform="matrix(1 0 0 -1 0 800)">
   <path fill="currentColor"
d="M71 548l136 19l21 -11l-34 -265l-6 -44q-10 -82 -10 -110q0 -47 16 -65t49 -18q36 0 74 25.5t65 61.5l56 422h104l-64 -473l-1 -11q0 -12 4.5 -18.5t11.5 -6.5q20 0 51 30l13 -27q-7 -10 -22 -24.5t-35 -24.5q-37 -30 -58.5 -56t-21.5 -49q-1 -20 6.5 -29.5t22.5 -9.5
q33 0 73 32l12 -41q-24 -23 -57.5 -38t-74.5 -15q-38 0 -57 18.5t-19 46.5q0 12 5 28t13 28q24 37 73 72q-20 5 -30 19.5t-9 37.5q0 -2 3 34l-1 1q-80 -97 -180 -97q-57 0 -92 30.5t-36 100.5q0 47 19 174l26 186l-53 29z" />
  </g>

</svg>
