<?xml version="1.0" standalone="no"?>
<!DOCTYPE svg PUBLIC "-//W3C//DTD SVG 1.1//EN" "http://www.w3.org/Graphics/SVG/1.1/DTD/svg11.dtd" >
<svg xmlns="http://www.w3.org/2000/svg" xmlns:xlink="http://www.w3.org/1999/xlink" version="1.1" viewBox="-18 0 694 1000">
  <g transform="matrix(1 0 0 -1 0 800)">
   <path fill="currentColor"
d="M0 0zM-8 56l65 15l202 584h121l218 -582l68 -17v-56h-307v56l87 17l-35 107h-210l-37 -110l84 -14v-56h-256v56zM385 260l-64 204l-9 41h-9l-9 -41l-66 -204h157zM515 695zM141 715.5q-20 20.5 -20 52.5t23 55.5t55 23.5q31 0 51 -19.5t20 -52.5t-22 -56.5t-57 -23.5
q-30 0 -50 20.5zM386 715.5q-20 20.5 -20 52.5t23 55.5t55 23.5q31 0 51 -19.5t20 -52.5t-22 -56.5t-57 -23.5q-30 0 -50 20.5z" />
  </g>

</svg>
