<?xml version="1.0" standalone="no"?>
<!DOCTYPE svg PUBLIC "-//W3C//DTD SVG 1.1//EN" "http://www.w3.org/Graphics/SVG/1.1/DTD/svg11.dtd" >
<svg xmlns="http://www.w3.org/2000/svg" xmlns:xlink="http://www.w3.org/1999/xlink" version="1.1" viewBox="-18 0 694 1000">
  <g transform="matrix(1 0 0 -1 0 800)">
   <path fill="currentColor"
d="M0 0zM-8 56l65 15l202 584h121l218 -582l68 -17v-56h-307v56l87 17l-35 107h-210l-37 -110l84 -14v-56h-256v56zM385 260l-64 204l-9 41h-9l-9 -41l-66 -204h157zM421 663zM239 687q-24 24 -24 61q0 38 26.5 65.5t80.5 27.5q51 0 75 -25t24 -62q0 -38 -26.5 -64.5
t-79.5 -26.5q-52 0 -76 24zM346 750q0 24 -6.5 33t-22.5 9t-22.5 -9.5t-6.5 -30.5q0 -23 6.5 -32.5t24.5 -9.5q27 0 27 40z" />
  </g>

</svg>
