<?xml version="1.0" standalone="no"?>
<!DOCTYPE svg PUBLIC "-//W3C//DTD SVG 1.1//EN" "http://www.w3.org/Graphics/SVG/1.1/DTD/svg11.dtd" >
<svg xmlns="http://www.w3.org/2000/svg" xmlns:xlink="http://www.w3.org/1999/xlink" version="1.1" viewBox="-10 0 591 1000">
  <g transform="matrix(1 0 0 -1 0 800)">
   <path fill="currentColor"
d="M35 0zM115 75v498l-80 19v56h497v-188h-68l-25 112h-138l-44 -7v-199h102l22 69h53v-221h-53l-22 76h-102v-211q24 -3 68 -3h124l26 121h66v-197h-506v56zM492 671zM286.5 685q-17.5 14 -20.5 16l-123 91l34 52l147 -62l139 62l29 -42l-120 -100q-4 -3 -14 -11.5t-20 -14
t-20 -5.5q-14 0 -31.5 14z" />
  </g>

</svg>
