<?xml version="1.0" standalone="no"?>
<!DOCTYPE svg PUBLIC "-//W3C//DTD SVG 1.1//EN" "http://www.w3.org/Graphics/SVG/1.1/DTD/svg11.dtd" >
<svg xmlns="http://www.w3.org/2000/svg" xmlns:xlink="http://www.w3.org/1999/xlink" version="1.1" viewBox="-10 0 591 1000">
  <g transform="matrix(1 0 0 -1 0 800)">
   <path fill="currentColor"
d="M35 0zM115 75v498l-80 19v56h497v-188h-68l-25 112h-138l-44 -7v-199h102l22 69h53v-221h-53l-22 76h-102v-211q24 -3 68 -3h124l26 121h66v-197h-506v56zM514 695zM140 715.5q-20 20.5 -20 52.5t23 55.5t55 23.5q31 0 51 -19.5t20 -52.5t-22 -56.5t-57 -23.5
q-30 0 -50 20.5zM385 715.5q-20 20.5 -20 52.5t23 55.5t55 23.5q31 0 51 -19.5t20 -52.5t-22 -56.5t-57 -23.5q-30 0 -50 20.5z" />
  </g>

</svg>
