<?xml version="1.0" standalone="no"?>
<!DOCTYPE svg PUBLIC "-//W3C//DTD SVG 1.1//EN" "http://www.w3.org/Graphics/SVG/1.1/DTD/svg11.dtd" >
<svg xmlns="http://www.w3.org/2000/svg" xmlns:xlink="http://www.w3.org/1999/xlink" version="1.1" viewBox="-10 0 591 1000">
  <g transform="matrix(1 0 0 -1 0 800)">
   <path fill="currentColor"
d="M567 -136q-16 -20 -46.5 -35.5t-68.5 -15.5t-63.5 19.5t-25.5 54.5t21.5 63.5t54.5 49.5h-404v56l80 19v498l-80 19v56h497v-188h-68l-25 112h-138l-44 -7v-199h102l22 69h53v-221h-53l-22 76h-102v-211q24 -3 68 -3h124l26 121h66v-197h-35q-21 -18 -35.5 -39.5
t-14.5 -41.5q0 -34 35 -34q19 0 52 20z" />
  </g>

</svg>
