<?xml version="1.0" standalone="no"?>
<!DOCTYPE svg PUBLIC "-//W3C//DTD SVG 1.1//EN" "http://www.w3.org/Graphics/SVG/1.1/DTD/svg11.dtd" >
<svg xmlns="http://www.w3.org/2000/svg" xmlns:xlink="http://www.w3.org/1999/xlink" version="1.1" viewBox="-34 0 559 1000">
  <g transform="matrix(1 0 0 -1 0 800)">
   <path fill="currentColor"
d="M90 355q28 80 92 128t151 48q93 0 166 -22v-155h-62l-17 85q-29 11 -76 11q-52 0 -78.5 -20.5t-38.5 -74.5h150l-27 -77h-332l27 77h45zM214.5 -2q-47.5 16 -78.5 53t-52 103h-108l27 77h332l-27 -77h-81q12 -57 41 -76t81 -19q47 0 73 14l19 97h61v-152
q-80 -36 -166 -36q-74 0 -121.5 16z" />
  </g>

</svg>
