<?xml version="1.0" standalone="no"?>
<!DOCTYPE svg PUBLIC "-//W3C//DTD SVG 1.1//EN" "http://www.w3.org/Graphics/SVG/1.1/DTD/svg11.dtd" >
<svg xmlns="http://www.w3.org/2000/svg" xmlns:xlink="http://www.w3.org/1999/xlink" version="1.1" viewBox="-10 0 739 1000">
  <g transform="matrix(1 0 0 -1 0 800)">
   <path fill="currentColor"
d="M35 0zM35 56l80 19v499l-66 13v61h210l247 -389l20 -40h4v354l-80 18v57h259v-57l-80 -18v-573h-123l-267 420l-21 40h-4v-385l80 -19v-56h-259v56zM400 862q12 26 23.5 39t28.5 13q21 0 42.5 -17.5t30.5 -50.5l-139 -153l-46 31z" />
  </g>

</svg>
