<?xml version="1.0" standalone="no"?>
<!DOCTYPE svg PUBLIC "-//W3C//DTD SVG 1.1//EN" "http://www.w3.org/Graphics/SVG/1.1/DTD/svg11.dtd" >
<svg xmlns="http://www.w3.org/2000/svg" xmlns:xlink="http://www.w3.org/1999/xlink" version="1.1" viewBox="-10 0 728 1000">
  <g transform="matrix(1 0 0 -1 0 800)">
   <path fill="currentColor"
d="M708 -77v-51q-21 -13 -51 -23.5t-55 -10.5q-54 0 -95 28l-149 91q-30 21 -78 29q-119 17 -182 99.5t-63 227.5q0 103 40 183.5t115 125t176 44.5q148 0 227 -84.5t79 -246.5q0 -125 -56 -214t-159 -122l146 -76h105zM215.5 179q17.5 -60 52.5 -87t92 -27q53 0 85.5 22.5
t48 76t15.5 145.5q0 100 -17 160t-52 86.5t-92 26.5q-53 0 -85.5 -22.5t-48.5 -75t-16 -144.5q0 -101 17.5 -161z" />
  </g>

</svg>
