<?xml version="1.0" standalone="no"?>
<!DOCTYPE svg PUBLIC "-//W3C//DTD SVG 1.1//EN" "http://www.w3.org/Graphics/SVG/1.1/DTD/svg11.dtd" >
<svg xmlns="http://www.w3.org/2000/svg" xmlns:xlink="http://www.w3.org/1999/xlink" version="1.1" viewBox="-10 0 546 1000">
  <g transform="matrix(1 0 0 -1 0 800)">
   <path fill="currentColor"
d="M206 -189.5q-19 4.5 -38 14.5l20 47q30 -13 61 -13q17 0 26 5t9 20q0 10 -5.5 15.5t-17.5 7.5l-29 6l-23 23l21 48q-65 3 -114.5 18.5t-73.5 30.5v178h70l21 -103q19 -19 53 -31t66 -12q66 0 93 21t27 66q0 26 -8 41t-34 30.5t-84 38.5q-67 27 -106.5 48t-68.5 61.5
t-29 103.5q0 56 28.5 99.5t82 67.5t124.5 24q51 0 105.5 -8t86.5 -17v-182h-69l-21 104q-49 19 -98 19q-63 0 -85.5 -19t-22.5 -62q0 -23 15 -39.5t37.5 -27.5t67.5 -29q68 -27 110.5 -52.5t68.5 -64t26 -93.5q0 -104 -60 -153.5t-151 -56.5v-15l21 -5q35 -9 51.5 -23
t16.5 -46q0 -44 -31.5 -67t-92.5 -23q-27 0 -46 4.5z" />
  </g>

</svg>
