<?xml version="1.0" standalone="no"?>
<!DOCTYPE svg PUBLIC "-//W3C//DTD SVG 1.1//EN" "http://www.w3.org/Graphics/SVG/1.1/DTD/svg11.dtd" >
<svg xmlns="http://www.w3.org/2000/svg" xmlns:xlink="http://www.w3.org/1999/xlink" version="1.1" viewBox="-10 0 464 1000">
  <g transform="matrix(1 0 0 -1 0 800)">
   <path fill="currentColor"
d="M20 0zM76 48q-56 60 -56 189q0 96 34.5 157t88.5 88t114 27q76 0 126.5 -36t50.5 -95q0 -30 -16.5 -46.5t-63.5 -16.5q-16 0 -35 7l-18 99q-17 5 -41 5q-37 0 -58 -13.5t-30.5 -48t-9.5 -99.5q0 -72 10.5 -111.5t40 -58.5t86.5 -19q32 0 61 5t45 11l18 -42
q-24 -24 -70 -43t-100 -19q-121 0 -177 60zM292 708q12 26 23.5 39t28.5 13q21 0 42.5 -17.5t30.5 -50.5l-139 -153l-46 31z" />
  </g>

</svg>
