<?xml version="1.0" standalone="no"?>
<!DOCTYPE svg PUBLIC "-//W3C//DTD SVG 1.1//EN" "http://www.w3.org/Graphics/SVG/1.1/DTD/svg11.dtd" >
<svg xmlns="http://www.w3.org/2000/svg" xmlns:xlink="http://www.w3.org/1999/xlink" version="1.1" viewBox="-10 0 590 1000">
  <g transform="matrix(1 0 0 -1 0 800)">
   <path fill="currentColor"
d="M338 -164q-31 5 -52 13v51l102 23v421q0 45 -16.5 61t-62.5 16q-34 0 -77 -8v-344l70 -14v-55h-281v55l79 14v340l-79 16v58l174 23l28 -47h4q37 24 77.5 38t73.5 14q142 0 142 -144v-446q0 -43 -32 -66.5t-90 -23.5q-29 0 -60 5z" />
  </g>

</svg>
