<?xml version="1.0" standalone="no"?>
<!DOCTYPE svg PUBLIC "-//W3C//DTD SVG 1.1//EN" "http://www.w3.org/Graphics/SVG/1.1/DTD/svg11.dtd" >
<svg xmlns="http://www.w3.org/2000/svg" xmlns:xlink="http://www.w3.org/1999/xlink" version="1.1" viewBox="-10 0 518 1000">
  <g transform="matrix(1 0 0 -1 0 800)">
   <path fill="currentColor"
d="M9 0zM64 -139.5q-55 26.5 -55 84.5q0 35 24.5 61.5t63.5 50.5q-13 17 -13 43q0 24 17.5 45.5t41.5 34.5q-60 14 -91 57t-31 93q0 86 59.5 132t154.5 46q67 0 114 -29q17 14 46 27.5t52 13.5q51 0 51 -49q0 -23 -13.5 -40t-27.5 -25l-20 14q-13 10 -22 14t-20 4
q16 -22 24 -47t8 -47q0 -49 -27.5 -88t-75.5 -61t-108 -22h-14v-40l117 -19q56 -9 88.5 -22t49.5 -36.5t17 -63.5q0 -47 -36 -83t-95.5 -55.5t-126.5 -19.5q-97 0 -152 26.5zM262 252.5q14 7.5 20 28.5t6 63q0 51 -11.5 70.5t-50.5 19.5q-27 0 -41 -8t-19.5 -28t-5.5 -60
q0 -38 4.5 -57t17.5 -27.5t39 -8.5q27 0 41 7.5zM351 -46q0 21 -10 33t-40 17l-155 24q-18 -36 -18 -66q0 -31 24.5 -44.5t85.5 -13.5q113 0 113 50zM381 538zM103 539l-32 42l101 104q17 17 30 26t26 9q18 0 45 -27l108 -108l-40 -47l-121 72z" />
  </g>

</svg>
