<?xml version="1.0" standalone="no"?>
<!DOCTYPE svg PUBLIC "-//W3C//DTD SVG 1.1//EN" "http://www.w3.org/Graphics/SVG/1.1/DTD/svg11.dtd" >
<svg xmlns="http://www.w3.org/2000/svg" xmlns:xlink="http://www.w3.org/1999/xlink" version="1.1" viewBox="-10 0 610 1000">
  <g transform="matrix(1 0 0 -1 0 800)">
   <path fill="currentColor"
d="M0 0zM92 69v533l-81 16v58l176 23l37 -14v-216l-8 -8l1 -4q28 19 69 35.5t84 16.5q142 0 142 -142v-298l74 -14v-55h-276v55l70 14v275q0 29 -5.5 45.5t-22.5 25t-51 8.5q-37 0 -77 -10v-344l70 -14v-55h-281v55zM310 692zM32 693l-32 42l101 104q17 17 30 26t26 9
q18 0 45 -27l108 -108l-40 -47l-121 72z" />
  </g>

</svg>
