<?xml version="1.0" standalone="no"?>
<!DOCTYPE svg PUBLIC "-//W3C//DTD SVG 1.1//EN" "http://www.w3.org/Graphics/SVG/1.1/DTD/svg11.dtd" >
<svg xmlns="http://www.w3.org/2000/svg" xmlns:xlink="http://www.w3.org/1999/xlink" version="1.1" viewBox="-10 0 810 1000">
  <g transform="matrix(1 0 0 -1 0 800)">
   <path fill="currentColor"
d="M117.5 136.5q-42.5 24.5 -67.5 69.5t-25 104t25 104.5t67.5 70t95.5 24.5q54 0 96 -24t91 -86q49 62 91 86t96 24q53 0 95.5 -24.5t67.5 -70t25 -104.5t-25 -104t-67.5 -69.5t-95.5 -24.5q-54 0 -96.5 24.5t-90.5 85.5q-48 -61 -90.5 -85.5t-96.5 -24.5q-53 0 -95.5 24.5
zM276 237.5q30 26.5 62 71.5q-32 49 -60 76t-65 27q-40 0 -63 -27.5t-23 -74.5q0 -46 24.5 -72.5t61.5 -26.5q33 0 63 26.5zM648.5 237.5q24.5 26.5 24.5 72.5q0 47 -23 74.5t-63 27.5q-37 0 -65 -27t-60 -76q70 -98 125 -98q37 0 61.5 26.5z" />
  </g>

</svg>
