<?xml version="1.0" standalone="no"?>
<!DOCTYPE svg PUBLIC "-//W3C//DTD SVG 1.1//EN" "http://www.w3.org/Graphics/SVG/1.1/DTD/svg11.dtd" >
<svg xmlns="http://www.w3.org/2000/svg" xmlns:xlink="http://www.w3.org/1999/xlink" version="1.1" viewBox="-17 0 332 1000">
  <g transform="matrix(1 0 0 -1 0 800)">
   <path fill="currentColor"
d="M0 0zM42 -163.5q-31 5.5 -49 12.5v51l102 23v486l-81 16v58l176 23l37 -14v-571q0 -41 -31 -65.5t-91 -24.5q-32 0 -63 5.5zM305 538zM27 539l-32 42l101 104q17 17 30 26t26 9q18 0 45 -27l108 -108l-40 -47l-121 72z" />
  </g>

</svg>
