<?xml version="1.0" standalone="no"?>
<!DOCTYPE svg PUBLIC "-//W3C//DTD SVG 1.1//EN" "http://www.w3.org/Graphics/SVG/1.1/DTD/svg11.dtd" >
<svg xmlns="http://www.w3.org/2000/svg" xmlns:xlink="http://www.w3.org/1999/xlink" version="1.1" viewBox="-10 0 396 1000">
  <g transform="matrix(1 0 0 -1 0 800)">
   <path fill="currentColor"
d="M56.5 396.5q-44.5 46.5 -44.5 128.5q0 50 22.5 93t64.5 68.5t98 25.5q82 0 128.5 -46t46.5 -125q0 -53 -21.5 -96.5t-63.5 -69t-102 -25.5q-84 0 -128.5 46.5zM244.5 447q11.5 24 11.5 82q0 42 -5 64t-18.5 31.5t-39.5 9.5q-29 0 -43 -11.5t-18 -33t-4 -60.5
q0 -42 5.5 -64t20.5 -32t44 -10q35 0 46.5 24z" />
  </g>

</svg>
