<?xml version="1.0" standalone="no"?>
<!DOCTYPE svg PUBLIC "-//W3C//DTD SVG 1.1//EN" "http://www.w3.org/Graphics/SVG/1.1/DTD/svg11.dtd" >
<svg xmlns="http://www.w3.org/2000/svg" xmlns:xlink="http://www.w3.org/1999/xlink" version="1.1" viewBox="-10 0 1440 1000">
  <g transform="matrix(1 0 0 -1 0 800)">
   <path fill="currentColor"
d="M115 75v498l-80 19v56h282q133 0 194.5 -41.5t61.5 -145.5q0 -63 -31 -108.5t-84 -68.5t-118 -23q-12 0 -36 2l-5 47q70 8 97 42t27 109q0 111 -111 111q-31 0 -55 -4v-493l80 -19v-56h-302v56zM705.5 24q-30.5 33 -30.5 102v297h-96v65l96 21l44 121h88v-131h141v-46
l-14 -30h-127v-279q0 -38 13.5 -51t40.5 -13q19 0 40.5 5t35.5 11l17 -51q3 0 -20 -15t-55 -27t-67 -12q-76 0 -106.5 33zM1089.5 -2.5q-51.5 11.5 -70.5 21.5l7 145h63l24 -80q14 -10 31.5 -17.5t45.5 -7.5q49 0 66.5 15t17.5 52q0 30 -23.5 42t-74.5 24q-50 12 -82.5 25.5
t-56 45t-23.5 87.5q0 79 54 119t149 40q41 0 86 -7t66 -13l-8 -144h-63l-21 71q-11 5 -29 9.5t-37 4.5q-46 0 -63.5 -14t-17.5 -38q0 -26 21.5 -38t72.5 -27q51 -14 84.5 -29t57.5 -48t24 -89q0 -85 -57.5 -123t-140.5 -38q-51 0 -102.5 11.5z" />
  </g>

</svg>
