<?xml version="1.0" standalone="no"?>
<!DOCTYPE svg PUBLIC "-//W3C//DTD SVG 1.1//EN" "http://www.w3.org/Graphics/SVG/1.1/DTD/svg11.dtd" >
<svg xmlns="http://www.w3.org/2000/svg" xmlns:xlink="http://www.w3.org/1999/xlink" version="1.1" viewBox="-10 0 364 1000">
  <g transform="matrix(1 0 0 -1 0 800)">
   <path fill="currentColor"
d="M47.5 552q8.5 35 8.5 57q0 42 -32 70q23 49 71 49q32 0 52.5 -21t20.5 -52q0 -47 -38 -102.5t-69 -86.5l-37 16q15 35 23.5 70zM214.5 552q8.5 35 8.5 57q0 42 -32 70q23 49 71 49q32 0 52.5 -21t20.5 -52q0 -47 -38 -102.5t-69 -86.5l-37 16q15 35 23.5 70z" />
  </g>

</svg>
