<?xml version="1.0" standalone="no"?>
<!DOCTYPE svg PUBLIC "-//W3C//DTD SVG 1.1//EN" "http://www.w3.org/Graphics/SVG/1.1/DTD/svg11.dtd" >
<svg xmlns="http://www.w3.org/2000/svg" xmlns:xlink="http://www.w3.org/1999/xlink" version="1.1" viewBox="-10 0 926 1000">
  <g transform="matrix(1 0 0 -1 0 800)">
   <path fill="currentColor"
d="M40 0zM99 297.5q-42 7.5 -59 16.5v108h62l7 -50q22 -11 61 -11q30 0 43.5 9.5t13.5 30.5q0 29 -13 38.5t-41 9.5h-21l-15 33v32h27q29 0 42 8.5t13 27.5q0 23 -12 32t-44 9q-23 0 -51 -7l-11 -70h-61v111q20 13 54 25t84 12q75 0 111.5 -21.5t36.5 -69.5
q0 -33 -11.5 -49.5t-34.5 -26.5q27 -9 44.5 -30.5t17.5 -58.5q0 -52 -46 -84t-125 -32q-30 0 -72 7.5zM173 20l469 675l74 -52l-471 -675zM546 0zM588 17.5q-42 23.5 -42 63.5q0 26 22.5 49.5t57.5 39.5q-35 15 -55 36.5t-20 53.5q0 46 47 76t120 30q70 0 112.5 -24
t42.5 -62q0 -32 -17.5 -50.5t-49.5 -32.5q39 -17 59.5 -39.5t20.5 -56.5q0 -28 -20.5 -52.5t-60.5 -39.5t-96 -15q-79 0 -121 23.5zM767 254q0 44 -53 44q-23 0 -35 -9.5t-12 -25.5q0 -14 14 -20.5t47 -16.5l24 -7q15 12 15 35zM771 102q0 13 -16.5 21t-57.5 20l-21 6
q-12 -9 -15.5 -18.5t-3.5 -20.5q0 -52 60 -52q54 0 54 44z" />
  </g>

</svg>
