<?xml version="1.0" standalone="no"?>
<!DOCTYPE svg PUBLIC "-//W3C//DTD SVG 1.1//EN" "http://www.w3.org/Graphics/SVG/1.1/DTD/svg11.dtd" >
<svg xmlns="http://www.w3.org/2000/svg" xmlns:xlink="http://www.w3.org/1999/xlink" version="1.1" viewBox="-379 0 389 1000">
  <g transform="matrix(1 0 0 -1 0 800)">
   <path fill="currentColor"
d="M0 696zM-218 851q0 9 9 17.5t31 20.5q12 7 18.5 13.5t6.5 17.5q0 12 -9 16.5t-29 4.5q-25 0 -54 -8q-19 21 -19 40q0 35 79 35q62 0 96 -20.5t34 -58.5t-49 -63q-25 -11 -31 -16t-3 -19l-69 -7q-11 17 -11 27zM0 696zM-300.5 727q-51.5 31 -68.5 69l75 55
q13 -24 45.5 -43t74.5 -19q45 0 79.5 17.5t49.5 38.5l45 -32q-20 -44 -66.5 -80.5t-107.5 -36.5q-75 0 -126.5 31z" />
  </g>

</svg>
