<?xml version="1.0" standalone="no"?>
<!DOCTYPE svg PUBLIC "-//W3C//DTD SVG 1.1//EN" "http://www.w3.org/Graphics/SVG/1.1/DTD/svg11.dtd" >
<svg xmlns="http://www.w3.org/2000/svg" xmlns:xlink="http://www.w3.org/1999/xlink" version="1.1" viewBox="-343 0 353 1000">
  <g transform="matrix(1 0 0 -1 0 800)">
   <path fill="currentColor"
d="M0 550zM0 690zM-116 848q14 17 27 27t27 11q13 0 27.5 -10.5t24.5 -30.5t10 -46l-176 -109l-36 43zM-2 550zM-247 571q-37 21 -58 53t-28 65l75 30q7 -30 34 -55t69 -25q44 0 73.5 25t38.5 55l41 -17q-5 -36 -24.5 -71t-54 -58t-80.5 -23q-49 0 -86 21z" />
  </g>

</svg>
