<?xml version="1.0" standalone="no"?>
<!DOCTYPE svg PUBLIC "-//W3C//DTD SVG 1.1//EN" "http://www.w3.org/Graphics/SVG/1.1/DTD/svg11.dtd" >
<svg xmlns="http://www.w3.org/2000/svg" xmlns:xlink="http://www.w3.org/1999/xlink" version="1.1" viewBox="-10 0 905 1000">
  <g transform="matrix(1 0 0 -1 0 800)">
   <path fill="currentColor"
d="M21 0zM100 69v340l-79 16v58l174 23l28 -47h4q32 22 75 37t76 15q142 0 142 -144v-298l74 -14v-55h-276v55l70 14v275q0 45 -16.5 61t-62.5 16q-34 0 -77 -8v-344l70 -14v-55h-281v55zM603 0zM645 -163.5q-31 5.5 -49 12.5v51l102 23v486l-81 16v58l176 23l37 -14v-571
q0 -41 -31 -65.5t-91 -24.5q-32 0 -63 5.5zM835 561zM694 583.5q-22 22.5 -22 57.5t25 60.5t60 25.5q34 0 56 -21t22 -57t-24 -62t-62 -26q-33 0 -55 22.5z" />
  </g>

</svg>
