<?xml version="1.0" standalone="no"?>
<!DOCTYPE svg PUBLIC "-//W3C//DTD SVG 1.1//EN" "http://www.w3.org/Graphics/SVG/1.1/DTD/svg11.dtd" >
<svg xmlns="http://www.w3.org/2000/svg" xmlns:xlink="http://www.w3.org/1999/xlink" version="1.1" viewBox="-10 0 611 1000">
  <g transform="matrix(1 0 0 -1 0 800)">
   <path fill="currentColor"
d="M7 0zM123.5 22.5q-36.5 34.5 -36.5 106.5v280l-80 16v58l175 23l37 -14v-326q0 -36 7.5 -55t26 -27t53.5 -8q19 0 40.5 4t33.5 9v320l-81 16v58l175 23l38 -14v-404l79 -16v-58l-175 -23l-28 45h-9q-27 -21 -67.5 -34.5t-75.5 -13.5q-76 0 -112.5 34.5zM487 561z
M133 581.5q-20 20.5 -20 52.5t23 55.5t55 23.5q31 0 51 -19.5t20 -52.5t-22 -56.5t-57 -23.5q-30 0 -50 20.5zM358 581.5q-20 20.5 -20 52.5t23 55.5t55 23.5q31 0 51 -19.5t20 -52.5t-22 -56.5t-57 -23.5q-30 0 -50 20.5zM406 734zM290 892q14 17 27 27t27 11
q13 0 27.5 -10.5t24.5 -30.5t10 -46l-176 -109l-36 43z" />
  </g>

</svg>
