<?xml version="1.0" standalone="no"?>
<!DOCTYPE svg PUBLIC "-//W3C//DTD SVG 1.1//EN" "http://www.w3.org/Graphics/SVG/1.1/DTD/svg11.dtd" >
<svg xmlns="http://www.w3.org/2000/svg" xmlns:xlink="http://www.w3.org/1999/xlink" version="1.1" viewBox="-10 0 540 1000">
  <g transform="matrix(1 0 0 -1 0 800)">
   <path fill="currentColor"
d="M338 -30q-21 -27 -21 -51q0 -34 35 -34q19 0 52 20l24 -41q-16 -20 -46.5 -35.5t-68.5 -15.5t-63.5 19.5t-25.5 54.5q0 56 57 100q-8 -1 -24 -1q-123 0 -177.5 65t-54.5 189q0 73 26.5 134.5t83.5 99t145 37.5q115 0 170 -66.5t55 -181.5q0 -84 -28.5 -150t-91.5 -99
q-26 -17 -47 -44zM174.5 141.5q7.5 -37.5 30.5 -56.5t69 -19q39 0 58 21t25 59t6 103q0 68 -7.5 106t-27.5 56.5t-59 18.5q-44 0 -65.5 -18.5t-29 -56t-7.5 -106.5q0 -70 7.5 -107.5z" />
  </g>

</svg>
