<?xml version="1.0" standalone="no"?>
<!DOCTYPE svg PUBLIC "-//W3C//DTD SVG 1.1//EN" "http://www.w3.org/Graphics/SVG/1.1/DTD/svg11.dtd" >
<svg xmlns="http://www.w3.org/2000/svg" xmlns:xlink="http://www.w3.org/1999/xlink" version="1.1" viewBox="-18 0 694 1000">
  <g transform="matrix(1 0 0 -1 0 800)">
   <path fill="currentColor"
d="M0 0zM-8 56l65 15l202 584h121l218 -582l68 -17v-56h-307v56l87 17l-35 107h-210l-37 -110l84 -14v-56h-256v56zM385 260l-64 204l-9 41h-9l-9 -41l-66 -204h157zM433.5 820q51.5 -31 68.5 -69l-75 -55q-13 24 -45.5 43t-74.5 19q-45 0 -79.5 -17.5t-49.5 -38.5l-45 32
q20 44 66.5 80.5t107.5 36.5q75 0 126.5 -31z" />
  </g>

</svg>
