<?xml version="1.0" standalone="no"?>
<!DOCTYPE svg PUBLIC "-//W3C//DTD SVG 1.1//EN" "http://www.w3.org/Graphics/SVG/1.1/DTD/svg11.dtd" >
<svg xmlns="http://www.w3.org/2000/svg" xmlns:xlink="http://www.w3.org/1999/xlink" version="1.1" viewBox="-10 0 532 1000">
  <g transform="matrix(1 0 0 -1 0 800)">
   <path fill="currentColor"
d="M33 0zM69.5 25q-36.5 37 -36.5 93q0 63 46 99.5t121 48.5l107 18v66q0 39 -15 57.5t-59 18.5q-33 0 -46 -5l-14 -91q-27 -10 -53 -10q-35 0 -52 13.5t-17 45.5q0 42 34.5 71.5t84.5 44t96 14.5q88 0 130.5 -31t42.5 -105v-292l73 -14v-51q-23 -8 -54.5 -15t-57.5 -7
q-39 0 -55.5 11.5t-24.5 35.5h-9q-18 -18 -52 -35.5t-80 -17.5q-73 0 -109.5 37zM307 91v124q-56 -5 -85 -16t-38.5 -26t-9.5 -38q0 -61 74 -61q27 0 59 17zM267 761l-92 26l-75 -33l-35 28l39 54q24 35 73 35q28 0 78 -14l89 -26l75 33l35 -29l-39 -54q-24 -35 -69 -35
q-23 0 -79 15zM112 581l101 104q17 17 30 26t26 9q18 0 45 -27l108 -108l-40 -47l-121 72l-117 -71z" />
  </g>

</svg>
