<?xml version="1.0" standalone="no"?>
<!DOCTYPE svg PUBLIC "-//W3C//DTD SVG 1.1//EN" "http://www.w3.org/Graphics/SVG/1.1/DTD/svg11.dtd" >
<svg xmlns="http://www.w3.org/2000/svg" xmlns:xlink="http://www.w3.org/1999/xlink" version="1.1" viewBox="-10 0 757 1000">
  <g transform="matrix(1 0 0 -1 0 800)">
   <path fill="currentColor"
d="M3 0zM191 10.5q-58 28.5 -83 92t-25 175.5v295l-80 19v56h296v-56l-74 -19v-295q0 -88 13.5 -132.5t44 -60.5t88.5 -16q50 0 77.5 17t40 62t12.5 130v295l-79 18v57h154q32 0 46 3.5t18.5 11t4.5 24.5q0 10 -3.5 16.5t-10.5 12.5v15l73 48q1 -1 9.5 -7t16 -21t7.5 -33
q0 -42 -30 -80t-106 -65v-295q0 -106 -23.5 -170.5t-77.5 -95t-148 -30.5q-103 0 -161 28.5zM297 698q0 9 9 17.5t31 20.5q12 7 18.5 13.5t6.5 17.5q0 12 -9 16.5t-29 4.5q-25 0 -54 -8q-19 21 -19 40q0 35 79 35q62 0 96 -20.5t34 -58.5t-49 -63q-25 -11 -31 -16t-3 -19
l-69 -7q-11 17 -11 27z" />
  </g>

</svg>
