<?xml version="1.0" standalone="no"?>
<!DOCTYPE svg PUBLIC "-//W3C//DTD SVG 1.1//EN" "http://www.w3.org/Graphics/SVG/1.1/DTD/svg11.dtd" >
<svg xmlns="http://www.w3.org/2000/svg" xmlns:xlink="http://www.w3.org/1999/xlink" version="1.1" viewBox="-10 0 717 1000">
  <g transform="matrix(1 0 0 -1 0 800)">
   <path fill="currentColor"
d="M369 891l-100 26l-71 -31l-39 30l35 42q20 24 40.5 31.5t46.5 7.5q30 0 57 -8l100 -26l72 30l38 -29l-35 -42q-20 -24 -41 -32t-46 -8q-26 0 -57 9zM300 813q25 21 35.5 26t18.5 5t17 -5.5t18.5 -13t14.5 -11.5l121 -93l-31 -50l-148 62l-141 -62l-27 41zM114 66.5
q-79 84.5 -79 246.5q0 103 40 183.5t115 125t176 44.5q148 0 227 -84.5t79 -246.5q0 -104 -39.5 -184t-114 -124.5t-177.5 -44.5q-148 0 -227 84.5zM445.5 87.5q32.5 22.5 48 76t15.5 145.5q0 100 -17 160t-52 86.5t-92 26.5q-53 0 -85.5 -22.5t-48.5 -75t-16 -144.5
q0 -101 17.5 -161t52.5 -87t92 -27q53 0 85.5 22.5z" />
  </g>

</svg>
