<?xml version="1.0" standalone="no"?>
<!DOCTYPE svg PUBLIC "-//W3C//DTD SVG 1.1//EN" "http://www.w3.org/Graphics/SVG/1.1/DTD/svg11.dtd" >
<svg xmlns="http://www.w3.org/2000/svg" xmlns:xlink="http://www.w3.org/1999/xlink" version="1.1" viewBox="-28 0 1040 1000">
  <g transform="matrix(1 0 0 -1 0 800)">
   <path fill="currentColor"
d="M1002 586l-64 -12l-39 -139h60v-77h-81l-13 -47h94v-77h-116l-68 -246h-128l-146 395l-4 24h-5l-2 -24l-141 -395h-128l-73 246h-119v77h97l-14 47h-84v77h61l-41 139l-66 13v61h301v-62l-82 -12l4 -16l91 -384l2 -24h5l4 24l132 368l-13 32l-66 13v61h301v-62l-82 -12
l5 -12l139 -388l2 -24h5l4 24l95 386l3 14l-86 12v62h256v-62z" />
  </g>

</svg>
