<?xml version="1.0" standalone="no"?>
<!DOCTYPE svg PUBLIC "-//W3C//DTD SVG 1.1//EN" "http://www.w3.org/Graphics/SVG/1.1/DTD/svg11.dtd" >
<svg xmlns="http://www.w3.org/2000/svg" xmlns:xlink="http://www.w3.org/1999/xlink" version="1.1" viewBox="-10 0 593 1000">
  <g transform="matrix(1 0 0 -1 0 800)">
   <path fill="currentColor"
d="M257 236v-50h123v-72h-123v-39l80 -19v-56h-302v56l80 19v39h-80v72h80v387l-80 19v56h282q133 0 194.5 -42.5t61.5 -149.5q0 -71 -31.5 -120.5t-85.5 -74.5t-121 -25h-78zM257 568v-258h16q58 0 90.5 14.5t46 46t13.5 86.5t-27.5 85t-83.5 30q-31 0 -55 -4z" />
  </g>

</svg>
