<?xml version="1.0" standalone="no"?>
<!DOCTYPE svg PUBLIC "-//W3C//DTD SVG 1.1//EN" "http://www.w3.org/Graphics/SVG/1.1/DTD/svg11.dtd" >
<svg xmlns="http://www.w3.org/2000/svg" xmlns:xlink="http://www.w3.org/1999/xlink" version="1.1" viewBox="-10 0 461 1000">
  <g transform="matrix(1 0 0 -1 0 800)">
   <path fill="currentColor"
d="M0 0zM0 -79l358 824l83 -37l-360 -824zM272 12.5q-20 20.5 -20 52.5t23 55.5t55 23.5q31 0 51 -19.5t20 -51.5q0 -33 -22 -57t-56 -24q-31 0 -51 20.5zM60 522.5q-20 20.5 -20 52.5t23 55.5t55 23.5q31 0 51 -19.5t20 -51.5q0 -33 -22 -57t-56 -24q-31 0 -51 20.5z" />
  </g>

</svg>
