<?xml version="1.0" standalone="no"?>
<!DOCTYPE svg PUBLIC "-//W3C//DTD SVG 1.1//EN" "http://www.w3.org/Graphics/SVG/1.1/DTD/svg11.dtd" >
<svg xmlns="http://www.w3.org/2000/svg" xmlns:xlink="http://www.w3.org/1999/xlink" version="1.1" viewBox="-10 0 607 1000">
  <g transform="matrix(1 0 0 -1 0 800)">
   <path fill="currentColor"
d="M96.5 61q-61.5 75 -61.5 199q0 76 32 138.5t91.5 99t140.5 36.5q140 0 201.5 -75t61.5 -199q0 -81 -31.5 -143t-90.5 -96.5t-141 -34.5q-141 0 -202.5 75zM385 125.5q27 43.5 27 133.5q0 98 -28.5 138.5t-85.5 40.5q-58 0 -85.5 -44t-27.5 -135q0 -177 113 -177
q60 0 87 43.5z" />
  </g>

</svg>
