<?xml version="1.0" standalone="no"?>
<!DOCTYPE svg PUBLIC "-//W3C//DTD SVG 1.1//EN" "http://www.w3.org/Graphics/SVG/1.1/DTD/svg11.dtd" >
<svg xmlns="http://www.w3.org/2000/svg" xmlns:xlink="http://www.w3.org/1999/xlink" version="1.1" viewBox="-10 0 557 1000">
  <g transform="matrix(1 0 0 -1 0 800)">
   <path fill="currentColor"
d="M91 358l37 50l100 81l33 -25l-45 -121l-36 -50zM93 515l-59 19l34 106l58 -20l107 -71l-13 -40zM219 686v62h109v-62l-35 -125h-39zM331 343l-45 121l33 25l100 -81l37 -50l-89 -65zM314 549l107 71l58 20l34 -106l-59 -19l-127 -6z" />
  </g>

</svg>
