<?xml version="1.0" standalone="no"?>
<!DOCTYPE svg PUBLIC "-//W3C//DTD SVG 1.1//EN" "http://www.w3.org/Graphics/SVG/1.1/DTD/svg11.dtd" >
<svg xmlns="http://www.w3.org/2000/svg" xmlns:xlink="http://www.w3.org/1999/xlink" version="1.1" viewBox="-10 0 661 1000">
  <g transform="matrix(1 0 0 -1 0 800)">
   <path fill="currentColor"
d="M365 -212q-57 0 -85 23.5t-28 62.5q0 28 17 46t45 18q29 0 43.5 -16.5t14.5 -40.5q0 -34 -19 -44v-4q5 -2 9.5 -2h9.5q27 0 42.5 22.5t15.5 72.5v408q0 59 -22 85.5t-71 26.5q-19 0 -37 -5t-32.5 -15.5t-23.5 -26.5t-9 -38v-301h61v-60h-256v60h64v371l-64 13v50l193 40
v-97h5q7 19 19.5 36.5t31 31t42.5 21.5t55 8q95 0 135 -48.5t40 -145.5v-353q0 -103 -51 -151t-145 -48z" />
  </g>

</svg>
