<?xml version="1.0" standalone="no"?>
<!DOCTYPE svg PUBLIC "-//W3C//DTD SVG 1.1//EN" "http://www.w3.org/Graphics/SVG/1.1/DTD/svg11.dtd" >
<svg xmlns="http://www.w3.org/2000/svg" xmlns:xlink="http://www.w3.org/1999/xlink" version="1.1" viewBox="-10 0 580 1000">
  <g transform="matrix(1 0 0 -1 0 800)">
   <path fill="currentColor"
d="M273 -212q-70 0 -116.5 8t-75 23.5t-40.5 37.5t-12 49q0 38 33 63t78 33v4q-34 8 -54 32.5t-20 62.5q0 44 29 69t70 34v5q-50 20 -77.5 58t-27.5 95q0 41 15.5 73t44 54t68 33.5t87.5 11.5q39 0 71 -8t59 -23q4 56 27.5 81.5t64.5 25.5q27 0 45 -15.5t18 -44.5
q0 -26 -17 -42.5t-46 -16.5q-16 0 -30 6t-23 18h-4v-36q23 -20 37.5 -48t14.5 -69t-16 -73.5t-44.5 -54.5t-68.5 -33.5t-88 -11.5q-35 0 -70 8q-17 -8 -28 -21.5t-11 -29.5q0 -22 16.5 -32.5t54.5 -10.5h117q103 0 148 -38t45 -104q0 -81 -68 -127t-206 -46zM276 250
q86 0 86 96v30q0 96 -86 96t-86 -96v-30q0 -96 86 -96zM137 -84q0 -68 114 -68h59q63 0 95.5 19t32.5 56q0 35 -23.5 48.5t-72.5 13.5h-166q-20 -12 -29.5 -28.5t-9.5 -40.5z" />
  </g>

</svg>
