<?xml version="1.0" standalone="no"?>
<!DOCTYPE svg PUBLIC "-//W3C//DTD SVG 1.1//EN" "http://www.w3.org/Graphics/SVG/1.1/DTD/svg11.dtd" >
<svg xmlns="http://www.w3.org/2000/svg" xmlns:xlink="http://www.w3.org/1999/xlink" version="1.1" viewBox="-10 0 702 1000">
  <g transform="matrix(1 0 0 -1 0 800)">
   <path fill="currentColor"
d="M453 -12q-42 0 -73.5 9t-53 24.5t-32.5 35.5t-11 41q0 30 18 49.5t47 19.5t44.5 -17.5t15.5 -43.5q0 -20 -8 -32.5t-19 -17.5v-5q14 -5 29 -7.5t36 -2.5q49 0 75 21t26 59q0 18 -4.5 31t-15 23t-28 18t-43.5 17l-24 9q-63 21 -94.5 57t-31.5 97q0 36 12.5 64t34.5 47.5
t51 31t61 13.5v37q0 65 -29.5 97t-85.5 32q-116 0 -116 -140v-555h-195v60h64v398h-64v64h64v10q0 108 62 168t185 60q61 0 106 -17.5t74.5 -47t44 -69t14.5 -83.5v-57h-45q-60 0 -90.5 -21.5t-30.5 -56.5q0 -17 4 -29.5t14 -22.5t27 -18t42 -17l25 -8q64 -20 96.5 -57
t32.5 -97q0 -36 -12.5 -67.5t-38 -54.5t-65.5 -36t-95 -13z" />
  </g>

</svg>
