<?xml version="1.0" standalone="no"?>
<!DOCTYPE svg PUBLIC "-//W3C//DTD SVG 1.1//EN" "http://www.w3.org/Graphics/SVG/1.1/DTD/svg11.dtd" >
<svg xmlns="http://www.w3.org/2000/svg" xmlns:xlink="http://www.w3.org/1999/xlink" version="1.1" viewBox="-10 0 644 1000">
  <g transform="matrix(1 0 0 -1 0 800)">
   <path fill="currentColor"
d="M390 -212q-75 0 -120 29.5t-45 78.5q0 31 18.5 50t47.5 19q30 0 46 -17t16 -43q0 -22 -9.5 -34.5t-20.5 -17.5v-4q19 -8 49 -8q52 0 83 34.5t31 111.5v40q0 67 -32 102.5t-99 35.5h-64v56l142 237h-209v-458h-195v60h64v514q0 88 55 137t151 49q38 0 65.5 -8t45.5 -22
t26.5 -32.5t8.5 -38.5q0 -31 -18.5 -50t-46.5 -19q-31 0 -47 18t-16 44q0 21 8 33t19 17v5q-6 1 -15 1.5t-19 0.5q-46 0 -66 -27.5t-20 -84.5v-75h359v-55l-159 -266q42 0 78 -10.5t62 -34t40.5 -59.5t14.5 -87q0 -55 -18.5 -96.5t-50 -69.5t-73 -42t-87.5 -14z" />
  </g>

</svg>
