<?xml version="1.0" standalone="no"?>
<!DOCTYPE svg PUBLIC "-//W3C//DTD SVG 1.1//EN" "http://www.w3.org/Graphics/SVG/1.1/DTD/svg11.dtd" >
<svg xmlns="http://www.w3.org/2000/svg" xmlns:xlink="http://www.w3.org/1999/xlink" version="1.1" viewBox="-10 0 364 1000">
  <g transform="matrix(1 0 0 -1 0 800)">
   <path fill="currentColor"
d="M41 60h64v371l-64 13v50l195 40v-474h64v-60h-259v60zM68 604q-32 0 -50 19t-18 47v4q0 28 18 47t50 19t50 -19t18 -47v-4q0 -28 -18 -47t-50 -19zM276 604q-32 0 -50 19t-18 47v4q0 28 18 47t50 19t50 -19t18 -47v-4q0 -28 -18 -47t-50 -19z" />
  </g>

</svg>
