<?xml version="1.0" standalone="no"?>
<!DOCTYPE svg PUBLIC "-//W3C//DTD SVG 1.1//EN" "http://www.w3.org/Graphics/SVG/1.1/DTD/svg11.dtd" >
<svg xmlns="http://www.w3.org/2000/svg" xmlns:xlink="http://www.w3.org/1999/xlink" version="1.1" viewBox="-10 0 771 1000">
  <g transform="matrix(1 0 0 -1 0 800)">
   <path fill="currentColor"
d="M210 95q-88 0 -138 53.5t-50 146.5t50 146.5t138 53.5q66 0 114.5 -37.5t63.5 -110.5h5q13 73 57 110.5t102 37.5q88 0 138 -53.5t50 -146.5t-50 -146.5t-138 -53.5q-66 0 -114.5 37.5t-63.5 110.5h-5q-13 -73 -57 -110.5t-102 -37.5zM230 170q43 0 72.5 32t46.5 86
q-14 60 -45 96t-74 36q-39 0 -61.5 -28.5t-22.5 -82.5v-28q0 -54 22.5 -82.5t61.5 -28.5zM532 170q39 0 61.5 28.5t22.5 82.5v28q0 54 -22.5 82.5t-61.5 28.5q-43 0 -72.5 -32t-46.5 -86q14 -60 45 -96t74 -36z" />
  </g>

</svg>
