<?xml version="1.0" standalone="no"?>
<!DOCTYPE svg PUBLIC "-//W3C//DTD SVG 1.1//EN" "http://www.w3.org/Graphics/SVG/1.1/DTD/svg11.dtd" >
<svg xmlns="http://www.w3.org/2000/svg" xmlns:xlink="http://www.w3.org/1999/xlink" version="1.1" viewBox="-10 0 644 1000">
  <g transform="matrix(1 0 0 -1 0 800)">
   <path fill="currentColor"
d="M279 -158q-89 0 -138 34t-49 88q0 30 19 52.5t53 22.5q31 0 49 -17.5t18 -46.5q0 -24 -11 -39.5t-28 -21.5v-5q20 -9 40.5 -12.5t43.5 -3.5h8.5t8.5 1v396q-50 0 -93.5 13.5t-76 39t-51 63.5t-18.5 88q0 49 18.5 87.5t51 64t76 39t93.5 13.5h282v-60h-71v-546
q0 -121 -59 -185.5t-166 -64.5zM355 -89q87 43 87 178v549h-87v-727z" />
  </g>

</svg>
