<?xml version="1.0" standalone="no"?>
<!DOCTYPE svg PUBLIC "-//W3C//DTD SVG 1.1//EN" "http://www.w3.org/Graphics/SVG/1.1/DTD/svg11.dtd" >
<svg xmlns="http://www.w3.org/2000/svg" xmlns:xlink="http://www.w3.org/1999/xlink" version="1.1" viewBox="-10 0 521 1000">
  <g transform="matrix(1 0 0 -1 0 800)">
   <path fill="currentColor"
d="M162 384q78 3 121.5 33.5t43.5 96.5v19q0 58 -32 88.5t-83 30.5q-43 0 -69 -13v-5q16 -7 26.5 -24t10.5 -37q0 -32 -19.5 -53.5t-54.5 -21.5t-55.5 22t-20.5 58q0 27 15 51t42.5 42t66 28.5t85.5 10.5q119 0 178 -50.5t59 -137.5q0 -48 -18.5 -84.5t-51 -62.5t-77 -41
t-96.5 -20v-90h-71v160zM198 -12q-39 0 -60.5 23t-21.5 56v5q0 33 21.5 56t60.5 23t60.5 -23t21.5 -56v-5q0 -33 -21.5 -56t-60.5 -23z" />
  </g>

</svg>
