<?xml version="1.0" standalone="no"?>
<!DOCTYPE svg PUBLIC "-//W3C//DTD SVG 1.1//EN" "http://www.w3.org/Graphics/SVG/1.1/DTD/svg11.dtd" >
<svg xmlns="http://www.w3.org/2000/svg" xmlns:xlink="http://www.w3.org/1999/xlink" version="1.1" viewBox="-10 0 506 1000">
  <g transform="matrix(1 0 0 -1 0 800)">
   <path fill="currentColor"
d="M134 466q-40 0 -61 23.5t-21 57.5v13q0 26 8.5 52t22.5 50.5t32 46t38 39.5h79q-72 -60 -91 -125h2q31 0 52 -20t21 -53v-5q0 -33 -21.5 -56t-60.5 -23zM358 466q-40 0 -61 23.5t-21 57.5v13q0 26 8.5 52t22.5 50.5t32 46t38 39.5h79q-72 -60 -91 -125h2q31 0 52 -20
t21 -53v-5q0 -33 -21.5 -56t-60.5 -23z" />
  </g>

</svg>
