<?xml version="1.0" standalone="no"?>
<!DOCTYPE svg PUBLIC "-//W3C//DTD SVG 1.1//EN" "http://www.w3.org/Graphics/SVG/1.1/DTD/svg11.dtd" >
<svg xmlns="http://www.w3.org/2000/svg" xmlns:xlink="http://www.w3.org/1999/xlink" version="1.1" viewBox="-10 0 488 1000">
  <g transform="matrix(1 0 0 -1 0 800)">
   <path fill="currentColor"
d="M41 60h64v371l-64 13v50l193 40v-97h5q7 19 18 36.5t26.5 31t35.5 21.5t45 8q48 0 75.5 -25t27.5 -69q0 -38 -19 -59t-53 -21t-52 18t-18 44q0 14 6 25t14 14v4q-4 1 -14 1q-17 0 -34 -9.5t-30.5 -24t-22 -32.5t-8.5 -36v-304h84v-60h-279v60z" />
  </g>

</svg>
