<?xml version="1.0" standalone="no"?>
<!DOCTYPE svg PUBLIC "-//W3C//DTD SVG 1.1//EN" "http://www.w3.org/Graphics/SVG/1.1/DTD/svg11.dtd" >
<svg xmlns="http://www.w3.org/2000/svg" xmlns:xlink="http://www.w3.org/1999/xlink" version="1.1" viewBox="-10 0 581 1000">
  <g transform="matrix(1 0 0 -1 0 800)">
   <path fill="currentColor"
d="M289 -12q-54 0 -98.5 18.5t-76.5 56.5t-49.5 95t-17.5 135q0 68 5.5 121t17 94t28 71.5t38.5 53.5q15 16 33 27.5t41 20t52.5 14.5t68.5 10q81 9 111 15l6 40h54q5 -18 5 -49q0 -30 -7.5 -51t-23.5 -37q-10 -10 -23 -18t-31.5 -14t-44.5 -10t-62 -7t-59.5 -6t-39.5 -7.5
t-26 -10.5t-19 -15q-21 -22 -34 -61t-18 -105h5q23 63 68 96t114 33q51 0 92.5 -17t71 -49t45.5 -78t16 -103q0 -58 -17 -106.5t-48.5 -83t-76.5 -54t-100 -19.5zM289 53q50 0 75.5 32.5t25.5 92.5v129q0 60 -25.5 92.5t-75.5 32.5t-75.5 -32.5t-25.5 -92.5v-129
q0 -60 25.5 -92.5t75.5 -32.5z" />
  </g>

</svg>
