<?xml version="1.0" standalone="no"?>
<!DOCTYPE svg PUBLIC "-//W3C//DTD SVG 1.1//EN" "http://www.w3.org/Graphics/SVG/1.1/DTD/svg11.dtd" >
<svg xmlns="http://www.w3.org/2000/svg" xmlns:xlink="http://www.w3.org/1999/xlink" version="1.1" viewBox="-10 0 667 1000">
  <g transform="matrix(1 0 0 -1 0 800)">
   <path fill="currentColor"
d="M289 171q-8 -1 -16 -1.5t-16 -0.5q-87 0 -127 41.5t-40 128.5v123h-64v60h252v-60h-57v-116q0 -46 16 -67.5t52 -26.5v107h62v-103q30 8 50 25.5t20 44.5v136h-57v60h252v-60h-64v-402h64v-60h-280v60h85v185h-5q-24 -37 -65 -57v-93h-62v76z" />
  </g>

</svg>
