<?xml version="1.0" standalone="no"?>
<!DOCTYPE svg PUBLIC "-//W3C//DTD SVG 1.1//EN" "http://www.w3.org/Graphics/SVG/1.1/DTD/svg11.dtd" >
<svg xmlns="http://www.w3.org/2000/svg" xmlns:xlink="http://www.w3.org/1999/xlink" version="1.1" viewBox="-10 0 758 1000">
  <g transform="matrix(1 0 0 -1 0 800)">
   <path fill="currentColor"
d="M374 -12q-70 0 -129 24t-102 70.5t-67 113.5t-24 153t24 153t67 113.5t102 70.5t129 24q49 0 93 -12h110v111h107v-74q0 -40 -20 -62t-63 -22h-36q61 -45 96 -121t35 -181q0 -86 -24 -153t-67 -113.5t-102 -70.5t-129 -24zM374 56q37 0 67.5 12.5t53 37t35 61.5t12.5 86
v192q0 49 -12.5 85.5t-35 61.5t-53 37.5t-67.5 12.5t-67.5 -12.5t-53 -37.5t-35 -61.5t-12.5 -85.5v-192q0 -49 12.5 -86t35 -61.5t53 -37t67.5 -12.5zM436 766q-20 0 -39 10t-36 19q-20 11 -37 21t-32 10t-26 -6t-31 -30l-33 33q25 40 48.5 64.5t61.5 24.5q20 0 39 -10
t36 -19q20 -11 37 -21t32 -10t26 6t31 30l33 -33q-25 -40 -48.5 -64.5t-61.5 -24.5z" />
  </g>

</svg>
