<?xml version="1.0" standalone="no"?>
<!DOCTYPE svg PUBLIC "-//W3C//DTD SVG 1.1//EN" "http://www.w3.org/Graphics/SVG/1.1/DTD/svg11.dtd" >
<svg xmlns="http://www.w3.org/2000/svg" xmlns:xlink="http://www.w3.org/1999/xlink" version="1.1" viewBox="-10 0 653 1000">
  <g transform="matrix(1 0 0 -1 0 800)">
   <path fill="currentColor"
d="M264 -12q-95 0 -135 48.5t-40 145.5v249l-64 13v50l195 40v-346q0 -59 22 -85.5t71 -26.5q19 0 37 5t32.5 15.5t23.5 26.5t9 38v270l-65 13v50l176 36v99h107v-71q0 -38 -20 -59.5t-63 -21.5h-4v-386l64 -13v-50l-193 -40v97h-5q-7 -19 -19.5 -36.5t-31 -31t-42.5 -21.5
t-55 -8zM375 602q-20 0 -39 10t-36 19q-20 11 -37 21t-32 10t-26 -6t-31 -30l-33 33q25 40 48.5 64.5t61.5 24.5q20 0 39 -10t36 -19q20 -11 37 -21t32 -10t26 6t31 30l33 -33q-25 -40 -48.5 -64.5t-61.5 -24.5z" />
  </g>

</svg>
