<?xml version="1.0" standalone="no"?>
<!DOCTYPE svg PUBLIC "-//W3C//DTD SVG 1.1//EN" "http://www.w3.org/Graphics/SVG/1.1/DTD/svg11.dtd" >
<svg xmlns="http://www.w3.org/2000/svg" xmlns:xlink="http://www.w3.org/1999/xlink" version="1.1" viewBox="-10 0 570 1000">
  <g transform="matrix(1 0 0 -1 0 800)">
   <path fill="currentColor"
d="M195 -12q-81 0 -120 39t-39 108q0 76 55.5 115t173.5 39h71v63q0 61 -25 92.5t-82 31.5q-44 0 -68 -13v-4q10 -6 19.5 -18.5t9.5 -34.5q0 -29 -17.5 -47.5t-51.5 -18.5q-29 0 -47.5 19t-18.5 50q0 24 13.5 46.5t40.5 40t66.5 28t91.5 10.5q100 0 150 -45.5t50 -127.5
v-302h64v-50q-15 -10 -40 -15.5t-51 -5.5q-50 0 -72 24.5t-22 62.5v3h-5q-7 -17 -18 -33t-28 -28.5t-41.5 -20.5t-58.5 -8zM246 68q40 0 65 19t25 64v84h-57q-60 0 -85.5 -21.5t-25.5 -61.5v-18q0 -34 21.5 -50t56.5 -16zM268 587q-41 0 -68.5 15t-47 39t-32.5 54t-23 60
l43 22l20 -34q18 -31 41 -45.5t67 -14.5t67 14.5t41 45.5l20 34l43 -22q-11 -30 -23.5 -60t-32 -54t-47.5 -39t-68 -15zM249 -191q-31 0 -50 18t-19 48v4q0 30 19 48t50 18t50 -18t19 -48v-4q0 -30 -19 -48t-50 -18z" />
  </g>

</svg>
