<?xml version="1.0" standalone="no"?>
<!DOCTYPE svg PUBLIC "-//W3C//DTD SVG 1.1//EN" "http://www.w3.org/Graphics/SVG/1.1/DTD/svg11.dtd" >
<svg xmlns="http://www.w3.org/2000/svg" xmlns:xlink="http://www.w3.org/1999/xlink" version="1.1" viewBox="-10 0 650 1000">
  <g transform="matrix(1 0 0 -1 0 800)">
   <path fill="currentColor"
d="M264 -12q-95 0 -135 48.5t-40 145.5v249l-64 13v50l195 40v-346q0 -59 22 -85.5t71 -26.5q19 0 37 5t32.5 15.5t23.5 26.5t9 38v270l-65 13v50l196 40v-443l64 -13v-50l-193 -40v97h-5q-7 -19 -19.5 -36.5t-31 -31t-42.5 -21.5t-55 -8zM310 -191q-31 0 -50 18t-19 48v4
q0 30 19 48t50 18t50 -18t19 -48v-4q0 -30 -19 -48t-50 -18z" />
  </g>

</svg>
