<?xml version="1.0" standalone="no"?>
<!DOCTYPE svg PUBLIC "-//W3C//DTD SVG 1.1//EN" "http://www.w3.org/Graphics/SVG/1.1/DTD/svg11.dtd" >
<svg xmlns="http://www.w3.org/2000/svg" xmlns:xlink="http://www.w3.org/1999/xlink" version="1.1" viewBox="-10 0 354 1000">
  <g transform="matrix(1 0 0 -1 0 800)">
   <path fill="currentColor"
d="M150 -6q-61 0 -93 22.5t-32 54.5q0 21 13 34t33 13q23 0 33.5 -13t10.5 -32q0 -22 -17 -31v-2q5 -2 15 -3.5t21 -1.5q72 0 72 59v12q0 30 -16.5 46.5t-54.5 16.5h-28v44h26q35 0 51 17t16 43v9q0 27 -16.5 39t-43.5 12q-21 0 -33 -5v-2q17 -9 17 -31q0 -19 -10.5 -32
t-33.5 -13q-20 0 -33 13t-13 34q0 32 34 54.5t87 22.5q69 0 106.5 -23t37.5 -69q0 -35 -26 -57.5t-61 -27.5v-6q38 -5 66 -27t28 -62q0 -51 -42.5 -79.5t-113.5 -28.5z" />
  </g>

</svg>
