<?xml version="1.0" standalone="no"?>
<!DOCTYPE svg PUBLIC "-//W3C//DTD SVG 1.1//EN" "http://www.w3.org/Graphics/SVG/1.1/DTD/svg11.dtd" >
<svg xmlns="http://www.w3.org/2000/svg" xmlns:xlink="http://www.w3.org/1999/xlink" version="1.1" viewBox="-10 0 826 1000">
  <g transform="matrix(1 0 0 -1 0 800)">
   <path fill="currentColor"
d="M164 324q-66 0 -96 22.5t-30 54.5q0 21 13 34t33 13q23 0 33.5 -13t10.5 -32q0 -22 -17 -31v-2q12 -5 41 -5q32 0 49.5 16.5t17.5 47.5v10q0 35 -17 52t-46 17q-20 0 -32 -9t-20 -21l-52 13l14 207h229v-77h-193l-7 -117h5q9 22 32 41.5t66 19.5q57 0 88 -30.5t31 -85.5
q0 -60 -43.5 -92.5t-109.5 -32.5zM649 698h75l-513 -698h-75zM642 -6q-72 0 -111 40t-39 108q0 51 18 92.5t49 71t73 47t90 21.5l14 -37q-68 -17 -103 -51.5t-44 -91.5l6 -2q9 20 28.5 34t57.5 14q50 0 79.5 -29.5t29.5 -86.5t-39 -93.5t-109 -36.5zM641 41q30 0 41 18.5
t11 49.5v15q0 31 -11 49.5t-41 18.5t-41 -18.5t-11 -49.5v-15q0 -31 11 -49.5t41 -18.5z" />
  </g>

</svg>
