<?xml version="1.0" standalone="no"?>
<!DOCTYPE svg PUBLIC "-//W3C//DTD SVG 1.1//EN" "http://www.w3.org/Graphics/SVG/1.1/DTD/svg11.dtd" >
<svg xmlns="http://www.w3.org/2000/svg" xmlns:xlink="http://www.w3.org/1999/xlink" version="1.1" viewBox="-10 0 364 1000">
  <g transform="matrix(1 0 0 -1 0 800)">
   <path fill="currentColor"
d="M79 361q68 17 103 51.5t44 91.5l-6 2q-9 -20 -28.5 -34t-57.5 -14q-50 0 -79.5 29.5t-29.5 86.5t39 93.5t109 36.5q72 0 111 -40t39 -108q0 -51 -18 -92.5t-49 -71t-73 -47t-90 -21.5zM174 506q30 0 41 18.5t11 49.5v15q0 31 -11 49.5t-41 18.5t-41 -18.5t-11 -49.5v-15
q0 -31 11 -49.5t41 -18.5z" />
  </g>

</svg>
