<?xml version="1.0" standalone="no"?>
<!DOCTYPE svg PUBLIC "-//W3C//DTD SVG 1.1//EN" "http://www.w3.org/Graphics/SVG/1.1/DTD/svg11.dtd" >
<svg xmlns="http://www.w3.org/2000/svg" xmlns:xlink="http://www.w3.org/1999/xlink" version="1.1" viewBox="-10 0 652 1000">
  <g transform="matrix(1 0 0 -1 0 800)">
   <path fill="currentColor"
d="M532 -210q-45 0 -76.5 19t-31.5 63t32.5 76.5t85.5 60.5l-1 5l-124 -26v97h-5q-7 -19 -19.5 -36.5t-31 -31t-42.5 -21.5t-55 -8q-95 0 -135 48.5t-40 145.5v249l-64 13v50l195 40v-346q0 -59 22 -85.5t71 -26.5q19 0 37 5t32.5 15.5t23.5 26.5t9 38v270l-65 13v50l196 40
v-443l64 -13v-50q-32 -22 -51.5 -42t-29.5 -37.5t-13 -32.5t-3 -26q0 -21 12 -32.5t32 -11.5q26 0 44 21l31 -33q-14 -20 -38 -32t-62 -12z" />
  </g>

</svg>
