<?xml version="1.0" standalone="no"?>
<!DOCTYPE svg PUBLIC "-//W3C//DTD SVG 1.1//EN" "http://www.w3.org/Graphics/SVG/1.1/DTD/svg11.dtd" >
<svg xmlns="http://www.w3.org/2000/svg" xmlns:xlink="http://www.w3.org/1999/xlink" version="1.1" viewBox="-10 0 755 1000">
  <g transform="matrix(1 0 0 -1 0 800)">
   <path fill="currentColor"
d="M483 0l-12.4297 125h-197l-49.5703 -125h-224l312.38 700h314l92.6201 -700h-236zM432.08 520l-103.12 -257h128zM359.78 895c76 0 105.49 -25 97.2002 -84c-8.15039 -58 -44.6602 -83 -120.66 -83c-77 0 -105.49 25 -97.3398 83c8.29004 59 43.7998 84 120.8 84z
M635.78 895c76 0 105.49 -25 97.2002 -84c-8.15039 -58 -44.6602 -83 -120.66 -83c-77 0 -105.49 25 -97.3398 83c8.29004 59 43.7998 84 120.8 84z" />
  </g>

</svg>
