<?xml version="1.0" standalone="no"?>
<!DOCTYPE svg PUBLIC "-//W3C//DTD SVG 1.1//EN" "http://www.w3.org/Graphics/SVG/1.1/DTD/svg11.dtd" >
<svg xmlns="http://www.w3.org/2000/svg" xmlns:xlink="http://www.w3.org/1999/xlink" version="1.1" viewBox="-10 0 739 1000">
  <g transform="matrix(1 0 0 -1 0 800)">
   <path fill="currentColor"
d="M483 0l-12.4297 125h-197l-49.5703 -125h-224l312.38 700h314l92.6201 -700h-236zM432.08 520l-103.12 -257h128zM506.07 954c94 0 129.22 -34 118.26 -112s-55.5996 -111 -149.6 -111s-129.36 33 -118.4 111s55.7402 112 149.74 112zM484.99 804
c24 0 36.6904 12 40.3408 38s-5.65918 38 -29.6592 38s-36.6904 -12 -40.3408 -38s5.65918 -38 29.6592 -38z" />
  </g>

</svg>
