<?xml version="1.0" standalone="no"?>
<!DOCTYPE svg PUBLIC "-//W3C//DTD SVG 1.1//EN" "http://www.w3.org/Graphics/SVG/1.1/DTD/svg11.dtd" >
<svg xmlns="http://www.w3.org/2000/svg" xmlns:xlink="http://www.w3.org/1999/xlink" version="1.1" viewBox="-10 0 710 1000">
  <g transform="matrix(1 0 0 -1 0 800)">
   <path fill="currentColor"
d="M668.58 552h-307.01l-16.5801 -118h267l-20.9404 -149h-267l-19.25 -137h307l-20.7998 -148h-531l98.3799 700h531zM312.78 895c77 0 106.49 -25 98.2002 -84c-8.15039 -58 -44.6602 -83 -121.66 -83c-76 0 -105.49 25 -97.3398 83c8.29004 59 44.7998 84 120.8 84z
M588.78 895c77 0 106.49 -25 98.2002 -84c-8.15039 -58 -44.6602 -83 -121.66 -83c-76 0 -105.49 25 -97.3398 83c8.29004 59 44.7998 84 120.8 84z" />
  </g>

</svg>
