<?xml version="1.0" standalone="no"?>
<!DOCTYPE svg PUBLIC "-//W3C//DTD SVG 1.1//EN" "http://www.w3.org/Graphics/SVG/1.1/DTD/svg11.dtd" >
<svg xmlns="http://www.w3.org/2000/svg" xmlns:xlink="http://www.w3.org/1999/xlink" version="1.1" viewBox="-10 0 845 1000">
  <g transform="matrix(1 0 0 -1 0 800)">
   <path fill="currentColor"
d="M446.65 275l19.3906 138h358l-8.84961 -63c-36.4004 -259 -159 -370 -410 -370c-264 0 -362.4 111 -326 370s166 370 430 370c210 0 304.88 -72 314.27 -240h-212c-6.12988 56 -42.6201 81 -124.62 81c-100 0 -150.85 -63 -171.649 -211
c-20.6602 -147 13.3496 -211 112.35 -211c102 0 151.76 41 165.109 136h-146zM703.271 870c-11.8096 -84 -68.8691 -120 -189.869 -120s-166.94 36 -155.131 120h144c-3.37012 -24 4.08008 -35 24.9404 -36c18.1396 1 27.6895 12 31.0596 36h145z" />
  </g>

</svg>
