<?xml version="1.0" standalone="no"?>
<!DOCTYPE svg PUBLIC "-//W3C//DTD SVG 1.1//EN" "http://www.w3.org/Graphics/SVG/1.1/DTD/svg11.dtd" >
<svg xmlns="http://www.w3.org/2000/svg" xmlns:xlink="http://www.w3.org/1999/xlink" version="1.1" viewBox="-10 0 862 1000">
  <g transform="matrix(1 0 0 -1 0 800)">
   <path fill="currentColor"
d="M382.38 700l-33.8799 -241l224.87 241h268l-316.78 -340l238.41 -360h-268l-174.04 263l-36.96 -263h-224l98.3799 700h224zM368.51 -39c62 0 69.2412 -41 62.0713 -92c-12.0898 -86 -58.29 -123 -157.29 -123l8.84961 63c37 0 54.5498 11 58.3398 38
c-45 0 -60.75 16 -55.6904 52c6.88965 49 37.7197 62 83.7197 62z" />
  </g>

</svg>
