<?xml version="1.0" standalone="no"?>
<!DOCTYPE svg PUBLIC "-//W3C//DTD SVG 1.1//EN" "http://www.w3.org/Graphics/SVG/1.1/DTD/svg11.dtd" >
<svg xmlns="http://www.w3.org/2000/svg" xmlns:xlink="http://www.w3.org/1999/xlink" version="1.1" viewBox="-10 0 837 1000">
  <g transform="matrix(1 0 0 -1 0 800)">
   <path fill="currentColor"
d="M604.38 700h212l-98.3799 -700h-256l-129.01 434l-60.9902 -434h-212l98.3799 700h256l129.01 -434zM321.81 760c9.83984 70 57.5996 111 120.6 111c93 0 93.3896 -47 130.39 -47c18 0 27.1201 8 30.6504 26h76c-9.83984 -70 -57.5996 -111 -120.6 -111
c-93 0 -94.3896 47 -131.39 47c-19 0 -27.1201 -8 -28.6504 -26h-77z" />
  </g>

</svg>
