<?xml version="1.0" standalone="no"?>
<!DOCTYPE svg PUBLIC "-//W3C//DTD SVG 1.1//EN" "http://www.w3.org/Graphics/SVG/1.1/DTD/svg11.dtd" >
<svg xmlns="http://www.w3.org/2000/svg" xmlns:xlink="http://www.w3.org/1999/xlink" version="1.1" viewBox="-10 0 863 1000">
  <g transform="matrix(1 0 0 -1 0 800)">
   <path fill="currentColor"
d="M509.19 720c265 0 362.4 -111 326 -370s-165 -370 -430 -370c-264 0 -362.4 111 -326 370s166 370 430 370zM486.841 561c-99 0 -150.99 -64 -171.65 -211s13.3496 -211 112.35 -211c100 0 151.99 64 172.65 211s-13.3496 211 -113.35 211zM703.271 870
c-11.8096 -84 -68.8691 -120 -189.869 -120s-166.94 36 -155.131 120h144c-3.37012 -24 3.93945 -36 22.9395 -36c20 0 29.6904 12 33.0605 36h145z" />
  </g>

</svg>
