<?xml version="1.0" standalone="no"?>
<!DOCTYPE svg PUBLIC "-//W3C//DTD SVG 1.1//EN" "http://www.w3.org/Graphics/SVG/1.1/DTD/svg11.dtd" >
<svg xmlns="http://www.w3.org/2000/svg" xmlns:xlink="http://www.w3.org/1999/xlink" version="1.1" viewBox="-10 0 863 1000">
  <g transform="matrix(1 0 0 -1 0 800)">
   <path fill="currentColor"
d="M504.19 720c25 0 44.8486 -1 62.709 -2l30.71 62h133l-41.9502 -85c128.54 -46 173.08 -156 146.521 -345c-36.4004 -259 -165 -370 -428 -370c-25 0 -46.8604 1 -66.5801 3l-30.8496 -63h-133l42.3701 88c-123.39 47 -165.93 157 -139.93 342
c36.4004 259 166 370 425 370zM486.829 561c-99 0 -150.989 -64 -172.629 -218c-12.2305 -87 -13.6904 -197 102.329 -204h11c100 0 151.99 64 173.49 217c13.21 94 12.8096 205 -111.19 205h-3zM393.39 750l103.86 120h189l-137.86 -120h-155z" />
  </g>

</svg>
