<?xml version="1.0" standalone="no"?>
<!DOCTYPE svg PUBLIC "-//W3C//DTD SVG 1.1//EN" "http://www.w3.org/Graphics/SVG/1.1/DTD/svg11.dtd" >
<svg xmlns="http://www.w3.org/2000/svg" xmlns:xlink="http://www.w3.org/1999/xlink" version="1.1" viewBox="-10 0 774 1000">
  <g transform="matrix(1 0 0 -1 0 800)">
   <path fill="currentColor"
d="M370.85 248h-52l-34.8496 -248h-224l98.3799 700h337c206 0 272.12 -113 255.54 -231c-12.79 -91 -63.9102 -163 -164.83 -198l122.91 -271h-235zM338.239 386h101.01c49 0 81.4805 39 87.6602 83s-15.3398 83 -64.3398 83h-101zM368.519 -39
c62 0 69.2412 -41 62.0713 -92c-12.0898 -86 -58.29 -123 -157.29 -123l8.84961 63c37 0 54.5498 11 58.3398 38c-45 0 -60.75 16 -55.6904 52c6.88965 49 37.7197 62 83.7197 62z" />
  </g>

</svg>
