<?xml version="1.0" standalone="no"?>
<!DOCTYPE svg PUBLIC "-//W3C//DTD SVG 1.1//EN" "http://www.w3.org/Graphics/SVG/1.1/DTD/svg11.dtd" >
<svg xmlns="http://www.w3.org/2000/svg" xmlns:xlink="http://www.w3.org/1999/xlink" version="1.1" viewBox="-10 0 730 1000">
  <g transform="matrix(1 0 0 -1 0 800)">
   <path fill="currentColor"
d="M326.08 520c-14.3398 -102 387.8 -37 349.71 -308c-22.7695 -162 -124.609 -232 -340.609 -232c-215 0 -298.72 66 -277.08 220h202c-8.00977 -57 20.4805 -82 94.4805 -82c66 0 98.5303 18 104.71 62c18.6904 133 -385.85 58 -350.71 308
c22.7695 162 122.609 232 330.609 232c209 0 288.72 -66 267.08 -220h-201c8.00977 57 -17.4805 82 -85.4805 82c-59 0 -87.6699 -19 -93.71 -62z" />
  </g>

</svg>
