<?xml version="1.0" standalone="no"?>
<!DOCTYPE svg PUBLIC "-//W3C//DTD SVG 1.1//EN" "http://www.w3.org/Graphics/SVG/1.1/DTD/svg11.dtd" >
<svg xmlns="http://www.w3.org/2000/svg" xmlns:xlink="http://www.w3.org/1999/xlink" version="1.1" viewBox="-10 0 805 1000">
  <g transform="matrix(1 0 0 -1 0 800)">
   <path fill="currentColor"
d="M86.6797 261l61.7002 439h224l-61.7002 -439c-11.9502 -85 10.8496 -122 76.8496 -122c65 0 99.2002 37 111.15 122l61.7002 439h224l-61.7002 -439c-27.6904 -197 -135.5 -281 -357.5 -281c-223 0 -306.19 84 -278.5 281zM496.31 913c93 0 129.22 -34 118.26 -112
s-56.5996 -111 -149.6 -111c-94 0 -129.36 33 -118.4 111s55.7402 112 149.74 112zM475.369 764c24 0 35.5498 11 39.2002 37c3.79004 27 -4.66016 38 -28.6602 38s-36.5498 -11 -40.3398 -38c-3.65039 -26 5.7998 -37 29.7998 -37z" />
  </g>

</svg>
