<?xml version="1.0" standalone="no"?>
<!DOCTYPE svg PUBLIC "-//W3C//DTD SVG 1.1//EN" "http://www.w3.org/Graphics/SVG/1.1/DTD/svg11.dtd" >
<svg xmlns="http://www.w3.org/2000/svg" xmlns:xlink="http://www.w3.org/1999/xlink" version="1.1" viewBox="-10 0 667 1000">
  <g transform="matrix(1 0 0 -1 0 800)">
   <path fill="currentColor"
d="M239.6 -10c-155 0 -210.03 78 -184.45 260s102.54 260 257.54 260c68 0 116.89 -15 148.39 -47l29.2002 37h156l-70.2695 -500h-156l-18.7998 37c-40.5 -32 -93.6104 -47 -161.61 -47zM315.999 128c53 0 81.0596 36 93.1494 122s-5.85059 122 -58.8506 122
c-54 0 -82.0596 -36 -94.1494 -122s5.85059 -122 59.8506 -122zM281.419 750c77 0 104.78 -30 94.9404 -100c-9.7002 -69 -46.9199 -99 -122.92 -99c-77 0 -104.92 29 -95.0801 99s46.0596 100 123.06 100zM539.419 750c77 0 105.78 -30 95.9404 -100
c-9.7002 -69 -46.9199 -99 -123.92 -99s-104.92 29 -95.0801 99s47.0596 100 123.06 100z" />
  </g>

</svg>
