<?xml version="1.0" standalone="no"?>
<!DOCTYPE svg PUBLIC "-//W3C//DTD SVG 1.1//EN" "http://www.w3.org/Graphics/SVG/1.1/DTD/svg11.dtd" >
<svg xmlns="http://www.w3.org/2000/svg" xmlns:xlink="http://www.w3.org/1999/xlink" version="1.1" viewBox="-10 0 951 1000">
  <g transform="matrix(1 0 0 -1 0 800)">
   <path fill="currentColor"
d="M562.97 199c-9.13965 -65 9.93066 -93 63.9307 -93c39 0 62.3896 17 75.7295 55h190c-36.8604 -120 -122.03 -171 -282.03 -171c-100 0 -158.5 32 -180.38 104c-39.1201 -72 -109.62 -104 -220.62 -104c-134 0 -184.25 48 -168.37 161c21.0801 150 153.89 170 274.89 170
h63l2.66992 19c5.48047 39 -8.40918 54 -42.4092 54c-40 0 -55.8301 -13 -60.1904 -44h-190c15.7402 112 96.4902 160 270.49 160c77 0 127.61 -17 154.41 -54c41.2002 37 96.5898 54 169.59 54c195 0 267.04 -78 241.6 -259l-7.30957 -52h-355zM364.23 215h-35.9893
c-54 0 -79.25 -16 -84.5898 -54c-4.5 -32 6.80957 -44 40.8096 -44c50 0 69.5098 25 77.7998 84zM732.892 305h1c8.70996 62 -10.5 89 -64.5 89s-80.79 -27 -89.5 -89h153zM451.321 550l106.08 150h200l-151.08 -150h-155z" />
  </g>

</svg>
