<?xml version="1.0" standalone="no"?>
<!DOCTYPE svg PUBLIC "-//W3C//DTD SVG 1.1//EN" "http://www.w3.org/Graphics/SVG/1.1/DTD/svg11.dtd" >
<svg xmlns="http://www.w3.org/2000/svg" xmlns:xlink="http://www.w3.org/1999/xlink" version="1.1" viewBox="-10 0 527 1000">
  <g transform="matrix(1 0 0 -1 0 800)">
   <path fill="currentColor"
d="M290.24 144l-22.4883 -160c-4.78027 -34 8.5293 -46 41.5293 -46h90l-19.3896 -138h-136c-116 0 -162.11 49 -146.37 161l25.0195 178c6.45996 46 -22.8496 58 -64.8496 58l16.2998 116c42 0 74.6904 12 81.1504 58l23.6104 168c15.7402 112 75.6299 161 191.63 161h136
l-19.3896 -138h-89c-34 0 -50.6904 -12 -55.4707 -46l-21.0801 -150c-8.29004 -59 -31.0703 -93 -65.6006 -111c29.4697 -18 42.6895 -52 34.3994 -111z" />
  </g>

</svg>
