<?xml version="1.0" standalone="no"?>
<!DOCTYPE svg PUBLIC "-//W3C//DTD SVG 1.1//EN" "http://www.w3.org/Graphics/SVG/1.1/DTD/svg11.dtd" >
<svg xmlns="http://www.w3.org/2000/svg" xmlns:xlink="http://www.w3.org/1999/xlink" version="1.1" viewBox="-39 0 470 1000">
  <g transform="matrix(1 0 0 -1 0 800)">
   <path fill="currentColor"
d="M134.75 -16l22.4883 160c8.29004 59 31.0703 93 66.6006 111c-30.4697 18 -43.6895 52 -35.3994 111l21.0801 150c4.78027 34 -6.5293 46 -40.5293 46h-90l19.3896 138h135c119 0 163.25 -48 147.37 -161l-23.6104 -168c-6.45996 -46 21.8496 -58 63.8496 -58
l-16.2998 -116c-42 0 -73.6904 -12 -80.1504 -58l-25.0195 -178c-15.8799 -113 -73.6299 -161 -192.63 -161h-135l19.3896 138h90c33 0 48.6904 12 53.4707 46z" />
  </g>

</svg>
