<?xml version="1.0" standalone="no"?>
<!DOCTYPE svg PUBLIC "-//W3C//DTD SVG 1.1//EN" "http://www.w3.org/Graphics/SVG/1.1/DTD/svg11.dtd" >
<svg xmlns="http://www.w3.org/2000/svg" xmlns:xlink="http://www.w3.org/1999/xlink" version="1.1" viewBox="-10 0 874 1000">
  <g transform="matrix(1 0 0 -1 0 800)">
   <path fill="currentColor"
d="M239.09 -10c-154.62 0.169922 -209.499 78.2002 -183.949 260c25.5801 182 102.54 260 257.54 260c55 0 97.5898 -10 128.64 -31l31.0596 221h202l-98.3799 -700h-156l-19.7998 37c-40.4004 -31.9199 -93.3506 -46.9297 -161.11 -47zM315.99 128
c53 0 81.0596 36 93.1494 122s-5.85059 122 -58.8506 122c-54 0 -82.0596 -36 -94.1494 -122s5.85059 -122 59.8506 -122zM788.78 710c62 0 69.2412 -41 62.0713 -92c-12.0898 -86 -58.29 -123 -157.29 -123l8.84961 63c37 0 54.5498 11 58.3398 38
c-45 0 -60.75 16 -55.6904 52c6.88965 49 37.7197 62 83.7197 62z" />
  </g>

</svg>
