<?xml version="1.0" standalone="no"?>
<!DOCTYPE svg PUBLIC "-//W3C//DTD SVG 1.1//EN" "http://www.w3.org/Graphics/SVG/1.1/DTD/svg11.dtd" >
<svg xmlns="http://www.w3.org/2000/svg" xmlns:xlink="http://www.w3.org/1999/xlink" version="1.1" viewBox="-10 0 707 1000">
  <g transform="matrix(1 0 0 -1 0 800)">
   <path fill="currentColor"
d="M180.71 368c-43.9199 29 -57.46 75 -48.3203 140c20.7998 148 112.79 212 305.79 212c192 0 266.01 -64 245.21 -212c-9.13965 -65 -37.5996 -111 -89.6797 -140c63.6396 -31 87.0498 -85 75.5303 -167c-21.7803 -155 -123.061 -221 -336.061 -221
c-214 0 -296.72 66 -274.939 221c11.5195 82 50.1094 136 122.47 167zM351.57 118c72 0 107.94 28 116.511 89c8.84961 63 -19.5 89 -91.5 89c-73 0 -107.51 -25 -116.5 -89c-8.57031 -61 18.4893 -89 91.4893 -89zM418.78 582c-60 0 -89.5098 -25 -97.0996 -79
c-8.15039 -58 14.7598 -80 74.7598 -80c59 0 88.0898 22 96.2402 80c7.58984 54 -14.9004 79 -73.9004 79z" />
  </g>

</svg>
