<?xml version="1.0" standalone="no"?>
<!DOCTYPE svg PUBLIC "-//W3C//DTD SVG 1.1//EN" "http://www.w3.org/Graphics/SVG/1.1/DTD/svg11.dtd" >
<svg xmlns="http://www.w3.org/2000/svg" xmlns:xlink="http://www.w3.org/1999/xlink" version="1.1" viewBox="-10 0 522 1000">
  <g transform="matrix(1 0 0 -1 0 800)">
   <path fill="currentColor"
d="M394.33 351c-73 0 -96.3799 -17 -108.189 -101l-35.1396 -250h-201l70.2695 500h156l20.3799 -40c36.6396 33 79.0293 50 120.029 50h85l-22.3496 -159h-85zM148.53 -39c62 0 69.2412 -41 62.0713 -92c-12.0898 -86 -58.29 -123 -157.29 -123l8.84961 63
c37 0 54.5498 11 58.3398 38c-45 0 -60.75 16 -55.6904 52c6.88965 49 37.7197 62 83.7197 62z" />
  </g>

</svg>
