<?xml version="1.0" standalone="no"?>
<!DOCTYPE svg PUBLIC "-//W3C//DTD SVG 1.1//EN" "http://www.w3.org/Graphics/SVG/1.1/DTD/svg11.dtd" >
<svg xmlns="http://www.w3.org/2000/svg" xmlns:xlink="http://www.w3.org/1999/xlink" version="1.1" viewBox="-10 0 653 1000">
  <g transform="matrix(1 0 0 -1 0 800)">
   <path fill="currentColor"
d="M383.35 31c-35.9404 -28 -82.7617 -41 -142.762 -41c-142 0 -191.88 72 -168.27 240l37.9502 270h201l-37.9502 -270c-10.1201 -72 3.66016 -102 43.6602 -102c41 0 59.5 32 69.9004 106l37.3799 266h202l-70.2695 -500h-156zM276.408 750c77 0 104.78 -30 94.9404 -100
c-9.7002 -69 -46.9199 -99 -122.92 -99c-77 0 -104.92 29 -95.0801 99s46.0596 100 123.06 100zM534.408 750c77 0 105.78 -30 95.9404 -100c-9.7002 -69 -46.9199 -99 -123.92 -99s-104.92 29 -95.0801 99s47.0596 100 123.06 100z" />
  </g>

</svg>
