<?xml version="1.0" standalone="no"?>
<!DOCTYPE svg PUBLIC "-//W3C//DTD SVG 1.1//EN" "http://www.w3.org/Graphics/SVG/1.1/DTD/svg11.dtd" >
<svg xmlns="http://www.w3.org/2000/svg" xmlns:xlink="http://www.w3.org/1999/xlink" version="1.1" viewBox="-10 0 530 1000">
  <g transform="matrix(1 0 0 -1 0 800)">
   <path fill="currentColor"
d="M327.86 184c-3.94043 -28 11.5303 -46 35.5303 -46h95l-19.3896 -138h-175c-101 0 -155.43 61 -141.09 163l31.0596 221h-80l16.2998 116h80l18.4102 131h202l-18.4102 -131h137l-16.2998 -116h-137zM257.521 -39c62 0 69.2412 -41 62.0713 -92
c-12.0898 -86 -58.29 -123 -157.29 -123l8.84961 63c37 0 54.5498 11 58.3398 38c-45 0 -60.75 16 -55.6904 52c6.88965 49 37.7197 62 83.7197 62z" />
  </g>

</svg>
