<?xml version="1.0" standalone="no"?>
<!DOCTYPE svg PUBLIC "-//W3C//DTD SVG 1.1//EN" "http://www.w3.org/Graphics/SVG/1.1/DTD/svg11.dtd" >
<svg xmlns="http://www.w3.org/2000/svg" xmlns:xlink="http://www.w3.org/1999/xlink" version="1.1" viewBox="-10 0 969 1000">
  <g transform="matrix(1 0 0 -1 0 800)">
   <path fill="currentColor"
d="M743 0h-246l-4.79004 343l-101.21 -343h-246l-64.7305 500h202l19.3203 -325l95.6797 325h246l-4.26953 -315l107.27 315h202zM419.41 750c77 0 104.78 -30 94.9404 -100c-9.7002 -69 -46.9199 -99 -122.92 -99c-77 0 -104.92 29 -95.0801 99s46.0596 100 123.06 100z
M677.41 750c77 0 105.78 -30 95.9404 -100c-9.7002 -69 -46.9199 -99 -123.92 -99s-104.92 29 -95.0801 99s47.0596 100 123.06 100z" />
  </g>

</svg>
