<?xml version="1.0" standalone="no"?>
<!DOCTYPE svg PUBLIC "-//W3C//DTD SVG 1.1//EN" "http://www.w3.org/Graphics/SVG/1.1/DTD/svg11.dtd" >
<svg xmlns="http://www.w3.org/2000/svg" xmlns:xlink="http://www.w3.org/1999/xlink" version="1.1" viewBox="-10 0 746 1000">
  <g transform="matrix(1 0 0 -1 0 800)">
   <path fill="currentColor"
d="M50 261v439h224v-439c0 -85 28 -122 94 -122s94 37 94 122v439h224v-439c0 -197 -95 -281 -318 -281s-318 84 -318 281zM230 896c76 0 109 -25 109 -84c0 -58 -33 -83 -109 -83c-77 0 -109 25 -109 83c0 59 32 84 109 84zM506 896c76 0 109 -25 109 -84
c0 -58 -33 -83 -109 -83c-77 0 -109 25 -109 83c0 59 32 84 109 84z" />
  </g>

</svg>
