<?xml version="1.0" standalone="no"?>
<!DOCTYPE svg PUBLIC "-//W3C//DTD SVG 1.1//EN" "http://www.w3.org/Graphics/SVG/1.1/DTD/svg11.dtd" >
<svg xmlns="http://www.w3.org/2000/svg" xmlns:xlink="http://www.w3.org/1999/xlink" version="1.1" viewBox="-10 0 606 1000">
  <g transform="matrix(1 0 0 -1 0 800)">
   <path fill="currentColor"
d="M324.11 -10h-26.1201c-195 0 -278 78 -278 260s83 260 278 260c194 0 278 -78 278 -259v-52h-357c0 -67 32 -93 79 -93c40 0 61 17 68 55h190c-13 -72 -46 -119 -104 -145c-46 -38 -73 -107 -21 -107c16 0 36 10 36 10v-149s-30 -20 -70 -20
c-116.59 0 -157.71 144 -72.8799 240zM294.99 394c-47 0 -75 -34 -75 -89h153c0 62 -25 89 -78 89z" />
  </g>

</svg>
