<?xml version="1.0" standalone="no"?>
<!DOCTYPE svg PUBLIC "-//W3C//DTD SVG 1.1//EN" "http://www.w3.org/Graphics/SVG/1.1/DTD/svg11.dtd" >
<svg xmlns="http://www.w3.org/2000/svg" xmlns:xlink="http://www.w3.org/1999/xlink" version="1.1" viewBox="-10 0 704 1000">
  <g transform="matrix(1 0 0 -1 0 800)">
   <path fill="currentColor"
d="M340 720c137 0 294 -21 294 -190c0 -68 -22 -107 -77 -141c75 -36 107 -90 107 -178c0 -148 -71 -211 -227 -211c-82 0 -111 20 -111 20v127s26 -9 54 -9c58 0 83 23 83 81c0 67 -35 96 -117 96v126c68 0 98 20 98 66c0 53 -28 75 -92 75c-74 0 -101 -43 -101 -104v-478
h-201v469c0 183 119 251 290 251z" />
  </g>

</svg>
