<?xml version="1.0" standalone="no"?>
<!DOCTYPE svg PUBLIC "-//W3C//DTD SVG 1.1//EN" "http://www.w3.org/Graphics/SVG/1.1/DTD/svg11.dtd" >
<svg xmlns="http://www.w3.org/2000/svg" xmlns:xlink="http://www.w3.org/1999/xlink" version="1.1" viewBox="-10 0 499 1000">
  <g transform="matrix(1 0 0 -1 0 800)">
   <path fill="currentColor"
d="M302 184c0 -28 18 -46 42 -46h95v-138h-175c-101 0 -164 61 -164 163v221h-80v116h80v131h202v-131h137v-116h-137v-200zM404 734c62 0 75 -41 75 -92c0 -86 -41 -123 -140 -123v63c37 0 53 11 53 38c-45 0 -63 16 -63 52c0 49 29 62 75 62z" />
  </g>

</svg>
