<?xml version="1.0" standalone="no"?>
<!DOCTYPE svg PUBLIC "-//W3C//DTD SVG 1.1//EN" "http://www.w3.org/Graphics/SVG/1.1/DTD/svg11.dtd" >
<svg xmlns="http://www.w3.org/2000/svg" xmlns:xlink="http://www.w3.org/1999/xlink" version="1.1" viewBox="-36 0 836 1000">
  <g transform="matrix(1 0 0 -1 0 800)">
   <path fill="currentColor"
d="M371 -212q-48 0 -70.5 19t-22.5 49q0 26 16 45.5t45 19.5q24 0 38.5 -14.5t14.5 -35.5q0 -11 -6 -24t-20 -22l5 -7q67 1 94 113l17 69h-25l-197 598h-8l-137 -549h68l-12 -49h-197l12 49h68l150 600h-68l12 49h196l174 -540h8l123 491h-68l12 49h197l-12 -49h-68
l-172 -689q-10 -41 -23.5 -73t-33.5 -54t-47 -33.5t-63 -11.5z" />
  </g>

</svg>
