<?xml version="1.0" standalone="no"?>
<!DOCTYPE svg PUBLIC "-//W3C//DTD SVG 1.1//EN" "http://www.w3.org/Graphics/SVG/1.1/DTD/svg11.dtd" >
<svg xmlns="http://www.w3.org/2000/svg" xmlns:xlink="http://www.w3.org/1999/xlink" version="1.1" viewBox="-36 0 521 1000">
  <g transform="matrix(1 0 0 -1 0 800)">
   <path fill="currentColor"
d="M-14 49h68l150 600h-68l12 49h250l-12 -49h-68l-150 -600h68l-12 -49h-250zM293 761q-36 0 -58 14t-34 36t-17.5 49.5t-8.5 54.5l32 13l11 -37q10 -28 30.5 -40t58.5 -12t63.5 12t48.5 41l27 36l29 -16q-15 -27 -31.5 -54t-38 -48.5t-49 -35t-63.5 -13.5z" />
  </g>

</svg>
