<?xml version="1.0" standalone="no"?>
<!DOCTYPE svg PUBLIC "-//W3C//DTD SVG 1.1//EN" "http://www.w3.org/Graphics/SVG/1.1/DTD/svg11.dtd" >
<svg xmlns="http://www.w3.org/2000/svg" xmlns:xlink="http://www.w3.org/1999/xlink" version="1.1" viewBox="-10 0 733 1000">
  <g transform="matrix(1 0 0 -1 0 800)">
   <path fill="currentColor"
d="M15 -11l80 92q-41 62 -41 158q0 43 10 95t30.5 104.5t52 101.5t74.5 86.5t98 60.5t123 23q49 0 88.5 -13.5t68.5 -39.5l75 86l39 -34l-80 -92q41 -62 41 -158q0 -43 -10 -95t-30.5 -104.5t-52 -101.5t-74.5 -86.5t-98 -60.5t-123 -23q-49 0 -88.5 13.5t-68.5 39.5
l-75 -86zM430 654q-41 0 -75.5 -17t-61.5 -46t-46.5 -69.5t-30.5 -86.5q-14 -58 -23.5 -97.5t-15.5 -67t-8.5 -47.5t-2.5 -40v-11.5t1 -10.5l377 433q-15 28 -43 44t-71 16zM298 44q41 0 75.5 17t61.5 46t46.5 69t30.5 87q15 58 24.5 97t15 67t8 48t2.5 40v11.5t-1 10.5
l-377 -433q15 -28 43 -44t71 -16zM417 770l104 183l87 -45l-160 -154z" />
  </g>

</svg>
