<?xml version="1.0" standalone="no"?>
<!DOCTYPE svg PUBLIC "-//W3C//DTD SVG 1.1//EN" "http://www.w3.org/Graphics/SVG/1.1/DTD/svg11.dtd" >
<svg xmlns="http://www.w3.org/2000/svg" xmlns:xlink="http://www.w3.org/1999/xlink" version="1.1" viewBox="-24 0 641 1000">
  <g transform="matrix(1 0 0 -1 0 800)">
   <path fill="currentColor"
d="M230 -12q-57 0 -92.5 20t-41.5 54h-9l-15 -62h-86l51 205h86l-12 -48q-5 -20 -5 -31q0 -38 28.5 -59.5t87.5 -21.5q40 0 72.5 11.5t55.5 32t35.5 47.5t12.5 58q0 41 -22 63t-70 39l-44 17q-74 26 -108.5 65.5t-34.5 105.5q0 48 19 89.5t52.5 72t80 47.5t101.5 17
q56 0 88.5 -19.5t37.5 -50.5h9l14 58h86l-50 -199h-86l12 48q4 17 4 30q0 37 -29 56.5t-84 19.5q-39 0 -68.5 -11t-49 -29t-29.5 -41.5t-10 -47.5q0 -39 22.5 -63.5t78.5 -44.5l41 -15q76 -27 108.5 -66.5t32.5 -100.5q0 -51 -19.5 -95.5t-55 -78t-85.5 -53t-110 -19.5z
M115 -258q22 20 42.5 46.5t30.5 48.5q-18 3 -29 15t-11 28q0 7 3 21q5 22 22 33.5t40 11.5t36.5 -13t13.5 -33q0 -10 -3 -22q-9 -35 -36.5 -72t-60.5 -64h-48v0z" />
  </g>

</svg>
