<?xml version="1.0" standalone="no"?>
<!DOCTYPE svg PUBLIC "-//W3C//DTD SVG 1.1//EN" "http://www.w3.org/Graphics/SVG/1.1/DTD/svg11.dtd" >
<svg xmlns="http://www.w3.org/2000/svg" xmlns:xlink="http://www.w3.org/1999/xlink" version="1.1" viewBox="-10 0 784 1000">
  <g transform="matrix(1 0 0 -1 0 800)">
   <path fill="currentColor"
d="M299 -12q-101 0 -157 40t-56 132q0 23 5 52t13 63l93 374h-68l13 49h250l-13 -49h-68l-101 -403q-14 -56 -14 -96q0 -51 28 -77t91 -26q86 0 134 51t76 158l98 393h-68l12 49h197l-12 -49h-68l-99 -397q-35 -140 -103 -202t-183 -62zM386 874h270l-17 -66h-270z" />
  </g>

</svg>
