<?xml version="1.0" standalone="no"?>
<!DOCTYPE svg PUBLIC "-//W3C//DTD SVG 1.1//EN" "http://www.w3.org/Graphics/SVG/1.1/DTD/svg11.dtd" >
<svg xmlns="http://www.w3.org/2000/svg" xmlns:xlink="http://www.w3.org/1999/xlink" version="1.1" viewBox="-10 0 684 1000">
  <g transform="matrix(1 0 0 -1 0 800)">
   <path fill="currentColor"
d="M212 -12q-95 0 -148 37t-53 112q0 46 16 82t44.5 64t67 51t83.5 44l-9 17q-18 35 -27.5 60t-9.5 56q0 45 18 82t49 63t72 40t86 14q77 0 114.5 -29.5t37.5 -83.5q0 -39 -20 -70.5t-51.5 -58t-70.5 -48t-77 -39.5l115 -208q25 32 46 72.5t34 85.5h-63l12 49h186l-12 -49
h-64q-19 -62 -47.5 -114.5t-63.5 -94.5l18 -32q13 -23 36.5 -32t62.5 -9l-12 -49h-85q-34 0 -55.5 12.5t-38.5 39.5q-85 -64 -191 -64zM313 420q56 30 90.5 63.5t44.5 72.5q2 9 4.5 21t2.5 22q0 29 -16 45t-44 16q-41 0 -69 -26.5t-39 -66.5l-4 -20t-2 -21q0 -27 7.5 -52
t24.5 -54zM237 44q38 0 73.5 14t66.5 37l-132 241q-47 -29 -72 -63.5t-35 -78.5q-3 -11 -6.5 -28.5t-3.5 -28.5q0 -48 30.5 -70.5t78.5 -22.5z" />
  </g>

</svg>
