<?xml version="1.0" standalone="no"?>
<!DOCTYPE svg PUBLIC "-//W3C//DTD SVG 1.1//EN" "http://www.w3.org/Graphics/SVG/1.1/DTD/svg11.dtd" >
<svg xmlns="http://www.w3.org/2000/svg" xmlns:xlink="http://www.w3.org/1999/xlink" version="1.1" viewBox="-10 0 531 1000">
  <g transform="matrix(1 0 0 -1 0 800)">
   <path fill="currentColor"
d="M300 -209q-32 0 -54 17t-22 49q0 23 10 42t27.5 34.5t40 28.5t47.5 25l-2 4q-12 -3 -20 -3q-33 0 -47 20t-14 46q0 10 1.5 22.5t9.5 41.5l-9 2q-27 -63 -67 -97.5t-93 -34.5q-47 0 -74.5 29t-27.5 74q0 39 16.5 73.5t53 60.5t94 42.5t139.5 21.5q3 10 6.5 26t7 32.5
t6 32.5t2.5 27q0 42 -21.5 60.5t-57.5 18.5q-16 0 -32 -3t-30 -10l-2 -8q8 -5 15 -16t7 -27q0 -29 -17.5 -49.5t-49.5 -20.5q-23 0 -37.5 13.5t-14.5 40.5q0 23 15 45.5t41 40.5t61 29t76 11q67 0 109 -33t42 -98q0 -15 -2.5 -35.5t-7.5 -38.5l-66 -264l18 -8l104 114
l30 -20l-99 -123q-17 -21 -37 -40t-37 -38t-28.5 -37.5t-11.5 -38.5q0 -31 28 -31q16 0 27.5 7t24.5 19l27 -28q-20 -20 -45.5 -34t-59.5 -14zM153 52q19 0 40.5 14t40.5 36.5t33.5 50t21.5 55.5l12 48q-87 -11 -130.5 -39.5t-57.5 -73.5q-2 -9 -4 -18.5t-2 -20.5
q0 -52 46 -52z" />
  </g>

</svg>
