<?xml version="1.0" standalone="no"?>
<!DOCTYPE svg PUBLIC "-//W3C//DTD SVG 1.1//EN" "http://www.w3.org/Graphics/SVG/1.1/DTD/svg11.dtd" >
<svg xmlns="http://www.w3.org/2000/svg" xmlns:xlink="http://www.w3.org/1999/xlink" version="1.1" viewBox="-115 0 355 1000">
  <g transform="matrix(1 0 0 -1 0 800)">
   <path fill="currentColor"
d="M130 772q-23 0 -41.5 8t-38.5 19q-23 12 -39 20t-33 8q-13 0 -24.5 -7t-30.5 -26l-23 22q24 31 46 53.5t54 22.5q23 0 41.5 -8t38.5 -19q23 -12 39 -20t33 -8q13 0 24.5 7t30.5 26l23 -22q-24 -31 -46 -53.5t-54 -22.5zM14 581q-36 0 -57.5 12.5t-34.5 33t-18.5 47
t-8.5 54.5l32 13l12 -37q10 -30 30 -40t58 -10t64 12t49 41l26 35l29 -17q-14 -27 -31 -53t-38.5 -46t-48.5 -32.5t-63 -12.5z" />
  </g>

</svg>
