<?xml version="1.0" standalone="no"?>
<!DOCTYPE svg PUBLIC "-//W3C//DTD SVG 1.1//EN" "http://www.w3.org/Graphics/SVG/1.1/DTD/svg11.dtd" >
<svg xmlns="http://www.w3.org/2000/svg" xmlns:xlink="http://www.w3.org/1999/xlink" version="1.1" viewBox="-115 0 320 1000">
  <g transform="matrix(1 0 0 -1 0 800)">
   <path fill="currentColor"
d="M14 581q-36 0 -57.5 12.5t-34.5 33t-18.5 47t-8.5 54.5l32 13l12 -37q10 -30 30 -40t58 -10t64 12t49 41l26 35l29 -17q-14 -27 -31 -53t-38.5 -46t-48.5 -32.5t-63 -12.5zM12 720l75 112h-119l17 65h100q29 0 45.5 -12.5t16.5 -35.5q0 -26 -21.5 -53.5t-51.5 -58.5
l-30 -32z" />
  </g>

</svg>
