<?xml version="1.0" standalone="no"?>
<!DOCTYPE svg PUBLIC "-//W3C//DTD SVG 1.1//EN" "http://www.w3.org/Graphics/SVG/1.1/DTD/svg11.dtd" >
<svg xmlns="http://www.w3.org/2000/svg" xmlns:xlink="http://www.w3.org/1999/xlink" version="1.1" viewBox="-147 0 389 1000">
  <g transform="matrix(1 0 0 -1 0 800)">
   <path fill="currentColor"
d="M132 944q-23 0 -41.5 8t-38.5 19q-23 12 -39 20t-33 8q-13 0 -24.5 -7t-30.5 -26l-23 22q24 31 46 53.5t54 22.5q23 0 41.5 -8t38.5 -19q23 -12 39 -20t33 -8q13 0 24.5 7t30.5 26l23 -22q-24 -31 -46 -53.5t-54 -22.5zM-137 763l149 154h69l82 -158l-29 -16l-99 102
l-146 -102z" />
  </g>

</svg>
