<?xml version="1.0" standalone="no"?>
<!DOCTYPE svg PUBLIC "-//W3C//DTD SVG 1.1//EN" "http://www.w3.org/Graphics/SVG/1.1/DTD/svg11.dtd" >
<svg xmlns="http://www.w3.org/2000/svg" xmlns:xlink="http://www.w3.org/1999/xlink" version="1.1" viewBox="-10 0 781 1000">
  <g transform="matrix(1 0 0 -1 0 800)">
   <path fill="currentColor"
d="M350 147q-56 0 -81.5 29.5t-25.5 89.5q0 43 12 92.5t37 92.5t63 71.5t91 28.5q48 0 73 -23.5t25 -57.5q0 -26 -15 -45t-41 -19q-20 0 -30.5 11.5t-10.5 27.5q0 17 13.5 34t41.5 19v6q-20 13 -49 13q-16 0 -30.5 -5.5t-27 -20.5t-24 -41t-22.5 -68q-9 -34 -14.5 -66.5
t-5.5 -54.5q0 -62 49 -62q32 0 60.5 26.5t56.5 76.5l26 -12q-35 -72 -74 -107.5t-97 -35.5zM348 30q59 0 111.5 20.5t93.5 56.5t70 84.5t42 104.5q8 35 14.5 69.5t6.5 52.5q0 58 -16 104.5t-45.5 79t-71.5 49.5t-94 17q-59 0 -111.5 -21t-93.5 -57t-70 -84.5t-42 -103.5
q-8 -35 -14.5 -69.5t-6.5 -52.5q0 -59 16 -105t45.5 -78.5t71.5 -49.5t94 -17zM343 -12q-64 0 -115.5 21.5t-87.5 60t-55 92.5t-19 119q0 81 28.5 158t81 137.5t125.5 97t163 36.5q64 0 115.5 -21.5t87.5 -60t55 -92.5t19 -119q0 -81 -28.5 -158t-81 -137.5t-125.5 -97
t-163 -36.5z" />
  </g>

</svg>
