<?xml version="1.0" standalone="no"?>
<!DOCTYPE svg PUBLIC "-//W3C//DTD SVG 1.1//EN" "http://www.w3.org/Graphics/SVG/1.1/DTD/svg11.dtd" >
<svg xmlns="http://www.w3.org/2000/svg" xmlns:xlink="http://www.w3.org/1999/xlink" version="1.1" viewBox="-35 0 623 1000">
  <g transform="matrix(1 0 0 -1 0 800)">
   <path fill="currentColor"
d="M144 446h-87l11 45l209 41l-110 -398q-3 -11 -6 -22.5t-3 -18.5q0 -17 7 -23.5t19 -6.5q24 0 53.5 24.5t59.5 67.5t56.5 100.5t43.5 123.5l36 141h109l-116 -457l18 -8l104 114l30 -20l-65 -83q-19 -25 -35 -40t-29.5 -23.5t-25.5 -11.5t-24 -3q-38 0 -53.5 20t-15.5 46
q0 13 3 28t6 26l17 67l-10 3q-19 -37 -39 -71.5t-42 -60.5t-46.5 -42t-53.5 -16q-24 0 -38.5 15t-16.5 45h-9l-9 -190l-14 -58h-103z" />
  </g>

</svg>
