<?xml version="1.0" standalone="no"?>
<!DOCTYPE svg PUBLIC "-//W3C//DTD SVG 1.1//EN" "http://www.w3.org/Graphics/SVG/1.1/DTD/svg11.dtd" >
<svg xmlns="http://www.w3.org/2000/svg" xmlns:xlink="http://www.w3.org/1999/xlink" version="1.1" viewBox="-10 0 576 1000">
  <g transform="matrix(1 0 0 -1 0 800)">
   <path fill="currentColor"
d="M64 33q61 13 115.5 43.5t98.5 73.5t77 95.5t51 110.5l-7 2q-11 -18 -26 -35.5t-35.5 -31t-46.5 -22t-57 -8.5q-62 0 -100 36t-38 110q0 70 24 126.5t63.5 95.5t91 60t106.5 21q81 0 128 -43.5t47 -134.5q0 -53 -14 -111t-41 -114.5t-68 -108.5t-95.5 -94.5t-122 -73
t-148.5 -42.5zM290 323q30 0 53.5 12t41 33t29.5 50t21 63l3.5 14t5.5 23t5 27.5t2 26.5q0 38 -18.5 61.5t-57.5 23.5q-30 0 -53.5 -12t-41 -33t-29.5 -50t-21 -63l-3.5 -14t-5.5 -23t-5 -27.5t-2 -26.5q0 -38 18.5 -61.5t57.5 -23.5z" />
  </g>

</svg>
