<?xml version="1.0" standalone="no"?>
<!DOCTYPE svg PUBLIC "-//W3C//DTD SVG 1.1//EN" "http://www.w3.org/Graphics/SVG/1.1/DTD/svg11.dtd" >
<svg xmlns="http://www.w3.org/2000/svg" xmlns:xlink="http://www.w3.org/1999/xlink" version="1.1" viewBox="-10 0 539 1000">
  <g transform="matrix(1 0 0 -1 0 800)">
   <path fill="currentColor"
d="M205 35q26 0 46.5 11.5t37 32t28 48t19.5 59.5q14 55 23 91.5t14 60t7 37.5t2 25q0 37 -15 61t-53 24q-26 0 -46.5 -11.5t-37 -32t-28 -48t-19.5 -59.5q-14 -55 -23 -91.5t-14 -60t-7 -38t-2 -24.5q0 -37 15 -61t53 -24zM200 -12q-82 0 -123.5 50.5t-41.5 136.5
q0 58 19 121t55 115.5t89 86.5t121 34q82 0 123.5 -50.5t41.5 -136.5q0 -58 -19 -121t-55 -115.5t-89 -86.5t-121 -34zM337 594q-36 0 -58 14t-34 36t-17.5 49.5t-8.5 54.5l32 13l11 -37q10 -28 30.5 -40t58.5 -12t63.5 12t48.5 41l27 36l29 -16q-15 -27 -31.5 -54
t-38 -48.5t-49 -35t-63.5 -13.5z" />
  </g>

</svg>
