<?xml version="1.0" standalone="no"?>
<!DOCTYPE svg PUBLIC "-//W3C//DTD SVG 1.1//EN" "http://www.w3.org/Graphics/SVG/1.1/DTD/svg11.dtd" >
<svg xmlns="http://www.w3.org/2000/svg" xmlns:xlink="http://www.w3.org/1999/xlink" version="1.1" viewBox="-18 0 420 1000">
  <g transform="matrix(1 0 0 -1 0 800)">
   <path fill="currentColor"
d="M85 -209q-36 0 -58 14t-30 30l24 25q18 -26 57 -26q17 0 27.5 5.5t16.5 13.5t8.5 16.5t2.5 14.5q0 14 -9 23.5t-37 12.5l-26 3l29 65q-53 3 -75.5 22.5t-22.5 49.5q0 24 16 43.5t46 19.5q22 0 37 -13t15 -37q0 -13 -6 -27t-15 -22l6 -9q21 2 42.5 8t39.5 18t29 30t11 44
q0 21 -7 38t-18.5 33t-26.5 32t-31 34q-19 23 -35 49t-16 64q0 39 16 70t43 52.5t63.5 33t77.5 11.5q61 0 87 -20t26 -52q0 -24 -16 -43.5t-46 -19.5q-22 0 -37 13t-15 37q0 13 6 27t15 22l-6 9q-20 -2 -40 -8.5t-35.5 -18.5t-25 -30t-9.5 -43q0 -21 7 -38.5t19 -33.5
t27 -32t31 -34q18 -22 34 -47.5t16 -64.5q0 -36 -14.5 -65.5t-39 -50.5t-58 -34t-71.5 -16l-21 -49l2 -4q10 4 19 5t17 1q26 0 42 -13t16 -38q0 -23 -10.5 -41.5t-28 -31.5t-39.5 -20t-46 -7z" />
  </g>

</svg>
