<?xml version="1.0" standalone="no"?>
<!DOCTYPE svg PUBLIC "-//W3C//DTD SVG 1.1//EN" "http://www.w3.org/Graphics/SVG/1.1/DTD/svg11.dtd" >
<svg xmlns="http://www.w3.org/2000/svg" xmlns:xlink="http://www.w3.org/1999/xlink" version="1.1" viewBox="-18 0 420 1000">
  <g transform="matrix(1 0 0 -1 0 800)">
   <path fill="currentColor"
d="M107 -12q-62 0 -88.5 20t-26.5 52q0 24 16 43.5t46 19.5q22 0 37 -13t15 -37q0 -13 -6 -27t-15 -22l6 -9q21 2 42.5 8t39.5 18t29 30t11 44q0 21 -7 38t-18.5 33t-26.5 32t-31 34q-19 23 -35 49t-16 64q0 39 16 70t43 52.5t63.5 33t77.5 11.5q61 0 87 -20t26 -52
q0 -24 -16 -43.5t-46 -19.5q-22 0 -37 13t-15 37q0 13 6 27t15 22l-6 9q-20 -2 -40 -8.5t-35.5 -18.5t-25 -30t-9.5 -43q0 -21 7 -38.5t19 -33.5t27 -32t31 -34q18 -22 34 -47.5t16 -64.5q0 -40 -17 -71t-45.5 -52.5t-67 -32.5t-80.5 -11zM1 -258q22 20 42.5 46.5t30.5 48.5
q-18 3 -29 15t-11 28q0 7 3 21q5 22 22 33.5t40 11.5t36.5 -13t13.5 -33q0 -10 -3 -22q-9 -35 -36.5 -72t-60.5 -64h-48v0z" />
  </g>

</svg>
