<?xml version="1.0" standalone="no"?>
<!DOCTYPE svg PUBLIC "-//W3C//DTD SVG 1.1//EN" "http://www.w3.org/Graphics/SVG/1.1/DTD/svg11.dtd" >
<svg xmlns="http://www.w3.org/2000/svg" xmlns:xlink="http://www.w3.org/1999/xlink" version="1.1" viewBox="-10 0 875 1000">
  <g transform="matrix(1 0 0 -1 0 800)">
   <path fill="currentColor"
d="M140 -12q-47 0 -68 25.5t-21 66.5q0 15 2.5 31t7.5 33l83 302h-87l11 45l209 41l-116 -419q-3 -11 -3 -23q0 -27 26 -27q24 0 55 25t61 68t56 100.5t42 121.5l35 142h108l-103 -407q-3 -12 -3 -22q0 -28 27 -28q24 0 54.5 25t60.5 68t56 100.5t42 121.5l35 142h108
l-115 -457l18 -8l104 114l30 -20l-65 -83q-36 -48 -63 -63t-51 -15q-38 0 -53.5 20.5t-15.5 45.5q0 13 3 28t6 26l17 67l-10 3q-20 -38 -41.5 -72.5t-46 -60.5t-53.5 -41.5t-63 -15.5q-42 0 -61.5 24.5t-19.5 66.5q0 23 6 47l12 48l-10 4q-20 -37 -41 -71.5t-45.5 -60.5
t-54 -42t-65.5 -16z" />
  </g>

</svg>
