<?xml version="1.0" standalone="no"?>
<!DOCTYPE svg PUBLIC "-//W3C//DTD SVG 1.1//EN" "http://www.w3.org/Graphics/SVG/1.1/DTD/svg11.dtd" >
<svg xmlns="http://www.w3.org/2000/svg" xmlns:xlink="http://www.w3.org/1999/xlink" version="1.1" viewBox="-10 0 873 1000">
  <g transform="matrix(1 0 0 -1 0 800)">
   <path fill="currentColor"
d="M670 -12q-20 0 -34 6t-23 15.5t-13 21.5t-4 25q0 11 2.5 24.5t5.5 24.5l83 302q3 12 3 22q0 28 -26 28q-25 0 -55.5 -25.5t-60.5 -68.5t-56 -100.5t-42 -121.5l-35 -141h-108l100 405q4 15 4 24q0 28 -25 28q-24 0 -54 -25.5t-60 -68.5t-56.5 -100.5t-42.5 -121.5
l-35 -141h-108l111 446h-86l11 45l196 41l-47 -187l10 -3q20 37 41 71t45.5 60.5t53 42.5t63.5 16q42 0 61.5 -24.5t19.5 -66.5q0 -23 -6 -48l-11 -47l10 -3q20 37 41 71t45.5 60t53 42t64.5 16q48 0 69.5 -25.5t21.5 -66.5q0 -15 -2.5 -30.5t-7.5 -32.5l-86 -314l18 -8
l104 114l30 -20l-65 -83q-35 -45 -62 -61.5t-56 -16.5z" />
  </g>

</svg>
