<?xml version="1.0" standalone="no"?>
<!DOCTYPE svg PUBLIC "-//W3C//DTD SVG 1.1//EN" "http://www.w3.org/Graphics/SVG/1.1/DTD/svg11.dtd" >
<svg xmlns="http://www.w3.org/2000/svg" xmlns:xlink="http://www.w3.org/1999/xlink" version="1.1" viewBox="-36 0 1044 1000">
  <g transform="matrix(1 0 0 -1 0 800)">
   <path fill="currentColor"
d="M324 -204q8 44 16.5 67t23.5 38q12 13 27 18t35 5q19 0 46.5 -4.5t83.5 -16.5q27 -6 48 -9.5t39 -6t35 -3.5t36 -1q47 0 70 20t23 55q0 23 -12.5 32.5t-40.5 9.5h-780l12 49h68l150 600h-68l12 49h244l-12 -49h-62l-149 -595h186l149 595h-62l12 49h238l-12 -49h-62
l-149 -595h186l149 595h-62l12 49h244l-12 -49h-68l-149 -596h9q46 0 70.5 -22t24.5 -67q0 -66 -52.5 -107.5t-159.5 -41.5q-29 0 -56.5 1t-59.5 4t-71 7.5t-91 12.5l-17 -44h-42v0z" />
  </g>

</svg>
