<?xml version="1.0" standalone="no"?>
<!DOCTYPE svg PUBLIC "-//W3C//DTD SVG 1.1//EN" "http://www.w3.org/Graphics/SVG/1.1/DTD/svg11.dtd" >
<svg xmlns="http://www.w3.org/2000/svg" xmlns:xlink="http://www.w3.org/1999/xlink" version="1.1" viewBox="-36 0 693 1000">
  <g transform="matrix(1 0 0 -1 0 800)">
   <path fill="currentColor"
d="M-14 49h68l150 600h-68l12 49h499l-44 -176h-86l31 123h-231l-64 -257h158l19 74h59l-51 -201h-59l19 74h-158l-71 -282h240l34 136h86l-47 -189h-508zM502 779q-23 0 -41 8t-39 19q-23 12 -38.5 20.5t-32.5 8.5q-13 0 -25 -6.5t-31 -25.5l-24 23q24 30 47 53t56 23
q23 0 41 -8t39 -19q23 -12 38.5 -20.5t32.5 -8.5q13 0 25 6.5t31 25.5l24 -23q-24 -30 -47 -53t-56 -23z" />
  </g>

</svg>
