<?xml version="1.0" standalone="no"?>
<!DOCTYPE svg PUBLIC "-//W3C//DTD SVG 1.1//EN" "http://www.w3.org/Graphics/SVG/1.1/DTD/svg11.dtd" >
<svg xmlns="http://www.w3.org/2000/svg" xmlns:xlink="http://www.w3.org/1999/xlink" version="1.1" viewBox="-36 0 693 1000">
  <g transform="matrix(1 0 0 -1 0 800)">
   <path fill="currentColor"
d="M-14 49h68l150 600h-68l12 49h499l-44 -176h-86l31 123h-231l-64 -257h158l19 74h59l-51 -201h-59l19 74h-158l-71 -282h240l34 136h86l-47 -189h-508zM203 -175q-25 0 -38 15t-13 33v9.5t2 9.5q5 20 21 34t42 14q25 0 38 -15t13 -33v-9.5t-2 -9.5q-5 -20 -21 -34
t-42 -14z" />
  </g>

</svg>
