<?xml version="1.0" standalone="no"?>
<!DOCTYPE svg PUBLIC "-//W3C//DTD SVG 1.1//EN" "http://www.w3.org/Graphics/SVG/1.1/DTD/svg11.dtd" >
<svg xmlns="http://www.w3.org/2000/svg" xmlns:xlink="http://www.w3.org/1999/xlink" version="1.1" viewBox="-10 0 726 1000">
  <g transform="matrix(1 0 0 -1 0 800)">
   <path fill="currentColor"
d="M116 49h80l57 234l-96 366h-50l12 49h241l-12 -49h-73l70 -295h8l216 295h-73l13 49h197l-12 -49h-50l-274 -355l-60 -245h80l-12 -49h-274zM530 779q-23 0 -41 8t-39 19q-23 12 -38.5 20.5t-32.5 8.5q-13 0 -25 -6.5t-31 -25.5l-24 23q24 30 47 53t56 23q23 0 41 -8
t39 -19q23 -12 38.5 -20.5t32.5 -8.5q13 0 25 6.5t31 25.5l24 -23q-24 -30 -47 -53t-56 -23z" />
  </g>

</svg>
