<?xml version="1.0" standalone="no"?>
<!DOCTYPE svg PUBLIC "-//W3C//DTD SVG 1.1//EN" "http://www.w3.org/Graphics/SVG/1.1/DTD/svg11.dtd" >
<svg xmlns="http://www.w3.org/2000/svg" xmlns:xlink="http://www.w3.org/1999/xlink" version="1.1" viewBox="-10 0 356 1000">
  <g transform="matrix(1 0 0 -1 0 800)">
   <path fill="currentColor"
d="M124 37q31 0 48.5 28t30.5 79t22 86.5t9 54.5q0 46 -41 46q-31 0 -48.5 -28t-30.5 -79t-22 -86.5t-9 -54.5q0 -46 41 -46zM116 -6q-108 0 -108 115q0 15 3 40t11 54.5t21.5 60t35 55t51.5 40t71 15.5q108 0 108 -115q0 -15 -3 -40t-11 -54.5t-21.5 -60t-35 -55t-51.5 -40
t-71 -15.5z" />
  </g>

</svg>
