<?xml version="1.0" standalone="no"?>
<!DOCTYPE svg PUBLIC "-//W3C//DTD SVG 1.1//EN" "http://www.w3.org/Graphics/SVG/1.1/DTD/svg11.dtd" >
<svg xmlns="http://www.w3.org/2000/svg" xmlns:xlink="http://www.w3.org/1999/xlink" version="1.1" viewBox="-10 0 638 1000">
  <g transform="matrix(1 0 0 -1 0 800)">
   <path fill="currentColor"
d="M145 24q-44 24 -67.5 72.5t-23.5 120.5q0 70 18.5 148t57 147t96.5 119.5t136 64.5l27 84h51l-26 -81q5 1 9 1h7h14t21 -2l26 82h51l-29 -93q45 -15 75 -43.5t30 -69.5q0 -35 -20.5 -60.5t-52.5 -25.5q-26 0 -40.5 15t-14.5 38q0 25 14.5 45.5t45.5 27.5v7
q-11 5 -24.5 10t-30.5 9l-185 -575q58 5 100.5 42t73.5 89l37 -22q-16 -28 -38.5 -57t-51.5 -54t-64.5 -42.5t-76.5 -21.5l-25 -81h-51l25 80q-26 2 -49 8l-28 -88h-51zM449 646h-13q-20 0 -42 -5l-179 -555q10 -8 22 -12.5t25 -6.5zM340 624q-52 -28 -84 -84t-50 -129
q-5 -20 -12 -46.5t-13.5 -54.5t-11 -55.5t-4.5 -48.5q0 -48 16 -78z" />
  </g>

</svg>
