<?xml version="1.0" standalone="no"?>
<!DOCTYPE svg PUBLIC "-//W3C//DTD SVG 1.1//EN" "http://www.w3.org/Graphics/SVG/1.1/DTD/svg11.dtd" >
<svg xmlns="http://www.w3.org/2000/svg" xmlns:xlink="http://www.w3.org/1999/xlink" version="1.1" viewBox="-10 0 726 1000">
  <g transform="matrix(1 0 0 -1 0 800)">
   <path fill="currentColor"
d="M119 49h84l31 126l-121 -56l15 59l121 57l23 90l-121 -56l16 61l120 56l64 259h-146l-31 -123h-82l44 176h570l-43 -176h-82l30 123h-146l-50 -200l121 57l-15 -60l-121 -57l-22 -90l119 56l-14 -60l-120 -56l-46 -186h84l-12 -49h-282z" />
  </g>

</svg>
