<?xml version="1.0" standalone="no"?>
<!DOCTYPE svg PUBLIC "-//W3C//DTD SVG 1.1//EN" "http://www.w3.org/Graphics/SVG/1.1/DTD/svg11.dtd" >
<svg xmlns="http://www.w3.org/2000/svg" xmlns:xlink="http://www.w3.org/1999/xlink" version="1.1" viewBox="-19 0 587 1000">
  <g transform="matrix(1 0 0 -1 0 800)">
   <path fill="currentColor"
d="M140 119q-50 0 -72 33.5t-22 94.5q0 49 14.5 104t42.5 101.5t67.5 77t90.5 30.5q39 0 58.5 -17.5t27.5 -44.5h8l32 128h-113l12 50h113l14 64l102 20l-21 -84h64l-13 -50h-63l-109 -437l16 -7l88 98l25 -18l-57 -73q-32 -42 -53.5 -56t-43.5 -14q-30 0 -44 17t-14 40
q0 5 0.5 11.5t2 17.5t5.5 27t10 41l-8 2q-15 -34 -32 -62.5t-36 -49.5t-42 -32.5t-50 -11.5zM183 191q22 0 46 22.5t44.5 54t35.5 64t21 53.5l5 19q11 43 0 69t-46 26q-38 0 -70.5 -35t-50.5 -106q-7 -26 -12.5 -56.5t-5.5 -51.5q0 -27 6.5 -43t26.5 -16zM5 55h405l-13 -55
h-406z" />
  </g>

</svg>
