<?xml version="1.0" standalone="no"?>
<!DOCTYPE svg PUBLIC "-//W3C//DTD SVG 1.1//EN" "http://www.w3.org/Graphics/SVG/1.1/DTD/svg11.dtd" >
<svg xmlns="http://www.w3.org/2000/svg" xmlns:xlink="http://www.w3.org/1999/xlink" version="1.1" viewBox="-57 0 565 1000">
  <g transform="matrix(1 0 0 -1 0 800)">
   <path fill="currentColor"
d="M0 0zM-44 32l55 15l277 606h32l112 -608l56 -13l-3 -32h-197l3 32l73 15l-25 145h-212l-64 -144l73 -16l-3 -32h-180zM329 243l-47 254l-5 30h-2l-12 -30l-113 -254h179zM332 683zM213.5 758.5q-12.5 11.5 -12.5 30.5q0 11 9 25t24 21l164 -120l-22 -32l-124 53
q-26 11 -38.5 22.5z" />
  </g>

</svg>
