<?xml version="1.0" standalone="no"?>
<!DOCTYPE svg PUBLIC "-//W3C//DTD SVG 1.1//EN" "http://www.w3.org/Graphics/SVG/1.1/DTD/svg11.dtd" >
<svg xmlns="http://www.w3.org/2000/svg" xmlns:xlink="http://www.w3.org/1999/xlink" version="1.1" viewBox="-10 0 530 1000">
  <g transform="matrix(1 0 0 -1 0 800)">
   <path fill="currentColor"
d="M100 46l79 556l-68 14l3 32h170q103 0 152.5 -34.5t49.5 -97.5q0 -66 -39.5 -116.5t-100.5 -63.5q54 -7 89 -46.5t35 -93.5q0 -97 -62.5 -146.5t-183.5 -49.5h-197l2 32zM365 390.5q53 41.5 53 122.5q0 95 -127 95q-16 0 -29.5 -2.5t-16.5 -3.5l-35 -253q102 0 155 41.5z
M359 79q43 38 43 111q0 64 -49.5 94t-147.5 30l-38 -268q30 -5 66 -5q83 0 126 38z" />
  </g>

</svg>
