<?xml version="1.0" standalone="no"?>
<!DOCTYPE svg PUBLIC "-//W3C//DTD SVG 1.1//EN" "http://www.w3.org/Graphics/SVG/1.1/DTD/svg11.dtd" >
<svg xmlns="http://www.w3.org/2000/svg" xmlns:xlink="http://www.w3.org/1999/xlink" version="1.1" viewBox="-10 0 548 1000">
  <g transform="matrix(1 0 0 -1 0 800)">
   <path fill="currentColor"
d="M58 0zM110.5 54q-52.5 65 -52.5 190q0 119 42 214t115 148.5t162 53.5q80 0 151 -20l-21 -140h-35l-8 95q-13 6 -42 11.5t-55 5.5q-111 0 -171 -95t-60 -267q0 -107 36.5 -160.5t123.5 -53.5q69 0 116 31l30 91h36l-14 -126q-31 -16 -75 -29.5t-98 -13.5
q-128 0 -180.5 65zM435 692zM262 699l-24 32l71 53q36 27 52 38t20 11q10 0 68 -52l54 -49l-32 -40l-101 69z" />
  </g>

</svg>
