<?xml version="1.0" standalone="no"?>
<!DOCTYPE svg PUBLIC "-//W3C//DTD SVG 1.1//EN" "http://www.w3.org/Graphics/SVG/1.1/DTD/svg11.dtd" >
<svg xmlns="http://www.w3.org/2000/svg" xmlns:xlink="http://www.w3.org/1999/xlink" version="1.1" viewBox="-10 0 548 1000">
  <g transform="matrix(1 0 0 -1 0 800)">
   <path fill="currentColor"
d="M58 0zM110.5 54q-52.5 65 -52.5 190q0 119 42 214t115 148.5t162 53.5q80 0 151 -20l-21 -140h-35l-8 95q-13 6 -42 11.5t-55 5.5q-111 0 -171 -95t-60 -267q0 -107 36.5 -160.5t123.5 -53.5q69 0 116 31l30 91h36l-14 -126q-31 -16 -75 -29.5t-98 -13.5
q-128 0 -180.5 65zM365 703zM345.5 717q-13.5 14 -13.5 35q0 24 14.5 43t41.5 19q22 0 35.5 -14t13.5 -37q0 -24 -15 -42t-42 -18q-21 0 -34.5 14z" />
  </g>

</svg>
