<?xml version="1.0" standalone="no"?>
<!DOCTYPE svg PUBLIC "-//W3C//DTD SVG 1.1//EN" "http://www.w3.org/Graphics/SVG/1.1/DTD/svg11.dtd" >
<svg xmlns="http://www.w3.org/2000/svg" xmlns:xlink="http://www.w3.org/1999/xlink" version="1.1" viewBox="-10 0 636 1000">
  <g transform="matrix(1 0 0 -1 0 800)">
   <path fill="currentColor"
d="M26 0zM524 584q67 -64 67 -178q0 -123 -44.5 -215t-126 -141.5t-189.5 -49.5h-205l3 32l71 14l37 262h-69l8 52h69l34 242l-68 14l3 32h222q121 0 188 -64zM397 87q61 47 90.5 127t29.5 181q0 108 -51 159.5t-153 51.5q-56 0 -68 -5l-34 -241h170l-8 -52h-170l-37 -261
q37 -7 81 -7q89 0 150 47z" />
  </g>

</svg>
