<?xml version="1.0" standalone="no"?>
<!DOCTYPE svg PUBLIC "-//W3C//DTD SVG 1.1//EN" "http://www.w3.org/Graphics/SVG/1.1/DTD/svg11.dtd" >
<svg xmlns="http://www.w3.org/2000/svg" xmlns:xlink="http://www.w3.org/1999/xlink" version="1.1" viewBox="-10 0 524 1000">
  <g transform="matrix(1 0 0 -1 0 800)">
   <path fill="currentColor"
d="M27 0zM100 46l79 556l-68 14l3 32h380l-19 -150h-44v109h-101l-85 -4l-35 -246h135l21 57h30l-20 -154h-31l-6 57h-134l-39 -271q46 -5 95 -5h106l38 105h35l-18 -146h-395l2 32zM392 692zM219 699l-24 32l71 53q36 27 52 38t20 11q10 0 68 -52l54 -49l-32 -40l-101 69z
" />
  </g>

</svg>
