<?xml version="1.0" standalone="no"?>
<!DOCTYPE svg PUBLIC "-//W3C//DTD SVG 1.1//EN" "http://www.w3.org/Graphics/SVG/1.1/DTD/svg11.dtd" >
<svg xmlns="http://www.w3.org/2000/svg" xmlns:xlink="http://www.w3.org/1999/xlink" version="1.1" viewBox="-10 0 514 1000">
  <g transform="matrix(1 0 0 -1 0 800)">
   <path fill="currentColor"
d="M431 498v109h-101l-85 -4l-35 -246h135l21 57h30l-20 -154h-31l-6 57h-134l-39 -271q46 -5 95 -5h106l38 105h35l-18 -146h-50q-23 -18 -39 -42.5t-16 -50.5q0 -35 39 -35q15 0 32.5 5.5t30.5 14.5l14 -21q-9 -11 -38.5 -28.5t-65.5 -17.5q-70 0 -70 61q0 32 19.5 62
t54.5 52h-306l2 32l71 14l79 556l-68 14l3 32h380l-19 -150h-44z" />
  </g>

</svg>
