<?xml version="1.0" standalone="no"?>
<!DOCTYPE svg PUBLIC "-//W3C//DTD SVG 1.1//EN" "http://www.w3.org/Graphics/SVG/1.1/DTD/svg11.dtd" >
<svg xmlns="http://www.w3.org/2000/svg" xmlns:xlink="http://www.w3.org/1999/xlink" version="1.1" viewBox="-10 0 573 1000">
  <g transform="matrix(1 0 0 -1 0 800)">
   <path fill="currentColor"
d="M57 0zM109.5 54q-52.5 65 -52.5 187q0 109 36.5 205t107.5 155t169 59q39 0 83.5 -6t72.5 -16l-17 -141h-36l-6 88q-18 10 -46.5 18.5t-61.5 8.5q-116 0 -170.5 -101.5t-54.5 -255.5q0 -120 39 -169t112 -49q36 0 63.5 8t58.5 25l26 190l-97 18l5 40h164l-43 -318h-22
l-21 28h-6q-20 -14 -57.5 -26.5t-92.5 -12.5q-101 0 -153.5 65zM429 692zM256 699l-24 32l71 53q36 27 52 38t20 11q10 0 68 -52l54 -49l-32 -40l-101 69z" />
  </g>

</svg>
