<?xml version="1.0" standalone="no"?>
<!DOCTYPE svg PUBLIC "-//W3C//DTD SVG 1.1//EN" "http://www.w3.org/Graphics/SVG/1.1/DTD/svg11.dtd" >
<svg xmlns="http://www.w3.org/2000/svg" xmlns:xlink="http://www.w3.org/1999/xlink" version="1.1" viewBox="-10 0 503 1000">
  <g transform="matrix(1 0 0 -1 0 800)">
   <path fill="currentColor"
d="M26 0zM29 32l71 14l79 556l-68 14l3 32h205l-3 -32l-71 -14l-78 -556l41 -4h127l32 104h46l-22 -146h-365zM420 604q0 30 -24 59q22 24 47 24q17 0 28.5 -11.5t11.5 -31.5q0 -26 -18.5 -63.5t-47.5 -68.5h-29q32 54 32 92z" />
  </g>

</svg>
