<?xml version="1.0" standalone="no"?>
<!DOCTYPE svg PUBLIC "-//W3C//DTD SVG 1.1//EN" "http://www.w3.org/Graphics/SVG/1.1/DTD/svg11.dtd" >
<svg xmlns="http://www.w3.org/2000/svg" xmlns:xlink="http://www.w3.org/1999/xlink" version="1.1" viewBox="-10 0 680 1000">
  <g transform="matrix(1 0 0 -1 0 800)">
   <path fill="currentColor"
d="M26 0zM29 32l69 14l78 556l-65 14l3 32h127l216 -524l9 -30h4l2 18l70 490l-69 14l2 32h185l-3 -32l-69 -14l-85 -602h-65l-211 512l-9 30h-4l-70 -496l68 -14l-2 -32h-184zM490 709zM437.5 718.5q-27.5 9.5 -35.5 11.5l-77 25l-60 -41l-22 24l34 46q24 32 53 32
q17 0 78 -21l75 -25l61 42l22 -25l-34 -46q-25 -32 -52 -32q-15 0 -42.5 9.5z" />
  </g>

</svg>
