<?xml version="1.0" standalone="no"?>
<!DOCTYPE svg PUBLIC "-//W3C//DTD SVG 1.1//EN" "http://www.w3.org/Graphics/SVG/1.1/DTD/svg11.dtd" >
<svg xmlns="http://www.w3.org/2000/svg" xmlns:xlink="http://www.w3.org/1999/xlink" version="1.1" viewBox="-10 0 559 1000">
  <g transform="matrix(1 0 0 -1 0 800)">
   <path fill="currentColor"
d="M37 0zM118 34l73 14l26 184l-126 370l-54 12l4 34h202l-4 -34l-74 -15v-23l101 -299h4l158 303v19l-76 15l5 34h182l-5 -34l-50 -16l-202 -377l-24 -173l66 -14l-2 -34h-206zM358 683zM401 835q15 -7 24 -20.5t9 -25.5q0 -19 -12.5 -30.5t-38.5 -22.5l-124 -53l-22 32z
" />
  </g>

</svg>
