<?xml version="1.0" standalone="no"?>
<!DOCTYPE svg PUBLIC "-//W3C//DTD SVG 1.1//EN" "http://www.w3.org/Graphics/SVG/1.1/DTD/svg11.dtd" >
<svg xmlns="http://www.w3.org/2000/svg" xmlns:xlink="http://www.w3.org/1999/xlink" version="1.1" viewBox="-10 0 685 1000">
  <g transform="matrix(1 0 0 -1 0 800)">
   <path fill="currentColor"
d="M665 412l-37 -41q-25 -28 -58 -28q-18 0 -31 2t-39 9v-33q0 -58 -14.5 -113t-42.5 -97l59 -73q6 -8 8.5 -14.5t2.5 -18.5l-3 -30l-6 -57h-34l-6 68l-60 73q-71 -70 -181 -70q-92 0 -140.5 36.5t-48.5 106.5q0 56 38.5 113.5t100.5 93.5q-40 47 -54.5 77t-14.5 67
q0 43 25.5 81t68 61.5t90.5 23.5q40 0 74 -17t54 -46.5t20 -64.5q0 -51 -29 -97q20 0 30 -2l140 -23l71 36zM443 293q0 54 -3 73l-47 12l-76 -37l-15 24q34 32 49 50.5t20 38.5t5 54q0 44 -25.5 67.5t-72.5 23.5t-79 -29.5t-32 -72.5q0 -27 13 -51.5t52 -73.5l180 -223
q31 56 31 144zM313.5 51.5q33.5 14.5 60.5 42.5l-178 216q-41 -23 -65.5 -69t-24.5 -99t33.5 -79t103.5 -26q37 0 70.5 14.5z" />
  </g>

</svg>
