<?xml version="1.0" standalone="no"?>
<!DOCTYPE svg PUBLIC "-//W3C//DTD SVG 1.1//EN" "http://www.w3.org/Graphics/SVG/1.1/DTD/svg11.dtd" >
<svg xmlns="http://www.w3.org/2000/svg" xmlns:xlink="http://www.w3.org/1999/xlink" version="1.1" viewBox="-10 0 589 1000">
  <g transform="matrix(1 0 0 -1 0 800)">
   <path fill="currentColor"
d="M39 0zM39 150q0 69 27 155t79 147t123 61q53 0 105 -26l26 143l-78 16v32l137 19v-67l-92 -569h73v-34q-10 -8 -35 -19.5t-51 -11.5q-28 0 -42 10.5t-14 35.5q0 15 4 28t15 36l-3 2q-28 -51 -69 -84t-86 -33q-119 0 -119 159zM247.5 71.5q33.5 30.5 61.5 72.5l51 276
q-63 38 -134 38q-15 0 -24.5 -5.5t-13.5 -12.5q-33 -50 -55 -124t-22 -145q0 -60 15.5 -95t54.5 -35q33 0 66.5 30.5zM506 644q0 30 -24 59q22 24 47 24q17 0 28.5 -11.5t11.5 -31.5q0 -26 -18.5 -63.5t-47.5 -68.5h-29q32 54 32 92z" />
  </g>

</svg>
