<?xml version="1.0" standalone="no"?>
<!DOCTYPE svg PUBLIC "-//W3C//DTD SVG 1.1//EN" "http://www.w3.org/Graphics/SVG/1.1/DTD/svg11.dtd" >
<svg xmlns="http://www.w3.org/2000/svg" xmlns:xlink="http://www.w3.org/1999/xlink" version="1.1" viewBox="-10 0 531 1000">
  <g transform="matrix(1 0 0 -1 0 800)">
   <path fill="currentColor"
d="M336.5 7q-13.5 11 -13.5 39q0 8 1 13l48 298q5 33 5 40q0 28 -10 40.5t-42 12.5q-37 0 -75.5 -16t-63.5 -33l-62 -401h-69l97 574h-67v40h74l3 16l-78 17v31l137 19v-67l-3 -16h156v-40h-162l-21 -134q30 24 74.5 48.5t84.5 24.5q48 0 69.5 -25t21.5 -67q0 -28 -7 -77
l-45 -283h76v-34q-10 -8 -35 -19.5t-51 -11.5q-29 0 -42.5 11z" />
  </g>

</svg>
