<?xml version="1.0" standalone="no"?>
<!DOCTYPE svg PUBLIC "-//W3C//DTD SVG 1.1//EN" "http://www.w3.org/Graphics/SVG/1.1/DTD/svg11.dtd" >
<svg xmlns="http://www.w3.org/2000/svg" xmlns:xlink="http://www.w3.org/1999/xlink" version="1.1" viewBox="-10 0 520 1000">
  <g transform="matrix(1 0 0 -1 0 800)">
   <path fill="currentColor"
d="M60 0zM83 7q-13 11 -13 39l2 16l68 378l-80 17v31l140 19v-70l-64 -376h74v-34q-10 -8 -34.5 -19.5t-48.5 -11.5q-31 0 -44 11zM207 561zM211 731q38 -16 38 -50q0 -18 -47 -52l-103 -68l-25 30zM152.5 -159.5q-7.5 6.5 -7.5 25.5q0 23 13 39h66q20 0 37 3.5t23 8.5
q8 6 20.5 26.5t17.5 52.5l70 451l-80 18v31l141 19v-66l-62 -413q-16 -102 -75.5 -152t-138.5 -50q-17 0 -24.5 6.5zM453 561zM457 731q38 -16 38 -50q0 -18 -47 -52l-103 -68l-25 30z" />
  </g>

</svg>
