<?xml version="1.0" standalone="no"?>
<!DOCTYPE svg PUBLIC "-//W3C//DTD SVG 1.1//EN" "http://www.w3.org/Graphics/SVG/1.1/DTD/svg11.dtd" >
<svg xmlns="http://www.w3.org/2000/svg" xmlns:xlink="http://www.w3.org/1999/xlink" version="1.1" viewBox="-10 0 321 1000">
  <g transform="matrix(1 0 0 -1 0 800)">
   <path fill="currentColor"
d="M38 0zM83 7q-13 11 -13 39l2 16l68 378l-80 17v31l140 19v-70l-64 -376h74v-34q-10 -8 -34.5 -19.5t-48.5 -11.5q-31 0 -44 11zM255 544zM66 547l-28 26l104 99q36 35 45 35q6 0 12.5 -5.5t20.5 -23.5l81 -99l-28 -35l-99 81z" />
  </g>

</svg>
