<?xml version="1.0" standalone="no"?>
<!DOCTYPE svg PUBLIC "-//W3C//DTD SVG 1.1//EN" "http://www.w3.org/Graphics/SVG/1.1/DTD/svg11.dtd" >
<svg xmlns="http://www.w3.org/2000/svg" xmlns:xlink="http://www.w3.org/1999/xlink" version="1.1" viewBox="-10 0 276 1000">
  <g transform="matrix(1 0 0 -1 0 800)">
   <path fill="currentColor"
d="M144 610.5q-13 13.5 -13 34.5q0 23 14.5 41.5t41.5 18.5q21 0 34 -13.5t13 -35.5q0 -24 -14.5 -41.5t-41.5 -17.5q-21 0 -34 13.5zM184.5 -122.5q17.5 5.5 30.5 14.5l14 -21q-9 -11 -38.5 -28.5t-65.5 -17.5q-70 0 -70 61q0 31 17.5 59.5t50.5 50.5q-29 1 -41 11.5
t-12 38.5l2 16l68 378l-80 17v31l140 19v-70l-64 -376h74v-34q-5 -5 -23 -14q-27 -15 -50.5 -45t-23.5 -61q0 -35 39 -35q15 0 32.5 5.5z" />
  </g>

</svg>
