<?xml version="1.0" standalone="no"?>
<!DOCTYPE svg PUBLIC "-//W3C//DTD SVG 1.1//EN" "http://www.w3.org/Graphics/SVG/1.1/DTD/svg11.dtd" >
<svg xmlns="http://www.w3.org/2000/svg" xmlns:xlink="http://www.w3.org/1999/xlink" version="1.1" viewBox="-105 0 422 1000">
  <g transform="matrix(1 0 0 -1 0 800)">
   <path fill="currentColor"
d="M0 0zM-87.5 -159.5q-7.5 6.5 -7.5 25.5q0 23 13 39h66q20 0 37 3.5t23 8.5q8 6 20.5 26.5t17.5 52.5l70 451l-80 18v31l141 19v-66l-62 -413q-16 -102 -75.5 -152t-138.5 -50q-17 0 -24.5 6.5zM261 544zM72 547l-28 26l104 99q36 35 45 35q6 0 12.5 -5.5t20.5 -23.5
l81 -99l-28 -35l-99 81z" />
  </g>

</svg>
