<?xml version="1.0" standalone="no"?>
<!DOCTYPE svg PUBLIC "-//W3C//DTD SVG 1.1//EN" "http://www.w3.org/Graphics/SVG/1.1/DTD/svg11.dtd" >
<svg xmlns="http://www.w3.org/2000/svg" xmlns:xlink="http://www.w3.org/1999/xlink" version="1.1" viewBox="-10 0 506 1000">
  <g transform="matrix(1 0 0 -1 0 800)">
   <path fill="currentColor"
d="M486 635l-14 -126h-45l-16 90q-41 14 -87 14q-52 0 -76.5 -18t-35.5 -56t-25 -127l-1 -9h168l-7 -53h-308l7 53h73l2 15q14 98 39 149.5t67.5 71.5t115.5 20q79 0 143 -24zM421 94l20 -23l-21 -44q-9 -18 -18 -24.5t-27 -6.5q-17 0 -49 5l-225 42q-19 -21 -39 -33
t-35 -12t-19.5 8.5t-4.5 25.5q44 28 62.5 60t25.5 91l8 67h-74l7 52h312l-7 -52h-172l-7 -55q-5 -37 -10 -56t-18 -38l233 -49z" />
  </g>

</svg>
