<?xml version="1.0" standalone="no"?>
<!DOCTYPE svg PUBLIC "-//W3C//DTD SVG 1.1//EN" "http://www.w3.org/Graphics/SVG/1.1/DTD/svg11.dtd" >
<svg xmlns="http://www.w3.org/2000/svg" xmlns:xlink="http://www.w3.org/1999/xlink" version="1.1" viewBox="-10 0 782 1000">
  <g transform="matrix(1 0 0 -1 0 800)">
   <path fill="currentColor"
d="M588 7q-14 11 -14 39q0 7 1 13l53 298q5 23 5 44q0 25 -10.5 37t-36.5 12q-38 0 -78 -16.5t-67 -33.5l-4 -34l-57 -366h-69l60 346q5 31 5 58q0 20 -9.5 33t-36.5 13q-30 0 -69 -14.5t-70 -36.5l-61 -399h-70l79 440l-79 17v31l139 19v-68q41 34 84 54t77 20
q42 0 61.5 -22.5t20.5 -55.5q24 20 74 49t96 29t66.5 -25.5t20.5 -67.5q0 -34 -8 -76l-49 -283h76l-2 -34q-11 -8 -35.5 -19.5t-49.5 -11.5q-29 0 -43 11z" />
  </g>

</svg>
