<?xml version="1.0" standalone="no"?>
<!DOCTYPE svg PUBLIC "-//W3C//DTD SVG 1.1//EN" "http://www.w3.org/Graphics/SVG/1.1/DTD/svg11.dtd" >
<svg xmlns="http://www.w3.org/2000/svg" xmlns:xlink="http://www.w3.org/1999/xlink" version="1.1" viewBox="-10 0 1227 1000">
  <g transform="matrix(1 0 0 -1 0 800)">
   <path fill="currentColor"
d="M99 46l79 556l-66 14l3 32h190q99 0 150 -41t51 -119q0 -108 -69.5 -163t-183.5 -55h-18v30q110 0 153.5 46.5t43.5 126.5q0 74 -32 103.5t-101 29.5q-30 0 -55 -5l-78 -555l79 -14l-2 -32h-217l2 32zM600.5 12q-15.5 15 -15.5 50q0 10 5 45l58 346h-85l8 54h88l18 100
l60 10l-19 -110h122l-7 -54h-123l-59 -391h132v-33q-12 -7 -52.5 -19.5t-74.5 -12.5q-40 0 -55.5 15zM871 13.5q-34 22.5 -34 69.5q0 17 16.5 44t26.5 27h20l8 -98q12 -8 33 -13t40 -5q57 0 81 21t24 71q0 27 -27 53.5t-76 60.5q-43 31 -70 63t-27 79q0 31 24 60.5t62.5 48
t79.5 18.5q61 0 96.5 -23.5t35.5 -62.5q0 -23 -12 -41.5t-32 -26.5h-20l-8 93q-10 5 -25.5 8t-29.5 3q-57 0 -82 -15t-25 -50q0 -27 25 -52t71 -58q51 -37 79 -70.5t28 -79.5q0 -38 -24.5 -72t-65.5 -54.5t-87 -20.5q-71 0 -105 22.5z" />
  </g>

</svg>
