<?xml version="1.0" standalone="no"?>
<!DOCTYPE svg PUBLIC "-//W3C//DTD SVG 1.1//EN" "http://www.w3.org/Graphics/SVG/1.1/DTD/svg11.dtd" >
<svg xmlns="http://www.w3.org/2000/svg" xmlns:xlink="http://www.w3.org/1999/xlink" version="1.1" viewBox="-10 0 334 1000">
  <g transform="matrix(1 0 0 -1 0 800)">
   <path fill="currentColor"
d="M50 551q0 35 30 82t76 74l16 -15l-72 -93l1 -3q7 6 21 6q18 0 31 -10t13 -30q0 -26 -19.5 -48t-41.5 -22q-55 0 -55 59zM192 551q0 35 30 82t76 74l16 -15l-72 -93l1 -3q7 6 21 6q18 0 31 -10t13 -30q0 -26 -19.5 -48t-41.5 -22q-55 0 -55 59z" />
  </g>

</svg>
