<?xml version="1.0" standalone="no"?>
<!DOCTYPE svg PUBLIC "-//W3C//DTD SVG 1.1//EN" "http://www.w3.org/Graphics/SVG/1.1/DTD/svg11.dtd" >
<svg xmlns="http://www.w3.org/2000/svg" xmlns:xlink="http://www.w3.org/1999/xlink" version="1.1" viewBox="-10 0 530 1000">
  <g transform="matrix(1 0 0 -1 0 800)">
   <path fill="currentColor"
d="M56.5 -137q-5.5 19 -5.5 54q0 49 6.5 100t19.5 129l50 293v62l62 10h10l-56 -363q-5 -32 -5 -51q0 -27 15.5 -34t40.5 -7q36 0 73 26.5t62 55.5l63 364l67 12l-79 -453h77v-34q-47 -31 -87 -31q-29 0 -42 11.5t-13 37.5q0 14 5.5 27.5t18.5 30.5l-3 3q-30 -43 -71.5 -77
t-107.5 -34q-34 0 -62 28l-1 -4l8 -9q0 -29 6.5 -68.5t28.5 -74.5q-8 -8 -22 -15.5t-31 -7.5q-22 0 -27.5 19z" />
  </g>

</svg>
