<?xml version="1.0" standalone="no"?>
<!DOCTYPE svg PUBLIC "-//W3C//DTD SVG 1.1//EN" "http://www.w3.org/Graphics/SVG/1.1/DTD/svg11.dtd" >
<svg xmlns="http://www.w3.org/2000/svg" xmlns:xlink="http://www.w3.org/1999/xlink" version="1.1" viewBox="-10 0 659 1000">
  <g transform="matrix(1 0 0 -1 0 800)">
   <path fill="currentColor"
d="M58 0zM115.5 57.5q-57.5 68.5 -57.5 190.5q0 109 37 203.5t109.5 151.5t174.5 57q113 0 173.5 -65.5t60.5 -192.5q0 -113 -35.5 -206.5t-109 -150t-184.5 -56.5t-168.5 68.5zM478 128.5q52 91.5 57 249.5q4 124 -35.5 179t-133.5 55q-116 0 -173 -97.5t-57 -249.5
q0 -121 37.5 -174.5t130.5 -53.5q122 0 174 91.5zM378 703zM358.5 717q-13.5 14 -13.5 35q0 24 14.5 43t41.5 19q22 0 35.5 -14t13.5 -37q0 -24 -15 -42t-42 -18q-21 0 -34.5 14zM483 886zM290 944h266l-7 -58h-267z" />
  </g>

</svg>
