<?xml version="1.0" standalone="no"?>
<!DOCTYPE svg PUBLIC "-//W3C//DTD SVG 1.1//EN" "http://www.w3.org/Graphics/SVG/1.1/DTD/svg11.dtd" >
<svg xmlns="http://www.w3.org/2000/svg" xmlns:xlink="http://www.w3.org/1999/xlink" version="1.1" viewBox="-10 0 680 1000">
  <g transform="matrix(1 0 0 -1 0 800)">
   <path fill="currentColor"
d="M26 0zM29 32l69 14l78 556l-65 14l3 32h127l216 -524l9 -30h4l2 18l70 490l-69 14l2 32h185l-3 -32l-69 -14l-85 -602h-65l-211 512l-9 30h-4l-70 -496l68 -14l-2 -32h-184zM332 -50zM262 -151.5q7 17.5 7 34.5q0 28 -20 47q20 20 45 20q19 0 28.5 -12t9.5 -29
q0 -24 -16.5 -50t-39.5 -40h-33q12 12 19 29.5z" />
  </g>

</svg>
