<?xml version="1.0" standalone="no"?>
<!DOCTYPE svg PUBLIC "-//W3C//DTD SVG 1.1//EN" "http://www.w3.org/Graphics/SVG/1.1/DTD/svg11.dtd" >
<svg xmlns="http://www.w3.org/2000/svg" xmlns:xlink="http://www.w3.org/1999/xlink" version="1.1" viewBox="-10 0 345 1000">
  <g transform="matrix(1 0 0 -1 0 800)">
   <path fill="currentColor"
d="M27 0zM29 32l72 14l78 556l-68 14l3 32h205l-3 -32l-71 -14l-78 -556l67 -14l-2 -32h-205zM73 792q4 15 15.5 25.5t39.5 16.5l52 -132l-32 -22l-43 49q-38 44 -32 63zM218 792q4 15 15.5 25.5t39.5 16.5l52 -132l-32 -22l-43 49q-38 44 -32 63z" />
  </g>

</svg>
