<?xml version="1.0" standalone="no"?>
<!DOCTYPE svg PUBLIC "-//W3C//DTD SVG 1.1//EN" "http://www.w3.org/Graphics/SVG/1.1/DTD/svg11.dtd" >
<svg xmlns="http://www.w3.org/2000/svg" xmlns:xlink="http://www.w3.org/1999/xlink" version="1.1" viewBox="-217 0 290 1000">
  <g transform="matrix(1 0 0 -1 0 800)">
   <path fill="currentColor"
d="M0 570zM-95 711q0 16 9 24.5t34 19.5q26 11 34.5 19t8.5 21q0 12 -11 17.5t-36 5.5q-31 0 -68 -8q-3 12 -3 20q0 23 13 31t48 8q56 0 87.5 -18.5t31.5 -53.5q0 -25 -16 -41.5t-51 -29.5q-23 -9 -28 -16t-5 -22l-43 -4q-5 18 -5 27zM8 570zM-155 586q-27 16 -39.5 39
t-12.5 44q0 13 7 21q17 21 52 21q2 -39 15.5 -63.5t58.5 -24.5q44 0 75.5 32t45.5 57l16 -18q-12 -37 -47 -80.5t-105 -43.5q-39 0 -66 16z" />
  </g>

</svg>
