<?xml version="1.0" standalone="no"?>
<!DOCTYPE svg PUBLIC "-//W3C//DTD SVG 1.1//EN" "http://www.w3.org/Graphics/SVG/1.1/DTD/svg11.dtd" >
<svg xmlns="http://www.w3.org/2000/svg" xmlns:xlink="http://www.w3.org/1999/xlink" version="1.1" viewBox="-10 0 808 1000">
  <g transform="matrix(1 0 0 -1 0 800)">
   <path fill="currentColor"
d="M60 0zM344 7q-14 11 -14 39q0 7 1 13l53 298q5 23 5 44q0 25 -11.5 37t-43.5 12q-39 0 -77 -17t-64 -35l-62 -398h-70l79 440l-80 17v31l140 19l-6 -69h3q27 22 75 48.5t90 26.5q48 0 69.5 -25.5t21.5 -67.5q0 -34 -8 -76l-49 -283h76v-34q-10 -8 -35 -19.5t-50 -11.5
q-29 0 -43 11zM528 0zM440.5 -159.5q-7.5 6.5 -7.5 25.5q0 23 13 39h66q20 0 37 3.5t23 8.5q8 6 20.5 26.5t17.5 52.5l70 451l-80 18v31l141 19v-66l-62 -413q-16 -102 -75.5 -152t-138.5 -50q-17 0 -24.5 6.5zM711 597zM678 610.5q-13 13.5 -13 34.5q0 23 14.5 41.5
t41.5 18.5q21 0 34 -13.5t13 -35.5q0 -24 -14.5 -41.5t-41.5 -17.5q-21 0 -34 13.5z" />
  </g>

</svg>
