<?xml version="1.0" standalone="no"?>
<!DOCTYPE svg PUBLIC "-//W3C//DTD SVG 1.1//EN" "http://www.w3.org/Graphics/SVG/1.1/DTD/svg11.dtd" >
<svg xmlns="http://www.w3.org/2000/svg" xmlns:xlink="http://www.w3.org/1999/xlink" version="1.1" viewBox="-10 0 372 1000">
  <g transform="matrix(1 0 0 -1 0 800)">
   <path fill="currentColor"
d="M27 0zM29 32l72 14l78 556l-68 14l3 32h205l-3 -32l-71 -14l-78 -556l67 -14l-2 -32h-205zM204 691q0 24 43 39q42 16 42 38q0 8 -12 13t-37 5q-31 0 -65 -8q-5 13 -5 27q0 12 13.5 22t47.5 10q57 0 89 -15.5t32 -44.5q0 -27 -17 -46t-51 -29q-18 -5 -24 -11.5t-7 -14.5
h-47q-2 10 -2 15z" />
  </g>

</svg>
