<?xml version="1.0" standalone="no"?>
<!DOCTYPE svg PUBLIC "-//W3C//DTD SVG 1.1//EN" "http://www.w3.org/Graphics/SVG/1.1/DTD/svg11.dtd" >
<svg xmlns="http://www.w3.org/2000/svg" xmlns:xlink="http://www.w3.org/1999/xlink" version="1.1" viewBox="-10 0 498 1000">
  <g transform="matrix(1 0 0 -1 0 800)">
   <path fill="currentColor"
d="M43 0zM43 150q0 57 24 143.5t75 153t128 66.5q32 0 66 -12t46 -19l22 35h29l-71 -456h73v-34q-9 -7 -36 -19t-52 -12q-32 0 -41.5 13t-9.5 37q0 11 4 23.5t13 34.5l-3 2q-25 -46 -65.5 -80.5t-82.5 -34.5q-119 0 -119 159zM249.5 74q34.5 33 62.5 75l46 270
q-68 39 -129 39q-25 0 -36 -14q-34 -44 -55.5 -119t-21.5 -154q0 -69 13.5 -99.5t53.5 -30.5q32 0 66.5 33zM388 570zM339 689zM208 809q0 34 38 50l136 -140l-24 -30l-103 68q-47 34 -47 52zM396 570zM233 586q-27 16 -39.5 39t-12.5 44q0 13 7 21q17 21 52 21
q2 -39 15.5 -63.5t58.5 -24.5q44 0 75.5 32t45.5 57l16 -18q-12 -37 -47 -80.5t-105 -43.5q-39 0 -66 16z" />
  </g>

</svg>
