<?xml version="1.0" standalone="no"?>
<!DOCTYPE svg PUBLIC "-//W3C//DTD SVG 1.1//EN" "http://www.w3.org/Graphics/SVG/1.1/DTD/svg11.dtd" >
<svg xmlns="http://www.w3.org/2000/svg" xmlns:xlink="http://www.w3.org/1999/xlink" version="1.1" viewBox="-10 0 724 1000">
  <g transform="matrix(1 0 0 -1 0 800)">
   <path fill="currentColor"
d="M71 0zM128 35.5q-47 46.5 -47 131.5q0 52 9 113l45 322l-64 14l3 32h206l-3 -32l-73 -14l-45 -326q-7 -50 -7 -93q0 -55 12 -85t42 -43.5t85 -13.5q86 0 126.5 60t56.5 175l45 325l-66 15l3 32h127q33 0 47 8.5t14 31.5q0 13 -5 20.5t-17 14.5v15l51 37q15 -10 23 -22.5
t8 -39.5q0 -16 -11 -37.5t-40 -42.5t-77 -32l-44 -322q-14 -101 -42 -163.5t-82 -94.5t-143 -32q-90 0 -137 46.5zM342 691q0 24 43 39q42 16 42 38q0 8 -12 13t-37 5q-31 0 -65 -8q-5 13 -5 27q0 12 13.5 22t47.5 10q57 0 89 -15.5t32 -44.5q0 -27 -17 -46t-51 -29
q-18 -5 -24 -11.5t-7 -14.5h-47q-2 10 -2 15z" />
  </g>

</svg>
