<?xml version="1.0" standalone="no"?>
<!DOCTYPE svg PUBLIC "-//W3C//DTD SVG 1.1//EN" "http://www.w3.org/Graphics/SVG/1.1/DTD/svg11.dtd" >
<svg xmlns="http://www.w3.org/2000/svg" xmlns:xlink="http://www.w3.org/1999/xlink" version="1.1" viewBox="-10 0 559 1000">
  <g transform="matrix(1 0 0 -1 0 800)">
   <path fill="currentColor"
d="M37 0zM118 34l73 14l26 184l-126 370l-54 12l4 34h202l-4 -34l-74 -15v-23l101 -299h4l158 303v19l-76 15l5 34h182l-5 -34l-50 -16l-202 -377l-24 -173l66 -14l-2 -34h-206zM403 709zM350.5 718.5q-27.5 9.5 -35.5 11.5l-77 25l-60 -41l-22 24l34 46q24 32 53 32
q17 0 78 -21l75 -25l61 42l22 -25l-34 -46q-25 -32 -52 -32q-15 0 -42.5 9.5z" />
  </g>

</svg>
