<?xml version="1.0" standalone="no"?>
<!DOCTYPE svg PUBLIC "-//W3C//DTD SVG 1.1//EN" "http://www.w3.org/Graphics/SVG/1.1/DTD/svg11.dtd" >
<svg xmlns="http://www.w3.org/2000/svg" xmlns:xlink="http://www.w3.org/1999/xlink" version="1.1" viewBox="-10 0 528 1000">
  <g transform="matrix(1 0 0 -1 0 800)">
   <path fill="currentColor"
d="M52 0zM92.5 13.5q-20.5 18.5 -20.5 63.5q0 23 7 67l52 295l-79 17v32l140 19v-66l-45 -293q-4 -26 -4 -45q0 -24 9.5 -35.5t32.5 -11.5q56 0 148 85l62 361l67 12l-78 -453h76v-34q-44 -31 -87 -31q-29 0 -42 11.5t-13 37.5q0 14 5.5 27.5t18.5 30.5l-3 2
q-32 -39 -80.5 -74.5t-110.5 -35.5q-35 0 -55.5 18.5zM262 -75zM205 -183zM172 -169.5q-13 13.5 -13 34.5q0 23 14.5 41.5t41.5 18.5q21 0 34 -13.5t13 -35.5q0 -24 -14.5 -41.5t-41.5 -17.5q-21 0 -34 13.5z" />
  </g>

</svg>
