<?xml version="1.0" standalone="no"?>
<!DOCTYPE svg PUBLIC "-//W3C//DTD SVG 1.1//EN" "http://www.w3.org/Graphics/SVG/1.1/DTD/svg11.dtd" >
<svg xmlns="http://www.w3.org/2000/svg" xmlns:xlink="http://www.w3.org/1999/xlink" version="1.1" viewBox="-10 0 544 1000">
  <g transform="matrix(1 0 0 -1 0 800)">
   <path fill="currentColor"
d="M43 0zM496.5 428.5q-27.5 -38.5 -86.5 -80.5v-1q0 -103 -27.5 -184t-81 -126.5t-128.5 -45.5q-64 0 -97 43t-33 122q0 101 28.5 182t83 128t129.5 47q57 0 87.5 -34t36.5 -96q55 48 55 89q0 12 -5.5 20t-16.5 15v15l51 37q17 -11 24.5 -24t7.5 -38q0 -30 -27.5 -68.5z
M303 103.5q14 38.5 25 92.5t11 106q0 62 -7.5 94.5t-28 47t-61.5 14.5q-19 0 -38.5 -5.5t-30.5 -14.5q-9 -9 -23 -46t-24.5 -89t-10.5 -103q0 -66 8 -98.5t28.5 -44.5t60.5 -12q51 0 69 15q8 5 22 43.5zM390 599zM298 615l-64 22l-69 -35l-18 16l33 43q14 18 25.5 27t24.5 9
q15 0 65 -16l60 -21l69 35l17 -16l-32 -39q-16 -21 -27.5 -31t-24.5 -10t-59 16z" />
  </g>

</svg>
