<?xml version="1.0" standalone="no"?>
<!DOCTYPE svg PUBLIC "-//W3C//DTD SVG 1.1//EN" "http://www.w3.org/Graphics/SVG/1.1/DTD/svg11.dtd" >
<svg xmlns="http://www.w3.org/2000/svg" xmlns:xlink="http://www.w3.org/1999/xlink" version="1.1" viewBox="-10 0 518 1000">
  <g transform="matrix(1 0 0 -1 0 800)">
   <path fill="currentColor"
d="M449 605q43 -56 43 -156q0 -81 -21 -185t-83.5 -189t-176.5 -85q-84 0 -127.5 56.5t-43.5 159.5q0 102 23.5 204.5t87.5 176.5t175 74q80 0 123 -56zM114 203q0 -58 9.5 -94t32.5 -54l182 554q-14 3 -30 3q-61 0 -97 -32t-56 -95.5t-33 -173.5q-8 -66 -8 -108zM417 447
q0 59 -9.5 95t-33.5 53l-182 -556q13 -3 28 -3q62 0 99 33.5t57 98t34 175.5q7 55 7 104z" />
  </g>

</svg>
