<?xml version="1.0" standalone="no"?>
<!DOCTYPE svg PUBLIC "-//W3C//DTD SVG 1.1//EN" "http://www.w3.org/Graphics/SVG/1.1/DTD/svg11.dtd" >
<svg xmlns="http://www.w3.org/2000/svg" xmlns:xlink="http://www.w3.org/1999/xlink" version="1.1" viewBox="-10 0 580 1000">
  <g transform="matrix(1 0 0 -1 0 800)">
   <path fill="currentColor"
d="M60 0zM144 56v536l-84 16v40h448v-158h-44l-20 108h-117l-112 -5v-237h173l13 56h39v-158h-39l-13 55h-173v-244q21 -6 55.5 -9.5t67.5 -3.5h114l20 103h45v-155h-457v40zM440 691zM219.5 725q-35.5 34 -35.5 86l56 2q1 -9 8.5 -25t24 -30t42.5 -14q45 0 68.5 26t28.5 45
l28 -2q-9 -53 -45.5 -87.5t-83.5 -34.5q-56 0 -91.5 34z" />
  </g>

</svg>
