<?xml version="1.0" standalone="no"?>
<!DOCTYPE svg PUBLIC "-//W3C//DTD SVG 1.1//EN" "http://www.w3.org/Graphics/SVG/1.1/DTD/svg11.dtd" >
<svg xmlns="http://www.w3.org/2000/svg" xmlns:xlink="http://www.w3.org/1999/xlink" version="1.1" viewBox="-10 0 761 1000">
  <g transform="matrix(1 0 0 -1 0 800)">
   <path fill="currentColor"
d="M60 0zM60 41l84 14v538l-84 14v41h239v-41l-84 -14v-236h322v236l-84 14v41h237v-41l-82 -14v-538l82 -14v-41h-237v41l84 14v252h-322v-252l84 -14v-41h-239v41zM524 680zM296 771q40 34 57.5 47t25.5 13q10 0 29 -14t56 -46l60 -53l-33 -38l-115 66l-123 -66l-24 35z
" />
  </g>

</svg>
