<?xml version="1.0" standalone="no"?>
<!DOCTYPE svg PUBLIC "-//W3C//DTD SVG 1.1//EN" "http://www.w3.org/Graphics/SVG/1.1/DTD/svg11.dtd" >
<svg xmlns="http://www.w3.org/2000/svg" xmlns:xlink="http://www.w3.org/1999/xlink" version="1.1" viewBox="-10 0 754 1000">
  <g transform="matrix(1 0 0 -1 0 800)">
   <path fill="currentColor"
d="M695 648v-42l-82 -15v-313q0 -108 -24.5 -172t-88.5 -93q-30 -21 -52.5 -49t-22.5 -55q0 -18 11 -28.5t29 -10.5q27 0 63 21l17 -27q-17 -19 -45 -35t-55 -16q-36 0 -57.5 19t-21.5 55q0 32 18 59t46 47q-37 -5 -75 -5q-90 0 -138.5 33t-66.5 95t-18 162v315l-82 14v41
h239v-41l-84 -14v-315q0 -92 15 -140.5t54 -68.5t115 -20q66 0 102.5 26t51 75t14.5 128v313l-83 15v42h221z" />
  </g>

</svg>
