<?xml version="1.0" standalone="no"?>
<!DOCTYPE svg PUBLIC "-//W3C//DTD SVG 1.1//EN" "http://www.w3.org/Graphics/SVG/1.1/DTD/svg11.dtd" >
<svg xmlns="http://www.w3.org/2000/svg" xmlns:xlink="http://www.w3.org/1999/xlink" version="1.1" viewBox="-10 0 731 1000">
  <g transform="matrix(1 0 0 -1 0 800)">
   <path fill="currentColor"
d="M73.5 27q-34.5 35 -34.5 90q0 64 54 104.5t166 46.5l47 3v79q0 86 -103 86q-32 0 -65 -7l-24 -86q-9 -7 -24 -7q-37 0 -37 42q0 38 37.5 66.5t86.5 43.5t79 15q39 0 69.5 -21.5t43.5 -54.5q28 37 65.5 56.5t81.5 19.5q94 0 129.5 -62t35.5 -193q0 -4 -7 -8t-18 -5
l-275 -12q0 -47 6.5 -81t33.5 -59.5t82 -25.5q103 0 153 14l6 -31q-23 -22 -63.5 -35t-89.5 -13q-102 0 -152 69q-36 -34 -78 -51.5t-100 -17.5q-71 0 -105.5 35zM610 329q0 47 -11.5 70.5t-35 32t-64.5 8.5q-64 0 -92.5 -46t-27.5 -122l228 12q3 18 3 45zM264.5 54
q27.5 6 41.5 14v155q-101 -3 -147 -22.5t-46 -67.5q0 -42 24 -63.5t71 -21.5q29 0 56.5 6z" />
  </g>

</svg>
