<?xml version="1.0" standalone="no"?>
<!DOCTYPE svg PUBLIC "-//W3C//DTD SVG 1.1//EN" "http://www.w3.org/Graphics/SVG/1.1/DTD/svg11.dtd" >
<svg xmlns="http://www.w3.org/2000/svg" xmlns:xlink="http://www.w3.org/1999/xlink" version="1.1" viewBox="-10 0 541 1000">
  <g transform="matrix(1 0 0 -1 0 800)">
   <path fill="currentColor"
d="M53.5 2.5q-12.5 14.5 -12.5 38.5q0 22 14 38.5t36 16.5t34 -13.5t12 -37.5q0 -23 -13 -40t-36 -17q-22 0 -34.5 14.5zM226.5 2.5q-12.5 14.5 -12.5 38.5q0 22 14 38.5t36 16.5t34 -13.5t12 -37.5q0 -23 -13 -40t-36 -17q-22 0 -34.5 14.5zM396.5 2.5
q-12.5 14.5 -12.5 38.5q0 22 14 38.5t36 16.5t34 -13.5t12 -37.5q0 -23 -13 -40t-36 -17q-22 0 -34.5 14.5z" />
  </g>

</svg>
