<?xml version="1.0" standalone="no"?>
<!DOCTYPE svg PUBLIC "-//W3C//DTD SVG 1.1//EN" "http://www.w3.org/Graphics/SVG/1.1/DTD/svg11.dtd" >
<svg xmlns="http://www.w3.org/2000/svg" xmlns:xlink="http://www.w3.org/1999/xlink" version="1.1" viewBox="-10 0 991 1000">
  <g transform="matrix(1 0 0 -1 0 800)">
   <path fill="currentColor"
d="M47 -19l492 709l42 -27l-487 -710zM53.5 391.5q-31.5 40.5 -31.5 112.5q0 73 37 115t111 42q75 0 106.5 -39.5t31.5 -115.5q0 -155 -148 -155q-75 0 -106.5 40.5zM232 423q17 25 17 83q0 62 -18.5 84.5t-66.5 22.5q-44 0 -63.5 -25.5t-19.5 -81.5q0 -57 17 -82.5
t67 -25.5t67 25zM717 34q-31 40 -31 112q0 73 37 115t111 42t105.5 -39.5t31.5 -115.5q0 -154 -147 -154q-76 0 -107 40zM384.5 31q-31.5 40 -31.5 112q0 73 37 115t112 42q74 0 105.5 -39.5t31.5 -115.5q0 -154 -147 -154q-76 0 -107.5 40zM895 65.5q17 24.5 17 82.5
q0 63 -18.5 85.5t-65.5 22.5q-45 0 -64 -25.5t-19 -82.5q0 -56 17 -81.5t67 -25.5q49 0 66 24.5zM563 63q17 25 17 82q0 63 -18.5 85.5t-65.5 22.5q-45 0 -64.5 -25.5t-19.5 -82.5q0 -56 17.5 -81.5t67.5 -25.5q49 0 66 25z" />
  </g>

</svg>
