<?xml version="1.0" standalone="no"?>
<!DOCTYPE svg PUBLIC "-//W3C//DTD SVG 1.1//EN" "http://www.w3.org/Graphics/SVG/1.1/DTD/svg11.dtd" >
<svg xmlns="http://www.w3.org/2000/svg" xmlns:xlink="http://www.w3.org/1999/xlink" version="1.1" viewBox="-10 0 521 1000">
  <g transform="matrix(1 0 0 -1 0 800)">
   <path fill="currentColor"
d="M188 169q62 50 91.5 82t38.5 56.5t9 58.5q0 44 -27.5 66.5t-90.5 22.5q-51 0 -89 -16t-52 -28l-16 20q10 12 36 34t67.5 41.5t88.5 19.5q78 0 121 -39t43 -112q0 -45 -20.5 -81.5t-61 -73.5t-118.5 -97l-65 -50v-6h270l19 66h38v-133h-422v55z" />
  </g>

</svg>
