<?xml version="1.0" standalone="no"?>
<!DOCTYPE svg PUBLIC "-//W3C//DTD SVG 1.1//EN" "http://www.w3.org/Graphics/SVG/1.1/DTD/svg11.dtd" >
<svg xmlns="http://www.w3.org/2000/svg" xmlns:xlink="http://www.w3.org/1999/xlink" version="1.1" viewBox="-10 0 1280 1000">
  <g transform="matrix(1 0 0 -1 0 800)">
   <path fill="currentColor"
d="M60 0zM144 56v535l-84 17v40h292q140 0 220.5 -79t80.5 -227q0 -342 -354 -342h-239v40zM509 116q59 70 59 219q0 129 -58.5 194.5t-186.5 65.5q-64 0 -108 -9v-528q16 -5 48.5 -8.5t63.5 -3.5q123 0 182 70zM744 42l387 548v6h-302l-31 -104h-44v156h469v-42l-386 -548
v-6h316l31 104h44v-156h-484v42z" />
  </g>

</svg>
