<?xml version="1.0" standalone="no"?>
<!DOCTYPE svg PUBLIC "-//W3C//DTD SVG 1.1//EN" "http://www.w3.org/Graphics/SVG/1.1/DTD/svg11.dtd" >
<svg xmlns="http://www.w3.org/2000/svg" xmlns:xlink="http://www.w3.org/1999/xlink" version="1.1" viewBox="-10 0 579 1000">
  <g transform="matrix(1 0 0 -1 0 800)">
   <path fill="currentColor"
d="M27 0zM108 51v361l-81 13v37l140 29l5 -37h3q42 21 87.5 34.5t73.5 13.5q62 0 95.5 -35t33.5 -100v-316l81 -14v-37h-231v37l81 14v304q0 45 -25 63.5t-87 18.5q-28 0 -60 -4t-47 -9v-373l80 -14v-37h-230v37zM263 -157q5 14 5 28q0 37 -28 59q9 11 21 15.5t22 4.5
q22 0 33 -15.5t11 -34.5q0 -27 -13.5 -48.5t-30.5 -32.5h-33q8 10 13 24z" />
  </g>

</svg>
