<?xml version="1.0" standalone="no"?>
<!DOCTYPE svg PUBLIC "-//W3C//DTD SVG 1.1//EN" "http://www.w3.org/Graphics/SVG/1.1/DTD/svg11.dtd" >
<svg xmlns="http://www.w3.org/2000/svg" xmlns:xlink="http://www.w3.org/1999/xlink" version="1.1" viewBox="-10 0 341 1000">
  <g transform="matrix(1 0 0 -1 0 800)">
   <path fill="currentColor"
d="M17 0zM113 24.5q-22 27.5 -22 77.5v344h-74v37l74 21l19 100h50v-110h141v-24l-14 -24h-127v-340q0 -28 11 -37t38 -9q24 0 49 4.5t32 7.5l8 -27q-24 -21 -54 -34.5t-53 -13.5q-56 0 -78 27.5zM144 -157q5 14 5 28q0 37 -28 59q9 11 21 15.5t22 4.5q22 0 33 -15.5
t11 -34.5q0 -27 -13.5 -48.5t-30.5 -32.5h-33q8 10 13 24z" />
  </g>

</svg>
