<?xml version="1.0" standalone="no"?>
<!DOCTYPE svg PUBLIC "-//W3C//DTD SVG 1.1//EN" "http://www.w3.org/Graphics/SVG/1.1/DTD/svg11.dtd" >
<svg xmlns="http://www.w3.org/2000/svg" xmlns:xlink="http://www.w3.org/1999/xlink" version="1.1" viewBox="-78 0 363 1000">
  <g transform="matrix(1 0 0 -1 0 800)">
   <path fill="currentColor"
d="M0 0zM27 37l81 14v361l-80 13v37l129 29l20 -8v-432l80 -14v-37h-230v37zM-21 715q15 0 23.5 -10t15 -23.5t9.5 -19.5l56 -105l-25 -19l-126 132q30 45 47 45zM137 715q15 0 23.5 -10t15 -23.5t9.5 -19.5l56 -105l-25 -19l-126 132q28 45 47 45z" />
  </g>

</svg>
