<?xml version="1.0" standalone="no"?>
<!DOCTYPE svg PUBLIC "-//W3C//DTD SVG 1.1//EN" "http://www.w3.org/Graphics/SVG/1.1/DTD/svg11.dtd" >
<svg xmlns="http://www.w3.org/2000/svg" xmlns:xlink="http://www.w3.org/1999/xlink" version="1.1" viewBox="-10 0 341 1000">
  <g transform="matrix(1 0 0 -1 0 800)">
   <path fill="currentColor"
d="M160 446v-340q0 -28 11 -37t38 -9q24 0 49 4.5t32 7.5l8 -27q-22 -19 -50 -32.5t-51 -15.5v-26l16 -3q35 -7 54 -19.5t19 -42.5q0 -50 -36.5 -70.5t-86.5 -20.5q-20 0 -35.5 3.5t-35.5 11.5l15 34q26 -10 52 -10q32 0 48.5 8t16.5 23q0 17 -7.5 23t-25.5 9l-39 7l-18 18
l24 58h1q-38 8 -53 34t-15 68v344h-74v37l74 21l19 100h50v-110h141v-24l-14 -24h-127z" />
  </g>

</svg>
