<?xml version="1.0" standalone="no"?>
<!DOCTYPE svg PUBLIC "-//W3C//DTD SVG 1.1//EN" "http://www.w3.org/Graphics/SVG/1.1/DTD/svg11.dtd" >
<svg xmlns="http://www.w3.org/2000/svg" xmlns:xlink="http://www.w3.org/1999/xlink" version="1.1" viewBox="-10 0 545 1000">
  <g transform="matrix(1 0 0 -1 0 800)">
   <path fill="currentColor"
d="M18 0zM149 41l83 14v542h-150l-20 -107h-44v158h500v-158h-45l-18 107h-152v-542l83 -14v-41h-237v41zM313 -50zM249 -157q5 14 5 28q0 37 -28 59q9 11 21 15.5t22 4.5q22 0 33 -15.5t11 -34.5q0 -27 -13.5 -48.5t-30.5 -32.5h-33q8 10 13 24z" />
  </g>

</svg>
