<?xml version="1.0" standalone="no"?>
<!DOCTYPE svg PUBLIC "-//W3C//DTD SVG 1.1//EN" "http://www.w3.org/Graphics/SVG/1.1/DTD/svg11.dtd" >
<svg xmlns="http://www.w3.org/2000/svg" xmlns:xlink="http://www.w3.org/1999/xlink" version="1.1" viewBox="-10 0 703 1000">
  <g transform="matrix(1 0 0 -1 0 800)">
   <path fill="currentColor"
d="M422 -36.5q-22 -27.5 -22 -54.5q0 -18 11 -28.5t29 -10.5q27 0 63 21l17 -27q-17 -19 -45 -35t-55 -16q-36 0 -57.5 19t-21.5 55q0 32 17.5 58.5t45.5 46.5q-24 -4 -58 -4q-145 0 -221 86t-76 239q0 97 36 175t108 124t174 46q87 0 150 -39t96.5 -111t33.5 -169
q0 -116 -42.5 -203.5t-131.5 -124.5q-29 -20 -51 -47.5zM191.5 103.5q58.5 -64.5 174.5 -64.5q103 0 149.5 72t46.5 211q0 115 -26.5 177t-71.5 84t-110 22q-69 0 -114.5 -17t-76 -80.5t-30.5 -193.5q0 -146 58.5 -210.5z" />
  </g>

</svg>
