<?xml version="1.0" standalone="no"?>
<!DOCTYPE svg PUBLIC "-//W3C//DTD SVG 1.1//EN" "http://www.w3.org/Graphics/SVG/1.1/DTD/svg11.dtd" >
<svg xmlns="http://www.w3.org/2000/svg" xmlns:xlink="http://www.w3.org/1999/xlink" version="1.1" viewBox="-21 0 315 1000">
  <g transform="matrix(1 0 0 -1 0 800)">
   <path fill="currentColor"
d="M0 0zM27 37l81 14v361l-80 13v37l129 29l20 -8v-432l80 -14v-37h-230v37zM218 683.5q33 -21.5 49 -53.5t17 -65l-45 -9q-2 34 -30 62t-81 28q-51 0 -77.5 -28t-29.5 -64l-32 6q0 34 15.5 67.5t48.5 55.5t83 22q49 0 82 -21.5z" />
  </g>

</svg>
