<?xml version="1.0" standalone="no"?>
<!DOCTYPE svg PUBLIC "-//W3C//DTD SVG 1.1//EN" "http://www.w3.org/Graphics/SVG/1.1/DTD/svg11.dtd" >
<svg xmlns="http://www.w3.org/2000/svg" xmlns:xlink="http://www.w3.org/1999/xlink" version="1.1" viewBox="-10 0 839 1000">
  <g transform="matrix(1 0 0 -1 0 800)">
   <path fill="currentColor"
d="M27 0zM108 51v361l-81 13v37l140 29l5 -37h3q42 21 87.5 34.5t73.5 13.5q62 0 95.5 -35t33.5 -100v-316l81 -14v-37h-231v37l81 14v304q0 45 -25 63.5t-87 18.5q-28 0 -60 -4t-47 -9v-373l80 -14v-37h-230v37zM569 0zM564 -156v35l109 26v507l-79 13v37l129 29l19 -8
v-567q0 -39 -26.5 -59.5t-76.5 -20.5q-38 0 -75 8zM749 570zM657.5 585.5q-13.5 15.5 -13.5 41.5q0 25 15.5 43t39.5 18q23 0 36.5 -14.5t13.5 -40.5q0 -27 -14.5 -45t-39.5 -18q-24 0 -37.5 15.5z" />
  </g>

</svg>
