<?xml version="1.0" standalone="no"?>
<!DOCTYPE svg PUBLIC "-//W3C//DTD SVG 1.1//EN" "http://www.w3.org/Graphics/SVG/1.1/DTD/svg11.dtd" >
<svg xmlns="http://www.w3.org/2000/svg" xmlns:xlink="http://www.w3.org/1999/xlink" version="1.1" viewBox="-10 0 295 1000">
  <g transform="matrix(1 0 0 -1 0 800)">
   <path fill="currentColor"
d="M27 0zM27 0zM27 37l81 14v361l-80 13v37l129 29l20 -8v-432l80 -14v-37h-230v37zM189 570zM97.5 585.5q-13.5 15.5 -13.5 41.5q0 25 15.5 43t39.5 18q23 0 36.5 -14.5t13.5 -40.5q0 -27 -14.5 -45t-39.5 -18q-24 0 -37.5 15.5zM195 -92zM195 -210zM103.5 -194.5
q-13.5 15.5 -13.5 41.5q0 25 15.5 43t39.5 18q23 0 36.5 -14.5t13.5 -40.5q0 -27 -14.5 -45t-39.5 -18q-24 0 -37.5 15.5z" />
  </g>

</svg>
