<?xml version="1.0" standalone="no"?>
<!DOCTYPE svg PUBLIC "-//W3C//DTD SVG 1.1//EN" "http://www.w3.org/Graphics/SVG/1.1/DTD/svg11.dtd" >
<svg xmlns="http://www.w3.org/2000/svg" xmlns:xlink="http://www.w3.org/1999/xlink" version="1.1" viewBox="-21 0 635 1000">
  <g transform="matrix(1 0 0 -1 0 800)">
   <path fill="currentColor"
d="M0 0zM-11 41l59 12l223 599h38l233 -599l62 -12v-41h-221v41l82 12l-52 136h-257l-45 -136l79 -12v-41h-201v41zM393 240l-98 257l-12 40h-5l-11 -40l-93 -257h219zM328 857.5q-25 8.5 -30 9.5l-74 23l-82 -37l-19 25l38 50q17 25 54 25q23 0 73 -16l74 -25l82 37l19 -24
l-38 -51q-18 -25 -54 -25q-18 0 -43 8.5zM268.5 818q17.5 13 25.5 13q10 0 29 -14t56 -46l60 -53l-33 -38l-115 66l-123 -66l-24 35l67 56q40 34 57.5 47z" />
  </g>

</svg>
