<?xml version="1.0" standalone="no"?>
<!DOCTYPE svg PUBLIC "-//W3C//DTD SVG 1.1//EN" "http://www.w3.org/Graphics/SVG/1.1/DTD/svg11.dtd" >
<svg xmlns="http://www.w3.org/2000/svg" xmlns:xlink="http://www.w3.org/1999/xlink" version="1.1" viewBox="-10 0 369 1000">
  <g transform="matrix(1 0 0 -1 0 800)">
   <path fill="currentColor"
d="M60 0zM60 41l83 14v538l-83 14v41h238v-41l-83 -14v-538l83 -14v-41h-238v41zM149 694q0 12 9 20.5t28 15.5q21 7 29.5 15t8.5 19q0 20 -52 20q-30 0 -65 -8q-7 17 -7 30q0 15 10 22t45 7q60 0 94.5 -17.5t34.5 -50.5q0 -49 -60 -66q-16 -5 -20.5 -10.5t-4.5 -13.5h-45
q-5 10 -5 17z" />
  </g>

</svg>
