<?xml version="1.0" standalone="no"?>
<!DOCTYPE svg PUBLIC "-//W3C//DTD SVG 1.1//EN" "http://www.w3.org/Graphics/SVG/1.1/DTD/svg11.dtd" >
<svg xmlns="http://www.w3.org/2000/svg" xmlns:xlink="http://www.w3.org/1999/xlink" version="1.1" viewBox="-10 0 546 1000">
  <g transform="matrix(1 0 0 -1 0 800)">
   <path fill="currentColor"
d="M25 0zM506 438q-20 -33 -63 -69q16 -45 16 -106q0 -79 -27 -140.5t-78.5 -96t-122.5 -34.5q-99 0 -152.5 66t-53.5 182q0 72 28 132t78.5 95t114.5 35q67 0 113.5 -26.5t71.5 -76.5q36 40 36 73q0 12 -5.5 19t-17.5 16v15l50 37q17 -13 24.5 -24.5t7.5 -38.5
q0 -25 -20 -58zM378 323l-4 -3l-3 27l2 2q-12 52 -43 76.5t-87 24.5q-58 0 -89 -22.5t-42 -66.5t-11 -117q0 -100 33.5 -150t115.5 -50q72 0 102.5 49.5t30.5 150.5q0 50 -5 79zM298 -92zM298 -210zM206.5 -194.5q-13.5 15.5 -13.5 41.5q0 25 15.5 43t39.5 18
q23 0 36.5 -14.5t13.5 -40.5q0 -27 -14.5 -45t-39.5 -18q-24 0 -37.5 15.5z" />
  </g>

</svg>
