<?xml version="1.0" standalone="no"?>
<!DOCTYPE svg PUBLIC "-//W3C//DTD SVG 1.1//EN" "http://www.w3.org/Graphics/SVG/1.1/DTD/svg11.dtd" >
<svg xmlns="http://www.w3.org/2000/svg" xmlns:xlink="http://www.w3.org/1999/xlink" version="1.1" viewBox="-10 0 295 1000">
  <g transform="matrix(1 0 0 -1 0 800)">
   <path fill="currentColor"
d="M27 0zM27 37l81 14v361l-80 13v37l129 29l20 -8v-432l80 -14v-37h-230v37zM105 568q0 13 8.5 21.5t29.5 18.5q22 11 29.5 18t7.5 17q0 27 -52 27q-30 0 -65 -8q-6 14 -6 30q0 15 9.5 22t45.5 7q60 0 94 -21.5t34 -61.5q0 -22 -15 -36t-45 -26q-17 -6 -21 -12.5t-4 -22.5
l-41 -5q-9 20 -9 32z" />
  </g>

</svg>
