<?xml version="1.0" standalone="no"?>
<!DOCTYPE svg PUBLIC "-//W3C//DTD SVG 1.1//EN" "http://www.w3.org/Graphics/SVG/1.1/DTD/svg11.dtd" >
<svg xmlns="http://www.w3.org/2000/svg" xmlns:xlink="http://www.w3.org/1999/xlink" version="1.1" viewBox="-10 0 613 1000">
  <g transform="matrix(1 0 0 -1 0 800)">
   <path fill="currentColor"
d="M521 461q-2 -34 -4 -49h66v-51h-79q-24 -67 -78.5 -101.5t-133.5 -34.5h-77v-165l119 -17v-43h-274v40l83 16v305h-83v51h83v49h-83v51h83v80l-83 16v40h230q92 0 152.5 -33t74.5 -103h66v-51h-62zM398.5 309.5q45.5 35.5 45.5 128.5q0 158 -150 158q-27 0 -49 -2t-30 -3
v-317h41q97 0 142.5 35.5z" />
  </g>

</svg>
