<?xml version="1.0" standalone="no"?>
<!DOCTYPE svg PUBLIC "-//W3C//DTD SVG 1.1//EN" "http://www.w3.org/Graphics/SVG/1.1/DTD/svg11.dtd" >
<svg xmlns="http://www.w3.org/2000/svg" xmlns:xlink="http://www.w3.org/1999/xlink" version="1.1" viewBox="-10 0 395 1000">
  <g transform="matrix(1 0 0 -1 0 800)">
   <path fill="currentColor"
d="M124.5 16.5q-22.5 28.5 -22.5 93.5v53l-57 -44l-24 32l81 74v123q0 117 31.5 185.5t112.5 68.5q46 0 74.5 -32.5t28.5 -82.5q0 -75 -54 -145t-121 -125v-61q0 -53 5 -75.5t17 -28.5t40 -6q18 0 40 8.5t37.5 17.5t20.5 12l14 -29q3 0 -20 -18.5t-57 -33.5t-74 -15
q-50 0 -72.5 28.5zM258.5 381.5q33.5 59.5 33.5 105.5q0 37 -15 60.5t-40 23.5q-33 0 -48 -49t-15 -165v-82q51 47 84.5 106.5z" />
  </g>

</svg>
