<?xml version="1.0" standalone="no"?>
<!DOCTYPE svg PUBLIC "-//W3C//DTD SVG 1.1//EN" "http://www.w3.org/Graphics/SVG/1.1/DTD/svg11.dtd" >
<svg xmlns="http://www.w3.org/2000/svg" xmlns:xlink="http://www.w3.org/1999/xlink" version="1.1" viewBox="-10 0 607 1000">
  <g transform="matrix(1 0 0 -1 0 800)">
   <path fill="currentColor"
d="M144 55v262h-84v43h84v233l-84 14v41h239v-41l-84 -14v-233h43l181 263q12 17 22.5 21t36.5 4h72v-42l-62 -14l-164 -232h176v-43h-177l182 -261l62 -14v-42h-79q-24 0 -32 3.5t-20 21.5l-200 292h-41v-262l84 -14v-41h-239v41z" />
  </g>

</svg>
