<?xml version="1.0" standalone="no"?>
<!DOCTYPE svg PUBLIC "-//W3C//DTD SVG 1.1//EN" "http://www.w3.org/Graphics/SVG/1.1/DTD/svg11.dtd" >
<svg xmlns="http://www.w3.org/2000/svg" xmlns:xlink="http://www.w3.org/1999/xlink" version="1.1" viewBox="-32 0 499 1000">
  <g transform="matrix(1 0 0 -1 0 800)">
   <path fill="currentColor"
d="M0 0zM457 494v-37l-53 -18l-215 -550q-10 -25 -34.5 -39t-59.5 -14q-38 0 -73 10v31l112 28l58 134l-160 399l-54 17v39h203v-41l-68 -9v-16l107 -276l11 -37l9 38l105 276v12l-59 11v42h171zM386 579zM96.5 593q-12.5 14 -12.5 37t13.5 39t35.5 16t34 -13t12 -36
q0 -24 -13 -40.5t-36 -16.5q-21 0 -33.5 14zM303.5 593q-12.5 14 -12.5 37t13.5 39t35.5 16t34 -13t12 -36q0 -24 -13 -40.5t-36 -16.5q-21 0 -33.5 14z" />
  </g>

</svg>
