<?xml version="1.0" standalone="no"?>
<!DOCTYPE svg PUBLIC "-//W3C//DTD SVG 1.1//EN" "http://www.w3.org/Graphics/SVG/1.1/DTD/svg11.dtd" >
<svg xmlns="http://www.w3.org/2000/svg" xmlns:xlink="http://www.w3.org/1999/xlink" version="1.1" viewBox="-10 0 582 1000">
  <g transform="matrix(1 0 0 -1 0 800)">
   <path fill="currentColor"
d="M529.867 48.1396c11.6904 -0.477539 22.3447 -0.719727 31.9512 -0.727539v-35.0781c-14.0723 -6.08008 -30.6826 -11.6904 -49.8633 -16.8145s-39.4814 -7.68652 -60.9033 -7.68652c-39.3174 0 -68.2451 5.84473 -86.791 17.543
c-18.5615 11.6904 -31.1689 28.4268 -37.8916 50.209l-2.5625 266.328v167.722c7.80371 -0.736328 15.8506 -1.30078 23.2393 -2.33496c25.9424 -3.69043 49.3311 -11.2988 70.1494 -22.832c19.8623 -11.2041 35.6348 -27.4619 47.3252 -48.7578
c11.6904 -21.3037 17.5352 -49.0957 17.5352 -83.3672c0 -36.1914 -0.712891 -79.1211 -2.16211 -128.766c-1.44141 -49.6523 -2.16211 -82.3252 -2.16211 -98.0195c0 -14.417 2.16211 -25.7861 6.4873 -34.1152s10.9697 -14.5742 19.9414 -18.7422
c5.44531 -2.5625 14.0166 -4.08301 25.707 -4.56055zM234.954 276.327c20.7793 5.85254 38.1943 11.3037 53.0732 16.5225l10.1465 -5.40625v-34.0127c-9.45703 -3.69043 -18.8594 -7.55273 -28.207 -11.6973c-17.6846 -7.88184 -32.1328 -16.1406 -43.3916 -24.8223
c-11.8936 -8.99512 -21.2256 -20.4658 -27.9639 -34.4365c-6.76953 -13.9551 -10.1309 -30.417 -10.1309 -49.3701c0 -25.0254 5.7041 -43.1797 17.1201 -54.415c11.4082 -11.251 25.4648 -16.8535 42.2012 -16.8535c17.4414 0 31.8115 3.54199 43.165 10.5703
l7.2002 -3.83105v-35.7754c-2.06055 -1.66113 -4.16016 -3.55762 -6.20508 -5.07812c-10.0918 -7.69434 -20.9355 -14.2529 -32.4688 -19.7061c-15.0752 -7.04395 -29.5859 -12.333 -43.5645 -15.8584c-13.9551 -3.51758 -33.4336 -5.28027 -58.459 -5.28027
c-37.2334 0 -68.9893 10.9932 -95.292 32.9551c-26.3027 21.9775 -39.458 51.0859 -39.458 87.3477c0 20.834 2.88379 38.5732 8.66602 53.1699c5.7666 14.5967 13.9541 27.5088 24.5479 38.7363c9.60645 10.2725 20.7637 18.7656 33.4336 25.5117
c12.6777 6.72266 26.5459 12.9912 41.6445 18.75c28.8652 10.5938 63.4971 21.5635 103.942 32.9795zM132.105 292.842c-45.1074 0 -81.6826 36.5752 -81.6826 81.6826c0 26.9609 13.2256 50.6865 33.3936 65.5576l-0.266602 0.125s59.0625 48.4844 201.382 50.3652
l10.6719 -5.66504v-16.4307s-81.8154 -18.3193 -81.8154 -91.6494l-0.243164 0.117188c0.0234375 -0.822266 0.243164 -1.58203 0.243164 -2.41992c0 -45.1074 -36.5752 -81.6826 -81.6826 -81.6826zM177.189 555.645c-35.2119 0 -63.748 28.5439 -63.7402 63.7637
c0 35.1963 28.5283 63.7402 63.7402 63.7402c35.1963 0 63.748 -28.5439 63.748 -63.7402c0 -35.2197 -28.5518 -63.7637 -63.748 -63.7637zM370.986 555.645c-35.2197 0 -63.748 28.5439 -63.748 63.7637c0 35.1963 28.5283 63.7402 63.748 63.7402
c35.1963 0 63.7402 -28.5439 63.7402 -63.7402c0 -35.2197 -28.5518 -63.7637 -63.7402 -63.7637z" />
  </g>

</svg>
