<?xml version="1.0" standalone="no"?>
<!DOCTYPE svg PUBLIC "-//W3C//DTD SVG 1.1//EN" "http://www.w3.org/Graphics/SVG/1.1/DTD/svg11.dtd" >
<svg xmlns="http://www.w3.org/2000/svg" xmlns:xlink="http://www.w3.org/1999/xlink" version="1.1" viewBox="-10 0 457 1000">
  <g transform="matrix(1 0 0 -1 0 800)">
   <path fill="currentColor"
d="M302.395 246.607c30.2598 2.85938 121.577 -0.68457 121.585 -0.676758l-0.0859375 -15.9287c-20.1758 -1.39453 -39.0664 -3.4707 -56.6797 -6.22852c-17.6211 -2.75781 -32.626 -8.01562 -45.0059 -15.7725s-21.6094 -18.2324 -27.7051 -31.4346
c-6.08789 -13.2021 -9.19824 -30.6357 -9.32324 -52.2998c-0.09375 -16.5479 0.791992 -34.5303 2.63281 -53.9541c1.84082 -19.416 2.71875 -38.1582 2.61719 -56.2031c-0.219727 -37.6172 -6.70703 -67.7441 -19.4707 -90.3877
c-12.7637 -22.6514 -30.9102 -39.9277 -54.4473 -51.8291c-23.5449 -11.9014 -51.791 -19.5645 -84.7617 -22.9883s-69.3105 -5.03027 -109.027 -4.80273l0.219727 39.2627c14.1426 0.517578 28.3008 2.09277 42.459 4.72559c14.1504 2.625 26.6709 7.2168 37.5381 13.7744
c11.1729 7.16113 20.1055 17.417 26.7969 30.7686s10.1074 31.1611 10.2324 53.4287l0.477539 85.749c0.188477 32.2031 4.77246 58.7256 13.7676 79.5908c8.99512 20.8574 21.0459 37.5703 36.168 50.1221c14.5107 12.2539 31.9443 21.9307 52.293 29.0449
c19.2979 6.73047 38.9326 14.0723 59.7197 16.0391zM367.659 304.555c17.8877 -2.96191 36.752 -5.24609 56.6064 -6.85254l-0.09375 -16.6973s-88.8359 -2.19434 -118.25 0.665039c-23.1611 2.2334 -44.0264 10.0996 -63.5439 17.2842s-36.6143 16.9785 -51.29 29.3975
c-15.5762 13.0303 -27.5801 30.2441 -36.042 51.6582c-8.44629 21.4141 -12.5908 47.7559 -12.418 79.0498l0.485352 85.7568c0.125 22.2598 -3.1582 40.1787 -9.84961 53.7568c-6.69922 13.5859 -15.4434 23.709 -26.2402 30.3926
c-12.8965 7.88965 -25.3545 12.8496 -37.374 14.8789c-12.0195 2.02148 -26.1543 3.68262 -42.3965 4.97559l0.219727 39.2627c38.5107 -0.219727 74.835 -2.30371 108.966 -6.26074c34.1309 -3.94922 62.291 -11.8555 84.4961 -23.7178
c23.9912 -13.0771 42.0986 -30.9336 54.3057 -53.5693c12.2148 -22.6279 18.2168 -52.4492 18.0049 -89.4629c-0.101562 -18.0527 -1.19043 -36.6221 -3.25098 -55.7246c-2.06055 -19.0947 -3.1416 -37.2178 -3.23535 -54.3691
c-0.132812 -23.7646 2.77441 -41.6836 8.72949 -53.7578c5.94727 -12.0664 15.0674 -22.1973 27.3535 -30.3926c11.9883 -7.88965 26.9297 -13.3115 44.8174 -16.2734z" />
  </g>

</svg>
