<?xml version="1.0" standalone="no"?>
<!DOCTYPE svg PUBLIC "-//W3C//DTD SVG 1.1//EN" "http://www.w3.org/Graphics/SVG/1.1/DTD/svg11.dtd" >
<svg xmlns="http://www.w3.org/2000/svg" xmlns:xlink="http://www.w3.org/1999/xlink" version="1.1" viewBox="-10 0 455 1000">
  <g transform="matrix(1 0 0 -1 0 800)">
   <path fill="currentColor"
d="M341.837 -96.9219c10.8125 -6.62109 23.3027 -11.2754 37.4453 -13.9863c14.1426 -2.70312 28.2852 -4.36426 42.4277 -4.95996v-39.2705c-39.7012 0 -76.0332 1.80176 -108.98 5.41406c-32.9629 3.6123 -61.1777 11.4316 -84.6289 23.4668
c-23.4902 12.043 -41.5273 29.4141 -54.1816 52.1367c-12.6152 22.7148 -18.9541 52.8809 -18.9541 90.4902c0 18.0527 0.979492 36.7793 2.9541 56.1875c1.95898 19.4082 2.93848 37.3906 2.93848 53.9385c0 21.6641 -3.03223 39.1133 -9.02637 52.3545
c-6.02539 13.2412 -15.2002 23.7637 -27.5332 31.5908c-12.3564 7.81934 -27.3057 13.1631 -44.9111 16.0225c-17.6211 2.86035 -36.4805 5.03809 -56.6562 6.54199v15.9287s91.3516 3.03223 121.596 0c20.7793 -2.08398 40.375 -9.53516 59.6338 -16.375
c20.2852 -7.22363 37.6641 -17.002 52.1045 -29.335c15.0518 -12.6465 27.0244 -29.4219 35.8857 -50.3262c8.89258 -20.9121 13.3271 -47.4658 13.3271 -79.6689v-85.749c0 -22.2676 3.31445 -40.0928 9.92773 -53.4834c6.62109 -13.3906 15.498 -23.7021 26.6318 -30.918z
M312.722 683.212c34.1387 3.76074 70.4697 5.64258 108.973 5.64258v-39.2627c-16.2266 -1.20703 -30.3691 -2.78223 -42.4199 -4.74121c-12.0195 -1.95898 -24.5088 -6.84863 -37.4443 -14.668c-10.8281 -6.62109 -19.6504 -16.6973 -26.4199 -30.2441
c-6.76953 -13.5391 -10.1309 -31.4424 -10.1309 -53.7021v-85.7646c0 -31.2861 -4.30957 -57.6201 -12.8652 -78.9795c-8.58008 -21.3672 -20.6855 -38.5186 -36.3486 -51.4541c-14.7461 -12.333 -31.8818 -22.0332 -51.4541 -29.1084
c-19.541 -7.06738 -40.4688 -14.8164 -63.6221 -16.9238c-29.4453 -2.69531 -118.266 0 -118.266 0v16.6973c19.8779 1.50391 38.7529 3.68945 56.6562 6.5498c17.9111 2.85156 32.8604 8.19531 44.9111 16.0146c12.333 8.125 21.5156 18.209 27.5332 30.2441
c6.00195 12.0352 9.02637 29.9385 9.02637 53.7031c0 17.1592 -0.979492 35.2822 -2.93066 54.3926c-1.98242 19.1025 -2.96191 37.6875 -2.96191 55.7402c0 37.0137 6.18945 66.7959 18.5303 89.3613c12.3174 22.5654 30.542 40.3203 54.6123 53.2637
c22.2676 11.7295 50.459 19.4785 84.6211 23.2393z" />
  </g>

</svg>
