<?xml version="1.0" standalone="no"?>
<!DOCTYPE svg PUBLIC "-//W3C//DTD SVG 1.1//EN" "http://www.w3.org/Graphics/SVG/1.1/DTD/svg11.dtd" >
<svg xmlns="http://www.w3.org/2000/svg" xmlns:xlink="http://www.w3.org/1999/xlink" version="1.1" viewBox="-10 0 535 1000">
  <g transform="matrix(1 0 0 -1 0 800)">
   <path fill="currentColor"
d="M473.665 150.484l36.001 -24.9648c-9.92773 -19.5332 -21.7744 -37.374 -35.541 -53.5459c-13.7666 -16.1641 -30.252 -30.4951 -49.4561 -42.9844c-20.1758 -13.124 -40.665 -23.0518 -61.4678 -29.7744c-20.8105 -6.72266 -44.9824 -10.084 -72.5156 -10.084
c-44.5039 0 -83.7979 6.47949 -117.896 19.4551c-34.0986 12.96 -62.1885 30.6523 -84.2764 53.0615c-22.0957 22.7305 -38.5811 49.6211 -49.4639 80.6797c-10.8828 31.0508 -16.3281 64.8281 -16.3281 101.325c0 33.292 6.64453 64.9932 19.9336 95.0889
s31.2949 56.501 54.0254 79.2393c23.373 23.3652 52.4258 42.0127 87.1592 55.9434c32.1406 12.8809 67.4932 19.5254 105.776 20.4893l1.08105 -7.00488c-19.4707 -18.3105 -68.1357 -67.8682 -77.9844 -115.491l0.101562 0.0390625
c-2.49902 -7.96875 -4.8418 -16.29 -6.87891 -25.5352c-5.92383 -26.8906 -8.88574 -59.2266 -8.88574 -97.0078c0 -56.9863 13.3672 -102.933 40.1016 -137.831s58.6709 -52.3477 95.8096 -52.3477c35.541 0 63.7949 7.92969 84.7617 23.7803
c20.9668 15.8428 39.6143 38.3379 55.9434 67.4697zM326.133 378.073c4.41895 30.6982 0.220703 54.1885 -3.0625 66.5527l0.227539 -0.0390625l2.8125 15.5293l31.3955 29.7744c90.5049 -11.2832 118.179 -66.5137 118.179 -66.5137l-0.015625 -0.0234375
c8.6582 -12.96 13.7432 -28.5205 13.7432 -45.2803c0 -45.0996 -36.5596 -81.6357 -81.6436 -81.6357c-45.0762 0 -81.6357 36.5361 -81.6357 81.6357z" />
  </g>

</svg>
