<?xml version="1.0" standalone="no"?>
<!DOCTYPE svg PUBLIC "-//W3C//DTD SVG 1.1//EN" "http://www.w3.org/Graphics/SVG/1.1/DTD/svg11.dtd" >
<svg xmlns="http://www.w3.org/2000/svg" xmlns:xlink="http://www.w3.org/1999/xlink" version="1.1" viewBox="-10 0 543 1000">
  <g transform="matrix(1 0 0 -1 0 800)">
   <path fill="currentColor"
d="M473.9 147.381l36.0234 -24.9658c-9.92773 -19.5332 -21.79 -37.3896 -35.5566 -53.5693c-13.7744 -16.1797 -30.2676 -30.5107 -49.4873 -43.0078c-20.1836 -13.1318 -40.6807 -23.0596 -61.499 -29.7822c-20.8262 -6.73047 -45.0137 -10.1152 -72.5547 -10.1152
c-44.5273 0 -83.8447 6.51074 -117.959 19.4785c-34.1143 12.9756 -62.2197 30.6758 -84.3232 53.0928c-22.1035 22.7461 -38.5967 49.6367 -49.4873 80.7266c-10.8906 31.0664 -16.3359 64.8682 -16.3359 101.381c0 33.3154 6.64453 65.0244 19.9414 95.1357
c13.2891 30.1035 31.3105 56.5322 54.0566 79.2783c23.3809 23.3809 52.457 42.0371 87.2061 55.9756c32.1562 12.8887 67.5244 19.5332 105.823 20.4971l1.08105 -7.00488c-19.4707 -18.3027 -68.1436 -67.916 -77.9922 -115.562l0.078125 0.0390625
c-2.4834 -7.96875 -4.8418 -16.2979 -6.88672 -25.543c-5.92383 -26.9297 -8.88574 -59.2578 -8.88574 -97.0547c0 -57.0176 13.375 -102.987 40.1172 -137.901c26.75 -34.9141 58.7021 -52.3711 95.8574 -52.3711c35.5566 0 63.8184 7.92969 84.8086 23.7881
c20.9824 15.8506 39.6299 38.3535 55.9746 67.4854zM327.809 390.515c1.37891 23.1221 -1.87207 40.9629 -4.5752 51.1719l0.235352 -0.0390625l2.80469 15.5371l31.4268 29.7822c89.2119 -11.126 117.341 -64.8291 118.14 -66.3965
c8.72852 -12.999 13.8369 -28.6299 13.8369 -45.4678c0 -45.1309 -36.5986 -81.6826 -81.6826 -81.6826c-45.123 0 -81.6826 36.5518 -81.6826 81.6826c0 5.27344 0.541016 10.4131 1.49707 15.4121zM296.562 -60.334c33.4961 -7.66309 53.6406 -40.877 46.7217 -74.5137
c-4.24707 -20.7793 -20.4424 -53.7891 -50.3262 -68.3467c-14.5811 -7.06738 -45.1699 -16.2969 -98.6611 -0.516602l-6.28418 19.4395l5.30469 6.08789c20.2383 -4.66992 70.7285 -14.0332 42.8818 16.1094c-12.8105 14.5186 -18.7969 34.71 -14.1504 55.0186
c7.68652 33.4727 41.041 54.3926 74.5137 46.7217z" />
  </g>

</svg>
