<?xml version="1.0" standalone="no"?>
<!DOCTYPE svg PUBLIC "-//W3C//DTD SVG 1.1//EN" "http://www.w3.org/Graphics/SVG/1.1/DTD/svg11.dtd" >
<svg xmlns="http://www.w3.org/2000/svg" xmlns:xlink="http://www.w3.org/1999/xlink" version="1.1" viewBox="-10 0 566 1000">
  <g transform="matrix(1 0 0 -1 0 800)">
   <path fill="currentColor"
d="M496.474 140.463l36.5332 -26.4404c-11.2275 -18.2559 -24.7666 -35.4697 -40.6172 -51.6494c-15.835 -16.1719 -33.8721 -30.0244 -54.0322 -41.5576c-21.4844 -12.1758 -43.1641 -21.3818 -65.1025 -27.627c-21.9697 -6.24512 -47.1758 -9.37109 -75.6807 -9.37109
c-47.4268 0 -88.3271 6.72266 -122.763 20.1836c-34.4355 13.4531 -62.8623 31.5527 -85.3027 54.291c-22.4092 22.7461 -39.1377 49.5742 -50.209 80.4844c-11.0322 30.9102 -16.5791 64.4609 -16.5791 100.66c0 32.6729 6.00195 63.9824 18.0137 93.9365
c12.0352 29.9541 29.085 56.6172 51.1729 79.998c21.7744 22.7461 49.2451 41.1592 82.3965 55.2549c33.1592 14.0957 70.2354 21.1475 111.237 21.1475c5.06152 0 9.8877 -0.164062 14.6904 -0.320312v-7.20801c-72.0684 -25.4648 -91.1318 -91.3672 -91.1318 -91.3672
l0.046875 0.015625c-8.3291 -24.125 -12.9756 -56.1553 -13.916 -96.2012v-40.3516c0 -65.667 12.6543 -115.641 37.9619 -149.912c25.2842 -34.2793 65.4795 -51.415 120.601 -51.415c30.0879 0 57.1592 8.25098 81.1816 24.7441
c24.0469 16.501 44.5439 37.3975 61.499 62.7051zM377.054 479.271c6.60547 -1.7627 13.0928 -3.62109 19.001 -5.84668c28.8262 -10.8906 52.7158 -25.9502 71.6143 -45.1621c18.2324 -18.2637 31.5293 -39.8027 39.874 -64.6328
c8.30566 -24.8223 12.4736 -50.8506 12.4736 -78.0703v-31.2393h-284.601v40.7275l114.026 1.55957c0 19.2197 -0.932617 38.918 -2.86035 59.1016c-1.91992 20.1758 -5.28125 36.6768 -10.1074 49.4873c-5.0459 13.9307 -11.8936 24.5869 -20.3789 32.1953
l-0.681641 8.29004c24.0381 22.6992 59.877 33.1279 61.6396 33.5898zM388.345 577.972c0 0 -59.3359 -48.7266 -202.424 -50.3564l-9.60645 5.84473v16.2422s81.8154 18.3584 81.8154 91.6494l0.227539 -0.101562c0 0.822266 -0.227539 1.60547 -0.227539 2.42773
c0 45.123 36.5596 81.6982 81.6826 81.6982c45.1074 0 81.6826 -36.5752 81.6826 -81.6982c0 -26.9922 -13.2334 -50.6943 -33.3936 -65.5654z" />
  </g>

</svg>
