<?xml version="1.0" standalone="no"?>
<!DOCTYPE svg PUBLIC "-//W3C//DTD SVG 1.1//EN" "http://www.w3.org/Graphics/SVG/1.1/DTD/svg11.dtd" >
<svg xmlns="http://www.w3.org/2000/svg" xmlns:xlink="http://www.w3.org/1999/xlink" version="1.1" viewBox="-10 0 566 1000">
  <g transform="matrix(1 0 0 -1 0 800)">
   <path fill="currentColor"
d="M496.474 143.597l36.5332 -26.4326c-11.2275 -18.2637 -24.7666 -35.4775 -40.6172 -51.6494c-15.835 -16.1719 -33.8721 -30.0322 -54.0322 -41.5654c-21.4844 -12.168 -43.1641 -21.374 -65.1025 -27.627c-21.9697 -6.24512 -47.1758 -9.37109 -75.6807 -9.37109
c-47.4268 0 -88.3271 6.73047 -122.763 20.1836s-62.8623 31.5527 -85.3027 54.2988c-22.4014 22.7461 -39.1377 49.5664 -50.209 80.4766c-11.0322 30.918 -16.5791 64.4688 -16.5791 100.66c0 32.6729 6.00195 63.9824 18.0137 93.9365
c12.0352 29.9541 29.0928 56.6172 51.1729 79.998c21.7822 22.7461 49.2529 41.1592 82.4043 55.2549s70.2275 21.1475 111.229 21.1475c5.06934 0 9.89551 -0.164062 14.6982 -0.320312v-7.20801c-72.0762 -25.4648 -91.1318 -91.3672 -91.1318 -91.3672
l0.0390625 0.015625c-8.3291 -24.125 -12.9756 -56.1553 -13.9082 -96.2012v-40.3516c0 -65.667 12.6465 -115.641 37.9541 -149.912c25.2842 -34.2793 65.4873 -51.415 120.601 -51.415c30.0957 0 57.167 8.25098 81.1816 24.7441
c24.0469 16.501 44.5439 37.3975 61.499 62.7051zM377.054 482.404c6.61328 -1.7627 13.0918 -3.62109 19 -5.84668c28.834 -10.8906 52.7158 -25.9502 71.6143 -45.1621c18.2402 -18.2637 31.5293 -39.8027 39.8818 -64.6328
c8.30566 -24.8223 12.4736 -50.8506 12.4736 -78.0703v-31.2393h-284.608v40.7275l114.034 1.55957c0 19.2197 -0.94043 38.918 -2.86035 59.1016c-1.91992 20.1758 -5.28906 36.6768 -10.1152 49.4873c-5.03809 13.9307 -11.8857 24.5869 -20.3789 32.1953
l-0.681641 8.29004c24.0469 22.6992 59.8857 33.1279 61.6406 33.5898zM188.67 581.245c-20.1602 14.8711 -33.3936 38.5801 -33.3936 65.5723c0 45.123 36.5752 81.7061 81.6826 81.7061c45.123 0 81.6826 -36.583 81.6826 -81.7061
c0 -0.822266 -0.219727 -1.59766 -0.243164 -2.42773l0.243164 0.101562c0 -73.291 81.8154 -91.6494 81.8154 -91.6494v-16.2344l-9.62988 -5.84473c-143.08 1.62207 -202.4 50.3418 -202.4 50.3418z" />
  </g>

</svg>
