<?xml version="1.0" standalone="no"?>
<!DOCTYPE svg PUBLIC "-//W3C//DTD SVG 1.1//EN" "http://www.w3.org/Graphics/SVG/1.1/DTD/svg11.dtd" >
<svg xmlns="http://www.w3.org/2000/svg" xmlns:xlink="http://www.w3.org/1999/xlink" version="1.1" viewBox="-10 0 627 1000">
  <g transform="matrix(1 0 0 -1 0 800)">
   <path fill="currentColor"
d="M219.56 413.796l-110.54 -129.782l-67.7676 -79.5596l-18.5303 -0.391602v66.9834l70.8545 76.1592c22.3545 25.5273 40.8066 64.6094 6.12793 120.718l0.321289 0.0234375c-0.525391 0.775391 -1.19922 1.39453 -1.7002 2.2168
c-27.2744 44.0811 -13.625 101.929 30.4717 129.203c44.1045 27.251 101.968 13.5859 129.203 -30.4951c16.3047 -26.3574 17.6836 -57.5498 6.98047 -84.2676l0.321289 0.0390625s-9.20605 -28.8887 -45.7812 -70.8076zM587.448 284.014l6.46387 -13.5781
l-69.9922 -87.7471h-22.4092v-182.005h-160.882v182.005h-248.174l-4.66211 14.8867l71.5752 86.4385h181.261v308.952l26.8984 114.614h133.983v-423.566h85.9375z" />
  </g>

</svg>
