<?xml version="1.0" standalone="no"?>
<!DOCTYPE svg PUBLIC "-//W3C//DTD SVG 1.1//EN" "http://www.w3.org/Graphics/SVG/1.1/DTD/svg11.dtd" >
<svg xmlns="http://www.w3.org/2000/svg" xmlns:xlink="http://www.w3.org/1999/xlink" version="1.1" viewBox="-10 0 377 1000">
  <g transform="matrix(1 0 0 -1 0 800)">
   <path fill="currentColor"
d="M296.032 45.7188c6.40918 -2.87598 13.4629 -5.44238 21.1416 -7.66016c7.68652 -2.26465 15.6943 -3.86328 24.0234 -4.82715v-35.0781h-303.663v35.0781c8.33691 0.642578 16.501 1.44141 24.5088 2.39746c8.00781 0.963867 14.8955 2.5625 20.6621 4.81152
c10.249 3.83887 17.457 9.3623 21.6172 16.5703c4.16797 7.20801 6.24414 16.7354 6.24414 28.5898v279.641c0 11.2041 -2.5625 21.0605 -7.68652 29.5459s-11.5254 15.2939 -19.2197 20.418c-5.75879 3.84668 -14.4951 7.5293 -26.1855 11.0547
c-11.6826 3.52539 -22.3389 5.7666 -31.9531 6.72266v35.0781l235.441 12.4893l7.2002 -7.2002v-381.499c0 -11.2119 2.40527 -20.7393 7.20801 -28.5898c4.81055 -7.84277 11.6895 -13.6953 20.6611 -17.542zM86.4648 552.853
c-35.2119 0 -63.7402 28.5439 -63.7402 63.7637c0 35.1963 28.5283 63.7402 63.7402 63.7402c35.2041 0 63.748 -28.5439 63.748 -63.7402c0 -35.2197 -28.5518 -63.7637 -63.748 -63.7637zM280.262 552.853c-35.2197 0 -63.748 28.5439 -63.748 63.7637
c0 35.1963 28.5283 63.7402 63.748 63.7402c35.2119 0 63.7402 -28.5439 63.7402 -63.7402c0 -35.2197 -28.5283 -63.7637 -63.7402 -63.7637z" />
  </g>

</svg>
