<?xml version="1.0" standalone="no"?>
<!DOCTYPE svg PUBLIC "-//W3C//DTD SVG 1.1//EN" "http://www.w3.org/Graphics/SVG/1.1/DTD/svg11.dtd" >
<svg xmlns="http://www.w3.org/2000/svg" xmlns:xlink="http://www.w3.org/1999/xlink" version="1.1" viewBox="-10 0 371 1000">
  <g transform="matrix(1 0 0 -1 0 800)">
   <path fill="currentColor"
d="M314.374 38.8398c7.68652 -2.26465 15.6973 -3.85938 24.0264 -4.82324v-35.0781h-303.663v35.0781c8.3291 0.642578 16.4932 1.44141 24.501 2.39746c8.01562 0.963867 14.9023 2.5625 20.6689 4.81152c10.2402 3.83887 17.4482 9.3623 21.6162 16.5703
c4.16016 7.20801 6.24414 16.7354 6.24414 28.5898v279.641c0 11.2041 -2.5625 21.0605 -7.68652 29.5459s-11.5332 15.2939 -19.2197 20.418c-5.7666 3.84668 -14.4951 7.5293 -26.1855 11.0547s-22.3467 5.7666 -31.9531 6.72266v35.0781l235.434 12.4893l7.20801 -7.2002
v-381.499c0 -11.2119 2.39746 -20.7393 7.20801 -28.5898c4.80273 -7.84277 11.6904 -13.6953 20.6621 -17.542c6.40137 -2.87598 13.4531 -5.44629 21.1396 -7.66406zM70.4971 579.242c-20.168 14.8711 -33.4014 38.5801 -33.4014 65.5645
c0 45.123 36.5752 81.6982 81.6826 81.6982c45.123 0 81.6826 -36.5752 81.6826 -81.6982c0 -0.822266 -0.219727 -1.59766 -0.243164 -2.42773l0.243164 0.101562c0 -73.291 81.8154 -91.6494 81.8154 -91.6494v-16.2344l-9.62207 -5.84473
c-143.08 1.62207 -202.4 50.3496 -202.4 50.3496z" />
  </g>

</svg>
