<?xml version="1.0" standalone="no"?>
<!DOCTYPE svg PUBLIC "-//W3C//DTD SVG 1.1//EN" "http://www.w3.org/Graphics/SVG/1.1/DTD/svg11.dtd" >
<svg xmlns="http://www.w3.org/2000/svg" xmlns:xlink="http://www.w3.org/1999/xlink" version="1.1" viewBox="-27 0 629 1000">
  <g transform="matrix(1 0 0 -1 0 800)">
   <path fill="currentColor"
d="M254.396 -166.499c8.65039 -3.52539 20.8975 -6.71875 36.748 -9.60254c15.8428 -2.87598 29.0527 -4.63867 39.6143 -5.28125v-35.5332h-347.204v35.5332c8.00781 0.642578 18.0918 1.8418 30.252 3.60449c12.168 1.75488 21.2881 3.5957 27.376 5.52344
c10.2402 3.51758 17.2061 9.51953 20.8887 18.0049c3.6748 8.48535 5.51562 18.1699 5.51562 29.0527v491.278c-0.956055 10.5615 -3.43945 19.8467 -7.44336 27.8545c-4.00391 8 -10.3271 15.0439 -18.9697 21.124c-6.40137 4.16797 -14.8867 7.60742 -25.4482 10.3262
c-10.5693 2.72656 -20.9668 4.55957 -31.2148 5.52344v35.0547l234.337 12.4893l7.22363 -6.24512v-53.3115l0.117188 -0.0390625v-44.9824l-0.117188 -0.117188v-492.713c0 -11.2119 2.47559 -20.9746 7.43555 -29.2959c4.96777 -8.3291 11.9258 -14.4092 20.8896 -18.248z
M533.496 415.296c38.3535 -46.8945 57.543 -108.603 57.543 -185.114c0 -67.5557 -22.5498 -125.497 -67.6338 -173.849c-45.0762 -48.3438 -102.141 -72.5156 -171.2 -72.5156c-30.7139 0 -55.6455 3.11816 -74.834 9.36328
c-8.30566 2.70312 -15.8662 5.72754 -22.9336 8.94824v38.3613l7.76465 4.34082c5.72754 -4.70117 11.7451 -8.82227 18.4678 -11.5488c10.2324 -4.16016 21.3975 -6.24414 33.542 -6.24414c31.6152 0 56.9307 17.0498 75.915 51.1484
c19.0088 34.0986 28.5127 84.1191 28.5127 150.068c0 24.0146 -1.7627 46.9873 -5.26465 68.9102c-3.51758 21.9307 -9.74707 41.542 -18.6875 58.8262c-8.62695 17.292 -20.0508 31.0508 -34.2559 41.2988c-14.2129 10.2402 -31.5371 15.3643 -51.9639 15.3643
c-18.7344 0 -33.8955 -3.0791 -45.8682 -8.93945l-8.21875 4.37988v31.459c14.3936 11.2832 29.5781 20.8662 45.7812 28.333c25.7314 11.8467 51.2275 17.7705 76.4961 17.7705c66.1924 0 118.453 -23.4512 156.838 -70.3613z" />
  </g>

</svg>
