<?xml version="1.0" standalone="no"?>
<!DOCTYPE svg PUBLIC "-//W3C//DTD SVG 1.1//EN" "http://www.w3.org/Graphics/SVG/1.1/DTD/svg11.dtd" >
<svg xmlns="http://www.w3.org/2000/svg" xmlns:xlink="http://www.w3.org/1999/xlink" version="1.1" viewBox="-10 0 387 1000">
  <g transform="matrix(1 0 0 -1 0 800)">
   <path fill="currentColor"
d="M353.551 703.145c-56.8682 -10.5381 -100.494 -47.1592 -130.887 -109.896c-30.3848 -62.7451 -45.585 -152.482 -45.585 -269.228s15.2002 -206.482 45.585 -269.22c30.3926 -62.7373 74.0195 -99.375 130.888 -109.905v-32.8848l-12.2939 -5.61035
c-36.959 6.0957 -73.2676 17.3711 -108.887 34.4365c-39.5684 18.9531 -74.8506 45.5771 -105.839 79.8877c-31.2939 34.2949 -56.4219 76.4961 -75.375 126.595s-28.4336 108.996 -28.4336 176.692c0 67.7041 9.48047 126.602 28.4336 176.7
c18.9609 50.0986 44.0811 92.2998 75.375 126.603c30.9883 33.9971 66.2627 60.5508 105.839 79.6611c35.9951 17.3789 72.7031 28.7949 110.046 34.8516l11.1338 -6.33887v-32.3438z" />
  </g>

</svg>
