<?xml version="1.0" standalone="no"?>
<!DOCTYPE svg PUBLIC "-//W3C//DTD SVG 1.1//EN" "http://www.w3.org/Graphics/SVG/1.1/DTD/svg11.dtd" >
<svg xmlns="http://www.w3.org/2000/svg" xmlns:xlink="http://www.w3.org/1999/xlink" version="1.1" viewBox="-10 0 603 1000">
  <g transform="matrix(1 0 0 -1 0 800)">
   <path fill="currentColor"
d="M224.66 90.2305c12.623 -27.9795 27.9102 -46.0889 45.7197 -54.8564l0.862305 -10.0684c-30.3145 -19.5488 -62.415 -26.0361 -64.3506 -26.3965c-42.9219 12.4502 -79.5596 34.3809 -109.718 66.0977c-49.6211 52.1826 -74.4512 122.293 -74.4512 210.338
c0 116.534 39.3721 211.858 118.155 285.98c78.752 74.1133 186.322 120.138 322.711 138.064l11.0322 -47.5439l-50.8896 -8.64258c-39.3721 -11.2041 -72.0449 -25.6133 -97.9873 -43.2188c-25.9268 -17.6055 -47.1992 -38.0947 -63.8652 -61.4678
c-17.2686 -24.0068 -30.416 -49.4639 -39.3799 -76.3545c-6.54199 -19.6504 -11.4629 -39.8574 -15.6309 -60.3467c-0.336914 -0.375977 -0.556641 -0.603516 -0.556641 -0.603516s-1.6377 -6.99707 -3.51855 -19.8467
c-0.117188 -0.783203 -0.336914 -1.49609 -0.438477 -2.2793c0.0390625 0.0390625 0.101562 0.078125 0.15625 0.117188c-2.71875 -19.3213 -5.7666 -50.8428 -4.95996 -93.7646c-0.321289 -6.40137 -0.501953 -12.6387 -0.501953 -18.7266
c0 -76.833 9.19824 -135.668 27.6113 -176.481zM555.082 309.208c10.0605 -27.0547 15.1211 -56.4229 15.1211 -88.124c0 -67.5557 -25.9346 -123.499 -77.8193 -167.847c-51.8613 -44.3398 -116.675 -66.5059 -194.471 -66.5059
c-5.00684 0 -9.80957 0.235352 -14.6436 0.478516l-0.399414 7.28711c61.4287 20.6455 90.8584 97.1416 90.8584 97.1416l-0.0546875 0.117188c12.5049 29.7744 18.8438 69.1152 18.8438 118.281c0 51.2266 -9.05762 92.04 -27.1494 122.456
c-18.084 30.416 -41.8408 45.624 -71.2939 45.624c-18.5693 0 -35.7129 -3.68262 -51.3838 -11.0479c-4.27832 -2.02148 -8.44629 -4.75586 -12.5439 -7.78027l-6.80859 2.54688c0.798828 13.0693 2.18555 26.209 4.58301 37.2334
c19.1729 13.5312 37.9619 23.2939 56.3125 28.7314c26.4131 7.86621 56.085 11.7842 89.0791 11.7842c27.5332 0 53.3037 -5.4375 77.3184 -16.3203c23.9912 -10.8906 44.8174 -25.7773 62.4307 -44.668c17.9033 -19.2041 31.9131 -42.334 42.0205 -69.3887z" />
  </g>

</svg>
