<?xml version="1.0" standalone="no"?>
<!DOCTYPE svg PUBLIC "-//W3C//DTD SVG 1.1//EN" "http://www.w3.org/Graphics/SVG/1.1/DTD/svg11.dtd" >
<svg xmlns="http://www.w3.org/2000/svg" xmlns:xlink="http://www.w3.org/1999/xlink" version="1.1" viewBox="-10 0 703 1000">
  <g transform="matrix(1 0 0 -1 0 800)">
   <path fill="currentColor"
d="M640.557 49.832c9.71582 -1.44141 19.3613 -2.32227 28.8887 -2.64355v-35.0781l-229.189 -13.9307l-7.20801 6.72266v62.9404h-0.09375l-0.862305 275.096v32.8926c0 10.8906 -2.08398 20.6533 -6.24414 29.3115c-4.14453 8.65039 -10.248 15.6943 -18.2559 21.1396
c-5.74316 3.84668 -14.0176 6.40918 -24.7441 7.68652c-10.7344 1.28516 -21.7041 2.24121 -32.8926 2.88379v35.0703l233.467 12.4971l7.24805 -7.20801v-370.921c0 -11.2119 2.22559 -20.7393 6.66797 -28.5898c4.46582 -7.85059 10.9922 -14.4951 19.5801 -19.9404
c6.04102 -3.83887 13.9307 -6.4873 23.6387 -7.92871zM331.189 61.1201c21.5234 0 40.8838 5.48535 58.2393 16.0947l11.6123 -6.16602v-29.7666c-0.87793 -0.822266 -1.86523 -1.70801 -2.7666 -2.49902c-10.3896 -9.44922 -22.8008 -18.0215 -37.1709 -25.708
c-16.3213 -8.65039 -31.7568 -15.0596 -46.3066 -19.2197c-14.5576 -4.16797 -35.7363 -6.24414 -63.5674 -6.24414c-48.3125 0 -85.3496 14.5654 -111.073 43.7207c-25.7471 29.1475 -38.6357 70.3057 -38.6357 123.476v216.222
c0 12.4893 -2.3584 22.6592 -7.14551 30.5098s-11.1338 14.8164 -19.1182 20.8965c-6.37012 4.81055 -14.6602 8.25 -24.8301 10.334c-10.1855 2.07617 -19.415 3.43945 -27.7051 4.08203v35.0703l232.096 12.4971l5.28125 -7.20801v-319.514
c0 -32.9941 6.30762 -57.3379 18.9619 -73.0322c12.6465 -15.6943 30.0332 -23.5449 52.1289 -23.5449zM177.179 609.15c-3.43945 21.0225 3.84473 41.2471 17.666 55.4131l-0.204102 0.078125s52.293 50.4121 124.565 59.5791
c8.80664 1.14355 26.7021 0.884766 35.5557 -0.000976562c74.1689 -7.24805 124.558 -59.5801 124.558 -59.5801l-0.196289 -0.078125c13.8135 -14.166 21.0928 -34.3887 17.6533 -55.4111c-5.78223 -35.1963 -38.9961 -59.0625 -74.1924 -53.2959
c-35.1963 5.79004 -59.0625 39.0039 -53.2959 74.2002c0.125 0.658203 0.407227 1.21484 0.524414 1.85742l-0.196289 -0.0546875c5.80566 35.3916 -11.5342 70.7285 -32.6348 70.7285c-21.124 0 -38.4404 -35.3369 -32.6348 -70.7285l-0.204102 0.0546875
c0.125 -0.642578 0.399414 -1.19922 0.477539 -1.85742c5.79004 -35.2041 -18.0527 -68.4102 -53.249 -74.2002c-35.1963 -5.7666 -68.4258 18.0996 -74.1924 53.2959z" />
  </g>

</svg>
