<?xml version="1.0" standalone="no"?>
<!DOCTYPE svg PUBLIC "-//W3C//DTD SVG 1.1//EN" "http://www.w3.org/Graphics/SVG/1.1/DTD/svg11.dtd" >
<svg xmlns="http://www.w3.org/2000/svg" xmlns:xlink="http://www.w3.org/1999/xlink" version="1.1" viewBox="-10 0 703 1000">
  <g transform="matrix(1 0 0 -1 0 800)">
   <path fill="currentColor"
d="M640.564 51.0234c9.70801 -1.44141 19.3594 -2.33008 28.8867 -2.65137v-35.0703l-229.182 -13.9385l-7.19238 6.73047v62.9404h-0.117188l-0.837891 275.096v32.8926c0 10.8906 -2.10742 20.6611 -6.26758 29.3115c-4.14453 8.65039 -10.248 15.6943 -18.2402 21.1396
c-5.79004 3.84668 -14.0166 6.40918 -24.7666 7.68652c-10.7266 1.28516 -21.7041 2.24121 -32.8926 2.88379v35.0781l233.467 12.4893l7.24805 -7.20801v-370.929c0 -11.2041 2.22559 -20.7393 6.66797 -28.582c4.46582 -7.84277 10.9922 -14.4951 19.5801 -19.9404
c6.04883 -3.84668 13.9307 -6.4873 23.6465 -7.92871zM331.195 62.3115c21.5156 0 40.9004 5.48535 58.2559 16.0869l11.5879 -6.16602v-29.7666c-0.901367 -0.822266 -1.85742 -1.7002 -2.75879 -2.49902c-10.3975 -9.44922 -22.8008 -18.0215 -37.1631 -25.708
c-16.3369 -8.64258 -31.7725 -15.0518 -46.3223 -19.2197c-14.542 -4.16016 -35.7207 -6.24414 -63.5674 -6.24414c-48.3125 0 -85.3418 14.5811 -111.073 43.7285c-25.7236 29.1475 -38.6201 70.3057 -38.6201 123.483v216.214
c0 12.4971 -2.38184 22.6592 -7.16895 30.5098s-11.1494 14.8164 -19.1182 20.9043c-6.33887 4.80273 -14.6523 8.24219 -24.7988 10.3262c-10.2168 2.07617 -19.415 3.43945 -27.7285 4.08203v35.0781l232.096 12.4893l5.28125 -7.20801v-319.514
c0 -32.9941 6.33105 -57.3379 18.9854 -73.0322c12.6465 -15.6943 30.0254 -23.5449 52.1133 -23.5449zM228.749 555.645c-35.1963 0 -63.7402 28.5439 -63.7402 63.7637c0 35.1963 28.5439 63.7402 63.7402 63.7402c35.2197 0 63.7637 -28.5439 63.7637 -63.7402
c0 -35.2197 -28.5439 -63.7637 -63.7637 -63.7637zM422.547 555.645c-35.1963 0 -63.7402 28.5439 -63.7402 63.7637c0 35.1963 28.5439 63.7402 63.7402 63.7402c35.2119 0 63.7637 -28.5439 63.7637 -63.7402c0 -35.2197 -28.5518 -63.7637 -63.7637 -63.7637z" />
  </g>

</svg>
