<?xml version="1.0" standalone="no"?>
<!DOCTYPE svg PUBLIC "-//W3C//DTD SVG 1.1//EN" "http://www.w3.org/Graphics/SVG/1.1/DTD/svg11.dtd" >
<svg xmlns="http://www.w3.org/2000/svg" xmlns:xlink="http://www.w3.org/1999/xlink" version="1.1" viewBox="-10 0 956 1000">
  <g transform="matrix(1 0 0 -1 0 800)">
   <path fill="currentColor"
d="M700.629 47.333c7.05176 -3.51758 18.4941 -6.47852 34.3447 -8.87598c15.8428 -2.40527 27.29 -3.76855 34.334 -4.08203v-35.0625h-321.277v35.0625c8.00781 0.634766 16.0938 1.52051 24.2578 2.64062c8.15625 1.12012 15.1221 2.64062 20.8809 4.56055
c10.248 3.52539 17.292 8.96289 21.1309 16.3281c3.84668 7.36523 5.7666 16.9717 5.7666 28.8184v279.491c0 11.5254 -2.71875 21.8525 -8.16406 30.9727s-12.0039 16.4072 -19.6904 21.8525c-0.03125 0.015625 -0.0625 0.0390625 -0.09375 0.0546875
c-5.46094 3.62793 -12.0029 5.28906 -18.5615 5.28906h-205.041v-267.613c0 -37.3975 5.21875 -63.9277 15.6709 -79.5908c10.4209 -15.6709 29.1475 -23.5137 56.1396 -23.5137c8.66602 0 20.7168 0.634766 36.1445 1.91992
c8.7207 0.720703 15.8037 1.51953 21.5469 2.3418l10.7266 -9.74707v-28.6143c-20.4893 -8.96387 -42.4199 -17.0498 -65.7852 -24.25c-23.373 -7.20801 -51.8701 -10.8047 -85.4834 -10.8047c-49.9424 0 -87.0029 12.1602 -111.175 36.457
c-24.1719 24.3047 -36.2539 58.999 -36.2539 104.083v294.543l1.91211 52.3477l-0.117188 128.64c0 12.1602 -2.4209 23.4512 -7.30273 33.8564s-11.4004 18.3271 -19.5645 23.7725c-6.28418 4.16016 -15.8115 8.16406 -28.5361 12.0029
c-12.7246 3.84668 -23.9521 6.08789 -33.7148 6.72266v35.0625l237.651 12.4814l7.10645 -7.68652v-6.40137l0.078125 -0.0390625v-233.632h313.747v-0.109375l89.0713 4.84961l7.2002 -7.2002v-381.789c0 -11.2041 1.7627 -20.4893 5.28027 -27.8545
c3.52539 -7.35742 9.44922 -13.124 17.7705 -17.2842zM895.565 467.594c33.8799 -29.7344 37.2559 -81.3369 7.49707 -115.232c-29.7344 -33.8564 -81.3135 -37.2178 -115.193 -7.4834c-0.634766 0.541016 -1.05762 1.21484 -1.67676 1.75586l-0.0546875 -0.235352
c-22.1895 19.4473 -46.3223 22.9492 -67.3604 20.3086l-11.9248 6.34668l0.243164 50.1846c66.4902 57.1426 117.278 62.7686 117.278 62.7686l-0.0859375 -0.258789c24.4541 5.32031 51.0078 -0.360352 71.2773 -18.1543z" />
  </g>

</svg>
