<?xml version="1.0" standalone="no"?>
<!DOCTYPE svg PUBLIC "-//W3C//DTD SVG 1.1//EN" "http://www.w3.org/Graphics/SVG/1.1/DTD/svg11.dtd" >
<svg xmlns="http://www.w3.org/2000/svg" xmlns:xlink="http://www.w3.org/1999/xlink" version="1.1" viewBox="-10 0 1364 1000">
  <g transform="matrix(1 0 0 -1 0 800)">
   <path fill="currentColor"
d="M626.108 46.0791c5.12402 -2.88379 10.9697 -5.44336 17.5361 -7.67676c6.56641 -2.24121 13.5244 -3.84766 20.8896 -4.80371v-35.0547h-287.656v35.0547c8.32129 0.642578 16.4854 1.44922 24.4932 2.40527c8 0.956055 14.8789 2.55469 20.6455 4.7959
c10.2402 3.83887 17.2842 9.37012 21.123 16.5703c3.84668 7.20801 5.7666 16.7275 5.7666 28.5742v279.491c0 10.248 -2.72656 20.2461 -8.16406 30.0088c-5.4375 9.77051 -11.9961 17.3711 -19.6826 22.8086c-5.7666 3.84668 -13.0537 7.04395 -21.8525 9.60645
c-8.80664 2.5625 -18.4912 4.3252 -29.0527 5.28125v35.0625l229.063 12.4814l7.20801 -7.2002v-382.259c0 -11.2119 1.43359 -20.4893 4.31738 -27.8545s8 -13.1318 15.3652 -17.292zM958.552 45.1182c5.12402 -2.24121 11.4355 -4.48633 18.9648 -6.72754
c7.52148 -2.2334 16.25 -3.83984 26.1777 -4.7959v-35.0625h-285.259v35.0625c6.98145 0.956055 14.2842 1.73926 21.9082 2.39746c7.62402 0.642578 13.9629 2.24121 19.0479 4.80371c6.98926 3.20508 11.4238 8.56445 13.3281 16.0859
c1.89648 7.5293 2.86035 17.2139 2.86035 29.0527v224.269c0 32.9707 -5.86035 57.707 -17.5898 74.1924c-11.6982 16.4854 -28.4658 24.7363 -50.3184 24.7363c-13.8135 0 -26.0996 -2.16211 -36.8418 -6.47949c-10.0996 -4.06641 -19.3057 -9.1123 -27.8535 -14.9883
l-6.69922 3.58105l0.196289 40.3359c13.3672 11.6279 25.6533 20.9521 36.8184 27.9727c12.4893 8.00781 28.418 14.7305 47.7871 20.168c19.3691 5.44531 40.1016 8.16406 62.1895 8.16406c48.3438 0 85.5615 -14.2441 111.653 -42.7568
c26.0918 -28.4736 39.1377 -68.9736 39.1377 -121.478v-233.389c0 -11.8467 1.7627 -21.374 5.28027 -28.5742c3.52539 -7.2002 9.92676 -12.7236 19.2119 -16.5703zM1304.91 38.3916c7.52148 -2.2334 16.2393 -3.84375 26.1582 -4.7998v-35.0547h-285.251v35.0547
c6.99707 0.963867 14.2842 1.73926 21.9082 2.40527c7.62402 0.634766 13.9863 2.2334 19.0713 4.7959c6.95801 3.20508 11.4004 8.57227 13.3281 16.0938c1.87305 7.52148 2.83691 17.2061 2.83691 29.0527v224.269c0 32.9707 -5.84473 57.707 -17.5898 74.1924
c-11.7061 16.4854 -28.4736 24.7285 -50.3184 24.7285c-13.8057 0 -26.0918 -2.1543 -36.8418 -6.47949c-10.084 -4.06641 -19.3135 -9.10449 -27.8301 -14.9883l-6.70703 3.58105l0.188477 40.3438c13.3828 11.6201 25.6689 20.9521 36.8105 27.9727
c12.4893 8 28.418 14.7227 47.7871 20.168s40.1016 8.16406 62.1895 8.16406c48.3438 0 85.5693 -14.2441 111.661 -42.7646c26.0918 -28.4658 39.1377 -68.9658 39.1377 -121.478v-233.389c0 -11.8467 1.75488 -21.374 5.28027 -28.5742
c3.51758 -7.2002 9.92676 -12.7236 19.2119 -16.5625c5.12402 -2.24121 11.4395 -4.49023 18.9688 -6.73145zM488.938 639.298c0 -45.0996 -36.5596 -81.6357 -81.6357 -81.6357s-81.6357 36.5361 -81.6357 81.6357c0 45.084 36.5596 81.6436 81.6357 81.6436
s81.6357 -36.5596 81.6357 -81.6436zM283.482 46.0742c7.68652 -2.5625 17.7705 -5.04395 30.252 -7.44141c12.4814 -2.40527 23.6855 -4.08203 33.6133 -5.0459v-35.0547h-324.631v35.0547c8.38379 0.642578 16.5244 1.44141 24.4141 2.40527
c7.89746 0.956055 14.9023 2.5625 21.0293 4.7959c10.3037 3.84668 17.3242 9.3623 21.0303 16.5703c3.71387 7.16113 5.5625 16.6885 5.5625 28.5273v387.109c0 34.2168 4.95996 67.3525 14.8877 99.4854c9.91895 32.1006 25.292 60.793 46.1025 86.0459
c20.168 24.9316 46.7373 45.0605 79.7158 60.3867c31.9912 14.8867 69.5303 22.416 112.373 22.8545l-0.282227 -6.78516c-30.291 -14.3467 -51.5635 -31.5918 -61.5693 -41.0801c-0.712891 -0.595703 -1.39453 -1.36328 -2.09961 -2.02148
c-3.1416 -3.06348 -4.89648 -5.0459 -4.89648 -5.0459s-0.125 -0.313477 -0.164062 -0.391602c-5.86035 -7.27148 -11.0791 -16.8936 -15.5059 -29.3984c-8 -22.6914 -12.0039 -71.4346 -12.0039 -146.19l0.078125 -34.9141h83.9863v-52.3477h-83.8682l0.759766 -333.375
c0 -12.4893 2.88379 -22.1738 8.65039 -29.0527c5.75879 -6.84766 13.2803 -11.8857 22.5654 -15.0908z" />
  </g>

</svg>
