<?xml version="1.0" standalone="no"?>
<!DOCTYPE svg PUBLIC "-//W3C//DTD SVG 1.1//EN" "http://www.w3.org/Graphics/SVG/1.1/DTD/svg11.dtd" >
<svg xmlns="http://www.w3.org/2000/svg" xmlns:xlink="http://www.w3.org/1999/xlink" version="1.1" viewBox="-10 0 588 1000">
  <g transform="matrix(1 0 0 -1 0 800)">
   <path fill="currentColor"
d="M462.171 566.325c-48.665 0 -88.1152 39.458 -88.1152 88.123c0 48.6807 39.4502 88.1152 88.1152 88.1152c48.6885 0 88.123 -39.4346 88.123 -88.1152c0 -48.665 -39.4346 -88.123 -88.123 -88.123zM337.473 -109.537c0 -45.0762 -36.5596 -81.6357 -81.6357 -81.6357
c-45.084 0 -81.6436 36.5596 -81.6436 81.6357c0 45.084 36.5596 81.6436 81.6436 81.6436c45.0762 0 81.6357 -36.5596 81.6357 -81.6436zM547.912 476.627l7.18652 -7.19629v-413.576c0 -32.9785 -5.60254 -66.2705 -16.791 -99.8916
c-11.1885 -33.6133 -27.1729 -62.4316 -47.96 -86.4385c-22.6992 -26.2559 -50.1855 -46.7451 -82.4824 -61.4678c-32.2969 -14.7305 -69.2324 -22.0957 -110.791 -22.0957c-5.94727 0 -11.5498 0.282227 -16.9326 0.744141l-0.125 8.0625
c33.0801 7.71777 61.8359 19.0479 78.1807 33.9346c14.7539 13.4219 22.8086 23.0518 29.0537 47.0586c6.24512 24.0146 9.37109 76.1973 9.37109 156.556v331.839c0 11.2041 -2.40527 21.0527 -7.2002 29.5381c-4.81055 8.48535 -11.3691 15.6074 -19.6982 21.3662
c-4.70117 3.22852 -11.2432 7.74902 -20.6064 9.22949c-24.1016 3.82324 -97.6045 0 -97.6045 0l0.759766 -333.375c0 -12.4893 2.88379 -22.1738 8.64258 -29.0615c5.7666 -6.83984 13.2881 -11.8857 22.5732 -15.083c7.67871 -2.5625 17.7705 -5.0459 30.252 -7.45117
c12.4814 -2.39746 23.6934 -4.08203 33.6133 -5.03809v-35.0625h-324.631v35.0625c8.38379 0.642578 16.5244 1.44141 24.4141 2.39746c7.89746 0.963867 14.9023 2.5625 21.0293 4.80371c10.3037 3.83887 17.3242 9.3623 21.0303 16.5625
c3.71387 7.16113 5.5625 16.6885 5.5625 28.5352v387.109c0 34.2168 4.95996 67.3525 14.8877 99.4854c9.91895 32.0928 25.292 60.793 46.1025 86.0381c20.168 24.9316 46.7373 45.0605 79.7158 60.3867c31.9912 14.8867 69.5303 22.416 112.373 22.8545
l-0.282227 -6.78516c-30.291 -14.3467 -51.5635 -31.5918 -61.5693 -41.0801c-0.712891 -0.603516 -1.39453 -1.35547 -2.09961 -2.02148c-3.1416 -3.06348 -4.89648 -5.03809 -4.89648 -5.03809s-0.125 -0.321289 -0.164062 -0.399414
c-5.86035 -7.26367 -11.0791 -16.8857 -15.5059 -29.3984c-8 -22.6904 -12.0039 -71.4336 -12.0039 -146.189l0.078125 -34.9141h296.518z" />
  </g>

</svg>
