<?xml version="1.0" standalone="no"?>
<!DOCTYPE svg PUBLIC "-//W3C//DTD SVG 1.1//EN" "http://www.w3.org/Graphics/SVG/1.1/DTD/svg11.dtd" >
<svg xmlns="http://www.w3.org/2000/svg" xmlns:xlink="http://www.w3.org/1999/xlink" version="1.1" viewBox="-10 0 904 1000">
  <g transform="matrix(1 0 0 -1 0 800)">
   <path fill="currentColor"
d="M847.188 37.0215c7.69434 -2.24121 15.7021 -3.8418 24.0156 -4.79004v-35.0703h-257.514l-1.00293 42.2793c10.2568 3.84668 17.4805 9.35449 21.6484 16.5781c4.16016 7.20801 6.24414 16.7354 6.24414 28.5898v279.641c0 11.2119 -2.57031 21.0527 -7.69434 29.5459
c-5.12402 8.48535 -11.5254 15.2939 -19.2197 20.418c-4.2627 2.84375 -10.3818 6.88672 -18.248 8.25c-22.6436 3.88672 -91.876 0 -91.876 0l0.759766 -333.578c0 -12.4893 2.88379 -22.1816 8.65039 -29.0684c5.7666 -6.84766 13.2881 -11.8936 22.5811 -15.0986
c7.68652 -2.5625 17.7783 -5.03809 30.2676 -7.44336l0.477539 -40.124h-291.645v35.0781c8.38379 0.634766 16.54 1.44141 24.4219 2.39746c7.91406 0.963867 14.9189 2.5625 21.0459 4.80371c10.3037 3.83887 17.3398 9.37012 21.0381 16.5781
c3.72949 7.16113 5.57031 16.6885 5.57031 28.543v337.849h-95.1982v-425.07h-228.79v35.0547c8.38379 0.642578 16.5244 1.44922 24.4141 2.40527c7.89746 0.963867 14.9023 2.5625 21.0293 4.80371c10.3037 3.83887 17.3242 9.3623 21.0303 16.5625
c3.72168 7.16895 5.5625 16.6963 5.5625 28.5352v387.109c0 34.2168 4.95996 67.3525 14.8877 99.4932c9.91895 32.0928 25.292 60.7852 46.1025 86.0381c20.168 24.9316 46.7373 45.0605 79.7158 60.3867c31.9912 14.8867 69.5303 22.4082 112.373 22.8467
l-0.282227 -6.77734c-30.291 -14.3467 -51.5635 -31.5996 -61.5693 -41.0801c-0.712891 -0.603516 -1.39453 -1.36328 -2.09961 -2.02148c-3.1416 -3.06348 -4.89648 -5.0459 -4.89648 -5.0459s-0.125 -0.321289 -0.164062 -0.399414
c-5.86035 -7.26367 -11.0791 -16.8857 -15.5059 -29.3984c-8 -22.6904 -12.0039 -71.4336 -12.0039 -146.189l0.078125 -34.9141h95.3711c0.274414 33.2061 5.19531 65.4092 14.8408 96.6562c9.92773 32.1094 25.3008 60.8174 46.127 86.0859
c20.1758 24.9473 46.7686 45.084 79.7549 60.418c31.999 14.918 69.5693 22.4238 112.437 22.8623l-0.282227 -6.76953c-30.3066 -14.3467 -51.5947 -31.6074 -61.6006 -41.1191c-0.720703 -0.603516 -1.40234 -1.35547 -2.10742 -1.99805
c-3.1416 -3.08691 -4.89648 -5.0459 -4.89648 -5.0459l-0.164062 -0.407227c-5.86035 -7.2793 -11.1104 -16.8936 -15.5137 -29.4219c-8.00781 -22.707 -12.0117 -71.4736 -12.0117 -146.27l0.078125 -34.9141s148.925 -1.31641 198.562 0
c22.2598 0.580078 88.9844 4.72461 88.9844 4.72461l7.20801 -7.20801v-381.499c0 -11.2041 2.38965 -20.7393 7.19238 -28.582c4.8418 -7.85059 11.7051 -13.6953 20.6768 -17.542c6.40918 -2.88379 13.4375 -5.44629 21.1396 -7.6875zM713.377 556.584
c-45.1074 0 -81.6826 36.5596 -81.6826 81.6826c0 45.084 36.5752 81.6826 81.6826 81.6826s81.6826 -36.5986 81.6826 -81.6826c0 -45.123 -36.5752 -81.6826 -81.6826 -81.6826z" />
  </g>

</svg>
