<?xml version="1.0" standalone="no"?>
<!DOCTYPE svg PUBLIC "-//W3C//DTD SVG 1.1//EN" "http://www.w3.org/Graphics/SVG/1.1/DTD/svg11.dtd" >
<svg xmlns="http://www.w3.org/2000/svg" xmlns:xlink="http://www.w3.org/1999/xlink" version="1.1" viewBox="-10 0 1302 1000">
  <g transform="matrix(1 0 0 -1 0 800)">
   <path fill="currentColor"
d="M985.175 294.112c15.0283 -33.5508 30.8926 -68.8838 47.1816 -105.036l55.6465 -121.995l-38.4629 -67.375h-100.386c-36.3789 85.4746 -67.4688 156.392 -93.2627 212.743c-25.7939 56.3438 -53.0684 116.855 -81.8789 181.527
c-0.0625 0.140625 -0.125 0.28125 -0.195312 0.421875c-8.33691 18.5303 -27.2744 29.9854 -47.5908 29.9854h-117.506v-267.605c0 -37.3975 5.22656 -63.9277 15.6709 -79.5986c10.4209 -15.6631 29.1553 -23.5059 56.1396 -23.5059
c8.66602 0 20.7168 0.634766 36.1367 1.91211c8.72852 0.720703 15.8115 1.52734 21.5547 2.3418l10.7188 -9.74707v-28.6143c-20.4893 -8.96387 -42.4199 -17.0498 -65.7852 -24.25c-23.373 -7.20801 -51.8701 -10.8047 -85.4834 -10.8047
c-49.9424 0 -87.0029 12.168 -111.175 36.457c-24.1641 24.3125 -36.2539 59.0068 -36.2539 104.091v294.535l0.172852 4.78711h-181.903v-267.613c0 -37.3975 5.22656 -63.9277 15.6709 -79.5908c10.4209 -15.6709 29.1475 -23.5137 56.1396 -23.5137
c8.66602 0 20.7168 0.634766 36.1445 1.91992c8.7207 0.720703 15.8037 1.51953 21.5469 2.3418l10.7266 -9.74707v-28.6143c-20.4893 -8.96387 -42.4199 -17.0498 -65.793 -24.25c-23.373 -7.20801 -51.8701 -10.8047 -85.4834 -10.8047
c-49.9424 0 -86.9951 12.1602 -111.167 36.457c-24.1797 24.3047 -36.2617 58.999 -36.2617 104.083v294.543l1.91992 52.3477l-0.117188 128.64c0 12.1602 -2.4209 23.4512 -7.30273 33.8564s-11.4004 18.3271 -19.5645 23.7725
c-6.28418 4.16016 -15.8115 8.16406 -28.5361 12.0029c-12.7246 3.84668 -23.9521 6.08789 -33.7148 6.72266v35.0625l237.651 12.4814l7.10645 -7.68652v-6.40137l0.078125 -0.0390625v-233.632h184.614l-0.117188 123.859c0 12.1602 -2.41309 23.4512 -7.30273 33.8564
c-4.88184 10.4053 -11.4004 18.3271 -19.5645 23.7725c-6.28418 4.16016 -15.8037 8.16406 -28.5361 12.0029c-12.7246 3.84668 -23.9521 6.08789 -33.7148 6.72266v35.0625l237.659 12.4814l7.10645 -7.68652v-6.40137l0.078125 -0.0390625v-233.624h384.594v-35.0625
c-10.7656 -0.321289 -23.3887 -2.71875 -37.9541 -7.2002c-14.5498 -4.48145 -21.8135 -10.248 -21.8135 -17.292c0 -1.91992 0.642578 -4.7959 1.9043 -8.64258c1.23828 -3.83887 2.83691 -4.48145 4.74121 -9.28418c10.1465 -24.3359 25.4492 -59.3672 45.9229 -105.133z
M1243.08 464.823c28.8418 -27.1416 33.5264 -70.3223 13.2959 -102.682l0.03125 -0.03125l-146.637 -256.519l-8.11719 0.375977l-8.22656 18.1699s92.8711 175.886 37.8359 221.706c-0.0234375 0.015625 -0.0390625 0.03125 -0.0625 0.0390625
c-32.8535 30.8945 -34.4131 82.584 -3.51855 115.414c30.8945 32.8379 82.5605 34.4209 115.398 3.52637z" />
  </g>

</svg>
