<?xml version="1.0" standalone="no"?>
<!DOCTYPE svg PUBLIC "-//W3C//DTD SVG 1.1//EN" "http://www.w3.org/Graphics/SVG/1.1/DTD/svg11.dtd" >
<svg xmlns="http://www.w3.org/2000/svg" xmlns:xlink="http://www.w3.org/1999/xlink" version="1.1" viewBox="-10 0 1263 1000">
  <g transform="matrix(1 0 0 -1 0 800)">
   <path fill="currentColor"
d="M743.786 639.303c0 -45.0996 -36.5596 -81.6357 -81.6357 -81.6357c-45.084 0 -81.6436 36.5361 -81.6436 81.6357c0 45.084 36.5596 81.6436 81.6436 81.6436c45.0762 0 81.6357 -36.5596 81.6357 -81.6436zM538.33 46.0791
c7.67871 -2.5625 17.7598 -5.04102 30.249 -7.43848c12.4814 -2.39746 23.6855 -4.08203 33.6133 -5.03809v-35.0625h-324.639v35.0625c8.38379 0.642578 16.5244 1.43359 24.4141 2.39746c7.90625 0.956055 14.9033 2.5625 21.0303 4.80371
c10.3037 3.83887 17.3242 9.3623 21.0303 16.5625c3.71387 7.16113 5.5625 16.6885 5.5625 28.5352v336.501h-98.082l0.258789 -113.181v-311.891h-229.048v35.0547c8.38379 0.642578 16.5244 1.44922 24.4141 2.40527c7.90625 0.963867 14.9033 2.5625 21.0303 4.80371
c10.3037 3.83887 17.3242 9.3623 21.0303 16.5625c3.71387 7.16895 5.5625 16.6963 5.5625 28.5352v387.109c0 34.2168 4.95996 67.3525 14.8877 99.4932c9.91895 32.0928 25.292 60.7852 46.1025 86.0381c20.168 24.9316 46.7373 45.0605 79.7158 60.3867
c31.9912 14.8867 69.5303 22.4082 112.373 22.8467l-0.282227 -6.77734c-30.291 -14.3467 -51.5635 -31.5996 -61.5693 -41.0801c-0.712891 -0.603516 -1.39453 -1.36328 -2.09961 -2.02148c-3.1416 -3.06348 -4.89648 -5.0459 -4.89648 -5.0459
s-0.125 -0.321289 -0.164062 -0.399414c-5.86035 -7.26367 -11.0791 -16.8857 -15.5059 -29.3984c-8 -22.6914 -12.0039 -71.4346 -12.0039 -146.19l0.078125 -34.9141h98.2305c0.172852 33.5977 5.10156 66.1611 14.8564 97.7451
c9.92773 32.1006 25.293 60.793 46.1035 86.0459c20.168 24.9316 46.7451 45.0605 79.7158 60.3867c31.999 14.8867 69.5303 22.416 112.381 22.8545l-0.282227 -6.78516c-30.2988 -14.3467 -51.5635 -31.5918 -61.5693 -41.0801
c-0.720703 -0.595703 -1.40234 -1.36328 -2.09961 -2.02148c-3.1416 -3.06348 -4.9043 -5.0459 -4.9043 -5.0459s-0.117188 -0.313477 -0.15625 -0.391602c-5.86816 -7.27148 -11.0869 -16.8936 -15.5059 -29.3984c-8.00781 -22.6904 -12.0117 -71.4336 -12.0117 -146.189
l0.078125 -34.9141h83.9941v-52.3477h-83.8682l0.759766 -333.375c0 -12.4893 2.88379 -22.1738 8.64258 -29.0527c5.7666 -6.84766 13.2881 -11.8857 22.5732 -15.0908zM892.881 -164.254c8.64258 -3.52539 20.8818 -6.71875 36.7402 -9.60254
c15.8428 -2.88379 29.0527 -4.63867 39.6143 -5.28125v-35.541h-347.204v35.541c8 0.634766 18.084 1.83398 30.252 3.59668s21.2881 3.60352 27.3682 5.52344c10.248 3.51758 17.2139 9.52734 20.8887 18.0127c3.68262 8.47754 5.52344 18.1621 5.52344 29.0449v491.278
c-0.963867 10.5615 -3.43945 19.8545 -7.44336 27.8545c-4.00391 8.00781 -10.3271 15.0439 -18.9697 21.1318c-6.40137 4.16016 -14.8867 7.59961 -25.4561 10.3262c-10.5615 2.71875 -20.9668 4.55957 -31.2148 5.51562v35.0625l234.337 12.4814l7.22363 -6.24512
v-53.3037l0.125 -0.0390625v-44.9824c-0.046875 -0.0390625 -0.0859375 -0.078125 -0.125 -0.117188v-492.721c0 -11.1963 2.4834 -20.9668 7.45117 -29.2881c4.95996 -8.32129 11.9258 -14.4092 20.8896 -18.248zM1171.97 417.542
c38.3691 -46.9023 57.5508 -108.603 57.543 -185.114c0 -67.5557 -22.5498 -125.497 -67.6338 -173.841c-45.0762 -48.3438 -102.141 -72.5234 -171.2 -72.5234c-30.7139 0 -55.6455 3.12598 -74.834 9.37109c-8.30566 2.69531 -15.8662 5.71973 -22.9336 8.94043v38.3613
l7.77246 4.34082c5.71973 -4.70898 11.7373 -8.83008 18.4678 -11.5488c10.2246 -4.16016 21.3896 -6.24414 33.5342 -6.24414c31.6152 0 56.9307 17.0498 75.915 51.1484c19.0166 34.0908 28.5127 84.1191 28.5127 150.068c0 24.0146 -1.75488 46.9795 -5.26465 68.9102
c-3.51758 21.9307 -9.73926 41.542 -18.6797 58.8262c-8.62695 17.292 -20.0508 31.0586 -34.2559 41.2988c-14.2129 10.2402 -31.5449 15.3643 -51.9717 15.3643c-18.7266 0 -33.8955 -3.0791 -45.8604 -8.94727l-8.21875 4.3877v31.4512
c14.3857 11.291 29.5703 20.874 45.7812 28.3408c25.7314 11.8467 51.2275 17.7627 76.4961 17.7627c66.1924 0 118.453 -23.4512 156.83 -70.3535z" />
  </g>

</svg>
