<?xml version="1.0" standalone="no"?>
<!DOCTYPE svg PUBLIC "-//W3C//DTD SVG 1.1//EN" "http://www.w3.org/Graphics/SVG/1.1/DTD/svg11.dtd" >
<svg xmlns="http://www.w3.org/2000/svg" xmlns:xlink="http://www.w3.org/1999/xlink" version="1.1" viewBox="-10 0 1116 1000">
  <g transform="matrix(1 0 0 -1 0 800)">
   <path fill="currentColor"
d="M859.716 48.1709c7.04395 -3.52539 18.4941 -6.48828 34.3369 -8.88574c15.8506 -2.40527 27.2979 -3.76074 34.3418 -4.08203v-35.0625h-321.277v35.0625c8 0.634766 16.0859 1.52051 24.25 2.64062s15.1299 2.64062 20.8887 4.56055
c10.248 3.52539 17.292 8.96289 21.1309 16.3281c3.84668 7.35742 5.75879 16.9639 5.75879 28.8105v279.491c0 11.5332 -2.71875 21.8525 -8.16406 30.9805c-5.4375 9.12012 -12.0039 16.4072 -19.6904 21.8447c-5.75879 3.84668 -13.0381 7.04395 -21.8447 9.60645
s-18.4912 4.3252 -29.0527 5.28906v35.0547l229.071 12.4814l7.2002 -7.2002v-381.773c0 -11.2119 1.7627 -20.4893 5.28027 -27.8545c3.52539 -7.37305 9.44141 -13.1318 17.7705 -17.292zM1054.65 468.43c33.8799 -29.7344 37.2559 -81.3447 7.49707 -115.24
c-29.7344 -33.8564 -81.3135 -37.21 -115.193 -7.47559c-0.634766 0.541016 -1.05762 1.21484 -1.67676 1.75586l-0.0625 -0.235352c-22.1895 19.4473 -46.3223 22.9492 -67.3525 20.3086l-11.9248 6.33887l0.235352 50.1846
c66.498 57.1504 117.278 62.7764 117.278 62.7764l-0.078125 -0.266602c24.4541 5.32812 51.0078 -0.360352 71.2773 -18.1465zM523.123 63.5596c14.7227 -11.2275 26.8789 -25.5498 36.4932 -42.999c9.60645 -17.4492 14.4014 -37.5391 14.4014 -60.293
c0 -24.3281 -5.84473 -47.1992 -17.5273 -68.6523c-11.6904 -21.4453 -29.5312 -40.0146 -53.5459 -55.7246c-25.292 -16.3047 -55.6299 -28.9512 -91.0059 -37.915s-79.1592 -13.4453 -131.342 -13.4453c-84.1973 0 -148.234 10.248 -192.088 30.7373
c-43.8613 20.4893 -65.792 51.2266 -65.792 92.2051c0 25.292 11.8232 46.1025 35.4932 62.4238c12.7715 8.80664 29.4766 15.3887 49.8643 19.9092l81.4785 -22.8242l1.30078 -6.4248c-1.41797 -1.98242 -2.92188 -3.87891 -4.16016 -6.02539
c-7.52148 -13.124 -11.2666 -28.9902 -11.2666 -47.5361c0 -8 2.24121 -16.8066 6.69922 -26.4131c4.48926 -9.60645 11.5098 -18.5703 21.0928 -26.8994c11.1885 -9.28516 23.6543 -16.5879 37.3818 -21.8457c13.7432 -5.28125 34.5146 -7.92969 62.3223 -7.92969
c41.2217 0 72.6963 8.00781 94.4316 24.0156c21.7197 16.0078 32.5869 41.7627 32.5869 77.3193c0 10.8828 -3.04004 21.6875 -9.09668 32.3984c-6.08789 10.7266 -19.251 20.9746 -40.7432 26.1934c-11.3613 2.73438 -30.4561 3.17285 -56.8057 3.81543
c-25.6289 0.650391 -61.123 -5.16309 -104.891 0.963867c-13.5625 1.9043 -52.6602 15.0283 -52.6602 15.0283c-28.0029 9.8252 -50.0908 22.6514 -65.9961 38.6035c-16.4697 16.5479 -24.6885 35.752 -24.6885 57.5498c0 13.4844 3.27539 24.9082 9.8418 34.1699
c6.55859 9.34766 14.9658 17.4883 25.2139 24.5713c8.96387 6.10352 19.8467 11.29 32.6494 15.6699c12.8105 4.30176 23.5371 7.76465 32.1797 10.3271v5.32031c-43.2197 16.0078 -74.9922 35.5176 -95.3242 58.5693s-30.4941 51.2275 -30.4941 84.5195
c0 47.0898 21.6885 84.707 65.0723 112.883c43.376 28.168 98.3643 42.2559 164.956 42.2559c3.66699 0 7.24805 -0.282227 10.8291 -0.478516l1.30078 -4.7793c-32.0537 -20.2148 -55.7471 -47.2695 -59.7119 -51.9707
c-0.399414 -0.438477 -0.876953 -1.01855 -0.876953 -1.01855l0.164062 -0.0234375c-3.44727 -4.05859 -6.60449 -8.5791 -9.28418 -13.7812c-5.46094 -10.8906 -9.14355 -23.5918 -11.0869 -38.165c-1.91992 -14.5811 -2.88379 -29.5469 -2.88379 -44.9199
c0 -34.875 6.10352 -63.5439 18.3105 -85.9531c9.50391 -17.4492 17.1436 -25.5508 32.9551 -29.3193l1.72363 -4.93652c-22.3301 -17.332 -50.584 -34.8984 -50.584 -34.8984c-3.83887 -2.90723 -8.07812 -7.49121 -12.7246 -13.791
c-4.63867 -6.28418 -6.96582 -12.3486 -6.96582 -18.1465c0 -14.166 5.60254 -23.9912 16.8066 -29.4756s31.5361 -8.52441 60.9893 -9.16699c29.1318 -0.634766 58.5928 -1.8418 88.3672 -3.62012c29.7744 -1.73926 51.0547 -2.78125 63.8652 -3.10254
c18.5693 -0.963867 36.9746 -4.74023 55.2305 -11.3066c18.248 -6.54199 34.0908 -15.1221 47.5439 -25.668zM331.915 417.949c-9.28516 17.0264 -15.7822 24.21 -32.9805 27.8535l-1.15918 5.32812c14.7461 12.623 28.1133 25.9902 36.5596 31.9531
c3.99609 -0.580078 8.10156 -0.901367 12.0586 -1.59863c20.332 -3.68262 31.7168 -5.72754 42.2471 -8.76758c23.0908 -6.74609 48.9395 -15.1064 80.6719 -52.3477c12.168 -14.3076 21.8525 -28.8574 28.0977 -44.4648c6.24512 -15.623 9.36328 -31.834 9.36328 -48.7031
c0 -22.0879 -5.92383 -42.8203 -17.7705 -62.2129c-11.8389 -19.3691 -27.3682 -35.1104 -46.5801 -47.3018c-19.5254 -12.4658 -42.4199 -22.252 -68.668 -29.2725c-26.2559 -7.06738 -54.7451 -10.585 -85.4824 -10.585h-19.3691l-2.31934 7.6084
c40.8926 24.1719 61.9463 54.2275 61.9463 54.2275c12.9277 18.8047 21.21 52.6455 21.21 89.4395c0 37.4756 -5.93945 67.0928 -17.8252 88.8438z" />
  </g>

</svg>
