<?xml version="1.0" standalone="no"?>
<!DOCTYPE svg PUBLIC "-//W3C//DTD SVG 1.1//EN" "http://www.w3.org/Graphics/SVG/1.1/DTD/svg11.dtd" >
<svg xmlns="http://www.w3.org/2000/svg" xmlns:xlink="http://www.w3.org/1999/xlink" version="1.1" viewBox="-10 0 1275 1000">
  <g transform="matrix(1 0 0 -1 0 800)">
   <path fill="currentColor"
d="M652.372 292.96c15.0283 -33.5586 30.8936 -68.8984 47.207 -105.051l55.6299 -121.979l-38.4629 -67.3984h-100.37c-36.3789 85.4824 -67.4688 156.399 -93.2705 212.743c-25.7939 56.3438 -53.0605 113.549 -81.8711 178.221
c-6.64453 15.0518 -17.0107 26.8984 -31.083 35.541c-14.0801 8.64258 -28.4111 13.9316 -42.9609 15.8516v35.0547h292.381v-35.0547c-10.7578 -0.321289 -23.3809 -2.71875 -37.9541 -7.20801c-14.542 -4.48145 -21.8057 -10.2402 -21.8057 -17.2842
c0 -1.91992 0.642578 -4.80371 1.89648 -8.64258c1.24609 -3.83887 2.84473 -8.16406 4.74902 -12.9668c10.1387 -24.3359 25.4492 -56.0684 45.915 -101.826zM1215.56 463.641c28.8496 -27.1572 33.5264 -70.3066 13.2881 -102.666l0.03125 -0.03125l-144.804 -254.341
l-7.6084 1.36328l-7.56055 19.4316s89.9492 171.6 34.7812 217.342c-32.8379 30.8789 -34.4209 82.5605 -3.52637 115.398s82.584 34.3975 115.398 3.50293zM818.431 475.941l89.3223 0.000976562l153.336 -408.993l-38.3223 -68.4102h-93.8896l-81.8633 221.283
l-66.8037 -117.278l-7.52148 1.33984l-7.6084 19.5332s66.333 151.244 38.2832 214.396l0.0078125 0.0078125l-20.1602 54.4785l27.251 77.5381zM488.95 639.3c0 -45.0996 -36.5596 -81.6357 -81.6357 -81.6357c-45.084 0 -81.6436 36.5361 -81.6436 81.6357
c0 45.084 36.5596 81.6436 81.6436 81.6436c45.0762 0 81.6357 -36.5596 81.6357 -81.6436zM283.486 46.0762c7.68652 -2.5625 17.7705 -5.04395 30.2598 -7.44141c12.4893 -2.40527 23.6934 -4.08203 33.6211 -5.0459v-35.0547h-324.639v35.0547
c8.38379 0.642578 16.5322 1.44141 24.4141 2.40527c7.89746 0.956055 14.9023 2.5625 21.0293 4.7959c10.3037 3.84668 17.3242 9.3623 21.0303 16.5703c3.72168 7.16113 5.5625 16.6885 5.5625 28.5273v387.109c0 34.2168 4.95996 67.3604 14.8877 99.4854
c9.91992 32.1006 25.2852 60.793 46.0957 86.0459c20.168 24.9316 46.7451 45.0605 79.7236 60.3867c31.9834 14.8867 69.5303 22.416 112.365 22.8545l-0.282227 -6.78516c-30.291 -14.3467 -51.5635 -31.5918 -61.5693 -41.0801
c-0.712891 -0.595703 -1.40234 -1.36328 -2.09961 -2.02148c-3.1416 -3.06348 -4.89648 -5.0459 -4.89648 -5.0459s-0.125 -0.313477 -0.164062 -0.391602c-5.86035 -7.27148 -11.0791 -16.8936 -15.5059 -29.3984c-8 -22.6914 -12.0039 -71.4346 -12.0039 -146.19
l0.078125 -34.9141h83.9941v-52.3477h-83.877l0.759766 -333.375c0 -12.4893 2.88379 -22.1738 8.65039 -29.0527c5.75879 -6.84766 13.2803 -11.8857 22.5654 -15.0908z" />
  </g>

</svg>
