<?xml version="1.0" standalone="no"?>
<!DOCTYPE svg PUBLIC "-//W3C//DTD SVG 1.1//EN" "http://www.w3.org/Graphics/SVG/1.1/DTD/svg11.dtd" >
<svg xmlns="http://www.w3.org/2000/svg" xmlns:xlink="http://www.w3.org/1999/xlink" version="1.1" viewBox="-10 0 967 1000">
  <g transform="matrix(1 0 0 -1 0 800)">
   <path fill="currentColor"
d="M908.702 463.581c28.9824 -27 33.8643 -70.1328 13.79 -102.595l0.0234375 -0.0234375l-145.352 -261.979l-8.125 0.360352l-8.31348 18.1074s92.0645 181.222 36.6689 226.674c-32.9863 30.7295 -34.8193 82.3877 -4.08203 115.374
c30.7529 33.002 82.4111 34.8193 115.39 4.08203zM623.891 -111.989l9.72168 -1.22852l10.0996 -22.7461c-35.7754 -57.7383 -71.0498 -74.1768 -90.0342 -79.5752c-38.9414 -11.0557 -80.4287 5.79004 -101.169 21.2178c-33.5586 24.9473 -42.209 71.4336 -18.0215 105.564
c24.1797 34.1309 71.4502 42.2012 105.581 18.0371c20.7012 -14.6602 31.6631 -37.8682 31.7959 -61.4365c-0.837891 -49.9658 37.4297 -0.494141 52.0264 20.167zM651.665 286.905c15.1689 -33.4805 31.207 -68.7441 47.6846 -104.817l56.2412 -121.705l-38.126 -67.5791
l-50.6631 -89.792l-10.3896 0.814453c-38.1738 88.1152 -108.605 246.811 -133.639 300.772c-26.0684 56.2256 -53.6172 116.597 -82.7646 181.128c-0.0625 0.148438 -0.132812 0.296875 -0.203125 0.453125c-9.77832 21.5938 -31.8818 34.9531 -55.5996 35
c-13.1709 0.015625 -26.7412 0.046875 -26.7803 0.0703125h-88.9141v-267.613c0 -37.3975 5.21875 -63.9277 15.6709 -79.5908c10.4209 -15.6709 29.1475 -23.5137 56.1396 -23.5137c8.66602 0 20.7168 0.634766 36.1367 1.91992
c8.72852 0.720703 15.8115 1.51953 21.5547 2.3418l10.7188 -9.74707v-28.6143c-20.4893 -8.96387 -42.4199 -17.0498 -65.7842 -24.25c-23.373 -7.20801 -51.8701 -10.8047 -85.4834 -10.8047c-49.9502 0 -87.0029 12.1602 -111.175 36.457
c-24.1719 24.3047 -36.2539 58.999 -36.2539 104.083v294.543l1.91992 52.3477l-0.117188 128.64c0 12.1602 -2.4209 23.4512 -7.30273 33.8564s-11.4004 18.3271 -19.5645 23.7725c-6.28418 4.16016 -15.8115 8.16406 -28.5361 12.0029
c-12.7246 3.84668 -23.9521 6.08789 -33.7148 6.72266v35.0625l237.651 12.4814l7.10645 -7.68652v-6.40137l0.0859375 -0.0390625v-233.632h313.747v-0.736328l76.6523 0.375977l0.164062 -35.0625c-10.7578 -0.368164 -23.373 -2.8125 -37.9229 -7.38867
c-14.5186 -4.55273 -21.7588 -10.3506 -21.7197 -17.3945c0 -1.91992 0.642578 -4.80371 1.93555 -8.63477c1.26172 -3.83105 2.88379 -8.14062 4.80371 -12.9434c10.249 -24.2734 25.7471 -59.2422 46.4404 -104.898z" />
  </g>

</svg>
