<?xml version="1.0" standalone="no"?>
<!DOCTYPE svg PUBLIC "-//W3C//DTD SVG 1.1//EN" "http://www.w3.org/Graphics/SVG/1.1/DTD/svg11.dtd" >
<svg xmlns="http://www.w3.org/2000/svg" xmlns:xlink="http://www.w3.org/1999/xlink" version="1.1" viewBox="-10 0 1206 1000">
  <g transform="matrix(1 0 0 -1 0 800)">
   <path fill="currentColor"
d="M835.882 -162.652c8.65039 -3.52539 20.8896 -6.71875 36.7402 -9.59473c15.8506 -2.88379 29.0527 -4.64648 39.6221 -5.28906v-35.5332h-347.204v35.5332c8 0.642578 18.084 1.84961 30.252 3.60449c12.168 1.7627 21.2881 3.60352 27.376 5.52344
c10.2402 3.51758 17.2061 9.52734 20.8887 18.0049c3.68262 8.48535 5.51562 18.1699 5.51562 29.0527v491.278c-0.956055 10.5615 -3.43945 19.8467 -7.44336 27.8545c-4.00391 8 -10.3271 15.0439 -18.9697 21.1318c-6.40137 4.15234 -14.8867 7.59961 -25.4482 10.3184
c-10.5693 2.72656 -20.9668 4.55957 -31.2148 5.52344v35.0547l234.337 12.4893l7.22363 -6.24512v-53.3037l0.117188 -0.0390625v-44.9902l-0.117188 -0.117188v-492.713c0 -11.2119 2.47559 -20.9746 7.43555 -29.2959s11.9258 -14.4092 20.8896 -18.248zM1114.98 419.151
c38.3535 -46.9023 57.543 -108.609 57.543 -185.113c0 -67.5557 -22.5498 -125.497 -67.6338 -173.849c-45.0762 -48.3438 -102.141 -72.5156 -171.2 -72.5156c-30.7139 0 -55.6455 3.11816 -74.834 9.36328c-8.30566 2.70312 -15.8662 5.72754 -22.9336 8.94824v38.3613
l7.76465 4.33301c5.71973 -4.70117 11.7451 -8.82227 18.4678 -11.541c10.2246 -4.16016 21.3896 -6.24414 33.5342 -6.24414c31.6152 0 56.9307 17.0498 75.915 51.1484c19.0166 34.0908 28.5205 84.1191 28.5205 150.068c0 24.0068 -1.7627 46.9795 -5.26465 68.9102
c-3.51758 21.9307 -9.74707 41.542 -18.6875 58.8262c-8.62695 17.2842 -20.0508 31.0508 -34.2559 41.2988c-14.2129 10.2402 -31.5371 15.3643 -51.9639 15.3643c-18.7344 0 -33.8955 -3.0791 -45.8682 -8.94727l-8.22656 4.3877v31.4512
c14.3936 11.291 29.5781 20.873 45.7891 28.332c25.7314 11.8467 51.2197 17.7705 76.4961 17.7705c66.1924 0 118.453 -23.4512 156.838 -70.3535zM559.628 20.583c9.60645 -17.4492 14.3965 -37.5381 14.3965 -60.3076c0 -24.3281 -5.84473 -47.1992 -17.5273 -68.6523
c-11.6826 -21.4453 -29.5312 -40.0146 -53.5459 -55.7246c-25.292 -16.3047 -55.6299 -28.9512 -91.0059 -37.915s-79.1592 -13.4453 -131.342 -13.4453c-84.1973 0 -148.234 10.248 -192.088 30.7373c-43.8613 20.4893 -65.792 51.2266 -65.792 92.2051
c0 25.292 11.8232 46.1025 35.4932 62.4238c12.7715 8.80664 29.4766 15.3887 49.8721 19.9092l81.4785 -22.8242l1.29297 -6.4248c-1.41797 -1.98242 -2.91406 -3.87891 -4.16016 -6.02539c-7.52148 -13.124 -11.2666 -28.9902 -11.2666 -47.5361
c0 -8 2.24121 -16.8066 6.70703 -26.4131c4.48145 -9.60645 11.502 -18.5703 21.0928 -26.8994c11.1807 -9.28516 23.6465 -16.5879 37.374 -21.8457c13.7432 -5.28125 34.5068 -7.92969 62.3223 -7.92969c41.2217 0 72.6963 8.00781 94.4316 24.0156
c21.7275 16.0078 32.5947 41.7627 32.5947 77.3193c0 10.8828 -3.04004 21.6875 -9.10449 32.3984c-6.08008 10.7266 -19.2432 20.9746 -40.7354 26.1934c-11.3691 2.73438 -30.4561 3.17285 -56.8057 3.81543c-25.6289 0.642578 -61.1309 -5.16309 -104.891 0.963867
c-13.5625 1.9043 -52.668 15.0283 -52.668 15.0283c-27.9951 9.8252 -50.083 22.6514 -65.9883 38.6035c-16.4697 16.5479 -24.6885 35.752 -24.6885 57.5498c0 13.4844 3.27539 24.9082 9.8418 34.1699c6.55859 9.34766 14.958 17.4883 25.2061 24.5713
c8.97168 6.10352 19.8545 11.29 32.6572 15.6699c12.8105 4.30176 23.5371 7.76465 32.1797 10.3271v5.32031c-43.2275 16.0078 -74.999 35.5176 -95.3232 58.5693c-20.332 23.0518 -30.4941 51.2275 -30.4941 84.5195c0 47.0898 21.6885 84.707 65.0723 112.883
c43.376 28.168 98.3643 42.2559 164.956 42.2559c3.66699 0 7.24805 -0.282227 10.8291 -0.478516l1.29297 -4.7793c-32.0537 -20.2148 -55.7393 -47.2695 -59.7041 -51.9707c-0.399414 -0.438477 -0.884766 -1.01855 -0.884766 -1.01855l0.164062 -0.0234375
c-3.44727 -4.05859 -6.60449 -8.5791 -9.28418 -13.7812c-5.46094 -10.8906 -9.14355 -23.5918 -11.0869 -38.165c-1.91992 -14.5811 -2.88379 -29.5469 -2.88379 -44.9199c0 -34.875 6.10352 -63.5439 18.3105 -85.9531
c9.50391 -17.4492 17.1514 -25.5508 32.9551 -29.3193l1.72363 -4.93652c-22.3301 -17.332 -50.584 -34.8984 -50.584 -34.8984c-3.83887 -2.90723 -8.08594 -7.49121 -12.7246 -13.791c-4.63867 -6.28418 -6.96582 -12.3486 -6.96582 -18.1465
c0 -14.166 5.60254 -23.9912 16.8066 -29.4756s31.5361 -8.52441 60.9893 -9.16699c29.1318 -0.634766 58.5928 -1.8418 88.3672 -3.62012c29.7744 -1.73926 51.0625 -2.78125 63.8652 -3.10254c18.5693 -0.963867 36.9824 -4.74023 55.2305 -11.3066
c18.248 -6.54199 34.0986 -15.1221 47.5439 -25.668c14.7227 -11.2275 26.8906 -25.5586 36.4971 -42.9844zM331.931 417.957c-9.29297 17.0264 -15.79 24.21 -32.9805 27.8535l-1.16699 5.32812c14.7461 12.623 28.1133 25.9902 36.5596 31.9531
c4.00391 -0.580078 8.10156 -0.901367 12.0664 -1.59863c20.3242 -3.68262 31.709 -5.72754 42.2393 -8.76758c23.0908 -6.74609 48.9473 -15.1064 80.6797 -52.3477c12.168 -14.3076 21.8525 -28.8574 28.0977 -44.4648c6.24512 -15.623 9.36328 -31.834 9.36328 -48.7031
c0 -22.0879 -5.92383 -42.8203 -17.7705 -62.2129c-11.8389 -19.3691 -27.3682 -35.1104 -46.5801 -47.3018c-19.5332 -12.4658 -42.4199 -22.252 -68.6758 -29.2725c-26.248 -7.06738 -54.7451 -10.585 -85.4746 -10.585h-19.3691l-2.32715 7.6084
c40.9004 24.1719 61.9541 54.2275 61.9541 54.2275c12.9277 18.8047 21.21 52.6455 21.21 89.4395c0 37.4756 -5.93945 67.0928 -17.8252 88.8438z" />
  </g>

</svg>
