<?xml version="1.0" standalone="no"?>
<!DOCTYPE svg PUBLIC "-//W3C//DTD SVG 1.1//EN" "http://www.w3.org/Graphics/SVG/1.1/DTD/svg11.dtd" >
<svg xmlns="http://www.w3.org/2000/svg" xmlns:xlink="http://www.w3.org/1999/xlink" version="1.1" viewBox="-10 0 1607 1000">
  <g transform="matrix(1 0 0 -1 0 800)">
   <path fill="currentColor"
d="M985.167 293.736c15.0283 -33.5586 30.8936 -68.8916 47.1826 -105.036l55.6221 -121.979l-38.4551 -67.3906h-100.37c-36.3711 85.4824 -67.4688 156.392 -93.2627 212.743c-25.7939 56.3438 -53.0684 113.557 -81.8789 178.221l-0.1875 0.421875
c-9.32422 20.8262 -30.6514 33.668 -53.46 33.668h-111.637v-267.605c0 -37.3975 5.22656 -63.9277 15.6709 -79.5986c10.4209 -15.6631 29.1553 -23.5059 56.1396 -23.5059c8.66602 0 20.7168 0.634766 36.1445 1.91211c8.7207 0.720703 15.8115 1.52734 21.5547 2.3418
l10.7188 -9.74707v-28.6143c-20.4893 -8.96387 -42.4199 -17.0498 -65.793 -24.25c-23.3652 -7.20801 -51.8623 -10.8047 -85.4756 -10.8047c-49.9502 0 -87.0029 12.168 -111.175 36.457c-24.1719 24.3125 -36.2617 59.0068 -36.2617 104.091v294.535l0.180664 4.78711
h-181.903v-267.613c0 -37.3975 5.21875 -63.9277 15.6631 -79.5908c10.4287 -15.6709 29.1553 -23.5137 56.1475 -23.5137c8.66602 0 20.709 0.634766 36.1367 1.91992c8.7207 0.720703 15.8115 1.51953 21.5547 2.3418l10.7188 -9.74707v-28.6143
c-20.4893 -8.96387 -42.4199 -17.0498 -65.7852 -24.25c-23.373 -7.20801 -51.8701 -10.8047 -85.4834 -10.8047c-49.9424 0 -87.0029 12.1602 -111.175 36.457c-24.1719 24.3047 -36.2539 58.999 -36.2539 104.083v294.543l1.91211 52.3477l-0.117188 128.64
c0 12.1602 -2.4209 23.4512 -7.30273 33.8564s-11.4004 18.3271 -19.5645 23.7725c-6.28418 4.16016 -15.8115 8.16406 -28.5361 12.0029c-12.7246 3.84668 -23.9521 6.08789 -33.7148 6.72266v35.0625l237.651 12.4814l7.10645 -7.68652v-6.40137l0.078125 -0.0390625
v-233.632h184.606l-0.117188 123.859c0 12.1602 -2.4209 23.4512 -7.30273 33.8564s-11.4004 18.3271 -19.5645 23.7725c-6.28418 4.16016 -15.8115 8.16406 -28.5361 12.0029c-12.7246 3.84668 -23.9521 6.08789 -33.7148 6.72266v35.0625l237.659 12.4814
l7.09863 -7.68652v-6.40137l0.0859375 -0.0390625v-233.624h384.594v-35.0625c-10.7656 -0.321289 -23.3887 -2.71875 -37.9541 -7.2002c-14.542 -4.48145 -21.8135 -10.248 -21.8135 -17.292c0 -1.91992 0.642578 -4.7959 1.9043 -8.64258
c1.24609 -3.83887 2.84473 -8.16406 4.74121 -12.9668c10.1465 -24.3281 25.4492 -56.0684 45.9229 -101.826zM1548.36 464.424c28.8496 -27.1494 33.5273 -70.3066 13.2969 -102.666l0.03125 -0.03125l-144.812 -254.341l-7.60059 1.36328l-7.56934 19.4316
s89.9414 171.6 34.7812 217.342c-32.8379 30.8789 -34.4209 82.5605 -3.51855 115.398c30.8945 32.8379 82.5762 34.3975 115.391 3.50293zM1151.23 476.725l89.3223 0.00878906l153.336 -408.993l-38.3145 -68.4102h-93.8896l-81.8633 221.283l-66.8115 -117.278
l-7.52148 1.33984l-7.6084 19.5254s66.333 151.252 38.2832 214.404v0l-20.1523 54.4785l27.2588 77.5459z" />
  </g>

</svg>
