<?xml version="1.0" standalone="no"?>
<!DOCTYPE svg PUBLIC "-//W3C//DTD SVG 1.1//EN" "http://www.w3.org/Graphics/SVG/1.1/DTD/svg11.dtd" >
<svg xmlns="http://www.w3.org/2000/svg" xmlns:xlink="http://www.w3.org/1999/xlink" version="1.1" viewBox="-10 0 1297 1000">
  <g transform="matrix(1 0 0 -1 0 800)">
   <path fill="currentColor"
d="M1040.84 47.333c7.04395 -3.51758 18.4863 -6.47559 34.3213 -8.87305c15.8506 -2.39746 27.2979 -3.76074 34.334 -4.08203v-35.0547h-321.27v35.0547c8 0.642578 16.0859 1.52051 24.25 2.64062c8.16406 1.12793 15.1299 2.64844 20.8887 4.56055
c10.248 3.52539 17.292 8.9707 21.1309 16.3359c3.83887 7.35742 5.75879 16.9639 5.75879 28.8105v279.491c0 11.5332 -2.71875 21.8525 -8.16406 30.9805c-5.4375 9.12012 -12.0039 16.4072 -19.6904 21.8447c-0.03125 0.0234375 -0.0546875 0.046875 -0.0859375 0.0625
c-5.46875 3.62793 -12.0029 5.28125 -18.5693 5.28125h-205.041v-267.605c0 -37.3975 5.22656 -63.9277 15.6709 -79.5986c10.4209 -15.6631 29.1553 -23.5059 56.1475 -23.5059c8.66602 0 20.709 0.634766 36.1367 1.91211
c8.72852 0.720703 15.8115 1.52734 21.5547 2.3418l10.7266 -9.74707v-28.6143c-20.4893 -8.96387 -42.4199 -17.0498 -65.793 -24.25c-23.3652 -7.20801 -51.8623 -10.8047 -85.4834 -10.8047c-49.9424 0 -86.9951 12.168 -111.167 36.457
c-24.1719 24.3125 -36.2617 59.0068 -36.2617 104.091v294.535l0.180664 4.78711h-181.911v-267.613c0 -37.3975 5.22656 -63.9277 15.6709 -79.5908c10.4209 -15.6709 29.1553 -23.5137 56.1475 -23.5137c8.66602 0 20.709 0.634766 36.1367 1.91992
c8.72852 0.720703 15.8115 1.51953 21.5547 2.3418l10.7266 -9.74707v-28.6143c-20.4893 -8.96387 -42.4199 -17.0498 -65.793 -24.25c-23.373 -7.20801 -51.8623 -10.8047 -85.4834 -10.8047c-49.9424 0 -86.9951 12.1602 -111.167 36.457
c-24.1719 24.3047 -36.2539 58.999 -36.2539 104.083v294.543l1.91211 52.3477l-0.117188 128.64c0 12.1602 -2.4209 23.4512 -7.30273 33.8564s-11.4004 18.3271 -19.5645 23.7725c-6.28418 4.16016 -15.8115 8.16406 -28.5361 12.0029
c-12.7246 3.84668 -23.9521 6.08789 -33.7148 6.72266v35.0625l237.651 12.4814l7.10645 -7.68652v-6.40137l0.078125 -0.0390625v-233.632h184.614l-0.117188 123.859c0 12.1602 -2.4209 23.4512 -7.30273 33.8564s-11.4082 18.3271 -19.5723 23.7725
c-6.28418 4.16016 -15.8037 8.16406 -28.5283 12.0029c-12.7246 3.84668 -23.9521 6.08789 -33.7148 6.72266v35.0625l237.651 12.4814l7.09863 -7.68652v-6.40137l0.0859375 -0.0390625v-233.632h313.747v-0.109375l89.0713 4.84961l7.2002 -7.2002v-381.789
c0 -11.2041 1.7627 -20.4893 5.28027 -27.8545c3.51758 -7.35742 9.44922 -13.124 17.7705 -17.2842zM1235.77 467.597c33.8799 -29.7344 37.2549 -81.3369 7.50488 -115.232c-29.7344 -33.8564 -81.3213 -37.2178 -115.193 -7.4834
c-0.642578 0.541016 -1.06543 1.21484 -1.68457 1.75586l-0.0546875 -0.235352c-22.1895 19.4473 -46.3223 22.9492 -67.3525 20.3086l-11.9326 6.34668l0.243164 50.1846c66.498 57.1426 117.278 62.7686 117.278 62.7686l-0.078125 -0.258789
c24.4463 5.32031 51 -0.360352 71.2695 -18.1543z" />
  </g>

</svg>
