<?xml version="1.0" standalone="no"?>
<!DOCTYPE svg PUBLIC "-//W3C//DTD SVG 1.1//EN" "http://www.w3.org/Graphics/SVG/1.1/DTD/svg11.dtd" >
<svg xmlns="http://www.w3.org/2000/svg" xmlns:xlink="http://www.w3.org/1999/xlink" version="1.1" viewBox="-10 0 1029 1000">
  <g transform="matrix(1 0 0 -1 0 800)">
   <path fill="currentColor"
d="M658.491 -163.482c8.65039 -3.52539 20.8896 -6.71875 36.7402 -9.59473c15.8428 -2.88379 29.0449 -4.64648 39.6143 -5.28906v-35.5332h-347.204v35.5332c8 0.642578 18.084 1.84961 30.252 3.60449c12.168 1.7627 21.2881 3.60352 27.376 5.52344
c10.2402 3.51758 17.2061 9.51953 20.8887 18.0049c3.68262 8.47754 5.52344 18.1699 5.52344 29.0527v491.278c-0.963867 10.5615 -3.44727 19.8467 -7.45117 27.8545c-3.99609 8 -10.3271 15.0439 -18.9697 21.124
c-0.03125 0.03125 -0.0703125 0.046875 -0.101562 0.0703125c-6.64453 4.28613 -14.5264 6.2373 -22.4238 6.2373h-154.222v-267.613c0 -37.3975 5.21875 -63.9277 15.6709 -79.5908c10.4209 -15.6709 29.1475 -23.5137 56.1396 -23.5137
c8.66602 0 20.7168 0.634766 36.1445 1.91992c8.7207 0.720703 15.8037 1.51953 21.5469 2.3418l10.7266 -9.74707v-28.6143c-20.4893 -8.96387 -42.4199 -17.0498 -65.7842 -24.25c-23.373 -7.20801 -51.8701 -10.8047 -85.4834 -10.8047
c-49.9424 0 -87.0029 12.1602 -111.175 36.457c-24.1719 24.3047 -36.2539 58.999 -36.2539 104.083v294.543l1.91211 52.3477l-0.117188 128.64c0 12.1602 -2.4209 23.4512 -7.30273 33.8564s-11.4004 18.3271 -19.5645 23.7725
c-6.28418 4.16016 -15.8115 8.16406 -28.5361 12.0029c-12.7246 3.84668 -23.9521 6.08789 -33.7148 6.72266v35.0625l237.651 12.4814l7.10645 -7.68652v-6.40137l0.078125 -0.0390625v-233.632h266.359l89.0166 4.74023l7.22363 -6.24512v-53.3037l0.125 -0.0390625
v-44.9824c-0.046875 -0.0390625 -0.0859375 -0.078125 -0.125 -0.117188v-492.721c0 -11.2041 2.4834 -20.9668 7.45117 -29.2881c4.95996 -8.3291 11.918 -14.4092 20.8818 -18.248zM937.584 418.321c38.3613 -46.9102 57.5508 -108.61 57.5508 -185.122
c0 -67.5557 -22.5498 -125.497 -67.6338 -173.841c-45.0762 -48.3438 -102.148 -72.5156 -171.2 -72.5156c-30.7139 0 -55.6455 3.11816 -74.834 9.36328c-8.30566 2.70312 -15.8662 5.72754 -22.9336 8.94824v38.3613l7.76465 4.33301
c5.72754 -4.70117 11.7451 -8.82227 18.4678 -11.541c10.2324 -4.16016 21.3975 -6.24414 33.5342 -6.24414c31.6152 0 56.9307 17.0498 75.915 51.1406c19.0166 34.0986 28.5205 84.127 28.5205 150.068c0 24.0146 -1.7627 46.9873 -5.26465 68.918
c-3.51758 21.9307 -9.73926 41.542 -18.6875 58.8262c-8.62695 17.2842 -20.043 31.0508 -34.2559 41.291c-14.2051 10.248 -31.5371 15.3721 -51.9639 15.3721c-18.7344 0 -33.8955 -3.08691 -45.8604 -8.94727l-8.22656 4.3877v31.4512
c14.3857 11.2832 29.5703 20.874 45.7812 28.333c25.7314 11.8467 51.2275 17.7705 76.4961 17.7705c66.1924 0 118.453 -23.4512 156.83 -70.3535z" />
  </g>

</svg>
