<?xml version="1.0" standalone="no"?>
<!DOCTYPE svg PUBLIC "-//W3C//DTD SVG 1.1//EN" "http://www.w3.org/Graphics/SVG/1.1/DTD/svg11.dtd" >
<svg xmlns="http://www.w3.org/2000/svg" xmlns:xlink="http://www.w3.org/1999/xlink" version="1.1" viewBox="-10 0 749 1000">
  <g transform="matrix(1 0 0 -1 0 800)">
   <path fill="currentColor"
d="M705.4 57.1504l10.7344 -9.75195v-28.6143c-20.4893 -8.96387 -42.4199 -17.0498 -65.793 -24.25c-23.3643 -7.20801 -51.8691 -10.8047 -85.4824 -10.8047c-49.9424 0 -86.9951 12.168 -111.167 36.457c-24.1719 24.3125 -36.2617 59.0068 -36.2617 104.083v294.543
l0.180664 4.78711h-166.1l0.759766 -333.383c0 -12.4893 2.88379 -22.1738 8.65039 -29.0527c5.75879 -6.83984 13.2803 -11.8857 22.5654 -15.083c7.68652 -2.5625 17.7705 -5.0459 30.2598 -7.44336c12.4814 -2.40527 23.6855 -4.08203 33.6133 -5.0459v-35.0547h-324.639
v35.0547c8.38379 0.642578 16.5244 1.44141 24.4141 2.40527c7.90625 0.956055 14.9033 2.5625 21.0303 4.7959c10.3037 3.84668 17.3242 9.3623 21.0303 16.5703c3.71387 7.16113 5.5625 16.6885 5.5625 28.5273v387.109c0 34.2168 4.95996 67.3525 14.8877 99.4854
c9.91895 32.1006 25.292 60.793 46.1025 86.0459c20.168 24.9316 46.7373 45.0605 79.7158 60.3867c29.8213 13.876 64.5156 21.2725 103.763 22.5811l0.219727 0.274414h228.312l7.10645 -7.68652v-6.39355l0.078125 -0.046875v-251.7h134.938v-52.3477h-133.976v-267.605
c0 -37.3975 5.21875 -63.9277 15.6631 -79.5986c10.4287 -15.6631 29.1553 -23.5137 56.1475 -23.5137c8.66602 0 20.709 0.642578 36.1367 1.91992c8.7207 0.720703 15.8037 1.51953 21.5469 2.34961zM251.387 475.948h167.954l-0.117188 173.073
c0 12.168 -2.4209 23.4512 -7.30273 33.8564s-11.4082 18.3271 -19.5645 23.7725c-6.28418 4.16016 -15.8115 8.16406 -28.5361 12.0029c-0.117188 0.03125 -0.234375 0.0703125 -0.34375 0.101562c-21.3271 6.37793 -44.457 1.65332 -62.1338 -11.8779
c-6.5498 -5.01465 -11.7051 -9.50391 -15.3564 -12.9668c-0.720703 -0.595703 -1.40234 -1.36328 -2.09961 -2.02148c-3.1416 -3.06348 -4.9043 -5.0459 -4.9043 -5.0459s-0.117188 -0.313477 -0.15625 -0.391602c-5.86816 -7.27148 -11.0869 -16.8936 -15.5059 -29.3984
c-8.00781 -22.6914 -12.0117 -71.4346 -12.0117 -146.19z" />
  </g>

</svg>
