<?xml version="1.0" standalone="no"?>
<!DOCTYPE svg PUBLIC "-//W3C//DTD SVG 1.1//EN" "http://www.w3.org/Graphics/SVG/1.1/DTD/svg11.dtd" >
<svg xmlns="http://www.w3.org/2000/svg" xmlns:xlink="http://www.w3.org/1999/xlink" version="1.1" viewBox="-10 0 781 1000">
  <g transform="matrix(1 0 0 -1 0 800)">
   <path fill="currentColor"
d="M737.228 61.0605l10.7188 -9.74219v-28.6143c-20.4971 -8.96387 -42.4199 -17.0498 -65.793 -24.25c-23.373 -7.20801 -51.8623 -10.8047 -85.4834 -10.8047c-49.9424 0 -87.0029 12.168 -111.175 36.457c-24.1719 24.3125 -36.2539 59.0068 -36.2539 104.091v294.535
l0.172852 4.78711h-180.9v-267.613c0 -37.3975 5.21875 -63.9277 15.6709 -79.5908c10.4209 -15.6709 29.1475 -23.5137 56.1396 -23.5137c8.66602 0 20.7168 0.634766 36.1445 1.91992c8.7207 0.720703 15.8037 1.51953 21.5469 2.3418l10.7266 -9.74707v-28.6143
c-20.4893 -8.96387 -42.4199 -17.0498 -65.7842 -24.25c-23.373 -7.20801 -51.8701 -10.8047 -85.4834 -10.8047c-49.9424 0 -87.0029 12.1602 -111.175 36.457c-24.1719 24.3047 -36.2539 58.999 -36.2539 104.083v294.543l1.91211 52.3477l-0.117188 128.64
c0 12.1602 -2.4209 23.4512 -7.30273 33.8564s-11.4004 18.3271 -19.5645 23.7725c-6.28418 4.16016 -15.8115 8.16406 -28.5361 12.0029c-12.7246 3.84668 -23.9521 6.08789 -33.7148 6.72266v35.0625l237.651 12.4814l7.10645 -7.68652v-6.40137l0.078125 -0.0390625
v-233.632h183.604l-0.117188 123.859c0 12.1602 -2.41309 23.4512 -7.30273 33.8564c-4.87402 10.4053 -11.4004 18.3271 -19.5645 23.7725c-6.28418 4.16016 -15.8037 8.16406 -28.5361 12.0029c-12.7246 3.84668 -23.9521 6.08789 -33.7148 6.72266v35.0625
l237.651 12.4814l7.09863 -7.68652v-6.40137l0.0859375 -0.0390625v-233.632h134.938v-52.3398h-133.983v-267.613c0 -37.3975 5.22656 -63.9277 15.6709 -79.5908c10.4209 -15.6709 29.1553 -23.5137 56.1475 -23.5137c8.6582 0 20.709 0.634766 36.1367 1.91992
c8.72852 0.720703 15.8115 1.51953 21.5547 2.3418z" />
  </g>

</svg>
