<?xml version="1.0" standalone="no"?>
<!DOCTYPE svg PUBLIC "-//W3C//DTD SVG 1.1//EN" "http://www.w3.org/Graphics/SVG/1.1/DTD/svg11.dtd" >
<svg xmlns="http://www.w3.org/2000/svg" xmlns:xlink="http://www.w3.org/1999/xlink" version="1.1" viewBox="-10 0 535 1000">
  <g transform="matrix(1 0 0 -1 0 800)">
   <path fill="currentColor"
d="M450.19 147.357c40.0615 -12.3877 62.4854 -54.9111 50.0977 -94.9414c-10.0762 -32.5947 -40.1084 -53.5146 -72.5303 -53.5068h-194.134l-3.90234 7.36523l16.7051 24.2891s91.4688 -2.92285 107.837 63.2305l0.0703125 -0.09375
c0.305664 1.19141 0.541016 2.39062 0.90918 3.57422c12.3877 40.0381 54.8857 62.4707 94.9473 50.083zM83.0918 326.776c-40.0615 12.4111 -62.4854 54.9111 -50.1055 94.9648c10.0762 32.5791 40.1084 53.499 72.5303 53.4834l-0.015625 0.0234375h171.521
l3.82324 -7.49805l-16.5088 -24.1562s-68.9502 2.89941 -85.3184 -63.2461l-0.078125 0.09375c-0.305664 -1.18359 -0.541016 -2.375 -0.90918 -3.55859c-12.3799 -40.0615 -54.8857 -62.4863 -94.9395 -50.1064zM488.066 466.606l0.000976562 -21.123l-276.616 -402.913
l-29.8135 -43.7051h-158.915v33.1357l275.472 398.392l30.793 44.8643h150.413z" />
  </g>

</svg>
