<?xml version="1.0" standalone="no"?>
<!DOCTYPE svg PUBLIC "-//W3C//DTD SVG 1.1//EN" "http://www.w3.org/Graphics/SVG/1.1/DTD/svg11.dtd" >
<svg xmlns="http://www.w3.org/2000/svg" xmlns:xlink="http://www.w3.org/1999/xlink" version="1.1" viewBox="-10 0 537 1000">
  <g transform="matrix(1 0 0 -1 0 800)">
   <path fill="currentColor"
d="M450.402 147.953c40.085 -12.3877 62.5088 -54.9346 50.1367 -94.9883c-10.1074 -32.6182 -40.1475 -53.5459 -72.585 -53.5381h-194.205l-3.92578 7.37305l16.7363 24.2969s91.4922 -2.92285 107.876 63.2617l0.0546875 -0.0703125
c0.305664 1.18359 0.541016 2.375 0.901367 3.55859c12.4111 40.0615 54.9336 62.502 95.0107 50.1064zM83.123 327.474c-40.0771 12.4189 -62.5234 54.9346 -50.1279 95.0195c10.0762 32.6025 40.124 53.5225 72.5615 53.5146l-0.015625 0.015625h171.607l3.83105 -7.50586
l-16.5166 -24.1641s-68.9814 2.89941 -85.3652 -63.2773l-0.078125 0.0859375c-0.305664 -1.18359 -0.541016 -2.375 -0.90918 -3.55859c-12.3877 -40.0771 -54.9102 -62.5176 -94.9873 -50.1299zM488.286 467.382l-0.000976562 -21.1484l-276.757 -403.124
l-29.8057 -43.7207h-159.001v33.1514l275.613 398.604l30.793 44.8809h150.516zM113.156 613.955l0.240234 0.0644531c-13.8291 14.1973 -21.1396 34.3965 -17.6768 55.4424c5.78223 35.1885 38.9727 59.0391 74.1924 53.2725
c35.1963 -5.78223 59.0469 -38.9961 53.2725 -74.1924c-0.117188 -0.666016 -0.383789 -1.22266 -0.477539 -1.86523l0.180664 0.078125c-5.80566 -35.4072 11.5098 -70.7441 32.6338 -70.7441c21.1162 0 38.416 35.3291 32.6104 70.7441l0.204102 -0.078125
c-0.125 0.642578 -0.391602 1.19922 -0.485352 1.86523c-5.75879 35.1963 18.0762 68.4102 53.2725 74.1924c35.1963 5.7666 68.4102 -18.084 74.1689 -53.2725c3.4707 -21.0459 -3.81641 -41.2451 -17.6533 -55.4424l0.219727 -0.0625s-50.3887 -52.3477 -124.565 -59.5957
c-8.8457 -0.862305 -26.7256 -1.12109 -35.5791 -0.000976562c-72.2256 9.16699 -124.558 59.5947 -124.558 59.5947z" />
  </g>

</svg>
