<?xml version="1.0" standalone="no"?>
<!DOCTYPE svg PUBLIC "-//W3C//DTD SVG 1.1//EN" "http://www.w3.org/Graphics/SVG/1.1/DTD/svg11.dtd" >
<svg xmlns="http://www.w3.org/2000/svg" xmlns:xlink="http://www.w3.org/1999/xlink" version="1.1" viewBox="-10 0 703 1000">
  <g transform="matrix(1 0 0 -1 0 800)">
   <path fill="currentColor"
d="M561 0l-59 170h-313l-60 -170h-89l250 700h121l242 -700h-92zM346 618l-134 -381h266zM187 760c0 70 37 104 85 104c77 0 100 -68 152 -68c23 0 39 17 39 54h39c0 -70 -38 -104 -85 -104c-78 0 -100 68 -153 68c-22 0 -38 -17 -38 -54h-39z" />
  </g>

</svg>
