<?xml version="1.0" standalone="no"?>
<!DOCTYPE svg PUBLIC "-//W3C//DTD SVG 1.1//EN" "http://www.w3.org/Graphics/SVG/1.1/DTD/svg11.dtd" >
<svg xmlns="http://www.w3.org/2000/svg" xmlns:xlink="http://www.w3.org/1999/xlink" version="1.1" viewBox="-10 0 899 1000">
  <g transform="matrix(1 0 0 -1 0 800)">
   <path fill="currentColor"
d="M741 240h88c-38 -182 -136 -260 -334 -260c-215 0 -324 86 -347 283h-98v50h94c-1 12 -1 24 -1 37c0 15 0 29 1 43h-94v50h98c25 193 134 277 347 277c211 0 310 -78 334 -260h-88c-20 130 -90 184 -246 184c-152 0 -231 -60 -253 -201h319v-50h-325
c-1 -14 -1 -29 -1 -44c0 -12 0 -24 1 -36h285v-50h-281c21 -145 101 -207 255 -207c148 0 217 53 246 184z" />
  </g>

</svg>
