<?xml version="1.0" standalone="no"?>
<!DOCTYPE svg PUBLIC "-//W3C//DTD SVG 1.1//EN" "http://www.w3.org/Graphics/SVG/1.1/DTD/svg11.dtd" >
<svg xmlns="http://www.w3.org/2000/svg" xmlns:xlink="http://www.w3.org/1999/xlink" version="1.1" viewBox="-10 0 795 1000">
  <g transform="matrix(1 0 0 -1 0 800)">
   <path fill="currentColor"
d="M393 720c232 0 332 -111 332 -370s-100 -370 -332 -370c-234 0 -333 111 -333 370s100 370 333 370zM393 644c-171 0 -241 -86 -241 -294s70 -294 241 -294c170 0 240 86 240 294s-70 294 -240 294zM300 844c39 0 56 -15 56 -51s-17 -52 -56 -52s-57 16 -57 52
s17 51 57 51zM485 844c39 0 57 -15 57 -51s-18 -52 -57 -52s-56 16 -56 52s17 51 56 51z" />
  </g>

</svg>
