<?xml version="1.0" standalone="no"?>
<!DOCTYPE svg PUBLIC "-//W3C//DTD SVG 1.1//EN" "http://www.w3.org/Graphics/SVG/1.1/DTD/svg11.dtd" >
<svg xmlns="http://www.w3.org/2000/svg" xmlns:xlink="http://www.w3.org/1999/xlink" version="1.1" viewBox="-10 0 594 1000">
  <g transform="matrix(1 0 0 -1 0 800)">
   <path fill="currentColor"
d="M106 111c40 0 57 -17 57 -58c0 -40 -18 -57 -57 -57s-56 17 -56 57c0 41 17 58 56 58zM292 111c39 0 56 -17 56 -58c0 -40 -17 -57 -56 -57c-40 0 -57 17 -57 57c0 41 17 58 57 58zM477 111c39 0 57 -17 57 -58c0 -40 -18 -57 -57 -57s-56 17 -56 57c0 41 17 58 56 58z
" />
  </g>

</svg>
