<?xml version="1.0" standalone="no"?>
<!DOCTYPE svg PUBLIC "-//W3C//DTD SVG 1.1//EN" "http://www.w3.org/Graphics/SVG/1.1/DTD/svg11.dtd" >
<svg xmlns="http://www.w3.org/2000/svg" xmlns:xlink="http://www.w3.org/1999/xlink" version="1.1" viewBox="-10 0 1256 1000">
  <g transform="matrix(1 0 0 -1 0 800)">
   <path fill="currentColor"
d="M649 390c113 0 162 -58 162 -194s-49 -195 -162 -195s-161 59 -161 195s48 194 161 194zM649 56c71 0 100 40 100 140c0 99 -29 140 -100 140s-100 -41 -100 -140c0 -100 29 -140 100 -140zM1034 390c113 0 162 -58 162 -194s-49 -195 -162 -195s-161 59 -161 195
s48 194 161 194zM1034 56c71 0 100 40 100 140c0 99 -29 140 -99 140c-72 0 -101 -41 -101 -140c0 -100 29 -140 100 -140zM211 710c113 0 162 -58 162 -194s-49 -195 -162 -195c-112 0 -161 59 -161 195s49 194 161 194zM211 376c72 0 100 40 100 140c0 99 -29 140 -99 140
c-72 0 -100 -41 -100 -140c0 -100 28 -140 99 -140zM247 -30h-74l440 760h74z" />
  </g>

</svg>
