<?xml version="1.0" standalone="no"?>
<!DOCTYPE svg PUBLIC "-//W3C//DTD SVG 1.1//EN" "http://www.w3.org/Graphics/SVG/1.1/DTD/svg11.dtd" >
<svg xmlns="http://www.w3.org/2000/svg" xmlns:xlink="http://www.w3.org/1999/xlink" version="1.1" viewBox="-10 0 599 1000">
  <g transform="matrix(1 0 0 -1 0 800)">
   <path fill="currentColor"
d="M424.57 -1h-4.56934l-11 59c-32 -47 -85 -69 -162 -69c-131 0 -187 72 -187 240v270h80v-270c0 -123 37 -173 126 -173c97 0 139 52 139 173v270h80v-491h-1v-8h-12c-92 -65 -107 -174 -23 -174c33 0 59 18 59 18v-74s-30 -20 -70 -20
c-124.5 0 -131.94 165.67 -13.4307 249z" />
  </g>

</svg>
