<?xml version="1.0" standalone="no"?>
<!DOCTYPE svg PUBLIC "-//W3C//DTD SVG 1.1//EN" "http://www.w3.org/Graphics/SVG/1.1/DTD/svg11.dtd" >
<svg xmlns="http://www.w3.org/2000/svg" xmlns:xlink="http://www.w3.org/1999/xlink" version="1.1" viewBox="-88 0 778 1000">
  <g transform="matrix(1 0 0 -1 0 800)">
   <path fill="currentColor"
d="M470 -105q0 -20 8 -27.5t24 -7.5q19 0 35.5 9t39.5 27l18 -55q-32 -33 -74.5 -53.5t-91.5 -20.5q-46 0 -70.5 22.5t-24.5 61.5q0 12 6.5 29t15.5 31q23 33 48 53.5t55 35.5h-115l2 51l77 14l-20 139h-239l-59 -139l92 -14l-4 -51h-271l4 51l68 14l320 678h167l121 -677
l78 -15l-3 -51h-113q-94 -65 -94 -105zM195 277h198l-39 270l-4 93z" />
  </g>

</svg>
