<?xml version="1.0" standalone="no"?>
<!DOCTYPE svg PUBLIC "-//W3C//DTD SVG 1.1//EN" "http://www.w3.org/Graphics/SVG/1.1/DTD/svg11.dtd" >
<svg xmlns="http://www.w3.org/2000/svg" xmlns:xlink="http://www.w3.org/1999/xlink" version="1.1" viewBox="-88 0 778 1000">
  <g transform="matrix(1 0 0 -1 0 800)">
   <path fill="currentColor"
d="M254 777.5q-21 25.5 -21 62.5q0 77 60 110t133 33q67 0 109.5 -28t42.5 -80q0 -50 -26.5 -82.5t-71.5 -49.5l122 -677l78 -15l-3 -51h-333l2 51l77 14l-20 139h-239l-59 -139l92 -14l-4 -51h-271l4 51l68 14l318 675q-37 12 -58 37.5zM353 902.5q-26 -15.5 -26 -50.5
q0 -25 22.5 -41t49.5 -16q86 0 86 66q0 25 -22 41t-49 16q-35 0 -61 -15.5zM195 277h198l-39 270l-4 93z" />
  </g>

</svg>
