<?xml version="1.0" standalone="no"?>
<!DOCTYPE svg PUBLIC "-//W3C//DTD SVG 1.1//EN" "http://www.w3.org/Graphics/SVG/1.1/DTD/svg11.dtd" >
<svg xmlns="http://www.w3.org/2000/svg" xmlns:xlink="http://www.w3.org/1999/xlink" version="1.1" viewBox="-27 0 663 1000">
  <g transform="matrix(1 0 0 -1 0 800)">
   <path fill="currentColor"
d="M625 743l-17 -179h-100l-20 109l-171 12l-34 -256l224 22l-18 -112l-216 15l-34 -281l228 17l53 137l102 -7l-35 -220h-604l7 51l78 14l80 613l-71 11l6 54h542zM237 950q0 19 3 32h90q0 -28 3 -44t16.5 -26t43.5 -10q48 0 64.5 24t16.5 56h87q0 -83 -46 -134t-124 -51
q-154 0 -154 153z" />
  </g>

</svg>
