<?xml version="1.0" standalone="no"?>
<!DOCTYPE svg PUBLIC "-//W3C//DTD SVG 1.1//EN" "http://www.w3.org/Graphics/SVG/1.1/DTD/svg11.dtd" >
<svg xmlns="http://www.w3.org/2000/svg" xmlns:xlink="http://www.w3.org/1999/xlink" version="1.1" viewBox="-13 0 674 1000">
  <g transform="matrix(1 0 0 -1 0 800)">
   <path fill="currentColor"
d="M408 571q132 0 187.5 -45.5t55.5 -115.5q0 -102 -73.5 -172t-268.5 -70q-35 0 -55 2l-15 -105l85 -14l-4 -51h-323l4 51l69 14l81 613l-71 12l7 53h326l-6 -53l-87 -12l-14 -111q66 4 102 4zM318 234q69 0 112 38.5t43 117.5q0 57 -31 87.5t-87 30.5q-23 0 -58 -7
l-35 -267h56z" />
  </g>

</svg>
