<?xml version="1.0" standalone="no"?>
<!DOCTYPE svg PUBLIC "-//W3C//DTD SVG 1.1//EN" "http://www.w3.org/Graphics/SVG/1.1/DTD/svg11.dtd" >
<svg xmlns="http://www.w3.org/2000/svg" xmlns:xlink="http://www.w3.org/1999/xlink" version="1.1" viewBox="-10 0 526 1000">
  <g transform="matrix(1 0 0 -1 0 800)">
   <path fill="currentColor"
d="M197 -4q-67 15 -103.5 73.5t-36.5 155.5q0 75 28 146t84 122.5t135 67.5l29 125h72l-26 -118q73 -2 119 -19l-41 -155h-45q-15 48 -31 73t-44 25q-27 0 -54 -33t-44 -92t-17 -131q0 -83 20.5 -118.5t65.5 -35.5q44 0 73 16.5t51 45.5l31 -50q-23 -35 -74 -66.5
t-120 -36.5l-24 -110h-73z" />
  </g>

</svg>
