<?xml version="1.0" standalone="no"?>
<!DOCTYPE svg PUBLIC "-//W3C//DTD SVG 1.1//EN" "http://www.w3.org/Graphics/SVG/1.1/DTD/svg11.dtd" >
<svg xmlns="http://www.w3.org/2000/svg" xmlns:xlink="http://www.w3.org/1999/xlink" version="1.1" viewBox="-10 0 1245 1000">
  <g transform="matrix(1 0 0 -1 0 800)">
   <path fill="currentColor"
d="M163 329q77 0 128.5 31t60.5 84q1 4 1 11q0 30 -24.5 47t-64.5 17q-28 0 -56 -9t-42 -18l-41 31l71 275h341l-16 -93h-247l-47 -141q22 13 58.5 22.5t77.5 9.5q72 0 102.5 -28t30.5 -79q0 -18 -3 -38q-15 -94 -94 -143.5t-214 -49.5q-20 0 -50 1.5t-42 4.5l16 68
q33 -3 54 -3zM879 747l-373 -747h-96l373 747h96zM808.5 27q-51.5 34 -51.5 96q1 49 35 88.5t81 57.5q-25 24 -39.5 51t-14.5 63q0 72 55 114.5t141 42.5q43 0 78 -16.5t55 -43t20 -56.5q0 -41 -31 -74.5t-77 -54.5q40 -24 66 -58.5t26 -76.5q0 -79 -62 -123t-156 -44
q-74 0 -125.5 34zM948.5 361.5q23.5 -19.5 66.5 -41.5q28 22 45 48t18 53q0 27 -20 43t-50 16q-39 0 -62.5 -19.5t-23.5 -52.5q3 -27 26.5 -46.5zM1010.5 168q-15.5 19 -33.5 31.5t-65 41.5q-22 -21 -36.5 -48.5t-13.5 -55.5q0 -36 20 -58.5t57 -22.5q33 0 60 20.5t27 49.5
q0 23 -15.5 42z" />
  </g>

</svg>
