<?xml version="1.0" standalone="no"?>
<!DOCTYPE svg PUBLIC "-//W3C//DTD SVG 1.1//EN" "http://www.w3.org/Graphics/SVG/1.1/DTD/svg11.dtd" >
<svg xmlns="http://www.w3.org/2000/svg" xmlns:xlink="http://www.w3.org/1999/xlink" version="1.1" viewBox="-10 0 619 1000">
  <g transform="matrix(1 0 0 -1 0 800)">
   <path fill="currentColor"
d="M465 715q54 -29 84.5 -84.5t30.5 -134.5q0 -121 -57.5 -229t-157.5 -184.5t-222 -105.5l-26 64q63 19 123 61t102.5 98t56.5 115q-22 -27 -57 -44t-83 -17q-84 0 -133.5 60.5t-49.5 158.5q0 72 34.5 134t95.5 99.5t135 37.5q70 0 124 -29zM257.5 624.5
q-28.5 -53.5 -28.5 -121.5q0 -84 24 -122t59 -38t60.5 19t42.5 45q13 58 13 107q0 80 -19 122t-67 42q-56 0 -84.5 -53.5z" />
  </g>

</svg>
