<?xml version="1.0" standalone="no"?>
<!DOCTYPE svg PUBLIC "-//W3C//DTD SVG 1.1//EN" "http://www.w3.org/Graphics/SVG/1.1/DTD/svg11.dtd" >
<svg xmlns="http://www.w3.org/2000/svg" xmlns:xlink="http://www.w3.org/1999/xlink" version="1.1" viewBox="-10 0 646 1000">
  <g transform="matrix(1 0 0 -1 0 800)">
   <path fill="currentColor"
d="M339 537q47 31 103 31q130 0 130 -148q0 -29 -24 -173q-2 -15 -8 -47q-14 -74 -14 -100q0 -27 19 -27q8 0 17.5 4.5t26.5 17.5l14 -34q-17 -23 -53 -47t-92 -24q-58 0 -78 23t-20 59q0 27 17 112l6 32q22 125 22 181q0 43 -9 59t-30 16q-29 0 -63 -34.5t-58 -85.5
l-48 -352h-155l63 471l-52 28l8 43l180 26l25 -12l-8 -103q34 53 81 84zM224.5 772.5q33.5 24.5 68.5 24.5q28 0 45.5 -9t40.5 -26q16 -13 27 -19t25 -6q25 0 39.5 11t33.5 35l42 -50q-13 -33 -49.5 -60t-73.5 -27q-27 0 -44 8.5t-36 24.5q-16 14 -29 21t-32 7
q-23 0 -37 -9.5t-34 -30.5l-36 49q16 32 49.5 56.5z" />
  </g>

</svg>
