<?xml version="1.0" standalone="no"?>
<!DOCTYPE svg PUBLIC "-//W3C//DTD SVG 1.1//EN" "http://www.w3.org/Graphics/SVG/1.1/DTD/svg11.dtd" >
<svg xmlns="http://www.w3.org/2000/svg" xmlns:xlink="http://www.w3.org/1999/xlink" version="1.1" viewBox="-10 0 505 1000">
  <g transform="matrix(1 0 0 -1 0 800)">
   <path fill="currentColor"
d="M414 400q9 -33 9 -60q0 -34 -18 -59.5t-43.5 -43t-77.5 -48.5q-41 -21 -72.5 -42.5t-45.5 -37.5q-5 -10 -7.5 -28.5t-2.5 -34.5q0 -60 43.5 -95.5t119.5 -35.5q30 0 62.5 5t52.5 15l-23 -98q-14 -11 -56.5 -26t-89.5 -15q-128 0 -180.5 61.5t-52.5 148.5q0 82 42 141
q32 43 75.5 75t90.5 53q28 13 47.5 31.5t21.5 42.5q1 9 1 26q0 35 -6 53l83 24l7 -1q11 -18 20 -51zM379.5 553q-28.5 -27 -63.5 -27q-34 0 -53 23t-19 55q0 46 29.5 71.5t68.5 25.5q28 0 47 -22.5t19 -55.5q0 -43 -28.5 -70z" />
  </g>

</svg>
