<?xml version="1.0" standalone="no"?>
<!DOCTYPE svg PUBLIC "-//W3C//DTD SVG 1.1//EN" "http://www.w3.org/Graphics/SVG/1.1/DTD/svg11.dtd" >
<svg xmlns="http://www.w3.org/2000/svg" xmlns:xlink="http://www.w3.org/1999/xlink" version="1.1" viewBox="-10 0 383 1000">
  <g transform="matrix(1 0 0 -1 0 800)">
   <path fill="currentColor"
d="M69 643q-40 31 -40 88q0 53 29.5 86.5t72 48.5t85.5 15q66 0 106.5 -31t40.5 -85q0 -49 -26.5 -84t-68.5 -52t-89 -17q-70 0 -110 31zM247.5 696.5q23.5 15.5 23.5 54.5q0 26 -20 44.5t-47 18.5q-32 0 -57 -18t-25 -54q0 -25 20.5 -43t46.5 -18q35 0 58.5 15.5z" />
  </g>

</svg>
