<?xml version="1.0" standalone="no"?>
<!DOCTYPE svg PUBLIC "-//W3C//DTD SVG 1.1//EN" "http://www.w3.org/Graphics/SVG/1.1/DTD/svg11.dtd" >
<svg xmlns="http://www.w3.org/2000/svg" xmlns:xlink="http://www.w3.org/1999/xlink" version="1.1" viewBox="-10 0 1211 1000">
  <g transform="matrix(1 0 0 -1 0 800)">
   <path fill="currentColor"
d="M163 256.5q-38 6.5 -69 21.5l7 65q23 -8 61 -13t68 -5q59 0 89 24t30 63q0 27 -20 46t-51 19h-7l-55 -17l-14 64q33 8 59 22q68 37 68 85q2 43 -57 43q-31 0 -57.5 -10.5t-53.5 -30.5l-29 55q31 27 83 44.5t110 17.5q64 0 102 -25.5t38 -66.5t-27 -74.5t-101 -59.5
q7 1 20 1q54 0 92.5 -29t38.5 -82q0 -46 -29.5 -83t-86.5 -59t-136 -22q-35 0 -73 6.5zM845 747l-373 -747h-96l373 747h96zM774.5 27q-51.5 34 -51.5 96q1 49 35 88.5t81 57.5q-25 24 -39.5 51t-14.5 63q0 72 55 114.5t141 42.5q43 0 78 -16.5t55 -43t20 -56.5
q0 -41 -31 -74.5t-77 -54.5q40 -24 66 -58.5t26 -76.5q0 -79 -62 -123t-156 -44q-74 0 -125.5 34zM914.5 361.5q23.5 -19.5 66.5 -41.5q28 22 45 48t18 53q0 27 -20 43t-50 16q-39 0 -62.5 -19.5t-23.5 -52.5q3 -27 26.5 -46.5zM976.5 168q-15.5 19 -33.5 31.5t-65 41.5
q-22 -21 -36.5 -48.5t-13.5 -55.5q0 -36 20 -58.5t57 -22.5q33 0 60 20.5t27 49.5q0 23 -15.5 42z" />
  </g>

</svg>
