<?xml version="1.0" standalone="no"?>
<!DOCTYPE svg PUBLIC "-//W3C//DTD SVG 1.1//EN" "http://www.w3.org/Graphics/SVG/1.1/DTD/svg11.dtd" >
<svg xmlns="http://www.w3.org/2000/svg" xmlns:xlink="http://www.w3.org/1999/xlink" version="1.1" viewBox="-10 0 619 1000">
  <g transform="matrix(1 0 0 -1 0 800)">
   <path fill="currentColor"
d="M261.5 233q92.5 101 92.5 204q0 47 -23 73t-63 26q-49 0 -101.5 -23t-72.5 -46l-37 62q16 18 52.5 41.5t90.5 41.5t115 18q76 0 122 -29t65.5 -70.5t19.5 -82.5q0 -66 -53.5 -138t-134.5 -135t-163 -102l275 21l55 98l71 -23l-48 -169h-489l-16 51q150 81 242.5 182z" />
  </g>

</svg>
