<?xml version="1.0" standalone="no"?>
<!DOCTYPE svg PUBLIC "-//W3C//DTD SVG 1.1//EN" "http://www.w3.org/Graphics/SVG/1.1/DTD/svg11.dtd" >
<svg xmlns="http://www.w3.org/2000/svg" xmlns:xlink="http://www.w3.org/1999/xlink" version="1.1" viewBox="-10 0 526 1000">
  <g transform="matrix(1 0 0 -1 0 800)">
   <path fill="currentColor"
d="M247 573q119 0 181.5 -60.5t62.5 -177.5q0 -95 -38 -174t-111 -125.5t-174 -46.5q-76 0 -167 36l31 156h59q4 -9 18 -48q8 -26 14 -42t15 -27q15 -18 36 -18q52 0 91.5 59t53.5 155q-77 -12 -140 -15.5t-72 -3.5l-16 91h235v21q0 89 -29 127t-74 38q-36 0 -62 -25
l-33 -72h-85l15 127q130 25 189 25z" />
  </g>

</svg>
