<?xml version="1.0" standalone="no"?>
<!DOCTYPE svg PUBLIC "-//W3C//DTD SVG 1.1//EN" "http://www.w3.org/Graphics/SVG/1.1/DTD/svg11.dtd" >
<svg xmlns="http://www.w3.org/2000/svg" xmlns:xlink="http://www.w3.org/1999/xlink" version="1.1" viewBox="-10 0 673 1000">
  <g transform="matrix(1 0 0 -1 0 800)">
   <path fill="currentColor"
d="M253.5 -245.5q-19.5 18.5 -20.5 49.5l79 83q2 9 2 26q0 44 -26 81q-126 11 -192 95.5t-67 221.5q0 137 53.5 236.5t151 152t227.5 52.5q58 0 90.5 -4.5t65.5 -13.5l20 -5l16 -4l-30 -196h-121l-19 152q-22 8 -48 8q-74 0 -124 -55.5t-73 -140.5t-21 -172
q4 -126 36.5 -188.5t102.5 -62.5q69 0 107 36q19 24 39 99h96l-21 -140q-33 -27 -81.5 -47t-126.5 -25q53 -70 53 -131q0 -57 -34 -91.5t-81 -34.5q-34 0 -53.5 18.5z" />
  </g>

</svg>
