<?xml version="1.0" standalone="no"?>
<!DOCTYPE svg PUBLIC "-//W3C//DTD SVG 1.1//EN" "http://www.w3.org/Graphics/SVG/1.1/DTD/svg11.dtd" >
<svg xmlns="http://www.w3.org/2000/svg" xmlns:xlink="http://www.w3.org/1999/xlink" version="1.1" viewBox="-10 0 639 1000">
  <g transform="matrix(1 0 0 -1 0 800)">
   <path fill="currentColor"
d="M205 98q0 -25 19 -25q8 0 17.5 4.5t27.5 17.5l13 -34q-52 -71 -136 -71q-43 0 -72.5 16t-30.5 50q0 6 4 38l84 630l-65 21l10 40l196 21l25 -14l-91 -682q-1 -4 -1 -12zM479.5 -138.5q-35.5 -58.5 -87.5 -89t-112 -30.5q-31 0 -56 4.5t-34 13.5l20 63q9 -3 21 -4.5
t23 -1.5q39 0 62 28t33.5 73t18.5 114l51 447l-80 24l11 40l217 25l25 -12l-67 -556q-10 -80 -45.5 -138.5zM455.5 678q-23.5 24 -23.5 54q0 41 28 69.5t74 28.5q35 0 56 -23t21 -53q0 -44 -26 -72t-76 -28q-30 0 -53.5 24z" />
  </g>

</svg>
