<?xml version="1.0" standalone="no"?>
<!DOCTYPE svg PUBLIC "-//W3C//DTD SVG 1.1//EN" "http://www.w3.org/Graphics/SVG/1.1/DTD/svg11.dtd" >
<svg xmlns="http://www.w3.org/2000/svg" xmlns:xlink="http://www.w3.org/1999/xlink" version="1.1" viewBox="-144 0 405 1000">
  <g transform="matrix(1 0 0 -1 0 800)">
   <path fill="currentColor"
d="M-24 956.5q32 26.5 73 26.5q21 0 35.5 -7.5t30.5 -21.5q15 -11 24 -16.5t22 -5.5q17 0 25.5 6.5t21.5 23.5l43 -25q-46 -92 -121 -92q-20 0 -34 7t-32 21q-15 12 -25 17.5t-23 5.5q-16 0 -25 -6.5t-26 -24.5l-40 24q19 41 51 67.5zM121 821l122 -157l-68 -42l-114 93
l-148 -93l-47 40l170 159h85z" />
  </g>

</svg>
