<?xml version="1.0" standalone="no"?>
<!DOCTYPE svg PUBLIC "-//W3C//DTD SVG 1.1//EN" "http://www.w3.org/Graphics/SVG/1.1/DTD/svg11.dtd" >
<svg xmlns="http://www.w3.org/2000/svg" xmlns:xlink="http://www.w3.org/1999/xlink" version="1.1" viewBox="-29 0 577 1000">
  <g transform="matrix(1 0 0 -1 0 800)">
   <path fill="currentColor"
d="M125.5 543q19.5 3 37.5 7q31 8 62 12t80 4q92 0 142.5 -42t50.5 -116q0 -59 -26 -104.5t-67.5 -74t-86.5 -39.5q79 -10 122.5 -56.5t43.5 -120.5q0 -18 -3 -37q-14 -97 -85 -160.5t-211 -63.5q-55 0 -111 13t-93 37l71 134l62 -92q31 -33 72 -33q53 0 89.5 46.5
t47.5 127.5q4 28 4 57q0 56 -26.5 82.5t-92.5 26.5l-53 -10l11 65l56 5q54 5 85 44t40 123q2 20 2 29q0 48 -22 74.5t-65 26.5q-23 0 -46 -9t-35 -22l-34 -96h-84l23 159q20 0 39.5 3z" />
  </g>

</svg>
