<?xml version="1.0" standalone="no"?>
<!DOCTYPE svg PUBLIC "-//W3C//DTD SVG 1.1//EN" "http://www.w3.org/Graphics/SVG/1.1/DTD/svg11.dtd" >
<svg xmlns="http://www.w3.org/2000/svg" xmlns:xlink="http://www.w3.org/1999/xlink" version="1.1" viewBox="-10 0 880 1000">
  <g transform="matrix(1 0 0 -1 0 800)">
   <path fill="currentColor"
d="M369.5 447q41.5 57 104.5 89.5t141 32.5q110 0 166 -61t56 -179q0 -95 -39 -173t-110 -124t-164 -46q-106 0 -161.5 58t-60.5 168v37h-75l-34 -249h-155l97 724l-65 21l10 40l196 21l24 -14l-64 -476h76q16 74 57.5 131zM528.5 460.5q-27.5 -40.5 -40.5 -102.5t-13 -128
q0 -98 16.5 -139.5t55.5 -41.5q59 0 87.5 82t28.5 192q0 99 -15.5 138.5t-50.5 39.5q-41 0 -68.5 -40.5z" />
  </g>

</svg>
