<?xml version="1.0" standalone="no"?>
<!DOCTYPE svg PUBLIC "-//W3C//DTD SVG 1.1//EN" "http://www.w3.org/Graphics/SVG/1.1/DTD/svg11.dtd" >
<svg xmlns="http://www.w3.org/2000/svg" xmlns:xlink="http://www.w3.org/1999/xlink" version="1.1" viewBox="-10 0 943 1000">
  <g transform="matrix(1 0 0 -1 0 800)">
   <path fill="currentColor"
d="M233 259q-14 -96 -14 -121q0 -36 11 -51.5t36 -15.5q52 0 97 51q9 64 25 192l3 22q22 152 32 228h157q-31 -219 -43 -314q-13 -94 -13 -112q0 -35 11.5 -51t35.5 -16q53 0 100 55l24 176l36 262h157l-63 -454q-4 -37 20 -37q8 0 16.5 4t28.5 18l13 -34q-7 -12 -25.5 -29
t-45.5 -28q-46 -24 -46 -52q0 -9 8 -31q6 -16 9.5 -28t3.5 -28q0 -25 -21.5 -52.5t-54 -49t-61.5 -28.5l-35 39q19 8 36 30t17 43q0 14 -5 29q-7 26 -7 43q0 46 63 74q-61 9 -61 62q0 11 1 16l-4 4q-74 -85 -180 -85q-59 0 -87.5 22t-28.5 58q0 9 1 13h-2q-33 -41 -74.5 -67
t-103.5 -26q-53 0 -97 30.5t-45 94.5q0 26 5.5 68.5t11.5 82.5l4 26l26 179l-62 38l8 43l194 16l25 -12l-33 -268z" />
  </g>

</svg>
