<?xml version="1.0" standalone="no"?>
<!DOCTYPE svg PUBLIC "-//W3C//DTD SVG 1.1//EN" "http://www.w3.org/Graphics/SVG/1.1/DTD/svg11.dtd" >
<svg xmlns="http://www.w3.org/2000/svg" xmlns:xlink="http://www.w3.org/1999/xlink" version="1.1" viewBox="-10 0 538 1000">
  <g transform="matrix(1 0 0 -1 0 800)">
   <path fill="currentColor"
d="M141.5 532.5q59.5 37.5 142.5 37.5q109 0 161 -65.5t52 -160.5q0 -101 -41.5 -182.5t-114 -128t-160.5 -46.5q-80 0 -120 36t-40 92q0 73 48 122t118 72t138 25q0 74 -24.5 112t-68.5 38q-51 0 -85 -23t-61 -58l-30 50q26 42 85.5 79.5zM258.5 255.5
q-35.5 -17.5 -59.5 -50.5t-24 -77q0 -73 42 -73q51 0 76.5 67t31.5 153q-31 -2 -66.5 -19.5zM139 675.5q-21 24.5 -21 54.5q0 42 23 69.5t62 27.5q33 0 52.5 -23.5t19.5 -54.5q0 -43 -22 -70.5t-66 -27.5q-27 0 -48 24.5zM359.5 675.5q-20.5 24.5 -20.5 54.5q0 42 22.5 69.5
t62.5 27.5q32 0 52 -23t20 -53q0 -44 -22 -72t-66 -28q-28 0 -48.5 24.5z" />
  </g>

</svg>
