<?xml version="1.0" standalone="no"?>
<!DOCTYPE svg PUBLIC "-//W3C//DTD SVG 1.1//EN" "http://www.w3.org/Graphics/SVG/1.1/DTD/svg11.dtd" >
<svg xmlns="http://www.w3.org/2000/svg" xmlns:xlink="http://www.w3.org/1999/xlink" version="1.1" viewBox="-22 0 792 1000">
  <g transform="matrix(1 0 0 -1 0 800)">
   <path fill="currentColor"
d="M572 37q-30 -84 -111.5 -137t-187.5 -68l-25 51q135 42 157 159q17 90 36 225l55 418h-177l-8 -69q-38 -326 -93 -479q-21 -59 -39.5 -89.5t-42 -43t-59.5 -12.5q-22 0 -49.5 4t-39.5 13l36 148q35 -22 85 -22q18 0 27.5 8t18.5 26q26 55 50 172.5t40 278.5l6 57l-106 12
l7 54h608l-6 -54l-89 -11l-55 -410q-23 -189 -38 -231z" />
  </g>

</svg>
