<?xml version="1.0" standalone="no"?>
<!DOCTYPE svg PUBLIC "-//W3C//DTD SVG 1.1//EN" "http://www.w3.org/Graphics/SVG/1.1/DTD/svg11.dtd" >
<svg xmlns="http://www.w3.org/2000/svg" xmlns:xlink="http://www.w3.org/1999/xlink" version="1.1" viewBox="-10 0 1151 1000">
  <g transform="matrix(1 0 0 -1 0 800)">
   <path fill="currentColor"
d="M503 97q0 -24 18 -24q16 0 45 22l14 -34q-23 -26 -54.5 -48.5t-81.5 -22.5q-39 0 -59 18.5t-25 54.5l-1 9q-24 -34 -65 -58t-97 -24q-86 0 -127 57.5t-41 148.5q0 98 37 183t111.5 137t182.5 52q23 0 51 -5l23 161l-76 21l9 40l209 21l26 -14l-98 -681q-1 -5 -1 -14z
M348 501q-82 0 -118 -90t-36 -209q0 -60 18.5 -94t51.5 -34q24 0 45.5 14.5t36.5 37.5l54 366q-27 9 -52 9zM805 434q-37 0 -59.5 -21.5t-24.5 -53.5h-43q-5 25 -5 65q0 48 9 86.5t29 46.5q19 11 49 11q34 0 88.5 -4t69.5 -5q102 -8 129 -8q38 0 56 17l25 -30l-314 -389
l-39 -26h162q40 0 63 22.5t26 57.5h42q3 -42 3 -58q0 -50 -8.5 -91t-28.5 -55q-13 -10 -50 -10q-58 0 -170 9q-26 1 -72 4t-66 3q-13 0 -28 -4t-23 -12l-31 30l316 387l46 27zM823 841l99 -103l158 103l51 -27l-179 -183h-86l-103 183z" />
  </g>

</svg>
