<?xml version="1.0" standalone="no"?>
<!DOCTYPE svg PUBLIC "-//W3C//DTD SVG 1.1//EN" "http://www.w3.org/Graphics/SVG/1.1/DTD/svg11.dtd" >
<svg xmlns="http://www.w3.org/2000/svg" xmlns:xlink="http://www.w3.org/1999/xlink" version="1.1" viewBox="-10 0 540 1000">
  <g transform="matrix(1 0 0 -1 0 800)">
   <path fill="currentColor"
d="M153 551q29 8 55.5 12t64.5 4q102 0 160.5 -33t58.5 -89t-34.5 -93.5t-86.5 -55.5q57 -2 88.5 -31.5t31.5 -80.5q0 -77 -57 -123.5t-151 -61.5q-26 -20 -26 -52q0 -9 3.5 -18.5t4.5 -11.5q14 -30 14 -57q0 -24 -21.5 -51.5t-54 -49t-61.5 -29.5l-36 41q20 7 38.5 28.5
t18.5 43.5q0 13 -7 29q-3 8 -6 19t-3 24q0 20 15.5 40t40.5 37h-9q-63 0 -111.5 13.5t-71.5 29.5l76 141l59 -88q11 -14 30 -25t43 -11q53 0 82 32.5t29 87.5q0 43 -24.5 65t-86.5 22l-55 -10l12 65l53 5q110 11 110 123q0 31 -23 48.5t-63 17.5q-20 0 -42 -10.5t-30 -20.5
l-31 -82h-87l18 145q30 0 72 11z" />
  </g>

</svg>
