<?xml version="1.0" standalone="no"?>
<!DOCTYPE svg PUBLIC "-//W3C//DTD SVG 1.1//EN" "http://www.w3.org/Graphics/SVG/1.1/DTD/svg11.dtd" >
<svg xmlns="http://www.w3.org/2000/svg" xmlns:xlink="http://www.w3.org/1999/xlink" version="1.1" viewBox="-10 0 526 1000">
  <g transform="matrix(1 0 0 -1 0 800)">
   <path fill="currentColor"
d="M416 876l90 -90q-9 -16 -47.5 -51t-84 -67.5t-72.5 -43.5l-44 42zM154.5 551.5q47.5 16.5 107.5 16.5q86 0 130 -28.5t44 -81.5q0 -47 -24 -83t-57 -60.5t-83 -52.5l-20 -12q-46 -27 -67 -49t-21 -55q0 -31 18 -50.5t54 -19.5q38 0 65.5 11.5t59.5 33.5l15 -65
q-30 -29 -86.5 -47.5t-109.5 -18.5q-84 0 -132 35.5t-48 89.5q0 43 20.5 74.5t50.5 53.5t82 53l25 15q49 34 68.5 61.5t19.5 64.5q0 21 -16 32.5t-43 11.5q-38 0 -72 -13t-44 -23l-10 71q26 19 73.5 35.5z" />
  </g>

</svg>
