<?xml version="1.0" standalone="no"?>
<!DOCTYPE svg PUBLIC "-//W3C//DTD SVG 1.1//EN" "http://www.w3.org/Graphics/SVG/1.1/DTD/svg11.dtd" >
<svg xmlns="http://www.w3.org/2000/svg" xmlns:xlink="http://www.w3.org/1999/xlink" version="1.1" viewBox="-24 0 607 1000">
  <g transform="matrix(1 0 0 -1 0 800)">
   <path fill="currentColor"
d="M500 80.5q5 -7.5 13 -7.5q15 0 45 22l14 -34q-18 -26 -59.5 -48.5t-86.5 -22.5q-46 0 -68.5 22.5t-24.5 67.5l-21 384l-160 -401q-15 -38 -46.5 -54.5t-69.5 -16.5q-17 0 -28 2.5t-22 9.5l32 137q46 -17 76 -17q11 2 22 25l19 44q74 161 112 277l-119 28l10 66h318
l37 -453q2 -23 7 -30.5z" />
  </g>

</svg>
