<?xml version="1.0" standalone="no"?>
<!DOCTYPE svg PUBLIC "-//W3C//DTD SVG 1.1//EN" "http://www.w3.org/Graphics/SVG/1.1/DTD/svg11.dtd" >
<svg xmlns="http://www.w3.org/2000/svg" xmlns:xlink="http://www.w3.org/1999/xlink" version="1.1" viewBox="-14 0 641 1000">
  <g transform="matrix(1 0 0 -1 0 800)">
   <path fill="currentColor"
d="M341 412q33 13 68 13q110 0 156.5 -50t46.5 -146q0 -100 -40.5 -191.5t-112.5 -148t-162 -56.5q-12 0 -27.5 2.5t-21.5 5.5l6 57q9 -1 38 -1q48 0 86.5 40t60.5 112t22 164q0 73 -19.5 110.5t-63.5 37.5q-30 0 -55 -9.5t-50 -28.5l-34 -259l90 -13l-5 -51h-328l5 51
l68 14l82 612l-72 12l7 54h495l-38 -245h-87l-15 175l-119 12l-41 -307q27 21 60 34z" />
  </g>

</svg>
