<?xml version="1.0" standalone="no"?>
<!DOCTYPE svg PUBLIC "-//W3C//DTD SVG 1.1//EN" "http://www.w3.org/Graphics/SVG/1.1/DTD/svg11.dtd" >
<svg xmlns="http://www.w3.org/2000/svg" xmlns:xlink="http://www.w3.org/1999/xlink" version="1.1" viewBox="-10 0 488 1000">
  <g transform="matrix(1 0 0 -1 0 800)">
   <path fill="currentColor"
d="M64.5 390.5q35.5 78.5 106.5 128t172 49.5q33 0 67.5 -5t57.5 -14l-40 -155l-35 1q-28 43 -49 70t-35 27q-27 0 -54 -33t-44.5 -91t-17.5 -129q0 -85 20.5 -121t66.5 -36q43 0 72.5 16.5t51.5 45.5l31 -50q-19 -30 -59.5 -58t-95.5 -40q8 -22 13.5 -54t5.5 -57
q0 -121 -146 -121q-22 0 -55 4t-41 9l18 75q16 -8 38 -8q41 0 64 18.5t25 63.5q1 7 1 20q0 19 -4 45q-80 6 -125 66.5t-45 169.5q0 85 35.5 163.5z" />
  </g>

</svg>
