<?xml version="1.0" standalone="no"?>
<!DOCTYPE svg PUBLIC "-//W3C//DTD SVG 1.1//EN" "http://www.w3.org/Graphics/SVG/1.1/DTD/svg11.dtd" >
<svg xmlns="http://www.w3.org/2000/svg" xmlns:xlink="http://www.w3.org/1999/xlink" version="1.1" viewBox="-10 0 400 1000">
  <g transform="matrix(1 0 0 -1 0 800)">
   <path fill="currentColor"
d="M216 172q-1 -7 -2 -12q-4 -32 -4 -38q0 -40 37 -40q21 0 43.5 6.5t39.5 21.5l12 -38q-29 -32 -78.5 -57t-118.5 -25q-41 0 -67.5 20.5t-26.5 67.5q0 19 13 114l39 285h-59l12 53l60 23q32 27 78 138h91l-17 -136h112l-11 -78h-112l-39 -288q-1 -10 -2 -17zM50 -237
q9 5 16 25t7 42q0 19 -7 36.5t-21 18.5v41l91 41q30 -13 45 -41.5t15 -64.5q0 -31 -14.5 -60t-35.5 -48.5t-40 -24.5l-57 23z" />
  </g>

</svg>
