<?xml version="1.0" standalone="no"?>
<!DOCTYPE svg PUBLIC "-//W3C//DTD SVG 1.1//EN" "http://www.w3.org/Graphics/SVG/1.1/DTD/svg11.dtd" >
<svg xmlns="http://www.w3.org/2000/svg" xmlns:xlink="http://www.w3.org/1999/xlink" version="1.1" viewBox="-15 0 634 1000">
  <g transform="matrix(1 0 0 -1 0 800)">
   <path fill="currentColor"
d="M412 743l-6 -54l-89 -11l-81 -616l178 10l102 219l87 -11l-51 -280h-557l6 51l67 14l80 613l-71 11l7 54h328zM196 -220.5q-20 22.5 -20 59.5q0 42 28 69.5t72 27.5q38 0 57.5 -21t19.5 -57q0 -43 -26.5 -72t-75.5 -29q-35 0 -55 22.5z" />
  </g>

</svg>
