<?xml version="1.0" standalone="no"?>
<!DOCTYPE svg PUBLIC "-//W3C//DTD SVG 1.1//EN" "http://www.w3.org/Graphics/SVG/1.1/DTD/svg11.dtd" >
<svg xmlns="http://www.w3.org/2000/svg" xmlns:xlink="http://www.w3.org/1999/xlink" version="1.1" viewBox="-10 0 602 1000">
  <g transform="matrix(1 0 0 -1 0 800)">
   <path fill="currentColor"
d="M490 97q0 -24 20 -24q17 0 44 22l14 -34q-14 -22 -50 -46.5t-85 -24.5q-36 0 -58 15t-24 43v6q-62 -64 -149 -64t-130 58t-43 148q0 97 38.5 182.5t114.5 137.5t182 52q26 0 58.5 -6.5t56.5 -14.5l75 21l-63 -458q-1 -5 -1 -13zM353 501q-56 0 -91.5 -45t-50.5 -113
t-15 -141q0 -60 19.5 -94t53.5 -34q32 0 64 30l54 393q-22 4 -34 4zM321 636.5q-6 15.5 -5 27.5q2 10 9.5 17t20.5 16q15 9 23.5 17.5t12.5 21.5v3q0 36 -44 36h-7q-15 0 -21 -2l15 94q2 1 15 3t23 2q62 0 98.5 -23.5t36.5 -69.5q0 -12 -3 -26q-4 -23 -20 -39t-34 -27.5
t-25 -17.5q-12 -9 -17 -19.5t-4 -29.5l-62 -6q-6 7 -12 22.5z" />
  </g>

</svg>
