<?xml version="1.0" standalone="no"?>
<!DOCTYPE svg PUBLIC "-//W3C//DTD SVG 1.1//EN" "http://www.w3.org/Graphics/SVG/1.1/DTD/svg11.dtd" >
<svg xmlns="http://www.w3.org/2000/svg" xmlns:xlink="http://www.w3.org/1999/xlink" version="1.1" viewBox="-10 0 749 1000">
  <g transform="matrix(1 0 0 -1 0 800)">
   <path fill="currentColor"
d="M357 743l-8 -54l-84 -11l80 -236l23 -72l31 59l147 249l-80 11l5 54h258l-7 -54l-64 -11l-251 -383l-30 -230l119 -14l-5 -51h-401l6 51l113 14l28 230l-163 383l-63 11l5 54h341zM372 826q-25 23 -25 51q0 39 27 65.5t69 26.5q35 0 59 -21.5t24 -49.5q0 -41 -26.5 -68
t-73.5 -27q-29 0 -54 23z" />
  </g>

</svg>
