<?xml version="1.0" standalone="no"?>
<!DOCTYPE svg PUBLIC "-//W3C//DTD SVG 1.1//EN" "http://www.w3.org/Graphics/SVG/1.1/DTD/svg11.dtd" >
<svg xmlns="http://www.w3.org/2000/svg" xmlns:xlink="http://www.w3.org/1999/xlink" version="1.1" viewBox="-10 0 811 1000">
  <g transform="matrix(1 0 0 -1 0 800)">
   <path fill="currentColor"
d="M73.5 529.5q42.5 100.5 129.5 162t212 61.5q71 0 125 -23q62 4 97.5 34.5t35.5 71.5q0 15 -4 29h119q3 -9 3 -21q0 -75 -48.5 -117t-120.5 -57q75 -83 75 -234q0 -118 -40.5 -219t-127 -164t-216.5 -63q-144 0 -213 87.5t-69 233.5q0 118 42.5 218.5zM238 124.5
q24 -74.5 89 -74.5q61 0 103 49t63 134t21 192q0 131 -26.5 199t-86.5 68q-58 0 -100.5 -53t-65 -139t-22.5 -183q1 -118 25 -192.5zM368 825.5q-6 15.5 -5 27.5q2 10 9.5 17t20.5 16q15 9 23.5 17.5t12.5 21.5v3q0 36 -44 36h-7q-15 0 -21 -2l15 94q2 1 15 3t23 2
q62 0 98.5 -23.5t36.5 -69.5q0 -12 -3 -26q-4 -23 -20 -39t-34 -27.5t-25 -17.5q-12 -9 -17 -19.5t-4 -29.5l-62 -6q-6 7 -12 22.5z" />
  </g>

</svg>
