<?xml version="1.0" standalone="no"?>
<!DOCTYPE svg PUBLIC "-//W3C//DTD SVG 1.1//EN" "http://www.w3.org/Graphics/SVG/1.1/DTD/svg11.dtd" >
<svg xmlns="http://www.w3.org/2000/svg" xmlns:xlink="http://www.w3.org/1999/xlink" version="1.1" viewBox="-42 0 757 1000">
  <g transform="matrix(1 0 0 -1 0 800)">
   <path fill="currentColor"
d="M146 606q49 69 129.5 109t179.5 40q93 0 147 -21.5t76 -50.5l-5 -38l-157 -195q81 -22 135 -74.5t54 -141.5q0 -74 -35 -127.5t-93.5 -81.5t-128.5 -28q-31 0 -59 5.5t-62 14.5t-47 10l19 144h78l13 -82q15 -38 62 -38q36 0 57.5 38.5t21.5 114.5q0 103 -141 187l6 34
l129 171q1 5 1 15q0 33 -24.5 58.5t-63.5 25.5q-79 0 -119.5 -55.5t-55.5 -166.5l-64 -473h-231l5 51l61 14l53 388q10 84 59 153z" />
  </g>

</svg>
