<?xml version="1.0" standalone="no"?>
<!DOCTYPE svg PUBLIC "-//W3C//DTD SVG 1.1//EN" "http://www.w3.org/Graphics/SVG/1.1/DTD/svg11.dtd" >
<svg xmlns="http://www.w3.org/2000/svg" xmlns:xlink="http://www.w3.org/1999/xlink" version="1.1" viewBox="-15 0 659 1000">
  <g transform="matrix(1 0 0 -1 0 800)">
   <path fill="currentColor"
d="M634 743l-19 -186h-107l-13 116l-177 11l-36 -265l235 13l-16 -108l-229 18l-35 -277l134 -14l-4 -51h-372l5 51l68 14l80 613l-71 11l7 54h550zM331 826q-25 23 -25 51q0 39 27 65.5t69 26.5q35 0 59 -21.5t24 -49.5q0 -41 -26.5 -68t-73.5 -27q-29 0 -54 23z" />
  </g>

</svg>
