<?xml version="1.0" standalone="no"?>
<!DOCTYPE svg PUBLIC "-//W3C//DTD SVG 1.1//EN" "http://www.w3.org/Graphics/SVG/1.1/DTD/svg11.dtd" >
<svg xmlns="http://www.w3.org/2000/svg" xmlns:xlink="http://www.w3.org/1999/xlink" version="1.1" viewBox="-10 0 794 1000">
  <g transform="matrix(1 0 0 -1 0 800)">
   <path fill="currentColor"
d="M336 -7q-93 2 -154 46.5t-89 117t-28 160.5q0 130 45 226.5t133.5 151t215.5 57.5l13 108h76l-14 -110q40 -2 65.5 -6.5t63.5 -13.5l22 -6l29 -6l-31 -161h-116l-4 111q-39 21 -88 21q-231 0 -231 -368q0 -113 33.5 -184.5t100.5 -71.5q72 0 110 15l26 208l-100 8l9 72
h270l-44 -327q-52 -5 -91 -16q-88 -23 -144 -29l-16 -122h-77z" />
  </g>

</svg>
