<?xml version="1.0" standalone="no"?>
<!DOCTYPE svg PUBLIC "-//W3C//DTD SVG 1.1//EN" "http://www.w3.org/Graphics/SVG/1.1/DTD/svg11.dtd" >
<svg xmlns="http://www.w3.org/2000/svg" xmlns:xlink="http://www.w3.org/1999/xlink" version="1.1" viewBox="-10 0 634 1000">
  <g transform="matrix(1 0 0 -1 0 800)">
   <path fill="currentColor"
d="M232 253q-13 -87 -13 -115q0 -36 11 -51.5t36 -15.5q27 0 52.5 14.5t44.5 36.5l60 442h157l-63 -454q-4 -37 20 -37q8 0 16.5 4.5t27.5 17.5l14 -34q-7 -12 -25 -28.5t-47 -29.5t-64 -13q-39 0 -61 13.5t-27 38.5q-1 3 -1 11q0 12 1 18l-1 1q-32 -36 -72 -59t-98 -23
q-53 0 -97 30.5t-45 94.5q0 41 16 147q4 20 5 30l26 179l-62 38l8 43l194 16l25 -12l-33 -268zM247 673q-42 31 -42 88q0 54 29 89t72.5 51t90.5 16q65 0 108.5 -34t43.5 -88q0 -74 -55 -113.5t-134 -39.5q-71 0 -113 31zM431 727q26 16 26 54q0 27 -22.5 48t-49.5 21
q-32 0 -59.5 -20.5t-27.5 -57.5q0 -25 23 -43t49 -18q35 0 61 16z" />
  </g>

</svg>
