<?xml version="1.0" standalone="no"?>
<!DOCTYPE svg PUBLIC "-//W3C//DTD SVG 1.1//EN" "http://www.w3.org/Graphics/SVG/1.1/DTD/svg11.dtd" >
<svg xmlns="http://www.w3.org/2000/svg" xmlns:xlink="http://www.w3.org/1999/xlink" version="1.1" viewBox="-10 0 634 1000">
  <g transform="matrix(1 0 0 -1 0 800)">
   <path fill="currentColor"
d="M97.5 59.5q-58.5 67.5 -58.5 169.5q0 97 40 174t111 120.5t162 43.5q120 0 178.5 -67.5t58.5 -169.5q0 -97 -40 -174t-111.5 -120.5t-161.5 -43.5q-120 0 -178.5 67.5zM391.5 133.5q29.5 87.5 29.5 199.5q0 181 -83 181q-75 0 -104.5 -87.5t-29.5 -198.5q0 -82 19 -132
t64 -50q75 0 104.5 87.5z" />
  </g>

</svg>
