<?xml version="1.0" standalone="no"?>
<!DOCTYPE svg PUBLIC "-//W3C//DTD SVG 1.1//EN" "http://www.w3.org/Graphics/SVG/1.1/DTD/svg11.dtd" >
<svg xmlns="http://www.w3.org/2000/svg" xmlns:xlink="http://www.w3.org/1999/xlink" version="1.1" viewBox="-10 0 511 1000">
  <g transform="matrix(1 0 0 -1 0 800)">
   <path fill="currentColor"
d="M295 -9q-75 0 -133.5 26.5t-92.5 74.5t-34 110q0 42 17 83t51 75.5t87 55t125 20.5q19 0 43.5 -4.5t47.5 -11.5t34 -13q5 -2 8 -4.5t4 -9.5q5 -31 5.5 -54t0.5 -28q0 -14 -10 -17.5t-21 2t-15 15.5q-7 24 -17 43t-29.5 30t-56.5 11q-40 0 -65.5 -24.5t-37.5 -63.5
t-12 -83q0 -63 9.5 -106t33.5 -65t67 -22q35 0 58 10.5t38.5 32.5t25.5 55q4 13 13.5 16t18 -1t8.5 -13q0 -13 -0.5 -25.5t-2.5 -27.5t-7 -36q-1 -6 -6.5 -12.5t-9.5 -8.5q-25 -13 -60 -21.5t-85 -8.5z" />
  </g>

</svg>
