<?xml version="1.0" standalone="no"?>
<!DOCTYPE svg PUBLIC "-//W3C//DTD SVG 1.1//EN" "http://www.w3.org/Graphics/SVG/1.1/DTD/svg11.dtd" >
<svg xmlns="http://www.w3.org/2000/svg" xmlns:xlink="http://www.w3.org/1999/xlink" version="1.1" viewBox="-10 0 779 1000">
  <g transform="matrix(1 0 0 -1 0 800)">
   <path fill="currentColor"
d="M385 -7q-40 0 -81.5 2t-74.5 3.5t-46 1.5q-20 0 -46.5 -0.5t-54 -1.5t-49.5 -1q-6 0 -12 4t-6 11q0 9 5 14.5t14 7.5q38 8 52 20t14 43v454q0 32 -13 45t-53 22q-9 2 -14 7.5t-5 14.5q0 7 6 11t12 4q22 0 49.5 -1t54 -2.5t46.5 -1.5q15 0 41.5 1.5t58 3t61.5 3t50 1.5
q70 0 133 -23.5t112 -66.5t77 -102.5t28 -131.5q0 -66 -23 -127.5t-68.5 -109.5t-112.5 -76.5t-155 -28.5zM369 48q66 0 108.5 32t63 90t20.5 136q0 66 -12.5 120t-37.5 93t-63 60.5t-89 21.5q-30 0 -49.5 -2t-29.5 -8.5t-10 -22.5v-434q0 -31 10.5 -50t32.5 -27.5t56 -8.5z
M234 853q6 0 23 -5t38 -12.5t41 -15.5t32 -15q7 -4 13 -4t13 4q13 7 33 15.5t41 16t38 12.5t24 5q17 0 17 -14q0 -10 -8 -17l-105 -95q-18 -16 -28 -23t-25 -7q-14 0 -24 7t-28 23l-106 96q-9 8 -9 16q0 13 20 13z" />
  </g>

</svg>
