<?xml version="1.0" standalone="no"?>
<!DOCTYPE svg PUBLIC "-//W3C//DTD SVG 1.1//EN" "http://www.w3.org/Graphics/SVG/1.1/DTD/svg11.dtd" >
<svg xmlns="http://www.w3.org/2000/svg" xmlns:xlink="http://www.w3.org/1999/xlink" version="1.1" viewBox="-10 0 587 1000">
  <g transform="matrix(1 0 0 -1 0 800)">
   <path fill="currentColor"
d="M35 -5q-9 0 -14 5t-5 11q0 15 20 21q33 10 46.5 21t13.5 42v456q0 32 -12.5 45.5t-47.5 21.5q-12 3 -16.5 9t-4.5 12q0 7 5.5 11.5t14.5 4.5q22 0 48 -1t51 -2.5t45 -1.5q56 0 120 1t113 2q32 0 52.5 4t24.5 4q8 0 16.5 -4.5t9.5 -16.5q4 -37 10.5 -72.5t6.5 -62.5
q0 -10 -4 -15t-9 -5t-11 4t-10 13q-11 27 -19.5 45.5t-19.5 29.5t-28 21.5t-45 10.5h-63q-25 0 -41 -12t-16 -34v-184q0 -13 7 -18.5t19 -5.5h85q26 0 37.5 19t20.5 43q8 18 21 18q5 0 9 -6t3 -17q-1 -14 -2.5 -28t-2 -27.5t-0.5 -27.5q0 -13 0.5 -26.5t1.5 -27.5t2 -29
q2 -15 -1.5 -21.5t-8.5 -6.5q-17 0 -24 24q-9 32 -20.5 49t-30.5 17h-94q-11 0 -16.5 -6t-5.5 -17v-189q0 -28 12 -39.5t37 -11.5h89q20 0 39.5 5.5t33.5 17.5q17 14 31.5 36t25.5 44q4 8 8.5 10t10.5 2t8 -6.5t2 -13.5q0 -18 -5 -39t-12.5 -44.5t-14.5 -48.5q-2 -7 -9 -9.5
t-15 -2.5q-5 0 -39 0.5t-84.5 1.5t-105 1.5t-99.5 0.5q-20 0 -46 -1t-52 -2.5t-46 -1.5zM152 853q6 0 23 -5t38 -12.5t41 -15.5t32 -15q7 -4 13 -4t13 4q13 7 33 15.5t41 16t38 12.5t24 5q17 0 17 -14q0 -10 -8 -17l-105 -95q-18 -16 -28 -23t-25 -7q-14 0 -24 7t-28 23
l-106 96q-9 8 -9 16q0 13 20 13z" />
  </g>

</svg>
