<?xml version="1.0" standalone="no"?>
<!DOCTYPE svg PUBLIC "-//W3C//DTD SVG 1.1//EN" "http://www.w3.org/Graphics/SVG/1.1/DTD/svg11.dtd" >
<svg xmlns="http://www.w3.org/2000/svg" xmlns:xlink="http://www.w3.org/1999/xlink" version="1.1" viewBox="-10 0 502 1000">
  <g transform="matrix(1 0 0 -1 0 800)">
   <path fill="currentColor"
d="M47 -1q-7 0 -12 5t-5 12q0 8 4.5 13t11.5 6q28 5 34.5 11.5t6.5 24.5v319q0 13 -7.5 18.5t-30.5 9.5q-9 2 -13 7t-4 11q0 7 5 12t13 5q10 0 28 -1t35.5 -2t25.5 -1q39 0 85.5 0.5t90 1t73 1t35.5 0.5q7 0 15 -4.5t8 -16.5q1 -26 2 -42t1.5 -29t0.5 -32q0 -7 -3.5 -10
t-8.5 -3q-4 0 -9 3t-9 11q-17 38 -29.5 58.5t-47.5 20.5h-36q-19 0 -35.5 -7.5t-16.5 -24.5v-103q0 -12 7.5 -17t18.5 -5h50q14 0 22.5 13.5t18.5 36.5q4 9 8.5 11t9.5 2q4 0 6.5 -5t1.5 -15q-1 -18 -2.5 -36t-1.5 -37q0 -17 1 -29.5t2 -28.5q2 -15 -1 -20.5t-7 -5.5
t-10 3.5t-9 13.5q-7 26 -16 35.5t-23 11.5q-10 2 -18 2.5t-16 0.5q-24 0 -34.5 -9t-10.5 -23l1 -100q0 -18 11 -24t45 -13q8 -1 12 -6t4 -14q0 -6 -3.5 -10.5t-10.5 -4.5h-30t-43.5 0.5t-44 0.5h-31.5q-13 0 -35 -0.5l-44 -1t-36 -0.5z" />
  </g>

</svg>
