<?xml version="1.0" standalone="no"?>
<!DOCTYPE svg PUBLIC "-//W3C//DTD SVG 1.1//EN" "http://www.w3.org/Graphics/SVG/1.1/DTD/svg11.dtd" >
<svg xmlns="http://www.w3.org/2000/svg" xmlns:xlink="http://www.w3.org/1999/xlink" version="1.1" viewBox="-10 0 449 1000">
  <g transform="matrix(1 0 0 -1 0 800)">
   <path fill="currentColor"
d="M43 451q-5 0 -10 3.5t-5 7.5q0 14 15 16q25 3 33.5 12t8.5 24v307q0 17 -8.5 21.5t-33.5 9.5q-7 2 -10 6t-3 8q0 5 3.5 9t9.5 4q12 0 30.5 -1l37 -2t28.5 -1q36 0 78 0.5t81 0.5t66 0.5t31 0.5q6 0 13 -3.5t8 -14.5q2 -27 2.5 -48t0.5 -45q0 -7 -3 -10t-7 -3t-8.5 3
t-7.5 10q-11 29 -20 43.5t-23.5 19.5t-43.5 5h-33q-19 0 -31 -8.5t-12 -27.5v-97q0 -10 5.5 -14.5t14.5 -4.5q14 0 30 -0.5t34 -0.5q20 0 27 11.5t14 27.5q3 8 7.5 10t8.5 2t6.5 -4.5t1.5 -13.5q-1 -16 -2.5 -26t-1.5 -26t1 -24t2 -23q2 -13 -0.5 -17.5t-6.5 -4.5t-9.5 3.5
t-7.5 12.5q-6 23 -14.5 30.5t-23.5 7.5h-22h-31h-19q-16 0 -16 -14q0 -29 1.5 -59.5t0.5 -58.5q-1 -16 12 -24.5t38 -11.5q9 -1 14 -4t5 -11q0 -5 -4.5 -8.5t-12.5 -3.5q-14 0 -39.5 0.5t-50.5 0.5h-40q-19 0 -53 -1t-56 -1z" />
  </g>

</svg>
