<?xml version="1.0" standalone="no"?>
<!DOCTYPE svg PUBLIC "-//W3C//DTD SVG 1.1//EN" "http://www.w3.org/Graphics/SVG/1.1/DTD/svg11.dtd" >
<svg xmlns="http://www.w3.org/2000/svg" xmlns:xlink="http://www.w3.org/1999/xlink" version="1.1" viewBox="-10 0 614 1000">
  <g transform="matrix(1 0 0 -1 0 800)">
   <path fill="currentColor"
d="M315 -10q-78 0 -139.5 27.5t-97.5 79.5t-36 123q0 43 19 85t56.5 77t93.5 56t130 21q34 0 75 -7.5t74 -19.5q8 -3 14.5 -9.5t7.5 -17.5q5 -28 7.5 -48.5t2.5 -37.5q0 -7 -3.5 -13.5t-10.5 -6.5q-10 0 -16.5 6t-9.5 13q-11 25 -25.5 49t-37.5 39.5t-61 15.5
q-46 0 -78 -25.5t-48 -65t-16 -82.5q0 -59 8.5 -108.5t31.5 -79.5t66 -30q17 0 25 11t9 30l2 84q1 17 -8 23t-22.5 7.5t-27.5 4.5q-9 2 -13 6t-4 11q0 5 5.5 9t15.5 4q15 0 41.5 -1t52 -2t37.5 -1q23 0 53 1.5t55 1.5q12 0 15 -2.5t3 -7.5q0 -8 -5 -12.5t-16 -6.5
q-27 -6 -34 -13t-9 -21l-2 -64q0 -11 4.5 -17t9.5 -11q5 -4 8.5 -8t3.5 -9t-8 -10t-17 -10q-12 -6 -56.5 -22t-124.5 -16zM343 529q-39 0 -64 13.5t-39.5 34t-20.5 41.5t-6 35q0 19 8 27.5t17 8.5t14.5 -5.5t7.5 -15.5q7 -29 27.5 -40.5t55.5 -11.5t55.5 11.5t27.5 40.5
q2 10 7.5 15.5t14.5 5.5t17 -8.5t8 -27.5q0 -14 -6 -35t-20.5 -41.5t-39.5 -34t-64 -13.5z" />
  </g>

</svg>
