<?xml version="1.0" standalone="no"?>
<!DOCTYPE svg PUBLIC "-//W3C//DTD SVG 1.1//EN" "http://www.w3.org/Graphics/SVG/1.1/DTD/svg11.dtd" >
<svg xmlns="http://www.w3.org/2000/svg" xmlns:xlink="http://www.w3.org/1999/xlink" version="1.1" viewBox="-10 0 346 1000">
  <g transform="matrix(1 0 0 -1 0 800)">
   <path fill="currentColor"
d="M46 -3q-6 0 -11 4t-5 10q0 8 4.5 13t12.5 7q27 7 37.5 14t10.5 23v289q0 16 -10.5 23t-37.5 14q-8 2 -12.5 7.5t-4.5 12.5q0 6 5 10t11 4q20 0 41 -1t41.5 -2.5t37.5 -1.5q18 0 39.5 1t44 2t41.5 1q7 0 11 -3.5t4 -10.5q0 -8 -5 -12t-13 -7q-28 -9 -38 -17t-10 -21v-287
q0 -13 10 -21t38 -17q8 -3 13 -7t5 -12q0 -7 -4 -10.5t-11 -3.5q-19 0 -41.5 1t-44 2t-39.5 1q-17 0 -37.5 -1t-41.5 -2.5t-41 -1.5z" />
  </g>

</svg>
