<?xml version="1.0" standalone="no"?>
<!DOCTYPE svg PUBLIC "-//W3C//DTD SVG 1.1//EN" "http://www.w3.org/Graphics/SVG/1.1/DTD/svg11.dtd" >
<svg xmlns="http://www.w3.org/2000/svg" xmlns:xlink="http://www.w3.org/1999/xlink" version="1.1" viewBox="-10 0 379 1000">
  <g transform="matrix(1 0 0 -1 0 800)">
   <path fill="currentColor"
d="M33 -3q-6 0 -12 4t-6 11q0 17 19 22q38 8 52 20t14 43v454q0 32 -13 45t-53 22q-19 5 -19 22q0 7 6 11t12 4q22 0 49.5 -1t54 -2.5t46.5 -1.5t48 1t57 2t50 1q8 0 12 -3.5t4 -11.5q0 -10 -5 -14t-14 -7q-41 -12 -53 -25t-12 -43v-452q0 -28 13 -40.5t52 -23.5q9 -3 14 -7
t5 -14q0 -7 -4 -11t-12 -4q-21 0 -50 1t-57 2t-48 1t-46.5 -1t-54 -2.5t-49.5 -1.5zM137 681q-13 3 -13 10t12 22q27 34 54 65t58 62q14 14 35 11q8 -1 26.5 -7.5t34 -15.5t13.5 -18q-3 -11 -20 -22q-40 -25 -86 -50t-87 -49q-9 -5 -16.5 -7t-10.5 -1z" />
  </g>

</svg>
