<?xml version="1.0" standalone="no"?>
<!DOCTYPE svg PUBLIC "-//W3C//DTD SVG 1.1//EN" "http://www.w3.org/Graphics/SVG/1.1/DTD/svg11.dtd" >
<svg xmlns="http://www.w3.org/2000/svg" xmlns:xlink="http://www.w3.org/1999/xlink" version="1.1" viewBox="-10 0 350 1000">
  <g transform="matrix(1 0 0 -1 0 800)">
   <path fill="currentColor"
d="M52 -1q-7 0 -12 3.5t-5 10.5q0 8 4.5 12.5t11.5 5.5q20 4 28 10t8 27v311q0 20 -8.5 28t-31.5 14q-8 2 -12.5 6t-4.5 13q0 7 5.5 10t12.5 3q14 0 36.5 -1l45 -2t36.5 -1t39 1t50 1.5t38 0.5q9 0 12.5 -3.5t3.5 -9.5q0 -7 -4.5 -10.5t-11.5 -6.5q-21 -8 -29 -14
t-8.5 -12.5t-0.5 -18.5v-305q0 -18 7.5 -25t24.5 -14q7 -3 12.5 -7t5.5 -12q0 -7 -4.5 -10.5t-10.5 -3.5q-13 0 -37.5 0.5l-49 1t-37.5 0.5t-34.5 -0.5t-43.5 -1.5t-36 -1zM176 529q-39 0 -64 13.5t-39.5 34t-20.5 41.5t-6 35q0 19 8 27.5t17 8.5t14.5 -5.5t7.5 -15.5
q7 -29 27.5 -40.5t55.5 -11.5t55.5 11.5t27.5 40.5q2 10 7.5 15.5t14.5 5.5t17 -8.5t8 -27.5q0 -14 -6 -35t-20.5 -41.5t-39.5 -34t-64 -13.5z" />
  </g>

</svg>
