<?xml version="1.0" standalone="no"?>
<!DOCTYPE svg PUBLIC "-//W3C//DTD SVG 1.1//EN" "http://www.w3.org/Graphics/SVG/1.1/DTD/svg11.dtd" >
<svg xmlns="http://www.w3.org/2000/svg" xmlns:xlink="http://www.w3.org/1999/xlink" version="1.1" viewBox="-60 0 423 1000">
  <g transform="matrix(1 0 0 -1 0 800)">
   <path fill="currentColor"
d="M73 -138q-40 0 -67.5 5.5t-41.5 16.5t-14 26t6.5 25t17.5 15.5t23 5.5q7 0 14.5 -3.5t13.5 -9.5q19 -20 25.5 -30t13.5 -10q19 0 32 23.5t13 96.5v354q0 21 -6.5 29t-35.5 15q-6 2 -11 5.5t-5 13.5q0 8 5.5 10.5t11.5 2.5q14 0 37 -1l46 -2t36 -1q15 0 41.5 1t52.5 1.5
t39 0.5q7 0 12 -3.5t5 -9.5q0 -8 -5.5 -11t-12.5 -5q-25 -7 -34 -16.5t-9 -27.5v-268q0 -34 -10.5 -68t-29.5 -65t-43 -56q-27 -27 -58 -43.5t-62 -16.5zM193 739q-10 0 -18 -10.5t-21 -32.5q-10 -17 -20 -33.5l-20 -33t-19.5 -33t-18.5 -33.5q-10 -18 -8 -31.5t18 -13.5
q8 0 18 8.5t25 25.5q11 12 25 28.5t33 35.5q5 4 6.5 4t5.5 -4q19 -19 33.5 -35.5t24.5 -28.5q15 -17 25.5 -25.5t17.5 -8.5q10 0 15 13t-5 32q-9 17 -19 34t-20 33.5t-20 33.5l-20 34q-11 19 -19 30t-19 11z" />
  </g>

</svg>
