<?xml version="1.0" standalone="no"?>
<!DOCTYPE svg PUBLIC "-//W3C//DTD SVG 1.1//EN" "http://www.w3.org/Graphics/SVG/1.1/DTD/svg11.dtd" >
<svg xmlns="http://www.w3.org/2000/svg" xmlns:xlink="http://www.w3.org/1999/xlink" version="1.1" viewBox="-10 0 483 1000">
  <g transform="matrix(1 0 0 -1 0 800)">
   <path fill="currentColor"
d="M49 -3q-6 0 -9 3.5t-3 7.5q0 3 2.5 8t11.5 7q23 7 32 13t9 25v294q0 20 -9.5 31t-40.5 15q-6 1 -9 4.5t-3 9.5q0 5 4 8t7 3q16 0 38.5 -0.5t45 -1.5t36.5 -1t37.5 0.5l47 1t37.5 0.5q5 0 7.5 -2.5t2.5 -8.5q0 -7 -3.5 -9t-8.5 -4q-31 -10 -37.5 -19.5t-6.5 -29.5v-276
q0 -17 9 -23.5t23 -6.5h46q25 0 43 11.5t33.5 31t29.5 42.5q4 6 8 9.5t10 3.5q9 0 12.5 -7.5t3.5 -18.5q0 -7 -5.5 -26t-11.5 -41.5t-9 -40.5q-1 -5 -3.5 -9t-9.5 -4q-3 0 -29.5 0.5t-66 1t-82.5 1t-79 0.5q-21 0 -51.5 -1.5t-58.5 -1.5z" />
  </g>

</svg>
