<?xml version="1.0" standalone="no"?>
<!DOCTYPE svg PUBLIC "-//W3C//DTD SVG 1.1//EN" "http://www.w3.org/Graphics/SVG/1.1/DTD/svg11.dtd" >
<svg xmlns="http://www.w3.org/2000/svg" xmlns:xlink="http://www.w3.org/1999/xlink" version="1.1" viewBox="-10 0 784 1000">
  <g transform="matrix(1 0 0 -1 0 800)">
   <path fill="currentColor"
d="M300 -10q-68 0 -127 28.5t-95 79.5t-36 119q0 47 17 90t50.5 77t83 54t113.5 20q17 0 35.5 -2t37.5 -5q11 -1 20.5 -1.5t14.5 -0.5q39 0 84.5 0.5t86.5 1t69 1t32 0.5q7 0 14.5 -4.5t7.5 -16.5q0 -13 4 -33.5t7.5 -41.5t3.5 -36q0 -7 -2.5 -12t-7.5 -5q-4 0 -10 4t-10 12
q-17 38 -31 56.5t-51 18.5h-45q-16 0 -26 -9t-10 -29v-84q0 -12 6 -15t17 -3h40q17 0 27.5 10t20.5 38q4 10 8 11.5t9 1.5q4 0 7 -4.5t1 -15.5q-2 -23 -3 -38.5t-1 -33.5q0 -17 0.5 -29t2.5 -37q2 -15 -0.5 -20.5t-6.5 -5.5t-10 4t-9 14q-7 27 -15 39t-25 12h-58
q-6 0 -8.5 -5.5t-2.5 -9.5v-105q0 -13 6.5 -19.5t22.5 -6.5h60q32 0 59 24t37 58q2 8 7.5 11.5t9.5 3.5q5 0 8.5 -5.5t3.5 -12.5q0 -26 -7.5 -52t-17.5 -61q-3 -11 -10 -16.5t-18 -5.5h-31t-61 0.5t-76 0.5h-78q-11 0 -29.5 -0.5t-37.5 -0.5q-40 -8 -78 -8zM306 38
q17 0 31.5 9.5t24.5 25.5v290q0 10 -2.5 16.5t-7.5 9.5q-11 10 -23.5 15t-29.5 5q-27 0 -45.5 -21.5t-27.5 -60t-9 -91.5q0 -58 10.5 -103t30.5 -70t48 -25z" />
  </g>

</svg>
