<?xml version="1.0" standalone="no"?>
<!DOCTYPE svg PUBLIC "-//W3C//DTD SVG 1.1//EN" "http://www.w3.org/Graphics/SVG/1.1/DTD/svg11.dtd" >
<svg xmlns="http://www.w3.org/2000/svg" xmlns:xlink="http://www.w3.org/1999/xlink" version="1.1" viewBox="-10 0 592 1000">
  <g transform="matrix(1 0 0 -1 0 800)">
   <path fill="currentColor"
d="M31 -1q-4 0 -9 4t-5 9q0 8 4.5 12t8.5 5q23 4 29 11t6 26v315q0 20 -6.5 28t-31.5 15q-5 2 -8.5 5.5t-3.5 10.5q0 5 4.5 9t8.5 4q14 0 37 -1l46 -2t37 -1h287q14 0 36.5 1l45 2t36.5 1q5 0 9.5 -4t4.5 -9q0 -7 -4 -11t-10 -6q-22 -7 -28 -14.5t-6 -27.5v-315
q0 -19 7 -25.5t24 -11.5q5 -1 9 -5t4 -12q0 -6 -4 -9.5t-9 -3.5q-11 0 -33 1t-45 1.5t-37 0.5q-12 0 -35 -0.5t-45.5 -1t-36.5 -0.5q-3 0 -7 3.5t-4 9.5q0 8 5 12t8 5q20 7 26.5 11t6 10t-0.5 17v303q0 8 -3 12.5t-11 4.5h-89q-8 0 -12.5 -4.5t-4.5 -10.5v-306q0 -17 3 -23
t30 -15q5 -1 9.5 -4.5t4.5 -11.5q0 -6 -4 -9.5t-7 -3.5q-13 0 -37.5 0.5l-49 1t-37.5 0.5t-36 -0.5t-44.5 -1.5t-32.5 -1z" />
  </g>

</svg>
