<?xml version="1.0" standalone="no"?>
<!DOCTYPE svg PUBLIC "-//W3C//DTD SVG 1.1//EN" "http://www.w3.org/Graphics/SVG/1.1/DTD/svg11.dtd" >
<svg xmlns="http://www.w3.org/2000/svg" xmlns:xlink="http://www.w3.org/1999/xlink" version="1.1" viewBox="-10 0 808 1000">
  <g transform="matrix(1 0 0 -1 0 800)">
   <path fill="currentColor"
d="M651 -229q-52 0 -105 17t-101.5 44t-86.5 56.5t-61 54.5q-6 8 -23 21.5t-35 27.5t-30 20q-42 15 -73.5 36t-52.5 47t-31 57t-10 65q0 63 31.5 118t93.5 89t152 34q54 0 103 -16t86.5 -46.5t59.5 -72t22 -92.5q0 -32 -10 -63t-29.5 -58.5t-47 -50.5t-63.5 -38
q-1 -2 -1 -5.5t4 -7.5q22 -24 56 -54.5t72.5 -58.5t73 -46.5t58.5 -18.5q19 0 30.5 3t21.5 3q15 0 24 -5.5t9 -14.5q0 -10 -5.5 -16t-14.5 -11q-18 -10 -46 -14t-71 -4zM319 36q32 0 53 22t32 61.5t11 92.5q0 59 -12 104t-35 70.5t-57 25.5q-31 0 -52 -22t-31.5 -61
t-10.5 -92q0 -59 12 -104.5t35 -71t55 -25.5z" />
  </g>

</svg>
