<?xml version="1.0" standalone="no"?>
<!DOCTYPE svg PUBLIC "-//W3C//DTD SVG 1.1//EN" "http://www.w3.org/Graphics/SVG/1.1/DTD/svg11.dtd" >
<svg xmlns="http://www.w3.org/2000/svg" xmlns:xlink="http://www.w3.org/1999/xlink" version="1.1" viewBox="-10 0 510 1000">
  <g transform="matrix(1 0 0 -1 0 800)">
   <path fill="currentColor"
d="M222 -14q-43 0 -84 9.5t-77 31.5q-7 5 -13.5 11.5t-9.5 13.5q-11 29 -15 69.5t-2 84.5q0 7 5.5 10t13.5 3q11 0 14.5 -3t7.5 -10q23 -74 67.5 -123t105.5 -49q31 0 50.5 14.5t29 36t9.5 41.5q0 30 -12 51t-37 39t-65 39q-42 23 -81.5 50t-64.5 66t-25 98q0 60 32.5 103.5
t87 67.5t119.5 24q38 0 74.5 -8t58.5 -17q13 -5 18 -10.5t10 -22.5q5 -21 7.5 -51.5t2.5 -69.5q0 -13 -19 -13q-8 0 -15.5 4.5t-9.5 11.5q-16 62 -50 93.5t-83 31.5q-31 0 -50.5 -10t-29 -28.5t-9.5 -46.5q0 -22 16 -42t46.5 -40.5t71.5 -45.5q58 -34 90 -66t45 -66.5
t13 -78.5q0 -71 -30.5 -116t-85 -66t-127.5 -21zM223 681q-13 3 -13 10t12 22q27 34 54 65t58 62q14 14 35 11q8 -1 26.5 -7.5t34 -15.5t13.5 -18q-3 -11 -20 -22q-40 -25 -86 -50t-87 -49q-9 -5 -16.5 -7t-10.5 -1z" />
  </g>

</svg>
