<?xml version="1.0" standalone="no"?>
<!DOCTYPE svg PUBLIC "-//W3C//DTD SVG 1.1//EN" "http://www.w3.org/Graphics/SVG/1.1/DTD/svg11.dtd" >
<svg xmlns="http://www.w3.org/2000/svg" xmlns:xlink="http://www.w3.org/1999/xlink" version="1.1" viewBox="-10 0 580 1000">
  <g transform="matrix(1 0 0 -1 0 800)">
   <path fill="currentColor"
d="M160 -1q-4 0 -9 3.5t-5 9.5q0 8 4.5 12t9.5 5q27 5 36 9t9 23v157q0 26 -5.5 58.5t-17.5 62.5t-31.5 49t-48.5 19q-19 0 -34.5 -3.5t-32.5 -15.5q-2 -1 -4 -1h-4q-6 0 -10 2.5t-4 12.5q0 11 6.5 19t13.5 12q9 6 35 19.5t57 13.5q44 0 74.5 -14t49.5 -34.5t28 -41.5t9 -35
q0 -4 2.5 -4t2.5 4q3 25 19 54t48.5 50t82.5 21q26 0 47 -9.5t34 -19.5t15 -13q8 -7 14 -17t6 -22q0 -20 -13 -20q-2 0 -4 0.5t-4 1.5q-16 13 -32.5 26.5t-38.5 13.5q-27 0 -45 -17t-28.5 -44.5t-15 -58.5t-4.5 -58v-167q0 -16 9 -22t34 -11q3 -1 8.5 -4.5t5.5 -11.5
q0 -6 -3.5 -9.5t-8.5 -3.5q-13 0 -40 0.5t-53.5 1t-40.5 0.5q-12 0 -36 -0.5t-48 -1.5t-39 -1z" />
  </g>

</svg>
