<?xml version="1.0" standalone="no"?>
<!DOCTYPE svg PUBLIC "-//W3C//DTD SVG 1.1//EN" "http://www.w3.org/Graphics/SVG/1.1/DTD/svg11.dtd" >
<svg xmlns="http://www.w3.org/2000/svg" xmlns:xlink="http://www.w3.org/1999/xlink" version="1.1" viewBox="-10 0 548 1000">
  <g transform="matrix(1 0 0 -1 0 800)">
   <path fill="currentColor"
d="M152 8q-10 0 -15 4.5t-5 8.5q0 7 6.5 11t13.5 5q28 5 36 17t8 30v66q0 31 -6 46t-20 35l-104 153q-10 15 -18 19.5t-23 9.5q-5 2 -11 4t-6 9q0 11 15 11q41 0 70 -2.5t64 -2.5q28 0 53 3.5t58 3.5q18 0 18 -11q0 -7 -6.5 -10.5t-11.5 -4.5q-25 -6 -36 -12t-11 -20
q0 -12 8 -23l61 -97q3 -5 5.5 -7t5.5 -2q4 0 6.5 3t4.5 7q12 21 19.5 31.5t16 22t21.5 34.5q15 26 9 44.5t-39 18.5q-7 0 -14 3.5t-7 10.5q0 11 21 11q24 0 44.5 -1t42.5 -1q23 0 39 2.5t41 2.5q8 0 15 -2t7 -10q0 -7 -5.5 -10t-13.5 -5q-23 -6 -36 -14t-18 -14
q-13 -19 -31.5 -48t-35.5 -57.5t-29 -45.5q-10 -14 -14 -29t-4 -36v-85q0 -26 8 -32.5t36 -15.5q7 -2 13.5 -4.5t6.5 -10.5q0 -13 -18 -13q-13 0 -37 1.5l-48 3t-37 1.5t-34 -1.5t-42.5 -3.5t-36.5 -2z" />
  </g>

</svg>
