<?xml version="1.0" standalone="no"?>
<!DOCTYPE svg PUBLIC "-//W3C//DTD SVG 1.1//EN" "http://www.w3.org/Graphics/SVG/1.1/DTD/svg11.dtd" >
<svg xmlns="http://www.w3.org/2000/svg" xmlns:xlink="http://www.w3.org/1999/xlink" version="1.1" viewBox="-10 0 762 1000">
  <g transform="matrix(1 0 0 -1 0 800)">
   <path fill="currentColor"
d="M26 -3q-8 0 -14.5 2.5t-6.5 11.5q0 8 5.5 10.5t9.5 3.5q23 4 36.5 13.5t20.5 23.5l203 318q16 25 0 29l-55 13q-16 4 -16 17q0 7 5 10.5t12 3.5q10 0 27.5 -1t34.5 -2t25 -1q31 0 74.5 0.5t90.5 1t88 0.5t68 0.5t30 0.5q7 0 14.5 -4.5t7.5 -16.5q0 -19 7.5 -47t7.5 -50
q0 -7 -2.5 -12t-7.5 -5q-4 0 -10 4t-10 12q-17 38 -31 56.5t-51 18.5h-45q-16 0 -26 -9t-10 -29v-103q0 -12 6 -15t17 -3h40q17 0 27.5 12.5t20.5 40.5q4 10 8 11.5t9 1.5q4 0 7 -4.5t1 -15.5q-2 -23 -3 -38.5t-1 -33.5q0 -17 0.5 -26.5t2.5 -34.5q2 -15 -0.5 -20.5
t-6.5 -5.5t-10 4t-9 14q-7 27 -15 39t-25 12h-58q-6 0 -8.5 -5.5t-2.5 -9.5v-120q0 -26 29 -26h60q32 0 59 25t37 59q2 8 7.5 11.5t9.5 3.5q5 0 8.5 -5.5t3.5 -12.5q0 -26 -7.5 -48t-17.5 -57q-3 -11 -10 -16.5t-18 -5.5h-31t-61 0.5t-76 0.5h-78q-14 0 -37 -0.5t-45 -1
t-34 -0.5q-15 0 -15 13q0 8 5.5 13t12.5 7q18 5 24 11t6 24v40v40q0 7 -4 9.5t-11 2.5h-104q-7 0 -10.5 -3t-6.5 -8q-10 -18 -21 -36l-22 -36q-10 -16 -1.5 -28.5t48.5 -18.5q18 -3 18 -16t-18 -13q-34 0 -56.5 1.5t-45.5 1.5q-20 0 -36.5 -2t-43.5 -2zM257 205h72q7 0 9 4
t2 10v153q-1 3 -2.5 3.5t-3.5 -3.5l-87 -153q-5 -8 -1 -11t11 -3z" />
  </g>

</svg>
