<?xml version="1.0" standalone="no"?>
<!DOCTYPE svg PUBLIC "-//W3C//DTD SVG 1.1//EN" "http://www.w3.org/Graphics/SVG/1.1/DTD/svg11.dtd" >
<svg xmlns="http://www.w3.org/2000/svg" xmlns:xlink="http://www.w3.org/1999/xlink" version="1.1" viewBox="-10 0 621 1000">
  <g transform="matrix(1 0 0 -1 0 800)">
   <path fill="currentColor"
d="M312 -4q-10 0 -14.5 4.5t-4.5 10.5q0 8 4.5 12t14.5 5q29 5 38.5 17t2.5 34l-12 40q-1 6 -4.5 9t-10.5 3h-130q-7 0 -9 -3.5t-4 -7.5q-6 -13 -10 -24l-8 -22q-6 -18 0.5 -29.5t46.5 -17.5q10 -1 14 -4.5t4 -11.5q0 -5 -4.5 -9t-13.5 -4q-22 0 -38 1t-29 1.5t-29 0.5
q-13 0 -24.5 -1t-24.5 -2t-31 -1q-8 0 -14.5 2.5t-6.5 11.5q0 8 5.5 10.5t9.5 3.5q15 3 26 8t19 12.5t12 16.5l117 280q11 26 11 43.5t6 20.5q12 6 37 17t48.5 21.5t31.5 14.5q17 8 27.5 11.5t16.5 3.5t10.5 -9t8.5 -21l132 -387q5 -13 14.5 -20t30.5 -10q6 -1 12 -3t6 -11
q0 -6 -4 -9.5t-12 -3.5q-28 0 -66.5 1t-63.5 1q-15 0 -39.5 -1.5t-51 -3t-47.5 -1.5zM218 179h89q7 0 9.5 3.5t0.5 10.5q-5 17 -11.5 35t-13.5 37t-13 39t-11 39q-1 3 -2.5 3.5t-3.5 -3.5q-14 -36 -27 -74t-27 -76v-10t10 -4zM286 540q-9 0 -11 4t-2 11q0 8 4.5 35.5
t11.5 62.5t14.5 66t14.5 46q5 12 15.5 18t19.5 5q20 -1 38.5 -17.5t16.5 -30.5q0 -4 -10 -25.5t-24.5 -49.5t-29 -55t-24.5 -42q-6 -9 -15.5 -18.5t-18.5 -9.5z" />
  </g>

</svg>
