<?xml version="1.0" standalone="no"?>
<!DOCTYPE svg PUBLIC "-//W3C//DTD SVG 1.1//EN" "http://www.w3.org/Graphics/SVG/1.1/DTD/svg11.dtd" >
<svg xmlns="http://www.w3.org/2000/svg" xmlns:xlink="http://www.w3.org/1999/xlink" version="1.1" viewBox="-10 0 557 1000">
  <g transform="matrix(1 0 0 -1 0 800)">
   <path fill="currentColor"
d="M143 -154q-24 0 -50.5 9.5t-44.5 29.5t-18 51q0 32 25.5 67t73.5 57l13 6l-4 4q-10 10 -27 29t-17 46q0 32 34 55t90 23q44 0 74 -18t30 -47t-17.5 -45t-49.5 -27l-16 -5l13 -13q16 -13 32 -29.5t32 -30.5l12 -12l9 7q18 14 28 27t10 25q0 10 -6 14t-13 7q-6 2 -10 4.5
t-4 8.5q0 7 6 8.5t14 1.5q14 0 30.5 -3t34.5 -3q21 0 46.5 7.5t42.5 7.5q5 0 8 -3t3 -5q0 -15 -23 -20q-22 -4 -36.5 -14t-25.5 -21q-12 -12 -25 -23t-25.5 -22t-26.5 -23l-11 -11l8 -9q20 -22 37.5 -39.5t35.5 -17.5q11 0 22.5 4t27.5 11q4 2 8 3t8 1q6 0 9.5 -3.5
t3.5 -11.5q0 -10 -14 -23.5t-39 -23.5t-58 -10q-39 0 -62 12.5t-48 37.5l-8 8l-3 -3q-29 -31 -66.5 -43.5t-72.5 -12.5zM198 -90q12 0 27 4t28 14l5 4l-7 8q-22 25 -43 49t-43 47l-8 10l-11 -8q-11 -7 -17 -19t-6 -29q0 -38 20.5 -59t54.5 -21zM222 101l7 6q7 6 11 19.5
t4 28.5q0 17 -6 31t-23 14q-10 0 -18.5 -9t-8.5 -23q0 -26 10 -40t15 -19z" />
  </g>

</svg>
