<?xml version="1.0" standalone="no"?>
<!DOCTYPE svg PUBLIC "-//W3C//DTD SVG 1.1//EN" "http://www.w3.org/Graphics/SVG/1.1/DTD/svg11.dtd" >
<svg xmlns="http://www.w3.org/2000/svg" xmlns:xlink="http://www.w3.org/1999/xlink" version="1.1" viewBox="-10 0 690 1000">
  <g transform="matrix(1 0 0 -1 0 800)">
   <path fill="currentColor"
d="M176 -16q-32 0 -66 12t-57 37t-23 63q0 28 12 54.5t38 49.5t67 39l18 7l-7 6q-18 15 -30 30t-17.5 30.5t-5.5 29.5q0 30 20.5 55t58.5 39.5t88 14.5q57 0 94.5 -22.5t37.5 -58.5q0 -35 -20.5 -54t-61.5 -33l-20 -7l122 -112l11 9q23 19 32 38t9 33q0 12 -8 17.5t-17 8.5
q-7 3 -12 5.5t-5 9.5q0 8 7.5 10t17.5 2q12 0 25.5 -1.5t28 -3t30.5 -1.5q26 0 58.5 8.5t54.5 8.5q8 0 11 -3.5t3 -6.5q0 -7 -7.5 -13.5t-21.5 -8.5q-27 -5 -46 -17.5t-33 -25.5q-11 -10 -22.5 -19.5t-22.5 -18.5t-22.5 -18.5t-23 -18.5t-23.5 -19l14 -14q26 -26 46 -43.5
t43 -17.5q14 0 31.5 2t34.5 8l10 4t9 2q16 0 16 -18q0 -11 -17.5 -29.5t-49.5 -33t-74 -14.5q-49 0 -84 11t-68 42l-17 16l-4 -4q-25 -25 -50.5 -39.5t-53 -20.5t-58.5 -6zM233 61q14 0 36 -0.5t37 14.5l5 5l-12 13q-25 26 -54 58.5t-54 58.5l-9 9l-12 -7q-13 -7 -17 -26.5
t-4 -37.5q0 -28 10.5 -47t29.5 -29.5t44 -10.5zM280 303l9 8q10 8 15.5 22.5t5.5 29.5q0 23 -11 41t-32 18q-18 0 -26.5 -11.5t-9.5 -26.5q0 -11 3.5 -23t11.5 -23t18 -21z" />
  </g>

</svg>
