<?xml version="1.0" standalone="no"?>
<!DOCTYPE svg PUBLIC "-//W3C//DTD SVG 1.1//EN" "http://www.w3.org/Graphics/SVG/1.1/DTD/svg11.dtd" >
<svg xmlns="http://www.w3.org/2000/svg" xmlns:xlink="http://www.w3.org/1999/xlink" version="1.1" viewBox="-10 0 1023 1000">
  <g transform="matrix(1 0 0 -1 0 800)">
   <path fill="currentColor"
d="M695 95q-7 0 -7 12q0 4 2 8l4 8q27 41 44 65.5t30 41.5t25 32h-741q-7 0 -12 5t-5 9q0 6 3 17.5t9.5 20.5t16.5 9h736q-17 17 -31.5 34.5t-31.5 45t-43 72.5q-6 12 -6 20t7 8q11 0 21.5 -8.5t14.5 -12.5q31 -28 54 -47.5t45.5 -36t53 -35.5t76.5 -47q23 -10 23 -23
q0 -8 -4.5 -12.5t-14.5 -10.5q-43 -21 -73.5 -37t-55 -32.5t-49 -36t-55.5 -48.5q-4 -4 -14.5 -12.5t-21.5 -8.5z" />
  </g>

</svg>
