<?xml version="1.0" standalone="no"?>
<!DOCTYPE svg PUBLIC "-//W3C//DTD SVG 1.1//EN" "http://www.w3.org/Graphics/SVG/1.1/DTD/svg11.dtd" >
<svg xmlns="http://www.w3.org/2000/svg" xmlns:xlink="http://www.w3.org/1999/xlink" version="1.1" viewBox="-10 0 580 1000">
  <g transform="matrix(1 0 0 -1 0 800)">
   <path fill="currentColor"
d="M54 -3q-10 0 -14 4t-4 10q0 5 3.5 10.5t13.5 7.5q18 4 23.5 11.5t5.5 25.5v315q0 20 -5 25t-31 15q-7 3 -11.5 8.5t-4.5 9.5q0 5 5.5 9.5t14.5 4.5q27 0 44.5 -2.5t33.5 -4.5t38 -2q30 0 59 4.5t75 4.5q103 0 154 -23t51 -79q0 -44 -28.5 -69.5t-72.5 -31.5q-3 -1 -3 -4
t3 -3q29 -3 58 -15.5t48.5 -36.5t19.5 -63q0 -52 -29 -80.5t-81 -39.5t-121 -11q-26 0 -49.5 1t-45.5 1.5t-44 0.5q-13 0 -34 -0.5t-41 -1.5t-31 -1zM290 47q33 0 49 21.5t16 58.5q0 16 -5 35t-20.5 32.5t-45.5 13.5q-1 0 -10 -0.5t-17 -4.5t-8 -15v-103q0 -14 12.5 -26
t28.5 -12zM283 252q29 0 43.5 12t20 29.5t5.5 35.5q0 36 -8.5 53.5t-23 23t-32.5 5.5q-12 0 -25.5 -6.5t-13.5 -20.5v-109q0 -7 10.5 -15t23.5 -8z" />
  </g>

</svg>
