<?xml version="1.0" standalone="no"?>
<!DOCTYPE svg PUBLIC "-//W3C//DTD SVG 1.1//EN" "http://www.w3.org/Graphics/SVG/1.1/DTD/svg11.dtd" >
<svg xmlns="http://www.w3.org/2000/svg" xmlns:xlink="http://www.w3.org/1999/xlink" version="1.1" viewBox="-10 0 385 1000">
  <g transform="matrix(1 0 0 -1 0 800)">
   <path fill="currentColor"
d="M40 -121q58 0 105 10t73 31t22 55q-3 27 -14 62t-11 65q0 19 7 29t25 17.5t51 16.5q11 3 21.5 10t10.5 15t-9.5 15.5t-22.5 11.5q-19 7 -36.5 11.5t-29.5 16t-12 36.5q0 30 9.5 56.5t12.5 53.5q4 34 -23.5 59t-74.5 39t-102 14q-17 0 -24.5 -6t-7.5 -17q0 -7 15 -12.5
t27 -7.5q34 -7 50 -15.5t21 -20t5 -29.5q0 -11 -6 -30.5t-12 -39.5t-6 -36q0 -38 31.5 -68t108.5 -29q4 0 2 -0.5t-4 -1.5q-51 -8 -82.5 -23t-46 -35t-14.5 -45q0 -15 6.5 -35.5t13.5 -39.5t7 -30q0 -34 -16.5 -45.5t-61.5 -17.5q-12 -1 -23.5 -7.5t-11.5 -14.5
q0 -7 8 -12.5t19 -5.5z" />
  </g>

</svg>
