<?xml version="1.0" standalone="no"?>
<!DOCTYPE svg PUBLIC "-//W3C//DTD SVG 1.1//EN" "http://www.w3.org/Graphics/SVG/1.1/DTD/svg11.dtd" >
<svg xmlns="http://www.w3.org/2000/svg" xmlns:xlink="http://www.w3.org/1999/xlink" version="1.1" viewBox="-10 0 581 1000">
  <g transform="matrix(1 0 0 -1 0 800)">
   <path fill="currentColor"
d="M284 15q-70 0 -128 34.5t-92 93t-34 128.5t34.5 128.5t92.5 93t128 34.5q71 0 129 -34.5t92.5 -93t34.5 -128.5t-35 -128.5t-93 -93t-129 -34.5zM296 117q-48 0 -84.5 18.5t-57 52t-20.5 78.5q0 41 19.5 76.5t58 57t96.5 21.5q23 0 46.5 -4.5t39.5 -13.5q5 -2 7.5 -5
t3.5 -8q2 -20 2.5 -33.5t0.5 -29.5q0 -9 -5 -13.5t-11 -3.5q-11 0 -15 13q-3 9 -6 17t-9 15q-8 9 -19.5 18.5t-32.5 9.5q-41 0 -62 -33.5t-21 -75.5q0 -36 7 -62.5t24.5 -41.5t46.5 -15q56 0 79 56q3 8 6.5 10.5t8.5 0.5q12 -3 12 -17q0 -17 -2.5 -29t-6.5 -30
q-2 -5 -5.5 -5.5t-7.5 -3.5q-17 -8 -40.5 -14t-52.5 -6zM284 63q58 0 104 28.5t73.5 75.5t27.5 104q0 56 -27.5 102t-73.5 73.5t-103 27.5q-56 0 -102 -27.5t-73.5 -73.5t-27.5 -102t27 -103.5t73 -76t102 -28.5z" />
  </g>

</svg>
