<?xml version="1.0" standalone="no"?>
<!DOCTYPE svg PUBLIC "-//W3C//DTD SVG 1.1//EN" "http://www.w3.org/Graphics/SVG/1.1/DTD/svg11.dtd" >
<svg xmlns="http://www.w3.org/2000/svg" xmlns:xlink="http://www.w3.org/1999/xlink" version="1.1" viewBox="-10 0 390 1000">
  <g transform="matrix(1 0 0 -1 0 800)">
   <path fill="currentColor"
d="M192 316q-14 0 -16.5 11.5t-4.5 21.5q0 31 -3.5 75t-8.5 87t-10 69q-1 9 -8 19.5t-7 11.5q0 12 8.5 17.5t17 13.5t8.5 25q0 6 -3 8.5t-14 2.5q-18 0 -27.5 -6t-19.5 -11.5t-32 -5.5t-32 11.5t-10 27.5q0 17 11.5 28t30.5 11q24 0 34.5 -5.5t21.5 -11.5t34 -6q4 0 8 1t4 4
q0 22 -6.5 34.5t-13 24.5t-6.5 32q0 16 12.5 26t31.5 10t31.5 -9t12.5 -27q0 -19 -6.5 -31t-13 -24.5t-6.5 -32.5q0 -8 9 -8q25 0 36 6t21.5 11.5t32.5 5.5q17 0 29 -11.5t12 -27.5t-10 -27.5t-32 -11.5q-21 0 -31.5 5.5t-19.5 11.5t-27 6q-7 0 -11.5 -2t-4.5 -7
q0 -17 8 -25t16.5 -14.5t8.5 -17.5q0 -1 -5.5 -13t-7.5 -23q-5 -25 -10.5 -66.5t-9 -85t-3.5 -74.5q0 -10 -3 -22t-16 -12z" />
  </g>

</svg>
