<?xml version="1.0" standalone="no"?>
<!DOCTYPE svg PUBLIC "-//W3C//DTD SVG 1.1//EN" "http://www.w3.org/Graphics/SVG/1.1/DTD/svg11.dtd" >
<svg xmlns="http://www.w3.org/2000/svg" xmlns:xlink="http://www.w3.org/1999/xlink" version="1.1" viewBox="-10 0 369 1000">
  <g transform="matrix(1 0 0 -1 0 800)">
   <path fill="currentColor"
d="M181 376q-46 0 -81.5 22.5t-55 58t-19.5 74.5q0 40 19.5 72.5t55 52t81.5 19.5t80 -19.5t53.5 -52t19.5 -72.5q0 -39 -19.5 -74.5t-53.5 -58t-80 -22.5zM180 436q34 0 58.5 25t24.5 64t-24.5 63.5t-58.5 24.5q-35 0 -59.5 -24.5t-24.5 -63.5t24.5 -64t59.5 -25z" />
  </g>

</svg>
