<?xml version="1.0" standalone="no"?>
<!DOCTYPE svg PUBLIC "-//W3C//DTD SVG 1.1//EN" "http://www.w3.org/Graphics/SVG/1.1/DTD/svg11.dtd" >
<svg xmlns="http://www.w3.org/2000/svg" xmlns:xlink="http://www.w3.org/1999/xlink" version="1.1" viewBox="-10 0 504 1000">
  <g transform="matrix(1 0 0 -1 0 800)">
   <path fill="currentColor"
d="M49 -3q-8 0 -11.5 5.5t-3.5 11.5q0 8 5.5 13t12.5 7q18 5 24 11t6 24v306q0 20 -6 28.5t-30 14.5q-8 2 -12 6.5t-4 11.5t5 12t12 5q10 0 27.5 -1t34.5 -2t25 -1q39 0 84.5 0.5t86.5 1t69 1t32 0.5q7 0 14.5 -4.5t7.5 -16.5q0 -19 7.5 -46.5t7.5 -49.5q0 -7 -2.5 -12
t-7.5 -5q-4 0 -10 4t-10 12q-17 38 -31 56.5t-51 18.5h-45q-16 0 -26 -9t-10 -29v-104q0 -12 6 -15t17 -3h40q17 0 27.5 10t20.5 38q4 10 8 11.5t9 1.5q4 0 7 -4.5t1 -15.5q-3 -23 -3.5 -36t-0.5 -31q0 -17 0.5 -26.5t2.5 -34.5q2 -15 -0.5 -20.5t-6.5 -5.5t-10 4t-9 14
q-7 27 -15 39t-25 12h-29h-29q-6 0 -8.5 -5.5t-2.5 -9.5v-120q0 -13 6.5 -19.5t22.5 -6.5h60q32 0 59 24t37 58q2 8 7.5 11.5t9.5 3.5q5 0 8.5 -5.5t3.5 -12.5q0 -26 -7.5 -47t-17.5 -56q-3 -11 -10 -16.5t-18 -5.5h-31t-61 0.5t-76 0.5h-78q-14 0 -37 -0.5t-45 -1t-34 -0.5
zM200 515q-11 0 -11 13q0 4 1 9.5t4 12.5l20 47.5t24 56t19 42.5q8 17 19 22t30 5q25 0 43 -6t18 -19q0 -5 -2 -11.5t-8 -13.5q-21 -23 -42.5 -47.5t-43.5 -48.5t-45 -47q-15 -15 -26 -15z" />
  </g>

</svg>
