<?xml version="1.0" standalone="no"?>
<!DOCTYPE svg PUBLIC "-//W3C//DTD SVG 1.1//EN" "http://www.w3.org/Graphics/SVG/1.1/DTD/svg11.dtd" >
<svg xmlns="http://www.w3.org/2000/svg" xmlns:xlink="http://www.w3.org/1999/xlink" version="1.1" viewBox="-10 0 433 1000">
  <g transform="matrix(1 0 0 -1 0 800)">
   <path fill="currentColor"
d="M260 -287q-49 0 -76.5 30.5t-27.5 77.5q0 32 13 63t36.5 58.5t53.5 50.5q-11 -4 -23 -5.5t-25 -1.5q-48 0 -91.5 26t-71 75.5t-27.5 117.5q0 61 29 114t78.5 85.5t110.5 32.5q77 0 119 -37.5t42 -95.5q0 -24 -8.5 -36t-29.5 -12h-191q-13 0 -20 -7t-7 -28
q0 -31 16.5 -53.5t45 -34.5t62.5 -12t59.5 12.5t44.5 34.5q3 3 6.5 5t7.5 2q11 0 11 -13q0 -5 -2 -12.5t-4 -14.5q-9 -29 -24 -56t-32 -53q-19 -30 -37 -58.5t-30 -56.5t-12 -56q0 -27 13.5 -40t37.5 -13q14 0 26 7t26 19q6 6 15.5 6t9.5 -18q0 -25 -15.5 -48.5t-43.5 -39
t-65 -15.5zM180 300h44q19 0 32 0.5t24 4.5q4 2 7.5 10t3.5 20q0 22 -13 40.5t-46 18.5q-19 0 -34.5 -10t-25 -27.5t-9.5 -39.5q0 -17 17 -17z" />
  </g>

</svg>
