<?xml version="1.0" standalone="no"?>
<!DOCTYPE svg PUBLIC "-//W3C//DTD SVG 1.1//EN" "http://www.w3.org/Graphics/SVG/1.1/DTD/svg11.dtd" >
<svg xmlns="http://www.w3.org/2000/svg" xmlns:xlink="http://www.w3.org/1999/xlink" version="1.1" viewBox="-10 0 653 1000">
  <g transform="matrix(1 0 0 -1 0 800)">
   <path fill="currentColor"
d="M61 316q-7 0 -11.5 4.5t-4.5 8.5q0 6 2.5 17t9 19.5t16.5 8.5h502q10 0 16.5 -4.5t6.5 -11.5q0 -12 -9.5 -27t-22.5 -15h-505zM61 133q-7 0 -11.5 4.5t-4.5 8.5q0 6 2.5 17t9 19.5t16.5 8.5h502q10 0 16.5 -4.5t6.5 -11.5q0 -12 -9.5 -27t-22.5 -15h-505z" />
  </g>

</svg>
