<?xml version="1.0" standalone="no"?>
<!DOCTYPE svg PUBLIC "-//W3C//DTD SVG 1.1//EN" "http://www.w3.org/Graphics/SVG/1.1/DTD/svg11.dtd" >
<svg xmlns="http://www.w3.org/2000/svg" xmlns:xlink="http://www.w3.org/1999/xlink" version="1.1" viewBox="-10 0 921 1000">
  <g transform="matrix(1 0 0 -1 0 800)">
   <path fill="currentColor"
d="M40 -3q-6 0 -13 4t-7 11q0 8 7.5 13t15.5 8q10 3 18.5 6.5t13.5 11t5 20.5v285q-10 0 -23 0.5t-29 1.5q-6 1 -10 12.5t-4 19.5q0 7 10 10q12 5 27 10t29 13q5 80 31 134t64 87t81 47.5t82 14.5q34 0 57.5 -5.5t39.5 -16.5q12 -7 22 -5.5t20 5.5l30 10.5t20 7.5q9 3 14 3
q7 0 9 -4t2 -9t-1 -14t-2 -19.5t-2 -20.5l1 -384q0 -13 9 -13q3 0 6.5 2t5.5 3q24 21 45.5 43.5t37.5 42t22 29.5q4 6 6.5 10.5t2.5 7.5q0 5 -8 10.5t-25 7.5q-6 1 -9 4.5t-3 7.5q0 9 7.5 11.5t14.5 2.5h24.5h24.5q18 0 49.5 1.5t62 4t43.5 3.5q11 0 11 -12q0 -8 -6 -13.5
t-17 -7.5q-19 -4 -37.5 -13.5t-32.5 -17.5q-6 -4 -26.5 -17t-45 -32.5t-42.5 -42.5q-8 -8 -4.5 -13t6.5 -10q24 -31 41.5 -58t36 -52.5t44.5 -55.5q17 -19 41.5 -34.5t40.5 -21.5q8 -3 17.5 -7t9.5 -12q0 -15 -22 -15q-34 0 -66 1t-62 2h-55h-51q-10 0 -15 4t-5 11
q0 13 23 21q8 3 10.5 6.5t3.5 7.5q0 5 -3.5 10.5t-9.5 13.5l-91 133q-4 4 -7 1.5t-3 -7.5v-30.5v-30.5v-33v-34q0 -22 11 -27.5t26 -10.5q23 -8 23 -21q0 -15 -20 -15q-30 0 -60 1.5t-56 1.5t-52.5 -2.5t-56.5 -2.5q-20 0 -20 15q0 13 23 21q15 5 26 10.5t11 27.5v265
q0 13 -7.5 19t-23.5 6h-107q-27 0 -33.5 -8.5t-6.5 -16.5v-261q0 -20 15 -28.5t39 -13.5q19 -5 19 -21q0 -6 -5 -10.5t-11 -4.5q-30 0 -65.5 2.5t-61.5 2.5t-55.5 -2.5t-59.5 -2.5zM250 423h128q10 0 17.5 4.5t7.5 17.5v117q0 20 -3 36.5t-10 28t-19.5 17.5t-31.5 6
q-31 0 -57 -17t-41.5 -54t-15.5 -97v-37q0 -13 7.5 -17.5t17.5 -4.5z" />
  </g>

</svg>
