<?xml version="1.0" standalone="no"?>
<!DOCTYPE svg PUBLIC "-//W3C//DTD SVG 1.1//EN" "http://www.w3.org/Graphics/SVG/1.1/DTD/svg11.dtd" >
<svg xmlns="http://www.w3.org/2000/svg" xmlns:xlink="http://www.w3.org/1999/xlink" version="1.1" viewBox="-10 0 570 1000">
  <g transform="matrix(1 0 0 -1 0 800)">
   <path fill="currentColor"
d="M216 -3q-6 0 -14.5 4t-8.5 11q0 11 7.5 15.5t16.5 6.5q38 8 52 20t14 43v49q0 5 -5.5 7.5t-11.5 2.5q-29 0 -70 -2t-83 -4t-76 -2q-5 0 -10.5 2t-5.5 6t6 12t10 13.5t8.5 12t9.5 13.5l243 398q9 14 22.5 25.5t25.5 11.5h6q9 0 11.5 -7.5t-2.5 -14.5l-227 -370
q-5 -9 -1.5 -12t10.5 -3h133q3 0 5 2t2 4v113q0 19 3 26t15 12q29 14 63 18t47 4q23 0 26.5 -20t3.5 -59v-100q0 -7 5 -7q13 -1 19 -1h16q16 0 27.5 0.5t29.5 1.5q12 0 12 -7q0 -8 -4 -24.5t-9.5 -30.5t-9.5 -14q-12 0 -23 0.5t-24 0.5q-10 0 -14 -0.5t-11 -1.5q-4 -1 -9 -3
t-5 -3v-48q0 -28 13 -40.5t52 -23.5q9 -3 17 -7t8 -14q0 -7 -7 -11t-15 -4q-21 0 -48.5 1t-54 2t-46.5 1t-45 -1t-51 -2.5t-48 -1.5z" />
  </g>

</svg>
