<?xml version="1.0" standalone="no"?>
<!DOCTYPE svg PUBLIC "-//W3C//DTD SVG 1.1//EN" "http://www.w3.org/Graphics/SVG/1.1/DTD/svg11.dtd" >
<svg xmlns="http://www.w3.org/2000/svg" xmlns:xlink="http://www.w3.org/1999/xlink" version="1.1" viewBox="-10 0 516 1000">
  <g transform="matrix(1 0 0 -1 0 800)">
   <path fill="currentColor"
d="M249 -51q-16 0 -16 13v121q0 5 -8 7.5t-9 2.5q-22 0 -44.5 -1t-45.5 -2t-47.5 -2t-49.5 -1q-4 0 -9 1t-5 5t4 8l278 329q20 23 36 32t29 9q9 0 13.5 -9.5t4.5 -31.5q0 -44 -0.5 -73t-1.5 -53t-1.5 -53.5t-0.5 -74.5q0 -7 5 -7q13 -1 19 -1h16q16 0 23 0.5t25 1.5
q12 0 12 -7q0 -8 -4 -23.5t-9.5 -28.5t-9.5 -13q-12 0 -18 0.5t-19 0.5q-10 0 -14 -0.5t-11 -1.5q-4 -1 -9 -3t-5 -3v-92q0 -11 -20.5 -23t-50.5 -19.5t-57 -7.5zM155 170h76q3 0 5 2t2 4v112q0 1 -1.5 1.5t-2.5 -1.5l-82 -112q-1 -2 0.5 -4t2.5 -2z" />
  </g>

</svg>
