<?xml version="1.0" standalone="no"?>
<!DOCTYPE svg PUBLIC "-//W3C//DTD SVG 1.1//EN" "http://www.w3.org/Graphics/SVG/1.1/DTD/svg11.dtd" >
<svg xmlns="http://www.w3.org/2000/svg" xmlns:xlink="http://www.w3.org/1999/xlink" version="1.1" viewBox="-10 0 404 1000">
  <g transform="matrix(1 0 0 -1 0 800)">
   <path fill="currentColor"
d="M179 -301q-46 0 -83 6t-58.5 21t-21.5 40q0 14 9 25.5t22 23.5q8 6 15.5 12.5t14.5 13.5q-20 8 -28.5 22.5t-8.5 36.5q0 11 4.5 15t12.5 11q4 3 13 13t19 21q-16 10 -29.5 22t-22 27t-8.5 34q0 34 22.5 59.5t58.5 40t75 14.5q21 0 43.5 -3.5t47.5 -8.5q26 -4 47.5 -6
t49.5 -2q5 0 7.5 -7.5t2.5 -16.5q0 -23 -10 -24h-10.5t-22 -1t-14.5 -5t-3.5 -13t-0.5 -16q0 -33 -20.5 -59.5t-54.5 -42t-76 -15.5q-13 0 -25 2t-23 6q-2 -2 -3 -5t-1 -6q0 -9 12 -15t28 -9t29 -4q80 -6 130.5 -23t50.5 -53q0 -27 -22 -57.5t-64 -52t-104 -21.5zM173 -266
q44 0 67 18t23 38q0 14 -14 20.5t-34 8.5q-13 2 -38.5 3.5t-39.5 1.5q-16 0 -25 -4t-16 -11t-9 -14t-2 -18q0 -13 22.5 -28t65.5 -15zM182 -25q45 0 45 71q0 34 -11 53t-36 19t-35.5 -21t-10.5 -49q0 -37 13 -55t35 -18z" />
  </g>

</svg>
