<?xml version="1.0" standalone="no"?>
<!DOCTYPE svg PUBLIC "-//W3C//DTD SVG 1.1//EN" "http://www.w3.org/Graphics/SVG/1.1/DTD/svg11.dtd" >
<svg xmlns="http://www.w3.org/2000/svg" xmlns:xlink="http://www.w3.org/1999/xlink" version="1.1" viewBox="-15 0 507 1000">
  <g transform="matrix(1 0 0 -1 0 800)">
   <path fill="currentColor"
d="M233 -284q-27 0 -52.5 13t-42 32.5t-16.5 40.5q0 25 10.5 57.5t25.5 65t28.5 58.5t19.5 38q8 16 12 35t4 34q0 32 -6.5 67t-21.5 66t-40 50.5t-63 19.5q-35 0 -54 -11.5t-28 -11.5q-7 0 -10.5 3.5t-3.5 14.5q0 38 17 72t47.5 55.5t68.5 21.5q39 0 64.5 -26.5t40 -69.5
t20.5 -93t6 -98q0 -4 2 -8.5t6 -4.5t6.5 2.5t6.5 12.5q18 44 36.5 96t34 101.5t25.5 82.5q2 6 11 11t16 5q21 0 38 -16t27.5 -37.5t10.5 -39.5q0 -13 -16 -45t-42.5 -76.5t-57 -96t-60.5 -103.5q-7 -12 -9.5 -23.5t-2.5 -14.5q-1 -8 -2.5 -32.5t-3 -56.5t-3.5 -63.5t-3 -55
t-1 -30.5q0 -22 -15 -32t-30 -10z" />
  </g>

</svg>
