<?xml version="1.0" standalone="no"?>
<!DOCTYPE svg PUBLIC "-//W3C//DTD SVG 1.1//EN" "http://www.w3.org/Graphics/SVG/1.1/DTD/svg11.dtd" >
<svg xmlns="http://www.w3.org/2000/svg" xmlns:xlink="http://www.w3.org/1999/xlink" version="1.1" viewBox="-10 0 547 1000">
  <g transform="matrix(1 0 0 -1 0 800)">
   <path fill="currentColor"
d="M59 465l393 -188q16 -8 33 -17t17 -15q0 -8 -11 -26.5t-29 -25.5l-403 -197q-4 -2 -7 -2q-10 0 -13.5 7.5t-3.5 16.5q0 15 10 28.5t27 21.5l328 158q4 1 4.5 4.5t-4.5 5.5l-328 157q-17 7 -27 21t-10 29q0 16 8 21t16 1z" />
  </g>

</svg>
