<?xml version="1.0" standalone="no"?>
<!DOCTYPE svg PUBLIC "-//W3C//DTD SVG 1.1//EN" "http://www.w3.org/Graphics/SVG/1.1/DTD/svg11.dtd" >
<svg xmlns="http://www.w3.org/2000/svg" xmlns:xlink="http://www.w3.org/1999/xlink" version="1.1" viewBox="-10 0 507 1000">
  <g transform="matrix(1 0 0 -1 0 800)">
   <path fill="currentColor"
d="M59 445l353 -168q16 -7 33 -16.5t17 -15.5q0 -7 -11 -26t-29 -26l-363 -177q-4 -2 -7 -2q-10 0 -13.5 7.5t-3.5 16.5q0 15 10.5 28.5t26.5 21.5l288 138q4 2 4.5 5t-4.5 5l-288 137q-16 8 -26.5 21.5t-10.5 28.5q0 16 8 21.5t16 0.5z" />
  </g>

</svg>
