<?xml version="1.0" standalone="no"?>
<!DOCTYPE svg PUBLIC "-//W3C//DTD SVG 1.1//EN" "http://www.w3.org/Graphics/SVG/1.1/DTD/svg11.dtd" >
<svg xmlns="http://www.w3.org/2000/svg" xmlns:xlink="http://www.w3.org/1999/xlink" version="1.1" viewBox="-53 0 590 1000">
  <g transform="matrix(1 0 0 -1 0 800)">
   <path fill="currentColor"
d="M89 -17q-13 0 -34 7.5t-37 20.5t-16 29q0 12 8.5 23.5t13.5 18.5q21 30 45 66.5t50.5 79.5t52.5 91.5t50 102.5q3 7 4 22t-4 29q-17 55 -42.5 82.5t-58.5 36.5t-73 9q-16 0 -29.5 -4t-24.5 -9q-8 -4 -14.5 -6.5t-10.5 -2.5q-6 0 -9 3t-3 12q0 17 9.5 37t26.5 38.5
t41 30.5t53 12q50 0 86.5 -24.5t62.5 -77.5t44 -140q17 -79 26.5 -127.5t16 -77.5t13.5 -50q14 -46 37 -65.5t63 -19.5q32 0 52 5.5t27 5.5q6 0 9 -3t3 -12q0 -18 -5 -42t-18 -46t-37.5 -37t-62.5 -15q-27 0 -49.5 22.5t-36.5 59.5q-11 31 -20.5 69t-18 80t-19.5 85
q-1 8 -5.5 9t-6.5 -6q-9 -25 -24 -64.5t-32.5 -82t-33.5 -79t-26 -57.5q-8 -18 -15 -26.5t-13.5 -10.5t-14.5 -2z" />
  </g>

</svg>
