<?xml version="1.0" standalone="no"?>
<!DOCTYPE svg PUBLIC "-//W3C//DTD SVG 1.1//EN" "http://www.w3.org/Graphics/SVG/1.1/DTD/svg11.dtd" >
<svg xmlns="http://www.w3.org/2000/svg" xmlns:xlink="http://www.w3.org/1999/xlink" version="1.1" viewBox="-10 0 572 1000">
  <g transform="matrix(1 0 0 -1 0 800)">
   <path fill="currentColor"
d="M40 -3q-6 0 -13 4t-7 11q0 8 7.5 13t15.5 8q15 5 26 11.5t11 26.5v285q-10 0 -23 0.5t-29 1.5q-6 1 -10 12.5t-4 19.5q0 7 10 10q12 5 26.5 10t29.5 13q6 80 34.5 134t70.5 87t88.5 47.5t88.5 14.5q49 0 80 -9.5t46.5 -28t15.5 -44.5q0 -33 -16 -55.5t-43 -22.5
q-16 0 -28 13.5t-25 30.5q-10 14 -22 27t-27 21.5t-36 8.5q-24 0 -42.5 -16.5t-29 -49.5t-10.5 -85v-421q0 -20 15 -28.5t39 -13.5q8 -2 13.5 -7.5t5.5 -13.5q0 -6 -5 -10.5t-11 -4.5q-20 0 -43 1.5t-44.5 2.5t-39.5 1q-17 0 -36 -1t-39 -2.5t-40 -1.5zM292 -287
q-22 0 -33.5 4.5t-11.5 12.5t5 12.5t16 9.5q16 8 29 18.5t26 36.5q10 21 16 52t9.5 66t4.5 67.5t1 55.5v236q0 36 -10.5 48.5t-32.5 15.5q-6 1 -9 6.5t-3 12.5q0 16 12 18q54 11 98 29.5t67 28.5q8 4 14 6t8 2q14 0 14 -14q-2 -28 -7.5 -70t-5.5 -79l1 -197
q0 -31 -2.5 -72.5t-10.5 -86t-27 -84.5q-15 -34 -43.5 -65t-61.5 -50.5t-63 -19.5z" />
  </g>

</svg>
