<?xml version="1.0" standalone="no"?>
<!DOCTYPE svg PUBLIC "-//W3C//DTD SVG 1.1//EN" "http://www.w3.org/Graphics/SVG/1.1/DTD/svg11.dtd" >
<svg xmlns="http://www.w3.org/2000/svg" xmlns:xlink="http://www.w3.org/1999/xlink" version="1.1" viewBox="-10 0 676 1000">
  <g transform="matrix(1 0 0 -1 0 800)">
   <path fill="currentColor"
d="M40 -3q-6 0 -13 4t-7 11q0 8 7.5 13t15.5 8q15 5 26 11.5t11 26.5v285q-10 0 -23 0.5t-29 1.5q-6 1 -10 12.5t-4 19.5q0 4 3 6.5t7 3.5q12 5 27 10t29 13q5 80 32 134t66.5 87t83.5 47.5t83 14.5q69 0 101.5 -21.5t32.5 -60.5q0 -23 -11.5 -38.5t-31.5 -15.5q-9 0 -17 9
t-18 22q-7 8 -15.5 16.5t-19.5 16t-24.5 12t-31.5 4.5q-37 0 -61 -38.5t-24 -115.5v-421q0 -20 15 -28.5t39 -13.5q8 -2 13.5 -7.5t5.5 -13.5q0 -6 -5 -10.5t-11 -4.5q-20 0 -43 1.5t-44.5 2.5t-39.5 1q-17 0 -36 -1t-39 -2.5t-40 -1.5zM468 -14q-34 0 -65.5 7.5t-58.5 25.5
q-10 16 -14 49.5t-3 72.5q0 13 21 13q9 0 15.5 -6t8.5 -11q20 -40 44 -71.5t61 -31.5q26 0 38.5 16t12.5 35q0 26 -21 43t-46 29q-28 14 -55 32.5t-45 46.5t-18 68q0 41 22.5 70.5t60.5 46t83 16.5q34 0 63.5 -7.5t40.5 -14.5q8 -10 12.5 -38.5t4.5 -64.5q0 -11 -20 -11
q-7 0 -15 5.5t-10 10.5q-13 40 -33.5 60t-44.5 20q-22 0 -39.5 -14t-17.5 -37q0 -20 20.5 -36.5t47.5 -30.5q66 -34 94 -66t28 -86q0 -67 -43 -104t-129 -37z" />
  </g>

</svg>
