<?xml version="1.0" standalone="no"?>
<!DOCTYPE svg PUBLIC "-//W3C//DTD SVG 1.1//EN" "http://www.w3.org/Graphics/SVG/1.1/DTD/svg11.dtd" >
<svg xmlns="http://www.w3.org/2000/svg" xmlns:xlink="http://www.w3.org/1999/xlink" version="1.1" viewBox="-10 0 924 1000">
  <g transform="matrix(1 0 0 -1 0 800)">
   <path fill="currentColor"
d="M40 -3q-6 0 -13 4t-7 11q0 8 7.5 13t15.5 8q15 5 26 11.5t11 26.5v285q-10 0 -23 0.5t-29 1.5q-6 1 -10 12.5t-4 19.5q0 4 3 6.5t7 3.5q12 5 27 10t29 13q5 68 32 115.5t66.5 77.5t83.5 44t83 14q69 0 107.5 -20.5t38.5 -53.5q0 -23 -17.5 -42.5t-37.5 -19.5q-9 0 -17 9
t-18 22q-14 17 -35 33t-56 16q-37 0 -61 -38.5t-24 -115.5v-389q0 -20 15 -28.5t39 -13.5q8 -2 13.5 -7.5t5.5 -13.5q0 -6 -5 -10.5t-11 -4.5q-20 0 -43 1.5t-44.5 2.5t-39.5 1q-17 0 -36 -1t-39 -2.5t-40 -1.5zM354 -3q-6 0 -13 4t-7 11q0 8 7.5 13t15.5 8q15 5 26 11.5
t11 26.5v285q-10 0 -23 0.5t-29 1.5q-6 1 -10 12.5t-4 19.5q0 7 10 10q12 5 26.5 10t29.5 13q6 80 34.5 134t70.5 87t88.5 47.5t88.5 14.5q49 0 80 -9.5t46.5 -28t15.5 -44.5q0 -33 -16 -55.5t-43 -22.5q-16 0 -28 13.5t-25 30.5q-10 14 -22 27t-27 21.5t-36 8.5
q-24 0 -42.5 -16.5t-29 -49.5t-10.5 -85v-421q0 -20 15 -28.5t39 -13.5q8 -2 13.5 -7.5t5.5 -13.5q0 -6 -5 -10.5t-11 -4.5q-20 0 -43 1.5t-44.5 2.5t-39.5 1q-17 0 -36 -1t-39 -2.5t-40 -1.5zM644 -3q-6 0 -11 4t-5 10q0 8 4.5 13t12.5 7q27 7 37.5 14t10.5 23v216
q0 36 -10.5 48.5t-32.5 15.5q-6 1 -9 6.5t-3 12.5q0 16 12 18q54 11 98 29.5t67 28.5q18 8 22 8q14 0 14 -14q-1 -19 -4.5 -44.5t-6 -52.5t-2.5 -52v-219q0 -13 10 -21t38 -17q8 -3 13 -7t5 -12q0 -14 -15 -14q-19 0 -41.5 1t-44 2t-39.5 1q-17 0 -37.5 -1t-41.5 -2.5
t-41 -1.5z" />
  </g>

</svg>
