<?xml version="1.0" standalone="no"?>
<!DOCTYPE svg PUBLIC "-//W3C//DTD SVG 1.1//EN" "http://www.w3.org/Graphics/SVG/1.1/DTD/svg11.dtd" >
<svg xmlns="http://www.w3.org/2000/svg" xmlns:xlink="http://www.w3.org/1999/xlink" version="1.1" viewBox="-10 0 584 1000">
  <g transform="matrix(1 0 0 -1 0 800)">
   <path fill="currentColor"
d="M40 -3q-6 0 -13 4t-7 11q0 8 7.5 13t15.5 8q15 5 26 11.5t11 26.5v232q0 20 -6.5 34.5t-23.5 17.5q-4 1 -7.5 5.5t-3.5 13.5q0 15 10 18q34 8 79 21.5t75 28.5q5 2 10.5 5.5t9.5 3.5q7 0 8.5 -4t1.5 -9q0 -8 -2.5 -25t-2.5 -31q0 -4 0.5 -9t1.5 -6q34 32 67.5 50.5
t79.5 18.5q53 0 89 -38t36 -106v-222q0 -20 11 -26t26 -11q8 -3 14 -8t6 -13q0 -7 -5.5 -11t-11.5 -4q-20 0 -39 1.5t-37 2.5t-36 1q-17 0 -35 -1t-36.5 -2.5t-38.5 -1.5q-6 0 -11 4t-5 11q0 8 5.5 13t13.5 8q15 5 24.5 11t9.5 26v197q0 37 -16 58t-42 21q-19 0 -34 -5.5
t-32 -17.5q-4 -3 -6 -8t-2 -10v-235q0 -20 10 -26t24 -11q19 -7 19 -21q0 -6 -5 -10.5t-11 -4.5q-20 0 -38 1.5t-34.5 2.5t-34.5 1q-17 0 -36 -1t-39 -2.5t-40 -1.5zM299 455q-10 0 -18 10.5t-21 32.5q-10 17 -20 33.5l-20 33t-19.5 33t-18.5 33.5q-10 18 -8 31.5t18 13.5
q8 0 18 -8.5t25 -25.5q11 -12 25 -28.5t33 -35.5q5 -4 6.5 -4t5.5 4q19 19 33.5 35.5t24.5 28.5q15 17 25.5 25.5t17.5 8.5q10 0 15 -13t-5 -32q-9 -17 -19 -34t-20 -33.5t-20 -33.5l-20 -34q-11 -19 -19 -30t-19 -11z" />
  </g>

</svg>
