<?xml version="1.0" standalone="no"?>
<!DOCTYPE svg PUBLIC "-//W3C//DTD SVG 1.1//EN" "http://www.w3.org/Graphics/SVG/1.1/DTD/svg11.dtd" >
<svg xmlns="http://www.w3.org/2000/svg" xmlns:xlink="http://www.w3.org/1999/xlink" version="1.1" viewBox="-10 0 657 1000">
  <g transform="matrix(1 0 0 -1 0 800)">
   <path fill="currentColor"
d="M506 -14q-26 0 -41.5 4.5t-28.5 16.5t-32 33l-235 264q-7 8 -11 12.5t-7 4.5t-4 -5.5t-1 -9.5q0 -28 1 -71t3 -84.5t3 -67.5q2 -22 16 -32t50 -19q6 -1 12 -5.5t6 -13.5q0 -6 -5 -9.5t-11 -3.5q-31 0 -45 0.5t-38 0.5q-29 0 -54 -1t-38 -1q-6 0 -10 4t-4 9q0 8 3.5 11.5
t10.5 4.5q14 3 29.5 12t16.5 29q1 15 3 38t3.5 51.5t3 61t2.5 66.5t1 68q0 23 -7.5 37t-20 22.5t-29.5 13.5q-9 3 -13.5 6t-4.5 9t5 9t16 3q6 0 27.5 -0.5t50 -1t57.5 -1t49 -0.5q11 0 16.5 -4t10.5 -10l221 -243q2 -2 5.5 -6t6.5 -4t4 3.5t1 7.5l-5 171q-1 26 -10.5 37
t-45.5 21q-5 2 -11 5.5t-6 11.5q0 6 5.5 9t10.5 3q28 0 41 -0.5t22.5 -1t25.5 -0.5q13 0 23.5 0.5t22.5 1t28 0.5q8 0 13 -4t5 -9q0 -7 -5.5 -10t-11.5 -5q-25 -4 -36 -14t-13 -34l-16 -329q0 -31 -9 -46.5t-22 -15.5z" />
  </g>

</svg>
