<?xml version="1.0" standalone="no"?>
<!DOCTYPE svg PUBLIC "-//W3C//DTD SVG 1.1//EN" "http://www.w3.org/Graphics/SVG/1.1/DTD/svg11.dtd" >
<svg xmlns="http://www.w3.org/2000/svg" xmlns:xlink="http://www.w3.org/1999/xlink" version="1.1" viewBox="-10 0 642 1000">
  <g transform="matrix(1 0 0 -1 0 800)">
   <path fill="currentColor"
d="M312 -10q-72 0 -133.5 28.5t-99 79.5t-37.5 119q0 47 18 90t53 77t86.5 54t119.5 20q54 0 103 -16t86.5 -46.5t59.5 -72t22 -92.5q0 -62 -32 -117t-93.5 -89.5t-152.5 -34.5zM319 36q24 0 42 12.5t30 35.5t18 55.5t6 72.5q0 59 -12 104t-35 70.5t-57 25.5q-31 0 -52 -22
t-31.5 -61t-10.5 -92q0 -59 12 -104.5t35 -71t55 -25.5zM271 515q-11 0 -11 13q0 4 1 9.5t4 12.5l20 47.5t24 56t19 42.5q8 17 19 22t30 5q25 0 43 -6t18 -19q0 -5 -2 -11.5t-8 -13.5q-21 -23 -42.5 -47.5t-43.5 -48.5t-45 -47q-15 -15 -26 -15z" />
  </g>

</svg>
