<?xml version="1.0" standalone="no"?>
<!DOCTYPE svg PUBLIC "-//W3C//DTD SVG 1.1//EN" "http://www.w3.org/Graphics/SVG/1.1/DTD/svg11.dtd" >
<svg xmlns="http://www.w3.org/2000/svg" xmlns:xlink="http://www.w3.org/1999/xlink" version="1.1" viewBox="-10 0 515 1000">
  <g transform="matrix(1 0 0 -1 0 800)">
   <path fill="currentColor"
d="M238 -14q-61 0 -110 27t-78 75t-29 109q0 49 18.5 92.5t51 76.5t76 52t93.5 19q63 0 113.5 -29t80.5 -77t30 -105q0 -65 -27.5 -120t-82 -87.5t-136.5 -32.5zM257 33q18 0 31 7.5t22 21.5q12 20 17 55t5 85q0 56 -11 98t-30.5 66t-45.5 24q-13 0 -24 -4.5t-19 -12.5
q-17 -18 -23.5 -55.5t-6.5 -95.5q0 -47 11 -90.5t30.5 -71t43.5 -27.5zM260 676q-10 0 -18 -10.5t-21 -32.5q-10 -17 -20 -33.5l-20 -33t-19.5 -33t-18.5 -33.5q-10 -18 -8 -31.5t18 -13.5q8 0 18 8.5t25 25.5q11 12 25 28.5t33 35.5q5 4 6.5 4t5.5 -4q19 -19 33.5 -35.5
t24.5 -28.5q15 -17 25.5 -25.5t17.5 -8.5q10 0 15 13t-5 32q-9 17 -19 34t-20 33.5t-20 33.5l-20 34q-11 19 -19 30t-19 11z" />
  </g>

</svg>
