<?xml version="1.0" standalone="no"?>
<!DOCTYPE svg PUBLIC "-//W3C//DTD SVG 1.1//EN" "http://www.w3.org/Graphics/SVG/1.1/DTD/svg11.dtd" >
<svg xmlns="http://www.w3.org/2000/svg" xmlns:xlink="http://www.w3.org/1999/xlink" version="1.1" viewBox="-10 0 773 1000">
  <g transform="matrix(1 0 0 -1 0 800)">
   <path fill="currentColor"
d="M238 -14q-61 0 -110 27t-78 75t-29 109q0 49 18.5 92.5t51 76.5t76 52t93.5 19q63 0 113.5 -29t80.5 -77t30 -105q0 -65 -27.5 -120t-82 -87.5t-136.5 -32.5zM257 33q18 0 31 7.5t22 21.5q12 20 17 55t5 85q0 56 -11 98t-30.5 66t-45.5 24q-13 0 -24 -4.5t-19 -12.5
q-17 -18 -23.5 -55.5t-6.5 -95.5q0 -47 11 -90.5t30.5 -71t43.5 -27.5zM551 -14q-54 0 -97 29t-68 78.5t-25 111.5q0 64 30 116.5t81 83.5t113 31q43 0 78 -19t56 -50.5t21 -71.5q0 -39 -31 -39h-198q-14 0 -20.5 -8t-6.5 -27q0 -36 16 -65.5t44 -46.5t65 -17q29 0 53.5 11
t49.5 30q3 2 7 4.5t7 2.5q11 0 11 -13q0 -9 -6 -27q-9 -27 -33 -53.5t-61.5 -43.5t-85.5 -17zM511 300h53q29 0 38.5 1t17.5 4q5 2 8 11t3 19q0 26 -16.5 42.5t-42.5 16.5q-20 0 -37.5 -11.5t-28.5 -29.5t-10 -38q0 -15 15 -15z" />
  </g>

</svg>
