<?xml version="1.0" standalone="no"?>
<!DOCTYPE svg PUBLIC "-//W3C//DTD SVG 1.1//EN" "http://www.w3.org/Graphics/SVG/1.1/DTD/svg11.dtd" >
<svg xmlns="http://www.w3.org/2000/svg" xmlns:xlink="http://www.w3.org/1999/xlink" version="1.1" viewBox="-10 0 393 1000">
  <g transform="matrix(1 0 0 -1 0 800)">
   <path fill="currentColor"
d="M192 184q-47 0 -85 22.5t-60 60t-22 83.5q0 47 22 85t60 60t85 22q46 0 83.5 -22t60 -60t22.5 -85q0 -46 -22.5 -83.5t-60 -60t-83.5 -22.5zM192 255q38 0 64.5 27t26.5 68q0 42 -26.5 69t-64.5 27q-39 0 -65.5 -27t-26.5 -69q0 -41 26.5 -68t65.5 -27z" />
  </g>

</svg>
