<?xml version="1.0" standalone="no"?>
<!DOCTYPE svg PUBLIC "-//W3C//DTD SVG 1.1//EN" "http://www.w3.org/Graphics/SVG/1.1/DTD/svg11.dtd" >
<svg xmlns="http://www.w3.org/2000/svg" xmlns:xlink="http://www.w3.org/1999/xlink" version="1.1" viewBox="-10 0 429 1000">
  <g transform="matrix(1 0 0 -1 0 800)">
   <path fill="currentColor"
d="M190 267q-4 0 -7.5 4t-3.5 11v124q0 12 -14 12h-114q-7 0 -11.5 3.5t-4.5 7.5q0 11 6 28.5t22 17.5h102q9 0 11.5 3t2.5 10v91q0 14 16 22.5t28 8.5q7 0 11 -6t4 -14v-102q0 -13 13 -13h111q9 0 15.5 -4t6.5 -11q0 -10 -9.5 -26t-23.5 -16h-100q-13 0 -13 -12v-114
q0 -13 -18.5 -19t-29.5 -6z" />
  </g>

</svg>
