<?xml version="1.0" standalone="no"?>
<!DOCTYPE svg PUBLIC "-//W3C//DTD SVG 1.1//EN" "http://www.w3.org/Graphics/SVG/1.1/DTD/svg11.dtd" >
<svg xmlns="http://www.w3.org/2000/svg" xmlns:xlink="http://www.w3.org/1999/xlink" version="1.1" viewBox="-15 0 664 1000">
  <g transform="matrix(1 0 0 -1 0 800)">
   <path fill="currentColor"
d="M346 -285q-25 0 -38 20.5t-18 54.5t-5 76.5v85.5v35q-36 2 -62.5 22t-43 52t-20.5 69q-6 53 -11 85.5t-13 49t-22.5 22t-38.5 5.5q-31 0 -44 -9.5t-21 -9.5q-7 0 -10.5 3.5t-3.5 15.5q0 20 7 44.5t21.5 47t38 37.5t55.5 15q36 0 54.5 -53.5t28.5 -164.5q4 -33 30 -58
t57 -28q0 91 -3 157t-6.5 117t-6.5 94t-3 88q0 13 7.5 20.5t17.5 7.5q9 0 26 -3.5t31 -11.5t14 -20q0 -6 -4 -41t-9.5 -94.5t-9.5 -138.5t-4 -172q32 8 48 41t34 79q21 53 38.5 94t45.5 64t78 23q25 0 41.5 -7.5t16.5 -29.5q0 -10 -6.5 -16.5t-14.5 -9.5q-41 -15 -61 -42
t-37 -67q-8 -21 -20.5 -51.5t-24.5 -62.5t-21 -57q-16 -46 -51.5 -69.5t-64.5 -30.5v-32q0 -57 10 -93.5t23.5 -57t23.5 -32t10 -19.5q0 -19 -17.5 -31.5t-41.5 -12.5z" />
  </g>

</svg>
