<?xml version="1.0" standalone="no"?>
<!DOCTYPE svg PUBLIC "-//W3C//DTD SVG 1.1//EN" "http://www.w3.org/Graphics/SVG/1.1/DTD/svg11.dtd" >
<svg xmlns="http://www.w3.org/2000/svg" xmlns:xlink="http://www.w3.org/1999/xlink" version="1.1" viewBox="-10 0 368 1000">
  <g transform="matrix(1 0 0 -1 0 800)">
   <path fill="currentColor"
d="M227 324q7 0 15 -6t16 -17q7 -12 14.5 -29t7.5 -38q0 -22 -14.5 -39t-37.5 -31t-46 -26q-27 -14 -44.5 -28.5t-17.5 -27.5q0 -11 11.5 -23t36.5 -12q10 0 19 3.5t20 7.5q10 4 23 8.5t30 4.5q16 0 31.5 -19.5t15.5 -48.5q0 -22 -15.5 -34.5t-41.5 -12.5q-38 0 -74.5 16.5
t-66.5 43.5q-20 18 -34 39t-22 43t-8 45q0 22 9 38t26.5 28.5t45.5 25.5q34 15 50.5 25.5t22 20.5t7.5 25q1 9 6.5 13.5t14.5 4.5zM220 509q31 0 53 -22t22 -53t-22 -53t-53 -22t-53 22t-22 53t22 53t53 22z" />
  </g>

</svg>
