<?xml version="1.0" standalone="no"?>
<!DOCTYPE svg PUBLIC "-//W3C//DTD SVG 1.1//EN" "http://www.w3.org/Graphics/SVG/1.1/DTD/svg11.dtd" >
<svg xmlns="http://www.w3.org/2000/svg" xmlns:xlink="http://www.w3.org/1999/xlink" version="1.1" viewBox="-10 0 378 1000">
  <g transform="matrix(1 0 0 -1 0 800)">
   <path fill="currentColor"
d="M170 -14q-34 0 -65.5 7.5t-58.5 25.5q-10 16 -14 49.5t-3 72.5q0 13 21 13q9 0 15.5 -6t8.5 -11q20 -40 44 -71.5t61 -31.5q26 0 38.5 16t12.5 35q0 26 -21 43t-46 29q-28 14 -55 32.5t-45 46.5t-18 68q0 41 22.5 70.5t60.5 46t83 16.5q34 0 63.5 -7.5t40.5 -14.5
q8 -10 12.5 -38.5t4.5 -64.5q0 -11 -20 -11q-7 0 -15 5.5t-10 10.5q-13 40 -33.5 60t-44.5 20q-22 0 -39.5 -14t-17.5 -37q0 -20 20.5 -36.5t47.5 -30.5q66 -34 94 -66t28 -86q0 -67 -43 -104t-129 -37zM139 -274q-23 0 -35 9t-12 40q0 16 4.5 21t13.5 5q12 0 29 -8.5
t41 -8.5q14 0 20.5 10t6.5 29t-18.5 29t-37.5 10q-13 0 -20 -5t-14 -5t-15 7t-8 19q0 9 16 27l90 103h47l-35 -41q-6 -7 -6 -11t13 -11q25 -11 39 -30.5t14 -54.5q0 -25 -13 -49t-33 -43t-43 -30.5t-44 -11.5z" />
  </g>

</svg>
