<?xml version="1.0" standalone="no"?>
<!DOCTYPE svg PUBLIC "-//W3C//DTD SVG 1.1//EN" "http://www.w3.org/Graphics/SVG/1.1/DTD/svg11.dtd" >
<svg xmlns="http://www.w3.org/2000/svg" xmlns:xlink="http://www.w3.org/1999/xlink" version="1.1" viewBox="-10 0 394 1000">
  <g transform="matrix(1 0 0 -1 0 800)">
   <path fill="currentColor"
d="M127 -148q-30 0 -51 9.5t-19 22.5q2 14 6.5 30t23.5 29q7 5 14.5 1.5t11.5 -6.5q14 -12 36 -22.5t41 -10.5q42 0 42 51q0 20 -17 40t-43 40.5t-52 41.5q-46 36 -68 69.5t-22 67.5q0 51 21.5 79t47.5 51q10 30 30 54t48 38t60 14q22 0 48.5 -6.5t36.5 -14.5q5 -4 9 -8.5
t4 -10.5q0 -2 -7.5 -16.5t-18.5 -28t-21 -13.5q-4 0 -7.5 1t-7.5 5q-13 16 -33 29t-32 13q-27 0 -37 -13t-10 -30q0 -21 31.5 -49.5t71.5 -60.5q38 -30 64 -68.5t26 -100.5q0 -51 -19 -92.5t-55.5 -72.5t-91.5 -51q-13 -5 -29.5 -8t-31.5 -3zM267 24q1 -1 3.5 -1.5t3.5 1.5
q3 11 5 21.5t1 20.5q0 28 -16 55t-52 58l-33.5 33.5t-39.5 44t-21 36.5q0 2 -2 2t-4 -2q-7 -7 -9 -17.5t-2 -21.5q0 -34 26 -67.5t53 -56.5q12 -11 29.5 -28t34 -37t23.5 -41z" />
  </g>

</svg>
