<?xml version="1.0" standalone="no"?>
<!DOCTYPE svg PUBLIC "-//W3C//DTD SVG 1.1//EN" "http://www.w3.org/Graphics/SVG/1.1/DTD/svg11.dtd" >
<svg xmlns="http://www.w3.org/2000/svg" xmlns:xlink="http://www.w3.org/1999/xlink" version="1.1" viewBox="-10 0 463 1000">
  <g transform="matrix(1 0 0 -1 0 800)">
   <path fill="currentColor"
d="M148 -148q-37 0 -61 12t-24 30q0 8 7 29.5t30 37.5q8 5 17 1t14 -8q17 -15 43.5 -23.5t49.5 -8.5q25 0 38 17.5t13 48.5q0 26 -21 52.5t-52.5 54t-62.5 54.5q-55 47 -82 91.5t-27 88.5q0 45 12 75.5t31.5 53t40.5 42.5q11 39 35.5 71t58.5 50.5t72 18.5q27 0 58.5 -8.5
t42.5 -19.5q6 -5 11 -11t5 -14q0 -3 -8 -20t-19.5 -32.5t-24.5 -15.5q-8 0 -17 8q-18 20 -43 33.5t-39 13.5q-33 0 -45.5 -17t-12.5 -40q0 -18 17.5 -41.5t46.5 -49.5t61 -54q31 -26 56 -56.5t39.5 -70t14.5 -94.5q0 -67 -23 -122t-68 -96t-111 -67q-16 -7 -35.5 -10.5
t-37.5 -3.5zM335 66q1 -4 4.5 -3.5t4.5 3.5q4 15 5 30.5t1 31.5q0 41 -28 83t-68 78q-18 18 -42 44t-44.5 52.5t-28.5 43.5q-1 4 -4 3t-5 -3q-10 -11 -13 -28t-3 -34q0 -37 26.5 -78.5t66.5 -77.5q19 -18 46 -45.5t50.5 -54.5t31.5 -45z" />
  </g>

</svg>
