<?xml version="1.0" standalone="no"?>
<!DOCTYPE svg PUBLIC "-//W3C//DTD SVG 1.1//EN" "http://www.w3.org/Graphics/SVG/1.1/DTD/svg11.dtd" >
<svg xmlns="http://www.w3.org/2000/svg" xmlns:xlink="http://www.w3.org/1999/xlink" version="1.1" viewBox="-10 0 489 1000">
  <g transform="matrix(1 0 0 -1 0 800)">
   <path fill="currentColor"
d="M259 -14q-40 0 -58.5 31t-19.5 77q0 22 2 48t5.5 51.5t7.5 47.5t8 37q3 11 -4 19t-18 9q-6 1 -13 1.5t-15 1t-18 0.5q-26 0 -42 -4.5t-26.5 -17t-23.5 -37.5q-1 -3 -5 -9t-12 -6q-7 0 -12 11t-5 36q0 35 15.5 71t51.5 60t95 24q17 0 49.5 -2t66 -4t51.5 -2q40 1 59.5 8
t28.5 14q8 7 12.5 12t10.5 5q15 0 18 -11.5t-4 -43.5q-6 -31 -17.5 -58t-30.5 -43t-50 -16q-9 0 -23 1l-28 2t-25 1q-32 0 -35 -27q-1 -13 -4 -35.5t-5 -44.5t-2 -35q0 -16 11 -25t25.5 -12.5t23.5 -3.5q15 0 34 7q8 2 14.5 4t7.5 2q10 0 12 -5t2 -17q0 -23 -15 -52
t-40.5 -49.5t-59.5 -20.5z" />
  </g>

</svg>
