<?xml version="1.0" standalone="no"?>
<!DOCTYPE svg PUBLIC "-//W3C//DTD SVG 1.1//EN" "http://www.w3.org/Graphics/SVG/1.1/DTD/svg11.dtd" >
<svg xmlns="http://www.w3.org/2000/svg" xmlns:xlink="http://www.w3.org/1999/xlink" version="1.1" viewBox="-10 0 594 1000">
  <g transform="matrix(1 0 0 -1 0 800)">
   <path fill="currentColor"
d="M286 -10q-71 0 -132.5 27t-98.5 77.5t-37 120.5q0 47 18 90t53.5 78t87.5 55t120 20q51 0 99 -15.5t86.5 -45t61 -71.5t22.5 -95q0 -62 -32 -117t-94.5 -89.5t-153.5 -34.5zM294 38q26 0 45.5 12t33 35t20 55t6.5 72q0 39 -8 74t-22 63t-35.5 44t-48.5 16
q-35 0 -57 -18.5t-32.5 -57t-10.5 -99.5q0 -64 11 -107.5t35 -66t63 -22.5zM205 151q-9 0 -9 9q0 3 2 11t3 14q2 7 5 24t7 36.5t7.5 34.5t4.5 19q2 8 6.5 12t10.5 4q8 0 10 -12q2 -7 7 -14.5t20 -7.5h46q6 0 10.5 4t10.5 14q10 15 20 15q5 0 7.5 -2.5t0.5 -9.5
q-4 -16 -8.5 -41.5t-7 -49.5t-1.5 -38q1 -7 -1.5 -14.5t-8.5 -7.5q-5 0 -10.5 5.5t-11.5 14.5q-3 5 -9 9.5t-23 4.5h-42q-10 0 -17.5 -6t-13.5 -16q-2 -4 -4.5 -7t-5 -4t-5.5 -1z" />
  </g>

</svg>
