<?xml version="1.0" standalone="no"?>
<!DOCTYPE svg PUBLIC "-//W3C//DTD SVG 1.1//EN" "http://www.w3.org/Graphics/SVG/1.1/DTD/svg11.dtd" >
<svg xmlns="http://www.w3.org/2000/svg" xmlns:xlink="http://www.w3.org/1999/xlink" version="1.1" viewBox="-10 0 676 1000">
  <g transform="matrix(1 0 0 -1 0 800)">
   <path fill="currentColor"
d="M96 275q-25 0 -44 7.5t-19 20.5q0 12 5 24.5t13 12.5q4 0 7 -2t6 -6q7 -10 20.5 -20.5t25.5 -10.5q23 0 38.5 20.5t15.5 57.5q0 21 -12.5 41.5t-38.5 20.5q-24 0 -32 -7t-9 -7q-7 0 -12.5 1.5t-4.5 7.5q2 9 8 16t13.5 11.5t13.5 7.5q42 22 53.5 37.5t11.5 34.5
q0 10 -11 19t-29 9q-17 0 -32 -8t-23 -16q-4 -4 -7 -7.5t-5 -3.5q-4 0 -8.5 5.5t-4.5 9.5t11.5 19.5t36.5 30t66 14.5q35 0 64.5 -18t29.5 -48q0 -16 -14 -36t-50 -30q-2 -1 -2 -2t2 -1q35 0 60.5 -21t25.5 -62q0 -37 -24.5 -64.5t-63 -42.5t-81.5 -15zM530 641
q9 14 22 18.5t30 4.5q8 0 13.5 -6t5.5 -12q0 -4 -1 -5l-404 -636q-7 -12 -20 -16t-28 -4q-8 0 -15.5 5t-7.5 11q0 3 1 4zM513 -9q-11 0 -11 8v84q0 3 -5.5 4.5t-6.5 1.5q-37 0 -69.5 -1t-71.5 -1q-2 0 -6.5 0.5t-4.5 3.5q0 2 1 3.5t2 2.5q36 44 78.5 88.5t79.5 87.5
q10 12 28 30l38 38q6 6 12 10t10 4q3 0 4 -2.5t1 -6.5l-2 -209q0 -5 6 -5h18q5 0 14.5 0.5t15.5 0.5q7 0 7 -7q0 -9 -6 -22t-11 -13h-35q-4 0 -6.5 -1.5t-2.5 -5.5l1 -53q0 -8 -17 -17.5t-36 -16t-25 -6.5zM427 133h70q2 0 3.5 1.5t1.5 2.5v75q0 1 -1 1t-2 -1q-9 -9 -24 -23
t-28.5 -28t-21.5 -24q-2 -4 2 -4z" />
  </g>

</svg>
