<?xml version="1.0" standalone="no"?>
<!DOCTYPE svg PUBLIC "-//W3C//DTD SVG 1.1//EN" "http://www.w3.org/Graphics/SVG/1.1/DTD/svg11.dtd" >
<svg xmlns="http://www.w3.org/2000/svg" xmlns:xlink="http://www.w3.org/1999/xlink" version="1.1" viewBox="-10 0 550 1000">
  <g transform="matrix(1 0 0 -1 0 800)">
   <path fill="currentColor"
d="M175 -38q-22 0 -45 6.5t-38.5 18t-15.5 25.5t3.5 29t11 25t18.5 10q8 0 13.5 -3.5t11.5 -10.5q14 -17 33.5 -36.5t42.5 -19.5q31 0 55.5 17t39 49t14.5 77q0 41 -11 72t-32 48t-51 17q-28 0 -43 -10t-22 -13q-8 -4 -18.5 1t-8.5 14q5 21 18 35t27 21q34 18 56.5 34t36 33
t19 37t5.5 45q0 30 -21 51.5t-54 21.5q-27 0 -47 -12t-34 -27.5t-23 -27.5t-14 -12q-7 0 -14.5 8.5t-7.5 17.5q0 8 11 28.5t35 43t62.5 38.5t94.5 16q41 0 75 -15t54.5 -42.5t20.5 -65.5q0 -22 -14.5 -52t-46 -55.5t-81.5 -34.5q-3 -1 -3 -3.5t4 -2.5q54 0 95.5 -18.5
t65.5 -53t24 -84.5q0 -55 -25 -99t-67.5 -75.5t-96.5 -48.5t-113 -17z" />
  </g>

</svg>
