<?xml version="1.0" standalone="no"?>
<!DOCTYPE svg PUBLIC "-//W3C//DTD SVG 1.1//EN" "http://www.w3.org/Graphics/SVG/1.1/DTD/svg11.dtd" >
<svg xmlns="http://www.w3.org/2000/svg" xmlns:xlink="http://www.w3.org/1999/xlink" version="1.1" viewBox="-10 0 1211 1000">
  <g transform="matrix(1 0 0 -1 0 800)">
   <path fill="currentColor"
d="M157 276q-6 0 -11 3.5t-5 7.5q0 7 5 11t12 5q29 3 37 10t8 25v301q0 6 -4.5 12t-15.5 6h-16q-26 0 -50 -13t-38 -32q-6 -8 -19.5 -24t-25.5 -16q-8 0 -11 4.5t-3 9.5t1.5 10.5t3.5 9.5q15 31 23 56.5t10 57.5q1 10 8 16.5t17 6.5q9 0 14 -10t13 -18q10 -9 28.5 -10.5
t40.5 -1.5l231 1q20 0 35.5 4t22.5 8q16 8 25 18t20 10q8 0 10.5 -2.5t2.5 -8.5q0 -4 -0.5 -9.5t-2.5 -10.5q-10 -35 -13.5 -61.5t-3.5 -53.5q0 -16 -2 -21t-10 -5q-7 0 -13.5 5t-11.5 19q-7 23 -17 36t-23.5 19t-33.5 6h-11h-11q-14 0 -19.5 -9.5t-5.5 -20.5v-288
q0 -15 10 -21t38 -15q5 -2 9 -4.5t4 -10.5q0 -5 -3.5 -8t-7.5 -3q-13 0 -38 0.5l-50 1t-38 0.5t-34.5 -0.5t-43.5 -1.5t-37 -1zM805 281q-18 33 -34.5 65t-32 63.5t-30.5 62t-30 60.5q-4 8 -8.5 5t-5.5 -14l-9 -167q-1 -19 12.5 -30.5t45.5 -22.5q5 -1 11.5 -4t6.5 -11
q0 -5 -5.5 -8t-10.5 -3q-20 0 -31 0.5t-20.5 0.5h-24.5q-27 0 -51 -1t-34 -1q-15 0 -15 11q0 7 6.5 9t11.5 3q17 5 26 16.5t13 41.5l30 251q4 33 -7.5 47.5t-44.5 22.5q-9 2 -14.5 5.5t-5.5 10.5q0 12 21 12l137 -2q14 0 21 -7.5t8 -14.5q4 -14 9.5 -27t11.5 -24
q22 -40 43.5 -81.5t46.5 -79.5q3 -4 6.5 -4t5.5 4l103 215q3 7 8.5 9.5t11.5 2.5l154 -1q10 0 15 -2.5t5 -9.5q0 -8 -7.5 -10t-14.5 -4q-27 -9 -38 -27t-9 -53l15 -248q2 -14 14.5 -22t31.5 -15q7 -2 12.5 -5.5t5.5 -11.5q0 -5 -3.5 -8t-7.5 -3q-13 0 -38.5 0.5l-51 1
t-38.5 0.5q-14 0 -36.5 -0.5t-45 -1.5t-37.5 -1q-13 0 -13 11q0 7 4.5 11t8.5 5q29 10 41 15t10 22l-7 196q-1 8 -3 7.5t-5 -7.5l-109 -253q-5 -13 -17 -13t-18 11z" />
  </g>

</svg>
