<?xml version="1.0" standalone="no"?>
<!DOCTYPE svg PUBLIC "-//W3C//DTD SVG 1.1//EN" "http://www.w3.org/Graphics/SVG/1.1/DTD/svg11.dtd" >
<svg xmlns="http://www.w3.org/2000/svg" xmlns:xlink="http://www.w3.org/1999/xlink" version="1.1" viewBox="-10 0 1058 1000">
  <g transform="matrix(1 0 0 -1 0 800)">
   <path fill="currentColor"
d="M80 506h41v-104h-41v104zM80 349h41v-104h-41v104zM80 193h41v-104h-41v104zM80 36h41v-104h-41v104zM856 -184h71v64h41v-105h-112v41zM243 622v41h103v-41h-103zM399 622v41h103v-41h-103zM554 622v41h103v-41h-103zM710 622v41h103v-41h-103zM968 -68h-41v104h41v-104
zM968 89h-41v104h41v-104zM968 245h-41v104h41v-104zM968 402h-41v104h41v-104zM807 -184v-41h-102v41h102zM653 -184v-41h-102v41h102zM499 -184v-41h-101v41h101zM345 -184v-41h-102v41h102zM191 -225h-111v105h41v-64h70v-41zM927 559v63h-71v41h112v-104h-41zM80 559
v104h112v-41h-71v-63h-41zM541 -10q-73 0 -122.5 24.5t-74.5 69t-25 102.5v178q0 8 -3.5 20.5t-12.5 24.5t-26 16q-9 2 -13 6t-4 9t5.5 9t12.5 4q29 0 63.5 -2t57.5 -2q17 0 42 1t51.5 1.5t46.5 0.5q9 0 13.5 -3t4.5 -9q0 -11 -16.5 -16.5t-27.5 -11.5q-13 -7 -19 -19
t-6 -38v-165q0 -57 27.5 -83t60.5 -26q40 0 65.5 11t38 37.5t12.5 73.5v106q0 46 -3.5 65t-13 27t-27.5 19q-9 6 -21.5 8.5t-12.5 11.5q0 6 5.5 9.5t17.5 3.5q24 0 37.5 -0.5t24.5 -1.5t27 -1t25 1t20 1.5t31 0.5q7 0 12 -2.5t5 -10.5q0 -5 -4 -9.5t-12 -6.5
q-31 -10 -40.5 -24t-10.5 -44l-2 -165q0 -59 -28.5 -104.5t-76 -71t-104.5 -25.5z" />
  </g>

</svg>
