<?xml version="1.0" standalone="no"?>
<!DOCTYPE svg PUBLIC "-//W3C//DTD SVG 1.1//EN" "http://www.w3.org/Graphics/SVG/1.1/DTD/svg11.dtd" >
<svg xmlns="http://www.w3.org/2000/svg" xmlns:xlink="http://www.w3.org/1999/xlink" version="1.1" viewBox="-10 0 1058 1000">
  <g transform="matrix(1 0 0 -1 0 800)">
   <path fill="currentColor"
d="M80 506h41v-104h-41v104zM80 349h41v-104h-41v104zM80 193h41v-104h-41v104zM80 36h41v-104h-41v104zM856 -184h71v64h41v-105h-112v41zM243 622v41h103v-41h-103zM399 622v41h103v-41h-103zM554 622v41h103v-41h-103zM710 622v41h103v-41h-103zM968 -68h-41v104h41v-104
zM968 89h-41v104h41v-104zM968 245h-41v104h41v-104zM968 402h-41v104h41v-104zM807 -184v-41h-102v41h102zM653 -184v-41h-102v41h102zM499 -184v-41h-101v41h101zM345 -184v-41h-102v41h102zM191 -225h-111v105h41v-64h70v-41zM927 559v63h-71v41h112v-104h-41zM80 559
v104h112v-41h-71v-63h-41zM405 -1q-6 0 -12 4.5t-6 9.5q0 9 5.5 13t11.5 5q29 6 37 11.5t8 23.5v320q0 14 -6.5 20t-14.5 6h-13q-23 0 -42.5 -20t-35.5 -41q-4 -6 -11.5 -16.5t-16 -19.5t-17.5 -9q-4 0 -10.5 3.5t-6.5 9.5q0 9 5 19t13 37t16 86q2 12 8 17.5t16 5.5
q8 0 14 -6t14 -12q9 -6 20 -9.5t34 -3.5h224q29 0 49 6t33 12q8 4 14.5 8t11.5 4q8 0 11.5 -5t3.5 -12q0 -39 2 -61.5t3.5 -36.5t1.5 -30q0 -5 -4 -18.5t-15 -12.5q-8 0 -14 5t-11 21q-10 38 -25.5 58.5t-32.5 20.5h-21q-13 0 -21.5 -9t-8.5 -19v-318q0 -14 10 -22.5
t34 -13.5q6 -1 11 -5t5 -12q0 -6 -5 -9.5t-12 -3.5q-13 0 -39.5 0.5l-53 1t-39.5 0.5q-12 0 -35.5 -0.5t-47.5 -1.5t-39 -1z" />
  </g>

</svg>
