<?xml version="1.0" standalone="no"?>
<!DOCTYPE svg PUBLIC "-//W3C//DTD SVG 1.1//EN" "http://www.w3.org/Graphics/SVG/1.1/DTD/svg11.dtd" >
<svg xmlns="http://www.w3.org/2000/svg" xmlns:xlink="http://www.w3.org/1999/xlink" version="1.1" viewBox="-10 0 1058 1000">
  <g transform="matrix(1 0 0 -1 0 800)">
   <path fill="currentColor"
d="M80 506h41v-104h-41v104zM80 349h41v-104h-41v104zM80 193h41v-104h-41v104zM80 36h41v-104h-41v104zM856 -184h71v64h41v-105h-112v41zM243 622v41h103v-41h-103zM399 622v41h103v-41h-103zM554 622v41h103v-41h-103zM710 622v41h103v-41h-103zM968 -68h-41v104h41v-104
zM968 89h-41v104h41v-104zM968 245h-41v104h41v-104zM968 402h-41v104h41v-104zM807 -184v-41h-102v41h102zM653 -184v-41h-102v41h102zM499 -184v-41h-101v41h101zM345 -184v-41h-102v41h102zM191 -225h-111v105h41v-64h70v-41zM927 559v63h-71v41h112v-104h-41zM80 559
v104h112v-41h-71v-63h-41zM413 -1q-7 0 -12 3.5t-5 10.5q0 8 4.5 12.5t11.5 5.5q20 4 28 10t8 27v311q0 20 -8.5 28t-31.5 14q-8 2 -12.5 6t-4.5 13q0 7 5.5 10t12.5 3q14 0 36.5 -1l45 -2t36.5 -1t39 1t50 1.5t38 0.5q9 0 12.5 -3.5t3.5 -9.5q0 -7 -4.5 -10.5t-11.5 -6.5
q-21 -8 -29 -14t-8.5 -12.5t-0.5 -18.5v-305q0 -18 7.5 -25t24.5 -14q7 -3 12.5 -7t5.5 -12q0 -7 -4.5 -10.5t-10.5 -3.5q-13 0 -37.5 0.5l-49 1t-37.5 0.5t-34.5 -0.5t-43.5 -1.5t-36 -1z" />
  </g>

</svg>
