<?xml version="1.0" standalone="no"?>
<!DOCTYPE svg PUBLIC "-//W3C//DTD SVG 1.1//EN" "http://www.w3.org/Graphics/SVG/1.1/DTD/svg11.dtd" >
<svg xmlns="http://www.w3.org/2000/svg" xmlns:xlink="http://www.w3.org/1999/xlink" version="1.1" viewBox="-10 0 1058 1000">
  <g transform="matrix(1 0 0 -1 0 800)">
   <path fill="currentColor"
d="M80 506h41v-104h-41v104zM80 349h41v-104h-41v104zM80 193h41v-104h-41v104zM80 36h41v-104h-41v104zM856 -184h71v64h41v-105h-112v41zM243 622v41h103v-41h-103zM399 622v41h103v-41h-103zM554 622v41h103v-41h-103zM710 622v41h103v-41h-103zM968 -68h-41v104h41v-104
zM968 89h-41v104h41v-104zM968 245h-41v104h41v-104zM968 402h-41v104h41v-104zM807 -184v-41h-102v41h102zM653 -184v-41h-102v41h102zM499 -184v-41h-101v41h101zM345 -184v-41h-102v41h102zM191 -225h-111v105h41v-64h70v-41zM927 559v63h-71v41h112v-104h-41zM80 559
v104h112v-41h-71v-63h-41zM322 -3q-8 0 -11.5 5.5t-3.5 11.5q0 8 5.5 13t12.5 7q18 5 24 11t6 24v306q0 20 -6 28.5t-30 14.5q-8 2 -12 6.5t-4 11.5t5 12t12 5q10 0 27.5 -1t34.5 -2t25 -1q39 0 84.5 0.5t86.5 1t69 1t32 0.5q7 0 14.5 -4.5t7.5 -16.5q0 -19 7.5 -46.5
t7.5 -49.5q0 -7 -2.5 -12t-7.5 -5q-4 0 -10 4t-10 12q-17 38 -31 56.5t-51 18.5h-45q-16 0 -26 -9t-10 -29v-104q0 -12 6 -15t17 -3h40q17 0 27.5 10t20.5 38q4 10 8 11.5t9 1.5q4 0 7 -4.5t1 -15.5q-3 -23 -3.5 -36t-0.5 -31q0 -17 0.5 -26.5t2.5 -34.5q2 -15 -0.5 -20.5
t-6.5 -5.5t-10 4t-9 14q-7 27 -15 39t-25 12h-29h-29q-6 0 -8.5 -5.5t-2.5 -9.5v-120q0 -13 6.5 -19.5t22.5 -6.5h60q32 0 59 24t37 58q2 8 7.5 11.5t9.5 3.5q5 0 8.5 -5.5t3.5 -12.5q0 -26 -7.5 -47t-17.5 -56q-3 -11 -10 -16.5t-18 -5.5h-31t-61 0.5t-76 0.5h-78
q-14 0 -37 -0.5t-45 -1t-34 -0.5z" />
  </g>

</svg>
