<?xml version="1.0" standalone="no"?>
<!DOCTYPE svg PUBLIC "-//W3C//DTD SVG 1.1//EN" "http://www.w3.org/Graphics/SVG/1.1/DTD/svg11.dtd" >
<svg xmlns="http://www.w3.org/2000/svg" xmlns:xlink="http://www.w3.org/1999/xlink" version="1.1" viewBox="-10 0 1058 1000">
  <g transform="matrix(1 0 0 -1 0 800)">
   <path fill="currentColor"
d="M80 506h41v-104h-41v104zM80 349h41v-104h-41v104zM80 193h41v-104h-41v104zM80 36h41v-104h-41v104zM856 -184h71v64h41v-105h-112v41zM243 622v41h103v-41h-103zM399 622v41h103v-41h-103zM554 622v41h103v-41h-103zM710 622v41h103v-41h-103zM968 -68h-41v104h41v-104
zM968 89h-41v104h41v-104zM968 245h-41v104h41v-104zM968 402h-41v104h41v-104zM807 -184v-41h-102v41h102zM653 -184v-41h-102v41h102zM499 -184v-41h-101v41h101zM345 -184v-41h-102v41h102zM191 -225h-111v105h41v-64h70v-41zM927 559v63h-71v41h112v-104h-41zM80 559
v104h112v-41h-71v-63h-41zM439 -138q-40 0 -67.5 5.5t-41.5 16.5t-14 26t6.5 25t17.5 15.5t23 5.5q7 0 14.5 -3.5t13.5 -9.5q19 -20 25.5 -30t13.5 -10q19 0 32 23.5t13 96.5v354q0 21 -6.5 29t-35.5 15q-6 2 -11 5.5t-5 13.5q0 8 5.5 10.5t11.5 2.5q14 0 37 -1l46 -2t36 -1
q15 0 41.5 1t52.5 1.5t39 0.5q7 0 12 -3.5t5 -9.5q0 -8 -5.5 -11t-12.5 -5q-25 -7 -34 -16.5t-9 -27.5v-268q0 -34 -10.5 -68t-29.5 -65t-43 -56q-27 -27 -58 -43.5t-62 -16.5z" />
  </g>

</svg>
