<?xml version="1.0" standalone="no"?>
<!DOCTYPE svg PUBLIC "-//W3C//DTD SVG 1.1//EN" "http://www.w3.org/Graphics/SVG/1.1/DTD/svg11.dtd" >
<svg xmlns="http://www.w3.org/2000/svg" xmlns:xlink="http://www.w3.org/1999/xlink" version="1.1" viewBox="-10 0 826 1000">
  <g transform="matrix(1 0 0 -1 0 800)">
   <path fill="currentColor"
d="M406 -94l-401 401l401 400l400 -400zM395 23q25 0 43.5 18.5t18.5 43.5q0 26 -18.5 44t-43.5 18q-26 0 -44.5 -18t-18.5 -44q0 -25 18.5 -43.5t44.5 -18.5zM398 176q8 0 12.5 5t5.5 15q4 25 10.5 36t25.5 20q20 11 39 23t36 19q15 8 28.5 27.5t13.5 53.5q0 38 -16.5 75
t-44.5 66q-28 30 -60.5 48t-67.5 18q-25 0 -44 -14t-19 -29q0 -14 8 -32t20.5 -31t24.5 -13q8 0 15.5 1.5t13.5 3.5q5 3 15.5 6.5t30.5 3.5q21 0 39 -10t18 -31q0 -22 -13.5 -37t-40.5 -27q-50 -22 -75 -44.5t-25 -52.5q0 -23 7 -42t14 -33q8 -12 15 -18.5t14 -6.5z" />
  </g>

</svg>
