<?xml version="1.0" standalone="no"?>
<!DOCTYPE svg PUBLIC "-//W3C//DTD SVG 1.1//EN" "http://www.w3.org/Graphics/SVG/1.1/DTD/svg11.dtd" >
<svg xmlns="http://www.w3.org/2000/svg" xmlns:xlink="http://www.w3.org/1999/xlink" version="1.1" viewBox="-15 0 929 1000">
  <g transform="matrix(1 0 0 -1 0 800)">
   <path fill="currentColor"
d="M148 -3q-6 0 -12 4t-6 11q0 17 19 22q34 8 47 20t13 43l-1 459q0 21 -10 32.5t-30 11.5q-43 0 -63.5 -17.5t-20.5 -46.5q0 -13 5 -21t12 -14q8 -7 15.5 -14.5t7.5 -18.5q0 -14 -13 -28.5t-28.5 -24t-25.5 -9.5q-15 0 -29 14t-23.5 36.5t-9.5 45.5q0 56 38 89t105.5 47
t153.5 12q20 0 48 1t57 2t50 1q8 0 12 -3.5t4 -11.5q0 -10 -5 -14t-14 -7q-41 -12 -53 -25t-12 -43v-172q0 -8 4.5 -11.5t11.5 -3.5h241q14 0 14 15v172q0 30 -12 43t-53 25q-9 3 -14 7t-5 14q0 8 4.5 11.5t11.5 3.5q21 0 50 -1t57.5 -2t47.5 -1q20 0 45 1.5t51 2.5t48 1
q6 0 12 -4t6 -11q0 -17 -19 -22q-35 -9 -47.5 -22t-12.5 -45v-454q0 -31 13 -43t47 -20q19 -5 19 -22q0 -7 -6 -11t-12 -4q-19 0 -45 1.5t-52.5 2.5t-46.5 1q-19 0 -47.5 -1t-57.5 -2t-50 -1q-7 0 -11.5 4t-4.5 11q0 10 5 14t14 7q39 11 52 23.5t13 40.5v181q0 8 -3 12.5
t-11 4.5h-241q-16 0 -16 -17v-181q0 -28 13 -40.5t52 -23.5q9 -3 14 -7t5 -14q0 -7 -4 -11t-12 -4q-21 0 -50 1t-57 2t-48 1t-46.5 -1t-52.5 -2.5t-45 -1.5z" />
  </g>

</svg>
