<?xml version="1.0" standalone="no"?>
<!DOCTYPE svg PUBLIC "-//W3C//DTD SVG 1.1//EN" "http://www.w3.org/Graphics/SVG/1.1/DTD/svg11.dtd" >
<svg xmlns="http://www.w3.org/2000/svg" xmlns:xlink="http://www.w3.org/1999/xlink" version="1.1" viewBox="-10 0 566 1000">
  <g transform="matrix(1 0 0 -1 0 800)">
   <path fill="currentColor"
d="M288 -288q-31 0 -55.5 2t-56.5 15q-13 5 -29 17.5t-16 20.5q0 14 7.5 33t18 33.5t19.5 14.5q12 0 21 -9.5t18.5 -22.5t22.5 -22.5t34 -9.5q20 0 40 15t27 42q6 21 9 54t4 77.5t1 97.5v67.5v67v66.5q0 32 -17.5 53.5t-40.5 21.5q-14 0 -27.5 -3t-24.5 -11
q-13 -9 -17.5 -21t-4.5 -38v-200q0 -20 9.5 -27t22.5 -12q8 -3 14 -8t6 -13q0 -7 -4.5 -11.5t-12.5 -4.5q-20 0 -39 1.5t-36.5 2.5t-35.5 1q-17 0 -34.5 -1t-36 -2.5t-38.5 -1.5q-10 0 -15 4t-5 11q0 8 6 12.5t17 8.5q15 5 26 10.5t11 27.5v475q0 27 -6.5 47t-31.5 25
q-11 2 -11 16q0 13 10 15q25 5 57 15.5t61.5 21.5t44.5 16q5 2 8 2.5t6 0.5q7 0 9 -4t2 -9t-1 -14t-2 -19.5t-2 -20.5v-244q0 -9 1 -17t4 -10q16 13 38.5 29t52 28.5t63.5 12.5q35 0 62 -19.5t42 -52t15 -72.5v-85v-85q0 -44 -2 -93.5t-7.5 -93.5t-15.5 -74
q-28 -84 -78 -117t-107 -33z" />
  </g>

</svg>
