<?xml version="1.0" standalone="no"?>
<!DOCTYPE svg PUBLIC "-//W3C//DTD SVG 1.1//EN" "http://www.w3.org/Graphics/SVG/1.1/DTD/svg11.dtd" >
<svg xmlns="http://www.w3.org/2000/svg" xmlns:xlink="http://www.w3.org/1999/xlink" version="1.1" viewBox="-10 0 564 1000">
  <g transform="matrix(1 0 0 -1 0 800)">
   <path fill="currentColor"
d="M521 -3q6 0 12 4t6 11q0 17 -19 22q-38 8 -52 20t-14 43v454q0 32 12.5 45.5t47.5 21.5q12 3 16.5 9t4.5 12q0 7 -5.5 11.5t-14.5 4.5q-22 0 -48 -1t-51 -2.5t-45 -1.5h-91.5h-94.5q-43 0 -78.5 5.5t-57.5 5.5q-8 0 -16.5 -4.5t-9.5 -16.5q-2 -25 -3 -51t-1.5 -49.5
t-0.5 -41.5q0 -20 13 -20q5 0 12 4t9 13q7 26 15.5 47.5t22.5 35.5q13 13 30.5 19.5t43.5 6.5h63q25 0 41 -12t16 -34v-40.5v-40.5v-48v-49q0 -13 -7 -18.5t-19 -5.5h-46.5h-46.5q-26 0 -37.5 16t-20.5 38q-4 9 -9.5 13.5t-11.5 4.5q-5 0 -9 -6t-3 -17q2 -22 3.5 -41.5
t1.5 -34.5q0 -20 -1 -33t-3 -36q-2 -15 1.5 -21.5t8.5 -6.5q7 0 14 7t10 17q9 31 20.5 42t30.5 11h23h23h29h29q11 0 16.5 -6t5.5 -17q0 -45 -1 -94t-1 -94q0 -31 -17.5 -43t-60.5 -21q-9 -2 -14 -6.5t-5 -14.5q0 -7 4 -11t12 -4q21 0 53 1t63.5 2t51.5 1t46.5 -1t54 -2.5
t49.5 -1.5z" />
  </g>

</svg>
