<?xml version="1.0" standalone="no"?>
<!DOCTYPE svg PUBLIC "-//W3C//DTD SVG 1.1//EN" "http://www.w3.org/Graphics/SVG/1.1/DTD/svg11.dtd" >
<svg xmlns="http://www.w3.org/2000/svg" xmlns:xlink="http://www.w3.org/1999/xlink" version="1.1" viewBox="-10 0 702 1000">
  <g transform="matrix(1 0 0 -1 0 800)">
   <path fill="currentColor"
d="M409 -285q-32 0 -67.5 5t-73.5 27q-18 11 -23.5 31t-5.5 45q0 17 5.5 32t17.5 15q5 0 9.5 -2t9 -5t7.5 -8q19 -24 35 -45.5t36 -35t50 -13.5q33 0 63 23.5t49.5 65.5t19.5 98q0 50 -15.5 85t-46 53.5t-76.5 18.5q-31 0 -64 -5.5t-47 -5.5q-6 0 -8.5 2t-2.5 4q0 3 2 6.5
t3 5.5l169 249q2 4 2 8t-13 4h-171q-22 0 -31 -6t-9 -19v-211q0 -47 17.5 -69.5t46.5 -22.5q28 0 41 6t24 10q2 1 3.5 1.5t3.5 0.5q5 0 8 -6.5t3 -15.5q0 -6 -22 -22.5t-57 -30.5t-75 -14q-70 0 -104 34t-34 96v242q0 9 -7 13t-24 5h-15q-7 0 -12 12.5t-5 22.5q0 7 6 9
q25 8 55 25t58 36.5t45 34.5q8 6 13.5 10t13.5 4q10 0 14 -4t2 -18l-7 -51q-1 -13 6 -17t19 -4q68 0 101 0.5t44.5 0.5h16.5q62 0 113.5 2t102.5 2q10 0 16 -8.5t7 -19t-3 -16.5q-12 -14 -22 -26.5t-21 -29.5q-18 -27 -36.5 -54t-36.5 -54t-37 -54q-4 -7 -0.5 -10t10.5 -3
q5 0 10.5 1t7.5 1q49 0 84 -26t54 -67t19 -85q0 -29 -11 -60t-30 -61t-43.5 -55.5t-52.5 -42.5q-37 -22 -69 -33t-65 -11z" />
  </g>

</svg>
