<?xml version="1.0" standalone="no"?>
<!DOCTYPE svg PUBLIC "-//W3C//DTD SVG 1.1//EN" "http://www.w3.org/Graphics/SVG/1.1/DTD/svg11.dtd" >
<svg xmlns="http://www.w3.org/2000/svg" xmlns:xlink="http://www.w3.org/1999/xlink" version="1.1" viewBox="-10 0 633 1000">
  <g transform="matrix(1 0 0 -1 0 800)">
   <path fill="currentColor"
d="M40 -3q-6 0 -13 4t-7 11q0 8 7.5 13t15.5 8q15 5 26 11.5t11 26.5v285q-10 0 -23 0.5t-29 1.5q-6 1 -10 12.5t-4 19.5q0 7 10 10q12 5 27 10t29 13q5 80 31 134t64 87t81 47.5t82 14.5q34 0 57.5 -5.5t39.5 -16.5q12 -7 22 -5.5t20 5.5l30 10.5t20 7.5q9 3 14 3q7 0 9 -4
t2 -9q0 -7 -2 -23.5t-3 -30.5l1 -565q0 -22 11 -27.5t26 -10.5q11 -4 17 -8.5t6 -12.5q0 -7 -5 -11t-15 -4q-20 0 -40 1t-39 1.5t-37 0.5q-17 0 -34.5 -1t-36 -2.5t-38.5 -1.5q-10 0 -15 4t-5 11q0 8 6 12.5t17 8.5q15 5 26 10.5t11 27.5v265q0 8 -5.5 16.5t-25.5 8.5h-107
q-27 0 -33.5 -8.5t-6.5 -16.5v-261q0 -20 15 -28.5t39 -13.5q8 -2 13.5 -7.5t5.5 -13.5q0 -6 -5 -10.5t-11 -4.5q-20 0 -43 1.5t-44.5 2.5t-39.5 1q-17 0 -36 -1t-39 -2.5t-40 -1.5zM250 423h128q10 0 17.5 4.5t7.5 17.5v117q0 27 -5.5 47t-19.5 30.5t-39 10.5
q-31 0 -57 -17t-41.5 -54t-15.5 -97v-37q0 -13 7.5 -17.5t17.5 -4.5z" />
  </g>

</svg>
