<?xml version="1.0" standalone="no"?>
<!DOCTYPE svg PUBLIC "-//W3C//DTD SVG 1.1//EN" "http://www.w3.org/Graphics/SVG/1.1/DTD/svg11.dtd" >
<svg xmlns="http://www.w3.org/2000/svg" xmlns:xlink="http://www.w3.org/1999/xlink" version="1.1" viewBox="-10 0 569 1000">
  <g transform="matrix(1 0 0 -1 0 800)">
   <path fill="currentColor"
d="M170 -9q-4 0 -8.5 2t-6.5 7l-103 222q-7 16 -14 27.5t-21 15.5q-7 2 -9.5 5.5t-2.5 9.5t7 7.5t12 1.5q20 0 30.5 -1t20.5 -2.5t28 -1.5q17 0 27 1.5t21.5 2.5t30.5 1q5 0 11.5 -2t6.5 -9t-4.5 -8.5l-10.5 -3.5q-16 -6 -16.5 -21t6.5 -31l29 -62q4 -7 7 0l29 72
q7 18 6.5 27t-11.5 14q-11 6 -11 15q0 6 7 7.5t14 1.5q23 0 42.5 -1t24.5 -1q18 0 34.5 1t41.5 1q5 0 12 -2t7 -9t-5 -8.5t-10 -3.5q-15 -5 -16 -17t9 -34l26 -54q2 -3 3.5 -2.5t2.5 2.5l24 54q8 20 6 33.5t-13 17.5q-5 2 -10 3.5t-5 8.5t6.5 9t11.5 2q14 0 27 -1t19 -1
q11 0 23.5 1t24.5 1q5 0 11.5 -1.5t6.5 -7.5t-1.5 -9.5t-9.5 -5.5q-13 -4 -24 -12.5t-18 -22.5l-99 -230q-2 -7 -15 -7q-10 0 -13 7l-91 177q-1 4 -3.5 4t-4.5 -4l-84 -177q-3 -9 -16 -9zM170 290q-4 0 -8.5 2t-6.5 7l-103 222q-7 16 -14 27.5t-21 15.5q-7 2 -9.5 5.5
t-2.5 9.5t7 7.5t12 1.5q20 0 30.5 -1t20.5 -2.5t28 -1.5q17 0 27 1.5t21.5 2.5t30.5 1q5 0 11.5 -2t6.5 -9t-4.5 -8.5l-10.5 -3.5q-16 -6 -16.5 -21t6.5 -31l29 -62q4 -7 7 0l29 72q7 18 6.5 27t-11.5 14q-11 6 -11 15q0 6 7 7.5t14 1.5q23 0 42.5 -1t24.5 -1q18 0 34.5 1
t41.5 1q5 0 12 -2t7 -9t-5 -8.5t-10 -3.5q-15 -5 -16 -17t9 -34l26 -54q2 -3 3.5 -2.5t2.5 2.5l24 54q8 20 6 33.5t-13 17.5q-5 2 -10 3.5t-5 8.5t6.5 9t11.5 2q14 0 27 -1t19 -1q11 0 23.5 1t24.5 1q5 0 11.5 -1.5t6.5 -7.5t-1.5 -9.5t-9.5 -5.5q-13 -4 -24 -12.5
t-18 -22.5l-99 -230q-2 -7 -15 -7q-10 0 -13 7l-91 177q-1 4 -3.5 4t-4.5 -4l-84 -177q-3 -9 -16 -9z" />
  </g>

</svg>
