<?xml version="1.0" standalone="no"?>
<!DOCTYPE svg PUBLIC "-//W3C//DTD SVG 1.1//EN" "http://www.w3.org/Graphics/SVG/1.1/DTD/svg11.dtd" >
<svg xmlns="http://www.w3.org/2000/svg" xmlns:xlink="http://www.w3.org/1999/xlink" version="1.1" viewBox="-10 0 591 1000">
  <g transform="matrix(1 0 0 -1 0 800)">
   <path fill="currentColor"
d="M307 -287q-22 0 -33.5 4.5t-11.5 12.5t5 12.5t16 9.5q16 8 29 18.5t26 36.5q10 21 16 52t9.5 66t4.5 67.5t1 55.5v110q0 20 -9.5 26t-24.5 6h-76q-14 0 -24 -6t-10 -26v-88q0 -20 10 -26t24 -11q8 -3 13.5 -8t5.5 -13q0 -6 -5 -10.5t-11 -4.5q-20 0 -38 1.5t-34.5 2.5
t-34.5 1q-17 0 -36 -1t-39 -2.5t-40 -1.5q-6 0 -13 4t-7 11q0 8 7.5 13t15.5 8q15 5 26 11.5t11 26.5v283q0 20 -11 27t-26 11q-8 3 -15.5 8t-7.5 13q0 7 7 11t13 4q20 0 40 -1t39 -2.5t36 -1.5q18 0 34.5 1.5t34.5 2.5t38 1q6 0 11 -4.5t5 -10.5q0 -7 -5.5 -12.5
t-13.5 -8.5q-14 -5 -24 -11t-10 -26v-84q0 -20 10 -26t24 -6h76q15 0 24.5 6t9.5 26v84q0 20 -9.5 26t-24.5 11q-8 3 -13.5 8t-5.5 13q0 7 5 11t11 4q20 0 38.5 -1t36.5 -2.5t35 -1.5q18 0 36 1.5t37 2.5t39 1q6 0 11.5 -4t5.5 -11q0 -8 -6 -13.5t-14 -7.5q-15 -4 -26 -10.5
t-11 -26.5l1 -264q1 -31 -1.5 -72.5t-11 -86t-27.5 -84.5q-15 -34 -43.5 -65t-61.5 -50.5t-63 -19.5z" />
  </g>

</svg>
