<?xml version="1.0" standalone="no"?>
<!DOCTYPE svg PUBLIC "-//W3C//DTD SVG 1.1//EN" "http://www.w3.org/Graphics/SVG/1.1/DTD/svg11.dtd" >
<svg xmlns="http://www.w3.org/2000/svg" xmlns:xlink="http://www.w3.org/1999/xlink" version="1.1" viewBox="-10 0 549 1000">
  <g transform="matrix(1 0 0 -1 0 800)">
   <path fill="currentColor"
d="M296 -15q-81 0 -143 24.5t-97 72t-35 116.5q0 52 18.5 95.5t54 75.5t87 50t117.5 18q53 0 99 -10.5t74.5 -34t28.5 -64.5q0 -46 -25.5 -69.5t-58.5 -32.5q-5 -1 -6 -3t6 -4q45 -9 72 -31t27 -63q0 -46 -29.5 -77.5t-79 -47t-110.5 -15.5zM281 34q32 0 47 22t15 56
q0 35 -11.5 57t-40.5 22q-8 0 -15.5 -3.5t-24.5 -3.5q-11 0 -26 7t-15 27q0 18 11 24.5t29 6.5q11 0 20 -3.5t25 -3.5q29 0 44.5 23t15.5 54q0 28 -11 44t-27.5 22.5t-32.5 6.5q-44 0 -69 -20.5t-35.5 -58t-10.5 -89.5q0 -56 14.5 -99t40 -67t57.5 -24z" />
  </g>

</svg>
