<?xml version="1.0" standalone="no"?>
<!DOCTYPE svg PUBLIC "-//W3C//DTD SVG 1.1//EN" "http://www.w3.org/Graphics/SVG/1.1/DTD/svg11.dtd" >
<svg xmlns="http://www.w3.org/2000/svg" xmlns:xlink="http://www.w3.org/1999/xlink" version="1.1" viewBox="-10 0 792 1000">
  <g transform="matrix(1 0 0 -1 0 800)">
   <path fill="currentColor"
d="M705 -205q-13 0 -21.5 12.5t-8.5 30.5q0 17 -1.5 32t-1.5 28q0 56 -22.5 79.5t-61.5 23.5q-29 0 -67.5 -1.5t-70.5 -1.5q-7 0 -11.5 4t-4.5 11q0 10 5 14t14 7q39 11 51.5 23.5t13.5 40.5q4 117 6 238.5t-6 238.5q0 8 -3 12t-11 5q-18 2 -36 3.5t-36.5 2t-36.5 0.5
q-28 0 -57 -2l-58 -4q-14 -1 -16 -17q-12 -116 -9.5 -238t9.5 -239q2 -28 14 -40.5t51 -23.5q9 -3 14 -7t5 -14q0 -7 -4 -11t-12 -4q-21 0 -50 1t-57 2t-48 1t-46.5 -1t-52.5 -2.5t-45 -1.5q-6 0 -12 4t-6 11q0 17 19 22q34 8 47 20t13 43v454q0 32 -12.5 45t-47.5 22
q-19 5 -19 22q0 7 6 11t12 4q22 0 48 -1t51 -2.5t45 -1.5h109h109h105.5h104.5q20 0 45 1.5t51 2.5t48 1q6 0 12 -4t6 -11q0 -17 -19 -22q-35 -9 -47.5 -22t-12.5 -45v-431q0 -37 20.5 -51.5t44.5 -16.5q14 -1 14 -16q0 -12 -5.5 -43t-12 -71.5t-9.5 -78.5q-1 -25 -11 -36.5
t-24 -11.5z" />
  </g>

</svg>
