<?xml version="1.0" standalone="no"?>
<!DOCTYPE svg PUBLIC "-//W3C//DTD SVG 1.1//EN" "http://www.w3.org/Graphics/SVG/1.1/DTD/svg11.dtd" >
<svg xmlns="http://www.w3.org/2000/svg" xmlns:xlink="http://www.w3.org/1999/xlink" version="1.1" viewBox="-10 0 531 1000">
  <g transform="matrix(1 0 0 -1 0 800)">
   <path fill="currentColor"
d="M246 -14q-63 0 -114 27t-81 75t-30 109q0 49 19 92.5t53 76.5t78.5 52t96.5 19q65 0 117.5 -29t83.5 -77t31 -105q0 -65 -28.5 -120t-85 -87.5t-140.5 -32.5zM265 37q23 0 43 13t28 41q8 20 11 46t4 51v4.5v4.5q-8 -18 -21 -28.5t-27 -10.5q-11 0 -25 7.5t-29 14.5t-29 7
q-19 0 -30.5 -6.5t-17.5 -8.5q6 -37 19.5 -67.5t32.5 -49t41 -18.5zM169 222q8 17 23 28t30 11q12 0 25.5 -8t28.5 -15.5t29 -7.5q17 0 27 6t16 8q-5 38 -18 70t-32.5 52t-44.5 20q-19 0 -34.5 -7.5t-28.5 -30.5q-13 -22 -17 -54.5t-4 -64.5v-7z" />
  </g>

</svg>
