<?xml version="1.0" standalone="no"?>
<!DOCTYPE svg PUBLIC "-//W3C//DTD SVG 1.1//EN" "http://www.w3.org/Graphics/SVG/1.1/DTD/svg11.dtd" >
<svg xmlns="http://www.w3.org/2000/svg" xmlns:xlink="http://www.w3.org/1999/xlink" version="1.1" viewBox="-10 0 434 1000">
  <g transform="matrix(1 0 0 -1 0 800)">
   <path fill="currentColor"
d="M42 -43q-9 0 -16.5 9t-1.5 26q7 19 16.5 37t19.5 35q-18 27 -28.5 62.5t-10.5 78.5q0 62 29 114.5t80 85t117 32.5q35 0 73 -13.5t68 -45.5q8 -10 8 -18q0 -24 -18 -39.5t-38 -14.5q-20 0 -33 17q-17 24 -30 36t-26 16.5t-29 4.5q-29 0 -46.5 -17t-25.5 -48.5t-8 -74.5
q0 -41 12 -73q37 29 76 45.5t74 16.5q43 0 75.5 -22.5t32.5 -65.5q0 -41 -25.5 -76.5t-72.5 -57t-111 -21.5q-30 0 -57.5 10.5t-50.5 29.5q-6 -9 -10.5 -17.5t-9.5 -17.5q-7 -14 -12.5 -24t-20.5 -10zM271 77q29 0 45.5 11.5t16.5 30.5q0 17 -13 32.5t-36 15.5
q-25 0 -52 -12.5t-53 -33.5q36 -44 92 -44z" />
  </g>

</svg>
