<?xml version="1.0" standalone="no"?>
<!DOCTYPE svg PUBLIC "-//W3C//DTD SVG 1.1//EN" "http://www.w3.org/Graphics/SVG/1.1/DTD/svg11.dtd" >
<svg xmlns="http://www.w3.org/2000/svg" xmlns:xlink="http://www.w3.org/1999/xlink" version="1.1" viewBox="-10 0 793 1000">
  <g transform="matrix(1 0 0 -1 0 800)">
   <path fill="currentColor"
d="M540 -240q-147 0 -147 60q0 21 18 40.5t36 19.5q11 0 21.5 -6t19.5 -17q20 -25 29.5 -40t20.5 -15q23 0 38.5 25.5t21.5 85.5t-1 163l49 -142l-342 343q-7 8 -13 12t-11 4q-4 0 -7.5 -4t-3.5 -12q0 -45 0.5 -89.5t2.5 -89.5q1 -18 4.5 -29.5t15 -19t37.5 -15.5
q9 -3 17 -7t8 -14q0 -7 -9 -12t-19 -5q-32 0 -57 2t-45.5 4t-40.5 2t-39 -2.5t-42.5 -5t-58.5 -2.5q-9 0 -18.5 5.5t-9.5 12.5q0 17 25 22q38 8 49 20t11 43v454q0 32 -13 45t-53 22q-19 5 -19 22q0 7 6 11t12 4q22 0 49.5 -1t54 -2.5t46.5 -1.5t48 1t57 2t50 1q8 0 12 -3.5
t4 -11.5q0 -10 -5 -14t-14 -7q-41 -12 -53 -25t-12 -43v-207q0 -8 3.5 -11.5t7.5 -3.5q5 0 10.5 4t13.5 11l191 208q8 9 13.5 16.5t5.5 14.5q0 22 -46 32q-9 2 -14 7.5t-5 14.5q0 7 6 11t12 4h72q35 0 66.5 0.5t65 1.5t74.5 1q10 0 18.5 -3.5t8.5 -11.5q0 -10 -10.5 -14.5
t-19.5 -6.5q-53 -7 -89.5 -23.5t-64.5 -37.5q-29 -22 -56.5 -48t-55 -54t-57.5 -55q-7 -7 -7.5 -15.5t7.5 -16.5l347 -341q-5 -23 -16 -51.5t-26.5 -57.5t-35.5 -55q-32 -43 -71 -73t-78 -30z" />
  </g>

</svg>
