<?xml version="1.0" standalone="no"?>
<!DOCTYPE svg PUBLIC "-//W3C//DTD SVG 1.1//EN" "http://www.w3.org/Graphics/SVG/1.1/DTD/svg11.dtd" >
<svg xmlns="http://www.w3.org/2000/svg" xmlns:xlink="http://www.w3.org/1999/xlink" version="1.1" viewBox="-10 0 748 1000">
  <g transform="matrix(1 0 0 -1 0 800)">
   <path fill="currentColor"
d="M666 -205q-13 0 -21 12.5t-9 30.5q-1 16 -1 29.5v25.5q0 51 -16.5 70t-45.5 21q-50 4 -84 32.5t-58.5 69t-47.5 80.5l-61 107q-9 15 -16.5 24.5t-17.5 13.5q-4 2 -6 2h-5q-8 0 -8 -15l3 -200q1 -18 4.5 -29.5t15 -19t37.5 -15.5q9 -3 17 -7t8 -14q0 -7 -9 -12t-19 -5
q-32 0 -57 2t-45.5 4t-40.5 2t-39 -2.5t-42.5 -5t-58.5 -2.5q-9 0 -18.5 5.5t-9.5 12.5q0 17 25 22q38 8 49 20t11 43v454q0 32 -13 45t-53 22q-19 5 -19 22q0 7 6 11t12 4q22 0 49.5 -1t54 -2.5t46.5 -1.5t48 1t57 2t50 1q8 0 12 -3.5t4 -11.5q0 -10 -5 -14t-14 -7
q-41 -12 -53 -25t-12 -43v-178q0 -15 11 -15h20q34 0 58.5 29t41.5 69l34 82q15 35 31 64t42.5 46t70.5 17t65.5 -22t21.5 -51q0 -22 -12.5 -46t-41.5 -24q-20 0 -40 11t-37 11q-19 0 -36.5 -11.5t-28.5 -39.5l-28 -72q-7 -20 -20.5 -34.5t-29.5 -22.5q-6 -3 -3.5 -7t6.5 -5
q45 -6 70.5 -27t52.5 -69l38 -67q21 -37 45.5 -69t52.5 -52t58 -20q9 0 12.5 -5t3.5 -11q0 -11 -6 -41.5t-12.5 -69.5t-8.5 -77q-1 -25 -11 -36.5t-24 -11.5z" />
  </g>

</svg>
