<?xml version="1.0" standalone="no"?>
<!DOCTYPE svg PUBLIC "-//W3C//DTD SVG 1.1//EN" "http://www.w3.org/Graphics/SVG/1.1/DTD/svg11.dtd" >
<svg xmlns="http://www.w3.org/2000/svg" xmlns:xlink="http://www.w3.org/1999/xlink" version="1.1" viewBox="-10 0 1002 1000">
  <g transform="matrix(1 0 0 -1 0 800)">
   <path fill="currentColor"
d="M661 -287q-6 0 -12 4t-6 11q0 17 19 22q38 10 52 21t14 42l5 610q1 89 -28 134t-97 46q-23 1 -50 -4.5t-54 -22.5l-56 22q29 23 77 44t125 21q132 0 193.5 -74t59.5 -220l-5 -555q0 -28 13.5 -39.5t51.5 -24.5q9 -3 14 -7t5 -14q0 -7 -4 -11t-12 -4q-21 0 -50 1t-57 2
t-48 1t-46.5 -1t-54 -2.5t-49.5 -1.5zM337 -14q-62 0 -118.5 23.5t-100 67t-68.5 104t-25 134.5q0 68 20.5 130.5t61 111.5t100.5 78t138 29q70 0 127.5 -22.5t98.5 -65.5t63.5 -103.5t22.5 -137.5q0 -67 -20.5 -130t-61.5 -112t-100.5 -78t-137.5 -29zM363 39q62 0 88.5 67
t26.5 177q0 92 -15.5 166.5t-49.5 118.5t-92 44q-41 0 -67 -31t-38 -86t-12 -128q0 -93 16 -167.5t51 -117.5t92 -43z" />
  </g>

</svg>
