<?xml version="1.0" standalone="no"?>
<!DOCTYPE svg PUBLIC "-//W3C//DTD SVG 1.1//EN" "http://www.w3.org/Graphics/SVG/1.1/DTD/svg11.dtd" >
<svg xmlns="http://www.w3.org/2000/svg" xmlns:xlink="http://www.w3.org/1999/xlink" version="1.1" viewBox="-10 0 943 1000">
  <g transform="matrix(1 0 0 -1 0 800)">
   <path fill="currentColor"
d="M856 -205q-13 0 -21.5 12.5t-8.5 30.5q0 17 -1.5 32t-1.5 28q0 56 -22.5 79t-61.5 23h-412q-20 0 -45 -1t-51 -2.5t-48 -1.5q-6 0 -12 4t-6 11q0 17 19 22q35 9 47.5 22t12.5 45v474q0 22 -2 26.5t-6 5.5q-4 2 -12 2.5t-11 0.5h-13q-33 0 -63 -17t-48 -41q-5 -7 -15 -20
t-21 -23t-22 -10q-9 0 -12.5 5.5t-3.5 12.5q0 13 7 27q20 39 29 67t13 65q2 14 9 20t17 6q8 0 16 -13t18 -21q11 -8 35 -12t37 -4l242 1q23 0 39.5 5t23.5 9q16 11 26.5 22.5t23.5 11.5q7 0 9.5 -4t2.5 -12v-9t-2 -10q-5 -20 -10.5 -39.5t-9 -37.5t-3.5 -36v-21
q0 -18 -3.5 -27.5t-13.5 -9.5t-18 8.5t-12 30.5q-7 40 -20 58t-38 18h-6q-5 0 -8 -2.5t-4 -8.5t-1 -18v-507q0 -7 4 -12t12 -5h214q8 0 11 4.5t3 12.5v482q0 19 -3 29t-14.5 17.5t-37.5 15.5q-9 3 -14 7t-5 14q0 8 4.5 11.5t11.5 3.5q21 0 47.5 -1t52.5 -2t45 -1
q20 0 46.5 1.5t52.5 2.5t45 1q6 0 12 -4t6 -11q0 -17 -19 -22q-34 -8 -47 -20t-13 -43v-433q0 -25 11 -39.5t28 -21t35 -7.5q9 -1 12.5 -5.5t3.5 -10.5q0 -12 -6 -43t-12.5 -71.5t-8.5 -78.5q-1 -25 -11 -36.5t-24 -11.5z" />
  </g>

</svg>
