<?xml version="1.0" standalone="no"?>
<!DOCTYPE svg PUBLIC "-//W3C//DTD SVG 1.1//EN" "http://www.w3.org/Graphics/SVG/1.1/DTD/svg11.dtd" >
<svg xmlns="http://www.w3.org/2000/svg" xmlns:xlink="http://www.w3.org/1999/xlink" version="1.1" viewBox="-10 0 557 1000">
  <g transform="matrix(1 0 0 -1 0 800)">
   <path fill="currentColor"
d="M279 -14q-35 0 -63 6.5t-49 12.5t-35 6q-10 0 -20 -3.5t-18 -9.5q-10 -7 -16 -7q-10 0 -14.5 4t-4.5 9q0 9 6 36t5 70l-5 436q0 27 -6 47.5t-31 24.5q-12 2 -12 16q0 13 11 15q24 5 54.5 14.5t59.5 20.5t46 17q10 4 15 4q7 0 9.5 -4t2.5 -9q0 -7 -2.5 -23.5t-2.5 -30.5
l-1 -235q0 -10 2.5 -18.5t6.5 -8.5q30 22 61.5 31.5t61.5 9.5q54 0 96.5 -27t66.5 -72.5t24 -101.5q0 -58 -27 -110.5t-81.5 -86t-139.5 -33.5zM295 31q25 0 42 22t26.5 58.5t9.5 78.5q0 38 -9.5 76.5t-30 64.5t-53.5 26q-13 0 -26.5 -6t-26.5 -17q-10 -10 -14.5 -25.5
t-4.5 -47.5v-125q0 -31 12.5 -54.5t32.5 -37t42 -13.5zM27 474q-13 0 -18.5 10.5t-5.5 20.5q0 14 8 22.5t21 8.5h322q10 0 16.5 -5.5t6.5 -13.5q0 -1 -0.5 -2t-0.5 -3q-3 -13 -14 -25.5t-28 -12.5h-307z" />
  </g>

</svg>
