<?xml version="1.0" standalone="no"?>
<!DOCTYPE svg PUBLIC "-//W3C//DTD SVG 1.1//EN" "http://www.w3.org/Graphics/SVG/1.1/DTD/svg11.dtd" >
<svg xmlns="http://www.w3.org/2000/svg" xmlns:xlink="http://www.w3.org/1999/xlink" version="1.1" viewBox="-10 0 830 1000">
  <g transform="matrix(1 0 0 -1 0 800)">
   <path fill="currentColor"
d="M216 -14q-63 0 -106.5 31.5t-66 80t-22.5 98.5q0 67 29.5 120.5t84 85t129.5 31.5q12 0 23.5 -2t22 -5.5t16.5 -6.5q4 -1 6.5 -3t3.5 -2q2 0 2 1l-1 131q0 27 -6 47.5t-31 24.5q-12 2 -12 16q0 13 11 15q24 5 54.5 14.5t59.5 20.5t46 17q8 3 11 3.5t7 0.5q7 0 9.5 -4
t2.5 -9q0 -7 -2 -23.5t-3 -30.5l-3 -230q0 -5 2.5 -8.5t5.5 -3.5q30 22 61.5 31.5t61.5 9.5q54 0 96.5 -28.5t66.5 -76t24 -105.5q0 -61 -27 -116t-81.5 -90t-139.5 -35q-35 0 -63 6.5t-49 12.5t-35 6q-17 0 -32 -10t-22 -10q-10 0 -14.5 4t-4.5 9q0 4 3 13.5t3 19.5v5
q-18 -21 -48.5 -38.5t-72.5 -17.5zM271 55q28 0 48.5 22.5t20.5 57.5v170q-1 21 -12.5 39t-29.5 29t-40 11q-13 0 -28 -8.5t-27 -27.5t-20 -49.5t-8 -74.5q0 -54 10.5 -87.5t26.5 -51t32 -24t27 -6.5zM567 31q25 0 42 23.5t26.5 62t9.5 83.5q0 40 -9.5 81t-30 68.5
t-53.5 27.5q-13 0 -26.5 -7t-26.5 -18q-10 -10 -14.5 -27t-4.5 -50v-133q0 -32 12.5 -57.5t32.5 -39.5t42 -14z" />
  </g>

</svg>
