<?xml version="1.0" standalone="no"?>
<!DOCTYPE svg PUBLIC "-//W3C//DTD SVG 1.1//EN" "http://www.w3.org/Graphics/SVG/1.1/DTD/svg11.dtd" >
<svg xmlns="http://www.w3.org/2000/svg" xmlns:xlink="http://www.w3.org/1999/xlink" version="1.1" viewBox="-10 0 757 1000">
  <g transform="matrix(1 0 0 -1 0 800)">
   <path fill="currentColor"
d="M101 -18q-43 0 -64.5 22t-21.5 51q0 23 8 39.5t27 16.5q33 -7 56.5 -10t39.5 -3q25 0 46 23.5t36.5 76t24.5 139.5t9 214q0 30 -22 43t-71 24q-19 5 -19 22q0 7 6 11t12 4q22 0 51.5 -1t58 -2.5t48.5 -1.5h28.5h16h25.5h56.5h108.5q20 0 48 1t57 2t50 1q8 0 12 -3.5
t4 -11.5q0 -10 -5 -14t-14 -7q-41 -12 -53 -25t-12 -43v-452q0 -28 13 -40.5t52 -23.5q9 -3 14 -7t5 -14q0 -7 -4 -11t-12 -4q-21 0 -50 1t-57 2t-48 1t-46.5 -1t-54 -2.5t-49.5 -1.5q-6 0 -12 4t-6 11q0 17 19 22q38 8 52 20t14 43v429q0 32 -12.5 49.5t-53.5 17.5h-33
q-32 0 -43.5 -13t-11.5 -36q0 -141 -15 -239t-39.5 -161.5t-54 -98.5t-59.5 -49t-55 -14z" />
  </g>

</svg>
