<?xml version="1.0" standalone="no"?>
<!DOCTYPE svg PUBLIC "-//W3C//DTD SVG 1.1//EN" "http://www.w3.org/Graphics/SVG/1.1/DTD/svg11.dtd" >
<svg xmlns="http://www.w3.org/2000/svg" xmlns:xlink="http://www.w3.org/1999/xlink" version="1.1" viewBox="-135 0 270 1000">
  <g transform="matrix(1 0 0 -1 0 800)">
   <path fill="currentColor"
d="M1 675q-10 0 -18 -10.5t-21 -32.5q-10 -17 -20 -33.5l-20 -33t-19.5 -33t-18.5 -33.5q-10 -18 -8 -31.5t18 -13.5q8 0 18 8.5t25 25.5q11 12 25 28.5t33 35.5q5 4 6.5 4t5.5 -4q19 -19 33.5 -35.5t24.5 -28.5q15 -17 25.5 -25.5t17.5 -8.5q10 0 15 13t-5 32q-9 17 -19 34
t-20 33.5t-20 33.5l-20 34q-11 19 -19 30t-19 11z" />
  </g>

</svg>
