<?xml version="1.0" standalone="no"?>
<!DOCTYPE svg PUBLIC "-//W3C//DTD SVG 1.1//EN" "http://www.w3.org/Graphics/SVG/1.1/DTD/svg11.dtd" >
<svg xmlns="http://www.w3.org/2000/svg" xmlns:xlink="http://www.w3.org/1999/xlink" version="1.1" viewBox="-176 0 353 1000">
  <g transform="matrix(1 0 0 -1 0 800)">
   <path fill="currentColor"
d="M-146 853q6 0 23 -5t38 -12.5t41 -15.5t32 -15q7 -4 13 -4t13 4q13 7 33 15.5t41 16t38 12.5t24 5q17 0 17 -14q0 -10 -8 -17l-105 -95q-18 -16 -28 -23t-25 -7q-14 0 -24 7t-28 23l-106 96q-9 8 -9 16q0 13 20 13z" />
  </g>

</svg>
