<?xml version="1.0" standalone="no"?>
<!DOCTYPE svg PUBLIC "-//W3C//DTD SVG 1.1//EN" "http://www.w3.org/Graphics/SVG/1.1/DTD/svg11.dtd" >
<svg xmlns="http://www.w3.org/2000/svg" xmlns:xlink="http://www.w3.org/1999/xlink" version="1.1" viewBox="-10 0 598 1000">
  <g transform="matrix(1 0 0 -1 0 800)">
   <path fill="currentColor"
d="M203 -14q-34 0 -70.5 5t-63.5 16.5t-32 30.5q-4 23 -5 39.5t-1 33.5q0 28 16 28q4 0 9.5 -9.5t9.5 -19.5q20 -42 50.5 -59t56.5 -17q24 0 42 22t18 56q0 35 -11.5 57t-40.5 22q-8 0 -15.5 -3.5t-24.5 -3.5q-11 0 -26 7t-15 27q0 18 11 24.5t29 6.5q11 0 20 -3.5t25 -3.5
q29 0 41 23t12 54q0 35 -8.5 50.5t-21 19.5t-24.5 4q-29 0 -46.5 -14.5t-39.5 -44.5q-9 -13 -17 -28t-18 -15t-11 7t-1 17q0 14 0.5 21t2 15t3.5 23q1 8 4.5 17.5t10.5 12.5q15 6 36 13.5t50 13.5t66 6q53 0 97 -14.5t60 -52.5l87 62q5 4 11 5.5t8 1.5q10 0 20.5 -9.5
t10.5 -20.5q0 -2 -0.5 -3.5t-1.5 -3t-3 -3.5q-9 -9 -17.5 -24t-11.5 -30t2 -25.5t21 -10.5q9 0 18.5 6.5t17 13t10.5 6.5q14 0 19.5 -7t5.5 -18q0 -9 -14.5 -29.5t-37.5 -38t-51 -17.5q-22 0 -36.5 18.5t-14.5 45.5q0 15 5 31.5t15 32.5l-57 -46q-4 -34 -28.5 -53.5
t-52.5 -27.5q-5 -1 -6 -3t6 -4q45 -9 72 -31t27 -63q0 -46 -27.5 -77t-73 -46.5t-101.5 -15.5z" />
  </g>

</svg>
