<?xml version="1.0" standalone="no"?>
<!DOCTYPE svg PUBLIC "-//W3C//DTD SVG 1.1//EN" "http://www.w3.org/Graphics/SVG/1.1/DTD/svg11.dtd" >
<svg xmlns="http://www.w3.org/2000/svg" xmlns:xlink="http://www.w3.org/1999/xlink" version="1.1" viewBox="-10 0 753 1000">
  <g transform="matrix(1 0 0 -1 0 800)">
   <path fill="currentColor"
d="M35 -3q-6 0 -9 4t-3 8t3.5 8.5t9.5 5.5q23 8 32 13.5t9 24.5v298q0 20 -8.5 27.5t-34.5 14.5q-8 2 -11 6t-3 7q0 5 3.5 8.5t9.5 3.5q26 0 44 -1.5t34.5 -3.5t36.5 -2q21 0 38 2t36.5 3.5t44.5 1.5q6 0 9.5 -3.5t3.5 -8.5q0 -3 -3 -7t-11 -6q-26 -7 -34.5 -14.5
t-8.5 -27.5v-103q0 -7 4 -9t8 -1q11 5 32 8.5t40 3.5q26 0 52.5 -6.5t48.5 -20.5t35 -36t13 -53q0 -55 -27 -87t-70 -45t-93 -13q-21 0 -40.5 1t-39 1.5t-40.5 0.5q-14 0 -35 -0.5t-42 -1.5t-34 -1zM250 40q21 0 36.5 22.5t15.5 66.5q0 39 -15.5 60t-41.5 21q-11 0 -16 -4
q-3 -2 -4.5 -6t-1.5 -10v-110q0 -16 6 -28t21 -12zM463 -3q-6 0 -11 4t-5 10q0 8 4.5 13t12.5 7q27 7 37.5 14t10.5 23v289q0 16 -10.5 23t-37.5 14q-8 2 -12.5 7.5t-4.5 12.5q0 6 5 10t11 4q20 0 41 -1t41.5 -2.5t37.5 -1.5q18 0 39.5 1t44 2t41.5 1q7 0 11 -3.5t4 -10.5
q0 -8 -5 -12t-13 -7q-28 -9 -38 -17t-10 -21v-287q0 -13 10 -21t38 -17q8 -3 13 -7t5 -12q0 -7 -4 -10.5t-11 -3.5q-19 0 -41.5 1t-44 2t-39.5 1q-17 0 -37.5 -1t-41.5 -2.5t-41 -1.5zM475 491q-31 0 -53.5 22.5t-22.5 53.5q0 33 22.5 55t53.5 22q34 0 57 -22t23 -55
q0 -31 -23 -53.5t-57 -22.5zM277 491q-31 0 -53.5 22.5t-22.5 53.5q0 33 22.5 55t53.5 22q34 0 57 -22t23 -55q0 -31 -23 -53.5t-57 -22.5z" />
  </g>

</svg>
