<?xml version="1.0" standalone="no"?>
<!DOCTYPE svg PUBLIC "-//W3C//DTD SVG 1.1//EN" "http://www.w3.org/Graphics/SVG/1.1/DTD/svg11.dtd" >
<svg xmlns="http://www.w3.org/2000/svg" xmlns:xlink="http://www.w3.org/1999/xlink" version="1.1" viewBox="-10 0 593 1000">
  <g transform="matrix(1 0 0 -1 0 800)">
   <path fill="currentColor"
d="M35 -3q-20 0 -20 15q0 8 6 12.5t17 8.5q15 5 26 10.5t11 27.5v475q0 27 -6.5 47t-31.5 25q-11 2 -11 16q0 13 10 15q25 5 57 15.5t61.5 21.5t44.5 16q9 3 14 3q7 0 9 -4t2 -9q0 -7 -2 -23.5t-3 -30.5l1 -384q0 -13 9 -13q3 0 6.5 2t5.5 3q36 32 65.5 65.5t39.5 49.5
q4 6 6.5 10.5t2.5 7.5q0 5 -8 10.5t-25 7.5q-12 2 -12 12q0 9 7.5 11.5t14.5 2.5h49q18 0 49.5 1.5t62 4t43.5 3.5q11 0 11 -12q0 -8 -6 -13.5t-17 -7.5q-17 -4 -41 -14t-50 -25q-19 -10 -38 -22.5t-35.5 -25.5t-29.5 -26q-5 -5 -5 -11q0 -4 2.5 -6.5t4.5 -5.5
q24 -31 44 -60.5t41 -57.5t47 -58q17 -19 41.5 -34.5t40.5 -21.5q8 -3 17.5 -7t9.5 -12q0 -15 -22 -15q-65 0 -124.5 1.5t-109.5 1.5q-20 0 -20 15q0 8 6 12.5t17 8.5q8 3 10.5 6.5t3.5 7.5q0 5 -3.5 10.5t-9.5 13.5l-91 133q-2 2 -4 2q-6 -2 -6 -8v-30.5v-30.5v-34.5v-35.5
q0 -16 6.5 -23.5t22.5 -12.5q8 -3 14 -8t6 -13q0 -7 -4.5 -11.5t-12.5 -4.5q-20 0 -38 1.5t-35 2.5t-35 1q-17 0 -34.5 -1t-36 -2.5t-38.5 -1.5zM248 -293q-23 0 -23 13q0 10 15 17q20 9 36 25.5t16 41.5q0 22 -11 32.5t-33 15.5q-18 5 -28 16.5t-10 34.5q0 20 17 34t48 14
q45 0 72 -29t27 -73q0 -35 -15 -61.5t-37 -44.5t-42.5 -27t-31.5 -9z" />
  </g>

</svg>
