<?xml version="1.0" standalone="no"?>
<!DOCTYPE svg PUBLIC "-//W3C//DTD SVG 1.1//EN" "http://www.w3.org/Graphics/SVG/1.1/DTD/svg11.dtd" >
<svg xmlns="http://www.w3.org/2000/svg" xmlns:xlink="http://www.w3.org/1999/xlink" version="1.1" viewBox="-10 0 695 1000">
  <g transform="matrix(1 0 0 -1 0 800)">
   <path fill="currentColor"
d="M552 -169q-12 0 -18.5 9t-6.5 20q0 4 1.5 10t3.5 15q3 9 7.5 27.5t8 36.5t3.5 26q0 16 -11 21.5t-38 5.5q-15 0 -34 -0.5t-37.5 -1.5t-34.5 -1q-6 0 -10.5 3t-4.5 8q0 6 5 10t10 5q30 8 41.5 14t10.5 24q-3 53 -7.5 104.5t-4.5 98.5q0 2 -2 2t-4 -4l-103 -252
q-8 -21 -23 -21q-14 0 -24 21l-116 262q-4 8 -8 5t-6 -14q-2 -13 -4.5 -32.5t-4.5 -41.5t-3 -44t-2 -40t-1 -29q0 -30 15 -37.5t46 -15.5q6 -1 12.5 -4t6.5 -10q0 -6 -6 -8.5t-11 -2.5q-20 0 -31.5 0.5t-21.5 0.5h-26q-18 0 -40.5 -0.5t-37 -1t-9.5 -0.5q-9 0 -12.5 4
t-3.5 9q0 6 7 9t12 5q17 8 29 17t14 28l30 259q4 29 -8.5 47t-44.5 25q-10 2 -16 5t-6 10q0 6 5.5 9t12.5 3q13 0 29.5 -0.5t36 -1.5t40.5 -1q13 -1 26.5 -1t26.5 1q6 0 12 -4t7 -8l112 -233q3 -6 6 -6t6 6l84 196q5 20 11 31.5t19 11.5h34q36 0 68.5 4t54.5 4q11 0 16 -2.5
t5 -9.5t-6 -8.5t-11 -3.5q-24 -7 -40.5 -28t-14.5 -51q5 -65 8 -106.5t5 -73t5 -66.5q2 -17 7 -27t19.5 -16t41.5 -11q8 -1 10 -7t0 -11q-3 -9 -16.5 -31t-29 -49.5t-25.5 -53.5q-9 -24 -19 -33t-27 -9z" />
  </g>

</svg>
