<?xml version="1.0" standalone="no"?>
<!DOCTYPE svg PUBLIC "-//W3C//DTD SVG 1.1//EN" "http://www.w3.org/Graphics/SVG/1.1/DTD/svg11.dtd" >
<svg xmlns="http://www.w3.org/2000/svg" xmlns:xlink="http://www.w3.org/1999/xlink" version="1.1" viewBox="-10 0 670 1000">
  <g transform="matrix(1 0 0 -1 0 800)">
   <path fill="currentColor"
d="M73 -5q-9 0 -14 5t-5 11q0 15 20 21q33 10 46.5 21t13.5 42v365q0 15 -7.5 22.5t-25.5 7.5h-68q-10 0 -16.5 4.5t-6.5 10.5q0 12 13.5 23.5t29.5 11.5h63q10 0 14 4t4 11v26q0 32 -13 45t-53 22q-19 5 -19 22q0 7 6 11t12 4q22 0 49.5 -1t54 -2.5t46.5 -1.5t48 1t57 2
t50 1q8 0 12 -3.5t4 -11.5q0 -10 -5 -14t-14 -7q-41 -12 -53.5 -25t-12.5 -43v-24q0 -9 3.5 -12.5t13.5 -3.5h124q10 0 16.5 -4.5t6.5 -10.5q0 -12 -13 -23.5t-30 -11.5h-95q-12 0 -19 -5.5t-7 -18.5v-86q0 -16 5.5 -22t15.5 -6q5 0 11.5 0.5t12.5 1.5q13 2 34.5 4.5
t47.5 2.5q94 0 149.5 -45t55.5 -127q0 -54 -18 -86t-42 -48.5t-43 -26.5q-31 -17 -69.5 -24.5t-89.5 -7.5q-6 0 -19.5 1t-44.5 2t-92 1q-20 0 -46 -1t-52 -2.5t-46 -1.5zM353 36q28 0 50 21.5t35.5 55.5t13.5 72q0 34 -8 56t-19 35.5t-20 19.5q-8 6 -25 13t-41 7h-7.5
t-7.5 -2q-9 -2 -14.5 -8t-5.5 -20v-192q0 -13 2.5 -24t9.5 -19q7 -7 16 -11t21 -4z" />
  </g>

</svg>
