<?xml version="1.0" standalone="no"?>
<!DOCTYPE svg PUBLIC "-//W3C//DTD SVG 1.1//EN" "http://www.w3.org/Graphics/SVG/1.1/DTD/svg11.dtd" >
<svg xmlns="http://www.w3.org/2000/svg" xmlns:xlink="http://www.w3.org/1999/xlink" version="1.1" viewBox="-10 0 554 1000">
  <g transform="matrix(1 0 0 -1 0 800)">
   <path fill="currentColor"
d="M57 -156q-10 0 -17.5 8.5t-9.5 27.5q-1 30 -6 60.5t-9.5 54t-4.5 32.5q0 5 3.5 11t10.5 6q5 0 14 -2t18 -2q21 0 36.5 24.5t26.5 67t16.5 98t5.5 118.5q0 26 -10.5 32.5t-29.5 11.5q-13 4 -20 7.5t-7 13.5q0 7 7 11t13 4q30 0 59.5 -2.5t55.5 -2.5h171q26 0 54 2.5
t58 2.5q6 0 11.5 -4t5.5 -11q0 -8 -6 -13t-14 -8q-15 -4 -26 -10.5t-11 -26.5v-268q0 -22 5.5 -34t21.5 -12q5 0 13 1t15 1t12 -2t5 -7q0 -3 -1 -6q-4 -11 -9.5 -25.5t-10 -42.5t-6.5 -80q-1 -19 -8 -27.5t-18 -8.5q-10 0 -17 9.5t-7 23.5q0 10 -0.5 20.5t-2.5 29.5
q-4 31 -19.5 52t-52.5 21h-216q-37 0 -51.5 -22t-19.5 -60q-1 -9 -2.5 -19.5t-1.5 -21.5q0 -14 -7 -23.5t-17 -9.5zM178 47h109q13 0 16.5 6.5t3.5 16.5v274q0 14 -4.5 20.5t-12 9t-17.5 2.5h-47q-10 0 -16.5 -5.5t-9.5 -13t-3 -15.5q0 -37 -4 -84.5t-12.5 -94.5t-20.5 -83
q-2 -7 -4 -11.5t-2 -9.5q0 -9 7.5 -10.5t16.5 -1.5z" />
  </g>

</svg>
