<?xml version="1.0" standalone="no"?>
<!DOCTYPE svg PUBLIC "-//W3C//DTD SVG 1.1//EN" "http://www.w3.org/Graphics/SVG/1.1/DTD/svg11.dtd" >
<svg xmlns="http://www.w3.org/2000/svg" xmlns:xlink="http://www.w3.org/1999/xlink" version="1.1" viewBox="-10 0 573 1000">
  <g transform="matrix(1 0 0 -1 0 800)">
   <path fill="currentColor"
d="M362 -288q-52 0 -86 31t-50.5 85.5t-16.5 123.5v110q0 6 -1.5 10.5t-5.5 4.5q-15 -20 -36 -41.5t-45.5 -35.5t-50.5 -14q-37 0 -52 14t-15 36q0 16 9 35.5t23.5 33.5t29.5 14q10 0 21 -5t21 -10q11 -5 21 -9.5t17 -4.5q18 0 30.5 8t19.5 29.5t7 59.5v97q0 36 -10.5 48.5
t-32.5 15.5q-6 1 -9 6.5t-3 12.5q0 16 12 18q54 11 98 29.5t67 28.5q18 8 22 8q14 0 14 -14q-2 -28 -7.5 -70t-5.5 -79v-258q0 -101 5.5 -158t16 -80t25.5 -23q19 0 24.5 12.5t5.5 30.5q0 12 12 26.5t30.5 27.5t37.5 21.5t32 8.5q12 0 14.5 -14.5t2.5 -33.5q0 -41 -25.5 -72
t-68.5 -47.5t-97 -16.5z" />
  </g>

</svg>
