<?xml version="1.0" standalone="no"?>
<!DOCTYPE svg PUBLIC "-//W3C//DTD SVG 1.1//EN" "http://www.w3.org/Graphics/SVG/1.1/DTD/svg11.dtd" >
<svg xmlns="http://www.w3.org/2000/svg" xmlns:xlink="http://www.w3.org/1999/xlink" version="1.1" viewBox="-10 0 457 1000">
  <g transform="matrix(1 0 0 -1 0 800)">
   <path fill="currentColor"
d="M257 -11q-82 0 -123 50.5t-41 133.5v378q0 32 -13 45t-53 22q-19 5 -19 22q0 7 6 11t12 4q22 0 49.5 -1t54 -2.5t46.5 -1.5t48 1t57 2t50 1q8 0 12 -3.5t4 -11.5q0 -10 -5 -14t-14 -7q-41 -12 -53 -25t-12 -43v-345q0 -67 15.5 -94.5t51.5 -27.5q20 0 36 9t29 19
q6 5 10.5 8t8.5 3q8 0 15.5 -6t7.5 -20q0 -10 -3.5 -19.5t-11.5 -18.5q-22 -23 -63 -46t-102 -23z" />
  </g>

</svg>
