<?xml version="1.0" standalone="no"?>
<!DOCTYPE svg PUBLIC "-//W3C//DTD SVG 1.1//EN" "http://www.w3.org/Graphics/SVG/1.1/DTD/svg11.dtd" >
<svg xmlns="http://www.w3.org/2000/svg" xmlns:xlink="http://www.w3.org/1999/xlink" version="1.1" viewBox="-10 0 646 1000">
  <g transform="matrix(1 0 0 -1 0 800)">
   <path fill="currentColor"
d="M295 -9q-71 0 -130 26t-94.5 74.5t-35.5 114.5q0 56 34 108t97.5 85t152.5 33q17 0 38 -2t42 -6q5 -1 8 1t3 12v12q0 32 13 63.5t35.5 57t52.5 41t64 15.5q25 0 38 -12.5t13 -31.5q0 -14 -5.5 -30.5t-16 -28t-26.5 -11.5q-6 0 -11 4.5t-10 10.5t-11 11t-13 5
q-13 0 -24 -27.5t-11 -96.5v-107q0 -11 -3.5 -17t-9.5 -6q-10 0 -14 2.5t-8 8.5q-7 14 -18.5 32t-25.5 30q-16 15 -34.5 22t-47.5 7q-48 0 -81 -22.5t-50 -59.5t-17 -79q0 -56 11 -100.5t37.5 -70t71.5 -25.5q11 0 18.5 3.5t11.5 10.5q7 12 9 32q1 6 1 19.5t0.5 27t0.5 19.5
q0 7 -5 14t-19 9q-12 2 -18.5 4.5t-16.5 5.5q-8 2 -13.5 6t-5.5 10q0 5 5 7.5t12 2.5q16 0 40.5 -1t48.5 -2t37 -1q23 0 50 1.5t52 1.5q8 0 11.5 -2.5t3.5 -7.5q0 -10 -14 -14q-33 -8 -41 -21t-8 -36v-48q0 -4 4 -7t8 -7q7 -6 7 -16q0 -6 -4.5 -10t-13.5 -5q-8 -1 -29 -10.5
t-57 -19t-89 -9.5z" />
  </g>

</svg>
