<?xml version="1.0" standalone="no"?>
<!DOCTYPE svg PUBLIC "-//W3C//DTD SVG 1.1//EN" "http://www.w3.org/Graphics/SVG/1.1/DTD/svg11.dtd" >
<svg xmlns="http://www.w3.org/2000/svg" xmlns:xlink="http://www.w3.org/1999/xlink" version="1.1" viewBox="-10 0 713 1000">
  <g transform="matrix(1 0 0 -1 0 800)">
   <path fill="currentColor"
d="M161 -14q-49 0 -79.5 28t-44.5 71t-14 86q0 62 29.5 111t80 83.5t112.5 52.5t127 18q57 0 111.5 -15t99 -44t71 -71.5t26.5 -97.5q0 -65 -31 -115t-83 -78.5t-115 -28.5q-47 0 -76 16t-43 49q-5 12 -10 12q-3 0 -6.5 -8.5t-10.5 -16.5q-13 -14 -30 -26t-43.5 -19
t-70.5 -7zM228 55q28 0 47.5 24.5t19.5 56.5q0 27 -3.5 53.5t-3.5 66.5q0 38 27 52t63 14q27 0 35.5 -23t8.5 -47q0 -28 -2.5 -57t-4.5 -50.5t-2 -29.5q0 -21 14.5 -40.5t33.5 -19.5q24 0 38.5 19.5t21.5 49.5t7 61q0 66 -24.5 109t-63 64.5t-82.5 21.5q-50 0 -92 -21
t-67 -60t-25 -94q0 -32 5 -67t16.5 -59t32.5 -24z" />
  </g>

</svg>
