<?xml version="1.0" standalone="no"?>
<!DOCTYPE svg PUBLIC "-//W3C//DTD SVG 1.1//EN" "http://www.w3.org/Graphics/SVG/1.1/DTD/svg11.dtd" >
<svg xmlns="http://www.w3.org/2000/svg" xmlns:xlink="http://www.w3.org/1999/xlink" version="1.1" viewBox="-10 0 738 1000">
  <g transform="matrix(1 0 0 -1 0 800)">
   <path fill="currentColor"
d="M362 -286q-55 0 -83.5 38.5t-28.5 97.5q0 26 5.5 50t17.5 54.5t31 73.5q5 12 4.5 18t-4.5 15l-206 493q-9 23 -27.5 39.5t-48.5 24.5q-9 3 -15.5 7t-6.5 14q0 8 6 11.5t13 3.5q21 0 49 -1l56 -2t47 -1q20 0 51 1.5t62.5 2.5t53.5 1q8 0 17.5 -4t9.5 -11q0 -9 -9.5 -14.5
t-18.5 -7.5q-30 -7 -43 -15t-13 -25q0 -4 1.5 -10.5t2.5 -12.5l121 -358q1 -4 2.5 -5.5t3.5 -1.5q4 0 7 8l114 293q11 27 12 43.5t1 37.5q0 15 -12.5 24.5t-28 15t-25.5 6.5q-10 2 -20 7.5t-10 14.5q0 7 9.5 10.5t19.5 3.5q33 0 51.5 -1.5t48.5 -1.5q29 0 53.5 3t55.5 3
q11 0 20.5 -3.5t9.5 -13.5t-8.5 -13.5t-17.5 -6.5q-30 -8 -48 -28.5t-27 -43.5l-162 -393q-12 -28 -10.5 -46t10.5 -41l38 -99q14 -34 19.5 -56t5.5 -48q0 -49 -20 -83t-55 -51t-81 -17zM351 -218q17 0 28.5 12.5t11.5 34.5q0 20 -12.5 56.5t-26.5 67.5q-1 4 -4 4t-5 -4
q-13 -21 -25.5 -47.5t-12.5 -58.5q0 -37 15 -51t31 -14z" />
  </g>

</svg>
