<?xml version="1.0" standalone="no"?>
<!DOCTYPE svg PUBLIC "-//W3C//DTD SVG 1.1//EN" "http://www.w3.org/Graphics/SVG/1.1/DTD/svg11.dtd" >
<svg xmlns="http://www.w3.org/2000/svg" xmlns:xlink="http://www.w3.org/1999/xlink" version="1.1" viewBox="-252 0 505 1000">
  <g transform="matrix(1 0 0 -1 0 800)">
   <path fill="currentColor"
d="M94 247q-22 0 -45 9t-46 21q-26 13 -53.5 24t-56.5 11q-26 0 -51 -14.5t-41.5 -29t-19.5 -14.5q-7 0 -15 14t-8 19q0 14 12 35.5t32.5 42.5t45.5 35t51 14q24 0 48.5 -9.5t49.5 -21.5q27 -13 55 -24t56 -11q20 0 39 9t34.5 20t26 20t12.5 9q11 0 17 -11.5t6 -21.5
q0 -14 -13 -35t-34.5 -42t-48 -35t-53.5 -14z" />
  </g>

</svg>
