<?xml version="1.0" standalone="no"?>
<!DOCTYPE svg PUBLIC "-//W3C//DTD SVG 1.1//EN" "http://www.w3.org/Graphics/SVG/1.1/DTD/svg11.dtd" >
<svg xmlns="http://www.w3.org/2000/svg" xmlns:xlink="http://www.w3.org/1999/xlink" version="1.1" viewBox="-32 0 562 1000">
  <g transform="matrix(1 0 0 -1 0 800)">
   <path fill="currentColor"
d="M-1 -171q-11 0 -16 9t-5 17q0 12 7 19.5t18 7.5h491q8 0 13.5 -5t5.5 -11q0 -1 -0.5 -2t-0.5 -3q-2 -10 -11.5 -21t-24.5 -11h-477zM220 -289q-100 0 -156 30t-56 83q0 31 7 49.5t34 37.5q20 14 37 27t27 20l51 -20q-28 -15 -45 -34.5t-17 -45.5q0 -41 34 -67.5t87 -26.5
q71 0 98 27q17 17 27 38t10 41q0 15 -10 24t-37.5 15.5t-78.5 11.5q-106 11 -151.5 42.5t-45.5 81.5q0 9 5.5 19t22.5 21q14 10 27.5 20t23.5 19t13 16l53 -18q-20 -6 -32 -18t-12 -20q0 -10 12.5 -16.5t44 -10.5t88.5 -9q112 -9 161.5 -33.5t49.5 -71.5q0 -42 -23.5 -83
t-63 -75t-87.5 -54t-98 -20zM234 140q30 0 47.5 34.5t17.5 93.5q0 38 -8.5 66t-23.5 43.5t-36 15.5q-19 0 -34 -15.5t-23.5 -42.5t-8.5 -62q0 -38 9 -68t25 -47.5t35 -17.5zM222 94q-45 0 -88.5 21.5t-72 60t-28.5 87.5q0 51 29.5 90.5t77 61.5t101.5 22q31 0 60 -7t65 -12
q18 -3 38 -5t44 -2q16 0 30.5 1.5t24.5 1.5q17 0 17 -24q0 -21 -14 -40q-6 -7 -13 -7h-27q-26 0 -36 -8q-3 -2 -4 -3t-1 -9.5v-34.5q0 -53 -28 -97t-74 -70.5t-101 -26.5z" />
  </g>

</svg>
