<?xml version="1.0" standalone="no"?>
<!DOCTYPE svg PUBLIC "-//W3C//DTD SVG 1.1//EN" "http://www.w3.org/Graphics/SVG/1.1/DTD/svg11.dtd" >
<svg xmlns="http://www.w3.org/2000/svg" xmlns:xlink="http://www.w3.org/1999/xlink" version="1.1" viewBox="-10 0 863 1000">
  <g transform="matrix(1 0 0 -1 0 800)">
   <path fill="currentColor"
d="M783 -161q-10 0 -16.5 12t-8.5 26t-5.5 32t-8.5 41q-5 22 -19 36t-37 14h-533q-17 0 -36 -0.5t-39 -1.5t-40 -1q-6 0 -13 4t-7 11q0 8 7.5 13t15.5 8q15 5 26 11.5t11 26.5v283q0 20 -11 27t-26 11q-8 3 -15.5 8t-7.5 13q0 7 7 11t13 4q20 0 40 -1t39 -2.5t36 -1.5
q18 0 33.5 1.5t32 2.5t36.5 1q6 0 11 -4.5t5 -10.5q0 -7 -5.5 -12.5t-13.5 -8.5q-14 -5 -21.5 -11t-7.5 -26v-270q0 -20 10 -26t24 -6h46q15 0 24.5 6t9.5 26v269q0 20 -6 27t-21 11q-8 3 -15.5 8t-7.5 13q0 7 7 11t13 4q20 0 37.5 -1t34 -2.5t33.5 -1.5q18 0 33.5 1.5
t32 2.5t36.5 1q6 0 11 -4.5t5 -10.5q0 -7 -5.5 -12.5t-13.5 -8.5q-14 -5 -21.5 -11t-7.5 -26v-270q0 -20 10 -26t24 -6h46q15 0 24.5 6t9.5 26v270q0 20 -7 26.5t-22 10.5q-8 3 -13.5 8t-5.5 13q0 7 5 11t11 4q20 0 37.5 -1t34 -2.5t33.5 -1.5q18 0 36 1.5t37 2.5t39 1
q6 0 11.5 -4t5.5 -11q0 -8 -6 -13t-14 -8q-15 -4 -26 -10.5t-11 -26.5v-288q0 -13 37 -13q11 0 20 2.5t19 2.5q14 0 14 -7v-5.5t-1 -6.5q0 -10 -4.5 -37t-10 -61.5t-7.5 -65.5q-1 -19 -8.5 -28t-18.5 -9z" />
  </g>

</svg>
