<?xml version="1.0" standalone="no"?>
<!DOCTYPE svg PUBLIC "-//W3C//DTD SVG 1.1//EN" "http://www.w3.org/Graphics/SVG/1.1/DTD/svg11.dtd" >
<svg xmlns="http://www.w3.org/2000/svg" xmlns:xlink="http://www.w3.org/1999/xlink" version="1.1" viewBox="-10 0 749 1000">
  <g transform="matrix(1 0 0 -1 0 800)">
   <path fill="currentColor"
d="M442 -205q-14 0 -23.5 11.5t-11.5 36.5q-2 38 -9 78.5t-12.5 71.5t-5.5 43q0 15 16 16q28 2 51 16.5t23 51.5v176q0 11 -4 17t-6 4q-9 -6 -31 -19.5t-56 -25t-80 -11.5q-95 0 -144 38t-49 114v138q0 32 -13 45t-53 22q-19 5 -19 22q0 7 6 11t12 4q22 0 49.5 -1t54 -2.5
t46.5 -1.5t48 1t57 2t50 1q8 0 12 -3.5t4 -11.5q0 -10 -5 -14t-14 -7q-41 -12 -53 -25t-12 -43v-130q0 -36 23 -61.5t72 -25.5q21 0 41 5t35.5 11.5t22.5 10.5q4 2 5 7.5t1 12.5v171q0 32 -13 45t-53 22q-19 5 -19 22q0 7 6 11t12 4q22 0 49.5 -1t54 -2.5t46.5 -1.5t48 1
t57 2t50 1q8 0 12 -3.5t4 -11.5q0 -10 -5 -14t-14 -7q-41 -12 -53 -25t-12 -43v-452q0 -28 13 -40.5t52 -23.5q9 -3 14 -7t5 -14q0 -7 -4 -11t-12 -4q-21 0 -48.5 1t-54 1.5t-46.5 0.5q-39 0 -61.5 -23.5t-22.5 -79.5q0 -13 -1.5 -28t-1.5 -32q0 -18 -8.5 -30.5t-21.5 -12.5
z" />
  </g>

</svg>
