<?xml version="1.0" standalone="no"?>
<!DOCTYPE svg PUBLIC "-//W3C//DTD SVG 1.1//EN" "http://www.w3.org/Graphics/SVG/1.1/DTD/svg11.dtd" >
<svg xmlns="http://www.w3.org/2000/svg" xmlns:xlink="http://www.w3.org/1999/xlink" version="1.1" viewBox="-10 0 654 1000">
  <g transform="matrix(1 0 0 -1 0 800)">
   <path fill="currentColor"
d="M74 -2q-6 0 -12.5 1.5t-8.5 6.5q-6 26 -16.5 53.5t-18.5 51.5t-8 38q0 15 14 15h6.5t5.5 -5q17 -38 34.5 -57.5t62.5 -19.5h59q2 0 2 0.5t-5 1.5q-67 30 -99.5 80.5t-32.5 105.5q0 41 21.5 76.5t58.5 62.5t84.5 42t99.5 15q71 0 131.5 -27t97.5 -72.5t37 -102.5
q0 -54 -33.5 -101.5t-98.5 -79.5q-3 -1 -2 -1h3h56q30 0 47 8.5t27.5 26t21.5 42.5q2 5 5.5 5h7.5q13 0 13 -15q0 -14 -8 -38.5t-18 -52t-17 -52.5q-1 -5 -8 -6.5t-13 -1.5q1 0 -16.5 0h-44.5q-13 0 -31.5 0.5t-40.5 0.5q-19 0 -43 0.5t-41 0.5q-5 0 -5 8q0 10 5.5 23
t12.5 20q18 16 33.5 43.5t25.5 64t10 77.5q1 63 -10 105t-35.5 63t-65.5 21q-42 0 -67.5 -23t-36.5 -68t-10 -111q1 -58 23 -104t44 -66q8 -9 13.5 -24t5.5 -21q0 -8 -5 -8q-19 0 -42.5 -0.5t-44.5 -0.5h-19.5t-45.5 -0.5t-45.5 -0.5h-19.5z" />
  </g>

</svg>
