<?xml version="1.0" standalone="no"?>
<!DOCTYPE svg PUBLIC "-//W3C//DTD SVG 1.1//EN" "http://www.w3.org/Graphics/SVG/1.1/DTD/svg11.dtd" >
<svg xmlns="http://www.w3.org/2000/svg" xmlns:xlink="http://www.w3.org/1999/xlink" version="1.1" viewBox="-144 0 288 1000">
  <g transform="matrix(1 0 0 -1 0 800)">
   <path fill="currentColor"
d="M1 462q-7 0 -16 7.5t-14 14.5l-10 11.5t-25 29t-30 37.5t-25 36q-4 8 -9.5 19.5t-5.5 21.5q0 5 3.5 9t10.5 4q11 0 21 -7t22 -19q21 -21 33 -30.5t31 -27.5q8 -8 12.5 -7.5t13.5 7.5q20 17 31 27.5t33 30.5q12 11 22.5 18.5t20.5 7.5q14 0 14 -13q0 -10 -5 -21.5
t-10 -19.5q-10 -16 -25 -36t-30 -37.5t-25 -29l-10 -11.5q-5 -7 -12.5 -14.5t-15.5 -7.5z" />
  </g>

</svg>
