<?xml version="1.0" standalone="no"?>
<!DOCTYPE svg PUBLIC "-//W3C//DTD SVG 1.1//EN" "http://www.w3.org/Graphics/SVG/1.1/DTD/svg11.dtd" >
<svg xmlns="http://www.w3.org/2000/svg" xmlns:xlink="http://www.w3.org/1999/xlink" version="1.1" viewBox="-10 0 795 1000">
  <g transform="matrix(1 0 0 -1 0 800)">
   <path fill="currentColor"
d="M647 -21q-56 0 -93.5 14t-62.5 36.5t-45 49.5q-21 29 -40 53t-38 53t-40 70q-4 10 -10 15.5t-14 9.5q-6 4 -12.5 5.5t-11.5 1.5q-10 0 -10 -20v-169q0 -31 17.5 -43t60.5 -21q9 -2 14 -6.5t5 -14.5q0 -7 -4 -11t-12 -4q-21 0 -53 1t-63.5 2t-51.5 1t-46.5 -1t-54 -2.5
t-49.5 -1.5q-6 0 -12 4t-6 11q0 17 19 22q38 8 52 20t14 43v454q0 32 -12.5 45.5t-47.5 21.5q-12 3 -16.5 9t-4.5 12q0 7 5.5 11.5t14.5 4.5q33 0 55 -2t42 -4t46 -2q24 0 42.5 2.5t41.5 5t60 2.5q120 0 183.5 -41t63.5 -123q0 -45 -17 -76.5t-44 -52.5t-58 -35
q-4 -1 -3.5 -5t2.5 -7q30 -44 55.5 -81t51.5 -67.5t55 -58.5q35 -33 72.5 -39t72.5 -6q15 0 15 -19q0 -24 -15.5 -38.5t-44.5 -21.5t-68 -7zM44 290q-8 0 -14 5.5t-6 15.5q0 15 8.5 28t25.5 13h201q10 0 16.5 -5.5t6.5 -13.5q0 -1 -0.5 -2t-0.5 -3q-3 -13 -14 -25.5
t-28 -12.5h-195zM305 353q36 0 59 15.5t34.5 43t11.5 61.5q0 49 -10.5 79t-31 44t-50.5 14q-27 0 -37.5 -11.5t-10.5 -34.5v-58v-56.5v-58.5q0 -20 9.5 -29t25.5 -9z" />
  </g>

</svg>
