<?xml version="1.0" standalone="no"?>
<!DOCTYPE svg PUBLIC "-//W3C//DTD SVG 1.1//EN" "http://www.w3.org/Graphics/SVG/1.1/DTD/svg11.dtd" >
<svg xmlns="http://www.w3.org/2000/svg" xmlns:xlink="http://www.w3.org/1999/xlink" version="1.1" viewBox="-10 0 818 1000">
  <g transform="matrix(1 0 0 -1 0 800)">
   <path fill="currentColor"
d="M662 -18q-63 0 -98 21t-64 73l-108 197q-9 16 -19 27t-30 11q-7 0 -22 0.5t-28.5 1t-15.5 0.5q-4 0 -6 -4t-2 -11l3 -200q1 -18 4.5 -29.5t15 -19t37.5 -15.5q9 -3 17 -7t8 -14q0 -7 -9 -12t-19 -5q-32 0 -57 2t-45.5 4t-40.5 2t-39 -2.5t-42.5 -5t-58.5 -2.5
q-9 0 -18.5 5.5t-9.5 12.5q0 17 25 22q38 8 49 20t11 43v454q0 32 -13 45t-53 22q-19 5 -19 22q0 7 6 11t12 4q22 0 49.5 -1t54 -2.5t46.5 -1.5t48 1t57 2t50 1q8 0 12 -3.5t4 -11.5q0 -10 -5 -14t-14 -7q-41 -12 -53 -25t-12 -43v-178q0 -8 3.5 -11.5t7.5 -3.5h90
q34 0 59 29t41 69l34 82q15 35 31 64t42.5 46t70.5 17t65.5 -22t21.5 -51q0 -22 -12.5 -46t-41.5 -24q-20 0 -40 11t-37 11q-19 0 -36.5 -11.5t-28.5 -39.5l-28 -72q-7 -20 -20.5 -34.5t-29.5 -22.5q-6 -3 -3.5 -7t6.5 -5q44 -9 70 -28.5t53 -67.5l82 -147q12 -21 25 -33.5
t27 -18t29 -7.5t30 -2q7 0 12 -5.5t5 -11.5q0 -5 -4 -9.5t-8 -7.5q-13 -10 -48 -20.5t-76 -10.5zM381 160q0 -13 -10 -18.5t-21 -5.5q-13 0 -22 8t-9 21v359q0 10 6 16.5t13 6.5q2 0 3 -0.5t2 -0.5q13 -3 25.5 -14t12.5 -28v-344z" />
  </g>

</svg>
