<?xml version="1.0" standalone="no"?>
<!DOCTYPE svg PUBLIC "-//W3C//DTD SVG 1.1//EN" "http://www.w3.org/Graphics/SVG/1.1/DTD/svg11.dtd" >
<svg xmlns="http://www.w3.org/2000/svg" xmlns:xlink="http://www.w3.org/1999/xlink" version="1.1" viewBox="-10 0 843 1000">
  <g transform="matrix(1 0 0 -1 0 800)">
   <path fill="currentColor"
d="M77 -10q-32 0 -53.5 9.5t-21.5 20.5t6.5 15.5t16.5 4.5q21 0 40.5 17t38 43t35.5 54q16 25 35.5 49t53 39.5t92.5 15.5l203 1q47 0 75.5 -10.5t52.5 -39t56 -82.5q15 -23 29 -43t30 -32t34 -12q10 0 16.5 -4.5t6.5 -15.5t-21.5 -20.5t-53.5 -9.5q-63 0 -99.5 22.5
t-58.5 54.5q-13 19 -25.5 43.5t-24.5 48t-23 39t-21 15.5q-11 0 -11 -9v-135q0 -13 10 -21t38 -17q8 -3 13 -7t5 -12q0 -7 -4 -10.5t-11 -3.5q-19 0 -41.5 1t-44 2t-39.5 1q-17 0 -37.5 -1t-41.5 -2.5t-41 -1.5q-6 0 -11 4t-5 10q0 8 4.5 13t12.5 7q27 7 37.5 14t10.5 23
v136q0 9 -11 9q-9 0 -20.5 -13.5t-24 -35t-25 -47.5t-24.5 -50q-16 -34 -55.5 -55.5t-102.5 -21.5zM347 219q-50 32 -85.5 54.5t-65.5 41t-66 38.5q-20 11 -36 20t-35 16q-10 4 -14 8.5t-4 13.5q0 8 9 10t16 2h693q7 0 16 -2t9 -10q0 -15 -18 -22q-19 -7 -40 -15t-42 -23
l-184 -132h-153zM457 262q2 -1 3 0l118 89q8 6 8 10t-8 4l-242 1q-7 0 -7 -5t4 -8z" />
  </g>

</svg>
