<?xml version="1.0" standalone="no"?>
<!DOCTYPE svg PUBLIC "-//W3C//DTD SVG 1.1//EN" "http://www.w3.org/Graphics/SVG/1.1/DTD/svg11.dtd" >
<svg xmlns="http://www.w3.org/2000/svg" xmlns:xlink="http://www.w3.org/1999/xlink" version="1.1" viewBox="-10 0 704 1000">
  <g transform="matrix(1 0 0 -1 0 800)">
   <path fill="currentColor"
d="M223 -40q-34 0 -62.5 15t-45.5 40.5t-17 56.5q0 7 9.5 21.5t15.5 14.5q4 0 18 -4.5t32 -9.5t38 -9.5t36 -4.5q20 0 36 7.5t25 20.5q3 5 5 9.5t2 11.5q0 8 -4 16l-9 18l-204 391q-11 23 -28.5 39.5t-47.5 24.5q-9 3 -15.5 7t-6.5 14q0 8 6 11.5t13 3.5q21 0 49 -1l56 -2
t47 -1q20 0 51 1.5t62.5 2.5t53.5 1q8 0 17.5 -4t9.5 -11q0 -9 -9.5 -14.5t-18.5 -7.5q-30 -7 -43 -15t-13 -25q0 -4 0.5 -11t3.5 -12l127 -236q1 -4 2.5 -5.5t3.5 -1.5q4 0 7 8l73 193q10 26 13 36.5t3 24.5q0 17 -17.5 27.5t-45.5 14.5q-10 2 -20 7.5t-10 14.5
q0 7 9.5 10.5t19.5 3.5q33 0 57 -1.5t38 -1.5q29 0 53.5 3t55.5 3q11 0 20.5 -3.5t9.5 -13.5t-8.5 -13.5t-17.5 -6.5q-30 -8 -49 -25.5t-29 -40.5l-114 -260q-55 -125 -96.5 -198t-76.5 -103.5t-70 -30.5zM479 686q-31 0 -53.5 22.5t-22.5 53.5q0 33 22.5 55t53.5 22
q34 0 57 -22t23 -55q0 -31 -23 -53.5t-57 -22.5zM281 686q-31 0 -53.5 22.5t-22.5 53.5q0 33 22.5 55t53.5 22q34 0 57 -22t23 -55q0 -31 -23 -53.5t-57 -22.5z" />
  </g>

</svg>
