<?xml version="1.0" standalone="no"?>
<!DOCTYPE svg PUBLIC "-//W3C//DTD SVG 1.1//EN" "http://www.w3.org/Graphics/SVG/1.1/DTD/svg11.dtd" >
<svg xmlns="http://www.w3.org/2000/svg" xmlns:xlink="http://www.w3.org/1999/xlink" version="1.1" viewBox="-10 0 771 1000">
  <g transform="matrix(1 0 0 -1 0 800)">
   <path fill="currentColor"
d="M179 -5q-9 0 -14 5t-5 11q0 15 20 21q33 10 46.5 21t13.5 42v440q0 34 -9.5 50t-41.5 16h-32q-40 0 -58.5 -14.5t-25 -33.5t-9.5 -34q-2 -11 -13 -27.5t-18 -16.5q-4 0 -11 10t-7 25q0 32 4.5 60t5.5 70q0 4 3 11t10 7q4 0 13.5 -1.5t18.5 -3t11 -1.5q27 0 73 -1t107 -1
h62q20 0 48 1t57 2t50 1q8 0 18 -2.5t10 -11.5q0 -10 -11 -14.5t-20 -7.5q-41 -12 -53.5 -25t-12.5 -43v-143q0 -13 5 -24t17 -11q4 0 22.5 2t42 4t40.5 2q94 0 149.5 -47.5t55.5 -133.5q0 -57 -18 -90.5t-42 -50.5t-43 -28q-31 -18 -69.5 -26t-89.5 -8q-6 0 -19.5 1
t-44.5 2t-92 1q-20 0 -46 -1t-52 -2.5t-46 -1.5zM459 38q25 0 48 22.5t37.5 58.5t14.5 76q0 36 -8 59t-19.5 37t-20.5 21q-8 6 -25 13.5t-41 7.5h-7.5t-7.5 -2q-9 -2 -14.5 -9t-5.5 -21v-202q0 -14 3 -25.5t9 -19.5q7 -7 16 -11.5t21 -4.5z" />
  </g>

</svg>
