<?xml version="1.0" standalone="no"?>
<!DOCTYPE svg PUBLIC "-//W3C//DTD SVG 1.1//EN" "http://www.w3.org/Graphics/SVG/1.1/DTD/svg11.dtd" >
<svg xmlns="http://www.w3.org/2000/svg" xmlns:xlink="http://www.w3.org/1999/xlink" version="1.1" viewBox="-10 0 672 1000">
  <g transform="matrix(1 0 0 -1 0 800)">
   <path fill="currentColor"
d="M560 -14q-49 0 -79.5 13.5t-50.5 39.5t-37 63t-40 83q-3 7 -6 11t-7 6t-14 2q-11 0 -11 -9v-126q0 -13 10 -21t38 -17q8 -3 13 -7t5 -12q0 -7 -4 -10.5t-11 -3.5q-19 0 -41.5 1t-44 2t-39.5 1q-17 0 -37.5 -1t-41.5 -2.5t-41 -1.5q-6 0 -11 4t-5 10q0 8 4.5 13t12.5 7
q27 7 37.5 14t10.5 23v286q0 10 -5.5 14.5t-20.5 4.5h-32q-19 0 -35 -23t-26 -46q-3 -7 -7.5 -19t-15.5 -12q-10 0 -14 9.5t-4 18.5q0 6 2 14l4 16q6 23 9 50.5t3 41.5q0 10 5.5 15.5t9.5 5.5q3 0 11 -3.5t14 -8.5q6 -4 23.5 -7t34.5 -3l115 1q18 0 39.5 1t44 2t41.5 1
q7 0 11 -3.5t4 -10.5q0 -8 -5 -12t-13 -7q-28 -9 -38 -17t-10 -21v-93q0 -7 4 -10.5t11 -3.5q28 0 46.5 7.5t31.5 20.5t23 29q14 21 25 45t24.5 44.5t34 33.5t54.5 13q24 0 43 -15t19 -44q0 -25 -11.5 -39t-26.5 -14q-16 0 -33.5 7.5t-32.5 7.5q-11 0 -17 -4.5t-14 -21.5
q-3 -7 -7.5 -13.5t-9.5 -14l-11 -16.5q-4 -7 -3.5 -9t2.5 -7q8 -19 27 -54t41 -70q25 -39 50.5 -69.5t43.5 -33.5q10 -1 16.5 -5t6.5 -15t-27 -18.5t-65 -7.5z" />
  </g>

</svg>
