<?xml version="1.0" standalone="no"?>
<!DOCTYPE svg PUBLIC "-//W3C//DTD SVG 1.1//EN" "http://www.w3.org/Graphics/SVG/1.1/DTD/svg11.dtd" >
<svg xmlns="http://www.w3.org/2000/svg" xmlns:xlink="http://www.w3.org/1999/xlink" version="1.1" viewBox="-10 0 545 1000">
  <g transform="matrix(1 0 0 -1 0 800)">
   <path fill="currentColor"
d="M252 -14q-61 0 -110 27t-78 75t-29 109q0 35 9.5 61.5t22 45.5t22 32t9.5 22q0 16 -20 21.5t-35 9.5q-8 3 -15.5 8t-7.5 13q0 7 7 11t13 4q20 0 36.5 -1t32 -2.5t32.5 -1.5q18 0 29 1.5t23.5 2.5t32.5 1q6 0 11 -4.5t5 -10.5q0 -7 -7 -10.5t-12 -10.5q-14 -20 -21.5 -50
t-10.5 -61t-3 -56q0 -46 11 -88.5t29.5 -69.5t42.5 -27q20 0 36.5 13t24.5 41q7 22 9.5 53.5t2.5 57.5t-3 61t-10 68t-19 52q-4 8 -11.5 13.5t-7.5 13.5q0 7 5 11t11 4q30 0 49 -2.5t45 -2.5t45.5 2.5t49.5 2.5q6 0 11.5 -4t5.5 -11q0 -8 -6 -13t-14 -8q-15 -4 -32 -8
t-17 -15q0 -12 13 -34t26 -51.5t13 -65.5q0 -65 -27.5 -117t-82 -82t-136.5 -30z" />
  </g>

</svg>
