<?xml version="1.0" standalone="no"?>
<!DOCTYPE svg PUBLIC "-//W3C//DTD SVG 1.1//EN" "http://www.w3.org/Graphics/SVG/1.1/DTD/svg11.dtd" >
<svg xmlns="http://www.w3.org/2000/svg" xmlns:xlink="http://www.w3.org/1999/xlink" version="1.1" viewBox="-132 0 264 1000">
  <g transform="matrix(1 0 0 -1 0 800)">
   <path fill="currentColor"
d="M-103 -266q-16 0 -18 13.5t8 31.5q12 23 24 45.5t24.5 45.5t23.5 45t21.5 31t20.5 9q11 0 21.5 -10t20.5 -30q12 -22 24 -45t24 -45.5t24 -45.5q10 -19 5 -32t-15 -13q-7 0 -17.5 9t-25.5 25q-10 12 -23 28.5t-32 35.5q-4 4 -5.5 4.5t-6.5 -4.5q-19 -19 -31.5 -35.5
t-23.5 -28.5q-15 -16 -25 -25t-18 -9z" />
  </g>

</svg>
