<?xml version="1.0" standalone="no"?>
<!DOCTYPE svg PUBLIC "-//W3C//DTD SVG 1.1//EN" "http://www.w3.org/Graphics/SVG/1.1/DTD/svg11.dtd" >
<svg xmlns="http://www.w3.org/2000/svg" xmlns:xlink="http://www.w3.org/1999/xlink" version="1.1" viewBox="-24 0 1106 1000">
  <g transform="matrix(1 0 0 -1 0 800)">
   <path fill="currentColor"
d="M1010 -205q-13 0 -21 12.5t-9 30.5q-1 16 -1 29.5v25.5q0 51 -16.5 70t-45.5 21q-40 3 -72.5 22t-57 46.5t-42 58t-28.5 55.5q-16 38 -29 71t-26 53.5t-30 20.5q-2 0 -4 0.5t-3.5 1t-3.5 0.5q-4 0 -6 -4t-2 -11l3 -200q1 -18 4.5 -29.5t15 -19t37.5 -15.5q9 -3 17 -7
t8 -14q0 -7 -9 -12t-19 -5q-32 0 -57 2t-45.5 4t-40.5 2t-39 -2.5t-42.5 -5t-58.5 -2.5q-9 0 -18.5 5.5t-9.5 12.5q0 17 25 22q38 8 49 20t11 43v201q0 7 -2 11t-6 4q-2 0 -3.5 -0.5l-3 -1t-4.5 -0.5q-17 0 -33 -21.5t-33 -56.5t-37 -74q-22 -43 -50 -83.5t-64.5 -67
t-85.5 -26.5q-41 0 -76 10.5t-48 20.5q-4 3 -8 7.5t-4 9.5q0 6 5 11t12 6q38 4 66.5 25.5t51.5 54.5t44 70l38 66t40.5 61.5t48.5 47.5q5 4 5 7t-5 9q-8 11 -15 26t-16 38l-17 40q-12 29 -29 40t-36 11q-17 0 -39.5 -11t-42.5 -11q-28 0 -41 24t-13 46q0 29 18 51t61 22
q44 0 72.5 -17t47.5 -46t34 -64l37 -82q18 -40 42 -69t58 -29h20q5 0 8 3.5t3 11.5v179q0 32 -13 45t-53 22q-19 5 -19 22q0 7 6 11t12 4q22 0 49.5 -1t54 -2.5t46.5 -1.5t48 1t57 2t50 1q8 0 12 -3.5t4 -11.5q0 -10 -5 -14t-14 -7q-41 -12 -53 -25t-12 -43v-178
q0 -8 3.5 -11.5t7.5 -3.5h20q34 0 58.5 29t41.5 69l34 82q22 53 58 90t102 37q44 0 59.5 -22t15.5 -51q0 -22 -12.5 -46t-41.5 -24q-20 0 -42 11t-39 11q-19 0 -36.5 -11.5t-28.5 -39.5l-16 -41q-9 -23 -13.5 -33.5t-12.5 -22.5q-7 -11 0 -16q27 -19 48.5 -50t41 -68
t38.5 -73q23 -42 47 -73.5t51 -49.5t58 -18q9 -1 12.5 -5.5t3.5 -10.5q0 -11 -6 -41.5t-12.5 -69.5t-8.5 -77q-1 -25 -11 -36.5t-24 -11.5z" />
  </g>

</svg>
