<?xml version="1.0" standalone="no"?>
<!DOCTYPE svg PUBLIC "-//W3C//DTD SVG 1.1//EN" "http://www.w3.org/Graphics/SVG/1.1/DTD/svg11.dtd" >
<svg xmlns="http://www.w3.org/2000/svg" xmlns:xlink="http://www.w3.org/1999/xlink" version="1.1" viewBox="-24 0 1086 1000">
  <g transform="matrix(1 0 0 -1 0 800)">
   <path fill="currentColor"
d="M122 -18q-41 0 -76 10.5t-48 20.5q-4 3 -8 7.5t-4 9.5q0 6 5 11t12 6q38 4 66 28.5t57 72.5t71 120q22 38 47.5 57t58.5 25.5t74 6.5h258q56 0 94.5 -10t65 -28.5t47 -45.5t39.5 -61q24 -42 46 -80t48 -61.5t60 -23.5q7 0 12 -5.5t5 -11.5q0 -5 -4 -9.5t-8 -7.5
q-13 -10 -48 -20.5t-76 -10.5q-43 0 -76 18t-57.5 47.5t-43.5 65t-36 69.5q-25 52 -43 90.5t-38 38.5q-2 0 -4 0.5t-3.5 1t-3.5 0.5q-4 0 -6 -4t-2 -11l3 -200q1 -18 4.5 -29.5t15 -19t37.5 -15.5q9 -3 17 -7t8 -14q0 -7 -9 -12t-19 -5q-32 0 -57 2t-45.5 4t-40.5 2
t-39 -2.5t-42.5 -5t-58.5 -2.5q-9 0 -18.5 5.5t-9.5 12.5q0 17 25 22q38 8 49 20t11 43v199q0 7 -2 11t-6 4h-3.5h-3h-4.5q-17 0 -33 -21.5t-33 -56.5t-37 -74q-22 -43 -47.5 -83.5t-59.5 -67t-83 -26.5zM419 320l-244 231q-20 19 -46.5 39t-56.5 28q-9 3 -15.5 7t-6.5 14
q0 8 6 11.5t13 3.5q16 0 36 -0.5t41 -1.5t40.5 -1.5t34.5 -0.5l612 -1q29 0 55 3.5t57 3.5q11 0 20.5 -3.5t9.5 -13.5t-8.5 -13.5t-17.5 -6.5q-20 -5 -36.5 -17t-32 -26.5t-31.5 -28.5l-237 -213zM578 381l192 192q10 10 8.5 17t-22.5 7l-390 -1q-7 0 -14.5 -3t-7.5 -10.5
t14 -20.5l196 -182q8 -7 12.5 -6.5t11.5 7.5z" />
  </g>

</svg>
