<?xml version="1.0" standalone="no"?>
<!DOCTYPE svg PUBLIC "-//W3C//DTD SVG 1.1//EN" "http://www.w3.org/Graphics/SVG/1.1/DTD/svg11.dtd" >
<svg xmlns="http://www.w3.org/2000/svg" xmlns:xlink="http://www.w3.org/1999/xlink" version="1.1" viewBox="-10 0 566 1000">
  <g transform="matrix(1 0 0 -1 0 800)">
   <path fill="currentColor"
d="M293 -285q-31 0 -50.5 15t-19.5 40q0 17 7 56t15 120q-24 3 -46 11t-42 19q-41 25 -72 63.5t-47.5 84t-16.5 91.5q0 60 26 112t75.5 89.5t120.5 51.5q-1 30 -2.5 51t-1.5 53q0 22 5 33t33 11q32 0 45 -16.5t13 -44.5q0 -5 -0.5 -10.5l-2 -22t-4.5 -55.5q61 -14 107.5 -51
t73 -89t26.5 -112q0 -42 -14.5 -84t-40.5 -78t-61 -62q-22 -16 -46.5 -26.5t-51.5 -14.5q3 -63 5.5 -104t4.5 -60.5t2 -20.5q0 -18 -7.5 -34t-32.5 -16zM250 75v40v40v122v29v29q-50 -5 -86.5 -32.5t-56 -63t-19.5 -65.5q0 -24 21.5 -45.5t58 -36t82.5 -17.5zM318 76
q41 4 75 19.5t54.5 37.5t20.5 45q0 28 -17.5 62.5t-50.5 61.5t-79 33q-1 -9 -1 -29t-1 -30v-121q-1 -13 -1 -37v-42z" />
  </g>

</svg>
