<?xml version="1.0" standalone="no"?>
<!DOCTYPE svg PUBLIC "-//W3C//DTD SVG 1.1//EN" "http://www.w3.org/Graphics/SVG/1.1/DTD/svg11.dtd" >
<svg xmlns="http://www.w3.org/2000/svg" xmlns:xlink="http://www.w3.org/1999/xlink" version="1.1" viewBox="-10 0 651 1000">
  <g transform="matrix(1 0 0 -1 0 800)">
   <path fill="currentColor"
d="M539 -14q-49 0 -78.5 14t-49 40t-37 62.5t-42.5 82.5q-3 7 -6 11t-7 6t-14 2q-11 0 -11 -9l1 -125q0 -16 6.5 -23.5t22.5 -12.5q8 -3 14 -8t6 -13q0 -7 -4.5 -11.5t-12.5 -4.5q-20 0 -38 1.5t-35 2.5t-35 1q-17 0 -34.5 -1t-36 -2.5t-38.5 -1.5t-20 15q0 8 6 12.5t17 8.5
q15 5 26 10.5t11 27.5v375q0 10 -2 18.5t-16 8.5h-20q-19 0 -35.5 -23t-25.5 -46q-2 -4 -4.5 -15t-7 -20t-11.5 -9q-10 0 -14 16t-4 25q0 13 6.5 34t6.5 37q0 17 2.5 26.5t2.5 22.5q0 10 5.5 15.5t9.5 5.5q3 0 11 -3.5t14 -8.5q6 -4 23.5 -6t34.5 -2h13q11 0 11 9v15
q0 27 -6.5 47t-31.5 25q-11 2 -11 16q0 13 10 15q25 5 57 15.5t61.5 21.5t44.5 16q9 3 14 3q7 0 9 -4t2 -9q0 -7 -2 -23.5t-3 -30.5v-109q0 -7 7 -7h107q12 0 12.5 -12t-7 -24.5t-21.5 -12.5h-80q-18 0 -18 -20v-190q0 -7 4 -10.5t11 -3.5q41 0 63 16.5t38 40.5q14 21 25 45
t24.5 44.5t34 33.5t54.5 13q24 0 43 -15t19 -44q0 -25 -11.5 -39t-26.5 -14q-16 0 -33.5 7.5t-32.5 7.5q-11 0 -17.5 -4t-14.5 -21q-3 -7 -7.5 -14t-9.5 -14.5t-10 -16.5q-4 -7 -3.5 -9t2.5 -7q8 -18 24.5 -50t37.5 -65q26 -41 53.5 -75t46.5 -37q10 -1 16.5 -5t6.5 -15
t-27 -18.5t-65 -7.5z" />
  </g>

</svg>
