<?xml version="1.0" standalone="no"?>
<!DOCTYPE svg PUBLIC "-//W3C//DTD SVG 1.1//EN" "http://www.w3.org/Graphics/SVG/1.1/DTD/svg11.dtd" >
<svg xmlns="http://www.w3.org/2000/svg" xmlns:xlink="http://www.w3.org/1999/xlink" version="1.1" viewBox="-10 0 461 1000">
  <g transform="matrix(1 0 0 -1 0 800)">
   <path fill="currentColor"
d="M177 -14q-44 0 -79 13.5t-55 32.5t-20 36q0 11 6.5 21.5t10.5 16.5q5 5 11 9t15 4q5 0 15 -12.5t25.5 -29.5t37 -29.5t50.5 -12.5q48 0 65 33t17 110q0 34 -9 50t-25 15l-119 -3q-26 -1 -40.5 0t-24.5 3q-13 3 -20.5 20.5t-7.5 49.5q0 27 21.5 55.5t63.5 48t102 19.5
q73 0 120 -28.5t70 -74.5t23 -100q0 -41 -12.5 -84t-41 -80t-77.5 -60t-122 -23zM200 290h50q5 0 8 5t3 12q0 9 -3 18q-4 14 -11.5 28t-19.5 24t-28 10q-48 0 -48 -61q0 -10 1.5 -18.5t3.5 -10.5q8 -7 19.5 -7h24.5z" />
  </g>

</svg>
