<?xml version="1.0" standalone="no"?>
<!DOCTYPE svg PUBLIC "-//W3C//DTD SVG 1.1//EN" "http://www.w3.org/Graphics/SVG/1.1/DTD/svg11.dtd" >
<svg xmlns="http://www.w3.org/2000/svg" xmlns:xlink="http://www.w3.org/1999/xlink" version="1.1" viewBox="-10 0 817 1000">
  <g transform="matrix(1 0 0 -1 0 800)">
   <path fill="currentColor"
d="M591 -21q-9 0 -9 10q0 12 2.5 27.5t2.5 25.5q0 5 -0.5 8t-1.5 4q-21 -23 -44.5 -38.5t-49.5 -23t-56 -7.5q-26 0 -50.5 16.5t-36.5 44.5q-6 14 -12 14q-5 0 -22 -18q-29 -28 -64 -42.5t-75 -14.5q-29 0 -53 19.5t-38 52.5t-14 73v184q0 23 -8 37.5t-31 18.5q-6 1 -11 5.5
t-5 13.5q0 7 4 12t11 6q44 2 81.5 9t74.5 16q5 2 11.5 3.5t12.5 1.5q14 0 13 -14q-4 -23 -6 -38.5t-2 -38.5v-191q0 -24 6.5 -41.5t18 -27t26.5 -10.5q13 0 26.5 4.5t24.5 17.5q5 5 9 20t4 40v156q0 25 -11 40.5t-37 16.5q-12 1 -18.5 6t-6.5 17q0 11 7.5 16t17.5 5
q55 4 86 6.5t50.5 5.5t38.5 7q3 1 7 2t7 1q15 0 15 -12q0 -4 -1 -8t-3 -9q-1 -4 -2.5 -17.5t-3 -28.5t-1.5 -24v-183q0 -24 6.5 -41.5t18 -27t26.5 -10.5q13 0 26.5 4.5t24.5 17.5q5 5 9 20t4 40v156q0 17 -5.5 29t-17 19.5t-28.5 8.5q-12 1 -18.5 6t-6.5 17q0 11 7.5 16
t17.5 5q55 4 87 6.5t52 5.5t39 7q3 1 7 2t7 1q15 0 15 -12q0 -4 -1 -8t-3 -9q-1 -4 -2.5 -17.5t-3 -28.5t-1.5 -24v-232q0 -22 5.5 -29t12.5 -7q4 0 12.5 -0.5t11.5 -0.5q10 0 15 -5.5t5 -13.5q0 -10 -3.5 -16t-14.5 -7q-50 -4 -91 -17t-70 -24q-7 -3 -14 -5t-13 -2z" />
  </g>

</svg>
