<?xml version="1.0" standalone="no"?>
<!DOCTYPE svg PUBLIC "-//W3C//DTD SVG 1.1//EN" "http://www.w3.org/Graphics/SVG/1.1/DTD/svg11.dtd" >
<svg xmlns="http://www.w3.org/2000/svg" xmlns:xlink="http://www.w3.org/1999/xlink" version="1.1" viewBox="-10 0 747 1000">
  <g transform="matrix(1 0 0 -1 0 800)">
   <path fill="currentColor"
d="M90 -14q-39 0 -59.5 24t-20.5 52q0 22 15 38.5t41 16.5q12 0 22.5 -5.5t19.5 -12.5q10 -7 17.5 -13t13.5 -6q14 0 24 27t16.5 68.5t9.5 86.5t3 82q0 26 -14.5 34.5t-33.5 13.5q-13 4 -20 7.5t-7 13.5q0 7 7 11t13 4q30 0 59.5 -2.5t55.5 -2.5h152q31 0 56 1.5t63 1.5
q6 0 9.5 -3.5t3.5 -8.5q0 -3 -3 -7t-11 -6q-26 -7 -34.5 -14.5t-8.5 -27.5v-103q0 -7 4 -9t8 -1q11 5 32 8.5t40 3.5q27 0 53.5 -6.5t48 -20t34.5 -35.5t13 -54q0 -57 -26.5 -88.5t-70 -44t-93.5 -12.5q-21 0 -40.5 1t-39 1.5t-40.5 0.5q-14 0 -35 -0.5t-42 -1.5t-34 -1
q-6 0 -9 4t-3 8t3.5 8.5t9.5 5.5q23 8 32 13.5t9 24.5v291q0 9 -2.5 16t-16.5 7h-48q-13 0 -19 -9.5t-6 -19.5q0 -42 -3.5 -90.5t-13 -96.5t-26.5 -87t-43.5 -62.5t-64.5 -23.5zM506 40q21 0 36.5 24.5t15.5 60.5q0 39 -15.5 62t-41.5 23q-11 0 -16 -4q-3 -2 -4.5 -6
t-1.5 -10v-110q0 -16 6 -28t21 -12z" />
  </g>

</svg>
