<?xml version="1.0" standalone="no"?>
<!DOCTYPE svg PUBLIC "-//W3C//DTD SVG 1.1//EN" "http://www.w3.org/Graphics/SVG/1.1/DTD/svg11.dtd" >
<svg xmlns="http://www.w3.org/2000/svg" xmlns:xlink="http://www.w3.org/1999/xlink" version="1.1" viewBox="-10 0 621 1000">
  <g transform="matrix(1 0 0 -1 0 800)">
   <path fill="currentColor"
d="M410 -288q-52 0 -87.5 31t-54 85.5t-18.5 123.5v34q-2 3 -5 6.5t-5 6.5q-27 1 -53.5 1.5t-61.5 0.5q-24 0 -50 -3t-40 -3q-4 0 -14.5 10t-10.5 20q0 7 8 19.5t18 26t16 23.5q24 39 42.5 67.5t36 56t38 61t50.5 82.5q2 4 2 8t-13 4h-45q-14 0 -24 -3.5t-21 -14.5
q-4 -4 -14 -18t-21.5 -30t-20.5 -29.5t-12 -16.5q-6 -7 -20 -3t-13 13q3 11 9 37t11.5 55.5t5.5 50.5q0 11 7.5 19t16.5 8q10 0 20 -10q5 -4 19 -5.5t30 -1.5q12 0 23.5 0.5t18.5 0.5q47 0 106 1t110 3q9 0 14.5 -8.5t7.5 -19t-2 -16.5q-12 -14 -21.5 -26.5t-21.5 -29.5
l-160 -261q-4 -7 -1.5 -11t16.5 -4h45q15 0 26.5 5t24.5 19q20 23 36 46t35 57q8 14 23 10.5t15 -15.5q0 -6 -3.5 -20.5t-9 -33.5t-11.5 -40t-12 -40v-11q0 -101 5.5 -158t16 -80t25.5 -23q19 0 24.5 12.5t5.5 30.5q0 12 12 26.5t30.5 27.5t37.5 21.5t32 8.5
q12 0 14.5 -14.5t2.5 -33.5q0 -41 -25.5 -72t-68.5 -47.5t-97 -16.5z" />
  </g>

</svg>
