<?xml version="1.0" standalone="no"?>
<!DOCTYPE svg PUBLIC "-//W3C//DTD SVG 1.1//EN" "http://www.w3.org/Graphics/SVG/1.1/DTD/svg11.dtd" >
<svg xmlns="http://www.w3.org/2000/svg" xmlns:xlink="http://www.w3.org/1999/xlink" version="1.1" viewBox="-10 0 567 1000">
  <g transform="matrix(1 0 0 -1 0 800)">
   <path fill="currentColor"
d="M279 -287q-7 0 -11.5 4.5t-4.5 10.5q0 8 6 12.5t16 7.5q28 8 40 18t12 32l1 244q0 5 -0.5 8t-1.5 4q-33 -34 -71.5 -51.5t-84.5 -17.5q-31 0 -56 19.5t-39.5 52.5t-14.5 73v184q0 23 -8 37.5t-31 18.5q-6 1 -11 5.5t-5 13.5q0 7 4 12t11 6q44 2 81.5 9t74.5 16
q5 2 11.5 3.5t12.5 1.5q14 0 13 -14q-4 -23 -6 -38.5t-2 -38.5v-191q0 -24 7 -41.5t20 -27t29 -10.5q14 0 28.5 4.5t27.5 17.5q5 5 9.5 20t4.5 40v156q0 17 -5.5 29t-17 19.5t-28.5 8.5q-12 1 -18.5 6t-6.5 17q0 11 7.5 16t17.5 5q55 4 87 6.5t52 5.5t39 7q3 1 7 2t7 1
q15 0 15 -12q0 -4 -1 -8t-3 -9q-1 -4 -2.5 -17.5t-3 -28.5t-1.5 -24l1 -551q0 -16 7.5 -23.5t29.5 -14.5q11 -3 17 -8t6 -13q0 -7 -6 -11t-14 -4q-30 0 -58.5 2.5t-54.5 2.5q-17 0 -41 -1t-49 -2.5t-45 -1.5z" />
  </g>

</svg>
