<?xml version="1.0" standalone="no"?>
<!DOCTYPE svg PUBLIC "-//W3C//DTD SVG 1.1//EN" "http://www.w3.org/Graphics/SVG/1.1/DTD/svg11.dtd" >
<svg xmlns="http://www.w3.org/2000/svg" xmlns:xlink="http://www.w3.org/1999/xlink" version="1.1" viewBox="-10 0 582 1000">
  <g transform="matrix(1 0 0 -1 0 800)">
   <path fill="currentColor"
d="M126 -3q-6 0 -9 4t-3 8t3.5 8.5t9.5 5.5q23 8 32 13.5t9 24.5v290q0 10 -4 15t-15 5h-37q-19 0 -35 -23t-26 -46q-3 -7 -7.5 -19t-15.5 -12q-10 0 -14 9.5t-4 18.5q0 6 2 14l4 16q6 23 9 50.5t3 41.5q0 10 5.5 15.5t9.5 5.5q3 0 11 -3.5t14 -8.5q6 -4 23.5 -7t34.5 -3
l113 1q21 0 38 1.5t36.5 2.5t44.5 1q6 0 9.5 -3.5t3.5 -8.5q0 -3 -3 -7t-11 -6q-26 -7 -34.5 -14.5t-8.5 -27.5v-103q0 -7 4 -9t8 -1q11 5 32 8.5t40 3.5q27 0 53.5 -6.5t48 -21t34.5 -38t13 -57.5q0 -54 -26.5 -84t-70 -42t-93.5 -12q-21 0 -40.5 1t-39 1.5t-40.5 0.5
q-14 0 -35 -0.5t-42 -1.5t-34 -1zM341 40q21 0 36.5 24.5t15.5 60.5q0 39 -15.5 62t-41.5 23q-11 0 -16 -4q-3 -2 -4.5 -6t-1.5 -10v-110q0 -16 6 -28t21 -12z" />
  </g>

</svg>
