<?xml version="1.0" standalone="no"?>
<!DOCTYPE svg PUBLIC "-//W3C//DTD SVG 1.1//EN" "http://www.w3.org/Graphics/SVG/1.1/DTD/svg11.dtd" >
<svg xmlns="http://www.w3.org/2000/svg" xmlns:xlink="http://www.w3.org/1999/xlink" version="1.1" viewBox="-10 0 535 1000">
  <g transform="matrix(1 0 0 -1 0 800)">
   <path fill="currentColor"
d="M463 -167q-13 0 -21 9.5t-10 24.5q-2 14 -4 26t-4 23q-7 50 -24 69.5t-46 19.5q-26 0 -48 -3t-59 -3q-24 0 -24 14q0 9 6 12.5t16 6.5q13 4 21 12.5t8 28.5q0 11 -2 19t-11 21l-49 70q-3 3 -6 0l-43 -79q-4 -7 -10 -19.5t-6 -24.5q0 -11 4.5 -18.5t14.5 -12.5q8 -4 15 -7
t7 -12q0 -8 -8.5 -11t-15.5 -3q-30 1 -40 1.5t-23 0.5h-27t-44 -2q-7 0 -16 2t-9 10q0 9 4 13.5t14 8.5t21 13.5t30 35.5l96 130q6 8 6 13t-5 13l-74 108q-13 20 -23 33t-27 19q-10 4 -14 8.5t-4 13.5q0 8 9 10t16 2q25 0 39.5 -1.5t28.5 -3t36 -1.5q32 0 53.5 3t58.5 3
q7 0 15.5 -3t8.5 -11q0 -9 -8 -12t-16 -7q-10 -4 -19.5 -9.5t-9.5 -16.5q0 -6 4 -14t9 -16l46 -67q5 -9 9 0l26 48q6 11 10.5 24.5t3.5 24.5q0 17 -19 24l-14 7t-6 12q0 8 8.5 11t15.5 3q29 -1 42 -1h26q12 0 23.5 1t40.5 2q7 0 16 -2t9 -10q0 -9 -4 -13.5t-14 -8.5
t-20.5 -13.5t-30.5 -35.5l-74 -96q-8 -11 -7 -16.5t6 -13.5l81 -126q18 -28 31.5 -34.5t28.5 -6.5q13 0 20 -5t7 -19q0 -17 -5.5 -43t-11.5 -56.5t-6 -59.5q0 -19 -9 -28t-20 -9z" />
  </g>

</svg>
