<?xml version="1.0" standalone="no"?>
<!DOCTYPE svg PUBLIC "-//W3C//DTD SVG 1.1//EN" "http://www.w3.org/Graphics/SVG/1.1/DTD/svg11.dtd" >
<svg xmlns="http://www.w3.org/2000/svg" xmlns:xlink="http://www.w3.org/1999/xlink" version="1.1" viewBox="-10 0 679 1000">
  <g transform="matrix(1 0 0 -1 0 800)">
   <path fill="currentColor"
d="M144 -92q-12 0 -16.5 6.5t-4.5 14.5l2.5 4.5t6.5 11.5l432 751q10 17 26.5 19.5t35.5 2.5q8 0 13.5 -5t5.5 -12q0 -1 -3.5 -7.5t-3.5 -7.5l-433 -753q-10 -16 -25.5 -20.5t-35.5 -4.5zM404 -14q-79 0 -148 23.5t-121 67t-81 104t-29 134.5q0 68 27 130.5t79.5 111.5
t128.5 78t173 29q31 0 64.5 -5t65 -13t54.5 -18q8 -4 14.5 -10t7.5 -17q5 -36 6.5 -67.5t1.5 -53.5q0 -12 -8.5 -16t-18 0t-13.5 16q-7 20 -15.5 42t-25.5 38q-20 21 -55 35t-87 14q-50 0 -90 -21.5t-68 -59t-43 -85t-15 -99.5q0 -67 13 -122.5t40 -95.5t67.5 -61.5
t95.5 -21.5q75 0 120.5 31t76.5 98q8 18 23 17t15 -17q0 -14 -2.5 -32.5t-7 -40t-11.5 -45.5q-3 -11 -10 -18t-16 -12q-38 -17 -90 -27.5t-118 -10.5z" />
  </g>

</svg>
