<?xml version="1.0" standalone="no"?>
<!DOCTYPE svg PUBLIC "-//W3C//DTD SVG 1.1//EN" "http://www.w3.org/Graphics/SVG/1.1/DTD/svg11.dtd" >
<svg xmlns="http://www.w3.org/2000/svg" xmlns:xlink="http://www.w3.org/1999/xlink" version="1.1" viewBox="-10 0 581 1000">
  <g transform="matrix(1 0 0 -1 0 800)">
   <path fill="currentColor"
d="M508 -161q-12 0 -21 9t-11 25l-2 28t-3 36q-2 33 -22.5 49t-52.5 16q-17 0 -31.5 -1t-29.5 -2.5t-35 -1.5q-6 0 -11 4t-5 11q0 8 5.5 13t13.5 8q15 5 24.5 11t9.5 26v273q0 20 -9.5 26t-24.5 6h-39q-16 0 -22.5 -11.5t-6.5 -22.5q0 -39 -3.5 -86.5t-12.5 -94.5t-25 -86.5
t-40 -63.5t-58 -24q-41 0 -63.5 21.5t-22.5 50.5q0 22 13 40.5t36 18.5q12 0 24 -5t20 -13q9 -9 16.5 -15.5t14.5 -6.5q13 0 23 27t17 69t11 87.5t4 82.5q0 26 -14.5 35t-33.5 14q-13 4 -20 7.5t-7 13.5q0 7 7 11t13 4q30 0 59.5 -2.5t55.5 -2.5h161q26 0 54 2.5t58 2.5
q6 0 11.5 -4t5.5 -11q0 -8 -6 -13t-14 -8q-15 -4 -26 -10.5t-11 -26.5v-288q0 -6 7.5 -9.5t24.5 -3.5q10 0 18 2.5t17 2.5q12 0 12 -7v-5.5t-1 -6.5q0 -10 -4.5 -37t-9.5 -61.5t-8 -65.5q-1 -19 -10 -28t-20 -9z" />
  </g>

</svg>
