<?xml version="1.0" standalone="no"?>
<!DOCTYPE svg PUBLIC "-//W3C//DTD SVG 1.1//EN" "http://www.w3.org/Graphics/SVG/1.1/DTD/svg11.dtd" >
<svg xmlns="http://www.w3.org/2000/svg" xmlns:xlink="http://www.w3.org/1999/xlink" version="1.1" viewBox="-10 0 437 1000">
  <g transform="matrix(1 0 0 -1 0 800)">
   <path fill="currentColor"
d="M176 -15q-26 0 -45.5 3.5t-37.5 12.5t-43 24q-16 11 -22.5 28.5t-6.5 47.5q0 17 4.5 26t11.5 9q11 0 18 -13t20 -29q23 -29 46 -43t49 -14q22 0 41.5 16t33.5 40.5t20 49.5q3 11 4 22t-1 20q-11 -10 -26.5 -15t-29.5 -5q-10 0 -20 2.5t-20 6.5q-14 5 -27.5 11t-30.5 6
q-24 0 -44 -9.5t-27 -9.5q-6 0 -10.5 5t-4.5 11q0 8 15 22t35.5 25.5t36.5 11.5q14 0 28 -3.5t28 -8.5q15 -5 31 -10t34 -5q7 0 15.5 4t13.5 8q2 2 4 8t2 14q0 32 -13 59.5t-36.5 44t-54.5 16.5q-24 0 -43 -10.5t-30 -23.5q-12 -14 -20.5 -32.5t-16.5 -32t-17 -13.5
q-8 0 -12 7.5t-4 23.5q0 26 3 42t10 45q3 11 10 14.5t14 7.5q15 8 33 15.5t47 13t74 5.5q49 0 92.5 -25.5t71 -72t27.5 -109.5q0 -65 -27 -120.5t-78.5 -89.5t-124.5 -34z" />
  </g>

</svg>
