<?xml version="1.0" standalone="no"?>
<!DOCTYPE svg PUBLIC "-//W3C//DTD SVG 1.1//EN" "http://www.w3.org/Graphics/SVG/1.1/DTD/svg11.dtd" >
<svg xmlns="http://www.w3.org/2000/svg" xmlns:xlink="http://www.w3.org/1999/xlink" version="1.1" viewBox="-10 0 619 1000">
  <g transform="matrix(1 0 0 -1 0 800)">
   <path fill="currentColor"
d="M205 -270q-20 0 -20 15q0 8 6 12.5t17 8.5q15 5 26 10.5t11 27.5v185q-66 9 -117 34.5t-79.5 69t-28.5 104.5q0 63 27 110t77.5 77.5t120.5 42.5v65q0 27 -10 47t-35 25q-11 2 -11 16q0 13 10 15q25 4 52 15t51.5 22t39.5 16q5 2 8 2.5t6 0.5q7 0 9 -4t2 -9
q0 -7 -2 -23.5t-3 -30.5v-155q67 -10 118 -37t80 -69t29 -97q0 -60 -24.5 -108t-74.5 -79.5t-127 -45.5v-187q0 -22 11 -27.5t26 -10.5q11 -4 17 -8.5t6 -12.5q0 -7 -5 -11t-15 -4q-20 0 -37.5 1t-33.5 1.5t-31 0.5q-16 0 -30.5 -1t-30 -2.5t-35.5 -1.5zM245 35v351
q-33 -9 -54 -32.5t-31 -57t-10 -74.5q0 -50 10.5 -88t31.5 -63t53 -36zM363 33q35 11 55.5 36t30 62.5t9.5 85.5q0 46 -10.5 78t-32 54t-53.5 36z" />
  </g>

</svg>
