<?xml version="1.0" standalone="no"?>
<!DOCTYPE svg PUBLIC "-//W3C//DTD SVG 1.1//EN" "http://www.w3.org/Graphics/SVG/1.1/DTD/svg11.dtd" >
<svg xmlns="http://www.w3.org/2000/svg" xmlns:xlink="http://www.w3.org/1999/xlink" version="1.1" viewBox="-17 0 512 1000">
  <g transform="matrix(1 0 0 -1 0 800)">
   <path fill="currentColor"
d="M222 -14q-23 0 -42 15.5t-28 41.5q-8 24 -13.5 48.5t-9.5 41t-9 16.5q-16 0 -32 -13.5t-29 -27t-20 -13.5q-4 0 -15.5 10.5t-21 29t-9.5 40.5q0 15 12.5 35t33 35.5t42.5 15.5t36 -14.5t24 -49.5q6 -22 15.5 -42t24 -32.5t35.5 -12.5q29 0 54 14t44 39.5t32 59t18 72.5
h-16q-63 0 -116 19t-91.5 50t-60 68.5t-21.5 74.5q0 36 16 71t43 63.5t60 45t66 16.5q46 0 84.5 -39t63 -104t27.5 -144q17 2 30 4.5t16 2.5q8 0 14 -7t6 -19q0 -13 -3.5 -36t-14.5 -39q-2 -4 -14.5 -8.5t-30.5 -8.5q-3 -62 -17 -119.5t-39 -102.5t-61 -71t-83 -26zM363 409
q1 6 1.5 11.5t0.5 11.5q1 44 -20.5 77.5t-55.5 52t-72 18.5q-33 0 -57.5 -8.5t-37.5 -25t-13 -39.5q0 -20 21.5 -38t57.5 -31.5t81.5 -21t93.5 -7.5z" />
  </g>

</svg>
