<?xml version="1.0" standalone="no"?>
<!DOCTYPE svg PUBLIC "-//W3C//DTD SVG 1.1//EN" "http://www.w3.org/Graphics/SVG/1.1/DTD/svg11.dtd" >
<svg xmlns="http://www.w3.org/2000/svg" xmlns:xlink="http://www.w3.org/1999/xlink" version="1.1" viewBox="-10 0 581 1000">
  <g transform="matrix(1 0 0 -1 0 800)">
   <path fill="currentColor"
d="M38 -3q-20 0 -20 15q0 13 23 21q15 5 26 10.5t11 27.5v475q0 27 -6.5 47t-31.5 25q-11 2 -11 16q0 13 10 15q25 5 57 15.5t61.5 21.5t44.5 16q9 3 14 3q7 0 9 -4t2 -9t-1 -14t-2 -19.5t-2 -20.5v-264q0 -9 1 -17t4 -10q16 13 38.5 29t52 28.5t63.5 12.5q35 0 62 -19.5
t42 -52t15 -72.5v-200q0 -21 10.5 -28t24.5 -12q10 -4 15.5 -8.5t5.5 -12.5q0 -15 -22 -15q-25 0 -41 1.5t-30.5 2.5t-36.5 1q-23 0 -35.5 -1t-26 -2.5t-38.5 -1.5t-25 16q0 8 6.5 13t13.5 7q13 4 23.5 12t10.5 30v176q0 21 -8 38t-21 27t-29 10q-14 0 -27.5 -3t-24.5 -11
q-13 -9 -17.5 -21t-4.5 -38v-180q0 -20 9.5 -27t22.5 -12q8 -3 14 -8t6 -13q0 -16 -17 -16q-20 0 -39 1.5t-36.5 2.5t-35.5 1q-17 0 -34.5 -1t-36 -2.5t-38.5 -1.5zM40 490q-13 0 -18.5 10.5t-5.5 20.5q0 14 8 22.5t21 8.5h322q10 0 16.5 -5.5t6.5 -13.5q0 -1 -0.5 -2
t-0.5 -3q-3 -13 -14 -25.5t-28 -12.5h-307z" />
  </g>

</svg>
