<?xml version="1.0" standalone="no"?>
<!DOCTYPE svg PUBLIC "-//W3C//DTD SVG 1.1//EN" "http://www.w3.org/Graphics/SVG/1.1/DTD/svg11.dtd" >
<svg xmlns="http://www.w3.org/2000/svg" xmlns:xlink="http://www.w3.org/1999/xlink" version="1.1" viewBox="-10 0 1015 1000">
  <g transform="matrix(1 0 0 -1 0 800)">
   <path fill="currentColor"
d="M101 -18q-43 0 -64.5 22t-21.5 51q0 23 13 46.5t41 23.5q11 0 21.5 -4.5t20.5 -9.5q9 -4 18 -8.5t17 -4.5q25 0 46 23.5t36.5 76t24.5 139.5t9 214q0 30 -22 43t-71 24q-19 5 -19 22q0 7 6 11t12 4q22 0 51.5 -1t58 -2.5t48.5 -1.5h235q20 0 48 1t57 2t50 1q8 0 12 -3.5
t4 -11.5q0 -10 -5 -14t-14 -7q-27 -8 -41 -16t-19 -20t-5 -32v-143q0 -18 2.5 -28t5.5 -9q23 5 57.5 7.5t61.5 2.5q94 0 149.5 -47.5t55.5 -133.5q0 -57 -18 -90.5t-42 -50.5t-43 -28q-31 -18 -69.5 -26t-89.5 -8q-6 0 -19.5 1.5t-45 3t-92.5 1.5q-20 0 -46.5 -1t-54 -2.5
t-49.5 -1.5q-6 0 -12 4t-6 11q0 17 19 22q38 8 52 20t14 43v430q0 32 -12.5 49.5t-53.5 17.5h-28q-37 0 -48 -15.5t-11 -38.5q0 -141 -15 -238.5t-40 -160.5t-54.5 -97.5t-59.5 -48t-55 -13.5zM698 38q25 0 48 22.5t37.5 58.5t14.5 76q0 36 -8 59t-19.5 37t-20.5 21
q-8 6 -25 13.5t-41 7.5q-11 0 -19 -3.5t-12 -10.5t-4 -18v-202q0 -14 2.5 -25.5t9.5 -19.5q7 -7 16 -11.5t21 -4.5z" />
  </g>

</svg>
