<?xml version="1.0" standalone="no"?>
<!DOCTYPE svg PUBLIC "-//W3C//DTD SVG 1.1//EN" "http://www.w3.org/Graphics/SVG/1.1/DTD/svg11.dtd" >
<svg xmlns="http://www.w3.org/2000/svg" xmlns:xlink="http://www.w3.org/1999/xlink" version="1.1" viewBox="-10 0 438 1000">
  <g transform="matrix(1 0 0 -1 0 800)">
   <path fill="currentColor"
d="M240 -14q-67 0 -116.5 26.5t-76.5 75t-27 115.5q0 76 32 127.5t84 78.5t112 27q47 0 89.5 -22.5t72.5 -69.5l-33 -22q-26 30 -52.5 44t-50.5 14q-43 0 -73 -41t-30 -112q0 -54 15 -90.5t42 -54t61 -16.5q31 2 55 14t43 37l31 -26q-37 -52 -83 -78.5t-95 -26.5z" />
  </g>

</svg>
