<?xml version="1.0" standalone="no"?>
<!DOCTYPE svg PUBLIC "-//W3C//DTD SVG 1.1//EN" "http://www.w3.org/Graphics/SVG/1.1/DTD/svg11.dtd" >
<svg xmlns="http://www.w3.org/2000/svg" xmlns:xlink="http://www.w3.org/1999/xlink" version="1.1" viewBox="-10 0 533 1000">
  <g transform="matrix(1 0 0 -1 0 800)">
   <path fill="currentColor"
d="M296.523 -8.16113q-56.2217 0 -103.375 14.5088t-82.0654 41.2598q-34.9121 26.75 -53.9551 63.9287q-19.042 37.1787 -19.042 81.6123q0 39.8994 16.7754 79.3447q16.7754 39.4463 50.7812 72.0908q34.0049 32.6445 87.0527 52.1406q53.0469 19.4961 124.685 19.4961
q18.1357 0 42.6191 -4.53418q24.4834 -4.5332 47.1543 -10.8809q22.6699 -6.34766 34.458 -12.6953q4.53418 -1.81348 7.70801 -4.08105q3.17383 -2.2666 4.08008 -8.61426q4.53418 -29.0176 4.9873 -51.6875q0.454102 -22.6699 0.454102 -27.2041
q0 -9.97461 -8.16113 -11.7881q-8.16211 -1.81348 -16.7764 1.81348t-11.335 9.97461q-7.25391 22.6699 -19.043 40.8057q-11.7881 18.1357 -32.6445 29.0176t-58.0352 10.8818q-39.8994 0 -65.7432 -23.5771q-25.8438 -23.5762 -38.5391 -60.7549
q-12.6943 -37.1787 -12.6943 -78.8916q0 -59.8486 10.4277 -101.108t35.3652 -62.1152q24.9365 -20.8564 68.4629 -20.8564q34.459 0 57.582 10.4277q23.123 10.4287 39.4463 31.2842q16.3223 20.8564 28.1104 51.6875q5.44043 14.5098 18.5898 13.1494
q13.1484 -1.36035 13.1484 -11.335q0 -12.6953 -0.454102 -24.4844q-0.453125 -11.7881 -2.71973 -26.2969q-2.26758 -14.5088 -6.80078 -34.458q-0.907227 -5.44141 -6.34766 -11.7891q-5.44141 -6.34668 -9.06836 -8.16113q-25.3906 -11.7881 -59.8486 -19.9492
q-34.459 -8.16113 -85.2393 -8.16113z" />
  </g>

</svg>
