<?xml version="1.0" standalone="no"?>
<!DOCTYPE svg PUBLIC "-//W3C//DTD SVG 1.1//EN" "http://www.w3.org/Graphics/SVG/1.1/DTD/svg11.dtd" >
<svg xmlns="http://www.w3.org/2000/svg" xmlns:xlink="http://www.w3.org/1999/xlink" version="1.1" viewBox="-10 0 305 1000">
  <g transform="matrix(1 0 0 -1 0 800)">
   <path fill="currentColor"
d="M35 -3q-10 0 -15 4t-5 11q0 8 6 12.5t17 8.5q15 5 26 10.5t11 27.5v475q0 27 -6.5 47t-31.5 25q-11 2 -11 16q0 13 10 15q25 5 57.5 15.5t62 21.5t44.5 16q9 3 14 3q7 0 9 -4t2 -9q0 -7 -2 -23.5t-3 -30.5v-565q0 -22 11 -27.5t26 -10.5q11 -4 17 -8.5t6 -12.5
q0 -7 -5 -11t-15 -4q-20 0 -40 1t-39 1.5t-37 0.5q-17 0 -34.5 -1t-36 -2.5t-38.5 -1.5zM43 -266q-16 0 -18 13.5t8 31.5q12 23 24 45.5t24.5 45.5t23.5 45t21.5 31t20.5 9q11 0 21.5 -10t20.5 -30q12 -22 24 -45t24 -45.5t24 -45.5q10 -19 5 -32t-15 -13q-7 0 -17.5 9
t-25.5 25q-10 12 -23 28.5t-32 35.5q-4 4 -5.5 4.5t-6.5 -4.5q-19 -19 -31.5 -35.5t-23.5 -28.5q-15 -16 -25 -25t-18 -9z" />
  </g>

</svg>
