<?xml version="1.0" standalone="no"?>
<!DOCTYPE svg PUBLIC "-//W3C//DTD SVG 1.1//EN" "http://www.w3.org/Graphics/SVG/1.1/DTD/svg11.dtd" >
<svg xmlns="http://www.w3.org/2000/svg" xmlns:xlink="http://www.w3.org/1999/xlink" version="1.1" viewBox="-20 0 914 1000">
  <g transform="matrix(1 0 0 -1 0 800)">
   <path fill="currentColor"
d="M372 -3q-6 0 -12 4t-6 11q0 17 19 22q38 8 52 20t14 43l1 207q0 33 -5 70.5t-16.5 74t-29.5 66.5t-43 48t-58 18q-30 0 -54.5 -9t-45.5 -23q-4 -3 -9 -3q-14 0 -14 19q0 11 6.5 21t14.5 18q22 20 46.5 33.5t51 20t52.5 6.5q32 0 61.5 -9t56 -26t46.5 -41.5t32 -56.5
q3 -5 4 -5q2 0 2.5 1.5t1.5 2.5q17 32 38 57t44.5 42t50 26t53.5 9q35 0 69.5 -14.5t67.5 -45.5q8 -8 14.5 -18t6.5 -21q0 -19 -14 -19q-4 0 -9 3q-19 18 -44.5 27t-55.5 9q-41 0 -70 -28t-47 -71.5t-26.5 -92t-8.5 -89.5v-206q0 -28 13 -40.5t52 -23.5q9 -3 14 -7t5 -14
q0 -7 -4 -11t-12 -4q-21 0 -50 1t-57 2t-48 1t-46.5 -1t-54 -2.5t-49.5 -1.5zM118 438q28 0 28 15q0 14 -20 19q-29 8 -44 23t-15 37q0 16 11 26.5t25 16.5q19 8 33.5 17t14.5 34t-18 37.5t-46 12.5q-40 0 -68.5 -27t-28.5 -73q0 -37 14.5 -63.5t35.5 -43t42.5 -24
t35.5 -7.5z" />
  </g>

</svg>
