<?xml version="1.0" standalone="no"?>
<!DOCTYPE svg PUBLIC "-//W3C//DTD SVG 1.1//EN" "http://www.w3.org/Graphics/SVG/1.1/DTD/svg11.dtd" >
<svg xmlns="http://www.w3.org/2000/svg" xmlns:xlink="http://www.w3.org/1999/xlink" version="1.1" viewBox="-10 0 383 1000">
  <g transform="matrix(1 0 0 -1 0 800)">
   <path fill="currentColor"
d="M186 -14q-44 0 -79.5 15t-56 43t-20.5 66q0 13 9 29t21 30.5t21 22.5q13 13 -4 22q-23 11 -35 26t-12 44q0 42 30.5 76.5t79.5 55.5t104 21q32 0 52.5 -17t20.5 -40q0 -16 -18.5 -35.5t-40.5 -19.5q-75 0 -117 -20.5t-42 -43.5q0 -10 5.5 -17.5t21.5 -7.5q6 0 21.5 8
t35.5 18t41 18t40 8q31 0 39.5 -13t8.5 -33q0 -33 -25 -58t-55 -25q-12 0 -31.5 2.5t-37.5 4.5t-28 1q-18 -2 -27 -11t-9 -19q0 -14 18.5 -25t51.5 -11q20 0 45.5 5t50 13t40.5 17q11 5 18.5 8t10.5 3q19 0 19 -17q0 -23 -14.5 -48.5t-38.5 -47t-53.5 -35t-60.5 -13.5z
M223 487q-5 0 -12 4t-15 11q-16 17 -33.5 33t-34 33t-32 35.5t-28.5 38.5q-9 14 0.5 26.5t27.5 20t34 7.5q14 0 20 -4.5t9 -11.5q5 -11 15 -31t21.5 -43.5t20.5 -45.5t13 -37q4 -14 4 -25t-10 -11z" />
  </g>

</svg>
