<?xml version="1.0" standalone="no"?>
<!DOCTYPE svg PUBLIC "-//W3C//DTD SVG 1.1//EN" "http://www.w3.org/Graphics/SVG/1.1/DTD/svg11.dtd" >
<svg xmlns="http://www.w3.org/2000/svg" xmlns:xlink="http://www.w3.org/1999/xlink" version="1.1" viewBox="-30 0 374 1000">
  <g transform="matrix(1 0 0 -1 0 800)">
   <path fill="currentColor"
d="M166 -15q-43 0 -72 33t-29 98l1 293q0 17 17 22.5t50 5.5q40 0 53 -9.5t13 -26.5q0 -15 -3 -39.5t-7 -54t-8 -60t-7 -57.5t-3 -46q0 -15 13.5 -19t30.5 -4t33 3t24 3q7 0 12 -5t5 -16q0 -26 -13 -54t-40 -47.5t-70 -19.5zM254 564q-31 0 -53.5 22.5t-22.5 53.5
q0 33 22.5 55t53.5 22q34 0 57 -22t23 -55q0 -31 -23 -53.5t-57 -22.5zM56 564q-31 0 -53.5 22.5t-22.5 53.5q0 33 22.5 55t53.5 22q34 0 57 -22t23 -55q0 -31 -23 -53.5t-57 -22.5zM21 654q-4 0 -13.5 8t-9.5 12q0 6 10 20.5t24.5 30.5t28 28t19.5 12q10 0 24 -3t48 -5
q23 -1 42 -2.5t28 -1.5t18 5t17 15q8 9 11.5 15t7.5 6q5 0 14 -7.5t9 -12.5q0 -4 -4 -10t-13 -19q-11 -16 -18 -26t-16 -24q-6 -9 -15 -11.5t-16 -2.5q-9 0 -30 1.5t-46 3t-46.5 3t-30.5 1.5q-7 0 -10.5 -3t-8.5 -8q-10 -12 -15 -18.5t-9 -6.5z" />
  </g>

</svg>
