<?xml version="1.0" standalone="no"?>
<!DOCTYPE svg PUBLIC "-//W3C//DTD SVG 1.1//EN" "http://www.w3.org/Graphics/SVG/1.1/DTD/svg11.dtd" >
<svg xmlns="http://www.w3.org/2000/svg" xmlns:xlink="http://www.w3.org/1999/xlink" version="1.1" viewBox="-10 0 453 1000">
  <g transform="matrix(1 0 0 -1 0 800)">
   <path fill="currentColor"
d="M34 290q-6 0 -9.5 3t-3.5 7q0 9 16 15q11 5 18 7.5t7 15.5v300q0 14 -3.5 26.5t-19.5 16.5q-10 2 -10 12t8 12q22 5 61 17t74 22q12 0 12 -20q0 -18 -2 -44t-2 -62l1 -159q0 -11 8 -11q4 0 14.5 9t23 22t23 24.5t13.5 17.5q8 13 5 17.5t-23 6.5q-4 0 -6.5 3t-2.5 6
q0 8 5.5 9t9.5 1h35q13 0 38 1t49 2t34 1q9 0 9 -9q0 -5 -4 -9t-12 -5q-13 -1 -33 -10t-34 -19l-59 -41q-4 -5 -2 -9t5 -8l79 -106q11 -13 29.5 -24.5t29.5 -14.5q6 -1 12 -4t6 -9q0 -4 -4 -7t-12 -3q-52 0 -95.5 1t-78.5 1q-7 0 -10.5 3t-3.5 9q0 5 4 8t13 6q3 2 4.5 2.5
t2 1.5t0.5 2q0 3 -3 7t-8 11l-53 76q-3 4 -5.5 3.5t-2.5 -4.5v-80q0 -8 3.5 -12t14.5 -9q5 -1 9 -5.5t4 -9.5q0 -4 -1.5 -7.5t-8.5 -3.5q-21 0 -43.5 1.5t-40.5 1.5q-19 0 -40.5 -1.5t-43.5 -1.5z" />
  </g>

</svg>
