<?xml version="1.0" standalone="no"?>
<!DOCTYPE svg PUBLIC "-//W3C//DTD SVG 1.1//EN" "http://www.w3.org/Graphics/SVG/1.1/DTD/svg11.dtd" >
<svg xmlns="http://www.w3.org/2000/svg" xmlns:xlink="http://www.w3.org/1999/xlink" version="1.1" viewBox="-47 0 941 1000">
  <g transform="matrix(1 0 0 -1 0 800)">
   <path fill="currentColor"
d="M510 -14q-70 0 -133 23.5t-112 67t-77 104t-28 134.5q0 68 23 130.5t68.5 111.5t112.5 78t155 29q70 0 133 -23.5t112 -67t77 -104t28 -134.5q0 -67 -23 -130t-68.5 -112t-112.5 -78t-155 -29zM528 33q53 0 88.5 32t53.5 88.5t18 129.5q0 60 -11 119t-34 107.5
t-58.5 77.5t-85.5 29q-52 0 -87.5 -32t-53 -88t-17.5 -129q0 -60 11 -119t33.5 -107.5t58 -78t84.5 -29.5zM123 451q-5 0 -12 4t-15 11q-16 17 -33.5 33t-34 33t-32 35.5t-28.5 38.5q-9 14 0.5 26.5t27.5 20t34 7.5q14 0 20 -4.5t9 -11.5q5 -11 15 -31t21.5 -43.5
t20.5 -45.5t13 -37q4 -14 4 -25t-10 -11z" />
  </g>

</svg>
