<?xml version="1.0" standalone="no"?>
<!DOCTYPE svg PUBLIC "-//W3C//DTD SVG 1.1//EN" "http://www.w3.org/Graphics/SVG/1.1/DTD/svg11.dtd" >
<svg xmlns="http://www.w3.org/2000/svg" xmlns:xlink="http://www.w3.org/1999/xlink" version="1.1" viewBox="-10 0 436 1000">
  <g transform="matrix(1 0 0 -1 0 800)">
   <path fill="currentColor"
d="M155 -285q-22 0 -46.5 10.5t-42 26.5t-17.5 32q0 44 -0.5 80t-1.5 68t-2 63t-2 63.5t-1.5 69t-0.5 80.5q0 60 22 112.5t65 84.5t107 32q60 0 97.5 -33.5t55.5 -87t18 -114.5q0 -56 -22 -104.5t-62.5 -78.5t-96.5 -30q-10 0 -26.5 12t-31.5 28t-23 27q-4 6 -6.5 2
t-2.5 -16q0 -22 5 -53t12 -58q11 -41 21 -76.5t16 -60t6 -33.5q0 -16 -8 -31t-32 -15zM173 88q45 0 83.5 27t62 71.5t23.5 95.5q0 17 -12.5 35t-38.5 19q-59 2 -95 -24t-51.5 -71.5t-15.5 -104.5q0 -27 14 -37.5t30 -10.5zM205 474q-28 0 -28 15q0 14 20 19q29 8 44 23
t15 37q0 16 -11 26.5t-25 16.5q-19 8 -33.5 17t-14.5 34t18 37.5t46 12.5q40 0 68.5 -27t28.5 -73q0 -37 -14.5 -63.5t-35.5 -43t-42.5 -24t-35.5 -7.5z" />
  </g>

</svg>
