<?xml version="1.0" standalone="no"?>
<!DOCTYPE svg PUBLIC "-//W3C//DTD SVG 1.1//EN" "http://www.w3.org/Graphics/SVG/1.1/DTD/svg11.dtd" >
<svg xmlns="http://www.w3.org/2000/svg" xmlns:xlink="http://www.w3.org/1999/xlink" version="1.1" viewBox="-10 0 813 1000">
  <g transform="matrix(1 0 0 -1 0 800)">
   <path fill="currentColor"
d="M375 -14q-70 0 -133 23.5t-112 67t-77 104t-28 134.5q0 68 23.5 130.5t69.5 111.5t112.5 78t153.5 29q71 0 116 -17.5t77 -34.5q23 -13 47.5 -28t41.5 -15q16 0 23.5 10.5t7.5 22.5t-8 20.5t-19 15.5q-9 5 -17 10.5t-8 21.5q0 14 16.5 29.5t38.5 26.5t38 11
q14 0 26.5 -14t20.5 -34t8 -39q0 -31 -13 -58t-37.5 -45.5t-57.5 -26.5q-7 -1 -10.5 -5t0.5 -9q33 -39 46 -80t13 -91q0 -67 -23 -130t-68.5 -112t-112.5 -78t-155 -29zM393 37q80 0 120 68t40 178q0 60 -11 118.5t-34 106t-58.5 76t-85.5 28.5q-39 0 -69 -17.5t-49.5 -50
t-29.5 -77.5t-10 -100q0 -60 11 -118.5t33.5 -106.5t58 -76.5t84.5 -28.5zM380 683q-12 0 -25.5 15.5t-13.5 26.5q0 10 7.5 16t15.5 13q8 6 14 12t6 15q0 8 -4.5 13t-15.5 5q-13 0 -20.5 -9t-15.5 -18q-7 -8 -14 -13.5t-18 -5.5q-13 0 -25 16t-12 26t5.5 18.5t14.5 12.5
q20 10 43 16.5t61 6.5t70 -16.5t32 -48.5q0 -14 -16 -27.5t-40 -20.5q-11 -3 -16.5 -7t-5.5 -13q0 -5 1.5 -10.5t1.5 -10.5q0 -4 -12 -8t-18 -4z" />
  </g>

</svg>
