<?xml version="1.0" standalone="no"?>
<!DOCTYPE svg PUBLIC "-//W3C//DTD SVG 1.1//EN" "http://www.w3.org/Graphics/SVG/1.1/DTD/svg11.dtd" >
<svg xmlns="http://www.w3.org/2000/svg" xmlns:xlink="http://www.w3.org/1999/xlink" version="1.1" viewBox="-22 0 1058 1000">
  <g transform="matrix(1 0 0 -1 0 800)">
   <path fill="currentColor"
d="M652 -14q-70 0 -133 23.5t-112 67t-77 104t-28 134.5q0 68 23 130.5t68.5 111.5t112.5 78t155 29q70 0 133 -23.5t112 -67t77 -104t28 -134.5q0 -67 -23 -130t-68.5 -112t-112.5 -78t-155 -29zM670 33q53 0 88.5 32t53.5 88.5t18 129.5q0 60 -11 119t-34 107.5
t-58.5 77.5t-85.5 29q-52 0 -87.5 -32t-53 -88t-17.5 -129q0 -60 11 -119t33.5 -107.5t58 -78t84.5 -29.5zM263 443q-4 2 -10 7.5t-11 14.5q-10 21 -24 47t-27 51t-21.5 44t-8.5 25q0 18 16.5 35t36.5 17q11 0 24.5 -6t15.5 -18t6.5 -36t9.5 -52.5t8 -54.5t2 -41t-4 -25.5
t-13 -7.5zM116 438q-14 0 -35.5 7.5t-42.5 24t-35.5 43t-14.5 63.5q0 46 28.5 73t68.5 27q28 0 46 -12.5t18 -37.5t-14.5 -34t-33.5 -17q-14 -6 -25 -16.5t-11 -26.5q0 -22 15 -37t44 -23q20 -5 20 -19q0 -15 -28 -15z" />
  </g>

</svg>
