<?xml version="1.0" standalone="no"?>
<!DOCTYPE svg PUBLIC "-//W3C//DTD SVG 1.1//EN" "http://www.w3.org/Graphics/SVG/1.1/DTD/svg11.dtd" >
<svg xmlns="http://www.w3.org/2000/svg" xmlns:xlink="http://www.w3.org/1999/xlink" version="1.1" viewBox="-10 0 377 1000">
  <g transform="matrix(1 0 0 -1 0 800)">
   <path fill="currentColor"
d="M56 489q-4 0 -13.5 8t-9.5 12q0 6 10 20.5t24.5 30.5t28 28t19.5 12q10 0 24 -3t48 -5q23 -1 42 -2.5t28 -1.5t18 5t17 15q8 9 11.5 15t7.5 6q5 0 14 -7.5t9 -12.5q0 -4 -4 -10t-13 -19q-11 -16 -18 -26t-16 -24q-6 -9 -15 -11.5t-16 -2.5q-9 0 -30 1.5t-46 3t-46.5 3
t-30.5 1.5q-7 0 -10.5 -3t-8.5 -8q-10 -12 -15 -18.5t-9 -6.5z" />
  </g>

</svg>
