<?xml version="1.0" standalone="no"?>
<!DOCTYPE svg PUBLIC "-//W3C//DTD SVG 1.1//EN" "http://www.w3.org/Graphics/SVG/1.1/DTD/svg11.dtd" >
<svg xmlns="http://www.w3.org/2000/svg" xmlns:xlink="http://www.w3.org/1999/xlink" version="1.1" viewBox="-10 0 466 1000">
  <g transform="matrix(1 0 0 -1 0 800)">
   <path fill="currentColor"
d="M211 -14q-54 0 -97 29t-68 78.5t-25 111.5q0 64 30 116.5t81 83.5t113 31q43 0 78 -19t56 -50.5t21 -71.5q0 -39 -31 -39h-198q-14 0 -20.5 -8t-6.5 -27q0 -36 16 -65.5t44 -46.5t65 -17q29 0 53.5 11t49.5 30q3 2 7 4.5t7 2.5q11 0 11 -13q0 -9 -6 -27q-9 -27 -33 -53.5
t-61.5 -43.5t-85.5 -17zM171 300h53q29 0 38.5 1t17.5 4q5 2 8 11t3 19q0 26 -16.5 42.5t-42.5 16.5q-20 0 -37.5 -11.5t-28.5 -29.5t-10 -38q0 -15 15 -15zM231 652q-7 0 -16 -7.5t-14 -14.5l-10 -11.5t-25 -29t-30 -37.5t-25 -36q-4 -8 -9.5 -19.5t-5.5 -21.5q0 -5 3.5 -9
t10.5 -4q11 0 21 7t22 19q21 21 33 30.5t31 27.5q8 8 12.5 7.5t13.5 -7.5q20 -17 31 -27.5t33 -30.5q12 -11 22.5 -18.5t20.5 -7.5q14 0 14 13q0 10 -5 21.5t-10 19.5q-10 16 -25 36t-30 37.5t-25 29l-10 11.5q-5 7 -12.5 14.5t-15.5 7.5zM314 605q-9 0 -9 18q0 7 5.5 31.5
t13 53.5t14 52t8.5 27q5 8 12 14.5t15 6.5q13 0 30 -5t30 -13.5t13 -19.5q0 -5 -9.5 -20.5t-24 -35.5t-29.5 -39.5t-26 -34t-14 -17.5q-7 -8 -13.5 -13t-15.5 -5z" />
  </g>

</svg>
