<?xml version="1.0" standalone="no"?>
<!DOCTYPE svg PUBLIC "-//W3C//DTD SVG 1.1//EN" "http://www.w3.org/Graphics/SVG/1.1/DTD/svg11.dtd" >
<svg xmlns="http://www.w3.org/2000/svg" xmlns:xlink="http://www.w3.org/1999/xlink" version="1.1" viewBox="-10 0 321 1000">
  <g transform="matrix(1 0 0 -1 0 800)">
   <path fill="currentColor"
d="M138 259q-50 0 -80.5 26t-30.5 59q0 14 5.5 21.5t19.5 7.5h120q9 0 13.5 4.5t4.5 14.5q0 14 -7.5 28t-22 23.5t-34.5 9.5q-24 0 -36 -5.5t-25 -22.5q-5 -7 -11 -7q-4 0 -14.5 5.5t-10.5 12.5q0 5 2 12t5 11q11 25 40.5 47.5t79.5 22.5q32 0 61.5 -15t48 -43.5t18.5 -69.5
q0 -37 -19.5 -69.5t-52.5 -52.5t-74 -20zM141 289q14 0 29 11.5t15 31.5q0 11 -11 11h-47q-10 0 -15 -5t-5 -15t6 -22t28 -12z" />
  </g>

</svg>
