<?xml version="1.0" standalone="no"?>
<!DOCTYPE svg PUBLIC "-//W3C//DTD SVG 1.1//EN" "http://www.w3.org/Graphics/SVG/1.1/DTD/svg11.dtd" >
<svg xmlns="http://www.w3.org/2000/svg" xmlns:xlink="http://www.w3.org/1999/xlink" version="1.1" viewBox="-10 0 400 1000">
  <g transform="matrix(1 0 0 -1 0 800)">
   <path fill="currentColor"
d="M226 -14q-70 0 -104 34t-34 96v230q0 9 -7 13t-24 5h-15q-7 0 -12 12.5t-5 22.5q0 2 1 5t5 4q25 8 55 28t58 42.5t45 36.5q8 6 13.5 10t13.5 4q10 0 14 -4t2 -18l-7 -62q-1 -13 6 -17.5t19 -4.5h120q2 0 5 -7t3 -12q0 -16 -4 -29.5t-9 -13.5h-92q-22 0 -31 -6t-9 -19
v-187q0 -47 17.5 -69.5t46.5 -22.5q28 0 41 6t24 10q4 2 7 2q5 0 8 -6.5t3 -15.5q0 -6 -22 -22.5t-57 -30.5t-75 -14zM231 -240q-34 0 -59 25t-25 59q0 37 25 62t59 25q37 0 62 -25t25 -62q0 -34 -25 -59t-62 -25z" />
  </g>

</svg>
