<?xml version="1.0" standalone="no"?>
<!DOCTYPE svg PUBLIC "-//W3C//DTD SVG 1.1//EN" "http://www.w3.org/Graphics/SVG/1.1/DTD/svg11.dtd" >
<svg xmlns="http://www.w3.org/2000/svg" xmlns:xlink="http://www.w3.org/1999/xlink" version="1.1" viewBox="-10 0 823 1000">
  <g transform="matrix(1 0 0 -1 0 800)">
   <path fill="currentColor"
d="M40 -3q-6 0 -13 4t-7 11q0 8 7.5 13t15.5 8q15 5 26 11.5t11 26.5v232q0 20 -6 34.5t-23 17.5q-4 1 -8 5t-4 14q0 15 11 18q24 6 54 14.5t58.5 18.5t47.5 20q4 2 7 4t6 2q10 0 10 -12q0 -8 -2.5 -26.5t-2.5 -32.5q0 -10 2 -12h2q32 32 68 50t79 18q30 0 56.5 -23
t38.5 -56h5q29 38 66 58.5t83 20.5q31 0 56.5 -17t41 -49t15.5 -78v-222q0 -20 11 -26t26 -11q8 -3 14 -8t6 -13q0 -7 -5.5 -11t-11.5 -4q-20 0 -39 1.5t-37 2.5t-36 1q-17 0 -32.5 -1t-31.5 -2.5t-36 -1.5q-6 0 -11 4t-5 11q0 8 5.5 13t13.5 8q13 4 18.5 10t5.5 20v204
q0 25 -6 42.5t-17.5 27t-26.5 9.5q-10 0 -24 -5.5t-28 -17.5q-11 -10 -11 -35v-218q0 -20 6 -26t21 -11q8 -3 14 -8t6 -13q0 -7 -5.5 -11t-11.5 -4q-20 0 -36.5 1.5t-32 2.5t-33.5 1q-17 0 -32.5 -1t-31.5 -2.5t-36 -1.5q-6 0 -11 4t-5 11q0 8 5.5 13t13.5 8q13 4 18.5 10
t5.5 20v204q0 25 -6 42t-17 26.5t-26 9.5q-10 0 -24 -5t-30 -16q-10 -7 -10 -32v-222q0 -17 4.5 -24.5t19.5 -12.5q8 -3 13.5 -8t5.5 -13q0 -6 -5 -10.5t-11 -4.5q-20 0 -36.5 1.5t-31.5 2.5t-33 1q-17 0 -35 -1t-37 -2.5t-39 -1.5zM429 488q-34 0 -59 25t-25 59q0 37 25 62
t59 25q37 0 62 -25t25 -62q0 -34 -25 -59t-62 -25z" />
  </g>

</svg>
