<?xml version="1.0" standalone="no"?>
<!DOCTYPE svg PUBLIC "-//W3C//DTD SVG 1.1//EN" "http://www.w3.org/Graphics/SVG/1.1/DTD/svg11.dtd" >
<svg xmlns="http://www.w3.org/2000/svg" xmlns:xlink="http://www.w3.org/1999/xlink" version="1.1" viewBox="-25 0 333 1000">
  <g transform="matrix(1 0 0 -1 0 800)">
   <path fill="currentColor"
d="M166 -15q-43 0 -72 33t-29 98l1 293q0 17 17 22.5t50 5.5q40 0 53 -9.5t13 -26.5q0 -15 -3 -39.5t-7 -54t-8 -60t-7 -57.5t-3 -46q0 -15 13.5 -19t30.5 -4t33 3t24 3q7 0 12 -5t5 -16q0 -26 -13 -54t-40 -47.5t-70 -19.5zM196 473q-10 -3 -14 7.5t-3 25.5t4 41t7 55t8 53
t7 35q3 12 16.5 18t23.5 6q20 0 36.5 -17t16.5 -35q0 -6 -8 -25t-21 -44.5t-26.5 -51.5t-25.5 -46q-5 -9 -10.5 -14.5t-10.5 -7.5zM18 474q-28 0 -28 15q0 14 20 19q29 8 44 23t15 37q0 16 -11 26.5t-25 16.5q-19 8 -33.5 17t-14.5 34t18 37.5t46 12.5q40 0 68.5 -27
t28.5 -73q0 -37 -14.5 -63.5t-35.5 -43t-42.5 -24t-35.5 -7.5z" />
  </g>

</svg>
