<?xml version="1.0" standalone="no"?>
<!DOCTYPE svg PUBLIC "-//W3C//DTD SVG 1.1//EN" "http://www.w3.org/Graphics/SVG/1.1/DTD/svg11.dtd" >
<svg xmlns="http://www.w3.org/2000/svg" xmlns:xlink="http://www.w3.org/1999/xlink" version="1.1" viewBox="-10 0 612 1000">
  <g transform="matrix(1 0 0 -1 0 800)">
   <path fill="currentColor"
d="M282.922 -9.06836q-65.29 0 -121.059 25.8438q-55.7676 25.8438 -89.7725 72.0908t-34.0049 107.909q0 42.6191 16.3223 81.6123q16.3223 38.9922 48.0605 69.8232q31.7373 30.8311 78.4375 48.9668q46.7002 18.1367 108.362 18.1367q48.9678 0 93.4004 -14.5088
q44.4336 -14.5088 78.4385 -42.167q34.0049 -27.6572 53.9551 -65.2891q19.9492 -37.6318 19.9492 -83.8789q0 -56.2217 -29.0176 -106.096t-84.7861 -81.1582q-55.7676 -31.2852 -138.286 -31.2852zM289.269 32.6445q21.7637 0 38.0859 11.335t27.2041 32.1914
t16.3223 50.3271q5.44043 29.4717 5.44043 65.7432q0 53.501 -10.8809 94.3076q-10.8818 40.8057 -31.7383 63.9287q-20.8564 23.124 -51.6875 23.124q-28.1104 0 -47.1533 -19.9502q-19.043 -19.9492 -28.5645 -55.3145t-9.52148 -83.4258q0 -53.501 10.8818 -94.7598
q10.8818 -41.2598 31.7373 -64.3828q20.8564 -23.124 49.874 -23.124z" />
  </g>

</svg>
