<?xml version="1.0" standalone="no"?>
<!DOCTYPE svg PUBLIC "-//W3C//DTD SVG 1.1//EN" "http://www.w3.org/Graphics/SVG/1.1/DTD/svg11.dtd" >
<svg xmlns="http://www.w3.org/2000/svg" xmlns:xlink="http://www.w3.org/1999/xlink" version="1.1" viewBox="-10 0 378 1000">
  <g transform="matrix(1 0 0 -1 0 800)">
   <path fill="currentColor"
d="M170 -14q-34 0 -65.5 7.5t-58.5 25.5q-10 16 -14 49.5t-3 72.5q0 13 21 13q9 0 15.5 -6t8.5 -11q20 -40 44 -71.5t61 -31.5q26 0 38.5 16t12.5 35q0 26 -21 43t-46 29q-28 14 -55 32.5t-45 46.5t-18 68q0 41 22.5 70.5t60.5 46t83 16.5q34 0 63.5 -7.5t40.5 -14.5
q8 -10 12.5 -38.5t4.5 -64.5q0 -11 -20 -11q-7 0 -15 5.5t-10 10.5q-13 40 -33.5 60t-44.5 20q-22 0 -39.5 -14t-17.5 -37q0 -20 20.5 -36.5t47.5 -30.5q66 -34 94 -66t28 -86q0 -67 -43 -104t-129 -37zM189 462q-7 0 -16 7.5t-14 14.5l-10 11.5t-25 29t-30 37.5t-25 36
q-4 8 -9.5 19.5t-5.5 21.5q0 5 3.5 9t10.5 4q11 0 21 -7t22 -19q21 -21 33 -30.5t31 -27.5q8 -8 12.5 -7.5t13.5 7.5q20 17 31 27.5t33 30.5q12 11 22.5 18.5t20.5 7.5q14 0 14 -13q0 -10 -5 -21.5t-10 -19.5q-10 -16 -25 -36t-30 -37.5t-25 -29l-10 -11.5
q-5 -7 -12.5 -14.5t-15.5 -7.5zM187 637q-34 0 -59 25t-25 59q0 37 25 62t59 25q37 0 62 -25t25 -62q0 -34 -25 -59t-62 -25z" />
  </g>

</svg>
