<?xml version="1.0" standalone="no"?>
<!DOCTYPE svg PUBLIC "-//W3C//DTD SVG 1.1//EN" "http://www.w3.org/Graphics/SVG/1.1/DTD/svg11.dtd" >
<svg xmlns="http://www.w3.org/2000/svg" xmlns:xlink="http://www.w3.org/1999/xlink" version="1.1" viewBox="-14 0 555 1000">
  <g transform="matrix(1 0 0 -1 0 800)">
   <path fill="currentColor"
d="M205 -3q-6 0 -12 4t-6 11q0 17 19 22q38 8 52 20t14 43v454q0 32 -13 45t-53 22q-19 5 -19 22q0 7 6 11t12 4q22 0 49.5 -1t54 -2.5t46.5 -1.5t48 1t57 2t50 1q8 0 12 -3.5t4 -11.5q0 -10 -5 -14t-14 -7q-41 -12 -53 -25t-12 -43v-452q0 -28 13 -40.5t52 -23.5
q9 -3 14 -7t5 -14q0 -7 -4 -11t-12 -4q-21 0 -50 1t-57 2t-48 1t-46.5 -1t-54 -2.5t-49.5 -1.5zM124 438q28 0 28 15q0 14 -20 19q-29 8 -44 23t-15 37q0 16 11 26.5t25 16.5q19 8 33.5 17t14.5 34t-18 37.5t-46 12.5q-40 0 -68.5 -27t-28.5 -73q0 -37 14.5 -63.5t35.5 -43
t42.5 -24t35.5 -7.5z" />
  </g>

</svg>
