<?xml version="1.0" standalone="no"?>
<!DOCTYPE svg PUBLIC "-//W3C//DTD SVG 1.1//EN" "http://www.w3.org/Graphics/SVG/1.1/DTD/svg11.dtd" >
<svg xmlns="http://www.w3.org/2000/svg" xmlns:xlink="http://www.w3.org/1999/xlink" version="1.1" viewBox="-10 0 538 1000">
  <g transform="matrix(1 0 0 -1 0 800)">
   <path fill="currentColor"
d="M43.8955 -0.914062q-4.57227 0 -9.60254 3.65723q-5.0293 3.6582 -5.0293 11.8887q0 9.14453 5.0293 12.8027q5.03027 3.6582 8.68848 4.57227q24.6904 4.57324 30.6348 11.4316t5.94434 21.4902v293.552q0 14.6309 -8.6875 17.375q-8.6875 2.74316 -32.4648 8.23047
q-6.40137 1.8291 -8.6875 5.48633q-2.28613 3.6582 -2.28613 10.0596q0 7.31641 3.6582 10.9736q3.6582 3.6582 8.23047 3.6582q13.7168 0 36.1221 -1.37109q22.4053 -1.37207 45.2676 -2.74414q22.8623 -1.37109 35.665 -1.37109q18.29 0 32.0068 2.28613
q13.7178 2.28613 32.9219 4.57227t53.9551 2.28613q64.9287 0 107.909 -14.1748q42.9814 -14.1748 64.4717 -43.8955t21.4902 -76.3594q0 -68.5869 -47.0957 -110.196q-47.0967 -41.6094 -129.4 -41.6094q-20.1191 0 -30.6357 5.94434t-10.5166 16.0039
q0 7.31543 5.03027 10.0586q5.0293 2.74414 8.6875 2.74414q7.31543 0 13.2598 -1.37207t11.4316 -1.37207q15.5459 0 25.6055 22.4053t10.0596 76.3604q0 64.9287 -15.5469 91.9062q-15.5459 26.9766 -36.5791 26.9766q-15.5469 0 -27.8926 -9.60156
q-12.3447 -9.60254 -12.3447 -28.8066l-0.915039 -282.577q0 -10.0596 10.9736 -16.918q10.9746 -6.8584 42.0664 -11.4316q5.4873 -0.914062 9.14551 -4.57227t3.6582 -11.8887q0 -7.31543 -4.11523 -11.4307t-10.5166 -4.11523q-11.8887 0 -39.3232 0.457031
t-54.4121 0.457031h-40.6953q-11.8877 0 -31.5498 -0.457031q-19.6611 -0.457031 -39.7803 -0.914062q-20.1182 -0.457031 -33.8359 -0.457031z" />
  </g>

</svg>
