<?xml version="1.0" standalone="no"?>
<!DOCTYPE svg PUBLIC "-//W3C//DTD SVG 1.1//EN" "http://www.w3.org/Graphics/SVG/1.1/DTD/svg11.dtd" >
<svg xmlns="http://www.w3.org/2000/svg" xmlns:xlink="http://www.w3.org/1999/xlink" version="1.1" viewBox="-10 0 716 1000">
  <g transform="matrix(1 0 0 -1 0 800)">
   <path fill="currentColor"
d="M195 -6q-13 0 -20.5 5t-7.5 12q0 9 9 14.5t20 7.5q38 8 52 27t14 50v136q0 38 -9.5 61t-23.5 46l-131 201q-9 14 -19 26.5t-23.5 22.5t-33.5 15q-9 3 -15.5 7t-6.5 14q0 8 6 11.5t13 3.5q47 0 87 -3t85 -3q35 0 66.5 3.5t68.5 3.5q8 0 17.5 -4t9.5 -11q0 -9 -9.5 -14.5
t-18.5 -7.5q-30 -7 -43 -15t-13 -25q0 -16 11 -35l105 -179q7 -13 16 -13q4 0 7.5 3.5t7.5 9.5q24 43 46 85.5t43 88.5q4 8 7 18.5t3 19.5q0 20 -18 30.5t-39 11.5q-10 1 -20 7t-10 15q0 7 9.5 10.5t19.5 3.5q30 0 55 -2.5t53 -2.5q25 0 48 4t53 4q11 0 20.5 -3.5t9.5 -13.5
t-8.5 -13.5t-17.5 -6.5q-30 -8 -52 -25t-34 -38q-15 -25 -31 -50.5t-31.5 -50.5l-31 -50t-30.5 -51q-7 -13 -13.5 -28t-10.5 -32.5t-4 -38.5v-145q0 -38 13.5 -52.5t52.5 -25.5q11 -3 20 -7t9 -14q0 -7 -7.5 -12t-18.5 -5q-21 0 -50 2t-57.5 4t-48.5 2t-46.5 -2t-54 -4.5
t-49.5 -2.5zM384 692q-37 0 -63 23.5t-26 56.5q0 35 26 58.5t63 23.5q39 0 66 -23.5t27 -58.5q0 -33 -27 -56.5t-66 -23.5z" />
  </g>

</svg>
