<?xml version="1.0" standalone="no"?>
<!DOCTYPE svg PUBLIC "-//W3C//DTD SVG 1.1//EN" "http://www.w3.org/Graphics/SVG/1.1/DTD/svg11.dtd" >
<svg xmlns="http://www.w3.org/2000/svg" xmlns:xlink="http://www.w3.org/1999/xlink" version="1.1" viewBox="-10 0 486 1000">
  <g transform="matrix(1 0 0 -1 0 800)">
   <path fill="currentColor"
d="M132 -14q-29 0 -53 12.5t-38 34t-14 47.5q0 35 22.5 59t65.5 43l86 38q20 9 25 16.5t5 26.5l1 55q1 29 -9 44.5t-31 15.5q-12 0 -25 -5.5t-19 -12.5q-3 -4 -4 -9t-1 -10q0 -6 1 -15.5t1 -15.5q0 -7 -17 -16.5t-39 -17t-38 -7.5q-8 0 -13.5 6.5t-5.5 16.5q0 16 11 31
t37 36q27 22 59 39t63 27.5t53 10.5q57 0 91 -36.5t32 -97.5l-5 -194q-1 -23 7.5 -39.5t21.5 -16.5q18 0 32 13q3 3 6 3q5 0 8.5 -3.5t3.5 -8.5q0 -12 -20 -32q-19 -19 -41 -28.5t-46 -9.5q-58 0 -97 58h-2q-33 -31 -59 -44.5t-55 -13.5zM194 55q9 0 15 3t11 10q3 4 4.5 10
t1.5 13l3 77q0 9 -3 11.5t-7 2.5q-2 0 -4.5 -0.5t-5.5 -2.5q-24 -13 -36.5 -26.5t-12.5 -48.5q0 -29 11.5 -39t22.5 -10zM227 646q-7 0 -16 -7.5t-14 -14.5l-10 -11.5t-25 -29t-30 -37.5t-25 -36q-4 -8 -9.5 -19.5t-5.5 -21.5q0 -5 3.5 -9t10.5 -4q11 0 21 7t22 19
q21 21 33 30.5t31 27.5q8 8 12.5 7.5t13.5 -7.5q20 -17 31 -27.5t33 -30.5q12 -11 22.5 -18.5t20.5 -7.5q14 0 14 13q0 10 -5 21.5t-10 19.5q-10 16 -25 36t-30 37.5t-25 29l-10 11.5q-5 7 -12.5 14.5t-15.5 7.5zM368 587q-14 0 -28.5 16.5t-14.5 30.5q0 7 7 15t14 14
q9 9 15 15.5t6 17.5q0 6 -5.5 10t-16.5 4q-10 0 -19.5 -8t-26.5 -27q-3 -3 -8.5 -7.5t-12.5 -4.5q-8 0 -16 9t-13.5 19.5t-5.5 16.5q0 10 6 18t13 12q19 11 42.5 19.5t60.5 8.5q38 0 69.5 -17t31.5 -50q0 -17 -17 -33.5t-41 -24.5q-10 -3 -13 -6.5t-3 -7.5q0 -6 2 -13t2 -12
q0 -6 -9 -10.5t-19 -4.5z" />
  </g>

</svg>
