<?xml version="1.0" standalone="no"?>
<!DOCTYPE svg PUBLIC "-//W3C//DTD SVG 1.1//EN" "http://www.w3.org/Graphics/SVG/1.1/DTD/svg11.dtd" >
<svg xmlns="http://www.w3.org/2000/svg" xmlns:xlink="http://www.w3.org/1999/xlink" version="1.1" viewBox="-30 0 638 1000">
  <g transform="matrix(1 0 0 -1 0 800)">
   <path fill="currentColor"
d="M272 -3q-6 0 -12 4t-6 11q0 17 19 22q38 8 52 20t14 43v454q0 32 -13 45t-53 22q-19 5 -19 22q0 7 6 11t12 4q22 0 49.5 -1t54 -2.5t46.5 -1.5t48 1t57 2t50 1q8 0 12 -3.5t4 -11.5q0 -10 -5 -14t-14 -7q-41 -12 -53 -25t-12 -43v-452q0 -28 13 -40.5t52 -23.5
q9 -3 14 -7t5 -14q0 -7 -4 -11t-12 -4q-21 0 -50 1t-57 2t-48 1t-46.5 -1t-54 -2.5t-49.5 -1.5zM3 623q-4 0 -13.5 8t-9.5 12q0 6 10 20.5t24.5 30.5t28 28t19.5 12q10 0 24 -3t48 -5q23 -1 42 -2.5t28 -1.5t18 5t17 15q8 9 11.5 15t7.5 6q5 0 14 -7.5t9 -12.5q0 -4 -4 -10
t-13 -19q-11 -16 -18 -26t-16 -24q-6 -9 -15 -11.5t-16 -2.5q-9 0 -30 1.5t-46 3t-46.5 3t-30.5 1.5q-7 0 -10.5 -3t-8.5 -8q-10 -12 -15 -18.5t-9 -6.5zM87 437q-27 0 -27 16t26 24q23 8 35 18t12 24q0 10 -12.5 17t-29.5 11q-20 5 -32 16t-12 33q0 14 14 28t45 14
q41 0 70 -27t29 -65q0 -32 -16 -56.5t-43 -38.5t-59 -14z" />
  </g>

</svg>
