<?xml version="1.0" standalone="no"?>
<!DOCTYPE svg PUBLIC "-//W3C//DTD SVG 1.1//EN" "http://www.w3.org/Graphics/SVG/1.1/DTD/svg11.dtd" >
<svg xmlns="http://www.w3.org/2000/svg" xmlns:xlink="http://www.w3.org/1999/xlink" version="1.1" viewBox="-10 0 541 1000">
  <g transform="matrix(1 0 0 -1 0 800)">
   <path fill="currentColor"
d="M419 -285q-23 0 -47 12t-39.5 29t-15.5 30t3 36t10 53q6 24 12.5 65t14 90.5t14.5 99t12.5 92t9 69.5t3.5 30q0 10 -4 15t-12 5q-9 0 -28.5 -24t-43 -64t-46 -88t-37.5 -97q-9 -28 -18.5 -54.5t-26.5 -26.5q-34 0 -56 16.5t-22 36.5q0 23 7 49t11 48q4 21 9.5 42.5
t5.5 46.5q0 39 -11.5 59.5t-42.5 20.5q-29 0 -40.5 -5t-17.5 -5q-13 0 -13 15q0 31 16 59.5t39.5 47.5t47.5 19q41 0 59.5 -26t17.5 -74q0 -17 -3 -37.5t-8 -43t-12 -48.5q-1 -6 1.5 -9t3.5 -3q3 0 5.5 3t5.5 9q29 61 61.5 113t66 84t61.5 32q23 0 44.5 -18.5t35.5 -47.5
t14 -63q0 -132 -1.5 -269.5t-3.5 -268.5q0 -31 -11 -43t-31 -12zM143 659q-4 0 -13.5 8t-9.5 12q0 6 10 20.5t24.5 30.5t28 28t19.5 12q10 0 24 -3t48 -5q23 -1 42 -2.5t28 -1.5t18 5t17 15q8 9 11.5 15t7.5 6q5 0 14 -7.5t9 -12.5q0 -4 -4 -10t-13 -19q-11 -16 -18 -26
t-16 -24q-6 -9 -15 -11.5t-16 -2.5q-9 0 -30 1.5t-46 3t-46.5 3t-30.5 1.5q-7 0 -10.5 -3t-8.5 -8q-10 -12 -15 -18.5t-9 -6.5zM300 471q27 0 27 16t-26 24q-23 8 -35 18t-12 24q0 10 12.5 17t29.5 11q20 5 32 16t12 33q0 14 -14 28t-45 14q-41 0 -70 -27t-29 -65
q0 -32 16 -56.5t43 -38.5t59 -14z" />
  </g>

</svg>
