<?xml version="1.0" standalone="no"?>
<!DOCTYPE svg PUBLIC "-//W3C//DTD SVG 1.1//EN" "http://www.w3.org/Graphics/SVG/1.1/DTD/svg11.dtd" >
<svg xmlns="http://www.w3.org/2000/svg" xmlns:xlink="http://www.w3.org/1999/xlink" version="1.1" viewBox="-10 0 1494 1000">
  <g transform="matrix(1 0 0 -1 0 800)">
   <path fill="currentColor"
d="M239 -215q-18 0 -31 13q-21 21 -44.5 59.5t-46 88t-41.5 104.5t-30 111t-11 106q0 63 16 126t41.5 120t54.5 102t55 71q8 8 22 14t28 6q10 0 25 -8.5t15 -20.5q0 -2 -5 -9.5t-10.5 -15.5t-7.5 -10q-25 -32 -50 -86.5t-42 -127t-17 -158.5q0 -55 8.5 -116t23 -119
t32.5 -104t37 -70q2 -2 8.5 -10t12.5 -15.5t6 -9.5q0 -19 -15.5 -30t-33.5 -11zM1245 -215q18 0 31 13q21 21 44.5 59.5t46 88t41.5 104.5t30 111t11 106q0 63 -16 126t-41.5 120t-54.5 102t-55 71q-8 8 -22 14t-28 6q-10 0 -25 -8.5t-15 -20.5q0 -2 5 -9.5t10.5 -15.5
t7.5 -10q25 -32 50 -86.5t42 -127t17 -158.5q0 -55 -8.5 -116t-23 -119t-32.5 -104t-37 -70q-2 -2 -8.5 -10t-12.5 -15.5t-6 -9.5q0 -19 15.5 -30t33.5 -11zM355 -5q-9 0 -14.5 6t-5.5 13q0 6 7.5 10.5t12.5 4.5q13 2 27 5.5t24 16.5t10 41v240q0 28 -10 40.5t-23.5 16.5
t-26.5 6q-7 2 -13.5 5.5t-6.5 9.5q0 7 6 13t14 6q35 0 53.5 -1.5t35 -3.5t43.5 -2t44 2t37 3.5t56 1.5q8 0 13 -5t5 -11q0 -7 -4.5 -12t-12.5 -6q-20 -2 -35 -6.5t-22.5 -17t-7.5 -39.5v-240q0 -40 15.5 -50t46.5 -13q8 -1 13.5 -6t5.5 -12q0 -6 -6 -11t-14 -5q-36 0 -55 2
t-35.5 3.5t-43.5 1.5t-43.5 -1.5t-35.5 -3.5t-54 -2zM909 437q68 0 120.5 -28.5t82.5 -78t30 -114.5q0 -66 -29.5 -118t-81.5 -82t-120 -30t-120.5 30.5t-82 82.5t-29.5 118q0 64 30 113.5t82 78t118 28.5zM913 385q-24 0 -42.5 -22t-29 -59.5t-10.5 -86.5q0 -42 9 -83.5
t26 -68.5t41 -27q36 0 59.5 42t23.5 136q0 42 -9 80.5t-26 63.5t-42 25z" />
  </g>

</svg>
