<?xml version="1.0" standalone="no"?>
<!DOCTYPE svg PUBLIC "-//W3C//DTD SVG 1.1//EN" "http://www.w3.org/Graphics/SVG/1.1/DTD/svg11.dtd" >
<svg xmlns="http://www.w3.org/2000/svg" xmlns:xlink="http://www.w3.org/1999/xlink" version="1.1" viewBox="-10 0 994 1000">
  <g transform="matrix(1 0 0 -1 0 800)">
   <path fill="currentColor"
d="M239 -215q-18 0 -31 13q-21 21 -44.5 59.5t-46 88t-41.5 104.5t-30 111t-11 106q0 63 16 126t41.5 120t54.5 102t55 71q8 8 22 14t28 6q10 0 25 -8.5t15 -20.5q0 -2 -5 -9.5t-10.5 -15.5t-7.5 -10q-25 -32 -50 -86.5t-42 -127t-17 -158.5q0 -55 8.5 -116t23 -119
t32.5 -104t37 -70q2 -2 8.5 -10t12.5 -15.5t6 -9.5q0 -19 -15.5 -30t-33.5 -11zM745 -215q18 0 31 13q21 21 44.5 59.5t46 88t41.5 104.5t30 111t11 106q0 63 -16 126t-41.5 120t-54.5 102t-55 71q-8 8 -22 14t-28 6q-10 0 -25 -8.5t-15 -20.5q0 -2 5 -9.5t10.5 -15.5
t7.5 -10q25 -32 50 -86.5t42 -127t17 -158.5q0 -55 -8.5 -116t-23 -119t-32.5 -104t-37 -70q-2 -2 -8.5 -10t-12.5 -15.5t-6 -9.5q0 -19 15.5 -30t33.5 -11zM316 -3q-6 0 -13 4t-7 11q0 8 7.5 13t15.5 8q15 5 26 11.5t11 26.5v285q-10 0 -23 0.5t-29 1.5q-6 1 -10 12.5
t-4 19.5q0 4 3 6.5t7 3.5q12 5 27 10t29 13v46q0 71 32 124.5t83 83t109 29.5q46 0 72.5 -18t26.5 -52q0 -22 -15.5 -38t-32.5 -16q-22 0 -38 29q-7 13 -16 22.5t-20 9.5q-5 0 -14 -4.5t-19 -18.5t-16.5 -43.5t-6.5 -79.5v-52q0 -13 7.5 -17.5t17.5 -4.5h95q4 0 4 -11
q0 -14 -4 -32.5t-9 -18.5h-71q-27 0 -33.5 -8.5t-6.5 -16.5v-261q0 -20 15 -28.5t39 -13.5q8 -2 13.5 -7.5t5.5 -13.5q0 -6 -5 -10.5t-11 -4.5q-20 0 -43 1.5t-44.5 2.5t-39.5 1q-17 0 -36 -1t-39 -2.5t-40 -1.5z" />
  </g>

</svg>
