<?xml version="1.0" standalone="no"?>
<!DOCTYPE svg PUBLIC "-//W3C//DTD SVG 1.1//EN" "http://www.w3.org/Graphics/SVG/1.1/DTD/svg11.dtd" >
<svg xmlns="http://www.w3.org/2000/svg" xmlns:xlink="http://www.w3.org/1999/xlink" version="1.1" viewBox="-10 0 976 1000">
  <g transform="matrix(1 0 0 -1 0 800)">
   <path fill="currentColor"
d="M491 -14q-34 0 -65.5 7.5t-58.5 25.5q-10 16 -14 49.5t-3 72.5q0 13 21 13q9 0 15.5 -6t8.5 -11q20 -40 44 -71.5t61 -31.5q26 0 38.5 16t12.5 35q0 26 -21 43t-46 29q-28 14 -55 32.5t-45 46.5t-18 68q0 41 22.5 70.5t60.5 46t83 16.5q34 0 63.5 -7.5t40.5 -14.5
q8 -10 12.5 -38.5t4.5 -64.5q0 -11 -20 -11q-7 0 -15 5.5t-10 10.5q-13 40 -33.5 60t-44.5 20q-22 0 -39.5 -14t-17.5 -37q0 -20 20.5 -36.5t47.5 -30.5q66 -34 94 -66t28 -86q0 -67 -43 -104t-129 -37zM239 -215q-18 0 -31 13q-21 21 -44.5 59.5t-46 88t-41.5 104.5
t-30 111t-11 106q0 63 16 126t41.5 120t54.5 102t55 71q8 8 22 14t28 6q10 0 25 -8.5t15 -20.5q0 -2 -5 -9.5t-10.5 -15.5t-7.5 -10q-25 -32 -50 -86.5t-42 -127t-17 -158.5q0 -55 8.5 -116t23 -119t32.5 -104t37 -70q2 -2 8.5 -10t12.5 -15.5t6 -9.5q0 -19 -15.5 -30
t-33.5 -11zM727 -215q18 0 31 13q21 21 44.5 59.5t46 88t41.5 104.5t30 111t11 106q0 63 -16 126t-41.5 120t-54.5 102t-55 71q-8 8 -22 14t-28 6q-10 0 -25 -8.5t-15 -20.5q0 -2 5 -9.5t10.5 -15.5t7.5 -10q25 -32 50 -86.5t42 -127t17 -158.5q0 -55 -8.5 -116t-23 -119
t-32.5 -104t-37 -70q-2 -2 -8.5 -10t-12.5 -15.5t-6 -9.5q0 -19 15.5 -30t33.5 -11z" />
  </g>

</svg>
