<?xml version="1.0" standalone="no"?>
<!DOCTYPE svg PUBLIC "-//W3C//DTD SVG 1.1//EN" "http://www.w3.org/Graphics/SVG/1.1/DTD/svg11.dtd" >
<svg xmlns="http://www.w3.org/2000/svg" xmlns:xlink="http://www.w3.org/1999/xlink" version="1.1" viewBox="-10 0 307 1000">
  <g transform="matrix(1 0 0 -1 0 800)">
   <path fill="currentColor"
d="M185 -256q-7 0 -11.5 5.5t-4.5 12.5v455q0 14 13.5 23t28 13t18.5 4q7 0 12.5 -5t5.5 -12v-465q0 -13 -13 -20t-28 -9t-21 -2zM67 -256q-7 0 -11.5 5.5t-4.5 12.5v455q0 14 13.5 23t28 13t18.5 4q7 0 12.5 -5t5.5 -12v-465q0 -13 -13 -20t-28 -9t-21 -2z" />
  </g>

</svg>
