<?xml version="1.0" standalone="no"?>
<!DOCTYPE svg PUBLIC "-//W3C//DTD SVG 1.1//EN" "http://www.w3.org/Graphics/SVG/1.1/DTD/svg11.dtd" >
<svg xmlns="http://www.w3.org/2000/svg" xmlns:xlink="http://www.w3.org/1999/xlink" version="1.1" viewBox="-10 0 550 1000">
  <g transform="matrix(1 0 0 -1 0 800)">
   <path fill="currentColor"
d="M409 -21q-44 0 -89 30t-75 70q-31 43 -59.5 83t-59.5 98q-5 10 -21 21t-27 18q-24 16 -35.5 25t-11.5 21q0 9 11 14t19 5q11 0 26 -3.5t29 -3.5q24 0 41.5 8.5t29.5 25t17 38.5h-159q-7 -1 -13.5 5t-6.5 13q1 9 11.5 21.5t23.5 12.5h148q-1 55 -19.5 85t-45.5 39h-97
q-7 -1 -13.5 5t-6.5 13q1 9 11.5 21.5t23.5 12.5h436q8 0 13 -6.5t5 -11.5q-1 -7 -15 -20t-30 -13h-148q29 -23 39.5 -53t10.5 -72h125q8 0 13 -6.5t5 -11.5q-1 -7 -15 -20t-30 -13h-114q-15 -38 -48 -55t-67 -31q-4 -1 -3.5 -5t2.5 -7q44 -67 88 -123t86 -99
q23 -24 39.5 -36t35.5 -16q8 -1 19 -5.5t11 -14.5q0 -24 -14 -36.5t-38.5 -17.5t-57.5 -5z" />
  </g>

</svg>
