<?xml version="1.0" standalone="no"?>
<!DOCTYPE svg PUBLIC "-//W3C//DTD SVG 1.1//EN" "http://www.w3.org/Graphics/SVG/1.1/DTD/svg11.dtd" >
<svg xmlns="http://www.w3.org/2000/svg" xmlns:xlink="http://www.w3.org/1999/xlink" version="1.1" viewBox="-10 0 1000 1000">
  <g transform="matrix(1 0 0 -1 0 800)">
   <path fill="currentColor"
d="M541 -14q-70 0 -104 34t-34 96v230q0 9 -7 13t-24 5h-15q-7 0 -12 12.5t-5 22.5q0 2 1 5t5 4q25 8 55 28t58 42.5t45 36.5q8 6 13.5 10t13.5 4q10 0 14 -4t2 -18l-7 -62q-1 -13 6 -17.5t19 -4.5h120q2 0 5 -7t3 -12q0 -16 -4 -29.5t-9 -13.5h-92q-22 0 -31 -6t-9 -19
v-187q0 -47 17.5 -69.5t46.5 -22.5q28 0 41 6t24 10q4 2 7 2q5 0 8 -6.5t3 -15.5q0 -6 -22 -22.5t-57 -30.5t-75 -14zM239 -215q-18 0 -31 13q-21 21 -44.5 59.5t-46 88t-41.5 104.5t-30 111t-11 106q0 63 16 126t41.5 120t54.5 102t55 71q8 8 22 14t28 6q10 0 25 -8.5
t15 -20.5q0 -2 -5 -9.5t-10.5 -15.5t-7.5 -10q-25 -32 -50 -86.5t-42 -127t-17 -158.5q0 -55 8.5 -116t23 -119t32.5 -104t37 -70q2 -2 8.5 -10t12.5 -15.5t6 -9.5q0 -19 -15.5 -30t-33.5 -11zM751 -215q18 0 31 13q21 21 44.5 59.5t46 88t41.5 104.5t30 111t11 106
q0 63 -16 126t-41.5 120t-54.5 102t-55 71q-8 8 -22 14t-28 6q-10 0 -25 -8.5t-15 -20.5q0 -2 5 -9.5t10.5 -15.5t7.5 -10q25 -32 50 -86.5t42 -127t17 -158.5q0 -55 -8.5 -116t-23 -119t-32.5 -104t-37 -70q-2 -2 -8.5 -10t-12.5 -15.5t-6 -9.5q0 -19 15.5 -30t33.5 -11z
" />
  </g>

</svg>
