<?xml version="1.0" standalone="no"?>
<!DOCTYPE svg PUBLIC "-//W3C//DTD SVG 1.1//EN" "http://www.w3.org/Graphics/SVG/1.1/DTD/svg11.dtd" >
<svg xmlns="http://www.w3.org/2000/svg" xmlns:xlink="http://www.w3.org/1999/xlink" version="1.1" viewBox="-10 0 515 1000">
  <g transform="matrix(1 0 0 -1 0 800)">
   <path fill="currentColor"
d="M238 -14q-61 0 -110 27t-78 75t-29 109q0 49 18.5 92.5t51 76.5t76 52t93.5 19q63 0 113.5 -29t80.5 -77t30 -105q0 -65 -27.5 -120t-82 -87.5t-136.5 -32.5zM250 -14q-42 0 -70.5 26.5t-28.5 66.5q0 29 14.5 53t39.5 38.5t55 14.5q43 0 72.5 -27.5t29.5 -65.5
q0 -43 -28 -74.5t-84 -31.5zM258 30q22 0 28 16.5t6 35.5q0 22 -10.5 40t-28.5 18q-20 0 -26 -15.5t-6 -35.5q0 -22 10.5 -40.5t26.5 -18.5zM257 30q21 0 38.5 13t26.5 42q8 23 10.5 55t2.5 58q0 46 -11 89t-31 71t-48 28q-17 0 -31 -8t-26 -31q-12 -24 -15.5 -59.5
t-3.5 -68.5q0 -47 11.5 -90.5t31.5 -71t45 -27.5z" />
  </g>

</svg>
