<?xml version="1.0" standalone="no"?>
<!DOCTYPE svg PUBLIC "-//W3C//DTD SVG 1.1//EN" "http://www.w3.org/Graphics/SVG/1.1/DTD/svg11.dtd" >
<svg xmlns="http://www.w3.org/2000/svg" xmlns:xlink="http://www.w3.org/1999/xlink" version="1.1" viewBox="-10 0 711 1000">
  <g transform="matrix(1 0 0 -1 0 800)">
   <path fill="currentColor"
d="M174 415q-35 0 -68.5 16t-55 48.5t-21.5 81.5q0 38 21.5 70.5t60.5 52.5t89 20q26 0 55.5 -10t54.5 -31q2 -4 4.5 -7.5t2.5 -5.5q0 -19 -14 -32.5t-31 -13.5q-7 0 -12.5 3t-11.5 10q-16 20 -26 29t-24 9q-21 0 -33 -18.5t-12 -52.5q0 -42 18.5 -64.5t46.5 -22.5
q24 0 36 6t24 23q6 8 13 8q5 0 17 -6t12 -13q0 -5 -2 -12.5t-7 -12.5q-13 -26 -46 -50.5t-91 -24.5zM432 641q9 14 22 18.5t30 4.5q8 0 13.5 -6t5.5 -12q0 -4 -1 -5l-404 -636q-7 -12 -20 -16t-28 -4q-8 0 -15.5 5t-7.5 11q0 3 1 4zM525 7q-7 0 -7 7q0 -4 1.5 9t1.5 30
q-22 -20 -48.5 -31t-58.5 -11q-31 0 -53 30.5t-22 69.5v100q0 16 -5 25t-22 9q-4 0 -8.5 5.5t-4.5 10.5t2.5 10.5t8.5 6.5q16 1 41 3.5t50.5 7.5t42.5 12q4 0 12 -2t7 -6q-3 -15 -4.5 -25t-1.5 -24v-116q0 -23 8.5 -33.5t24.5 -11.5q9 -1 16 2t11 9q4 3 5.5 6.5t1.5 7.5v107
q0 9 -2 17.5t-9 14t-21 6.5q-9 1 -11.5 5t-2.5 12q0 15 14 15q35 0 67.5 4t71.5 11q3 0 11.5 -5t8.5 -9q0 -8 -4 -23.5t-4 -41.5v-116q0 -17 4 -24t8 -7h9.5h8.5q9 0 9 -13q0 -6 -1.5 -13t-7.5 -8q-41 -2 -73 -12t-55 -17q-5 -1 -10 -2.5t-10 -1.5z" />
  </g>

</svg>
