<?xml version="1.0" standalone="no"?>
<!DOCTYPE svg PUBLIC "-//W3C//DTD SVG 1.1//EN" "http://www.w3.org/Graphics/SVG/1.1/DTD/svg11.dtd" >
<svg xmlns="http://www.w3.org/2000/svg" xmlns:xlink="http://www.w3.org/1999/xlink" version="1.1" viewBox="-10 0 584 1000">
  <g transform="matrix(1 0 0 -1 0 800)">
   <path fill="currentColor"
d="M246 -21q-5 0 -14 15t-18 34.5l-15 32.5l-125 273q-10 23 -21 38.5t-30 22.5q-10 4 -14 8.5t-4 13.5q0 8 9 10t16 2q25 0 39.5 -1.5t28.5 -3t36 -1.5t40 1.5t37.5 3t43.5 1.5q7 0 15.5 -3t8.5 -11q0 -9 -7 -12t-15 -7q-11 -4 -17.5 -14.5t-6.5 -28.5q0 -9 0.5 -17
t3.5 -16l58 -144q1 -2 2 -2t2 2l54 155q17 47 47 76t79 29q34 0 52.5 -12t25.5 -30.5t7 -37.5q0 -22 -13.5 -38.5t-38.5 -16.5q-17 0 -26 9.5t-17 20.5q-7 11 -13.5 21t-18.5 10q-14 0 -22.5 -15.5t-11.5 -25.5l-25.5 -75t-13 -36t-8 -19.5t-9.5 -24t-20 -50.5
q-13 -34 -25.5 -68t-26.5 -69h-29z" />
  </g>

</svg>
