<?xml version="1.0" standalone="no"?>
<!DOCTYPE svg PUBLIC "-//W3C//DTD SVG 1.1//EN" "http://www.w3.org/Graphics/SVG/1.1/DTD/svg11.dtd" >
<svg xmlns="http://www.w3.org/2000/svg" xmlns:xlink="http://www.w3.org/1999/xlink" version="1.1" viewBox="-18 0 759 1000">
  <g transform="matrix(1 0 0 -1 0 800)">
   <path fill="currentColor"
d="M705 655q11 0 18.5 -3.5t7.5 -13.5t-6.5 -14.5t-15.5 -7.5q-30 -8 -51.5 -25t-31.5 -39q-24 -55 -46 -109t-43 -107.5t-41.5 -108t-40.5 -109.5q-17 -46 -21 -65.5t-7 -20.5q-20 -5 -37 -9.5t-38 -11.5q-19 -7 -33.5 -17.5t-21.5 -17.5q-5 -3 -9.5 -4t-8.5 7
q-4 7 -6.5 13.5t-4.5 14.5q-20 66 -41.5 133t-43.5 135.5t-44.5 137.5t-44.5 139q-5 16 -16.5 28.5t-27.5 21t-36 14.5q-9 3 -15.5 7t-6.5 14q0 7 5.5 11t13.5 4q21 0 51.5 -1l61 -2t53.5 -1q20 0 49 1t59 2.5t52 1.5q8 0 14.5 -4t6.5 -11q0 -9 -6.5 -14.5t-15.5 -7.5
q-38 -8 -56 -21t-10 -42q5 -20 10.5 -39t10.5 -38.5t10 -38.5q2 -8 5 -12.5t11 -4.5h174q8 0 11.5 4.5t5.5 12.5q4 15 8.5 27.5t8.5 24.5t8 24.5t8 27.5q9 32 -3 48t-59 27q-22 5 -22 22q0 7 5 10.5t16 3.5q33 0 58 -1.5t55 -1.5q29 0 55.5 3t58.5 3zM463 362h-125
q-15 0 -15 -7q0 -4 0.5 -5.5t1.5 -5.5l64 -221q3 -10 6 -10q2 0 6 10l77 221q2 4 2 8q0 5 -5.5 7.5t-11.5 2.5z" />
  </g>

</svg>
