<?xml version="1.0" standalone="no"?>
<!DOCTYPE svg PUBLIC "-//W3C//DTD SVG 1.1//EN" "http://www.w3.org/Graphics/SVG/1.1/DTD/svg11.dtd" >
<svg xmlns="http://www.w3.org/2000/svg" xmlns:xlink="http://www.w3.org/1999/xlink" version="1.1" viewBox="-10 0 1419 1000">
  <g transform="matrix(1 0 0 -1 0 800)">
   <path fill="currentColor"
d="M355 -3q-6 0 -13 4t-7 11q0 8 7.5 13t15.5 8q15 5 26 11.5t11 26.5v232q0 20 -6 34.5t-23 17.5q-4 1 -8 5t-4 14q0 15 11 18q24 6 54 14.5t58.5 18.5t47.5 20q4 2 7 4t6 2q10 0 10 -12q0 -8 -2.5 -26.5t-2.5 -32.5q0 -10 2 -12h2q32 32 68 50t79 18q30 0 56.5 -23
t38.5 -56h5q29 38 66 58.5t83 20.5q31 0 56.5 -17t41 -49t15.5 -78v-222q0 -20 11 -26t26 -11q8 -3 14 -8t6 -13q0 -7 -5.5 -11t-11.5 -4q-20 0 -39 1.5t-37 2.5t-36 1q-17 0 -32.5 -1t-31.5 -2.5t-36 -1.5q-6 0 -11 4t-5 11q0 8 5.5 13t13.5 8q13 4 18.5 10t5.5 20v204
q0 25 -6 42.5t-17.5 27t-26.5 9.5q-10 0 -24 -5.5t-28 -17.5q-11 -10 -11 -35v-218q0 -20 6 -26t21 -11q8 -3 14 -8t6 -13q0 -7 -5.5 -11t-11.5 -4q-20 0 -36.5 1.5t-32 2.5t-33.5 1q-17 0 -32.5 -1t-31.5 -2.5t-36 -1.5q-6 0 -11 4t-5 11q0 8 5.5 13t13.5 8q13 4 18.5 10
t5.5 20v204q0 25 -6 42t-17 26.5t-26 9.5q-10 0 -24 -5t-30 -16q-10 -7 -10 -32v-222q0 -17 4.5 -24.5t19.5 -12.5q8 -3 13.5 -8t5.5 -13q0 -6 -5 -10.5t-11 -4.5q-20 0 -36.5 1.5t-31.5 2.5t-33 1q-17 0 -35 -1t-37 -2.5t-39 -1.5zM239 -215q-18 0 -31 13
q-21 21 -44.5 59.5t-46 88t-41.5 104.5t-30 111t-11 106q0 63 16 126t41.5 120t54.5 102t55 71q8 8 22 14t28 6q10 0 25 -8.5t15 -20.5q0 -2 -5 -9.5t-10.5 -15.5t-7.5 -10q-25 -32 -50 -86.5t-42 -127t-17 -158.5q0 -55 8.5 -116t23 -119t32.5 -104t37 -70q2 -2 8.5 -10
t12.5 -15.5t6 -9.5q0 -19 -15.5 -30t-33.5 -11zM1170 -215q18 0 31 13q21 21 44.5 59.5t46 88t41.5 104.5t30 111t11 106q0 63 -16 126t-41.5 120t-54.5 102t-55 71q-8 8 -22 14t-28 6q-10 0 -25 -8.5t-15 -20.5q0 -2 5 -9.5t10.5 -15.5t7.5 -10q25 -32 50 -86.5t42 -127
t17 -158.5q0 -55 -8.5 -116t-23 -119t-32.5 -104t-37 -70q-2 -2 -8.5 -10t-12.5 -15.5t-6 -9.5q0 -19 15.5 -30t33.5 -11z" />
  </g>

</svg>
