<?xml version="1.0" standalone="no"?>
<!DOCTYPE svg PUBLIC "-//W3C//DTD SVG 1.1//EN" "http://www.w3.org/Graphics/SVG/1.1/DTD/svg11.dtd" >
<svg xmlns="http://www.w3.org/2000/svg" xmlns:xlink="http://www.w3.org/1999/xlink" version="1.1" viewBox="-42 0 540 1000">
  <g transform="matrix(1 0 0 -1 0 800)">
   <path fill="currentColor"
d="M-14 -34q-10 2 -15 9.5t-1 13.5l139 190l41 10l138 187l31 7l99 133q10 13 22 14.5t28 -2.5q14 -3 18 -11.5t-1 -14.5l-143 -194l-28 -3l-139 -187l-26 9l-113 -152q-9 -12 -22.5 -12t-27.5 3zM104 -289q-10 0 -17 9t-7 19v905q0 16 12 27.5t29 19t31.5 11t18.5 3.5
q11 0 19.5 -7.5t8.5 -18.5v-920q0 -16 -12 -25.5t-29 -14.5t-32 -6.5t-22 -1.5zM275 -289q-10 0 -17 9t-7 19v905q0 16 12 27.5t29 19t31.5 11t18.5 3.5q11 0 19.5 -7.5t8.5 -18.5v-920q0 -16 -12 -25.5t-29 -14.5t-32 -6.5t-22 -1.5z" />
  </g>

</svg>
