<?xml version="1.0" standalone="no"?>
<!DOCTYPE svg PUBLIC "-//W3C//DTD SVG 1.1//EN" "http://www.w3.org/Graphics/SVG/1.1/DTD/svg11.dtd" >
<svg xmlns="http://www.w3.org/2000/svg" xmlns:xlink="http://www.w3.org/1999/xlink" version="1.1" viewBox="-10 0 577 1000">
  <g transform="matrix(1 0 0 -1 0 800)">
   <path fill="currentColor"
d="M35 -3q-6 0 -12 4t-6 11q0 17 19 22q38 8 52 20t14 43v454q0 32 -13 45t-53 22q-19 5 -19 22q0 7 6 11t12 4q22 0 49.5 -1t54 -2.5t46.5 -1.5t48 1t57 2t50 1q8 0 12 -3.5t4 -11.5q0 -10 -5 -14t-14 -7q-41 -12 -53 -25t-12 -43v-440q0 -12 6.5 -19.5t19.5 -7.5
q54 0 91.5 12t60 31t32.5 40.5t10 41.5q0 14 -8 25l-16 22t-8 24q0 21 13.5 35t29.5 14q27 0 40.5 -19.5t13.5 -48.5q0 -60 -31 -108t-83.5 -82t-118.5 -52t-137 -18q-20 0 -47 -0.5t-55 -1.5t-50 -1zM54 296q-7 -1 -14 2.5t-8 10.5q-1 9 6.5 20.5t20.5 14.5l367 90
q8 2 14 -3t7 -10q2 -7 -10 -20t-28 -17zM38 387q-7 -2 -14.5 2.5t-8.5 10.5q-1 9 7 21t21 15l367 90q7 2 13 -3.5t7 -10.5q1 -7 -10 -20t-27 -17z" />
  </g>

</svg>
