<?xml version="1.0" standalone="no"?>
<!DOCTYPE svg PUBLIC "-//W3C//DTD SVG 1.1//EN" "http://www.w3.org/Graphics/SVG/1.1/DTD/svg11.dtd" >
<svg xmlns="http://www.w3.org/2000/svg" xmlns:xlink="http://www.w3.org/1999/xlink" version="1.1" viewBox="-10 0 1432 1000">
  <g transform="matrix(1 0 0 -1 0 800)">
   <path fill="currentColor"
d="M239 -215q-18 0 -31 13q-21 21 -44.5 59.5t-46 88t-41.5 104.5t-30 111t-11 106q0 63 16 126t41.5 120t54.5 102t55 71q8 8 22 14t28 6q10 0 25 -8.5t15 -20.5q0 -2 -5 -9.5t-10.5 -15.5t-7.5 -10q-25 -32 -50 -86.5t-42 -127t-17 -158.5q0 -55 8.5 -116t23 -119
t32.5 -104t37 -70q2 -2 8.5 -10t12.5 -15.5t6 -9.5q0 -19 -15.5 -30t-33.5 -11zM1183 -215q18 0 31 13q21 21 44.5 59.5t46 88t41.5 104.5t30 111t11 106q0 63 -16 126t-41.5 120t-54.5 102t-55 71q-8 8 -22 14t-28 6q-10 0 -25 -8.5t-15 -20.5q0 -2 5 -9.5t10.5 -15.5
t7.5 -10q25 -32 50 -86.5t42 -127t17 -158.5q0 -55 -8.5 -116t-23 -119t-32.5 -104t-37 -70q-2 -2 -8.5 -10t-12.5 -15.5t-6 -9.5q0 -19 15.5 -30t33.5 -11zM355 -5q-9 0 -14.5 6t-5.5 13q0 6 7.5 10.5t12.5 4.5q13 2 27 5.5t24 16.5t10 41v240q0 28 -10 40.5t-23.5 16.5
t-26.5 6q-7 2 -13.5 5.5t-6.5 9.5q0 7 6 13t14 6q35 0 53.5 -1.5t35 -3.5t43.5 -2t44 2t37 3.5t56 1.5q8 0 13 -5t5 -11q0 -7 -4.5 -12t-12.5 -6q-20 -2 -35 -6.5t-22.5 -17t-7.5 -39.5v-240q0 -40 15.5 -50t46.5 -13q8 -1 13.5 -6t5.5 -12q0 -6 -6 -11t-14 -5q-36 0 -55 2
t-35.5 3.5t-43.5 1.5t-43.5 -1.5t-35.5 -3.5t-54 -2zM689 -246q-15 0 -15 8q0 12 9 20t19 13.5t12 6.5q33 14 60.5 29t50.5 32.5t43.5 39t39.5 46.5q18 25 41 67.5t40.5 97t17.5 113.5q0 41 -13 75t-34.5 54.5t-48.5 20.5q-24 0 -39.5 -16t-23.5 -39.5t-8 -46.5
q0 -38 9.5 -68.5t24.5 -48t33 -17.5q11 0 19.5 2t15.5 5q25 10 28.5 -2t-9.5 -26q-5 -7 -10.5 -11.5t-10.5 -9.5q-8 -7 -25 -16.5t-37.5 -16.5t-39.5 -7q-43 0 -77.5 19t-54.5 55t-20 87q0 36 18.5 74t52 70.5t78.5 52t97 19.5q65 0 119 -27.5t86.5 -78.5t32.5 -124
q0 -49 -17.5 -92.5t-44.5 -80.5t-56.5 -67t-53.5 -53t-61 -48.5t-78.5 -48.5t-81.5 -39t-71 -21q-4 -1 -8 -1.5t-9 -0.5z" />
  </g>

</svg>
