<?xml version="1.0" standalone="no"?>
<!DOCTYPE svg PUBLIC "-//W3C//DTD SVG 1.1//EN" "http://www.w3.org/Graphics/SVG/1.1/DTD/svg11.dtd" >
<svg xmlns="http://www.w3.org/2000/svg" xmlns:xlink="http://www.w3.org/1999/xlink" version="1.1" viewBox="-10 0 1436 1000">
  <g transform="matrix(1 0 0 -1 0 800)">
   <path fill="currentColor"
d="M239 -215q-18 0 -31 13q-21 21 -44.5 59.5t-46 88t-41.5 104.5t-30 111t-11 106q0 63 16 126t41.5 120t54.5 102t55 71q8 8 22 14t28 6q10 0 25 -8.5t15 -20.5q0 -2 -5 -9.5t-10.5 -15.5t-7.5 -10q-25 -32 -50 -86.5t-42 -127t-17 -158.5q0 -55 8.5 -116t23 -119
t32.5 -104t37 -70q2 -2 8.5 -10t12.5 -15.5t6 -9.5q0 -19 -15.5 -30t-33.5 -11zM1187 -215q18 0 31 13q21 21 44.5 59.5t46 88t41.5 104.5t30 111t11 106q0 63 -16 126t-41.5 120t-54.5 102t-55 71q-8 8 -22 14t-28 6q-10 0 -25 -8.5t-15 -20.5q0 -2 5 -9.5t10.5 -15.5
t7.5 -10q25 -32 50 -86.5t42 -127t17 -158.5q0 -55 -8.5 -116t-23 -119t-32.5 -104t-37 -70q-2 -2 -8.5 -10t-12.5 -15.5t-6 -9.5q0 -19 15.5 -30t33.5 -11zM355 -5q-9 0 -14.5 6t-5.5 13q0 6 7.5 10.5t12.5 4.5q13 2 27 5.5t24 16.5t10 41v240q0 28 -10 40.5t-23.5 16.5
t-26.5 6q-7 2 -13.5 5.5t-6.5 9.5q0 7 6 13t14 6q35 0 53.5 -1.5t35 -3.5t43.5 -2t44 2t37 3.5t56 1.5q8 0 13 -5t5 -11q0 -7 -4.5 -12t-12.5 -6q-20 -2 -35 -6.5t-22.5 -17t-7.5 -39.5v-240q0 -40 15.5 -50t46.5 -13q8 -1 13.5 -6t5.5 -12q0 -6 -6 -11t-14 -5q-36 0 -55 2
t-35.5 3.5t-43.5 1.5t-43.5 -1.5t-35.5 -3.5t-54 -2zM791 -193q-13 0 -20.5 7t-7.5 21q0 6 9 23t16 30l220 396q5 9 0.5 11.5t-11.5 2.5h-182q-26 0 -40 -8t-29 -28q-6 -8 -17.5 -21.5t-28.5 -13.5q-7 0 -12.5 5t-5.5 12q0 8 1.5 16.5t2.5 14.5q7 36 18 76.5t11 70.5
q0 12 9 15.5t15 2.5q14 -1 40.5 -2.5t58.5 -3.5q41 -1 83.5 -1.5t71.5 -0.5q34 0 68.5 1t59 1.5t27.5 0.5q2 0 4.5 -2.5t2.5 -6.5q0 -1 -7 -13t-17 -30t-21 -36l-290 -507q-5 -10 -14.5 -21.5t-14.5 -11.5z" />
  </g>

</svg>
