<?xml version="1.0" standalone="no"?>
<!DOCTYPE svg PUBLIC "-//W3C//DTD SVG 1.1//EN" "http://www.w3.org/Graphics/SVG/1.1/DTD/svg11.dtd" >
<svg xmlns="http://www.w3.org/2000/svg" xmlns:xlink="http://www.w3.org/1999/xlink" version="1.1" viewBox="-10 0 547 1000">
  <g transform="matrix(1 0 0 -1 0 800)">
   <path fill="currentColor"
d="M128 -82q-11 0 -17.5 6.5t-3.5 13.5l260 592q6 14 18.5 18t28.5 4q14 0 19.5 -7.5t2.5 -14.5l-261 -592q-6 -13 -19.5 -16.5t-27.5 -3.5zM59 460l393 -188q16 -7 33 -16.5t17 -15.5q0 -7 -11 -26t-29 -26l-403 -197q-4 -2 -7 -2q-10 0 -13.5 7.5t-3.5 16.5q0 15 10.5 29
t26.5 21l328 158q4 2 4.5 5t-4.5 5l-328 157q-16 8 -26.5 21.5t-10.5 28.5q0 16 8 21.5t16 0.5z" />
  </g>

</svg>
