<?xml version="1.0" standalone="no"?>
<!DOCTYPE svg PUBLIC "-//W3C//DTD SVG 1.1//EN" "http://www.w3.org/Graphics/SVG/1.1/DTD/svg11.dtd" >
<svg xmlns="http://www.w3.org/2000/svg" xmlns:xlink="http://www.w3.org/1999/xlink" version="1.1" viewBox="-10 0 1037 1000">
  <g transform="matrix(1 0 0 -1 0 800)">
   <path fill="currentColor"
d="M40 -5q-9 0 -14.5 6t-5.5 13q0 6 7.5 10.5t12.5 4.5q13 2 27 5.5t24 16.5t10 41v240q0 28 -10 40.5t-23.5 16.5t-26.5 6q-7 2 -13.5 5.5t-6.5 9.5q0 7 6 13t14 6q35 0 53.5 -1.5t35 -3.5t43.5 -2t44 2t37 3.5t56 1.5q8 0 13 -5t5 -11q0 -7 -4.5 -12t-12.5 -6
q-20 -2 -35 -6.5t-22.5 -17t-7.5 -39.5v-240q0 -40 15.5 -50t46.5 -13q8 -1 13.5 -6t5.5 -12q0 -6 -6 -11t-14 -5q-36 0 -55 2t-35.5 3.5t-43.5 1.5t-43.5 -1.5t-35.5 -3.5t-54 -2zM563 -14q-67 0 -117 27t-78 73.5t-28 106.5q0 73 21 129t47.5 94t42.5 58q23 28 61.5 56.5
t87.5 55t103 45.5q18 7 35 8t17 -7q0 -11 -8 -19t-17 -13t-12 -7q-51 -26 -86 -58.5t-66 -81.5q-14 -23 -30.5 -61.5t-28 -87.5t-11.5 -106q0 -34 6.5 -71.5t23.5 -63.5t47 -26t50.5 31t20.5 81q0 30 -10 55.5t-24.5 41t-30.5 15.5q-10 0 -17 -1.5t-14 -4.5q-21 -10 -26 1.5
t8 25.5q6 6 11 10.5t11 9.5q8 7 24.5 18.5t37 21t39.5 9.5q37 0 70.5 -21.5t54.5 -55.5t21 -72q0 -37 -15.5 -75.5t-46 -70t-74.5 -51t-100 -19.5zM900 -34q-35 0 -60.5 25.5t-25.5 60.5q0 38 25.5 63.5t60.5 25.5q38 0 63.5 -25.5t25.5 -63.5q0 -35 -25.5 -60.5
t-63.5 -25.5z" />
  </g>

</svg>
