<?xml version="1.0" standalone="no"?>
<!DOCTYPE svg PUBLIC "-//W3C//DTD SVG 1.1//EN" "http://www.w3.org/Graphics/SVG/1.1/DTD/svg11.dtd" >
<svg xmlns="http://www.w3.org/2000/svg" xmlns:xlink="http://www.w3.org/1999/xlink" version="1.1" viewBox="-10 0 541 1000">
  <g transform="matrix(1 0 0 -1 0 800)">
   <path fill="currentColor"
d="M62 -14q-9 0 -23.5 6.5t-26.5 18.5t-12 28q0 17 3.5 34t10.5 38l133 424q5 15 7.5 28.5t2.5 26.5q0 14 -12.5 21.5t-26.5 12.5q-7 3 -13.5 6.5t-6.5 9.5t5 10.5t24 11.5q12 4 37.5 11.5t54 15t51.5 13t32 5.5q8 0 18 -1.5t10 -12.5q0 -13 -3 -22.5t-7 -20.5l-157 -415
q-3 -7 2 -7.5t9 5.5q38 54 78.5 100.5t82.5 75t83 28.5q43 0 64.5 -26.5t21.5 -64.5q0 -53 -12.5 -99.5t-34 -87.5t-48.5 -76q-7 -9 -28 -25t-47.5 -32.5t-50 -28t-34.5 -11.5q-14 0 -29 8.5t-25.5 20t-10.5 19.5q0 5 5.5 17.5t14 23.5t17.5 11q11 0 16.5 -5.5l13.5 -13.5
q8 -7 16 -13.5t18 -6.5q9 0 19.5 19.5t20.5 51.5t18 68.5t12.5 71t4.5 59.5q0 15 -5.5 24.5t-17.5 9.5t-30 -20t-40.5 -53.5t-46.5 -75t-48 -85t-45 -82.5q-14 -26 -32 -37.5t-33 -11.5z" />
  </g>

</svg>
