<?xml version="1.0" standalone="no"?>
<!DOCTYPE svg PUBLIC "-//W3C//DTD SVG 1.1//EN" "http://www.w3.org/Graphics/SVG/1.1/DTD/svg11.dtd" >
<svg xmlns="http://www.w3.org/2000/svg" xmlns:xlink="http://www.w3.org/1999/xlink" version="1.1" viewBox="-10 0 644 1000">
  <g transform="matrix(1 0 0 -1 0 800)">
   <path fill="currentColor"
d="M473 641q9 14 22 18.5t30 4.5q8 0 13.5 -6t5.5 -12q0 -4 -1 -5l-404 -636q-7 -12 -20 -16t-28 -4q-8 0 -15.5 5t-7.5 11q0 3 1 4zM108 419q-22 0 -40.5 8.5t-29.5 23t-11 32.5q0 23 16 39t48 29l57 22q14 6 17.5 11t3.5 17v29q0 19 -5 27t-18 8q-7 0 -14.5 -2.5
t-12.5 -7.5t-3 -14t2 -15q0 -5 -14 -12t-32 -13t-30 -8q-7 -2 -10 4.5t0 16.5q5 12 11.5 23t23.5 25q13 10 33.5 20.5t44 18t43.5 7.5q44 0 73.5 -27t27.5 -75l-4 -105q0 -11 5 -22.5t14 -11.5q6 0 11 3t9 6q1 1 2 1.5t2 0.5q4 0 6.5 -2.5t2.5 -6.5q0 -7 -6.5 -14.5
t-9.5 -10.5q-11 -11 -26.5 -18t-37.5 -7q-28 0 -44.5 11t-29.5 28h-1q-10 -13 -27.5 -26t-46.5 -13zM152 471q3 0 5.5 1.5t4.5 2.5q2 2 2.5 3.5t0.5 2.5l2 57q0 5 -3 6.5t-8 -0.5q-15 -7 -19.5 -15.5t-4.5 -30.5q0 -19 6.5 -23t13.5 -4zM469 13q-35 0 -68.5 16t-55 48.5
t-21.5 81.5q0 38 21.5 70.5t60.5 52.5t89 20q26 0 55.5 -10t54.5 -31q2 -4 4.5 -7.5t2.5 -5.5q0 -19 -14 -32.5t-31 -13.5q-7 0 -12.5 3t-11.5 10q-16 20 -26 29t-24 9q-21 0 -33 -18.5t-12 -52.5q0 -42 18.5 -64.5t46.5 -22.5q24 0 36 6t24 23q6 8 13 8q5 0 17 -6t12 -13
q0 -5 -2 -12.5t-7 -12.5q-13 -26 -46 -50.5t-91 -24.5z" />
  </g>

</svg>
