<?xml version="1.0" standalone="no"?>
<!DOCTYPE svg PUBLIC "-//W3C//DTD SVG 1.1//EN" "http://www.w3.org/Graphics/SVG/1.1/DTD/svg11.dtd" >
<svg xmlns="http://www.w3.org/2000/svg" xmlns:xlink="http://www.w3.org/1999/xlink" version="1.1" viewBox="-10 0 639 1000">
  <g transform="matrix(1 0 0 -1 0 800)">
   <path fill="currentColor"
d="M173 -3q-6 0 -13.5 4t-7.5 11q0 9 6.5 14.5t15.5 7.5q38 8 54.5 20t16.5 43v278q0 38 -1 55.5t-3 23t-5 7.5q-5 5 -14 6t-12 1h-18q-33 0 -57.5 -17t-42.5 -41q-5 -7 -15 -20t-21 -23t-22 -10q-9 0 -12.5 5.5t-3.5 12.5q0 6 2.5 13.5l4.5 13.5q17 39 20.5 67t10.5 65
q2 14 9 20t17 6q8 0 16 -13t18 -21q11 -8 35 -12t37 -4l306 1q23 0 39.5 5t23.5 9q16 11 26.5 22.5t23.5 11.5q7 0 9.5 -4t2.5 -12v-9t-2 -10q-5 -20 -10.5 -39.5t-9 -37.5t-3.5 -36v-21q0 -18 -3.5 -27.5t-13.5 -9.5t-16.5 9t-13.5 30q-13 40 -33.5 58t-53.5 18h-12
q-11 0 -18.5 -4.5t-11 -17t-3.5 -37.5v-311q0 -28 15.5 -40.5t54.5 -23.5q9 -3 15.5 -7t6.5 -14q0 -7 -5.5 -11t-13.5 -4q-21 0 -51 1t-59.5 2t-49.5 1t-48 -1t-56.5 -2.5t-50.5 -1.5zM39 585q-7 0 -11.5 4.5t-4.5 10.5q0 16 4.5 27.5t12 18t14.5 6.5h540q7 0 11 -4.5
t4 -9.5q0 -21 -10 -37t-23 -16h-537z" />
  </g>

</svg>
