<?xml version="1.0" standalone="no"?>
<!DOCTYPE svg PUBLIC "-//W3C//DTD SVG 1.1//EN" "http://www.w3.org/Graphics/SVG/1.1/DTD/svg11.dtd" >
<svg xmlns="http://www.w3.org/2000/svg" xmlns:xlink="http://www.w3.org/1999/xlink" version="1.1" viewBox="-10 0 658 1000">
  <g transform="matrix(1 0 0 -1 0 800)">
   <path fill="currentColor"
d="M174 416q-35 0 -68.5 16t-55 48.5t-21.5 81.5q0 38 21.5 70.5t60.5 52.5t89 20q26 0 55.5 -10t54.5 -31q2 -4 4.5 -7.5t2.5 -5.5q0 -19 -14 -32.5t-31 -13.5q-7 0 -12.5 3t-11.5 10q-16 20 -26 29t-24 9q-21 0 -33 -18.5t-12 -52.5q0 -42 18.5 -64.5t46.5 -22.5
q24 0 36 6t24 23q6 8 13 8q5 0 17 -6t12 -13q0 -5 -2 -12.5t-7 -12.5q-13 -26 -46 -50.5t-91 -24.5zM432 640q9 14 22 18.5t30 4.5q8 0 13.5 -6t5.5 -12q0 -4 -1 -5l-404 -636q-7 -12 -20 -16t-28 -4q-8 0 -15.5 5t-7.5 11q0 3 1 4zM439 14q-46 0 -82 17.5t-57 48.5t-21 69
q0 45 23 80t63 54.5t90 19.5q46 0 83.5 -18.5t60 -49t22.5 -67.5q0 -42 -20.5 -77t-61 -56t-100.5 -21zM452 54q18 0 26.5 15t11.5 38t3 46q0 27 -5.5 52t-16 41.5t-25.5 16.5q-18 0 -27 -15.5t-11.5 -38t-2.5 -44.5q0 -28 6 -53.5t17 -41.5t24 -16z" />
  </g>

</svg>
