<?xml version="1.0" standalone="no"?>
<!DOCTYPE svg PUBLIC "-//W3C//DTD SVG 1.1//EN" "http://www.w3.org/Graphics/SVG/1.1/DTD/svg11.dtd" >
<svg xmlns="http://www.w3.org/2000/svg" xmlns:xlink="http://www.w3.org/1999/xlink" version="1.1" viewBox="-10 0 985 1000">
  <g transform="matrix(1 0 0 -1 0 800)">
   <path fill="currentColor"
d="M40 -5q-9 0 -14.5 6t-5.5 13q0 6 7.5 10.5t12.5 4.5q13 2 27 5.5t24 16.5t10 41v240q0 28 -10 40.5t-23.5 16.5t-26.5 6q-7 2 -13.5 5.5t-6.5 9.5q0 7 6 13t14 6q35 0 53.5 -1.5t35 -3.5t43.5 -2t44 2t37 3.5t56 1.5q8 0 13 -5t5 -11q0 -7 -4.5 -12t-12.5 -6
q-20 -2 -35 -6.5t-22.5 -17t-7.5 -39.5v-240q0 -40 15.5 -50t46.5 -13q8 -1 13.5 -6t5.5 -12q0 -6 -6 -11t-14 -5q-36 0 -55 2t-35.5 3.5t-43.5 1.5t-43.5 -1.5t-35.5 -3.5t-54 -2zM451 -193q-13 0 -20.5 7t-7.5 21q0 6 9 23t16 30l220 396q5 9 0.5 11.5t-11.5 2.5h-182
q-26 0 -40 -8t-29 -28q-6 -8 -17.5 -21.5t-28.5 -13.5q-7 0 -12.5 5t-5.5 12q0 8 1.5 16.5t2.5 14.5q7 36 18 76.5t11 70.5q0 12 9 15.5t15 2.5q14 -1 40.5 -2.5t58.5 -3.5q41 -1 83.5 -1.5t71.5 -0.5q34 0 68.5 1t59 1.5t27.5 0.5q2 0 4.5 -2.5t2.5 -6.5q0 -1 -7 -13
t-17 -30t-21 -36l-290 -507q-5 -10 -14.5 -21.5t-14.5 -11.5zM848 -34q-35 0 -60.5 25.5t-25.5 60.5q0 38 25.5 63.5t60.5 25.5q38 0 63.5 -25.5t25.5 -63.5q0 -35 -25.5 -60.5t-63.5 -25.5z" />
  </g>

</svg>
