<?xml version="1.0" standalone="no"?>
<!DOCTYPE svg PUBLIC "-//W3C//DTD SVG 1.1//EN" "http://www.w3.org/Graphics/SVG/1.1/DTD/svg11.dtd" >
<svg xmlns="http://www.w3.org/2000/svg" xmlns:xlink="http://www.w3.org/1999/xlink" version="1.1" viewBox="-10 0 403 1000">
  <g transform="matrix(1 0 0 -1 0 800)">
   <path fill="currentColor"
d="M24 460q-5 0 -12 1t-7 7t2.5 9t9.5 6q6 2 12.5 7.5t18.5 20.5l68 87q3 4 3.5 7.5t-3.5 9.5l-48 61q-10 13 -16.5 22.5t-18.5 13.5q-7 2 -9.5 6t-2.5 9q0 6 6.5 7.5t12.5 1.5q27 0 41.5 -2.5t36.5 -2.5q26 0 40.5 3t43.5 3q6 0 11.5 -2.5t5.5 -8.5q0 -4 -3 -8t-11 -6
q-27 -7 -6 -36l24 -32q4 -5 6 -5.5t6 5.5l24 31q8 11 6 21t-18 14q-8 2 -12 5t-4 10q0 5 6 8t11 3q27 0 33 -0.5t14 -0.5q5 0 16 -1t35 1q5 0 12.5 -2.5t7.5 -7.5q0 -7 -2 -9.5t-10 -4.5q-5 -1 -11 -7t-20 -25l-52 -64q-8 -10 -7 -14.5t6 -10.5l49 -59q11 -13 24.5 -26.5
t27.5 -18.5q8 -2 10 -5.5t2 -9.5t-7 -7.5t-12 -1.5q-27 0 -49 2.5t-44 2.5q-27 0 -46.5 -2.5t-50.5 -2.5q-7 0 -12 2.5t-5 6.5q0 6 4.5 8.5t10.5 3.5q16 4 20 16t0.5 25.5t-10.5 22.5l-18 25q-4 5 -8.5 4.5t-8.5 -5.5l-35 -44q-9 -13 -7.5 -26t17.5 -20l10 -4t5 -8
q0 -5 -5.5 -7.5t-10.5 -2.5q-17 0 -22.5 0.5t-9 0.5h-15.5q-4 0 -15 1t-35 -1z" />
  </g>

</svg>
