<?xml version="1.0" standalone="no"?>
<!DOCTYPE svg PUBLIC "-//W3C//DTD SVG 1.1//EN" "http://www.w3.org/Graphics/SVG/1.1/DTD/svg11.dtd" >
<svg xmlns="http://www.w3.org/2000/svg" xmlns:xlink="http://www.w3.org/1999/xlink" version="1.1" viewBox="-10 0 413 1000">
  <g transform="matrix(1 0 0 -1 0 800)">
   <path fill="currentColor"
d="M217 -190q-17 0 -36.5 11t-33 28t-13.5 33q0 14 11.5 26t24.5 12q28 0 59.5 6.5t59.5 17t45.5 21t17.5 18.5q0 5 -7 10t-15 5q-13 0 -43.5 -4.5t-56.5 -7.5q-23 -3 -45.5 -5t-41.5 -2q-24 0 -51.5 13.5t-47 49.5t-19.5 104q0 44 17.5 80t44.5 63.5t53 43.5q6 4 9 8.5
t-9 8.5q-23 9 -44 20.5t-34 29.5t-13 44q0 15 9.5 44t25.5 58t35 43q12 8 -6 10q-54 5 -78.5 25.5t-25.5 45.5t16 49t48.5 40t71.5 16q5 0 7.5 -1t2.5 -8q0 -3 -3 -7.5t-11 -10.5q-19 -13 -26 -33t-7 -37q-1 -25 12.5 -42.5t27.5 -17.5q5 0 8.5 2.5t9.5 6.5q30 19 60.5 33
t58 22t46.5 7q45 0 45 -44q0 -20 -7 -42.5t-27.5 -37.5t-62.5 -15q-44 -8 -79.5 -29t-56 -48t-20.5 -55q0 -16 18 -28t41 -12q17 0 38 11t40 18q20 7 38 11.5t34 5.5q17 1 32 -14t15 -31t-11 -36.5t-28 -36.5t-34 -19q-38 -7 -80 -21t-78.5 -34.5t-59.5 -47.5t-23 -59
q0 -16 12 -23.5t27 -7.5q27 0 60.5 3t55.5 6q23 3 44.5 5.5t34.5 2.5q30 0 51 -12.5t32 -34t11 -49.5q0 -38 -16 -74.5t-42.5 -66t-57.5 -47t-60 -17.5z" />
  </g>

</svg>
