<?xml version="1.0" standalone="no"?>
<!DOCTYPE svg PUBLIC "-//W3C//DTD SVG 1.1//EN" "http://www.w3.org/Graphics/SVG/1.1/DTD/svg11.dtd" >
<svg xmlns="http://www.w3.org/2000/svg" xmlns:xlink="http://www.w3.org/1999/xlink" version="1.1" viewBox="-10 0 460 1000">
  <g transform="matrix(1 0 0 -1 0 800)">
   <path fill="currentColor"
d="M45 -5q-4 0 -14.5 10t-10.5 20q0 7 8 19.5t18 26t16 23.5q24 39 42.5 67.5t36 56t38 61t50.5 82.5q2 4 2 8t-13 4h-45q-14 0 -24 -3.5t-21 -14.5q-4 -4 -14 -18t-21.5 -30t-20.5 -29.5t-12 -16.5q-6 -7 -20 -3t-13 13q3 11 9 37t11.5 55.5t5.5 50.5q0 11 7.5 19t16.5 8
q10 0 20 -10q5 -4 19 -5.5t30 -1.5q12 0 23.5 0.5t18.5 0.5q47 0 106 1t110 3q9 0 14.5 -8.5t7.5 -19t-2 -16.5q-12 -14 -21.5 -26.5t-21.5 -29.5l-160 -261q-4 -7 -1.5 -11t16.5 -4h51q15 0 27 4.5t25 18.5q16 17 25 33t28 50q8 14 23 10.5t15 -15.5q0 -7 -3 -23
t-7.5 -36.5t-10.5 -42t-12 -41.5q-5 -16 -20 -16q-25 0 -87.5 3t-154.5 3q-24 0 -50 -3t-40 -3zM242 488q-34 0 -59 25t-25 59q0 37 25 62t59 25q37 0 62 -25t25 -62q0 -34 -25 -59t-62 -25z" />
  </g>

</svg>
