<?xml version="1.0" standalone="no"?>
<!DOCTYPE svg PUBLIC "-//W3C//DTD SVG 1.1//EN" "http://www.w3.org/Graphics/SVG/1.1/DTD/svg11.dtd" >
<svg xmlns="http://www.w3.org/2000/svg" xmlns:xlink="http://www.w3.org/1999/xlink" version="1.1" viewBox="-10 0 361 1000">
  <g transform="matrix(1 0 0 -1 0 800)">
   <path fill="currentColor"
d="M172 -17q-40 0 -72 21.5t-51 60.5t-19 91q0 55 18.5 95.5t52 62.5t78.5 22q43 0 74.5 -22t49.5 -60.5t18 -89.5q0 -61 -20 -101t-53.5 -60t-75.5 -20zM180 17q13 0 20.5 19.5t11 51t3.5 67.5t-5 69.5t-14.5 55t-24.5 21.5q-13 0 -20.5 -19t-10.5 -50.5t-3 -67.5
q0 -27 2.5 -53t8 -47t13.5 -34t19 -13z" />
  </g>

</svg>
