<?xml version="1.0" standalone="no"?>
<!DOCTYPE svg PUBLIC "-//W3C//DTD SVG 1.1//EN" "http://www.w3.org/Graphics/SVG/1.1/DTD/svg11.dtd" >
<svg xmlns="http://www.w3.org/2000/svg" xmlns:xlink="http://www.w3.org/1999/xlink" version="1.1" viewBox="-10 0 677 1024">
  <g transform="matrix(1 0 0 -1 0 819)">
   <path fill="currentColor"
d="M231 433h147c11 0 20 2 28 5c8 4 15 9 20 16c6 7 10 15 13 22s4 15 4 23c0 9 -2 18 -5 27c-4 8 -10 15 -17 22s-16 11 -25 14c-10 3 -21 5 -32 5h-133v-106v-28zM232 148h158c11 0 22 2 31 5s17 8 24 15s13 14 17 22c3 8 5 17 5 26c0 10 -2 19 -5 27s-9 15 -16 22
s-16 11 -25 14s-19 5 -30 5h-159v-50v-86zM84 0c-1 190 -1 317 -1 380v335h281c29 0 57 -5 82 -16c25 -10 49 -26 70 -47s37 -45 47 -70c11 -25 16 -53 16 -82c0 -12 -1 -24 -3 -35s-5 -22 -9 -33c-3 -11 -8 -21 -13 -30s-12 -18 -19 -27c12 -9 23 -20 32 -31s16 -23 22 -36
s11 -28 14 -43s4 -31 4 -48c0 -31 -5 -59 -16 -85c-10 -25 -25 -48 -46 -69s-44 -35 -70 -46c-25 -10 -54 -16 -85 -16h-306v-1z" />
  </g>

</svg>
