<?xml version="1.0" standalone="no"?>
<!DOCTYPE svg PUBLIC "-//W3C//DTD SVG 1.1//EN" "http://www.w3.org/Graphics/SVG/1.1/DTD/svg11.dtd" >
<svg xmlns="http://www.w3.org/2000/svg" xmlns:xlink="http://www.w3.org/1999/xlink" version="1.1" viewBox="-10 0 663 1024">
  <g transform="matrix(1 0 0 -1 0 819)">
   <path fill="currentColor"
d="M332 -13c-10 0 -20 0 -30 1c-11 1 -21 3 -30 5c-10 2 -20 4 -29 7c-9 2 -18 5 -27 8c-16 5 -31 11 -45 18s-27 13 -38 20l-29 19l-19 13l-22 19c11 13 23 30 38 49l53 69l23 -18c3 -3 9 -7 18 -12l35 -21c15 -9 31 -15 48 -19c17 -5 34 -7 53 -7c7 0 13 0 20 1l20 4
c6 1 12 3 18 6l18 9c5 3 9 7 13 10c3 3 6 7 9 12s5 9 6 14s2 9 2 14c-1 6 -2 11 -4 16s-5 10 -9 13l-12 9c-4 3 -8 5 -11 6l-11 5l-16 6l-37 12l-65 23c-11 4 -22 8 -33 13c-10 4 -20 8 -29 13c-17 9 -32 19 -46 30c-13 11 -25 23 -36 38s-19 30 -25 46s-10 33 -11 50
c-2 18 -2 36 1 53s8 33 15 50s17 32 28 46c11 15 25 28 40 40c6 5 14 11 23 16l34 18c13 7 28 12 44 15s33 5 52 5c17 0 34 -2 51 -5s35 -7 52 -14s36 -14 52 -24l54 -33l23 -15l-36 -51c-15 -21 -30 -45 -49 -72l-24 16l-20 13l-31 16c-12 6 -24 11 -37 14
c-12 3 -24 5 -37 5c-5 0 -11 0 -16 -1l-15 -4c-5 -1 -9 -3 -13 -6c-5 -2 -9 -5 -13 -8c-5 -5 -10 -9 -14 -14c-4 -4 -7 -9 -10 -14s-4 -10 -5 -15s-2 -11 -1 -16s2 -9 4 -13c2 -5 5 -9 8 -14c3 -4 7 -8 12 -11c4 -4 9 -7 14 -10l23 -11l27 -10l28 -10l28 -9
c8 -3 16 -5 23 -7s14 -4 21 -7l19 -7l16 -7c19 -8 35 -19 49 -31c15 -12 27 -26 38 -41s19 -31 25 -48c7 -17 10 -34 10 -53v-12c0 -17 -2 -33 -6 -49s-10 -31 -19 -46c-9 -17 -21 -32 -34 -45s-27 -25 -44 -35c-11 -7 -23 -12 -35 -17s-24 -10 -37 -13s-25 -6 -38 -8
c-13 -1 -27 -2 -40 -2z" />
  </g>

</svg>
