<?xml version="1.0" standalone="no"?>
<!DOCTYPE svg PUBLIC "-//W3C//DTD SVG 1.1//EN" "http://www.w3.org/Graphics/SVG/1.1/DTD/svg11.dtd" >
<svg xmlns="http://www.w3.org/2000/svg" xmlns:xlink="http://www.w3.org/1999/xlink" version="1.1" viewBox="-10 0 907 1024">
  <g transform="matrix(1 0 0 -1 0 819)">
   <path fill="currentColor"
d="M189 168c5 -5 10 -9 16 -13s13 -8 21 -11s16 -6 25 -7s18 -2 27 -2c7 0 14 1 21 2s13 2 20 5c7 2 13 4 19 7l17 9c10 5 19 11 27 18c8 6 15 12 21 19l14 15l5 5c-13 7 -28 17 -46 29c-19 12 -40 26 -65 41c-7 5 -16 9 -27 10c-10 4 -21 4 -34 4h-1c-13 0 -24 -2 -33 -5
c-10 -4 -19 -10 -26 -17c-5 -5 -10 -12 -14 -20c-3 -7 -6 -16 -8 -26c-1 -2 -1 -4 -1 -6c-1 -2 -1 -4 -1 -6c0 -9 2 -17 6 -26c4 -8 10 -16 17 -25zM808 -25c-117 73 -204 128 -262 165c-17 -23 -35 -42 -52 -58s-33 -29 -49 -38l-40 -23c-12 -7 -22 -10 -29 -13
c-21 -8 -41 -13 -62 -16c-20 -2 -40 -1 -59 2s-36 6 -49 9s-24 6 -31 9c-13 5 -25 10 -36 17c-11 6 -21 13 -30 20s-17 15 -24 22s-14 15 -19 22c-10 14 -18 27 -24 40s-10 26 -11 38c-1 11 -3 20 -4 26s-1 9 -1 9c0 1 0 4 -1 9v21v4c0 9 1 18 3 28c2 11 5 22 9 33l8 20
c3 7 7 13 11 20l15 20c5 7 11 13 18 20l26 21l14 9l14 8c-9 13 -16 26 -22 39s-10 27 -13 40c-3 14 -4 28 -3 43c1 14 3 29 7 44c3 14 9 27 16 40s15 25 26 36s22 21 34 30c12 8 25 15 40 20c5 2 11 4 17 5l17 4l18 2c6 1 12 1 17 1c12 0 24 -1 36 -3s24 -5 36 -9
s24 -9 36 -15s24 -13 35 -21l18 -13l26 -18l-86 -119c-19 13 -34 23 -43 30c-11 7 -21 13 -30 16c-9 4 -16 6 -23 5s-12 -1 -15 -1c-4 0 -7 0 -8 -1l-8 -4c-3 -1 -5 -3 -8 -6l-5 -7l-4 -8c-3 -7 -3 -15 -1 -22c1 -8 5 -16 12 -23l20 -21c7 -7 14 -13 23 -19l13 -9l13 -8
c5 -3 9 -5 12 -8c4 -3 8 -5 11 -8c71 -45 119 -74 143 -89c63 107 104 179 125 215c64 -37 107 -61 128 -74l-128 -220l262 -163l-33 -52z" />
  </g>

</svg>
