<?xml version="1.0" standalone="no"?>
<!DOCTYPE svg PUBLIC "-//W3C//DTD SVG 1.1//EN" "http://www.w3.org/Graphics/SVG/1.1/DTD/svg11.dtd" >
<svg xmlns="http://www.w3.org/2000/svg" xmlns:xlink="http://www.w3.org/1999/xlink" version="1.1" viewBox="-10 0 922 1024">
  <g transform="matrix(1 0 0 -1 0 819)">
   <path fill="currentColor"
d="M465 431c-5 0 -9 0 -13 -1l-11 -3l-11 -5c-3 -2 -7 -4 -10 -7h-1v-1l-15 -14c-4 -5 -8 -11 -11 -17c-3 -5 -4 -11 -5 -16s-2 -11 -2 -16v-6c0 -6 1 -12 3 -17s4 -10 7 -15l9 -13c3 -3 7 -6 12 -9c3 -2 7 -4 11 -5l10 -3l11 -3h11c7 0 13 1 19 2s12 3 17 6l15 8
c5 3 9 6 12 9v103l-6 5l-8 6c-3 1 -6 3 -10 4l-11 4c-5 1 -8 1 -10 2s-4 1 -6 1c-2 1 -4 1 -7 1zM460 -26c-32 0 -63 4 -92 11c-30 7 -59 18 -86 33s-52 32 -74 52c-23 20 -43 42 -60 67c-9 13 -19 27 -26 41c-8 15 -14 30 -19 45c-6 15 -11 31 -14 48c-4 17 -7 33 -8 50
c-1 5 -1 11 -1 17c-1 6 -1 12 -1 17c0 21 2 41 5 62s8 41 15 60c9 25 20 49 33 71c13 23 29 44 47 64c18 19 38 37 59 52s43 27 68 38s50 20 76 25c25 5 51 8 78 8c34 0 67 -4 98 -13c31 -8 60 -20 89 -37s54 -36 77 -58c22 -22 42 -46 59 -73c9 -15 17 -30 24 -46
c7 -15 14 -31 19 -48s8 -35 11 -52s4 -35 4 -54c0 -41 -4 -77 -13 -106s-22 -52 -39 -69s-35 -30 -54 -38c-19 -9 -38 -13 -57 -13c-11 0 -21 1 -31 4c-10 1 -20 5 -29 10s-18 10 -26 16c-9 6 -17 13 -24 22c-5 -3 -10 -6 -17 -9s-16 -7 -26 -10c-11 -3 -22 -6 -34 -8
s-25 -3 -38 -2l-23 2c-7 1 -15 3 -23 5c-9 2 -17 5 -25 8c-9 3 -17 7 -26 12c-14 7 -27 16 -38 27s-21 23 -30 37s-15 29 -20 44s-9 32 -10 49s-1 35 2 52s9 33 16 49s16 31 27 44c11 14 23 26 37 37c9 7 19 13 28 18s19 10 30 13c11 4 22 7 33 9s23 3 34 3c5 0 9 0 14 -1
c5 0 10 -1 15 -2l16 -2l14 -4c15 -4 29 -10 43 -17c13 -7 26 -16 37 -27s21 -22 30 -33c8 -11 14 -23 19 -35v-7v-20v-59v-39v-28c0 -5 1 -9 2 -12s2 -6 5 -9s5 -5 8 -6s5 -2 8 -2c7 0 13 4 18 11s8 18 11 33s4 28 5 40s2 23 1 32c-1 11 -3 22 -5 33l-9 32
c-3 11 -9 21 -14 30c-5 10 -11 19 -17 28c-12 17 -24 32 -39 45s-31 25 -49 35c-19 11 -37 18 -56 23s-38 7 -59 7c-19 0 -37 -2 -54 -6c-17 -3 -34 -9 -49 -16c-16 -7 -31 -16 -45 -26c-14 -9 -27 -20 -39 -33s-22 -27 -31 -42s-17 -30 -22 -47s-9 -33 -11 -50
s-2 -35 -1 -53c3 -32 10 -62 23 -89s32 -51 57 -74s51 -39 79 -50s58 -17 91 -17c7 0 17 1 28 3s23 5 37 9c14 3 24 6 31 8s10 3 10 3l45 -120c0 -1 -3 -2 -10 -5l-32 -12c-13 -5 -29 -8 -48 -11s-39 -4 -62 -4z" />
  </g>

</svg>
