<?xml version="1.0" standalone="no"?>
<!DOCTYPE svg PUBLIC "-//W3C//DTD SVG 1.1//EN" "http://www.w3.org/Graphics/SVG/1.1/DTD/svg11.dtd" >
<svg xmlns="http://www.w3.org/2000/svg" xmlns:xlink="http://www.w3.org/1999/xlink" version="1.1" viewBox="-10 0 623 1024">
  <g transform="matrix(1 0 0 -1 0 819)">
   <path fill="currentColor"
d="M203 325c95 -1 167 -1 214 -1c-3 12 -7 24 -12 35s-11 21 -20 31s-19 18 -32 23s-27 8 -44 8c-15 0 -28 -2 -40 -7s-23 -12 -32 -21s-17 -19 -23 -31c-5 -11 -9 -24 -11 -37zM553 233h-349c3 -15 8 -29 16 -41c7 -11 17 -21 28 -30s24 -15 38 -19s29 -6 44 -6
c9 0 19 1 29 4s20 6 29 11l26 16c8 5 15 11 20 17h1v1l98 -99c-13 -14 -27 -27 -42 -38s-32 -20 -51 -29s-37 -15 -55 -19c-19 -5 -37 -7 -55 -7c-39 0 -74 6 -106 18s-61 30 -86 53c-25 24 -45 51 -60 82s-23 64 -26 101c-1 2 -1 4 -1 6v6v12c0 13 1 27 2 40
c2 14 5 27 8 40s7 25 12 36c5 12 10 23 16 34c11 21 24 39 39 55s33 30 52 42c19 11 38 20 59 26s43 9 66 9h4c41 0 76 -7 107 -20c31 -14 56 -34 77 -60s37 -55 48 -86s16 -65 16 -102v-5v-13l-2 -18c0 -6 -1 -12 -2 -17z" />
  </g>

</svg>
