<?xml version="1.0" standalone="no"?>
<!DOCTYPE svg PUBLIC "-//W3C//DTD SVG 1.1//EN" "http://www.w3.org/Graphics/SVG/1.1/DTD/svg11.dtd" >
<svg xmlns="http://www.w3.org/2000/svg" xmlns:xlink="http://www.w3.org/1999/xlink" version="1.1" viewBox="-10 0 620 1024">
  <g transform="matrix(1 0 0 -1 0 819)">
   <path fill="currentColor"
d="M326 -4c-13 0 -26 1 -39 2c-13 2 -25 5 -37 8s-23 7 -34 12s-22 9 -31 14c-19 9 -35 20 -49 30c-15 11 -27 20 -38 31l-24 24l-8 8c12 11 27 26 45 44l62 63l5 -5c3 -4 8 -9 13 -16c6 -7 13 -14 21 -21c7 -7 16 -13 27 -20l18 -9l20 -8c7 -3 14 -4 21 -5s15 -2 23 -2
c6 0 12 1 19 2c6 1 13 3 20 6s14 6 20 10s11 9 16 14c9 9 15 20 18 31c3 12 5 25 4 38s-4 26 -9 37s-11 20 -20 28l-10 7c-4 3 -9 7 -16 10s-15 6 -25 8c-9 2 -20 3 -33 3c-9 0 -19 -1 -28 -2c-9 -2 -19 -5 -28 -8s-17 -7 -25 -12s-15 -11 -22 -16l-50 34
c-20 13 -43 29 -70 48v331h445v-146h-297v-105l24 4c5 1 12 2 19 2l21 2c15 1 30 0 46 -1s33 -4 52 -7s36 -10 53 -19s33 -20 48 -35c23 -22 42 -46 55 -73s20 -57 20 -89v-15c0 -29 -5 -57 -15 -83c-10 -25 -25 -49 -44 -71c-11 -13 -24 -25 -37 -35
c-14 -11 -29 -20 -44 -27s-32 -12 -49 -16c-17 -3 -34 -5 -53 -5z" />
  </g>

</svg>
