<?xml version="1.0" standalone="no"?>
<!DOCTYPE svg PUBLIC "-//W3C//DTD SVG 1.1//EN" "http://www.w3.org/Graphics/SVG/1.1/DTD/svg11.dtd" >
<svg xmlns="http://www.w3.org/2000/svg" xmlns:xlink="http://www.w3.org/1999/xlink" version="1.1" viewBox="-10 0 693 1024">
  <g transform="matrix(1 0 0 -1 0 819)">
   <path fill="currentColor"
d="M479 288c0 21 -4 40 -11 58s-17 34 -31 49s-30 26 -47 33s-36 11 -56 11s-38 -4 -55 -11s-33 -18 -47 -33s-24 -31 -31 -49s-10 -37 -10 -58s4 -40 11 -57c7 -18 17 -34 31 -49s30 -26 47 -33s36 -11 56 -11s38 4 55 11s33 18 47 33s24 31 31 49c7 17 10 36 10 57z
M476 551h135v-460v-31v-22c0 -17 -1 -34 -3 -49c-2 -16 -6 -31 -11 -44s-10 -25 -17 -37c-7 -11 -14 -22 -22 -32c-15 -17 -31 -32 -49 -45s-38 -22 -59 -29s-42 -12 -61 -15s-36 -5 -53 -5c-13 0 -27 1 -40 2s-25 2 -36 5l-33 9c-11 3 -21 7 -30 10c-17 7 -33 15 -46 22
s-25 15 -34 22l-21 17c-5 4 -7 6 -7 6l78 108s1 0 2 -1s2 -3 4 -4l6 -6c3 -2 6 -4 9 -7c7 -5 15 -9 25 -14s21 -11 34 -16s27 -9 43 -12c15 -3 32 -4 51 -4c17 0 34 2 50 7c15 4 30 11 44 20c13 9 24 21 31 36s10 34 10 55v22v42c-7 -9 -16 -19 -26 -28
c-9 -9 -20 -17 -33 -24s-26 -13 -41 -18c-14 -5 -30 -8 -47 -9c-1 -1 -3 -1 -5 -1h-5h-10c-11 0 -21 1 -32 2c-11 2 -21 4 -32 7s-21 7 -32 11l-30 15c-20 10 -36 23 -51 38s-28 33 -41 52s-22 40 -28 63s-9 47 -9 73c0 29 3 55 9 80s15 47 28 67c13 19 26 37 41 52
s31 29 51 39l30 15c11 4 21 8 32 11s21 5 32 7c11 1 22 2 33 2h5h5c15 0 29 -2 43 -7s28 -10 42 -17c13 -7 26 -15 38 -24s23 -20 33 -31v75z" />
  </g>

</svg>
