<?xml version="1.0" standalone="no"?>
<!DOCTYPE svg PUBLIC "-//W3C//DTD SVG 1.1//EN" "http://www.w3.org/Graphics/SVG/1.1/DTD/svg11.dtd" >
<svg xmlns="http://www.w3.org/2000/svg" xmlns:xlink="http://www.w3.org/1999/xlink" version="1.1" viewBox="-10 0 664 1024">
  <g transform="matrix(1 0 0 -1 0 819)">
   <path fill="currentColor"
d="M591 321v-320h-146v293c0 21 -2 40 -7 55s-13 27 -22 36s-21 15 -34 19c-13 5 -27 7 -43 7c-22 0 -41 -4 -57 -12s-29 -20 -40 -36c-11 -17 -18 -35 -23 -54c-5 -20 -8 -42 -8 -65v-244h-150v230c0 91 0 198 -1 321h151v-80c9 11 18 22 28 31c11 9 22 18 34 25
c11 7 24 13 37 18s27 7 42 8c2 1 4 1 6 1h7h13c33 0 62 -5 88 -16c27 -11 49 -26 68 -47s34 -45 43 -73c9 -29 14 -61 14 -97z" />
  </g>

</svg>
