<?xml version="1.0" standalone="no"?>
<!DOCTYPE svg PUBLIC "-//W3C//DTD SVG 1.1//EN" "http://www.w3.org/Graphics/SVG/1.1/DTD/svg11.dtd" >
<svg xmlns="http://www.w3.org/2000/svg" xmlns:xlink="http://www.w3.org/1999/xlink" version="1.1" viewBox="-10 0 542 1024">
  <g transform="matrix(1 0 0 -1 0 819)">
   <path fill="currentColor"
d="M472 172c-1 -3 -2 -6 -2 -8c0 -13 -2 -26 -5 -39s-8 -25 -15 -37c-7 -13 -16 -24 -27 -35c-10 -11 -22 -20 -35 -27c-9 -5 -18 -10 -27 -13c-10 -4 -20 -7 -31 -10s-21 -5 -32 -6s-22 -2 -33 -2c-23 0 -46 2 -67 7s-42 12 -61 23l-47 27c-12 7 -21 14 -26 19l-2 2l85 108
l4 -3c11 -8 22 -15 33 -20c11 -6 21 -11 32 -14l29 -8c9 -2 18 -3 27 -3c5 0 9 0 13 1l12 2c4 1 8 2 11 4c4 1 8 3 11 5c2 1 4 3 5 5c2 1 4 3 5 5l3 5l2 7c1 5 0 8 -1 11c-2 3 -4 6 -7 7c-3 2 -5 4 -8 5l-9 4l-29 10l-56 17l-35 13l-14 4l-10 5c-13 7 -25 14 -36 23
c-10 9 -19 18 -28 28c-8 9 -14 20 -19 32s-9 25 -10 39s-1 28 1 41c2 14 6 27 12 40c5 13 13 26 22 37s20 22 31 31c3 3 9 6 16 10c7 5 15 10 26 15s23 10 38 13s31 4 48 4c15 0 29 -1 43 -4c14 -2 28 -6 43 -11s29 -11 43 -19c14 -7 28 -16 42 -27l-81 -113
c-6 5 -13 10 -20 13l-26 12c-9 3 -17 6 -26 8s-17 3 -26 3c-3 0 -7 0 -10 -1l-9 -2l-8 -3c-2 -1 -4 -3 -7 -4c-3 -3 -6 -5 -8 -8l-4 -8c-1 -3 -2 -6 -2 -8c-1 -3 -1 -5 0 -7l2 -6l3 -6l6 -5c2 -1 4 -3 7 -4c3 -2 8 -4 13 -6s10 -4 16 -5l17 -5l17 -6c5 -1 8 -2 9 -3
c5 -1 8 -2 9 -3c5 -1 9 -2 10 -3l11 -3l12 -4l11 -4c10 -4 17 -6 22 -7c17 -5 32 -13 44 -23s22 -21 29 -32s13 -24 18 -37c4 -13 6 -28 6 -43z" />
  </g>

</svg>
