<?xml version="1.0" standalone="no"?>
<!DOCTYPE svg PUBLIC "-//W3C//DTD SVG 1.1//EN" "http://www.w3.org/Graphics/SVG/1.1/DTD/svg11.dtd" >
<svg xmlns="http://www.w3.org/2000/svg" xmlns:xlink="http://www.w3.org/1999/xlink" version="1.1" viewBox="-10 0 461 1024">
  <g transform="matrix(1 0 0 -1 0 819)">
   <path fill="currentColor"
d="M380 147c7 -69 11 -116 13 -139l-42 -10l-20 -3h-20c-11 0 -21 1 -31 2s-20 3 -29 6s-18 6 -27 10s-17 9 -26 14c-11 7 -21 16 -30 25c-8 10 -14 21 -19 32s-9 23 -12 34c-3 12 -6 24 -7 35c-1 7 -1 13 -1 19c-1 6 -1 12 -1 18c-1 5 -1 11 -1 16v16v9v206h-75v57v57h75
v221h148v-221h139v-114h-139v-215v-49c1 -5 2 -10 4 -14c2 -5 5 -8 8 -11s7 -4 14 -5s15 -2 25 -1l28 2z" />
  </g>

</svg>
