<?xml version="1.0" standalone="no"?>
<!DOCTYPE svg PUBLIC "-//W3C//DTD SVG 1.1//EN" "http://www.w3.org/Graphics/SVG/1.1/DTD/svg11.dtd" >
<svg xmlns="http://www.w3.org/2000/svg" xmlns:xlink="http://www.w3.org/1999/xlink" version="1.1" viewBox="-10 0 667 1024">
  <g transform="matrix(1 0 0 -1 0 819)">
   <path fill="currentColor"
d="M176 351q0 -139 59 -224q59 -83 150 -83q96 1 152 56q56 56 66 108h30q-15 -79 -81 -147q-64 -66 -191 -68q-137 0 -223 93q-89 98 -89 265q0 169 93 266q93 100 229 100q83 0 128 -30q18 -12 29 -12q19 0 63 33v-233h-43q-12 89 -48 142q-36 52 -119 52q-82 0 -144 -90
q-61 -88 -61 -228zM250 -141q19 -16 53 -16q60 0 60 43q0 22 -24 31q-15 7 -56 7l23 81h45l-12 -44q89 0 89 -75q0 -80 -107 -80q-53 0 -92 15z" />
  </g>

</svg>
