<?xml version="1.0" standalone="no"?>
<!DOCTYPE svg PUBLIC "-//W3C//DTD SVG 1.1//EN" "http://www.w3.org/Graphics/SVG/1.1/DTD/svg11.dtd" >
<svg xmlns="http://www.w3.org/2000/svg" xmlns:xlink="http://www.w3.org/1999/xlink" version="1.1" viewBox="-10 0 688 1024">
  <g transform="matrix(1 0 0 -1 0 819)">
   <path fill="currentColor"
d="M280 47q109 1 173 86q65 86 65 215q0 136 -65 228q-63 90 -173 90h-84v-573q0 -46 67 -46h17zM285 710q170 -5 257 -97q87 -93 87 -262q0 -160 -87 -253q-88 -94 -257 -98h-265q73 34 73 90v530q0 56 -73 90h265zM339 765l-127 125q-1 2 -1 6q0 12 17 12h5q3 0 5 -1
l101 -57l100 57q4 1 10 1q17 0 17 -12q0 -4 -1 -6z" />
  </g>

</svg>
