<?xml version="1.0" standalone="no"?>
<!DOCTYPE svg PUBLIC "-//W3C//DTD SVG 1.1//EN" "http://www.w3.org/Graphics/SVG/1.1/DTD/svg11.dtd" >
<svg xmlns="http://www.w3.org/2000/svg" xmlns:xlink="http://www.w3.org/1999/xlink" version="1.1" viewBox="-20 0 332 1024">
  <g transform="matrix(1 0 0 -1 0 819)">
   <path fill="currentColor"
d="M212 64q-1 -127 -81 -201q-79 -73 -141 -73q60 76 88 129t31 153v548q0 56 -73 90h254q-78 -34 -78 -90v-556zM283 783q1 -2 1 -6q0 -12 -17 -12h-5q-3 0 -6 1l-100 57l-100 -57q-4 -1 -10 -1q-18 0 -18 12q0 4 1 6l127 125z" />
  </g>

</svg>
