<?xml version="1.0" standalone="no"?>
<!DOCTYPE svg PUBLIC "-//W3C//DTD SVG 1.1//EN" "http://www.w3.org/Graphics/SVG/1.1/DTD/svg11.dtd" >
<svg xmlns="http://www.w3.org/2000/svg" xmlns:xlink="http://www.w3.org/1999/xlink" version="1.1" viewBox="-10 0 558 1024">
  <g transform="matrix(1 0 0 -1 0 819)">
   <path fill="currentColor"
d="M504 710l24 -188q-70 120 -160 120h-188q-91 0 -160 -120l24 188h460zM368 383q56 0 90 54v-166q-34 48 -90 48h-188q-55 0 -90 -48v166q35 -54 90 -54h188zM44 0l-24 188q69 -120 160 -120h188q90 0 160 120l-24 -188h-460z" />
  </g>

</svg>
