<?xml version="1.0" standalone="no"?>
<!DOCTYPE svg PUBLIC "-//W3C//DTD SVG 1.1//EN" "http://www.w3.org/Graphics/SVG/1.1/DTD/svg11.dtd" >
<svg xmlns="http://www.w3.org/2000/svg" xmlns:xlink="http://www.w3.org/1999/xlink" version="1.1" viewBox="-10 0 594 1024">
  <g transform="matrix(1 0 0 -1 0 819)">
   <path fill="currentColor"
d="M358 423h-123q0 -162 -25 -258q-38 -132 -86 -167q-20 -14 -39 -14q-4 0 -9 1l-9 1q-24 7 -35 24q-6 11 -6 23q0 10 3 20q11 37 51 77q43 43 62 103q21 63 22 169q-9 40 -67 41v34h434v-34q-69 -1 -69 -57v-271q0 -80 78 -82v-33h-250v33q68 2 68 57v333z" />
  </g>

</svg>
