<?xml version="1.0" standalone="no"?>
<!DOCTYPE svg PUBLIC "-//W3C//DTD SVG 1.1//EN" "http://www.w3.org/Graphics/SVG/1.1/DTD/svg11.dtd" >
<svg xmlns="http://www.w3.org/2000/svg" xmlns:xlink="http://www.w3.org/1999/xlink" version="1.1" viewBox="-10 0 744 1024">
  <g transform="matrix(1 0 0 -1 0 819)">
   <path fill="currentColor"
d="M462 226v-178h27q100 3 100 89t-100 89h-27zM164 402q-9 40 -67 41v34h434v-34q-69 -1 -69 -57v-113h22q210 0 211 -136q0 -137 -211 -137h-204v33q78 2 78 82v308h-123q0 -162 -25 -258q-38 -132 -86 -167q-20 -14 -39 -14q-4 0 -9 1l-9 1q-24 7 -35 24q-6 11 -6 23
q0 10 3 20q11 37 51 77q43 43 62 103q21 63 22 169z" />
  </g>

</svg>
