<?xml version="1.0" standalone="no"?>
<!DOCTYPE svg PUBLIC "-//W3C//DTD SVG 1.1//EN" "http://www.w3.org/Graphics/SVG/1.1/DTD/svg11.dtd" >
<svg xmlns="http://www.w3.org/2000/svg" xmlns:xlink="http://www.w3.org/1999/xlink" version="1.1" viewBox="-15 0 531 1024">
  <g transform="matrix(1 0 0 -1 0 819)">
   <path fill="currentColor"
d="M285 259l120 -168q40 -56 101 -58v-33h-221v33q35 2 35 19q0 12 -17 38l-57 80l-58 -80q-16 -22 -16 -37q0 -18 38 -20v-33h-215v33q86 2 126 58l90 127l-120 168q-40 56 -96 58v33h221v-33q-39 -1 -39 -34l74 -103l74 104q0 32 -34 33v33h215v-33q-90 -2 -130 -58z" />
  </g>

</svg>
