<?xml version="1.0" standalone="no"?>
<!DOCTYPE svg PUBLIC "-//W3C//DTD SVG 1.1//EN" "http://www.w3.org/Graphics/SVG/1.1/DTD/svg11.dtd" >
<svg xmlns="http://www.w3.org/2000/svg" xmlns:xlink="http://www.w3.org/1999/xlink" version="1.1" viewBox="-10 0 1037 1024">
  <g transform="matrix(1 0 0 -1 0 819)">
   <path fill="currentColor"
d="M667 36q97 0 149 82q53 83 53 231q-3 149 -60 233q-58 84 -151 84q-94 0 -147 -83q-53 -82 -53 -234q3 -146 61 -229q59 -84 148 -84zM186 337v-247q0 -55 78 -90h-254q73 34 73 90v530q0 56 -73 90h254q-78 -34 -78 -90v-229h155q9 139 78 226q81 98 239 98
q169 0 250 -98q80 -100 80 -268q0 -160 -81 -259q-80 -98 -240 -98q-166 0 -247 98q-78 94 -81 247h-153z" />
  </g>

</svg>
