<?xml version="1.0" standalone="no"?>
<!DOCTYPE svg PUBLIC "-//W3C//DTD SVG 1.1//EN" "http://www.w3.org/Graphics/SVG/1.1/DTD/svg11.dtd" >
<svg xmlns="http://www.w3.org/2000/svg" xmlns:xlink="http://www.w3.org/1999/xlink" version="1.1" viewBox="-20 0 645 1024">
  <g transform="matrix(1 0 0 -1 0 819)">
   <path fill="currentColor"
d="M119 1q-11 -1 -22 -1h-14q-61 0 -66 53q0 26 20 48q22 20 51 20q35 0 51 -21q8 -9 17 -9q19 0 55 32q44 40 90 111l-232 385q-48 57 -79 58v33h232v-33q-42 -1 -42 -33q0 -10 6 -24l169 -288l130 288q5 12 5 21q0 34 -53 36v33h178v-33q-22 -2 -65 -58l-138 -300
q-143 -300 -293 -318z" />
  </g>

</svg>
