<?xml version="1.0" standalone="no"?>
<!DOCTYPE svg PUBLIC "-//W3C//DTD SVG 1.1//EN" "http://www.w3.org/Graphics/SVG/1.1/DTD/svg11.dtd" >
<svg xmlns="http://www.w3.org/2000/svg" xmlns:xlink="http://www.w3.org/1999/xlink" version="1.1" viewBox="-10 0 633 1024">
  <g transform="matrix(1 0 0 -1 0 819)">
   <path fill="currentColor"
d="M288 448q-139 0 -139 -198v-7q3 -198 143 -198q138 0 138 198v4q-3 201 -142 201zM445 52q-62 -56 -155 -56q-246 0 -246 250t246 250q106 0 167 -48l3 29h103l-48 -236q7 -178 49 -178q14 0 30 18v-34q-34 -48 -81 -48q-48 0 -68 53z" />
  </g>

</svg>
