<?xml version="1.0" standalone="no"?>
<!DOCTYPE svg PUBLIC "-//W3C//DTD SVG 1.1//EN" "http://www.w3.org/Graphics/SVG/1.1/DTD/svg11.dtd" >
<svg xmlns="http://www.w3.org/2000/svg" xmlns:xlink="http://www.w3.org/1999/xlink" version="1.1" viewBox="-10 0 943 1024">
  <g transform="matrix(1 0 0 -1 0 819)">
   <path fill="currentColor"
d="M627 278q5 46 23 77q23 42 63 42q41 0 69 -42q29 -42 102 -102q-73 -60 -102 -102q-28 -42 -69 -42q-40 0 -63 42q-18 31 -23 77h-322q-5 -45 -22 -77q-24 -42 -64 -42t-69 42q-30 44 -101 102q71 58 101 102q29 42 69 42t64 -42q17 -32 22 -77h322z" />
  </g>

</svg>
