<?xml version="1.0" standalone="no"?>
<!DOCTYPE svg PUBLIC "-//W3C//DTD SVG 1.1//EN" "http://www.w3.org/Graphics/SVG/1.1/DTD/svg11.dtd" >
<svg xmlns="http://www.w3.org/2000/svg" xmlns:xlink="http://www.w3.org/1999/xlink" version="1.1" viewBox="-10 0 486 1024">
  <g transform="matrix(1 0 0 -1 0 819)">
   <path fill="currentColor"
d="M406 149q-58 -76 -175 -76q-34 2 -56 8l-32 -84h-50l39 102q-31 18 -55 52q-54 77 -54 171q3 101 56 177q53 74 168 75q27 0 62 -7l35 95h51l-42 -112q19 -10 40 -31q38 -44 38 -82l-2 -18q-14 -47 -62 -47q-29 0 -49 20q-12 12 -16 24q-4 9 -4 21q0 27 19 46l16 14
q2 2 2 4l-1 4q-6 10 -44 12q-2 1 -5 1h-15q-51 -2 -87 -50q-33 -42 -33 -143q0 -82 20 -125q2 -5 6 -11q0 -1 1 -2l5 -8q7 -9 22 -22q30 -27 66 -27q62 0 100 53q13 18 20 37l47 -18q-15 -33 -31 -53z" />
  </g>

</svg>
