<?xml version="1.0" standalone="no"?>
<!DOCTYPE svg PUBLIC "-//W3C//DTD SVG 1.1//EN" "http://www.w3.org/Graphics/SVG/1.1/DTD/svg11.dtd" >
<svg xmlns="http://www.w3.org/2000/svg" xmlns:xlink="http://www.w3.org/1999/xlink" version="1.1" viewBox="-10 0 610 1024">
  <g transform="matrix(1 0 0 -1 0 819)">
   <path fill="currentColor"
d="M198 465q75 -25 102 -101q26 75 101 101q-76 27 -101 102q-27 -75 -102 -102zM300 -43q25 75 101 102q-75 26 -101 101q-27 -76 -102 -101q75 -27 102 -102zM325 181q38 -65 101 -100q10 8 20 8q13 0 24 -11q-6 8 -6 19q0 31 31 31t31 -31q0 -12 -6 -20q11 12 24 12
q31 0 31 -31q0 -32 -31 -32q-13 0 -24 12q6 -9 6 -19q0 -32 -31 -32t-31 32q0 10 6 19q-10 -12 -24 -12q-12 0 -21 9q-63 -34 -99 -98q5 -8 5 -16q0 -13 -11 -24q8 6 19 6q31 0 31 -31t-31 -31q-11 0 -20 6q12 -10 12 -24q0 -31 -31 -31t-31 31q0 12 11 25q-8 -7 -19 -7
q-32 0 -32 31t32 31q10 0 19 -6q-11 11 -11 24q0 12 6 19q-36 62 -99 96l-1 -1q-9 -9 -22 -9t-24 12q7 -8 7 -19q0 -32 -32 -32q-31 0 -31 32q0 11 7 19q-12 -12 -24 -12q-32 0 -32 32q0 31 32 31q12 0 24 -12q-7 7 -7 20q0 31 31 31q32 0 32 -31q0 -12 -7 -19q11 11 24 11
t22 -9q63 35 101 99v166q-38 64 -101 99q-9 -9 -22 -9t-24 11q7 -7 7 -19q0 -31 -32 -31q-31 0 -31 31q0 12 7 20q-12 -12 -24 -12q-32 0 -32 31q0 32 32 32q12 0 24 -12q-7 8 -7 19q0 32 31 32q32 0 32 -32q0 -11 -7 -19q11 12 24 12t22 -9l1 -1q63 35 99 96q-6 8 -6 19
q0 13 11 24q-9 -6 -19 -6q-32 0 -32 31t32 31q11 0 19 -7q-11 13 -11 25q0 31 31 31t31 -31q0 -13 -12 -24q9 6 20 6q31 0 31 -31t-31 -31q-11 0 -19 6q11 -11 11 -24q0 -9 -5 -17q37 -63 99 -97q9 9 21 9q14 0 24 -12q-6 9 -6 19q0 32 31 32t31 -32q0 -10 -6 -19
q11 12 24 12q31 0 31 -32q0 -31 -31 -31q-13 0 -24 12q6 -9 6 -20q0 -31 -31 -31t-31 31q0 12 6 19q-11 -11 -24 -11q-10 0 -20 8q-63 -35 -101 -100v-162z" />
  </g>

</svg>
