<?xml version="1.0" standalone="no"?>
<!DOCTYPE svg PUBLIC "-//W3C//DTD SVG 1.1//EN" "http://www.w3.org/Graphics/SVG/1.1/DTD/svg11.dtd" >
<svg xmlns="http://www.w3.org/2000/svg" xmlns:xlink="http://www.w3.org/1999/xlink" version="1.1" viewBox="-10 0 596 1024">
  <g transform="matrix(1 0 0 -1 0 819)">
   <path fill="currentColor"
d="M351 77q0 -22 -17 -39t-42 -17q-24 0 -41 17q-16 16 -16 39q0 24 16 40t41 16q26 0 42 -16q17 -17 17 -40zM351 445q0 -22 -17 -39t-42 -17q-24 0 -41 17q-16 16 -16 39q0 24 16 40t41 16q26 0 42 -16q17 -17 17 -40zM512 283v-48h-438v48h438z" />
  </g>

</svg>
