<?xml version="1.0" standalone="no"?>
<!DOCTYPE svg PUBLIC "-//W3C//DTD SVG 1.1//EN" "http://www.w3.org/Graphics/SVG/1.1/DTD/svg11.dtd" >
<svg xmlns="http://www.w3.org/2000/svg" xmlns:xlink="http://www.w3.org/1999/xlink" version="1.1" viewBox="-10 0 395 1024">
  <g transform="matrix(1 0 0 -1 0 819)">
   <path fill="currentColor"
d="M216 551q-21 -3 -70 -16q-33 -9 -33 -37q2 -60 62 -60q27 0 41 13v100zM174 708q126 -2 130 -98v-155q2 -8 9 -8l41 -17q-31 -33 -67 -34q-36 0 -53 16q-32 -16 -80 -16q-46 0 -81 21q-37 23 -41 75q0 61 66 79q64 18 121 26v42q-5 29 -28 29q-24 0 -27 -15
q-6 -23 -25 -39q-13 -10 -31 -10q-46 0 -46 42q1 29 41 46q35 16 71 16z" />
  </g>

</svg>
