<?xml version="1.0" standalone="no"?>
<!DOCTYPE svg PUBLIC "-//W3C//DTD SVG 1.1//EN" "http://www.w3.org/Graphics/SVG/1.1/DTD/svg11.dtd" >
<svg xmlns="http://www.w3.org/2000/svg" xmlns:xlink="http://www.w3.org/1999/xlink" version="1.1" viewBox="-10 0 987 1024">
  <g transform="matrix(1 0 0 -1 0 819)">
   <path fill="currentColor"
d="M246 608q0 22 -12 35q-18 23 -47 23q-27 0 -30 -9q0 -1 8 -6q25 -13 25 -34q0 -34 -45 -39q-50 5 -51 49q0 27 15 43q36 37 100 37t104 -36q34 -28 34 -70q0 -70 -52 -89q81 -15 81 -129q0 -47 -34 -84q-50 -56 -132 -56q-93 3 -127 64q-21 38 -21 65q3 56 58 56
q50 0 50 -43q0 -28 -23 -48q-9 -7 -9 -13q7 -34 64 -37q42 0 67 28q17 20 17 58q0 108 -130 109v42q90 30 90 84zM256 0l427 709h50l-427 -709h-50zM733 209q-16 -4 -32 -22q-23 -26 -23 -63q0 -85 72 -87q81 2 81 87q0 37 -23 57q-19 18 -43 24q-9 2 -19 3zM776 253
q8 3 19 17q16 20 16 50q0 69 -53 69q-19 0 -35 -19q-18 -22 -18 -50q0 -57 71 -67zM667 233q-50 42 -50 89q0 46 41 81q40 34 100 34q59 0 99 -34q41 -35 41 -81q0 -47 -48 -89q4 -1 25 -18q48 -40 48 -95q0 -135 -164 -135h-2q-165 0 -165 135q0 55 49 95q19 16 26 18z" />
  </g>

</svg>
