<?xml version="1.0" standalone="no"?>
<!DOCTYPE svg PUBLIC "-//W3C//DTD SVG 1.1//EN" "http://www.w3.org/Graphics/SVG/1.1/DTD/svg11.dtd" >
<svg xmlns="http://www.w3.org/2000/svg" xmlns:xlink="http://www.w3.org/1999/xlink" version="1.1" viewBox="-10 0 421 1024">
  <g transform="matrix(1 0 0 -1 0 819)">
   <path fill="currentColor"
d="M208 376q46 113 117 113t76 -62q0 -61 -54 -66q-48 2 -61 47q-1 6 -6 6q-29 0 -72 -102v-222q0 -55 60 -57v-33h-223v33q59 2 59 57v298q-3 47 -77 49v40l92 2q41 3 89 9v-112zM78 550v48h272v-48h-272zM264 -110q0 -20 -14 -34t-36 -14q-20 0 -34 14q-15 14 -15 34
t15 33q14 14 34 14q22 0 36 -14t14 -33z" />
  </g>

</svg>
