<?xml version="1.0" standalone="no"?>
<!DOCTYPE svg PUBLIC "-//W3C//DTD SVG 1.1//EN" "http://www.w3.org/Graphics/SVG/1.1/DTD/svg11.dtd" >
<svg xmlns="http://www.w3.org/2000/svg" xmlns:xlink="http://www.w3.org/1999/xlink" version="1.1" viewBox="-10 0 591 1024">
  <g transform="matrix(1 0 0 -1 0 819)">
   <path fill="currentColor"
d="M193 90q0 -55 65 -57v-33h-227v33q59 2 59 57v547q-3 45 -77 50v38q84 0 180 12v-320q66 75 175 75q135 0 135 -161v-241q0 -55 65 -57v-33h-223v33q56 2 56 57v237q0 102 -80 102q-68 0 -128 -77v-262zM340 -110q0 -20 -14 -34t-36 -14q-20 0 -34 14q-15 14 -15 34
t15 33q14 14 34 14q22 0 36 -14t14 -33z" />
  </g>

</svg>
