<?xml version="1.0" standalone="no"?>
<!DOCTYPE svg PUBLIC "-//W3C//DTD SVG 1.1//EN" "http://www.w3.org/Graphics/SVG/1.1/DTD/svg11.dtd" >
<svg xmlns="http://www.w3.org/2000/svg" xmlns:xlink="http://www.w3.org/1999/xlink" version="1.1" viewBox="-20 0 667 1024">
  <g transform="matrix(1 0 0 -1 0 819)">
   <path fill="currentColor"
d="M190 276h207l-103 310zM169 223l-35 -95q-6 -21 -6 -37q0 -56 69 -58v-33h-207v33q31 1 64 80l226 597h65l228 -597q33 -79 64 -80v-33h-256v33q74 0 74 58q0 15 -6 37l-31 95h-249zM265 817q0 -48 48 -48q49 0 49 48q0 20 -14 34q-15 15 -35 15t-34 -15q-14 -14 -14 -34
zM227 817q0 37 25 62t61 25q37 0 62 -25q26 -26 26 -62t-26 -62q-25 -24 -62 -24q-35 0 -61 24q-25 25 -25 62z" />
  </g>

</svg>
