<?xml version="1.0" standalone="no"?>
<!DOCTYPE svg PUBLIC "-//W3C//DTD SVG 1.1//EN" "http://www.w3.org/Graphics/SVG/1.1/DTD/svg11.dtd" >
<svg xmlns="http://www.w3.org/2000/svg" xmlns:xlink="http://www.w3.org/1999/xlink" version="1.1" viewBox="-10 0 605 1024">
  <g transform="matrix(1 0 0 -1 0 819)">
   <path fill="currentColor"
d="M191 0h-100l112 637v6q0 40 -69 44l7 38q85 0 182 12l-56 -321q80 77 175 77q122 0 122 -136q0 -32 -6 -71l-36 -197q-1 -3 -1 -7v-5q0 -19 14 -19q15 0 50 23l-6 -34q-54 -48 -114 -48q-49 0 -49 57q0 14 3 33l40 226q4 23 4 45q0 75 -63 75q-70 0 -144 -80z" />
  </g>

</svg>
