<?xml version="1.0" standalone="no"?>
<!DOCTYPE svg PUBLIC "-//W3C//DTD SVG 1.1//EN" "http://www.w3.org/Graphics/SVG/1.1/DTD/svg11.dtd" >
<svg xmlns="http://www.w3.org/2000/svg" xmlns:xlink="http://www.w3.org/1999/xlink" version="1.1" viewBox="-10 0 840 1024">
  <g transform="matrix(1 0 0 -1 0 819)">
   <path fill="currentColor"
d="M449 140q17 -88 102 -92q126 2 126 201q-3 198 -129 198q-72 0 -99 -65v-242zM83 604v33q-3 45 -77 50v38q84 0 181 12v-133h159v33q-4 46 -78 49v39q84 0 181 12v-133h128v-50h-128v-100q44 39 126 39q205 0 209 -244q0 -248 -224 -250q-66 0 -113 30l-11 8q-7 4 -11 8
q-16 -32 -50 -46l-29 16v539h-159v-464q0 -56 64 -57v-33h-227v33q59 2 59 57v464h-77v50h77z" />
  </g>

</svg>
