<?xml version="1.0" standalone="no"?>
<!DOCTYPE svg PUBLIC "-//W3C//DTD SVG 1.1//EN" "http://www.w3.org/Graphics/SVG/1.1/DTD/svg11.dtd" >
<svg xmlns="http://www.w3.org/2000/svg" xmlns:xlink="http://www.w3.org/1999/xlink" version="1.1" viewBox="-10 0 566 1000">
  <g transform="matrix(1 0 0 -1 0 800)">
   <path fill="currentColor"
d="M294 612h113l113 -612h-87l-32 163h-227l-78 -163h-88zM337 520l-131 -281h185zM273 791c23 0 41 -18 41 -41c0 -30 -26 -55 -55 -55c-23 0 -41 17 -41 41c0 29 26 55 55 55zM477 791c23 0 41 -18 41 -41c0 -30 -26 -55 -55 -55c-24 0 -42 17 -42 41c0 29 26 55 56 55z
" />
  </g>

</svg>
