<?xml version="1.0" standalone="no"?>
<!DOCTYPE svg PUBLIC "-//W3C//DTD SVG 1.1//EN" "http://www.w3.org/Graphics/SVG/1.1/DTD/svg11.dtd" >
<svg xmlns="http://www.w3.org/2000/svg" xmlns:xlink="http://www.w3.org/1999/xlink" version="1.1" viewBox="-10 0 476 1000">
  <g transform="matrix(1 0 0 -1 0 800)">
   <path fill="currentColor"
d="M400 589c-22 0 -40 16 -40 38c0 28 25 52 53 52c22 0 39 -17 39 -39c0 -28 -25 -52 -52 -51zM219 589c-22 0 -39 16 -39 38c0 28 24 52 52 52c22 0 39 -17 39 -39c0 -28 -24 -51 -52 -51zM365 0l-27 136h-187l-65 -136h-78l246 514h87l102 -514h-78zM179 203h149l-43 226
z" />
  </g>

</svg>
