<?xml version="1.0" standalone="no"?>
<!DOCTYPE svg PUBLIC "-//W3C//DTD SVG 1.1//EN" "http://www.w3.org/Graphics/SVG/1.1/DTD/svg11.dtd" >
<svg xmlns="http://www.w3.org/2000/svg" xmlns:xlink="http://www.w3.org/1999/xlink" version="1.1" viewBox="-10 0 465 1000">
  <g transform="matrix(1 0 0 -1 0 800)">
   <path fill="currentColor"
d="M260 -1h-217l73 516h181c67 0 122 -40 122 -110c0 -48 -22 -89 -58 -119c45 -19 70 -62 70 -111c0 -92 -77 -176 -171 -176zM286 455h-104l-21 -148h104c46 0 85 41 85 87c0 37 -28 61 -64 61zM284 243h-132l-25 -182h132c50 0 94 57 94 105c0 39 -27 77 -69 77z" />
  </g>

</svg>
