<?xml version="1.0" standalone="no"?>
<!DOCTYPE svg PUBLIC "-//W3C//DTD SVG 1.1//EN" "http://www.w3.org/Graphics/SVG/1.1/DTD/svg11.dtd" >
<svg xmlns="http://www.w3.org/2000/svg" xmlns:xlink="http://www.w3.org/1999/xlink" version="1.1" viewBox="-10 0 591 1000">
  <g transform="matrix(1 0 0 -1 0 800)">
   <path fill="currentColor"
d="M397 622c56 0 132 -21 172 -64l-46 -72c-32 33 -87 54 -132 54c-145 0 -254 -132 -254 -271c0 -113 72 -197 188 -197c49 0 109 23 147 54l26 -73c-49 -40 -128 -62 -190 -62c-154 0 -260 113 -260 265c0 190 154 366 349 366zM387 743l57 90h54l-78 -134h-80l-40 134h54
z" />
  </g>

</svg>
