<?xml version="1.0" standalone="no"?>
<!DOCTYPE svg PUBLIC "-//W3C//DTD SVG 1.1//EN" "http://www.w3.org/Graphics/SVG/1.1/DTD/svg11.dtd" >
<svg xmlns="http://www.w3.org/2000/svg" xmlns:xlink="http://www.w3.org/1999/xlink" version="1.1" viewBox="-10 0 537 1000">
  <g transform="matrix(1 0 0 -1 0 800)">
   <path fill="currentColor"
d="M348 15l87 -122h-99l-72 102c-10 -2 -21 -3 -31 -3c-124 0 -185 100 -185 214c0 152 104 318 270 318c124 0 194 -96 194 -214c0 -116 -53 -245 -164 -295zM428 302c0 77 -31 151 -120 151c-121 0 -176 -137 -176 -240c0 -78 33 -151 121 -151c122 0 175 136 175 240z
" />
  </g>

</svg>
