<?xml version="1.0" standalone="no"?>
<!DOCTYPE svg PUBLIC "-//W3C//DTD SVG 1.1//EN" "http://www.w3.org/Graphics/SVG/1.1/DTD/svg11.dtd" >
<svg xmlns="http://www.w3.org/2000/svg" xmlns:xlink="http://www.w3.org/1999/xlink" version="1.1" viewBox="-10 0 526 1000">
  <g transform="matrix(1 0 0 -1 0 800)">
   <path fill="currentColor"
d="M466 206c0 -128 -115 -216 -237 -216c-61 0 -144 21 -192 62l49 76c32 -27 106 -57 147 -57c66 0 142 40 142 114c0 117 -256 89 -256 247c0 127 117 190 232 190c50 0 118 -14 154 -52l-38 -66c-27 26 -81 41 -118 41c-60 0 -143 -30 -143 -102c0 -98 260 -76 260 -237z
M352 786l-53 -87h-58l78 134h80l40 -134h-57z" />
  </g>

</svg>
