<?xml version="1.0" standalone="no"?>
<!DOCTYPE svg PUBLIC "-//W3C//DTD SVG 1.1//EN" "http://www.w3.org/Graphics/SVG/1.1/DTD/svg11.dtd" >
<svg xmlns="http://www.w3.org/2000/svg" xmlns:xlink="http://www.w3.org/1999/xlink" version="1.1" viewBox="-10 0 454 1000">
  <g transform="matrix(1 0 0 -1 0 800)">
   <path fill="currentColor"
d="M38 45l42 66c39 -22 76 -48 124 -48c55 0 116 32 116 94c0 97 -214 67 -214 207c0 107 102 159 196 159c40 0 105 -12 132 -45l-33 -58c-34 20 -59 35 -100 35c-49 0 -118 -24 -118 -83c0 -86 216 -55 216 -200c0 -107 -98 -180 -199 -180c-46 0 -129 18 -162 53z
M153 -238h-1l-13 38c23 13 38 18 45 47l-5 -1c-26 0 -44 20 -44 47c0 32 31 54 62 54c33 0 46 -29 46 -58c0 -46 -42 -117 -90 -127z" />
  </g>

</svg>
