<?xml version="1.0" standalone="no"?>
<!DOCTYPE svg PUBLIC "-//W3C//DTD SVG 1.1//EN" "http://www.w3.org/Graphics/SVG/1.1/DTD/svg11.dtd" >
<svg xmlns="http://www.w3.org/2000/svg" xmlns:xlink="http://www.w3.org/1999/xlink" version="1.1" viewBox="-10 0 489 1000">
  <g transform="matrix(1 0 0 -1 0 800)">
   <path fill="currentColor"
d="M394 515h73l-43 -306c-2 -14 -4 -28 -7 -42c-20 -101 -104 -175 -208 -175c-94 0 -160 60 -160 156c0 20 3 41 6 61l43 306h74l-43 -306c-2 -15 -5 -30 -5 -46c0 -54 41 -97 96 -97c64 0 118 54 127 116zM303 662l-45 -73h-57l70 122h77l37 -122h-56z" />
  </g>

</svg>
