<?xml version="1.0" standalone="no"?>
<!DOCTYPE svg PUBLIC "-//W3C//DTD SVG 1.1//EN" "http://www.w3.org/Graphics/SVG/1.1/DTD/svg11.dtd" >
<svg xmlns="http://www.w3.org/2000/svg" xmlns:xlink="http://www.w3.org/1999/xlink" version="1.1" viewBox="-10 0 566 1000">
  <g transform="matrix(1 0 0 -1 0 800)">
   <path fill="currentColor"
d="M238 -10c-114 0 -189 74 -189 188c0 12 1 25 3 37l55 397h84l-56 -397c-1 -7 -1 -15 -1 -23c0 -68 46 -120 115 -120c80 0 144 67 155 143l56 397h83l-55 -397c-18 -127 -120 -225 -250 -225zM247 789c24 0 42 -18 42 -42c0 -29 -26 -54 -55 -54c-23 0 -41 17 -41 40
c0 29 26 56 54 56zM451 789c24 -1 42 -18 42 -42c0 -29 -26 -54 -55 -54c-24 0 -42 17 -42 41c0 29 26 55 55 55z" />
  </g>

</svg>
