<?xml version="1.0" standalone="no"?>
<!DOCTYPE svg PUBLIC "-//W3C//DTD SVG 1.1//EN" "http://www.w3.org/Graphics/SVG/1.1/DTD/svg11.dtd" >
<svg xmlns="http://www.w3.org/2000/svg" xmlns:xlink="http://www.w3.org/1999/xlink" version="1.1" viewBox="-10 0 542 1000">
  <g transform="matrix(1 0 0 -1 0 800)">
   <path fill="currentColor"
d="M216 61c42 0 81 22 111 49c-38 52 -74 105 -103 162c-51 -20 -103 -65 -103 -123c0 -53 45 -88 95 -88zM199 329c-9 22 -15 45 -15 69c0 88 89 133 166 133c27 0 78 -11 98 -31c-14 -15 -24 -36 -36 -54c-6 13 -53 21 -67 21c-38 0 -81 -28 -81 -69
c0 -58 86 -182 121 -231c29 40 48 88 55 138h69c-10 -70 -38 -139 -82 -195c28 -38 56 -76 87 -111h-101c-16 18 -31 38 -46 58c-44 -38 -100 -63 -159 -63c-83 0 -159 51 -159 140s71 162 150 195z" />
  </g>

</svg>
