<?xml version="1.0" standalone="no"?>
<!DOCTYPE svg PUBLIC "-//W3C//DTD SVG 1.1//EN" "http://www.w3.org/Graphics/SVG/1.1/DTD/svg11.dtd" >
<svg xmlns="http://www.w3.org/2000/svg" xmlns:xlink="http://www.w3.org/1999/xlink" version="1.1" viewBox="-10 0 450 1000">
  <g transform="matrix(1 0 0 -1 0 800)">
   <path fill="currentColor"
d="M113 324l-51 30c29 43 73 78 127 78c45 0 76 -30 119 -30c26 0 48 11 63 33l54 -30c-27 -39 -68 -71 -117 -71c-47 0 -77 31 -121 31c-29 0 -57 -17 -74 -41zM92 162l-51 29c29 43 74 78 128 78c44 0 75 -30 118 -30c26 0 48 12 63 33l55 -30c-27 -39 -68 -71 -117 -71
c-47 0 -77 31 -121 31c-30 0 -58 -16 -75 -40z" />
  </g>

</svg>
