<?xml version="1.0" standalone="no"?>
<!DOCTYPE svg PUBLIC "-//W3C//DTD SVG 1.1//EN" "http://www.w3.org/Graphics/SVG/1.1/DTD/svg11.dtd" >
<svg xmlns="http://www.w3.org/2000/svg" xmlns:xlink="http://www.w3.org/1999/xlink" version="1.1" viewBox="-10 0 398 1000">
  <g transform="matrix(1 0 0 -1 0 800)">
   <path fill="currentColor"
d="M294 595l18 130h62l-61 -437h-62l2 16c-24 -15 -52 -22 -80 -22c-82 0 -121 69 -121 144c0 100 64 192 171 192c25 0 50 -8 71 -23zM262 368l23 163c-13 17 -39 28 -60 28c-69 0 -105 -69 -105 -130c0 -46 19 -92 72 -92c23 0 55 14 70 31z" />
  </g>

</svg>
