<?xml version="1.0" standalone="no"?>
<!DOCTYPE svg PUBLIC "-//W3C//DTD SVG 1.1//EN" "http://www.w3.org/Graphics/SVG/1.1/DTD/svg11.dtd" >
<svg xmlns="http://www.w3.org/2000/svg" xmlns:xlink="http://www.w3.org/1999/xlink" version="1.1" viewBox="-10 0 571 1000">
  <g transform="matrix(1 0 0 -1 0 800)">
   <path fill="currentColor"
d="M356 525c123 0 187 -111 187 -223c0 -148 -92 -312 -256 -312c-50 0 -103 15 -136 55l-31 -226h-79l98 695h78l-6 -47c45 35 86 58 145 58zM326 447c-45 0 -96 -25 -126 -58l-38 -271c16 -33 77 -54 110 -54c120 0 185 121 185 228c0 82 -42 155 -131 155z" />
  </g>

</svg>
