<?xml version="1.0" standalone="no"?>
<!DOCTYPE svg PUBLIC "-//W3C//DTD SVG 1.1//EN" "http://www.w3.org/Graphics/SVG/1.1/DTD/svg11.dtd" >
<svg xmlns="http://www.w3.org/2000/svg" xmlns:xlink="http://www.w3.org/1999/xlink" version="1.1" viewBox="-10 0 418 1000">
  <g transform="matrix(1 0 0 -1 0 800)">
   <path fill="currentColor"
d="M120 423c-44 12 -71 74 -71 116c0 49 27 110 83 110c30 0 55 -24 55 -53c0 -37 -30 -69 -67 -69c-3 0 -6 0 -10 1v-4c0 -25 15 -49 39 -57zM321 423c-44 12 -71 74 -71 116c0 49 27 110 83 110c30 0 55 -24 55 -53c0 -37 -29 -69 -66 -69c-4 0 -7 0 -11 1v-4
c0 -25 15 -49 40 -57z" />
  </g>

</svg>
