<?xml version="1.0" standalone="no"?>
<!DOCTYPE svg PUBLIC "-//W3C//DTD SVG 1.1//EN" "http://www.w3.org/Graphics/SVG/1.1/DTD/svg11.dtd" >
<svg xmlns="http://www.w3.org/2000/svg" xmlns:xlink="http://www.w3.org/1999/xlink" version="1.1" viewBox="-10 0 504 1000">
  <g transform="matrix(1 0 0 -1 0 800)">
   <path fill="currentColor"
d="M187 -11c-102 0 -146 63 -146 160c0 18 2 36 4 54l43 311h80l-38 -273c-2 -18 -4 -37 -4 -56c0 -65 24 -110 95 -110c90 0 130 90 141 166l38 273h80l-72 -514h-80l12 86c-26 -54 -93 -97 -153 -97zM315 741l32 -126h-70l-51 126h89z" />
  </g>

</svg>
