<?xml version="1.0" standalone="no"?>
<!DOCTYPE svg PUBLIC "-//W3C//DTD SVG 1.1//EN" "http://www.w3.org/Graphics/SVG/1.1/DTD/svg11.dtd" >
<svg xmlns="http://www.w3.org/2000/svg" xmlns:xlink="http://www.w3.org/1999/xlink" version="1.1" viewBox="-10 0 719 1000">
  <g transform="matrix(1 0 0 -1 0 800)">
   <path fill="currentColor"
d="M405 -14q-78 0 -146 23.5t-120 67t-81 104.5t-29 135q0 69 27.5 131.5t80.5 111t127.5 77t168.5 28.5q32 0 64.5 -4.5t63 -12.5t55.5 -17q9 -4 15.5 -10.5t7.5 -18.5q4 -33 6 -64t2 -56q0 -11 -8 -15t-17.5 -0.5t-13.5 15.5q-7 23 -16.5 46t-28.5 40q-20 20 -55.5 33
t-85.5 13q-51 0 -92.5 -22t-71 -60t-45.5 -86t-16 -100q0 -66 14 -122.5t43 -97.5t71 -64t99 -23q74 0 120 31.5t77 96.5q8 18 22.5 17t14.5 -17q0 -13 -2.5 -31.5t-7.5 -39.5t-12 -43q-4 -12 -10.5 -18.5t-16.5 -11.5q-38 -16 -90 -26t-114 -10zM260 847q6 0 22.5 -5
t37.5 -13t40.5 -16t31.5 -15q7 -4 12 -4t12 4q13 7 32.5 15.5t40.5 16.5t37.5 13t23.5 5q16 0 16 -13q0 -9 -7 -16l-104 -92q-18 -15 -27.5 -22t-23.5 -7q-13 0 -23 7t-27 22l-105 93q-8 7 -8 15q0 12 19 12z" />
  </g>

</svg>
