<?xml version="1.0" standalone="no"?>
<!DOCTYPE svg PUBLIC "-//W3C//DTD SVG 1.1//EN" "http://www.w3.org/Graphics/SVG/1.1/DTD/svg11.dtd" >
<svg xmlns="http://www.w3.org/2000/svg" xmlns:xlink="http://www.w3.org/1999/xlink" version="1.1" viewBox="-10 0 657 1000">
  <g transform="matrix(1 0 0 -1 0 800)">
   <path fill="currentColor"
d="M48 -5q-7 0 -14.5 3t-7.5 11t8.5 11.5t13.5 3.5q28 3 49.5 19.5t33.5 32.5l91 125q8 12 8 21t-8 19l-114 146q-9 12 -17.5 19.5t-30.5 15.5q-7 2 -13 6t-6 11q0 6 5.5 9t10.5 3q46 0 83.5 -2.5t76.5 -2.5q26 0 51 4t60 4q6 0 14 -2.5t8 -10.5q0 -7 -5.5 -11t-16.5 -6
q-25 -4 -34.5 -12.5t-8 -17.5t8.5 -17l63 -75q7 -9 14 -11.5t14 9.5l47 84q10 15 3.5 24.5t-30.5 14.5q-8 1 -15 5.5t-7 13.5q0 5 7 8t14 3q21 0 33 -1t23 -2t29 -1q15 0 28.5 1.5t29 2.5t34.5 1q7 0 15.5 -2.5t8.5 -11.5q0 -8 -6.5 -11.5t-15.5 -5.5q-27 -7 -45.5 -16.5
t-41.5 -37.5l-87 -102q-9 -11 -6 -19.5t10 -18.5l115 -153q16 -21 31.5 -30t32.5 -14q11 -4 19 -8t8 -12q0 -6 -5 -10.5t-15 -4.5q-39 0 -68.5 2t-54 3.5t-52.5 1.5q-22 0 -46 -3t-53 -3q-5 0 -12.5 3.5t-7.5 8.5q0 8 7 11.5t13 4.5q28 3 38.5 12.5t-1.5 25.5l-78 108
q-9 13 -18.5 12t-16.5 -14l-54 -100q-11 -21 -4 -29.5t25 -13.5q11 -2 17 -7t6 -11q0 -7 -7.5 -10t-14.5 -3q-21 0 -35 1t-26 1.5t-29 0.5q-13 0 -24.5 -1t-24 -2t-30.5 -1z" />
  </g>

</svg>
