<?xml version="1.0" standalone="no"?>
<!DOCTYPE svg PUBLIC "-//W3C//DTD SVG 1.1//EN" "http://www.w3.org/Graphics/SVG/1.1/DTD/svg11.dtd" >
<svg xmlns="http://www.w3.org/2000/svg" xmlns:xlink="http://www.w3.org/1999/xlink" version="1.1" viewBox="-10 0 501 1000">
  <g transform="matrix(1 0 0 -1 0 800)">
   <path fill="currentColor"
d="M49 -3q-7 0 -11.5 5t-4.5 11q0 8 6 13t13 6q20 5 28.5 12t8.5 27v300q0 22 -7.5 32t-32.5 16q-8 2 -13 6.5t-5 11.5t5.5 11.5t12.5 4.5q12 0 29 -1t33 -2t26 -1q38 0 81.5 0.5t82.5 1t66.5 1t34.5 0.5q6 0 13 -4t7 -14q0 -23 7 -49.5t7 -46.5q0 -6 -2.5 -11t-7.5 -5
q-4 0 -9.5 4t-9.5 12q-16 36 -29.5 54t-49.5 18h-54q-14 0 -24 -8t-10 -26v-109q0 -11 5.5 -15t15.5 -4h47q17 0 27 10t19 36q4 9 8 11.5t9 2.5q4 0 7 -4.5t1 -14.5q-2 -21 -2.5 -34.5t-0.5 -30.5q0 -16 0.5 -26.5t2.5 -33.5q2 -13 -1 -18.5t-7 -5.5q-5 0 -10.5 5t-8.5 14
q-6 25 -14.5 35.5t-23.5 11.5h-30h-30q-8 0 -11 -5t-3 -11v-119q0 -15 6.5 -21.5t23.5 -6.5h67q32 0 58 23t36 54q2 8 7 11.5t9 3.5q6 0 9 -5.5t3 -11.5q-1 -25 -8 -46.5t-16 -53.5q-2 -10 -9 -15t-17 -5h-38t-62 0.5t-73 1t-74 0.5q-15 0 -36.5 -1t-42 -1.5t-34.5 -0.5z
M254 539q-9 0 -16.5 9.5t-19.5 29.5q-9 16 -20 33.5t-22 36t-20.5 36t-17.5 32.5q-8 16 -6 27.5t16 11.5q8 0 18 -8.5t23 -23.5q11 -12 26 -30t33 -38q5 -3 6.5 -3t4.5 3q19 20 34.5 38t25.5 30q13 15 23.5 23.5t16.5 8.5q10 0 14 -11t-4 -28q-7 -15 -17 -33t-21 -36
t-22 -36.5t-20 -34.5q-10 -17 -17.5 -27t-17.5 -10z" />
  </g>

</svg>
