<?xml version="1.0" standalone="no"?>
<!DOCTYPE svg PUBLIC "-//W3C//DTD SVG 1.1//EN" "http://www.w3.org/Graphics/SVG/1.1/DTD/svg11.dtd" >
<svg xmlns="http://www.w3.org/2000/svg" xmlns:xlink="http://www.w3.org/1999/xlink" version="1.1" viewBox="-10 0 811 1000">
  <g transform="matrix(1 0 0 -1 0 800)">
   <path fill="currentColor"
d="M39 -3q-7 0 -13.5 3.5t-6.5 10.5q0 16 21 21q35 8 47.5 20.5t12.5 44.5v454q0 33 -11.5 46t-46.5 22q-22 5 -22 21q0 7 6.5 11t13.5 4q23 0 47 -1t47 -2.5t43 -1.5t45.5 1t52 2t48.5 1q18 0 18 -15q0 -9 -5.5 -13t-15.5 -7q-40 -11 -53 -25t-13 -44v-180q0 -8 4.5 -11
t11.5 -3h264q13 0 13 14v180q0 30 -12.5 44t-52.5 25q-11 3 -16.5 7t-5.5 13q0 15 19 15q22 0 49 -1t53 -2t46 -1q19 0 41.5 1.5t46 2.5t46.5 1q8 0 14 -4t6 -11q0 -16 -21 -21q-36 -9 -47.5 -22.5t-11.5 -45.5v-453q0 -33 12.5 -45.5t46.5 -20.5q21 -5 21 -21
q0 -7 -6 -10.5t-13 -3.5q-21 0 -45 1.5t-48 2.5t-44 1t-45.5 -1t-52.5 -2.5t-49 -1.5q-8 0 -13 4t-5 11q0 10 5.5 13.5t15.5 6.5q38 10 52 23.5t14 42.5v187q0 8 -2.5 12.5t-9.5 4.5h-267q-14 0 -14 -16v-187q0 -28 15 -42.5t53 -24.5q10 -3 15.5 -6.5t5.5 -13.5
q0 -7 -4.5 -11t-13.5 -4q-22 0 -49 1.5t-53 2.5t-46 1t-44.5 -1t-49 -2.5t-44.5 -1.5zM257 693q-19 0 -19 12q0 9 8 15l105 94q17 16 27 22.5t23 6.5q14 0 24 -6.5t27 -22.5l104 -93q7 -6 7 -16q0 -13 -16 -13q-7 0 -23.5 5t-37.5 13t-40.5 16.5t-32.5 15.5q-7 4 -12 4
t-12 -4q-12 -7 -31.5 -15t-40.5 -16t-37.5 -13t-22.5 -5z" />
  </g>

</svg>
