<?xml version="1.0" standalone="no"?>
<!DOCTYPE svg PUBLIC "-//W3C//DTD SVG 1.1//EN" "http://www.w3.org/Graphics/SVG/1.1/DTD/svg11.dtd" >
<svg xmlns="http://www.w3.org/2000/svg" xmlns:xlink="http://www.w3.org/1999/xlink" version="1.1" viewBox="-10 0 625 1000">
  <g transform="matrix(1 0 0 -1 0 800)">
   <path fill="currentColor"
d="M51 -5q-7 0 -13 5t-6 10q0 7 5.5 11.5t12.5 5.5q21 2 30.5 10t9.5 26v286q0 21 -7 30t-35 15q-4 1 -9.5 4.5t-5.5 11.5q0 6 5.5 9t10.5 3q13 0 33 -1t39.5 -2t33.5 -1t36 1t43.5 1.5t33.5 0.5q7 0 10.5 -2.5t3.5 -8.5q0 -7 -5 -11t-11 -6q-25 -7 -33.5 -16t-8.5 -30v-123
q0 -13 8 -13q6 0 18 9.5t28 24.5q27 27 47 51.5t45 52.5q12 14 7.5 23.5t-24.5 15.5q-8 4 -14.5 8.5t-6.5 11.5q0 5 5 8t11 3q22 0 42 -1t42 -1q30 0 59.5 2t60.5 2q7 0 13.5 -2.5t6.5 -9.5t-6.5 -10.5t-13.5 -4.5q-35 -5 -59 -13.5t-45 -22.5q-16 -11 -32 -25t-31.5 -29.5
t-29.5 -30.5q-9 -9 -8 -16t6 -14l143 -167q10 -11 30 -24.5t46 -19.5q11 -3 17.5 -6.5t6.5 -11.5t-7 -12.5t-24 -4.5q-21 0 -48 1.5t-54 2.5t-48 1q-22 0 -37 -1t-28 -2t-30 -1q-4 0 -9.5 3t-5.5 7q0 8 5.5 12t12.5 5q23 4 25.5 18t-10.5 29l-79 95q-4 6 -11 10.5t-14 4.5
q-5 0 -8.5 -5t-3.5 -11q0 -28 0.5 -55t1.5 -49q1 -15 7 -23.5t28 -11.5q5 -1 12 -4.5t7 -11.5q0 -6 -6 -9.5t-14 -3.5q-35 0 -61 2.5t-47 2.5q-20 0 -40 -4t-59 -4z" />
  </g>

</svg>
