<?xml version="1.0" standalone="no"?>
<!DOCTYPE svg PUBLIC "-//W3C//DTD SVG 1.1//EN" "http://www.w3.org/Graphics/SVG/1.1/DTD/svg11.dtd" >
<svg xmlns="http://www.w3.org/2000/svg" xmlns:xlink="http://www.w3.org/1999/xlink" version="1.1" viewBox="-10 0 609 1000">
  <g transform="matrix(1 0 0 -1 0 800)">
   <path fill="currentColor"
d="M489 -147q-24 0 -48.5 13.5t-41.5 32.5q-27 30 -55.5 59.5t-58 60.5t-60.5 64.5t-63 70.5q-5 6 -8.5 3.5t-3.5 -10.5q0 -26 1 -63.5t1.5 -75t0.5 -68.5q1 -24 15 -33t42 -16q7 -1 14.5 -4.5t7.5 -11.5q0 -10 -21 -10q-19 0 -31 0.5t-22.5 0.5h-26.5t-28 -0.5t-21.5 -1
t-18.5 -0.5q-20 0 -20 10q0 7 6 11t14 6q12 3 18.5 10.5t9.5 18t4 22.5q2 22 4.5 61.5t4 89t1.5 101.5q0 32 -15.5 47t-41.5 22q-8 2 -13 5t-5 9q0 11 18 11q12 0 40.5 -1t61.5 -2t55 -1q7 0 11.5 -2.5t8.5 -6.5q43 -46 85 -90.5t79.5 -84.5t64.5 -72q6 -8 9.5 -5.5t3.5 6.5
q0 5 -0.5 16.5t-1 29t-1.5 39.5t-1.5 47t-0.5 51q-1 22 -11.5 31t-39.5 18q-5 2 -11 4.5t-6 8.5q0 5 5.5 8.5t10.5 3.5q32 0 47.5 -1t34.5 -1t32.5 1t38.5 1q17 0 17 -11q0 -6 -5 -9t-13 -5q-24 -4 -35 -12.5t-11 -29.5v-88v-58v-40.5v-35.5v-43v-64q0 -23 -8 -30t-19 -7z
" />
  </g>

</svg>
