<?xml version="1.0" standalone="no"?>
<!DOCTYPE svg PUBLIC "-//W3C//DTD SVG 1.1//EN" "http://www.w3.org/Graphics/SVG/1.1/DTD/svg11.dtd" >
<svg xmlns="http://www.w3.org/2000/svg" xmlns:xlink="http://www.w3.org/1999/xlink" version="1.1" viewBox="-10 0 819 1000">
  <g transform="matrix(1 0 0 -1 0 800)">
   <path fill="currentColor"
d="M680 -19q-13 0 -42 15.5t-60 54.5q-24 25 -50 54t-55 60t-58.5 63t-58.5 63.5t-58 62.5t-55 60t-50 54q-2 4 -6.5 7.5t-6.5 3.5q-4 0 -5.5 -7t-1.5 -12q-1 -46 0 -108t2.5 -125.5t1.5 -115.5q0 -32 20 -50.5t59 -28.5q11 -2 19.5 -6.5t8.5 -13.5q0 -7 -8 -11t-17 -4
q-27 0 -44 1.5t-31.5 2t-35.5 0.5q-22 0 -41.5 -1t-33 -2t-18.5 -1q-7 0 -15.5 3.5t-8.5 10.5q0 9 8 13t18 8q24 9 36.5 30t14.5 52q4 37 8.5 98t8.5 137.5t4 158.5q0 52 -26.5 75t-64.5 37q-8 2 -18 7.5t-10 14.5t8 12.5t18 3.5q18 0 40.5 -1t47.5 -1.5t52 -1.5t54 -1
q8 0 12.5 -3t8.5 -8q22 -25 47.5 -54t53.5 -60.5t57 -64t57.5 -65.5t56 -64t53.5 -60t48 -54q3 -4 7.5 -8.5t8.5 -4.5q8 0 8 15q0 31 0.5 72t0.5 87t-0.5 91t-2.5 83q-1 27 -20.5 40.5t-53.5 22.5q-11 2 -19 7t-8 14q0 7 8 10.5t17 3.5q23 0 39 -0.5t29 -0.5h29q20 0 34 0.5
t30.5 1.5t42.5 1q12 0 18.5 -4t6.5 -11q0 -15 -26 -20q-35 -7 -50 -20t-16 -42q0 -36 -0.5 -77t-2.5 -84t-3.5 -85.5t-2.5 -81.5t-1 -72q0 -23 3 -50.5t5.5 -50t2.5 -31.5q0 -25 -7.5 -35t-20.5 -10zM377 682q-12 2 -12 9t11 21q25 33 50.5 64t54.5 61q13 14 34 12
q8 -1 25.5 -7t32.5 -14t13 -17q-2 -10 -19 -22q-38 -25 -82 -50t-83 -49q-9 -5 -16 -7t-9 -1z" />
  </g>

</svg>
