<?xml version="1.0" standalone="no"?>
<!DOCTYPE svg PUBLIC "-//W3C//DTD SVG 1.1//EN" "http://www.w3.org/Graphics/SVG/1.1/DTD/svg11.dtd" >
<svg xmlns="http://www.w3.org/2000/svg" xmlns:xlink="http://www.w3.org/1999/xlink" version="1.1" viewBox="-10 0 482 1000">
  <g transform="matrix(1 0 0 -1 0 800)">
   <path fill="currentColor"
d="M48 276q-18 0 -18 12t18 15q27 4 33.5 11t6.5 26v296q0 16 -7.5 24t-30.5 11q-18 3 -18 15t17 12q16 0 34 -0.5t36 -2t32 -1.5q18 0 31 1.5t30 3.5t46 2q62 0 104.5 -14t64.5 -43t22 -75q0 -41 -20.5 -75t-59.5 -54.5t-97 -20.5q-36 0 -38 18q-2 6 2 9.5t9 3.5
q10 0 14.5 -1t11.5 -1q27 0 39.5 30.5t12.5 75.5q0 40 -7.5 65t-22.5 36t-35 11t-30 -8.5t-10 -26.5l-1 -287q0 -21 9.5 -27.5t42.5 -13.5q7 -1 12 -4t5 -10q0 -12 -17 -12q-14 0 -37 1t-44.5 1h-36.5q-22 0 -51 -1.5t-52 -1.5z" />
  </g>

</svg>
