<?xml version="1.0" standalone="no"?>
<!DOCTYPE svg PUBLIC "-//W3C//DTD SVG 1.1//EN" "http://www.w3.org/Graphics/SVG/1.1/DTD/svg11.dtd" >
<svg xmlns="http://www.w3.org/2000/svg" xmlns:xlink="http://www.w3.org/1999/xlink" version="1.1" viewBox="-10 0 1702 1000">
  <g transform="matrix(1 0 0 -1 0 800)">
   <path fill="currentColor"
d="M1201 -324q-111 0 -223 24t-216 64t-194 86q-110 58 -193 101t-131 60q-33 11 -71 34t-70.5 59.5t-53 88.5t-20.5 122q0 68 22.5 130.5t67.5 111.5t111.5 78t153.5 29q70 0 132.5 -23.5t110.5 -67t76 -104t28 -134.5q0 -69 -21 -129t-64.5 -106.5t-109.5 -75.5
q-10 -5 -10 -11q0 -4 1.5 -6.5t5.5 -4.5q42 -21 114 -61t160 -82q71 -33 148 -62t157 -47t158 -18q34 0 78 5t91.5 21t94 46t84.5 79q12 15 26.5 14t25 -12t12 -25.5t-14.5 -27.5q-66 -54 -140 -88.5t-156 -51t-170 -16.5zM387 39q88 0 132.5 71.5t44.5 191.5
q0 90 -22 160.5t-65 110.5t-106 40q-93 0 -134 -69.5t-41 -195.5q0 -91 22 -160.5t64.5 -109t104.5 -39.5z" />
  </g>

</svg>
