<?xml version="1.0" standalone="no"?>
<!DOCTYPE svg PUBLIC "-//W3C//DTD SVG 1.1//EN" "http://www.w3.org/Graphics/SVG/1.1/DTD/svg11.dtd" >
<svg xmlns="http://www.w3.org/2000/svg" xmlns:xlink="http://www.w3.org/1999/xlink" version="1.1" viewBox="-10 0 904 1000">
  <g transform="matrix(1 0 0 -1 0 800)">
   <path fill="currentColor"
d="M729 -248q-59 0 -122.5 20.5t-115.5 56.5q-37 27 -67.5 49.5t-65.5 54.5q-21 18 -48.5 41t-65.5 37q-33 12 -70.5 35t-70 59t-53.5 88t-21 122q0 68 22.5 130.5t67.5 111.5t111.5 78t153.5 29q70 0 132.5 -23.5t110.5 -67t76 -104t28 -134.5q0 -69 -23.5 -132.5
t-70.5 -113t-116 -76.5q-11 -3 -11 -11q0 -5 5 -9q24 -23 47.5 -44t60.5 -52q50 -39 92 -56t84 -17q11 0 20 0.5t15 1.5q6 2 11.5 2.5t11.5 0.5q27 0 27 -20q0 -9 -4.5 -15.5t-15.5 -13.5q-21 -14 -56 -21t-79 -7zM393 34q86 0 129 67t43 183q0 63 -11.5 122.5t-36 106
t-62.5 74t-90 27.5q-85 0 -128 -66.5t-43 -180.5q0 -64 12 -123.5t36 -106.5t61.5 -75t89.5 -28z" />
  </g>

</svg>
