<?xml version="1.0" standalone="no"?>
<!DOCTYPE svg PUBLIC "-//W3C//DTD SVG 1.1//EN" "http://www.w3.org/Graphics/SVG/1.1/DTD/svg11.dtd" >
<svg xmlns="http://www.w3.org/2000/svg" xmlns:xlink="http://www.w3.org/1999/xlink" version="1.1" viewBox="-10 0 413 1000">
  <g transform="matrix(1 0 0 -1 0 800)">
   <path fill="currentColor"
d="M190 -10q-32 0 -61.5 5.5t-56.5 17.5q-7 4 -11.5 8.5t-7.5 8.5q-7 15 -10.5 30t-4.5 34.5t-1 44.5q0 9 6 16.5t12 7.5q12 0 18 -8t9 -14q13 -31 30 -55t38 -37.5t48 -13.5q32 0 44.5 17t12.5 32q0 19 -10.5 32t-40.5 29l-64 37q-38 21 -62.5 48t-24.5 74q0 43 26 71.5
t66.5 42.5t82.5 14q29 0 56 -4.5t44 -11.5q11 -3 15 -6.5t8 -16.5q4 -14 4 -33v-49q0 -6 -5.5 -11.5t-12.5 -5.5q-6 0 -13.5 5.5t-8.5 12.5q-8 42 -33 61t-55 19q-29 0 -43 -13.5t-14 -28.5q0 -16 11 -32.5t38 -31.5l76 -44q38 -21 57 -50.5t19 -66.5q0 -33 -20 -63.5
t-60.5 -51t-100.5 -20.5z" />
  </g>

</svg>
