<?xml version="1.0" standalone="no"?>
<!DOCTYPE svg PUBLIC "-//W3C//DTD SVG 1.1//EN" "http://www.w3.org/Graphics/SVG/1.1/DTD/svg11.dtd" >
<svg xmlns="http://www.w3.org/2000/svg" xmlns:xlink="http://www.w3.org/1999/xlink" version="1.1" viewBox="-10 0 390 1000">
  <g transform="matrix(1 0 0 -1 0 800)">
   <path fill="currentColor"
d="M175 1q-32 0 -63 8t-52 17q-9 5 -15 10.5t-8 14.5q-5 19 -7.5 44t-2.5 59q0 7 6 9.5t12 2.5q7 0 12.5 -3.5t7.5 -10.5q9 -27 25 -51.5t39 -40t55 -15.5q28 0 43 12t15 30q0 25 -20 42t-62 37q-29 14 -57 31.5t-46 44t-18 66.5t24 68t63 43.5t85 15.5q28 0 55.5 -5
t43.5 -11q10 -4 14.5 -9.5t5.5 -12.5q2 -15 3.5 -35.5t1.5 -48.5q0 -6 -4.5 -9.5t-12.5 -3.5q-6 0 -11.5 4.5t-7.5 10.5q-11 41 -35.5 59t-54.5 18q-24 0 -42.5 -9.5t-18.5 -31.5q0 -23 24.5 -39.5t67.5 -41.5q40 -22 64 -42t34.5 -42.5t10.5 -54.5q0 -40 -20.5 -69.5
t-59.5 -45t-94 -15.5z" />
  </g>

</svg>
