<?xml version="1.0" standalone="no"?>
<!DOCTYPE svg PUBLIC "-//W3C//DTD SVG 1.1//EN" "http://www.w3.org/Graphics/SVG/1.1/DTD/svg11.dtd" >
<svg xmlns="http://www.w3.org/2000/svg" xmlns:xlink="http://www.w3.org/1999/xlink" version="1.1" viewBox="-10 0 592 1000">
  <g transform="matrix(1 0 0 -1 0 800)">
   <path fill="currentColor"
d="M292 -16q-6 0 -11.5 7t-11.5 20t-15 29l-166 336q-6 12 -12 20.5t-16.5 14.5t-27.5 10q-5 2 -9.5 5.5t-4.5 11.5q0 6 4 10t8 4q18 0 41 -0.5t44 -1.5t35 -1q16 0 41.5 1.5t53 2.5t48.5 1q8 0 14 -4.5t6 -10.5q0 -7 -7 -11.5t-13 -6.5q-19 -4 -27.5 -8t-8.5 -12
q0 -11 5 -26l73 -191q7 -17 11.5 -14.5t9.5 17.5l71 180q2 6 3 13.5t1 12.5q0 14 -10 21t-28 7q-7 1 -14.5 6.5t-7.5 12.5q0 5 7.5 9t13.5 4q21 0 34.5 -0.5t25 -1.5t24.5 -1q11 0 19.5 1.5t17.5 2.5t24 1q8 0 15.5 -3t7.5 -12q0 -8 -7 -10t-11 -4q-21 -6 -34.5 -15.5
t-20.5 -26.5q-26 -61 -54.5 -127t-54.5 -124t-47 -98q-7 -14 -13.5 -25.5t-12.5 -18.5t-13 -7z" />
  </g>

</svg>
