<?xml version="1.0" standalone="no"?>
<!DOCTYPE svg PUBLIC "-//W3C//DTD SVG 1.1//EN" "http://www.w3.org/Graphics/SVG/1.1/DTD/svg11.dtd" >
<svg xmlns="http://www.w3.org/2000/svg" xmlns:xlink="http://www.w3.org/1999/xlink" version="1.1" viewBox="-10 0 528 1000">
  <g transform="matrix(1 0 0 -1 0 800)">
   <path fill="currentColor"
d="M148 446q-10 0 -15 4t-5 8q0 6 6.5 10t13.5 5q28 4 36.5 16.5t8.5 30.5v70q0 28 -5 41.5t-18 32.5l-102 150q-10 14 -18.5 20.5t-23.5 10.5q-6 3 -12 5t-6 8q0 11 16 11q36 0 63.5 -2.5t60.5 -2.5q27 0 50 3t52 3q18 0 18 -10q0 -6 -6 -9.5t-12 -4.5q-22 -5 -32 -11
t-10 -19q0 -11 7 -22l62 -100q3 -4 5.5 -6.5t5.5 -2.5q4 0 7 3.5t5 7.5q12 20 20 31t16.5 23t20.5 34q14 26 8 43.5t-35 17.5q-7 1 -14 4.5t-7 9.5q0 10 20 10q22 0 41 -1t40 -1q22 0 38 2.5t39 2.5q8 0 14.5 -2t6.5 -9t-5 -9.5t-14 -4.5q-22 -6 -36 -16t-20 -18
q-14 -20 -31 -46.5t-32.5 -52.5t-28.5 -44q-10 -15 -13.5 -29t-3.5 -34v-86q0 -25 9 -33t36 -15q8 -2 14 -4.5t6 -10.5q0 -11 -18 -11q-14 0 -35.5 1t-43 2.5t-35.5 1.5q-13 0 -33 -1.5t-40.5 -3t-35.5 -1.5z" />
  </g>

</svg>
