<?xml version="1.0" standalone="no"?>
<!DOCTYPE svg PUBLIC "-//W3C//DTD SVG 1.1//EN" "http://www.w3.org/Graphics/SVG/1.1/DTD/svg11.dtd" >
<svg xmlns="http://www.w3.org/2000/svg" xmlns:xlink="http://www.w3.org/1999/xlink" version="1.1" viewBox="-10 0 548 1000">
  <g transform="matrix(1 0 0 -1 0 800)">
   <path fill="currentColor"
d="M141 430q-25 0 -51.5 10t-44 29.5t-17.5 49.5q0 35 26 69t74 56l13 6l-5 5q-9 10 -26 29t-17 46q0 31 32.5 53.5t85.5 22.5q42 0 71 -18t29 -47t-17 -45.5t-49 -27.5l-15 -5l12 -12q18 -15 34 -31.5t33 -32.5l12 -11l8 7q19 15 31 30t13 27q1 9 -4 12.5t-11 5.5
q-5 3 -9 6.5t-6 8.5q0 6 4.5 8t11.5 2q15 0 31 -2.5t34 -2.5q20 0 44.5 6.5t39.5 6.5q5 0 7.5 -2.5t2.5 -4.5q0 -14 -21 -18t-36.5 -13.5t-26.5 -21.5q-12 -12 -26 -24.5t-27 -24.5l-26 -24l-11 -10l9 -10q20 -23 37 -40.5t39 -17.5q11 0 22 4t26 11q4 2 8 2.5t7 0.5
q6 0 9 -3.5t3 -10.5q-3 -10 -16.5 -22.5t-36 -21.5t-53.5 -9q-38 0 -60.5 13t-47.5 40l-8 8l-3 -3q-29 -30 -65 -44.5t-73 -14.5zM188 489q17 0 33.5 6t31.5 18l5 4l-8 9q-21 24 -42 47.5t-44 47.5l-8 10l-11 -8q-17 -8 -24.5 -22.5t-7.5 -33.5q0 -36 21 -57t54 -21z
M214 682l7 6q10 6 14.5 20.5t4.5 29.5q0 18 -7 32t-25 14q-11 0 -20.5 -9.5t-9.5 -23.5q0 -26 11 -41t16 -20z" />
  </g>

</svg>
