<?xml version="1.0" standalone="no"?>
<!DOCTYPE svg PUBLIC "-//W3C//DTD SVG 1.1//EN" "http://www.w3.org/Graphics/SVG/1.1/DTD/svg11.dtd" >
<svg xmlns="http://www.w3.org/2000/svg" xmlns:xlink="http://www.w3.org/1999/xlink" version="1.1" viewBox="-10 0 555 1000">
  <g transform="matrix(1 0 0 -1 0 800)">
   <path fill="currentColor"
d="M365 99q-23 0 -46 9.5t-46 21.5q-25 12 -51 22.5t-54 10.5q-26 0 -50 -14t-39.5 -28.5t-18.5 -14.5q-7 0 -14.5 12.5t-7.5 17.5q0 13 11.5 33.5t31 41t44 34t50.5 13.5q24 0 48 -9.5t48 -21.5q26 -13 52.5 -23.5t52.5 -10.5q20 0 38.5 9t33.5 20.5t25 20.5t12 9
q10 0 16 -10.5t6 -20.5q0 -14 -12.5 -34.5t-33 -40.5t-46 -33.5t-50.5 -13.5zM365 272q-23 0 -46 9.5t-46 21.5q-25 12 -51 22.5t-54 10.5q-26 0 -50 -14t-39.5 -28.5t-18.5 -14.5q-7 0 -14.5 12.5t-7.5 17.5q0 13 11.5 33.5t31 41t44 34t50.5 13.5q24 0 48 -9.5t48 -21.5
q26 -13 52.5 -23.5t52.5 -10.5q20 0 38.5 9t33.5 20.5t25 20.5t12 9q10 0 16 -10.5t6 -20.5q0 -14 -12.5 -34.5t-33 -40.5t-46 -33.5t-50.5 -13.5z" />
  </g>

</svg>
