<?xml version="1.0" standalone="no"?>
<!DOCTYPE svg PUBLIC "-//W3C//DTD SVG 1.1//EN" "http://www.w3.org/Graphics/SVG/1.1/DTD/svg11.dtd" >
<svg xmlns="http://www.w3.org/2000/svg" xmlns:xlink="http://www.w3.org/1999/xlink" version="1.1" viewBox="-10 0 1021 1000">
  <g transform="matrix(1 0 0 -1 0 800)">
   <path fill="currentColor"
d="M312 486q7 0 7 -11q0 -4 -1.5 -7.5t-3.5 -6.5q-24 -39 -41 -64t-30.5 -43t-26.5 -33h741q7 0 11.5 -5t4.5 -9q0 -7 -3 -17.5t-9.5 -19t-16.5 -8.5h-734q17 -17 32 -35t31.5 -45t39.5 -68q6 -13 5.5 -20t-6.5 -7q-11 0 -21 7.5t-14 11.5q-29 27 -52 46.5t-45.5 37t-52 36
t-72.5 44.5q-21 9 -21 21q0 7 4 11.5t14 9.5q40 20 70 36.5t54 33.5t48 37t53 48q4 4 14 11.5t21 7.5z" />
  </g>

</svg>
