<?xml version="1.0" standalone="no"?>
<!DOCTYPE svg PUBLIC "-//W3C//DTD SVG 1.1//EN" "http://www.w3.org/Graphics/SVG/1.1/DTD/svg11.dtd" >
<svg xmlns="http://www.w3.org/2000/svg" xmlns:xlink="http://www.w3.org/1999/xlink" version="1.1" viewBox="-10 0 746 1000">
  <g transform="matrix(1 0 0 -1 0 800)">
   <path fill="currentColor"
d="M362 -84q-61 0 -119.5 17.5t-106 52.5t-75 85t-27.5 114q0 81 33.5 141t89 100.5t123.5 60.5t135 20q72 0 126 -21t90 -56.5t53.5 -80t17.5 -90.5q0 -50 -23.5 -93.5t-67.5 -70t-105 -26.5q-25 0 -38 9t-19.5 18t-13.5 9q-5 0 -20.5 -9.5t-40 -19.5t-56.5 -10
q-50 0 -85 28.5t-35 80.5q0 62 28 107.5t74 70.5t101 25q17 0 34.5 -4t27.5 -6q8 -1 15 -4t9 -3q7 0 12.5 11t12.5 11q2 0 11.5 -1t19 -2.5t8.5 -4.5q-6 -19 -13.5 -45t-9.5 -40l-22 -131q-1 -5 -1.5 -10.5t-0.5 -10.5q0 -10 3.5 -17.5t14.5 -7.5q33 0 57 18t37.5 48
t13.5 66q0 42 -12 81.5t-38.5 71.5t-70.5 51t-107 19q-64 0 -115.5 -21.5t-89 -59t-57.5 -85.5t-20 -100q0 -75 32 -129.5t92.5 -84.5t146.5 -30q37 0 70 9t62.5 24t52.5 31q8 5 15 9.5t13 4.5q11 0 15.5 -2t4.5 -9q0 -15 -23.5 -33.5t-62 -35.5t-85 -28.5t-91.5 -11.5z
M357 113q14 0 24.5 4.5t21.5 12.5q8 6 12 15.5t8 28.5l17 96q1 2 1 5.5v5.5q0 25 -16.5 40.5t-41.5 15.5q-34 0 -61 -35.5t-27 -99.5q0 -48 20 -68.5t42 -20.5z" />
  </g>

</svg>
