<?xml version="1.0" standalone="no"?>
<!DOCTYPE svg PUBLIC "-//W3C//DTD SVG 1.1//EN" "http://www.w3.org/Graphics/SVG/1.1/DTD/svg11.dtd" >
<svg xmlns="http://www.w3.org/2000/svg" xmlns:xlink="http://www.w3.org/1999/xlink" version="1.1" viewBox="-10 0 366 1000">
  <g transform="matrix(1 0 0 -1 0 800)">
   <path fill="currentColor"
d="M203 -133q16 0 25 2.5t12 13t3 35.5l3 523q0 26 -3 36.5t-12 13t-26 2.5l-171 -1q-8 0 -15.5 -2.5t-7.5 -13.5t13 -15t22 -6l85 -11q9 -1 14 -8t5 -15l-3 -477q0 -8 -4.5 -14.5t-13.5 -8.5l-81 -13q-13 -1 -25 -6t-12 -14q0 -11 6.5 -15.5t14.5 -4.5z" />
  </g>

</svg>
