<?xml version="1.0" standalone="no"?>
<!DOCTYPE svg PUBLIC "-//W3C//DTD SVG 1.1//EN" "http://www.w3.org/Graphics/SVG/1.1/DTD/svg11.dtd" >
<svg xmlns="http://www.w3.org/2000/svg" xmlns:xlink="http://www.w3.org/1999/xlink" version="1.1" viewBox="-10 0 271 1000">
  <g transform="matrix(1 0 0 -1 0 800)">
   <path fill="currentColor"
d="M226 190q-38 0 -73.5 8.5t-57 26t-18.5 45.5q2 19 3.5 51t1.5 55t-5.5 33t-15 14.5t-21.5 8.5q-8 4 -15 6.5t-7 10.5q0 9 8 13.5t15 6.5q11 6 20 10t14.5 13.5t5.5 31.5q0 24 -1.5 54.5t-4.5 51.5q-2 29 19.5 46.5t56.5 25.5t73 8q7 0 12.5 -4t5.5 -11q0 -8 -8 -10.5
t-17 -2.5q-33 0 -48 -11.5t-15 -39.5q0 -6 1.5 -24.5t3.5 -38.5t2 -32q0 -22 -11 -40t-30 -30t-45 -14q-4 -1 2 -3q25 -5 44 -16.5t30 -28.5t11 -39q0 -11 -1.5 -31.5t-3 -39t-1.5 -25.5q0 -28 15 -39t48 -11q7 0 16 -2.5t9 -10.5q0 -6 -5.5 -11t-12.5 -5z" />
  </g>

</svg>
