<?xml version="1.0" standalone="no"?>
<!DOCTYPE svg PUBLIC "-//W3C//DTD SVG 1.1//EN" "http://www.w3.org/Graphics/SVG/1.1/DTD/svg11.dtd" >
<svg xmlns="http://www.w3.org/2000/svg" xmlns:xlink="http://www.w3.org/1999/xlink" version="1.1" viewBox="-10 0 949 1000">
  <g transform="matrix(1 0 0 -1 0 800)">
   <path fill="currentColor"
d="M211 -14q-53 0 -95.5 28.5t-67 77t-24.5 109.5q0 65 30 117t80.5 83t112.5 31q82 0 136 -54q9 -10 9 -18q0 -6 -9 -17.5t-20 -20.5t-19 -9q-9 0 -17.5 5.5t-16.5 12.5q-26 22 -52.5 35.5t-45.5 13.5q-38 0 -57.5 -31.5t-19.5 -102.5q0 -49 15.5 -84.5t44.5 -54.5t70 -19
q30 0 52 9.5t46 29.5q5 3 8.5 6t8.5 3q12 0 12 -16q0 -4 -1.5 -11.5t-6.5 -16.5q-9 -20 -34.5 -45t-60.5 -43t-78 -18zM409 -3q-20 0 -20 14q0 8 6 12.5t17 7.5q15 5 26.5 11t11.5 28v480q0 28 -7 47.5t-32 24.5q-11 2 -11 15t10 15q25 5 54.5 14.5t56.5 20t42 15.5
q8 3 13 3q6 0 8 -3.5t2 -8.5q0 -8 -2.5 -27t-3.5 -42l1 -374q0 -12 9 -12q3 0 7.5 2.5t8.5 5.5q37 32 66 65t39 48q4 6 6.5 10t2.5 7q0 5 -8 10.5t-24 7.5q-12 2 -12 11t7.5 11.5t14.5 2.5h49q18 0 47 1.5t57 4.5t40 3q11 0 11 -11q0 -8 -6 -13.5t-17 -7.5q-17 -4 -40 -14
t-46 -23q-17 -9 -36.5 -22.5t-38 -28.5t-33.5 -29q-5 -5 -5 -11q0 -3 2 -5.5t4 -5.5q24 -31 46 -61t44 -57.5t45 -54.5q17 -18 41 -33t40 -21q8 -3 17.5 -7t9.5 -12q0 -14 -22 -14q-60 0 -117.5 1.5t-107.5 1.5q-20 0 -20 14q0 8 6 12t16 8q9 3 12.5 7t4.5 9q0 4 -3.5 9.5
t-8.5 12.5l-97 134q-3 2 -5 2q-6 -1 -6 -7v-31v-31v-34.5v-35.5t7.5 -24.5t22.5 -12.5q8 -3 14.5 -7.5t6.5 -12.5q0 -7 -5.5 -11t-12.5 -4q-20 0 -36.5 1.5t-31.5 2.5t-33 1q-17 0 -33.5 -1t-33.5 -2.5t-37 -1.5z" />
  </g>

</svg>
