<?xml version="1.0" standalone="no"?>
<!DOCTYPE svg PUBLIC "-//W3C//DTD SVG 1.1//EN" "http://www.w3.org/Graphics/SVG/1.1/DTD/svg11.dtd" >
<svg xmlns="http://www.w3.org/2000/svg" xmlns:xlink="http://www.w3.org/1999/xlink" version="1.1" viewBox="-10 0 379 1000">
  <g transform="matrix(1 0 0 -1 0 800)">
   <path fill="currentColor"
d="M186 160q-13 0 -15.5 11t-4.5 21q0 39 -3.5 83t-8 83.5t-9.5 63.5q-1 9 -7.5 18t-6.5 11q0 11 8 16.5t16.5 13.5t8.5 24q0 5 -3.5 9t-12.5 4q-18 0 -28 -5.5t-20.5 -10.5t-32.5 -5q-20 0 -29.5 11t-9.5 26q0 16 11 26.5t28 10.5q23 0 34 -5t22 -10.5t33 -5.5q4 0 8 1t4 4
q0 22 -6 35t-12 25.5t-6 32.5q0 15 12.5 24.5t29.5 9.5t29.5 -8.5t12.5 -25.5q0 -19 -6 -31.5t-12 -25.5t-6 -33q0 -8 9 -8q23 0 34.5 5.5t22.5 10.5t32 5q16 0 27.5 -11t11.5 -26t-9.5 -26t-29.5 -11t-31 5t-21 10.5t-28 5.5q-7 0 -11 -3.5t-4 -7.5q0 -16 7.5 -24t16 -14.5
t8.5 -16.5q0 -2 -5 -12t-8 -22q-5 -22 -10 -60.5t-8.5 -82t-3.5 -82.5q0 -10 -2.5 -21.5t-15.5 -11.5z" />
  </g>

</svg>
