<?xml version="1.0" standalone="no"?>
<!DOCTYPE svg PUBLIC "-//W3C//DTD SVG 1.1//EN" "http://www.w3.org/Graphics/SVG/1.1/DTD/svg11.dtd" >
<svg xmlns="http://www.w3.org/2000/svg" xmlns:xlink="http://www.w3.org/1999/xlink" version="1.1" viewBox="-10 0 567 1000">
  <g transform="matrix(1 0 0 -1 0 800)">
   <path fill="currentColor"
d="M348 -19q-4 0 -4 1v3q0 10 2.5 30.5t2.5 35.5v6q-15 -23 -48.5 -47t-83.5 -24q-62 0 -105 30.5t-65.5 77t-22.5 95.5q0 63 29 115t82.5 82.5t127.5 30.5q13 0 25.5 -2t23.5 -6t16 -7q4 -2 6.5 -4t3.5 -2q4 0 4 14v140q0 29 -7 47.5t-32 24.5q-12 3 -12 15q0 13 11 15
q39 8 78.5 21t62.5 23q10 5 16 7t8 2q6 0 8.5 -3.5t2.5 -8.5q0 -7 -2 -26t-3 -43l-5 -504q0 -34 5 -49t18 -15q8 0 19 1t18 2q6 1 11 -3.5t5 -13.5t-5 -14t-10 -5q-46 -5 -86.5 -15.5t-67.5 -20.5q-3 -1 -12 -3.5t-15 -2.5zM268 51q31 0 52.5 23t21.5 58v147
q0 23 -11.5 43.5t-31.5 34.5t-46 14q-14 0 -29.5 -8t-29 -26.5t-22.5 -48t-9 -73.5q0 -52 11.5 -84.5t29 -50t35.5 -23.5t29 -6zM210 486q-12 0 -17 9.5t-5 18.5q0 13 8 20.5t20 7.5h309q9 0 15.5 -5t6.5 -12q0 -1 -0.5 -2t-0.5 -3q-4 -12 -14 -23t-26 -11h-296z" />
  </g>

</svg>
