<?xml version="1.0" standalone="no"?>
<!DOCTYPE svg PUBLIC "-//W3C//DTD SVG 1.1//EN" "http://www.w3.org/Graphics/SVG/1.1/DTD/svg11.dtd" >
<svg xmlns="http://www.w3.org/2000/svg" xmlns:xlink="http://www.w3.org/1999/xlink" version="1.1" viewBox="-10 0 354 1000">
  <g transform="matrix(1 0 0 -1 0 800)">
   <path fill="currentColor"
d="M131 -61q-9 0 -13.5 6t-3.5 13l4 25q1 11 -10 14q-17 4 -28 7.5t-26 11.5q-5 3 -8.5 7t-5.5 8q-4 11 -7 26t-4.5 31.5t-0.5 33.5q0 5 4.5 6.5t9.5 1.5q12 0 16 -7q6 -17 14.5 -33.5t20 -30t26.5 -23.5q6 -4 7 3l13 110q1 7 -1 11.5t-8 7.5q-23 13 -43.5 27.5t-33.5 36
t-13 53.5q0 31 18.5 56.5t49.5 41t70 15.5q7 1 9 9l1 12q1 6 9 9.5t18 3.5q17 0 11 -19l-1 -8q-1 -3 1.5 -5t3.5 -2q17 -2 25.5 -5.5t18.5 -7.5q7 -2 10 -5.5t7 -13.5q3 -13 4.5 -31t1.5 -41q0 -3 -4 -8t-9 -5t-10.5 5t-7.5 10q-7 26 -16.5 41t-27.5 21q-5 2 -5 -4l-13 -100
q-1 -4 -0.5 -6.5t8.5 -7.5q34 -20 54.5 -38.5t30.5 -39.5t10 -48q0 -37 -17 -63.5t-48.5 -40.5t-75.5 -16q-2 0 -5.5 -2.5t-4.5 -8.5l-4 -36q0 -4 -6.5 -6t-14.5 -2zM169 28q24 4 38.5 19.5t14.5 30.5q0 12 -5 22t-13 18.5t-18 16.5q-6 4 -8 2t-3 -8l-11 -95q-1 -7 5 -6z
M165 273q3 0 3 3l11 80q0 1 -0.5 3t-3.5 1q-18 -4 -33.5 -15t-15.5 -28q0 -10 11 -22t25 -20z" />
  </g>

</svg>
