<?xml version="1.0" standalone="no"?>
<!DOCTYPE svg PUBLIC "-//W3C//DTD SVG 1.1//EN" "http://www.w3.org/Graphics/SVG/1.1/DTD/svg11.dtd" >
<svg xmlns="http://www.w3.org/2000/svg" xmlns:xlink="http://www.w3.org/1999/xlink" version="1.1" viewBox="-10 0 639 1000">
  <g transform="matrix(1 0 0 -1 0 800)">
   <path fill="currentColor"
d="M62 316q-7 0 -11.5 4t-4.5 8q0 6 2.5 17t8.5 19t16 8h489q9 0 15 -4t6 -11q0 -12 -9.5 -26.5t-22.5 -14.5h-489zM62 135q-7 0 -11.5 4.5t-4.5 8.5q0 5 2.5 16t8.5 19t16 8h489q9 0 15 -4t6 -11q0 -12 -9.5 -26.5t-22.5 -14.5h-489z" />
  </g>

</svg>
