<?xml version="1.0" standalone="no"?>
<!DOCTYPE svg PUBLIC "-//W3C//DTD SVG 1.1//EN" "http://www.w3.org/Graphics/SVG/1.1/DTD/svg11.dtd" >
<svg xmlns="http://www.w3.org/2000/svg" xmlns:xlink="http://www.w3.org/1999/xlink" version="1.1" viewBox="-10 0 524 1000">
  <g transform="matrix(1 0 0 -1 0 800)">
   <path fill="currentColor"
d="M246 -14q-60 0 -111.5 26.5t-82.5 74t-31 108.5q0 65 32 119t88 86.5t127 32.5q9 0 16.5 -1.5t13.5 -4.5q3 -1 4.5 -0.5t0.5 5.5q-7 25 -17.5 56.5t-21.5 51.5l-125 -66q-10 -5 -18 1t-8 12q0 16 5 24.5t15 14.5l105 53q-27 34 -61 57t-77 31q-11 2 -22.5 6.5t-11.5 14.5
t13 13t31 3q56 0 111 -20.5t103 -59.5l107 57q8 4 19 2t11 -12q0 -13 -5 -22.5t-20 -17.5l-73 -40q35 -37 62.5 -89.5t43 -115.5t15.5 -136q0 -44 -15.5 -90t-45.5 -85.5t-74.5 -64t-102.5 -24.5zM262 32q27 0 44.5 19.5t27.5 62t10 112.5q0 30 -7 64.5t-16 55.5
q-16 21 -33 30t-39 9q-25 0 -45 -20.5t-31.5 -57.5t-11.5 -87q0 -47 14 -90t37 -70.5t50 -27.5z" />
  </g>

</svg>
