<?xml version="1.0" standalone="no"?>
<!DOCTYPE svg PUBLIC "-//W3C//DTD SVG 1.1//EN" "http://www.w3.org/Graphics/SVG/1.1/DTD/svg11.dtd" >
<svg xmlns="http://www.w3.org/2000/svg" xmlns:xlink="http://www.w3.org/1999/xlink" version="1.1" viewBox="-10 0 300 1000">
  <g transform="matrix(1 0 0 -1 0 800)">
   <path fill="currentColor"
d="M143 302q-12 0 -19 -11.5t-12 -38.5q-8 -56 -15.5 -103.5t-12.5 -89t-8 -76.5t-4 -65q0 -33 21.5 -60t53.5 -27q33 0 52.5 25.5t19.5 59.5q0 30 -4.5 66t-11 77.5t-15 89.5t-16.5 103q-3 21 -10 35.5t-19 14.5zM141 494q-30 0 -51 -21t-21 -51t21 -51.5t51 -21.5
t51.5 21.5t21.5 51.5t-21.5 51t-51.5 21z" />
  </g>

</svg>
