<?xml version="1.0" standalone="no"?>
<!DOCTYPE svg PUBLIC "-//W3C//DTD SVG 1.1//EN" "http://www.w3.org/Graphics/SVG/1.1/DTD/svg11.dtd" >
<svg xmlns="http://www.w3.org/2000/svg" xmlns:xlink="http://www.w3.org/1999/xlink" version="1.1" viewBox="-10 0 895 1000">
  <g transform="matrix(1 0 0 -1 0 800)">
   <path fill="currentColor"
d="M39 -3q-6 0 -12 4t-6 10q0 8 7 13t14 7q12 3 21 6.5t14 11.5t5 23v283q-10 0 -23.5 0.5t-29.5 1.5q-5 1 -9 11.5t-4 18.5q0 6 9 9q14 5 28.5 10t28.5 13q5 82 30.5 137t63.5 88t81 47.5t80 14.5q30 0 52 -5t38 -14q10 -6 19 -5t18 5q17 5 25.5 8.5t17.5 6.5q8 3 12 3
q7 0 9 -3.5t2 -8.5t-1 -16.5t-2 -25.5t-2 -27v-374q0 -12 8 -12q4 0 8.5 2.5t6.5 3.5q25 21 48 44t40.5 42t23.5 29q4 5 6 9t2 7q0 5 -7.5 10.5t-23.5 8.5q-6 1 -9 4.5t-3 7.5q0 8 7 10.5t13 2.5h24.5h25.5q18 0 46.5 1.5t56.5 4t41 3.5q11 0 11 -12q0 -7 -6 -12.5t-15 -7.5
q-19 -4 -37 -13t-32 -17q-6 -4 -27.5 -18t-47.5 -34.5t-46 -43.5q-7 -7 -4.5 -11.5t5.5 -9.5q25 -31 45.5 -59.5t40.5 -54t42 -51.5q17 -19 41.5 -34t41.5 -21q7 -3 15.5 -6.5t8.5 -11.5q0 -14 -20 -14q-33 0 -65 1.5t-63 1.5q-26 0 -51 -0.5t-49 -0.5q-9 0 -14 4t-5 11
q0 12 21 19q9 3 13 7t4 8q0 6 -3 11.5t-9 12.5l-99 134q-4 4 -7 1.5t-3 -7.5v-29v-30v-33v-34q0 -23 11 -29.5t29 -12.5q21 -6 21 -19q0 -14 -19 -14q-30 0 -57 1.5t-53 1.5t-51 -2.5t-55 -2.5q-18 0 -18 14q0 13 21 20q17 5 28.5 11t11.5 30v265q0 12 -7 17t-21 5h-112
q-27 0 -33.5 -8t-6.5 -16v-260q0 -23 14.5 -31t39.5 -13q17 -4 17 -20q0 -5 -4.5 -9.5t-9.5 -4.5q-30 0 -63 2.5t-59 2.5t-53 -2.5t-57 -2.5zM239 419h133q9 0 15.5 4t6.5 16v124q0 18 -3 34.5t-9.5 29t-19 19.5t-32.5 7q-31 0 -57.5 -17.5t-42.5 -55.5t-16 -99v-40
q0 -13 7.5 -17.5t17.5 -4.5z" />
  </g>

</svg>
