<?xml version="1.0" standalone="no"?>
<!DOCTYPE svg PUBLIC "-//W3C//DTD SVG 1.1//EN" "http://www.w3.org/Graphics/SVG/1.1/DTD/svg11.dtd" >
<svg xmlns="http://www.w3.org/2000/svg" xmlns:xlink="http://www.w3.org/1999/xlink" version="1.1" viewBox="-129 0 259 1000">
  <g transform="matrix(1 0 0 -1 0 800)">
   <path fill="currentColor"
d="M101 497q7 0 13 3.5t6 9.5q0 5 -3 10t-12 13q-14 11 -33 25t-40.5 28t-42 27t-36.5 23q-5 3 -10 4t-10 1q-16 0 -27.5 -13t-18 -28t-6.5 -22q0 -13 10 -17q20 -6 41.5 -14t44 -15.5t44 -14.5t43.5 -12q8 -2 18 -5t19 -3z" />
  </g>

</svg>
