<?xml version="1.0" standalone="no"?>
<!DOCTYPE svg PUBLIC "-//W3C//DTD SVG 1.1//EN" "http://www.w3.org/Graphics/SVG/1.1/DTD/svg11.dtd" >
<svg xmlns="http://www.w3.org/2000/svg" xmlns:xlink="http://www.w3.org/1999/xlink" version="1.1" viewBox="-47 0 573 1000">
  <g transform="matrix(1 0 0 -1 0 800)">
   <path fill="currentColor"
d="M89 -17q-12 0 -32 7t-35 19t-15 27q0 12 7 21.5t13 17.5l45 67.5t51.5 81t52 91.5t47.5 99q3 8 4 21t-3 27q-15 55 -39 86.5t-56.5 44.5t-74.5 13q-16 0 -29.5 -4.5t-25.5 -10.5q-8 -4 -14.5 -6.5t-10.5 -2.5q-5 0 -8 3t-3 11q0 16 9.5 35t27 37t41 30t50.5 12
q50 0 85.5 -28t60 -85.5t42.5 -147.5q15 -71 24.5 -118t16.5 -78t14 -55q13 -43 35.5 -60.5t57.5 -17.5q31 -1 50.5 5t26.5 6q6 0 9 -2.5t3 -10.5q0 -19 -5.5 -41.5t-18.5 -43t-35.5 -34t-56.5 -13.5q-27 0 -49 20.5t-36 57.5q-10 32 -20 71t-18 81t-18 83q-1 8 -5 9t-6 -6
q-9 -24 -24 -62.5t-33 -80.5t-35 -78.5t-28 -59.5q-7 -15 -13.5 -23.5t-12.5 -11.5t-13 -3z" />
  </g>

</svg>
