<?xml version="1.0" standalone="no"?>
<!DOCTYPE svg PUBLIC "-//W3C//DTD SVG 1.1//EN" "http://www.w3.org/Graphics/SVG/1.1/DTD/svg11.dtd" >
<svg xmlns="http://www.w3.org/2000/svg" xmlns:xlink="http://www.w3.org/1999/xlink" version="1.1" viewBox="-10 0 502 1000">
  <g transform="matrix(1 0 0 -1 0 800)">
   <path fill="currentColor"
d="M429 441l-342 -165q-15 -7 -31.5 -16.5t-16.5 -14.5q0 -7 10.5 -25.5t27.5 -25.5l354 -173q4 -2 7 -2q9 0 12.5 7t3.5 15q0 14 -10 28t-26 22l-282 136q-3 2 -3.5 4.5t4.5 4.5l281 136q15 8 25 22t10 28t-8 19t-16 0z" />
  </g>

</svg>
