<?xml version="1.0" standalone="no"?>
<!DOCTYPE svg PUBLIC "-//W3C//DTD SVG 1.1//EN" "http://www.w3.org/Graphics/SVG/1.1/DTD/svg11.dtd" >
<svg xmlns="http://www.w3.org/2000/svg" xmlns:xlink="http://www.w3.org/1999/xlink" version="1.1" viewBox="-10 0 1182 1000">
  <g transform="matrix(1 0 0 -1 0 800)">
   <path fill="currentColor"
d="M41 -3q-7 0 -13.5 3.5t-6.5 10.5q0 8 7 12.5t16 7.5q15 5 26.5 12t11.5 27v285q-10 0 -23 0.5t-29 1.5q-6 1 -10 11.5t-4 17.5q0 4 3 6.5t6 3.5q14 5 28.5 10t28.5 13q4 69 30 117t64.5 78t81.5 44t81 14q66 0 103.5 -20.5t37.5 -50.5q0 -22 -16.5 -40t-35.5 -18
q-9 0 -17 8.5t-18 21.5q-13 16 -34 31t-56 15q-39 0 -64.5 -39.5t-25.5 -121.5v-384q0 -20 15 -29t37 -14q9 -2 14.5 -7t5.5 -13q0 -6 -5 -10t-12 -4q-20 0 -40.5 1.5t-40 2.5t-37.5 1q-17 0 -34.5 -1t-36 -2.5t-38.5 -1.5zM905 -14q-47 0 -82 11t-56 13q-10 0 -20 -2
t-18 -7q-4 -3 -9 -5.5t-9 -2.5q-9 -1 -14.5 3t-5.5 9q0 11 5.5 37.5t4.5 64.5l-4 458q0 41 -13.5 64.5t-50.5 23.5q-31 0 -57.5 -17.5t-42.5 -55.5t-16 -99v-406q0 -21 14.5 -30t39.5 -14q18 -4 18 -19q0 -6 -4.5 -10.5t-10.5 -4.5q-30 0 -63 2.5t-59 2.5t-53 -2.5t-56 -2.5
q-6 0 -12.5 3.5t-6.5 10.5q0 8 7 12.5t14 7.5q18 5 29.5 11.5t11.5 29.5v283q-10 0 -24 0.5t-30 1.5q-5 1 -9 11.5t-4 18.5q0 6 9 9q14 5 29 10t29 13q4 82 30 137t64 88t80.5 47.5t80.5 14.5q30 0 51.5 -5t37.5 -14q10 -6 19 -5t18 4q17 6 26 9.5t17 6.5t13 3q6 0 8 -3.5
t2 -8.5t-1 -14t-2 -21.5t-2 -28.5l-1 -211q0 -11 2.5 -19.5t6.5 -8.5q33 24 66.5 33.5t63.5 9.5q53 0 94.5 -28.5t65 -75.5t23.5 -105q0 -60 -26.5 -114.5t-80 -89t-137.5 -34.5zM921 29q31 0 50 23t28.5 61.5t9.5 85.5q0 40 -11 81t-34 68.5t-58 27.5q-15 0 -31 -7t-29 -19
q-10 -10 -14.5 -28.5t-4.5 -50.5v-127q0 -52 27.5 -83.5t66.5 -31.5z" />
  </g>

</svg>
