<?xml version="1.0" standalone="no"?>
<!DOCTYPE svg PUBLIC "-//W3C//DTD SVG 1.1//EN" "http://www.w3.org/Graphics/SVG/1.1/DTD/svg11.dtd" >
<svg xmlns="http://www.w3.org/2000/svg" xmlns:xlink="http://www.w3.org/1999/xlink" version="1.1" viewBox="-10 0 916 1000">
  <g transform="matrix(1 0 0 -1 0 800)">
   <path fill="currentColor"
d="M41 -3q-7 0 -13.5 3.5t-6.5 10.5q0 8 7 12.5t16 7.5q15 5 26.5 12t11.5 27v285q-10 0 -23 0.5t-29 1.5q-6 1 -10 11.5t-4 17.5q0 4 3 6.5t6 3.5q14 5 28.5 10t28.5 13q4 69 30 117t64.5 78t81.5 44t81 14q66 0 103.5 -20.5t37.5 -50.5q0 -22 -16.5 -40t-35.5 -18
q-9 0 -17 8.5t-18 21.5q-13 16 -34 31t-56 15q-39 0 -64.5 -39.5t-25.5 -121.5v-384q0 -20 15 -29t37 -14q9 -2 14.5 -7t5.5 -13q0 -6 -5 -10t-12 -4q-20 0 -40.5 1.5t-40 2.5t-37.5 1q-17 0 -34.5 -1t-36 -2.5t-38.5 -1.5zM345 -3q-6 0 -13 3.5t-7 10.5q0 8 7.5 12.5
t15.5 7.5q15 5 26.5 12t11.5 27v285q-10 0 -23.5 0.5t-29.5 1.5q-6 1 -9.5 11.5t-3.5 18.5q0 6 8 9q14 5 29 10t29 13q4 82 30 137t64 88t80.5 47.5t80.5 14.5q30 0 52 -5t37 -14q11 -6 20 -5t17 4q17 6 26 9.5t18 6.5q8 3 12 3q7 0 8.5 -3.5t1.5 -8.5q0 -7 -2 -26t-3 -43
l1 -552q0 -22 11.5 -28t26.5 -11q10 -4 16.5 -8t6.5 -12q0 -7 -5.5 -10.5t-14.5 -3.5q-20 0 -38.5 1t-36 1.5t-35.5 0.5q-17 0 -33 -1t-33.5 -2.5t-37.5 -1.5q-9 0 -14.5 3.5t-5.5 10.5q0 8 6.5 12.5t16.5 7.5q15 5 27 11t12 28v493q0 25 -5 45.5t-19 32.5t-40 12
q-31 0 -57.5 -17.5t-42.5 -55.5t-16 -99v-407q0 -21 14.5 -29.5t37.5 -13.5q8 -2 13.5 -7t5.5 -13q0 -6 -5.5 -10t-10.5 -4q-20 0 -41 1.5t-40.5 2.5t-37.5 1q-17 0 -34.5 -1t-36 -2.5t-38.5 -1.5z" />
  </g>

</svg>
