<?xml version="1.0" standalone="no"?>
<!DOCTYPE svg PUBLIC "-//W3C//DTD SVG 1.1//EN" "http://www.w3.org/Graphics/SVG/1.1/DTD/svg11.dtd" >
<svg xmlns="http://www.w3.org/2000/svg" xmlns:xlink="http://www.w3.org/1999/xlink" version="1.1" viewBox="-10 0 600 1000">
  <g transform="matrix(1 0 0 -1 0 800)">
   <path fill="currentColor"
d="M37 16q-4 0 -9 3t-5 7q0 6 5.5 10t10.5 5q11 4 17.5 8t7.5 16v144q0 11 -4.5 18t-14.5 10q-3 1 -6.5 4t-3.5 9q0 7 2 10t7 4q24 5 54.5 14t49.5 19l6 3t3 1q4 0 11 -2.5t7 -6.5q0 -6 -1.5 -16.5t-1.5 -18.5t2 -8q23 21 48.5 32.5t55.5 11.5q22 0 41 -15t25 -34q3 -8 10 1
q19 20 47.5 34t59.5 14t53.5 -25t22.5 -65v-139q0 -12 7.5 -15.5t17.5 -7.5q5 -1 9 -5t4 -10q0 -4 -4.5 -7t-6.5 -3q-20 0 -41.5 1.5t-38.5 1.5t-34 -1.5t-36 -1.5q-3 0 -7 3t-4 7q0 6 3.5 10t9.5 5q9 2 11.5 6t2.5 11v122q0 22 -10 33.5t-25 11.5q-6 0 -15 -1t-15 -7
q-7 -6 -9 -16t-2 -23v-114q0 -12 3 -15.5t13 -7.5q5 -1 9.5 -5t4.5 -10q0 -4 -4.5 -7t-6.5 -3q-21 0 -38.5 1.5t-33.5 1.5q-18 0 -34 -1.5t-36 -1.5q-4 0 -8 3t-4 7q0 6 4 10t10 5q8 2 11 6t3 11v122q0 22 -8 33t-26 11q-6 0 -15 -1.5t-15 -5.5q-7 -4 -9.5 -13t-2.5 -23
v-117q0 -9 2 -14t12 -9q5 -1 8.5 -5.5t3.5 -9.5q0 -3 -4 -6.5t-6 -3.5q-20 0 -37 1.5t-34 1.5q-18 0 -38.5 -1.5t-40.5 -1.5z" />
  </g>

</svg>
