<?xml version="1.0" standalone="no"?>
<!DOCTYPE svg PUBLIC "-//W3C//DTD SVG 1.1//EN" "http://www.w3.org/Graphics/SVG/1.1/DTD/svg11.dtd" >
<svg xmlns="http://www.w3.org/2000/svg" xmlns:xlink="http://www.w3.org/1999/xlink" version="1.1" viewBox="-10 0 494 1000">
  <g transform="matrix(1 0 0 -1 0 800)">
   <path fill="currentColor"
d="M70 -93q-7 0 -11 5.5t-4 12.5v4l40 161l-58 -2q-10 -1 -16 6t-6 13q0 24 5 39t13.5 22.5t18.5 7.5l64 3l28 111l-67 -3q-10 0 -15.5 6.5t-5.5 13.5q0 24 4.5 38.5t13 22t18.5 7.5l74 3l36 148q3 16 13.5 21t26.5 5q5 0 8.5 -5.5t3.5 -12.5q0 -3 -1 -4.5t-1 -3.5l-35 -145
l114 5l37 151q3 16 13.5 21t26.5 5q5 0 8.5 -5.5t3.5 -12.5q0 -3 -1 -4.5t-1 -3.5l-36 -149l59 3q11 1 17.5 -5t6.5 -15q0 -14 -6 -30t-15 -26.5t-19 -11.5l-66 -3l-27 -112l68 3q12 1 18.5 -5t6.5 -15q0 -15 -6 -30.5t-15 -26t-19 -11.5l-75 -3l-38 -155q-4 -15 -12.5 -19
t-23.5 -4q-6 0 -10.5 5.5t-4.5 12.5v5l38 152l-114 -4l-39 -164q-4 -14 -12.5 -18t-23.5 -4zM167 181l114 4l27 113l-113 -5z" />
  </g>

</svg>
