<?xml version="1.0" standalone="no"?>
<!DOCTYPE svg PUBLIC "-//W3C//DTD SVG 1.1//EN" "http://www.w3.org/Graphics/SVG/1.1/DTD/svg11.dtd" >
<svg xmlns="http://www.w3.org/2000/svg" xmlns:xlink="http://www.w3.org/1999/xlink" version="1.1" viewBox="-10 0 639 1000">
  <g transform="matrix(1 0 0 -1 0 800)">
   <path fill="currentColor"
d="M310 -11q-71 0 -131 29.5t-97 81t-37 118.5q0 47 18.5 89.5t53 76.5t85 54t114.5 20q53 0 101.5 -16t85.5 -47t59 -72.5t22 -92.5q0 -62 -31.5 -117t-92 -89.5t-150.5 -34.5zM319 33q27 0 47 14t33 38t19 57t6 71q0 57 -13.5 103t-39 72.5t-63.5 26.5q-34 0 -57 -23
t-34.5 -63t-11.5 -92q0 -59 13 -105t39 -72.5t62 -26.5zM194 545q-5 0 -13.5 7.5t-8.5 11.5q0 6 12 23.5t28.5 38t32 36t22.5 15.5q11 0 24.5 -3t43.5 -5q22 -1 40 -2.5t28 -1.5q9 0 18.5 5t16.5 15q11 12 15.5 18.5t8.5 6.5q6 0 14.5 -6.5t8.5 -12.5q0 -4 -6 -11.5
t-16 -20.5q-11 -15 -22 -33t-21 -32q-6 -8 -15.5 -11t-15.5 -3q-8 0 -28 1.5t-43 3t-44 3t-30 1.5q-8 0 -13 -3.5t-10 -9.5q-12 -16 -17.5 -23.5t-9.5 -7.5z" />
  </g>

</svg>
