<?xml version="1.0" standalone="no"?>
<!DOCTYPE svg PUBLIC "-//W3C//DTD SVG 1.1//EN" "http://www.w3.org/Graphics/SVG/1.1/DTD/svg11.dtd" >
<svg xmlns="http://www.w3.org/2000/svg" xmlns:xlink="http://www.w3.org/1999/xlink" version="1.1" viewBox="-10 0 250 1000">
  <g transform="matrix(1 0 0 -1 0 800)">
   <path fill="currentColor"
d="M71 -129q20 19 43 51t43.5 74t33.5 89t13 95q0 81 -21 141t-51 101.5t-56 65.5q-8 6 -18.5 9t-19.5 1q-15 -1 -19 -16t8 -31q20 -26 38 -64.5t28.5 -88.5t10.5 -112q0 -47 -10.5 -100.5t-28.5 -100t-37 -70.5q-11 -14 -11 -25q1 -18 19.5 -25.5t34.5 6.5z" />
  </g>

</svg>
