<?xml version="1.0" standalone="no"?>
<!DOCTYPE svg PUBLIC "-//W3C//DTD SVG 1.1//EN" "http://www.w3.org/Graphics/SVG/1.1/DTD/svg11.dtd" >
<svg xmlns="http://www.w3.org/2000/svg" xmlns:xlink="http://www.w3.org/1999/xlink" version="1.1" viewBox="-10 0 314 1000">
  <g transform="matrix(1 0 0 -1 0 800)">
   <path fill="currentColor"
d="M65 -215q17 0 29 12q21 21 44.5 59.5t46.5 88t42 105t30 111.5t11 106q0 64 -16 127t-42 120t-55 102t-56 71q-7 8 -20 13.5t-25 5.5q-9 0 -23 -8t-14 -19q0 -2 4.5 -8.5t9.5 -14t7 -9.5q26 -33 52 -88t43.5 -128t17.5 -159q0 -57 -9 -119t-24.5 -121t-34 -106t-38.5 -71
q-2 -2 -8 -9t-11.5 -14t-5.5 -9q0 -18 14.5 -28t30.5 -10z" />
  </g>

</svg>
