<?xml version="1.0" standalone="no"?>
<!DOCTYPE svg PUBLIC "-//W3C//DTD SVG 1.1//EN" "http://www.w3.org/Graphics/SVG/1.1/DTD/svg11.dtd" >
<svg xmlns="http://www.w3.org/2000/svg" xmlns:xlink="http://www.w3.org/1999/xlink" version="1.1" viewBox="-10 0 611 1000">
  <g transform="matrix(1 0 0 -1 0 800)">
   <path fill="currentColor"
d="M284 -11q-4 0 -8.5 5t-4.5 11v203q0 12 -12 12h-209q-7 0 -11.5 4t-4.5 8q0 8 2.5 19t9 20t16.5 9h196q9 0 11 3.5t2 9.5v180q0 10 8.5 17.5t20 12t18.5 4.5t11 -6.5t4 -15.5v-192q0 -13 11 -13h204q9 0 15.5 -3.5t6.5 -11.5q0 -13 -10 -29t-24 -16h-191q-12 0 -12 -12
v-191q0 -10 -9.5 -16.5t-21 -9t-18.5 -2.5z" />
  </g>

</svg>
