<?xml version="1.0" standalone="no"?>
<!DOCTYPE svg PUBLIC "-//W3C//DTD SVG 1.1//EN" "http://www.w3.org/Graphics/SVG/1.1/DTD/svg11.dtd" >
<svg xmlns="http://www.w3.org/2000/svg" xmlns:xlink="http://www.w3.org/1999/xlink" version="1.1" viewBox="-10 0 264 1000">
  <g transform="matrix(1 0 0 -1 0 800)">
   <path fill="currentColor"
d="M93 385q-4 0 -10.5 4t-11.5 14q-4 10 -9.5 23.5t-5.5 29.5q0 25 24.5 39t58.5 29q14 6 24 14t10 22q0 22 -25 34.5t-76 12.5q-13 0 -24.5 14t-11.5 29q0 11 12.5 20t29.5 9q26 0 51.5 -13.5t46.5 -35.5t33.5 -48.5t12.5 -52.5q0 -24 -9 -39t-22 -20q-14 -6 -28 -13.5
t-30 -16.5q-13 -7 -18.5 -15t-7.5 -26q-1 -7 -4.5 -10.5t-9.5 -3.5zM91 274q-18 0 -32 13t-14 31q0 20 14 33t32 13q20 0 33.5 -13t13.5 -33q0 -18 -13.5 -31t-33.5 -13z" />
  </g>

</svg>
