<?xml version="1.0" standalone="no"?>
<!DOCTYPE svg PUBLIC "-//W3C//DTD SVG 1.1//EN" "http://www.w3.org/Graphics/SVG/1.1/DTD/svg11.dtd" >
<svg xmlns="http://www.w3.org/2000/svg" xmlns:xlink="http://www.w3.org/1999/xlink" version="1.1" viewBox="-10 0 670 1000">
  <g transform="matrix(1 0 0 -1 0 800)">
   <path fill="currentColor"
d="M96 275q-24 0 -44 8t-20 22q0 12 5.5 23.5t12.5 11.5q5 0 8 -2t6 -6q9 -10 22.5 -20t26.5 -10q23 0 38.5 20.5t15.5 56.5q0 21 -13.5 41.5t-39.5 20.5q-21 0 -29.5 -6.5t-11.5 -6.5q-6 0 -11.5 1.5t-4.5 7.5q2 9 9 16t16 11.5l15 7.5q38 20 49.5 35t11.5 34
q0 12 -11.5 21.5t-30.5 9.5q-17 0 -32.5 -8t-24.5 -19q-4 -3 -7 -6.5t-5 -3.5q-4 0 -8.5 5.5t-4.5 9.5q0 6 12.5 21.5t37.5 29.5t63 14q34 0 63 -18t29 -49q0 -18 -14 -37t-48 -29q-2 -1 -2 -2t2 -1q33 -2 58 -22.5t25 -58.5q0 -37 -23.5 -65t-61 -43t-79.5 -15zM531 642
q8 14 20.5 18t28.5 4q8 0 13 -5.5t5 -11.5q0 -4 -1 -5l-410 -646q-6 -12 -18.5 -15.5t-26.5 -3.5q-8 0 -15 4.5t-7 10.5q0 2 1 4zM513 -9q-11 0 -11 8v86q0 3 -5 4t-6 1q-37 0 -69.5 -1t-72.5 -1q-2 0 -6.5 1t-4.5 4q0 1 1 2.5t2 2.5q35 43 76 87t77 87q10 11 27.5 29
t37.5 38q6 6 11.5 10t9.5 4q3 0 4 -3t1 -6l-1 -206q0 -6 6 -6h18q6 0 15 0.5t16 0.5t7 -7q0 -9 -6 -21.5t-11 -12.5h-35q-5 0 -7.5 -1.5t-2.5 -4.5v-57q0 -8 -15.5 -17t-33 -15t-22.5 -6zM422 133h75q2 0 3.5 1.5t1.5 2.5v83q0 1 -1 1t-2 -1l-26.5 -26.5t-29 -30
t-23.5 -26.5q-2 -4 2 -4z" />
  </g>

</svg>
