<?xml version="1.0" standalone="no"?>
<!DOCTYPE svg PUBLIC "-//W3C//DTD SVG 1.1//EN" "http://www.w3.org/Graphics/SVG/1.1/DTD/svg11.dtd" >
<svg xmlns="http://www.w3.org/2000/svg" xmlns:xlink="http://www.w3.org/1999/xlink" version="1.1" viewBox="-10 0 670 1000">
  <g transform="matrix(1 0 0 -1 0 800)">
   <path fill="currentColor"
d="M96 268q-24 0 -44 8t-20 22q0 12 5.5 23.5t12.5 11.5q5 0 8 -2t6 -6q9 -10 22.5 -20t26.5 -10q23 0 38.5 20.5t15.5 56.5q0 21 -13.5 41.5t-39.5 20.5q-21 0 -29.5 -6.5t-11.5 -6.5q-6 0 -11.5 1.5t-4.5 7.5q2 9 9 16t16 11.5l15 7.5q38 20 49.5 35t11.5 34
q0 12 -11.5 21.5t-30.5 9.5q-17 0 -32.5 -8t-24.5 -19q-4 -3 -7 -6.5t-5 -3.5q-4 0 -8.5 5.5t-4.5 9.5q0 6 12.5 21.5t37.5 29.5t63 14q34 0 63 -18t29 -49q0 -18 -14 -37t-48 -29q-2 -1 -2 -2t2 -1q33 -2 58 -22.5t25 -58.5q0 -37 -23.5 -65t-61 -43t-79.5 -15zM492 642
q8 14 20.5 18t28.5 4q8 0 13 -5.5t5 -11.5q0 -4 -1 -5l-410 -646q-6 -12 -18.5 -15.5t-26.5 -3.5q-8 0 -15 4.5t-7 10.5q0 2 1 4zM493 -31q-36 0 -65.5 10.5t-46.5 30.5t-17 45q0 30 27 47t57 30q6 3 4.5 6t-6.5 5q-27 19 -47.5 39.5t-20.5 50.5q0 28 19.5 48t50 31t63.5 11
q30 0 56.5 -10.5t43.5 -29t17 -43.5q0 -17 -11 -30t-26.5 -22t-28.5 -15q-13 -5 0 -14q32 -18 55.5 -36.5t23.5 -48.5q0 -34 -19.5 -57t-53 -35.5t-75.5 -12.5zM504 -7q23 0 35.5 16.5t12.5 36.5t-15.5 37t-37.5 31q-7 4 -11 4q-1 0 -7 -2q-15 -13 -21 -23.5t-6 -33.5
q0 -25 13 -45.5t37 -20.5zM521 188q17 12 22 24t5 30q0 23 -10 37.5t-28 14.5q-17 0 -31 -12.5t-14 -30.5q0 -21 14 -33.5t35 -28.5q6 -1 7 -1z" />
  </g>

</svg>
