<?xml version="1.0" standalone="no"?>
<!DOCTYPE svg PUBLIC "-//W3C//DTD SVG 1.1//EN" "http://www.w3.org/Graphics/SVG/1.1/DTD/svg11.dtd" >
<svg xmlns="http://www.w3.org/2000/svg" xmlns:xlink="http://www.w3.org/1999/xlink" version="1.1" viewBox="-10 0 489 1000">
  <g transform="matrix(1 0 0 -1 0 800)">
   <path fill="currentColor"
d="M395 -4q-6 0 -25.5 0.5t-47 1.5t-55.5 1.5t-50 0.5q-26 0 -55.5 -0.5t-55.5 -1t-43.5 -1t-19.5 -0.5q-8 0 -8 9q0 5 8 12l63 59q40 35 70 69.5t46.5 69t16.5 67.5q0 38 -21.5 58t-56.5 20q-22 0 -44.5 -10.5t-43.5 -31.5q-5 -4 -9.5 -7.5t-11.5 -3.5q-8 0 -10.5 8
t-2.5 16q0 7 12 26.5t37.5 42t64.5 39t92 16.5q42 0 72 -18t46.5 -49t16.5 -69q0 -28 -13.5 -57t-41.5 -52q-15 -14 -30 -26.5t-29.5 -25t-29.5 -24t-31 -23.5q-5 -4 0.5 -6t11.5 -2h114q33 0 55 16t36 49q3 7 10.5 13t16.5 6q8 0 11 -6.5t0 -13.5q-11 -30 -21 -62.5
t-16.5 -57t-6.5 -31.5q0 -10 -9.5 -15.5t-11.5 -5.5z" />
  </g>

</svg>
