<?xml version="1.0" standalone="no"?>
<!DOCTYPE svg PUBLIC "-//W3C//DTD SVG 1.1//EN" "http://www.w3.org/Graphics/SVG/1.1/DTD/svg11.dtd" >
<svg xmlns="http://www.w3.org/2000/svg" xmlns:xlink="http://www.w3.org/1999/xlink" version="1.1" viewBox="-10 0 539 1000">
  <g transform="matrix(1 0 0 -1 0 800)">
   <path fill="currentColor"
d="M435 -4q-6 0 -28.5 0.5t-54 1.5t-64 1.5t-58.5 0.5q-34 0 -72.5 -0.5t-67 -1.5t-31.5 -1q-7 0 -7 9q0 5 7 12q13 14 33.5 31.5t33.5 26.5q23 17 45 38.5t40 45.5t28.5 51.5t10.5 55.5q0 35 -19.5 55t-55.5 20q-22 0 -44 -9t-42 -28q-5 -4 -9.5 -7.5t-11.5 -3.5
q-8 0 -10.5 8t-2.5 15q0 6 12 24.5t37 39.5t63.5 36.5t91.5 15.5q41 0 71 -17t46.5 -46t16.5 -64q0 -25 -14 -53.5t-36 -51.5q-15 -14 -29.5 -26t-30 -23t-32 -21t-33.5 -20q-5 -3 0.5 -5.5t11.5 -2.5h141q32 0 54 16t36 48q2 6 9.5 12.5t16.5 6.5q8 0 11 -7t0 -14
q-10 -29 -20 -61t-17 -56t-7 -31q0 -10 -8.5 -15.5t-10.5 -5.5z" />
  </g>

</svg>
