<?xml version="1.0" standalone="no"?>
<!DOCTYPE svg PUBLIC "-//W3C//DTD SVG 1.1//EN" "http://www.w3.org/Graphics/SVG/1.1/DTD/svg11.dtd" >
<svg xmlns="http://www.w3.org/2000/svg" xmlns:xlink="http://www.w3.org/1999/xlink" version="1.1" viewBox="-10 0 1058 1000">
  <g transform="matrix(1 0 0 -1 0 800)">
   <path fill="currentColor"
d="M80 506h41v-104h-41v104zM80 349h41v-104h-41v104zM80 193h41v-104h-41v104zM80 36h41v-104h-41v104zM856 -184h71v64h41v-105h-112v41zM243 622v41h103v-41h-103zM399 622v41h103v-41h-103zM554 622v41h103v-41h-103zM710 622v41h103v-41h-103zM968 -68h-41v104h41v-104
zM968 89h-41v104h41v-104zM968 245h-41v104h41v-104zM968 402h-41v104h41v-104zM807 -184v-41h-102v41h102zM653 -184v-41h-102v41h102zM499 -184v-41h-101v41h101zM345 -184v-41h-102v41h102zM191 -225h-111v105h41v-64h70v-41zM927 559v63h-71v41h112v-104h-41zM80 559
v104h112v-41h-71v-63h-41zM321 -1q-5 0 -11 3.5t-6 12.5t6 13t10 5q27 5 36 13t9 26v313q0 19 -10 24.5t-37 10.5q-8 2 -11 6.5t-3 11.5t4.5 11t9.5 4q16 0 38.5 -1.5t45.5 -3t38 -1.5q18 0 33.5 2.5t36 4.5t55.5 2q66 0 111.5 -14.5t69 -46t23.5 -81.5q0 -74 -49.5 -118.5
t-135.5 -44.5q-19 0 -31 6.5t-12 16.5q0 8 5 11t10 3q8 0 14.5 -1.5t11.5 -1.5q19 0 31.5 25.5t12.5 80.5q0 67 -19.5 97.5t-46.5 30.5q-17 0 -30.5 -10t-13.5 -30v-311q0 -14 13 -22t46 -13q6 -1 11 -5t5 -12t-5 -12.5t-12 -4.5q-14 0 -41.5 1t-55 1h-43.5q-14 0 -35 -0.5
l-42 -1t-36 -0.5z" />
  </g>

</svg>
