<?xml version="1.0" standalone="no"?>
<!DOCTYPE svg PUBLIC "-//W3C//DTD SVG 1.1//EN" "http://www.w3.org/Graphics/SVG/1.1/DTD/svg11.dtd" >
<svg xmlns="http://www.w3.org/2000/svg" xmlns:xlink="http://www.w3.org/1999/xlink" version="1.1" viewBox="-10 0 1058 1000">
  <g transform="matrix(1 0 0 -1 0 800)">
   <path fill="currentColor"
d="M80 506h41v-104h-41v104zM80 349h41v-104h-41v104zM80 193h41v-104h-41v104zM80 36h41v-104h-41v104zM856 -184h71v64h41v-105h-112v41zM243 622v41h103v-41h-103zM399 622v41h103v-41h-103zM554 622v41h103v-41h-103zM710 622v41h103v-41h-103zM968 -68h-41v104h41v-104
zM968 89h-41v104h41v-104zM968 245h-41v104h41v-104zM968 402h-41v104h41v-104zM807 -184v-41h-102v41h102zM653 -184v-41h-102v41h102zM499 -184v-41h-101v41h101zM345 -184v-41h-102v41h102zM191 -225h-111v105h41v-64h70v-41zM927 559v63h-71v41h112v-104h-41zM80 559
v104h112v-41h-71v-63h-41zM323 -3q-7 0 -11 5t-4 11q0 8 5.5 13t13.5 6q19 5 27.5 12t8.5 27v300q0 22 -7 32t-33 16q-8 2 -12.5 6.5t-4.5 11.5t5.5 11.5t11.5 4.5q12 0 29 -1t33.5 -2t25.5 -1q38 0 81.5 0.5t82.5 1t67 1t34 0.5t13 -4t7 -14q1 -23 7.5 -49.5t6.5 -46.5
q0 -6 -2.5 -11t-6.5 -5t-10 4t-10 12q-16 36 -29.5 54t-48.5 18h-55q-14 0 -24 -8t-10 -26v-109q0 -11 5.5 -15t15.5 -4h47q17 0 27 10t19 36q4 9 8 11.5t9 2.5q4 0 7 -4.5t2 -14.5q-3 -21 -3.5 -34.5t-0.5 -30.5q0 -16 0.5 -26.5t2.5 -33.5q2 -13 -0.5 -18.5t-7.5 -5.5
q-4 0 -10 5t-8 14q-7 25 -15.5 35.5t-23.5 11.5h-30h-30q-8 0 -11 -5t-3 -11v-119q0 -15 6.5 -21.5t23.5 -6.5h67q32 0 58 23t36 54q2 8 7 11.5t9 3.5q6 0 9 -5.5t3 -11.5q0 -25 -7 -46.5t-17 -53.5q-2 -10 -9 -15t-17 -5h-38t-62 0.5t-73 1t-74 0.5q-15 0 -36.5 -1
t-42 -1.5t-34.5 -0.5z" />
  </g>

</svg>
