<?xml version="1.0" standalone="no"?>
<!DOCTYPE svg PUBLIC "-//W3C//DTD SVG 1.1//EN" "http://www.w3.org/Graphics/SVG/1.1/DTD/svg11.dtd" >
<svg xmlns="http://www.w3.org/2000/svg" xmlns:xlink="http://www.w3.org/1999/xlink" version="1.1" viewBox="-10 0 1058 1000">
  <g transform="matrix(1 0 0 -1 0 800)">
   <path fill="currentColor"
d="M80 506h41v-104h-41v104zM80 349h41v-104h-41v104zM80 193h41v-104h-41v104zM80 36h41v-104h-41v104zM856 -184h71v64h41v-105h-112v41zM243 622v41h103v-41h-103zM399 622v41h103v-41h-103zM554 622v41h103v-41h-103zM710 622v41h103v-41h-103zM968 -68h-41v104h41v-104
zM968 89h-41v104h41v-104zM968 245h-41v104h41v-104zM968 402h-41v104h41v-104zM807 -184v-41h-102v41h102zM653 -184v-41h-102v41h102zM499 -184v-41h-101v41h101zM345 -184v-41h-102v41h102zM191 -225h-111v105h41v-64h70v-41zM927 559v63h-71v41h112v-104h-41zM80 559
v104h112v-41h-71v-63h-41zM292 -5q-8 0 -14 5t-6 10q0 7 5.5 11.5t12.5 5.5q25 4 35 13.5t10 27.5v306q0 23 -8 32.5t-35 15.5q-7 2 -13 6.5t-6 10.5t5.5 10t11.5 4q16 0 38.5 -1t44 -2.5t30.5 -1.5q11 0 33 2t46 3.5t41 1.5q88 0 153 -21t101 -69.5t36 -133.5
q0 -76 -39.5 -128.5t-106 -80t-147.5 -27.5q-23 0 -46 1.5t-43 3t-35 1.5q-14 0 -33.5 -1.5t-38 -3t-32.5 -1.5zM537 32q39 0 64.5 22.5t38.5 62t13 88.5q0 59 -12 107t-39 76.5t-72 28.5q-22 0 -33 -15t-11 -34v-278q0 -25 10 -41.5t41 -16.5z" />
  </g>

</svg>
