<?xml version="1.0" standalone="no"?>
<!DOCTYPE svg PUBLIC "-//W3C//DTD SVG 1.1//EN" "http://www.w3.org/Graphics/SVG/1.1/DTD/svg11.dtd" >
<svg xmlns="http://www.w3.org/2000/svg" xmlns:xlink="http://www.w3.org/1999/xlink" version="1.1" viewBox="-10 0 1058 1000">
  <g transform="matrix(1 0 0 -1 0 800)">
   <path fill="currentColor"
d="M80 506h41v-104h-41v104zM80 349h41v-104h-41v104zM80 193h41v-104h-41v104zM80 36h41v-104h-41v104zM856 -184h71v64h41v-105h-112v41zM243 622v41h103v-41h-103zM399 622v41h103v-41h-103zM554 622v41h103v-41h-103zM710 622v41h103v-41h-103zM968 -68h-41v104h41v-104
zM968 89h-41v104h41v-104zM968 245h-41v104h41v-104zM968 402h-41v104h41v-104zM807 -184v-41h-102v41h102zM653 -184v-41h-102v41h102zM499 -184v-41h-101v41h101zM345 -184v-41h-102v41h102zM191 -225h-111v105h41v-64h70v-41zM927 559v63h-71v41h112v-104h-41zM80 559
v104h112v-41h-71v-63h-41zM411 -1q-7 0 -12.5 3t-5.5 10q0 8 5.5 12.5t12.5 5.5q21 4 31 11t10 29v304q0 22 -9 31.5t-34 15.5q-8 2 -13 6.5t-5 12.5q0 7 6 10t12 3q15 0 36.5 -1t42.5 -2t36 -1t38 1t46.5 1.5t37.5 0.5q8 0 12.5 -3.5t4.5 -9.5q0 -7 -5 -10.5t-13 -6.5
q-21 -7 -29.5 -13.5t-10 -14.5t-1.5 -21v-300q0 -19 9.5 -27t28.5 -14q7 -3 13 -7t6 -12q0 -7 -5 -10.5t-11 -3.5q-14 0 -37 1t-46.5 1.5t-37.5 0.5t-35 -0.5t-42 -1.5t-36 -1z" />
  </g>

</svg>
