<?xml version="1.0" standalone="no"?>
<!DOCTYPE svg PUBLIC "-//W3C//DTD SVG 1.1//EN" "http://www.w3.org/Graphics/SVG/1.1/DTD/svg11.dtd" >
<svg xmlns="http://www.w3.org/2000/svg" xmlns:xlink="http://www.w3.org/1999/xlink" version="1.1" viewBox="-14 0 1280 1000">
  <g transform="matrix(1 0 0 -1 0 800)">
   <path fill="currentColor"
d="M516 -17q-7 0 -21 16.5t-28 42t-22 51.5l-129 427q-4 12 -7 12q-2 0 -3.5 -3.5t-2.5 -7.5l-107 -413q-6 -32 6 -48.5t55 -26.5q24 -5 24 -21q0 -7 -5.5 -10.5t-16.5 -3.5q-30 0 -59.5 1.5t-58.5 1.5q-30 0 -57.5 -3t-57.5 -3q-12 0 -21 3.5t-9 12.5q0 10 8.5 14.5
t18.5 7.5q29 8 51.5 24.5t32.5 42.5l141 440q4 12 8 20t6 17q5 14 7.5 23.5t4.5 20.5q18 5 34.5 7.5t32.5 12.5q23 15 33.5 28.5t21.5 13.5q7 0 11 -9t7 -21l125 -440q2 -10 8 -10t9 11l88 325q7 25 10.5 41.5t6.5 35.5q17 6 33 11.5t34 10.5q17 7 29.5 20.5t20.5 19.5
q5 3 10 4t8 -4q6 -12 11 -25l137 -440q2 -10 8 -10q4 0 9 11l98 330q7 22 3.5 36t-19 23t-45.5 15q-10 3 -17 8t-7 14q0 7 5.5 10t16.5 3q31 0 60.5 -1t59.5 -1q29 0 57 2.5t57 2.5q11 0 18.5 -3t7.5 -13q0 -9 -6.5 -13.5t-17.5 -7.5q-31 -8 -54 -26.5t-32 -41.5l-173 -471
q-6 -20 -15.5 -37.5t-18.5 -31t-17 -21t-13 -7.5q-7 0 -20 15t-26 38t-20 47l-129 424q-3 12 -6 12q-2 0 -6 -11l-117 -415q-5 -21 -14.5 -40.5t-20 -35t-20 -25t-14.5 -9.5z" />
  </g>

</svg>
