<?xml version="1.0" standalone="no"?>
<!DOCTYPE svg PUBLIC "-//W3C//DTD SVG 1.1//EN" "http://www.w3.org/Graphics/SVG/1.1/DTD/svg11.dtd" >
<svg xmlns="http://www.w3.org/2000/svg" xmlns:xlink="http://www.w3.org/1999/xlink" version="1.1" viewBox="-10 0 792 1000">
  <g transform="matrix(1 0 0 -1 0 800)">
   <path fill="currentColor"
d="M41 -3q-7 0 -13.5 3.5t-6.5 10.5q0 8 7 12.5t16 7.5q15 5 26.5 12t11.5 27v285q-10 0 -23 0.5t-29 1.5q-6 1 -10 11.5t-4 17.5q0 4 3 6.5t6 3.5q14 5 28.5 10t28.5 13q4 69 30 117t64.5 78t81.5 44t81 14q66 0 103.5 -20.5t37.5 -50.5q0 -22 -16.5 -40t-35.5 -18
q-9 0 -17 8.5t-18 21.5q-13 16 -34 31t-56 15q-39 0 -64.5 -39.5t-25.5 -121.5v-17q0 -13 7.5 -17.5t17.5 -4.5h191q4 0 4 -11q0 -9 -2 -21.5t-4.5 -22t-6.5 -9.5h-167q-27 0 -33.5 -7.5t-6.5 -15.5v-258q0 -20 15 -29t37 -14q9 -2 14.5 -7t5.5 -13q0 -6 -5 -10t-12 -4
q-20 0 -40.5 1.5t-40 2.5t-37.5 1q-17 0 -34.5 -1t-36 -2.5t-38.5 -1.5zM344 -3q-6 0 -13 3.5t-7 10.5q0 8 5.5 12.5t13.5 7.5q28 8 35.5 15.5t7.5 23.5v285q-10 0 -23 0.5t-29 1.5q-6 1 -10 11.5t-4 17.5q0 4 3 6.5t6 3.5q13 5 27 11t30 13q4 81 30 136t64.5 88t81.5 47.5
t80 14.5q69 0 99.5 -19t30.5 -59q0 -23 -10.5 -36.5t-29.5 -13.5q-9 0 -17.5 8t-18.5 20q-17 19 -40 36.5t-56 17.5q-40 0 -61.5 -34.5t-21.5 -110.5v-82q0 -8 5 -11t11 -3h113q8 0 12 -5t4 -11q0 -9 -2.5 -19t-6.5 -17q-4 -8 -8 -8h-92q-22 0 -29 -5t-7 -17v-250
q0 -26 12 -36.5t53 -19.5q20 -3 20 -18q0 -6 -5 -11t-12 -5q-30 0 -67.5 2.5t-63.5 2.5q-17 0 -34.5 -1t-36.5 -2.5t-39 -1.5z" />
  </g>

</svg>
