<?xml version="1.0" standalone="no"?>
<!DOCTYPE svg PUBLIC "-//W3C//DTD SVG 1.1//EN" "http://www.w3.org/Graphics/SVG/1.1/DTD/svg11.dtd" >
<svg xmlns="http://www.w3.org/2000/svg" xmlns:xlink="http://www.w3.org/1999/xlink" version="1.1" viewBox="-10 0 680 1000">
  <g transform="matrix(1 0 0 -1 0 800)">
   <path fill="currentColor"
d="M512 -14q-64 0 -98 33t-34 91v234q0 9 -6.5 13t-22.5 5h-15q-6 0 -10.5 11.5t-4.5 20.5q0 6 5 8q13 5 25.5 12t26.5 15q2 18 2.5 39t0.5 43v44q0 29 -4.5 51.5t-18.5 34.5t-43 12q-47 0 -74.5 -40.5t-27.5 -131.5v-407q0 -21 15 -29.5t37 -13.5q8 -2 14 -7t6 -13
q0 -6 -6 -10t-11 -4q-20 0 -41 1.5t-40 2.5t-37 1q-17 0 -34.5 -1t-36 -2.5t-38.5 -1.5q-5 0 -12.5 3.5t-7.5 10.5q0 8 7.5 12.5t15.5 7.5q15 5 26.5 12t11.5 27v285q-10 0 -23 0.5t-29 1.5q-6 1 -9.5 11.5t-3.5 17.5t9 10q12 5 27 10t29 13q2 81 27.5 136.5t66 88.5
t86.5 47.5t88 14.5q88 0 124.5 -40t36.5 -101q0 -24 -0.5 -46t-1 -42t-0.5 -38q0 -11 6.5 -15.5t18.5 -4.5h116q2 0 5 -7t3 -13q0 -15 -4 -27.5t-8 -12.5h-97q-23 0 -31.5 -5t-8.5 -18l3 -195q0 -43 18 -66t47 -23t42 6t24 11q4 2 7 2q5 0 7.5 -6t2.5 -14q0 -2 -3 -6
q-6 -9 -28 -23t-52 -25t-65 -11z" />
  </g>

</svg>
