<?xml version="1.0" standalone="no"?>
<!DOCTYPE svg PUBLIC "-//W3C//DTD SVG 1.1//EN" "http://www.w3.org/Graphics/SVG/1.1/DTD/svg11.dtd" >
<svg xmlns="http://www.w3.org/2000/svg" xmlns:xlink="http://www.w3.org/1999/xlink" version="1.1" viewBox="-10 0 701 1000">
  <g transform="matrix(1 0 0 -1 0 800)">
   <path fill="currentColor"
d="M216 -200q-139 0 -139 58q0 20 17.5 39t34.5 19q11 0 22 -6t20 -18q18 -23 28 -36.5t21 -13.5q30 0 46.5 38.5t16.5 126.5v145q0 9 -18 9q-32 0 -69.5 0.5t-74.5 0.5h-65q-10 0 -25 8t-15 16t12 23.5t32 42.5l270 361q15 19 22 27.5t24 8.5q13 0 29 -8t27.5 -18.5
t11.5 -19.5q0 -15 -2 -30.5t-3.5 -34.5t-1.5 -49v-269q0 -6 4 -6q8 -1 16.5 -1h15.5q12 0 23 0.5t25 1.5q10 0 10 -8q0 -13 -7 -26.5t-14 -13.5q-9 0 -18 0.5t-19 0.5q-7 0 -14 -0.5t-12 -1.5q-4 -1 -7 -3t-3 -3v-23q0 -74 -19.5 -146t-55.5 -118q-28 -35 -65 -54t-81 -19z
M107 212h165q4 0 7.5 2.5t3.5 5.5v219q0 16 -4 17t-9 -6l-167 -229q-1 -2 -1 -5.5t5 -3.5zM491 -187q-25 0 -25 16q0 7 6 10t16 6q27 7 46 19t29.5 29.5t10.5 39.5q0 19 -12 29.5t-29 14.5q-18 5 -30.5 19.5t-12.5 38.5q0 26 21 43.5t48 17.5q45 0 73 -28.5t28 -74.5
q0 -41 -15 -73.5t-39.5 -57t-54 -37t-60.5 -12.5z" />
  </g>

</svg>
