<?xml version="1.0" standalone="no"?>
<!DOCTYPE svg PUBLIC "-//W3C//DTD SVG 1.1//EN" "http://www.w3.org/Graphics/SVG/1.1/DTD/svg11.dtd" >
<svg xmlns="http://www.w3.org/2000/svg" xmlns:xlink="http://www.w3.org/1999/xlink" version="1.1" viewBox="-10 0 736 1000">
  <g transform="matrix(1 0 0 -1 0 800)">
   <path fill="currentColor"
d="M41 -3q-7 0 -14.5 3.5t-7.5 10.5q0 9 6.5 14t17.5 7q38 8 55 21t17 45v453q0 32 -13.5 45t-52.5 23q-22 5 -22 21q0 7 6.5 11t13.5 4q23 0 49 -1t50.5 -2.5t44.5 -1.5q21 0 46.5 1t52 2t48.5 1q9 0 13.5 -3.5t4.5 -10.5q0 -10 -5.5 -14t-15.5 -7q-40 -12 -53 -25t-13 -44
v-165q0 -10 1 -13.5t5 -3.5q2 0 15 7q22 11 53.5 18t72.5 7q66 0 111 -25t68.5 -68t23.5 -98v-110q0 -30 15 -43.5t53 -23.5q11 -3 17.5 -7t6.5 -13q0 -7 -6 -11t-15 -4q-22 0 -49 1.5t-53.5 2.5t-46.5 1t-43 -1t-47.5 -2.5t-47.5 -1.5q-7 0 -14.5 3.5t-7.5 10.5q0 9 7 14
t17 7q31 7 46 20.5t15 45.5v107q0 41 -11 72.5t-32.5 49.5t-55.5 18q-31 0 -54.5 -6t-34.5 -14q-4 -4 -6.5 -7t-2.5 -11v-208q0 -30 13 -44t46 -23q11 -2 17.5 -6.5t6.5 -13.5q0 -7 -5.5 -11t-14.5 -4q-22 0 -47.5 1.5t-49.5 2.5t-44 1q-21 0 -47 -1t-53 -2.5t-50 -1.5z" />
  </g>

</svg>
