<?xml version="1.0" standalone="no"?>
<!DOCTYPE svg PUBLIC "-//W3C//DTD SVG 1.1//EN" "http://www.w3.org/Graphics/SVG/1.1/DTD/svg11.dtd" >
<svg xmlns="http://www.w3.org/2000/svg" xmlns:xlink="http://www.w3.org/1999/xlink" version="1.1" viewBox="-10 0 431 1000">
  <g transform="matrix(1 0 0 -1 0 800)">
   <path fill="currentColor"
d="M42 -285q-7 0 -13.5 3.5t-6.5 10.5q0 8 6.5 12.5t16.5 7.5q21 7 29 14t8 24v512q0 21 -5.5 34.5t-24.5 18.5q-5 2 -9 5.5t-4 12.5q0 14 12 17q34 8 70.5 20.5t64.5 26.5q5 3 12.5 7t11.5 4q9 0 9 -11q0 -6 -0.5 -20.5t-1 -30.5t-1.5 -27q0 -10 4 -10q14 19 33.5 39t44 34
t49.5 14q35 0 49.5 -13t14.5 -34q0 -15 -8.5 -33t-21.5 -31t-28 -13q-9 0 -19 4.5t-20 8.5q-10 5 -19.5 9.5t-17.5 4.5q-17 0 -32 -8t-23.5 -28.5t-8.5 -58.5v-444q0 -22 13.5 -31.5t39.5 -17.5q10 -3 16 -7t6 -12q0 -6 -5 -10t-12 -4q-30 0 -62.5 2.5t-57.5 2.5
q-17 0 -34.5 -1t-36 -2.5t-38.5 -1.5z" />
  </g>

</svg>
