<?xml version="1.0" standalone="no"?>
<!DOCTYPE svg PUBLIC "-//W3C//DTD SVG 1.1//EN" "http://www.w3.org/Graphics/SVG/1.1/DTD/svg11.dtd" >
<svg xmlns="http://www.w3.org/2000/svg" xmlns:xlink="http://www.w3.org/1999/xlink" version="1.1" viewBox="-10 0 839 1000">
  <g transform="matrix(1 0 0 -1 0 800)">
   <path fill="currentColor"
d="M744 654q8 0 14.5 -3.5t8.5 -10.5q6 -27 18.5 -60.5t23 -64t10.5 -47.5q0 -16 -15 -16q-7 0 -12 3.5t-10 13.5q-17 38 -49.5 47t-71.5 9h-67q-7 0 -8.5 -5.5t7.5 -12.5q57 -33 93 -69t53.5 -80t17.5 -100q0 -64 -27.5 -115t-75 -85.5t-108.5 -53t-130 -18.5
q-67 0 -128 18t-108 52.5t-74.5 84.5t-27.5 114q0 56 17 100.5t53.5 81t92.5 69.5q8 6 8.5 11t-5.5 8h-96q-33 0 -58 -13.5t-38 -44.5q-4 -9 -9.5 -13t-12.5 -4q-15 0 -15 17q0 12 6 32.5t15 45.5t17.5 49.5t14.5 45.5q2 7 8.5 10.5t14.5 3.5q7 0 28.5 -1t52.5 -1
q21 0 43 -0.5t45 -0.5q17 -1 34 -1h35h38q7 0 7 -11q0 -14 -7.5 -34t-18.5 -30q-27 -24 -50.5 -63.5t-39 -91.5t-15.5 -108q0 -58 11 -109.5t32.5 -90t54.5 -60.5t78 -22q44 0 76.5 21t54 58.5t31.5 87.5t10 107q0 58 -14.5 111t-38.5 94.5t-53 66.5q-11 10 -17.5 30
t-7.5 33q0 5 1.5 8t6.5 3h38.5h36t34.5 1q21 0 41 0.5t39 0.5q34 0 56.5 1t30.5 1z" />
  </g>

</svg>
