<?xml version="1.0" standalone="no"?>
<!DOCTYPE svg PUBLIC "-//W3C//DTD SVG 1.1//EN" "http://www.w3.org/Graphics/SVG/1.1/DTD/svg11.dtd" >
<svg xmlns="http://www.w3.org/2000/svg" xmlns:xlink="http://www.w3.org/1999/xlink" version="1.1" viewBox="-10 0 736 1000">
  <g transform="matrix(1 0 0 -1 0 800)">
   <path fill="currentColor"
d="M588 -18q-60 0 -94.5 21t-62.5 73l-101 190q-11 20 -21 31.5t-22 15.5q-6 2 -10.5 2.5t-9.5 0.5t-6.5 -5t-1.5 -11l2 -200q1 -18 5 -31t16 -21t38 -16q11 -3 19 -7t8 -13q0 -7 -9 -11.5t-20 -4.5q-31 0 -54 2t-42 4t-38 2q-21 0 -40 -2.5t-41.5 -5t-56.5 -2.5
q-10 0 -19 5t-9 12q0 16 26 21q38 8 50 21t12 45v453q0 33 -13.5 46t-53.5 22q-21 5 -21 21q0 7 6.5 11t13.5 4q23 0 48.5 -1t50 -2.5t45.5 -1.5q20 0 44.5 1t51 2t48.5 1q8 0 13 -3.5t5 -10.5q0 -10 -5.5 -14t-16.5 -7q-40 -11 -51.5 -25t-11.5 -44v-177q0 -8 3 -12t7 -4
h23q37 0 63.5 29.5t43.5 70.5l35 85q14 34 30 61.5t42 44t69 16.5q42 0 61 -20.5t19 -48.5q0 -22 -12.5 -44t-38.5 -22q-19 0 -38.5 10.5t-35.5 10.5q-18 0 -34.5 -11t-28.5 -40l-29 -73q-7 -21 -20 -36t-28 -24q-6 -4 -3.5 -8t5.5 -6q38 -6 60 -25.5t46 -63.5l82 -147
q14 -25 28 -40t29 -21.5t30.5 -9t32.5 -2.5q7 0 11.5 -5t4.5 -11q0 -5 -3.5 -9.5t-7.5 -6.5q-12 -10 -45 -19.5t-72 -9.5zM334 682q-12 2 -12 9t11 21q25 33 50.5 64t54.5 61q13 14 34 12q8 -1 25.5 -7t32.5 -14t13 -17q-2 -10 -19 -22q-38 -25 -82 -50t-83 -49
q-9 -5 -16 -7t-9 -1z" />
  </g>

</svg>
