<?xml version="1.0" standalone="no"?>
<!DOCTYPE svg PUBLIC "-//W3C//DTD SVG 1.1//EN" "http://www.w3.org/Graphics/SVG/1.1/DTD/svg11.dtd" >
<svg xmlns="http://www.w3.org/2000/svg" xmlns:xlink="http://www.w3.org/1999/xlink" version="1.1" viewBox="-121 0 243 1000">
  <g transform="matrix(1 0 0 -1 0 800)">
   <path fill="currentColor"
d="M-8 -287q-48 0 -75.5 30t-27.5 78q0 25 8 48t22.5 45t32.5 41.5t38.5 35.5t40.5 27h42q-27 -24 -47 -49.5t-31 -53.5t-11 -61q0 -28 14 -42t38 -14q17 0 29.5 7t24.5 18q5 5 13.5 5t8.5 -16q0 -22 -15.5 -45t-42.5 -38.5t-62 -15.5z" />
  </g>

</svg>
