<?xml version="1.0" standalone="no"?>
<!DOCTYPE svg PUBLIC "-//W3C//DTD SVG 1.1//EN" "http://www.w3.org/Graphics/SVG/1.1/DTD/svg11.dtd" >
<svg xmlns="http://www.w3.org/2000/svg" xmlns:xlink="http://www.w3.org/1999/xlink" version="1.1" viewBox="-10 0 564 1000">
  <g transform="matrix(1 0 0 -1 0 800)">
   <path fill="currentColor"
d="M273 -14q-44 0 -87 12.5t-78.5 37t-57 61t-21.5 82.5q0 58 23 94t55.5 56.5t59.5 29.5q5 2 5 5.5t-5 4.5q-46 20 -71 51.5t-25 73.5q0 41 21 72.5t56.5 53.5t79.5 33t89 11t81 -8.5t63 -20.5q6 -2 12 -8.5t7 -16.5q5 -34 6.5 -63.5t1.5 -52.5q0 -9 -5 -14t-13 -5
q-6 0 -14 5t-10 14q-13 61 -42.5 94t-87.5 33q-32 0 -57 -17t-40 -44.5t-15 -59.5q0 -29 9 -56.5t25.5 -45t38.5 -17.5q15 0 23.5 1.5t16.5 3.5t17.5 3t27.5 1q10 0 28.5 -9t18.5 -28q0 -14 -9 -20.5t-21 -8.5t-21 -2q-15 0 -27 2t-21 3q-9 2 -17 3.5t-16 1.5
q-33 0 -53.5 -16t-29 -42t-8.5 -56q0 -55 16 -96t47.5 -63.5t79.5 -22.5q47 0 78.5 24.5t49.5 76.5q9 26 17 38.5t12 12.5q9 0 16.5 -5t7.5 -13q0 -22 -5.5 -51t-13.5 -62q-2 -14 -14 -24.5t-23 -15.5q-26 -11 -70.5 -21t-110.5 -10z" />
  </g>

</svg>
