<?xml version="1.0" standalone="no"?>
<!DOCTYPE svg PUBLIC "-//W3C//DTD SVG 1.1//EN" "http://www.w3.org/Graphics/SVG/1.1/DTD/svg11.dtd" >
<svg xmlns="http://www.w3.org/2000/svg" xmlns:xlink="http://www.w3.org/1999/xlink" version="1.1" viewBox="-161 0 322 1000">
  <g transform="matrix(1 0 0 -1 0 800)">
   <path fill="currentColor"
d="M-132 683q-19 0 -19 12q0 9 9 16l93 78q17 15 26.5 22t22.5 7t22.5 -7t26.5 -22l93 -78q9 -7 9 -15q0 -13 -19 -13q-9 0 -29.5 4.5t-45.5 12.5t-45 18q-6 4 -12 3t-12 -3q-22 -8 -46.5 -16t-44.5 -13.5t-29 -5.5z" />
  </g>

</svg>
