<?xml version="1.0" standalone="no"?>
<!DOCTYPE svg PUBLIC "-//W3C//DTD SVG 1.1//EN" "http://www.w3.org/Graphics/SVG/1.1/DTD/svg11.dtd" >
<svg xmlns="http://www.w3.org/2000/svg" xmlns:xlink="http://www.w3.org/1999/xlink" version="1.1" viewBox="-10 0 586 1000">
  <g transform="matrix(1 0 0 -1 0 800)">
   <path fill="currentColor"
d="M36 -3q-10 0 -15 3.5t-5 10.5q0 8 6 12.5t17 7.5q15 5 26.5 11t11.5 27v481q0 27 -7.5 47t-32.5 25q-10 2 -10 15t9 15q26 5 55.5 15t57 20t42.5 15q4 2 6.5 2.5t5.5 0.5q6 0 8 -3.5t2 -8.5q0 -7 -2.5 -26t-3.5 -43v-166q0 -11 5 -18t14 -12q13 -5 34.5 -7t53.5 -2
q48 0 104 2t106 4q8 0 13 -7.5t7 -16.5t-2 -15q-12 -13 -21 -25.5t-21 -28.5l-168 -267q-4 -7 -0.5 -11t15.5 -4h60q16 0 29 8t28 26q17 19 31 40t31 48q8 12 20.5 7.5t12.5 -15.5q0 -7 -5 -25t-11.5 -41.5t-13.5 -46.5t-12 -40q-1 -6 -6.5 -11t-11.5 -5q-25 0 -87.5 3
t-152.5 3q-53 0 -90 -0.5t-62.5 -1.5t-42 -1.5t-28.5 -0.5zM218 117l153 243q2 4 2 7.5t-13 3.5h-71q-13 0 -24.5 -4t-21.5 -16l-23 -30q-5 -8 -8.5 -16.5t-3.5 -18.5v-164q0 -7 3.5 -8t6.5 3z" />
  </g>

</svg>
