<?xml version="1.0" standalone="no"?>
<!DOCTYPE svg PUBLIC "-//W3C//DTD SVG 1.1//EN" "http://www.w3.org/Graphics/SVG/1.1/DTD/svg11.dtd" >
<svg xmlns="http://www.w3.org/2000/svg" xmlns:xlink="http://www.w3.org/1999/xlink" version="1.1" viewBox="-10 0 1064 1000">
  <g transform="matrix(1 0 0 -1 0 800)">
   <path fill="currentColor"
d="M752 -218q-140 0 -140 58q0 20 17.5 39t34.5 19q11 0 22 -6t20 -18q19 -23 28.5 -36.5t20.5 -13.5q23 0 40.5 12t30 36t21 59.5t12.5 83.5t4 107q0 116 -25.5 171t-80.5 55q-30 0 -55 -8t-31 -13q-9 -8 -9 -26v-204q0 -32 14.5 -44.5t48.5 -20.5q22 -5 22 -21
q0 -7 -6.5 -10.5t-13.5 -3.5q-21 0 -45.5 1.5t-49 2.5t-44.5 1t-47 -1t-54 -2.5t-49 -1.5q-9 0 -14 4t-5 11q0 9 5.5 13t16.5 7q38 12 52 25t15 41q3 119 4.5 241.5t-4.5 240.5q0 7 -3 10.5t-10 4.5h-113h-110q-13 -1 -14 -16q-10 -117 -8.5 -239.5t8.5 -241.5
q1 -28 14.5 -42t52.5 -24q10 -3 16 -7t6 -13q0 -7 -5 -11t-14 -4q-22 0 -49 1.5t-52.5 2.5t-46.5 1t-46 -1t-50 -2.5t-45 -1.5q-7 0 -13.5 3.5t-6.5 10.5q0 16 21 21q35 8 49.5 20.5t14.5 44.5v454q0 32 -13 45.5t-49 22.5q-21 5 -21 21q0 7 6.5 11t13.5 4q23 0 47 -1
t47 -2.5t43 -1.5h64.5h91.5h100.5h91.5h62q20 0 43 1.5t47.5 2.5t46.5 1q8 0 14 -4t6 -11q0 -16 -21 -21q-35 -9 -48.5 -22.5t-13.5 -45.5v-137q0 -18 2 -26.5t11 -8.5h4t4 1q20 11 50.5 19.5t70.5 8.5q63 0 113.5 -28t80 -84t29.5 -143q0 -60 -26 -128t-74 -128
q-43 -57 -85 -86t-90 -29z" />
  </g>

</svg>
