<?xml version="1.0" standalone="no"?>
<!DOCTYPE svg PUBLIC "-//W3C//DTD SVG 1.1//EN" "http://www.w3.org/Graphics/SVG/1.1/DTD/svg11.dtd" >
<svg xmlns="http://www.w3.org/2000/svg" xmlns:xlink="http://www.w3.org/1999/xlink" version="1.1" viewBox="-10 0 774 1000">
  <g transform="matrix(1 0 0 -1 0 800)">
   <path fill="currentColor"
d="M634 -125q-51 0 -85.5 12.5t-58.5 33t-44 46.5q-32 44 -58.5 88t-56.5 105q-4 11 -11 17t-16 11t-18 7t-16 2q-5 1 -8 -5t-3 -15v-79q0 -29 14.5 -42.5t53.5 -23.5q10 -3 15.5 -7t5.5 -13q0 -7 -4.5 -11t-13.5 -4q-22 0 -49 1.5t-53 2.5t-46 1q-21 0 -46 -1t-51 -2.5
t-49 -1.5q-8 0 -14 3.5t-6 10.5q0 16 21 21q38 8 53 20.5t15 44.5v454q0 32 -13 45.5t-53 22.5q-21 5 -21 21q0 7 6 11t14 4q23 0 48.5 -1t50 -2.5t45.5 -1.5q20 0 45.5 1t52 2t48.5 1q9 0 14 -3.5t5 -10.5q0 -10 -5.5 -14t-16.5 -7q-40 -11 -53 -24.5t-13 -39.5q0 -4 5 -4
q6 0 17.5 1.5t35.5 1.5q119 0 181 -41.5t62 -123.5q0 -43 -17 -74.5t-44 -53.5t-57 -36q-4 -1 -4 -5t3 -7q21 -31 40.5 -61t38.5 -57.5t38 -52t41 -44.5q33 -32 69 -38t71 -6q15 0 15 -18q0 -22 -15.5 -35t-43 -19.5t-61.5 -6.5zM297 240q56 0 84.5 36.5t28.5 96.5
q0 45 -10 75.5t-32 46t-57 15.5q-30 0 -41 -12t-11 -35v-93v-93q0 -20 10.5 -28.5t27.5 -8.5z" />
  </g>

</svg>
