<?xml version="1.0" standalone="no"?>
<!DOCTYPE svg PUBLIC "-//W3C//DTD SVG 1.1//EN" "http://www.w3.org/Graphics/SVG/1.1/DTD/svg11.dtd" >
<svg xmlns="http://www.w3.org/2000/svg" xmlns:xlink="http://www.w3.org/1999/xlink" version="1.1" viewBox="-10 0 613 1000">
  <g transform="matrix(1 0 0 -1 0 800)">
   <path fill="currentColor"
d="M35 -5q-10 0 -15.5 4.5t-5.5 10.5q0 15 22 21q34 9 48.5 21t14.5 44v378q0 33 -13.5 56t-41.5 38q-23 13 -23 26q0 7 7 12.5t20 7.5q48 7 87 19t65.5 22t35.5 10q16 0 18.5 -6t2.5 -21q0 -9 -1 -27t-2.5 -34.5t-1.5 -25.5v-139q0 -19 8 -28.5t23 -9.5h4t5 1q14 3 36.5 6
t50.5 3q92 0 148 -49.5t56 -135.5q0 -69 -34 -114t-93 -67t-135 -22q-6 0 -21 1t-44.5 2.5t-83.5 1.5q-20 0 -44 -1.5l-48 -3t-45 -1.5zM307 53q28 0 53 17.5t41 48.5t16 72q0 30 -7.5 52t-19 37.5t-25.5 25.5q-9 6 -28 13.5t-45 7.5q-16 0 -27.5 -6.5t-11.5 -24.5v-182
q0 -29 14.5 -45t39.5 -16z" />
  </g>

</svg>
