<?xml version="1.0" standalone="no"?>
<!DOCTYPE svg PUBLIC "-//W3C//DTD SVG 1.1//EN" "http://www.w3.org/Graphics/SVG/1.1/DTD/svg11.dtd" >
<svg xmlns="http://www.w3.org/2000/svg" xmlns:xlink="http://www.w3.org/1999/xlink" version="1.1" viewBox="-10 0 760 1000">
  <g transform="matrix(1 0 0 -1 0 800)">
   <path fill="currentColor"
d="M487 -14q-44 0 -79 16t-55.5 46t-20.5 72v151q0 22 -8.5 39.5t-22.5 28t-29 10.5q-14 0 -24.5 -2t-19.5 -9q-11 -7 -15 -19t-4 -39v-208q0 -20 10 -27.5t23 -12.5q8 -3 14.5 -7.5t6.5 -12.5q0 -7 -5 -11t-13 -4q-20 0 -37.5 1.5t-33.5 2.5t-33 1t-33.5 -1t-33.5 -2.5
t-37 -1.5q-10 0 -15 3.5t-5 10.5q0 8 6 12.5t17 7.5q15 5 26 11t12 28v480q0 27 -7 47t-33 25q-10 2 -10 15t9 15q26 5 55.5 15t57 20t42.5 15q4 2 6.5 2.5t5.5 0.5q6 0 8 -3.5t2 -8.5t-1.5 -14.5t-2.5 -23t-2 -31.5v-231q0 -9 1.5 -17.5t4.5 -11.5q19 19 40 34.5t46 25
t56 9.5q34 0 58 -18t37 -47t13 -64v-197q0 -27 8.5 -44.5t22.5 -26t29 -8.5q17 0 30.5 12.5t22.5 35.5t13.5 56.5t4.5 76.5q0 41 -10.5 69.5t-27.5 49.5t-36 38q-7 7 -7 11q0 15 17 27.5t38 20.5t34 8q24 0 46.5 -16t41 -42.5t29.5 -60t11 -67.5q0 -61 -21.5 -109t-57.5 -82
t-79 -52t-86 -18z" />
  </g>

</svg>
