<?xml version="1.0" standalone="no"?>
<!DOCTYPE svg PUBLIC "-//W3C//DTD SVG 1.1//EN" "http://www.w3.org/Graphics/SVG/1.1/DTD/svg11.dtd" >
<svg xmlns="http://www.w3.org/2000/svg" xmlns:xlink="http://www.w3.org/1999/xlink" version="1.1" viewBox="-10 0 588 1000">
  <g transform="matrix(1 0 0 -1 0 800)">
   <path fill="currentColor"
d="M508 -157q-15 0 -20 12t-7 22q-1 14 -2.5 25.5t-3.5 21.5q-6 45 -13.5 61.5t-37.5 16.5q-17 0 -31 -1t-29 -2.5t-35 -1.5q-6 0 -11.5 3.5t-5.5 10.5q0 8 6 13t14 7q15 5 25 11.5t10 26.5v94q0 18 -8 23t-20 5h-97q-12 0 -20.5 -5.5t-8.5 -22.5v-94q0 -20 11 -26.5
t25 -11.5q8 -3 14 -7.5t6 -12.5q0 -6 -6 -10t-12 -4q-19 0 -36 1.5t-32 2.5t-33 1q-17 0 -34.5 -1t-36 -2.5t-38.5 -1.5q-6 0 -13 3.5t-7 10.5q0 8 7.5 12.5t15.5 7.5q15 5 26.5 11.5t11.5 27.5v281q0 20 -11.5 27t-26.5 11q-8 3 -15.5 8t-7.5 13q0 7 7.5 10.5t13.5 3.5
q20 0 38 -1t35.5 -2.5t34.5 -1.5q18 0 33 1.5t31 2.5t36 1q6 0 12 -4t6 -10q0 -7 -6 -12.5t-14 -8.5q-14 -5 -24.5 -11t-10.5 -26v-88q0 -17 9 -22t21 -5h96q12 0 20 5t8 22v88q0 20 -9.5 26t-24.5 11q-8 3 -14 8t-6 13q0 7 6 10.5t12 3.5q20 0 36.5 -1t33 -2.5t33.5 -1.5
q18 0 34 1.5t33.5 2.5t37.5 1q6 0 12 -3.5t6 -10.5q0 -8 -6 -13.5t-14 -7.5q-15 -4 -26.5 -10.5t-11.5 -26.5v-268q0 -22 4 -30t14 -12q7 -2 12.5 -2.5t10.5 -2.5q18 -4 18 -13q0 -5 -1.5 -13t-3.5 -22q-3 -23 -7 -43t-7.5 -36.5t-4.5 -30.5q-1 -18 -8.5 -27t-17.5 -9z" />
  </g>

</svg>
