<?xml version="1.0" standalone="no"?>
<!DOCTYPE svg PUBLIC "-//W3C//DTD SVG 1.1//EN" "http://www.w3.org/Graphics/SVG/1.1/DTD/svg11.dtd" >
<svg xmlns="http://www.w3.org/2000/svg" xmlns:xlink="http://www.w3.org/1999/xlink" version="1.1" viewBox="-10 0 837 1000">
  <g transform="matrix(1 0 0 -1 0 800)">
   <path fill="currentColor"
d="M677 -204q-12 0 -19.5 9t-7.5 21t4 22q7 15 14.5 39.5t12.5 48t5 33.5q0 18 -12 25.5t-41 7.5q-14 0 -36 -1t-47 -2.5t-48 -1.5q-7 0 -13.5 3.5t-6.5 10.5q0 16 22 21q37 8 51.5 20t14.5 43v345q0 13 -9 5l-289 -322q-7 -7 -10 -12.5t-3 -14.5q0 -29 15 -41.5t53 -22.5
q10 -3 15.5 -7t5.5 -13q0 -7 -4.5 -11t-13.5 -4q-22 0 -49 1.5t-53 2.5t-46 1t-44.5 -1t-50 -2.5t-48.5 -1.5q-7 0 -13.5 3.5t-6.5 10.5q0 16 21 21q38 8 51.5 20.5t13.5 44.5v454q0 33 -12 46t-51 22q-22 5 -22 21q0 7 6.5 11t13.5 4q23 0 48.5 -1t49.5 -2.5t44 -1.5
t45.5 1t52 2t48.5 1q9 0 13.5 -3.5t4.5 -10.5q0 -10 -5.5 -14t-15.5 -7q-41 -11 -53.5 -25t-12.5 -44v-339q0 -13 3 -14.5t12 7.5l286 318q10 10 10 22v10q0 30 -14 43t-52 22q-22 5 -22 21q0 7 6.5 11t13.5 4q23 0 49 -1t50.5 -2.5t44.5 -1.5t45 1t51 2t48 1q9 0 14 -3.5
t5 -10.5q0 -10 -6 -14t-16 -7q-40 -11 -51.5 -25t-11.5 -44v-460q0 -21 8 -33t23.5 -18.5t38.5 -9.5q8 -1 10.5 -7.5t0.5 -12.5q-2 -8 -12.5 -26.5t-24.5 -43.5t-28.5 -53t-25.5 -57q-7 -17 -16.5 -25t-20.5 -8zM419 693q-60 0 -96 17t-52 43t-16 51q0 34 17 53t43 19
q30 0 42.5 -11.5t12.5 -29.5q0 -7 -1 -13t-3 -13q-1 -5 -2 -11t-1 -12q0 -15 15.5 -28t47.5 -13q44 0 70 24t38 68q5 14 9 19.5t11 5.5q8 0 11 -6t3 -15q0 -37 -18.5 -71.5t-52 -55.5t-78.5 -21z" />
  </g>

</svg>
