<?xml version="1.0" standalone="no"?>
<!DOCTYPE svg PUBLIC "-//W3C//DTD SVG 1.1//EN" "http://www.w3.org/Graphics/SVG/1.1/DTD/svg11.dtd" >
<svg xmlns="http://www.w3.org/2000/svg" xmlns:xlink="http://www.w3.org/1999/xlink" version="1.1" viewBox="-10 0 671 1000">
  <g transform="matrix(1 0 0 -1 0 800)">
   <path fill="currentColor"
d="M308 -51q-10 0 -17.5 9.5t-7.5 17.5q0 15 20 47t55 69v176q0 38 -16 59.5t-45 21.5q-16 0 -34 -4t-33 -15q-17 -13 -17 -63v-198q0 -20 11 -26.5t25 -11.5q8 -3 14 -7.5t6 -12.5q0 -6 -5.5 -10t-11.5 -4q-20 0 -37 1.5t-32.5 2.5t-32.5 1t-34.5 -1t-36 -2.5t-38.5 -1.5
q-6 0 -13 3.5t-7 10.5q0 8 7.5 12.5t15.5 7.5q15 5 26.5 11.5t11.5 26.5v229q0 22 -7 37.5t-25 18.5q-4 1 -7.5 5.5t-3.5 12.5q0 14 10 17q35 8 76.5 22t69.5 29q4 1 8.5 4t8.5 3q6 0 7.5 -4t1.5 -8q0 -8 -2.5 -26t-2.5 -32q0 -3 0.5 -7.5t1.5 -5.5q23 19 48.5 35t53.5 25
t59 9q32 0 57.5 -18.5t39.5 -50t14 -71.5v-110q18 7 36 10.5t36 3.5q34 0 61.5 -17.5t27.5 -61.5q0 -28 -16 -51t-42 -40t-55 -26.5t-53 -9.5q-34 0 -59.5 9.5t-41.5 29.5q-11 -13 -21 -26t-16 -25q-8 -14 -16 -22t-23 -8zM531 67q18 0 29 7.5t11 21.5q0 20 -11.5 28.5
t-25.5 8.5q-10 0 -21.5 -5.5t-23.5 -14.5q4 -26 17 -36t25 -10z" />
  </g>

</svg>
