<?xml version="1.0" standalone="no"?>
<!DOCTYPE svg PUBLIC "-//W3C//DTD SVG 1.1//EN" "http://www.w3.org/Graphics/SVG/1.1/DTD/svg11.dtd" >
<svg xmlns="http://www.w3.org/2000/svg" xmlns:xlink="http://www.w3.org/1999/xlink" version="1.1" viewBox="-10 0 545 1000">
  <g transform="matrix(1 0 0 -1 0 800)">
   <path fill="currentColor"
d="M241 -21q-5 0 -13 13.5t-16 31.5t-14 29l-124 280q-9 22 -20.5 37t-29.5 22q-10 4 -14.5 8.5t-4.5 12.5t8.5 10t15.5 2q24 0 38 -1.5t27 -3t34 -1.5q20 0 36.5 1.5t34.5 3t41 1.5q7 0 15.5 -3t8.5 -10q0 -9 -7.5 -12t-15.5 -7q-20 -8 -24 -29.5t5 -45.5l60 -158
q4 -12 7 0q8 35 20 74t28 76.5t35 68t41 49.5t46 19q37 0 51.5 -16t14.5 -39q0 -22 -12 -42t-31 -20q-10 0 -17 2t-15 5q-10 3 -17 6t-14 3q-11 0 -28 -29t-34.5 -76.5t-32.5 -102.5t-23 -108q-1 -11 -10 -23.5t-21.5 -20t-28.5 -7.5zM369 458q-6 0 -13.5 5t-13.5 12
q-19 22 -40.5 47t-41 51.5t-34.5 49.5q-2 5 -5 10t-3 10q0 15 16 21t46 6q16 0 25 -7.5t16 -21.5q7 -15 17.5 -43t21 -57.5t15.5 -49.5q3 -13 3 -19q0 -7 -2.5 -10.5t-6.5 -3.5zM213 458q-6 0 -13.5 5t-13.5 12q-19 22 -40.5 47t-40.5 51t-34 50l-6 10t-3 10q0 15 16.5 21
t46.5 6q15 0 24.5 -7.5t15.5 -21.5q7 -15 17.5 -43t21.5 -57.5t16 -49.5q3 -13 3 -19q0 -7 -2.5 -10.5t-7.5 -3.5z" />
  </g>

</svg>
