<?xml version="1.0" standalone="no"?>
<!DOCTYPE svg PUBLIC "-//W3C//DTD SVG 1.1//EN" "http://www.w3.org/Graphics/SVG/1.1/DTD/svg11.dtd" >
<svg xmlns="http://www.w3.org/2000/svg" xmlns:xlink="http://www.w3.org/1999/xlink" version="1.1" viewBox="-10 0 821 1000">
  <g transform="matrix(1 0 0 -1 0 800)">
   <path fill="currentColor"
d="M176 -3q-8 0 -15.5 3.5t-7.5 10.5q0 9 7 14t17 7q38 8 55 21t17 45v450q0 19 -2.5 26.5t-9.5 11.5q-7 6 -16.5 7t-20.5 1h-7q-32 0 -60.5 -15.5t-45.5 -38.5q-5 -7 -14.5 -19.5t-20 -22t-20.5 -9.5q-8 0 -11.5 5.5t-3.5 11.5q0 13 7 26q19 37 27.5 70.5t12.5 74.5
q2 16 9.5 22t18.5 6q9 0 16 -13.5t16 -23.5q10 -12 34.5 -15.5t51.5 -3.5q38 -1 71.5 -1h69.5q43 0 86.5 0.5t88.5 0.5q26 0 46.5 6t29.5 11q17 12 28.5 25t24.5 13q7 0 10.5 -5.5t3.5 -13.5q0 -5 -1 -13t-3 -16q-9 -33 -14 -64t-5 -54v-18q0 -35 -17 -35q-10 0 -16 9.5
t-12 28.5q-7 24 -18.5 39.5t-29.5 23.5t-48 8h-47q-24 1 -39.5 -12t-15.5 -34v-163q0 -10 1 -13.5t5 -3.5q2 0 14 7q20 11 50 18t69 7q61 0 103.5 -25t64.5 -68t22 -98v-121q0 -24 8 -36t35 -20q10 -3 17 -7t7 -13q0 -7 -6 -11t-15 -4q-14 0 -36 1.5t-45.5 2.5t-43.5 1
t-42.5 -1t-44 -2.5t-38.5 -1.5q-7 0 -15 3.5t-8 10.5q0 9 7 14t17 8q23 6 36 19.5t13 45.5v107q0 41 -9 72.5t-28.5 49.5t-49.5 18q-28 0 -49.5 -6t-29.5 -14q-5 -4 -7 -7t-2 -11v-221q0 -20 4.5 -33t38.5 -21q10 -2 16.5 -6.5t6.5 -13.5q0 -7 -5.5 -11t-14.5 -4
q-22 0 -43.5 1.5t-41 2.5t-39.5 1q-21 0 -47 -1t-52.5 -2.5t-49.5 -1.5z" />
  </g>

</svg>
