<?xml version="1.0" standalone="no"?>
<!DOCTYPE svg PUBLIC "-//W3C//DTD SVG 1.1//EN" "http://www.w3.org/Graphics/SVG/1.1/DTD/svg11.dtd" >
<svg xmlns="http://www.w3.org/2000/svg" xmlns:xlink="http://www.w3.org/1999/xlink" version="1.1" viewBox="-10 0 434 1000">
  <g transform="matrix(1 0 0 -1 0 800)">
   <path fill="currentColor"
d="M52 172q-12 0 -17 9.5t-5 18.5q0 13 8 21t20 8h242q10 0 16 -5t6 -13q0 -1 -0.5 -1.5t-0.5 -2.5q-3 -13 -13.5 -24t-26.5 -11h-229zM45 -3q-8 0 -14 3.5t-6 10.5q0 8 6.5 12.5t16.5 7.5q22 7 29.5 15t7.5 23v230q0 21 -5.5 34.5t-23.5 18.5q-5 2 -9.5 5.5t-4.5 12.5
q0 14 13 17q31 8 69.5 21t65.5 26q6 4 13 7.5t11 3.5q9 0 9 -11q0 -5 -0.5 -20.5t-1.5 -31.5t-1 -27q0 -9 3 -9q16 21 36 41t44 33t48 13q34 0 48.5 -13t14.5 -34q0 -15 -8 -33t-21.5 -31t-28.5 -13q-9 0 -19 4.5t-20 9.5q-10 4 -19.5 8.5t-17.5 4.5q-26 0 -44.5 -19
t-18.5 -76v-163q0 -20 12 -29.5t40 -17.5q11 -3 16.5 -7.5t5.5 -12.5q0 -14 -17 -14q-30 0 -62 2.5t-58 2.5q-17 0 -34.5 -1t-36 -2.5t-38.5 -1.5z" />
  </g>

</svg>
