<?xml version="1.0" standalone="no"?>
<!DOCTYPE svg PUBLIC "-//W3C//DTD SVG 1.1//EN" "http://www.w3.org/Graphics/SVG/1.1/DTD/svg11.dtd" >
<svg xmlns="http://www.w3.org/2000/svg" xmlns:xlink="http://www.w3.org/1999/xlink" version="1.1" viewBox="-28 0 427 1000">
  <g transform="matrix(1 0 0 -1 0 800)">
   <path fill="currentColor"
d="M22 -287q-18 0 -29 4t-11 12q0 7 5 12t14 9q16 7 30 18.5t27 37.5q10 22 16 53.5t9.5 67t4.5 68.5t1 57v292q0 19 -11 29t-37 16q-8 2 -12.5 7.5t-4.5 12.5q0 6 5.5 10t11.5 4q27 0 55.5 -2.5t52.5 -2.5h146q31 0 48 6t31 6q3 0 7 -3t4 -9q0 -17 -2.5 -47t-2.5 -50
q0 -17 -2.5 -34.5t-12.5 -17.5q-14 0 -19 27q-3 16 -10.5 34t-20 31t-28.5 13h-15.5h-16h-14.5q-14 0 -17.5 -9.5t-3.5 -19.5l1 -254q0 -31 -2 -72.5t-9.5 -86t-26.5 -84.5q-14 -34 -41.5 -65t-59 -50.5t-60.5 -19.5zM22 159q-6 0 -11 4.5t-5 11.5q0 11 8.5 23.5t22.5 12.5
h292q6 0 10.5 -4.5t4.5 -12.5q0 -7 -12 -21t-28 -14h-282z" />
  </g>

</svg>
