<?xml version="1.0" standalone="no"?>
<!DOCTYPE svg PUBLIC "-//W3C//DTD SVG 1.1//EN" "http://www.w3.org/Graphics/SVG/1.1/DTD/svg11.dtd" >
<svg xmlns="http://www.w3.org/2000/svg" xmlns:xlink="http://www.w3.org/1999/xlink" version="1.1" viewBox="-10 0 471 1000">
  <g transform="matrix(1 0 0 -1 0 800)">
   <path fill="currentColor"
d="M434 -286q-8 0 -17.5 11.5t-17.5 23.5q-7 11 -17 24t-22 27q-36 -37 -84.5 -61.5t-105.5 -24.5q-74 0 -116.5 36t-42.5 90q0 32 16.5 57t42 43t53.5 27t51 9q32 0 68.5 -14t69.5 -37q0 7 1 13.5t0 13.5q-2 39 -16.5 69t-43 47t-71.5 17q-30 0 -61.5 -5.5t-44.5 -5.5
q-7 0 -8.5 3t-1.5 5q0 4 3 9.5t6 9.5l159 259q2 4 2 7.5t-13 3.5q-13 1 -26.5 1h-26.5q-12 0 -24.5 -4t-22.5 -13q-7 -5 -21 -22.5t-27.5 -35t-19.5 -25.5q-5 -7 -10.5 -11.5t-10.5 -3.5t-6.5 7.5t0.5 13.5q3 10 9 31t10 48t4 55q0 11 6 18t13 7q9 0 20 -10q4 -4 19.5 -5.5
t31.5 -1.5q13 0 25.5 0.5t21.5 0.5q60 0 109.5 1.5t98.5 2.5q9 0 14 -7.5t6 -16.5t-3 -15q-11 -14 -20 -26t-20 -28q-20 -32 -38.5 -63t-36.5 -62t-38 -64q-4 -7 -0.5 -10t10.5 -3q5 0 10.5 1t7.5 1q47 0 82 -20.5t54 -56t19 -79.5q0 -63 -46 -131q24 -29 37.5 -57t13.5 -50
q0 -9 -2 -16.5t-12 -7.5zM164 -229q47 0 79 25.5t53 64.5q-31 26 -70.5 44t-80.5 18q-34 0 -48.5 -18.5t-14.5 -41.5q0 -44 24.5 -68t57.5 -24z" />
  </g>

</svg>
