<?xml version="1.0" standalone="no"?>
<!DOCTYPE svg PUBLIC "-//W3C//DTD SVG 1.1//EN" "http://www.w3.org/Graphics/SVG/1.1/DTD/svg11.dtd" >
<svg xmlns="http://www.w3.org/2000/svg" xmlns:xlink="http://www.w3.org/1999/xlink" version="1.1" viewBox="-10 0 964 1000">
  <g transform="matrix(1 0 0 -1 0 800)">
   <path fill="currentColor"
d="M682 -14q-49 0 -89 18t-63.5 55.5t-23.5 96.5v124q0 17 -13 17h-225q-14 0 -14 -16v-182q0 -28 15 -42.5t53 -24.5q10 -3 15.5 -7t5.5 -13q0 -7 -4.5 -11t-13.5 -4q-22 0 -49 1.5t-53 2.5t-46 1t-44.5 -1t-49 -2.5t-44.5 -1.5q-7 0 -13.5 3.5t-6.5 10.5q0 16 21 21
q35 8 47.5 20.5t12.5 44.5v454q0 33 -11.5 46t-46.5 22q-22 5 -22 21q0 7 6.5 11t13.5 4q23 0 47 -1t47 -2.5t43 -1.5t45.5 1t52 2t48.5 1q9 0 13.5 -3.5t4.5 -10.5q0 -10 -5.5 -14t-15.5 -7q-40 -11 -53 -25t-13 -44v-175q0 -8 4.5 -11t11.5 -3h223q13 0 13 14v175
q0 30 -12.5 44t-53.5 25q-10 3 -15.5 7t-5.5 14q0 7 5 10.5t13 3.5q22 0 49 -1t53.5 -2t45.5 -1q20 0 42 1.5t46 2.5t47 1q7 0 13.5 -4t6.5 -11q0 -16 -22 -21q-35 -9 -47 -22.5t-12 -45.5v-396q0 -39 12 -62t29.5 -33t34.5 -10q32 0 55 15.5t35.5 45.5t12.5 75
q0 49 -20 95.5t-64 90.5q-3 3 -5 6t-2 8q0 9 9 23.5t22.5 28.5t27.5 23.5t22 9.5q36 0 61.5 -26t39.5 -72t14 -104q0 -57 -18.5 -108t-53 -90.5t-82.5 -62t-107 -22.5z" />
  </g>

</svg>
