<?xml version="1.0" standalone="no"?>
<!DOCTYPE svg PUBLIC "-//W3C//DTD SVG 1.1//EN" "http://www.w3.org/Graphics/SVG/1.1/DTD/svg11.dtd" >
<svg xmlns="http://www.w3.org/2000/svg" xmlns:xlink="http://www.w3.org/1999/xlink" version="1.1" viewBox="-10 0 736 1000">
  <g transform="matrix(1 0 0 -1 0 800)">
   <path fill="currentColor"
d="M348 -17q-9 0 -14.5 6.5t-10 17t-9.5 22.5q-12 28 -20 46.5t-14.5 36t-16.5 39.5l-162 397q-11 25 -29.5 44t-47.5 26q-10 4 -17 8t-7 14q0 7 6.5 10.5t14.5 3.5q20 0 46.5 -1t53.5 -2t46 -1q20 0 49 1.5t58 2t49 0.5q9 0 18 -3.5t9 -10.5q0 -8 -9 -13.5t-20 -7.5
q-29 -7 -43 -15t-14 -27q0 -4 1.5 -11t2.5 -13l124 -347q2 -11 8 -11q5 0 9 12l101 298q18 55 36.5 87.5t36.5 48.5t35.5 21t34.5 5q31 0 47 -16.5t16 -40.5q0 -27 -19 -52q-36 6 -63 -1.5t-45.5 -29.5t-33.5 -58q-19 -50 -35.5 -94.5t-31.5 -90t-36 -98.5q-8 -26 -17 -48
t-19.5 -48.5t-27.5 -67.5q-4 -10 -11 -19t-14 -14.5t-15 -5.5zM341 682q12 2 12 9t-11 21q-25 33 -50.5 64t-54.5 61q-13 14 -34 12q-8 -1 -25.5 -7t-32.5 -14t-13 -17q2 -10 19 -22q38 -25 82 -50t83 -49q9 -5 16 -7t9 -1zM510 682q12 2 12 9t-11 21q-25 33 -50.5 64
t-54.5 61q-13 14 -34 12q-8 -1 -25.5 -7t-32.5 -14t-13 -17q2 -10 19 -22q38 -25 82 -50t83 -49q9 -5 16 -7t9 -1z" />
  </g>

</svg>
