<?xml version="1.0" standalone="no"?>
<!DOCTYPE svg PUBLIC "-//W3C//DTD SVG 1.1//EN" "http://www.w3.org/Graphics/SVG/1.1/DTD/svg11.dtd" >
<svg xmlns="http://www.w3.org/2000/svg" xmlns:xlink="http://www.w3.org/1999/xlink" version="1.1" viewBox="-10 0 1000 1000">
  <g transform="matrix(1 0 0 -1 0 800)">
   <path fill="currentColor"
d="M358 -19q-3 0 -8.5 6.5t-5.5 10.5q2 15 3.5 28.5t1.5 24.5v6q-20 -31 -55.5 -51t-76.5 -20q-56 0 -99.5 28t-68.5 76t-25 105q0 68 30 121t84 83.5t125 30.5q15 0 31.5 -2.5t30.5 -6.5q14 -3 13 -3q4 0 4 13v119q0 36 -9 52t-30 20q-12 3 -12 15q0 13 11 15
q37 8 76.5 20.5t64.5 23.5q13 6 18 7.5t6 1.5q11 0 11 -12q0 3 -1 -7.5t-2 -27.5l-2 -34l-5 -504q0 -34 5 -49t18 -15q5 0 10.5 1t28.5 2q14 1 14 -10q0 -8 -6 -17t-11 -9q-36 -4 -75.5 -13t-76.5 -23q-6 -3 -10 -4.5t-7 -1.5zM268 54q15 0 37.5 8t36.5 23l-1 221
q0 18 -13.5 35.5t-34 29.5t-40.5 12q-24 0 -44.5 -19.5t-33 -55t-12.5 -86.5q0 -41 8.5 -72t23.5 -52.5t34 -32.5t39 -11zM597 -5q-4 0 -13.5 9.5t-9.5 18.5q0 6 7.5 18t17.5 25.5t16 23.5q24 38 43.5 67.5t38 58t39.5 63t50 81.5q2 4 2 8t-12 4l-55 1q-14 0 -24.5 -4
t-20.5 -15q-4 -4 -13.5 -16.5t-19.5 -27.5t-18.5 -27t-12.5 -16q-6 -7 -19 -3t-12 13q3 11 9 35.5t11 52t5 46.5q0 11 7.5 18.5t15.5 7.5t19 -10q5 -4 18.5 -5.5t29.5 -1.5q11 0 22.5 0.5t18.5 0.5q48 0 104 1t106 3q8 0 13 -7.5t7 -16.5t-2 -15q-12 -13 -21 -25.5
t-21 -28.5l-166 -268q-4 -7 -1.5 -11t15.5 -4h63q14 0 26 5t24 18q16 17 26 33.5t28 48.5q7 12 21 9t14 -15q0 -6 -3 -22t-8 -36t-10.5 -41t-11.5 -38q-4 -16 -19 -16q-24 0 -85 3t-151 3q-23 0 -48.5 -3t-39.5 -3z" />
  </g>

</svg>
