<?xml version="1.0" standalone="no"?>
<!DOCTYPE svg PUBLIC "-//W3C//DTD SVG 1.1//EN" "http://www.w3.org/Graphics/SVG/1.1/DTD/svg11.dtd" >
<svg xmlns="http://www.w3.org/2000/svg" xmlns:xlink="http://www.w3.org/1999/xlink" version="1.1" viewBox="-10 0 475 1000">
  <g transform="matrix(1 0 0 -1 0 800)">
   <path fill="currentColor"
d="M300 -279q-44 0 -73 16.5t-48 43t-32 59t-24.5 64.5t-26.5 59.5t-39 44.5q-1 1 -4 3t-5 4.5t-4 3.5q-8 15 -12 48t-3 64q0 5 6 7.5t13 2.5q16 0 20 -10q9 -25 25 -48t36.5 -38t45.5 -15q27 0 40.5 17t13.5 38q0 26 -21 43.5t-48 31.5q-27 15 -53 33.5t-43.5 45
t-17.5 64.5t21 67.5t57.5 46t82.5 16.5q33 0 60.5 -7.5t37.5 -14.5q8 -10 12.5 -38t4.5 -61q0 -3 -4.5 -6t-11.5 -3t-15.5 4.5t-9.5 9.5q-13 33 -32 53t-47 20q-23 0 -39.5 -14t-16.5 -36q0 -14 10 -26.5t26 -23t34 -20.5q39 -20 65 -40.5t39 -45.5t13 -61q0 -53 -29 -87.5
t-88 -44.5q17 -27 29.5 -64t24 -72t24 -58.5t28.5 -23.5q12 0 16.5 13.5t4.5 28.5q0 9 -5.5 14.5t-5.5 15.5q0 11 11 24.5t28 25.5t35.5 19.5t31.5 7.5q10 0 13.5 -13t3.5 -26q0 -40 -17.5 -77t-52 -61t-85.5 -24z" />
  </g>

</svg>
