<?xml version="1.0" standalone="no"?>
<!DOCTYPE svg PUBLIC "-//W3C//DTD SVG 1.1//EN" "http://www.w3.org/Graphics/SVG/1.1/DTD/svg11.dtd" >
<svg xmlns="http://www.w3.org/2000/svg" xmlns:xlink="http://www.w3.org/1999/xlink" version="1.1" viewBox="-10 0 353 1000">
  <g transform="matrix(1 0 0 -1 0 800)">
   <path fill="currentColor"
d="M42 358q-11 0 -16.5 9t-5.5 18q0 13 8 21.5t20 8.5h254q9 0 15 -5t6 -13q0 -1 -0.5 -2t-0.5 -2q-3 -13 -13.5 -24t-26.5 -11h-240zM42 236q-11 0 -16.5 9.5t-5.5 18.5q0 13 8 21.5t20 8.5h254q9 0 15 -5.5t6 -12.5q0 -1 -0.5 -2t-0.5 -3q-3 -12 -13.5 -23.5t-26.5 -11.5
h-240zM149 -14q-7 0 -11.5 6t-4.5 13v658q0 15 13 24t27.5 13.5t18.5 4.5q8 0 13.5 -5.5t5.5 -12.5v-668q0 -14 -13 -21t-28 -9.5t-21 -2.5z" />
  </g>

</svg>
