<?xml version="1.0" standalone="no"?>
<!DOCTYPE svg PUBLIC "-//W3C//DTD SVG 1.1//EN" "http://www.w3.org/Graphics/SVG/1.1/DTD/svg11.dtd" >
<svg xmlns="http://www.w3.org/2000/svg" xmlns:xlink="http://www.w3.org/1999/xlink" version="1.1" viewBox="-92 0 657 1000">
  <g transform="matrix(1 0 0 -1 0 800)">
   <path fill="currentColor"
d="M57 -200q-139 0 -139 58q0 20 17 39t34 19q12 0 22 -6t20 -18q19 -22 28.5 -36t21.5 -14q30 0 47 38.5t17 126.5l-1 539q0 34 -12.5 49t-47.5 24q-13 3 -18.5 8.5t-5.5 12.5q0 6 6 10.5t16 4.5q25 0 51 -1t51 -2.5t47 -1.5h86.5h88.5q41 0 74.5 5.5t55.5 5.5q7 0 15 -4
t9 -15q2 -23 3 -48t1.5 -48.5t0.5 -39.5q0 -20 -12 -20q-5 0 -11.5 4t-8.5 12q-7 25 -15 44.5t-20 32.5q-14 14 -31 20t-42 6h-75q-24 0 -38 -12.5t-14 -33.5q-1 -18 -1 -41.5v-42.5v-45t1 -45q0 -12 6 -18t17 -6q24 0 49.5 0.5t47.5 0.5q25 0 37.5 15t20.5 36q4 8 9.5 13
t11.5 5q5 0 9 -6t3 -16q-2 -21 -3.5 -40t-1.5 -38t1 -36t3 -39q2 -14 -1 -20t-9 -6q-7 0 -14 7t-9 16q-9 30 -21 40.5t-30 10.5h-23h-23h-30h-30q-11 0 -16.5 -6t-5.5 -18l1 -126q0 -91 -19.5 -163t-55.5 -118q-27 -35 -64 -54t-81 -19z" />
  </g>

</svg>
