<?xml version="1.0" standalone="no"?>
<!DOCTYPE svg PUBLIC "-//W3C//DTD SVG 1.1//EN" "http://www.w3.org/Graphics/SVG/1.1/DTD/svg11.dtd" >
<svg xmlns="http://www.w3.org/2000/svg" xmlns:xlink="http://www.w3.org/1999/xlink" version="1.1" viewBox="-10 0 374 1000">
  <g transform="matrix(1 0 0 -1 0 800)">
   <path fill="currentColor"
d="M36 -3q-8 0 -14 3.5t-6 10.5q0 16 21 21q38 8 53 20.5t15 44.5v454q0 32 -13 45.5t-53 22.5q-21 5 -21 21q0 7 6 11t14 4q23 0 48.5 -1t50 -2.5t45.5 -1.5q20 0 45.5 1t52 2t48.5 1q9 0 14 -3.5t5 -10.5q0 -10 -5.5 -14t-16.5 -7q-40 -11 -53 -24.5t-13 -44.5v-452
q0 -29 14.5 -42.5t53.5 -23.5q10 -3 15.5 -7t5.5 -13q0 -7 -4.5 -11t-13.5 -4q-22 0 -49 1.5t-53 2.5t-46 1q-21 0 -46 -1t-51 -2.5t-49 -1.5zM41 847q6 0 22.5 -5t37.5 -13t40.5 -16t31.5 -15q7 -4 12 -4t12 4q13 7 32.5 15.5t40.5 16.5t37.5 13t23.5 5q16 0 16 -13
q0 -9 -7 -16l-104 -92q-18 -15 -27.5 -22t-23.5 -7q-13 0 -23 7t-27 22l-105 93q-8 7 -8 15q0 12 19 12z" />
  </g>

</svg>
