<?xml version="1.0" standalone="no"?>
<!DOCTYPE svg PUBLIC "-//W3C//DTD SVG 1.1//EN" "http://www.w3.org/Graphics/SVG/1.1/DTD/svg11.dtd" >
<svg xmlns="http://www.w3.org/2000/svg" xmlns:xlink="http://www.w3.org/1999/xlink" version="1.1" viewBox="-10 0 740 1000">
  <g transform="matrix(1 0 0 -1 0 800)">
   <path fill="currentColor"
d="M412 -200q-139 0 -139 58q0 20 17 39t34 19q11 0 22 -6t20 -18q19 -23 28.5 -36.5t20.5 -13.5q31 0 47 38.5t16 126.5v524q0 31 -11.5 48t-48.5 17h-52q-29 0 -40 -12.5t-11 -35.5q0 -143 -15 -242t-39 -163t-53 -98.5t-58.5 -48t-52.5 -13.5q-42 0 -63 21t-21 49
q0 22 8 38t25 16q29 -7 52.5 -10t41.5 -3q25 0 46 23.5t36.5 76.5t24.5 141t9 217q0 30 -20 43t-67 24q-22 5 -22 21q0 7 6.5 11t13.5 4q20 0 47 -1t53.5 -2.5t46.5 -1.5h33h23h30h55.5h99.5q20 0 45.5 1t52 2t48.5 1q9 0 14 -3.5t5 -10.5q0 -10 -5.5 -14t-16.5 -7
q-40 -11 -53 -24.5t-13 -44.5v-464q0 -28 -10.5 -61t-29 -67t-41.5 -64q-29 -39 -65.5 -66.5t-73.5 -27.5z" />
  </g>

</svg>
