<?xml version="1.0" standalone="no"?>
<!DOCTYPE svg PUBLIC "-//W3C//DTD SVG 1.1//EN" "http://www.w3.org/Graphics/SVG/1.1/DTD/svg11.dtd" >
<svg xmlns="http://www.w3.org/2000/svg" xmlns:xlink="http://www.w3.org/1999/xlink" version="1.1" viewBox="-10 0 747 1000">
  <g transform="matrix(1 0 0 -1 0 800)">
   <path fill="currentColor"
d="M273.158 -10.0488q-61.209 0 -114.196 26.4932t-85.4189 73.543q-32.4316 47.0488 -32.4316 108.259q0 42.9375 15.9873 82.2207q15.9873 39.2842 46.5918 70.3457t74.4561 49.333t99.5801 18.2715q14.6172 0 30.1484 -1.82715l31.0605 -3.6543
q10.9629 -1.82715 21.9258 -2.28418q10.9629 -0.456055 18.2715 -0.456055q34.7168 0 74 0.456055q39.2832 0.457031 75.3701 0.914062q36.0859 0.456055 61.209 0.913086q25.124 0.457031 31.5186 0.457031q5.48145 0 11.877 -3.6543q6.39453 -3.6543 6.39453 -12.79
q0 -11.876 3.6543 -30.1475t6.39453 -37q2.74121 -18.7285 2.74121 -31.5186q0 -5.48145 -2.28418 -9.59277q-2.2832 -4.11133 -6.85156 -4.11133q-3.6543 0 -8.22266 3.19824q-4.56738 3.19727 -8.22168 9.59277q-13.7041 32.8887 -26.4932 49.332
q-12.791 16.4453 -44.7656 16.4453h-50.2461q-12.791 0 -21.9258 -7.30859q-9.13672 -7.30859 -9.13672 -24.667v-83.1357q0 -9.13477 5.02539 -12.333q5.02441 -3.19727 13.2461 -3.19727h42.9385q15.5303 0 25.123 8.67871q9.59277 8.67969 17.8154 31.5186
q3.6543 8.22168 7.30859 10.0498q3.6543 1.82617 8.22168 1.82617q3.6543 0 6.39551 -3.6543q2.74023 -3.6543 0.913086 -12.7891q-1.82715 -19.1855 -2.74121 -32.8887q-0.913086 -13.7041 -0.913086 -28.3213q0 -15.5303 0.457031 -26.4932
q0.456055 -10.9629 2.28418 -32.8887q1.82617 -11.877 -0.457031 -16.4453q-2.28418 -4.56738 -5.93848 -4.56738t-9.13574 4.11133q-5.48145 4.11035 -8.22266 12.333q-5.48047 22.8398 -13.7031 33.3457t-24.666 10.5059h-48.4199q-6.39453 0 -10.9629 -5.02441
t-4.56836 -9.59277v-96.8389q0 -14.6172 6.85254 -21.4688q6.85156 -6.85254 22.3818 -6.85254h58.4688q29.2344 0 52.5312 21.0127q23.2959 21.0127 32.4316 50.2471q1.82715 6.39453 6.39453 9.5918q4.56836 3.19727 8.22266 3.19727q4.56836 0 7.76562 -4.56738
t3.19727 -10.9629q0 -22.8389 -6.85156 -46.1357q-6.85156 -23.2959 -15.0742 -52.5303q-1.82715 -9.13574 -7.30859 -13.7041q-5.48145 -4.56738 -14.6172 -4.56738h-34.2588t-55.7285 0.457031q-31.5186 0.456055 -65.7773 0.913086t-67.1475 0.457031
q-10.9629 0 -26.4941 -0.457031q-15.5303 -0.457031 -32.8887 -1.37012q-36.543 -8.22168 -73.0859 -8.22168zM280.467 31.9746q19.1855 0 33.8027 9.13672q14.6172 9.13477 21.9258 26.4932v263.109q0 10.0498 -2.28418 16.4443t-6.85156 9.13574
q-11.876 10.0498 -24.667 15.0742q-12.7891 5.02441 -30.1475 5.02441q-30.1475 0 -49.333 -21.0117q-19.1855 -21.0127 -27.8643 -57.0986q-8.67871 -36.0869 -8.67871 -83.5928q0 -52.9863 10.9629 -94.5547q10.9629 -41.5674 31.9746 -64.8633
q21.0127 -23.2969 51.1602 -23.2969z" />
  </g>

</svg>
