<?xml version="1.0" standalone="no"?>
<!DOCTYPE svg PUBLIC "-//W3C//DTD SVG 1.1//EN" "http://www.w3.org/Graphics/SVG/1.1/DTD/svg11.dtd" >
<svg xmlns="http://www.w3.org/2000/svg" xmlns:xlink="http://www.w3.org/1999/xlink" version="1.1" viewBox="-10 0 578 1000">
  <g transform="matrix(1 0 0 -1 0 800)">
   <path fill="currentColor"
d="M504 -157q-11 0 -19 10t-9 24q-2 14 -3.5 26t-3.5 22q-5 45 -20.5 61t-47.5 16q-22 0 -31 -1t-18.5 -2.5t-34.5 -1.5q-24 0 -24 15q0 8 6.5 12.5t14.5 6.5q13 5 22.5 13t9.5 30v197q0 22 -8 39.5t-21.5 28t-30.5 10.5q-15 0 -31 -5t-33 -17q-8 -6 -10.5 -13.5t-2.5 -22.5
v-219q0 -20 9 -27.5t22 -12.5q8 -3 14 -7.5t6 -12.5q0 -15 -17 -15q-20 0 -36.5 1.5t-32 2.5t-33.5 1q-17 0 -33.5 -1t-33.5 -2.5t-37 -1.5t-20 14q0 13 23 20q15 5 26 11t12 28v480q0 27 -7 47t-32 25q-11 2 -11 15t10 15q23 5 52.5 14.5t57.5 20t43 15.5q8 3 13 3
q6 0 8 -3.5t2 -8.5t-1.5 -14.5t-2.5 -23t-2 -31.5v-231q0 -10 1 -18t5 -11q15 13 35.5 28.5t47 27.5t60.5 12q53 0 87 -37.5t34 -104.5v-226q0 -6 8.5 -9.5t24.5 -3.5q9 0 17.5 2.5t16.5 2.5q13 0 13 -7v-5t-1 -6q-1 -10 -5.5 -34.5t-9.5 -57.5t-8 -67q-1 -18 -10.5 -27
t-19.5 -9z" />
  </g>

</svg>
