<?xml version="1.0" standalone="no"?>
<!DOCTYPE svg PUBLIC "-//W3C//DTD SVG 1.1//EN" "http://www.w3.org/Graphics/SVG/1.1/DTD/svg11.dtd" >
<svg xmlns="http://www.w3.org/2000/svg" xmlns:xlink="http://www.w3.org/1999/xlink" version="1.1" viewBox="-101 0 201 1000">
  <g transform="matrix(1 0 0 -1 0 800)">
   <path fill="currentColor"
d="M-56 458q-14 0 -19.5 4.5t-5.5 10.5q0 5 4.5 10.5t12.5 6.5q34 7 52 22.5t18 37.5q0 20 -14 30t-39 14q-22 3 -33 15.5t-11 34.5q0 21 16 34.5t47 13.5q32 0 59 -13t43 -36.5t16 -53.5q0 -44 -24 -73.5t-58 -43.5t-64 -14z" />
  </g>

</svg>
