<?xml version="1.0" standalone="no"?>
<!DOCTYPE svg PUBLIC "-//W3C//DTD SVG 1.1//EN" "http://www.w3.org/Graphics/SVG/1.1/DTD/svg11.dtd" >
<svg xmlns="http://www.w3.org/2000/svg" xmlns:xlink="http://www.w3.org/1999/xlink" version="1.1" viewBox="-105 0 498 1000">
  <g transform="matrix(1 0 0 -1 0 800)">
   <path fill="currentColor"
d="M37 -288q-18 0 -40.5 4t-43.5 11t-34.5 16t-13.5 21q0 30 15.5 52t34.5 22q11 0 20 -13t20 -28q10 -13 23.5 -24t32.5 -11q20 0 31 26t15 66.5t4 80.5q0 69 -9 139t-20 141q-10 65 -18 129t-8 124q0 71 31 124.5t81.5 83.5t108.5 30q33 0 59.5 -7.5t41.5 -22t15 -36.5
q0 -21 -14.5 -37t-31.5 -16q-15 0 -25 10l-21 21q-10 11 -21 20t-28 9q-7 0 -18 -5.5t-21.5 -20t-17.5 -43.5t-7 -77q0 -63 9.5 -129.5t19.5 -133.5q12 -68 22 -136t10 -132q0 -70 -22.5 -129t-67.5 -94t-112 -35z" />
  </g>

</svg>
