<?xml version="1.0" standalone="no"?>
<!DOCTYPE svg PUBLIC "-//W3C//DTD SVG 1.1//EN" "http://www.w3.org/Graphics/SVG/1.1/DTD/svg11.dtd" >
<svg xmlns="http://www.w3.org/2000/svg" xmlns:xlink="http://www.w3.org/1999/xlink" version="1.1" viewBox="-10 0 431 1000">
  <g transform="matrix(1 0 0 -1 0 800)">
   <path fill="currentColor"
d="M42 -3q-8 0 -14 3.5t-6 10.5q0 8 6 12.5t17 7.5q22 7 29.5 15t7.5 23v230q0 21 -5.5 34.5t-24.5 18.5q-5 2 -9 5.5t-4 12.5q0 14 12 17q32 8 70.5 21t65.5 26q5 4 12.5 7.5t10.5 3.5q9 0 9 -11q0 -5 -0.5 -20.5t-1 -31.5t-1.5 -27q0 -9 4 -9q15 21 35.5 41t44.5 33t47 13
q35 0 49.5 -13t14.5 -34q0 -15 -8.5 -33t-21.5 -31t-28 -13q-9 0 -19 4.5t-20 9.5q-10 4 -19.5 8.5t-17.5 4.5q-26 0 -45 -19t-19 -76v-163q0 -20 12.5 -29.5t40.5 -17.5q11 -3 16.5 -7.5t5.5 -12.5q0 -14 -17 -14q-30 0 -62 2.5t-58 2.5q-17 0 -34.5 -1t-36 -2.5
t-38.5 -1.5zM123 -290q-22 0 -22 13q0 9 15 16q21 9 37 26t16 41q0 22 -11 32t-33 15q-18 5 -28 16.5t-10 33.5q0 19 16 33t45 14q44 0 70.5 -29t26.5 -73q0 -34 -14.5 -59.5t-35.5 -43t-41 -26.5t-31 -9z" />
  </g>

</svg>
