<?xml version="1.0" standalone="no"?>
<!DOCTYPE svg PUBLIC "-//W3C//DTD SVG 1.1//EN" "http://www.w3.org/Graphics/SVG/1.1/DTD/svg11.dtd" >
<svg xmlns="http://www.w3.org/2000/svg" xmlns:xlink="http://www.w3.org/1999/xlink" version="1.1" viewBox="-10 0 737 1000">
  <g transform="matrix(1 0 0 -1 0 800)">
   <path fill="currentColor"
d="M477 -14q-56 0 -100.5 27t-71 70.5t-26.5 91.5q0 8 -9 8h-41q-12 0 -12 -14v-101q0 -15 11 -22.5t37 -15.5q8 -3 13 -7t5 -12q0 -7 -4.5 -10t-11.5 -3q-19 0 -39.5 1t-40 2t-37.5 1q-17 0 -35.5 -1t-37.5 -2.5t-39 -1.5q-6 0 -11.5 3.5t-5.5 9.5q0 8 5 13t13 7
q25 6 35.5 13t11.5 24v286q0 16 -11 23t-35 14q-8 2 -13.5 7.5t-5.5 12.5q0 6 6 9.5t12 3.5q20 0 39 -1t37 -2.5t35 -1.5q18 0 37.5 1t39.5 2t39 1q7 0 11.5 -3t4.5 -10q0 -8 -5.5 -12t-13.5 -7q-25 -8 -35.5 -16t-10.5 -22v-112q0 -5 3.5 -8t9.5 -3h39q6 0 9 2.5t4 9.5
q8 55 38.5 98t76 68.5t99.5 25.5q59 0 106 -29t74.5 -76.5t27.5 -103.5q0 -64 -25.5 -118.5t-75.5 -87t-126 -32.5zM494 33q25 0 40.5 17.5t22 54.5t6.5 95q0 64 -11 105t-29.5 60.5t-40.5 19.5q-37 0 -51.5 -41.5t-14.5 -121.5q0 -68 11.5 -109.5t29 -60.5t37.5 -19z" />
  </g>

</svg>
