<?xml version="1.0" standalone="no"?>
<!DOCTYPE svg PUBLIC "-//W3C//DTD SVG 1.1//EN" "http://www.w3.org/Graphics/SVG/1.1/DTD/svg11.dtd" >
<svg xmlns="http://www.w3.org/2000/svg" xmlns:xlink="http://www.w3.org/1999/xlink" version="1.1" viewBox="-10 0 1213 1000">
  <g transform="matrix(1 0 0 -1 0 800)">
   <path fill="currentColor"
d="M382 -7q-34 0 -74.5 2t-75.5 3.5t-53 1.5q-20 0 -44 -0.5t-49.5 -1.5t-48.5 -1q-7 0 -13 3.5t-6 10.5q0 9 5.5 14t15.5 7q38 8 52 20.5t14 44.5v454q0 32 -13 45.5t-53 22.5q-10 2 -15.5 7t-5.5 14q0 7 6 11t13 4q23 0 48.5 -1t50 -2.5t44.5 -1.5q16 0 42 1.5t56.5 3
t59 3t46.5 1.5q76 0 140.5 -23.5t113 -67t75.5 -102.5t27 -130q0 -67 -24 -128.5t-70 -110t-112 -76.5t-152 -28zM367 44q68 0 114 33.5t68.5 93t22.5 138.5q0 67 -14.5 121.5t-42 93.5t-68 60.5t-91.5 21.5q-32 0 -53.5 -2t-32.5 -10t-11 -26v-436q0 -33 12.5 -52t37 -27.5
t58.5 -8.5zM810 -5q-4 0 -13.5 9.5t-9.5 18.5q0 6 7.5 18t17.5 25.5t16 23.5q24 38 43.5 67.5t38 58t39.5 63t50 81.5q2 4 2 8t-12 4l-55 1q-14 0 -24.5 -4t-20.5 -15q-4 -4 -13.5 -16.5t-19.5 -27.5t-18.5 -27t-12.5 -16q-6 -7 -19 -3t-12 13q3 11 9 35.5t11 52t5 46.5
q0 11 7.5 18.5t15.5 7.5t19 -10q5 -4 18.5 -5.5t29.5 -1.5q11 0 22.5 0.5t18.5 0.5q48 0 104 1t106 3q8 0 13 -7.5t7 -16.5t-2 -15q-12 -13 -21 -25.5t-21 -28.5l-166 -268q-4 -7 -1.5 -11t15.5 -4h63q14 0 26 5t24 18q16 17 26 33.5t28 48.5q7 12 21 9t14 -15q0 -6 -3 -22
t-8 -36t-10.5 -41t-11.5 -38q-4 -16 -19 -16q-24 0 -85 3t-151 3q-23 0 -48.5 -3t-39.5 -3z" />
  </g>

</svg>
