<?xml version="1.0" standalone="no"?>
<!DOCTYPE svg PUBLIC "-//W3C//DTD SVG 1.1//EN" "http://www.w3.org/Graphics/SVG/1.1/DTD/svg11.dtd" >
<svg xmlns="http://www.w3.org/2000/svg" xmlns:xlink="http://www.w3.org/1999/xlink" version="1.1" viewBox="-10 0 617 1000">
  <g transform="matrix(1 0 0 -1 0 800)">
   <path fill="currentColor"
d="M571 -4q-22 0 -48.5 1.5t-52.5 3t-46 1.5q-16 0 -39 -0.5t-47.5 -1.5t-49 -1.5t-45.5 -0.5q-108 0 -166 50.5t-58 132.5q0 60 32 106t85.5 72.5t115.5 26.5q26 0 46 -4t33 -12q2 -1 5.5 -1.5t4.5 -0.5q5 0 6 13t1 37v149q0 20 -11.5 31t-33.5 11h-89q-41 0 -63.5 -29
t-40.5 -76q-4 -8 -10.5 -15t-12.5 -7q-4 0 -11 6t-7 16q0 18 3.5 44t7.5 54t7 52q2 11 7 16t14 5q12 0 22.5 -7t29.5 -13.5t57 -6.5l228 1q30 0 63 2.5t63 2.5q9 0 13.5 -3.5t4.5 -10.5q0 -10 -5.5 -14t-16.5 -7q-40 -11 -52.5 -24.5t-12.5 -44.5v-452q0 -29 14.5 -42.5
t52.5 -24.5q11 -3 16.5 -7t5.5 -13q0 -7 -5.5 -11t-14.5 -4zM291 45q27 0 42 15.5t15 44.5v147q0 47 -20 65t-57 18q-18 0 -33.5 -6t-24.5 -15q-8 -10 -15 -23t-11 -34.5t-4 -56.5q0 -70 29 -112.5t79 -42.5z" />
  </g>

</svg>
