<?xml version="1.0" standalone="no"?>
<!DOCTYPE svg PUBLIC "-//W3C//DTD SVG 1.1//EN" "http://www.w3.org/Graphics/SVG/1.1/DTD/svg11.dtd" >
<svg xmlns="http://www.w3.org/2000/svg" xmlns:xlink="http://www.w3.org/1999/xlink" version="1.1" viewBox="-10 0 633 1000">
  <g transform="matrix(1 0 0 -1 0 800)">
   <path fill="currentColor"
d="M34 -181q-7 0 -13.5 4t-6.5 10q0 17 21 22q38 8 53.5 20.5t15.5 44.5v631q0 31 -12.5 45t-52.5 23q-21 5 -21 21q0 7 6.5 11t13.5 4q23 0 47 -1t46 -2.5t40 -1.5q12 0 23 0.5t23 1.5t28 1q14 0 16 -3.5t2 -11.5q0 -11 -1 -20t-2.5 -18.5t-1.5 -21.5v-14q0 -4 2 -9t4 -1
q32 48 75 79t104 31q58 0 95.5 -23t56 -61t18.5 -83q0 -63 -26.5 -120t-70.5 -108.5t-98.5 -93t-110.5 -71.5q-24 -14 -36.5 -31t-12.5 -45v-108q0 -28 14.5 -41.5t52.5 -23.5q11 -3 16.5 -7t5.5 -14q0 -7 -5 -10.5t-14 -3.5q-22 0 -49 1t-52.5 2t-46.5 1t-46 -1t-51 -2.5
t-49 -1.5zM282 143q41 28 72.5 59.5t52.5 68t32 80t11 94.5q0 61 -20.5 93.5t-54.5 32.5q-26 0 -47.5 -14.5t-36.5 -37t-24 -47.5t-9 -45v-264q0 -21 6 -24.5t18 4.5z" />
  </g>

</svg>
