<?xml version="1.0" standalone="no"?>
<!DOCTYPE svg PUBLIC "-//W3C//DTD SVG 1.1//EN" "http://www.w3.org/Graphics/SVG/1.1/DTD/svg11.dtd" >
<svg xmlns="http://www.w3.org/2000/svg" xmlns:xlink="http://www.w3.org/1999/xlink" version="1.1" viewBox="-92 0 649 1000">
  <g transform="matrix(1 0 0 -1 0 800)">
   <path fill="currentColor"
d="M57 -200q-139 0 -139 58q0 20 17 39t34 19q12 0 22.5 -6t19.5 -18q19 -23 28.5 -36.5t21.5 -13.5q30 0 46 38.5t16 126.5v544q0 32 -12.5 46t-48.5 22q-13 3 -18 8.5t-5 12.5q0 6 6 10.5t16 4.5q23 0 47 -1t47.5 -2.5t44.5 -1.5h250q29 0 44 2.5t24 2.5q11 0 17 -3.5
t6 -10.5q2 -36 4 -77t2 -67q0 -9 -4 -13.5t-9 -4.5q-6 0 -11.5 3.5t-7.5 12.5q-7 27 -18 50t-26 39q-14 12 -30.5 19t-37.5 7h-71q-26 0 -40.5 -16.5t-14.5 -62.5v-445q0 -27 -10.5 -60t-29 -67.5t-40.5 -64.5q-30 -39 -66.5 -66.5t-73.5 -27.5zM30 298q-10 0 -14.5 9
t-4.5 16q0 8 10 15.5t22 7.5h386q7 0 13 -4t6 -11q0 -1 -0.5 -1.5t-0.5 -2.5q-7 -12 -16.5 -20.5t-25.5 -8.5h-375z" />
  </g>

</svg>
