<?xml version="1.0" standalone="no"?>
<!DOCTYPE svg PUBLIC "-//W3C//DTD SVG 1.1//EN" "http://www.w3.org/Graphics/SVG/1.1/DTD/svg11.dtd" >
<svg xmlns="http://www.w3.org/2000/svg" xmlns:xlink="http://www.w3.org/1999/xlink" version="1.1" viewBox="-10 0 626 1000">
  <g transform="matrix(1 0 0 -1 0 800)">
   <path fill="currentColor"
d="M41 -5q-10 0 -15.5 4.5t-5.5 10.5q0 15 22 21q34 9 48.5 21t14.5 44v455q0 32 -13 45.5t-53 22.5q-21 5 -21 21q0 7 6 11t13 4q23 0 49 -1t50.5 -2.5t45.5 -1.5q20 0 45.5 1t52 2t48.5 1q9 0 14 -3.5t5 -10.5q0 -10 -5.5 -14t-16.5 -7q-40 -11 -53.5 -24.5t-13.5 -44.5
v-147q0 -33 31 -33h4.5t5.5 1q13 2 36 5.5t49 3.5q94 0 149.5 -48t55.5 -134q0 -57 -18 -90t-42 -50t-43 -28q-31 -18 -69.5 -26t-89.5 -8q-6 0 -20 1t-42.5 2t-82.5 1q-21 0 -45.5 -1t-49.5 -2.5t-46 -1.5zM313 36q28 0 53 20.5t41 56t16 80.5q0 36 -8.5 60t-21 38.5
t-22.5 21.5q-9 6 -26 14t-44 8q-6 0 -12.5 -0.5t-10.5 -3.5q-9 -2 -14 -9t-5 -20v-202q0 -14 2.5 -26t9.5 -20q8 -8 18.5 -13t23.5 -5z" />
  </g>

</svg>
