<?xml version="1.0" standalone="no"?>
<!DOCTYPE svg PUBLIC "-//W3C//DTD SVG 1.1//EN" "http://www.w3.org/Graphics/SVG/1.1/DTD/svg11.dtd" >
<svg xmlns="http://www.w3.org/2000/svg" xmlns:xlink="http://www.w3.org/1999/xlink" version="1.1" viewBox="-10 0 812 1000">
  <g transform="matrix(1 0 0 -1 0 800)">
   <path fill="currentColor"
d="M595 -21q-8 0 -8 9q0 13 2.5 28t2.5 26q0 5 -0.5 8t-0.5 5q-20 -22 -43.5 -37.5t-50.5 -23.5t-59 -8q-28 0 -52 16t-36 45q-6 13 -12 13q-5 0 -21 -17q-27 -27 -63 -42t-77 -15q-30 0 -53.5 18.5t-37 50t-13.5 71.5v187q0 23 -8.5 37t-31.5 19q-5 1 -10.5 5.5t-5.5 12.5
t4.5 12.5t10.5 5.5q42 2 75.5 8.5t67.5 14.5q5 2 11 3.5t12 1.5q15 0 14 -14q-4 -23 -6 -38.5t-2 -38.5v-191q0 -24 7.5 -42.5t20 -28.5t28.5 -11q16 0 30.5 4.5t27.5 18.5q6 5 11 20.5t5 41.5v161q0 25 -12.5 39.5t-38.5 15.5q-12 1 -18.5 6t-6.5 16q0 10 7.5 15t17.5 5
q51 3 80 5.5t48 5.5t36 7q3 1 7 2t7 1q15 0 15 -12q0 -4 -1 -8.5t-3 -9.5q-1 -4 -2.5 -16.5t-3 -26.5t-1.5 -23v-186q0 -24 7.5 -42.5t20 -28.5t28.5 -11q16 0 31 4.5t28 18.5q6 5 10.5 20.5t4.5 41.5v161q0 17 -6.5 28.5t-18.5 18.5t-28 8q-11 1 -18 5.5t-7 16.5
q0 10 7.5 15t17.5 5q51 3 81 5.5t49 5.5t37 7q3 1 7 2t7 1q15 0 15 -12q0 -4 -1 -8.5t-3 -9.5q-1 -4 -2.5 -17t-3 -27t-1.5 -22v-229q0 -24 5 -33t13 -9q5 0 14.5 -0.5t13.5 -0.5q9 0 14 -5t5 -13q0 -9 -4 -14.5t-13 -6.5q-48 -4 -87 -16.5t-66 -23.5q-7 -2 -14 -4.5
t-13 -2.5z" />
  </g>

</svg>
