<?xml version="1.0" standalone="no"?>
<!DOCTYPE svg PUBLIC "-//W3C//DTD SVG 1.1//EN" "http://www.w3.org/Graphics/SVG/1.1/DTD/svg11.dtd" >
<svg xmlns="http://www.w3.org/2000/svg" xmlns:xlink="http://www.w3.org/1999/xlink" version="1.1" viewBox="-10 0 513 1000">
  <g transform="matrix(1 0 0 -1 0 800)">
   <path fill="currentColor"
d="M55 -7q-9 0 -14 6.5t-5 14.5q0 6 8.5 16.5t24 26t37.5 37t49.5 50t57.5 64.5q10 10 -2 24l-173 178q-7 8 -11.5 16t-4.5 9q0 7 4.5 12t13.5 5q21 0 46.5 -3t47.5 -3h208q25 0 39 3.5t23 6.5q6 2 11 4t9 2q12 0 15 -17q7 -29 11.5 -62.5t4.5 -55.5q0 -8 -3 -13.5t-8 -5.5
q-6 0 -10.5 4.5t-8.5 14.5q-11 34 -24.5 50t-28.5 21t-35 5h-98q-13 0 -12 -5.5t8 -12.5l110 -107q5 -6 7.5 -13.5t-12.5 -19.5l-140 -124q-4 -4 -1 -7.5t10 -3.5l159 1q26 0 43.5 8t25.5 18q11 12 17.5 19.5t14.5 7.5q10 0 10 -11t-3 -21q-5 -17 -14 -40.5t-16 -45
t-10 -33.5q-1 -7 -5.5 -11.5t-12.5 -4.5q-10 0 -20.5 1t-20 1.5t-20.5 0.5h-233q-26 -1 -42.5 -4t-26.5 -3z" />
  </g>

</svg>
