<?xml version="1.0" standalone="no"?>
<!DOCTYPE svg PUBLIC "-//W3C//DTD SVG 1.1//EN" "http://www.w3.org/Graphics/SVG/1.1/DTD/svg11.dtd" >
<svg xmlns="http://www.w3.org/2000/svg" xmlns:xlink="http://www.w3.org/1999/xlink" version="1.1" viewBox="-10 0 575 1000">
  <g transform="matrix(1 0 0 -1 0 800)">
   <path fill="currentColor"
d="M281 -162q-10 0 -16.5 10.5t-8.5 24.5q-4 36 -10 65t-18.5 46t-36.5 17h-46q-16 0 -32.5 -1t-34 -2t-37.5 -1q-5 0 -12.5 3.5t-7.5 10.5q0 8 7.5 12.5t15.5 7.5q15 5 26 11.5t11 26.5v282q0 20 -11 27t-26 11q-8 3 -15.5 8t-7.5 13q0 7 7 10.5t13 3.5q20 0 38 -1
t35.5 -2.5t34.5 -1.5q18 0 33 1.5t31.5 2.5t36.5 1q6 0 11.5 -4t5.5 -10q0 -7 -6 -12.5t-14 -8.5q-14 -5 -24.5 -11t-10.5 -26v-268q0 -17 8.5 -25t22.5 -8h81q15 0 23 8t8 25v268q0 20 -10 26.5t-25 10.5q-8 3 -14 8t-6 13q0 7 5.5 10.5t11.5 3.5q20 0 37 -1t33.5 -2.5
t33.5 -1.5q18 0 34 1.5t33.5 2.5t37.5 1q6 0 12 -3.5t6 -10.5q0 -8 -6.5 -13t-14.5 -8q-15 -4 -25.5 -10.5t-10.5 -26.5v-284q0 -19 10.5 -25.5t25.5 -11.5q8 -3 14.5 -7.5t6.5 -12.5q0 -7 -6.5 -10.5t-11.5 -3.5q-20 0 -37 1.5t-32 2.5t-32 1h-57q-21 0 -32.5 -17
t-16.5 -45.5t-9 -66.5q-3 -17 -11 -26t-18 -9z" />
  </g>

</svg>
