<?xml version="1.0" standalone="no"?>
<!DOCTYPE svg PUBLIC "-//W3C//DTD SVG 1.1//EN" "http://www.w3.org/Graphics/SVG/1.1/DTD/svg11.dtd" >
<svg xmlns="http://www.w3.org/2000/svg" xmlns:xlink="http://www.w3.org/1999/xlink" version="1.1" viewBox="-10 0 460 1000">
  <g transform="matrix(1 0 0 -1 0 800)">
   <path fill="currentColor"
d="M161 -286q-43 0 -77.5 11.5t-54 29t-19.5 36.5q0 38 22.5 62t57 39.5t71.5 29.5q34 12 64.5 26t50 33t19.5 48t-27.5 49.5t-91.5 20.5q-30 0 -61.5 -5.5t-44.5 -5.5q-6 0 -9 2t-3 5q0 4 2.5 8t4.5 7l163 249q5 11 -11 12q-13 0 -25.5 0.5t-26.5 0.5q-17 0 -32 -6.5
t-28 -20.5q-5 -6 -17.5 -22.5l-25 -33t-17.5 -21.5q-10 -12 -17 -9q-4 1 -5.5 6.5t0.5 12.5q3 10 9 31t10.5 48t4.5 55q0 11 5.5 18t13.5 7t19 -10q4 -4 19.5 -5.5t31.5 -1.5h85q40 0 66 1.5t49 2.5t52 1q9 0 14 -7.5t6 -16.5t-2 -15q-11 -14 -20.5 -26t-20.5 -28
q-19 -31 -38 -59.5t-37.5 -56.5t-38.5 -59q-4 -7 -0.5 -10t10.5 -3q6 0 13.5 1t10.5 1q70 0 104.5 -21.5t34.5 -61.5q0 -36 -20 -63.5t-57.5 -49.5t-88.5 -42q-34 -12 -64 -25.5t-48 -30.5t-18 -42q0 -34 26 -46.5t57 -12.5q42 0 74.5 19t64.5 65q7 8 14 11t14 3
q17 0 25.5 -14.5t-1.5 -29.5q-15 -24 -53.5 -45t-88.5 -33.5t-99 -12.5z" />
  </g>

</svg>
