<?xml version="1.0" standalone="no"?>
<!DOCTYPE svg PUBLIC "-//W3C//DTD SVG 1.1//EN" "http://www.w3.org/Graphics/SVG/1.1/DTD/svg11.dtd" >
<svg xmlns="http://www.w3.org/2000/svg" xmlns:xlink="http://www.w3.org/1999/xlink" version="1.1" viewBox="-10 0 568 1000">
  <g transform="matrix(1 0 0 -1 0 800)">
   <path fill="currentColor"
d="M250 -14q-47 0 -84 10t-63 21q-11 5 -22.5 15.5t-14.5 24.5q-7 33 -13 66t-6 56q0 7 8.5 12t17.5 5q5 0 22 -41q21 -51 61 -85t86 -34q45 0 73.5 25t42 64t13.5 80q0 30 -8.5 59.5t-28.5 48.5t-54 19q-8 0 -16 -1.5t-17 -3.5q-8 -1 -19.5 -3t-28.5 -2q-8 0 -20 2
t-21.5 8.5t-9.5 20.5q0 19 18.5 28t29.5 9q17 0 26.5 -1t17.5 -3t16.5 -3.5t23.5 -1.5q23 0 39 17.5t24 44t8 55.5q0 32 -12 60.5t-37.5 46.5t-63.5 18q-56 0 -84 -35.5t-43 -98.5q-2 -9 -10.5 -17.5t-15.5 -8.5t-12.5 8t-5.5 17q0 22 2 47.5t6 59.5q2 11 8 19t12 9
q24 5 41 11.5t33.5 13.5t39 11.5t57.5 4.5q56 0 107 -16.5t82.5 -50.5t31.5 -89q0 -53 -26.5 -87.5t-70.5 -51.5q-4 -1 -4.5 -4.5t4.5 -5.5q27 -9 59.5 -28.5t55.5 -54.5t23 -93q0 -48 -24 -85.5t-64.5 -62.5t-89.5 -37t-100 -12zM364 688q-29 0 -50 21t-21 50q0 31 21 51.5
t50 20.5q32 0 53.5 -20.5t21.5 -51.5q0 -29 -21.5 -50t-53.5 -21zM167 688q-29 0 -50.5 21t-21.5 50q0 31 21.5 51.5t50.5 20.5q31 0 52.5 -20.5t21.5 -51.5q0 -29 -21.5 -50t-52.5 -21z" />
  </g>

</svg>
