<?xml version="1.0" standalone="no"?>
<!DOCTYPE svg PUBLIC "-//W3C//DTD SVG 1.1//EN" "http://www.w3.org/Graphics/SVG/1.1/DTD/svg11.dtd" >
<svg xmlns="http://www.w3.org/2000/svg" xmlns:xlink="http://www.w3.org/1999/xlink" version="1.1" viewBox="-10 0 864 1000">
  <g transform="matrix(1 0 0 -1 0 800)">
   <path fill="currentColor"
d="M217 -14q-62 0 -105 31t-65.5 79.5t-22.5 98.5q0 65 29 118t82.5 85t127.5 32q13 0 25.5 -2.5t23.5 -6t16 -7.5q4 -1 6.5 -3t3.5 -2q4 0 4 13v128q0 29 -6.5 47.5t-32.5 24.5q-12 3 -12 15q0 13 11 15q38 8 77.5 21t63.5 23q10 4 16 6.5t8 2.5q6 0 8.5 -3.5t2.5 -8.5
q0 -7 -2 -26t-3 -43l-2 -147q-1 -36 14 -46.5t49 -10.5q11 0 31 0.5t27 0.5q48 0 104.5 1t106.5 3q8 0 12.5 -7.5t6.5 -16.5t-2 -15q-11 -13 -20.5 -25.5t-21.5 -28.5l-171 -267q-4 -7 -0.5 -11t15.5 -4h63q16 0 29 8t28 25q17 20 31 40.5t31 48.5q8 12 20.5 7t12.5 -15
q0 -7 -5 -25t-11.5 -41.5t-13.5 -46.5t-11 -40q-2 -7 -7.5 -11.5t-11.5 -4.5q-17 0 -41 1t-64.5 2t-105.5 2t-164 1q-19 0 -30.5 8.5t-17 20t-5.5 21.5v6q-15 -23 -48.5 -47t-83.5 -24zM268 51q31 0 52.5 23t21.5 58v159q0 23 -11.5 44t-31.5 34.5t-46 13.5
q-14 0 -29.5 -8.5t-29 -27t-22.5 -49.5t-9 -76q0 -55 11.5 -88.5t29 -51.5t35.5 -24.5t29 -6.5zM472 86q2 0 4.5 3t3.5 6l166 265q3 5 1 8t-11 3h-87q-14 0 -27 -7t-23 -18q-12 -12 -21 -27.5t-9 -31.5l-1 -187q0 -14 4 -14z" />
  </g>

</svg>
