<?xml version="1.0" standalone="no"?>
<!DOCTYPE svg PUBLIC "-//W3C//DTD SVG 1.1//EN" "http://www.w3.org/Graphics/SVG/1.1/DTD/svg11.dtd" >
<svg xmlns="http://www.w3.org/2000/svg" xmlns:xlink="http://www.w3.org/1999/xlink" version="1.1" viewBox="-10 0 391 1000">
  <g transform="matrix(1 0 0 -1 0 800)">
   <path fill="currentColor"
d="M23 273q-4 0 -7.5 2t-3.5 6q0 3 1.5 5.5t8.5 3.5q17 3 23.5 8.5t6.5 19.5v152q0 12 -4 19.5t-14 10.5q-3 1 -7 4.5t-4 9.5q0 5 3 8.5t7 4.5q23 5 48.5 12t48.5 19q3 2 7.5 4t8.5 2t5.5 -2.5t1.5 -7.5q0 1 -1.5 -12.5t-0.5 -50.5l1 -50q0 -5 6 -5q5 0 12.5 1t14.5 4
q12 4 19 12q10 10 14 19t8 19q4 11 4 21q0 11 -5 15t-18 5q-4 0 -5.5 3t-1.5 5q0 6 5 8t11 2h30q13 0 37 1t47.5 2.5t33.5 2.5q4 0 5.5 -2.5t1.5 -6.5q0 -11 -16 -14q-10 -2 -23.5 -7.5t-26.5 -14.5q-22 -16 -39 -37t-27 -39q-1 -2 -2 -6.5t3 -6.5q31 -11 51 -25.5t20 -42.5
q0 -25 -15.5 -43.5t-44.5 -27.5t-72 -9q-8 0 -23 0.5t-30.5 0.5h-25.5q-30 0 -51.5 -1t-25.5 -1zM170 301q10 0 18.5 3t14 14t5.5 35q0 22 -8.5 37.5t-31.5 15.5q-10 0 -13 -5t-3 -12v-73q-1 -10 3.5 -12.5t14.5 -2.5z" />
  </g>

</svg>
