<?xml version="1.0" standalone="no"?>
<!DOCTYPE svg PUBLIC "-//W3C//DTD SVG 1.1//EN" "http://www.w3.org/Graphics/SVG/1.1/DTD/svg11.dtd" >
<svg xmlns="http://www.w3.org/2000/svg" xmlns:xlink="http://www.w3.org/1999/xlink" version="1.1" viewBox="-10 0 404 1000">
  <g transform="matrix(1 0 0 -1 0 800)">
   <path fill="currentColor"
d="M36 279q-6 0 -9.5 3t-3.5 7q0 5 4 8.5t11 5.5q10 3 17 5.5t7 15.5v225q0 44 17 74.5t43 48.5t55.5 26t54.5 8t44.5 -6t30.5 -18q5 -5 8 -10.5t3 -11.5q0 -15 -12 -28t-20 -13q-7 0 -11.5 6l-10.5 14q-8 12 -19.5 21.5t-31.5 9.5q-23 0 -37 -21t-14 -61v-75q0 -3 1 -7.5
t2 -5.5q15 11 40.5 25.5t58.5 14.5q35 0 57 -24.5t22 -59.5v-131q0 -12 6.5 -15.5t15.5 -6.5q6 -2 10 -5t4 -9q0 -3 -4 -6.5t-11 -3.5q-23 0 -37.5 1.5t-34.5 1.5q-15 0 -24.5 -0.5t-18.5 -1.5t-24 -1q-7 0 -12.5 3t-5.5 8t4.5 8.5t8.5 4.5q8 2 15 6.5t7 17.5v111
q0 17 -10 29t-24 12q-9 0 -17 -1.5t-15 -5.5q-8 -5 -10.5 -11.5t-2.5 -20.5v-114q0 -11 6 -15.5t14 -6.5q4 -2 8 -5.5t4 -8.5q0 -4 -3 -7.5t-8 -3.5q-18 0 -38.5 1.5t-36.5 1.5t-35 -1.5t-38 -1.5z" />
  </g>

</svg>
