<?xml version="1.0" standalone="no"?>
<!DOCTYPE svg PUBLIC "-//W3C//DTD SVG 1.1//EN" "http://www.w3.org/Graphics/SVG/1.1/DTD/svg11.dtd" >
<svg xmlns="http://www.w3.org/2000/svg" xmlns:xlink="http://www.w3.org/1999/xlink" version="1.1" viewBox="-10 0 818 1000">
  <g transform="matrix(1 0 0 -1 0 800)">
   <path fill="currentColor"
d="M749 -162q-11 0 -17 10.5t-8 23.5q-3 14 -5 26.5t-3 27.5q-5 36 -15 51t-31 18q-35 5 -60.5 29.5t-46.5 67.5q-11 25 -22 46.5t-21 38t-20.5 26t-22.5 9.5q-10 0 -10 -9v-135q0 -15 10.5 -22.5t36.5 -15.5q8 -3 13.5 -7t5.5 -12q0 -7 -5 -10t-12 -3q-19 0 -39 1t-39.5 2
t-37.5 1q-17 0 -35.5 -1t-37.5 -2.5t-39 -1.5q-6 0 -11.5 3.5t-5.5 9.5q0 8 5 13t13 7q25 6 36 13t11 24v136q0 9 -11 9t-23 -12t-24.5 -32t-25.5 -46.5t-27 -54.5q-18 -37 -55 -57t-92 -20q-33 0 -53.5 9t-20.5 19q0 11 6.5 15t15.5 4q20 0 39 14.5t37.5 39t35.5 53.5
q20 34 39 62t37 38q4 2 7 4.5t-3 6.5q-13 9 -22.5 20.5t-15.5 23.5t-12 22q-9 17 -16.5 22.5t-20.5 5.5q-7 0 -13 -3t-13 -6q-7 -4 -13.5 -7t-15.5 -3q-20 0 -30.5 12t-10.5 35q0 27 18.5 43.5t42.5 16.5q33 0 56.5 -18.5t46.5 -60.5q14 -28 26 -49t25 -35t30 -21.5t42 -7.5
q6 0 10 3t4 10v94q0 17 -10.5 25t-35.5 14q-8 2 -13 7.5t-5 12.5q0 6 5.5 9.5t11.5 3.5q20 0 39 -1t37 -2.5t35 -1.5q18 0 37 1t39 2t39 1q6 0 11 -3t5 -10q0 -8 -5.5 -12t-13.5 -7q-25 -8 -35 -16.5t-10 -23.5v-93q0 -7 3.5 -10t10.5 -3q26 0 43 7.5t30 22.5t25 35.5
t25 47.5q22 42 45.5 60.5t57.5 18.5q24 0 42 -16.5t18 -43.5q0 -23 -10 -35t-30 -12q-9 0 -16 3.5l-13 6.5q-7 3 -13 6t-13 3q-13 0 -21 -5.5t-16 -22.5q-5 -10 -11.5 -22t-15.5 -23t-23 -20q-5 -4 -2 -6t7 -5q28 -20 46.5 -48t38.5 -63q25 -45 45.5 -66.5t36.5 -21.5
q8 0 14 0.5t13 0.5q6 0 10 -4.5t4 -10.5q0 -24 -5.5 -48.5t-11.5 -51t-7 -58.5q0 -18 -7.5 -27t-17.5 -9z" />
  </g>

</svg>
