<?xml version="1.0" standalone="no"?>
<!DOCTYPE svg PUBLIC "-//W3C//DTD SVG 1.1//EN" "http://www.w3.org/Graphics/SVG/1.1/DTD/svg11.dtd" >
<svg xmlns="http://www.w3.org/2000/svg" xmlns:xlink="http://www.w3.org/1999/xlink" version="1.1" viewBox="-10 0 556 1000">
  <g transform="matrix(1 0 0 -1 0 800)">
   <path fill="currentColor"
d="M286 -285q-21 0 -39 9t-18 25q0 19 8.5 33t18.5 14q4 0 12.5 -3t18.5 -8q11 -4 21 -8t16 -4q5 0 7.5 4t3.5 9q9 34 15 93.5t5 135.5v62.5t-0.5 70.5t-0.5 68.5v54.5q0 33 -20 55.5t-45 22.5q-16 0 -30.5 -4t-26.5 -13q-13 -8 -18 -20.5t-5 -39.5v-200q0 -20 10.5 -27.5
t23.5 -12.5q8 -3 14.5 -7.5t6.5 -12.5q0 -7 -5.5 -11t-12.5 -4q-20 0 -37.5 1.5t-33.5 2.5t-34 1q-17 0 -33.5 -1t-33.5 -2.5t-37 -1.5q-9 0 -14.5 3.5t-5.5 10.5q0 8 6 12.5t17 7.5q15 5 26.5 11t11.5 28v358q0 92 31.5 154t83.5 93t111 31q25 0 49 -5t39 -17t16 -33
q1 -19 -11.5 -36t-26.5 -18q-13 -3 -23 3t-20 15q-5 5 -10 11.5t-10.5 12.5t-13.5 9.5t-18 3.5q-31 0 -48.5 -40t-18.5 -114v-111q0 -8 1 -15t4 -8q15 12 38 28t53 28.5t63 12.5q35 0 61.5 -19t41.5 -50.5t15 -71.5q0 -19 0.5 -55t0.5 -78v-79.5v-60.5q0 -38 -12.5 -80
t-34 -81.5t-48 -71.5t-54 -51t-51.5 -20z" />
  </g>

</svg>
