<?xml version="1.0" standalone="no"?>
<!DOCTYPE svg PUBLIC "-//W3C//DTD SVG 1.1//EN" "http://www.w3.org/Graphics/SVG/1.1/DTD/svg11.dtd" >
<svg xmlns="http://www.w3.org/2000/svg" xmlns:xlink="http://www.w3.org/1999/xlink" version="1.1" viewBox="-10 0 421 1000">
  <g transform="matrix(1 0 0 -1 0 800)">
   <path fill="currentColor"
d="M38 168q-10 0 -15.5 5.5t-5.5 13.5q0 13 10 26t22 13h301q9 0 15 -5t6 -13q0 -12 -12 -26t-29 -14h-292zM53 -3q-6 0 -11.5 3.5t-5.5 9.5q0 8 5 13t13 7q25 6 36 13t11 24v277q0 19 -11 29t-38 16q-7 2 -12 7.5t-5 12.5q0 6 6 10t11 4q27 0 56 -2.5t53 -2.5h146
q30 0 47.5 6t31.5 6q3 0 6.5 -3t3.5 -9q0 -17 -2 -47t-2 -50q0 -17 -2.5 -34.5t-13.5 -17.5q-13 0 -18 27q-3 16 -11 34t-20.5 31t-28.5 13h-15h-16h-14q-15 0 -18 -9.5t-3 -19.5v-277q0 -15 11 -22.5t37 -15.5q8 -3 13.5 -7t5.5 -12q0 -7 -5 -10t-12 -3q-19 0 -39.5 1
t-39.5 2t-37 1q-17 0 -36 -1t-38 -2.5t-39 -1.5z" />
  </g>

</svg>
