<?xml version="1.0" standalone="no"?>
<!DOCTYPE svg PUBLIC "-//W3C//DTD SVG 1.1//EN" "http://www.w3.org/Graphics/SVG/1.1/DTD/svg11.dtd" >
<svg xmlns="http://www.w3.org/2000/svg" xmlns:xlink="http://www.w3.org/1999/xlink" version="1.1" viewBox="-10 0 526 1000">
  <g transform="matrix(1 0 0 -1 0 800)">
   <path fill="currentColor"
d="M216 -289q-98 0 -152.5 30.5t-54.5 83.5q0 30 7 48.5t32 36.5q19 14 37 28t31 23l49 -17q-31 -18 -48.5 -39t-17.5 -49q0 -41 34.5 -68t86.5 -27q69 0 98 27q18 18 29 40.5t11 45.5q0 16 -11 26t-39.5 17t-79.5 12q-104 10 -148 39t-44 77q0 9 5.5 18.5t21.5 20.5
q16 12 29 21.5t22 18t12 15.5l50 -17q-20 -7 -32.5 -19t-12.5 -21q0 -11 13 -18t44 -11.5t85 -8.5q108 -9 157 -33.5t49 -71.5q0 -41 -23 -81.5t-61 -74t-84.5 -53t-94.5 -19.5zM229 140q32 0 50.5 35.5t18.5 93.5q0 37 -9.5 64.5t-25.5 43t-38 15.5q-19 0 -35 -16
t-25.5 -42.5t-9.5 -61.5q0 -37 10 -67t27 -47.5t37 -17.5zM218 96q-44 0 -86.5 21.5t-70 59.5t-27.5 85q0 50 28.5 89t75 60.5t98.5 21.5q31 0 58.5 -7t60.5 -12q19 -4 38 -6t42 -2q15 0 30 1.5t25 1.5q16 0 16 -22q0 -19 -13 -36q-6 -7 -13 -7h-27q-26 0 -35 -8
q-2 -2 -3 -4.5t-1.5 -11t-0.5 -31.5q0 -52 -27 -96t-71 -70.5t-97 -26.5zM214 453q-10 0 -10 12q0 4 1 9.5t4 11.5q8 19 20.5 48t25 56.5t19.5 42.5q8 15 18.5 20t26.5 5q24 0 41.5 -6t17.5 -18q0 -5 -2 -11.5t-8 -13.5q-19 -21 -40.5 -46t-43 -49t-43.5 -45
q-16 -16 -27 -16z" />
  </g>

</svg>
