<?xml version="1.0" standalone="no"?>
<!DOCTYPE svg PUBLIC "-//W3C//DTD SVG 1.1//EN" "http://www.w3.org/Graphics/SVG/1.1/DTD/svg11.dtd" >
<svg xmlns="http://www.w3.org/2000/svg" xmlns:xlink="http://www.w3.org/1999/xlink" version="1.1" viewBox="-10 0 574 1000">
  <g transform="matrix(1 0 0 -1 0 800)">
   <path fill="currentColor"
d="M298 -3q-6 0 -12 3.5t-6 9.5q0 8 5 13t13 7q25 6 36 13t11 24v92q0 9 -2.5 13t-7.5 1q-25 -12 -58.5 -18.5t-69.5 -6.5q-34 0 -65.5 13t-51 39.5t-19.5 67.5v85q0 17 -7.5 24t-31.5 14q-8 2 -13 7t-5 12t5.5 10.5t11.5 3.5q19 0 36 -1t34 -2.5t34 -1.5q18 0 36.5 1l37 2
t36.5 1q7 0 12 -3t5 -10q0 -8 -5.5 -12t-13.5 -7q-26 -8 -33.5 -16t-7.5 -22v-80q0 -35 15 -54t46 -19q23 0 38.5 3t29.5 15q8 7 11 12t3 10v113q0 17 -7.5 24t-32.5 14q-8 2 -13 7t-5 12t5.5 10.5t11.5 3.5q20 0 37.5 -1t34.5 -2.5t34 -1.5q18 0 37.5 1t39.5 2t39 1
q7 0 12 -3t5 -10q0 -8 -5.5 -12t-13.5 -7q-26 -8 -36.5 -16t-10.5 -22v-285q0 -14 11 -22t36 -16q8 -3 13.5 -7t5.5 -12q0 -7 -5 -10t-11 -3q-19 0 -39.5 1t-40 2t-37.5 1q-17 0 -35.5 -1t-37.5 -2.5t-39 -1.5zM369 494q-29 0 -50.5 21t-21.5 50q0 30 21.5 51t50.5 21
q31 0 52.5 -21t21.5 -51q0 -29 -21.5 -50t-52.5 -21zM174 494q-29 0 -50 21t-21 50q0 30 21 51t50 21q32 0 53.5 -21t21.5 -51q0 -29 -21.5 -50t-53.5 -21z" />
  </g>

</svg>
