<?xml version="1.0" standalone="no"?>
<!DOCTYPE svg PUBLIC "-//W3C//DTD SVG 1.1//EN" "http://www.w3.org/Graphics/SVG/1.1/DTD/svg11.dtd" >
<svg xmlns="http://www.w3.org/2000/svg" xmlns:xlink="http://www.w3.org/1999/xlink" version="1.1" viewBox="-11 0 502 1000">
  <g transform="matrix(1 0 0 -1 0 800)">
   <path fill="currentColor"
d="M223 -14q-23 0 -42.5 15.5t-28.5 41.5q-8 24 -13.5 49t-10 42t-9.5 17q-16 0 -31.5 -13t-28 -26t-18.5 -13q-4 0 -14.5 10t-19 26.5t-8.5 37.5q0 16 12 35t31.5 33t41.5 14q21 0 35 -15t23 -49q6 -22 15.5 -43t24 -34t35.5 -13q29 0 53.5 15.5t43 43.5t31 63.5t16.5 76.5
h-13q-61 0 -113 18t-90.5 48.5t-60 67.5t-21.5 74q0 36 16 71t43 63t59 44.5t64 16.5q45 0 82.5 -39.5t61 -106t26.5 -147.5q17 2 30 4.5t16 2.5q8 0 14 -6.5t6 -17.5q0 -13 -3.5 -33t-14.5 -35q-2 -5 -15.5 -9t-31.5 -8q-3 -61 -16 -119t-36.5 -104t-58.5 -72.5t-82 -26.5z
M362 404q1 7 1.5 14t0.5 14q1 48 -19 83.5t-53 54.5t-71 19q-32 0 -57 -9.5t-39 -28t-14 -43.5q0 -23 21.5 -42t57.5 -32.5t80.5 -21.5t91.5 -8z" />
  </g>

</svg>
