<?xml version="1.0" standalone="no"?>
<!DOCTYPE svg PUBLIC "-//W3C//DTD SVG 1.1//EN" "http://www.w3.org/Graphics/SVG/1.1/DTD/svg11.dtd" >
<svg xmlns="http://www.w3.org/2000/svg" xmlns:xlink="http://www.w3.org/1999/xlink" version="1.1" viewBox="-10 0 362 1000">
  <g transform="matrix(1 0 0 -1 0 800)">
   <path fill="currentColor"
d="M195 -198q-12 0 -29.5 11t-31 26.5t-13.5 27.5q0 22 9 30.5t23 8.5q40 0 69 13.5t44.5 30.5t15.5 29q0 7 -5 12t-15 5q-13 0 -40.5 -0.5t-54 -1.5t-41.5 -1q-28 0 -51.5 17t-37.5 55t-14 99q0 53 17.5 96.5t46.5 77t62.5 56t66 33.5t56.5 11t42.5 -18t18.5 -42
q0 -27 -12.5 -48t-43.5 -21q-68 0 -112.5 -10.5t-67 -36.5t-22.5 -73q0 -33 21.5 -54t52.5 -21q12 0 28 1t33.5 2t33.5 2t28 1q32 0 47 -26t15 -71q0 -39 -12 -78.5t-31.5 -72t-44.5 -51.5t-51 -19z" />
  </g>

</svg>
