<?xml version="1.0" standalone="no"?>
<!DOCTYPE svg PUBLIC "-//W3C//DTD SVG 1.1//EN" "http://www.w3.org/Graphics/SVG/1.1/DTD/svg11.dtd" >
<svg xmlns="http://www.w3.org/2000/svg" xmlns:xlink="http://www.w3.org/1999/xlink" version="1.1" viewBox="-129 0 258 1000">
  <g transform="matrix(1 0 0 -1 0 800)">
   <path fill="currentColor"
d="M-102 444q-15 0 -16.5 12.5t7.5 29.5q11 22 24 46.5t26 48.5t24 44q9 19 19 27.5t19 8.5q10 0 19.5 -9t18.5 -27q11 -20 23.5 -44.5t25.5 -48.5t25 -46q9 -18 4.5 -30t-13.5 -12q-7 0 -17.5 8.5t-23.5 23.5q-10 12 -24 30t-33 37q-3 4 -4.5 4.5t-6.5 -4.5
q-18 -20 -32 -37.5t-25 -29.5q-13 -15 -23 -23.5t-17 -8.5z" />
  </g>

</svg>
