<?xml version="1.0" standalone="no"?>
<!DOCTYPE svg PUBLIC "-//W3C//DTD SVG 1.1//EN" "http://www.w3.org/Graphics/SVG/1.1/DTD/svg11.dtd" >
<svg xmlns="http://www.w3.org/2000/svg" xmlns:xlink="http://www.w3.org/1999/xlink" version="1.1" viewBox="-10 0 506 1000">
  <g transform="matrix(1 0 0 -1 0 800)">
   <path fill="currentColor"
d="M85 -283q-26 0 -50 18t-24 45q0 19 10 37.5t31 18.5q16 0 32.5 -5.5t31.5 -4.5q15 2 21 7.5t14 20.5q7 12 13.5 23.5t15 29t21.5 45.5q12 27 12 48q0 15 -4.5 27.5t-9.5 24.5l-123 279q-9 23 -20 38t-30 21q-9 4 -14 8.5t-5 13.5q0 7 9 9t16 2q24 0 40.5 -1t29.5 -2
t26 -1q22 0 37 1t32 2t40 1q7 0 15 -3t8 -10q0 -9 -7.5 -12.5t-15.5 -7.5q-11 -4 -17 -12t-6 -26q0 -8 2.5 -19t8.5 -27l62 -151q1 -3 3 -3q1 0 3 3l51 153q3 8 5.5 19.5t2.5 20.5q0 17 -10 27.5t-21 14.5q-8 3 -15.5 7t-7.5 13q0 7 8 10t15 3q27 -1 42 -2.5t31 -1.5
q10 0 18.5 0.5t20.5 1.5t29 2q7 0 15.5 -2t8.5 -9q0 -9 -4.5 -13.5t-13.5 -8.5q-19 -6 -34 -22.5t-25 -39.5l-149 -358q-8 -20 -18 -43.5t-20.5 -48.5t-21.5 -51t-22 -51q-12 -29 -37 -44t-56 -15zM277 464q-45 0 -74 13.5t-42.5 36t-13.5 45.5q0 33 13.5 49.5t32.5 16.5
q21 0 29 -9.5t8 -23.5q0 -5 -0.5 -12t-0.5 -11q0 -24 18.5 -36.5t48.5 -12.5q22 0 46.5 15t38.5 54q5 13 8 17.5t9 4.5q9 0 9 -18q0 -35 -17.5 -64.5t-47 -47t-65.5 -17.5z" />
  </g>

</svg>
