<?xml version="1.0" standalone="no"?>
<!DOCTYPE svg PUBLIC "-//W3C//DTD SVG 1.1//EN" "http://www.w3.org/Graphics/SVG/1.1/DTD/svg11.dtd" >
<svg xmlns="http://www.w3.org/2000/svg" xmlns:xlink="http://www.w3.org/1999/xlink" version="1.1" viewBox="-10 0 562 1000">
  <g transform="matrix(1 0 0 -1 0 800)">
   <path fill="currentColor"
d="M275 -288q-19 0 -29.5 4.5t-10.5 11.5q0 8 5 12.5t14 8.5q16 8 30 19t27 38q10 21 16.5 52.5t10 67t4.5 69t1 56.5v290q0 18 -8 25.5t-23 7.5h-56q-16 0 -21.5 -12.5t-5.5 -22.5q0 -40 -3.5 -87t-12.5 -94t-25 -86t-39.5 -62.5t-56.5 -23.5q-40 0 -61.5 20.5t-21.5 47.5
q0 21 12.5 38.5t34.5 17.5q12 0 23.5 -5t19.5 -13t15 -14t14 -6q13 0 23.5 27t18 69t11.5 87.5t4 83.5q0 26 -14.5 35t-35.5 14q-11 3 -18 7t-7 14q0 6 7.5 10.5t12.5 4.5q28 0 54 -2.5t50 -2.5h178q25 0 50 2.5t53 2.5q5 0 11 -4.5t6 -10.5q0 -8 -6 -13t-13 -8
q-17 -4 -28 -11.5t-11 -31.5v-255q0 -31 -2 -72.5t-10 -86t-26 -84.5q-14 -34 -41.5 -65t-59 -50.5t-60.5 -19.5z" />
  </g>

</svg>
