<?xml version="1.0" standalone="no"?>
<!DOCTYPE svg PUBLIC "-//W3C//DTD SVG 1.1//EN" "http://www.w3.org/Graphics/SVG/1.1/DTD/svg11.dtd" >
<svg xmlns="http://www.w3.org/2000/svg" xmlns:xlink="http://www.w3.org/1999/xlink" version="1.1" viewBox="-10 0 550 1000">
  <g transform="matrix(1 0 0 -1 0 800)">
   <path fill="currentColor"
d="M38 284q-12 0 -17 10t-5 19q0 12 8 20t20 8h336q9 0 15 -5t6 -12q0 -1 -0.5 -2t-0.5 -3q-3 -12 -13.5 -23.5t-26.5 -11.5h-322zM37 -3q-8 0 -14 3.5t-6 10.5q0 16 21 21q38 8 53 20.5t15 44.5v454q0 32 -13 46t-48 22q-13 3 -18 8.5t-5 12.5q0 6 6 10.5t15 4.5
q23 0 47.5 -1t48 -2.5t44.5 -1.5h250q29 0 44 2.5t23 2.5q12 0 18 -3.5t6 -10.5q2 -36 4 -77t2 -67q0 -9 -4 -13.5t-9 -4.5q-7 0 -12.5 3.5t-7.5 12.5q-7 27 -17.5 50t-26.5 39q-13 12 -29.5 19t-37.5 7h-72q-25 0 -39.5 -16.5t-14.5 -62.5v-433q0 -29 14.5 -42.5
t53.5 -23.5q10 -3 15.5 -7t5.5 -13q0 -7 -4.5 -11t-13.5 -4q-22 0 -49 1.5t-53 2.5t-46 1q-21 0 -46 -1t-51.5 -2.5t-48.5 -1.5z" />
  </g>

</svg>
