<?xml version="1.0" standalone="no"?>
<!DOCTYPE svg PUBLIC "-//W3C//DTD SVG 1.1//EN" "http://www.w3.org/Graphics/SVG/1.1/DTD/svg11.dtd" >
<svg xmlns="http://www.w3.org/2000/svg" xmlns:xlink="http://www.w3.org/1999/xlink" version="1.1" viewBox="-31 0 1003 1000">
  <g transform="matrix(1 0 0 -1 0 800)">
   <path fill="currentColor"
d="M588 -14q-69 0 -131.5 23.5t-111 67t-76 104t-27.5 134.5q0 68 22.5 130.5t67.5 111.5t111.5 78t153.5 29q70 0 132.5 -23.5t110.5 -67t76 -104t28 -134.5q0 -67 -23 -130t-68 -112t-111.5 -78t-153.5 -29zM606 32q57 0 95.5 32t57.5 89t19 131q0 61 -11.5 120.5
t-36 107.5t-62.5 76.5t-90 28.5q-56 0 -94.5 -32t-57.5 -88t-19 -130q0 -62 12 -121.5t36 -107.5t61.5 -77t89.5 -29zM177 442q-10 -2 -13 7t-3 22q1 14 4.5 39.5t8 54.5t9 53.5t7.5 35.5t15.5 17t21.5 6q19 0 35 -16.5t16 -33.5q0 -6 -8 -24.5t-21 -43.5t-26 -50.5
t-25 -44.5q-4 -9 -10 -14.5t-11 -7.5zM11 444q-27 0 -27 14t19 18q28 8 43 23t15 37q0 16 -10.5 26t-25.5 16q-18 6 -32 15.5t-14 32.5q0 24 17.5 36t43.5 12q40 0 66.5 -26.5t26.5 -70.5q0 -34 -13 -59.5t-33 -41.5t-40.5 -24t-35.5 -8z" />
  </g>

</svg>
