<?xml version="1.0" standalone="no"?>
<!DOCTYPE svg PUBLIC "-//W3C//DTD SVG 1.1//EN" "http://www.w3.org/Graphics/SVG/1.1/DTD/svg11.dtd" >
<svg xmlns="http://www.w3.org/2000/svg" xmlns:xlink="http://www.w3.org/1999/xlink" version="1.1" viewBox="-10 0 486 1000">
  <g transform="matrix(1 0 0 -1 0 800)">
   <path fill="currentColor"
d="M51.667 -3.56348q-8.9082 0 -14.2529 5.34473q-5.34473 5.3457 -5.34473 11.5811q0 5.34473 7.57129 17.3701q7.57227 12.0264 16.9258 25.834t14.6982 23.6064l164.8 264.57q4.4541 7.12598 2.67188 12.0254q-1.78125 4.89941 -10.6895 4.89941
q-11.5801 0.890625 -28.0605 0.890625h-28.9512q-24.0518 0 -50.3311 -14.6982q-26.2783 -14.6982 -41.4219 -36.0771q-5.34473 -8.01758 -14.6982 -16.0352q-9.35352 -8.0166 -20.0439 -8.0166q-7.12598 0 -8.90723 4.4541q-1.78223 4.45312 -1.78223 11.5801
q0 7.12598 5.79004 22.7158q5.79102 15.5889 12.4717 35.6318t9.35352 38.75q0.890625 7.12695 4.89941 14.2529q4.00879 7.12695 12.0254 7.12695q8.01758 0 19.1533 -8.46289q11.1348 -8.46289 22.7148 -10.2441q16.0352 -3.56348 26.7246 -4.00879t30.2871 -0.445312
l73.0469 2.67285h28.0605q20.9336 0 45.4307 0.890625t45.877 1.33594q21.3789 0.445312 29.3965 0.445312t11.1348 -4.89941q3.11816 -4.89941 3.11816 -12.0254q0 -4.4541 -8.01758 -18.2617q-8.0166 -13.8076 -18.2617 -29.3965q-10.2441 -15.5898 -18.2607 -28.9521
l-146.093 -241.408q-5.34473 -9.79883 -6.68164 -16.4805q-1.33594 -6.68066 3.56348 -9.79883t16.4805 -3.11816h73.0459q29.3965 0 44.54 20.0439q15.1445 20.043 28.5059 49.4395q2.67285 6.23535 6.68164 9.79883t10.2441 3.56348q7.12695 0 9.35352 -5.79004
q2.22656 -5.79102 2.22656 -12.917q0 -15.1436 -6.23535 -38.75t-15.1436 -52.1123q-1.78125 -8.01758 -6.68066 -11.5811q-4.89941 -3.5625 -15.5898 -3.5625q-12.4707 0 -42.3135 0.445312q-29.8418 0.445312 -66.8105 0.890625t-74.3818 0.890625
q-37.4141 0.445312 -65.0293 0.445312q-14.2529 0 -25.833 -1.33594q-11.5811 -1.33594 -21.3799 -2.22754q-9.79883 -0.890625 -19.5977 -0.890625z" />
  </g>

</svg>
