<?xml version="1.0" standalone="no"?>
<!DOCTYPE svg PUBLIC "-//W3C//DTD SVG 1.1//EN" "http://www.w3.org/Graphics/SVG/1.1/DTD/svg11.dtd" >
<svg xmlns="http://www.w3.org/2000/svg" xmlns:xlink="http://www.w3.org/1999/xlink" version="1.1" viewBox="-10 0 365 1000">
  <g transform="matrix(1 0 0 -1 0 800)">
   <path fill="currentColor"
d="M226 467q-10 -2 -13.5 7t-2.5 23q1 13 4.5 38.5t8 54.5t9 53.5t7.5 35.5q3 12 15.5 17.5t21.5 5.5q19 0 34.5 -16.5t15.5 -33.5q0 -6 -8 -24.5t-20.5 -43.5t-26 -50.5t-24.5 -44.5q-5 -8 -10.5 -14t-10.5 -8zM152 469q-15 0 -35.5 8t-40.5 24t-33 41.5t-13 59.5
q0 44 26.5 70.5t66.5 26.5q26 0 43 -12t17 -36q0 -23 -13.5 -32.5t-31.5 -15.5q-15 -6 -25.5 -16t-10.5 -26q0 -22 15 -37t43 -23q19 -4 19 -18t-27 -14z" />
  </g>

</svg>
