<?xml version="1.0" standalone="no"?>
<!DOCTYPE svg PUBLIC "-//W3C//DTD SVG 1.1//EN" "http://www.w3.org/Graphics/SVG/1.1/DTD/svg11.dtd" >
<svg xmlns="http://www.w3.org/2000/svg" xmlns:xlink="http://www.w3.org/1999/xlink" version="1.1" viewBox="-10 0 576 1000">
  <g transform="matrix(1 0 0 -1 0 800)">
   <path fill="currentColor"
d="M36 -3q-20 0 -20 14q0 8 6 12.5t17 7.5q15 5 26.5 11t11.5 28v480q0 28 -7 47.5t-32 24.5q-11 2 -11 15t10 15q25 5 54.5 14.5t56.5 20t42 15.5q8 3 13 3q6 0 8 -3.5t2 -8.5q0 -8 -2.5 -27t-3.5 -42l1 -374q0 -12 9 -12q3 0 7.5 2.5t8.5 5.5q37 32 66 65t39 48
q4 6 6.5 10t2.5 7q0 5 -8 10.5t-24 7.5q-12 2 -12 11t7.5 11.5t14.5 2.5h49q18 0 47 1.5t57 4.5t40 3q11 0 11 -11q0 -8 -6 -13.5t-17 -7.5q-17 -4 -40 -14t-46 -23q-17 -9 -36.5 -22.5t-38 -28.5t-33.5 -29q-5 -5 -5 -11q0 -3 2 -5.5t4 -5.5q24 -31 46 -61t44 -57.5
t45 -54.5q17 -18 41 -33t40 -21q8 -3 17.5 -7t9.5 -12q0 -14 -22 -14q-60 0 -117.5 1.5t-107.5 1.5q-20 0 -20 14q0 8 6 12t16 8q9 3 12.5 7t4.5 9q0 4 -3.5 9.5t-8.5 12.5l-97 134q-3 2 -5 2q-6 -1 -6 -7v-31v-31v-34.5v-35.5t7.5 -24.5t22.5 -12.5q8 -3 14.5 -7.5
t6.5 -12.5q0 -7 -5.5 -11t-12.5 -4q-20 0 -36.5 1.5t-31.5 2.5t-33 1q-17 0 -33.5 -1t-33.5 -2.5t-37 -1.5zM302 614q-10 0 -10 12q0 4 1 9.5t4 11.5q8 19 20.5 48t25 56.5t19.5 42.5q8 15 18.5 20t26.5 5q24 0 41.5 -6t17.5 -18q0 -5 -2 -11.5t-8 -13.5q-19 -21 -40.5 -46
t-43 -49t-43.5 -45q-16 -16 -27 -16z" />
  </g>

</svg>
