<?xml version="1.0" standalone="no"?>
<!DOCTYPE svg PUBLIC "-//W3C//DTD SVG 1.1//EN" "http://www.w3.org/Graphics/SVG/1.1/DTD/svg11.dtd" >
<svg xmlns="http://www.w3.org/2000/svg" xmlns:xlink="http://www.w3.org/1999/xlink" version="1.1" viewBox="-10 0 427 1000">
  <g transform="matrix(1 0 0 -1 0 800)">
   <path fill="currentColor"
d="M211 -14q-54 0 -96.5 28.5t-67 78t-24.5 112.5t29 114.5t79 82t110 30.5q43 0 77 -18.5t54.5 -49.5t20.5 -70q0 -38 -31 -38h-200q-14 0 -20.5 -8t-6.5 -27q0 -38 17 -69.5t46 -49.5t67 -18q29 0 53.5 11t48.5 30q4 3 7.5 5.5t6.5 2.5q10 0 10 -13q0 -11 -8 -30
q-10 -25 -33.5 -49.5t-58.5 -39.5t-80 -15zM162 298h60q28 0 39 1t20 4q5 2 8 10t3 18q0 27 -18.5 44t-45.5 17q-21 0 -39.5 -11.5t-30 -30t-10.5 -38.5q0 -14 14 -14zM122 -264q-15 0 -16.5 12.5t7.5 29.5q11 22 24 46.5t26 48.5t24 44q9 19 19 27.5t19 8.5q10 0 19.5 -9
t18.5 -27q11 -20 23.5 -44.5t25.5 -48.5t25 -46q9 -18 4.5 -30t-13.5 -12q-7 0 -17.5 8.5t-23.5 23.5q-10 12 -24 30t-33 37q-3 4 -4.5 4.5t-6.5 -4.5q-18 -20 -32 -37.5t-25 -29.5q-13 -15 -23 -23.5t-17 -8.5z" />
  </g>

</svg>
