<?xml version="1.0" standalone="no"?>
<!DOCTYPE svg PUBLIC "-//W3C//DTD SVG 1.1//EN" "http://www.w3.org/Graphics/SVG/1.1/DTD/svg11.dtd" >
<svg xmlns="http://www.w3.org/2000/svg" xmlns:xlink="http://www.w3.org/1999/xlink" version="1.1" viewBox="-10 0 810 1000">
  <g transform="matrix(1 0 0 -1 0 800)">
   <path fill="currentColor"
d="M376 -14q-69 0 -131.5 24t-111.5 67.5t-76.5 104t-27.5 134.5q0 68 23 130.5t68.5 111t111.5 77.5t152 29q71 0 116 -17t77 -34q24 -12 48 -26t43 -14q17 0 25 10t8 21q0 12 -7 20t-18 14q-9 5 -17 10t-8 21q0 14 15.5 29t36 25.5t35.5 10.5q13 0 25 -13t19.5 -32
t7.5 -37q0 -31 -13.5 -57.5t-38 -45t-56.5 -24.5q-8 -1 -11 -5t0 -9q33 -40 46.5 -81.5t13.5 -94.5q0 -67 -22.5 -130t-67.5 -112t-111.5 -78t-153.5 -29zM393 35q86 0 129 69.5t43 182.5q0 62 -12 120.5t-36 105t-61.5 74t-89.5 27.5q-42 0 -74.5 -18.5t-54 -52t-32.5 -79
t-11 -100.5q0 -61 12.5 -119.5t37 -106t62 -75.5t87.5 -28zM382 686q-12 0 -24.5 15t-12.5 26q0 10 6.5 16t16.5 13q8 6 14.5 12t6.5 16q0 9 -5.5 14t-15.5 5q-14 0 -22 -9.5t-17 -20.5q-6 -7 -12.5 -12t-15.5 -5q-12 0 -23.5 15.5t-11.5 24.5q0 10 5.5 18t13.5 12
q19 10 41 16.5t59 6.5t67 -16.5t30 -47.5q0 -14 -15 -26.5t-37 -19.5q-11 -4 -17.5 -8t-6.5 -13q0 -5 1.5 -10t1.5 -10q1 -4 -10 -8t-17 -4z" />
  </g>

</svg>
