<?xml version="1.0" standalone="no"?>
<!DOCTYPE svg PUBLIC "-//W3C//DTD SVG 1.1//EN" "http://www.w3.org/Graphics/SVG/1.1/DTD/svg11.dtd" >
<svg xmlns="http://www.w3.org/2000/svg" xmlns:xlink="http://www.w3.org/1999/xlink" version="1.1" viewBox="-10 0 528 1000">
  <g transform="matrix(1 0 0 -1 0 800)">
   <path fill="currentColor"
d="M410 -285q-22 0 -44.5 11t-37 27t-14.5 30q0 13 3.5 35t9.5 51q6 22 12 61t13 86.5t13.5 96.5t12 91.5t8.5 71.5t3 37q0 13 -5.5 20t-15.5 7q-11 0 -30.5 -23.5t-43 -64t-45.5 -90t-38 -101.5q-8 -26 -17 -50t-25 -24q-29 0 -49.5 15t-20.5 34q0 22 6.5 48.5t11.5 49.5
q5 22 10.5 46t5.5 51q0 40 -11.5 59.5t-41.5 19.5q-28 0 -39 -5.5t-17 -5.5q-13 0 -13 15q0 28 15.5 55t38 45.5t45.5 18.5q40 0 57.5 -26.5t16.5 -74.5q0 -19 -2.5 -39t-7 -41t-10.5 -45q-1 -6 1.5 -8.5t3.5 -2.5q3 0 5 2.5t6 8.5q28 63 59.5 114t63.5 81.5t59 30.5
q22 0 43 -19t34.5 -48t13.5 -62q0 -132 -1.5 -268t-2.5 -267q0 -29 -10.5 -41.5t-28.5 -12.5zM313 467q-10 -2 -13 7t-3 22q1 14 4.5 39.5t8 54.5t9 53.5t7.5 35.5t15.5 17t21.5 6q19 0 35 -16.5t16 -33.5q0 -6 -8 -24.5t-21 -43.5t-26 -50.5t-25 -44.5q-4 -9 -10 -14.5
t-11 -7.5zM147 469q-27 0 -27 14t19 18q28 8 43 23t15 37q0 16 -10.5 26t-25.5 16q-18 6 -32 15.5t-14 32.5q0 24 17.5 36t43.5 12q40 0 66.5 -26.5t26.5 -70.5q0 -34 -13 -59.5t-33 -41.5t-40.5 -24t-35.5 -8zM159 -244q-38 0 -62.5 27.5t-24.5 76.5q0 56 10.5 73.5
t29.5 20.5l52 2q26 2 23 -14q-7 -44 -7 -72t26 -29q17 -1 28.5 3.5t14.5 4.5q15 0 15 -12q0 -13 -12.5 -32t-36.5 -34t-56 -15z" />
  </g>

</svg>
