<?xml version="1.0" standalone="no"?>
<!DOCTYPE svg PUBLIC "-//W3C//DTD SVG 1.1//EN" "http://www.w3.org/Graphics/SVG/1.1/DTD/svg11.dtd" >
<svg xmlns="http://www.w3.org/2000/svg" xmlns:xlink="http://www.w3.org/1999/xlink" version="1.1" viewBox="-28 0 1033 1000">
  <g transform="matrix(1 0 0 -1 0 800)">
   <path fill="currentColor"
d="M262 -4q-8 0 -14.5 3.5t-8.5 10.5q-6 27 -18.5 60.5t-23 64t-10.5 47.5q0 16 15 16q7 0 12 -3.5t10 -13.5q17 -38 49.5 -47t71.5 -9h67q7 0 8.5 5.5t-7.5 12.5q-57 33 -93 69t-53.5 80t-17.5 100q0 64 27.5 115t75 85.5t108.5 53t130 18.5q67 0 128 -18t108 -52.5
t74.5 -84.5t27.5 -114q0 -56 -17 -100.5t-53.5 -81t-92.5 -69.5q-8 -6 -8.5 -11t5.5 -8h96q33 0 58 13.5t38 44.5q4 9 9.5 13t12.5 4q15 0 15 -17q0 -12 -6 -32.5t-15 -45.5t-17.5 -49.5t-14.5 -45.5q-2 -7 -8.5 -10.5t-14.5 -3.5q-7 0 -28.5 1t-52.5 1q-21 0 -43 0.5
t-45 0.5q-17 1 -34 1h-35h-38q-7 0 -7 11q0 14 7.5 34t18.5 30q27 24 50.5 63.5t39 91.5t15.5 108q0 58 -11 109.5t-32.5 90t-54.5 60.5t-78 22q-44 0 -76.5 -21t-54 -58.5t-31.5 -87.5t-10 -107q0 -58 14.5 -111t38.5 -94.5t53 -66.5q11 -10 17.5 -30t7.5 -33q0 -5 -1.5 -8
t-6.5 -3h-38.5h-36t-34.5 -1q-21 0 -41 -0.5t-39 -0.5q-34 0 -56.5 -1t-30.5 -1zM180 442q-10 -2 -13 7t-3 22q1 14 4.5 39.5t8 54.5t9 53.5t7.5 35.5t15.5 17t21.5 6q19 0 35 -16.5t16 -33.5q0 -6 -8 -24.5t-21 -43.5t-26 -50.5t-25 -44.5q-4 -9 -10 -14.5t-11 -7.5z
M14 444q-27 0 -27 14t19 18q28 8 43 23t15 37q0 16 -10.5 26t-25.5 16q-18 6 -32 15.5t-14 32.5q0 24 17.5 36t43.5 12q40 0 66.5 -26.5t26.5 -70.5q0 -34 -13 -59.5t-33 -41.5t-40.5 -24t-35.5 -8zM603 -246q-38 0 -62.5 27.5t-24.5 76.5q0 56 10.5 73.5t29.5 20.5l52 2
q26 2 23 -14q-7 -44 -7 -72t26 -29q17 -1 28.5 3.5t14.5 4.5q15 0 15 -12q0 -13 -12.5 -32t-36.5 -34t-56 -15z" />
  </g>

</svg>
