<?xml version="1.0" standalone="no"?>
<!DOCTYPE svg PUBLIC "-//W3C//DTD SVG 1.1//EN" "http://www.w3.org/Graphics/SVG/1.1/DTD/svg11.dtd" >
<svg xmlns="http://www.w3.org/2000/svg" xmlns:xlink="http://www.w3.org/1999/xlink" version="1.1" viewBox="-10 0 600 1000">
  <g transform="matrix(1 0 0 -1 0 800)">
   <path fill="currentColor"
d="M42 -5q-10 0 -15.5 4.5t-5.5 10.5q0 7 6 12.5t15 8.5q34 9 48.5 21t14.5 43v458q0 22 -5 34t-19 19t-41 13q-21 5 -21 21q0 7 6 11t14 4q23 0 48.5 -1t50 -2.5t44.5 -1.5q21 0 47 1t53.5 2t49.5 1q9 0 13.5 -3.5t4.5 -10.5q0 -10 -5.5 -14t-15.5 -7q-41 -11 -55.5 -23.5
t-14.5 -42.5v-450q0 -28 12.5 -40t41.5 -12h102q22 0 39.5 7.5t31.5 19.5q17 16 30 36.5t23 42.5q10 20 15.5 26t11.5 6q8 0 11 -7t3 -13q0 -2 -2 -9t-2 -11q-7 -29 -13 -50.5t-9.5 -41t-6.5 -43.5q-1 -7 -4.5 -13t-11.5 -6q-21 0 -61 1t-89.5 1.5t-101 1.5t-95.5 1
q-21 0 -48 -1t-52.5 -2.5t-41.5 -1.5zM310 -218q-34 0 -58.5 22t-24.5 53q0 33 24.5 55t58.5 22q36 0 61.5 -22t25.5 -55q0 -31 -25.5 -53t-61.5 -22z" />
  </g>

</svg>
