<?xml version="1.0" standalone="no"?>
<!DOCTYPE svg PUBLIC "-//W3C//DTD SVG 1.1//EN" "http://www.w3.org/Graphics/SVG/1.1/DTD/svg11.dtd" >
<svg xmlns="http://www.w3.org/2000/svg" xmlns:xlink="http://www.w3.org/1999/xlink" version="1.1" viewBox="-10 0 569 1000">
  <g transform="matrix(1 0 0 -1 0 800)">
   <path fill="currentColor"
d="M37 -3q-20 0 -20 14q0 13 23 20q15 5 26 11t12 28v480q0 27 -7 47t-32 25q-11 2 -11 15t10 15q23 5 52.5 14.5t57.5 20t43 15.5q8 3 13 3q6 0 8 -3.5t2 -8.5t-1.5 -14.5t-2.5 -23t-2 -31.5v-231q0 -10 1 -18t5 -11q15 13 36 28.5t48.5 27.5t61.5 12q53 0 89 -37.5
t36 -104.5v-218q0 -21 11 -28.5t25 -12.5q11 -3 16.5 -7.5t5.5 -12.5q0 -14 -22 -14q-24 0 -39 1.5t-28.5 2.5t-34.5 1q-22 0 -34 -1t-25 -2.5t-37 -1.5q-25 0 -25 15q0 8 6.5 12.5t14.5 6.5q13 5 24 13t11 30v197q0 22 -9 39.5t-23.5 28t-31.5 10.5q-15 0 -33 -5t-35 -17
q-8 -6 -10.5 -13.5t-2.5 -22.5v-219q0 -20 10 -27.5t23 -12.5q9 -3 15 -7.5t6 -12.5q0 -15 -18 -15q-20 0 -37.5 1.5t-33 2.5t-33.5 1q-17 0 -33.5 -1t-33.5 -2.5t-37 -1.5zM80 -274q-22 0 -33 9t-11 39q0 14 4.5 19t12.5 5q12 0 27.5 -8t39.5 -8q15 0 22 10.5t7 29.5
q0 21 -18 32t-38 11q-13 0 -19.5 -5t-13.5 -5q-6 0 -14 6.5t-8 17.5q0 9 14 25l90 104h44l-36 -43q-5 -7 -5 -10q0 -5 12 -11q25 -11 40 -31t15 -53q0 -26 -13.5 -50t-33.5 -43t-42.5 -30t-42.5 -11z" />
  </g>

</svg>
