<?xml version="1.0" standalone="no"?>
<!DOCTYPE svg PUBLIC "-//W3C//DTD SVG 1.1//EN" "http://www.w3.org/Graphics/SVG/1.1/DTD/svg11.dtd" >
<svg xmlns="http://www.w3.org/2000/svg" xmlns:xlink="http://www.w3.org/1999/xlink" version="1.1" viewBox="-10 0 615 1000">
  <g transform="matrix(1 0 0 -1 0 800)">
   <path fill="currentColor"
d="M161 -14q-32 0 -56 18t-41 46.5t-26 62t-9 64.5q0 56 17 102.5t42 81t47 53.5t31 19q17 0 31.5 -13.5t24 -29.5t9.5 -25q0 -3 -9 -13.5t-23 -24.5t-29 -28q-21 -18 -40.5 -45t-31.5 -59t-12 -66q0 -16 5 -28t15 -18.5t23 -6.5q34 0 61.5 15.5t44 37.5t16.5 43t-7 39
t-7 36q0 19 20 37t51 18q21 0 40.5 -16t19.5 -44q0 -21 -9.5 -53.5t-22.5 -57.5q0 -4 1.5 -9.5t2.5 -10.5q5 -15 13.5 -24t26.5 -9q31 0 49.5 22.5t26.5 59t8 75.5q0 37 -10.5 67t-25 52.5t-25 35.5t-10.5 16q0 12 15.5 20.5t24.5 8.5q29 0 55 -20t45.5 -52.5t30.5 -72
t11 -79.5q0 -55 -21 -107t-60.5 -85t-97.5 -33q-24 0 -44 17.5t-32 38t-16 30.5q-5 12 -13 0q-8 -10 -24.5 -31t-42.5 -38t-63 -17zM276 469q-27 0 -27 14t19 18q28 8 43 23t15 37q0 16 -10.5 26t-24.5 16q-19 6 -32.5 15.5t-13.5 32.5q0 24 17 36t44 12q39 0 66 -26.5
t27 -70.5q0 -34 -13.5 -59.5t-33 -41.5t-40.5 -24t-36 -8zM305 -246q-38 0 -62.5 27.5t-24.5 76.5q0 56 10.5 73.5t29.5 20.5l52 2q26 2 23 -14q-7 -44 -7 -72t26 -29q17 -1 28.5 3.5t14.5 4.5q15 0 15 -12q0 -13 -12.5 -32t-36.5 -34t-56 -15z" />
  </g>

</svg>
