<?xml version="1.0" standalone="no"?>
<!DOCTYPE svg PUBLIC "-//W3C//DTD SVG 1.1//EN" "http://www.w3.org/Graphics/SVG/1.1/DTD/svg11.dtd" >
<svg xmlns="http://www.w3.org/2000/svg" xmlns:xlink="http://www.w3.org/1999/xlink" version="1.1" viewBox="-10 0 473 1000">
  <g transform="matrix(1 0 0 -1 0 800)">
   <path fill="currentColor"
d="M218 -15q-33 0 -62.5 17.5t-48 45t-18.5 55.5q0 11 5 32t10.5 46.5t10.5 50.5t5 45q0 26 -10.5 35.5t-40.5 9.5q-25 0 -35.5 -3.5t-15.5 -3.5q-6 0 -9 2.5t-3 10.5q0 19 15.5 43.5t42 42.5t62.5 18q41 0 57.5 -15.5t16.5 -48.5q0 -15 -7.5 -41.5t-17.5 -57.5t-17.5 -60.5
t-7.5 -51.5q0 -29 17 -40t47 -11q31 0 58.5 23t44.5 60.5t17 78.5q0 49 -8 84.5t-17 57t-10 27.5q-1 4 4 6t8 2q21 0 40 -11.5t37 -24.5q15 -10 25 -37.5t15.5 -62.5t5.5 -71q0 -46 -17.5 -91t-48 -81.5t-69.5 -58.5t-81 -22zM274 484q-5 0 -12 4t-15 11q-15 16 -32 32.5
t-33.5 34t-31.5 35.5t-26 35q-7 13 1.5 25.5t24.5 20t31 7.5q13 0 19 -4t9 -11q5 -11 15.5 -32l22.5 -45t21 -46t13 -35q3 -13 3 -22.5t-10 -9.5z" />
  </g>

</svg>
