<?xml version="1.0" standalone="no"?>
<!DOCTYPE svg PUBLIC "-//W3C//DTD SVG 1.1//EN" "http://www.w3.org/Graphics/SVG/1.1/DTD/svg11.dtd" >
<svg xmlns="http://www.w3.org/2000/svg" xmlns:xlink="http://www.w3.org/1999/xlink" version="1.1" viewBox="-10 0 462 1000">
  <g transform="matrix(1 0 0 -1 0 800)">
   <path fill="currentColor"
d="M129 -14q-27 0 -50 13t-36.5 34t-13.5 46q0 34 21.5 57t63.5 41l89 39q20 9 24.5 16t4.5 26l1 57q1 28 -10 44.5t-33 16.5q-13 0 -26 -5.5t-20 -12.5q-3 -4 -4.5 -9.5t-1.5 -11.5t1 -14.5t1 -14.5t-16 -15.5t-37 -17t-36 -7.5q-7 0 -12.5 6t-5.5 15q0 16 11 31.5t36 35.5
q26 22 57 39t61.5 27t51.5 10q54 0 86 -34.5t30 -91.5l-5 -202q-1 -23 8 -39t22 -16q19 0 33 13q3 3 6 3q5 0 8.5 -3t3.5 -8q0 -12 -18 -31q-19 -18 -40 -27.5t-44 -9.5q-56 0 -93 57h-2q-33 -30 -59.5 -43.5t-56.5 -13.5zM189 51q11 0 18 3.5t14 11.5q3 4 5 10.5t2 15.5
l3 72q0 10 -3 13t-7 3q-2 0 -5 -1t-7 -3q-29 -14 -43 -28.5t-14 -46.5q0 -29 12 -39.5t25 -10.5zM220 456q-38 0 -66 19t-43 46t-15 49q0 12 5 21t14 9t16 -7t10 -17q8 -19 29.5 -28.5t49.5 -9.5t50 9.5t29 28.5q4 10 10.5 17t15.5 7q10 0 14.5 -9t4.5 -21q0 -22 -14.5 -49
t-43 -46t-66.5 -19zM223 563q-13 0 -27 16t-14 29q0 8 7.5 16.5t14.5 14.5q9 9 15 15.5t6 17.5q0 7 -6 11t-17 4t-20.5 -8t-25.5 -28q-3 -3 -8 -7.5t-12 -4.5t-14.5 8.5t-13 18.5t-5.5 16q0 10 6 17.5t12 11.5q19 10 41.5 18.5t57.5 8.5q37 0 67 -16.5t30 -48.5
q0 -16 -16 -32.5t-41 -24.5q-9 -3 -12.5 -6.5t-3.5 -8.5t2 -11.5t3 -11.5q0 -6 -8 -10.5t-18 -4.5z" />
  </g>

</svg>
