<?xml version="1.0" standalone="no"?>
<!DOCTYPE svg PUBLIC "-//W3C//DTD SVG 1.1//EN" "http://www.w3.org/Graphics/SVG/1.1/DTD/svg11.dtd" >
<svg xmlns="http://www.w3.org/2000/svg" xmlns:xlink="http://www.w3.org/1999/xlink" version="1.1" viewBox="-10 0 421 1000">
  <g transform="matrix(1 0 0 -1 0 800)">
   <path fill="currentColor"
d="M211 -14q-53 0 -95.5 28.5t-67 77t-24.5 109.5q0 65 30 117t80.5 83t112.5 31q82 0 136 -54q9 -10 9 -18q0 -6 -9 -17.5t-20 -20.5t-19 -9q-9 0 -17.5 5.5t-16.5 12.5q-26 22 -52.5 35.5t-45.5 13.5q-38 0 -57.5 -31.5t-19.5 -102.5q0 -49 15.5 -84.5t44.5 -54.5t70 -19
q30 0 52 9.5t46 29.5q5 3 8.5 6t8.5 3q12 0 12 -16q0 -4 -1.5 -11.5t-6.5 -16.5q-9 -20 -34.5 -45t-60.5 -43t-78 -18zM159 -274q-22 0 -33 9t-11 39q0 14 4.5 19t12.5 5q12 0 27.5 -8t39.5 -8q15 0 22 10.5t7 29.5q0 21 -18 32t-38 11q-13 0 -19.5 -5t-13.5 -5
q-6 0 -14 6.5t-8 17.5q0 9 14 25l90 104h44l-36 -43q-5 -7 -5 -10q0 -5 12 -11q25 -11 40 -31t15 -53q0 -26 -13.5 -50t-33.5 -43t-42.5 -30t-42.5 -11zM204 453q-10 0 -10 12q0 4 1 9.5t4 11.5q8 19 20.5 48t25 56.5t19.5 42.5q8 15 18.5 20t26.5 5q24 0 41.5 -6t17.5 -18
q0 -5 -2 -11.5t-8 -13.5q-19 -21 -40.5 -46t-43 -49t-43.5 -45q-16 -16 -27 -16z" />
  </g>

</svg>
