<?xml version="1.0" standalone="no"?>
<!DOCTYPE svg PUBLIC "-//W3C//DTD SVG 1.1//EN" "http://www.w3.org/Graphics/SVG/1.1/DTD/svg11.dtd" >
<svg xmlns="http://www.w3.org/2000/svg" xmlns:xlink="http://www.w3.org/1999/xlink" version="1.1" viewBox="-10 0 562 1000">
  <g transform="matrix(1 0 0 -1 0 800)">
   <path fill="currentColor"
d="M346 -21q-8 0 -8 10q0 12 2.5 32t2.5 31q0 4 -0.5 7t-1.5 4q-27 -33 -69 -55.5t-89 -22.5q-31 0 -56 18.5t-39.5 50.5t-14.5 72v187q0 23 -8.5 37t-31.5 19q-6 1 -10.5 5.5t-4.5 13.5q0 7 4 11.5t11 5.5q42 2 76 8.5t69 15.5q5 1 10.5 2.5t10.5 1.5q14 0 13 -14
q-4 -23 -6 -38.5t-2 -38.5v-192q0 -24 8 -42t22 -28t31 -11q16 0 31.5 4t29.5 18q6 5 13 20.5t7 41.5v161q0 18 -7 29.5t-19 18.5t-28 8q-11 1 -17.5 5.5t-6.5 16.5q0 10 7 15t17 5q51 3 81 5.5t49 5.5t38 7q3 1 7 2t6 1q15 0 15 -12q0 -3 -1 -7t-3 -8q-1 -4 -2.5 -17.5
t-3 -28.5t-1.5 -24v-232q0 -23 5.5 -30.5t12.5 -7.5q5 0 15 -0.5t13 -0.5q9 0 14 -5t5 -13q0 -9 -3.5 -14.5t-13.5 -6.5q-48 -4 -86.5 -16.5t-66.5 -23.5q-6 -2 -13 -4.5t-13 -2.5zM157 474q-4 0 -12.5 7t-8.5 12t10 19.5t24.5 30t28 27.5t19.5 12q12 0 25 -2.5t44 -4.5
q22 -1 39.5 -2.5t27.5 -1.5q9 0 18.5 5t17.5 15q8 9 12 15t8 6q5 0 13.5 -7t8.5 -13q0 -4 -4.5 -9.5t-12.5 -17.5q-11 -15 -19 -26t-17 -24q-6 -9 -15 -11.5t-15 -2.5q-9 0 -28.5 1.5t-43 3t-44 3t-30.5 1.5q-7 0 -11.5 -3.5t-10.5 -8.5q-9 -11 -14.5 -17.5t-9.5 -6.5z
M241 607q-8 0 -8 16q0 7 5.5 30.5t13 52t14 51t8.5 26.5q5 8 12 14t15 6q11 0 27 -5t28 -13t12 -18q0 -5 -9 -20t-23 -34.5t-28.5 -38.5t-25 -33t-13.5 -17q-7 -7 -13.5 -12t-14.5 -5z" />
  </g>

</svg>
