<?xml version="1.0" standalone="no"?>
<!DOCTYPE svg PUBLIC "-//W3C//DTD SVG 1.1//EN" "http://www.w3.org/Graphics/SVG/1.1/DTD/svg11.dtd" >
<svg xmlns="http://www.w3.org/2000/svg" xmlns:xlink="http://www.w3.org/1999/xlink" version="1.1" viewBox="-10 0 468 1000">
  <g transform="matrix(1 0 0 -1 0 800)">
   <path fill="currentColor"
d="M165.154 166.037l-31.7939 43.2764l123.645 69.7705q9.71484 5.2998 17.6641 7.50781q7.94824 2.20801 15.8965 2.20801q30.9111 0 30.9111 -20.3135q0 -9.71484 -3.53223 -14.1309t-8.83203 -7.06543zM48.5752 124.528q-12.3652 0 -23.8467 4.85742
q-11.4805 4.85742 -11.4805 14.5723q0 7.06543 3.09082 11.4814t9.27344 7.94824l107.748 61.8232l31.7939 -43.2764l-84.7852 -47.6914q-16.7803 -9.71484 -31.7939 -9.71484zM44.1592 -2.64941q-3.5332 0 -7.06543 3.53223q-3.5332 3.5332 -3.5332 7.94922
q0 2.64941 2.64941 7.06543t11.4814 7.94824q20.3135 6.18262 28.2617 11.4814q7.94922 5.29883 7.94922 24.7295v264.953q0 19.4297 -7.06543 28.7031t-33.5615 17.2227q-6.18164 1.76562 -11.0391 6.18164t-4.85742 11.4814t5.74023 9.27344t10.1562 2.20801
q13.248 0 32.2363 -0.882812q18.9883 -0.883789 38.418 -1.7666q19.4307 -0.883789 32.6777 -0.883789q12.3652 0 31.7949 0.883789q19.4297 0.882812 39.3008 1.32422q19.8721 0.442383 32.2363 0.442383q7.06543 0 10.1562 -3.0918q3.0918 -3.09082 3.0918 -8.38965
q0 -6.18262 -4.85742 -10.1572q-4.85742 -3.97363 -10.1572 -5.74023q-18.5459 -4.41602 -24.7285 -16.7803t-6.18262 -33.5615v-250.822q0 -17.6641 6.62402 -23.4043t16.3389 -5.74023h52.9902q22.0801 0 35.7695 5.29883t25.6123 20.7549
q11.9229 15.4551 26.0537 46.3662q3.53223 6.18262 7.06543 10.1572q3.53223 3.97363 8.83105 3.97363q7.06543 0 9.27344 -5.29883t2.20801 -10.5977q0 -4.41602 -3.53223 -18.9883q-3.5332 -14.5732 -7.94922 -31.7949t-7.94824 -31.7939
q-3.53223 -14.5732 -5.29883 -18.9893q-0.883789 -3.53223 -4.85742 -8.38965q-3.97461 -4.85742 -10.1572 -4.85742q-8.83105 0 -33.5605 0.441406q-24.7285 0.441406 -58.29 0.882812q-33.5605 0.442383 -68.8877 1.3252t-67.1211 0.882812
q-17.6641 -0.882812 -41.9512 -2.20801q-24.2871 -1.32422 -54.3154 -1.32422z" />
  </g>

</svg>
