<?xml version="1.0" standalone="no"?>
<!DOCTYPE svg PUBLIC "-//W3C//DTD SVG 1.1//EN" "http://www.w3.org/Graphics/SVG/1.1/DTD/svg11.dtd" >
<svg xmlns="http://www.w3.org/2000/svg" xmlns:xlink="http://www.w3.org/1999/xlink" version="1.1" viewBox="-10 0 376 1000">
  <g transform="matrix(1 0 0 -1 0 800)">
   <path fill="currentColor"
d="M181 -14q-42 0 -75.5 14.5t-53 41.5t-19.5 63q0 15 9 32t21 31t20 21q14 13 -3 22q-22 10 -34.5 25t-12.5 45q0 42 29.5 76t77 55t100.5 21q30 0 49 -16t19 -37q0 -15 -17.5 -33t-39.5 -18q-72 0 -112.5 -21t-40.5 -49q0 -11 6.5 -19t21.5 -8q7 0 21.5 8t33.5 18t39 17.5
t38 7.5q28 0 37 -12.5t9 -30.5q0 -31 -23.5 -54t-51.5 -23q-12 0 -30 2t-35 3t-28 -1q-19 -3 -29.5 -13.5t-10.5 -23.5q0 -14 19 -26t51 -12q21 0 46.5 5.5t49 14.5t39.5 18l17 8.5t10 3.5q17 0 17 -17q0 -24 -14 -48.5t-37.5 -45t-53 -33t-59.5 -12.5zM246 467
q-10 -2 -13.5 7t-2.5 23q1 13 4.5 38.5t8 54.5t9 53.5t7.5 35.5q3 12 15.5 17.5t21.5 5.5q19 0 34.5 -16.5t15.5 -33.5q0 -6 -8 -24.5t-20.5 -43.5t-26 -50.5t-24.5 -44.5q-5 -8 -10.5 -14t-10.5 -8zM172 469q-15 0 -35.5 8t-40.5 24t-33 41.5t-13 59.5q0 44 26.5 70.5
t66.5 26.5q26 0 43 -12t17 -36q0 -23 -13.5 -32.5t-31.5 -15.5q-15 -6 -25.5 -16t-10.5 -26q0 -22 15 -37t43 -23q19 -4 19 -18t-27 -14z" />
  </g>

</svg>
