<?xml version="1.0" standalone="no"?>
<!DOCTYPE svg PUBLIC "-//W3C//DTD SVG 1.1//EN" "http://www.w3.org/Graphics/SVG/1.1/DTD/svg11.dtd" >
<svg xmlns="http://www.w3.org/2000/svg" xmlns:xlink="http://www.w3.org/1999/xlink" version="1.1" viewBox="-10 0 606 1000">
  <g transform="matrix(1 0 0 -1 0 800)">
   <path fill="currentColor"
d="M521 -4q-11 0 -38 0.5t-63.5 1t-79 1.5t-82.5 1q-36 -1 -72.5 -1.5t-72.5 -1.5l-77 -2q-9 0 -12.5 13t-1.5 16q8 14 18 30t20.5 33t19.5 32q36 58 72 115.5t72 114t72 113.5t72 115q2 5 3.5 9t1.5 8t-3 7t-13 3h-37h-40h-37h-34q-41 0 -73.5 -22.5t-55.5 -62.5
q-6 -11 -16 -22.5t-25 -11.5q-8 0 -11 5t-3 12q0 6 2 13.5t5 13.5q11 24 16 43t8 39.5t5 47.5q2 15 6.5 21t15.5 6q8 0 22.5 -11t28.5 -16q18 -7 38.5 -8.5t47.5 -1.5h58h60q18 0 48 1t64.5 1.5t65.5 1.5t49 1q7 0 13 -10t3 -14l-68 -108q-34 -53 -67.5 -108.5t-66.5 -111
t-65.5 -109.5t-64.5 -104q-10 -16 -10 -26q0 -6 5 -9t17 -4q13 -1 36.5 -2t38.5 -1q42 0 73.5 3.5t57.5 13.5q50 19 81 97q4 7 8.5 10t11.5 3q13 0 13 -14q0 -12 -3.5 -29.5t-8.5 -38t-10.5 -40.5t-10.5 -37q-3 -9 -10 -14t-17 -5zM178 693q-19 0 -19 12q0 9 8 15l105 94
q17 16 27 22.5t23 6.5q14 0 24 -6.5t27 -22.5l104 -93q7 -6 7 -16q0 -13 -16 -13q-7 0 -23.5 5t-37.5 13t-40.5 16.5t-32.5 15.5q-7 4 -12 4t-12 -4q-12 -7 -31.5 -15t-40.5 -16t-37.5 -13t-22.5 -5z" />
  </g>

</svg>
