<?xml version="1.0" standalone="no"?>
<!DOCTYPE svg PUBLIC "-//W3C//DTD SVG 1.1//EN" "http://www.w3.org/Graphics/SVG/1.1/DTD/svg11.dtd" >
<svg xmlns="http://www.w3.org/2000/svg" xmlns:xlink="http://www.w3.org/1999/xlink" version="1.1" viewBox="-10 0 522 1000">
  <g transform="matrix(1 0 0 -1 0 800)">
   <path fill="currentColor"
d="M136 -14q-32 0 -55.5 14.5t-36.5 42t-13 66.5t8.5 83t24 86t36.5 76.5t46.5 55t54.5 20.5q42 0 66.5 -39t39.5 -98q2 -5 5 -5.5t4 5.5q9 34 20 69.5t16 58.5q3 13 9.5 22t15.5 9q13 0 31 -12t31.5 -29.5t13.5 -34.5q0 -20 -14 -60.5t-39 -90t-57 -97.5q9 -15 22 -20.5
t24 -5.5q25 0 43 9.5t30.5 20t15.5 11.5q5 1 9.5 -1t6.5 -7q4 -6 6 -16t2 -20q0 -33 -15.5 -59t-39 -40t-46.5 -14q-30 0 -52 31.5t-33 82.5q-35 -44 -82 -79t-98 -35zM130 38q26 0 62 40t71 100q8 14 15.5 28t15.5 28q-13 40 -29.5 58.5t-41.5 18.5q-21 0 -44 -23
t-41.5 -58t-30.5 -72.5t-12 -68.5q0 -23 8.5 -37t26.5 -14zM373 467q-4 2 -10.5 7.5t-11.5 14.5q-9 20 -23 45t-26.5 50t-21 43.5t-8.5 24.5q0 17 16 33.5t34 16.5q11 0 23.5 -6t14.5 -17q2 -12 7 -36.5t10.5 -53t8.5 -54t2 -39.5q0 -13 -3 -22t-12 -7zM131 469
q-26 0 -26 14t19 18q27 8 42.5 23t15.5 37q0 16 -11 26t-25 16q-18 6 -32 15.5t-14 32.5q0 24 17.5 36t43.5 12q40 0 66.5 -26.5t26.5 -70.5q0 -34 -13.5 -59.5t-33 -41.5t-40 -24t-36.5 -8zM280 -244q-38 0 -62.5 27.5t-24.5 76.5q0 56 10.5 73.5t29.5 20.5l52 2
q26 2 23 -14q-7 -44 -7 -72t26 -29q17 -1 28.5 3.5t14.5 4.5q15 0 15 -12q0 -13 -12.5 -32t-36.5 -34t-56 -15z" />
  </g>

</svg>
