<?xml version="1.0" standalone="no"?>
<!DOCTYPE svg PUBLIC "-//W3C//DTD SVG 1.1//EN" "http://www.w3.org/Graphics/SVG/1.1/DTD/svg11.dtd" >
<svg xmlns="http://www.w3.org/2000/svg" xmlns:xlink="http://www.w3.org/1999/xlink" version="1.1" viewBox="-10 0 425 1000">
  <g transform="matrix(1 0 0 -1 0 800)">
   <path fill="currentColor"
d="M176 -14q-42 0 -71.5 19.5t-47 52t-26 71t-8.5 77.5q0 59 24 111t68.5 84t106.5 32q55 0 93 -31t57.5 -83.5t19.5 -117.5q0 -57 -25.5 -105.5t-73.5 -79t-117 -30.5zM155 96q50 2 93 24.5t69.5 57t26.5 72.5q-3 20 -16 35t-32.5 24t-44.5 9q-35 1 -67 -10.5t-58 -32
t-41.5 -46.5t-15.5 -53q0 -21 10.5 -39.5t30 -30t45.5 -10.5zM185 469q-27 0 -27 14t19 18q28 8 43 23t15 37q0 16 -10.5 26t-24.5 16q-19 6 -32.5 15.5t-13.5 32.5q0 24 17 36t44 12q39 0 66 -26.5t27 -70.5q0 -34 -13.5 -59.5t-33 -41.5t-40.5 -24t-36 -8z" />
  </g>

</svg>
