<?xml version="1.0" standalone="no"?>
<!DOCTYPE svg PUBLIC "-//W3C//DTD SVG 1.1//EN" "http://www.w3.org/Graphics/SVG/1.1/DTD/svg11.dtd" >
<svg xmlns="http://www.w3.org/2000/svg" xmlns:xlink="http://www.w3.org/1999/xlink" version="1.1" viewBox="-10 0 825 1000">
  <g transform="matrix(1 0 0 -1 0 800)">
   <path fill="currentColor"
d="M374 -14q-95 0 -158 35.5t-94.5 99t-31.5 147.5v270q0 28 -13 51t-38 29q-28 8 -28 22q0 7 7.5 11t18.5 4q32 0 66 -2.5t64 -2.5q28 0 67.5 2t67.5 2q12 0 19.5 -3.5t7.5 -11.5q0 -11 -15 -16t-32 -13q-15 -6 -26 -24.5t-11 -52.5v-257q0 -66 22 -111.5t59 -68.5t83 -23
q60 0 97 25.5t55.5 75.5t18.5 123v57v64.5t-1 63.5q-1 45 -6 70.5t-15.5 39.5t-29.5 23q-11 6 -25 10.5t-14 13.5q0 8 8 11t21 3q24 0 39 -0.5t28.5 -1t30.5 -0.5h60q25 0 35.5 12.5t10.5 24.5q0 9 -8.5 14t-18.5 9q-11 5 -20 12t-9 17q0 14 15 28.5t35.5 25.5t36.5 11
q13 0 25 -13.5t19.5 -32.5t7.5 -37q0 -31 -16.5 -53t-41.5 -37t-50 -24t-35.5 -25.5t-11.5 -45.5q-3 -75 -4.5 -141.5t-1.5 -132.5q0 -81 -36.5 -143.5t-97.5 -98t-136 -35.5zM434 682q12 2 12 9t-11 21q-25 33 -50.5 64t-54.5 61q-13 14 -34 12q-8 -1 -25.5 -7t-32.5 -14
t-13 -17q2 -10 19 -22q38 -25 82 -50t83 -49q9 -5 16 -7t9 -1z" />
  </g>

</svg>
