<?xml version="1.0" standalone="no"?>
<!DOCTYPE svg PUBLIC "-//W3C//DTD SVG 1.1//EN" "http://www.w3.org/Graphics/SVG/1.1/DTD/svg11.dtd" >
<svg xmlns="http://www.w3.org/2000/svg" xmlns:xlink="http://www.w3.org/1999/xlink" version="1.1" viewBox="-10 0 520 1000">
  <g transform="matrix(1 0 0 -1 0 800)">
   <path fill="currentColor"
d="M43.8955 -0.914062q-4.57227 0 -9.60254 3.2002q-5.0293 3.20117 -5.0293 11.4316q0 8.22949 5.4873 11.8877q5.48633 3.6582 9.14453 4.57227q24.6914 4.57324 32.9219 11.8887q8.23047 7.31641 8.23047 23.7773v286.234q0 17.376 -9.14551 22.4053
q-9.14453 5.03027 -33.8359 9.60254q-7.31543 1.8291 -10.5166 5.94434q-3.2002 4.11523 -3.2002 10.5166t4.57227 10.0586q4.57227 3.6582 9.14453 3.6582q14.6318 0 35.208 -1.37109q20.5762 -1.37207 41.6094 -2.74414q21.0332 -1.37109 33.8359 -1.37109
q17.375 0 31.5498 2.28613t32.9219 4.11523t50.7539 1.8291q60.3564 0 101.966 -13.2607q41.6094 -13.2598 63.0996 -42.0664t21.4902 -74.5312q0 -67.6719 -45.2666 -108.366q-45.2676 -40.6953 -123.914 -40.6953q-18.2891 0 -28.8057 5.94434t-10.5166 15.0889
q0 7.31641 4.57227 10.0596t9.14453 2.74316q7.31641 0 13.2607 -1.37109q5.94336 -1.37207 10.5166 -1.37207q17.375 0 28.8057 23.3193q11.4316 23.3193 11.4316 73.6162q0 61.2715 -17.833 89.1631q-17.832 27.8916 -42.5234 27.8916q-15.5459 0 -27.8916 -9.14453
t-12.3457 -27.4346l-0.915039 -284.406q0 -12.8027 12.3457 -20.1191q12.3457 -7.31543 42.5244 -11.8887q5.48633 -0.914062 10.0586 -4.57227q4.57324 -3.6582 4.57324 -10.9736t-4.57324 -11.4307q-4.57227 -4.11523 -10.9736 -4.11523q-12.8027 0 -37.9512 0.914062
t-50.2969 0.914062h-39.7803q-12.8027 0 -32.0068 -0.457031q-19.2051 -0.457031 -38.4092 -0.914062t-33.8359 -0.457031z" />
  </g>

</svg>
