<?xml version="1.0" standalone="no"?>
<!DOCTYPE svg PUBLIC "-//W3C//DTD SVG 1.1//EN" "http://www.w3.org/Graphics/SVG/1.1/DTD/svg11.dtd" >
<svg xmlns="http://www.w3.org/2000/svg" xmlns:xlink="http://www.w3.org/1999/xlink" version="1.1" viewBox="-10 0 562 1000">
  <g transform="matrix(1 0 0 -1 0 800)">
   <path fill="currentColor"
d="M346 -21q-8 0 -8 10q0 12 2.5 32t2.5 31q0 4 -0.5 7t-1.5 4q-27 -33 -69 -55.5t-89 -22.5q-31 0 -56 18.5t-39.5 50.5t-14.5 72v187q0 23 -8.5 37t-31.5 19q-6 1 -10.5 5.5t-4.5 13.5q0 7 4 11.5t11 5.5q42 2 76 8.5t69 15.5q5 1 10.5 2.5t10.5 1.5q14 0 13 -14
q-4 -23 -6 -38.5t-2 -38.5v-192q0 -24 8 -42t22 -28t31 -11q16 0 31.5 4t29.5 18q6 5 13 20.5t7 41.5v161q0 18 -7 29.5t-19 18.5t-28 8q-11 1 -17.5 5.5t-6.5 16.5q0 10 7 15t17 5q51 3 81 5.5t49 5.5t38 7q3 1 7 2t6 1q15 0 15 -12q0 -3 -1 -7t-3 -8q-1 -4 -2.5 -17.5
t-3 -28.5t-1.5 -24v-232q0 -23 5.5 -30.5t12.5 -7.5q5 0 15 -0.5t13 -0.5q9 0 14 -5t5 -13q0 -9 -3.5 -14.5t-13.5 -6.5q-48 -4 -86.5 -16.5t-66.5 -23.5q-6 -2 -13 -4.5t-13 -2.5zM290 498q-13 0 -27 17.5t-14 31.5q0 8 7.5 17t14.5 16q9 9 15.5 16t6.5 19q0 9 -6.5 15
t-17.5 6t-20.5 -10.5t-25.5 -30.5q-3 -4 -8 -8.5t-12 -4.5t-14.5 9t-13 20t-5.5 17q0 8 6 16.5t12 12.5q19 12 41.5 21.5t57.5 9.5q37 0 67 -18.5t30 -52.5q0 -17 -16 -35t-41 -27q-9 -4 -12.5 -7.5t-3.5 -8.5t2 -12t3 -12q0 -7 -8 -12t-18 -5z" />
  </g>

</svg>
