<?xml version="1.0" standalone="no"?>
<!DOCTYPE svg PUBLIC "-//W3C//DTD SVG 1.1//EN" "http://www.w3.org/Graphics/SVG/1.1/DTD/svg11.dtd" >
<svg xmlns="http://www.w3.org/2000/svg" xmlns:xlink="http://www.w3.org/1999/xlink" version="1.1" viewBox="-18 0 872 1000">
  <g transform="matrix(1 0 0 -1 0 800)">
   <path fill="currentColor"
d="M469 -14q-69 0 -131.5 23.5t-111 67t-76 104t-27.5 134.5q0 68 22.5 130.5t67.5 111.5t111.5 78t153.5 29q70 0 132.5 -23.5t110.5 -67t76 -104t28 -134.5q0 -67 -23 -130t-68 -112t-111.5 -78t-153.5 -29zM487 32q57 0 95.5 32t57.5 89t19 131q0 61 -11.5 120.5
t-36 107.5t-62.5 76.5t-90 28.5q-56 0 -94.5 -32t-57.5 -88t-19 -130q0 -62 12 -121.5t36 -107.5t61.5 -77t89.5 -29zM23 444q-27 0 -27 14t19 18q28 8 43 23t15 37q0 16 -10.5 26t-24.5 16q-19 6 -32.5 15.5t-13.5 32.5q0 24 17 36t44 12q39 0 66 -26.5t27 -70.5
q0 -34 -13.5 -59.5t-33 -41.5t-40.5 -24t-36 -8z" />
  </g>

</svg>
