<?xml version="1.0" standalone="no"?>
<!DOCTYPE svg PUBLIC "-//W3C//DTD SVG 1.1//EN" "http://www.w3.org/Graphics/SVG/1.1/DTD/svg11.dtd" >
<svg xmlns="http://www.w3.org/2000/svg" xmlns:xlink="http://www.w3.org/1999/xlink" version="1.1" viewBox="-10 0 770 1000">
  <g transform="matrix(1 0 0 -1 0 800)">
   <path fill="currentColor"
d="M375 -14q-69 0 -131.5 23.5t-111 67t-76 104t-27.5 134.5q0 68 22.5 130.5t67.5 111.5t111.5 78t153.5 29q70 0 132.5 -23.5t110.5 -67t76 -104t28 -134.5q0 -67 -23 -130t-68 -112t-111.5 -78t-153.5 -29zM393 32q57 0 95.5 32t57.5 89t19 131q0 61 -11.5 120.5
t-36 107.5t-62.5 76.5t-90 28.5q-56 0 -94.5 -32t-57.5 -88t-19 -130q0 -62 12 -121.5t36 -107.5t61.5 -77t89.5 -29zM254 691q-5 0 -12 6.5t-7 9.5q0 6 9 22t22.5 34t26.5 31.5t20 13.5q19 0 40.5 -1.5t42.5 -2.5q19 -1 40 -2t44 -1q11 0 19.5 6t15.5 13q8 8 12.5 15t7.5 7
q6 0 14.5 -6.5t8.5 -12.5q0 -3 -4.5 -10t-13.5 -18q-11 -16 -21 -31.5t-19 -28.5q-6 -9 -15 -11.5t-16 -2.5q-8 0 -31 1.5t-50.5 3.5t-51.5 4t-34 2q-8 0 -16 -6t-14 -13q-6 -8 -11 -15t-7 -7zM314 825q-7 0 -13 3.5t-6 9.5q0 5 3 10t12 13q14 11 33 25t40.5 28t42 27
t36.5 23q5 3 10 4t10 1q16 0 27.5 -13t18 -28t6.5 -22q0 -13 -10 -17q-20 -6 -41.5 -14t-44 -15.5t-44 -14.5t-43.5 -12q-8 -2 -18 -5t-19 -3z" />
  </g>

</svg>
