<?xml version="1.0" standalone="no"?>
<!DOCTYPE svg PUBLIC "-//W3C//DTD SVG 1.1//EN" "http://www.w3.org/Graphics/SVG/1.1/DTD/svg11.dtd" >
<svg xmlns="http://www.w3.org/2000/svg" xmlns:xlink="http://www.w3.org/1999/xlink" version="1.1" viewBox="-25 0 670 1000">
  <g transform="matrix(1 0 0 -1 0 800)">
   <path fill="currentColor"
d="M317 -3q-8 0 -14 3.5t-6 10.5q0 16 21 21q38 8 53 20.5t15 44.5v454q0 32 -13 45.5t-53 22.5q-21 5 -21 21q0 7 6 11t14 4q23 0 48.5 -1t50 -2.5t45.5 -1.5q20 0 45.5 1t52 2t48.5 1q9 0 14 -3.5t5 -10.5q0 -10 -5.5 -14t-16.5 -7q-40 -11 -53 -24.5t-13 -44.5v-452
q0 -29 14.5 -42.5t53.5 -23.5q10 -3 15.5 -7t5.5 -13q0 -7 -4.5 -11t-13.5 -4q-22 0 -49 1.5t-53 2.5t-46 1q-21 0 -46 -1t-51 -2.5t-49 -1.5zM255 447q-4 2 -10.5 7.5t-11.5 14.5q-9 20 -23 45t-26.5 50t-21 43.5t-8.5 24.5q0 17 16 33.5t34 16.5q11 0 23.5 -6t14.5 -17
q2 -12 7 -36.5t10.5 -53t8.5 -54t2 -39.5q0 -13 -3 -22t-12 -7zM108 444q-15 0 -36 8t-40.5 24t-33 41.5t-13.5 59.5q0 44 27 70.5t66 26.5q27 0 44 -12t17 -36q0 -23 -13.5 -32.5t-32.5 -15.5q-14 -6 -24.5 -16t-10.5 -26q0 -22 15 -37t43 -23q18 -4 18 -18t-26 -14z" />
  </g>

</svg>
