<?xml version="1.0" standalone="no"?>
<!DOCTYPE svg PUBLIC "-//W3C//DTD SVG 1.1//EN" "http://www.w3.org/Graphics/SVG/1.1/DTD/svg11.dtd" >
<svg xmlns="http://www.w3.org/2000/svg" xmlns:xlink="http://www.w3.org/1999/xlink" version="1.1" viewBox="-10 0 704 1000">
  <g transform="matrix(1 0 0 -1 0 800)">
   <path fill="currentColor"
d="M22.248 -2.78125q-7.41602 0 -13.4414 2.31738t-6.02539 9.7334q0 6.48926 5.56152 8.80664q5.5625 2.31836 10.1973 4.17188q20.3936 3.70801 33.8359 13.9053q13.4414 10.1963 21.7842 25.0283l185.4 292.006q13.9053 21.3213 -0.926758 25.0293l-52.8389 11.124
q-13.9053 3.70801 -13.9053 15.7588q0 5.5625 4.63477 8.80664t10.1973 3.24414q10.1963 0 26.8828 -0.926758t33.8359 -1.85352t27.3467 -0.926758q27.8096 0 65.8164 0.462891q38.0078 0.463867 78.332 0.926758q40.3242 0.463867 75.5508 0.463867
q35.2256 0 58.8643 0.463867q23.6387 0.462891 27.3467 0.462891q5.5625 0 12.0508 -3.70801q6.48926 -3.70801 6.48926 -12.9775q0.926758 -17.6133 6.95215 -42.1787t6.02539 -44.0332q0 -5.56152 -1.85352 -10.6602t-7.41602 -5.09863q-4.63477 0 -9.7334 4.17188
q-5.09863 4.1709 -7.87988 10.6602q-14.832 33.3721 -27.3467 49.5947t-45.8857 16.2227h-46.3506q-14.832 0 -23.6387 -7.41602t-8.80664 -24.1016v-103.824q0 -10.1973 5.09863 -13.4424q5.09863 -3.24414 14.3691 -3.24414h38.0068q16.6855 0 27.8096 10.1973
q11.124 10.1963 20.3945 34.2988q2.78125 8.34277 6.48828 10.6602q3.70898 2.31738 8.34375 2.31738t6.95215 -4.1709q2.31738 -4.17188 0.463867 -13.4414q-0.927734 -18.54 -1.85449 -32.4453t-0.926758 -28.7373t0.463867 -25.0293q0.462891 -10.1963 2.31738 -30.5908
q0.926758 -12.0508 -0.927734 -17.1494q-1.85352 -5.09863 -5.56152 -5.09863q-4.63477 0 -9.7334 4.17188q-5.09863 4.1709 -7.87988 12.5146q-6.48926 23.1748 -13.9053 33.3721q-7.41602 10.1963 -22.248 10.1963h-55.6191q-6.48926 0 -9.27051 -4.63477
t-2.78125 -9.26953v-107.532q0 -27.8105 30.5908 -27.8105h60.2559q27.8096 0 50.9844 20.8574q23.1758 20.8584 32.4453 51.4492q1.85449 6.48926 6.48926 10.6602q4.63477 4.17188 9.27051 4.17188q5.56152 0 8.34277 -6.02539q2.78027 -6.02637 2.78027 -11.5879
q0 -23.1748 -6.48828 -42.6416q-6.48926 -19.4678 -14.832 -48.2051q-2.78125 -9.26953 -8.34375 -13.9043q-5.56152 -4.63477 -14.832 -4.63477h-34.2988q-24.1016 0 -56.083 0.462891q-31.9814 0.463867 -67.208 0.463867h-67.6709q-14.832 0 -34.2998 -0.463867
q-19.4668 -0.462891 -38.9336 -0.926758t-32.4453 -0.463867q-13.9043 0 -13.9043 11.124q0 6.48926 5.09766 10.6611q5.09863 4.1709 11.5879 6.02539q18.54 4.63477 25.0293 11.124q6.48828 6.48926 6.48828 24.1016v39.8613v39.8613q0 5.56152 -3.24414 8.34277
t-10.6602 2.78125h-95.4814q-6.48926 0 -9.7334 -3.24512q-3.24414 -3.24414 -6.95312 -7.87891q-9.26953 -17.6133 -19.9297 -35.2266q-10.6611 -17.6123 -21.7852 -36.1533q-10.1973 -16.6855 -1.39062 -27.8096t43.1055 -16.6865q17.6133 -3.70703 17.6133 -14.832
q0 -11.123 -16.6855 -11.123q-27.8105 0 -48.668 1.38965q-20.8574 1.39062 -42.1787 1.39062q-19.4668 0 -35.2256 -1.85352q-15.7598 -1.85449 -39.8613 -1.85449zM233.604 192.816h69.5254q6.48926 0 8.34277 3.24414q1.85352 3.24512 1.85352 8.80664v142.759
q-0.926758 2.78027 -2.31738 3.24414q-1.38965 0.463867 -3.24414 -3.24414l-82.5029 -142.759q-3.70801 -6.48828 -0.927734 -9.26953q2.78125 -2.78125 9.27051 -2.78125z" />
  </g>

</svg>
