<?xml version="1.0" standalone="no"?>
<!DOCTYPE svg PUBLIC "-//W3C//DTD SVG 1.1//EN" "http://www.w3.org/Graphics/SVG/1.1/DTD/svg11.dtd" >
<svg xmlns="http://www.w3.org/2000/svg" xmlns:xlink="http://www.w3.org/1999/xlink" version="1.1" viewBox="-16 0 688 1000">
  <g transform="matrix(1 0 0 -1 0 800)">
   <path fill="currentColor"
d="M344 -3q-8 0 -14 3.5t-6 10.5q0 16 21 21q38 8 53 20.5t15 44.5v454q0 32 -13 45.5t-53 22.5q-21 5 -21 21q0 7 6 11t14 4q23 0 48.5 -1t50 -2.5t45.5 -1.5q20 0 45.5 1t52 2t48.5 1q9 0 14 -3.5t5 -10.5q0 -10 -5.5 -14t-16.5 -7q-40 -11 -53 -24.5t-13 -44.5v-452
q0 -29 14.5 -42.5t53.5 -23.5q10 -3 15.5 -7t5.5 -13q0 -7 -4.5 -11t-13.5 -4q-22 0 -49 1.5t-53 2.5t-46 1q-21 0 -46 -1t-51 -2.5t-49 -1.5zM192 442q-10 -2 -13 7t-3 22q1 14 4.5 39.5t8 54.5t9 53.5t7.5 35.5t15.5 17t21.5 6q19 0 35 -16.5t16 -33.5q0 -6 -8 -24.5
t-21 -43.5t-26 -50.5t-25 -44.5q-4 -9 -10 -14.5t-11 -7.5zM26 444q-27 0 -27 14t19 18q28 8 43 23t15 37q0 16 -10.5 26t-25.5 16q-18 6 -32 15.5t-14 32.5q0 24 17.5 36t43.5 12q40 0 66.5 -26.5t26.5 -70.5q0 -34 -13 -59.5t-33 -41.5t-40.5 -24t-35.5 -8z" />
  </g>

</svg>
