<?xml version="1.0" standalone="no"?>
<!DOCTYPE svg PUBLIC "-//W3C//DTD SVG 1.1//EN" "http://www.w3.org/Graphics/SVG/1.1/DTD/svg11.dtd" >
<svg xmlns="http://www.w3.org/2000/svg" xmlns:xlink="http://www.w3.org/1999/xlink" version="1.1" viewBox="-10 0 749 1000">
  <g transform="matrix(1 0 0 -1 0 800)">
   <path fill="currentColor"
d="M222 -3q-8 0 -14 3.5t-6 10.5q0 16 21 21q38 8 53 21.5t15 45.5l1 202q0 33 -5 71.5t-17 76t-30.5 68t-44 49t-59.5 18.5q-32 0 -57.5 -10t-45.5 -24q-4 -4 -9 -4q-12 0 -12 17q0 10 6 19t13 17q20 19 44 33t50.5 21.5t53.5 7.5q35 0 65.5 -11.5t56.5 -31t44.5 -45
t29.5 -53.5q3 -6 4 -6q2 0 2.5 2t1.5 3q15 29 35 54.5t44 45t53 31t60 11.5q37 0 70.5 -15t64.5 -45q7 -7 13 -16t6 -19q0 -16 -13 -16q-4 0 -9 3q-19 17 -45 26t-56 9q-43 0 -73.5 -27.5t-49.5 -71.5t-28.5 -93.5t-9.5 -94.5v-201q0 -29 14.5 -43.5t53.5 -24.5
q10 -3 15.5 -7t5.5 -13q0 -7 -4.5 -11t-13.5 -4q-22 0 -49 1.5t-53 2.5t-46 1q-21 0 -46 -1t-51 -2.5t-49 -1.5zM227 717q-9 0 -14 6t-5 12q0 17 5 31.5t14 23t18 8.5h269q9 0 13.5 -5.5t4.5 -12.5q0 -24 -12 -43.5t-29 -19.5h-264z" />
  </g>

</svg>
