<?xml version="1.0" standalone="no"?>
<!DOCTYPE svg PUBLIC "-//W3C//DTD SVG 1.1//EN" "http://www.w3.org/Graphics/SVG/1.1/DTD/svg11.dtd" >
<svg xmlns="http://www.w3.org/2000/svg" xmlns:xlink="http://www.w3.org/1999/xlink" version="1.1" viewBox="-10 0 298 1000">
  <g transform="matrix(1 0 0 -1 0 800)">
   <path fill="currentColor"
d="M158 -15q-40 0 -66.5 31.5t-26.5 94.5l1 295q0 16 16 21t50 5q36 0 47.5 -8.5t11.5 -23.5t-3 -40t-7 -55.5t-8 -62.5t-7 -60t-3 -47q0 -16 12.5 -20t28.5 -4q17 0 33 3.5t23 3.5t11 -4.5t4 -15.5q0 -24 -12.5 -50t-38.5 -44.5t-66 -18.5zM89 484q5 0 12 4t15 11
q15 16 32 32.5t33.5 34t31.5 35.5t26 35q7 13 -1.5 25.5t-24.5 20t-31 7.5q-13 0 -19 -4t-9 -11q-5 -11 -15.5 -32l-22.5 -45t-21 -46t-13 -35q-3 -13 -3 -22.5t10 -9.5z" />
  </g>

</svg>
