<?xml version="1.0" standalone="no"?>
<!DOCTYPE svg PUBLIC "-//W3C//DTD SVG 1.1//EN" "http://www.w3.org/Graphics/SVG/1.1/DTD/svg11.dtd" >
<svg xmlns="http://www.w3.org/2000/svg" xmlns:xlink="http://www.w3.org/1999/xlink" version="1.1" viewBox="-10 0 427 1000">
  <g transform="matrix(1 0 0 -1 0 800)">
   <path fill="currentColor"
d="M211 -14q-54 0 -96.5 28.5t-67 78t-24.5 112.5t29 114.5t79 82t110 30.5q43 0 77 -18.5t54.5 -49.5t20.5 -70q0 -38 -31 -38h-200q-14 0 -20.5 -8t-6.5 -27q0 -38 17 -69.5t46 -49.5t67 -18q29 0 53.5 11t48.5 30q4 3 7.5 5.5t6.5 2.5q10 0 10 -13q0 -11 -8 -30
q-10 -25 -33.5 -49.5t-58.5 -39.5t-80 -15zM162 298h60q28 0 39 1t20 4q5 2 8 10t3 18q0 27 -18.5 44t-45.5 17q-21 0 -39.5 -11.5t-30 -30t-10.5 -38.5q0 -14 14 -14zM68 -214q-5 0 -13.5 7.5t-8.5 11.5q0 6 12 23.5t28.5 38t32 36t22.5 15.5q11 0 24.5 -3t43.5 -5
q22 -1 40 -2.5t28 -1.5q9 0 18.5 5t16.5 15q11 12 15.5 18.5t8.5 6.5q6 0 14.5 -6.5t8.5 -12.5q0 -4 -6 -11.5t-16 -20.5q-11 -15 -22 -33t-21 -32q-6 -8 -15.5 -11t-15.5 -3q-8 0 -28 1.5t-43 3t-44 3t-30 1.5q-8 0 -13 -3.5t-10 -9.5q-12 -16 -17.5 -23.5t-9.5 -7.5z" />
  </g>

</svg>
