<?xml version="1.0" standalone="no"?>
<!DOCTYPE svg PUBLIC "-//W3C//DTD SVG 1.1//EN" "http://www.w3.org/Graphics/SVG/1.1/DTD/svg11.dtd" >
<svg xmlns="http://www.w3.org/2000/svg" xmlns:xlink="http://www.w3.org/1999/xlink" version="1.1" viewBox="-10 0 528 1000">
  <g transform="matrix(1 0 0 -1 0 800)">
   <path fill="currentColor"
d="M410 -285q-22 0 -44.5 11t-37 27t-14.5 30q0 13 3.5 35t9.5 51q6 22 12 61t13 86.5t13.5 96.5t12 91.5t8.5 71.5t3 37q0 13 -5.5 20t-15.5 7q-11 0 -30.5 -23.5t-43 -64t-45.5 -90t-38 -101.5q-8 -26 -17 -50t-25 -24q-29 0 -49.5 15t-20.5 34q0 22 6.5 48.5t11.5 49.5
q5 22 10.5 46t5.5 51q0 40 -11.5 59.5t-41.5 19.5q-28 0 -39 -5.5t-17 -5.5q-13 0 -13 15q0 28 15.5 55t38 45.5t45.5 18.5q40 0 57.5 -26.5t16.5 -74.5q0 -19 -2.5 -39t-7 -41t-10.5 -45q-1 -6 1.5 -8.5t3.5 -2.5q3 0 5 2.5t6 8.5q28 63 59.5 114t63.5 81.5t59 30.5
q22 0 43 -19t34.5 -48t13.5 -62q0 -132 -1.5 -268t-2.5 -267q0 -29 -10.5 -41.5t-28.5 -12.5zM141 648q-4 0 -12.5 7t-8.5 12t10 19.5t24.5 30t28 27.5t19.5 12q12 0 25 -2.5t44 -4.5q22 -1 39.5 -2.5t27.5 -1.5q9 0 18.5 5t17.5 15q8 9 12 15t8 6q5 0 13.5 -7t8.5 -13
q0 -4 -4.5 -9.5t-12.5 -17.5q-11 -15 -19 -26t-17 -24q-6 -9 -15 -11.5t-15 -2.5q-9 0 -28.5 1.5t-43 3t-44 3t-30.5 1.5q-7 0 -11.5 -3.5t-10.5 -8.5q-9 -11 -14.5 -17.5t-9.5 -6.5zM225 467q-25 0 -25 14q0 15 24 22q23 8 35 18.5t12 24.5q0 11 -12.5 18.5t-28.5 11.5
q-19 4 -31 14.5t-12 31.5q0 13 13.5 26t42.5 13q39 0 67.5 -26t28.5 -63q0 -31 -16 -54.5t-42 -37t-56 -13.5zM159 -244q-38 0 -62.5 27.5t-24.5 76.5q0 56 10.5 73.5t29.5 20.5l52 2q26 2 23 -14q-7 -44 -7 -72t26 -29q17 -1 28.5 3.5t14.5 4.5q15 0 15 -12
q0 -13 -12.5 -32t-36.5 -34t-56 -15z" />
  </g>

</svg>
