<?xml version="1.0" standalone="no"?>
<!DOCTYPE svg PUBLIC "-//W3C//DTD SVG 1.1//EN" "http://www.w3.org/Graphics/SVG/1.1/DTD/svg11.dtd" >
<svg xmlns="http://www.w3.org/2000/svg" xmlns:xlink="http://www.w3.org/1999/xlink" version="1.1" viewBox="-10 0 790 1000">
  <g transform="matrix(1 0 0 -1 0 800)">
   <path fill="currentColor"
d="M80 -143q-7 -7 -18 -5.5t-21 7.5t-13 10q-3 3 -2.5 9.5t4.5 10.5l572 566q-21 2 -43.5 4.5t-52 8.5t-74.5 16q-4 2 -7.5 3.5t-5.5 3.5q-3 5 -2 9.5t4 5.5q17 4 31 6t26 3.5t21 3.5q35 2 61 4.5t49.5 8t51 13.5t64.5 20q10 3 15.5 2.5t10.5 -6.5q9 -7 0 -28
q-12 -47 -19.5 -80t-11.5 -60.5t-6.5 -58.5t-3.5 -74q0 -7 -2 -20t-10 -19q-10 -8 -19 16q-13 47 -20.5 78.5t-10 55t-1.5 47.5z" />
  </g>

</svg>
