<?xml version="1.0" standalone="no"?>
<!DOCTYPE svg PUBLIC "-//W3C//DTD SVG 1.1//EN" "http://www.w3.org/Graphics/SVG/1.1/DTD/svg11.dtd" >
<svg xmlns="http://www.w3.org/2000/svg" xmlns:xlink="http://www.w3.org/1999/xlink" version="1.1" viewBox="-10 0 1029 1000">
  <g transform="matrix(1 0 0 -1 0 800)">
   <path fill="currentColor"
d="M41 -5q-9 0 -14.5 5.5t-5.5 12.5q0 6 7 10.5t13 4.5q13 2 27 5t24 15.5t10 39.5v244q0 27 -9.5 39t-23 16t-27.5 6q-7 2 -13 5.5t-6 8.5q0 7 6 12.5t13 5.5q34 0 52 -1.5t33 -3t41 -1.5t41.5 1.5t34 3t53.5 1.5q8 0 13 -4.5t5 -10.5q0 -7 -5 -11.5t-12 -5.5
q-19 -2 -33.5 -6.5t-22.5 -16.5t-8 -38v-244q0 -38 15.5 -47.5t47.5 -12.5q8 -1 13.5 -6t5.5 -11t-6 -11t-14 -5q-35 0 -53 2t-33.5 3.5t-41.5 1.5t-42 -1.5t-34 -3.5t-51 -2zM555 -14q-67 0 -115.5 27t-75 73.5t-26.5 106.5q0 73 21 129t48 94.5t43 58.5q23 28 62 57
t89 55.5t104 44.5q16 7 30.5 7t14.5 -6q0 -11 -7.5 -18t-16 -11.5t-11.5 -6.5q-54 -27 -91 -60t-70 -83q-14 -24 -31.5 -62.5t-29.5 -88t-12 -106.5q0 -37 8.5 -74.5t28 -63t51.5 -25.5q34 0 55.5 32t21.5 82q0 30 -10 55.5t-26 41.5t-34 16q-13 0 -22 -2t-18 -6
q-18 -9 -22.5 1.5t6.5 22.5q7 7 12 11.5t11 9.5q8 7 24 18t36.5 20.5t39.5 9.5q37 0 69.5 -21t53 -54t20.5 -71q0 -37 -15 -75t-45 -69.5t-73 -50.5t-98 -19zM894 -30q-32 0 -56 23.5t-24 56.5q0 35 24 59t56 24q36 0 59.5 -24t23.5 -59q0 -33 -23.5 -56.5t-59.5 -23.5z" />
  </g>

</svg>
