<?xml version="1.0" standalone="no"?>
<!DOCTYPE svg PUBLIC "-//W3C//DTD SVG 1.1//EN" "http://www.w3.org/Graphics/SVG/1.1/DTD/svg11.dtd" >
<svg xmlns="http://www.w3.org/2000/svg" xmlns:xlink="http://www.w3.org/1999/xlink" version="1.1" viewBox="-10 0 595 1000">
  <g transform="matrix(1 0 0 -1 0 800)">
   <path fill="currentColor"
d="M407 -16q-4 0 -21.5 1t-33 1.5t-16.5 0.5q-14 0 -26.5 -0.5t-14.5 -0.5q-31 0 -57.5 7t-42.5 23t-16 45q0 8 2 14.5t6 10.5q6 9 13 15t7 11t-5 8.5t-7 7.5q-8 15 -16.5 26t-14.5 14q-34 17 -53 45.5t-35 58.5q-8 17 -15 30t-15 24q-17 26 -17 53q0 19 15.5 32.5
t39.5 13.5q22 0 47 -14t44 -33t20 -37q0 -4 1.5 -12.5t3.5 -12.5l3 1q1 10 0.5 29t-1 38.5t-0.5 32.5q0 24 -3 40q-1 6 -2 16.5t-2 21.5t-1 16q0 41 11 82t30 72q6 11 14 12.5t12 1.5q10 0 15.5 -3t9.5 -8q20 -18 20 -61q0 -14 -2 -38t-4 -45.5t-2 -29.5q0 -13 0.5 -22.5
t1.5 -13.5q1 -3 2 -2.5t7 1.5q0 10 0.5 33t2.5 54t5 64.5t9 62.5q3 17 27 17q8 -1 15.5 -3t14.5 -7q6 -2 9.5 -4t5.5 -3q2 0 6.5 1.5t6.5 2.5q5 2 10 3t11 1t9 -1t7 -3q2 -1 4.5 -2.5t5.5 -2.5q8 -3 9.5 -19.5t-0.5 -39t-5 -44t-3 -34.5q1 -8 4 -6.5t2 10.5q0 11 -0.5 27.5
t0.5 24.5q4 16 13 24.5t25 10.5q13 2 20.5 -7t9.5 -17q2 -6 4.5 -34t3.5 -60q1 -11 2 -24.5t1.5 -28.5t1.5 -27.5t2 -21t1 -10.5q4 -24 6 -43t0 -34q0 -3 -1.5 -6.5t-3.5 -5.5q-2 -4 -4 -7.5t-2 -5.5t0.5 -3.5l1.5 -4.5q3 -4 3 -9q0 -7 -1.5 -10.5t-5.5 -9.5q-4 -4 -6 -7
t-2 -8t1.5 -15.5t1.5 -14.5q0 -5 -3 -17t-6.5 -23t-5.5 -16q-10 -27 -16 -46.5t-6 -23.5q0 -6 3.5 -10.5t10.5 -10.5q7 -7 13.5 -14t6.5 -17q0 -20 -19.5 -30.5t-48.5 -14t-59 -3.5zM385 32q14 0 27.5 4t26.5 4q5 0 13 1t8 4q-9 3 -24.5 6t-33.5 5.5t-34 4t-27 1.5
q-15 0 -37 -0.5t-39.5 -3t-17.5 -5.5t17.5 -7t41.5 -7t46.5 -5t32.5 -2zM351 162q-15 0 -22 10t-9 24.5t-1 28.5q0 22 -10.5 31.5t-21.5 16.5q-9 6 -16.5 12.5t-7.5 14.5q-1 9 7 19.5t18 10.5q17 1 32 -14.5t27.5 -38.5t19.5 -45.5t7 -37.5q1 -14 -5.5 -23t-17.5 -9z
M438 106q5 0 8.5 5.5t3.5 13.5q0 13 5.5 26t10.5 23q3 6 6 18.5t5 24t2 13.5q2 8 3 23.5t1 19.5q0 12 3.5 23.5t4.5 16.5q3 9 4 18.5t1 22.5v17.5v34t1 20.5q4 18 5 30.5t1 26v33.5q0 4 1.5 13.5t2.5 18.5t1 11q0 9 -2 11.5t-5 2.5q-2 -3 -2 -12v-15q0 -11 -2 -20t-6 -20
q-1 -6 -8 -14q-5 -8 -5 -12q-4 -28 -10 -55.5t-16 -56.5q-3 -7 -8 -9.5t-9 -2.5q-8 0 -13.5 6t-4.5 15q0 3 1.5 15.5t2.5 28t2 28t1 14.5q0 8 2.5 13.5t2.5 15.5q0 3 -1 8.5t-1 6.5q-3 15 -4 24t0 18q0 6 2 15t5 19q4 14 5.5 23t1.5 15q0 2 -1 3.5t-2 1.5q-8 0 -13 -11
t-11 -48q-4 -19 -5.5 -32t-3.5 -24q-2 -22 -4.5 -41.5t-5 -34t-6.5 -23.5q-4 -12 -11 -15t-9 -3q-6 0 -10.5 5.5t-3.5 13.5l5 58q1 15 1.5 32.5t1 33t1.5 21.5q2 11 6 26.5t7.5 30t3.5 17.5q0 2 -1.5 3t-2.5 1q-8 -5 -12 -10.5t-5 -17.5q-1 -13 -3 -34.5t-4 -54.5
q0 -6 -2 -24t-4.5 -37t-4.5 -28q-7 -25 -14.5 -40.5t-25.5 -15.5q-10 0 -21.5 9.5t-11.5 22.5l-4 60q0 9 1.5 27.5t3 35t1.5 23.5q-1 26 -2.5 45t-8.5 19q-4 0 -8 -13.5t-4 -41.5q0 -13 1 -29.5t2.5 -29t1.5 -15.5q0 -12 -1 -31.5t-2 -36t-2 -21.5q-2 -7 -3 -17t-1 -15
q0 -25 -2 -50.5t-8.5 -43t-23.5 -17.5q-11 0 -23 10t-21 23.5t-11 25.5q-6 33 -15 46.5t-31 13.5q-6 0 -11 -2t-6 -4q-1 -6 3.5 -13t6.5 -13q2 -4 4.5 -13t4.5 -14q6 -11 14 -23.5t11 -22.5q12 -38 28 -53t40 -23q14 -6 21 -16t12 -18q5 -7 13.5 -17t8.5 -21q0 -8 2 -10
t5 -2q10 0 25 1.5t19 1.5q13 2 26.5 3t30.5 1q10 0 19.5 -1.5t19.5 -4.5q7 -1 17 -2.5t19 -1.5z" />
  </g>

</svg>
