<?xml version="1.0" standalone="no"?>
<!DOCTYPE svg PUBLIC "-//W3C//DTD SVG 1.1//EN" "http://www.w3.org/Graphics/SVG/1.1/DTD/svg11.dtd" >
<svg xmlns="http://www.w3.org/2000/svg" xmlns:xlink="http://www.w3.org/1999/xlink" version="1.1" viewBox="-10 0 577 1000">
  <g transform="matrix(1 0 0 -1 0 800)">
   <path fill="currentColor"
d="M507 -155q-11 0 -17 10t-6 24q0 13 -1 25t-1 22q0 43 -15.5 58.5t-38.5 15.5h-33.5h-33h-51.5q-9 0 -15 3.5t-6 10.5q0 8 6.5 12.5t16.5 8.5q8 3 11.5 6.5t4.5 7.5q0 5 -3.5 10t-8.5 12l-98 136q-2 2 -4 1q-6 -1 -6 -7v-31v-31v-34.5v-35.5t7.5 -24.5t22.5 -12.5
q8 -3 14.5 -7.5t6.5 -12.5q0 -7 -5.5 -11t-12.5 -4q-20 0 -36.5 1.5t-31.5 2.5t-33 1q-17 0 -33.5 -1t-33.5 -2.5t-37 -1.5q-9 0 -14.5 3.5t-5.5 10.5q0 8 6 12.5t17 7.5q18 7 28 14.5t10 24.5v480q0 28 -7.5 47.5t-32.5 24.5q-10 2 -10 15t9 15q26 5 55 14.5t55.5 19.5
t41.5 15l9 3t6 1q6 0 8 -4t2 -8q0 -8 -2.5 -27t-3.5 -42l1 -374q0 -12 9 -12q3 0 6 2t6 3q16 14 33.5 31t32.5 33t26.5 29.5t16.5 21.5q4 6 6.5 10.5t2.5 7.5q0 5 -8 10.5t-24 7.5q-5 1 -8.5 4t-3.5 7q0 9 8 11.5t14 2.5h49q18 0 47 1.5t57 4t41 3.5q4 0 7 -3t3 -8
q0 -7 -6 -13t-16 -8q-19 -4 -37.5 -13.5t-32.5 -17.5q-6 -4 -27 -17.5t-46 -34t-44 -42.5q-2 -2 -3.5 -5t-1.5 -6t2 -5.5t4 -5.5q25 -31 44.5 -59t39.5 -54t43 -52q17 -19 37 -30.5t40 -11.5q5 0 11.5 1t10.5 1q10 0 10 -9q0 -4 -1 -6q-1 -14 -6.5 -38t-11 -52.5t-5.5 -57.5
q-1 -18 -8.5 -27t-17.5 -9z" />
  </g>

</svg>
