<?xml version="1.0" standalone="no"?>
<!DOCTYPE svg PUBLIC "-//W3C//DTD SVG 1.1//EN" "http://www.w3.org/Graphics/SVG/1.1/DTD/svg11.dtd" >
<svg xmlns="http://www.w3.org/2000/svg" xmlns:xlink="http://www.w3.org/1999/xlink" version="1.1" viewBox="-10 0 1014 1000">
  <g transform="matrix(1 0 0 -1 0 800)">
   <path fill="currentColor"
d="M693 483q10 0 19.5 -7.5t14.5 -11.5q29 -27 53.5 -47t48.5 -37t53.5 -33.5t70.5 -36.5q9 -6 13 -10t4 -11q0 -6 -5.5 -11.5t-15.5 -9.5q-43 -26 -72.5 -45t-52 -36t-45.5 -37t-52 -47q-5 -4 -14.5 -11.5t-19.5 -7.5q-8 0 -8 7.5t5 17.5q8 13 15 26t15 25h-666q-7 0 -12 4
t-5 9q0 7 3.5 17.5t9.5 19t17 8.5h690q18 25 31 41h-734q-7 0 -12 4.5t-5 9.5q0 6 3.5 16.5t9.5 19t17 8.5h723q-9 11 -18 22.5t-18 25.5h-700q-7 0 -12 4t-5 9q0 7 3.5 18t9.5 19t17 8h646q-6 9 -11.5 17.5t-11.5 18.5q-1 3 -3 6.5t-2 6.5q0 11 8 11z" />
  </g>

</svg>
