<?xml version="1.0" standalone="no"?>
<!DOCTYPE svg PUBLIC "-//W3C//DTD SVG 1.1//EN" "http://www.w3.org/Graphics/SVG/1.1/DTD/svg11.dtd" >
<svg xmlns="http://www.w3.org/2000/svg" xmlns:xlink="http://www.w3.org/1999/xlink" version="1.1" viewBox="-10 0 606 1000">
  <g transform="matrix(1 0 0 -1 0 800)">
   <path fill="currentColor"
d="M524 -220q-13 0 -20.5 17t-7.5 35q0 17 -1.5 35t-1.5 31q0 57 -23 79.5t-62 22.5h-25h-42h-82q-36 -1 -73 -1.5t-73 -1.5l-77 -2q-9 1 -12.5 13t-1.5 16q8 14 18 30t20.5 33t19.5 32q36 58 71 114t70 110.5t70 110t71 113.5q2 5 3.5 9t1.5 8t-3 7t-13 3q-17 0 -37 0.5
t-40 0.5h-38.5t-36.5 -1q-31 0 -64.5 -19t-54.5 -56q-6 -11 -16 -22.5t-25 -11.5q-8 0 -11 5t-3 12q0 6 2 13.5t5 13.5q11 24 16 42.5t8 39t5 47.5q2 15 6.5 21t15.5 6q8 0 22 -11t28 -17q17 -6 37 -6.5t47 -1.5h60.5h60.5q18 0 48 1t64.5 1.5t65.5 1.5t49 1q7 0 13 -10
t3 -14l-68 -108q-34 -53 -68 -107t-67 -108t-65 -107.5t-62 -104.5q-10 -17 -10 -26q0 -6 5.5 -9t16.5 -4q13 -1 36.5 -2t39.5 -1q13 0 44 0.5t68 1t68.5 1.5t44.5 1q9 0 12.5 -5t3.5 -11q0 -12 -4.5 -46t-10 -78t-8.5 -83q-1 -23 -10 -38.5t-23 -15.5z" />
  </g>

</svg>
