<?xml version="1.0" standalone="no"?>
<!DOCTYPE svg PUBLIC "-//W3C//DTD SVG 1.1//EN" "http://www.w3.org/Graphics/SVG/1.1/DTD/svg11.dtd" >
<svg xmlns="http://www.w3.org/2000/svg" xmlns:xlink="http://www.w3.org/1999/xlink" version="1.1" viewBox="-10 0 569 1000">
  <g transform="matrix(1 0 0 -1 0 800)">
   <path fill="currentColor"
d="M498 -155q-10 0 -16 10t-6 24q0 13 -1.5 25t-1.5 22q0 43 -15.5 59.5t-38.5 16.5q-14 0 -30 -1t-32.5 -2.5t-33.5 -1.5q-11 0 -18 3.5t-7 11.5t7 12.5t14 6.5q13 5 24 13t11 30v197q0 22 -9 39.5t-23.5 28t-31.5 10.5q-15 0 -30.5 -3.5t-27.5 -12.5q-14 -9 -18.5 -21.5
t-4.5 -39.5v-200q0 -20 10 -27.5t23 -12.5q8 -3 14.5 -7.5t6.5 -12.5q0 -7 -5 -11t-13 -4q-20 0 -37.5 1.5t-33 2.5t-33.5 1q-17 0 -33.5 -1t-33.5 -2.5t-37 -1.5q-10 0 -15 3.5t-5 10.5q0 8 6 12.5t17 7.5q15 5 26 11t12 28v480q0 27 -7 47t-33 25q-10 2 -10 15t9 15
q26 5 55.5 15t57 20t42.5 15q4 2 6.5 2.5t5.5 0.5q6 0 8 -3.5t2 -8.5t-1.5 -14.5t-2.5 -23t-2 -31.5v-231q0 -9 1.5 -17.5t4.5 -11.5q16 13 38.5 28.5t52 28t62.5 12.5q35 0 61.5 -19t41.5 -51.5t15 -72.5v-234q0 -7 10.5 -9.5t19.5 -2.5q5 0 12 0.5t11 0.5q10 0 10 -9
q0 -4 -1 -6q-1 -10 -5.5 -32.5t-10 -53t-7.5 -63.5q-1 -18 -8.5 -27t-17.5 -9z" />
  </g>

</svg>
