<?xml version="1.0" standalone="no"?>
<!DOCTYPE svg PUBLIC "-//W3C//DTD SVG 1.1//EN" "http://www.w3.org/Graphics/SVG/1.1/DTD/svg11.dtd" >
<svg xmlns="http://www.w3.org/2000/svg" xmlns:xlink="http://www.w3.org/1999/xlink" version="1.1" viewBox="-10 0 696 1000">
  <g transform="matrix(1 0 0 -1 0 800)">
   <path fill="currentColor"
d="M275 278q-9 0 -29.5 1t-46 1.5t-51.5 0.5q-20 0 -45 -0.5t-44 -1.5t-22 -1q-4 0 -7.5 3t-3.5 6q0 4 4 9l38 41q28 33 53 61t40 55.5t15 57.5q0 20 -13 33.5t-35 13.5q-21 0 -36 -12.5t-25 -25.5q-8 -13 -18 -13q-6 0 -8.5 5t-2.5 13q0 15 15.5 37t44.5 38t70 16
q49 0 78.5 -26.5t29.5 -62.5q0 -21 -10.5 -42.5t-29.5 -43.5q-8 -8 -25 -22.5t-35.5 -29t-31.5 -25.5t-15 -12q0 -2 3 -3t6 -1h95q18 0 32.5 12.5t24.5 29.5q2 4 5.5 8t10.5 4q8 0 10 -5t0 -10q-12 -29 -20 -59t-9 -36t-4.5 -10t-7.5 -4zM538 642q8 14 20.5 18t28.5 4
q8 0 13 -5.5t5 -11.5q0 -4 -1 -5l-410 -646q-6 -12 -18.5 -15.5t-26.5 -3.5q-8 0 -15 4.5t-7 10.5q0 2 1 4zM487 -28q-24 0 -44 8t-20 22q0 12 5.5 23.5t12.5 11.5q5 0 8 -2t6 -6q9 -10 22.5 -20t26.5 -10q23 0 38.5 20.5t15.5 56.5q0 21 -13.5 41.5t-39.5 20.5
q-21 0 -29.5 -6.5t-11.5 -6.5q-6 0 -11.5 1.5t-4.5 7.5q2 9 9 16t16 11.5l15 7.5q38 20 49.5 35t11.5 34q0 12 -11.5 21.5t-30.5 9.5q-17 0 -32.5 -8t-24.5 -19q-4 -3 -7 -6.5t-5 -3.5q-4 0 -8.5 5.5t-4.5 9.5q0 6 12.5 21.5t37.5 29.5t63 14q34 0 63 -18t29 -49
q0 -18 -14 -37t-48 -29q-2 -1 -2 -2t2 -1q33 -2 58 -22.5t25 -58.5q0 -37 -23.5 -65t-61 -43t-79.5 -15z" />
  </g>

</svg>
