<?xml version="1.0" standalone="no"?>
<!DOCTYPE svg PUBLIC "-//W3C//DTD SVG 1.1//EN" "http://www.w3.org/Graphics/SVG/1.1/DTD/svg11.dtd" >
<svg xmlns="http://www.w3.org/2000/svg" xmlns:xlink="http://www.w3.org/1999/xlink" version="1.1" viewBox="-10 0 778 1000">
  <g transform="matrix(1 0 0 -1 0 800)">
   <path fill="currentColor"
d="M240 -21q-6 0 -12.5 13t-14.5 31t-17 40.5t-17 40.5q-25 59 -52 115t-53 114q-9 22 -21 37.5t-30 21.5q-10 4 -14 8.5t-4 12.5t8.5 10t15.5 2q24 0 37.5 -1.5t26.5 -3t35 -1.5q21 0 37.5 1.5t34 3t40.5 1.5q7 0 15.5 -3t8.5 -10q0 -9 -7 -12t-16 -7q-10 -4 -16.5 -15
t-6.5 -28v-16.5t4 -15.5l67 -165h1.5h1.5l59 158q4 9 5 17t1 15q0 18 -7.5 30.5t-24.5 18.5q-9 3 -15.5 6.5t-6.5 12.5q0 7 8 10t15 3q27 -1 40.5 -2t28.5 -1t29 1t40 2q7 0 15.5 -2t8.5 -10q0 -14 -19 -21q-18 -6 -33.5 -22.5t-25.5 -39.5l-78 -196q-2 -7 -6.5 -17
t-9 -20.5t-8.5 -19.5t-8 -16q-3 -7 -10 -23l-14 -32t-13 -26h-23zM510 -3q-6 0 -11 3.5t-5 9.5q0 8 5 13t13 7q26 6 36.5 13.5t10.5 23.5v216q0 34 -10.5 48.5t-32.5 17.5q-6 1 -9 6t-3 12q0 15 11 17q52 10 92.5 28t62.5 28q16 8 20 8q13 0 13 -12q-1 -17 -4.5 -42.5
t-6 -52.5t-2.5 -52v-221q0 -14 10.5 -22t37.5 -16q8 -3 13 -7t5 -12q0 -13 -15 -13q-19 0 -40 1t-40.5 2t-37.5 1q-17 0 -35.5 -1t-38 -2.5t-39.5 -1.5zM620 493q-31 0 -54.5 23t-23.5 55q0 34 23.5 57t54.5 23q35 0 58 -23t23 -57q0 -32 -23 -55t-58 -23z" />
  </g>

</svg>
