<?xml version="1.0" standalone="no"?>
<!DOCTYPE svg PUBLIC "-//W3C//DTD SVG 1.1//EN" "http://www.w3.org/Graphics/SVG/1.1/DTD/svg11.dtd" >
<svg xmlns="http://www.w3.org/2000/svg" xmlns:xlink="http://www.w3.org/1999/xlink" version="1.1" viewBox="-10 0 1172 1000">
  <g transform="matrix(1 0 0 -1 0 800)">
   <path fill="currentColor"
d="M673 -19q-3 0 -8.5 6.5t-5.5 10.5q2 15 3.5 28.5t1.5 24.5v6q-20 -31 -55.5 -51t-76.5 -20q-56 0 -99.5 28t-68.5 76t-25 105q0 68 30 121t84 83.5t125 30.5q15 0 31.5 -2.5t30.5 -6.5q14 -3 13 -3q4 0 4 13v119q0 36 -9 52t-30 20q-12 3 -12 15q0 13 11 15
q37 8 76.5 20.5t64.5 23.5q13 6 18 7.5t6 1.5q11 0 11 -12q0 3 -1 -7.5t-2 -27.5l-2 -34l-5 -504q0 -34 5 -49t18 -15q5 0 10.5 1t28.5 2q14 1 14 -10q0 -8 -6 -17t-11 -9q-36 -4 -75.5 -13t-76.5 -23q-6 -3 -10 -4.5t-7 -1.5zM583 54q15 0 37.5 8t36.5 23l-1 221
q0 18 -13.5 35.5t-34 29.5t-40.5 12q-24 0 -44.5 -19.5t-33 -55t-12.5 -86.5q0 -41 8.5 -72t23.5 -52.5t34 -32.5t39 -11zM239 -215q-17 0 -29 12q-21 21 -44.5 59.5t-46.5 88t-42 105t-30 111.5t-11 106q0 64 16 127t42 120t55 102t56 71q7 8 20 13.5t25 5.5q9 0 23 -8
t14 -19q0 -2 -4.5 -8.5t-9.5 -14t-7 -9.5q-26 -33 -52 -88t-43.5 -128t-17.5 -159q0 -57 9 -119t24.5 -121t34 -106t38.5 -71q2 -2 8 -9t11.5 -14t5.5 -9q0 -18 -14.5 -28t-30.5 -10zM922 -215q17 0 29 12q21 21 44.5 59.5t46.5 88t42 105t30 111.5t11 106q0 64 -16 127
t-42 120t-55 102t-56 71q-7 8 -20 13.5t-25 5.5q-9 0 -23 -8t-14 -19q0 -2 4.5 -8.5t9.5 -14t7 -9.5q26 -33 52 -88t43.5 -128t17.5 -159q0 -57 -9 -119t-24.5 -121t-34 -106t-38.5 -71q-2 -2 -8 -9t-11.5 -14t-5.5 -9q0 -18 14.5 -28t30.5 -10z" />
  </g>

</svg>
