<?xml version="1.0" standalone="no"?>
<!DOCTYPE svg PUBLIC "-//W3C//DTD SVG 1.1//EN" "http://www.w3.org/Graphics/SVG/1.1/DTD/svg11.dtd" >
<svg xmlns="http://www.w3.org/2000/svg" xmlns:xlink="http://www.w3.org/1999/xlink" version="1.1" viewBox="-10 0 432 1000">
  <g transform="matrix(1 0 0 -1 0 800)">
   <path fill="currentColor"
d="M37 -128q-3 0 -8.5 3t-5.5 7q0 6 6 10t10 5q11 4 18 8.5t7 16.5v145q0 11 -4.5 19t-15.5 8q-7 0 -8 11.5t7 14.5q16 3 37 8t41.5 11.5t34.5 13.5q5 0 13 -3t8 -5q0 -6 -2 -14t-2 -16v-6.5t1 -3.5q23 17 52.5 30.5t60.5 13.5q36 0 59 -25.5t23 -63.5v-139q0 -12 7.5 -16.5
t17.5 -7.5q5 -1 9 -4.5t4 -9.5q0 -4 -4 -7.5t-7 -3.5q-20 0 -41 1.5t-39 1.5q-17 0 -38 -1.5t-40 -1.5q-4 0 -7.5 3.5t-3.5 7.5q0 6 3.5 9.5t8.5 4.5q11 3 17 7.5t6 16.5v118q0 21 -10 33.5t-30 12.5q-9 0 -20.5 -2t-20.5 -8q-5 -4 -7 -12.5t-2 -21.5v-120q0 -12 5.5 -16
t15.5 -8q13 -3 13 -15q0 -3 -3.5 -6.5t-7.5 -3.5q-19 0 -38.5 1.5t-37.5 1.5q-16 0 -39 -1.5t-43 -1.5z" />
  </g>

</svg>
