<?xml version="1.0" standalone="no"?>
<!DOCTYPE svg PUBLIC "-//W3C//DTD SVG 1.1//EN" "http://www.w3.org/Graphics/SVG/1.1/DTD/svg11.dtd" >
<svg xmlns="http://www.w3.org/2000/svg" xmlns:xlink="http://www.w3.org/1999/xlink" version="1.1" viewBox="-17 0 751 1000">
  <g transform="matrix(1 0 0 -1 0 800)">
   <path fill="currentColor"
d="M698 655q11 0 18.5 -3.5t7.5 -12.5q0 -10 -6.5 -14.5t-17.5 -7.5q-29 -8 -50.5 -25t-32.5 -42q-25 -56 -47 -110.5t-43 -108t-42 -109t-42 -112.5q-15 -41 -19 -59.5t-6 -21.5q-18 -5 -34 -9t-34 -11t-30.5 -18t-18.5 -17q-4 -3 -8 -3.5t-8 6.5q-3 6 -5.5 12.5t-4.5 14.5
q-21 67 -43 136.5t-44.5 138.5t-44.5 136.5t-43 131.5q-6 20 -18.5 34t-28.5 22t-36 14q-11 3 -17.5 7.5t-6.5 13.5q0 7 6 11t14 4q20 0 49.5 -1.5t59.5 -2.5t53 -1q19 0 46.5 1t55.5 2t48 1q9 0 15.5 -3.5t6.5 -10.5q0 -9 -7 -14t-17 -7q-37 -8 -54 -21t-11 -39
q4 -19 10 -40t11.5 -42.5t11.5 -41.5q2 -8 5 -12t12 -4h177q7 0 11 4t6 13q4 14 9 28t9.5 28t8.5 28t8 27q7 30 -6 46t-56 26q-24 5 -24 21q0 7 5.5 10.5t17.5 3.5q29 0 54 -1.5t55 -1.5t57 3t58 3zM457 363h-130q-15 0 -15 -7q0 -3 0.5 -5t1.5 -5l67 -226q3 -11 6 -11
q2 0 7 11l79 226q2 4 2 8q0 5 -5.5 7t-12.5 2z" />
  </g>

</svg>
