<?xml version="1.0" standalone="no"?>
<!DOCTYPE svg PUBLIC "-//W3C//DTD SVG 1.1//EN" "http://www.w3.org/Graphics/SVG/1.1/DTD/svg11.dtd" >
<svg xmlns="http://www.w3.org/2000/svg" xmlns:xlink="http://www.w3.org/1999/xlink" version="1.1" viewBox="-10 0 1074 1000">
  <g transform="matrix(1 0 0 -1 0 800)">
   <path fill="currentColor"
d="M41 -5q-9 0 -14.5 5.5t-5.5 12.5q0 6 7 10.5t13 4.5q13 2 27 5t24 15.5t10 39.5v244q0 27 -9.5 39t-23 16t-27.5 6q-7 2 -13 5.5t-6 8.5q0 7 6 12.5t13 5.5q34 0 52 -1.5t33 -3t41 -1.5t41.5 1.5t34 3t53.5 1.5q8 0 13 -4.5t5 -10.5q0 -7 -5 -11.5t-12 -5.5
q-19 -2 -33.5 -6.5t-22.5 -16.5t-8 -38v-244q0 -38 15.5 -47.5t47.5 -12.5q8 -1 13.5 -6t5.5 -11t-6 -11t-14 -5q-35 0 -53 2t-33.5 3.5t-41.5 1.5t-42 -1.5t-34 -3.5t-51 -2zM556 433q66 0 118 -28.5t81.5 -77.5t29.5 -114q0 -64 -29 -115.5t-80.5 -81.5t-118.5 -30
q-66 0 -118 30.5t-81 82t-29 115.5t29.5 113t81 77.5t116.5 28.5zM560 383q-27 0 -48 -22t-33 -59.5t-12 -87.5q0 -42 10 -83t29.5 -68t46.5 -27q41 0 67.5 42t26.5 136q0 42 -10 80.5t-29.5 63.5t-47.5 25zM939 -30q-32 0 -56 23.5t-24 56.5q0 35 24 59t56 24
q36 0 59.5 -24t23.5 -59q0 -33 -23.5 -56.5t-59.5 -23.5z" />
  </g>

</svg>
