<?xml version="1.0" standalone="no"?>
<!DOCTYPE svg PUBLIC "-//W3C//DTD SVG 1.1//EN" "http://www.w3.org/Graphics/SVG/1.1/DTD/svg11.dtd" >
<svg xmlns="http://www.w3.org/2000/svg" xmlns:xlink="http://www.w3.org/1999/xlink" version="1.1" viewBox="-10 0 1185 1000">
  <g transform="matrix(1 0 0 -1 0 800)">
   <path fill="currentColor"
d="M239 -215q-17 0 -29 12q-21 21 -44.5 59.5t-46.5 88t-42 105t-30 111.5t-11 106q0 64 16 127t42 120t55 102t56 71q7 8 20 13.5t25 5.5q9 0 23 -8t14 -19q0 -2 -4.5 -8.5t-9.5 -14t-7 -9.5q-26 -33 -52 -88t-43.5 -128t-17.5 -159q0 -57 9 -119t24.5 -121t34 -106
t38.5 -71q2 -2 8 -9t11.5 -14t5.5 -9q0 -18 -14.5 -28t-30.5 -10zM935 -215q17 0 29 12q21 21 44.5 59.5t46.5 88t42 105t30 111.5t11 106q0 64 -16 127t-42 120t-55 102t-56 71q-7 8 -20 13.5t-25 5.5q-9 0 -23 -8t-14 -19q0 -2 4.5 -8.5t9.5 -14t7 -9.5q26 -33 52 -88
t43.5 -128t17.5 -159q0 -57 -9 -119t-24.5 -121t-34 -106t-38.5 -71q-2 -2 -8 -9t-11.5 -14t-5.5 -9q0 -18 14.5 -28t30.5 -10zM611 -181q-16 0 -16 13v188q0 5 -7.5 7t-8.5 2q-31 0 -71.5 -1.5t-82.5 -3.5t-79 -2q-4 0 -9 0.5t-5 4.5t4 8l318 361q18 20 33.5 30.5
t26.5 10.5q9 0 12.5 -8.5t3.5 -26.5q0 -58 -1 -102.5l-2 -89t-1 -103.5q0 -7 5 -7q12 -1 19 -1h17q15 0 23.5 0.5t26.5 1.5q11 0 11 -7q0 -8 -4 -22.5t-9 -27t-9 -12.5q-12 0 -19.5 0.5t-19.5 0.5q-10 0 -15 -0.5t-11 -1.5q-4 -1 -9 -3t-5 -3v-156q0 -12 -19.5 -23.5
t-46.5 -19t-50 -7.5zM461 101h131q3 0 5.5 2t2.5 4v155q0 1 -2 1.5t-4 -1.5l-136 -155q-1 -2 0.5 -4t2.5 -2z" />
  </g>

</svg>
