<?xml version="1.0" standalone="no"?>
<!DOCTYPE svg PUBLIC "-//W3C//DTD SVG 1.1//EN" "http://www.w3.org/Graphics/SVG/1.1/DTD/svg11.dtd" >
<svg xmlns="http://www.w3.org/2000/svg" xmlns:xlink="http://www.w3.org/1999/xlink" version="1.1" viewBox="-10 0 809 1000">
  <g transform="matrix(1 0 0 -1 0 800)">
   <path fill="currentColor"
d="M591 600q41 0 82 -16.5t68 -49t27 -80.5q0 -60 -41.5 -115.5t-116.5 -90.5l-20 -10l8 -9q10 -11 26 -28t28.5 -40.5t12.5 -52.5q0 -35 -23 -63t-64 -44.5t-94 -16.5q-46 0 -81 14.5t-54.5 39t-19.5 55.5q0 45 28.5 71t77.5 44l22 8l-20 21q-28 28 -57 58t-55 58l-18 20
l-14 -13q-20 -19 -34 -39.5t-22 -38.5t-8 -29q0 -15 8.5 -23t20.5 -11q7 -4 13.5 -7.5t6.5 -11.5q0 -10 -9 -12t-20 -2q-13 0 -29 2t-33 4t-34 2q-21 0 -44.5 -6t-46.5 -11t-39 -5q-7 0 -11.5 4t-4.5 9q0 9 9 17t24 10q32 5 54 20.5t38 31.5q12 11 27.5 25.5t32 30
t33.5 30.5t32.5 28.5t26.5 24.5l-18 22q-32 39 -60.5 65.5t-58.5 26.5q-18 0 -38.5 -3.5t-40.5 -11.5q-5 -2 -11 -4t-12 -2q-8 0 -12.5 2.5t-4.5 11.5q0 14 21.5 35t58.5 37.5t84 16.5q39 0 67.5 -10t51.5 -30t49 -51l18 -21l6 6q29 34 62.5 58t69.5 36.5t75 12.5zM518 505
q-25 0 -53 -6.5t-53 -31.5l-7 -7l15 -19q33 -40 66.5 -79t69.5 -80l12 -14l18 11q19 9 30 25t15.5 35t4.5 40q0 58 -32 92t-86 34zM477 192l-11 -10q-14 -11 -21 -35.5t-7 -49.5q-1 -30 11 -53.5t40 -23.5q18 0 33.5 15t15.5 38q0 27 -6.5 46t-16.5 31t-18 22z" />
  </g>

</svg>
