<?xml version="1.0" standalone="no"?>
<!DOCTYPE svg PUBLIC "-//W3C//DTD SVG 1.1//EN" "http://www.w3.org/Graphics/SVG/1.1/DTD/svg11.dtd" >
<svg xmlns="http://www.w3.org/2000/svg" xmlns:xlink="http://www.w3.org/1999/xlink" version="1.1" viewBox="-10 0 894 1000">
  <g transform="matrix(1 0 0 -1 0 800)">
   <path fill="currentColor"
d="M646 7q0 47 -2 106.5t-4.5 122.5t-5 121t-4.5 100q0 7 -3.5 6.5t-6.5 -7.5l-191 -454q-5 -14 -14 -12t-12 10q-50 116 -99.5 227t-96.5 222q-3 9 -9.5 6.5t-7.5 -14.5q-3 -49 -7 -108t-6 -118t-2 -111q0 -28 18 -45.5t57 -26.5q10 -2 19 -6.5t9 -13.5q0 -7 -8 -11t-17 -4
q-27 0 -42 1.5t-27 2t-33 0.5q-22 0 -45 -1t-40 -2t-22 -1q-12 0 -18 3.5t-6 10.5q0 9 8.5 11.5t19.5 6.5q23 8 40.5 28t21.5 51q6 46 12.5 113.5t13.5 144.5t12 152q1 6 1 15v19q0 18 -5.5 28.5t-18.5 17.5q-12 8 -26 13.5t-30 9.5q-12 3 -19 8t-7 13q0 9 8 12t19 3
q15 0 37 -1t48.5 -1.5t54 -1.5t50.5 -1q8 0 15 -5.5t9 -12.5q7 -19 13 -36.5t13 -36.5l147 -351q2 -4 5.5 -4.5t5.5 4.5l143 332q7 35 11.5 57t8.5 35t16 13h43q42 2 87.5 6.5t71.5 4.5q10 0 17.5 -3.5t7.5 -11.5q0 -9 -6.5 -13t-16.5 -7q-6 -2 -14 -5.5t-14 -6.5
q-26 -12 -38.5 -27.5t-10.5 -49.5q2 -72 5 -125.5t5.5 -95.5t5 -80t4.5 -79q3 -90 -17.5 -162.5t-56.5 -118.5q-28 -35 -65 -54t-81 -19q-139 0 -139 58q0 20 17.5 39t34.5 19q11 0 22 -6t20 -18q18 -23 28 -36.5t21 -13.5q30 0 49 39t19 126z" />
  </g>

</svg>
