<?xml version="1.0" standalone="no"?>
<!DOCTYPE svg PUBLIC "-//W3C//DTD SVG 1.1//EN" "http://www.w3.org/Graphics/SVG/1.1/DTD/svg11.dtd" >
<svg xmlns="http://www.w3.org/2000/svg" xmlns:xlink="http://www.w3.org/1999/xlink" version="1.1" viewBox="-10 0 1084 1000">
  <g transform="matrix(1 0 0 -1 0 800)">
   <path fill="currentColor"
d="M402 -283q-26 0 -50 18t-24 45q0 19 10 37.5t31 18.5q16 0 32.5 -5.5t31.5 -4.5q15 2 21 7.5t14 20.5q7 12 13.5 23.5t15 29t21.5 45.5q12 27 12 48q0 15 -4.5 27.5t-9.5 24.5l-123 279q-9 23 -20 38t-30 21q-9 4 -14 8.5t-5 13.5q0 7 9 9t16 2q24 0 40.5 -1t29.5 -2
t26 -1q22 0 37 1t32 2t40 1q7 0 15 -3t8 -10q0 -9 -7.5 -12.5t-15.5 -7.5q-11 -4 -17 -12t-6 -26q0 -8 2.5 -19t8.5 -27l62 -151q1 -3 3 -3q1 0 3 3l51 153q3 8 5.5 19.5t2.5 20.5q0 17 -10 27.5t-21 14.5q-8 3 -15.5 7t-7.5 13q0 7 8 10t15 3q27 -1 42 -2.5t31 -1.5
q10 0 18.5 0.5t20.5 1.5t29 2q7 0 15.5 -2t8.5 -9q0 -9 -4.5 -13.5t-13.5 -8.5q-19 -6 -34 -22.5t-25 -39.5l-149 -358q-8 -20 -18 -43.5t-20.5 -48.5t-21.5 -51t-22 -51q-12 -29 -37 -44t-56 -15zM239 -215q-17 0 -29 12q-21 21 -44.5 59.5t-46.5 88t-42 105t-30 111.5
t-11 106q0 64 16 127t42 120t55 102t56 71q7 8 20 13.5t25 5.5q9 0 23 -8t14 -19q0 -2 -4.5 -8.5t-9.5 -14t-7 -9.5q-26 -33 -52 -88t-43.5 -128t-17.5 -159q0 -57 9 -119t24.5 -121t34 -106t38.5 -71q2 -2 8 -9t11.5 -14t5.5 -9q0 -18 -14.5 -28t-30.5 -10zM834 -213
q17 0 29 12q21 21 44.5 59.5t46.5 88t42 105t30 111.5t11 106q0 64 -16 127t-42 120t-55 102t-56 71q-7 8 -20 13.5t-25 5.5q-9 0 -23 -8t-14 -19q0 -2 4.5 -8.5t9.5 -14t7 -9.5q26 -33 52 -88t43.5 -128t17.5 -159q0 -57 -9 -119t-24.5 -121t-34 -106t-38.5 -71
q-2 -2 -8 -9t-11.5 -14t-5.5 -9q0 -18 14.5 -28t30.5 -10z" />
  </g>

</svg>
