<?xml version="1.0" standalone="no"?>
<!DOCTYPE svg PUBLIC "-//W3C//DTD SVG 1.1//EN" "http://www.w3.org/Graphics/SVG/1.1/DTD/svg11.dtd" >
<svg xmlns="http://www.w3.org/2000/svg" xmlns:xlink="http://www.w3.org/1999/xlink" version="1.1" viewBox="-10 0 621 1000">
  <g transform="matrix(1 0 0 -1 0 800)">
   <path fill="currentColor"
d="M146 173q-7 0 -16 8t-17 22q-8 16 -15.5 38t-7.5 51q0 35 29.5 60.5t87.5 52.5q30 14 47 31.5t17 44.5q0 30 -22.5 45.5t-52.5 16.5q-21 0 -32 -4t-17 -7q-7 -2 -15 -4t-18 -2q-14 0 -28 14.5t-23 34.5t-9 37q0 18 21 33.5t48 15.5q40 0 77 -20t70 -54q24 -25 40.5 -54
t26 -60t9.5 -60q0 -40 -15 -63.5t-33 -31.5q-16 -8 -30 -16.5t-29 -17t-31 -17.5q-22 -12 -29.5 -26.5t-11.5 -43.5q0 -11 -6 -17.5t-15 -6.5zM145 -14q-30 0 -51 21t-21 51t21 51.5t51 21.5t51 -21.5t21 -51.5t-21 -51t-51 -21zM464 178q-12 0 -19 11.5t-12 38.5
q-8 56 -15.5 103.5t-12.5 89t-8 76.5t-4 65q0 33 21.5 60t53.5 27q33 0 52.5 -25.5t19.5 -59.5q0 -30 -4.5 -66t-11 -77.5t-15 -89.5t-16.5 -103q-3 -21 -10 -35.5t-19 -14.5zM462 -14q-30 0 -51 21t-21 51t21 51.5t51 21.5t51.5 -21.5t21.5 -51.5t-21.5 -51t-51.5 -21z" />
  </g>

</svg>
