<?xml version="1.0" standalone="no"?>
<!DOCTYPE svg PUBLIC "-//W3C//DTD SVG 1.1//EN" "http://www.w3.org/Graphics/SVG/1.1/DTD/svg11.dtd" >
<svg xmlns="http://www.w3.org/2000/svg" xmlns:xlink="http://www.w3.org/1999/xlink" version="1.1" viewBox="-36 0 511 1000">
  <g transform="matrix(1 0 0 -1 0 800)">
   <path fill="currentColor"
d="M-8 -42q-10 2 -14.5 9t-1.5 13l134 199l36 7l133 201l28 4l90 131q9 12 21 14t27 -2q14 -2 17.5 -10t-0.5 -14l-133 -195l-25 -1l-134 -199l-23 10l-107 -157q-8 -11 -21 -11.5t-27 1.5zM105 -289q-8 0 -14.5 8t-6.5 17v914q0 14 10.5 24.5t26 17.5t29 10t17.5 3
q9 0 17 -6.5t8 -16.5v-927q0 -15 -11 -23.5t-26.5 -13t-29 -6t-20.5 -1.5zM267 -289q-9 0 -15.5 8t-6.5 17v914q0 14 11 24.5t26.5 17.5t29 10t16.5 3q10 0 18 -6.5t8 -16.5v-927q0 -15 -11 -23.5t-26.5 -13t-29 -6t-20.5 -1.5z" />
  </g>

</svg>
