<?xml version="1.0" standalone="no"?>
<!DOCTYPE svg PUBLIC "-//W3C//DTD SVG 1.1//EN" "http://www.w3.org/Graphics/SVG/1.1/DTD/svg11.dtd" >
<svg xmlns="http://www.w3.org/2000/svg" xmlns:xlink="http://www.w3.org/1999/xlink" version="1.1" viewBox="-10 0 563 1000">
  <g transform="matrix(1 0 0 -1 0 800)">
   <path fill="currentColor"
d="M37 -3q-7 0 -13.5 3.5t-6.5 10.5q0 16 22 21q38 8 53 20.5t15 44.5v454q0 32 -13.5 45.5t-52.5 22.5q-22 5 -22 21q0 7 6.5 11t13.5 4q23 0 49 -1t50.5 -2.5t44.5 -1.5q21 0 46.5 1t52 2t48.5 1q9 0 13.5 -3.5t4.5 -10.5q0 -10 -5.5 -14t-15.5 -7q-40 -11 -53 -24.5
t-13 -44.5v-443q0 -13 6.5 -20.5t19.5 -7.5q50 0 87 10.5t60.5 28t35.5 40t12 46.5q0 14 -8 24.5l-16 21t-8 22.5q0 21 13.5 34.5t28.5 13.5q26 0 38.5 -19.5t12.5 -47.5q0 -56 -28 -102t-77.5 -80t-114 -52.5t-138.5 -18.5q-21 0 -46.5 -0.5t-52 -1.5t-49.5 -1zM55 291
q-7 -1 -13.5 2.5t-7.5 10.5q-1 8 6 19t20 14l353 87q7 2 13 -3t7 -10q1 -7 -10 -19t-26 -16zM39 384q-7 -2 -14 2t-8 10q-1 9 6.5 20t20.5 14l353 87q6 2 12 -3.5t7 -9.5q1 -7 -9.5 -19.5t-26.5 -16.5z" />
  </g>

</svg>
