<?xml version="1.0" standalone="no"?>
<!DOCTYPE svg PUBLIC "-//W3C//DTD SVG 1.1//EN" "http://www.w3.org/Graphics/SVG/1.1/DTD/svg11.dtd" >
<svg xmlns="http://www.w3.org/2000/svg" xmlns:xlink="http://www.w3.org/1999/xlink" version="1.1" viewBox="-10 0 299 1000">
  <g transform="matrix(1 0 0 -1 0 800)">
   <path fill="currentColor"
d="M29 358q-13 0 -17 7t-4 15q3 12 13 24t26 12h210q11 0 16.5 -9t5.5 -19q0 -13 -8.5 -21.5t-21.5 -8.5h-220zM29 233q-13 0 -17 7t-4 15q3 12 13 24t26 12h210q11 0 16.5 -9t5.5 -19q0 -13 -8.5 -21.5t-21.5 -8.5h-220zM37 -3q-9 0 -14.5 3.5t-5.5 10.5q0 8 6.5 12.5
t16.5 7.5q15 5 26.5 11t11.5 27v481q0 27 -7 47t-32 25q-10 2 -10 15t9 15q25 5 55 14.5t57.5 20t42.5 15.5q8 3 12 3q6 0 8 -3.5t2 -8.5q0 -7 -2 -26t-3 -43v-553q0 -22 11.5 -27.5t26.5 -10.5q10 -4 16.5 -8t6.5 -12q0 -7 -5.5 -10.5t-14.5 -3.5q-20 0 -38.5 1t-36 1.5
t-35.5 0.5q-17 0 -33 -1t-33.5 -2.5t-37.5 -1.5z" />
  </g>

</svg>
