<?xml version="1.0" standalone="no"?>
<!DOCTYPE svg PUBLIC "-//W3C//DTD SVG 1.1//EN" "http://www.w3.org/Graphics/SVG/1.1/DTD/svg11.dtd" >
<svg xmlns="http://www.w3.org/2000/svg" xmlns:xlink="http://www.w3.org/1999/xlink" version="1.1" viewBox="-10 0 817 1000">
  <g transform="matrix(1 0 0 -1 0 800)">
   <path fill="currentColor"
d="M41 -3q-7 0 -13.5 3.5t-6.5 10.5q0 8 7 12.5t16 7.5q15 5 26.5 11.5t11.5 26.5v229q0 22 -6 37.5t-25 18.5q-4 1 -7.5 5t-3.5 13q0 14 10 17q25 6 52.5 14.5t53 18t44.5 20.5q3 1 6 3t6 2q9 0 9 -11q0 -8 -2.5 -27t-2.5 -33q0 -10 2 -12h2q31 30 67 49t82 19
q31 0 57 -21.5t39 -55.5h4q30 36 67.5 56.5t84.5 20.5q31 0 56 -17.5t40 -49.5t15 -76v-220q0 -20 11.5 -26.5t26.5 -11.5q8 -3 14 -7.5t6 -12.5q0 -7 -5 -10.5t-12 -3.5q-20 0 -37.5 1.5t-34 2.5t-34.5 1q-17 0 -32 -1t-30 -2.5t-35 -1.5q-7 0 -12 3.5t-5 10.5q0 8 5.5 13
t14.5 7q13 4 20 10.5t7 21.5v205q0 25 -7 43t-19.5 28.5t-28.5 10.5q-13 0 -28.5 -5.5t-30.5 -18.5q-14 -12 -14 -42v-215q0 -20 8 -26.5t23 -11.5q8 -2 14 -7t6 -13q0 -7 -5.5 -10.5t-11.5 -3.5q-20 0 -36 1.5t-30.5 2.5t-32.5 1q-17 0 -31.5 -1t-30 -2.5t-35.5 -1.5
q-6 0 -11 3.5t-5 10.5q0 8 5.5 12.5t13.5 7.5q14 5 21 11t7 21v205q0 25 -7 42.5t-19 28t-29 10.5q-12 0 -27.5 -5t-32.5 -17q-13 -9 -13 -39v-219q0 -18 6.5 -25.5t21.5 -12.5q8 -3 13.5 -7.5t5.5 -12.5q0 -6 -5 -10t-11 -4q-20 0 -35.5 1.5t-30 2.5t-32.5 1
q-17 0 -33.5 -1t-34 -2.5t-37.5 -1.5z" />
  </g>

</svg>
