<?xml version="1.0" standalone="no"?>
<!DOCTYPE svg PUBLIC "-//W3C//DTD SVG 1.1//EN" "http://www.w3.org/Graphics/SVG/1.1/DTD/svg11.dtd" >
<svg xmlns="http://www.w3.org/2000/svg" xmlns:xlink="http://www.w3.org/1999/xlink" version="1.1" viewBox="-10 0 1033 1000">
  <g transform="matrix(1 0 0 -1 0 800)">
   <path fill="currentColor"
d="M41 -5q-9 0 -14.5 5.5t-5.5 12.5q0 6 7 10.5t13 4.5q13 2 27 5t24 15.5t10 39.5v244q0 27 -9.5 39t-23 16t-27.5 6q-7 2 -13 5.5t-6 8.5q0 7 6 12.5t13 5.5q34 0 52 -1.5t33 -3t41 -1.5t41.5 1.5t34 3t53.5 1.5q8 0 13 -4.5t5 -10.5q0 -7 -5 -11.5t-12 -5.5
q-19 -2 -33.5 -6.5t-22.5 -16.5t-8 -38v-244q0 -38 15.5 -47.5t47.5 -12.5q8 -1 13.5 -6t5.5 -11t-6 -11t-14 -5q-35 0 -53 2t-33.5 3.5t-41.5 1.5t-42 -1.5t-34 -3.5t-51 -2zM535 -13q-53 0 -98 18.5t-71 52t-26 76.5q0 34 22.5 58t55 42.5t61.5 33.5q8 5 6 8.5t-10 7.5
q-29 22 -56 45.5t-44 52t-17 65.5q0 43 30 75t77 50t97 18q45 0 85 -17t65 -46.5t25 -68.5q0 -37 -21 -57t-42 -34l-18 -12t-19 -13q-15 -9 -15 -13t9 -11q34 -23 62.5 -45.5t45.5 -48.5t17 -61q0 -53 -30 -93t-80 -61.5t-111 -21.5zM552 33q34 0 56.5 26.5t22.5 61.5
q0 24 -16 46t-39 42t-44 34q-5 4 -8 6t-7 2q-3 0 -11 -6q-21 -17 -29.5 -39.5t-8.5 -56.5q0 -31 11 -57.5t30.5 -42.5t42.5 -16zM570 356q7 -4 13 -5t10 5q14 17 22 45.5t8 59.5q0 35 -20.5 63t-52.5 28q-28 0 -48.5 -22.5t-20.5 -57.5q0 -27 13 -46.5t33.5 -35.5t42.5 -34z
M897 -30q-32 0 -56 23.5t-24 56.5q0 35 24 59t56 24q36 0 59.5 -24t23.5 -59q0 -33 -23.5 -56.5t-59.5 -23.5z" />
  </g>

</svg>
