<?xml version="1.0" standalone="no"?>
<!DOCTYPE svg PUBLIC "-//W3C//DTD SVG 1.1//EN" "http://www.w3.org/Graphics/SVG/1.1/DTD/svg11.dtd" >
<svg xmlns="http://www.w3.org/2000/svg" xmlns:xlink="http://www.w3.org/1999/xlink" version="1.1" viewBox="-10 0 386 1000">
  <g transform="matrix(1 0 0 -1 0 800)">
   <path fill="currentColor"
d="M24 456q-5 0 -11.5 1.5t-6.5 6.5q0 6 3 9t10 6q7 2 15 8.5t19 19.5l64 83q3 4 3.5 7.5t-3.5 9.5l-49 63q-8 12 -15 20.5t-19 12.5q-7 2 -10 6t-3 9q0 6 6.5 7.5t11.5 1.5q25 0 39.5 -2t35.5 -2q23 0 36 2.5t39 2.5q6 0 11.5 -2.5t5.5 -8.5q0 -4 -3 -8t-11 -6
q-25 -7 -6 -33l24 -32q4 -5 6 -5.5t6 5.5l24 32q8 10 6.5 19t-15.5 12q-8 2 -12 5.5t-4 9.5q0 5 5.5 8t10.5 3q24 0 30.5 -0.5t15.5 -0.5q5 0 16 -0.5t33 0.5q4 0 11.5 -2t7.5 -7q0 -7 -2.5 -10t-10.5 -5q-6 -1 -14 -6.5t-20 -23.5l-50 -62q-7 -9 -6 -13.5t6 -9.5l51 -65
q10 -12 22.5 -24t25.5 -17q8 -1 10.5 -4.5t2.5 -9.5t-7 -7.5t-11 -1.5q-25 0 -46 2t-41 2q-24 0 -42.5 -2t-45.5 -2q-7 0 -12 2.5t-5 6.5q0 6 4.5 8.5t10.5 3.5q14 4 18 14.5t1.5 22.5t-9.5 20l-21 30q-3 4 -7.5 3t-7.5 -6l-36 -45q-8 -11 -6.5 -22.5t16.5 -17.5
q5 -2 10 -4.5t5 -8.5q0 -4 -5.5 -6.5t-10.5 -2.5q-15 0 -20.5 0.5t-9.5 0.5h-15q-4 0 -16 0.5t-33 -1.5z" />
  </g>

</svg>
