<?xml version="1.0" standalone="no"?>
<!DOCTYPE svg PUBLIC "-//W3C//DTD SVG 1.1//EN" "http://www.w3.org/Graphics/SVG/1.1/DTD/svg11.dtd" >
<svg xmlns="http://www.w3.org/2000/svg" xmlns:xlink="http://www.w3.org/1999/xlink" version="1.1" viewBox="-10 0 397 1000">
  <g transform="matrix(1 0 0 -1 0 800)">
   <path fill="currentColor"
d="M200 -192q-15 0 -30.5 10t-25.5 24.5t-10 29.5q0 22 9.5 28.5t24.5 6.5q24 2 49.5 10.5t47.5 20.5t36 24.5t14 21.5q0 16 -19 16q-14 0 -37.5 -1.5t-46.5 -3.5t-38 -2q-27 0 -52.5 8.5t-46 27t-32.5 49.5t-12 78q0 55 16.5 118t45.5 125.5t67 116.5q4 4 4.5 6.5t0.5 4.5
q0 4 -3.5 5t-7.5 2q-39 6 -66 21t-40.5 37t-12.5 46q0 26 16 48.5t45.5 37t68.5 14.5q5 0 7.5 -1.5t2.5 -9.5q0 -3 -9 -11q-14 -17 -22.5 -39.5t-8.5 -45.5q0 -28 11.5 -47t36.5 -19q7 0 11.5 1.5t9.5 7.5q40 51 70 81.5t52 30.5q12 0 23.5 -10.5t19.5 -26t8 -31.5
q0 -33 -23.5 -53t-65.5 -36q-40 -29 -77.5 -66.5t-67 -82t-46.5 -92t-17 -95.5q0 -40 22.5 -60.5t64.5 -20.5q14 0 32 1.5t36.5 3t30.5 1.5q16 0 31.5 -11.5t28.5 -28t21 -35t8 -32.5q0 -36 -13 -71.5t-36 -65.5t-50.5 -48t-55.5 -18z" />
  </g>

</svg>
