<?xml version="1.0" standalone="no"?>
<!DOCTYPE svg PUBLIC "-//W3C//DTD SVG 1.1//EN" "http://www.w3.org/Graphics/SVG/1.1/DTD/svg11.dtd" >
<svg xmlns="http://www.w3.org/2000/svg" xmlns:xlink="http://www.w3.org/1999/xlink" version="1.1" viewBox="-10 0 712 1000">
  <g transform="matrix(1 0 0 -1 0 800)">
   <path fill="currentColor"
d="M540 0l-27.9404 157h-282l-74.0596 -157h-126l338.38 700h174l129.62 -700h-132zM433.92 590l-162.49 -345h225zM368.29 863c50 0 68.4697 -18 62.4297 -61c-5.90039 -42 -29.5703 -61 -79.5703 -61c-49 0 -68.3301 19 -62.4297 61c6.04004 43 30.5703 61 79.5703 61z
M579.29 863c49 0 68.4697 -18 62.4297 -61c-5.90039 -42 -30.5703 -61 -80.5703 -61c-49 0 -67.3301 19 -61.4297 61c6.04004 43 29.5703 61 79.5703 61z" />
  </g>

</svg>
