<?xml version="1.0" standalone="no"?>
<!DOCTYPE svg PUBLIC "-//W3C//DTD SVG 1.1//EN" "http://www.w3.org/Graphics/SVG/1.1/DTD/svg11.dtd" >
<svg xmlns="http://www.w3.org/2000/svg" xmlns:xlink="http://www.w3.org/1999/xlink" version="1.1" viewBox="-10 0 796 1000">
  <g transform="matrix(1 0 0 -1 0 800)">
   <path fill="currentColor"
d="M316.65 -95l32.5312 75c-208.31 12 -284.43 125 -250 370c36.4004 259 155 370 393 370c194 0 277.32 -76 283.58 -252h-125c-10.8203 108 -59.7803 151 -172.78 151c-147 0 -221.1 -79 -247.8 -269s25.2002 -269 172.2 -269c106 0 167.04 43 215.22 151h125
c-67.4697 -167 -166.29 -244 -329.271 -251l-13.5 -32s96.8896 -15 86.4893 -89c-9.83984 -70 -88.46 -110 -217.46 -110l7.16992 51c76 0 119.53 18 125.29 59c4.91992 35 -48.6699 45 -84.6699 45z" />
  </g>

</svg>
