<?xml version="1.0" standalone="no"?>
<!DOCTYPE svg PUBLIC "-//W3C//DTD SVG 1.1//EN" "http://www.w3.org/Graphics/SVG/1.1/DTD/svg11.dtd" >
<svg xmlns="http://www.w3.org/2000/svg" xmlns:xlink="http://www.w3.org/1999/xlink" version="1.1" viewBox="-10 0 798 1000">
  <g transform="matrix(1 0 0 -1 0 800)">
   <path fill="currentColor"
d="M438.15 307l12.3506 88h325l-6.32031 -45c-36.4004 -259 -150 -370 -377 -370c-242 0 -329.4 111 -293 370s155 370 397 370c187 0 270.88 -72 281.27 -240h-120c-9.23047 98 -61.4707 139 -175.471 139c-151 0 -225.1 -79 -251.8 -269s25.2002 -269 176.2 -269
c145 0 214.28 66 236.771 226h-205zM679.251 870c-11.8096 -84 -65.8594 -120 -178.859 -120s-156.94 36 -145.131 120h85c-7.16992 -51 23.1396 -63 68.1396 -63c55 0 79.5303 18 85.8506 63h85z" />
  </g>

</svg>
