<?xml version="1.0" standalone="no"?>
<!DOCTYPE svg PUBLIC "-//W3C//DTD SVG 1.1//EN" "http://www.w3.org/Graphics/SVG/1.1/DTD/svg11.dtd" >
<svg xmlns="http://www.w3.org/2000/svg" xmlns:xlink="http://www.w3.org/1999/xlink" version="1.1" viewBox="-10 0 746 1000">
  <g transform="matrix(1 0 0 -1 0 800)">
   <path fill="currentColor"
d="M531 0l-107.32 261h-171l-36.6797 -261h-126l98.3799 700h310c181 0 242.07 -92 223.801 -222c-14.9004 -106 -69.0205 -178 -175.811 -205l116.63 -273h-132zM266.19 350h178.02c94 0 141.32 45 152.98 128c11.5195 82 -22.1602 127 -117.16 127h-178zM342.84 -44
c37 0 49.6201 -24 41.8896 -79c-10.2598 -73 -44.6201 -104 -110.62 -104l6.17969 44c28 0 41.9697 14 46.75 48c-35 0 -48.3096 12 -44.3691 40c5.05957 36 23.1699 51 60.1699 51z" />
  </g>

</svg>
