<?xml version="1.0" standalone="no"?>
<!DOCTYPE svg PUBLIC "-//W3C//DTD SVG 1.1//EN" "http://www.w3.org/Graphics/SVG/1.1/DTD/svg11.dtd" >
<svg xmlns="http://www.w3.org/2000/svg" xmlns:xlink="http://www.w3.org/1999/xlink" version="1.1" viewBox="-10 0 1101 1000">
  <g transform="matrix(1 0 0 -1 0 800)">
   <path fill="currentColor"
d="M534.38 700h150l43.9199 -584l226.08 584h126l-282.38 -700h-162l-47.9199 584l-202.08 -584h-162l-85.6201 700h126l60.9199 -584zM523.87 860c49 0 68.3301 -19 62.29 -62c-5.90039 -42 -30.4307 -60 -79.4307 -60c-50 0 -68.4697 18 -62.5693 60
c6.04004 43 29.71 62 79.71 62zM733.87 860c49 0 68.3301 -19 62.29 -62c-5.90039 -42 -30.4307 -60 -79.4307 -60c-50 0 -68.4697 18 -62.5693 60c6.04004 43 29.71 62 79.71 62z" />
  </g>

</svg>
