<?xml version="1.0" standalone="no"?>
<!DOCTYPE svg PUBLIC "-//W3C//DTD SVG 1.1//EN" "http://www.w3.org/Graphics/SVG/1.1/DTD/svg11.dtd" >
<svg xmlns="http://www.w3.org/2000/svg" xmlns:xlink="http://www.w3.org/1999/xlink" version="1.1" viewBox="-10 0 432 1000">
  <g transform="matrix(1 0 0 -1 0 800)">
   <path fill="currentColor"
d="M212.22 400l8.42871 60l11.6201 40l1.5498 11l-11.8398 -6l-34.5098 -25l-57.2197 -30l-20.1104 49l56.3604 31l39.9697 14l9.7002 5l-9.16016 6l-35.8896 15l-46.7803 30l33.8896 49l47.7803 -30l28.4902 -25l10.1602 -6l1.69043 12l-0.379883 40l8.42969 60h55
l-8.42969 -60l-11.6201 -40l-1.69043 -12l11.8398 6l35.6504 26l56.0801 29l20.1104 -49l-56.2197 -30l-39.1104 -15l-10.8398 -6l8.2998 -5l35.8896 -15l47.7803 -30l-34.8896 -49l-47.7803 30l-27.4902 25l-10.1602 6l-1.5498 -11l0.379883 -40l-8.42969 -60h-55z" />
  </g>

</svg>
