<?xml version="1.0" standalone="no"?>
<!DOCTYPE svg PUBLIC "-//W3C//DTD SVG 1.1//EN" "http://www.w3.org/Graphics/SVG/1.1/DTD/svg11.dtd" >
<svg xmlns="http://www.w3.org/2000/svg" xmlns:xlink="http://www.w3.org/1999/xlink" version="1.1" viewBox="-10 0 596 1000">
  <g transform="matrix(1 0 0 -1 0 800)">
   <path fill="currentColor"
d="M218.64 -95l36.2002 87c-149.45 11 -203.351 90 -179.74 258c25.5801 182 112.54 260 291.54 260c148 0 209.99 -57 208.44 -189h-114c-3.01953 71 -35.7998 101 -106.8 101c-99 0 -149.31 -52 -166.17 -172s18.8301 -172 117.83 -172c71 0 111.22 30 135.2 101h114
c-33.4297 -124 -104.58 -182 -236.42 -188l-16.9004 -42s95.8896 -15 85.4893 -89c-9.83984 -70 -87.46 -110 -216.46 -110l7.16992 51c76 0 119.53 18 125.29 59c4.91992 35 -48.6699 45 -84.6699 45z" />
  </g>

</svg>
