<?xml version="1.0" standalone="no"?>
<!DOCTYPE svg PUBLIC "-//W3C//DTD SVG 1.1//EN" "http://www.w3.org/Graphics/SVG/1.1/DTD/svg11.dtd" >
<svg xmlns="http://www.w3.org/2000/svg" xmlns:xlink="http://www.w3.org/1999/xlink" version="1.1" viewBox="-10 0 590 1000">
  <g transform="matrix(1 0 0 -1 0 800)">
   <path fill="currentColor"
d="M558.67 204h-377.999c-4.49023 -96 29.6094 -138 113.609 -138c67 0 103.37 24 129.08 86h108c-38.8799 -113 -113.77 -162 -247.77 -162c-172 0 -234.04 78 -208.46 260s109.54 260 281.54 260c171 0 233.76 -80 207.479 -267zM344.991 434
c-88 0 -135.74 -48 -156.62 -161h265c16.1602 115 -16.3799 161 -108.38 161zM543.381 700c-14.7598 -105 -69.0811 -150 -182.081 -150s-155.68 45 -140.92 150h79c-8.42969 -60 10.7803 -87 70.7803 -87c59 0 86.6504 26 95.2207 87h78z" />
  </g>

</svg>
