<?xml version="1.0" standalone="no"?>
<!DOCTYPE svg PUBLIC "-//W3C//DTD SVG 1.1//EN" "http://www.w3.org/Graphics/SVG/1.1/DTD/svg11.dtd" >
<svg xmlns="http://www.w3.org/2000/svg" xmlns:xlink="http://www.w3.org/1999/xlink" version="1.1" viewBox="-10 0 684 1000">
  <g transform="matrix(1 0 0 -1 0 800)">
   <path fill="currentColor"
d="M152.22 521c19.54 139 104.97 199 281.97 199c178 0 245.57 -60 226.03 -199c-10.54 -75 -44.4297 -124 -107.37 -152c75.9199 -29 103.91 -86 91.1201 -177c-20.7998 -148 -114.79 -212 -313.79 -212c-198 0 -274.01 64 -253.21 212c12.79 91 56.7998 148 139.88 177
c-55.0596 28 -75.1699 77 -64.6299 152zM341.56 68c120 0 175.481 39 187.991 128c12.79 91 -31.1504 127 -152.15 127c-120 0 -175.2 -37 -187.851 -127s32.0098 -128 152.01 -128zM421.83 632c-103 0 -149.78 -34 -161.021 -114c-11.3799 -81 26.1201 -113 129.12 -113
s150.5 32 161.88 113c11.2402 80 -25.9795 114 -129.979 114z" />
  </g>

</svg>
