<?xml version="1.0" standalone="no"?>
<!DOCTYPE svg PUBLIC "-//W3C//DTD SVG 1.1//EN" "http://www.w3.org/Graphics/SVG/1.1/DTD/svg11.dtd" >
<svg xmlns="http://www.w3.org/2000/svg" xmlns:xlink="http://www.w3.org/1999/xlink" version="1.1" viewBox="-10 0 668 1000">
  <g transform="matrix(1 0 0 -1 0 800)">
   <path fill="currentColor"
d="M637.6 360c-37.3799 -266 -135.39 -380 -327.39 -380c-142 0 -206.57 60 -214.891 200h108c8.19043 -84 41.4102 -118 118.41 -118c115 0 170.82 77 198.101 264c0 0 -24.9004 -106 -208.9 -106c-155 0 -219.46 75 -195.15 248c24.8799 177 114.42 252 298.42 252
c205 0 258.54 -110 223.4 -360zM356.3 308c105 0 156.89 49 172.77 162s-22.2305 162 -127.23 162c-106 0 -156.75 -48 -172.77 -162s22.2305 -162 127.23 -162z" />
  </g>

</svg>
