<?xml version="1.0" standalone="no"?>
<!DOCTYPE svg PUBLIC "-//W3C//DTD SVG 1.1//EN" "http://www.w3.org/Graphics/SVG/1.1/DTD/svg11.dtd" >
<svg xmlns="http://www.w3.org/2000/svg" xmlns:xlink="http://www.w3.org/1999/xlink" version="1.1" viewBox="-10 0 611 1000">
  <g transform="matrix(1 0 0 -1 0 800)">
   <path fill="currentColor"
d="M366.68 510c178 0 244.04 -78 218.46 -260s-113.54 -260 -291.54 -260c-179 0 -244.04 78 -218.46 260s112.54 260 291.54 260zM188.14 250c-17.0098 -121 17.8213 -172 117.821 -172s148.17 51 165.18 172s-16.8203 172 -116.82 172c-101 0 -149.03 -50 -166.181 -172z
M554.381 700c-14.7598 -105 -69.0801 -150 -182.08 -150s-155.68 45 -140.92 150h79c-8.57031 -61 12.7793 -87 70.7793 -87s86.6504 26 95.2207 87h78z" />
  </g>

</svg>
