<?xml version="1.0" standalone="no"?>
<!DOCTYPE svg PUBLIC "-//W3C//DTD SVG 1.1//EN" "http://www.w3.org/Graphics/SVG/1.1/DTD/svg11.dtd" >
<svg xmlns="http://www.w3.org/2000/svg" xmlns:xlink="http://www.w3.org/1999/xlink" version="1.1" viewBox="-10 0 612 1000">
  <g transform="matrix(1 0 0 -1 0 800)">
   <path fill="currentColor"
d="M366.68 510c22 0 42 0 60.7197 -2l30.71 62h55l-35.2598 -73c94.7803 -30 127.82 -108 108.431 -246c-25.5801 -182 -113.54 -260 -291.54 -260c-22 0 -41.8604 1 -60.5801 3l-30.9902 -64h-55l35.4004 74c-94.7803 30 -127.82 108 -108.431 246
c25.5801 182 112.54 260 291.54 260zM353.449 423c-101 0 -150.028 -50 -167.179 -172c-11.3799 -81 0.589844 -131 39.2197 -155l157.68 325c-8.86035 1 -18.7207 2 -29.7207 2zM432.062 406l-157.681 -325c9.86035 -1 19.7207 -2 30.7207 -2c100 0 148.17 51 165.18 172
c11.3799 81 0.410156 131 -38.2197 155z" />
  </g>

</svg>
