<?xml version="1.0" standalone="no"?>
<!DOCTYPE svg PUBLIC "-//W3C//DTD SVG 1.1//EN" "http://www.w3.org/Graphics/SVG/1.1/DTD/svg11.dtd" >
<svg xmlns="http://www.w3.org/2000/svg" xmlns:xlink="http://www.w3.org/1999/xlink" version="1.1" viewBox="-10 0 621 1000">
  <g transform="matrix(1 0 0 -1 0 800)">
   <path fill="currentColor"
d="M75.1396 250h-0.999023c25.5801 182 100.54 260 251.54 260c79 0 131.05 -21 159.729 -66l24.8701 56h90l-98.3799 -700h-114l34.71 247c-40.4805 -39 -96.0107 -57 -169.011 -57c-151 0 -204.04 78 -178.46 260zM342.311 422c-92 0 -139.31 -52 -156.17 -172
s15.8301 -172 107.83 -172s138.31 52 155.17 172s-14.8301 172 -106.83 172z" />
  </g>

</svg>
