<?xml version="1.0" standalone="no"?>
<!DOCTYPE svg PUBLIC "-//W3C//DTD SVG 1.1//EN" "http://www.w3.org/Graphics/SVG/1.1/DTD/svg11.dtd" >
<svg xmlns="http://www.w3.org/2000/svg" xmlns:xlink="http://www.w3.org/1999/xlink" version="1.1" viewBox="-10 0 429 1000">
  <g transform="matrix(1 0 0 -1 0 800)">
   <path fill="currentColor"
d="M123.42 131c54 0 72.0791 -35 60.5596 -117c-16.7197 -119 -64.8896 -170 -155.89 -170l8.00977 57c41 0 61.6504 26 70.5 89c-47 0 -65.0498 21 -58.4395 68c7.30957 52 29.2598 73 75.2598 73zM321.419 131c53 0 71.0791 -35 59.5596 -117
c-16.7197 -119 -63.8896 -170 -154.89 -170l8.00977 57c41 0 61.6504 26 70.5 89c-47 0 -65.0498 21 -58.4395 68c7.30957 52 29.2598 73 75.2598 73z" />
  </g>

</svg>
