<?xml version="1.0" standalone="no"?>
<!DOCTYPE svg PUBLIC "-//W3C//DTD SVG 1.1//EN" "http://www.w3.org/Graphics/SVG/1.1/DTD/svg11.dtd" >
<svg xmlns="http://www.w3.org/2000/svg" xmlns:xlink="http://www.w3.org/1999/xlink" version="1.1" viewBox="-10 0 522 1000">
  <g transform="matrix(1 0 0 -1 0 800)">
   <path fill="currentColor"
d="M204.42 373c-15.8799 -113 309.62 -24 281.51 -224c-15.5996 -111 -88.3496 -159 -241.35 -159c-144 0 -199.25 48 -183.51 160h108c-8.99023 -64 17.3594 -90 89.3594 -90s104.09 22 111.68 76c17.4297 124 -301.92 29 -274.37 225c14.6201 104 81.9404 149 225.94 149
c139 0 192.68 -45 177.92 -150h-102c8.00977 57 -16.7598 80 -85.7598 80s-100.67 -19 -107.42 -67zM243.8 -44c37 0 49.6201 -24 41.8896 -79c-11.2598 -73 -45.6201 -104 -111.62 -104l6.17969 44c29 0 42.9697 14 47.75 48c-36 0 -49.3096 12 -45.3691 40
c5.05957 36 23.1699 51 61.1699 51z" />
  </g>

</svg>
