<?xml version="1.0" standalone="no"?>
<!DOCTYPE svg PUBLIC "-//W3C//DTD SVG 1.1//EN" "http://www.w3.org/Graphics/SVG/1.1/DTD/svg11.dtd" >
<svg xmlns="http://www.w3.org/2000/svg" xmlns:xlink="http://www.w3.org/1999/xlink" version="1.1" viewBox="-10 0 661 1000">
  <g transform="matrix(1 0 0 -1 0 800)">
   <path fill="currentColor"
d="M97.79 340c37.3799 266 135.39 380 326.39 380c143 0 207.57 -60 215.891 -200h-108c-8.19043 84 -42.4102 118 -119.41 118c-115 0 -170.82 -77 -197.101 -264c0 0 24.9004 106 208.9 106c154 0 219.46 -75 195.15 -248c-24.8799 -177 -114.42 -252 -299.42 -252
c-205 0 -257.54 110 -222.4 360zM378.09 392c-105 0 -156.89 -49 -172.77 -162s22.2305 -162 127.23 -162c106 0 156.75 48 172.77 162s-21.2305 162 -127.23 162z" />
  </g>

</svg>
