<?xml version="1.0" standalone="no"?>
<!DOCTYPE svg PUBLIC "-//W3C//DTD SVG 1.1//EN" "http://www.w3.org/Graphics/SVG/1.1/DTD/svg11.dtd" >
<svg xmlns="http://www.w3.org/2000/svg" xmlns:xlink="http://www.w3.org/1999/xlink" version="1.1" viewBox="-10 0 463 1000">
  <g transform="matrix(1 0 0 -1 0 800)">
   <path fill="currentColor"
d="M208.84 6c-61.6104 17 -88.5801 67 -78.46 139l39.21 279h-80l10.6797 76h80l17.1504 122h114l-17.1504 -122h148l-10.6797 -76h-148l-37.5195 -267c-5.75977 -41 14.2998 -69 65.2998 -69h73l-12.3701 -88h-103l-22.1699 -51s96.8896 -15 86.4893 -89
c-9.83984 -70 -87.46 -110 -217.46 -110l7.16992 51c77 0 120.53 18 126.29 59c4.91992 35 -48.6699 45 -84.6699 45z" />
  </g>

</svg>
