<?xml version="1.0" standalone="no"?>
<!DOCTYPE svg PUBLIC "-//W3C//DTD SVG 1.1//EN" "http://www.w3.org/Graphics/SVG/1.1/DTD/svg11.dtd" >
<svg xmlns="http://www.w3.org/2000/svg" xmlns:xlink="http://www.w3.org/1999/xlink" version="1.1" viewBox="-10 0 595 1000">
  <g transform="matrix(1 0 0 -1 0 800)">
   <path fill="currentColor"
d="M405.74 48c-37.6201 -40 -90.1621 -58 -161.162 -58c-134 0 -181.88 72 -158.27 240l37.9502 270h114l-37.9502 -270c-15.1797 -108 9.64062 -152 85.6406 -152c81 0 122.32 45 137.36 152l37.9502 270h113l-70.2695 -500h-90zM206.309 600
c9.83984 70 59.1494 122 110.149 122c82 0 89.0498 -85 131.05 -85c18 0 34.6699 19 39.4502 53h55c-9.83984 -70 -58.1494 -122 -110.149 -122c-82 0 -89.0498 85 -130.05 85c-19 0 -35.6699 -19 -40.4502 -53h-55z" />
  </g>

</svg>
