<?xml version="1.0" standalone="no"?>
<!DOCTYPE svg PUBLIC "-//W3C//DTD SVG 1.1//EN" "http://www.w3.org/Graphics/SVG/1.1/DTD/svg11.dtd" >
<svg xmlns="http://www.w3.org/2000/svg" xmlns:xlink="http://www.w3.org/1999/xlink" version="1.1" viewBox="-10 0 918 1000">
  <g transform="matrix(1 0 0 -1 0 800)">
   <path fill="currentColor"
d="M670 0l-1.13965 -1h-138l-44.1104 419l-161.75 -418h-138l-86.7305 500h115l58.3799 -410l158.62 410h138l38.2402 -411l173.76 411h115zM421.36 707c50 0 68.0498 -21 61.1602 -70s-30.8398 -70 -80.8398 -70c-49 0 -68.0498 21 -61.1602 70s31.8398 70 80.8398 70z
M620.36 707c49 0 68.0498 -21 61.1602 -70s-31.8398 -70 -80.8398 -70c-50 0 -68.0498 21 -61.1602 70s30.8398 70 80.8398 70z" />
  </g>

</svg>
