<?xml version="1.0" standalone="no"?>
<!DOCTYPE svg PUBLIC "-//W3C//DTD SVG 1.1//EN" "http://www.w3.org/Graphics/SVG/1.1/DTD/svg11.dtd" >
<svg xmlns="http://www.w3.org/2000/svg" xmlns:xlink="http://www.w3.org/1999/xlink" version="1.1" viewBox="-10 0 714 1000">
  <g transform="matrix(1 0 0 -1 0 800)">
   <path fill="currentColor"
d="M41 66h70v566h-70v66h361q61 0 105 -12.5t72.5 -34.5t42 -52t13.5 -65q0 -36 -12.5 -64t-33.5 -47.5t-48.5 -32.5t-56.5 -19v-5q30 -4 62 -16t58 -33t42.5 -51.5t16.5 -71.5q0 -93 -60 -143.5t-181 -50.5h-381v66zM273 71h111q54 0 83.5 27t29.5 76v47q0 49 -29.5 76
t-83.5 27h-111v-253zM273 393h93q103 0 103 95v44q0 95 -103 95h-93v-234z" />
  </g>

</svg>
