<?xml version="1.0" standalone="no"?>
<!DOCTYPE svg PUBLIC "-//W3C//DTD SVG 1.1//EN" "http://www.w3.org/Graphics/SVG/1.1/DTD/svg11.dtd" >
<svg xmlns="http://www.w3.org/2000/svg" xmlns:xlink="http://www.w3.org/1999/xlink" version="1.1" viewBox="-10 0 675 1000">
  <g transform="matrix(1 0 0 -1 0 800)">
   <path fill="currentColor"
d="M363 -12q-75 0 -132.5 27.5t-97.5 76t-60.5 114.5t-20.5 142q0 88 24.5 156t65.5 113.5t95.5 69t113.5 23.5q32 0 56.5 -6.5t42.5 -16.5t30 -22.5t18 -24.5h6v58h116v-222h-116v45q0 51 -33.5 82t-97.5 31q-67 0 -105 -42t-38 -132v-203q0 -47 12 -80t33.5 -55t51 -32
t64.5 -10q64 0 108.5 33.5t67.5 90.5l57 -33q-13 -38 -37 -71.5t-57.5 -58.5t-75.5 -39t-91 -14zM181 779l135 177h92l135 -177l-42 -35l-139 102l-139 -102z" />
  </g>

</svg>
