<?xml version="1.0" standalone="no"?>
<!DOCTYPE svg PUBLIC "-//W3C//DTD SVG 1.1//EN" "http://www.w3.org/Graphics/SVG/1.1/DTD/svg11.dtd" >
<svg xmlns="http://www.w3.org/2000/svg" xmlns:xlink="http://www.w3.org/1999/xlink" version="1.1" viewBox="-10 0 392 1000">
  <g transform="matrix(1 0 0 -1 0 800)">
   <path fill="currentColor"
d="M257 -212q-24 0 -44.5 4.5t-36 15t-24.5 27t-9 39.5q0 42 32 71t104 51l-1 4h-237v66h70v566h-70v66h302v-66h-70v-566h70v-66q-34 -15 -54.5 -30t-31 -28.5t-13.5 -25t-3 -20.5q0 -43 43 -43q14 0 23.5 4.5t19.5 15.5l36 -38q-16 -22 -41.5 -34.5t-64.5 -12.5z" />
  </g>

</svg>
