<?xml version="1.0" standalone="no"?>
<!DOCTYPE svg PUBLIC "-//W3C//DTD SVG 1.1//EN" "http://www.w3.org/Graphics/SVG/1.1/DTD/svg11.dtd" >
<svg xmlns="http://www.w3.org/2000/svg" xmlns:xlink="http://www.w3.org/1999/xlink" version="1.1" viewBox="-10 0 610 1000">
  <g transform="matrix(1 0 0 -1 0 800)">
   <path fill="currentColor"
d="M411 336q-37 0 -65 9.5t-61 26.5q-27 14 -53 23.5t-57 9.5q-23 0 -41 -6.5t-40 -21.5l-34 61q18 26 49 43.5t80 17.5q37 0 65 -9.5t61 -26.5q27 -14 53 -23.5t57 -9.5q23 0 41 6.5t40 21.5l34 -61q-18 -26 -49 -43.5t-80 -17.5zM411 125q-37 0 -65 9.5t-61 26.5
q-27 14 -53 23.5t-57 9.5q-23 0 -41 -6.5t-40 -21.5l-34 61q18 26 49 43.5t80 17.5q37 0 65 -9.5t61 -26.5q27 -14 53 -23.5t57 -9.5q23 0 41 6.5t40 21.5l34 -61q-18 -26 -49 -43.5t-80 -17.5z" />
  </g>

</svg>
