<?xml version="1.0" standalone="no"?>
<!DOCTYPE svg PUBLIC "-//W3C//DTD SVG 1.1//EN" "http://www.w3.org/Graphics/SVG/1.1/DTD/svg11.dtd" >
<svg xmlns="http://www.w3.org/2000/svg" xmlns:xlink="http://www.w3.org/1999/xlink" version="1.1" viewBox="-10 0 643 1000">
  <g transform="matrix(1 0 0 -1 0 800)">
   <path fill="currentColor"
d="M250 -12q-48 0 -86.5 19.5t-65.5 55.5t-41.5 86.5t-14.5 112.5t14.5 112.5t41.5 86.5t65.5 55.5t86.5 19.5q59 0 98 -28t53 -65h6l69 81h70v-458h60v-57q-17 -10 -44 -15.5t-56 -5.5q-58 0 -81.5 25t-23.5 63v8h-6q-7 -19 -19.5 -36t-30.5 -30.5t-41.5 -21.5t-53.5 -8z
M301 80q40 0 66.5 25t26.5 67v181q0 42 -26.5 67t-66.5 25q-42 0 -70 -29t-28 -85v-137q0 -56 28 -85t70 -29zM304 614q25 0 39.5 15t14.5 42v60q0 27 -14.5 42t-39.5 15t-39.5 -15t-14.5 -42v-60q0 -27 14.5 -42t39.5 -15zM304 560q-31 0 -57.5 10.5t-46 29t-30.5 44.5
t-11 57t11 56.5t30.5 44.5t46 29.5t57.5 10.5t57.5 -10.5t46 -29.5t30.5 -44.5t11 -56.5t-11 -57t-30.5 -44.5t-46 -29t-57.5 -10.5z" />
  </g>

</svg>
