<?xml version="1.0" standalone="no"?>
<!DOCTYPE svg PUBLIC "-//W3C//DTD SVG 1.1//EN" "http://www.w3.org/Graphics/SVG/1.1/DTD/svg11.dtd" >
<svg xmlns="http://www.w3.org/2000/svg" xmlns:xlink="http://www.w3.org/1999/xlink" version="1.1" viewBox="-194 0 388 1000">
  <g transform="matrix(1 0 0 -1 0 800)">
   <path fill="currentColor"
d="M0 734q-42 0 -72.5 14.5t-52 38t-35.5 53.5t-24 61l49 26l20 -34q18 -31 43.5 -42t71.5 -11t71.5 11t43.5 42l20 34l49 -26q-10 -31 -24 -61t-35.5 -53.5t-52 -38t-72.5 -14.5zM-21 903l44 109h-150v98h139q28 0 46.5 -6t29.5 -16t15.5 -23t4.5 -27q0 -29 -15.5 -61
t-40.5 -62l-28 -35z" />
  </g>

</svg>
