<?xml version="1.0" standalone="no"?>
<!DOCTYPE svg PUBLIC "-//W3C//DTD SVG 1.1//EN" "http://www.w3.org/Graphics/SVG/1.1/DTD/svg11.dtd" >
<svg xmlns="http://www.w3.org/2000/svg" xmlns:xlink="http://www.w3.org/1999/xlink" version="1.1" viewBox="-10 0 808 1000">
  <g transform="matrix(1 0 0 -1 0 800)">
   <path fill="currentColor"
d="M407 135q-50 0 -87.5 16.5t-63.5 45.5t-39 68t-13 84q0 51 16.5 91t45.5 67t68 41.5t85 14.5q36 0 64 -8.5t47 -23.5t28.5 -34.5t9.5 -41.5q0 -28 -16 -44t-44 -16q-26 0 -41 15.5t-15 40.5q0 19 8 31.5t22 19.5v2q-8 3 -19 5.5t-30 2.5q-48 0 -74.5 -29.5t-26.5 -83.5
v-81q0 -53 28 -79t73 -26q41 0 64 20.5t36 48.5l44 -26q-8 -20 -21.5 -41.5t-34.5 -39t-49 -29t-65 -11.5zM399 46q61 0 112.5 20.5t88.5 57t57.5 85.5t20.5 106v68q0 57 -20.5 106t-57.5 85.5t-88.5 57t-112.5 20.5t-112.5 -20.5t-88.5 -57t-57.5 -85.5t-20.5 -106v-68
q0 -57 20.5 -106t57.5 -85.5t88.5 -57t112.5 -20.5zM399 -12q-76 0 -139.5 25t-109.5 72t-72 113.5t-26 150.5t26 150.5t72 113.5t109.5 72t139.5 25t139.5 -25t109.5 -72t72 -113.5t26 -150.5t-26 -150.5t-72 -113.5t-109.5 -72t-139.5 -25z" />
  </g>

</svg>
