<?xml version="1.0" standalone="no"?>
<!DOCTYPE svg PUBLIC "-//W3C//DTD SVG 1.1//EN" "http://www.w3.org/Graphics/SVG/1.1/DTD/svg11.dtd" >
<svg xmlns="http://www.w3.org/2000/svg" xmlns:xlink="http://www.w3.org/1999/xlink" version="1.1" viewBox="-195 0 390 1000">
  <g transform="matrix(1 0 0 -1 0 800)">
   <path fill="currentColor"
d="M-109 588q-36 0 -56 20.5t-20 52.5v4q0 32 20 52.5t56 20.5t56 -20.5t20 -52.5v-4q0 -32 -20 -52.5t-56 -20.5zM109 588q-36 0 -56 20.5t-20 52.5v4q0 32 20 52.5t56 20.5t56 -20.5t20 -52.5v-4q0 -32 -20 -52.5t-56 -20.5zM-161 872h322v-86h-322v86z" />
  </g>

</svg>
