<?xml version="1.0" standalone="no"?>
<!DOCTYPE svg PUBLIC "-//W3C//DTD SVG 1.1//EN" "http://www.w3.org/Graphics/SVG/1.1/DTD/svg11.dtd" >
<svg xmlns="http://www.w3.org/2000/svg" xmlns:xlink="http://www.w3.org/1999/xlink" version="1.1" viewBox="-35 0 494 1000">
  <g transform="matrix(1 0 0 -1 0 800)">
   <path fill="currentColor"
d="M104 -212q-34 0 -58.5 8.5t-40 22t-23 30.5t-7.5 35q0 29 17.5 48.5t47.5 19.5q29 0 45.5 -17t16.5 -41q0 -20 -8.5 -31.5t-18.5 -15.5v-4q5 -1 10 -1.5t12 -0.5q35 0 52 27t17 87v604q0 92 40 142.5t114 50.5q34 0 58.5 -8.5t40 -22t23 -30.5t7.5 -35q0 -29 -17.5 -48.5
t-47.5 -19.5q-29 0 -45.5 17t-16.5 41q0 20 8.5 31.5t18.5 15.5v4q-5 1 -10 1.5t-12 0.5q-35 0 -52 -27t-17 -87v-604q0 -92 -40 -142.5t-114 -50.5z" />
  </g>

</svg>
