<?xml version="1.0" standalone="no"?>
<!DOCTYPE svg PUBLIC "-//W3C//DTD SVG 1.1//EN" "http://www.w3.org/Graphics/SVG/1.1/DTD/svg11.dtd" >
<svg xmlns="http://www.w3.org/2000/svg" xmlns:xlink="http://www.w3.org/1999/xlink" version="1.1" viewBox="-10 0 981 1000">
  <g transform="matrix(1 0 0 -1 0 800)">
   <path fill="currentColor"
d="M37 66h60v357l-60 13v57l209 43v-99h5q14 40 48.5 69.5t96.5 29.5q68 0 106.5 -25t52.5 -74h4q16 39 54 69t101 30q94 0 132.5 -48t38.5 -145v-277h60v-66h-264v66h52v271q0 53 -17.5 75.5t-59.5 22.5q-17 0 -33 -4.5t-28.5 -14t-20 -24.5t-7.5 -35v-291h52v-66h-256v66
h52v271q0 53 -17.5 75.5t-58.5 22.5q-35 0 -62.5 -18.5t-27.5 -59.5v-291h52v-66h-264v66z" />
  </g>

</svg>
