<?xml version="1.0" standalone="no"?>
<!DOCTYPE svg PUBLIC "-//W3C//DTD SVG 1.1//EN" "http://www.w3.org/Graphics/SVG/1.1/DTD/svg11.dtd" >
<svg xmlns="http://www.w3.org/2000/svg" xmlns:xlink="http://www.w3.org/1999/xlink" version="1.1" viewBox="-10 0 592 1000">
  <g transform="matrix(1 0 0 -1 0 800)">
   <path fill="currentColor"
d="M291 60q92 0 92 110v184q0 110 -92 110t-92 -110v-184q0 -110 92 -110zM291 -12q-57 0 -103.5 18.5t-80 53.5t-51.5 86t-18 116t18 116t51.5 86t80 53.5t103.5 18.5t103.5 -18.5t80 -53.5t51.5 -86t18 -116t-18 -116t-51.5 -86t-80 -53.5t-103.5 -18.5zM292 582
q-42 0 -72 16t-51 42t-35.5 58.5t-25.5 66.5l49 25l20 -32q20 -35 44.5 -50.5t70.5 -15.5t70.5 15.5t44.5 50.5l20 32l49 -25q-11 -34 -25.5 -66.5t-35.5 -58.5t-51 -42t-72 -16z" />
  </g>

</svg>
