<?xml version="1.0" standalone="no"?>
<!DOCTYPE svg PUBLIC "-//W3C//DTD SVG 1.1//EN" "http://www.w3.org/Graphics/SVG/1.1/DTD/svg11.dtd" >
<svg xmlns="http://www.w3.org/2000/svg" xmlns:xlink="http://www.w3.org/1999/xlink" version="1.1" viewBox="-10 0 610 1000">
  <g transform="matrix(1 0 0 -1 0 800)">
   <path fill="currentColor"
d="M268 -12q-54 0 -96.5 10.5t-71 28.5t-43.5 42.5t-15 52.5q0 39 22.5 62.5t58.5 23.5q39 0 60 -23.5t21 -57.5q0 -17 -10.5 -33t-24.5 -28v-6q30 -9 67 -9q68 0 101 26.5t33 94.5v33q0 62 -34 93t-110 31h-61v74h61q72 0 103.5 29.5t31.5 80.5v24q0 54 -31 82.5t-82 28.5
q-19 0 -35.5 -2t-27.5 -7v-6q16 -8 26.5 -25t10.5 -37q0 -34 -20.5 -57.5t-59.5 -23.5q-37 0 -59.5 23.5t-22.5 62.5q0 27 14 51.5t42 43t68.5 29t93.5 10.5q255 0 255 -169q0 -34 -16.5 -63t-43.5 -51t-61 -36t-68 -18v-8q37 -4 73 -16t63.5 -33t44.5 -51.5t17 -71.5
q0 -93 -68.5 -149t-205.5 -56z" />
  </g>

</svg>
