<?xml version="1.0" standalone="no"?>
<!DOCTYPE svg PUBLIC "-//W3C//DTD SVG 1.1//EN" "http://www.w3.org/Graphics/SVG/1.1/DTD/svg11.dtd" >
<svg xmlns="http://www.w3.org/2000/svg" xmlns:xlink="http://www.w3.org/1999/xlink" version="1.1" viewBox="-10 0 593 1000">
  <g transform="matrix(1 0 0 -1 0 800)">
   <path fill="currentColor"
d="M291 -12q-57 0 -103.5 18.5t-80 53.5t-51.5 86t-18 116t18 116t51.5 86t80 53.5t103.5 18.5q46 0 85 -12h77v106h120v-64q0 -90 -89 -90h-22q38 -35 60 -89t22 -125q0 -65 -18 -116t-51.5 -86t-80 -53.5t-103.5 -18.5zM291 60q92 0 92 110v184q0 110 -92 110t-92 -110
v-184q0 -110 92 -110zM357 596q-21 0 -41.5 10.5t-38.5 19.5q-20 10 -37.5 21t-33.5 11q-15 0 -26.5 -5.5t-31.5 -31.5l-38 38q13 21 25 39t26 31t30 20t36 7q21 0 41.5 -10.5t38.5 -19.5q20 -10 37.5 -21t33.5 -11q15 0 26.5 5.5t31.5 31.5l38 -38q-13 -21 -25 -39t-26 -31
t-30 -20t-36 -7z" />
  </g>

</svg>
