<?xml version="1.0" standalone="no"?>
<!DOCTYPE svg PUBLIC "-//W3C//DTD SVG 1.1//EN" "http://www.w3.org/Graphics/SVG/1.1/DTD/svg11.dtd" >
<svg xmlns="http://www.w3.org/2000/svg" xmlns:xlink="http://www.w3.org/1999/xlink" version="1.1" viewBox="-11 0 584 1000">
  <g transform="matrix(1 0 0 -1 0 800)">
   <path fill="currentColor"
d="M125 -212q-60 0 -93 29.5t-33 70.5q0 36 20.5 56t56.5 20q35 0 54 -22t19 -51q0 -13 -4 -24.5t-9 -18.5l2 -6q4 -1 11 -1q26 0 48 28t42 80l10 26l-190 483h-48v66h263v-66h-56l105 -303h6l106 303h-56v66h184v-66h-47l-210 -512q-11 -27 -26 -55.5t-36 -51t-50 -37
t-69 -14.5zM402 596q-23 0 -46 9.5t-44 20.5t-42 21t-39 10q-16 0 -27.5 -6t-32.5 -33l-38 38q25 43 51.5 71.5t67.5 28.5q23 0 46 -9.5t44 -20.5t42 -21.5t39 -10.5q16 0 27.5 6t32.5 34l38 -38q-26 -44 -52 -72t-67 -28z" />
  </g>

</svg>
