<?xml version="1.0" standalone="no"?>
<!DOCTYPE svg PUBLIC "-//W3C//DTD SVG 1.1//EN" "http://www.w3.org/Graphics/SVG/1.1/DTD/svg11.dtd" >
<svg xmlns="http://www.w3.org/2000/svg" xmlns:xlink="http://www.w3.org/1999/xlink" version="1.1" viewBox="-10 0 657 1000">
  <g transform="matrix(1 0 0 -1 0 800)">
   <path fill="currentColor"
d="M257 -12q-96 0 -135.5 48.5t-39.5 145.5v241l-60 13v57l212 43v-349q0 -53 18.5 -75.5t62.5 -22.5q17 0 34 4.5t30 14t21 24t8 35.5v256l-60 13v57l212 43v-435l60 -13v-57l-209 -43v99h-5q-14 -40 -50 -69.5t-99 -29.5zM321 614q25 0 39.5 15t14.5 42v60q0 27 -14.5 42
t-39.5 15t-39.5 -15t-14.5 -42v-60q0 -27 14.5 -42t39.5 -15zM321 560q-31 0 -57.5 10.5t-46 29t-30.5 44.5t-11 57t11 56.5t30.5 44.5t46 29.5t57.5 10.5t57.5 -10.5t46 -29.5t30.5 -44.5t11 -56.5t-11 -57t-30.5 -44.5t-46 -29t-57.5 -10.5z" />
  </g>

</svg>
