<?xml version="1.0" standalone="no"?>
<!DOCTYPE svg PUBLIC "-//W3C//DTD SVG 1.1//EN" "http://www.w3.org/Graphics/SVG/1.1/DTD/svg11.dtd" >
<svg xmlns="http://www.w3.org/2000/svg" xmlns:xlink="http://www.w3.org/1999/xlink" version="1.1" viewBox="-10 0 689 1000">
  <g transform="matrix(1 0 0 -1 0 800)">
   <path fill="currentColor"
d="M618.5 586q23.5 -69 23.5 -152q0 -124 -43.5 -225.5t-121 -159.5t-174.5 -58q-80 0 -135 43l-70 -114l-35 19l73 123q-40 43 -60 108t-20 144q0 125 44.5 225.5t122 157.5t173.5 57q67 0 121 -32l63 105l34 -18l-66 -112q47 -42 70.5 -111zM384 704q-69 0 -126 -49
t-89.5 -136t-32.5 -196q0 -124 44 -200l303 540q-38 41 -99 41zM314 39q69 0 124.5 49t87.5 136t32 196q0 140 -51 215l-305 -545q46 -51 112 -51zM491 983l49 -47q-21 -31 -71.5 -66.5t-93.5 -55.5l-32 19z" />
  </g>

</svg>
