<?xml version="1.0" standalone="no"?>
<!DOCTYPE svg PUBLIC "-//W3C//DTD SVG 1.1//EN" "http://www.w3.org/Graphics/SVG/1.1/DTD/svg11.dtd" >
<svg xmlns="http://www.w3.org/2000/svg" xmlns:xlink="http://www.w3.org/1999/xlink" version="1.1" viewBox="-10 0 678 1000">
  <g transform="matrix(1 0 0 -1 0 800)">
   <path fill="currentColor"
d="M271 743l-6 -40l-90 -10l117 -290l23 -67l39 67l177 290l-77 10l5 40h199l-5 -40l-54 -9l-259 -407l-31 -240l109 -12l-4 -35h-298l3 35l114 12l31 240l-179 406l-57 10l3 40h240zM291 853.5q-50 42.5 -67 76.5l51 47l134 -170l-27 -19q-41 23 -91 65.5z" />
  </g>

</svg>
