<?xml version="1.0" standalone="no"?>
<!DOCTYPE svg PUBLIC "-//W3C//DTD SVG 1.1//EN" "http://www.w3.org/Graphics/SVG/1.1/DTD/svg11.dtd" >
<svg xmlns="http://www.w3.org/2000/svg" xmlns:xlink="http://www.w3.org/1999/xlink" version="1.1" viewBox="-10 0 405 1000">
  <g transform="matrix(1 0 0 -1 0 800)">
   <path fill="currentColor"
d="M55 697q-13 14 -13 35q1 26 17.5 44t39.5 18q21 0 33.5 -13t12.5 -34q-1 -27 -18 -45.5t-41 -18.5q-18 0 -31 14zM261.5 697q-12.5 14 -12.5 35q1 26 17.5 44t39.5 18q21 0 33.5 -13t12.5 -34q-1 -27 -18 -45.5t-42 -18.5q-18 0 -30.5 14z" />
  </g>

</svg>
