<?xml version="1.0" standalone="no"?>
<!DOCTYPE svg PUBLIC "-//W3C//DTD SVG 1.1//EN" "http://www.w3.org/Graphics/SVG/1.1/DTD/svg11.dtd" >
<svg xmlns="http://www.w3.org/2000/svg" xmlns:xlink="http://www.w3.org/1999/xlink" version="1.1" viewBox="-10 0 781 1000">
  <g transform="matrix(1 0 0 -1 0 800)">
   <path fill="currentColor"
d="M73 86.5q19 20.5 44 20.5q23 0 34.5 -12t11.5 -32q0 -32 -20 -52t-46 -20q-19 0 -31 12t-12 33q0 30 19 50.5zM330 86.5q19 20.5 44 20.5q22 0 33.5 -12t11.5 -32q0 -32 -19.5 -52t-46.5 -20q-19 0 -30.5 12t-11.5 33q0 30 19 50.5zM586.5 86q18.5 21 43.5 21
q23 0 34.5 -12t11.5 -32q0 -32 -19.5 -52t-46.5 -20q-19 0 -30.5 12t-11.5 33q0 29 18.5 50z" />
  </g>

</svg>
