<?xml version="1.0" standalone="no"?>
<!DOCTYPE svg PUBLIC "-//W3C//DTD SVG 1.1//EN" "http://www.w3.org/Graphics/SVG/1.1/DTD/svg11.dtd" >
<svg xmlns="http://www.w3.org/2000/svg" xmlns:xlink="http://www.w3.org/1999/xlink" version="1.1" viewBox="-10 0 573 1000">
  <g transform="matrix(1 0 0 -1 0 800)">
   <path fill="currentColor"
d="M372.5 -158q-42.5 -47 -98.5 -68.5t-110 -21.5q-30 0 -61 5t-47 12l19 74q24 -11 57 -19.5t68 -8.5q68 0 101 26.5t43 94.5l21 140q-29 -36 -71 -61t-91 -25q-80 0 -121.5 57.5t-41.5 153.5q0 81 38 166.5t110 143t167 57.5q53 0 106 -21l57 21l-93 -606
q-10 -73 -52.5 -120zM343 519q-70 0 -120 -49.5t-75.5 -122t-25.5 -140.5q0 -75 25 -117t71 -42q48 0 90.5 29.5t66.5 66.5l52 350q-31 25 -84 25zM249 682.5q-39 41.5 -39 106.5l1 16h42l1 -15q5 -36 31 -62.5t71 -26.5q54 0 81 31.5t35 72.5h41q0 -11 -1 -15
q-4 -38 -25.5 -72t-57 -55.5t-80.5 -21.5q-61 0 -100 41.5z" />
  </g>

</svg>
