<?xml version="1.0" standalone="no"?>
<!DOCTYPE svg PUBLIC "-//W3C//DTD SVG 1.1//EN" "http://www.w3.org/Graphics/SVG/1.1/DTD/svg11.dtd" >
<svg xmlns="http://www.w3.org/2000/svg" xmlns:xlink="http://www.w3.org/1999/xlink" version="1.1" viewBox="-10 0 393 1000">
  <g transform="matrix(1 0 0 -1 0 800)">
   <path fill="currentColor"
d="M150 69q0 -12 4 -18.5t10 -6.5q21 0 53 33l13 -22q-11 -20 -39 -42.5t-67 -22.5q-52 0 -52 57l3 37l93 655l-60 16l8 34l116 17l19 -12l-100 -715zM278 410.5q19 20.5 44 20.5q23 0 35 -12t12 -32q0 -32 -20 -52t-46 -20q-19 0 -31.5 12t-12.5 33q0 30 19 50.5z" />
  </g>

</svg>
