<?xml version="1.0" standalone="no"?>
<!DOCTYPE svg PUBLIC "-//W3C//DTD SVG 1.1//EN" "http://www.w3.org/Graphics/SVG/1.1/DTD/svg11.dtd" >
<svg xmlns="http://www.w3.org/2000/svg" xmlns:xlink="http://www.w3.org/1999/xlink" version="1.1" viewBox="-10 0 618 1000">
  <g transform="matrix(1 0 0 -1 0 800)">
   <path fill="currentColor"
d="M475 715q46 -31 69 -84t23 -119q0 -122 -51 -236.5t-143 -197.5t-209 -115l-13 36q108 38 191 132.5t122 206.5q-79 -79 -191 -79q-62 0 -103 28t-60 72.5t-19 95.5q0 71 33 138.5t95.5 110t145.5 42.5q64 0 110 -31zM251 667q-40 -35 -60 -88.5t-20 -105.5
q0 -75 33.5 -119.5t88.5 -44.5q66 0 107.5 27t69.5 62q15 57 15 122q0 81 -35 131.5t-103 50.5q-56 0 -96 -35z" />
  </g>

</svg>
