<?xml version="1.0" standalone="no"?>
<!DOCTYPE svg PUBLIC "-//W3C//DTD SVG 1.1//EN" "http://www.w3.org/Graphics/SVG/1.1/DTD/svg11.dtd" >
<svg xmlns="http://www.w3.org/2000/svg" xmlns:xlink="http://www.w3.org/1999/xlink" version="1.1" viewBox="-10 0 624 1000">
  <g transform="matrix(1 0 0 -1 0 800)">
   <path fill="currentColor"
d="M467 507q50 -61 50 -171q0 -88 -35.5 -167.5t-99 -129t-143.5 -49.5q-92 0 -143 58.5t-53 165.5q-1 90 35 171.5t100 132t145 50.5q94 0 144 -61zM209.5 474q-41.5 -45 -62.5 -114t-21 -139q0 -88 33 -135t95 -47q56 0 97 44.5t62 112.5t21 137q0 90 -31 138t-94 48
q-58 0 -99.5 -45zM332 872l60 -43q-15 -36 -70.5 -98.5t-92.5 -88.5l-33 26zM546 872l58 -42q-17 -38 -75 -102t-94 -86l-34 26z" />
  </g>

</svg>
