<?xml version="1.0" standalone="no"?>
<!DOCTYPE svg PUBLIC "-//W3C//DTD SVG 1.1//EN" "http://www.w3.org/Graphics/SVG/1.1/DTD/svg11.dtd" >
<svg xmlns="http://www.w3.org/2000/svg" xmlns:xlink="http://www.w3.org/1999/xlink" version="1.1" viewBox="-10 0 573 1000">
  <g transform="matrix(1 0 0 -1 0 800)">
   <path fill="currentColor"
d="M279 235l28 177q64 12 121 58t91 111t34 132q0 87 -50.5 141.5t-151.5 54.5q-72 0 -133.5 -28.5t-98.5 -67.5l36 -33q32 30 73.5 49t86.5 19q66 0 111 -36.5t45 -112.5q0 -56 -32 -115.5t-81 -98.5t-98 -39l-16 -1v1l-34 -211h69zM159.5 8q-10.5 12 -8.5 33q2 28 20 45.5
t42 15.5q21 -3 29.5 -15t6.5 -30q-1 -28 -18 -44.5t-41 -16.5q-20 0 -30.5 12z" />
  </g>

</svg>
