<?xml version="1.0" standalone="no"?>
<!DOCTYPE svg PUBLIC "-//W3C//DTD SVG 1.1//EN" "http://www.w3.org/Graphics/SVG/1.1/DTD/svg11.dtd" >
<svg xmlns="http://www.w3.org/2000/svg" xmlns:xlink="http://www.w3.org/1999/xlink" version="1.1" viewBox="-10 0 286 1000">
  <g transform="matrix(1 0 0 -1 0 800)">
   <path fill="currentColor"
d="M213 529q39 64 49 128q4 32 4 44q0 46 -17.5 70t-47.5 24q-22 0 -42 -14.5t-25 -46.5q-1 -5 -1 -14q0 -21 11 -32.5t26 -11.5q8 0 16 3q6 -12 6 -26q0 -11 -3 -34q-5 -42 -31.5 -87.5t-53.5 -62.5l-1 -16l15 -19q56 31 95 95z" />
  </g>

</svg>
