<?xml version="1.0" standalone="no"?>
<!DOCTYPE svg PUBLIC "-//W3C//DTD SVG 1.1//EN" "http://www.w3.org/Graphics/SVG/1.1/DTD/svg11.dtd" >
<svg xmlns="http://www.w3.org/2000/svg" xmlns:xlink="http://www.w3.org/1999/xlink" version="1.1" viewBox="-10 0 272 1000">
  <g transform="matrix(1 0 0 -1 0 800)">
   <path fill="currentColor"
d="M200 458.5q22 17.5 22 57.5q0 21 -11 33.5t-26 12.5q-7 0 -17 -4q-6 12 -6 28q0 11 3 32q6 43 32.5 87.5t53.5 63.5l1 15l-16 20q-55 -32 -95 -96t-49 -127q-4 -32 -4 -43q0 -47 18 -72t47 -25q25 0 47 17.5z" />
  </g>

</svg>
