<?xml version="1.0" standalone="no"?>
<!DOCTYPE svg PUBLIC "-//W3C//DTD SVG 1.1//EN" "http://www.w3.org/Graphics/SVG/1.1/DTD/svg11.dtd" >
<svg xmlns="http://www.w3.org/2000/svg" xmlns:xlink="http://www.w3.org/1999/xlink" version="1.1" viewBox="-10 0 578 1000">
  <g transform="matrix(1 0 0 -1 0 800)">
   <path fill="currentColor"
d="M361 507.5q-21 38.5 -21 84.5q0 88 54.5 152t131.5 97l16 -29v-9q-27 -9 -54.5 -36t-45.5 -64.5t-18 -76.5q0 -34 16 -61t45 -32l-2 -16l-56 -60q-45 12 -66 50.5zM126 507.5q-21 38.5 -21 84.5q0 88 54.5 152t131.5 97l16 -29v-9q-27 -9 -54.5 -36t-45.5 -64.5
t-18 -76.5q0 -34 16 -61t45 -32l-2 -16l-56 -60q-45 12 -66 50.5z" />
  </g>

</svg>
