<?xml version="1.0" standalone="no"?>
<!DOCTYPE svg PUBLIC "-//W3C//DTD SVG 1.1//EN" "http://www.w3.org/Graphics/SVG/1.1/DTD/svg11.dtd" >
<svg xmlns="http://www.w3.org/2000/svg" xmlns:xlink="http://www.w3.org/1999/xlink" version="1.1" viewBox="-10 0 658 1000">
  <g transform="matrix(1 0 0 -1 0 800)">
   <path fill="currentColor"
d="M638 743l-30 -222l-43 -1l7 172l-182 8l-85 -653l123 -9l-3 -38h-321l2 38l120 9l84 653l-180 -8l-44 -170l-45 -1l35 222h562zM190 -247q34 25 34 77q0 22 -8.5 40t-23.5 23v26l52 33q28 -10 41.5 -39.5t13.5 -64.5q0 -48 -23.5 -80.5t-50.5 -40.5l-35 16v10z" />
  </g>

</svg>
