<?xml version="1.0" standalone="no"?>
<!DOCTYPE svg PUBLIC "-//W3C//DTD SVG 1.1//EN" "http://www.w3.org/Graphics/SVG/1.1/DTD/svg11.dtd" >
<svg xmlns="http://www.w3.org/2000/svg" xmlns:xlink="http://www.w3.org/1999/xlink" version="1.1" viewBox="-115 0 363 1000">
  <g transform="matrix(1 0 0 -1 0 800)">
   <path fill="currentColor"
d="M-12 953q29 24 65 24q21 0 34 -7.5t27 -21.5q11 -11 19.5 -16.5t21.5 -5.5q16 0 30 10.5t22 26.5l31 -14q-14 -36 -43 -60.5t-64 -24.5q-20 0 -32.5 7t-27.5 21q-11 11 -20.5 17t-22.5 6q-16 0 -27 -9t-25 -28l-31 14q14 37 43 61zM116 821l100 -151l-37 -21l-108 110
l-149 -110l-27 20l151 152h70z" />
  </g>

</svg>
