<?xml version="1.0" standalone="no"?>
<!DOCTYPE svg PUBLIC "-//W3C//DTD SVG 1.1//EN" "http://www.w3.org/Graphics/SVG/1.1/DTD/svg11.dtd" >
<svg xmlns="http://www.w3.org/2000/svg" xmlns:xlink="http://www.w3.org/1999/xlink" version="1.1" viewBox="-10 0 668 1000">
  <g transform="matrix(1 0 0 -1 0 800)">
   <path fill="currentColor"
d="M451.5 -138q-54.5 -70 -153.5 -70q-17 0 -33.5 2.5t-22.5 6.5l7 47q20 -5 44 -5q51 0 82 24.5t49.5 80t30.5 155.5l21 159h-299l-35 -262h-77l65 486l-48 23l7 36l105 21l22 -11l-32 -245h298l31 245h73l-62 -477q-18 -146 -72.5 -216z" />
  </g>

</svg>
