<?xml version="1.0" standalone="no"?>
<!DOCTYPE svg PUBLIC "-//W3C//DTD SVG 1.1//EN" "http://www.w3.org/Graphics/SVG/1.1/DTD/svg11.dtd" >
<svg xmlns="http://www.w3.org/2000/svg" xmlns:xlink="http://www.w3.org/1999/xlink" version="1.1" viewBox="-54 0 719 1000">
  <g transform="matrix(1 0 0 -1 0 800)">
   <path fill="currentColor"
d="M359 329q-27 -1 -61 -1q-25 -18 -53 -61.5t-70 -119.5q-40 -73 -65 -110t-42 -37h-112l4 34l41 13q17 3 40 33.5t63 93.5q42 67 70 105.5t55 55.5q-56 17 -90.5 63t-34.5 104q0 74 34.5 130.5t100.5 87.5t158 31q25 0 67 -4q44 -4 69 -4h122l-4 -40l-75 -10l-81 -646
l78 -12l-3 -35h-236l4 35l81 12l36 283q-12 -1 -96 -1zM464 697q-51 7 -84 7q-98 0 -146 -49.5t-48 -136.5q0 -65 45.5 -104.5t115.5 -39.5q94 0 114 2l39 317q-8 0 -36 4z" />
  </g>

</svg>
