<?xml version="1.0" standalone="no"?>
<!DOCTYPE svg PUBLIC "-//W3C//DTD SVG 1.1//EN" "http://www.w3.org/Graphics/SVG/1.1/DTD/svg11.dtd" >
<svg xmlns="http://www.w3.org/2000/svg" xmlns:xlink="http://www.w3.org/1999/xlink" version="1.1" viewBox="-38 0 738 1000">
  <g transform="matrix(1 0 0 -1 0 800)">
   <path fill="currentColor"
d="M557.5 -58.5q-28.5 -47.5 -70.5 -85t-84 -50.5l-20 22q23 14 50 43.5t46.5 64.5t21.5 64h-147l3 35l80 12l82 652h-211l-10 -83q-16 -152 -49.5 -294.5t-83.5 -236t-112 -93.5q-26 0 -43 6t-38 20l18 83q8 -9 26.5 -18t41.5 -9q42 0 81 74.5t68 199.5t44 272l8 70
l-105 13l4 40h532l-5 -40l-88 -10l-82 -647l76 -11l-1 -4q-4 -42 -32.5 -89.5z" />
  </g>

</svg>
