<?xml version="1.0" standalone="no"?>
<!DOCTYPE svg PUBLIC "-//W3C//DTD SVG 1.1//EN" "http://www.w3.org/Graphics/SVG/1.1/DTD/svg11.dtd" >
<svg xmlns="http://www.w3.org/2000/svg" xmlns:xlink="http://www.w3.org/1999/xlink" version="1.1" viewBox="-10 0 620 1000">
  <g transform="matrix(1 0 0 -1 0 800)">
   <path fill="currentColor"
d="M92.5 543.5q49.5 98.5 133 153t181.5 54.5q58 0 94.5 -6t77.5 -17l21 -7l-30 -178h-49l-4 135q-20 12 -47 18.5t-73 6.5q-87 0 -148 -57t-91 -144t-30 -176q0 -118 45.5 -201.5t141.5 -83.5q41 0 84 12.5t61 34.5q18 58 32 109h49l-20 -161q-48 -17 -88.5 -28t-95.5 -15
q9 -23 9 -60q0 -79 -36.5 -119.5t-95.5 -40.5q-19 0 -37 4.5t-27 10.5l7 60q6 -4 20 -6.5t29 -2.5q45 0 68.5 32.5t23.5 87.5q-2 23 -4 33q-87 1 -143.5 48.5t-82 121t-25.5 155.5q0 128 49.5 226.5z" />
  </g>

</svg>
