<?xml version="1.0" standalone="no"?>
<!DOCTYPE svg PUBLIC "-//W3C//DTD SVG 1.1//EN" "http://www.w3.org/Graphics/SVG/1.1/DTD/svg11.dtd" >
<svg xmlns="http://www.w3.org/2000/svg" xmlns:xlink="http://www.w3.org/1999/xlink" version="1.1" viewBox="-10 0 635 1000">
  <g transform="matrix(1 0 0 -1 0 800)">
   <path fill="currentColor"
d="M307.5 439.5q49.5 11.5 94.5 11.5q85 0 128 -33t43 -123q0 -30 -4 -58l-24 -187l66 -9l-4 -41h-219l4 40l73 11l17 129q8 64 8 100q0 64 -26.5 89.5t-95.5 25.5q-39 0 -83.5 -10t-70.5 -27l-39 -308l74 -10l-4 -40h-222l6 40l67 10l81 646l-78 12l3 35h247l-3 -35
l-90 -12l-36 -291q38 23 87.5 34.5z" />
  </g>

</svg>
