<?xml version="1.0" standalone="no"?>
<!DOCTYPE svg PUBLIC "-//W3C//DTD SVG 1.1//EN" "http://www.w3.org/Graphics/SVG/1.1/DTD/svg11.dtd" >
<svg xmlns="http://www.w3.org/2000/svg" xmlns:xlink="http://www.w3.org/1999/xlink" version="1.1" viewBox="-109 0 883 1000">
  <g transform="matrix(1 0 0 -1 0 800)">
   <path fill="currentColor"
d="M162 37q-27 -92 -94 -141.5t-152 -63.5l-15 35q67 18 117.5 67.5t64.5 109.5q18 87 36 242l51 407l-67 10l6 40h219l-5 -40l-73 -10l-37 -288h355l31 289l-82 9l5 40h242l-4 -40l-84 -9l-76 -647l76 -12l-3 -35h-231l2 35l80 12l38 306h-356q-32 -279 -44 -316z" />
  </g>

</svg>
