<?xml version="1.0" standalone="no"?>
<!DOCTYPE svg PUBLIC "-//W3C//DTD SVG 1.1//EN" "http://www.w3.org/Graphics/SVG/1.1/DTD/svg11.dtd" >
<svg xmlns="http://www.w3.org/2000/svg" xmlns:xlink="http://www.w3.org/1999/xlink" version="1.1" viewBox="-10 0 550 1000">
  <g transform="matrix(1 0 0 -1 0 800)">
   <path fill="currentColor"
d="M450 534.5q38 -27.5 38 -64.5q0 -53 -32.5 -90.5t-104.5 -60.5q67 1 101 -33t34 -82q0 -58 -29.5 -106.5t-87.5 -77.5t-140 -29q-50 0 -93 28t-69 80t-26 121q0 111 47.5 188.5t116 115.5t130.5 38q77 0 115 -27.5zM363 368.5q40 29.5 40 79.5q0 31 -23.5 48.5
t-67.5 17.5q-32 0 -72 -23.5t-71 -70t-38 -111.5l113 17q79 13 119 42.5zM122 227v-32q0 -67 34.5 -112t90.5 -45q71 0 115 41.5t44 107.5q0 45 -27.5 74t-84.5 29q-17 0 -27 -1l-142 -21q-3 -12 -3 -41z" />
  </g>

</svg>
