<?xml version="1.0" standalone="no"?>
<!DOCTYPE svg PUBLIC "-//W3C//DTD SVG 1.1//EN" "http://www.w3.org/Graphics/SVG/1.1/DTD/svg11.dtd" >
<svg xmlns="http://www.w3.org/2000/svg" xmlns:xlink="http://www.w3.org/1999/xlink" version="1.1" viewBox="-10 0 833 1000">
  <g transform="matrix(1 0 0 -1 0 800)">
   <path fill="currentColor"
d="M373 442.5q38 57.5 93 91.5t120 34q95 0 145 -60t50 -170q0 -88 -35.5 -168t-99.5 -130t-144 -50q-92 0 -142 58.5t-52 165.5q-1 14 0.5 30t1.5 22h-133l-35 -266h-77l103 739l-59 16l9 34l114 17l19 -12l-67 -480h134q17 71 55 128.5zM474.5 474.5q-41.5 -44.5 -63 -113
t-21.5 -137.5q0 -89 32.5 -137t94.5 -48q56 0 97 45t62.5 114t21.5 138q0 88 -31.5 135.5t-93.5 47.5q-57 0 -98.5 -44.5z" />
  </g>

</svg>
