<?xml version="1.0" standalone="no"?>
<!DOCTYPE svg PUBLIC "-//W3C//DTD SVG 1.1//EN" "http://www.w3.org/Graphics/SVG/1.1/DTD/svg11.dtd" >
<svg xmlns="http://www.w3.org/2000/svg" xmlns:xlink="http://www.w3.org/1999/xlink" version="1.1" viewBox="-10 0 824 1000">
  <g transform="matrix(1 0 0 -1 0 800)">
   <path fill="currentColor"
d="M539 552.5q33 15.5 71 15.5q80 0 121 -58t41 -154q0 -80 -36 -165.5t-103 -143t-156 -57.5q-30 0 -69 15l-25 -169q-1 -4 -1 -11q0 -13 4.5 -19t10.5 -6q23 0 54 34l13 -23q-11 -19 -40.5 -41.5t-65.5 -22.5q-25 0 -41.5 12t-16.5 36q0 7 1 11l35 244q-24 -26 -60 -43
t-78 -17q-78 0 -118 57.5t-40 153.5q0 81 36 166.5t104 143t158 57.5q36 0 74 -19l28 190l-60 16l9 34l113 17l22 -12l-42 -281q24 24 57 39.5zM327 519q-65 0 -111.5 -49.5t-70 -122t-23.5 -140.5q0 -75 24 -117.5t67 -42.5q40 0 75 19.5t58 44.5l56 376q-26 32 -75 32z
M488 39q64 0 109.5 49.5t68.5 122t23 140.5q0 75 -24.5 117.5t-69.5 42.5q-35 0 -67 -17.5t-55 -41.5l-56 -388q26 -25 71 -25z" />
  </g>

</svg>
