<?xml version="1.0" standalone="no"?>
<!DOCTYPE svg PUBLIC "-//W3C//DTD SVG 1.1//EN" "http://www.w3.org/Graphics/SVG/1.1/DTD/svg11.dtd" >
<svg xmlns="http://www.w3.org/2000/svg" xmlns:xlink="http://www.w3.org/1999/xlink" version="1.1" viewBox="-29 0 941 1000">
  <g transform="matrix(1 0 0 -1 0 800)">
   <path fill="currentColor"
d="M622 -212q24 8 44 27.5t20 42.5q0 15 -6 33q-7 17 -7 37q0 36 35 64q-51 11 -81 66.5t-30 145.5q0 36 4 63h-118l-32 -267h-78l33 267h-127q-13 -74 -46.5 -137.5t-82 -101.5t-105.5 -38q-42 0 -64 17l27 75l56 -46q32 0 66 39t56.5 107t22.5 151t-22 124t-58 41
q-28 0 -49 -13.5t-50 -44.5l-18 21q67 99 141 99q60 0 97 -57.5t37 -156.5q0 -14 -2 -38h125l29 246h78l-30 -246h122q16 69 49.5 126.5t80 91.5t100.5 34q42 0 63 -18l-27 -74l-55 46q-33 0 -67 -39t-56.5 -107t-22.5 -151t21.5 -124t57.5 -41q28 0 50.5 13.5t50.5 44.5
l17 -22q-40 -62 -89 -85q-21 -13 -31.5 -23t-10.5 -28q0 -9 4 -21t5 -16q11 -26 11 -43q0 -36 -36.5 -68t-80.5 -42z" />
  </g>

</svg>
