<?xml version="1.0" standalone="no"?>
<!DOCTYPE svg PUBLIC "-//W3C//DTD SVG 1.1//EN" "http://www.w3.org/Graphics/SVG/1.1/DTD/svg11.dtd" >
<svg xmlns="http://www.w3.org/2000/svg" xmlns:xlink="http://www.w3.org/1999/xlink" version="1.1" viewBox="-10 0 941 1000">
  <g transform="matrix(1 0 0 -1 0 800)">
   <path fill="currentColor"
d="M301.5 529.5q58.5 38.5 115.5 38.5q54 0 83 -33.5t29 -110.5q0 -44 -21 -151l-5 -26q-1 -8 -5 -26q-18 -105 -21 -143q-2 -34 12 -34q20 0 47 26l13 -23q-10 -15 -39 -36t-63 -21q-53 0 -53 56q0 22 6 59t13 73l9 45l6 31q11 61 16 96t5 68q0 49 -15 67.5t-52 18.5
q-43 0 -97.5 -41.5t-92.5 -99.5l-49 -363h-78l65 488l-48 23l7 36l105 21l19 -10l-13 -126q43 59 101.5 97.5zM722.5 -187q-53.5 -66 -137.5 -66q-24 0 -45.5 5t-29.5 13l14 35q7 -3 20.5 -5.5t24.5 -2.5q67 0 99.5 63t45.5 173l53 465l-69 20l7 32l130 21l20 -10l-65 -555
q-14 -122 -67.5 -188zM796.5 695.5q-13.5 13.5 -13.5 34.5q0 26 18.5 45t39.5 19t33.5 -13t12.5 -34q0 -27 -17.5 -46t-41.5 -19q-18 0 -31.5 13.5z" />
  </g>

</svg>
