<?xml version="1.0" standalone="no"?>
<!DOCTYPE svg PUBLIC "-//W3C//DTD SVG 1.1//EN" "http://www.w3.org/Graphics/SVG/1.1/DTD/svg11.dtd" >
<svg xmlns="http://www.w3.org/2000/svg" xmlns:xlink="http://www.w3.org/1999/xlink" version="1.1" viewBox="-45 0 838 1000">
  <g transform="matrix(1 0 0 -1 0 800)">
   <path fill="currentColor"
d="M681 60q7 -17 18 -17q25 0 58 31l14 -23q-10 -44 -46 -98t-85 -98t-93 -62l-16 21q36 21 80.5 76t62.5 101q-6 -1 -18 -1q-30 0 -45 15t-16 49l8 310l7 145l-63 -144l-180 -372h-36l-86 375l-27 132l-35 -163q-39 -186 -85 -288q-13 -30 -32.5 -43.5t-58.5 -13.5
q-8 0 -24.5 4.5t-17.5 8.5l20 88q7 -4 34.5 -10.5t37.5 -5.5q34 78 59.5 176.5t49.5 212.5l8 36l-88 12l4 41h195l79 -363l14 -89l33 89l172 363h96l-5 -455q0 -23 7 -40z" />
  </g>

</svg>
