<?xml version="1.0" standalone="no"?>
<!DOCTYPE svg PUBLIC "-//W3C//DTD SVG 1.1//EN" "http://www.w3.org/Graphics/SVG/1.1/DTD/svg11.dtd" >
<svg xmlns="http://www.w3.org/2000/svg" xmlns:xlink="http://www.w3.org/1999/xlink" version="1.1" viewBox="-10 0 751 1000">
  <g transform="matrix(1 0 0 -1 0 800)">
   <path fill="currentColor"
d="M99.5 537q44.5 101 122.5 158.5t174 57.5q56 0 102 -22q51 1 86 19t51.5 44.5t16.5 52.5q0 14 -1 18h78q2 -16 2 -22q0 -66 -45 -108t-122 -54q38 -44 58 -107.5t20 -138.5q0 -125 -43.5 -226.5t-121 -160t-174.5 -58.5q-80 0 -135.5 42t-84 114.5t-28.5 164.5
q0 125 44.5 226zM183 115.5q47 -77.5 131 -77.5q69 0 124.5 49t87.5 136t32 196q0 130 -44.5 207t-129.5 77q-70 0 -126.5 -49t-89 -136t-32.5 -196q0 -129 47 -206.5zM284.5 937q27.5 23 66.5 23q23 0 40 -10t36 -28q19 -17 32.5 -25t30.5 -8q26 0 44 13.5t34 35.5l26 -29
q-13 -32 -40 -57t-65 -25q-25 0 -43 10t-39 29q-20 17 -34 25t-33 8q-23 0 -39 -12t-33 -36l-26 28q15 35 42.5 58z" />
  </g>

</svg>
