<?xml version="1.0" standalone="no"?>
<!DOCTYPE svg PUBLIC "-//W3C//DTD SVG 1.1//EN" "http://www.w3.org/Graphics/SVG/1.1/DTD/svg11.dtd" >
<svg xmlns="http://www.w3.org/2000/svg" xmlns:xlink="http://www.w3.org/1999/xlink" version="1.1" viewBox="-70 0 726 1000">
  <g transform="matrix(1 0 0 -1 0 800)">
   <path fill="currentColor"
d="M437 743l127 -695l82 -13l-2 -35h-251l2 35l89 11l-29 178h-286l-84 -177l90 -12l-3 -35h-232l4 35l68 11l344 697h81zM192 272h254l-56 345l-7 60zM226 -210.5q-13 13.5 -13 34.5q0 26 18 45t40 19q21 0 33.5 -13t12.5 -34q0 -27 -17.5 -46t-41.5 -19q-19 0 -32 13.5z
M393 977h67l107 -160l-28 -25l-116 125l-164 -123l-26 23z" />
  </g>

</svg>
