<?xml version="1.0" standalone="no"?>
<!DOCTYPE svg PUBLIC "-//W3C//DTD SVG 1.1//EN" "http://www.w3.org/Graphics/SVG/1.1/DTD/svg11.dtd" >
<svg xmlns="http://www.w3.org/2000/svg" xmlns:xlink="http://www.w3.org/1999/xlink" version="1.1" viewBox="-70 0 759 1000">
  <g transform="matrix(1 0 0 -1 0 800)">
   <path fill="currentColor"
d="M437 743l127 -695l82 -13l-2 -35h-251l2 35l89 11l-29 178h-286l-84 -177l90 -12l-3 -35h-232l4 35l68 11l344 697h81zM192 272h254l-56 345l-7 60zM590.5 875.5q-39.5 41.5 -55.5 69.5l50 38l94 -147l-21 -20q-28 18 -67.5 59.5zM458 941l99 -152l-36 -20l-108 110
l-149 -110l-27 19l151 153h70z" />
  </g>

</svg>
