<?xml version="1.0" standalone="no"?>
<!DOCTYPE svg PUBLIC "-//W3C//DTD SVG 1.1//EN" "http://www.w3.org/Graphics/SVG/1.1/DTD/svg11.dtd" >
<svg xmlns="http://www.w3.org/2000/svg" xmlns:xlink="http://www.w3.org/1999/xlink" version="1.1" viewBox="-10 0 570 1000">
  <g transform="matrix(1 0 0 -1 0 800)">
   <path fill="currentColor"
d="M467 507q50 -61 50 -171q0 -88 -35.5 -167.5t-99 -129t-143.5 -49.5q-92 0 -143 58.5t-53 165.5q-1 90 35 171.5t100 132t145 50.5q94 0 144 -61zM209.5 474q-41.5 -45 -62.5 -114t-21 -139q0 -88 33 -135t95 -47q56 0 97 44.5t62 112.5t21 137q0 90 -31 138t-94 48
q-58 0 -99.5 -45zM293 644q-3 12 -2 20q3 13 12.5 21.5t28.5 19.5q17 10 26 16.5t14 17.5l1 5q1 3 1 10q0 15 -12 25.5t-36 12.5h-9q-20 0 -26 -3l8 56q2 2 18 4.5t28 2.5q47 0 74 -20t27 -57q0 -6 -2 -22q-5 -25 -22 -41t-47 -33q-13 -7 -24 -15q-17 -11 -16 -34l-34 -6
q-5 8 -8 20z" />
  </g>

</svg>
