<?xml version="1.0" standalone="no"?>
<!DOCTYPE svg PUBLIC "-//W3C//DTD SVG 1.1//EN" "http://www.w3.org/Graphics/SVG/1.1/DTD/svg11.dtd" >
<svg xmlns="http://www.w3.org/2000/svg" xmlns:xlink="http://www.w3.org/1999/xlink" version="1.1" viewBox="-10 0 697 1000">
  <g transform="matrix(1 0 0 -1 0 800)">
   <path fill="currentColor"
d="M444 74q0 -16 6.5 -23t13.5 -7q10 0 19.5 6.5t24.5 21.5l14 -22q-4 -8 -18.5 -22.5t-35.5 -26t-44 -11.5q-62 0 -58 66l6 41q-34 -44 -79.5 -75.5t-94.5 -31.5q-79 0 -117.5 57t-38.5 154q0 81 38 166.5t109.5 143t166.5 57.5q21 0 49 -5t50 -12l55 16l-65 -481
q-1 -5 -1 -12zM345 519q-69 0 -119 -47.5t-76 -119.5t-26 -142q0 -77 22.5 -119.5t68.5 -42.5q45 0 89.5 35.5t74.5 78.5l44 335q-32 22 -78 22zM533 760q3 12 12 19.5t27 17.5q15 8 24 15t14 16v4q0 19 -8 30t-33 14h-8q-16 0 -24 -2l9 49q2 2 16.5 4.5t25.5 2.5
q42 0 65.5 -17.5t23.5 -49.5q0 -34 -17 -52t-50 -37q-15 -9 -23 -14q-15 -10 -15 -30l-31 -5q-11 19 -8 35zM430 820l100 -151l-37 -21l-108 110l-149 -110l-27 20l151 152h70z" />
  </g>

</svg>
