<?xml version="1.0" standalone="no"?>
<!DOCTYPE svg PUBLIC "-//W3C//DTD SVG 1.1//EN" "http://www.w3.org/Graphics/SVG/1.1/DTD/svg11.dtd" >
<svg xmlns="http://www.w3.org/2000/svg" xmlns:xlink="http://www.w3.org/1999/xlink" version="1.1" viewBox="-10 0 609 1000">
  <g transform="matrix(1 0 0 -1 0 800)">
   <path fill="currentColor"
d="M561 743l-4 -153h-44l-17 104l-245 6l-37 -289l234 4l-5 -64l-234 7l-41 -310l298 9l55 114l43 -13l-43 -158h-510l3 35l75 11l81 647l-68 10l5 40h454zM242.5 937q27.5 23 66.5 23q23 0 40 -10t36 -28q19 -17 32.5 -25t30.5 -8q26 0 44 13.5t34 35.5l26 -29
q-13 -32 -40 -57t-65 -25q-25 0 -43 10t-39 29q-20 17 -34 25t-33 8q-23 0 -39 -12t-33 -36l-26 28q15 35 42.5 58z" />
  </g>

</svg>
