<?xml version="1.0" standalone="no"?>
<!DOCTYPE svg PUBLIC "-//W3C//DTD SVG 1.1//EN" "http://www.w3.org/Graphics/SVG/1.1/DTD/svg11.dtd" >
<svg xmlns="http://www.w3.org/2000/svg" xmlns:xlink="http://www.w3.org/1999/xlink" version="1.1" viewBox="-68 0 592 1000">
  <g transform="matrix(1 0 0 -1 0 800)">
   <path fill="currentColor"
d="M83.5 501q-5.5 7 -14.5 7t-18.5 -6t-24.5 -21l-12 26q9 16 37.5 37.5t58.5 21.5q31 0 44 -16.5t17 -50.5l52 -374l14 -136l81 155q16 34 25 50q43 86 63.5 143.5t20.5 119.5q0 13 -4 24t-5 13q-8 20 -8 30q0 21 10.5 31t27.5 10q26 0 40.5 -23t14.5 -65q0 -64 -28.5 -134
t-78.5 -164l-18 -34q-54 -109 -99.5 -186t-78.5 -117q-62 -89 -166 -89q-21 0 -49 4.5t-43 10.5l19 64q38 -19 83 -19q42 0 90.5 36t86.5 112h-38l-90 514q-4 19 -9.5 26zM265 643q-3 12 -2 20q3 13 12.5 21.5t28.5 19.5q17 10 26 16.5t14 17.5l1 5q1 3 1 10q0 15 -12 25.5
t-36 12.5h-9q-20 0 -26 -3l8 56q2 2 18 4.5t28 2.5q47 0 74 -20t27 -57q0 -6 -2 -22q-5 -25 -22 -41t-47 -33q-13 -7 -24 -15q-17 -11 -16 -34l-34 -6q-5 8 -8 20z" />
  </g>

</svg>
