<?xml version="1.0" standalone="no"?>
<!DOCTYPE svg PUBLIC "-//W3C//DTD SVG 1.1//EN" "http://www.w3.org/Graphics/SVG/1.1/DTD/svg11.dtd" >
<svg xmlns="http://www.w3.org/2000/svg" xmlns:xlink="http://www.w3.org/1999/xlink" version="1.1" viewBox="-10 0 771 1000">
  <g transform="matrix(1 0 0 -1 0 800)">
   <path fill="currentColor"
d="M328 743l-5 -40l-73 -10l-37 -288h349l36 288l-73 10l4 40h222l-5 -40l-70 -10l-80 -646l76 -12l-4 -35h-233l3 35l80 12l37 306h-349l-38 -306l76 -12l-3 -35h-229l4 35l73 12l81 646l-67 10l5 40h220zM275 -210.5q-13 13.5 -13 34.5q0 26 18 45t40 19q21 0 33.5 -13
t12.5 -34q0 -27 -17.5 -46t-41.5 -19q-19 0 -32 13.5z" />
  </g>

</svg>
