<?xml version="1.0" standalone="no"?>
<!DOCTYPE svg PUBLIC "-//W3C//DTD SVG 1.1//EN" "http://www.w3.org/Graphics/SVG/1.1/DTD/svg11.dtd" >
<svg xmlns="http://www.w3.org/2000/svg" xmlns:xlink="http://www.w3.org/1999/xlink" version="1.1" viewBox="-10 0 713 1000">
  <g transform="matrix(1 0 0 -1 0 800)">
   <path fill="currentColor"
d="M372.5 33.5q-14.5 33.5 -34.5 103.5q-20 71 -36.5 113t-37.5 59q-32 -4 -47 -4q-84 0 -114 3l5 47q3 0 21 -2t92 -2q85 0 130 36.5t61 112.5h-286l5 48h287q7 139 -114 148h-154l6 47h537l-5 -47h-219q44 -42 44 -126l-1 -22h142l-6 -48h-143q-15 -66 -55 -111t-101 -62
q20 -14 34 -46.5t32 -91.5q20 -65 36.5 -99t41.5 -39l36 -11l-5 -40h-120q-17 0 -31.5 33.5z" />
  </g>

</svg>
