<?xml version="1.0" standalone="no"?>
<!DOCTYPE svg PUBLIC "-//W3C//DTD SVG 1.1//EN" "http://www.w3.org/Graphics/SVG/1.1/DTD/svg11.dtd" >
<svg xmlns="http://www.w3.org/2000/svg" xmlns:xlink="http://www.w3.org/1999/xlink" version="1.1" viewBox="-10 0 616 1000">
  <g transform="matrix(1 0 0 -1 0 800)">
   <path fill="currentColor"
d="M114 84q-40 92 -40 217q0 133 42.5 236.5t114 160t155.5 56.5q108 0 152 -97t44 -227q0 -110 -43.5 -211.5t-117.5 -164t-159 -62.5q-108 0 -148 92zM388.5 91.5q52.5 54.5 82 142t29.5 180.5q0 126 -30 211t-97 85q-68 0 -117.5 -61t-75 -154.5t-25.5 -187.5
q0 -270 115 -270q66 0 118.5 54.5z" />
  </g>

</svg>
