<?xml version="1.0" standalone="no"?>
<!DOCTYPE svg PUBLIC "-//W3C//DTD SVG 1.1//EN" "http://www.w3.org/Graphics/SVG/1.1/DTD/svg11.dtd" >
<svg xmlns="http://www.w3.org/2000/svg" xmlns:xlink="http://www.w3.org/1999/xlink" version="1.1" viewBox="-10 0 838 1000">
  <g transform="matrix(1 0 0 -1 0 800)">
   <path fill="currentColor"
d="M636.42 92.7803c71.6299 -57.96 132.489 5.79883 155.68 28.5684v-97.71c-121.73 -80.3203 -223.58 15.7295 -223.58 15.7295s-5.7998 -4.5498 -6.21973 -4.5498c-50.9199 -28.5703 -111.78 -43.8906 -179.69 -43.8906c-211.15 0 -344.891 120.9 -344.891 358.561
c0 237.65 154.44 358.551 344.891 358.551c217.37 0 344.9 -147.81 344.9 -358.55c0 -106.42 -33.1201 -194.189 -91.0898 -256.709zM390.889 67.9395c33.5498 1.66016 103.929 26.9219 103.929 26.9219c-43.4697 38.9102 -99.7793 75.3398 -142.43 79.8994
c-65.8301 6.62988 -91.5 -75.7705 -29.8096 -101.851h0.410156c7.04004 -1.25 14.0801 -2.49023 21.1201 -3.31055h0.419922c12.0098 -1.66016 23.1797 -2.49023 40.9795 -2.07031c1.66016 0 3.73047 0.410156 5.38086 0.410156zM561.478 142.882
c45.96 49.2695 74.1104 120.07 74.1104 207.021c0 167.27 -110.55 281.949 -252.56 281.949c-141.6 0 -255.05 -106.4 -255.05 -284.44c0.419922 -101.02 31.4697 -175.13 84.46 -221.51c-7.44043 75.3604 53.8291 119.66 133.739 119.66
c93.5801 0 170.58 -66.6602 215.3 -102.68z" />
  </g>

</svg>
