<?xml version="1.0" standalone="no"?>
<!DOCTYPE svg PUBLIC "-//W3C//DTD SVG 1.1//EN" "http://www.w3.org/Graphics/SVG/1.1/DTD/svg11.dtd" >
<svg xmlns="http://www.w3.org/2000/svg" xmlns:xlink="http://www.w3.org/1999/xlink" version="1.1" viewBox="-10 0 543 1000">
  <g transform="matrix(1 0 0 -1 0 800)">
   <path fill="currentColor"
d="M475.45 92.3301l24.5 -91.1309l-96.71 -0.330078l-7.2002 73.6504s-12.6299 -25.25 -36.8896 -46.0801c-8.66016 -7.4502 -20.46 -13.2002 -33.3398 -18.8799c-26.9102 -11.5898 -62.9297 -18.6299 -104.33 -18.6299c-241.8 0 -241.39 266.22 -45.96 293.13
c27.3301 3.73047 59.6201 7.88086 91.5 11.6006c72.0498 8.29004 118 19.04 122.98 43.8896c0 0 11.1699 38.5 -23.2002 74.1104c-41.8096 43.4697 -207.02 51.3398 -232.27 -45.1201l-80.7305 19.8701c9.09961 31.0498 24.8398 60.0303 52.1602 80.3203
c24.0195 18.6299 50.9297 31.8799 81.1494 38.9199c40.5801 9.09961 161.89 17.3799 219.439 -26.5c69.9805 -53 65.25 -125.54 66.4902 -183.92zM391.811 198.779l0.000976562 56.7188c-65 -38.0898 -203.04 -19.0498 -253.55 -64.5898
c-29.4004 -26.5 -25.2607 -81.1504 11.5889 -108.9c21.5303 -16.1396 50.5107 -21.9395 81.1504 -21.9395c44.7197 0 91.0898 15.7402 122.56 47.2002c21.5195 21.9502 38.25 50.5205 38.25 91.5107z" />
  </g>

</svg>
