<?xml version="1.0" standalone="no"?>
<!DOCTYPE svg PUBLIC "-//W3C//DTD SVG 1.1//EN" "http://www.w3.org/Graphics/SVG/1.1/DTD/svg11.dtd" >
<svg xmlns="http://www.w3.org/2000/svg" xmlns:xlink="http://www.w3.org/1999/xlink" version="1.1" viewBox="-10 0 903 1000">
  <g transform="matrix(1 0 0 -1 0 800)">
   <path fill="currentColor"
d="M609.26 516.06c185.08 7.04004 228.962 -134.968 228.962 -233.928c0 -15.7305 -0.410156 -35.6104 -2.07031 -50.0908v-0.830078l-350.68 -1.24023s-8.28027 -170.59 137.46 -171c101.02 0 125.869 75.3496 125.869 75.3496s81.9805 -23.1797 81.9805 -23.5996
c0 0 -41.8301 -120.48 -199.16 -120.48c-101.43 0 -163.13 38.9199 -198.729 99.3701c-16.9805 -33.54 -66.25 -98.54 -194.19 -98.54c-242.21 0 -234.35 266.22 -45.1299 293.13c26.9102 3.73047 58.3799 7.87012 89.4297 11.1797
c60.04 6.62012 114.28 13.25 119.25 38.0898c0 0 9.51953 39.3398 -23.1904 78.6699c-43.4805 52.1699 -192.11 57.5498 -212.4 -43.8906l-84.8799 13.6602c43.0596 161.89 272.439 148.649 336.609 99.3799c16.1504 -12.0098 28.1602 -25.6797 36.8604 -40.1699
c27.3203 35.2002 77.8301 72.04 154.01 74.9404zM402.252 191.462l-0.000976562 66.6602c-75.7695 -33.54 -195.01 -17.3896 -243.46 -63.7598c-31.0498 -29.4004 -25.2598 -84.46 10.3506 -112.62c72.46 -55.9004 233.11 -10.3506 233.11 109.72zM747.561 300.762
c0 0 7.03027 148.65 -131.26 150.71c-130.83 2.07031 -130.83 -150.71 -130.83 -150.71h262.09z" />
  </g>

</svg>
