<?xml version="1.0" standalone="no"?>
<!DOCTYPE svg PUBLIC "-//W3C//DTD SVG 1.1//EN" "http://www.w3.org/Graphics/SVG/1.1/DTD/svg11.dtd" >
<svg xmlns="http://www.w3.org/2000/svg" xmlns:xlink="http://www.w3.org/1999/xlink" version="1.1" viewBox="-10 0 730 1000">
  <g transform="matrix(1 0 0 -1 0 800)">
   <path fill="currentColor"
d="M657.55 257.02c0 -1.25 -0.418945 -65.0117 -77.8389 -154.441l77.8398 -104.75h-120.9l-32.2998 47.6104c-77 -65.8301 -276.98 -92.3203 -380.08 11.5898c-109.3 109.73 -84.8799 292.311 108.47 366.021c0 0 -24.0098 36.0195 -41.8096 64.1699
c-60.8604 97.71 -19.46 210.33 105.58 225.23c84.46 10.3496 172.229 -30.6406 185.489 -117.99c19.8701 -129.18 -128.77 -199.979 -128.77 -199.979l169.75 -226.48c59.2197 67.9004 57.1494 132.91 57.1494 132.91zM323.841 644.968
c-53.4199 0.410156 -90.2598 -36.4297 -77.0195 -87.7793c7.45996 -29.4004 60.4502 -98.54 60.4502 -98.54c145.75 71.2197 90.2598 186.319 16.5693 186.319zM178.511 119.558c54.2305 -64.1797 190.039 -72.8799 277.819 -7.87012l-175.97 248.42
c-121.31 -36.0195 -173.89 -154.85 -101.85 -240.55z" />
  </g>

</svg>
