<?xml version="1.0" standalone="no"?>
<!DOCTYPE svg PUBLIC "-//W3C//DTD SVG 1.1//EN" "http://www.w3.org/Graphics/SVG/1.1/DTD/svg11.dtd" >
<svg xmlns="http://www.w3.org/2000/svg" xmlns:xlink="http://www.w3.org/1999/xlink" version="1.1" viewBox="-10 0 557 1000">
  <g transform="matrix(1 0 0 -1 0 800)">
   <path fill="currentColor"
d="M399.77 149.95l92.332 -21.5293s-31.4697 -116.35 -171.41 -132.08v-97.2998h-81.9805v98.96c-111.79 18.21 -184.66 101.44 -184.66 267.051c0 143.26 70.3896 229.37 184.659 248v105.59h81.9805v-103.51c130.84 -16.1504 165.609 -127.94 165.609 -127.94
l-86.9404 -23.1904s-25.2598 62.5195 -78.6699 63.3496v-341.99c56.7197 6.62012 79.0801 64.5898 79.0801 64.5898zM238.712 86.1904v340.329c-51.75 -10.3496 -87.7695 -78.25 -87.7695 -161.06c0 -102.68 30.2197 -165.609 87.7695 -179.27z" />
  </g>

</svg>
