<?xml version="1.0" standalone="no"?>
<!DOCTYPE svg PUBLIC "-//W3C//DTD SVG 1.1//EN" "http://www.w3.org/Graphics/SVG/1.1/DTD/svg11.dtd" >
<svg xmlns="http://www.w3.org/2000/svg" xmlns:xlink="http://www.w3.org/1999/xlink" version="1.1" viewBox="-10 0 539 1000">
  <g transform="matrix(1 0 0 -1 0 800)">
   <path fill="currentColor"
d="M256.75 516.34c180.9 5.09961 234.971 -134.97 234.931 -233.93c0 -15.7305 -0.410156 -35.6006 -2.11035 -50.0908v-0.830078l-359.88 -1.24023s-8.12012 -168.39 141.43 -168.81c103.72 0 128.81 73.1602 128.81 73.1602s84.1299 -23.1797 84.1299 -23.5996
c0 0 -42.8896 -120.48 -204.37 -120.48c-113.44 0 -179.271 45.54 -212.851 115.93c-63.3096 132.08 -42.9893 403.32 189.911 409.891zM398.68 294.471c0 0 8.12012 155.88 -134.84 155.84c-134.28 0 -134.12 -155.84 -134.12 -155.84h268.96z" />
  </g>

</svg>
