<?xml version="1.0" standalone="no"?>
<!DOCTYPE svg PUBLIC "-//W3C//DTD SVG 1.1//EN" "http://www.w3.org/Graphics/SVG/1.1/DTD/svg11.dtd" >
<svg xmlns="http://www.w3.org/2000/svg" xmlns:xlink="http://www.w3.org/1999/xlink" version="1.1" viewBox="-10 0 378 1000">
  <g transform="matrix(1 0 0 -1 0 800)">
   <path fill="currentColor"
d="M197.02 215.56c0 -108.93 -9.85938 -149.424 56.1807 -149.424c34.2402 0 60.4404 12.54 60.4404 12.54l20.71 -77.3398c-208.01 -40.21 -223.87 42.5205 -224.04 169.091c0 1.29004 -0.0800781 2.49023 -0.0800781 3.60059v192.53l2.51953 74.5703l-78.7002 -2.4502
v68.3203l78.0898 -1.78027l-1.29004 56.4404l0.660156 101.19l86.4902 34.2402l-0.69043 -129.1l-1.91016 -62.4805l63.2695 1.91016l58.7402 0.370117v-68.8096l-59.3701 -0.169922l-63.0996 2.36035l2.08008 -73.3203v-152.29z" />
  </g>

</svg>
