<?xml version="1.0" standalone="no"?>
<!DOCTYPE svg PUBLIC "-//W3C//DTD SVG 1.1//EN" "http://www.w3.org/Graphics/SVG/1.1/DTD/svg11.dtd" >
<svg xmlns="http://www.w3.org/2000/svg" xmlns:xlink="http://www.w3.org/1999/xlink" version="1.1" viewBox="-10 0 609 1000">
  <g transform="matrix(1 0 0 -1 0 800)">
   <path fill="currentColor"
d="M430 362.39c0 0 114.681 -42.2383 114.681 -178.868c0 -97.71 -73.7002 -194.19 -255.46 -194.19c-112.61 0 -200.801 55.9004 -223.161 139.95l101.85 15.3203c18.6299 -46.79 69.9697 -75.7705 123.8 -75.7705c93.1504 0.410156 154.851 50.5205 149.881 127.94
c-2.07031 34.3701 -29.8203 81.1504 -69.9707 101.03c-47.2002 23.1797 -107.66 16.9697 -107.66 16.9697v82.3896s62.9404 0.419922 103.931 21.9502c45.1299 24.0098 66.6602 70.79 59.6201 110.54c-9.51953 52.5898 -48.8496 102.689 -128.76 102.27
c-79.0898 -0.410156 -136.64 -45.1299 -139.54 -123.38l-105.16 11.1797c22.3604 134.56 128.351 189.619 246.351 189.619c144.5 0 230.62 -78.25 230.2 -192.93c-0.400391 -114.28 -100.601 -154.021 -100.601 -154.021z" />
  </g>

</svg>
