<?xml version="1.0" standalone="no"?>
<!DOCTYPE svg PUBLIC "-//W3C//DTD SVG 1.1//EN" "http://www.w3.org/Graphics/SVG/1.1/DTD/svg11.dtd" >
<svg xmlns="http://www.w3.org/2000/svg" xmlns:xlink="http://www.w3.org/1999/xlink" version="1.1" viewBox="-10 0 603 1000">
  <g transform="matrix(1 0 0 -1 0 800)">
   <path fill="currentColor"
d="M120.71 0.240234l70.7998 -0.410156h-70.7998v0.410156zM180.74 85.5303l357.319 -0.00195312v-85.29h-378.43l-71.21 0.410156h-34.3701c0 104.76 59.6201 203.3 146.16 266.229c98.1201 70.7998 189.2 108.06 221.09 173.89
c47.2002 96.4697 -14.4902 168.52 -105.99 183.42c-53.4102 8.28027 -117.59 -16.5596 -146.58 -60.8594c-15.7197 -24.0195 -17.3799 -57.5498 -17.3799 -57.5498l-97.2998 13.25c45.54 227.72 340.34 229.37 432.67 113.44
c47.6104 -57.1299 96.0605 -173.479 -24.0195 -294.369c-97.71 -98.1396 -256.29 -137.06 -281.96 -252.569z" />
  </g>

</svg>
