<?xml version="1.0" standalone="no"?>
<!DOCTYPE svg PUBLIC "-//W3C//DTD SVG 1.1//EN" "http://www.w3.org/Graphics/SVG/1.1/DTD/svg11.dtd" >
<svg xmlns="http://www.w3.org/2000/svg" xmlns:xlink="http://www.w3.org/1999/xlink" version="1.1" viewBox="-10 0 836 1000">
  <g transform="matrix(1 0 0 -1 0 761)">
   <path fill="currentColor"
d="M308 -83c-36 -9 -51 -49 -56 -66l-89 39c9 20 44 88 102 116l12 6l-12 6c-42 20 -79 46 -109 77c-34 34 -60 74 -78 117c-18 47 -28 95 -28 144s10 97 28 145c19 44 45 84 78 118c35 35 74 62 115 79c45 20 92 30 141 30c50 0 97 -10 142 -30c41 -17 80 -44 115 -79
c33 -34 59 -74 78 -118c18 -45 28 -94 28 -145s-10 -100 -28 -144c-19 -45 -45 -84 -77 -117c-36 -36 -74 -62 -117 -80c-28 -12 -58 -21 -93 -26l-19 -3l17 -9c9 -5 19 -13 29 -19c39 -29 70 -42 96 -42c9 0 17 2 24 4c20 8 37 23 53 47v1c17 26 26 52 28 59l1 2l87 -35v-2
c-2 -9 -11 -32 -24 -58c-30 -55 -69 -92 -112 -108c-21 -7 -39 -11 -58 -11c-11 0 -24 2 -40 5c-35 9 -73 29 -110 56l-2 2c-45 35 -87 49 -122 39zM247 192c43 -44 102 -68 165 -68s122 24 166 68c43 42 68 102 68 164c0 63 -24 122 -68 166s-103 68 -166 68
s-122 -24 -165 -68c-22 -21 -39 -47 -50 -75c-12 -29 -18 -59 -18 -91c0 -63 24 -121 68 -164z" />
  </g>

</svg>
