<?xml version="1.0" standalone="no"?>
<!DOCTYPE svg PUBLIC "-//W3C//DTD SVG 1.1//EN" "http://www.w3.org/Graphics/SVG/1.1/DTD/svg11.dtd" >
<svg xmlns="http://www.w3.org/2000/svg" xmlns:xlink="http://www.w3.org/1999/xlink" version="1.1" viewBox="-10 0 850 1000">
  <g transform="matrix(1 0 0 -1 0 761)">
   <path fill="currentColor"
d="M700 352l90 -36l-2 -6c-4 -13 -11 -33 -23 -54c-25 -51 -62 -82 -103 -97c-38 -16 -79 -8 -114 6c-11 -42 -33 -79 -65 -109c-48 -48 -113 -73 -180 -73c-140 0 -253 111 -253 245c0 66 25 126 73 172c8 8 16 14 24 21c-31 32 -49 75 -49 121c0 103 92 187 205 187
s205 -84 205 -187h-126c-1 43 -36 77 -79 77c-44 0 -78 -35 -78 -78c0 -31 18 -58 45 -72c11 2 22 2 33 2h1v-117h-1c-31 0 -62 -14 -84 -36c-23 -25 -36 -56 -36 -90s13 -64 36 -89c22 -23 53 -36 84 -36c67 0 123 56 123 125v1c-20 9 -39 14 -54 8c-18 -7 -32 -26 -41 -42
l-87 47c15 32 65 114 181 90c72 -15 150 -97 207 -80c33 10 55 58 66 93z" />
  </g>

</svg>
