<?xml version="1.0" standalone="no"?>
<!DOCTYPE svg PUBLIC "-//W3C//DTD SVG 1.1//EN" "http://www.w3.org/Graphics/SVG/1.1/DTD/svg11.dtd" >
<svg xmlns="http://www.w3.org/2000/svg" xmlns:xlink="http://www.w3.org/1999/xlink" version="1.1" viewBox="-10 0 576 1000">
  <g transform="matrix(1 0 0 -1 0 761)">
   <path fill="currentColor"
d="M421 185l95 -87l-15 -18c-46 -56 -111 -89 -182 -93l-7 -19c64 0 111 -47 111 -111s-51 -114 -115 -114c-46 0 -86 28 -104 68l68 34c5 -16 19 -26 36 -26c21 0 39 17 39 38c0 7 -2 14 -6 21c-12 18 -36 23 -54 11c-6 -4 -10 -9 -13 -15l-73 29l36 93
c-42 12 -80 34 -112 66c-48 48 -75 113 -75 182s27 134 75 182c48 49 112 76 180 76c73 0 143 -33 192 -90l16 -18l-94 -88l-17 22c-25 31 -60 49 -97 49c-69 0 -126 -59 -126 -133c0 -36 13 -69 37 -95c24 -25 56 -38 89 -38c39 0 75 18 99 51z" />
  </g>

</svg>
