<?xml version="1.0" standalone="no"?>
<!DOCTYPE svg PUBLIC "-//W3C//DTD SVG 1.1//EN" "http://www.w3.org/Graphics/SVG/1.1/DTD/svg11.dtd" >
<svg xmlns="http://www.w3.org/2000/svg" xmlns:xlink="http://www.w3.org/1999/xlink" version="1.1" viewBox="-10 0 570 1000">
  <g transform="matrix(1 0 0 -1 0 800)">
   <path fill="currentColor"
d="M20 150c0 119 75 170 250 170h70v20c0 49 -20 70 -65 70c-46 0 -65 -18 -65 -60h-170c0 112 72 160 240 160s240 -57 240 -190v-320h-140l-21 36c-33 -32 -81 -46 -149 -46c-133 0 -190 48 -190 160zM340 220h-50c-63 0 -90 -14 -90 -60c0 -38 18 -50 60 -50
c56 0 80 27 80 90v20zM378 701l-1 -1c21 -17 33 -41 33 -70c0 -60 -50 -100 -130 -100s-130 40 -130 100s50 100 130 100h15l45 50h130zM280 600c30 0 40 10 40 30s-10 30 -40 30s-40 -10 -40 -30s10 -30 40 -30z" />
  </g>

</svg>
