<?xml version="1.0" standalone="no"?>
<!DOCTYPE svg PUBLIC "-//W3C//DTD SVG 1.1//EN" "http://www.w3.org/Graphics/SVG/1.1/DTD/svg11.dtd" >
<svg xmlns="http://www.w3.org/2000/svg" xmlns:xlink="http://www.w3.org/1999/xlink" version="1.1" viewBox="-10 0 570 1000">
  <g transform="matrix(1 0 0 -1 0 800)">
   <path fill="currentColor"
d="M265 180c70 0 100 -28 100 -95c0 -66 -30 -95 -100 -95s-100 28 -100 95s30 95 100 95zM190 260c0 210 160 160 160 270c0 42 -24 60 -80 60s-80 -30 -80 -100h-170c0 161 78 230 260 230s260 -57 260 -190c0 -180 -200 -130 -200 -270h-150z" />
  </g>

</svg>
