<?xml version="1.0" standalone="no"?>
<!DOCTYPE svg PUBLIC "-//W3C//DTD SVG 1.1//EN" "http://www.w3.org/Graphics/SVG/1.1/DTD/svg11.dtd" >
<svg xmlns="http://www.w3.org/2000/svg" xmlns:xlink="http://www.w3.org/1999/xlink" version="1.1" viewBox="-23 0 682 1000">
  <g transform="matrix(1 0 0 -1 0 800)">
   <path fill="currentColor"
d="M467 70q0 6 -3 13l-45 127h-232l-53 -153l86 -35l-6 -22h-221l-6 22l55 23q17 7 21.5 13t11.5 25l200 557l61 18l20 -8l215 -596l78 -32l-6 -22h-245l-6 22l55 23q20 8 20 25zM302 542l-98 -281h197zM217 742l172 123l41 -52l-4 -20l-196 -71z" />
  </g>

</svg>
