<?xml version="1.0" standalone="no"?>
<!DOCTYPE svg PUBLIC "-//W3C//DTD SVG 1.1//EN" "http://www.w3.org/Graphics/SVG/1.1/DTD/svg11.dtd" >
<svg xmlns="http://www.w3.org/2000/svg" xmlns:xlink="http://www.w3.org/1999/xlink" version="1.1" viewBox="-10 0 555 1000">
  <g transform="matrix(1 0 0 -1 0 800)">
   <path fill="currentColor"
d="M205 568v-216q95 0 193 9l32 3l11 -12l-11 -56q-119 7 -225 7v-251l217 4l48 88l30 -7v-137h-460l-6 22l55 23q18 7 24.5 15t6.5 23v510l-86 35l6 22h455v-137l-30 -7l-48 88l-185 4q-27 0 -27 -30zM181 742l172 123l41 -52l-4 -20l-196 -71z" />
  </g>

</svg>
