<?xml version="1.0" standalone="no"?>
<!DOCTYPE svg PUBLIC "-//W3C//DTD SVG 1.1//EN" "http://www.w3.org/Graphics/SVG/1.1/DTD/svg11.dtd" >
<svg xmlns="http://www.w3.org/2000/svg" xmlns:xlink="http://www.w3.org/1999/xlink" version="1.1" viewBox="-10 0 667 1000">
  <g transform="matrix(1 0 0 -1 0 800)">
   <path fill="currentColor"
d="M445 45q14 6 14 16t-9 22l-137 190l-157 -216l86 -35l-6 -22h-226l-6 22l55 23q17 7 23 14t11 15t6 9l176 243l-194 270l-72 32l6 22h245l6 -22l-55 -23q-14 -6 -14 -16t9 -22l129 -180l145 206l-86 35l6 22h226l6 -22l-55 -23q-12 -5 -15 -7.5t-4.5 -3.5t-5 -5.5
t-4.5 -5.5t-5 -7.5t-6 -8.5l-164 -233l202 -280l72 -32l-6 -22h-245l-6 22z" />
  </g>

</svg>
