<?xml version="1.0" standalone="no"?>
<!DOCTYPE svg PUBLIC "-//W3C//DTD SVG 1.1//EN" "http://www.w3.org/Graphics/SVG/1.1/DTD/svg11.dtd" >
<svg xmlns="http://www.w3.org/2000/svg" xmlns:xlink="http://www.w3.org/1999/xlink" version="1.1" viewBox="-10 0 483 1000">
  <g transform="matrix(1 0 0 -1 0 800)">
   <path fill="currentColor"
d="M448 420l-11 -72q-14 1 -47 5q-86 11 -123 12q4 -79 15 -177q-15 -158 -27 -389h-41q-12 241 -28 390q12 80 19 176q-57 -3 -165 -15l-14 14l11 72q120 -15 168 -17q0 5 -22 200l92 10l14 -13q-20 -157 -22 -197q67 3 167 17z" />
  </g>

</svg>
