<?xml version="1.0" standalone="no"?>
<!DOCTYPE svg PUBLIC "-//W3C//DTD SVG 1.1//EN" "http://www.w3.org/Graphics/SVG/1.1/DTD/svg11.dtd" >
<svg xmlns="http://www.w3.org/2000/svg" xmlns:xlink="http://www.w3.org/1999/xlink" version="1.1" viewBox="-10 0 533 1000">
  <g transform="matrix(1 0 0 -1 0 800)">
   <path fill="currentColor"
d="M117.5 608.5q56.5 49.5 143.5 49.5t142 -45.5t55 -113.5q0 -51 -32.5 -93t-89.5 -67q140 -59 140 -174q0 -76 -59.5 -124.5t-157.5 -48.5t-154 43t-56 110.5t39.5 111.5t89.5 66q-55 22 -86 64.5t-31 96.5q0 75 56.5 124.5zM133 166q0 -55 37.5 -83.5t101 -28.5t105.5 25
q19 26 19 72t-31 77.5t-125 68.5q-107 -54 -107 -131zM341 569q-33 27 -87.5 27t-93.5 -23q-19 -29 -19 -72t25.5 -72.5t105.5 -63.5q102 52 102 127q0 50 -33 77z" />
  </g>

</svg>
