<?xml version="1.0" standalone="no"?>
<!DOCTYPE svg PUBLIC "-//W3C//DTD SVG 1.1//EN" "http://www.w3.org/Graphics/SVG/1.1/DTD/svg11.dtd" >
<svg xmlns="http://www.w3.org/2000/svg" xmlns:xlink="http://www.w3.org/1999/xlink" version="1.1" viewBox="-10 0 1054 1000">
  <g transform="matrix(1 0 0 -1 0 800)">
   <path fill="currentColor"
d="M793.93 665.43c207.14 -130.01 228.509 -395.438 167.889 -558.408c-57.3398 -154.27 -279.51 -138 -311.02 -21.8604c0 0 -37.6797 -90.5498 -145.66 -98.9102c-113.33 -8.83008 -240.85 61.6396 -240.229 267.84c0.580078 196.91 131.29 247.71 230.62 240.26
c91.0898 -6.83008 133.45 -62.1104 133.45 -62.1104l-0.379883 53.79l122.39 -1.24023l6.0498 -307.96c-0.950195 -56.9805 98.8301 -92.6201 107.24 59.9902c13.2803 241.88 -121.029 377.27 -334.299 377.52c-196.67 0.25 -344.43 -119.41 -341.38 -383.271
c3.90039 -332.39 295.67 -380.29 475.57 -293.68l49.2305 -116.47s-67.7803 -43.1396 -208.681 -43.1396c-203.12 0 -355.28 89.7998 -422.57 284.729c-66.5303 192.77 -38.21 517.63 243.34 634.81c121.31 50.5098 334.869 51.9102 468.439 -31.8896zM519.129 97.501
c55.3096 5.25977 109.64 36.0107 109.64 152.811c0 110.81 -69.1797 144.71 -118.42 149.02c-64.8799 5.66992 -114.149 -60.9902 -114.149 -151c0 -97.6299 52.5801 -157.54 122.93 -150.83z" />
  </g>

</svg>
