<?xml version="1.0" standalone="no"?>
<!DOCTYPE svg PUBLIC "-//W3C//DTD SVG 1.1//EN" "http://www.w3.org/Graphics/SVG/1.1/DTD/svg11.dtd" >
<svg xmlns="http://www.w3.org/2000/svg" xmlns:xlink="http://www.w3.org/1999/xlink" version="1.1" viewBox="-10 0 537 1000">
  <g transform="matrix(1 0 0 -1 0 800)">
   <path fill="currentColor"
d="M279.14 106.31c76.0996 -5.91992 97.5098 47.1602 97.46 47.2002l127.28 -50.2598s-44.8398 -123.47 -226.51 -115.689c-109.02 4.67969 -173.079 39.8301 -221.729 121.521c-33.5303 71.7197 -45.4902 200.81 5.83984 291.819
c40.1699 71.21 116.64 110.71 221.55 110.05c182.89 -1.16016 228.01 -134.28 228.01 -134.28l-129.71 -45.29s-17.9697 59.5801 -85.79 63.9297c-78.7598 5.04004 -119.41 -57.3896 -120.41 -139.46c-1.11035 -92.6504 45.2598 -144.98 104.01 -149.54z" />
  </g>

</svg>
