<?xml version="1.0" standalone="no"?>
<!DOCTYPE svg PUBLIC "-//W3C//DTD SVG 1.1//EN" "http://www.w3.org/Graphics/SVG/1.1/DTD/svg11.dtd" >
<svg xmlns="http://www.w3.org/2000/svg" xmlns:xlink="http://www.w3.org/1999/xlink" version="1.1" viewBox="-10 0 606 1000">
  <g transform="matrix(1 0 0 -1 0 800)">
   <path fill="currentColor"
d="M26.6504 253.17c0 237.95 152.16 267.271 243.75 260.141c81.8896 -6.41992 132.859 -77.9199 132.859 -77.9199s0.129883 229.25 0 259.68l139.86 0.299805l0.0400391 -697.95l-133.36 -0.410156l-6.54004 -0.0498047l0.0498047 66.9102
s-16.5703 -25.3398 -47.25 -46.1602c-63.2197 -42.9004 -153.77 -30.6406 -179.529 -21.4102c-73.3604 26.25 -149.88 98.6299 -149.88 256.87zM175.41 260.16c0 -82.1797 36.7803 -175.17 133.12 -154.26c72.7402 15.7695 91 70.7197 91 152.569
c0 73.8203 -28.0195 134.4 -87.6396 144.96c-85.75 15.1904 -136.48 -47.9893 -136.48 -143.27z" />
  </g>

</svg>
