<?xml version="1.0" standalone="no"?>
<!DOCTYPE svg PUBLIC "-//W3C//DTD SVG 1.1//EN" "http://www.w3.org/Graphics/SVG/1.1/DTD/svg11.dtd" >
<svg xmlns="http://www.w3.org/2000/svg" xmlns:xlink="http://www.w3.org/1999/xlink" version="1.1" viewBox="-10 0 657 1000">
  <g transform="matrix(1 0 0 -1 0 800)">
   <path fill="currentColor"
d="M428.82 389.82c82.8096 -24.8301 164.788 -78.6621 166.858 -196.662c2.07031 -125.04 -105.16 -190.46 -221.51 -202.87v-71.2197h-88.1904v72.04c-61.6904 6.62012 -118.83 28.9805 -156.09 65.0107c-60.4502 58.79 -77.8398 120.06 -77.8398 120.06l139.12 40.1602
s18.21 -79.9004 94.8096 -99.7803v180.11c-85.2998 21.1201 -183.42 54.2402 -209.5 137.04c-45.1299 144.09 50.1006 263.75 209.501 277.83v70.3799h88.1904v-73.29c129.18 -20.29 187.14 -107.64 204.12 -161.88l-133.73 -38.9199s0 20.29 -24.4297 47.2002
c-12.0098 12.8301 -28.1494 22.3604 -45.959 28.1504v-178.04c17.3896 -4.5498 35.5996 -9.50977 54.6494 -15.3193zM285.979 429.578v158.16c-9.51953 -1.66016 -18.2197 -4.56055 -25.6699 -8.28027c-50.9297 -23.6104 -64.1797 -69.1504 -36.8496 -113.45
c9.51953 -16.1504 31.8799 -26.5 62.5195 -36.4297zM449.528 170.389c8.69043 45.5498 -13.6689 81.1504 -75.3594 103.511v-160.65c45.1299 7.45996 70.3896 30.2197 75.3594 57.1396z" />
  </g>

</svg>
