<?xml version="1.0" standalone="no"?>
<!DOCTYPE svg PUBLIC "-//W3C//DTD SVG 1.1//EN" "http://www.w3.org/Graphics/SVG/1.1/DTD/svg11.dtd" >
<svg xmlns="http://www.w3.org/2000/svg" xmlns:xlink="http://www.w3.org/1999/xlink" version="1.1" viewBox="-10 0 620 1000">
  <g transform="matrix(1 0 0 -1 0 800)">
   <path fill="currentColor"
d="M415.41 511.61h142.391v-479.04c0 -187.97 -120.07 -252.979 -293.971 -252.979c-129.59 0 -202.58 49.7695 -227.43 82.4795l85.71 109.63s49.1904 -68.8096 132.33 -71.8291c119.82 -4.34961 156.42 58.1699 160.97 108.68c2.07031 22.3604 0 41.8203 0 50.9307v1.25
s-16.9697 -25.6699 -48.4395 -47.21c-64.1699 -43.4697 -156.51 -31.0498 -183 -21.5303c-74.9404 26.5 -152.78 100.2 -152.78 261.67c0 242.63 155.26 272.85 248.42 265.399c83.6299 -6.62012 135.8 -79.5 135.8 -79.5v72.0498zM318.531 103.37
c74.1104 16.1504 93.1602 72.46 93.1602 155.68c0 75.3496 -28.9805 137.04 -89.4404 147.81c-87.7695 15.7305 -139.52 -48.8594 -139.52 -145.739c0 -84.0498 37.6699 -178.87 135.8 -157.75z" />
  </g>

</svg>
