<?xml version="1.0" standalone="no"?>
<!DOCTYPE svg PUBLIC "-//W3C//DTD SVG 1.1//EN" "http://www.w3.org/Graphics/SVG/1.1/DTD/svg11.dtd" >
<svg xmlns="http://www.w3.org/2000/svg" xmlns:xlink="http://www.w3.org/1999/xlink" version="1.1" viewBox="-10 0 559 1000">
  <g transform="matrix(1 0 0 -1 0 800)">
   <path fill="currentColor"
d="M411.38 359.3c0 0 111.039 -31.6729 111.039 -176.513c0 -115.76 -105.74 -192.27 -248.05 -192.27c-111.42 0 -211.439 45.1699 -242.749 167.77l132.41 39.1201c8.2002 -59.7402 56.4697 -80.2803 117.96 -78.6299c155.22 4.15039 141.81 181.73 6.08984 181.73
h-54.3701l1.12012 119.44l56.4297 0.709961c106.37 0 119.37 166.57 -18.5801 166.57c-69.8096 0 -107.779 -29.5596 -111.959 -95.9697l-134.07 22.8496c22.0303 132.87 126.53 187.271 243.09 187.271c142.55 0 228.25 -83.3496 232.14 -182.47
c4.80957 -122.22 -90.5 -159.609 -90.5 -159.609z" />
  </g>

</svg>
