<?xml version="1.0" standalone="no"?>
<!DOCTYPE svg PUBLIC "-//W3C//DTD SVG 1.1//EN" "http://www.w3.org/Graphics/SVG/1.1/DTD/svg11.dtd" >
<svg xmlns="http://www.w3.org/2000/svg" xmlns:xlink="http://www.w3.org/1999/xlink" version="1.1" viewBox="-10 0 554 1000">
  <g transform="matrix(1 0 0 -1 0 800)">
   <path fill="currentColor"
d="M441.97 321.01c-94.5996 -98.75 -217.192 -90.7598 -238.022 -197.05h302.53l-1.99023 -123.96h-364.39l-70.0898 0.240234l-34.29 0.129883c0 120.86 35.2402 229.83 122.931 289c95.2305 64.2197 174.521 90.7598 202.051 148.229
c33.1299 69.2197 -11.0098 127.93 -60.8994 140.109c-38.4697 9.36035 -88.3594 -4.05957 -109.81 -35.8594c-15.9404 -23.5596 -17.1406 -57.0195 -17.1406 -57.0195l-137.13 27.3301c45.2598 224.7 322.71 238.44 418.47 126.28
c53.3203 -62.4805 90.0107 -210.78 -12.2197 -317.431z" />
  </g>

</svg>
