<?xml version="1.0" standalone="no"?>
<!DOCTYPE svg PUBLIC "-//W3C//DTD SVG 1.1//EN" "http://www.w3.org/Graphics/SVG/1.1/DTD/svg11.dtd" >
<svg xmlns="http://www.w3.org/2000/svg" xmlns:xlink="http://www.w3.org/1999/xlink" version="1.1" viewBox="-10 0 728 1000">
  <g transform="matrix(1 0 0 -1 0 800)">
   <path fill="currentColor"
d="M22 -3q-9 0 -15 2t-6 9q0 6 6 8.5t13 5.5q21 4 37 17.5t27 31.5l196 313q12 19 -4 22l-58 12q-14 3 -14 15q0 6 4.5 9t10.5 3q12 0 30.5 -1t39 -1.5t36.5 -0.5q29 0 66 0.5t75.5 1t71.5 0.5t56 0.5t29 0.5t12 -3t6 -11q2 -19 7 -43t5 -44q0 -5 -1.5 -10.5t-8.5 -5.5
q-5 0 -9.5 5t-7.5 11q-13 33 -27 48.5t-46 15.5h-60q-16 0 -23.5 -7t-7.5 -22v-126q0 -9 3.5 -12.5t11.5 -3.5h43q21 0 34.5 9t23.5 32q3 6 7 10t9 4t7.5 -4.5t1.5 -13.5q-2 -14 -3 -28.5t-1 -28.5q0 -12 1 -25.5t2 -31.5q1 -11 -1 -17t-6 -6q-5 0 -10.5 6t-8.5 15
q-5 21 -14 30.5t-22 9.5h-65q-7 0 -10 -5t-3 -11v-110q0 -36 37 -36h72q28 0 50 19.5t33 49.5q2 6 6 11.5t10 5.5t8.5 -7t2.5 -12q0 -23 -5.5 -42.5t-13.5 -45.5q-2 -8 -7 -12.5t-13 -4.5h-46.5t-60.5 0.5t-67 1t-66 0.5q-17 0 -36 -1t-37.5 -1.5t-35.5 -0.5t-17 10
q0 7 5.5 11t14.5 6q22 5 31 12.5t9 27.5q0 23 -0.5 48.5t-0.5 46.5q0 6 -3 9t-12 3h-101q-7 0 -11.5 -3.5t-7.5 -9.5q-11 -20 -23.5 -40t-26.5 -44q-11 -20 -1 -32t45 -18q20 -5 20 -15q0 -11 -19 -11q-23 0 -45.5 1.5t-46.5 1.5q-21 0 -40 -2t-41 -2zM245 211h79q8 0 9.5 3
t1.5 10v154q0 5 -2 5.5t-5 -4.5l-90 -155q-4 -7 -2 -10t9 -3z" />
  </g>

</svg>
