<?xml version="1.0" standalone="no"?>
<!DOCTYPE svg PUBLIC "-//W3C//DTD SVG 1.1//EN" "http://www.w3.org/Graphics/SVG/1.1/DTD/svg11.dtd" >
<svg xmlns="http://www.w3.org/2000/svg" xmlns:xlink="http://www.w3.org/1999/xlink" version="1.1" viewBox="-10 0 507 1000">
  <g transform="matrix(1 0 0 -1 0 800)">
   <path fill="currentColor"
d="M291 -11q-69 0 -126 27t-91 75t-34 110q0 45 18.5 85t53 72t84.5 50t111 18q21 0 43.5 -3t43 -8.5t33.5 -11.5q8 -2 11.5 -5t4.5 -9q5 -23 6 -46.5t1 -33.5q0 -12 -8 -15.5t-16.5 1t-12.5 14.5q-9 27 -22 45t-34.5 27t-58.5 9q-42 0 -72 -24t-46 -62.5t-16 -83.5
q0 -58 15 -101.5t45.5 -68t77.5 -24.5q29 0 53 9.5t41.5 29t27.5 47.5q4 12 12.5 15.5t16 1t7.5 -12.5q0 -9 -2 -21.5t-5.5 -27t-8.5 -30.5q-2 -7 -7 -12.5t-11 -8.5q-22 -11 -57.5 -19t-77.5 -8z" />
  </g>

</svg>
