<?xml version="1.0" standalone="no"?>
<!DOCTYPE svg PUBLIC "-//W3C//DTD SVG 1.1//EN" "http://www.w3.org/Graphics/SVG/1.1/DTD/svg11.dtd" >
<svg xmlns="http://www.w3.org/2000/svg" xmlns:xlink="http://www.w3.org/1999/xlink" version="1.1" viewBox="-10 0 480 1000">
  <g transform="matrix(1 0 0 -1 0 800)">
   <path fill="currentColor"
d="M269 -147q-66 0 -118.5 27.5t-83.5 74.5t-31 106q0 57 31.5 106.5t89 80.5t134.5 31q29 0 58.5 -6t53.5 -16q8 -3 11.5 -7t4.5 -10q4 -22 4.5 -41t1.5 -34q0 -7 -6.5 -9.5t-13.5 0.5t-10 10q-2 12 -9.5 25t-14.5 20q-8 11 -29.5 21t-60.5 10q-41 0 -69.5 -22.5t-43 -60
t-14.5 -81.5q0 -55 14 -97t43.5 -66t73.5 -24q27 0 49.5 8t40 24.5t27.5 43.5q4 12 16.5 12t12.5 -11q0 -17 -4.5 -35t-11.5 -39q-2 -6 -8.5 -11.5t-14.5 -8.5q-21 -9 -52.5 -15t-70.5 -6z" />
  </g>

</svg>
