<?xml version="1.0" standalone="no"?>
<!DOCTYPE svg PUBLIC "-//W3C//DTD SVG 1.1//EN" "http://www.w3.org/Graphics/SVG/1.1/DTD/svg11.dtd" >
<svg xmlns="http://www.w3.org/2000/svg" xmlns:xlink="http://www.w3.org/1999/xlink" version="1.1" viewBox="-10 0 565 1000">
  <g transform="matrix(1 0 0 -1 0 800)">
   <path fill="currentColor"
d="M327 -11q-57 0 -107.5 16.5t-88.5 46.5t-59.5 72.5t-21.5 92.5q0 48 20.5 91.5t59 77.5t93 53.5t122.5 19.5q22 0 46.5 -4t47 -9.5t38.5 -11.5q8 -3 11.5 -5.5t5.5 -9.5q5 -24 6 -50t1 -36q0 -12 -7 -14.5t-15.5 1.5t-12.5 12q-10 30 -25 49.5t-39.5 29.5t-65.5 10
q-47 0 -80.5 -26t-51.5 -68t-18 -90q0 -61 17.5 -108.5t51.5 -74t86 -26.5q32 0 58.5 10.5t46.5 31.5t32 51q6 15 20.5 16t14.5 -12q0 -10 -2.5 -23t-6.5 -29t-9 -34q-2 -6 -7.5 -12t-11.5 -9q-25 -12 -63.5 -20.5t-85.5 -8.5zM287 517q-10 0 -10 11q0 4 1 9t4 12
q7 19 20.5 48t27 56.5t21.5 41.5q6 13 15.5 18t23.5 5q22 0 38.5 -5.5t16.5 -17.5q0 -6 -2 -11t-8 -12q-16 -21 -37.5 -46t-43 -49t-39.5 -42t-28 -18z" />
  </g>

</svg>
