<?xml version="1.0" standalone="no"?>
<!DOCTYPE svg PUBLIC "-//W3C//DTD SVG 1.1//EN" "http://www.w3.org/Graphics/SVG/1.1/DTD/svg11.dtd" >
<svg xmlns="http://www.w3.org/2000/svg" xmlns:xlink="http://www.w3.org/1999/xlink" version="1.1" viewBox="-10 0 622 1000">
  <g transform="matrix(1 0 0 -1 0 800)">
   <path fill="currentColor"
d="M50 -4q-7 0 -13.5 4.5t-6.5 9.5q0 7 6.5 11.5t13.5 5.5q26 4 39 14t13 30v296q0 25 -9.5 37t-38.5 18q-8 2 -14 6.5t-6 11.5q0 6 6 9.5t11 3.5q18 0 37.5 -1t38.5 -2.5t31 -1.5q11 0 32.5 1.5t43.5 3t36 1.5q90 0 155.5 -20t101 -68t35.5 -133q0 -75 -40.5 -128
t-106.5 -81t-147 -28q-18 0 -39 1.5t-41 2.5t-36 1q-15 0 -33 -1t-35.5 -2.5t-33.5 -1.5zM287 30q45 0 75.5 24.5t46.5 66t16 91.5q0 61 -16 108t-49 73.5t-84 26.5q-21 0 -34.5 -13t-13.5 -33v-285q0 -26 14 -42.5t45 -16.5z" />
  </g>

</svg>
