<?xml version="1.0" standalone="no"?>
<!DOCTYPE svg PUBLIC "-//W3C//DTD SVG 1.1//EN" "http://www.w3.org/Graphics/SVG/1.1/DTD/svg11.dtd" >
<svg xmlns="http://www.w3.org/2000/svg" xmlns:xlink="http://www.w3.org/1999/xlink" version="1.1" viewBox="-10 0 772 1000">
  <g transform="matrix(1 0 0 -1 0 800)">
   <path fill="currentColor"
d="M58 310q-10 0 -14.5 9t-4.5 16q0 11 7.5 18t19.5 7h303q8 0 13.5 -4.5t5.5 -10.5q0 -1 -0.5 -2t-0.5 -2q-4 -12 -13.5 -21.5t-23.5 -9.5h-292zM379 -7q-27 0 -65 2t-76.5 3.5t-63.5 1.5q-20 0 -40.5 -0.5t-42.5 -2t-47 -1.5q-9 0 -16 3.5t-7 10.5q0 9 6.5 13t19.5 6
q38 8 52 22t14 47v452q0 34 -13.5 48t-52.5 22q-13 2 -19.5 6.5t-6.5 13.5q0 7 7 10.5t16 3.5q24 0 46 -0.5t43.5 -2t43.5 -1.5q15 0 40.5 1.5t55 3t55.5 3t42 1.5q84 0 151 -24t114.5 -67t72.5 -102t25 -128t-25 -131t-71.5 -110t-112 -76t-145.5 -28zM364 39
q72 0 122.5 34.5t76.5 97t26 144.5q0 68 -17.5 123.5t-49 94t-75 59.5t-94.5 21q-36 0 -60.5 -2t-37 -11.5t-12.5 -31.5v-440q0 -35 15.5 -54.5t43 -27t62.5 -7.5z" />
  </g>

</svg>
