<?xml version="1.0" standalone="no"?>
<!DOCTYPE svg PUBLIC "-//W3C//DTD SVG 1.1//EN" "http://www.w3.org/Graphics/SVG/1.1/DTD/svg11.dtd" >
<svg xmlns="http://www.w3.org/2000/svg" xmlns:xlink="http://www.w3.org/1999/xlink" version="1.1" viewBox="-10 0 498 1000">
  <g transform="matrix(1 0 0 -1 0 800)">
   <path fill="currentColor"
d="M49 -3q-6 0 -11.5 4.5t-5.5 10.5q0 8 6.5 12t14.5 6q22 5 34 13t12 31v291q0 25 -9 37t-37 18q-8 2 -13.5 6.5t-5.5 11.5t6 11t12 4q14 0 30 -1l32 -2t28 -1q36 0 76 0.5t76.5 1t63.5 1t37 0.5q5 0 11.5 -3t6.5 -12q1 -27 6.5 -52t5.5 -42q0 -5 -2.5 -10t-6.5 -5t-9.5 4
t-9.5 13q-14 32 -27 50t-45 18h-69q-11 0 -21 -7t-10 -22v-117q0 -9 5 -15t13 -6h57q17 0 26 10t17 34q4 8 8 11.5t9 3.5q4 0 7.5 -5t1.5 -13q-2 -18 -2.5 -32.5t-0.5 -29.5t1 -26.5t2 -31.5q2 -10 -1 -16t-7 -6q-6 0 -11 7t-8 14q-5 22 -14 31t-22 9q-15 1 -32 1h-31
q-10 0 -14 -4t-4 -12v-117q0 -20 6 -26.5t25 -6.5h78q32 0 56 21t34 50q2 6 6 10.5t10 4.5t8.5 -5.5t2.5 -11.5q-1 -23 -7.5 -45.5t-13.5 -49.5q-3 -7 -9 -12t-15 -5q-19 0 -48.5 0.5t-63.5 1t-69 1t-68 0.5q-15 0 -34.5 -1t-38.5 -2t-35 -1zM251 534q-33 0 -56 12t-37 30
t-20.5 38t-6.5 36q0 15 6.5 23t14.5 8t12.5 -6t6.5 -15q5 -25 24.5 -38t55.5 -13t55.5 13t24.5 38q2 9 6.5 15t12.5 6q9 0 15 -8t6 -23q0 -16 -6.5 -36t-20.5 -38t-37 -30t-56 -12z" />
  </g>

</svg>
