<?xml version="1.0" standalone="no"?>
<!DOCTYPE svg PUBLIC "-//W3C//DTD SVG 1.1//EN" "http://www.w3.org/Graphics/SVG/1.1/DTD/svg11.dtd" >
<svg xmlns="http://www.w3.org/2000/svg" xmlns:xlink="http://www.w3.org/1999/xlink" version="1.1" viewBox="-10 0 445 1000">
  <g transform="matrix(1 0 0 -1 0 800)">
   <path fill="currentColor"
d="M274 897q-2 0 -6.5 1t-11.5 5q-26 16 -56.5 34t-58.5 35q-12 7 -12 15q0 6 9.5 12.5t21 12t16.5 6.5q16 2 25 -8q19 -23 36.5 -46t36.5 -45q8 -8 8 -15q0 -2 -2 -4.5t-6 -2.5zM50 444q-16 0 -16 10q0 12 17 15q22 4 32 12.5t10 26.5v283q0 21 -10 30t-32 13q-17 3 -17 13
q0 12 16 12q15 0 40 -2t45 -2q32 0 66 0.5t65 0.5t55 0.5t37 0.5q6 0 10.5 -3.5t5.5 -11.5q5 -22 7.5 -38.5t2.5 -33.5q0 -11 -8 -11q-5 0 -9 2.5t-6 8.5q-9 22 -17 34t-20.5 16t-36.5 4h-50q-16 0 -25.5 -8t-9.5 -22l-1 -110q0 -7 5 -10.5t14 -3.5h56q17 0 26 9.5t14 23.5
q3 7 6.5 9.5t7.5 2.5q10 0 10 -13q0 -11 -1.5 -25.5t-1.5 -22.5q0 -10 0.5 -20.5t1.5 -28.5q1 -9 -1 -12.5t-6 -3.5q-12 0 -17 15q-6 22 -15.5 26.5t-23.5 7.5q-9 1 -19.5 2t-20.5 1q-16 0 -26 -6t-9 -17v-50t1 -50q1 -19 9 -28.5t27 -9.5h63q36 0 51.5 16t30.5 46q4 7 11 7
q5 0 8.5 -1.5t3.5 -5.5q0 -15 -5.5 -39.5t-11.5 -42.5q-2 -6 -5.5 -10.5t-12.5 -4.5q-16 0 -42 0.5t-57 1t-63.5 1t-62.5 0.5q-16 0 -32.5 -1l-33 -2t-30.5 -1z" />
  </g>

</svg>
