<?xml version="1.0" standalone="no"?>
<!DOCTYPE svg PUBLIC "-//W3C//DTD SVG 1.1//EN" "http://www.w3.org/Graphics/SVG/1.1/DTD/svg11.dtd" >
<svg xmlns="http://www.w3.org/2000/svg" xmlns:xlink="http://www.w3.org/1999/xlink" version="1.1" viewBox="-10 0 610 1000">
  <g transform="matrix(1 0 0 -1 0 800)">
   <path fill="currentColor"
d="M50 276q-6 0 -11.5 3t-5.5 8t5 8t13 4q24 5 31.5 13t7.5 27v285q0 21 -6 29t-31 12q-19 3 -19 15q0 5 5.5 7.5t12.5 2.5q17 0 31.5 -1t30 -2t29.5 -1q16 0 33 0.5l34 1t32 0.5q16 0 16 -9q0 -5 -5 -8t-13 -5q-24 -5 -33 -14.5t-9 -27.5v-112q0 -9 11 -9q24 0 50 -1t52 -1
q17 0 40 1t44 1q9 0 9 9l-1 112q0 12 -3 19t-11.5 12t-27.5 11q-7 2 -12.5 5t-5.5 9q0 8 16 8t33.5 -0.5l35 -1t33.5 -0.5q14 0 29 1t30.5 2t31.5 1q6 0 11 -2.5t5 -7.5q0 -10 -18 -14q-25 -4 -31.5 -13t-6.5 -29v-285q1 -17 8 -26t28 -14q20 -3 20 -13q0 -5 -6 -7.5
t-12 -2.5q-14 0 -29.5 1t-31 1.5t-30.5 0.5t-32 -0.5t-33.5 -1t-32.5 -0.5q-18 0 -18 10q0 6 5 8.5t14 3.5q21 5 31.5 14.5t10.5 26.5v118q0 8 -8 8q-26 0 -54 1t-48 1q-17 0 -40.5 -1t-46.5 -1q-9 0 -9 -9v-116q0 -15 11 -26.5t32 -15.5q9 -1 14 -4t5 -9q0 -9 -17 -9
q-15 0 -32.5 0.5t-34.5 1t-33 0.5q-14 0 -30.5 -0.5t-32 -1.5t-30.5 -1z" />
  </g>

</svg>
