<?xml version="1.0" standalone="no"?>
<!DOCTYPE svg PUBLIC "-//W3C//DTD SVG 1.1//EN" "http://www.w3.org/Graphics/SVG/1.1/DTD/svg11.dtd" >
<svg xmlns="http://www.w3.org/2000/svg" xmlns:xlink="http://www.w3.org/1999/xlink" version="1.1" viewBox="-10 0 526 1000">
  <g transform="matrix(1 0 0 -1 0 800)">
   <path fill="currentColor"
d="M200 -4q-9 0 -16 3.5t-7 9.5q0 15 25 20q38 8 55 22t17 46v454q0 33 -14 47t-53 22q-25 5 -25 21q0 6 7 9.5t16 3.5q24 0 47 -1t44.5 -2t43.5 -1q21 0 42.5 1t44.5 2t47 1q10 0 16 -3.5t6 -10.5q0 -8 -6.5 -12.5t-18.5 -7.5q-40 -10 -54 -24t-14 -46v-452q0 -31 16.5 -45
t54.5 -24q13 -3 19.5 -7t6.5 -12q0 -7 -6 -10t-16 -3q-24 0 -48 1t-46.5 2t-43.5 1q-22 0 -45 -1t-47 -2.5t-48 -1.5zM28 461q-8 0 -9.5 3.5t-1.5 10.5t5 32.5t12.5 57.5t15.5 60.5t14 42.5q5 11 14.5 16t17.5 5q17 -1 32.5 -17t13.5 -29q0 -4 -9.5 -24t-22.5 -46t-27 -50.5
t-24 -37.5q-6 -8 -14.5 -16t-16.5 -8z" />
  </g>

</svg>
