<?xml version="1.0" standalone="no"?>
<!DOCTYPE svg PUBLIC "-//W3C//DTD SVG 1.1//EN" "http://www.w3.org/Graphics/SVG/1.1/DTD/svg11.dtd" >
<svg xmlns="http://www.w3.org/2000/svg" xmlns:xlink="http://www.w3.org/1999/xlink" version="1.1" viewBox="-10 0 496 1000">
  <g transform="matrix(1 0 0 -1 0 800)">
   <path fill="currentColor"
d="M50 -3q-4 0 -9.5 4t-5.5 9q0 4 5 8.5t14 7.5q24 7 37 14.5t13 30.5v291q0 25 -10 38t-41 21q-8 2 -13.5 6.5t-5.5 12.5t6.5 10.5t11.5 2.5q17 0 36.5 -1t39.5 -2t35 -1q16 0 35.5 1t40 1.5t36.5 0.5q6 0 11 -3t5 -9q0 -8 -6 -12.5t-13 -6.5q-25 -5 -34 -20t-9 -41v-281
q0 -22 7.5 -29t21.5 -7h73q23 0 38.5 6.5t28.5 24t28 48.5q3 6 7.5 10.5t10.5 4.5q8 0 10 -5.5t2 -11.5t-3.5 -21t-9 -33t-9.5 -33.5t-5 -20.5t-6 -10t-12 -5q-18 0 -48.5 1t-66 1.5t-72 1t-68.5 0.5q-23 0 -48.5 -2t-57.5 -2zM361 298q-4 0 -7 7.5t-3 17.5q0 3 1.5 15.5
t2 26.5t0.5 22q0 32 -3.5 50t-3.5 32q0 12 11.5 24.5t27.5 21t30 8.5t16.5 -10t2.5 -24q0 -20 -7 -50.5t-17.5 -60.5t-22.5 -51q-15 -29 -28 -29z" />
  </g>

</svg>
