<?xml version="1.0" standalone="no"?>
<!DOCTYPE svg PUBLIC "-//W3C//DTD SVG 1.1//EN" "http://www.w3.org/Graphics/SVG/1.1/DTD/svg11.dtd" >
<svg xmlns="http://www.w3.org/2000/svg" xmlns:xlink="http://www.w3.org/1999/xlink" version="1.1" viewBox="-10 0 496 1000">
  <g transform="matrix(1 0 0 -1 0 800)">
   <path fill="currentColor"
d="M179 198l-32 43l138 78q9 3 15.5 5t12.5 2q27 0 27 -18q0 -13 -3.5 -18.5t-11.5 -9.5zM47 147q-11 0 -21 5.5t-10 15.5q0 6 3.5 12t10.5 10l117 65l32 -43l-102 -57q-15 -8 -30 -8zM50 -3q-4 0 -9.5 4t-5.5 9q0 4 5 8.5t14 7.5q24 7 37 14.5t13 30.5v291q0 25 -10 38
t-41 21q-8 2 -13.5 6.5t-5.5 12.5t6.5 10.5t11.5 2.5q17 0 36.5 -1t39.5 -2t35 -1q16 0 35.5 1t40 1.5t36.5 0.5q6 0 11 -3t5 -9q0 -8 -6 -12.5t-13 -6.5q-25 -5 -34 -20t-9 -41v-281q0 -22 7.5 -29t21.5 -7h73q23 0 38.5 6.5t28.5 24t28 48.5q3 6 7.5 10.5t10.5 4.5
q8 0 10 -5.5t2 -11.5t-3.5 -21t-9 -33t-9.5 -33.5t-5 -20.5t-6 -10t-12 -5q-18 0 -48.5 1t-66 1.5t-72 1t-68.5 0.5q-23 0 -48.5 -2t-57.5 -2z" />
  </g>

</svg>
