<?xml version="1.0" standalone="no"?>
<!DOCTYPE svg PUBLIC "-//W3C//DTD SVG 1.1//EN" "http://www.w3.org/Graphics/SVG/1.1/DTD/svg11.dtd" >
<svg xmlns="http://www.w3.org/2000/svg" xmlns:xlink="http://www.w3.org/1999/xlink" version="1.1" viewBox="-10 0 598 1000">
  <g transform="matrix(1 0 0 -1 0 800)">
   <path fill="currentColor"
d="M59 254q-9 -3 -18 -1t-9 10q0 15 5.5 27t15.5 16l85 30l58 13l177 63q8 2 16 -0.5t8 -11.5q0 -17 -6.5 -28.5t-20.5 -16.5l-174 -61l-57 -12zM46 -5q-11 0 -17 4.5t-6 9.5q0 8 7 12.5t14 6.5q36 9 53 22.5t17 44.5v460q0 23 -5.5 35t-19 18.5t-39.5 11.5t-26 21
q0 6 7 9.5t16 3.5q25 0 47.5 -1t43.5 -2t42 -1q23 0 46.5 1t48 2t47.5 1q10 0 16 -3.5t6 -10.5q0 -8 -6.5 -12.5t-18.5 -7.5q-39 -10 -57.5 -21.5t-18.5 -40.5v-457q0 -29 13 -42.5t49 -13.5h109q23 0 42 8t31 20q18 16 30 34t23 42q7 15 13 23t12 8q7 0 10 -6.5t3 -13.5
q0 -1 -1 -6t-1 -8q-8 -29 -13.5 -50t-9 -40.5t-6.5 -42.5q-1 -7 -4 -12.5t-12 -5.5q-30 0 -72 1t-89 1.5t-94.5 1.5t-89.5 1q-22 0 -50.5 -1t-53.5 -2.5t-36 -1.5z" />
  </g>

</svg>
