<?xml version="1.0" standalone="no"?>
<!DOCTYPE svg PUBLIC "-//W3C//DTD SVG 1.1//EN" "http://www.w3.org/Graphics/SVG/1.1/DTD/svg11.dtd" >
<svg xmlns="http://www.w3.org/2000/svg" xmlns:xlink="http://www.w3.org/1999/xlink" version="1.1" viewBox="-10 0 748 1000">
  <g transform="matrix(1 0 0 -1 0 800)">
   <path fill="currentColor"
d="M341 -9q-12 0 -23 23q-37 72 -69 140.5t-65 139.5q-6 12 -9.5 11t-5.5 -12q-4 -22 -8 -58.5t-7 -77t-5 -74.5q0 -20 10.5 -36t38.5 -18q10 -1 16 -5.5t6 -11.5q0 -6 -6 -9.5t-11 -3.5q-21 0 -30 1t-16.5 1.5t-22.5 0.5q-17 0 -34 -1t-32 -2t-26 -1q-6 0 -11.5 3.5
t-5.5 10.5q0 8 7.5 10.5t13.5 3.5q21 5 35 19t18 40q3 18 8 49t11 67.5t11 72.5t8.5 64t4.5 41q0 22 -14.5 30.5t-42.5 14.5q-9 2 -16 6.5t-7 11.5q0 6 6 9.5t12 3.5q20 0 36 -0.5t35.5 -1.5t47.5 -1q14 0 20 -2t11 -5q6 -8 10 -13t9 -13l124 -255q4 -9 8 -9.5t7 7.5
q41 90 67.5 151t43.5 102q5 11 10 21t10 10l31 1q34 1 65.5 4t53.5 3q8 0 14.5 -3t6.5 -10t-6 -12t-16 -7q-27 -5 -41 -18.5t-13 -41.5q2 -40 3 -69t2 -53.5t2 -48.5t3 -52.5t5 -66.5q2 -19 15 -29t36 -14q6 -1 13.5 -5t7.5 -12q0 -6 -7 -9.5t-13 -3.5q-16 0 -36.5 1
t-41 1.5t-35.5 0.5q-17 0 -37.5 -0.5t-41 -2t-36.5 -1.5q-6 0 -12.5 3.5t-6.5 9.5q0 8 6.5 12t14.5 5q24 4 36 13.5t12 31.5q-1 34 -1.5 70t-2 74t-3.5 76q-1 10 -4.5 9.5t-8.5 -9.5l-120 -277q-6 -14 -11.5 -19.5t-10.5 -5.5z" />
  </g>

</svg>
