<?xml version="1.0" standalone="no"?>
<!DOCTYPE svg PUBLIC "-//W3C//DTD SVG 1.1//EN" "http://www.w3.org/Graphics/SVG/1.1/DTD/svg11.dtd" >
<svg xmlns="http://www.w3.org/2000/svg" xmlns:xlink="http://www.w3.org/1999/xlink" version="1.1" viewBox="-10 0 983 1000">
  <g transform="matrix(1 0 0 -1 0 800)">
   <path fill="currentColor"
d="M376 -14q-68 0 -130 23.5t-109.5 67t-75 104t-27.5 134.5q0 68 22.5 130.5t67 111.5t110 78t151.5 29q54 0 103.5 -15t91.5 -42l-60 -115q0 50 -21 76.5t-55 36t-73 9.5q-95 0 -143.5 -73t-48.5 -197q0 -91 24 -161t71 -109t114 -39q62 0 97 16.5t35 71.5l69 -72
q-41 -31 -94.5 -48t-118.5 -17zM451 -5q-11 0 -17 4t-6 10q0 13 26 19q35 9 50.5 22.5t15.5 46.5v453q0 34 -13.5 48t-49.5 22q-15 3 -21 8.5t-6 11.5q0 7 7 10.5t17 3.5q30 0 56 -1t51 -2t52 -1q46 0 97.5 1t92.5 1q33 1 55 3t26 2q6 0 13.5 -3t8.5 -12q4 -33 10 -65t6 -56
q0 -9 -4 -13.5t-9 -4.5t-9.5 3.5t-7.5 10.5q-8 23 -15 40t-16 26q-13 14 -30 22t-41 8h-93q-17 0 -32.5 -10.5t-15.5 -29.5v-196q0 -11 6.5 -17t16.5 -6h91q27 0 38.5 15t19.5 41q7 20 20 20q4 0 8.5 -5.5t3.5 -14.5q0 -10 -1.5 -24t-2 -28t-0.5 -25q0 -12 0.5 -27
t1.5 -29.5t1 -24.5q1 -11 -1.5 -17t-7.5 -6q-17 0 -24 28q-8 28 -18.5 42t-30.5 14h-93q-14 0 -21 -5t-7 -19v-190q0 -33 14 -46t43 -13h82q26 0 46 5t35 16q17 12 30.5 32.5t26.5 45.5q4 8 8 10.5t10 2.5q6 -1 8 -6t2 -11q0 -14 -5 -36t-12.5 -45.5t-13.5 -43.5
q-3 -7 -8 -10.5t-12 -3.5q-24 0 -61 0.5t-81.5 1.5t-90.5 1.5t-88 0.5q-21 0 -42.5 -1t-43.5 -2.5t-45 -1.5z" />
  </g>

</svg>
