<?xml version="1.0" standalone="no"?>
<!DOCTYPE svg PUBLIC "-//W3C//DTD SVG 1.1//EN" "http://www.w3.org/Graphics/SVG/1.1/DTD/svg11.dtd" >
<svg xmlns="http://www.w3.org/2000/svg" xmlns:xlink="http://www.w3.org/1999/xlink" version="1.1" viewBox="-10 0 865 1000">
  <g transform="matrix(1 0 0 -1 0 800)">
   <path fill="currentColor"
d="M470 -14q-68 0 -130 23.5t-109.5 67t-75 104t-27.5 134.5q0 68 22.5 130.5t67 111.5t110 78t151.5 29q68 0 129.5 -23.5t109.5 -67t75.5 -104t27.5 -134.5q0 -67 -22.5 -130t-67 -112t-110 -78t-151.5 -29zM487 30q63 0 105.5 32t64 89.5t21.5 132.5q0 64 -13 124
t-40 107.5t-67.5 75.5t-96.5 28q-63 0 -105.5 -32t-63.5 -89t-21 -132q0 -64 13 -124t39.5 -108t67 -76t96.5 -28zM19 459q-8 0 -9.5 3.5t-1.5 10.5t5 32.5t12.5 57.5t15.5 60.5t14 42.5q5 11 14.5 16t17.5 5q17 -1 32.5 -17t13.5 -29q0 -4 -9.5 -24t-22.5 -46t-27 -50.5
t-24 -37.5q-6 -8 -14.5 -16t-16.5 -8z" />
  </g>

</svg>
