<?xml version="1.0" standalone="no"?>
<!DOCTYPE svg PUBLIC "-//W3C//DTD SVG 1.1//EN" "http://www.w3.org/Graphics/SVG/1.1/DTD/svg11.dtd" >
<svg xmlns="http://www.w3.org/2000/svg" xmlns:xlink="http://www.w3.org/1999/xlink" version="1.1" viewBox="-10 0 453 1000">
  <g transform="matrix(1 0 0 -1 0 800)">
   <path fill="currentColor"
d="M200 -11q-36 0 -64.5 6.5t-53.5 16.5q-7 3 -11 6.5t-6 8.5q-6 12 -9.5 29t-5.5 37t-2 42q0 8 4.5 16t11.5 8q12 0 17 -8.5t8 -15.5q12 -27 28.5 -51.5t39 -40.5t51.5 -16q38 0 54 18t16 40q0 20 -11.5 36t-41.5 34l-72 42q-38 24 -62.5 53.5t-24.5 76.5q0 43 26.5 72
t67 44t83.5 15q32 0 59.5 -5t42.5 -10q9 -2 13.5 -6t7.5 -16q4 -15 4 -36t1 -48q0 -5 -5 -12t-12 -7q-6 0 -13 6t-9 14q-7 31 -22.5 49.5t-34 26.5t-36.5 8q-32 0 -49 -16.5t-17 -37.5q0 -22 14.5 -37.5t42.5 -32.5l82 -48q35 -20 55 -52t20 -71q0 -31 -21 -63.5
t-62.5 -53.5t-103.5 -21zM235 539q-9 0 -15.5 8.5t-15.5 23.5q-9 14 -21 34.5t-24.5 41.5t-22 39.5t-14.5 30.5q-6 13 -4.5 21.5t13.5 8.5q7 0 16.5 -8t20.5 -20t27.5 -32.5t34.5 -41.5q4 -3 5.5 -3t4.5 3q18 21 34.5 41.5t26.5 32.5q11 12 20.5 20t16.5 8q9 0 12 -8.5
t-3 -21.5q-4 -12 -14.5 -30.5t-23 -40t-24 -42t-21.5 -34.5q-7 -14 -14 -22.5t-15 -8.5z" />
  </g>

</svg>
