<?xml version="1.0" standalone="no"?>
<!DOCTYPE svg PUBLIC "-//W3C//DTD SVG 1.1//EN" "http://www.w3.org/Graphics/SVG/1.1/DTD/svg11.dtd" >
<svg xmlns="http://www.w3.org/2000/svg" xmlns:xlink="http://www.w3.org/1999/xlink" version="1.1" viewBox="-10 0 494 1000">
  <g transform="matrix(1 0 0 -1 0 800)">
   <path fill="currentColor"
d="M214 -15q-43 0 -81.5 11t-70.5 33q-6 5 -11 10.5t-8 12.5q-8 25 -11 61.5t-2 70.5q0 7 5.5 10t13.5 3t12.5 -2.5t6.5 -9.5q22 -75 64 -117t95 -42q33 0 56 15t35 39t12 52q0 35 -12.5 58t-37.5 41.5t-63 39.5q-41 24 -80 50.5t-64 63t-25 90.5q0 56 28.5 98.5t79.5 66.5
t118 24q37 0 69 -8t51 -16q11 -4 16.5 -10t8.5 -19q6 -21 10.5 -50t4.5 -61q0 -12 -18 -12q-8 0 -16 4t-10 11q-18 58 -49.5 88t-77.5 30q-31 0 -53 -10.5t-35 -32t-13 -55.5q0 -26 17.5 -48t49 -43t70.5 -46q48 -28 80.5 -56.5t49.5 -63t17 -81.5q0 -66 -29 -110.5t-81 -67
t-122 -22.5zM132 694q-18 0 -18 11q0 8 9 15l102 90q16 15 25 20.5t22 5.5t22 -5.5t26 -20.5l101 -90q8 -6 8 -15q0 -12 -16 -12q-6 0 -22.5 5.5t-37 14t-39.5 17t-30 15.5q-7 4 -12 4t-12 -4q-11 -7 -30 -15t-39.5 -16.5t-36.5 -14t-22 -5.5z" />
  </g>

</svg>
