<?xml version="1.0" standalone="no"?>
<!DOCTYPE svg PUBLIC "-//W3C//DTD SVG 1.1//EN" "http://www.w3.org/Graphics/SVG/1.1/DTD/svg11.dtd" >
<svg xmlns="http://www.w3.org/2000/svg" xmlns:xlink="http://www.w3.org/1999/xlink" version="1.1" viewBox="-10 0 753 1000">
  <g transform="matrix(1 0 0 -1 0 800)">
   <path fill="currentColor"
d="M373 -14q-93 0 -155 33t-93 92t-31 138v292q0 30 -13.5 51t-35.5 27q-30 8 -30 22q0 6 8 9.5t20 3.5q28 0 58.5 -2t59.5 -2q26 0 59.5 1.5t57.5 1.5q12 0 19.5 -3t7.5 -10q0 -10 -12.5 -14.5t-29.5 -11.5q-14 -6 -26.5 -24.5t-12.5 -50.5v-269q0 -72 24 -118.5t64 -68.5
t90 -22q95 0 141 60t46 172v59t-0.5 70.5t-1.5 69.5q0 39 -5.5 63.5t-15.5 39t-28 22.5q-10 4 -23.5 9t-13.5 13t8 11t21 3q32 0 49.5 -1t40.5 -1q17 0 30.5 0.5t26.5 1.5t30 1q12 0 19 -2.5t7 -10.5q0 -14 -29 -21q-31 -8 -43 -29t-14 -55q-4 -79 -5.5 -145t-2.5 -133
q-1 -80 -36.5 -141.5t-95.5 -96t-134 -34.5zM358 683q-10 1 -10 8t9 19q23 32 46.5 62.5t49.5 60.5q12 14 31 12q8 0 24.5 -5t30 -12.5t12.5 -15.5q-2 -9 -17 -20q-35 -26 -76.5 -51.5t-76.5 -49.5q-8 -5 -14.5 -7t-8.5 -1z" />
  </g>

</svg>
