<?xml version="1.0" standalone="no"?>
<!DOCTYPE svg PUBLIC "-//W3C//DTD SVG 1.1//EN" "http://www.w3.org/Graphics/SVG/1.1/DTD/svg11.dtd" >
<svg xmlns="http://www.w3.org/2000/svg" xmlns:xlink="http://www.w3.org/1999/xlink" version="1.1" viewBox="-10 0 589 1000">
  <g transform="matrix(1 0 0 -1 0 800)">
   <path fill="currentColor"
d="M171 -2q-5 0 -11 3.5t-6 9.5q0 8 6 11.5t13 4.5q26 5 40 12.5t14 29.5v116q0 49 -8 91t-24 73t-39 48.5t-53 17.5q-16 0 -30.5 -3.5t-28.5 -12.5q-6 -2 -10 -3t-7 -1q-5 0 -8 2.5t-3 9.5t4.5 12.5t10.5 9.5q10 9 36 23t57 14q36 0 63 -11t47 -29.5t33 -41.5t19 -48
q1 -4 4 -4.5t4 4.5q9 34 30 63t53.5 47.5t75.5 18.5q23 0 42 -7t32 -16t18 -14q8 -6 13 -14t5 -16q0 -15 -11 -15q-2 0 -5.5 1t-7.5 3q-14 9 -30 18.5t-35 9.5q-29 0 -51.5 -17.5t-38 -48t-23.5 -68.5t-8 -79v-132q0 -21 14 -29.5t39 -13.5q5 -1 11.5 -4.5t6.5 -11.5
q0 -6 -5 -9t-10 -3q-16 0 -38 1t-44.5 1.5t-39.5 0.5q-16 0 -37 -0.5t-41.5 -2t-37.5 -1.5z" />
  </g>

</svg>
