<?xml version="1.0" standalone="no"?>
<!DOCTYPE svg PUBLIC "-//W3C//DTD SVG 1.1//EN" "http://www.w3.org/Graphics/SVG/1.1/DTD/svg11.dtd" >
<svg xmlns="http://www.w3.org/2000/svg" xmlns:xlink="http://www.w3.org/1999/xlink" version="1.1" viewBox="-10 0 549 1000">
  <g transform="matrix(1 0 0 -1 0 800)">
   <path fill="currentColor"
d="M30 -142q-7 0 -13.5 2.5t-6.5 8.5t5.5 8t12.5 4q20 6 40.5 16.5t36.5 26.5l90 119q10 13 9.5 24t-9.5 21l-95 119q-12 16 -27 28t-31 15l-11 5.5t-5 7.5q0 10 14 10q30 0 60.5 -2t61.5 -2q26 0 51 2t47 2q7 0 13 -2t6 -7t-6 -8.5t-13 -5.5q-19 -3 -27 -10t-8 -16
q0 -7 2.5 -12.5t5.5 -9.5l54 -69q7 -9 14 -10t15 9l57 74q4 5 6.5 9.5t2.5 8.5q0 8 -8.5 16t-26.5 10q-7 2 -14.5 5t-7.5 9q0 4 6.5 6.5t13.5 2.5q21 0 42 -1.5t40 -1.5q21 0 35.5 2t34.5 2q8 0 14.5 -2t6.5 -8q0 -5 -6 -7.5t-14 -4.5q-15 -5 -30.5 -16t-27.5 -25l-98 -111
q-6 -8 -7 -16t10 -22l109 -140q11 -14 24 -24t27 -14q8 -2 16 -5.5t8 -9.5q0 -5 -5 -7.5t-12 -2.5q-36 0 -65 2t-59 2h-31t-34 -1t-31 -1q-6 0 -12.5 2.5t-6.5 6.5q0 6 6.5 9.5t13.5 4.5q14 3 26.5 8t12.5 16q0 5 -3 9.5t-6 9.5l-66 85q-8 11 -14.5 12t-16.5 -12l-66 -89
q-8 -10 -7 -19q0 -8 8.5 -14t23.5 -7q7 -2 13.5 -5.5t6.5 -8.5t-6 -7t-14 -2q-20 0 -41 1t-42 1q-19 0 -35.5 -2t-36.5 -2z" />
  </g>

</svg>
