<?xml version="1.0" standalone="no"?>
<!DOCTYPE svg PUBLIC "-//W3C//DTD SVG 1.1//EN" "http://www.w3.org/Graphics/SVG/1.1/DTD/svg11.dtd" >
<svg xmlns="http://www.w3.org/2000/svg" xmlns:xlink="http://www.w3.org/1999/xlink" version="1.1" viewBox="-10 0 572 1000">
  <g transform="matrix(1 0 0 -1 0 800)">
   <path fill="currentColor"
d="M161 -4q-8 0 -14.5 4.5t-6.5 9.5q0 8 7.5 12t14.5 5q28 5 41 17t13 34v77q0 19 -2 32t-6.5 23t-12.5 20l-96 145q-10 17 -17.5 25t-17.5 13t-28 9q-7 2 -13.5 6t-6.5 11q0 6 5.5 9.5t11.5 3.5q39 0 63.5 -3t57.5 -3q29 0 53 3.5t57 3.5q7 0 13.5 -3.5t6.5 -8.5
q0 -7 -6.5 -11.5t-14.5 -6.5q-27 -4 -39 -17t3 -36l81 -132q4 -7 7 -7t6 7l70 142q9 18 -2.5 29t-31.5 15q-8 2 -15 6.5t-7 11.5q0 5 7.5 8t13.5 3q18 0 30.5 -1.5l25 -3t29.5 -1.5t28 2t23 4t30 2q7 0 14.5 -3t7.5 -10t-6 -11t-13 -6q-28 -7 -45 -15.5t-26 -21.5l-85 -141
q-12 -17 -19.5 -37.5t-7.5 -38.5v-93q0 -18 5.5 -27t18 -14t30.5 -10q7 -2 14.5 -5t7.5 -11q0 -6 -6 -10t-13 -4q-16 0 -38.5 2t-45 3.5t-39.5 1.5q-16 0 -36.5 -2l-41 -4t-37.5 -2zM310 726q-9 0 -15.5 -8.5t-15.5 -23.5q-9 -14 -21 -34.5t-24.5 -41.5t-22 -39.5
t-14.5 -30.5q-6 -13 -4.5 -21.5t13.5 -8.5q7 0 16.5 8t20.5 20t27.5 32.5t34.5 41.5q4 3 5.5 3t4.5 -3q18 -21 34.5 -41.5t26.5 -32.5q11 -12 20.5 -20t16.5 -8q9 0 12 8.5t-3 21.5q-4 12 -14.5 30.5t-23 40t-24 42t-21.5 34.5q-7 14 -14 22.5t-15 8.5z" />
  </g>

</svg>
