<?xml version="1.0" standalone="no"?>
<!DOCTYPE svg PUBLIC "-//W3C//DTD SVG 1.1//EN" "http://www.w3.org/Graphics/SVG/1.1/DTD/svg11.dtd" >
<svg xmlns="http://www.w3.org/2000/svg" xmlns:xlink="http://www.w3.org/1999/xlink" version="1.1" viewBox="-10 0 461 1000">
  <g transform="matrix(1 0 0 -1 0 800)">
   <path fill="currentColor"
d="M38 275q-6 0 -9 8t-1 12q6 11 15.5 23.5t19.5 26.5l194 284q6 10 5.5 15.5t-9.5 5.5q-8 0 -26 0.5t-37.5 0.5h-32.5q-25 0 -49.5 -13.5t-38.5 -36.5q-4 -7 -10 -14.5t-17 -7.5q-12 0 -12 10q0 5 2 9.5t3 8.5q11 24 15.5 43.5t3.5 40.5q0 17 15 17q5 0 9.5 -2.5t10.5 -6.5
q9 -5 25 -9t37 -4q25 0 59 0.5t70 1t68 1t53 0.5q7 0 10.5 -6t1.5 -9q-6 -10 -14.5 -21t-16.5 -22l-198 -294q-5 -10 -1 -16t15 -6h32.5t39 0.5t38.5 0.5q30 0 49 17t32 46q4 7 7 10t8 3q6 0 7.5 -3.5t1.5 -8.5t-4 -21.5t-9 -36t-10 -34.5q-4 -12 -18 -12q-21 0 -46 0.5
t-55 1t-67 0.5q-33 0 -74 -0.5t-92 -2.5z" />
  </g>

</svg>
