<?xml version="1.0" standalone="no"?>
<!DOCTYPE svg PUBLIC "-//W3C//DTD SVG 1.1//EN" "http://www.w3.org/Graphics/SVG/1.1/DTD/svg11.dtd" >
<svg xmlns="http://www.w3.org/2000/svg" xmlns:xlink="http://www.w3.org/1999/xlink" version="1.1" viewBox="-10 0 507 1000">
  <g transform="matrix(1 0 0 -1 0 800)">
   <path fill="currentColor"
d="M132 -14q-30 0 -52.5 16.5t-35 46t-12.5 67.5t8.5 80t23.5 81.5t36 72t45.5 51.5t51.5 19q40 0 63.5 -38.5t39.5 -101.5q1 -4 3.5 -4.5t3.5 4.5q10 34 20.5 69.5t16.5 63.5q3 12 8.5 20t15.5 8q14 0 28.5 -12t25 -28.5t10.5 -29.5q0 -19 -13 -57.5t-36.5 -86t-53.5 -93.5
q11 -24 25.5 -33.5t29.5 -9.5q21 0 37 8t28 17.5t16 12.5q4 2 8 1.5t6 -3.5q5 -4 6.5 -12t1.5 -17q0 -34 -16 -59.5t-39 -39t-45 -13.5q-27 0 -50 31t-33 87q-35 -47 -80 -82.5t-92 -35.5zM125 36q30 0 65.5 38t68.5 98q7 13 14.5 27t13.5 28q-16 46 -31.5 66.5t-40.5 20.5
q-21 0 -43.5 -21t-41 -54.5t-30.5 -71t-12 -69.5q0 -27 9.5 -44.5t27.5 -17.5zM226 475q-8 0 -9.5 3.5t-1.5 10.5t5 32.5t12.5 57.5t15.5 60.5t14 42.5q5 11 14.5 16t17.5 5q17 -1 32.5 -17t13.5 -29q0 -4 -9.5 -24t-22.5 -46t-27 -50.5t-24 -37.5q-6 -8 -14.5 -16t-16.5 -8
z" />
  </g>

</svg>
