<?xml version="1.0" standalone="no"?>
<!DOCTYPE svg PUBLIC "-//W3C//DTD SVG 1.1//EN" "http://www.w3.org/Graphics/SVG/1.1/DTD/svg11.dtd" >
<svg xmlns="http://www.w3.org/2000/svg" xmlns:xlink="http://www.w3.org/1999/xlink" version="1.1" viewBox="-10 0 535 1000">
  <g transform="matrix(1 0 0 -1 0 800)">
   <path fill="currentColor"
d="M139 -154q-28 1 -54.5 11t-43 29t-16.5 47q0 39 27.5 72t74.5 55l13 6l-6 5q-10 10 -26 29.5t-16 46.5q0 30 30.5 51t78.5 21q38 0 66 -17t28 -46q0 -28 -17 -46t-48 -30l-13 -4l11 -11q20 -19 36 -35t35 -34l11 -11l8 8q20 18 35.5 34.5t17.5 30.5q0 7 -3 9.5t-7 4.5
q-3 4 -8 8t-8 9q-2 4 1 7t9 3q16 0 30.5 -2.5t33.5 -2.5t42 6t35 6q5 0 7 -2t2 -4q0 -12 -18 -15q-20 -4 -36.5 -13.5t-29.5 -21.5l-27 -27l-28.5 -28.5t-26.5 -23.5l-10 -10l10 -11q20 -25 37 -43t43 -18q13 0 22.5 5t24.5 11q4 1 7 1.5t6 -0.5q5 -1 7.5 -4.5t1.5 -8.5
q-6 -9 -19 -20t-32 -18.5t-46 -7.5q-38 0 -59 13.5t-46 43.5l-8 10l-4 -3q-30 -31 -63 -48t-72 -17zM174 -103q22 0 41.5 9.5t37.5 25.5l4 4l-8 9q-20 22 -40.5 45t-45.5 49l-8 8l-12 -6q-26 -11 -35.5 -29.5t-9.5 -39.5q0 -33 22 -54t54 -21zM201 94l8 4q14 8 19.5 23.5
t5.5 32.5q0 18 -9 32t-28 14q-13 0 -23.5 -9.5t-10.5 -24.5q0 -25 12.5 -41.5t17.5 -22.5z" />
  </g>

</svg>
