<?xml version="1.0" standalone="no"?>
<!DOCTYPE svg PUBLIC "-//W3C//DTD SVG 1.1//EN" "http://www.w3.org/Graphics/SVG/1.1/DTD/svg11.dtd" >
<svg xmlns="http://www.w3.org/2000/svg" xmlns:xlink="http://www.w3.org/1999/xlink" version="1.1" viewBox="-10 0 383 1000">
  <g transform="matrix(1 0 0 -1 0 800)">
   <path fill="currentColor"
d="M166 -7q-32 0 -57.5 6.5t-48.5 15.5q-7 4 -10.5 7.5t-5.5 6.5q-5 13 -8.5 29t-5 35t-1.5 40q0 8 4 15.5t10 7.5q11 0 16 -8t8 -15q11 -25 25.5 -48.5t35 -38t47.5 -14.5q34 0 48.5 16t14.5 37q0 20 -11 35t-38 32l-65 40q-35 23 -57 51.5t-22 73.5q0 41 24 68.5t61 42
t75 14.5q30 0 55 -5t39 -9q8 -3 12 -6.5t7 -14.5q3 -15 3.5 -35t0.5 -46q0 -5 -4.5 -11.5t-10.5 -6.5t-12 6t-8 13q-6 30 -20 47t-31.5 25t-33.5 8q-28 0 -44 -15.5t-16 -35.5q0 -21 13.5 -35.5t38.5 -30.5l75 -46q32 -19 49 -49t17 -67q0 -30 -19 -61.5t-56.5 -52.5
t-93.5 -21zM138 -68l59 579q1 9 11 9t19.5 -8t7.5 -22l-56 -557q-1 -12 -12 -16t-20.5 0t-8.5 15z" />
  </g>

</svg>
