<?xml version="1.0" standalone="no"?>
<!DOCTYPE svg PUBLIC "-//W3C//DTD SVG 1.1//EN" "http://www.w3.org/Graphics/SVG/1.1/DTD/svg11.dtd" >
<svg xmlns="http://www.w3.org/2000/svg" xmlns:xlink="http://www.w3.org/1999/xlink" version="1.1" viewBox="-10 0 320 1000">
  <g transform="matrix(1 0 0 -1 0 800)">
   <path fill="currentColor"
d="M147 272q-33 0 -61 10.5t-45 30t-17 45.5q0 31 26.5 49t56.5 32q5 2 3.5 5t-4.5 5q-27 20 -47 39.5t-20 50.5q0 26 18 45.5t46.5 30.5t59.5 11q28 0 52.5 -10t40.5 -27.5t16 -42.5q0 -17 -10.5 -30.5t-25.5 -23t-29 -17.5q-12 -5 -1 -12q32 -19 56 -37.5t24 -50.5
t-19 -55t-51 -35.5t-69 -12.5zM157 296q24 0 37 17t13 38t-15.5 38t-40.5 33q-7 4 -11 4q-1 0 -7 -2q-16 -13 -23 -24.5t-7 -34.5q0 -27 14.5 -48t39.5 -21zM172 487q18 13 24 25.5t6 32.5q0 22 -10.5 38t-30.5 16q-19 0 -33.5 -13t-14.5 -31q0 -24 14.5 -37t36.5 -30
q6 -3 8 -1z" />
  </g>

</svg>
