<?xml version="1.0" standalone="no"?>
<!DOCTYPE svg PUBLIC "-//W3C//DTD SVG 1.1//EN" "http://www.w3.org/Graphics/SVG/1.1/DTD/svg11.dtd" >
<svg xmlns="http://www.w3.org/2000/svg" xmlns:xlink="http://www.w3.org/1999/xlink" version="1.1" viewBox="-10 0 1141 1000">
  <g transform="matrix(1 0 0 -1 0 800)">
   <path fill="currentColor"
d="M42 -3q-8 0 -14 3.5t-6 9.5q0 8 7 12t16 7q15 5 27.5 13t12.5 28v283q-10 0 -23 0.5t-29 1.5q-5 1 -9.5 10t-4.5 16q0 3 3 5t5 3q17 6 30 11.5t28 13.5q2 69 26.5 117.5t61.5 79t78.5 44.5t77.5 14q63 0 99 -20.5t36 -46.5q0 -20 -15 -35.5t-32 -15.5q-9 0 -17 8t-18 19
q-13 15 -34 28.5t-55 13.5q-43 0 -70 -41t-27 -129v-15q0 -13 7.5 -17.5t17.5 -4.5h191q4 0 4 -11q0 -8 -2 -19.5t-4.5 -20t-6.5 -8.5h-167q-27 0 -33.5 -6.5t-6.5 -14.5v-261q0 -20 14 -29.5t35 -13.5q9 -2 15 -6.5t6 -12.5q0 -6 -5 -9.5t-13 -3.5q-20 0 -37.5 1.5t-34 2.5
t-34.5 1q-17 0 -32 -1t-31.5 -2.5t-36.5 -1.5zM867 -14q-41 0 -73 9.5t-52 11.5q-12 2 -21.5 1.5t-16.5 -3.5q-5 -2 -11.5 -5.5t-10.5 -4.5q-8 -2 -14.5 2t-6.5 10q1 13 5 38.5t4 55.5l-3 238q0 10 -5.5 14t-16.5 4h-120q-28 0 -34.5 -7t-6.5 -16l1 -258q0 -25 13.5 -34.5
t40.5 -13.5q15 -4 15 -17q0 -6 -4 -10t-9 -4q-30 0 -59 2.5t-55 2.5t-49 -2.5t-52 -2.5q-5 0 -10.5 3.5t-5.5 9.5q0 8 6 12t12 6q22 4 33.5 11.5t11.5 32.5v281q-10 0 -24.5 0.5t-30.5 1.5q-5 1 -8.5 10.5t-3.5 15.5t7 8q17 6 31.5 11.5t28.5 13.5q3 84 29 140.5t64 89.5
t80 47.5t78 14.5q24 0 43 -3.5t34 -12.5q9 -4 16 -3.5t14 3.5q12 5 19.5 7.5l13.5 4.5q6 3 10 3q5 0 7 -3t3 -7q0 -6 -1 -14.5t-2.5 -24t-2.5 -41.5v-205q0 -12 1.5 -20.5t7.5 -8.5q37 28 74 37t65 9q53 0 93 -28.5t62.5 -75.5t22.5 -103q0 -59 -26 -113t-78 -87.5
t-133 -33.5zM883 26q39 0 60.5 21.5t31.5 60.5t10 90q0 39 -13 80t-39.5 68.5t-66.5 27.5q-17 0 -36.5 -7t-31.5 -19q-10 -11 -15 -32.5t-5 -50.5v-118q0 -55 28.5 -88t76.5 -33zM510 413h140q7 0 12 3.5t5 12.5v141q0 42 -14.5 64.5t-48.5 22.5q-31 0 -58 -18t-44 -57.5
t-17 -102.5v-45q0 -13 7.5 -17t17.5 -4z" />
  </g>

</svg>
