<?xml version="1.0" standalone="no"?>
<!DOCTYPE svg PUBLIC "-//W3C//DTD SVG 1.1//EN" "http://www.w3.org/Graphics/SVG/1.1/DTD/svg11.dtd" >
<svg xmlns="http://www.w3.org/2000/svg" xmlns:xlink="http://www.w3.org/1999/xlink" version="1.1" viewBox="-10 0 852 1000">
  <g transform="matrix(1 0 0 -1 0 800)">
   <path fill="currentColor"
d="M37 -3q-5 0 -9.5 3.5t-4.5 9.5q0 9 6.5 12t15 4.5t15.5 6.5q12 7 19 15t7 24v281q-10 0 -24.5 0.5t-30.5 1.5q-5 1 -8.5 10.5t-3.5 15.5t6 8q17 6 31.5 11.5t29.5 13.5q3 84 28.5 140.5t64 89.5t80 47.5t78.5 14.5q23 0 42 -3.5t34 -12.5q8 -4 16 -3.5t15 3.5
q12 5 18.5 7t13.5 5q6 3 11 3t7 -3t2 -7q0 -5 -1 -20t-2 -34.5t-2 -36.5v-213q0 -9 1.5 -18.5t5.5 -12.5q16 12 38.5 27.5t51.5 27.5t62 12q34 0 60.5 -17t41.5 -47t15 -70v-218q0 -25 9.5 -33.5t30.5 -12.5q9 -3 13 -7t4 -11q0 -14 -18 -14q-22 0 -36 1.5t-27 2.5t-33 1
t-32 -1t-25 -2.5t-35 -1.5q-19 0 -19 14q0 7 5 11.5t10 5.5q21 5 31.5 13t10.5 35v195q0 24 -11 42t-28 29t-36 11q-16 0 -34.5 -4t-30.5 -13q-15 -11 -19.5 -24t-4.5 -41v-196q0 -26 11 -33t31 -12q18 -6 18 -18q0 -14 -16 -14q-30 0 -53.5 2t-49.5 2t-47.5 -2.5
t-50.5 -2.5q-17 0 -17 13q0 6 5 10.5t13 7.5q22 5 33 13t11 31l-1 267q0 10 -6 14t-16 4h-119q-28 0 -34 -7t-6 -16l-1 -258q1 -18 7 -27t17.5 -13t28.5 -8q8 -1 12.5 -6t4.5 -12q0 -5 -4 -9t-9 -4q-30 0 -59 2.5t-55 2.5t-50 -2.5t-53 -2.5zM223 413h138q8 0 13 3.5t5 12.5
v139q0 43 -13 66t-50 23q-31 0 -58 -18.5t-43.5 -58t-16.5 -101.5v-45q0 -13 7.5 -17t17.5 -4z" />
  </g>

</svg>
