<?xml version="1.0" standalone="no"?>
<!DOCTYPE svg PUBLIC "-//W3C//DTD SVG 1.1//EN" "http://www.w3.org/Graphics/SVG/1.1/DTD/svg11.dtd" >
<svg xmlns="http://www.w3.org/2000/svg" xmlns:xlink="http://www.w3.org/1999/xlink" version="1.1" viewBox="-110 0 220 1000">
  <g transform="matrix(1 0 0 -1 0 800)">
   <path fill="currentColor"
d="M11 461q-12 0 -24.5 15.5t-12.5 27.5q0 8 8 17.5t15 16.5q10 9 15.5 16t5.5 16q0 8 -7 12.5t-18 4.5q-12 0 -21.5 -8t-24.5 -29q-3 -3 -7 -7.5t-10 -4.5t-13 7.5t-12 17t-5 15.5q0 8 5 15.5t12 11.5q17 10 38.5 18t54.5 8q34 0 62 -16t28 -46q0 -15 -15 -31t-40 -25
q-10 -4 -13 -7.5t-3 -7.5q0 -5 2 -10.5t2 -10.5q1 -6 -6 -11t-16 -5z" />
  </g>

</svg>
