<?xml version="1.0" standalone="no"?>
<!DOCTYPE svg PUBLIC "-//W3C//DTD SVG 1.1//EN" "http://www.w3.org/Graphics/SVG/1.1/DTD/svg11.dtd" >
<svg xmlns="http://www.w3.org/2000/svg" xmlns:xlink="http://www.w3.org/1999/xlink" version="1.1" viewBox="-10 0 238 1000">
  <g transform="matrix(1 0 0 -1 0 800)">
   <path fill="currentColor"
d="M39 451q-5 0 -9 3t-4 6q0 11 13 15q15 4 23 8t8 15v131q0 17 -6.5 25t-22.5 11q-8 2 -8 13q0 9 8 12q24 5 53.5 15.5t55.5 20.5q5 0 11 -2.5t6 -6.5q0 -6 -3.5 -26.5t-3.5 -61.5v-130q0 -10 7 -14.5t24 -9.5q13 -4 13 -14q0 -4 -3.5 -6.5t-8.5 -2.5q-16 0 -38 0.5
t-39 0.5q-15 0 -37 -1t-39 -1zM111 764q-22 0 -37.5 15.5t-15.5 35.5q0 22 15.5 37.5t37.5 15.5q23 0 39 -15.5t16 -37.5q0 -20 -16 -35.5t-39 -15.5z" />
  </g>

</svg>
