<?xml version="1.0" standalone="no"?>
<!DOCTYPE svg PUBLIC "-//W3C//DTD SVG 1.1//EN" "http://www.w3.org/Graphics/SVG/1.1/DTD/svg11.dtd" >
<svg xmlns="http://www.w3.org/2000/svg" xmlns:xlink="http://www.w3.org/1999/xlink" version="1.1" viewBox="-37 0 339 1000">
  <g transform="matrix(1 0 0 -1 0 800)">
   <path fill="currentColor"
d="M146 -15q-35 0 -58 29.5t-23 87.5l2 300q0 14 14 18.5t50 4.5q30 0 38.5 -7t8.5 -20t-3 -39.5t-7 -59t-8 -66.5t-7 -63.5t-3 -47.5q0 -17 11.5 -22t25.5 -5q17 0 33 5t21 5q7 0 10.5 -4.5t3.5 -14.5q0 -20 -13 -43.5t-37 -40.5t-59 -17zM225 499q-25 0 -44.5 19.5
t-19.5 44.5q0 27 19.5 46t44.5 19q28 0 47.5 -19t19.5 -46q0 -25 -19.5 -44.5t-47.5 -19.5zM37 499q-26 0 -45 19.5t-19 44.5q0 27 19 46t45 19q27 0 46.5 -19t19.5 -46q0 -25 -19.5 -44.5t-46.5 -19.5z" />
  </g>

</svg>
