<?xml version="1.0" standalone="no"?>
<!DOCTYPE svg PUBLIC "-//W3C//DTD SVG 1.1//EN" "http://www.w3.org/Graphics/SVG/1.1/DTD/svg11.dtd" >
<svg xmlns="http://www.w3.org/2000/svg" xmlns:xlink="http://www.w3.org/1999/xlink" version="1.1" viewBox="-10 0 282 1000">
  <g transform="matrix(1 0 0 -1 0 800)">
   <path fill="currentColor"
d="M146 -15q-35 0 -58 29.5t-23 87.5l2 300q0 14 14 18.5t50 4.5q30 0 38.5 -7t8.5 -20t-3 -39.5t-7 -59t-8 -66.5t-7 -63.5t-3 -47.5q0 -17 11.5 -22t25.5 -5q17 0 33 5t21 5q7 0 10.5 -4.5t3.5 -14.5q0 -20 -13 -43.5t-37 -40.5t-59 -17zM108 475q-8 0 -9.5 3.5t-1.5 10.5
t5 32.5t12.5 57.5t15.5 60.5t14 42.5q5 11 14.5 16t17.5 5q17 -1 32.5 -17t13.5 -29q0 -4 -9.5 -24t-22.5 -46t-27 -50.5t-24 -37.5q-6 -8 -14.5 -16t-16.5 -8z" />
  </g>

</svg>
