<?xml version="1.0" standalone="no"?>
<!DOCTYPE svg PUBLIC "-//W3C//DTD SVG 1.1//EN" "http://www.w3.org/Graphics/SVG/1.1/DTD/svg11.dtd" >
<svg xmlns="http://www.w3.org/2000/svg" xmlns:xlink="http://www.w3.org/1999/xlink" version="1.1" viewBox="-10 0 356 1000">
  <g transform="matrix(1 0 0 -1 0 800)">
   <path fill="currentColor"
d="M37 -3q-8 0 -14 3t-6 9q0 8 6.5 12t16.5 8q15 5 27.5 11t12.5 27v488q0 28 -8.5 47.5t-33.5 24.5q-10 2 -10 15q0 12 9 14q25 5 51.5 14t50 18t39.5 14q7 3 10 3q5 0 7 -3.5t2 -6.5q0 -8 -3 -30.5t-3 -60.5v-536q0 -21 12 -27t27 -11q10 -4 16.5 -8t6.5 -12q0 -6 -6 -9
t-14 -3q-19 0 -35 1.5t-31.5 2t-33.5 0.5q-17 0 -31.5 -1t-29.5 -2.5t-35 -1.5zM261 487q-4 0 -7 7.5t-3 17.5q0 3 1.5 15.5t2 26.5t0.5 22q0 32 -3.5 50t-3.5 32q0 12 11.5 24.5t27.5 21t30 8.5t16.5 -10t2.5 -24q0 -20 -7 -50.5t-17.5 -60.5t-22.5 -51q-15 -29 -28 -29z
" />
  </g>

</svg>
