<?xml version="1.0" standalone="no"?>
<!DOCTYPE svg PUBLIC "-//W3C//DTD SVG 1.1//EN" "http://www.w3.org/Graphics/SVG/1.1/DTD/svg11.dtd" >
<svg xmlns="http://www.w3.org/2000/svg" xmlns:xlink="http://www.w3.org/1999/xlink" version="1.1" viewBox="-10 0 842 1000">
  <g transform="matrix(1 0 0 -1 0 800)">
   <path fill="currentColor"
d="M42 -3q-8 0 -14 3.5t-6 9.5q0 8 7 12t16 7q15 5 27.5 13t12.5 28v283q-10 0 -23 0.5t-29 1.5q-5 1 -9.5 10t-4.5 16q0 3 3 5t5 3q17 6 30 11.5t28 13.5q2 69 26.5 117.5t61.5 79t78.5 44.5t77.5 14q63 0 99 -20.5t36 -46.5q0 -20 -15 -35.5t-32 -15.5q-9 0 -17 8t-18 19
q-13 15 -34 28.5t-55 13.5q-43 0 -70 -41t-27 -129v-378q0 -20 14 -29.5t35 -13.5q9 -2 15 -6.5t6 -12.5q0 -6 -5 -9.5t-13 -3.5q-20 0 -37.5 1.5t-34 2.5t-34.5 1q-17 0 -32 -1t-31.5 -2.5t-36.5 -1.5zM330 -3q-5 0 -12.5 3t-7.5 9q0 8 7.5 12.5t15.5 7.5q15 5 27.5 12.5
t12.5 28.5v283q-10 0 -23 0.5t-29 1.5q-5 2 -8.5 10.5t-3.5 15.5t9 9q13 5 26.5 10.5t28.5 13.5q3 84 30 140.5t67.5 89.5t84.5 47.5t82 14.5q40 0 70.5 -8t48 -24.5t17.5 -41.5q0 -30 -17 -47t-41 -17q-12 0 -22 9.5t-19 21.5q-7 12 -18 25t-27.5 22.5t-41.5 9.5
q-28 0 -51.5 -18.5t-37.5 -55.5t-14 -95v-415q0 -21 14.5 -29.5t34.5 -13.5q8 -3 14.5 -7.5t6.5 -12.5q0 -6 -6 -9t-12 -3q-20 0 -38 1.5t-34 2.5t-34 1q-17 0 -32.5 -1t-31.5 -2.5t-36 -1.5zM580 -287q-14 0 -24 3.5t-10 10.5t5 11.5t12 8.5q17 6 31.5 18t28.5 40
q10 22 16 54.5t9.5 69t4.5 70.5t1 58v225q0 32 -10.5 48t-33.5 20q-5 1 -8 5.5t-3 10.5q0 13 10 15q47 10 83 27.5t55 27.5q6 3 11 5t7 2q11 0 11 -10q-3 -29 -7 -72t-4 -79l1 -191q0 -31 -2 -72.5t-9 -86t-25 -84.5q-13 -34 -39 -65t-55.5 -50.5t-55.5 -19.5z" />
  </g>

</svg>
