<?xml version="1.0" standalone="no"?>
<!DOCTYPE svg PUBLIC "-//W3C//DTD SVG 1.1//EN" "http://www.w3.org/Graphics/SVG/1.1/DTD/svg11.dtd" >
<svg xmlns="http://www.w3.org/2000/svg" xmlns:xlink="http://www.w3.org/1999/xlink" version="1.1" viewBox="-10 0 417 1000">
  <g transform="matrix(1 0 0 -1 0 800)">
   <path fill="currentColor"
d="M40 11q-2 0 -8 3t-6 7q0 6 5.5 9.5t10.5 5.5q10 3 18 8t8 17v136q0 13 -5 22t-18 11q-6 0 -7 10t6 12q16 3 35 8.5t36.5 12t29.5 12.5q5 0 11.5 -2.5t6.5 -4.5q0 -6 -2 -15.5t-2 -17.5v-5.5t1 -3.5q20 16 48 29.5t59 13.5q35 0 58.5 -23t23.5 -61v-135q0 -12 7.5 -17
t17.5 -7q5 -2 9.5 -5.5t4.5 -8.5q0 -4 -5 -7.5t-8 -3.5q-17 0 -35.5 1.5t-34.5 1.5t-34.5 -1.5t-36.5 -1.5q-3 0 -7.5 3.5t-4.5 7.5q0 5 4 8.5t9 5.5q11 2 17.5 7t6.5 17v113q0 22 -11.5 35.5t-32.5 13.5q-11 0 -22.5 -2t-21.5 -9q-6 -4 -9.5 -13t-3.5 -24v-114q0 -11 6 -16
t16 -8q13 -5 13 -15q0 -3 -4 -6.5t-8 -3.5q-17 0 -34.5 1.5t-33.5 1.5t-35.5 -1.5t-37.5 -1.5z" />
  </g>

</svg>
