<?xml version="1.0" standalone="no"?>
<!DOCTYPE svg PUBLIC "-//W3C//DTD SVG 1.1//EN" "http://www.w3.org/Graphics/SVG/1.1/DTD/svg11.dtd" >
<svg xmlns="http://www.w3.org/2000/svg" xmlns:xlink="http://www.w3.org/1999/xlink" version="1.1" viewBox="-10 0 523 1000">
  <g transform="matrix(1 0 0 -1 0 800)">
   <path fill="currentColor"
d="M49 -219q-13 0 -13 7q0 8 6 13.5t13 9.5t10 5q27 10 56 27t56 38t50.5 44.5t40.5 46.5q18 25 38.5 62t35.5 86t15 107q0 41 -15 75t-39.5 54.5t-56.5 20.5q-27 0 -45.5 -16.5t-27.5 -41t-9 -48.5q0 -34 11.5 -64t30 -48t39.5 -18q20 0 31.5 5t23.5 11q16 6 19 -2.5
t-5 -17.5q-5 -9 -12.5 -15.5t-13.5 -12.5q-8 -6 -24 -14.5t-35.5 -15t-38.5 -6.5q-39 0 -71 17.5t-51.5 50.5t-19.5 77q0 35 16.5 71.5t47 67.5t71.5 50t90 19q58 0 105.5 -27t75.5 -76t28 -115q0 -46 -15 -87.5t-38 -76t-49.5 -63t-48.5 -50.5t-56 -46t-72 -45.5t-74 -36.5
t-65 -20q-4 -1 -8 -1.5t-7 -0.5z" />
  </g>

</svg>
