<?xml version="1.0" standalone="no"?>
<!DOCTYPE svg PUBLIC "-//W3C//DTD SVG 1.1//EN" "http://www.w3.org/Graphics/SVG/1.1/DTD/svg11.dtd" >
<svg xmlns="http://www.w3.org/2000/svg" xmlns:xlink="http://www.w3.org/1999/xlink" version="1.1" viewBox="-10 0 326 1000">
  <g transform="matrix(1 0 0 -1 0 800)">
   <path fill="currentColor"
d="M54 -139q-13 0 -10 13l26 94l-36 -1q-6 0 -9.5 3.5t-3.5 6.5q0 18 6 29t15 12l40 2l19 72l-40 -2q-6 0 -9 3.5t-3 7.5q0 18 5.5 28.5t14.5 11.5l45 2l25 90q2 9 11 11.5t18 2.5q7 0 9 -4.5t0 -9.5l-23 -88l60 2l25 92q2 9 11 12t18 3q7 0 9 -4.5t0 -10.5l-24 -90l36 2
q14 2 14 -11q0 -14 -7.5 -26t-17.5 -13l-38 -2l-19 -74l41 2q14 0 14 -11q-2 -14 -8 -26.5t-17 -13.5l-43 -2l-25 -92q-1 -8 -11 -10t-19 -2q-5 0 -7.5 4t-1.5 8l26 91l-62 -3l-26 -96q-1 -9 -10 -11t-18 -2zM122 21l59 3l20 73l-60 -3z" />
  </g>

</svg>
