<?xml version="1.0" standalone="no"?>
<!DOCTYPE svg PUBLIC "-//W3C//DTD SVG 1.1//EN" "http://www.w3.org/Graphics/SVG/1.1/DTD/svg11.dtd" >
<svg xmlns="http://www.w3.org/2000/svg" xmlns:xlink="http://www.w3.org/1999/xlink" version="1.1" viewBox="-10 0 770 1000">
  <g transform="matrix(1 0 0 -1 0 800)">
   <path fill="currentColor"
d="M299 -12q-67 0 -124 29.5t-91 81.5t-34 118q0 47 18 90t51 76.5t79.5 53.5t103.5 20q13 0 27.5 -1t28.5 -4q15 -2 30.5 -2.5t29.5 -0.5q34 0 73.5 0.5t76.5 1t64.5 1t37.5 0.5q5 0 11 -3t7 -12q1 -13 4.5 -32t6 -37.5t2.5 -32.5q0 -5 -3 -8.5t-8 -3.5q-4 0 -7.5 3t-6.5 9
q-13 31 -27 48.5t-46 17.5h-69q-11 0 -21 -6.5t-10 -23.5v-101q0 -9 4 -12.5t12 -3.5h57q17 0 27.5 8.5t18.5 30.5q3 6 7.5 9.5t7.5 3.5q4 0 7 -4t2 -12q-2 -18 -2.5 -32t-0.5 -29t0.5 -28t1.5 -33q2 -10 0 -14.5t-6 -4.5q-6 0 -11 5.5t-8 12.5q-6 23 -16.5 32.5t-28.5 9.5
h-46q-9 0 -17.5 -4.5t-8.5 -12.5v-107q0 -21 8.5 -29.5t27.5 -8.5h69q32 0 55.5 21.5t33.5 49.5q2 6 7 9t9 3q5 0 8 -4t3 -10q-1 -23 -7.5 -48.5t-14.5 -52.5q-2 -7 -6.5 -12t-12.5 -5q-19 0 -47 0.5t-61 1t-67 1t-66 0.5q-14 0 -29 -0.5t-32 -2.5q-40 -10 -82 -10zM309 31
q28 0 45 11t23 34v284q0 12 -2 19.5t-8 11.5q-15 12 -32 18.5t-40 6.5q-40 0 -64.5 -24.5t-35 -65.5t-10.5 -92q0 -58 14 -104.5t42 -72.5t68 -26z" />
  </g>

</svg>
