<?xml version="1.0" standalone="no"?>
<!DOCTYPE svg PUBLIC "-//W3C//DTD SVG 1.1//EN" "http://www.w3.org/Graphics/SVG/1.1/DTD/svg11.dtd" >
<svg xmlns="http://www.w3.org/2000/svg" xmlns:xlink="http://www.w3.org/1999/xlink" version="1.1" viewBox="-10 0 659 1000">
  <g transform="matrix(1 0 0 -1 0 800)">
   <path fill="currentColor"
d="M47 278q-4 0 -7.5 3.5t-3.5 8.5t3 9.5t8 5.5q15 2 24 4t13.5 8.5t4.5 20.5v171q0 20 -14 31t-29 13q-5 1 -8.5 4t-3.5 8q0 15 13 16q38 3 63 12t45 23q1 1 4.5 2.5t5.5 1.5q10 0 9 -10l-2.5 -20t-1.5 -32v-220q0 -17 6 -22t33 -11q5 -2 8 -5.5t3 -9.5q0 -4 -2.5 -7.5
t-7.5 -3.5q-18 0 -32 0.5t-26.5 1t-24.5 0.5t-23.5 -0.5t-24.5 -1.5t-32 -1zM531 644q8 13 19 16.5t27 3.5q7 0 12 -5t5 -10q0 -4 -1 -5l-420 -662q-6 -12 -17.5 -15t-24.5 -3q-7 0 -14 4.5t-7 9.5q0 2 1 4zM510 -9q-10 0 -10 8v88q0 3 -5 4.5t-6 1.5q-37 0 -69 -1.5
t-74 -1.5q-2 0 -5.5 1.5t-3.5 3.5t0.5 2.5l1.5 1.5q34 43 72 86t74 84q9 12 26 30t36 37q6 6 11.5 10t9.5 4q3 0 4 -3t1 -6l-1 -203q0 -6 6 -6h19q8 0 16 0.5t16 0.5q7 0 7 -7q0 -8 -5.5 -19.5t-10.5 -11.5h-37q-6 0 -8.5 -1.5t-2.5 -5.5v-62q0 -8 -14 -16t-29 -13.5
t-19 -5.5zM412 133h81q2 0 4.5 1.5t2.5 2.5v95q0 1 -1.5 1.5t-3.5 -1.5q-14 -15 -29.5 -31.5t-29.5 -32.5t-25 -31q-2 -4 1 -4z" />
  </g>

</svg>
