<?xml version="1.0" standalone="no"?>
<!DOCTYPE svg PUBLIC "-//W3C//DTD SVG 1.1//EN" "http://www.w3.org/Graphics/SVG/1.1/DTD/svg11.dtd" >
<svg xmlns="http://www.w3.org/2000/svg" xmlns:xlink="http://www.w3.org/1999/xlink" version="1.1" viewBox="-10 0 627 1000">
  <g transform="matrix(1 0 0 -1 0 800)">
   <path fill="currentColor"
d="M300 -304q-38 0 -69.5 15t-50 42.5t-18.5 63.5q0 37 19 63.5t47 41.5t55 15q33 -1 53 -15.5t20 -41.5q0 -25 -14.5 -40.5t-32.5 -15.5q-12 0 -20.5 6t-16.5 13q-7 7 -13.5 12.5t-12.5 5.5q-12 0 -24 -13t-12 -39q0 -29 25.5 -52t68.5 -23q23 0 45 12t36.5 39t14.5 71v201
q0 8 -2.5 17t-11.5 9q-72 0 -136.5 18.5t-115 54.5t-79.5 88.5t-29 119.5q0 105 49.5 167t139.5 89.5t213 27.5q31 0 62 -1.5t55.5 -3t32.5 -3.5q8 -1 12 -8.5t4 -16.5t-4.5 -22t-10.5 -13q-5 0 -38.5 8t-74.5 8q-8 0 -14 -7t-6 -16v-716q0 -45 -17.5 -81.5t-50.5 -58
t-78 -21.5z" />
  </g>

</svg>
