<?xml version="1.0" standalone="no"?>
<!DOCTYPE svg PUBLIC "-//W3C//DTD SVG 1.1//EN" "http://www.w3.org/Graphics/SVG/1.1/DTD/svg11.dtd" >
<svg xmlns="http://www.w3.org/2000/svg" xmlns:xlink="http://www.w3.org/1999/xlink" version="1.1" viewBox="-10 0 567 1000">
  <g transform="matrix(1 0 0 -1 0 800)">
   <path fill="currentColor"
d="M182 -16q-19 0 -36 8t-28 18t-11 17q0 16 4 33.5t11 40.5l53 195q3 11 -0.5 20.5t-19.5 8.5q-36 0 -57.5 -7t-35 -24t-26.5 -47q-1 -4 -4 -9.5t-10 -5.5t-12.5 11t-5.5 33q0 24 9 50t30 48.5t56.5 36.5t89.5 14q35 0 69.5 -1.5t61.5 -3.5q27 -1 48 -2.5t40 -1.5
q31 0 50.5 4.5t31.5 10.5q15 6 20.5 13t11.5 7q12 0 18.5 -11.5t6.5 -37.5t-11.5 -46t-29 -31t-36.5 -11q-15 0 -29 1t-26 1q-16 0 -24.5 -6.5t-10.5 -24.5q-1 -10 -4 -28t-6 -39.5t-5 -41.5t-2 -34q0 -24 14.5 -33.5t30.5 -9.5q9 0 20 2t20 5q6 2 10 3.5t5 1.5
q9 0 10.5 -4.5t1.5 -14.5q0 -21 -11 -45.5t-31.5 -42.5t-50.5 -18q-29 0 -49 26t-21 70q0 24 3.5 55t8.5 63t9 57t4 36q0 10 -4 18t-13 8l-68 2q-12 1 -18 -7t-10 -26q-19 -75 -28 -128.5t-10 -89.5q0 -22 2 -38t5 -26q3 -12 0.5 -17t-11.5 -5z" />
  </g>

</svg>
