<?xml version="1.0" standalone="no"?>
<!DOCTYPE svg PUBLIC "-//W3C//DTD SVG 1.1//EN" "http://www.w3.org/Graphics/SVG/1.1/DTD/svg11.dtd" >
<svg xmlns="http://www.w3.org/2000/svg" xmlns:xlink="http://www.w3.org/1999/xlink" version="1.1" viewBox="-10 0 421 1000">
  <g transform="matrix(1 0 0 -1 0 800)">
   <path fill="currentColor"
d="M190 280q-4 0 -8 3t-4 9v122q0 8 -9 8h-116q-6 0 -9.5 4t-3.5 8q0 8 4.5 24t17.5 16h106q6 0 8 2t2 7v94q0 12 15.5 18.5t23.5 6.5q5 0 10 -4t5 -11v-104q0 -9 8 -9h115q7 0 11.5 -4.5t4.5 -9.5q0 -10 -7.5 -24t-19.5 -14h-104q-8 0 -8 -7v-115q0 -12 -17 -16t-25 -4z
" />
  </g>

</svg>
