<?xml version="1.0" standalone="no"?>
<!DOCTYPE svg PUBLIC "-//W3C//DTD SVG 1.1//EN" "http://www.w3.org/Graphics/SVG/1.1/DTD/svg11.dtd" >
<svg xmlns="http://www.w3.org/2000/svg" xmlns:xlink="http://www.w3.org/1999/xlink" version="1.1" viewBox="-10 0 769 1000">
  <g transform="matrix(1 0 0 -1 0 800)">
   <path fill="currentColor"
d="M635 -210q-64 0 -114 17t-95.5 45.5t-93 66t-106.5 78.5l159 16q2 -1 3 -3.5t5 -7.5q21 -22 54.5 -50t72 -54t75.5 -42.5t67 -16.5q24 0 41 4.5t23 4.5q11 0 17 -2t6 -9q0 -9 -6 -17t-16 -13q-18 -8 -41 -12.5t-51 -4.5zM273 -14q-62 0 -115.5 28t-85.5 77t-32 111
q0 43 16.5 83t48 72t75 50.5t97.5 18.5q63 0 117.5 -27.5t88 -75.5t33.5 -111q0 -58 -27.5 -110t-81.5 -84t-134 -32zM284 25q30 0 51 14.5t34 39t19 55.5t6 64q0 51 -14.5 94.5t-42.5 70t-66 26.5q-36 0 -60 -23t-36.5 -61.5t-12.5 -85.5q0 -55 14 -99t41 -69.5t67 -25.5z
" />
  </g>

</svg>
