<?xml version="1.0" standalone="no"?>
<!DOCTYPE svg PUBLIC "-//W3C//DTD SVG 1.1//EN" "http://www.w3.org/Graphics/SVG/1.1/DTD/svg11.dtd" >
<svg xmlns="http://www.w3.org/2000/svg" xmlns:xlink="http://www.w3.org/1999/xlink" version="1.1" viewBox="-10 0 607 1000">
  <g transform="matrix(1 0 0 -1 0 800)">
   <path fill="currentColor"
d="M496 -14q-32 0 -56.5 10t-43 26.5t-34.5 34.5q-10 12 -22.5 31.5t-24.5 41t-21 40.5q-7 13 -19 21t-29 8q-6 0 -13 -5t-7 -14v-108q0 -20 11.5 -29t42.5 -14q7 -1 13.5 -5t6.5 -12q0 -6 -6 -9t-11 -3h-29t-33 0.5t-33 1t-28 0.5q-17 0 -36.5 -1t-38.5 -2t-37 -1
q-6 0 -11.5 5t-5.5 10q0 8 6 12t13 5q27 7 39 15t12 30v298q0 22 -10 32.5t-37 14.5q-9 2 -14.5 7t-5.5 12t6 10.5t13 3.5q23 0 39.5 -2t32.5 -3.5t35 -1.5q27 0 59 3.5t72 3.5q55 0 97 -11.5t66 -36t24 -65.5q1 -28 -11 -50.5t-31 -37.5t-41 -21q-11 -4 -6 -14
q11 -22 27.5 -48t35 -49.5t33.5 -41.5q11 -11 28 -22.5t32.5 -18.5t23.5 -8q5 -1 11.5 -3.5t6.5 -10.5t-11.5 -15t-32 -10.5t-47.5 -3.5zM262 236q45 0 70.5 21t24.5 72q0 30 -13 49.5t-33.5 29t-44.5 9.5q-16 0 -28.5 -6.5t-12.5 -24.5l1 -118q0 -18 12 -25t24 -7zM268 539
q-9 0 -15.5 8.5t-15.5 23.5q-9 14 -21 34.5t-24.5 41.5t-22 39.5t-14.5 30.5q-6 13 -4.5 21.5t13.5 8.5q7 0 16.5 -8t20.5 -20t27.5 -32.5t34.5 -41.5q4 -3 5.5 -3t4.5 3q18 21 34.5 41.5t26.5 32.5q11 12 20.5 20t16.5 8q9 0 12 -8.5t-3 -21.5q-4 -12 -14.5 -30.5t-23 -40
t-24 -42t-21.5 -34.5q-7 -14 -14 -22.5t-15 -8.5z" />
  </g>

</svg>
