<?xml version="1.0" standalone="no"?>
<!DOCTYPE svg PUBLIC "-//W3C//DTD SVG 1.1//EN" "http://www.w3.org/Graphics/SVG/1.1/DTD/svg11.dtd" >
<svg xmlns="http://www.w3.org/2000/svg" xmlns:xlink="http://www.w3.org/1999/xlink" version="1.1" viewBox="-10 0 694 1000">
  <g transform="matrix(1 0 0 -1 0 800)">
   <path fill="currentColor"
d="M153 -14q-16 0 -37.5 5t-41 12.5t-30.5 16.5q-8 14 -11.5 41.5t-3.5 53.5q0 5 5.5 7.5t12.5 2.5q15 0 18 -9q7 -23 22 -43.5t35 -33.5t41 -13q32 0 46 18t14 41q0 22 -11 36.5t-27 24.5t-33 20q-26 15 -50.5 32t-40 41.5t-15.5 60.5q0 49 30.5 81t81.5 42
q-8 7 -15.5 20.5t-11.5 30t-4 32.5q0 44 27 80t75.5 58t114.5 22q28 0 59 -8.5t58 -26t43.5 -44.5t16.5 -65v-91q1 -10 7 -14t17 -4h119q3 0 5.5 -7.5t2.5 -14.5q0 -12 -3 -23t-8 -11h-97q-24 0 -32 -4t-8 -16v-207q0 -39 19.5 -62t47.5 -23q30 0 44 6.5t25 12.5q4 2 6 0
t3 -4q2 -1 3.5 -5.5t1.5 -10.5q-2 -6 -22 -20.5t-50.5 -26t-64.5 -11.5q-58 0 -91 31t-33 84v240q0 17 -27 18h-13q-6 0 -10 9.5t-4 17.5q0 6 4 8q32 11 52.5 28.5t21.5 36.5q2 11 2 21.5v20.5q0 35 -15 62t-42 43t-64 16q-39 0 -71 -15.5t-51 -43.5t-19 -65
q0 -13 3.5 -28.5t11.5 -27.5t21 -16q29 -1 49.5 -7.5t29.5 -12.5q8 -17 11.5 -40.5t3.5 -53.5q0 -3 -3.5 -5t-8.5 -2q-8 0 -17 5t-11 11q-10 33 -29.5 48t-42.5 15q-25 0 -43.5 -15t-18.5 -38q0 -16 12 -30.5t29 -26t34 -21.5q32 -16 56.5 -34.5t37.5 -42.5t13 -58
q0 -41 -16.5 -70.5t-52 -45.5t-93.5 -16z" />
  </g>

</svg>
