<?xml version="1.0" standalone="no"?>
<!DOCTYPE svg PUBLIC "-//W3C//DTD SVG 1.1//EN" "http://www.w3.org/Graphics/SVG/1.1/DTD/svg11.dtd" >
<svg xmlns="http://www.w3.org/2000/svg" xmlns:xlink="http://www.w3.org/1999/xlink" version="1.1" viewBox="-10 0 358 1000">
  <g transform="matrix(1 0 0 -1 0 800)">
   <path fill="currentColor"
d="M158 -14q-32 0 -61.5 8.5t-53.5 25.5q-7 14 -10.5 44t-3.5 59q0 12 17 12q7 0 12 -4t7 -9q17 -44 43 -70.5t59 -26.5q28 0 44 17.5t16 40.5q0 27 -19.5 45t-53.5 37q-31 17 -55.5 36t-38.5 43.5t-14 57.5q0 37 19 65t53.5 44t79.5 16q32 0 57.5 -7t35.5 -14
q8 -10 13 -36.5t5 -55.5q0 -9 -15 -9q-7 0 -14 4t-9 8q-13 37 -33 56t-46 19q-23 0 -41.5 -14.5t-18.5 -40.5q0 -21 17.5 -38t50.5 -35q63 -34 91 -64.5t28 -81.5q0 -61 -42 -96.5t-119 -35.5zM191 663q-9 0 -15.5 -8.5t-15.5 -23.5q-9 -14 -21 -34.5t-24.5 -41.5t-22 -39.5
t-14.5 -30.5q-6 -13 -4.5 -21.5t13.5 -8.5q7 0 16.5 8t20.5 20t27.5 32.5t34.5 41.5q4 3 5.5 3t4.5 -3q18 -21 34.5 -41.5t26.5 -32.5q11 -12 20.5 -20t16.5 -8q9 0 12 8.5t-3 21.5q-4 12 -14.5 30.5t-23 40t-24 42t-21.5 34.5q-7 14 -14 22.5t-15 8.5z" />
  </g>

</svg>
