<?xml version="1.0" standalone="no"?>
<!DOCTYPE svg PUBLIC "-//W3C//DTD SVG 1.1//EN" "http://www.w3.org/Graphics/SVG/1.1/DTD/svg11.dtd" >
<svg xmlns="http://www.w3.org/2000/svg" xmlns:xlink="http://www.w3.org/1999/xlink" version="1.1" viewBox="-10 0 381 1000">
  <g transform="matrix(1 0 0 -1 0 800)">
   <path fill="currentColor"
d="M119 -148q-27 0 -45.5 8.5t-16.5 19.5q1 10 5.5 24.5t21.5 26.5q6 4 12.5 1t10.5 -6q12 -10 32 -18t37 -8q43 0 43 56q0 20 -16 40t-40.5 40.5t-49.5 41.5q-43 36 -64.5 70t-21.5 68q0 51 19 81t45 54q9 26 27 49.5t44.5 38t58.5 14.5q19 0 42 -5.5t32 -12.5l7.5 -7.5
t3.5 -9.5q0 -1 -6 -13t-15.5 -23.5t-18.5 -11.5q-4 0 -7 1t-7 4q-13 14 -30 24t-29 10q-26 0 -37 -13t-11 -31q0 -21 28 -50.5t67 -61.5q45 -35 67.5 -74.5t22.5 -95.5q0 -49 -19 -91.5t-54 -75.5t-83 -54q-12 -5 -26.5 -7.5t-28.5 -2.5zM256 20q2 -2 4.5 -2t3.5 2
q4 12 5.5 24.5t0.5 24.5q0 31 -17 58.5t-52 57.5l-34.5 34.5t-37.5 42t-21 36.5q-1 2 -3.5 2t-3.5 -2q-6 -10 -8 -22.5t-2 -24.5q0 -34 22 -65t52 -57q14 -13 33 -31t36 -38.5t22 -39.5z" />
  </g>

</svg>
