<?xml version="1.0" standalone="no"?>
<!DOCTYPE svg PUBLIC "-//W3C//DTD SVG 1.1//EN" "http://www.w3.org/Graphics/SVG/1.1/DTD/svg11.dtd" >
<svg xmlns="http://www.w3.org/2000/svg" xmlns:xlink="http://www.w3.org/1999/xlink" version="1.1" viewBox="-16 0 550 1000">
  <g transform="matrix(1 0 0 -1 0 800)">
   <path fill="currentColor"
d="M441 -83q-24 0 -61.5 0.5t-83 2t-91.5 2t-88 0.5h-22t-14 -0.5t-21 -0.5t-42 -1q-6 0 -11 9t-9 18t-4 11q0 5 8.5 15.5t20.5 24t25 27.5l230 246v5l-281 355q-3 4 3.5 13t11.5 9q22 0 46 -0.5t49.5 -0.5t49 -0.5t43.5 -0.5h61t65.5 0.5t49.5 0.5q33 2 55 3.5t26 1.5
q6 0 13.5 -3t8.5 -12q5 -33 10.5 -65t5.5 -56q0 -9 -4 -13.5t-9 -4.5t-9.5 3.5t-7.5 10.5q-8 23 -15 40t-16 26q-12 14 -29 22t-41 8h-167q-10 -1 -13.5 -3.5t-3.5 -6.5q0 -3 1.5 -6.5t4.5 -6.5l201 -262q5 -7 2 -15t-7 -14l-219 -230q-14 -15 -10.5 -22t21.5 -7h175
q25 0 45.5 4.5t35.5 15.5q16 13 30 33t27 46q3 7 7.5 9.5t9.5 2.5q6 0 8.5 -5.5t2.5 -11.5q0 -14 -6.5 -39t-18 -65t-29.5 -99q-2 -7 -7.5 -10.5t-12.5 -3.5z" />
  </g>

</svg>
