<?xml version="1.0" standalone="no"?>
<!DOCTYPE svg PUBLIC "-//W3C//DTD SVG 1.1//EN" "http://www.w3.org/Graphics/SVG/1.1/DTD/svg11.dtd" >
<svg xmlns="http://www.w3.org/2000/svg" xmlns:xlink="http://www.w3.org/1999/xlink" version="1.1" viewBox="-10 0 523 1000">
  <g transform="matrix(1 0 0 -1 0 800)">
   <path fill="currentColor"
d="M169 -38q-23 0 -47.5 7t-41 18t-16.5 22t5.5 24t14.5 22.5t18 9.5t16.5 -5t14.5 -12q14 -14 32.5 -29.5t43.5 -15.5q34 0 62 18t46 50.5t18 76.5q0 40 -12 73t-35 53t-57 20q-21 0 -37.5 -6.5t-27.5 -12.5q-7 -4 -15.5 0.5t-7.5 11.5q5 17 15.5 28.5t22.5 17.5
q23 12 44.5 26t39 31t28 38t10.5 47q0 35 -23.5 61t-60.5 26q-32 0 -54 -12.5t-36 -29t-22 -29t-13 -12.5q-6 0 -13 7.5t-7 15.5q0 10 11 31t35 43t61.5 37.5t91.5 15.5q37 0 69 -14.5t52 -41t20 -62.5q0 -23 -12.5 -51.5t-40 -54t-72.5 -40.5q-3 -1 -3 -3.5t4 -2.5
q49 0 87 -20t60.5 -55t22.5 -82q0 -55 -24.5 -99t-66 -75.5t-93.5 -48.5t-107 -17z" />
  </g>

</svg>
