<?xml version="1.0" standalone="no"?>
<!DOCTYPE svg PUBLIC "-//W3C//DTD SVG 1.1//EN" "http://www.w3.org/Graphics/SVG/1.1/DTD/svg11.dtd" >
<svg xmlns="http://www.w3.org/2000/svg" xmlns:xlink="http://www.w3.org/1999/xlink" version="1.1" viewBox="-10 0 693 1000">
  <g transform="matrix(1 0 0 -1 0 800)">
   <path fill="currentColor"
d="M104 682q-7 0 -11 -1h-27q-13 0 -16 -11.5t9 -38.5q29 -64 65 -144t73.5 -163t71 -158.5t56.5 -129.5q19 -44 35 -39.5t30 45.5q19 53 45.5 121t55.5 140t56.5 139t49 119.5t31.5 79.5q8 19 2.5 28t-39.5 9q-10 0 -47.5 0.5t-90.5 0.5t-111 1t-110 1t-87 0.5t-41 0.5z
" />
  </g>

</svg>
