<?xml version="1.0" standalone="no"?>
<!DOCTYPE svg PUBLIC "-//W3C//DTD SVG 1.1//EN" "http://www.w3.org/Graphics/SVG/1.1/DTD/svg11.dtd" >
<svg xmlns="http://www.w3.org/2000/svg" xmlns:xlink="http://www.w3.org/1999/xlink" version="1.1" viewBox="-10 0 1058 1000">
  <g transform="matrix(1 0 0 -1 0 800)">
   <path fill="currentColor"
d="M80 506h41v-104h-41v104zM80 349h41v-104h-41v104zM80 193h41v-104h-41v104zM80 36h41v-104h-41v104zM856 -184h71v64h41v-105h-112v41zM243 622v41h103v-41h-103zM399 622v41h103v-41h-103zM554 622v41h103v-41h-103zM710 622v41h103v-41h-103zM968 -68h-41v104h41v-104
zM968 89h-41v104h41v-104zM968 245h-41v104h41v-104zM968 402h-41v104h41v-104zM807 -184v-41h-102v41h102zM653 -184v-41h-102v41h102zM499 -184v-41h-101v41h101zM345 -184v-41h-102v41h102zM191 -225h-111v105h41v-64h70v-41zM927 559v63h-71v41h112v-104h-41zM80 559
v104h112v-41h-71v-63h-41zM246 -2q-5 0 -11.5 3.5t-6.5 9.5q0 7 6.5 11.5t13.5 5.5q25 5 37.5 13.5t12.5 30.5v294q0 25 -10.5 37t-37.5 19q-8 2 -14 6.5t-6 13.5q0 5 6 8t11 3q16 0 36 -1t39.5 -2t35.5 -1t37 1t41.5 1.5t36.5 0.5q7 0 12.5 -3.5t5.5 -9.5q0 -7 -6 -11.5
t-14 -6.5q-28 -5 -37.5 -18t-9.5 -38v-103q0 -10 11 -10q26 0 45 -1.5t42 -1.5q20 0 42 1.5t45 1.5q9 0 9 10v102q0 26 -11 39t-37 19q-6 2 -12.5 6.5t-6.5 11.5t6 9.5t13 2.5q16 0 36 -0.5t40 -1.5t36 -1t36 1l40 2t36 1q6 0 12 -3t6 -8q0 -7 -5 -12t-14 -7
q-28 -7 -38.5 -18.5t-10.5 -37.5v-295q0 -22 13.5 -30.5t38.5 -13.5q8 -1 13.5 -5.5t5.5 -12.5q0 -6 -6 -9t-12 -3q-14 0 -34 1.5t-41 2t-38 0.5t-38.5 -0.5t-42.5 -1.5t-38 -1q-5 0 -11 3t-6 10q0 8 6 12t14 5q24 5 37 15t13 31v127q0 10 -9 10q-26 0 -47.5 0.5t-43.5 0.5
q-20 0 -40 -0.5t-44 -0.5q-10 0 -10 -12v-129q0 -21 13 -29.5t36 -13.5q7 -1 13 -4.5t6 -11.5q0 -6 -6.5 -9.5t-13.5 -3.5q-14 0 -34 1t-41.5 1.5t-38.5 0.5t-37.5 -0.5t-40 -2t-34.5 -1.5z" />
  </g>

</svg>
