<?xml version="1.0" standalone="no"?>
<!DOCTYPE svg PUBLIC "-//W3C//DTD SVG 1.1//EN" "http://www.w3.org/Graphics/SVG/1.1/DTD/svg11.dtd" >
<svg xmlns="http://www.w3.org/2000/svg" xmlns:xlink="http://www.w3.org/1999/xlink" version="1.1" viewBox="-10 0 1058 1000">
  <g transform="matrix(1 0 0 -1 0 800)">
   <path fill="currentColor"
d="M80 506h41v-104h-41v104zM80 349h41v-104h-41v104zM80 193h41v-104h-41v104zM80 36h41v-104h-41v104zM856 -184h71v64h41v-105h-112v41zM243 622v41h103v-41h-103zM399 622v41h103v-41h-103zM554 622v41h103v-41h-103zM710 622v41h103v-41h-103zM968 -68h-41v104h41v-104
zM968 89h-41v104h41v-104zM968 245h-41v104h41v-104zM968 402h-41v104h41v-104zM807 -184v-41h-102v41h102zM653 -184v-41h-102v41h102zM499 -184v-41h-101v41h101zM345 -184v-41h-102v41h102zM191 -225h-111v105h41v-64h70v-41zM927 559v63h-71v41h112v-104h-41zM80 559
v104h112v-41h-71v-63h-41zM336 -3q-7 0 -13 3.5t-6 9.5t5.5 11t15.5 6q21 5 33 14t12 31v296q0 25 -8.5 35.5t-37.5 17.5q-8 3 -13.5 8.5t-5.5 10.5t6 9t14 4q24 0 39.5 -2t31 -3.5t34.5 -1.5q26 0 54 3.5t67 3.5q91 0 140.5 -23.5t49.5 -79.5q0 -43 -23.5 -67t-60.5 -33
q-3 -1 -3 -3.5t3 -3.5q25 -4 51 -16t43.5 -35t17.5 -62q0 -50 -28.5 -79t-78 -41.5t-112.5 -12.5q-17 0 -39 1t-44.5 2t-40.5 1q-20 0 -44 -1t-41.5 -2zM563 38q41 0 61.5 25.5t20.5 64.5q0 27 -10 47t-32.5 30.5t-57.5 10.5q-5 0 -14 -2t-15.5 -7t-6.5 -15v-107
q0 -19 16 -33t38 -14zM542 254q28 0 48.5 8.5t32 26.5t11.5 45q0 29 -7.5 47t-24.5 26.5t-44 8.5q-20 0 -34.5 -7t-14.5 -22v-109q0 -11 10 -17.5t23 -6.5z" />
  </g>

</svg>
