<?xml version="1.0" standalone="no"?>
<!DOCTYPE svg PUBLIC "-//W3C//DTD SVG 1.1//EN" "http://www.w3.org/Graphics/SVG/1.1/DTD/svg11.dtd" >
<svg xmlns="http://www.w3.org/2000/svg" xmlns:xlink="http://www.w3.org/1999/xlink" version="1.1" viewBox="-10 0 1058 1000">
  <g transform="matrix(1 0 0 -1 0 800)">
   <path fill="currentColor"
d="M80 506h41v-104h-41v104zM80 349h41v-104h-41v104zM80 193h41v-104h-41v104zM80 36h41v-104h-41v104zM856 -184h71v64h41v-105h-112v41zM243 622v41h103v-41h-103zM399 622v41h103v-41h-103zM554 622v41h103v-41h-103zM710 622v41h103v-41h-103zM968 -68h-41v104h41v-104
zM968 89h-41v104h41v-104zM968 245h-41v104h41v-104zM968 402h-41v104h41v-104zM807 -184v-41h-102v41h102zM653 -184v-41h-102v41h102zM499 -184v-41h-101v41h101zM345 -184v-41h-102v41h102zM191 -225h-111v105h41v-64h70v-41zM927 559v63h-71v41h112v-104h-41zM80 559
v104h112v-41h-71v-63h-41zM434 -155q-30 0 -54 6.5t-37 16.5t-13 22t7.5 22.5t18 17.5t19.5 7q10 0 18 -5.5t16 -11.5q14 -15 21 -24t16 -9q24 0 36.5 29t12.5 96v354q0 25 -9.5 37t-39.5 18q-7 2 -13.5 6.5t-6.5 12.5t6.5 10.5t12.5 2.5q17 0 36.5 -1l39 -2t34.5 -1
q17 0 38 1t42.5 1.5t37.5 0.5q6 0 12 -3t6 -9q0 -8 -6.5 -11.5t-13.5 -5.5q-28 -7 -39 -19.5t-11 -36.5v-263q0 -42 -7 -78.5t-23.5 -67.5t-41.5 -59q-26 -26 -57 -40t-58 -14z" />
  </g>

</svg>
