<?xml version="1.0" standalone="no"?>
<!DOCTYPE svg PUBLIC "-//W3C//DTD SVG 1.1//EN" "http://www.w3.org/Graphics/SVG/1.1/DTD/svg11.dtd" >
<svg xmlns="http://www.w3.org/2000/svg" xmlns:xlink="http://www.w3.org/1999/xlink" version="1.1" viewBox="-10 0 1058 1000">
  <g transform="matrix(1 0 0 -1 0 800)">
   <path fill="currentColor"
d="M80 506h41v-104h-41v104zM80 349h41v-104h-41v104zM80 193h41v-104h-41v104zM80 36h41v-104h-41v104zM856 -184h71v64h41v-105h-112v41zM243 622v41h103v-41h-103zM399 622v41h103v-41h-103zM554 622v41h103v-41h-103zM710 622v41h103v-41h-103zM968 -68h-41v104h41v-104
zM968 89h-41v104h41v-104zM968 245h-41v104h41v-104zM968 402h-41v104h41v-104zM807 -184v-41h-102v41h102zM653 -184v-41h-102v41h102zM499 -184v-41h-101v41h101zM345 -184v-41h-102v41h102zM191 -225h-111v105h41v-64h70v-41zM927 559v63h-71v41h112v-104h-41zM80 559
v104h112v-41h-71v-63h-41zM326 -3q-7 0 -12.5 4.5t-5.5 10.5q0 8 7 12t14 6q22 5 34 13t12 31v291q0 25 -9 37t-37 18q-8 2 -13.5 6.5t-5.5 11.5t6 11t12 4q15 0 30.5 -1t31.5 -2t28 -1q36 0 76 0.5t76.5 1t63.5 1t37 0.5q6 0 12 -3t6 -12q1 -27 7 -52t6 -42q0 -5 -2.5 -10
t-7.5 -5q-4 0 -9.5 4t-9.5 13q-14 32 -27 50t-45 18h-69q-11 0 -21 -7t-10 -22v-117q0 -9 5 -15t13 -6h58q16 0 25 10t18 34q3 8 7 11.5t9 3.5t8 -5t1 -13q-2 -18 -2.5 -32.5t-0.5 -29.5t1 -26.5t2 -31.5q2 -10 -1 -16t-7 -6q-6 0 -11 7t-8 14q-5 22 -14 31t-22 9
q-14 1 -31 1h-32q-10 0 -14 -4t-4 -12v-117q0 -20 6 -26.5t25 -6.5h78q32 0 56 21t34 50q2 6 6.5 10.5t9.5 4.5q6 0 8.5 -5.5t2.5 -11.5q-1 -23 -7.5 -45.5t-13.5 -49.5q-2 -7 -8.5 -12t-14.5 -5q-20 0 -49.5 0.5t-63.5 1t-69 1t-68 0.5q-15 0 -34.5 -1t-38.5 -2t-34 -1z
" />
  </g>

</svg>
