<?xml version="1.0" standalone="no"?>
<!DOCTYPE svg PUBLIC "-//W3C//DTD SVG 1.1//EN" "http://www.w3.org/Graphics/SVG/1.1/DTD/svg11.dtd" >
<svg xmlns="http://www.w3.org/2000/svg" xmlns:xlink="http://www.w3.org/1999/xlink" version="1.1" viewBox="-10 0 554 1000">
  <g transform="matrix(1 0 0 -1 0 800)">
   <path fill="currentColor"
d="M353 -20q-8 0 -8 9q0 11 2.5 31t2.5 32q0 3 -0.5 5.5t-0.5 3.5q-31 -34 -72.5 -55t-87.5 -21q-32 0 -57.5 17t-40 47t-14.5 70v192q0 23 -9 36.5t-32 20.5q-6 1 -10.5 5t-4.5 12t4.5 12t10.5 5q40 2 69 7.5t62 13.5q4 2 8 3t8 1q13 0 12 -14q-3 -23 -5 -38.5t-2 -38.5
v-193q0 -24 9 -43t25 -30t35 -12q19 0 35.5 4t32.5 18q8 6 18 22.5t10 43.5v168q0 19 -8.5 30.5t-22 17.5t-27.5 6q-11 1 -17 5t-6 16q0 10 7 14t16 4q44 3 71 5t45.5 5t36.5 8q3 1 6.5 1.5t5.5 0.5q14 0 14 -11q0 -3 -0.5 -6.5t-2.5 -7.5q-1 -3 -2.5 -17t-3 -29t-1.5 -23
v-232q0 -24 5.5 -33t12.5 -9q6 0 17.5 0.5t16.5 0.5q8 0 13 -4t5 -13t-3.5 -13.5t-12.5 -5.5q-45 -4 -80 -15.5t-61 -22.5q-6 -2 -12.5 -4t-11.5 -2zM364 499q-25 0 -44.5 19.5t-19.5 44.5q0 27 19.5 46t44.5 19q28 0 47.5 -19t19.5 -46q0 -25 -19.5 -44.5t-47.5 -19.5z
M176 499q-26 0 -45 19.5t-19 44.5q0 27 19 46t45 19q27 0 46.5 -19t19.5 -46q0 -25 -19.5 -44.5t-46.5 -19.5z" />
  </g>

</svg>
