<?xml version="1.0" standalone="no"?>
<!DOCTYPE svg PUBLIC "-//W3C//DTD SVG 1.1//EN" "http://www.w3.org/Graphics/SVG/1.1/DTD/svg11.dtd" >
<svg xmlns="http://www.w3.org/2000/svg" xmlns:xlink="http://www.w3.org/1999/xlink" version="1.1" viewBox="-10 0 545 1000">
  <g transform="matrix(1 0 0 -1 0 800)">
   <path fill="currentColor"
d="M490 -4q9 0 16 3.5t7 9.5q0 15 -25 20q-38 8 -52.5 22t-14.5 47v440q0 38 12.5 56t48.5 26q14 3 20 8.5t6 11.5q0 7 -6.5 10.5t-17.5 3.5q-28 0 -54 -1t-51 -2t-51 -1h-78.5h-80.5t-68.5 5.5t-51.5 5.5q-6 0 -13.5 -3.5t-8.5 -12.5q-2 -19 -3 -43t-1.5 -46t-0.5 -35
q0 -20 11 -20q5 0 10.5 4t7.5 11q6 22 13.5 39.5t18.5 27.5q13 15 30.5 21t40.5 6h91q24 0 35.5 -13.5t11.5 -34.5v-43v-47v-49v-47q0 -10 -4.5 -16.5t-14.5 -6.5q-27 0 -54.5 1t-48.5 1q-24 0 -37.5 14t-21.5 34q-4 7 -9.5 12t-10.5 5t-9.5 -5t-3.5 -15q2 -19 3.5 -35.5
t1.5 -30.5q0 -18 -1 -32t-3 -37q-1 -11 1.5 -17t8.5 -6q8 0 14.5 8t8.5 16q8 27 20.5 37t28.5 10q12 0 24.5 0.5t23.5 0.5h30.5t30.5 -1q11 -1 17 -6.5t6 -17.5q0 -46 -0.5 -94t-1.5 -96q-1 -31 -17 -46t-56 -24q-13 -2 -19 -6.5t-6 -12.5q0 -7 5.5 -10t16.5 -3
q23 0 47.5 1.5t47 2.5t41.5 1q22 0 45 -1t46.5 -3t47.5 -2z" />
  </g>

</svg>
