<?xml version="1.0" standalone="no"?>
<!DOCTYPE svg PUBLIC "-//W3C//DTD SVG 1.1//EN" "http://www.w3.org/Graphics/SVG/1.1/DTD/svg11.dtd" >
<svg xmlns="http://www.w3.org/2000/svg" xmlns:xlink="http://www.w3.org/1999/xlink" version="1.1" viewBox="-10 0 635 1000">
  <g transform="matrix(1 0 0 -1 0 800)">
   <path fill="currentColor"
d="M336 -285q-22 0 -53.5 4t-63.5 21q-14 9 -19 24.5t-5 35.5q0 13 4.5 25t14.5 12q5 0 11.5 -6t17.5 -12t26 -9q16 -13 31 -24.5t32.5 -17t39.5 -2.5q31 8 57 32t41.5 60t15.5 83q0 44 -12.5 81t-39 59t-68.5 22q-33 0 -60.5 -5.5t-39.5 -5.5q-7 0 -7.5 5t-0.5 6q1 5 6 13
t9 16l150 226q2 4 2 7.5t-13 3.5h-177q-20 0 -29 -5t-9 -16v-225q0 -39 12 -61.5t40 -22.5t41 5.5t23 10.5q2 2 4.5 3t4.5 1q4 0 6.5 -5.5t2.5 -12.5q0 -6 -18.5 -21.5t-48.5 -28t-63 -12.5q-56 0 -87 32t-31 84v247q0 10 -6 13t-19 4h-15q-5 0 -9 9.5t-4 17.5q0 6 4 8
q23 8 46 23t43.5 32t33.5 31q7 5 15 9t16 4q7 0 10 -2.5t2 -11.5l-7 -48q-1 -10 6 -14t18 -4q38 0 67 0.5t52.5 0.5h44.5q53 0 98 1.5t83 2.5q7 0 11 -5.5t5 -13t-2 -11.5q-10 -13 -18.5 -25t-18.5 -28q-22 -33 -40.5 -61t-36.5 -56.5t-39 -63.5q-4 -7 -0.5 -10t10.5 -3
q5 0 10.5 1t7.5 1q45 0 79 -24t52.5 -63t18.5 -82q0 -34 -14.5 -67.5t-37.5 -63.5t-49.5 -54t-51.5 -38q-31 -17 -59 -26.5t-53 -9.5z" />
  </g>

</svg>
