<?xml version="1.0" standalone="no"?>
<!DOCTYPE svg PUBLIC "-//W3C//DTD SVG 1.1//EN" "http://www.w3.org/Graphics/SVG/1.1/DTD/svg11.dtd" >
<svg xmlns="http://www.w3.org/2000/svg" xmlns:xlink="http://www.w3.org/1999/xlink" version="1.1" viewBox="-10 0 866 1000">
  <g transform="matrix(1 0 0 -1 0 800)">
   <path fill="currentColor"
d="M42 -3q-8 0 -14 3.5t-6 9.5q0 8 7 12t16 7q15 5 27.5 13t12.5 28v283q-10 0 -23 0.5t-29 1.5q-5 1 -9.5 10t-4.5 16q0 3 3 5t5 3q17 6 30 11.5t28 13.5q2 69 26.5 117.5t61.5 79t78.5 44.5t77.5 14q63 0 99 -20.5t36 -46.5q0 -20 -15 -35.5t-32 -15.5q-9 0 -17 8t-18 19
q-13 15 -34 28.5t-55 13.5q-43 0 -70 -41t-27 -129v-15q0 -13 7.5 -17.5t17.5 -4.5h191q4 0 4 -11q0 -8 -2 -19.5t-4.5 -20t-6.5 -8.5h-167q-27 0 -33.5 -6.5t-6.5 -14.5v-261q0 -20 14 -29.5t35 -13.5q9 -2 15 -6.5t6 -12.5q0 -6 -5 -9.5t-13 -3.5q-20 0 -37.5 1.5t-34 2.5
t-34.5 1q-17 0 -32 -1t-31.5 -2.5t-36.5 -1.5zM331 -3q-6 0 -13 3t-7 9q0 8 7.5 12.5t15.5 7.5q15 5 27 12.5t12 28.5v283q-10 0 -23 0.5t-29 1.5q-5 1 -8.5 9.5t-3.5 16.5q0 7 10 10q15 5 27.5 10t26.5 13q4 84 30.5 140.5t67 89.5t84.5 47.5t82 14.5q41 0 71.5 -8
t48 -24.5t17.5 -41.5q0 -31 -16 -49t-39 -18q-13 0 -24 11.5t-21 27.5t-31 34t-56 18q-27 0 -50.5 -18t-37.5 -55t-14 -96v-53q0 -13 7.5 -16.5t17.5 -4.5q43 -4 84 -5.5t83 0.5q21 4 36.5 8t23.5 8q11 5 20 10t16 9q6 1 9.5 -2t3.5 -8q-1 -23 -5.5 -62t-4.5 -89v-213
q0 -18 11.5 -26t33.5 -15q8 -3 14.5 -7t6.5 -12q0 -6 -5.5 -8.5t-12.5 -2.5q-19 0 -36.5 1t-34 2t-34.5 1q-17 0 -33 -1t-32.5 -2.5t-36.5 -1.5q-6 0 -12 3t-6 9q0 8 6 12t14 7q21 6 33 13.5t12 26.5v221q0 32 -10.5 49t-34.5 19q-6 0 -18 0.5t-27 0.5q-12 0 -25 -0.5
t-24 -0.5q-28 -1 -34 -7.5t-6 -15.5v-262q0 -21 14.5 -29.5t34.5 -13.5q8 -3 14 -7.5t6 -12.5q0 -6 -6 -9t-11 -3q-20 0 -38 1.5t-34.5 2.5t-34.5 1q-17 0 -32 -1t-31 -2.5t-36 -1.5z" />
  </g>

</svg>
