<?xml version="1.0" standalone="no"?>
<!DOCTYPE svg PUBLIC "-//W3C//DTD SVG 1.1//EN" "http://www.w3.org/Graphics/SVG/1.1/DTD/svg11.dtd" >
<svg xmlns="http://www.w3.org/2000/svg" xmlns:xlink="http://www.w3.org/1999/xlink" version="1.1" viewBox="-10 0 602 1000">
  <g transform="matrix(1 0 0 -1 0 800)">
   <path fill="currentColor"
d="M164 -197q-7 0 -14 13t-12 32t-5 36q0 14 7.5 21t28.5 7h378q35 0 35 -17q0 -15 -15 -24t-35 -9h-254q-35 0 -53 -8t-32 -27q-8 -12 -13 -18t-16 -6zM303 -286q-6 0 -12 3t-6 9q0 8 7 12t16 7q22 7 35 15.5t13 29.5v224q0 14 -2 20t-4 6q-2 -1 -4.5 -1.5t-4.5 -2.5
q-12 -8 -32 -20t-43.5 -21t-45.5 -9q-53 0 -97 25.5t-70 71t-26 105.5q0 65 28.5 119.5t84 87t134.5 32.5q35 0 63 -6t47.5 -12t28.5 -6q10 0 18 5t14 13q4 2 6.5 4t5.5 2q8 0 13 -3.5t5 -8.5q0 -9 -6 -38t-6 -72l2 -521q0 -18 12 -25t31 -13q10 -3 16.5 -7.5t6.5 -12.5
q0 -6 -6.5 -9t-13.5 -3q-30 0 -53 2.5t-49 2.5q-17 0 -34 -1t-34.5 -2.5t-37.5 -1.5zM269 48q25 0 50 9t38 24v42.5v58t-0.5 57t-0.5 39.5q0 47 -30.5 78t-71.5 31q-29 0 -53 -22t-38.5 -60.5t-14.5 -89.5q0 -39 10 -70t27 -52.5t39 -33t45 -11.5z" />
  </g>

</svg>
