<?xml version="1.0" standalone="no"?>
<!DOCTYPE svg PUBLIC "-//W3C//DTD SVG 1.1//EN" "http://www.w3.org/Graphics/SVG/1.1/DTD/svg11.dtd" >
<svg xmlns="http://www.w3.org/2000/svg" xmlns:xlink="http://www.w3.org/1999/xlink" version="1.1" viewBox="-10 0 609 1000">
  <g transform="matrix(1 0 0 -1 0 800)">
   <path fill="currentColor"
d="M267 -3q-10 0 -16 3t-6 10q0 8 6.5 12.5t19.5 6.5q40 9 59 25.5t19 49.5v451q0 14 -3 26t-12 20q-7 7 -21 12.5t-30 5.5q-34 0 -61.5 -21.5t-44.5 -58t-18 -81.5q-1 -43 11.5 -85.5t36 -70.5t55.5 -28q15 0 24.5 2.5t15.5 2.5q5 0 10 -5.5t4 -9.5q0 -8 -13 -13.5t-33 -8
t-45 -2.5q-58 0 -97 20t-61.5 51.5t-32 65.5t-9.5 62q0 72 35.5 120.5t96 74t132.5 25.5q31 0 51 -2t38 -4.5t40 -2.5q21 0 41 1t41.5 2t45.5 1q11 0 17.5 -3.5t6.5 -10.5q0 -6 -6 -11.5t-20 -8.5q-36 -8 -50.5 -22t-14.5 -47v-452q0 -34 13 -47.5t50 -21.5q26 -5 26 -20
q0 -7 -7 -10t-16 -3q-25 0 -48.5 1.5l-47 3t-45.5 0.5q-19 0 -42 -1t-47 -2.5t-48 -1.5z" />
  </g>

</svg>
