<?xml version="1.0" standalone="no"?>
<!DOCTYPE svg PUBLIC "-//W3C//DTD SVG 1.1//EN" "http://www.w3.org/Graphics/SVG/1.1/DTD/svg11.dtd" >
<svg xmlns="http://www.w3.org/2000/svg" xmlns:xlink="http://www.w3.org/1999/xlink" version="1.1" viewBox="-10 0 909 1000">
  <g transform="matrix(1 0 0 -1 0 800)">
   <path fill="currentColor"
d="M143 -4q-9 0 -16 3.5t-7 9.5q0 15 25 20q36 8 48 22t12 47v472q0 16 -8.5 26t-27.5 10q-43 0 -69 -15.5t-26 -45.5q0 -13 7.5 -22.5t15.5 -16.5t15.5 -14.5t7.5 -17.5q0 -12 -11 -24.5t-24.5 -20.5t-22.5 -8q-14 0 -27 13.5t-22 33.5t-9 39q0 48 28.5 80t85 48t139.5 15
q28 0 52.5 1t48 2t47.5 1q10 0 16 -3.5t6 -10.5q0 -8 -6.5 -12.5t-19.5 -7.5q-39 -10 -52.5 -25t-13.5 -45v-181q0 -7 4.5 -9.5t10.5 -2.5h300q10 0 10 14v180q0 29 -12.5 44t-52.5 25q-13 3 -19 7.5t-6 12.5q0 7 6 10.5t15 3.5q24 0 48 -1t47 -2t43 -1q19 0 37 1t38.5 2
t44.5 1q9 0 16 -3.5t7 -9.5q0 -16 -25 -21q-36 -8 -46.5 -23t-10.5 -46v-453q0 -33 11 -47t47 -22q25 -5 25 -20q0 -6 -7 -9.5t-16 -3.5q-23 0 -44 1.5t-41.5 2.5t-40.5 1t-41.5 -1t-45 -2t-46.5 -1q-10 0 -16 3t-6 10q0 8 6 12t19 7q36 9 51 24t15 45v185q0 6 -1.5 11
t-8.5 5h-304q-11 0 -11 -15v-182q0 -30 17 -47t54 -26q13 -3 19 -7t6 -12q0 -7 -5.5 -10t-15.5 -3q-24 0 -48 1t-46.5 2t-43.5 1t-42 -1t-42.5 -2.5t-44.5 -1.5z" />
  </g>

</svg>
