<?xml version="1.0" standalone="no"?>
<!DOCTYPE svg PUBLIC "-//W3C//DTD SVG 1.1//EN" "http://www.w3.org/Graphics/SVG/1.1/DTD/svg11.dtd" >
<svg xmlns="http://www.w3.org/2000/svg" xmlns:xlink="http://www.w3.org/1999/xlink" version="1.1" viewBox="-10 0 868 1000">
  <g transform="matrix(1 0 0 -1 0 800)">
   <path fill="currentColor"
d="M42 -3q-8 0 -14 3.5t-6 9.5q0 8 7 12t16 7q15 5 27.5 13t12.5 28v283q-10 0 -23 0.5t-29 1.5q-5 1 -9.5 10t-4.5 16q0 3 3 5t5 3q17 6 30 11.5t28 13.5q2 69 26.5 117.5t61.5 79t78.5 44.5t77.5 14q63 0 99 -20.5t36 -46.5q0 -20 -15 -35.5t-32 -15.5q-9 0 -17 8t-18 19
q-13 15 -34 28.5t-55 13.5q-43 0 -70 -41t-27 -129v-15q0 -13 7.5 -17.5t17.5 -4.5h191q4 0 4 -11q0 -8 -2 -19.5t-4.5 -20t-6.5 -8.5h-167q-27 0 -33.5 -6.5t-6.5 -14.5v-261q0 -20 14 -29.5t35 -13.5q9 -2 15 -6.5t6 -12.5q0 -6 -5 -9.5t-13 -3.5q-20 0 -37.5 1.5t-34 2.5
t-34.5 1q-17 0 -32 -1t-31.5 -2.5t-36.5 -1.5zM331 -3q-6 0 -13 3t-7 9q0 8 7.5 12.5t15.5 7.5q15 5 27 12.5t12 28.5v283q-10 0 -24.5 0.5t-30.5 1.5q-5 1 -8.5 10.5t-3.5 15.5t7 8q17 6 31.5 11.5t28.5 13.5q3 84 29 140.5t64 89.5t80 47.5t78 14.5q24 0 43 -3.5t34 -12.5
q9 -4 16 -3.5t14 3.5q12 5 19.5 7.5t14.5 4.5q6 3 10 3q5 0 7 -3t2 -7q0 -8 -2.5 -30.5t-3.5 -60.5l1 -533q0 -22 12 -29t27 -12q10 -4 16.5 -8t6.5 -12q0 -6 -6 -9t-14 -3q-20 0 -36 1.5t-31 2t-33 0.5q-17 0 -31.5 -1t-30 -2.5t-35.5 -1.5q-7 0 -13.5 3t-6.5 9q0 8 7 12
t16 8q15 5 27.5 12t12.5 29v269q0 7 -4.5 12.5t-17.5 5.5h-120q-28 0 -34 -7t-6 -16v-262q0 -21 14.5 -29.5t34.5 -13.5q8 -3 14 -7.5t6 -12.5q0 -6 -6 -9t-11 -3q-20 0 -38 1.5t-34.5 2.5t-34.5 1q-17 0 -32 -1t-31 -2.5t-36 -1.5zM510 413h140q7 0 12 3.5t5 12.5v135
q0 22 -4 43.5t-17.5 35.5t-41.5 14q-31 0 -58.5 -18t-44 -57.5t-16.5 -102.5v-45q0 -13 7.5 -17t17.5 -4z" />
  </g>

</svg>
