<?xml version="1.0" standalone="no"?>
<!DOCTYPE svg PUBLIC "-//W3C//DTD SVG 1.1//EN" "http://www.w3.org/Graphics/SVG/1.1/DTD/svg11.dtd" >
<svg xmlns="http://www.w3.org/2000/svg" xmlns:xlink="http://www.w3.org/1999/xlink" version="1.1" viewBox="-10 0 754 1000">
  <g transform="matrix(1 0 0 -1 0 800)">
   <path fill="currentColor"
d="M303 -286q-6 0 -12 3t-6 9q0 8 7 12t16 7q22 7 35 15.5t13 29.5v209q0 14 -2 19.5t-4 5.5t-4.5 -1.5t-4.5 -3.5q-22 -13 -53.5 -23t-67.5 -10q-53 0 -97 25.5t-70 71t-26 105.5q0 65 28.5 119.5t84 87t134.5 32.5q35 0 63 -6t47.5 -12t28.5 -6q10 0 18 5t14 13q4 2 6.5 4
t5.5 2q8 0 13 -3.5t5 -8.5q0 -6 -3.5 -23t-6.5 -40q21 15 49.5 26.5t61.5 11.5q51 0 85.5 -23t34.5 -66q0 -18 -8.5 -44t-30.5 -52.5t-62 -46.5q-4 -1 -4 -4t4 -3q40 -2 66 -16.5t38.5 -37.5t12.5 -48q0 -51 -21 -89t-57 -65.5t-80 -47.5q-11 -5 -23.5 -9.5t-20.5 -4.5
q-17 0 -17 15q0 6 13.5 15t27.5 18q30 20 51 55t21 83q0 19 -7 39.5t-23 34.5t-45 14q-15 0 -30 -5.5t-25 -12.5t-12 -12l1 -293q0 -18 12 -25t31 -13q10 -3 16.5 -7.5t6.5 -12.5q0 -6 -6.5 -9t-13.5 -3q-30 0 -53 2.5t-49 2.5q-17 0 -34 -1t-34.5 -2.5t-37.5 -1.5zM269 36
q20 0 36 6t32 18q8 7 12 21.5t6 34.5t2 42v62.5t-1 57.5q0 47 -30.5 78t-71.5 31q-29 0 -53 -22t-38.5 -60.5t-14.5 -89.5q0 -39 10 -71.5t27 -57t39 -37.5t45 -13zM484 140q15 10 31.5 20t33.5 24q16 12 32 36.5t16 56.5q0 26 -18 42t-49 14q-14 0 -28 -6t-24.5 -14
t-14.5 -17l1 -145q0 -13 5 -15.5t15 4.5z" />
  </g>

</svg>
