<?xml version="1.0" standalone="no"?>
<!DOCTYPE svg PUBLIC "-//W3C//DTD SVG 1.1//EN" "http://www.w3.org/Graphics/SVG/1.1/DTD/svg11.dtd" >
<svg xmlns="http://www.w3.org/2000/svg" xmlns:xlink="http://www.w3.org/1999/xlink" version="1.1" viewBox="-10 0 545 1000">
  <g transform="matrix(1 0 0 -1 0 800)">
   <path fill="currentColor"
d="M283 -288q-26 0 -46 2t-45 12q-11 4 -24 14t-13 17q0 11 6 27t14.5 27.5t16.5 11.5q10 0 18.5 -8.5t17 -20t20.5 -20t30 -8.5q20 0 40 15t27 41q6 21 9.5 57t4.5 83t1 99q0 41 -0.5 79.5t-1 72.5t-0.5 58q0 38 -21 61t-51 23q-19 0 -37.5 -5.5t-33.5 -16.5
q-12 -9 -17.5 -21.5t-5.5 -40.5v-200q0 -20 11 -28.5t25 -13.5q8 -3 15 -7t7 -12q0 -7 -7 -10t-13 -3q-20 0 -35 1.5t-29 2.5t-32 1q-17 0 -31.5 -1t-29 -2.5t-34.5 -1.5q-8 0 -15 2.5t-7 9.5q0 8 7 12t16 8q15 5 28 11.5t13 28.5v486q0 27 -8 47t-34 25q-9 2 -9 15
q0 12 8 14q26 5 52.5 14t50.5 18t39 15q3 1 5 1.5t4 0.5q5 0 7 -3.5t2 -6.5q0 -6 -1.5 -16t-3 -27.5t-2.5 -47.5v-227q0 -7 2 -12.5t5 -5.5q13 12 37 27.5t55.5 28t64.5 12.5q34 0 60 -17t40.5 -47t14.5 -69q0 -35 0.5 -84t0.5 -102q0 -48 -2 -98.5t-6.5 -93.5t-13.5 -70
q-26 -75 -71 -104.5t-95 -29.5z" />
  </g>

</svg>
