<?xml version="1.0" standalone="no"?>
<!DOCTYPE svg PUBLIC "-//W3C//DTD SVG 1.1//EN" "http://www.w3.org/Graphics/SVG/1.1/DTD/svg11.dtd" >
<svg xmlns="http://www.w3.org/2000/svg" xmlns:xlink="http://www.w3.org/1999/xlink" version="1.1" viewBox="-10 0 1056 1000">
  <g transform="matrix(1 0 0 -1 0 800)">
   <path fill="currentColor"
d="M739 -218q-127 0 -127 55q0 19 16 36.5t31 17.5q12 0 23 -5.5t21 -18.5q16 -21 26 -32t22 -11q30 0 51 14.5t35 42t22.5 65t12.5 83.5t4 98q0 118 -29.5 172t-89.5 54q-33 0 -60.5 -8t-33.5 -13q-10 -8 -10 -27v-208q0 -32 16.5 -46t51.5 -22q26 -5 26 -20q0 -6 -7 -9.5
t-16 -3.5q-23 0 -45 1.5t-44 2.5t-43 1q-22 0 -46 -1t-48.5 -2t-48.5 -1q-10 0 -16 3t-6 10q0 8 6.5 12t18.5 7q38 11 54 25.5t17 43.5q3 121 3.5 245t-3.5 245q0 6 -3 9t-9 3h-129.5h-122.5q-10 0 -11 -14q-7 -120 -6.5 -243.5t6.5 -244.5q1 -29 17 -44t54 -25q13 -3 19 -7
t6 -12q0 -7 -5.5 -10t-15.5 -3q-24 0 -48 1t-46.5 2t-43.5 1q-23 0 -45.5 -1t-46 -2.5t-45.5 -1.5q-9 0 -16 3.5t-7 9.5q0 15 25 20q36 8 52 22t16 46v454q0 33 -13 47t-50 22q-25 5 -25 21q0 6 7 9.5t16 3.5q24 0 45.5 -1t41.5 -2t40 -1h65h92.5h100.5h91h63q21 0 41 1
t41.5 2t45.5 1q9 0 16 -3.5t7 -9.5q0 -16 -25 -21q-36 -8 -50.5 -22t-14.5 -47v-139q0 -19 2 -27.5t10 -8.5h4t4 1q20 10 50.5 18.5t69.5 8.5q63 0 113.5 -27.5t80 -83.5t29.5 -142q0 -72 -29.5 -144.5t-84.5 -129.5q-39 -46 -78 -70.5t-85 -24.5z" />
  </g>

</svg>
