<?xml version="1.0" standalone="no"?>
<!DOCTYPE svg PUBLIC "-//W3C//DTD SVG 1.1//EN" "http://www.w3.org/Graphics/SVG/1.1/DTD/svg11.dtd" >
<svg xmlns="http://www.w3.org/2000/svg" xmlns:xlink="http://www.w3.org/1999/xlink" version="1.1" viewBox="-10 0 722 1000">
  <g transform="matrix(1 0 0 -1 0 800)">
   <path fill="currentColor"
d="M430 -205q-13 0 -21 10.5t-10 29.5q-2 42 -8.5 81t-12 68t-5.5 41q0 14 15 16q37 4 59.5 17t22.5 46v203q0 11 -3 16t-5 3q-8 -7 -30.5 -20.5t-57.5 -25t-81 -11.5q-94 0 -143 38.5t-49 126.5v117q0 33 -10.5 47t-49.5 22q-26 5 -26 21q0 6 7 9.5t16 3.5q25 0 46.5 -1
t42 -2t40.5 -1q21 0 42.5 1t44 2t46.5 1q10 0 16 -3.5t6 -10.5q0 -8 -6.5 -12.5t-18.5 -7.5q-39 -10 -53 -25t-14 -44v-115q0 -49 27.5 -78t86.5 -29q25 0 49 6t43 14t27 14q4 3 5.5 8.5t1.5 13.5v166q0 30 -13.5 45.5t-52.5 23.5q-26 5 -26 21q0 6 7 9.5t16 3.5q24 0 47 -1
t45 -2t43 -1q19 0 39 1t42 2t46 1q10 0 15.5 -3.5t5.5 -10.5q0 -8 -6 -12.5t-19 -7.5q-39 -10 -49.5 -25t-10.5 -44v-452q0 -32 11.5 -46t49.5 -24q13 -3 19 -7t6 -12q0 -7 -5.5 -10t-16.5 -3q-23 0 -45 1t-42 2t-39 1q-40 0 -60 -22t-20 -81q0 -13 -0.5 -28t-0.5 -32
t-6 -30t-20 -13z" />
  </g>

</svg>
