<?xml version="1.0" standalone="no"?>
<!DOCTYPE svg PUBLIC "-//W3C//DTD SVG 1.1//EN" "http://www.w3.org/Graphics/SVG/1.1/DTD/svg11.dtd" >
<svg xmlns="http://www.w3.org/2000/svg" xmlns:xlink="http://www.w3.org/1999/xlink" version="1.1" viewBox="-10 0 804 1000">
  <g transform="matrix(1 0 0 -1 0 800)">
   <path fill="currentColor"
d="M601 -20q-6 0 -6 7q0 13 2.5 28t2.5 27v8t-1 5q-17 -18 -40.5 -34t-52.5 -25t-64 -9q-30 0 -53.5 15.5t-35.5 44.5q-6 13 -12 13q-5 0 -20 -17q-24 -24 -61 -40t-80 -16q-31 0 -54 16.5t-36 47t-13 69.5v193q0 21 -9 34.5t-32 20.5q-5 1 -10 5t-5 12t4.5 12t10.5 5
q38 2 66 7.5t57 12.5q5 2 10.5 3t11.5 2q15 1 14 -14q-4 -23 -5.5 -38.5t-1.5 -37.5v-193q0 -24 8.5 -43t23 -30.5t32.5 -12.5q19 0 36 5t31 19q7 6 13.5 22t6.5 44v167q0 25 -14.5 38.5t-40.5 14.5q-11 1 -17.5 5.5t-6.5 15.5q0 9 7.5 13.5t16.5 4.5q45 2 71.5 4.5t44 5.5
t31.5 7q4 1 8.5 2t7.5 1q14 0 14 -12q0 -4 -1.5 -9.5t-3.5 -11.5q-1 -4 -2 -14.5t-2.5 -23t-1.5 -21.5v-191q0 -24 8.5 -43t23.5 -30.5t32 -12.5q19 0 37.5 5t32.5 19q7 6 13.5 22t6.5 44v169q0 17 -8.5 27.5t-21.5 16.5t-27 7q-11 1 -17.5 5.5t-6.5 15.5q0 9 7.5 13.5
t16.5 4.5q45 2 72 4.5t44.5 5.5t32.5 7l8 2t7 1q15 0 15 -12q0 -4 -1.5 -9.5t-3.5 -11.5q-1 -4 -2.5 -15.5t-2.5 -24t-1 -19.5v-225q0 -26 4 -38.5t14 -12.5h17.5t16.5 1q7 0 12 -4t5 -13t-4 -13.5t-12 -5.5q-45 -4 -80 -15.5t-61 -22.5q-5 -2 -12.5 -4t-13.5 -2z" />
  </g>

</svg>
