<?xml version="1.0" standalone="no"?>
<!DOCTYPE svg PUBLIC "-//W3C//DTD SVG 1.1//EN" "http://www.w3.org/Graphics/SVG/1.1/DTD/svg11.dtd" >
<svg xmlns="http://www.w3.org/2000/svg" xmlns:xlink="http://www.w3.org/1999/xlink" version="1.1" viewBox="-10 0 714 1000">
  <g transform="matrix(1 0 0 -1 0 800)">
   <path fill="currentColor"
d="M136 -5q-11 0 -17.5 4t-6.5 10q0 13 26 19q35 9 51.5 22.5t16.5 46.5v470q0 21 -8 32.5t-29 11.5q-42 0 -68.5 -15t-26.5 -46q0 -13 7.5 -22t15.5 -17q8 -7 15.5 -14.5t7.5 -16.5q0 -13 -11 -25.5t-24.5 -20.5t-22.5 -8q-14 0 -27 13.5t-22 33.5t-9 39q0 49 28.5 80
t84 46.5t137.5 14.5q30 0 53.5 1.5t47 2.5t53.5 1q68 0 118 -14.5t78 -47.5t28 -88q0 -32 -13.5 -58.5t-31.5 -42.5q-16 -14 -32 -23.5t-39 -16.5q-4 -1 -4 -5t4 -5q25 -6 52 -16t50.5 -27.5t37.5 -46.5t14 -73q0 -56 -17.5 -88.5t-42 -49.5t-45.5 -28q-32 -16 -73 -24
t-95 -8q-27 0 -58 2t-66 2q-22 0 -45 -1t-45.5 -2.5t-46.5 -1.5zM402 46q33 0 61.5 19t47 51t18.5 71q0 37 -10.5 60.5t-24 38t-24.5 21.5q-9 7 -31 15t-54 8q-22 0 -36 -10t-14 -23v-185q0 -35 17.5 -50.5t49.5 -15.5zM377 369q22 0 45.5 5.5t46.5 22.5q9 7 22.5 30
t13.5 64q0 38 -11 66t-37 44t-69 16q-32 0 -42.5 -10.5t-10.5 -32.5v-169q0 -21 15 -28.5t27 -7.5z" />
  </g>

</svg>
