<?xml version="1.0" standalone="no"?>
<!DOCTYPE svg PUBLIC "-//W3C//DTD SVG 1.1//EN" "http://www.w3.org/Graphics/SVG/1.1/DTD/svg11.dtd" >
<svg xmlns="http://www.w3.org/2000/svg" xmlns:xlink="http://www.w3.org/1999/xlink" version="1.1" viewBox="-10 0 732 1000">
  <g transform="matrix(1 0 0 -1 0 800)">
   <path fill="currentColor"
d="M383 -14q-71 0 -134 24t-111.5 67.5t-76 103.5t-27.5 132q0 71 27.5 134t77.5 111.5t118.5 77t151.5 28.5q19 0 47 -3.5t58 -8.5t55.5 -11t39.5 -12q7 -3 11 -7.5t5 -12.5q5 -33 8 -63t3 -52q0 -8 -4.5 -14t-11.5 -6q-11 0 -16 7.5t-9 16.5q-8 18 -18 35.5t-25 33.5
q-10 10 -27.5 21.5t-44.5 19.5t-66 8q-55 0 -99 -22.5t-74 -62.5t-46 -90.5t-16 -105.5q0 -69 16 -124.5t45 -95t69 -60.5t90 -21q36 0 56.5 10.5t29.5 18.5q11 9 18 27t8 42q0 9 0.5 23l1 28t0.5 23q0 11 -3.5 19.5t-13.5 13.5q-9 7 -23 12.5t-28.5 8t-23.5 3.5
q-7 1 -15 6.5t-8 13.5t7.5 12t13.5 4q23 0 47.5 -1l49 -2t47.5 -1q28 0 55.5 2t56.5 2q6 0 12.5 -3.5t6.5 -12.5q0 -8 -7 -13t-13 -6q-27 -7 -36.5 -18t-12.5 -31q-4 -22 -5.5 -39t-1.5 -36v-31q0 -5 3.5 -9t7.5 -9t7.5 -10t3.5 -10q0 -6 -3.5 -12.5t-14.5 -8.5
q-7 -1 -27 -11t-50.5 -22.5t-71 -21.5t-90.5 -9zM371 683q-10 1 -10 8t9 19q23 32 46.5 62.5t49.5 60.5q12 14 31 12q8 0 24.5 -5t30 -12.5t12.5 -15.5q-2 -9 -17 -20q-35 -26 -76.5 -51.5t-76.5 -49.5q-8 -5 -14.5 -7t-8.5 -1z" />
  </g>

</svg>
