<?xml version="1.0" standalone="no"?>
<!DOCTYPE svg PUBLIC "-//W3C//DTD SVG 1.1//EN" "http://www.w3.org/Graphics/SVG/1.1/DTD/svg11.dtd" >
<svg xmlns="http://www.w3.org/2000/svg" xmlns:xlink="http://www.w3.org/1999/xlink" version="1.1" viewBox="-10 0 358 1000">
  <g transform="matrix(1 0 0 -1 0 800)">
   <path fill="currentColor"
d="M190 -14q32 0 61.5 8.5t53.5 25.5q7 14 10.5 44t3.5 59q0 12 -17 12q-7 0 -12 -4t-7 -9q-17 -44 -43 -70.5t-59 -26.5q-28 0 -44 17.5t-16 40.5q0 27 19.5 45t53.5 37q31 17 55.5 36t38.5 43.5t14 57.5q0 37 -19 65t-53.5 44t-79.5 16q-32 0 -57.5 -7t-35.5 -14
q-8 -10 -13 -36.5t-5 -55.5q0 -9 15 -9q7 0 14 4t9 8q13 37 33 56t46 19q23 0 41.5 -14.5t18.5 -40.5q0 -21 -17.5 -38t-50.5 -35q-63 -34 -91 -64.5t-28 -81.5q0 -61 42 -96.5t119 -35.5z" />
  </g>

</svg>
