<?xml version="1.0" standalone="no"?>
<!DOCTYPE svg PUBLIC "-//W3C//DTD SVG 1.1//EN" "http://www.w3.org/Graphics/SVG/1.1/DTD/svg11.dtd" >
<svg xmlns="http://www.w3.org/2000/svg" xmlns:xlink="http://www.w3.org/1999/xlink" version="1.1" viewBox="-10 0 598 1000">
  <g transform="matrix(1 0 0 -1 0 800)">
   <path fill="currentColor"
d="M412 129q46 0 80 -20.5t53 -56t19 -78.5q0 -41 -19.5 -86t-55 -84.5t-83 -64t-105.5 -24.5q-21 0 -54 4t-65 21q-15 9 -19.5 24.5t-4.5 35.5q0 13 4.5 25t14.5 12q7 0 13 -3.5t11 -9.5q16 -17 29.5 -30.5t29.5 -21.5t39 -8q27 0 53.5 14.5t48.5 39t35 56.5t13 67
q0 39 -13 72t-40 54t-69 21q-27 0 -56.5 -5.5t-42.5 -5.5q-7 0 -7 5t-1 6q1 5 5.5 13.5t9.5 15.5l148 241q2 3 2 6.5t-12 4.5q-18 0 -36 1t-36 1h-12h-12q-27 0 -46 -15.5t-29.5 -38.5t-10.5 -46v-203q0 -21 12 -27t27 -11q10 -4 16.5 -8t6.5 -12q0 -6 -6 -9t-14 -3
q-19 0 -35 1.5t-31.5 2t-33.5 0.5q-17 0 -31.5 -1t-29.5 -2.5t-35 -1.5q-8 0 -14 3t-6 9q0 8 6.5 12t16.5 8q15 5 27.5 11t12.5 27v488q0 28 -8.5 47.5t-33.5 24.5q-10 2 -10 15q0 12 9 14q25 5 51.5 14t50 18t38.5 14q7 3 11 3q5 0 6.5 -3.5t1.5 -6.5q0 -8 -3 -30.5
t-3 -60.5l1 -160q1 -17 11.5 -23.5t33.5 -6.5l94 1q55 0 102 1t93 2q7 0 11 -5.5t5 -13t-2 -11.5q-10 -13 -18.5 -25t-18.5 -28l-117 -195q-4 -7 -0.5 -10t10.5 -3q5 0 10.5 1t6.5 1z" />
  </g>

</svg>
