<?xml version="1.0" standalone="no"?>
<!DOCTYPE svg PUBLIC "-//W3C//DTD SVG 1.1//EN" "http://www.w3.org/Graphics/SVG/1.1/DTD/svg11.dtd" >
<svg xmlns="http://www.w3.org/2000/svg" xmlns:xlink="http://www.w3.org/1999/xlink" version="1.1" viewBox="-10 0 691 1000">
  <g transform="matrix(1 0 0 -1 0 800)">
   <path fill="currentColor"
d="M135 -4q-9 0 -16 3.5t-7 9.5q0 15 25 20q38 8 53.5 22t15.5 47v460q0 28 -8 40.5t-29 12.5q-43 0 -69 -15t-26 -46q0 -13 7.5 -22t15.5 -17q8 -7 15.5 -14.5t7.5 -16.5q0 -13 -11 -25.5t-24.5 -20.5t-22.5 -8q-14 0 -27 13.5t-22 33.5t-9 39q0 49 28.5 80t84 46t137.5 15
q17 0 38 2t43 4t42 2q82 1 144.5 -20.5t98.5 -65.5t36 -111q0 -66 -25.5 -116t-77 -79t-130.5 -29q-21 0 -37 6t-16 16q0 7 6 10.5t11 3.5q9 0 15 -1.5t17 -1.5q56 0 82 47t26 125q0 61 -17.5 99t-47 56t-66.5 18q-28 0 -44 -10.5t-16 -35.5v-468q0 -33 16 -49.5t57 -25.5
q12 -2 18.5 -6.5t6.5 -12.5q0 -7 -6 -10t-16 -3q-24 0 -48 1.5t-46.5 2.5t-41.5 1q-23 0 -46 -1t-47 -3t-48 -2z" />
  </g>

</svg>
