<?xml version="1.0" standalone="no"?>
<!DOCTYPE svg PUBLIC "-//W3C//DTD SVG 1.1//EN" "http://www.w3.org/Graphics/SVG/1.1/DTD/svg11.dtd" >
<svg xmlns="http://www.w3.org/2000/svg" xmlns:xlink="http://www.w3.org/1999/xlink" version="1.1" viewBox="-10 0 723 1000">
  <g transform="matrix(1 0 0 -1 0 800)">
   <path fill="currentColor"
d="M62 -205q-13 0 -19.5 10.5t-7.5 29.5q-3 42 -9 80t-11 67t-5 48q0 6 4 11t12 6q69 0 114.5 52.5t69 165t23.5 289.5q0 29 -18 42.5t-62 23.5q-25 5 -25 21q0 6 7 9.5t16 3.5q16 0 39 -1t47 -2t43 -1h40.5h31.5h35.5h52h80.5q21 0 43.5 1t46 2t46.5 1q11 0 16.5 -3.5
t5.5 -10.5q0 -8 -6 -12.5t-19 -7.5q-39 -10 -54.5 -24t-15.5 -46v-452q0 -15 9.5 -25t24 -16t29.5 -8t27 -2q9 -1 11.5 -6t2.5 -11q0 -12 -5 -42t-10.5 -70.5t-7.5 -82.5q-1 -19 -8 -29.5t-20 -10.5t-16 13t-5 30q-3 56 -11 92t-28 53t-58 17h-338q-39 0 -58.5 -17.5
t-27 -53.5t-10.5 -91q-1 -17 -4.5 -30t-17.5 -13zM183 41h228q27 0 35.5 10.5t8.5 30.5l-1 465q0 29 -10 45.5t-41 16.5h-77q-28 0 -37 -13t-9 -36q0 -103 -8 -183.5t-22.5 -141.5t-35 -104t-45.5 -72q-8 -9 -3 -13.5t17 -4.5z" />
  </g>

</svg>
