<?xml version="1.0" standalone="no"?>
<!DOCTYPE svg PUBLIC "-//W3C//DTD SVG 1.1//EN" "http://www.w3.org/Graphics/SVG/1.1/DTD/svg11.dtd" >
<svg xmlns="http://www.w3.org/2000/svg" xmlns:xlink="http://www.w3.org/1999/xlink" version="1.1" viewBox="-10 0 398 1000">
  <g transform="matrix(1 0 0 -1 0 800)">
   <path fill="currentColor"
d="M343 -3q8 0 14.5 3.5t6.5 8.5q0 8 -7 12.5t-16 7.5q-19 6 -28 13t-10 25v124q0 71 -30 123.5t-81.5 82t-116.5 29.5q-39 0 -55 -11.5t-16 -29.5q0 -14 7.5 -30t19 -27.5t25.5 -11.5q8 0 16.5 3.5t18.5 8.5q9 4 18.5 8t17.5 4q20 0 35 -7t22.5 -26.5t7.5 -57.5v-174
q0 -21 -15 -30.5t-38 -16.5q-9 -3 -15.5 -7t-6.5 -12q0 -6 6 -9t13 -3q20 0 38 1.5t35 2.5t35 1q17 0 32 -1t31 -2.5t36 -1.5z" />
  </g>

</svg>
