<?xml version="1.0" standalone="no"?>
<!DOCTYPE svg PUBLIC "-//W3C//DTD SVG 1.1//EN" "http://www.w3.org/Graphics/SVG/1.1/DTD/svg11.dtd" >
<svg xmlns="http://www.w3.org/2000/svg" xmlns:xlink="http://www.w3.org/1999/xlink" version="1.1" viewBox="-10 0 680 1000">
  <g transform="matrix(1 0 0 -1 0 800)">
   <path fill="currentColor"
d="M303 -286q-6 0 -12 3t-6 9q0 8 7 12t16 7q22 7 35 15.5t13 29.5v209q0 14 -2 19.5t-4 5.5t-4.5 -1.5t-4.5 -3.5q-22 -13 -53.5 -23t-67.5 -10q-53 0 -97 25.5t-70 71t-26 105.5q0 65 28.5 119.5t84 87t134.5 32.5q17 0 33 -2t29 -5q8 -1 12 1.5t4 9.5v25q0 80 31 136
t79.5 85t101.5 29q22 0 43 -4t35 -13.5t17 -26.5q2 -14 -6 -26.5t-17 -15.5q-9 -7 -19.5 -8t-21.5 6q-7 3 -12.5 10t-12 14.5t-15 12.5t-21.5 5q-32 0 -51.5 -42.5t-19.5 -119.5l2 -714q0 -18 12 -25t31 -13q10 -3 16.5 -7.5t6.5 -12.5q0 -6 -6.5 -9t-14.5 -3
q-30 0 -52.5 2.5t-48.5 2.5q-17 0 -33.5 -1t-34.5 -2.5t-38 -1.5zM269 36q20 0 36 6t32 18q8 7 12 21.5t6 34.5t2 42v62.5t-1 57.5q0 47 -30.5 78t-71.5 31q-29 0 -53 -22t-38.5 -60.5t-14.5 -89.5q0 -39 10 -71.5t27 -57t39 -37.5t45 -13z" />
  </g>

</svg>
