<?xml version="1.0" standalone="no"?>
<!DOCTYPE svg PUBLIC "-//W3C//DTD SVG 1.1//EN" "http://www.w3.org/Graphics/SVG/1.1/DTD/svg11.dtd" >
<svg xmlns="http://www.w3.org/2000/svg" xmlns:xlink="http://www.w3.org/1999/xlink" version="1.1" viewBox="-107 0 214 1000">
  <g transform="matrix(1 0 0 -1 0 800)">
   <path fill="currentColor"
d="M-65 361q-12 0 -22 4t-10 11q0 10 7 18t20 9q20 2 40.5 5.5t35 9.5t14.5 17q0 12 -6.5 17.5t-14.5 10.5q-11 7 -18.5 15t-7.5 26q0 19 18.5 29t46.5 10q30 0 44.5 -19t14.5 -44q0 -35 -21 -61.5t-57.5 -42t-83.5 -15.5z" />
  </g>

</svg>
