<?xml version="1.0" standalone="no"?>
<!DOCTYPE svg PUBLIC "-//W3C//DTD SVG 1.1//EN" "http://www.w3.org/Graphics/SVG/1.1/DTD/svg11.dtd" >
<svg xmlns="http://www.w3.org/2000/svg" xmlns:xlink="http://www.w3.org/1999/xlink" version="1.1" viewBox="-10 0 472 1000">
  <g transform="matrix(1 0 0 -1 0 800)">
   <path fill="currentColor"
d="M209 -14q-49 0 -90.5 26.5t-66.5 73.5t-25 108q0 62 28.5 114.5t78 85t113.5 32.5q6 0 16 -1t14 -2q-13 20 -23 45t-10 56q0 25 18 49t44.5 40t50.5 16t50 -8t37 -22q8 -11 8 -22q0 -18 -12 -35t-28 -17q-9 0 -16.5 7.5l-16.5 16.5q-9 11 -21 21t-29 10q-16 0 -25 -12
t-9 -27q0 -30 18.5 -58t37.5 -49q14 -16 24.5 -27t10.5 -16q0 -13 -8 -30t-20 -29.5t-22 -12.5q-16 0 -25 12q-18 25 -39 36t-54 11q-32 0 -52.5 -18.5t-30.5 -49.5t-10 -69q0 -48 17.5 -83.5t49 -54.5t73.5 -19q33 0 57.5 12t39.5 35q5 8 12 8q5 0 8.5 -4t3.5 -11
q0 -6 -3 -13.5t-7 -15.5q-12 -29 -35.5 -54t-56 -40t-75.5 -15z" />
  </g>

</svg>
