<?xml version="1.0" standalone="no"?>
<!DOCTYPE svg PUBLIC "-//W3C//DTD SVG 1.1//EN" "http://www.w3.org/Graphics/SVG/1.1/DTD/svg11.dtd" >
<svg xmlns="http://www.w3.org/2000/svg" xmlns:xlink="http://www.w3.org/1999/xlink" version="1.1" viewBox="-10 0 714 1000">
  <g transform="matrix(1 0 0 -1 0 800)">
   <path fill="currentColor"
d="M337 -17q-6 0 -11.5 8.5t-10.5 21.5t-10 25q-11 25 -18.5 44t-14.5 37t-16 40l-152 381q-11 28 -30 49.5t-47 29.5q-12 4 -19.5 8.5t-7.5 12.5q0 7 7 10.5t17 3.5q18 0 42.5 -1t49.5 -2t46 -1q20 0 46 1t50.5 2t41.5 1q10 0 19 -3.5t9 -10.5q0 -8 -9 -13t-22 -8
q-26 -5 -42.5 -13.5t-16.5 -29.5q0 -5 1.5 -12t3.5 -14l126 -347q5 -16 11 -16t12 17l102 299q19 56 37 89t36 49t34.5 21t32.5 5q31 0 45.5 -15t14.5 -37q0 -24 -17 -47q-36 5 -62 -3.5t-44 -31t-34 -61.5q-17 -43 -33 -87t-31.5 -91.5t-36.5 -101.5q-8 -25 -17 -47.5
t-18.5 -48.5t-24.5 -61q-5 -12 -12 -24t-13.5 -20t-13.5 -8z" />
  </g>

</svg>
