<?xml version="1.0" standalone="no"?>
<!DOCTYPE svg PUBLIC "-//W3C//DTD SVG 1.1//EN" "http://www.w3.org/Graphics/SVG/1.1/DTD/svg11.dtd" >
<svg xmlns="http://www.w3.org/2000/svg" xmlns:xlink="http://www.w3.org/1999/xlink" version="1.1" viewBox="-25 0 433 1000">
  <g transform="matrix(1 0 0 -1 0 800)">
   <path fill="currentColor"
d="M19 -287q-13 0 -23.5 5t-10.5 14q0 10 5 16.5t11 9.5q16 6 31.5 18t28.5 40q10 22 16 54.5t9.5 69t4.5 70.5t1 58v103h-56q-16 0 -16 19q0 10 6.5 22.5t18.5 12.5h47v67q0 18 -11 32t-26 22.5t-29 10.5q-9 1 -12.5 6t-3.5 12t3 11.5t8 4.5q3 0 15 1.5t26.5 4.5t21.5 6
q5 2 6.5 7.5t1.5 9.5v27q0 83 30 140.5t78 88t102 30.5q22 0 43 -4t35 -13.5t17 -26.5q2 -14 -5.5 -26.5t-17.5 -15.5q-8 -7 -19 -8t-22 6q-6 3 -12 10t-12 14.5t-15 12.5t-22 5q-31 0 -50.5 -42t-19.5 -120l1 -273h57q7 0 12.5 -4.5t5.5 -11.5q0 -14 -10 -26t-25 -12h-40
v-80q0 -31 -2 -72.5t-9 -86t-25 -84.5q-13 -34 -38.5 -65t-55 -50.5t-54.5 -19.5z" />
  </g>

</svg>
