<?xml version="1.0" standalone="no"?>
<!DOCTYPE svg PUBLIC "-//W3C//DTD SVG 1.1//EN" "http://www.w3.org/Graphics/SVG/1.1/DTD/svg11.dtd" >
<svg xmlns="http://www.w3.org/2000/svg" xmlns:xlink="http://www.w3.org/1999/xlink" version="1.1" viewBox="-10 0 518 1000">
  <g transform="matrix(1 0 0 -1 0 800)">
   <path fill="currentColor"
d="M256 -288q-37 0 -66 17t-44.5 45t-15.5 62t9.5 64.5t24.5 57.5t28 50l25 37l-141 286q-10 20 -21 35t-28 20q-9 4 -14.5 8.5t-5.5 11.5q0 8 8 9.5t14 1.5q23 0 37 -1t26 -2t26 -1q21 0 34 1t27.5 2t36.5 1q6 0 14 -2.5t8 -9.5t-7.5 -11t-14.5 -7q-11 -4 -19.5 -12
t-8.5 -24q0 -8 4.5 -19.5t9.5 -24.5l79 -157q2 -5 3 0l74 154q4 9 7.5 20.5t3.5 20.5q0 16 -8.5 26.5t-23.5 15.5q-8 3 -15.5 7t-7.5 11t8 9.5t14 2.5q22 0 38.5 -2t34.5 -2q19 0 31.5 2t34.5 2q6 0 14.5 -1.5t8.5 -9.5q0 -7 -5.5 -11.5t-14.5 -8.5q-18 -5 -32.5 -22.5
t-25.5 -40.5l-108 -226l35 -66q9 -16 22.5 -47t24 -65t10.5 -60q0 -38 -17.5 -72t-50 -54.5t-80.5 -20.5zM249 -242q26 0 37.5 22t11.5 47q0 37 -14 70t-27 59l-13 23l-12 -23q-4 -7 -13.5 -25.5t-18 -42t-8.5 -46.5q0 -20 5.5 -39.5t18 -32t33.5 -12.5z" />
  </g>

</svg>
