<?xml version="1.0" standalone="no"?>
<!DOCTYPE svg PUBLIC "-//W3C//DTD SVG 1.1//EN" "http://www.w3.org/Graphics/SVG/1.1/DTD/svg11.dtd" >
<svg xmlns="http://www.w3.org/2000/svg" xmlns:xlink="http://www.w3.org/1999/xlink" version="1.1" viewBox="-10 0 366 1000">
  <g transform="matrix(1 0 0 -1 0 800)">
   <path fill="currentColor"
d="M40 -4q-9 0 -16 3.5t-7 9.5q0 15 25 20q38 8 55 22t17 46v454q0 33 -14 47t-53 22q-25 5 -25 21q0 6 7 9.5t16 3.5q24 0 47 -1t44.5 -2t43.5 -1q21 0 42.5 1t44.5 2t47 1q10 0 16 -3.5t6 -10.5q0 -8 -6.5 -12.5t-18.5 -7.5q-40 -10 -54 -24t-14 -46v-452q0 -31 16.5 -45
t54.5 -24q13 -3 19.5 -7t6.5 -12q0 -7 -6 -10t-16 -3q-24 0 -48 1t-46.5 2t-43.5 1q-22 0 -45 -1t-47 -2.5t-48 -1.5zM40 839q6 0 22 -5.5t36.5 -14t39.5 -17t30 -14.5q7 -4 12 -4t12 4q11 6 30 15t39.5 17.5t37 14t22.5 5.5q16 0 16 -13q0 -8 -8 -14l-101 -88
q-17 -14 -26 -20t-22 -6t-21.5 6t-25.5 20l-102 88q-9 7 -9 14q0 12 18 12z" />
  </g>

</svg>
