<?xml version="1.0" standalone="no"?>
<!DOCTYPE svg PUBLIC "-//W3C//DTD SVG 1.1//EN" "http://www.w3.org/Graphics/SVG/1.1/DTD/svg11.dtd" >
<svg xmlns="http://www.w3.org/2000/svg" xmlns:xlink="http://www.w3.org/1999/xlink" version="1.1" viewBox="-10 0 413 1000">
  <g transform="matrix(1 0 0 -1 0 800)">
   <path fill="currentColor"
d="M40 282q-4 0 -9 3t-5 7q0 6 4.5 9.5t11.5 5.5q10 3 18 6.5t8 16.5v297q0 16 -4 27.5t-21 15.5q-10 2 -10 11q0 11 8 13q30 6 53.5 13.5t47.5 17.5q5 0 11.5 -2t8.5 -5q0 -8 -2.5 -24.5t-2.5 -65.5v-106q0 -3 1 -7.5t2 -5.5q16 15 41.5 28t57.5 13q37 0 61 -25t24 -62
v-132q0 -12 7.5 -16.5t17.5 -7.5q6 -2 10.5 -5.5t4.5 -9.5q0 -3 -5.5 -6.5t-10.5 -3.5q-21 0 -35 1t-33 1h-23.5t-19 -1t-23.5 -1q-6 0 -12 3t-6 8t5 8.5t9 5.5q9 2 17 7t8 19v109q0 22 -12 37t-30 15q-12 0 -22 -2t-20 -8q-8 -4 -10.5 -10.5t-2.5 -20.5v-122q0 -12 6 -16.5
t15 -7.5q6 -1 10 -5t4 -9q0 -4 -4 -7.5t-9 -3.5q-17 0 -35.5 1t-34.5 1t-34 -1t-36 -1z" />
  </g>

</svg>
