<?xml version="1.0" standalone="no"?>
<!DOCTYPE svg PUBLIC "-//W3C//DTD SVG 1.1//EN" "http://www.w3.org/Graphics/SVG/1.1/DTD/svg11.dtd" >
<svg xmlns="http://www.w3.org/2000/svg" xmlns:xlink="http://www.w3.org/1999/xlink" version="1.1" viewBox="-10 0 530 1000">
  <g transform="matrix(1 0 0 -1 0 800)">
   <path fill="currentColor"
d="M203 -288q-26 0 -55 8t-54.5 20.5t-42 28.5t-16.5 32q0 12 9 31t22 33.5t24 14.5q10 0 22.5 -14t25.5 -33q11 -15 25 -31t30 -27t34 -11q31 0 60.5 19t49 55.5t19.5 90.5v69q0 14 -2 20t-4 6t-4.5 -1.5t-4.5 -3.5q-22 -13 -53.5 -23t-67.5 -10q-53 0 -97 25.5t-70 71
t-26 105.5q0 65 28.5 119.5t84 87t134.5 32.5q25 0 45.5 -3t38.5 -8q19 -5 33 -9t22 -4q10 0 18 6t16 14q6 4 10 4q8 0 13 -3.5t5 -8.5q0 -9 -6 -36.5t-6 -73.5v-269q0 -91 -23.5 -153.5t-62 -100t-84.5 -54t-90 -16.5zM269 36q20 0 36 6t32 18q11 9 15 29t5 52l-1 137
q0 47 -30.5 78t-71.5 31q-29 0 -53 -22t-38.5 -60.5t-14.5 -89.5q0 -39 10 -71.5t27 -57t39 -37.5t45 -13z" />
  </g>

</svg>
