<?xml version="1.0" standalone="no"?>
<!DOCTYPE svg PUBLIC "-//W3C//DTD SVG 1.1//EN" "http://www.w3.org/Graphics/SVG/1.1/DTD/svg11.dtd" >
<svg xmlns="http://www.w3.org/2000/svg" xmlns:xlink="http://www.w3.org/1999/xlink" version="1.1" viewBox="-154 0 308 1000">
  <g transform="matrix(1 0 0 -1 0 800)">
   <path fill="currentColor"
d="M0 683q-11 0 -21 7.5t-25 18.5l-90 75q-8 7 -8 14q0 12 18 12q8 0 26 -5.5t41.5 -14.5t46.5 -19q11 -5 24 0q25 11 48 19.5t40.5 14t25.5 5.5q18 0 18 -12q0 -8 -8 -14l-90 -75q-15 -11 -25 -18.5t-21 -7.5z" />
  </g>

</svg>
