<?xml version="1.0" standalone="no"?>
<!DOCTYPE svg PUBLIC "-//W3C//DTD SVG 1.1//EN" "http://www.w3.org/Graphics/SVG/1.1/DTD/svg11.dtd" >
<svg xmlns="http://www.w3.org/2000/svg" xmlns:xlink="http://www.w3.org/1999/xlink" version="1.1" viewBox="-10 0 537 1000">
  <g transform="matrix(1 0 0 -1 0 800)">
   <path fill="currentColor"
d="M262 -288q-14 0 -24 3.5t-10 9.5q0 8 5 12.5t12 7.5q17 7 31.5 19t28.5 40q10 22 16.5 54.5t9.5 69t4 70.5t1 58l1 281q0 15 -6.5 25t-19.5 10h-67q-15 0 -19.5 -13t-4.5 -23q0 -40 -4 -87.5t-13 -94t-24.5 -84.5t-38.5 -61t-53 -23q-41 0 -61 19t-20 43q0 20 12.5 35.5
t33.5 15.5q12 0 22 -5t18 -13q7 -6 13 -11.5t13 -5.5q14 0 25 27t19 69t12.5 88t4.5 85q0 27 -14.5 35.5t-37.5 13.5q-9 2 -16 6.5t-7 13.5q0 6 8 10.5t13 4.5q25 0 45.5 -2t42.5 -2h188q23 0 42.5 2t44.5 2q5 0 12.5 -4.5t7.5 -10.5q0 -8 -6 -13t-13 -7q-20 -5 -30.5 -13.5
t-10.5 -38.5v-240q0 -31 -2 -72.5t-9 -86t-25 -84.5q-13 -34 -39 -65t-55.5 -50.5t-55.5 -19.5z" />
  </g>

</svg>
