<?xml version="1.0" standalone="no"?>
<!DOCTYPE svg PUBLIC "-//W3C//DTD SVG 1.1//EN" "http://www.w3.org/Graphics/SVG/1.1/DTD/svg11.dtd" >
<svg xmlns="http://www.w3.org/2000/svg" xmlns:xlink="http://www.w3.org/1999/xlink" version="1.1" viewBox="-177 0 479 1000">
  <g transform="matrix(1 0 0 -1 0 800)">
   <path fill="currentColor"
d="M275 -288q-8 0 -14.5 7t-12.5 16q-11 17 -37 45t-64 56q-15 -30 -39 -58.5t-57 -46.5t-78 -18q-36 0 -68.5 11.5t-52 34t-19.5 52.5q0 38 25 67t64.5 45.5t81.5 16.5q16 0 32 -2.5t31 -7.5q5 37 6 75t1 63v214q0 32 -10.5 48t-34.5 20q-5 1 -7.5 5.5t-2.5 10.5
q0 13 10 15q47 10 83.5 28t55.5 27q14 7 18 7q11 0 11 -10q-3 -29 -7 -72t-4 -79v-191q0 -27 -1.5 -64.5t-5.5 -76t-15 -67.5q39 -28 67.5 -57.5t44.5 -52t16 -31.5q0 -10 -3.5 -20t-13.5 -10zM-16 -224q11 0 30 9t32 41q5 9 8.5 22t6.5 26q-18 8 -38 12t-41 4
q-14 0 -31 -5.5t-29.5 -16.5t-12.5 -29q0 -26 18 -44.5t57 -18.5zM125 499q-28 0 -48.5 20.5t-20.5 48.5q0 30 20.5 50.5t48.5 20.5q30 0 50.5 -20.5t20.5 -50.5q0 -28 -20.5 -48.5t-50.5 -20.5z" />
  </g>

</svg>
