<?xml version="1.0" standalone="no"?>
<!DOCTYPE svg PUBLIC "-//W3C//DTD SVG 1.1//EN" "http://www.w3.org/Graphics/SVG/1.1/DTD/svg11.dtd" >
<svg xmlns="http://www.w3.org/2000/svg" xmlns:xlink="http://www.w3.org/1999/xlink" version="1.1" viewBox="-10 0 769 1000">
  <g transform="matrix(1 0 0 -1 0 800)">
   <path fill="currentColor"
d="M642 -21q-43 0 -75 9.5t-55 27.5t-42 42q-22 30 -42 54.5t-40.5 55.5t-48.5 78q-6 12 -18 21t-24 13q-10 4 -21.5 6t-20.5 3q-12 0 -12 -19v-167q0 -31 16.5 -48t56.5 -26q13 -2 19 -6.5t6 -12.5q0 -7 -5.5 -10t-16.5 -3q-23 0 -47 1.5t-46.5 2.5t-42.5 1q-22 0 -45.5 -1
t-47.5 -3t-48 -2q-9 0 -16 3.5t-7 9.5q0 15 25 20q38 8 54 22t16 47v440q0 38 -12.5 56t-48.5 26q-14 3 -20 8.5t-6 11.5q0 7 6.5 10.5t17.5 3.5q30 0 48 -1t34.5 -2.5t39.5 -1.5q22 0 39 2t38 4t54 2q116 0 176.5 -41t60.5 -123q0 -45 -17 -77t-44 -53.5t-57 -35.5
q-4 -1 -3.5 -4.5t2.5 -7.5q31 -46 58 -85t56.5 -74t66.5 -69q31 -29 63.5 -34.5t67.5 -5.5q15 0 15 -15q0 -20 -15 -31.5t-39.5 -16.5t-52.5 -5zM58 291q-6 0 -11.5 5t-5.5 12q0 11 7.5 24t22.5 13h173q7 0 13 -4.5t6 -11.5q0 -1 -0.5 -2.5t-0.5 -3.5q-2 -10 -11 -21
t-23 -11h-170zM286 345q41 0 68.5 17t42 47t14.5 66q0 45 -10 77t-34.5 49t-66.5 17q-33 0 -44 -13.5t-11 -36.5q-1 -33 -1.5 -62t-0.5 -59v-65q0 -22 11.5 -29.5t31.5 -7.5z" />
  </g>

</svg>
