<?xml version="1.0" standalone="no"?>
<!DOCTYPE svg PUBLIC "-//W3C//DTD SVG 1.1//EN" "http://www.w3.org/Graphics/SVG/1.1/DTD/svg11.dtd" >
<svg xmlns="http://www.w3.org/2000/svg" xmlns:xlink="http://www.w3.org/1999/xlink" version="1.1" viewBox="-11 0 529 1000">
  <g transform="matrix(1 0 0 -1 0 800)">
   <path fill="currentColor"
d="M271 -270q-6 0 -12 3.5t-6 9.5q0 8 6.5 12t15.5 7q22 6 35 14.5t13 30.5v363q0 12 -8 11q-5 -1 -10.5 -4t-11.5 -9q-26 -21 -47.5 -44t-36 -40.5t-20.5 -27.5q-3 -4 -4 -9t2 -7q4 -4 12 -9t17 -9q4 -4 0 -7t-6 -6q-3 -5 -15.5 -7t-22.5 -2q-17 0 -32 -1t-28 -1
q-12 0 -31.5 -0.5t-37.5 -0.5h-25q-3 4 -1.5 7.5t5.5 7.5q7 7 19.5 13t24.5 11q10 3 25 14t32 26t32 27q5 4 16.5 13t25 21.5t22.5 26.5q-8 18 -21.5 35t-25.5 30t-18 19q-18 23 -32 40t-28.5 33t-33.5 33q-12 12 -29 22t-26 17q-5 6 -5.5 8t0.5 7q9 3 16 4.5t16 1.5h24h82
h73q7 0 14 -2.5t7 -10.5q0 -7 -6 -11.5t-15 -7.5q-8 -3 -12.5 -5.5t-5.5 -8.5q0 -4 5 -11t12 -15l103 -134q3 -3 6.5 -1t3.5 7v30v32v35v35q0 18 -8 25.5t-24 12.5q-7 3 -14 8t-7 12q0 6 5.5 9.5t12.5 3.5q20 0 34.5 -1t28 -2.5t29.5 -1.5q18 0 32 1.5t29 2.5t34 1
q22 0 22 -13q0 -7 -7 -11.5t-16 -7.5q-15 -5 -27.5 -12t-12.5 -28v-544q0 -18 12.5 -25.5t31.5 -13.5q9 -3 16 -7t7 -12q0 -7 -6.5 -10t-13.5 -3q-31 0 -54.5 2.5t-49.5 2.5q-17 0 -33.5 -1t-34.5 -2.5t-38 -1.5z" />
  </g>

</svg>
