<?xml version="1.0" standalone="no"?>
<!DOCTYPE svg PUBLIC "-//W3C//DTD SVG 1.1//EN" "http://www.w3.org/Graphics/SVG/1.1/DTD/svg11.dtd" >
<svg xmlns="http://www.w3.org/2000/svg" xmlns:xlink="http://www.w3.org/1999/xlink" version="1.1" viewBox="-10 0 510 1000">
  <g transform="matrix(1 0 0 -1 0 800)">
   <path fill="currentColor"
d="M73 202q-8 0 -13 5t-5 13q0 12 9 24t21 12h354q7 0 12.5 -4.5t5.5 -11.5q0 -10 -11.5 -24t-27.5 -14h-345zM40 -4q-7 0 -15 2t-8 9q0 8 5.5 12.5t15.5 7.5q12 4 25 14.5t33 37.5l87 120q7 8 6.5 13t-4.5 12l-78 115q-13 20 -22.5 31.5t-25.5 16.5q-9 3 -14.5 7.5
t-5.5 12.5t9 9.5t15 1.5q22 0 33.5 -1.5t23.5 -2.5t35 -1q26 0 41.5 2t43.5 2q6 0 14.5 -2t8.5 -10t-6.5 -11t-14.5 -6t-16.5 -7.5t-8.5 -14.5q0 -5 3.5 -13.5t9.5 -17.5l46 -67q4 -9 9 0l37 61q5 8 8.5 18t2.5 18q0 15 -16 21q-8 3 -14.5 6.5t-6.5 11.5t9 10t14 2
q20 0 34 -1t26 -1q19 0 30.5 2t33.5 2q6 0 14 -1.5t8 -8.5q0 -9 -5.5 -13t-14.5 -8q-12 -4 -27.5 -14t-32.5 -34l-69 -95q-5 -7 -4.5 -11.5t4.5 -11.5l88 -140q13 -20 28 -33t32 -20q9 -3 14.5 -7t5.5 -13q0 -7 -8 -8.5t-14 -1.5q-22 0 -37 1t-30 2.5t-38 1.5q-26 0 -49 -2
t-51 -2q-23 0 -23 12q0 9 6 12.5t17 6.5q12 4 20.5 11t8.5 23q0 7 -2 13.5t-8 16.5l-54 81q-3 3 -6 0l-53 -88q-3 -4 -7 -13.5t-4 -18.5q0 -10 4 -17t13 -10q8 -4 15 -7t7 -12q0 -7 -9 -9.5t-14 -2.5q-20 1 -33 1.5t-26 0.5q-19 0 -33 -1t-36 -2z" />
  </g>

</svg>
