<?xml version="1.0" standalone="no"?>
<!DOCTYPE svg PUBLIC "-//W3C//DTD SVG 1.1//EN" "http://www.w3.org/Graphics/SVG/1.1/DTD/svg11.dtd" >
<svg xmlns="http://www.w3.org/2000/svg" xmlns:xlink="http://www.w3.org/1999/xlink" version="1.1" viewBox="-10 0 525 1000">
  <g transform="matrix(1 0 0 -1 0 800)">
   <path fill="currentColor"
d="M231 -220q-35 0 -57 8t-31.5 20t-9.5 24q0 14 8 25.5t19 18.5t20 7q13 0 22.5 -9.5t18.5 -19.5t19 -17.5t25 -7.5q17 0 33 10.5t30 34t25.5 61.5t20.5 92l39 -23q-7 -5 -16 -8.5t-19 -3.5q-29 0 -49 16.5t-31 43t-11 56.5q0 23 5 47t15 48q1 1 1 2.5v1.5q0 4 -2.5 4.5
t-7.5 -3.5l-122 -110q-10 -12 -17 -24t-11 -23q-3 -13 -9.5 -27.5t-13 -24.5t-13.5 -10q-6 0 -18.5 6.5t-26.5 16t-24 20t-9 18.5q0 8 9.5 20.5t22.5 25.5q9 10 24.5 25t30 31t19.5 27q6 17 10 35.5t4 36.5q0 29 -13.5 51.5t-44.5 22.5q-29 0 -43.5 -9.5t-20.5 -9.5t-9 2.5
t-3 10.5q1 24 17.5 48.5t41.5 42t52 17.5q36 0 53 -24t17 -62q0 -26 -6.5 -57.5t-15.5 -65.5q-2 -7 2 -7q2 0 5.5 1.5t10.5 6.5l113 106q17 35 37.5 58t38 34.5t25.5 11.5q12 0 24 -9t21 -22.5t9 -26.5q0 -14 -8 -25t-27 -27l-83 -70q-11 -13 -14.5 -29t-3.5 -28
q-2 -45 24 -72t60 -27q19 -1 38 7.5t34 26.5q8 10 12 10q5 0 6.5 -3.5t1.5 -7.5q0 -15 -2.5 -28t-6.5 -25q-27 -100 -67.5 -165.5t-90.5 -96.5t-107 -31z" />
  </g>

</svg>
