<?xml version="1.0" standalone="no"?>
<!DOCTYPE svg PUBLIC "-//W3C//DTD SVG 1.1//EN" "http://www.w3.org/Graphics/SVG/1.1/DTD/svg11.dtd" >
<svg xmlns="http://www.w3.org/2000/svg" xmlns:xlink="http://www.w3.org/1999/xlink" version="1.1" viewBox="-10 0 715 1000">
  <g transform="matrix(1 0 0 -1 0 800)">
   <path fill="currentColor"
d="M165 -14q-46 0 -74.5 27.5t-42 69.5t-13.5 84q0 61 28.5 109t77 81.5t109 51t122.5 17.5q56 0 108.5 -14.5t95.5 -43t68.5 -70t25.5 -94.5q0 -64 -29.5 -113t-79 -77t-110.5 -28q-45 0 -75 16t-44 48q-5 12 -10 12q-3 0 -7 -8.5t-11 -16.5q-12 -13 -29 -25t-42.5 -19
t-67.5 -7zM220 45q37 0 62 25t25 58q0 31 -3 57t-3 63q0 35 22.5 48.5t52.5 13.5q23 0 30 -21.5t7 -43.5q0 -27 -2 -54t-4 -48t-2 -30q0 -26 18.5 -47t44.5 -21q31 0 49 20t26 51t8 63q0 68 -27 112.5t-70 66.5t-93 22q-58 0 -105 -21.5t-74.5 -61.5t-27.5 -97
q0 -34 5.5 -70t19.5 -60.5t41 -24.5z" />
  </g>

</svg>
