<?xml version="1.0" standalone="no"?>
<!DOCTYPE svg PUBLIC "-//W3C//DTD SVG 1.1//EN" "http://www.w3.org/Graphics/SVG/1.1/DTD/svg11.dtd" >
<svg xmlns="http://www.w3.org/2000/svg" xmlns:xlink="http://www.w3.org/1999/xlink" version="1.1" viewBox="-10 0 599 1000">
  <g transform="matrix(1 0 0 -1 0 800)">
   <path fill="currentColor"
d="M42 -4q-9 0 -16 3.5t-7 9.5q0 15 25 20q38 8 54 22t16 47v440q0 38 -12.5 56t-48.5 26q-14 3 -20 8.5t-6 11.5q0 7 6.5 10.5t17.5 3.5q24 0 44.5 -0.5t39.5 -1.5t39 -1q22 0 41.5 2t40 4t47.5 2q79 0 138 -24.5t91 -68t32 -102.5q0 -62 -25.5 -113t-78 -81t-132.5 -30
q-32 0 -59.5 4.5t-45 11.5t-17.5 15q0 6 6.5 10.5t11.5 4.5q6 0 22.5 -2.5t38.5 -5t43 -2.5q53 0 79.5 44.5t26.5 124.5q0 89 -35.5 132.5t-95.5 43.5q-28 0 -43.5 -11.5t-15.5 -36.5l-1 -469q0 -33 16.5 -49.5t56.5 -25.5q13 -2 19 -6.5t6 -12.5q0 -7 -5.5 -10t-16.5 -3
q-23 0 -47 1.5t-46.5 2.5t-42.5 1q-22 0 -45.5 -1t-47.5 -3t-48 -2zM496 140q-9 -6 -18 -3.5t-15 10.5l-176 252q-4 6 -3.5 13t4.5 9q1 1 4 2q11 3 22.5 1t18.5 -14l171 -243q5 -7 1 -15t-9 -12z" />
  </g>

</svg>
