<?xml version="1.0" standalone="no"?>
<!DOCTYPE svg PUBLIC "-//W3C//DTD SVG 1.1//EN" "http://www.w3.org/Graphics/SVG/1.1/DTD/svg11.dtd" >
<svg xmlns="http://www.w3.org/2000/svg" xmlns:xlink="http://www.w3.org/1999/xlink" version="1.1" viewBox="-10 0 399 1000">
  <g transform="matrix(1 0 0 -1 0 800)">
   <path fill="currentColor"
d="M210 -288q-47 0 -78 27.5t-47.5 76.5t-16.5 111v628q0 28 -8.5 47.5t-33.5 24.5q-9 2 -9 15q0 12 8 14q26 5 53 14t50.5 18t39.5 15l4.5 1.5t3.5 0.5q5 0 7 -3.5t2 -6.5q0 -8 -3 -30.5t-3 -60.5v-607q0 -93 7 -145.5t19.5 -74t30.5 -21.5q23 0 31 13t8 29q0 10 9.5 21.5
t24.5 22.5t30 18t26 7q9 0 11.5 -11.5t2.5 -26.5q0 -37 -23 -63.5t-61 -40t-85 -13.5z" />
  </g>

</svg>
