<?xml version="1.0" standalone="no"?>
<!DOCTYPE svg PUBLIC "-//W3C//DTD SVG 1.1//EN" "http://www.w3.org/Graphics/SVG/1.1/DTD/svg11.dtd" >
<svg xmlns="http://www.w3.org/2000/svg" xmlns:xlink="http://www.w3.org/1999/xlink" version="1.1" viewBox="-10 0 568 1000">
  <g transform="matrix(1 0 0 -1 0 800)">
   <path fill="currentColor"
d="M509 -5q11 0 17.5 4t6.5 10q0 13 -26 19q-36 9 -51.5 22.5t-15.5 46.5v453q0 34 13.5 48t50.5 22q14 3 20 8.5t6 11.5q0 7 -6.5 10.5t-17.5 3.5q-29 0 -55.5 -1t-51.5 -2t-52 -1q-46 0 -97.5 1t-92.5 1q-33 1 -54.5 3t-25.5 2q-7 0 -14.5 -3t-8.5 -12q-4 -33 -10 -65
t-6 -56q0 -9 4.5 -13.5t9.5 -4.5t9 3.5t7 10.5q8 23 15 40t16 26q13 14 30 22t41 8h93q18 0 33 -10.5t15 -29.5v-196q0 -11 -6.5 -17t-15.5 -6h-92q-27 0 -38.5 15t-19.5 41q-7 20 -19 20q-5 0 -9 -5.5t-4 -14.5q1 -10 2 -24t1.5 -28t0.5 -25q0 -12 -0.5 -27t-1 -29.5
t-1.5 -24.5q-1 -11 1.5 -17t8.5 -6q16 0 23 28q8 28 19 42t30 14h94q13 0 20 -5t7 -19v-190q0 -33 -14 -46t-43 -13h-82q-25 0 -45.5 5t-35.5 16q-17 12 -30.5 32.5t-26.5 45.5q-4 8 -8 10.5t-10 2.5q-5 -1 -7.5 -6t-2.5 -11q0 -14 5 -36t12.5 -45.5t13.5 -43.5
q3 -7 8 -10.5t12 -3.5q24 0 61.5 0.5t81.5 1.5t90 1.5t88 0.5q21 0 42.5 -1t43.5 -2.5t45 -1.5z" />
  </g>

</svg>
