<?xml version="1.0" standalone="no"?>
<!DOCTYPE svg PUBLIC "-//W3C//DTD SVG 1.1//EN" "http://www.w3.org/Graphics/SVG/1.1/DTD/svg11.dtd" >
<svg xmlns="http://www.w3.org/2000/svg" xmlns:xlink="http://www.w3.org/1999/xlink" version="1.1" viewBox="-10 0 806 1000">
  <g transform="matrix(1 0 0 -1 0 800)">
   <path fill="currentColor"
d="M452 -218q-20 0 -31 6.5t-11 13.5q0 6 11.5 10t30 11t39.5 23q31 17 51.5 48t33 70t18 81t5.5 82q0 118 -27 172t-87 54q-32 0 -60 -8t-34 -13q-10 -8 -10 -27v-205q0 -32 17 -47t52 -24q13 -2 20 -6.5t7 -12.5q0 -7 -6.5 -10t-16.5 -3q-24 0 -47 1t-45 2t-44 1t-45.5 -1
t-48 -2.5t-48.5 -1.5q-10 0 -17.5 3.5t-7.5 9.5q0 8 7 13t20 7q38 8 56 22.5t18 48.5v458q0 21 -8.5 31t-27.5 10h-34q-29 0 -56 -14.5t-42 -36.5q-4 -6 -12.5 -17.5t-18 -20t-19.5 -8.5q-7 0 -9.5 4.5t-2.5 10.5q0 12 6 24q17 35 25 65.5t12 68.5q2 16 7.5 21.5t12.5 5.5
q11 0 19 -13.5t15 -22.5q9 -11 32.5 -14.5t48.5 -5.5q38 -1 70.5 -2t68.5 -1q52 0 103.5 1.5t109.5 3.5q24 1 45 5.5t29 12.5q15 11 24.5 21.5t20.5 10.5q6 0 10 -5t3 -14q0 -4 -0.5 -10t-2.5 -11q-8 -31 -13 -60.5t-5 -53.5v-13q0 -13 -3 -22.5t-12 -9.5q-10 0 -15 10.5
t-11 24.5q-6 20 -15.5 34t-26.5 22.5t-47 8.5h-111q-19 0 -30 -13t-11 -32v-142q0 -19 2 -27.5t11 -8.5h4t4 1q20 11 50 19t69 8q63 0 112 -27.5t77.5 -83.5t28.5 -142q0 -69 -23 -129.5t-57.5 -108t-72 -78t-66.5 -40.5q-22 -7 -39 -10t-29 -3z" />
  </g>

</svg>
