<?xml version="1.0" standalone="no"?>
<!DOCTYPE svg PUBLIC "-//W3C//DTD SVG 1.1//EN" "http://www.w3.org/Graphics/SVG/1.1/DTD/svg11.dtd" >
<svg xmlns="http://www.w3.org/2000/svg" xmlns:xlink="http://www.w3.org/1999/xlink" version="1.1" viewBox="-10 0 627 1000">
  <g transform="matrix(1 0 0 -1 0 800)">
   <path fill="currentColor"
d="M51 -5q-11 0 -17 4t-6 10q0 13 26 19q35 9 51.5 22.5t16.5 45.5v455q0 33 -14 47t-53 22q-25 5 -25 21q0 6 7 9.5t16 3.5q24 0 47 -1t44.5 -2t42.5 -1h271q7 0 21 2.5t22 2.5q9 0 13.5 -4.5t4.5 -10.5q2 -34 4.5 -65.5t2.5 -57.5q0 -10 -4.5 -15t-9.5 -5q-6 0 -12.5 6.5
t-9.5 14.5q-7 26 -15.5 47.5t-25.5 34.5t-51 13h-103q-20 0 -32 -14t-12 -45v-147q0 -20 5.5 -30.5t18.5 -10.5h3.5t4.5 1q15 3 38.5 7t54.5 4q93 0 147.5 -47.5t54.5 -133.5q0 -56 -17.5 -89t-41.5 -50t-42 -28q-31 -18 -70 -26t-90 -8q-7 0 -23.5 1.5t-44.5 3t-71 1.5
q-21 0 -41 -1.5t-41.5 -3.5t-44.5 -2zM313 49q31 0 59.5 18.5t47 51t18.5 73.5q0 38 -10.5 62t-24.5 39t-25 22q-10 7 -31.5 15t-51.5 8q-19 0 -31.5 -7.5t-12.5 -26.5v-190q0 -32 16 -48.5t46 -16.5z" />
  </g>

</svg>
