<?xml version="1.0" standalone="no"?>
<!DOCTYPE svg PUBLIC "-//W3C//DTD SVG 1.1//EN" "http://www.w3.org/Graphics/SVG/1.1/DTD/svg11.dtd" >
<svg xmlns="http://www.w3.org/2000/svg" xmlns:xlink="http://www.w3.org/1999/xlink" version="1.1" viewBox="-10 0 223 1000">
  <g transform="matrix(1 0 0 -1 0 800)">
   <path fill="currentColor"
d="M116.982 411.211q-24.1055 0 -45.375 11.3438t-34.7402 32.2588t-13.4707 47.8564q0 27.6504 14.8887 50.6924t38.9941 37.2217t53.1738 14.1797q29.7773 0 50.6924 -17.3701t20.915 -43.6025q0 -10.6348 -3.89941 -15.9521t-14.5342 -5.31738h-88.623
q-9.2168 0 -9.2168 -10.6348q0 -19.8516 12.4072 -37.5762t36.5127 -17.7246q14.8887 0 24.46 3.89941t19.4971 14.5342q3.54492 4.25391 7.08984 4.25391t9.57129 -4.25391t6.02637 -8.50781q0 -7.08984 -5.67188 -14.8887q-8.50781 -13.4707 -27.6504 -26.9414
t-51.0469 -13.4707zM97.1309 544.5h44.666q11.3438 0 11.3438 11.3438q0 10.6348 -6.38086 19.1426t-21.2695 8.50781q-13.4707 0 -24.46 -9.2168t-10.9893 -23.3965q0 -6.38086 7.08984 -6.38086z" />
  </g>

</svg>
