<?xml version="1.0" standalone="no"?>
<!DOCTYPE svg PUBLIC "-//W3C//DTD SVG 1.1//EN" "http://www.w3.org/Graphics/SVG/1.1/DTD/svg11.dtd" >
<svg xmlns="http://www.w3.org/2000/svg" xmlns:xlink="http://www.w3.org/1999/xlink" version="1.1" viewBox="-130 0 260 1000">
  <g transform="matrix(1 0 0 -1 0 800)">
   <path fill="currentColor"
d="M-99 440q-8 0 -14.5 7.5t-6.5 22.5q0 23 6.5 45t20.5 40.5t37 29.5t56 11t56 -11.5t37 -30.5t20.5 -41t6.5 -43q0 -15 -6 -22.5t-15 -7.5q-8 0 -12.5 6t-7.5 15q-5 17 -13.5 32t-23.5 24t-42 9q-26 0 -41.5 -9t-24 -24t-13.5 -32q-3 -9 -7.5 -15t-12.5 -6z" />
  </g>

</svg>
