<?xml version="1.0" standalone="no"?>
<!DOCTYPE svg PUBLIC "-//W3C//DTD SVG 1.1//EN" "http://www.w3.org/Graphics/SVG/1.1/DTD/svg11.dtd" >
<svg xmlns="http://www.w3.org/2000/svg" xmlns:xlink="http://www.w3.org/1999/xlink" version="1.1" viewBox="-10 0 781 1000">
  <g transform="matrix(1 0 0 -1 0 800)">
   <path fill="currentColor"
d="M43 -3q-6 0 -13.5 2.5t-7.5 9.5q0 8 7.5 12.5t15.5 7.5q15 5 25.5 11.5t10.5 26.5v280q0 20 -10.5 27t-25.5 11q-8 3 -15.5 7.5t-7.5 11.5t7.5 10t13.5 3q20 0 35.5 -1t30 -2.5t31.5 -1.5q18 0 30.5 1.5t27 2.5t33.5 1q7 0 13.5 -3t6.5 -10t-6.5 -11.5t-14.5 -7.5
q-15 -5 -26 -11.5t-11 -26.5v-266q0 -14 6 -24t20 -10h87q13 0 19.5 10t6.5 24v266q0 20 -11 27t-26 11q-8 3 -14.5 7.5t-6.5 11.5t6 10t13 3q20 0 34.5 -1t28.5 -2.5t31 -1.5q18 0 31.5 1.5t28.5 2.5t34 1q6 0 13 -3t7 -10t-7 -11.5t-15 -7.5q-15 -4 -25.5 -11t-10.5 -27
v-266q0 -14 6.5 -24t19.5 -10h84q15 0 21 10t6 24v266q0 20 -11 27t-26 11q-8 3 -14.5 7.5t-6.5 11.5t6.5 10t12.5 3q20 0 34.5 -1t28.5 -2.5t31 -1.5q18 0 31.5 1.5t28.5 2.5t34 1q7 0 13.5 -3t6.5 -10t-6.5 -11.5t-14.5 -7.5q-15 -4 -26 -11t-11 -27v-281q0 -20 11 -26
t26 -11q8 -3 14.5 -7.5t6.5 -12.5q0 -7 -6.5 -9.5t-12.5 -2.5q-20 0 -33.5 1.5t-25 2t-27.5 0.5h-514q-14 0 -26.5 -0.5t-26.5 -2t-34 -1.5z" />
  </g>

</svg>
