<?xml version="1.0" standalone="no"?>
<!DOCTYPE svg PUBLIC "-//W3C//DTD SVG 1.1//EN" "http://www.w3.org/Graphics/SVG/1.1/DTD/svg11.dtd" >
<svg xmlns="http://www.w3.org/2000/svg" xmlns:xlink="http://www.w3.org/1999/xlink" version="1.1" viewBox="-10 0 275 1000">
  <g transform="matrix(1 0 0 -1 0 800)">
   <path fill="currentColor"
d="M123 279q-23 0 -44 4.5t-38 15.5q-6 10 -9 33t-2 44q0 4 4 6.5t9 2.5q7 0 11.5 -3t5.5 -7q7 -15 16 -30t22 -24.5t30 -9.5t26 8.5t9 19.5q0 16 -13 26t-31 18q-19 7 -37 18t-29.5 28.5t-11.5 41.5q0 26 14.5 44t39.5 27.5t55 9.5q23 0 42 -4.5t26 -8.5q5 -6 8.5 -24
t3.5 -41q0 -3 -4 -6t-9 -3q-13 0 -16 10q-9 22 -21.5 35t-30.5 13q-16 0 -26.5 -8t-10.5 -19q0 -12 12 -21.5t31 -18.5q43 -20 62.5 -38.5t19.5 -52.5q0 -40 -28.5 -63t-85.5 -23z" />
  </g>

</svg>
