<?xml version="1.0" standalone="no"?>
<!DOCTYPE svg PUBLIC "-//W3C//DTD SVG 1.1//EN" "http://www.w3.org/Graphics/SVG/1.1/DTD/svg11.dtd" >
<svg xmlns="http://www.w3.org/2000/svg" xmlns:xlink="http://www.w3.org/1999/xlink" version="1.1" viewBox="-10 0 713 1000">
  <g transform="matrix(1 0 0 -1 0 800)">
   <path fill="currentColor"
d="M212 -4q-9 0 -17 3.5t-8 9.5q0 8 7 13t20 7q38 8 56 22.5t18 47.5v451q0 22 -4 34t-15 16q-12 4 -27.5 4.5t-34.5 1.5h-38q-43 1 -69 -16.5t-26 -48.5q0 -13 7.5 -22t15.5 -17q8 -7 15.5 -14.5t7.5 -16.5q0 -13 -11 -25.5t-24.5 -20.5t-22.5 -8q-14 0 -27 13.5t-22 33.5
t-9 39q0 50 24 81.5t73 46.5t122 15l336 1q25 0 42.5 5.5t25.5 10.5q18 11 30 24.5t25 13.5q6 0 8.5 -6t2.5 -15q0 -3 -0.5 -7.5t-1.5 -8.5q-8 -28 -13.5 -57.5t-5.5 -53.5v-17q0 -14 -3.5 -24t-13.5 -10q-8 0 -13.5 9.5t-11.5 30.5q-9 31 -29.5 48.5t-64.5 17.5h-33
t-31.5 -0.5t-23.5 -0.5q-18 -1 -24 -14t-6 -31v-462q0 -32 18 -46.5t56 -24.5q12 -3 19.5 -7t7.5 -12q0 -7 -7 -10t-17 -3q-24 0 -48 1t-47.5 2t-45.5 1t-45.5 -1t-48 -2.5t-48.5 -1.5z" />
  </g>

</svg>
