<?xml version="1.0" standalone="no"?>
<!DOCTYPE svg PUBLIC "-//W3C//DTD SVG 1.1//EN" "http://www.w3.org/Graphics/SVG/1.1/DTD/svg11.dtd" >
<svg xmlns="http://www.w3.org/2000/svg" xmlns:xlink="http://www.w3.org/1999/xlink" version="1.1" viewBox="-167 0 335 1000">
  <g transform="matrix(1 0 0 -1 0 800)">
   <path fill="currentColor"
d="M-139 694q-18 0 -18 11q0 8 9 15l102 90q16 15 25 20.5t22 5.5t22 -5.5t26 -20.5l101 -90q8 -6 8 -15q0 -12 -16 -12q-6 0 -22.5 5.5t-37 14t-39.5 17t-30 15.5q-7 4 -12 4t-12 -4q-11 -7 -30 -15t-39.5 -16.5t-36.5 -14t-22 -5.5z" />
  </g>

</svg>
