<?xml version="1.0" standalone="no"?>
<!DOCTYPE svg PUBLIC "-//W3C//DTD SVG 1.1//EN" "http://www.w3.org/Graphics/SVG/1.1/DTD/svg11.dtd" >
<svg xmlns="http://www.w3.org/2000/svg" xmlns:xlink="http://www.w3.org/1999/xlink" version="1.1" viewBox="-10 0 529 1000">
  <g transform="matrix(1 0 0 -1 0 800)">
   <path fill="currentColor"
d="M276 -14q-44 0 -87 13t-79 37t-57.5 59t-21.5 80q0 48 16.5 85t45 63.5t65.5 39.5q16 6 34 10.5t18 11.5q0 2 -1.5 4t-2.5 4l-141 207q-7 8 -14.5 19t-7.5 15q0 6 7.5 14t13.5 8q11 0 35.5 -1t53 -2t52.5 -2t33 -1h101h29.5t29 1.5t21.5 5.5q12 6 23.5 14t18.5 8
q8 0 13 -4.5t6 -18.5q3 -25 5 -45t4.5 -38.5t7.5 -39.5q1 -6 3 -12.5t2 -12.5q0 -7 -3 -12t-11 -5q-14 0 -20 11t-11 23q-13 39 -36.5 63t-61.5 24h-123q-19 0 -19 -9q0 -3 3 -10t11 -18l113 -155q14 -20 20.5 -29t8.5 -14.5t2 -13.5q0 -16 -18.5 -20.5t-37.5 -4.5
q-8 0 -15 0.5t-12 0.5q-38 0 -64 -18.5t-39 -50.5t-13 -74q0 -45 16.5 -82t47.5 -58.5t73 -21.5q51 0 87 22.5t56 75.5q10 25 17.5 38.5t11.5 13.5q8 0 16 -4.5t8 -10.5q0 -30 -4 -59.5t-8 -54.5q-3 -14 -15 -24t-23 -15q-26 -11 -71 -20.5t-112 -9.5z" />
  </g>

</svg>
