<?xml version="1.0" standalone="no"?>
<!DOCTYPE svg PUBLIC "-//W3C//DTD SVG 1.1//EN" "http://www.w3.org/Graphics/SVG/1.1/DTD/svg11.dtd" >
<svg xmlns="http://www.w3.org/2000/svg" xmlns:xlink="http://www.w3.org/1999/xlink" version="1.1" viewBox="-10 0 421 1000">
  <g transform="matrix(1 0 0 -1 0 800)">
   <path fill="currentColor"
d="M216 -285q-41 0 -75 24t-57.5 66.5t-36 102t-12.5 130.5q0 82 15 152.5t44 123.5t71 82.5t97 29.5q34 0 69.5 -12t62.5 -42q6 -9 6 -15q0 -19 -16.5 -32.5t-31.5 -12.5q-17 0 -29 14q-25 31 -43.5 40t-42.5 9q-31 0 -54.5 -34.5t-36.5 -98.5t-13 -153q0 -44 6 -87
t17.5 -80.5t28.5 -67t40 -45.5t51 -16q32 0 55.5 16.5t39.5 40.5q5 7 11 7t9 -4t3 -11q0 -11 -7 -24q-13 -28 -36.5 -51t-56.5 -37.5t-78 -14.5z" />
  </g>

</svg>
