<?xml version="1.0" standalone="no"?>
<!DOCTYPE svg PUBLIC "-//W3C//DTD SVG 1.1//EN" "http://www.w3.org/Graphics/SVG/1.1/DTD/svg11.dtd" >
<svg xmlns="http://www.w3.org/2000/svg" xmlns:xlink="http://www.w3.org/1999/xlink" version="1.1" viewBox="-10 0 741 1000">
  <g transform="matrix(1 0 0 -1 0 800)">
   <path fill="currentColor"
d="M478 -14q-39 0 -71 16.5t-51.5 46t-19.5 69.5v153q0 23 -10.5 41.5t-25.5 29.5t-32 11q-16 0 -30.5 -4t-24.5 -11q-13 -10 -17.5 -22t-4.5 -40v-207q1 -20 11 -27.5t24 -12.5q8 -3 14.5 -7t6.5 -12q0 -7 -5.5 -10t-12.5 -3q-20 0 -35 1.5t-29 2.5t-31 1t-31.5 -1
t-29.5 -2.5t-36 -1.5q-7 0 -13.5 3t-6.5 9q0 8 7 12t16 8q15 5 27.5 11.5t12.5 27.5v487q0 27 -8 47t-33 25q-10 2 -10 15q0 12 9 14q25 5 52 14t50.5 18t39.5 15q3 1 5 1.5t3 0.5q6 0 7.5 -3.5t2.5 -6.5q0 -6 -2 -16t-3.5 -27.5t-1.5 -47.5v-213q0 -9 1.5 -18.5t4.5 -12.5
q18 16 39.5 31.5t47.5 25.5t57 10q33 0 56.5 -16.5t36.5 -45t13 -64.5v-192q0 -25 10 -44t25.5 -29.5t32.5 -10.5q25 0 41.5 14t25.5 39.5t13 59t4 74.5t-12.5 69.5t-29.5 48.5t-34 34q-7 7 -7 11q0 13 14.5 25t33.5 19.5t31 7.5q18 0 38.5 -14.5t38.5 -39t30 -57t12 -69.5
q0 -55 -19 -102t-52 -83t-75.5 -56t-89.5 -20z" />
  </g>

</svg>
