<?xml version="1.0" standalone="no"?>
<!DOCTYPE svg PUBLIC "-//W3C//DTD SVG 1.1//EN" "http://www.w3.org/Graphics/SVG/1.1/DTD/svg11.dtd" >
<svg xmlns="http://www.w3.org/2000/svg" xmlns:xlink="http://www.w3.org/1999/xlink" version="1.1" viewBox="-164 0 327 1000">
  <g transform="matrix(1 0 0 -1 0 800)">
   <path fill="currentColor"
d="M-82 -258q-20 0 -34 13.5t-22.5 33t-12 38t-3.5 28.5q0 27 19 27q11 0 19 -20q8 -13 16 -31t26 -18q22 0 33 11t15 23t4 13q0 8 12 15t18 7t9 -6t3 -10q0 -2 4.5 -16t16.5 -26.5t34 -12.5q20 0 29 16.5t15 32.5q6 11 11 18t11 7q5 0 8.5 -7.5t3.5 -18.5q0 -9 -5 -28.5
t-16 -39.5t-28 -34.5t-41 -14.5q-21 0 -34 12t-19.5 27.5t-10.5 24.5q-3 -10 -14.5 -25t-28.5 -27t-38 -12z" />
  </g>

</svg>
