<?xml version="1.0" standalone="no"?>
<!DOCTYPE svg PUBLIC "-//W3C//DTD SVG 1.1//EN" "http://www.w3.org/Graphics/SVG/1.1/DTD/svg11.dtd" >
<svg xmlns="http://www.w3.org/2000/svg" xmlns:xlink="http://www.w3.org/1999/xlink" version="1.1" viewBox="-10 0 426 1000">
  <g transform="matrix(1 0 0 -1 0 800)">
   <path fill="currentColor"
d="M179 -15q-48 0 -79.5 32.5t-30.5 82.5l1 198q1 18 -3 30t-14 19.5t-27 13.5q-4 1 -7 5t-3 11q0 6 3 11t7 6q38 5 70.5 15t60.5 21q3 1 6 3t6 2q5 0 7 -4t2 -7q0 -7 -2.5 -23.5t-3.5 -34.5h3q6 5 16.5 15t24.5 20t33 17.5t44 7.5q27 0 47.5 -14t32.5 -36t12 -47
q0 -35 -20 -61.5t-60 -45.5q-23 -11 -47 -22l-48 -22q-19 -9 -24.5 -16t-5.5 -24l-1 -34q0 -27 10.5 -43.5t38.5 -16.5q14 0 29.5 8.5t21.5 17.5q2 4 2.5 7t1.5 8v10.5v11.5q0 7 15.5 15.5t35.5 15t32 7.5q6 1 10 -6t4 -16q0 -18 -21.5 -42t-54 -45.5t-66.5 -35.5t-59 -15z
M191 214q2 0 4.5 0.5t6.5 1.5q19 11 37 22t29.5 27.5t11.5 42.5q0 31 -12 43.5t-26 12.5q-20 0 -32 -9t-19 -19q-3 -5 -5.5 -11.5t-2.5 -16.5l-2 -75q0 -19 10 -19z" />
  </g>

</svg>
