<?xml version="1.0" standalone="no"?>
<!DOCTYPE svg PUBLIC "-//W3C//DTD SVG 1.1//EN" "http://www.w3.org/Graphics/SVG/1.1/DTD/svg11.dtd" >
<svg xmlns="http://www.w3.org/2000/svg" xmlns:xlink="http://www.w3.org/1999/xlink" version="1.1" viewBox="-10 0 550 1000">
  <g transform="matrix(1 0 0 -1 0 800)">
   <path fill="currentColor"
d="M246 -8q-64 0 -113.5 25.5t-77.5 71.5t-28 105q0 65 31 117.5t83 83.5t115 31q44 0 79 -8t59 -32q10 -10 10 -19q0 -7 -8 -16.5t-18 -17t-19 -7.5q-7 0 -14.5 5t-14.5 11q-25 20 -52.5 28t-46.5 8q-41 0 -64 -35.5t-23 -107.5q0 -65 18.5 -107t50.5 -62t71 -20
q44 0 73 17.5t43.5 43.5t14.5 55q0 41 -17.5 65.5t-48.5 24.5q-30 0 -47.5 -25t-17.5 -61q0 -40 14 -71t40.5 -49t64.5 -18q28 0 52.5 12t47.5 36q12 12 18.5 8.5t7.5 -13.5t-4 -18q-26 -35 -63 -51t-79 -16q-43 0 -83 18.5t-66 53.5t-26 82q0 34 18 68.5t52 59t80 24.5
q42 0 70.5 -18.5t42.5 -47.5t14 -62q0 -43 -27.5 -82.5t-81 -64.5t-130.5 -25z" />
  </g>

</svg>
