<?xml version="1.0" standalone="no"?>
<!DOCTYPE svg PUBLIC "-//W3C//DTD SVG 1.1//EN" "http://www.w3.org/Graphics/SVG/1.1/DTD/svg11.dtd" >
<svg xmlns="http://www.w3.org/2000/svg" xmlns:xlink="http://www.w3.org/1999/xlink" version="1.1" viewBox="-10 0 709 1000">
  <g transform="matrix(1 0 0 -1 0 800)">
   <path fill="currentColor"
d="M454 -205q-13 0 -19.5 13t-6.5 30q1 17 0 32t-1 28q0 59 -19.5 80.5t-60.5 21.5q-20 0 -43 -0.5t-47 -2t-48 -1.5q-10 0 -17.5 3.5t-7.5 9.5q0 8 7 13t20 7q38 8 56 22.5t18 47.5v405q0 41 -2 62t-5.5 28.5t-10.5 8.5q-10 4 -25 5t-29 1h-31q-29 0 -56 -13.5t-42 -36.5
q-4 -6 -12.5 -17t-18 -20t-19.5 -9q-7 0 -9.5 5t-2.5 11q0 12 6 24q17 34 25.5 59.5t11.5 60.5q2 15 8.5 19.5t13.5 4.5q6 0 14.5 -12.5t15.5 -20.5q9 -9 32 -13.5t39 -4.5l369 1q28 0 47 4.5t30 9.5q15 9 24 18.5t21 9.5q5 0 7.5 -5.5t2.5 -13.5q0 -5 -1 -11.5t-2 -11.5
q-4 -19 -8 -33.5t-6.5 -27t-2.5 -28.5v-17q0 -14 -4 -24t-13 -10q-8 0 -13.5 9.5t-11.5 29.5q-9 32 -30 47.5t-66 15.5h-68q-19 0 -29.5 -7t-15 -30.5t-4.5 -72.5v-392q0 -23 14 -36t33 -17.5t35 -6.5q9 -1 12 -5.5t3 -10.5q0 -12 -5 -42.5t-11.5 -71t-9.5 -82.5
q-1 -19 -9.5 -29.5t-21.5 -10.5z" />
  </g>

</svg>
