<?xml version="1.0" standalone="no"?>
<!DOCTYPE svg PUBLIC "-//W3C//DTD SVG 1.1//EN" "http://www.w3.org/Graphics/SVG/1.1/DTD/svg11.dtd" >
<svg xmlns="http://www.w3.org/2000/svg" xmlns:xlink="http://www.w3.org/1999/xlink" version="1.1" viewBox="-10 0 371 1000">
  <g transform="matrix(1 0 0 -1 0 800)">
   <path fill="currentColor"
d="M28 273q-3 0 -7.5 2.5t-4.5 6.5q0 3 3 6.5t9 4.5q14 2 22 7t8 18v139q0 14 -5 23t-18 11q-3 1 -6 4.5t-3 9.5q0 4 2.5 7.5t6.5 4.5q21 5 43.5 12t41.5 18q3 2 7 4t8 2q3 0 5 -2t2 -7q0 -2 -1 -13.5t-1 -38.5l1 -52q0 -8 9 -8q5 0 12 0.5t14 3.5q12 4 20 13t12.5 17.5
t9.5 17.5q5 10 5 20q0 9 -5 12.5t-15 4.5q-5 1 -7.5 4.5t-2.5 5.5q0 7 6 9t10 2h29q13 0 33 0.5t40 1.5t31 1q3 0 6 -2t3 -7q0 -11 -16 -14q-10 -2 -23 -8.5t-26 -16.5q-17 -14 -30.5 -30.5t-23.5 -32.5q-2 -3 -2 -8t5 -7q25 -8 43 -22.5t18 -39.5q0 -27 -16 -46t-44.5 -28
t-66.5 -9h-22h-26.5h-23.5q-24 0 -43 -0.5t-26 -0.5zM161 301q12 0 22 4t16.5 15t6.5 32t-11 36t-32 15q-10 0 -16 -5t-6 -11v-70q-1 -9 5 -12.5t15 -3.5z" />
  </g>

</svg>
