<?xml version="1.0" standalone="no"?>
<!DOCTYPE svg PUBLIC "-//W3C//DTD SVG 1.1//EN" "http://www.w3.org/Graphics/SVG/1.1/DTD/svg11.dtd" >
<svg xmlns="http://www.w3.org/2000/svg" xmlns:xlink="http://www.w3.org/1999/xlink" version="1.1" viewBox="-10 0 1082 1000">
  <g transform="matrix(1 0 0 -1 0 800)">
   <path fill="currentColor"
d="M295 -13q-99 0 -151 61.5t-52 209.5v291q0 34 -15.5 48.5t-42.5 21.5q-25 7 -25 22q0 6 7 9.5t16 3.5q28 0 61.5 -2t64.5 -2q20 0 44 1t47 1.5t39 0.5q10 0 16 -3t6 -10q0 -9 -6.5 -13t-18.5 -8q-19 -5 -33.5 -13.5t-22.5 -22t-8 -33.5v-283q0 -35 5 -71t17.5 -66
t35 -48.5t56.5 -18.5q38 0 62.5 19t38 49.5t19.5 67.5t6 73v277q0 32 -15 47t-45 23q-13 4 -19 8.5t-6 12.5q0 7 6 10.5t16 3.5q18 0 41 -1t47 -2t44 -1q29 0 63.5 2t60.5 2q9 0 16 -3.5t7 -10.5q0 -8 -6.5 -12.5t-19.5 -8.5q-16 -4 -30 -12.5t-22 -22t-8 -34.5v-290
q0 -34 5 -69t18.5 -63.5t35.5 -46.5t55 -18q37 0 61.5 19t38.5 51t19.5 70t5.5 75l1 272q0 23 -8 35.5t-22 20t-36 13.5q-9 3 -17 7.5t-8 13.5q0 7 6 10t16 3q17 0 38.5 -0.5t43 -1.5t38.5 -1q36 0 73 2.5t75 2.5q10 0 16.5 -3.5t6.5 -9.5q0 -15 -25 -20q-36 -8 -52 -22.5
t-16 -48.5v-452q0 -31 14 -45t52 -23q12 -3 18.5 -7.5t6.5 -12.5q0 -7 -5.5 -10t-16.5 -3q-22 0 -43.5 1t-41 1.5t-35.5 0.5q-20 0 -39.5 -3.5t-31.5 -3.5q-10 0 -10 12q0 9 2.5 19.5t2.5 21.5v17q0 9 -1.5 12.5t-7.5 3.5q-4 0 -7 -3t-8 -9q-14 -20 -35 -39t-48 -31t-63 -12
q-38 0 -67.5 10.5t-51 27t-36.5 35t-25 34.5q-4 8 -10 8t-11 -8q-29 -46 -67 -76t-100 -30z" />
  </g>

</svg>
