<?xml version="1.0" standalone="no"?>
<!DOCTYPE svg PUBLIC "-//W3C//DTD SVG 1.1//EN" "http://www.w3.org/Graphics/SVG/1.1/DTD/svg11.dtd" >
<svg xmlns="http://www.w3.org/2000/svg" xmlns:xlink="http://www.w3.org/1999/xlink" version="1.1" viewBox="-10 0 796 1000">
  <g transform="matrix(1 0 0 -1 0 800)">
   <path fill="currentColor"
d="M254 -28q-10 0 -16.5 3.5t-6.5 10.5q0 14 25 20q38 9 54.5 17t16.5 33v17q-83 0 -151.5 33t-109 93t-40.5 139q0 77 40.5 134.5t108.5 89.5t152 32v20q0 23 -13.5 34t-52.5 19q-25 6 -25 21q0 7 6.5 10.5t15.5 3.5q25 0 48 -1t44.5 -2t43.5 -1q20 0 42 0.5t45 1.5t47 1
q10 0 16 -3t6 -10q0 -9 -6.5 -13.5t-19.5 -7.5q-38 -8 -52.5 -19.5t-14.5 -29.5v-20q60 0 115 -17.5t97 -50t66.5 -78t24.5 -101.5q0 -60 -23.5 -111t-65 -88t-96.5 -58t-118 -21v-16q0 -19 7 -28t22.5 -13t41.5 -10q13 -3 19 -7t6 -13q0 -6 -5.5 -9.5t-16.5 -3.5
q-23 0 -47 1t-46.5 2t-43.5 1q-23 0 -45.5 -1t-46.5 -2.5t-48 -1.5zM327 113v443q-52 0 -89 -27t-57 -72.5t-20 -101.5q0 -46 10.5 -89t31 -78t51.5 -55t73 -20zM457 112q52 0 89.5 31.5t57.5 83t20 111.5q0 58 -19.5 107.5t-57 80.5t-90.5 31v-445z" />
  </g>

</svg>
