<?xml version="1.0" standalone="no"?>
<!DOCTYPE svg PUBLIC "-//W3C//DTD SVG 1.1//EN" "http://www.w3.org/Graphics/SVG/1.1/DTD/svg11.dtd" >
<svg xmlns="http://www.w3.org/2000/svg" xmlns:xlink="http://www.w3.org/1999/xlink" version="1.1" viewBox="-10 0 563 1000">
  <g transform="matrix(1 0 0 -1 0 800)">
   <path fill="currentColor"
d="M251 -14q-48 0 -85 9.5t-59 20.5q-12 5 -24.5 15t-14.5 24q-4 22 -9.5 53t-5.5 60q0 6 8 10.5t16 4.5q11 0 29 -46q17 -45 49.5 -76t73.5 -31q52 0 79 25.5t37 64.5t10 78q0 66 -39.5 107t-105.5 41q-23 0 -48 -6t-43.5 -12t-24.5 -6q-10 0 -12.5 9t-1.5 23l22 197
q4 33 -10 47t-50 22q-29 6 -29 20q0 7 8 10.5t19 3.5q24 0 46 -1t43 -2t42 -1l216 -1q22 0 38.5 4.5t22.5 4.5t8.5 -6.5t2.5 -9.5q1 -38 5.5 -64t4.5 -55q0 -12 -6 -18.5t-10 -6.5q-8 0 -17.5 10t-11.5 24q-6 37 -22.5 59t-59.5 22h-63q-23 0 -33.5 -8.5t-12.5 -24.5
l-20 -189q18 5 33.5 6.5t33.5 1.5q60 0 108 -22.5t76.5 -62.5t28.5 -95q0 -74 -35.5 -126t-90.5 -79.5t-116 -27.5z" />
  </g>

</svg>
