<?xml version="1.0" standalone="no"?>
<!DOCTYPE svg PUBLIC "-//W3C//DTD SVG 1.1//EN" "http://www.w3.org/Graphics/SVG/1.1/DTD/svg11.dtd" >
<svg xmlns="http://www.w3.org/2000/svg" xmlns:xlink="http://www.w3.org/1999/xlink" version="1.1" viewBox="-10 0 562 1000">
  <g transform="matrix(1 0 0 -1 0 800)">
   <path fill="currentColor"
d="M293 -287q-15 0 -25 3.5t-10 10.5t5 11.5t12 8.5q17 6 31.5 18t28.5 40q10 22 16 54.5t9 69t4 70.5t1 58v115q0 12 -5.5 15.5t-15.5 3.5h-129q-8 0 -14 -4t-6 -16v-104q0 -21 12 -27t27 -11q8 -3 14.5 -7.5t6.5 -12.5q0 -6 -7 -9t-13 -3q-19 0 -34 1.5t-28.5 2.5t-31.5 1
q-17 0 -31.5 -1t-30.5 -2.5t-36 -1.5q-6 0 -13.5 2.5t-7.5 9.5q0 8 7.5 12.5t15.5 7.5q15 5 27 11.5t12 26.5v279q0 20 -11 27.5t-26 11.5q-8 3 -15.5 7.5t-7.5 11.5t7.5 10t13.5 3q20 0 35 -1t29.5 -2.5t31.5 -1.5q18 0 31 1.5t27 2.5t34 1q6 0 12.5 -3t6.5 -10t-6.5 -11.5
t-14.5 -7.5q-14 -5 -25 -11.5t-11 -26.5v-94q0 -12 7.5 -16t15.5 -4h126q9 0 15 4.5t6 16.5v93q0 20 -10 26.5t-25 11.5q-8 3 -14 7.5t-6 11.5t6 10t13 3q20 0 34.5 -1t28.5 -2.5t31 -1.5q18 0 32 1.5t28.5 2.5t34.5 1q6 0 13 -3t7 -10t-7 -12t-15 -7q-15 -4 -26.5 -11
t-11.5 -27v-256q1 -31 -1 -72.5t-9.5 -86t-24.5 -84.5q-14 -34 -40 -65t-55.5 -50.5t-54.5 -19.5z" />
  </g>

</svg>
