<?xml version="1.0" standalone="no"?>
<!DOCTYPE svg PUBLIC "-//W3C//DTD SVG 1.1//EN" "http://www.w3.org/Graphics/SVG/1.1/DTD/svg11.dtd" >
<svg xmlns="http://www.w3.org/2000/svg" xmlns:xlink="http://www.w3.org/1999/xlink" version="1.1" viewBox="-10 0 449 1000">
  <g transform="matrix(1 0 0 -1 0 800)">
   <path fill="currentColor"
d="M175 -14q-28 0 -54.5 7t-48.5 18t-34.5 24t-12.5 25q0 14 13 30t28 16q8 0 16 -8t17 -18q20 -21 40 -37t51 -16q39 -1 60.5 18t30.5 58t9 99q0 49 -13.5 91t-38 67t-60.5 25q-24 0 -45 -10.5t-36 -27.5t-21 -35q-1 -5 -6.5 -10t-14.5 -5q-15 0 -15 10q0 15 1.5 33.5t5 34
t9.5 21.5q9 5 29.5 12t48.5 12.5t58 5.5q69 0 118 -28t75.5 -73.5t26.5 -100.5q0 -42 -13 -84t-40.5 -77t-72.5 -56t-111 -21z" />
  </g>

</svg>
