<?xml version="1.0" standalone="no"?>
<!DOCTYPE svg PUBLIC "-//W3C//DTD SVG 1.1//EN" "http://www.w3.org/Graphics/SVG/1.1/DTD/svg11.dtd" >
<svg xmlns="http://www.w3.org/2000/svg" xmlns:xlink="http://www.w3.org/1999/xlink" version="1.1" viewBox="-10 0 603 1000">
  <g transform="matrix(1 0 0 -1 0 800)">
   <path fill="currentColor"
d="M326 -8q-87 0 -140 13.5t-76 49t-23 101.5v186q0 10 -7.5 13t-22.5 4h-13q-5 0 -9.5 9.5t-4.5 16.5t5 9q22 6 46 21.5t45.5 33t34.5 31.5q7 7 12 11t11 4q7 0 11.5 -2.5t3.5 -13.5l-4 -48q-1 -10 5.5 -14t17.5 -4h69q3 0 5.5 -7.5t2.5 -14.5q0 -12 -3 -23t-8 -11h-46
q-23 0 -31.5 -5t-8.5 -21v-170q0 -65 40 -91.5t113 -26.5q65 0 92 13t27 32q0 26 -17.5 43t-45.5 34q-26 15 -50.5 34t-40.5 44.5t-16 58.5q0 35 18 63t51 45t80 17q32 0 57.5 -7.5t34.5 -15.5q8 -10 12.5 -36t4.5 -56q0 -3 -4 -5t-9 -2q-7 0 -17 5t-11 11q-9 28 -28 48.5
t-45 20.5q-21 0 -33.5 -8.5t-18 -21.5t-5.5 -27q0 -15 11.5 -29t28 -25.5t33.5 -21.5q31 -16 54.5 -35.5t37 -44.5t13.5 -60q0 -46 -26 -73t-78.5 -39.5t-134.5 -12.5z" />
  </g>

</svg>
