<?xml version="1.0" standalone="no"?>
<!DOCTYPE svg PUBLIC "-//W3C//DTD SVG 1.1//EN" "http://www.w3.org/Graphics/SVG/1.1/DTD/svg11.dtd" >
<svg xmlns="http://www.w3.org/2000/svg" xmlns:xlink="http://www.w3.org/1999/xlink" version="1.1" viewBox="-109 0 218 1000">
  <g transform="matrix(1 0 0 -1 0 800)">
   <path fill="currentColor"
d="M-4 480q-38 0 -66.5 25t-28.5 65q0 27 15 48.5t38.5 34t50.5 12.5q37 0 65.5 -24t28.5 -63q0 -29 -15 -51t-38.5 -34.5t-49.5 -12.5zM5 513q21 0 30.5 17.5t9.5 40.5q0 24 -14 41.5t-36 17.5q-20 0 -30 -17t-10 -40q0 -24 14 -42t36 -18z" />
  </g>

</svg>
