<?xml version="1.0" standalone="no"?>
<!DOCTYPE svg PUBLIC "-//W3C//DTD SVG 1.1//EN" "http://www.w3.org/Graphics/SVG/1.1/DTD/svg11.dtd" >
<svg xmlns="http://www.w3.org/2000/svg" xmlns:xlink="http://www.w3.org/1999/xlink" version="1.1" viewBox="-10 0 1055 1000">
  <g transform="matrix(1 0 0 -1 0 800)">
   <path fill="currentColor"
d="M40 -4q-9 0 -16 3.5t-7 9.5q0 15 25 20q36 9 52 23t16 47v453q0 34 -13.5 47t-48.5 21q-26 5 -26 21q0 6 7 9.5t16 3.5q23 0 45 -1l44 -2t43 -1t41.5 1t42 2t45.5 1q10 0 16 -3.5t6 -10.5q0 -8 -6.5 -12.5t-19.5 -7.5q-34 -8 -47.5 -21.5t-13.5 -44.5v-470
q0 -14 8.5 -24.5t23.5 -10.5h147q17 0 25 5.5t10.5 14.5t2.5 18v467q0 33 -12.5 45t-47.5 21q-13 3 -19 7.5t-6 12.5q0 7 6 10.5t15 3.5q24 0 46.5 -1t44 -2t42.5 -1t40.5 1t39.5 2t42 1q10 0 16.5 -3.5t6.5 -9.5q0 -16 -25 -21q-34 -7 -46.5 -20t-12.5 -45v-474
q0 -7 2.5 -14.5t10 -12.5t22.5 -5h147q17 0 26 12.5t9 25.5v467q0 30 -12 43.5t-48 22.5q-13 3 -19 7.5t-6 12.5q0 7 6 10.5t15 3.5q24 0 46.5 -1t44 -2t42.5 -1t41.5 1t42 2t44.5 1q9 0 16 -3.5t7 -9.5q0 -16 -25 -21q-36 -8 -50.5 -21t-14.5 -46v-453q0 -34 16 -48t52 -23
q26 -5 26 -20q0 -6 -7 -9.5t-16 -3.5q-25 0 -47 1.5t-43 2.5t-42 1q-94 0 -180 0.5t-170 0.5h-169t-178 -1q-23 0 -45 -1t-45 -2.5t-47 -1.5z" />
  </g>

</svg>
