<?xml version="1.0" standalone="no"?>
<!DOCTYPE svg PUBLIC "-//W3C//DTD SVG 1.1//EN" "http://www.w3.org/Graphics/SVG/1.1/DTD/svg11.dtd" >
<svg xmlns="http://www.w3.org/2000/svg" xmlns:xlink="http://www.w3.org/1999/xlink" version="1.1" viewBox="-10 0 543 1000">
  <g transform="matrix(1 0 0 -1 0 800)">
   <path fill="currentColor"
d="M269 -14q-33 0 -61.5 6.5t-49.5 13t-31 6.5q-8 0 -16.5 -3.5t-15.5 -8.5q-9 -6 -14 -6q-8 0 -13 4t-5 8q0 6 5 33t4 69l-2 493q0 27 -4.5 41t-13 20t-21.5 10q-8 2 -15 6.5t-7 11.5t6 11t13 4q12 0 30 -1t36.5 -2.5t33.5 -1.5l208 1q39 0 64 1.5t27 1.5q3 0 7.5 -2.5
t4.5 -8.5q0 -16 -2 -44.5t-2 -47.5q0 -18 -3 -37.5t-16 -19.5q-14 0 -28 53q-4 17 -19.5 36t-37.5 19h-107q-19 0 -31.5 -12t-12.5 -28v-215q0 -12 1.5 -15.5t7.5 -3.5q32 25 68.5 37t64.5 12q53 0 94.5 -28t65.5 -74t24 -103q0 -59 -26 -113t-78 -88.5t-133 -34.5zM289 25
q31 0 52.5 23.5t33.5 62.5t12 87q0 39 -12 80t-37 69t-65 28q-16 0 -37.5 -7.5t-35.5 -21.5q-10 -11 -15 -28t-5 -53v-128q0 -33 15.5 -58.5t40.5 -39.5t53 -14z" />
  </g>

</svg>
