<?xml version="1.0" standalone="no"?>
<!DOCTYPE svg PUBLIC "-//W3C//DTD SVG 1.1//EN" "http://www.w3.org/Graphics/SVG/1.1/DTD/svg11.dtd" >
<svg xmlns="http://www.w3.org/2000/svg" xmlns:xlink="http://www.w3.org/1999/xlink" version="1.1" viewBox="-10 0 590 1000">
  <g transform="matrix(1 0 0 -1 0 800)">
   <path fill="currentColor"
d="M499 -14q-36 0 -59 10.5t-40 31t-33 50t-38 67.5q-15 25 -26.5 41.5t-30.5 16.5h-64q-10 0 -10 -9v-128q0 -17 12 -24t34 -14q8 -3 14 -7t6 -12q0 -7 -6 -9t-12 -2q-19 0 -36.5 1t-33.5 2t-34 1q-17 0 -33 -1t-32 -2.5t-36 -1.5q-5 0 -12 2.5t-7 9.5q0 8 6 12t14 7
q21 6 33 12t12 24v281q0 19 -10.5 27.5t-32.5 14.5q-8 2 -13.5 7t-5.5 12t7 9.5t12 2.5q20 0 35 -1t30 -2.5t32 -1.5q18 0 33.5 1t32 2t35.5 1q6 0 12.5 -2t6.5 -10q0 -7 -6 -11t-14 -7q-23 -7 -33 -16.5t-10 -27.5v-91q0 -6 3.5 -8.5t9.5 -2.5h76q24 0 39.5 10t26.5 26
t21 34q11 19 21.5 40t23 39t31 29t46.5 11q25 0 40.5 -14.5t15.5 -37.5q0 -20 -9.5 -33t-24.5 -13q-13 0 -29.5 8t-28.5 8t-18.5 -6t-14.5 -19q-4 -8 -11 -19.5t-14.5 -24t-17.5 -22.5q-4 -5 -3 -6.5t3 -5.5q15 -26 35 -59.5t41 -65.5q21 -33 42 -58t43 -31q12 -3 18.5 -7.5
t6.5 -14.5q0 -8 -20.5 -15.5t-50.5 -7.5zM271 71q-11 0 -22.5 9t-11.5 21v242q0 8 4.5 13.5t10.5 5.5q10 0 22.5 -11.5t12.5 -27.5v-234q0 -8 -4.5 -13t-11.5 -5z" />
  </g>

</svg>
