<?xml version="1.0" standalone="no"?>
<!DOCTYPE svg PUBLIC "-//W3C//DTD SVG 1.1//EN" "http://www.w3.org/Graphics/SVG/1.1/DTD/svg11.dtd" >
<svg xmlns="http://www.w3.org/2000/svg" xmlns:xlink="http://www.w3.org/1999/xlink" version="1.1" viewBox="-10 0 725 1000">
  <g transform="matrix(1 0 0 -1 0 800)">
   <path fill="currentColor"
d="M632 -205q-14 0 -20 13t-6 30t-1 32t-1 28q0 59 -19 80.5t-53 21.5q-20 0 -41 -0.5t-43.5 -2t-47.5 -1.5q-9 0 -16 3.5t-7 9.5q0 15 26 20q35 8 51 22.5t16 45.5v210q0 11 -3 16t-5 3q-8 -7 -30.5 -20.5t-57.5 -25t-81 -11.5q-94 0 -143 38.5t-49 126.5v117
q0 33 -10.5 47t-49.5 22q-26 5 -26 21q0 6 7 9.5t16 3.5q25 0 46.5 -1t42 -2t40.5 -1q21 0 42.5 1t44 2t46.5 1q10 0 16 -3.5t6 -10.5q0 -8 -6.5 -12.5t-18.5 -7.5q-39 -10 -53 -25t-14 -44v-115q0 -49 27.5 -78t86.5 -29q25 0 49 6t43 14t27 14q4 3 5.5 8.5t1.5 13.5v166
q0 30 -13.5 45.5t-52.5 23.5q-26 5 -26 21q0 6 7 9.5t16 3.5q24 0 47 -1t45 -2t43 -1q19 0 39 1t42 2t46 1q10 0 15.5 -3.5t5.5 -10.5q0 -8 -6 -12.5t-19 -7.5q-39 -10 -49.5 -25t-10.5 -44v-444q0 -31 21.5 -46t52.5 -17q16 -1 16 -16q0 -12 -5.5 -41.5t-12 -69.5t-9.5 -82
q-1 -19 -9 -29.5t-21 -10.5z" />
  </g>

</svg>
