<?xml version="1.0" standalone="no"?>
<!DOCTYPE svg PUBLIC "-//W3C//DTD SVG 1.1//EN" "http://www.w3.org/Graphics/SVG/1.1/DTD/svg11.dtd" >
<svg xmlns="http://www.w3.org/2000/svg" xmlns:xlink="http://www.w3.org/1999/xlink" version="1.1" viewBox="-10 0 404 1000">
  <g transform="matrix(1 0 0 -1 0 800)">
   <path fill="currentColor"
d="M44 -3q-8 0 -14 3.5t-6 9.5q0 8 6.5 12t16.5 7q21 6 29.5 14.5t8.5 23.5v225q0 23 -6.5 38.5t-27.5 20.5q-4 2 -8 5.5t-4 10.5q0 13 11 16q30 8 65 21.5t59 26.5q5 3 11 6t9 3q8 0 8 -10q0 -4 -0.5 -18t-1 -30.5t-1.5 -29.5q0 -6 3 -6q16 21 36 39t42.5 30t45.5 12
q29 0 43.5 -12t14.5 -30q0 -14 -7.5 -30t-19 -27.5t-25.5 -11.5q-8 0 -17 3.5t-18 8.5q-9 4 -18.5 8t-17.5 4q-25 0 -45 -18.5t-20 -72.5v-176q0 -18 13 -27.5t40 -17.5q11 -3 16.5 -6.5t5.5 -11.5q0 -13 -18 -13q-30 0 -56.5 2.5t-52.5 2.5q-17 0 -32.5 -1t-31.5 -2.5
t-36 -1.5zM321 458q-6 0 -14.5 5.5t-13.5 12.5q-16 19 -36 44t-38.5 51t-32.5 47q-3 5 -5.5 10t-2.5 10q0 13 15.5 19t40.5 6q15 0 23.5 -6.5t14.5 -18.5q7 -15 17.5 -42.5t21 -56.5t15.5 -48q4 -15 4 -20q0 -7 -2 -10t-7 -3zM171 458q-6 0 -14.5 5.5t-13.5 12.5
q-16 19 -36 43.5t-38.5 50.5t-31.5 47q-3 6 -6 11t-3 10q0 13 15.5 19t42.5 6q14 0 22 -6.5t14 -18.5q7 -15 17.5 -42t21 -56t15.5 -49q4 -15 4 -20q0 -7 -2 -10t-7 -3z" />
  </g>

</svg>
