<?xml version="1.0" standalone="no"?>
<!DOCTYPE svg PUBLIC "-//W3C//DTD SVG 1.1//EN" "http://www.w3.org/Graphics/SVG/1.1/DTD/svg11.dtd" >
<svg xmlns="http://www.w3.org/2000/svg" xmlns:xlink="http://www.w3.org/1999/xlink" version="1.1" viewBox="-10 0 552 1000">
  <g transform="matrix(1 0 0 -1 0 800)">
   <path fill="currentColor"
d="M299 -286q-6 0 -12 3t-6 9q0 8 6.5 12t15.5 7q23 7 35.5 16t12.5 31l1 238q0 11 -1.5 16t-3.5 7q-35 -34 -74 -51t-84 -17q-32 0 -57.5 17t-40 47t-14.5 70v192q0 23 -9 36.5t-32 20.5q-6 1 -10.5 5t-4.5 12t4.5 12t10.5 5q40 2 69 7.5t62 13.5q4 2 8 3t8 1q13 0 12 -14
q-3 -23 -5 -38.5t-2 -38.5v-193q0 -24 9 -43t25 -30t35 -12q19 0 35.5 4t32.5 18q8 6 18 22.5t10 43.5v168q0 19 -8.5 30.5t-22 17.5t-27.5 6q-11 1 -17 5t-6 16q0 10 7 14t16 4q44 3 71 5t45.5 5t36.5 8q3 1 6.5 1.5t5.5 0.5q14 0 14 -11q0 -3 -0.5 -6.5t-2.5 -7.5
q-1 -3 -2.5 -17t-3 -29t-1.5 -23l1 -548q0 -19 12.5 -26t31.5 -13q10 -3 16.5 -7.5t6.5 -12.5q0 -6 -6.5 -9t-13.5 -3q-30 0 -53.5 2.5t-49.5 2.5q-16 0 -34 -1t-37 -2.5t-39 -1.5z" />
  </g>

</svg>
