<?xml version="1.0" standalone="no"?>
<!DOCTYPE svg PUBLIC "-//W3C//DTD SVG 1.1//EN" "http://www.w3.org/Graphics/SVG/1.1/DTD/svg11.dtd" >
<svg xmlns="http://www.w3.org/2000/svg" xmlns:xlink="http://www.w3.org/1999/xlink" version="1.1" viewBox="-10 0 367 1000">
  <g transform="matrix(1 0 0 -1 0 800)">
   <path fill="currentColor"
d="M152 -288q-31 0 -58 6.5t-43.5 18t-16.5 26.5q0 26 11.5 41t29.5 15q12 0 22 -6.5t18 -17.5q9 -12 21 -23.5t31 -11.5q20 0 33 13t21 37t11.5 57t2.5 73v50q-6 -2 -13 -3t-13 -1q-59 0 -90.5 31.5t-31.5 93.5v231q0 8 -8 12t-22 5h-13q-5 0 -9.5 10t-4.5 18q0 6 5 8
q21 7 44 20.5t43.5 30t34.5 29.5q9 9 15 14.5t12 5.5q7 0 11.5 -2.5t3.5 -13.5l-5 -48q-1 -10 6 -14t18 -4h118q3 0 6 -7.5t3 -14.5q0 -12 -3.5 -23t-8.5 -11h-95q-23 0 -31.5 -5t-8.5 -21v-188q0 -51 19 -72t46 -21q28 0 42.5 5.5t24.5 10.5q5 3 8 3q4 0 6.5 -6t2.5 -13v-5
q0 -48 -7 -95t-20 -86.5t-34 -66.5q-25 -44 -61 -64.5t-73 -20.5z" />
  </g>

</svg>
