<?xml version="1.0" standalone="no"?>
<!DOCTYPE svg PUBLIC "-//W3C//DTD SVG 1.1//EN" "http://www.w3.org/Graphics/SVG/1.1/DTD/svg11.dtd" >
<svg xmlns="http://www.w3.org/2000/svg" xmlns:xlink="http://www.w3.org/1999/xlink" version="1.1" viewBox="-10 0 398 1000">
  <g transform="matrix(1 0 0 -1 0 800)">
   <path fill="currentColor"
d="M40 277q-5 0 -9.5 3t-4.5 7q0 5 4.5 8.5t10.5 5.5q10 3 17.5 6.5t7.5 15.5v220q0 47 16 79t40.5 50.5t52.5 26.5t52 8t41.5 -5.5t30.5 -16.5q5 -5 7.5 -9.5t2.5 -10.5q0 -14 -11.5 -26.5t-20.5 -12.5q-7 0 -11 5.5t-10 12.5q-6 11 -17 19.5t-32 8.5q-26 0 -41 -21.5
t-15 -68.5v-68q0 -4 1 -9.5t3 -7.5q15 11 40 24.5t57 13.5q34 0 56.5 -22.5t22.5 -57.5v-130q0 -12 7.5 -16.5t16.5 -7.5q6 -2 10 -5.5t4 -8.5q0 -4 -4.5 -7t-10.5 -3q-19 0 -33 1.5t-32 1.5q-13 0 -22.5 -0.5t-18.5 -1.5t-22 -1q-5 0 -11 3t-6 7q0 5 4.5 8.5t9.5 5.5
q8 2 15.5 7t7.5 18v111q0 19 -12.5 32t-28.5 13q-10 0 -20.5 -2.5t-18.5 -7.5q-9 -5 -11.5 -12.5t-2.5 -23.5v-112q0 -11 6 -15.5t15 -7.5q5 -1 9 -5t4 -9q0 -4 -4 -7t-8 -3q-16 0 -34 1t-34 1q-15 0 -32 -1t-34 -1z" />
  </g>

</svg>
