<?xml version="1.0" standalone="no"?>
<!DOCTYPE svg PUBLIC "-//W3C//DTD SVG 1.1//EN" "http://www.w3.org/Graphics/SVG/1.1/DTD/svg11.dtd" >
<svg xmlns="http://www.w3.org/2000/svg" xmlns:xlink="http://www.w3.org/1999/xlink" version="1.1" viewBox="-10 0 389 1000">
  <g transform="matrix(1 0 0 -1 0 800)">
   <path fill="currentColor"
d="M69 -3q-6 0 -12 3t-6 9q0 8 6 12t14 7q21 6 33 12.5t12 24.5v60q0 24 13.5 41.5t40.5 35.5q15 11 33 22.5t31 28.5t13 41q0 25 -9.5 45t-27 31.5t-41.5 11.5q-23 0 -45.5 -13t-39 -33.5t-24.5 -43.5q-4 -12 -10.5 -22.5t-15.5 -10.5q-8 0 -11.5 6.5t-3.5 15.5
q0 21 2.5 43.5t6.5 40t10 21.5q15 1 28 4.5t28 9.5q20 9 42.5 17t50.5 8q41 0 79 -13.5t63 -40.5t25 -67q0 -29 -18.5 -51.5t-40 -37t-33.5 -23.5q-24 -19 -29 -31t-5 -38v-57q0 -16 11.5 -23.5t33.5 -14.5q8 -3 14.5 -7t6.5 -12q0 -6 -6 -8.5t-12 -2.5q-19 0 -36.5 1t-34 2
t-34.5 1q-17 0 -33 -1t-32.5 -2.5t-36.5 -1.5z" />
  </g>

</svg>
