<?xml version="1.0" standalone="no"?>
<!DOCTYPE svg PUBLIC "-//W3C//DTD SVG 1.1//EN" "http://www.w3.org/Graphics/SVG/1.1/DTD/svg11.dtd" >
<svg xmlns="http://www.w3.org/2000/svg" xmlns:xlink="http://www.w3.org/1999/xlink" version="1.1" viewBox="-10 0 1189 1000">
  <g transform="matrix(1 0 0 -1 0 800)">
   <path fill="currentColor"
d="M379 -7q-27 0 -65 2t-76.5 3.5t-63.5 1.5q-20 0 -40.5 -0.5t-42.5 -2t-47 -1.5q-9 0 -16 3.5t-7 10.5q0 9 6.5 13t19.5 6q38 8 52 22t14 47v452q0 34 -13.5 48t-52.5 22q-13 2 -19.5 6.5t-6.5 13.5q0 7 7 10.5t16 3.5q24 0 46 -0.5t43.5 -2t43.5 -1.5q15 0 40.5 1.5t55 3
t55.5 3t42 1.5q84 0 151 -24t114.5 -67t72.5 -102t25 -128t-25 -131t-71.5 -110t-112 -76t-145.5 -28zM364 39q72 0 122.5 34.5t76.5 97t26 144.5q0 68 -17.5 123.5t-49 94t-75 59.5t-94.5 21q-36 0 -60.5 -2t-37 -11.5t-12.5 -31.5v-440q0 -35 15.5 -54.5t43 -27t62.5 -7.5
zM804 -5q-4 0 -12 8.5t-8 15.5q0 5 7.5 16.5t17 25t15.5 22.5q24 38 45 68.5t40.5 61t41.5 65.5t51 82q2 3 2 7t-12 4l-70 1q-14 1 -24.5 -4.5t-19.5 -13.5q-5 -5 -13 -16t-17 -23.5t-16 -23t-11 -15.5q-6 -7 -18 -3t-10 13q3 10 8 32t9.5 47t4.5 42q0 9 7 16t13 7
q8 0 18 -10q5 -4 18.5 -5t27.5 -1q12 0 23 0.5t18 0.5q49 0 101 1t101 2q6 0 10 -5.5t5.5 -12.5t-1.5 -11q-11 -14 -20 -26t-20 -28l-176 -276q-4 -7 -1.5 -11t13.5 -4h81q13 0 25 5t24 18q14 15 25.5 32.5t28.5 45.5q7 11 19 8t12 -13q0 -6 -3.5 -21.5t-8.5 -35.5
t-10.5 -39.5t-9.5 -33.5q-4 -15 -18 -15q-24 0 -82 3t-145 3q-23 0 -47.5 -3t-38.5 -3z" />
  </g>

</svg>
