<?xml version="1.0" standalone="no"?>
<!DOCTYPE svg PUBLIC "-//W3C//DTD SVG 1.1//EN" "http://www.w3.org/Graphics/SVG/1.1/DTD/svg11.dtd" >
<svg xmlns="http://www.w3.org/2000/svg" xmlns:xlink="http://www.w3.org/1999/xlink" version="1.1" viewBox="-10 0 549 1000">
  <g transform="matrix(1 0 0 -1 0 800)">
   <path fill="currentColor"
d="M237 -13q-51 0 -88.5 10t-67.5 27q-9 5 -17 13.5t-11 19.5q-6 21 -11 57t-5 67q0 9 7.5 14.5t14.5 5.5q8 0 18 -26q29 -73 70.5 -110.5t85.5 -37.5q41 0 68.5 21.5t42 58.5t14.5 85q0 41 -17 74t-47 52.5t-70 19.5q-11 0 -14.5 -0.5t-13.5 -0.5q-13 0 -20.5 3.5
t-7.5 15.5q0 9 2.5 14.5t16.5 24.5l142 186q4 4 6 8.5t2 9.5q0 7 -6 9.5t-20 2.5h-112q-29 0 -60.5 -22t-49.5 -58q-6 -11 -14.5 -22.5t-22.5 -11.5q-7 0 -10 4.5t-3 10.5t2.5 13.5l4.5 13.5q9 20 14 38t8.5 37.5t4.5 41.5q2 14 6.5 19t13.5 5q7 0 18.5 -8.5t23.5 -14.5
q13 -5 30 -5.5t40 -0.5h219q16 0 32.5 2t25.5 2q5 0 8 -10.5t-1 -14.5l-184 -240q-3 -3 -3.5 -7.5t4.5 -5.5q54 -2 97.5 -22.5t68.5 -58t25 -92.5t-21.5 -96t-58 -67.5t-83 -40t-97.5 -13.5z" />
  </g>

</svg>
