<?xml version="1.0" standalone="no"?>
<!DOCTYPE svg PUBLIC "-//W3C//DTD SVG 1.1//EN" "http://www.w3.org/Graphics/SVG/1.1/DTD/svg11.dtd" >
<svg xmlns="http://www.w3.org/2000/svg" xmlns:xlink="http://www.w3.org/1999/xlink" version="1.1" viewBox="-10 0 829 1000">
  <g transform="matrix(1 0 0 -1 0 800)">
   <path fill="currentColor"
d="M48 -4q-9 0 -16 3.5t-7 9.5q0 15 25 20q38 8 51 22t13 47v453q0 33 -11 47t-50 22q-25 5 -25 21q0 6 7 9.5t16 3.5q24 0 46 -1t42.5 -2t40.5 -1t41.5 1t44.5 2t47 1q10 0 16 -3.5t6 -10.5q0 -8 -6.5 -12.5t-19.5 -7.5q-39 -10 -52.5 -25t-13.5 -45v-352q0 -12 3 -14t11 6
l321 340q9 9 9 20v8q-1 28 -15.5 41t-50.5 21q-25 5 -25 21q0 6 7 9.5t16 3.5q24 0 47 -1t45 -2t43 -1q19 0 39 1t42 2t46 1q10 0 16 -3.5t6 -10.5q0 -8 -6.5 -12.5t-19.5 -7.5q-39 -10 -49.5 -25t-10.5 -44v-452q0 -32 11.5 -46t49.5 -24q13 -3 19 -7t6 -12q0 -7 -5.5 -10
t-15.5 -3q-24 0 -47 1t-44.5 2t-41.5 1q-21 0 -41.5 -1t-43 -2.5t-46.5 -1.5q-9 0 -16 3.5t-7 9.5q0 15 25 20q36 8 51.5 20t15.5 43v362q0 15 -9 6l-324 -343q-6 -7 -8.5 -11t-2.5 -14q0 -29 17.5 -41.5t53.5 -21.5q13 -3 19.5 -7t6.5 -12q0 -7 -6 -10t-16 -3q-24 0 -48 1
t-46.5 2t-43.5 1t-42 -1t-43.5 -2.5t-46.5 -1.5zM419 693q-58 0 -92.5 16.5t-49.5 41.5t-15 49q0 33 16 52t41 19q26 0 38.5 -11t12.5 -28q0 -7 -1 -14.5t-3 -13.5q-2 -5 -3.5 -11t-1.5 -13q0 -14 15.5 -26t47.5 -12q48 0 74.5 25.5t38.5 68.5q3 12 7.5 16.5t9.5 4.5
q7 0 9.5 -6.5t2.5 -13.5q0 -38 -19 -71t-52 -53t-76 -20z" />
  </g>

</svg>
