<?xml version="1.0" standalone="no"?>
<!DOCTYPE svg PUBLIC "-//W3C//DTD SVG 1.1//EN" "http://www.w3.org/Graphics/SVG/1.1/DTD/svg11.dtd" >
<svg xmlns="http://www.w3.org/2000/svg" xmlns:xlink="http://www.w3.org/1999/xlink" version="1.1" viewBox="-10 0 504 1000">
  <g transform="matrix(1 0 0 -1 0 800)">
   <path fill="currentColor"
d="M51 -286q-3 0 -4.5 6t-1.5 9q0 20 16 44t42 42t57 18q30 0 56.5 -5.5t49 -11.5t42.5 -6q18 0 29 5.5t11 16.5q0 12 -15.5 25.5t-40.5 29t-51 32t-48 33.5q-41 31 -79 65.5t-62.5 77t-24.5 97.5q0 63 29 116.5t81 86t123 32.5q40 0 77.5 -15t66.5 -41.5t46 -62t17 -75.5
q0 -45 -20 -87.5t-57.5 -76t-90.5 -50.5q-2 -1 2.5 -5l9 -8t5.5 -4q24 -19 46 -37t35.5 -40.5t13.5 -53.5q0 -33 -20 -60.5t-51.5 -44t-68.5 -21.5q-37 -4 -68.5 -6t-48.5 -2q-33 0 -48 -1t-22.5 -4.5t-17.5 -10.5q-1 -1 -7.5 -4t-7.5 -3zM268 48q17 0 32.5 10.5t26.5 26.5
q12 17 16.5 42t4.5 53q0 52 -14 98.5t-38 76.5t-55 30q-23 0 -41.5 -10.5t-30.5 -31.5q-13 -21 -18 -51.5t-5 -62.5q0 -33 13 -65t32.5 -58.5t40 -42t36.5 -15.5z" />
  </g>

</svg>
