<?xml version="1.0" standalone="no"?>
<!DOCTYPE svg PUBLIC "-//W3C//DTD SVG 1.1//EN" "http://www.w3.org/Graphics/SVG/1.1/DTD/svg11.dtd" >
<svg xmlns="http://www.w3.org/2000/svg" xmlns:xlink="http://www.w3.org/1999/xlink" version="1.1" viewBox="-10 0 622 1000">
  <g transform="matrix(1 0 0 -1 0 800)">
   <path fill="currentColor"
d="M43 -181q-9 0 -16 3.5t-7 10.5q0 14 25 20q38 7 55 21t17 47v629q0 31 -11.5 46.5t-50.5 23.5q-25 5 -25 21q0 6 7 9.5t16 3.5q24 0 42.5 -1t34 -2t31.5 -1q13 0 22 0.5t20.5 1.5t30.5 1q14 0 16 -3.5t2 -10.5q0 -12 -1 -19.5t-2.5 -15t-1.5 -19.5v-16q0 -6 2 -12.5
t4 -2.5q31 48 74.5 79t103.5 31q61 0 98.5 -23.5t55 -60.5t17.5 -80q0 -62 -28 -120.5t-73 -110.5t-99.5 -93.5t-109.5 -71.5q-22 -12 -33.5 -27.5t-11.5 -41.5v-115q0 -29 16.5 -43.5t54.5 -23.5q12 -3 18.5 -7t6.5 -13q0 -6 -5.5 -9.5t-16.5 -3.5q-23 0 -47 1t-46.5 2
t-44.5 1t-45 -1t-47 -2.5t-48 -1.5zM274 145q41 27 76 58t60 69t38.5 84t13.5 102q0 61 -22.5 94t-63.5 33q-29 0 -52.5 -15.5t-40.5 -39.5t-26.5 -50.5t-9.5 -49.5v-264q0 -25 6 -27.5t21 6.5z" />
  </g>

</svg>
