<?xml version="1.0" standalone="no"?>
<!DOCTYPE svg PUBLIC "-//W3C//DTD SVG 1.1//EN" "http://www.w3.org/Graphics/SVG/1.1/DTD/svg11.dtd" >
<svg xmlns="http://www.w3.org/2000/svg" xmlns:xlink="http://www.w3.org/1999/xlink" version="1.1" viewBox="-10 0 578 1000">
  <g transform="matrix(1 0 0 -1 0 800)">
   <path fill="currentColor"
d="M443 -161q-10 0 -15 7t-5 16q0 5 1.5 14t3.5 16q3 13 7 29.5t7 31.5t3 23q0 14 -7.5 20t-29.5 6q-18 0 -28.5 -1t-21.5 -2.5t-31 -1.5q-5 0 -11.5 3t-6.5 9q0 8 6.5 12.5t14.5 7.5q15 4 26.5 11t11.5 27v200q0 5 -2.5 6.5t-4.5 -1.5l-157 -182q-3 -5 -5.5 -10t-2.5 -13
q0 -21 12 -27t26 -11q8 -3 14.5 -7.5t6.5 -12.5q0 -6 -6 -9t-12 -3q-20 0 -35 1.5t-28.5 2.5t-31.5 1q-17 0 -32 -1t-31.5 -2.5t-36.5 -1.5q-5 0 -12.5 3t-7.5 9q0 8 7.5 12.5t15.5 7.5q15 5 27.5 11.5t12.5 26.5v279q0 20 -11.5 27.5t-26.5 11.5q-8 3 -15.5 7.5t-7.5 11.5
t7.5 10t12.5 3q20 0 35.5 -1t30.5 -2.5t32 -1.5q18 0 31 1.5t27.5 2.5t34.5 1q5 0 11 -3.5t6 -9.5q0 -7 -6 -11.5t-14 -7.5q-15 -5 -25.5 -11.5t-10.5 -26.5v-180q0 -8 4 -10.5t8 3.5l152 175q3 4 5.5 6t2.5 7q0 20 -10 26t-25 11q-8 3 -14.5 7.5t-6.5 11.5t6 10t12 3
q20 0 35 -1t28.5 -2.5t30.5 -1.5q18 0 32 1.5t29.5 2.5t35.5 1q6 0 12 -3t6 -10t-6.5 -12t-14.5 -7q-15 -4 -27 -11t-12 -27v-276q-1 -17 6 -26.5t20.5 -13.5t30.5 -8q6 0 8 -5t1 -10q-2 -9 -15 -30.5t-30 -51t-29 -61.5q-10 -26 -28 -26zM281 468q-40 0 -68.5 12.5
t-43 34.5t-14.5 47q0 31 12.5 46.5t30.5 15.5q19 0 27.5 -9.5t8.5 -22.5q0 -7 -0.5 -14t-0.5 -12q0 -22 18.5 -34.5t46.5 -12.5q23 0 47 15.5t37 53.5q6 14 9 18.5t8 4.5q9 0 9 -16q0 -37 -18 -66t-46.5 -45t-62.5 -16z" />
  </g>

</svg>
