<?xml version="1.0" standalone="no"?>
<!DOCTYPE svg PUBLIC "-//W3C//DTD SVG 1.1//EN" "http://www.w3.org/Graphics/SVG/1.1/DTD/svg11.dtd" >
<svg xmlns="http://www.w3.org/2000/svg" xmlns:xlink="http://www.w3.org/1999/xlink" version="1.1" viewBox="-19 0 1060 1000">
  <g transform="matrix(1 0 0 -1 0 800)">
   <path fill="currentColor"
d="M974 -205q-13 0 -19 13t-7 30v30.5v26.5q0 50 -12.5 68t-38.5 20q-31 3 -57.5 20t-48 42t-38.5 54t-30 55q-16 35 -30 66t-28 53.5t-30 28.5q-5 5 -10 9t-13.5 6t-26.5 2q-5 0 -7 -4.5t-2 -11.5l2 -205q0 -20 6.5 -33t20.5 -21t40 -15q12 -3 20 -7t8 -12q0 -7 -8.5 -10.5
t-19.5 -3.5q-30 0 -51.5 1.5t-40 3t-40.5 1.5t-40.5 -1.5t-40.5 -4t-53 -2.5q-11 0 -20 4.5t-9 10.5q0 15 29 20q38 8 53 22t15 47v205q0 7 -2 11.5t-7 4.5q-17 0 -25.5 -2t-13 -6t-11.5 -9q-16 -7 -32.5 -30.5t-34.5 -57t-38 -69.5q-22 -40 -48.5 -77.5t-57.5 -61.5
t-70 -24q-34 0 -64 8t-41 17q-4 3 -7.5 7t-3.5 8q0 6 4.5 10.5t10.5 4.5q34 2 62 23.5t52 54.5t45 70q21 35 41.5 69.5t42.5 62t47 42.5q6 4 5 8t-6 10q-10 11 -19.5 26.5t-19.5 39.5l-28 67q-13 32 -29 41.5t-33 9.5q-15 0 -36.5 -11t-38.5 -11q-20 0 -33 20t-13 43
q0 25 14.5 43.5t52.5 18.5q41 0 68.5 -15.5t45 -41t31.5 -57.5l39 -89q22 -46 47.5 -74t67.5 -29h27q5 0 7 3.5t2 12.5v179q0 34 -13.5 46.5t-52.5 20.5q-26 5 -26 21q0 6 7 9.5t16 3.5q25 0 48 -1t44.5 -2t42.5 -1t43 1t45 2t47 1q10 0 16 -3.5t6 -10.5q0 -8 -6.5 -12.5
t-19.5 -7.5q-39 -10 -53 -22.5t-14 -44.5v-179q0 -9 2 -12.5t7 -3.5h27q42 1 68 28.5t46 74.5l38 89q20 48 53 81t96 33q38 0 51 -18.5t13 -43.5q0 -23 -12.5 -43t-33.5 -20q-17 0 -38 11t-36 11q-16 0 -33 -9.5t-29 -41.5l-28 -67q-10 -24 -18 -37t-18 -25t-1 -18
q28 -16 49.5 -45t40.5 -64t38 -71q20 -39 42.5 -70.5t48.5 -52t57 -23.5q12 -2 18 -8t6 -12q0 -11 -5.5 -38.5t-12 -64.5t-8.5 -79q-1 -19 -9.5 -29.5t-21.5 -10.5z" />
  </g>

</svg>
