<?xml version="1.0" standalone="no"?>
<!DOCTYPE svg PUBLIC "-//W3C//DTD SVG 1.1//EN" "http://www.w3.org/Graphics/SVG/1.1/DTD/svg11.dtd" >
<svg xmlns="http://www.w3.org/2000/svg" xmlns:xlink="http://www.w3.org/1999/xlink" version="1.1" viewBox="-10 0 521 1000">
  <g transform="matrix(1 0 0 -1 0 800)">
   <path fill="currentColor"
d="M292 -287q-14 0 -24 3.5t-10 10.5t5 11.5t12 8.5q17 6 32 18.5t28 39.5q17 39 26.5 84.5t9.5 91.5q0 55 -10.5 101t-35.5 75q-19 24 -48 35.5t-65 11.5q-14 0 -14 -11v-127q0 -17 12 -24t34 -14q8 -3 14 -7t6 -12q0 -6 -5 -8.5t-12 -2.5q-20 0 -37 1t-33.5 2t-34.5 1
q-17 0 -33 -1t-32 -2.5t-36 -1.5q-8 0 -13.5 3t-5.5 9q0 8 6 12t14 7q21 6 33 12t12 24v281q0 19 -10.5 27.5t-32.5 14.5q-8 2 -13.5 7t-5.5 12q0 6 5.5 9t11.5 3q21 0 36.5 -1t30.5 -2.5t32 -1.5q13 0 31.5 1t38 2t33.5 1q6 0 11.5 -2.5t5.5 -9.5t-6 -11t-14 -7
q-23 -7 -33 -16.5t-10 -27.5v-93q0 -6 3.5 -8.5t9.5 -2.5q30 0 48 9.5t29 25.5t22 35q13 20 23.5 41.5t23 40t31 29.5t47.5 11q25 0 40.5 -14t15.5 -37q0 -21 -10 -33.5t-24 -12.5q-13 0 -29.5 7.5t-28.5 7.5t-18.5 -5.5t-14.5 -18.5q-5 -8 -11.5 -20.5t-14.5 -25t-18 -22.5
q-9 -11 3 -12q57 -8 92.5 -41.5t51.5 -82.5t16 -103q0 -48 -10.5 -94.5t-28.5 -82.5q-15 -32 -42 -61.5t-56.5 -48t-55.5 -18.5z" />
  </g>

</svg>
