<?xml version="1.0" standalone="no"?>
<!DOCTYPE svg PUBLIC "-//W3C//DTD SVG 1.1//EN" "http://www.w3.org/Graphics/SVG/1.1/DTD/svg11.dtd" >
<svg xmlns="http://www.w3.org/2000/svg" xmlns:xlink="http://www.w3.org/1999/xlink" version="1.1" viewBox="-10 0 829 1000">
  <g transform="matrix(1 0 0 -1 0 800)">
   <path fill="currentColor"
d="M670 -204q-11 0 -17.5 7.5t-6.5 19.5t5 24q7 17 14.5 42t13 47.5t5.5 32.5q0 18 -11 25t-37 7q-17 0 -36.5 -1t-41.5 -2.5t-47 -1.5q-9 0 -16 3.5t-7 9.5q0 15 26 20q35 7 50.5 19.5t15.5 43.5v362q0 15 -9 6l-317 -343q-6 -7 -8.5 -11t-2.5 -14q0 -29 17.5 -41.5
t53.5 -21.5q13 -3 19.5 -7t6.5 -12q0 -7 -6 -10t-16 -3q-24 0 -48 1t-46.5 2t-43.5 1t-42 -1t-43.5 -2.5t-46.5 -1.5q-9 0 -16 3.5t-7 9.5q0 15 25 20q38 8 51 22t13 47v453q0 33 -11 47t-50 22q-25 5 -25 21q0 6 7 9.5t16 3.5q24 0 46 -1t42.5 -2t40.5 -1t41.5 1t44.5 2
t47 1q10 0 16 -3.5t6 -10.5q0 -8 -6.5 -12.5t-19.5 -7.5q-39 -10 -52.5 -25t-13.5 -45v-352q0 -12 3 -14t11 6l314 340q9 9 9 20v8q0 28 -14.5 41.5t-50.5 20.5q-26 5 -26 21q0 6 7 9.5t16 3.5q24 0 47 -1t45 -2t43 -1q19 0 39 1t42 2t46 1q10 0 16 -3.5t6 -10.5
q0 -8 -6.5 -12.5t-18.5 -7.5q-40 -10 -50.5 -25t-10.5 -44v-461q0 -21 11 -32.5t28.5 -17t37.5 -7.5q8 -1 10.5 -7t1.5 -11q-2 -9 -12 -28.5t-25 -45.5t-30.5 -56t-27.5 -59q-6 -15 -15 -22.5t-19 -7.5zM415 693q-57 0 -91.5 16.5t-49.5 41.5t-15 49q0 33 16 52t40 19
q27 0 39.5 -11t12.5 -28q0 -7 -1 -14.5t-3 -13.5q-2 -5 -3.5 -11t-1.5 -13q0 -14 15.5 -26t46.5 -12q49 0 75.5 25.5t37.5 68.5q4 12 8 16.5t10 4.5t9 -6.5t3 -13.5q0 -38 -19 -71t-52 -53t-77 -20z" />
  </g>

</svg>
