<?xml version="1.0" standalone="no"?>
<!DOCTYPE svg PUBLIC "-//W3C//DTD SVG 1.1//EN" "http://www.w3.org/Graphics/SVG/1.1/DTD/svg11.dtd" >
<svg xmlns="http://www.w3.org/2000/svg" xmlns:xlink="http://www.w3.org/1999/xlink" version="1.1" viewBox="-169 0 338 1000">
  <g transform="matrix(1 0 0 -1 0 800)">
   <path fill="currentColor"
d="M-5 451q-43 0 -72.5 10.5t-47.5 26.5t-26 31.5t-8 25.5q0 16 13.5 25.5t23.5 9.5q13 0 23.5 -7.5t19.5 -19.5q13 -16 36 -29t54 -13q32 0 60 15.5t46 32.5q11 10 16 12.5t14 2.5q12 0 12 -16q0 -6 -10 -23.5t-30.5 -36.5t-51.5 -33t-72 -14zM12 557q-25 0 -42.5 17.5
t-17.5 42.5q0 26 17.5 43.5t42.5 17.5q26 0 44 -17.5t18 -43.5q0 -25 -18 -42.5t-44 -17.5z" />
  </g>

</svg>
