<?xml version="1.0" standalone="no"?>
<!DOCTYPE svg PUBLIC "-//W3C//DTD SVG 1.1//EN" "http://www.w3.org/Graphics/SVG/1.1/DTD/svg11.dtd" >
<svg xmlns="http://www.w3.org/2000/svg" xmlns:xlink="http://www.w3.org/1999/xlink" version="1.1" viewBox="-10 0 831 1000">
  <g transform="matrix(1 0 0 -1 0 800)">
   <path fill="currentColor"
d="M742 654q8 0 13 -4t7 -11q6 -22 17.5 -52.5t21.5 -59t10 -43.5q0 -14 -13 -14q-8 0 -14 5.5t-11 15.5q-16 35 -47 43.5t-70 8.5l-71 -1q-6 0 -7.5 -4.5t3.5 -10.5q55 -29 92.5 -66t56.5 -84t19 -103q0 -66 -26.5 -119t-73 -90.5t-106.5 -58t-128 -20.5q-65 0 -124 19.5
t-105 56.5t-73 88.5t-27 114.5q0 57 19 105t56.5 86.5t92.5 68.5q6 5 8 10.5t-4 7.5h-96q-36 1 -61.5 -12.5t-39.5 -43.5q-5 -10 -11 -15.5t-14 -5.5q-12 0 -12 14q0 10 6 29.5t14.5 43t16.5 46.5t12 40q2 7 7.5 11t13.5 4q12 0 32 -1t48 -2q24 0 44.5 -0.5t39.5 -0.5h32.5
h32.5h40q7 0 7 -11q0 -14 -8 -34.5t-19 -30.5q-29 -23 -54.5 -63t-42 -91t-16.5 -106q0 -56 12.5 -108t36.5 -92t59.5 -64t82.5 -24q45 0 80 21.5t58 59t34.5 86t11.5 101.5q0 59 -14.5 114t-40.5 98.5t-59 70.5q-11 9 -17.5 27.5t-7.5 34.5q-1 5 1 8t6 3h40.5h33h33.5
q17 0 36 0.5t42 0.5q29 1 50 2t34 1z" />
  </g>

</svg>
