<?xml version="1.0" standalone="no"?>
<!DOCTYPE svg PUBLIC "-//W3C//DTD SVG 1.1//EN" "http://www.w3.org/Graphics/SVG/1.1/DTD/svg11.dtd" >
<svg xmlns="http://www.w3.org/2000/svg" xmlns:xlink="http://www.w3.org/1999/xlink" version="1.1" viewBox="-10 0 366 1000">
  <g transform="matrix(1 0 0 -1 0 800)">
   <path fill="currentColor"
d="M40 -4q-9 0 -16 3.5t-7 9.5q0 15 25 20q38 8 55 22t17 46v454q0 33 -14 47t-53 22q-25 5 -25 21q0 6 7 9.5t16 3.5q24 0 47 -1t44.5 -2t43.5 -1q21 0 42.5 1t44.5 2t47 1q10 0 16 -3.5t6 -10.5q0 -8 -6.5 -12.5t-18.5 -7.5q-40 -10 -54 -24t-14 -46v-452q0 -31 16.5 -45
t54.5 -24q13 -3 19.5 -7t6.5 -12q0 -7 -6 -10t-16 -3q-24 0 -48 1t-46.5 2t-43.5 1q-22 0 -45 -1t-47 -2.5t-48 -1.5zM180 688q-47 0 -79 20t-47.5 47.5t-15.5 49.5q0 13 2.5 19.5t9.5 6.5q8 0 14 -6.5t13 -15.5q22 -24 45.5 -35t57.5 -11t57.5 11t45.5 35q7 9 13 15.5
t14 6.5q9 0 10.5 -6.5t1.5 -19.5q0 -22 -15.5 -49.5t-47 -47.5t-79.5 -20z" />
  </g>

</svg>
