<?xml version="1.0" standalone="no"?>
<!DOCTYPE svg PUBLIC "-//W3C//DTD SVG 1.1//EN" "http://www.w3.org/Graphics/SVG/1.1/DTD/svg11.dtd" >
<svg xmlns="http://www.w3.org/2000/svg" xmlns:xlink="http://www.w3.org/1999/xlink" version="1.1" viewBox="-10 0 418 1000">
  <g transform="matrix(1 0 0 -1 0 800)">
   <path fill="currentColor"
d="M212 -14q-55 0 -97 28t-66 77.5t-24 112.5q0 61 28.5 111.5t76.5 80.5t105 30q42 0 75 -17.5t52.5 -48t19.5 -68.5q0 -36 -31 -36h-203q-14 0 -20.5 -7.5t-6.5 -27.5q0 -42 18.5 -76t49.5 -54t71 -20q29 0 53.5 11.5t46.5 31.5q4 3 7 5.5t6 2.5q10 0 10 -12
q0 -14 -12 -34q-12 -23 -34.5 -44t-54.5 -33.5t-70 -12.5zM148 295h71q26 0 39 1t25 4q5 1 7 8.5t2 17.5q0 27 -20.5 45.5t-50.5 18.5q-21 0 -41 -12.5t-33 -31.5t-12 -39q0 -12 13 -12zM119 -263q-11 0 -13 11t7 27q10 22 24 48t28.5 52t23.5 44q8 15 16 22.5t17 7.5
q8 0 16 -8t16 -22q10 -18 23.5 -44t27.5 -52.5t25 -47.5q9 -16 5 -27t-12 -11q-6 0 -16 8t-21 20q-9 12 -25 32.5t-35 40.5q-3 4 -4.5 4.5t-5.5 -4.5q-18 -20 -33.5 -40.5t-26.5 -32.5q-10 -12 -20 -20t-17 -8z" />
  </g>

</svg>
