<?xml version="1.0" standalone="no"?>
<!DOCTYPE svg PUBLIC "-//W3C//DTD SVG 1.1//EN" "http://www.w3.org/Graphics/SVG/1.1/DTD/svg11.dtd" >
<svg xmlns="http://www.w3.org/2000/svg" xmlns:xlink="http://www.w3.org/1999/xlink" version="1.1" viewBox="-10 0 549 1000">
  <g transform="matrix(1 0 0 -1 0 800)">
   <path fill="currentColor"
d="M236 -14q-59 0 -106 26.5t-75 73.5t-28 106q0 46 18 88t49 75t73 52.5t90 19.5q22 0 43.5 -5t36.5 -10q25 -9 53 -19.5t41 -10.5q24 0 32 7.5t8 22.5q0 9 -7 18.5t-17 17.5t-21 11q-4 2 -9.5 6.5t-5.5 10.5q0 10 9 23t23 22.5t30 9.5q23 0 39.5 -25t16.5 -55
q0 -26 -14.5 -50t-37 -39t-45.5 -15q-4 0 -1 -6t6 -10q19 -24 27.5 -54t8.5 -57q0 -62 -26.5 -115.5t-79 -86t-131.5 -32.5zM256 28q26 0 47.5 13t32.5 41q9 22 12.5 54.5t3.5 59.5q0 46 -14 89.5t-38.5 71.5t-58.5 28q-21 0 -37.5 -8t-30.5 -31q-15 -25 -20 -60.5t-5 -68.5
q0 -48 14.5 -91.5t38.5 -70.5t55 -27zM254 502q-12 0 -24.5 16t-12.5 29q0 8 8 18t15 17q10 9 16 16.5t6 19.5q0 9 -7.5 16t-18.5 7q-12 0 -21.5 -10t-24.5 -31q-3 -4 -7 -8.5t-10 -4.5t-13 8t-12 17.5t-5 15.5q0 8 5.5 16.5t11.5 11.5q17 10 38.5 19t54.5 9q34 0 62 -17.5
t28 -50.5q0 -16 -15 -33.5t-40 -26.5q-10 -4 -13 -7.5t-3 -8.5t2 -10.5t2 -11.5q1 -6 -6 -11t-16 -5z" />
  </g>

</svg>
