<?xml version="1.0" standalone="no"?>
<!DOCTYPE svg PUBLIC "-//W3C//DTD SVG 1.1//EN" "http://www.w3.org/Graphics/SVG/1.1/DTD/svg11.dtd" >
<svg xmlns="http://www.w3.org/2000/svg" xmlns:xlink="http://www.w3.org/1999/xlink" version="1.1" viewBox="-10 0 613 1000">
  <g transform="matrix(1 0 0 -1 0 800)">
   <path fill="currentColor"
d="M51 276q-19 0 -19 12q0 10 19 13q26 4 34.5 12t8.5 28v280q0 20 -8 30t-31 13q-19 3 -19 14q0 12 18 12q16 0 31 -1t29.5 -2t28.5 -1q16 0 30 1.5t30.5 3t38.5 1.5q58 0 99.5 -13.5t64 -41.5t22.5 -72q0 -40 -20.5 -72t-58.5 -51t-90 -19q-28 0 -34 13q-3 5 -0.5 10
t8.5 5q8 0 12.5 -1t10.5 -1q34 0 49.5 30.5t15.5 77.5q0 38 -11 61.5t-28.5 34t-39.5 10.5q-20 0 -30 -8t-10 -24l-1 -285q0 -21 9.5 -30t39.5 -15q9 -1 14 -4t5 -9q0 -11 -18 -11q-15 0 -33.5 1t-35.5 2t-31 1q-25 0 -51 -2.5t-49 -2.5z" />
  </g>

</svg>
