<?xml version="1.0" standalone="no"?>
<!DOCTYPE svg PUBLIC "-//W3C//DTD SVG 1.1//EN" "http://www.w3.org/Graphics/SVG/1.1/DTD/svg11.dtd" >
<svg xmlns="http://www.w3.org/2000/svg" xmlns:xlink="http://www.w3.org/1999/xlink" version="1.1" viewBox="-262 0 524 1000">
  <g transform="matrix(1 0 0 -1 0 800)">
   <path fill="currentColor"
d="M-196 489q-23 0 -39.5 23t-16.5 52q0 43 18.5 74.5t50.5 49t73 17.5q25 0 41 -12.5t26.5 -29.5t17.5 -30q7 -12 14 -12q2 0 5 2t8 8q9 10 23 26.5t26 29.5q5 7 10.5 10t7.5 3q8 0 17 -12q12 -20 25.5 -47t27.5 -47.5t27 -20.5q15 0 23.5 9t12.5 20.5t4 21.5q0 7 -3.5 12
t-8.5 11q-6 6 -11 13.5t-5 18.5q0 10 8 17t22 7q18 0 27.5 -11.5t13 -28.5t3.5 -32q0 -57 -33 -88t-78 -31q-24 0 -41.5 10.5t-31.5 28t-27 36.5q-8 12 -13 12q-4 0 -14 -9l-55 -55q-5 -5 -9 -8.5t-7 -3.5q-7 0 -15 13q-10 15 -22.5 40t-26.5 45t-31 20q-23 0 -35.5 -21
t-12.5 -41q0 -12 7 -19.5t12 -12.5q7 -7 11 -14.5t4 -18.5q0 -14 -10 -19.5t-20 -5.5z" />
  </g>

</svg>
