<?xml version="1.0" standalone="no"?>
<!DOCTYPE svg PUBLIC "-//W3C//DTD SVG 1.1//EN" "http://www.w3.org/Graphics/SVG/1.1/DTD/svg11.dtd" >
<svg xmlns="http://www.w3.org/2000/svg" xmlns:xlink="http://www.w3.org/1999/xlink" version="1.1" viewBox="-10 0 454 1000">
  <g transform="matrix(1 0 0 -1 0 800)">
   <path fill="currentColor"
d="M158.089 174.869l-28.2617 37.9766l121.879 68.8887q7.94824 2.64941 13.6895 4.41602q5.74023 1.76562 11.0391 1.76562q23.8467 0 23.8467 -15.8965q0 -11.4814 -3.0918 -16.3389q-3.09082 -4.8584 -10.1562 -8.39062zM41.5098 129.827q-9.71484 0 -18.5469 4.85742
t-8.83203 13.6895q0 5.29883 3.09082 10.5986q3.0918 5.29883 9.27344 8.83105l103.332 57.4072l28.2617 -37.9766l-90.084 -50.3418q-13.248 -7.06543 -26.4951 -7.06543zM44.1592 -2.64941q-3.5332 0 -8.39062 3.53223q-4.85742 3.5332 -4.85742 7.94922
q0 3.53223 4.41602 7.50684t12.3643 6.62402q21.1963 6.18164 32.6777 12.8057t11.4814 26.9375v257.005q0 22.0791 -8.83203 33.5605q-8.83105 11.4814 -36.21 18.5469q-7.06543 1.7666 -11.9229 5.74023q-4.85742 3.97461 -4.85742 11.04t5.74023 9.27344
q5.74121 2.20801 10.1572 2.20801q15.0137 0 32.2354 -0.882812q17.2217 -0.883789 34.8857 -1.7666q17.6641 -0.883789 30.9111 -0.883789q14.1309 0 31.3525 0.883789q17.2227 0.882812 35.3271 1.32422q18.1055 0.442383 32.2363 0.442383q5.29883 0 9.71484 -2.65039
q4.41602 -2.64941 4.41602 -7.94824q0 -7.06543 -5.29883 -11.04q-5.29883 -3.97363 -11.4814 -5.74023q-22.0791 -4.41602 -30.0283 -17.6641q-7.94824 -13.2471 -7.94824 -36.21v-248.173q0 -19.4307 6.62402 -25.6123q6.62402 -6.18262 18.9883 -6.18262h64.4717
q20.3135 0 34.0029 5.74121q13.6885 5.74023 25.1699 21.1963q11.4814 15.4551 24.7295 42.834q2.64941 5.29883 6.62402 9.27344q3.97363 3.97363 9.27246 3.97363q7.06641 0 8.83203 -4.85742q1.7666 -4.85742 1.7666 -10.1562t-3.09082 -18.5469
q-3.0918 -13.2471 -7.94922 -29.1445t-8.38965 -29.5869q-3.5332 -13.6895 -4.41602 -18.1055q-0.883789 -4.41504 -5.29883 -8.83105q-4.41602 -4.41602 -10.5986 -4.41602q-15.8975 0 -42.834 0.882812q-26.9375 0.883789 -58.29 1.3252t-63.5889 0.882812
t-60.498 0.441406q-20.3125 0 -42.834 -1.76562q-22.5205 -1.7666 -50.7822 -1.7666z" />
  </g>

</svg>
