<?xml version="1.0" standalone="no"?>
<!DOCTYPE svg PUBLIC "-//W3C//DTD SVG 1.1//EN" "http://www.w3.org/Graphics/SVG/1.1/DTD/svg11.dtd" >
<svg xmlns="http://www.w3.org/2000/svg" xmlns:xlink="http://www.w3.org/1999/xlink" version="1.1" viewBox="-10 0 448 1000">
  <g transform="matrix(1 0 0 -1 0 800)">
   <path fill="currentColor"
d="M125 -14q-24 0 -45.5 13t-34.5 34t-13 43q0 34 20 55.5t60 38.5l93 40q20 8 24.5 15t4.5 26l2 59q1 28 -11.5 45t-37.5 17q-13 0 -27 -5t-22 -13q-4 -4 -5.5 -10.5t-1.5 -12.5q0 -5 0.5 -12.5t0.5 -13.5t-15 -15t-34 -16t-32 -7q-7 0 -11 5t-4 12q0 16 10.5 32.5
t33.5 35.5q25 21 55 37.5t58.5 26.5t49.5 10q48 0 77 -31.5t28 -82.5l-5 -214q-1 -22 8.5 -37t23.5 -15q21 0 34 12q4 4 7 4q5 0 8.5 -3.5t3.5 -8.5q0 -11 -16 -27q-18 -18 -38.5 -27.5t-40.5 -9.5q-53 0 -86 55h-3q-33 -29 -60.5 -42t-58.5 -13zM180 46q14 0 24 4.5
t17 12.5q4 5 6.5 12t3.5 20l2 64q1 10 -2 13.5t-7 3.5q-2 0 -6 -0.5t-9 -3.5q-37 -15 -53 -32t-16 -44t13 -38.5t27 -11.5zM210 457q-37 0 -64.5 18.5t-42.5 44t-15 45.5q0 11 4.5 19.5t12.5 8.5q9 0 16 -6.5t10 -16.5q7 -18 29 -29t50 -11t50.5 11t29.5 29q4 10 10 16.5
t15 6.5t13 -8.5t4 -19.5q0 -20 -15 -45.5t-42.5 -44t-64.5 -18.5zM228 566q7 0 7 13q0 7 -6 29.5t-13.5 50t-14 49t-8.5 25.5q-5 8 -11.5 14t-13.5 6q-10 0 -24 -5t-25 -12.5t-11 -17.5q0 -4 8.5 -18.5t22 -33t27 -36.5t23.5 -31.5t13 -16.5q5 -6 12 -11t14 -5z" />
  </g>

</svg>
