<?xml version="1.0" standalone="no"?>
<!DOCTYPE svg PUBLIC "-//W3C//DTD SVG 1.1//EN" "http://www.w3.org/Graphics/SVG/1.1/DTD/svg11.dtd" >
<svg xmlns="http://www.w3.org/2000/svg" xmlns:xlink="http://www.w3.org/1999/xlink" version="1.1" viewBox="-37 0 992 1000">
  <g transform="matrix(1 0 0 -1 0 800)">
   <path fill="currentColor"
d="M445 -4q-9 0 -16 3.5t-7 9.5q0 15 25 20q38 8 54.5 24t16.5 49l1 194q0 34 -5.5 74t-17.5 78.5t-31.5 70.5t-46 51.5t-61.5 19.5t-62.5 -11.5t-45.5 -28.5q-4 -3 -8 -3q-10 0 -10 13q0 7 4.5 14.5t11.5 16.5q17 17 39.5 32.5t50 25t55.5 9.5q40 0 72 -15.5t57 -39
t41.5 -50t25.5 -49.5q3 -8 4 -8q2 0 3 2.5t2 4.5q12 23 30.5 50t43 50.5t56.5 39t69 15.5q40 0 73 -16.5t60 -43.5q6 -6 11 -14t5 -15q0 -14 -11 -14q-3 0 -9 4q-19 16 -46 24.5t-57 8.5q-46 0 -78.5 -27t-53.5 -70.5t-31.5 -95.5t-10.5 -102v-194q0 -31 16.5 -47.5
t54.5 -26.5q13 -3 19.5 -7t6.5 -12q0 -7 -6 -10t-16 -3q-24 0 -48 1t-46.5 2t-43.5 1q-22 0 -45 -1t-47 -2.5t-48 -1.5zM-7 621q-6 0 -13 6.5t-7 11.5t9.5 19t24 29.5t28.5 27t22 11.5q13 0 25 -2.5t37 -4.5q20 -1 36.5 -2.5t27.5 -1.5q10 0 20 6.5t17 14.5q9 10 13 15t7 5
q7 0 14.5 -6t7.5 -12q0 -4 -4.5 -9.5t-12.5 -15.5q-11 -14 -20 -25.5t-18 -24.5q-6 -8 -15.5 -11t-15.5 -3q-7 0 -24.5 1t-38.5 3t-40 3t-31 1q-8 0 -13.5 -3.5t-12.5 -9.5q-8 -9 -14 -16t-9 -7zM141 446q22 0 22 13q0 11 -20 18q-22 8 -34.5 19t-12.5 27q0 12 11.5 19.5
t27.5 10.5q17 4 28.5 13t11.5 29q0 13 -12 24.5t-39 11.5q-36 0 -62.5 -24.5t-26.5 -59.5q0 -30 15.5 -52.5t39.5 -35.5t51 -13z" />
  </g>

</svg>
