<?xml version="1.0" standalone="no"?>
<!DOCTYPE svg PUBLIC "-//W3C//DTD SVG 1.1//EN" "http://www.w3.org/Graphics/SVG/1.1/DTD/svg11.dtd" >
<svg xmlns="http://www.w3.org/2000/svg" xmlns:xlink="http://www.w3.org/1999/xlink" version="1.1" viewBox="-10 0 504 1000">
  <g transform="matrix(1 0 0 -1 0 800)">
   <path fill="currentColor"
d="M209 -289q-94 0 -147 31t-53 85q0 28 7.5 46.5t30.5 34.5q17 13 37 28.5t37 28.5l47 -12q-37 -22 -55 -45.5t-18 -55.5q0 -40 34.5 -67t87.5 -27q65 0 96 27q21 18 33 43t12 51q0 19 -12.5 30.5t-42.5 19t-82 11.5q-101 9 -142.5 34.5t-41.5 70.5q0 9 5.5 18.5t20.5 19.5
q18 14 30.5 23t20.5 17t12 16l44 -18q-21 -7 -34.5 -19.5t-13.5 -22.5q0 -11 14 -19.5t44 -13.5t81 -9q103 -7 150.5 -31.5t47.5 -71.5q0 -41 -22 -80.5t-58 -72t-80 -51.5t-90 -19zM222 140q33 0 54 36.5t21 94.5q0 34 -10.5 61t-28.5 42.5t-41 15.5q-21 0 -38.5 -16
t-27.5 -42.5t-10 -59.5q0 -37 10.5 -67t29.5 -47.5t41 -17.5zM213 99q-44 0 -84.5 21.5t-66.5 58t-26 82.5q0 49 27 86.5t71 59t94 21.5q30 0 56 -7.5t55 -12.5q21 -5 38 -7t37 -2q14 0 30.5 1.5t24.5 1.5q15 0 15 -20q0 -15 -12 -30q-5 -6 -11 -6h-27q-26 0 -33 -8
q-2 -3 -3 -7t-1.5 -13t-0.5 -27q0 -52 -25.5 -95.5t-67 -70t-90.5 -26.5zM106 506q-8 0 -13 5t-5 11q0 13 4.5 25.5t12 21.5t16.5 9h240q8 0 12.5 -4.5t4.5 -11.5q0 -21 -10.5 -38.5t-27.5 -17.5h-234z" />
  </g>

</svg>
