<?xml version="1.0" standalone="no"?>
<!DOCTYPE svg PUBLIC "-//W3C//DTD SVG 1.1//EN" "http://www.w3.org/Graphics/SVG/1.1/DTD/svg11.dtd" >
<svg xmlns="http://www.w3.org/2000/svg" xmlns:xlink="http://www.w3.org/1999/xlink" version="1.1" viewBox="-33 0 989 1000">
  <g transform="matrix(1 0 0 -1 0 800)">
   <path fill="currentColor"
d="M571 -14q-68 0 -130 23.5t-109.5 67t-75 104t-27.5 134.5q0 68 22.5 130.5t67 111.5t110 78t151.5 29q68 0 129.5 -23.5t109.5 -67t75.5 -104t27.5 -134.5q0 -67 -22.5 -130t-67 -112t-110 -78t-151.5 -29zM588 30q63 0 105.5 32t64 89.5t21.5 132.5q0 64 -13 124
t-40 107.5t-67.5 75.5t-96.5 28q-63 0 -105.5 -32t-63.5 -89t-21 -132q0 -64 13 -124t39.5 -108t67 -76t96.5 -28zM162 450q-9 -2 -11.5 5t-2.5 19q1 11 5 35.5t9 53.5t10.5 54t8.5 37q2 11 13.5 16t19.5 5q17 0 31.5 -15.5t14.5 -31.5q0 -5 -8 -23.5t-20 -43t-25 -48.5
t-23 -41q-5 -9 -11 -15t-11 -7zM92 453q-16 0 -36 8t-37.5 24t-29.5 39.5t-12 52.5q0 41 24.5 67.5t62.5 26.5q24 0 40 -11.5t16 -33.5q0 -21 -12.5 -30.5t-29.5 -14.5q-15 -4 -25 -14t-10 -26q0 -22 15.5 -37t40.5 -22q17 -4 17 -16q0 -13 -24 -13z" />
  </g>

</svg>
