<?xml version="1.0" standalone="no"?>
<!DOCTYPE svg PUBLIC "-//W3C//DTD SVG 1.1//EN" "http://www.w3.org/Graphics/SVG/1.1/DTD/svg11.dtd" >
<svg xmlns="http://www.w3.org/2000/svg" xmlns:xlink="http://www.w3.org/1999/xlink" version="1.1" viewBox="-10 0 771 1000">
  <g transform="matrix(1 0 0 -1 0 800)">
   <path fill="currentColor"
d="M376 -14q-68 0 -130 23.5t-109.5 67t-75 104t-27.5 134.5q0 68 22.5 130.5t67 111.5t110 78t151.5 29q68 0 129.5 -23.5t109.5 -67t75.5 -104t27.5 -134.5q0 -67 -22.5 -130t-67 -112t-110 -78t-151.5 -29zM393 30q63 0 105.5 32t64 89.5t21.5 132.5q0 64 -13 124
t-40 107.5t-67.5 75.5t-96.5 28q-63 0 -105.5 -32t-63.5 -89t-21 -132q0 -64 13 -124t39.5 -108t67 -76t96.5 -28zM243 679q-18 0 -18 11q0 8 9 15l102 90q16 15 25 20.5t22 5.5t22 -5.5t26 -20.5l101 -90q8 -6 8 -15q0 -12 -16 -12q-6 0 -22.5 5.5t-37 14t-39.5 17
t-30 15.5q-7 4 -12 4t-12 -4q-11 -7 -30 -15t-39.5 -16.5t-36.5 -14t-22 -5.5zM560 733q-11 0 -22.5 14t-11.5 25q0 10 5.5 16t17.5 14q9 5 15.5 11t6.5 19q0 8 -6 13.5t-16 5.5q-13 0 -22.5 -9.5t-18.5 -23.5q-5 -7 -10.5 -11.5t-14.5 -4.5q-10 0 -20 15t-10 23q0 9 5 17
t11 11q18 9 39.5 16t54.5 7q35 0 63 -16t28 -47q0 -14 -13.5 -25.5t-33.5 -18.5q-11 -4 -18.5 -8t-7.5 -13q0 -4 1.5 -8.5t2.5 -9.5q1 -6 -8.5 -9t-16.5 -3z" />
  </g>

</svg>
