<?xml version="1.0" standalone="no"?>
<!DOCTYPE svg PUBLIC "-//W3C//DTD SVG 1.1//EN" "http://www.w3.org/Graphics/SVG/1.1/DTD/svg11.dtd" >
<svg xmlns="http://www.w3.org/2000/svg" xmlns:xlink="http://www.w3.org/1999/xlink" version="1.1" viewBox="-10 0 510 1000">
  <g transform="matrix(1 0 0 -1 0 800)">
   <path fill="currentColor"
d="M236 -14q-59 0 -106 26.5t-75 73.5t-28 106q0 46 18 88t49 75t73 52.5t90 19.5q61 0 109.5 -28.5t77.5 -75.5t29 -103q0 -62 -26.5 -115.5t-79 -86t-131.5 -32.5zM256 25q25 0 44.5 10t31.5 31t16.5 55.5t4.5 74.5q0 53 -14 96t-39 69t-59 26q-19 0 -34.5 -6.5
t-28.5 -21.5q-18 -21 -24.5 -57.5t-6.5 -84.5t14.5 -92t39 -72t55.5 -28zM246 622q-7 0 -14.5 -7t-12.5 -13l-10 -12.5t-25 -31t-29.5 -38.5t-23.5 -34q-3 -7 -6.5 -14.5t-3.5 -13.5t2.5 -9.5t9.5 -3.5q8 0 16.5 5.5t18.5 14.5q19 19 33.5 31.5t32.5 30.5q6 6 10.5 5.5
t10.5 -5.5q19 -17 33 -30t34 -32q9 -9 18 -14.5t17 -5.5q12 0 12 11q0 7 -3.5 15t-7.5 15q-8 14 -22.5 34t-29.5 38.5t-25 31l-10 12.5q-5 6 -11.5 13t-13.5 7zM134 623q-6 0 -13 6.5t-7 11.5t9.5 19t24 29.5t28.5 27t22 11.5q13 0 25 -2.5t37 -4.5q20 -1 36.5 -2.5
t27.5 -1.5q10 0 20 6.5t17 14.5q9 10 13 15t7 5q7 0 14.5 -6t7.5 -12q0 -4 -4.5 -9.5t-12.5 -15.5q-11 -14 -20 -25.5t-18 -24.5q-6 -8 -15.5 -11t-15.5 -3q-7 0 -24.5 1t-38.5 3t-40 3t-31 1q-8 0 -13.5 -3.5t-12.5 -9.5q-8 -9 -14 -16t-9 -7z" />
  </g>

</svg>
