<?xml version="1.0" standalone="no"?>
<!DOCTYPE svg PUBLIC "-//W3C//DTD SVG 1.1//EN" "http://www.w3.org/Graphics/SVG/1.1/DTD/svg11.dtd" >
<svg xmlns="http://www.w3.org/2000/svg" xmlns:xlink="http://www.w3.org/1999/xlink" version="1.1" viewBox="-10 0 581 1000">
  <g transform="matrix(1 0 0 -1 0 800)">
   <path fill="currentColor"
d="M49 -5q-11 0 -17.5 4t-6.5 10q0 13 26 19q36 9 51.5 22.5t15.5 46.5v453q0 34 -13.5 48t-50.5 22q-14 3 -20 8.5t-6 11.5q0 7 6.5 10.5t17.5 3.5q29 0 55.5 -1t51.5 -2t52 -1q46 0 97.5 1t92.5 1q33 1 54.5 3t25.5 2q7 0 14.5 -3t8.5 -12q4 -33 10 -65t6 -56
q0 -9 -4.5 -13.5t-9.5 -4.5t-9 3.5t-7 10.5q-8 23 -15 40t-16 26q-13 14 -30 22t-41 8h-93q-18 0 -33 -10.5t-15 -29.5v-196q0 -11 6.5 -17t15.5 -6h92q27 0 38.5 15t19.5 41q7 20 19 20q5 0 9 -5.5t4 -14.5q-1 -10 -2 -24t-1.5 -28t-0.5 -25q0 -12 0.5 -27t1 -29.5
t1.5 -24.5q1 -11 -1.5 -17t-8.5 -6q-16 0 -23 28q-8 28 -19 42t-30 14h-94q-13 0 -20 -5t-7 -19v-190q0 -33 14 -46t43 -13h82q25 0 45.5 5t35.5 16q17 12 30.5 32.5t26.5 45.5q4 8 8 10.5t10 2.5q5 -1 7.5 -6t2.5 -11q0 -14 -5 -36t-12.5 -45.5t-13.5 -43.5q-3 -7 -8 -10.5
t-12 -3.5q-24 0 -61.5 0.5t-81.5 1.5t-90 1.5t-88 0.5q-21 0 -42.5 -1t-43.5 -2.5t-45 -1.5zM302 691q-11 0 -22.5 14t-11.5 25q0 10 5.5 16t17.5 14q9 5 15.5 11t6.5 19q0 8 -6 13.5t-16 5.5q-13 0 -22.5 -9.5t-18.5 -23.5q-5 -7 -10.5 -11.5t-14.5 -4.5q-10 0 -20 15
t-10 23q0 9 5 17t11 11q18 9 39.5 16t54.5 7q35 0 63 -16t28 -47q0 -14 -13.5 -25.5t-33.5 -18.5q-11 -4 -18.5 -8t-7.5 -13q0 -4 1.5 -8.5t2.5 -9.5q1 -6 -8.5 -9t-16.5 -3z" />
  </g>

</svg>
