<?xml version="1.0" standalone="no"?>
<!DOCTYPE svg PUBLIC "-//W3C//DTD SVG 1.1//EN" "http://www.w3.org/Graphics/SVG/1.1/DTD/svg11.dtd" >
<svg xmlns="http://www.w3.org/2000/svg" xmlns:xlink="http://www.w3.org/1999/xlink" version="1.1" viewBox="-10 0 420 1000">
  <g transform="matrix(1 0 0 -1 0 800)">
   <path fill="currentColor"
d="M176 -14q-41 0 -69.5 19t-46 51t-25.5 70t-8 76q0 58 23.5 109.5t66.5 83.5t103 32q54 0 90 -32t54.5 -83.5t18.5 -112.5q0 -56 -25 -104.5t-71.5 -78.5t-110.5 -30zM155 83q50 2 91.5 24.5t66.5 59t25 78.5q-3 22 -15 39.5t-31 29t-45 11.5q-35 1 -66.5 -11.5t-56.5 -34
t-39 -49.5t-14 -60q0 -21 10.5 -41.5t29.5 -33t44 -12.5zM323 461q-5 2 -11.5 8t-11.5 14q-9 18 -22 42.5t-25.5 48.5t-20.5 42.5t-8 23.5q0 15 14.5 31t31.5 16q9 0 20 -5.5t13 -15.5q3 -13 8.5 -38t11.5 -53.5t10 -53t3 -36.5q0 -11 -2.5 -18t-10.5 -6zM176 462
q-17 0 -36.5 8t-37.5 24t-29.5 39.5t-11.5 52.5q0 41 24.5 67.5t62.5 26.5q24 0 40 -11.5t16 -33.5q0 -21 -12.5 -30.5t-29.5 -14.5q-15 -4 -25 -14t-10 -26q0 -22 15 -37t41 -22q17 -4 17 -16q0 -13 -24 -13z" />
  </g>

</svg>
