<?xml version="1.0" standalone="no"?>
<!DOCTYPE svg PUBLIC "-//W3C//DTD SVG 1.1//EN" "http://www.w3.org/Graphics/SVG/1.1/DTD/svg11.dtd" >
<svg xmlns="http://www.w3.org/2000/svg" xmlns:xlink="http://www.w3.org/1999/xlink" version="1.1" viewBox="-10 0 555 1000">
  <g transform="matrix(1 0 0 -1 0 800)">
   <path fill="currentColor"
d="M37 -3q-20 0 -20 13q0 11 23 19q15 5 27.5 11.5t12.5 27.5v487q0 27 -7.5 47t-33.5 25q-10 2 -10 15q0 11 9 14q20 5 46.5 13.5t52 18t41.5 14.5q7 3 10 3q6 0 8 -3t2 -7q0 -6 -2 -16t-3.5 -27.5t-1.5 -47.5v-213q0 -12 1 -19.5t5 -11.5q15 12 37 27.5t50 27t61 11.5
q52 0 86.5 -38t34.5 -102v-215q0 -21 12 -29t26 -13q11 -4 16.5 -8t5.5 -11q0 -13 -21 -13q-23 0 -36.5 1.5t-25.5 2.5t-33 1q-20 0 -31.5 -1t-23.5 -2.5t-35 -1.5q-22 0 -22 14q0 7 6 11t15 7q14 4 25 13t11 30v199q0 23 -11 41.5t-27.5 29.5t-35.5 11q-16 0 -36 -5
t-36 -17q-11 -8 -14.5 -17.5t-3.5 -30.5v-214q1 -20 11.5 -27.5t23.5 -12.5q10 -3 15.5 -7t5.5 -11q0 -14 -18 -14q-20 0 -35 1.5t-28.5 2.5t-31.5 1q-17 0 -31.5 -1t-30 -2.5t-35.5 -1.5zM68 -274q-20 0 -30 9t-10 36q0 13 4.5 18t11.5 5q10 0 24.5 -7t37.5 -7
q17 0 25 11.5t8 30.5q0 23 -18 35t-39 12q-12 0 -18.5 -4t-12.5 -4t-13.5 5.5t-7.5 15.5q0 6 11 19l90 107h39l-36 -45q-6 -7 -6 -11q0 -5 13 -11q24 -10 40 -30t16 -51q0 -27 -13.5 -51.5t-34 -42.5t-42 -29t-39.5 -11z" />
  </g>

</svg>
