<?xml version="1.0" standalone="no"?>
<!DOCTYPE svg PUBLIC "-//W3C//DTD SVG 1.1//EN" "http://www.w3.org/Graphics/SVG/1.1/DTD/svg11.dtd" >
<svg xmlns="http://www.w3.org/2000/svg" xmlns:xlink="http://www.w3.org/1999/xlink" version="1.1" viewBox="-10 0 601 1000">
  <g transform="matrix(1 0 0 -1 0 800)">
   <path fill="currentColor"
d="M160 -14q-31 0 -55 17.5t-40.5 45.5t-25 60t-8.5 62q0 56 17.5 103t42.5 81t47 53t32 19q13 0 25.5 -11t21 -25t8.5 -23q0 -2 -8.5 -11.5t-21.5 -22.5t-28 -26q-21 -20 -41 -48t-33 -60.5t-13 -67.5q0 -17 6 -31.5t17 -23.5t26 -9q36 0 63 14.5t43 36t16 44.5
q0 20 -7.5 40t-7.5 38t18.5 34t45.5 16q19 0 36.5 -14t17.5 -39q0 -21 -9.5 -52.5t-20.5 -55.5q0 -4 1 -11t2 -11q5 -16 14.5 -28t31.5 -12q33 0 52.5 24t28.5 61.5t9 76.5q0 41 -10.5 72t-25 53t-25 34t-10.5 14q0 10 11 17.5t19 7.5q27 0 52 -19.5t44 -51.5t30 -71t11 -79
q0 -54 -20.5 -105t-59 -83.5t-94.5 -32.5q-23 0 -42 17.5t-31 38t-16 29.5q-4 11 -12 1q-7 -10 -22.5 -31t-40.5 -38t-61 -17zM414 461q-5 2 -11.5 8t-11.5 14q-9 18 -22 42.5t-25.5 48.5t-20.5 42.5t-8 23.5q0 15 14.5 31t31.5 16q9 0 20 -5.5t13 -15.5q3 -13 8.5 -38
t11.5 -53.5t10 -53t3 -36.5q0 -11 -2.5 -18t-10.5 -6zM267 462q-17 0 -36.5 8t-37.5 24t-29.5 39.5t-11.5 52.5q0 41 24.5 67.5t62.5 26.5q24 0 40 -11.5t16 -33.5q0 -21 -12.5 -30.5t-29.5 -14.5q-15 -4 -25 -14t-10 -26q0 -22 15 -37t41 -22q17 -4 17 -16q0 -13 -24 -13z
" />
  </g>

</svg>
