<?xml version="1.0" standalone="no"?>
<!DOCTYPE svg PUBLIC "-//W3C//DTD SVG 1.1//EN" "http://www.w3.org/Graphics/SVG/1.1/DTD/svg11.dtd" >
<svg xmlns="http://www.w3.org/2000/svg" xmlns:xlink="http://www.w3.org/1999/xlink" version="1.1" viewBox="-41 0 339 1000">
  <g transform="matrix(1 0 0 -1 0 800)">
   <path fill="currentColor"
d="M40 -3q-8 0 -13 3.5t-5 9.5q0 8 6 12t14 6q24 6 34.5 13t10.5 24v217q0 32 -10 48t-34 20q-5 1 -8 5.5t-3 10.5q0 14 11 15q48 10 83.5 27.5t54.5 27.5q14 7 18 7q11 0 11 -10q-1 -14 -4 -38.5t-5.5 -52t-2.5 -51.5v-225q0 -15 11 -23t35 -15q8 -3 14 -6.5t6 -11.5
q0 -12 -17 -12q-19 0 -36.5 1t-34 2t-34.5 1q-17 0 -33 -1t-32.5 -2.5t-36.5 -1.5zM221 483q-25 0 -44.5 19.5t-19.5 44.5q0 27 19.5 46t44.5 19q28 0 47.5 -19t19.5 -46q0 -25 -19.5 -44.5t-47.5 -19.5zM33 483q-26 0 -45 19.5t-19 44.5q0 27 19 46t45 19q27 0 46.5 -19
t19.5 -46q0 -25 -19.5 -44.5t-46.5 -19.5zM119 595q-7 0 -7 13q0 7 6 29.5t13.5 50t14 49t8.5 25.5q5 8 11.5 14t13.5 6q10 0 24 -5t25 -12.5t11 -17.5q0 -4 -8.5 -18.5t-22 -33t-27 -36.5t-23.5 -31.5t-13 -16.5q-5 -6 -12 -11t-14 -5z" />
  </g>

</svg>
