<?xml version="1.0" standalone="no"?>
<!DOCTYPE svg PUBLIC "-//W3C//DTD SVG 1.1//EN" "http://www.w3.org/Graphics/SVG/1.1/DTD/svg11.dtd" >
<svg xmlns="http://www.w3.org/2000/svg" xmlns:xlink="http://www.w3.org/1999/xlink" version="1.1" viewBox="-10 0 515 1000">
  <g transform="matrix(1 0 0 -1 0 800)">
   <path fill="currentColor"
d="M241 -14q-59 0 -108.5 26t-80 72.5t-30.5 107.5q0 64 32 117.5t87.5 85.5t122.5 32q14 0 26 -3t23 -9q4 -2 5.5 -0.5t0.5 6.5q-9 32 -21.5 66.5t-27.5 56.5l-135 -70q-9 -5 -15.5 0t-6.5 11q0 12 3.5 22t13.5 15l113 59q-31 35 -69 58t-80 32q-8 2 -18 6t-10 13
q0 8 11 11t26 3q53 0 109.5 -21.5t106.5 -62.5l105 55q7 5 18 4t11 -11q0 -13 -4.5 -22.5t-18.5 -17.5l-74 -40q33 -34 60 -83.5t43 -113t16 -141.5q0 -44 -15 -90t-44.5 -85.5t-73 -64t-101.5 -24.5zM259 27q29 0 50.5 22t33.5 66t12 109q0 32 -7 64t-19 53
q-18 21 -38.5 31.5t-45.5 10.5q-31 0 -54 -22t-35 -59.5t-12 -84.5q0 -48 15.5 -91.5t41.5 -71t58 -27.5z" />
  </g>

</svg>
