<?xml version="1.0" standalone="no"?>
<!DOCTYPE svg PUBLIC "-//W3C//DTD SVG 1.1//EN" "http://www.w3.org/Graphics/SVG/1.1/DTD/svg11.dtd" >
<svg xmlns="http://www.w3.org/2000/svg" xmlns:xlink="http://www.w3.org/1999/xlink" version="1.1" viewBox="-28 0 983 1000">
  <g transform="matrix(1 0 0 -1 0 800)">
   <path fill="currentColor"
d="M570 -14q-68 0 -130 23.5t-109.5 67t-75 104t-27.5 134.5q0 68 22.5 130.5t67 111.5t110 78t151.5 29q68 0 129.5 -23.5t109.5 -67t75.5 -104t27.5 -134.5q0 -67 -22.5 -130t-67 -112t-110 -78t-151.5 -29zM587 30q63 0 105.5 32t64 89.5t21.5 132.5q0 64 -13 124
t-40 107.5t-67.5 75.5t-96.5 28q-63 0 -105.5 -32t-63.5 -89t-21 -132q0 -64 13 -124t39.5 -108t67 -76t96.5 -28zM159 449q-9 -2 -11.5 5.5t-2.5 18.5q1 12 5 36t9 53t10.5 54.5t8.5 37.5q3 10 14 15.5t19 5.5q18 0 32.5 -16t14.5 -31q0 -5 -8 -23.5t-20.5 -43t-25.5 -49
t-23 -41.5q-4 -8 -10.5 -14.5t-11.5 -7.5zM10 453q-24 0 -24 13q0 12 17 16q25 7 40.5 22t15.5 37q0 16 -10 26t-25 14q-17 5 -29.5 14.5t-12.5 30.5q0 22 16 33.5t39 11.5q40 0 64 -26.5t24 -67.5q0 -29 -12 -52.5t-29.5 -39.5t-37 -24t-36.5 -8z" />
  </g>

</svg>
