<?xml version="1.0" standalone="no"?>
<!DOCTYPE svg PUBLIC "-//W3C//DTD SVG 1.1//EN" "http://www.w3.org/Graphics/SVG/1.1/DTD/svg11.dtd" >
<svg xmlns="http://www.w3.org/2000/svg" xmlns:xlink="http://www.w3.org/1999/xlink" version="1.1" viewBox="-10 0 580 1000">
  <g transform="matrix(1 0 0 -1 0 800)">
   <path fill="currentColor"
d="M44.874 -3.51953q-6.15918 0 -12.3184 3.95898q-6.15918 3.95996 -6.15918 9.23926q0 7.03906 5.71875 10.5586q5.71973 3.51953 12.7588 4.39941q21.1172 3.51953 32.9951 11.4385q11.8789 7.91895 11.8789 26.3965v259.565q0 21.9971 -8.35938 32.9961
q-8.3584 10.998 -34.7549 16.2773q-6.15918 0.879883 -11.4385 4.83984q-5.2793 3.95898 -5.2793 10.998q0 5.2793 5.2793 8.35938q5.2793 3.0791 9.67871 3.0791q14.958 0 32.5557 -0.879883t35.1953 -2.19922q17.5977 -1.32031 30.7959 -1.32031
q14.958 0 32.9951 0.879883l36.0762 1.75977q18.0371 0.879883 31.2354 0.879883q5.2793 0 10.1182 -3.08008q4.83984 -3.0791 4.83984 -8.3584q0 -6.15918 -5.2793 -10.1182q-5.2793 -3.95996 -12.3184 -5.71973q-21.9971 -4.39941 -31.2363 -16.2783
q-9.23828 -11.8779 -9.23828 -32.9951v-103.826q0 -12.3184 7.03906 -12.3184q6.15918 0 18.4775 9.67871t26.3965 22.877q27.2764 24.6367 47.9541 47.0742q20.6768 22.4365 43.5537 49.7129q10.5586 11.4385 5.2793 19.3574t-21.1172 14.0781
q-8.79883 3.51953 -14.0781 7.03906t-5.2793 9.67871q0 4.39941 5.2793 7.47949q5.2793 3.0791 10.5586 3.0791q22.877 0 40.4746 -0.879883t38.7148 -0.879883q26.3965 0 51.4736 2.63965q25.0762 2.63965 47.0732 2.63965q5.2793 0 11.8779 -2.63965
q6.59961 -2.63965 6.59961 -7.91895q0 -7.03906 -6.15918 -10.999q-6.15918 -3.95898 -14.0781 -4.83887q-30.7959 -4.39941 -51.0332 -12.3184t-40.4746 -21.9971q-14.958 -10.5586 -33.876 -25.5166q-18.917 -14.958 -36.9551 -30.7959
q-18.0371 -15.8379 -32.9951 -30.7959q-6.15918 -6.15918 -5.2793 -12.3184t5.2793 -11.4385l125.823 -147.82q13.1982 -14.958 34.7559 -30.7959q21.5566 -15.8379 48.833 -21.1172q9.67871 -1.75977 15.8379 -5.2793t6.15918 -10.5586q0 -6.15918 -6.59961 -10.1182
q-6.59863 -3.95996 -18.917 -3.95996q-28.1562 0 -62.4717 2.2002q-34.3154 2.19922 -66.8711 2.19922q-17.5977 0 -27.7168 -0.879883q-10.1182 -0.879883 -19.7969 -1.75977t-26.3965 -0.879883q-4.39941 0 -9.67871 3.08008q-5.2793 3.0791 -5.2793 7.47852
q0 7.03906 4.83887 10.5586q4.83984 3.51953 11.8789 5.2793q18.4775 3.51953 19.3574 14.958t-7.91895 21.9971l-89.748 105.586q-4.39941 5.2793 -10.5586 9.23828q-6.15918 3.95996 -11.4385 3.95996q-4.39941 0 -7.03906 -4.83887q-2.63965 -4.83984 -2.63965 -10.999
v-52.3525q0 -25.957 0.879883 -49.7139q0.879883 -17.5977 7.47852 -25.9561q6.59961 -8.35938 27.7168 -11.8789q5.2793 -0.879883 11.8789 -4.39941q6.59863 -3.51953 6.59863 -10.5586q0 -5.2793 -5.71973 -8.3584q-5.71875 -3.08008 -12.7578 -3.08008
q-29.916 0 -51.9131 2.63965t-43.1143 2.63965t-42.2344 -3.51953t-53.6729 -3.51953z" />
  </g>

</svg>
