<?xml version="1.0" standalone="no"?>
<!DOCTYPE svg PUBLIC "-//W3C//DTD SVG 1.1//EN" "http://www.w3.org/Graphics/SVG/1.1/DTD/svg11.dtd" >
<svg xmlns="http://www.w3.org/2000/svg" xmlns:xlink="http://www.w3.org/1999/xlink" version="1.1" viewBox="-40 0 345 1000">
  <g transform="matrix(1 0 0 -1 0 800)">
   <path fill="currentColor"
d="M146 -15q-35 0 -58 29.5t-23 87.5l2 300q0 14 14 18.5t50 4.5q30 0 38.5 -7t8.5 -20t-3 -39.5t-7 -59t-8 -66.5t-7 -63.5t-3 -47.5q0 -17 11.5 -22t25.5 -5q17 0 33 5t21 5q7 0 10.5 -4.5t3.5 -14.5q0 -20 -13 -43.5t-37 -40.5t-59 -17zM233 493q-24 0 -41.5 18t-17.5 42
q0 25 17.5 42.5t41.5 17.5q26 0 44 -17.5t18 -42.5q0 -24 -18 -42t-44 -18zM30 493q-24 0 -42 18t-18 42q0 25 18 42.5t42 17.5q26 0 43.5 -17.5t17.5 -42.5q0 -24 -17.5 -42t-43.5 -18zM141 548q-7 0 -13.5 6.5t-11.5 15.5q-9 18 -22.5 41.5t-26 47t-20.5 41t-8 22.5
q0 8 6.5 19.5t17.5 20t22 8.5q7 0 17.5 -5.5t13.5 -17.5q3 -11 7.5 -31.5t9.5 -44t9.5 -46.5t6.5 -39q1 -9 1.5 -15.5t0.5 -10.5q-1 -7 -2.5 -9.5t-7.5 -2.5z" />
  </g>

</svg>
