<?xml version="1.0" standalone="no"?>
<!DOCTYPE svg PUBLIC "-//W3C//DTD SVG 1.1//EN" "http://www.w3.org/Graphics/SVG/1.1/DTD/svg11.dtd" >
<svg xmlns="http://www.w3.org/2000/svg" xmlns:xlink="http://www.w3.org/1999/xlink" version="1.1" viewBox="-19 0 309 1000">
  <g transform="matrix(1 0 0 -1 0 800)">
   <path fill="currentColor"
d="M146 -15q-35 0 -58 29.5t-23 87.5l2 300q0 14 14 18.5t50 4.5q30 0 38.5 -7t8.5 -20t-3 -39.5t-7 -59t-8 -66.5t-7 -63.5t-3 -47.5q0 -17 11.5 -22t25.5 -5q17 0 33 5t21 5q7 0 10.5 -4.5t3.5 -14.5q0 -20 -13 -43.5t-37 -40.5t-59 -17zM11 630q-6 0 -13 6.5t-7 11.5
t9.5 19t24 29.5t28.5 27t22 11.5q13 0 25 -2.5t37 -4.5q20 -1 36.5 -2.5t27.5 -1.5q10 0 20 6.5t17 14.5q9 10 13 15t7 5q7 0 14.5 -6t7.5 -12q0 -4 -4.5 -9.5t-12.5 -15.5q-11 -14 -20 -25.5t-18 -24.5q-6 -8 -15.5 -11t-15.5 -3q-7 0 -24.5 1t-38.5 3t-40 3t-31 1
q-8 0 -13.5 -3.5t-12.5 -9.5q-8 -9 -14 -16t-9 -7zM95 456q-22 0 -22 13q0 11 20 18q22 8 34.5 19t12.5 27q0 12 -11.5 19.5t-27.5 10.5q-17 4 -28.5 13t-11.5 29q0 13 12 24.5t39 11.5q36 0 62.5 -24.5t26.5 -59.5q0 -30 -15.5 -52.5t-39.5 -35.5t-51 -13z" />
  </g>

</svg>
