<?xml version="1.0" standalone="no"?>
<!DOCTYPE svg PUBLIC "-//W3C//DTD SVG 1.1//EN" "http://www.w3.org/Graphics/SVG/1.1/DTD/svg11.dtd" >
<svg xmlns="http://www.w3.org/2000/svg" xmlns:xlink="http://www.w3.org/1999/xlink" version="1.1" viewBox="-10 0 922 1000">
  <g transform="matrix(1 0 0 -1 0 800)">
   <path fill="currentColor"
d="M45 -4q-12 0 -18.5 3.5t-6.5 9.5q0 8 8.5 11.5t20.5 6.5q24 7 41 27t21 52q8 61 15.5 133t14 145t10.5 137v16v18q-1 15 -5.5 24.5t-15.5 17.5q-14 10 -29 15.5t-34 9.5q-11 2 -17.5 7.5t-6.5 13.5t8 11t21 3t35 -1t47.5 -2.5t50.5 -2.5t44 -1q8 0 14 -5t8 -12
q6 -19 12 -37t13 -38l150 -367q3 -5 8 -5.5t7 4.5l161 358q7 29 11.5 51t8.5 35q3 13 13 13h41q38 2 80 6t65 4q8 0 15.5 -2.5t7.5 -10.5t-6 -12t-18 -9q-8 -2 -19 -6.5t-19 -8.5q-21 -9 -31.5 -23t-9.5 -40q1 -71 4 -127.5t5.5 -106t6.5 -101t7 -113.5q2 -28 21.5 -44
t52.5 -24q12 -3 19.5 -7t7.5 -12q0 -7 -6.5 -10t-17.5 -3q-23 0 -48 1t-48.5 2t-44.5 1q-20 0 -41 -1t-43 -2.5t-46 -1.5q-10 0 -17.5 3.5t-7.5 9.5q0 8 7.5 13t19.5 7q34 7 47.5 21t11.5 47q-1 65 -3 125t-4 119t-5 119q-1 8 -4.5 7.5t-7.5 -8.5l-204 -460q-4 -11 -13 -9.5
t-12 9.5q-46 116 -96.5 229.5t-99.5 230.5q-3 8 -8.5 6t-6.5 -11q-5 -56 -9 -115.5t-5 -118.5t-1 -117q0 -27 17.5 -46t53.5 -28q12 -2 20.5 -6.5t8.5 -12.5q0 -7 -8 -10t-18 -3q-27 0 -41 1t-26 2t-32 1q-21 0 -39.5 -1t-34.5 -2.5t-28 -1.5zM456 693q-30 0 -52 20.5
t-22 48.5q0 30 22 50t52 20q32 0 54 -20t22 -50q0 -28 -22 -48.5t-54 -20.5z" />
  </g>

</svg>
