<?xml version="1.0" standalone="no"?>
<!DOCTYPE svg PUBLIC "-//W3C//DTD SVG 1.1//EN" "http://www.w3.org/Graphics/SVG/1.1/DTD/svg11.dtd" >
<svg xmlns="http://www.w3.org/2000/svg" xmlns:xlink="http://www.w3.org/1999/xlink" version="1.1" viewBox="-28 0 1049 1000">
  <g transform="matrix(1 0 0 -1 0 800)">
   <path fill="currentColor"
d="M281 -4q-8 0 -13 4t-7 11q-6 22 -17.5 52.5t-21.5 59t-10 43.5q0 14 13 14q8 0 14 -5.5t11 -15.5q16 -35 47 -43.5t70 -8.5l71 1q6 0 7.5 4.5t-3.5 10.5q-55 29 -92.5 66t-56.5 84t-19 103q0 66 26.5 119t73 90.5t106.5 58t128 20.5q65 0 124 -19.5t105 -56.5t73 -88.5
t27 -114.5q0 -57 -19 -105t-56.5 -86.5t-92.5 -68.5q-6 -5 -8 -10.5t4 -7.5h96q36 -1 61.5 12.5t39.5 43.5q5 10 11 15.5t14 5.5q12 0 12 -14q0 -10 -6 -29.5t-14.5 -43t-16.5 -46.5t-12 -40q-2 -7 -7.5 -11t-13.5 -4q-12 0 -32 1t-48 2q-24 0 -44.5 0.5t-39.5 0.5h-32.5
h-32.5h-40q-7 0 -7 11q0 14 8 34.5t19 30.5q29 23 54.5 63t42 91t16.5 106q0 56 -12.5 108t-36.5 92t-59.5 64t-82.5 24q-45 0 -80 -21.5t-58 -59t-34.5 -86t-11.5 -101.5q0 -59 14.5 -114t40.5 -98.5t59 -70.5q11 -9 17.5 -27.5t7.5 -34.5q1 -5 -1 -8t-6 -3h-40.5h-33
h-33.5q-17 0 -36 -0.5t-42 -0.5q-29 -1 -50 -2t-34 -1zM241 449q-5 1 -11.5 7.5t-11.5 14.5q-9 18 -22 42t-25.5 48.5t-20.5 43t-8 23.5q0 15 14.5 31t31.5 16q9 0 20 -5.5t13 -15.5q3 -13 8.5 -38t11.5 -54t10 -53t3 -36q0 -11 -2.5 -18.5t-10.5 -5.5zM11 453q-25 0 -25 13
q0 12 18 16q25 7 40.5 22t15.5 37q0 16 -10 26t-25 14q-17 5 -30 14.5t-13 30.5q0 22 16.5 33.5t39.5 11.5q39 0 63 -26.5t24 -67.5q0 -29 -11.5 -52.5t-29 -39.5t-37.5 -24t-36 -8zM621 -237q-33 0 -55 25.5t-22 70.5q0 51 9.5 67t25.5 19l46 2q23 2 20 -13
q-6 -41 -5.5 -68.5t22.5 -29.5q16 -1 26.5 3.5t14.5 4.5q13 0 13 -11t-11.5 -28t-32.5 -29.5t-51 -12.5z" />
  </g>

</svg>
