<?xml version="1.0" standalone="no"?>
<!DOCTYPE svg PUBLIC "-//W3C//DTD SVG 1.1//EN" "http://www.w3.org/Graphics/SVG/1.1/DTD/svg11.dtd" >
<svg xmlns="http://www.w3.org/2000/svg" xmlns:xlink="http://www.w3.org/1999/xlink" version="1.1" viewBox="-10 0 365 1000">
  <g transform="matrix(1 0 0 -1 0 800)">
   <path fill="currentColor"
d="M172 -14q-36 0 -67 14t-49.5 39t-18.5 58q0 20 9.5 37.5t21 31t18.5 19.5q14 13 -1 20q-22 11 -35 25.5t-13 46.5q0 40 28 74t73.5 54.5t96.5 20.5q25 0 42.5 -13.5t17.5 -32.5q0 -14 -16.5 -29.5t-37.5 -15.5q-67 0 -105.5 -22t-38.5 -56q0 -13 7.5 -21.5t21.5 -8.5
q7 0 21.5 7.5t32 17t35.5 17t33 7.5q24 0 34.5 -11.5t10.5 -27.5q0 -28 -22.5 -48.5t-46.5 -20.5q-10 0 -26 1.5t-32 1.5t-28 -3q-21 -5 -33 -18.5t-12 -29.5q0 -15 19 -28t50 -13q22 0 47 6.5t48 16t37 18.5q10 6 16.5 9.5t8.5 3.5q15 0 15 -17q0 -23 -14 -46t-37 -42
t-51.5 -30.5t-59.5 -11.5zM296 461q-5 2 -11.5 8t-11.5 14q-9 18 -22 42.5t-25.5 48.5t-20.5 42.5t-8 23.5q0 15 14.5 31t31.5 16q9 0 20 -5.5t13 -15.5q3 -13 8.5 -38t11.5 -53.5t10 -53t3 -36.5q0 -11 -2.5 -18t-10.5 -6zM149 462q-17 0 -36.5 8t-37.5 24t-29.5 39.5
t-11.5 52.5q0 41 24.5 67.5t62.5 26.5q24 0 40 -11.5t16 -33.5q0 -21 -12.5 -30.5t-29.5 -14.5q-15 -4 -25 -14t-10 -26q0 -22 15 -37t41 -22q17 -4 17 -16q0 -13 -24 -13z" />
  </g>

</svg>
