<?xml version="1.0" standalone="no"?>
<!DOCTYPE svg PUBLIC "-//W3C//DTD SVG 1.1//EN" "http://www.w3.org/Graphics/SVG/1.1/DTD/svg11.dtd" >
<svg xmlns="http://www.w3.org/2000/svg" xmlns:xlink="http://www.w3.org/1999/xlink" version="1.1" viewBox="-10 0 298 1000">
  <g transform="matrix(1 0 0 -1 0 800)">
   <path fill="currentColor"
d="M121 265q-41 0 -69 23.5t-28 54.5q0 22 6 28.5t21 6.5l121 1q8 0 11 3.5t3 11.5q0 17 -8 34t-24 28.5t-39 11.5q-21 0 -33 -6t-26 -20q-4 -6 -9 -6t-13 5.5t-8 12.5q0 3 2 8.5t4 8.5q13 22 39 40t68 18q31 0 59.5 -15t46 -43t17.5 -67q0 -41 -19 -72.5t-50.5 -49
t-71.5 -17.5zM127 294q19 0 36.5 13.5t17.5 34.5q0 8 -9 8h-60q-9 0 -14.5 -5.5t-5.5 -16.5q0 -13 8.5 -23.5t26.5 -10.5z" />
  </g>

</svg>
