<?xml version="1.0" standalone="no"?>
<!DOCTYPE svg PUBLIC "-//W3C//DTD SVG 1.1//EN" "http://www.w3.org/Graphics/SVG/1.1/DTD/svg11.dtd" >
<svg xmlns="http://www.w3.org/2000/svg" xmlns:xlink="http://www.w3.org/1999/xlink" version="1.1" viewBox="-10 0 718 1000">
  <g transform="matrix(1 0 0 -1 0 800)">
   <path fill="currentColor"
d="M244 -14q-67 0 -113.5 27t-71 73.5t-24.5 106.5q0 74 21 130t48 94t44 58q24 28 64 58.5t90.5 57.5t105.5 44q13 4 24 4t11 -6q0 -8 -7 -14.5t-14.5 -10.5t-10.5 -6q-58 -27 -99 -61.5t-75 -86.5q-16 -23 -34.5 -62t-31.5 -89t-13 -109q0 -39 12 -77t35.5 -62.5
t56.5 -24.5q40 0 64 33t24 83q0 30 -11 56t-28.5 42.5t-38.5 16.5q-17 0 -29 -2.5t-24 -8.5q-16 -7 -19 1.5t6 18.5l12 12l11 11q8 6 24 16.5t36 19.5t38 9q38 0 69.5 -19.5t50.5 -51.5t19 -70q0 -37 -14.5 -74.5t-43.5 -68t-70.5 -49.5t-93.5 -19zM586 -25
q-29 0 -50.5 21.5t-21.5 50.5q0 31 21.5 52.5t50.5 21.5q31 0 52.5 -21.5t21.5 -52.5q0 -29 -21.5 -50.5t-52.5 -21.5z" />
  </g>

</svg>
