<?xml version="1.0" standalone="no"?>
<!DOCTYPE svg PUBLIC "-//W3C//DTD SVG 1.1//EN" "http://www.w3.org/Graphics/SVG/1.1/DTD/svg11.dtd" >
<svg xmlns="http://www.w3.org/2000/svg" xmlns:xlink="http://www.w3.org/1999/xlink" version="1.1" viewBox="-10 0 527 1000">
  <g transform="matrix(1 0 0 -1 0 800)">
   <path fill="currentColor"
d="M48 -4q-9 0 -16 3.5t-7 9.5q0 15 25 20q38 8 52.5 22t14.5 47v453q0 33 -14 47t-53 22q-25 5 -25 21q0 6 7 9.5t16 3.5q24 0 47 -1t45 -2t43 -1t42.5 1t45 2t46.5 1q11 0 16.5 -3.5t5.5 -10.5q0 -8 -6.5 -12.5t-18.5 -7.5q-39 -10 -53.5 -21.5t-14.5 -43.5l1 -178
q0 -11 4.5 -17t13.5 -6h147q24 0 37.5 15t21.5 36q3 7 8.5 12.5t11.5 5.5q4 0 8.5 -5.5t3.5 -14.5q-2 -20 -3 -37t-1 -33q0 -18 1 -36t2 -41q2 -11 -1 -17t-8 -6q-8 0 -14.5 8t-9.5 16q-6 23 -16.5 34.5t-24 16t-30.5 4.5h-39h-50.5h-38.5q-11 -1 -17 -6.5t-6 -17.5v-93.5
v-95.5q1 -29 14.5 -44.5t51.5 -25.5q13 -3 19 -7t6 -12q0 -7 -5.5 -10t-16.5 -3q-23 0 -45.5 1.5t-43 2.5t-40.5 1q-22 0 -45 -1t-46.5 -3t-47.5 -2z" />
  </g>

</svg>
