<?xml version="1.0" standalone="no"?>
<!DOCTYPE svg PUBLIC "-//W3C//DTD SVG 1.1//EN" "http://www.w3.org/Graphics/SVG/1.1/DTD/svg11.dtd" >
<svg xmlns="http://www.w3.org/2000/svg" xmlns:xlink="http://www.w3.org/1999/xlink" version="1.1" viewBox="-10 0 609 1000">
  <g transform="matrix(1 0 0 -1 0 800)">
   <path fill="currentColor"
d="M526 -219q-14 0 -20 18t-6 35t-0.5 34t-0.5 30q0 59 -22 80.5t-60 21.5h-39h-47.5h-80.5q-33 0 -68.5 -1t-68.5 -2l-77 -1q-7 1 -10 10.5t-2 13.5q6 11 15.5 27t21 34t21.5 33q41 62 78 118.5t73.5 111t73.5 111.5t76 119q2 4 4 7.5t2 6.5q0 4 -3.5 6.5t-13.5 2.5
q-21 1 -47.5 1h-53.5h-43.5t-39.5 -1q-29 0 -60.5 -18t-49.5 -54q-6 -11 -14.5 -22.5t-22.5 -11.5q-7 0 -10 4.5t-3 10.5t2.5 13.5l4.5 13.5q9 20 14.5 38.5t9 39t5.5 45.5q2 14 6.5 18.5t12.5 4.5t19.5 -8t22.5 -14q14 -6 34.5 -7t46.5 -1q33 -1 65 -1h64q22 0 52 0.5
t62.5 1t62 1.5t51.5 1q6 0 11.5 -9t3.5 -13l-66 -99q-40 -58 -76.5 -113t-71.5 -109t-69 -109t-70 -114q-8 -12 -8 -21q0 -6 4.5 -9.5t14.5 -4.5q16 -2 41 -2.5t46 -0.5h48t72.5 0.5t73 1.5t48.5 2q8 0 11.5 -5t3.5 -11q0 -12 -5 -45t-10.5 -75.5t-7.5 -84.5
q-1 -19 -9.5 -34.5t-21.5 -15.5z" />
  </g>

</svg>
