<?xml version="1.0" standalone="no"?>
<!DOCTYPE svg PUBLIC "-//W3C//DTD SVG 1.1//EN" "http://www.w3.org/Graphics/SVG/1.1/DTD/svg11.dtd" >
<svg xmlns="http://www.w3.org/2000/svg" xmlns:xlink="http://www.w3.org/1999/xlink" version="1.1" viewBox="-10 0 1141 1000">
  <g transform="matrix(1 0 0 -1 0 800)">
   <path fill="currentColor"
d="M552 -14q-59 0 -106 26.5t-75 73.5t-28 106q0 46 18 88t49 75t73 52.5t90 19.5q61 0 109.5 -28.5t77.5 -75.5t29 -103q0 -62 -26.5 -115.5t-79 -86t-131.5 -32.5zM572 25q25 0 44.5 10t31.5 31t16.5 55.5t4.5 74.5q0 53 -14 96t-39 69t-59 26q-19 0 -34.5 -6.5
t-28.5 -21.5q-18 -21 -24.5 -57.5t-6.5 -84.5t14.5 -92t39 -72t55.5 -28zM238 -215q-14 0 -25 11q-21 21 -44.5 59.5t-47 88.5t-42.5 105.5t-30.5 111.5t-11.5 107q0 63 16.5 126.5t43 121t56 102.5t55.5 72q7 6 18 11t22 5q8 0 20 -7t12 -17q0 -1 -4 -7t-8.5 -12.5
t-6.5 -7.5q-27 -34 -54 -90.5t-45.5 -130t-18.5 -159.5q0 -59 10 -123.5t26 -125t36 -108t41 -72.5q1 -2 6 -8t10 -12.5t5 -7.5q0 -15 -12.5 -24t-26.5 -9zM893 -215q14 0 25 11q21 21 44.5 59.5t47 88.5t42.5 105.5t30.5 111.5t11.5 107q0 63 -16.5 126.5t-43 121
t-56 102.5t-55.5 72q-7 6 -18 11t-22 5q-8 0 -20 -7t-12 -17q0 -1 4 -7t8.5 -12.5t6.5 -7.5q27 -34 54 -90.5t45.5 -130t18.5 -159.5q0 -59 -10 -123.5t-26 -125t-36 -108t-41 -72.5q-1 -2 -6 -8t-10 -12.5t-5 -7.5q0 -15 12.5 -24t26.5 -9z" />
  </g>

</svg>
