<?xml version="1.0" standalone="no"?>
<!DOCTYPE svg PUBLIC "-//W3C//DTD SVG 1.1//EN" "http://www.w3.org/Graphics/SVG/1.1/DTD/svg11.dtd" >
<svg xmlns="http://www.w3.org/2000/svg" xmlns:xlink="http://www.w3.org/1999/xlink" version="1.1" viewBox="-10 0 1480 1000">
  <g transform="matrix(1 0 0 -1 0 800)">
   <path fill="currentColor"
d="M238 -215q-14 0 -25 11q-21 21 -44.5 59.5t-47 88.5t-42.5 105.5t-30.5 111.5t-11.5 107q0 63 16.5 126.5t43 121t56 102.5t55.5 72q7 6 18 11t22 5q8 0 20 -7t12 -17q0 -1 -4 -7t-8.5 -12.5t-6.5 -7.5q-27 -34 -54 -90.5t-45.5 -130t-18.5 -159.5q0 -59 10 -123.5
t26 -125t36 -108t41 -72.5q1 -2 6 -8t10 -12.5t5 -7.5q0 -15 -12.5 -24t-26.5 -9zM1229 -215q14 0 25 11q21 21 44.5 59.5t47 88.5t42.5 105.5t30.5 111.5t11.5 107q0 63 -16.5 126.5t-43 121t-56 102.5t-55.5 72q-7 6 -18 11t-22 5q-8 0 -20 -7t-12 -17q0 -1 4 -7
t8.5 -12.5t6.5 -7.5q27 -34 54 -90.5t45.5 -130t18.5 -159.5q0 -59 -10 -123.5t-26 -125t-36 -108t-41 -72.5q-1 -2 -6 -8t-10 -12.5t-5 -7.5q0 -15 12.5 -24t26.5 -9zM357 -4q-8 0 -14 5t-6 12q0 5 7 8.5t13 4.5q13 2 27.5 5t25 14.5t10.5 35.5v251q0 25 -9 36.5
t-22.5 15.5t-29.5 6q-7 2 -12.5 5t-5.5 8q0 6 5.5 11t12.5 5q33 0 49 -1t30 -3t37 -2q24 0 37.5 2t30.5 3t50 1q6 0 11.5 -4t5.5 -10t-5.5 -10t-11.5 -5q-17 -2 -31 -6t-22 -15t-8 -37v-251q0 -35 15.5 -43t47.5 -12q9 -1 14 -5.5t5 -10.5q0 -5 -5.5 -9.5t-13.5 -4.5
q-33 0 -50 1.5t-31 3t-39 1.5q-24 0 -38.5 -1.5t-31.5 -3t-48 -1.5zM885 426q64 0 114.5 -28t80.5 -77t30 -111q0 -63 -29.5 -114t-79.5 -80.5t-114 -29.5q-65 0 -115.5 30t-79.5 81t-29 114q0 61 29.5 110t79.5 77t113 28zM890 379q-32 0 -56.5 -22t-38.5 -59.5t-14 -86.5
q0 -42 12 -83t34 -68t54 -27q48 0 79 41.5t31 135.5q0 42 -11.5 80.5t-34 63.5t-55.5 25z" />
  </g>

</svg>
