<?xml version="1.0" standalone="no"?>
<!DOCTYPE svg PUBLIC "-//W3C//DTD SVG 1.1//EN" "http://www.w3.org/Graphics/SVG/1.1/DTD/svg11.dtd" >
<svg xmlns="http://www.w3.org/2000/svg" xmlns:xlink="http://www.w3.org/1999/xlink" version="1.1" viewBox="-10 0 1016 1000">
  <g transform="matrix(1 0 0 -1 0 800)">
   <path fill="currentColor"
d="M42 -4q-8 0 -14 5t-6 12q0 5 7 8.5t13 4.5q13 2 27.5 5t25 14.5t10.5 35.5v251q0 25 -9 36.5t-22.5 15.5t-29.5 6q-7 2 -12.5 5t-5.5 8q0 6 5.5 11t12.5 5q33 0 49 -1t30 -3t37 -2q24 0 37.5 2t30.5 3t50 1q6 0 11.5 -4t5.5 -10t-5.5 -10t-11.5 -5q-17 -2 -31 -6t-22 -15
t-8 -37v-251q0 -35 15.5 -43t47.5 -12q9 -1 14 -5.5t5 -10.5q0 -5 -5.5 -9.5t-13.5 -4.5q-33 0 -50 1.5t-31 3t-39 1.5q-24 0 -38.5 -1.5t-31.5 -3t-48 -1.5zM525 -13q-50 0 -92 18.5t-67 52t-25 76.5q0 36 22 61.5t53 44t58 33.5q8 4 6 7t-9 8q-30 21 -56 44t-41.5 51.5
t-15.5 66.5q0 42 28 73t72 49t91 18q43 0 81 -16.5t61.5 -45.5t23.5 -68q0 -36 -19 -56t-39 -34q-10 -9 -19.5 -15.5t-21.5 -14.5q-14 -10 -14 -13.5t8 -9.5q35 -23 62.5 -45.5t44 -48.5t16.5 -62q0 -51 -29 -90.5t-76 -61.5t-103 -22zM541 29q37 0 60.5 27t23.5 64
q0 25 -16 48.5t-39.5 43.5t-46.5 37q-5 4 -8 6t-7 2q-3 0 -11 -6q-24 -20 -35.5 -42.5t-11.5 -60.5q0 -31 11.5 -58.5t32.5 -44t47 -16.5zM559 351q5 -4 10 -4.5t9 4.5q20 20 29 49.5t9 63.5q0 35 -21.5 63.5t-54.5 28.5q-31 0 -54 -23.5t-23 -60.5q0 -29 13 -49t35 -36
t48 -36zM884 -25q-29 0 -50.5 21.5t-21.5 50.5q0 31 21.5 52.5t50.5 21.5q31 0 52.5 -21.5t21.5 -52.5q0 -29 -21.5 -50.5t-52.5 -21.5z" />
  </g>

</svg>
