<?xml version="1.0" standalone="no"?>
<!DOCTYPE svg PUBLIC "-//W3C//DTD SVG 1.1//EN" "http://www.w3.org/Graphics/SVG/1.1/DTD/svg11.dtd" >
<svg xmlns="http://www.w3.org/2000/svg" xmlns:xlink="http://www.w3.org/1999/xlink" version="1.1" viewBox="-10 0 398 1000">
  <g transform="matrix(1 0 0 -1 0 800)">
   <path fill="currentColor"
d="M140 176q-7 0 -15.5 9.5t-13.5 20.5q-6 16 -13.5 36.5t-7.5 50.5q0 24 18 42q-7 64 -12.5 123t-8.5 105q-11 9 -19 24.5t-8 31.5q0 15 13.5 26.5t31.5 14.5q8 10 19.5 14.5t25.5 5.5q22 0 35 -12.5t18 -34.5q36 -23 66 -60.5t47.5 -79.5t17.5 -80q0 -39 -15 -60t-32 -29
q-18 -9 -32 -17.5t-28 -16.5t-31 -18q-21 -12 -27.5 -29t-8.5 -44q-1 -10 -6 -16.5t-14 -6.5zM145 -14q-29 0 -49 20t-20 48q0 29 20 48.5t49 19.5q28 0 48 -19.5t20 -48.5q0 -28 -20 -48t-48 -20zM188 386q5 3 10.5 5.5t10.5 5.5q22 10 39 27t17 39q0 35 -16 59.5t-43 34.5
q-2 -38 -7 -81t-11 -90z" />
  </g>

</svg>
