<?xml version="1.0" standalone="no"?>
<!DOCTYPE svg PUBLIC "-//W3C//DTD SVG 1.1//EN" "http://www.w3.org/Graphics/SVG/1.1/DTD/svg11.dtd" >
<svg xmlns="http://www.w3.org/2000/svg" xmlns:xlink="http://www.w3.org/1999/xlink" version="1.1" viewBox="-10 0 854 1000">
  <g transform="matrix(1 0 0 -1 0 800)">
   <path fill="currentColor"
d="M42 -4q-8 0 -14 5t-6 12q0 5 7 8.5t13 4.5q13 2 27.5 5t25 14.5t10.5 35.5v251q0 25 -9 36.5t-22.5 15.5t-29.5 6q-7 2 -12.5 5t-5.5 8q0 6 5.5 11t12.5 5q33 0 49 -1t30 -3t37 -2q24 0 37.5 2t30.5 3t50 1q6 0 11.5 -4t5.5 -10t-5.5 -10t-11.5 -5q-17 -2 -31 -6t-22 -15
t-8 -37v-251q0 -35 15.5 -43t47.5 -12q9 -1 14 -5.5t5 -10.5q0 -5 -5.5 -9.5t-13.5 -4.5q-33 0 -50 1.5t-31 3t-39 1.5q-24 0 -38.5 -1.5t-31.5 -3t-48 -1.5zM353 -4q-8 0 -14 5t-6 12q0 5 7 8.5t13 4.5q13 2 27.5 5t25 14.5t10.5 35.5v251q0 25 -9 36.5t-22.5 15.5t-29.5 6
q-7 2 -12.5 5t-5.5 8q0 6 5.5 11t12.5 5q33 0 49 -1t30 -3t37 -2q24 0 37.5 2t30.5 3t50 1q6 0 11.5 -4t5.5 -10t-5.5 -10t-11.5 -5q-17 -2 -31 -6t-22 -15t-8 -37v-251q0 -35 15.5 -43t47.5 -12q9 -1 14 -5.5t5 -10.5q0 -5 -5.5 -9.5t-13.5 -4.5q-33 0 -50 1.5t-31 3
t-39 1.5q-24 0 -38.5 -1.5t-31.5 -3t-48 -1.5zM723 -25q-29 0 -50.5 21.5t-21.5 50.5q0 31 21.5 52.5t50.5 21.5q31 0 52.5 -21.5t21.5 -52.5q0 -29 -21.5 -50.5t-52.5 -21.5z" />
  </g>

</svg>
