<?xml version="1.0" standalone="no"?>
<!DOCTYPE svg PUBLIC "-//W3C//DTD SVG 1.1//EN" "http://www.w3.org/Graphics/SVG/1.1/DTD/svg11.dtd" >
<svg xmlns="http://www.w3.org/2000/svg" xmlns:xlink="http://www.w3.org/1999/xlink" version="1.1" viewBox="-10 0 557 1000">
  <g transform="matrix(1 0 0 -1 0 800)">
   <path fill="currentColor"
d="M128 -82q-11 0 -16 5.5t-3 12.5l255 587q6 13 17.5 16.5t26.5 3.5q12 0 16.5 -6.5t1.5 -13.5l-256 -587q-5 -12 -17 -15t-25 -3zM65 463l393 -192q15 -6 30.5 -15t15.5 -15q0 -7 -10 -24t-27 -25l-403 -197q-4 -3 -7 -3q-7 0 -10 5.5t-3 12.5q0 12 9 27.5t25 22.5
l335 166q3 1 3 3.5t-4 3.5l-338 165q-15 7 -23 22.5t-8 26.5q0 13 8 16.5t14 -0.5z" />
  </g>

</svg>
