<?xml version="1.0" standalone="no"?>
<!DOCTYPE svg PUBLIC "-//W3C//DTD SVG 1.1//EN" "http://www.w3.org/Graphics/SVG/1.1/DTD/svg11.dtd" >
<svg xmlns="http://www.w3.org/2000/svg" xmlns:xlink="http://www.w3.org/1999/xlink" version="1.1" viewBox="-10 0 795 1000">
  <g transform="matrix(1 0 0 -1 0 800)">
   <path fill="currentColor"
d="M576 600q44 0 84.5 -17.5t65.5 -49.5t25 -78q0 -66 -43 -120.5t-117 -88.5l-21 -10l11 -11q10 -11 26 -27.5t28.5 -40t12.5 -52.5q0 -35 -22.5 -62t-60.5 -43t-85 -16q-45 0 -77.5 16.5t-50.5 42t-18 55.5q0 43 28.5 69t77.5 44l19 8l-17 18q-31 33 -61 63t-57 63l-16 19
l-15 -15q-22 -21 -39.5 -45.5t-29 -45.5t-11.5 -30q0 -12 8.5 -20.5t20.5 -11.5q6 -3 11.5 -6.5t5.5 -9.5q0 -10 -9 -11.5t-18 -1.5t-24.5 1.5t-32 3t-30.5 1.5q-19 0 -41 -4.5t-42.5 -9.5t-35.5 -5q-5 0 -9.5 4t-4.5 8q0 7 9 14.5t21 9.5q29 4 50 17.5t36 27.5
q9 8 25.5 24.5t36.5 36t39.5 38.5t35.5 34t24 22l-18 23q-32 41 -61.5 68t-62.5 27q-18 0 -38.5 -4t-39.5 -12q-5 -2 -10.5 -4t-10.5 -2q-8 0 -11.5 2.5t-3.5 11.5q0 11 21 31t55.5 35t75.5 15q38 0 65.5 -11t50 -33t48.5 -55l16 -21l5 6q30 34 62 60t67 40.5t77 14.5z
M518 515q-33 0 -64 -11.5t-59 -41.5l-8 -8l14 -19q30 -39 64.5 -78t73.5 -81l12 -14l19 10q28 12 42.5 32t20 43t5.5 47q0 54 -33 87.5t-87 33.5zM477 197l-11 -8q-19 -12 -28 -38t-9 -52q-1 -32 12.5 -57t43.5 -25q22 0 40 16t18 41q0 24 -5.5 42t-16.5 32t-25 30z" />
  </g>

</svg>
