<?xml version="1.0" standalone="no"?>
<!DOCTYPE svg PUBLIC "-//W3C//DTD SVG 1.1//EN" "http://www.w3.org/Graphics/SVG/1.1/DTD/svg11.dtd" >
<svg xmlns="http://www.w3.org/2000/svg" xmlns:xlink="http://www.w3.org/1999/xlink" version="1.1" viewBox="-10 0 1020 1000">
  <g transform="matrix(1 0 0 -1 0 800)">
   <path fill="currentColor"
d="M358 -3q-8 0 -14 3.5t-6 9.5q0 8 6.5 12t16.5 7q21 6 29.5 14.5t8.5 23.5v225q0 23 -6.5 38.5t-27.5 20.5q-4 2 -8 5.5t-4 10.5q0 13 11 16q30 8 65 21.5t59 26.5q5 3 11 6t9 3q8 0 8 -10q0 -4 -0.5 -18t-1 -30.5t-1.5 -29.5q0 -6 3 -6q16 21 36 39t42.5 30t45.5 12
q29 0 43.5 -12t14.5 -30q0 -14 -7.5 -30t-19 -27.5t-25.5 -11.5q-8 0 -17 3.5t-18 8.5q-9 4 -18.5 8t-17.5 4q-25 0 -45 -18.5t-20 -72.5v-176q0 -18 13 -27.5t40 -17.5q11 -3 16.5 -6.5t5.5 -11.5q0 -13 -18 -13q-30 0 -56.5 2.5t-52.5 2.5q-17 0 -32.5 -1t-31.5 -2.5
t-36 -1.5zM238 -215q-14 0 -25 11q-21 21 -44.5 59.5t-47 88.5t-42.5 105.5t-30.5 111.5t-11.5 107q0 63 16.5 126.5t43 121t56 102.5t55.5 72q7 6 18 11t22 5q8 0 20 -7t12 -17q0 -1 -4 -7t-8.5 -12.5t-6.5 -7.5q-27 -34 -54 -90.5t-45.5 -130t-18.5 -159.5
q0 -59 10 -123.5t26 -125t36 -108t41 -72.5q1 -2 6 -8t10 -12.5t5 -7.5q0 -15 -12.5 -24t-26.5 -9zM770 -215q14 0 25 11q21 21 44.5 59.5t47 88.5t42.5 105.5t30.5 111.5t11.5 107q0 63 -16.5 126.5t-43 121t-56 102.5t-55.5 72q-7 6 -18 11t-22 5q-8 0 -20 -7t-12 -17
q0 -1 4 -7t8.5 -12.5t6.5 -7.5q27 -34 54 -90.5t45.5 -130t18.5 -159.5q0 -59 -10 -123.5t-26 -125t-36 -108t-41 -72.5q-1 -2 -6 -8t-10 -12.5t-5 -7.5q0 -15 12.5 -24t26.5 -9z" />
  </g>

</svg>
