<?xml version="1.0" standalone="no"?>
<!DOCTYPE svg PUBLIC "-//W3C//DTD SVG 1.1//EN" "http://www.w3.org/Graphics/SVG/1.1/DTD/svg11.dtd" >
<svg xmlns="http://www.w3.org/2000/svg" xmlns:xlink="http://www.w3.org/1999/xlink" version="1.1" viewBox="-10 0 1047 1000">
  <g transform="matrix(1 0 0 -1 0 800)">
   <path fill="currentColor"
d="M359 -5q-4 0 -12 8.5t-8 15.5q0 5 7.5 16.5t17 25t15.5 22.5q24 38 45 68.5t40.5 61t41.5 65.5t51 82q2 3 2 7t-12 4l-70 1q-14 1 -24.5 -4.5t-19.5 -13.5q-5 -5 -13 -16t-17 -23.5t-16 -23t-11 -15.5q-6 -7 -18 -3t-10 13q3 10 8 32t9.5 47t4.5 42q0 9 7 16t13 7
q8 0 18 -10q5 -4 18.5 -5t27.5 -1q12 0 23 0.5t18 0.5q49 0 101 1t101 2q6 0 10 -5.5t5.5 -12.5t-1.5 -11q-11 -14 -20 -26t-20 -28l-176 -276q-4 -7 -1.5 -11t13.5 -4h81q13 0 25 5t24 18q14 15 25.5 32.5t28.5 45.5q7 11 19 8t12 -13q0 -6 -3.5 -21.5t-8.5 -35.5
t-10.5 -39.5t-9.5 -33.5q-4 -15 -18 -15q-24 0 -82 3t-145 3q-23 0 -47.5 -3t-38.5 -3zM238 -215q-14 0 -25 11q-21 21 -44.5 59.5t-47 88.5t-42.5 105.5t-30.5 111.5t-11.5 107q0 63 16.5 126.5t43 121t56 102.5t55.5 72q7 6 18 11t22 5q8 0 20 -7t12 -17q0 -1 -4 -7
t-8.5 -12.5t-6.5 -7.5q-27 -34 -54 -90.5t-45.5 -130t-18.5 -159.5q0 -59 10 -123.5t26 -125t36 -108t41 -72.5q1 -2 6 -8t10 -12.5t5 -7.5q0 -15 -12.5 -24t-26.5 -9zM797 -215q14 0 25 11q21 21 44.5 59.5t47 88.5t42.5 105.5t30.5 111.5t11.5 107q0 63 -16.5 126.5
t-43 121t-56 102.5t-55.5 72q-7 6 -18 11t-22 5q-8 0 -20 -7t-12 -17q0 -1 4 -7t8.5 -12.5t6.5 -7.5q27 -34 54 -90.5t45.5 -130t18.5 -159.5q0 -59 -10 -123.5t-26 -125t-36 -108t-41 -72.5q-1 -2 -6 -8t-10 -12.5t-5 -7.5q0 -15 12.5 -24t26.5 -9z" />
  </g>

</svg>
