<?xml version="1.0" standalone="no"?>
<!DOCTYPE svg PUBLIC "-//W3C//DTD SVG 1.1//EN" "http://www.w3.org/Graphics/SVG/1.1/DTD/svg11.dtd" >
<svg xmlns="http://www.w3.org/2000/svg" xmlns:xlink="http://www.w3.org/1999/xlink" version="1.1" viewBox="-10 0 850 1000">
  <g transform="matrix(1 0 0 -1 0 800)">
   <path fill="currentColor"
d="M317 -287q-14 0 -24 3.5t-10 10.5t5 11.5t12 8.5q16 6 31 18t28 40q11 22 17 54.5t9.5 69t4.5 70.5t1 58v225q0 32 -10.5 48t-33.5 20q-6 1 -8.5 5.5t-2.5 10.5q0 13 10 15q47 10 83 27.5t55 27.5q6 3 11 5t7 2q10 0 10 -10q-2 -29 -6 -72t-4 -79l1 -191q0 -31 -2 -72.5
t-9.5 -86t-24.5 -84.5q-13 -34 -39.5 -65t-55.5 -50.5t-55 -19.5zM441 501q-29 0 -49 20t-20 48q0 31 20 51t49 20q30 0 50 -20t20 -51q0 -28 -20 -48t-50 -20zM238 -215q-14 0 -25 11q-21 21 -44.5 59.5t-47 88.5t-42.5 105.5t-30.5 111.5t-11.5 107q0 63 16.5 126.5
t43 121t56 102.5t55.5 72q7 6 18 11t22 5q8 0 20 -7t12 -17q0 -1 -4 -7t-8.5 -12.5t-6.5 -7.5q-27 -34 -54 -90.5t-45.5 -130t-18.5 -159.5q0 -59 10 -123.5t26 -125t36 -108t41 -72.5q1 -2 6 -8t10 -12.5t5 -7.5q0 -15 -12.5 -24t-26.5 -9zM602 -215q14 0 25 11
q21 21 44.5 59.5t47 88.5t42.5 105.5t30.5 111.5t11.5 107q0 63 -16.5 126.5t-43 121t-56 102.5t-55.5 72q-7 6 -18 11t-22 5q-8 0 -20 -7t-12 -17q0 -1 4 -7t8.5 -12.5t6.5 -7.5q27 -34 54 -90.5t45.5 -130t18.5 -159.5q0 -59 -10 -123.5t-26 -125t-36 -108t-41 -72.5
q-1 -2 -6 -8t-10 -12.5t-5 -7.5q0 -15 12.5 -24t26.5 -9z" />
  </g>

</svg>
