<?xml version="1.0" standalone="no"?>
<!DOCTYPE svg PUBLIC "-//W3C//DTD SVG 1.1//EN" "http://www.w3.org/Graphics/SVG/1.1/DTD/svg11.dtd" >
<svg xmlns="http://www.w3.org/2000/svg" xmlns:xlink="http://www.w3.org/1999/xlink" version="1.1" viewBox="-10 0 624 1000">
  <g transform="matrix(1 0 0 -1 0 800)">
   <path fill="currentColor"
d="M82 -182q-14 0 -24.5 5t-10.5 12q0 16 9 25t22 9q6 0 21 -0.5t31 0t24 4.5q24 12 43 30.5t30 48t11 75.5q0 22 -8 42.5t-26.5 34.5t-50.5 14q-24 0 -42.5 -11.5t-20.5 -11.5q-6 0 -14 5t-8 13t13.5 20.5t24.5 18.5q18 11 32 21t37 29q14 12 27 36.5t13 61.5
q0 28 -17.5 44t-48.5 16q-30 0 -52 -14t-41 -35q-2 -4 -7.5 -7t-12.5 -3q-5 0 -7.5 6.5t-2.5 13.5q0 9 13.5 25.5t37 35t54 31.5t65.5 13q61 0 95.5 -28.5t34.5 -75.5q0 -21 -12 -45t-37.5 -48t-67.5 -44q-3 -1 -3 -4t4 -4q52 -4 85 -21.5t48.5 -42.5t15.5 -53
q0 -44 -16.5 -78.5t-42 -60.5t-55.5 -44.5t-56 -30.5q-33 -15 -57.5 -21.5t-49.5 -6.5zM492 -25q-29 0 -50.5 21.5t-21.5 50.5q0 31 21.5 52.5t50.5 21.5q31 0 52.5 -21.5t21.5 -52.5q0 -29 -21.5 -50.5t-52.5 -21.5z" />
  </g>

</svg>
