<?xml version="1.0" standalone="no"?>
<!DOCTYPE svg PUBLIC "-//W3C//DTD SVG 1.1//EN" "http://www.w3.org/Graphics/SVG/1.1/DTD/svg11.dtd" >
<svg xmlns="http://www.w3.org/2000/svg" xmlns:xlink="http://www.w3.org/1999/xlink" version="1.1" viewBox="-10 0 607 1000">
  <g transform="matrix(1 0 0 -1 0 800)">
   <path fill="currentColor"
d="M199 -98q-6 0 -15.5 13.5t-16.5 36t-7 49.5q0 14 5 41.5t13 49.5l22 56l-107 221q-8 17 -17.5 27t-22 16t-31.5 12q-6 2 -11.5 5t-5.5 11q0 6 5 9t10 3q27 0 57 -1.5t59 -1.5q28 0 56.5 2.5t59.5 2.5q5 0 12.5 -4t7.5 -9q0 -7 -8.5 -12t-13.5 -6q-9 -3 -18 -9t-9 -16
q0 -9 4 -20.5t7 -19.5l26 -59l63 172q2 6 3 12.5t1 11.5q0 4 -5 9.5t-12 11.5l-15.5 15.5t-8.5 12.5t3.5 22t12 35.5t15.5 32.5t15 14t18 -9.5t22 -23.5t18 -25.5t7 -14.5q0 -11 -3 -24.5t-7 -22.5l-104 -283l33 -78q8 -18 13.5 -16.5t11.5 17.5l84 183q12 28 11 46t-25 27
q-7 3 -14.5 7t-7.5 11q0 5 7.5 8t13.5 3q20 0 30.5 -0.5t20 -2t26.5 -1.5q16 0 26 1.5t21.5 3t30.5 1.5q7 0 14.5 -3.5t7.5 -11.5q0 -7 -7 -10.5t-13 -4.5q-31 -7 -50 -23.5t-28 -37.5l-154 -324q-5 -11 -12 -24t-14 -22.5t-16 -9.5q-6 0 -14 10t-16 24.5t-16 30.5l-27 56
v-14q-5 -15 -9.5 -32t-4.5 -38t7.5 -35t14.5 -22t7 -15t-6 -18t-14.5 -20t-15.5 -9z" />
  </g>

</svg>
