<?xml version="1.0" standalone="no"?>
<!DOCTYPE svg PUBLIC "-//W3C//DTD SVG 1.1//EN" "http://www.w3.org/Graphics/SVG/1.1/DTD/svg11.dtd" >
<svg xmlns="http://www.w3.org/2000/svg" xmlns:xlink="http://www.w3.org/1999/xlink" version="1.1" viewBox="-10 0 551 1000">
  <g transform="matrix(1 0 0 -1 0 800)">
   <path fill="currentColor"
d="M358 -19q-3 0 -8.5 5.5t-5.5 8.5q2 14 3.5 29.5t2.5 26.5v6q-19 -28 -53.5 -49.5t-78.5 -21.5q-56 0 -99 28.5t-67.5 76t-24.5 102.5q0 65 29.5 117.5t82.5 83t123 30.5q17 0 34.5 -2.5t30.5 -6.5q12 -3 13 -3q5 0 5 17v126q0 38 -10 53t-32 19q-11 3 -11 15q0 11 10 14
q39 9 73.5 20.5t56.5 21.5q10 4 14.5 5.5t5.5 1.5q10 0 10 -10l-1 -12t-2.5 -32.5t-2.5 -46.5l-3 -487q0 -34 5 -49t17 -15q5 0 13 0.5t28 2.5q15 1 15 -10q0 -8 -5.5 -15.5t-10.5 -7.5q-34 -4 -69 -13t-71 -23l-10.5 -4.5t-6.5 -1.5zM264 49q19 0 42 9.5t39 26.5v208
q0 21 -14 41.5t-37 34t-49 13.5q-24 0 -47 -17.5t-38.5 -53.5t-15.5 -92q0 -46 11.5 -78.5t29.5 -52.5t39 -29.5t40 -9.5z" />
  </g>

</svg>
