<?xml version="1.0" standalone="no"?>
<!DOCTYPE svg PUBLIC "-//W3C//DTD SVG 1.1//EN" "http://www.w3.org/Graphics/SVG/1.1/DTD/svg11.dtd" >
<svg xmlns="http://www.w3.org/2000/svg" xmlns:xlink="http://www.w3.org/1999/xlink" version="1.1" viewBox="-10 0 618 1000">
  <g transform="matrix(1 0 0 -1 0 800)">
   <path fill="currentColor"
d="M490 644q8 13 19 16.5t27 3.5q7 0 12 -5t5 -10q0 -4 -1 -5l-420 -662q-6 -12 -17.5 -15t-24.5 -3q-7 0 -14 4.5t-7 9.5q0 2 1 4zM100 411q-18 0 -34 9t-25.5 23.5t-9.5 29.5q0 21 11.5 35.5t40.5 25.5l65 25q14 5 17 9.5t3 16.5v26q0 17 -7 26.5t-22 9.5q-9 0 -19.5 -3
t-14.5 -9q-4 -5 -3 -13t1 -14q0 -5 -11 -10t-26 -10t-25 -7q-5 -1 -7.5 4t0.5 12q5 12 10.5 22t19.5 22q12 9 30.5 19t40 17.5t39.5 7.5q35 0 60 -22t24 -58l-4 -113q0 -12 4.5 -24.5t15.5 -12.5q7 0 11 3t7 5q2 1 3.5 2t2.5 1q4 0 7 -3.5t3 -8.5q0 -4 -5 -10t-9 -10
q-9 -9 -22 -16t-30 -7q-27 0 -41 12t-22 23h-2q-11 -11 -29 -23t-48 -12zM137 457q8 0 13.5 4t10.5 7q3 3 3.5 5.5t0.5 8.5l2 44q0 7 -3 9t-10 0q-25 -9 -33.5 -19.5t-8.5 -27.5q0 -18 8.5 -24.5t16.5 -6.5zM466 8q-23 0 -44 4.5t-38 15.5q-6 10 -9 33t-2 44q0 4 4 6.5
t9 2.5q7 0 11.5 -3t5.5 -7q7 -15 16 -30t22 -24.5t30 -9.5t26 8.5t9 19.5q0 16 -13 26t-31 18q-19 7 -37 18t-29.5 28.5t-11.5 41.5q0 26 14.5 44t39.5 27.5t55 9.5q23 0 42 -4.5t26 -8.5q5 -6 8.5 -24t3.5 -41q0 -3 -4 -6t-9 -3q-13 0 -16 10q-9 22 -21.5 35t-30.5 13
q-16 0 -26.5 -8t-10.5 -19q0 -12 12 -21.5t31 -18.5q43 -20 62.5 -38.5t19.5 -52.5q0 -40 -28.5 -63t-85.5 -23z" />
  </g>

</svg>
