<?xml version="1.0" standalone="no"?>
<!DOCTYPE svg PUBLIC "-//W3C//DTD SVG 1.1//EN" "http://www.w3.org/Graphics/SVG/1.1/DTD/svg11.dtd" >
<svg xmlns="http://www.w3.org/2000/svg" xmlns:xlink="http://www.w3.org/1999/xlink" version="1.1" viewBox="-10 0 420 1000">
  <g transform="matrix(1 0 0 -1 0 800)">
   <path fill="currentColor"
d="M351 -151q-11 0 -16.5 10.5t-5.5 24.5q0 12 -0.5 24t-0.5 22q0 42 -15.5 56.5t-38.5 14.5h-152q-22 0 -47 -3t-38 -3q-4 0 -12 8.5t-8 15.5q0 5 7 16.5t16.5 25t16.5 22.5q24 38 44 68t39.5 60.5t41 65.5t50.5 81q2 3 2 7t-12 4h-77q-14 0 -25 -9.5t-24 -24.5
q-3 -3 -9.5 -12.5t-14.5 -20.5t-15 -19.5t-10 -10.5q-7 -4 -15 2t-6 14q3 10 8.5 32t9.5 46t4 41q0 9 7 16t13 7q7 0 18 -10q5 -4 18 -5t28 -1q11 0 22 0.5t18 0.5q49 0 101.5 1t101.5 2q6 0 10 -5.5t5.5 -12.5t-1.5 -11q-11 -14 -20 -26l-21 -28l-175 -275q-4 -7 0 -11
t14 -4h123q29 0 50.5 3t25.5 3q14 0 14 -7v-4t-1 -5q-2 -10 -7 -31t-10 -52t-7 -69q-1 -16 -8.5 -25t-15.5 -9z" />
  </g>

</svg>
