<?xml version="1.0" standalone="no"?>
<!DOCTYPE svg PUBLIC "-//W3C//DTD SVG 1.1//EN" "http://www.w3.org/Graphics/SVG/1.1/DTD/svg11.dtd" >
<svg xmlns="http://www.w3.org/2000/svg" xmlns:xlink="http://www.w3.org/1999/xlink" version="1.1" viewBox="-10 0 1423 1000">
  <g transform="matrix(1 0 0 -1 0 800)">
   <path fill="currentColor"
d="M238 -215q-14 0 -25 11q-21 21 -44.5 59.5t-47 88.5t-42.5 105.5t-30.5 111.5t-11.5 107q0 63 16.5 126.5t43 121t56 102.5t55.5 72q7 6 18 11t22 5q8 0 20 -7t12 -17q0 -1 -4 -7t-8.5 -12.5t-6.5 -7.5q-27 -34 -54 -90.5t-45.5 -130t-18.5 -159.5q0 -59 10 -123.5
t26 -125t36 -108t41 -72.5q1 -2 6 -8t10 -12.5t5 -7.5q0 -15 -12.5 -24t-26.5 -9zM1173 -215q14 0 25 11q21 21 44.5 59.5t47 88.5t42.5 105.5t30.5 111.5t11.5 107q0 63 -16.5 126.5t-43 121t-56 102.5t-55.5 72q-7 6 -18 11t-22 5q-8 0 -20 -7t-12 -17q0 -1 4 -7
t8.5 -12.5t6.5 -7.5q27 -34 54 -90.5t45.5 -130t18.5 -159.5q0 -59 -10 -123.5t-26 -125t-36 -108t-41 -72.5q-1 -2 -6 -8t-10 -12.5t-5 -7.5q0 -15 12.5 -24t26.5 -9zM357 -4q-8 0 -14 5t-6 12q0 5 7 8.5t13 4.5q13 2 27.5 5t25 14.5t10.5 35.5v251q0 25 -9 36.5
t-22.5 15.5t-29.5 6q-7 2 -12.5 5t-5.5 8q0 6 5.5 11t12.5 5q33 0 49 -1t30 -3t37 -2q24 0 37.5 2t30.5 3t50 1q6 0 11.5 -4t5.5 -10t-5.5 -10t-11.5 -5q-17 -2 -31 -6t-22 -15t-8 -37v-251q0 -35 15.5 -43t47.5 -12q9 -1 14 -5.5t5 -10.5q0 -5 -5.5 -9.5t-13.5 -4.5
q-33 0 -50 1.5t-31 3t-39 1.5q-24 0 -38.5 -1.5t-31.5 -3t-48 -1.5zM881 -14q-67 0 -113.5 27t-71 73.5t-24.5 106.5q0 74 21 130t48 94t44 58q24 28 64 58.5t90.5 57.5t105.5 44q13 4 24 4t11 -6q0 -8 -7 -14.5t-14.5 -10.5t-10.5 -6q-58 -27 -99 -61.5t-75 -86.5
q-16 -23 -34.5 -62t-31.5 -89t-13 -109q0 -39 12 -77t35.5 -62.5t56.5 -24.5q40 0 64 33t24 83q0 30 -11 56t-28.5 42.5t-38.5 16.5q-17 0 -29 -2.5t-24 -8.5q-16 -7 -19 1.5t6 18.5l12 12l11 11q8 6 24 16.5t36 19.5t38 9q38 0 69.5 -19.5t50.5 -51.5t19 -70
q0 -37 -14.5 -74.5t-43.5 -68t-70.5 -49.5t-93.5 -19z" />
  </g>

</svg>
