<?xml version="1.0" standalone="no"?>
<!DOCTYPE svg PUBLIC "-//W3C//DTD SVG 1.1//EN" "http://www.w3.org/Graphics/SVG/1.1/DTD/svg11.dtd" >
<svg xmlns="http://www.w3.org/2000/svg" xmlns:xlink="http://www.w3.org/1999/xlink" version="1.1" viewBox="-10 0 1078 1000">
  <g transform="matrix(1 0 0 -1 0 800)">
   <path fill="currentColor"
d="M395 -284q-24 0 -45 15.5t-21 40.5q0 19 9.5 36t28.5 17q14 0 28.5 -5t27.5 -4q12 1 17.5 5.5t12.5 16.5q8 14 17.5 30.5t20 39.5t23.5 55q9 21 9 40q0 12 -3 23t-7 20l-121 285q-8 20 -19.5 35t-28.5 20q-9 4 -14.5 8t-5.5 12t8 9.5t14 1.5q23 0 37 -1t26 -2t26 -1
q21 0 34 1t27.5 2t36.5 1q7 0 15 -2.5t8 -10.5t-9 -12.5t-17 -7.5q-10 -3 -16 -11.5t-6 -24.5q0 -7 3 -17.5t7 -22.5l69 -167q1 -4 4 -4q1 0 3 4l57 163q3 7 5.5 18.5t2.5 19.5q0 18 -8.5 27.5t-18.5 13.5l-17 8.5t-9 12.5t8.5 10.5t14.5 2.5q22 0 37 -2t35 -2q13 0 21.5 1
t18.5 2t25 1q6 0 14.5 -1.5t8.5 -9.5t-5.5 -12t-14.5 -8q-17 -5 -33 -22.5t-26 -40.5l-144 -348q-6 -14 -16 -37.5t-21.5 -51.5t-24.5 -58t-25 -59q-11 -26 -33.5 -39.5t-50.5 -13.5zM238 -215q-14 0 -25 11q-21 21 -44.5 59.5t-47 88.5t-42.5 105.5t-30.5 111.5t-11.5 107
q0 63 16.5 126.5t43 121t56 102.5t55.5 72q7 6 18 11t22 5q8 0 20 -7t12 -17q0 -1 -4 -7t-8.5 -12.5t-6.5 -7.5q-27 -34 -54 -90.5t-45.5 -130t-18.5 -159.5q0 -59 10 -123.5t26 -125t36 -108t41 -72.5q1 -2 6 -8t10 -12.5t5 -7.5q0 -15 -12.5 -24t-26.5 -9zM828 -213
q14 0 25 11q21 21 44.5 59.5t47 88.5t42.5 105.5t30.5 111.5t11.5 107q0 63 -16.5 126.5t-43 121t-56 102.5t-55.5 72q-7 6 -18 11t-22 5q-8 0 -20 -7t-12 -17q0 -1 4 -7t8.5 -12.5t6.5 -7.5q27 -34 54 -90.5t45.5 -130t18.5 -159.5q0 -59 -10 -123.5t-26 -125t-36 -108
t-41 -72.5q-1 -2 -6 -8t-10 -12.5t-5 -7.5q0 -15 12.5 -24t26.5 -9z" />
  </g>

</svg>
