<?xml version="1.0" standalone="no"?>
<!DOCTYPE svg PUBLIC "-//W3C//DTD SVG 1.1//EN" "http://www.w3.org/Graphics/SVG/1.1/DTD/svg11.dtd" >
<svg xmlns="http://www.w3.org/2000/svg" xmlns:xlink="http://www.w3.org/1999/xlink" version="1.1" viewBox="-10 0 1087 1000">
  <g transform="matrix(1 0 0 -1 0 800)">
   <path fill="currentColor"
d="M238 -215q-14 0 -25 11q-21 21 -44.5 59.5t-47 88.5t-42.5 105.5t-30.5 111.5t-11.5 107q0 63 16.5 126.5t43 121t56 102.5t55.5 72q7 6 18 11t22 5q8 0 20 -7t12 -17q0 -1 -4 -7t-8.5 -12.5t-6.5 -7.5q-27 -34 -54 -90.5t-45.5 -130t-18.5 -159.5q0 -59 10 -123.5
t26 -125t36 -108t41 -72.5q1 -2 6 -8t10 -12.5t5 -7.5q0 -15 -12.5 -24t-26.5 -9zM837 -215q14 0 25 11q21 21 44.5 59.5t47 88.5t42.5 105.5t30.5 111.5t11.5 107q0 63 -16.5 126.5t-43 121t-56 102.5t-55.5 72q-7 6 -18 11t-22 5q-8 0 -20 -7t-12 -17q0 -1 4 -7t8.5 -12.5
t6.5 -7.5q27 -34 54 -90.5t45.5 -130t18.5 -159.5q0 -59 -10 -123.5t-26 -125t-36 -108t-41 -72.5q-1 -2 -6 -8t-10 -12.5t-5 -7.5q0 -15 12.5 -24t26.5 -9zM546 -13q-50 0 -92 18.5t-67 52t-25 76.5q0 36 22 61.5t53 44t58 33.5q8 4 6 7t-9 8q-30 21 -56 44t-41.5 51.5
t-15.5 66.5q0 42 28 73t72 49t91 18q43 0 81 -16.5t61.5 -45.5t23.5 -68q0 -36 -19 -56t-39 -34q-10 -9 -19.5 -15.5t-21.5 -14.5q-14 -10 -14 -13.5t8 -9.5q35 -23 62.5 -45.5t44 -48.5t16.5 -62q0 -51 -29 -90.5t-76 -61.5t-103 -22zM562 29q37 0 60.5 27t23.5 64
q0 25 -16 48.5t-39.5 43.5t-46.5 37q-5 4 -8 6t-7 2q-3 0 -11 -6q-24 -20 -35.5 -42.5t-11.5 -60.5q0 -31 11.5 -58.5t32.5 -44t47 -16.5zM580 351q5 -4 10 -4.5t9 4.5q20 20 29 49.5t9 63.5q0 35 -21.5 63.5t-54.5 28.5q-31 0 -54 -23.5t-23 -60.5q0 -29 13 -49t35 -36
t48 -36z" />
  </g>

</svg>
