<?xml version="1.0" standalone="no"?>
<!DOCTYPE svg PUBLIC "-//W3C//DTD SVG 1.1//EN" "http://www.w3.org/Graphics/SVG/1.1/DTD/svg11.dtd" >
<svg xmlns="http://www.w3.org/2000/svg" xmlns:xlink="http://www.w3.org/1999/xlink" version="1.1" viewBox="-10 0 520 1000">
  <g transform="matrix(1 0 0 -1 0 800)">
   <path fill="currentColor"
d="M46 -16q-7 0 -17 5.5t-17 15t-7 20.5q0 16 3.5 32t9.5 38l137 450q5 16 8.5 33t3.5 28q0 12 -12.5 18.5t-25.5 11.5q-7 2 -13 5t-6 8q0 6 4 10t19 9q11 4 31.5 10.5t43.5 13t41.5 11t25.5 4.5t15 -1.5t8 -10.5q0 -11 -2 -19t-5 -17l-148 -440q-2 -7 1.5 -7t7.5 5
q41 59 84 107t85 77t79 29q38 0 57.5 -24.5t19.5 -58.5q0 -52 -15 -103.5t-40.5 -97.5t-55.5 -81q-7 -8 -24 -21t-38.5 -26.5t-42 -22.5t-32.5 -9q-11 0 -23.5 7.5t-21.5 17.5t-9 18q0 5 5 15t12.5 18.5t14.5 8.5q11 0 16.5 -5t12.5 -11t14 -11.5t17 -5.5q12 0 26.5 19.5
t28 52t24 70.5t17 75t6.5 66q0 19 -7.5 29.5t-22.5 10.5t-37.5 -21t-48.5 -55.5t-52 -75.5t-50 -81.5t-41 -73.5q-19 -36 -34.5 -53t-29.5 -17z" />
  </g>

</svg>
