<?xml version="1.0" standalone="no"?>
<!DOCTYPE svg PUBLIC "-//W3C//DTD SVG 1.1//EN" "http://www.w3.org/Graphics/SVG/1.1/DTD/svg11.dtd" >
<svg xmlns="http://www.w3.org/2000/svg" xmlns:xlink="http://www.w3.org/1999/xlink" version="1.1" viewBox="-10 0 618 1000">
  <g transform="matrix(1 0 0 -1 0 800)">
   <path fill="currentColor"
d="M306 -12q-72 0 -117.5 25.5t-68 70.5t-22.5 105v170q0 13 -4 26.5t-14.5 24t-29.5 14.5q-9 2 -14.5 6.5t-5.5 9.5q0 6 6.5 9.5t12.5 3.5q29 0 57.5 -2t53.5 -2q17 0 37 1t40.5 1.5t40.5 0.5q7 0 13 -3t6 -9q0 -9 -12.5 -14l-22.5 -9q-21 -7 -29 -21.5t-8 -41.5v-155
q0 -73 30 -107t79 -34q38 0 66 13.5t42.5 45t14.5 84.5v127q0 35 -3.5 52t-13 25.5t-28.5 15.5q-9 4 -19.5 7.5t-10.5 11.5q0 6 6.5 9.5t15.5 3.5q22 0 33.5 -0.5t21 -2t26.5 -1.5t26.5 1.5t20.5 2t30 0.5q6 0 12 -2.5t6 -10.5q0 -5 -5.5 -10t-13.5 -7q-31 -8 -40.5 -24
t-10.5 -44l-1 -146q0 -60 -24 -110.5t-69.5 -80.5t-109.5 -30zM207 543q-5 0 -12.5 6t-7.5 12q0 5 12 21.5t28 36t32 34t23 14.5q13 0 25.5 -2.5t36.5 -4.5q21 -1 37 -2.5t27 -1.5q10 0 19.5 5.5t17.5 14.5q10 11 16 18.5t9 7.5q7 0 14 -6t7 -13q0 -3 -5.5 -10t-15.5 -19
q-11 -14 -23 -31.5t-22 -31.5q-6 -8 -15.5 -11t-14.5 -3q-8 0 -25 1.5t-38 3t-40.5 3t-30.5 1.5q-8 0 -15 -5t-13 -11q-10 -13 -16 -20t-10 -7z" />
  </g>

</svg>
