<?xml version="1.0" standalone="no"?>
<!DOCTYPE svg PUBLIC "-//W3C//DTD SVG 1.1//EN" "http://www.w3.org/Graphics/SVG/1.1/DTD/svg11.dtd" >
<svg xmlns="http://www.w3.org/2000/svg" xmlns:xlink="http://www.w3.org/1999/xlink" version="1.1" viewBox="-10 0 360 1000">
  <g transform="matrix(1 0 0 -1 0 800)">
   <path fill="currentColor"
d="M25 -133q-7 0 -12.5 1.5t-5.5 6.5q0 6 4 9t10 5q11 2 20 9.5t19 19.5l59 75q3 4 3 8t-3 9l-50 68q-6 9 -14 16.5t-21 10.5q-6 2 -9.5 6t-3.5 9q0 6 6.5 7.5t10.5 1.5q21 0 36.5 -1.5t33.5 -1.5q19 0 30 2t32 2q4 0 10 -2.5t6 -8.5q0 -4 -3.5 -8t-9.5 -6q-22 -6 -6 -28
l23 -31q5 -6 7 -6.5t6 5.5l24 33q8 9 6.5 16t-12.5 10q-7 2 -11.5 5.5t-4.5 8.5t5.5 8t10.5 3q19 0 26.5 -0.5t16.5 -0.5h18t28 1q4 0 11 -2t7 -7q0 -6 -3.5 -10t-9.5 -5q-8 -1 -18.5 -6t-22.5 -21l-44 -59q-7 -8 -6 -12t5 -10l54 -73q8 -9 19.5 -19t24.5 -15q7 -1 10 -4
t3 -9q0 -5 -6.5 -7t-10.5 -2q-20 0 -39.5 1.5t-36.5 1.5q-21 0 -37.5 -1.5t-39.5 -1.5q-4 0 -10 2.5t-6 6.5q0 6 5 9t11 4q12 3 15.5 11t1.5 17.5t-7 16.5l-25 37q-3 3 -7 1.5t-6 -5.5l-37 -48q-6 -8 -5 -17t14 -15q5 -1 10 -3.5t5 -8.5q0 -5 -6 -7.5t-9 -2.5
q-12 0 -17.5 0.5t-10.5 1t-14 0.5h-18t-29 -1z" />
  </g>

</svg>
