<?xml version="1.0" standalone="no"?>
<!DOCTYPE svg PUBLIC "-//W3C//DTD SVG 1.1//EN" "http://www.w3.org/Graphics/SVG/1.1/DTD/svg11.dtd" >
<svg xmlns="http://www.w3.org/2000/svg" xmlns:xlink="http://www.w3.org/1999/xlink" version="1.1" viewBox="-10 0 492 1000">
  <g transform="matrix(1 0 0 -1 0 800)">
   <path fill="currentColor"
d="M78 -284q-24 0 -45 15.5t-21 40.5q0 19 9.5 36t28.5 17q14 0 28.5 -5t27.5 -4q12 1 17.5 5.5t12.5 16.5q8 14 17.5 30.5t20 39.5t23.5 55q9 21 9 40q0 12 -3 23t-7 20l-121 285q-8 20 -19.5 35t-28.5 20q-9 4 -14.5 8t-5.5 12t8 9.5t14 1.5q23 0 37 -1t26 -2t26 -1
q21 0 34 1t27.5 2t36.5 1q7 0 15 -2.5t8 -10.5t-9 -12.5t-17 -7.5q-10 -3 -16 -11.5t-6 -24.5q0 -7 3 -17.5t7 -22.5l69 -167q1 -4 4 -4q1 0 3 4l57 163q3 7 5.5 18.5t2.5 19.5q0 18 -8.5 27.5t-18.5 13.5l-17 8.5t-9 12.5t8.5 10.5t14.5 2.5q22 0 37 -2t35 -2q13 0 21.5 1
t18.5 2t25 1q6 0 14.5 -1.5t8.5 -9.5t-5.5 -12t-14.5 -8q-17 -5 -33 -22.5t-26 -40.5l-144 -348q-6 -14 -16 -37.5t-21.5 -51.5t-24.5 -58t-25 -59q-11 -26 -33.5 -39.5t-50.5 -13.5zM267 663q-9 0 -15.5 -8.5t-15.5 -23.5q-9 -14 -21 -34.5t-24.5 -41.5t-22 -39.5
t-14.5 -30.5q-6 -13 -4.5 -21.5t13.5 -8.5q7 0 16.5 8t20.5 20t27.5 32.5t34.5 41.5q4 3 5.5 3t4.5 -3q18 -21 34.5 -41.5t26.5 -32.5q11 -12 20.5 -20t16.5 -8q9 0 12 8.5t-3 21.5q-4 12 -14.5 30.5t-23 40t-24 42t-21.5 34.5q-7 14 -14 22.5t-15 8.5z" />
  </g>

</svg>
