<?xml version="1.0" standalone="no"?>
<!DOCTYPE svg PUBLIC "-//W3C//DTD SVG 1.1//EN" "http://www.w3.org/Graphics/SVG/1.1/DTD/svg11.dtd" >
<svg xmlns="http://www.w3.org/2000/svg" xmlns:xlink="http://www.w3.org/1999/xlink" version="1.1" viewBox="-10 0 579 1000">
  <g transform="matrix(1 0 0 -1 0 800)">
   <path fill="currentColor"
d="M283 456q68 0 122 -30.5t85.5 -82.5t31.5 -118q0 -67 -30.5 -121.5t-84.5 -86t-122 -31.5q-69 0 -122.5 31.5t-85 86.5t-31.5 122q0 66 31.5 117.5t85 82t120.5 30.5zM288 410q-35 0 -61.5 -23.5t-41.5 -65t-15 -95.5q0 -47 12.5 -91.5t37 -73.5t59.5 -29q53 0 86 45
t33 148q0 46 -12 88.5t-36 69.5t-62 27z" />
  </g>

</svg>
