<?xml version="1.0" standalone="no"?>
<!DOCTYPE svg PUBLIC "-//W3C//DTD SVG 1.1//EN" "http://www.w3.org/Graphics/SVG/1.1/DTD/svg11.dtd" >
<svg xmlns="http://www.w3.org/2000/svg" xmlns:xlink="http://www.w3.org/1999/xlink" version="1.1" viewBox="-10 0 383 1000">
  <g transform="matrix(1 0 0 -1 0 800)">
   <path fill="currentColor"
d="M189 -194q-14 0 -28.5 9t-24 23t-9.5 27q0 19 8 24.5t22 6.5q25 3 51 12.5t47.5 22.5t35 26.5t13.5 24.5q0 19 -26 19q-12 0 -35 -2t-46.5 -3.5t-36.5 -1.5q-27 0 -50.5 11.5t-41 33.5t-27 53t-9.5 72q0 50 15.5 110t44 122.5t67.5 120.5q5 8 6 11t1 6q0 4 -3.5 4.5
t-8.5 1.5q-34 4 -59.5 17t-39.5 34t-13 47q0 24 15.5 46t42.5 35.5t60 13.5q5 0 7.5 -1.5t2.5 -9.5q0 -4 -9 -12q-12 -14 -20.5 -33t-8.5 -42q-1 -28 11.5 -46.5t36.5 -18.5q7 0 11.5 1.5t9.5 7.5q41 51 70.5 79.5t46.5 28.5q12 0 22 -8t16.5 -22.5t6.5 -31.5
q0 -26 -20 -44.5t-61 -37.5q-37 -26 -73.5 -64t-65.5 -86t-47 -101t-18 -109q0 -39 22 -61t63 -22q11 0 30 1.5t38.5 3t29.5 1.5q14 0 28 -10t26 -25t19.5 -31.5t7.5 -30.5q0 -36 -13.5 -72t-36.5 -65.5t-50 -47.5t-53 -18z" />
  </g>

</svg>
