<?xml version="1.0" standalone="no"?>
<!DOCTYPE svg PUBLIC "-//W3C//DTD SVG 1.1//EN" "http://www.w3.org/Graphics/SVG/1.1/DTD/svg11.dtd" >
<svg xmlns="http://www.w3.org/2000/svg" xmlns:xlink="http://www.w3.org/1999/xlink" version="1.1" viewBox="-25 0 765 1000">
  <g transform="matrix(1 0 0 -1 0 800)">
   <path fill="currentColor"
d="M-15 30h94l289 733h26l266 -733h70v-30h-347v30h104l-63 174h-243l-69 -174h117v-30h-244v30zM306 516l-113 -283h220l-103 283h-4zM242 787l161 104q26 17 43 25t39 8q25 0 37.5 -14t12.5 -32q0 -17 -10 -33t-43 -23l-177 -35h-63z" />
  </g>

</svg>
