<?xml version="1.0" standalone="no"?>
<!DOCTYPE svg PUBLIC "-//W3C//DTD SVG 1.1//EN" "http://www.w3.org/Graphics/SVG/1.1/DTD/svg11.dtd" >
<svg xmlns="http://www.w3.org/2000/svg" xmlns:xlink="http://www.w3.org/1999/xlink" version="1.1" viewBox="-10 0 801 1000">
  <g transform="matrix(1 0 0 -1 0 800)">
   <path fill="currentColor"
d="M532 754h244v-30h-100v-737h-44l-454 654h-4v-611h110v-30h-264v30h110v694h-110v30h292l316 -445h4v415h-100v30zM499 -174q0 -47 -30 -79t-90 -61l-20 22q56 29 79 52t23 52q0 13 -5 17.5t-10 4.5t-8.5 -5t-9 -11t-14.5 -11t-23 -5q-29 0 -43.5 19.5t-14.5 42.5
q0 28 20.5 47.5t55.5 19.5q23 0 40 -9t28 -23.5t16.5 -33.5t5.5 -39z" />
  </g>

</svg>
