<?xml version="1.0" standalone="no"?>
<!DOCTYPE svg PUBLIC "-//W3C//DTD SVG 1.1//EN" "http://www.w3.org/Graphics/SVG/1.1/DTD/svg11.dtd" >
<svg xmlns="http://www.w3.org/2000/svg" xmlns:xlink="http://www.w3.org/1999/xlink" version="1.1" viewBox="-10 0 833 1000">
  <g transform="matrix(1 0 0 -1 0 800)">
   <path fill="currentColor"
d="M411 -13q-78 0 -146 32.5t-118 86.5t-78.5 124.5t-28.5 147.5t28.5 146.5t78.5 122.5t118 84.5t146 31.5t146 -31.5t118.5 -84.5t79 -122.5t28.5 -146.5t-28.5 -147.5t-79 -124.5t-118.5 -86.5t-146 -32.5zM410 22q51 0 85.5 15t56.5 55t31.5 108.5t9.5 175.5
q0 106 -9.5 174.5t-31.5 108t-56.5 54.5t-85.5 15q-50 0 -84.5 -15t-55.5 -54t-30.5 -107t-9.5 -174q0 -109 9.5 -178t31 -108.5t55.5 -54.5t84 -15zM253 787q0 61 42 99t125 38q42 0 73.5 -10.5t52 -29t30.5 -43.5t10 -54h-44q-2 23 -36 33.5t-88 10.5q-53 0 -86 -10
t-35 -34h-44z" />
  </g>

</svg>
