<?xml version="1.0" standalone="no"?>
<!DOCTYPE svg PUBLIC "-//W3C//DTD SVG 1.1//EN" "http://www.w3.org/Graphics/SVG/1.1/DTD/svg11.dtd" >
<svg xmlns="http://www.w3.org/2000/svg" xmlns:xlink="http://www.w3.org/1999/xlink" version="1.1" viewBox="-10 0 833 1000">
  <g transform="matrix(1 0 0 -1 0 800)">
   <path fill="currentColor"
d="M715 -236q-110 0 -186.5 12t-124.5 39.5t-69.5 73t-22.5 112.5q-60 18 -110 55t-86 87.5t-56 110.5t-20 124q0 77 28.5 146.5t78.5 122.5t118 84.5t146 31.5t146 -31.5t118.5 -84.5t79 -122.5t28.5 -146.5q0 -64 -20 -124t-56 -110t-86 -87t-109 -55q-1 -13 -1.5 -26
t-0.5 -24q0 -48 13.5 -77.5t39.5 -46.5t64 -23t88 -6v-35zM410 22q51 0 85.5 15t56.5 55t31.5 108.5t9.5 175.5q0 106 -9.5 174.5t-31.5 108t-56.5 54.5t-85.5 15q-50 0 -84.5 -15t-55.5 -54t-30.5 -107t-9.5 -174q0 -109 9.5 -178t31 -108.5t55.5 -54.5t84 -15z" />
  </g>

</svg>
