<?xml version="1.0" standalone="no"?>
<!DOCTYPE svg PUBLIC "-//W3C//DTD SVG 1.1//EN" "http://www.w3.org/Graphics/SVG/1.1/DTD/svg11.dtd" >
<svg xmlns="http://www.w3.org/2000/svg" xmlns:xlink="http://www.w3.org/1999/xlink" version="1.1" viewBox="-10 0 734 1000">
  <g transform="matrix(1 0 0 -1 0 800)">
   <path fill="currentColor"
d="M158 30h125v694h-50q-42 0 -74.5 -17.5t-55.5 -47t-35 -68.5t-13 -82h-40v245h694v-245h-40q-1 43 -13 82t-35 68.5t-55.5 47t-74.5 17.5h-50v-694h118v-30h-401v30zM281 -180q0 16 6.5 31t17.5 26t25.5 17.5t30.5 6.5q33 0 57 -24t24 -57q0 -16 -6.5 -30.5t-17.5 -25.5
t-26 -17.5t-31 -6.5t-30.5 6.5t-25.5 17.5t-17.5 25.5t-6.5 30.5z" />
  </g>

</svg>
