<?xml version="1.0" standalone="no"?>
<!DOCTYPE svg PUBLIC "-//W3C//DTD SVG 1.1//EN" "http://www.w3.org/Graphics/SVG/1.1/DTD/svg11.dtd" >
<svg xmlns="http://www.w3.org/2000/svg" xmlns:xlink="http://www.w3.org/1999/xlink" version="1.1" viewBox="-10 0 566 1000">
  <g transform="matrix(1 0 0 -1 0 800)">
   <path fill="currentColor"
d="M177 -12q-60 0 -97.5 31t-37.5 82q0 36 20 64.5t56.5 49t88 31t114.5 10.5v117q0 26 -19 41t-50 15q-26 0 -44.5 -10t-18.5 -26q0 -7 3.5 -12t7 -10.5t7 -13t3.5 -17.5q0 -26 -20.5 -46t-49.5 -20t-48 20t-19 49q0 25 15 47t42 38t64 25t81 9q40 0 74 -7.5t58.5 -21
t38 -32.5t13.5 -42v-291q0 -9 6 -16t17 -7q8 0 17.5 6.5t26.5 26.5l20 -23q-29 -35 -58.5 -51t-66.5 -16q-42 0 -65 18.5t-31 50.5h-4q-18 -26 -55.5 -47.5t-88.5 -21.5zM244 43q32 0 54.5 28t22.5 75v79q-65 0 -99.5 -26.5t-34.5 -80.5q0 -35 14.5 -55t42.5 -20zM278 560
q-21 0 -39.5 8t-32.5 22t-22 32.5t-8 39.5t8 39t22 32t32.5 22t39.5 8t39.5 -8t32.5 -21.5t22 -32t8 -39.5t-8 -39.5t-22 -32.5t-32.5 -22t-39.5 -8zM278 706q-18 0 -31.5 -13t-13.5 -31t13 -32t32 -14t32 13.5t13 32.5q0 18 -13.5 31t-31.5 13z" />
  </g>

</svg>
