<?xml version="1.0" standalone="no"?>
<!DOCTYPE svg PUBLIC "-//W3C//DTD SVG 1.1//EN" "http://www.w3.org/Graphics/SVG/1.1/DTD/svg11.dtd" >
<svg xmlns="http://www.w3.org/2000/svg" xmlns:xlink="http://www.w3.org/1999/xlink" version="1.1" viewBox="-10 0 551 1000">
  <g transform="matrix(1 0 0 -1 0 800)">
   <path fill="currentColor"
d="M254 -290q0 74 -3.5 153.5t-10.5 153t-18 135.5t-26 103q31 48 41 100t10 109q-29 -2 -51 -9t-40.5 -15t-36 -14t-37.5 -6q-29 0 -46 15t-17 46q0 32 19 47.5t47 15.5q19 0 36 -6t35.5 -14t40 -15.5t50.5 -10.5q-2 36 -9.5 63t-15 49.5t-13.5 42.5t-6 41q0 32 16 50.5
t50 18.5q35 0 51.5 -20t16.5 -51q0 -20 -6 -39.5t-13.5 -42t-14.5 -49.5t-10 -63q28 3 50 10.5t40.5 15.5t35.5 14t36 6q28 0 47 -15.5t19 -47.5q0 -31 -17 -46t-46 -15q-20 0 -37.5 6t-36 14t-40.5 15t-51 9q0 -57 10 -109t41 -100q-15 -41 -26 -103t-18 -135.5t-10.5 -153
t-3.5 -153.5h-32z" />
  </g>

</svg>
