<?xml version="1.0" standalone="no"?>
<!DOCTYPE svg PUBLIC "-//W3C//DTD SVG 1.1//EN" "http://www.w3.org/Graphics/SVG/1.1/DTD/svg11.dtd" >
<svg xmlns="http://www.w3.org/2000/svg" xmlns:xlink="http://www.w3.org/1999/xlink" version="1.1" viewBox="-10 0 624 1000">
  <g transform="matrix(1 0 0 -1 0 800)">
   <path fill="currentColor"
d="M20 450h219v-83h4q20 45 57 70t96 25q32 0 59 -8.5t46 -23t29.5 -34.5t10.5 -43v-323h63v-30h-269v30h68v338q0 25 -12 37.5t-33 12.5q-24 0 -46 -15t-38 -41.5t-25.5 -63t-9.5 -78.5v-190h65v-30h-284v30h81v390h-81v30zM280 554l121 164q19 26 36.5 34t34.5 8
q29 0 42.5 -14t13.5 -32q0 -14 -9.5 -29.5t-38.5 -35.5l-137 -95h-63z" />
  </g>

</svg>
