<?xml version="1.0" standalone="no"?>
<!DOCTYPE svg PUBLIC "-//W3C//DTD SVG 1.1//EN" "http://www.w3.org/Graphics/SVG/1.1/DTD/svg11.dtd" >
<svg xmlns="http://www.w3.org/2000/svg" xmlns:xlink="http://www.w3.org/1999/xlink" version="1.1" viewBox="-78 0 692 1000">
  <g transform="matrix(1 0 0 -1 0 800)">
   <path fill="currentColor"
d="M20 450h219v-83h4q20 45 57 70t96 25q32 0 59 -8.5t46 -23t29.5 -34.5t10.5 -43v-323h63v-30h-269v30h68v338q0 25 -12 37.5t-33 12.5q-24 0 -46 -15t-38 -41.5t-25.5 -63t-9.5 -78.5v-190h65v-30h-284v30h81v390h-81v30zM98 647q0 -56 -29.5 -95t-80.5 -73l-20 22
q45 32 65.5 62t20.5 65q0 15 -3 19.5t-6 4.5q-5 0 -8.5 -5t-9 -11t-14.5 -11t-23 -5q-29 0 -43.5 20.5t-14.5 46.5q0 32 22.5 54.5t56.5 22.5q21 0 37.5 -9.5t27.5 -25.5t16.5 -37.5t5.5 -44.5z" />
  </g>

</svg>
