<?xml version="1.0" standalone="no"?>
<!DOCTYPE svg PUBLIC "-//W3C//DTD SVG 1.1//EN" "http://www.w3.org/Graphics/SVG/1.1/DTD/svg11.dtd" >
<svg xmlns="http://www.w3.org/2000/svg" xmlns:xlink="http://www.w3.org/1999/xlink" version="1.1" viewBox="-10 0 923 1000">
  <g transform="matrix(1 0 0 -1 0 800)">
   <path fill="currentColor"
d="M509 96q0 48 35 73t91 35v4q-48 8 -79 32.5t-31 64.5q0 41 36.5 69.5t108.5 28.5q76 0 111.5 -30t35.5 -69t-30.5 -64t-78.5 -32v-4q55 -11 90 -35.5t35 -72.5q0 -44 -40 -74t-122 -30q-83 0 -122.5 30t-39.5 74zM616 100q0 -49 13 -70t42 -21t42 21t13 70q0 46 -12 70
t-43 24t-43 -23t-12 -71zM715 303q0 42 -9.5 60.5t-34.5 18.5q-24 0 -34 -18.5t-10 -60.5t10 -64.5t34 -22.5q25 0 34.5 22.5t9.5 64.5zM74 754h189v-377h83v-18h-272v18h89v359h-89v18zM683 753l-410 -753h-79l410 753h79z" />
  </g>

</svg>
