<?xml version="1.0" standalone="no"?>
<!DOCTYPE svg PUBLIC "-//W3C//DTD SVG 1.1//EN" "http://www.w3.org/Graphics/SVG/1.1/DTD/svg11.dtd" >
<svg xmlns="http://www.w3.org/2000/svg" xmlns:xlink="http://www.w3.org/1999/xlink" version="1.1" viewBox="-10 0 662 1000">
  <g transform="matrix(1 0 0 -1 0 800)">
   <path fill="currentColor"
d="M626 500l-43 -137h-68q-5 -51 -5.5 -96.5t-0.5 -100.5q0 -26 3.5 -43.5t9.5 -27.5t14 -14t18 -4q11 0 21 4.5t23 14.5l14 -32q-21 -30 -57.5 -54t-89.5 -24q-24 0 -44 7t-35 26.5t-23 54t-8 89.5q0 16 0.5 40t2 51t3.5 55t4 54h-127v-10q0 -91 -8.5 -153.5t-20 -102.5
t-23.5 -61.5t-19 -29.5q-23 -9 -43.5 -13.5t-37.5 -6.5l-9 26q28 40 48 86t32 93t17.5 91.5t5.5 80.5q-23 0 -41 -2t-33.5 -6.5t-31 -11.5t-33.5 -18l-19 36q27 35 48.5 57.5t45 35.5t53 18t73.5 5q16 0 52 -0.5t76.5 -1t79.5 -1t61 -0.5q18 0 30 1t21 4.5t15.5 10.5
t14.5 19z" />
  </g>

</svg>
