<?xml version="1.0" standalone="no"?>
<!DOCTYPE svg PUBLIC "-//W3C//DTD SVG 1.1//EN" "http://www.w3.org/Graphics/SVG/1.1/DTD/svg11.dtd" >
<svg xmlns="http://www.w3.org/2000/svg" xmlns:xlink="http://www.w3.org/1999/xlink" version="1.1" viewBox="-10 0 571 1000">
  <g transform="matrix(1 0 0 -1 0 800)">
   <path fill="currentColor"
d="M50 555q0 71 41 125t104 93l17 -21q-59 -45 -86 -86.5t-27 -89.5q0 -18 3 -24t8 -6q6 0 11.5 5.5t13.5 12.5t20 12.5t30 5.5q38 0 55.5 -24.5t17.5 -55.5q0 -39 -25 -65.5t-67 -26.5q-27 0 -48.5 11.5t-36.5 31t-23 46t-8 56.5zM303 555q0 71 41 125t104 93l17 -21
q-59 -45 -86 -86.5t-27 -89.5q0 -18 3 -24t8 -6q6 0 11.5 5.5t13.5 12.5t20 12.5t30 5.5q38 0 55.5 -24.5t17.5 -55.5q0 -39 -25 -65.5t-67 -26.5q-27 0 -48.5 11.5t-36.5 31t-23 46t-8 56.5z" />
  </g>

</svg>
