<?xml version="1.0" standalone="no"?>
<!DOCTYPE svg PUBLIC "-//W3C//DTD SVG 1.1//EN" "http://www.w3.org/Graphics/SVG/1.1/DTD/svg11.dtd" >
<svg xmlns="http://www.w3.org/2000/svg" xmlns:xlink="http://www.w3.org/1999/xlink" version="1.1" viewBox="-10 0 318 1000">
  <g transform="matrix(1 0 0 -1 0 800)">
   <path fill="currentColor"
d="M258 618q0 -71 -41 -125t-104 -93l-17 21q59 45 86 86.5t27 89.5q0 18 -3 24t-8 6q-6 0 -11.5 -5.5t-13.5 -12.5t-20 -12.5t-30 -5.5q-38 0 -55.5 24.5t-17.5 55.5q0 39 25 65.5t67 26.5q27 0 48.5 -11.5t36.5 -31t23 -46t8 -56.5z" />
  </g>

</svg>
