<?xml version="1.0" standalone="no"?>
<!DOCTYPE svg PUBLIC "-//W3C//DTD SVG 1.1//EN" "http://www.w3.org/Graphics/SVG/1.1/DTD/svg11.dtd" >
<svg xmlns="http://www.w3.org/2000/svg" xmlns:xlink="http://www.w3.org/1999/xlink" version="1.1" viewBox="-10 0 612 1000">
  <g transform="matrix(1 0 0 -1 0 800)">
   <path fill="currentColor"
d="M137 406h56q86 0 124 45t38 125q0 37 -7 60.5t-19.5 37t-31 18.5t-41.5 5q-15 0 -30 -2t-26.5 -5.5t-19 -9.5t-7.5 -15t8 -16t18 -15.5t18 -20t8 -29.5q0 -17 -7.5 -29.5t-19.5 -20.5t-26.5 -12t-28.5 -4q-34 0 -55.5 20.5t-21.5 55.5q0 25 12.5 50t39.5 44.5t68.5 31.5
t99.5 12q57 0 102 -12t76.5 -34t48.5 -52t17 -66q0 -62 -52.5 -106t-165.5 -61v-5q54 -3 100.5 -16.5t80 -37.5t53 -58.5t19.5 -79.5q0 -42 -21.5 -81t-62 -69t-98.5 -48t-130 -18q-107 0 -168 39t-61 105q0 39 22.5 68.5t64.5 29.5q13 0 27.5 -3.5t26.5 -12.5t20 -23.5
t8 -35.5q0 -25 -9.5 -39t-21.5 -23t-21.5 -15.5t-9.5 -16.5q0 -11 12 -18t29 -11.5t35.5 -6.5t32.5 -2q69 0 104 45t35 130q0 83 -39 128t-127 45h-76v35z" />
  </g>

</svg>
