<?xml version="1.0" standalone="no"?>
<!DOCTYPE svg PUBLIC "-//W3C//DTD SVG 1.1//EN" "http://www.w3.org/Graphics/SVG/1.1/DTD/svg11.dtd" >
<svg xmlns="http://www.w3.org/2000/svg" xmlns:xlink="http://www.w3.org/1999/xlink" version="1.1" viewBox="-10 0 623 1000">
  <g transform="matrix(1 0 0 -1 0 800)">
   <path fill="currentColor"
d="M524 30h79v-30h-217v79h-4q-18 -42 -62.5 -67t-97.5 -25q-62 0 -98 32.5t-36 78.5v322h-78v30h216v-339q0 -42 11.5 -58.5t35.5 -16.5t45 14t36 39t23.5 59t8.5 73v199h-82v30h220v-420zM288 554l-137 95q-29 20 -38.5 35.5t-9.5 29.5q0 18 13.5 32t42.5 14q17 0 34.5 -8
t36.5 -34l121 -164h-63z" />
  </g>

</svg>
