<?xml version="1.0" standalone="no"?>
<!DOCTYPE svg PUBLIC "-//W3C//DTD SVG 1.1//EN" "http://www.w3.org/Graphics/SVG/1.1/DTD/svg11.dtd" >
<svg xmlns="http://www.w3.org/2000/svg" xmlns:xlink="http://www.w3.org/1999/xlink" version="1.1" viewBox="-10 0 381 1000">
  <g transform="matrix(1 0 0 -1 0 800)">
   <path fill="currentColor"
d="M206 -13q-60 0 -87.5 21t-27.5 63v348h-81v31q28 2 54.5 16.5t49.5 38t41.5 53.5t32.5 64h41v-172h115v-31h-115v-331q0 -45 38 -45q20 0 35.5 12.5t34.5 43.5l24 -14q-27 -55 -63 -76.5t-92 -21.5zM286 -174q0 -47 -30 -79t-90 -61l-20 22q56 29 79 52t23 52
q0 13 -5 17.5t-10 4.5t-8.5 -5t-9 -11t-14.5 -11t-23 -5q-29 0 -43.5 19.5t-14.5 42.5q0 28 20.5 47.5t55.5 19.5q23 0 40 -9t28 -23.5t16.5 -33.5t5.5 -39z" />
  </g>

</svg>
