<?xml version="1.0" standalone="no"?>
<!DOCTYPE svg PUBLIC "-//W3C//DTD SVG 1.1//EN" "http://www.w3.org/Graphics/SVG/1.1/DTD/svg11.dtd" >
<svg xmlns="http://www.w3.org/2000/svg" xmlns:xlink="http://www.w3.org/1999/xlink" version="1.1" viewBox="-10 0 439 1000">
  <g transform="matrix(1 0 0 -1 0 800)">
   <path fill="currentColor"
d="M229 -12q-45 0 -84.5 14t-65.5 37l-15 -39h-29v163h33l6 -29q10 -48 47 -79t110 -31q93 0 93 58q0 12 -4.5 22t-17 18.5t-34 16t-55.5 13.5q-36 7 -66 17.5t-51.5 28.5t-34 44t-12.5 64q0 78 42.5 117t120.5 39q45 0 78 -12t46 -33l11 33h26v-145h-35l-3 15
q-11 55 -38 80.5t-85 25.5q-47 0 -70 -16.5t-23 -42.5q0 -11 4 -20.5t16 -18t34 -16.5t57 -15q34 -8 64 -18.5t52 -28t34.5 -43.5t12.5 -63q0 -78 -44.5 -117t-119.5 -39zM301 -174q0 -47 -30 -79t-90 -61l-20 22q56 29 79 52t23 52q0 13 -5 17.5t-10 4.5t-8.5 -5t-9 -11
t-14.5 -11t-23 -5q-29 0 -43.5 19.5t-14.5 42.5q0 28 20.5 47.5t55.5 19.5q23 0 40 -9t28 -23.5t16.5 -33.5t5.5 -39z" />
  </g>

</svg>
