<?xml version="1.0" standalone="no"?>
<!DOCTYPE svg PUBLIC "-//W3C//DTD SVG 1.1//EN" "http://www.w3.org/Graphics/SVG/1.1/DTD/svg11.dtd" >
<svg xmlns="http://www.w3.org/2000/svg" xmlns:xlink="http://www.w3.org/1999/xlink" version="1.1" viewBox="-10 0 737 1000">
  <g transform="matrix(1 0 0 -1 0 800)">
   <path fill="currentColor"
d="M44 360q0 81 24.5 149.5t67 118t101 77.5t126.5 28t126.5 -28t101.5 -77.5t67.5 -118t24.5 -149.5q0 -82 -24.5 -150t-67.5 -117.5t-101.5 -77t-126.5 -27.5t-126.5 27.5t-101 77t-67 117.5t-24.5 150zM224 360q0 -103 6.5 -168.5t22.5 -103t43 -51.5t67 -14q38 0 65 14
t43.5 51.5t24 103t7.5 168.5t-7.5 168.5t-24 103t-43.5 52t-65 14.5q-40 0 -67 -14.5t-43 -52t-22.5 -103t-6.5 -168.5z" />
  </g>

</svg>
