<?xml version="1.0" standalone="no"?>
<!DOCTYPE svg PUBLIC "-//W3C//DTD SVG 1.1//EN" "http://www.w3.org/Graphics/SVG/1.1/DTD/svg11.dtd" >
<svg xmlns="http://www.w3.org/2000/svg" xmlns:xlink="http://www.w3.org/1999/xlink" version="1.1" viewBox="-10 0 429 1000">
  <g transform="matrix(1 0 0 -1 0 800)">
   <path fill="currentColor"
d="M23 556q0 46 14.5 84t39.5 65t59 42t73 15t73.5 -15t59.5 -42t39.5 -65t14.5 -84t-14.5 -84t-39.5 -65t-59.5 -41.5t-73.5 -14.5t-73 14.5t-59 41.5t-39.5 65t-14.5 84zM131 556q0 -57 3.5 -92.5t12.5 -56t24 -28t38 -7.5q21 0 36 7.5t24 28t13.5 56t4.5 92.5
q0 56 -4.5 92t-13.5 56.5t-24 28.5t-36 8q-23 0 -38 -8t-24 -28.5t-12.5 -56.5t-3.5 -92z" />
  </g>

</svg>
