<?xml version="1.0" standalone="no"?>
<!DOCTYPE svg PUBLIC "-//W3C//DTD SVG 1.1//EN" "http://www.w3.org/Graphics/SVG/1.1/DTD/svg11.dtd" >
<svg xmlns="http://www.w3.org/2000/svg" xmlns:xlink="http://www.w3.org/1999/xlink" version="1.1" viewBox="-61 0 571 1000">
  <g transform="matrix(1 0 0 -1 0 800)">
   <path fill="currentColor"
d="M0 0zM-46 37l54 15l276 601h42l113 -603l58 -13l-3 -37h-211l3 37l73 15l-23 134h-211l-59 -132l74 -17l-4 -37h-187zM325 243l-45 251l-3 27h-3l-11 -27l-112 -251h174zM336 681zM212 756.5q-12 11.5 -12 29.5q0 15 9.5 29t24.5 21l168 -120l-22 -35l-130 54
q-26 10 -38 21.5z" />
  </g>

</svg>
