<?xml version="1.0" standalone="no"?>
<!DOCTYPE svg PUBLIC "-//W3C//DTD SVG 1.1//EN" "http://www.w3.org/Graphics/SVG/1.1/DTD/svg11.dtd" >
<svg xmlns="http://www.w3.org/2000/svg" xmlns:xlink="http://www.w3.org/1999/xlink" version="1.1" viewBox="-61 0 571 1000">
  <g transform="matrix(1 0 0 -1 0 800)">
   <path fill="currentColor"
d="M387 -40q-15 -23 -15 -47q0 -19 11.5 -29t29.5 -10q28 0 58 20l16 -24q-17 -18 -45.5 -32.5t-59.5 -14.5q-75 0 -75 63q0 33 20 62.5t55 51.5h-99l3 37l73 15l-23 134h-211l-59 -132l74 -17l-4 -37h-187l5 37l54 15l276 601h42l113 -603l58 -13l-3 -37h-69
q-23 -17 -38 -40zM151 243h174l-45 251l-3 27h-3l-11 -27z" />
  </g>

</svg>
