<?xml version="1.0" standalone="no"?>
<!DOCTYPE svg PUBLIC "-//W3C//DTD SVG 1.1//EN" "http://www.w3.org/Graphics/SVG/1.1/DTD/svg11.dtd" >
<svg xmlns="http://www.w3.org/2000/svg" xmlns:xlink="http://www.w3.org/1999/xlink" version="1.1" viewBox="-10 0 528 1000">
  <g transform="matrix(1 0 0 -1 0 800)">
   <path fill="currentColor"
d="M21 0zM96 51l77 546l-68 14l4 37h394l-21 -155h-51v109h-99l-80 -5l-34 -239h131l21 59h36l-21 -162h-36l-5 59h-132l-37 -263q38 -6 92 -6h102l38 107h42l-19 -152h-409l4 37zM426 703zM195 718.5q-14 15.5 -14 40.5t15.5 42.5t39.5 17.5q23 0 37 -14.5t14 -39.5
q0 -26 -15 -44t-40 -18q-23 0 -37 15.5zM406 718.5q-14 15.5 -14 40.5t15.5 42.5t39.5 17.5q23 0 37 -14.5t14 -39.5q0 -26 -15 -44t-40 -18q-23 0 -37 15.5z" />
  </g>

</svg>
