<?xml version="1.0" standalone="no"?>
<!DOCTYPE svg PUBLIC "-//W3C//DTD SVG 1.1//EN" "http://www.w3.org/Graphics/SVG/1.1/DTD/svg11.dtd" >
<svg xmlns="http://www.w3.org/2000/svg" xmlns:xlink="http://www.w3.org/1999/xlink" version="1.1" viewBox="-10 0 584 1000">
  <g transform="matrix(1 0 0 -1 0 800)">
   <path fill="currentColor"
d="M54 0zM109 53.5q-55 64.5 -55 187.5q0 110 38 206t110.5 154.5t170.5 58.5q43 0 88.5 -7t74.5 -15l-19 -147h-42l-6 90q-17 11 -48.5 19.5t-66.5 8.5q-59 0 -106.5 -36t-75.5 -114t-28 -197q0 -118 37 -170t110 -52q37 0 63.5 8.5t56.5 23.5l27 188l-106 18l5 43h178
l-43 -321h-33l-22 27h-8q-25 -16 -56.5 -27t-85.5 -11q-103 0 -158 64.5zM396 724l-66 23l-80 -37l-23 26l37 48q27 34 55 34q20 0 76 -20l66 -23l80 37l23 -26l-37 -48q-27 -34 -55 -34q-23 0 -76 20z" />
  </g>

</svg>
