<?xml version="1.0" standalone="no"?>
<!DOCTYPE svg PUBLIC "-//W3C//DTD SVG 1.1//EN" "http://www.w3.org/Graphics/SVG/1.1/DTD/svg11.dtd" >
<svg xmlns="http://www.w3.org/2000/svg" xmlns:xlink="http://www.w3.org/1999/xlink" version="1.1" viewBox="-10 0 415 1000">
  <g transform="matrix(1 0 0 -1 0 800)">
   <path fill="currentColor"
d="M21 0zM25 37l71 14l77 546l-68 14l4 37h218l-4 -37l-71 -14l-77 -546l68 -14l-3 -37h-219zM316 695zM152.5 709.5q-26.5 14.5 -40.5 35.5t-14 40q0 11 14 22t33 19q8 -26 31.5 -47t59.5 -21q38 0 76.5 22t61.5 49l21 -19q-25 -43 -74 -79t-105 -36q-37 0 -63.5 14.5z" />
  </g>

</svg>
