<?xml version="1.0" standalone="no"?>
<!DOCTYPE svg PUBLIC "-//W3C//DTD SVG 1.1//EN" "http://www.w3.org/Graphics/SVG/1.1/DTD/svg11.dtd" >
<svg xmlns="http://www.w3.org/2000/svg" xmlns:xlink="http://www.w3.org/1999/xlink" version="1.1" viewBox="-43 0 493 1000">
  <g transform="matrix(1 0 0 -1 0 800)">
   <path fill="currentColor"
d="M0 0zM26 -6.5q-39 7.5 -59 19.5l19 139h42l3 -106q10 -4 33.5 -6.5t45.5 -2.5q39 0 57.5 19.5t25.5 72.5l62 465l-87 17l4 37h237l-4 -37l-71 -14l-63 -466q-11 -81 -49 -113t-117 -32q-40 0 -79 7.5zM372 689zM193 695l-25 33l71 53q26 19 36 28q5 4 16.5 12t16 10.5
t7.5 2.5q8 -1 34.5 -23.5t30.5 -25.5l60 -55l-33 -41l-104 67z" />
  </g>

</svg>
