<?xml version="1.0" standalone="no"?>
<!DOCTYPE svg PUBLIC "-//W3C//DTD SVG 1.1//EN" "http://www.w3.org/Graphics/SVG/1.1/DTD/svg11.dtd" >
<svg xmlns="http://www.w3.org/2000/svg" xmlns:xlink="http://www.w3.org/1999/xlink" version="1.1" viewBox="-10 0 679 1000">
  <g transform="matrix(1 0 0 -1 0 800)">
   <path fill="currentColor"
d="M659 648l-4 -37l-73 -15l-43 -317q-15 -111 -49.5 -176.5t-100.5 -92.5q-26 -15 -46.5 -42t-20.5 -55q0 -19 11.5 -29t29.5 -10q28 0 58 20l16 -24q-17 -18 -45.5 -32.5t-59.5 -14.5q-75 0 -75 63q0 30 16.5 57.5t46.5 48.5q-24 -3 -51 -3q-93 0 -139.5 47t-46.5 130
q0 52 9 113l45 318l-67 14l4 37h219l-4 -37l-73 -14l-45 -319q-7 -53 -7 -96q0 -49 11.5 -78t41 -43.5t83.5 -14.5q83 0 122 57t55 175l44 318l-67 15l4 37h201z" />
  </g>

</svg>
