<?xml version="1.0" standalone="no"?>
<!DOCTYPE svg PUBLIC "-//W3C//DTD SVG 1.1//EN" "http://www.w3.org/Graphics/SVG/1.1/DTD/svg11.dtd" >
<svg xmlns="http://www.w3.org/2000/svg" xmlns:xlink="http://www.w3.org/1999/xlink" version="1.1" viewBox="-16 0 527 1000">
  <g transform="matrix(1 0 0 -1 0 800)">
   <path fill="currentColor"
d="M0 0zM-6 44l402 544l-6 12h-240l-41 -104h-44l22 152h388l26 -44l-404 -547l6 -12h258l41 104h44l-20 -149h-415zM289 699zM263 714q-14 15 -14 37q0 26 15.5 46t44.5 20q23 0 37.5 -15t14.5 -39q0 -26 -16 -45t-45 -19q-23 0 -37 15z" />
  </g>

</svg>
