<?xml version="1.0" standalone="no"?>
<!DOCTYPE svg PUBLIC "-//W3C//DTD SVG 1.1//EN" "http://www.w3.org/Graphics/SVG/1.1/DTD/svg11.dtd" >
<svg xmlns="http://www.w3.org/2000/svg" xmlns:xlink="http://www.w3.org/1999/xlink" version="1.1" viewBox="-10 0 450 1000">
  <g transform="matrix(1 0 0 -1 0 800)">
   <path fill="currentColor"
d="M37 0zM71.5 25q-34.5 34 -34.5 121q0 80 26.5 165.5t79 143.5t126.5 58q52 0 79 -30t27 -67q0 -77 -32.5 -118t-82 -58.5t-141.5 -35.5l-1 -14q0 -56 8.5 -85.5t29.5 -41.5t59 -12q23 0 52.5 13t53.5 33l19 -29q-25 -34 -69 -55.5t-87 -21.5q-78 0 -112.5 34zM239 285
q38 21 49 46t11 64q0 58 -62 58q-21 0 -37 -3.5t-20 -10.5q-21 -32 -35.5 -85.5t-21.5 -107.5q78 18 116 39zM378 594zM148 606.5q-12 12.5 -12 30.5q0 26 16.5 47.5t45.5 21.5q21 0 33.5 -12.5t12.5 -34.5q0 -24 -18 -44.5t-46 -20.5q-20 0 -32 12.5zM334.5 606.5
q-12.5 12.5 -12.5 30.5q0 26 17 47.5t46 21.5q20 0 32.5 -12.5t12.5 -34.5q0 -25 -17.5 -45t-45.5 -20q-20 0 -32.5 12.5z" />
  </g>

</svg>
