<?xml version="1.0" standalone="no"?>
<!DOCTYPE svg PUBLIC "-//W3C//DTD SVG 1.1//EN" "http://www.w3.org/Graphics/SVG/1.1/DTD/svg11.dtd" >
<svg xmlns="http://www.w3.org/2000/svg" xmlns:xlink="http://www.w3.org/1999/xlink" version="1.1" viewBox="-10 0 475 1000">
  <g transform="matrix(1 0 0 -1 0 800)">
   <path fill="currentColor"
d="M51.5 13.5q-44.5 23.5 -44.5 71.5q0 21 12 41.5t33 34.5h25l7 -92q11 -11 39.5 -20t68.5 -9q136 0 136 155q0 54 -20.5 89.5t-72 58t-144.5 33.5l52 272h252l16 38h44l-16 -114h-257l-24 -152q128 -16 192.5 -63t64.5 -128q0 -73 -29.5 -127t-83.5 -83t-126 -29
q-80 0 -124.5 23.5z" />
  </g>

</svg>
