<?xml version="1.0" standalone="no"?>
<!DOCTYPE svg PUBLIC "-//W3C//DTD SVG 1.1//EN" "http://www.w3.org/Graphics/SVG/1.1/DTD/svg11.dtd" >
<svg xmlns="http://www.w3.org/2000/svg" xmlns:xlink="http://www.w3.org/1999/xlink" version="1.1" viewBox="-59 0 454 1000">
  <g transform="matrix(1 0 0 -1 0 800)">
   <path fill="currentColor"
d="M-31.5 -150q-17.5 12 -17.5 30q0 28 26 51q7 0 19 -7q21 -15 53 -15q18 0 27 12t12 35l79 582q6 46 28.5 86.5t56.5 64.5t72 24q26 0 43.5 -11.5t17.5 -28.5q0 -18 -7.5 -30t-19.5 -23q-7 0 -19 7q-21 15 -53 15q-18 0 -26.5 -12t-11.5 -35l-79 -582q-6 -46 -29 -86
t-57 -64.5t-71 -24.5q-26 0 -43.5 12z" />
  </g>

</svg>
