<?xml version="1.0" standalone="no"?>
<!DOCTYPE svg PUBLIC "-//W3C//DTD SVG 1.1//EN" "http://www.w3.org/Graphics/SVG/1.1/DTD/svg11.dtd" >
<svg xmlns="http://www.w3.org/2000/svg" xmlns:xlink="http://www.w3.org/1999/xlink" version="1.1" viewBox="-10 0 282 1000">
  <g transform="matrix(1 0 0 -1 0 800)">
   <path fill="currentColor"
d="M142 606q-14 15 -14 37q0 26 15.5 46t44.5 20q23 0 37.5 -15t14.5 -39q0 -26 -16 -45t-45 -19q-23 0 -37 15zM219 -106l16 -24q-17 -18 -45.5 -32.5t-59.5 -14.5q-75 0 -75 63q0 32 18.5 60t50.5 50q-31 0 -44 12t-13 39q0 12 3 24l66 363l-79 17v37l151 19v-75l-62 -366
h73v-39q-12 -9 -27 -14q-27 -15 -49.5 -42.5t-22.5 -57.5q0 -19 11.5 -29t29.5 -10q28 0 58 20z" />
  </g>

</svg>
