<?xml version="1.0" standalone="no"?>
<!DOCTYPE svg PUBLIC "-//W3C//DTD SVG 1.1//EN" "http://www.w3.org/Graphics/SVG/1.1/DTD/svg11.dtd" >
<svg xmlns="http://www.w3.org/2000/svg" xmlns:xlink="http://www.w3.org/1999/xlink" version="1.1" viewBox="-10 0 356 1000">
  <g transform="matrix(1 0 0 -1 0 800)">
   <path fill="currentColor"
d="M27 0zM80.5 7.5q-13.5 11.5 -13.5 39.5q0 12 3 24l66 363l-79 17v37l151 19v-75l-62 -366h73v-39q-18 -12 -44 -21.5t-49 -9.5q-32 0 -45.5 11.5zM276 595zM184 611l-67 23l-71 -35l-19 19l35 45q15 19 27 28t26 9q15 0 37 -7.5t27 -8.5l67 -23l71 35l19 -19l-35 -42
q-17 -20 -28.5 -30t-25.5 -10q-21 0 -63 16z" />
  </g>

</svg>
