<?xml version="1.0" standalone="no"?>
<!DOCTYPE svg PUBLIC "-//W3C//DTD SVG 1.1//EN" "http://www.w3.org/Graphics/SVG/1.1/DTD/svg11.dtd" >
<svg xmlns="http://www.w3.org/2000/svg" xmlns:xlink="http://www.w3.org/1999/xlink" version="1.1" viewBox="-10 0 721 1000">
  <g transform="matrix(1 0 0 -1 0 800)">
   <path fill="currentColor"
d="M20 0zM24 347l94 13l35 240h-95l6 41l111 10h55l-43 -292l88 -14l-4 -34h-251zM58 -14l487 702l45 -29l-484 -703zM391 0zM427.5 10.5q-36.5 19.5 -36.5 58.5q0 30 24 55.5t67 44.5q-34 21 -46 39t-12 46q0 42 40.5 65.5t88.5 23.5q43 0 77.5 -16t34.5 -54q0 -57 -77 -89
q39 -26 52 -46.5t13 -50.5q0 -21 -15.5 -43t-48.5 -37.5t-83 -15.5q-42 0 -78.5 19.5zM587 229q10 13 10 33q0 19 -11 29.5t-38 10.5q-54 0 -54 -35q0 -15 12.5 -27t50.5 -37q20 13 30 26zM569 45.5q16 12.5 16 36.5q0 17 -18 33.5t-54 35.5q-48 -29 -48 -71q0 -47 57 -47
q31 0 47 12.5z" />
  </g>

</svg>
