<?xml version="1.0" standalone="no"?>
<!DOCTYPE svg PUBLIC "-//W3C//DTD SVG 1.1//EN" "http://www.w3.org/Graphics/SVG/1.1/DTD/svg11.dtd" >
<svg xmlns="http://www.w3.org/2000/svg" xmlns:xlink="http://www.w3.org/1999/xlink" version="1.1" viewBox="-10 0 693 1000">
  <g transform="matrix(1 0 0 -1 0 800)">
   <path fill="currentColor"
d="M20 0zM24 347l94 13l35 240h-95l6 41l111 10h55l-43 -292l88 -14l-4 -34h-251zM58 -14l487 702l45 -29l-484 -703zM377 0zM492 148q40 35 55 53.5t15 40.5q0 52 -63 52q-23 0 -41 -8.5t-40 -25.5l-22 21q16 22 49 43.5t86 21.5q47 0 77.5 -23t30.5 -68q0 -39 -22.5 -68.5
t-87.5 -76.5l-73 -53v-4h124l20 50h39l-15 -103h-245l-15 38z" />
  </g>

</svg>
