<?xml version="1.0" standalone="no"?>
<!DOCTYPE svg PUBLIC "-//W3C//DTD SVG 1.1//EN" "http://www.w3.org/Graphics/SVG/1.1/DTD/svg11.dtd" >
<svg xmlns="http://www.w3.org/2000/svg" xmlns:xlink="http://www.w3.org/1999/xlink" version="1.1" viewBox="-10 0 468 1000">
  <g transform="matrix(1 0 0 -1 0 800)">
   <path fill="currentColor"
d="M40 0zM418 344q0 -101 -28.5 -181t-82.5 -126t-129 -46q-12 0 -30 2l-30 -67l-50 24l28 64q-56 41 -56 144q0 101 29 181.5t84 127t130 46.5q18 0 33 -3l27 61l48 -22l-26 -60q53 -40 53 -145zM133 96l155 350q-17 7 -45 7q-18 0 -36.5 -5t-27.5 -13t-22.5 -44.5t-24 -88
t-10.5 -103.5q0 -71 11 -103zM303 109.5q13 37.5 23 89.5t10 105q0 65 -10 98l-152 -347q15 -5 42 -5q50 0 65 14q9 8 22 45.5zM313 559zM316 733q42 -14 42 -52q0 -24 -54 -57l-101 -65l-26 32z" />
  </g>

</svg>
