<?xml version="1.0" standalone="no"?>
<!DOCTYPE svg PUBLIC "-//W3C//DTD SVG 1.1//EN" "http://www.w3.org/Graphics/SVG/1.1/DTD/svg11.dtd" >
<svg xmlns="http://www.w3.org/2000/svg" xmlns:xlink="http://www.w3.org/1999/xlink" version="1.1" viewBox="-10 0 1234 1000">
  <g transform="matrix(1 0 0 -1 0 800)">
   <path fill="currentColor"
d="M95 51l77 546l-67 14l4 37h201q101 0 152.5 -41t51.5 -120q0 -105 -68.5 -162t-188.5 -57h-16v34q103 0 144.5 47t41.5 126q0 70 -30.5 98t-95.5 28q-27 0 -50 -5l-77 -545l81 -14l-3 -37h-232l4 37zM603 11q-17 15 -17 50q0 10 5 45l58 344h-85l8 57h88l19 102l71 11
l-19 -113h122l-8 -57h-123l-58 -384h132v-39q-28 -12 -65.5 -21.5t-67.5 -9.5q-43 0 -60 15zM878 13q-35 22 -35 69q0 18 17 47t28 29h25l8 -98q11 -7 32.5 -12t42.5 -5q53 0 76.5 19.5t23.5 63.5q0 21 -13.5 39t-30.5 31t-56 40q-49 35 -76 67t-27 78q0 34 24.5 64.5
t64.5 49t84 18.5q62 0 97.5 -23t35.5 -64q0 -23 -13 -43t-32 -28h-25l-8 92q-11 5 -27.5 8t-31.5 3q-52 0 -75.5 -13.5t-23.5 -44.5q0 -20 12.5 -38t29 -30.5t54.5 -38.5q52 -36 80.5 -70t28.5 -82q0 -39 -25 -73.5t-67 -55.5t-90 -21q-73 0 -108 22z" />
  </g>

</svg>
