<?xml version="1.0" standalone="no"?>
<!DOCTYPE svg PUBLIC "-//W3C//DTD SVG 1.1//EN" "http://www.w3.org/Graphics/SVG/1.1/DTD/svg11.dtd" >
<svg xmlns="http://www.w3.org/2000/svg" xmlns:xlink="http://www.w3.org/1999/xlink" version="1.1" viewBox="-10 0 360 1000">
  <g transform="matrix(1 0 0 -1 0 800)">
   <path fill="currentColor"
d="M88 -5l-1 3q-7 -4 -16 -4q-18 0 -31.5 12t-13.5 31q0 27 19.5 49.5t44.5 22.5q28 0 42 -16t14 -45q0 -38 -32.5 -86.5t-76.5 -75.5l-20 18zM236 -5l-1 3q-7 -4 -16 -4q-18 0 -31.5 12t-13.5 31q0 27 19.5 49.5t44.5 22.5q28 0 42 -16t14 -45q0 -38 -32.5 -86.5
t-76.5 -75.5l-20 18z" />
  </g>

</svg>
