<?xml version="1.0" standalone="no"?>
<!DOCTYPE svg PUBLIC "-//W3C//DTD SVG 1.1//EN" "http://www.w3.org/Graphics/SVG/1.1/DTD/svg11.dtd" >
<svg xmlns="http://www.w3.org/2000/svg" xmlns:xlink="http://www.w3.org/1999/xlink" version="1.1" viewBox="-10 0 414 1000">
  <g transform="matrix(1 0 0 -1 0 800)">
   <path fill="currentColor"
d="M57 0zM57 451v37l151 19v-50q0 -9 -3 -23.5t-7 -21.5h4q15 36 50.5 68.5t74.5 32.5q36 0 36 -42q0 -28 -15 -46h-42q-73 0 -109 -50l-57 -375h-81l77 434zM337 544zM230.5 550q-6.5 6 -13 13.5t-11.5 13.5l-81 97l34 34l93 -87l116 87l26 -32l-96 -91q-44 -41 -56 -41
q-5 0 -11.5 6z" />
  </g>

</svg>
