<?xml version="1.0" standalone="no"?>
<!DOCTYPE svg PUBLIC "-//W3C//DTD SVG 1.1//EN" "http://www.w3.org/Graphics/SVG/1.1/DTD/svg11.dtd" >
<svg xmlns="http://www.w3.org/2000/svg" xmlns:xlink="http://www.w3.org/1999/xlink" version="1.1" viewBox="-10 0 345 1000">
  <g transform="matrix(1 0 0 -1 0 800)">
   <path fill="currentColor"
d="M90.5 333.5q-36.5 28.5 -36.5 93.5q0 66 37 116t98 78t133 31l3 -35q-70 -7 -117.5 -40t-67.5 -82q8 8 27.5 18t49.5 10q48 0 77.5 -24t29.5 -71q0 -35 -20 -63t-52 -44t-65 -16q-60 0 -96.5 28.5zM251 415q0 35 -12.5 49t-46.5 14t-59 -21q-4 -12 -4 -40q0 -70 59 -70
q63 0 63 68z" />
  </g>

</svg>
