<?xml version="1.0" standalone="no"?>
<!DOCTYPE svg PUBLIC "-//W3C//DTD SVG 1.1//EN" "http://www.w3.org/Graphics/SVG/1.1/DTD/svg11.dtd" >
<svg xmlns="http://www.w3.org/2000/svg" xmlns:xlink="http://www.w3.org/1999/xlink" version="1.1" viewBox="-10 0 528 1000">
  <g transform="matrix(1 0 0 -1 0 800)">
   <path fill="currentColor"
d="M21 0zM96 51l77 546l-68 14l4 37h394l-21 -155h-51v109h-99l-80 -5l-34 -239h131l21 59h36l-21 -162h-36l-5 59h-132l-37 -263q38 -6 92 -6h102l38 107h42l-19 -152h-409l4 37zM441.5 814.5q26.5 -14.5 40.5 -35.5t14 -40q0 -11 -14 -22t-33 -19q-8 26 -31.5 47t-59.5 21
q-38 0 -76.5 -22t-61.5 -49l-21 19q25 43 74 79t105 36q37 0 63.5 -14.5z" />
  </g>

</svg>
