<?xml version="1.0" standalone="no"?>
<!DOCTYPE svg PUBLIC "-//W3C//DTD SVG 1.1//EN" "http://www.w3.org/Graphics/SVG/1.1/DTD/svg11.dtd" >
<svg xmlns="http://www.w3.org/2000/svg" xmlns:xlink="http://www.w3.org/1999/xlink" version="1.1" viewBox="-10 0 933 1000">
  <g transform="matrix(1 0 0 -1 0 800)">
   <path fill="currentColor"
d="M36 0zM65.5 33q-29.5 42 -29.5 117q0 69 28 155t80 147t121 61q30 0 58 -7.5t47 -17.5l25 139l-79 16v37l148 19v-72l-90 -561h73v-39q-18 -12 -44.5 -21.5t-49.5 -9.5q-30 0 -44.5 10t-14.5 35q0 14 4 27t15 35l-3 2q-28 -51 -68.5 -82.5t-86.5 -31.5q-60 0 -89.5 42z
M246.5 79q33.5 29 61.5 69l48 263q-61 42 -131 42q-13 0 -22 -4.5t-13 -10.5q-30 -45 -51 -118t-21 -149q0 -56 14 -88.5t48 -32.5q33 0 66.5 29zM735.5 -5.5q-20.5 3.5 -41.5 7.5l-21 4l-118 22l-50 -35l-28 25l294 387l-1 7l-148 50l-27 -95h-33q-8 12 -15 33t-7 44
q0 36 21.5 52.5t57.5 16.5q23 0 46.5 -4t59.5 -13l106 -25l56 40l26 -20l-299 -396v-10l163 -43l27 95h33q8 -12 15 -33t7 -44q0 -36 -23.5 -52.5t-60.5 -16.5q-19 0 -39.5 3.5z" />
  </g>

</svg>
