<?xml version="1.0" standalone="no"?>
<!DOCTYPE svg PUBLIC "-//W3C//DTD SVG 1.1//EN" "http://www.w3.org/Graphics/SVG/1.1/DTD/svg11.dtd" >
<svg xmlns="http://www.w3.org/2000/svg" xmlns:xlink="http://www.w3.org/1999/xlink" version="1.1" viewBox="-10 0 538 1000">
  <g transform="matrix(1 0 0 -1 0 800)">
   <path fill="currentColor"
d="M37 0zM97 37l71 14l77 546h-126l-37 -113h-45l19 164h462l-28 -164h-52l7 113h-121l-77 -546l68 -14l-3 -37h-219zM285 0zM93 -158l20 29q25 -19 60 -19q22 0 34.5 7t12.5 22q0 11 -18 20l-60 30v20l36 49h41l-13 -26l31 -16q26 -13 37 -27t11 -35q0 -46 -30.5 -64.5
t-68.5 -18.5q-55 0 -93 29z" />
  </g>

</svg>
