<?xml version="1.0" standalone="no"?>
<!DOCTYPE svg PUBLIC "-//W3C//DTD SVG 1.1//EN" "http://www.w3.org/Graphics/SVG/1.1/DTD/svg11.dtd" >
<svg xmlns="http://www.w3.org/2000/svg" xmlns:xlink="http://www.w3.org/1999/xlink" version="1.1" viewBox="-10 0 409 1000">
  <g transform="matrix(1 0 0 -1 0 800)">
   <path fill="currentColor"
d="M57 0zM57 451v37l151 19v-50q0 -9 -3 -23.5t-7 -21.5h4q15 36 50.5 68.5t74.5 32.5q36 0 36 -42q0 -28 -15 -46h-42q-73 0 -109 -50l-57 -375h-81l77 434zM335 698.5q27 -16.5 40.5 -40.5t13.5 -46q0 -12 -8 -22q-9 -10 -24.5 -15.5t-30.5 -5.5q-3 38 -18 62t-58 24
q-37 0 -70 -27t-51 -60l-21 18q13 49 55.5 89t104.5 40q40 0 67 -16.5z" />
  </g>

</svg>
