<?xml version="1.0" standalone="no"?>
<!DOCTYPE svg PUBLIC "-//W3C//DTD SVG 1.1//EN" "http://www.w3.org/Graphics/SVG/1.1/DTD/svg11.dtd" >
<svg xmlns="http://www.w3.org/2000/svg" xmlns:xlink="http://www.w3.org/1999/xlink" version="1.1" viewBox="-10 0 468 1000">
  <g transform="matrix(1 0 0 -1 0 800)">
   <path fill="currentColor"
d="M40 0zM75 34q-35 43 -35 124q0 101 29 181.5t84 127t130 46.5q135 0 135 -169q0 -101 -28.5 -181t-82.5 -126t-129 -46q-68 0 -103 43zM281 64q9 8 22 45.5t23 89.5t10 105q0 60 -7.5 91t-27.5 44.5t-58 13.5q-18 0 -36.5 -5t-27.5 -13t-22.5 -44.5t-24 -88t-10.5 -103.5
q0 -62 8 -93t27.5 -43.5t58.5 -12.5q50 0 65 14zM382 698.5q27 -16.5 40.5 -40.5t13.5 -46q0 -12 -8 -22q-9 -10 -24.5 -15.5t-30.5 -5.5q-3 38 -18 62t-58 24q-37 0 -70 -27t-51 -60l-21 18q13 49 55.5 89t104.5 40q40 0 67 -16.5z" />
  </g>

</svg>
