<?xml version="1.0" standalone="no"?>
<!DOCTYPE svg PUBLIC "-//W3C//DTD SVG 1.1//EN" "http://www.w3.org/Graphics/SVG/1.1/DTD/svg11.dtd" >
<svg xmlns="http://www.w3.org/2000/svg" xmlns:xlink="http://www.w3.org/1999/xlink" version="1.1" viewBox="-300 0 403 1000">
  <g transform="matrix(1 0 0 -1 0 800)">
   <path fill="currentColor"
d="M0 689zM18 809zM59 964q15 -7 24.5 -21t9.5 -29q0 -18 -12 -29.5t-38 -21.5l-130 -54l-22 35zM-86 689zM-265 695l-25 33l71 53q26 19 36 28q5 4 16.5 12t16 10.5t7.5 2.5q8 -1 34.5 -23.5t30.5 -25.5l60 -55l-33 -41l-104 67z" />
  </g>

</svg>
