<?xml version="1.0" standalone="no"?>
<!DOCTYPE svg PUBLIC "-//W3C//DTD SVG 1.1//EN" "http://www.w3.org/Graphics/SVG/1.1/DTD/svg11.dtd" >
<svg xmlns="http://www.w3.org/2000/svg" xmlns:xlink="http://www.w3.org/1999/xlink" version="1.1" viewBox="-61 0 571 1000">
  <g transform="matrix(1 0 0 -1 0 800)">
   <path fill="currentColor"
d="M0 0zM-46 37l54 15l276 601h42l113 -603l58 -13l-3 -37h-211l3 37l73 15l-23 134h-211l-59 -132l74 -17l-4 -37h-187zM325 243l-45 251l-3 27h-3l-11 -27l-112 -251h174zM416.5 814.5q26.5 -14.5 40.5 -35.5t14 -40q0 -11 -14 -22t-33 -19q-8 26 -31.5 47t-59.5 21
q-38 0 -76.5 -22t-61.5 -49l-21 19q25 43 74 79t105 36q37 0 63.5 -14.5z" />
  </g>

</svg>
