<?xml version="1.0" standalone="no"?>
<!DOCTYPE svg PUBLIC "-//W3C//DTD SVG 1.1//EN" "http://www.w3.org/Graphics/SVG/1.1/DTD/svg11.dtd" >
<svg xmlns="http://www.w3.org/2000/svg" xmlns:xlink="http://www.w3.org/1999/xlink" version="1.1" viewBox="-107 0 652 1000">
  <g transform="matrix(1 0 0 -1 0 800)">
   <path fill="currentColor"
d="M-87.5 -159q-9.5 8 -9.5 28q0 22 6.5 31l6.5 9h69q20 0 36.5 3.5t21.5 8.5q9 9 20 29t16 54l69 430l-79 17v37l151 19v-68q32 25 77 49.5t85 24.5q48 0 69.5 -25t21.5 -66q0 -22 -4 -48t-5 -31l-47 -277h75v-39q-18 -12 -44 -21.5t-49 -9.5q-32 0 -46 12t-14 39q0 6 2 22
l51 284q5 25 5 46q0 24 -10.5 35t-39.5 11q-58 0 -134 -49l-54 -359q-15 -100 -75.5 -152t-141.5 -52q-20 0 -29.5 8z" />
  </g>

</svg>
