<?xml version="1.0" standalone="no"?>
<!DOCTYPE svg PUBLIC "-//W3C//DTD SVG 1.1//EN" "http://www.w3.org/Graphics/SVG/1.1/DTD/svg11.dtd" >
<svg xmlns="http://www.w3.org/2000/svg" xmlns:xlink="http://www.w3.org/1999/xlink" version="1.1" viewBox="-251 0 357 1000">
  <g transform="matrix(1 0 0 -1 0 800)">
   <path fill="currentColor"
d="M0 695zM20 847zM-72 867l-66 23l-80 -37l-23 26l37 48q27 34 55 34q20 0 76 -20l66 -23l80 37l23 -26l-37 -48q-27 -34 -55 -34q-23 0 -76 20zM-14 695zM-177.5 709.5q-26.5 14.5 -40.5 35.5t-14 40q0 11 14 22t33 19q8 -26 31.5 -47t59.5 -21q38 0 76.5 22t61.5 49
l21 -19q-25 -43 -74 -79t-105 -36q-37 0 -63.5 14.5z" />
  </g>

</svg>
