<?xml version="1.0" standalone="no"?>
<!DOCTYPE svg PUBLIC "-//W3C//DTD SVG 1.1//EN" "http://www.w3.org/Graphics/SVG/1.1/DTD/svg11.dtd" >
<svg xmlns="http://www.w3.org/2000/svg" xmlns:xlink="http://www.w3.org/1999/xlink" version="1.1" viewBox="-10 0 533 1000">
  <g transform="matrix(1 0 0 -1 0 800)">
   <path fill="currentColor"
d="M49 0zM89.5 13q-19.5 19 -19.5 64q0 39 7 72l51 285l-79 17v37l151 19v-69l-44 -282q-1 -4 -3 -17.5t-2 -32.5q0 -22 8.5 -33t30.5 -11q33 0 71 26t69 56l62 357l78 12l-77 -447h75v-39q-18 -12 -44.5 -21.5t-49.5 -9.5q-31 0 -45 11.5t-14 38.5q0 24 24 57l-3 2
q-32 -40 -80.5 -75.5t-109.5 -35.5q-37 0 -56.5 19zM408 698.5q27 -16.5 40.5 -40.5t13.5 -46q0 -12 -8 -22q-9 -10 -24.5 -15.5t-30.5 -5.5q-3 38 -18 62t-58 24q-37 0 -70 -27t-51 -60l-21 18q13 49 55.5 89t104.5 40q40 0 67 -16.5z" />
  </g>

</svg>
