<?xml version="1.0" standalone="no"?>
<!DOCTYPE svg PUBLIC "-//W3C//DTD SVG 1.1//EN" "http://www.w3.org/Graphics/SVG/1.1/DTD/svg11.dtd" >
<svg xmlns="http://www.w3.org/2000/svg" xmlns:xlink="http://www.w3.org/1999/xlink" version="1.1" viewBox="-10 0 601 1000">
  <g transform="matrix(1 0 0 -1 0 800)">
   <path fill="currentColor"
d="M21 0zM96 51l77 546l-68 14l4 37h218l-4 -37l-71 -14l-34 -240h38l196 231v9l-54 14l5 37h178l-4 -37l-54 -14l-206 -241l154 -304l58 -15l-3 -37h-83q-21 0 -31.5 6t-19.5 23l-139 281h-41l-37 -259l68 -14l-3 -37h-219l4 37zM307 -49zM227.5 -157q8.5 18 8.5 39
q0 28 -19 47q22 22 48 22q22 0 32 -12.5t10 -30.5q0 -24 -17.5 -51.5t-43.5 -43.5h-36q9 12 17.5 30z" />
  </g>

</svg>
