<?xml version="1.0" standalone="no"?>
<!DOCTYPE svg PUBLIC "-//W3C//DTD SVG 1.1//EN" "http://www.w3.org/Graphics/SVG/1.1/DTD/svg11.dtd" >
<svg xmlns="http://www.w3.org/2000/svg" xmlns:xlink="http://www.w3.org/1999/xlink" version="1.1" viewBox="-10 0 724 1000">
  <g transform="matrix(1 0 0 -1 0 800)">
   <path fill="currentColor"
d="M21 0zM25 37l71 14l77 546l-68 14l4 37h218l-4 -37l-71 -14l-77 -546l42 -5h124l37 106h45l-23 -152h-379zM442 0zM354.5 -159q-9.5 8 -9.5 28q0 22 6.5 31l6.5 9h69q20 0 36.5 3.5t21.5 8.5q9 9 20 29t16 54l68 436l-79 17v37l151 19v-72l-60 -404q-15 -100 -75.5 -152
t-141.5 -52q-20 0 -29.5 8zM629 591zM588 606q-14 15 -14 37q0 26 15.5 46t44.5 20q23 0 37.5 -15t14.5 -39q0 -26 -16 -45t-45 -19q-23 0 -37 15z" />
  </g>

</svg>
