<?xml version="1.0" standalone="no"?>
<!DOCTYPE svg PUBLIC "-//W3C//DTD SVG 1.1//EN" "http://www.w3.org/Graphics/SVG/1.1/DTD/svg11.dtd" >
<svg xmlns="http://www.w3.org/2000/svg" xmlns:xlink="http://www.w3.org/1999/xlink" version="1.1" viewBox="-10 0 1089 1000">
  <g transform="matrix(1 0 0 -1 0 800)">
   <path fill="currentColor"
d="M21 0zM25 37l71 14l77 546l-68 14l4 37h139l209 -506l10 -31h4l2 30l65 456l-68 14l3 37h192l-4 -37l-71 -14l-84 -597h-73l-205 498l-8 31h-4l-67 -478l68 -14l-3 -37h-193zM686 -6.5q-39 7.5 -59 19.5l19 139h42l3 -106q10 -4 33.5 -6.5t45.5 -2.5q39 0 57.5 19.5
t25.5 72.5l62 465l-87 17l4 37h237l-4 -37l-71 -14l-63 -466q-11 -81 -49 -113t-117 -32q-40 0 -79 7.5z" />
  </g>

</svg>
