<?xml version="1.0" standalone="no"?>
<!DOCTYPE svg PUBLIC "-//W3C//DTD SVG 1.1//EN" "http://www.w3.org/Graphics/SVG/1.1/DTD/svg11.dtd" >
<svg xmlns="http://www.w3.org/2000/svg" xmlns:xlink="http://www.w3.org/1999/xlink" version="1.1" viewBox="-10 0 570 1000">
  <g transform="matrix(1 0 0 -1 0 800)">
   <path fill="currentColor"
d="M40 0zM40 150q0 59 24.5 145.5t75.5 152t125 65.5q32 0 63.5 -10.5t50.5 -20.5l25 35h38l-71 -451h73v-39q-19 -12 -46 -21.5t-50 -9.5q-33 0 -44.5 13t-11.5 37q0 21 18 58l-3 2q-26 -47 -66.5 -81t-82.5 -34q-118 0 -118 159zM247 81.5q34 31.5 62 72.5l44 256
q-64 43 -126 43q-24 0 -33 -12q-31 -44 -51 -117.5t-20 -152.5q0 -63 12 -92t47 -29q31 0 65 31.5zM477 542zM397 686q0 15 10 25t34 20q23 11 31.5 19t8.5 20t-10.5 17.5t-34.5 5.5q-30 0 -65 -8q-5 11 -5 23q0 22 14 30.5t51 8.5q57 0 88 -18.5t31 -53.5q0 -26 -17 -43
t-51 -31q-21 -9 -26.5 -15.5t-5.5 -21.5l-48 -5q-5 18 -5 27zM388 542zM194 545l-29 28l103 97q4 4 23 22t28 18q7 0 15.5 -9.5t29.5 -35.5l70 -88l-30 -35l-99 79z" />
  </g>

</svg>
