<?xml version="1.0" standalone="no"?>
<!DOCTYPE svg PUBLIC "-//W3C//DTD SVG 1.1//EN" "http://www.w3.org/Graphics/SVG/1.1/DTD/svg11.dtd" >
<svg xmlns="http://www.w3.org/2000/svg" xmlns:xlink="http://www.w3.org/1999/xlink" version="1.1" viewBox="-10 0 534 1000">
  <g transform="matrix(1 0 0 -1 0 800)">
   <path fill="currentColor"
d="M203 258l-11 -83h134l-7 -53h-135l-10 -71l81 -14l-3 -37h-232l4 37l71 14l10 71h-69l7 53h69l60 422l-67 14l4 37h201q101 0 152.5 -41.5t51.5 -123.5q0 -108 -68.5 -166.5t-188.5 -58.5h-54zM251 596l-40 -284h30q109 0 147.5 44t38.5 123q0 68 -30.5 95t-95.5 27
q-27 0 -50 -5z" />
  </g>

</svg>
