<?xml version="1.0" standalone="no"?>
<!DOCTYPE svg PUBLIC "-//W3C//DTD SVG 1.1//EN" "http://www.w3.org/Graphics/SVG/1.1/DTD/svg11.dtd" >
<svg xmlns="http://www.w3.org/2000/svg" xmlns:xlink="http://www.w3.org/1999/xlink" version="1.1" viewBox="-10 0 575 1000">
  <g transform="matrix(1 0 0 -1 0 800)">
   <path fill="currentColor"
d="M241.5 564q-47.5 -35 -75.5 -110.5t-28 -191.5q0 -113 37 -162.5t110 -49.5q37 0 63.5 8.5t56.5 23.5l27 188l-106 18l5 43h178l-43 -321h-33l-22 27h-8q-22 -15 -52 -26t-81 -12l-30 -119l-47 8l13 116q-77 16 -117.5 76t-40.5 161q0 102 34 192t100 148.5t156 67.5
l32 126l47 -8l-12 -118q66 -5 125 -21l-19 -147h-42l-6 90q-17 11 -48.5 19.5t-66.5 8.5q-59 0 -106.5 -35z" />
  </g>

</svg>
