<?xml version="1.0" standalone="no"?>
<!DOCTYPE svg PUBLIC "-//W3C//DTD SVG 1.1//EN" "http://www.w3.org/Graphics/SVG/1.1/DTD/svg11.dtd" >
<svg xmlns="http://www.w3.org/2000/svg" xmlns:xlink="http://www.w3.org/1999/xlink" version="1.1" viewBox="-72 0 508 1000">
  <g transform="matrix(1 0 0 -1 0 800)">
   <path fill="currentColor"
d="M0 0zM-23 -165q-19 5 -39 21l2 41h100l65 94v114l-30 330l-75 19v37l151 16l24 -369v-62h6q70 98 112 180.5t61 173.5l-72 49l19 36q49 0 87 -14.5t38 -40.5q0 -39 -29.5 -113.5t-87.5 -169t-141 -189.5l-53 -91q-21 -37 -41.5 -52t-54.5 -15q-23 0 -42 5zM362 594z
M132 606.5q-12 12.5 -12 30.5q0 26 16.5 47.5t45.5 21.5q21 0 33.5 -12.5t12.5 -34.5q0 -24 -18 -44.5t-46 -20.5q-20 0 -32 12.5zM318.5 606.5q-12.5 12.5 -12.5 30.5q0 26 17 47.5t46 21.5q20 0 32.5 -12.5t12.5 -34.5q0 -25 -17.5 -45t-45.5 -20q-20 0 -32.5 12.5z" />
  </g>

</svg>
