<?xml version="1.0" standalone="no"?>
<!DOCTYPE svg PUBLIC "-//W3C//DTD SVG 1.1//EN" "http://www.w3.org/Graphics/SVG/1.1/DTD/svg11.dtd" >
<svg xmlns="http://www.w3.org/2000/svg" xmlns:xlink="http://www.w3.org/1999/xlink" version="1.1" viewBox="-10 0 532 1000">
  <g transform="matrix(1 0 0 -1 0 800)">
   <path fill="currentColor"
d="M41 0zM85.5 47q-44.5 57 -44.5 162q0 95 24.5 197.5t88.5 178.5t174 76q88 0 132.5 -55.5t44.5 -160.5q0 -83 -22 -186.5t-85.5 -186t-178.5 -82.5q-89 0 -133.5 57zM325 72q34 32 52 92.5t31 162.5q9 69 9 121q0 58 -8.5 92t-31 51.5t-65.5 17.5q-57 0 -91 -31
t-52 -90.5t-31 -160.5q-9 -72 -9 -125q0 -84 22 -123t81 -39t93 32z" />
  </g>

</svg>
