<?xml version="1.0" standalone="no"?>
<!DOCTYPE svg PUBLIC "-//W3C//DTD SVG 1.1//EN" "http://www.w3.org/Graphics/SVG/1.1/DTD/svg11.dtd" >
<svg xmlns="http://www.w3.org/2000/svg" xmlns:xlink="http://www.w3.org/1999/xlink" version="1.1" viewBox="-73 0 972 1000">
  <g transform="matrix(1 0 0 -1 0 800)">
   <path fill="currentColor"
d="M-38 -5q-12 0 -18.5 2.5t-5.5 8.5q2 7 11.5 12t26.5 10q26 8 61 35t65 63l393 467q6 7 3 12.5t-17 7.5l-76 13q-13 3 -13 11q0 5 6.5 9.5t14.5 4.5q20 0 47 -1t58.5 -1.5t62.5 -0.5q35 0 75.5 1t78.5 1q43 0 69 3t42 5.5t28 2.5q5 0 10 -2.5t4 -10.5q-2 -25 -9 -57
t-13 -53q-3 -11 -8 -14.5t-10 -3.5t-6 2.5t-1 7.5q0 17 -1.5 35.5t-6.5 27.5q-7 14 -21.5 19.5t-31.5 5.5h-122q-11 0 -18.5 -8.5t-12.5 -17.5q-14 -29 -30 -72.5t-29 -86t-21 -69.5q-6 -22 -4.5 -31.5t9.5 -9.5h55.5t39.5 3q15 2 25.5 7t17.5 12q8 8 13 17t9 19
q4 8 10.5 12.5t12.5 4.5q4 0 7 -4.5t0 -11.5q-17 -38 -24 -73.5t-17 -73.5q-2 -7 -5.5 -12t-8.5 -5q-9 0 -11.5 9t-2.5 14q0 23 -10.5 35t-21.5 12q-28 1 -49 1.5t-47 0.5q-10 0 -18 -8t-15 -31q-11 -36 -19 -65.5t-20 -72.5q-9 -31 -2.5 -54.5t37.5 -23.5h97q29 0 49.5 7
t36.5 20q14 12 25.5 27.5t22.5 34.5q4 6 9 10.5t10 4.5q6 0 8 -5.5t0 -10.5q-8 -24 -16 -43.5t-16 -35.5t-17 -32q-3 -6 -7.5 -11.5t-11.5 -5.5q-39 0 -79 1t-79 2t-74.5 2t-66.5 1q-21 0 -36 -1.5t-31.5 -3t-41.5 -1.5q-12 0 -18 2.5t-5 8.5q4 12 36 18q37 7 59.5 23
t32.5 52q12 41 25 90.5t23 81.5q2 8 0.5 13t-15.5 5h-124q-10 0 -18.5 -6.5t-16.5 -16.5q-18 -23 -36.5 -46.5t-39 -50t-45.5 -57.5q-22 -27 -20 -43t16.5 -25t30.5 -14q15 -4 20.5 -8.5t3.5 -11.5q-1 -6 -9.5 -8.5t-20.5 -2.5q-13 0 -37.5 1t-50.5 1q-31 0 -63.5 -3
t-55.5 -3zM337 322h106q11 0 13 2t6 13l77 249q2 5 1.5 7.5t-2.5 2.5q-4 0 -11 -9l-196 -250q-7 -10 -6.5 -12.5t12.5 -2.5zM639 697q-6 0 -6 6q0 7 5 15q18 30 37.5 60t39.5 59q9 13 27 13q7 0 21 -3t25.5 -8t11.5 -12t-13 -19q-29 -26 -65 -52.5t-65 -49.5q-7 -5 -11.5 -7
t-6.5 -2z" />
  </g>

</svg>
