<?xml version="1.0" standalone="no"?>
<!DOCTYPE svg PUBLIC "-//W3C//DTD SVG 1.1//EN" "http://www.w3.org/Graphics/SVG/1.1/DTD/svg11.dtd" >
<svg xmlns="http://www.w3.org/2000/svg" xmlns:xlink="http://www.w3.org/1999/xlink" version="1.1" viewBox="-10 0 778 1000">
  <g transform="matrix(1 0 0 -1 0 800)">
   <path fill="currentColor"
d="M185 -5q-24 0 -24 11q0 8 9.5 11.5t26.5 6.5q37 7 61 23t35 52l143 465q8 26 8 38.5t-15.5 16.5t-52.5 4q-34 0 -73 -9.5t-73 -27t-55.5 -41t-21.5 -50.5q0 -34 16 -48.5t44 -19.5q14 -2 21 -11t7 -20q0 -13 -11.5 -26t-38.5 -13t-46.5 15t-30.5 39t-11 50q0 65 47 111
t134 70t207 24q72 0 122.5 -12t82.5 -32t47 -45.5t15 -51.5q0 -36 -17 -64t-44 -48.5t-58 -32t-60 -14.5q-8 -1 -7.5 -4.5t4.5 -5.5q58 -23 91.5 -58.5t33.5 -105.5q0 -43 -20 -79t-56.5 -62.5t-85.5 -40.5t-106 -14q-42 0 -70 3.5t-56 3.5q-24 0 -41 -2t-35.5 -4t-45.5 -2z
M430 21q34 0 67.5 13.5t61.5 38.5t44.5 58.5t16.5 73.5q0 69 -41.5 105t-123.5 36q-7 0 -13 -5t-8 -14l-64 -219q-5 -18 -3.5 -35t13.5 -28q11 -10 22 -17t28 -7zM466 371q23 0 45.5 3.5t46.5 8.5q50 21 84.5 56t34.5 86q0 41 -32 70.5t-91 29.5q-19 0 -27.5 -3.5
t-10.5 -12.5l-62 -223q-4 -15 12 -15z" />
  </g>

</svg>
