<?xml version="1.0" standalone="no"?>
<!DOCTYPE svg PUBLIC "-//W3C//DTD SVG 1.1//EN" "http://www.w3.org/Graphics/SVG/1.1/DTD/svg11.dtd" >
<svg xmlns="http://www.w3.org/2000/svg" xmlns:xlink="http://www.w3.org/1999/xlink" version="1.1" viewBox="-55 0 478 1000">
  <g transform="matrix(1 0 0 -1 0 800)">
   <path fill="currentColor"
d="M-27 -3q-5 0 -12 1.5t-5 7.5q2 8 10.5 11.5t17.5 6.5q17 5 33 11.5t22 27.5l83 268q7 22 1.5 33t-23.5 14q-9 2 -14.5 6.5t-3.5 11.5q2 6 10 7.5t13 1.5q20 0 29 -1t16.5 -2t24.5 -1q33 0 66 0.5t63.5 1t55.5 1t42 0.5q3 0 7.5 -1t2.5 -5q-10 -38 -12 -57.5t-5 -29.5
q-1 -3 -5 -8t-7 -5q-4 0 -8 4.5t-5 13.5q-2 17 -5.5 28.5t-12 18t-26.5 6.5h-97q-6 0 -17.5 -7t-14.5 -17l-32 -103q-4 -14 -2.5 -19t5.5 -5h71q16 0 26.5 9.5t22.5 27.5q3 5 9 11t11 6q6 0 7.5 -5t-0.5 -10q-4 -12 -10 -28t-10 -27q-4 -13 -6.5 -27t-6.5 -28
q-1 -4 -5.5 -10.5t-9.5 -6.5q-9 0 -9.5 10.5t-1.5 13.5q1 16 -7 21t-16 6q-15 2 -30.5 2h-31.5q-14 0 -19.5 -2t-10.5 -16l-26 -84q-7 -20 -0.5 -34.5t40.5 -14.5h69q17 0 37 12t37.5 29t28.5 30q3 4 12 13t19 9q9 0 9.5 -4.5t-0.5 -7.5q-1 -4 -12 -23.5t-23.5 -42.5
t-18.5 -37q-1 -4 -7.5 -8t-11.5 -4q-31 0 -59 0.5t-53.5 1.5t-51 1.5t-51.5 0.5q-18 0 -34.5 -1t-34 -2.5t-37.5 -1.5z" />
  </g>

</svg>
