<?xml version="1.0" standalone="no"?>
<!DOCTYPE svg PUBLIC "-//W3C//DTD SVG 1.1//EN" "http://www.w3.org/Graphics/SVG/1.1/DTD/svg11.dtd" >
<svg xmlns="http://www.w3.org/2000/svg" xmlns:xlink="http://www.w3.org/1999/xlink" version="1.1" viewBox="-79 0 466 1000">
  <g transform="matrix(1 0 0 -1 0 800)">
   <path fill="currentColor"
d="M244 290q-2 0 -5 1t-8 5q-21 17 -43.5 36.5t-44.5 37.5q-8 7 -8 15q0 5 6 9t14 6t13 2q14 0 20 -9q15 -21 29 -43t29 -42q4 -5 4 -11q0 -1 -2 -4t-4 -3zM-54 -147q-17 0 -14 7t22 10q22 3 35 13t20 32l83 270q7 22 1.5 31.5t-25.5 12.5q-18 3 -14 12q3 7 18 7
q17 0 40 -0.5t42 -1t24 -0.5h31.5t32.5 1q22 0 42 4t32 4q2 0 6 -3t4 -5q0 -9 -6.5 -33t-10.5 -40q-1 -6 -9 -6q-3 0 -4 1.5t-1 4.5q0 16 -2 27.5t-9 18.5t-23 7h-85q-4 0 -11.5 -5t-10.5 -13q-1 -2 -6 -18t-12 -37.5t-14 -42t-10 -31.5q-1 -5 -1 -9t7 -4h61q12 0 23 9
t18 20q2 2 6.5 6t6.5 4t4.5 -3t0.5 -7q-4 -13 -8 -24.5t-7 -19.5q-2 -7 -3 -17.5t-4 -21.5q-1 -4 -3.5 -7t-5.5 -3q-5 0 -7 5.5t-2 8.5q1 14 -6 20t-13 7t-21 2.5t-26 1.5q-13 0 -23 -3t-12 -14q-8 -28 -15.5 -54.5t-15.5 -52.5q-14 -47 21 -47h73q30 0 46.5 11.5t35.5 37.5
q5 6 9 6q2 0 4.5 -2.5t0.5 -5.5q-5 -11 -9.5 -21.5t-9 -20t-9.5 -19.5q-1 -4 -4 -7t-7 -3q-27 0 -54.5 0.5t-54 1.5t-51 1.5t-45.5 0.5q-12 0 -21.5 -1t-19.5 -2t-25 -1z" />
  </g>

</svg>
