<?xml version="1.0" standalone="no"?>
<!DOCTYPE svg PUBLIC "-//W3C//DTD SVG 1.1//EN" "http://www.w3.org/Graphics/SVG/1.1/DTD/svg11.dtd" >
<svg xmlns="http://www.w3.org/2000/svg" xmlns:xlink="http://www.w3.org/1999/xlink" version="1.1" viewBox="-10 0 977 1000">
  <g transform="matrix(1 0 0 -1 0 800)">
   <path fill="currentColor"
d="M427 -264q-26 0 -41 12.5t-21 29.5t-6 31q0 8 3.5 11t8.5 3q71 2 113.5 19.5t66.5 49t36 73.5q8 26 8 50t-7 40q-14 33 -29.5 64.5t-32.5 61t-35 58t-36.5 57t-37 57.5t-36.5 59t-36 61q-7 11 -13 17.5t-11 6.5t-10 -4t-10 -21q-15 -46 -30.5 -93t-31.5 -95t-31.5 -95
t-29.5 -93q-9 -29 4 -47t51 -26q15 -3 22 -6.5t7 -10.5q0 -6 -9 -8.5t-21 -2.5q-25 0 -40.5 1.5t-28.5 2.5t-30 1q-20 0 -35 -1t-31 -2.5t-41 -1.5q-12 0 -18 2.5t-6 8.5q0 7 6 10.5t23 7.5q47 11 62.5 26t24.5 39l154 413q14 38 14 60t-19.5 34.5t-65.5 19.5
q-22 4 -32.5 11t-10.5 17t10 12t15 2q27 0 50 -1t42.5 -2.5t36.5 -1.5q8 0 15 -4.5t11 -12.5l284 -482q2 -4 8.5 -11.5t11.5 -7.5t13 20q4 11 14 41t23 71.5t26.5 86.5t25.5 85.5t20 68.5t10 36q6 24 -1 38.5t-26 23.5t-51 14q-15 2 -20 7.5t-5 12.5q0 6 9.5 8.5t21.5 2.5
q27 0 52.5 -2t54.5 -2t55.5 3t69.5 3q12 0 17.5 -2.5t5.5 -8.5q0 -7 -10 -12.5t-27 -7.5q-38 -3 -57 -15.5t-36 -51.5q-2 -5 -12 -35.5t-25.5 -77t-33.5 -102t-36.5 -111t-34 -103.5t-26.5 -80.5t-14 -40.5q-19 -52 -46 -100t-58 -86t-60.5 -60.5t-53.5 -22.5z" />
  </g>

</svg>
