<?xml version="1.0" standalone="no"?>
<!DOCTYPE svg PUBLIC "-//W3C//DTD SVG 1.1//EN" "http://www.w3.org/Graphics/SVG/1.1/DTD/svg11.dtd" >
<svg xmlns="http://www.w3.org/2000/svg" xmlns:xlink="http://www.w3.org/1999/xlink" version="1.1" viewBox="-39 0 725 1000">
  <g transform="matrix(1 0 0 -1 0 800)">
   <path fill="currentColor"
d="M235 -175q-44 0 -64.5 13t-20.5 30q0 21 17.5 38t30.5 17q17 0 26 -8.5t17 -22.5q10 -16 16.5 -20t17.5 -4q20 0 44.5 16.5t46 46t33.5 69.5l13 43l-2 -47l-162 316q-5 11 -11 19t-8 8q-4 0 -4.5 -1.5t-4.5 -12.5l-74 -218q-14 -41 -2 -57.5t31 -19.5q16 -2 23.5 -6
t7.5 -12q0 -7 -10 -10t-19 -3q-8 0 -26.5 0.5t-38 1t-30.5 0.5q-22 0 -44 -3t-44 -3q-7 0 -15 3t-8 10q0 12 37 17q35 5 60 29t37 54q16 42 32.5 83.5t32.5 83t32 82.5q4 9 6 16.5t2 13.5q0 19 -21 25.5t-50 10.5q-31 5 -31 21q0 6 10.5 8.5t19.5 2.5q12 0 29 -1t35.5 -2.5
t36.5 -1.5q6 0 16.5 -1.5t13.5 -7.5l152 -304q4 -7 9 -17.5t9 -10.5q5 0 8 7t7 20l59 213q10 35 1 50t-42 22q-15 3 -19.5 8t-4.5 12q0 6 9 8.5t21 2.5q25 0 37.5 -0.5t22.5 -1.5t27 -1t27 1t22.5 1.5t37.5 0.5q24 0 24 -11q0 -7 -10 -12t-27 -8q-37 -7 -57 -22t-31 -50
l-78 -254q-16 -52 -31 -91t-37 -70.5t-59 -61.5q-31 -25 -63 -36t-48 -11z" />
  </g>

</svg>
