<?xml version="1.0" standalone="no"?>
<!DOCTYPE svg PUBLIC "-//W3C//DTD SVG 1.1//EN" "http://www.w3.org/Graphics/SVG/1.1/DTD/svg11.dtd" >
<svg xmlns="http://www.w3.org/2000/svg" xmlns:xlink="http://www.w3.org/1999/xlink" version="1.1" viewBox="-30 0 811 1000">
  <g transform="matrix(1 0 0 -1 0 800)">
   <path fill="currentColor"
d="M4 -5q-12 0 -18 2.5t-6 8.5q0 12 36 18q37 7 61.5 23t34.5 51l138 452q11 35 1.5 50t-42.5 22q-15 3 -19.5 8t-4.5 12q0 6 9 8.5t21 2.5q25 0 41 -1t31 -1.5t36 -0.5q20 0 33.5 0.5t28.5 1.5t40 1q24 0 24 -11q0 -7 -10 -12t-27 -8q-24 -4 -41.5 -12t-28.5 -22t-18 -38
l-138 -452q-7 -23 -3 -38t18 -23t36 -13q15 -3 20 -7t5 -11q0 -6 -9 -8.5t-21 -2.5q-25 0 -41 1.5t-30.5 2.5t-36.5 1q-34 0 -58 -2.5t-62 -2.5zM267 -200q-45 0 -67 18.5t-22 34.5q0 21 5.5 33t18.5 12q8 0 20 -11t28 -22q12 -9 27 -18t31 -9q20 0 37 12.5t34.5 46.5
t36.5 98l169 556q11 35 2.5 49.5t-41.5 21.5q-15 3 -20 8t-5 12q0 6 9.5 8.5t21.5 2.5q25 0 40.5 -1t30.5 -1.5t36 -0.5q17 0 27.5 0.5t23.5 1.5t38 1q23 0 23 -11q0 -7 -9.5 -12t-26.5 -8q-24 -4 -38 -12t-21.5 -22t-15.5 -37l-125 -409q-24 -79 -42.5 -126.5t-34 -75
t-29.5 -43.5t-28 -31q-28 -29 -60.5 -47.5t-73.5 -18.5z" />
  </g>

</svg>
