<?xml version="1.0" standalone="no"?>
<!DOCTYPE svg PUBLIC "-//W3C//DTD SVG 1.1//EN" "http://www.w3.org/Graphics/SVG/1.1/DTD/svg11.dtd" >
<svg xmlns="http://www.w3.org/2000/svg" xmlns:xlink="http://www.w3.org/1999/xlink" version="1.1" viewBox="-40 0 456 1000">
  <g transform="matrix(1 0 0 -1 0 800)">
   <path fill="currentColor"
d="M-13 -3q-5 0 -11 3t-5 9q2 8 11 11.5t18 4.5q28 5 51.5 16t31.5 38l84 273q10 31 2 48t-38 22q-8 2 -14 7t-4 12q2 6 10.5 9t13.5 3q20 0 35 -1t30 -2.5t33 -1.5t33.5 1.5t32 2.5t35.5 1q5 0 11.5 -3t4.5 -9q-2 -7 -11 -12t-19 -7q-22 -3 -37.5 -12t-25.5 -23t-17 -35
l-84 -273q-8 -27 8 -38t41 -16q8 -1 14.5 -4.5t4.5 -11.5q-1 -6 -10 -9t-14 -3q-19 0 -35 1.5t-32.5 3t-37.5 1.5t-38.5 -1.5t-34.5 -3t-37 -1.5zM273 541q-37 0 -58 16.5t-26.5 41.5t1.5 48q3 10 9 17t13 7q8 0 9 -6.5t0 -14.5q-2 -19 10 -34t49 -15q38 0 62 15t31 34
q3 8 9 14.5t13 6.5q8 0 10 -7t-1 -17q-7 -25 -25 -49.5t-45 -40.5t-61 -16z" />
  </g>

</svg>
