<?xml version="1.0" standalone="no"?>
<!DOCTYPE svg PUBLIC "-//W3C//DTD SVG 1.1//EN" "http://www.w3.org/Graphics/SVG/1.1/DTD/svg11.dtd" >
<svg xmlns="http://www.w3.org/2000/svg" xmlns:xlink="http://www.w3.org/1999/xlink" version="1.1" viewBox="-40 0 456 1000">
  <g transform="matrix(1 0 0 -1 0 800)">
   <path fill="currentColor"
d="M-13 -3q-5 0 -11 3t-5 9q2 8 11 11.5t18 4.5q28 5 51.5 16t31.5 38l84 273q10 31 2 48t-38 22q-8 2 -14 7t-4 12q2 6 10.5 9t13.5 3q20 0 35 -1t30 -2.5t33 -1.5t33.5 1.5t32 2.5t35.5 1q5 0 11.5 -3t4.5 -9q-2 -7 -11 -12t-19 -7q-22 -3 -37.5 -12t-25.5 -23t-17 -35
l-84 -273q-8 -27 8 -38t41 -16q8 -1 14.5 -4.5t4.5 -11.5q-1 -6 -10 -9t-14 -3q-19 0 -35 1.5t-32.5 3t-37.5 1.5t-38.5 -1.5t-34.5 -3t-37 -1.5zM150 519q-7 0 -11.5 4t-4.5 11q0 4 10 17t24.5 28.5t29 26.5t23.5 11q17 0 27 -1.5t24 -3.5q17 -1 30 -2.5t26 -1.5
q20 0 35 15q11 11 16 17.5t8 6.5q8 0 13.5 -4.5t5.5 -12.5q0 -3 -5.5 -9t-12.5 -13q-12 -12 -22.5 -26t-20.5 -26q-6 -7 -16 -10.5t-13 -3.5q-6 0 -18.5 1t-29 3t-35 3t-36.5 1q-12 0 -20 -7t-16 -15.5t-11 -8.5z" />
  </g>

</svg>
