<?xml version="1.0" standalone="no"?>
<!DOCTYPE svg PUBLIC "-//W3C//DTD SVG 1.1//EN" "http://www.w3.org/Graphics/SVG/1.1/DTD/svg11.dtd" >
<svg xmlns="http://www.w3.org/2000/svg" xmlns:xlink="http://www.w3.org/1999/xlink" version="1.1" viewBox="-40 0 510 1000">
  <g transform="matrix(1 0 0 -1 0 800)">
   <path fill="currentColor"
d="M202 228l-18 33l139 64q2 1 4 1.5t3 0.5q11 0 11 -9q0 -17 -4.5 -23.5t-16.5 -11.5zM22 156q-7 2 -10 7t-3 12q0 14 16 21l121 55l19 -33l-126 -59q-4 -1 -8 -2.5t-9 -0.5zM-13 -3q-5 0 -11 3t-5 9q2 8 11 11.5t18 4.5q28 5 51.5 16t31.5 38l87 281q10 31 0.5 44
t-39.5 18q-8 2 -14 7t-4 12q2 6 10.5 9t13.5 3q20 0 35 -1t30 -2.5t33 -1.5t33.5 1.5t32 2.5t35.5 1q5 0 11.5 -3t4.5 -9q-2 -7 -11 -12t-19 -7q-33 -5 -51.5 -22t-28.5 -48l-85 -274q-8 -26 -3.5 -35t26.5 -9h98q31 0 58.5 20.5t43.5 42.5q3 3 9.5 9t13.5 6t7 -5.5
t-2 -10.5q-4 -10 -10.5 -21.5t-13.5 -23.5t-13.5 -22.5t-11.5 -18.5q-1 -4 -8 -8t-12 -4q-37 0 -71.5 1t-66 2t-60 2t-54.5 0q-27 -1 -49 -3.5t-51 -2.5z" />
  </g>

</svg>
