<?xml version="1.0" standalone="no"?>
<!DOCTYPE svg PUBLIC "-//W3C//DTD SVG 1.1//EN" "http://www.w3.org/Graphics/SVG/1.1/DTD/svg11.dtd" >
<svg xmlns="http://www.w3.org/2000/svg" xmlns:xlink="http://www.w3.org/1999/xlink" version="1.1" viewBox="-10 0 1309 1000">
  <g transform="matrix(1 0 0 -1 0 800)">
   <path fill="currentColor"
d="M1119 -287q-82 0 -154.5 50t-143.5 150t-149.5 250.5t-173.5 351.5q-6 11 -12.5 17.5t-11.5 6.5t-12 -8.5t-12 -25.5q-34 -135 -64.5 -233.5t-63 -161.5t-71.5 -93.5t-92 -30.5q-44 0 -74.5 20t-30.5 51q0 27 14.5 40.5t28.5 13.5q7 0 12.5 -12.5t13.5 -29.5
q10 -20 25.5 -31t39.5 -11q17 0 37.5 14t44.5 47t50 91.5t53.5 147.5t55.5 214q8 38 -2 56t-53 18q-34 0 -73 -9.5t-73 -27t-55.5 -41t-21.5 -50.5q0 -34 16 -48.5t44 -19.5q14 -2 21 -11t7 -20q0 -13 -15 -30t-42 -17t-45 17t-27 43t-9 52q0 98 102.5 149t282.5 51
q8 0 15 -4.5t11 -12.5q68 -130 125 -250.5t108 -221.5q9 -17 18.5 -19t14.5 20q40 153 75 262.5t71.5 179t81.5 102.5t106 33q44 0 74.5 -19.5t30.5 -51.5q0 -27 -14.5 -40.5t-28.5 -13.5q-7 0 -12.5 12.5t-13.5 29.5q-10 20 -25.5 31t-38.5 11q-20 0 -45 -15t-53 -52
t-59 -103.5t-64.5 -169.5t-68.5 -250q-4 -16 -2.5 -25.5t6.5 -21.5q54 -97 106.5 -169.5t110 -112t125.5 -39.5q40 0 60.5 16.5t20.5 44.5q0 13 -10.5 21t-18.5 12q-9 5 -15.5 14t-6.5 26q0 19 15.5 30.5t32.5 11.5q39 0 55 -25t16 -52q0 -29 -18 -59t-55.5 -50t-96.5 -20z
" />
  </g>

</svg>
