<?xml version="1.0" standalone="no"?>
<!DOCTYPE svg PUBLIC "-//W3C//DTD SVG 1.1//EN" "http://www.w3.org/Graphics/SVG/1.1/DTD/svg11.dtd" >
<svg xmlns="http://www.w3.org/2000/svg" xmlns:xlink="http://www.w3.org/1999/xlink" version="1.1" viewBox="-10 0 1010 1000">
  <g transform="matrix(1 0 0 -1 0 800)">
   <path fill="currentColor"
d="M313 -14q-81 0 -133 35.5t-77 94t-25 127.5q0 72 26.5 146t78 136.5t125.5 100.5t170 38q40 0 73.5 -5t60.5 -17.5t46 -35.5l-22 -79q-14 50 -58.5 77.5t-104.5 27.5q-53 0 -100.5 -25.5t-85.5 -69t-66 -98.5t-43 -115.5t-15 -118.5q0 -47 16.5 -89.5t51 -69.5t87.5 -27
q54 0 100.5 24t83.5 64l13 -69q-41 -24 -93.5 -38t-108.5 -14zM359 -5q-12 0 -18 2.5t-6 8.5q0 12 36 18q50 8 71.5 24.5t31.5 50.5l137 450q14 43 1 56.5t-57 19.5q-15 2 -20.5 6t-5.5 11q0 6 9.5 8.5t21.5 2.5q8 0 28.5 -1t46 -1.5t46.5 -0.5h161q55 0 83.5 2.5t40 5
t13.5 2.5q4 0 7.5 -4.5t3.5 -8.5q0 -6 -6 -21.5t-13 -38.5t-11 -52q-1 -10 -6.5 -14.5t-10.5 -4.5t-8.5 7t-2.5 18q3 46 -8 63.5t-51 17.5h-122q-24 0 -34 -6.5t-15 -23.5l-67 -212q-6 -18 -3 -25t19 -6l124 3q26 1 41.5 11.5t27.5 25.5q7 8 15.5 19.5t17.5 11.5
q8 0 8.5 -8.5t-4.5 -19.5q-9 -17 -15.5 -32t-11.5 -29q-6 -16 -10.5 -33.5t-9.5 -39.5q-1 -7 -4.5 -14t-8.5 -7q-8 0 -10.5 11t-2.5 16q0 31 -10.5 43.5t-27.5 12.5l-115 2q-17 0 -29.5 -4.5t-18.5 -26.5l-51 -182q-14 -51 -5.5 -67t39.5 -16h155q25 0 44.5 8t35.5 19
q15 11 28 26.5t26 36.5l8 12t10 6q5 0 6 -7t1 -13q0 -9 -7 -28t-16 -38.5t-16 -31.5q-6 -10 -13.5 -15.5t-19.5 -5.5q-41 0 -80.5 0.5t-76.5 1.5t-71 2t-65.5 1.5t-59.5 0.5q-24 0 -42 -1.5t-35.5 -3t-42.5 -1.5z" />
  </g>

</svg>
