<?xml version="1.0" standalone="no"?>
<!DOCTYPE svg PUBLIC "-//W3C//DTD SVG 1.1//EN" "http://www.w3.org/Graphics/SVG/1.1/DTD/svg11.dtd" >
<svg xmlns="http://www.w3.org/2000/svg" xmlns:xlink="http://www.w3.org/1999/xlink" version="1.1" viewBox="-10 0 650 1000">
  <g transform="matrix(1 0 0 -1 0 800)">
   <path fill="currentColor"
d="M238 -14q-60 0 -99 25t-58 65.5t-19 88.5q0 51 20 102.5t58 95t93.5 70t127.5 26.5q26 0 46.5 -5.5t39.5 -13.5q23 -9 45 -18.5t50 -9.5q19 0 27.5 7t8.5 20q0 7 -5.5 13.5t-12.5 13.5l-15.5 15.5t-7.5 16.5q0 12 10.5 20.5t25 13t27.5 4.5q17 0 23.5 -19.5t6.5 -36.5
q0 -26 -12 -48.5t-34 -37.5t-54 -22q-4 -1 -7.5 -2t0.5 -11q7 -19 10.5 -39t3.5 -40q0 -50 -20 -102t-58 -95.5t-93.5 -70t-127.5 -26.5zM246 20q36 0 68.5 16.5t59 45t46.5 64.5t30.5 76t10.5 78q0 32 -12 60.5t-35.5 46.5t-59.5 18q-34 0 -66 -16.5t-59 -45t-47 -65
t-31.5 -76t-11.5 -77.5q0 -31 12 -60t36 -47t59 -18z" />
  </g>

</svg>
