<?xml version="1.0" standalone="no"?>
<!DOCTYPE svg PUBLIC "-//W3C//DTD SVG 1.1//EN" "http://www.w3.org/Graphics/SVG/1.1/DTD/svg11.dtd" >
<svg xmlns="http://www.w3.org/2000/svg" xmlns:xlink="http://www.w3.org/1999/xlink" version="1.1" viewBox="-10 0 1603 1000">
  <g transform="matrix(1 0 0 -1 0 800)">
   <path fill="currentColor"
d="M1263 -337q-68 0 -147 13.5t-167.5 35t-184.5 45.5t-191 47.5t-176.5 38.5t-138.5 15q-55 0 -96 -5t-49 -5q-10 0 -20.5 3t-10.5 14q0 10 10.5 14.5t21.5 10.5q19 9 42.5 18t48 18t47.5 17.5t42.5 16t32.5 14.5q87 44 155 111t107 157.5t39 202.5q0 47 -15.5 90.5
t-49 71.5t-87.5 28q-53 0 -100.5 -25.5t-86.5 -69.5t-67 -100t-43.5 -116.5t-15.5 -118.5q0 -47 19.5 -92.5t65.5 -75.5t125 -30h12t12 1l-35 -18q-4 0 -18 -2t-31 -2q-81 0 -133 35.5t-77 94t-25 127.5q0 72 26.5 146t78 136.5t125.5 100.5t170 38q81 0 133 -35.5t77 -94
t25 -127.5q0 -67 -24.5 -137t-73.5 -132t-123 -109q-43 -28 -82 -52t-84.5 -45.5t-110.5 -41.5l-26 -6q23 14 54 18t68 4q65 0 144 -14t164 -36.5t169 -46.5q105 -30 198 -54.5t172 -39.5t142 -15q107 0 166 31.5t59 95.5q0 14 -4.5 22.5t-9.5 15.5q-6 8 -11.5 15t-5.5 17
q0 20 12.5 28.5t23.5 8.5q25 0 39 -16.5t14 -39.5q0 -76 -38.5 -123.5t-110.5 -69.5t-171 -22z" />
  </g>

</svg>
