<?xml version="1.0" standalone="no"?>
<!DOCTYPE svg PUBLIC "-//W3C//DTD SVG 1.1//EN" "http://www.w3.org/Graphics/SVG/1.1/DTD/svg11.dtd" >
<svg xmlns="http://www.w3.org/2000/svg" xmlns:xlink="http://www.w3.org/1999/xlink" version="1.1" viewBox="-15 0 491 1000">
  <g transform="matrix(1 0 0 -1 0 800)">
   <path fill="currentColor"
d="M322 -293q-21 0 -37 3.5t-30.5 13.5t-33.5 28q-17 17 -31.5 32t-34.5 40q-4 5 -15 13.5t-22 16t-15 8.5h120q-7 -5 -11.5 -8.5t-2.5 -8.5q11 -19 23.5 -34t28.5 -32q21 -21 41 -29.5t44 -8.5q20 0 30.5 1t15.5 3q6 2 12 2.5t4 -4.5q-3 -10 -15 -16q-19 -10 -37 -15
t-34 -5zM140 -152q-40 0 -73 17.5t-52.5 49.5t-19.5 73q0 58 18 106.5t52 84.5t81.5 55.5t107.5 19.5q40 0 71.5 -17.5t50 -48t18.5 -68.5q0 -58 -18 -108t-51.5 -86.5t-80 -57t-104.5 -20.5zM146 -129q39 0 74.5 20.5t62.5 55.5t42.5 79.5t15.5 91.5q0 49 -23 81.5
t-73 32.5q-40 0 -75 -21t-61.5 -56.5t-41.5 -80t-15 -92.5q0 -50 24.5 -80t69.5 -31z" />
  </g>

</svg>
