<?xml version="1.0" standalone="no"?>
<!DOCTYPE svg PUBLIC "-//W3C//DTD SVG 1.1//EN" "http://www.w3.org/Graphics/SVG/1.1/DTD/svg11.dtd" >
<svg xmlns="http://www.w3.org/2000/svg" xmlns:xlink="http://www.w3.org/1999/xlink" version="1.1" viewBox="-47 0 708 1000">
  <g transform="matrix(1 0 0 -1 0 800)">
   <path fill="currentColor"
d="M-20 -6q-6 0 -11.5 3t-4.5 7q2 4 12 15.5t34 30.5q31 26 76 63.5t94 79t92 78t69 59.5q6 6 3 11q-13 26 -33 57t-41.5 62.5t-39 57t-25.5 38.5q-13 23 -24 39.5t-22 35.5q-2 4 5 11t11 7q51 -1 107 -2t117 -1h70.5t74.5 1q20 0 41.5 2t28.5 6q9 6 16 10t11 4t7.5 -3
t1.5 -14q-5 -31 -10.5 -62.5t-7.5 -48.5q-1 -11 -4.5 -24.5t-14.5 -13.5q-10 0 -10 11.5t-1 20.5q-1 18 -5 31t-12 21q-14 15 -38 17q-21 2 -56 3.5t-74.5 3.5t-76 3t-59.5 1q-16 0 -18.5 -5.5t-0.5 -10.5q5 -12 20 -36t35 -53.5t40.5 -59t36.5 -52.5t22 -33q5 -7 1 -12.5
t-8 -9.5l-294 -249q-7 -6 -6 -11t8 -6q19 -3 51 -4.5t83 -2t125 -0.5q34 1 61 11t58 50q10 12 19.5 22t18.5 10q5 0 6 -4t-2 -9q-16 -25 -32.5 -52.5t-29.5 -50t-19 -35.5q-3 -7 -7 -12t-11 -5q-21 0 -37 2.5t-36 2.5q-18 0 -48 0.5t-66 0.5h-70t-59.5 -0.5t-35.5 -0.5
q-24 0 -39 -1.5t-29.5 -3t-37.5 -1.5z" />
  </g>

</svg>
