<?xml version="1.0" standalone="no"?>
<!DOCTYPE svg PUBLIC "-//W3C//DTD SVG 1.1//EN" "http://www.w3.org/Graphics/SVG/1.1/DTD/svg11.dtd" >
<svg xmlns="http://www.w3.org/2000/svg" xmlns:xlink="http://www.w3.org/1999/xlink" version="1.1" viewBox="-10 0 991 1000">
  <g transform="matrix(1 0 0 -1 0 800)">
   <path fill="currentColor"
d="M549 -18q-5 0 -9 4t-6 10t-2 12q0 15 3 30t10 37l139 478q7 23 2.5 36.5t-18.5 19t-38 5.5h-123q-13 0 -21.5 -6t-16 -24.5t-18.5 -56.5l-121 -425q-10 -36 3.5 -54.5t46.5 -25.5q15 -3 20 -6t5 -10q0 -6 -9 -8.5t-21 -2.5q-25 0 -41 1.5t-30.5 2.5t-35.5 1q-23 0 -41 -1
t-36.5 -2.5t-43.5 -1.5q-12 0 -18 2.5t-6 8.5q0 7 10 10t27 6q37 7 61.5 25.5t34.5 54.5l122 428q14 51 12 67.5t-15 16.5h-83q-49 0 -75.5 -19.5t-44.5 -41.5q-9 -10 -16.5 -21.5t-14 -19.5t-12.5 -8t-8.5 2.5t-2.5 10.5q0 2 2 10t8 21q10 20 22.5 46t19.5 52q2 7 7.5 13.5
t9.5 6.5t9 -3.5t9 -8.5q3 -3 9 -6t21 -4.5t46 -1.5h373q24 0 41 7t29 14q11 8 19 14t12 6q8 0 14 -4.5t6 -12.5t-1.5 -14t-3.5 -13l-129 -439q-2 -7 0.5 -7t5.5 4q44 66 90.5 116.5t89 79t72.5 28.5q33 0 50.5 -22t17.5 -51q0 -51 -18.5 -108t-48.5 -109t-65 -89
q-6 -6 -18 -15.5t-28 -18.5t-32.5 -15.5t-30.5 -6.5q-7 0 -16.5 6t-16 15t-6.5 16q0 5 4 12t10 12t12 5q9 0 15.5 -3.5t11.5 -8.5q6 -5 12 -9t14 -4q17 0 36 20t36.5 53t31.5 72.5t22.5 79.5t8.5 74q0 23 -9.5 35.5t-28.5 12.5t-46.5 -22.5t-58 -58t-59.5 -76t-52 -77.5
t-36 -62l-37.5 -72t-24.5 -24z" />
  </g>

</svg>
