<?xml version="1.0" standalone="no"?>
<!DOCTYPE svg PUBLIC "-//W3C//DTD SVG 1.1//EN" "http://www.w3.org/Graphics/SVG/1.1/DTD/svg11.dtd" >
<svg xmlns="http://www.w3.org/2000/svg" xmlns:xlink="http://www.w3.org/1999/xlink" version="1.1" viewBox="-10 0 1208 1000">
  <g transform="matrix(1 0 0 -1 0 800)">
   <path fill="currentColor"
d="M518 -14q-48 0 -89.5 15.5t-69 47.5t-34 82t14.5 120l90 296q8 26 8 39t-15 17t-52 4q-34 0 -73 -9.5t-73 -27t-55.5 -41t-21.5 -50.5q0 -34 16 -48.5t44 -19.5q14 -2 21 -11t7 -20q0 -13 -11.5 -26t-38.5 -13t-46.5 15t-30.5 39t-11 50q0 65 47 111t134 70t207 24
q37 0 58.5 1t36.5 1q24 0 23 -11q-1 -7 -10.5 -11t-26.5 -9q-16 -4 -35 -24.5t-31 -61.5l-88 -297q-22 -74 -7.5 -121t52.5 -69t87 -22q63 0 107 25t74 67.5t50.5 97t36.5 112.5q16 54 31 107.5t34.5 101.5t46.5 85t65.5 58t92.5 21q44 0 74.5 -19.5t30.5 -51.5
q0 -27 -14.5 -40.5t-28.5 -13.5q-7 0 -12.5 12.5t-13.5 29.5q-10 20 -25.5 31t-38.5 11q-49 0 -81 -29t-54 -77.5t-39.5 -109t-35.5 -124.5q-24 -83 -50.5 -145.5t-63 -104.5t-88 -63t-125.5 -21z" />
  </g>

</svg>
