<?xml version="1.0" standalone="no"?>
<!DOCTYPE svg PUBLIC "-//W3C//DTD SVG 1.1//EN" "http://www.w3.org/Graphics/SVG/1.1/DTD/svg11.dtd" >
<svg xmlns="http://www.w3.org/2000/svg" xmlns:xlink="http://www.w3.org/1999/xlink" version="1.1" viewBox="-10 0 703 1000">
  <g transform="matrix(1 0 0 -1 0 800)">
   <path fill="currentColor"
d="M228 -10q-44 0 -81.5 22.5t-54.5 63t0 95.5l55 178q8 24 9.5 38t-7 22t-30.5 12q-15 3 -19.5 8t-4.5 12q0 6 9 8.5t21 2.5q25 0 36 -0.5t19.5 -1.5t23.5 -1q18 0 29.5 1t25 1.5t38.5 0.5q24 0 24 -11q0 -7 -10 -12t-27 -8q-24 -4 -35.5 -12t-16.5 -22t-13 -38l-49 -158
q-15 -49 -4 -82.5t40.5 -51t66.5 -17.5q59 0 101.5 36t67.5 118l47 154q10 31 3.5 50t-29.5 23q-15 3 -19.5 8t-4.5 12q0 6 9 8.5t21 2.5q17 0 29.5 -1.5t31.5 -1.5t35 1.5t29 1.5q37 0 37 28q0 7 -5.5 13.5t-12.5 13.5l-15.5 15.5t-7.5 16.5q0 12 10.5 20.5t25 13t26.5 4.5
q18 0 24.5 -18.5t6.5 -34.5q0 -25 -12 -46.5t-35 -36t-55 -20.5q-20 -4 -31 -17.5t-17 -33.5l-62 -196q-27 -85 -90.5 -134.5t-152.5 -49.5z" />
  </g>

</svg>
