<?xml version="1.0" standalone="no"?>
<!DOCTYPE svg PUBLIC "-//W3C//DTD SVG 1.1//EN" "http://www.w3.org/Graphics/SVG/1.1/DTD/svg11.dtd" >
<svg xmlns="http://www.w3.org/2000/svg" xmlns:xlink="http://www.w3.org/1999/xlink" version="1.1" viewBox="-10 0 951 1000">
  <g transform="matrix(1 0 0 -1 0 800)">
   <path fill="currentColor"
d="M296 -5q-12 0 -18.5 2.5t-5.5 8.5q4 12 37 18q37 7 62.5 27.5t35.5 56.5l58 193q15 51 21.5 106t0.5 102t-27.5 76t-61.5 29q-34 0 -69.5 -16.5t-58.5 -34.5q-3 -2 -5.5 -1t-2.5 4q0 10 16.5 26.5t43 33t57 27.5t58.5 11q41 0 64.5 -18t34 -47.5t13.5 -63.5t1 -67
q0 -2 1.5 -2t2.5 2q45 72 92.5 115t93 62t83.5 19t67 -18t39 -50q3 -10 -1.5 -12.5t-9.5 1.5q-20 20 -44.5 27t-46.5 7q-41 0 -81 -20.5t-75.5 -55t-62.5 -76.5q-14 -22 -28 -53.5t-24.5 -62t-16.5 -49.5l-58 -194q-10 -34 2.5 -55.5t45.5 -28.5q15 -3 21 -7t4 -11
q-1 -6 -9.5 -8.5t-20.5 -2.5q-25 0 -41 1.5t-30.5 2.5t-35.5 1q-34 0 -58.5 -2.5t-62.5 -2.5zM114 479q-8 0 -7.5 8t1.5 12q4 11 13.5 30t21.5 41t23 41.5t17 31.5q5 10 11.5 17.5t13.5 7.5q5 0 14.5 -6t17 -14.5t7.5 -16.5q0 -2 -13 -19t-32 -40.5t-37 -45t-28 -32.5
q-5 -5 -11 -10t-12 -5z" />
  </g>

</svg>
