<?xml version="1.0" standalone="no"?>
<!DOCTYPE svg PUBLIC "-//W3C//DTD SVG 1.1//EN" "http://www.w3.org/Graphics/SVG/1.1/DTD/svg11.dtd" >
<svg xmlns="http://www.w3.org/2000/svg" xmlns:xlink="http://www.w3.org/1999/xlink" version="1.1" viewBox="-10 0 751 1000">
  <g transform="matrix(1 0 0 -1 0 800)">
   <path fill="currentColor"
d="M123 -5q-12 0 -18 2.5t-6 8.5q0 7 9.5 11t26.5 7q37 7 62.5 27.5t36.5 56.5l51 160q7 20 6 36.5t-7 37.5l-56 206q-9 34 -23.5 52t-37.5 20q-14 2 -21 8.5t-7 13.5q0 6 11.5 8.5t23.5 2.5q21 0 48 -1.5t60 -1.5q22 0 41 1t34 1q12 0 17.5 -2.5t5.5 -8.5q0 -7 -9.5 -12
t-27.5 -8q-28 -4 -35 -15t2 -46l42 -159q5 -19 9.5 -28.5t9.5 -9.5t14 9t22 23q33 37 57.5 68.5t58.5 73.5q33 41 31.5 58.5t-30.5 24.5q-10 2 -17 7.5t-7 12.5q0 6 9 8.5t21 2.5q21 0 38.5 -0.5t39.5 -0.5q29 0 55.5 1.5t42.5 1.5q12 0 18.5 -2.5t6.5 -8.5q0 -7 -10 -10.5
t-24 -8.5q-19 -6 -43.5 -21.5t-46.5 -33.5t-37 -34q-25 -26 -56.5 -61t-61 -68t-48.5 -53q-22 -24 -32 -45.5t-19 -50.5l-45 -148q-10 -34 2.5 -55.5t45.5 -28.5q15 -3 20 -7t5 -11q0 -6 -9 -8.5t-21 -2.5q-25 0 -41 1.5t-31 2.5t-36 1q-23 0 -41 -1t-36 -2.5t-43 -1.5z
M406 697q-6 0 -6 6q0 7 5 15q18 30 37.5 60t39.5 59q9 13 27 13q7 0 21 -3t25.5 -8t11.5 -12t-13 -19q-29 -26 -65 -52.5t-65 -49.5q-7 -5 -11.5 -7t-6.5 -2z" />
  </g>

</svg>
