<?xml version="1.0" standalone="no"?>
<!DOCTYPE svg PUBLIC "-//W3C//DTD SVG 1.1//EN" "http://www.w3.org/Graphics/SVG/1.1/DTD/svg11.dtd" >
<svg xmlns="http://www.w3.org/2000/svg" xmlns:xlink="http://www.w3.org/1999/xlink" version="1.1" viewBox="-55 0 802 1000">
  <g transform="matrix(1 0 0 -1 0 800)">
   <path fill="currentColor"
d="M62 43q-4 -4 -10 0.5t-8 8.5q-4 6 -1 15.5t9 15.5l551 560q4 4 9 3t6 -9q1 -12 -1.5 -21.5t-10.5 -17.5zM490 -256q-37 0 -74 22t-72.5 57.5t-70.5 73.5q-35 39 -68 75.5t-64.5 59.5t-60.5 23q-24 -15 -40.5 -32t-30.5 -33q-6 -7 -19 -5t-24 11t-11 21q0 17 19 35
t51.5 30t73.5 11q38 0 73 -14.5t67 -39t61 -54t56 -59.5q32 -34 61 -65t56.5 -50t53.5 -19q21 0 41 9.5t33 26t13 35.5q0 13 -9.5 25t-9.5 22q0 13 13 24t24 11q18 0 26 -12t8 -29q0 -26 -14 -54t-38.5 -52t-56 -39t-67.5 -15zM136 277q-6 0 -7.5 7t-0.5 11q2 7 11 12.5
t17 5.5h336q5 0 8 -4.5t-1 -9.5q-7 -10 -15.5 -16t-19.5 -6h-328zM184 514q-14 0 -21 12.5t-7 27.5q0 28 12.5 56.5t35.5 52t54.5 37.5t68.5 14q50 0 99 -15.5t88.5 -38t58.5 -45.5q19 31 41 51t44.5 30t39.5 9t28 -10.5t11 -29.5q0 -26 -22 -44.5t-59 -27.5t-83 -9
t-83.5 11t-70 26.5t-65 27t-69.5 11.5q-38 0 -56 -18.5t-18 -57.5q0 -7 2 -11.5t4 -9.5q2 -4 3.5 -7.5t1.5 -8.5q0 -16 -12 -24.5t-26 -8.5z" />
  </g>

</svg>
