<?xml version="1.0" standalone="no"?>
<!DOCTYPE svg PUBLIC "-//W3C//DTD SVG 1.1//EN" "http://www.w3.org/Graphics/SVG/1.1/DTD/svg11.dtd" >
<svg xmlns="http://www.w3.org/2000/svg" xmlns:xlink="http://www.w3.org/1999/xlink" version="1.1" viewBox="-15 0 240 1000">
  <g transform="matrix(1 0 0 -1 0 800)">
   <path fill="currentColor"
d="M36 504q-6 -1 -13 -3t-14 -2q-5 0 -9.5 2t-4.5 6q0 2 1 4.5t3 5.5q7 7 27 21t44.5 29.5t47.5 28.5t36 18q4 2 7.5 3l7 2t6.5 1q12 0 21 -10t14 -22t5 -18q0 -2 -1 -4.5t-3 -4.5q-8 -4 -30 -12t-49.5 -17t-53 -16.5t-42.5 -11.5z" />
  </g>

</svg>
