<?xml version="1.0" standalone="no"?>
<!DOCTYPE svg PUBLIC "-//W3C//DTD SVG 1.1//EN" "http://www.w3.org/Graphics/SVG/1.1/DTD/svg11.dtd" >
<svg xmlns="http://www.w3.org/2000/svg" xmlns:xlink="http://www.w3.org/1999/xlink" version="1.1" viewBox="-79 0 663 1000">
  <g transform="matrix(1 0 0 -1 0 800)">
   <path fill="currentColor"
d="M-54 -3q-5 0 -10 1.5t-5 8.5q0 8 12.5 12.5t22.5 6.5q18 4 35.5 7t38 15.5t45.5 43.5l220 268q11 13 23.5 28t17.5 22q17 7 29.5 14.5t23.5 16.5t22 20q5 0 9.5 -1t8.5 -2.5t6 -3.5q-9 -22 -15 -45t-10 -53l-34 -267q-2 -19 4 -38t25 -24q15 -4 15 -12q0 -9 -11 -13.5
t-18 -4.5q-18 0 -34 2.5t-37 2.5q-17 0 -32 -1t-30.5 -2.5t-35.5 -1.5q-5 0 -10.5 3t-2.5 9q4 8 13.5 12t19.5 6q31 7 42.5 17t16.5 34l8 55q1 5 -2.5 6.5t-8.5 1.5h-117q-10 0 -17 -2.5t-12 -7.5q-17 -18 -27 -32.5t-12 -16.5q-7 -8 -12.5 -17.5t-5.5 -18.5q0 -8 5 -11
t13 -7q5 -2 11 -5.5t6 -8.5q0 -8 -11 -12.5t-17 -4.5q-29 0 -45 2.5t-42 2.5q-17 0 -27.5 -1t-21 -2.5t-30.5 -1.5zM211 172h100q14 0 15 9q7 44 13 88.5t13 88.5q2 11 -4 11q-1 0 -4 -2.5t-8 -8.5q-11 -12 -32 -39.5t-47 -63t-54 -72.5q-8 -11 8 -11zM266 -286
q-14 0 -29 10t-24.5 26.5t-9.5 33.5q0 40 18 74.5t47 63.5t63 53t67 43h27q-37 -26 -69 -55t-51.5 -63.5t-19.5 -78.5q0 -13 9 -28t28 -15q16 0 35.5 14.5t28.5 24.5q2 2 8.5 6.5t12.5 5.5t6 -10q0 -2 -4 -9.5t-6 -10.5q-13 -18 -28.5 -33t-32.5 -26.5t-36 -18t-40 -7.5z
" />
  </g>

</svg>
