<?xml version="1.0" standalone="no"?>
<!DOCTYPE svg PUBLIC "-//W3C//DTD SVG 1.1//EN" "http://www.w3.org/Graphics/SVG/1.1/DTD/svg11.dtd" >
<svg xmlns="http://www.w3.org/2000/svg" xmlns:xlink="http://www.w3.org/1999/xlink" version="1.1" viewBox="-10 0 390 1000">
  <g transform="matrix(1 0 0 -1 0 800)">
   <path fill="currentColor"
d="M177 228q-8 0 -9 8t0 18q1 5 4.5 19.5t8 30.5t7.5 27.5l3 11.5q-21 -4 -46.5 -6t-50.5 -3q-6 0 -12.5 2t-6.5 8q0 7 6.5 11t12.5 5q5 2 18.5 5.5t30 8.5t28 8l11.5 3q-13 17 -25.5 34.5t-27.5 39.5q-5 7 -5 15q0 7 2 9.5t7 2.5t11 -4.5t8 -6.5q19 -18 34 -32.5t29 -30.5
q7 20 16.5 40.5t19.5 44.5q3 6 7 11.5t10 5.5q8 0 9 -6t1 -13q0 -3 -4 -21t-10 -39.5t-10 -35.5q14 2 35.5 4.5t39.5 3.5t22 1q6 0 12.5 -3.5t6.5 -9.5q0 -7 -6.5 -10t-12.5 -5q-22 -5 -43.5 -11.5t-44.5 -11.5q14 -16 25.5 -32t26.5 -38q2 -3 5 -9.5t3 -10.5
q0 -7 -2.5 -9.5t-7.5 -2.5q-4 0 -10.5 4t-8.5 6q-17 20 -33.5 34.5t-30.5 30.5q-7 -20 -15.5 -40.5t-19.5 -44.5q-3 -6 -7.5 -11.5t-10.5 -5.5z" />
  </g>

</svg>
