<?xml version="1.0" standalone="no"?>
<!DOCTYPE svg PUBLIC "-//W3C//DTD SVG 1.1//EN" "http://www.w3.org/Graphics/SVG/1.1/DTD/svg11.dtd" >
<svg xmlns="http://www.w3.org/2000/svg" xmlns:xlink="http://www.w3.org/1999/xlink" version="1.1" viewBox="-10 0 688 1000">
  <g transform="matrix(1 0 0 -1 0 800)">
   <path fill="currentColor"
d="M281 -54q-80 0 -131.5 28.5t-76.5 76t-25 102.5q0 45 16 91.5t46.5 88.5t75.5 75.5t103.5 52.5t128.5 19q80 0 131 -27t75.5 -70t24.5 -91q0 -38 -17.5 -74.5t-48 -66t-69 -47t-81.5 -17.5q-26 0 -36 12t-10 25q0 8 -2.5 11t-9.5 -3q-10 -8 -38 -23.5t-62 -15.5
q-44 0 -65 22.5t-21 55.5q0 29 15 61t44.5 60t73.5 46t102 18q14 0 27.5 -2t26.5 -6q9 -3 12.5 -4t5.5 -1q7 0 13.5 8t13.5 8q2 0 5.5 -1t7 -2.5t1.5 -3.5q-11 -15 -20 -29t-14 -24l-62 -126q-10 -21 -11 -35t21 -14q42 0 73 26t48 65.5t17 81.5q0 38 -18.5 71t-60 54
t-111.5 21q-68 0 -121.5 -25t-90.5 -66.5t-56.5 -90.5t-19.5 -97t20.5 -88.5t63 -65.5t109.5 -25q60 0 107 17t88 47q5 4 10.5 6t8.5 2q6 0 10 -6.5t2 -12.5q-3 -7 -24.5 -22t-56.5 -31.5t-78.5 -27.5t-89.5 -11zM301 127q16 0 29 5t29 13q9 5 18.5 13.5t18.5 27.5l43 95
q4 8 6.5 15t2.5 13q0 11 -10.5 16t-40.5 5q-48 0 -82 -22t-51.5 -52t-17.5 -54q0 -36 13.5 -55.5t41.5 -19.5z" />
  </g>

</svg>
