<?xml version="1.0" standalone="no"?>
<!DOCTYPE svg PUBLIC "-//W3C//DTD SVG 1.1//EN" "http://www.w3.org/Graphics/SVG/1.1/DTD/svg11.dtd" >
<svg xmlns="http://www.w3.org/2000/svg" xmlns:xlink="http://www.w3.org/1999/xlink" version="1.1" viewBox="-40 0 564 1000">
  <g transform="matrix(1 0 0 -1 0 800)">
   <path fill="currentColor"
d="M-6 -5q-24 0 -24 11q0 7 9.5 11t26.5 7q37 7 61.5 23t34.5 50l81 258q11 35 1.5 47.5t-45.5 18.5q-15 2 -19.5 7.5t-4.5 12.5q0 6 9 8.5t21 2.5h40t28 -0.5t32 -0.5q24 0 41.5 3t41.5 3q60 0 92.5 -13.5t45 -35t12.5 -46.5q0 -31 -19.5 -53.5t-45 -36t-43.5 -18.5
q-7 -1 -9 -4.5t2 -4.5q26 -5 44 -21.5t27.5 -39.5t9.5 -50q0 -40 -24.5 -67t-64 -42t-84 -21.5t-85.5 -6.5q-10 0 -29.5 2t-41.5 2q-23 0 -41 -1.5t-36.5 -3t-43.5 -1.5zM205 24q36 0 72 13.5t60 39t24 61.5q0 29 -17 51t-43 35t-55 13q-13 0 -24 -5.5t-15 -18.5l-43 -142
q-5 -17 9 -32t32 -15zM255 255q34 0 67.5 12t56.5 35.5t23 58.5q0 34 -23 52.5t-57 18.5q-19 0 -34.5 -6.5t-20.5 -24.5l-35 -112q-4 -11 2 -22.5t21 -11.5z" />
  </g>

</svg>
