<?xml version="1.0" standalone="no"?>
<!DOCTYPE svg PUBLIC "-//W3C//DTD SVG 1.1//EN" "http://www.w3.org/Graphics/SVG/1.1/DTD/svg11.dtd" >
<svg xmlns="http://www.w3.org/2000/svg" xmlns:xlink="http://www.w3.org/1999/xlink" version="1.1" viewBox="-10 0 467 1000">
  <g transform="matrix(1 0 0 -1 0 800)">
   <path fill="currentColor"
d="M235 -122q-47 0 -85 12t-56.5 35.5t-7.5 59.5q6 19 15 37t18 37.5t16 41.5q8 24 -2 40.5t-29.5 26t-41.5 11.5q-6 1 -11 4.5t-4 7.5q1 3 7.5 7.5t17.5 6.5q29 6 54 14.5t42.5 23.5t22.5 40q7 31 13 59t13 65q8 42 41.5 62.5t80 27t93.5 6.5q7 0 11.5 -3t2.5 -10
q-2 -6 -12 -9.5t-19 -4.5q-49 -4 -84.5 -16.5t-48.5 -52.5q-11 -36 -15 -62t-10 -61q-4 -25 -24.5 -44.5t-50 -32t-62.5 -15.5q-3 -1 -1.5 -2t3.5 -1q49 -10 69.5 -35.5t3.5 -67.5q-6 -16 -13 -32.5t-15 -36t-16 -44.5q-10 -34 13.5 -49.5t70.5 -20.5q8 -1 16.5 -4t8.5 -8
q0 -6 -6.5 -9.5t-18.5 -3.5z" />
  </g>

</svg>
