<?xml version="1.0" standalone="no"?>
<!DOCTYPE svg PUBLIC "-//W3C//DTD SVG 1.1//EN" "http://www.w3.org/Graphics/SVG/1.1/DTD/svg11.dtd" >
<svg xmlns="http://www.w3.org/2000/svg" xmlns:xlink="http://www.w3.org/1999/xlink" version="1.1" viewBox="-10 0 468 1000">
  <g transform="matrix(1 0 0 -1 0 800)">
   <path fill="currentColor"
d="M111 -117q-9 0 -10.5 12.5t5.5 34.5q35 114 54 184.5t27.5 109.5t10.5 58t2 25t1 11q3 8 13 17.5t21.5 22.5t15.5 28q2 5 0.5 10t-6.5 5q-23 0 -42 -5l-38 -10t-42 -5q-13 0 -19 9.5t-2 25.5q8 35 42 35q15 0 27.5 -3t24.5 -7t25.5 -7t29.5 -3q5 0 10.5 2.5t6.5 7.5
q8 24 10.5 43.5t4.5 36.5t5 36.5t10 43.5q6 20 18 27t25 7q12 0 19.5 -8t2.5 -26q-9 -31 -21.5 -55.5t-24 -48.5t-21.5 -56q-3 -10 7 -10q20 0 39 5t39 10t42 5q16 0 21.5 -9t1.5 -26t-12.5 -26t-27.5 -9q-23 0 -40.5 5t-33.5 10t-36 5q-6 0 -11 -4.5t-7 -12.5
q-4 -16 -0.5 -28t8 -21t1.5 -17q-1 -5 -6 -12.5t-16 -29.5q-10 -21 -26.5 -62t-40 -110.5t-56.5 -176.5q-4 -15 -11.5 -29.5t-19.5 -14.5z" />
  </g>

</svg>
