<?xml version="1.0" standalone="no"?>
<!DOCTYPE svg PUBLIC "-//W3C//DTD SVG 1.1//EN" "http://www.w3.org/Graphics/SVG/1.1/DTD/svg11.dtd" >
<svg xmlns="http://www.w3.org/2000/svg" xmlns:xlink="http://www.w3.org/1999/xlink" version="1.1" viewBox="-10 0 770 1000">
  <g transform="matrix(1 0 0 -1 0 800)">
   <path fill="currentColor"
d="M318 -14q-56 0 -108 10.5t-93.5 31t-65.5 50.5t-24 69t20.5 85.5t55 87.5t78.5 67.5t91 26.5q41 0 57 -19.5t16 -40.5q0 -30 -22.5 -53t-57 -39.5t-73 -26.5t-70.5 -14q-11 -1 -20 -16t-9 -29q0 -52 35.5 -85.5t93.5 -49.5t124 -16q68 0 131 12t113 36t79.5 59.5
t29.5 82.5q0 22 -5.5 35.5t-19.5 29.5q-6 7 -6 20q0 7 7.5 17.5t19.5 18.5t25 8q7 0 14 -10.5t11.5 -26t4.5 -31.5q0 -73 -37.5 -127.5t-100.5 -90.5t-139.5 -54t-154.5 -18zM125 244q11 0 37.5 6.5t55.5 20t50 35t21 51.5q0 14 -6 23t-21 9q-21 0 -45.5 -17t-47 -41
t-37 -47t-14.5 -34q0 -6 7 -6z" />
  </g>

</svg>
