<?xml version="1.0" standalone="no"?>
<!DOCTYPE svg PUBLIC "-//W3C//DTD SVG 1.1//EN" "http://www.w3.org/Graphics/SVG/1.1/DTD/svg11.dtd" >
<svg xmlns="http://www.w3.org/2000/svg" xmlns:xlink="http://www.w3.org/1999/xlink" version="1.1" viewBox="-10 0 297 1000">
  <g transform="matrix(1 0 0 -1 0 800)">
   <path fill="currentColor"
d="M122 135q-7 0 -10.5 8t-0.5 25q8 47 20.5 102.5t25 105t19.5 76.5q6 25 20 37t36 12q14 0 23.5 -7t13 -18.5t-1.5 -26.5q-5 -17 -18 -50.5t-30.5 -75t-35.5 -83.5l-33 -77q-6 -13 -13 -20.5t-15 -7.5zM77 -45q-21 0 -35 16t-14 36q0 29 21 48.5t51 19.5q21 0 35 -16
t14 -36q0 -28 -21.5 -48t-50.5 -20z" />
  </g>

</svg>
