<?xml version="1.0" standalone="no"?>
<!DOCTYPE svg PUBLIC "-//W3C//DTD SVG 1.1//EN" "http://www.w3.org/Graphics/SVG/1.1/DTD/svg11.dtd" >
<svg xmlns="http://www.w3.org/2000/svg" xmlns:xlink="http://www.w3.org/1999/xlink" version="1.1" viewBox="-204 0 1267 1000">
  <g transform="matrix(1 0 0 -1 0 800)">
   <path fill="currentColor"
d="M100 -290q-35 0 -60 11t-38 29.5t-13 38.5l36 47q20 -46 44.5 -65t62.5 -19q57 0 96.5 38t65.5 124l154 534q31 93 79 149.5t99.5 82t92.5 25.5q35 0 60 -11t38 -29t13 -39l-36 -47q-19 46 -44 65t-63 19q-57 0 -96.5 -38t-65.5 -124q-12 -40 -18 -59t-8 -24.5t-2 -8.5
q0 -5 3 -7t7 -2l213 3q7 0 7 -11q0 -4 -3.5 -11t-10 -12.5t-15.5 -5.5l-194 -1q-10 0 -16.5 -3.5t-8.5 -12.5l-109 -379q-26 -94 -72 -150.5t-98.5 -81.5t-99.5 -25zM-111 -290q-37 0 -60 12.5t-23 37.5q0 15 14.5 28.5t24.5 13.5q8 0 15 -8.5t17 -19.5q9 -10 21.5 -17
t30.5 -7q19 0 33 11t27.5 40t29.5 84l134 454q6 18 -14 18l-62 -1q-7 0 -10 3.5t-3 8.5q0 8 6 16.5t13 9.5l70 4q7 1 12 6.5t7 13.5l4 15q21 71 54 120.5t71.5 79.5t76.5 43.5t69 13.5q35 0 60 -11t38 -29t13 -39l-36 -47q-13 31 -28 49t-34 26.5t-45 8.5q-38 0 -68 -16.5
t-53 -52t-41 -93.5l-16.5 -55t-5 -17t-0.5 -5q0 -5 3 -7t7 -2l251 3q7 0 7 -11q0 -4 -3.5 -11t-10 -12.5t-15.5 -5.5l-232 -1q-10 0 -16.5 -3.5t-8.5 -12.5l-130 -456q-10 -40 -33.5 -73t-53 -57t-58 -37t-49.5 -13zM631 -18q-5 0 -9 4t-6 10t-2 12q0 15 3.5 30t9.5 37
l141 483q5 17 10 37.5t5 30.5t-12.5 15t-24.5 9q-7 2 -12.5 4.5t-5.5 6.5t3 7.5t14 7.5q8 3 22.5 8t31 10.5t30 9t18.5 3.5t11 -1t6 -9t-1.5 -14t-3.5 -13l-136 -470q-2 -7 0.5 -7t5.5 4q44 65 91 115.5t89 79.5t72 29q33 0 50.5 -22t17.5 -51q0 -51 -18.5 -108t-48.5 -109
t-65 -89q-6 -6 -18 -15.5t-28 -18.5t-32.5 -15.5t-30.5 -6.5q-7 0 -16.5 6t-16 15t-6.5 16q0 5 4 12t10 12t12 5q9 0 15.5 -3.5t11.5 -8.5q6 -5 12 -9t14 -4q17 0 36 20t36.5 53t31.5 72.5t22.5 79.5t8.5 74q0 23 -9.5 35.5t-28.5 12.5q-22 0 -49.5 -21.5t-57 -56.5
t-57.5 -75t-51 -78t-37 -65l-37.5 -72t-24.5 -24z" />
  </g>

</svg>
