<?xml version="1.0" standalone="no"?>
<!DOCTYPE svg PUBLIC "-//W3C//DTD SVG 1.1//EN" "http://www.w3.org/Graphics/SVG/1.1/DTD/svg11.dtd" >
<svg xmlns="http://www.w3.org/2000/svg" xmlns:xlink="http://www.w3.org/1999/xlink" version="1.1" viewBox="-183 0 819 1000">
  <g transform="matrix(1 0 0 -1 0 800)">
   <path fill="currentColor"
d="M-82 -288q-25 0 -45.5 4.5t-33 15.5t-12.5 30q0 18 12 31t27 13q8 0 15 -8t17 -17q9 -8 21.5 -15t30.5 -7q32 0 46.5 28t27.5 89q3 15 10 47t15 70.5t15.5 72.5t11.5 52q17 79 38 154t48 142q41 103 92 167t113.5 94.5t135.5 30.5q65 0 94 -24.5t29 -55.5q0 -24 -19 -50
t-48.5 -51.5t-60.5 -49.5t-55 -44q-17 -14 -33.5 -27.5t-27 -32t-10.5 -47.5q0 -8 6.5 -27t15 -39t13.5 -31q13 -26 21 -50t8 -47q0 -37 -19 -61.5t-36 -37.5q-22 -17 -52.5 -31t-68.5 -14q-28 0 -45 12.5t-17 31.5q0 20 8.5 33t19.5 13q6 0 14 -5.5t16 -13.5
q10 -8 22.5 -15.5t34.5 -7.5q23 0 43.5 17.5t20.5 46.5q0 18 -7.5 41.5t-20.5 48.5q-10 22 -23 52t-13 52q0 25 11 49t34 49t59 53q13 10 35.5 27.5t46 40t40 48t16.5 50.5q0 26 -21 46t-64 20t-82 -25.5t-71.5 -66.5t-57.5 -88t-40 -89q-20 -56 -40 -123.5t-37 -139.5
t-30 -143q-8 -44 -23 -94t-38.5 -94t-56 -72t-76.5 -28z" />
  </g>

</svg>
