<?xml version="1.0" standalone="no"?>
<!DOCTYPE svg PUBLIC "-//W3C//DTD SVG 1.1//EN" "http://www.w3.org/Graphics/SVG/1.1/DTD/svg11.dtd" >
<svg xmlns="http://www.w3.org/2000/svg" xmlns:xlink="http://www.w3.org/1999/xlink" version="1.1" viewBox="-10 0 649 1000">
  <g transform="matrix(1 0 0 -1 0 800)">
   <path fill="currentColor"
d="M417 -10q-28 0 -47.5 6.5t-31.5 13t-16 6.5q-6 0 -17 -8.5t-20 -8.5q-8 0 -8 17q0 4 8 18.5t18 37.5t15 50q2 8 5 15.5t10 7.5q8 0 9.5 -10.5t1.5 -23.5q0 -38 25.5 -66.5t62.5 -28.5q41 0 64 27.5t23 65.5q0 33 -14.5 60t-42 43t-67.5 16q-7 0 -7.5 6t4.5 11l152 154
q-11 13 -33 22t-47 9q-50 0 -93 -25t-73.5 -64.5t-43.5 -81.5l-50 -162q-10 -34 -8.5 -50t34.5 -23q15 -3 20 -7t5 -11q0 -6 -9 -8.5t-21 -2.5q-25 0 -36.5 1.5t-20 2.5t-24.5 1q-35 0 -58.5 -2.5t-61.5 -2.5q-12 0 -18 2.5t-6 8.5q0 12 36 18q25 5 44 13t32 22.5t20 37.5
l53 172q20 65 63 107.5t101.5 63t124.5 20.5q28 0 50.5 -3.5t43.5 -8.5t42 -11q7 -1 13 -7t6 -15q0 -10 -11 -20.5t-23 -22.5l-102 -106q-8 -8 -7.5 -12.5t10.5 -7.5q42 -11 70.5 -38.5t28.5 -72.5q0 -46 -24 -78.5t-64 -49.5t-90 -17z" />
  </g>

</svg>
