<?xml version="1.0" standalone="no"?>
<!DOCTYPE svg PUBLIC "-//W3C//DTD SVG 1.1//EN" "http://www.w3.org/Graphics/SVG/1.1/DTD/svg11.dtd" >
<svg xmlns="http://www.w3.org/2000/svg" xmlns:xlink="http://www.w3.org/1999/xlink" version="1.1" viewBox="-31 0 612 1000">
  <g transform="matrix(1 0 0 -1 0 800)">
   <path fill="currentColor"
d="M0 -3q-6 0 -14 1t-6 8q2 8 10.5 11.5t18.5 6.5q16 5 31.5 11.5t22.5 27.5l84 274q7 20 -2.5 27.5t-23.5 11.5q-7 3 -13 7t-4 11t11 8t15 1q20 0 29 -1t17.5 -2.5t25.5 -1.5q18 0 26.5 1.5t18.5 2.5t29 1q6 0 14 -1t6 -8t-10.5 -11t-18.5 -7q-16 -4 -29.5 -11.5
t-20.5 -27.5l-32 -105q-1 -4 2.5 -5t5.5 -1h186q2 0 4.5 2t3.5 6l31 103q7 20 -1 27.5t-22 11.5q-7 3 -13 7t-4 11t10.5 8t15.5 1q20 0 28.5 -1t16.5 -2.5t25 -1.5q18 0 27 1.5t19.5 2.5t29.5 1q7 0 14.5 -1t5.5 -8t-10.5 -11t-18.5 -7q-16 -4 -31 -11.5t-22 -27.5l-84 -274
q-7 -20 5.5 -27t26.5 -12q7 -3 13 -6.5t4 -11.5q-2 -7 -11 -8t-15 -1q-19 0 -29.5 1.5t-19.5 2.5t-27 1q-17 0 -27.5 -1t-21.5 -2.5t-31 -1.5q-6 0 -14 1t-6 8q2 8 10.5 11.5t18.5 6.5q16 5 31.5 12t22.5 27l38 125q2 4 1 4.5t-3 0.5h-194q-2 0 -3 -1.5t-2 -5.5l-38 -123
q-7 -21 5.5 -27.5t26.5 -11.5q7 -3 13 -6.5t4 -11.5q-2 -7 -11 -8t-15 -1q-19 0 -29.5 1.5t-19.5 2.5t-27 1t-28 -1t-21 -2.5t-31 -1.5z" />
  </g>

</svg>
