<?xml version="1.0" standalone="no"?>
<!DOCTYPE svg PUBLIC "-//W3C//DTD SVG 1.1//EN" "http://www.w3.org/Graphics/SVG/1.1/DTD/svg11.dtd" >
<svg xmlns="http://www.w3.org/2000/svg" xmlns:xlink="http://www.w3.org/1999/xlink" version="1.1" viewBox="-10 0 237 1000">
  <g transform="matrix(1 0 0 -1 0 800)">
   <path fill="currentColor"
d="M100 509q-9 0 -15.5 9t-6.5 19q0 13 14.5 27t27.5 22q16 10 26.5 19t10.5 20q0 9 -6.5 14.5t-17.5 5.5q-14 0 -22.5 -8t-29.5 -29q-4 -4 -8.5 -8t-9.5 -4t-11.5 12t-6.5 21q0 6 7 12.5t14 10.5q17 10 40 17.5t48 7.5q26 0 44.5 -13.5t18.5 -36.5t-25 -42t-51 -28
q-10 -4 -16 -7.5t-8 -8.5q-1 -3 0 -6.5t0 -8.5q-1 -7 -5 -12t-12 -5z" />
  </g>

</svg>
