<?xml version="1.0" standalone="no"?>
<!DOCTYPE svg PUBLIC "-//W3C//DTD SVG 1.1//EN" "http://www.w3.org/Graphics/SVG/1.1/DTD/svg11.dtd" >
<svg xmlns="http://www.w3.org/2000/svg" xmlns:xlink="http://www.w3.org/1999/xlink" version="1.1" viewBox="-40 0 660 1000">
  <g transform="matrix(1 0 0 -1 0 800)">
   <path fill="currentColor"
d="M-6 -5q-12 0 -18 2.5t-6 8.5q0 7 9.5 11t26.5 7q37 7 61.5 23t34.5 50l78 252q11 35 1.5 50t-42.5 22q-15 3 -19.5 8t-4.5 12q0 6 9 8.5t21 2.5q25 0 40.5 -0.5t29.5 -1.5t34 -1q16 0 25 1t21 1.5t37 0.5q24 0 24 -11q0 -14 -37 -20q-27 -4 -42.5 -20.5t-26.5 -51.5
l-27 -88q-1 -6 0 -12.5t7 -6.5t26 13t36 26q26 20 52 39.5t51.5 39t51.5 38.5q12 9 2 15.5t-18 7.5q-15 3 -19.5 8t-4.5 12q0 6 9 8.5t21 2.5q25 0 37 -0.5t21.5 -1.5t25.5 -1q13 0 17.5 1t13.5 1.5t34 0.5q12 0 18 -2.5t6 -8.5q0 -7 -10 -12t-27 -8q-27 -5 -51.5 -12
t-51.5 -27q-37 -28 -74.5 -55t-74.5 -55q-9 -7 -10 -13.5t6 -19.5q41 -79 68.5 -123.5t52.5 -64.5t56 -27q15 -3 20 -7t5 -11q0 -6 -9 -8.5t-21 -2.5q-21 0 -34.5 1.5t-26.5 2.5t-33 1q-10 0 -28.5 19.5t-46.5 65t-68 123.5q-3 6 -7.5 8.5t-12.5 2.5q-9 0 -16.5 -3
t-10.5 -12q-6 -18 -11.5 -35.5t-10.5 -35.5t-11 -36q-10 -34 4.5 -51t39.5 -22q15 -3 20 -7t5 -11q0 -6 -9 -8.5t-21 -2.5q-29 0 -48.5 2.5t-48.5 2.5q-35 0 -58.5 -2.5t-61.5 -2.5z" />
  </g>

</svg>
