<?xml version="1.0" standalone="no"?>
<!DOCTYPE svg PUBLIC "-//W3C//DTD SVG 1.1//EN" "http://www.w3.org/Graphics/SVG/1.1/DTD/svg11.dtd" >
<svg xmlns="http://www.w3.org/2000/svg" xmlns:xlink="http://www.w3.org/1999/xlink" version="1.1" viewBox="-83 0 422 1000">
  <g transform="matrix(1 0 0 -1 0 800)">
   <path fill="currentColor"
d="M-60 -144q-5 0 -9 2.5t-3 6.5q2 6 19 10q11 3 19.5 8t12.5 17l89 291q2 7 2.5 23.5t-14.5 20.5q-7 2 -5 12t12 12q26 5 43.5 12t34.5 12q4 0 3 -8q-3 -10 -12.5 -29.5t-17.5 -47.5l-57 -183q-3 -9 1.5 -10t12.5 3q11 6 21 12t19.5 12.5t19 14t19.5 15.5q4 3 4.5 9t-7.5 9
q-4 2 -7 4t-2 6q3 7 7.5 8.5t9.5 1.5h28q8 0 21 0.5t27 1t26 0.5q7 0 5 -9q-1 -4 -4.5 -8t-11.5 -5q-13 -2 -26.5 -5.5t-22.5 -9.5l-94 -60q-3 -1 -4.5 -5t1.5 -9l62 -88q8 -10 21.5 -17.5t21.5 -10.5q7 -2 9.5 -5.5t0.5 -4.5q-5 -1 -9 -5t-9 -4q-14 0 -25 1t-25 1
q-15 0 -25.5 -1t-25.5 -1q-5 0 -9 2.5t-3 6.5q4 11 19 13t19 10q2 4 -1 9l-66 86q-1 2 -3.5 1t-4.5 -5l-24 -79q-4 -12 -0.5 -17t11.5 -8q7 -2 10 -3.5t1 -6.5q-1 -4 -7 -6.5t-11 -2.5q-11 0 -20 1t-20 1q-13 0 -23.5 -1t-23.5 -1z" />
  </g>

</svg>
