<?xml version="1.0" standalone="no"?>
<!DOCTYPE svg PUBLIC "-//W3C//DTD SVG 1.1//EN" "http://www.w3.org/Graphics/SVG/1.1/DTD/svg11.dtd" >
<svg xmlns="http://www.w3.org/2000/svg" xmlns:xlink="http://www.w3.org/1999/xlink" version="1.1" viewBox="-29 0 525 1000">
  <g transform="matrix(1 0 0 -1 0 800)">
   <path fill="currentColor"
d="M475 81q4 0 7.5 4.5t3.5 8.5q0 7 -5 24.5t-19 23.5l-380 154q-2 1 -2.5 2.5t1.5 2.5l373 154q16 7 23.5 24.5t7.5 26.5t-5 9h-8l-437 -180q-15 -6 -24 -22.5t-9 -23.5q0 -4 13.5 -13t27.5 -14l429 -180q1 0 1.5 -0.5t1.5 -0.5zM460 58h-447q-17 0 -22 -15t-9 -31
q-1 -5 3.5 -9t9.5 -4h455q11 0 16 9.5t6.5 21t1.5 16.5q0 4 -4.5 8t-9.5 4z" />
  </g>

</svg>
