<?xml version="1.0" standalone="no"?>
<!DOCTYPE svg PUBLIC "-//W3C//DTD SVG 1.1//EN" "http://www.w3.org/Graphics/SVG/1.1/DTD/svg11.dtd" >
<svg xmlns="http://www.w3.org/2000/svg" xmlns:xlink="http://www.w3.org/1999/xlink" version="1.1" viewBox="-10 0 537 1000">
  <g transform="matrix(1 0 0 -1 0 800)">
   <path fill="currentColor"
d="M63 -16q-6 0 -11.5 4.5t-9.5 11t-5.5 14.5t1.5 14l116 284q18 44 2 44q-10 0 -21 -2.5t-24 -12.5t-29 -31q-4 -4 -8.5 -3.5t-6.5 7.5q0 6 3.5 15.5t8.5 19t9 15.5q15 23 40.5 36t59.5 14q11 0 20 -5.5t13.5 -15.5t-0.5 -22l-66 -170q-3 -7 1.5 -8t7.5 4q41 70 83.5 118.5
t81.5 73.5t69 25q21 0 36.5 -14.5t20 -39t-9.5 -56.5l-92 -218q-15 -36 5 -36q12 0 29.5 9t35.5 21.5t31.5 23t17.5 14.5q1 1 1.5 1h1.5q3 0 5.5 -2.5t2.5 -6.5q0 -8 -4 -14q-26 -31 -55.5 -56t-61 -39.5t-63.5 -14.5q-9 0 -18 6.5t-13.5 16.5t0.5 21q29 67 58.5 133.5
t55.5 133.5q16 41 11 57.5t-19 17.5q-11 1 -26 -7.5t-34 -26t-41 -44.5q-12 -14 -32 -43.5t-45 -68t-51.5 -82t-50.5 -85.5q-9 -16 -16 -23.5t-15 -7.5zM317 462q-7 0 -10 7t-8 23q-4 15 -8 37.5t-7.5 45.5t-5.5 40t-2 21q0 6 2 13.5t6 7.5q9 0 17 -17q6 -15 16.5 -41.5
t19.5 -49.5q3 -8 9 0q23 23 49.5 49t43.5 43q5 5 12 10.5t11 5.5q9 0 9 -9q0 -4 -2 -8.5t-5 -9.5q-8 -12 -26.5 -36.5t-38.5 -50t-32 -39.5q-13 -16 -27.5 -29t-22.5 -13z" />
  </g>

</svg>
