<?xml version="1.0" standalone="no"?>
<!DOCTYPE svg PUBLIC "-//W3C//DTD SVG 1.1//EN" "http://www.w3.org/Graphics/SVG/1.1/DTD/svg11.dtd" >
<svg xmlns="http://www.w3.org/2000/svg" xmlns:xlink="http://www.w3.org/1999/xlink" version="1.1" viewBox="-15 0 542 1000">
  <g transform="matrix(1 0 0 -1 0 800)">
   <path fill="currentColor"
d="M6 -31q-7 0 -9 3.5t-2 6.5q0 5 5 8.5t13 3.5q42 0 89 22.5t94 61t90 87t76 101.5t52.5 105t19.5 97q0 52 -20.5 90t-58.5 38q-33 0 -63 -23t-49 -57.5t-19 -69.5t18 -60.5t46 -25.5q29 0 45.5 8.5t36.5 17.5q7 4 7 -3q0 -1 -1 -5.5t-2 -5.5q-16 -21 -39 -35
q-8 -5 -24.5 -14t-35.5 -15.5t-36 -6.5q-40 0 -69.5 29t-29.5 69q0 39 24 80t62.5 76t83.5 56t87 21q36 0 63 -21.5t42 -57t15 -79.5q0 -51 -23 -107.5t-63 -113t-91 -107t-108.5 -90t-115.5 -62t-110 -22.5z" />
  </g>

</svg>
