<?xml version="1.0" standalone="no"?>
<!DOCTYPE svg PUBLIC "-//W3C//DTD SVG 1.1//EN" "http://www.w3.org/Graphics/SVG/1.1/DTD/svg11.dtd" >
<svg xmlns="http://www.w3.org/2000/svg" xmlns:xlink="http://www.w3.org/1999/xlink" version="1.1" viewBox="-10 0 522 1000">
  <g transform="matrix(1 0 0 -1 0 800)">
   <path fill="currentColor"
d="M147 -144q-31 0 -51 13t-29.5 33t-9.5 42q0 35 22 64.5t63 29.5q15 0 23 -5.5t8 -17.5q0 -17 -10 -24.5t-25 -11.5q-19 -5 -30 -13.5t-11 -27.5q0 -21 14.5 -34.5t36.5 -13.5q29 0 57.5 21.5t47.5 85.5l23 71q2 6 0.5 11t-8.5 5q-97 0 -147 42t-50 123q0 62 29.5 103
t80.5 64.5t116 33t135 9.5h32.5t28.5 -2q5 0 7 -10t1 -15q-1 -4 -3 -9t-7 -5q-2 0 -14.5 1l-25 2t-14.5 1q-4 0 -8 -3t-6 -9l-129 -413q-15 -50 -37 -81.5t-49.5 -45.5t-60.5 -14zM277 119q9 0 12 9l91 283q3 9 -0.5 11.5t-7.5 2.5q-15 0 -30 -7t-30.5 -34.5t-34.5 -89.5
q-11 -36 -20 -74t-9 -56q0 -24 8 -34.5t21 -10.5z" />
  </g>

</svg>
