<?xml version="1.0" standalone="no"?>
<!DOCTYPE svg PUBLIC "-//W3C//DTD SVG 1.1//EN" "http://www.w3.org/Graphics/SVG/1.1/DTD/svg11.dtd" >
<svg xmlns="http://www.w3.org/2000/svg" xmlns:xlink="http://www.w3.org/1999/xlink" version="1.1" viewBox="-10 0 556 1000">
  <g transform="matrix(1 0 0 -1 0 800)">
   <path fill="currentColor"
d="M215 156q-32 0 -52.5 10t-29.5 25.5t-9 30.5q0 18 13 32t37 14q15 0 24 -11t5 -27q-2 -9 2 -20.5t20 -11.5q26 0 49.5 23t36.5 65l28 93q2 6 2 11t-5 5q-41 0 -80 17.5t-64.5 48t-25.5 68.5q0 51 23.5 89t64.5 63t94.5 37t112.5 12q30 0 46.5 -1.5t22.5 -4t6 -6.5
q0 -7 -5 -14.5t-10 -7.5q-4 0 -15.5 0.5t-14.5 0.5q-5 0 -11 -4.5t-8 -12.5l-116 -379q-20 -66 -54.5 -105.5t-86.5 -39.5z" />
  </g>

</svg>
