<?xml version="1.0" standalone="no"?>
<!DOCTYPE svg PUBLIC "-//W3C//DTD SVG 1.1//EN" "http://www.w3.org/Graphics/SVG/1.1/DTD/svg11.dtd" >
<svg xmlns="http://www.w3.org/2000/svg" xmlns:xlink="http://www.w3.org/1999/xlink" version="1.1" viewBox="-10 0 305 1000">
  <g transform="matrix(1 0 0 -1 0 800)">
   <path fill="currentColor"
d="M60 -131q-13 29 -25.5 83.5t-12.5 123t22 138.5q14 43 38.5 85.5t54 80.5t59.5 67t54 45q14 9 25 7.5t9 -11.5q-1 -4 -5 -9.5t-12 -11.5q-39 -30 -72 -75t-58.5 -95.5t-40.5 -99.5q-18 -59 -22.5 -115.5t1 -104t15.5 -79.5q2 -4 2.5 -9t-1.5 -10q-5 -12 -16.5 -14
t-14.5 4z" />
  </g>

</svg>
