<?xml version="1.0" standalone="no"?>
<!DOCTYPE svg PUBLIC "-//W3C//DTD SVG 1.1//EN" "http://www.w3.org/Graphics/SVG/1.1/DTD/svg11.dtd" >
<svg xmlns="http://www.w3.org/2000/svg" xmlns:xlink="http://www.w3.org/1999/xlink" version="1.1" viewBox="-10 0 428 1000">
  <g transform="matrix(1 0 0 -1 0 800)">
   <path fill="currentColor"
d="M122 -216q-27 0 -42 39q-27 71 -38.5 131t-11.5 118q0 120 42.5 231.5t119 210.5t177.5 179q15 12 29 12q10 0 10 -6q0 -4 -3 -9.5t-11 -13.5q-58 -61 -110.5 -130t-93.5 -143.5t-65 -153.5t-24 -160q0 -57 1 -103.5t7.5 -89.5t21.5 -90q3 -9 0.5 -15.5t-9.5 -6.5z" />
  </g>

</svg>
