<?xml version="1.0" standalone="no"?>
<!DOCTYPE svg PUBLIC "-//W3C//DTD SVG 1.1//EN" "http://www.w3.org/Graphics/SVG/1.1/DTD/svg11.dtd" >
<svg xmlns="http://www.w3.org/2000/svg" xmlns:xlink="http://www.w3.org/1999/xlink" version="1.1" viewBox="-17 0 503 1000">
  <g transform="matrix(1 0 0 -1 0 800)">
   <path fill="currentColor"
d="M3 -159q-4 0 -7.5 3t-0.5 6l369 390q6 6 13 8t14 2q4 0 5.5 -3.5t-1.5 -6.5l-368 -390q-5 -6 -11 -7.5t-13 -1.5zM71 18q-39 0 -48 33.5t4 74.5q8 26 26 51t43 41.5t52 16.5q25 0 37.5 -15t13.5 -38.5t-7 -49.5q-8 -28 -25.5 -54t-42 -43t-53.5 -17zM82 32q14 0 27 15
t23.5 37t15.5 41q6 20 7.5 42t-2.5 37t-16 15t-25.5 -14t-24.5 -34t-16 -39q-6 -21 -8.5 -44.5t2 -39.5t17.5 -16zM241 -151q-39 0 -48 33.5t4 74.5q8 26 26.5 51t43.5 41.5t52 16.5q25 0 37.5 -15t13.5 -38.5t-7 -49.5q-8 -28 -26 -54t-42.5 -43t-53.5 -17zM252 -137
q14 0 27 15t23.5 37t15.5 41q6 20 7.5 42t-2.5 37t-16 15t-25 -14t-24 -34t-16 -39q-6 -21 -8.5 -44.5t1.5 -39.5t17 -16z" />
  </g>

</svg>
