<?xml version="1.0" standalone="no"?>
<!DOCTYPE svg PUBLIC "-//W3C//DTD SVG 1.1//EN" "http://www.w3.org/Graphics/SVG/1.1/DTD/svg11.dtd" >
<svg xmlns="http://www.w3.org/2000/svg" xmlns:xlink="http://www.w3.org/1999/xlink" version="1.1" viewBox="-27 0 599 1000">
  <g transform="matrix(1 0 0 -1 0 800)">
   <path fill="currentColor"
d="M420 -230q-42 0 -83.5 24t-83.5 52q-37 26 -74 45.5t-75 19.5q-16 0 -35 -6t-35.5 -12t-27.5 -6q-7 0 -15 2t-8 13q0 10 8 16.5t17 9.5q21 5 48 14t56.5 19.5t57 21t48.5 19.5q11 5 13 8.5t-11 4.5q-66 8 -111.5 47.5t-45.5 106.5q0 60 24 113t65.5 93t95.5 62.5
t114 22.5q48 0 88.5 -23.5t64.5 -63t24 -87.5q0 -46 -18.5 -90t-51 -82.5t-75.5 -70.5t-93.5 -53.5t-103.5 -30.5q-4 -1 -5.5 -4.5t3.5 -5.5q30 -7 63.5 -29.5t67.5 -45.5q32 -21 63.5 -37.5t60.5 -16.5q31 0 53 7.5t38 14.5q5 2 8.5 3t7.5 1q5 0 4.5 -4.5t-2.5 -6.5
q-11 -13 -31 -28.5t-47 -26t-61 -10.5zM276 37q34 0 66.5 22t58.5 60.5t41.5 88t15.5 103.5q0 30 -12.5 57.5t-35.5 45t-57 17.5q-45 0 -83 -24.5t-66 -64.5t-43.5 -89t-15.5 -97q0 -34 20 -61t50 -42.5t61 -15.5z" />
  </g>

</svg>
