<?xml version="1.0" standalone="no"?>
<!DOCTYPE svg PUBLIC "-//W3C//DTD SVG 1.1//EN" "http://www.w3.org/Graphics/SVG/1.1/DTD/svg11.dtd" >
<svg xmlns="http://www.w3.org/2000/svg" xmlns:xlink="http://www.w3.org/1999/xlink" version="1.1" viewBox="-10 0 386 1000">
  <g transform="matrix(1 0 0 -1 0 800)">
   <path fill="currentColor"
d="M108 310q-4 0 -2.5 8t3.5 15q5 13 8.5 25t7.5 23q8 24 14.5 48.5t13.5 55.5q2 11 11 21t17 15q14 9 25 15t22 6t6.5 -18t-11.5 -34q-11 -26 -23 -48t-23.5 -41.5t-22.5 -35.5t-20 -30q-6 -9 -14 -17t-12 -8zM238 310q-4 0 -2.5 8t3.5 15q5 13 8.5 25t7.5 23
q8 24 14.5 48.5t13.5 55.5q2 11 11 21t17 15q14 9 25 15t22 6t6.5 -18t-11.5 -34q-11 -26 -23 -48t-23.5 -41.5t-22.5 -35.5t-20 -30q-6 -9 -14 -17t-12 -8z" />
  </g>

</svg>
