<?xml version="1.0" standalone="no"?>
<!DOCTYPE svg PUBLIC "-//W3C//DTD SVG 1.1//EN" "http://www.w3.org/Graphics/SVG/1.1/DTD/svg11.dtd" >
<svg xmlns="http://www.w3.org/2000/svg" xmlns:xlink="http://www.w3.org/1999/xlink" version="1.1" viewBox="-82 0 330 1000">
  <g transform="matrix(1 0 0 -1 0 800)">
   <path fill="currentColor"
d="M-59 -144q-2 0 -7.5 3t-4.5 7q2 5 8 8.5t12 5.5q11 2 20.5 6t13.5 16l35 112q5 17 2 28.5t-18 15.5q-3 1 -3.5 4t0.5 7q4 10 10 11q23 8 39.5 17t32.5 16q5 0 8 -1t4 -3q-1 -3 -3.5 -11.5t-9.5 -22.5q-3 -6 1 -6q3 0 8 3t8 5q19 14 36.5 20.5t37.5 6.5q14 0 23.5 -6.5
t6.5 -18.5q-1 -6 -8 -15t-15.5 -16t-15.5 -7q-5 0 -10 2t-10 3q-6 2 -11.5 4t-10.5 2q-16 0 -35.5 -9t-28.5 -39l-31 -99q-4 -12 7.5 -17.5t20.5 -7.5q5 -2 8.5 -5.5t1.5 -8.5q-1 -4 -8.5 -7t-9.5 -3q-15 0 -27.5 0.5t-27.5 0.5q-13 0 -24 -0.5t-25 -0.5z" />
  </g>

</svg>
