<?xml version="1.0" standalone="no"?>
<!DOCTYPE svg PUBLIC "-//W3C//DTD SVG 1.1//EN" "http://www.w3.org/Graphics/SVG/1.1/DTD/svg11.dtd" >
<svg xmlns="http://www.w3.org/2000/svg" xmlns:xlink="http://www.w3.org/1999/xlink" version="1.1" viewBox="-34 0 590 1000">
  <g transform="matrix(1 0 0 -1 0 800)">
   <path fill="currentColor"
d="M297 -36q-38 0 -64.5 15.5t-48.5 33.5q-19 17 -37 29.5t-39 12.5q-3 0 -12.5 -7.5t-21.5 -19.5t-23 -25q-13 -15 -28 -21.5t-26 -5.5q-21 0 -21 28q0 21 18 38.5t48 30.5t64 18q5 1 8 4.5t6 7.5q26 38 43 80.5t35 84.5q47 109 106 160t156 51q45 0 65.5 -23.5t20.5 -51.5
q0 -24 -16 -43.5t-45 -19.5q-16 0 -18.5 3.5t-1.5 10.5q2 6 3.5 11.5t2.5 10.5q2 7 2.5 13.5t-0.5 12.5q0 22 -10.5 34.5t-29.5 12.5q-36 0 -56 -17.5t-36.5 -54t-43.5 -95.5q-19 -41 -51 -88.5t-88 -92.5q-3 -1 -3.5 -5t4.5 -4q18 0 37.5 -8.5t39.5 -19.5
q23 -12 48.5 -22.5t51.5 -10.5q77 0 77 79q0 8 0.5 16t1.5 15q2 11 7 18t16 7q17 0 23 -12t6 -26q0 -29 -19.5 -58t-47.5 -53.5t-56.5 -39t-46.5 -14.5zM103 203q-5 -1 -8 3.5t-2 8.5q2 7 11.5 14t19.5 8l257 18q6 1 8.5 -3.5t1.5 -8.5q-2 -5 -14.5 -13t-23.5 -9z" />
  </g>

</svg>
