<?xml version="1.0" standalone="no"?>
<!DOCTYPE svg PUBLIC "-//W3C//DTD SVG 1.1//EN" "http://www.w3.org/Graphics/SVG/1.1/DTD/svg11.dtd" >
<svg xmlns="http://www.w3.org/2000/svg" xmlns:xlink="http://www.w3.org/1999/xlink" version="1.1" viewBox="-22 0 516 1000">
  <g transform="matrix(1 0 0 -1 0 800)">
   <path fill="currentColor"
d="M342 -3q-35 2 -53.5 3.5t-28.5 2t-19 0.5h-26h-58t-48 -0.5t-48.5 -1.5t-59.5 -3q-7 0 -11.5 10.5t6.5 19.5l213 177q47 39 90 85t70.5 95t27.5 96q0 44 -22 64t-66 20q-33 0 -70 -21t-68 -64q-4 -5 -9.5 -9.5t-10.5 -4.5q-4 0 -6 9t2 16q7 10 25 32.5t45 47t62 42
t75 17.5q61 0 95.5 -34t33.5 -87q0 -43 -19 -82.5t-49 -74t-62 -62.5q-18 -16 -48.5 -41t-66 -53.5t-68 -55t-55 -44t-27.5 -20.5q-7 -4 -1.5 -7.5t10.5 -4.5q15 -1 37.5 -2t48.5 -1t53.5 1t52.5 2q27 2 40.5 5t24.5 12.5t28 29.5q5 6 13 14t18 9q5 1 8.5 -6.5t0.5 -12.5
q-16 -25 -23.5 -35t-10.5 -15t-7.5 -13.5t-14.5 -30.5q-7 -16 -13 -20t-11 -4z" />
  </g>

</svg>
