<?xml version="1.0" standalone="no"?>
<!DOCTYPE svg PUBLIC "-//W3C//DTD SVG 1.1//EN" "http://www.w3.org/Graphics/SVG/1.1/DTD/svg11.dtd" >
<svg xmlns="http://www.w3.org/2000/svg" xmlns:xlink="http://www.w3.org/1999/xlink" version="1.1" viewBox="-10 0 1058 1000">
  <g transform="matrix(1 0 0 -1 0 800)">
   <path fill="currentColor"
d="M80 506h41v-104h-41v104zM80 349h41v-104h-41v104zM80 193h41v-104h-41v104zM80 36h41v-104h-41v104zM856 -184h71v64h41v-105h-112v41zM243 622v41h103v-41h-103zM399 622v41h103v-41h-103zM554 622v41h103v-41h-103zM710 622v41h103v-41h-103zM968 -68h-41v104h41v-104
zM968 89h-41v104h41v-104zM968 245h-41v104h41v-104zM968 402h-41v104h41v-104zM807 -184v-41h-102v41h102zM653 -184v-41h-102v41h102zM499 -184v-41h-101v41h101zM345 -184v-41h-102v41h102zM191 -225h-111v105h41v-64h70v-41zM927 559v63h-71v41h112v-104h-41zM80 559
v104h112v-41h-71v-63h-41zM271 -3q-5 0 -11 3t-5 9q2 8 11 11.5t18 4.5q28 5 51.5 16t31.5 38l87 281q10 31 0.5 44t-39.5 18q-8 2 -14 7t-4 12q2 6 10.5 9t13.5 3q20 0 35 -1t30 -2.5t33 -1.5t33.5 1.5t32 2.5t35.5 1q5 0 11.5 -3t4.5 -9q-2 -7 -11 -12t-19 -7
q-33 -5 -51.5 -22t-28.5 -48l-85 -274q-8 -26 -3.5 -35t26.5 -9h98q31 0 58.5 20.5t43.5 42.5q3 3 9.5 9t13.5 6t7 -5.5t-2 -10.5q-4 -10 -10.5 -21.5t-13.5 -23.5t-13.5 -22.5t-11.5 -18.5q-1 -4 -8 -8t-12 -4q-37 0 -71.5 1t-66 2t-60 2t-54.5 0q-27 -1 -49 -3.5t-51 -2.5
z" />
  </g>

</svg>
