<?xml version="1.0" standalone="no"?>
<!DOCTYPE svg PUBLIC "-//W3C//DTD SVG 1.1//EN" "http://www.w3.org/Graphics/SVG/1.1/DTD/svg11.dtd" >
<svg xmlns="http://www.w3.org/2000/svg" xmlns:xlink="http://www.w3.org/1999/xlink" version="1.1" viewBox="-10 0 1058 1000">
  <g transform="matrix(1 0 0 -1 0 800)">
   <path fill="currentColor"
d="M80 506h41v-104h-41v104zM80 349h41v-104h-41v104zM80 193h41v-104h-41v104zM80 36h41v-104h-41v104zM856 -184h71v64h41v-105h-112v41zM243 622v41h103v-41h-103zM399 622v41h103v-41h-103zM554 622v41h103v-41h-103zM710 622v41h103v-41h-103zM968 -68h-41v104h41v-104
zM968 89h-41v104h41v-104zM968 245h-41v104h41v-104zM968 402h-41v104h41v-104zM807 -184v-41h-102v41h102zM653 -184v-41h-102v41h102zM499 -184v-41h-101v41h101zM345 -184v-41h-102v41h102zM191 -225h-111v105h41v-64h70v-41zM927 559v63h-71v41h112v-104h-41zM80 559
v104h112v-41h-71v-63h-41zM492 -10q-25 0 -45 4.5t-34 8.5q-14 5 -23 9t-12 4t-7.5 -2.5t-9.5 -5.5q-5 -4 -8 -6t-8 -2t-9 3.5t-4 10.5q0 4 8.5 19t18.5 38.5t15 50.5q2 8 5 15.5t10 7.5q8 0 9.5 -10.5t1.5 -23.5q0 -27 15.5 -49t39.5 -34.5t51 -12.5q37 0 64 25.5t27 62.5
q0 27 -13.5 48.5t-55.5 52.5q-26 20 -46.5 38.5t-31.5 40t-11 49.5q0 38 21 66.5t56.5 44.5t80.5 16q23 0 40 -4.5t29 -10.5q14 -5 22 -10t12 -5q5 0 10 2.5t10 4.5q4 2 7.5 3.5t7.5 1.5q7 0 7.5 -5.5t0.5 -8.5q0 -1 -6.5 -13.5t-15 -32.5t-14.5 -46q-2 -10 -5 -16.5
t-11 -6.5q-7 0 -8.5 8t-1.5 15q0 25 -12.5 47.5t-33.5 37t-47 14.5q-34 0 -58.5 -23t-24.5 -58q0 -25 17 -46.5t63 -56.5q47 -34 65 -66t18 -63q0 -44 -25.5 -73t-66 -43.5t-84.5 -14.5z" />
  </g>

</svg>
