<?xml version="1.0" standalone="no"?>
<!DOCTYPE svg PUBLIC "-//W3C//DTD SVG 1.1//EN" "http://www.w3.org/Graphics/SVG/1.1/DTD/svg11.dtd" >
<svg xmlns="http://www.w3.org/2000/svg" xmlns:xlink="http://www.w3.org/1999/xlink" version="1.1" viewBox="-10 0 1058 1000">
  <g transform="matrix(1 0 0 -1 0 800)">
   <path fill="currentColor"
d="M80 506h41v-104h-41v104zM80 349h41v-104h-41v104zM80 193h41v-104h-41v104zM80 36h41v-104h-41v104zM856 -184h71v64h41v-105h-112v41zM243 622v41h103v-41h-103zM399 622v41h103v-41h-103zM554 622v41h103v-41h-103zM710 622v41h103v-41h-103zM968 -68h-41v104h41v-104
zM968 89h-41v104h41v-104zM968 245h-41v104h41v-104zM968 402h-41v104h41v-104zM807 -184v-41h-102v41h102zM653 -184v-41h-102v41h102zM499 -184v-41h-101v41h101zM345 -184v-41h-102v41h102zM191 -225h-111v105h41v-64h70v-41zM927 559v63h-71v41h112v-104h-41zM80 559
v104h112v-41h-71v-63h-41zM372 -175q-46 0 -65 13t-19 30q0 14 9 26.5t21.5 20.5t20.5 8q18 0 26 -6t12 -20q7 -17 15.5 -23t20.5 -6q31 0 53.5 35t41.5 95l110 355q9 30 1 47t-37 22q-9 2 -15.5 7t-3.5 12q2 6 10.5 9t13.5 3q20 0 35.5 -1t30.5 -2.5t33 -1.5t33 1.5
t31.5 2.5t35.5 1q5 0 11.5 -3t4.5 -9q-2 -7 -11 -12t-18 -7q-34 -5 -52.5 -22t-27.5 -47l-80 -258q-16 -52 -31 -91t-37 -70.5t-60 -61.5q-31 -25 -64 -36t-49 -11z" />
  </g>

</svg>
