<?xml version="1.0" standalone="no"?>
<!DOCTYPE svg PUBLIC "-//W3C//DTD SVG 1.1//EN" "http://www.w3.org/Graphics/SVG/1.1/DTD/svg11.dtd" >
<svg xmlns="http://www.w3.org/2000/svg" xmlns:xlink="http://www.w3.org/1999/xlink" version="1.1" viewBox="-10 0 1058 1000">
  <g transform="matrix(1 0 0 -1 0 800)">
   <path fill="currentColor"
d="M80 506h41v-104h-41v104zM80 349h41v-104h-41v104zM80 193h41v-104h-41v104zM80 36h41v-104h-41v104zM856 -184h71v64h41v-105h-112v41zM243 622v41h103v-41h-103zM399 622v41h103v-41h-103zM554 622v41h103v-41h-103zM710 622v41h103v-41h-103zM968 -68h-41v104h41v-104
zM968 89h-41v104h41v-104zM968 245h-41v104h41v-104zM968 402h-41v104h41v-104zM807 -184v-41h-102v41h102zM653 -184v-41h-102v41h102zM499 -184v-41h-101v41h101zM345 -184v-41h-102v41h102zM191 -225h-111v105h41v-64h70v-41zM927 559v63h-71v41h112v-104h-41zM80 559
v104h112v-41h-71v-63h-41zM179 -3q-5 0 -11 3t-5 9q2 8 11 11.5t18 4.5q28 5 51.5 16t31.5 38l84 273q9 30 1.5 47.5t-37.5 22.5q-8 2 -14 7t-4 12q2 6 10.5 9t13.5 3q20 0 35 -1t30 -2.5t33 -1.5t33.5 1.5t32 2.5t35.5 1q5 0 11.5 -3t4.5 -9q-2 -7 -11 -12t-19 -7
q-33 -5 -52 -22.5t-28 -47.5l-28 -93q-2 -6 8 -6q38 0 59.5 -1t51.5 -1q26 0 58 1t66 1q4 0 7 8l28 91q9 29 1.5 47t-37.5 23q-8 2 -14 7t-4 12q2 6 10.5 9t13.5 3q20 0 35 -1t30 -2.5t33 -1.5t33.5 1.5t32 2.5t35.5 1q5 0 11.5 -3t4.5 -9q-2 -7 -11 -12t-19 -7
q-33 -5 -52 -23t-28 -47l-84 -273q-8 -27 8 -38t41 -16q8 -1 14.5 -4.5t4.5 -11.5q-1 -6 -10 -9t-14 -3q-19 0 -35 1.5t-32.5 3t-37.5 1.5t-38.5 -1.5t-34.5 -3t-37 -1.5q-5 0 -11 3t-5 9q2 8 11 11.5t18 4.5q28 5 51.5 16t31.5 38l41 132q2 5 -3 5q-39 0 -66.5 1t-59.5 1
q-26 0 -54 -1t-63 -1q-2 0 -5 -7l-40 -130q-8 -27 8 -38t41 -16q8 -1 14.5 -4.5t4.5 -11.5q-1 -6 -10 -9t-14 -3q-19 0 -35 1.5t-32.5 3t-37.5 1.5t-38.5 -1.5t-34.5 -3t-37 -1.5z" />
  </g>

</svg>
