<?xml version="1.0" standalone="no"?>
<!DOCTYPE svg PUBLIC "-//W3C//DTD SVG 1.1//EN" "http://www.w3.org/Graphics/SVG/1.1/DTD/svg11.dtd" >
<svg xmlns="http://www.w3.org/2000/svg" xmlns:xlink="http://www.w3.org/1999/xlink" version="1.1" viewBox="-10 0 1058 1000">
  <g transform="matrix(1 0 0 -1 0 800)">
   <path fill="currentColor"
d="M80 506h41v-104h-41v104zM80 349h41v-104h-41v104zM80 193h41v-104h-41v104zM80 36h41v-104h-41v104zM856 -184h71v64h41v-105h-112v41zM243 622v41h103v-41h-103zM399 622v41h103v-41h-103zM554 622v41h103v-41h-103zM710 622v41h103v-41h-103zM968 -68h-41v104h41v-104
zM968 89h-41v104h41v-104zM968 245h-41v104h41v-104zM968 402h-41v104h41v-104zM807 -184v-41h-102v41h102zM653 -184v-41h-102v41h102zM499 -184v-41h-101v41h101zM345 -184v-41h-102v41h102zM191 -225h-111v105h41v-64h70v-41zM927 559v63h-71v41h112v-104h-41zM80 559
v104h112v-41h-71v-63h-41zM247 -5q-12 0 -18 3.5t-5 9.5q2 7 10.5 11t26.5 6q32 5 67.5 26t69.5 52l101 94q9 9 13 17.5t-1 22.5l-44 131q-9 26 -26.5 36t-50.5 17q-15 3 -19.5 8t-4.5 12q0 6 10.5 8.5t19.5 2.5q29 0 49 -1.5t48 -1.5q24 0 41.5 1.5t41.5 1.5q12 0 18 -2.5
t6 -8.5q0 -14 -37 -20q-22 -4 -21.5 -18t3.5 -26l25 -92q3 -10 9 -9t18 14l95 100q8 9 7.5 17t-14.5 11q-15 3 -19.5 8t-4.5 12q0 6 9 8.5t21 2.5h20.5h20.5h20q26 0 42.5 2.5t36.5 2.5q8 0 16 -2.5t8 -8.5q0 -7 -10 -12t-27 -8q-20 -4 -51.5 -19.5t-57.5 -41.5l-117 -117
q-4 -4 -4 -10.5t3 -17.5l45 -141q6 -18 28 -32t50 -20q15 -3 20 -7t5 -11q0 -6 -9 -8.5t-21 -2.5q-29 0 -48.5 2t-47.5 3q-21 1 -36 0.5t-36 -0.5q-12 0 -18 2.5t-6 8.5q0 7 9.5 11t26.5 7q11 2 10 13.5t-4 21.5l-28 103q-3 11 -9.5 10.5t-13.5 -8.5l-62 -67
q-33 -36 -32.5 -52.5t19.5 -19.5q16 -2 25 -7.5t7 -12.5q-1 -6 -9.5 -8.5t-20.5 -2.5q-13 0 -30 1t-43 1q-31 0 -61.5 -3t-53.5 -3z" />
  </g>

</svg>
