<?xml version="1.0" standalone="no"?>
<!DOCTYPE svg PUBLIC "-//W3C//DTD SVG 1.1//EN" "http://www.w3.org/Graphics/SVG/1.1/DTD/svg11.dtd" >
<svg xmlns="http://www.w3.org/2000/svg" xmlns:xlink="http://www.w3.org/1999/xlink" version="1.1" viewBox="-10 0 519 1000">
  <g transform="matrix(1 0 0 -1 0 800)">
   <path fill="currentColor"
d="M67 -14q-11 0 -22.5 9.5t-17.5 22.5t-3 21l105 253q7 17 9 29t-6 12q-5 0 -16.5 -8t-26 -20t-29.5 -25q-2 -2 -7.5 -1t-5.5 4q0 4 2 11.5t10 18.5q25 34 55.5 57t58 35.5t41.5 12.5q5 0 11.5 -5.5t10.5 -13t0 -14.5q-33 -68 -63 -138t-60 -138q-9 -20 -11 -37t8 -17
t30 17t45.5 44t53.5 58q38 43 73.5 89t61.5 83t34 52q5 10 12 13t13 3t12 -6t9.5 -14t0.5 -14l-128 -294q-8 -19 -7 -29t10 -10q13 0 34 14t43 32.5t37 33.5q1 1 3 1q3 0 6 -2.5t3 -6.5q0 -2 -1 -4l-2.5 -5t-4 -7t-6 -8.5t-8.5 -10.5q-19 -24 -44 -46.5t-53.5 -37
t-60.5 -14.5q-13 0 -23.5 17t-4.5 30q14 30 30 64t28.5 63t17.5 43q5 12 -1 13t-11 -5q-52 -57 -92 -99.5t-69.5 -70t-50 -41.5t-33.5 -14zM248 544q-4 0 -6.5 2.5t-2.5 6.5q0 6 4 14t10.5 14.5t14.5 6.5h207q9 0 9 -10q0 -8 -6.5 -16t-14.5 -13t-15 -5h-200z" />
  </g>

</svg>
