<?xml version="1.0" standalone="no"?>
<!DOCTYPE svg PUBLIC "-//W3C//DTD SVG 1.1//EN" "http://www.w3.org/Graphics/SVG/1.1/DTD/svg11.dtd" >
<svg xmlns="http://www.w3.org/2000/svg" xmlns:xlink="http://www.w3.org/1999/xlink" version="1.1" viewBox="-37 0 626 1000">
  <g transform="matrix(1 0 0 -1 0 800)">
   <path fill="currentColor"
d="M57 -290q-35 0 -56.5 14.5t-21.5 28.5q0 13 12.5 26.5t26.5 13.5q9 0 16.5 -6t14.5 -14q8 -8 19 -15t28 -7q27 0 45 27.5t31 70.5l57 191q2 5 -4.5 7t-7.5 2q-41 0 -73.5 -1.5t-69 -2.5t-89.5 -2q-4 0 -8 0.5t-3 4.5q0 1 2.5 4t3.5 4q46 39 109.5 98.5t138.5 130
t153 142.5q15 14 31.5 29t22.5 15q5 0 3 -4l-4 -8q-21 -68 -38.5 -121.5t-35 -106.5t-38.5 -122q-2 -6 3 -6q11 -1 21 -1h19q14 0 28.5 0.5t30.5 1.5q11 0 9 -7q-2 -8 -9 -18.5t-14 -18t-11 -7.5q-11 0 -24 0.5t-25 0.5q-9 0 -17 -0.5t-15 -1.5q-4 -1 -9.5 -3t-5.5 -3
l-57 -174q-9 -28 -30.5 -57t-50 -52.5t-57 -38t-51.5 -14.5zM81 101l153 -3q4 0 9 2.5t6 5.5l70 225q1 2 -3.5 2.5t-6.5 -1.5q-44 -41 -78.5 -75.5l-69 -69l-77.5 -77.5q-2 -2 -4 -5.5t1 -3.5zM308 -239q-7 0 -12.5 0.5t-5.5 5.5t7 8t18 9q29 16 49.5 34t31 38t10.5 40
q0 17 -10.5 25t-21.5 13q-11 6 -20.5 13.5t-9.5 22.5q0 17 17.5 28.5t37.5 11.5q27 0 46.5 -17.5t19.5 -52.5q0 -37 -15.5 -70t-40 -57t-51.5 -38t-50 -14z" />
  </g>

</svg>
