<?xml version="1.0" standalone="no"?>
<!DOCTYPE svg PUBLIC "-//W3C//DTD SVG 1.1//EN" "http://www.w3.org/Graphics/SVG/1.1/DTD/svg11.dtd" >
<svg xmlns="http://www.w3.org/2000/svg" xmlns:xlink="http://www.w3.org/1999/xlink" version="1.1" viewBox="-24 0 408 1000">
  <g transform="matrix(1 0 0 -1 0 800)">
   <path fill="currentColor"
d="M232 -288q-39 0 -65 23.5t-39.5 65.5t-13.5 95v369q-35 2 -64.5 12t-46.5 29t-17 46q0 40 26 65.5t69 25.5q9 0 17.5 -1t15.5 -3v127q0 29 -10.5 48.5t-35.5 24.5q-8 2 -8 13q0 10 7 12q26 6 46 13t37 14t33 13q1 0 1 0.5t1 0.5q2 0 4 -2.5t2 -4.5q0 -9 -3.5 -38.5
t-3.5 -97.5v-250q17 5 34 12t36 18q4 2 10.5 7.5t11.5 5.5q7 0 8 -5t1 -12q0 -3 -14 -14t-37 -24t-50 -23l-1 -321q0 -83 8 -130t23.5 -66.5t37.5 -19.5q27 0 38.5 13.5t11.5 27.5q0 7 6.5 15.5t17 16.5t21 13t18.5 5q6 0 7.5 -8t1.5 -18q0 -31 -19 -52t-51 -31t-72 -10z
M114 307v26q0 32 -12.5 56.5t-37.5 24.5q-11 0 -18.5 -9.5t-7.5 -20.5q0 -70 76 -77z" />
  </g>

</svg>
