<?xml version="1.0" standalone="no"?>
<!DOCTYPE svg PUBLIC "-//W3C//DTD SVG 1.1//EN" "http://www.w3.org/Graphics/SVG/1.1/DTD/svg11.dtd" >
<svg xmlns="http://www.w3.org/2000/svg" xmlns:xlink="http://www.w3.org/1999/xlink" version="1.1" viewBox="-10 0 257 1000">
  <g transform="matrix(1 0 0 -1 0 800)">
   <path fill="currentColor"
d="M128.326 404.83q-27.6504 0 -40.7666 16.6611t-13.8252 42.1846q0 32.6133 14.8887 59.9092t40.7666 43.957t57.7822 16.6611q19.8516 0 34.3857 -12.4072t14.5342 -32.9678q0 -17.0156 -6.38086 -24.1055t-19.1426 -7.08984l-93.5859 -0.708984
q-4.25391 0 -5.67188 -5.67188q-1.41797 -7.08984 -2.48145 -12.7617t-1.06348 -14.1797q0 -17.7246 9.92578 -30.4863t29.7773 -12.7617q12.0527 0 23.751 4.6084t23.751 13.8252q4.96289 3.54492 8.50781 3.54492q2.83594 0 5.67188 -3.54492t1.41797 -7.08984
q-0.708984 -1.41797 -3.19043 -4.25391t-6.02637 -6.38086q-9.92578 -8.50781 -29.4229 -17.7246t-43.6025 -9.2168zM129.744 527.484h65.2266q5.67188 0 8.8623 3.54492t3.19043 11.3438t-4.96289 17.7246t-19.1426 9.92578q-18.4336 0 -35.0947 -13.4707t-22.333 -24.1055
q-2.12695 -4.96289 4.25391 -4.96289z" />
  </g>

</svg>
