<?xml version="1.0" standalone="no"?>
<!DOCTYPE svg PUBLIC "-//W3C//DTD SVG 1.1//EN" "http://www.w3.org/Graphics/SVG/1.1/DTD/svg11.dtd" >
<svg xmlns="http://www.w3.org/2000/svg" xmlns:xlink="http://www.w3.org/1999/xlink" version="1.1" viewBox="-262 0 312 1000">
  <g transform="matrix(1 0 0 -1 0 800)">
   <path fill="currentColor"
d="M-236 -208q-5 0 -10.5 5.5t-5.5 10.5q0 4 9 17t22.5 28.5t27.5 27t23 11.5q17 0 35.5 -0.5t32.5 -2.5q17 -1 34 -2.5t30 -1.5q11 0 21.5 6t17.5 13t12 13.5t8 6.5q8 0 13.5 -4.5t5.5 -12.5q0 -3 -4.5 -8t-9.5 -10q-12 -12 -24.5 -28t-22.5 -28q-6 -7 -16 -10.5t-13 -3.5
q-6 0 -22.5 1t-37.5 3t-40 3t-31 1q-7 0 -17 -3.5t-16 -8.5q-9 -7 -14.5 -15t-7.5 -8z" />
  </g>

</svg>
