<?xml version="1.0" standalone="no"?>
<!DOCTYPE svg PUBLIC "-//W3C//DTD SVG 1.1//EN" "http://www.w3.org/Graphics/SVG/1.1/DTD/svg11.dtd" >
<svg xmlns="http://www.w3.org/2000/svg" xmlns:xlink="http://www.w3.org/1999/xlink" version="1.1" viewBox="-10 0 415 1000">
  <g transform="matrix(1 0 0 -1 0 800)">
   <path fill="currentColor"
d="M120 -14q-20 0 -43 13.5t-39 40t-16 64.5q0 35 12.5 77t36 83t55 75t69.5 54.5t80 20.5q20 0 33.5 -8t14.5 -10q2 -4 5 -2t4 6q2 12 3 24.5t1 24.5q2 58 -13 106t-48 76.5t-84 28.5q-19 0 -35.5 -5.5t-24.5 -5.5q-4 0 -9 2t-5 6q0 6 3 9.5t7 5.5q23 13 45 18.5t44 5.5
q53 0 93.5 -32t63 -86.5t22.5 -122.5q0 -63 -12 -129t-35 -127t-56.5 -109t-76.5 -76t-95 -28zM132 16q24 0 48.5 20.5t47 54t40 72t28 76t10.5 65.5q0 38 -8.5 59t-34.5 21q-24 0 -48.5 -20.5t-47 -54t-40 -72t-28 -76t-10.5 -65.5q0 -37 9 -58.5t34 -21.5z" />
  </g>

</svg>
