<?xml version="1.0" standalone="no"?>
<!DOCTYPE svg PUBLIC "-//W3C//DTD SVG 1.1//EN" "http://www.w3.org/Graphics/SVG/1.1/DTD/svg11.dtd" >
<svg xmlns="http://www.w3.org/2000/svg" xmlns:xlink="http://www.w3.org/1999/xlink" version="1.1" viewBox="-10 0 678 1000">
  <g transform="matrix(1 0 0 -1 0 800)">
   <path fill="currentColor"
d="M252 -15q-71 0 -123 24t-80 61t-29 76q-1 47 19 79.5t66 32.5h456l-10 -31l-379 -1q-29 0 -47.5 -24.5t-18.5 -76.5t42.5 -77t112.5 -25q55 0 103 22.5t86.5 62.5t66.5 91t42 109t12 116q-1 61 -18.5 108.5t-54 75t-95.5 27.5q-42 0 -78.5 -14.5t-66.5 -36.5t-53.5 -46
t-40.5 -43q-6 -7 -13.5 -13t-17.5 -6q-8 0 -6 8.5t6 17.5q6 13 14.5 37.5t19.5 48t24 32.5q6 5 24 2.5t39 4.5q30 11 63 24t90 13q88 0 143.5 -35t81.5 -93t25 -127q0 -58 -18.5 -118t-52.5 -114.5t-83.5 -98t-112.5 -68.5t-138 -25zM515 700q-16 0 -26.5 12t-10.5 27
q0 25 16.5 43t41.5 18q16 0 26 -13t10 -30q0 -15 -8 -28t-21 -21t-28 -8zM314 700q-16 0 -26.5 12t-10.5 27q0 25 16.5 43t41.5 18q16 0 26 -13t10 -30q0 -22 -17 -39.5t-40 -17.5z" />
  </g>

</svg>
