<?xml version="1.0" standalone="no"?>
<!DOCTYPE svg PUBLIC "-//W3C//DTD SVG 1.1//EN" "http://www.w3.org/Graphics/SVG/1.1/DTD/svg11.dtd" >
<svg xmlns="http://www.w3.org/2000/svg" xmlns:xlink="http://www.w3.org/1999/xlink" version="1.1" viewBox="-85 0 399 1000">
  <g transform="matrix(1 0 0 -1 0 800)">
   <path fill="currentColor"
d="M56 -14q-13 0 -29 14t-16 30q0 6 2 12l190 541q5 14 7.5 27t2.5 26q0 9 -9.5 17t-23.5 11q-10 2 -16 5.5t-6 7.5q0 3 0.5 5t2 4t3.5 2q19 5 46 9.5t50.5 8t31.5 3.5q5 0 8.5 -3.5t3.5 -11.5q0 -6 -2 -13.5t-4 -14.5l-202 -576q-3 -8 -4 -15.5t-1 -13.5q0 -16 10 -16
q14 0 34.5 15.5t40.5 37.5t32 39q6 8 14 15.5t12 7.5t4.5 -3.5t0.5 -9.5q0 -20 -13.5 -42t-35.5 -43.5t-47 -38.5t-48 -27t-39 -10zM-61 -274q-14 0 -14 8q0 4 4.5 8t12.5 5q24 5 47 18t38 31t15 36q0 11 -7 17t-18 10q-10 4 -18.5 11t-8.5 25q0 17 15 27.5t36 10.5
q23 0 42 -17t19 -54q0 -31 -17 -56t-43 -43t-54 -27.5t-49 -9.5z" />
  </g>

</svg>
