<?xml version="1.0" standalone="no"?>
<!DOCTYPE svg PUBLIC "-//W3C//DTD SVG 1.1//EN" "http://www.w3.org/Graphics/SVG/1.1/DTD/svg11.dtd" >
<svg xmlns="http://www.w3.org/2000/svg" xmlns:xlink="http://www.w3.org/1999/xlink" version="1.1" viewBox="-10 0 713 1000">
  <g transform="matrix(1 0 0 -1 0 800)">
   <path fill="currentColor"
d="M487 275q-31 0 -54 7.5t-45 17.5t-46 18t-55 8q-44 0 -82.5 -6.5t-56.5 -14.5l-1 23q13 14 38 28t54 23t53 9q32 0 56 -8t46 -18t45 -17.5t53 -7.5q44 0 83.5 6t55.5 15l1 -23q-14 -13 -38 -27t-52 -23.5t-55 -9.5zM303 -14q-78 0 -127.5 35.5t-73.5 94t-24 127.5
q0 72 25.5 146t75.5 136.5t122.5 100.5t166.5 38q78 0 128 -35.5t73.5 -94t23.5 -127.5q0 -72 -25.5 -146t-75.5 -136.5t-122.5 -100.5t-166.5 -38zM306 17q54 0 100.5 25.5t84 69t63.5 99t40 116t14 118.5q0 47 -14.5 91t-46 72t-82.5 28q-52 0 -98 -26t-83 -70
t-64.5 -99.5t-42 -116.5t-14.5 -119q0 -47 14.5 -90t46 -70.5t82.5 -27.5z" />
  </g>

</svg>
