<?xml version="1.0" standalone="no"?>
<!DOCTYPE svg PUBLIC "-//W3C//DTD SVG 1.1//EN" "http://www.w3.org/Graphics/SVG/1.1/DTD/svg11.dtd" >
<svg xmlns="http://www.w3.org/2000/svg" xmlns:xlink="http://www.w3.org/1999/xlink" version="1.1" viewBox="-16 0 338 1000">
  <g transform="matrix(1 0 0 -1 0 800)">
   <path fill="currentColor"
d="M50 -220q-5 0 -10.5 2t-5.5 8q0 4 2.5 6t6.5 3q32 11 59.5 30t45.5 71q8 24 15.5 38.5t17.5 32.5q7 12 16 25.5t20.5 29.5t24.5 34l-4 6l23 3q-10 -19 -17 -37.5t-9 -31.5q-10 -58 -27 -106t-55 -74q-17 -12 -39.5 -21t-40.5 -14t-23 -5zM99 -14q-28 0 -52 9.5
t-38.5 27.5t-14.5 41q0 31 9 50t29 33t51 30l79 41q47 24 64 51t17 57q0 20 -14.5 33t-34.5 13q-27 0 -49 -16t-30 -33q-1 -3 -4.5 -6.5t-8.5 -3.5q-4 0 -7.5 4t-6 9.5t-2.5 10.5q0 15 19.5 33t50.5 31t63 13q46 0 69 -24t23 -62q0 -30 -22.5 -60t-61.5 -50l-88 -46
q-36 -19 -53 -38t-17 -47q0 -22 20 -33.5t42 -11.5q29 0 61 12.5t52 27.5q3 2 5.5 4.5t6.5 2.5q3 0 5 -3.5t2 -8.5q0 -9 -13.5 -24.5t-36.5 -30.5t-52.5 -25.5t-61.5 -10.5z" />
  </g>

</svg>
