<?xml version="1.0" standalone="no"?>
<!DOCTYPE svg PUBLIC "-//W3C//DTD SVG 1.1//EN" "http://www.w3.org/Graphics/SVG/1.1/DTD/svg11.dtd" >
<svg xmlns="http://www.w3.org/2000/svg" xmlns:xlink="http://www.w3.org/1999/xlink" version="1.1" viewBox="-36 0 286 1000">
  <g transform="matrix(1 0 0 -1 0 800)">
   <path fill="currentColor"
d="M95 461q-63 0 -92 24t-29 48q0 17 8.5 25.5t20.5 8.5q9 0 18.5 -5.5t16.5 -17.5q8 -15 26.5 -25t40.5 -10q27 0 57.5 15.5t50.5 31.5q5 4 9.5 6t7.5 2q10 0 10 -12q0 -6 -11 -20.5t-30.5 -31t-46 -28t-57.5 -11.5zM130 556q-14 0 -23 11t-9 25q0 22 14.5 39t36.5 17
q14 0 22.5 -12.5t8.5 -26.5q0 -21 -15 -37t-35 -16z" />
  </g>

</svg>
