<?xml version="1.0" standalone="no"?>
<!DOCTYPE svg PUBLIC "-//W3C//DTD SVG 1.1//EN" "http://www.w3.org/Graphics/SVG/1.1/DTD/svg11.dtd" >
<svg xmlns="http://www.w3.org/2000/svg" xmlns:xlink="http://www.w3.org/1999/xlink" version="1.1" viewBox="-49 0 538 1000">
  <g transform="matrix(1 0 0 -1 0 800)">
   <path fill="currentColor"
d="M124 -218q-8 0 -11 1.5t-3 4.5q0 5 3 6.5t10 4.5q52 23 78.5 38.5t41.5 38.5q24 37 39.5 55t32.5 36q14 15 33 35.5t48 57.5l-3 6l40 44q-2 -16 -20 -44t-34 -66q-22 -53 -51 -101.5t-74 -79.5q-13 -9 -27 -15.5t-30.5 -11.5t-34.5 -7.5t-38 -2.5zM20 -14q-19 0 -32 12.5
t-20 28t-7 24.5q0 5 3 11.5t11 6.5q2 0 4 -0.5t6 -2.5q6 -1 17 -3t33 -2q29 0 50.5 9t28.5 22l122 202q35 59 73 89.5t90 30.5q4 0 7.5 -2t6 -5t2.5 -6q0 -4 -1 -9t-3 -12l-108 -302q-10 -31 6 -31q12 0 29.5 10.5t35.5 25t30.5 26t15.5 14.5t4.5 4t2.5 1q3 0 5 -4t2 -9
q0 -4 -2.5 -11t-10.5 -16q-17 -20 -37 -38t-40.5 -32.5t-40 -23t-34.5 -8.5q-14 0 -24.5 11t-15 24.5t-2.5 20.5l108 299q2 7 2 13.5t-6 6.5q-14 0 -31 -22.5t-30 -42.5q-5 -8 -19.5 -33t-34.5 -59t-42 -69.5t-42.5 -65t-36.5 -46.5q-19 -21 -38 -29t-37 -8z" />
  </g>

</svg>
