<?xml version="1.0" standalone="no"?>
<!DOCTYPE svg PUBLIC "-//W3C//DTD SVG 1.1//EN" "http://www.w3.org/Graphics/SVG/1.1/DTD/svg11.dtd" >
<svg xmlns="http://www.w3.org/2000/svg" xmlns:xlink="http://www.w3.org/1999/xlink" version="1.1" viewBox="-10 0 768 1000">
  <g transform="matrix(1 0 0 -1 0 800)">
   <path fill="currentColor"
d="M303 -5q-12 0 -18 2.5t-6 8.5q0 12 36 18q37 7 61 23t35 51l67 216q3 11 1.5 13.5t-6.5 0.5q-27 -11 -52 -16.5t-49.5 -7.5t-51.5 -2q-42 0 -76.5 22t-50.5 59t-4 80l27 87q11 35 -1 52t-49 20q-15 2 -19.5 7.5t-4.5 12.5q0 6 9 8.5t21 2.5q25 0 40 -1t28.5 -1.5
t32.5 -0.5t30.5 0.5t25 1.5t38.5 1q24 0 24 -11q0 -7 -10 -12t-27 -8q-24 -4 -35.5 -12t-16.5 -22t-12 -38l-26 -87q-9 -32 5.5 -59.5t45.5 -44.5t69 -17q35 0 57.5 4t38.5 11q11 6 16 22l53 171q11 35 1.5 50t-42.5 22q-15 3 -19.5 8t-4.5 12q0 6 9 8.5t21 2.5q25 0 41 -1
t31 -1.5t36 -0.5q20 0 33.5 0.5t28.5 1.5t40 1q24 0 24 -11q0 -7 -10 -12t-27 -8q-24 -4 -41.5 -12t-28.5 -22t-18 -38l-138 -452q-10 -35 4 -51t47 -23q15 -3 20 -7t5 -11q0 -6 -9 -8.5t-21 -2.5q-25 0 -41 1.5t-31 2.5t-36 1q-35 0 -58.5 -2.5t-61.5 -2.5zM551 700
q-16 0 -26.5 12t-10.5 27q0 25 16.5 43t41.5 18q16 0 26 -13t10 -30q0 -15 -8 -28t-21 -21t-28 -8zM350 700q-16 0 -26.5 12t-10.5 27q0 25 16.5 43t41.5 18q16 0 26 -13t10 -30q0 -22 -17 -39.5t-40 -17.5z" />
  </g>

</svg>
