<?xml version="1.0" standalone="no"?>
<!DOCTYPE svg PUBLIC "-//W3C//DTD SVG 1.1//EN" "http://www.w3.org/Graphics/SVG/1.1/DTD/svg11.dtd" >
<svg xmlns="http://www.w3.org/2000/svg" xmlns:xlink="http://www.w3.org/1999/xlink" version="1.1" viewBox="-71 0 815 1000">
  <g transform="matrix(1 0 0 -1 0 800)">
   <path fill="currentColor"
d="M459 -215q-9 0 -10 9t2 21.5t6 22.5q6 17 11 32t9 28q5 19 8 33.5t3 24.5q0 26 -16 35t-51 9q-24 1 -43 0.5t-33 -0.5h-25q-12 0 -18 2.5t-6 8.5q0 7 14 12t24 8q35 9 44 28t0 52l-44 159q-3 11 -8 12t-11 -7l-146 -175q-16 -19 -20 -33t2.5 -23t22.5 -14
q15 -4 19.5 -7.5t4.5 -10.5q0 -6 -9 -9.5t-21 -3.5q-13 0 -37 1t-49 1q-31 0 -63.5 -3t-55.5 -3q-12 0 -18 2.5t-6 8.5q0 7 10 13.5t28 8.5q24 3 47 12t50 29t60 55l152 160q14 15 22 29t0 38l-52 178q-11 40 -25.5 58.5t-31 25t-35.5 9.5q-14 2 -23 8t-9 13q0 6 13 9t25 3
q23 0 57.5 -2.5t68.5 -2.5q28 0 48.5 1t33.5 1q12 0 18 -2.5t6 -8.5q0 -7 -9.5 -12.5t-27.5 -7.5q-38 -3 -44 -20.5t9 -72.5l35 -131q4 -14 10.5 -14.5t16.5 11.5l107 126q32 38 41 58t2.5 29t-23.5 13q-9 2 -16.5 7.5t-7.5 12.5q0 6 9 8.5t21 2.5q17 0 36.5 -0.5t40.5 -0.5
q27 0 58 3t50 3q12 0 18 -2.5t6 -8.5q0 -7 -10 -11t-27 -9q-19 -5 -46.5 -21t-57 -39.5t-55.5 -51.5l-132 -143q-13 -15 -16.5 -22.5t-1.5 -16.5l60 -220q8 -27 18.5 -42t29 -22t49.5 -14q22 -4 28.5 -12.5t1.5 -22.5q-3 -9 -26 -55.5t-49 -116.5q-4 -12 -16.5 -26.5
t-24.5 -14.5z" />
  </g>

</svg>
