<?xml version="1.0" standalone="no"?>
<!DOCTYPE svg PUBLIC "-//W3C//DTD SVG 1.1//EN" "http://www.w3.org/Graphics/SVG/1.1/DTD/svg11.dtd" >
<svg xmlns="http://www.w3.org/2000/svg" xmlns:xlink="http://www.w3.org/1999/xlink" version="1.1" viewBox="-10 0 505 1000">
  <g transform="matrix(1 0 0 -1 0 800)">
   <path fill="currentColor"
d="M234 -14q-56 0 -101 20t-71.5 60t-26.5 98q0 44 21.5 81t55.5 68.5t73 60.5q5 2 3 5.5t-5 5.5q-48 35 -83.5 76.5t-35.5 96.5q0 31 12 58t29 47.5t34 32t26 11.5q12 0 15 -6.5t3 -14.5q0 -5 -11.5 -18t-22.5 -34t-11 -50q0 -32 16 -59.5t43 -51.5t59 -47q44 33 77.5 65.5
t33.5 68.5q0 48 -12 72.5t-24 34.5t-12 15q0 9 5.5 16.5t12.5 7.5q13 0 36 -11.5t42.5 -38.5t19.5 -73q0 -35 -19 -67t-50.5 -61t-67.5 -57q41 -27 78 -56.5t60.5 -65t23.5 -80.5q0 -58 -25.5 -106t-75.5 -76t-125 -28zM255 16q40 0 67.5 21.5t41.5 57.5t14 77
q0 38 -20.5 68.5t-53 57t-69.5 51.5q-48 -38 -83 -77.5t-35 -86.5q0 -83 39 -126t99 -43z" />
  </g>

</svg>
