<?xml version="1.0" standalone="no"?>
<!DOCTYPE svg PUBLIC "-//W3C//DTD SVG 1.1//EN" "http://www.w3.org/Graphics/SVG/1.1/DTD/svg11.dtd" >
<svg xmlns="http://www.w3.org/2000/svg" xmlns:xlink="http://www.w3.org/1999/xlink" version="1.1" viewBox="-10 0 535 1000">
  <g transform="matrix(1 0 0 -1 0 800)">
   <path fill="currentColor"
d="M65 -14q-7 0 -19 13.5t-12 28.5q0 14 12 33t46 44l257 189q37 62 70 91t63 29q12 0 19 -5t10.5 -13t3.5 -17q0 -11 -7.5 -21.5t-27.5 -24.5l-331 -241q-4 -7 -15 -24.5t-24 -36t-25 -32t-20 -13.5zM135 129q25 53 37 89t12 58q0 28 -14.5 42t-36.5 14q-11 0 -23.5 -3
t-25.5 -10q-6 -3 -10.5 -6.5t-6.5 -3.5q-7 0 -7 7q0 26 18 48.5t44 36t50 13.5q32 0 52.5 -17.5t20.5 -55.5q0 -31 -19.5 -79t-70.5 -128zM333 -15q-24 0 -46 24t-22 66q0 34 16.5 77.5t56.5 93.5h18q-26 -44 -38.5 -78t-12.5 -57q0 -28 14 -40.5t36 -11.5q22 0 47 12t47 34
q8 8 10 8q5 0 5.5 -3t-0.5 -6q-7 -28 -20 -50.5t-30.5 -37.5t-38 -23t-42.5 -8z" />
  </g>

</svg>
