<?xml version="1.0" standalone="no"?>
<!DOCTYPE svg PUBLIC "-//W3C//DTD SVG 1.1//EN" "http://www.w3.org/Graphics/SVG/1.1/DTD/svg11.dtd" >
<svg xmlns="http://www.w3.org/2000/svg" xmlns:xlink="http://www.w3.org/1999/xlink" version="1.1" viewBox="-210 0 755 1000">
  <g transform="matrix(1 0 0 -1 0 800)">
   <path fill="currentColor"
d="M-122 -290q-35 0 -56.5 14.5t-21.5 28.5q0 9 6 18t15 15.5t18 6.5t16.5 -6t14.5 -14q8 -8 19 -15t28 -7q27 0 43 27.5t33 70.5l189 478q5 11 6.5 20t-8.5 9q-15 0 -35 -9t-47 -27q-5 -4 -10 -3.5t-5 7.5q1 9 15.5 24t37 30t46 26t41.5 11q14 0 25 -17t5 -33l-52 -128
q-3 -8 0 -10t5 -2l152 6q2 0 4 2t3 6l59 147q4 9 14.5 15t21.5 9.5t16 3.5q8 0 9.5 -4t1.5 -13q0 -4 -5 -16.5t-13 -30.5l-105 -264q-14 -39 1 -39q12 0 29.5 9.5t35 22.5t30.5 24t17 15q1 1 1.5 1h1h0.5q9 0 9 -9q0 -4 -2.5 -8t-4.5 -6q-17 -19 -33.5 -35.5t-33 -30.5
t-33 -23.5t-32.5 -15t-33 -5.5q-10 0 -19 8.5t-13 19.5t-1 18l59 149q3 8 4.5 10.5t-3.5 2.5l-152 -6q-2 0 -5.5 -1t-6.5 -6l-126 -309q-11 -27 -31.5 -55.5t-45.5 -52.5t-50.5 -39t-48.5 -15z" />
  </g>

</svg>
