<?xml version="1.0" standalone="no"?>
<!DOCTYPE svg PUBLIC "-//W3C//DTD SVG 1.1//EN" "http://www.w3.org/Graphics/SVG/1.1/DTD/svg11.dtd" >
<svg xmlns="http://www.w3.org/2000/svg" xmlns:xlink="http://www.w3.org/1999/xlink" version="1.1" viewBox="-30 0 891 1000">
  <g transform="matrix(1 0 0 -1 0 800)">
   <path fill="currentColor"
d="M3 -5q-12 0 -17.5 2.5t-5.5 8.5q0 12 36 18q37 7 52.5 23t26.5 52l138 452q11 35 8 49.5t-36 21.5q-15 3 -19.5 8t-4.5 12q0 6 9 8.5t21 2.5q25 0 39 -1t26 -1.5t30 -0.5q20 0 32.5 0.5t27 1.5t39.5 1q24 0 24 -11q0 -7 -10 -12t-27 -8q-24 -4 -41 -13.5t-27.5 -23.5
t-16.5 -34l-108 -353q-1 -6 2.5 -9t7.5 0l448 352q3 2 6.5 5.5t5.5 10.5l4 11q5 14 -3 30.5t-41 23.5q-15 3 -19.5 8t-4.5 12q0 6 9 8.5t21 2.5q25 0 41 -1t30.5 -1.5t35.5 -0.5q17 0 26 0.5t21.5 1.5t37.5 1q24 0 24 -11q0 -7 -10 -12t-27 -8q-24 -4 -37 -13.5t-20 -23.5
t-13 -33l-139 -452q-11 -37 -8 -53t36 -23q15 -3 20 -7t5 -11q0 -6 -9 -8.5t-21 -2.5q-25 0 -39 1.5t-25.5 2.5t-30.5 1t-32.5 -1t-28.5 -2.5t-40 -1.5q-12 0 -18 2.5t-6 8.5q0 12 36 18q32 5 54 23t32 50l111 366q2 5 1.5 11.5t-4.5 3.5l-456 -357q-2 -1 -4 -3t-4 -8
l-5 -13q-12 -31 4.5 -49t46.5 -24q15 -3 20 -7t5 -11q0 -6 -9 -8.5t-21 -2.5q-25 0 -41 1.5t-31 2.5t-36 1q-20 0 -34 -1t-29.5 -2.5t-40.5 -1.5zM541 692q-69 0 -100 28.5t-31 65.5q0 25 18 49.5t46 24.5q17 0 27 -8t10 -21q0 -14 -5.5 -23.5t-11 -17.5t-5.5 -19
q0 -14 10.5 -25.5t41.5 -11.5q62 0 98 29.5t58 72.5q3 6 5 8t6 2q5 0 5 -10q0 -21 -13.5 -46t-37 -47.5t-54.5 -36.5t-67 -14z" />
  </g>

</svg>
