<?xml version="1.0" standalone="no"?>
<!DOCTYPE svg PUBLIC "-//W3C//DTD SVG 1.1//EN" "http://www.w3.org/Graphics/SVG/1.1/DTD/svg11.dtd" >
<svg xmlns="http://www.w3.org/2000/svg" xmlns:xlink="http://www.w3.org/1999/xlink" version="1.1" viewBox="-286 0 310 1000">
  <g transform="matrix(1 0 0 -1 0 800)">
   <path fill="currentColor"
d="M-30 -125q25 0 34.5 -21.5t9.5 -55.5q0 -20 -8 -34t-20 -14q-5 0 -7 6t-3 15q-2 15 -5 30.5t-20 15.5q-23 0 -38.5 -12t-23.5 -25t-8 -15q-1 -5 -11.5 -10t-14.5 -5q-5 0 -5.5 4.5t0.5 6.5q1 1 1 4v7q0 19 -8 32t-27 13t-35.5 -17t-27.5 -33q-14 -20 -23 -20q-6 0 -6 8
q0 16 10.5 36.5t27 39.5t34 31.5t32.5 12.5q22 0 39.5 -20t15.5 -45q6 15 22.5 30t34.5 25t30 10z" />
  </g>

</svg>
