<?xml version="1.0" standalone="no"?>
<!DOCTYPE svg PUBLIC "-//W3C//DTD SVG 1.1//EN" "http://www.w3.org/Graphics/SVG/1.1/DTD/svg11.dtd" >
<svg xmlns="http://www.w3.org/2000/svg" xmlns:xlink="http://www.w3.org/1999/xlink" version="1.1" viewBox="-10 0 667 1000">
  <g transform="matrix(1 0 0 -1 0 800)">
   <path fill="currentColor"
d="M71 -15q-9 0 -14 3.5t-7.5 10t-2.5 14.5q0 5 0.5 8t1.5 6l119 300q5 11 6.5 20t-8.5 9q-15 0 -35 -9t-47 -27q-5 -4 -10 -3.5t-5 7.5q1 9 15.5 24t37 30t46 26t41.5 11q14 0 25 -17t5 -33l-52 -128q-3 -8 0 -10t5 -2l152 6q2 0 4 2t3 6l52 134q5 14 15.5 20.5t28.5 6.5
h131q29 0 42.5 2.5t20.5 2.5q1 0 4 -2.5t1 -7.5q-4 -13 -13.5 -37t-14.5 -40q-4 -13 -10 -27t-15 -14q-12 0 -8 38q2 14 -2 26t-11.5 19.5t-18.5 7.5q-10 0 -32 0.5t-31 0.5q-16 0 -27 -12t-16 -26l-97 -245q-16 -39 1 -39q12 0 29.5 9.5t35 22.5t30.5 24t17 15q1 1 1.5 1h1
h0.5q9 0 9 -9q0 -4 -2.5 -8t-4.5 -6q-17 -19 -33.5 -35.5t-33 -30.5t-33 -23.5t-32.5 -15t-33 -5.5q-10 0 -19 8.5t-13 19.5t-1 18l59 149q3 8 4.5 10.5t-3.5 2.5l-152 -6q-2 0 -5.5 -1t-6.5 -6l-71 -177q-3 -8 -10 -13.5t-14 -5.5z" />
  </g>

</svg>
