<?xml version="1.0" standalone="no"?>
<!DOCTYPE svg PUBLIC "-//W3C//DTD SVG 1.1//EN" "http://www.w3.org/Graphics/SVG/1.1/DTD/svg11.dtd" >
<svg xmlns="http://www.w3.org/2000/svg" xmlns:xlink="http://www.w3.org/1999/xlink" version="1.1" viewBox="-10 0 337 1000">
  <g transform="matrix(1 0 0 -1 0 800)">
   <path fill="currentColor"
d="M260 700q-16 0 -26.5 12t-10.5 27q0 25 16.5 43t41.5 18q16 0 26 -13t10 -30q0 -15 -8 -28t-21 -21t-28 -8zM59 700q-16 0 -26.5 12t-10.5 27q0 25 16.5 43t41.5 18q16 0 26 -13t10 -30q0 -22 -17 -39.5t-40 -17.5z" />
  </g>

</svg>
