<?xml version="1.0" standalone="no"?>
<!DOCTYPE svg PUBLIC "-//W3C//DTD SVG 1.1//EN" "http://www.w3.org/Graphics/SVG/1.1/DTD/svg11.dtd" >
<svg xmlns="http://www.w3.org/2000/svg" xmlns:xlink="http://www.w3.org/1999/xlink" version="1.1" viewBox="-10 0 674 1000">
  <g transform="matrix(1 0 0 -1 0 800)">
   <path fill="currentColor"
d="M262 -14q-42 0 -87 7.5t-82 18.5t-57 22q-8 5 -12.5 10t-4.5 15q0 8 4.5 42.5t18.5 74.5q4 10 6.5 15t9.5 5q8 0 10 -9.5t2 -29.5q0 -47 30 -77t76 -44.5t93 -14.5q55 0 100.5 24.5t81 66.5t61.5 95.5t41 111.5q-19 -12 -42 -20.5t-45 -8.5q-18 0 -39 5.5t-44 11.5
q-21 6 -42.5 11t-41.5 5q-11 0 -30 -4.5t-37 -11.5t-27 -15q-11 -10 -16.5 -4t-1.5 14q9 14 23.5 28.5t33 26.5t37.5 19t36 7q20 0 41 -6t45 -15q17 -7 39 -15.5t43 -8.5q24 0 43 7t35 16q2 13 3.5 25.5t1.5 25.5q0 58 -19 107.5t-57 80t-97 30.5q-51 0 -91 -13t-70.5 -39.5
t-54.5 -66.5q-5 -9 -12.5 -18t-14.5 -9t-9 7t-2 12q0 7 5.5 26.5t14.5 43.5t17 45q5 11 13.5 13.5t12.5 2.5q11 0 31.5 4.5t46.5 10.5q27 5 58 9.5t62 5.5q49 1 94 -17.5t80.5 -52.5t56.5 -80.5t21 -102.5q0 -76 -28 -151.5t-79.5 -137.5t-123.5 -99t-161 -37z" />
  </g>

</svg>
