<?xml version="1.0" standalone="no"?>
<!DOCTYPE svg PUBLIC "-//W3C//DTD SVG 1.1//EN" "http://www.w3.org/Graphics/SVG/1.1/DTD/svg11.dtd" >
<svg xmlns="http://www.w3.org/2000/svg" xmlns:xlink="http://www.w3.org/1999/xlink" version="1.1" viewBox="-10 0 781 1000">
  <g transform="matrix(1 0 0 -1 0 800)">
   <path fill="currentColor"
d="M164 -5q-12 0 -18 2.5t-6 8.5q0 7 10 10t27 6q37 7 61.5 25.5t34.5 54.5l122 428q14 51 12 67.5t-15 16.5l-118 1q-42 0 -75 -14.5t-33 -47.5q0 -13 10 -23.5t20 -19.5q9 -7 16 -14.5t7 -15.5q0 -10 -9 -20t-20 -16.5t-17 -6.5q-13 0 -25.5 12.5t-20.5 29.5t-8 31
q0 31 9.5 55.5t32 41.5t61 26t96.5 9h337q31 0 46.5 2t22.5 5t10 6q5 5 9 8t8 3q10 0 10 -11q0 -7 -3.5 -15t-6.5 -13q-5 -10 -16 -42.5t-19 -73.5q-1 -8 -4 -11t-7 -3q-7 0 -10.5 6.5t-3.5 16.5q0 46 -14.5 70t-52.5 24h-100q-13 0 -21.5 -6t-16 -24.5t-18.5 -56.5
l-121 -425q-10 -36 3.5 -54.5t46.5 -25.5q15 -3 20 -6t5 -10q0 -6 -9 -8.5t-21 -2.5q-25 0 -41 1.5t-30.5 2.5t-35.5 1q-23 0 -41 -1t-36.5 -2.5t-43.5 -1.5z" />
  </g>

</svg>
