<?xml version="1.0" standalone="no"?>
<!DOCTYPE svg PUBLIC "-//W3C//DTD SVG 1.1//EN" "http://www.w3.org/Graphics/SVG/1.1/DTD/svg11.dtd" >
<svg xmlns="http://www.w3.org/2000/svg" xmlns:xlink="http://www.w3.org/1999/xlink" version="1.1" viewBox="-10 0 606 1000">
  <g transform="matrix(1 0 0 -1 0 800)">
   <path fill="currentColor"
d="M336 -14q-23 0 -42.5 16t-31.5 42t-12 55q0 47 17.5 101.5t48.5 103t72 79.5t89 31q32 0 54.5 -15.5t34 -42.5t11.5 -60q0 -45 -17 -98.5t-48.5 -101.5t-76 -79t-99.5 -31zM80 -14q-6 0 -12 4.5t-10.5 12t-5.5 15.5t2 15q16 39 33.5 84.5t35 91.5t32.5 83q18 44 2 44
q-15 0 -36.5 -13t-45.5 -36q-4 -4 -8.5 -3.5t-6.5 7.5q0 9 5.5 20t14.5 22q16 20 39.5 38.5t49 30.5t45.5 12q12 0 21.5 -6t13.5 -16.5t-1 -22.5l-58 -135q-1 -4 1.5 -6.5t3.5 -2.5l91 1q2 0 5 3l5 5l-13 -52q-1 4 -3 7t-7 3l-92 -4q-2 0 -6.5 -4.5t-3.5 -3.5l-57 -161
q-7 -19 -16 -26t-18 -7zM352 14q23 0 46 21.5t44.5 56.5t38.5 77t27 83.5t10 75.5q0 26 -8 43t-32 17q-22 0 -45 -19.5t-44.5 -52.5t-38.5 -73.5t-27 -83.5t-10 -83q0 -33 10.5 -47.5t28.5 -14.5z" />
  </g>

</svg>
