<?xml version="1.0" standalone="no"?>
<!DOCTYPE svg PUBLIC "-//W3C//DTD SVG 1.1//EN" "http://www.w3.org/Graphics/SVG/1.1/DTD/svg11.dtd" >
<svg xmlns="http://www.w3.org/2000/svg" xmlns:xlink="http://www.w3.org/1999/xlink" version="1.1" viewBox="-19 0 901 1000">
  <g transform="matrix(1 0 0 -1 0 800)">
   <path fill="currentColor"
d="M568 -205q-7 0 -12.5 4.5t-5.5 17.5q0 7 3 23.5t8 33.5q7 21 13 45t6 51q0 17 -10.5 23.5t-40.5 6.5h-69.5h-68.5h-68h-68h-68h-70q-20 0 -33.5 -0.5t-28.5 -1.5t-40 -1q-12 0 -18 2.5t-6 8.5q0 14 37 20q37 7 57.5 22t30.5 50l138 452q11 35 -3.5 51t-47.5 23
q-15 3 -20 7t-5 11q0 6 9 8.5t21 2.5q25 0 41 -1t31 -2.5t36 -1.5q24 0 41.5 1.5t35.5 2.5t43 1q24 0 24 -11q0 -7 -9.5 -11t-26.5 -7q-37 -7 -61 -23t-35 -51l-140 -464q-10 -35 -1.5 -47.5t42.5 -12.5h54h53h34.5h33h34.5q38 0 58 12.5t30 47.5l140 464q11 35 -3.5 51
t-47.5 23q-15 3 -20 7t-5 11q0 6 9 8.5t21 2.5q25 0 41 -1t31 -2.5t36 -1.5q24 0 41.5 1.5t35.5 2.5t43 1q12 0 18 -2.5t6 -8.5q0 -12 -36 -18q-37 -7 -61 -23t-35 -51l-138 -452q-7 -23 1.5 -35.5t24.5 -17t32 -4.5q14 0 18 -9.5t-2 -24.5q-7 -18 -21.5 -48t-30 -65
t-27.5 -68q-4 -13 -12 -23t-17 -10z" />
  </g>

</svg>
