<?xml version="1.0" standalone="no"?>
<!DOCTYPE svg PUBLIC "-//W3C//DTD SVG 1.1//EN" "http://www.w3.org/Graphics/SVG/1.1/DTD/svg11.dtd" >
<svg xmlns="http://www.w3.org/2000/svg" xmlns:xlink="http://www.w3.org/1999/xlink" version="1.1" viewBox="-10 0 681 1000">
  <g transform="matrix(1 0 0 -1 0 800)">
   <path fill="currentColor"
d="M56 -18q-5 0 -9 4t-6 10t-2 12q0 15 3 30t10 37l141 483q5 17 10 37.5t5 30.5t-12.5 15t-24.5 9q-7 2 -12.5 4.5t-5.5 6.5t3 7.5t14 7.5q8 3 22.5 8t31 10.5t30 9t18.5 3.5t11 -1t6 -9t-1.5 -14t-3.5 -13l-136 -470q-2 -7 0.5 -7t5.5 4q44 66 85 114.5t79.5 75.5t71.5 27
q36 0 50.5 -17t14.5 -47q0 -28 -10 -64.5t-26 -79t-33 -87.5q-13 -34 -4 -55t34 -21q36 0 70.5 20.5t61.5 55t43 76.5t16 85q0 17 -6.5 34t-17.5 30q-7 8 -9.5 16t-2.5 17t9 18.5t22.5 16t27.5 6.5q11 0 20 -17t9 -52q0 -44 -9.5 -87t-30.5 -84.5t-55 -81.5
q-47 -55 -94.5 -82.5t-88.5 -27.5q-23 0 -40.5 20t-22.5 50t6 59q25 64 47 120.5t22 90.5q0 20 -7.5 30.5t-26.5 10.5q-21 0 -47.5 -21.5t-55 -56.5t-55.5 -74.5t-48.5 -75.5t-34.5 -61l-37.5 -72t-24.5 -24z" />
  </g>

</svg>
