<?xml version="1.0" standalone="no"?>
<!DOCTYPE svg PUBLIC "-//W3C//DTD SVG 1.1//EN" "http://www.w3.org/Graphics/SVG/1.1/DTD/svg11.dtd" >
<svg xmlns="http://www.w3.org/2000/svg" xmlns:xlink="http://www.w3.org/1999/xlink" version="1.1" viewBox="-30 0 926 1000">
  <g transform="matrix(1 0 0 -1 0 800)">
   <path fill="currentColor"
d="M4 -5q-12 0 -18 2.5t-6 8.5q0 12 36 18q37 7 67 23.5t40 51.5l141 461q11 36 3.5 45.5t-40.5 16.5q-15 3 -20 8t-5 12q0 6 9 8.5t21 2.5q25 0 40.5 -1t29.5 -2.5t34 -1.5q23 0 41 1.5t37 2.5t44 1q23 0 23 -11q0 -8 -11 -11.5t-28 -5.5q-26 -2 -46.5 -8.5t-34.5 -18
t-20 -31.5l-135 -454q-11 -38 -3 -60.5t45 -22.5h80q55 0 88.5 11.5t52.5 30.5t32 38t29 42q5 6 7.5 8t8.5 2q5 0 6.5 -3t1.5 -9q0 -7 -5.5 -25t-13.5 -40.5t-16.5 -42.5t-15.5 -31q-4 -6 -10 -11t-13 -5q-57 0 -105.5 1t-91.5 2t-81 2t-73 1q-37 0 -62 -3t-63 -3zM461 -290
q-35 0 -56.5 14.5t-21.5 28.5q0 9 6 18t15 15.5t18 6.5t16.5 -6t14.5 -14q8 -8 19 -15t28 -7q27 0 44.5 27.5t31.5 70.5l143 439q5 17 3 25t-11 8q-8 0 -25 -7.5t-40 -18.5q-3 -1 -8.5 0.5t-5.5 5.5t2 7t7 8q22 20 40 33.5t35 23.5t35 19.5t40 21.5q12 4 23.5 -7t7.5 -21
q-10 -27 -19.5 -54.5t-19.5 -56.5l-133 -403q-9 -28 -31 -56.5t-50 -52.5t-56.5 -38.5t-51.5 -14.5zM831 513q-15 0 -25 12t-10 27q0 24 16 42.5t40 18.5q16 0 25 -13.5t9 -29.5q0 -22 -16 -39.5t-39 -17.5z" />
  </g>

</svg>
