<?xml version="1.0" standalone="no"?>
<!DOCTYPE svg PUBLIC "-//W3C//DTD SVG 1.1//EN" "http://www.w3.org/Graphics/SVG/1.1/DTD/svg11.dtd" >
<svg xmlns="http://www.w3.org/2000/svg" xmlns:xlink="http://www.w3.org/1999/xlink" version="1.1" viewBox="-10 0 958 1000">
  <g transform="matrix(1 0 0 -1 0 800)">
   <path fill="currentColor"
d="M70 -14q-29 0 -47 20t-18 52q0 38 16.5 85t45 95t64.5 89q39 44 79 68.5t72 24.5q13 0 21 -3.5t36 -21.5q21 -13 23.5 -14.5t0.5 -1.5q3 0 5 7l67 225q2 6 2.5 9.5t1 5t0.5 3v2.5q0 11 -6 17.5t-22 12.5q-22 8 -26 9.5t-4 4.5q0 7 8 11t26 7q15 2 30.5 4.5t28.5 4t22 2.5
t12 1q12 0 12 -14q0 -5 -1 -10.5t-3 -12.5l-162 -561q-2 -8 -3.5 -15.5t-1.5 -15.5q0 -22 14 -22q13 0 31 9.5t36 25.5t31 34q2 3 4 4t4 1q8 0 6 -8q0 -11 -11 -28t-29 -35.5t-38.5 -34.5t-39.5 -26t-32 -10q-11 0 -21 6.5t-16.5 17t-6.5 21.5q0 5 4 26q2 11 6 27.5t7.5 32
t5 22.5t-0.5 -2q2 8 -0.5 11.5t-5.5 -1.5q-69 -87 -121 -124t-106 -37zM107 33q27 0 59 19.5t63.5 52t58 71.5t42.5 78t16 72q0 29 -13 45.5t-37 16.5q-23 0 -52 -22t-59 -58t-55.5 -78.5t-41 -84.5t-15.5 -74q0 -22 7.5 -30t26.5 -8zM745 -34q-25 0 -46 16t-40 34
q-15 14 -27.5 25t-22.5 11q-30 0 -46.5 -17.5t-16.5 -40.5q0 -10 -5.5 -12t-9.5 -2q-3 0 -8 8t-6 18q-1 11 4.5 25.5t19.5 27.5l288 279l23 8q-10 -14 -18 -20.5t-21 -6.5q-15 0 -30.5 6.5t-32.5 14.5q-19 10 -40 18t-45 8q-18 0 -33 -14.5t-15 -29.5q0 -7 2 -17t8 -19
q6 -10 0 -18q-7 -7 -21.5 -14.5t-19.5 -7.5t-13 9t-8 25q0 27 13 46.5t37 41.5q12 11 30 21.5t36 17.5t29 7q17 0 33.5 -5t32.5 -11q18 -7 34 -13t29 -6q15 0 24.5 5t20.5 16q5 5 14 11.5t16 6.5q3 0 6 -3.5t3 -8.5q0 -7 -9 -21.5t-23 -28.5l-285 -281l-15 7
q12 11 20.5 13.5t20.5 2.5q23 0 42 -13t38 -29q17 -14 33.5 -26t33.5 -12q23 0 33 14.5t13 37t3 44.5q0 18 3 23.5t12 5.5q11 0 22 -13.5t11 -37.5q0 -21 -15 -43t-37 -41t-43.5 -30.5t-35.5 -11.5zM784 462q-7 0 -10 7t-8 23q-4 15 -8 37.5t-7.5 45.5t-5.5 40t-2 21
q0 6 2 13.5t6 7.5q9 0 17 -17q6 -15 16.5 -41.5t19.5 -49.5q3 -8 9 0q23 23 49.5 49t43.5 43q5 5 12 10.5t11 5.5q9 0 9 -9q0 -4 -2 -8.5t-5 -9.5q-8 -12 -26.5 -36.5t-38.5 -50t-32 -39.5q-13 -16 -27.5 -29t-22.5 -13z" />
  </g>

</svg>
