<?xml version="1.0" standalone="no"?>
<!DOCTYPE svg PUBLIC "-//W3C//DTD SVG 1.1//EN" "http://www.w3.org/Graphics/SVG/1.1/DTD/svg11.dtd" >
<svg xmlns="http://www.w3.org/2000/svg" xmlns:xlink="http://www.w3.org/1999/xlink" version="1.1" viewBox="-70 0 555 1000">
  <g transform="matrix(1 0 0 -1 0 800)">
   <path fill="currentColor"
d="M-44 -3q-8 0 -12 1.5t-4 5.5q0 12 28 20q49 12 92 67l196 253q11 14 17 23.5t8 16.5t3 15t0 19l-7 198q-1 15 -5.5 23t-21.5 8q-6 0 -17 -2t-21 -2q-14 0 -14 11q0 7 15 16t36 17t39 13t24 5q8 0 13 -5t8 -12.5t3 -14.5l26 -600q1 -18 11.5 -29.5t29.5 -19.5
q17 -6 17 -15q0 -6 -6 -9t-17 -3t-35.5 2.5t-38.5 2.5q-7 0 -25.5 -1t-36.5 -2.5t-23 -1.5q-8 0 -12 2t-4 6q0 8 9.5 14.5t26.5 10.5q26 7 32 19.5t6 32.5l-8 222q0 5 -5 5.5t-9 -4.5l-155 -198q-10 -13 -17.5 -25.5t-7.5 -24.5q0 -8 4 -14.5t13 -11.5q11 -6 17 -11t6 -10
q0 -6 -6.5 -9.5t-17.5 -3.5q-1 0 -18 1.5t-36 2.5t-27 1q-9 0 -26 -1t-31 -2.5t-16 -1.5zM158 435q-7 -4 -11 1.5t-3 7.5q2 7 3 19t7 15l141 65l18 10l137 62q5 2 15 3.5t10 -6.5q-1 -13 -4.5 -24t-15.5 -17l-130 -59l-19 -11z" />
  </g>

</svg>
