<?xml version="1.0" standalone="no"?>
<!DOCTYPE svg PUBLIC "-//W3C//DTD SVG 1.1//EN" "http://www.w3.org/Graphics/SVG/1.1/DTD/svg11.dtd" >
<svg xmlns="http://www.w3.org/2000/svg" xmlns:xlink="http://www.w3.org/1999/xlink" version="1.1" viewBox="-282 0 311 1000">
  <g transform="matrix(1 0 0 -1 0 800)">
   <path fill="currentColor"
d="M-257 -219q-15 0 -15 10q0 6 7 12l124 82q19 12 28.5 17t16.5 5q10 0 20 -7t17 -15l72 -82q3 -4 4.5 -6.5t1.5 -5.5q0 -11 -14 -11q-6 0 -25.5 10t-40 23.5t-32.5 21.5q-12 9 -26 1q-9 -5 -29.5 -14t-44 -18.5t-41.5 -16t-23 -6.5z" />
  </g>

</svg>
