<?xml version="1.0" standalone="no"?>
<!DOCTYPE svg PUBLIC "-//W3C//DTD SVG 1.1//EN" "http://www.w3.org/Graphics/SVG/1.1/DTD/svg11.dtd" >
<svg xmlns="http://www.w3.org/2000/svg" xmlns:xlink="http://www.w3.org/1999/xlink" version="1.1" viewBox="-42 0 675 1000">
  <g transform="matrix(1 0 0 -1 0 800)">
   <path fill="currentColor"
d="M105 -159q-13 -2 -19 1.5t-8 8.5l-0.5 -1t0.5 4l474 903q4 14 20 19.5t29 9.5q5 2 11 -1t6 -8q0 -1 -0.5 -2t0.5 -2l-473 -904q-4 -13 -15 -19.5t-25 -8.5zM-8 -5q-12 0 -18 2.5t-6 8.5q0 12 36 18q50 8 71.5 24.5t31.5 50.5l137 450q14 43 1 56.5t-57 19.5
q-15 2 -20.5 6t-5.5 11q0 6 9.5 8.5t21.5 2.5q8 0 28.5 -1t46 -1.5t46.5 -0.5h161q55 0 83.5 2.5t40 5t13.5 2.5q4 0 7.5 -4.5t3.5 -8.5q0 -6 -6 -21.5t-13 -38.5t-11 -52q-1 -10 -6.5 -14.5t-10.5 -4.5t-8.5 7t-2.5 18q3 46 -8 63.5t-51 17.5h-122q-24 0 -34 -6.5
t-15 -23.5l-67 -212q-6 -18 -3 -25t19 -6l124 3q26 1 41.5 11.5t27.5 25.5q7 8 15.5 19.5t17.5 11.5q8 0 8.5 -8.5t-4.5 -19.5q-9 -17 -15.5 -32t-11.5 -29q-6 -16 -10.5 -33.5t-9.5 -39.5q-1 -7 -4.5 -14t-8.5 -7q-8 0 -10.5 11t-2.5 16q0 31 -10.5 43.5t-27.5 12.5l-115 2
q-17 0 -29.5 -4.5t-18.5 -26.5l-51 -182q-14 -51 -5.5 -67t39.5 -16h155q25 0 44.5 8t35.5 19q15 11 28 26.5t26 36.5l8 12t10 6q5 0 6 -7t1 -13q0 -9 -7 -28t-16 -38.5t-16 -31.5q-6 -10 -13.5 -15.5t-19.5 -5.5q-41 0 -80.5 0.5t-76.5 1.5t-71 2t-65.5 1.5t-59.5 0.5
q-24 0 -42 -1.5t-35.5 -3t-42.5 -1.5z" />
  </g>

</svg>
