<?xml version="1.0" standalone="no"?>
<!DOCTYPE svg PUBLIC "-//W3C//DTD SVG 1.1//EN" "http://www.w3.org/Graphics/SVG/1.1/DTD/svg11.dtd" >
<svg xmlns="http://www.w3.org/2000/svg" xmlns:xlink="http://www.w3.org/1999/xlink" version="1.1" viewBox="-10 0 1186 1000">
  <g transform="matrix(1 0 0 -1 0 800)">
   <path fill="currentColor"
d="M229 -13q-94 0 -125 67.5t14 212.5l87 280q11 36 -2.5 52.5t-28.5 20.5q-30 8 -27 22q2 6 11 8.5t22 2.5q23 0 47.5 -1.5t55.5 -1.5q20 0 39 0.5t35 1t26 0.5q13 0 20.5 -2.5t5.5 -8.5q-2 -7 -11.5 -11t-27.5 -9q-9 -2 -26.5 -11.5t-34.5 -25t-23 -35.5l-83 -267
q-13 -41 -20 -84t-4.5 -79.5t19.5 -59t53 -22.5q46 0 86.5 28.5t74 75t59.5 102.5t43 110l60 194q11 36 -2.5 52.5t-28.5 20.5q-16 5 -22 10t-5 12q2 6 11 8.5t22 2.5q15 0 31 -1t34 -1.5t38 -0.5q29 0 56.5 1t43.5 1q13 0 20.5 -2.5t5.5 -8.5q-2 -7 -11.5 -11t-27.5 -9
q-9 -2 -26.5 -11.5t-34.5 -25t-23 -35.5l-88 -283q-16 -55 -20 -97.5t4.5 -71.5t28.5 -44t52 -15q43 0 80.5 26.5t69.5 72t58 101.5t44 115l61 197q8 26 1.5 39.5t-19.5 20.5t-26 11q-10 3 -19.5 8t-7.5 12q4 11 32 11h24.5t26 -0.5t27.5 -0.5q44 0 77 2t78 2
q13 0 20.5 -2.5t5.5 -8.5q-4 -12 -39 -18q-39 -7 -64 -23t-36 -51l-140 -452q-11 -35 -1 -50t45 -22q17 -3 23 -8t4 -12q-1 -6 -10 -8.5t-22 -2.5q-24 0 -36.5 1t-20.5 1.5t-20 0.5q-19 0 -39 -3t-31 -3q-12 0 -7 14q2 5 7 13t9 19l7 23q3 9 2 13t-6 4t-9 -2.5t-9 -7.5
q-26 -26 -52.5 -44.5t-54.5 -28.5t-60 -10q-49 0 -78 15t-43.5 37t-19 42.5t-5.5 32.5q0 7 -4 7q-1 0 -4 -2.5t-11 -11.5q-44 -52 -96.5 -86t-114.5 -34z" />
  </g>

</svg>
