<?xml version="1.0" standalone="no"?>
<!DOCTYPE svg PUBLIC "-//W3C//DTD SVG 1.1//EN" "http://www.w3.org/Graphics/SVG/1.1/DTD/svg11.dtd" >
<svg xmlns="http://www.w3.org/2000/svg" xmlns:xlink="http://www.w3.org/1999/xlink" version="1.1" viewBox="-10 0 691 1000">
  <g transform="matrix(1 0 0 -1 0 800)">
   <path fill="currentColor"
d="M245 -290q-35 0 -53.5 14.5t-18.5 34.5q0 8 6.5 15.5t16 13t18.5 5.5q12 0 19 -6.5t14.5 -15.5t20.5 -15.5t37 -6.5q36 0 75.5 43t79 120t71.5 178q22 68 29 103t1.5 47t-22.5 12q-24 0 -50 -16.5t-50 -41t-43.5 -50t-29.5 -43.5q-2 -4 -5 -8.5t-5 -9.5
q-24 -48 -42.5 -71.5t-29.5 -23.5q-5 0 -9 4.5t-6 10.5t-2 12q0 5 6 23t19 46q8 18 22.5 51t32.5 75t35 87q16 41 11 57.5t-19 17.5q-16 1 -42 -18t-59 -60q-15 -19 -45 -63.5t-65.5 -101.5t-68.5 -114q-9 -16 -16 -23.5t-15 -7.5t-15 7.5t-10 18t0 18.5l116 284q18 44 2 44
q-15 0 -32.5 -7t-41.5 -39q-4 -4 -8.5 -3.5t-6.5 7.5q0 6 3.5 15.5t8.5 19t9 15.5q15 23 40.5 36t59.5 14q11 0 20 -5.5t13.5 -15.5t-0.5 -22l-66 -170q-3 -7 1.5 -8t7.5 4q41 70 83.5 118.5t81.5 73.5t69 25q21 0 36.5 -15t19.5 -40t-9 -55l-26 -61q-4 -9 -7 -21t-1 -17
q19 18 41 39.5t50 37t63 15.5q33 0 48 -20.5t14.5 -55t-14.5 -76.5q-28 -87 -67 -165.5t-87 -139t-102 -95.5t-112 -35z" />
  </g>

</svg>
