<?xml version="1.0" standalone="no"?>
<!DOCTYPE svg PUBLIC "-//W3C//DTD SVG 1.1//EN" "http://www.w3.org/Graphics/SVG/1.1/DTD/svg11.dtd" >
<svg xmlns="http://www.w3.org/2000/svg" xmlns:xlink="http://www.w3.org/1999/xlink" version="1.1" viewBox="-10 0 430 1000">
  <g transform="matrix(1 0 0 -1 0 800)">
   <path fill="currentColor"
d="M146 -14q-33 0 -52 8.5t-26.5 23.5t-7.5 33q0 28 16 66t41.5 78.5t53 76.5t49.5 60q8 8 3 13t-13 6q-19 3 -28.5 4t-16.5 1q-43 0 -66.5 -10t-23.5 -33q0 -14 4.5 -23t10.5 -15q7 -7 12.5 -13.5t5.5 -14.5q0 -14 -9 -22.5t-25 -8.5q-15 0 -29.5 14.5t-14.5 30.5
q0 28 18.5 64.5t46.5 58.5q19 15 31 21t28 6q31 0 50.5 -4t33 -7.5t27.5 -3.5q10 0 19 7t17 13.5t14 6.5q8 0 7.5 -6.5t-5.5 -12.5q-22 -25 -42 -49.5t-38 -49t-32 -47.5t-24 -44q-2 -5 0 -6.5t8 3.5q19 18 39.5 31t42 20t42.5 7q33 0 50 -22.5t17 -58.5t-20.5 -72
t-54.5 -65t-75.5 -47t-83.5 -18zM162 7q27 0 54 17.5t50 45.5t37 60t14 60q0 21 -9.5 34.5t-20.5 13.5q-24 0 -51 -18t-49 -44q-26 -31 -43.5 -66.5t-17.5 -57.5q0 -17 9.5 -31t26.5 -14z" />
  </g>

</svg>
