<?xml version="1.0" standalone="no"?>
<!DOCTYPE svg PUBLIC "-//W3C//DTD SVG 1.1//EN" "http://www.w3.org/Graphics/SVG/1.1/DTD/svg11.dtd" >
<svg xmlns="http://www.w3.org/2000/svg" xmlns:xlink="http://www.w3.org/1999/xlink" version="1.1" viewBox="-10 0 723 1000">
  <g transform="matrix(1 0 0 -1 0 800)">
   <path fill="currentColor"
d="M303 -14q-78 0 -127.5 35.5t-73.5 94t-24 127.5q0 72 25.5 146t75.5 136.5t122.5 100.5t166.5 38q78 0 128 -35.5t73.5 -94t23.5 -127.5q0 -72 -25.5 -146t-75.5 -136.5t-122.5 -100.5t-166.5 -38zM306 17q54 0 100.5 25.5t84 69t63.5 99t40 116t14 118.5q0 47 -14.5 91
t-46 72t-82.5 28q-52 0 -98 -26t-83 -70t-64.5 -99.5t-42 -116.5t-14.5 -119q0 -47 14.5 -90t46 -70.5t82.5 -27.5zM375 692q-5 0 -10.5 5.5t-5.5 10.5q0 4 9 17t22.5 28.5t27.5 27t23 11.5q17 0 35.5 -0.5t32.5 -2.5q17 -1 34 -2.5t30 -1.5q11 0 21.5 6t17.5 13t12 13.5
t8 6.5q8 0 13.5 -4.5t5.5 -12.5q0 -3 -4.5 -8t-9.5 -10q-12 -12 -24.5 -28t-22.5 -28q-6 -7 -16 -10.5t-13 -3.5q-6 0 -22.5 1t-37.5 3t-40 3t-31 1q-7 0 -17 -3.5t-16 -8.5q-9 -7 -14.5 -15t-7.5 -8zM418 843q-5 0 -9.5 4t-4.5 8q0 7 5 22t19 15h248q5 0 9 -3.5t4 -8.5
q0 -15 -9.5 -26t-21.5 -11h-240z" />
  </g>

</svg>
