<?xml version="1.0" standalone="no"?>
<!DOCTYPE svg PUBLIC "-//W3C//DTD SVG 1.1//EN" "http://www.w3.org/Graphics/SVG/1.1/DTD/svg11.dtd" >
<svg xmlns="http://www.w3.org/2000/svg" xmlns:xlink="http://www.w3.org/1999/xlink" version="1.1" viewBox="-10 0 468 1000">
  <g transform="matrix(1 0 0 -1 0 800)">
   <path fill="currentColor"
d="M87 191l13 37h219l-15 -37h-217zM108 -14q-24 0 -45 16t-33.5 42t-12.5 55q0 47 18.5 101.5t51.5 103t76.5 79.5t93.5 31t77.5 -34t27.5 -84q0 -45 -18 -98.5t-51.5 -101.5t-80 -79t-104.5 -31zM124 16q24 0 48.5 21t47 55t40 75t28 82t10.5 75q0 26 -8.5 43t-34.5 17
q-23 0 -47.5 -19t-47 -51t-40.5 -71.5t-28.5 -82t-10.5 -82.5q0 -33 11.5 -47.5t31.5 -14.5zM393 513q-15 0 -25 12t-10 27q0 16 7.5 30t20 22.5t28.5 8.5t25 -13.5t9 -29.5q0 -22 -16 -39.5t-39 -17.5zM222 513q-15 0 -25 12t-10 27q0 16 7.5 30t20 22.5t28.5 8.5t25 -13.5
t9 -29.5q0 -22 -16 -39.5t-39 -17.5z" />
  </g>

</svg>
