<?xml version="1.0" standalone="no"?>
<!DOCTYPE svg PUBLIC "-//W3C//DTD SVG 1.1//EN" "http://www.w3.org/Graphics/SVG/1.1/DTD/svg11.dtd" >
<svg xmlns="http://www.w3.org/2000/svg" xmlns:xlink="http://www.w3.org/1999/xlink" version="1.1" viewBox="-21 0 464 1000">
  <g transform="matrix(1 0 0 -1 0 800)">
   <path fill="currentColor"
d="M108 -14q-24 0 -45 16t-33.5 42t-12.5 55q0 47 18.5 101.5t51.5 103t76.5 79.5t93.5 31t77.5 -34t27.5 -84q0 -45 -18 -98.5t-51.5 -101.5t-80 -79t-104.5 -31zM124 16q24 0 48.5 21t47 55t40 75t28 82t10.5 75q0 26 -8.5 43t-34.5 17q-23 0 -47.5 -19t-47 -51
t-40.5 -71.5t-28.5 -82t-10.5 -82.5q0 -33 11.5 -47.5t31.5 -14.5zM52 -286q-14 0 -29 10t-24.5 26.5t-9.5 33.5q0 40 18 74.5t47 63.5t63 53t67 43h27q-37 -26 -69 -55t-51.5 -63.5t-19.5 -78.5q0 -13 9 -28t28 -15q16 0 35.5 14.5t28.5 24.5q2 2 8.5 6.5t12.5 5.5t6 -10
q0 -2 -4 -9.5t-6 -10.5q-13 -18 -28.5 -33t-32.5 -26.5t-36 -18t-40 -7.5zM197 544q-4 0 -6.5 2.5t-2.5 6.5q0 6 4 14t10.5 14.5t14.5 6.5h207q9 0 9 -10q0 -8 -6.5 -16t-14.5 -13t-15 -5h-200z" />
  </g>

</svg>
