<?xml version="1.0" standalone="no"?>
<!DOCTYPE svg PUBLIC "-//W3C//DTD SVG 1.1//EN" "http://www.w3.org/Graphics/SVG/1.1/DTD/svg11.dtd" >
<svg xmlns="http://www.w3.org/2000/svg" xmlns:xlink="http://www.w3.org/1999/xlink" version="1.1" viewBox="-30 0 656 1000">
  <g transform="matrix(1 0 0 -1 0 800)">
   <path fill="currentColor"
d="M4 -5q-12 0 -18 2.5t-6 8.5q0 12 36 18q37 7 67 23t41 52l138 452q11 36 -0.5 51t-44.5 22q-15 3 -20 8t-5 12q0 6 9.5 8.5t21.5 2.5q8 0 35.5 -1t68.5 -2.5t86 -1.5q40 0 68 1.5t49 4t39.5 4t38.5 1.5q8 0 8 -10q0 -9 -10 -38t-17 -69q-1 -4 -6.5 -10.5t-10.5 -6.5t-8 9
t-3 14q0 21 -6 37t-18.5 25.5t-34.5 9.5h-122q-12 0 -22.5 -4.5t-16.5 -25.5l-53 -191q-4 -14 -2.5 -23t11.5 -8q17 2 33.5 4t35.5 2q44 0 84.5 -20.5t66.5 -58t26 -88.5q0 -72 -37.5 -119t-99.5 -70t-137 -23q-25 0 -44 1t-38.5 1.5t-44.5 0.5q-40 0 -70 -2.5t-68 -2.5z
M281 25q40 0 72.5 13.5t55.5 38t35.5 57.5t12.5 71q0 71 -35.5 106t-93.5 35q-28 0 -45.5 -11t-23.5 -31q-9 -30 -20 -65.5t-21 -69.5t-17 -61q-13 -46 12.5 -64.5t67.5 -18.5z" />
  </g>

</svg>
