<?xml version="1.0" standalone="no"?>
<!DOCTYPE svg PUBLIC "-//W3C//DTD SVG 1.1//EN" "http://www.w3.org/Graphics/SVG/1.1/DTD/svg11.dtd" >
<svg xmlns="http://www.w3.org/2000/svg" xmlns:xlink="http://www.w3.org/1999/xlink" version="1.1" viewBox="-30 0 981 1000">
  <g transform="matrix(1 0 0 -1 0 800)">
   <path fill="currentColor"
d="M3 -5q-12 0 -17.5 2.5t-5.5 8.5q0 12 36 18q37 7 52.5 23t26.5 52l138 452q11 35 8 49.5t-36 21.5q-15 3 -19.5 8t-4.5 12q0 6 9 8.5t21 2.5q25 0 39 -1t26 -1.5t30 -0.5q19 0 31.5 0.5t27.5 1.5t40 1q24 0 24 -11q0 -7 -10 -12t-27 -8q-24 -4 -41 -13.5t-27.5 -23.5
t-16.5 -34l-61 -197q-2 -9 10 -9h295q12 0 16 12l58 192q11 36 -0.5 51t-44.5 22q-15 3 -20 8t-5 12q0 6 9.5 8.5t20.5 2.5q25 0 41 -1t31 -1.5t36 -0.5q20 0 33.5 0.5t28.5 1.5t40 1q24 0 24 -11q0 -7 -10 -12t-27 -8q-24 -4 -41.5 -12t-29 -22t-18.5 -38l-51 -174
q-10 -31 9 -31q20 0 38.5 1.5t40.5 1.5q42 0 82 -17t66.5 -51.5t26.5 -86.5q0 -65 -38 -108.5t-100 -65.5t-134 -22q-25 0 -44 1t-38.5 1.5t-44.5 0.5q-40 0 -70 -2.5t-68 -2.5q-12 0 -18 2.5t-6 8.5q0 12 36 18q37 7 67 23t41 52l60 193q5 15 -10 15h-298q-5 0 -8 -11
l-61 -190q-10 -31 4.5 -53.5t44.5 -28.5q15 -3 20 -7t5 -11q0 -6 -9 -8.5t-21 -2.5q-25 0 -41 1.5t-31 2.5t-36 1q-20 0 -34 -1t-29.5 -2.5t-40.5 -1.5zM647 28q39 0 71 11t55 31.5t35.5 49t12.5 62.5q0 58 -38 95t-100 37q-34 0 -47.5 -9.5t-21.5 -32.5q-14 -45 -25.5 -83
t-22.5 -78q-13 -45 12.5 -64t68.5 -19z" />
  </g>

</svg>
