<?xml version="1.0" standalone="no"?>
<!DOCTYPE svg PUBLIC "-//W3C//DTD SVG 1.1//EN" "http://www.w3.org/Graphics/SVG/1.1/DTD/svg11.dtd" >
<svg xmlns="http://www.w3.org/2000/svg" xmlns:xlink="http://www.w3.org/1999/xlink" version="1.1" viewBox="-194 0 801 1000">
  <g transform="matrix(1 0 0 -1 0 800)">
   <path fill="currentColor"
d="M-95 -200q-45 0 -67 18.5t-22 34.5q0 21 5.5 33t18.5 12q8 0 20 -11t28 -22q12 -9 27 -18t31 -9q20 0 37 12.5t34 46.5t36 98l166 554q11 36 -0.5 51t-44.5 22q-15 3 -20 8t-5 12q0 6 9.5 8.5t21.5 2.5q11 0 44.5 -1.5t64.5 -1.5h159q68 0 102.5 6t38.5 6q5 0 6.5 -2.5
t1.5 -7.5q0 -4 -1.5 -9t-3.5 -13q-5 -17 -12.5 -43.5t-10.5 -46.5q-1 -5 -4 -11t-13 -6q-7 0 -9 7.5t-2 15.5q0 18 -0.5 34t-10.5 26q-5 5 -14 8.5t-23 3.5h-144q-19 0 -26.5 -9t-12.5 -21q-1 -3 -10 -29.5t-21 -62.5t-22.5 -70t-15.5 -52q-2 -8 -1 -16.5t8 -8.5l135 3
q42 2 71 37q7 8 14.5 14.5t11.5 6.5q5 0 8.5 -4.5t0.5 -11.5q-17 -38 -25 -65.5t-21 -65.5q-2 -7 -5 -12t-8 -5q-8 0 -11.5 9t-3.5 14q0 29 -10.5 39.5t-26.5 11.5q-11 1 -35.5 1.5t-47.5 0.5h-32q-17 0 -29.5 -4.5t-18.5 -26.5l-42 -149q-24 -79 -42.5 -126.5t-34 -75
t-29.5 -43.5t-28 -31q-28 -29 -60.5 -47.5t-73.5 -18.5z" />
  </g>

</svg>
