<?xml version="1.0" standalone="no"?>
<!DOCTYPE svg PUBLIC "-//W3C//DTD SVG 1.1//EN" "http://www.w3.org/Graphics/SVG/1.1/DTD/svg11.dtd" >
<svg xmlns="http://www.w3.org/2000/svg" xmlns:xlink="http://www.w3.org/1999/xlink" version="1.1" viewBox="-51 0 531 1000">
  <g transform="matrix(1 0 0 -1 0 800)">
   <path fill="currentColor"
d="M250 -14q-10 0 -18.5 8t-12.5 20t0 22l55 142q3 8 1.5 11.5t-6.5 3.5q-10 0 -19 -5.5t-20 -14.5q-28 -24 -53 -55.5t-49.5 -60.5t-50.5 -48t-56 -19q-37 0 -49.5 16.5t-11.5 34.5q0 11 2.5 20t6.5 14q14 -10 30.5 -15t32.5 -5t44.5 18t64 48t70.5 66q3 3 3.5 5.5
t-7.5 2.5q-46 5 -69 34.5t-23 57.5q0 42 27.5 69t68.5 40t81 13q9 0 20 -0.5t21.5 -1.5t21 -1.5t19.5 -0.5q14 0 28 4.5t17 4.5q5 0 7 -5t2 -11q0 -4 -5 -14.5t-15 -33.5l-116 -271q-9 -20 -6.5 -26t11.5 -6q12 0 29.5 9t35.5 21.5t31 23.5t17 15q3 3 4 3q3 0 6 -2.5t3 -6.5
q0 -10 -12.5 -26t-32.5 -33t-43 -31.5t-45.5 -24t-39.5 -9.5zM283 221q3 0 7.5 3.5t6.5 8.5l44 113q7 18 -9 26.5t-43 8.5q-41 0 -75 -22t-34 -62q0 -42 31 -59t72 -17z" />
  </g>

</svg>
