<?xml version="1.0" standalone="no"?>
<!DOCTYPE svg PUBLIC "-//W3C//DTD SVG 1.1//EN" "http://www.w3.org/Graphics/SVG/1.1/DTD/svg11.dtd" >
<svg xmlns="http://www.w3.org/2000/svg" xmlns:xlink="http://www.w3.org/1999/xlink" version="1.1" viewBox="-10 0 574 1000">
  <g transform="matrix(1 0 0 -1 0 800)">
   <path fill="currentColor"
d="M88 -15q-5 0 -11 5t-10.5 12t-4.5 13v14.5t2 8.5t7 18q17 45 32 89t28.5 86t24.5 81q6 22 8 33t-8 11q-15 0 -30.5 -7.5t-41.5 -38.5q-4 -4 -10 -3t-6 8q0 6 2.5 15.5t7 19t8.5 14.5q17 21 38 35.5t55 14.5q18 0 30 -7.5t16 -22.5t-3 -36l-39 -115q-8 -22 16 -22h40
q12 0 16.5 2t5.5 4q25 37 58 72t67.5 63.5t64.5 45t48 16.5q33 0 44 -19.5t11 -34.5t-11 -15q-5 0 -13 1.5t-17 2.5l-16 2t-16 1q-21 0 -45.5 -13t-48.5 -32.5t-43 -38.5t-29 -31q-4 -4 -4.5 -6.5t1.5 -4.5q27 -30 43.5 -71.5t30.5 -82.5q4 -10 11.5 -17t17.5 -7
q13 0 25.5 7.5t26 21t26.5 29.5q6 8 8.5 12.5t6.5 4.5q3 0 5.5 -3t2.5 -11q0 -16 -16 -36.5t-38.5 -40.5t-44.5 -33t-34 -13q-16 0 -27 11t-21 37l-38 103q-8 23 -18.5 32t-39.5 9h-30q-20 0 -29 -4t-16 -19q-20 -45 -29.5 -77t-20.5 -62q-6 -16 -11.5 -23.5t-14.5 -7.5z
M203 67q-10 0 -18 7.5t-4 19.5l77 250q2 5 7 9t11 4t15 -10t4 -24l-74 -242q-2 -5 -7 -9.5t-11 -4.5z" />
  </g>

</svg>
