<?xml version="1.0" standalone="no"?>
<!DOCTYPE svg PUBLIC "-//W3C//DTD SVG 1.1//EN" "http://www.w3.org/Graphics/SVG/1.1/DTD/svg11.dtd" >
<svg xmlns="http://www.w3.org/2000/svg" xmlns:xlink="http://www.w3.org/1999/xlink" version="1.1" viewBox="-60 0 1119 1000">
  <g transform="matrix(1 0 0 -1 0 800)">
   <path fill="currentColor"
d="M697 -206q-9 0 -12.5 5t-0.5 15q2 7 6 14.5t9 14.5q16 23 31.5 50t27.5 51t15 35q5 16 -2.5 22.5t-27.5 6.5q-23 0 -37.5 -3t-30 -5.5t-40.5 -2.5q-12 0 -17.5 3t-5.5 9t9.5 10.5t25.5 8.5q32 8 48.5 25t27.5 51q25 76 44 140.5t35.5 127t33.5 130.5q2 5 -2.5 6t-9.5 -4
l-295 -342l-117 -152q-10 -12 -16 -18t-9 -6q-4 0 -6.5 7t-2.5 18q4 125 2.5 250.5t-6.5 250.5q-1 22 -9.5 21t-19.5 -24q-46 -91 -88.5 -181.5t-81.5 -181.5q-20 -47 -25 -72t1.5 -35t20.5 -13q15 -2 22.5 -6t7.5 -11q0 -6 -11 -9t-23 -3q-25 0 -40.5 1t-30 1.5t-37.5 0.5
q-17 0 -26.5 -1.5t-22 -3t-37.5 -1.5q-24 0 -24 10q0 7 9 11.5t26 7.5q29 5 50 16.5t40.5 36t42.5 68.5l199 388q13 25 13 44t-18.5 31.5t-59.5 17.5q-22 3 -30.5 6.5t-8.5 10.5q0 8 11.5 12t30.5 4q17 0 47 -1t62 -2.5t53 -1.5q13 0 19.5 -6.5t8.5 -21t1 -40.5l8 -422
q1 -22 9.5 -19t20.5 16q62 70 120.5 138.5t117 137.5t117.5 139q11 21 17 34.5t14 26.5q8 14 21 14h38q8 0 25 2t35 4t27 2q12 0 22.5 -4t10.5 -11q0 -8 -8.5 -13.5t-32.5 -8.5q-30 -4 -46.5 -10t-25.5 -22.5t-20 -52.5q-13 -46 -28 -103t-28.5 -117.5t-24.5 -118.5
t-18 -106q-3 -19 12.5 -35t60.5 -16q8 0 9.5 -5t-0.5 -11q-2 -8 -19.5 -29t-43.5 -49.5t-53.5 -62t-50.5 -66.5q-7 -10 -16.5 -16.5t-18.5 -6.5z" />
  </g>

</svg>
