<?xml version="1.0" standalone="no"?>
<!DOCTYPE svg PUBLIC "-//W3C//DTD SVG 1.1//EN" "http://www.w3.org/Graphics/SVG/1.1/DTD/svg11.dtd" >
<svg xmlns="http://www.w3.org/2000/svg" xmlns:xlink="http://www.w3.org/1999/xlink" version="1.1" viewBox="-30 0 769 1000">
  <g transform="matrix(1 0 0 -1 0 800)">
   <path fill="currentColor"
d="M513 -215q-9 0 -10 9t2 21.5t6 22.5q6 17 11 32t9 28q5 18 7.5 32t2.5 25q0 26 -10.5 35.5t-22.5 9.5q-23 0 -40.5 24t-30.5 61.5t-23 77.5q-14 41 -30.5 78t-40.5 60t-61 23q-21 0 -25.5 -5.5t-6.5 -13.5l-64 -207q-10 -35 4 -51t47 -23q15 -3 20 -7t5 -11q0 -6 -9 -8.5
t-21 -2.5q-25 0 -41 1.5t-31 2.5t-36 1q-35 0 -58.5 -2.5t-61.5 -2.5q-12 0 -18 2.5t-6 8.5q0 12 36 18q37 7 61.5 23t34.5 51l138 452q11 35 1.5 50t-42.5 22q-15 3 -19.5 8t-4.5 12q0 6 9 8.5t21 2.5q25 0 41 -1t31 -1.5t36 -0.5q20 0 33.5 0.5t28.5 1.5t40 1q24 0 24 -11
q0 -7 -10 -12t-27 -8q-24 -4 -41.5 -12t-28.5 -22t-18 -38l-48 -158q-10 -34 18 -34q37 0 77 18.5t79.5 56t73.5 94.5q26 45 48 75.5t47 46.5t59 16q22 0 36.5 -13.5t14.5 -40.5q0 -20 -8 -32t-19 -12q-28 9 -45 13t-36 4q-13 0 -25.5 -15t-29.5 -46q-22 -40 -45 -67.5
t-50 -49.5t-65 -47q-7 -4 -8 -4t5 -5q20 -16 36 -46t33 -71l55 -134q16 -39 39.5 -54.5t46.5 -20.5q10 -2 15.5 -8.5t3.5 -12.5q-7 -19 -29.5 -63t-48.5 -114q-4 -12 -16.5 -26.5t-24.5 -14.5z" />
  </g>

</svg>
