<?xml version="1.0" standalone="no"?>
<!DOCTYPE svg PUBLIC "-//W3C//DTD SVG 1.1//EN" "http://www.w3.org/Graphics/SVG/1.1/DTD/svg11.dtd" >
<svg xmlns="http://www.w3.org/2000/svg" xmlns:xlink="http://www.w3.org/1999/xlink" version="1.1" viewBox="-10 0 630 1000">
  <g transform="matrix(1 0 0 -1 0 800)">
   <path fill="currentColor"
d="M70 -14q-29 0 -47 20t-18 52q0 38 16.5 85t45 95t64.5 89q39 44 79 68.5t72 24.5q13 0 21 -3.5t36 -21.5q21 -13 23.5 -14.5t0.5 -1.5q3 0 5 7l60 200q5 17 -4.5 24.5t-21.5 7.5h-85q-19 0 -37.5 -5.5t-37.5 -21.5q-9 -7 -18.5 -23t-20.5 -32q-4 -5 -6.5 -7.5t-7.5 -2.5
q-4 0 -8.5 3t-1.5 12q7 20 20 47.5t27 55.5q2 5 9 7t12 2q4 0 27.5 -1t56.5 -1h32.5t20.5 -0.5t22 -0.5q35 0 61 0.5t53 1.5t64 1q28 0 25 -11q-1 -7 -11 -12t-28 -8q-40 -7 -59 -22t-30 -51l-127 -442q-2 -8 -3.5 -15.5t-1.5 -15.5q0 -22 14 -22q13 0 31 9.5t36 25.5t31 34
q2 3 4 4t4 1q8 0 6 -8q0 -11 -11 -28t-29 -35.5t-38.5 -34.5t-39.5 -26t-32 -10q-11 0 -21 6.5t-16.5 17t-6.5 21.5q0 5 4 26q2 11 6 27.5t7.5 32t5 22.5t-0.5 -2q2 8 -0.5 11.5t-5.5 -1.5q-69 -87 -121 -124t-106 -37zM107 33q27 0 59 19.5t63.5 52t58 71.5t42.5 78t16 72
q0 29 -13 45.5t-37 16.5q-23 0 -52 -22t-59 -58t-55.5 -78.5t-41 -84.5t-15.5 -74q0 -22 7.5 -30t26.5 -8z" />
  </g>

</svg>
