<?xml version="1.0" standalone="no"?>
<!DOCTYPE svg PUBLIC "-//W3C//DTD SVG 1.1//EN" "http://www.w3.org/Graphics/SVG/1.1/DTD/svg11.dtd" >
<svg xmlns="http://www.w3.org/2000/svg" xmlns:xlink="http://www.w3.org/1999/xlink" version="1.1" viewBox="-10 0 768 1000">
  <g transform="matrix(1 0 0 -1 0 800)">
   <path fill="currentColor"
d="M452 -204q-16 0 -16 23q0 6 3 22.5t7 35.5q7 27 10 47.5t3 33.5q0 26 -9 34t-31 8q-33 0 -57 -2.5t-59 -2.5q-12 0 -18 2.5t-6 8.5q0 12 36 18q37 7 61 23t35 51l67 216q3 11 1.5 13.5t-6.5 0.5q-27 -11 -52 -16.5t-49.5 -7.5t-51.5 -2q-42 0 -76.5 22t-50.5 59t-4 80
l27 87q11 35 -1 52t-49 20q-15 2 -19.5 7.5t-4.5 12.5q0 6 9 8.5t21 2.5q25 0 40 -1t28.5 -1.5t32.5 -0.5t30.5 0.5t25 1.5t38.5 1q24 0 24 -11q0 -7 -10 -12t-27 -8q-24 -4 -35.5 -12t-16.5 -22t-12 -38l-26 -87q-9 -32 5.5 -59.5t45.5 -44.5t69 -17q35 0 57.5 4t38.5 11
q11 6 16 22l53 171q11 35 1.5 50t-42.5 22q-15 3 -19.5 8t-4.5 12q0 6 9 8.5t21 2.5q25 0 41 -1t31 -1.5t36 -0.5q20 0 33.5 0.5t28.5 1.5t40 1q24 0 24 -11q0 -7 -10 -12t-27 -8q-24 -4 -41.5 -12t-28.5 -22t-18 -38l-137 -450q-10 -32 9.5 -44.5t51.5 -12.5q9 0 14 -5
t5 -14q0 -3 -8.5 -22.5t-21.5 -48t-27.5 -61.5t-27.5 -64q-5 -13 -12 -22.5t-17 -9.5z" />
  </g>

</svg>
