<?xml version="1.0" standalone="no"?>
<!DOCTYPE svg PUBLIC "-//W3C//DTD SVG 1.1//EN" "http://www.w3.org/Graphics/SVG/1.1/DTD/svg11.dtd" >
<svg xmlns="http://www.w3.org/2000/svg" xmlns:xlink="http://www.w3.org/1999/xlink" version="1.1" viewBox="-10 0 560 1000">
  <g transform="matrix(1 0 0 -1 0 800)">
   <path fill="currentColor"
d="M141 -141l50 156h40l-50 -156h-40zM175 217q-47 0 -75 15.5t-40 39t-12 47.5q0 32 16 57.5t40 25.5q15 0 22.5 -7.5t7.5 -17.5q0 -15 -7.5 -25t-16.5 -18q-8 -8 -15 -15.5t-7 -18.5q0 -18 10.5 -31.5t28 -21.5t39.5 -8zM210 -15q-21 0 -42.5 16t-35.5 40.5t-14 47.5
q0 50 20.5 106.5t56.5 106t83.5 81t100.5 31.5q35 0 54.5 -14.5t19.5 -40.5q0 -31 -19.5 -54t-52.5 -39.5t-73.5 -27.5t-82.5 -19q-6 -1 -9.5 -2.5t-5.5 -7.5q-7 -22 -14 -48t-7 -49q0 -35 13.5 -54t39.5 -19q36 0 61 18t41 36q10 11 18 11q10 0 10 -10v-3.5t-2 -4.5
q-20 -33 -45 -55.5t-53.5 -34t-61.5 -11.5zM232 242q11 0 37.5 6.5t55.5 21t49.5 36t20.5 51.5q0 13 -7 22.5t-20 9.5q-21 0 -45.5 -17.5t-46.5 -42t-36.5 -47.5t-14.5 -34q0 -6 7 -6zM485 513q-15 0 -25 12t-10 27q0 16 7.5 30t20 22.5t28.5 8.5t25 -13.5t9 -29.5
q0 -22 -16 -39.5t-39 -17.5zM314 513q-15 0 -25 12t-10 27q0 16 7.5 30t20 22.5t28.5 8.5t25 -13.5t9 -29.5q0 -22 -16 -39.5t-39 -17.5z" />
  </g>

</svg>
