<?xml version="1.0" standalone="no"?>
<!DOCTYPE svg PUBLIC "-//W3C//DTD SVG 1.1//EN" "http://www.w3.org/Graphics/SVG/1.1/DTD/svg11.dtd" >
<svg xmlns="http://www.w3.org/2000/svg" xmlns:xlink="http://www.w3.org/1999/xlink" version="1.1" viewBox="-10 0 422 1000">
  <g transform="matrix(1 0 0 -1 0 800)">
   <path fill="currentColor"
d="M258 440q-7 0 -8.5 7.5t2.5 17.5q3 8 14 29t25 47t27 50t21 37q11 19 39 19q12 0 18 -10t6 -22q0 -10 -13.5 -30.5t-33.5 -44.5t-39.5 -46t-31.5 -36q-7 -7 -13.5 -12.5t-12.5 -5.5zM119 448q-14 0 -14 9t16 14q29 10 53.5 26.5t24.5 40.5q0 14 -6.5 21t-17.5 12
q-10 5 -16.5 13t-6.5 20q0 14 14.5 26t38.5 12q27 0 41 -15.5t14 -41.5q0 -31 -14.5 -56t-36.5 -43t-46 -28t-44 -10z" />
  </g>

</svg>
