<?xml version="1.0" standalone="no"?>
<!DOCTYPE svg PUBLIC "-//W3C//DTD SVG 1.1//EN" "http://www.w3.org/Graphics/SVG/1.1/DTD/svg11.dtd" >
<svg xmlns="http://www.w3.org/2000/svg" xmlns:xlink="http://www.w3.org/1999/xlink" version="1.1" viewBox="-10 0 550 1000">
  <g transform="matrix(1 0 0 -1 0 800)">
   <path fill="currentColor"
d="M106 -15q-21 0 -42.5 16t-35.5 40.5t-14 47.5q0 50 20.5 106.5t56.5 106t83.5 81t100.5 31.5q35 0 54.5 -14.5t19.5 -40.5q0 -31 -19.5 -54t-52.5 -39.5t-73.5 -27.5t-82.5 -19q-6 -1 -9.5 -2.5t-5.5 -7.5q-7 -22 -14 -48t-7 -49q0 -35 13.5 -54t39.5 -19q36 0 61 18
t41 36q10 11 18 11q10 0 10 -10v-3.5t-2 -4.5q-20 -33 -45 -55.5t-53.5 -34t-61.5 -11.5zM128 242q11 0 37.5 6.5t55.5 21t49.5 36t20.5 51.5q0 13 -7 22.5t-20 9.5q-21 0 -45.5 -17.5t-46.5 -42t-36.5 -47.5t-14.5 -34q0 -6 7 -6zM334 609q7 0 10.5 -5.5t8.5 -21.5
q4 -14 9 -30.5t9.5 -33.5t8.5 -29q2 -8 3.5 -13.5t1.5 -7.5q0 -6 -2 -13.5t-6 -7.5q-5 0 -7 2t-7 10q-11 13 -22.5 35t-20.5 45q-2 4 -4 3t-5 -3q-23 -20 -51 -41t-49 -37q-6 -5 -12.5 -8.5t-10.5 -3.5q-9 0 -9 9q0 4 1.5 9t5.5 9q9 10 23 24.5t29.5 30.5t31 30t27.5 23
q16 13 22.5 19t14.5 6zM413 539q-9 0 -15.5 9t-6.5 19q0 13 14.5 27t27.5 22q16 10 26.5 19t10.5 20q0 9 -6.5 14.5t-17.5 5.5q-14 0 -22.5 -8t-29.5 -29q-4 -4 -8.5 -8t-9.5 -4t-11.5 12t-6.5 21q0 6 7 12.5t14 10.5q17 10 40 17.5t48 7.5q26 0 44.5 -13.5t18.5 -36.5
t-25 -42t-51 -28q-10 -4 -16 -7.5t-8 -8.5q-1 -3 0 -6.5t0 -8.5q-1 -7 -5 -12t-12 -5z" />
  </g>

</svg>
