<?xml version="1.0" standalone="no"?>
<!DOCTYPE svg PUBLIC "-//W3C//DTD SVG 1.1//EN" "http://www.w3.org/Graphics/SVG/1.1/DTD/svg11.dtd" >
<svg xmlns="http://www.w3.org/2000/svg" xmlns:xlink="http://www.w3.org/1999/xlink" version="1.1" viewBox="-204 0 743 1000">
  <g transform="matrix(1 0 0 -1 0 800)">
   <path fill="currentColor"
d="M84 297q-7 -3 -14 4t-6 13q1 7 5.5 11.5t8.5 5.5l91 43l16 3l95 44q4 2 7 2q5 0 7.5 -5t2.5 -16q0 -5 -5.5 -10t-13.5 -9l-85 -40l-16 -3zM-111 -290q-37 0 -60 12.5t-23 37.5q0 15 14.5 28.5t24.5 13.5q8 0 15 -8.5t17 -19.5q9 -10 21.5 -17t30.5 -7q25 0 46 27.5
t39 75.5t34 109l58 222q20 76 40.5 150.5t45 141.5t55 118.5t70 81t91.5 29.5q58 0 89.5 -19.5t31.5 -49.5q0 -25 -12.5 -38t-26.5 -13q-10 0 -18.5 11.5t-16.5 27.5q-9 20 -22 31t-35 11q-40 0 -69 -28t-50.5 -76.5t-39 -111.5t-34.5 -134.5t-37 -143.5l-60 -214
q-15 -54 -36 -99.5t-48.5 -78.5t-61 -51.5t-73.5 -18.5z" />
  </g>

</svg>
