<?xml version="1.0" standalone="no"?>
<!DOCTYPE svg PUBLIC "-//W3C//DTD SVG 1.1//EN" "http://www.w3.org/Graphics/SVG/1.1/DTD/svg11.dtd" >
<svg xmlns="http://www.w3.org/2000/svg" xmlns:xlink="http://www.w3.org/1999/xlink" version="1.1" viewBox="-10 0 564 1000">
  <g transform="matrix(1 0 0 -1 0 800)">
   <path fill="currentColor"
d="M99 -5q-12 0 -18 2.5t-6 8.5q0 12 36 18q37 7 61.5 23t34.5 51l138 452q11 35 1.5 50t-42.5 22q-15 3 -19.5 8t-4.5 12q0 6 9 8.5t21 2.5q25 0 41 -1t31 -1.5t36 -0.5q20 0 33.5 0.5t28.5 1.5t40 1q24 0 24 -11q0 -7 -10 -12t-27 -8q-24 -4 -41.5 -12t-28.5 -22t-18 -38
l-138 -452q-7 -23 -3 -38t18 -23t36 -13q15 -3 20 -7t5 -11q0 -6 -9 -8.5t-21 -2.5q-25 0 -41 1.5t-30.5 2.5t-36.5 1q-34 0 -58 -2.5t-62 -2.5zM157 467q-30 0 -52.5 21t-22.5 56t17.5 60.5t44.5 40t55 14.5q23 0 33 -9t10 -23q0 -35 -46 -41q-31 -4 -48.5 -18.5
t-17.5 -35.5q0 -12 8 -21.5t24 -17.5q15 -7 15 -15q0 -4 -4.5 -7.5t-15.5 -3.5z" />
  </g>

</svg>
