<?xml version="1.0" standalone="no"?>
<!DOCTYPE svg PUBLIC "-//W3C//DTD SVG 1.1//EN" "http://www.w3.org/Graphics/SVG/1.1/DTD/svg11.dtd" >
<svg xmlns="http://www.w3.org/2000/svg" xmlns:xlink="http://www.w3.org/1999/xlink" version="1.1" viewBox="-10 0 570 1000">
  <g transform="matrix(1 0 0 -1 0 800)">
   <path fill="currentColor"
d="M78 -14q-15 0 -30.5 18t-26.5 42.5t-11 44.5q0 32 14 74t38 85.5t53.5 80.5t60 60t58.5 23q8 0 14.5 -3.5t10.5 -10t4 -15.5q0 -7 -2.5 -13t-14.5 -14q-27 -20 -56 -45.5t-56 -53.5t-48.5 -57t-34 -56t-12.5 -50q0 -22 13.5 -33t38.5 -11q52 0 89.5 27t50.5 68q2 26 5 48
t7 38q4 13 13 21t22 12t27 4q12 0 20 -6.5t8 -15.5q0 -14 -11.5 -38.5t-27.5 -51t-31 -48.5q-6 -23 5.5 -42t40.5 -19q33 0 65.5 18t60 48t44 65t16.5 69q0 23 -9 44t-20 37q-10 16 -18.5 27.5t-8.5 18.5q0 11 6 19.5t14 13.5t13 5q35 0 50.5 -38.5t15.5 -91.5
q0 -51 -19 -103t-52.5 -96.5t-75.5 -71.5t-89 -27q-28 0 -42 16.5t-17.5 37t-1.5 32.5q1 4 -2 4.5t-7 -3.5q-9 -9 -30.5 -30t-52.5 -39t-71 -18zM445 441q-7 0 -8 3t-1 10t5 29.5t12 51.5t14 55.5t10 39.5q2 9 10.5 13.5t14.5 4.5q14 0 26 -14.5t12 -26.5q0 -4 -8 -21.5
t-19.5 -41t-23.5 -45.5t-20 -36q-4 -7 -11 -14.5t-13 -7.5zM348 448q-30 0 -52.5 21t-22.5 56t17.5 60.5t44.5 40t55 14.5q23 0 33 -9t10 -23q0 -35 -46 -41q-31 -4 -48.5 -18.5t-17.5 -35.5q0 -12 8 -21.5t24 -17.5q15 -7 15 -15q0 -4 -4.5 -7.5t-15.5 -3.5z" />
  </g>

</svg>
