<?xml version="1.0" standalone="no"?>
<!DOCTYPE svg PUBLIC "-//W3C//DTD SVG 1.1//EN" "http://www.w3.org/Graphics/SVG/1.1/DTD/svg11.dtd" >
<svg xmlns="http://www.w3.org/2000/svg" xmlns:xlink="http://www.w3.org/1999/xlink" version="1.1" viewBox="-10 0 751 1000">
  <g transform="matrix(1 0 0 -1 0 800)">
   <path fill="currentColor"
d="M123 -5q-12 0 -18 2.5t-6 8.5q0 7 9.5 11t26.5 7q37 7 62.5 27.5t36.5 56.5l51 160q7 20 6 36.5t-7 37.5l-56 206q-9 34 -23.5 52t-37.5 20q-14 2 -21 8.5t-7 13.5q0 6 11.5 8.5t23.5 2.5q21 0 48 -1.5t60 -1.5q22 0 41 1t34 1q12 0 17.5 -2.5t5.5 -8.5q0 -7 -9.5 -12
t-27.5 -8q-28 -4 -35 -15t2 -46l42 -159q5 -19 9.5 -28.5t9.5 -9.5t14 9t22 23q33 37 57.5 68.5t58.5 73.5q33 41 31.5 58.5t-30.5 24.5q-10 2 -17 7.5t-7 12.5q0 6 9 8.5t21 2.5q21 0 38.5 -0.5t39.5 -0.5q29 0 55.5 1.5t42.5 1.5q12 0 18.5 -2.5t6.5 -8.5q0 -7 -10 -10.5
t-24 -8.5q-19 -6 -43.5 -21.5t-46.5 -33.5t-37 -34q-25 -26 -56.5 -61t-61 -68t-48.5 -53q-22 -24 -32 -45.5t-19 -50.5l-45 -148q-10 -34 2.5 -55.5t45.5 -28.5q15 -3 20 -7t5 -11q0 -6 -9 -8.5t-21 -2.5q-25 0 -41 1.5t-31 2.5t-36 1q-23 0 -41 -1t-36 -2.5t-43 -1.5z
M323 692q-5 0 -10.5 5.5t-5.5 10.5q0 4 9 17t22.5 28.5t27.5 27t23 11.5q17 0 35.5 -0.5t32.5 -2.5q17 -1 34 -2.5t30 -1.5q11 0 21.5 6t17.5 13t12 13.5t8 6.5q8 0 13.5 -4.5t5.5 -12.5q0 -3 -4.5 -8t-9.5 -10q-12 -12 -24.5 -28t-22.5 -28q-6 -7 -16 -10.5t-13 -3.5
q-6 0 -22.5 1t-37.5 3t-40 3t-31 1q-7 0 -17 -3.5t-16 -8.5q-9 -7 -14.5 -15t-7.5 -8z" />
  </g>

</svg>
