<?xml version="1.0" standalone="no"?>
<!DOCTYPE svg PUBLIC "-//W3C//DTD SVG 1.1//EN" "http://www.w3.org/Graphics/SVG/1.1/DTD/svg11.dtd" >
<svg xmlns="http://www.w3.org/2000/svg" xmlns:xlink="http://www.w3.org/1999/xlink" version="1.1" viewBox="-10 0 764 1000">
  <g transform="matrix(1 0 0 -1 0 800)">
   <path fill="currentColor"
d="M147 -5q-12 0 -18 2.5t-6 8.5q0 7 10 10t27 6q37 7 61.5 25.5t34.5 54.5l122 428q14 51 12 67.5t-15 16.5h-83q-49 0 -75.5 -19.5t-44.5 -41.5q-9 -10 -16.5 -21.5t-14 -19.5t-12.5 -8t-8.5 2.5t-2.5 10.5q0 2 2 10t8 21q10 20 22.5 46t19.5 52q2 7 7.5 13.5t9.5 6.5
t9 -3.5t9 -8.5q3 -3 9 -6t21 -4.5t46 -1.5h357q31 0 46.5 2t22.5 5t10 6q5 5 9 8t8 3q10 0 10 -11q0 -7 -3.5 -15t-6.5 -13q-5 -10 -16 -42.5t-19 -73.5q-1 -8 -4 -11t-7 -3q-7 0 -10.5 6.5t-3.5 16.5q0 46 -14.5 70t-52.5 24h-100q-13 0 -21.5 -6t-16 -24.5t-18.5 -56.5
l-121 -425q-10 -36 3.5 -54.5t46.5 -25.5q15 -3 20 -6t5 -10q0 -6 -9 -8.5t-21 -2.5q-25 0 -41 1.5t-30.5 2.5t-35.5 1q-23 0 -41 -1t-36.5 -2.5t-43.5 -1.5zM116 -169q-5 0 -9.5 4t-4.5 8q0 7 5 22t19 15h248q5 0 9 -3.5t4 -8.5q0 -15 -9.5 -26t-21.5 -11h-240z" />
  </g>

</svg>
