<?xml version="1.0" standalone="no"?>
<!DOCTYPE svg PUBLIC "-//W3C//DTD SVG 1.1//EN" "http://www.w3.org/Graphics/SVG/1.1/DTD/svg11.dtd" >
<svg xmlns="http://www.w3.org/2000/svg" xmlns:xlink="http://www.w3.org/1999/xlink" version="1.1" viewBox="-10 0 880 1000">
  <g transform="matrix(1 0 0 -1 0 800)">
   <path fill="currentColor"
d="M470 -14q-78 0 -127.5 35.5t-73.5 94t-24 127.5q0 72 25.5 146t75.5 136.5t122.5 100.5t166.5 38q78 0 128 -35.5t73.5 -94t23.5 -127.5q0 -72 -25.5 -146t-75.5 -136.5t-122.5 -100.5t-166.5 -38zM473 17q54 0 100.5 25.5t84 69t63.5 99t40 116t14 118.5q0 47 -14.5 91
t-46 72t-82.5 28q-52 0 -98 -26t-83 -70t-64.5 -99.5t-42 -116.5t-14.5 -119q0 -47 14.5 -90t46 -70.5t82.5 -27.5zM209 460q-7 0 -8.5 7.5t2.5 17.5q3 8 14 29t25 47t27 50t21 37q11 19 39 19q12 0 18 -10t6 -22q0 -10 -13.5 -30.5t-33.5 -44.5t-39.5 -46t-31.5 -36
q-7 -7 -13.5 -12.5t-12.5 -5.5zM70 468q-14 0 -14 9t16 14q29 10 53.5 26.5t24.5 40.5q0 14 -6.5 21t-17.5 12q-10 5 -16.5 13t-6.5 20q0 14 14.5 26t38.5 12q27 0 41 -15.5t14 -41.5q0 -31 -14.5 -56t-36.5 -43t-46 -28t-44 -10z" />
  </g>

</svg>
