<?xml version="1.0" standalone="no"?>
<!DOCTYPE svg PUBLIC "-//W3C//DTD SVG 1.1//EN" "http://www.w3.org/Graphics/SVG/1.1/DTD/svg11.dtd" >
<svg xmlns="http://www.w3.org/2000/svg" xmlns:xlink="http://www.w3.org/1999/xlink" version="1.1" viewBox="-10 0 799 1000">
  <g transform="matrix(1 0 0 -1 0 800)">
   <path fill="currentColor"
d="M75 -17q-5 0 -9 5t-6.5 12t-2.5 13q0 5 6.5 24t16.5 47l92 241q5 13 0 22t-17 9q-15 0 -31.5 -7t-40.5 -39q-4 -4 -8.5 -3.5t-6.5 7.5q0 6 2 15.5t6.5 19.5t8.5 15q17 21 41 35t58 15q14 0 27.5 -4.5t20 -16.5t-1.5 -33l-57 -148q-3 -7 1.5 -8t7.5 4q43 66 82.5 112
t76 70t68.5 24q19 0 34.5 -11t21 -32.5t-5.5 -53.5l-36 -105q-3 -7 1.5 -8t7.5 4q42 69 82.5 114.5t78.5 68.5t70 23q19 0 34 -12t19.5 -35.5t-9.5 -58.5l-86 -222q-15 -36 5 -36q12 0 29 11t34.5 26t30.5 27.5t17 16.5q1 1 1.5 1h1.5q3 0 5.5 -2.5t2.5 -6.5
q0 -8 -3.5 -16.5t-14.5 -19.5q-33 -37 -74 -69t-88 -32q-8 0 -16.5 6.5t-13 17.5t-0.5 22l116 299q8 20 -0.5 30t-19.5 11q-16 1 -43 -16.5t-60 -58.5q-15 -19 -41.5 -57t-54 -81.5t-47.5 -80.5q-17 -32 -32 -53t-27 -31.5t-20 -10.5q-5 0 -9 4.5t-6.5 10.5t-2.5 12
q0 5 6.5 25.5t16.5 48.5l93 250q9 23 -2 31.5t-18 9.5q-16 2 -43 -16.5t-60 -59.5q-12 -14 -30 -40t-38.5 -57.5t-40 -64t-34.5 -59.5q-26 -48 -40 -71.5t-26 -23.5zM501 475q-8 0 -9 6.5t3 13.5l75 144q5 10 11.5 17.5t13.5 7.5q5 0 14.5 -6t17 -14t7.5 -16
q0 -4 -4.5 -11.5t-13.5 -18.5l-92 -108q-4 -6 -10.5 -10.5t-12.5 -4.5z" />
  </g>

</svg>
