<?xml version="1.0" standalone="no"?>
<!DOCTYPE svg PUBLIC "-//W3C//DTD SVG 1.1//EN" "http://www.w3.org/Graphics/SVG/1.1/DTD/svg11.dtd" >
<svg xmlns="http://www.w3.org/2000/svg" xmlns:xlink="http://www.w3.org/1999/xlink" version="1.1" viewBox="-10 0 478 1000">
  <g transform="matrix(1 0 0 -1 0 800)">
   <path fill="currentColor"
d="M58 -15q-17 0 -29.5 10.5t-19 29t-6.5 41.5q0 36 15 80t40 88.5t56 82t63 60.5t61 23q31 0 44.5 -24.5t17 -61t3.5 -71.5q0 -3 1.5 -3t2.5 3q23 38 44.5 80t43.5 83q5 10 9.5 14.5t9.5 4.5q9 0 16.5 -7.5t12 -18.5t4.5 -20q0 -6 -0.5 -10.5t-1.5 -7.5q-4 -15 -24 -49
t-52 -77t-72 -87q1 -41 15 -60.5t34 -19.5t44.5 14.5t35.5 27.5q5 6 8 8t6 2q4 0 5 -1t1 -3q0 -18 -11 -40.5t-30 -42.5t-42 -33.5t-47 -13.5q-31 0 -42 21t-11 48q0 17 2.5 35.5t6.5 31.5q-34 -34 -74 -65.5t-76.5 -51.5t-63.5 -20zM62 31q26 0 55 14.5t60 42.5t62 66
q10 12 19 24.5t15 26.5q4 47 -4 81.5t-32 34.5q-23 0 -49.5 -18t-52.5 -46.5t-47 -62.5t-34 -67t-13 -59q0 -16 5.5 -26.5t15.5 -10.5zM268 448q-14 0 -14 9t16 14q29 10 53.5 26.5t24.5 40.5q0 14 -6.5 21t-17.5 12q-10 5 -16.5 13t-6.5 20q0 14 14.5 26t38.5 12
q27 0 41 -15.5t14 -41.5q0 -31 -14.5 -56t-36.5 -43t-46 -28t-44 -10zM151 -216q-19 0 -32.5 9t-13.5 32q0 22 8.5 49t22.5 46.5t32 19.5q10 0 19 -1.5t14 -5t1 -10.5q-10 -18 -16.5 -37.5t-6.5 -33.5q0 -18 11 -18q8 0 13.5 2t9.5 3q3 2 5.5 2.5t6.5 0.5t6 -1t2 -7
q0 -9 -10.5 -21t-29 -20.5t-42.5 -8.5z" />
  </g>

</svg>
