<?xml version="1.0" standalone="no"?>
<!DOCTYPE svg PUBLIC "-//W3C//DTD SVG 1.1//EN" "http://www.w3.org/Graphics/SVG/1.1/DTD/svg11.dtd" >
<svg xmlns="http://www.w3.org/2000/svg" xmlns:xlink="http://www.w3.org/1999/xlink" version="1.1" viewBox="-10 0 483 1000">
  <g transform="matrix(1 0 0 -1 0 800)">
   <path fill="currentColor"
d="M130 -14q-28 0 -49.5 18t-31.5 40.5t-6 37.5q6 19 18.5 44.5t27.5 53t28 52.5t19 41q12 31 7.5 50t-28.5 19q-15 0 -26.5 -7.5t-18.5 -15.5t-11 -8q-5 0 -6.5 2.5t0.5 9.5q5 16 24 37.5t45.5 37.5t51.5 16q20 0 30.5 -7.5t13 -20t-2.5 -28.5q-7 -19 -23.5 -51.5
t-35.5 -68t-34.5 -65t-19.5 -42.5q-9 -31 7 -51.5t49 -20.5q40 0 77.5 28t67 72.5t47 95t17.5 95.5q0 20 -4 32.5t-6 25.5q-1 5 3.5 9.5t7.5 4.5q11 0 22 -10t18.5 -29t7.5 -47q0 -47 -16 -96t-44 -94.5t-64 -81.5t-77.5 -57t-84.5 -21zM408 494q-15 0 -25 12t-10 27
q0 16 7.5 30t20 22.5t28.5 8.5t25 -13.5t9 -29.5q0 -22 -16 -39.5t-39 -17.5zM237 494q-15 0 -25 12t-10 27q0 16 7.5 30t20 22.5t28.5 8.5t25 -13.5t9 -29.5q0 -22 -16 -39.5t-39 -17.5zM332.751 552.43q7.72754 -2.07129 10.377 3.94824q2.64941 6.02051 0.598633 13.8184
l-35.1582 158.527q-2.24023 10.9551 -6.57715 19.8828q-4.33691 8.92871 -11.0986 10.7412q-4.83008 1.29492 -15.5615 -2.04102q-10.7305 -3.33496 -20.0469 -9.12109q-9.31738 -5.78613 -11.3887 -13.5137q-1.03613 -3.86426 1.36816 -12.2744
q2.40527 -8.41016 8.25 -21.3672l60.9033 -128.154q2.31055 -6.83105 7.42383 -12.8623q5.11426 -6.03027 10.9102 -7.58398z" />
  </g>

</svg>
