<?xml version="1.0" standalone="no"?>
<!DOCTYPE svg PUBLIC "-//W3C//DTD SVG 1.1//EN" "http://www.w3.org/Graphics/SVG/1.1/DTD/svg11.dtd" >
<svg xmlns="http://www.w3.org/2000/svg" xmlns:xlink="http://www.w3.org/1999/xlink" version="1.1" viewBox="-10 0 471 1000">
  <g transform="matrix(1 0 0 -1 0 800)">
   <path fill="currentColor"
d="M189 -285q-19 0 -33.5 15.5t-14.5 31.5t6 25.5t19 33.5q8 13 23.5 44l36 72t42.5 86t42 88t35 77t22 52q3 8 5 15t4 13.5t3 12t2 10.5t1.5 9t0.5 6q0 15 -5.5 23.5t-19.5 8.5q-17 0 -45 -22.5t-63.5 -64t-75.5 -98t-81 -125.5q-6 -10 -12.5 -19.5t-13 -16t-13.5 -6.5
t-20 8t-9 22q5 16 22 45t33 58q10 18 22 43t22.5 52.5t17.5 50.5t7 36q0 39 -32 39q-23 0 -35.5 -12.5t-17.5 -12.5t-6 2.5t-1 9.5q0 9 10 23.5t26 29t33.5 24.5t32.5 10q17 0 31 -9.5t14 -31.5q0 -20 -8.5 -50.5t-20.5 -62.5t-25 -59q-1 -3 0 -5t3 -2q6 0 13 11
q35 52 67.5 91t61.5 65.5t51 39.5t36 13q15 0 31 -19t16 -47q0 -14 -3.5 -33.5t-8.5 -36.5q-39 -128 -91 -258t-98 -255q-8 -22 -17.5 -36t-21.5 -14zM263 448q-14 0 -14 9t16 14q29 10 53.5 26.5t24.5 40.5q0 14 -6.5 21t-17.5 12q-10 5 -16.5 13t-6.5 20q0 14 14.5 26
t38.5 12q27 0 41 -15.5t14 -41.5q0 -31 -14.5 -56t-36.5 -43t-46 -28t-44 -10z" />
  </g>

</svg>
