<?xml version="1.0" standalone="no"?>
<!DOCTYPE svg PUBLIC "-//W3C//DTD SVG 1.1//EN" "http://www.w3.org/Graphics/SVG/1.1/DTD/svg11.dtd" >
<svg xmlns="http://www.w3.org/2000/svg" xmlns:xlink="http://www.w3.org/1999/xlink" version="1.1" viewBox="-10 0 370 1000">
  <g transform="matrix(1 0 0 -1 0 800)">
   <path fill="currentColor"
d="M69 -14q-5 0 -12.5 5t-14 14t-9 21.5t2.5 28.5l105 341q4 11 10 15t23 4q11 0 22 -7t18 -16.5t4 -19.5q-4 -12 -15 -38.5t-25 -59.5t-28 -67.5t-25.5 -64t-17.5 -47.5q-6 -19 1 -25t17 -6t25 9.5t27 18.5q8 6 13.5 10.5t6.5 4.5q11 0 5 -16q-4 -13 -18.5 -30.5t-34 -34.5
t-40.5 -28.5t-40 -11.5zM255 445q-7 0 -8 3t-1 10t5 29.5t12 51.5t14 55.5t10 39.5q2 9 10.5 13.5t14.5 4.5q14 0 26 -14.5t12 -26.5q0 -4 -8 -21.5t-19.5 -41t-23.5 -45.5t-20 -36q-4 -7 -11 -14.5t-13 -7.5zM158 452q-30 0 -52.5 21t-22.5 56t17.5 60.5t44.5 40t55 14.5
q23 0 33 -9t10 -23q0 -35 -46 -41q-31 -4 -48.5 -18.5t-17.5 -35.5q0 -12 8 -21.5t24 -17.5q15 -7 15 -15q0 -4 -4.5 -7.5t-15.5 -3.5z" />
  </g>

</svg>
