<?xml version="1.0" standalone="no"?>
<!DOCTYPE svg PUBLIC "-//W3C//DTD SVG 1.1//EN" "http://www.w3.org/Graphics/SVG/1.1/DTD/svg11.dtd" >
<svg xmlns="http://www.w3.org/2000/svg" xmlns:xlink="http://www.w3.org/1999/xlink" version="1.1" viewBox="-10 0 896 1000">
  <g transform="matrix(1 0 0 -1 0 800)">
   <path fill="currentColor"
d="M486 -14q-78 0 -127.5 35.5t-73.5 94t-24 127.5q0 72 25.5 146t75.5 136.5t122.5 100.5t166.5 38q78 0 128 -35.5t73.5 -94t23.5 -127.5q0 -72 -25.5 -146t-75.5 -136.5t-122.5 -100.5t-166.5 -38zM489 17q54 0 100.5 25.5t84 69t63.5 99t40 116t14 118.5q0 47 -14.5 91
t-46 72t-82.5 28q-52 0 -98 -26t-83 -70t-64.5 -99.5t-42 -116.5t-14.5 -119q0 -47 14.5 -90t46 -70.5t82.5 -27.5zM283 460q-6 0 -10 6t-6 13q-5 18 -12 47.5t-12 56.5t-5 37q0 14 9 24.5t21.5 16.5t21.5 6q6 0 12.5 -4.5t6.5 -13.5q0 -13 -1.5 -38.5t-3.5 -53.5t-4 -49.5
t-3 -26.5q-2 -11 -4.5 -16t-9.5 -5zM70 468q-14 0 -14 9t16 14q29 10 53.5 26.5t24.5 40.5q0 14 -6.5 21t-17.5 12q-10 5 -16.5 13t-6.5 20q0 14 14.5 26t38.5 12q27 0 41 -15.5t14 -41.5q0 -31 -14.5 -56t-36.5 -43t-46 -28t-44 -10z" />
  </g>

</svg>
