<?xml version="1.0" standalone="no"?>
<!DOCTYPE svg PUBLIC "-//W3C//DTD SVG 1.1//EN" "http://www.w3.org/Graphics/SVG/1.1/DTD/svg11.dtd" >
<svg xmlns="http://www.w3.org/2000/svg" xmlns:xlink="http://www.w3.org/1999/xlink" version="1.1" viewBox="-10 0 408 1000">
  <g transform="matrix(1 0 0 -1 0 800)">
   <path fill="currentColor"
d="M106 -14q-20 0 -41 17t-34.5 43t-13.5 53q0 47 18 101.5t49.5 103t72 79.5t86.5 31q30 0 49.5 -18t29.5 -45.5t10 -54.5q0 -36 -10 -78t-29.5 -83t-47 -74.5t-62.5 -54t-77 -20.5zM106 62q31 0 65.5 23.5t65 59.5t49 74.5t16.5 67.5q-1 22 -17 38t-40 16q-39 0 -73.5 -22
t-62 -56.5t-42.5 -71.5t-15 -67q1 -22 16.5 -42t37.5 -20zM303 447q-30 0 -52.5 21t-22.5 56t17.5 60.5t44.5 40t55 14.5q23 0 33 -9t10 -23q0 -35 -46 -41q-31 -4 -48.5 -18.5t-17.5 -35.5q0 -12 8 -21.5t24 -17.5q15 -7 15 -15q0 -4 -4.5 -7.5t-15.5 -3.5z" />
  </g>

</svg>
