<?xml version="1.0" standalone="no"?>
<!DOCTYPE svg PUBLIC "-//W3C//DTD SVG 1.1//EN" "http://www.w3.org/Graphics/SVG/1.1/DTD/svg11.dtd" >
<svg xmlns="http://www.w3.org/2000/svg" xmlns:xlink="http://www.w3.org/1999/xlink" version="1.1" viewBox="-10 0 346 1000">
  <g transform="matrix(1 0 0 -1 0 800)">
   <path fill="currentColor"
d="M69 -14q-5 0 -12.5 5t-14 14t-9 21.5t2.5 28.5l105 341q4 11 10 15t23 4q11 0 22 -7t18 -16.5t4 -19.5q-4 -12 -15 -38.5t-25 -59.5t-28 -67.5t-25.5 -64t-17.5 -47.5q-6 -19 1 -25t17 -6t25 9.5t27 18.5q8 6 13.5 10.5t6.5 4.5q11 0 5 -16q-4 -13 -18.5 -30.5t-34 -34.5
t-40.5 -28.5t-40 -11.5zM193 478q-37 0 -58 16.5t-26.5 41.5t1.5 48q3 10 9 17t13 7q8 0 9 -6.5t0 -14.5q-2 -19 10 -34t49 -15q38 0 62 15t31 34q3 8 9 14.5t13 6.5q8 0 10 -7t-1 -17q-7 -25 -25 -49.5t-45 -40.5t-61 -16z" />
  </g>

</svg>
