<?xml version="1.0" standalone="no"?>
<!DOCTYPE svg PUBLIC "-//W3C//DTD SVG 1.1//EN" "http://www.w3.org/Graphics/SVG/1.1/DTD/svg11.dtd" >
<svg xmlns="http://www.w3.org/2000/svg" xmlns:xlink="http://www.w3.org/1999/xlink" version="1.1" viewBox="-10 0 455 1000">
  <g transform="matrix(1 0 0 -1 0 800)">
   <path fill="currentColor"
d="M130 -14q-28 0 -49.5 18t-31.5 40.5t-6 37.5q6 19 18.5 44.5t27.5 53t28 52.5t19 41q12 31 7.5 50t-28.5 19q-15 0 -26.5 -7.5t-18.5 -15.5t-11 -8q-5 0 -6.5 2.5t0.5 9.5q5 16 24 37.5t45.5 37.5t51.5 16q20 0 30.5 -7.5t13 -20t-2.5 -28.5q-7 -19 -23.5 -51.5
t-35.5 -68t-34.5 -65t-19.5 -42.5q-9 -31 7 -51.5t49 -20.5q40 0 77.5 28t67 72.5t47 95t17.5 95.5q0 20 -4 32.5t-6 25.5q-1 5 3.5 9.5t7.5 4.5q11 0 22 -10t18.5 -29t7.5 -47q0 -47 -16 -96t-44 -94.5t-64 -81.5t-77.5 -57t-84.5 -21zM409 440q-6 0 -10 6t-6 13
q-5 18 -12 47.5t-12 56.5t-5 37q0 14 9 24.5t21.5 16.5t21.5 6q6 0 12.5 -4.5t6.5 -13.5q0 -13 -1.5 -38.5t-3.5 -53.5t-4 -49.5t-3 -26.5q-2 -11 -4.5 -16t-9.5 -5zM196 448q-14 0 -14 9t16 14q29 10 53.5 26.5t24.5 40.5q0 14 -6.5 21t-17.5 12q-10 5 -16.5 13t-6.5 20
q0 14 14.5 26t38.5 12q27 0 41 -15.5t14 -41.5q0 -31 -14.5 -56t-36.5 -43t-46 -28t-44 -10z" />
  </g>

</svg>
