<?xml version="1.0" standalone="no"?>
<!DOCTYPE svg PUBLIC "-//W3C//DTD SVG 1.1//EN" "http://www.w3.org/Graphics/SVG/1.1/DTD/svg11.dtd" >
<svg xmlns="http://www.w3.org/2000/svg" xmlns:xlink="http://www.w3.org/1999/xlink" version="1.1" viewBox="-10 0 727 1000">
  <g transform="matrix(1 0 0 -1 0 800)">
   <path fill="currentColor"
d="M330 -14q-41 0 -85 17.5t-82 51t-61.5 80.5t-23.5 105q0 90 32.5 167t89.5 135t130.5 90.5t154.5 32.5q28 0 55.5 -4.5t55.5 -14.5q19 -6 33 -11t24 -5q5 0 10 2.5l11 5.5q6 2 12 4.5t11 2.5q9 0 9.5 -6t-2.5 -10q-11 -15 -25 -40t-25.5 -52t-16.5 -50q-1 -7 -7 -13.5
t-11 -6.5q-9 0 -12.5 8.5t-2.5 17.5q5 23 3.5 46.5t-18.5 45.5t-44.5 35.5t-62.5 13.5q-43 0 -88 -20t-85.5 -56.5t-73 -86.5t-51 -110.5t-18.5 -128.5q0 -61 17.5 -102t46 -66t62 -36t65.5 -11q51 0 83 16.5t54 44t42 61.5q5 8 10 13.5t13 5.5q5 0 6 -5t1 -15
q0 -7 -9 -30.5t-22 -50.5t-24.5 -46.5t-16.5 -19.5q-4 0 -9 3.5t-10 7.5q-4 4 -9.5 6.5t-11.5 2.5q-7 0 -17 -3t-24 -8q-15 -5 -36 -9.5t-47 -4.5zM457 697q-6 0 -6 6q0 7 5 15q18 30 37.5 60t39.5 59q9 13 27 13q7 0 21 -3t25.5 -8t11.5 -12t-13 -19q-29 -26 -65 -52.5
t-65 -49.5q-7 -5 -11.5 -7t-6.5 -2zM227 -281q-23 0 -40.5 7.5t-27 20t-9.5 28.5q0 27 20 27q9 0 18 -5.5t16 -13.5q11 -9 22.5 -17.5t27.5 -8.5q11 0 18.5 8.5t7.5 19.5q0 17 -10 28.5t-21 23.5q-10 11 -19 24t-9 31q0 17 17 40t42.5 46t52.5 39h30q-46 -37 -61 -64
t-15 -41q0 -10 9.5 -21.5t20.5 -22.5t20 -22.5t9 -25.5q0 -16 -14 -33.5t-34 -33t-39.5 -25t-31.5 -9.5z" />
  </g>

</svg>
