<?xml version="1.0" standalone="no"?>
<!DOCTYPE svg PUBLIC "-//W3C//DTD SVG 1.1//EN" "http://www.w3.org/Graphics/SVG/1.1/DTD/svg11.dtd" >
<svg xmlns="http://www.w3.org/2000/svg" xmlns:xlink="http://www.w3.org/1999/xlink" version="1.1" viewBox="-10 0 1340 1000">
  <g transform="matrix(1 0 0 -1 0 800)">
   <path fill="currentColor"
d="M122 -216q-27 0 -42 39q-27 71 -38.5 131t-11.5 118q0 120 42.5 231.5t119 210.5t177.5 179q15 12 29 12q10 0 10 -6q0 -4 -3 -9.5t-11 -13.5q-58 -61 -110.5 -130t-93.5 -143.5t-65 -153.5t-24 -160q0 -57 1 -103.5t7.5 -89.5t21.5 -90q3 -9 0.5 -15.5t-9.5 -6.5z
M291 -3q-3 0 -10.5 3t-7.5 7q0 5 9.5 9.5t16.5 5.5q13 1 29.5 4t31.5 12.5t21 29.5l81 265q7 24 0.5 33.5t-19 12.5t-24.5 5q-2 0 -9 5t-7 7q0 5 9 7.5t13 2.5q28 0 41 -0.5t23 -1.5t28 -1t28.5 1t23.5 1.5t40 0.5q3 0 8.5 -4t5.5 -6q0 -4 -8 -7.5t-13 -4.5
q-14 -3 -27.5 -5.5t-25 -12t-19.5 -33.5l-81 -265q-5 -19 0 -28t19 -12t33 -6q5 -1 13 -5t8 -7q0 -5 -11 -9t-18 -4q-26 0 -40.5 1.5t-26.5 2.5t-31 1q-20 0 -34 -1t-29.5 -2.5t-40.5 -1.5zM731 -13q-40 0 -70 26.5t-30 66.5q0 24 7.5 47t25.5 46.5t49 50.5t77 61q3 2 4 5.5
t-1 7.5q-12 28 -22 56.5t-10 65.5q0 34 17 64.5t45 54t61.5 37t66.5 13.5q38 0 66.5 -25.5t28.5 -63.5q0 -30 -16.5 -57.5t-53.5 -59t-97 -73.5q-3 -2 -3.5 -4.5t0.5 -5.5q22 -40 38.5 -78.5t16.5 -73.5q0 -30 -18.5 -58.5t-48.5 -52t-65 -37t-68 -13.5zM766 24q19 0 41 6
t38 24.5t16 55.5q0 45 -12.5 83t-30.5 69q-1 3 -4.5 3t-6.5 -2q-45 -34 -67.5 -62t-30.5 -52t-8 -47q0 -20 8 -38t22.5 -29t34.5 -11zM867 335q50 36 75.5 59.5t34.5 43t9 42.5q0 30 -14 52.5t-55 22.5q-21 0 -43.5 -12.5t-37.5 -34t-15 -48.5q0 -29 11.5 -60.5t24.5 -61.5
q2 -4 4.5 -4.5t5.5 1.5zM1228 708q27 0 42 -39q27 -71 38.5 -131t11.5 -118q0 -120 -42.5 -231.5t-119 -210.5t-177.5 -179q-15 -12 -29 -12q-10 0 -10 6q0 4 3 9.5t11 13.5q58 61 110.5 130t93.5 143.5t65 153.5t24 160q0 57 -1 103.5t-7.5 89.5t-21.5 90q-3 9 -0.5 15.5
t9.5 6.5z" />
  </g>

</svg>
