<?xml version="1.0" standalone="no"?>
<!DOCTYPE svg PUBLIC "-//W3C//DTD SVG 1.1//EN" "http://www.w3.org/Graphics/SVG/1.1/DTD/svg11.dtd" >
<svg xmlns="http://www.w3.org/2000/svg" xmlns:xlink="http://www.w3.org/1999/xlink" version="1.1" viewBox="-10 0 1282 1000">
  <g transform="matrix(1 0 0 -1 0 800)">
   <path fill="currentColor"
d="M208 -14q-12 0 -18 14.5t-6 35.5t4 42q11 56 22 117.5t21.5 122.5t18.5 114t12 91q5 42 2.5 61t-17.5 26.5t-48 12.5q-15 2 -23 7t-8 13t11 10.5t26 2.5q20 0 47.5 -3t65.5 -3q18 0 35.5 0.5t32.5 0.5h26q12 0 19.5 -3t7.5 -9q0 -7 -13 -12t-27 -7q-24 -2 -36.5 -9
t-18.5 -23.5t-11 -48.5q-14 -93 -29 -185t-30 -187q-5 -34 3 -34t36 32l271 320q28 32 38 51.5t10 33.5q0 24 -15 36t-53 17q-15 2 -22.5 7.5t-7.5 13.5q0 7 12 9.5t24 2.5q15 0 38.5 -1.5t48.5 -3t44 -1.5t36 1.5t32.5 3t31.5 1.5q23 0 23 -13q0 -7 -10 -12t-27 -8
q-47 -7 -62.5 -22t-20.5 -50l-56 -384q-5 -34 3.5 -33.5t34.5 32.5l186 229q61 75 113.5 134.5t103 94.5t103.5 35q38 0 54 -17.5t16 -39.5q0 -25 -19 -46.5t-51 -21.5q-21 0 -29.5 7.5t-12.5 21.5q-4 16 -9.5 23.5t-20.5 7.5t-36 -14t-49.5 -43t-67.5 -75t-90 -110
l-207 -258q-17 -22 -37.5 -47t-37 -43t-23.5 -18q-14 0 -18.5 12.5t-3 32.5t6 41.5t7.5 39.5q10 60 21 125l22 130t21 125l-330 -395q-13 -16 -27 -35t-26.5 -36.5t-22 -28.5t-14.5 -11z" />
  </g>

</svg>
