<?xml version="1.0" standalone="no"?>
<!DOCTYPE svg PUBLIC "-//W3C//DTD SVG 1.1//EN" "http://www.w3.org/Graphics/SVG/1.1/DTD/svg11.dtd" >
<svg xmlns="http://www.w3.org/2000/svg" xmlns:xlink="http://www.w3.org/1999/xlink" version="1.1" viewBox="-88 0 493 1000">
  <g transform="matrix(1 0 0 -1 0 800)">
   <path fill="currentColor"
d="M-66 -40q-7 1 -9.5 3.5t-1.5 7.5l1.5 3t4.5 7l412 510q10 12 21.5 16.5t24.5 0.5q5 -1 6.5 -5t1.5 -9q0 -3 -4.5 -10t-8.5 -12l-407 -504q-7 -10 -17.5 -9.5t-23.5 1.5zM64 -14q-8 0 -18 6.5t-16.5 15t-6.5 15.5q0 17 4.5 29t9.5 27l95 267q2 7 -1.5 9.5t-8.5 2.5l-40 2
q-13 1 -15.5 5.5t-2.5 8.5q0 2 5 7.5t12.5 11t16.5 5.5h36q11 0 15 3.5t9 14.5l24 49q4 8 15 18.5t22.5 18.5t16.5 8q8 0 10 -11t-2 -21l-26 -67q-2 -7 1.5 -9t11.5 -2q20 0 41 -3t34 -5q16 -3 19.5 -6.5t3.5 -8.5q0 -2 -4 -6.5t-15 -5.5q-22 -1 -42 -2.5t-42 -2.5
q-16 -1 -22.5 -5t-8.5 -10l-89 -246q-4 -12 -4 -21t5.5 -14t16.5 -5q14 0 30 10t31 23t25 23q11 11 19 10t8 -7q0 -7 -5 -15.5t-13 -17.5q-16 -17 -33.5 -32t-36 -27.5t-35 -21t-29.5 -13.5t-21 -5z" />
  </g>

</svg>
