<?xml version="1.0" standalone="no"?>
<!DOCTYPE svg PUBLIC "-//W3C//DTD SVG 1.1//EN" "http://www.w3.org/Graphics/SVG/1.1/DTD/svg11.dtd" >
<svg xmlns="http://www.w3.org/2000/svg" xmlns:xlink="http://www.w3.org/1999/xlink" version="1.1" viewBox="-10 0 1414 1000">
  <g transform="matrix(1 0 0 -1 0 800)">
   <path fill="currentColor"
d="M122 -216q-27 0 -42 39q-27 71 -38.5 131t-11.5 118q0 120 42.5 231.5t119 210.5t177.5 179q15 12 29 12q10 0 10 -6q0 -4 -3 -9.5t-11 -13.5q-58 -61 -110.5 -130t-93.5 -143.5t-65 -153.5t-24 -160q0 -57 1 -103.5t7.5 -89.5t21.5 -90q3 -9 0.5 -15.5t-9.5 -6.5z
M383 -17q-5 0 -9 5t-6.5 12t-2.5 13q0 5 6.5 24t16.5 47l92 241q5 13 0 22t-17 9q-15 0 -31.5 -7t-40.5 -39q-4 -4 -8.5 -3.5t-6.5 7.5q0 6 2 15.5t6.5 19.5t8.5 15q17 21 41 35t58 15q14 0 27.5 -4.5t20 -16.5t-1.5 -33l-57 -148q-3 -7 1.5 -8t7.5 4q43 66 82.5 112t76 70
t68.5 24q19 0 34.5 -11t21 -32.5t-5.5 -53.5l-36 -105q-3 -7 1.5 -8t7.5 4q42 69 82.5 114.5t78.5 68.5t70 23q19 0 34 -12t19.5 -35.5t-9.5 -58.5l-86 -222q-15 -36 5 -36q12 0 29 11t34.5 26t30.5 27.5t17 16.5q1 1 1.5 1h1.5q3 0 5.5 -2.5t2.5 -6.5q0 -8 -3.5 -16.5
t-14.5 -19.5q-33 -37 -74 -69t-88 -32q-8 0 -16.5 6.5t-13 17.5t-0.5 22l116 299q8 20 -0.5 30t-19.5 11q-16 1 -43 -16.5t-60 -58.5q-15 -19 -41.5 -57t-54 -81.5t-47.5 -80.5q-17 -32 -32 -53t-27 -31.5t-20 -10.5q-5 0 -9 4.5t-6.5 10.5t-2.5 12q0 5 6.5 25.5t16.5 48.5
l93 250q9 23 -2 31.5t-18 9.5q-16 2 -43 -16.5t-60 -59.5q-12 -14 -30 -40t-38.5 -57.5t-40 -64t-34.5 -59.5q-26 -48 -40 -71.5t-26 -23.5zM1302 708q27 0 42 -39q27 -71 38.5 -131t11.5 -118q0 -120 -42.5 -231.5t-119 -210.5t-177.5 -179q-15 -12 -29 -12q-10 0 -10 6
q0 4 3 9.5t11 13.5q58 61 110.5 130t93.5 143.5t65 153.5t24 160q0 57 -1 103.5t-7.5 89.5t-21.5 90q-3 9 -0.5 15.5t9.5 6.5z" />
  </g>

</svg>
