<?xml version="1.0" standalone="no"?>
<!DOCTYPE svg PUBLIC "-//W3C//DTD SVG 1.1//EN" "http://www.w3.org/Graphics/SVG/1.1/DTD/svg11.dtd" >
<svg xmlns="http://www.w3.org/2000/svg" xmlns:xlink="http://www.w3.org/1999/xlink" version="1.1" viewBox="-10 0 827 1000">
  <g transform="matrix(1 0 0 -1 0 800)">
   <path fill="currentColor"
d="M69 277q-4 0 -5.5 4t-0.5 8q1 6 4.5 11t10.5 6q20 2 39.5 8.5t28.5 37.5l52 171q6 20 -5.5 28.5t-37.5 18.5q-7 3 -7 10q0 13 12 15q37 6 67 13.5t40 11.5q2 1 4 1.5t3 0.5q9 0 4 -14q-4 -10 -11.5 -28t-15.5 -42l-57 -186q-8 -29 -0.5 -35t36.5 -11q5 -1 7 -5.5t0 -9.5
q-1 -5 -5 -9.5t-10 -4.5q-21 0 -34.5 1.5l-22.5 2.5t-18 1q-14 0 -31 -2.5t-47 -2.5zM58 -29q-6 0 -10.5 5t-0.5 10l606 668q10 11 18.5 14t18.5 3q11 0 14 -6t-2 -11l-606 -668q-8 -10 -17.5 -12.5t-20.5 -2.5zM529 -11q-10 0 -14 5.5t0 16.5q1 3 9 13t15 19l198 231
q2 3 3.5 6t-9.5 3h-117q-15 0 -23 -5t-16 -18q-6 -8 -13 -16t-15 -8q-5 0 -6.5 6.5t3.5 16.5q4 9 9.5 19t11 19.5t9.5 16t5 8.5q4 7 7.5 9t5.5 2h211q3 0 3.5 -5.5t-1.5 -8.5q-10 -13 -18.5 -22.5t-22.5 -25.5l-209 -255q-7 -8 -15 -17.5t-11 -9.5z" />
  </g>

</svg>
