<?xml version="1.0" standalone="no"?>
<!DOCTYPE svg PUBLIC "-//W3C//DTD SVG 1.1//EN" "http://www.w3.org/Graphics/SVG/1.1/DTD/svg11.dtd" >
<svg xmlns="http://www.w3.org/2000/svg" xmlns:xlink="http://www.w3.org/1999/xlink" version="1.1" viewBox="-10 0 903 1000">
  <g transform="matrix(1 0 0 -1 0 800)">
   <path fill="currentColor"
d="M388 -4l426 199q13 6 27 14.5t14 12.5q0 7 -9 23t-24 23l-430 198q-8 4 -14.5 1.5t-6.5 -13.5q0 -13 8.5 -26t23.5 -20l373 -174q2 -1 1.5 -2.5t-2.5 -2.5l-380 -174q-14 -7 -19 -22t-5 -22q0 -8 6 -12t11 -3zM91 -4l426 199q13 6 27 14.5t14 12.5q0 7 -9 23t-24 23
l-430 198q-8 4 -14.5 1.5t-6.5 -13.5q0 -13 8.5 -26t23.5 -20l373 -174q2 -1 1.5 -2.5t-2.5 -2.5l-380 -174q-14 -7 -19 -22t-5 -22q0 -8 6 -12t11 -3z" />
  </g>

</svg>
