<?xml version="1.0" standalone="no"?>
<!DOCTYPE svg PUBLIC "-//W3C//DTD SVG 1.1//EN" "http://www.w3.org/Graphics/SVG/1.1/DTD/svg11.dtd" >
<svg xmlns="http://www.w3.org/2000/svg" xmlns:xlink="http://www.w3.org/1999/xlink" version="1.1" viewBox="-10 0 1010 1000">
  <g transform="matrix(1 0 0 -1 0 800)">
   <path fill="currentColor"
d="M484 -14q-16 0 -24 12.5t-12.5 29.5t-11.5 30q-4 8 -12.5 40.5t-20 78.5t-23.5 97t-23.5 97t-20.5 77.5t-13 38.5q-5 9 -9.5 12.5t-8.5 3.5q-5 0 -8 -7.5t-5 -13.5q-9 -37 -19 -80.5t-19.5 -89.5t-19.5 -90t-20 -83q-15 -58 -35 -91.5t-41 -47.5t-41 -15q-26 -1 -41.5 15
t-10.5 43q2 11 12 13t23 4q14 3 30 10t32 28.5t28 66.5q9 32 36 133.5t60 247.5q5 20 -2 34.5t-26.5 24t-54.5 15.5q-4 1 -16 8t-10 16t11.5 11.5t14.5 2.5q39 0 62 -1t44.5 -2.5t57.5 -1.5q9 0 12.5 -5t7.5 -12q4 -6 12.5 -40.5t20 -85t24 -107t23.5 -107t19 -85.5t10 -43
q2 -4 7 -12t11 -8q8 0 14 21q4 14 12 48t19 78t21.5 90.5t18.5 85.5q17 79 40.5 120.5t50.5 56.5t53 15q23 0 30.5 -12.5t5.5 -23.5q-2 -13 -26 -20q-23 -6 -45.5 -21t-41 -47.5t-32.5 -93.5q-1 -7 -10 -38t-21.5 -79t-26.5 -105.5t-25 -117.5q-2 -10 -4.5 -25t-5 -28.5
t-4.5 -20.5q-2 -10 -3 -20.5t-7 -17.5t-23 -7zM699 161q-4 0 -6 4t-2 8q0 7 9.5 15t17.5 8h194q5 0 7 -3t2 -10t-12.5 -14.5t-22.5 -7.5h-187zM825 268q-41 0 -64 23.5t-23 73.5q0 36 19 72.5t56.5 61.5t90.5 25q41 0 63.5 -22.5t22.5 -60.5q0 -43 -18.5 -83t-55.5 -65
t-91 -25zM837 288q21 0 40 14.5t33 37t22.5 47t8.5 43.5q0 21 -4.5 37t-14.5 25.5t-26 9.5q-21 0 -40.5 -14t-35.5 -36.5t-25 -47.5t-9 -46q0 -18 6 -34t17.5 -26t27.5 -10z" />
  </g>

</svg>
