<?xml version="1.0" standalone="no"?>
<!DOCTYPE svg PUBLIC "-//W3C//DTD SVG 1.1//EN" "http://www.w3.org/Graphics/SVG/1.1/DTD/svg11.dtd" >
<svg xmlns="http://www.w3.org/2000/svg" xmlns:xlink="http://www.w3.org/1999/xlink" version="1.1" viewBox="-10 0 1053 1000">
  <g transform="matrix(1 0 0 -1 0 800)">
   <path fill="currentColor"
d="M316 490q8 0 9 -4.5t0 -7.5q-3 -5 -6 -11t-6 -11h653q4 0 9 -3.5t5 -7.5q0 -8 -4 -16t-11 -13.5t-17 -5.5h-660q-7 -12 -14.5 -24t-14.5 -23h707q10 0 11.5 -5t1.5 -9q-3 -8 -7 -15.5t-10 -12t-14 -4.5h-725q-2 -3 -4.5 -5.5l-5.5 -5.5q-5 -5 -6 -7.5t-1 -6.5q0 -7 7 -14
q2 -3 5 -5.5t5 -5.5h743q10 0 11.5 -5t1.5 -9q-3 -8 -7 -15.5t-10 -12t-14 -4.5h-690q8 -11 15 -23t15 -24h678q10 0 11.5 -5t1.5 -9q0 -9 -4 -16t-11.5 -11.5t-15.5 -4.5h-635q3 -5 5.5 -11t5.5 -11q2 -5 0 -8.5t-9 -3.5t-15.5 3.5t-12.5 8.5q-22 24 -44.5 48.5t-46.5 47.5
t-50 42.5t-55 34.5q-12 7 -12 13q0 4 1.5 6t11.5 7q29 15 55 34.5t50 42.5t46.5 47.5t44.5 48.5q4 4 12.5 8t15.5 4z" />
  </g>

</svg>
