<?xml version="1.0" standalone="no"?>
<!DOCTYPE svg PUBLIC "-//W3C//DTD SVG 1.1//EN" "http://www.w3.org/Graphics/SVG/1.1/DTD/svg11.dtd" >
<svg xmlns="http://www.w3.org/2000/svg" xmlns:xlink="http://www.w3.org/1999/xlink" version="1.1" viewBox="-10 0 448 1000">
  <g transform="matrix(1 0 0 -1 0 800)">
   <path fill="currentColor"
d="M353 661q4 0 7.5 -5t3.5 -9v-608q4 2 14.5 7.5t19.5 9.5t11 4q4 0 5.5 -3t1.5 -7q0 -7 -3.5 -15t-7.5 -12l-43.5 -43.5t-41.5 -44.5t-38 -48.5t-33 -54.5q-5 -10 -7 -11.5t-6 -1.5q-5 0 -7 2.5t-6 9.5q-16 28 -34 53.5t-38 48.5t-41 45t-43 44q-5 4 -8 12t-3 15
q0 10 7 10h1.5t2.5 -1q10 -5 20.5 -9.5t20.5 -9.5v590q0 9 4.5 16t12 11t18.5 5q4 0 7.5 -5t3.5 -9v-636q16 -11 31 -23t28 -25v666q0 9 6.5 16t15 11.5t13.5 4.5q4 0 7.5 -5t3.5 -9v-683q13 12 27.5 24.5t31.5 23.5v617q0 11 6 18t14 10.5t15 3.5z" />
  </g>

</svg>
