<?xml version="1.0" standalone="no"?>
<!DOCTYPE svg PUBLIC "-//W3C//DTD SVG 1.1//EN" "http://www.w3.org/Graphics/SVG/1.1/DTD/svg11.dtd" >
<svg xmlns="http://www.w3.org/2000/svg" xmlns:xlink="http://www.w3.org/1999/xlink" version="1.1" viewBox="-10 0 1010 1000">
  <g transform="matrix(1 0 0 -1 0 800)">
   <path fill="currentColor"
d="M747 472q7 0 14.5 -3.5t12.5 -7.5q21 -22 43 -43.5t45 -41.5t48.5 -38t54.5 -33q12 -7 12 -13q0 -5 -1.5 -7t-11.5 -6q-29 -15 -54.5 -33t-48.5 -38t-45 -41.5t-43 -43.5q-5 -5 -12.5 -8t-14.5 -3q-10 0 -10 7v1.5t1 2.5q12 31 28 57.5t33.5 48.5t34.5 40h-87
q-26 -15 -48.5 -32t-44 -35.5t-41.5 -38.5t-39 -40q-5 -5 -12.5 -8t-14.5 -3q-10 0 -10 7v1.5t1 2.5q12 31 28 57.5t33.5 48.5t34.5 40h-543q-5 0 -9.5 3t-4.5 8q0 6 4.5 14t12 14.5t15.5 6.5h525q-12 12 -28.5 33t-32 44t-25.5 42.5t-10 30.5q0 4 2.5 5.5t7.5 1.5
q7 0 14.5 -3.5t12.5 -7.5q19 -20 39 -40t41.5 -38.5t44 -35.5t48.5 -32h86q-12 12 -28.5 33t-32 44t-25.5 42.5t-10 30.5q0 4 2.5 5.5t7.5 1.5z" />
  </g>

</svg>
