<?xml version="1.0" standalone="no"?>
<!DOCTYPE svg PUBLIC "-//W3C//DTD SVG 1.1//EN" "http://www.w3.org/Graphics/SVG/1.1/DTD/svg11.dtd" >
<svg xmlns="http://www.w3.org/2000/svg" xmlns:xlink="http://www.w3.org/1999/xlink" version="1.1" viewBox="-64 0 803 1000">
  <g transform="matrix(1 0 0 -1 0 800)">
   <path fill="currentColor"
d="M-27 -14q-13 0 -20.5 2.5t-5.5 8.5q4 13 40 22q18 5 37.5 21t30.5 52l71 227q24 77 71.5 134t117 88.5t158.5 31.5q74 0 122.5 -33.5t65 -93t-5.5 -137.5q-10 -34 -16 -57t-11.5 -43t-12.5 -47t-18 -70q-7 -30 -2.5 -50t29.5 -25q30 -7 27 -20q-1 -6 -10 -8.5t-22 -2.5
q-11 0 -23.5 1t-26.5 1.5t-30 0.5q-22 0 -37.5 -0.5t-38.5 -0.5q-28 0 -25 11q2 7 15 12t24 8q15 4 29 20.5t26 40t20 48.5l20 60t12.5 37t12.5 38q25 78 22 136.5t-37 91t-103 32.5q-61 0 -116 -24.5t-98 -76t-68 -131.5l-62 -201q-9 -30 0 -49t19 -23q15 -5 22 -9t5 -11
q-1 -6 -10 -8.5t-22 -2.5q-16 0 -36 1t-43 1q-28 0 -51 -1.5t-46 -1.5zM243 164q-12 0 -18 2.5t-6 8.5q0 12 36 18q37 7 61 23t35 51l101 326q11 35 1.5 50t-42.5 22q-15 3 -19.5 8t-4.5 12q0 6 9 8.5t21 2.5q25 0 41 -1t31 -1.5t36 -0.5q20 0 33.5 0.5t28.5 1.5t40 1
q24 0 24 -11q0 -7 -10 -12t-27 -8q-37 -7 -57 -22t-31 -50l-101 -326q-11 -35 3.5 -51t47.5 -23q15 -3 20 -7t5 -11q0 -6 -9 -8.5t-21 -2.5q-25 0 -41 1.5t-30.5 2.5t-36.5 1q-34 0 -58 -2.5t-62 -2.5z" />
  </g>

</svg>
