<?xml version="1.0" standalone="no"?>
<!DOCTYPE svg PUBLIC "-//W3C//DTD SVG 1.1//EN" "http://www.w3.org/Graphics/SVG/1.1/DTD/svg11.dtd" >
<svg xmlns="http://www.w3.org/2000/svg" xmlns:xlink="http://www.w3.org/1999/xlink" version="1.1" viewBox="-55 0 385 1000">
  <g transform="matrix(1 0 0 -1 0 800)">
   <path fill="currentColor"
d="M-27 -3q-5 0 -12 1.5t-5 7.5q2 8 10.5 11.5t17.5 6.5q17 5 33 11.5t22 27.5l83 268q7 22 1.5 33t-23.5 14q-8 2 -14 6.5t-3 11.5q2 6 9.5 7.5t12.5 1.5q20 0 29 -1t17.5 -2.5t25.5 -1.5q18 0 28 1.5t21.5 2.5t31.5 1q6 0 13 -1.5t5 -7.5q-3 -7 -11 -11.5t-18 -6.5
q-22 -4 -35 -15.5t-20 -31.5l-28 -93q-4 -14 -2.5 -19t5.5 -5h70q16 0 26.5 9.5t22.5 27.5q3 5 9 11t11 6q6 0 7.5 -5t-0.5 -10q-4 -12 -10 -28t-10 -27q-4 -13 -6.5 -27t-6.5 -28q-1 -4 -5.5 -10.5t-9.5 -6.5q-9 0 -9.5 10.5t-1.5 13.5q1 16 -7 21t-16 6q-15 2 -30 2h-31
q-14 0 -19.5 -2t-10.5 -16l-31 -98q-7 -22 5.5 -28t25.5 -11q8 -3 14 -6.5t4 -11.5q-2 -6 -10 -7.5t-13 -1.5q-20 0 -31 1.5t-21.5 2.5t-27.5 1q-18 0 -28.5 -1t-22 -2.5t-31.5 -1.5z" />
  </g>

</svg>
