<?xml version="1.0" standalone="no"?>
<!DOCTYPE svg PUBLIC "-//W3C//DTD SVG 1.1//EN" "http://www.w3.org/Graphics/SVG/1.1/DTD/svg11.dtd" >
<svg xmlns="http://www.w3.org/2000/svg" xmlns:xlink="http://www.w3.org/1999/xlink" version="1.1" viewBox="-10 0 399 1000">
  <g transform="matrix(1 0 0 -1 0 800)">
   <path fill="currentColor"
d="M168 -20q-1 0 -4.5 1.5t-3.5 4.5q0 5 3 18.5t5.5 26.5t2.5 16q0 7 -3 7t-11 -10t-13 -15q-23 -21 -48.5 -32t-43.5 -11q-21 0 -34.5 9.5t-13.5 22.5q0 10 5.5 22t14.5 21t19 9q6 0 13.5 -2.5t14.5 -6.5q8 -3 16.5 -6t15.5 -3q16 0 32 7t27 25.5t11 51.5v352q0 74 -7 115
t-21 57t-36 16q-18 0 -30 -11.5t-20.5 -27t-14.5 -27t-12 -11.5q-7 0 -15.5 11.5t-8.5 27.5q0 30 34.5 49t82.5 19q43 0 68.5 -17.5t37.5 -56t12 -103.5v-413q0 -32 3 -51.5t15 -19.5q8 0 23.5 1t22.5 2q4 1 9.5 -1.5t5.5 -11.5q0 -8 -5 -11t-9 -3q-26 -3 -47 -9t-38 -12.5
t-32 -12.5q-3 -1 -11 -3.5t-12 -3.5z" />
  </g>

</svg>
