<?xml version="1.0" standalone="no"?>
<!DOCTYPE svg PUBLIC "-//W3C//DTD SVG 1.1//EN" "http://www.w3.org/Graphics/SVG/1.1/DTD/svg11.dtd" >
<svg xmlns="http://www.w3.org/2000/svg" xmlns:xlink="http://www.w3.org/1999/xlink" version="1.1" viewBox="-10 0 1042 1000">
  <g transform="matrix(1 0 0 -1 0 800)">
   <path fill="currentColor"
d="M122 -216q-27 0 -42 39q-27 71 -38.5 131t-11.5 118q0 120 42.5 231.5t119 210.5t177.5 179q15 12 29 12q10 0 10 -6q0 -4 -3 -9.5t-11 -13.5q-58 -61 -110.5 -130t-93.5 -143.5t-65 -153.5t-24 -160q0 -57 1 -103.5t7.5 -89.5t21.5 -90q3 -9 0.5 -15.5t-9.5 -6.5z
M433 -13q-40 0 -70 26.5t-30 66.5q0 24 7.5 47t25.5 46.5t49 50.5t77 61q3 2 4 5.5t-1 7.5q-12 28 -22 56.5t-10 65.5q0 34 17 64.5t45 54t61.5 37t66.5 13.5q38 0 66.5 -25.5t28.5 -63.5q0 -30 -16.5 -57.5t-53.5 -59t-97 -73.5q-3 -2 -3.5 -4.5t0.5 -5.5
q22 -40 38.5 -78.5t16.5 -73.5q0 -30 -18.5 -58.5t-48.5 -52t-65 -37t-68 -13.5zM468 24q19 0 41 6t38 24.5t16 55.5q0 45 -12.5 83t-30.5 69q-1 3 -4.5 3t-6.5 -2q-45 -34 -67.5 -62t-30.5 -52t-8 -47q0 -20 8 -38t22.5 -29t34.5 -11zM569 335q50 36 75.5 59.5t34.5 43
t9 42.5q0 30 -14 52.5t-55 22.5q-21 0 -43.5 -12.5t-37.5 -34t-15 -48.5q0 -29 11.5 -60.5t24.5 -61.5q2 -4 4.5 -4.5t5.5 1.5zM930 708q27 0 42 -39q27 -71 38.5 -131t11.5 -118q0 -120 -42.5 -231.5t-119 -210.5t-177.5 -179q-15 -12 -29 -12q-10 0 -10 6q0 4 3 9.5
t11 13.5q58 61 110.5 130t93.5 143.5t65 153.5t24 160q0 57 -1 103.5t-7.5 89.5t-21.5 90q-3 9 -0.5 15.5t9.5 6.5z" />
  </g>

</svg>
