<?xml version="1.0" standalone="no"?>
<!DOCTYPE svg PUBLIC "-//W3C//DTD SVG 1.1//EN" "http://www.w3.org/Graphics/SVG/1.1/DTD/svg11.dtd" >
<svg xmlns="http://www.w3.org/2000/svg" xmlns:xlink="http://www.w3.org/1999/xlink" version="1.1" viewBox="-10 0 448 1000">
  <g transform="matrix(1 0 0 -1 0 800)">
   <path fill="currentColor"
d="M215 661q4 0 7.5 -5t3.5 -9v-484q18 17 40 34.5t48.5 33.5t57.5 28q1 1 2 1h2q7 0 7 -10q0 -7 -3.5 -15t-7.5 -12q-20 -20 -39.5 -40t-38.5 -41t-36 -44t-32 -48v-87q18 17 40 34.5t48.5 33.5t57.5 28q1 1 2 1h2q7 0 7 -10q0 -7 -3.5 -15t-7.5 -12l-43.5 -43.5
t-41.5 -44.5t-38 -48.5t-33 -54.5q-5 -10 -7 -11.5t-6 -1.5q-6 0 -13 12q-16 28 -34 53.5t-38 48.5t-41 45t-43 44q-5 4 -8 12t-3 15q0 8 4 9t7 0q31 -12 58 -28t49 -33.5t39 -33.5v86q-15 25 -32 48t-36 44t-38.5 41t-39.5 40q-5 4 -8 12t-3 15q0 8 4 9t7 0q31 -12 58 -28
t49 -33.5t39 -33.5v466q0 9 6.5 16t15 11.5t13.5 4.5z" />
  </g>

</svg>
