<?xml version="1.0" standalone="no"?>
<!DOCTYPE svg PUBLIC "-//W3C//DTD SVG 1.1//EN" "http://www.w3.org/Graphics/SVG/1.1/DTD/svg11.dtd" >
<svg xmlns="http://www.w3.org/2000/svg" xmlns:xlink="http://www.w3.org/1999/xlink" version="1.1" viewBox="-10 0 859 1000">
  <g transform="matrix(1 0 0 -1 0 800)">
   <path fill="currentColor"
d="M270 -15q-65 0 -110 32.5t-68 87.5t-24 121q-1 58 18 119t55.5 118t90.5 102t123 71.5t153 26.5q40 0 73 -4.5t60 -9t46 -4.5q28 0 44 2t32.5 4t44.5 2q13 0 22.5 -3t7.5 -9q-2 -7 -9.5 -13t-26.5 -9q-30 -4 -48.5 -11.5t-29 -21t-17.5 -37.5l-140 -451q-11 -35 5 -51
t51 -23q31 -6 28 -18q-2 -6 -11 -8.5t-22 -2.5q-19 0 -36 3t-34 3q-19 0 -39.5 -3.5t-37.5 -3.5q-8 0 -8.5 7t5 24t15.5 48q2 5 -2 7.5t-14 -8.5q-21 -25 -50.5 -44.5t-66 -31t-80.5 -11.5zM305 16q26 0 58 16t64 43.5t58 63t38 75.5l96 310q9 29 0.5 53.5t-39.5 39.5
t-91 15q-61 0 -113 -27t-93 -72.5t-70 -102t-43.5 -116t-13.5 -114.5q2 -79 38.5 -131.5t110.5 -52.5z" />
  </g>

</svg>
