<?xml version="1.0" standalone="no"?>
<!DOCTYPE svg PUBLIC "-//W3C//DTD SVG 1.1//EN" "http://www.w3.org/Graphics/SVG/1.1/DTD/svg11.dtd" >
<svg xmlns="http://www.w3.org/2000/svg" xmlns:xlink="http://www.w3.org/1999/xlink" version="1.1" viewBox="-45 0 947 1000">
  <g transform="matrix(1 0 0 -1 0 800)">
   <path fill="currentColor"
d="M-17 -3q-3 0 -10.5 3t-7.5 7q0 5 9.5 9.5t16.5 5.5q13 1 29.5 4t31.5 12.5t21 29.5l81 265q7 24 0.5 33.5t-19 12.5t-24.5 5q-2 0 -9 5t-7 7q0 5 9 7.5t13 2.5q28 0 41 -0.5t23 -1.5t28 -1t28.5 1t23.5 1.5t40 0.5q3 0 8.5 -4t5.5 -6q0 -4 -8 -7.5t-13 -4.5
q-14 -3 -27.5 -5.5t-25 -12t-19.5 -33.5l-81 -265q-5 -19 0 -28t19 -12t33 -6q5 -1 13 -5t8 -7q0 -5 -11 -9t-18 -4q-26 0 -40.5 1.5t-26.5 2.5t-31 1q-20 0 -34 -1t-29.5 -2.5t-40.5 -1.5zM441 -15q-64 0 -87.5 38t-23.5 99q0 48 20 102.5t55.5 109t81 104t97 88t105 60.5
t102.5 22q3 0 5.5 -3t2.5 -5q0 -9 -9.5 -13.5t-23.5 -8.5q-37 -10 -82 -39t-86 -67t-67 -76q-5 -7 -7 -12t5 -2q13 6 25.5 9t24.5 3q26 0 46.5 -13t33 -39.5t12.5 -66.5q0 -48 -21 -99t-55 -94t-74.5 -70t-79.5 -27zM445 15q23 0 50.5 24t53 65.5t42 94t16.5 109.5
q0 22 -12 38.5t-38 16.5q-28 0 -52.5 -19t-44.5 -49t-34 -65t-21.5 -68.5t-7.5 -58.5q0 -18 4 -38.5t14.5 -35t29.5 -14.5zM736 -14q-19 0 -32 15.5t-13 34.5q0 18 9 33t23.5 23.5t32.5 8.5q20 0 32.5 -15t12.5 -35q0 -18 -8.5 -32.5t-23.5 -23.5t-33 -9z" />
  </g>

</svg>
