<?xml version="1.0" standalone="no"?>
<!DOCTYPE svg PUBLIC "-//W3C//DTD SVG 1.1//EN" "http://www.w3.org/Graphics/SVG/1.1/DTD/svg11.dtd" >
<svg xmlns="http://www.w3.org/2000/svg" xmlns:xlink="http://www.w3.org/1999/xlink" version="1.1" viewBox="-10 0 1042 1000">
  <g transform="matrix(1 0 0 -1 0 800)">
   <path fill="currentColor"
d="M122 -216q-27 0 -42 39q-27 71 -38.5 131t-11.5 118q0 120 42.5 231.5t119 210.5t177.5 179q15 12 29 12q10 0 10 -6q0 -4 -3 -9.5t-11 -13.5q-58 -61 -110.5 -130t-93.5 -143.5t-65 -153.5t-24 -160q0 -57 1 -103.5t7.5 -89.5t21.5 -90q3 -9 0.5 -15.5t-9.5 -6.5z
M537 -34q-25 0 -46 16t-40 34q-15 14 -27.5 25t-22.5 11q-30 0 -46.5 -17.5t-16.5 -40.5q0 -10 -5.5 -12t-9.5 -2q-3 0 -8 8t-6 18q-1 11 4.5 25.5t19.5 27.5l288 279l23 8q-10 -14 -18 -20.5t-21 -6.5q-15 0 -30.5 6.5t-32.5 14.5q-19 10 -40 18t-45 8q-18 0 -33 -14.5
t-15 -29.5q0 -7 2 -17t8 -19q6 -10 0 -18q-7 -7 -21.5 -14.5t-19.5 -7.5t-13 9t-8 25q0 27 13 46.5t37 41.5q12 11 30 21.5t36 17.5t29 7q17 0 33.5 -5t32.5 -11q18 -7 34 -13t29 -6q15 0 24.5 5t20.5 16q5 5 14 11.5t16 6.5q3 0 6 -3.5t3 -8.5q0 -7 -9 -21.5t-23 -28.5
l-285 -281l-15 7q12 11 20.5 13.5t20.5 2.5q23 0 42 -13t38 -29q17 -14 33.5 -26t33.5 -12q23 0 33 14.5t13 37t3 44.5q0 18 3 23.5t12 5.5q11 0 22 -13.5t11 -37.5q0 -21 -15 -43t-37 -41t-43.5 -30.5t-35.5 -11.5zM930 708q27 0 42 -39q27 -71 38.5 -131t11.5 -118
q0 -120 -42.5 -231.5t-119 -210.5t-177.5 -179q-15 -12 -29 -12q-10 0 -10 6q0 4 3 9.5t11 13.5q58 61 110.5 130t93.5 143.5t65 153.5t24 160q0 57 -1 103.5t-7.5 89.5t-21.5 90q-3 9 -0.5 15.5t9.5 6.5z" />
  </g>

</svg>
