<?xml version="1.0" standalone="no"?>
<!DOCTYPE svg PUBLIC "-//W3C//DTD SVG 1.1//EN" "http://www.w3.org/Graphics/SVG/1.1/DTD/svg11.dtd" >
<svg xmlns="http://www.w3.org/2000/svg" xmlns:xlink="http://www.w3.org/1999/xlink" version="1.1" viewBox="-45 0 904 1000">
  <g transform="matrix(1 0 0 -1 0 800)">
   <path fill="currentColor"
d="M-17 -3q-3 0 -10.5 3t-7.5 7q0 5 9.5 9.5t16.5 5.5q13 1 29.5 4t31.5 12.5t21 29.5l81 265q7 24 0.5 33.5t-19 12.5t-24.5 5q-2 0 -9 5t-7 7q0 5 9 7.5t13 2.5q28 0 41 -0.5t23 -1.5t28 -1t28.5 1t23.5 1.5t40 0.5q3 0 8.5 -4t5.5 -6q0 -4 -8 -7.5t-13 -4.5
q-14 -3 -27.5 -5.5t-25 -12t-19.5 -33.5l-81 -265q-5 -19 0 -28t19 -12t33 -6q5 -1 13 -5t8 -7q0 -5 -11 -9t-18 -4q-26 0 -40.5 1.5t-26.5 2.5t-31 1q-20 0 -34 -1t-29.5 -2.5t-40.5 -1.5zM310 -194q-39 0 -51.5 8.5t-12.5 16.5q0 9 6 18t14 15t13 6t12.5 -3t14.5 -7
q11 -5 21.5 -10t20.5 -5q65 0 97 36t32 88q0 51 -21.5 109.5t-65.5 108.5q-11 14 -17 36t12 46q8 13 18.5 29.5t21 32t16.5 25.5q9 15 22 23t21 10q20 5 40.5 10t40 9t34 6t21.5 2q6 0 7.5 -4.5t1.5 -9.5q0 -8 -5 -21t-13.5 -24t-21.5 -12q-16 -1 -36 -1h-38t-30 -1
q-9 -1 -18 -5.5t-16 -15.5l-17 -28q-7 -12 -6.5 -18.5t4.5 -11.5q14 -21 27 -41.5t26 -41.5q33 -51 43 -89t10 -70q0 -36 -15.5 -74t-45.5 -70t-72 -52t-95 -20zM693 -14q-19 0 -32 15.5t-13 34.5q0 18 9 33t23.5 23.5t32.5 8.5q20 0 32.5 -15t12.5 -35q0 -18 -8.5 -32.5
t-23.5 -23.5t-33 -9z" />
  </g>

</svg>
