<?xml version="1.0" standalone="no"?>
<!DOCTYPE svg PUBLIC "-//W3C//DTD SVG 1.1//EN" "http://www.w3.org/Graphics/SVG/1.1/DTD/svg11.dtd" >
<svg xmlns="http://www.w3.org/2000/svg" xmlns:xlink="http://www.w3.org/1999/xlink" version="1.1" viewBox="-45 0 988 1000">
  <g transform="matrix(1 0 0 -1 0 800)">
   <path fill="currentColor"
d="M-17 -3q-3 0 -10.5 3t-7.5 7q0 5 9.5 9.5t16.5 5.5q13 1 29.5 4t31.5 12.5t21 29.5l81 265q7 24 0.5 33.5t-19 12.5t-24.5 5q-2 0 -9 5t-7 7q0 5 9 7.5t13 2.5q28 0 41 -0.5t23 -1.5t28 -1t28.5 1t23.5 1.5t40 0.5q3 0 8.5 -4t5.5 -6q0 -4 -8 -7.5t-13 -4.5
q-14 -3 -27.5 -5.5t-25 -12t-19.5 -33.5l-81 -265q-5 -19 0 -28t19 -12t33 -6q5 -1 13 -5t8 -7q0 -5 -11 -9t-18 -4q-26 0 -40.5 1.5t-26.5 2.5t-31 1q-20 0 -34 -1t-29.5 -2.5t-40.5 -1.5zM317 -186q-9 0 -12.5 4.5t-3.5 8.5t9.5 16t22.5 31l327 452q3 4 2.5 7t-8.5 3
h-48.5h-59.5h-54.5h-33.5q-14 0 -29.5 -10.5t-30.5 -28.5q-4 -5 -14 -15t-16 -10q-5 0 -6.5 5t-1.5 8t2 9t6 13q8 15 20 34t22.5 34.5t12.5 19.5q4 7 7.5 9t5.5 2t21.5 -1.5t36.5 -2.5q20 -1 54.5 -1h62.5q42 0 63 1.5t31 3t17 1.5q2 0 4 -4t2 -9t-7.5 -18.5t-16.5 -28
t-16 -24.5l-338 -489q-6 -9 -16 -14.5t-17 -5.5zM777 -14q-19 0 -32 15.5t-13 34.5q0 18 9 33t23.5 23.5t32.5 8.5q20 0 32.5 -15t12.5 -35q0 -18 -8.5 -32.5t-23.5 -23.5t-33 -9z" />
  </g>

</svg>
