<?xml version="1.0" standalone="no"?>
<!DOCTYPE svg PUBLIC "-//W3C//DTD SVG 1.1//EN" "http://www.w3.org/Graphics/SVG/1.1/DTD/svg11.dtd" >
<svg xmlns="http://www.w3.org/2000/svg" xmlns:xlink="http://www.w3.org/1999/xlink" version="1.1" viewBox="-10 0 920 1000">
  <g transform="matrix(1 0 0 -1 0 800)">
   <path fill="currentColor"
d="M122 -216q-27 0 -42 39q-27 71 -38.5 131t-11.5 118q0 120 42.5 231.5t119 210.5t177.5 179q15 12 29 12q10 0 10 -6q0 -4 -3 -9.5t-11 -13.5q-58 -61 -110.5 -130t-93.5 -143.5t-65 -153.5t-24 -160q0 -57 1 -103.5t7.5 -89.5t21.5 -90q3 -9 0.5 -15.5t-9.5 -6.5z
M364 -14q-13 0 -29 14t-16 30q0 6 2 12l190 541q5 14 7.5 27t2.5 26q0 9 -9.5 17t-23.5 11q-10 2 -16 5.5t-6 7.5q0 3 0.5 5t2 4t3.5 2q19 5 46 9.5t50.5 8t31.5 3.5q5 0 8.5 -3.5t3.5 -11.5q0 -6 -2 -13.5t-4 -14.5l-202 -576q-3 -8 -4 -15.5t-1 -13.5q0 -16 10 -16
q14 0 34.5 15.5t40.5 37.5t32 39q6 8 14 15.5t12 7.5t4.5 -3.5t0.5 -9.5q0 -20 -13.5 -42t-35.5 -43.5t-47 -38.5t-48 -27t-39 -10zM808 708q27 0 42 -39q27 -71 38.5 -131t11.5 -118q0 -120 -42.5 -231.5t-119 -210.5t-177.5 -179q-15 -12 -29 -12q-10 0 -10 6q0 4 3 9.5
t11 13.5q58 61 110.5 130t93.5 143.5t65 153.5t24 160q0 57 -1 103.5t-7.5 89.5t-21.5 90q-3 9 -0.5 15.5t9.5 6.5z" />
  </g>

</svg>
