<?xml version="1.0" standalone="no"?>
<!DOCTYPE svg PUBLIC "-//W3C//DTD SVG 1.1//EN" "http://www.w3.org/Graphics/SVG/1.1/DTD/svg11.dtd" >
<svg xmlns="http://www.w3.org/2000/svg" xmlns:xlink="http://www.w3.org/1999/xlink" version="1.1" viewBox="-82 0 458 1000">
  <g transform="matrix(1 0 0 -1 0 800)">
   <path fill="currentColor"
d="M-59 -144q-2 0 -7.5 3t-4.5 7q2 5 7 6.5t11 3.5q11 2 22 9t15 18l37 121q5 17 3 28.5t-18 15.5q-4 1 -2 7.5t6 7.5q18 4 32 9.5t25 12t19 11.5q5 0 9 -1.5t3 -3.5q-2 -4 -8 -19.5t-10 -22.5q-1 -1 1 -2.5t3 -2.5q18 12 48 27t57 15q38 0 56.5 -25t4.5 -69l-34 -109
q-4 -13 2 -19t15 -8q5 -2 9.5 -3.5t2.5 -6.5q-1 -4 -8.5 -7t-9.5 -3q-13 0 -23.5 1t-23.5 1t-24.5 -1t-25.5 -1q-2 0 -7.5 3t-4.5 7q2 5 7 6.5t11 3.5q11 2 21.5 8t14.5 19l31 104q8 29 -6 44.5t-40 15.5q-16 0 -30.5 -3t-30.5 -11q-8 -4 -18 -14.5t-16 -29.5l-34 -106
q-3 -10 1.5 -17.5t13.5 -9.5q5 -2 9.5 -3.5t2.5 -6.5q-1 -4 -8 -7t-10 -3q-13 0 -23.5 1t-24.5 1q-13 0 -23.5 -1t-24.5 -1z" />
  </g>

</svg>
