<?xml version="1.0" standalone="no"?>
<!DOCTYPE svg PUBLIC "-//W3C//DTD SVG 1.1//EN" "http://www.w3.org/Graphics/SVG/1.1/DTD/svg11.dtd" >
<svg xmlns="http://www.w3.org/2000/svg" xmlns:xlink="http://www.w3.org/1999/xlink" version="1.1" viewBox="-41 0 863 1000">
  <g transform="matrix(1 0 0 -1 0 800)">
   <path fill="currentColor"
d="M466 599q95 0 168 -33.5t114 -93t41 -137.5q0 -73 -26.5 -129.5t-72 -89t-101.5 -31.5q-50 1 -79.5 23.5t-29.5 59.5q0 25 13 45t35.5 31.5t51.5 11.5q45 0 79 -26t53.5 -72.5t19.5 -107.5q0 -52 -27 -94t-71 -66.5t-95 -23.5q-44 1 -70 22.5t-26 59.5q0 20 12 32.5
t32 12.5q11 0 21.5 -10t10.5 -20q0 -17 10.5 -27t27.5 -10q33 0 61 17t45 47t17 69q0 157 -98 157q-27 0 -43 -14t-16 -37q0 -20 19 -32.5t50 -12.5q65 0 103 49t38 126q0 58 -27 108.5t-90.5 81.5t-172.5 31q-95 0 -158 -36t-94 -94.5t-31 -123.5q0 -60 27 -98t97 -38
q34 0 52.5 19t18.5 48q0 19 -9 33.5t-30 14.5q-11 0 -16 -5.5t-9 -12.5q-5 -8 -11 -16t-20 -8q-23 0 -33.5 12t-9.5 30q1 22 18 40t43 18q52 0 83.5 -29t31.5 -77q0 -37 -21 -67.5t-56 -49t-78 -18.5l-87 -1q-71 -1 -106 -26.5t-35 -76.5q0 -26 14.5 -42.5t37.5 -16.5
q8 0 13.5 5.5t5.5 12.5t-3.5 13t-11.5 8t-11.5 9t-3.5 14q0 14 12 24t29 10q24 0 39 -15t15 -39q0 -20 -11.5 -35.5t-32 -24.5t-45.5 -9q-40 0 -64 29.5t-24 79.5q0 45 22 78.5t61.5 51.5t94.5 18q8 0 11 3.5t-1 9.5q-20 34 -27.5 67t-7.5 79q0 92 44 163.5t121.5 111.5
t178.5 40z" />
  </g>

</svg>
