<?xml version="1.0" standalone="no"?>
<!DOCTYPE svg PUBLIC "-//W3C//DTD SVG 1.1//EN" "http://www.w3.org/Graphics/SVG/1.1/DTD/svg11.dtd" >
<svg xmlns="http://www.w3.org/2000/svg" xmlns:xlink="http://www.w3.org/1999/xlink" version="1.1" viewBox="-10 0 422 1000">
  <g transform="matrix(1 0 0 -1 0 800)">
   <path fill="currentColor"
d="M216 423q-39 0 -60.5 26.5t-24.5 69.5t11 90q12 39 38.5 77.5t63 63.5t77.5 25q38 0 57.5 -25t22.5 -65t-11 -86q-12 -41 -37 -81.5t-59.5 -67.5t-77.5 -27zM221 445q31 0 52.5 24t36 59.5t24.5 68.5q8 25 13.5 52t5.5 50t-10 37t-33 14q-29 0 -50.5 -22.5t-36.5 -55
t-25 -63.5q-8 -27 -14.5 -55.5t-7 -53t9.5 -40t35 -15.5z" />
  </g>

</svg>
