<?xml version="1.0" standalone="no"?>
<!DOCTYPE svg PUBLIC "-//W3C//DTD SVG 1.1//EN" "http://www.w3.org/Graphics/SVG/1.1/DTD/svg11.dtd" >
<svg xmlns="http://www.w3.org/2000/svg" xmlns:xlink="http://www.w3.org/1999/xlink" version="1.1" viewBox="-10 0 687 1000">
  <g transform="matrix(1 0 0 -1 0 800)">
   <path fill="currentColor"
d="M208 401q-26 0 -44.5 12.5t-27.5 33t-9 44.5q0 33 13.5 62.5t37 52t54.5 35.5t65 13q21 0 44.5 -6t33.5 -23q1 -2 1.5 -4t-0.5 -4q-2 -7 -14 -18.5t-22 -11.5q-4 0 -6 3.5t-3 5.5q-5 16 -17.5 27t-31.5 11q-29 0 -52.5 -22t-37 -52.5t-13.5 -58.5q-1 -28 16.5 -45
t46.5 -17q20 0 36.5 9t36.5 19q2 1 8 1q3 0 6 -3t1 -8q-1 -3 -3.5 -5.5t-5.5 -6.5q-13 -16 -45.5 -30t-67.5 -14zM19 -30q-6 0 -10.5 5t-0.5 10l606 668q10 11 18.5 14t18.5 3q11 0 14 -6t-2 -11l-606 -668q-8 -10 -17.5 -12.5t-20.5 -2.5zM412 -4q-41 0 -64 23.5t-23 73.5
q0 36 19 72.5t56.5 61.5t90.5 25q41 0 63.5 -22.5t22.5 -60.5q0 -43 -18.5 -83t-55.5 -65t-91 -25zM424 16q21 0 40 14.5t33 37t22.5 47t8.5 43.5q0 21 -4.5 37t-14.5 25.5t-26 9.5q-21 0 -40.5 -14t-35.5 -36.5t-25 -47.5t-9 -46q0 -18 6 -34t17.5 -26t27.5 -10z" />
  </g>

</svg>
