<?xml version="1.0" standalone="no"?>
<!DOCTYPE svg PUBLIC "-//W3C//DTD SVG 1.1//EN" "http://www.w3.org/Graphics/SVG/1.1/DTD/svg11.dtd" >
<svg xmlns="http://www.w3.org/2000/svg" xmlns:xlink="http://www.w3.org/1999/xlink" version="1.1" viewBox="-10 0 623 1000">
  <g transform="matrix(1 0 0 -1 0 800)">
   <path fill="currentColor"
d="M94 -27q-3 0 -3 6v15q0 2 5 24t9 46l50 289q5 31 1.5 46t-36.5 22q-15 3 -25 8t-10 12q0 6 9 8.5t21 2.5q25 0 39.5 -0.5t26.5 -1.5t31 -1q16 0 25 1t21 1.5t37 0.5q12 0 18 -2.5t6 -8.5q0 -7 -10 -12t-27 -8q-22 -4 -35.5 -19.5t-17.5 -38.5l-49 -269q-3 -15 -3.5 -19.5
t3.5 -4.5q3 0 9 4.5t17 18.5l225 278q16 20 13 33t-26 17q-15 3 -19.5 8t-4.5 12q0 6 9 8.5t21 2.5q14 0 28.5 -1.5t27.5 -1.5q26 0 52.5 1.5t46.5 1.5q8 0 16 -2.5t8 -8.5q0 -7 -10 -12t-27 -8q-13 -2 -32.5 -11t-37 -20.5t-26.5 -22.5l-254 -309q-5 -5 -16.5 -15
t-22.5 -19t-16 -14q-1 -1 -15 -10t-30 -18t-22 -9z" />
  </g>

</svg>
