<?xml version="1.0" standalone="no"?>
<!DOCTYPE svg PUBLIC "-//W3C//DTD SVG 1.1//EN" "http://www.w3.org/Graphics/SVG/1.1/DTD/svg11.dtd" >
<svg xmlns="http://www.w3.org/2000/svg" xmlns:xlink="http://www.w3.org/1999/xlink" version="1.1" viewBox="-10 0 577 1000">
  <g transform="matrix(1 0 0 -1 0 800)">
   <path fill="currentColor"
d="M185 271q-3 0 -5.5 1t-2.5 3l-23 196q-1 15 -9 22.5t-22 11.5q-4 2 -7.5 4.5t-3.5 6.5q0 5 6 7.5t12 2.5q9 0 17 -0.5t15.5 -1t16.5 -0.5q12 0 20 1t20 1q6 0 9.5 -2.5t2.5 -7.5q-1 -4 -7 -6.5t-12 -4.5q-9 -2 -13 -10t-3 -17l15 -130q1 -11 11 1l76 105q17 23 13 35
t-19 16q-13 4 -11 11q2 5 7 7.5t11 2.5q14 0 22.5 -0.5t22.5 -0.5q11 0 21 0.5t21 0.5q7 0 10 -2.5t2 -7.5q-1 -4 -7 -6.5t-12 -4.5q-13 -4 -22 -12t-7 -26l16 -111q2 -16 7 -12t10 11l82 113q13 17 11 23.5t-13 12.5q-5 3 -9 5.5t-4 6.5q0 6 8 8t10 2q10 0 18.5 -0.5
t18.5 -0.5t19 0.5t19 0.5q6 0 10 -2.5t3 -7.5q-1 -4 -6.5 -6.5t-11.5 -4.5q-10 -3 -21.5 -9.5t-19.5 -17.5l-149 -203q-3 -4 -10 -4q-8 0 -8 4l-18 150q0 5 -1.5 5.5t-6.5 -6.5l-110 -149q-3 -4 -9 -4z" />
  </g>

</svg>
