<?xml version="1.0" standalone="no"?>
<!DOCTYPE svg PUBLIC "-//W3C//DTD SVG 1.1//EN" "http://www.w3.org/Graphics/SVG/1.1/DTD/svg11.dtd" >
<svg xmlns="http://www.w3.org/2000/svg" xmlns:xlink="http://www.w3.org/1999/xlink" version="1.1" viewBox="-10 0 925 1000">
  <g transform="matrix(1 0 0 -1 0 800)">
   <path fill="currentColor"
d="M99 -27q-3 0 -3 6v15q0 2 5 24t9 46l50 289q5 31 -4 46t-42 22q-15 3 -19.5 8t-4.5 12q0 6 9 8.5t21 2.5q25 0 40.5 -0.5t28.5 -1.5t32 -1q16 0 25 1t21 1.5t37 0.5q12 0 18 -2.5t6 -8.5q0 -7 -10 -12t-27 -8q-22 -4 -35 -19.5t-18 -38.5l-52 -261q-3 -15 -3.5 -19.5
t3.5 -4.5q3 0 9 4.5t17 18.5l222 270q16 20 13 33t-26 17q-15 3 -19.5 8t-4.5 12q0 6 9 8.5t21 2.5q10 0 25.5 -0.5t31 -1.5t24.5 -1q16 0 26 1t22.5 1.5t37.5 0.5q12 0 18 -2.5t6 -8.5q0 -7 -10 -12t-27 -8q-22 -4 -35.5 -19.5t-17.5 -38.5l-41 -256q-2 -15 -3 -19.5
t3 -4.5q3 0 9 4.5t17 18.5l218 265q16 20 13 33t-26 17q-15 3 -19.5 8t-4.5 12q0 6 9 8.5t21 2.5q14 0 29.5 -1.5t28.5 -1.5q26 0 52.5 2.5t46.5 2.5q8 0 16 -2.5t8 -8.5q0 -7 -10 -12t-27 -8q-13 -2 -32.5 -11.5t-37 -21.5t-26.5 -23l-254 -309q-5 -5 -16.5 -15t-22.5 -19
t-16 -14q-1 -1 -15 -10t-30 -18t-22 -9q-3 0 -3 6v15q0 2 5 24t9 46l43 258q2 11 -2 11t-12 -9l-215 -266q-5 -5 -16.5 -15t-22.5 -19t-16 -14q-19 -18 -38.5 -27.5t-28.5 -9.5zM612 704q7 0 10 -7t8 -23q4 -15 8 -37.5t7.5 -45.5t5.5 -40t2 -21q0 -6 -2 -13.5t-6 -7.5
q-9 0 -17 17q-6 15 -16.5 41.5t-19.5 49.5q-3 8 -9 0q-23 -23 -49.5 -49t-43.5 -43q-5 -5 -12 -10.5t-11 -5.5q-9 0 -9 9q0 4 2 8.5t5 9.5q8 12 26.5 36.5t38.5 50t32 39.5q13 16 27.5 29t22.5 13z" />
  </g>

</svg>
