<?xml version="1.0" standalone="no"?>
<!DOCTYPE svg PUBLIC "-//W3C//DTD SVG 1.1//EN" "http://www.w3.org/Graphics/SVG/1.1/DTD/svg11.dtd" >
<svg xmlns="http://www.w3.org/2000/svg" xmlns:xlink="http://www.w3.org/1999/xlink" version="1.1" viewBox="-10 0 390 1000">
  <g transform="matrix(1 0 0 -1 0 800)">
   <path fill="currentColor"
d="M119 -14q-24 0 -46 16t-35.5 42t-15.5 55q-2 37 8 80t29.5 84.5t48 75.5t63.5 54.5t75 20.5q36 0 60.5 -17.5t37.5 -47t13 -65.5q0 -45 -16 -96.5t-47 -97.5t-75 -75t-100 -29zM128 16q24 0 48 20.5t45.5 54t38.5 73.5t26.5 81t9.5 75q0 28 -9.5 46t-35.5 18
q-23 0 -46.5 -18t-45.5 -49t-39 -70t-27 -81t-10 -81q0 -37 12 -53t33 -16z" />
  </g>

</svg>
