<?xml version="1.0" standalone="no"?>
<!DOCTYPE svg PUBLIC "-//W3C//DTD SVG 1.1//EN" "http://www.w3.org/Graphics/SVG/1.1/DTD/svg11.dtd" >
<svg xmlns="http://www.w3.org/2000/svg" xmlns:xlink="http://www.w3.org/1999/xlink" version="1.1" viewBox="-43 0 543 1000">
  <g transform="matrix(1 0 0 -1 0 800)">
   <path fill="currentColor"
d="M-18 60h63l144 578h-63l15 60h279l-15 -60h-63l-144 -578h63l-15 -60h-279zM369 767q-23 0 -41.5 9.5t-37.5 20.5q-18 11 -33 20.5t-32 9.5q-14 0 -27.5 -6t-37.5 -29l-27 29q15 19 28.5 36t28 29.5t30 19.5t34.5 7q23 0 41.5 -9.5t37.5 -20.5q18 -11 33 -20.5t32 -9.5
q14 0 27.5 6t37.5 29l27 -29q-30 -39 -57 -65.5t-64 -26.5z" />
  </g>

</svg>
