<?xml version="1.0" standalone="no"?>
<!DOCTYPE svg PUBLIC "-//W3C//DTD SVG 1.1//EN" "http://www.w3.org/Graphics/SVG/1.1/DTD/svg11.dtd" >
<svg xmlns="http://www.w3.org/2000/svg" xmlns:xlink="http://www.w3.org/1999/xlink" version="1.1" viewBox="-43 0 717 1000">
  <g transform="matrix(1 0 0 -1 0 800)">
   <path fill="currentColor"
d="M-18 60h63l144 578h-63l15 60h351q38 0 70 -7.5t54.5 -23t35 -40.5t12.5 -61q0 -93 -51.5 -156.5t-141.5 -82.5l60 -206q9 -33 28.5 -47t49.5 -14h6l-14 -60h-93q-65 0 -93.5 22t-39.5 75l-45 219h-68l-64 -256h63l-15 -60h-279zM277 376h90q99 0 126 108l5 20t5.5 24.5
t4.5 23.5t2 18q0 29 -19.5 46.5t-59.5 17.5h-90zM173 -281q30 23 55 53t36 54q-22 7 -34 21.5t-12 34.5v9.5t2 11.5q7 27 27 42t49 15t45.5 -16t16.5 -42q0 -12 -3 -24q-10 -38 -41.5 -81t-78.5 -78h-62v0z" />
  </g>

</svg>
