<?xml version="1.0" standalone="no"?>
<!DOCTYPE svg PUBLIC "-//W3C//DTD SVG 1.1//EN" "http://www.w3.org/Graphics/SVG/1.1/DTD/svg11.dtd" >
<svg xmlns="http://www.w3.org/2000/svg" xmlns:xlink="http://www.w3.org/1999/xlink" version="1.1" viewBox="-10 0 481 1000">
  <g transform="matrix(1 0 0 -1 0 800)">
   <path fill="currentColor"
d="M165 -212q-45 0 -71 16t-36 30l30 33q10 -13 26.5 -20.5t37.5 -7.5q26 0 38.5 13.5t12.5 33.5q0 12 -9 21.5t-40 13.5l-23 3l29 65q-67 8 -99 53t-32 120q0 60 17 126t52 121t87 91t123 36q74 0 113.5 -33t39.5 -84q0 -21 -6 -39.5t-17.5 -33t-28 -23t-37.5 -8.5
q-30 0 -45.5 20.5t-15.5 44.5q0 13 5 26.5t15.5 24.5t26 19t36.5 10v10q-12 9 -28.5 13.5t-33.5 4.5q-19 0 -35.5 -7t-31.5 -26t-29 -52.5t-28 -86.5q-15 -55 -22 -98t-7 -72q0 -43 16 -61t45 -18q45 0 81 37t71 106l39 -17q-21 -45 -43 -81t-47.5 -62t-57 -41.5
t-70.5 -19.5l-21 -47l3 -4q11 4 21 5.5t18 1.5q28 0 46 -13.5t18 -39.5q0 -24 -11 -43t-29.5 -32.5t-42.5 -21t-50 -7.5z" />
  </g>

</svg>
