<?xml version="1.0" standalone="no"?>
<!DOCTYPE svg PUBLIC "-//W3C//DTD SVG 1.1//EN" "http://www.w3.org/Graphics/SVG/1.1/DTD/svg11.dtd" >
<svg xmlns="http://www.w3.org/2000/svg" xmlns:xlink="http://www.w3.org/1999/xlink" version="1.1" viewBox="-10 0 502 1000">
  <g transform="matrix(1 0 0 -1 0 800)">
   <path fill="currentColor"
d="M158 -212q-38 0 -63.5 15.5t-25.5 53.5q0 51 39 79.5t107 50.5v4q-11 -3 -26 -3q-83 0 -121.5 46t-38.5 130q0 59 17.5 124.5t53.5 120.5t92.5 91t134.5 36q33 0 61.5 -6t49 -19.5t32.5 -34t12 -49.5q0 -23 -12 -50.5t-44 -52t-88 -43t-145 -23.5q-8 -35 -11 -63t-3 -49
q0 -45 16.5 -62t45.5 -17q45 0 82.5 37t72.5 106l39 -17q-15 -32 -28 -55t-24.5 -39.5t-22.5 -29t-22 -23.5q-19 -19 -49 -37.5t-58.5 -39.5t-49.5 -44.5t-21 -52.5q0 -14 7.5 -20t19.5 -6q14 0 24 5.5t21 16.5l32 -36q-21 -21 -45.5 -32.5t-60.5 -11.5zM203 299
q47 7 77.5 20.5t48.5 32t25.5 40.5t7.5 46q0 21 -10.5 33t-31.5 12t-36.5 -9.5t-28.5 -31t-25.5 -56.5t-26.5 -87z" />
  </g>

</svg>
