<?xml version="1.0" standalone="no"?>
<!DOCTYPE svg PUBLIC "-//W3C//DTD SVG 1.1//EN" "http://www.w3.org/Graphics/SVG/1.1/DTD/svg11.dtd" >
<svg xmlns="http://www.w3.org/2000/svg" xmlns:xlink="http://www.w3.org/1999/xlink" version="1.1" viewBox="-191 0 546 1000">
  <g transform="matrix(1 0 0 -1 0 800)">
   <path fill="currentColor"
d="M-64 -212q-60 0 -88.5 19.5t-28.5 54.5q0 29 18 52t53 23q26 0 42 -14.5t16 -39.5q0 -16 -9.5 -31t-27.5 -25l9 -10q30 3 47 28t30 73l129 513h-81l15 60l237 45l-144 -569q-12 -46 -33 -80t-49 -56t-62.5 -32.5t-72.5 -10.5zM249 608q-37 0 -56.5 19t-19.5 45q0 14 3 26
q8 32 33 50t60 18q37 0 56.5 -19t19.5 -45q0 -14 -3 -26q-8 -32 -33 -50t-60 -18z" />
  </g>

</svg>
