<?xml version="1.0" standalone="no"?>
<!DOCTYPE svg PUBLIC "-//W3C//DTD SVG 1.1//EN" "http://www.w3.org/Graphics/SVG/1.1/DTD/svg11.dtd" >
<svg xmlns="http://www.w3.org/2000/svg" xmlns:xlink="http://www.w3.org/1999/xlink" version="1.1" viewBox="-10 0 622 1000">
  <g transform="matrix(1 0 0 -1 0 800)">
   <path fill="currentColor"
d="M410 -12q-27 0 -45 7.5t-29 19t-15.5 26t-4.5 28.5q0 13 3 28.5t6 27.5l76 272q3 12 3 21q0 26 -23 26q-21 0 -46 -23t-50.5 -65t-48.5 -100t-41 -128l-32 -128h-144l108 431h-81l15 60l222 45l-40 -161l12 -4q19 34 38 64.5t41.5 52.5t50 35t62.5 13q54 0 78 -28.5
t24 -76.5q0 -18 -3.5 -38t-9.5 -42l-78 -275l18 -8l90 114l36 -21l-56 -85q-32 -48 -65 -68t-71 -20zM431 602q-23 0 -41.5 9.5t-37.5 20.5q-18 11 -33 20.5t-32 9.5q-14 0 -27.5 -6t-37.5 -29l-27 29q15 19 28.5 36t28 29.5t30 19.5t34.5 7q23 0 41.5 -9.5t37.5 -20.5
q18 -11 33 -20.5t32 -9.5q14 0 27.5 6t37.5 29l27 -29q-30 -39 -57 -65.5t-64 -26.5z" />
  </g>

</svg>
