<?xml version="1.0" standalone="no"?>
<!DOCTYPE svg PUBLIC "-//W3C//DTD SVG 1.1//EN" "http://www.w3.org/Graphics/SVG/1.1/DTD/svg11.dtd" >
<svg xmlns="http://www.w3.org/2000/svg" xmlns:xlink="http://www.w3.org/1999/xlink" version="1.1" viewBox="-10 0 488 1000">
  <g transform="matrix(1 0 0 -1 0 800)">
   <path fill="currentColor"
d="M168 325q-33 0 -56 19t-23 51q0 63 56 97.5t163 39.5q1 9 3.5 20.5t5 24t4 24t1.5 19.5q0 23 -13 34t-35 11q-9 0 -20 -1.5t-19 -3.5l-1 -7q10 -7 10 -27q0 -19 -13.5 -36t-39.5 -17q-40 0 -40 41q0 16 11 32.5t31 29.5t47 21t59 8q53 0 86 -24t33 -74q0 -12 -3 -31
t-7 -34l-37 -152l14 -6l58 73l25 -14l-39 -58q-41 -60 -84 -60q-31 0 -45 15.5t-14 38.5q0 11 4 28l-9 2q-6 -15 -16.5 -30t-25 -27t-32.5 -19.5t-39 -7.5zM214 378q12 0 24 8t22.5 21t18.5 29t12 31l9 33q-50 -3 -72.5 -17.5t-33.5 -40.5q-2 -5 -4.5 -16t-2.5 -19
q0 -15 8 -22t19 -7z" />
  </g>

</svg>
