<?xml version="1.0" standalone="no"?>
<!DOCTYPE svg PUBLIC "-//W3C//DTD SVG 1.1//EN" "http://www.w3.org/Graphics/SVG/1.1/DTD/svg11.dtd" >
<svg xmlns="http://www.w3.org/2000/svg" xmlns:xlink="http://www.w3.org/1999/xlink" version="1.1" viewBox="-10 0 870 1000">
  <g transform="matrix(1 0 0 -1 0 800)">
   <path fill="currentColor"
d="M243 366q49 0 70 86q11 43 18 71.5t11 46t5.5 27.5t1.5 17q0 25 -11 34.5t-26 9.5q-49 0 -70 -86l-18 -72t-11 -45.5t-5.5 -27.5t-1.5 -17q0 -25 11 -34.5t26 -9.5zM592 40q49 0 70 86q11 43 18 71.5t11 46t5.5 27.5t1.5 17q0 25 -11 34.5t-26 9.5q-49 0 -70 -86l-18 -72
t-11 -45.5t-5.5 -27.5t-1.5 -17q0 -25 11 -34.5t26 -9.5zM234 314q-29 0 -53.5 7t-42 22.5t-27.5 39.5t-10 58q0 32 10 78t35 88.5t67.5 72.5t107.5 30q58 0 95.5 -30t37.5 -97q0 -32 -10 -78t-35 -88.5t-67.5 -72.5t-107.5 -30zM583 -12q-29 0 -53.5 7t-42 22.5t-27.5 39.5
t-10 58q0 32 10 78t35 88.5t67.5 72.5t107.5 30q58 0 95.5 -30t37.5 -97q0 -32 -10 -78t-35 -88.5t-67.5 -72.5t-107.5 -30zM719 698h80l-615 -698h-79z" />
  </g>

</svg>
