<?xml version="1.0" standalone="no"?>
<!DOCTYPE svg PUBLIC "-//W3C//DTD SVG 1.1//EN" "http://www.w3.org/Graphics/SVG/1.1/DTD/svg11.dtd" >
<svg xmlns="http://www.w3.org/2000/svg" xmlns:xlink="http://www.w3.org/1999/xlink" version="1.1" viewBox="-43 0 848 1000">
  <g transform="matrix(1 0 0 -1 0 800)">
   <path fill="currentColor"
d="M171 -210q8 53 18.5 81.5t27.5 45.5q14 14 30 19.5t38 5.5q19 0 43.5 -4.5t71.5 -14.5q29 -7 49 -11.5t34.5 -7.5t26.5 -4t25 -1q39 0 57.5 15t18.5 42q0 23 -16 33.5t-54 10.5h-574l15 60h63l144 578h-63l15 60h279l-15 -60h-63l-143 -572h222l143 572h-63l15 60h279
l-15 -60h-63l-143 -574h6q52 0 80.5 -26.5t28.5 -74.5q0 -72 -58.5 -113t-162.5 -41q-27 0 -52.5 1.5t-52.5 4.5t-56.5 7.5t-64.5 11.5l-18 -44h-53v0z" />
  </g>

</svg>
