<?xml version="1.0" standalone="no"?>
<!DOCTYPE svg PUBLIC "-//W3C//DTD SVG 1.1//EN" "http://www.w3.org/Graphics/SVG/1.1/DTD/svg11.dtd" >
<svg xmlns="http://www.w3.org/2000/svg" xmlns:xlink="http://www.w3.org/1999/xlink" version="1.1" viewBox="-10 0 686 1000">
  <g transform="matrix(1 0 0 -1 0 800)">
   <path fill="currentColor"
d="M271 -12q-109 0 -167 60t-58 171q0 27 4.5 61.5t12.5 66.5h417l14 55q6 25 10.5 43t7 31.5t3.5 24.5t1 22q0 52 -32.5 80t-91.5 28q-70 0 -128.5 -36.5t-94.5 -96.5l-43 28q48 85 126.5 134.5t171.5 49.5q58 0 103 -18t76 -51.5t46.5 -81.5t15.5 -107q0 -50 -11.5 -104
t-33.5 -105.5t-55 -97.5t-77 -81t-98.5 -55.5t-118.5 -20.5zM272 53q74 0 120 56t70 168h-269l-13 -52q-9 -35 -9 -62q0 -56 28 -83t73 -27z" />
  </g>

</svg>
