<?xml version="1.0" standalone="no"?>
<!DOCTYPE svg PUBLIC "-//W3C//DTD SVG 1.1//EN" "http://www.w3.org/Graphics/SVG/1.1/DTD/svg11.dtd" >
<svg xmlns="http://www.w3.org/2000/svg" xmlns:xlink="http://www.w3.org/1999/xlink" version="1.1" viewBox="-43 0 1074 1000">
  <g transform="matrix(1 0 0 -1 0 800)">
   <path fill="currentColor"
d="M328 -210q8 53 18.5 81.5t27.5 45.5q14 14 30 19.5t38 5.5t52.5 -4.5t89.5 -16.5q58 -12 95.5 -17.5t72.5 -5.5q45 0 64 15.5t19 42.5q0 23 -15.5 33.5t-53.5 10.5h-799l15 60h63l144 578h-63l15 60h267l-15 -60h-51l-143 -572h148l142 572h-51l15 60h255l-15 -60h-51
l-142 -572h147l143 572h-51l15 60h267l-15 -60h-63l-143 -574h5q52 0 80.5 -26.5t28.5 -74.5q0 -72 -59.5 -113t-174.5 -41q-38 0 -72 1.5t-68 4.5t-68.5 7.5t-72.5 11.5l-18 -44h-53v0z" />
  </g>

</svg>
