<?xml version="1.0" standalone="no"?>
<!DOCTYPE svg PUBLIC "-//W3C//DTD SVG 1.1//EN" "http://www.w3.org/Graphics/SVG/1.1/DTD/svg11.dtd" >
<svg xmlns="http://www.w3.org/2000/svg" xmlns:xlink="http://www.w3.org/1999/xlink" version="1.1" viewBox="-10 0 812 1000">
  <g transform="matrix(1 0 0 -1 0 800)">
   <path fill="currentColor"
d="M147 60h63l143 574h-127l-31 -122h-110l46 186h629l-47 -186h-110l30 122h-127l-60 -241h7q25 12 54 19t65 7q91 0 138 -35t47 -105q0 -21 -4 -44t-13 -61l-35 -141q-26 -103 -88 -150t-162 -47h-76l15 60h80q22 14 40.5 38t31.5 75l44 173q9 37 14 61t5 42
q0 35 -22 52.5t-63 17.5q-55 0 -94 -27l-67 -268h63l-15 -60h-279z" />
  </g>

</svg>
