<?xml version="1.0" standalone="no"?>
<!DOCTYPE svg PUBLIC "-//W3C//DTD SVG 1.1//EN" "http://www.w3.org/Graphics/SVG/1.1/DTD/svg11.dtd" >
<svg xmlns="http://www.w3.org/2000/svg" xmlns:xlink="http://www.w3.org/1999/xlink" version="1.1" viewBox="-43 0 1005 1000">
  <g transform="matrix(1 0 0 -1 0 800)">
   <path fill="currentColor"
d="M571 -12q-112 0 -169.5 69t-57.5 189q0 20 1.5 39.5t5.5 39.5h-87l-66 -265h63l-15 -60h-279l15 60h63l144 578h-63l15 60h279l-15 -60h-63l-61 -247h84q17 61 48.5 118.5t76.5 102t103.5 71.5t130.5 27q112 0 169.5 -69t57.5 -189q0 -50 -11 -104t-32 -105.5t-53 -97.5
t-74.5 -81t-95 -55.5t-114.5 -20.5zM584 53q57 0 95 44.5t55 114.5q23 93 36.5 148.5t20.5 89t9 52.5t2 38q0 47 -22.5 76t-68.5 29q-57 0 -95 -44.5t-55 -114.5q-23 -93 -36.5 -148.5t-20.5 -89t-9 -52.5t-2 -38q0 -47 22.5 -76t68.5 -29z" />
  </g>

</svg>
