<?xml version="1.0" standalone="no"?>
<!DOCTYPE svg PUBLIC "-//W3C//DTD SVG 1.1//EN" "http://www.w3.org/Graphics/SVG/1.1/DTD/svg11.dtd" >
<svg xmlns="http://www.w3.org/2000/svg" xmlns:xlink="http://www.w3.org/1999/xlink" version="1.1" viewBox="-24 0 968 1000">
  <g transform="matrix(1 0 0 -1 0 800)">
   <path fill="currentColor"
d="M91 -12q-51 0 -78 20t-27 54q0 26 17.5 48.5t51.5 22.5q26 0 41.5 -15.5t15.5 -39.5q0 -33 -20 -50l8 -10q13 6 25.5 18t24.5 33.5t24 55t24 82.5q18 71 26 125.5t8 92.5q0 28 -8 38.5t-21 10.5q-8 0 -16.5 -4t-19.5 -15.5t-24.5 -31.5t-31.5 -51l-38 19q37 75 72.5 110
t85.5 35q54 0 86.5 -35t32.5 -110q0 -51 -6 -94h62l56 227h132l-56 -227h59q14 53 37 97t53 75.5t66 49t77 17.5q51 0 77.5 -19.5t26.5 -54.5q0 -26 -17.5 -48.5t-51.5 -22.5q-26 0 -41.5 15.5t-15.5 39.5q0 16 5.5 29t14.5 21l-8 10q-12 -7 -23.5 -19t-22.5 -33.5
t-23 -54.5t-24 -82q-17 -71 -25 -126t-8 -92q0 -29 8.5 -39.5t23.5 -10.5q9 0 18 4.5t20 16t25 31.5t32 51l38 -19q-37 -75 -73 -110t-88 -35q-57 0 -89.5 35t-32.5 110q0 28 2 55.5t6 53.5h-61l-60 -242h-132l60 242h-58q-14 -57 -37.5 -104t-54.5 -80.5t-69 -51.5t-81 -18
zM545 589q-57 0 -87 26t-30 67q0 34 20.5 58t56.5 24q29 0 47 -16.5t18 -43.5q0 -19 -8.5 -33.5t-21.5 -22.5v-6q5 -4 21 -4q37 0 77.5 27.5t75.5 92.5l35 -22q-24 -41 -48.5 -69.5t-49.5 -45.5t-51.5 -24.5t-54.5 -7.5z" />
  </g>

</svg>
