<?xml version="1.0" standalone="no"?>
<!DOCTYPE svg PUBLIC "-//W3C//DTD SVG 1.1//EN" "http://www.w3.org/Graphics/SVG/1.1/DTD/svg11.dtd" >
<svg xmlns="http://www.w3.org/2000/svg" xmlns:xlink="http://www.w3.org/1999/xlink" version="1.1" viewBox="-63 0 726 1000">
  <g transform="matrix(1 0 0 -1 0 800)">
   <path fill="currentColor"
d="M-38 60h47l364 638h131l51 -638h47l-15 -60h-266l14 60h70l-8 158h-217l-86 -158h70l-15 -60h-202zM212 280h183l-11 309h-9zM358 769q-30 0 -47.5 18t-17.5 42q0 10 3 22q6 23 27 40t51 17t47.5 -18t17.5 -42q0 -10 -3 -22q-6 -23 -27 -40t-51 -17zM568 769
q-30 0 -47.5 18t-17.5 42q0 10 3 22q6 23 27 40t51 17t47.5 -18t17.5 -42q0 -10 -3 -22q-6 -23 -27 -40t-51 -17z" />
  </g>

</svg>
