<?xml version="1.0" standalone="no"?>
<!DOCTYPE svg PUBLIC "-//W3C//DTD SVG 1.1//EN" "http://www.w3.org/Graphics/SVG/1.1/DTD/svg11.dtd" >
<svg xmlns="http://www.w3.org/2000/svg" xmlns:xlink="http://www.w3.org/1999/xlink" version="1.1" viewBox="-10 0 614 1000">
  <g transform="matrix(1 0 0 -1 0 800)">
   <path fill="currentColor"
d="M212 159q-5 -1 -11.5 -1h-12.5q-60 0 -90 29t-30 77q0 35 13 84l21 83h-82l15 60l237 45l-51 -202q-5 -20 -6.5 -31.5t-1.5 -20.5q0 -24 23 -30l27 108h62l-27 -106q61 39 90 152l30 118h144l-112 -448l18 -8l90 114l36 -21l-56 -85q-35 -53 -70 -70.5t-64 -17.5
q-27 0 -45 7t-29.5 19t-16 26.5t-4.5 29.5q0 12 3 28.5t6 27.5l31 121l-12 4q-13 -21 -28 -40.5t-29 -31.5l-22 -84h-62z" />
  </g>

</svg>
