<?xml version="1.0" standalone="no"?>
<!DOCTYPE svg PUBLIC "-//W3C//DTD SVG 1.1//EN" "http://www.w3.org/Graphics/SVG/1.1/DTD/svg11.dtd" >
<svg xmlns="http://www.w3.org/2000/svg" xmlns:xlink="http://www.w3.org/1999/xlink" version="1.1" viewBox="-10 0 559 1000">
  <g transform="matrix(1 0 0 -1 0 800)">
   <path fill="currentColor"
d="M216 -12q-91 0 -137.5 52.5t-46.5 143.5q0 58 20 120.5t58.5 114t94.5 84.5t128 33q91 0 137.5 -52.5t46.5 -143.5q0 -59 -20 -121t-58.5 -113.5t-94.5 -84.5t-128 -33zM326 480q-39 0 -64.5 -32t-38.5 -84q-5 -20 -9.5 -36.5t-8.5 -32.5h156q7 29 12 49.5t8 34.5t4 23
t1 15q0 26 -14.5 44.5t-45.5 18.5zM223 44q39 0 64.5 32t38.5 84q6 22 10.5 41t9.5 36h-156q-8 -32 -13 -53.5t-8 -36.5t-4.5 -24t-1.5 -16q0 -26 14.5 -44.5t45.5 -18.5z" />
  </g>

</svg>
