<?xml version="1.0" standalone="no"?>
<!DOCTYPE svg PUBLIC "-//W3C//DTD SVG 1.1//EN" "http://www.w3.org/Graphics/SVG/1.1/DTD/svg11.dtd" >
<svg xmlns="http://www.w3.org/2000/svg" xmlns:xlink="http://www.w3.org/1999/xlink" version="1.1" viewBox="-18 0 559 1000">
  <g transform="matrix(1 0 0 -1 0 800)">
   <path fill="currentColor"
d="M97 -12q-48 0 -76.5 28t-28.5 76q0 86 77 139.5t229 60.5q3 11 7 26.5t7 32t5.5 32t2.5 26.5q0 35 -21.5 52t-58.5 17q-12 0 -25.5 -1.5t-24.5 -4.5l-3 -9q8 -6 16.5 -16.5t8.5 -27.5q0 -14 -5 -28.5t-14.5 -25.5t-24.5 -18t-34 -7q-27 0 -42.5 14.5t-15.5 44.5
q0 25 16 49.5t44.5 44t67 31.5t84.5 12q77 0 123.5 -36.5t46.5 -108.5q0 -17 -4.5 -40t-9.5 -45l-57 -230l18 -8l90 114l36 -21l-56 -85q-31 -47 -62 -67.5t-63 -20.5q-44 0 -64 22.5t-20 56.5q0 8 1 18t4 24l-11 2q-10 -23 -24.5 -45t-35 -39t-46 -28t-57.5 -11zM163 66
q17 0 34.5 11.5t32.5 30.5t26.5 42t17.5 46l15 61q-72 -10 -109.5 -37.5t-48.5 -69.5q-2 -7 -5 -19t-3 -23q0 -21 11.5 -31.5t28.5 -10.5zM310 589q-57 0 -87 26t-30 67q0 34 20.5 58t56.5 24q29 0 47 -16.5t18 -43.5q0 -19 -8.5 -33.5t-21.5 -22.5v-6q5 -4 21 -4
q37 0 77.5 27.5t75.5 92.5l35 -22q-24 -41 -48.5 -69.5t-49.5 -45.5t-51.5 -24.5t-54.5 -7.5z" />
  </g>

</svg>
