<?xml version="1.0" standalone="no"?>
<!DOCTYPE svg PUBLIC "-//W3C//DTD SVG 1.1//EN" "http://www.w3.org/Graphics/SVG/1.1/DTD/svg11.dtd" >
<svg xmlns="http://www.w3.org/2000/svg" xmlns:xlink="http://www.w3.org/1999/xlink" version="1.1" viewBox="-14 0 493 1000">
  <g transform="matrix(1 0 0 -1 0 800)">
   <path fill="currentColor"
d="M151 -12q-33 0 -61.5 6t-49 19.5t-32.5 34t-12 49.5q0 23 12 50.5t44 52t88 43t145 23.5q8 35 11 63t3 49q0 43 -16 61t-45 18q-46 0 -84 -37.5t-72 -105.5l-39 17q22 48 46.5 86t54 64.5t65.5 40.5t83 14q81 0 119 -46.5t38 -129.5q0 -59 -17.5 -124.5t-53.5 -120.5
t-92.5 -91t-134.5 -36zM158 41q21 0 36.5 9.5t28.5 31t25.5 56.5t26.5 87q-47 -7 -77.5 -20.5t-48.5 -32t-25.5 -40.5t-7.5 -46q0 -21 10.5 -33t31.5 -12z" />
  </g>

</svg>
