<?xml version="1.0" standalone="no"?>
<!DOCTYPE svg PUBLIC "-//W3C//DTD SVG 1.1//EN" "http://www.w3.org/Graphics/SVG/1.1/DTD/svg11.dtd" >
<svg xmlns="http://www.w3.org/2000/svg" xmlns:xlink="http://www.w3.org/1999/xlink" version="1.1" viewBox="-40 0 859 1000">
  <g transform="matrix(1 0 0 -1 0 800)">
   <path fill="currentColor"
d="M63 -12q-42 0 -67.5 22t-25.5 57q0 29 18.5 52.5t55.5 23.5q26 0 42.5 -14.5t16.5 -39.5q0 -14 -6 -26t-16 -19l8 -6q8 1 24 17q10 10 20 26.5t22 48t27 82t34 128.5l32 125h-81l14 59h398l-56 -222l12 -4q26 25 51.5 35.5t57.5 10.5q61 0 96 -32t35 -87
q0 -51 -18.5 -94.5t-51 -75t-77 -49.5t-95.5 -18q-91 0 -136.5 44t-45.5 121q0 21 5.5 52t16.5 72l46 184h-108l-28 -115q-20 -83 -36 -137.5t-30.5 -90t-27.5 -55.5t-28 -35q-22 -22 -46 -31t-52 -9zM536 40q28 0 49.5 24t35.5 81q13 52 13 90q0 29 -10 40.5t-30 11.5
q-15 0 -31 -8t-30 -21.5t-24.5 -31.5t-15.5 -38q-10 -40 -10 -79q0 -35 15 -52t38 -17z" />
  </g>

</svg>
