<?xml version="1.0" standalone="no"?>
<!DOCTYPE svg PUBLIC "-//W3C//DTD SVG 1.1//EN" "http://www.w3.org/Graphics/SVG/1.1/DTD/svg11.dtd" >
<svg xmlns="http://www.w3.org/2000/svg" xmlns:xlink="http://www.w3.org/1999/xlink" version="1.1" viewBox="-10 0 632 1000">
  <g transform="matrix(1 0 0 -1 0 800)">
   <path fill="currentColor"
d="M232 -12q-54 0 -92.5 11.5t-62.5 30t-35.5 41.5t-11.5 47q0 23 8 40.5t20.5 29.5t28.5 18t32 6q35 0 51.5 -17t16.5 -42q0 -32 -20.5 -51t-54.5 -23l-3 -8q15 -11 37.5 -18t60.5 -7q75 0 119.5 30.5t61.5 96.5q5 23 9.5 45.5t4.5 35.5q0 32 -21 50.5t-76 18.5h-87l18 71
h78q48 0 85.5 29t51.5 88q5 18 7 32t2 23q0 34 -23.5 53.5t-65.5 19.5q-51 0 -87 -30t-47 -78l-10 -39h-104l52 206h104l-15 -60h6q26 32 64 52t98 20q88 0 134 -39t46 -105q0 -81 -49.5 -129.5t-136.5 -68.5l-2 -8q64 -13 98.5 -46t34.5 -85t-22.5 -96t-64.5 -76.5
t-102.5 -50.5t-135.5 -18z" />
  </g>

</svg>
