<?xml version="1.0" standalone="no"?>
<!DOCTYPE svg PUBLIC "-//W3C//DTD SVG 1.1//EN" "http://www.w3.org/Graphics/SVG/1.1/DTD/svg11.dtd" >
<svg xmlns="http://www.w3.org/2000/svg" xmlns:xlink="http://www.w3.org/1999/xlink" version="1.1" viewBox="-10 0 594 1000">
  <g transform="matrix(1 0 0 -1 0 800)">
   <path fill="currentColor"
d="M186 -12q-81 0 -119 46.5t-38 129.5q0 59 17.5 124.5t53.5 120.5t92.5 91t134.5 36q33 0 61.5 -6t49 -19.5t32.5 -34t12 -49.5q0 -23 -12 -50.5t-44 -52t-88 -43t-145 -23.5q-8 -35 -11 -63t-3 -49q0 -43 16 -61t45 -18q46 0 84 37.5t72 105.5l39 -17q-23 -48 -47 -86
t-53.5 -64.5t-66 -40.5t-82.5 -14zM203 299q47 7 77.5 20.5t48.5 32t25.5 40.5t7.5 46q0 21 -10.5 33t-31.5 12t-36.5 -9.5t-28.5 -31t-25.5 -56.5t-26.5 -87zM458 784q-22 0 -40.5 10t-36.5 21q-20 11 -35 19.5t-33 8.5q-14 0 -26 -7t-35 -32l-26 29q15 19 28 35.5
t26.5 28.5t28 18.5t33.5 6.5q22 0 40.5 -10t36.5 -21q20 -11 35 -19.5t33 -8.5q14 0 26 7t35 32l26 -29q-15 -20 -28 -36t-26.5 -28t-28 -18.5t-33.5 -6.5zM193 597l143 160h84l82 -167l-34 -19l-102 105l-144 -105z" />
  </g>

</svg>
