<?xml version="1.0" standalone="no"?>
<!DOCTYPE svg PUBLIC "-//W3C//DTD SVG 1.1//EN" "http://www.w3.org/Graphics/SVG/1.1/DTD/svg11.dtd" >
<svg xmlns="http://www.w3.org/2000/svg" xmlns:xlink="http://www.w3.org/1999/xlink" version="1.1" viewBox="-10 0 791 1000">
  <g transform="matrix(1 0 0 -1 0 800)">
   <path fill="currentColor"
d="M292 -12q-59 0 -104.5 18t-76.5 51.5t-47 81.5t-16 107q0 50 11.5 104t34 105.5t56 97.5t77.5 81t99 55.5t120 20.5q47 0 85 -12h101l27 111h112l-19 -74q-10 -38 -30.5 -59.5t-57.5 -21.5h-51q77 -68 77 -202q0 -50 -11.5 -104t-34 -105.5t-56 -97.5t-77.5 -81
t-99 -55.5t-120 -20.5zM306 53q63 0 105.5 44.5t59.5 114.5q22 87 35.5 140.5t21 87t10.5 53.5t3 40q0 48 -27.5 80t-81.5 32q-63 0 -105.5 -44.5t-59.5 -114.5q-22 -87 -35.5 -140.5t-21 -87t-10.5 -53.5t-3 -40q0 -48 27.5 -80t81.5 -32zM417 762l100 200l111 -58
l-175 -162z" />
  </g>

</svg>
