<?xml version="1.0" standalone="no"?>
<!DOCTYPE svg PUBLIC "-//W3C//DTD SVG 1.1//EN" "http://www.w3.org/Graphics/SVG/1.1/DTD/svg11.dtd" >
<svg xmlns="http://www.w3.org/2000/svg" xmlns:xlink="http://www.w3.org/1999/xlink" version="1.1" viewBox="-43 0 710 1000">
  <g transform="matrix(1 0 0 -1 0 800)">
   <path fill="currentColor"
d="M-18 60h63l144 578h-63l15 60h516l-47 -186h-110l30 122h-189l-59 -238h120l16 64h69l-48 -192h-69l16 64h-120l-67 -268h198l35 142h110l-51 -206h-524zM538 945q-22 0 -40.5 10t-36.5 21q-20 11 -35 19.5t-33 8.5q-14 0 -26 -7t-35 -32l-26 29q15 19 28 35.5t26.5 28.5
t28 18.5t33.5 6.5q22 0 40.5 -10t36.5 -21q20 -11 35 -19.5t33 -8.5q14 0 26 7t35 32l26 -29q-15 -20 -28 -36t-26.5 -28t-28 -18.5t-33.5 -6.5zM273 758l143 160h84l82 -167l-34 -19l-102 105l-144 -105z" />
  </g>

</svg>
