<?xml version="1.0" standalone="no"?>
<!DOCTYPE svg PUBLIC "-//W3C//DTD SVG 1.1//EN" "http://www.w3.org/Graphics/SVG/1.1/DTD/svg11.dtd" >
<svg xmlns="http://www.w3.org/2000/svg" xmlns:xlink="http://www.w3.org/1999/xlink" version="1.1" viewBox="-63 0 726 1000">
  <g transform="matrix(1 0 0 -1 0 800)">
   <path fill="currentColor"
d="M-38 60h47l364 638h131l51 -638h47l-15 -60h-266l14 60h70l-8 158h-217l-86 -158h70l-15 -60h-202zM212 280h183l-11 309h-9zM454 750q-38 0 -61 16.5t-36 43t-18.5 58.5t-8.5 62l39 14l10 -34q10 -32 30 -47.5t62 -15.5q41 0 68.5 14.5t52.5 48.5l25 34l35 -20
q-17 -30 -35.5 -61t-42 -56t-53 -41t-67.5 -16zM203 -196q-30 0 -47 18t-17 41q0 10 3 22q5 24 26 40.5t52 16.5q30 0 47 -18t17 -41q0 -10 -3 -22q-5 -24 -26 -40.5t-52 -16.5z" />
  </g>

</svg>
