<?xml version="1.0" standalone="no"?>
<!DOCTYPE svg PUBLIC "-//W3C//DTD SVG 1.1//EN" "http://www.w3.org/Graphics/SVG/1.1/DTD/svg11.dtd" >
<svg xmlns="http://www.w3.org/2000/svg" xmlns:xlink="http://www.w3.org/1999/xlink" version="1.1" viewBox="-10 0 365 1000">
  <g transform="matrix(1 0 0 -1 0 800)">
   <path fill="currentColor"
d="M138 -12q-27 0 -45 7.5t-29.5 19t-16 26t-4.5 29.5q0 12 3 28.5t6 27.5l76 305h-81l15 60l237 45l-115 -460l18 -8l90 114l36 -21l-56 -85q-35 -53 -70 -70.5t-64 -17.5zM194 589l72 116h-132l22 86h114q34 0 54.5 -13.5t20.5 -42.5q0 -30 -24.5 -65.5t-58.5 -67.5
l-30 -30z" />
  </g>

</svg>
