<?xml version="1.0" standalone="no"?>
<!DOCTYPE svg PUBLIC "-//W3C//DTD SVG 1.1//EN" "http://www.w3.org/Graphics/SVG/1.1/DTD/svg11.dtd" >
<svg xmlns="http://www.w3.org/2000/svg" xmlns:xlink="http://www.w3.org/1999/xlink" version="1.1" viewBox="-10 0 783 1000">
  <g transform="matrix(1 0 0 -1 0 800)">
   <path fill="currentColor"
d="M148 324q-48 0 -74 18t-26 47q0 27 16 43t36 16q18 0 29.5 -9t11.5 -27q0 -14 -10 -24.5t-21 -12.5l-2 -5q13 -6 29 -6q32 0 49.5 14.5t25.5 49.5q4 15 5 21.5t1 11.5q0 18 -11 27.5t-37 9.5h-26l12 46h20q35 0 52 17.5t25 45.5q1 3 2.5 10.5t1.5 12.5q0 33 -41 33
q-11 0 -28 -5l-2 -5q17 -6 17 -25q0 -14 -12 -30.5t-39 -16.5q-18 0 -29 10t-11 28t10.5 33.5t28.5 27t43 18t54 6.5q61 0 89 -19.5t28 -56.5q0 -23 -9.5 -41t-24.5 -30.5t-34 -19.5t-37 -9l-2 -7q68 -14 68 -69q0 -57 -47 -92.5t-131 -35.5zM673 698h81l-655 -698h-82z
M504 -6q-57 0 -81.5 20t-24.5 48q0 22 14.5 39t39.5 17q20 0 30 -11t10 -26t-9.5 -23.5t-21.5 -12.5l-2 -5q7 -2 15 -3.5t20 -1.5q26 0 44.5 16t26.5 50q2 6 4 15.5t2 20.5q0 17 -8.5 28t-26.5 11q-20 0 -32 -9.5t-20 -20.5l-53 13l65 209h223l-20 -80h-186l-36 -117l7 -2
q14 26 40.5 46t69.5 20t66.5 -18.5t23.5 -60.5q0 -37 -14 -67t-38.5 -51t-57.5 -32.5t-70 -11.5z" />
  </g>

</svg>
