<?xml version="1.0" standalone="no"?>
<!DOCTYPE svg PUBLIC "-//W3C//DTD SVG 1.1//EN" "http://www.w3.org/Graphics/SVG/1.1/DTD/svg11.dtd" >
<svg xmlns="http://www.w3.org/2000/svg" xmlns:xlink="http://www.w3.org/1999/xlink" version="1.1" viewBox="-10 0 656 1000">
  <g transform="matrix(1 0 0 -1 0 800)">
   <path fill="currentColor"
d="M164 15q-56 22 -86.5 74t-30.5 134q0 76 20.5 157t62.5 148.5t104.5 114t146.5 55.5l26 82h54l-25 -80h1q7 0 19.5 -1t20.5 -3l27 84h54l-31 -96q48 -17 78.5 -48.5t30.5 -74.5q0 -18 -6 -34t-16.5 -28.5t-25.5 -20t-32 -7.5q-28 0 -43 16t-15 38q0 24 14.5 46t48.5 27
v10q-10 5 -23 10t-29 10l-174 -550q29 3 52.5 14t43.5 28.5t37 40t33 48.5l43 -28q-19 -32 -42 -62t-51 -54.5t-62.5 -41.5t-77.5 -22l-25 -83h-54l24 80q-10 0 -22 1t-19 3l-27 -84h-54zM459 634q-3 1 -7 1h-7q-17 0 -32 -3l-170 -538q15 -11 40 -14zM355 615
q-42 -23 -67.5 -71t-42.5 -116q-5 -21 -13.5 -50.5t-16 -61.5t-13 -63t-5.5 -54q0 -35 9 -57z" />
  </g>

</svg>
