<?xml version="1.0" standalone="no"?>
<!DOCTYPE svg PUBLIC "-//W3C//DTD SVG 1.1//EN" "http://www.w3.org/Graphics/SVG/1.1/DTD/svg11.dtd" >
<svg xmlns="http://www.w3.org/2000/svg" xmlns:xlink="http://www.w3.org/1999/xlink" version="1.1" viewBox="-43 0 936 1000">
  <g transform="matrix(1 0 0 -1 0 800)">
   <path fill="currentColor"
d="M579 -12q-47 0 -86.5 6t-69.5 20.5t-49 39.5t-26 63l-36 197h-59l-64 -254h63l-15 -60h-270l15 60h63l144 578h-63l15 60h311q73 0 110 -34t37 -93q0 -44 -13 -80.5t-34 -65t-48.5 -48.5t-57.5 -31l49 -198q11 -47 35 -77t71 -30q35 0 51.5 19.5t16.5 45.5q0 18 -7 32.5
t-18 28.5t-23.5 27.5t-23.5 28.5q-14 21 -24 41.5t-10 53.5q0 40 17 70.5t45.5 51.5t65.5 31.5t76 10.5q64 0 90 -19t26 -51q0 -25 -16.5 -46.5t-49.5 -21.5q-24 0 -38.5 14.5t-14.5 37.5q0 14 5 28.5t15 22.5l-7 10q-41 -9 -64 -35t-23 -57q0 -18 7 -33t17.5 -28.5t23 -27
t23.5 -29.5q14 -18 24.5 -39t10.5 -56q0 -37 -15.5 -67.5t-44 -52t-68.5 -33t-89 -11.5zM268 374h44q98 0 125 107q2 7 5.5 19.5t6.5 26t5.5 25.5t2.5 18q0 29 -19.5 46.5t-60.5 17.5h-44z" />
  </g>

</svg>
