<?xml version="1.0" standalone="no"?>
<!DOCTYPE svg PUBLIC "-//W3C//DTD SVG 1.1//EN" "http://www.w3.org/Graphics/SVG/1.1/DTD/svg11.dtd" >
<svg xmlns="http://www.w3.org/2000/svg" xmlns:xlink="http://www.w3.org/1999/xlink" version="1.1" viewBox="-10 0 579 1000">
  <g transform="matrix(1 0 0 -1 0 800)">
   <path fill="currentColor"
d="M214 -12q-42 0 -76 11.5t-57.5 36.5t-36.5 64t-13 94q0 22 5.5 69t19.5 104.5t38 118t62.5 110.5t92.5 82t127 32q84 0 133.5 -48.5t49.5 -157.5q0 -22 -5.5 -69t-19.5 -104.5t-38 -118t-62.5 -110.5t-92.5 -82t-127 -32zM369 645q-28 0 -47 -15t-33.5 -43.5t-26.5 -70.5
t-25 -95q-9 -37 -17 -68.5t-15 -59.5l208 230q4 20 6 36t2 29q0 24 -12 40.5t-40 16.5zM221 53q28 0 47 15t33.5 43.5t26 70.5t25.5 95q9 38 17 69.5t15 59.5l-208 -230q-8 -43 -8 -66q0 -24 12 -40.5t40 -16.5z" />
  </g>

</svg>
