<?xml version="1.0" standalone="no"?>
<!DOCTYPE svg PUBLIC "-//W3C//DTD SVG 1.1//EN" "http://www.w3.org/Graphics/SVG/1.1/DTD/svg11.dtd" >
<svg xmlns="http://www.w3.org/2000/svg" xmlns:xlink="http://www.w3.org/1999/xlink" version="1.1" viewBox="-10 0 651 1000">
  <g transform="matrix(1 0 0 -1 0 800)">
   <path fill="currentColor"
d="M408.44 316.96c61.2305 -15.1904 105.28 -77.71 123.58 -176.59c17.9697 -96.8799 49.9297 -140.35 49.9297 -140.35h-117.17s-16.7305 29.5898 -33.8701 148.22c-17.71 122.64 -123.84 144.909 -185.89 145.329h-1.25h-77.0098l-42.6504 -293.14h-91.0898l101.24 696
l246.8 0.400391c185.78 7.45996 228.721 -95.6299 231.53 -156.09c2.90039 -62.5195 -20.54 -141.18 -72.6201 -180.51c-55.7305 -41.8203 -131.53 -43.2705 -131.53 -43.2705zM351.75 366.85c120.07 0 161.179 80.7412 164.829 137.051
c3.55957 53 -29.3105 117.17 -137.91 116.34l-164.42 -0.410156l-36.6797 -252.15h8.69043z" />
  </g>

</svg>
