<?xml version="1.0" standalone="no"?>
<!DOCTYPE svg PUBLIC "-//W3C//DTD SVG 1.1//EN" "http://www.w3.org/Graphics/SVG/1.1/DTD/svg11.dtd" >
<svg xmlns="http://www.w3.org/2000/svg" xmlns:xlink="http://www.w3.org/1999/xlink" version="1.1" viewBox="-10 0 609 1000">
  <g transform="matrix(1 0 0 -1 0 800)">
   <path fill="currentColor"
d="M402.38 369.62c74.4004 -26.7402 136.422 -84.4619 125.952 -183.872c-22.4004 -213.35 -356.98 -247.26 -458.921 -125.529c-22.4004 26.3701 -37.6699 57.21 -44.5498 84.25c28.6504 10.0596 60.8301 22.0693 91.21 34.0791
c0.5 -10.7197 7.2002 -82.6895 99.0898 -100.489c173.18 -33.0801 253.92 89.0098 207.84 163.5c-28.6104 46.46 -117.181 65.0898 -164.711 81.1201c-64.3799 22.0596 -104.46 32.1191 -141.56 67.9287c-58.5801 56.5596 -55.5996 184.55 37.7305 257.7
c111.7 87.6104 266.141 59.4502 309.081 39.9502c96.8799 -43.96 108.1 -127.229 108.1 -127.229l-83.7998 -32.3301c-5.66992 33.5303 -20.7803 55.4004 -38.2998 69.9307c-46.75 38.71 -126.9 38.5 -188.631 21.0303
c-62.2305 -17.5898 -118.83 -94.1494 -82.6904 -152.319c24.9297 -40.1699 133.239 -65.3398 224.159 -97.7197z" />
  </g>

</svg>
