<?xml version="1.0" standalone="no"?>
<!DOCTYPE svg PUBLIC "-//W3C//DTD SVG 1.1//EN" "http://www.w3.org/Graphics/SVG/1.1/DTD/svg11.dtd" >
<svg xmlns="http://www.w3.org/2000/svg" xmlns:xlink="http://www.w3.org/1999/xlink" version="1.1" viewBox="-10 0 951 1000">
  <g transform="matrix(1 0 0 -1 0 800)">
   <path fill="currentColor"
d="M825.9 696.52c26.5098 0.290039 67.7383 -0.208984 91.958 -0.0791016l-307.26 -696.17h-70.0098l-89.5195 562.6l-253.22 -562.6l-70.8398 -0.0800781c1.2002 3.88965 -103.88 696.25 -103.88 696.25c24.0996 -0.0996094 65.2998 0.530273 91.71 0.19043
l55.5195 -400.98l14.8301 -151.7l59.54 145.98l184.11 405.63l0.379883 0.830078c13.2002 -0.0498047 29.6807 0 45.8311 0.0498047c0.209961 0 0.410156 0.0302734 0.620117 0c12.8701 -0.0498047 25.5098 -0.0996094 36.0693 -0.0498047l0.110352 -0.830078
l66.6699 -402.69l18.6299 -145.9l55.6504 142.54z" />
  </g>

</svg>
