<?xml version="1.0" standalone="no"?>
<!DOCTYPE svg PUBLIC "-//W3C//DTD SVG 1.1//EN" "http://www.w3.org/Graphics/SVG/1.1/DTD/svg11.dtd" >
<svg xmlns="http://www.w3.org/2000/svg" xmlns:xlink="http://www.w3.org/1999/xlink" version="1.1" viewBox="-10 0 1002 1000">
  <g transform="matrix(1 0 0 -1 0 800)">
   <path fill="currentColor"
d="M800.11 650.21c154.85 -119.65 157.542 -388.78 76.8418 -553.15c-69.7998 -141.19 -253.8 -133.73 -272.97 -43.4707c0 0 -79.7002 -78.25 -173.311 -78.6699c-94.9102 -0.419922 -191.99 46.3799 -163.681 252.56c32.5 231.87 176.47 256.7 242.72 256.7
c95.6299 0 132.52 -76.5898 132.52 -76.5898l8.94043 67.0801l77.8096 -0.419922l-43.8096 -338.27c-9.07031 -65 48.5693 -81.5703 83.959 -48.8506c29.2803 27.3203 55.7002 69.5508 67.29 140.771c11.1797 68.3096 9.47949 127.939 2.68945 178.029
c-22.5996 166.44 -139.119 233.521 -295.209 233.521c-195.51 -0.410156 -363.6 -156.92 -390.06 -421.49c-32.96 -332.06 197.58 -412.38 402.94 -312.6l27.9004 -75.7598s-84.75 -47.6201 -203.99 -47.6201c-152.78 0 -274.71 72.46 -310.82 268.3
c-30.5098 166.03 18.8398 522.511 317.439 639.681c128.64 50.5098 296.29 50.0996 412.8 -39.75zM615.902 232.04c22.6104 155.26 -73.3203 184.66 -125.66 178.04c-71.6299 -8.7002 -120.56 -66.25 -136.96 -178.87c-17.7598 -122.14 14.5703 -175.96 90.6299 -176.8
c66.96 -0.820312 150.76 31.4795 171.99 177.63z" />
  </g>

</svg>
