<?xml version="1.0" standalone="no"?>
<!DOCTYPE svg PUBLIC "-//W3C//DTD SVG 1.1//EN" "http://www.w3.org/Graphics/SVG/1.1/DTD/svg11.dtd" >
<svg xmlns="http://www.w3.org/2000/svg" xmlns:xlink="http://www.w3.org/1999/xlink" version="1.1" viewBox="-10 0 483 1000">
  <g transform="matrix(1 0 0 -1 0 800)">
   <path fill="currentColor"
d="M386.4 357.2c9.28027 -1.66016 17.6846 -0.838867 23.4043 0.000976562c-2.40039 -13.6699 -4.80078 -27.3301 -6.83105 -41.4102c-1.99023 -13.6699 -3.56055 -27.3301 -5.14062 -40.9902c-5.66992 0.830078 -13.8301 1.65039 -23.5996 0
c-27.1602 -4.5498 -45.96 -22.7695 -51.3398 -28.5693c-12.04 -11.5898 -23.1797 -28.5703 -36.1895 -86.5303c-8.65039 -36.8496 -8.77051 -51.75 -18.2607 -111.37c-10.8799 -69.1602 -15.0303 -80.75 -18.79 -89.4404
c-7.99023 -18.2197 -24.7207 -56.2998 -63.1807 -81.5693c-55.4404 -36.8398 -115.311 -18.6299 -124.421 -15.7197l11.3496 69.5498c5.79004 -2.90039 21.4004 -9.53027 43.4707 -5.7998c29.7695 5.38965 54.4893 18.6299 64.2197 77.0195
c4.0498 25.25 6.25 43.0498 7.41016 56.71c2.51953 31.4805 6.45996 84.0605 26.2803 140.78c9.07031 25.2598 14.0801 39.75 26.96 57.1396c26.8301 36.4297 62.8105 53 78.1309 58.79c-13.5801 6.20996 -44.71 22.7695 -60.9502 59.1992
c-7.82031 17.4004 -8.61035 31.8906 -10.3008 57.1504c-3.36035 56.7197 8.06934 109.71 14.6494 140.77c2.82031 13.6602 6.25 31.46 9.15039 57.1299c4.96973 45.5498 -13.6602 71.2197 -41.8506 76.5996c-20.9199 4.13965 -38.5195 -2.89062 -45.1396 -5.80078
l8.9502 69.9697c9.88965 2.49023 75.0596 20.71 119.859 -15.7305c31.0898 -25.2598 36.6797 -63.7598 39.4199 -81.9697c1.28027 -8.28027 2.07031 -19.8799 -7.20996 -89.4395c-7.78027 -59.21 -12.0107 -74.1104 -14.1104 -111.37
c-3.90039 -57.9697 2.38965 -74.5293 11.0098 -86.5391c3.75977 -5.37988 17.2197 -24.0098 43.0498 -28.5596z" />
  </g>

</svg>
