<?xml version="1.0" standalone="no"?>
<!DOCTYPE svg PUBLIC "-//W3C//DTD SVG 1.1//EN" "http://www.w3.org/Graphics/SVG/1.1/DTD/svg11.dtd" >
<svg xmlns="http://www.w3.org/2000/svg" xmlns:xlink="http://www.w3.org/1999/xlink" version="1.1" viewBox="-10 0 678 1000">
  <g transform="matrix(1 0 0 -1 0 800)">
   <path fill="currentColor"
d="M581.79 273.79c0.25 -14.4502 -0.326172 -29.7676 -2.5166 -45.0879l-0.259766 -1.66016c-5.00977 -34.3701 -15.0293 -69.1396 -31.249 -101.029c-0.459961 -0.410156 -0.540039 -0.820312 -0.990234 -1.24023
c-0.129883 -0.820312 -0.580078 -1.24023 -1.12988 -2.07031c-0.120117 -0.820312 -0.660156 -1.66016 -1.2002 -2.48047c-0.580078 -1.24023 -1.19043 -2.49023 -2.27051 -4.14062c-0.580078 -1.24023 -1.12012 -2.08008 -1.74023 -3.32031
c-0.540039 -0.820312 -0.990234 -1.24023 -1.12012 -2.07031c-1.49023 -1.65039 -2.61035 -3.7207 -3.73047 -5.79102l-0.450195 -0.419922c-1.12012 -2.07031 -2.61035 -3.7207 -3.73047 -5.80078c-0.0400391 -0.400391 -0.450195 -0.400391 -0.530273 -0.820312
c-0.549805 -0.830078 -1.5 -1.65039 -2.08008 -2.89062c-0.540039 -0.839844 -1.49023 -1.66016 -2.07031 -2.91016c-0.530273 -0.820312 -1.49023 -1.66016 -2.07031 -2.90039c-31.3799 -42.2305 -113.899 -105.58 -233.01 -104.74
c-166.7 1.24023 -210.01 87.7705 -226.52 147.811c-1.66016 5.79004 -3.07031 21.5303 -3.07031 21.5303c14.0303 5.37988 31.5498 12 45.5898 17.3896c3.96973 1.65039 24.7598 10.7607 49.1396 21.9404c0.919922 -16.5596 3.22949 -31.8799 8.3291 -45.1396
c3.59961 -9.50977 8.14941 -17.79 13.6592 -25.6602c10.0195 -13.6602 22.8096 -25.2598 38.1699 -33.54l-0.0400391 -0.410156c17.8799 -10.7695 41.8994 -19.46 73.2393 -20.29h17.3896c14.5703 0.410156 28.1201 2.48047 40.5801 5.80078
c14.2002 3.71973 26.96 8.68945 38.1299 14.4893c27.25 13.6602 51.5898 33.1201 69.5195 59.6104c15.2803 22.3604 25.79 49.2705 29.9697 80.751l0.370117 2.48047c2.78027 21.9404 1.45996 41.4004 -2.55957 59.21c-14 60.4502 -73.3701 96.0498 -145.62 97.29h-0.410156
c-3.73047 0 -7.91016 -0.410156 -11.6299 -0.410156c-51.0098 -3.30957 -107.95 -27.3193 -143.97 -61.6895l-79.6201 39.5l67.9004 331.39h435.16l-11.5498 -79.4902h-354.29l-38.6299 -197.74c37.3398 29.8496 87.3203 49.1895 158.11 53.2891
c4.17969 0.240234 9.16016 0.400391 12.8799 0.400391c45.7998 1.66016 76.2695 -7.85938 109.47 -24.4189c9.28027 -4.55957 18.0205 -9.93945 26.2207 -16.1494c26.6201 -19.04 46.1504 -49.6797 59.6602 -79.5c11.6299 -25.25 13.7002 -48.0303 14.5703 -79.0703z" />
  </g>

</svg>
