<?xml version="1.0" standalone="no"?>
<!DOCTYPE svg PUBLIC "-//W3C//DTD SVG 1.1//EN" "http://www.w3.org/Graphics/SVG/1.1/DTD/svg11.dtd" >
<svg xmlns="http://www.w3.org/2000/svg" xmlns:xlink="http://www.w3.org/1999/xlink" version="1.1" viewBox="-10 0 667 1000">
  <g transform="matrix(1 0 0 -1 0 800)">
   <path fill="currentColor"
d="M579.64 564.89c18.9199 -69.1504 16.8486 -137.463 6.61816 -207.863c-32.8701 -226.05 -131.09 -366 -321.95 -366c-105.58 0 -171.17 47.2002 -202.26 126.69l103.8 24.8496c7.33008 -43.4805 49.9297 -74.9404 110.05 -71.6309
c85.9502 4.5498 178.53 77.4199 198.66 224.41c0 0 -39.4697 -66.25 -177.3 -77.4297c-3.75977 -0.410156 -7.4502 0 -11.5898 0c-45.79 -1.66016 -76.2598 7.87012 -109.05 24.4297c-9.28027 4.5498 -18.4307 9.93945 -26.6211 16.1396
c-26.2197 19.0498 -45.7598 49.6895 -59.2998 79.0898c-11.5898 25.6699 -14.0703 48.4395 -14.9404 79.4893c-0.379883 14.4902 0.610352 29.8105 2.85059 45.1309l0.169922 1.25c5.0498 34.7695 14.6494 69.5596 31.2598 101.02
c0.540039 0.830078 0.620117 1.24023 0.660156 1.65039c0.540039 0.839844 0.990234 1.25 1.12012 2.08008c0.530273 0.820312 1.08008 1.65039 1.2002 2.48047c1.03027 1.25 1.61035 2.48047 2.69043 4.14062c0.530273 0.830078 1.16016 2.07031 1.74023 3.31055
c0.490234 0.419922 0.620117 1.24023 1.07031 1.66016c1.12988 2.07031 2.64941 4.14062 3.72949 5.80078c0.0800781 0.410156 0.0800781 0.410156 0.530273 0.820312c1.12988 2.07031 2.2002 3.73047 3.73047 5.80078c0 0 0.0498047 0.419922 0.469727 0.419922
c0.610352 1.24023 1.15039 2.06055 2.14062 3.31055c0.540039 0.820312 1.08008 1.66016 2.07031 2.90039c0.540039 0.820312 1.08008 1.65039 2.03027 2.48047c31.4199 42.6396 113.41 105.17 233.07 105.17c135.39 0 196.83 -81.5703 213.35 -141.601zM306.959 304.047
c87.0303 6.2002 170.07 62.0977 185.36 152.777c1.74023 9.09961 2.52051 17.3799 2.85059 25.25c0.620117 21.5303 -2.39941 40.5703 -8.72949 56.7207c-3.65039 9.11035 -8.25 17.3906 -13.71 25.251c-9.59961 13.6699 -22.5596 24.4297 -37.0098 33.1299
c-17.8896 10.7695 -41.1201 19.0498 -72.0498 19.8701c-2.84961 0.419922 -5.75 0.419922 -8.65039 0.419922c-2.48047 0 -5.38086 0 -8.32129 -0.419922c-14.5703 -0.419922 -27.6201 -2.07031 -40.1201 -5.37988c-13.79 -3.71973 -26.1299 -8.68945 -37.2998 -14.4893
c-26.75 -13.25 -50.7197 -32.71 -68.1094 -58.3799c-14.7803 -21.9502 -25.2607 -48.4404 -29.3604 -79.5l-0.370117 -2.46973c-2.7002 -21.1299 -1.78027 -40.5898 2.31934 -57.9697c13.7002 -59.6201 50.5098 -93.9902 121.56 -95.2305h0.410156
c3.73047 0 7.5 0.419922 11.2305 0.419922z" />
  </g>

</svg>
