<?xml version="1.0" standalone="no"?>
<!DOCTYPE svg PUBLIC "-//W3C//DTD SVG 1.1//EN" "http://www.w3.org/Graphics/SVG/1.1/DTD/svg11.dtd" >
<svg xmlns="http://www.w3.org/2000/svg" xmlns:xlink="http://www.w3.org/1999/xlink" version="1.1" viewBox="-10 0 547 1000">
  <g transform="matrix(1 0 0 -1 0 800)">
   <path fill="currentColor"
d="M423.43 509.02h85.3711l-97.6299 -671.14h-85.29c4.92969 31.0498 35.6895 245.52 35.6895 245.52s-12.29 -24.8398 -32.9199 -41.3994c-27.2402 -21.9502 -71.1299 -47.6104 -128.55 -49.6904c-72.5 -2.90039 -207.65 15.7393 -172.12 260.02
c33.5303 230.62 172.74 265.39 243.96 265.39c61.2695 0 98.0693 -23.1797 119.069 -43.8896c16.6504 -16.5596 20.9902 -43.4697 20.9902 -43.4697zM383.061 257.3c22.6104 155.26 -51.5908 191.701 -102.521 191.701c-84.8799 0 -149.17 -63.3604 -168.92 -199.16
c-18.3896 -126.28 24.2207 -192.11 112.53 -188.391c54.9404 2.08008 137.21 46.79 158.91 195.85z" />
  </g>

</svg>
