<?xml version="1.0" standalone="no"?>
<!DOCTYPE svg PUBLIC "-//W3C//DTD SVG 1.1//EN" "http://www.w3.org/Graphics/SVG/1.1/DTD/svg11.dtd" >
<svg xmlns="http://www.w3.org/2000/svg" xmlns:xlink="http://www.w3.org/1999/xlink" version="1.1" viewBox="-10 0 522 1000">
  <g transform="matrix(1 0 0 -1 0 800)">
   <path fill="currentColor"
d="M161.61 325.22c43.0996 -45.1396 218.03 -18.2217 270.41 -93.9912c18.4199 -26.9102 28.9795 -65.4199 18.0498 -109.31c-37.5996 -156.09 -296.619 -166.439 -382.939 -79.4893c-34.29 34.7803 -40.4502 77.8398 -40.4502 77.8398l90.0498 18.6299
s-0.410156 -62.3096 95.1396 -74.5293c36.3604 -4.62988 92.5801 1.66016 118.71 19.0498c29.8096 19.8701 46.8291 57.1299 28.8594 90.2598c-31.5498 56.3096 -208.43 24.4199 -266.27 93.5703c-57.4199 69.1504 -30.3896 161.061 46.9902 211.99
c77.4297 51.3398 221.06 42.6494 271.159 14.0791c41.2803 -23.6104 64.71 -55.9004 73.4102 -107.24l-82.5596 -24.0098s-2.57031 36.4297 -26.96 56.71c-44.0498 36.0303 -125.24 32.7207 -166.65 18.6406c-61.5195 -21.5303 -76.0195 -81.5703 -46.9492 -112.2z" />
  </g>

</svg>
