<?xml version="1.0" standalone="no"?>
<!DOCTYPE svg PUBLIC "-//W3C//DTD SVG 1.1//EN" "http://www.w3.org/Graphics/SVG/1.1/DTD/svg11.dtd" >
<svg xmlns="http://www.w3.org/2000/svg" xmlns:xlink="http://www.w3.org/1999/xlink" version="1.1" viewBox="-10 0 351 1000">
  <g transform="matrix(1 0 0 -1 0 800)">
   <path fill="currentColor"
d="M176.57 369.14l-22.1514 -152.282c-15.8604 -108.93 -31.5508 -149.42 34.4395 -149.42c34.2402 0 62.2803 12.54 62.2803 12.54l9.48047 -77.3398c-213.89 -40.2002 -217.659 42.5195 -199.439 169.1c0.209961 1.28027 0.290039 2.4707 0.450195 3.60059l27.9902 192.52
l13.3701 74.6504l-79.04 -2.44043l9.9502 68.3096l77.8301 -1.80957l6.91992 56.4199l15.3496 101.2l91.4697 34.2402l-19.4697 -129.1l-11.0098 -62.4697l63.5596 1.90039l58.8301 0.370117l-10.0098 -68.8096l-59.4199 -0.169922l-62.7695 2.32031z" />
  </g>

</svg>
