<?xml version="1.0" standalone="no"?>
<!DOCTYPE svg PUBLIC "-//W3C//DTD SVG 1.1//EN" "http://www.w3.org/Graphics/SVG/1.1/DTD/svg11.dtd" >
<svg xmlns="http://www.w3.org/2000/svg" xmlns:xlink="http://www.w3.org/1999/xlink" version="1.1" viewBox="-10 0 693 1000">
  <g transform="matrix(1 0 0 -1 0 800)">
   <path fill="currentColor"
d="M128.67 0.339844l70.7598 -0.419922h-70.7998zM201.08 85.6201l357.357 -0.00195312l-12.4297 -85.2803h-378.42l-71.1699 0.410156h-34.3701c15.2402 104.75 89.1807 203.3 184.871 266.229c108.44 70.7998 204.94 108.06 246.391 173.89
c61.2402 96.4697 10.0205 168.51 -79.3291 183.42c-52.21 8.28027 -119.979 -16.5596 -155.43 -60.8594c-19.21 -24.0195 -25.75 -57.5498 -25.75 -57.5498l-95.3604 13.2402c78.6299 227.72 373.67 229.38 449.15 113.45
c39.2998 -57.1396 70.8398 -173.489 -66.8301 -294.379c-111.99 -98.1299 -276.2 -137.05 -318.681 -252.569z" />
  </g>

</svg>
