<?xml version="1.0" standalone="no"?>
<!DOCTYPE svg PUBLIC "-//W3C//DTD SVG 1.1//EN" "http://www.w3.org/Graphics/SVG/1.1/DTD/svg11.dtd" >
<svg xmlns="http://www.w3.org/2000/svg" xmlns:xlink="http://www.w3.org/1999/xlink" version="1.1" viewBox="-19 0 663 1000">
  <g transform="matrix(1 0 0 -1 0 800)">
   <path fill="currentColor"
d="M634 -136q-18 -20 -46 -35.5t-64 -15.5q-33 0 -56.5 19.5t-23.5 54.5t21 63.5t54 49.5h-147v48l85 13l-45 123h-236l-42 -122l82 -14v-48h-225v46l64 15l215 593h70l227 -592l65 -14v-48h-60q-23 -19 -38.5 -41t-15.5 -41q0 -41 41 -41q22 0 55 20zM198 248h192l-86 237
l-10 35h-6l-7 -35z" />
  </g>

</svg>
