<?xml version="1.0" standalone="no"?>
<!DOCTYPE svg PUBLIC "-//W3C//DTD SVG 1.1//EN" "http://www.w3.org/Graphics/SVG/1.1/DTD/svg11.dtd" >
<svg xmlns="http://www.w3.org/2000/svg" xmlns:xlink="http://www.w3.org/1999/xlink" version="1.1" viewBox="-10 0 585 1000">
  <g transform="matrix(1 0 0 -1 0 800)">
   <path fill="currentColor"
d="M49 0zM131 65v519l-82 17v47h470v-171h-55l-22 110h-126l-82 -7v-220h141l17 62h45v-186h-45l-17 65h-141v-230q35 -8 95 -8h121l24 111h54v-174h-479v47zM385 693zM271 712q-17 19 -17 48q0 30 19.5 51.5t48.5 21.5q28 0 45.5 -18t17.5 -48q0 -31 -19 -52.5t-50 -21.5
q-28 0 -45 19z" />
  </g>

</svg>
