<?xml version="1.0" standalone="no"?>
<!DOCTYPE svg PUBLIC "-//W3C//DTD SVG 1.1//EN" "http://www.w3.org/Graphics/SVG/1.1/DTD/svg11.dtd" >
<svg xmlns="http://www.w3.org/2000/svg" xmlns:xlink="http://www.w3.org/1999/xlink" version="1.1" viewBox="-10 0 585 1000">
  <g transform="matrix(1 0 0 -1 0 800)">
   <path fill="currentColor"
d="M550 -136q-18 -20 -46 -35.5t-64 -15.5q-33 0 -56.5 19.5t-23.5 54.5t21 63.5t54 49.5h-386v47l82 18v519l-82 17v47h470v-171h-55l-22 110h-126l-82 -7v-220h141l17 62h45v-186h-45l-17 65h-141v-230q35 -8 95 -8h121l24 111h54v-174h-40q-23 -19 -38.5 -41t-15.5 -41
q0 -41 41 -41q22 0 55 20z" />
  </g>

</svg>
