<?xml version="1.0" standalone="no"?>
<!DOCTYPE svg PUBLIC "-//W3C//DTD SVG 1.1//EN" "http://www.w3.org/Graphics/SVG/1.1/DTD/svg11.dtd" >
<svg xmlns="http://www.w3.org/2000/svg" xmlns:xlink="http://www.w3.org/1999/xlink" version="1.1" viewBox="-10 0 720 1000">
  <g transform="matrix(1 0 0 -1 0 800)">
   <path fill="currentColor"
d="M700 -83v-40q-21 -13 -51 -24t-55 -11q-43 0 -79 23l-135 92q-14 10 -29.5 17t-40.5 12q-130 10 -199 95t-69 232q0 99 38.5 178.5t112 125t173.5 45.5q138 0 214.5 -86.5t76.5 -238.5q0 -125 -51.5 -214.5t-152.5 -121.5l142 -84h105zM211.5 114q49.5 -64 151.5 -64
q92 0 133.5 65.5t41.5 200.5q0 108 -22.5 169.5t-63 85.5t-101.5 24q-62 0 -102 -20t-63.5 -78.5t-23.5 -171.5q0 -147 49.5 -211z" />
  </g>

</svg>
