<?xml version="1.0" standalone="no"?>
<!DOCTYPE svg PUBLIC "-//W3C//DTD SVG 1.1//EN" "http://www.w3.org/Graphics/SVG/1.1/DTD/svg11.dtd" >
<svg xmlns="http://www.w3.org/2000/svg" xmlns:xlink="http://www.w3.org/1999/xlink" version="1.1" viewBox="-10 0 502 1000">
  <g transform="matrix(1 0 0 -1 0 800)">
   <path fill="currentColor"
d="M37 0zM71.5 27q-34.5 36 -34.5 90q0 63 45 100.5t130 49.5l95 15v72q0 42 -22 62t-69 20q-22 0 -57 -7l-15 -92q-16 -8 -38 -8q-23 0 -38 13t-15 37q0 39 36 67.5t85.5 43.5t85.5 15q70 0 107 -32t37 -89v-312l72 -14v-42q-20 -8 -48.5 -14.5t-55.5 -6.5q-29 0 -41 12.5
t-17 34.5h-5q-14 -15 -51 -33t-80 -18q-72 0 -106.5 36zM269.5 66.5q22.5 5.5 37.5 12.5v149q-91 -7 -129 -29.5t-38 -65.5q0 -72 84 -72q23 0 45.5 5.5zM344 543zM172.5 566.5q-23.5 23.5 -23.5 63.5t26.5 67.5t74.5 27.5q46 0 70 -24.5t24 -64.5t-27 -66.5t-74 -26.5
t-70.5 23.5zM276 597.5q8 10.5 8 36.5t-9 35.5t-30 9.5t-29 -10t-8 -35q0 -28 9 -37.5t30 -9.5t29 10.5z" />
  </g>

</svg>
