<?xml version="1.0" standalone="no"?>
<!DOCTYPE svg PUBLIC "-//W3C//DTD SVG 1.1//EN" "http://www.w3.org/Graphics/SVG/1.1/DTD/svg11.dtd" >
<svg xmlns="http://www.w3.org/2000/svg" xmlns:xlink="http://www.w3.org/1999/xlink" version="1.1" viewBox="-22 0 538 1000">
  <g transform="matrix(1 0 0 -1 0 800)">
   <path fill="currentColor"
d="M159 34h-9l-31 -36h-49v617l-82 14v44l149 26l30 -14v-211l-2 -14v-6q21 18 57 34.5t85 16.5q82 0 132 -55t50 -170q0 -93 -29.5 -158t-78 -98t-106.5 -33q-70 0 -116 43zM351 100q32 45 32 150q0 97 -27.5 138.5t-93.5 41.5q-44 0 -95 -15v-343q45 -17 90 -17
q62 0 94 45z" />
  </g>

</svg>
