<?xml version="1.0" standalone="no"?>
<!DOCTYPE svg PUBLIC "-//W3C//DTD SVG 1.1//EN" "http://www.w3.org/Graphics/SVG/1.1/DTD/svg11.dtd" >
<svg xmlns="http://www.w3.org/2000/svg" xmlns:xlink="http://www.w3.org/1999/xlink" version="1.1" viewBox="-10 0 576 1000">
  <g transform="matrix(1 0 0 -1 0 800)">
   <path fill="currentColor"
d="M42 315q0 85 29 157.5t85 119t133 55.5l31 110h66l-30 -107q30 -2 45 -4l32 111h66l-34 -122q31 -7 47 -13v-164h-57l-21 109q-48 16 -109 16q-86 0 -124.5 -62t-38.5 -203q0 -125 41.5 -191t124.5 -66q37 0 66 10t44 23l21 107h57v-160q-47 -20 -90.5 -32t-114.5 -12
q-17 0 -25 1l-32 -114l-67 -1l36 126q-14 3 -43 15l-39 -140l-67 -1l51 181q-83 80 -83 251z" />
  </g>

</svg>
