<?xml version="1.0" standalone="no"?>
<!DOCTYPE svg PUBLIC "-//W3C//DTD SVG 1.1//EN" "http://www.w3.org/Graphics/SVG/1.1/DTD/svg11.dtd" >
<svg xmlns="http://www.w3.org/2000/svg" xmlns:xlink="http://www.w3.org/1999/xlink" version="1.1" viewBox="-10 0 467 1000">
  <g transform="matrix(1 0 0 -1 0 800)">
   <path fill="currentColor"
d="M117.5 3.5q-42.5 11.5 -59.5 24.5v135h52l17 -84q10 -8 36 -16.5t58 -8.5q43 0 64.5 8t29 25t7.5 49q0 35 -27 51.5t-83 31.5q-50 14 -81.5 28.5t-54 44t-22.5 79.5q0 63 40 105t109 53l5 108h61l4 -106q35 -2 70.5 -9t48.5 -12v-135h-49l-17 73q-45 14 -85 14
q-56 0 -76.5 -16t-20.5 -52q0 -25 14.5 -41t36.5 -25t61 -21q52 -16 83 -30.5t53.5 -44.5t22.5 -79q0 -71 -40 -110t-102 -49l-4 -111h-60l-4 107q-45 2 -87.5 13.5z" />
  </g>

</svg>
