<?xml version="1.0" standalone="no"?>
<!DOCTYPE svg PUBLIC "-//W3C//DTD SVG 1.1//EN" "http://www.w3.org/Graphics/SVG/1.1/DTD/svg11.dtd" >
<svg xmlns="http://www.w3.org/2000/svg" xmlns:xlink="http://www.w3.org/1999/xlink" version="1.1" viewBox="-10 0 400 1000">
  <g transform="matrix(1 0 0 -1 0 800)">
   <path fill="currentColor"
d="M61.5 195q-13.5 16 -22 29t-8.5 21q0 14 43 63l101 112l34 -22l-82 -153l82 -156l-34 -22l-95 106q-5 6 -18.5 22zM221.5 195q-13.5 16 -22 29t-8.5 21q0 15 42 63l101 112l35 -22l-82 -153l82 -156l-35 -22l-94 106q-5 6 -18.5 22z" />
  </g>

</svg>
