<?xml version="1.0" standalone="no"?>
<!DOCTYPE svg PUBLIC "-//W3C//DTD SVG 1.1//EN" "http://www.w3.org/Graphics/SVG/1.1/DTD/svg11.dtd" >
<svg xmlns="http://www.w3.org/2000/svg" xmlns:xlink="http://www.w3.org/1999/xlink" version="1.1" viewBox="-33 0 354 1000">
  <g transform="matrix(1 0 0 -1 0 800)">
   <path fill="currentColor"
d="M0 0zM25 45l80 14v351l-80 15v46l150 27l27 -11v-428l75 -14v-45h-252v45zM311 571zM-7 588q-16 17 -16 44t18 46.5t44 19.5t41.5 -16t15.5 -44t-17 -47.5t-45 -19.5q-25 0 -41 17zM208 588q-16 17 -16 44t18 46.5t44 19.5t41.5 -16t15.5 -44t-17 -47.5t-45 -19.5
q-25 0 -41 17z" />
  </g>

</svg>
