<?xml version="1.0" standalone="no"?>
<!DOCTYPE svg PUBLIC "-//W3C//DTD SVG 1.1//EN" "http://www.w3.org/Graphics/SVG/1.1/DTD/svg11.dtd" >
<svg xmlns="http://www.w3.org/2000/svg" xmlns:xlink="http://www.w3.org/1999/xlink" version="1.1" viewBox="-10 0 308 1000">
  <g transform="matrix(1 0 0 -1 0 800)">
   <path fill="currentColor"
d="M96 584.5q-17 18.5 -17 48.5t19.5 51t48.5 21q28 0 45.5 -17.5t17.5 -47.5q0 -31 -19 -52.5t-50 -21.5q-28 0 -45 18.5zM146.5 -41q-15.5 -22 -15.5 -41q0 -41 41 -41q22 0 55 20l20 -33q-18 -20 -46 -35.5t-64 -15.5q-33 0 -56.5 19.5t-23.5 54.5t21 63.5t54 49.5h-107
v45l80 14v351l-80 15v46l150 27l27 -11v-428l75 -14v-45h-92q-23 -19 -38.5 -41z" />
  </g>

</svg>
