<?xml version="1.0" standalone="no"?>
<!DOCTYPE svg PUBLIC "-//W3C//DTD SVG 1.1//EN" "http://www.w3.org/Graphics/SVG/1.1/DTD/svg11.dtd" >
<svg xmlns="http://www.w3.org/2000/svg" xmlns:xlink="http://www.w3.org/1999/xlink" version="1.1" viewBox="-10 0 372 1000">
  <g transform="matrix(1 0 0 -1 0 800)">
   <path fill="currentColor"
d="M202.5 405q-16.5 17 -16.5 45t17.5 48.5t47.5 20.5q26 0 42 -17.5t16 -45.5t-18.5 -48t-45.5 -20q-26 0 -42.5 17zM133.5 -135q-49.5 26 -77.5 73.5t-28 111.5q0 60 33 99.5t85 56.5l53 17l21 117h61l4 -170l-91 -33q-43 -15 -61 -41t-18 -76q0 -37 10 -54.5t32.5 -23.5
t67.5 -6h95q14 -21 14 -42q0 -29 -17.5 -42t-70.5 -13q-63 0 -112.5 26z" />
  </g>

</svg>
