<?xml version="1.0" standalone="no"?>
<!DOCTYPE svg PUBLIC "-//W3C//DTD SVG 1.1//EN" "http://www.w3.org/Graphics/SVG/1.1/DTD/svg11.dtd" >
<svg xmlns="http://www.w3.org/2000/svg" xmlns:xlink="http://www.w3.org/1999/xlink" version="1.1" viewBox="-10 0 561 1000">
  <g transform="matrix(1 0 0 -1 0 800)">
   <path fill="currentColor"
d="M256 348q-62 39 -94.5 64t-53 56.5t-20.5 72.5q0 73 52.5 116.5t152.5 43.5q48 0 97 -8t74 -17v-158h-55l-20 97q-13 6 -40 10.5t-58 4.5q-55 0 -79 -17.5t-24 -60.5q0 -23 12.5 -41.5t36.5 -37t75 -53.5l20 -14l179 -118l-49 -72l-172 110zM168 -151q-54 14 -78 34v161
h58l20 -106q15 -13 45 -25.5t67 -12.5q60 0 88.5 22t28.5 68q0 34 -27 59.5t-90 68.5q-2 1 -17 11l-187 119l48 70l212 -129q80 -50 117 -91.5t37 -91.5q0 -81 -59.5 -126t-150.5 -45q-58 0 -112 14z" />
  </g>

</svg>
