<?xml version="1.0" standalone="no"?>
<!DOCTYPE svg PUBLIC "-//W3C//DTD SVG 1.1//EN" "http://www.w3.org/Graphics/SVG/1.1/DTD/svg11.dtd" >
<svg xmlns="http://www.w3.org/2000/svg" xmlns:xlink="http://www.w3.org/1999/xlink" version="1.1" viewBox="-10 0 604 1000">
  <g transform="matrix(1 0 0 -1 0 800)">
   <path fill="currentColor"
d="M81 0zM81 0zM134 53.5q-53 65.5 -53 197.5q0 125 47.5 216t138 140.5t216.5 52.5v-45q-134 -14 -207.5 -81.5t-79.5 -180.5q33 23 72 35.5t80 12.5q79 0 127 -51t48 -134q0 -68 -28.5 -119.5t-80.5 -80t-120 -28.5q-107 0 -160 65.5zM390.5 91q26.5 35 26.5 109
q0 60 -29.5 90.5t-85.5 30.5q-54 0 -107 -16v-33q0 -81 11 -128t35 -67.5t67 -20.5q56 0 82.5 35z" />
  </g>

</svg>
