<?xml version="1.0" standalone="no"?>
<!DOCTYPE svg PUBLIC "-//W3C//DTD SVG 1.1//EN" "http://www.w3.org/Graphics/SVG/1.1/DTD/svg11.dtd" >
<svg xmlns="http://www.w3.org/2000/svg" xmlns:xlink="http://www.w3.org/1999/xlink" version="1.1" viewBox="-10 0 517 1000">
  <g transform="matrix(1 0 0 -1 0 800)">
   <path fill="currentColor"
d="M25 0zM79.5 55.5q-54.5 66.5 -54.5 184.5q0 72 27.5 132.5t81 97t128.5 36.5q108 0 163 -65t55 -178q0 -77 -26 -139t-79.5 -98.5t-132.5 -36.5q-108 0 -162.5 66.5zM350 101.5q24 47.5 24 144.5q0 104 -26 149.5t-94 45.5q-51 0 -77.5 -21.5t-36 -62.5t-9.5 -111
q0 -98 28 -145t102 -47q65 0 89 47.5zM433 571zM292.5 578q-25.5 7 -29.5 8l-86 27l-70 -35l-26 24l31 51q11 18 28.5 27.5t37.5 9.5q19 0 73 -15l86 -27l70 36l26 -24l-31 -52q-23 -37 -65 -37q-19 0 -44.5 7zM434 766zM98 831h336l-11 -65h-336z" />
  </g>

</svg>
