<?xml version="1.0" standalone="no"?>
<!DOCTYPE svg PUBLIC "-//W3C//DTD SVG 1.1//EN" "http://www.w3.org/Graphics/SVG/1.1/DTD/svg11.dtd" >
<svg xmlns="http://www.w3.org/2000/svg" xmlns:xlink="http://www.w3.org/1999/xlink" version="1.1" viewBox="-10 0 463 1000">
  <g transform="matrix(1 0 0 -1 0 800)">
   <path fill="currentColor"
d="M369.5 439.5q56.5 -64.5 56.5 -180.5q0 -80 -29 -141.5t-80.5 -95.5t-117.5 -34q-89 0 -131.5 55t-42.5 133q0 52 10 70t38 18h249q0 75 -35 119.5t-115 44.5q-40 0 -73 -7.5t-49 -16.5l-16 33q25 25 71 46t98 21q110 0 166.5 -64.5zM123 166q0 -58 18.5 -85t69.5 -27
q57 0 83 40.5t27 117.5l-195 -8q-3 -18 -3 -38z" />
  </g>

</svg>
