<?xml version="1.0" standalone="no"?>
<!DOCTYPE svg PUBLIC "-//W3C//DTD SVG 1.1//EN" "http://www.w3.org/Graphics/SVG/1.1/DTD/svg11.dtd" >
<svg xmlns="http://www.w3.org/2000/svg" xmlns:xlink="http://www.w3.org/1999/xlink" version="1.1" viewBox="-316 0 326 1000">
  <g transform="matrix(1 0 0 -1 0 800)">
   <path fill="currentColor"
d="M0 693zM-67 814zM-280 952.5q12 21.5 33 21.5q8 0 20.5 -7t24.5 -15l135 -98l-23 -40l-201 81q-1 36 11 57.5zM0 693zM-229 710q-34 17 -53 42.5t-24 51.5l65 26q9 -25 34 -45.5t60 -20.5q41 0 70.5 20t41.5 44l35 -15q-12 -45 -52 -82.5t-97 -37.5q-46 0 -80 17z" />
  </g>

</svg>
