<?xml version="1.0" standalone="no"?>
<!DOCTYPE svg PUBLIC "-//W3C//DTD SVG 1.1//EN" "http://www.w3.org/Graphics/SVG/1.1/DTD/svg11.dtd" >
<svg xmlns="http://www.w3.org/2000/svg" xmlns:xlink="http://www.w3.org/1999/xlink" version="1.1" viewBox="-10 0 558 1000">
  <g transform="matrix(1 0 0 -1 0 800)">
   <path fill="currentColor"
d="M12 0zM141 48l81 16v521h-133l-23 -108h-54v171h524v-171h-54l-23 108h-133v-521l81 -16v-48h-266v48zM324 -48zM247 -133q0 39 -25 61q10 12 23.5 18t26.5 6q25 0 38.5 -16t13.5 -38q0 -28 -15 -52.5t-34 -40.5h-45q17 29 17 62z" />
  </g>

</svg>
