<?xml version="1.0" standalone="no"?>
<!DOCTYPE svg PUBLIC "-//W3C//DTD SVG 1.1//EN" "http://www.w3.org/Graphics/SVG/1.1/DTD/svg11.dtd" >
<svg xmlns="http://www.w3.org/2000/svg" xmlns:xlink="http://www.w3.org/1999/xlink" version="1.1" viewBox="-10 0 709 1000">
  <g transform="matrix(1 0 0 -1 0 800)">
   <path fill="currentColor"
d="M615 140.5q-42 -84.5 -124 -124.5h2q-29 -19 -52.5 -46t-23.5 -52q0 -41 41 -41q20 0 55 20l20 -33q-18 -20 -46 -35.5t-64 -15.5q-33 0 -56.5 19.5t-23.5 54.5q0 58 60 102q-25 -4 -60 -4q-146 0 -223.5 86t-77.5 242q0 99 38.5 178.5t112 125t173.5 45.5
q138 0 214.5 -86.5t76.5 -238.5q0 -112 -42 -196.5zM496.5 115.5q41.5 65.5 41.5 200.5q0 108 -22.5 169.5t-63 85.5t-101.5 24q-62 0 -102 -20t-63.5 -78.5t-23.5 -171.5q0 -147 49.5 -211t151.5 -64q92 0 133.5 65.5z" />
  </g>

</svg>
