<?xml version="1.0" standalone="no"?>
<!DOCTYPE svg PUBLIC "-//W3C//DTD SVG 1.1//EN" "http://www.w3.org/Graphics/SVG/1.1/DTD/svg11.dtd" >
<svg xmlns="http://www.w3.org/2000/svg" xmlns:xlink="http://www.w3.org/1999/xlink" version="1.1" viewBox="-19 0 661 1000">
  <g transform="matrix(1 0 0 -1 0 800)">
   <path fill="currentColor"
d="M0 0zM-9 46l64 15l215 593h70l227 -592l65 -14v-48h-260v48l85 13l-45 123h-236l-42 -122l82 -14v-48h-225v46zM390 248l-86 237l-10 35h-6l-7 -35l-83 -237h192zM575 676zM575 811zM485 949q3 2 13 8.5t18 10t14 3.5q21 0 33 -21.5t11 -57.5l-201 -81l-23 40zM463 676z
M237 790l17 13q20 16 32.5 25t19.5 9q9 0 20.5 -7.5t30.5 -24.5l18 -15l88 -70l-32 -44l-130 64l-130 -64l-26 37z" />
  </g>

</svg>
