<?xml version="1.0" standalone="no"?>
<!DOCTYPE svg PUBLIC "-//W3C//DTD SVG 1.1//EN" "http://www.w3.org/Graphics/SVG/1.1/DTD/svg11.dtd" >
<svg xmlns="http://www.w3.org/2000/svg" xmlns:xlink="http://www.w3.org/1999/xlink" version="1.1" viewBox="-10 0 709 1000">
  <g transform="matrix(1 0 0 -1 0 800)">
   <path fill="currentColor"
d="M42 0zM625.5 504q31.5 -71 31.5 -167q0 -102 -34.5 -181.5t-105 -125t-174.5 -45.5q-146 0 -223.5 86t-77.5 242q0 99 38.5 178.5t112 125t173.5 45.5q53 0 100 -14h37q42 0 57 9.5t15 29.5q0 11 -5.5 18t-16.5 15v15l60 42q14 -10 23 -22.5t9 -39.5q0 -29 -26.5 -58
t-84.5 -41q60 -41 91.5 -112zM496.5 115.5q41.5 65.5 41.5 200.5q0 108 -22.5 169.5t-63 85.5t-101.5 24q-62 0 -102 -20t-63.5 -78.5t-23.5 -171.5q0 -147 49.5 -211t151.5 -64q92 0 133.5 65.5zM312 696q0 11 9 19.5t30 17.5q17 7 24.5 14.5t7.5 18.5q0 20 -46 20
q-28 0 -60 -8q-12 17 -12 34q0 16 14 24t52 8q61 0 95 -18.5t34 -54.5q0 -44 -55 -65q-19 -7 -25 -13t-4 -16l-57 -2q-7 14 -7 21z" />
  </g>

</svg>
