<?xml version="1.0" standalone="no"?>
<!DOCTYPE svg PUBLIC "-//W3C//DTD SVG 1.1//EN" "http://www.w3.org/Graphics/SVG/1.1/DTD/svg11.dtd" >
<svg xmlns="http://www.w3.org/2000/svg" xmlns:xlink="http://www.w3.org/1999/xlink" version="1.1" viewBox="-32 0 538 1000">
  <g transform="matrix(1 0 0 -1 0 800)">
   <path fill="currentColor"
d="M0 0zM496 495v-48l-58 -14l-206 -540q-12 -32 -39.5 -46.5t-73.5 -14.5q-42 0 -77 10v43l121 30l43 100l-165 418l-63 15v47h238v-50l-67 -9l2 -14l97 -263l6 -31l12 41l95 253l1 12l-68 10v51h202zM439 -45zM439 -184zM325 -165.5q-17 18.5 -17 48.5t19.5 51t48.5 21
q28 0 45.5 -17.5t17.5 -47.5q0 -31 -19 -52.5t-50 -21.5q-28 0 -45 18.5z" />
  </g>

</svg>
