<?xml version="1.0" standalone="no"?>
<!DOCTYPE svg PUBLIC "-//W3C//DTD SVG 1.1//EN" "http://www.w3.org/Graphics/SVG/1.1/DTD/svg11.dtd" >
<svg xmlns="http://www.w3.org/2000/svg" xmlns:xlink="http://www.w3.org/1999/xlink" version="1.1" viewBox="-10 0 517 1000">
  <g transform="matrix(1 0 0 -1 0 800)">
   <path fill="currentColor"
d="M25 0zM79.5 55.5q-54.5 66.5 -54.5 184.5q0 72 27.5 132.5t81 97t128.5 36.5q108 0 163 -65t55 -178q0 -77 -26 -139t-79.5 -98.5t-132.5 -36.5q-108 0 -162.5 66.5zM350 101.5q24 47.5 24 144.5q0 104 -26 149.5t-94 45.5q-51 0 -77.5 -21.5t-36 -62.5t-9.5 -111
q0 -98 28 -145t102 -47q65 0 89 47.5zM319 -75zM319 -214zM205 -195.5q-17 18.5 -17 48.5t19.5 51t48.5 21q28 0 45.5 -17.5t17.5 -47.5q0 -31 -19 -52.5t-50 -21.5q-28 0 -45 18.5zM407 542zM136 543l-29 35l104 106q31 29 50 29q17 0 40 -23l106 -109l-36 -39l-119 81z
" />
  </g>

</svg>
