<?xml version="1.0" standalone="no"?>
<!DOCTYPE svg PUBLIC "-//W3C//DTD SVG 1.1//EN" "http://www.w3.org/Graphics/SVG/1.1/DTD/svg11.dtd" >
<svg xmlns="http://www.w3.org/2000/svg" xmlns:xlink="http://www.w3.org/1999/xlink" version="1.1" viewBox="-10 0 356 1000">
  <g transform="matrix(1 0 0 -1 0 800)">
   <path fill="currentColor"
d="M34 0zM69 -57q-35 22 -35 61q0 29 19.5 51.5t50.5 38.5q-63 29 -63 86q0 45 38.5 72t98.5 27t93.5 -23t33.5 -61q0 -52 -59 -80q34 -17 52 -37.5t18 -54.5q0 -41 -37.5 -71.5t-108.5 -30.5q-66 0 -101 22zM229 178q0 24 -13 34.5t-43 10.5q-28 0 -40.5 -9t-12.5 -27
q0 -15 14.5 -24.5t49.5 -22.5l23 -8q22 16 22 46zM237 19q0 20 -23 32t-62 24l-11 3q-27 -21 -27 -54q0 -51 63 -51q60 0 60 46z" />
  </g>

</svg>
