<?xml version="1.0" standalone="no"?>
<!DOCTYPE svg PUBLIC "-//W3C//DTD SVG 1.1//EN" "http://www.w3.org/Graphics/SVG/1.1/DTD/svg11.dtd" >
<svg xmlns="http://www.w3.org/2000/svg" xmlns:xlink="http://www.w3.org/1999/xlink" version="1.1" viewBox="-19 0 632 1000">
  <g transform="matrix(1 0 0 -1 0 800)">
   <path fill="currentColor"
d="M381 648h222v-45l-64 -17l-120 -216l114 -4v-52l-147 -5l-34 -61l112 -3l69 -33l-156 -26l-25 1v-123l81 -16v-48h-266v48l82 16v126l-98 3l-65 32l154 26h3l-41 72l-6 -12l-110 24l31 32l67 -11l-130 231l-63 16v45h253v-45l-71 -16v-17l139 -267h6l141 269v15l-78 16
v45z" />
  </g>

</svg>
