<?xml version="1.0" standalone="no"?>
<!DOCTYPE svg PUBLIC "-//W3C//DTD SVG 1.1//EN" "http://www.w3.org/Graphics/SVG/1.1/DTD/svg11.dtd" >
<svg xmlns="http://www.w3.org/2000/svg" xmlns:xlink="http://www.w3.org/1999/xlink" version="1.1" viewBox="-10 0 693 1000">
  <g transform="matrix(1 0 0 -1 0 800)">
   <path fill="currentColor"
d="M382.398 373.928l272.518 -0.206055l-1.24219 -12.2969l-35.1514 -360.626h-92.082l0.994141 93.3652s-58.5859 -100.817 -218.942 -100.817c-202.381 0 -311.065 129.718 -286.886 372.799c21.4883 215.63 170.252 343.525 352.552 345.223
c248.836 2.36035 269.869 -181.555 269.869 -181.555l-110.755 -18.3008s-5.42383 106.366 -161.557 104.213c-138.95 -1.94629 -223.331 -99.5342 -236.042 -254.964c-14.7812 -180.396 55.9365 -269.496 194.515 -268.254
c180.727 1.65625 207.391 118.083 207.391 118.083l6.41797 72.5391h-169.755z" />
  </g>

</svg>
