<?xml version="1.0" standalone="no"?>
<!DOCTYPE svg PUBLIC "-//W3C//DTD SVG 1.1//EN" "http://www.w3.org/Graphics/SVG/1.1/DTD/svg11.dtd" >
<svg xmlns="http://www.w3.org/2000/svg" xmlns:xlink="http://www.w3.org/1999/xlink" version="1.1" viewBox="-10 0 930 1000">
  <g transform="matrix(1 0 0 -1 0 800)">
   <path fill="currentColor"
d="M785.862 697.325c26.54 0.331055 97.5869 -0.746094 121.726 -0.62207c-95.0625 -230.328 -172.321 -466.287 -267.384 -696.574h-106.159l-87.4033 562.883l-205.196 -562.882h-103.385c-49.2285 230.287 -76.5967 466.288 -125.825 696.575
c24.1387 -0.0830078 95.6016 0.993164 122.059 0.662109l61.1943 -417.515l8.5293 -108.892l31.6738 107.525l155.43 418.839l27.4922 -0.662109c13.249 -0.0830078 29.7275 0 45.875 0c0.207031 0 0.414062 0.0410156 0.621094 0c12.918 0 25.5459 -0.0410156 36.1035 0
l26.084 0.662109l73.7402 -422.938l9.72949 -103.799l28.7754 104.793z" />
  </g>

</svg>
