<?xml version="1.0" standalone="no"?>
<!DOCTYPE svg PUBLIC "-//W3C//DTD SVG 1.1//EN" "http://www.w3.org/Graphics/SVG/1.1/DTD/svg11.dtd" >
<svg xmlns="http://www.w3.org/2000/svg" xmlns:xlink="http://www.w3.org/1999/xlink" version="1.1" viewBox="-10 0 663 1000">
  <g transform="matrix(1 0 0 -1 0 800)">
   <path fill="currentColor"
d="M620.746 251.504c0 0 -23.6836 -84.0488 -90.7578 -150.295l65.625 -101.853l-139.033 0.828125l-20.4951 35.1934c-67.9844 -46.7861 -262.954 -79.4951 -351.31 18.6318c-37.6777 41.8174 -56.5166 93.9863 -51.8379 144.913
c7.8252 82.8076 71.835 168.513 177.787 209.502c-12.7939 21.1162 -39.416 74.1133 -39.416 74.1133c-51.7549 112.204 35.3584 197.081 127.771 210.33c78.543 11.1787 169.217 -21.9443 182.632 -103.51c21.7373 -134.976 -136.922 -214.885 -136.922 -214.885
l124.915 -192.527c41.7354 32.2949 63.8867 121.727 63.8867 121.727zM308.23 614.2c-47.5732 -8.28027 -71.7529 -55.4805 -37.0156 -118.414l27.9062 -48.0283c129.014 73.2842 86.2441 180.105 9.10938 166.442zM166.092 117.771
c47.1592 -50.0986 144.914 -41.4033 218.405 -2.07031l-130.256 217.783c-111.045 -42.2314 -148.847 -151.537 -88.1494 -215.713z" />
  </g>

</svg>
