<?xml version="1.0" standalone="no"?>
<!DOCTYPE svg PUBLIC "-//W3C//DTD SVG 1.1//EN" "http://www.w3.org/Graphics/SVG/1.1/DTD/svg11.dtd" >
<svg xmlns="http://www.w3.org/2000/svg" xmlns:xlink="http://www.w3.org/1999/xlink" version="1.1" viewBox="-10 0 535 1000">
  <g transform="matrix(1 0 0 -1 0 800)">
   <path fill="currentColor"
d="M321.44 513.479c71.5039 2.48438 204.825 -30.6406 182.343 -256.29c-22.7305 -228.548 -152.531 -272.021 -238.402 -265.396c-93.7383 7.03906 -120.899 70.8008 -120.899 70.8008l-6.25195 -62.9336h-105.993l69.1445 694.753h105.993
c-3.39551 -30.2246 -25.3398 -254.632 -25.3398 -254.632s46.7451 70.3857 139.406 73.6982zM397.873 262.157c10.8066 108.478 -25.5879 183.832 -119.574 163.13c-49.9326 -11.1787 -102.184 -57.5508 -112.907 -165.2
c-10.1855 -102.267 18.0518 -159.817 78.915 -172.238c98.168 -20.2881 142.926 67.4873 153.566 174.309z" />
  </g>

</svg>
