<?xml version="1.0" standalone="no"?>
<!DOCTYPE svg PUBLIC "-//W3C//DTD SVG 1.1//EN" "http://www.w3.org/Graphics/SVG/1.1/DTD/svg11.dtd" >
<svg xmlns="http://www.w3.org/2000/svg" xmlns:xlink="http://www.w3.org/1999/xlink" version="1.1" viewBox="-10 0 621 1000">
  <g transform="matrix(1 0 0 -1 0 800)">
   <path fill="currentColor"
d="M405.075 372.632c82.3516 -29.3965 153.356 -73.2861 150.251 -192.114c-3.76758 -116.758 -110.051 -182.176 -224.242 -197.909l-8.36328 -84.0498h-111.376l8.36328 84.0498c-57.1787 7.86621 -108.063 29.3965 -138.992 63.7617
c-33.2471 36.0215 -46.2061 80.7373 -48.4414 112.204l111.873 17.3896s0.911133 -61.6914 86.4922 -83.6357l21.3232 214.057c-52.417 18.2178 -88.3965 35.6074 -123.507 65.418c-95.4355 81.1514 -32.1709 230.204 27.8643 271.607
c39.251 32.709 87.6934 49.2705 134.77 56.3096l8.32227 83.6357h111.376l-8.44629 -84.877c18.3008 -3.3125 34.4072 -7.86719 46.7451 -12.8359c19.501 -7.86621 121.188 -43.0596 129.594 -178.863l-120.277 -14.4912c0.248047 2.48438 3.56055 40.1621 -18.6318 70.8008
c-10.9307 14.9053 -27.6582 25.6699 -47.6562 32.709l-21.0332 -211.158c11.2207 -3.72656 22.4414 -7.45312 33.9932 -12.0078zM263.39 421.9l17.6787 177.208c-7.61816 -1.65625 -15.3193 -4.14062 -22.2334 -7.03906
c-50.4707 -20.2881 -88.2725 -75.3545 -55.7705 -127.523c11.0547 -17.8037 32.502 -31.0527 60.3252 -42.6455zM341.684 89.4297c86.3682 19.0459 118.332 90.6738 85.9541 135.804c-16.3955 22.3584 -41.0723 36.4355 -67.7363 47.2002z" />
  </g>

</svg>
