<?xml version="1.0" standalone="no"?>
<!DOCTYPE svg PUBLIC "-//W3C//DTD SVG 1.1//EN" "http://www.w3.org/Graphics/SVG/1.1/DTD/svg11.dtd" >
<svg xmlns="http://www.w3.org/2000/svg" xmlns:xlink="http://www.w3.org/1999/xlink" version="1.1" viewBox="-10 0 361 1000">
  <g transform="matrix(1 0 0 -1 0 800)">
   <path fill="currentColor"
d="M324.01 603.408c-52.1689 4.5957 -96.3447 -0.868164 -101.23 -54.1543l-5.63086 -47.4072l38.1328 0.704102l58.71 0.0410156l-8.6123 -86.4922l-55.4805 0.414062l-41.2793 1.2832l-3.72656 -47.4482l-36.8906 -370.604l-106.987 -0.745117l37.2637 374.413
l5.54785 45.585l-64.5898 -1.3252l8.44629 84.7949l65.1279 -0.787109l4.05762 49.0215c0.124023 1.07617 0.248047 2.27734 0.37207 3.56055c3.85059 38.6709 14.8643 82.1445 60.7393 110.258c31.8398 19.501 80.4473 31.6318 155.057 29.6855z" />
  </g>

</svg>
