<?xml version="1.0" standalone="no"?>
<!DOCTYPE svg PUBLIC "-//W3C//DTD SVG 1.1//EN" "http://www.w3.org/Graphics/SVG/1.1/DTD/svg11.dtd" >
<svg xmlns="http://www.w3.org/2000/svg" xmlns:xlink="http://www.w3.org/1999/xlink" version="1.1" viewBox="-10 0 578 1000">
  <g transform="matrix(1 0 0 -1 0 800)">
   <path fill="currentColor"
d="M299.206 457.17c182.632 18.0107 247.799 -109.555 234.426 -243.661c-11.3447 -114.067 -96.4707 -235.753 -298.686 -222.711c-147.646 9.52246 -181.017 90.9639 -202.712 158.41l115.31 40.1201s15.0713 -98.292 133.278 -97.5049
c94.4834 0.580078 135.598 65.584 141.974 125.454c9.48145 89.0176 -32.502 145.823 -120.898 145.823c-80.6133 0 -118.208 -57.1367 -118.208 -57.1367l-121.686 2.15332l69.5586 389.566l392.134 -0.124023l-11.7168 -100.528l-301.957 -0.869141l-32.957 -194.763
s51.3818 48.8145 122.141 55.7705z" />
  </g>

</svg>
