<?xml version="1.0" standalone="no"?>
<!DOCTYPE svg PUBLIC "-//W3C//DTD SVG 1.1//EN" "http://www.w3.org/Graphics/SVG/1.1/DTD/svg11.dtd" >
<svg xmlns="http://www.w3.org/2000/svg" xmlns:xlink="http://www.w3.org/1999/xlink" version="1.1" viewBox="-10 0 592 1000">
  <g transform="matrix(1 0 0 -1 0 800)">
   <path fill="currentColor"
d="M530.001 561.131c22.1094 -69.1445 23.1436 -137.879 16.0225 -208.265c-22.7305 -228.548 -132.036 -365.594 -305.104 -365.594c-174.31 0 -204.782 126.281 -204.782 126.281l105.786 26.9121s11.9658 -71.2139 121.769 -57.9648
c78.3359 9.1084 151.165 87.7754 163.669 196.667c0 0 -45.834 -57.1367 -163.834 -65.417c-3.72656 0 -7.86719 0 -11.5518 0.414062c-45.71 -1.65625 -76.6797 7.45215 -110.175 24.4277c-9.89551 4.55469 -18.8799 9.9375 -27.4092 15.7344
c-27.0361 19.46 -48.4414 50.0986 -62.8916 79.4951c-12.752 25.6699 -16.3125 48.4424 -18.5898 79.4951c-1.07617 14.4912 -0.786133 29.8105 0.332031 45.1299l0.124023 1.24219c3.47754 34.7793 17.0996 72.043 32.2949 103.924
c0.0410156 0.414062 0.0820312 0.828125 0.537109 1.24219c0.0830078 0.828125 0.538086 1.24219 1.03516 2.07031c0.0830078 0.828125 0.580078 1.65625 1.07715 2.48438c0.538086 1.24219 1.07617 2.48438 2.07031 4.14062
c0.49707 0.828125 1.03516 2.07031 1.9873 3.3125c0.0410156 0.414062 0.538086 1.24219 0.993164 1.65625c1.03516 2.07031 2.07031 4.14062 3.06445 5.79688c0.0410156 0.414062 0.455078 0.414062 0.496094 0.828125c1.03516 2.07031 2.44238 3.72656 3.47754 5.79688
l0.455078 0.414062c0.538086 1.24219 1.44922 2.07031 1.9873 3.3125c0.49707 0.828125 1.4082 1.65625 1.94629 2.89844c0.49707 0.828125 1.4082 1.65625 1.94629 2.89844c29.8936 42.2314 103.758 102.267 223.414 102.267c135.39 0 200.559 -81.5654 219.853 -141.601z
M434.026 453.478c1.15918 7.86621 1.53027 15.7334 1.44727 23.1865c-0.166016 19.46 -3.80957 36.8496 -10.5996 51.7549c-3.3125 8.28027 -7.9082 16.1465 -13.4561 22.7715c-9.48145 12.835 -21.3232 22.7715 -35.0283 30.6377h-0.414062
c-16.3955 9.93652 -38.0078 17.3896 -66.4932 18.2178c-2.44238 0.414062 -5.34082 0.414062 -7.86621 0c-2.44238 0.414062 -4.92676 0.414062 -7.45215 0c-13.291 -0.414062 -25.4639 -2.07031 -36.5186 -4.96875c-12.752 -3.3125 -23.9727 -7.86719 -33.6201 -13.25
c-24.3457 -12.0068 -45.1719 -29.8105 -59.9531 -53.4102c-12.7939 -20.2881 -21.3643 -44.3018 -23.8066 -72.8701l-0.207031 -2.07031c-1.49023 -19.46 0.456055 -37.2637 4.67969 -52.9971c15.2783 -54.6523 50.2227 -86.1191 115.517 -87.3613
c3.72656 0 7.03906 0 10.8066 0.414062c79.1641 5.38281 152.614 56.7236 162.965 139.945z" />
  </g>

</svg>
