<?xml version="1.0" standalone="no"?>
<!DOCTYPE svg PUBLIC "-//W3C//DTD SVG 1.1//EN" "http://www.w3.org/Graphics/SVG/1.1/DTD/svg11.dtd" >
<svg xmlns="http://www.w3.org/2000/svg" xmlns:xlink="http://www.w3.org/1999/xlink" version="1.1" viewBox="-10 0 704 1000">
  <g transform="matrix(1 0 0 -1 0 800)">
   <path fill="currentColor"
d="M543.729 312.648c91.0879 0 125.659 -64.5898 116.261 -158.99c-7.99121 -80.3232 -53.9902 -159.818 -147.977 -159.818c-89.4316 0 -125.701 68.3164 -116.965 156.092c9.97852 100.197 54.6943 162.717 148.681 162.717zM588.817 162.354
c5.87891 59.207 -17.6367 80.7373 -52.002 80.7373c-33.9512 0 -63.0996 -26.9121 -68.4824 -80.7373c-6.625 -66.6602 13.29 -95.2285 50.9678 -95.2285c36.8496 0 63.0576 30.2246 69.5166 95.2285zM150.065 383.863c-89.4736 0 -125.287 68.3174 -116.551 156.093
c10.0195 100.61 54.2803 162.716 148.267 162.716c91.0879 0 125.701 -64.1758 116.261 -158.99c-7.99121 -80.3232 -53.9902 -159.818 -147.977 -159.818zM108 551.963c-6.45898 -64.5898 13.166 -92.3301 49.6016 -92.3301c36.0215 0 61.7334 29.3965 68.0264 92.7441
c5.71387 57.5508 -17.4307 78.667 -50.9678 78.667c-32.709 0 -61.4434 -26.498 -66.6602 -79.0811zM515.619 694.723l116.882 -0.703125l-476.887 -695.54l-116.841 0.745117z" />
  </g>

</svg>
