<?xml version="1.0" standalone="no"?>
<!DOCTYPE svg PUBLIC "-//W3C//DTD SVG 1.1//EN" "http://www.w3.org/Graphics/SVG/1.1/DTD/svg11.dtd" >
<svg xmlns="http://www.w3.org/2000/svg" xmlns:xlink="http://www.w3.org/1999/xlink" version="1.1" viewBox="-10 0 535 1000">
  <g transform="matrix(1 0 0 -1 0 800)">
   <path fill="currentColor"
d="M386.716 505.714l105.992 0.00195312l-66.9082 -672.312h-105.993c2.98145 30.2246 22.3584 224.739 22.3584 224.739s-46.4131 -62.9336 -139.074 -66.2461c-71.4629 -2.48438 -204.782 31.0527 -182.342 256.288c22.7305 228.548 152.531 272.021 238.443 265.811
c93.6963 -7.03906 121.312 -70.8008 121.312 -70.8008zM359.513 245.287c10.2266 102.681 -18.3838 160.23 -79.2881 172.651c-98.168 20.2881 -142.925 -67.4873 -153.607 -174.723c-10.1855 -102.267 29.0234 -174.309 121.354 -153.606
c50.3887 11.1787 101.937 59.207 111.542 155.678z" />
  </g>

</svg>
