<?xml version="1.0" standalone="no"?>
<!DOCTYPE svg PUBLIC "-//W3C//DTD SVG 1.1//EN" "http://www.w3.org/Graphics/SVG/1.1/DTD/svg11.dtd" >
<svg xmlns="http://www.w3.org/2000/svg" xmlns:xlink="http://www.w3.org/1999/xlink" version="1.1" viewBox="-10 0 575 1000">
  <g transform="matrix(1 0 0 -1 0 800)">
   <path fill="currentColor"
d="M437.619 360.222c0 0 91.874 -33.9512 76.4717 -179.692c-11.2207 -104.337 -113.694 -193.769 -252.811 -193.769c-113.032 0 -209.544 45.5439 -229.045 169.755l116.469 17.8037c11.0137 -60.0352 64.1348 -87.7754 126.447 -85.7051
c170.376 6.21094 182.839 222.752 32.0879 218.197h-55.0664l10.2686 103.095l57.2197 0.828125c135.307 -0.828125 147.479 200.394 -3.93359 201.636c-70.7178 0.828125 -131.333 -33.9512 -143.133 -106.821l-109.389 11.5928
c35.7725 134.562 147.231 189.628 265.231 189.628c144.499 0 209.337 -93.1582 203.499 -193.354c-7.74219 -123.797 -94.3174 -153.193 -94.3174 -153.193z" />
  </g>

</svg>
